<?xml-stylesheet href="../../style/waveformjs.css" type="text/css"?>
<svg xmlns="http://www.w3.org/2000/svg" xmlns:xlink="http://www.w3.org/1999/xlink" width="100%" height="100%" viewBox="0 0 1000 1000">
  <path class="svg-wave" id="sp" d="M601.28 500.00 L601.42 501.01 L601.55 502.03 L601.66 503.05 L601.77 504.07 L601.86 505.10 L601.93 506.12 L601.98 507.15 L602.02 508.18 L602.06 509.21 L602.07 510.24 L602.07 511.27 L602.06 512.31 L602.04 513.34 L602.01 514.38 L601.98 515.41 L601.94 516.45 L601.87 517.49 L601.81 518.53 L601.74 519.57 L601.63 520.60 L601.54 521.64 L601.45 522.69 L601.32 523.72 L601.19 524.76 L601.05 525.80 L600.90 526.84 L600.75 527.88 L600.58 528.92 L600.39 529.96 L600.20 531.00 L600.00 532.03 L599.77 533.06 L599.54 534.10 L599.32 535.13 L599.06 536.16 L598.80 537.19 L598.53 538.22 L598.24 539.24 L597.94 540.26 L597.66 541.29 L597.34 542.31 L597.01 543.32 L596.67 544.34 L596.33 545.35 L595.97 546.36 L595.61 547.37 L595.22 548.37 L594.81 549.36 L594.43 550.37 L593.99 551.35 L593.55 552.33 L593.16 553.34 L592.70 554.31 L592.23 555.29 L591.80 556.28 L591.28 557.23 L590.78 558.19 L590.33 559.18 L589.80 560.12 L589.23 561.04 L588.71 562.00 L588.13 562.91 L587.55 563.84 L587.04 564.80 L586.44 565.71 L585.79 566.58 L585.23 567.53 L584.56 568.38 L583.92 569.26 L583.35 570.20 L582.71 571.09 L581.98 571.90 L581.36 572.81 L580.67 573.66 L579.97 574.50 L579.30 575.38 L578.65 576.26 L577.84 577.01 L577.12 577.83 L576.41 578.67 L575.64 579.46 L574.93 580.30 L574.15 581.08 L573.34 581.82 L572.60 582.64 L571.79 583.39 L570.98 584.14 L570.21 584.93 L569.33 585.60 L568.49 586.31 L567.73 587.12 L566.83 587.77 L565.92 588.39 L565.10 589.14 L564.22 589.81 L563.30 590.42 L562.45 591.13 L561.54 591.76 L560.55 592.26 L559.74 593.04 L558.80 593.62 L557.77 594.06 L556.87 594.70 L555.97 595.35 L554.95 595.79 L554.04 596.43 L553.13 597.07 L552.13 597.55 L551.10 597.97 L550.24 598.71 L549.22 599.14 L548.21 599.60 L547.25 600.17 L546.26 600.65 L545.19 600.98 L544.24 601.56 L543.17 601.87 L542.24 602.53 L541.18 602.87 L540.13 603.23 L539.07 603.55 L538.05 603.98 L536.93 604.13 L535.98 604.76 L534.89 605.00 L533.77 605.14 L532.74 605.53 L531.71 605.97 L530.56 605.94 L529.58 606.56 L528.56 607.00 L527.38 606.87 L526.36 607.34 L525.32 607.76 L524.11 607.43 L523.11 608.01 L522.09 608.51 L520.91 608.27 L519.85 608.57 L518.81 609.06 L517.69 609.05 L516.58 609.11 L515.54 609.63 L514.42 609.59 L513.33 609.85 L512.23 609.91 L511.11 609.84 L510.01 609.98 L508.93 610.22 L507.81 610.12 L506.72 610.40 L505.60 610.19 L504.49 609.99 L503.39 610.14 L502.29 610.22 L501.19 610.07 L500.09 610.24 L498.99 610.24 L497.89 609.87 L496.78 610.10 L495.67 610.43 L494.58 610.04 L493.49 609.79 L492.37 610.08 L491.32 609.39 L490.20 609.58 L489.08 609.69 L488.01 609.39 L486.95 608.97 L485.80 609.29 L484.74 608.93 L483.69 608.53 L482.48 609.10 L481.38 608.96 L480.40 608.19 L479.20 608.62 L478.20 608.01 L477.14 607.68 L475.90 608.18 L474.96 607.31 L474.00 606.62 L472.84 606.70 L471.97 605.70 L470.80 605.83 L469.64 605.91 L468.69 605.22 L467.75 604.55 L466.64 604.42 L465.74 603.67 L464.62 603.56 L463.47 603.52 L462.55 602.86 L461.64 602.16 L460.43 602.25 L459.56 601.49 L458.39 601.45 L457.23 601.38 L456.45 600.42 L455.44 600.01 L454.22 600.04 L453.40 599.18 L452.22 599.11 L451.10 598.91 L450.31 598.02 L449.43 597.33 L448.28 597.14 L447.42 596.43 L446.60 595.64 L445.51 595.34 L444.73 594.51 L444.03 593.55 L442.80 593.47 L442.02 592.64 L441.23 591.85 L440.22 591.40 L439.26 590.87 L438.56 589.97 L437.44 589.66 L436.44 589.18 L435.74 588.28 L434.68 587.88 L433.59 587.50 L433.00 586.47 L431.87 586.14 L430.74 585.79 L430.29 584.60 L428.92 584.53 L428.02 583.88 L427.24 583.09 L426.07 582.74 L425.29 581.96 L424.59 581.07 L422.81 581.34 L422.27 580.29 L421.70 579.28 L420.54 578.86 L419.71 578.10 L419.40 576.85 L417.77 576.85 L416.98 576.04 L416.80 574.70 L415.53 574.32 L414.86 573.41 L414.64 572.13 L413.11 571.95 L412.21 571.23 L412.10 569.87 L411.03 569.28 L409.87 568.74 L409.50 567.61 L408.24 567.12 L406.93 566.67 L407.12 565.13 L406.25 564.36 L404.88 563.91 L404.30 562.92 L403.72 561.93 L402.66 561.24 L402.13 560.22 L401.13 559.48 L400.61 558.44 L399.76 557.60 L399.01 556.70 L398.48 555.67 L397.94 554.65 L396.76 553.96 L396.67 552.70 L396.01 551.73 L395.22 550.82 L394.79 549.73 L394.85 548.43 L393.71 547.67 L392.96 546.73 L392.99 545.44 L391.85 544.66 L390.92 543.77 L391.03 542.46 L389.92 541.63 L389.18 540.65 L389.10 539.43 L388.33 538.45 L387.61 537.44 L387.30 536.30 L387.30 535.06 L386.09 534.19 L385.86 533.02 L385.51 531.88 L384.67 530.88 L384.31 529.74 L384.29 528.51 L383.01 527.59 L383.30 526.29 L382.33 525.28 L382.11 524.09 L382.13 522.86 L381.74 521.71 L381.13 520.60 L381.56 519.31 L380.44 518.27 L379.88 517.12 L380.24 515.85 L380.03 514.66 L379.47 513.51 L380.15 512.22 L379.14 511.10 L378.39 509.94 L379.26 508.66 L378.75 507.48 L378.09 506.30 L378.85 505.04 L378.04 503.85 L377.40 502.65 L377.72 501.42 L377.57 500.19 L376.83 498.96 L377.31 497.74 L376.89 496.50 L376.47 495.25 L376.58 494.02 L376.72 492.79 L376.35 491.53 L376.69 490.31 L376.56 489.06 L376.39 487.80 L376.63 486.57 L376.77 485.34 L376.90 484.11 L377.24 482.90 L377.00 481.61 L377.04 480.36 L377.30 479.14 L377.43 477.90 L377.25 476.59 L377.64 475.40 L377.65 474.12 L377.22 472.75 L377.69 471.57 L378.22 470.40 L377.66 468.97 L378.24 467.82 L378.59 466.61 L378.08 465.15 L378.44 463.94 L379.00 462.78 L378.90 461.42 L379.09 460.15 L379.75 459.03 L379.28 457.51 L379.95 456.40 L380.88 455.38 L380.39 453.83 L381.06 452.72 L381.98 451.71 L381.27 450.03 L381.93 448.91 L383.23 448.08 L383.19 446.65 L384.08 445.65 L384.33 444.35 L384.50 443.01 L384.94 441.78 L385.73 440.74 L385.95 439.40 L386.37 438.16 L386.88 436.96 L387.20 435.65 L387.71 434.45 L388.65 433.49 L389.10 432.25 L389.29 430.84 L389.72 429.56 L390.13 428.27 L391.08 427.32 L391.52 426.04 L391.88 424.69 L392.83 423.75 L393.18 422.38 L393.86 421.24 L394.89 420.36 L395.58 419.22 L395.86 417.77 L396.85 416.86 L397.99 416.08 L398.20 414.54 L399.01 413.47 L400.10 412.67 L400.62 411.34 L401.47 410.32 L402.58 409.53 L402.80 407.91 L403.84 407.05 L404.81 406.14 L405.66 405.09 L406.35 403.88 L407.28 402.91 L408.16 401.88 L408.96 400.77 L409.93 399.84 L410.75 398.73 L411.56 397.60 L412.75 396.91 L413.35 395.52 L414.26 394.48 L415.45 393.80 L416.17 392.52 L417.44 391.94 L418.74 391.40 L419.11 389.61 L420.39 389.05 L421.69 388.52 L422.51 387.32 L423.83 386.82 L425.27 386.53 L425.68 384.66 L426.75 383.79 L428.30 383.68 L429.08 382.33 L430.25 381.60 L431.76 381.47 L432.24 379.54 L433.17 378.35 L435.04 378.91 L435.96 377.71 L437.17 377.05 L438.50 376.61 L439.51 375.53 L440.44 374.27 L442.02 374.38 L443.16 373.54 L444.18 372.40 L445.57 372.10 L446.81 371.47 L448.03 370.77 L449.43 370.53 L450.46 369.33 L451.86 369.09 L453.14 368.52 L454.36 367.77 L455.62 367.13 L456.95 366.70 L458.15 365.83 L459.61 365.84 L460.95 365.41 L462.18 364.62 L463.52 364.19 L465.01 364.31 L466.23 363.41 L467.49 362.63 L469.00 362.92 L470.22 361.89 L471.49 361.05 L472.96 361.17 L474.31 360.69 L475.61 359.95 L477.08 360.12 L478.42 359.46 L479.73 358.60 L481.13 358.30 L482.63 358.75 L483.95 357.82 L485.34 357.33 L486.79 357.48 L488.14 356.36 L489.59 356.51 L491.05 356.79 L492.44 355.89 L493.89 356.04 L495.33 355.76 L496.76 355.18 L498.21 355.67 L499.66 355.66 L501.10 355.27 L502.54 355.64 L504.01 354.89 L505.46 354.79 L506.90 355.18 L508.35 355.16 L509.84 354.70 L511.23 355.59 L512.75 354.88 L514.27 354.23 L515.65 355.11 L517.16 354.80 L518.69 354.31 L520.09 354.96 L521.64 354.48 L523.22 353.91 L524.56 354.83 L526.02 355.03 L527.56 354.81 L529.02 355.08 L530.50 355.22 L532.03 355.16 L533.46 355.54 L534.85 356.09 L536.46 355.79 L537.79 356.55 L539.19 357.06 L540.73 357.07 L542.13 357.59 L543.58 357.91 L545.06 358.16 L546.44 358.75 L547.94 358.94 L549.53 358.90 L550.96 359.36 L552.36 359.87 L553.81 360.29 L555.29 360.60 L556.67 361.20 L558.33 361.11 L559.52 362.17 L560.87 362.82 L562.68 362.47 L563.93 363.36 L565.22 364.16 L567.12 363.71 L568.34 364.66 L569.56 365.61 L571.26 365.63 L572.50 366.53 L573.66 367.57 L575.58 367.26 L576.85 368.12 L577.91 369.31 L579.56 369.53 L580.63 370.71 L581.83 371.66 L583.82 371.39 L584.89 372.56 L585.73 374.04 L587.62 374.00 L588.57 375.31 L589.71 376.34 L591.50 376.49 L592.99 377.07 L593.74 378.62 L595.35 379.06 L596.63 379.92 L598.04 380.63 L599.49 381.30 L601.03 381.89 L601.53 383.68 L603.17 384.16 L604.49 385.01 L605.74 385.95 L607.14 386.73 L608.03 388.06 L609.13 389.16 L610.98 389.51 L611.73 390.97 L613.03 391.88 L614.40 392.74 L615.23 394.11 L616.07 395.46 L617.91 395.92 L618.73 397.29 L619.46 398.73 L620.97 399.51 L622.25 400.50 L622.60 402.23 L624.22 402.96 L624.98 404.36 L625.69 405.80 L627.26 406.59 L628.17 407.88 L628.71 409.43 L630.05 410.42 L631.68 411.22 L632.24 412.76 L633.46 413.86 L634.91 414.82 L635.73 416.19 L636.29 417.71 L637.97 418.57 L638.20 420.28 L639.56 421.35 L640.51 422.66 L641.08 424.17 L641.84 425.58 L642.89 426.84 L643.30 428.43 L644.87 429.45 L645.16 431.09 L645.59 432.67 L646.56 433.99 L647.47 435.35 L647.54 437.07 L649.07 438.17 L649.91 439.57 L649.96 441.29 L651.11 442.57 L652.01 443.96 L651.80 445.76 L653.41 446.91 L654.40 448.29 L653.87 450.17 L654.95 451.53 L656.12 452.87 L655.98 454.61 L656.84 456.05 L658.20 457.38 L658.04 459.11 L658.89 460.58 L659.91 462.02 L660.04 463.68 L660.32 465.29 L661.06 466.82 L660.95 468.51 L661.34 470.11 L662.25 471.62 L662.65 473.22 L664.36 474.62 L664.95 476.22 L664.63 477.94 L665.17 479.55 L666.14 481.11 L666.29 482.78 L667.12 484.38 L666.51 486.12 L666.46 487.80 L666.55 489.46 L668.14 491.05 L667.35 492.77 L667.89 494.43 L667.81 496.11 L667.67 497.79 L667.68 499.47 L669.33 501.15 L668.32 502.83 L668.92 504.53 L668.76 506.22 L668.70 507.90 L668.15 509.56 L670.31 511.40 L669.89 513.08 L667.88 514.61 L667.92 516.31 L668.94 518.11 L667.61 519.67 L667.66 521.38 L668.10 523.14 L667.80 524.81 L667.54 526.49 L667.82 528.26 L667.91 530.00 L667.70 531.70 L667.73 533.44 L667.48 535.14 L666.83 536.75 L667.41 538.63 L667.97 540.54 L667.14 542.11 L666.02 543.60 L666.33 545.46 L666.99 547.44 L664.94 548.65 L664.31 550.26 L664.00 551.96 L663.44 553.58 L663.90 555.56 L665.15 557.83 L664.22 559.35 L664.21 561.21 L664.16 563.07 L663.94 564.88 L661.64 565.84 L661.54 567.69 L660.37 569.10 L658.49 570.17 L657.40 571.58 L657.87 573.71 L657.46 575.44 L657.98 577.65 L657.07 579.16 L657.38 581.30 L656.29 582.73 L655.74 584.44 L653.80 585.38 L653.38 587.17 L653.06 589.03 L651.12 589.93 L649.20 590.82 L648.92 592.71 L649.83 595.37 L649.05 596.98 L647.72 598.23 L647.40 600.16 L647.48 602.38 L645.57 603.23 L644.98 605.00 L642.66 605.52 L640.92 606.42 L639.35 607.44 L638.23 608.80 L637.91 610.80 L637.72 612.93 L636.84 614.52 L636.49 616.57 L635.72 618.27 L635.57 620.55 L633.98 621.55 L631.35 621.58 L630.94 623.66 L628.78 624.08 L626.55 624.40 L625.46 625.81 L624.61 627.49 L624.09 629.53 L622.42 630.36 L620.92 631.38 L620.60 633.68 L618.88 634.46 L617.97 636.15 L615.85 636.43 L614.50 637.61 L613.47 639.18 L611.50 639.59 L609.98 640.54 L609.21 642.48 L608.90 645.06 L608.36 647.39 L606.45 647.86 L605.78 650.07 L605.67 653.15 L603.78 653.67 L602.22 654.67 L599.73 654.24 L597.86 654.71 L596.36 655.77 L594.21 655.76 L592.30 656.10 L591.37 658.12 L589.90 659.22 L588.18 659.89 L587.10 661.74 L585.35 662.35 L583.48 662.74 L581.45 662.75 L580.29 664.55 L577.88 663.72 L577.04 666.23 L575.13 666.46 L574.02 668.48 L572.48 669.54 L570.78 670.25 L568.59 669.77 L567.35 671.61 L565.28 671.37 L563.10 670.75 L561.86 672.69 L560.18 673.43 L558.42 673.97 L556.96 675.40 L555.36 676.46 L553.96 678.24 L551.83 677.58 L550.24 678.76 L548.47 679.31 L547.22 681.90 L544.94 680.53 L543.18 681.18 L541.50 682.17 L539.88 683.50 L537.92 683.32 L536.15 684.00 L534.39 684.79 L532.35 684.05 L530.56 684.67 L528.72 685.06 L526.88 685.37 L524.89 684.69 L523.11 685.42 L521.15 684.76 L519.33 685.22 L517.51 685.79 L515.66 686.05 L513.74 685.42 L512.03 687.81 L510.11 687.11 L508.25 687.57 L506.37 687.46 L504.52 688.39 L502.64 688.73 L500.76 691.45 L498.86 690.18 L496.95 690.23 L495.03 691.05 L493.11 691.32 L491.22 690.72 L489.34 690.18 L487.58 687.79 L485.58 689.30 L483.67 689.33 L481.73 689.70 L479.93 688.58 L477.92 689.42 L476.14 688.33 L474.17 688.72 L472.32 688.21 L470.46 687.83 L468.56 687.64 L466.71 687.17 L464.70 687.60 L462.87 686.99 L460.86 687.29 L459.18 686.04 L457.20 686.13 L455.12 686.63 L453.19 686.40 L451.75 684.32 L449.56 685.11 L447.41 685.66 L445.49 685.35 L443.87 684.06 L441.59 684.87 L440.01 683.47 L437.93 683.60 L436.02 683.20 L434.24 682.41 L432.51 681.50 L430.27 681.92 L428.96 679.95 L426.79 680.13 L425.08 679.20 L423.07 678.94 L421.58 677.49 L419.29 677.85 L418.07 675.85 L415.86 675.96 L414.04 675.26 L412.27 674.42 L410.67 673.28 L408.04 674.07 L407.02 671.83 L405.06 671.33 L402.92 671.13 L401.26 670.08 L400.10 668.17 L397.59 668.54 L395.99 667.37 L394.29 666.38 L392.62 665.33 L390.01 665.70 L388.97 663.68 L387.70 662.04 L385.97 661.07 L385.15 658.84 L383.48 657.80 L381.64 656.98 L379.67 656.33 L378.86 654.17 L376.18 654.37 L373.94 653.98 L372.45 652.66 L371.62 650.56 L369.47 650.03 L367.47 649.28 L366.10 647.82 L365.28 645.77 L362.93 645.37 L361.02 644.47 L359.94 642.71 L358.93 640.89 L356.69 640.29 L356.12 638.06 L353.89 637.43 L352.90 635.61 L351.38 634.29 L350.71 632.21 L348.89 631.14 L348.07 629.22 L346.76 627.71 L345.74 625.97 L344.07 624.75 L343.02 623.04 L340.74 622.27 L339.84 620.44 L337.50 619.68 L336.08 618.21 L334.67 616.73 L333.82 614.86 L331.89 613.73 L330.66 612.11 L330.31 609.91 L328.48 608.68 L326.14 607.74 L325.67 605.63 L324.67 603.86 L322.83 602.57 L322.08 600.64 L321.06 598.87 L319.95 597.15 L319.03 595.32 L319.33 592.86 L318.34 591.09 L318.03 588.97 L315.89 587.75 L315.00 585.92 L313.67 584.28 L314.17 581.83 L312.34 580.40 L310.75 578.85 L309.08 577.32 L309.51 574.93 L308.61 573.09 L308.00 571.13 L305.96 569.68 L307.14 567.09 L304.88 565.70 L303.88 563.86 L303.14 561.93 L303.64 559.62 L300.77 558.32 L299.76 556.45 L299.15 554.46 L299.82 552.13 L298.65 550.29 L298.41 548.22 L296.92 546.43 L298.57 543.94 L298.27 541.90 L298.00 539.85 L296.55 538.03 L296.20 535.99 L294.68 534.14 L294.29 532.10 L293.04 530.17 L292.49 528.14 L292.08 526.08 L291.31 524.06 L289.62 522.12 L290.61 519.91 L290.64 517.79 L288.87 515.82 L288.45 513.72 L289.59 511.54 L289.04 509.45 L288.15 507.37 L289.14 505.23 L288.55 503.13 L288.97 501.01 L288.44 498.90 L289.01 496.79 L287.61 494.64 L289.01 492.57 L287.82 490.40 L287.10 488.23 L287.39 486.11 L288.42 484.05 L286.77 481.78 L288.17 479.77 L287.71 477.58 L288.58 475.53 L287.96 473.31 L287.50 471.09 L287.80 468.97 L288.99 466.98 L286.96 464.48 L287.29 462.34 L288.85 460.44 L289.95 458.47 L288.38 455.95 L289.81 454.05 L290.31 451.96 L290.68 449.84 L291.23 447.75 L291.68 445.65 L290.78 443.17 L292.38 441.37 L292.39 439.13 L292.08 436.77 L293.47 434.93 L294.84 433.10 L294.21 430.61 L294.87 428.54 L296.80 426.92 L296.90 424.66 L297.58 422.60 L298.20 420.51 L298.10 418.13 L298.69 416.02 L300.35 414.36 L300.17 411.90 L300.22 409.53 L301.91 407.90 L303.11 406.05 L303.15 403.64 L304.89 402.06 L305.61 399.98 L306.42 397.93 L307.20 395.86 L308.86 394.28 L308.84 391.76 L310.92 390.42 L310.69 387.75 L311.98 385.95 L313.23 384.14 L314.93 382.62 L314.61 379.80 L316.32 378.28 L317.20 376.22 L318.87 374.69 L319.52 372.45 L320.46 370.41 L321.16 368.17 L323.20 366.93 L322.58 363.66 L324.32 362.18 L326.31 360.91 L328.08 359.48 L327.54 356.15 L330.33 355.57 L332.00 354.07 L333.46 352.39 L334.86 350.65 L336.56 349.19 L337.19 346.73 L339.51 345.86 L341.28 344.47 L342.24 342.30 L343.01 339.90 L345.51 339.26 L346.46 337.01 L347.73 335.09 L349.55 333.75 L350.79 331.78 L352.40 330.20 L354.10 328.73 L355.60 327.01 L357.00 325.16 L359.08 324.15 L360.63 322.47 L362.21 320.83 L363.98 319.43 L365.96 318.30 L367.34 316.35 L369.39 315.33 L371.17 313.93 L373.23 312.92 L375.08 311.62 L376.62 309.85 L378.20 308.10 L380.88 308.12 L382.40 306.27 L384.03 304.58 L385.71 302.95 L388.21 302.74 L389.63 300.62 L391.60 299.47 L393.74 298.64 L395.65 297.39 L397.72 296.43 L400.01 295.91 L401.56 293.89 L403.78 293.25 L405.58 291.70 L407.68 290.79 L409.44 289.10 L411.61 288.33 L413.49 286.85 L415.69 286.17 L417.77 285.17 L419.88 284.25 L421.90 283.06 L424.01 282.13 L425.96 280.69 L428.25 280.23 L430.48 279.63 L432.57 278.56 L434.68 277.53 L436.99 277.17 L439.13 276.20 L441.22 275.02 L443.58 274.91 L445.77 274.08 L448.01 273.45 L450.27 272.88 L452.59 272.64 L454.77 271.68 L457.16 271.82 L459.35 270.88 L461.76 271.16 L463.87 269.65 L466.09 268.69 L468.33 267.85 L470.78 268.50 L472.97 267.19 L475.34 267.30 L477.67 267.12 L480.00 266.83 L482.30 266.25 L484.73 267.44 L487.03 266.77 L489.32 265.77 L491.64 265.16 L494.02 266.36 L496.34 264.91 L498.69 264.81 L501.04 264.45 L503.39 264.76 L505.73 265.44 L508.08 265.41 L510.45 264.89 L512.79 265.28 L515.12 265.69 L517.54 264.82 L519.88 265.13 L522.26 264.98 L524.68 264.47 L527.00 265.04 L529.36 265.28 L531.77 265.07 L534.15 265.20 L536.43 265.99 L538.83 266.00 L541.23 266.02 L543.48 266.94 L545.80 267.43 L548.22 267.43 L550.60 267.67 L552.96 268.00 L555.48 267.67 L557.73 268.54 L560.21 268.49 L562.51 269.14 L564.57 270.65 L566.79 271.54 L569.01 272.43 L571.35 272.92 L573.77 273.17 L575.22 276.34 L577.32 277.49 L579.68 277.88 L581.71 279.20 L583.50 281.12 L585.50 282.41 L588.03 282.40 L590.81 281.83 L593.42 281.73 L596.01 281.75 L598.70 281.59 L601.84 280.52 L603.95 281.70 L605.64 283.75 L607.02 286.38 L608.69 288.36 L610.35 290.32 L611.98 292.27 L613.43 294.53 L615.57 295.51 L617.38 297.07 L619.18 298.63 L621.42 299.45 L624.10 299.58 L626.13 300.78 L628.29 301.78 L631.04 301.91 L632.94 303.33 L634.83 304.78 L637.13 305.63 L639.79 306.01 L642.37 306.54 L645.28 306.66 L647.28 308.03 L649.70 308.87 L652.76 308.92 L655.31 309.68 L656.81 311.70 L657.76 314.37 L658.84 316.85 L660.04 319.15 L661.21 321.46 L662.68 323.41 L664.62 324.85 L666.99 325.85 L669.21 327.04 L671.75 327.91 L674.85 328.28 L677.71 328.92 L679.28 330.84 L681.07 332.54 L683.56 333.61 L685.68 335.04 L686.32 337.78 L688.38 339.27 L691.22 340.12 L691.98 342.72 L693.88 344.38 L695.41 346.34 L696.11 348.93 L697.36 351.09 L699.67 352.46 L701.77 354.00 L703.08 356.13 L704.73 358.02 L707.41 359.21 L709.01 361.15 L709.68 363.71 L710.89 365.90 L712.08 368.11 L712.26 370.92 L713.33 373.17 L715.12 375.00 L717.02 376.78 L718.99 378.55 L720.51 380.57 L722.43 382.39 L725.61 383.59 L725.92 386.27 L725.96 389.07 L729.89 389.98 L730.75 392.39 L730.29 395.39 L730.92 397.88 L732.53 399.94 L733.93 402.09 L734.91 404.44 L735.82 406.80 L738.13 408.63 L738.90 411.07 L740.92 413.05 L741.45 415.57 L741.70 418.19 L740.75 421.19 L740.50 423.92 L739.88 426.75 L738.87 429.66 L738.05 432.48 L739.33 434.70 L737.79 437.67 L738.78 439.95 L740.38 442.10 L739.35 444.87 L739.70 447.31 L743.14 449.10 L741.50 451.96 L742.33 454.31 L742.76 456.73 L744.93 458.87 L744.15 461.51 L746.36 463.68 L744.60 466.44 L746.72 468.65 L748.16 470.99 L747.80 473.54 L748.86 475.94 L749.57 478.39 L749.44 480.91 L749.44 483.42 L750.28 485.88 L750.94 488.36 L750.23 490.89 L750.00 493.41 L750.04 495.91 L751.01 498.40 L751.28 500.91 L751.69 503.43 L752.13 505.96 L752.29 508.49 L751.89 511.00 L750.80 513.46 L752.08 516.06 L751.39 518.54 L749.31 520.90 L750.39 523.51 L750.86 526.09 L749.62 528.49 L750.03 531.07 L750.89 533.73 L749.62 536.10 L750.62 538.81 L752.17 541.64 L752.94 544.36 L754.58 547.28 L755.16 550.03 L757.56 553.18 L760.33 556.48 L758.24 558.73 L759.59 561.78 L760.20 564.68 L759.46 567.25 L757.74 569.57 L756.06 571.87 L756.77 574.85 L751.89 576.16 L748.90 577.99 L747.05 580.13 L745.95 582.50 L740.98 583.52 L741.61 586.46 L738.71 588.12 L738.85 590.89 L738.48 593.50 L737.38 595.81 L736.86 598.37 L736.02 600.80 L734.33 602.86 L733.01 605.07 L732.82 607.80 L732.11 610.30 L730.36 612.31 L729.33 614.66 L728.67 617.20 L728.60 620.07 L727.53 622.42 L726.73 624.93 L725.30 627.10 L725.18 630.02 L723.59 632.10 L721.19 633.68 L720.65 636.39 L718.98 638.40 L716.03 639.58 L715.36 642.22 L714.42 644.69 L712.19 646.30 L711.32 648.84 L710.84 651.68 L708.96 653.52 L708.34 656.30 L707.76 659.13 L705.98 661.06 L704.46 663.19 L703.10 665.46 L701.00 667.13 L698.25 668.22 L696.92 670.50 L694.70 672.02 L692.63 673.65 L691.23 675.89 L689.37 677.71 L687.18 679.20 L686.77 682.42 L684.44 683.79 L681.82 684.84 L681.21 687.94 L679.48 689.91 L676.47 690.51 L675.57 693.38 L673.86 695.39 L671.51 696.67 L670.34 699.32 L668.61 701.34 L665.90 702.17 L664.85 705.04 L662.88 706.79 L659.54 706.78 L658.28 709.44 L657.27 712.48 L654.15 712.68 L652.09 714.32 L650.77 717.02 L648.95 719.06 L647.25 721.27 L645.11 722.86 L642.69 724.01 L641.05 726.40 L638.84 727.90 L635.79 728.00 L633.64 729.58 L631.65 731.44 L628.74 731.69 L626.51 733.14 L624.40 734.83 L621.65 735.29 L619.34 736.59 L617.50 738.85 L614.86 739.51 L612.53 740.79 L611.04 743.94 L608.62 745.10 L606.16 746.16 L604.40 748.88 L602.47 751.30 L599.73 751.75 L597.20 752.74 L594.94 754.40 L591.89 753.96 L589.28 754.69 L587.32 757.32 L583.76 755.19 L581.86 758.07 L579.84 760.72 L576.23 758.12 L574.05 760.29 L572.05 763.24 L568.61 760.90 L566.27 762.62 L564.18 765.50 L560.75 762.81 L558.38 764.59 L556.33 768.01 L553.08 765.71 L550.53 766.79 L548.44 770.56 L545.14 767.48 L542.37 767.39 L540.25 771.50 L537.68 773.00 L534.47 769.57 L532.10 772.73 L529.51 774.31 L526.91 776.07 L524.21 777.05 L521.41 776.91 L518.63 776.95 L516.06 780.60 L513.22 780.10 L510.31 777.29 L507.60 779.51 L504.81 780.01 L501.99 777.48 L499.21 777.54 L496.43 778.24 L493.71 775.62 L490.87 778.00 L488.05 778.86 L485.38 776.45 L482.39 779.87 L479.40 782.31 L476.83 779.04 L474.19 777.26 L471.29 778.24 L468.59 777.17 L466.09 774.70 L463.61 772.37 L461.21 769.74 L458.55 769.07 L455.57 770.46 L453.18 768.19 L450.16 769.54 L447.36 769.58 L444.96 767.62 L442.11 767.88 L439.10 768.77 L436.61 767.31 L433.97 766.56 L431.47 765.26 L428.77 764.75 L425.84 765.05 L422.73 765.86 L420.78 762.74 L417.75 763.25 L414.74 763.58 L412.67 761.06 L409.55 761.64 L406.63 761.59 L404.56 759.17 L402.13 757.81 L398.82 758.69 L396.03 758.18 L393.36 757.35 L390.50 756.97 L387.74 756.30 L384.97 755.65 L382.24 754.86 L380.25 752.50 L377.96 750.83 L374.69 751.12 L372.81 748.64 L370.71 746.63 L367.77 746.22 L365.04 745.38 L363.07 743.19 L359.96 742.99 L357.39 741.83 L355.18 740.05 L352.12 739.66 L349.32 738.84 L346.63 737.80 L344.16 736.40 L342.13 734.34 L339.78 732.77 L337.76 730.73 L335.54 728.99 L334.68 725.40 L332.28 723.93 L329.39 723.12 L327.81 720.57 L325.39 719.12 L322.66 718.04 L321.01 715.62 L318.31 714.47 L315.44 713.50 L313.96 710.90 L311.74 709.17 L308.62 708.41 L307.94 704.99 L305.54 703.44 L302.46 702.57 L301.68 699.34 L299.44 697.60 L296.24 696.78 L294.12 694.88 L293.06 692.00 L290.32 690.68 L287.80 689.12 L286.26 686.69 L283.60 685.24 L282.10 682.78 L280.42 680.48 L277.32 679.32 L275.37 677.22 L273.70 674.90 L271.52 672.96 L270.26 670.33 L268.50 668.07 L266.79 665.78 L265.34 663.30 L264.49 660.41 L262.07 658.60 L260.87 655.98 L259.42 653.51 L257.38 651.42 L255.74 649.07 L254.07 646.73 L251.83 644.73 L250.15 642.38 L247.94 640.32 L245.89 638.15 L243.16 636.32 L242.73 633.27 L241.61 630.59 L239.94 628.19 L239.46 625.20 L238.40 622.51 L237.07 619.94 L236.97 616.82 L235.29 614.41 L233.35 612.10 L233.06 609.09 L231.67 606.54 L230.88 603.75 L230.44 600.84 L228.31 598.55 L227.19 595.88 L227.55 592.70 L226.28 590.09 L223.25 588.03 L223.63 584.88 L222.72 582.13 L221.12 579.58 L219.43 577.03 L220.32 573.79 L218.39 571.30 L216.75 568.70 L217.54 565.53 L215.59 562.99 L214.14 560.32 L213.03 557.56 L211.75 554.83 L211.31 551.92 L210.49 549.09 L208.97 546.36 L209.68 543.27 L209.50 540.33 L208.19 537.55 L208.18 534.59 L208.85 531.56 L208.14 528.68 L207.61 525.79 L207.80 522.83 L206.49 519.98 L206.22 517.05 L206.63 514.08 L205.72 511.18 L204.14 508.28 L203.59 505.33 L203.51 502.36 L204.64 499.40 L204.23 496.44 L203.85 493.47 L203.81 490.51 L205.95 487.63 L206.76 484.73 L205.76 481.72 L206.88 478.85 L206.01 475.83 L205.36 472.81 L205.69 469.87 L206.03 466.93 L205.85 463.92 L205.54 460.89 L207.17 458.13 L207.50 455.18 L207.09 452.12 L209.11 449.46 L208.57 446.35 L208.46 443.31 L210.32 440.67 L209.78 437.52 L210.25 434.59 L211.77 431.89 L211.18 428.70 L211.04 425.59 L213.25 423.09 L212.90 419.91 L213.39 416.95 L213.55 413.88 L214.00 410.89 L214.53 407.92 L215.32 405.02 L215.30 401.83 L216.47 399.06 L217.79 396.33 L218.58 393.42 L219.03 390.36 L221.12 387.95 L222.15 385.13 L223.52 382.44 L224.86 379.75 L225.60 376.79 L226.58 373.93 L228.69 371.60 L228.60 368.22 L229.36 365.23 L230.50 362.41 L231.33 359.43 L231.66 356.17 L234.29 354.14 L235.58 351.39 L237.48 348.98 L239.42 346.61 L241.67 344.43 L242.51 341.41 L245.23 339.55 L246.77 336.96 L246.53 333.20 L248.47 330.84 L250.87 328.81 L251.77 325.75 L252.99 322.90 L254.74 320.41 L256.56 317.98 L259.17 316.14 L261.76 314.32 L261.73 310.44 L265.03 309.20 L266.96 306.86 L267.06 302.98 L269.48 301.04 L272.35 299.51 L273.12 296.13 L274.12 292.91 L277.47 291.84 L278.91 289.01 L280.57 286.36 L282.13 283.59 L284.27 281.39 L286.28 279.05 L288.17 276.58 L289.86 273.87 L292.56 272.25 L295.60 271.03 L297.38 268.40 L299.56 266.22 L302.85 265.34 L304.88 262.98 L306.93 260.63 L309.99 259.56 L311.62 256.65 L313.52 254.07 L316.76 253.26 L318.56 250.50 L320.39 247.75 L322.93 245.98 L325.42 244.14 L327.40 241.52 L330.75 240.97 L332.95 238.67 L335.50 236.89 L339.12 236.86 L342.03 235.72 L344.19 233.31 L347.33 232.59 L350.29 231.58 L352.26 228.77 L354.21 225.85 L357.50 225.45 L360.27 224.08 L362.35 221.31 L365.57 220.82 L368.25 219.25 L370.99 217.79 L374.22 217.40 L376.91 215.82 L378.97 212.75 L382.74 213.72 L385.28 211.74 L387.71 209.41 L391.10 209.58 L393.78 207.88 L396.30 205.70 L399.48 205.35 L402.16 203.53 L404.88 201.77 L407.68 200.25 L410.70 199.41 L413.37 197.33 L416.45 196.66 L419.22 194.83 L422.39 194.47 L425.72 194.83 L428.46 192.74 L431.55 192.09 L435.01 193.24 L437.91 191.75 L440.84 190.32 L444.12 190.71 L447.12 189.63 L450.11 188.39 L453.39 188.98 L456.40 187.81 L459.38 186.28 L462.41 184.98 L465.57 184.70 L468.68 183.93 L471.88 184.03 L475.04 183.76 L478.17 183.07 L481.44 184.49 L484.63 185.08 L487.77 184.57 L490.92 184.30 L494.11 185.94 L497.23 184.29 L500.39 184.12 L503.54 184.81 L506.70 184.81 L509.86 184.48 L513.01 184.82 L516.23 183.53 L519.38 183.92 L522.43 185.63 L525.65 185.02 L528.89 184.23 L531.92 185.78 L535.21 184.82 L538.48 184.18 L541.60 184.82 L544.84 184.62 L548.17 183.91 L551.31 184.57 L554.57 184.42 L557.77 184.73 L560.97 185.11 L564.16 185.49 L567.38 185.80 L570.40 187.00 L573.92 186.07 L576.91 187.39 L579.60 189.87 L582.98 189.62 L586.33 189.56 L588.76 192.75 L592.10 192.77 L595.35 193.10 L598.12 194.99 L601.36 195.41 L604.82 195.21 L607.60 197.02 L611.03 197.00 L614.48 196.99 L617.41 198.41 L620.56 199.24 L624.00 199.39 L626.65 201.47 L629.41 203.27 L632.11 205.15 L635.29 205.97 L637.83 208.16 L640.96 209.12 L643.54 211.19 L646.45 212.57 L650.40 211.98 L652.81 214.36 L655.60 216.01 L658.47 217.52 L661.87 218.11 L664.03 220.83 L666.83 222.47 L669.28 224.67 L672.72 225.27 L675.50 226.94 L677.87 229.25 L680.90 230.55 L684.18 231.51 L686.64 233.66 L688.41 236.78 L691.79 237.64 L694.94 238.86 L697.26 241.18 L699.78 243.24 L703.11 244.28 L705.88 246.06 L708.90 247.53 L711.88 249.08 L713.92 251.74 L717.10 253.08 L719.52 255.32 L721.10 258.46 L723.86 260.30 L726.88 261.88 L728.20 265.24 L730.81 267.26 L733.54 269.17 L735.45 271.89 L738.06 273.94 L741.05 275.64 L742.97 278.34 L745.48 280.52 L749.30 281.54 L752.89 282.83 L757.06 283.68 L760.75 284.99 L764.28 286.48 L767.51 288.26 L772.13 288.99 L775.04 291.11 L778.25 293.02 L779.47 296.42 L782.08 298.81 L785.54 300.62 L786.94 303.88 L787.40 307.76 L787.62 311.74 L790.64 313.89 L792.07 317.07 L793.83 320.03 L795.36 323.13 L797.59 325.82 L798.15 329.47 L800.80 331.92 L802.87 334.72 L804.06 337.99 L805.26 341.25 L808.17 343.63 L809.53 346.82 L813.56 348.71 L816.82 351.02 L818.63 354.04 L819.37 357.55 L821.80 360.30 L823.00 363.61 L823.90 367.03 L825.14 370.30 L824.64 374.25 L826.23 377.37 L829.44 379.91 L829.88 383.47 L829.85 387.18 L832.70 389.91 L833.83 393.23 L833.65 396.95 L835.81 399.95 L835.42 403.71 L834.53 407.58 L836.91 410.53 L837.50 413.98 L836.72 417.76 L840.63 420.40 L840.64 423.99 L839.69 427.75 L840.79 431.08 L844.38 433.93 L843.09 437.73 L844.05 441.10 L844.26 444.60 L843.53 448.24 L844.73 451.58 L845.59 454.97 L843.73 458.71 L846.24 461.91 L848.96 465.14 L847.20 468.82 L847.84 472.27 L851.10 475.54 L851.58 479.04 L850.80 482.60 L850.08 486.14 L849.84 489.66 L849.64 493.16 L849.92 496.66 L847.77 500.15 L848.38 503.64 L850.89 507.17 L848.50 510.61 L847.96 514.08 L851.46 517.74 L852.69 521.34 L849.56 524.66 L850.94 528.29 L851.11 531.84 L850.80 535.35 L851.56 538.99 L850.23 542.39 L849.72 545.88 L851.65 549.71 L850.89 553.19 L849.10 556.50 L851.03 560.42 L851.08 564.05 L848.51 567.19 L847.48 570.60 L847.09 574.14 L844.80 577.26 L845.15 580.98 L843.70 584.27 L839.87 586.94 L839.38 590.44 L838.66 593.89 L834.65 596.39 L831.96 599.22 L829.89 602.21 L827.51 605.07 L826.93 608.50 L828.54 612.69 L830.78 617.18 L831.03 621.00 L832.79 625.43 L837.50 631.08 L838.07 635.21 L837.76 639.01 L836.77 642.56 L835.69 646.08 L834.09 649.37 L832.12 652.49 L829.74 655.41 L828.15 658.70 L825.32 661.36 L823.39 664.45 L821.80 667.72 L819.22 670.45 L816.21 672.93 L814.32 676.00 L810.24 677.81 L807.66 680.45 L806.44 683.88 L804.06 686.61 L800.16 688.37 L798.91 691.78 L798.56 695.80 L795.93 698.33 L795.16 702.13 L791.33 703.81 L791.12 708.03 L789.59 711.34 L785.09 712.46 L781.91 714.51 L782.49 719.45 L779.49 721.63 L775.73 723.18 L773.99 726.34 L771.57 728.95 L767.30 729.96 L764.81 732.46 L760.38 733.23 L756.46 734.38 L754.41 737.22 L753.91 741.54 L755.23 747.71 L752.97 750.47 L751.39 753.94 L752.17 759.87 L752.74 765.73 L750.10 768.27 L745.95 769.17 L742.57 770.87 L739.62 773.02 L736.54 775.00 L733.77 777.35 L730.86 779.51 L729.07 783.07 L726.68 785.91 L723.97 788.37 L721.90 791.68 L720.63 796.11 L717.68 798.34 L713.70 799.12 L710.44 800.87 L707.63 803.27 L704.25 804.82 L700.62 805.97 L697.42 807.76 L694.11 809.36 L690.07 809.76 L687.20 812.04 L684.28 814.26 L680.08 814.26 L677.16 816.45 L674.62 819.37 L671.07 820.45 L668.73 823.82 L664.33 823.23 L662.22 827.14 L659.13 829.13 L654.70 828.29 L650.62 828.11 L649.05 833.44 L645.54 834.54 L641.40 834.12 L637.59 834.39 L634.57 836.57 L630.59 836.33 L626.53 835.81 L622.17 834.33 L618.17 833.70 L614.95 835.22 L612.25 838.31 L610.23 843.71 L607.27 846.35 L604.66 850.28 L602.88 857.30 L600.96 864.31 L597.33 865.36 L594.04 867.76 L590.30 868.42 L586.28 867.90 L582.46 868.15 L578.61 868.17 L574.95 869.08 L571.54 871.27 L567.92 872.53 L564.18 873.09 L560.86 876.31 L557.39 878.79 L553.49 878.62 L549.63 878.55 L546.00 880.36 L542.17 880.63 L538.35 880.83 L534.59 881.77 L530.78 882.30 L526.83 880.72 L522.88 878.61 L519.08 878.70 L515.26 877.86 L511.39 875.31 L507.60 873.49 L503.88 874.70 L500.13 875.70 L496.38 875.02 L492.65 873.84 L488.89 874.58 L485.12 875.02 L481.39 874.46 L477.75 872.53 L474.03 872.31 L470.28 872.37 L466.57 871.89 L462.97 870.34 L459.44 868.44 L455.96 866.30 L452.52 864.14 L449.25 861.06 L446.02 857.99 L442.49 857.15 L438.59 858.53 L434.18 862.42 L430.25 863.38 L426.27 864.37 L421.52 868.86 L415.97 876.40 L412.43 874.60 L408.93 872.72 L405.44 870.89 L401.81 869.64 L398.07 868.81 L394.55 867.19 L390.91 866.03 L386.75 866.58 L382.71 866.61 L378.77 866.24 L374.46 866.94 L370.54 866.38 L367.44 863.56 L364.46 860.49 L360.90 859.01 L357.66 856.74 L354.78 853.64 L351.73 851.02 L347.48 851.27 L342.45 853.13 L339.08 851.20 L336.05 848.58 L331.48 849.18 L327.36 848.77 L324.66 845.47 L321.55 843.06 L318.56 840.45 L315.30 838.38 L312.74 835.05 L309.74 832.57 L306.52 830.48 L303.24 828.51 L301.09 824.69 L298.06 822.35 L294.01 821.62 L291.13 819.04 L289.19 815.09 L286.31 812.58 L283.78 809.60 L282.13 805.40 L280.86 800.77 L279.49 796.38 L277.03 793.52 L273.08 792.59 L267.32 793.90 L262.66 793.71 L258.37 792.97 L252.27 794.33 L243.70 798.40 L240.64 795.92 L237.78 793.22 L236.05 789.28 L233.77 785.98 L231.14 783.07 L228.33 780.36 L227.77 775.38 L226.49 771.19 L225.27 767.01 L222.23 764.62 L221.01 760.51 L219.69 756.54 L217.05 753.81 L213.61 751.76 L211.30 748.73 L209.48 745.27 L209.82 740.05 L207.73 736.90 L204.16 734.94 L202.08 731.77 L198.04 730.10 L196.80 726.29 L194.25 723.47 L189.76 722.02 L184.66 720.94 L184.67 716.26 L183.54 712.41 L180.91 709.58 L179.18 706.16 L176.80 703.15 L173.98 700.40 L173.67 696.12 L172.14 692.60 L167.45 690.91 L167.11 686.71 L166.18 682.87 L162.50 680.51 L159.89 677.56 L158.03 674.20 L154.48 671.68 L154.49 667.39 L152.00 664.32 L147.56 662.13 L148.06 657.65 L145.39 654.61 L139.85 652.76 L138.48 649.09 L137.76 645.17 L133.14 642.78 L132.48 638.82 L131.35 635.05 L129.25 631.63 L131.24 626.78 L130.88 622.79 L126.21 620.21 L128.52 615.38 L129.94 610.89 L125.96 608.02 L124.65 604.35 L126.82 599.73 L125.93 595.97 L123.59 592.57 L121.41 589.10 L120.43 585.34 L119.46 581.57 L120.12 577.46 L116.33 574.24 L116.37 570.26 L116.99 566.20 L113.10 562.89 L111.86 559.12 L114.17 554.82 L114.01 550.91 L109.64 547.52 L112.89 543.20 L113.96 539.18 L112.19 535.45 L112.43 531.52 L112.82 527.59 L111.31 523.80 L112.06 519.86 L112.22 515.97 L109.92 512.15 L110.14 508.25 L112.48 504.32 L111.00 500.45 L110.80 496.55 L110.70 492.66 L110.75 488.77 L109.86 484.83 L110.87 480.98 L109.57 477.00 L110.34 473.13 L111.30 469.29 L109.78 465.24 L109.07 461.23 L111.46 457.54 L111.10 453.56 L109.64 449.42 L108.32 445.26 L109.00 441.37 L109.89 437.50 L111.32 433.74 L108.60 429.24 L112.14 425.87 L115.67 422.55 L114.75 418.35 L114.69 414.30 L116.55 410.68 L115.35 406.34 L118.30 403.00 L118.34 398.94 L116.05 394.21 L117.40 390.46 L122.41 387.79 L122.50 383.70 L121.91 379.37 L124.92 376.18 L124.50 371.86 L124.45 367.64 L127.06 364.35 L129.70 361.10 L127.42 355.98 L131.16 353.17 L134.86 350.40 L135.83 346.52 L136.83 342.65 L139.14 339.35 L138.96 334.92 L142.46 332.18 L144.60 328.82 L143.88 324.07 L147.00 321.20 L149.62 318.10 L150.30 313.99 L151.18 309.96 L152.25 306.00 L151.49 300.99 L156.44 299.23 L157.15 295.02 L155.04 289.05 L161.46 288.29 L166.36 286.69 L166.07 281.77 L168.94 278.89 L173.16 276.95 L173.99 272.70 L174.89 268.46 L176.22 264.49 L176.16 259.47 L178.38 256.09 L181.26 253.21 L180.10 247.16 L184.81 245.72 L190.85 245.45 L191.24 240.54 L193.06 236.79 L197.88 235.63 L201.91 233.85 L202.27 228.77 L205.42 226.21 L208.07 223.17 L210.05 219.49 L213.72 217.45 L215.89 213.92 L217.56 209.86 L221.53 208.15 L223.36 204.20 L224.22 199.15 L230.13 199.62 L233.71 197.57 L234.16 191.93 L239.02 191.38 L243.41 190.33 L246.22 187.42 L248.63 183.98 L252.57 182.47 L254.72 178.64 L259.02 177.65 L262.73 175.90 L264.45 171.41 L268.25 169.79 L272.94 169.49 L275.54 166.16 L278.14 162.81 L281.97 161.29 L284.56 157.84 L287.95 155.63 L292.17 154.82 L295.04 151.74 L298.88 150.32 L302.34 148.24 L304.33 143.48 L306.28 138.51 L309.62 136.04 L312.28 132.22 L313.69 125.78 L316.23 121.45 L319.96 119.50 L324.22 118.67 L328.38 117.69 L331.96 115.41 L336.06 114.33 L340.12 113.20 L343.94 111.48 L347.93 110.17 L352.29 109.87 L356.33 108.78 L360.88 109.13 L365.41 109.55 L369.95 110.09 L374.17 109.80 L378.77 110.77 L383.05 110.86 L386.60 108.50 L389.88 105.10 L393.23 101.75 L396.68 98.63 L400.16 95.43 L403.30 90.61 L406.55 85.89 L411.06 86.67 L415.77 88.60 L420.07 88.69 L424.11 87.48 L428.41 87.78 L433.13 90.69 L437.38 91.04 L441.28 89.07 L445.44 88.90 L449.67 89.33 L453.94 90.27 L457.99 89.33 L462.19 89.92 L466.30 89.62 L470.46 90.05 L474.58 90.16 L478.72 90.68 L482.81 90.34 L486.87 89.22 L490.92 86.52 L495.01 82.06 L499.19 81.59 L503.38 80.68 L507.62 78.07 L511.91 75.64 L516.19 74.87 L520.48 74.19 L524.73 74.57 L529.03 74.05 L533.47 72.02 L537.96 70.05 L542.21 70.94 L546.43 71.95 L550.56 73.75 L554.65 75.59 L558.64 77.93 L562.56 80.56 L566.38 83.52 L570.14 86.60 L573.96 89.03 L577.61 92.18 L581.40 94.39 L585.55 94.76 L590.08 93.47 L594.48 92.90 L598.84 92.67 L603.34 91.97 L608.41 89.26 L613.82 85.62 L617.34 88.94 L620.66 92.78 L625.10 92.78 L629.37 93.41 L633.14 95.60 L636.01 100.38 L639.48 103.25 L643.88 103.45 L647.80 105.00 L651.43 107.31 L654.83 110.14 L658.92 111.24 L662.23 114.19 L665.83 116.42 L668.87 119.86 L672.64 121.62 L676.04 124.17 L679.16 127.26 L682.65 129.53 L687.80 128.50 L693.37 126.81 L697.76 127.49 L702.46 127.69 L708.47 125.60 L715.06 122.69 L719.49 123.72 L722.84 126.60 L726.94 128.23 L730.10 131.40 L734.27 132.93 L737.74 135.58 L740.87 138.74 L745.34 139.89 L749.74 141.19 L753.58 143.33 L757.79 144.99 L761.55 147.28 L764.11 151.17 L766.48 155.27 L770.07 157.75 L773.14 160.89 L775.75 164.57 L778.23 168.36 L782.84 169.64 L787.50 170.91 L790.27 174.37 L792.46 178.45 L795.67 181.38 L799.55 183.60 L801.57 187.78 L803.38 192.13 L805.19 196.43 L808.58 199.14 L811.99 201.84 L813.76 206.09 L815.53 210.31 L819.29 212.69 L822.65 215.44 L824.83 219.25 L826.52 223.44 L829.99 226.12 L832.93 229.26 L837.01 231.49 L841.82 233.20 L845.02 236.22 L847.02 240.15 L850.38 243.06 L854.52 245.43 L857.65 248.57 L861.89 250.96 L863.52 255.16 L865.21 259.29 L867.98 262.71 L871.35 265.76 L874.83 268.78 L878.12 271.93 L879.71 276.12 L882.45 279.63 L886.85 282.22 L890.91 285.05 L892.64 289.19 L895.58 292.68 L897.84 296.53 L898.93 300.99 L900.09 305.38 L902.09 309.36 L902.27 314.17 L902.01 319.15 L903.93 323.12 L905.22 327.37 L905.30 332.10 L904.96 336.96 L908.67 340.20 L913.19 343.18 L914.91 347.26 L915.82 351.63 L919.91 354.88 L923.47 358.38 L923.32 363.12 L922.05 368.18 L920.55 373.25 L922.68 377.20 L923.29 381.60 L920.96 386.78 L919.62 391.63 L922.45 395.39 L925.32 399.18 L925.56 403.61 L925.54 408.08 L928.40 411.94 L930.34 416.01 L932.40 420.09 L933.82 424.31 L936.35 428.35 L937.30 432.68 L938.20 437.02 L939.03 441.38 L941.07 445.59 L943.86 449.75 L945.03 454.12 L945.38 458.58 L947.57 462.88 L951.02 467.13 L951.13 471.66 L951.27 476.18 L951.30 480.70 L951.89 485.20 L952.31 489.71 L952.33 494.24 L952.87 498.76 L959.74 500.00 L960.32 495.40 L960.15 490.80 L959.87 486.20 L959.83 481.60 L959.38 477.01 L958.66 472.45 L957.85 467.90 L959.35 463.17 L961.38 458.36 L961.31 453.71 L960.87 449.10 L962.27 444.26 L963.89 439.35 L962.94 434.76 L962.35 430.12 L961.87 425.46 L962.31 420.64 L962.63 415.81 L962.91 410.97 L960.90 406.57 L962.14 401.50 L961.72 396.75 L959.73 392.36 L958.02 387.91 L959.49 382.67 L956.85 378.47 L951.72 374.98 L948.28 371.09 L946.90 366.64 L942.65 363.07 L937.79 359.76 L934.02 356.17 L933.19 351.62 L935.05 346.11 L934.32 341.46 L932.32 337.27 L932.63 332.20 L933.80 326.74 L931.18 322.76 L926.90 319.51 L923.92 315.75 L922.30 311.41 L917.88 308.35 L913.57 305.30 L910.96 301.48 L907.95 297.88 L904.59 294.48 L901.56 290.94 L900.06 286.61 L897.25 282.98 L895.86 278.57 L895.41 273.60 L894.34 268.95 L890.94 265.66 L889.36 261.28 L887.51 257.05 L885.82 252.70 L884.60 248.02 L882.15 244.13 L879.29 240.51 L877.54 236.13 L875.51 231.92 L873.44 227.72 L871.88 223.12 L868.35 219.98 L864.30 217.26 L863.12 212.32 L861.74 207.47 L857.92 204.59 L855.75 200.36 L852.63 196.90 L848.85 194.03 L844.84 191.40 L843.02 186.79 L839.58 183.65 L835.58 181.05 L831.80 178.26 L828.53 174.99 L823.74 173.27 L819.36 171.18 L814.83 169.29 L810.59 167.13 L807.25 164.04 L803.30 161.63 L799.18 159.44 L796.29 155.84 L794.30 151.15 L790.44 148.66 L785.78 147.18 L781.51 145.25 L777.95 142.45 L773.25 141.15 L768.43 140.07 L764.32 138.09 L761.41 134.45 L757.90 131.63 L754.60 128.48 L751.93 124.38 L747.97 122.17 L743.77 120.35 L740.18 117.58 L736.26 115.34 L732.73 112.45 L728.29 111.09 L724.53 108.57 L722.64 102.71 L720.76 96.66 L718.00 92.07 L714.11 89.53 L711.34 84.77 L708.63 79.76 L704.38 77.77 L699.49 77.13 L695.08 75.53 L690.09 75.24 L685.26 74.67 L680.40 74.26 L675.30 74.51 L670.87 73.19 L666.67 71.30 L661.90 70.92 L656.95 71.10 L653.18 68.07 L648.77 66.79 L643.28 68.78 L638.09 70.07 L633.73 68.91 L629.94 65.84 L624.73 67.54 L619.61 69.15 L615.99 65.38 L612.91 59.28 L608.94 56.36 L604.65 54.63 L600.62 51.73 L596.61 48.49 L592.05 47.77 L587.07 49.20 L582.21 50.26 L577.41 51.19 L572.37 53.81 L567.43 56.25 L562.69 57.68 L558.03 58.84 L553.37 60.30 L548.81 61.30 L544.29 62.05 L539.84 62.47 L535.56 60.83 L531.31 58.45 L526.98 56.83 L522.49 57.55 L518.11 56.28 L513.68 55.81 L509.27 54.14 L504.85 50.49 L500.36 48.59 L495.85 48.99 L491.28 46.11 L486.64 42.79 L482.07 42.86 L477.48 42.76 L472.89 42.55 L468.50 45.53 L463.99 46.24 L459.48 47.01 L455.08 48.63 L450.66 49.96 L446.09 49.89 L441.82 52.18 L437.56 54.32 L432.95 53.97 L428.43 54.27 L424.58 58.55 L420.63 61.82 L416.26 62.73 L412.07 64.46 L408.45 68.79 L404.64 71.98 L399.84 70.70 L394.65 68.00 L389.67 66.46 L385.09 66.65 L379.98 64.99 L374.81 63.34 L370.41 64.48 L366.69 67.83 L362.84 70.63 L358.84 72.90 L355.55 77.18 L352.28 81.33 L348.96 85.19 L344.71 86.44 L341.03 89.16 L337.13 91.29 L333.03 92.87 L328.95 94.54 L325.34 97.26 L321.33 99.06 L317.64 101.54 L314.21 104.53 L310.95 107.84 L306.83 109.32 L300.49 106.46 L295.45 106.33 L291.18 107.75 L286.42 108.30 L280.40 106.67 L276.08 108.20 L272.44 110.91 L267.99 112.25 L265.10 116.18 L262.74 120.90 L257.53 121.05 L254.19 124.16 L250.71 127.03 L246.24 128.44 L243.12 131.84 L240.90 136.45 L235.32 136.38 L231.97 139.42 L229.69 143.84 L225.74 146.04 L222.55 149.23 L219.31 152.33 L215.50 154.74 L213.00 158.71 L211.12 163.37 L205.78 164.00 L203.09 167.70 L201.50 172.57 L198.00 175.31 L193.07 176.55 L191.52 181.36 L189.12 185.24 L184.03 186.42 L182.65 191.30 L179.23 194.15 L176.54 197.71 L173.08 200.54 L169.01 202.84 L166.06 206.17 L165.94 211.94 L163.41 215.57 L158.30 217.07 L157.90 222.46 L158.77 228.77 L153.16 229.93 L151.23 233.99 L148.04 237.08 L143.62 239.28 L140.01 242.13 L137.13 245.52 L132.45 247.68 L132.21 252.90 L131.43 257.68 L126.43 259.71 L124.80 263.94 L128.93 271.68 L123.45 273.47 L117.68 275.17 L119.15 281.13 L116.06 284.44 L112.08 287.28 L108.79 290.53 L105.97 294.06 L104.56 298.34 L104.39 303.21 L99.58 305.79 L98.79 310.34 L98.37 315.03 L96.45 319.01 L95.20 323.29 L93.51 327.37 L91.91 331.49 L92.31 336.41 L93.12 341.44 L89.75 344.83 L88.36 349.00 L88.02 353.53 L87.84 358.09 L83.82 361.35 L84.09 366.04 L82.27 370.05 L79.10 373.67 L81.22 378.86 L82.21 383.66 L78.05 387.03 L75.85 390.98 L76.69 395.69 L74.45 399.64 L74.01 404.03 L72.93 408.26 L70.48 412.22 L71.56 416.90 L75.19 422.00 L71.34 425.71 L71.50 430.15 L70.86 434.44 L70.91 438.83 L69.48 443.02 L68.65 447.29 L65.50 451.31 L68.27 455.99 L66.66 460.20 L64.44 464.38 L64.32 468.76 L64.85 473.16 L63.29 477.45 L64.04 481.86 L63.84 486.22 L62.97 490.56 L62.99 494.93 L64.11 499.31 L63.00 503.67 L64.44 508.02 L65.12 512.36 L64.89 516.72 L64.71 521.09 L66.35 525.36 L66.84 529.68 L66.61 534.05 L68.31 538.26 L69.12 542.54 L70.59 546.73 L74.21 550.65 L72.97 555.14 L72.92 559.49 L76.66 563.29 L78.31 567.36 L75.42 572.19 L76.94 576.29 L78.79 580.31 L77.32 584.98 L80.37 588.74 L80.40 593.13 L81.74 597.23 L81.73 601.65 L82.84 605.81 L82.64 610.32 L88.15 613.28 L90.56 617.03 L88.48 622.09 L90.87 625.84 L98.21 628.00 L96.39 633.04 L97.02 637.31 L102.60 639.86 L104.08 643.81 L105.18 647.89 L108.36 651.18 L107.36 656.10 L108.85 660.06 L111.45 663.55 L109.53 668.97 L109.27 673.75 L111.19 677.57 L111.71 682.04 L113.09 686.14 L117.10 688.95 L117.72 693.42 L119.15 697.50 L121.14 701.30 L123.37 704.98 L125.02 708.97 L128.49 711.93 L129.15 716.49 L131.06 720.36 L134.75 723.14 L137.25 726.62 L138.77 730.73 L142.56 733.37 L144.76 737.03 L148.14 739.90 L153.60 741.29 L156.04 744.73 L154.56 751.02 L156.95 754.57 L160.43 757.29 L162.17 761.33 L164.22 765.15 L166.37 768.92 L168.33 772.86 L174.23 773.51 L177.99 775.89 L181.34 778.59 L183.65 782.20 L186.51 785.33 L190.78 787.15 L195.93 788.08 L198.16 791.75 L201.98 793.88 L206.61 795.16 L211.27 796.34 L215.06 798.37 L218.07 801.19 L222.15 802.84 L226.40 804.26 L230.21 806.12 L233.73 808.30 L232.77 815.73 L232.54 822.49 L234.10 827.21 L236.65 830.78 L236.83 837.43 L238.90 841.77 L242.54 844.08 L247.49 844.59 L252.90 844.38 L257.80 844.78 L262.54 845.32 L267.06 846.11 L272.17 845.94 L276.13 847.44 L279.03 850.59 L282.89 852.23 L287.14 853.19 L291.44 854.01 L294.86 856.30 L298.35 858.49 L302.60 859.29 L307.20 859.39 L311.42 860.13 L315.41 861.25 L319.74 861.65 L323.45 863.27 L326.07 867.18 L329.70 869.01 L333.78 869.84 L336.62 873.47 L339.33 877.50 L343.23 878.81 L347.91 878.16 L352.14 878.52 L356.15 879.41 L360.64 878.97 L365.13 878.38 L369.03 879.41 L372.16 882.72 L375.79 884.60 L379.42 886.53 L382.76 889.50 L386.57 890.93 L390.79 890.97 L394.64 892.28 L398.72 892.73 L402.97 892.44 L407.21 892.09 L411.53 891.22 L414.22 897.78 L417.00 904.48 L420.56 907.79 L424.69 908.34 L427.90 914.10 L431.64 917.26 L435.80 918.04 L440.32 916.27 L444.89 913.85 L449.32 912.03 L453.67 910.48 L458.04 908.41 L462.32 906.63 L466.46 906.14 L470.48 907.03 L474.55 907.35 L478.68 906.52 L482.83 904.82 L486.86 905.52 L490.88 907.35 L494.96 907.16 L499.03 904.84 L503.09 905.40 L507.15 906.04 L511.19 905.23 L515.12 901.70 L519.07 900.14 L523.04 899.40 L526.94 897.89 L530.84 896.54 L534.85 896.75 L538.88 897.02 L542.75 895.70 L546.65 894.80 L550.71 895.22 L554.41 892.92 L558.05 890.37 L561.88 889.38 L566.11 890.70 L570.10 890.52 L573.94 889.48 L578.14 890.25 L582.12 889.85 L585.72 887.68 L589.47 886.29 L592.98 883.90 L596.57 882.02 L600.49 881.42 L604.13 879.78 L609.06 882.70 L614.78 888.00 L619.83 890.67 L623.80 889.68 L629.16 892.89 L633.87 893.91 L638.08 893.32 L641.44 890.37 L644.22 885.94 L647.27 882.39 L650.22 878.73 L653.85 876.84 L657.53 875.09 L659.95 870.42 L662.99 867.33 L668.06 868.76 L672.19 868.03 L673.94 862.29 L678.03 861.51 L682.53 861.47 L685.47 858.35 L688.95 856.30 L692.35 854.10 L696.22 852.77 L699.83 850.95 L702.30 847.17 L705.58 844.82 L709.16 842.99 L712.10 840.11 L714.55 836.50 L717.49 833.69 L720.42 830.91 L722.92 827.52 L725.96 824.95 L728.98 822.37 L731.13 818.60 L733.56 815.27 L737.97 814.59 L742.10 813.48 L745.19 811.01 L747.88 808.03 L752.77 807.75 L755.68 805.03 L758.37 802.05 L761.08 799.12 L764.04 796.47 L765.42 792.09 L767.30 788.30 L769.16 784.55 L773.75 783.67 L780.36 784.77 L784.65 783.40 L787.28 780.35 L793.23 780.48 L798.19 779.57 L801.87 777.41 L803.16 773.05 L803.19 767.63 L805.87 764.60 L806.41 759.76 L807.88 755.76 L810.39 752.64 L811.51 748.41 L812.36 744.02 L816.14 741.92 L820.03 739.86 L818.83 734.02 L821.77 731.26 L825.25 728.87 L827.09 725.31 L828.45 721.43 L830.87 718.29 L833.58 715.32 L836.37 712.38 L837.22 708.23 L837.56 703.81 L839.72 700.50 L840.88 696.62 L840.04 691.63 L842.54 688.55 L843.15 684.44 L843.16 680.04 L844.70 676.48 L846.79 673.20 L847.16 669.06 L847.99 665.18 L848.59 661.21 L849.30 657.32 L850.29 653.58 L851.79 650.06 L853.41 646.59 L854.98 643.10 L856.83 639.71 L863.98 638.33 L868.76 635.94 L871.35 632.69 L874.70 629.68 L879.17 627.00 L881.21 623.45 L881.29 619.28 L880.55 614.88 L879.31 610.38 L877.45 605.76 L876.67 601.49 L877.82 597.76 L875.93 593.27 L875.26 589.13 L877.26 585.62 L877.04 581.62 L876.73 577.62 L877.98 573.94 L877.35 569.91 L877.60 566.06 L880.26 562.61 L879.46 558.59 L878.94 554.63 L881.47 551.11 L882.47 547.35 L880.80 543.29 L882.14 539.57 L881.84 535.69 L881.73 531.83 L883.20 528.09 L881.69 524.15 L881.21 520.29 L884.40 516.61 L886.09 512.82 L882.90 508.88 L884.54 505.07 L886.20 501.23 L883.95 497.38 L883.83 493.55 L883.68 489.71 L882.33 485.92 L881.13 482.14 L880.09 478.38 L878.22 474.69 L880.63 470.70 L880.89 466.85 L878.43 463.25 L878.86 459.38 L881.34 455.25 L878.99 451.68 L877.34 448.05 L877.24 444.21 L875.94 440.56 L875.19 436.83 L874.38 433.11 L871.75 429.73 L872.33 425.76 L871.62 422.03 L870.75 418.33 L867.92 415.09 L869.34 410.86 L867.64 407.37 L865.12 404.11 L865.29 400.16 L863.69 396.67 L860.20 393.76 L859.91 389.92 L857.78 386.65 L855.62 383.41 L855.74 379.41 L854.23 375.96 L851.23 373.06 L851.77 368.87 L850.68 365.27 L847.41 362.52 L845.48 359.27 L843.88 355.90 L841.29 352.95 L840.23 349.36 L838.42 346.10 L836.20 343.03 L837.06 338.50 L838.47 333.65 L836.54 330.40 L835.40 326.74 L833.01 323.74 L831.26 320.40 L829.88 316.85 L829.01 313.01 L825.63 310.60 L822.88 307.85 L821.14 304.51 L819.97 300.81 L816.91 298.29 L814.63 295.29 L811.36 292.96 L808.33 290.50 L804.42 288.68 L804.42 284.13 L802.78 280.71 L800.34 277.86 L797.60 275.26 L797.23 270.83 L796.37 266.73 L795.42 262.66 L793.39 259.42 L792.89 254.89 L791.68 250.91 L790.06 247.23 L787.99 243.92 L786.28 240.27 L782.87 238.16 L780.66 234.94 L778.53 231.64 L774.83 229.85 L772.20 227.03 L770.14 223.62 L765.87 222.49 L762.78 220.17 L760.65 216.81 L756.91 215.22 L753.33 213.47 L751.10 210.21 L748.05 207.87 L744.96 205.59 L742.17 202.95 L739.49 200.17 L736.87 197.29 L733.63 195.20 L730.36 193.16 L727.34 190.80 L724.57 188.07 L720.91 186.59 L717.37 184.97 L714.82 181.90 L711.75 179.59 L707.69 178.79 L704.70 176.37 L701.65 174.03 L697.99 172.66 L695.00 170.21 L691.25 169.03 L688.27 166.55 L685.12 164.33 L681.49 162.99 L677.10 163.11 L674.53 159.77 L670.79 158.70 L666.93 157.91 L663.41 156.46 L660.01 154.73 L656.12 154.11 L652.48 152.95 L648.85 151.80 L644.76 151.78 L641.52 149.74 L638.18 147.92 L634.40 147.21 L631.03 145.42 L627.95 142.82 L624.05 142.49 L620.60 140.87 L617.14 139.26 L613.18 139.21 L609.82 137.26 L606.16 136.28 L602.08 136.80 L598.25 136.50 L594.73 135.09 L590.90 134.83 L587.02 134.89 L583.38 133.99 L579.80 132.80 L576.21 131.59 L572.37 131.59 L568.76 130.47 L565.21 128.99 L561.63 127.51 L557.67 128.41 L554.12 126.75 L550.47 125.54 L546.57 126.30 L542.92 125.04 L539.31 123.29 L535.32 125.28 L531.65 124.04 L527.98 122.45 L524.14 123.30 L520.30 124.32 L516.56 123.66 L512.79 123.79 L509.02 124.04 L505.25 124.59 L501.49 124.74 L497.74 125.04 L493.98 124.46 L490.22 124.37 L486.52 125.85 L482.77 125.86 L479.09 127.11 L475.47 128.91 L471.75 129.11 L468.04 129.40 L464.48 131.17 L460.70 130.66 L457.07 131.64 L453.39 132.07 L449.65 132.10 L445.81 131.53 L442.30 133.21 L438.60 133.59 L434.86 133.77 L431.39 135.42 L427.67 135.75 L424.00 136.36 L420.62 138.27 L417.20 139.90 L413.49 140.29 L409.97 141.46 L406.68 143.50 L402.96 143.86 L399.36 144.71 L395.86 145.87 L392.24 146.68 L388.57 147.32 L385.03 148.37 L381.31 148.93 L378.30 151.56 L374.33 151.42 L370.54 151.87 L367.69 154.81 L364.14 155.89 L360.32 156.31 L357.55 159.30 L354.06 160.54 L350.52 161.66 L347.51 163.99 L344.53 166.32 L340.97 167.41 L338.05 169.82 L334.54 171.04 L331.20 172.60 L328.26 174.91 L324.78 176.20 L321.14 177.23 L317.91 179.02 L315.94 182.97 L312.27 183.97 L308.95 185.59 L306.81 189.12 L304.46 192.24 L301.01 193.63 L298.61 196.61 L295.55 198.59 L292.73 200.91 L289.77 203.03 L286.60 204.86 L283.16 206.32 L280.69 209.12 L277.55 211.01 L274.33 212.81 L272.00 215.74 L268.90 217.72 L265.89 219.80 L263.73 222.90 L261.73 226.14 L258.37 227.83 L256.13 230.77 L254.74 234.62 L251.89 236.87 L249.05 239.13 L246.58 241.78 L244.15 244.46 L241.28 246.72 L238.19 248.77 L235.07 250.81 L233.41 254.23 L230.72 256.69 L227.16 258.39 L225.09 261.41 L224.58 265.76 L220.81 267.32 L217.59 269.39 L217.61 274.07 L214.18 275.97 L212.23 279.06 L210.74 282.48 L209.12 285.78 L206.47 288.32 L205.84 292.30 L202.20 294.17 L200.64 297.49 L200.18 301.51 L196.82 303.62 L194.70 306.56 L194.05 310.41 L191.67 313.17 L190.49 316.66 L189.61 320.31 L188.23 323.65 L186.71 326.90 L185.87 330.51 L183.83 333.47 L182.39 336.75 L180.18 339.64 L178.52 342.81 L176.22 345.68 L175.06 349.09 L173.73 352.42 L172.35 355.73 L171.10 359.09 L169.70 362.38 L168.30 365.67 L168.55 369.62 L166.70 372.73 L165.48 376.08 L164.89 379.65 L165.07 383.49 L162.92 386.51 L161.73 389.86 L160.96 393.34 L159.60 396.65 L158.55 400.05 L157.14 403.34 L155.29 406.53 L156.03 410.42 L154.01 413.58 L152.65 416.92 L152.13 420.46 L152.75 424.25 L150.92 427.50 L150.96 431.14 L149.94 434.57 L149.60 438.13 L149.72 441.75 L148.24 445.12 L148.48 448.75 L148.60 452.35 L148.50 455.91 L148.15 459.44 L147.96 462.98 L147.78 466.52 L148.15 470.10 L146.61 473.52 L147.19 477.11 L146.82 480.63 L147.28 484.20 L148.10 487.76 L148.61 491.29 L149.02 494.81 L150.14 498.33 L149.99 501.83 L150.10 505.33 L150.84 508.81 L150.22 512.33 L148.72 515.90 L149.48 519.38 L150.27 522.84 L149.30 526.43 L150.12 529.89 L151.41 533.29 L150.55 536.91 L151.59 540.32 L153.86 543.57 L153.51 547.14 L154.10 550.59 L156.29 553.78 L156.78 557.23 L157.02 560.72 L158.15 564.05 L158.39 567.55 L158.98 570.98 L159.58 574.42 L159.40 578.03 L161.21 581.19 L161.57 584.69 L161.95 588.20 L162.65 591.63 L164.30 594.80 L164.22 598.46 L164.50 602.03 L168.80 604.35 L168.12 608.22 L169.06 611.59 L171.09 614.58 L173.29 617.49 L173.11 621.26 L175.06 624.25 L175.99 627.62 L177.91 630.60 L180.16 633.43 L181.08 636.81 L181.78 640.29 L184.36 642.94 L185.72 646.13 L188.28 648.75 L190.59 651.46 L192.21 654.50 L194.13 657.39 L197.25 659.63 L197.45 663.41 L199.01 666.48 L200.27 669.72 L201.84 672.79 L202.12 676.63 L204.69 679.12 L206.68 681.95 L207.60 685.45 L210.06 687.98 L212.79 690.32 L214.13 693.58 L216.44 696.18 L219.32 698.37 L221.14 701.29 L223.43 703.88 L226.17 706.11 L228.39 708.73 L230.47 711.45 L232.85 713.93 L234.63 716.90 L236.50 719.80 L239.36 721.87 L240.97 725.01 L243.22 727.60 L245.88 729.81 L247.64 732.86 L250.18 735.18 L253.37 736.88 L254.51 740.54 L256.50 743.42 L261.41 743.32 L262.71 746.89 L264.43 750.05 L268.64 750.56 L270.87 753.18 L272.94 755.99 L276.04 757.64 L278.53 759.98 L280.83 762.56 L284.56 763.40 L286.31 766.66 L288.62 769.24 L292.46 769.86 L295.04 772.10 L297.27 774.82 L301.58 774.68 L305.18 775.46 L307.55 777.97 L310.62 779.46 L314.25 780.10 L317.00 782.04 L319.70 784.06 L322.43 786.03 L324.67 788.82 L327.81 790.17 L330.85 791.65 L333.53 793.76 L336.66 795.07 L339.91 796.16 L342.47 798.52 L345.47 800.07 L349.39 799.77 L352.18 801.70 L355.20 803.19 L358.92 803.15 L361.92 804.63 L364.78 806.44 L368.21 806.93 L371.13 808.60 L373.97 810.51 L377.06 811.79 L380.05 813.36 L383.18 814.58 L386.85 814.28 L389.67 816.36 L392.61 818.12 L396.27 817.72 L399.47 818.69 L402.37 820.63 L405.97 820.27 L409.02 821.74 L412.31 822.39 L415.07 825.04 L418.76 824.12 L421.97 825.10 L425.59 824.25 L428.41 826.93 L431.60 828.04 L435.21 827.02 L438.64 826.83 L441.60 829.19 L445.09 828.58 L448.44 828.77 L451.69 829.48 L455.12 829.01 L458.75 826.74 L462.22 825.39 L465.73 823.42 L468.82 825.21 L472.15 824.65 L475.68 821.19 L478.86 821.99 L481.83 826.67 L485.16 825.39 L488.46 824.37 L491.63 827.17 L494.93 825.81 L498.19 824.36 L501.44 824.62 L504.67 823.39 L507.85 821.31 L511.19 824.85 L514.33 822.42 L517.39 819.22 L520.74 821.42 L524.11 823.40 L527.16 820.99 L530.43 821.30 L533.75 821.99 L536.99 821.84 L540.56 824.27 L543.40 820.92 L546.46 819.46 L550.24 822.73 L553.68 823.53 L556.04 818.03 L559.42 818.50 L563.03 820.07 L565.57 816.28 L568.97 816.72 L572.63 818.17 L575.01 814.07 L578.36 814.17 L582.11 815.72 L584.52 812.16 L587.71 811.56 L591.65 813.48 L593.69 808.95 L596.72 807.83 L600.67 809.55 L602.82 805.74 L605.79 804.45 L608.66 802.92 L611.55 801.44 L614.33 799.72 L617.67 799.45 L620.23 797.19 L623.42 796.51 L626.93 796.55 L630.04 795.60 L632.74 793.74 L636.09 793.32 L639.35 792.62 L641.76 790.18 L644.92 789.27 L648.12 788.42 L650.46 785.92 L653.29 784.34 L656.47 783.43 L658.46 780.38 L661.19 778.66 L664.17 777.38 L666.24 774.57 L668.65 772.36 L671.69 771.18 L673.99 768.83 L677.00 767.57 L679.52 765.57 L682.42 764.12 L685.21 762.51 L688.06 760.97 L689.91 758.05 L692.93 756.75 L695.92 755.37 L698.20 753.06 L699.86 749.98 L703.31 749.15 L705.53 746.79 L707.07 743.64 L710.59 742.83 L712.70 740.36 L714.63 737.70 L717.53 736.13 L719.59 733.63 L720.96 730.43 L724.36 729.34 L726.47 726.91 L727.40 723.33 L730.93 722.30 L732.93 719.78 L734.40 716.78 L737.06 714.88 L738.62 711.99 L739.20 708.27 L740.61 705.30 L742.60 702.84 L743.94 699.85 L744.87 696.55 L747.37 694.53 L749.32 692.05 L751.40 689.68 L754.48 688.04 L755.86 685.13 L758.02 682.79 L760.28 680.51 L761.80 677.71 L763.76 675.22 L765.65 672.67 L765.86 669.05 L766.92 666.00 L768.57 663.32 L769.71 660.34 L771.17 657.56 L772.27 654.58 L773.64 651.76 L776.33 649.66 L777.77 646.87 L779.53 644.24 L780.71 641.31 L782.98 638.92 L783.58 635.72 L784.33 632.60 L786.36 630.07 L787.84 627.29 L786.91 623.46 L788.83 620.88 L790.22 618.07 L790.68 614.88 L792.91 612.39 L793.96 609.43 L794.02 606.12 L795.92 603.47 L793.36 599.29 L791.57 595.45 L791.26 592.13 L791.86 589.12 L787.39 584.63 L786.26 581.19 L788.13 578.62 L789.10 575.78 L788.20 572.48 L790.02 569.86 L792.83 567.44 L791.72 564.12 L794.23 561.60 L797.54 559.19 L798.99 556.38 L800.53 553.56 L802.50 550.80 L805.03 548.09 L806.40 545.17 L806.13 542.01 L806.83 538.98 L807.99 536.00 L807.27 532.81 L808.26 529.80 L808.68 526.73 L807.75 523.55 L806.91 520.40 L807.31 517.34 L807.12 514.25 L806.76 511.16 L806.27 508.08 L806.70 505.02 L807.05 501.96 L807.23 498.88 L807.73 495.81 L807.08 492.74 L807.49 489.66 L806.70 486.61 L805.85 483.58 L805.73 480.52 L806.45 477.40 L804.68 474.46 L804.23 471.43 L805.01 468.28 L803.45 465.37 L804.42 462.17 L804.78 459.03 L803.45 456.11 L803.21 453.05 L802.54 450.05 L801.27 447.16 L800.47 444.20 L800.86 441.01 L797.11 438.65 L798.43 435.26 L799.15 431.96 L795.45 429.69 L795.54 426.54 L795.56 423.39 L792.86 420.95 L791.63 418.15 L788.62 415.87 L786.39 413.41 L783.61 411.14 L781.88 408.58 L779.00 406.42 L777.28 403.90 L774.54 401.76 L775.28 398.38 L773.76 395.82 L773.88 392.63 L772.30 390.09 L770.25 387.77 L769.16 385.05 L768.81 382.01 L766.52 379.82 L764.46 377.55 L762.85 375.09 L761.44 372.54 L760.48 369.77 L757.62 367.96 L756.00 365.54 L755.41 362.58 L754.37 359.83 L752.70 357.44 L751.64 354.71 L751.44 351.45 L750.12 348.84 L747.76 346.86 L747.08 343.84 L746.01 341.05 L742.78 339.67 L741.37 337.12 L740.50 334.18 L738.84 331.77 L736.03 330.20 L734.59 327.65 L733.76 324.63 L732.71 321.75 L729.35 320.67 L728.07 317.96 L726.26 315.67 L724.63 313.23 L721.65 311.93 L720.62 308.97 L717.73 307.63 L715.58 305.66 L713.22 303.89 L711.93 301.13 L709.35 299.57 L707.69 297.14 L707.09 293.64 L705.84 290.75 L703.55 288.89 L702.28 285.97 L700.41 283.65 L698.02 281.90 L694.55 281.36 L691.82 280.04 L689.02 278.82 L685.40 278.61 L681.85 278.39 L679.88 276.26 L678.72 273.10 L677.05 270.53 L674.71 268.83 L673.01 266.25 L671.20 263.79 L668.99 261.86 L667.24 259.26 L664.88 257.52 L662.06 256.47 L659.62 254.85 L657.32 253.03 L655.07 251.10 L653.03 248.81 L650.23 247.76 L647.48 246.64 L644.43 246.08 L642.15 244.18 L639.30 243.28 L635.95 243.37 L632.55 243.63 L629.09 244.07 L626.09 243.69 L623.25 243.00 L620.02 243.18 L617.59 241.66 L615.73 238.86 L613.46 236.91 L610.68 236.13 L608.79 233.20 L606.27 231.73 L603.49 230.92 L600.34 231.10 L597.57 230.34 L595.14 228.61 L592.46 227.54 L589.09 228.59 L586.22 228.19 L583.51 227.30 L580.71 226.72 L577.67 226.97 L574.59 227.50 L571.70 227.38 L568.96 226.72 L566.20 226.11 L563.62 224.77 L560.96 223.73 L557.97 224.21 L555.27 223.30 L552.47 222.92 L549.66 222.65 L546.87 222.24 L544.14 221.50 L541.19 222.11 L538.39 221.88 L535.64 221.26 L532.89 220.59 L529.98 221.28 L527.23 220.60 L524.36 221.27 L521.56 221.19 L518.77 221.00 L516.00 220.37 L513.14 221.70 L510.36 221.29 L507.58 221.01 L504.80 220.19 L502.00 220.49 L499.21 220.62 L496.41 220.64 L493.60 219.84 L490.85 221.53 L488.04 221.00 L485.25 221.05 L482.47 221.29 L479.77 222.67 L476.99 222.81 L474.26 223.48 L471.46 223.41 L468.77 224.39 L466.01 224.69 L463.33 225.60 L460.54 225.62 L457.85 226.36 L455.18 227.17 L452.48 227.82 L449.79 228.43 L447.13 229.21 L444.37 229.48 L441.65 230.00 L439.07 231.13 L436.36 231.63 L433.74 232.52 L431.00 232.92 L428.16 233.01 L425.61 234.14 L423.35 236.26 L420.53 236.42 L417.89 237.21 L415.21 237.85 L412.93 239.72 L410.19 240.21 L407.91 241.99 L405.15 242.43 L402.59 243.43 L400.06 244.47 L397.92 246.50 L395.05 246.74 L392.97 248.83 L390.35 249.65 L388.15 251.42 L385.35 251.87 L383.41 254.16 L380.77 254.94 L378.25 255.99 L375.73 257.06 L373.46 258.61 L371.01 259.81 L369.03 261.87 L366.17 262.32 L364.06 264.13 L361.96 265.93 L359.41 266.96 L357.03 268.28 L355.41 270.82 L352.85 271.84 L350.58 273.34 L348.67 275.37 L346.80 277.42 L344.57 278.95 L342.46 280.64 L340.43 282.45 L338.08 283.81 L336.19 285.78 L334.22 287.64 L331.61 288.69 L329.84 290.79 L327.67 292.41 L325.25 293.72 L323.54 295.88 L321.63 297.78 L319.31 299.24 L317.62 301.40 L316.43 304.07 L313.77 305.17 L312.55 307.78 L310.80 309.83 L309.00 311.82 L306.60 313.23 L306.14 316.50 L303.31 317.51 L301.72 319.69 L299.50 321.30 L298.89 324.34 L296.71 325.98 L295.47 328.44 L292.76 329.66 L291.88 332.40 L290.27 334.54 L288.87 336.83 L286.08 338.06 L285.97 341.32 L283.66 342.94 L282.62 345.48 L281.02 347.62 L279.84 350.04 L278.38 352.27 L277.75 355.03 L275.26 356.59 L274.72 359.40 L274.26 362.23 L271.94 363.93 L270.17 365.97 L270.00 368.93 L268.41 371.08 L267.14 373.40 L266.02 375.81 L264.86 378.19 L263.92 380.69 L263.43 383.39 L262.03 385.65 L260.57 387.88 L260.97 390.97 L260.09 393.45 L258.26 395.52 L257.00 397.84 L257.61 400.94 L255.35 402.86 L254.29 405.27 L252.91 407.57 L252.77 410.32 L251.81 412.78 L251.16 415.33 L249.65 417.60 L250.07 420.50 L248.87 422.88 L249.08 425.68 L247.34 427.90 L248.17 430.86 L246.93 433.23 L246.63 435.85 L245.84 438.35 L246.34 441.15 L245.42 443.61 L245.57 446.31 L244.21 448.69 L244.56 451.41 L244.72 454.08 L244.13 456.61 L242.63 459.00 L243.48 461.77 L243.06 464.32 L243.12 466.95 L242.62 469.50 L242.76 472.12 L242.32 474.68 L242.80 477.32 L241.45 479.80 L241.73 482.42 L242.48 485.06 L241.14 487.57 L240.40 490.14 L241.38 492.77 L242.09 495.37 L241.18 497.94 L241.52 500.53 L242.05 503.10 L242.03 505.69 L242.33 508.26 L242.71 510.82 L242.12 513.43 L243.42 515.94 L243.65 518.50 L243.86 521.06 L243.35 523.69 L245.61 526.05 L243.90 528.81 L244.68 531.31 L244.85 533.89 L245.78 536.35 L245.06 539.06 L246.50 541.44 L245.35 544.25 L246.77 546.61 L247.04 549.18 L247.58 551.70 L247.93 554.26 L250.54 556.32 L250.17 559.03 L252.22 561.17 L253.39 563.50 L254.43 565.86 L254.17 568.57 L256.25 570.63 L255.66 573.46 L257.09 575.68 L257.47 578.23 L258.69 580.51 L257.93 583.47 L260.00 585.45 L260.70 587.90 L261.37 590.38 L262.48 592.68 L264.85 594.48 L265.73 596.85 L266.31 599.36 L266.64 601.99 L268.77 603.83 L269.99 606.05 L270.94 608.41 L271.42 610.99 L273.25 612.92 L275.52 614.61 L277.22 616.56 L279.03 618.44 L279.87 620.84 L281.37 622.88 L282.39 625.19 L284.21 627.03 L285.07 629.43 L287.68 630.77 L287.87 633.60 L289.54 635.51 L290.80 637.67 L293.95 638.57 L294.35 641.31 L295.98 643.22 L296.68 645.78 L299.20 647.03 L299.97 649.56 L302.03 651.14 L302.13 654.21 L304.50 655.54 L305.86 657.65 L307.86 659.24 L309.13 661.44 L311.67 662.54 L313.55 664.20 L315.95 665.39 L317.74 667.10 L319.33 669.00 L320.85 670.97 L323.62 671.72 L324.78 674.05 L325.97 676.35 L328.40 677.41 L329.81 679.51 L331.04 681.82 L333.05 683.29 L336.01 683.71 L336.93 686.40 L339.15 687.60 L341.35 688.83 L343.57 690.02 L345.02 692.14 L346.85 693.80 L348.91 695.17 L350.69 696.92 L352.52 698.60 L354.64 699.89 L357.29 700.42 L360.14 700.64 L361.94 702.34 L364.93 702.28 L366.47 704.37 L368.80 705.24 L370.73 706.76 L373.12 707.52 L374.12 710.59 L377.37 709.90 L379.50 711.07 L381.88 711.78 L383.25 714.33 L386.48 713.47 L388.41 714.99 L390.29 716.64 L392.15 718.36 L394.84 718.39 L396.77 719.99 L399.42 720.03 L401.00 722.43 L403.77 722.16 L406.13 722.80 L408.34 723.77 L410.45 725.00 L412.97 725.22 L415.17 726.21 L417.72 726.28 L419.84 727.51 L422.15 728.21 L424.46 728.91 L426.68 729.89 L429.07 730.29 L431.33 731.18 L433.76 731.45 L436.06 732.16 L438.13 733.76 L440.79 733.08 L443.46 732.28 L445.19 735.41 L447.67 735.39 L450.34 734.40 L452.59 735.36 L454.78 736.71 L457.33 736.15 L459.65 736.85 L462.07 736.92 L464.54 736.59 L466.96 736.55 L469.28 737.26 L471.84 736.03 L474.11 737.12 L476.52 736.93 L478.83 737.94 L481.34 736.48 L483.59 738.35 L486.08 736.62 L488.48 735.99 L490.91 734.30 L493.23 735.44 L495.59 735.30 L497.94 735.46 L500.29 734.09 L502.65 735.68 L505.01 735.65 L507.40 736.67 L509.75 736.40 L512.12 736.37 L514.37 734.39 L516.92 737.06 L519.18 735.56 L521.54 735.44 L523.84 734.68 L526.25 735.00 L528.43 733.36 L530.68 732.42 L533.02 732.26 L535.29 731.54 L537.49 730.52 L539.77 729.95 L542.01 729.26 L544.02 727.35 L546.50 727.92 L548.66 726.92 L550.89 726.27 L553.18 725.87 L555.62 726.08 L557.20 722.84 L560.02 724.52 L562.18 723.58 L564.58 723.52 L566.25 721.01 L568.73 721.21 L570.72 719.84 L573.37 720.48 L575.23 718.74 L577.96 719.52 L580.07 718.52 L582.18 717.52 L583.66 714.90 L585.94 714.39 L587.84 712.94 L589.78 711.61 L591.87 710.67 L594.32 710.51 L596.25 709.18 L598.88 709.35 L600.19 706.74 L602.25 705.73 L604.39 704.87 L606.01 703.02 L607.80 701.49 L609.70 700.22 L611.94 699.55 L613.66 697.94 L616.28 697.89 L618.55 697.21 L619.56 694.47 L620.15 691.11 L622.49 690.57 L623.12 687.42 L624.22 685.03 L625.89 683.53 L628.05 682.73 L630.08 681.73 L632.50 681.25 L635.21 681.13 L637.19 680.00 L639.22 678.92 L641.34 677.95 L642.67 675.98 L643.87 673.88 L645.96 672.85 L646.70 670.25 L648.57 668.97 L649.80 666.97 L651.26 665.24 L653.33 664.18 L655.63 663.34 L656.78 661.28 L658.61 659.93 L660.12 658.26 L661.03 656.00 L661.64 653.50 L662.94 651.66 L663.81 649.44 L663.33 646.04 L665.08 644.65 L667.68 644.00 L669.33 642.49 L670.68 640.74 L673.18 639.92 L675.31 638.76 L676.80 637.09 L676.64 634.16 L677.28 631.87 L678.46 629.99 L678.65 627.42 L679.19 625.12 L680.37 623.28 L682.02 621.76 L684.23 620.59 L686.51 619.43 L688.61 618.13 L689.05 615.79 L690.65 614.17 L690.84 611.70 L691.73 609.67 L692.85 607.76 L693.05 605.35 L692.25 602.43 L693.82 600.79 L696.61 599.76 L696.78 597.39 L697.19 595.15 L698.57 593.37 L699.65 591.46 L700.19 589.29 L700.53 587.05 L699.69 584.32 L699.83 582.04 L700.23 579.87 L699.77 577.38 L700.05 575.20 L701.48 573.44 L702.71 571.60 L703.54 569.61 L704.47 567.66 L706.16 565.94 L706.63 563.82 L706.89 561.64 L707.14 559.46 L707.45 557.31 L708.48 555.36 L708.94 553.25 L708.70 550.97 L709.08 548.86 L710.61 547.00 L711.95 545.08 L711.90 542.86 L712.17 540.71 L713.35 538.73 L713.81 536.60 L713.56 534.37 L713.05 532.10 L712.91 529.91 L713.15 527.77 L712.89 525.57 L712.87 523.41 L712.04 521.18 L713.58 519.18 L714.03 517.06 L713.54 514.88 L713.63 512.74 L714.31 510.63 L714.36 508.48 L714.78 506.35 L714.08 504.19 L713.98 502.04 L713.68 499.91 L714.07 497.76 L713.38 495.64 L713.79 493.49 L712.99 491.38 L712.74 489.26 L712.52 487.14 L712.47 485.01 L711.41 482.96 L712.25 480.75 L710.94 478.74 L710.55 476.65 L710.91 474.47 L710.55 472.38 L709.64 470.36 L709.50 468.24 L708.20 466.31 L708.35 464.14 L707.80 462.09 L706.66 460.16 L705.51 458.25 L705.91 456.02 L705.32 453.99 L704.65 451.99 L703.59 450.08 L702.86 448.10 L701.89 446.20 L702.13 443.96 L700.73 442.18 L700.36 440.11 L699.01 438.34 L698.22 436.41 L697.56 434.43 L697.16 432.37 L696.13 430.52 L695.62 428.49 L694.23 426.79 L693.10 425.00 L692.05 423.19 L692.19 420.90 L690.88 419.20 L689.52 417.53 L688.71 415.63 L687.45 413.93 L686.43 412.13 L686.34 409.89 L685.04 408.22 L683.44 406.72 L683.02 404.62 L681.68 402.99 L680.35 401.37 L679.77 399.34 L679.07 397.37 L677.02 396.18 L676.11 394.33 L674.82 392.71 L673.77 390.95 L672.43 389.37 L671.56 387.49 L669.60 386.33 L668.77 384.43 L666.99 383.18 L665.85 381.49 L664.03 380.29 L663.23 378.36 L662.11 376.65 L660.83 375.06 L658.87 374.02 L657.84 372.25 L656.23 370.94 L655.19 369.17 L653.83 367.66 L652.52 366.11 L650.47 365.22 L649.18 363.67 L648.11 361.90 L646.51 360.62 L645.27 359.01 L643.83 357.59 L641.78 356.78 L640.20 355.52 L639.29 353.56 L637.71 352.29 L636.24 350.89 L634.20 350.15 L632.50 349.03 L630.64 348.11 L629.55 346.30 L627.83 345.22 L626.01 344.28 L624.33 343.18 L622.75 341.95 L620.65 341.41 L619.53 339.57 L617.72 338.67 L616.09 337.51 L614.17 336.78 L612.42 335.81 L610.56 335.00 L609.25 333.38 L607.30 332.73 L605.62 331.66 L603.80 330.82 L602.00 329.97 L600.22 329.09 L598.71 327.73 L596.75 327.18 L595.04 326.17 L593.34 325.15 L591.30 324.77 L589.48 324.01 L588.04 322.46 L585.91 322.30 L583.89 321.96 L582.41 320.47 L580.37 320.20 L578.27 320.09 L576.55 319.11 L574.86 318.06 L572.68 318.23 L571.02 317.10 L569.12 316.55 L566.89 316.96 L565.14 316.06 L563.48 314.89 L561.41 314.92 L559.55 314.33 L557.63 313.92 L555.62 313.87 L553.67 313.60 L552.00 312.35 L550.09 311.96 L548.07 312.01 L546.21 311.45 L544.32 311.02 L542.30 311.16 L540.61 309.80 L538.71 309.40 L536.67 309.68 L534.67 309.87 L532.75 309.62 L530.90 308.98 L528.99 308.63 L527.03 308.69 L525.08 308.67 L523.08 309.14 L521.15 309.16 L519.25 308.83 L517.37 308.33 L515.42 308.49 L513.45 309.07 L511.55 308.81 L509.60 309.48 L507.69 309.51 L505.81 308.75 L503.89 309.07 L501.97 309.29 L500.07 309.15 L498.16 309.62 L496.26 309.68 L494.35 309.47 L492.44 309.31 L490.56 309.95 L488.68 310.42 L486.79 310.62 L484.91 310.95 L483.02 311.15 L481.10 310.93 L479.29 311.91 L477.43 312.25 L475.55 312.47 L473.65 312.57 L471.84 313.22 L469.99 313.65 L468.12 313.86 L466.39 314.95 L464.67 315.95 L462.63 315.33 L460.93 316.39 L459.12 316.90 L457.23 317.05 L455.48 317.79 L453.91 319.24 L452.09 319.64 L450.22 319.87 L448.62 321.07 L446.76 321.37 L444.88 321.60 L443.39 323.07 L441.53 323.34 L439.50 323.16 L437.98 324.49 L436.21 325.05 L434.54 325.91 L432.94 326.93 L431.42 328.11 L429.32 327.88 L427.79 329.03 L426.20 330.05 L424.71 331.24 L423.10 332.17 L421.66 333.44 L419.59 333.40 L418.16 334.67 L416.61 335.68 L415.23 337.04 L413.73 338.13 L412.23 339.20 L410.26 339.43 L408.88 340.73 L407.49 341.98 L406.07 343.18 L404.61 344.30 L403.19 345.47 L401.22 345.77 L399.90 347.09 L398.84 348.79 L396.98 349.31 L395.60 350.51 L394.42 351.99 L392.49 352.44 L391.16 353.70 L390.23 355.50 L388.45 356.16 L387.27 357.60 L385.94 358.85 L384.60 360.07 L383.11 361.13 L382.36 363.03 L380.82 364.01 L379.59 365.36 L378.62 366.97 L377.41 368.32 L375.64 369.07 L375.17 371.18 L373.56 372.09 L372.24 373.32 L371.29 374.91 L370.57 376.70 L368.84 377.53 L367.75 378.96 L366.61 380.35 L365.71 381.95 L364.84 383.55 L363.73 384.95 L361.96 385.80 L361.14 387.44 L360.36 389.10 L359.42 390.64 L358.38 392.09 L357.18 393.41 L356.23 394.92 L355.10 396.30 L354.12 397.80 L353.81 399.74 L353.03 401.35 L351.77 402.64 L350.71 404.07 L349.63 405.48 L349.35 407.40 L348.96 409.23 L348.29 410.88 L346.93 412.12 L346.10 413.68 L345.58 415.41 L345.17 417.19 L344.39 418.76 L344.22 420.64 L342.91 421.94 L342.48 423.68 L341.60 425.21 L341.25 426.98 L340.47 428.54 L340.20 430.33 L339.26 431.82 L338.90 433.56 L338.02 435.09 L337.93 436.93 L337.63 438.67 L336.95 440.27 L336.21 441.85 L335.98 443.61 L335.48 445.27 L334.87 446.89 L335.03 448.76 L334.71 450.47 L334.01 452.06 L333.96 453.84 L333.77 455.58 L332.80 457.10 L333.21 458.98 L333.05 460.71 L332.34 462.31 L331.96 463.98 L332.34 465.81 L331.86 467.46 L332.02 469.23 L332.83 471.11 L332.22 472.73 L330.96 474.25 L331.83 476.10 L331.45 477.77 L331.25 479.46 L331.29 481.17 L331.25 482.87 L330.20 484.48 L330.69 486.23 L330.85 487.95 L330.99 489.65 L330.98 491.35 L331.55 493.06 L330.71 494.73 L330.98 496.42 L331.29 498.12 L331.80 499.81 L332.22 501.49 L332.03 503.17 L331.60 504.86 L332.21 506.52 L332.57 508.19 L332.96 509.84 L333.12 511.51 L333.34 513.17 L332.92 514.88 L333.21 516.54 L333.91 518.15 L334.16 519.80 L335.10 521.37 L335.16 523.04 L334.74 524.78 L335.41 526.37 L336.46 527.88 L336.07 529.64 L337.07 531.14 L337.39 532.77 L337.27 534.49 L337.50 536.14 L338.71 537.57 L338.79 539.25 L339.53 540.78 L340.12 542.34 L340.66 543.90 L340.65 545.62 L342.16 546.91 L342.44 548.54 L343.49 549.94 L343.71 551.59 L344.76 552.97 L345.21 554.55 L346.07 555.99 L346.64 557.52 L347.92 558.78 L348.38 560.36 L349.75 561.56 L349.97 563.23 L350.43 564.80 L350.96 566.35 L352.59 567.40 L352.82 569.08 L353.46 570.58 L354.16 572.05 L355.04 573.43 L355.65 574.94 L357.42 575.84 L358.10 577.31 L358.22 579.09 L359.79 580.06 L360.19 581.70 L361.23 582.96 L362.67 583.98 L363.94 585.08 L364.16 586.85 L365.22 588.08 L366.22 589.35 L367.75 590.25 L368.69 591.55 L370.14 592.48 L370.50 594.20 L371.61 595.36 L372.59 596.62 L374.07 597.50 L375.33 598.54 L376.46 599.67 L376.75 601.49 L378.40 602.19 L379.44 603.39 L380.97 604.15 L382.03 605.33 L383.27 606.34 L384.01 607.81 L385.43 608.65 L386.63 609.68 L387.58 610.96 L389.11 611.66 L390.46 612.53 L391.00 614.24 L392.48 614.96 L393.97 615.67 L394.92 616.96 L396.61 617.42 L397.82 618.41 L398.85 619.62 L400.16 620.49 L401.96 620.75 L402.79 622.22 L404.50 622.56 L405.98 623.17 L407.36 623.92 L408.21 625.38 L410.16 625.33 L411.22 626.51 L412.91 626.77 L414.50 627.16 L415.87 627.87 L416.84 629.18 L418.56 629.33 L420.01 629.90 L421.58 630.25 L422.95 630.92 L424.52 631.23 L425.57 632.46 L427.08 632.86 L428.55 633.33 L430.08 633.68 L431.57 634.07 L432.92 634.73 L434.26 635.41 L435.74 635.80 L437.40 635.80 L439.14 635.57 L440.57 636.00 L441.76 637.01 L443.20 637.43 L444.76 637.53 L446.31 637.63 L447.79 637.89 L449.34 637.95 L450.75 638.37 L452.16 638.78 L453.72 638.74 L455.22 638.86 L456.70 639.02 L458.27 638.85 L459.56 639.62 L461.02 639.80 L462.56 639.66 L463.99 639.90 L465.45 639.98 L466.98 639.78 L468.38 640.12 L469.88 639.99 L471.29 640.22 L472.79 640.01 L474.24 640.04 L475.70 639.94 L477.13 639.97 L478.61 639.71 L480.02 639.81 L481.46 639.73 L482.90 639.51 L484.36 639.13 L485.74 639.43 L487.20 638.84 L488.60 638.81 L489.98 638.98 L491.41 638.49 L492.83 637.84 L494.20 638.12 L495.60 637.79 L496.99 637.22 L498.36 637.09 L499.73 636.97 L501.10 636.05 L502.46 636.04 L503.82 636.07 L505.16 635.42 L506.50 635.25 L507.85 635.07 L509.16 634.39 L510.49 634.08 L511.83 634.03 L513.12 633.37 L514.42 632.91 L515.72 632.54 L516.98 631.90 L518.23 631.24 L519.57 631.22 L520.80 630.52 L522.06 630.00 L523.27 629.28 L524.49 628.69 L525.71 628.10 L526.99 627.86 L528.17 627.12 L529.41 626.70 L530.54 625.84 L531.70 625.14 L532.90 624.64 L534.14 624.29 L535.25 623.47 L536.35 622.68 L537.50 622.06 L538.59 621.27 L539.70 620.60 L540.94 620.30 L542.02 619.53 L543.06 618.67 L544.23 618.20 L545.26 617.37 L546.33 616.66 L547.48 616.16 L548.57 615.51 L549.48 614.46 L550.56 613.82 L551.56 613.00 L552.58 612.26 L553.59 611.49 L554.63 610.81 L555.46 609.70 L556.48 609.00 L557.42 608.15 L558.36 607.33 L559.28 606.46 L560.24 605.69 L561.13 604.81 L562.06 603.99 L562.93 603.09 L563.86 602.30 L564.70 601.37 L565.63 600.60 L566.51 599.75 L567.33 598.83 L568.14 597.90 L568.98 597.02 L569.82 596.15 L570.65 595.28 L571.47 594.40 L572.27 593.49 L572.97 592.48 L573.77 591.59 L574.60 590.75 L575.31 589.76 L576.10 588.89 L576.80 587.91 L577.46 586.89 L578.17 585.95 L578.93 585.06 L579.60 584.08 L580.28 583.12 L580.91 582.11 L581.57 581.13 L582.19 580.13 L582.93 579.25 L583.53 578.25 L584.13 577.24 L584.75 576.27 L585.35 575.27 L585.91 574.26 L586.57 573.32 L587.10 572.29 L587.65 571.28 L588.21 570.28 L588.77 569.28 L589.29 568.27 L589.85 567.28 L590.36 566.26 L590.84 565.23 L591.35 564.22 L591.82 563.19 L592.30 562.17 L592.80 561.16 L593.23 560.12 L593.64 559.06 L594.10 558.05 L594.50 557.00 L594.89 555.95 L595.31 554.92 L595.71 553.88 L596.06 552.82 L596.45 551.79 L596.81 550.74 L597.13 549.67 L597.47 548.63 L597.83 547.59 L598.10 546.51 L598.42 545.46 L598.71 544.41 L598.98 543.34 L599.25 542.28 L599.54 541.23 L599.77 540.17 L600.01 539.11 L600.24 538.05 L600.46 536.98 L600.66 535.92 L600.89 534.87 L601.06 533.80 L601.22 532.73 L601.40 531.67 L601.55 530.61 L601.68 529.54 L601.83 528.48 L601.94 527.42 L602.04 526.35 L602.12 525.29 L602.21 524.23 L602.30 523.17 L602.36 522.11 L602.41 521.05 L602.45 519.99 L602.48 518.94 L602.50 517.88 L602.51 516.83 L602.51 515.78 L602.49 514.73 L602.46 513.68 L602.43 512.64 L602.38 511.59 L602.32 510.55 L602.25 509.51 L602.17 508.47 L602.09 507.44 L601.99 506.41 L601.90 505.38 L601.80 504.35 L601.69 503.33 L601.58 502.31 L601.46 501.29 L601.32 500.28 Z"/>
  <svg class="pausebutton" id="pausebutton">
    <circle cx="500" cy="500" id="pausestart" class="pausestart" r="52.65"/>
    <rect height="50.02" width="10.00" y="473.68" rx="2.00" ry="2.00" x="479.99" class="pausesymbol"/>
    <rect height="50.02" width="10.00" y="473.68" rx="2.00" ry="2.00" x="510.00" class="pausesymbol"/>
    <polygon points="530.01,500 479.99,530.01 479.99,469.99" class="playsymbol"/>
  </svg>
  <polygon id="playback-head" class="playback-head" points="956.2375,500 936.2375,540 976.2375,540"/>
</svg>