<?xml-stylesheet href="../../style/waveformjs.css" type="text/css"?>
<svg xmlns="http://www.w3.org/2000/svg" xmlns:xlink="http://www.w3.org/1999/xlink" width="100%" height="100%" viewBox="0 0 1000 1000">
  <path class="svg-wave" id="sp" d="M598.02 500.00 L598.19 500.98 L598.35 501.97 L598.50 502.96 L598.64 503.95 L598.78 504.94 L598.90 505.94 L599.01 506.94 L599.12 507.95 L599.21 508.95 L599.29 509.96 L599.37 510.98 L599.44 511.99 L599.49 513.01 L599.53 514.03 L599.57 515.05 L599.59 516.07 L599.60 517.10 L599.59 518.12 L599.58 519.15 L599.55 520.18 L599.52 521.21 L599.47 522.24 L599.42 523.28 L599.35 524.31 L599.27 525.35 L599.17 526.38 L599.07 527.42 L598.95 528.45 L598.83 529.49 L598.69 530.53 L598.53 531.56 L598.37 532.60 L598.20 533.63 L598.01 534.67 L597.81 535.70 L597.60 536.74 L597.37 537.77 L597.13 538.80 L596.87 539.82 L596.59 540.84 L596.28 541.85 L595.97 542.86 L595.65 543.87 L595.31 544.87 L594.97 545.88 L594.64 546.89 L594.30 547.90 L593.91 548.89 L593.54 549.90 L593.13 550.88 L592.70 551.85 L592.29 552.84 L591.76 553.76 L591.30 554.73 L590.84 555.69 L590.19 556.54 L589.66 557.47 L588.87 558.22 L587.55 558.62 L586.29 559.04 L584.48 559.04 L582.63 558.99 L582.16 559.90 L579.42 559.13 L579.44 560.39 L580.26 562.29 L578.06 561.85 L577.03 562.29 L579.34 565.48 L578.01 565.71 L578.43 567.41 L579.35 569.59 L578.56 570.30 L579.78 572.85 L576.93 571.67 L574.96 571.25 L572.89 570.68 L572.31 571.53 L572.80 573.48 L571.84 573.97 L571.65 575.26 L571.60 576.74 L572.04 578.77 L569.33 577.34 L569.55 579.17 L569.58 580.82 L568.46 581.15 L568.70 583.11 L567.32 583.12 L566.71 584.07 L564.95 583.55 L563.33 583.16 L562.85 584.27 L562.43 585.48 L560.92 585.19 L561.64 588.04 L561.90 590.33 L561.27 591.35 L561.72 594.05 L559.40 592.51 L558.51 593.16 L557.68 593.91 L555.95 593.17 L554.99 593.69 L554.99 595.87 L552.82 594.25 L551.04 593.26 L550.35 594.21 L548.89 593.73 L548.97 596.21 L548.13 596.95 L547.79 598.73 L547.27 600.20 L545.62 599.25 L544.41 599.24 L543.47 599.79 L541.76 598.55 L540.98 599.46 L541.04 602.50 L539.46 601.49 L539.15 603.75 L538.35 604.81 L537.16 604.77 L536.68 606.80 L534.87 604.95 L533.34 603.81 L532.09 603.44 L531.27 604.49 L530.64 606.23 L529.50 606.28 L528.43 606.52 L527.52 607.42 L526.60 608.31 L525.25 607.44 L524.71 610.08 L523.72 610.85 L522.97 612.84 L521.99 613.86 L520.90 614.32 L519.83 614.97 L518.43 613.60 L517.06 612.25 L516.06 613.32 L515.01 614.11 L513.70 612.83 L512.86 615.63 L511.93 617.99 L510.81 618.75 L509.80 621.00 L508.43 618.91 L507.24 618.89 L506.06 619.14 L504.84 618.64 L503.67 619.28 L502.52 621.15 L501.29 619.62 L500.09 616.93 L498.92 617.07 L497.86 611.62 L496.93 605.01 L495.87 605.28 L494.85 604.49 L494.20 597.92 L492.86 602.98 L491.63 605.46 L490.32 608.22 L489.12 609.32 L488.25 607.17 L486.70 611.08 L485.31 613.05 L484.75 608.85 L483.59 609.16 L481.79 613.39 L481.43 608.67 L480.11 609.79 L479.25 608.35 L478.82 604.89 L476.84 609.10 L477.09 602.83 L476.93 598.89 L475.95 598.62 L475.16 597.60 L474.47 596.30 L473.85 594.79 L472.22 596.91 L470.26 599.95 L469.79 597.94 L468.97 597.14 L466.45 601.51 L464.81 603.01 L463.16 604.41 L461.38 606.07 L460.95 603.99 L459.06 605.81 L456.70 608.67 L456.96 604.95 L455.56 605.34 L452.24 610.12 L453.08 605.29 L451.03 607.00 L449.66 607.14 L450.48 602.73 L447.43 606.33 L449.34 599.92 L449.92 596.38 L449.74 594.40 L449.50 592.61 L449.05 591.25 L448.69 589.78 L446.58 591.34 L443.89 593.77 L443.51 592.31 L442.90 591.24 L439.59 594.41 L437.08 596.21 L434.80 597.54 L432.87 598.29 L432.97 596.06 L430.23 597.89 L427.37 599.79 L428.92 595.63 L428.41 594.33 L423.91 598.20 L425.85 593.75 L424.55 593.45 L423.69 592.61 L425.74 588.31 L421.20 591.83 L424.01 586.78 L426.26 582.53 L425.27 581.97 L425.04 580.60 L424.94 579.10 L424.94 577.53 L422.53 578.43 L419.34 580.05 L419.19 578.61 L418.54 577.68 L414.74 579.68 L411.65 580.93 L409.18 581.54 L406.93 581.89 L407.49 579.77 L404.80 580.45 L401.16 581.84 L403.65 578.17 L403.12 577.00 L396.65 580.47 L399.92 576.33 L398.12 576.11 L396.34 575.83 L400.00 571.63 L394.58 573.93 L398.97 569.35 L402.18 565.72 L402.35 564.20 L403.04 562.37 L403.81 560.52 L403.76 559.22 L401.44 559.29 L397.84 560.08 L398.31 558.44 L397.70 557.43 L393.92 558.17 L390.71 558.52 L388.08 558.49 L385.31 558.49 L386.60 556.41 L383.56 556.47 L378.77 557.31 L383.42 553.69 L384.19 551.94 L377.41 553.51 L381.38 550.37 L380.88 549.19 L379.68 548.28 L384.60 544.97 L378.03 546.13 L382.42 543.13 L387.63 539.95 L386.34 539.13 L386.44 537.83 L387.32 536.29 L388.20 534.78 L385.76 534.29 L381.69 534.22 L383.02 532.57 L382.23 531.53 L378.57 531.21 L374.86 530.84 L372.99 529.95 L370.68 529.14 L372.24 527.44 L369.87 526.59 L365.96 526.00 L370.46 523.79 L369.80 522.56 L362.38 522.43 L367.17 520.29 L365.16 519.22 L364.19 517.98 L371.76 515.67 L364.90 515.14 L370.04 513.25 L376.57 511.34 L375.68 510.17 L376.05 508.89 L378.13 507.52 L378.40 506.28 L377.08 505.12 L373.02 504.01 L374.16 502.72 L373.40 501.47 L370.19 500.21 L366.67 498.88 L365.21 497.52 L362.82 496.10 L365.04 494.81 L362.83 493.35 L358.53 491.73 L363.48 490.65 L364.49 489.35 L356.29 487.26 L361.05 486.28 L361.48 484.92 L358.90 483.21 L364.09 482.45 L356.05 479.95 L364.66 479.77 L369.33 479.13 L369.18 477.76 L373.22 477.14 L375.81 476.32 L376.23 475.12 L375.54 473.68 L371.40 471.46 L372.87 470.45 L372.36 468.98 L369.68 466.95 L366.71 464.77 L365.68 463.05 L363.13 460.88 L366.02 460.25 L364.24 458.24 L360.50 455.56 L366.73 456.07 L367.22 454.76 L360.14 450.78 L365.84 451.27 L366.03 449.82 L364.41 447.66 L372.22 449.20 L366.97 445.57 L371.46 445.90 L378.20 447.29 L377.60 445.57 L378.50 444.51 L381.35 444.37 L382.14 443.30 L381.96 441.75 L378.59 438.57 L379.94 437.74 L379.91 436.19 L378.62 433.94 L376.06 430.93 L376.17 429.36 L374.47 426.72 L377.20 426.66 L375.57 423.98 L372.83 420.55 L378.06 422.12 L380.08 421.71 L375.06 416.63 L379.52 417.86 L381.74 417.63 L380.93 415.28 L385.79 417.01 L381.43 412.02 L386.06 413.66 L391.94 416.41 L391.60 414.40 L392.58 413.42 L395.56 414.08 L396.25 412.89 L396.97 411.73 L394.20 407.51 L395.46 406.74 L395.99 405.34 L395.12 402.60 L393.45 399.05 L393.84 397.38 L392.26 393.75 L395.07 394.44 L394.70 391.93 L392.21 387.14 L397.69 390.71 L398.84 389.74 L394.26 382.41 L399.58 386.05 L401.88 386.40 L400.84 382.85 L406.91 387.76 L404.61 382.62 L408.37 384.90 L413.28 388.81 L413.54 386.83 L414.62 385.90 L417.39 387.26 L418.70 386.70 L419.73 385.73 L417.86 380.55 L419.45 380.32 L420.52 379.32 L420.15 376.07 L419.20 371.81 L420.03 370.26 L419.47 366.38 L422.26 368.04 L422.18 364.83 L421.04 359.63 L425.85 365.03 L427.52 364.89 L425.09 356.95 L428.66 360.39 L430.92 361.41 L431.17 358.38 L435.17 363.15 L433.66 356.25 L437.34 360.59 L441.76 366.88 L442.31 364.46 L443.58 363.68 L445.90 365.48 L447.41 365.36 L448.93 365.30 L448.27 359.33 L449.94 359.56 L451.42 359.26 L451.92 356.07 L452.13 351.77 L453.38 350.56 L453.73 346.28 L455.90 348.01 L456.88 345.65 L457.01 339.93 L460.24 345.83 L461.88 345.82 L461.31 336.53 L464.31 342.15 L466.33 343.87 L466.99 339.12 L470.24 347.20 L470.60 340.59 L472.98 344.83 L475.79 352.23 L476.96 349.95 L478.39 349.29 L480.26 351.74 L481.77 351.79 L483.26 351.66 L484.06 344.91 L485.58 344.37 L487.27 345.84 L488.97 347.90 L490.13 342.04 L491.69 341.52 L493.44 345.36 L495.01 346.01 L496.51 344.11 L497.98 337.09 L499.63 343.38 L501.19 343.33 L502.97 331.23 L504.55 335.31 L506.14 336.82 L507.93 333.49 L509.26 339.50 L511.40 331.57 L512.61 337.83 L513.51 346.20 L515.30 343.80 L516.96 343.00 L518.23 345.74 L520.06 343.63 L522.16 340.01 L525.34 329.57 L526.93 330.55 L529.23 327.26 L531.05 327.05 L532.82 327.15 L534.05 329.94 L535.85 329.83 L537.38 330.93 L540.10 326.90 L541.74 327.64 L542.79 330.72 L545.92 325.69 L547.12 328.14 L548.64 329.31 L550.81 328.24 L552.56 328.65 L554.00 330.02 L556.29 328.76 L558.40 328.16 L560.70 327.08 L562.07 328.69 L563.50 330.07 L566.18 328.17 L566.40 332.59 L568.14 333.09 L571.07 330.78 L571.90 333.49 L573.17 335.10 L575.43 334.48 L577.56 334.23 L577.98 337.59 L579.50 338.57 L580.95 339.69 L584.67 336.41 L583.73 342.12 L582.72 347.72 L588.40 341.07 L588.13 345.22 L588.82 347.57 L593.53 343.13 L594.77 344.60 L594.96 347.73 L598.87 344.93 L600.05 346.50 L602.21 346.55 L603.89 347.36 L604.56 349.63 L608.42 347.37 L607.72 351.51 L610.22 351.22 L614.02 349.26 L614.21 352.12 L616.83 351.80 L620.63 350.10 L621.78 351.73 L622.38 353.99 L624.17 354.83 L622.21 359.99 L621.49 363.59 L627.65 359.53 L625.24 364.91 L624.03 368.88 L629.07 366.25 L625.74 372.28 L628.52 372.05 L630.73 372.43 L630.05 375.60 L637.39 371.19 L636.29 374.76 L635.83 377.66 L641.88 374.76 L637.94 380.67 L637.39 383.52 L640.75 383.08 L641.05 385.20 L648.61 381.49 L645.13 386.62 L648.83 386.11 L654.56 384.16 L656.11 385.42 L652.85 390.14 L651.41 393.45 L654.20 393.78 L657.65 393.71 L653.53 398.71 L655.58 399.58 L657.64 400.46 L662.72 399.52 L659.47 403.72 L659.32 405.97 L667.25 403.53 L667.89 405.39 L669.40 406.75 L666.19 410.67 L664.75 413.56 L671.81 412.04 L666.64 416.78 L665.28 419.51 L666.60 420.92 L659.97 426.02 L662.19 426.95 L659.14 430.23 L658.08 432.57 L660.27 433.52 L663.76 433.99 L664.17 435.72 L664.62 437.44 L665.64 438.94 L667.67 440.09 L666.13 442.51 L675.95 441.07 L677.88 442.40 L677.10 444.60 L682.02 445.05 L681.31 447.24 L677.99 450.13 L679.40 451.66 L675.26 454.65 L671.02 457.57 L675.71 458.27 L671.29 461.12 L670.59 463.07 L673.13 464.33 L669.15 466.91 L669.69 468.56 L673.48 469.65 L673.60 471.42 L672.65 473.34 L672.37 475.15 L675.73 476.46 L678.13 477.94 L673.74 480.25 L677.02 481.67 L677.81 483.38 L678.40 485.13 L678.17 486.94 L685.41 488.27 L687.70 490.01 L689.70 491.80 L694.21 493.55 L690.40 495.58 L697.07 497.40 L690.70 499.39 L683.90 501.25 L689.43 503.19 L680.59 504.84 L676.65 506.51 L679.33 508.40 L676.55 510.04 L675.77 511.76 L680.05 513.86 L681.69 515.81 L679.69 517.45 L680.99 519.41 L682.01 521.36 L682.31 523.24 L683.80 525.30 L690.83 528.22 L689.81 530.01 L688.99 531.82 L692.12 534.33 L695.80 537.01 L693.88 538.66 L691.39 540.16 L691.84 542.26 L688.91 543.60 L689.03 545.62 L684.63 546.52 L679.76 547.21 L682.91 550.00 L677.93 550.55 L676.24 551.98 L677.58 554.31 L673.39 554.93 L674.30 557.15 L677.81 560.27 L678.69 562.57 L676.54 563.80 L675.13 565.28 L677.52 568.20 L676.91 570.01 L670.96 569.64 L673.09 572.53 L672.89 574.49 L672.93 576.57 L672.21 578.31 L678.72 583.44 L679.89 586.19 L678.05 587.51 L682.59 592.02 L676.76 591.31 L680.77 595.68 L675.27 595.03 L668.13 593.34 L671.68 597.57 L664.17 595.49 L660.18 595.33 L661.16 598.10 L657.95 598.32 L655.83 599.18 L657.97 602.78 L658.28 605.25 L656.60 606.41 L657.51 609.34 L658.76 612.58 L657.92 614.37 L657.12 616.21 L655.62 617.52 L656.18 620.42 L653.37 620.71 L658.46 627.31 L658.92 630.31 L656.31 630.81 L658.84 635.65 L656.29 636.20 L651.87 635.04 L651.33 637.30 L646.75 635.84 L641.73 633.85 L642.82 637.60 L638.30 635.95 L636.07 636.45 L635.79 638.93 L631.97 637.74 L631.38 639.91 L631.98 643.39 L630.58 644.74 L628.22 645.02 L626.92 646.48 L626.76 649.29 L627.00 652.63 L622.91 650.76 L622.72 653.64 L621.21 654.90 L619.68 656.13 L618.18 657.41 L620.44 663.82 L620.37 667.20 L618.79 668.53 L620.61 674.79 L616.92 673.13 L618.00 678.56 L613.90 676.15 L608.02 670.78 L609.16 676.47 L603.35 670.87 L599.33 667.99 L598.75 670.88 L595.94 669.92 L593.99 670.43 L593.90 674.37 L593.39 677.65 L590.81 677.02 L589.59 679.03 L588.25 680.86 L587.13 683.18 L586.05 685.67 L586.86 692.45 L584.92 693.27 L582.39 692.73 L581.93 697.07 L581.75 702.34 L578.99 701.27 L575.83 699.05 L574.64 701.98 L571.67 700.07 L569.61 700.60 L566.59 698.30 L563.19 694.60 L561.95 697.46 L558.91 694.59 L556.51 693.61 L555.00 695.69 L552.24 693.26 L550.76 695.54 L549.54 698.99 L548.01 701.42 L545.79 700.99 L543.61 700.69 L542.11 703.55 L540.29 705.11 L537.31 700.49 L535.66 702.88 L533.67 703.47 L531.75 704.59 L529.85 705.88 L528.68 712.77 L526.93 716.11 L524.52 714.22 L523.12 721.56 L520.45 716.94 L518.60 720.94 L516.16 717.97 L513.49 710.48 L511.61 714.89 L509.17 708.43 L506.95 704.59 L504.95 706.55 L502.86 704.47 L500.81 703.74 L498.76 706.38 L496.65 708.82 L494.58 708.39 L492.40 710.93 L490.17 713.56 L488.01 713.88 L485.84 714.16 L483.78 712.92 L481.49 714.63 L479.54 712.39 L476.79 718.14 L474.15 721.82 L471.96 721.32 L468.72 728.55 L466.71 726.38 L464.66 724.67 L461.75 728.27 L460.37 722.82 L459.68 714.26 L456.80 717.55 L455.85 711.25 L454.69 706.49 L452.15 708.10 L450.83 704.44 L448.35 705.71 L445.52 708.12 L443.03 709.08 L441.18 707.65 L439.45 705.90 L436.81 707.21 L434.07 708.69 L433.48 703.43 L431.05 703.95 L429.21 702.68 L427.07 702.29 L424.84 702.11 L420.99 706.14 L417.64 708.60 L415.74 707.34 L411.09 712.66 L410.10 709.13 L406.49 711.65 L405.33 708.60 L406.77 700.10 L402.64 703.61 L403.35 697.03 L403.39 692.08 L400.59 692.83 L399.65 689.96 L397.71 689.03 L394.70 690.03 L391.95 690.46 L390.68 688.29 L388.61 687.52 L385.97 687.66 L383.03 688.22 L380.52 688.05 L375.69 691.39 L373.09 691.19 L372.05 688.64 L367.78 690.80 L362.61 694.08 L361.62 691.39 L360.83 688.48 L356.80 689.94 L356.28 686.71 L353.29 686.70 L352.92 683.37 L356.42 675.39 L352.76 676.23 L353.92 671.33 L355.20 666.43 L352.52 666.13 L352.69 662.63 L350.20 662.09 L346.55 662.75 L343.50 662.68 L342.40 660.59 L341.60 658.20 L338.82 657.79 L335.58 657.77 L337.80 652.56 L335.16 651.96 L333.52 650.42 L331.08 649.59 L328.37 648.95 L323.24 650.33 L318.56 651.21 L318.81 647.96 L311.88 650.50 L313.59 646.11 L310.81 645.25 L310.03 642.86 L315.10 636.17 L310.69 636.52 L313.32 631.81 L315.20 627.73 L312.60 626.78 L312.86 623.89 L312.06 621.74 L310.04 620.36 L307.22 619.47 L305.87 617.63 L302.77 616.83 L299.55 616.04 L297.72 614.42 L296.48 612.45 L295.59 610.29 L292.85 609.11 L293.38 606.20 L288.35 606.12 L281.89 606.65 L280.96 604.40 L274.25 604.84 L273.88 602.28 L275.19 598.99 L272.16 597.62 L273.18 594.51 L280.33 588.96 L277.37 587.58 L280.32 583.89 L284.72 579.75 L281.91 578.32 L283.71 575.24 L281.94 573.42 L278.98 571.97 L276.09 570.44 L275.12 568.28 L276.17 565.52 L274.64 563.53 L270.89 562.12 L274.75 558.66 L273.33 556.62 L273.53 554.17 L271.90 552.15 L270.69 550.02 L266.71 548.45 L261.91 546.97 L262.46 544.40 L254.95 543.27 L256.95 540.42 L255.53 538.14 L254.36 535.81 L262.34 532.23 L258.80 530.25 L262.69 527.36 L268.17 524.38 L265.92 522.25 L267.57 519.75 L267.60 517.41 L265.51 515.21 L263.19 512.99 L263.48 510.60 L264.29 508.20 L261.76 505.90 L259.90 503.55 L259.82 501.15 L255.50 498.72 L252.42 496.23 L253.61 493.78 L249.70 491.18 L243.50 488.39 L245.66 485.94 L247.59 483.51 L243.52 480.67 L246.89 478.38 L246.29 475.77 L246.20 473.20 L255.49 471.70 L253.79 469.01 L257.01 466.94 L263.62 465.43 L262.26 462.80 L265.04 460.82 L265.15 458.42 L262.60 455.52 L260.82 452.70 L260.62 450.17 L263.30 448.26 L263.20 445.75 L260.50 442.60 L265.88 441.41 L265.08 438.71 L265.75 436.37 L264.86 433.60 L263.60 430.68 L261.35 427.43 L257.31 423.54 L260.18 421.80 L255.13 417.43 L259.69 416.28 L260.26 413.78 L259.39 410.74 L267.12 410.95 L266.81 408.15 L269.39 406.49 L274.42 405.89 L275.44 403.67 L276.89 401.64 L274.99 398.10 L267.73 392.01 L266.93 388.79 L265.12 385.02 L257.45 378.25 L260.21 376.61 L261.95 374.48 L259.58 370.15 L261.21 367.92 L262.69 365.62 L261.51 361.79 L263.53 359.78 L265.16 357.56 L266.24 354.99 L268.03 352.87 L272.44 352.46 L275.39 351.16 L275.35 347.88 L278.13 346.51 L283.12 346.73 L282.50 343.00 L283.06 340.08 L288.65 340.92 L286.65 336.04 L291.64 336.54 L290.59 332.30 L291.55 329.63 L295.48 329.40 L291.56 322.56 L295.65 322.49 L297.90 320.87 L298.22 317.52 L299.99 315.45 L303.88 315.37 L303.59 311.36 L303.47 307.43 L309.96 310.02 L310.45 306.69 L309.41 301.70 L314.90 303.52 L315.51 300.20 L318.80 299.79 L321.48 298.73 L322.32 295.60 L327.73 297.77 L328.29 294.29 L330.12 292.31 L334.45 293.42 L335.41 290.35 L338.14 289.53 L338.32 285.36 L340.05 283.17 L341.89 281.12 L340.51 274.49 L343.16 273.47 L345.97 272.70 L348.64 271.76 L350.54 269.65 L353.09 268.56 L355.48 267.21 L357.07 264.55 L358.12 260.92 L359.30 257.40 L361.16 255.01 L363.38 253.20 L366.41 252.87 L369.97 253.60 L371.97 251.40 L374.86 250.91 L379.05 253.14 L380.78 250.38 L382.66 247.87 L387.05 250.82 L388.06 246.33 L392.01 248.50 L393.66 245.34 L395.39 242.26 L399.00 243.84 L399.41 237.21 L402.60 237.71 L405.40 237.23 L407.65 235.20 L410.21 234.04 L413.56 235.25 L415.76 232.94 L417.55 229.23 L421.73 233.43 L424.21 231.96 L425.58 226.41 L429.39 229.75 L431.81 227.93 L434.71 227.97 L437.72 228.59 L440.02 226.10 L443.71 230.04 L446.19 228.39 L448.73 226.87 L452.06 229.79 L454.47 227.54 L457.41 228.46 L459.71 225.17 L462.30 223.61 L465.08 223.36 L467.27 218.04 L470.12 218.04 L473.01 218.47 L475.91 219.23 L478.70 218.71 L481.49 218.11 L484.28 217.46 L487.04 215.78 L489.82 214.00 L492.61 211.01 L495.47 209.18 L498.38 209.23 L501.28 209.79 L504.17 211.17 L507.07 210.41 L509.96 210.66 L512.68 214.66 L515.61 213.41 L518.61 211.61 L521.14 216.45 L524.28 213.05 L526.81 216.89 L529.80 215.68 L533.01 212.79 L535.45 216.54 L539.03 211.42 L541.73 213.07 L544.52 214.00 L547.56 213.36 L550.51 213.39 L552.98 215.99 L555.97 215.78 L559.62 212.41 L561.38 218.16 L564.26 218.47 L568.37 213.72 L570.22 218.47 L573.33 218.03 L576.17 218.68 L578.93 219.62 L582.77 216.87 L584.13 222.55 L587.57 221.27 L590.84 220.67 L592.17 225.95 L596.19 223.16 L598.30 225.98 L601.33 226.18 L605.27 224.05 L607.05 227.59 L611.15 225.25 L613.71 226.80 L616.25 228.40 L618.49 230.64 L621.19 231.81 L623.73 233.34 L626.49 234.38 L629.61 234.69 L633.25 234.01 L636.82 233.57 L640.19 233.60 L642.99 234.75 L645.22 236.95 L646.85 240.18 L649.93 240.80 L652.66 242.08 L653.40 246.64 L656.57 247.14 L660.15 247.06 L660.43 252.13 L664.51 251.31 L665.21 255.61 L668.05 256.68 L672.81 255.07 L673.20 259.65 L678.50 257.45 L680.51 259.78 L682.65 261.93 L685.60 263.03 L688.29 264.49 L689.32 267.99 L691.66 269.86 L696.81 268.42 L696.21 273.76 L698.58 275.60 L704.31 273.73 L703.97 278.59 L706.83 279.94 L709.00 282.04 L710.75 284.58 L715.81 283.77 L714.80 289.04 L717.94 290.20 L721.34 291.15 L720.33 296.23 L724.85 296.19 L725.47 299.69 L728.02 301.47 L734.22 300.15 L734.59 303.86 L739.93 303.44 L742.86 305.06 L744.82 307.48 L746.58 310.06 L748.36 312.61 L750.13 315.18 L751.59 317.96 L752.87 320.86 L754.06 323.80 L754.97 326.92 L754.63 330.85 L754.53 334.56 L755.70 337.41 L756.89 340.24 L756.18 344.21 L756.72 347.38 L757.02 350.66 L755.64 354.86 L758.74 356.50 L756.34 361.17 L755.54 364.89 L759.21 366.25 L758.93 369.65 L758.16 373.26 L760.31 375.42 L761.92 377.85 L763.06 380.51 L761.26 384.46 L764.16 386.33 L764.15 389.45 L763.20 392.93 L765.08 395.24 L766.44 397.77 L772.91 398.41 L772.50 401.65 L773.49 404.37 L780.82 404.95 L784.03 407.02 L780.93 411.13 L786.24 412.59 L788.71 414.99 L785.59 419.00 L782.85 422.82 L784.12 425.52 L780.28 429.52 L780.17 432.51 L783.63 434.67 L782.85 437.83 L783.73 440.60 L788.21 442.67 L788.76 445.55 L788.56 448.57 L791.23 451.10 L793.04 453.80 L792.92 456.82 L797.21 459.22 L801.37 461.71 L804.93 464.35 L811.25 466.77 L807.73 470.25 L807.73 473.35 L810.71 476.22 L806.06 479.66 L801.22 483.00 L803.76 485.90 L801.42 489.03 L799.22 492.11 L796.44 495.15 L796.05 498.11 L794.84 501.07 L795.62 504.03 L797.65 507.03 L795.79 509.95 L796.82 512.96 L799.52 516.08 L798.35 519.01 L797.44 521.94 L793.63 524.61 L795.58 527.76 L795.03 530.68 L791.47 533.26 L792.63 536.36 L794.83 539.63 L803.95 543.96 L799.66 546.40 L798.55 549.29 L807.47 553.93 L806.88 556.99 L799.26 558.68 L801.95 562.35 L801.05 565.31 L798.85 567.97 L794.84 570.16 L792.00 572.58 L787.80 574.60 L786.71 577.39 L787.55 580.71 L787.45 583.79 L792.49 588.44 L798.98 593.68 L800.28 597.39 L807.31 603.08 L805.44 605.86 L803.85 608.73 L800.46 610.91 L798.42 613.56 L796.18 616.12 L796.04 619.49 L794.57 622.34 L789.95 623.83 L788.69 626.72 L788.99 630.32 L787.84 633.28 L784.77 635.33 L786.85 639.85 L785.61 642.80 L783.09 645.09 L778.89 646.48 L781.50 651.46 L776.55 652.38 L773.43 654.25 L778.35 660.71 L773.22 661.42 L769.21 662.70 L774.11 669.43 L768.70 669.82 L769.82 674.33 L769.58 678.02 L766.53 679.86 L763.29 681.53 L760.08 683.19 L760.33 687.28 L755.97 688.06 L758.79 694.14 L754.28 694.76 L751.01 696.28 L753.43 702.29 L751.87 705.19 L746.57 705.02 L747.29 709.83 L745.36 712.45 L740.95 712.88 L737.16 713.79 L737.97 718.87 L733.47 719.08 L731.86 721.98 L734.29 728.84 L728.19 727.38 L724.29 728.01 L725.65 734.03 L720.55 733.36 L719.00 736.42 L717.11 739.13 L714.17 740.69 L709.56 740.31 L706.38 741.48 L706.39 746.44 L704.68 749.43 L704.60 754.49 L701.14 755.36 L698.44 757.18 L697.30 761.07 L692.24 759.73 L686.92 757.90 L685.62 761.57 L681.98 761.95 L678.73 762.85 L675.68 764.00 L675.88 770.11 L674.01 773.18 L670.94 774.37 L670.83 780.41 L666.89 780.22 L662.28 778.77 L660.51 782.18 L656.46 781.58 L654.41 784.56 L650.54 784.17 L646.73 783.81 L644.11 785.70 L640.52 785.65 L638.03 787.83 L635.54 790.03 L635.86 798.47 L632.30 798.53 L628.28 797.45 L627.52 804.00 L624.70 805.82 L619.36 801.31 L617.32 805.05 L614.19 806.01 L610.77 806.14 L606.53 803.88 L602.84 803.04 L598.49 800.05 L595.46 800.95 L592.99 803.66 L589.18 801.96 L585.82 801.67 L584.05 807.08 L581.15 808.57 L577.80 808.33 L575.82 813.67 L573.00 815.81 L570.22 818.24 L567.58 821.52 L563.99 820.36 L561.51 824.80 L557.87 823.22 L554.29 821.76 L552.33 830.23 L548.04 824.06 L544.75 824.22 L541.81 827.03 L537.99 822.72 L534.62 821.83 L531.67 824.94 L528.29 823.68 L524.80 820.78 L521.73 823.04 L518.40 821.60 L515.06 819.01 L511.98 822.25 L508.69 819.73 L505.60 826.27 L502.36 829.68 L499.07 828.41 L495.82 825.68 L492.42 831.77 L489.14 830.76 L486.15 823.25 L482.89 823.55 L479.56 824.91 L476.47 822.44 L472.87 826.75 L469.58 826.72 L466.25 827.09 L462.38 832.03 L459.21 830.37 L455.83 830.56 L451.99 833.81 L448.74 832.81 L445.61 831.08 L443.17 825.54 L440.17 823.58 L436.95 822.91 L434.67 817.68 L431.37 817.56 L428.39 816.03 L424.14 819.91 L420.92 819.24 L418.05 817.20 L413.66 820.89 L409.57 823.18 L406.68 821.10 L403.43 820.31 L400.97 816.95 L397.73 816.17 L395.03 813.77 L390.13 817.82 L388.35 812.82 L384.28 814.26 L381.63 811.79 L379.02 809.30 L372.76 815.97 L369.71 814.43 L364.87 817.12 L362.15 814.73 L361.41 808.00 L359.07 805.00 L355.93 803.79 L355.06 797.90 L351.16 798.28 L348.10 796.94 L342.20 801.02 L338.85 800.08 L337.22 795.97 L334.96 793.09 L329.31 796.16 L327.04 793.29 L327.68 785.64 L324.82 783.93 L320.47 784.57 L318.60 781.25 L313.13 783.47 L311.10 780.41 L309.00 777.49 L303.89 778.90 L302.79 774.58 L301.81 770.21 L297.36 770.56 L294.00 769.39 L291.73 766.79 L292.21 760.76 L290.40 757.70 L287.35 756.17 L287.10 751.32 L284.62 749.15 L282.24 746.87 L275.60 749.33 L272.67 747.56 L271.46 743.93 L265.56 745.27 L260.59 745.50 L257.94 743.30 L253.27 743.09 L251.67 739.82 L247.35 739.16 L245.44 736.18 L245.22 731.68 L235.41 735.82 L235.59 730.96 L231.48 729.85 L221.37 733.72 L220.89 729.41 L218.93 726.34 L214.90 724.93 L218.21 717.78 L222.20 710.29 L222.40 705.80 L221.48 702.20 L222.19 697.48 L219.10 695.48 L218.25 691.91 L211.18 692.53 L207.86 690.55 L209.12 685.61 L208.23 682.10 L201.84 681.97 L199.89 679.06 L204.07 672.58 L204.03 668.66 L199.89 667.06 L199.11 663.58 L194.55 662.13 L192.54 659.27 L190.97 656.18 L183.53 655.99 L183.42 652.13 L182.16 648.84 L177.30 647.20 L176.16 643.83 L176.09 640.00 L178.72 635.06 L179.44 631.01 L178.04 627.84 L180.53 623.16 L179.46 619.91 L179.97 616.08 L173.46 614.76 L171.72 611.70 L173.96 607.31 L168.00 605.60 L162.41 603.68 L160.61 600.52 L154.72 598.53 L154.64 594.82 L154.81 591.08 L143.99 590.13 L144.99 586.11 L149.19 581.39 L146.67 578.26 L151.61 573.52 L154.22 569.36 L155.94 565.44 L158.32 561.46 L153.46 558.76 L151.97 555.44 L154.71 551.47 L152.69 548.22 L153.21 544.62 L156.79 540.68 L152.31 537.68 L154.57 533.95 L148.93 530.96 L144.27 527.79 L147.18 524.02 L147.57 520.45 L144.19 517.08 L144.57 513.50 L150.22 509.78 L151.98 506.25 L149.13 502.79 L149.58 499.29 L146.95 495.75 L148.13 492.24 L148.62 488.74 L146.15 485.12 L146.89 481.61 L146.79 478.06 L145.11 474.39 L143.14 470.66 L143.63 467.11 L148.44 464.00 L151.46 460.79 L151.38 457.24 L155.01 454.18 L154.11 450.54 L151.13 446.55 L142.46 441.55 L141.80 437.76 L140.81 433.88 L135.29 429.09 L136.66 425.58 L137.58 421.98 L137.85 418.24 L140.26 415.00 L142.06 411.63 L143.98 408.32 L145.87 405.02 L146.87 401.49 L147.31 397.80 L147.09 393.90 L145.13 389.43 L144.48 385.32 L146.19 381.95 L146.55 378.13 L148.15 374.73 L150.91 371.76 L154.33 369.08 L156.59 366.00 L158.72 362.88 L163.27 360.78 L168.57 359.08 L168.67 355.19 L169.58 351.64 L173.56 349.48 L174.43 345.92 L175.40 342.39 L176.92 339.11 L182.66 337.99 L185.81 335.62 L186.39 331.90 L187.81 328.62 L186.14 323.60 L188.43 320.76 L189.69 317.33 L185.58 310.65 L189.20 308.58 L191.62 305.78 L191.00 301.05 L193.25 298.13 L196.70 296.03 L201.60 294.96 L205.49 293.27 L207.03 289.94 L211.14 288.49 L213.65 285.89 L216.14 283.29 L214.04 277.13 L214.83 273.13 L219.22 271.99 L218.46 266.67 L217.70 261.24 L219.74 258.11 L218.12 251.75 L220.27 248.64 L223.56 246.55 L218.79 236.95 L222.88 235.54 L229.60 236.73 L229.84 231.65 L237.51 234.00 L242.41 233.69 L245.97 232.06 L250.86 231.90 L252.18 227.91 L253.88 224.30 L258.48 223.93 L261.67 222.02 L262.65 217.50 L266.99 216.97 L270.10 214.99 L272.86 212.57 L272.90 206.63 L275.97 204.54 L281.13 205.27 L283.46 202.24 L285.90 199.31 L288.50 196.59 L293.79 197.78 L298.42 198.12 L299.52 193.17 L300.56 188.00 L300.61 181.09 L304.46 180.17 L307.59 178.10 L306.92 169.52 L312.77 172.04 L318.38 174.35 L320.37 170.21 L323.92 168.90 L327.92 168.46 L332.56 169.36 L337.14 170.27 L340.26 168.27 L344.70 169.05 L348.00 167.48 L351.53 166.43 L353.13 160.94 L355.14 156.19 L358.43 154.38 L360.57 149.66 L362.37 143.86 L365.22 140.56 L368.24 137.66 L371.21 134.48 L374.59 132.39 L377.62 129.18 L380.38 124.98 L384.15 123.82 L388.10 123.31 L391.09 119.46 L395.13 119.24 L398.90 118.05 L402.74 117.14 L407.08 118.23 L411.11 118.23 L414.66 116.14 L418.84 116.91 L422.94 117.42 L426.29 114.14 L430.73 116.61 L435.47 121.27 L438.94 118.61 L442.66 117.41 L447.15 121.57 L450.93 120.98 L454.28 116.85 L457.89 114.32 L462.25 119.00 L466.54 124.00 L470.00 119.88 L473.79 119.43 L477.58 118.86 L481.35 117.82 L485.16 117.31 L488.81 111.15 L492.73 112.63 L496.60 112.08 L500.49 107.93 L504.41 107.70 L508.30 109.43 L512.12 112.11 L515.80 117.10 L519.62 117.43 L523.27 120.54 L526.94 122.43 L530.72 122.73 L534.96 117.86 L538.84 117.71 L542.26 121.68 L546.65 117.15 L551.17 112.36 L555.08 112.60 L559.74 107.99 L563.72 108.22 L567.17 111.58 L572.49 104.40 L576.47 105.04 L579.36 110.96 L583.80 109.21 L586.46 115.60 L589.93 118.07 L594.10 117.53 L597.82 118.87 L602.14 117.95 L606.33 117.65 L609.55 120.82 L611.83 126.94 L615.41 128.55 L618.36 132.06 L621.80 133.98 L625.61 134.76 L631.35 130.15 L635.56 130.06 L637.58 135.86 L641.42 136.72 L646.13 135.45 L650.79 134.46 L652.16 141.35 L653.70 147.56 L659.19 144.70 L663.49 144.69 L668.36 143.52 L671.93 145.20 L675.62 146.63 L682.76 141.32 L684.21 147.24 L687.11 150.24 L692.55 148.57 L696.21 150.25 L698.90 153.60 L701.35 157.33 L702.45 163.21 L705.56 165.65 L707.64 169.72 L710.44 172.58 L716.16 170.97 L724.90 165.00 L726.16 170.30 L727.66 175.13 L738.39 166.95 L738.50 173.75 L739.01 179.82 L745.17 178.33 L746.45 183.26 L748.37 187.30 L753.27 187.59 L754.00 193.02 L762.50 189.13 L764.60 192.93 L764.51 199.17 L774.35 194.20 L776.56 197.87 L777.37 203.00 L782.50 203.52 L782.45 209.44 L784.38 213.24 L788.87 214.48 L790.82 218.25 L792.46 222.28 L797.07 223.49 L798.17 227.99 L803.28 228.83 L803.13 234.38 L804.99 238.09 L812.29 237.20 L816.69 238.86 L821.51 240.24 L823.07 244.28 L826.18 247.08 L829.33 249.87 L830.35 254.27 L832.12 258.07 L835.13 260.97 L838.38 263.73 L840.77 267.09 L844.17 269.78 L847.26 272.70 L849.20 276.39 L850.89 280.22 L852.31 284.21 L854.09 287.96 L853.82 292.90 L852.72 298.25 L852.63 302.96 L854.10 306.76 L858.33 309.07 L864.89 310.24 L866.89 313.84 L872.70 315.55 L879.30 316.98 L880.75 320.96 L882.81 324.64 L886.19 327.75 L892.10 329.79 L894.97 333.22 L897.06 336.99 L899.31 340.72 L898.21 345.75 L897.89 350.44 L896.12 355.61 L895.40 360.33 L896.84 364.27 L898.46 368.15 L900.14 372.02 L902.66 375.64 L905.11 379.31 L906.86 383.20 L907.85 387.32 L909.62 391.23 L911.88 395.02 L910.93 399.63 L909.74 404.25 L911.52 408.17 L910.62 412.67 L910.11 417.06 L913.89 420.59 L915.34 424.61 L915.09 428.94 L917.09 432.88 L917.41 437.10 L918.69 441.19 L922.97 444.89 L923.89 449.08 L926.17 453.12 L928.21 457.23 L926.69 461.68 L924.49 466.16 L924.61 470.42 L924.23 474.70 L923.42 479.00 L923.19 483.25 L923.44 487.48 L922.74 491.73 L921.07 495.98 L968.23 500.00 L968.54 495.31 L966.37 490.67 L965.56 486.03 L965.01 481.39 L964.66 476.75 L962.09 472.24 L960.58 467.71 L959.72 463.14 L954.68 458.97 L950.15 454.83 L953.21 449.95 L955.29 445.10 L954.94 440.52 L960.11 435.16 L960.53 430.40 L958.83 425.95 L959.96 421.05 L956.79 416.88 L956.79 412.15 L960.08 406.74 L956.15 402.77 L952.19 398.88 L952.17 394.13 L946.96 390.62 L942.47 387.02 L943.08 382.13 L942.51 377.53 L940.43 373.35 L939.96 368.71 L939.82 363.95 L940.20 358.99 L938.83 354.58 L937.13 350.27 L935.58 345.92 L929.62 343.17 L922.43 340.99 L917.35 338.13 L910.67 335.97 L909.96 331.48 L908.60 327.25 L908.65 322.39 L913.25 315.45 L913.55 310.34 L911.56 306.25 L908.44 302.70 L909.26 297.23 L908.52 292.49 L903.47 289.95 L904.53 284.23 L905.20 278.64 L902.47 274.87 L898.78 271.68 L894.87 268.64 L891.15 265.53 L889.24 261.36 L885.51 258.30 L882.25 254.99 L880.01 251.03 L878.31 246.70 L876.85 242.18 L874.92 237.96 L873.78 233.15 L872.24 228.59 L868.44 225.68 L863.24 223.86 L861.51 219.43 L858.81 215.73 L854.01 213.72 L854.12 207.73 L853.70 202.08 L852.22 197.25 L845.52 196.96 L838.74 196.86 L835.97 193.23 L829.58 192.97 L828.22 188.05 L824.75 185.10 L822.16 181.30 L819.93 177.11 L813.31 177.41 L807.63 176.85 L806.70 171.30 L799.89 172.09 L795.86 169.93 L799.43 159.15 L793.81 158.73 L788.98 157.47 L790.59 148.48 L785.22 147.87 L782.67 143.79 L778.20 142.13 L772.04 142.75 L769.72 138.33 L764.14 138.33 L756.78 140.92 L759.14 129.86 L753.25 130.46 L746.92 131.85 L748.30 121.67 L745.21 118.10 L741.25 115.87 L736.74 114.55 L731.45 114.58 L724.96 116.75 L718.53 119.03 L712.58 120.66 L708.86 118.41 L706.57 113.47 L701.82 113.09 L696.88 113.17 L697.90 101.36 L694.38 98.41 L690.36 96.49 L687.88 91.21 L684.61 87.48 L682.02 82.13 L675.85 84.99 L669.32 89.02 L666.35 84.48 L663.17 80.29 L658.72 79.35 L652.74 82.59 L649.12 79.51 L646.81 72.49 L642.01 72.61 L637.58 71.68 L632.88 71.65 L627.64 73.52 L621.84 77.57 L616.23 81.33 L612.19 79.62 L608.32 77.18 L603.07 80.25 L599.28 77.48 L595.12 76.21 L589.70 80.81 L586.32 75.90 L581.50 78.02 L577.59 75.53 L574.46 68.31 L569.80 69.66 L565.51 68.88 L561.62 65.27 L557.37 63.91 L553.68 57.81 L549.62 53.95 L544.64 58.62 L540.24 58.02 L536.23 52.62 L531.57 54.88 L527.04 55.73 L522.50 57.38 L517.97 59.68 L513.40 65.09 L508.94 70.12 L504.59 74.55 L500.34 74.26 L496.05 70.62 L491.77 71.38 L487.46 70.71 L482.81 61.64 L478.37 60.67 L473.95 60.45 L469.48 59.74 L465.02 59.33 L460.38 56.99 L456.49 62.82 L452.80 69.46 L448.15 67.07 L443.35 64.01 L439.10 65.36 L435.58 71.46 L431.40 72.75 L427.03 72.84 L424.00 80.46 L420.60 85.36 L416.09 84.34 L412.25 86.67 L408.45 89.06 L403.98 88.45 L400.23 90.88 L396.67 93.99 L392.54 94.74 L388.57 96.12 L384.68 97.77 L379.99 96.66 L376.14 98.48 L371.92 99.05 L366.91 97.31 L362.32 97.00 L358.20 98.13 L353.63 98.03 L349.33 98.73 L344.62 98.44 L338.98 95.92 L333.71 94.55 L329.73 96.37 L324.74 95.88 L319.87 95.78 L316.36 98.73 L312.70 101.34 L309.58 104.99 L306.58 108.82 L304.00 113.39 L301.34 117.67 L299.53 123.44 L296.32 126.45 L291.67 126.86 L289.96 132.49 L288.42 138.22 L280.39 132.98 L276.40 134.64 L273.10 137.45 L266.09 134.43 L261.68 135.61 L256.36 135.49 L254.08 139.93 L253.31 146.45 L249.04 147.88 L243.32 147.37 L239.41 149.42 L239.56 156.84 L235.79 159.00 L229.53 158.04 L227.55 162.53 L224.41 165.54 L222.10 169.53 L219.54 173.18 L218.48 178.51 L217.66 184.00 L213.88 186.14 L209.88 188.08 L209.01 193.35 L205.29 195.59 L203.47 199.77 L205.32 207.55 L199.84 208.02 L200.31 214.25 L198.54 218.27 L190.24 216.26 L188.05 219.94 L185.61 223.37 L179.49 223.63 L176.28 226.45 L170.10 226.83 L164.39 227.72 L164.57 233.38 L160.58 235.70 L155.15 236.98 L154.40 241.83 L151.55 245.09 L151.68 250.49 L151.32 255.47 L151.52 260.78 L151.82 266.07 L152.57 271.58 L150.85 275.42 L146.50 277.59 L145.09 281.63 L142.49 284.93 L134.36 284.98 L131.27 288.10 L128.33 291.32 L125.02 294.37 L124.09 298.72 L119.72 301.25 L120.93 306.69 L123.46 312.70 L119.41 315.41 L113.99 317.52 L112.72 321.64 L115.53 327.57 L115.53 332.17 L114.00 336.08 L117.56 342.08 L118.72 347.01 L117.18 350.81 L115.34 354.51 L114.16 358.46 L114.93 363.10 L115.29 367.54 L113.92 371.38 L114.65 375.88 L113.07 379.63 L110.08 382.97 L108.29 386.69 L107.29 390.64 L104.52 394.12 L102.68 397.87 L101.96 401.92 L100.70 405.83 L101.25 410.16 L101.72 414.45 L101.85 418.63 L103.43 423.08 L97.22 426.04 L95.05 429.82 L95.42 434.05 L86.82 436.88 L83.93 440.69 L82.38 444.72 L84.53 449.23 L86.19 453.63 L89.18 458.12 L92.43 462.56 L95.32 466.91 L93.51 470.85 L90.71 474.76 L89.86 478.82 L88.87 482.89 L84.06 486.85 L84.75 491.03 L85.95 495.20 L82.52 499.34 L84.31 503.49 L82.18 507.69 L84.05 511.82 L90.17 515.75 L90.59 519.83 L86.73 524.17 L87.11 528.29 L91.82 532.07 L87.72 536.54 L83.31 541.14 L87.29 544.92 L84.67 549.41 L89.14 553.05 L91.98 556.84 L91.17 561.12 L95.19 564.67 L95.34 568.80 L92.95 573.40 L97.64 576.72 L101.07 580.21 L106.21 583.28 L112.89 585.92 L111.07 590.41 L115.91 593.34 L119.02 596.63 L111.25 602.75 L113.15 606.40 L115.86 609.80 L112.88 614.85 L113.28 618.95 L110.08 624.22 L107.16 629.49 L113.24 631.79 L114.20 635.78 L111.27 641.20 L115.79 643.92 L117.73 647.57 L122.51 650.08 L125.34 653.31 L129.61 655.90 L136.47 657.31 L142.56 658.94 L145.28 662.00 L143.09 667.33 L145.49 670.55 L146.91 674.24 L140.28 682.01 L141.52 685.90 L143.77 689.28 L142.25 694.70 L144.61 698.05 L144.61 702.73 L149.21 704.78 L157.08 704.81 L158.63 708.55 L156.47 714.61 L159.80 717.29 L165.95 718.10 L166.60 722.46 L164.24 728.92 L167.96 731.28 L169.54 735.12 L174.36 736.64 L178.42 738.64 L183.66 739.69 L192.21 738.09 L200.72 736.33 L201.19 740.85 L204.37 743.20 L209.30 744.06 L203.48 754.04 L204.98 757.93 L210.50 758.25 L205.40 768.14 L210.29 769.03 L214.35 770.64 L215.40 775.09 L218.91 777.19 L220.09 781.60 L222.98 784.33 L223.77 789.24 L223.09 795.82 L227.92 796.55 L230.37 799.85 L231.69 804.45 L235.95 805.72 L239.20 808.14 L244.32 808.28 L248.50 809.50 L253.35 809.80 L258.75 809.31 L263.12 810.06 L265.07 813.96 L266.62 818.48 L269.34 821.47 L271.53 825.23 L273.66 829.15 L277.54 830.55 L281.93 831.12 L283.58 835.87 L288.79 835.10 L291.25 838.67 L295.13 839.92 L302.01 836.07 L305.85 837.22 L306.82 843.44 L310.89 844.20 L316.25 842.53 L319.25 845.18 L319.89 852.48 L323.87 853.38 L326.87 856.23 L332.36 853.89 L336.24 854.84 L340.99 853.79 L347.54 848.50 L352.38 846.84 L353.91 852.99 L358.76 851.19 L358.91 861.19 L362.67 862.21 L366.50 863.03 L368.91 867.78 L373.52 866.39 L375.59 872.43 L380.13 871.17 L383.61 873.09 L388.21 871.38 L392.20 871.54 L396.25 871.41 L398.77 876.92 L401.52 881.87 L406.16 879.53 L410.00 880.30 L412.79 885.66 L417.31 883.48 L421.20 884.00 L425.97 880.03 L429.87 880.22 L434.12 878.38 L439.05 872.00 L443.52 867.75 L447.42 866.77 L450.52 871.55 L454.26 871.82 L457.99 872.25 L460.77 881.83 L464.46 883.58 L468.34 883.46 L471.81 888.76 L475.78 887.64 L479.61 888.78 L483.52 888.63 L487.64 881.52 L491.47 880.83 L495.21 886.61 L499.08 884.22 L502.91 881.69 L506.78 884.98 L510.80 891.17 L514.58 887.46 L518.60 890.41 L522.27 886.14 L525.98 883.63 L529.95 885.11 L533.49 881.24 L537.11 878.96 L541.25 881.81 L544.85 879.55 L547.84 872.88 L551.95 875.12 L555.60 873.94 L558.16 865.93 L563.31 874.18 L566.67 871.41 L569.79 867.63 L574.15 870.35 L577.43 867.60 L581.53 868.73 L585.52 869.23 L589.89 871.16 L594.69 874.56 L597.85 871.38 L601.34 869.60 L606.04 872.11 L609.36 869.69 L611.90 864.83 L615.73 864.27 L619.16 862.48 L620.65 855.01 L623.88 852.87 L626.09 848.01 L628.17 842.99 L631.20 840.68 L636.41 843.92 L637.79 837.49 L639.98 833.31 L646.35 838.94 L649.44 836.80 L653.25 836.27 L658.39 838.53 L660.37 834.03 L664.98 835.01 L667.97 832.63 L669.56 827.61 L673.28 826.75 L677.46 826.69 L680.40 824.33 L682.22 820.02 L686.83 820.62 L687.44 814.40 L689.38 810.55 L694.96 812.63 L697.43 809.64 L698.87 805.12 L704.32 806.75 L707.10 804.27 L709.06 800.65 L711.62 797.93 L717.05 799.19 L718.26 794.61 L718.21 788.47 L721.89 787.32 L723.37 783.32 L725.44 780.15 L730.29 780.39 L731.94 776.71 L737.81 778.02 L740.35 775.36 L740.57 770.11 L741.72 766.00 L744.43 763.64 L748.57 762.79 L748.36 757.35 L751.95 755.91 L752.83 751.71 L752.91 746.81 L758.84 747.59 L760.01 743.77 L759.48 738.45 L765.22 738.88 L765.84 734.66 L765.99 730.10 L765.78 725.32 L773.14 726.90 L773.04 722.24 L772.13 717.01 L778.13 717.28 L780.87 714.93 L783.54 712.51 L788.52 711.77 L791.66 709.62 L795.50 707.94 L797.41 704.86 L796.75 700.07 L794.88 694.54 L798.74 692.83 L801.63 690.44 L799.55 684.97 L806.00 684.75 L805.00 680.01 L804.85 675.84 L811.21 675.38 L811.15 671.27 L810.57 666.93 L815.72 665.65 L815.22 661.39 L816.53 658.08 L816.22 653.99 L820.62 652.19 L821.26 648.58 L819.86 644.06 L822.60 641.43 L822.91 637.74 L821.52 633.36 L823.21 630.29 L824.77 627.16 L824.90 623.48 L825.30 619.92 L823.98 615.77 L823.98 612.13 L824.97 608.84 L833.21 607.91 L834.74 604.72 L842.25 603.32 L849.26 601.64 L850.32 598.16 L851.78 594.78 L852.15 591.12 L847.06 586.10 L846.41 582.27 L844.09 578.10 L840.59 573.73 L839.70 569.99 L845.77 567.64 L840.23 563.03 L837.72 559.08 L849.59 557.56 L851.31 554.24 L850.16 550.48 L857.57 547.91 L858.64 544.40 L862.27 541.18 L859.02 537.18 L856.63 533.33 L860.26 530.04 L859.80 526.38 L857.24 522.60 L855.49 518.92 L859.41 515.53 L859.14 511.92 L857.20 508.28 L859.00 504.73 L858.91 501.14 L854.61 497.58 L852.73 494.07 L849.70 490.62 L847.25 487.21 L845.56 483.81 L850.12 480.09 L846.48 476.82 L840.58 473.79 L841.37 470.29 L838.37 467.14 L834.82 464.10 L839.48 460.16 L840.24 456.62 L844.66 452.55 L848.22 448.51 L846.68 445.18 L847.50 441.49 L848.35 437.76 L847.20 434.37 L845.55 431.10 L846.69 427.26 L846.71 423.63 L843.71 420.68 L843.95 416.99 L843.40 413.48 L837.71 411.31 L833.26 408.91 L829.36 406.43 L825.61 403.96 L820.90 401.85 L826.03 396.71 L823.13 394.06 L822.60 390.65 L829.69 384.56 L830.10 380.70 L827.05 378.09 L829.83 373.28 L828.50 370.00 L829.05 365.97 L824.56 363.99 L821.64 361.42 L823.43 356.80 L820.29 354.34 L816.97 352.01 L814.02 349.54 L811.46 346.92 L807.23 345.16 L803.50 343.22 L804.43 338.86 L802.40 336.04 L799.29 333.84 L799.74 329.64 L794.80 328.53 L791.68 326.42 L787.47 325.01 L783.10 323.76 L780.75 321.31 L778.24 318.97 L774.39 317.54 L770.53 316.19 L767.36 314.40 L764.18 312.66 L761.24 310.79 L758.66 308.69 L756.08 306.61 L753.60 304.47 L751.26 302.24 L748.91 300.03 L747.39 297.14 L747.09 293.22 L743.89 291.72 L745.57 286.00 L743.00 283.92 L741.30 281.07 L741.68 276.29 L735.60 277.50 L736.12 272.50 L734.40 269.59 L727.76 271.60 L729.43 265.27 L725.26 264.87 L722.64 262.91 L720.42 260.52 L714.58 262.14 L713.60 258.41 L710.16 257.45 L706.21 257.15 L705.53 252.98 L703.17 250.80 L701.77 247.39 L699.84 244.62 L697.99 241.70 L695.26 239.91 L691.37 239.71 L690.47 235.43 L685.11 237.38 L684.60 232.46 L681.46 231.31 L677.69 231.13 L677.18 225.99 L671.11 229.48 L670.67 224.11 L669.03 220.55 L662.69 224.84 L659.95 223.20 L657.49 221.05 L653.74 221.22 L650.10 221.28 L646.97 220.42 L645.20 216.95 L642.80 214.63 L639.68 213.76 L636.32 213.41 L633.11 212.78 L630.08 211.80 L627.17 210.57 L624.28 209.27 L621.60 207.50 L618.17 207.54 L615.94 204.57 L611.96 206.11 L610.24 201.69 L607.11 201.00 L603.94 200.44 L602.57 194.57 L597.58 199.50 L595.49 195.59 L592.95 193.00 L587.91 198.79 L586.60 191.86 L582.95 193.10 L579.78 192.67 L577.01 190.66 L572.49 195.86 L570.07 192.42 L566.66 193.27 L562.87 196.08 L560.48 192.14 L557.43 191.41 L554.60 189.37 L551.67 187.76 L548.67 186.42 L545.48 186.29 L542.01 188.31 L539.41 183.76 L535.74 187.82 L533.01 183.70 L529.83 183.54 L526.41 186.25 L523.61 181.45 L520.06 186.90 L517.11 183.26 L514.06 180.55 L510.65 186.61 L507.51 186.88 L504.40 185.16 L501.25 187.16 L498.13 188.76 L495.02 188.94 L491.84 186.61 L488.68 185.97 L485.56 186.34 L482.49 187.75 L479.43 188.84 L476.39 190.02 L473.27 190.06 L470.16 190.20 L467.02 190.12 L464.01 191.19 L460.43 187.69 L457.48 189.33 L454.11 187.93 L450.81 187.28 L447.89 188.99 L444.17 186.10 L441.77 190.58 L438.34 189.46 L435.13 189.59 L433.21 195.65 L429.26 192.38 L426.99 196.44 L424.40 198.92 L420.99 198.15 L419.51 204.60 L415.92 203.16 L413.41 205.54 L411.71 210.49 L407.87 208.39 L404.90 209.16 L401.65 209.08 L398.45 209.25 L395.36 209.76 L392.61 211.22 L390.94 215.47 L386.24 211.86 L385.03 217.11 L380.98 215.34 L377.80 215.76 L376.73 220.99 L371.66 217.19 L371.60 224.42 L367.58 223.06 L363.09 220.88 L363.37 228.35 L361.16 230.70 L357.75 230.73 L356.45 234.73 L354.88 238.11 L352.71 240.35 L348.95 239.82 L345.49 239.90 L342.95 241.53 L340.91 243.99 L338.57 245.93 L335.75 247.11 L333.11 248.59 L330.77 250.51 L327.82 251.55 L326.24 254.54 L321.43 253.02 L319.72 255.84 L316.31 256.37 L312.61 256.56 L311.04 259.52 L306.10 258.25 L306.57 263.72 L303.64 264.98 L300.35 265.84 L301.88 272.29 L296.95 271.28 L296.69 275.55 L296.09 279.37 L292.01 279.42 L294.58 286.46 L291.03 287.08 L289.45 289.71 L291.54 295.92 L286.73 295.35 L283.87 296.72 L281.45 298.52 L278.62 299.97 L275.97 301.60 L274.27 304.10 L275.38 308.96 L269.13 307.60 L270.25 312.39 L266.80 313.42 L263.33 314.50 L265.30 319.80 L258.80 318.62 L262.31 324.95 L259.09 326.27 L253.62 326.04 L257.15 332.15 L257.03 335.63 L253.19 336.61 L254.54 341.01 L257.76 346.51 L257.35 349.63 L255.57 351.89 L254.99 354.87 L254.80 358.05 L250.63 358.95 L249.80 361.76 L249.00 364.57 L243.28 364.78 L243.06 367.94 L244.12 371.70 L233.99 369.93 L231.65 372.10 L228.38 373.85 L218.87 372.84 L215.81 374.86 L214.54 377.70 L212.60 380.25 L216.31 385.12 L216.94 388.65 L215.31 391.28 L221.56 396.85 L216.59 398.22 L217.49 401.72 L220.83 406.00 L212.84 406.50 L215.35 410.46 L210.86 412.21 L208.90 414.78 L206.20 417.18 L204.11 419.77 L203.81 422.86 L201.68 425.48 L205.52 429.56 L201.68 431.79 L200.84 434.74 L203.28 438.37 L202.09 441.23 L199.76 443.88 L196.39 446.39 L196.21 449.48 L198.25 452.92 L196.19 455.70 L203.01 459.73 L204.00 462.87 L202.03 465.65 L211.60 469.67 L210.27 472.46 L210.05 475.36 L215.04 478.65 L209.82 481.18 L213.73 484.30 L214.34 487.20 L207.18 489.81 L204.98 492.69 L207.16 495.67 L203.62 498.58 L199.74 501.57 L201.17 504.55 L198.99 507.59 L196.25 510.70 L198.79 513.63 L200.56 516.55 L198.59 519.69 L196.99 522.84 L198.59 525.75 L199.77 528.67 L197.68 531.93 L204.57 534.19 L208.73 536.67 L207.70 539.77 L216.67 541.44 L213.53 544.83 L215.25 547.48 L219.15 549.72 L210.85 554.18 L213.55 556.64 L211.38 560.08 L210.42 563.30 L210.02 566.44 L210.04 569.49 L212.53 571.94 L211.74 575.21 L217.12 576.84 L214.22 580.70 L214.69 583.66 L218.60 585.57 L218.90 588.56 L217.85 592.01 L216.58 595.57 L217.74 598.33 L221.25 600.24 L220.39 603.72 L227.93 604.03 L231.46 605.77 L230.22 609.39 L240.23 608.37 L243.03 610.23 L241.87 613.80 L246.68 614.72 L248.20 617.08 L245.29 621.54 L245.45 624.60 L241.24 629.89 L240.87 633.33 L244.81 634.55 L245.09 637.68 L247.70 639.55 L249.39 641.90 L249.54 645.14 L249.07 648.79 L249.08 652.20 L251.44 654.19 L251.31 657.73 L252.37 660.56 L255.50 662.02 L258.66 663.42 L257.68 667.65 L263.26 667.31 L268.67 666.98 L268.68 670.52 L277.00 667.85 L276.91 671.44 L279.59 672.92 L285.15 672.05 L279.93 679.87 L284.75 679.55 L284.22 683.68 L284.33 687.34 L284.98 690.58 L285.75 693.76 L288.35 695.29 L289.12 698.53 L294.67 697.21 L294.70 701.16 L296.14 703.78 L299.74 704.24 L302.07 705.94 L302.98 709.14 L303.36 712.96 L305.19 715.26 L309.43 714.85 L310.27 718.27 L316.20 715.76 L320.69 714.80 L321.03 718.81 L328.73 713.72 L331.85 714.19 L333.30 716.76 L338.81 714.00 L337.97 719.65 L342.53 718.00 L345.33 718.69 L343.59 725.92 L344.39 729.63 L348.44 728.54 L349.20 732.40 L349.10 737.74 L352.02 738.37 L353.32 741.63 L354.33 745.46 L357.44 745.80 L361.31 744.73 L362.84 747.79 L364.23 751.17 L367.22 751.61 L370.46 751.54 L371.71 755.35 L376.62 751.83 L381.76 747.57 L382.72 752.00 L388.92 745.05 L391.18 746.59 L393.03 749.13 L397.07 746.48 L396.26 755.58 L399.56 754.74 L401.28 757.91 L402.96 761.30 L405.25 763.17 L407.66 764.75 L410.92 763.86 L413.09 766.20 L417.25 762.33 L419.12 765.63 L421.38 767.78 L424.60 766.67 L427.46 766.71 L429.72 768.97 L431.83 771.97 L434.39 773.33 L437.81 770.99 L440.12 773.43 L443.98 768.66 L447.64 764.32 L449.52 768.87 L453.79 760.48 L457.13 756.53 L459.05 761.08 L462.17 758.00 L464.94 757.00 L466.74 763.48 L469.35 763.97 L471.48 769.15 L473.87 772.55 L476.89 769.36 L479.49 770.83 L482.32 769.19 L485.01 769.47 L487.65 770.86 L490.28 773.18 L492.95 775.79 L495.72 774.95 L498.46 776.15 L501.23 777.64 L503.99 776.38 L506.69 774.03 L509.53 776.82 L512.12 772.54 L514.52 766.55 L517.42 770.03 L519.47 761.06 L521.98 759.76 L524.78 761.65 L526.81 755.78 L530.38 764.31 L532.55 760.24 L535.43 761.99 L538.64 765.71 L541.43 766.12 L544.28 766.86 L546.83 765.76 L549.82 767.06 L551.53 761.69 L554.46 762.70 L557.51 764.07 L559.78 761.88 L562.07 759.89 L565.06 760.85 L568.42 763.10 L571.28 763.24 L573.05 759.47 L576.21 760.69 L577.75 756.40 L578.73 750.59 L582.45 753.52 L583.15 747.23 L584.52 743.23 L587.66 744.38 L588.74 739.80 L592.40 742.21 L593.18 737.13 L594.37 733.27 L598.83 737.44 L602.08 738.50 L603.10 734.38 L605.73 733.97 L610.65 738.47 L613.07 737.44 L616.27 738.00 L619.44 738.43 L621.86 737.29 L622.90 733.54 L626.17 734.05 L629.64 734.82 L631.71 733.05 L632.97 729.86 L636.68 730.92 L636.54 725.51 L634.99 718.00 L639.69 720.63 L637.03 711.72 L637.88 708.44 L642.05 710.15 L641.45 704.80 L648.24 710.11 L649.57 707.57 L652.46 707.17 L656.90 708.80 L659.43 707.81 L661.51 706.22 L662.82 703.65 L666.30 703.80 L665.55 698.78 L668.22 697.94 L671.71 698.00 L673.22 695.74 L673.42 692.06 L676.10 691.16 L680.44 691.98 L682.89 690.73 L682.22 686.27 L685.49 685.85 L684.93 681.62 L682.36 675.55 L687.15 676.59 L684.96 671.06 L682.94 665.83 L687.03 666.16 L686.64 662.51 L686.80 659.38 L691.63 660.22 L691.81 657.14 L695.51 656.93 L700.90 657.98 L699.37 653.57 L702.35 652.67 L703.09 650.07 L704.41 647.91 L706.44 646.25 L710.59 646.05 L714.27 645.45 L714.34 642.39 L715.98 640.38 L719.60 639.63 L719.62 636.58 L718.48 632.87 L722.54 632.30 L720.62 628.19 L715.81 622.53 L721.20 622.68 L715.00 616.44 L713.28 612.77 L718.24 612.61 L713.52 607.49 L721.94 608.96 L720.58 605.56 L722.59 603.80 L728.71 603.89 L729.79 601.62 L731.52 599.63 L732.22 597.19 L735.74 595.91 L731.69 591.56 L733.04 589.42 L736.34 587.98 L736.04 585.19 L734.77 582.09 L736.92 580.19 L741.45 579.04 L742.92 576.84 L740.19 573.35 L742.89 571.52 L740.47 568.20 L734.42 563.96 L740.12 562.95 L735.93 559.33 L731.98 555.88 L735.12 554.15 L732.92 551.20 L735.36 549.27 L732.70 546.29 L729.72 543.32 L735.11 541.90 L737.65 539.91 L735.65 537.15 L736.41 534.85 L743.61 533.43 L744.10 531.01 L745.35 528.68 L747.29 526.40 L747.76 523.95 L744.73 521.19 L746.45 518.86 L749.87 516.61 L748.95 514.05 L746.55 511.44 L750.06 509.10 L745.83 506.48 L737.59 503.89 L742.90 501.55 L734.65 499.15 L729.94 496.87 L735.84 494.43 L730.52 492.24 L736.92 489.66 L737.43 487.25 L738.03 484.83 L742.54 482.11 L742.57 479.67 L742.61 477.22 L741.51 474.88 L744.62 472.08 L739.70 470.21 L739.90 467.75 L743.20 464.83 L741.66 462.58 L738.11 460.69 L738.31 458.20 L742.13 455.03 L741.57 452.63 L736.70 451.12 L738.66 448.23 L735.13 446.52 L727.58 445.84 L732.24 442.27 L727.05 441.15 L720.44 440.50 L723.55 437.26 L720.26 435.80 L718.25 434.01 L721.37 430.64 L718.63 429.09 L719.75 426.29 L725.18 421.96 L720.79 420.99 L720.88 418.46 L719.41 416.50 L718.56 414.32 L717.61 412.17 L719.59 408.80 L720.46 405.85 L716.81 404.83 L711.57 404.60 L710.35 402.60 L701.16 404.40 L701.54 401.74 L697.66 401.18 L690.46 402.38 L695.98 397.06 L692.30 396.53 L685.78 397.63 L685.93 395.11 L684.22 393.63 L689.39 388.11 L687.34 386.77 L681.29 387.94 L684.22 383.57 L683.29 381.58 L682.47 379.50 L676.67 380.78 L678.07 377.23 L677.44 375.02 L672.06 376.22 L666.66 377.56 L666.33 375.22 L669.52 370.16 L669.57 367.41 L664.17 368.96 L668.78 362.49 L665.61 362.31 L666.97 358.33 L663.21 358.68 L656.37 361.84 L659.93 355.83 L656.28 356.26 L652.05 357.32 L656.78 349.90 L652.38 351.16 L651.30 349.23 L651.06 346.43 L645.22 349.38 L646.83 344.64 L642.68 345.98 L637.75 348.28 L640.92 341.63 L636.83 343.10 L631.85 345.72 L629.56 345.30 L626.93 345.32 L625.58 343.80 L625.24 341.00 L624.81 338.24 L622.27 338.21 L621.99 335.18 L621.69 332.11 L617.81 333.98 L618.65 329.21 L615.03 330.84 L613.63 329.25 L612.47 327.27 L609.09 328.74 L610.69 322.34 L607.67 323.26 L604.79 324.06 L606.94 316.29 L603.31 318.38 L599.54 320.85 L600.43 314.92 L596.53 317.79 L592.02 322.02 L591.33 318.94 L589.51 318.04 L586.86 318.87 L583.99 320.28 L583.61 316.31 L582.16 314.62 L579.41 315.88 L577.56 315.10 L576.24 313.02 L574.29 312.47 L570.78 315.96 L570.18 311.94 L567.40 313.73 L564.91 314.85 L563.55 312.74 L561.34 313.14 L560.43 309.51 L558.25 309.77 L556.03 310.27 L554.78 307.46 L552.62 307.77 L550.07 309.61 L548.67 307.12 L546.53 307.49 L544.78 306.29 L543.55 302.62 L541.42 302.93 L539.61 301.73 L537.31 302.99 L535.43 302.12 L533.45 301.74 L531.78 299.46 L529.81 298.87 L529.13 289.00 L527.34 286.17 L525.45 283.81 L522.95 286.70 L520.88 285.83 L518.90 283.74 L516.06 292.31 L513.54 298.67 L511.95 291.12 L509.54 297.79 L507.67 293.66 L505.56 295.44 L503.42 300.84 L501.52 288.34 L499.40 289.95 L497.38 295.83 L495.17 288.30 L493.02 287.36 L490.92 288.25 L489.07 293.40 L486.96 292.81 L484.50 287.59 L482.62 290.69 L480.76 293.35 L478.60 292.68 L475.77 286.21 L473.79 287.73 L471.66 287.94 L469.91 290.78 L467.82 291.07 L465.48 289.87 L464.81 298.44 L464.02 305.43 L460.77 299.11 L460.53 308.08 L457.75 304.51 L456.40 307.61 L455.90 314.04 L451.74 305.19 L450.61 308.85 L450.28 315.21 L446.62 309.23 L444.62 309.44 L443.57 312.82 L440.40 309.24 L438.23 309.04 L435.13 306.08 L432.48 304.67 L430.84 306.23 L429.01 307.21 L425.03 302.54 L423.69 304.91 L421.91 306.09 L420.81 308.90 L418.92 309.74 L416.51 309.39 L417.82 317.36 L418.97 324.63 L414.20 319.08 L415.59 326.51 L412.49 324.62 L411.86 327.70 L412.84 333.72 L406.97 326.78 L406.85 330.64 L408.42 337.36 L403.61 332.75 L401.50 332.98 L401.30 336.40 L397.50 333.88 L395.43 334.26 L391.42 331.65 L388.64 331.07 L387.36 332.80 L385.81 334.10 L381.09 330.89 L380.02 332.94 L378.64 334.54 L377.86 336.92 L376.57 338.59 L374.51 339.26 L376.10 344.52 L378.31 350.38 L373.89 348.07 L377.29 355.14 L373.90 354.13 L374.44 357.65 L377.46 363.85 L370.23 358.68 L370.70 362.00 L373.55 367.71 L368.02 364.66 L366.27 365.58 L367.03 368.99 L363.01 367.71 L361.03 368.46 L357.06 367.38 L354.21 367.42 L353.35 369.30 L352.26 370.96 L347.03 369.06 L346.28 371.05 L345.23 372.80 L345.56 375.63 L344.45 377.28 L342.55 378.32 L346.78 384.01 L350.72 389.33 L344.48 387.09 L348.33 392.19 L345.97 392.81 L346.22 395.25 L349.80 399.88 L342.35 397.17 L344.76 400.94 L348.43 405.40 L342.21 403.70 L340.58 404.88 L341.40 407.51 L337.25 407.25 L335.68 408.53 L331.89 408.60 L329.79 409.66 L329.06 411.45 L328.71 413.43 L323.72 413.11 L323.14 415.01 L322.49 416.87 L323.81 419.63 L323.78 421.73 L322.15 423.13 L327.88 427.64 L333.22 431.84 L326.36 431.06 L333.20 435.70 L330.71 436.67 L330.73 438.60 L335.34 442.13 L326.80 441.07 L328.83 443.66 L333.77 447.12 L327.91 447.15 L326.62 448.64 L329.00 451.20 L325.25 452.02 L323.84 453.52 L319.92 454.41 L317.33 455.69 L317.15 457.58 L317.36 459.55 L312.26 460.38 L312.26 462.34 L312.15 464.27 L314.28 466.59 L318.09 469.15 L317.34 470.90 L322.67 473.57 L332.45 476.74 L323.30 477.26 L328.61 479.69 L325.55 481.09 L326.27 482.93 L331.83 485.17 L322.69 486.15 L325.66 488.13 L331.29 490.21 L325.24 491.61 L323.95 493.31 L326.66 495.15 L323.32 496.83 L322.43 498.59 L318.89 500.37 L316.58 502.21 L316.79 504.04 L317.90 505.84 L313.45 507.85 L313.31 509.72 L313.84 511.56 L316.24 513.26 L317.25 515.03 L316.83 516.91 L324.72 517.95 L331.38 518.97 L324.52 521.52 L332.70 522.22 L332.00 524.02 L332.02 525.74 L337.89 526.50 L329.64 529.60 L332.65 530.80 L338.42 531.42 L333.07 534.19 L332.25 536.11 L335.31 537.18 L332.55 539.57 L331.95 541.49 L329.13 544.00 L327.22 546.34 L327.62 548.09 L329.34 549.45 L325.82 552.37 L325.73 554.30 L326.90 555.84 L329.46 556.90 L330.80 558.34 L331.22 560.09 L338.18 559.44 L344.79 558.78 L338.93 562.85 L345.84 561.94 L346.03 563.66 L346.54 565.25 L352.57 564.44 L345.85 569.22 L350.05 569.14 L355.71 568.29 L350.79 572.45 L350.91 574.25 L353.28 574.91 L351.37 577.76 L350.99 579.87 L349.28 582.74 L348.14 585.35 L349.29 586.70 L351.23 587.57 L348.90 590.99 L349.19 592.89 L350.58 594.10 L353.25 594.48 L355.68 594.97 L357.35 595.93 L363.32 593.92 L370.46 590.93 L365.92 596.13 L371.57 594.04 L371.82 595.85 L372.02 597.71 L377.71 595.31 L372.23 601.65 L375.53 601.07 L380.97 598.65 L377.46 603.64 L377.96 605.33 L380.60 605.15 L379.35 608.41 L379.32 610.64 L378.18 613.95 L377.05 617.34 L378.45 618.34 L380.61 618.59 L379.35 622.26 L379.47 624.61 L381.42 625.07 L383.66 625.19 L385.52 625.69 L386.71 626.90 L391.94 623.52 L397.68 619.34 L394.83 625.17 L399.88 621.61 L401.36 622.28 L402.07 623.92 L406.87 620.30 L403.70 627.00 L406.90 625.37 L411.56 621.62 L409.67 626.87 L410.10 628.96 L412.72 627.92 L412.40 631.19 L412.58 633.80 L412.50 636.89 L412.16 640.49 L413.79 641.00 L416.04 640.46 L415.80 644.12 L416.31 646.59 L418.38 646.33 L420.38 646.17 L422.74 645.28 L424.99 644.51 L428.43 641.33 L433.46 634.72 L432.61 639.96 L435.99 636.40 L437.43 636.88 L437.97 639.37 L441.58 634.86 L440.20 641.93 L442.12 641.31 L444.96 638.30 L444.82 642.80 L445.79 644.57 L447.78 643.61 L448.64 645.77 L449.73 647.36 L450.31 650.56 L450.74 654.45 L452.50 654.24 L454.56 652.97 L455.15 656.70 L456.30 658.66 L458.34 657.38 L460.12 657.01 L461.89 656.58 L463.50 656.75 L466.16 652.21 L469.24 645.20 L469.63 650.78 L472.06 646.25 L473.77 645.18 L475.00 646.72 L477.41 641.11 L477.88 647.58 L479.66 645.63 L481.85 640.19 L482.72 644.83 L483.91 647.38 L485.65 644.86 L486.86 647.61 L488.15 650.09 L489.49 652.56 L490.78 656.73 L492.72 649.28 L494.28 647.55 L495.76 647.23 L497.39 639.03 L498.83 633.76 L500.17 634.29 L501.49 632.16 L502.78 630.95 L504.14 632.49 L505.42 631.45 L506.72 630.94 L508.07 631.54 L509.28 630.06 L510.47 628.64 L511.86 629.58 L513.26 630.50 L514.54 630.20 L516.01 631.44 L517.30 631.09 L518.47 629.89 L519.84 630.18 L520.99 629.07 L521.87 626.49 L523.35 627.39 L524.57 626.93 L525.75 626.22 L527.41 627.84 L528.65 627.36 L530.34 628.84 L531.33 627.34 L532.70 627.41 L534.47 628.93 L535.65 628.21 L536.78 627.30 L538.05 626.94 L539.39 626.79 L540.29 625.23 L540.69 622.27 L541.39 620.35 L542.86 620.69 L544.15 620.48 L544.98 619.06 L546.44 619.30 L547.60 618.75 L549.61 620.26 L550.73 619.58 L551.43 617.94 L552.74 617.71 L553.74 616.80 L554.00 614.32 L554.87 613.24 L556.63 613.94 L557.50 612.85 L559.28 613.53 L559.85 611.87 L561.08 611.47 L561.75 610.07 L561.56 607.21 L563.50 608.08 L563.59 605.79 L563.93 603.98 L565.30 603.87 L565.63 602.12 L565.57 599.81 L567.49 600.52 L569.05 600.66 L569.94 599.81 L571.62 600.06 L572.74 599.51 L573.13 597.96 L574.22 597.39 L574.80 596.13 L574.26 593.50 L575.81 593.51 L576.60 592.58 L577.05 591.24 L577.88 590.38 L579.19 590.07 L579.96 589.13 L579.50 586.85 L581.49 587.26 L583.51 587.65 L585.07 587.51 L585.37 586.08 L586.46 585.46 L587.49 584.76 L587.05 582.66 L585.64 579.71 L584.61 577.18 L586.84 577.65 L588.27 577.35 L588.88 576.33 L589.93 575.67 L591.18 575.18 L594.02 575.96 L594.20 574.56 L593.83 572.75 L597.18 573.81 L597.44 572.48 L595.53 569.59 L596.71 568.97 L595.66 566.79 L594.82 564.81 L593.86 562.79 L593.89 561.45 L594.00 560.19 L594.04 558.90 L594.49 557.88 L594.49 556.58 L594.94 555.57 L595.04 554.36 L595.31 553.25 L595.55 552.15 L595.69 550.98 L596.05 549.95 L596.16 548.79 L596.49 547.75 L596.66 546.64 L596.89 545.56 L597.10 544.48 L597.25 543.38 L597.51 542.33 L597.62 541.22 L597.85 540.17 L598.00 539.09 L598.17 538.03 L598.35 536.97 L598.47 535.90 L598.66 534.85 L598.77 533.78 L598.93 532.74 L599.04 531.68 L599.15 530.62 L599.27 529.57 L599.34 528.52 L599.45 527.48 L599.51 526.43 L599.59 525.38 L599.65 524.34 L599.69 523.30 L599.74 522.26 L599.76 521.22 L599.79 520.18 L599.79 519.15 L599.80 518.11 L599.78 517.08 L599.76 516.05 L599.73 515.03 L599.69 514.00 L599.65 512.98 L599.59 511.96 L599.52 510.95 L599.44 509.93 L599.35 508.92 L599.25 507.91 L599.14 506.91 L599.02 505.90 L598.88 504.90 L598.74 503.91 L598.59 502.91 L598.42 501.92 L598.25 500.94 Z"/>
  <svg class="pausebutton" id="pausebutton">
    <circle cx="500" cy="500" id="pausestart" class="pausestart" r="52.65"/>
    <rect height="50.02" width="10.00" y="473.68" rx="2.00" ry="2.00" x="479.99" class="pausesymbol"/>
    <rect height="50.02" width="10.00" y="473.68" rx="2.00" ry="2.00" x="510.00" class="pausesymbol"/>
    <polygon points="530.01,500 479.99,530.01 479.99,469.99" class="playsymbol"/>
  </svg>
  <polygon id="playback-head" class="playback-head" points="941.65,500 921.65,540 961.65,540"/>
</svg>