<?xml-stylesheet href="../../style/waveformjs.css" type="text/css"?>
<svg xmlns="http://www.w3.org/2000/svg" xmlns:xlink="http://www.w3.org/1999/xlink" width="100%" height="100%" viewBox="0 0 1000 1000">
  <path class="svg-wave" id="sp" d="M598.05 500.00 L598.22 500.98 L598.39 501.97 L598.54 502.96 L598.69 503.95 L598.82 504.95 L598.95 505.94 L599.06 506.95 L599.17 507.95 L599.26 508.96 L599.34 509.97 L599.42 510.98 L599.48 512.00 L599.53 513.01 L599.57 514.03 L599.60 515.05 L599.61 516.08 L599.62 517.10 L599.61 518.13 L599.58 519.15 L599.55 520.18 L599.50 521.21 L599.44 522.24 L599.36 523.26 L599.27 524.29 L599.16 525.32 L599.03 526.35 L598.89 527.37 L598.71 528.38 L598.52 529.40 L598.32 530.41 L598.08 531.42 L597.81 532.41 L597.52 533.40 L597.21 534.39 L596.85 535.35 L596.45 536.31 L596.03 537.25 L595.55 538.16 L595.02 539.06 L594.45 539.93 L593.80 540.77 L593.11 541.58 L592.40 542.38 L591.55 543.10 L590.55 543.74 L589.52 544.35 L588.17 544.79 L586.24 544.90 L583.40 544.49 L580.06 543.74 L578.29 543.79 L575.57 543.27 L573.89 543.29 L573.65 544.15 L573.02 544.77 L572.73 545.60 L571.75 545.99 L573.25 547.99 L573.02 548.89 L572.12 549.34 L574.47 552.05 L574.91 553.48 L574.69 554.46 L575.69 556.35 L575.57 557.45 L578.46 560.89 L576.40 560.53 L579.15 564.00 L577.72 564.15 L575.18 563.32 L576.80 566.01 L573.90 564.82 L569.77 562.44 L570.29 564.18 L567.80 563.16 L565.95 562.68 L564.98 563.01 L565.24 564.54 L566.04 566.65 L564.89 566.81 L563.58 566.79 L562.57 567.05 L560.58 566.24 L558.49 565.25 L557.89 565.90 L556.38 565.49 L556.46 566.92 L557.45 569.50 L556.44 569.68 L556.45 571.14 L556.44 572.60 L555.74 573.20 L553.25 571.41 L553.19 572.83 L552.83 573.87 L552.91 575.58 L554.86 580.05 L554.99 581.99 L556.12 585.51 L557.70 589.87 L555.51 588.39 L554.23 588.30 L553.12 588.45 L551.87 588.36 L549.64 586.54 L548.63 586.77 L547.27 586.36 L545.57 585.26 L543.28 582.97 L541.86 582.24 L540.97 582.52 L541.50 585.74 L541.66 588.31 L542.45 592.36 L543.36 596.89 L543.19 599.15 L543.09 601.69 L540.95 599.41 L540.79 601.89 L538.50 599.04 L537.98 600.65 L537.80 603.30 L535.10 598.97 L534.95 601.78 L535.08 605.58 L533.02 602.79 L533.30 607.34 L531.48 605.19 L531.18 608.12 L529.84 607.50 L528.70 607.54 L528.24 610.22 L526.46 607.74 L525.56 608.78 L524.47 609.04 L522.55 605.38 L520.97 603.05 L519.85 602.76 L518.63 601.91 L517.43 601.04 L516.44 601.37 L515.79 603.89 L514.74 603.96 L513.64 603.71 L512.46 602.65 L511.29 601.45 L510.05 599.32 L508.99 598.77 L507.97 598.39 L506.92 597.54 L506.14 600.84 L505.15 601.38 L504.15 601.65 L503.16 602.43 L502.16 603.92 L501.10 601.89 L500.08 600.45 L499.06 602.12 L498.01 603.36 L496.89 606.55 L495.71 609.36 L494.49 611.95 L493.02 617.70 L491.92 616.59 L490.91 614.54 L489.73 614.77 L488.69 613.64 L487.80 611.27 L486.80 610.23 L485.80 609.31 L484.93 607.56 L484.23 604.88 L483.53 602.60 L482.61 601.79 L481.49 602.21 L480.28 603.00 L479.63 600.91 L478.39 601.78 L478.27 597.53 L478.74 591.11 L478.07 589.91 L476.70 591.55 L475.61 591.99 L473.90 594.62 L469.76 605.48 L468.43 606.11 L467.41 605.66 L465.54 607.88 L465.47 604.49 L465.75 600.24 L465.15 598.76 L463.68 599.75 L462.77 599.15 L460.55 601.95 L455.53 611.59 L454.59 610.73 L452.55 612.47 L450.12 615.02 L450.73 610.57 L451.90 605.09 L450.06 606.31 L449.71 604.31 L449.73 601.66 L449.80 599.03 L449.48 597.24 L450.63 592.75 L450.63 590.54 L448.26 592.68 L449.37 588.59 L449.73 585.95 L445.63 590.86 L443.55 592.24 L444.41 588.82 L442.32 590.15 L437.99 594.82 L437.33 593.77 L435.61 594.28 L433.79 594.90 L433.52 593.27 L435.01 589.29 L433.82 589.04 L434.74 585.98 L433.72 585.54 L427.57 591.57 L427.62 589.65 L424.38 591.77 L416.77 598.97 L417.29 596.38 L416.46 595.40 L415.90 594.12 L415.92 592.23 L416.04 590.27 L415.83 588.70 L415.85 586.92 L417.03 584.00 L418.57 580.81 L420.23 577.59 L422.33 574.05 L421.27 573.57 L417.76 575.33 L418.46 573.20 L418.30 571.88 L418.50 570.27 L419.38 568.12 L417.70 568.14 L413.86 569.89 L413.07 569.10 L403.72 574.97 L395.55 579.67 L398.15 576.08 L394.42 577.24 L396.04 574.47 L401.41 569.14 L402.10 567.21 L402.62 565.43 L401.59 564.70 L399.26 564.80 L392.04 567.92 L390.06 567.65 L386.20 568.46 L383.05 568.77 L384.50 566.38 L387.82 562.98 L386.55 562.21 L388.17 559.88 L389.47 557.77 L390.35 555.92 L391.76 553.84 L394.36 551.24 L396.88 548.75 L395.39 548.18 L395.15 547.03 L398.44 544.33 L394.63 544.75 L391.20 544.92 L390.96 543.75 L390.91 542.51 L384.63 543.64 L383.27 542.82 L381.83 542.01 L380.70 541.08 L380.31 539.87 L382.50 537.85 L384.22 536.02 L388.31 533.52 L388.19 532.34 L381.86 532.90 L379.98 532.13 L377.17 531.57 L363.40 533.66 L364.56 531.94 L365.25 530.36 L365.24 528.95 L365.69 527.45 L368.12 525.58 L368.28 524.19 L369.05 522.69 L370.83 521.06 L374.18 519.22 L377.07 517.52 L381.16 515.73 L382.09 514.41 L378.16 513.65 L380.70 512.16 L381.09 510.92 L379.00 509.89 L384.44 508.29 L384.43 507.13 L379.51 506.22 L380.28 504.98 L375.01 503.95 L363.43 502.95 L363.05 501.59 L362.32 500.22 L362.11 498.84 L365.33 497.52 L370.70 496.33 L371.76 495.07 L367.32 493.57 L370.00 492.40 L366.92 490.88 L360.05 489.00 L356.73 487.30 L357.19 485.90 L358.36 484.58 L360.12 483.36 L362.65 482.27 L363.92 481.04 L364.34 479.72 L367.43 478.82 L368.81 477.69 L371.54 476.83 L375.82 476.32 L372.55 474.37 L365.52 471.56 L367.22 470.53 L360.30 467.53 L351.88 464.00 L355.92 463.45 L362.28 463.60 L369.33 464.06 L370.79 463.07 L371.12 461.77 L375.28 461.64 L371.59 459.09 L369.57 457.01 L374.13 457.11 L375.91 456.33 L380.85 456.72 L376.83 453.86 L371.89 450.55 L373.95 449.88 L365.32 444.89 L359.69 440.94 L362.38 440.44 L365.44 440.17 L370.11 440.68 L373.61 440.74 L373.67 439.22 L376.69 439.15 L378.91 438.73 L378.01 436.74 L379.17 435.80 L384.46 437.12 L386.70 436.86 L384.38 434.05 L384.66 432.67 L386.53 432.23 L386.59 430.72 L390.30 431.47 L391.31 430.57 L389.68 427.97 L389.38 426.19 L387.99 423.63 L377.32 414.55 L377.26 412.67 L379.88 412.71 L378.74 410.02 L383.18 411.49 L387.92 413.30 L389.89 413.05 L390.39 411.65 L391.67 410.88 L389.87 407.54 L382.99 399.75 L383.93 398.52 L383.20 395.80 L381.85 392.47 L385.90 394.04 L390.93 396.67 L390.51 394.17 L392.94 394.42 L395.71 395.08 L398.33 395.65 L400.44 395.75 L404.47 397.95 L407.02 398.66 L406.30 395.80 L409.26 397.04 L412.29 398.45 L409.52 393.10 L409.01 390.29 L411.97 391.67 L412.04 389.52 L408.97 383.29 L410.49 382.84 L410.84 380.85 L411.21 378.83 L412.90 378.61 L416.40 380.99 L417.40 379.89 L420.41 381.74 L421.63 381.01 L418.66 373.76 L420.83 374.39 L420.12 370.40 L415.60 359.95 L418.24 361.22 L418.97 359.26 L420.45 358.57 L422.74 359.38 L425.03 360.25 L426.66 359.95 L428.94 360.94 L431.75 363.07 L434.60 365.43 L437.38 367.80 L440.46 371.00 L441.71 370.30 L441.65 366.62 L444.07 368.59 L445.48 368.27 L446.98 368.18 L449.46 370.62 L450.57 369.62 L450.66 365.83 L451.69 364.47 L450.63 356.98 L449.44 348.65 L450.75 347.51 L452.11 346.50 L453.73 346.29 L456.57 350.32 L459.19 353.90 L460.52 353.02 L461.71 351.52 L462.89 349.92 L463.36 345.17 L464.15 341.44 L464.62 335.92 L466.39 336.23 L468.12 336.32 L469.54 334.83 L470.94 333.09 L472.89 334.50 L474.16 331.77 L476.18 333.82 L478.57 339.04 L480.82 344.08 L482.85 348.09 L484.23 346.48 L485.80 346.70 L487.75 351.61 L488.83 346.01 L489.93 338.86 L491.46 337.16 L493.11 337.67 L494.52 330.98 L496.19 329.82 L497.92 332.34 L499.61 335.83 L501.24 337.60 L502.82 339.99 L504.33 343.19 L505.82 345.33 L507.29 346.94 L509.20 340.56 L510.88 339.33 L512.62 337.75 L515.24 326.54 L517.02 326.21 L518.49 328.89 L519.87 331.84 L521.05 335.94 L522.25 339.36 L523.96 338.89 L525.24 341.18 L526.67 342.37 L528.29 342.39 L529.63 343.95 L530.28 348.76 L531.77 349.16 L534.04 346.05 L535.30 347.59 L536.56 349.02 L538.50 347.72 L538.70 353.12 L540.28 353.10 L543.29 348.10 L544.21 350.55 L547.82 344.08 L554.32 329.02 L554.44 334.39 L556.36 334.16 L558.66 332.90 L557.68 340.80 L558.03 344.70 L558.84 347.22 L561.29 345.49 L562.09 347.91 L565.58 343.84 L570.17 337.50 L572.42 336.79 L575.02 335.38 L577.03 335.35 L577.00 339.62 L576.81 344.03 L578.51 344.53 L579.56 346.28 L580.03 349.09 L580.50 351.80 L580.77 354.79 L580.08 359.36 L580.82 361.30 L582.48 361.65 L580.78 367.54 L581.94 368.61 L586.25 364.72 L588.51 364.20 L589.08 366.26 L593.02 363.33 L597.68 359.53 L598.97 360.66 L600.84 360.99 L603.29 360.58 L603.33 363.40 L602.97 366.67 L603.89 368.22 L603.48 371.41 L605.51 371.53 L611.64 366.82 L613.36 367.47 L617.77 365.08 L624.00 360.77 L623.89 363.67 L625.57 364.56 L626.23 366.56 L626.11 369.32 L626.59 371.43 L627.23 373.33 L627.35 375.73 L626.47 379.03 L625.22 382.60 L623.50 386.51 L622.57 389.60 L624.89 389.75 L627.43 389.77 L627.32 392.07 L628.74 393.06 L626.80 396.79 L627.28 398.50 L630.04 398.41 L633.35 397.95 L639.28 395.61 L651.51 388.79 L656.21 387.73 L658.29 388.61 L658.35 390.92 L655.48 395.18 L650.01 401.03 L648.40 404.21 L649.84 405.39 L649.50 407.69 L654.47 406.74 L662.15 404.30 L666.63 403.89 L671.37 403.43 L672.26 405.18 L674.28 406.33 L674.90 408.24 L674.23 410.80 L675.33 412.44 L674.54 415.00 L670.47 419.08 L667.42 422.57 L662.18 426.95 L660.68 429.55 L664.89 429.67 L661.78 432.90 L659.45 435.72 L669.97 433.45 L675.02 433.48 L674.88 435.53 L678.54 436.20 L693.21 433.13 L694.18 434.96 L694.14 437.13 L693.04 439.61 L691.35 442.23 L689.54 444.84 L683.83 448.49 L677.47 452.18 L677.84 453.99 L684.54 454.22 L682.09 456.75 L685.72 457.85 L698.55 457.02 L700.15 458.76 L698.50 461.17 L698.71 463.19 L701.96 464.67 L700.39 467.01 L698.00 469.43 L700.23 471.13 L696.33 473.70 L691.73 476.26 L687.30 478.71 L681.42 481.21 L680.75 483.11 L684.68 484.60 L681.75 486.67 L685.71 488.25 L693.15 489.72 L692.97 491.66 L693.60 493.57 L693.14 495.52 L692.78 497.46 L691.14 499.39 L685.93 501.27 L682.30 503.07 L682.61 504.90 L683.53 506.76 L677.08 508.30 L678.50 510.15 L686.49 512.48 L692.77 514.84 L691.94 516.71 L700.06 519.43 L711.19 522.64 L710.90 524.75 L708.71 526.61 L705.37 528.27 L700.82 529.70 L693.69 530.63 L687.94 531.65 L687.17 533.44 L687.89 535.51 L682.60 536.41 L682.12 538.21 L682.53 540.21 L681.48 541.88 L680.64 543.60 L677.69 544.77 L681.57 547.68 L684.86 550.53 L683.35 552.09 L682.99 553.97 L685.66 556.78 L685.41 558.74 L684.18 560.39 L681.99 561.69 L679.81 562.96 L676.85 563.92 L675.61 565.46 L670.61 565.55 L671.29 567.79 L678.02 572.52 L680.21 575.52 L680.74 577.87 L690.57 584.38 L692.22 587.42 L690.15 588.78 L689.15 590.63 L686.97 591.89 L683.24 592.35 L679.65 592.80 L673.60 591.89 L668.64 591.43 L667.44 592.96 L662.86 592.56 L658.37 592.11 L662.19 596.52 L667.40 601.90 L668.24 604.74 L671.39 609.09 L682.94 619.03 L682.05 621.05 L681.53 623.34 L678.72 624.07 L675.56 624.49 L671.25 624.03 L664.91 621.96 L657.76 619.14 L654.99 619.50 L654.91 621.92 L648.85 619.59 L645.62 619.41 L649.15 624.81 L650.04 628.13 L647.41 628.46 L648.27 631.84 L654.05 639.77 L655.22 643.68 L655.63 646.98 L654.89 649.24 L652.38 649.79 L647.57 647.99 L641.89 645.17 L639.34 645.44 L640.82 649.95 L634.62 646.26 L632.01 646.33 L632.36 649.70 L629.21 649.13 L629.15 652.10 L624.82 650.02 L623.95 652.03 L626.71 658.64 L625.01 659.76 L622.60 659.94 L622.92 663.74 L622.01 665.95 L619.85 666.48 L617.62 666.87 L615.65 667.61 L612.03 665.88 L609.96 666.39 L606.47 664.67 L603.55 663.72 L605.26 670.16 L607.47 677.68 L605.23 677.96 L606.91 685.01 L609.74 694.37 L607.11 694.22 L605.03 695.03 L602.74 695.44 L599.71 694.38 L597.38 694.60 L595.21 695.11 L591.72 692.82 L588.60 691.17 L585.61 689.67 L581.55 685.61 L578.62 683.91 L577.36 686.10 L576.43 689.15 L573.77 687.96 L571.98 688.95 L568.96 686.61 L566.71 686.23 L565.78 689.57 L565.20 694.15 L564.46 698.50 L567.16 714.08 L566.87 720.88 L564.18 719.89 L561.90 720.25 L558.32 715.76 L554.26 709.01 L551.11 705.30 L549.05 705.80 L546.71 705.07 L545.81 710.81 L545.31 719.06 L544.01 724.02 L542.57 728.74 L540.23 728.91 L537.61 727.29 L535.17 726.61 L532.91 727.02 L530.46 726.00 L528.22 726.45 L525.53 723.04 L522.76 718.09 L520.03 712.51 L517.65 709.68 L515.76 712.64 L513.43 709.65 L511.13 705.98 L509.51 716.03 L507.52 721.13 L505.29 720.59 L503.11 722.63 L500.94 735.45 L498.57 736.81 L496.19 737.95 L493.86 735.84 L491.50 735.96 L489.28 732.85 L487.29 726.70 L485.50 719.29 L483.42 717.66 L480.73 723.49 L478.68 721.37 L476.09 724.68 L472.14 739.08 L469.83 738.15 L467.64 736.47 L465.45 734.92 L463.16 734.19 L460.96 733.00 L459.04 730.29 L456.62 730.51 L454.42 729.52 L453.31 723.41 L451.98 718.83 L451.15 712.42 L449.19 711.26 L445.28 717.93 L443.60 715.47 L439.87 720.67 L433.95 733.17 L431.40 733.26 L428.74 733.65 L426.23 733.50 L423.72 733.29 L421.26 732.92 L418.79 732.51 L416.35 732.02 L413.93 731.47 L411.50 730.88 L409.11 730.23 L406.72 729.52 L404.37 728.72 L402.07 727.80 L399.75 726.91 L397.46 725.95 L395.19 724.96 L392.88 724.03 L390.56 723.11 L388.27 722.13 L386.02 721.07 L383.80 719.96 L381.58 718.83 L379.39 717.66 L377.20 716.47 L375.02 715.27 L372.86 714.03 L370.70 712.80 L368.56 711.52 L366.45 710.20 L364.28 708.96 L362.10 707.74 L360.02 706.36 L358.04 704.84 L356.09 703.29 L354.18 701.68 L352.30 700.03 L350.37 698.46 L348.53 696.78 L346.71 695.08 L344.77 693.53 L342.93 691.86 L341.21 690.05 L339.23 688.56 L337.18 687.14 L335.61 685.18 L334.33 682.89 L332.63 681.10 L331.38 678.83 L330.52 676.18 L328.70 674.54 L327.48 672.30 L327.26 669.11 L326.09 666.88 L325.15 664.46 L326.01 660.40 L326.39 656.87 L326.37 653.76 L327.02 650.13 L325.04 648.80 L319.82 650.16 L318.39 648.30 L314.91 648.08 L309.92 648.98 L309.21 646.48 L308.78 643.80 L308.37 641.13 L306.80 639.33 L305.32 637.46 L303.13 636.07 L302.20 633.81 L302.09 631.02 L303.70 627.15 L306.92 622.34 L310.42 617.48 L309.21 615.61 L300.41 618.23 L300.24 615.65 L295.08 615.91 L280.74 621.15 L283.84 616.63 L288.86 611.21 L290.82 607.52 L286.97 606.81 L290.85 602.27 L290.35 599.93 L282.79 600.88 L283.09 598.11 L283.42 595.36 L284.54 592.31 L286.89 588.79 L284.64 587.21 L277.64 587.47 L280.81 583.70 L278.67 581.99 L274.45 581.00 L274.52 578.44 L268.05 578.10 L272.20 574.17 L268.95 572.68 L262.20 572.20 L263.22 569.31 L263.63 566.63 L266.31 563.36 L269.38 560.06 L269.65 557.54 L272.78 554.35 L269.93 552.60 L263.24 551.65 L264.78 548.85 L259.93 547.36 L258.69 545.10 L261.48 542.12 L259.24 540.03 L264.94 536.67 L266.51 534.04 L258.79 532.71 L261.33 529.94 L261.99 527.44 L260.47 525.19 L261.60 522.66 L264.54 520.01 L266.66 517.48 L263.16 515.36 L259.11 513.21 L259.19 510.79 L255.77 508.50 L254.42 506.09 L260.62 503.54 L263.62 501.13 L259.21 498.74 L260.57 496.36 L257.51 493.88 L245.21 491.02 L249.58 488.67 L250.85 486.23 L256.99 484.13 L264.94 482.28 L266.42 480.05 L262.21 477.29 L259.15 474.56 L257.59 471.94 L242.45 467.58 L240.75 464.73 L242.81 462.38 L239.38 459.22 L242.91 457.13 L248.14 455.41 L245.77 452.36 L249.04 450.37 L253.06 448.60 L254.05 446.23 L255.62 444.01 L259.92 442.46 L262.94 440.67 L263.17 438.21 L264.22 435.96 L265.32 433.73 L262.18 430.27 L262.37 427.74 L265.69 426.18 L264.50 423.20 L262.27 419.84 L265.11 418.17 L262.80 414.70 L261.94 411.69 L263.12 409.42 L267.17 408.29 L268.17 406.00 L272.19 404.97 L273.35 402.78 L269.53 398.39 L269.39 395.57 L268.53 392.38 L259.25 385.12 L262.38 383.68 L263.30 381.18 L264.73 378.94 L266.23 376.74 L270.06 375.80 L271.56 373.65 L274.03 372.05 L277.03 370.78 L281.50 370.44 L285.39 369.83 L290.52 370.06 L292.27 368.25 L289.98 363.83 L294.33 363.71 L296.31 362.07 L296.71 359.36 L301.84 359.96 L303.36 358.06 L300.95 353.27 L302.49 351.34 L299.05 345.58 L292.72 337.39 L293.59 334.71 L294.74 332.23 L296.64 330.37 L301.13 330.71 L306.43 331.85 L308.71 330.45 L307.59 325.99 L309.41 324.14 L306.80 318.12 L303.42 311.19 L300.76 304.77 L301.96 302.03 L306.32 302.48 L312.06 304.45 L317.68 306.46 L323.35 308.69 L331.02 313.28 L332.23 310.85 L333.75 308.74 L339.67 311.79 L340.69 309.15 L337.95 301.87 L338.81 298.86 L343.82 301.06 L344.98 298.42 L343.28 291.94 L343.58 287.96 L346.18 287.05 L346.47 282.92 L345.28 276.53 L349.08 277.29 L354.96 281.29 L359.61 283.63 L362.45 283.29 L366.03 284.20 L369.35 284.78 L370.33 281.49 L368.48 273.24 L369.15 269.11 L371.37 267.63 L368.61 256.95 L369.42 252.56 L373.07 253.53 L376.78 254.74 L381.12 257.36 L385.54 260.35 L388.78 261.02 L393.90 265.93 L397.36 267.39 L398.53 263.69 L401.44 263.98 L405.31 266.70 L405.99 261.58 L406.78 256.46 L409.31 255.78 L412.21 256.16 L414.27 254.20 L418.14 257.52 L420.65 256.97 L421.96 252.62 L424.32 251.46 L425.40 245.91 L423.40 229.11 L426.68 230.44 L429.60 230.56 L431.41 226.32 L435.80 232.54 L439.56 236.61 L442.67 238.19 L445.18 237.11 L447.88 236.93 L449.87 232.98 L450.59 221.47 L453.47 221.54 L455.86 218.57 L458.26 215.33 L461.93 220.91 L465.53 226.95 L468.44 228.15 L471.90 234.86 L474.83 237.50 L477.26 234.90 L480.29 239.71 L483.02 241.43 L485.28 235.41 L487.78 232.13 L490.63 236.76 L493.32 238.82 L495.83 232.49 L498.49 229.99 L501.18 234.00 L503.88 230.91 L506.71 225.40 L509.43 226.25 L512.12 227.45 L514.63 231.49 L517.21 233.25 L519.88 233.36 L522.23 237.37 L524.80 238.13 L528.11 231.76 L531.77 223.56 L534.40 224.97 L537.69 221.34 L541.93 211.70 L544.38 214.92 L547.23 215.34 L549.93 216.66 L552.22 220.08 L554.34 224.02 L556.00 229.91 L557.61 235.45 L559.87 237.73 L562.37 238.83 L563.75 244.40 L566.68 243.59 L571.15 237.24 L575.70 231.11 L578.78 230.55 L584.04 222.87 L589.82 214.12 L592.78 214.70 L596.33 213.57 L599.22 214.45 L601.86 216.04 L604.29 218.18 L605.93 222.29 L607.36 226.80 L607.73 233.70 L607.41 241.96 L606.89 250.27 L607.88 254.76 L612.03 252.08 L616.39 249.14 L619.05 250.01 L626.29 241.49 L629.91 240.69 L629.09 248.63 L628.40 256.01 L629.01 260.68 L631.46 261.88 L634.27 262.44 L637.07 263.05 L642.91 258.55 L646.15 258.61 L647.00 262.61 L646.67 268.34 L648.41 270.70 L654.03 267.16 L658.69 265.24 L662.80 264.28 L674.37 252.85 L679.46 250.97 L682.02 252.66 L684.25 254.81 L684.79 259.14 L684.12 264.92 L684.83 268.82 L685.10 273.16 L685.25 277.55 L685.63 281.58 L685.83 285.73 L686.36 289.40 L687.87 291.93 L694.39 288.99 L696.59 290.84 L700.93 290.46 L711.51 283.80 L712.21 287.38 L713.18 290.64 L713.30 294.67 L712.84 299.17 L712.50 303.47 L713.88 306.13 L714.16 309.74 L716.31 311.67 L717.55 314.37 L718.86 317.01 L717.02 322.21 L716.56 326.17 L717.15 329.24 L719.84 330.65 L724.56 330.57 L730.88 329.40 L739.04 327.04 L746.89 325.09 L751.95 325.27 L754.72 327.09 L755.43 330.32 L756.45 333.31 L755.32 337.65 L753.09 342.60 L749.58 348.23 L745.71 353.92 L742.56 359.06 L745.48 360.63 L754.94 358.61 L756.16 361.27 L765.82 359.45 L781.98 354.50 L783.29 357.39 L784.25 360.45 L783.22 364.46 L780.96 368.97 L781.08 372.33 L780.57 375.93 L778.33 380.23 L778.78 383.32 L777.57 387.08 L773.90 391.75 L771.33 395.89 L774.26 397.90 L780.99 398.58 L780.31 401.99 L787.29 402.76 L795.22 403.36 L792.87 407.35 L790.80 411.20 L788.70 414.99 L786.77 418.67 L785.38 422.13 L784.76 425.35 L784.10 428.55 L783.92 431.61 L783.44 434.72 L781.89 438.04 L782.70 440.82 L788.04 442.70 L794.34 444.50 L796.14 447.22 L803.22 449.08 L807.29 451.55 L805.83 454.91 L806.64 457.92 L805.64 461.17 L804.05 464.46 L807.39 467.18 L807.19 470.30 L803.70 473.70 L801.99 476.89 L799.16 480.12 L793.91 483.41 L791.47 486.47 L793.94 489.30 L793.67 492.25 L790.81 495.24 L795.73 498.12 L796.69 501.08 L793.19 504.00 L788.30 506.81 L791.39 509.80 L795.49 512.90 L796.59 515.92 L797.56 518.96 L805.33 522.52 L803.23 525.42 L797.59 527.94 L791.54 530.32 L790.23 533.12 L797.28 536.94 L798.03 540.06 L800.83 543.51 L817.10 549.10 L815.57 552.10 L813.11 554.92 L812.19 557.98 L812.30 561.24 L814.36 564.91 L815.36 568.41 L814.48 571.52 L815.83 575.16 L811.72 577.48 L805.13 579.09 L798.29 580.51 L797.34 583.45 L800.67 587.64 L799.29 590.50 L802.47 594.77 L814.10 601.87 L812.97 604.98 L812.13 608.18 L809.99 610.92 L808.49 613.88 L806.84 616.77 L802.78 618.70 L796.78 619.79 L795.30 622.64 L789.99 623.85 L783.13 624.28 L778.93 625.78 L778.96 629.16 L784.42 635.16 L780.78 636.89 L782.86 641.43 L790.51 648.90 L787.42 650.96 L783.49 652.53 L778.47 653.44 L773.85 654.49 L771.09 656.52 L767.30 657.92 L764.91 660.11 L763.80 663.06 L761.30 665.14 L757.29 666.24 L753.44 667.37 L754.77 671.92 L758.16 678.00 L757.50 681.37 L762.22 688.64 L769.21 697.79 L769.02 701.82 L767.81 705.13 L766.13 708.09 L764.31 710.97 L762.28 713.68 L760.06 716.23 L757.70 718.67 L755.42 721.16 L753.53 724.00 L751.01 726.28 L748.75 728.79 L746.78 731.58 L744.24 733.83 L741.57 735.95 L739.03 738.19 L736.38 740.31 L733.57 742.24 L730.40 743.79 L727.16 745.23 L722.81 745.41 L719.28 746.42 L716.11 747.81 L712.01 748.08 L709.33 749.96 L707.30 752.62 L705.71 755.86 L703.19 757.97 L700.03 759.25 L696.02 759.37 L692.34 759.86 L687.87 759.21 L684.49 759.98 L681.18 760.79 L678.98 763.21 L677.96 767.43 L675.27 769.19 L672.84 771.35 L670.80 774.15 L668.31 776.27 L663.88 775.16 L661.21 776.93 L659.04 779.60 L656.41 781.49 L655.92 787.34 L654.44 791.53 L652.64 795.24 L651.26 799.88 L647.76 800.36 L644.00 800.28 L641.28 802.31 L637.59 802.26 L633.75 801.80 L631.54 805.00 L627.41 803.76 L623.10 801.89 L619.28 801.11 L615.78 801.04 L612.22 800.72 L609.73 803.27 L607.93 807.90 L604.60 808.23 L602.64 812.70 L600.36 816.38 L596.70 815.78 L593.42 816.31 L590.35 817.59 L587.14 818.37 L583.60 817.87 L579.60 815.45 L575.30 811.51 L572.13 812.04 L569.68 815.80 L565.19 810.15 L561.80 809.39 L560.28 818.28 L558.54 826.95 L554.66 823.95 L551.94 827.76 L550.47 840.48 L546.87 839.59 L543.20 837.90 L539.71 837.41 L536.04 835.02 L532.17 830.08 L528.45 825.61 L525.00 823.27 L521.93 826.03 L518.43 822.00 L515.14 820.66 L512.00 822.81 L508.87 826.46 L505.73 834.03 L502.38 832.61 L499.03 841.13 L495.48 852.22 L491.97 851.63 L488.44 852.11 L485.05 848.91 L481.68 846.50 L478.41 843.20 L475.55 835.11 L472.48 831.53 L469.52 827.35 L466.65 823.20 L463.75 819.90 L460.59 819.20 L456.49 825.62 L452.38 831.11 L449.09 830.50 L444.52 837.69 L439.93 844.10 L436.94 841.07 L434.06 837.72 L431.55 832.81 L429.20 827.63 L426.42 824.72 L424.57 818.11 L422.22 813.96 L418.39 815.87 L415.37 814.55 L413.39 809.54 L409.31 812.05 L404.31 817.39 L400.30 819.09 L396.45 820.13 L390.63 826.92 L385.05 832.52 L382.14 830.21 L378.60 829.66 L376.05 826.50 L374.35 821.24 L371.83 818.29 L371.61 809.85 L369.67 805.83 L365.85 806.29 L364.42 801.32 L362.92 796.68 L357.13 801.25 L351.78 804.63 L348.42 803.78 L344.65 803.69 L334.53 815.65 L332.01 812.81 L329.50 810.00 L324.74 811.26 L323.96 805.45 L324.60 797.42 L323.09 793.24 L322.27 788.05 L319.10 786.73 L317.72 782.61 L316.22 778.79 L311.51 779.79 L310.05 775.97 L305.87 776.09 L304.82 771.76 L302.51 769.26 L295.05 773.65 L292.51 771.34 L290.85 767.91 L286.56 767.85 L282.62 767.27 L280.47 764.46 L277.83 762.26 L276.05 759.06 L275.41 754.61 L273.50 751.66 L272.54 747.69 L273.13 742.15 L267.28 743.47 L258.48 747.67 L257.20 744.05 L251.21 745.11 L240.47 750.64 L239.57 746.52 L236.87 744.13 L234.85 741.12 L234.46 736.67 L235.17 731.32 L236.14 725.86 L238.57 719.29 L238.63 714.83 L235.85 712.72 L238.34 706.43 L236.04 704.00 L227.64 706.18 L218.82 708.46 L216.35 705.93 L207.92 707.62 L195.01 712.24 L193.33 708.89 L190.80 706.11 L190.15 702.10 L189.14 698.36 L184.85 696.69 L184.52 692.54 L184.25 688.39 L182.10 685.39 L184.18 679.97 L188.64 673.33 L192.06 667.41 L191.25 663.88 L189.15 661.03 L191.75 655.79 L191.74 651.95 L192.55 647.74 L192.82 643.85 L189.96 641.43 L184.89 639.95 L180.45 638.11 L168.23 639.48 L161.52 638.33 L159.04 635.38 L159.92 631.11 L163.99 625.69 L167.64 620.56 L170.37 615.85 L168.19 612.90 L167.33 609.49 L171.13 604.61 L164.91 602.91 L156.86 601.64 L153.82 598.78 L152.95 595.29 L143.62 594.03 L137.02 591.90 L133.99 588.78 L134.96 584.69 L135.49 580.73 L135.45 576.92 L139.88 572.24 L146.59 567.22 L148.88 563.16 L144.72 560.24 L142.91 556.88 L141.08 553.50 L128.18 551.63 L124.22 548.35 L125.04 544.44 L125.64 540.58 L126.98 536.66 L127.77 532.83 L127.69 529.09 L128.13 525.31 L127.73 521.60 L132.08 517.66 L136.71 513.80 L142.78 509.99 L145.97 506.36 L143.36 502.84 L146.25 499.28 L148.51 495.77 L146.13 492.20 L152.45 488.86 L151.82 485.36 L145.11 481.52 L145.18 477.96 L137.74 473.86 L119.44 468.71 L121.66 465.08 L121.33 461.23 L125.45 457.86 L132.01 454.87 L139.44 452.11 L142.79 448.92 L139.86 444.82 L142.24 441.52 L137.68 437.05 L129.63 431.83 L126.48 427.37 L125.16 423.22 L126.88 419.68 L128.10 416.04 L128.78 412.28 L133.02 409.40 L132.53 405.37 L134.89 402.08 L141.56 400.01 L146.69 397.62 L153.47 395.82 L155.41 392.64 L152.91 388.04 L160.29 386.65 L161.31 383.22 L153.50 376.64 L149.10 371.10 L153.43 368.74 L150.13 363.48 L141.74 356.06 L140.64 351.43 L143.88 348.58 L147.20 345.81 L148.40 342.13 L153.99 340.46 L161.98 340.03 L168.47 339.02 L169.11 335.22 L166.30 329.64 L169.34 327.00 L164.64 320.25 L157.58 312.03 L160.31 309.08 L162.75 305.99 L166.86 303.90 L169.46 300.95 L171.05 297.40 L175.95 295.92 L177.03 292.06 L180.99 290.06 L187.83 290.06 L194.05 289.77 L201.16 290.22 L206.72 289.72 L212.21 289.27 L212.55 285.07 L211.44 279.71 L210.77 274.58 L207.51 267.30 L205.95 261.22 L204.79 255.34 L204.21 249.83 L204.62 245.06 L205.73 240.84 L207.17 236.87 L208.99 233.19 L211.11 229.77 L213.43 226.52 L216.02 223.51 L218.85 220.74 L221.63 217.91 L224.71 215.39 L228.13 213.24 L231.24 210.78 L233.85 207.79 L236.88 205.25 L240.20 203.05 L243.79 201.17 L247.02 198.89 L250.03 196.37 L255.66 197.08 L260.34 196.72 L265.62 197.23 L273.00 200.62 L278.27 201.42 L282.18 200.48 L288.89 203.51 L292.88 202.87 L292.11 195.32 L298.71 198.56 L300.66 194.92 L295.55 180.16 L299.05 178.60 L299.99 172.86 L295.35 157.63 L298.80 155.62 L301.81 152.85 L305.60 151.45 L308.39 148.23 L312.14 146.74 L315.98 145.47 L318.83 142.24 L322.42 140.46 L326.23 139.12 L330.04 137.82 L334.26 137.43 L337.85 135.68 L342.28 135.88 L345.77 133.94 L348.95 131.22 L353.79 132.62 L356.26 128.03 L361.17 129.77 L366.62 133.20 L371.43 135.09 L376.97 139.34 L381.44 140.75 L384.79 138.79 L390.39 144.09 L394.94 146.32 L398.53 145.49 L402.66 146.59 L405.36 142.45 L406.87 133.36 L409.42 127.87 L410.82 116.99 L412.18 104.98 L416.22 104.52 L420.12 103.43 L424.09 102.61 L428.11 102.11 L432.16 101.85 L436.15 101.20 L440.12 100.42 L444.15 100.09 L448.19 99.87 L452.14 98.91 L456.13 98.27 L460.17 98.02 L464.17 97.42 L468.22 97.37 L472.25 97.07 L476.34 97.89 L480.52 100.77 L484.68 105.03 L488.73 108.28 L492.72 111.78 L496.64 116.56 L500.47 120.19 L504.27 120.58 L507.96 125.50 L511.71 125.41 L515.35 128.01 L518.99 129.78 L523.35 119.20 L527.63 112.88 L531.72 110.46 L536.99 95.69 L541.72 89.28 L545.77 90.23 L549.91 90.37 L554.12 90.02 L558.13 91.16 L562.15 92.17 L566.33 92.19 L570.51 92.24 L574.49 93.52 L578.45 94.79 L582.49 95.64 L586.49 96.68 L590.33 98.38 L594.16 100.09 L598.10 101.28 L602.03 102.47 L605.79 104.30 L609.36 106.74 L612.45 110.77 L615.01 116.32 L616.86 123.87 L618.86 130.51 L621.52 134.81 L624.85 136.97 L629.03 136.68 L634.76 132.24 L640.44 128.29 L646.49 123.69 L652.27 120.15 L657.43 118.35 L662.14 117.82 L666.66 117.84 L671.10 118.14 L675.07 119.51 L679.05 120.89 L682.92 122.53 L686.63 124.48 L690.28 126.56 L694.11 128.27 L697.87 130.14 L701.44 132.34 L705.08 134.43 L708.96 136.09 L712.46 138.42 L716.29 140.19 L719.92 142.29 L723.73 144.13 L727.44 146.13 L730.47 149.17 L733.64 151.98 L737.82 153.31 L740.65 156.59 L743.75 159.47 L747.94 160.84 L751.66 162.87 L755.28 165.06 L758.49 167.79 L762.58 169.41 L765.91 172.01 L769.20 174.66 L772.52 177.27 L775.72 180.02 L778.88 182.83 L781.80 185.89 L783.96 189.79 L786.44 193.30 L790.94 194.65 L792.92 198.67 L795.92 201.61 L800.49 203.00 L803.20 206.26 L806.28 209.15 L808.98 212.41 L811.73 215.61 L814.43 218.87 L817.17 222.07 L820.05 225.15 L822.83 228.33 L825.15 231.88 L827.33 235.54 L829.35 239.31 L830.34 243.85 L829.22 249.96 L826.97 256.78 L825.52 262.88 L826.54 267.10 L829.93 269.62 L832.09 273.02 L837.18 274.45 L842.72 275.68 L844.99 279.09 L846.20 283.17 L847.48 287.17 L849.38 290.78 L852.19 293.86 L855.72 296.54 L859.49 299.13 L863.48 301.64 L867.47 304.21 L871.65 306.72 L875.44 309.50 L879.45 312.21 L883.43 314.99 L887.05 318.00 L890.48 321.13 L893.45 324.50 L896.00 328.09 L898.15 331.87 L899.88 335.84 L901.60 339.80 L903.35 343.76 L905.12 347.72 L906.98 351.64 L908.91 355.56 L910.75 359.51 L912.48 363.51 L914.17 367.53 L915.70 371.61 L917.05 375.75 L918.34 379.91 L919.57 384.08 L920.67 388.29 L921.72 392.52 L922.89 396.71 L924.00 400.92 L925.02 405.16 L926.26 409.34 L927.38 413.56 L928.25 417.84 L929.20 422.10 L930.09 426.37 L930.77 430.68 L931.25 435.02 L931.68 439.36 L931.85 443.74 L931.94 448.11 L931.99 452.48 L932.01 456.85 L932.28 461.18 L932.47 465.52 L932.69 469.86 L933.00 474.18 L933.02 478.52 L932.07 482.90 L930.66 487.27 L927.29 491.64 L921.36 495.97 L967.09 500.00 L961.31 495.39 L955.43 490.89 L951.51 486.45 L949.19 482.02 L948.09 477.58 L947.03 473.15 L946.06 468.72 L945.48 464.29 L944.68 459.87 L943.66 455.49 L942.60 451.12 L941.52 446.76 L940.17 442.45 L938.98 438.14 L938.00 433.80 L936.63 429.54 L935.52 425.24 L934.66 420.90 L933.33 416.66 L932.10 412.41 L931.02 408.13 L929.83 403.88 L928.52 399.66 L927.19 395.46 L925.83 391.27 L924.31 387.12 L922.77 383.00 L921.26 378.86 L919.71 374.75 L918.15 370.65 L916.66 366.53 L915.23 362.40 L913.76 358.28 L912.36 354.13 L910.93 350.00 L909.40 345.90 L907.72 341.86 L905.95 337.86 L904.05 333.91 L902.12 329.99 L900.51 325.93 L899.30 321.69 L898.33 317.32 L897.84 312.71 L897.38 308.04 L897.30 303.16 L897.03 298.32 L896.65 293.50 L896.40 288.56 L896.07 283.63 L895.48 278.79 L894.71 274.00 L893.63 269.36 L891.67 265.22 L888.65 261.72 L885.33 258.42 L881.45 255.50 L878.75 251.85 L879.38 245.98 L879.19 240.58 L876.13 237.12 L874.31 232.78 L870.01 230.22 L862.92 229.79 L855.40 229.82 L849.34 228.88 L844.53 227.05 L841.35 223.96 L838.01 221.03 L834.42 218.32 L831.70 214.90 L828.65 211.75 L825.11 209.05 L822.24 205.77 L819.06 202.76 L815.36 200.27 L812.43 197.04 L809.02 194.30 L806.52 190.65 L802.94 188.08 L799.19 185.72 L796.41 182.33 L792.70 179.95 L788.88 177.71 L784.98 175.60 L781.59 172.92 L778.03 170.45 L774.26 168.23 L770.84 165.63 L767.27 163.20 L764.05 160.34 L760.38 158.05 L757.10 155.26 L753.33 153.13 L750.38 149.88 L746.21 148.32 L742.13 146.68 L738.79 143.97 L734.74 142.34 L730.54 140.96 L727.02 138.54 L723.27 136.48 L719.41 134.63 L715.79 132.38 L711.78 130.81 L708.04 128.77 L704.14 127.02 L700.10 125.58 L696.21 123.86 L692.37 122.04 L688.36 120.57 L684.36 119.12 L680.54 117.30 L676.70 115.53 L672.85 113.77 L669.44 110.99 L666.07 108.07 L662.89 104.62 L660.14 99.98 L657.99 93.63 L656.11 86.27 L653.75 79.85 L651.49 72.81 L647.67 69.99 L642.85 70.08 L637.39 72.27 L631.30 76.74 L625.09 82.04 L619.45 85.84 L614.48 87.64 L609.86 88.35 L605.49 88.25 L601.24 87.73 L596.92 87.56 L592.58 87.52 L588.27 87.50 L584.01 87.26 L579.78 86.96 L575.52 86.86 L571.26 86.84 L567.12 86.21 L562.96 85.68 L558.72 85.73 L554.49 85.80 L550.34 85.26 L546.19 84.80 L541.96 85.10 L538.49 77.25 L535.42 62.57 L531.17 60.48 L527.20 53.13 L523.23 43.05 L518.57 45.17 L513.94 47.50 L509.40 48.05 L504.83 53.01 L500.36 53.18 L495.93 57.82 L491.60 62.84 L487.35 66.88 L483.17 70.91 L479.09 75.27 L475.04 78.94 L470.92 80.48 L466.74 80.97 L462.54 81.22 L458.43 82.37 L454.34 83.50 L450.15 83.78 L445.97 84.16 L441.95 85.70 L437.91 86.97 L433.72 87.21 L429.60 87.93 L425.68 89.71 L421.69 91.07 L417.59 91.77 L413.52 92.67 L409.72 94.77 L403.15 84.87 L396.78 76.73 L391.59 74.01 L385.34 67.61 L380.24 65.92 L376.80 70.25 L372.61 71.87 L369.40 76.60 L367.47 85.13 L363.10 85.79 L359.96 90.08 L358.05 97.70 L355.40 102.89 L353.26 109.21 L350.42 113.44 L345.90 113.30 L343.10 117.44 L338.84 117.97 L335.30 120.22 L332.13 123.30 L328.62 125.52 L325.52 128.62 L322.25 131.27 L318.87 133.67 L315.30 135.67 L311.34 136.92 L308.19 139.70 L304.85 142.10 L300.93 143.45 L297.84 146.26 L294.31 148.30 L290.83 150.42 L279.14 139.12 L273.64 138.32 L270.37 141.11 L258.67 131.02 L254.33 132.45 L254.04 139.87 L246.93 137.29 L244.78 141.90 L245.14 149.87 L242.84 154.04 L242.28 160.43 L243.64 169.14 L242.73 174.73 L241.59 179.93 L241.05 185.74 L237.95 188.38 L235.43 191.69 L233.22 195.34 L230.78 198.69 L228.10 201.74 L225.19 204.54 L222.75 207.83 L220.66 211.46 L218.02 214.51 L215.52 217.68 L213.09 220.91 L210.13 223.61 L207.28 226.44 L204.31 229.14 L200.88 231.45 L197.32 233.68 L193.49 235.70 L188.90 237.11 L183.46 237.90 L177.52 238.38 L171.20 238.66 L163.10 237.67 L158.08 239.21 L152.58 240.47 L148.56 242.90 L149.81 249.16 L151.30 255.46 L154.22 262.63 L156.42 269.16 L159.48 276.13 L158.07 280.06 L156.07 283.61 L157.79 289.44 L154.42 292.10 L153.89 296.46 L154.81 301.63 L153.50 305.46 L152.57 309.48 L141.25 307.91 L133.61 308.51 L133.67 313.18 L127.22 314.57 L124.95 318.09 L128.70 324.47 L133.68 331.29 L136.39 336.93 L133.43 339.98 L134.75 344.89 L136.09 349.74 L131.18 352.01 L120.44 352.09 L115.29 354.50 L117.58 359.71 L110.21 361.42 L99.67 362.16 L99.17 366.46 L104.73 372.69 L99.61 375.45 L99.87 379.90 L105.09 385.76 L108.84 391.07 L113.80 396.60 L112.80 400.47 L112.45 404.51 L114.64 409.12 L113.61 412.95 L114.30 417.15 L115.15 421.35 L111.95 424.73 L108.06 428.03 L98.30 430.39 L92.90 433.64 L94.23 438.01 L90.80 441.67 L93.71 446.22 L100.72 451.21 L106.79 455.94 L110.16 460.26 L108.49 464.04 L111.17 468.20 L91.43 470.70 L84.18 474.36 L84.10 478.52 L77.95 482.44 L77.86 486.66 L84.57 491.03 L82.20 495.16 L84.76 499.34 L87.65 503.47 L85.91 507.62 L89.80 511.66 L96.24 515.51 L102.35 519.26 L106.35 523.02 L106.71 526.95 L109.40 530.69 L109.03 534.65 L111.17 538.39 L114.58 541.95 L116.44 545.63 L118.33 549.28 L114.45 553.71 L103.60 559.26 L103.60 563.32 L102.86 567.52 L100.78 571.99 L105.07 575.30 L113.68 577.67 L120.08 580.34 L120.50 584.23 L123.68 587.48 L127.67 590.49 L125.64 594.96 L121.11 600.15 L115.06 605.88 L117.08 609.45 L115.84 613.97 L109.66 620.07 L106.83 625.25 L113.59 627.37 L114.91 631.22 L115.74 635.24 L121.72 637.40 L128.49 639.16 L135.91 640.55 L138.32 643.79 L139.92 647.34 L136.34 653.07 L126.77 661.51 L126.28 666.18 L124.38 671.54 L125.02 675.81 L129.18 678.40 L133.50 680.85 L137.34 683.49 L143.90 684.67 L145.23 688.51 L148.46 691.32 L156.11 691.64 L164.59 691.34 L170.77 692.20 L171.45 696.23 L176.11 697.87 L180.81 699.41 L179.70 704.59 L183.71 706.51 L188.18 708.06 L190.01 711.35 L192.68 714.06 L183.63 725.10 L179.85 732.65 L182.24 735.80 L176.79 744.90 L173.84 752.31 L177.12 754.97 L183.79 754.88 L187.11 757.40 L192.72 757.98 L200.47 756.63 L206.95 756.20 L214.00 755.13 L218.78 755.96 L222.20 757.97 L224.85 760.69 L228.34 762.58 L221.99 774.15 L221.03 780.66 L224.90 782.36 L221.59 791.52 L221.46 797.56 L227.89 796.58 L232.61 797.35 L236.53 798.96 L241.44 799.36 L245.71 800.44 L248.92 802.74 L252.72 804.30 L254.57 808.27 L256.46 812.25 L260.80 813.10 L264.46 814.79 L262.93 823.53 L266.90 824.86 L271.54 825.22 L273.61 829.22 L278.54 829.05 L280.28 833.62 L285.24 833.31 L290.15 832.95 L293.82 834.49 L299.33 832.96 L304.76 831.40 L311.85 826.79 L317.18 825.02 L319.16 829.16 L323.57 828.88 L326.74 830.87 L323.60 845.22 L326.71 847.67 L329.66 850.50 L330.87 857.04 L332.06 863.90 L337.53 861.49 L342.56 859.89 L345.75 862.41 L350.61 860.97 L357.36 854.66 L361.54 854.46 L366.75 851.46 L371.22 850.18 L374.56 851.95 L378.67 851.49 L379.84 859.70 L381.22 867.77 L384.33 870.80 L386.68 876.46 L389.09 882.25 L392.26 885.71 L396.94 883.71 L401.42 882.25 L404.93 884.50 L409.65 881.76 L414.93 876.21 L419.41 873.71 L424.14 869.68 L428.71 865.96 L433.01 863.20 L436.97 862.02 L439.33 870.30 L441.98 877.80 L445.73 878.54 L448.66 885.56 L451.79 891.90 L455.86 891.05 L460.09 888.47 L464.37 884.59 L468.59 880.35 L472.67 876.88 L476.94 869.11 L480.81 865.93 L484.59 863.21 L488.34 859.94 L491.93 860.56 L495.55 859.38 L499.11 871.24 L502.89 879.10 L506.63 876.66 L510.62 884.66 L514.57 887.32 L518.53 888.89 L522.30 886.57 L525.83 881.50 L529.90 884.53 L533.58 882.26 L536.99 877.74 L540.38 873.83 L543.95 871.93 L547.63 871.21 L550.83 867.06 L554.05 863.51 L559.43 873.95 L563.26 873.91 L566.15 868.54 L571.15 874.78 L576.42 881.68 L579.77 878.71 L582.17 871.63 L586.48 873.35 L590.04 871.76 L592.47 865.77 L595.29 861.69 L598.64 859.76 L601.78 857.16 L605.46 856.52 L608.83 854.81 L611.51 850.99 L616.28 853.71 L620.72 855.21 L624.19 853.76 L629.02 856.10 L633.10 856.20 L636.03 853.21 L638.47 849.11 L640.72 844.67 L642.61 839.56 L644.49 834.64 L647.55 832.54 L649.68 828.44 L652.16 825.23 L655.42 823.72 L658.02 820.87 L661.58 819.99 L666.80 822.27 L671.03 822.50 L675.49 823.06 L680.33 824.20 L683.67 822.58 L687.08 821.05 L690.20 819.03 L691.75 814.44 L695.13 812.89 L698.61 811.49 L701.74 809.53 L704.63 807.21 L709.21 807.37 L712.35 805.38 L714.57 802.07 L716.53 798.47 L717.29 793.30 L718.74 789.16 L720.71 785.79 L722.74 782.53 L725.09 779.71 L730.05 780.10 L732.41 777.27 L734.47 774.12 L735.51 769.82 L736.62 765.68 L737.53 761.40 L738.24 756.96 L739.55 753.25 L740.95 749.68 L743.31 747.13 L745.19 744.11 L747.08 741.11 L749.08 738.25 L751.28 735.59 L753.80 733.23 L755.87 730.46 L757.43 727.24 L759.69 724.66 L761.29 721.51 L763.06 718.53 L764.86 715.58 L766.96 712.88 L768.88 710.06 L771.14 707.49 L773.60 705.07 L776.87 703.22 L787.94 706.95 L796.12 708.37 L798.99 705.95 L807.60 707.38 L811.22 705.32 L811.30 700.94 L810.49 696.04 L810.81 691.92 L811.93 688.34 L812.29 684.31 L811.19 679.50 L810.74 675.12 L809.18 670.18 L807.03 665.02 L805.75 660.42 L806.33 656.84 L817.25 658.44 L822.06 656.84 L821.61 652.66 L829.79 652.52 L831.84 649.46 L829.72 644.56 L825.26 638.74 L822.18 633.63 L822.80 630.12 L818.78 624.81 L817.03 620.49 L817.11 616.90 L817.47 613.44 L817.30 609.82 L818.34 606.62 L818.91 603.28 L832.43 603.99 L837.36 601.84 L838.07 598.38 L842.51 595.97 L842.59 592.31 L836.94 587.18 L831.62 582.27 L829.39 578.23 L833.87 575.78 L835.38 572.60 L838.93 569.83 L843.19 567.14 L845.31 563.97 L845.50 560.44 L842.01 556.31 L840.93 552.64 L855.60 551.27 L856.81 547.80 L857.50 544.26 L864.56 541.44 L863.12 537.60 L856.82 533.35 L851.68 529.32 L850.92 525.73 L857.61 522.63 L858.55 519.09 L860.38 515.57 L864.40 512.10 L867.18 508.51 L861.96 504.77 L858.10 501.14 L859.25 497.55 L863.13 493.89 L859.69 490.35 L859.78 486.75 L862.05 483.04 L859.40 479.56 L853.92 476.32 L849.54 473.10 L846.93 469.81 L840.87 466.90 L837.76 463.78 L840.28 460.07 L836.89 457.05 L834.39 453.96 L833.87 450.63 L832.04 447.50 L835.77 443.46 L841.07 439.06 L841.48 435.45 L847.00 430.81 L850.93 426.37 L849.22 423.07 L845.83 420.19 L843.44 417.11 L841.37 413.99 L838.48 411.11 L835.41 408.32 L832.24 405.61 L828.23 403.19 L823.78 400.97 L819.51 398.77 L815.15 396.68 L821.48 391.03 L825.60 385.99 L822.43 383.47 L827.51 377.92 L827.39 374.22 L822.19 372.50 L817.07 370.85 L812.35 369.11 L810.48 366.23 L805.23 364.86 L800.40 363.39 L797.69 361.01 L791.76 360.21 L787.14 358.87 L785.10 356.32 L783.35 353.63 L797.37 342.60 L803.22 335.60 L801.00 332.89 L807.69 325.13 L807.07 321.40 L800.41 321.22 L792.23 322.11 L785.59 322.21 L779.70 321.97 L774.11 321.66 L771.50 319.46 L768.51 317.56 L767.62 314.22 L768.90 309.32 L772.70 302.49 L776.90 295.20 L779.39 289.01 L779.76 284.30 L778.88 280.50 L775.00 279.06 L770.76 277.98 L765.55 277.77 L761.20 276.93 L758.27 274.94 L754.88 273.36 L750.31 272.90 L747.16 271.21 L741.65 271.78 L736.53 272.10 L731.95 272.00 L728.47 270.88 L725.48 269.31 L731.43 258.43 L730.95 254.06 L728.85 251.36 L730.33 244.67 L726.87 243.40 L722.43 243.29 L717.49 243.87 L712.79 244.26 L708.00 244.87 L703.11 245.71 L698.57 246.23 L692.73 248.56 L688.13 249.41 L685.20 248.10 L682.60 246.37 L683.14 240.18 L689.14 225.89 L687.81 221.90 L687.48 216.31 L687.37 210.22 L683.69 209.59 L677.96 212.32 L673.25 213.57 L671.19 210.48 L671.49 203.23 L668.72 201.16 L666.29 198.47 L663.24 196.87 L658.83 197.86 L652.75 202.23 L646.25 207.74 L644.74 203.39 L645.54 194.01 L641.76 194.11 L640.31 189.13 L638.50 184.77 L633.59 187.50 L627.28 193.82 L621.17 200.09 L615.78 204.98 L611.40 207.57 L607.19 209.94 L603.79 210.27 L600.56 210.19 L597.56 209.48 L595.27 206.63 L592.38 205.52 L592.42 194.73 L591.73 185.72 L588.79 184.06 L587.70 175.55 L586.11 168.29 L582.84 167.24 L578.44 170.91 L574.65 172.30 L570.92 173.65 L566.38 179.12 L561.87 185.06 L557.93 188.68 L554.14 191.97 L550.82 192.87 L547.65 192.98 L544.29 194.50 L542.74 182.91 L540.09 178.29 L536.74 179.04 L534.40 170.35 L531.71 163.59 L528.25 164.43 L524.56 168.68 L521.23 168.69 L517.83 170.04 L514.33 174.36 L511.04 175.32 L507.76 176.35 L504.60 170.67 L501.32 168.95 L498.03 172.69 L494.73 170.88 L491.28 164.88 L488.03 167.84 L484.91 172.39 L481.48 169.70 L477.82 164.45 L474.66 167.33 L471.75 172.38 L468.32 171.12 L465.39 174.77 L463.04 182.85 L460.13 185.27 L457.93 192.63 L455.77 199.26 L452.45 197.72 L449.10 196.23 L446.05 196.67 L441.04 186.69 L437.30 184.22 L434.31 185.65 L431.17 186.33 L428.60 189.48 L426.83 195.76 L425.52 203.39 L421.59 200.46 L418.82 202.05 L416.27 204.41 L408.84 190.03 L404.55 187.02 L401.42 187.99 L397.48 186.47 L394.49 187.91 L392.84 193.20 L389.60 193.77 L387.14 196.50 L383.52 196.10 L379.52 194.83 L375.18 192.86 L373.27 196.89 L371.37 200.79 L367.77 200.71 L366.21 205.18 L366.27 212.97 L364.70 217.04 L364.16 223.06 L363.48 228.56 L362.39 233.09 L360.69 236.30 L356.00 233.91 L348.40 226.43 L345.55 227.74 L341.04 226.21 L334.47 221.35 L330.84 221.62 L329.61 225.80 L328.21 229.63 L326.19 232.38 L326.57 238.74 L328.02 246.46 L326.85 250.15 L321.19 247.42 L317.43 247.50 L315.50 250.13 L311.44 249.89 L305.15 246.86 L302.35 248.48 L303.32 254.80 L299.36 254.91 L292.62 251.79 L289.52 253.14 L291.73 260.63 L288.85 262.15 L285.70 263.42 L289.81 272.56 L291.81 279.20 L293.06 284.88 L295.34 291.47 L296.20 296.45 L293.31 297.66 L287.32 295.91 L279.78 292.87 L273.51 291.20 L272.27 294.23 L267.42 294.04 L266.41 297.27 L268.56 303.16 L269.50 307.90 L267.92 310.49 L265.20 312.15 L263.03 314.26 L253.01 310.37 L246.51 309.37 L245.72 312.74 L240.47 312.84 L238.90 315.65 L241.38 321.25 L238.32 322.97 L237.73 326.38 L238.80 330.81 L233.03 330.84 L232.08 333.97 L234.23 338.96 L235.67 343.43 L238.68 348.72 L239.26 352.51 L240.71 356.74 L240.77 360.14 L243.16 364.72 L242.54 367.67 L241.70 370.49 L240.61 373.17 L240.41 376.27 L228.28 373.81 L224.73 375.49 L221.89 377.54 L216.80 378.67 L216.22 381.76 L218.22 385.89 L217.79 388.99 L220.14 393.13 L219.58 396.12 L216.82 398.31 L213.53 400.34 L214.69 403.94 L210.99 405.90 L208.80 408.39 L210.84 412.20 L208.88 414.78 L205.26 416.91 L205.36 420.11 L204.71 423.10 L204.17 426.11 L206.55 429.81 L208.56 433.36 L209.69 436.67 L209.81 439.73 L213.48 443.48 L215.85 446.89 L214.06 449.51 L219.35 453.33 L222.19 456.65 L219.09 459.04 L221.00 462.17 L217.14 464.52 L202.19 465.67 L200.77 468.53 L196.76 471.17 L192.54 473.87 L194.25 477.09 L202.34 480.69 L208.23 484.00 L210.01 487.01 L213.24 490.02 L201.62 492.61 L198.86 495.55 L199.90 498.57 L196.51 501.58 L200.17 504.56 L206.89 507.39 L205.55 510.38 L202.99 513.44 L203.53 516.39 L198.29 519.71 L197.04 522.83 L199.51 525.67 L202.70 528.40 L205.89 531.06 L206.24 534.00 L208.34 536.71 L212.35 539.13 L205.46 543.08 L208.35 545.64 L214.51 547.60 L213.54 550.71 L217.36 552.96 L216.89 555.98 L213.76 559.58 L216.87 561.90 L211.11 566.19 L210.76 569.32 L215.27 571.26 L217.44 573.72 L222.15 575.47 L226.50 577.23 L228.79 579.52 L231.82 581.56 L226.27 586.24 L225.37 589.55 L231.51 590.53 L226.74 595.20 L229.73 597.20 L227.16 601.21 L227.57 604.17 L232.43 605.39 L227.88 610.34 L227.92 613.51 L232.69 614.66 L236.50 616.17 L238.94 618.22 L240.09 620.85 L235.70 626.12 L237.72 628.39 L241.70 629.66 L240.81 633.37 L245.01 634.45 L253.20 633.30 L258.71 633.46 L247.76 642.83 L247.68 646.22 L250.72 647.81 L245.26 654.51 L247.58 656.58 L254.70 655.58 L260.84 655.06 L265.29 655.53 L268.51 656.75 L270.86 658.53 L271.54 661.46 L272.84 663.97 L275.48 665.51 L277.79 667.26 L279.91 669.14 L282.56 670.58 L281.74 674.78 L281.34 678.72 L282.77 681.20 L281.78 685.76 L283.35 688.20 L287.25 688.57 L291.34 688.70 L296.44 687.82 L302.05 686.35 L305.84 686.48 L309.97 686.20 L314.19 685.74 L316.31 687.34 L318.66 688.67 L321.09 689.92 L322.62 692.10 L324.63 693.78 L326.94 695.11 L329.05 696.66 L331.31 698.02 L333.78 699.13 L336.22 700.24 L338.55 701.46 L340.86 702.70 L343.14 703.97 L345.50 705.11 L347.85 706.25 L350.11 707.50 L352.34 708.79 L354.61 710.00 L356.94 711.11 L359.27 712.21 L361.63 713.25 L364.03 714.22 L366.41 715.19 L368.74 716.23 L371.04 717.31 L373.36 718.34 L375.71 719.33 L378.04 720.32 L380.36 721.32 L382.68 722.32 L385.02 723.27 L387.38 724.16 L389.74 725.05 L392.11 725.89 L394.50 726.70 L396.88 727.49 L399.24 728.34 L401.59 729.20 L403.95 730.02 L406.29 730.88 L408.63 731.74 L410.95 732.65 L413.30 733.47 L415.61 734.41 L417.94 735.27 L420.27 736.18 L422.57 737.18 L424.91 738.04 L427.19 739.12 L429.46 740.28 L431.77 741.28 L430.62 755.06 L431.86 760.78 L435.12 758.88 L436.04 766.48 L438.98 765.91 L443.05 760.08 L446.68 755.72 L450.42 750.25 L452.78 751.51 L455.55 750.55 L458.35 749.26 L461.02 748.51 L463.74 747.34 L466.46 745.84 L469.11 744.70 L471.66 744.08 L472.51 759.37 L474.84 762.44 L477.60 761.08 L479.83 766.41 L482.63 764.45 L485.71 756.82 L488.57 750.60 L491.16 748.36 L493.65 748.42 L496.18 745.24 L498.62 747.22 L501.10 748.56 L503.75 759.65 L506.37 760.60 L508.96 760.29 L511.80 765.42 L514.93 774.05 L517.38 769.42 L519.87 766.46 L522.71 768.31 L525.03 764.34 L527.03 757.91 L528.91 751.53 L531.07 748.45 L533.57 748.19 L535.56 744.49 L538.17 745.21 L540.31 742.92 L542.18 739.36 L544.47 738.37 L547.80 742.77 L551.11 746.52 L555.17 753.32 L558.75 757.36 L561.02 755.52 L563.42 754.26 L564.71 748.84 L565.11 740.47 L565.99 734.39 L568.56 734.52 L570.13 731.27 L574.38 736.74 L581.53 750.68 L584.87 752.35 L588.64 755.11 L592.03 756.56 L593.99 753.98 L595.34 749.93 L597.75 748.75 L599.27 745.39 L602.97 747.39 L606.11 747.92 L607.43 744.21 L607.73 738.39 L608.47 733.78 L608.95 728.80 L609.06 723.24 L610.06 719.70 L610.83 715.82 L611.57 712.01 L613.42 710.39 L614.99 708.29 L616.94 706.90 L624.71 715.60 L630.24 720.04 L632.04 718.08 L638.27 723.30 L643.83 727.17 L644.25 722.87 L644.46 718.38 L646.06 716.06 L646.01 711.41 L647.55 709.14 L648.98 706.75 L650.35 704.31 L652.92 703.50 L656.67 704.21 L657.59 701.20 L659.31 699.26 L665.61 702.96 L667.75 701.43 L666.47 695.87 L670.06 696.09 L669.84 691.93 L673.51 692.17 L673.98 688.86 L670.85 681.78 L675.49 683.01 L675.69 679.59 L672.69 673.02 L670.32 667.27 L669.88 663.54 L670.45 660.83 L671.97 659.05 L673.86 657.60 L685.04 664.39 L689.08 664.62 L689.78 661.93 L695.21 663.22 L702.81 666.16 L702.06 662.19 L698.70 656.25 L700.92 654.77 L700.43 651.22 L695.56 644.50 L691.64 638.67 L689.34 634.14 L688.55 630.77 L688.01 627.63 L689.72 626.03 L691.50 624.47 L705.38 630.59 L710.12 630.67 L713.83 630.03 L721.86 631.90 L726.89 631.84 L724.29 627.34 L722.05 623.15 L721.27 619.84 L717.06 614.76 L712.16 609.48 L708.90 605.16 L705.83 601.05 L705.58 598.39 L705.63 595.90 L705.76 593.46 L711.78 593.66 L722.56 595.77 L725.17 594.24 L729.86 593.51 L738.01 594.07 L739.07 591.73 L735.29 587.59 L735.18 584.88 L733.09 581.50 L732.28 578.62 L731.09 575.65 L730.76 573.00 L731.62 570.73 L735.22 569.26 L735.58 566.82 L734.93 564.10 L739.55 562.80 L743.56 561.25 L741.06 558.07 L741.46 555.61 L740.58 552.88 L741.89 550.64 L741.67 548.08 L736.52 544.60 L738.14 542.44 L737.49 539.88 L731.74 536.54 L724.89 533.15 L720.41 530.25 L717.36 527.62 L715.44 525.19 L715.03 522.96 L727.20 521.96 L735.14 520.36 L734.11 517.91 L740.75 516.00 L749.05 514.05 L749.36 511.57 L742.46 508.82 L743.61 506.43 L743.57 503.99 L739.59 501.53 L734.39 499.15 L733.53 496.82 L732.57 494.50 L732.12 492.19 L732.55 489.85 L731.35 487.58 L738.28 484.82 L741.05 482.22 L736.85 480.15 L739.68 477.49 L737.86 475.26 L730.86 473.65 L725.59 471.97 L719.59 470.48 L715.38 468.85 L715.61 466.61 L712.80 464.87 L710.02 463.16 L712.40 460.55 L711.39 458.55 L708.73 456.90 L709.38 454.58 L721.39 449.65 L723.38 446.84 L720.20 445.27 L725.04 441.67 L723.64 439.64 L715.70 439.46 L708.62 439.19 L705.32 437.92 L702.09 436.68 L699.49 435.30 L697.91 433.62 L697.60 431.52 L710.43 424.70 L711.94 421.76 L710.60 419.86 L713.79 416.18 L722.16 410.33 L717.65 409.61 L713.33 408.89 L715.15 405.56 L711.31 404.71 L704.12 405.49 L698.41 405.71 L692.39 406.20 L689.81 405.10 L687.99 403.65 L685.34 402.66 L684.54 400.71 L683.82 398.71 L682.42 397.09 L685.47 392.91 L687.92 388.97 L692.85 383.45 L695.55 379.13 L692.64 378.25 L691.30 376.40 L686.92 376.56 L678.85 379.31 L673.61 380.30 L671.13 379.46 L670.80 377.13 L673.35 372.64 L682.56 363.04 L685.60 357.84 L686.49 354.18 L686.33 351.28 L683.69 350.35 L679.23 350.98 L677.59 349.31 L674.56 348.86 L674.96 345.42 L674.75 342.47 L671.04 342.69 L666.54 343.72 L661.56 345.33 L657.93 345.74 L653.71 346.84 L649.95 347.56 L646.96 347.58 L643.21 348.47 L640.83 347.97 L639.27 346.60 L636.69 346.39 L640.94 338.38 L642.18 333.63 L641.02 331.61 L644.26 324.20 L642.91 322.25 L638.94 323.61 L636.72 322.81 L632.78 324.30 L629.77 324.68 L628.78 322.32 L627.24 320.69 L625.23 319.74 L626.30 314.26 L626.80 309.45 L623.84 309.80 L622.77 307.26 L623.69 301.46 L621.05 301.29 L615.99 305.25 L614.42 303.43 L611.31 304.31 L607.39 306.73 L604.43 307.56 L601.04 309.26 L598.21 310.05 L595.22 311.23 L593.06 310.83 L589.09 314.22 L585.26 317.55 L583.69 316.14 L582.65 313.50 L581.32 311.43 L582.64 302.99 L582.21 298.38 L579.51 299.27 L578.14 296.84 L575.25 298.34 L571.72 301.78 L567.08 308.65 L565.61 306.65 L564.22 304.36 L560.61 308.93 L563.44 292.84 L563.30 285.66 L560.57 287.09 L559.66 282.04 L557.38 281.82 L553.78 286.84 L552.11 284.44 L549.55 285.64 L547.41 285.13 L545.77 282.24 L543.53 282.09 L540.70 285.11 L537.90 288.29 L535.82 287.72 L533.31 289.78 L530.72 292.74 L528.67 292.27 L526.07 296.10 L523.50 300.36 L521.14 303.50 L518.96 305.53 L517.15 303.74 L516.03 292.71 L514.05 291.11 L512.07 289.11 L510.23 283.32 L507.98 285.51 L505.77 287.82 L503.58 291.40 L501.48 293.21 L499.42 295.34 L497.43 299.88 L495.48 302.14 L493.46 300.99 L491.25 295.74 L489.28 297.36 L487.15 295.72 L484.59 288.79 L482.11 284.57 L480.49 290.41 L478.39 290.56 L476.24 290.31 L474.74 295.41 L473.45 301.33 L472.37 307.86 L470.55 308.79 L468.12 305.95 L466.38 307.42 L463.88 304.65 L461.52 302.94 L459.54 303.28 L457.93 305.32 L455.39 303.12 L452.69 300.49 L450.20 298.95 L448.51 300.71 L446.33 300.51 L444.45 301.48 L443.78 306.57 L443.27 311.85 L441.56 312.96 L439.29 312.32 L437.45 313.04 L432.99 306.17 L428.52 299.74 L426.47 300.31 L423.40 298.23 L421.41 299.08 L420.83 303.41 L419.10 304.77 L417.28 305.89 L416.75 309.93 L413.05 306.76 L411.20 307.82 L411.01 312.35 L410.76 316.58 L411.21 322.05 L411.20 326.41 L411.17 330.55 L410.71 333.74 L410.65 337.54 L409.80 339.80 L408.45 341.14 L406.44 341.35 L405.43 343.24 L397.63 334.09 L394.01 332.00 L392.93 333.99 L387.39 329.17 L385.98 330.75 L386.48 335.08 L384.88 336.28 L385.73 340.89 L384.43 342.43 L382.47 343.07 L380.06 343.15 L379.17 345.22 L373.75 341.57 L371.51 342.02 L371.85 345.62 L368.96 345.32 L363.94 342.60 L364.83 346.77 L364.67 349.63 L361.93 349.65 L362.45 353.19 L363.72 357.43 L363.77 360.31 L364.29 363.59 L364.56 366.56 L365.51 370.12 L363.34 370.64 L366.47 376.11 L368.67 380.58 L365.61 380.23 L362.91 380.25 L360.86 380.90 L352.68 376.43 L348.61 375.57 L348.25 377.80 L347.07 379.34 L347.30 381.99 L350.75 387.02 L353.26 391.21 L350.00 391.10 L350.63 393.82 L348.66 394.68 L336.63 388.72 L333.57 389.06 L331.56 390.13 L329.03 390.90 L328.85 393.18 L330.74 396.70 L329.69 398.38 L330.16 400.95 L327.44 401.66 L325.08 402.63 L325.41 405.08 L328.19 408.81 L330.40 412.14 L328.19 413.17 L329.87 416.14 L332.51 419.51 L332.11 421.38 L334.84 424.66 L338.48 428.26 L340.82 431.20 L341.60 433.41 L333.87 432.11 L324.61 430.36 L325.49 432.72 L319.08 432.32 L315.20 432.97 L319.29 436.49 L320.43 438.90 L324.33 442.18 L321.17 443.12 L317.10 443.83 L321.06 447.00 L320.56 448.80 L321.64 451.03 L328.53 454.76 L334.53 458.11 L337.99 460.70 L328.40 460.19 L321.41 460.45 L323.23 462.70 L315.08 462.91 L311.94 464.23 L316.38 466.97 L319.00 469.31 L320.16 471.35 L321.38 473.38 L320.88 475.13 L321.14 476.99 L321.41 478.84 L322.18 480.73 L322.61 482.57 L324.19 484.50 L323.13 486.18 L316.50 487.51 L315.90 489.32 L320.00 491.36 L316.26 493.02 L317.94 494.91 L323.80 496.83 L327.29 498.62 L327.03 500.35 L326.12 502.09 L326.21 503.83 L314.43 505.95 L309.63 508.01 L311.11 509.84 L307.51 511.96 L308.19 513.84 L314.60 515.24 L312.21 517.33 L313.76 519.07 L316.06 520.70 L312.16 523.04 L313.84 524.72 L318.21 526.00 L322.41 527.21 L327.35 528.22 L330.62 529.43 L333.77 530.60 L335.59 531.97 L340.22 532.73 L341.43 534.14 L342.87 535.47 L344.16 536.82 L343.90 538.54 L331.42 543.41 L329.11 545.83 L327.28 548.18 L322.89 551.32 L324.43 552.78 L329.50 553.12 L332.56 554.01 L335.34 554.94 L336.34 556.43 L336.86 558.08 L336.38 560.10 L336.38 561.97 L331.58 565.72 L333.57 566.87 L334.48 568.43 L332.35 571.29 L330.46 574.10 L335.15 574.02 L335.97 575.63 L336.49 577.39 L340.61 577.40 L344.01 577.68 L347.36 577.93 L349.62 578.68 L352.77 578.91 L356.41 578.83 L357.58 580.05 L363.13 578.74 L366.32 578.69 L365.56 580.96 L362.49 584.69 L361.89 586.98 L356.99 592.08 L356.74 594.28 L357.42 595.89 L359.84 596.31 L362.61 596.44 L370.23 593.04 L373.57 592.58 L371.36 596.19 L375.94 594.71 L370.02 601.31 L362.11 609.70 L363.76 610.63 L362.03 614.34 L362.77 616.06 L366.05 615.61 L368.16 616.11 L369.95 616.86 L373.03 616.41 L370.78 620.88 L371.76 622.39 L375.77 620.95 L379.69 619.51 L384.37 617.17 L387.67 616.14 L391.20 614.76 L394.69 613.33 L397.31 612.75 L399.69 612.37 L401.56 612.52 L403.13 612.98 L405.04 613.03 L398.96 622.73 L397.78 626.73 L399.91 626.66 L396.20 634.08 L397.65 634.98 L401.11 633.16 L402.44 634.16 L406.37 631.50 L408.16 631.75 L408.98 633.39 L409.56 635.44 L411.51 635.43 L409.62 641.40 L410.32 643.43 L413.52 641.45 L413.99 643.89 L412.50 649.77 L415.66 647.73 L418.69 645.78 L419.02 648.66 L421.75 647.14 L425.19 644.14 L427.47 643.22 L430.15 641.43 L432.43 640.32 L435.12 638.26 L436.07 639.85 L440.02 634.76 L443.31 630.88 L443.61 633.83 L444.19 636.25 L445.41 637.16 L443.26 646.82 L443.56 650.52 L445.27 650.51 L446.49 651.87 L448.57 650.76 L451.67 646.45 L454.02 644.16 L454.68 647.16 L456.31 647.08 L457.30 649.19 L456.06 659.53 L456.97 662.58 L458.54 663.21 L459.92 664.68 L461.88 663.73 L465.04 657.26 L467.50 653.42 L468.80 654.92 L470.64 653.67 L471.95 655.27 L473.35 656.42 L475.03 655.97 L477.09 652.84 L479.00 650.38 L480.99 646.86 L482.81 644.05 L484.46 642.34 L486.24 638.84 L487.74 637.75 L489.15 637.51 L490.63 636.13 L492.00 635.97 L493.07 642.10 L494.36 645.35 L495.73 648.31 L497.17 650.90 L498.67 651.85 L500.19 653.26 L501.70 651.14 L503.17 649.34 L504.70 650.36 L506.20 650.36 L507.72 650.49 L509.22 650.34 L510.92 652.97 L512.32 651.32 L513.76 650.42 L515.16 649.22 L516.33 646.18 L517.64 644.75 L518.98 643.76 L520.19 641.97 L521.67 642.18 L523.56 644.84 L524.86 643.76 L526.08 642.29 L527.09 639.94 L528.17 638.11 L528.88 634.69 L529.16 629.64 L530.37 628.97 L531.62 628.52 L532.26 625.68 L534.19 627.90 L535.15 626.41 L536.29 625.63 L538.03 626.87 L538.63 624.33 L541.04 627.58 L541.09 623.49 L543.33 625.99 L545.77 628.87 L545.06 622.97 L547.11 624.70 L548.98 625.83 L548.49 620.98 L550.28 621.89 L550.17 618.26 L552.08 619.41 L553.82 620.12 L556.99 623.85 L559.97 626.97 L562.51 629.00 L565.26 631.30 L566.50 630.51 L566.91 628.13 L566.10 623.55 L566.05 620.54 L565.78 617.26 L566.14 615.18 L565.13 610.84 L565.73 609.35 L566.20 607.67 L566.85 606.33 L567.18 604.52 L570.84 607.83 L574.08 610.35 L576.26 611.17 L579.90 614.01 L581.57 613.96 L582.98 613.52 L584.36 613.01 L583.87 610.04 L584.75 608.92 L586.16 608.48 L587.95 608.49 L588.36 606.78 L590.83 607.57 L592.14 606.93 L592.18 604.84 L592.93 603.58 L592.15 600.68 L591.47 597.95 L592.32 596.89 L592.40 595.05 L592.71 593.49 L595.93 594.82 L596.95 593.93 L597.39 592.48 L596.73 590.03 L595.18 586.83 L596.27 586.08 L592.92 581.42 L591.29 578.40 L593.49 578.68 L592.15 575.98 L592.46 574.70 L596.08 576.05 L595.31 573.90 L599.00 575.19 L600.20 574.53 L602.40 574.59 L602.76 573.29 L604.57 573.02 L608.07 573.86 L608.20 572.38 L608.76 571.19 L612.30 571.91 L611.68 569.95 L611.69 568.41 L612.87 567.59 L612.22 565.68 L611.09 563.54 L609.19 561.01 L608.28 559.09 L605.66 556.30 L603.56 553.86 L602.33 551.92 L601.60 550.28 L600.94 548.71 L600.52 547.27 L600.16 545.88 L599.85 544.54 L599.70 543.28 L599.61 542.06 L599.51 540.85 L599.50 539.69 L599.50 538.54 L599.44 537.38 L599.45 536.25 L599.44 535.13 L599.42 534.00 L599.43 532.90 L599.46 531.81 L599.49 530.73 L599.53 529.65 L599.55 528.58 L599.60 527.52 L599.64 526.46 L599.67 525.40 L599.71 524.35 L599.74 523.31 L599.76 522.26 L599.77 521.22 L599.78 520.18 L599.78 519.14 L599.77 518.11 L599.76 517.08 L599.73 516.05 L599.70 515.02 L599.66 514.00 L599.60 512.98 L599.54 511.96 L599.47 510.94 L599.39 509.93 L599.30 508.92 L599.20 507.91 L599.09 506.90 L598.97 505.90 L598.84 504.90 L598.70 503.91 L598.55 502.91 L598.39 501.92 L598.22 500.94 Z"/>
  <svg class="pausebutton" id="pausebutton">
    <circle cx="500" cy="500" id="pausestart" class="pausestart" r="52.65"/>
    <rect height="50.02" width="10.00" y="473.68" rx="2.00" ry="2.00" x="479.99" class="pausesymbol"/>
    <rect height="50.02" width="10.00" y="473.68" rx="2.00" ry="2.00" x="510.00" class="pausesymbol"/>
    <polygon points="530.01,500 479.99,530.01 479.99,469.99" class="playsymbol"/>
  </svg>
  <polygon id="playback-head" class="playback-head" points="941.65,500 921.65,540 961.65,540"/>
</svg>