<?xml-stylesheet href="../../style/waveformjs.css" type="text/css"?>
<svg xmlns="http://www.w3.org/2000/svg" xmlns:xlink="http://www.w3.org/1999/xlink" width="100%" height="100%" viewBox="0 0 1000 1000">
  <path class="svg-wave" id="sp" d="M598.05 500.00 L598.22 500.98 L598.39 501.97 L598.55 502.96 L598.70 503.95 L598.83 504.95 L598.96 505.94 L599.07 506.95 L599.17 507.95 L599.26 508.96 L599.35 509.97 L599.42 510.98 L599.47 511.99 L599.52 513.01 L599.56 514.03 L599.58 515.05 L599.59 516.07 L599.59 517.10 L599.58 518.12 L599.55 519.15 L599.51 520.17 L599.46 521.20 L599.39 522.22 L599.29 523.25 L599.17 524.27 L599.03 525.29 L598.87 526.30 L598.70 527.31 L598.51 528.33 L598.32 529.34 L598.07 530.34 L597.79 531.32 L597.52 532.32 L597.30 533.33 L597.07 534.34 L596.83 535.34 L596.63 536.37 L596.41 537.39 L596.14 538.40 L595.76 539.36 L595.30 540.29 L594.79 541.20 L593.69 541.84 L592.00 542.19 L590.44 542.58 L590.54 543.74 L589.81 544.50 L588.77 545.09 L588.04 545.84 L589.32 547.64 L589.02 548.63 L587.89 549.16 L588.92 550.91 L588.73 551.99 L588.16 552.85 L587.22 553.48 L586.72 554.37 L585.56 554.84 L584.72 555.50 L584.00 556.24 L582.95 556.75 L582.43 557.62 L581.86 558.44 L581.88 559.70 L581.37 560.58 L581.08 561.64 L580.74 562.66 L579.71 563.15 L578.88 563.78 L577.55 564.00 L576.95 564.82 L576.69 565.91 L575.76 566.45 L575.11 567.22 L574.43 567.96 L572.70 567.73 L567.40 564.06 L559.80 557.99 L556.67 556.07 L554.74 555.25 L552.55 554.11 L556.19 559.03 L558.76 562.97 L565.56 571.69 L567.88 575.72 L567.71 577.08 L562.76 572.90 L556.77 567.29 L556.66 568.54 L553.11 565.56 L549.12 561.90 L550.72 565.25 L549.71 565.28 L547.28 563.40 L543.72 559.87 L544.50 562.23 L543.76 562.51 L541.49 560.54 L541.47 561.83 L541.30 562.92 L542.83 566.71 L541.03 565.33 L540.57 566.05 L543.83 572.99 L542.50 572.41 L541.48 572.31 L543.55 577.71 L543.05 578.65 L539.00 572.97 L542.46 581.39 L540.27 579.11 L537.03 574.59 L538.88 580.32 L538.62 581.87 L534.85 575.83 L536.99 582.65 L533.89 577.80 L531.34 573.95 L533.34 580.92 L531.64 579.04 L529.82 576.71 L532.23 585.41 L529.50 580.61 L526.87 575.77 L527.95 581.38 L526.46 579.62 L525.46 579.27 L526.27 584.67 L526.30 587.89 L527.58 595.63 L525.64 592.37 L526.74 600.20 L528.26 610.30 L526.86 609.38 L524.50 604.28 L521.69 596.64 L521.07 598.45 L519.24 594.54 L516.94 587.69 L516.76 591.67 L515.89 592.11 L514.47 589.24 L512.96 585.30 L512.00 584.64 L511.66 588.64 L510.10 583.23 L509.31 583.66 L508.70 586.03 L508.49 593.23 L507.54 593.17 L506.19 587.24 L505.90 596.86 L504.96 597.49 L503.62 588.79 L502.90 594.25 L502.05 598.34 L501.00 592.62 L500.08 597.06 L499.10 598.14 L498.24 591.81 L497.21 595.62 L496.05 600.73 L495.37 594.12 L494.25 597.02 L493.35 595.94 L493.05 587.56 L491.58 594.17 L490.51 595.30 L490.04 590.88 L488.39 596.95 L487.60 595.48 L487.69 587.88 L486.16 592.05 L485.71 589.00 L485.88 582.65 L483.73 589.80 L482.55 591.13 L480.69 595.63 L479.15 598.20 L476.59 605.06 L473.01 615.69 L472.20 613.99 L471.01 613.92 L471.28 608.29 L470.89 605.53 L467.95 611.78 L468.42 606.14 L467.28 606.06 L464.83 610.10 L464.76 606.62 L466.69 597.51 L465.91 596.61 L463.51 600.21 L464.85 593.60 L464.06 592.88 L462.15 594.99 L459.48 598.79 L456.47 603.19 L456.99 599.17 L451.64 608.53 L447.44 614.85 L449.39 607.72 L450.62 602.43 L446.01 609.19 L447.64 603.29 L446.92 602.15 L441.61 609.69 L443.00 604.53 L444.24 599.88 L439.64 605.61 L444.80 594.38 L446.37 589.62 L443.93 591.62 L448.35 582.53 L445.62 584.99 L441.73 589.09 L444.32 583.30 L441.19 586.11 L438.78 587.74 L442.87 580.16 L441.83 579.91 L440.18 580.48 L444.41 573.25 L440.54 576.74 L437.30 579.27 L435.03 580.48 L432.00 582.52 L428.75 584.73 L420.15 593.05 L418.90 592.61 L418.35 591.38 L420.97 586.69 L423.04 582.74 L420.64 583.63 L424.34 578.16 L425.07 575.87 L422.83 576.59 L422.45 575.43 L424.68 571.82 L426.83 568.38 L423.33 570.23 L424.49 567.79 L424.48 566.45 L423.22 566.21 L419.45 568.07 L410.77 573.88 L413.94 569.82 L411.51 570.34 L403.55 575.10 L407.22 570.77 L409.71 567.45 L406.28 568.56 L408.10 565.83 L410.70 562.63 L402.40 567.00 L406.77 562.64 L407.89 560.56 L400.16 564.22 L402.60 561.28 L405.44 558.18 L398.55 561.03 L406.73 554.85 L406.76 553.58 L399.13 556.63 L404.03 552.63 L402.73 552.08 L395.53 554.60 L402.68 549.63 L403.33 548.08 L398.86 549.06 L407.64 543.66 L405.91 543.33 L397.22 546.10 L398.34 544.38 L392.77 545.54 L389.34 545.69 L378.25 548.85 L373.87 549.15 L373.51 547.84 L378.26 544.66 L384.54 541.05 L383.11 540.25 L386.99 537.65 L391.35 534.99 L387.39 535.03 L387.67 533.72 L390.48 531.68 L394.65 529.34 L392.31 528.83 L391.72 527.83 L394.76 525.93 L393.20 525.19 L392.59 524.20 L387.55 524.15 L390.07 522.47 L389.35 521.46 L381.68 521.73 L382.59 520.35 L383.42 519.00 L378.74 518.52 L378.12 517.37 L384.04 515.35 L375.52 515.21 L378.36 513.63 L382.29 512.00 L375.86 511.40 L375.08 510.21 L381.46 508.50 L374.38 507.75 L380.72 506.16 L384.29 504.82 L377.94 503.86 L380.53 502.58 L383.38 501.35 L374.01 500.20 L379.89 498.99 L384.64 497.88 L381.00 496.62 L387.75 495.69 L389.34 494.64 L380.46 493.01 L381.21 491.86 L373.47 490.06 L371.46 488.61 L364.81 486.65 L356.17 484.35 L357.90 483.09 L361.21 482.08 L365.85 481.31 L362.94 479.51 L360.00 477.64 L365.72 477.17 L361.70 475.06 L359.41 473.19 L364.73 472.80 L374.31 473.42 L372.73 471.75 L370.73 469.95 L378.31 470.43 L377.69 468.98 L375.96 467.21 L369.75 464.18 L374.21 464.05 L379.79 464.34 L367.94 459.38 L366.44 457.45 L377.32 459.56 L371.53 456.23 L365.01 452.49 L371.76 453.42 L368.69 450.81 L365.16 447.95 L371.08 448.75 L370.30 446.93 L365.55 443.41 L372.48 444.82 L372.03 443.10 L374.92 442.88 L381.30 444.35 L377.43 441.03 L379.03 440.31 L380.86 439.72 L375.78 435.58 L378.58 435.48 L383.94 436.84 L382.15 434.33 L389.34 436.87 L395.63 439.07 L389.88 434.23 L390.81 433.29 L387.36 429.63 L385.56 426.91 L380.16 421.75 L371.72 414.40 L373.36 413.66 L373.99 412.23 L379.63 414.36 L382.29 414.46 L377.90 409.39 L383.43 411.67 L383.50 409.88 L380.59 405.71 L384.84 407.18 L393.05 412.02 L394.04 411.04 L391.70 407.22 L397.76 410.61 L399.02 409.92 L398.02 407.18 L395.19 402.67 L394.12 399.68 L399.37 402.74 L393.60 395.07 L390.02 389.36 L396.61 393.88 L400.19 395.49 L395.31 388.16 L400.60 391.66 L401.92 390.93 L397.60 383.80 L402.46 387.07 L405.46 388.30 L400.39 379.90 L405.81 384.09 L408.59 385.18 L408.43 382.60 L414.99 388.72 L414.13 385.24 L413.73 382.27 L417.89 385.57 L415.73 380.03 L416.09 377.97 L421.21 382.93 L420.71 379.61 L423.56 381.36 L430.05 389.01 L424.87 378.11 L421.26 369.36 L425.84 374.12 L425.49 370.59 L424.59 365.93 L424.42 362.43 L425.71 361.52 L428.03 362.57 L424.95 353.13 L424.63 348.78 L425.92 347.57 L427.54 347.04 L429.12 346.43 L430.85 346.15 L433.05 346.95 L437.08 352.16 L440.51 356.26 L441.74 355.14 L444.10 356.89 L448.73 364.76 L450.35 364.99 L450.83 362.04 L450.69 357.16 L453.59 361.06 L453.54 356.14 L452.44 347.54 L454.20 347.85 L455.78 347.60 L457.87 349.17 L460.02 351.14 L461.71 351.51 L461.11 342.72 L463.27 344.82 L463.98 340.73 L463.96 332.88 L465.55 332.09 L467.09 331.07 L469.03 332.08 L471.03 333.63 L473.16 336.15 L476.02 343.87 L478.84 352.43 L480.78 355.69 L482.94 361.30 L484.95 366.63 L485.67 360.51 L486.65 355.92 L488.54 361.23 L489.37 353.37 L490.20 343.07 L492.09 349.14 L493.54 347.63 L494.90 342.73 L496.47 342.58 L498.01 339.35 L499.62 342.39 L501.22 339.10 L502.96 331.77 L504.73 328.61 L506.50 327.28 L508.33 325.21 L510.27 321.94 L511.94 323.66 L513.24 329.72 L514.23 337.96 L515.79 338.72 L517.68 336.33 L518.41 344.20 L519.18 350.51 L521.47 344.94 L523.67 340.82 L524.36 346.74 L526.39 344.02 L529.78 334.08 L531.34 334.92 L532.88 335.77 L534.26 337.36 L535.39 339.94 L536.20 343.73 L540.13 334.31 L541.46 336.00 L543.00 336.79 L547.54 326.63 L549.29 327.05 L551.36 326.38 L553.13 326.77 L554.37 328.85 L554.71 333.57 L553.39 342.90 L552.77 349.69 L551.72 357.27 L550.52 364.81 L550.77 368.18 L554.06 363.70 L557.57 358.98 L557.00 364.27 L561.99 356.43 L569.22 343.99 L568.49 349.71 L570.17 350.03 L574.11 345.64 L575.07 347.58 L579.60 342.37 L578.19 348.93 L580.15 348.86 L586.90 340.02 L588.85 340.26 L590.71 340.68 L592.89 340.59 L594.55 341.41 L595.60 343.24 L595.26 347.24 L593.28 353.70 L592.86 357.53 L597.64 353.42 L594.46 361.21 L591.87 367.88 L595.61 365.40 L600.11 362.01 L600.44 364.43 L602.06 365.08 L609.95 357.62 L613.48 356.06 L614.01 358.32 L615.11 359.85 L614.58 363.30 L612.14 368.90 L617.59 365.28 L619.91 365.37 L618.54 369.56 L628.99 360.87 L630.24 362.32 L632.49 362.71 L633.84 364.06 L633.54 367.05 L633.91 369.32 L631.28 374.43 L625.99 381.88 L621.62 388.24 L619.23 392.61 L615.22 398.29 L617.07 398.72 L623.14 395.61 L622.72 398.06 L624.14 398.95 L637.34 390.48 L638.74 391.61 L637.93 394.45 L642.58 393.13 L644.83 393.70 L650.49 391.84 L648.71 395.35 L648.25 397.88 L660.26 391.95 L661.84 393.23 L663.15 394.69 L664.76 395.97 L665.47 397.82 L666.29 399.60 L664.98 402.63 L660.10 407.65 L657.56 411.21 L663.42 410.04 L659.32 414.37 L652.36 420.06 L656.82 419.71 L661.14 419.52 L662.99 420.63 L661.08 423.54 L671.08 420.88 L677.72 419.95 L677.19 422.31 L676.58 424.68 L672.90 428.28 L669.06 431.85 L671.59 432.82 L676.66 432.86 L674.04 435.84 L682.87 434.65 L687.46 435.12 L689.30 436.60 L690.52 438.30 L689.18 440.82 L688.33 443.15 L688.44 445.16 L690.05 446.75 L688.82 449.12 L689.15 451.06 L692.52 452.24 L692.34 454.32 L690.37 456.79 L684.50 460.06 L676.56 463.62 L679.96 464.80 L683.87 465.94 L677.56 468.94 L680.00 470.36 L680.35 472.16 L679.31 474.15 L676.88 476.30 L672.03 478.70 L676.24 479.97 L677.75 481.59 L679.23 483.25 L679.84 485.01 L679.01 486.88 L678.68 488.70 L679.77 490.43 L678.30 492.30 L674.63 494.20 L676.49 495.91 L676.34 497.67 L672.98 499.45 L673.65 501.18 L678.44 503.00 L684.90 504.96 L679.56 506.61 L683.20 508.58 L689.76 510.79 L683.91 512.31 L680.71 513.91 L680.70 515.73 L680.93 517.57 L678.96 519.19 L681.17 521.26 L680.77 523.05 L677.70 524.46 L682.37 526.97 L682.63 528.88 L681.23 530.52 L681.18 532.37 L681.47 534.30 L680.62 536.02 L675.08 536.73 L670.42 537.54 L670.08 539.25 L666.42 540.16 L661.28 540.63 L665.76 543.53 L670.74 546.67 L664.85 546.84 L671.86 550.69 L689.51 557.96 L681.67 557.56 L681.88 559.63 L682.70 561.93 L678.87 562.63 L678.16 564.39 L671.12 563.79 L671.36 565.84 L673.86 568.80 L674.57 571.11 L674.40 573.08 L672.81 574.46 L672.60 576.42 L671.80 578.13 L670.32 579.52 L666.02 579.55 L665.18 581.18 L665.89 583.60 L662.56 583.97 L660.36 584.88 L662.93 588.34 L667.71 593.11 L664.97 593.76 L662.53 594.54 L669.92 601.12 L666.49 601.35 L661.25 600.38 L660.84 602.37 L659.55 603.81 L657.77 604.91 L658.43 607.65 L656.99 608.98 L653.46 608.82 L656.11 613.06 L655.72 615.17 L653.73 616.10 L652.80 617.81 L651.55 619.28 L650.92 621.25 L649.26 622.39 L647.82 623.70 L645.86 624.56 L645.39 626.70 L645.16 629.08 L644.04 630.69 L643.24 632.59 L638.48 630.78 L635.88 630.92 L635.91 633.60 L633.55 633.93 L637.77 640.96 L639.12 645.21 L644.29 653.65 L646.59 659.27 L641.22 656.54 L633.89 651.44 L629.20 649.11 L627.71 650.40 L621.85 646.44 L620.96 648.37 L623.00 653.99 L621.23 654.92 L618.33 654.38 L614.04 651.91 L612.28 652.72 L612.36 656.07 L608.15 653.44 L607.09 655.21 L605.94 656.87 L607.97 663.37 L607.64 666.47 L606.02 667.62 L607.89 674.41 L606.31 675.76 L602.30 673.02 L598.50 670.46 L596.47 670.86 L594.59 671.52 L591.47 669.86 L589.81 670.84 L587.98 671.50 L590.19 680.23 L588.07 680.47 L584.69 678.06 L586.23 686.06 L582.86 683.57 L577.76 676.97 L579.06 684.95 L577.20 685.69 L574.00 683.15 L574.65 690.21 L571.87 688.67 L567.23 681.93 L567.14 687.42 L563.89 684.13 L561.28 682.47 L563.79 696.43 L562.38 698.85 L558.55 693.40 L557.14 695.76 L557.21 703.55 L556.01 707.22 L551.72 699.25 L549.62 699.33 L547.92 701.07 L546.07 702.25 L542.74 696.68 L540.39 695.25 L539.56 701.35 L537.51 701.55 L535.32 700.98 L532.57 696.82 L530.41 695.90 L528.98 699.90 L526.36 695.59 L524.28 694.86 L522.48 696.33 L520.65 697.84 L518.97 701.29 L516.71 698.55 L515.10 703.79 L513.31 707.74 L511.15 706.27 L508.97 703.86 L506.93 703.73 L504.98 707.46 L502.84 703.28 L500.80 701.96 L498.79 701.72 L496.67 707.81 L494.50 711.35 L492.61 705.02 L490.26 711.47 L488.11 712.06 L486.61 702.54 L484.26 706.63 L481.78 711.33 L480.28 704.75 L477.64 710.09 L475.40 711.06 L474.41 701.95 L472.15 703.47 L470.16 702.92 L469.34 694.93 L466.42 700.39 L464.03 702.24 L462.08 701.49 L460.71 697.86 L457.91 701.42 L452.90 714.63 L452.25 707.66 L450.49 705.87 L447.92 707.40 L444.76 711.03 L442.03 712.76 L440.70 709.35 L436.63 715.48 L433.52 717.97 L431.60 716.50 L431.90 708.26 L431.43 702.81 L427.95 706.29 L427.44 701.25 L425.71 699.77 L423.17 700.46 L419.57 703.73 L414.51 710.35 L415.87 701.21 L411.44 705.99 L404.92 715.20 L405.91 707.32 L407.70 698.10 L405.18 698.30 L401.58 700.66 L402.93 693.00 L401.20 691.64 L397.99 693.10 L394.51 694.94 L389.50 699.41 L391.50 691.27 L386.68 695.18 L382.76 697.37 L386.16 687.35 L382.99 688.29 L378.04 691.96 L380.16 684.52 L375.91 686.93 L371.24 689.82 L374.70 680.81 L372.27 680.44 L369.78 680.10 L375.95 668.00 L372.23 669.47 L367.08 672.68 L368.18 667.76 L367.71 664.93 L364.78 665.17 L353.73 675.07 L353.38 671.96 L353.35 668.55 L350.53 668.36 L347.08 668.82 L343.58 669.25 L345.55 663.81 L340.25 666.06 L333.85 669.30 L332.84 666.95 L335.69 660.86 L340.10 653.44 L335.35 654.87 L335.08 652.04 L335.59 648.56 L333.69 647.28 L329.11 648.31 L322.13 651.28 L325.16 645.71 L322.71 644.77 L309.77 652.20 L312.27 647.14 L318.30 639.50 L318.53 636.47 L313.58 637.29 L316.72 632.17 L317.13 629.11 L314.84 627.98 L310.64 628.10 L303.16 630.31 L307.34 624.79 L304.78 623.69 L296.12 626.34 L303.42 619.11 L303.40 616.46 L296.71 617.69 L300.36 612.93 L298.02 611.60 L290.08 613.26 L296.12 607.38 L296.30 604.70 L289.65 605.47 L291.29 602.05 L285.79 602.10 L273.86 605.02 L271.53 603.34 L269.75 601.39 L268.87 599.02 L268.36 596.52 L268.06 593.93 L268.52 591.06 L269.22 588.13 L269.31 585.46 L267.77 583.40 L265.64 581.53 L263.95 579.48 L261.07 577.80 L258.55 575.96 L257.78 573.54 L256.86 571.17 L255.94 568.80 L255.02 566.42 L254.12 564.04 L253.51 561.57 L252.12 559.29 L252.31 556.63 L251.16 554.28 L250.84 551.75 L251.12 549.10 L251.01 546.54 L249.92 544.16 L250.03 541.57 L249.89 539.02 L248.76 536.63 L248.92 534.05 L247.65 531.65 L247.58 529.10 L245.72 526.74 L245.39 524.20 L244.43 521.72 L242.81 519.27 L243.84 516.62 L243.13 514.09 L243.24 511.50 L243.35 508.93 L242.79 506.37 L242.47 503.81 L242.82 501.23 L242.41 498.65 L240.70 496.05 L240.12 493.44 L239.82 490.83 L237.70 488.13 L237.49 485.49 L238.26 482.90 L238.47 480.29 L239.02 477.70 L239.05 475.08 L239.47 472.49 L239.93 469.90 L240.01 467.27 L240.45 464.69 L240.81 462.09 L240.56 459.40 L241.18 456.84 L241.92 454.31 L241.89 451.64 L242.01 448.98 L242.74 446.45 L243.25 443.87 L243.95 441.34 L244.54 438.78 L244.53 436.07 L244.27 433.28 L243.30 430.27 L242.30 427.23 L241.91 424.32 L241.71 421.45 L242.29 418.80 L244.07 416.54 L245.18 414.07 L245.76 411.43 L246.85 408.96 L246.47 405.95 L247.39 403.41 L247.88 400.69 L248.75 398.12 L249.64 395.56 L251.32 393.33 L253.08 391.15 L254.44 388.80 L257.40 387.20 L259.53 385.25 L259.70 382.37 L261.79 380.42 L262.94 378.02 L263.30 375.20 L263.41 372.21 L262.22 368.48 L264.29 366.53 L264.39 363.46 L263.44 359.73 L264.44 357.12 L267.23 355.61 L268.64 353.26 L270.01 350.88 L272.48 349.24 L271.76 345.45 L273.32 343.17 L274.62 340.72 L274.62 337.31 L276.80 335.47 L278.86 333.55 L280.49 331.31 L282.21 329.14 L285.48 328.22 L287.52 326.33 L289.34 324.28 L292.02 322.95 L293.43 320.56 L295.41 318.66 L296.74 316.18 L296.25 312.00 L298.88 310.67 L299.57 307.50 L299.70 303.74 L301.95 302.02 L305.70 301.84 L308.41 300.66 L310.85 299.22 L313.22 297.72 L314.25 294.76 L315.78 292.30 L316.85 289.30 L317.65 285.94 L320.43 284.89 L323.10 283.73 L325.28 281.97 L327.48 280.26 L331.30 280.64 L334.08 279.73 L335.72 277.30 L338.71 276.72 L340.69 274.75 L342.51 272.53 L344.44 270.45 L344.10 264.92 L346.98 264.17 L349.22 262.46 L349.29 257.24 L352.41 256.87 L355.63 256.72 L357.92 255.04 L360.91 254.56 L363.92 254.18 L365.08 250.42 L367.80 249.48 L370.30 248.15 L371.62 244.47 L374.55 243.94 L377.11 242.69 L379.66 241.42 L382.50 240.77 L385.55 240.65 L388.26 239.77 L390.82 238.55 L394.04 238.95 L396.36 237.14 L399.17 236.58 L401.75 235.43 L403.32 231.45 L406.25 231.20 L408.65 229.41 L410.69 226.45 L413.21 224.87 L416.31 225.15 L419.19 224.75 L421.80 223.45 L424.91 223.93 L427.43 222.25 L430.05 220.92 L432.77 219.93 L434.94 216.51 L438.11 217.36 L441.01 217.11 L443.93 216.95 L446.75 216.33 L449.99 218.11 L453.11 219.40 L455.79 218.12 L458.73 218.50 L461.86 220.41 L464.60 219.58 L467.46 219.71 L470.64 222.97 L474.37 232.63 L477.14 233.57 L479.43 228.29 L482.46 232.89 L485.04 231.04 L487.49 225.78 L490.26 226.19 L492.80 218.41 L495.71 224.29 L498.45 221.85 L501.27 212.22 L504.14 212.85 L507.03 212.12 L509.92 211.84 L512.86 210.66 L515.70 211.81 L518.33 215.84 L520.74 221.90 L523.34 224.22 L526.66 218.50 L528.57 227.40 L530.56 234.06 L533.84 229.45 L537.21 224.86 L539.50 228.43 L542.60 226.31 L547.26 215.20 L550.31 214.48 L553.02 215.80 L555.28 219.29 L557.11 224.54 L558.88 229.64 L563.00 224.00 L565.81 224.42 L568.22 226.48 L574.19 214.73 L577.08 215.32 L580.29 214.80 L582.86 216.58 L584.97 219.78 L587.54 221.39 L588.80 226.94 L589.10 235.07 L588.88 244.21 L590.09 248.87 L590.50 255.44 L592.43 257.70 L597.83 251.05 L603.59 243.93 L607.78 241.07 L614.30 232.95 L618.89 229.73 L621.08 232.07 L620.81 239.63 L622.67 242.39 L627.93 238.12 L628.90 242.69 L631.59 243.76 L638.06 237.65 L638.90 242.35 L638.30 249.48 L640.38 251.63 L644.43 250.31 L644.64 255.63 L648.37 254.95 L655.01 249.66 L657.04 251.96 L655.36 259.97 L652.94 268.81 L652.00 275.14 L652.47 279.24 L655.44 279.69 L661.21 276.29 L667.31 272.65 L677.53 263.75 L681.98 262.81 L683.67 265.49 L684.58 269.12 L683.83 274.72 L683.30 279.90 L687.27 279.66 L691.57 279.11 L691.97 283.07 L700.48 277.97 L704.03 278.53 L707.06 279.70 L708.74 282.32 L709.99 285.35 L711.33 288.26 L711.35 292.44 L709.43 298.39 L703.96 307.55 L703.04 312.22 L701.39 317.45 L699.73 322.56 L706.54 320.17 L716.31 315.44 L721.18 315.07 L729.78 311.75 L739.32 307.90 L740.27 311.06 L739.19 315.75 L741.56 317.74 L742.36 320.92 L742.54 324.50 L746.31 325.50 L749.85 326.72 L752.00 328.94 L754.61 330.86 L756.98 332.97 L759.14 335.23 L759.94 338.34 L759.91 341.95 L756.53 347.49 L754.55 352.09 L757.37 353.88 L756.63 357.67 L750.71 364.21 L752.97 366.24 L758.11 366.81 L763.19 367.51 L759.84 372.43 L768.19 371.65 L777.54 370.57 L778.07 373.69 L777.83 377.13 L776.08 381.20 L773.45 385.56 L774.85 388.19 L782.35 388.41 L780.22 392.48 L786.54 393.33 L793.51 394.07 L795.46 396.69 L797.33 399.36 L796.18 403.04 L795.40 406.56 L793.74 410.30 L787.14 415.45 L778.47 421.02 L775.22 424.90 L771.07 428.94 L767.50 432.73 L774.07 433.98 L778.72 435.81 L774.32 439.70 L785.55 440.22 L798.15 440.69 L790.27 445.27 L793.92 447.62 L799.60 449.69 L801.17 452.52 L805.26 455.00 L803.05 458.42 L809.60 460.67 L817.56 462.88 L817.92 466.06 L818.46 469.21 L819.53 472.33 L819.30 475.57 L817.53 478.89 L811.87 482.40 L806.39 485.78 L807.53 488.81 L809.26 491.84 L800.46 495.08 L796.17 498.11 L801.99 501.10 L805.85 504.17 L799.98 507.09 L805.80 510.29 L817.46 513.86 L815.78 516.95 L814.48 520.04 L809.17 522.80 L804.74 525.54 L801.79 528.34 L809.01 532.14 L806.24 534.95 L808.04 538.28 L817.13 542.63 L816.94 545.84 L817.49 549.16 L815.67 552.12 L812.80 554.86 L811.36 557.83 L805.09 559.82 L795.89 561.10 L789.16 562.73 L785.14 564.85 L777.56 566.05 L778.08 569.12 L782.25 573.16 L778.38 575.14 L782.32 579.24 L796.06 586.30 L790.81 587.93 L789.76 590.79 L792.49 594.86 L789.42 597.08 L787.73 599.72 L780.41 600.34 L780.52 603.55 L782.97 607.69 L782.98 610.94 L782.94 614.20 L781.26 616.81 L780.62 619.85 L778.71 622.34 L776.68 624.76 L773.06 626.43 L770.59 628.59 L771.79 632.51 L767.25 633.62 L763.73 635.17 L765.68 639.54 L769.89 645.22 L767.09 647.17 L763.23 648.49 L769.10 655.37 L768.08 658.38 L762.64 658.73 L761.21 661.46 L758.93 663.65 L755.86 665.31 L755.70 668.85 L754.40 671.67 L751.36 673.31 L752.48 677.83 L751.19 680.70 L749.00 682.94 L747.71 685.83 L745.22 687.82 L743.24 690.20 L739.50 691.17 L733.45 690.19 L729.25 690.61 L725.42 691.27 L718.93 689.56 L718.73 693.25 L721.44 699.63 L718.17 700.66 L717.15 703.78 L724.69 715.11 L724.18 718.96 L720.96 720.18 L720.29 723.95 L716.79 724.84 L716.52 729.11 L709.63 726.30 L705.54 726.39 L708.11 733.87 L705.57 735.73 L703.83 738.51 L701.23 740.29 L699.12 742.66 L696.26 744.11 L693.52 745.69 L689.81 746.01 L685.55 745.52 L685.52 750.65 L681.27 750.10 L676.59 748.85 L675.75 752.98 L677.58 761.16 L675.27 763.38 L670.06 761.17 L671.53 769.28 L670.07 772.98 L664.19 769.51 L661.49 771.15 L658.56 772.38 L655.28 772.99 L651.81 773.22 L650.66 777.64 L647.52 778.46 L645.25 780.93 L643.25 784.00 L640.40 785.40 L637.64 787.01 L634.57 787.95 L631.72 789.36 L627.99 788.81 L623.31 785.92 L618.94 783.57 L615.33 782.84 L610.70 779.46 L607.31 779.01 L606.56 785.55 L604.75 789.51 L600.59 786.95 L601.93 800.34 L601.66 809.71 L596.95 805.63 L594.47 808.50 L591.20 808.80 L588.14 809.82 L583.93 806.62 L579.74 803.22 L578.02 809.21 L575.02 810.36 L572.20 812.33 L569.08 813.09 L565.82 813.18 L562.52 812.98 L559.58 814.62 L556.13 813.50 L552.46 810.91 L549.58 812.89 L546.40 812.98 L542.79 809.98 L539.84 811.57 L537.39 817.68 L534.84 823.87 L530.95 817.56 L528.27 823.49 L525.45 829.12 L521.77 823.70 L518.39 821.28 L515.16 821.14 L511.96 821.68 L508.70 820.29 L505.54 822.83 L502.31 822.70 L499.09 820.32 L495.83 824.89 L492.57 825.32 L489.35 824.16 L486.12 823.81 L482.84 824.47 L479.65 823.41 L476.76 818.52 L473.95 813.78 L470.85 813.12 L468.10 809.07 L465.55 803.99 L462.39 804.66 L458.54 810.26 L454.35 817.41 L450.26 822.91 L445.89 829.35 L440.91 838.48 L438.22 834.13 L436.71 824.14 L433.83 821.74 L430.62 821.03 L428.59 815.16 L424.95 816.48 L421.24 817.95 L417.63 818.80 L414.29 818.54 L411.42 816.57 L408.27 815.63 L405.01 815.06 L402.05 813.51 L400.32 808.19 L397.05 807.74 L393.46 808.21 L391.35 804.41 L388.86 801.82 L384.26 804.87 L378.89 809.65 L377.01 805.41 L373.76 804.64 L366.88 812.39 L365.63 806.77 L364.35 801.46 L361.18 800.45 L358.19 799.03 L355.76 796.46 L351.88 796.85 L349.12 794.96 L347.31 791.26 L342.19 793.86 L339.02 792.70 L336.54 790.30 L333.50 788.90 L330.53 787.36 L327.72 785.56 L327.09 780.24 L326.95 774.29 L324.32 772.39 L323.04 768.43 L323.88 761.43 L318.15 764.21 L312.70 766.37 L312.71 760.78 L306.70 763.55 L292.90 776.51 L293.44 770.12 L290.18 768.78 L283.70 771.43 L281.25 768.95 L274.63 771.49 L275.41 765.12 L269.67 766.44 L259.85 772.25 L257.21 769.76 L254.85 766.96 L251.73 764.99 L249.53 762.03 L248.01 758.40 L248.46 752.83 L251.03 745.30 L250.74 740.71 L245.98 740.45 L249.90 732.04 L252.24 725.30 L247.18 725.33 L241.97 725.38 L241.90 720.93 L238.52 719.34 L229.07 722.68 L225.53 721.03 L223.80 717.90 L222.94 714.12 L222.88 709.78 L223.23 705.19 L214.85 707.02 L212.43 704.42 L211.07 701.06 L199.09 704.96 L197.07 701.94 L194.04 699.56 L192.72 696.08 L192.94 691.64 L192.15 687.88 L194.83 682.08 L199.73 675.11 L204.82 668.21 L206.18 663.56 L210.08 657.62 L209.73 654.07 L203.22 653.74 L203.87 649.67 L201.50 647.13 L188.31 649.78 L187.24 646.46 L185.72 643.36 L180.94 641.70 L179.30 638.61 L173.00 637.47 L175.67 632.55 L174.10 629.40 L163.92 629.57 L160.05 627.17 L156.55 624.58 L153.61 621.74 L149.91 619.12 L148.61 615.65 L150.84 611.06 L157.39 605.22 L160.82 600.46 L155.48 598.31 L160.48 593.22 L167.44 587.74 L163.08 585.30 L157.32 583.12 L158.03 579.33 L159.22 575.48 L150.56 573.74 L145.63 571.08 L145.37 567.45 L145.83 563.70 L147.59 559.75 L149.84 555.78 L145.43 552.85 L141.26 549.81 L142.89 545.95 L131.63 543.66 L129.67 540.14 L128.23 536.54 L127.99 532.81 L129.62 528.93 L132.18 525.04 L138.27 520.99 L144.51 517.06 L152.26 513.21 L158.89 509.54 L163.50 506.05 L167.40 502.65 L161.53 499.31 L157.44 495.88 L161.03 492.53 L147.58 488.71 L138.67 484.80 L143.08 481.41 L138.98 477.57 L135.61 473.70 L131.07 469.67 L131.99 466.03 L134.32 462.56 L120.05 457.25 L118.12 453.16 L119.20 449.43 L119.62 445.61 L120.28 441.82 L122.32 438.26 L126.97 435.19 L136.65 433.12 L143.66 430.72 L147.03 427.70 L153.07 425.31 L161.08 423.49 L159.20 419.47 L157.79 415.52 L152.87 410.61 L154.69 407.39 L148.84 402.04 L143.18 396.61 L144.45 393.11 L146.31 389.80 L149.51 386.94 L153.73 384.47 L153.69 380.59 L146.88 374.28 L150.97 371.79 L147.57 366.52 L143.09 360.73 L145.02 357.38 L147.30 354.18 L152.05 352.05 L153.89 348.73 L161.18 347.86 L169.67 347.69 L177.13 347.19 L184.58 346.84 L190.45 345.85 L193.83 343.69 L188.32 336.93 L189.71 333.68 L194.28 332.18 L186.34 323.71 L181.63 316.85 L188.66 316.73 L188.62 312.48 L186.46 306.89 L185.51 301.94 L184.16 296.65 L186.77 293.87 L182.36 286.38 L179.41 279.71 L180.70 275.87 L183.31 272.94 L185.56 269.75 L188.67 267.21 L193.21 265.79 L201.52 267.37 L210.54 269.71 L215.22 268.75 L219.10 267.20 L226.56 268.73 L228.32 265.52 L225.75 258.48 L225.83 253.63 L228.58 251.16 L227.25 244.87 L225.33 237.87 L228.37 235.54 L231.38 233.18 L235.74 232.20 L240.08 231.28 L244.03 230.02 L240.07 220.29 L243.91 218.83 L245.67 215.09 L242.35 205.50 L245.62 203.30 L248.74 200.95 L253.64 200.75 L257.21 198.99 L262.63 199.63 L269.34 202.04 L273.04 200.68 L278.30 201.46 L282.99 201.58 L284.78 197.74 L285.93 192.91 L288.35 189.80 L295.73 194.10 L296.37 188.35 L294.27 178.16 L301.19 182.02 L303.78 179.06 L304.26 172.53 L308.33 171.93 L309.25 165.90 L314.66 167.69 L316.96 163.96 L317.81 157.41 L319.67 152.56 L322.96 150.41 L326.85 149.43 L330.56 148.12 L333.84 145.92 L338.19 146.03 L345.08 151.93 L349.47 152.49 L351.07 146.52 L357.07 151.06 L362.48 154.46 L364.97 150.59 L366.01 142.68 L370.38 143.52 L374.21 142.98 L373.87 130.27 L376.47 125.68 L381.17 127.43 L385.63 128.65 L389.83 129.12 L394.68 132.02 L396.86 125.53 L400.89 125.55 L405.55 128.17 L406.28 114.96 L409.92 113.12 L414.24 114.26 L418.13 113.54 L422.02 112.82 L425.74 111.29 L430.73 116.65 L435.74 122.87 L440.63 129.18 L444.84 131.92 L449.39 137.63 L453.17 138.28 L456.17 132.68 L459.97 133.37 L463.48 131.47 L465.86 116.40 L469.69 115.98 L473.60 116.72 L477.17 111.92 L481.09 112.45 L484.71 105.71 L488.80 110.55 L492.69 110.23 L496.51 101.79 L500.50 99.33 L504.52 98.15 L508.49 100.49 L512.48 100.79 L516.44 101.56 L520.41 102.00 L523.97 109.07 L527.54 114.03 L531.98 107.25 L535.34 113.72 L538.52 120.85 L542.54 119.15 L547.04 113.92 L551.13 112.62 L554.35 117.75 L559.71 108.22 L564.89 101.04 L568.20 105.65 L571.76 108.41 L575.26 111.27 L578.53 115.05 L582.79 113.93 L587.18 112.41 L589.96 117.95 L596.28 108.65 L600.95 106.68 L604.21 110.22 L607.89 112.02 L611.70 113.38 L615.83 113.60 L618.50 118.60 L620.60 125.11 L621.72 134.22 L624.14 139.04 L626.02 145.16 L628.27 149.95 L633.43 146.83 L637.74 146.18 L640.22 150.20 L648.53 139.94 L655.00 134.66 L656.86 140.32 L661.88 138.70 L666.43 138.29 L671.72 136.42 L674.54 139.81 L677.05 143.76 L684.78 137.35 L689.42 137.26 L693.88 137.60 L696.71 140.98 L699.91 143.65 L702.93 146.60 L707.01 147.69 L707.58 154.67 L708.16 161.42 L713.52 160.36 L715.69 164.41 L714.86 172.94 L718.67 174.28 L724.16 173.22 L730.86 170.56 L729.81 178.94 L737.12 175.63 L747.50 168.44 L749.23 173.00 L751.09 177.30 L752.74 181.80 L754.08 186.60 L756.97 189.44 L763.20 188.30 L763.14 194.62 L769.40 193.60 L777.54 190.64 L779.78 194.36 L782.20 197.84 L784.50 201.41 L788.42 203.29 L790.10 207.47 L788.03 215.32 L784.48 224.39 L784.76 229.59 L784.35 235.33 L781.63 243.07 L786.87 243.51 L792.86 243.37 L792.02 249.22 L801.39 246.37 L814.08 241.01 L811.49 248.34 L816.08 249.81 L821.54 250.68 L825.39 252.87 L828.90 255.35 L828.65 260.60 L835.15 260.96 L841.15 261.79 L845.33 263.97 L847.80 267.35 L849.77 271.06 L851.33 275.03 L854.27 278.11 L852.93 283.83 L848.57 291.27 L852.25 293.82 L855.66 296.57 L851.92 303.36 L850.81 308.55 L856.67 309.96 L864.53 310.43 L860.62 317.02 L865.53 319.10 L880.37 316.47 L881.07 320.81 L880.29 325.80 L879.50 330.73 L879.33 335.33 L877.82 340.46 L885.83 341.60 L883.74 346.93 L885.24 350.78 L896.53 350.95 L898.13 354.87 L898.24 359.33 L899.09 363.50 L901.14 367.27 L901.99 371.43 L895.66 377.80 L889.75 383.88 L886.09 389.16 L884.11 393.88 L877.51 399.75 L880.28 403.08 L889.87 404.78 L896.22 407.41 L903.77 409.90 L917.21 411.27 L921.30 414.79 L923.83 418.68 L925.68 422.74 L926.81 426.93 L927.46 431.21 L927.66 435.56 L928.15 439.86 L928.34 444.19 L928.84 448.48 L930.18 452.68 L931.33 456.92 L932.58 461.16 L933.82 465.41 L933.33 469.81 L932.81 474.19 L932.51 478.55 L931.32 482.93 L930.70 487.27 L931.14 491.57 L932.30 495.87 L949.92 500.00 L952.55 495.47 L953.09 490.94 L952.82 486.41 L951.32 481.94 L948.97 477.53 L948.88 473.04 L947.44 468.63 L946.44 464.21 L947.21 459.64 L946.33 455.22 L946.07 450.73 L945.67 446.26 L943.51 442.02 L941.61 437.77 L940.54 433.42 L939.05 429.15 L938.02 424.81 L937.41 420.40 L937.14 415.93 L937.90 411.23 L940.31 406.15 L951.07 399.13 L955.84 393.27 L960.48 387.31 L966.78 380.81 L966.77 375.83 L957.25 373.45 L952.52 369.88 L946.09 366.88 L937.23 364.75 L928.57 362.72 L926.47 358.67 L925.36 354.30 L923.07 350.34 L919.77 346.77 L917.97 342.68 L926.27 334.67 L923.37 330.90 L917.38 328.43 L922.41 321.41 L916.87 318.82 L912.78 315.66 L908.47 312.67 L903.65 309.97 L900.57 306.50 L911.65 296.05 L911.27 291.09 L903.86 289.75 L907.03 282.90 L908.47 276.85 L902.13 275.06 L894.26 274.26 L893.57 269.40 L891.62 265.25 L882.82 265.29 L876.98 263.65 L874.94 259.68 L871.56 256.56 L868.41 253.33 L865.84 249.72 L865.06 244.85 L865.84 238.82 L866.32 232.91 L860.61 231.51 L859.19 226.94 L856.64 223.21 L857.02 217.15 L855.99 212.13 L847.28 213.38 L855.10 200.90 L858.42 191.92 L851.32 191.86 L851.52 185.42 L850.40 180.05 L841.67 181.70 L835.51 181.12 L829.46 180.53 L819.30 184.13 L811.30 185.82 L806.90 184.00 L804.26 180.39 L800.10 178.38 L795.98 176.37 L791.86 174.39 L793.66 165.71 L792.53 160.21 L785.93 161.08 L785.69 154.41 L781.42 152.56 L775.66 152.62 L770.79 151.66 L765.72 151.04 L760.51 150.69 L763.91 138.64 L763.94 130.91 L755.59 134.93 L755.55 127.11 L753.74 121.69 L749.70 119.54 L741.72 123.55 L737.07 122.54 L734.68 117.91 L727.78 120.69 L721.14 123.27 L717.70 120.48 L713.17 119.62 L708.73 118.64 L704.06 118.16 L700.90 114.85 L698.14 110.70 L697.75 101.67 L692.54 102.22 L687.88 101.75 L685.12 97.19 L682.10 93.09 L679.20 88.59 L672.92 91.91 L671.91 82.74 L671.98 70.40 L666.49 71.75 L663.01 67.98 L660.19 62.24 L654.04 65.65 L647.98 69.11 L642.47 71.21 L635.47 78.24 L629.52 82.49 L624.18 85.06 L620.16 83.37 L615.82 82.81 L611.30 82.97 L606.41 84.64 L603.11 80.11 L600.97 70.29 L595.53 74.37 L591.85 70.73 L587.79 68.66 L582.80 71.30 L578.09 72.80 L573.39 74.49 L568.56 77.33 L565.55 68.64 L562.43 59.50 L557.35 64.01 L553.20 61.71 L549.37 56.23 L545.07 54.35 L539.95 61.21 L535.07 66.88 L531.18 60.28 L526.48 65.04 L521.75 72.14 L517.47 72.14 L513.16 72.79 L508.88 73.08 L504.58 75.86 L500.34 74.45 L496.07 72.91 L491.64 64.74 L487.31 65.50 L483.15 70.32 L478.58 64.97 L474.25 65.54 L469.64 62.01 L465.42 64.29 L460.94 63.31 L455.22 50.09 L450.67 50.12 L446.28 51.48 L441.21 47.52 L436.93 49.89 L433.41 57.02 L429.56 61.29 L426.48 69.63 L423.46 77.45 L420.28 83.70 L416.08 84.29 L412.09 85.93 L407.96 86.88 L404.49 90.61 L400.24 90.93 L393.18 80.26 L390.21 85.95 L386.24 87.67 L380.76 84.09 L377.91 89.69 L374.36 92.68 L370.94 95.99 L368.25 101.36 L363.06 99.16 L355.10 89.34 L351.83 93.09 L348.29 95.96 L342.07 91.85 L337.18 91.40 L335.43 98.72 L334.03 106.56 L328.07 103.57 L325.34 108.06 L324.71 116.98 L321.80 120.70 L318.08 122.63 L314.32 124.49 L311.46 128.11 L307.69 129.89 L302.77 129.52 L296.39 126.60 L292.11 127.65 L290.83 134.00 L284.63 131.75 L281.87 135.44 L275.53 133.23 L271.75 135.29 L271.59 143.02 L263.03 137.68 L257.42 137.07 L258.40 146.25 L254.21 147.73 L248.70 147.40 L244.46 148.93 L242.86 154.05 L241.34 159.18 L238.75 162.83 L239.08 170.13 L238.19 175.71 L235.97 179.57 L234.56 184.35 L232.14 187.86 L229.80 191.43 L220.85 187.57 L217.85 190.50 L216.29 194.97 L206.54 190.75 L205.43 195.73 L204.30 200.62 L202.81 205.07 L200.51 208.67 L198.37 212.40 L190.98 211.20 L185.03 211.49 L181.94 214.45 L177.46 216.20 L169.31 214.84 L166.96 218.58 L169.76 226.56 L168.40 230.98 L168.53 236.53 L172.72 245.16 L175.96 252.85 L176.19 258.11 L174.25 261.69 L172.63 265.50 L171.34 269.51 L168.75 272.60 L161.07 272.29 L153.46 272.17 L152.22 276.30 L146.23 277.42 L142.24 279.87 L135.90 280.96 L131.90 283.54 L135.68 290.63 L127.11 290.64 L115.90 289.37 L117.32 295.10 L114.94 298.75 L105.25 298.69 L106.35 304.19 L109.51 310.61 L113.74 317.40 L118.33 324.22 L123.91 331.33 L127.74 337.50 L127.31 341.73 L128.92 346.77 L128.76 351.04 L128.20 355.11 L120.85 356.60 L115.77 359.05 L118.02 364.20 L108.12 365.07 L106.80 369.00 L108.89 374.03 L109.32 378.47 L108.90 382.61 L108.58 386.77 L100.75 388.82 L93.50 391.17 L93.97 395.63 L87.39 398.33 L84.41 401.99 L81.71 405.76 L88.27 411.56 L92.94 416.81 L95.11 421.46 L101.07 426.75 L109.03 432.25 L113.43 436.98 L114.23 441.07 L113.84 444.95 L114.30 448.95 L114.74 452.92 L110.82 456.39 L97.55 458.97 L99.70 463.23 L99.50 467.25 L95.51 470.99 L91.20 474.79 L87.48 478.70 L92.51 483.04 L81.89 486.79 L69.72 490.71 L73.51 495.06 L69.25 499.31 L64.80 503.66 L69.38 507.93 L73.87 512.11 L81.30 516.09 L88.84 519.92 L95.33 523.66 L101.37 527.31 L104.92 531.04 L106.78 534.85 L107.86 538.71 L108.65 542.59 L107.12 546.74 L98.94 551.78 L102.56 555.36 L99.35 559.90 L97.03 564.37 L101.19 567.81 L104.22 571.37 L106.00 575.12 L107.76 578.86 L103.76 583.80 L97.97 589.23 L101.69 592.59 L102.54 596.59 L99.16 601.67 L98.11 606.23 L106.97 608.10 L113.86 610.37 L111.91 615.14 L118.05 617.49 L126.53 618.98 L131.23 621.55 L132.66 625.17 L131.85 629.57 L132.38 633.53 L132.01 637.85 L131.46 642.27 L124.17 649.42 L126.42 652.87 L131.72 655.01 L129.03 660.53 L130.59 664.26 L128.61 669.61 L131.52 672.76 L132.85 676.63 L123.89 685.60 L125.86 689.30 L129.87 691.95 L126.91 698.24 L130.74 700.97 L138.28 701.58 L144.09 703.03 L152.56 702.83 L160.66 702.68 L166.95 703.47 L170.37 705.93 L174.40 707.97 L177.48 710.57 L179.67 713.74 L182.38 716.56 L175.40 726.10 L179.55 728.00 L181.41 731.51 L178.33 738.70 L183.62 739.72 L188.30 741.12 L191.91 743.29 L195.05 745.80 L195.72 750.32 L191.60 758.93 L193.98 762.19 L198.01 764.02 L198.67 768.80 L199.06 773.91 L206.93 772.15 L215.87 769.19 L216.20 774.31 L221.61 774.52 L229.21 772.43 L235.00 771.99 L239.10 773.19 L242.26 775.34 L245.23 777.68 L248.75 779.41 L252.02 781.38 L247.83 791.97 L249.08 796.47 L255.57 794.72 L254.30 802.35 L257.82 804.18 L257.57 810.83 L260.28 813.77 L266.43 812.15 L258.85 829.08 L259.41 835.31 L265.67 833.57 L266.19 840.02 L267.08 846.09 L274.06 843.06 L279.05 842.91 L283.01 844.27 L289.20 841.98 L294.88 840.35 L298.28 842.41 L302.06 843.81 L305.33 846.09 L309.52 846.70 L312.83 848.89 L314.50 854.25 L319.29 853.66 L323.31 854.50 L326.10 857.82 L330.37 858.09 L333.97 859.75 L337.61 861.31 L343.05 858.77 L348.29 856.45 L348.50 866.08 L352.24 867.40 L357.12 865.79 L358.68 872.74 L361.16 877.54 L365.61 877.05 L370.40 875.43 L373.88 877.57 L377.63 878.90 L382.65 876.17 L386.81 876.02 L390.63 876.96 L394.39 878.07 L398.57 877.67 L402.32 878.78 L405.77 881.11 L409.03 884.36 L412.64 886.31 L417.76 881.38 L421.50 882.56 L425.95 880.14 L431.55 871.14 L435.84 868.49 L437.97 878.63 L440.73 885.91 L443.83 891.80 L446.79 899.60 L450.14 905.34 L454.05 907.13 L458.75 901.44 L463.13 897.89 L467.16 897.69 L471.47 893.40 L475.73 888.48 L479.67 887.75 L483.54 888.18 L487.43 888.06 L491.34 886.66 L495.21 886.75 L499.07 891.35 L502.96 888.43 L506.83 887.61 L510.76 889.64 L514.58 887.48 L518.45 887.26 L522.31 886.88 L525.96 883.31 L529.31 876.95 L533.59 882.39 L537.81 886.16 L541.00 879.51 L545.44 884.55 L549.97 889.48 L553.90 889.21 L557.22 884.85 L561.01 883.85 L565.04 884.39 L568.21 879.99 L571.67 877.50 L575.58 877.46 L579.13 875.64 L582.60 873.58 L586.32 872.69 L590.27 872.71 L594.06 872.06 L598.87 875.28 L601.35 869.65 L604.04 865.09 L607.44 863.22 L610.81 861.27 L614.94 861.79 L616.60 854.69 L623.44 863.21 L630.91 872.91 L632.90 866.79 L637.92 869.09 L643.28 872.04 L646.26 868.74 L647.98 862.47 L650.85 859.18 L652.47 853.12 L653.96 846.98 L656.69 843.81 L660.02 842.03 L663.06 839.63 L666.40 837.87 L669.57 835.81 L673.91 836.01 L677.14 834.02 L680.02 831.41 L684.94 832.50 L687.22 828.80 L689.68 825.52 L692.64 823.12 L695.57 820.70 L695.48 813.46 L699.80 813.36 L706.99 817.59 L707.05 810.83 L710.65 809.49 L717.45 812.71 L721.94 812.46 L722.68 806.94 L723.92 802.26 L728.90 802.60 L730.09 797.94 L731.53 793.68 L733.98 790.76 L736.31 787.72 L739.29 785.48 L741.73 782.60 L744.87 780.54 L747.08 777.43 L754.73 780.32 L755.26 775.32 L753.44 767.94 L757.46 766.79 L758.90 762.96 L763.01 761.85 L763.67 757.31 L768.12 756.46 L780.56 763.04 L782.80 759.88 L785.06 756.74 L791.70 757.49 L794.87 755.09 L792.55 748.01 L793.04 743.43 L792.84 738.35 L790.77 731.88 L791.18 727.47 L793.04 724.24 L794.29 720.57 L796.98 717.99 L798.38 714.45 L800.61 711.53 L804.96 710.06 L805.54 705.99 L808.39 703.46 L810.87 700.66 L811.28 696.54 L812.41 692.91 L814.33 689.78 L811.49 683.84 L814.14 681.20 L822.56 681.78 L821.30 676.86 L821.65 672.88 L829.44 672.85 L833.58 670.78 L832.48 666.05 L830.42 660.91 L834.52 658.79 L834.50 654.70 L833.42 650.17 L834.04 646.45 L834.67 642.75 L836.27 639.48 L836.79 635.77 L838.58 632.56 L840.65 629.46 L844.98 627.17 L846.90 623.96 L841.50 618.19 L842.02 614.55 L841.31 610.53 L844.88 607.89 L845.52 604.31 L842.54 599.68 L857.50 600.17 L862.04 597.55 L859.91 593.12 L865.55 590.69 L866.77 587.11 L860.73 581.87 L858.08 577.52 L852.21 572.57 L845.18 567.53 L840.72 563.12 L839.99 559.48 L838.44 555.72 L837.45 552.10 L837.71 548.69 L837.72 545.25 L846.98 542.96 L847.67 539.52 L844.65 535.69 L852.87 532.98 L849.64 529.15 L845.23 525.31 L840.88 521.57 L839.80 518.09 L838.09 514.61 L849.96 511.62 L855.29 508.24 L849.75 504.61 L854.04 501.13 L859.05 497.55 L853.83 494.05 L845.07 490.74 L847.49 487.20 L847.08 483.74 L841.57 480.57 L836.49 477.48 L834.47 474.26 L833.79 470.95 L833.40 467.62 L833.12 464.28 L832.71 460.96 L839.20 456.75 L842.56 452.84 L838.86 449.89 L841.87 445.95 L840.68 442.64 L845.10 438.34 L846.73 434.46 L838.10 432.58 L848.64 426.85 L856.86 421.39 L850.87 419.02 L853.89 414.59 L857.95 409.81 L851.83 407.61 L845.92 405.45 L841.15 403.08 L829.83 402.72 L821.64 401.63 L818.28 399.16 L814.64 396.84 L811.57 394.39 L810.57 391.25 L809.87 388.01 L814.92 382.61 L817.59 377.98 L812.31 376.41 L818.01 370.46 L815.92 367.62 L810.36 366.28 L806.53 364.28 L804.74 361.41 L802.40 358.81 L808.55 352.16 L813.19 346.07 L806.72 345.42 L808.74 340.51 L810.41 335.70 L808.26 332.87 L799.01 333.99 L795.52 332.04 L793.92 329.04 L788.49 328.32 L782.24 328.19 L778.10 326.88 L775.59 324.59 L773.97 321.75 L772.39 318.87 L770.74 316.04 L769.16 313.15 L768.34 309.72 L768.26 305.72 L764.31 304.52 L761.17 302.77 L759.57 299.87 L754.69 299.54 L751.02 298.33 L756.71 289.50 L761.16 281.44 L761.00 277.10 L767.20 267.15 L769.53 260.34 L763.30 261.11 L757.43 261.71 L751.72 262.27 L742.38 266.47 L736.12 267.90 L732.03 267.31 L728.44 266.28 L725.16 264.98 L722.08 263.51 L719.56 261.46 L718.67 257.60 L721.18 249.83 L716.24 250.44 L716.02 245.60 L714.53 242.16 L708.70 244.01 L703.27 245.52 L699.46 245.10 L695.68 244.71 L695.93 239.02 L700.73 226.98 L701.01 220.79 L701.55 214.06 L699.24 211.25 L694.86 211.46 L688.59 214.63 L681.17 219.82 L674.21 224.57 L671.26 223.14 L672.08 215.50 L669.30 213.68 L664.05 216.10 L662.38 212.40 L658.43 212.72 L652.34 217.12 L647.35 219.69 L648.52 210.49 L645.51 209.22 L641.04 210.97 L640.23 205.18 L636.47 205.53 L630.62 210.61 L626.75 211.52 L626.29 204.57 L626.98 194.56 L625.34 189.79 L625.35 180.59 L624.89 172.15 L620.66 173.51 L615.30 178.13 L610.81 180.64 L604.61 188.48 L599.16 194.64 L594.70 198.13 L591.20 198.77 L587.44 200.43 L584.19 200.45 L581.28 199.30 L578.23 198.65 L578.25 185.65 L574.46 187.58 L571.50 186.11 L569.56 179.92 L565.27 184.47 L561.16 188.65 L557.60 190.47 L554.22 191.48 L551.54 188.49 L550.03 177.69 L546.95 176.15 L543.53 177.03 L540.88 171.97 L538.00 168.04 L533.93 174.85 L529.85 183.35 L527.15 177.44 L523.69 180.36 L520.11 186.16 L516.75 190.05 L513.61 190.81 L510.54 190.04 L507.42 190.79 L504.33 190.08 L501.23 191.06 L498.08 181.30 L494.88 180.37 L491.83 186.18 L488.42 178.55 L485.23 179.24 L481.76 174.68 L478.43 173.74 L475.49 178.23 L471.95 174.66 L468.94 177.54 L466.63 186.43 L463.90 190.20 L461.05 192.57 L457.87 192.17 L455.01 194.09 L452.12 195.62 L449.24 197.08 L446.51 199.23 L443.76 201.15 L440.90 202.36 L438.38 205.17 L435.69 206.93 L432.83 207.90 L429.61 207.33 L426.94 209.05 L423.80 208.90 L420.73 209.07 L418.32 211.62 L415.54 212.81 L412.64 213.55 L410.37 216.30 L407.46 216.98 L403.92 215.81 L401.08 216.76 L398.29 217.87 L394.41 216.06 L391.71 217.46 L388.78 218.30 L386.37 220.40 L384.21 223.05 L381.57 224.52 L379.21 226.59 L377.23 229.46 L374.78 231.24 L372.03 232.36 L369.86 234.67 L367.76 237.08 L364.04 236.29 L361.60 238.02 L359.41 240.20 L355.77 239.73 L353.99 242.62 L352.14 245.32 L349.62 246.85 L348.01 249.87 L346.39 252.81 L341.55 250.61 L338.93 252.01 L336.74 254.06 L332.07 252.43 L329.37 253.78 L326.52 254.94 L324.34 257.05 L322.37 259.43 L320.03 261.29 L318.99 264.84 L318.08 268.49 L317.14 272.02 L314.81 273.78 L313.38 276.64 L311.74 279.20 L308.11 279.45 L304.92 280.26 L302.58 282.06 L299.96 283.55 L298.54 286.34 L297.21 289.19 L295.88 292.02 L295.47 295.72 L294.47 298.79 L289.98 298.47 L287.51 300.14 L285.73 302.47 L282.15 303.16 L280.18 305.34 L278.94 308.15 L276.70 310.08 L276.52 313.76 L275.30 316.51 L273.01 318.40 L272.17 321.43 L271.49 324.55 L269.34 326.54 L268.48 329.49 L268.13 332.79 L265.30 334.29 L264.20 337.02 L263.56 340.05 L260.01 341.12 L259.59 344.28 L258.30 346.86 L256.99 349.41 L256.61 352.52 L255.50 355.17 L250.96 355.83 L248.37 357.67 L247.60 360.54 L242.82 361.24 L240.72 363.44 L238.52 365.60 L237.21 368.23 L237.14 371.47 L235.71 374.03 L235.80 377.30 L236.45 380.79 L236.50 383.98 L236.61 387.16 L236.32 390.14 L236.21 393.17 L235.50 395.95 L234.61 398.66 L234.29 401.57 L232.83 404.06 L232.54 406.96 L231.87 409.72 L231.83 412.68 L232.13 415.73 L231.55 418.49 L227.91 420.35 L224.81 422.42 L223.33 424.98 L219.55 426.96 L217.21 429.36 L216.42 432.17 L216.79 435.25 L216.52 438.16 L216.87 441.20 L217.30 444.23 L217.27 447.15 L217.24 450.07 L216.48 452.86 L216.28 455.73 L215.79 458.56 L214.30 461.26 L215.20 464.28 L216.68 467.34 L216.89 470.23 L218.44 473.23 L218.95 476.12 L220.13 479.03 L221.35 481.92 L221.71 484.74 L221.37 487.52 L220.09 490.26 L219.85 493.06 L218.89 495.85 L217.40 498.65 L217.13 501.48 L217.80 504.30 L217.99 507.11 L217.97 509.94 L218.55 512.74 L219.22 515.52 L219.22 518.34 L220.84 521.04 L220.19 523.90 L220.20 526.72 L220.68 529.50 L220.08 532.40 L220.80 535.15 L220.77 537.99 L221.92 540.67 L221.96 543.51 L222.92 546.20 L224.05 548.85 L224.39 551.64 L225.50 554.28 L227.13 556.80 L228.29 559.40 L228.01 562.31 L229.90 564.73 L229.49 567.70 L230.12 570.41 L230.60 573.17 L231.26 575.89 L232.53 578.43 L232.82 581.25 L233.99 583.81 L232.06 587.37 L232.07 590.34 L232.72 593.11 L231.86 596.43 L233.37 598.91 L235.51 601.13 L238.37 603.05 L241.43 604.85 L242.64 607.36 L244.61 609.55 L248.05 611.07 L248.51 613.89 L248.36 617.00 L240.48 623.84 L238.71 627.91 L241.84 629.59 L237.88 634.88 L240.84 636.65 L248.71 635.73 L244.09 641.54 L244.83 644.49 L251.02 644.29 L248.40 649.19 L251.78 650.56 L261.04 648.23 L255.99 654.76 L256.52 657.86 L263.44 656.76 L259.58 662.80 L259.40 666.46 L260.18 669.49 L264.29 670.14 L270.37 669.27 L268.92 673.93 L272.91 674.51 L282.31 670.78 L286.31 671.12 L278.12 681.35 L279.93 683.57 L285.11 682.93 L281.70 689.63 L281.68 693.51 L282.93 696.31 L287.90 695.71 L290.82 696.92 L290.74 700.98 L298.99 696.96 L305.47 694.46 L308.27 695.53 L305.69 702.17 L304.79 707.21 L310.18 705.57 L310.02 709.92 L310.51 713.64 L312.11 716.14 L316.35 715.59 L319.41 716.34 L313.61 727.88 L315.59 730.12 L318.98 730.58 L324.22 728.57 L322.78 735.28 L323.97 738.62 L333.90 729.94 L335.35 732.81 L337.43 734.81 L344.66 729.24 L344.59 734.34 L344.95 738.95 L351.70 733.64 L351.26 739.59 L353.00 742.16 L360.79 734.59 L360.80 740.00 L361.15 745.02 L367.74 738.92 L367.26 745.55 L368.19 749.78 L369.95 752.53 L372.84 753.10 L378.80 747.36 L379.70 751.89 L382.12 753.29 L388.60 745.77 L394.08 740.03 L391.96 751.63 L392.64 757.11 L398.55 749.95 L398.39 757.70 L399.47 762.64 L401.78 764.48 L404.90 764.15 L409.14 760.51 L410.25 765.85 L414.88 760.73 L419.87 754.00 L422.82 753.46 L424.31 757.80 L425.13 764.78 L428.80 761.76 L430.87 764.57 L432.58 768.98 L434.86 771.39 L438.04 770.02 L441.90 765.31 L441.93 778.47 L444.08 782.28 L447.55 779.39 L450.55 778.74 L452.94 781.62 L455.01 786.86 L459.11 778.93 L461.83 779.83 L464.48 781.35 L468.23 773.65 L470.87 774.86 L473.20 779.60 L476.52 773.67 L478.96 777.91 L481.53 781.33 L484.88 771.72 L487.55 772.94 L490.07 778.99 L493.05 771.83 L495.70 776.35 L498.44 780.52 L501.24 780.47 L504.02 778.72 L506.70 774.32 L509.54 777.02 L512.30 776.77 L514.89 773.35 L517.50 771.22 L520.51 775.01 L523.60 778.92 L526.06 775.21 L529.25 779.04 L532.04 778.79 L535.01 779.96 L537.55 777.67 L539.66 772.66 L542.84 775.21 L545.29 772.95 L547.18 767.75 L549.65 766.14 L552.32 765.70 L555.91 769.69 L558.04 766.50 L559.59 761.04 L562.44 761.45 L565.15 761.20 L567.57 759.83 L567.79 750.36 L571.06 752.42 L575.37 757.79 L578.34 758.35 L578.78 750.74 L582.24 752.89 L588.91 764.38 L590.16 759.48 L591.72 755.69 L595.60 758.34 L595.57 750.54 L597.26 747.51 L601.73 751.47 L602.89 747.19 L605.26 745.93 L610.25 750.62 L609.33 741.93 L610.29 737.71 L615.81 743.20 L616.38 738.22 L618.39 736.31 L624.54 742.51 L626.33 740.06 L628.79 738.91 L629.31 734.24 L631.78 733.17 L633.47 730.74 L633.38 725.35 L633.19 719.99 L635.57 718.94 L641.28 723.14 L642.81 720.65 L646.49 721.44 L651.91 724.73 L654.48 723.67 L656.76 722.19 L656.05 716.55 L660.09 717.54 L661.50 714.92 L660.50 709.20 L661.26 705.90 L662.96 703.84 L668.34 706.30 L670.25 704.44 L667.96 697.62 L669.36 695.28 L667.60 689.40 L663.27 680.82 L661.55 675.36 L667.20 677.89 L675.55 683.07 L679.88 683.87 L687.05 687.42 L687.20 683.85 L690.45 683.34 L690.48 679.73 L688.81 674.62 L690.80 672.95 L692.37 670.90 L694.68 669.50 L697.06 668.14 L697.78 665.36 L698.78 662.85 L699.83 660.40 L701.71 658.62 L702.83 656.24 L704.63 654.39 L704.89 651.40 L706.84 649.67 L711.49 649.83 L710.43 645.94 L710.93 643.19 L713.95 642.13 L714.30 639.30 L715.53 637.05 L716.63 634.73 L713.39 629.77 L712.69 626.45 L721.95 628.96 L720.61 625.25 L719.89 621.95 L726.78 622.82 L731.13 622.21 L730.14 618.75 L728.69 615.12 L731.60 613.70 L731.43 610.76 L729.26 606.91 L729.17 604.10 L730.00 601.71 L731.18 599.48 L730.94 596.66 L732.02 594.39 L734.27 592.59 L738.24 591.41 L738.66 588.84 L733.32 584.21 L734.26 581.91 L730.87 578.14 L733.37 576.40 L734.58 574.21 L727.75 569.55 L746.71 572.65 L753.35 571.86 L748.94 567.93 L754.33 566.67 L759.85 565.35 L754.25 561.24 L752.15 558.08 L752.04 555.40 L747.86 551.89 L743.08 548.36 L743.01 545.82 L743.55 543.41 L744.02 540.98 L742.76 538.27 L743.56 535.91 L748.31 534.07 L745.46 531.18 L744.99 528.64 L747.32 526.41 L745.49 523.73 L745.79 521.28 L745.89 518.82 L742.23 516.10 L736.70 513.36 L743.72 511.31 L746.69 508.98 L741.16 506.36 L747.44 504.05 L751.52 501.60 L751.49 499.09 L747.78 496.62 L748.07 494.14 L748.41 491.64 L744.64 489.32 L742.68 486.97 L743.08 484.51 L742.31 482.13 L740.61 479.83 L740.62 477.41 L741.37 474.90 L742.30 472.35 L744.96 469.56 L739.44 467.81 L736.63 465.78 L733.84 463.79 L733.98 461.37 L734.96 458.79 L727.19 457.81 L730.57 454.79 L732.63 451.96 L722.99 451.62 L716.08 450.86 L713.00 449.31 L711.44 447.44 L713.46 444.67 L712.51 442.64 L709.83 441.11 L709.82 438.84 L708.49 436.96 L706.08 435.43 L703.10 434.13 L702.64 432.03 L702.81 429.71 L706.35 426.16 L712.34 421.62 L708.03 420.84 L712.03 416.88 L712.04 414.42 L705.91 414.48 L701.02 414.15 L698.46 412.88 L695.84 411.69 L700.78 407.04 L708.37 400.98 L703.69 400.69 L703.63 398.19 L705.41 394.72 L707.45 391.04 L697.77 393.59 L692.12 394.14 L695.18 389.89 L690.59 389.96 L683.25 391.73 L679.60 391.45 L677.72 390.15 L676.19 388.64 L675.14 386.84 L674.36 384.86 L673.68 382.80 L683.30 373.62 L680.24 373.05 L677.47 372.33 L679.83 367.88 L679.74 365.16 L681.97 360.62 L677.72 361.03 L677.55 358.28 L686.94 347.71 L684.85 346.31 L682.00 345.57 L684.99 339.82 L683.28 338.07 L676.32 341.05 L671.25 342.49 L663.92 346.18 L656.06 350.59 L650.79 352.72 L648.23 352.29 L645.02 352.57 L643.10 351.59 L642.02 349.73 L640.55 348.27 L647.12 337.95 L642.28 340.11 L641.83 337.36 L643.38 332.23 L637.88 335.36 L634.45 336.15 L632.04 335.76 L630.21 334.69 L630.83 330.43 L634.80 321.64 L632.66 320.77 L629.89 320.79 L630.78 315.71 L630.72 311.83 L624.48 316.93 L618.30 322.22 L619.77 316.06 L615.53 318.63 L610.22 323.09 L606.66 324.93 L604.06 325.28 L602.17 324.49 L600.73 322.91 L598.91 321.98 L597.27 320.74 L600.53 310.24 L598.52 309.44 L593.61 314.41 L594.74 307.40 L592.13 307.89 L592.34 302.40 L590.34 301.53 L586.33 305.19 L590.11 291.06 L590.71 283.75 L586.90 286.87 L586.85 280.74 L586.12 276.08 L582.61 278.64 L577.90 284.71 L573.41 290.58 L569.20 296.09 L564.35 303.95 L561.28 306.82 L558.89 307.71 L556.64 308.21 L554.77 307.48 L552.70 307.46 L553.36 297.08 L550.92 298.18 L548.52 299.27 L548.64 289.60 L545.60 293.32 L543.02 295.34 L540.68 296.35 L538.48 296.80 L536.47 296.31 L535.93 287.09 L534.16 284.43 L531.37 288.39 L529.84 283.79 L528.16 279.73 L525.27 285.32 L522.27 292.99 L520.43 290.37 L518.15 292.32 L515.46 300.09 L513.08 305.51 L511.02 307.51 L509.23 304.55 L507.32 303.02 L505.38 302.04 L503.44 299.50 L501.49 292.25 L499.41 290.31 L497.35 293.68 L495.21 290.41 L493.14 291.23 L490.84 286.21 L488.65 285.41 L486.93 292.27 L484.09 282.00 L481.36 275.51 L479.64 281.26 L476.97 276.82 L474.17 272.06 L472.67 278.66 L471.24 284.78 L469.55 288.30 L468.81 297.50 L467.94 304.85 L466.44 307.75 L464.88 310.08 L463.29 312.01 L461.45 312.53 L459.66 313.32 L456.22 306.77 L453.78 305.09 L452.64 308.81 L448.51 300.70 L446.98 302.94 L445.81 306.33 L444.47 308.92 L442.71 309.99 L441.15 311.64 L436.48 303.62 L433.42 300.97 L432.82 305.66 L429.52 302.54 L426.67 300.85 L425.48 303.70 L426.81 312.87 L425.67 315.41 L424.15 316.96 L424.34 322.44 L424.91 328.56 L424.18 331.51 L422.67 332.63 L421.38 334.23 L420.23 336.06 L418.59 336.85 L414.92 333.68 L409.55 327.46 L409.04 330.63 L407.03 330.95 L404.40 330.22 L400.47 327.31 L397.17 325.63 L399.26 333.01 L392.17 325.24 L384.48 316.90 L388.78 327.56 L387.87 329.90 L384.81 329.01 L386.38 334.93 L384.39 335.58 L379.83 332.67 L381.30 338.16 L378.58 337.88 L375.61 337.33 L379.62 345.79 L376.49 345.00 L377.16 348.98 L380.00 355.44 L372.75 349.79 L373.96 354.20 L376.56 360.06 L369.89 355.44 L369.39 357.77 L372.52 363.94 L365.16 358.94 L366.71 363.32 L370.46 369.79 L363.69 365.70 L356.50 361.42 L359.88 367.37 L355.91 366.31 L351.74 365.18 L348.72 365.17 L348.34 367.53 L352.03 373.34 L348.04 372.53 L347.59 374.73 L354.40 382.75 L356.33 386.65 L351.15 384.96 L349.89 386.37 L353.02 391.03 L346.41 388.50 L346.91 391.18 L350.69 396.09 L349.74 397.65 L349.76 399.85 L340.98 396.28 L334.58 394.44 L331.15 394.62 L326.79 394.29 L325.75 396.03 L319.38 394.67 L325.00 400.27 L329.56 405.12 L326.16 405.49 L330.31 409.93 L331.69 412.81 L325.64 411.88 L326.74 414.60 L327.57 417.14 L322.94 417.08 L328.56 421.80 L329.62 424.33 L328.77 425.99 L334.57 430.45 L328.39 429.87 L327.69 431.58 L333.08 435.65 L328.38 435.80 L325.15 436.58 L331.12 440.65 L322.98 439.77 L317.64 439.98 L328.02 445.30 L324.18 446.00 L312.75 444.54 L318.47 448.20 L321.15 450.89 L314.54 451.07 L312.58 452.55 L311.55 454.29 L319.54 458.13 L316.33 459.32 L314.75 460.91 L323.76 464.65 L328.72 467.42 L325.76 468.66 L322.10 469.84 L327.98 472.60 L324.37 473.82 L322.04 475.29 L326.82 477.72 L329.62 479.81 L331.71 481.76 L322.19 482.53 L315.90 483.76 L314.55 485.51 L307.10 486.87 L306.89 488.79 L298.80 490.34 L301.44 492.46 L307.01 494.60 L303.86 496.48 L308.29 498.47 L314.18 500.38 L306.60 502.33 L309.02 504.21 L312.11 506.02 L306.26 508.15 L311.34 509.83 L316.63 511.39 L311.01 513.64 L317.92 514.97 L317.33 516.86 L312.38 519.21 L317.75 520.50 L320.57 522.01 L313.34 524.79 L320.39 525.68 L320.25 527.54 L315.94 530.09 L317.88 531.64 L319.00 533.32 L312.66 536.43 L313.25 538.25 L315.39 539.74 L311.92 542.46 L312.36 544.34 L311.97 546.42 L316.09 547.36 L316.66 549.17 L315.64 551.43 L321.41 551.75 L324.96 552.62 L326.23 554.14 L323.93 556.80 L329.58 556.86 L333.92 557.26 L333.37 559.33 L341.00 558.41 L346.67 558.07 L347.30 559.58 L344.73 562.38 L336.40 567.64 L334.34 570.44 L330.36 574.14 L333.26 574.87 L326.09 580.19 L326.85 581.94 L336.08 579.59 L333.40 582.97 L335.78 583.84 L343.73 581.76 L338.19 586.73 L339.44 588.14 L345.57 586.79 L340.78 591.60 L342.71 592.59 L352.28 588.96 L347.29 594.06 L352.08 593.16 L355.68 592.92 L350.27 598.54 L353.71 598.38 L360.32 595.98 L354.00 602.48 L358.54 601.43 L361.86 601.15 L360.78 604.10 L365.20 602.91 L371.06 600.49 L364.20 608.04 L364.66 609.90 L369.58 608.09 L363.00 615.87 L361.14 619.84 L362.13 621.42 L364.56 621.70 L367.65 621.34 L366.23 625.13 L371.08 623.03 L375.30 621.41 L377.34 621.83 L377.01 624.63 L380.32 623.73 L385.78 620.47 L386.08 622.59 L390.69 620.01 L395.48 617.08 L397.29 617.40 L397.95 619.03 L391.96 628.59 L391.26 632.08 L390.19 636.14 L390.83 638.14 L389.44 642.81 L388.42 647.15 L395.18 641.15 L395.52 643.67 L397.12 644.48 L402.76 639.50 L403.28 641.76 L402.66 645.77 L407.61 641.40 L406.07 646.95 L406.85 648.99 L413.37 641.69 L413.18 645.24 L417.56 641.10 L424.89 631.56 L422.90 638.23 L426.93 634.15 L430.97 629.80 L428.27 638.20 L430.42 637.40 L434.67 632.28 L432.52 640.15 L436.46 635.41 L440.50 630.17 L438.28 638.67 L436.21 647.26 L439.20 644.30 L438.53 650.06 L438.65 654.15 L439.54 656.44 L441.38 656.33 L445.32 650.39 L445.57 654.49 L447.66 653.43 L452.24 644.71 L454.70 642.03 L454.76 646.90 L456.33 647.00 L459.24 642.40 L458.87 649.35 L460.99 647.37 L463.83 642.38 L465.26 642.75 L467.13 641.17 L466.33 651.45 L466.56 657.83 L467.70 660.37 L468.55 664.61 L469.91 666.52 L470.43 673.53 L473.34 666.48 L475.33 664.58 L476.48 668.44 L479.12 661.25 L480.91 659.97 L481.94 665.43 L484.04 661.12 L485.61 661.67 L486.78 667.51 L489.05 658.95 L490.69 658.21 L492.16 660.60 L494.04 653.74 L495.43 658.72 L496.96 661.90 L498.64 654.88 L500.19 656.38 L501.80 659.71 L503.26 653.40 L504.94 658.01 L506.69 662.11 L507.82 652.54 L509.44 654.01 L511.63 663.01 L512.64 655.30 L514.30 656.34 L516.46 661.98 L518.36 664.38 L519.94 663.69 L520.73 657.07 L522.87 660.84 L524.34 659.68 L525.15 654.60 L526.13 651.09 L527.62 650.70 L529.83 654.06 L529.78 645.98 L530.37 641.62 L531.93 641.95 L531.28 632.87 L531.41 627.65 L532.17 625.33 L536.21 635.45 L539.46 641.89 L539.71 637.44 L543.47 645.03 L545.75 647.26 L548.55 650.92 L549.67 649.26 L550.69 647.39 L553.90 651.78 L553.67 646.46 L553.23 640.89 L557.27 647.12 L557.72 644.00 L558.29 641.30 L562.02 646.19 L561.38 640.74 L560.85 635.81 L564.40 639.95 L562.94 633.27 L564.67 633.45 L568.27 637.38 L566.80 631.10 L566.78 627.89 L571.92 634.43 L569.75 627.30 L571.13 626.79 L575.09 630.77 L575.85 629.08 L576.67 627.54 L581.57 632.68 L582.69 631.53 L583.03 629.18 L586.73 632.02 L587.77 630.73 L589.65 630.69 L588.79 626.70 L590.31 626.17 L592.12 626.01 L590.22 620.86 L589.42 617.33 L590.34 616.11 L593.11 617.22 L590.86 612.07 L589.38 608.02 L591.21 608.02 L586.95 600.90 L583.92 595.44 L585.38 595.17 L588.97 597.20 L595.90 602.69 L599.65 604.58 L604.65 607.65 L603.79 604.66 L604.01 602.81 L602.03 598.85 L596.87 591.98 L594.05 587.54 L594.13 585.88 L594.66 584.64 L594.82 583.09 L594.98 581.56 L595.22 580.13 L595.10 578.42 L594.85 576.63 L594.71 574.97 L594.64 573.39 L594.66 571.90 L594.91 570.60 L595.11 569.28 L595.44 568.07 L595.68 566.81 L596.12 565.70 L596.66 564.66 L596.63 563.25 L596.59 561.85 L597.05 560.78 L596.89 559.34 L596.69 557.90 L596.97 556.76 L597.73 555.90 L599.50 555.60 L598.99 554.02 L599.51 553.02 L601.42 552.74 L601.43 551.47 L600.96 549.97 L600.79 548.63 L601.50 547.73 L600.47 546.02 L599.29 544.29 L598.71 542.85 L598.67 541.66 L598.70 540.52 L598.76 539.39 L598.95 538.33 L599.13 537.26 L599.32 536.20 L599.45 535.13 L599.57 534.06 L599.66 532.98 L599.69 531.89 L599.69 530.79 L599.69 529.70 L599.73 528.63 L599.74 527.56 L599.76 526.49 L599.77 525.43 L599.76 524.37 L599.77 523.31 L599.77 522.26 L599.76 521.22 L599.77 520.18 L599.78 519.14 L599.77 518.11 L599.75 517.08 L599.73 516.05 L599.70 515.02 L599.65 514.00 L599.60 512.98 L599.54 511.96 L599.47 510.94 L599.38 509.93 L599.29 508.92 L599.19 507.91 L599.08 506.90 L598.96 505.90 L598.83 504.90 L598.69 503.91 L598.54 502.91 L598.38 501.92 L598.22 500.94 Z"/>
  <svg class="pausebutton" id="pausebutton">
    <circle cx="500" cy="500" id="pausestart" class="pausestart" r="52.65"/>
    <rect height="50.02" width="10.00" y="473.68" rx="2.00" ry="2.00" x="479.99" class="pausesymbol"/>
    <rect height="50.02" width="10.00" y="473.68" rx="2.00" ry="2.00" x="510.00" class="pausesymbol"/>
    <polygon points="530.01,500 479.99,530.01 479.99,469.99" class="playsymbol"/>
  </svg>
  <polygon id="playback-head" class="playback-head" points="941.65,500 921.65,540 961.65,540"/>
</svg>