<?xml-stylesheet href="../../style/waveformjs.css" type="text/css"?>
<svg xmlns="http://www.w3.org/2000/svg" xmlns:xlink="http://www.w3.org/1999/xlink" width="100%" height="100%" viewBox="0 0 1000 1000">
  <path class="svg-wave" id="sp" d="M598.05 500.00 L598.22 500.98 L598.39 501.97 L598.55 502.96 L598.70 503.95 L598.83 504.95 L598.96 505.94 L599.08 506.95 L599.18 507.95 L599.28 508.96 L599.36 509.97 L599.44 510.98 L599.50 512.00 L599.55 513.02 L599.59 514.03 L599.63 515.06 L599.65 516.08 L599.65 517.11 L599.65 518.13 L599.64 519.16 L599.62 520.19 L599.58 521.22 L599.53 522.26 L599.47 523.29 L599.40 524.33 L599.32 525.36 L599.23 526.40 L599.12 527.43 L599.00 528.47 L598.87 529.50 L598.72 530.54 L598.56 531.57 L598.39 532.61 L598.20 533.64 L598.01 534.67 L597.79 535.70 L597.56 536.72 L597.32 537.75 L597.05 538.76 L596.78 539.78 L596.48 540.79 L596.17 541.80 L595.83 542.80 L595.48 543.79 L595.11 544.78 L594.72 545.76 L594.29 546.71 L593.85 547.67 L593.37 548.61 L592.87 549.54 L592.32 550.44 L591.72 551.30 L591.08 552.15 L590.36 552.94 L589.03 553.37 L587.44 553.61 L586.33 554.12 L584.93 554.44 L581.86 553.63 L580.85 554.13 L579.92 554.68 L580.91 556.55 L580.31 557.33 L581.21 559.21 L583.53 562.19 L583.27 563.30 L584.07 565.24 L583.65 566.27 L581.57 565.97 L580.27 566.25 L578.20 565.87 L577.12 566.28 L576.78 567.34 L576.54 568.49 L575.67 569.09 L574.32 569.23 L573.23 569.60 L571.66 569.49 L569.44 568.69 L568.86 569.49 L569.54 571.60 L570.40 573.95 L570.39 575.44 L572.11 578.85 L571.92 580.24 L571.65 581.56 L571.61 583.18 L570.72 583.83 L568.83 583.26 L567.48 583.31 L566.21 583.44 L564.42 582.86 L563.95 583.98 L563.96 585.77 L562.53 585.62 L560.72 584.91 L560.02 585.73 L558.14 584.83 L556.05 583.56 L555.77 584.97 L556.97 588.72 L556.31 589.66 L556.13 591.38 L556.40 593.92 L555.45 594.47 L554.87 595.66 L553.51 595.48 L551.13 593.41 L551.07 595.57 L549.47 594.84 L548.11 594.52 L548.09 596.86 L547.49 598.12 L547.00 599.63 L545.76 599.56 L544.02 598.37 L543.03 598.78 L541.49 597.91 L539.70 596.37 L539.19 597.90 L539.59 601.83 L538.75 602.70 L538.58 605.43 L537.89 606.85 L536.88 607.39 L536.27 609.17 L534.85 608.51 L533.07 606.62 L532.45 608.44 L530.83 606.89 L529.72 607.07 L529.00 608.67 L528.06 609.52 L526.99 609.92 L525.76 609.62 L524.45 608.93 L523.18 608.33 L521.70 606.60 L520.53 606.27 L519.77 608.13 L519.19 611.23 L518.17 612.05 L517.53 615.40 L516.39 615.64 L515.27 616.05 L514.23 617.26 L512.94 616.36 L511.64 615.10 L510.55 615.90 L509.29 614.75 L508.16 615.04 L507.07 616.17 L505.97 617.48 L504.76 616.67 L503.55 615.28 L502.40 615.30 L501.23 613.70 L500.09 611.56 L498.97 612.34 L497.78 615.72 L496.60 616.32 L495.38 617.71 L494.06 620.69 L492.79 621.67 L491.56 621.77 L490.29 622.37 L489.27 620.02 L488.12 619.37 L487.05 618.08 L485.93 617.45 L484.77 617.22 L483.47 618.00 L482.09 619.18 L481.00 618.33 L480.09 616.57 L478.87 616.65 L477.94 615.21 L477.24 612.72 L475.87 613.64 L473.89 617.22 L472.58 617.54 L470.85 619.53 L469.05 621.62 L467.72 621.75 L466.02 623.17 L464.57 623.60 L463.88 621.38 L462.91 620.23 L462.26 618.15 L461.17 617.48 L460.03 617.00 L458.89 616.50 L457.55 616.58 L456.55 615.70 L455.84 614.13 L454.92 613.14 L454.45 611.07 L453.73 609.69 L452.04 610.58 L449.58 613.14 L448.20 613.19 L445.59 615.82 L443.88 616.42 L442.45 616.38 L440.57 617.23 L439.30 616.82 L438.97 614.64 L438.26 613.22 L437.80 611.41 L437.12 610.02 L435.78 609.81 L434.12 610.10 L433.50 608.66 L432.84 607.30 L431.39 607.22 L430.54 606.20 L431.18 602.96 L429.81 602.78 L427.94 603.28 L425.82 604.09 L424.10 604.27 L422.30 604.53 L420.53 604.71 L421.90 600.80 L423.77 596.38 L420.56 598.39 L421.22 595.61 L423.09 591.46 L415.82 598.09 L415.37 596.65 L416.74 593.18 L417.59 590.40 L417.25 588.97 L414.36 590.25 L416.59 586.15 L414.81 586.26 L410.69 588.63 L409.99 587.56 L409.81 586.00 L411.19 583.00 L404.43 587.55 L405.11 585.19 L406.38 582.38 L402.45 584.12 L404.91 580.35 L400.24 582.60 L403.97 577.91 L406.65 574.20 L401.15 576.97 L401.48 575.15 L403.92 571.78 L404.43 569.92 L402.36 569.94 L398.19 571.40 L399.19 569.20 L391.89 572.64 L390.00 572.32 L388.46 571.74 L385.71 571.91 L384.35 571.16 L382.41 570.74 L380.34 570.36 L381.77 567.94 L385.00 564.57 L384.53 563.32 L382.08 563.14 L387.37 558.87 L383.94 559.19 L377.80 560.78 L379.73 558.34 L381.21 556.15 L384.39 553.24 L378.33 554.57 L381.60 551.69 L383.60 549.43 L376.44 551.02 L376.28 549.65 L377.19 547.86 L379.18 545.70 L376.81 545.19 L371.41 545.72 L375.54 542.85 L372.21 542.57 L373.97 540.59 L372.73 539.59 L372.71 538.21 L378.94 535.02 L373.36 535.26 L371.80 534.32 L375.34 532.04 L377.21 530.26 L377.56 528.88 L371.68 528.91 L371.85 527.53 L370.46 526.47 L364.37 526.31 L363.70 525.03 L361.13 524.07 L359.23 522.95 L357.88 521.71 L356.07 520.52 L355.85 519.08 L360.08 517.10 L363.37 515.31 L358.10 514.47 L363.68 512.52 L366.06 510.95 L356.29 510.31 L358.05 508.75 L360.93 507.18 L364.41 505.64 L363.78 504.30 L362.19 502.98 L366.73 501.54 L360.62 500.22 L359.84 498.82 L360.58 497.43 L361.76 496.07 L363.33 494.75 L355.27 492.99 L359.31 491.77 L361.39 490.50 L358.16 488.86 L361.25 487.70 L358.36 486.02 L364.53 485.26 L366.99 484.18 L361.35 482.10 L364.24 481.09 L367.55 480.20 L369.48 479.15 L364.17 476.91 L363.35 475.36 L365.24 474.30 L356.89 471.23 L357.05 469.77 L356.04 468.05 L354.53 466.18 L353.99 464.52 L353.30 462.79 L352.12 460.91 L355.51 460.26 L360.39 460.10 L360.05 458.48 L359.85 456.89 L366.13 457.35 L359.18 453.58 L357.57 451.47 L361.00 451.08 L363.92 450.57 L366.53 450.01 L362.60 446.96 L367.59 447.36 L368.75 446.29 L364.12 442.80 L364.65 441.43 L366.03 440.43 L370.17 440.71 L365.09 436.75 L365.18 435.14 L369.01 435.36 L365.83 432.12 L370.38 432.78 L367.23 429.45 L371.47 430.05 L377.53 431.75 L372.13 427.05 L373.42 426.11 L377.85 427.04 L380.32 426.89 L381.59 426.03 L380.10 423.41 L383.43 423.89 L383.82 422.48 L381.81 419.42 L381.53 417.48 L381.91 415.98 L379.68 412.57 L374.95 407.21 L375.43 405.62 L378.45 405.98 L383.28 407.83 L386.62 408.61 L388.90 408.61 L394.27 411.23 L395.29 410.29 L393.66 407.03 L394.85 406.20 L396.87 406.13 L399.25 406.45 L398.58 403.92 L399.98 403.32 L402.41 403.77 L399.94 399.34 L400.58 397.96 L401.74 397.11 L403.38 396.78 L402.93 394.19 L400.34 389.17 L405.15 392.37 L404.99 389.99 L404.75 387.47 L408.23 389.35 L407.58 386.27 L409.94 386.88 L409.93 384.52 L409.15 381.08 L410.61 380.54 L412.38 380.43 L415.11 381.68 L413.52 376.89 L416.07 377.95 L419.61 380.55 L417.65 374.95 L417.98 372.71 L419.87 372.87 L418.86 368.36 L416.60 361.61 L418.01 360.83 L419.29 359.82 L422.18 361.65 L425.74 364.83 L427.95 365.70 L432.02 370.18 L434.54 371.89 L433.78 367.15 L435.11 366.48 L437.15 367.32 L439.08 368.00 L440.26 367.07 L441.07 365.30 L443.23 366.60 L444.19 365.13 L444.30 361.50 L445.52 360.53 L447.38 361.20 L448.48 359.91 L447.25 352.01 L450.54 356.73 L451.90 356.00 L451.77 350.68 L455.23 356.48 L455.36 351.71 L457.47 353.40 L459.31 354.35 L459.18 348.02 L460.87 348.25 L462.72 349.24 L464.65 350.63 L466.00 349.65 L467.07 347.28 L469.50 351.35 L470.16 346.84 L471.32 344.52 L472.75 343.52 L474.02 341.41 L475.01 337.27 L475.95 332.25 L477.51 331.09 L479.56 333.86 L481.83 338.98 L483.73 341.67 L485.58 344.35 L487.53 349.02 L488.96 347.78 L490.32 345.10 L491.89 345.25 L493.47 346.04 L495.05 347.09 L496.53 345.22 L498.10 346.36 L499.64 347.81 L501.19 344.07 L502.76 343.56 L504.32 343.43 L505.86 344.33 L507.57 341.14 L509.31 338.57 L510.69 342.12 L512.64 337.50 L514.06 339.92 L515.65 340.18 L517.21 340.72 L518.59 342.66 L520.83 337.64 L522.48 337.65 L524.00 338.60 L525.45 339.89 L526.76 341.87 L529.01 338.40 L530.16 341.12 L531.18 344.28 L533.87 339.21 L535.83 337.97 L537.25 339.19 L539.94 335.08 L543.37 328.46 L545.06 328.98 L546.33 331.02 L546.80 335.78 L547.37 339.86 L548.71 341.20 L548.20 348.29 L549.17 350.42 L552.41 345.77 L553.86 346.58 L554.82 348.70 L555.65 351.07 L557.27 351.28 L559.00 351.25 L559.62 353.96 L562.65 350.83 L564.65 350.27 L566.52 350.08 L567.56 351.74 L569.85 350.70 L574.60 344.63 L573.28 351.20 L574.77 351.92 L578.53 348.27 L577.62 353.64 L580.48 351.85 L581.20 354.01 L582.40 355.29 L586.41 351.72 L587.59 353.08 L588.31 355.19 L588.45 358.17 L591.91 355.84 L593.02 357.28 L591.77 362.23 L596.42 358.34 L598.62 358.18 L599.94 359.30 L603.36 357.52 L607.83 354.45 L610.55 353.85 L612.43 354.42 L612.51 357.29 L610.61 362.55 L610.03 366.04 L608.89 370.09 L607.81 373.97 L610.85 373.00 L612.83 373.31 L613.75 374.82 L614.65 376.35 L615.42 377.98 L617.60 378.14 L617.70 380.45 L618.75 381.78 L621.89 381.05 L623.54 381.83 L624.28 383.48 L625.41 384.76 L631.11 381.92 L630.60 384.71 L630.83 386.82 L636.48 384.30 L632.92 389.58 L636.62 388.80 L636.38 391.24 L636.06 393.71 L642.03 391.31 L642.93 392.88 L642.82 395.17 L642.94 397.26 L643.19 399.24 L646.92 398.80 L645.09 402.19 L646.20 403.55 L650.42 402.91 L652.60 403.65 L653.86 404.99 L657.96 404.63 L665.28 402.45 L666.57 403.92 L664.81 407.12 L660.78 411.50 L659.30 414.38 L658.75 416.71 L653.57 421.37 L654.14 423.02 L659.06 422.54 L659.77 424.16 L659.43 426.27 L658.52 428.60 L660.77 429.52 L661.00 431.33 L659.64 433.78 L664.58 433.66 L665.93 435.03 L666.62 436.68 L666.27 438.70 L669.05 439.59 L675.25 439.35 L670.82 442.79 L672.34 444.19 L675.42 445.12 L673.09 447.75 L675.18 449.02 L674.09 451.22 L676.20 452.52 L679.74 453.50 L679.83 455.39 L679.34 457.41 L677.01 459.82 L682.07 460.59 L680.09 462.90 L676.65 465.44 L682.31 466.23 L684.31 467.76 L683.96 469.71 L688.17 470.95 L695.41 471.83 L696.03 473.74 L696.11 475.72 L693.75 477.98 L689.24 480.40 L686.90 482.53 L682.17 484.81 L680.37 486.78 L683.64 488.38 L683.51 490.23 L683.23 492.08 L682.60 493.94 L681.80 495.78 L683.42 497.58 L682.28 499.42 L681.64 501.24 L684.50 503.10 L685.68 504.98 L684.46 506.79 L684.99 508.67 L692.48 510.95 L687.32 512.53 L687.07 514.40 L691.80 516.69 L685.22 517.99 L689.63 520.33 L686.76 521.92 L685.44 523.64 L691.66 526.39 L690.59 528.18 L688.66 529.83 L686.90 531.47 L687.03 533.42 L689.02 535.73 L683.76 536.64 L687.78 539.40 L689.44 541.73 L689.35 543.70 L691.18 546.14 L694.61 549.03 L698.64 552.17 L699.32 554.48 L695.72 555.61 L689.11 555.78 L685.97 556.88 L683.03 557.99 L677.08 558.06 L677.98 560.33 L680.58 563.23 L679.55 564.89 L677.47 566.16 L674.38 567.00 L677.48 570.23 L674.89 571.24 L672.41 572.25 L676.68 576.12 L676.26 578.04 L675.83 579.96 L674.53 581.49 L676.36 584.50 L677.96 587.47 L673.95 587.66 L676.29 591.07 L674.12 592.16 L672.21 593.37 L671.89 595.43 L669.32 596.23 L672.19 600.16 L671.66 602.16 L669.51 603.19 L668.08 604.63 L665.43 605.29 L667.55 609.01 L664.64 609.48 L661.27 609.58 L664.30 614.06 L664.81 616.87 L662.73 617.86 L665.09 622.10 L669.81 628.24 L668.60 629.99 L666.22 630.83 L662.54 630.58 L657.80 629.40 L655.57 630.19 L649.61 627.77 L647.70 628.71 L648.33 631.89 L646.83 633.21 L644.90 634.13 L642.95 635.00 L640.93 635.79 L641.17 638.76 L638.50 638.89 L638.43 641.63 L638.33 644.39 L637.01 645.90 L635.15 646.84 L634.82 649.45 L638.30 656.42 L632.60 653.03 L631.31 654.65 L632.05 658.71 L627.26 656.10 L627.54 659.67 L624.95 659.67 L622.95 660.40 L624.65 666.03 L622.31 666.36 L619.75 666.34 L617.05 666.06 L617.46 670.24 L615.33 670.77 L610.97 667.92 L612.48 673.95 L611.48 676.25 L609.59 677.16 L609.51 681.04 L610.36 686.65 L609.76 689.95 L608.01 691.30 L604.83 690.08 L600.05 685.78 L597.03 684.58 L593.47 682.21 L589.72 679.29 L589.42 683.24 L588.35 685.74 L586.16 685.91 L583.90 685.89 L581.04 684.46 L580.73 688.85 L578.08 687.82 L575.80 687.61 L575.50 692.39 L573.78 693.67 L571.66 693.90 L569.73 694.65 L569.46 700.20 L566.99 699.48 L564.40 698.33 L564.08 704.26 L560.39 699.48 L559.22 702.91 L556.76 701.96 L554.30 700.90 L553.92 707.71 L551.81 708.14 L549.34 707.01 L547.06 706.56 L544.82 706.25 L543.41 709.84 L540.67 707.00 L538.57 707.25 L537.23 711.84 L535.33 713.51 L533.20 713.92 L531.60 717.95 L530.36 725.22 L528.14 725.84 L525.56 723.24 L522.81 718.57 L520.25 714.88 L518.05 714.43 L515.43 708.25 L513.31 707.81 L511.49 712.66 L509.33 712.04 L507.17 710.97 L505.01 708.99 L502.95 711.11 L500.84 710.09 L498.75 708.07 L496.59 713.14 L494.44 713.81 L492.28 714.30 L490.19 713.06 L487.94 715.08 L485.40 720.88 L483.60 715.38 L481.37 716.01 L478.88 719.27 L477.07 715.51 L474.70 717.07 L472.70 715.47 L470.37 716.51 L467.75 719.28 L465.69 718.14 L463.63 717.04 L461.89 714.25 L458.88 718.50 L457.18 715.64 L455.86 711.21 L452.55 716.22 L450.01 717.41 L448.05 716.00 L444.94 719.27 L441.01 725.34 L438.61 725.30 L436.44 724.41 L435.20 720.36 L434.61 714.40 L432.70 713.00 L432.45 706.60 L430.95 704.25 L427.42 707.81 L425.33 707.13 L423.73 705.09 L422.03 703.41 L420.55 701.23 L417.47 703.07 L416.19 700.44 L414.14 699.72 L410.78 701.95 L408.33 702.00 L406.75 700.14 L404.51 699.71 L399.30 705.29 L399.45 699.92 L397.49 698.84 L393.20 702.15 L394.31 695.31 L390.17 698.20 L389.40 694.96 L388.01 692.89 L382.84 697.23 L381.42 695.14 L380.34 692.56 L378.96 690.50 L376.97 689.42 L373.49 690.58 L373.03 687.18 L367.87 690.67 L364.91 690.83 L361.79 691.16 L357.60 692.86 L355.44 691.73 L352.50 691.63 L349.95 690.96 L349.84 687.21 L348.23 685.39 L346.85 683.30 L345.39 681.33 L343.56 679.81 L341.60 678.42 L339.15 677.57 L336.66 676.74 L335.10 674.88 L334.11 672.45 L334.78 668.35 L331.45 668.34 L331.05 665.40 L332.13 661.08 L325.69 663.95 L323.76 662.48 L320.24 662.43 L316.82 662.22 L312.65 662.60 L311.70 660.15 L311.86 656.80 L307.59 657.12 L308.59 653.14 L308.54 650.06 L305.80 649.10 L303.64 647.66 L302.12 645.73 L299.96 644.26 L299.48 641.58 L298.34 639.39 L297.08 637.28 L297.30 634.19 L295.39 632.53 L293.61 630.77 L292.26 628.74 L289.81 627.36 L287.46 625.90 L286.76 623.45 L287.74 620.06 L288.62 616.79 L281.74 617.76 L283.02 614.28 L284.27 610.88 L282.09 609.27 L280.86 607.15 L275.62 606.95 L279.31 602.49 L277.27 600.74 L275.71 598.76 L274.42 596.65 L272.18 594.92 L275.75 590.81 L270.20 590.40 L268.22 588.51 L266.14 586.63 L261.15 585.78 L259.99 583.49 L259.64 580.93 L263.40 577.04 L264.26 574.16 L260.81 572.62 L266.52 568.35 L265.74 566.04 L262.10 564.51 L267.90 560.45 L268.73 557.77 L268.85 555.29 L273.22 551.85 L271.32 549.88 L265.66 548.67 L262.34 546.89 L261.79 544.52 L254.07 543.43 L252.89 541.09 L250.50 538.93 L248.68 536.64 L248.39 534.12 L249.95 531.36 L253.40 528.43 L250.85 526.20 L247.00 524.05 L250.97 521.16 L248.82 518.82 L250.89 516.16 L243.70 514.05 L247.51 511.31 L249.93 508.70 L245.87 506.30 L248.62 503.72 L243.76 501.22 L248.75 498.69 L250.48 496.20 L244.88 493.56 L244.08 490.98 L240.83 488.27 L240.36 485.65 L240.21 483.03 L242.48 480.59 L247.61 478.44 L243.90 475.54 L248.49 473.44 L251.24 471.21 L246.88 468.14 L252.10 466.27 L253.70 463.98 L251.43 461.10 L258.49 459.73 L260.08 457.52 L258.21 454.70 L256.51 451.85 L259.73 449.99 L254.69 446.37 L253.02 443.42 L254.22 441.10 L247.66 436.85 L248.72 434.44 L247.69 431.47 L252.42 430.09 L253.52 427.73 L247.80 423.30 L253.18 422.23 L256.01 420.44 L256.17 417.78 L255.09 414.68 L253.45 411.34 L259.21 410.68 L256.24 406.79 L259.46 405.25 L257.57 401.70 L259.89 399.83 L265.05 399.21 L259.31 393.89 L260.70 391.63 L260.42 388.61 L258.30 384.67 L258.88 381.97 L260.89 379.97 L266.99 380.11 L268.52 377.95 L268.14 374.77 L274.95 375.53 L273.52 371.76 L275.50 369.90 L280.52 369.86 L278.27 365.51 L283.22 365.53 L288.09 365.60 L286.90 361.83 L284.61 357.27 L289.49 357.45 L292.62 356.53 L289.47 351.21 L293.78 351.14 L294.91 348.82 L296.14 346.55 L296.98 343.99 L299.17 342.44 L300.37 340.13 L296.57 333.73 L297.55 331.13 L296.58 326.84 L294.92 321.86 L296.44 319.57 L297.07 316.48 L299.37 314.88 L301.83 313.45 L302.76 310.56 L305.85 309.76 L308.17 308.24 L311.15 307.40 L312.78 305.20 L316.09 304.78 L319.12 304.11 L318.56 299.51 L322.01 299.33 L324.82 298.47 L323.77 293.12 L327.15 292.93 L328.32 290.11 L330.56 288.57 L334.03 288.59 L335.50 286.09 L337.34 284.05 L339.52 282.46 L341.46 280.52 L341.85 276.39 L344.51 275.41 L347.50 274.96 L351.26 275.71 L354.49 275.75 L356.98 274.69 L359.15 273.12 L360.67 270.47 L362.37 268.07 L364.08 265.65 L365.27 262.25 L367.86 261.29 L371.75 262.75 L373.48 260.25 L377.31 261.77 L381.29 263.72 L381.17 257.46 L385.71 260.70 L390.05 263.74 L387.96 252.82 L391.80 254.80 L397.41 261.07 L395.99 250.93 L399.30 251.91 L403.14 254.35 L403.47 247.82 L405.71 246.09 L407.67 243.55 L409.95 241.80 L412.76 241.58 L415.32 240.63 L419.38 244.44 L420.90 240.22 L424.42 242.58 L428.85 248.37 L431.13 246.81 L434.03 247.50 L437.19 249.38 L439.85 249.39 L441.97 247.14 L445.03 248.97 L446.83 245.02 L447.83 236.65 L451.29 240.52 L453.38 237.21 L454.90 230.13 L457.54 229.26 L460.09 227.80 L462.82 227.46 L465.84 229.38 L468.62 229.71 L471.57 231.68 L473.89 227.62 L476.68 228.18 L479.53 229.66 L482.10 227.36 L484.82 227.17 L487.43 224.28 L490.32 227.97 L493.06 228.75 L495.75 227.31 L498.49 228.30 L501.21 226.00 L503.92 227.94 L506.71 225.50 L509.51 223.81 L512.28 223.68 L515.18 221.42 L517.85 223.26 L520.44 225.88 L523.16 226.38 L525.76 228.02 L528.71 226.06 L530.94 230.80 L533.82 229.56 L536.46 230.39 L539.55 228.03 L542.19 228.96 L544.92 229.30 L548.08 227.14 L550.55 229.04 L553.74 227.10 L556.43 227.83 L558.73 230.33 L562.87 224.57 L566.21 222.76 L569.03 223.25 L571.78 223.99 L574.92 223.29 L576.82 227.14 L578.03 233.11 L582.30 228.61 L584.37 231.46 L586.26 234.76 L590.22 231.73 L592.21 234.62 L597.13 229.23 L598.74 233.18 L600.31 237.03 L604.69 233.58 L605.28 239.77 L609.66 236.55 L611.11 240.41 L612.85 243.45 L617.95 238.98 L620.49 240.31 L624.51 238.53 L626.71 240.63 L628.40 243.69 L631.15 244.62 L631.57 249.99 L636.16 247.43 L637.22 251.44 L638.93 254.19 L643.66 251.64 L644.53 255.81 L646.46 258.10 L650.39 257.12 L651.56 260.61 L652.10 264.99 L656.40 263.57 L661.85 260.57 L661.71 265.86 L664.40 266.99 L669.35 264.99 L671.36 267.15 L674.95 267.18 L677.18 269.06 L678.69 271.86 L679.62 275.33 L680.97 278.23 L686.16 276.47 L685.73 281.46 L689.56 281.42 L691.12 284.03 L693.37 285.84 L697.86 285.23 L696.95 290.46 L700.42 290.99 L701.70 293.83 L703.77 295.83 L706.51 297.19 L705.94 301.75 L712.26 299.72 L714.37 301.74 L716.93 303.37 L719.75 304.77 L720.88 307.69 L722.59 310.08 L721.69 314.64 L725.58 315.19 L728.45 316.63 L727.16 321.37 L732.01 321.28 L731.41 325.40 L737.92 324.19 L738.31 327.57 L736.50 332.45 L742.28 331.97 L740.83 336.52 L746.17 336.47 L746.68 339.66 L746.67 343.15 L754.11 341.97 L756.64 343.93 L759.24 345.88 L761.81 347.87 L763.56 350.36 L765.88 352.54 L767.75 354.99 L769.52 357.49 L771.21 360.06 L772.61 362.77 L774.45 365.26 L776.02 367.90 L776.34 371.13 L777.81 373.81 L778.61 376.79 L778.87 379.99 L778.07 383.62 L776.59 387.48 L776.54 390.71 L775.07 394.46 L774.27 397.90 L774.71 400.85 L776.71 403.24 L777.95 405.92 L778.61 408.79 L778.13 412.02 L776.56 415.55 L779.41 417.72 L778.38 421.04 L778.92 423.90 L782.24 426.01 L781.91 429.11 L782.06 432.06 L785.18 434.32 L783.06 437.78 L783.42 440.67 L785.37 443.23 L788.51 445.60 L788.15 448.65 L792.07 450.96 L792.62 453.87 L793.27 456.76 L794.51 459.59 L795.32 462.48 L796.09 465.39 L795.25 468.48 L793.21 471.65 L794.95 474.46 L793.91 477.51 L792.61 480.55 L794.30 483.39 L792.31 486.44 L795.14 489.26 L796.26 492.19 L792.67 495.21 L795.97 498.11 L799.73 501.09 L798.79 504.07 L796.71 507.01 L800.94 510.12 L799.95 513.09 L799.54 516.08 L799.92 519.11 L800.13 522.14 L799.85 525.13 L797.52 527.94 L796.71 530.86 L796.75 533.87 L795.58 536.73 L796.37 539.84 L794.74 542.63 L792.37 545.27 L795.87 548.85 L793.24 551.43 L790.10 553.88 L791.12 557.08 L791.13 560.12 L791.48 563.23 L790.95 566.17 L790.59 569.15 L793.51 572.96 L793.36 576.04 L790.94 578.53 L792.22 582.02 L789.58 584.41 L788.06 587.10 L795.85 592.70 L794.33 595.46 L796.40 599.42 L799.68 603.87 L792.74 604.75 L788.85 606.63 L788.08 609.63 L780.50 609.97 L777.01 611.81 L778.73 615.76 L779.86 619.52 L777.53 621.82 L779.56 626.06 L778.64 629.02 L777.33 631.79 L776.66 634.88 L775.39 637.69 L773.01 639.93 L770.33 641.99 L771.79 646.24 L773.99 650.97 L771.22 653.01 L773.26 657.78 L773.84 661.79 L765.91 660.71 L763.38 662.80 L760.03 664.34 L752.74 663.29 L752.30 666.61 L754.70 671.88 L752.52 674.11 L749.74 675.90 L752.44 681.61 L749.93 683.62 L747.53 685.70 L746.79 689.02 L744.97 691.55 L742.26 693.36 L739.26 694.92 L740.53 699.99 L741.32 704.76 L739.00 706.94 L742.27 714.05 L738.33 714.85 L732.36 713.71 L730.93 716.70 L724.99 715.40 L719.59 714.48 L718.49 717.72 L719.51 723.15 L716.12 724.15 L713.00 725.38 L713.88 730.89 L711.24 732.67 L708.94 734.81 L707.01 737.38 L704.77 739.60 L701.90 741.09 L699.09 742.61 L701.14 750.18 L698.74 752.32 L696.48 754.65 L697.89 761.85 L691.76 759.09 L687.05 758.08 L685.05 760.76 L679.07 757.77 L674.49 756.61 L672.09 758.60 L670.46 761.79 L667.56 763.06 L663.87 763.04 L661.81 765.61 L659.78 768.28 L657.50 770.57 L654.99 772.49 L652.35 774.19 L649.98 776.40 L647.39 778.22 L644.07 778.65 L641.57 780.67 L639.18 782.92 L635.62 782.81 L633.01 784.63 L630.25 786.15 L627.33 787.31 L623.88 787.24 L621.58 789.86 L619.98 794.26 L617.90 797.63 L615.87 801.26 L615.61 809.81 L612.66 811.38 L609.98 813.73 L608.12 818.60 L604.49 818.32 L601.15 818.86 L597.30 817.73 L593.54 816.72 L591.14 820.38 L586.22 815.02 L583.93 819.12 L580.80 820.23 L576.13 814.96 L573.23 816.81 L569.48 814.89 L565.04 809.44 L562.00 810.38 L559.84 815.97 L556.34 814.66 L552.98 814.00 L550.85 820.89 L547.78 822.35 L544.66 823.57 L541.38 823.61 L538.23 824.77 L534.71 822.65 L531.38 821.97 L528.48 825.93 L524.97 822.89 L521.55 820.43 L518.51 823.43 L515.41 826.56 L512.08 824.95 L508.86 825.96 L505.64 828.24 L502.34 826.93 L499.07 827.89 L495.73 833.08 L492.41 832.55 L489.00 834.98 L485.43 839.91 L482.15 837.58 L478.87 835.78 L475.64 833.88 L472.58 830.22 L469.61 826.41 L466.39 825.73 L462.99 826.60 L459.98 824.13 L456.70 824.06 L453.21 825.36 L450.42 821.89 L447.42 820.02 L444.09 820.25 L441.23 817.83 L438.23 816.35 L434.79 817.06 L430.84 820.04 L427.70 819.05 L423.88 820.98 L420.24 821.96 L416.60 822.81 L413.44 821.71 L410.01 821.60 L406.31 822.38 L403.31 820.70 L399.86 820.50 L396.89 818.77 L393.29 818.98 L389.84 818.66 L387.47 815.28 L384.63 813.29 L382.69 809.01 L379.68 807.61 L376.27 807.24 L373.23 805.94 L368.10 809.53 L363.70 811.18 L358.91 813.55 L352.51 819.21 L350.49 815.25 L349.49 809.33 L347.64 805.34 L345.43 802.17 L345.48 794.77 L343.37 791.65 L338.56 793.54 L336.23 790.85 L332.21 791.13 L329.25 789.54 L327.14 786.53 L325.15 783.38 L321.20 783.40 L319.81 779.38 L318.15 775.85 L313.80 776.39 L310.53 775.27 L308.90 771.77 L305.18 771.26 L300.49 772.01 L298.19 769.46 L294.25 769.07 L290.87 767.89 L287.44 766.75 L286.28 762.76 L284.61 759.47 L279.24 760.60 L277.90 756.92 L276.54 753.33 L272.41 752.87 L270.48 749.94 L266.45 749.28 L265.03 745.83 L262.88 743.16 L259.92 741.31 L255.55 740.84 L250.60 740.86 L248.52 738.05 L241.33 739.99 L238.04 738.22 L237.52 733.93 L235.79 730.78 L235.20 726.66 L236.17 721.31 L237.05 716.12 L234.38 713.90 L231.22 712.05 L231.17 707.77 L228.18 705.77 L223.64 704.89 L222.63 701.37 L220.51 698.67 L219.10 695.48 L219.01 691.40 L216.18 689.20 L211.86 687.94 L211.34 684.19 L207.93 682.29 L203.57 680.91 L202.85 677.30 L200.31 674.77 L198.11 672.03 L196.52 668.95 L195.41 665.59 L194.34 662.23 L193.68 658.68 L190.38 656.49 L189.38 653.11 L187.86 650.00 L186.28 646.92 L183.48 644.38 L182.68 640.93 L180.96 637.89 L177.41 635.62 L174.93 632.85 L169.67 631.16 L168.31 627.87 L167.87 624.24 L161.08 622.93 L159.65 619.62 L156.46 616.89 L153.11 614.17 L152.12 610.65 L151.11 607.15 L155.01 602.19 L150.22 599.81 L151.48 595.69 L154.48 591.16 L147.45 589.26 L152.24 584.35 L154.64 580.12 L151.38 577.21 L155.67 572.66 L159.90 568.22 L157.66 565.12 L154.76 562.10 L156.01 558.33 L155.00 554.96 L151.23 551.99 L149.46 548.67 L148.86 545.18 L147.52 541.77 L146.34 538.33 L148.15 534.58 L147.40 531.10 L145.39 527.70 L146.34 524.07 L147.13 520.48 L145.69 517.01 L144.98 513.48 L143.79 509.96 L145.05 506.38 L143.39 502.84 L143.67 499.27 L140.32 495.67 L138.50 492.03 L138.47 488.41 L130.55 484.46 L132.32 480.85 L135.38 477.35 L136.03 473.74 L138.90 470.31 L142.87 467.04 L145.69 463.72 L147.21 460.31 L145.35 456.50 L147.58 453.20 L147.95 449.66 L147.46 445.98 L149.80 442.75 L148.99 439.01 L150.64 435.69 L152.99 432.53 L152.38 428.80 L150.62 424.79 L152.04 421.45 L153.50 418.12 L150.68 413.76 L150.50 410.00 L150.48 406.26 L151.21 402.70 L151.47 399.01 L154.12 396.02 L156.41 392.95 L155.28 388.80 L156.51 385.40 L159.38 382.55 L159.24 378.68 L161.21 375.55 L159.52 371.05 L163.49 368.69 L165.17 365.48 L164.13 361.14 L164.29 357.26 L161.31 351.97 L163.14 348.74 L162.00 344.15 L160.07 339.12 L163.60 336.66 L166.72 334.03 L169.74 331.39 L174.19 329.54 L178.87 327.87 L183.14 326.06 L181.69 321.10 L185.07 318.83 L187.75 316.19 L187.30 311.69 L190.79 309.56 L193.26 306.82 L193.41 302.60 L197.90 301.19 L201.35 299.16 L201.71 295.03 L203.49 291.86 L207.30 290.14 L204.99 283.98 L207.59 281.36 L209.12 277.93 L209.41 273.52 L211.45 270.44 L212.91 266.87 L217.40 265.79 L219.86 263.06 L220.04 258.37 L223.92 256.86 L226.34 254.09 L228.19 250.80 L229.46 246.93 L232.54 244.75 L236.26 243.21 L236.93 238.69 L240.77 237.31 L238.84 230.00 L241.77 227.64 L243.94 224.46 L240.64 215.25 L245.34 214.72 L250.27 214.55 L253.36 212.33 L258.14 212.13 L263.90 213.21 L268.13 212.54 L270.32 209.35 L273.07 206.86 L276.90 205.76 L277.75 200.73 L280.55 198.23 L283.42 195.83 L286.66 193.94 L290.15 192.45 L293.80 191.21 L297.49 190.07 L297.37 183.01 L301.43 182.41 L303.70 178.94 L303.95 172.03 L306.82 169.35 L309.05 165.53 L311.98 162.89 L315.01 160.37 L317.44 156.70 L321.28 155.67 L325.12 154.66 L328.92 153.62 L333.00 153.19 L335.92 150.34 L339.63 149.17 L343.17 147.63 L346.54 145.72 L349.72 143.31 L352.74 140.49 L355.25 136.28 L358.40 133.57 L361.14 129.69 L363.62 124.95 L367.81 124.82 L371.90 124.49 L374.82 120.67 L379.44 122.04 L383.62 122.10 L386.42 117.65 L391.13 119.61 L394.56 117.17 L398.54 116.70 L403.29 119.29 L406.66 116.52 L410.27 114.61 L414.73 116.46 L418.46 115.12 L421.68 111.14 L425.74 111.26 L429.60 110.36 L433.71 110.91 L437.63 110.44 L441.32 108.47 L445.30 108.32 L449.13 107.07 L452.86 104.92 L456.85 104.83 L460.98 106.21 L465.23 109.34 L469.05 107.89 L472.67 103.15 L476.84 106.34 L480.50 100.36 L484.57 102.13 L488.64 105.10 L492.56 103.67 L496.53 103.68 L500.48 109.82 L504.41 108.02 L508.50 99.84 L512.35 104.87 L516.20 107.38 L520.44 101.43 L524.46 101.02 L528.65 98.49 L532.79 97.24 L536.88 96.87 L540.70 99.33 L544.09 105.28 L548.59 101.17 L552.13 105.09 L555.46 109.94 L560.17 105.21 L563.35 110.53 L566.69 114.38 L571.06 112.20 L573.92 118.18 L577.31 121.02 L581.65 119.25 L586.73 114.39 L590.30 116.49 L594.53 115.77 L599.87 110.88 L603.85 111.57 L608.19 110.94 L612.41 110.91 L616.13 112.59 L619.13 116.59 L622.41 119.48 L628.17 114.84 L631.02 119.04 L633.93 122.88 L638.02 123.33 L642.22 123.57 L647.28 121.66 L649.13 127.96 L654.00 126.68 L657.18 129.52 L661.47 129.75 L665.30 131.07 L666.92 137.24 L673.47 132.70 L677.09 134.55 L681.29 135.23 L686.55 133.87 L690.31 135.56 L693.45 138.40 L694.77 144.52 L697.74 147.52 L702.29 147.71 L702.69 155.04 L706.85 155.89 L711.03 156.76 L712.13 162.58 L716.94 162.46 L718.59 167.27 L719.59 172.92 L724.29 173.03 L729.54 172.45 L731.49 176.59 L734.52 179.19 L743.07 174.38 L744.23 179.56 L749.93 178.79 L755.32 178.55 L759.26 180.21 L761.50 183.96 L761.67 190.12 L769.57 187.16 L772.48 190.11 L772.44 196.33 L777.10 197.28 L778.68 201.60 L785.99 199.85 L785.89 205.89 L787.55 210.05 L792.83 210.58 L794.33 214.85 L799.90 215.21 L799.28 221.44 L801.67 224.80 L808.02 224.59 L811.55 226.99 L817.34 227.49 L820.48 230.31 L823.37 233.35 L823.73 238.45 L823.08 244.27 L828.98 244.91 L826.59 251.96 L827.88 256.11 L833.60 257.00 L831.57 263.51 L833.28 267.28 L837.85 269.08 L834.68 276.13 L835.95 280.11 L840.31 282.09 L845.56 283.57 L846.50 287.77 L851.95 289.24 L856.31 291.44 L859.85 294.17 L863.25 297.02 L865.88 300.33 L868.48 303.67 L871.53 306.79 L874.27 310.09 L877.19 313.33 L879.64 316.82 L881.08 320.80 L882.79 324.65 L883.45 328.97 L884.28 333.18 L884.99 337.43 L885.58 341.70 L886.24 345.93 L887.71 349.82 L888.86 353.83 L890.61 357.61 L893.34 361.06 L894.80 364.97 L897.25 368.55 L900.37 371.95 L901.51 375.99 L904.11 379.60 L905.22 383.67 L905.77 387.89 L907.47 391.80 L908.43 395.90 L909.01 400.10 L912.75 403.55 L912.66 407.91 L914.36 411.87 L921.48 414.76 L920.28 419.36 L921.90 423.42 L926.28 427.02 L928.87 430.99 L927.73 435.55 L929.11 439.72 L930.75 443.88 L930.60 448.27 L932.46 452.43 L934.33 456.62 L933.26 461.09 L935.01 465.32 L934.74 469.71 L934.75 474.08 L935.03 478.42 L934.12 482.82 L934.95 487.14 L935.51 491.48 L937.52 495.82 L944.83 500.00 L945.46 495.55 L946.74 491.06 L946.82 486.59 L947.10 482.11 L945.16 477.72 L944.70 473.29 L943.75 468.89 L942.50 464.52 L943.07 460.02 L940.83 455.77 L941.60 451.23 L941.89 446.72 L940.28 442.44 L940.36 437.94 L940.17 433.47 L937.45 429.40 L938.08 424.80 L940.69 419.81 L940.37 415.31 L937.09 411.40 L942.73 405.64 L941.97 401.17 L939.89 397.00 L941.79 391.89 L939.83 387.69 L938.08 383.46 L937.33 378.96 L935.37 374.81 L933.43 370.66 L932.47 366.22 L930.64 362.06 L930.47 357.35 L929.67 352.83 L927.89 348.64 L927.48 343.96 L925.94 339.67 L923.71 335.66 L921.77 331.54 L919.07 327.74 L916.11 324.07 L913.31 320.36 L910.47 316.70 L907.38 313.17 L904.98 309.34 L902.29 305.67 L900.76 301.44 L898.91 297.37 L897.34 293.14 L895.78 288.90 L893.87 284.83 L891.86 280.81 L890.68 276.31 L889.48 271.79 L889.58 266.47 L889.42 261.24 L885.80 258.12 L886.01 252.58 L885.67 247.32 L881.34 244.67 L872.90 244.88 L872.18 239.88 L868.47 236.94 L860.98 236.80 L861.52 230.83 L857.09 228.54 L849.43 228.81 L851.42 221.59 L845.93 220.26 L840.15 219.26 L838.10 215.22 L835.15 211.93 L833.40 207.59 L829.92 204.75 L830.47 198.25 L826.74 195.61 L820.13 195.73 L820.05 189.66 L815.13 188.25 L814.70 182.39 L809.40 181.42 L803.25 181.45 L804.21 173.97 L799.06 173.00 L797.46 168.15 L790.34 169.50 L787.62 165.91 L788.57 157.95 L781.61 159.34 L777.20 157.77 L774.65 153.89 L772.55 149.40 L770.77 144.40 L764.40 145.47 L766.21 135.50 L762.24 133.29 L757.14 132.71 L755.20 127.61 L752.71 123.22 L746.60 124.26 L741.23 124.31 L738.62 120.07 L732.34 121.72 L729.21 118.31 L725.63 115.61 L718.76 118.63 L716.19 114.23 L712.28 112.15 L705.83 114.85 L701.40 113.90 L697.84 111.30 L694.54 108.12 L690.25 106.95 L686.26 105.18 L684.67 98.19 L678.30 101.59 L675.04 98.13 L671.07 96.28 L666.61 95.60 L663.46 91.70 L657.23 95.58 L654.49 90.56 L650.57 88.54 L646.57 86.69 L641.52 87.91 L636.30 89.80 L634.19 82.25 L629.62 82.15 L624.14 85.22 L619.92 84.22 L616.10 81.78 L611.95 80.53 L607.50 80.38 L604.70 73.63 L600.74 71.29 L596.01 72.23 L592.93 65.68 L589.08 62.36 L584.22 63.98 L578.80 68.89 L574.87 65.93 L569.84 69.38 L564.78 73.67 L561.24 67.93 L556.27 72.23 L551.71 74.00 L548.08 67.85 L543.20 72.82 L538.69 75.08 L534.57 73.11 L530.29 72.92 L526.07 71.78 L521.74 72.47 L517.70 66.31 L513.28 69.04 L508.88 73.24 L504.70 64.41 L500.35 64.16 L496.04 70.28 L491.76 70.85 L487.42 69.24 L483.28 73.69 L479.10 75.58 L474.55 70.70 L470.55 75.11 L465.98 71.36 L461.50 69.55 L457.66 74.62 L453.66 77.34 L449.37 77.26 L445.15 77.84 L440.93 78.43 L436.83 79.79 L432.29 78.32 L428.28 80.19 L424.14 81.21 L419.92 81.82 L416.07 84.25 L411.46 82.96 L407.35 84.15 L403.85 87.89 L399.67 88.58 L395.41 89.02 L392.15 93.28 L388.23 94.88 L384.09 95.71 L380.94 99.86 L376.03 98.11 L372.64 101.32 L369.50 105.16 L364.87 104.46 L361.41 107.23 L358.09 110.26 L352.98 108.45 L348.45 108.35 L344.06 108.67 L339.28 108.13 L335.00 108.86 L330.94 110.19 L327.15 112.12 L323.57 114.49 L319.94 116.73 L316.20 118.73 L312.88 121.56 L309.28 123.80 L305.88 126.41 L302.76 129.50 L298.33 130.15 L294.42 131.79 L290.39 133.23 L285.86 133.86 L282.46 136.44 L275.50 133.18 L271.42 134.76 L269.09 139.11 L262.26 136.50 L259.24 139.80 L256.50 143.47 L253.75 147.07 L250.63 150.11 L247.18 152.66 L243.47 154.88 L238.28 155.15 L236.07 159.38 L232.12 161.32 L228.04 163.15 L226.77 168.41 L226.46 174.72 L225.02 179.56 L223.06 183.73 L222.39 189.29 L221.50 194.51 L212.13 190.50 L209.36 193.72 L206.29 196.62 L199.31 195.56 L197.33 199.62 L193.00 201.36 L191.50 205.85 L189.00 209.35 L184.96 211.42 L181.52 214.07 L179.34 217.85 L178.11 222.44 L173.05 223.72 L170.35 227.04 L170.48 232.66 L167.38 235.62 L164.30 238.60 L160.15 240.79 L157.94 244.47 L155.35 247.87 L149.02 248.59 L148.95 253.81 L146.09 257.05 L142.00 259.48 L141.51 264.31 L142.03 269.75 L138.73 272.70 L137.77 277.12 L137.27 281.79 L132.61 283.96 L132.33 288.71 L131.98 293.38 L126.88 295.39 L127.10 300.34 L128.92 306.06 L129.72 311.17 L129.56 315.73 L130.23 320.65 L131.51 325.80 L126.20 327.85 L121.89 330.42 L120.92 334.52 L114.48 336.28 L112.12 339.84 L108.00 342.71 L107.61 347.09 L109.09 352.15 L104.59 354.95 L104.18 359.28 L101.64 362.84 L102.36 367.52 L101.12 371.53 L98.34 375.05 L99.19 379.70 L99.82 384.24 L98.15 388.09 L97.57 392.26 L95.60 396.05 L94.58 400.10 L90.23 403.37 L90.16 407.67 L89.82 411.89 L86.63 415.52 L84.80 419.46 L86.36 424.05 L86.60 428.36 L85.65 432.45 L87.75 437.02 L86.35 441.04 L85.86 445.18 L87.57 449.60 L84.58 453.45 L85.24 457.72 L88.01 462.16 L91.70 466.61 L93.67 470.86 L95.15 475.03 L98.89 479.29 L100.04 483.35 L92.46 487.12 L93.20 491.21 L90.06 495.25 L87.25 499.34 L87.51 503.47 L86.74 507.61 L88.53 511.69 L87.78 515.84 L87.87 519.97 L87.44 524.12 L89.09 528.15 L90.77 532.15 L89.05 536.43 L89.51 540.53 L92.96 544.30 L92.99 548.42 L92.39 552.63 L93.77 556.59 L94.01 560.70 L91.28 565.29 L92.14 569.34 L95.27 572.98 L93.91 577.43 L93.19 581.79 L99.80 584.63 L106.06 587.43 L105.00 591.82 L109.85 594.82 L117.09 597.12 L111.81 602.61 L117.42 605.23 L120.36 608.51 L116.75 613.70 L122.47 616.13 L124.59 619.60 L125.07 623.58 L125.44 627.63 L126.47 631.46 L129.02 634.75 L125.23 640.38 L127.50 643.80 L129.11 647.45 L126.88 652.68 L127.29 656.88 L126.79 661.50 L128.67 665.12 L131.10 668.48 L131.40 672.81 L133.70 676.22 L135.63 679.81 L138.44 682.94 L138.94 687.24 L141.43 690.53 L144.89 693.26 L147.81 696.26 L149.65 699.85 L152.00 703.16 L153.85 706.74 L157.17 709.44 L157.10 714.22 L158.15 718.35 L161.79 720.81 L162.05 725.50 L163.85 729.19 L168.11 731.18 L171.27 733.89 L173.73 737.09 L177.78 739.11 L178.29 743.76 L179.68 747.79 L184.64 749.03 L186.12 753.00 L188.15 756.54 L194.29 756.66 L200.45 756.64 L204.46 758.38 L208.63 759.91 L214.09 760.22 L214.84 764.81 L213.78 771.17 L217.36 773.20 L217.12 778.96 L218.41 783.29 L220.42 786.95 L224.41 788.57 L228.86 789.66 L230.37 793.88 L234.16 795.63 L235.92 799.64 L240.23 800.76 L244.57 801.79 L244.99 807.48 L249.04 808.83 L253.82 809.22 L256.31 812.45 L259.05 815.38 L261.07 819.31 L265.12 820.53 L266.47 825.46 L269.16 828.61 L273.77 829.00 L276.71 831.78 L278.61 836.16 L283.43 836.10 L288.52 835.53 L290.96 839.14 L295.32 839.62 L299.85 839.74 L303.07 842.04 L305.71 845.40 L309.82 846.15 L311.20 851.93 L316.26 850.87 L322.65 847.08 L327.13 846.82 L332.45 844.74 L338.05 841.89 L342.74 840.74 L342.86 849.62 L345.25 853.73 L347.47 858.38 L348.79 865.37 L352.79 866.02 L356.34 867.79 L360.36 868.33 L365.18 866.61 L369.38 866.48 L373.88 865.37 L377.36 867.13 L380.75 869.23 L384.73 869.52 L388.06 871.87 L392.17 871.65 L395.59 873.78 L399.06 875.84 L403.17 875.47 L406.74 877.19 L410.13 879.72 L413.49 882.55 L417.46 882.79 L420.54 887.25 L424.20 889.10 L428.33 888.57 L432.66 886.78 L436.50 887.59 L440.64 886.49 L444.97 883.87 L448.67 885.47 L452.53 885.95 L456.64 884.14 L460.36 885.79 L464.22 886.19 L468.44 882.22 L472.51 879.11 L476.43 877.34 L480.35 874.75 L484.25 871.40 L487.79 876.94 L491.51 879.20 L495.32 877.85 L499.08 883.03 L502.92 884.05 L506.73 882.26 L510.62 884.62 L514.46 884.40 L518.21 882.26 L522.21 885.15 L526.22 887.17 L529.83 883.63 L533.33 879.51 L537.54 883.39 L541.19 881.27 L544.63 877.76 L548.52 878.16 L552.17 876.70 L555.96 876.35 L559.74 875.89 L564.65 882.10 L568.09 879.33 L571.47 876.47 L576.08 879.97 L579.87 879.18 L582.29 872.15 L585.38 868.62 L589.12 867.96 L591.27 861.05 L595.00 860.59 L599.21 861.83 L601.22 855.19 L605.58 856.90 L608.38 853.36 L611.21 850.07 L614.51 848.32 L617.43 845.52 L621.80 846.95 L625.40 846.09 L629.01 845.25 L635.12 850.86 L639.01 850.47 L643.39 851.22 L648.21 852.90 L652.06 852.16 L654.95 849.22 L658.19 847.12 L661.63 845.47 L665.06 843.80 L667.70 840.53 L671.35 839.33 L674.83 837.78 L677.49 834.68 L680.94 833.09 L684.53 831.76 L687.77 829.77 L690.86 827.54 L694.36 826.01 L697.55 823.94 L701.19 822.61 L703.53 819.21 L705.68 815.57 L710.11 815.44 L713.34 813.44 L714.32 808.21 L713.70 800.86 L717.20 799.40 L717.16 793.13 L716.24 785.87 L723.49 789.39 L726.08 786.77 L729.23 784.86 L736.43 787.86 L738.93 785.05 L740.89 781.61 L744.11 779.67 L746.66 776.95 L749.08 774.10 L751.05 770.78 L756.30 770.95 L758.26 767.62 L759.51 763.58 L764.75 763.58 L768.46 761.98 L767.64 756.00 L766.08 749.47 L769.19 747.37 L767.49 740.92 L768.14 736.69 L775.65 738.46 L777.30 735.08 L782.39 734.58 L788.09 734.49 L788.92 730.40 L789.69 726.31 L792.27 723.66 L794.52 720.74 L796.00 717.27 L797.11 713.54 L803.34 713.45 L804.11 709.48 L805.98 706.29 L811.50 705.50 L814.55 703.03 L809.88 695.66 L809.90 691.36 L810.50 687.47 L805.85 680.51 L809.52 678.53 L814.88 677.45 L815.08 673.43 L820.06 672.03 L825.07 670.55 L825.13 666.46 L825.33 662.48 L826.99 659.24 L828.21 655.79 L829.08 652.19 L831.19 649.17 L835.08 646.91 L834.80 642.81 L838.31 640.33 L842.56 638.09 L841.30 633.63 L835.89 627.65 L837.38 624.37 L834.96 619.69 L830.10 614.24 L835.57 612.39 L838.81 609.72 L839.57 606.23 L848.72 605.27 L849.20 601.62 L847.59 597.39 L850.82 594.52 L849.72 590.49 L850.26 586.90 L853.99 584.08 L854.92 580.55 L855.27 576.91 L856.41 573.43 L857.50 569.94 L859.60 566.62 L857.24 562.49 L855.35 558.51 L859.68 555.53 L857.86 551.59 L857.06 547.84 L858.07 544.33 L857.44 540.63 L858.29 537.10 L858.12 533.47 L855.96 529.68 L855.41 526.06 L856.18 522.54 L855.89 518.95 L854.79 515.33 L853.40 511.73 L857.74 508.30 L855.30 504.69 L854.71 501.13 L858.23 497.56 L860.85 493.93 L856.66 490.43 L857.99 486.81 L859.41 483.16 L856.64 479.72 L858.21 476.03 L855.77 472.62 L854.04 469.19 L855.09 465.51 L852.12 462.24 L850.37 458.88 L849.70 455.41 L849.63 451.87 L848.69 448.44 L847.77 445.01 L847.35 441.51 L849.01 437.64 L847.39 434.34 L849.22 430.37 L850.24 426.51 L848.09 423.32 L844.27 420.55 L845.76 416.55 L843.70 413.40 L841.27 410.38 L842.52 406.38 L840.80 403.17 L837.71 400.39 L839.01 396.31 L835.26 393.78 L832.29 391.06 L831.15 387.75 L829.91 384.48 L829.13 381.04 L827.06 378.08 L823.21 375.82 L819.81 373.44 L817.19 370.80 L812.79 368.93 L809.46 366.67 L807.24 363.97 L805.56 361.04 L804.17 357.99 L801.77 355.41 L800.20 352.45 L799.13 349.25 L797.36 346.39 L795.62 343.53 L793.96 340.62 L792.37 337.68 L790.92 334.66 L788.76 332.05 L787.16 329.11 L785.80 326.03 L784.13 323.12 L788.08 316.64 L784.27 315.05 L781.64 312.72 L783.09 307.65 L777.24 307.55 L779.59 301.74 L773.65 301.81 L769.98 300.32 L772.82 293.97 L768.10 293.29 L768.36 288.78 L763.95 287.94 L762.58 284.69 L760.82 281.73 L755.35 281.93 L753.06 279.48 L748.91 278.67 L748.00 275.00 L747.00 271.36 L744.52 269.07 L745.73 263.24 L741.57 262.54 L739.76 259.56 L735.53 259.03 L732.56 257.26 L731.10 253.90 L724.74 255.83 L725.04 250.54 L723.11 247.66 L720.26 245.79 L717.93 243.34 L713.18 243.79 L713.10 238.61 L708.43 239.06 L704.54 238.61 L701.21 237.50 L698.06 236.18 L696.36 232.92 L694.16 230.32 L694.17 224.53 L690.74 223.56 L685.37 225.51 L685.39 219.47 L683.65 215.98 L678.75 217.40 L674.92 217.23 L673.13 213.77 L669.55 213.25 L664.91 214.62 L664.09 209.36 L659.98 209.91 L655.66 210.94 L654.49 206.12 L649.50 208.58 L646.76 206.73 L642.73 207.50 L639.67 206.36 L637.73 202.81 L634.53 201.94 L633.78 195.53 L629.47 197.15 L625.33 198.51 L623.74 193.74 L618.64 197.69 L617.40 191.83 L613.01 194.19 L609.10 195.45 L607.90 189.04 L603.84 190.78 L602.01 185.86 L597.94 187.80 L594.01 189.48 L592.25 183.93 L587.75 187.76 L583.70 190.35 L580.96 188.12 L577.74 187.72 L574.53 187.32 L571.91 184.33 L570.06 177.62 L565.92 181.33 L562.94 179.64 L560.26 176.15 L556.36 179.35 L553.73 175.27 L550.59 174.05 L546.97 176.05 L544.04 173.28 L540.80 172.59 L537.54 172.03 L533.64 177.64 L530.76 173.62 L527.38 174.77 L523.93 177.09 L520.61 178.37 L517.31 179.65 L514.19 177.59 L510.94 178.11 L507.78 175.85 L504.56 174.13 L501.29 177.11 L498.04 175.13 L494.82 176.44 L491.54 175.03 L488.38 177.50 L485.31 181.09 L481.93 177.70 L478.72 178.21 L475.36 176.55 L472.33 179.16 L469.24 180.63 L465.70 177.66 L462.92 181.80 L459.80 182.68 L456.81 184.46 L453.83 186.09 L450.52 185.44 L447.44 186.34 L443.12 180.19 L439.61 179.11 L437.25 184.01 L432.46 176.83 L428.71 175.13 L426.01 178.23 L422.59 178.13 L419.76 180.47 L417.29 184.04 L414.84 187.47 L411.45 187.39 L410.50 195.67 L408.30 199.34 L403.96 196.04 L402.77 202.63 L399.75 203.47 L397.36 206.14 L394.34 206.92 L391.18 207.36 L388.59 209.33 L383.33 204.49 L382.00 209.64 L379.57 211.96 L372.75 204.02 L373.06 212.68 L371.60 217.06 L364.48 209.14 L363.88 215.33 L363.73 222.19 L358.63 218.93 L357.49 223.58 L356.52 228.40 L352.90 228.17 L351.36 231.77 L348.91 233.65 L345.72 234.27 L342.90 235.54 L339.93 236.56 L337.75 238.90 L335.23 240.67 L332.42 241.99 L330.72 244.98 L329.41 248.51 L327.22 250.68 L325.05 252.86 L321.27 252.81 L318.54 254.25 L316.85 257.07 L314.26 258.70 L311.03 259.51 L310.46 263.70 L308.80 266.45 L305.52 267.23 L305.19 271.52 L300.10 270.24 L298.73 273.29 L298.66 277.73 L294.36 277.50 L293.00 280.46 L292.49 284.29 L289.70 285.72 L288.84 289.10 L287.08 291.56 L286.39 295.02 L284.24 297.06 L283.35 300.27 L282.04 303.06 L279.43 304.67 L277.69 307.07 L272.16 306.22 L268.31 306.91 L266.15 309.04 L258.92 307.13 L257.15 309.66 L256.07 312.72 L253.78 314.84 L252.07 317.41 L250.28 319.91 L251.47 324.53 L245.42 324.04 L245.89 328.10 L247.29 332.70 L242.51 333.22 L238.51 334.32 L241.12 339.57 L243.15 344.36 L238.69 345.21 L241.72 350.48 L240.57 353.26 L237.20 354.80 L241.65 360.61 L237.77 361.88 L235.30 363.95 L239.72 369.49 L239.49 372.62 L236.94 374.62 L234.71 376.80 L233.64 379.52 L233.19 382.52 L225.54 382.41 L229.64 387.36 L228.22 389.94 L225.48 392.01 L226.70 395.63 L222.22 397.10 L226.68 401.84 L222.44 403.45 L220.89 406.02 L219.72 408.74 L221.11 412.27 L224.36 416.31 L217.70 417.36 L217.03 420.23 L220.51 424.22 L219.02 426.82 L218.31 429.64 L211.87 431.08 L213.14 434.41 L209.79 436.69 L204.90 438.71 L207.65 442.32 L204.86 444.83 L202.17 447.41 L203.38 450.68 L210.14 454.77 L207.46 457.35 L209.01 460.54 L214.09 464.14 L209.03 466.46 L211.95 469.71 L215.64 472.97 L209.83 475.34 L214.15 478.58 L217.00 481.64 L215.50 484.40 L216.08 487.28 L214.81 490.08 L215.45 492.95 L209.95 495.71 L212.12 498.62 L216.86 501.48 L211.76 504.39 L215.27 507.18 L211.22 510.18 L214.84 512.90 L218.76 515.55 L212.30 518.79 L215.20 521.46 L213.89 524.44 L219.03 526.84 L215.42 530.06 L212.53 533.27 L217.87 535.51 L220.67 538.00 L220.22 540.92 L220.83 543.69 L220.46 546.61 L221.14 549.37 L214.43 553.51 L215.21 556.31 L213.08 559.72 L209.01 563.61 L208.81 566.71 L214.78 568.35 L216.17 571.03 L219.33 573.23 L227.15 574.11 L225.46 577.53 L226.33 580.24 L233.78 580.96 L230.64 584.87 L231.79 587.46 L238.50 588.18 L239.90 590.61 L239.91 593.53 L238.78 596.90 L240.55 599.21 L239.94 602.43 L237.62 606.39 L243.88 606.85 L242.83 610.32 L244.18 612.78 L244.26 615.81 L245.39 618.38 L251.78 618.45 L249.16 622.79 L250.82 625.08 L251.12 628.06 L255.45 628.94 L259.11 630.11 L255.10 635.45 L257.78 637.15 L262.39 637.70 L263.92 639.98 L264.71 642.71 L265.90 645.22 L268.44 646.87 L269.24 649.62 L270.41 652.14 L274.29 652.84 L275.76 655.13 L277.91 656.96 L280.70 658.30 L282.23 660.53 L284.54 662.18 L285.68 664.70 L286.80 667.26 L290.25 667.96 L294.09 668.30 L293.55 672.21 L297.20 672.63 L299.22 674.41 L298.94 678.21 L299.05 681.74 L299.52 684.99 L301.28 687.08 L298.34 693.69 L303.84 692.21 L307.16 692.77 L307.85 695.97 L312.54 695.04 L315.35 696.00 L317.69 697.44 L319.22 699.76 L320.88 701.95 L322.90 703.74 L325.24 705.16 L327.86 706.21 L330.54 707.18 L333.01 708.38 L337.05 707.56 L338.52 709.98 L339.94 712.49 L342.28 713.80 L342.44 718.13 L343.65 721.07 L345.00 723.87 L344.47 729.52 L348.29 728.77 L348.78 733.06 L351.71 733.62 L354.63 734.17 L358.12 733.72 L361.26 733.80 L360.56 740.43 L363.51 740.85 L367.10 740.07 L367.66 744.82 L373.23 740.22 L373.37 745.88 L375.87 747.07 L380.67 743.57 L380.27 750.68 L382.78 751.87 L385.74 752.07 L388.43 752.83 L389.63 757.05 L392.16 758.24 L395.81 756.70 L397.22 760.68 L400.53 759.87 L403.73 759.24 L406.76 758.98 L409.41 759.75 L410.70 764.53 L414.30 762.50 L418.71 757.70 L421.68 757.21 L425.91 752.34 L429.04 750.95 L431.73 751.00 L434.16 751.98 L434.96 759.49 L437.02 762.40 L440.05 761.24 L442.54 762.41 L444.07 768.20 L447.63 764.37 L450.74 762.42 L452.68 766.71 L455.77 764.69 L458.64 763.70 L461.46 762.90 L463.62 766.71 L466.30 766.96 L469.19 765.42 L471.60 767.98 L474.63 764.63 L476.98 768.36 L479.62 769.15 L482.70 763.50 L485.04 768.92 L487.63 771.14 L490.42 769.32 L493.10 769.76 L495.80 769.61 L498.47 774.60 L501.20 772.03 L503.91 771.21 L506.64 771.95 L509.30 770.04 L511.93 768.43 L514.55 767.14 L517.52 771.55 L520.14 770.07 L522.26 763.00 L524.80 761.83 L526.98 757.41 L529.04 752.71 L531.40 751.07 L533.70 749.20 L537.16 755.52 L540.39 759.48 L542.78 757.82 L545.31 757.13 L548.72 761.16 L551.07 759.34 L552.90 755.16 L556.07 757.47 L558.31 755.46 L560.62 753.85 L562.62 751.07 L564.97 749.81 L569.08 755.14 L571.06 752.41 L573.11 750.06 L576.35 751.79 L577.38 746.27 L581.39 750.28 L583.18 747.32 L585.19 745.17 L589.09 748.36 L591.24 746.57 L593.51 745.13 L595.96 744.20 L599.80 746.69 L601.80 744.58 L603.23 741.17 L607.02 743.29 L608.42 739.93 L610.15 737.40 L612.22 735.65 L615.23 735.87 L618.75 737.04 L618.73 731.20 L619.28 726.66 L620.09 722.76 L619.54 716.53 L621.12 714.30 L622.86 712.39 L626.26 713.32 L631.16 716.63 L634.14 716.63 L635.79 714.47 L638.06 713.31 L643.09 716.31 L642.38 710.62 L644.25 708.87 L647.67 709.31 L648.76 706.44 L649.63 703.33 L650.60 700.41 L656.07 703.42 L657.31 700.85 L657.92 697.53 L661.83 698.32 L660.54 692.77 L664.84 693.95 L666.83 692.37 L664.35 685.72 L670.96 689.34 L673.62 688.47 L674.35 685.50 L676.33 683.88 L679.28 683.26 L682.02 682.37 L682.21 678.95 L685.04 678.13 L686.24 675.73 L687.11 673.05 L688.01 670.42 L689.02 667.93 L692.90 667.95 L693.21 664.86 L690.01 658.87 L690.19 655.81 L687.91 650.83 L687.66 647.57 L688.68 645.34 L689.25 642.78 L697.17 645.70 L701.32 645.67 L701.25 642.57 L702.97 640.76 L708.21 641.34 L707.40 637.78 L706.20 634.03 L710.34 633.75 L709.89 630.53 L710.54 628.03 L710.31 625.03 L711.96 623.16 L716.18 622.73 L715.46 619.49 L717.78 617.95 L717.45 614.97 L717.66 612.31 L721.48 611.50 L719.17 607.60 L722.38 606.43 L725.69 605.25 L725.61 602.48 L726.51 600.17 L727.57 597.93 L733.53 597.74 L731.89 594.34 L730.72 591.18 L734.81 590.09 L733.07 586.77 L732.31 583.85 L732.12 581.16 L736.33 579.99 L737.56 577.77 L732.74 573.62 L731.01 570.54 L728.52 567.29 L723.89 563.50 L722.50 560.71 L722.65 558.37 L728.09 557.36 L732.88 556.09 L733.84 553.86 L733.94 551.42 L736.07 549.42 L739.82 547.71 L735.43 544.39 L738.46 542.50 L737.94 539.96 L736.78 537.33 L735.05 534.65 L733.75 532.08 L740.83 530.60 L739.42 527.99 L736.64 525.27 L741.64 523.36 L735.07 520.35 L740.20 518.38 L740.16 515.96 L734.87 513.25 L741.96 511.23 L741.95 508.80 L741.14 506.36 L740.94 503.94 L743.53 501.55 L743.05 499.12 L740.90 496.72 L742.14 494.28 L741.00 491.89 L740.06 489.52 L738.85 487.18 L738.63 484.80 L741.48 482.19 L738.31 480.02 L733.51 478.07 L729.62 476.12 L724.43 474.39 L723.01 472.29 L722.21 470.13 L721.87 467.91 L728.78 464.57 L730.91 461.88 L728.95 459.84 L729.10 457.45 L733.87 454.14 L728.96 452.72 L725.93 450.99 L729.33 447.84 L725.92 446.24 L724.17 444.28 L722.60 442.30 L725.55 439.12 L725.07 436.83 L722.52 435.14 L723.92 432.29 L719.83 431.12 L722.03 427.99 L721.71 425.63 L715.71 425.24 L719.83 421.34 L721.28 418.31 L718.67 416.79 L717.71 414.65 L717.24 412.32 L719.84 408.70 L716.69 407.45 L715.29 405.50 L715.31 402.91 L712.14 401.78 L709.88 400.26 L708.27 398.46 L711.33 394.34 L709.31 392.72 L701.85 393.98 L698.99 392.93 L695.24 392.42 L689.99 392.82 L687.09 391.97 L685.07 390.66 L690.02 385.16 L692.62 380.94 L690.39 379.67 L689.20 377.76 L691.69 373.41 L689.36 372.22 L685.25 372.27 L686.30 368.78 L683.59 367.93 L681.22 366.86 L678.23 366.29 L676.28 364.98 L679.65 359.52 L676.61 359.03 L673.76 358.44 L674.49 354.92 L668.81 356.76 L671.59 351.43 L668.99 350.70 L665.82 350.51 L668.10 345.39 L665.90 344.32 L663.75 343.22 L662.18 341.59 L662.22 338.36 L660.31 337.03 L657.15 337.01 L656.19 334.73 L654.06 333.69 L651.62 333.00 L649.49 332.00 L648.69 329.50 L647.99 326.83 L643.51 328.64 L639.33 330.20 L635.28 331.74 L630.49 334.34 L628.43 333.55 L626.31 332.86 L625.73 330.13 L627.31 324.35 L626.55 321.68 L624.15 321.29 L622.58 319.73 L623.89 313.83 L619.25 316.86 L617.07 316.22 L616.61 312.82 L613.53 313.65 L610.77 314.02 L608.10 314.30 L608.92 308.51 L606.33 308.63 L603.43 309.38 L603.01 305.55 L598.67 309.16 L598.89 303.94 L596.98 302.86 L591.89 308.39 L593.02 300.96 L591.63 298.70 L589.04 299.10 L586.92 298.45 L585.48 296.21 L584.69 292.29 L581.60 294.02 L579.76 292.63 L577.57 292.14 L574.78 293.34 L571.94 294.77 L569.72 294.55 L569.25 289.04 L566.44 290.54 L562.20 296.89 L559.81 297.49 L556.60 301.05 L553.65 303.98 L551.53 304.08 L549.26 304.79 L549.11 296.85 L547.95 292.57 L545.40 294.26 L543.50 293.02 L542.38 287.84 L539.66 290.59 L537.06 293.00 L535.52 289.51 L533.08 291.27 L530.84 291.98 L528.54 293.22 L526.49 292.85 L524.93 288.24 L522.58 290.12 L520.51 289.60 L518.33 290.30 L516.09 291.84 L514.28 287.69 L511.94 291.28 L509.96 288.94 L507.95 286.20 L505.77 287.50 L503.65 287.61 L501.52 287.74 L499.39 284.49 L497.25 286.03 L495.16 287.88 L492.98 286.23 L490.91 287.90 L488.86 289.28 L486.78 289.84 L484.48 287.29 L482.33 287.22 L480.71 292.83 L478.97 296.22 L477.29 299.56 L475.91 304.87 L474.19 306.81 L472.35 307.73 L469.73 303.47 L467.00 299.13 L464.95 299.24 L462.99 299.83 L460.69 298.66 L457.97 295.65 L456.90 300.58 L454.41 298.82 L452.56 299.92 L451.03 302.32 L449.56 304.78 L447.99 306.71 L444.29 300.91 L442.82 303.23 L441.64 306.44 L438.36 302.71 L438.51 309.90 L435.07 305.90 L432.86 305.78 L432.86 311.89 L428.63 306.20 L426.57 306.59 L425.15 308.62 L423.34 309.65 L420.26 307.57 L418.09 307.77 L417.32 311.23 L415.19 311.53 L413.34 312.45 L412.19 314.84 L411.24 317.57 L409.52 318.67 L405.83 315.90 L405.56 319.84 L406.38 325.66 L405.96 329.02 L406.68 334.27 L405.88 336.69 L404.23 337.60 L402.80 338.88 L397.33 333.60 L394.08 332.12 L393.65 335.10 L391.46 335.35 L386.95 332.18 L387.94 337.19 L387.74 340.35 L383.75 338.13 L383.79 341.56 L382.96 343.73 L382.09 345.80 L378.22 344.01 L376.54 345.07 L376.47 348.12 L372.94 346.93 L373.85 351.09 L370.89 350.65 L368.36 350.77 L370.75 356.39 L366.15 354.24 L363.10 353.88 L363.06 356.73 L361.80 358.28 L360.33 359.61 L355.59 357.72 L356.05 360.99 L355.51 363.23 L353.17 363.77 L353.55 366.82 L353.25 369.21 L352.94 371.55 L349.16 370.88 L348.35 372.80 L352.02 378.37 L352.27 381.04 L354.06 384.86 L356.25 388.90 L356.07 391.05 L356.07 393.29 L349.56 390.78 L344.63 389.55 L344.61 391.87 L343.33 393.28 L339.03 392.70 L338.74 394.82 L340.54 398.25 L337.45 398.55 L337.62 400.90 L338.84 403.84 L341.92 407.81 L341.93 409.92 L335.41 408.38 L340.24 413.14 L342.19 416.24 L337.59 415.87 L341.22 419.75 L336.43 419.37 L337.86 422.08 L337.07 423.70 L331.83 423.29 L335.30 426.85 L336.53 429.35 L336.89 431.43 L330.97 430.92 L331.38 433.05 L335.39 436.54 L329.89 436.37 L331.90 439.03 L334.04 441.67 L336.95 444.52 L333.91 445.34 L327.16 445.02 L333.01 448.72 L332.11 450.27 L331.42 451.90 L334.91 454.67 L334.83 456.42 L335.07 458.24 L333.95 459.72 L331.45 460.90 L331.37 462.65 L331.14 464.37 L331.74 466.25 L322.91 466.32 L324.52 468.44 L323.41 470.06 L318.61 471.11 L320.05 473.18 L323.58 475.50 L326.30 477.65 L320.51 478.73 L323.61 480.88 L329.89 483.28 L325.70 484.63 L328.72 486.62 L325.54 488.12 L326.24 489.92 L330.79 491.88 L323.97 493.31 L325.48 495.12 L327.80 496.91 L329.86 498.65 L328.52 500.35 L323.51 502.12 L328.56 503.78 L326.84 505.55 L326.56 507.30 L330.09 508.85 L333.95 510.31 L336.36 511.81 L327.04 514.22 L330.57 515.64 L336.41 516.75 L332.07 518.89 L336.19 520.09 L339.03 521.38 L338.65 523.07 L339.23 524.63 L336.87 526.67 L336.51 528.41 L336.50 530.10 L338.10 531.48 L332.62 534.28 L332.07 536.15 L333.74 537.54 L328.76 540.46 L329.97 541.98 L333.01 543.00 L337.35 543.62 L336.74 545.54 L333.34 548.29 L340.85 547.85 L340.30 549.76 L340.40 551.48 L343.65 552.17 L340.68 554.93 L345.42 555.03 L342.56 557.84 L341.48 560.04 L345.54 560.27 L348.45 560.89 L350.27 561.90 L344.55 566.10 L347.86 566.50 L352.15 566.39 L347.64 570.25 L352.06 570.01 L355.44 570.19 L359.05 570.19 L354.01 574.53 L353.16 576.83 L360.03 575.03 L358.92 577.44 L360.65 578.32 L364.52 577.94 L365.58 579.13 L367.10 580.03 L366.55 582.19 L365.83 584.50 L366.54 585.93 L368.03 586.84 L367.85 588.87 L363.04 594.11 L365.98 594.08 L363.28 598.03 L363.82 599.72 L366.30 599.97 L370.91 598.55 L373.35 598.71 L369.44 603.87 L374.61 601.82 L379.85 599.57 L376.72 604.27 L381.80 602.02 L379.36 606.25 L381.62 606.38 L384.92 605.51 L381.20 611.13 L384.72 610.01 L387.39 609.64 L389.65 609.61 L387.41 614.09 L388.11 615.68 L392.58 613.31 L391.43 616.83 L393.52 616.90 L396.54 615.90 L400.43 613.81 L401.96 614.35 L397.19 622.37 L401.87 619.20 L404.30 618.65 L404.12 621.33 L408.24 618.54 L410.18 618.45 L411.37 619.35 L412.40 620.46 L412.03 623.55 L413.29 624.39 L414.70 625.01 L416.45 625.12 L419.48 623.23 L421.00 623.58 L422.03 624.72 L423.97 624.35 L425.50 624.64 L426.24 626.24 L427.19 627.52 L429.22 626.90 L431.87 625.08 L433.44 625.16 L435.26 624.72 L436.45 625.49 L437.28 626.99 L437.34 630.13 L438.36 631.36 L439.20 633.01 L439.98 634.84 L440.90 636.44 L442.28 636.99 L444.35 635.86 L446.50 634.43 L448.26 633.90 L449.78 633.92 L451.37 633.73 L452.66 634.36 L454.12 634.50 L455.39 635.17 L457.12 634.44 L459.12 632.72 L460.57 632.74 L462.49 631.05 L463.73 631.68 L464.40 634.49 L465.13 637.28 L466.41 637.99 L467.68 638.83 L468.79 640.37 L469.81 642.49 L471.40 642.00 L473.28 639.85 L475.00 638.37 L476.45 638.23 L478.00 637.41 L479.47 636.97 L480.67 638.40 L481.99 639.10 L483.47 638.54 L485.00 637.36 L486.50 636.23 L487.89 636.06 L489.39 634.38 L490.77 634.03 L492.01 635.83 L493.25 638.39 L494.61 638.94 L495.95 640.94 L497.37 640.33 L498.76 641.72 L500.17 640.98 L501.55 638.20 L502.90 636.42 L504.27 636.53 L505.56 634.80 L506.87 634.03 L508.29 635.28 L509.71 636.12 L511.01 635.27 L512.13 632.58 L513.50 632.91 L514.72 631.81 L515.95 630.91 L517.29 630.96 L519.00 633.60 L520.30 633.21 L521.79 633.96 L523.35 635.04 L524.86 635.65 L526.24 635.54 L527.28 633.72 L528.12 631.12 L529.12 629.49 L530.35 628.92 L531.43 627.75 L532.69 627.37 L534.04 627.31 L535.65 628.20 L536.59 626.66 L537.14 623.89 L538.74 624.70 L539.31 622.20 L540.22 620.87 L542.07 622.32 L544.07 624.10 L545.15 623.21 L546.64 623.43 L548.30 624.08 L550.24 625.33 L551.19 624.09 L551.48 621.34 L551.94 619.10 L552.81 617.86 L553.59 616.47 L554.44 615.27 L555.95 615.46 L557.32 615.33 L558.91 615.62 L559.36 613.67 L559.79 611.75 L561.59 612.40 L561.46 609.56 L561.93 607.86 L563.88 608.72 L566.16 610.06 L567.21 609.32 L568.96 609.70 L569.97 608.86 L571.96 609.54 L572.65 608.22 L572.22 605.28 L572.14 602.94 L573.29 602.39 L573.24 600.19 L573.85 598.93 L575.70 599.32 L577.02 598.98 L576.79 596.68 L576.44 594.29 L576.93 592.97 L577.15 591.36 L578.07 590.61 L578.78 589.60 L582.11 591.53 L583.38 591.08 L585.02 591.04 L587.19 591.50 L588.40 590.94 L589.59 590.34 L589.70 588.66 L588.60 585.83 L588.46 584.00 L589.27 583.09 L589.20 581.38 L589.86 580.35 L590.91 579.67 L592.15 579.13 L591.85 577.29 L590.41 574.56 L590.77 573.34 L590.22 571.42 L591.06 570.60 L593.18 570.77 L595.97 571.39 L598.44 571.71 L598.61 570.34 L600.39 570.10 L601.22 569.18 L600.14 566.98 L599.31 565.00 L597.61 562.50 L596.82 560.64 L596.43 559.07 L596.05 557.52 L595.80 556.07 L595.76 554.77 L595.76 553.51 L595.82 552.29 L595.96 551.13 L596.10 549.98 L596.24 548.83 L596.37 547.69 L596.54 546.58 L596.73 545.49 L596.92 544.40 L597.10 543.31 L597.28 542.23 L597.46 541.15 L597.64 540.08 L597.82 539.02 L597.99 537.96 L598.15 536.90 L598.31 535.84 L598.46 534.78 L598.61 533.73 L598.75 532.68 L598.88 531.63 L599.00 530.58 L599.11 529.53 L599.21 528.48 L599.31 527.44 L599.39 526.39 L599.47 525.35 L599.53 524.31 L599.59 523.27 L599.63 522.23 L599.67 521.20 L599.69 520.16 L599.71 519.13 L599.71 518.10 L599.71 517.07 L599.69 516.04 L599.66 515.02 L599.63 513.99 L599.58 512.97 L599.52 511.96 L599.45 510.94 L599.37 509.93 L599.28 508.92 L599.18 507.91 L599.08 506.90 L598.96 505.90 L598.83 504.90 L598.69 503.91 L598.54 502.91 L598.38 501.92 L598.22 500.94 Z"/>
  <svg class="pausebutton" id="pausebutton">
    <circle cx="500" cy="500" id="pausestart" class="pausestart" r="52.65"/>
    <rect height="50.02" width="10.00" y="473.68" rx="2.00" ry="2.00" x="479.99" class="pausesymbol"/>
    <rect height="50.02" width="10.00" y="473.68" rx="2.00" ry="2.00" x="510.00" class="pausesymbol"/>
    <polygon points="530.01,500 479.99,530.01 479.99,469.99" class="playsymbol"/>
  </svg>
  <polygon id="playback-head" class="playback-head" points="941.65,500 921.65,540 961.65,540"/>
</svg>