<?xml-stylesheet href="../../style/waveformjs.css" type="text/css"?>
<svg xmlns="http://www.w3.org/2000/svg" xmlns:xlink="http://www.w3.org/1999/xlink" width="100%" height="100%" viewBox="0 0 1000 1000">
  <path class="svg-wave" id="sp" d="M598.05 500.00 L598.22 500.98 L598.39 501.97 L598.54 502.96 L598.69 503.95 L598.83 504.95 L598.95 505.94 L599.07 506.95 L599.18 507.95 L599.27 508.96 L599.35 509.97 L599.43 510.98 L599.49 512.00 L599.54 513.01 L599.59 514.03 L599.62 515.06 L599.63 516.08 L599.64 517.10 L599.63 518.13 L599.62 519.16 L599.59 520.19 L599.54 521.22 L599.48 522.25 L599.41 523.28 L599.32 524.30 L599.21 525.33 L599.10 526.36 L598.97 527.39 L598.81 528.41 L598.63 529.43 L598.45 530.45 L598.22 531.46 L597.95 532.46 L597.70 533.46 L597.39 534.45 L597.02 535.42 L596.70 536.40 L596.26 537.34 L595.73 538.24 L595.28 539.17 L594.66 540.02 L593.87 540.80 L593.01 541.54 L592.39 542.37 L591.43 543.05 L589.31 543.14 L586.60 542.91 L584.80 543.07 L583.75 543.60 L581.09 543.25 L581.53 544.54 L582.43 546.11 L583.42 547.77 L584.78 549.68 L585.94 551.51 L587.06 553.38 L587.19 554.66 L583.12 553.27 L575.83 549.68 L571.90 548.14 L573.29 550.14 L561.55 543.02 L559.96 542.81 L560.71 544.26 L556.18 541.83 L559.58 545.30 L559.24 545.98 L561.52 548.74 L562.94 550.90 L562.43 551.53 L562.58 552.71 L560.28 551.81 L559.98 552.61 L560.68 554.31 L559.26 554.11 L558.84 554.81 L559.33 556.39 L558.65 556.87 L557.82 557.20 L557.42 557.95 L556.62 558.30 L556.46 559.30 L555.94 559.95 L553.88 558.91 L556.03 562.51 L555.36 563.02 L555.58 564.56 L553.57 563.49 L553.30 564.48 L554.12 566.81 L552.85 566.60 L551.02 565.63 L548.98 564.33 L550.45 567.65 L547.71 565.33 L547.28 566.12 L549.88 571.25 L548.15 570.26 L546.95 570.01 L547.08 571.74 L547.53 574.02 L544.55 570.93 L544.44 572.36 L543.39 572.25 L543.23 573.64 L541.50 572.34 L539.74 570.90 L541.15 575.18 L539.37 573.66 L537.68 572.23 L538.92 576.46 L537.93 576.41 L536.89 576.20 L537.99 580.52 L536.53 579.49 L534.78 577.72 L535.22 580.85 L533.45 578.93 L533.08 580.29 L533.29 583.16 L531.73 581.62 L531.06 582.33 L531.08 584.94 L530.38 585.66 L529.06 584.63 L528.77 586.59 L528.01 587.20 L527.42 588.41 L526.36 588.08 L525.57 588.66 L525.21 590.82 L524.07 590.20 L522.57 588.08 L522.13 590.12 L521.46 591.33 L519.80 588.22 L519.37 590.54 L518.18 589.31 L517.25 589.30 L516.42 589.82 L514.88 586.29 L514.75 590.96 L514.27 593.89 L512.98 591.59 L511.92 590.63 L511.58 595.38 L510.50 594.34 L509.24 591.33 L508.72 595.76 L507.78 596.09 L506.74 595.10 L505.66 592.90 L504.73 593.02 L503.78 592.59 L502.81 591.33 L501.93 592.59 L501.04 596.51 L500.07 593.35 L499.12 595.74 L498.13 597.26 L497.28 592.95 L496.35 593.06 L495.37 594.00 L494.58 591.45 L493.37 595.72 L492.40 595.79 L491.57 594.25 L490.43 596.16 L489.41 596.58 L488.62 595.00 L487.20 598.51 L486.19 598.56 L485.25 598.15 L484.11 598.94 L483.46 596.83 L482.30 597.74 L480.93 599.61 L480.60 596.11 L480.29 592.85 L478.23 597.73 L477.96 594.48 L477.05 594.11 L474.77 599.13 L473.93 598.33 L473.23 597.04 L472.12 597.24 L471.16 596.93 L469.45 599.02 L468.70 597.99 L468.57 595.11 L467.38 595.48 L465.06 599.02 L465.37 595.12 L464.55 594.42 L462.82 596.09 L462.37 594.42 L461.41 594.11 L461.27 591.81 L460.17 591.83 L459.01 591.98 L458.64 590.36 L457.50 590.47 L456.18 590.90 L454.55 591.92 L453.03 592.64 L453.25 589.97 L452.98 588.32 L450.19 591.35 L450.32 588.98 L450.62 586.41 L446.66 591.20 L447.02 588.55 L447.17 586.33 L444.04 589.41 L443.35 588.54 L443.38 586.57 L440.37 589.21 L439.73 588.25 L438.98 587.46 L437.47 587.74 L437.10 586.41 L435.64 586.58 L434.19 586.71 L436.28 582.24 L434.55 582.75 L431.72 584.58 L434.13 579.93 L430.65 582.47 L428.36 583.48 L427.91 582.33 L427.30 581.36 L428.30 578.65 L427.13 578.35 L425.17 578.86 L424.86 577.61 L425.36 575.57 L422.99 576.42 L419.76 578.06 L421.62 574.73 L420.15 574.63 L418.25 574.88 L418.62 573.06 L418.43 571.77 L419.12 569.74 L420.38 567.28 L420.19 566.08 L420.22 564.73 L417.62 565.48 L414.53 566.55 L411.91 567.19 L407.28 569.26 L406.78 568.19 L408.77 565.35 L407.10 565.15 L409.48 562.14 L410.34 560.24 L408.40 560.22 L408.92 558.58 L408.10 557.82 L405.94 557.88 L404.38 557.53 L404.64 556.08 L403.11 555.68 L401.69 555.20 L403.87 552.72 L403.98 551.41 L402.57 550.92 L399.49 551.26 L400.22 549.63 L403.01 547.04 L399.97 547.29 L401.92 545.17 L404.83 542.68 L400.34 543.50 L399.47 542.69 L396.34 542.80 L394.61 542.29 L394.14 541.25 L390.16 541.54 L388.21 541.01 L390.16 539.05 L391.05 537.51 L390.80 536.38 L392.88 534.50 L396.22 532.28 L393.41 531.99 L391.12 531.50 L391.58 530.19 L390.33 529.36 L387.10 529.02 L384.56 528.44 L386.62 526.74 L387.44 525.36 L384.09 524.90 L386.63 523.17 L386.27 522.06 L384.40 521.23 L383.96 520.11 L384.35 518.85 L382.17 518.00 L380.82 516.99 L377.63 516.20 L377.08 515.02 L378.74 513.59 L376.68 512.57 L378.92 511.12 L382.36 509.62 L382.74 508.41 L384.36 507.13 L386.29 505.87 L382.01 504.91 L383.78 503.67 L383.62 502.51 L377.52 501.42 L376.53 500.20 L376.47 498.96 L375.18 497.70 L369.48 496.29 L370.35 495.02 L370.92 493.75 L371.11 492.46 L373.78 491.35 L375.65 490.23 L381.13 489.46 L381.94 488.34 L380.62 487.01 L383.57 486.15 L383.50 484.96 L375.46 482.65 L375.38 481.37 L374.42 479.94 L369.59 477.83 L372.83 477.07 L373.73 475.92 L378.94 475.66 L383.74 475.41 L385.09 474.49 L385.18 473.31 L385.05 472.06 L382.91 470.30 L383.72 469.27 L379.89 466.97 L379.34 465.51 L381.18 464.75 L381.39 463.52 L379.95 461.76 L378.56 459.97 L374.75 457.32 L376.26 456.45 L376.60 455.18 L373.96 452.79 L373.59 451.20 L375.43 450.47 L374.51 448.65 L374.09 447.00 L378.52 447.43 L380.55 446.88 L383.30 446.71 L385.24 446.20 L384.33 444.35 L384.81 443.16 L386.85 442.75 L383.73 439.70 L381.84 437.22 L382.97 436.31 L381.46 433.94 L383.91 433.78 L383.20 431.82 L386.93 432.47 L389.40 432.44 L386.09 428.84 L387.90 428.40 L390.83 428.72 L391.79 427.79 L389.56 424.70 L392.47 425.10 L393.51 424.23 L392.65 421.99 L393.54 421.00 L394.40 419.99 L397.58 420.77 L401.05 421.86 L401.58 420.67 L402.82 420.05 L404.74 420.03 L404.58 418.24 L404.84 416.80 L403.72 414.12 L406.46 414.86 L407.87 414.45 L404.62 409.64 L406.72 409.84 L408.80 410.07 L406.48 405.92 L408.71 406.30 L410.46 406.24 L408.33 402.07 L407.50 399.18 L407.82 397.50 L406.43 393.83 L408.18 393.69 L410.46 394.20 L411.82 393.68 L413.52 393.57 L414.43 392.51 L416.29 392.67 L418.42 393.22 L418.70 391.35 L420.38 391.34 L423.90 393.94 L423.65 391.31 L423.74 389.10 L423.41 386.19 L424.97 386.08 L425.49 384.36 L424.07 379.52 L424.24 377.09 L426.33 377.76 L428.64 378.87 L429.84 378.13 L431.98 379.08 L435.17 382.00 L435.65 380.04 L436.49 378.72 L437.75 378.18 L437.43 374.47 L437.56 371.52 L438.24 369.62 L438.75 367.29 L439.15 364.60 L439.28 361.21 L440.46 360.11 L441.61 358.90 L443.52 359.57 L446.21 362.28 L448.02 362.90 L448.07 358.77 L450.21 360.32 L451.47 359.42 L452.14 356.73 L454.11 357.90 L455.28 356.65 L456.44 355.30 L458.21 355.98 L458.79 352.47 L460.71 353.72 L462.76 355.61 L463.80 353.59 L465.77 355.38 L467.63 356.83 L467.77 350.52 L469.99 353.77 L471.82 355.35 L472.65 351.72 L474.25 352.11 L475.83 352.47 L476.53 347.20 L478.21 348.02 L479.56 346.55 L480.82 344.03 L482.69 346.62 L484.02 344.48 L485.33 341.71 L487.31 346.32 L488.96 347.76 L490.26 344.03 L491.96 346.67 L493.55 348.04 L494.89 342.17 L496.49 343.39 L498.05 342.38 L499.63 345.06 L501.18 344.78 L502.75 344.07 L504.26 345.74 L505.74 347.53 L507.40 344.65 L508.84 346.76 L510.47 345.45 L512.09 344.57 L513.70 344.06 L515.33 343.46 L517.00 342.63 L518.42 344.12 L520.38 341.14 L521.82 342.44 L523.12 344.50 L525.07 342.25 L526.35 344.29 L527.67 345.87 L530.20 340.93 L531.04 345.00 L532.10 347.62 L534.41 344.40 L535.23 347.92 L536.57 348.98 L539.09 345.37 L539.64 349.54 L541.14 349.95 L543.91 345.93 L544.72 348.83 L546.51 348.37 L549.65 343.71 L550.66 345.89 L552.40 345.80 L554.11 345.86 L555.49 346.85 L557.92 345.01 L559.13 346.47 L559.06 351.09 L560.06 352.89 L563.56 348.65 L563.47 353.02 L565.23 353.00 L567.99 350.82 L569.70 351.02 L572.24 349.54 L572.54 352.71 L573.88 353.69 L575.88 353.40 L576.26 356.21 L577.80 356.78 L580.47 355.33 L581.09 357.58 L583.75 356.28 L585.06 357.33 L585.48 359.83 L588.09 358.75 L588.48 361.23 L588.97 363.50 L593.57 359.53 L593.04 363.30 L593.60 365.39 L597.95 362.11 L597.72 365.31 L599.03 366.32 L602.38 364.66 L601.82 368.16 L602.33 370.20 L604.76 369.82 L604.86 372.33 L607.10 372.22 L608.76 372.85 L607.93 376.35 L609.83 376.68 L613.32 375.29 L612.72 378.42 L616.81 376.51 L619.21 376.47 L620.11 378.01 L623.07 377.47 L622.55 380.41 L624.57 380.84 L628.25 379.76 L627.11 383.19 L625.60 386.87 L627.49 387.47 L630.42 387.18 L629.21 390.46 L631.95 390.39 L633.84 391.06 L635.18 392.20 L637.40 392.66 L637.10 395.08 L637.96 396.60 L639.03 397.95 L638.17 400.69 L639.74 401.67 L639.89 403.64 L642.01 404.26 L645.75 403.84 L642.47 408.04 L644.92 408.50 L650.47 407.09 L648.63 410.26 L649.45 411.79 L653.60 411.40 L651.93 414.38 L652.22 416.21 L654.79 416.81 L654.19 419.10 L656.57 419.84 L657.41 421.39 L656.36 423.85 L657.16 425.40 L657.08 427.36 L656.12 429.68 L661.18 429.33 L659.76 431.86 L658.42 434.29 L663.38 434.14 L663.87 435.84 L663.16 437.99 L667.56 438.23 L668.95 439.63 L670.48 441.00 L672.65 442.17 L669.71 445.04 L671.73 446.28 L675.35 447.07 L671.89 449.98 L670.15 452.33 L672.51 453.52 L672.55 455.36 L671.28 457.51 L676.10 458.17 L677.70 459.67 L681.43 460.73 L683.18 462.26 L684.58 463.89 L692.12 464.41 L692.51 466.32 L692.13 468.37 L693.47 470.13 L693.65 472.08 L693.12 474.13 L694.68 475.90 L695.33 477.80 L696.73 479.63 L696.58 481.63 L696.94 483.58 L698.29 485.46 L698.14 487.46 L698.74 489.42 L700.83 491.32 L701.18 493.32 L701.82 495.32 L703.03 497.32 L701.99 499.36 L700.68 501.37 L700.43 503.37 L700.17 505.37 L698.98 507.33 L696.16 509.19 L690.99 510.86 L691.04 512.78 L695.15 515.02 L690.53 516.58 L692.03 518.65 L695.03 520.91 L690.85 522.40 L691.87 524.46 L693.70 526.67 L690.60 528.19 L695.88 530.97 L697.56 533.26 L691.93 534.29 L689.74 535.87 L694.79 538.84 L690.18 539.90 L688.17 541.45 L690.79 544.03 L688.73 545.55 L693.58 548.77 L688.84 549.59 L688.92 551.64 L692.54 554.70 L687.46 555.29 L687.45 557.33 L689.75 560.12 L685.18 560.71 L687.28 563.48 L688.10 565.86 L684.18 566.57 L686.14 569.39 L685.89 571.42 L683.30 572.54 L687.88 576.53 L684.09 577.14 L681.55 578.22 L685.40 582.09 L681.04 582.33 L679.90 583.99 L684.13 588.22 L678.54 587.75 L676.55 588.97 L678.49 592.20 L673.89 592.04 L674.58 594.65 L675.59 597.48 L671.37 597.40 L672.96 600.60 L673.95 603.52 L670.63 603.87 L673.16 607.80 L671.52 609.17 L668.15 609.40 L670.47 613.36 L667.53 613.83 L665.72 615.04 L671.69 621.75 L667.93 621.62 L662.40 620.11 L660.92 621.52 L662.97 625.65 L657.89 624.27 L656.08 625.40 L656.53 628.35 L655.86 630.43 L657.27 634.31 L653.31 633.60 L653.93 636.87 L653.55 639.31 L649.20 638.11 L649.86 641.52 L648.64 643.21 L645.73 643.25 L648.23 648.65 L644.68 648.02 L641.78 647.99 L643.96 653.31 L639.73 651.81 L637.90 652.87 L640.34 658.73 L635.56 656.45 L633.69 657.44 L635.01 662.26 L630.89 660.55 L630.20 663.01 L630.25 666.45 L625.97 664.34 L624.72 666.13 L624.15 668.86 L620.86 667.88 L621.72 672.68 L619.22 672.79 L616.09 671.89 L616.95 676.96 L613.83 676.04 L611.58 676.41 L613.34 683.22 L608.93 680.09 L606.45 680.03 L607.61 686.21 L603.26 682.90 L601.98 684.92 L603.68 692.53 L599.74 689.74 L595.82 686.79 L594.58 689.00 L593.64 691.90 L589.79 688.76 L588.63 691.24 L586.85 692.42 L585.80 695.27 L584.13 696.80 L581.33 695.63 L581.71 702.24 L578.32 699.56 L575.54 698.29 L575.47 704.21 L572.00 700.98 L569.80 701.16 L569.78 707.80 L566.17 703.76 L563.88 703.63 L563.24 708.87 L559.96 705.45 L558.29 707.41 L557.04 711.03 L553.91 707.69 L552.08 709.19 L550.44 711.61 L547.65 709.19 L546.41 713.59 L544.09 713.14 L541.27 710.08 L539.71 713.41 L537.23 711.82 L534.86 710.67 L533.85 718.06 L530.88 712.96 L528.61 712.27 L527.36 719.58 L524.63 715.14 L522.54 715.94 L520.84 721.13 L518.26 716.95 L516.11 717.36 L514.15 720.89 L511.74 717.28 L509.71 720.73 L507.66 725.29 L505.29 720.39 L503.03 716.71 L500.88 719.82 L498.69 717.79 L496.55 715.32 L494.30 718.99 L492.20 716.56 L489.83 720.75 L487.84 716.80 L485.74 715.69 L483.18 720.78 L481.39 715.80 L479.32 714.75 L476.90 717.02 L475.13 713.37 L473.27 710.96 L470.91 712.52 L469.12 709.94 L466.80 711.09 L464.47 712.02 L462.39 711.46 L458.86 718.60 L457.16 715.75 L455.45 713.16 L452.41 716.85 L450.50 715.26 L449.07 711.78 L445.26 717.98 L443.87 714.43 L441.78 713.67 L436.47 724.30 L435.35 719.83 L432.77 720.44 L428.82 725.29 L429.23 716.43 L428.44 711.66 L426.68 709.93 L426.14 704.86 L424.48 703.09 L421.27 705.40 L420.43 701.53 L415.95 706.81 L413.39 707.15 L411.99 704.72 L404.95 715.14 L403.14 713.43 L403.94 706.18 L404.08 700.61 L401.59 700.63 L402.56 693.73 L402.81 688.51 L398.72 691.71 L395.32 693.45 L391.04 696.63 L388.11 697.23 L384.19 699.47 L380.49 701.19 L380.95 695.91 L379.03 694.67 L376.06 695.06 L373.57 694.66 L370.23 695.49 L370.12 691.47 L367.39 691.36 L364.74 691.06 L365.66 685.80 L363.38 685.02 L357.30 689.27 L360.30 681.48 L357.36 681.52 L353.49 682.65 L355.21 676.86 L354.75 673.85 L349.86 676.09 L349.99 672.41 L347.43 671.86 L342.61 673.76 L342.69 670.22 L338.79 670.98 L335.94 670.54 L338.80 664.25 L338.16 661.64 L336.50 660.06 L338.11 655.35 L335.58 654.65 L333.18 653.79 L329.85 653.74 L323.71 656.11 L323.50 653.18 L321.41 651.89 L314.64 654.48 L318.45 648.25 L321.68 642.67 L323.07 638.68 L324.06 635.09 L325.15 631.49 L324.59 629.18 L318.92 630.59 L314.78 630.77 L309.36 631.77 L307.83 630.00 L302.42 630.80 L302.81 627.73 L305.21 623.42 L301.77 622.84 L302.37 619.75 L303.89 616.17 L297.66 617.14 L300.49 612.85 L299.87 610.58 L292.93 611.72 L297.02 606.91 L290.49 607.68 L285.54 607.53 L289.53 602.91 L285.23 602.36 L283.45 600.57 L285.20 597.16 L282.60 595.73 L279.49 594.48 L281.02 591.24 L274.84 591.18 L272.09 589.65 L272.33 586.94 L264.67 587.18 L269.07 582.93 L273.02 578.96 L272.19 576.70 L275.10 573.23 L278.01 569.83 L274.99 568.32 L274.89 565.90 L273.94 563.73 L265.14 563.68 L266.11 560.91 L262.36 559.36 L253.72 558.91 L257.81 555.37 L263.60 551.57 L264.69 548.87 L267.66 545.84 L273.02 542.43 L275.22 539.69 L268.06 538.57 L262.68 537.03 L261.85 534.72 L255.99 533.09 L247.46 531.68 L252.96 528.48 L255.06 525.76 L249.59 523.80 L255.75 520.76 L251.36 518.63 L247.53 516.38 L251.39 513.63 L250.45 511.18 L250.49 508.68 L256.17 506.04 L250.23 503.69 L250.69 501.19 L254.97 498.72 L250.79 496.21 L251.92 493.74 L256.01 491.40 L249.81 488.68 L251.83 486.28 L254.31 483.95 L245.21 480.80 L248.64 478.53 L249.07 476.03 L241.90 472.74 L250.57 471.13 L255.90 469.27 L256.29 466.84 L260.19 464.93 L262.65 462.86 L260.49 460.06 L261.51 457.78 L258.80 454.81 L254.33 451.42 L255.76 449.16 L249.85 445.31 L251.20 443.00 L259.37 442.33 L264.79 441.14 L267.73 439.40 L271.99 438.07 L272.27 435.69 L270.84 432.81 L268.32 429.54 L260.23 424.46 L264.08 423.07 L262.61 419.95 L260.27 416.48 L267.03 416.22 L266.94 413.54 L266.96 410.89 L272.96 410.57 L269.31 406.46 L267.45 402.99 L270.28 401.46 L268.86 398.10 L268.00 394.94 L270.62 393.35 L266.47 388.56 L271.57 388.18 L273.30 386.20 L271.36 382.35 L275.26 381.50 L278.32 380.27 L274.17 375.09 L278.11 374.36 L278.55 371.67 L271.18 364.32 L275.63 363.91 L275.12 360.51 L273.36 356.25 L281.72 358.48 L286.52 358.53 L288.20 356.58 L293.95 357.45 L294.92 355.07 L292.69 350.36 L294.46 348.49 L292.56 343.86 L292.26 340.36 L291.75 336.63 L288.16 330.36 L292.58 330.47 L299.69 332.91 L304.67 333.73 L306.55 331.96 L313.67 334.85 L319.39 336.66 L320.51 334.38 L319.16 329.76 L320.79 327.88 L323.46 327.02 L321.26 321.32 L322.52 318.99 L324.45 317.35 L323.84 313.01 L324.54 309.97 L323.01 304.43 L321.45 298.70 L327.20 301.21 L327.37 297.35 L327.65 293.53 L333.91 296.93 L334.45 293.41 L333.25 287.60 L340.40 292.47 L340.74 288.57 L341.65 285.34 L346.77 287.87 L349.07 286.59 L349.09 282.03 L352.71 282.65 L352.58 277.71 L352.73 273.03 L356.12 273.33 L354.08 264.96 L354.08 259.61 L359.03 262.44 L364.06 265.61 L366.27 264.03 L370.93 266.84 L376.20 270.99 L378.06 268.93 L379.51 266.03 L379.15 259.46 L382.34 259.86 L383.15 255.34 L382.62 247.78 L386.32 249.20 L391.43 253.95 L395.65 256.96 L398.44 256.79 L402.69 260.26 L406.54 262.98 L407.95 259.52 L409.07 255.15 L410.61 251.70 L413.05 250.70 L413.25 243.02 L416.75 245.00 L419.95 246.23 L421.88 243.44 L425.19 245.20 L428.54 247.28 L430.29 243.69 L434.05 247.58 L436.07 244.91 L437.55 239.83 L441.20 243.76 L442.00 235.14 L444.10 231.90 L447.80 236.49 L449.74 232.31 L452.37 231.51 L455.59 234.26 L457.65 229.99 L460.19 228.44 L463.34 231.27 L465.01 222.83 L467.74 222.15 L470.59 222.48 L472.60 214.13 L476.11 221.54 L479.29 226.48 L482.06 226.77 L485.03 230.86 L487.86 233.89 L490.47 232.24 L493.15 232.06 L495.80 230.36 L498.46 223.17 L501.22 225.02 L504.06 218.62 L507.04 211.88 L509.70 218.46 L512.20 225.60 L514.83 227.86 L517.32 231.51 L519.50 238.46 L522.11 238.78 L525.17 234.26 L528.52 227.92 L531.38 226.97 L534.60 223.39 L538.60 214.62 L540.56 221.14 L543.04 223.48 L546.56 219.39 L548.39 225.40 L551.87 221.93 L555.05 220.43 L557.66 221.88 L560.35 222.87 L562.84 224.70 L564.62 229.40 L568.90 223.77 L570.99 227.03 L572.92 230.68 L576.77 227.31 L578.83 230.34 L580.58 234.26 L585.37 228.28 L587.06 232.30 L589.38 234.22 L595.30 225.74 L596.11 232.07 L598.93 232.67 L603.64 228.32 L603.43 236.79 L604.50 241.69 L607.47 241.82 L608.25 247.09 L610.22 249.43 L613.74 248.30 L615.80 250.42 L620.57 246.80 L624.08 246.01 L626.14 248.20 L632.91 241.20 L633.72 245.89 L633.30 252.72 L634.43 256.50 L634.52 261.98 L635.65 265.50 L638.58 265.87 L640.77 267.50 L645.68 264.73 L653.12 258.15 L653.16 263.36 L657.63 261.71 L661.60 260.94 L659.88 268.51 L662.55 269.60 L665.16 270.80 L664.15 276.94 L669.72 274.14 L672.64 274.97 L672.77 279.41 L678.85 276.29 L681.15 278.01 L683.00 280.25 L691.35 274.85 L688.63 282.50 L691.91 283.14 L696.62 282.24 L695.13 288.19 L696.12 291.34 L702.18 289.16 L702.11 293.41 L705.97 293.62 L713.85 289.97 L713.25 294.71 L719.09 293.27 L727.75 289.37 L725.96 295.18 L722.65 302.20 L724.07 304.91 L722.75 309.94 L720.06 316.01 L722.09 318.05 L724.90 319.48 L733.24 316.59 L734.52 319.35 L738.13 320.33 L749.69 315.50 L746.71 321.49 L741.37 329.00 L739.27 334.06 L739.19 337.63 L735.07 343.84 L733.75 348.06 L737.62 348.91 L744.49 347.95 L748.90 348.64 L753.23 349.45 L760.75 348.49 L761.65 351.45 L759.69 355.98 L762.95 357.59 L761.92 361.51 L765.74 362.87 L771.73 363.21 L766.04 369.39 L770.25 370.66 L774.03 372.21 L768.09 378.22 L772.90 379.32 L777.21 380.71 L771.28 386.46 L776.30 387.59 L778.46 389.95 L775.88 394.15 L778.86 396.19 L782.40 398.08 L780.40 401.96 L786.28 403.10 L788.73 405.48 L787.18 409.16 L794.58 410.05 L791.06 414.29 L785.75 418.95 L786.75 421.76 L785.33 425.20 L781.99 429.08 L784.94 431.36 L785.55 434.23 L787.27 436.86 L797.28 437.76 L795.23 441.27 L798.29 443.76 L804.82 445.67 L798.11 449.94 L793.50 453.73 L791.08 457.09 L786.05 460.75 L785.54 463.72 L787.59 466.38 L789.31 469.11 L798.80 471.12 L801.28 473.91 L802.63 476.84 L811.47 479.30 L806.13 482.72 L805.06 485.84 L813.64 488.59 L809.28 491.84 L810.11 494.92 L816.96 497.98 L809.93 501.12 L808.21 504.20 L808.65 507.29 L802.17 510.17 L808.50 513.47 L807.83 516.52 L803.04 519.31 L806.76 522.63 L805.91 525.64 L801.88 528.35 L807.13 531.94 L805.58 534.87 L802.28 537.56 L810.58 541.75 L807.79 544.51 L807.18 547.57 L813.78 551.81 L805.67 553.61 L801.03 555.91 L800.22 558.87 L795.59 561.04 L792.87 563.53 L796.89 567.52 L795.33 570.28 L798.57 574.21 L803.41 578.65 L802.77 581.72 L805.87 585.85 L808.75 590.00 L800.31 590.81 L792.40 591.62 L791.44 594.52 L785.14 595.64 L780.12 597.08 L782.89 601.23 L782.79 604.39 L791.40 610.89 L790.11 613.74 L790.18 617.13 L795.97 622.92 L789.47 623.63 L786.82 625.90 L788.48 630.09 L784.41 631.69 L785.51 635.68 L784.49 638.70 L782.84 641.41 L781.24 644.15 L777.81 645.91 L774.22 647.54 L778.55 653.49 L773.20 654.12 L770.57 656.22 L772.96 661.26 L768.47 662.26 L764.75 663.64 L768.91 669.95 L764.21 670.71 L762.59 673.40 L768.43 681.14 L762.24 680.81 L762.03 684.55 L763.73 689.73 L755.15 687.46 L752.02 689.06 L752.72 693.57 L747.65 693.65 L746.02 696.37 L748.08 702.10 L743.91 702.80 L744.67 707.61 L742.89 710.31 L739.90 711.96 L742.98 719.04 L736.27 717.31 L729.71 715.56 L725.67 716.05 L718.95 713.86 L713.69 712.94 L713.59 717.14 L713.15 721.07 L711.01 723.28 L709.66 726.34 L709.29 730.52 L707.06 732.70 L704.08 734.02 L701.59 735.88 L698.97 737.59 L697.55 740.74 L699.12 747.67 L696.38 749.32 L692.67 749.71 L691.83 753.83 L690.68 757.63 L685.74 756.27 L681.41 755.64 L681.06 760.63 L676.64 759.77 L673.45 760.64 L670.77 762.26 L666.95 762.10 L664.26 763.65 L662.10 766.07 L659.12 767.16 L658.65 772.54 L658.12 777.98 L655.27 779.45 L655.43 786.44 L652.14 787.20 L646.77 783.87 L643.56 784.60 L640.90 786.43 L636.12 783.83 L634.36 787.52 L632.00 789.98 L629.81 792.91 L629.64 800.59 L625.73 799.75 L623.88 803.83 L622.98 810.46 L618.25 807.45 L613.65 804.56 L610.63 805.76 L608.02 808.15 L603.47 804.89 L600.20 805.26 L597.56 807.56 L593.79 806.28 L590.06 804.94 L586.54 804.20 L583.88 806.47 L580.59 806.45 L577.57 807.41 L575.77 813.47 L572.41 813.24 L570.41 819.10 L568.38 825.36 L563.94 820.06 L561.32 823.79 L558.83 828.58 L554.78 824.63 L551.66 825.98 L548.87 829.68 L545.14 827.00 L542.05 828.86 L539.02 831.49 L535.24 827.55 L532.13 829.66 L528.94 831.19 L525.35 827.85 L522.29 831.43 L519.03 832.56 L515.65 831.65 L512.61 839.20 L509.05 833.13 L505.62 827.45 L502.35 827.88 L499.08 825.08 L495.86 822.51 L492.59 824.31 L489.31 825.34 L485.92 828.55 L482.40 832.79 L479.20 830.54 L475.62 834.08 L471.80 839.68 L468.72 835.99 L465.90 830.42 L462.88 827.61 L460.07 823.44 L457.38 818.93 L454.06 819.41 L450.79 819.50 L447.29 820.84 L443.88 821.46 L440.45 822.08 L437.45 820.37 L434.66 817.73 L430.88 819.86 L426.01 826.53 L423.02 824.62 L418.93 827.24 L414.36 831.47 L412.46 825.34 L409.68 822.79 L406.34 822.28 L404.54 816.63 L401.41 815.55 L398.61 813.46 L396.61 809.06 L392.60 810.68 L390.82 805.89 L388.06 803.99 L383.25 807.52 L380.90 804.50 L376.91 805.67 L370.40 812.76 L367.60 810.70 L363.54 811.55 L357.60 816.46 L357.37 808.68 L356.19 803.23 L353.10 801.92 L351.49 797.64 L349.20 794.79 L345.02 795.64 L342.86 792.62 L337.40 795.64 L332.84 796.87 L331.19 792.91 L323.56 799.18 L320.23 797.98 L319.99 791.75 L318.31 787.98 L313.01 789.93 L312.85 783.90 L311.35 780.03 L307.26 780.02 L306.06 775.82 L303.99 772.92 L303.20 768.32 L300.84 765.92 L297.23 765.16 L295.24 762.29 L290.70 762.65 L285.91 763.22 L281.17 763.61 L276.08 764.32 L274.24 761.15 L271.58 758.95 L268.01 757.76 L266.05 754.77 L264.89 750.94 L258.78 752.35 L258.40 747.75 L256.59 744.66 L250.37 745.94 L250.97 740.49 L249.66 736.97 L243.77 737.73 L244.29 732.53 L241.73 730.18 L234.93 731.53 L235.27 726.61 L230.99 725.65 L226.74 724.59 L230.33 717.17 L230.27 712.80 L227.77 710.39 L229.24 704.96 L226.91 702.47 L223.56 700.70 L222.85 697.01 L214.54 698.65 L213.28 695.30 L211.31 692.44 L201.94 694.41 L205.15 688.14 L206.60 683.12 L204.71 680.22 L205.95 675.45 L204.24 672.48 L199.09 671.48 L197.44 668.43 L192.58 667.13 L186.22 666.54 L187.66 661.80 L182.09 660.67 L176.99 659.22 L179.03 654.24 L180.98 649.40 L179.81 646.06 L174.93 644.37 L177.88 639.23 L178.41 635.20 L173.09 633.60 L165.58 632.78 L167.85 628.05 L166.94 624.59 L160.63 623.10 L163.57 618.24 L162.38 614.88 L157.79 612.63 L161.00 607.83 L157.86 605.07 L154.46 602.35 L157.84 597.64 L154.85 594.77 L152.16 591.77 L154.70 587.42 L148.84 585.18 L150.44 581.10 L155.03 576.40 L152.48 573.33 L150.17 570.17 L152.42 566.11 L148.46 563.23 L146.73 559.90 L146.08 556.38 L139.41 553.75 L143.11 549.55 L141.49 546.13 L134.80 543.28 L139.38 539.09 L143.17 535.07 L141.94 531.58 L141.68 527.99 L145.91 524.10 L144.91 520.61 L142.91 517.14 L140.15 513.67 L140.52 510.05 L139.81 506.47 L133.64 502.92 L137.40 499.26 L140.50 495.67 L136.99 492.00 L141.88 488.52 L138.97 484.81 L135.44 481.01 L140.38 477.66 L138.11 473.89 L135.09 470.00 L139.28 466.71 L138.29 462.96 L136.52 459.11 L139.44 455.78 L137.70 451.88 L137.48 448.16 L141.82 445.12 L138.98 440.98 L140.40 437.52 L143.94 434.46 L139.63 429.93 L141.44 426.56 L142.47 423.03 L135.66 417.75 L143.93 415.86 L148.67 413.27 L147.03 409.11 L148.67 405.77 L150.96 402.64 L147.90 397.98 L149.58 394.65 L150.07 390.97 L148.43 386.59 L152.98 384.22 L151.45 379.82 L152.01 376.10 L158.44 374.53 L161.15 371.67 L163.11 368.54 L166.29 365.92 L164.24 361.19 L166.54 358.21 L166.17 354.10 L158.85 346.82 L164.33 345.23 L165.83 341.85 L162.40 336.07 L169.37 335.35 L171.74 332.41 L169.39 327.02 L174.10 325.32 L174.50 321.32 L173.42 316.45 L178.51 315.05 L178.45 310.72 L178.85 306.60 L183.53 305.09 L181.46 299.38 L184.72 297.01 L188.79 295.20 L187.37 289.75 L191.96 288.34 L194.83 285.79 L191.29 278.66 L198.27 279.06 L201.20 276.58 L198.29 269.67 L204.43 269.64 L206.26 266.31 L205.33 260.72 L212.97 262.12 L217.31 260.91 L216.78 255.56 L221.48 254.72 L223.65 251.68 L222.26 245.36 L226.44 244.11 L226.52 239.01 L228.90 236.05 L232.75 234.54 L230.36 226.76 L234.44 225.45 L240.90 226.72 L244.79 225.36 L244.95 219.97 L251.40 221.52 L255.61 220.66 L256.29 215.74 L258.87 213.00 L260.13 208.64 L263.72 207.07 L265.23 202.91 L266.64 198.55 L272.13 199.47 L275.33 197.46 L278.06 194.81 L280.58 191.84 L282.40 187.83 L286.97 187.78 L289.27 184.42 L290.50 179.36 L295.12 179.48 L298.94 178.42 L298.94 171.15 L304.63 173.15 L308.09 171.52 L308.86 165.21 L314.86 168.04 L318.45 166.69 L319.86 161.26 L325.24 163.31 L328.45 161.25 L329.66 155.12 L334.38 156.06 L336.19 150.93 L339.50 148.88 L345.65 153.20 L349.17 151.80 L351.35 147.18 L356.32 149.22 L358.81 145.24 L361.59 141.83 L365.69 141.83 L367.41 135.37 L372.44 137.97 L376.08 136.75 L377.81 129.73 L383.40 134.45 L388.09 136.63 L391.75 135.58 L396.29 137.64 L399.95 136.76 L402.50 131.64 L406.22 130.80 L409.30 127.36 L411.87 121.51 L416.20 123.05 L418.82 116.78 L421.63 110.93 L425.63 110.72 L429.46 109.60 L433.36 108.85 L437.27 108.21 L441.23 107.87 L445.16 107.33 L449.12 107.01 L452.92 105.47 L456.87 105.02 L460.71 103.43 L464.57 101.86 L468.45 100.30 L472.37 98.78 L476.35 97.90 L480.34 97.13 L484.43 98.57 L488.55 102.11 L492.58 104.33 L496.52 102.73 L500.49 103.60 L504.44 104.83 L508.51 99.50 L512.39 103.44 L516.29 105.26 L520.45 101.26 L524.20 105.36 L528.11 106.05 L532.42 101.88 L536.06 105.90 L540.04 105.86 L544.43 102.28 L548.12 105.02 L552.23 104.29 L556.56 102.22 L560.06 105.95 L564.13 105.70 L568.14 105.97 L571.41 110.31 L575.58 109.63 L578.92 113.13 L582.90 113.40 L587.35 111.63 L591.00 113.52 L595.48 111.94 L600.61 108.03 L603.53 112.76 L607.06 115.01 L611.98 112.39 L615.03 116.25 L619.06 116.79 L623.83 115.08 L626.80 118.94 L630.91 119.34 L635.61 118.14 L638.45 122.17 L643.25 120.84 L647.14 122.03 L650.10 125.54 L654.96 124.35 L658.72 125.89 L661.82 128.94 L667.32 126.58 L669.68 131.24 L672.68 134.38 L678.00 132.68 L680.07 137.68 L683.91 139.05 L689.96 136.23 L691.24 142.53 L695.02 144.07 L700.17 143.18 L701.35 149.35 L705.41 150.42 L710.09 150.50 L711.72 155.63 L716.03 156.38 L720.41 157.06 L723.01 160.53 L728.41 159.77 L731.13 163.06 L731.41 169.78 L733.47 173.83 L735.07 178.43 L737.51 181.83 L741.90 182.61 L744.93 185.22 L750.38 184.76 L759.22 180.26 L761.14 184.40 L765.54 185.54 L772.22 184.09 L774.06 188.30 L776.67 191.62 L779.58 194.57 L782.46 197.56 L786.03 199.80 L789.88 201.80 L793.04 204.51 L796.71 206.73 L799.91 209.45 L802.98 212.29 L806.80 214.44 L809.71 217.46 L813.35 219.83 L817.12 222.11 L819.88 225.30 L822.23 228.84 L824.61 232.33 L826.03 236.59 L828.59 239.91 L831.35 243.08 L832.90 247.16 L837.12 249.23 L840.32 252.10 L841.42 256.48 L844.89 259.18 L846.97 262.85 L847.59 267.50 L850.49 270.59 L852.58 274.23 L854.64 277.88 L857.94 280.76 L860.52 284.11 L862.95 287.56 L866.62 290.30 L868.42 294.13 L870.22 297.96 L873.11 301.20 L874.17 305.41 L876.87 308.77 L878.47 312.70 L879.54 316.87 L883.61 319.61 L886.06 323.15 L887.43 327.19 L890.68 330.41 L891.58 334.65 L891.99 339.07 L893.34 343.10 L895.01 346.99 L896.38 351.00 L899.30 354.44 L901.52 358.17 L903.31 362.06 L905.49 365.82 L906.71 369.92 L908.86 373.72 L911.04 377.54 L911.98 381.73 L914.50 385.48 L916.50 389.40 L917.19 393.67 L917.48 398.03 L917.63 402.41 L917.55 406.82 L918.48 411.00 L918.92 415.27 L919.48 419.52 L922.74 423.27 L922.89 427.60 L922.71 431.98 L924.86 435.98 L924.03 440.44 L923.20 444.86 L925.37 448.90 L924.52 453.30 L924.97 457.55 L927.54 461.61 L927.85 465.89 L928.48 470.15 L930.78 474.31 L930.51 478.65 L931.26 482.93 L932.06 487.23 L931.89 491.55 L932.98 495.86 L949.76 500.00 L948.38 495.52 L948.87 491.02 L948.56 486.54 L948.48 482.05 L948.40 477.56 L947.78 473.10 L948.87 468.53 L948.46 464.05 L947.64 459.60 L948.75 454.98 L947.93 450.53 L946.31 446.18 L946.58 441.62 L944.65 437.34 L942.93 433.06 L942.70 428.56 L940.91 424.31 L938.98 420.12 L939.79 415.42 L938.17 411.18 L935.91 407.09 L935.06 402.71 L932.79 398.67 L931.15 394.49 L930.31 390.12 L928.24 386.08 L927.50 381.69 L927.25 377.14 L924.92 373.20 L923.62 368.96 L922.89 364.54 L921.17 360.43 L920.20 356.07 L918.85 351.84 L917.52 347.59 L916.73 343.14 L914.70 339.15 L912.77 335.13 L910.97 331.07 L907.93 327.53 L905.60 323.71 L904.57 319.33 L902.09 315.59 L900.43 311.49 L899.52 307.01 L896.85 303.38 L894.68 299.51 L892.90 295.45 L890.30 291.82 L888.69 287.66 L886.11 284.03 L883.42 280.47 L881.87 276.26 L879.24 272.67 L876.93 268.90 L875.03 264.87 L872.27 261.39 L869.58 257.86 L867.16 254.16 L863.38 251.40 L860.54 248.01 L858.22 244.27 L854.39 241.61 L851.82 238.06 L850.29 233.71 L846.59 231.01 L844.14 227.36 L842.64 222.92 L839.73 219.61 L837.17 216.00 L834.20 212.75 L830.57 210.06 L827.25 207.14 L823.35 204.75 L818.89 202.92 L816.08 199.58 L813.22 196.28 L810.12 193.21 L807.39 189.76 L804.40 186.58 L801.54 183.24 L798.78 179.79 L795.22 177.20 L792.07 174.16 L788.43 171.67 L784.17 169.92 L784.58 162.68 L781.73 159.20 L776.91 158.13 L778.45 149.11 L775.82 145.20 L771.79 143.06 L769.52 138.60 L764.58 137.72 L759.35 137.32 L754.65 136.27 L747.92 138.24 L743.61 136.78 L741.65 131.81 L736.60 131.51 L733.90 127.58 L730.71 124.37 L725.10 125.16 L722.41 121.10 L718.92 118.35 L712.87 120.15 L710.64 115.15 L706.53 113.54 L700.28 116.05 L698.55 109.89 L694.56 108.09 L688.91 109.72 L686.38 104.92 L681.41 105.27 L675.96 106.82 L673.87 100.84 L669.04 101.08 L665.00 99.50 L661.90 95.60 L656.88 96.48 L652.95 94.63 L649.59 91.22 L644.56 92.36 L641.40 88.26 L637.43 86.39 L632.26 88.23 L629.10 83.83 L624.92 82.61 L619.66 85.10 L616.42 80.63 L611.76 81.23 L606.37 84.81 L603.49 78.55 L599.82 75.19 L595.30 75.40 L591.56 72.09 L587.25 71.33 L582.56 72.54 L578.34 71.44 L573.38 74.56 L569.31 72.71 L565.21 70.87 L560.55 72.79 L556.55 70.14 L552.32 69.02 L547.65 71.68 L543.65 68.46 L539.24 68.97 L534.59 72.76 L530.61 68.42 L526.26 68.60 L521.77 71.74 L517.61 68.46 L513.23 70.42 L508.86 73.81 L504.65 69.26 L500.34 71.31 L496.06 72.09 L491.76 70.95 L487.56 74.06 L483.46 78.32 L479.29 79.49 L475.10 79.85 L470.87 79.73 L466.60 79.16 L462.38 79.44 L458.13 79.35 L453.87 79.27 L449.72 80.23 L445.49 80.47 L441.37 81.58 L437.32 83.04 L433.18 83.81 L428.98 84.25 L424.88 85.30 L420.46 84.65 L416.22 85.02 L411.02 80.91 L405.83 77.30 L402.14 80.54 L396.89 77.19 L392.39 77.18 L388.65 80.09 L383.42 77.45 L379.36 79.22 L376.36 84.47 L372.12 85.41 L369.34 90.97 L367.18 98.14 L361.15 93.57 L357.47 96.05 L354.39 100.10 L348.52 96.59 L345.07 99.60 L340.05 98.62 L335.27 98.34 L332.95 104.01 L327.58 102.43 L324.05 105.16 L322.95 113.13 L318.80 114.30 L313.87 113.90 L311.92 119.63 L306.60 118.51 L302.29 119.50 L301.08 126.35 L295.38 124.73 L291.61 126.75 L290.75 133.85 L284.83 132.09 L282.04 135.73 L280.94 142.07 L274.20 139.20 L271.64 143.11 L269.24 147.18 L263.88 146.74 L259.48 147.83 L257.63 152.64 L253.37 153.95 L249.29 155.57 L245.79 158.00 L243.41 161.91 L243.12 168.47 L238.28 169.11 L233.42 169.80 L231.71 174.40 L225.89 174.03 L222.57 176.70 L217.50 177.38 L215.86 181.98 L216.18 188.66 L210.36 188.60 L208.81 193.14 L208.90 199.32 L207.02 203.37 L199.87 202.15 L199.06 207.25 L195.77 209.92 L191.11 211.32 L190.10 216.13 L183.29 215.66 L180.94 219.26 L179.67 223.78 L175.54 225.82 L175.90 231.64 L179.31 239.82 L173.18 240.22 L170.59 243.50 L172.22 249.99 L164.32 249.24 L161.81 252.59 L163.83 259.20 L156.78 259.30 L155.22 263.32 L155.02 268.22 L149.82 269.78 L150.73 275.34 L149.58 279.53 L143.98 280.94 L145.39 286.67 L142.18 289.58 L139.82 293.01 L141.91 298.95 L137.07 300.98 L134.08 304.07 L135.53 309.51 L128.75 310.67 L127.00 314.46 L129.97 320.53 L123.48 322.01 L122.11 325.96 L122.80 330.83 L114.66 331.79 L113.19 335.73 L112.92 340.17 L108.16 342.77 L109.08 347.66 L107.93 351.71 L108.11 356.24 L111.97 362.04 L109.35 365.50 L106.81 369.00 L109.33 374.17 L105.06 377.14 L103.38 380.96 L101.71 384.78 L97.44 387.90 L98.64 392.55 L97.81 396.62 L94.48 400.08 L98.10 405.22 L104.39 410.87 L96.68 413.36 L97.52 417.75 L99.22 422.26 L93.93 425.44 L96.13 430.01 L97.69 434.42 L92.91 437.81 L95.97 442.41 L94.73 446.36 L93.84 450.37 L97.11 454.85 L94.00 458.61 L93.12 462.63 L96.91 467.04 L91.90 470.73 L88.37 474.61 L93.96 479.03 L90.14 482.94 L87.01 486.95 L92.32 491.20 L90.26 495.25 L93.63 499.35 L97.83 503.38 L91.95 507.51 L92.22 511.59 L92.68 515.65 L90.64 519.83 L89.69 523.99 L89.45 528.13 L94.33 531.87 L93.55 536.03 L94.18 540.07 L98.37 543.71 L102.96 547.23 L98.05 551.90 L98.73 555.90 L103.88 559.22 L98.59 564.12 L100.24 567.97 L99.57 572.21 L97.52 576.74 L102.24 579.97 L101.23 584.33 L103.01 588.11 L110.54 590.53 L113.74 593.87 L110.47 598.80 L114.71 601.84 L113.81 606.22 L112.54 610.75 L116.83 613.68 L116.45 617.98 L116.31 622.23 L121.83 624.65 L119.43 629.68 L121.43 633.24 L127.14 635.43 L123.79 640.92 L126.18 644.31 L131.78 646.39 L129.84 651.47 L127.77 656.68 L131.89 659.29 L138.44 660.77 L136.35 666.08 L138.55 669.46 L144.08 671.23 L149.52 672.95 L147.31 678.45 L145.64 683.77 L150.06 685.94 L147.30 691.95 L147.11 696.66 L150.62 699.31 L149.08 704.86 L152.00 707.85 L157.54 709.21 L158.53 713.33 L164.63 714.21 L171.39 714.55 L166.42 722.58 L169.69 725.20 L172.57 728.07 L168.50 735.87 L173.03 737.60 L173.37 742.38 L176.16 745.37 L182.44 745.65 L184.03 749.51 L188.87 750.78 L196.52 749.66 L197.11 754.30 L198.84 758.02 L204.47 758.37 L203.76 764.26 L206.86 766.81 L213.77 765.80 L212.73 772.16 L216.25 774.27 L222.45 773.70 L222.73 778.94 L227.40 779.78 L232.42 780.19 L231.78 786.54 L236.46 787.25 L239.28 789.94 L240.61 794.33 L243.26 797.26 L246.96 798.97 L247.92 803.94 L249.69 808.02 L250.99 812.76 L253.09 816.57 L257.62 817.25 L259.71 821.13 L263.24 823.10 L268.85 822.15 L272.09 824.44 L277.04 824.24 L279.36 827.84 L283.97 828.01 L289.56 826.60 L290.68 832.11 L295.20 832.26 L300.59 830.86 L303.47 833.60 L302.96 842.24 L307.95 841.43 L309.77 846.24 L311.65 851.10 L315.84 851.68 L318.25 855.69 L323.04 855.03 L327.73 854.46 L331.82 855.04 L337.85 851.35 L344.63 845.70 L345.33 853.55 L348.23 856.59 L352.29 856.93 L352.77 866.08 L355.73 869.35 L360.15 868.88 L362.31 874.42 L366.45 874.70 L371.14 873.28 L374.18 876.67 L379.19 874.08 L383.22 874.35 L387.20 874.73 L392.51 870.48 L396.31 871.22 L400.72 869.65 L405.93 864.79 L408.30 870.88 L411.44 874.21 L415.56 873.43 L417.65 881.90 L421.15 884.24 L425.45 882.69 L429.65 881.45 L433.40 882.50 L436.90 885.15 L440.57 886.97 L444.48 887.27 L448.17 889.20 L452.49 886.25 L456.77 883.03 L460.85 881.01 L465.15 876.16 L469.18 873.24 L472.52 878.96 L476.14 881.90 L480.12 879.19 L483.74 883.44 L487.47 886.61 L491.30 888.54 L495.17 890.05 L499.08 886.50 L502.93 884.74 L506.77 884.60 L510.46 878.60 L514.03 872.88 L518.06 878.97 L521.71 876.34 L525.43 875.48 L529.44 878.51 L532.90 874.52 L536.62 874.00 L540.65 876.34 L543.90 871.57 L547.82 872.67 L551.50 871.85 L554.56 866.90 L558.81 870.03 L562.50 869.42 L565.23 863.41 L569.86 868.00 L574.26 870.87 L576.58 863.53 L581.20 867.24 L586.09 871.68 L589.45 869.33 L594.08 872.16 L597.69 870.80 L601.14 868.87 L605.29 869.47 L608.36 866.32 L611.38 863.14 L614.32 859.83 L618.16 859.43 L621.51 857.54 L623.53 851.89 L627.69 852.42 L630.89 850.29 L633.02 845.40 L635.01 840.39 L640.26 843.54 L644.46 843.96 L647.28 841.10 L653.22 845.32 L656.86 844.19 L661.15 844.43 L665.03 843.74 L666.43 837.94 L669.88 836.41 L672.02 832.36 L671.83 824.01 L674.50 821.23 L680.59 824.68 L683.13 821.62 L688.43 823.36 L693.92 825.26 L696.92 822.92 L700.54 821.57 L703.46 819.09 L705.55 815.38 L709.10 813.92 L711.56 810.83 L712.56 805.68 L717.90 806.76 L718.52 801.22 L719.08 795.72 L722.33 793.91 L726.76 793.62 L728.27 789.55 L730.08 785.91 L736.88 788.41 L740.11 786.46 L742.18 783.13 L744.39 779.99 L746.27 776.51 L749.30 774.34 L753.54 773.47 L756.62 771.29 L759.22 768.61 L763.09 767.22 L768.35 767.16 L767.67 761.21 L765.74 754.19 L767.23 750.55 L765.31 743.80 L763.18 737.04 L770.27 738.57 L771.23 734.63 L773.56 731.91 L778.32 731.20 L778.68 726.83 L785.25 727.47 L787.07 724.26 L786.25 719.05 L791.12 718.20 L791.49 713.96 L786.98 706.26 L792.52 705.84 L795.58 703.60 L793.27 697.71 L801.88 699.16 L802.14 695.03 L800.42 689.68 L808.29 690.37 L807.23 685.50 L806.75 681.05 L812.15 680.05 L812.36 676.03 L810.21 670.75 L817.47 670.64 L816.31 665.96 L816.14 661.86 L817.91 658.77 L819.10 655.40 L821.23 652.48 L825.07 650.34 L823.00 645.48 L827.21 643.45 L826.71 639.36 L822.59 633.80 L830.56 633.25 L832.10 630.03 L833.05 626.57 L842.59 626.29 L842.10 622.24 L847.35 620.22 L844.32 615.32 L839.45 609.93 L839.87 606.32 L834.53 600.99 L828.18 595.50 L832.76 593.24 L837.98 591.06 L838.75 587.65 L845.43 585.70 L849.70 583.06 L850.74 579.61 L854.66 576.77 L852.68 572.66 L849.55 568.38 L848.95 564.65 L843.78 560.14 L835.21 555.19 L843.81 553.08 L843.44 549.51 L840.57 545.63 L849.14 543.23 L846.15 539.35 L845.63 535.79 L851.16 532.82 L847.36 528.96 L848.25 525.53 L852.83 522.32 L847.72 518.51 L848.25 515.05 L853.07 511.72 L846.48 508.03 L846.85 504.57 L844.52 501.10 L837.15 497.70 L844.30 494.21 L844.09 490.77 L839.37 487.50 L846.28 483.78 L844.01 480.43 L838.18 477.37 L845.95 473.37 L846.16 469.87 L848.71 466.13 L855.97 461.83 L855.93 458.23 L857.65 454.40 L855.84 451.01 L849.05 448.38 L846.38 445.23 L841.32 442.53 L833.17 440.47 L838.11 436.09 L839.97 432.21 L836.14 429.47 L844.55 424.10 L843.85 420.64 L843.58 417.08 L844.80 413.13 L838.70 411.05 L835.74 408.23 L834.31 405.02 L826.75 403.62 L821.92 401.54 L826.56 396.54 L822.49 394.27 L822.22 390.78 L824.85 386.25 L819.69 384.46 L821.52 380.15 L821.21 376.59 L815.86 375.01 L816.49 371.08 L818.30 366.62 L809.86 366.50 L811.84 361.93 L812.96 357.68 L804.02 358.05 L805.11 353.81 L806.75 349.24 L798.40 349.62 L800.12 344.97 L801.14 340.61 L797.32 338.80 L796.38 335.46 L790.87 334.69 L788.68 332.09 L792.17 326.13 L792.13 322.17 L793.91 317.04 L795.41 311.98 L795.34 307.84 L790.90 306.57 L782.14 308.29 L778.84 306.44 L773.47 306.08 L764.56 308.39 L757.81 309.32 L765.24 299.69 L764.64 295.96 L762.83 293.13 L766.29 286.06 L764.68 282.97 L762.92 279.97 L755.78 281.57 L750.32 281.86 L747.26 280.14 L739.25 282.94 L733.09 284.24 L737.50 275.70 L737.97 270.71 L732.25 271.71 L735.02 264.31 L733.36 261.25 L728.33 261.68 L730.26 254.80 L726.14 254.30 L720.63 255.44 L721.63 249.33 L719.55 246.62 L712.45 249.80 L715.37 241.16 L711.92 240.06 L709.36 237.90 L709.98 231.65 L704.72 232.92 L702.71 229.99 L702.75 224.23 L696.69 226.80 L694.14 224.57 L691.35 222.68 L684.16 227.31 L682.93 223.20 L681.90 218.68 L676.69 220.65 L678.92 210.77 L677.24 206.97 L674.00 205.72 L672.16 202.07 L667.27 203.74 L661.96 206.33 L657.92 206.76 L651.88 211.07 L647.65 212.18 L648.57 203.11 L644.84 203.18 L643.43 198.45 L642.22 193.14 L638.77 192.55 L636.74 188.79 L632.61 189.80 L627.69 192.84 L624.40 192.11 L619.58 195.30 L613.13 203.04 L612.33 196.04 L609.40 194.60 L604.39 199.14 L604.43 189.03 L600.77 189.69 L596.63 191.98 L595.40 184.90 L591.18 187.61 L587.66 188.08 L585.49 183.73 L581.46 186.18 L577.77 187.58 L575.92 181.45 L571.68 185.35 L568.33 185.55 L565.06 185.49 L561.59 186.49 L558.80 184.01 L556.32 179.57 L552.18 184.65 L549.76 179.40 L546.13 181.82 L542.10 187.62 L540.10 178.19 L537.26 174.56 L533.98 174.43 L531.11 169.90 L528.18 165.27 L524.75 166.09 L520.97 172.77 L517.49 176.34 L514.21 177.06 L510.80 182.38 L507.48 188.32 L504.45 181.45 L501.29 176.45 L498.07 178.80 L494.75 172.19 L491.45 171.56 L488.15 171.15 L484.83 170.64 L481.77 174.97 L478.80 179.34 L475.66 180.41 L472.98 186.69 L470.55 194.27 L466.73 187.35 L463.76 189.00 L460.61 189.05 L456.68 183.45 L453.97 186.98 L450.67 186.39 L446.98 183.55 L444.38 187.26 L441.01 186.57 L437.25 184.00 L435.34 190.58 L431.46 187.68 L427.02 182.61 L425.03 188.28 L420.90 184.98 L417.42 184.51 L415.61 190.30 L411.79 188.56 L409.60 192.61 L407.26 195.91 L404.08 196.39 L402.07 200.49 L399.73 203.42 L394.70 198.52 L391.96 200.32 L387.88 198.50 L383.82 196.88 L380.16 196.46 L378.59 201.27 L377.43 206.84 L375.20 209.69 L374.05 214.93 L373.78 221.88 L371.97 225.20 L366.40 220.60 L362.44 219.54 L359.94 221.53 L354.26 217.31 L350.94 217.85 L347.52 218.22 L348.09 225.87 L347.95 231.97 L345.42 233.74 L345.74 240.32 L346.01 246.57 L340.96 244.06 L334.72 239.87 L333.70 243.96 L329.37 242.96 L325.10 242.15 L324.32 246.50 L319.63 245.20 L317.53 247.64 L318.15 253.71 L314.08 253.40 L310.30 253.56 L312.89 261.89 L306.90 259.26 L303.79 260.33 L305.78 267.55 L302.26 268.09 L298.16 268.01 L299.83 274.52 L294.92 273.59 L289.48 272.21 L286.03 273.08 L281.88 273.26 L280.70 276.54 L277.95 278.22 L272.11 276.90 L270.79 280.05 L268.49 282.25 L264.52 282.91 L261.73 284.71 L263.51 290.57 L267.31 298.05 L264.41 299.64 L265.23 304.35 L268.29 310.79 L268.76 314.99 L262.54 313.88 L259.74 315.54 L256.16 316.63 L251.91 317.30 L250.44 320.03 L244.63 319.69 L243.30 322.58 L246.16 328.28 L244.82 331.06 L247.29 336.31 L253.15 343.59 L248.06 343.87 L245.40 345.73 L247.30 350.31 L237.93 348.28 L236.80 351.12 L238.24 355.37 L231.45 355.11 L232.32 359.01 L233.57 363.06 L228.12 363.68 L227.99 367.00 L230.22 371.41 L224.68 372.14 L225.65 375.91 L222.63 377.87 L220.30 380.17 L221.55 383.99 L217.52 385.61 L212.47 386.89 L216.61 391.78 L214.55 394.25 L213.67 397.17 L219.14 402.30 L215.14 404.09 L212.73 406.47 L215.16 410.40 L205.62 410.62 L203.84 413.30 L201.17 415.76 L199.46 418.51 L202.98 422.65 L204.41 426.17 L207.99 430.15 L214.69 434.77 L213.53 437.51 L208.31 439.42 L208.53 442.50 L202.70 444.43 L199.85 447.00 L199.67 450.06 L196.86 452.70 L199.84 456.24 L203.51 459.80 L204.13 462.89 L210.35 466.61 L219.97 470.55 L211.06 472.53 L211.88 475.51 L214.73 478.63 L205.62 480.90 L207.86 483.98 L209.02 486.96 L204.03 489.70 L208.05 492.76 L208.01 495.68 L204.80 498.59 L209.72 501.52 L210.03 504.41 L204.96 507.44 L211.66 510.16 L211.60 513.05 L210.39 516.01 L215.90 518.56 L212.84 521.64 L208.68 524.89 L215.69 527.15 L210.69 530.56 L213.52 533.16 L219.09 535.36 L212.33 539.14 L207.46 542.78 L207.83 545.72 L205.54 549.10 L202.12 552.74 L204.18 555.43 L211.67 557.01 L215.38 559.24 L217.55 561.74 L223.79 563.28 L229.70 564.78 L222.18 569.53 L220.08 573.03 L223.52 575.10 L216.60 580.03 L217.07 582.96 L217.92 585.78 L217.11 589.13 L222.48 590.50 L225.60 592.53 L226.60 595.24 L232.69 596.13 L237.08 597.53 L232.85 602.15 L235.74 604.09 L235.88 607.09 L234.28 610.85 L238.57 612.14 L237.75 615.62 L237.67 618.79 L242.24 619.85 L241.65 623.28 L240.30 627.12 L247.11 626.95 L244.14 631.65 L241.44 636.33 L247.85 636.19 L243.52 641.86 L246.35 643.62 L251.65 643.92 L248.46 649.15 L253.28 649.65 L256.41 651.10 L256.38 654.52 L262.47 654.01 L265.19 655.60 L263.35 660.25 L265.48 662.25 L263.68 667.01 L263.00 671.07 L261.55 675.77 L263.51 678.00 L268.40 677.98 L272.78 678.26 L276.75 678.78 L283.19 677.21 L289.59 675.51 L286.83 681.46 L288.67 683.57 L290.62 685.58 L288.78 691.02 L290.08 693.69 L290.40 697.32 L292.27 699.52 L298.26 697.67 L300.77 699.16 L304.88 698.99 L312.62 694.96 L313.63 697.83 L313.32 702.17 L317.80 701.32 L315.81 707.66 L316.74 710.82 L320.61 710.59 L319.90 715.76 L323.26 716.09 L328.40 714.14 L328.44 718.53 L330.46 720.45 L336.86 716.58 L335.15 723.46 L337.82 724.52 L342.96 722.05 L345.05 723.80 L346.67 726.27 L350.56 725.34 L352.31 727.61 L354.09 729.87 L355.57 732.65 L357.66 734.49 L362.07 732.44 L362.67 736.78 L363.37 741.10 L365.27 743.38 L366.15 747.60 L368.72 748.76 L369.65 753.11 L374.21 750.37 L379.59 745.76 L381.13 748.88 L385.42 746.19 L390.56 741.45 L393.00 742.48 L391.30 753.16 L394.86 751.78 L396.80 754.26 L397.52 759.90 L401.26 757.96 L402.62 762.23 L405.96 761.21 L409.83 758.55 L412.41 759.46 L416.12 756.93 L420.82 751.01 L421.87 756.59 L424.33 757.75 L428.05 754.45 L428.61 762.47 L431.94 760.49 L435.42 757.68 L436.42 764.89 L439.89 761.93 L442.84 761.03 L444.56 765.88 L447.84 763.31 L450.83 761.93 L452.29 768.92 L455.12 768.59 L457.56 770.58 L460.13 771.93 L463.23 769.54 L465.69 771.77 L468.73 769.40 L471.80 766.14 L474.20 769.11 L477.03 767.78 L480.17 761.95 L482.41 767.86 L485.19 766.22 L488.11 760.66 L490.61 763.97 L493.32 761.30 L495.87 765.11 L498.54 761.54 L501.15 760.11 L503.82 764.62 L506.40 762.09 L508.85 757.11 L511.64 761.92 L514.41 764.59 L516.75 759.58 L519.52 761.80 L522.02 760.24 L524.12 754.69 L527.21 759.64 L529.81 759.37 L531.74 753.75 L535.10 759.50 L537.47 757.65 L539.16 751.54 L542.77 757.79 L544.96 755.17 L547.21 753.07 L550.29 755.40 L552.05 751.04 L554.45 750.04 L557.60 752.34 L559.37 748.58 L562.30 749.78 L564.92 749.64 L566.20 744.49 L569.57 747.12 L572.23 747.07 L573.25 741.57 L577.06 745.25 L579.08 743.16 L579.63 736.79 L584.18 742.26 L586.21 740.31 L587.34 736.02 L591.62 740.19 L593.09 736.89 L594.14 732.71 L598.62 736.93 L599.79 733.15 L602.25 732.44 L604.99 732.34 L607.48 731.63 L610.04 731.09 L610.13 725.44 L613.30 726.17 L616.05 725.98 L615.91 720.25 L615.83 714.87 L621.72 720.49 L624.21 719.77 L623.50 713.51 L628.65 717.35 L629.90 714.55 L629.38 708.94 L635.21 713.55 L636.29 710.58 L637.33 707.60 L642.07 710.16 L642.16 705.84 L643.84 703.88 L647.67 704.92 L647.69 700.70 L650.51 700.29 L652.46 698.72 L651.37 693.26 L655.15 694.06 L657.67 693.22 L656.50 687.92 L661.43 689.95 L662.69 687.59 L660.76 681.67 L666.56 684.47 L667.85 682.20 L666.83 677.50 L672.10 679.48 L671.95 675.77 L671.76 672.10 L677.16 673.99 L676.96 670.36 L679.15 669.04 L682.77 669.03 L681.37 664.41 L684.14 663.59 L686.97 662.79 L685.40 658.19 L689.25 658.23 L690.29 655.90 L693.43 655.26 L693.94 652.50 L690.74 646.92 L695.97 647.86 L697.06 645.61 L693.63 640.10 L692.43 636.32 L701.10 639.47 L701.21 636.58 L700.88 633.45 L705.66 633.68 L704.73 630.18 L705.72 627.94 L710.04 627.73 L708.28 623.82 L711.33 622.79 L713.31 621.11 L710.29 616.63 L714.15 615.98 L715.83 614.12 L712.81 609.81 L717.30 609.39 L716.96 606.51 L712.49 601.70 L718.69 601.99 L719.10 599.52 L716.69 595.83 L722.22 595.63 L720.77 592.40 L718.91 589.05 L724.69 588.80 L722.79 585.48 L723.84 583.33 L726.19 581.64 L722.98 577.97 L725.80 576.43 L728.37 574.76 L724.72 571.09 L729.14 569.97 L730.02 567.73 L725.79 564.04 L730.87 562.99 L731.26 560.62 L726.71 557.01 L732.01 555.89 L730.45 553.08 L734.03 551.44 L732.08 548.59 L728.32 545.42 L733.94 544.11 L731.70 541.29 L726.15 537.98 L728.99 536.10 L734.08 534.51 L730.91 531.69 L733.14 529.62 L733.96 527.35 L729.63 524.52 L733.58 522.58 L735.08 520.35 L729.91 517.59 L735.96 515.68 L736.02 513.32 L730.27 510.69 L727.40 508.27 L727.06 505.99 L726.45 503.71 L725.25 501.44 L724.16 499.19 L722.54 496.97 L722.45 494.74 L721.67 492.54 L720.96 490.35 L722.32 488.07 L721.72 485.87 L720.59 483.73 L721.73 481.41 L721.93 479.16 L721.03 477.01 L722.16 474.65 L722.63 472.34 L723.88 469.90 L722.26 467.86 L721.69 465.67 L721.98 463.35 L720.18 461.38 L719.68 459.20 L727.80 455.33 L725.94 453.35 L725.26 451.13 L727.08 448.36 L726.27 446.15 L728.32 443.25 L724.63 441.77 L724.18 439.49 L724.82 436.90 L721.44 435.45 L716.96 434.40 L720.66 430.86 L720.95 428.34 L716.40 427.41 L718.99 424.10 L717.74 422.09 L717.45 419.73 L720.04 416.27 L716.59 415.09 L715.99 412.82 L717.73 409.57 L712.96 409.05 L708.55 408.46 L712.95 403.98 L709.20 403.14 L707.35 401.46 L707.27 398.95 L703.33 398.34 L703.10 395.90 L703.17 393.29 L699.76 392.52 L701.62 388.90 L700.15 387.09 L696.06 386.80 L698.56 382.69 L696.37 381.32 L691.80 381.44 L694.75 376.91 L694.86 374.10 L688.68 375.40 L690.01 371.78 L689.78 369.15 L686.34 368.75 L685.35 366.66 L681.27 366.82 L679.48 365.36 L679.37 362.61 L675.85 362.50 L675.70 359.76 L674.26 358.03 L674.02 355.31 L672.02 354.04 L668.00 354.53 L668.95 350.73 L667.65 348.86 L663.13 349.96 L658.99 350.80 L661.61 345.28 L659.64 344.08 L655.30 345.25 L655.68 341.73 L652.86 341.47 L653.47 337.61 L653.77 333.99 L649.59 335.24 L650.30 331.10 L649.02 329.11 L644.07 331.42 L643.20 329.01 L642.18 326.73 L639.02 327.09 L638.72 323.88 L636.27 323.39 L632.00 325.34 L632.73 320.68 L630.29 320.23 L626.03 322.41 L626.79 317.49 L623.49 318.40 L618.86 321.39 L620.80 314.48 L617.67 315.27 L614.65 315.98 L614.67 311.77 L611.14 313.39 L608.91 312.91 L608.41 309.41 L604.97 311.08 L604.28 307.82 L602.33 306.84 L598.84 308.82 L598.18 305.35 L596.07 304.71 L592.53 307.06 L592.07 302.99 L589.57 303.23 L588.53 300.25 L585.89 300.84 L582.12 304.22 L582.10 298.65 L579.44 299.46 L575.64 303.33 L573.54 302.92 L572.95 298.39 L570.42 299.11 L568.63 297.76 L567.18 295.34 L564.30 297.29 L563.99 291.06 L561.84 290.61 L559.00 292.62 L557.86 288.62 L555.34 289.56 L551.74 294.94 L550.82 289.75 L548.46 290.35 L545.36 294.42 L544.25 289.46 L541.63 291.58 L538.59 296.25 L537.67 289.61 L535.22 291.27 L532.84 292.77 L531.27 289.06 L528.75 291.70 L526.50 292.75 L524.87 288.71 L522.42 291.59 L520.50 289.71 L518.40 289.45 L516.30 289.18 L514.24 288.28 L512.23 286.33 L509.90 290.19 L507.90 287.52 L505.69 290.65 L503.52 294.78 L501.50 290.67 L499.41 291.70 L497.37 295.15 L495.25 291.84 L493.22 293.60 L490.98 289.59 L489.01 292.13 L487.05 294.18 L484.79 291.50 L482.89 293.94 L481.29 299.07 L478.96 296.15 L476.68 294.23 L475.10 298.29 L472.78 296.25 L470.69 296.22 L468.72 296.93 L465.98 292.92 L464.26 295.28 L462.35 296.35 L459.75 293.88 L458.33 297.39 L457.44 303.05 L453.96 296.82 L452.44 299.43 L450.99 302.16 L448.19 299.45 L447.09 303.35 L445.68 305.86 L442.59 302.46 L441.51 305.99 L439.24 305.53 L437.33 306.26 L436.54 310.31 L433.82 308.56 L431.83 309.01 L431.11 312.92 L427.63 309.38 L426.34 311.67 L426.18 316.68 L424.99 318.97 L423.06 319.44 L420.93 319.47 L418.14 318.07 L416.06 318.33 L413.41 317.41 L410.39 315.82 L407.86 315.34 L404.78 313.85 L402.36 313.75 L400.63 314.96 L398.48 315.41 L398.94 320.52 L397.91 322.86 L396.83 325.06 L396.47 328.38 L395.84 331.18 L392.58 329.74 L389.13 328.10 L387.89 329.94 L386.08 330.89 L383.84 331.24 L381.15 330.97 L377.67 329.68 L379.45 335.65 L376.93 335.68 L374.26 335.57 L375.07 339.97 L373.77 341.59 L370.90 341.27 L371.44 345.13 L370.34 346.94 L369.96 349.57 L371.26 354.05 L367.85 353.17 L366.05 354.13 L365.03 355.94 L359.80 353.32 L358.83 355.24 L358.93 358.21 L353.44 355.61 L352.93 357.97 L352.31 360.20 L346.22 357.32 L345.45 359.45 L347.32 363.92 L345.11 364.71 L344.79 367.14 L344.77 369.79 L344.22 371.96 L344.36 374.66 L342.78 375.96 L342.30 378.12 L343.97 381.89 L342.99 383.60 L342.91 385.95 L339.87 386.18 L339.88 388.58 L338.52 390.01 L332.88 388.59 L331.75 390.26 L332.93 393.40 L333.03 395.79 L327.81 394.91 L330.74 399.01 L333.03 402.63 L329.93 403.08 L332.86 406.96 L329.99 407.57 L329.78 409.65 L328.66 411.24 L323.99 411.04 L324.20 413.35 L324.12 415.48 L321.35 416.34 L320.98 418.34 L321.40 420.68 L320.08 422.24 L321.27 424.86 L323.62 427.92 L322.07 429.35 L322.76 431.67 L324.54 434.36 L321.09 435.10 L321.45 437.25 L322.11 439.47 L318.56 440.28 L319.12 442.46 L318.32 444.20 L318.27 446.17 L320.41 448.75 L318.27 450.10 L313.98 450.92 L313.84 452.87 L310.13 453.94 L308.96 455.68 L310.19 457.96 L308.52 459.59 L311.18 462.12 L315.24 464.86 L312.80 466.33 L315.75 468.76 L312.96 470.21 L313.96 472.27 L314.46 474.24 L308.33 475.34 L308.86 477.35 L312.16 479.64 L309.69 481.30 L308.86 483.14 L312.86 485.38 L311.50 487.17 L311.95 489.09 L314.49 491.10 L314.35 492.95 L315.20 494.83 L313.83 496.66 L313.93 498.52 L314.55 500.38 L315.93 502.22 L308.65 504.22 L308.13 506.15 L310.07 507.99 L305.44 510.13 L307.56 511.95 L312.57 513.53 L311.34 515.51 L315.11 517.06 L317.35 518.70 L316.04 520.70 L319.10 522.19 L318.37 524.12 L318.72 525.92 L322.14 527.25 L321.25 529.22 L321.94 530.94 L324.46 532.31 L322.25 534.56 L320.11 536.85 L325.67 537.53 L322.53 540.07 L323.50 541.71 L328.05 542.45 L324.55 545.18 L322.93 547.49 L322.63 549.48 L322.95 551.30 L322.11 553.48 L321.59 555.59 L326.84 555.86 L329.23 556.98 L330.03 558.61 L333.39 559.32 L336.23 560.16 L334.47 562.69 L332.59 565.32 L334.44 566.52 L334.27 568.52 L333.72 570.70 L334.30 572.42 L330.67 576.03 L336.11 575.57 L338.39 576.48 L335.86 579.70 L340.67 579.34 L343.31 580.00 L342.15 582.59 L343.95 583.64 L345.22 584.97 L347.18 585.89 L349.73 586.44 L349.50 588.59 L349.01 590.92 L351.54 591.44 L350.56 594.11 L351.40 595.68 L354.36 595.84 L353.29 598.66 L354.39 600.05 L357.55 600.00 L355.39 603.68 L359.07 603.19 L363.60 601.99 L359.78 607.05 L360.99 608.34 L361.55 610.14 L361.08 612.81 L362.22 614.18 L363.47 615.47 L366.74 615.02 L369.28 615.12 L369.70 617.09 L371.57 617.75 L372.56 619.21 L373.55 620.67 L377.40 619.37 L377.62 621.56 L379.01 622.61 L382.76 621.21 L385.06 621.24 L384.75 624.02 L385.93 625.24 L388.68 624.70 L388.62 627.31 L390.84 627.31 L390.56 630.26 L389.33 634.43 L395.17 629.97 L393.92 634.24 L394.45 636.35 L398.91 633.32 L399.89 634.81 L400.43 636.92 L402.73 636.61 L403.83 637.96 L405.38 638.67 L408.92 636.39 L408.26 640.40 L409.71 641.25 L413.18 638.86 L411.98 643.97 L414.38 643.24 L417.17 641.77 L415.50 648.01 L418.37 646.36 L420.82 645.38 L420.06 650.33 L422.29 649.72 L425.65 646.82 L426.52 648.78 L427.91 649.70 L429.75 649.71 L431.06 650.82 L433.26 649.94 L434.39 651.47 L435.76 652.46 L438.30 650.63 L439.25 652.66 L441.05 652.54 L442.15 654.26 L444.11 653.70 L447.00 650.43 L447.26 654.61 L449.07 654.33 L451.70 651.42 L453.24 651.82 L454.29 653.89 L456.03 653.63 L457.29 655.07 L458.78 655.74 L461.05 653.35 L461.09 659.85 L462.88 659.43 L465.45 655.41 L465.93 660.84 L468.10 658.37 L470.40 654.92 L471.66 656.87 L473.00 658.46 L474.97 656.34 L476.43 657.29 L478.05 657.19 L480.11 653.60 L481.12 658.27 L482.81 657.47 L484.53 656.09 L485.95 657.88 L487.61 657.02 L489.17 657.19 L490.53 660.97 L492.29 657.99 L493.83 659.23 L495.41 659.70 L497.09 655.23 L498.63 656.70 L500.20 658.05 L501.74 654.74 L503.34 657.42 L504.95 658.42 L506.42 655.58 L507.96 655.27 L509.54 655.53 L510.93 653.23 L512.49 653.43 L513.98 652.79 L515.81 655.62 L517.02 652.37 L518.40 651.03 L520.40 654.56 L521.59 651.86 L522.65 648.65 L524.74 652.08 L526.77 654.82 L527.54 650.30 L529.34 651.55 L530.84 651.19 L531.28 645.86 L533.31 648.10 L534.28 645.58 L535.08 642.60 L537.29 645.28 L538.59 644.35 L539.64 642.53 L541.81 644.71 L543.26 644.33 L544.41 642.93 L546.10 643.30 L547.11 641.58 L548.13 639.96 L549.57 639.59 L550.68 638.29 L552.52 639.01 L554.29 639.46 L554.87 636.87 L557.62 639.68 L558.91 638.85 L559.02 635.34 L562.02 638.42 L562.47 635.77 L561.30 629.79 L565.10 634.35 L566.18 633.15 L565.86 629.26 L569.22 632.56 L570.15 631.13 L570.17 628.07 L573.62 631.23 L573.72 628.38 L574.41 626.63 L576.60 627.44 L577.57 626.17 L578.40 624.71 L577.80 621.04 L579.92 621.65 L581.28 621.07 L581.23 618.42 L581.10 615.73 L585.85 619.94 L586.74 618.65 L585.47 614.49 L590.04 618.14 L589.40 614.89 L586.72 609.18 L588.57 609.25 L590.57 609.46 L590.51 607.19 L591.39 606.06 L593.75 606.62 L594.58 605.43 L598.43 607.54 L597.88 604.81 L599.11 604.02 L600.32 603.20 L599.17 600.00 L599.70 598.54 L601.58 598.41 L600.46 595.40 L602.47 595.37 L603.69 594.59 L603.49 592.53 L605.66 592.59 L606.12 591.13 L605.15 588.49 L607.21 588.40 L606.53 586.07 L606.64 584.41 L611.42 586.39 L611.43 584.63 L614.67 585.30 L612.95 582.28 L614.76 581.85 L614.07 579.65 L606.47 572.77 L608.96 572.88 L608.66 571.12 L606.29 568.06 L604.91 565.71 L605.24 564.46 L605.79 563.35 L605.12 561.53 L604.54 559.79 L603.79 558.00 L603.46 556.46 L602.27 554.49 L601.67 552.87 L601.14 551.32 L601.35 550.16 L600.82 548.64 L600.53 547.27 L600.23 545.91 L600.26 544.72 L599.98 543.40 L599.80 542.14 L599.68 540.92 L599.64 539.75 L599.52 538.55 L599.43 537.38 L599.32 536.21 L599.28 535.07 L599.39 534.00 L599.38 532.88 L599.42 531.80 L599.47 530.72 L599.53 529.65 L599.58 528.59 L599.63 527.52 L599.68 526.47 L599.74 525.42 L599.76 524.37 L599.78 523.32 L599.79 522.27 L599.80 521.23 L599.81 520.19 L599.80 519.15 L599.79 518.11 L599.77 517.08 L599.74 516.05 L599.71 515.02 L599.66 514.00 L599.61 512.98 L599.55 511.96 L599.47 510.94 L599.39 509.93 L599.30 508.92 L599.20 507.91 L599.09 506.90 L598.97 505.90 L598.84 504.90 L598.70 503.91 L598.55 502.91 L598.39 501.92 L598.22 500.94 Z"/>
  <svg class="pausebutton" id="pausebutton">
    <circle cx="500" cy="500" id="pausestart" class="pausestart" r="52.65"/>
    <rect height="50.02" width="10.00" y="473.68" rx="2.00" ry="2.00" x="479.99" class="pausesymbol"/>
    <rect height="50.02" width="10.00" y="473.68" rx="2.00" ry="2.00" x="510.00" class="pausesymbol"/>
    <polygon points="530.01,500 479.99,530.01 479.99,469.99" class="playsymbol"/>
  </svg>
  <polygon id="playback-head" class="playback-head" points="941.65,500 921.65,540 961.65,540"/>
</svg>