<?xml-stylesheet href="../../style/waveformjs.css" type="text/css"?>
<svg xmlns="http://www.w3.org/2000/svg" xmlns:xlink="http://www.w3.org/1999/xlink" width="100%" height="100%" viewBox="0 0 1000 1000">
  <path class="svg-wave" id="sp" d="M598.05 500.00 L598.22 500.98 L598.39 501.97 L598.55 502.96 L598.70 503.95 L598.83 504.95 L598.96 505.94 L599.08 506.95 L599.19 507.95 L599.28 508.96 L599.37 509.97 L599.45 510.98 L599.51 512.00 L599.57 513.02 L599.61 514.04 L599.65 515.06 L599.67 516.09 L599.69 517.11 L599.69 518.14 L599.68 519.17 L599.66 520.20 L599.64 521.24 L599.60 522.27 L599.54 523.31 L599.48 524.35 L599.41 525.38 L599.33 526.42 L599.23 527.46 L599.13 528.50 L599.01 529.55 L598.88 530.59 L598.75 531.63 L598.60 532.67 L598.44 533.72 L598.27 534.76 L598.08 535.80 L597.89 536.85 L597.69 537.89 L597.47 538.93 L597.24 539.97 L597.00 541.01 L596.75 542.05 L596.49 543.09 L596.22 544.13 L595.93 545.16 L595.64 546.20 L595.33 547.23 L595.01 548.26 L594.68 549.29 L594.33 550.31 L593.98 551.34 L593.61 552.36 L593.23 553.38 L592.84 554.39 L592.43 555.41 L592.02 556.42 L591.58 557.42 L591.15 558.42 L590.68 559.41 L590.22 560.41 L589.73 561.38 L589.23 562.36 L588.72 563.34 L588.20 564.30 L587.66 565.26 L587.09 566.21 L586.56 567.18 L585.95 568.09 L585.37 569.03 L584.77 569.96 L584.14 570.87 L583.50 571.77 L582.81 572.63 L582.21 573.57 L581.43 574.35 L580.80 575.27 L580.02 576.05 L579.33 576.92 L578.53 577.68 L577.77 578.49 L576.95 579.23 L576.09 579.93 L575.37 580.78 L574.42 581.37 L573.57 582.08 L572.37 582.38 L570.65 582.07 L568.44 581.12 L567.26 581.36 L565.59 580.97 L563.89 580.52 L563.70 581.94 L563.49 583.38 L563.38 584.99 L563.41 586.82 L562.96 588.04 L562.61 589.43 L561.38 589.57 L559.55 588.79 L557.02 586.89 L554.86 585.44 L552.13 583.01 L549.71 580.94 L548.50 580.77 L547.99 581.76 L548.32 584.24 L547.13 584.10 L547.97 587.65 L548.31 590.40 L547.25 590.59 L546.99 592.33 L546.01 592.69 L544.46 591.85 L543.07 591.31 L540.64 588.42 L538.82 586.73 L537.45 585.97 L536.42 585.95 L536.26 588.02 L535.55 588.79 L535.58 591.52 L535.87 595.06 L535.35 596.61 L534.84 598.26 L533.61 597.87 L532.49 597.79 L531.69 598.65 L530.26 597.54 L529.67 599.13 L528.93 600.30 L527.89 600.47 L527.08 601.46 L526.03 601.62 L524.75 600.80 L524.12 602.66 L523.60 605.16 L522.84 606.75 L521.85 607.37 L520.75 607.41 L519.73 607.95 L518.38 606.58 L517.02 604.92 L516.16 606.37 L515.31 608.05 L514.13 607.43 L513.41 610.50 L512.54 612.69 L511.56 614.34 L510.68 617.35 L509.50 617.37 L508.30 617.09 L507.17 617.79 L505.86 615.26 L504.71 615.42 L503.59 616.54 L502.41 615.77 L501.27 617.99 L500.09 618.60 L498.90 619.18 L497.66 621.80 L496.42 622.46 L495.20 622.37 L494.04 621.12 L492.91 619.66 L491.70 619.73 L490.67 617.59 L489.63 615.97 L488.43 616.25 L487.25 616.27 L485.89 617.83 L484.71 617.70 L483.28 619.33 L481.68 621.86 L480.34 622.42 L479.27 621.32 L478.20 620.36 L477.06 619.80 L476.27 617.56 L475.25 616.56 L473.96 616.88 L473.02 615.63 L472.10 614.40 L471.04 613.78 L469.29 615.82 L468.17 615.35 L466.51 616.82 L464.43 619.55 L463.06 619.76 L461.92 619.20 L460.70 618.92 L459.79 617.70 L458.93 616.38 L457.93 615.54 L456.98 614.56 L454.74 616.97 L454.10 615.18 L452.84 614.99 L449.99 618.56 L448.74 618.20 L447.81 617.13 L447.10 615.58 L446.04 614.85 L445.56 612.93 L445.06 611.11 L443.62 611.22 L442.62 610.42 L442.07 608.81 L441.52 607.25 L439.05 609.17 L438.20 608.14 L436.68 608.27 L433.68 610.83 L432.11 610.93 L430.90 610.40 L429.85 609.64 L428.92 608.68 L428.08 607.60 L427.73 605.82 L427.15 604.42 L424.01 606.62 L424.20 604.14 L423.40 603.05 L419.27 606.37 L418.29 605.46 L417.45 604.37 L416.82 603.03 L415.70 602.30 L415.62 600.34 L415.91 597.99 L414.24 597.94 L413.60 596.70 L413.78 594.58 L413.51 592.99 L410.70 594.10 L410.10 592.86 L408.93 592.21 L405.07 594.21 L403.07 594.29 L401.00 594.40 L399.50 593.93 L398.40 593.06 L397.44 592.07 L397.50 590.19 L397.71 588.21 L394.90 588.81 L395.56 586.48 L395.55 584.74 L391.56 586.20 L390.73 585.09 L390.06 583.85 L389.65 582.43 L388.44 581.61 L388.85 579.62 L389.50 577.49 L388.16 576.78 L388.02 575.24 L387.87 573.72 L387.82 572.16 L386.47 571.43 L385.22 570.62 L383.74 569.94 L380.97 570.00 L379.52 569.24 L378.63 568.15 L377.37 567.25 L377.70 565.48 L377.99 563.77 L377.39 562.53 L377.79 560.79 L377.06 559.63 L375.28 558.96 L375.03 557.55 L372.56 557.16 L370.03 556.73 L369.18 555.55 L369.52 553.88 L369.23 552.47 L368.74 551.15 L370.24 549.08 L370.16 547.63 L369.23 546.49 L368.98 545.11 L368.95 543.66 L367.99 542.52 L366.51 541.53 L364.80 540.58 L362.68 539.73 L360.45 538.86 L358.08 537.99 L356.85 536.80 L355.86 535.52 L355.33 534.12 L355.30 532.60 L355.70 531.00 L355.82 529.47 L354.92 528.14 L355.41 526.55 L354.39 525.23 L353.03 523.96 L353.18 522.43 L353.70 520.85 L354.16 519.30 L354.32 517.80 L355.77 516.16 L355.83 514.70 L355.88 513.24 L355.83 511.79 L355.64 510.35 L355.67 508.90 L354.40 507.52 L353.33 506.10 L352.22 504.67 L350.46 503.23 L348.82 501.75 L347.83 500.24 L347.27 498.72 L347.23 497.19 L347.23 495.66 L347.55 494.14 L347.90 492.63 L347.83 491.10 L348.30 489.61 L348.68 488.11 L348.42 486.56 L348.85 485.08 L349.77 483.65 L351.12 482.29 L351.23 480.79 L352.67 479.48 L353.55 478.10 L353.79 476.64 L354.98 475.34 L355.85 474.01 L356.34 472.61 L356.76 471.20 L356.88 469.73 L357.26 468.32 L358.80 467.18 L364.19 467.00 L371.00 467.28 L374.73 466.89 L380.21 467.05 L385.50 467.27 L384.38 465.70 L378.89 462.75 L374.30 459.95 L370.71 457.38 L363.17 453.37 L362.97 451.77 L369.27 452.52 L375.62 453.41 L377.40 452.67 L381.53 452.90 L379.38 450.64 L376.52 448.02 L372.57 444.86 L369.46 441.95 L370.55 440.88 L373.83 440.85 L374.04 439.40 L376.03 438.83 L381.05 439.82 L381.27 438.43 L378.48 435.43 L386.88 438.44 L389.43 438.38 L387.58 435.87 L392.94 437.50 L392.61 435.86 L387.68 431.38 L381.48 425.96 L379.47 423.02 L372.85 416.99 L370.88 413.85 L378.12 416.90 L385.46 420.22 L387.76 420.14 L392.39 421.80 L392.28 420.07 L391.51 417.80 L389.54 414.55 L387.20 410.93 L389.04 410.56 L391.97 411.13 L392.60 409.83 L392.36 407.78 L394.32 407.61 L397.30 408.39 L397.43 406.65 L398.08 405.36 L404.99 409.99 L405.84 408.99 L407.82 409.10 L408.86 408.31 L407.96 405.53 L406.97 402.58 L407.88 401.58 L405.04 396.50 L403.73 392.94 L405.97 393.31 L407.77 393.22 L401.89 384.08 L401.91 381.73 L404.53 382.52 L397.47 371.21 L396.87 367.77 L399.47 368.42 L403.94 371.62 L408.98 375.79 L410.51 375.28 L413.44 376.77 L418.14 380.96 L420.86 382.42 L420.99 380.03 L424.92 383.48 L427.40 384.82 L423.78 376.34 L424.26 374.33 L423.65 370.41 L420.94 362.67 L421.88 361.13 L422.77 359.44 L423.95 358.24 L425.39 357.53 L428.77 360.60 L432.95 365.48 L435.69 367.67 L439.89 373.10 L443.08 376.66 L441.95 370.85 L442.42 368.39 L443.42 367.05 L442.94 362.13 L444.54 362.10 L446.61 363.31 L447.42 361.31 L448.92 361.11 L450.70 361.68 L451.73 360.15 L449.90 350.02 L451.69 350.41 L453.25 350.15 L451.73 339.63 L453.47 339.64 L455.15 339.43 L457.16 340.50 L458.84 340.41 L460.43 339.97 L462.25 340.48 L464.55 343.24 L467.12 347.53 L468.59 346.91 L469.44 343.13 L471.90 347.63 L472.62 342.77 L473.34 337.26 L474.95 336.87 L476.51 336.18 L478.03 334.98 L479.51 333.38 L481.01 331.75 L482.94 333.98 L485.16 339.83 L486.86 340.87 L488.47 340.94 L490.89 354.19 L492.31 353.38 L493.77 353.03 L495.41 358.19 L496.77 355.92 L498.13 349.09 L499.63 343.66 L501.23 338.81 L503.00 329.39 L504.68 330.51 L506.13 337.17 L507.46 343.45 L508.90 345.72 L510.21 349.19 L511.89 347.05 L513.62 344.97 L515.62 340.47 L517.49 338.06 L518.99 339.26 L520.12 343.23 L521.93 341.61 L523.52 341.80 L524.64 344.96 L525.99 346.37 L527.77 345.27 L528.62 349.25 L529.06 354.85 L531.04 352.62 L531.79 356.24 L533.42 355.73 L535.51 353.39 L537.16 353.01 L539.42 350.39 L542.55 344.83 L543.86 346.10 L545.04 347.75 L547.15 346.27 L551.60 337.60 L553.00 338.78 L554.83 338.66 L560.74 326.96 L562.31 328.01 L563.24 330.78 L563.11 336.12 L562.83 341.60 L564.57 341.84 L564.83 345.64 L564.14 351.47 L564.56 354.49 L567.26 352.41 L566.33 358.24 L567.17 360.09 L573.03 351.71 L575.10 351.29 L577.50 350.26 L583.51 342.54 L585.31 342.94 L586.60 344.31 L588.84 343.98 L590.09 345.40 L588.93 350.83 L587.31 356.83 L587.54 359.62 L585.46 365.96 L583.95 371.19 L588.95 366.46 L591.40 365.72 L594.06 364.73 L599.26 360.25 L598.42 364.34 L600.14 364.83 L602.76 364.15 L602.22 367.64 L601.42 371.35 L603.48 371.41 L606.18 370.72 L601.17 379.31 L602.25 380.46 L603.49 381.44 L603.57 383.71 L608.08 381.06 L616.11 374.76 L619.32 373.86 L625.39 370.07 L633.33 364.57 L629.69 370.88 L624.80 378.21 L623.11 382.24 L621.22 386.34 L621.52 388.33 L626.71 385.87 L630.97 384.39 L637.38 381.16 L638.14 382.89 L638.38 385.05 L637.81 387.83 L638.54 389.52 L635.77 393.94 L634.75 396.88 L637.97 396.59 L638.75 398.16 L631.92 405.18 L635.26 404.82 L634.86 407.11 L632.97 410.36 L636.59 409.89 L643.85 407.15 L648.20 406.43 L654.17 404.80 L663.42 401.33 L660.98 404.99 L655.73 410.17 L652.24 414.21 L650.16 417.34 L649.37 419.72 L652.91 419.77 L655.36 420.46 L661.04 419.57 L662.78 420.73 L661.91 423.15 L660.37 425.83 L663.40 426.40 L663.25 428.43 L663.55 430.24 L661.36 433.07 L665.13 433.43 L661.11 436.92 L655.56 440.88 L658.79 441.46 L656.10 444.22 L658.19 445.25 L662.19 445.68 L661.87 447.58 L666.47 447.92 L673.97 447.48 L670.80 450.30 L670.31 452.28 L674.63 452.95 L683.28 452.58 L681.35 455.01 L686.15 455.79 L696.38 455.43 L695.50 457.68 L694.13 460.00 L689.22 462.98 L685.56 465.62 L685.81 467.50 L682.19 470.00 L677.61 472.58 L676.13 474.61 L678.37 476.10 L672.11 478.69 L674.39 480.18 L683.53 481.00 L683.99 482.81 L690.06 484.15 L696.77 485.57 L695.71 487.62 L697.07 489.51 L697.93 491.45 L695.80 493.50 L691.46 495.56 L685.68 497.55 L683.29 499.42 L675.47 501.20 L673.94 502.93 L679.32 504.81 L680.26 506.64 L682.55 508.55 L686.91 510.63 L683.62 512.29 L684.46 514.20 L684.97 516.10 L683.28 517.80 L682.94 519.62 L682.65 521.43 L681.93 523.20 L675.77 524.20 L675.71 525.98 L673.18 527.38 L672.71 529.08 L677.12 531.65 L684.60 534.89 L686.49 537.19 L692.82 540.46 L698.32 543.68 L691.59 544.22 L684.32 544.48 L682.65 546.02 L677.17 546.53 L676.91 548.35 L680.02 551.15 L683.06 553.99 L688.10 557.53 L686.39 559.05 L684.10 560.36 L683.58 562.23 L683.25 564.17 L677.94 564.31 L675.81 565.54 L679.92 569.13 L674.46 569.04 L667.07 568.06 L670.44 571.42 L665.62 571.36 L663.59 572.43 L666.82 575.87 L673.67 581.09 L675.33 584.01 L680.56 588.74 L686.80 594.14 L681.11 593.56 L673.75 591.97 L671.21 592.83 L667.31 592.89 L664.73 593.62 L667.87 597.64 L668.95 600.54 L671.59 604.45 L670.99 606.45 L667.10 606.35 L664.71 607.16 L665.67 610.16 L661.53 609.76 L657.90 609.61 L656.02 610.64 L657.10 613.78 L650.46 611.28 L646.96 610.98 L647.66 613.85 L644.47 613.71 L644.51 616.10 L646.63 620.23 L644.45 620.88 L646.90 625.46 L649.68 630.44 L646.50 630.26 L645.20 631.73 L646.60 635.70 L650.48 642.11 L647.18 641.81 L650.60 648.04 L653.62 654.06 L652.08 655.60 L648.36 654.85 L642.84 652.11 L640.17 652.29 L638.49 653.51 L633.17 650.62 L629.11 649.00 L627.39 650.03 L625.56 650.90 L620.78 648.15 L622.90 653.87 L625.45 660.31 L625.11 663.21 L627.16 669.38 L629.73 676.45 L628.03 677.83 L626.68 679.72 L624.37 680.24 L620.41 678.30 L615.45 674.69 L610.14 670.34 L605.29 666.46 L601.70 664.40 L599.99 665.31 L599.68 668.59 L599.76 672.63 L598.45 674.36 L597.26 676.36 L594.04 674.62 L593.18 677.25 L591.85 679.05 L589.06 677.97 L588.08 680.50 L589.74 688.68 L588.99 692.03 L586.61 691.89 L588.75 702.00 L587.95 705.73 L585.76 706.29 L583.76 707.31 L581.73 708.26 L580.04 710.11 L578.08 711.28 L576.84 714.51 L574.98 716.10 L572.85 716.94 L570.85 718.19 L568.48 718.31 L566.13 718.42 L563.98 719.20 L561.83 719.98 L559.48 720.05 L557.75 722.48 L556.16 725.61 L553.85 725.92 L551.90 727.83 L549.94 729.81 L547.71 730.65 L545.39 731.05 L543.01 731.15 L540.83 732.29 L538.52 732.78 L536.16 732.98 L533.88 733.69 L531.52 733.88 L529.17 734.09 L526.82 734.32 L524.45 734.33 L522.10 734.42 L519.77 734.83 L517.42 735.03 L515.11 735.83 L512.77 736.35 L510.43 736.93 L508.09 738.02 L505.73 738.74 L503.34 738.54 L500.94 737.28 L498.58 736.22 L496.23 735.50 L493.89 734.85 L491.53 735.11 L489.10 736.66 L486.73 736.71 L484.41 735.84 L482.08 735.22 L479.81 734.15 L477.59 732.70 L475.33 731.84 L473.03 731.41 L470.62 731.91 L468.21 732.26 L465.90 731.88 L463.59 731.45 L461.23 731.40 L458.98 730.62 L456.62 730.48 L454.41 729.57 L452.04 729.47 L449.60 729.66 L447.11 730.01 L444.60 730.33 L442.17 730.31 L439.54 730.99 L436.86 731.72 L434.21 732.26 L431.48 732.98 L428.93 733.02 L426.54 732.50 L424.34 731.39 L422.01 730.68 L419.92 729.28 L417.95 727.60 L415.66 726.80 L413.37 726.01 L411.17 724.99 L409.28 723.23 L407.43 721.41 L404.97 721.04 L402.50 720.68 L400.56 719.12 L397.96 719.00 L395.19 719.19 L392.96 718.22 L390.64 717.44 L388.30 716.65 L385.77 716.22 L383.22 715.80 L380.74 715.22 L378.20 714.70 L375.60 714.26 L373.15 713.54 L370.81 712.61 L368.58 711.48 L366.63 709.91 L364.38 708.81 L362.33 707.39 L360.61 705.50 L358.30 704.47 L356.31 702.97 L354.36 701.43 L352.43 699.86 L350.33 698.52 L348.01 697.46 L345.67 696.40 L343.31 695.35 L341.61 693.47 L340.74 690.61 L339.06 688.76 L337.20 687.12 L335.30 685.53 L332.92 684.45 L330.02 683.92 L326.64 683.86 L324.49 682.45 L322.49 680.87 L320.55 679.22 L318.56 677.62 L316.89 675.71 L316.33 672.75 L315.96 669.67 L314.81 667.33 L314.46 664.31 L313.53 661.83 L312.23 659.70 L311.01 657.51 L308.82 656.12 L306.79 654.58 L304.59 653.16 L301.80 652.17 L298.74 651.35 L296.61 649.79 L295.81 647.25 L293.83 645.57 L292.95 643.10 L293.00 640.03 L291.15 638.27 L289.67 636.24 L288.04 634.31 L285.76 632.77 L283.88 630.96 L281.64 629.34 L278.76 628.08 L276.63 626.35 L274.92 624.36 L273.38 622.27 L271.25 620.48 L270.60 617.91 L269.80 615.42 L268.26 613.31 L267.24 610.94 L266.28 608.54 L265.20 606.20 L263.72 604.04 L262.13 601.91 L260.54 599.77 L259.39 597.44 L259.56 594.58 L259.53 591.83 L258.68 589.40 L257.82 586.97 L256.37 584.75 L254.63 582.62 L251.79 580.82 L249.87 578.69 L248.77 576.28 L247.81 573.83 L246.96 571.34 L245.88 568.90 L246.30 566.07 L247.86 562.98 L247.75 560.33 L248.57 557.49 L249.91 554.56 L249.38 552.05 L249.42 549.43 L248.56 547.00 L247.17 544.65 L246.37 542.18 L244.59 539.85 L242.23 537.58 L240.31 535.21 L239.49 532.68 L238.94 530.10 L238.54 527.50 L239.75 524.74 L240.58 522.05 L240.52 519.44 L239.67 516.89 L239.80 514.27 L238.13 511.73 L236.79 509.16 L235.61 506.55 L234.74 503.92 L235.79 501.26 L239.43 498.64 L240.88 496.06 L242.23 493.50 L245.47 491.03 L246.43 488.53 L246.36 485.98 L245.87 483.40 L245.91 480.85 L246.58 478.35 L246.62 475.80 L244.99 473.07 L245.37 470.53 L246.27 468.06 L245.81 465.42 L245.86 462.83 L245.26 460.14 L244.95 457.47 L244.33 454.74 L242.57 451.77 L241.89 448.96 L240.55 445.99 L239.68 443.09 L239.06 440.22 L238.41 437.31 L239.67 434.85 L240.66 432.33 L241.76 429.86 L243.28 427.50 L244.05 424.95 L245.18 422.51 L244.98 419.65 L245.31 416.95 L246.15 414.40 L245.70 411.41 L247.04 409.03 L248.42 406.67 L249.82 404.34 L252.01 402.32 L253.16 399.91 L255.69 398.08 L257.78 396.10 L260.34 394.34 L262.68 392.53 L264.50 390.50 L265.78 388.24 L265.97 385.44 L268.81 383.95 L269.07 381.17 L270.13 378.79 L274.42 378.16 L278.29 377.37 L283.68 377.51 L286.94 376.53 L291.04 376.10 L295.34 375.86 L295.73 373.29 L294.03 369.36 L295.41 367.35 L294.28 363.68 L290.14 357.89 L291.46 355.73 L295.94 355.79 L294.64 351.77 L288.28 343.94 L293.89 344.86 L293.42 341.25 L286.62 332.61 L287.88 330.13 L290.64 328.88 L295.62 329.52 L300.17 329.90 L301.71 327.76 L305.89 327.95 L311.49 329.51 L314.68 329.01 L314.36 325.24 L320.89 327.98 L322.50 326.08 L316.82 316.88 L318.37 314.76 L318.09 310.73 L313.41 301.94 L314.89 299.53 L316.97 297.75 L318.93 295.85 L322.16 295.41 L326.98 296.89 L333.71 300.79 L337.73 301.60 L343.60 304.83 L347.24 305.42 L346.77 300.76 L347.73 297.85 L347.95 293.89 L348.30 289.99 L352.30 291.16 L353.91 288.99 L355.01 286.05 L358.48 286.60 L361.03 285.83 L362.72 283.72 L364.39 281.55 L370.64 286.90 L373.50 286.83 L374.71 283.98 L378.24 285.15 L379.44 282.20 L379.52 277.13 L381.74 275.90 L381.55 270.00 L382.38 265.88 L384.92 265.11 L388.18 265.88 L388.06 259.46 L389.82 256.92 L393.67 259.04 L393.01 250.83 L395.25 249.15 L397.53 247.54 L400.99 248.90 L404.63 250.85 L406.73 248.84 L409.25 247.93 L412.86 250.16 L416.07 251.38 L416.79 245.12 L417.38 238.09 L421.82 243.24 L422.54 236.18 L423.54 229.60 L426.72 230.60 L429.90 231.70 L432.40 230.27 L435.27 230.31 L437.99 229.79 L440.47 228.14 L443.12 227.20 L445.61 225.43 L448.27 224.45 L450.94 223.43 L453.81 223.58 L456.68 223.80 L459.57 224.22 L462.57 225.60 L465.32 225.28 L468.11 225.27 L470.78 224.29 L473.29 221.42 L476.18 222.28 L479.30 226.56 L482.22 229.29 L484.87 228.06 L488.07 238.36 L490.80 241.58 L493.31 238.33 L495.98 242.02 L498.55 239.99 L501.17 236.74 L503.78 237.78 L506.51 233.66 L509.44 225.82 L512.04 229.23 L514.59 232.12 L517.59 227.28 L520.87 220.12 L523.29 224.83 L526.54 219.77 L530.18 212.09 L533.11 211.87 L535.76 214.05 L538.00 219.04 L540.40 222.20 L543.22 222.34 L545.20 227.60 L547.04 233.07 L549.62 234.00 L552.39 233.95 L553.95 239.79 L557.24 237.17 L561.63 229.99 L564.60 229.49 L568.70 224.55 L573.20 218.51 L576.14 218.78 L578.99 219.42 L581.72 220.48 L583.72 223.93 L585.08 229.21 L585.74 236.37 L587.03 241.22 L587.48 248.25 L589.98 249.18 L593.84 246.43 L597.35 244.79 L601.11 242.70 L605.27 239.79 L607.42 241.92 L610.41 242.05 L613.28 242.48 L615.06 245.39 L616.28 249.39 L619.18 249.72 L620.71 252.91 L620.01 260.45 L623.29 259.92 L624.29 263.82 L626.76 264.86 L631.47 261.86 L637.04 257.52 L641.11 256.06 L647.25 251.22 L651.94 249.06 L651.69 255.03 L650.48 262.33 L652.38 264.57 L651.83 270.48 L654.69 271.17 L659.53 269.02 L664.28 267.15 L669.71 264.49 L670.96 267.69 L671.30 272.04 L673.31 274.10 L675.52 275.90 L675.60 280.36 L677.03 283.05 L679.34 284.66 L681.94 285.92 L679.07 293.52 L681.07 295.39 L682.60 297.77 L683.45 300.86 L688.09 299.89 L695.68 295.93 L700.54 295.02 L706.40 293.20 L713.83 290.00 L712.79 295.16 L709.13 302.67 L709.55 306.20 L708.38 311.12 L710.01 313.43 L714.33 313.39 L717.77 314.19 L723.60 313.05 L724.69 315.92 L724.98 319.42 L725.73 322.49 L729.00 323.60 L729.24 327.04 L730.66 329.56 L730.47 333.24 L734.87 333.61 L730.68 340.02 L729.39 344.29 L732.41 345.61 L732.14 349.11 L735.26 350.41 L739.96 350.77 L740.46 353.77 L746.44 353.49 L752.20 353.46 L750.58 357.73 L752.65 359.88 L757.86 360.34 L762.68 361.11 L762.54 364.53 L770.98 363.58 L776.54 364.24 L778.20 366.86 L777.53 370.57 L774.09 375.50 L774.35 378.67 L775.11 381.61 L770.74 386.69 L767.87 391.03 L769.97 393.30 L769.39 396.64 L765.67 401.10 L773.39 401.33 L779.19 402.38 L782.27 404.46 L789.05 405.37 L794.91 406.71 L796.20 409.55 L797.65 412.35 L797.91 415.50 L795.28 419.43 L791.19 423.67 L786.23 428.02 L781.31 432.24 L777.73 436.03 L779.36 438.59 L782.18 440.92 L784.54 443.40 L786.86 445.91 L790.38 448.25 L789.27 451.42 L791.38 454.06 L791.91 456.97 L792.09 459.92 L792.24 462.87 L794.87 465.53 L789.92 469.04 L785.80 472.37 L788.61 475.01 L785.57 478.15 L786.51 480.96 L788.24 483.73 L788.64 486.61 L790.37 489.43 L795.51 492.21 L795.94 495.15 L795.60 498.12 L794.95 501.07 L804.89 504.16 L800.95 507.11 L799.37 510.07 L806.96 513.40 L807.91 516.53 L806.96 519.56 L805.48 522.53 L804.08 525.49 L805.69 528.71 L803.18 531.53 L797.80 533.99 L795.71 536.75 L797.49 539.99 L791.40 542.14 L791.40 545.12 L801.05 549.71 L800.95 552.79 L803.89 556.44 L812.27 561.23 L812.56 564.54 L812.09 567.71 L811.30 570.80 L809.05 573.55 L803.85 575.53 L795.99 576.72 L792.07 578.83 L784.68 579.90 L781.74 582.12 L784.02 585.88 L785.03 589.30 L786.93 593.06 L791.54 597.79 L786.90 599.44 L788.15 603.11 L789.59 606.90 L784.83 608.39 L782.51 610.75 L781.33 613.55 L780.68 616.57 L772.71 616.47 L771.65 619.24 L769.50 621.53 L767.71 623.96 L768.88 627.78 L769.86 631.57 L768.69 634.34 L772.41 639.62 L773.74 643.78 L769.06 644.77 L768.72 648.07 L774.01 654.58 L772.10 657.11 L770.07 659.56 L777.57 667.76 L777.52 671.54 L775.99 674.43 L771.68 675.53 L765.62 675.41 L763.89 678.08 L760.51 679.62 L753.20 678.34 L749.00 679.13 L749.29 683.15 L744.44 683.38 L739.72 683.61 L744.89 691.49 L745.08 695.62 L745.15 699.72 L748.75 706.82 L748.40 710.77 L746.00 713.00 L744.85 716.33 L742.32 718.45 L736.98 717.96 L731.13 716.89 L726.47 716.82 L720.37 715.25 L715.69 714.93 L715.95 719.54 L715.28 723.27 L715.14 727.64 L714.42 731.48 L712.27 733.80 L709.17 735.06 L706.92 737.27 L703.60 738.24 L700.21 739.07 L697.58 740.78 L697.24 745.33 L690.37 741.70 L685.71 740.69 L684.83 744.57 L680.33 743.64 L679.27 747.34 L680.32 754.10 L680.31 759.55 L680.40 765.30 L682.62 774.42 L679.02 774.93 L672.69 771.11 L667.61 769.03 L663.39 768.19 L659.39 767.62 L658.70 772.63 L657.55 776.99 L657.31 783.12 L655.41 786.41 L651.92 786.78 L647.47 785.24 L644.77 787.00 L641.50 787.64 L637.38 786.47 L633.83 786.38 L632.35 790.76 L626.88 786.31 L621.88 782.61 L620.46 787.17 L616.05 784.61 L613.54 786.61 L612.85 793.41 L612.52 801.53 L610.58 805.62 L610.12 814.14 L607.86 817.84 L602.49 812.24 L597.34 806.87 L593.88 806.55 L589.78 804.01 L587.16 806.37 L584.73 809.55 L582.83 814.94 L580.17 817.71 L576.79 817.71 L572.97 815.69 L569.83 816.46 L566.88 818.19 L562.87 814.75 L559.58 814.62 L556.85 817.53 L553.03 814.25 L549.10 809.80 L546.29 812.29 L542.86 810.50 L539.85 811.64 L537.13 815.42 L534.06 816.57 L531.11 819.11 L528.41 825.09 L525.19 825.78 L521.85 824.82 L518.56 824.26 L515.78 834.41 L512.42 833.94 L509.05 833.10 L505.91 844.23 L502.47 844.71 L499.02 844.28 L495.63 840.47 L492.32 836.08 L488.95 836.31 L485.70 833.62 L482.70 827.22 L479.57 824.71 L476.11 827.42 L473.30 821.58 L470.21 820.01 L465.99 829.60 L462.57 830.36 L458.90 832.91 L454.27 842.23 L450.70 842.83 L447.29 842.17 L443.79 842.12 L440.59 840.31 L437.96 835.56 L435.86 828.49 L433.35 824.05 L431.84 815.40 L429.04 813.16 L425.03 816.14 L421.86 815.42 L417.56 819.09 L413.77 820.50 L411.24 817.23 L407.89 816.94 L404.07 818.17 L401.46 815.38 L398.58 813.55 L395.34 812.86 L391.27 814.54 L390.78 806.00 L388.42 803.01 L385.03 802.83 L382.65 800.04 L378.90 800.71 L374.39 803.14 L371.91 800.58 L366.90 803.88 L361.63 807.51 L359.25 804.62 L357.13 801.25 L350.63 807.00 L345.41 809.81 L344.12 804.73 L336.96 811.02 L331.75 813.30 L328.72 811.42 L327.32 806.68 L327.09 800.02 L324.41 797.75 L322.04 794.99 L322.31 787.99 L320.89 783.89 L318.17 781.91 L316.00 779.11 L315.55 773.80 L309.78 776.35 L303.67 779.22 L300.05 778.41 L292.96 782.28 L287.88 783.22 L285.94 779.93 L282.79 778.24 L280.08 775.98 L276.89 774.30 L275.54 770.40 L277.95 762.12 L278.95 755.71 L277.84 751.86 L277.65 747.05 L272.76 747.46 L269.35 746.19 L264.48 746.39 L259.84 746.27 L258.65 742.59 L256.02 740.37 L253.91 737.65 L253.26 733.56 L251.58 730.49 L246.38 730.63 L249.88 722.92 L250.32 718.09 L245.06 718.23 L246.22 712.88 L242.81 711.39 L238.43 710.65 L236.17 708.15 L231.70 707.36 L224.12 708.84 L222.56 705.69 L222.02 701.81 L218.93 699.80 L208.57 702.80 L210.18 697.41 L206.11 695.91 L195.88 698.37 L193.45 695.61 L192.79 691.73 L194.62 686.37 L195.51 681.68 L193.66 678.65 L195.38 673.59 L197.84 668.21 L197.67 664.37 L194.26 662.28 L198.04 656.42 L195.17 654.06 L185.43 655.05 L183.54 652.07 L178.54 650.54 L168.52 651.21 L166.39 648.17 L165.07 644.76 L163.59 641.42 L164.09 637.28 L166.68 632.35 L171.90 626.49 L174.69 621.69 L180.48 615.90 L180.26 612.37 L175.67 610.35 L173.24 607.55 L168.71 605.38 L164.06 603.17 L166.07 598.91 L163.37 596.06 L161.44 592.96 L163.62 588.75 L163.57 585.18 L160.72 582.29 L160.01 578.88 L166.41 573.88 L165.21 570.65 L165.89 567.02 L165.72 563.58 L161.28 560.92 L153.45 558.76 L149.78 555.79 L142.89 553.23 L136.56 550.46 L140.54 546.25 L146.67 541.87 L147.80 538.17 L152.52 534.15 L152.15 530.68 L146.85 527.59 L143.42 524.27 L137.20 521.05 L138.44 517.36 L141.12 513.63 L142.09 510.01 L142.10 506.43 L145.08 502.83 L146.54 499.28 L147.08 495.75 L144.45 492.16 L152.37 488.86 L153.91 485.44 L153.38 481.95 L155.35 478.59 L152.71 474.94 L145.28 470.83 L141.71 466.93 L137.11 462.84 L129.59 458.33 L133.19 455.01 L141.24 452.35 L144.74 449.20 L149.51 446.30 L150.79 442.91 L148.01 438.84 L146.89 435.00 L142.30 430.45 L143.78 427.04 L146.19 423.83 L148.61 420.67 L147.81 416.78 L150.23 413.65 L153.83 410.86 L155.11 407.50 L152.44 403.05 L161.70 401.97 L164.68 399.19 L163.44 395.14 L167.34 392.69 L166.77 388.82 L164.11 384.18 L166.13 381.13 L163.40 376.35 L158.22 370.56 L161.12 367.77 L165.37 365.56 L162.35 360.40 L156.06 353.76 L162.79 352.62 L158.52 346.67 L153.69 340.32 L154.97 336.71 L158.40 334.13 L164.65 333.00 L168.13 330.57 L169.80 327.24 L176.44 326.57 L181.27 325.03 L183.95 322.37 L185.20 318.90 L191.36 318.32 L189.49 313.01 L186.37 306.83 L186.54 302.59 L184.43 296.82 L180.54 289.77 L182.20 286.28 L184.08 282.92 L186.54 279.97 L191.26 278.64 L197.44 278.45 L204.27 278.87 L209.84 278.49 L216.80 279.28 L218.40 275.97 L218.29 271.24 L218.67 266.84 L217.29 260.89 L217.71 256.37 L220.52 253.87 L222.50 250.64 L224.49 247.40 L228.78 246.30 L234.22 246.36 L235.19 242.17 L240.08 241.82 L247.47 244.09 L248.26 239.74 L252.80 239.27 L255.04 236.39 L255.64 231.71 L257.88 228.77 L258.86 224.37 L257.57 217.24 L260.97 215.50 L264.39 213.81 L266.88 210.99 L264.51 202.00 L268.24 200.62 L270.81 197.74 L267.30 186.65 L270.13 183.91 L273.71 182.20 L279.18 183.22 L284.66 184.40 L287.67 182.03 L292.62 182.62 L298.91 185.41 L303.54 185.77 L305.02 181.09 L311.11 183.99 L315.00 183.36 L312.89 172.27 L315.60 169.38 L317.19 164.38 L316.14 154.27 L319.26 151.78 L322.86 150.20 L326.12 147.95 L330.33 147.64 L335.72 149.91 L342.21 154.81 L347.11 156.49 L352.57 159.64 L356.98 160.54 L359.54 157.09 L362.00 153.25 L364.31 148.87 L367.43 146.47 L371.71 147.19 L374.91 144.97 L377.80 141.80 L382.03 142.53 L386.02 142.65 L389.22 140.31 L392.18 137.06 L397.97 143.52 L401.89 143.78 L405.37 142.48 L409.24 142.70 L412.21 139.33 L415.00 134.93 L418.93 135.35 L421.43 129.09 L424.23 123.80 L428.39 125.15 L432.52 126.55 L434.98 118.35 L438.30 114.66 L442.70 117.66 L445.21 107.68 L448.67 103.59 L452.60 102.72 L456.86 104.88 L461.34 109.86 L465.29 109.93 L469.29 110.88 L473.60 116.69 L477.61 119.35 L481.39 118.56 L485.27 120.13 L489.18 123.79 L492.81 116.93 L496.61 112.79 L500.48 110.16 L504.46 103.31 L508.52 99.01 L512.54 98.89 L516.57 98.40 L520.55 99.24 L524.31 103.54 L527.87 109.42 L531.35 114.91 L534.67 121.11 L537.97 126.20 L541.91 124.84 L545.97 122.71 L550.08 120.58 L554.18 118.96 L558.49 116.20 L562.44 116.12 L566.42 115.94 L570.20 116.90 L573.99 117.82 L576.94 122.86 L580.48 124.69 L582.54 133.03 L584.80 139.84 L588.26 141.26 L591.41 143.85 L595.39 143.21 L599.00 144.02 L603.10 143.13 L607.34 141.91 L611.06 142.53 L615.39 141.32 L618.88 142.76 L623.30 141.47 L627.45 141.12 L631.75 140.47 L635.55 141.23 L639.72 141.09 L644.44 139.68 L648.66 139.62 L653.24 138.80 L656.82 140.42 L661.00 140.66 L665.25 140.85 L669.08 142.00 L672.76 143.48 L676.20 145.48 L680.72 145.32 L685.02 145.69 L689.10 146.53 L693.09 147.60 L697.40 148.13 L701.64 148.84 L705.01 151.10 L708.47 153.20 L712.13 154.96 L715.97 156.48 L719.15 159.03 L722.82 160.83 L726.98 161.91 L730.87 163.43 L734.86 164.85 L738.50 166.80 L742.95 167.65 L746.79 169.39 L749.66 172.43 L752.72 175.21 L755.59 178.22 L759.26 180.20 L762.85 182.32 L765.35 185.76 L769.39 187.37 L772.78 189.77 L775.22 193.23 L778.05 196.24 L780.72 199.42 L783.62 202.34 L786.30 205.48 L789.21 208.38 L792.04 211.35 L795.47 213.75 L799.29 215.79 L802.18 218.74 L805.23 221.55 L808.87 223.84 L810.91 227.55 L812.61 231.55 L814.44 235.39 L816.51 239.01 L819.93 241.52 L825.77 242.15 L828.81 245.05 L833.20 246.93 L839.38 247.55 L840.90 251.67 L842.42 255.77 L844.11 259.73 L845.27 264.01 L847.13 267.80 L849.30 271.37 L851.23 275.09 L852.81 279.02 L855.01 282.56 L858.41 285.38 L861.38 288.48 L863.65 292.00 L867.09 294.88 L869.54 298.33 L870.83 302.42 L871.93 306.58 L873.48 310.49 L875.65 314.09 L878.51 317.36 L880.15 321.24 L882.49 324.79 L885.13 328.22 L886.95 332.03 L888.23 336.06 L889.59 340.06 L891.13 343.98 L892.67 347.90 L894.19 351.83 L895.03 356.00 L896.64 359.89 L897.77 363.95 L898.25 368.22 L898.33 372.60 L898.67 376.87 L900.49 380.68 L903.90 384.05 L905.00 388.11 L907.22 391.86 L911.65 395.08 L911.92 399.39 L911.72 403.79 L912.12 408.03 L913.40 412.08 L915.58 415.95 L916.90 420.01 L918.72 424.00 L921.25 427.88 L922.42 432.02 L922.86 436.28 L922.65 440.63 L922.49 444.96 L922.32 449.27 L921.86 453.60 L921.19 457.93 L920.83 462.21 L921.53 466.39 L922.17 470.59 L925.05 474.66 L925.75 478.88 L927.22 483.09 L928.91 487.32 L927.14 491.65 L925.18 495.94 L958.47 500.00 L957.80 495.42 L954.66 490.91 L953.23 486.40 L954.70 481.80 L953.98 477.28 L954.38 472.70 L957.01 467.96 L956.47 463.40 L955.54 458.89 L953.95 454.45 L951.79 450.10 L949.95 445.75 L947.97 441.43 L945.93 437.16 L944.75 432.78 L943.38 428.45 L942.74 424.00 L943.61 419.28 L943.33 414.74 L943.04 410.19 L943.35 405.50 L942.06 401.15 L940.18 396.93 L937.83 392.86 L935.94 388.69 L937.17 383.70 L936.84 379.10 L935.30 374.83 L936.13 369.85 L935.44 365.30 L932.62 361.42 L930.15 357.45 L927.85 353.45 L925.64 349.43 L923.68 345.34 L921.10 341.50 L918.83 337.55 L916.64 333.59 L914.61 329.57 L912.21 325.72 L909.93 321.83 L907.88 317.85 L906.48 313.58 L905.01 309.33 L902.38 305.63 L901.16 301.25 L899.13 297.25 L896.29 293.69 L893.18 290.28 L890.07 286.90 L888.13 282.90 L886.74 278.57 L884.36 274.80 L882.97 270.43 L881.42 266.15 L878.68 262.59 L875.94 259.03 L873.17 255.51 L870.07 252.22 L866.52 249.25 L862.69 246.51 L858.97 243.73 L854.87 241.26 L851.11 238.58 L851.85 232.53 L850.38 228.07 L847.77 224.48 L848.05 218.55 L845.84 214.57 L841.65 212.23 L837.48 209.93 L833.92 207.13 L829.95 204.72 L827.04 201.39 L824.39 197.80 L821.40 194.52 L818.80 190.87 L815.77 187.62 L812.16 184.96 L808.39 182.47 L804.63 180.00 L801.14 177.26 L797.58 174.62 L793.95 172.06 L790.15 169.71 L787.60 165.93 L784.05 163.31 L780.10 161.17 L777.14 157.84 L773.32 155.57 L769.52 153.30 L766.18 150.43 L762.87 147.53 L759.36 144.88 L756.63 141.13 L753.29 138.21 L749.56 135.84 L746.28 132.81 L742.44 130.60 L738.59 128.41 L735.30 125.36 L731.97 122.32 L728.52 119.46 L724.88 116.89 L721.55 113.77 L717.77 111.40 L713.78 109.43 L709.75 107.51 L705.71 105.63 L701.58 103.94 L697.91 101.34 L693.99 99.22 L690.03 97.18 L686.61 93.97 L683.26 90.51 L679.78 87.26 L675.80 85.13 L672.00 82.51 L667.78 80.91 L664.59 76.66 L660.71 74.08 L656.61 72.02 L652.86 68.95 L649.28 65.32 L645.47 62.19 L641.09 60.75 L637.16 57.85 L632.88 55.99 L628.94 52.94 L624.83 50.34 L620.10 49.97 L616.09 46.85 L610.94 48.21 L606.59 46.38 L600.44 52.50 L594.29 59.35 L589.75 59.07 L584.38 63.15 L579.70 64.01 L575.09 64.64 L570.74 63.86 L566.25 64.02 L562.28 60.59 L558.14 58.04 L554.03 54.93 L550.03 50.28 L545.72 47.98 L540.69 53.07 L535.78 58.13 L531.00 62.87 L526.20 69.54 L521.66 73.98 L517.42 73.26 L513.23 70.70 L508.94 70.12 L504.69 65.17 L500.35 59.41 L495.93 58.12 L491.45 54.90 L486.85 49.78 L482.56 55.39 L478.18 56.89 L473.75 57.10 L469.58 61.12 L465.78 68.80 L461.58 70.46 L457.42 72.14 L453.80 78.61 L449.87 81.49 L445.80 82.82 L440.90 78.21 L435.32 69.72 L431.79 75.19 L426.85 71.79 L421.24 65.23 L417.58 69.61 L413.91 73.55 L408.63 69.65 L403.21 65.54 L399.24 68.10 L394.12 65.84 L389.15 64.42 L385.34 67.61 L380.45 66.71 L376.75 70.11 L375.11 80.27 L370.07 78.77 L366.00 80.53 L362.63 84.35 L359.71 89.36 L355.17 89.52 L351.03 90.89 L348.04 95.31 L343.43 95.37 L338.27 94.13 L333.02 92.85 L327.55 91.20 L324.81 96.05 L323.20 103.25 L320.30 107.34 L319.59 115.99 L318.30 123.09 L315.14 126.13 L310.20 125.62 L306.02 126.68 L301.91 127.91 L293.91 122.05 L289.11 122.27 L285.14 124.05 L276.79 118.35 L274.46 123.06 L273.76 130.33 L268.23 129.67 L266.62 135.25 L266.97 143.71 L265.50 149.16 L261.79 151.22 L261.46 158.12 L260.41 163.83 L257.60 166.99 L254.24 169.37 L243.25 161.70 L240.13 164.61 L237.47 168.09 L229.01 164.34 L225.84 167.28 L223.77 171.52 L221.20 175.12 L214.05 173.44 L209.49 174.85 L205.54 177.00 L200.41 177.90 L196.98 180.68 L195.48 185.46 L190.58 186.72 L193.08 195.40 L192.40 200.77 L188.29 202.79 L188.37 208.76 L188.34 214.52 L185.88 217.99 L182.72 220.83 L181.93 225.72 L177.37 227.38 L170.99 227.58 L166.91 229.76 L160.25 229.95 L156.71 232.69 L160.30 240.90 L159.98 246.00 L162.73 253.27 L165.46 260.36 L166.01 265.78 L162.20 268.11 L158.48 270.54 L156.21 273.97 L147.89 273.52 L141.74 274.59 L139.00 277.88 L132.12 278.68 L127.70 281.06 L131.16 288.04 L128.00 291.14 L127.38 295.66 L129.81 301.79 L133.44 308.42 L131.74 312.20 L132.75 317.32 L135.80 323.36 L135.73 327.80 L134.66 331.74 L125.22 331.92 L117.81 333.17 L122.39 339.64 L112.39 339.95 L107.08 342.34 L109.30 347.75 L110.18 352.56 L102.29 354.11 L97.40 356.86 L96.81 361.18 L91.96 364.06 L89.21 367.69 L91.20 372.83 L86.52 375.89 L88.65 381.01 L96.19 387.55 L91.40 390.61 L91.76 395.07 L95.08 400.23 L95.45 404.60 L94.09 408.55 L94.80 412.96 L95.91 417.42 L95.84 421.60 L90.11 424.74 L87.16 428.46 L82.98 432.02 L84.42 436.51 L87.23 441.16 L90.10 445.75 L98.10 450.89 L101.09 455.30 L93.35 458.54 L88.79 462.23 L83.52 465.94 L76.58 469.63 L74.37 473.75 L76.51 478.13 L74.49 482.29 L76.60 486.62 L85.44 491.05 L82.24 495.16 L83.64 499.34 L86.04 503.48 L89.63 507.55 L90.34 511.64 L91.82 515.68 L94.78 519.63 L96.48 523.60 L91.21 528.01 L88.79 532.31 L83.67 536.90 L84.93 540.98 L90.62 544.55 L92.31 548.50 L100.54 551.58 L107.53 554.67 L101.92 559.52 L96.32 564.49 L94.74 568.90 L88.27 574.24 L85.40 579.05 L87.34 582.97 L88.93 586.93 L89.32 591.15 L98.60 593.31 L99.11 597.43 L98.95 601.73 L102.73 605.00 L108.06 607.80 L108.61 611.87 L109.03 615.99 L114.38 618.61 L111.20 623.86 L109.14 628.84 L109.93 632.91 L105.75 638.75 L109.05 642.00 L118.12 643.05 L122.40 645.76 L130.56 646.88 L137.52 648.32 L141.16 651.04 L140.43 655.60 L141.02 659.63 L142.43 663.30 L136.01 670.65 L134.78 675.70 L137.79 678.74 L131.62 686.39 L134.04 689.78 L142.03 690.20 L141.56 695.08 L145.51 697.55 L153.23 697.81 L159.29 698.90 L160.89 702.54 L166.84 703.54 L172.86 704.37 L176.10 706.88 L178.55 709.87 L171.19 719.40 L171.88 723.71 L177.81 724.42 L171.53 733.71 L173.89 736.98 L178.30 738.72 L181.16 741.58 L179.05 748.27 L179.16 753.35 L182.00 756.32 L181.58 761.95 L183.77 765.50 L189.82 765.75 L189.27 771.66 L195.39 771.73 L204.08 769.34 L203.68 775.17 L208.31 776.35 L213.50 776.93 L217.18 778.90 L220.21 781.48 L224.46 782.80 L225.77 787.14 L226.71 791.96 L228.53 795.88 L229.97 800.29 L234.69 801.04 L239.33 801.81 L246.41 799.62 L253.69 796.99 L258.01 797.80 L261.07 800.11 L263.36 803.40 L265.70 806.68 L268.99 808.73 L269.67 814.33 L269.67 821.00 L271.97 824.60 L272.48 830.86 L273.97 835.84 L280.62 833.11 L284.31 834.75 L287.87 836.56 L293.49 835.03 L300.48 831.06 L304.24 832.28 L308.51 832.60 L314.97 828.95 L319.96 827.71 L323.97 828.13 L324.57 835.01 L323.64 845.15 L329.61 841.86 L330.15 849.49 L330.41 858.00 L335.59 856.24 L340.34 855.23 L341.53 862.23 L343.62 867.43 L347.80 867.75 L350.24 872.37 L353.18 875.87 L357.87 874.88 L360.81 878.49 L365.33 877.83 L372.13 870.42 L374.95 874.36 L378.85 875.12 L383.23 874.33 L388.05 871.90 L391.49 874.00 L395.22 875.13 L399.72 873.38 L402.91 876.50 L405.54 882.03 L409.33 883.12 L412.15 888.48 L416.47 887.33 L421.94 880.40 L426.39 877.89 L431.46 871.61 L436.14 866.76 L440.01 866.20 L443.24 869.57 L446.84 870.84 L450.41 872.39 L453.01 882.03 L456.66 884.04 L460.50 884.47 L463.50 893.95 L467.66 891.60 L472.03 885.74 L475.69 889.21 L479.77 885.88 L483.93 878.89 L487.81 876.10 L491.58 875.93 L495.41 870.65 L499.12 866.89 L502.79 865.95 L506.45 866.22 L510.47 878.93 L514.17 876.60 L517.91 875.83 L522.24 885.63 L525.96 883.31 L529.64 881.10 L533.45 880.79 L537.78 885.78 L541.80 886.93 L545.83 887.88 L550.09 890.40 L554.07 890.41 L557.63 887.57 L561.89 889.45 L564.77 882.78 L567.88 878.15 L571.98 879.15 L575.35 876.34 L578.15 871.00 L582.00 870.83 L585.67 869.88 L588.50 865.42 L591.90 863.54 L596.01 864.41 L600.60 866.91 L605.17 869.05 L609.37 869.72 L611.60 863.85 L614.98 861.93 L616.37 853.99 L617.44 845.56 L621.79 846.92 L627.58 852.12 L632.27 853.97 L638.05 858.46 L643.59 862.01 L647.46 861.18 L649.57 856.14 L654.56 857.95 L655.75 851.02 L656.89 844.27 L661.39 844.94 L663.81 841.18 L665.41 835.87 L668.25 833.19 L671.44 831.24 L673.09 826.38 L675.50 823.08 L679.72 823.11 L685.42 825.64 L690.40 826.75 L695.73 828.31 L697.02 823.07 L698.95 819.03 L699.17 812.38 L698.30 804.26 L699.36 799.29 L707.59 805.00 L713.23 806.64 L718.49 807.60 L725.38 810.67 L729.77 810.14 L730.28 804.42 L735.57 805.04 L735.65 798.91 L733.66 790.37 L738.78 790.73 L740.89 787.39 L742.01 782.92 L744.94 780.62 L747.99 778.44 L749.10 774.12 L752.37 772.20 L756.33 770.98 L759.55 768.95 L763.49 767.63 L769.31 768.12 L768.49 762.01 L767.47 755.84 L767.35 750.66 L765.26 743.76 L764.73 738.44 L766.68 735.41 L770.81 734.27 L773.29 731.68 L777.38 730.42 L784.39 731.48 L788.18 729.81 L791.77 727.94 L800.23 729.75 L798.75 723.92 L798.47 719.08 L802.17 717.18 L800.95 711.77 L797.54 704.96 L798.03 700.93 L799.18 697.38 L796.75 691.55 L795.69 686.70 L796.57 683.13 L800.40 681.37 L811.36 683.76 L811.69 679.78 L813.72 676.79 L821.60 677.03 L823.47 673.86 L821.35 668.60 L825.34 666.57 L832.35 665.98 L833.14 662.24 L837.39 660.15 L841.08 657.74 L841.42 653.77 L843.21 650.47 L844.29 646.86 L837.73 640.09 L840.20 637.14 L840.67 633.38 L839.52 629.03 L836.74 624.14 L839.37 621.27 L841.64 618.24 L838.75 613.46 L844.86 611.68 L848.24 608.94 L849.64 605.55 L856.32 603.69 L855.22 599.53 L848.17 593.81 L847.31 589.86 L841.21 584.65 L836.73 579.98 L835.44 576.13 L837.72 573.11 L839.22 569.89 L840.33 566.58 L849.28 564.71 L852.65 561.69 L853.10 558.14 L862.87 556.02 L862.38 552.25 L856.40 547.75 L859.87 544.56 L857.45 540.63 L851.63 536.41 L849.40 532.65 L852.15 529.36 L850.23 525.68 L848.63 522.06 L849.13 518.59 L850.31 515.14 L857.83 511.88 L855.59 508.25 L851.41 504.63 L860.21 501.15 L858.13 497.56 L856.56 494.00 L856.28 490.44 L861.66 486.68 L863.00 482.99 L862.83 479.36 L864.56 475.61 L864.39 471.95 L860.88 468.59 L863.37 464.71 L857.72 461.64 L851.93 458.70 L853.51 454.93 L851.50 451.61 L848.92 448.40 L847.71 445.02 L847.61 441.47 L844.68 438.41 L846.42 434.52 L847.38 430.73 L848.93 426.79 L852.11 422.44 L852.46 418.66 L846.22 416.44 L840.62 414.18 L833.61 412.39 L826.52 410.75 L821.56 408.64 L821.66 405.13 L822.70 401.30 L821.87 398.02 L826.11 393.08 L830.32 388.03 L829.68 384.56 L832.60 379.79 L836.44 374.58 L829.66 373.34 L827.49 370.41 L826.26 367.10 L819.83 365.98 L812.08 365.54 L810.16 362.68 L806.85 360.45 L800.20 359.84 L796.96 357.72 L794.89 355.06 L799.23 349.20 L804.56 342.68 L800.24 341.08 L802.54 335.97 L804.72 330.82 L802.68 327.97 L796.66 327.45 L799.41 321.82 L801.69 316.35 L798.66 314.08 L799.98 309.07 L799.62 305.06 L795.42 303.56 L795.61 299.14 L789.99 298.70 L781.77 300.19 L782.19 295.62 L777.66 294.64 L774.36 292.81 L770.54 291.41 L769.04 288.25 L765.90 286.38 L761.94 285.21 L758.51 283.67 L760.24 277.75 L759.42 273.93 L760.60 268.27 L757.20 266.65 L751.49 267.21 L747.66 266.11 L739.23 269.50 L733.58 270.40 L736.04 263.29 L737.23 257.29 L737.33 252.28 L739.72 244.72 L739.76 239.51 L735.56 238.87 L733.14 236.31 L730.09 234.46 L721.56 239.07 L719.86 235.76 L716.80 234.08 L712.65 233.77 L707.74 234.52 L704.67 232.99 L701.53 231.56 L696.76 232.38 L692.96 231.98 L693.37 225.67 L692.43 221.11 L692.46 215.02 L689.80 212.80 L683.95 215.52 L680.62 214.45 L673.77 219.10 L667.26 223.47 L666.87 217.78 L667.31 210.47 L665.68 206.55 L666.14 198.74 L665.06 193.49 L661.92 191.99 L658.01 191.97 L655.65 188.95 L648.84 194.98 L644.95 195.26 L642.27 193.03 L637.56 195.24 L632.99 197.31 L629.90 196.13 L627.11 194.25 L622.92 195.76 L621.45 190.54 L619.70 185.80 L617.23 182.78 L615.97 176.27 L612.38 176.13 L606.71 182.24 L602.61 184.00 L597.38 189.57 L592.45 194.65 L588.50 196.78 L586.06 193.80 L583.31 191.78 L580.26 190.83 L578.83 183.36 L576.90 177.36 L573.62 176.84 L571.99 168.70 L568.94 166.72 L564.29 172.72 L561.27 170.73 L557.66 171.92 L553.40 177.26 L549.33 182.14 L546.11 181.96 L542.44 185.15 L538.66 189.75 L535.37 191.04 L532.21 191.34 L530.07 180.98 L527.26 176.14 L523.62 181.31 L520.96 172.92 L517.88 169.02 L514.42 172.43 L511.02 175.82 L507.94 168.89 L504.70 164.12 L501.33 165.83 L497.97 162.15 L494.57 160.74 L491.28 164.89 L487.80 161.45 L484.59 165.36 L481.88 176.94 L478.55 175.57 L475.63 180.09 L472.88 185.53 L469.86 187.03 L466.69 187.02 L463.40 185.98 L460.29 186.57 L457.38 188.61 L454.54 190.90 L451.50 191.65 L448.56 193.04 L445.74 194.95 L442.64 195.19 L439.51 195.38 L436.35 195.43 L433.30 196.03 L430.13 196.16 L426.64 194.96 L423.56 195.57 L420.31 195.55 L417.60 197.58 L414.72 198.94 L410.89 196.98 L406.25 192.60 L405.28 200.21 L400.61 196.02 L396.22 193.05 L394.25 197.21 L392.71 202.41 L389.85 203.79 L386.78 204.61 L385.26 209.37 L383.17 212.52 L380.34 213.81 L376.51 212.74 L370.28 206.39 L369.32 212.03 L365.59 211.51 L360.45 208.15 L358.82 212.17 L356.86 215.41 L352.76 214.41 L347.60 211.52 L345.11 213.77 L340.78 212.67 L336.80 212.31 L335.30 216.32 L331.50 216.34 L329.38 219.20 L331.22 228.39 L327.71 228.83 L324.77 230.21 L323.43 234.00 L323.08 239.17 L320.05 240.33 L316.97 241.45 L317.13 247.08 L312.79 246.46 L308.29 245.73 L305.10 246.79 L298.82 243.97 L298.06 248.24 L300.35 256.12 L299.29 259.78 L301.65 267.36 L303.30 273.92 L302.33 277.34 L298.35 277.38 L295.46 278.68 L292.98 280.44 L284.39 275.86 L280.68 276.53 L279.13 279.40 L270.37 275.19 L268.78 278.13 L272.08 285.63 L267.67 285.82 L267.41 289.84 L270.33 296.61 L271.27 301.49 L269.08 303.60 L270.96 309.12 L272.46 314.19 L271.66 317.31 L270.04 319.76 L258.22 314.37 L255.44 316.09 L257.99 321.77 L247.75 318.09 L244.42 319.55 L246.10 324.51 L244.92 327.44 L237.52 326.24 L233.98 327.69 L231.69 329.99 L227.72 331.27 L225.33 333.56 L226.41 337.94 L227.93 342.49 L229.21 346.83 L231.01 351.38 L234.55 356.78 L234.45 360.14 L234.78 363.68 L234.13 366.69 L232.68 369.29 L232.98 372.73 L230.79 374.97 L231.31 378.47 L231.40 381.73 L232.66 385.46 L233.51 388.97 L231.39 391.22 L232.01 394.58 L230.40 397.05 L229.73 399.88 L228.51 402.50 L226.71 404.93 L223.75 406.99 L222.26 409.57 L220.38 412.04 L218.47 414.52 L218.86 417.70 L220.59 421.23 L220.29 424.16 L222.05 427.61 L222.51 430.69 L222.31 433.58 L221.58 436.34 L220.94 439.13 L220.54 441.96 L218.83 444.53 L218.28 447.34 L217.30 450.08 L215.76 452.73 L215.97 455.68 L215.52 458.52 L214.96 461.35 L214.75 464.22 L214.56 467.09 L214.51 469.98 L215.27 472.93 L214.10 475.70 L213.11 478.51 L211.62 481.29 L210.46 484.12 L209.64 486.99 L210.02 489.91 L214.01 492.91 L217.05 495.82 L219.45 498.66 L221.73 501.45 L222.50 504.22 L220.24 507.06 L219.53 509.88 L219.70 512.68 L219.52 515.50 L221.26 518.21 L221.76 520.97 L223.24 523.64 L225.19 526.25 L227.63 528.77 L228.01 531.48 L228.26 534.21 L228.36 536.96 L227.14 539.91 L226.25 542.84 L225.28 545.81 L225.85 548.54 L225.88 551.36 L226.55 554.07 L228.26 556.56 L228.66 559.32 L232.20 561.36 L234.45 563.64 L234.61 566.42 L236.23 568.82 L237.03 571.43 L236.06 574.53 L235.48 577.56 L236.34 580.18 L237.73 582.63 L239.23 585.03 L240.56 587.48 L242.08 589.85 L244.43 591.91 L246.85 593.91 L248.45 596.19 L250.61 598.23 L252.90 600.19 L254.00 602.62 L254.59 605.27 L255.39 607.84 L256.38 610.32 L256.58 613.18 L257.03 615.94 L257.93 618.50 L258.70 621.12 L260.82 623.07 L263.35 624.78 L265.10 626.87 L267.37 628.67 L268.93 630.84 L269.55 633.55 L269.48 636.69 L270.47 639.22 L271.62 641.67 L272.39 644.36 L274.58 646.15 L276.06 648.40 L277.05 650.97 L281.03 651.49 L283.40 653.07 L283.95 655.95 L286.40 657.46 L287.35 660.06 L287.87 663.02 L288.23 666.14 L289.65 668.45 L291.36 670.53 L292.51 673.08 L295.25 674.29 L297.10 676.25 L300.07 677.21 L304.07 677.19 L305.68 679.30 L307.82 680.92 L310.23 682.26 L311.13 685.07 L311.74 688.19 L313.31 690.39 L315.49 691.97 L317.88 693.32 L320.27 694.65 L322.58 696.05 L325.21 697.06 L328.45 697.35 L331.13 698.24 L333.54 699.41 L336.72 699.63 L339.12 700.76 L340.86 702.71 L342.64 704.62 L344.62 706.28 L346.32 708.33 L347.84 710.65 L349.69 712.53 L351.61 714.33 L353.86 715.66 L356.74 716.02 L359.22 716.97 L361.18 718.70 L363.36 720.10 L365.26 721.96 L366.26 725.36 L368.34 727.00 L370.29 728.88 L372.88 729.64 L375.90 729.58 L378.28 730.65 L381.31 730.46 L384.44 730.00 L387.58 729.45 L389.66 731.02 L392.16 731.73 L394.24 733.32 L395.92 735.86 L397.74 738.16 L399.62 740.38 L402.13 741.13 L404.29 742.74 L407.02 742.92 L409.68 743.21 L412.15 744.02 L415.72 741.65 L418.46 741.53 L420.80 742.59 L423.53 742.41 L425.88 743.42 L427.75 746.07 L429.92 747.84 L432.46 748.29 L435.13 748.29 L437.79 748.22 L440.36 748.49 L443.04 748.23 L445.88 747.14 L448.65 746.27 L451.23 746.17 L453.99 745.07 L456.64 744.40 L459.07 744.93 L461.44 745.85 L463.87 746.40 L466.30 747.01 L468.64 748.42 L471.05 749.39 L473.51 749.94 L475.97 750.65 L478.56 749.95 L481.14 749.02 L483.66 748.77 L486.17 748.57 L488.67 748.45 L491.14 748.90 L493.63 748.99 L496.14 747.87 L498.63 746.24 L501.08 745.03 L503.51 743.61 L505.94 743.25 L508.39 743.51 L510.85 743.96 L513.30 744.05 L515.75 744.10 L518.20 744.08 L520.61 743.52 L523.05 743.34 L525.47 743.06 L527.88 742.61 L530.29 742.19 L532.76 742.21 L535.14 741.62 L537.49 740.82 L539.81 739.90 L542.17 739.29 L544.69 739.57 L546.91 738.23 L549.26 737.59 L551.70 737.40 L554.84 740.22 L557.72 741.68 L560.11 741.02 L563.50 744.19 L566.53 745.69 L568.54 743.47 L571.29 743.87 L574.79 746.64 L576.72 744.19 L579.49 744.43 L582.75 746.05 L584.79 744.01 L586.99 742.49 L590.16 743.64 L592.64 742.84 L595.75 743.67 L597.78 741.69 L600.21 740.75 L602.47 739.39 L604.72 738.05 L609.64 742.63 L610.37 737.88 L613.18 737.68 L617.59 740.70 L619.36 738.25 L620.12 733.90 L622.34 732.48 L625.14 732.13 L625.65 727.61 L628.53 727.42 L631.20 726.81 L634.81 727.77 L639.53 730.45 L641.91 729.18 L641.24 723.08 L641.14 718.06 L639.47 710.83 L637.42 703.29 L637.07 698.47 L640.33 698.90 L643.49 699.12 L646.29 698.79 L652.51 702.95 L657.43 705.20 L659.86 704.11 L665.24 706.68 L669.47 707.68 L667.31 700.91 L669.64 699.61 L670.77 696.90 L669.28 691.29 L666.85 684.79 L668.30 682.69 L668.23 678.98 L665.64 672.74 L665.22 668.89 L665.84 666.17 L673.69 670.58 L679.86 673.14 L678.97 668.87 L686.98 672.93 L690.50 672.68 L691.55 670.17 L690.67 666.01 L696.46 667.63 L701.34 668.34 L702.48 665.88 L706.62 665.85 L709.61 664.83 L708.54 660.64 L712.89 660.62 L711.65 656.39 L706.99 649.77 L710.54 649.16 L710.48 645.98 L708.63 641.62 L706.63 637.27 L709.19 635.97 L709.00 632.89 L706.55 628.45 L707.70 626.31 L713.55 626.96 L716.14 625.59 L721.85 625.96 L721.16 622.66 L719.68 618.98 L719.09 615.84 L712.89 609.85 L708.70 605.06 L716.76 606.41 L723.06 606.75 L726.39 605.58 L735.17 606.82 L739.28 605.82 L738.02 602.42 L735.64 598.62 L740.84 597.98 L734.39 592.63 L731.26 588.73 L736.16 587.92 L734.77 584.73 L729.99 580.42 L730.48 578.01 L730.72 575.53 L728.68 572.34 L728.87 569.89 L734.50 569.05 L737.84 567.46 L744.18 566.63 L744.53 564.10 L739.60 560.25 L738.75 557.51 L732.19 553.48 L725.99 549.68 L731.63 548.49 L739.01 547.55 L741.13 545.47 L748.78 544.34 L753.02 542.49 L752.74 539.85 L752.15 537.17 L751.67 534.54 L745.13 531.14 L745.45 528.69 L744.98 526.16 L743.55 523.54 L740.18 520.80 L740.53 518.41 L741.72 516.07 L737.65 513.41 L742.79 511.27 L745.64 508.94 L746.33 506.50 L752.72 504.14 L751.06 501.60 L742.23 499.12 L740.36 496.72 L733.99 494.47 L727.94 492.33 L725.83 490.14 L728.14 487.75 L728.87 485.42 L729.16 483.10 L735.16 480.29 L739.50 477.51 L739.04 475.14 L746.88 471.83 L746.46 469.37 L738.73 467.91 L740.99 465.15 L737.99 463.15 L731.74 461.74 L727.05 460.18 L725.85 458.05 L720.82 456.70 L715.04 455.60 L712.42 453.92 L710.52 452.12 L721.51 447.29 L724.53 444.19 L720.81 442.76 L728.54 438.31 L730.94 435.18 L727.78 433.60 L722.82 432.63 L728.98 428.26 L731.68 424.86 L730.47 422.70 L732.88 419.29 L733.11 416.59 L729.00 415.46 L731.68 411.84 L723.44 412.40 L717.77 412.10 L719.70 408.76 L715.08 408.14 L712.50 406.72 L710.31 405.17 L710.99 402.31 L707.45 401.42 L704.46 400.32 L704.66 397.67 L708.13 393.32 L709.17 390.14 L710.28 386.86 L706.62 386.15 L703.01 385.47 L697.20 386.14 L689.06 388.31 L684.18 388.69 L691.02 381.93 L694.11 377.32 L696.04 373.34 L700.98 367.28 L701.78 363.83 L696.98 364.18 L694.86 362.75 L695.90 359.07 L686.00 363.35 L685.21 361.06 L685.58 357.85 L681.30 358.23 L676.22 359.35 L675.09 357.36 L673.20 355.99 L671.58 354.41 L670.07 352.74 L672.78 347.35 L673.36 343.72 L674.61 339.40 L670.44 340.05 L665.18 341.86 L661.26 342.49 L653.03 347.51 L647.20 350.36 L651.55 342.82 L653.74 337.33 L653.91 333.85 L658.36 325.58 L659.01 321.30 L655.37 321.84 L654.73 318.95 L652.27 318.18 L643.39 325.26 L643.85 321.08 L642.02 319.69 L637.10 322.31 L633.03 323.98 L632.62 320.81 L630.93 319.36 L626.62 321.57 L628.62 314.86 L627.49 312.51 L626.79 309.47 L628.93 301.98 L624.12 305.14 L618.13 310.39 L615.31 310.73 L609.90 315.47 L605.52 318.72 L602.79 319.29 L602.28 315.92 L600.92 314.02 L599.17 312.80 L601.00 304.64 L599.95 301.85 L598.03 300.73 L599.84 291.81 L596.62 293.25 L592.10 297.68 L591.51 293.52 L587.89 296.21 L583.20 301.65 L579.77 304.36 L577.72 303.80 L573.66 308.47 L569.90 312.68 L567.27 314.08 L565.29 313.74 L567.94 299.80 L565.96 299.06 L563.62 299.44 L564.26 290.15 L562.42 288.64 L559.73 290.04 L557.38 290.37 L556.77 284.15 L555.20 281.24 L553.20 279.93 L551.62 276.68 L549.38 276.18 L546.64 278.08 L544.86 275.43 L541.39 281.46 L538.54 284.75 L536.61 283.05 L534.09 284.86 L531.29 288.91 L529.12 289.01 L527.18 287.41 L524.59 291.08 L522.35 292.28 L520.55 289.13 L518.79 284.97 L516.87 281.84 L514.79 280.16 L512.33 284.55 L510.12 285.60 L507.71 292.73 L505.43 300.15 L503.42 300.84 L501.49 292.56 L499.40 288.40 L497.21 282.68 L494.90 276.58 L492.62 275.18 L490.62 281.16 L488.33 279.41 L486.13 279.56 L485.00 294.35 L482.87 293.67 L481.01 295.98 L479.70 303.33 L478.12 306.87 L476.05 305.98 L473.94 304.94 L471.93 304.82 L469.98 305.12 L468.07 305.65 L464.98 299.42 L462.24 295.76 L461.37 302.14 L458.55 298.44 L456.56 299.00 L455.86 305.22 L454.92 309.88 L453.38 311.80 L451.50 312.28 L449.87 313.69 L448.51 315.98 L446.86 317.14 L445.24 318.36 L439.82 307.37 L438.30 309.25 L436.78 311.03 L431.60 302.13 L429.71 303.06 L428.40 305.55 L426.90 307.44 L425.31 309.05 L423.89 311.01 L422.17 312.18 L418.93 309.74 L416.24 308.78 L413.14 306.96 L408.77 302.57 L409.09 308.30 L410.05 315.13 L409.84 319.31 L411.37 326.73 L411.85 331.85 L410.26 332.90 L407.34 331.53 L405.00 331.28 L401.90 329.78 L396.58 324.64 L393.90 324.12 L391.71 324.50 L385.99 319.29 L386.57 324.14 L387.71 329.67 L384.93 329.19 L385.40 333.50 L387.88 340.55 L388.02 344.08 L387.03 345.97 L389.58 352.57 L391.44 358.04 L391.23 360.67 L387.79 359.19 L377.95 349.94 L378.68 353.85 L375.73 353.30 L367.25 346.44 L367.56 349.86 L368.04 353.39 L363.97 351.86 L358.99 349.50 L358.00 351.45 L354.52 350.81 L351.14 350.37 L350.37 352.58 L349.06 354.23 L347.64 355.77 L353.29 363.88 L351.37 364.84 L350.13 366.43 L351.73 370.49 L352.02 373.33 L349.47 373.73 L348.35 375.36 L349.91 379.14 L349.76 381.47 L345.63 380.70 L342.65 380.88 L338.31 380.12 L336.73 381.46 L340.11 386.35 L340.26 388.84 L346.28 395.29 L352.34 401.57 L348.54 401.21 L340.57 398.27 L336.87 398.19 L329.36 395.85 L323.03 394.41 L321.26 395.76 L325.28 400.43 L321.09 400.40 L323.18 403.87 L330.16 409.86 L325.47 409.59 L325.31 411.71 L330.03 416.22 L331.20 418.88 L330.01 420.40 L332.64 423.66 L332.44 425.58 L328.18 425.74 L323.35 425.74 L318.61 425.87 L315.39 426.70 L319.78 430.52 L320.05 432.69 L325.54 436.72 L332.25 441.05 L331.56 442.69 L322.94 441.72 L319.02 442.43 L313.20 442.63 L307.53 442.99 L305.70 444.56 L310.20 447.89 L314.26 450.99 L317.25 453.73 L324.01 457.31 L328.17 460.14 L329.66 462.27 L329.85 464.10 L329.54 465.81 L329.97 467.66 L329.49 469.33 L330.01 471.18 L330.77 473.04 L330.90 474.80 L332.66 476.77 L334.00 478.64 L334.35 480.37 L335.96 482.22 L336.93 483.97 L337.01 485.63 L336.92 487.26 L337.17 488.92 L337.40 490.56 L337.71 492.21 L338.16 493.85 L338.88 495.49 L339.33 497.11 L339.98 498.73 L340.31 500.33 L339.95 501.93 L338.94 503.55 L338.08 505.19 L337.11 506.85 L336.03 508.54 L335.89 510.19 L336.24 511.82 L336.39 513.45 L337.09 515.04 L337.88 516.60 L339.07 518.11 L341.16 519.48 L342.01 520.98 L343.62 522.36 L345.13 523.73 L345.50 525.26 L344.93 526.94 L345.19 528.50 L346.07 529.93 L346.30 531.48 L347.75 532.78 L348.87 534.12 L350.25 535.38 L350.99 536.79 L350.85 538.41 L350.87 540.00 L349.43 542.00 L348.21 543.98 L347.28 545.91 L346.57 547.80 L346.16 549.62 L346.52 551.21 L347.49 552.59 L348.21 554.04 L348.68 555.58 L350.45 556.64 L353.24 557.27 L354.25 558.56 L356.06 559.51 L357.95 560.40 L357.52 562.27 L357.29 564.08 L356.05 566.37 L356.42 567.95 L356.46 569.70 L357.89 570.77 L358.90 572.04 L360.59 572.94 L363.48 573.18 L364.92 574.15 L366.03 575.29 L367.23 576.38 L367.69 577.88 L366.49 580.40 L366.34 582.32 L366.76 583.91 L367.50 585.31 L368.81 586.33 L371.00 586.75 L372.54 587.58 L373.56 588.76 L376.46 588.58 L378.59 588.90 L379.80 589.88 L381.76 590.27 L383.01 591.18 L383.84 592.41 L382.06 595.77 L384.02 596.12 L386.44 596.04 L386.11 598.30 L388.47 598.22 L390.76 598.16 L392.31 598.74 L393.28 599.83 L394.19 600.98 L394.36 602.86 L394.36 604.93 L392.52 608.92 L393.59 610.01 L395.22 610.52 L394.66 613.35 L396.98 613.11 L398.88 613.27 L400.77 613.43 L401.97 614.33 L404.22 614.00 L406.73 613.29 L408.32 613.67 L410.32 613.49 L411.90 613.80 L413.20 614.47 L411.41 619.30 L413.34 619.17 L416.33 617.51 L415.55 621.16 L417.84 620.41 L420.08 619.68 L421.83 619.64 L423.28 620.02 L424.34 621.02 L425.35 622.10 L425.99 623.81 L425.30 627.86 L426.28 629.13 L427.79 629.47 L427.88 632.41 L429.86 631.90 L431.68 631.63 L433.49 631.33 L435.15 631.30 L437.02 630.80 L439.30 629.36 L440.93 629.21 L442.90 628.29 L444.61 627.88 L445.89 628.42 L445.48 633.10 L446.96 633.28 L449.19 631.48 L449.49 634.70 L451.43 633.58 L453.20 632.81 L455.07 631.71 L456.72 631.16 L457.88 632.05 L459.26 632.28 L460.25 633.80 L460.68 637.39 L461.72 638.99 L463.23 638.91 L464.08 641.39 L465.72 640.85 L467.33 640.30 L469.07 639.13 L470.64 638.61 L472.11 638.46 L473.94 636.44 L475.51 635.51 L477.12 634.30 L478.67 633.22 L479.96 633.70 L480.89 636.87 L482.12 638.13 L483.67 636.82 L484.85 638.73 L486.33 637.95 L487.79 637.18 L489.30 635.52 L490.82 633.35 L492.12 633.94 L493.53 632.56 L494.88 631.90 L496.22 631.53 L497.52 632.23 L498.82 634.26 L500.17 634.34 L501.52 635.18 L502.90 636.33 L504.23 635.44 L505.63 636.53 L506.96 635.79 L508.15 632.95 L509.50 633.19 L510.77 632.32 L512.08 632.02 L513.66 634.44 L515.19 636.01 L516.79 637.79 L518.45 639.77 L519.73 638.73 L521.29 639.73 L522.75 639.84 L523.81 637.68 L524.78 635.21 L525.92 633.86 L527.05 632.61 L528.15 631.28 L529.44 630.90 L531.05 631.88 L532.66 632.76 L533.76 631.52 L535.16 631.51 L536.63 631.70 L537.75 630.66 L539.16 630.65 L540.43 630.11 L541.19 628.03 L542.65 628.16 L543.61 626.82 L544.61 625.62 L546.12 625.86 L547.50 625.72 L549.42 626.96 L550.47 625.90 L551.48 624.80 L553.41 625.88 L554.24 624.38 L554.76 622.22 L555.67 620.99 L555.77 618.09 L556.52 616.64 L556.90 614.49 L557.92 613.67 L559.60 614.14 L560.54 613.17 L561.89 612.96 L563.49 613.17 L563.99 611.44 L565.47 611.43 L566.85 611.21 L567.61 609.97 L567.56 607.47 L567.71 605.35 L567.81 603.22 L567.30 600.24 L567.36 598.20 L568.15 597.25 L570.25 598.15 L571.74 598.13 L573.68 598.71 L575.53 599.10 L576.99 598.95 L578.26 598.53 L577.99 596.20 L577.68 593.89 L577.87 592.22 L577.05 589.42 L576.76 587.30 L577.24 586.10 L577.92 585.13 L578.72 584.29 L579.52 583.46 L580.20 582.50 L580.85 581.52 L581.49 580.54 L582.02 579.46 L582.52 578.36 L583.01 577.26 L583.48 576.16 L583.89 575.01 L584.33 573.90 L584.79 572.82 L585.24 571.74 L585.72 570.69 L586.25 569.68 L586.78 568.69 L587.33 567.71 L587.88 566.74 L588.39 565.75 L588.89 564.75 L589.38 563.75 L589.83 562.73 L590.27 561.70 L590.70 560.67 L591.11 559.63 L591.51 558.59 L591.89 557.56 L592.28 556.52 L592.65 555.48 L593.02 554.45 L593.39 553.42 L593.75 552.39 L594.11 551.36 L594.46 550.33 L594.79 549.30 L595.12 548.26 L595.43 547.23 L595.73 546.19 L596.02 545.15 L596.30 544.11 L596.56 543.07 L596.81 542.03 L597.06 540.98 L597.29 539.94 L597.51 538.90 L597.72 537.85 L597.92 536.81 L598.11 535.77 L598.29 534.72 L598.46 533.68 L598.62 532.63 L598.77 531.59 L598.91 530.55 L599.03 529.50 L599.14 528.46 L599.25 527.42 L599.34 526.38 L599.42 525.34 L599.49 524.30 L599.55 523.26 L599.60 522.23 L599.64 521.19 L599.67 520.16 L599.68 519.13 L599.69 518.09 L599.69 517.07 L599.67 516.04 L599.65 515.02 L599.61 513.99 L599.57 512.97 L599.51 511.95 L599.44 510.94 L599.37 509.93 L599.28 508.91 L599.18 507.91 L599.07 506.90 L598.96 505.90 L598.83 504.90 L598.69 503.91 L598.54 502.91 L598.38 501.92 L598.22 500.94 Z"/>
  <svg class="pausebutton" id="pausebutton">
    <circle cx="500" cy="500" id="pausestart" class="pausestart" r="52.65"/>
    <rect height="50.02" width="10.00" y="473.68" rx="2.00" ry="2.00" x="479.99" class="pausesymbol"/>
    <rect height="50.02" width="10.00" y="473.68" rx="2.00" ry="2.00" x="510.00" class="pausesymbol"/>
    <polygon points="530.01,500 479.99,530.01 479.99,469.99" class="playsymbol"/>
  </svg>
  <polygon id="playback-head" class="playback-head" points="941.65,500 921.65,540 961.65,540"/>
</svg>