<?xml-stylesheet href="../../style/waveformjs.css" type="text/css"?>
<svg xmlns="http://www.w3.org/2000/svg" xmlns:xlink="http://www.w3.org/1999/xlink" width="100%" height="100%" viewBox="0 0 1000 1000">
  <path class="svg-wave" id="sp" d="M601.28 500.00 L601.42 501.01 L601.55 502.03 L601.66 503.05 L601.77 504.07 L601.86 505.10 L601.94 506.12 L602.01 507.15 L602.07 508.18 L602.12 509.22 L602.16 510.25 L602.18 511.29 L602.19 512.32 L602.18 513.36 L602.16 514.40 L602.12 515.43 L602.07 516.47 L601.99 517.51 L601.90 518.54 L601.80 519.58 L601.66 520.61 L601.50 521.63 L601.36 522.67 L601.19 523.69 L600.93 524.70 L600.79 525.73 L600.57 526.75 L600.32 527.76 L600.03 528.76 L599.86 529.80 L599.68 530.83 L599.39 531.84 L599.12 532.85 L598.82 533.85 L598.57 534.87 L598.30 535.88 L598.03 536.90 L597.83 537.95 L597.48 538.94 L597.24 539.97 L596.92 540.98 L596.63 542.00 L596.33 543.02 L595.96 544.01 L595.58 545.00 L595.15 545.96 L594.71 546.93 L594.37 547.94 L593.94 548.91 L593.44 549.84 L593.04 550.83 L592.78 551.90 L592.40 552.91 L591.89 553.84 L591.52 554.86 L591.04 555.82 L590.40 556.68 L589.73 557.51 L588.93 558.26 L588.33 559.14 L587.70 560.00 L587.24 560.97 L586.58 561.81 L585.99 562.70 L585.68 563.79 L585.11 564.70 L584.33 565.45 L583.80 566.39 L583.32 567.38 L582.68 568.24 L581.88 568.96 L581.13 569.74 L580.63 570.71 L580.04 571.63 L578.99 572.12 L578.45 573.08 L577.96 574.10 L577.14 574.80 L576.25 575.43 L575.76 576.46 L575.15 577.37 L574.40 578.15 L573.44 578.71 L572.91 579.72 L572.30 580.66 L571.48 581.37 L570.85 582.30 L570.21 583.22 L569.28 583.80 L568.69 584.81 L567.78 585.42 L566.96 586.13 L566.19 586.93 L565.53 587.87 L564.59 588.43 L563.94 589.42 L563.34 590.47 L562.59 591.33 L561.65 591.92 L560.81 592.65 L560.04 593.50 L559.22 594.29 L558.14 594.66 L557.38 595.55 L556.51 596.27 L555.64 597.00 L554.89 597.94 L553.96 598.59 L553.02 599.21 L551.92 599.54 L551.08 600.35 L550.14 601.00 L549.02 601.28 L547.91 601.56 L546.76 601.75 L545.75 602.24 L544.65 602.50 L543.60 602.89 L542.37 602.84 L541.58 603.86 L540.42 603.96 L539.48 604.64 L538.52 605.28 L537.71 606.35 L536.79 607.14 L535.69 607.42 L534.57 607.62 L533.55 608.14 L532.59 608.90 L531.43 608.97 L530.19 608.76 L529.14 609.20 L528.03 609.42 L526.96 609.77 L525.77 609.68 L524.79 610.42 L523.52 609.91 L522.36 609.85 L521.29 610.22 L520.30 611.03 L519.16 611.10 L518.07 611.42 L517.02 612.01 L515.91 612.27 L514.81 612.62 L513.61 612.16 L512.45 611.90 L511.32 611.94 L510.23 612.32 L509.10 612.32 L507.98 612.50 L506.89 613.15 L505.78 613.72 L504.67 614.30 L503.52 614.42 L502.39 614.76 L501.24 614.82 L500.09 614.79 L498.95 614.55 L497.80 614.45 L496.66 614.47 L495.51 614.36 L494.37 614.35 L493.22 614.31 L492.07 614.40 L490.93 614.24 L489.74 614.75 L488.52 615.39 L487.28 616.00 L486.00 616.86 L484.86 616.55 L483.50 617.73 L482.31 617.70 L481.22 616.95 L480.12 616.37 L478.80 617.02 L477.86 615.60 L476.88 614.52 L475.49 615.46 L474.35 615.13 L473.25 614.65 L472.10 614.41 L470.81 614.69 L469.65 614.45 L468.57 613.92 L467.50 613.37 L466.48 612.64 L465.07 613.25 L464.03 612.62 L463.09 611.67 L461.95 611.36 L460.79 611.13 L459.49 611.25 L458.42 610.72 L457.32 610.30 L456.16 610.02 L454.13 611.85 L453.36 610.55 L452.37 609.82 L450.74 610.54 L449.79 609.71 L449.21 608.11 L448.36 607.12 L447.13 606.92 L446.24 606.04 L444.60 606.63 L442.95 607.16 L442.18 606.03 L440.84 605.96 L439.86 605.24 L437.87 606.24 L437.48 604.49 L437.03 602.89 L436.73 601.09 L433.82 603.43 L433.14 602.23 L432.45 601.07 L430.86 601.24 L430.21 600.03 L429.20 599.35 L428.41 598.35 L427.85 597.07 L427.32 595.76 L425.10 596.67 L424.25 595.77 L423.48 594.77 L421.47 595.30 L420.25 594.83 L419.32 594.02 L418.88 592.63 L418.42 591.31 L418.11 589.82 L416.57 589.69 L416.66 587.83 L414.95 587.85 L413.13 587.96 L412.59 586.74 L411.39 586.20 L409.91 585.90 L409.14 584.91 L408.38 583.93 L406.76 583.71 L407.37 581.50 L405.47 581.51 L403.69 581.38 L404.37 579.19 L401.92 579.57 L401.41 578.37 L401.88 576.40 L401.71 574.97 L397.88 576.29 L397.74 574.81 L397.66 573.31 L395.23 573.48 L394.19 572.64 L393.71 571.41 L393.63 569.93 L393.52 568.49 L392.61 567.57 L390.90 567.13 L390.90 565.63 L391.51 563.80 L389.48 563.51 L389.30 562.16 L387.42 561.73 L387.72 560.12 L387.92 558.58 L386.32 557.97 L383.09 558.15 L382.89 556.80 L382.82 555.39 L380.44 555.06 L380.93 553.40 L381.36 551.79 L380.32 550.83 L381.30 549.01 L380.51 547.95 L379.81 546.84 L377.72 546.25 L378.70 544.50 L376.73 543.83 L376.97 542.36 L375.40 541.51 L376.26 539.86 L377.12 538.23 L375.52 537.36 L373.33 536.64 L373.27 535.29 L373.49 533.87 L371.67 532.98 L371.61 531.64 L371.54 530.29 L371.85 528.87 L372.52 527.38 L371.21 526.32 L370.26 525.17 L370.18 523.84 L370.36 522.47 L367.86 521.54 L367.43 520.25 L367.63 518.87 L368.08 517.46 L368.78 516.03 L367.97 514.79 L368.51 513.40 L369.15 512.02 L368.48 510.75 L366.75 509.56 L367.11 508.20 L365.25 506.96 L365.41 505.60 L365.49 504.25 L363.70 502.94 L364.49 501.57 L364.90 500.22 L364.51 498.86 L363.56 497.49 L365.78 496.19 L361.64 494.68 L363.80 493.40 L365.99 492.16 L362.92 490.61 L362.92 489.23 L363.75 487.92 L364.86 486.66 L362.46 485.03 L362.34 483.62 L363.10 482.32 L364.04 481.06 L364.90 479.80 L363.00 478.11 L363.93 476.87 L365.24 475.70 L367.14 474.67 L365.55 472.97 L366.43 471.75 L365.34 470.11 L366.62 468.99 L367.57 467.81 L363.48 465.37 L364.90 464.29 L365.94 463.13 L366.42 461.82 L364.81 459.89 L366.56 458.96 L368.81 458.21 L367.85 456.44 L369.15 455.41 L367.95 453.53 L368.30 452.16 L368.40 450.70 L370.17 449.88 L368.76 447.82 L369.64 446.66 L368.98 444.85 L371.22 444.27 L373.12 443.58 L369.30 440.31 L370.34 439.21 L372.08 438.46 L373.93 437.79 L372.57 435.53 L373.23 434.26 L375.21 433.69 L377.84 433.52 L380.71 433.52 L382.27 432.84 L383.66 432.08 L385.60 431.67 L388.35 431.79 L388.91 430.60 L389.73 429.57 L389.86 428.09 L390.43 426.89 L390.82 425.56 L391.33 424.30 L392.18 423.28 L393.03 422.27 L394.02 421.35 L394.32 419.93 L395.48 419.15 L396.64 418.38 L396.62 416.67 L396.97 415.24 L396.38 413.01 L397.09 411.83 L396.14 409.20 L398.10 409.10 L398.37 407.50 L399.78 406.93 L399.14 404.44 L401.71 404.99 L403.94 405.28 L403.73 403.15 L403.88 401.35 L404.15 399.64 L407.16 400.82 L407.36 399.03 L407.51 397.14 L409.42 397.22 L411.30 397.31 L412.34 396.43 L413.27 395.43 L414.82 395.18 L415.78 394.22 L416.83 393.36 L417.50 392.01 L418.59 391.20 L418.77 389.15 L419.35 387.59 L420.25 386.47 L420.31 384.11 L421.82 383.83 L422.25 381.94 L423.20 380.81 L424.33 379.95 L426.92 381.45 L428.13 380.74 L428.37 378.41 L429.27 377.15 L430.44 376.33 L431.99 376.21 L432.25 373.71 L433.84 373.65 L435.87 374.50 L437.41 374.43 L438.24 372.93 L439.79 372.90 L441.25 372.71 L441.20 369.16 L442.28 368.07 L443.41 367.04 L444.76 366.53 L446.57 367.16 L448.27 367.56 L450.00 368.12 L451.73 368.73 L453.40 369.27 L454.39 367.87 L455.57 366.98 L456.70 365.92 L458.03 365.47 L459.21 364.49 L460.48 363.80 L461.84 363.39 L463.15 362.78 L464.79 363.47 L465.78 361.58 L467.23 361.53 L468.56 360.98 L469.96 360.68 L471.30 360.15 L472.79 360.29 L474.25 360.38 L475.50 359.28 L476.90 358.99 L477.90 356.13 L479.35 355.94 L480.57 354.10 L482.12 354.67 L483.57 354.41 L484.90 353.05 L486.39 353.07 L488.01 354.81 L489.59 356.51 L490.85 353.59 L492.23 351.77 L493.68 351.00 L495.21 352.25 L496.69 352.19 L498.14 350.17 L499.64 350.97 L501.11 353.87 L502.56 354.56 L504.03 354.13 L505.47 354.74 L506.94 354.25 L508.44 353.68 L509.86 354.39 L511.32 354.38 L512.88 353.36 L514.53 351.62 L515.93 352.54 L517.55 351.46 L518.90 352.72 L520.69 350.63 L522.45 349.02 L523.67 351.06 L524.85 353.14 L526.43 352.75 L528.22 351.35 L529.72 351.55 L531.14 352.17 L532.58 352.67 L534.50 351.05 L535.95 351.55 L536.85 354.24 L538.49 353.91 L539.91 354.44 L541.24 355.30 L542.91 354.93 L545.06 353.10 L546.62 353.25 L548.21 353.34 L549.83 353.39 L550.73 355.48 L551.86 356.86 L552.97 358.25 L553.79 360.33 L555.08 361.14 L556.44 361.75 L558.16 361.52 L559.71 361.72 L561.25 361.97 L562.62 362.59 L564.23 362.72 L565.62 363.32 L567.23 363.49 L568.40 364.55 L570.10 364.56 L571.06 366.01 L572.75 366.07 L574.31 366.41 L575.59 367.24 L576.76 368.26 L578.12 368.97 L579.70 369.30 L581.36 369.54 L583.38 369.23 L585.09 369.44 L586.97 369.44 L588.26 370.33 L589.00 372.02 L591.77 370.80 L592.32 372.75 L592.47 375.19 L593.38 376.55 L595.43 376.43 L597.68 376.10 L598.41 377.71 L599.45 378.92 L601.08 379.41 L602.89 379.71 L602.74 382.30 L603.86 383.38 L604.52 384.98 L605.16 386.58 L606.39 387.53 L607.86 388.24 L609.37 388.91 L610.06 390.42 L612.40 390.31 L614.24 390.73 L616.10 391.15 L618.04 391.53 L618.82 392.98 L620.01 394.06 L621.36 395.01 L623.08 395.66 L622.74 398.04 L623.61 399.39 L625.03 400.30 L627.07 400.73 L628.46 401.70 L628.66 403.57 L630.36 404.31 L631.13 405.75 L632.12 407.03 L631.37 409.51 L633.80 409.80 L634.05 411.56 L634.90 412.93 L637.97 412.89 L639.07 414.13 L640.44 415.21 L640.99 416.79 L642.08 418.05 L641.58 420.21 L641.67 422.02 L641.45 423.97 L641.15 425.94 L642.21 427.19 L642.85 428.66 L644.16 429.79 L644.87 431.23 L646.30 432.34 L646.66 433.94 L648.12 435.06 L648.87 436.50 L650.15 437.72 L650.86 439.19 L651.42 440.71 L651.89 442.28 L652.11 443.93 L653.34 445.21 L653.70 446.81 L653.91 448.45 L654.93 449.83 L655.94 451.22 L658.11 452.27 L658.82 453.78 L661.23 454.82 L660.74 456.69 L661.96 458.09 L661.64 459.90 L664.18 461.01 L662.77 463.06 L661.43 465.05 L662.94 466.43 L664.64 467.79 L666.64 469.13 L665.25 471.09 L665.30 472.78 L666.99 474.22 L667.51 475.85 L665.64 477.81 L664.75 479.60 L665.23 481.22 L665.15 482.90 L664.86 484.59 L665.39 486.21 L666.17 487.82 L664.92 489.57 L666.54 491.13 L668.31 492.73 L669.11 494.39 L669.79 496.06 L668.90 497.77 L670.80 499.46 L671.34 501.17 L671.68 502.89 L668.63 504.52 L668.40 506.20 L670.18 507.97 L670.76 509.71 L670.72 511.42 L670.06 513.09 L671.63 514.94 L670.52 516.56 L669.39 518.16 L668.00 519.71 L669.13 521.56 L668.49 523.20 L667.94 524.83 L670.61 526.98 L670.90 528.78 L671.08 530.57 L670.56 532.24 L669.65 533.83 L668.33 535.32 L666.68 536.72 L665.40 538.17 L664.36 539.67 L664.49 541.44 L664.05 543.08 L664.41 544.94 L664.22 546.66 L664.20 548.43 L663.82 550.10 L663.63 551.84 L663.43 553.58 L662.48 555.08 L663.00 557.07 L662.21 558.62 L661.72 560.29 L661.09 561.89 L660.85 563.65 L659.60 565.01 L658.69 566.50 L658.89 568.46 L658.14 570.02 L659.76 572.65 L658.98 574.23 L659.64 576.49 L658.15 577.73 L657.87 579.56 L657.37 581.29 L656.85 583.02 L654.68 583.86 L652.16 584.47 L653.36 587.16 L653.35 589.19 L652.77 590.91 L650.51 591.62 L650.58 593.74 L650.32 595.67 L648.06 596.33 L646.23 597.24 L645.29 598.72 L644.27 600.15 L642.65 601.15 L642.10 602.92 L641.20 604.43 L640.39 606.02 L639.73 607.73 L639.39 609.71 L639.24 611.87 L637.71 612.92 L638.30 615.74 L636.85 616.87 L636.34 618.81 L636.06 620.99 L633.91 621.49 L631.38 621.61 L630.40 623.15 L630.26 625.51 L628.86 626.66 L627.59 627.96 L625.89 628.80 L625.96 631.47 L624.62 632.71 L621.71 632.24 L620.31 633.36 L619.34 634.97 L617.79 635.94 L616.37 637.05 L616.71 640.26 L615.76 641.98 L614.52 643.37 L613.31 644.80 L610.92 644.70 L609.00 645.19 L607.03 645.57 L604.82 645.60 L603.22 646.44 L601.79 647.52 L600.66 649.06 L599.57 650.66 L598.28 651.99 L596.90 653.20 L595.58 654.51 L594.05 655.49 L592.76 656.87 L590.93 657.36 L589.79 659.04 L587.81 659.22 L586.67 660.95 L585.16 662.00 L583.54 662.85 L581.87 663.61 L580.15 664.26 L578.78 665.63 L577.35 666.91 L576.41 669.29 L574.70 670.01 L573.50 671.94 L571.73 672.54 L569.75 672.63 L568.82 675.36 L566.66 674.97 L564.36 674.15 L562.34 674.03 L561.30 676.67 L560.08 678.89 L558.22 679.30 L556.15 678.98 L554.55 680.18 L553.36 682.81 L551.18 682.11 L548.64 679.94 L546.76 680.12 L544.88 680.28 L542.97 680.27 L541.26 681.12 L539.59 682.18 L537.51 681.32 L535.90 682.74 L534.33 684.48 L532.82 686.76 L530.93 686.95 L529.10 687.47 L527.15 687.23 L525.50 689.21 L523.72 690.34 L521.63 688.99 L519.66 688.35 L517.80 688.85 L516.02 690.27 L514.16 690.99 L512.17 689.92 L510.30 690.64 L508.42 691.21 L506.50 691.26 L504.54 689.30 L502.67 690.72 L500.76 689.98 L498.85 690.32 L496.92 692.31 L494.98 692.81 L493.03 693.51 L491.10 693.29 L489.16 693.27 L487.32 691.85 L485.43 691.34 L483.63 689.86 L481.81 688.86 L479.91 688.80 L478.06 688.23 L476.07 688.91 L474.15 688.84 L472.14 689.43 L470.33 688.64 L468.30 689.21 L466.39 688.96 L464.35 689.41 L462.43 689.20 L460.59 688.59 L458.72 688.11 L456.93 687.29 L454.90 687.52 L452.98 687.26 L451.20 686.43 L449.28 686.14 L447.26 686.18 L444.95 687.19 L443.01 686.87 L440.70 687.69 L439.11 686.22 L436.98 686.41 L435.30 685.24 L432.81 686.38 L431.48 684.26 L430.10 682.36 L427.95 682.50 L425.78 682.63 L423.41 683.18 L422.47 680.35 L420.37 680.24 L418.10 680.47 L416.53 679.15 L415.35 677.03 L413.51 676.32 L411.79 675.37 L410.55 673.50 L408.67 672.87 L407.01 671.83 L405.01 671.42 L403.34 670.39 L400.84 670.80 L398.66 670.60 L396.44 670.42 L394.11 670.41 L392.72 668.84 L390.46 668.65 L388.95 667.29 L386.96 666.65 L386.39 663.94 L385.12 662.28 L382.70 662.23 L380.30 662.12 L378.87 660.66 L377.83 658.72 L375.30 658.69 L373.97 657.13 L372.83 655.33 L372.30 652.84 L369.90 652.59 L368.41 651.25 L367.12 649.68 L364.08 650.05 L361.90 649.43 L360.19 648.27 L359.04 646.53 L357.93 644.76 L357.10 642.72 L356.39 640.59 L355.51 638.65 L354.73 636.63 L352.90 635.61 L351.53 634.15 L349.78 633.03 L348.06 631.86 L346.40 630.64 L345.31 628.92 L343.49 627.80 L342.00 626.41 L340.78 624.79 L339.09 623.54 L337.90 621.90 L336.67 620.29 L335.55 618.59 L333.94 617.25 L333.38 615.16 L332.40 613.38 L330.44 612.25 L329.21 610.63 L326.16 610.15 L324.98 608.46 L322.28 607.69 L322.34 605.24 L320.65 603.83 L319.71 601.98 L317.86 600.64 L318.33 598.02 L318.94 595.37 L316.04 594.55 L313.89 593.32 L311.79 592.03 L312.25 589.49 L311.37 587.60 L308.98 586.40 L308.23 584.44 L309.83 581.48 L310.05 579.14 L308.26 577.65 L307.87 575.58 L307.31 573.58 L306.48 571.69 L305.27 569.93 L305.50 567.66 L303.82 566.05 L301.26 564.71 L301.36 562.49 L299.10 561.00 L299.25 558.77 L296.89 557.26 L294.86 555.62 L294.74 553.46 L297.00 550.71 L296.19 548.75 L294.00 547.10 L293.46 545.05 L292.76 543.04 L292.98 540.84 L290.85 539.09 L290.72 536.95 L292.15 534.56 L291.93 532.46 L291.66 530.38 L291.97 528.21 L292.24 526.06 L289.22 524.30 L288.32 522.26 L287.45 520.21 L287.08 518.09 L287.91 515.89 L288.38 513.73 L288.37 511.60 L288.49 509.48 L286.97 507.41 L285.19 505.32 L283.49 503.20 L280.67 501.05 L277.90 498.84 L277.58 496.61 L276.70 494.37 L276.46 492.12 L276.78 489.90 L277.01 487.67 L277.04 485.44 L277.00 483.19 L277.18 480.97 L277.01 478.70 L277.11 476.46 L276.68 474.15 L276.19 471.83 L275.77 469.49 L275.15 467.11 L275.23 464.83 L275.51 462.57 L275.40 460.24 L275.29 457.90 L275.94 455.69 L276.85 453.55 L277.29 451.31 L277.69 449.07 L278.07 446.81 L278.46 444.56 L278.95 442.33 L279.57 440.13 L280.28 437.95 L280.80 435.73 L281.43 433.53 L282.31 431.41 L283.11 429.27 L283.82 427.10 L284.30 424.86 L285.41 422.83 L286.26 420.71 L287.01 418.56 L287.57 416.33 L288.25 414.14 L288.80 411.89 L289.15 409.55 L289.57 407.23 L290.56 405.16 L291.01 402.83 L291.84 400.67 L292.92 398.63 L294.05 396.62 L294.88 394.46 L295.99 392.43 L296.83 390.26 L297.49 387.99 L299.11 386.25 L300.69 384.50 L301.96 382.57 L303.96 381.09 L305.90 379.60 L307.01 377.60 L308.05 375.55 L309.18 373.55 L310.39 371.61 L311.17 369.36 L311.86 367.04 L313.13 365.12 L315.52 364.01 L317.53 362.66 L318.53 360.54 L319.35 358.28 L320.59 356.33 L321.85 354.39 L322.64 352.06 L322.83 349.18 L323.47 346.66 L325.00 344.88 L326.38 342.98 L327.76 341.07 L329.30 339.30 L330.99 337.67 L332.60 335.97 L334.13 334.19 L335.75 332.49 L337.51 330.94 L339.19 329.30 L340.50 327.27 L342.00 325.42 L343.29 323.32 L344.45 321.06 L345.42 318.54 L347.05 316.77 L348.56 314.85 L350.11 312.96 L351.88 311.33 L353.82 309.91 L355.80 308.56 L358.07 307.61 L360.16 306.42 L362.03 304.92 L363.89 303.40 L365.84 302.02 L367.85 300.74 L369.84 299.40 L371.73 297.92 L373.73 296.61 L375.79 295.38 L377.82 294.11 L379.88 292.90 L381.85 291.51 L384.12 290.67 L386.38 289.82 L388.37 288.46 L390.34 287.06 L392.58 286.19 L394.55 284.77 L396.38 283.05 L398.38 281.65 L400.70 280.93 L402.97 280.11 L405.02 278.80 L407.10 277.53 L409.47 276.95 L411.96 276.72 L414.08 275.54 L416.00 273.82 L418.11 272.55 L420.54 272.17 L422.85 271.46 L425.19 270.86 L427.59 270.47 L429.89 269.73 L432.16 268.93 L434.53 268.47 L436.74 267.42 L438.99 266.50 L441.12 265.06 L443.46 264.46 L446.01 264.74 L448.50 264.82 L450.92 264.63 L453.23 263.93 L455.53 263.11 L457.82 262.25 L460.18 261.73 L462.39 260.22 L464.60 258.58 L466.92 257.48 L469.32 257.01 L471.75 256.67 L474.26 257.14 L476.72 257.20 L479.24 258.03 L481.58 256.79 L484.10 257.88 L486.46 256.70 L488.91 256.80 L491.31 255.85 L493.77 256.64 L496.18 254.64 L498.63 254.40 L501.09 254.78 L503.56 253.13 L505.99 254.98 L508.48 253.67 L510.94 253.92 L513.38 254.41 L515.80 255.04 L518.41 253.13 L520.75 254.77 L523.07 256.39 L525.94 252.48 L528.33 253.48 L530.72 254.39 L533.26 254.08 L535.91 253.09 L538.38 253.42 L540.72 254.58 L543.05 255.67 L545.36 256.83 L548.16 255.43 L550.42 256.82 L552.56 258.66 L555.04 258.88 L557.56 258.96 L560.22 258.54 L562.43 259.94 L564.61 261.37 L566.79 262.75 L570.39 259.22 L572.56 260.71 L574.86 261.72 L577.68 261.13 L579.90 262.42 L581.99 264.04 L584.18 265.34 L586.63 265.91 L588.43 268.17 L591.17 268.00 L593.75 268.25 L595.56 270.42 L598.10 270.81 L600.02 272.63 L602.57 273.02 L604.43 274.92 L606.39 276.58 L608.29 278.33 L612.13 276.18 L614.35 277.33 L616.44 278.74 L618.88 279.49 L620.67 281.42 L622.72 282.87 L624.69 284.44 L626.57 286.15 L628.55 287.68 L631.84 287.09 L634.49 287.58 L636.94 288.42 L640.34 287.85 L642.63 289.01 L644.76 290.40 L646.60 292.22 L648.23 294.31 L649.50 296.85 L652.05 297.65 L653.31 300.17 L655.99 300.83 L658.79 301.38 L660.44 303.38 L662.79 304.52 L665.41 305.37 L667.39 306.99 L669.14 308.86 L671.88 309.63 L672.85 312.38 L675.70 313.06 L678.38 313.98 L678.81 317.23 L682.45 317.19 L683.88 319.41 L684.56 322.33 L685.55 324.92 L690.10 324.19 L691.43 326.48 L692.61 328.89 L695.94 329.40 L697.76 331.26 L699.15 333.49 L700.14 336.03 L701.22 338.49 L702.80 340.53 L705.07 342.03 L705.86 344.68 L706.22 347.62 L708.91 348.84 L709.86 351.33 L712.71 352.48 L713.50 355.07 L714.33 357.62 L716.29 359.41 L719.87 360.19 L720.63 362.79 L721.70 365.18 L724.65 366.44 L724.97 369.28 L725.15 372.17 L727.59 373.78 L727.91 376.57 L729.32 378.75 L730.03 381.30 L732.39 383.01 L732.39 385.91 L734.87 387.60 L734.68 390.56 L736.74 392.46 L736.74 395.31 L737.18 397.94 L739.13 399.92 L741.65 401.69 L741.92 404.39 L742.23 407.06 L744.39 409.02 L744.43 411.78 L745.04 414.32 L745.57 416.88 L745.38 419.67 L746.31 422.09 L747.48 424.43 L748.24 426.90 L748.20 429.60 L748.63 432.16 L748.63 434.82 L748.40 437.53 L748.95 440.03 L749.91 442.44 L747.78 445.53 L747.89 448.10 L749.89 450.29 L748.72 453.10 L749.49 455.53 L750.24 457.98 L751.10 460.41 L752.33 462.80 L754.69 465.05 L757.25 467.32 L755.95 470.08 L755.99 472.67 L758.20 475.04 L759.24 477.55 L756.22 480.39 L757.56 482.88 L757.36 485.48 L756.79 488.08 L756.87 490.65 L757.50 493.21 L757.48 495.78 L756.66 498.36 L757.44 500.93 L757.63 503.51 L757.49 506.09 L757.39 508.66 L757.32 511.23 L756.85 513.79 L755.32 516.27 L756.36 518.91 L755.77 521.44 L755.98 524.04 L754.60 526.48 L756.15 529.23 L757.00 531.94 L758.39 534.74 L760.21 537.63 L759.76 540.22 L761.29 543.14 L761.65 545.89 L760.27 548.34 L758.29 550.65 L758.91 553.46 L757.47 555.86 L755.63 558.14 L757.51 561.28 L755.33 563.47 L756.11 566.39 L755.28 568.90 L754.32 571.38 L751.59 573.34 L752.65 576.39 L750.90 578.61 L750.51 581.25 L752.73 584.77 L752.45 587.49 L751.60 590.03 L750.38 592.43 L749.80 595.06 L748.01 597.23 L745.36 599.03 L742.87 600.86 L740.50 602.71 L739.95 605.33 L738.74 607.66 L737.95 610.17 L736.48 612.38 L736.15 615.13 L734.78 617.39 L734.01 619.94 L732.86 622.30 L731.71 624.67 L730.39 626.95 L729.37 629.39 L727.92 631.60 L726.19 633.64 L725.61 636.35 L724.16 638.55 L723.00 640.94 L723.05 644.12 L723.23 647.41 L724.02 651.17 L722.06 653.10 L722.73 656.87 L720.89 658.91 L718.56 660.57 L715.50 661.67 L715.43 665.01 L711.75 665.57 L708.35 666.30 L707.44 668.99 L705.98 671.26 L704.23 673.29 L701.84 674.76 L700.68 677.30 L699.05 679.44 L696.88 681.09 L695.51 683.46 L693.63 685.38 L691.67 687.21 L689.70 689.03 L687.85 690.97 L685.49 692.38 L683.55 694.22 L681.30 695.72 L680.06 698.32 L679.00 701.16 L677.78 703.86 L676.72 706.78 L673.43 707.09 L672.14 709.77 L670.86 712.51 L668.44 713.85 L664.57 713.29 L662.61 715.16 L661.42 718.09 L659.90 720.62 L658.96 724.00 L656.44 725.19 L655.61 728.84 L653.45 730.59 L650.68 731.41 L648.67 733.40 L647.02 735.98 L644.17 736.65 L641.29 737.24 L641.23 742.62 L638.55 743.58 L635.79 744.39 L632.94 744.99 L629.87 745.16 L627.00 745.63 L623.92 745.67 L620.79 745.55 L618.28 746.65 L616.60 749.51 L614.65 751.87 L612.36 753.53 L609.94 754.93 L607.57 756.45 L604.83 757.11 L601.86 757.15 L599.91 759.77 L595.40 755.66 L593.08 757.26 L590.86 759.19 L588.36 760.36 L585.30 759.88 L582.80 761.02 L580.14 761.71 L577.79 763.39 L575.64 765.88 L573.33 767.89 L570.96 769.82 L567.76 768.55 L565.59 771.35 L563.25 773.64 L560.03 772.05 L557.11 771.72 L554.44 772.53 L551.63 772.65 L548.57 771.28 L546.18 773.67 L543.47 774.30 L540.67 774.36 L537.92 774.73 L535.22 775.47 L532.48 775.98 L529.70 776.10 L526.92 776.13 L524.11 775.90 L521.35 776.08 L518.57 776.10 L515.85 776.96 L513.07 776.93 L510.27 776.09 L507.54 777.56 L504.78 778.60 L502.01 780.43 L499.20 781.32 L496.36 783.44 L493.53 783.33 L490.59 786.50 L487.71 786.68 L485.01 783.55 L482.15 783.76 L479.37 782.79 L476.74 780.21 L474.00 779.32 L471.16 779.50 L468.37 779.12 L465.55 779.06 L462.77 778.60 L459.91 778.78 L457.01 779.09 L454.41 777.49 L451.44 778.15 L448.53 778.37 L445.08 781.27 L442.08 781.63 L439.39 780.46 L436.62 779.70 L433.65 779.80 L431.18 777.80 L428.86 775.34 L426.62 772.72 L424.06 771.39 L421.33 770.70 L418.47 770.42 L415.73 769.72 L412.88 769.36 L410.26 768.26 L407.43 767.77 L404.69 767.03 L401.97 766.20 L399.65 764.33 L396.68 764.15 L394.37 762.31 L391.46 761.94 L388.73 761.11 L385.98 760.31 L383.26 759.45 L380.36 758.92 L376.97 759.42 L373.36 760.27 L370.58 759.37 L367.60 758.83 L363.95 759.52 L361.48 757.93 L360.24 754.12 L356.51 754.83 L354.90 751.76 L353.79 747.93 L351.67 745.87 L348.84 744.98 L346.33 743.57 L344.21 741.54 L341.53 740.38 L339.09 738.85 L336.65 737.32 L334.29 735.67 L331.69 734.35 L329.70 732.19 L327.74 730.00 L325.14 728.67 L322.98 726.76 L320.97 724.67 L319.17 722.32 L316.17 721.45 L313.43 720.24 L310.00 719.79 L307.12 718.66 L305.59 716.01 L303.58 713.89 L300.33 713.11 L297.60 711.75 L297.19 707.97 L295.29 705.76 L292.59 704.35 L289.81 702.98 L286.26 702.33 L285.03 699.45 L281.92 698.32 L279.50 696.52 L276.79 694.97 L275.74 691.96 L271.32 691.82 L269.88 689.14 L268.50 686.42 L263.57 686.53 L261.85 684.05 L260.69 681.16 L260.19 677.79 L258.27 675.50 L257.81 672.16 L257.00 669.10 L256.51 665.85 L255.57 662.94 L252.53 661.42 L250.67 659.10 L248.89 656.72 L247.05 654.38 L244.54 652.42 L243.78 649.42 L242.63 646.66 L241.05 644.16 L240.51 641.08 L239.92 638.05 L239.27 635.07 L236.56 633.14 L237.23 629.52 L235.19 627.25 L233.77 624.67 L232.20 622.16 L229.62 620.08 L226.63 618.15 L223.69 616.16 L224.47 612.60 L222.54 610.17 L220.53 607.74 L219.29 605.01 L220.87 601.24 L218.46 598.95 L218.04 595.94 L217.62 592.94 L215.86 590.38 L215.16 587.48 L214.46 584.58 L214.47 581.48 L212.64 578.90 L211.77 576.05 L211.78 572.97 L210.58 570.20 L209.64 567.36 L208.70 564.52 L208.59 561.49 L207.93 558.59 L207.57 555.62 L206.65 552.76 L206.72 549.73 L205.37 546.93 L203.60 544.18 L201.94 541.38 L199.91 538.61 L199.12 535.66 L196.05 532.94 L195.86 529.89 L196.56 526.76 L197.60 523.62 L196.72 520.64 L196.99 517.58 L197.35 514.53 L195.34 511.57 L196.15 508.50 L194.50 505.49 L195.07 502.43 L196.17 499.38 L197.43 496.36 L196.20 493.30 L196.67 490.28 L196.41 487.23 L192.89 484.00 L192.63 480.91 L192.64 477.82 L192.36 474.71 L193.62 471.72 L195.27 468.80 L197.55 465.97 L199.19 463.11 L201.05 460.30 L200.70 457.20 L201.40 454.25 L201.61 451.22 L201.87 448.20 L202.03 445.15 L202.66 442.19 L202.81 439.13 L203.31 436.13 L204.77 433.35 L204.54 430.19 L205.07 427.19 L205.61 424.19 L206.72 421.34 L206.94 418.25 L208.10 415.42 L207.96 412.20 L206.96 408.70 L206.30 405.26 L204.62 401.45 L206.36 398.75 L204.23 394.70 L204.98 391.63 L208.54 389.62 L209.90 386.80 L211.03 383.90 L214.23 381.85 L218.07 380.12 L217.53 376.55 L218.71 373.70 L220.03 370.91 L221.50 368.20 L222.64 365.32 L223.96 362.53 L225.61 359.92 L226.83 357.08 L228.48 354.46 L229.89 351.72 L231.40 349.04 L232.74 346.25 L234.70 343.83 L236.41 341.26 L237.60 338.39 L238.71 335.44 L239.10 332.02 L240.65 329.33 L241.13 325.91 L244.68 324.56 L244.63 320.74 L244.79 317.01 L248.12 315.57 L251.66 314.32 L252.98 311.42 L253.50 307.88 L254.60 304.76 L255.68 301.60 L257.90 299.35 L258.01 295.33 L259.37 292.32 L262.36 290.72 L263.23 287.24 L265.27 284.79 L267.88 282.87 L270.14 280.63 L270.09 276.15 L272.76 274.29 L275.65 272.65 L277.89 270.38 L281.74 269.79 L284.63 268.24 L287.90 267.13 L291.78 266.75 L294.53 265.14 L296.95 263.17 L299.30 261.12 L301.48 258.86 L303.76 256.71 L306.17 254.71 L308.35 252.42 L310.76 250.43 L312.90 248.05 L315.75 246.64 L317.89 244.24 L320.90 243.06 L322.93 240.49 L325.45 238.61 L328.04 236.82 L330.69 235.14 L333.46 233.63 L335.71 231.29 L337.98 228.95 L339.64 225.53 L342.30 223.77 L344.29 220.82 L347.25 219.57 L350.32 218.53 L352.02 214.90 L355.53 214.71 L359.25 215.03 L362.37 214.18 L364.40 211.03 L366.72 208.45 L369.94 207.79 L373.08 206.98 L375.64 204.85 L378.17 202.57 L382.19 203.97 L385.24 203.02 L388.38 202.33 L391.80 202.44 L394.74 201.26 L397.62 199.89 L400.45 198.33 L403.56 197.63 L406.18 195.38 L408.94 193.48 L411.66 191.33 L414.56 189.78 L417.57 188.57 L420.68 187.73 L423.53 185.81 L426.42 183.97 L429.99 185.11 L433.19 184.64 L436.32 183.85 L439.20 181.75 L442.43 181.37 L445.84 182.11 L448.99 181.39 L452.13 180.61 L455.33 180.12 L458.79 181.75 L461.81 179.97 L465.07 180.14 L468.21 179.14 L471.23 176.69 L474.40 175.60 L477.61 174.83 L480.89 175.09 L484.14 175.00 L487.43 175.90 L490.69 176.23 L493.95 177.47 L497.19 178.97 L500.40 178.67 L503.61 178.75 L506.84 177.80 L510.06 178.04 L513.31 177.54 L516.50 178.21 L519.78 177.33 L523.02 177.35 L526.30 176.94 L529.54 177.17 L532.75 177.59 L535.96 178.03 L539.12 178.88 L542.45 178.44 L545.66 178.87 L548.84 179.54 L552.10 179.66 L555.45 179.34 L559.00 178.04 L562.27 178.36 L565.89 177.00 L568.98 178.33 L572.40 178.11 L575.43 179.62 L579.18 178.17 L581.91 180.86 L584.64 183.40 L588.13 183.10 L591.71 182.54 L595.48 181.48 L598.05 184.42 L601.10 185.72 L604.78 185.12 L608.23 185.28 L610.50 188.86 L612.97 191.69 L616.21 192.41 L619.11 194.04 L621.90 195.90 L624.89 197.23 L628.27 197.66 L630.75 200.18 L634.28 200.30 L637.98 200.12 L641.69 200.00 L644.93 200.93 L647.60 203.02 L651.24 203.17 L654.65 203.83 L657.97 204.72 L659.50 208.90 L662.12 211.01 L665.85 211.16 L668.99 212.40 L671.79 214.22 L674.32 216.46 L677.80 217.19 L680.15 219.71 L682.75 221.82 L684.64 224.97 L688.16 225.69 L690.66 227.93 L693.58 229.56 L697.55 229.75 L700.29 231.68 L703.36 233.18 L706.10 235.12 L708.33 237.71 L710.28 240.62 L712.01 243.78 L714.32 246.19 L716.12 249.19 L719.11 250.81 L721.59 253.01 L724.42 254.83 L726.82 257.13 L729.63 259.00 L731.96 261.38 L734.71 263.33 L737.33 265.42 L739.72 267.75 L742.42 269.80 L744.62 272.32 L746.94 274.72 L749.11 277.27 L751.70 279.44 L753.41 282.38 L755.32 285.14 L758.43 286.90 L760.94 289.18 L765.18 290.10 L767.39 292.67 L771.19 294.03 L772.33 297.43 L774.84 299.80 L776.64 302.69 L779.46 304.87 L779.86 308.72 L779.94 312.75 L783.61 314.37 L786.22 316.72 L788.83 319.10 L788.67 323.19 L791.45 325.47 L794.36 327.71 L794.44 331.59 L795.05 335.13 L796.39 338.25 L798.28 341.07 L799.20 344.40 L801.07 347.23 L802.58 350.25 L804.55 353.05 L806.42 355.91 L808.98 358.46 L811.43 361.09 L812.42 364.38 L815.87 366.62 L816.81 369.94 L819.48 372.56 L821.99 375.28 L822.37 378.82 L821.52 382.80 L822.91 385.94 L825.47 388.68 L825.78 392.20 L826.99 395.42 L827.32 398.91 L829.66 401.79 L830.26 405.19 L829.84 408.87 L830.65 412.20 L831.98 415.39 L832.62 418.76 L833.11 422.16 L836.44 424.92 L837.81 428.16 L838.63 431.51 L839.52 434.86 L839.01 438.47 L839.02 441.96 L838.35 445.55 L837.96 449.08 L837.71 452.56 L838.82 455.86 L839.61 459.20 L840.67 462.53 L841.22 465.92 L841.68 469.32 L842.25 472.71 L842.67 476.13 L843.52 479.52 L842.91 482.99 L844.16 486.38 L843.72 489.84 L844.53 493.26 L844.61 496.71 L844.75 500.15 L844.56 503.60 L844.36 507.04 L845.10 510.51 L845.55 513.98 L847.80 517.56 L847.57 521.03 L849.37 524.65 L848.79 528.12 L848.05 531.56 L849.71 535.25 L848.47 538.64 L846.07 541.89 L844.58 545.21 L846.40 548.97 L847.81 552.72 L847.43 556.23 L845.53 559.47 L845.23 562.98 L847.22 566.94 L845.19 570.13 L840.93 572.83 L839.83 576.15 L838.54 579.43 L837.40 582.73 L837.01 586.21 L836.53 589.68 L834.76 592.81 L834.62 596.38 L834.78 600.06 L835.85 604.05 L834.81 607.41 L834.35 610.96 L832.93 614.20 L833.95 618.30 L834.01 622.09 L831.12 624.80 L829.21 627.86 L827.65 631.04 L827.58 634.82 L825.76 637.90 L823.46 640.76 L822.42 644.15 L822.27 647.97 L820.18 650.91 L816.64 653.13 L816.42 656.94 L814.78 660.07 L812.61 662.93 L812.08 666.64 L811.40 670.30 L810.13 673.66 L808.47 676.80 L806.66 679.86 L804.26 682.57 L802.22 685.48 L799.89 688.20 L798.60 691.58 L798.81 695.96 L797.52 699.40 L798.04 704.09 L798.47 708.80 L798.77 713.49 L797.25 716.93 L796.05 720.63 L794.34 723.97 L792.24 727.02 L789.79 729.80 L787.64 732.82 L785.63 735.95 L783.17 738.73 L780.71 741.50 L778.46 744.44 L776.25 747.44 L774.12 750.52 L771.71 753.35 L768.93 755.83 L766.33 758.48 L764.13 761.53 L761.68 764.34 L758.96 766.88 L756.18 769.34 L753.76 772.20 L751.14 774.85 L748.44 777.42 L745.51 779.72 L742.76 782.23 L739.91 784.63 L736.95 786.89 L733.81 788.92 L731.47 791.95 L728.74 794.51 L725.69 796.66 L722.79 799.01 L720.14 801.70 L717.22 804.04 L714.27 806.34 L711.29 808.61 L708.12 810.59 L705.28 813.08 L702.19 815.20 L699.23 817.53 L696.20 819.76 L693.15 821.96 L689.96 823.94 L686.63 825.69 L683.35 827.51 L680.18 829.54 L677.18 831.90 L673.71 833.39 L670.34 835.05 L667.08 836.93 L663.63 838.44 L660.14 839.84 L656.49 840.91 L652.89 842.04 L649.22 843.00 L645.77 844.45 L642.40 846.09 L639.01 847.68 L635.87 849.94 L632.21 850.86 L628.84 852.57 L625.45 854.25 L621.90 855.47 L618.31 856.59 L614.64 857.44 L611.03 858.48 L607.68 860.38 L604.39 862.53 L600.75 863.52 L597.28 865.18 L593.79 866.76 L590.27 868.32 L586.65 869.47 L583.06 870.84 L579.38 871.80 L575.65 872.54 L571.98 873.55 L568.29 874.54 L564.61 875.62 L560.88 876.42 L557.12 877.04 L553.35 877.61 L549.65 878.75 L545.89 879.49 L542.11 880.04 L538.31 880.50 L534.50 880.84 L530.73 881.57 L526.91 881.93 L523.09 882.18 L519.27 882.43 L515.46 882.94 L511.63 883.19 L507.81 883.45 L503.97 883.45 L500.14 883.40 L496.30 883.47 L492.47 883.40 L488.64 883.15 L484.79 883.35 L480.94 883.66 L477.09 883.67 L473.23 883.77 L469.33 884.23 L465.47 884.12 L461.59 884.22 L457.69 884.29 L453.81 884.24 L449.94 883.99 L446.07 883.66 L442.17 883.54 L438.28 883.32 L434.42 882.83 L430.54 882.47 L426.67 882.03 L422.83 881.38 L419.03 880.56 L415.19 879.87 L411.36 879.18 L407.52 878.49 L403.83 877.20 L400.21 875.65 L396.56 874.28 L392.76 873.42 L389.14 871.98 L385.57 870.37 L381.75 869.59 L377.85 869.03 L374.07 868.07 L370.24 867.24 L366.27 866.75 L362.54 865.57 L358.94 864.08 L355.17 862.98 L351.52 861.59 L348.02 859.83 L344.54 858.03 L341.35 855.61 L338.88 851.63 L336.88 846.81 L334.25 843.44 L331.39 840.61 L329.15 836.63 L327.29 832.03 L323.91 830.42 L320.50 828.84 L317.17 827.13 L313.86 825.37 L311.04 822.77 L307.38 821.60 L304.36 819.35 L300.86 817.89 L297.75 815.78 L294.58 813.77 L291.66 811.40 L287.64 810.64 L283.47 810.04 L279.66 808.87 L276.13 807.27 L274.15 803.56 L269.33 803.66 L265.19 802.77 L263.92 798.20 L261.37 795.30 L258.31 793.05 L255.83 790.10 L253.90 786.53 L249.90 785.35 L247.25 782.62 L244.73 779.77 L241.87 777.28 L239.03 774.77 L236.33 772.11 L233.72 769.36 L231.13 766.59 L228.49 763.88 L225.40 761.59 L222.96 758.68 L220.12 756.15 L217.45 753.44 L215.09 750.46 L212.32 747.84 L209.21 745.50 L205.37 743.74 L201.47 741.97 L197.15 740.50 L194.03 738.03 L190.54 735.82 L187.55 733.19 L187.25 728.58 L185.55 725.03 L184.12 721.32 L182.78 717.55 L179.70 714.99 L177.32 711.94 L174.09 709.42 L171.51 706.47 L169.37 703.23 L169.21 698.80 L167.00 695.62 L165.45 692.06 L164.04 688.43 L160.24 686.12 L156.79 683.57 L154.46 680.40 L152.55 677.00 L150.49 673.67 L150.34 669.40 L149.41 665.54 L149.61 661.18 L150.11 656.74 L148.78 653.13 L146.85 649.79 L145.10 646.36 L143.83 642.73 L141.72 639.44 L140.60 635.75 L138.54 632.41 L137.24 628.79 L135.90 625.18 L135.33 621.31 L133.46 617.88 L132.97 614.00 L131.52 610.42 L130.02 606.85 L128.79 603.20 L127.43 599.57 L125.24 596.15 L122.32 592.88 L118.77 589.73 L117.40 586.02 L115.00 582.52 L112.05 579.10 L111.67 575.15 L114.07 570.69 L110.23 567.37 L112.09 563.06 L115.08 558.63 L114.43 554.79 L113.59 550.97 L113.41 547.07 L113.82 543.10 L112.64 539.32 L112.20 535.45 L111.56 531.59 L111.31 527.70 L110.88 523.82 L110.91 519.92 L110.69 516.03 L110.62 512.13 L111.20 508.22 L110.90 504.34 L111.63 500.45 L110.48 496.55 L109.60 492.64 L107.58 488.68 L105.29 484.66 L106.41 480.76 L107.55 476.88 L106.57 472.87 L105.42 468.82 L107.72 465.05 L110.35 461.36 L109.60 457.34 L108.45 453.24 L106.15 448.97 L106.83 445.05 L106.37 440.97 L106.88 437.02 L105.76 432.79 L106.46 428.85 L106.81 424.85 L108.26 421.06 L109.88 417.32 L106.44 412.47 L107.58 408.59 L109.65 404.95 L112.60 401.55 L113.60 397.68 L115.64 394.10 L117.70 390.54 L119.41 386.90 L119.61 382.81 L117.32 377.90 L117.70 373.80 L116.97 369.29 L115.27 364.40 L113.85 359.55 L115.43 355.75 L117.02 351.96 L118.60 348.17 L120.33 344.45 L121.95 340.67 L123.40 336.83 L124.50 332.83 L126.31 329.14 L127.61 325.21 L128.80 321.22 L130.56 317.49 L132.16 313.68 L133.51 309.74 L135.67 306.21 L137.52 302.51 L139.32 298.79 L141.27 295.15 L143.20 291.49 L145.29 287.93 L147.20 284.25 L149.09 280.56 L150.88 276.79 L153.10 273.29 L155.37 269.82 L157.67 266.38 L160.08 263.01 L162.55 259.68 L164.91 256.27 L167.40 252.96 L169.98 249.71 L172.44 246.38 L175.14 243.24 L177.95 240.18 L180.44 236.87 L183.16 233.75 L185.64 230.43 L188.25 227.21 L191.15 224.24 L193.26 220.57 L195.79 217.25 L198.49 214.09 L201.31 211.03 L204.18 208.03 L207.10 205.07 L209.65 201.73 L212.60 198.79 L215.81 196.14 L219.00 193.45 L222.31 190.92 L225.94 188.75 L229.55 186.58 L232.63 183.81 L236.71 182.25 L240.17 179.97 L243.19 177.14 L245.82 173.80 L248.81 170.91 L252.09 168.38 L255.32 165.79 L258.05 162.48 L261.43 160.07 L265.30 158.36 L268.82 156.17 L272.40 154.08 L275.74 151.62 L278.95 148.94 L282.05 146.06 L285.61 143.92 L288.76 141.07 L291.71 137.84 L294.83 134.87 L298.43 132.73 L301.86 130.25 L305.47 128.11 L309.11 126.01 L312.91 124.23 L316.70 122.41 L320.37 120.35 L324.18 118.59 L328.05 116.96 L331.78 115.01 L335.43 112.85 L339.11 110.75 L342.75 108.52 L346.59 106.74 L350.37 104.80 L354.22 103.04 L358.25 101.75 L362.34 100.64 L366.16 98.74 L370.08 97.11 L374.14 95.92 L378.14 94.53 L382.03 92.73 L385.97 91.06 L390.00 89.73 L394.13 88.71 L398.28 87.79 L402.30 86.37 L406.46 85.47 L410.69 84.94 L414.82 83.97 L418.97 83.03 L423.16 82.35 L427.45 82.21 L431.61 81.38 L435.71 80.15 L439.91 79.49 L444.17 79.35 L448.29 78.09 L452.42 76.71 L456.63 76.06 L460.89 75.78 L465.11 75.23 L469.36 74.82 L473.62 74.72 L477.85 73.94 L482.11 73.81 L486.38 73.76 L490.65 73.88 L494.91 74.00 L499.17 74.75 L503.42 74.85 L507.66 75.64 L511.90 76.01 L516.13 76.29 L520.37 76.49 L524.59 76.94 L528.87 76.42 L533.10 76.77 L537.41 76.29 L541.63 76.84 L545.90 76.90 L550.10 77.64 L554.34 77.98 L558.55 78.59 L562.93 78.08 L567.26 78.01 L571.50 78.58 L575.73 79.19 L580.14 78.89 L584.57 78.62 L588.81 79.33 L593.06 80.02 L597.31 80.75 L601.59 81.33 L605.89 81.92 L610.19 82.51 L614.34 83.70 L618.48 84.95 L622.60 86.24 L626.70 87.58 L630.87 88.69 L635.06 89.79 L639.25 90.87 L643.41 92.07 L647.52 93.41 L651.67 94.67 L655.81 95.96 L659.84 97.54 L663.83 99.24 L667.98 100.52 L672.13 101.84 L676.16 103.46 L680.30 104.84 L684.45 106.21 L688.48 107.88 L692.42 109.72 L696.32 111.64 L700.22 113.59 L704.05 115.65 L707.81 117.85 L711.60 119.98 L715.49 121.93 L719.28 124.08 L723.04 126.27 L726.58 128.82 L730.45 130.83 L734.12 133.17 L737.58 135.83 L741.23 138.20 L745.08 140.27 L748.86 142.46 L752.44 144.93 L756.05 147.38 L759.72 149.75 L763.22 152.34 L766.71 154.96 L770.35 157.39 L773.73 160.15 L777.19 162.81 L780.76 165.35 L783.72 168.61 L786.45 172.12 L789.65 175.07 L792.71 178.18 L795.17 181.92 L797.93 185.32 L801.64 187.71 L804.82 190.67 L807.77 193.86 L811.22 196.56 L814.82 199.13 L818.09 202.04 L820.77 205.49 L823.29 209.08 L826.34 212.19 L829.91 214.86 L832.99 217.96 L836.07 221.07 L839.32 224.07 L842.84 226.85 L846.33 229.69 L849.81 232.55 L852.77 235.84 L855.42 239.36 L858.01 242.93 L860.65 246.46 L863.40 249.92 L866.23 253.33 L868.95 256.83 L871.07 260.72 L873.07 264.68 L875.72 268.22 L878.57 271.66 L880.80 275.48 L883.05 279.28 L885.76 282.83 L887.92 286.69 L890.12 290.54 L892.24 294.42 L894.51 298.24 L896.54 302.18 L898.57 306.12 L900.54 310.09 L902.95 313.86 L905.08 317.77 L907.37 321.61 L909.38 325.59 L911.14 329.68 L912.71 333.85 L914.55 337.90 L916.12 342.07 L917.67 346.24 L919.25 350.40 L920.71 354.61 L922.25 358.78 L923.87 362.94 L924.84 367.30 L925.71 371.69 L927.02 375.94 L928.70 380.09 L929.72 384.42 L931.06 388.67 L932.49 392.91 L934.10 397.10 L935.14 401.44 L936.27 405.76 L936.91 410.19 L937.79 414.56 L938.86 418.90 L939.25 423.36 L940.07 427.74 L940.86 432.13 L940.99 436.62 L941.37 441.07 L941.67 445.52 L941.78 449.98 L941.62 454.47 L942.43 458.85 L943.40 463.23 L944.70 467.59 L944.57 472.07 L945.11 476.50 L945.93 480.93 L946.26 485.38 L945.67 489.86 L945.25 494.33 L945.36 498.78 L964.85 500.00 L965.46 495.35 L965.52 490.69 L964.98 486.05 L964.67 481.40 L964.27 476.77 L963.14 472.18 L962.29 467.59 L961.13 463.03 L960.73 458.42 L960.67 453.78 L959.82 449.21 L958.99 444.66 L959.05 439.98 L958.75 435.35 L957.48 430.86 L956.45 426.34 L955.84 421.75 L955.02 417.20 L953.69 412.75 L952.61 408.25 L951.07 403.86 L949.81 399.41 L948.93 394.88 L947.54 390.48 L946.04 386.11 L945.06 381.60 L943.96 377.13 L942.47 372.76 L941.19 368.34 L939.86 363.93 L938.56 359.52 L936.74 355.27 L935.13 350.96 L933.85 346.53 L932.22 342.23 L930.32 338.03 L928.30 333.88 L926.30 329.73 L924.27 325.60 L922.48 321.38 L920.59 317.20 L918.42 313.15 L916.33 309.06 L914.71 304.76 L912.66 300.66 L910.37 296.68 L907.79 292.86 L905.42 288.93 L903.34 284.87 L901.31 280.77 L898.68 277.00 L896.57 272.94 L894.81 268.68 L892.47 264.74 L890.02 260.87 L887.79 256.88 L885.01 253.22 L882.21 249.59 L879.53 245.88 L876.92 242.14 L874.14 238.51 L871.23 234.98 L868.29 231.48 L865.58 227.81 L862.49 224.43 L858.95 221.42 L855.88 218.05 L853.17 214.41 L850.02 211.12 L847.29 207.49 L845.01 203.45 L842.26 199.81 L839.45 196.22 L836.61 192.64 L833.52 189.29 L829.89 186.46 L826.40 183.50 L822.82 180.64 L819.23 177.82 L815.79 174.86 L812.44 171.79 L809.00 168.84 L805.79 165.64 L802.28 162.76 L798.80 159.86 L795.46 156.81 L791.93 153.96 L788.35 151.20 L784.70 148.51 L781.09 145.79 L777.65 142.85 L773.76 140.48 L769.80 138.24 L766.23 135.46 L762.45 132.99 L758.46 130.83 L754.60 128.48 L751.05 125.69 L747.18 123.37 L743.15 121.31 L739.41 118.81 L735.56 116.47 L731.83 113.95 L727.93 111.70 L723.90 109.68 L719.94 107.53 L716.02 105.32 L711.84 103.60 L707.86 101.51 L703.57 100.04 L699.43 98.28 L695.37 96.37 L691.29 94.51 L687.11 92.88 L683.05 90.98 L678.94 89.19 L674.71 87.69 L670.51 86.13 L666.25 84.72 L661.95 83.43 L657.81 81.76 L653.54 80.41 L649.24 79.18 L645.08 77.53 L640.93 75.86 L636.70 74.41 L632.35 73.36 L628.04 72.16 L623.72 71.04 L619.43 69.80 L615.00 69.08 L610.63 68.19 L606.27 67.23 L601.89 66.38 L597.52 65.54 L593.17 64.59 L588.66 64.41 L584.15 64.30 L579.85 63.18 L575.48 62.39 L571.01 62.19 L566.76 60.62 L562.42 59.63 L558.03 58.88 L553.65 58.05 L549.27 57.16 L544.79 57.19 L540.28 57.62 L535.78 58.10 L531.35 57.87 L526.89 58.27 L522.45 58.44 L518.03 58.20 L513.62 57.76 L509.20 57.91 L504.78 57.66 L500.35 57.47 L495.93 57.64 L491.51 58.00 L487.09 58.11 L482.68 58.42 L478.27 58.70 L473.88 59.29 L469.52 60.23 L465.13 60.67 L460.72 60.79 L456.38 61.70 L452.07 62.81 L447.68 63.13 L443.29 63.50 L438.97 64.45 L434.67 65.39 L430.31 65.94 L425.93 66.42 L421.59 67.13 L417.28 68.05 L412.92 68.68 L408.57 69.38 L404.41 70.94 L400.19 72.19 L395.97 73.42 L391.81 74.88 L387.70 76.51 L383.50 77.75 L379.33 79.09 L375.18 80.50 L370.95 81.63 L366.77 82.93 L362.65 84.42 L358.68 86.34 L354.65 88.06 L350.44 89.28 L346.27 90.58 L342.23 92.27 L338.12 93.77 L333.91 95.03 L329.81 96.57 L325.89 98.53 L321.78 100.07 L317.87 102.04 L313.98 104.04 L310.19 106.26 L306.15 107.95 L302.23 109.90 L298.45 112.10 L294.69 114.34 L290.83 116.40 L287.13 118.73 L283.90 121.88 L280.57 124.81 L276.85 127.05 L273.15 129.33 L269.38 131.50 L265.52 133.54 L261.74 135.71 L257.66 137.43 L253.64 139.28 L250.05 141.77 L246.55 144.39 L243.37 147.44 L240.27 150.58 L237.41 154.01 L234.39 157.20 L231.26 160.23 L227.85 162.91 L224.67 165.86 L221.61 168.94 L218.29 171.72 L214.51 173.98 L211.53 177.14 L208.33 180.06 L205.20 183.04 L202.16 186.13 L199.24 189.34 L196.54 192.76 L193.85 196.17 L190.91 199.33 L188.27 202.77 L185.62 206.19 L182.97 209.60 L179.86 212.59 L176.94 215.75 L174.37 219.21 L171.68 222.56 L168.77 225.73 L165.81 228.87 L163.31 232.38 L160.68 235.78 L158.32 239.40 L155.49 242.64 L152.97 246.12 L150.81 249.87 L148.70 253.63 L146.59 257.39 L144.07 260.87 L141.98 264.62 L139.96 268.42 L137.80 272.12 L135.36 275.64 L133.36 279.43 L131.26 283.16 L129.72 287.21 L127.81 291.04 L125.37 294.56 L123.67 298.50 L122.01 302.45 L119.66 306.04 L117.93 309.95 L115.95 313.73 L114.23 317.64 L112.71 321.63 L110.87 325.48 L109.35 329.47 L107.99 333.53 L106.54 337.53 L104.96 341.49 L103.73 345.57 L102.29 349.58 L101.11 353.67 L99.43 357.58 L94.93 360.53 L91.61 363.94 L89.93 367.92 L85.96 371.20 L84.37 375.25 L83.63 379.55 L82.81 383.82 L82.22 388.15 L82.60 392.71 L82.21 397.06 L82.93 401.64 L83.45 406.15 L78.61 409.48 L80.69 414.31 L82.34 418.99 L82.67 423.37 L80.66 427.33 L79.99 431.53 L77.75 435.49 L75.80 439.53 L74.40 443.67 L71.09 447.59 L69.15 451.72 L66.93 455.85 L68.46 460.36 L70.73 464.90 L70.80 469.22 L68.74 473.40 L69.11 477.75 L70.15 482.11 L68.08 486.35 L66.53 490.64 L65.56 494.96 L64.76 499.31 L65.35 503.65 L65.73 507.99 L66.63 512.31 L67.09 516.64 L67.66 520.94 L68.19 525.25 L68.56 529.56 L69.23 533.85 L69.75 538.14 L70.25 542.43 L70.20 546.78 L71.76 550.94 L72.73 555.17 L73.66 559.39 L73.67 563.74 L77.52 567.49 L80.96 571.24 L79.73 575.79 L82.77 579.55 L84.78 583.48 L85.95 587.56 L84.23 592.28 L85.26 596.41 L84.14 601.07 L83.65 605.61 L83.54 610.08 L84.01 614.42 L85.84 618.38 L86.66 622.63 L88.51 626.57 L90.20 630.55 L91.79 634.56 L93.40 638.55 L95.00 642.54 L96.63 646.51 L97.76 650.67 L99.93 654.44 L100.70 658.75 L103.16 662.38 L105.48 666.06 L107.66 669.78 L109.32 673.72 L112.86 676.81 L116.29 679.90 L118.65 683.47 L121.38 686.84 L123.20 690.65 L125.18 694.38 L126.92 698.23 L129.30 701.75 L129.19 706.64 L133.36 709.15 L136.89 711.98 L139.08 715.57 L143.14 718.01 L145.09 721.73 L147.67 725.04 L148.83 729.28 L151.35 732.64 L151.11 737.88 L154.21 740.86 L157.51 743.68 L161.17 746.22 L164.85 748.70 L167.35 752.05 L169.76 755.46 L171.70 759.24 L173.86 762.88 L174.42 767.84 L175.81 772.18 L177.97 775.90 L180.13 779.65 L183.74 782.12 L186.18 785.63 L189.64 788.21 L192.75 791.10 L195.84 794.00 L199.00 796.82 L201.95 799.84 L205.24 802.53 L208.44 805.30 L211.60 808.10 L214.42 811.26 L218.34 813.22 L221.85 815.62 L224.85 818.58 L228.39 820.90 L232.18 822.93 L235.85 825.06 L238.66 828.26 L243.88 828.39 L246.76 831.48 L248.93 835.54 L252.95 837.14 L256.83 838.91 L259.39 842.51 L261.96 846.16 L265.06 849.08 L268.52 851.48 L272.13 853.65 L275.70 855.88 L279.17 858.26 L283.26 859.63 L286.80 861.90 L290.75 863.45 L294.47 865.39 L298.21 867.29 L301.96 869.17 L305.74 870.98 L310.64 870.58 L315.75 869.66 L320.31 869.73 L324.57 870.33 L330.06 868.23 L335.02 867.08 L339.36 867.19 L343.24 868.31 L347.02 869.65 L350.70 871.21 L354.50 872.50 L358.36 873.60 L362.14 874.89 L365.96 876.06 L369.83 877.08 L373.64 878.27 L377.46 879.43 L381.33 880.41 L385.20 881.38 L389.06 882.37 L392.93 883.30 L396.86 884.02 L400.77 884.76 L404.73 885.33 L408.65 885.99 L412.50 886.95 L416.37 887.82 L420.35 888.17 L424.26 888.80 L428.11 889.79 L432.01 890.50 L435.93 891.07 L439.86 891.56 L443.78 892.19 L447.69 892.78 L451.62 893.30 L455.56 893.77 L459.46 894.52 L463.37 895.31 L467.32 895.79 L471.27 896.18 L475.21 896.81 L479.17 897.16 L483.14 897.40 L487.12 897.53 L491.11 897.13 L495.08 897.00 L499.05 897.16 L503.02 896.93 L506.99 896.73 L510.95 896.61 L514.91 896.35 L518.89 896.40 L522.85 896.15 L526.76 895.24 L530.70 894.72 L534.66 894.64 L538.54 893.62 L542.46 893.01 L546.35 892.30 L550.28 891.88 L554.20 891.35 L558.13 890.92 L562.00 890.09 L565.90 889.50 L569.82 888.98 L573.65 887.93 L577.55 887.34 L581.40 886.44 L585.19 885.28 L588.97 884.10 L592.73 882.88 L596.45 881.51 L600.17 880.19 L603.89 878.89 L607.65 877.75 L611.44 876.72 L615.24 875.71 L619.07 874.81 L622.86 873.74 L626.60 872.52 L630.25 871.04 L633.80 869.27 L637.48 867.91 L641.14 866.48 L644.72 864.85 L648.19 862.98 L651.80 861.44 L655.31 859.69 L658.84 857.98 L662.41 856.36 L665.90 854.60 L669.53 853.10 L673.02 851.33 L676.62 849.77 L680.14 848.04 L683.49 845.99 L686.79 843.87 L690.04 841.66 L693.25 839.40 L696.73 837.61 L700.32 836.01 L703.31 833.39 L706.63 831.34 L710.30 829.83 L713.63 827.78 L716.70 825.33 L719.47 822.44 L722.55 820.05 L725.94 818.09 L729.07 815.76 L731.64 812.67 L734.68 810.24 L737.95 808.11 L741.00 805.69 L743.84 803.01 L746.60 800.24 L749.59 797.76 L752.81 795.55 L755.86 793.14 L758.31 790.03 L761.34 787.59 L764.17 784.93 L766.57 781.81 L769.25 779.00 L771.77 776.04 L774.16 772.95 L776.78 770.10 L779.66 767.51 L782.12 764.50 L784.84 761.76 L787.72 759.14 L790.37 756.32 L792.80 753.30 L795.23 750.28 L797.72 747.32 L800.05 744.23 L802.21 741.00 L804.37 737.78 L806.89 734.85 L809.29 731.82 L811.72 728.81 L813.74 725.49 L817.55 723.45 L821.62 721.54 L824.99 719.10 L827.23 715.89 L831.40 713.91 L834.01 710.90 L836.23 707.62 L837.37 703.69 L838.87 700.00 L840.64 696.48 L842.26 692.88 L844.43 689.59 L846.13 686.04 L849.83 683.54 L850.57 679.48 L851.23 675.41 L854.44 672.61 L854.32 668.19 L855.31 664.32 L856.63 660.63 L859.59 657.65 L860.30 653.69 L861.88 650.10 L864.33 646.87 L866.99 643.69 L867.84 639.80 L866.46 635.09 L868.57 631.70 L870.87 628.35 L872.78 624.86 L873.10 620.83 L874.25 617.08 L877.22 613.88 L879.37 610.40 L881.60 606.92 L880.84 602.61 L882.48 598.96 L883.06 595.04 L883.34 591.05 L883.26 586.99 L883.96 583.12 L882.58 578.82 L881.23 574.58 L882.98 570.95 L884.31 567.23 L884.35 563.28 L883.49 559.21 L885.53 555.58 L887.37 551.90 L887.94 548.03 L886.30 543.91 L885.08 539.88 L887.63 536.23 L886.87 532.26 L887.37 528.40 L887.48 524.52 L888.87 520.70 L889.77 516.84 L890.83 512.97 L891.61 509.08 L891.40 505.16 L890.97 501.25 L890.71 497.34 L890.94 493.43 L890.63 489.52 L889.65 485.65 L889.82 481.74 L888.87 477.88 L888.98 473.97 L888.42 470.10 L888.92 466.15 L887.89 462.33 L887.52 458.45 L886.51 454.64 L886.22 450.76 L885.02 446.99 L883.85 443.24 L881.22 439.72 L879.27 436.14 L878.33 432.40 L876.33 428.87 L875.57 425.11 L874.70 421.38 L874.21 417.57 L873.81 413.73 L873.80 409.78 L871.29 406.45 L869.28 403.02 L869.95 398.88 L866.22 395.95 L864.80 392.40 L865.47 388.22 L864.88 384.40 L862.56 381.13 L861.43 377.49 L861.63 373.37 L860.21 369.81 L858.19 366.48 L855.21 363.53 L854.72 359.63 L854.47 355.61 L852.72 352.20 L851.84 348.41 L850.08 345.00 L849.29 341.15 L848.50 337.29 L847.46 333.52 L845.16 330.36 L843.48 326.90 L842.22 323.22 L840.03 320.02 L837.14 317.21 L834.75 314.15 L832.22 311.19 L828.08 309.17 L826.93 305.44 L825.35 301.95 L822.29 299.37 L820.13 296.24 L818.90 292.52 L818.26 288.38 L814.58 286.25 L810.97 284.13 L807.98 281.60 L806.67 277.89 L803.94 275.21 L801.10 272.61 L800.30 268.46 L797.85 265.56 L797.03 261.37 L794.83 258.24 L792.86 254.92 L790.10 252.25 L787.11 249.80 L784.26 247.23 L781.68 244.44 L779.29 241.47 L776.12 239.23 L774.24 235.77 L770.59 234.02 L768.24 231.00 L765.59 228.27 L762.60 225.91 L759.73 223.42 L756.74 221.06 L753.66 218.81 L750.65 216.51 L747.99 213.79 L744.14 212.47 L740.33 211.16 L736.70 209.66 L733.35 207.86 L729.38 206.87 L726.71 204.23 L724.19 201.38 L721.04 199.36 L719.45 195.18 L715.47 194.31 L711.75 193.12 L708.64 191.05 L705.51 189.04 L700.81 189.43 L697.63 187.54 L695.87 183.37 L692.39 181.92 L689.50 179.50 L686.11 177.93 L683.83 174.41 L680.59 172.54 L675.82 173.50 L672.11 172.59 L669.40 169.77 L666.97 166.33 L663.25 165.45 L660.43 162.72 L656.81 161.65 L654.10 158.58 L651.08 156.16 L647.18 155.71 L643.78 154.14 L640.15 153.11 L636.59 151.97 L632.81 151.38 L629.50 149.57 L625.30 150.22 L620.94 151.45 L617.32 150.64 L614.38 147.75 L610.54 147.62 L606.47 148.33 L603.30 146.07 L600.15 143.65 L596.99 141.17 L592.78 142.60 L588.78 143.36 L585.47 141.40 L581.70 141.34 L578.17 140.29 L574.33 140.66 L571.11 138.04 L567.47 137.45 L564.20 134.72 L560.60 133.76 L557.05 132.44 L553.29 132.43 L549.51 132.68 L545.84 132.15 L542.12 132.04 L538.41 131.96 L534.69 131.94 L531.01 131.66 L527.32 131.44 L523.64 131.03 L519.96 130.61 L516.24 131.09 L512.55 130.80 L508.84 131.32 L505.15 131.64 L501.47 131.89 L497.78 131.70 L494.13 133.56 L490.49 134.56 L486.88 135.81 L483.27 136.65 L479.68 137.70 L476.06 137.91 L472.42 137.93 L468.82 138.42 L465.03 136.92 L461.49 138.08 L458.02 139.81 L454.25 138.88 L450.89 141.17 L447.40 142.35 L443.90 143.34 L440.06 142.31 L436.66 143.89 L433.13 144.68 L429.41 144.49 L425.55 143.74 L422.19 145.43 L419.24 148.77 L415.63 149.19 L412.06 149.81 L408.31 149.72 L405.07 151.61 L401.38 151.82 L397.58 151.72 L393.84 151.92 L389.91 151.55 L386.67 153.41 L383.05 154.09 L379.79 155.81 L376.33 156.96 L373.43 159.64 L370.23 161.42 L366.84 162.73 L364.27 166.03 L361.12 167.84 L357.46 168.45 L354.13 169.83 L351.71 173.24 L347.92 173.59 L344.44 174.66 L341.05 175.95 L338.67 179.24 L336.32 182.51 L332.25 182.46 L329.70 185.29 L326.26 186.48 L323.52 188.90 L319.65 189.37 L316.46 191.03 L312.65 191.68 L309.23 193.01 L306.24 195.04 L303.54 197.51 L300.63 199.66 L297.47 201.42 L294.85 203.98 L292.33 206.65 L289.49 208.85 L286.80 211.26 L283.64 213.03 L280.90 215.36 L277.40 216.72 L275.16 219.68 L272.16 221.69 L270.04 224.77 L267.38 227.17 L265.46 230.42 L263.28 233.36 L261.93 237.18 L260.50 240.85 L258.55 243.93 L256.94 247.33 L254.03 249.37 L252.92 253.23 L251.56 256.79 L249.30 259.43 L245.65 260.77 L244.72 264.66 L243.82 268.53 L238.97 268.84 L237.59 272.26 L234.58 274.27 L231.03 275.84 L227.81 277.73 L225.98 280.77 L222.58 282.56 L219.57 284.69 L217.07 287.24 L215.83 290.72 L216.10 295.26 L213.28 297.56 L209.47 299.19 L208.67 302.92 L207.09 306.09 L204.86 308.83 L201.66 310.96 L199.25 313.62 L196.93 316.36 L195.81 319.81 L194.67 323.24 L193.22 326.47 L191.07 329.31 L190.09 332.79 L188.98 336.19 L187.61 339.43 L186.33 342.72 L184.76 345.86 L183.28 349.04 L182.03 352.33 L181.13 355.77 L179.79 359.01 L177.53 361.84 L177.99 365.83 L179.45 370.19 L179.31 373.85 L176.93 376.63 L178.89 381.04 L177.96 384.35 L173.75 386.51 L172.60 389.76 L171.13 392.92 L168.42 395.69 L165.70 398.50 L164.13 401.68 L163.39 405.11 L162.47 408.48 L161.76 411.91 L160.07 415.09 L160.58 418.81 L158.96 422.02 L159.38 425.70 L158.56 429.09 L158.77 432.68 L157.91 436.06 L157.04 439.44 L156.61 442.90 L156.67 446.43 L156.44 449.91 L155.87 453.34 L156.48 456.91 L158.11 460.58 L159.14 464.15 L159.24 467.61 L160.58 471.16 L159.48 474.49 L158.94 477.88 L158.76 481.29 L156.16 484.59 L156.82 488.06 L158.49 491.54 L159.16 494.96 L158.43 498.37 L160.55 501.77 L161.03 505.16 L159.20 508.60 L159.45 512.00 L158.02 515.48 L158.80 518.86 L160.56 522.17 L161.19 525.53 L161.79 528.89 L165.31 531.97 L165.46 535.33 L162.77 539.03 L163.37 542.37 L161.60 546.04 L162.09 549.42 L161.13 553.03 L161.28 556.48 L161.97 559.84 L162.73 563.19 L163.93 566.45 L164.41 569.85 L165.73 573.07 L165.93 576.54 L167.43 579.70 L168.26 583.02 L169.73 586.17 L170.90 589.39 L171.67 592.72 L173.24 595.81 L174.81 598.89 L176.00 602.08 L175.53 605.81 L178.57 608.39 L180.39 611.34 L180.89 614.76 L183.94 617.24 L186.69 619.80 L187.08 623.25 L186.81 626.99 L190.16 629.26 L190.27 632.86 L190.66 636.37 L190.54 640.14 L191.38 643.49 L193.37 646.31 L194.58 649.51 L197.68 651.75 L198.68 655.05 L200.04 658.16 L201.91 661.00 L207.24 661.93 L208.19 665.24 L210.88 667.55 L213.52 669.87 L215.01 672.86 L216.77 675.69 L219.02 678.21 L220.46 681.24 L221.09 684.82 L223.42 687.29 L225.94 689.60 L229.08 691.46 L231.41 693.87 L233.92 696.14 L237.01 697.95 L240.05 699.77 L242.90 701.69 L242.31 706.36 L246.07 707.54 L249.70 708.79 L250.23 712.62 L252.16 715.29 L254.53 717.57 L256.74 720.00 L256.94 724.28 L259.35 726.54 L260.32 730.20 L262.17 733.04 L263.67 736.25 L266.08 738.56 L270.70 738.58 L273.23 740.71 L275.05 743.62 L277.05 746.35 L280.77 747.17 L282.57 750.13 L284.26 753.25 L286.21 756.12 L288.28 758.85 L291.31 760.42 L294.11 762.25 L297.26 763.63 L300.04 765.47 L303.09 766.93 L306.19 768.31 L308.84 770.29 L311.39 772.41 L314.60 773.59 L317.49 775.21 L319.91 777.55 L323.35 778.30 L326.21 779.95 L329.17 781.42 L331.77 783.49 L336.03 782.71 L339.95 782.43 L341.75 785.88 L345.81 785.23 L349.02 786.09 L351.86 787.64 L353.90 790.80 L357.21 791.43 L359.08 795.05 L361.34 797.95 L363.90 800.26 L366.90 801.62 L370.00 802.75 L372.76 804.70 L376.08 805.31 L379.29 806.14 L382.43 807.15 L385.69 807.82 L388.78 808.92 L391.75 810.39 L394.83 811.54 L398.33 811.42 L401.12 813.44 L404.59 813.35 L407.87 813.81 L411.31 813.64 L414.44 814.58 L418.05 813.64 L421.58 812.89 L424.86 813.04 L427.95 813.97 L431.02 814.99 L434.32 814.96 L437.52 815.36 L440.41 817.40 L443.43 818.89 L446.55 819.88 L450.01 818.70 L453.01 820.53 L456.24 820.78 L459.30 822.40 L462.70 821.29 L465.87 822.11 L469.13 821.98 L472.32 822.71 L475.78 819.82 L479.12 817.98 L482.24 819.16 L485.55 816.95 L488.75 816.12 L491.87 817.87 L495.03 818.94 L498.22 819.59 L501.42 820.95 L504.65 822.40 L507.89 823.11 L511.19 824.87 L514.37 823.17 L517.58 822.69 L520.78 822.14 L524.08 822.91 L527.18 821.13 L530.32 820.17 L533.48 819.42 L536.62 818.68 L539.80 818.26 L543.00 817.92 L546.18 817.53 L549.22 816.21 L552.30 815.18 L555.58 815.41 L558.58 814.02 L561.51 812.35 L564.51 811.17 L567.71 810.90 L570.17 807.40 L573.36 807.20 L576.99 808.70 L579.85 807.04 L582.56 804.92 L585.95 805.29 L589.48 806.08 L592.68 805.64 L595.72 804.64 L598.74 803.63 L601.62 802.15 L604.31 800.18 L607.60 799.95 L610.48 798.56 L612.02 793.65 L615.17 793.08 L617.90 791.43 L620.26 788.92 L622.79 786.88 L625.82 786.01 L628.81 785.05 L632.05 784.59 L634.91 783.30 L637.96 782.40 L640.23 779.91 L642.50 777.48 L645.02 775.57 L646.85 772.41 L649.72 771.19 L651.66 768.34 L653.64 765.61 L657.44 766.00 L659.67 763.72 L661.28 760.46 L663.48 758.21 L667.52 758.83 L669.28 755.90 L672.20 754.74 L676.35 755.33 L679.13 753.90 L682.20 752.85 L685.17 751.62 L688.20 750.46 L690.89 748.81 L692.17 745.36 L693.15 741.60 L696.42 740.71 L700.22 740.41 L701.07 736.58 L704.32 735.59 L706.61 733.48 L709.82 732.38 L712.29 730.44 L714.71 728.44 L716.61 725.89 L718.19 723.03 L720.51 720.94 L722.66 718.67 L724.76 716.36 L726.22 713.45 L728.23 711.08 L730.07 708.55 L732.12 706.22 L734.02 703.75 L735.53 700.96 L737.24 698.36 L739.06 695.85 L742.44 694.60 L742.02 690.32 L741.73 686.21 L743.50 683.72 L745.46 681.38 L745.02 677.29 L746.86 674.89 L750.97 674.06 L752.10 671.13 L755.53 669.75 L758.04 667.73 L760.88 665.88 L763.04 663.58 L764.14 660.63 L766.02 658.15 L767.12 655.21 L768.41 652.39 L769.73 649.59 L772.20 647.43 L772.04 643.84 L773.00 640.87 L774.82 638.35 L776.01 635.50 L777.40 632.76 L778.36 629.82 L779.52 626.97 L779.97 623.81 L781.83 621.28 L781.35 617.75 L781.03 614.33 L780.83 610.99 L781.40 607.97 L781.10 604.64 L782.60 602.00 L784.12 599.34 L784.84 596.41 L788.45 594.43 L788.30 591.20 L787.67 587.84 L789.54 585.26 L789.62 582.15 L788.46 578.71 L788.75 575.69 L791.56 573.32 L791.55 570.23 L794.12 567.74 L793.45 564.50 L793.12 561.37 L794.13 558.51 L793.40 555.32 L791.68 551.98 L791.75 548.99 L795.07 546.52 L795.57 543.57 L797.82 540.87 L799.14 538.01 L800.71 535.15 L802.14 532.26 L801.87 529.18 L801.84 526.14 L801.35 523.06 L802.37 520.10 L801.41 517.01 L801.20 513.98 L800.84 510.95 L801.24 507.95 L800.42 504.92 L800.31 501.91 L800.90 498.91 L799.79 495.91 L799.43 492.92 L799.06 489.94 L799.44 486.93 L798.33 483.99 L797.37 481.05 L798.25 478.00 L795.01 475.27 L794.40 472.35 L794.81 469.34 L795.19 466.31 L792.69 463.63 L793.81 460.50 L794.95 457.34 L795.97 454.17 L795.51 451.21 L794.64 448.32 L794.60 445.29 L791.31 442.88 L791.92 439.72 L790.50 436.98 L788.93 434.29 L786.34 431.86 L785.68 428.99 L784.22 426.33 L782.47 423.76 L781.58 420.97 L778.49 418.82 L775.48 416.70 L774.54 413.98 L774.29 411.04 L772.31 408.66 L770.57 406.23 L769.48 403.57 L768.83 400.76 L769.76 397.34 L767.44 395.15 L765.20 392.96 L762.55 390.96 L764.11 387.20 L760.82 385.51 L757.92 383.70 L757.67 380.70 L755.80 378.44 L756.11 375.13 L753.71 373.15 L753.39 370.13 L751.79 367.75 L751.54 364.66 L748.90 362.85 L748.25 359.95 L745.42 358.29 L743.05 356.40 L742.89 353.20 L740.60 351.29 L738.55 349.23 L736.56 347.16 L737.48 343.17 L735.07 341.37 L732.53 339.67 L731.80 336.74 L729.22 335.10 L728.71 331.97 L725.55 330.79 L723.13 329.10 L720.69 327.44 L719.83 324.54 L717.32 322.95 L714.99 321.25 L712.56 319.64 L710.52 317.72 L710.23 314.26 L707.57 312.88 L705.17 311.29 L703.50 309.04 L703.07 305.59 L699.67 304.97 L696.54 304.15 L696.97 299.76 L693.31 299.51 L691.63 297.24 L689.90 294.99 L687.62 293.35 L685.06 292.03 L683.76 289.28 L681.45 287.68 L679.18 286.04 L677.77 283.36 L675.31 281.95 L673.57 279.64 L671.83 277.31 L668.61 276.90 L666.04 275.67 L663.95 273.79 L661.23 272.80 L658.32 272.10 L655.75 270.96 L653.32 269.60 L651.80 266.86 L648.64 266.65 L645.94 265.76 L643.95 263.71 L641.94 261.68 L639.46 260.43 L636.99 259.16 L634.69 257.60 L632.42 255.97 L630.83 253.03 L627.98 252.46 L624.85 252.48 L622.61 250.76 L619.98 249.82 L616.76 250.16 L613.29 251.11 L611.14 249.23 L608.38 248.70 L606.44 246.23 L603.45 246.28 L601.52 243.73 L598.98 242.64 L596.27 242.03 L593.27 242.23 L590.67 241.36 L587.67 241.67 L584.61 242.24 L582.41 240.20 L579.60 240.06 L576.89 239.64 L574.98 236.44 L572.33 235.74 L569.38 236.17 L566.50 236.46 L564.16 234.55 L561.27 234.93 L558.82 233.42 L555.86 234.23 L553.06 234.36 L550.59 232.89 L547.81 232.95 L545.02 233.20 L542.21 233.65 L539.45 233.91 L536.72 233.96 L534.28 231.90 L531.52 232.25 L528.75 232.74 L526.40 229.17 L523.55 230.57 L520.75 231.60 L518.06 231.52 L515.44 230.15 L512.64 232.13 L510.00 231.19 L507.34 229.80 L504.61 231.48 L501.93 230.62 L499.24 231.46 L496.55 231.47 L493.85 230.60 L491.16 230.96 L488.52 232.04 L485.79 231.37 L483.06 230.76 L480.48 232.40 L477.74 231.83 L475.22 233.84 L472.65 235.00 L470.04 235.58 L467.40 235.92 L464.84 236.90 L462.34 238.11 L459.70 238.34 L457.06 238.63 L454.50 239.35 L451.91 239.94 L449.24 240.01 L446.55 240.09 L443.87 240.25 L441.29 240.92 L438.82 242.00 L436.38 243.17 L434.07 244.80 L431.71 246.20 L429.38 247.61 L427.01 248.85 L424.65 250.08 L422.03 250.44 L419.45 250.96 L416.79 251.27 L414.15 251.65 L411.65 252.46 L409.10 253.14 L406.59 253.94 L404.21 255.08 L401.95 256.53 L399.80 258.18 L397.51 259.50 L395.15 260.61 L392.82 261.82 L390.63 263.30 L388.17 264.19 L385.73 265.14 L383.33 266.19 L381.02 267.42 L378.75 268.71 L376.63 270.28 L374.45 271.73 L372.30 273.21 L370.16 274.71 L368.09 276.32 L365.87 277.66 L363.82 279.29 L361.87 281.06 L359.83 282.67 L357.75 284.21 L355.81 285.97 L353.65 287.38 L351.65 289.02 L349.67 290.68 L347.72 292.38 L345.93 294.29 L344.11 296.14 L342.40 298.11 L340.69 300.08 L338.63 301.61 L336.17 302.64 L334.14 304.21 L331.94 305.59 L329.47 306.68 L327.07 307.86 L325.15 309.59 L323.15 311.24 L321.44 313.20 L319.87 315.29 L317.97 317.04 L316.08 318.80 L314.76 321.11 L313.12 323.10 L311.22 324.85 L309.77 327.01 L308.49 329.32 L307.21 331.61 L305.95 333.89 L304.43 335.96 L302.71 337.84 L301.04 339.78 L299.39 341.73 L297.51 343.51 L295.36 345.09 L293.22 346.70 L291.84 348.88 L290.65 351.18 L289.60 353.58 L288.56 355.97 L287.69 358.47 L287.17 361.18 L286.88 364.01 L285.65 366.22 L284.00 368.17 L283.20 370.64 L281.91 372.82 L280.11 374.69 L278.66 376.78 L277.14 378.84 L276.13 381.18 L275.33 383.62 L274.48 386.02 L273.35 388.28 L273.20 391.01 L272.12 393.29 L270.72 395.41 L269.82 397.77 L269.10 400.20 L267.79 402.38 L266.62 404.62 L265.83 407.02 L265.12 409.45 L264.62 411.95 L263.87 414.35 L262.96 416.69 L262.27 419.11 L261.96 421.65 L261.24 424.06 L260.32 426.39 L259.86 428.87 L259.54 431.39 L259.45 433.95 L258.94 436.40 L257.93 438.72 L257.50 441.18 L257.59 443.76 L256.88 446.15 L255.99 448.51 L256.16 451.09 L256.28 453.64 L256.06 456.12 L255.51 458.54 L254.98 460.97 L254.52 463.41 L253.61 465.79 L252.70 468.18 L252.12 470.62 L251.51 473.07 L251.30 475.56 L251.34 478.07 L251.42 480.58 L251.72 483.10 L252.05 485.61 L252.01 488.10 L252.13 490.59 L252.51 493.08 L252.47 495.55 L252.52 498.03 L250.26 500.51 L248.97 503.02 L247.52 505.56 L247.36 508.10 L246.06 510.68 L246.51 513.20 L247.28 515.70 L247.82 518.20 L249.30 520.61 L249.01 523.17 L249.30 525.67 L249.41 528.19 L248.83 530.81 L248.25 533.44 L249.74 535.79 L251.28 538.11 L250.46 540.79 L253.37 542.85 L253.98 545.29 L252.71 548.08 L252.76 550.64 L254.32 552.89 L254.65 555.39 L253.35 558.28 L254.60 560.58 L256.54 562.69 L258.77 564.70 L258.66 567.32 L257.66 570.22 L259.45 572.32 L259.80 574.84 L261.20 577.03 L260.41 579.94 L260.37 582.62 L261.12 585.05 L263.17 587.00 L263.88 589.42 L264.46 591.91 L265.97 594.03 L267.37 596.18 L268.95 598.24 L272.72 599.34 L274.63 601.20 L273.83 604.29 L275.37 606.31 L277.62 607.98 L278.48 610.31 L278.51 613.08 L277.94 616.18 L280.59 617.60 L283.22 619.00 L285.28 620.68 L285.52 623.38 L287.13 625.31 L288.97 627.08 L289.10 629.90 L290.69 631.82 L290.50 634.88 L291.96 636.91 L292.95 639.25 L294.66 641.10 L296.58 642.79 L298.36 644.57 L299.86 646.55 L300.92 648.85 L303.12 650.31 L303.91 652.82 L306.47 653.97 L307.72 656.14 L309.44 657.93 L311.14 659.74 L312.83 661.54 L314.62 663.26 L316.25 665.12 L318.05 666.82 L319.69 668.67 L322.22 669.66 L324.96 670.43 L327.30 671.54 L329.73 672.54 L332.37 673.30 L333.67 675.43 L335.29 677.24 L337.13 678.82 L337.10 682.48 L339.75 683.17 L342.54 683.65 L344.38 685.23 L346.26 686.75 L349.66 686.39 L351.75 687.60 L352.04 691.13 L354.32 692.12 L355.72 694.29 L357.61 695.80 L358.70 698.44 L360.62 699.95 L363.91 699.45 L366.64 699.70 L368.44 701.35 L369.91 703.51 L372.34 704.19 L373.71 706.55 L376.17 707.16 L377.77 709.21 L379.41 711.22 L381.58 712.33 L383.63 713.64 L386.05 714.27 L387.94 715.89 L390.62 715.99 L392.85 716.94 L395.19 717.67 L397.79 717.81 L400.68 717.28 L402.57 718.89 L404.55 720.37 L407.55 719.43 L409.51 720.93 L411.40 722.62 L413.25 724.49 L416.23 723.39 L419.02 722.71 L420.91 724.47 L423.49 724.27 L425.63 725.36 L428.34 724.67 L430.11 726.92 L432.45 727.40 L434.17 730.00 L436.44 730.77 L438.57 732.08 L441.05 732.06 L443.58 731.81 L445.91 732.33 L448.32 732.46 L450.76 732.41 L453.16 732.56 L455.44 733.24 L457.82 733.42 L460.18 733.71 L462.44 734.61 L464.85 734.55 L467.14 735.27 L469.58 734.98 L471.94 735.14 L474.33 735.05 L476.69 735.24 L479.16 734.19 L481.56 733.62 L484.00 732.35 L486.38 731.57 L488.71 731.38 L491.03 731.37 L493.34 731.54 L495.66 731.53 L497.95 733.62 L500.29 732.43 L502.60 731.31 L504.94 732.70 L507.22 731.06 L509.49 730.00 L511.77 729.41 L514.17 731.16 L516.42 730.14 L518.74 730.16 L521.16 731.23 L523.56 731.96 L525.81 731.08 L527.74 727.69 L530.08 727.88 L532.41 727.96 L534.86 728.74 L536.96 727.23 L539.23 726.83 L541.74 727.76 L544.29 728.75 L546.79 729.38 L548.69 727.03 L551.10 727.17 L553.30 726.38 L555.39 725.15 L557.49 723.97 L559.76 723.53 L561.59 721.46 L563.12 718.49 L565.56 718.69 L568.03 718.95 L569.99 717.57 L571.60 715.18 L574.27 715.95 L576.72 716.02 L578.97 715.50 L580.46 712.96 L582.01 710.66 L584.79 711.54 L586.42 709.51 L588.76 709.21 L590.50 707.52 L593.08 707.74 L595.14 706.78 L597.74 706.94 L600.01 706.38 L602.06 705.35 L603.80 703.71 L605.73 702.47 L607.93 701.75 L609.74 700.29 L611.47 698.70 L613.48 697.62 L615.19 696.04 L617.31 695.15 L619.23 693.93 L621.58 693.38 L622.95 691.29 L624.98 690.25 L626.60 688.57 L628.61 687.48 L629.97 685.46 L631.54 683.76 L632.55 681.32 L633.64 679.03 L635.18 677.37 L636.35 675.24 L638.36 674.19 L639.91 672.58 L641.76 671.33 L643.78 670.28 L646.06 669.50 L646.91 667.08 L647.51 664.42 L650.23 664.12 L649.94 660.55 L651.45 658.95 L653.87 658.29 L655.99 657.29 L656.84 655.02 L658.54 653.59 L661.22 653.09 L662.56 651.30 L663.70 649.34 L663.70 646.37 L665.62 645.13 L667.37 643.73 L668.46 641.77 L670.27 640.41 L671.68 638.71 L673.69 637.48 L675.70 636.24 L677.76 635.01 L678.58 632.84 L679.87 631.02 L681.43 629.41 L682.68 627.56 L682.97 625.06 L683.99 623.07 L684.69 620.88 L684.02 617.83 L685.67 616.29 L687.34 614.74 L687.73 612.42 L688.04 610.06 L689.97 608.66 L692.26 607.43 L692.10 604.83 L691.41 601.98 L691.82 599.76 L694.18 598.53 L694.21 596.11 L694.75 593.97 L697.06 592.66 L697.50 590.47 L699.66 589.06 L700.67 587.11 L702.03 585.31 L702.36 583.07 L702.69 580.85 L703.25 578.73 L703.96 576.67 L705.32 574.84 L705.07 572.44 L706.47 570.62 L706.05 568.18 L707.10 566.24 L707.43 564.07 L708.08 561.99 L708.57 559.87 L708.79 557.69 L709.39 555.60 L709.88 553.49 L710.34 551.37 L709.82 549.03 L708.71 546.58 L708.37 544.32 L708.31 542.13 L707.12 539.74 L707.88 537.73 L708.41 535.68 L708.81 533.60 L711.26 531.83 L710.75 529.60 L709.98 527.36 L709.73 525.19 L710.11 523.11 L708.04 520.78 L708.17 518.69 L710.46 516.78 L710.07 514.64 L710.56 512.55 L710.81 510.46 L712.06 508.39 L712.11 506.27 L709.84 504.10 L708.44 501.99 L709.50 499.91 L711.34 497.79 L710.42 495.70 L711.79 493.55 L710.42 491.48 L711.96 489.30 L712.48 487.14 L711.54 485.07 L711.11 482.98 L710.67 480.89 L710.45 478.79 L709.49 476.77 L709.82 474.61 L708.06 472.70 L705.15 471.00 L704.36 469.02 L705.59 466.73 L704.62 464.78 L702.79 463.01 L703.04 460.86 L703.93 458.57 L705.53 456.10 L702.63 454.59 L700.34 453.00 L700.44 450.85 L699.80 448.89 L699.38 446.87 L697.59 445.22 L698.43 442.85 L697.67 440.92 L699.26 438.26 L698.48 436.32 L698.40 434.15 L697.14 432.38 L695.70 430.68 L695.13 428.67 L694.04 426.87 L692.93 425.07 L691.70 423.34 L691.64 421.13 L690.17 419.50 L689.20 417.67 L688.61 415.67 L687.58 413.87 L686.83 411.94 L685.64 410.22 L684.58 408.45 L683.52 406.67 L682.92 404.67 L680.75 403.49 L679.08 402.06 L677.03 400.87 L675.23 399.57 L673.43 398.28 L672.46 396.52 L671.60 394.69 L670.35 393.09 L671.05 390.25 L669.03 389.15 L666.71 388.27 L666.72 385.83 L664.35 385.02 L661.93 384.29 L660.32 383.00 L660.86 380.12 L658.97 379.04 L658.04 377.23 L657.50 375.11 L657.43 372.58 L655.51 371.54 L652.28 371.62 L651.02 370.07 L649.45 368.80 L648.88 366.64 L647.01 365.64 L646.29 363.60 L645.26 361.82 L644.43 359.83 L644.01 357.41 L642.07 356.49 L640.92 354.77 L639.16 353.69 L637.85 352.13 L635.42 351.80 L633.77 350.63 L632.40 349.15 L629.79 349.11 L627.59 348.63 L626.43 346.92 L625.32 345.14 L622.15 345.93 L621.22 343.92 L619.98 342.29 L618.74 340.63 L615.93 341.11 L613.23 341.52 L612.84 338.67 L610.54 338.55 L609.17 337.08 L606.94 336.91 L606.18 334.47 L604.52 333.41 L603.58 331.19 L602.10 329.81 L600.55 328.53 L598.44 328.20 L596.47 327.67 L594.96 326.31 L592.96 325.87 L590.97 325.41 L589.08 324.79 L587.23 324.09 L585.54 323.09 L583.88 322.00 L582.37 320.56 L580.12 320.76 L578.55 319.44 L576.50 319.24 L574.66 318.55 L572.59 318.45 L570.69 317.94 L568.35 318.62 L566.19 318.87 L564.12 318.95 L561.86 319.62 L560.22 318.49 L558.30 318.20 L556.46 317.70 L554.61 317.22 L553.33 314.79 L551.05 315.80 L548.81 316.77 L547.52 314.17 L545.04 316.23 L543.11 316.18 L541.35 315.38 L539.79 313.63 L537.74 314.17 L535.83 314.06 L534.20 312.43 L532.38 311.78 L530.37 312.25 L528.06 314.75 L526.37 313.38 L524.69 311.68 L522.79 311.55 L520.88 311.53 L518.96 311.69 L517.23 309.84 L515.42 308.49 L513.57 307.38 L511.52 309.28 L509.64 308.77 L507.73 308.49 L505.80 309.06 L503.87 309.69 L501.96 310.30 L500.07 313.34 L498.22 315.19 L496.33 313.03 L494.45 312.93 L492.63 314.21 L490.80 314.76 L488.85 313.21 L486.87 311.75 L485.05 312.68 L483.37 314.97 L481.67 316.64 L479.60 314.69 L477.85 315.77 L476.04 316.24 L474.07 315.54 L472.22 315.78 L470.17 314.74 L468.26 314.69 L466.38 314.85 L464.59 315.53 L462.82 316.26 L461.05 316.95 L459.26 317.50 L457.28 317.26 L455.68 318.60 L453.74 318.58 L452.24 320.20 L450.32 320.25 L448.64 321.14 L446.83 321.61 L445.10 322.30 L443.36 322.98 L441.71 323.90 L439.83 324.13 L438.17 325.00 L436.64 326.24 L435.53 328.53 L434.07 329.84 L432.56 330.97 L431.41 332.97 L429.53 333.16 L427.89 333.93 L426.22 334.63 L423.83 333.77 L422.49 335.21 L421.68 337.72 L420.26 338.91 L418.22 338.86 L417.91 342.18 L416.53 343.38 L413.70 341.90 L412.07 342.67 L410.69 343.90 L409.47 345.37 L407.02 344.76 L405.30 345.41 L404.96 348.29 L404.71 351.22 L402.29 350.75 L400.08 350.65 L399.07 352.36 L396.79 352.21 L395.64 353.70 L393.69 354.08 L391.79 354.55 L390.10 355.32 L388.92 356.77 L387.51 357.91 L385.78 358.65 L384.80 360.33 L383.56 361.66 L382.54 363.24 L381.92 365.27 L381.91 367.95 L380.13 368.63 L378.47 369.46 L378.35 371.91 L376.98 373.04 L375.22 373.78 L372.47 373.55 L373.08 376.65 L373.29 379.29 L372.19 380.65 L370.44 381.42 L369.52 382.96 L369.16 384.98 L366.76 385.21 L365.66 386.58 L362.67 386.39 L361.80 387.98 L360.12 388.92 L359.53 390.72 L359.04 392.59 L357.99 394.01 L357.15 395.59 L356.28 397.15 L355.66 398.87 L353.77 399.71 L353.87 401.92 L353.03 403.47 L352.09 404.95 L350.93 406.30 L350.52 408.12 L351.30 410.63 L352.37 413.27 L352.72 415.45 L352.52 417.28 L354.56 420.33 L355.96 422.96 L356.41 425.03 L355.94 426.61 L354.58 427.75 L353.39 428.97 L353.97 431.05 L354.89 433.25 L350.06 432.84 L351.30 435.17 L352.79 437.56 L353.88 439.74 L351.66 440.56 L350.44 441.79 L349.77 443.26 L350.18 445.12 L348.15 446.09 L346.04 447.07 L346.59 448.96 L345.24 450.23 L346.34 452.28 L347.37 454.26 L346.58 455.69 L345.47 457.04 L346.10 458.87 L346.76 460.68 L342.28 461.21 L342.88 463.02 L343.78 464.88 L343.80 466.52 L342.95 467.98 L342.03 469.43 L342.57 471.16 L343.68 472.98 L344.38 474.70 L342.20 475.97 L342.97 477.69 L343.77 479.39 L344.63 481.08 L344.54 482.65 L342.75 484.04 L343.12 485.66 L343.94 487.31 L344.63 488.93 L340.75 490.25 L342.79 491.95 L344.91 493.61 L342.09 495.08 L343.31 496.69 L343.43 498.25 L344.59 499.82 L343.41 501.39 L344.85 502.93 L343.29 504.52 L344.00 506.06 L344.46 507.60 L342.91 509.26 L343.98 510.76 L343.09 512.40 L344.06 513.89 L343.79 515.49 L345.66 516.87 L344.97 518.51 L346.12 519.94 L347.42 521.32 L348.62 522.70 L348.69 524.24 L346.88 526.10 L348.38 527.41 L349.65 528.74 L350.72 530.08 L349.21 531.96 L350.65 533.22 L352.21 534.43 L353.19 535.75 L353.45 537.24 L351.81 539.24 L353.15 540.46 L354.40 541.69 L355.87 542.83 L352.68 545.38 L354.89 546.30 L357.36 547.09 L356.95 548.82 L358.37 549.92 L357.51 551.83 L359.28 552.78 L359.12 554.46 L360.40 555.57 L359.19 557.69 L361.38 558.42 L361.33 560.08 L363.51 560.76 L364.99 561.73 L364.39 563.65 L365.94 564.57 L367.01 565.70 L368.17 566.78 L365.26 569.95 L366.97 570.76 L368.76 571.50 L368.58 573.31 L370.18 574.13 L369.54 576.24 L371.72 576.69 L373.55 577.33 L375.05 578.14 L374.42 580.29 L375.96 581.06 L377.59 581.76 L379.10 582.51 L380.03 583.64 L379.17 586.05 L380.96 586.59 L382.54 587.24 L383.32 588.49 L382.29 591.14 L384.38 591.38 L386.43 591.62 L385.03 594.67 L387.73 594.34 L387.99 596.05 L388.73 597.36 L390.54 597.73 L392.49 597.94 L392.86 599.58 L394.24 600.28 L395.55 601.05 L395.59 603.05 L397.27 603.44 L397.56 605.24 L398.17 606.72 L400.16 606.75 L401.65 607.29 L402.66 608.35 L404.65 608.28 L406.13 608.78 L407.48 609.41 L408.81 610.05 L408.95 612.15 L410.63 612.35 L412.37 612.46 L413.23 613.68 L414.19 614.78 L416.00 614.73 L417.64 614.89 L418.97 615.46 L420.29 616.03 L420.67 617.98 L422.55 617.71 L424.39 617.45 L424.90 619.28 L425.81 620.48 L428.01 619.57 L430.08 618.81 L430.63 620.62 L432.28 620.51 L432.88 622.30 L434.37 622.48 L435.13 624.02 L436.29 624.83 L437.44 625.65 L438.82 626.03 L439.90 627.02 L441.75 626.36 L443.45 625.97 L444.33 627.40 L445.68 627.78 L447.24 627.65 L448.06 629.32 L449.26 630.06 L450.68 630.27 L452.20 630.16 L453.38 630.99 L454.89 630.86 L456.12 631.56 L457.69 631.20 L459.20 630.98 L460.41 631.75 L461.82 631.82 L463.26 631.76 L464.75 631.47 L466.14 631.55 L467.48 631.78 L468.74 632.35 L470.16 632.23 L471.55 632.22 L472.64 633.64 L474.22 632.63 L475.76 631.75 L477.14 631.65 L478.44 631.99 L479.96 630.90 L481.25 631.19 L482.41 632.51 L483.78 632.38 L485.05 632.97 L486.35 633.40 L487.64 634.00 L488.96 634.41 L490.33 634.21 L491.68 634.15 L493.04 633.84 L494.38 633.98 L495.72 633.85 L497.07 633.68 L498.41 632.90 L499.74 632.90 L501.07 632.60 L502.39 632.10 L503.70 631.76 L505.00 631.37 L506.29 630.75 L507.58 630.38 L508.90 630.65 L510.16 629.89 L511.45 629.69 L512.81 630.26 L514.12 630.20 L515.37 629.59 L516.67 629.45 L517.95 629.21 L519.14 628.30 L520.40 628.00 L521.49 626.67 L522.68 626.05 L523.86 625.39 L525.04 624.77 L526.26 624.38 L527.54 624.28 L528.72 623.76 L529.90 623.21 L531.21 623.23 L532.34 622.54 L533.52 622.05 L534.59 621.19 L535.73 620.60 L536.87 620.03 L537.94 619.25 L539.14 618.90 L540.31 618.44 L541.57 618.26 L542.66 617.56 L543.81 617.07 L544.93 616.52 L545.99 615.81 L547.10 615.23 L548.07 614.31 L549.26 613.95 L550.32 613.27 L551.35 612.54 L552.20 611.43 L553.39 611.08 L554.45 610.44 L555.41 609.61 L556.30 608.65 L557.27 607.88 L558.41 607.41 L559.41 606.70 L560.26 605.72 L561.23 604.97 L562.45 604.64 L563.43 603.91 L564.04 602.58 L565.05 601.92 L566.07 601.27 L567.10 600.64 L568.14 600.01 L569.07 599.23 L570.12 598.62 L571.35 598.26 L572.36 597.58 L573.18 596.65 L573.88 595.57 L574.70 594.67 L575.38 593.59 L576.33 592.85 L577.24 592.06 L578.08 591.20 L579.10 590.55 L579.86 589.59 L580.85 588.89 L581.63 587.96 L582.25 586.88 L582.89 585.82 L583.89 585.13 L584.45 584.00 L584.87 582.75 L585.58 581.79 L586.48 581.01 L586.73 579.63 L587.36 578.61 L587.77 577.41 L588.23 576.26 L588.91 575.30 L589.44 574.23 L590.00 573.19 L590.50 572.10 L590.98 571.01 L591.36 569.85 L591.86 568.79 L592.14 567.57 L592.71 566.57 L593.07 565.43 L593.50 564.34 L593.87 563.22 L594.49 562.28 L594.79 561.12 L595.25 560.08 L595.81 559.10 L596.29 558.08 L596.51 556.91 L596.93 555.85 L597.38 554.82 L597.84 553.80 L598.13 552.69 L598.54 551.64 L598.90 550.58 L599.28 549.53 L599.58 548.44 L599.87 547.35 L600.04 546.21 L600.22 545.09 L600.51 544.01 L600.79 542.94 L600.91 541.80 L601.13 540.71 L601.42 539.66 L601.55 538.54 L601.67 537.43 L601.87 536.35 L601.94 535.23 L602.08 534.14 L602.20 533.05 L602.31 531.95 L602.45 530.88 L602.62 529.82 L602.62 528.70 L602.60 527.60 L602.75 526.54 L602.77 525.45 L602.71 524.35 L602.62 523.24 L602.64 522.17 L602.61 521.09 L602.51 520.01 L602.46 518.93 L602.44 517.87 L602.40 516.81 L602.39 515.76 L602.37 514.71 L602.34 513.66 L602.31 512.62 L602.27 511.58 L602.23 510.54 L602.18 509.50 L602.12 508.47 L602.05 507.44 L601.97 506.41 L601.89 505.38 L601.80 504.35 L601.69 503.33 L601.58 502.31 L601.46 501.29 L601.32 500.28 Z"/>
  <svg class="pausebutton" id="pausebutton">
    <circle cx="500" cy="500" id="pausestart" class="pausestart" r="52.65"/>
    <rect height="50.02" width="10.00" y="473.68" rx="2.00" ry="2.00" x="479.99" class="pausesymbol"/>
    <rect height="50.02" width="10.00" y="473.68" rx="2.00" ry="2.00" x="510.00" class="pausesymbol"/>
    <polygon points="530.01,500 479.99,530.01 479.99,469.99" class="playsymbol"/>
  </svg>
  <polygon id="playback-head" class="playback-head" points="956.2375,500 936.2375,540 976.2375,540"/>
</svg>