<?xml-stylesheet href="../../style/waveformjs.css" type="text/css"?>
<svg xmlns="http://www.w3.org/2000/svg" xmlns:xlink="http://www.w3.org/1999/xlink" width="100%" height="100%" viewBox="0 0 1000 1000">
  <path class="svg-wave" id="sp" d="M601.23 500.00 L601.33 501.01 L601.41 502.03 L601.47 503.05 L601.51 504.06 L601.52 505.08 L601.55 506.10 L601.60 507.12 L601.58 508.14 L601.54 509.16 L601.51 510.18 L601.43 511.20 L601.22 512.20 L600.99 513.20 L600.77 514.20 L600.93 515.25 L600.70 516.25 L600.38 517.23 L600.28 518.25 L600.16 519.26 L599.47 520.16 L598.87 521.07 L598.31 521.98 L597.95 522.93 L597.44 523.84 L596.97 524.76 L596.50 525.67 L596.42 526.69 L595.89 527.57 L594.94 528.33 L594.52 529.24 L595.18 530.49 L595.27 531.57 L594.26 532.29 L594.05 533.27 L595.49 534.85 L594.98 535.75 L594.30 536.58 L594.02 537.55 L594.08 538.67 L592.86 539.26 L592.25 540.09 L592.00 541.08 L591.93 542.16 L591.23 542.95 L591.01 543.96 L590.52 544.85 L590.21 545.82 L589.38 546.53 L589.05 547.50 L588.10 548.13 L587.61 549.01 L586.61 549.59 L586.22 550.52 L585.52 551.26 L584.60 551.87 L583.36 552.27 L582.63 552.97 L581.49 553.39 L581.09 554.29 L580.58 555.13 L579.10 555.29 L578.89 556.32 L579.06 557.64 L579.37 559.10 L578.35 559.56 L578.06 560.58 L578.21 561.96 L578.49 563.47 L577.13 563.66 L576.85 564.73 L576.63 565.86 L576.23 566.86 L575.03 567.15 L574.34 567.87 L574.06 569.00 L573.73 570.08 L572.77 570.56 L571.82 571.05 L571.42 572.08 L570.77 572.87 L570.30 573.85 L569.66 574.66 L568.85 575.29 L568.36 576.26 L567.78 577.16 L567.62 578.55 L567.02 579.44 L566.37 580.28 L565.49 580.85 L565.02 581.93 L564.29 582.71 L562.87 582.57 L561.96 583.09 L561.09 583.65 L560.31 584.34 L558.85 584.06 L558.10 584.78 L558.01 586.50 L557.26 587.24 L556.34 587.74 L556.05 589.24 L555.65 590.60 L554.81 591.28 L554.00 591.99 L553.21 592.77 L552.46 593.61 L551.45 594.00 L550.15 593.84 L549.19 594.31 L548.25 594.80 L547.43 595.54 L546.54 596.14 L545.52 596.49 L544.62 597.09 L544.09 598.51 L543.30 599.41 L542.18 599.55 L541.25 600.14 L540.25 600.53 L539.15 600.70 L537.86 600.34 L536.96 601.01 L535.67 600.58 L534.63 600.83 L533.61 601.15 L532.64 601.62 L531.23 600.69 L530.60 602.24 L530.12 604.43 L528.82 603.82 L527.40 602.68 L526.98 605.33 L526.47 607.79 L525.14 606.98 L523.81 606.10 L523.09 607.89 L522.29 609.50 L521.10 609.25 L519.93 609.01 L518.88 609.44 L517.82 609.85 L516.65 609.56 L515.45 609.03 L514.39 609.37 L513.38 610.22 L512.19 609.60 L511.08 609.52 L510.04 610.30 L509.04 611.60 L507.89 611.21 L506.77 611.21 L505.63 610.76 L504.53 611.04 L503.39 609.93 L502.30 610.47 L501.20 610.80 L500.09 610.19 L498.99 609.63 L497.86 611.61 L496.72 612.32 L495.62 611.58 L494.50 611.61 L493.29 613.25 L492.13 613.51 L491.04 612.94 L489.89 613.04 L488.65 614.06 L487.40 614.91 L486.30 614.36 L485.20 613.92 L484.07 613.70 L482.83 614.22 L481.82 613.23 L480.83 612.20 L479.82 611.41 L478.45 612.56 L477.44 611.76 L476.38 611.25 L475.27 611.00 L473.93 611.76 L472.89 611.17 L471.90 610.43 L470.84 609.95 L470.07 608.47 L468.90 608.48 L467.67 608.64 L466.42 608.87 L465.39 608.35 L463.74 609.72 L462.30 610.36 L461.09 610.28 L460.02 609.80 L458.41 610.77 L457.09 610.89 L456.34 609.57 L455.37 608.82 L453.90 609.27 L452.64 609.21 L451.77 608.23 L450.67 607.79 L449.44 607.61 L448.39 607.06 L447.78 605.62 L446.73 605.08 L445.30 605.27 L444.24 604.74 L443.73 603.20 L442.49 603.00 L441.01 603.22 L440.07 602.47 L439.21 601.60 L438.34 600.75 L437.29 600.21 L437.18 598.19 L436.05 597.78 L434.58 597.88 L433.60 597.22 L433.22 595.71 L431.89 595.57 L429.41 596.98 L428.17 596.63 L428.03 594.83 L426.85 594.41 L425.14 594.65 L423.88 594.29 L423.78 592.50 L422.71 591.91 L421.72 591.21 L420.52 590.76 L420.02 589.51 L419.24 588.59 L418.76 587.34 L417.75 586.67 L416.95 585.78 L416.65 584.39 L415.79 583.57 L415.07 582.61 L414.34 581.68 L414.86 579.57 L413.41 579.32 L413.20 577.93 L413.06 576.50 L412.60 575.36 L411.07 575.14 L410.91 573.77 L410.73 572.42 L409.13 572.23 L408.67 571.12 L408.07 570.11 L409.46 567.64 L408.16 567.18 L406.57 566.93 L407.62 564.78 L406.09 564.46 L407.19 562.36 L404.61 562.72 L406.29 560.27 L403.90 560.47 L404.49 558.77 L404.74 557.31 L407.16 554.59 L406.35 553.82 L403.26 554.31 L404.76 552.23 L402.42 552.25 L405.19 549.55 L400.33 550.83 L401.55 548.97 L399.92 548.54 L400.70 546.94 L400.38 545.88 L401.47 544.19 L401.46 543.02 L398.77 542.99 L399.04 541.69 L397.11 541.29 L398.61 539.51 L394.86 539.77 L395.39 538.38 L394.64 537.46 L393.24 536.76 L396.31 534.55 L396.42 533.36 L394.37 532.86 L392.97 532.13 L394.85 530.42 L392.09 530.05 L392.74 528.72 L390.42 528.17 L389.68 527.18 L389.64 526.03 L386.80 525.50 L391.40 523.33 L390.28 522.42 L390.80 521.18 L387.68 520.62 L389.87 519.09 L389.04 518.09 L388.29 517.07 L387.31 516.06 L385.40 515.17 L386.24 513.90 L382.96 513.12 L388.32 511.38 L386.37 510.44 L386.73 509.26 L384.73 508.27 L386.08 507.03 L386.35 505.87 L384.75 504.80 L384.32 503.66 L382.38 502.54 L383.68 501.35 L381.04 500.19 L385.96 499.04 L384.02 497.86 L383.70 496.70 L383.16 495.51 L382.27 494.30 L384.38 493.24 L381.60 491.89 L383.10 490.82 L380.79 489.43 L383.05 488.45 L381.73 487.13 L386.67 486.52 L384.18 485.05 L383.06 483.71 L385.01 482.81 L383.62 481.41 L384.14 480.30 L382.27 478.77 L384.54 477.98 L382.23 476.32 L383.60 475.38 L383.42 474.13 L386.88 473.70 L385.89 472.27 L383.52 470.46 L385.53 469.74 L383.20 467.87 L386.65 467.60 L382.79 465.23 L385.45 464.76 L383.98 463.04 L384.92 462.07 L386.36 461.28 L388.21 460.66 L388.43 459.47 L386.54 457.50 L387.69 456.64 L386.28 454.79 L388.28 454.28 L386.02 452.02 L388.08 451.57 L388.07 450.23 L387.44 448.60 L389.82 448.34 L391.35 447.73 L391.25 446.34 L390.11 444.40 L392.80 444.41 L392.58 442.92 L393.47 442.02 L393.59 440.70 L394.35 439.73 L394.07 438.16 L394.22 436.82 L396.25 436.62 L395.90 434.96 L396.16 433.68 L396.60 432.49 L397.82 431.82 L397.11 429.85 L397.94 428.91 L398.55 427.82 L398.32 426.11 L399.28 425.26 L397.74 422.52 L402.01 424.20 L401.87 422.51 L401.94 420.96 L401.54 419.00 L403.48 418.97 L404.25 417.97 L404.76 416.73 L405.71 415.89 L405.56 414.04 L407.27 413.89 L407.63 412.49 L410.75 413.73 L409.89 411.14 L410.58 410.04 L411.03 408.68 L411.82 407.67 L413.56 407.66 L412.93 405.10 L414.41 404.82 L414.31 402.77 L415.95 402.68 L416.13 400.91 L419.18 402.55 L419.12 400.47 L419.27 398.60 L420.64 398.25 L420.67 396.16 L423.01 397.11 L422.42 394.13 L424.68 395.02 L424.72 392.84 L426.81 393.56 L427.91 392.88 L430.67 394.73 L430.18 391.64 L430.65 389.97 L432.39 390.32 L432.44 387.90 L433.79 387.62 L433.74 384.92 L436.25 386.67 L436.14 383.77 L437.52 383.53 L439.04 383.59 L441.42 385.35 L441.91 383.45 L441.63 379.89 L443.91 381.60 L444.40 379.53 L446.09 380.05 L446.26 377.15 L448.28 378.49 L448.74 376.14 L449.88 375.37 L451.76 376.50 L453.36 376.99 L454.48 376.23 L454.71 372.93 L456.44 373.80 L457.46 372.64 L458.92 372.80 L459.38 369.80 L460.79 369.74 L462.11 369.42 L463.07 367.77 L465.24 370.60 L466.56 370.35 L467.86 369.99 L468.64 367.48 L470.27 368.52 L471.43 367.50 L472.57 366.35 L473.65 364.75 L474.84 363.59 L476.45 364.76 L477.35 361.72 L479.53 366.74 L480.69 365.29 L482.01 364.91 L483.21 363.51 L484.70 364.45 L485.91 362.85 L487.31 363.04 L488.62 362.24 L489.93 361.11 L491.41 362.51 L492.66 360.11 L494.25 364.50 L495.56 363.00 L496.92 362.28 L498.29 362.07 L499.67 361.46 L501.05 362.18 L502.46 360.19 L503.85 360.57 L505.31 358.94 L506.67 360.03 L508.15 358.72 L509.28 362.90 L510.73 362.01 L512.28 360.16 L513.63 360.78 L515.17 359.57 L516.25 362.48 L518.03 359.51 L519.33 360.39 L520.95 359.13 L522.15 360.62 L523.57 360.67 L524.44 363.87 L526.00 363.03 L527.95 360.42 L528.90 362.79 L530.93 360.10 L531.83 362.57 L534.15 358.98 L535.01 361.52 L536.74 360.55 L537.78 362.21 L538.81 363.81 L539.47 366.57 L541.49 364.74 L543.16 364.14 L543.84 366.66 L546.08 364.42 L547.23 365.46 L549.45 363.53 L550.22 365.60 L551.94 365.14 L553.37 365.44 L553.92 367.94 L554.74 369.67 L556.10 370.08 L558.74 367.62 L559.35 369.78 L561.54 368.46 L562.42 369.98 L565.07 367.87 L567.19 366.95 L569.34 366.03 L571.30 365.56 L572.03 367.40 L574.56 365.96 L576.10 366.34 L577.47 367.04 L577.95 369.26 L579.91 368.96 L581.19 369.81 L582.71 370.27 L583.63 371.69 L585.04 372.33 L587.59 371.32 L588.56 372.64 L589.92 373.40 L591.53 373.83 L593.67 373.56 L594.98 374.44 L596.33 375.27 L597.45 376.39 L597.14 379.28 L598.82 379.68 L600.15 380.52 L600.12 382.96 L600.57 384.78 L603.93 383.30 L605.11 384.33 L606.04 385.63 L607.06 386.82 L609.62 386.41 L611.46 386.79 L611.69 388.81 L612.96 389.77 L613.64 391.29 L615.71 391.52 L617.74 391.81 L619.46 392.40 L619.23 394.76 L620.21 396.01 L622.18 396.42 L623.21 397.65 L623.79 399.24 L623.18 401.77 L625.82 401.71 L625.11 404.26 L627.49 404.45 L628.57 405.63 L630.87 405.94 L630.67 408.05 L631.71 409.27 L634.10 409.59 L633.67 411.81 L635.57 412.49 L634.59 415.02 L636.24 415.87 L637.06 417.24 L640.10 417.31 L639.26 419.67 L641.82 420.08 L642.64 421.48 L643.85 422.68 L645.86 423.47 L646.42 425.04 L645.87 427.15 L645.13 429.33 L647.46 430.00 L646.36 432.31 L646.16 434.17 L646.92 435.59 L650.61 435.76 L649.59 437.95 L649.89 439.58 L651.76 440.58 L653.91 441.51 L654.82 442.93 L653.79 445.05 L654.62 446.49 L655.28 447.99 L656.98 449.16 L657.85 450.62 L658.80 452.06 L658.45 453.89 L660.32 455.08 L660.56 456.74 L660.48 458.48 L660.50 460.18 L662.38 461.43 L661.74 463.29 L661.40 465.06 L658.54 467.34 L660.60 468.58 L661.50 470.08 L665.40 471.07 L662.98 473.17 L662.13 474.97 L665.47 476.14 L667.90 477.50 L664.98 479.57 L664.95 481.25 L666.46 482.76 L662.68 484.80 L664.93 486.25 L668.98 487.61 L666.18 489.49 L663.07 491.32 L665.94 492.83 L667.06 494.45 L663.83 496.20 L662.95 497.85 L662.60 499.48 L664.43 501.12 L663.36 502.75 L668.08 504.51 L670.20 506.27 L667.28 507.84 L666.31 509.46 L668.86 511.30 L669.38 513.04 L666.59 514.50 L667.62 516.28 L665.00 517.69 L665.18 519.38 L666.59 521.24 L672.61 523.76 L669.88 525.12 L666.32 526.30 L666.10 527.97 L668.05 530.03 L668.54 531.86 L665.45 532.99 L666.85 535.01 L664.43 536.22 L665.06 538.09 L665.04 539.83 L666.44 541.93 L667.33 543.94 L667.06 545.66 L666.04 547.17 L665.91 548.93 L669.17 551.74 L666.53 552.76 L665.64 554.31 L665.14 555.98 L663.36 557.20 L661.69 558.44 L664.22 561.22 L663.43 562.79 L660.29 563.43 L661.09 565.62 L660.42 567.22 L659.24 568.61 L657.72 569.83 L657.43 571.60 L657.40 573.49 L655.37 574.44 L656.77 577.05 L658.56 579.91 L657.26 581.24 L654.58 581.82 L654.40 583.71 L654.13 585.57 L653.31 587.13 L651.84 588.32 L650.77 589.73 L650.02 591.32 L648.73 592.59 L650.23 595.62 L650.19 597.72 L647.74 598.24 L645.60 598.93 L645.25 600.83 L644.72 602.62 L643.38 603.84 L642.33 605.27 L640.04 605.76 L641.25 608.90 L639.47 609.78 L640.29 612.71 L637.73 612.94 L637.98 615.47 L636.23 616.34 L634.77 617.45 L633.21 618.45 L631.57 619.37 L630.94 621.21 L628.50 621.36 L629.48 624.75 L627.47 625.30 L627.72 628.08 L626.14 629.05 L625.20 630.68 L624.12 632.17 L621.93 632.48 L618.29 631.13 L616.92 632.25 L616.20 634.11 L613.11 633.21 L612.65 635.38 L611.98 637.35 L612.92 641.38 L611.33 642.27 L609.63 643.03 L607.99 643.84 L604.14 641.64 L600.81 640.03 L597.66 638.55 L595.84 638.91 L595.14 640.87 L594.78 643.42 L593.80 645.06 L594.65 649.64 L594.03 652.01 L591.76 651.71 L591.13 654.13 L589.83 655.46 L587.32 654.66 L585.38 654.81 L584.74 657.36 L581.82 655.65 L580.89 657.68 L581.27 662.41 L579.00 661.90 L576.39 660.60 L576.08 664.16 L576.10 668.60 L573.71 667.76 L571.84 668.06 L569.15 666.34 L567.28 666.51 L565.81 667.70 L564.09 668.23 L561.39 666.14 L559.63 666.47 L558.62 668.94 L557.85 672.26 L554.69 668.43 L552.59 667.64 L551.58 670.36 L551.43 676.22 L549.11 674.72 L546.28 671.21 L544.99 673.30 L544.14 677.32 L542.20 677.04 L540.20 676.47 L538.24 675.99 L536.77 677.73 L535.71 681.78 L534.46 685.16 L532.53 685.10 L530.58 684.84 L528.60 684.29 L526.79 684.76 L524.94 685.05 L522.65 681.73 L520.06 675.25 L517.85 671.06 L516.80 678.21 L515.39 682.87 L513.25 678.80 L511.34 677.05 L509.91 683.45 L508.23 686.91 L506.35 686.91 L504.52 688.29 L502.60 686.16 L500.74 686.77 L498.85 691.81 L496.88 695.05 L494.91 695.62 L492.95 695.73 L490.93 696.97 L489.07 694.93 L487.40 690.55 L485.43 691.36 L483.30 693.61 L481.77 689.31 L480.18 686.22 L477.46 693.39 L475.12 696.40 L473.14 696.24 L470.91 697.77 L468.63 699.45 L467.00 696.96 L465.47 694.12 L463.78 692.45 L462.25 690.13 L459.21 695.16 L457.54 693.50 L455.71 692.62 L452.87 695.98 L450.11 698.68 L448.99 694.85 L448.39 689.40 L447.62 684.93 L446.77 681.02 L446.20 676.39 L443.97 677.34 L440.70 681.35 L439.28 679.61 L436.49 681.85 L431.64 689.62 L428.67 691.83 L426.31 692.27 L424.49 691.25 L422.34 691.08 L419.80 691.81 L418.16 690.37 L416.98 687.91 L416.06 684.96 L414.72 683.03 L414.02 679.81 L413.79 675.77 L411.75 675.45 L408.58 677.33 L408.46 673.28 L408.68 668.76 L406.87 668.06 L401.17 674.21 L399.03 673.92 L398.81 670.35 L396.17 670.88 L389.70 677.50 L386.70 678.32 L384.51 677.81 L382.90 676.41 L381.31 674.98 L379.25 674.24 L377.86 672.53 L376.96 670.17 L376.53 667.22 L376.54 663.76 L376.22 660.80 L374.72 659.43 L371.77 659.86 L374.25 653.60 L375.53 648.98 L372.65 649.36 L368.83 650.77 L365.62 651.37 L367.20 646.61 L368.24 642.57 L364.32 643.89 L360.76 644.74 L359.58 643.08 L361.75 638.08 L363.73 633.41 L363.57 630.92 L358.12 633.45 L356.10 632.66 L354.36 631.60 L353.62 629.63 L348.72 631.29 L347.78 629.46 L345.71 628.59 L344.01 627.38 L340.85 627.33 L340.48 625.03 L340.65 622.34 L335.53 623.68 L330.93 624.51 L329.07 623.27 L328.35 621.19 L325.77 620.42 L324.89 618.46 L323.02 617.16 L322.43 615.02 L320.58 613.68 L319.96 611.57 L317.48 610.60 L317.58 608.06 L316.74 606.09 L315.73 604.23 L313.32 603.15 L312.60 601.11 L311.63 599.21 L310.44 597.43 L308.25 596.15 L307.17 594.29 L306.69 592.14 L306.54 589.85 L308.11 586.79 L311.60 582.96 L317.11 578.36 L316.97 576.26 L318.44 573.53 L321.36 570.27 L322.62 567.74 L316.98 567.80 L310.99 567.88 L307.96 566.81 L304.29 565.90 L299.97 565.13 L295.69 564.27 L295.90 561.97 L294.18 560.25 L295.29 557.71 L297.36 554.95 L298.90 552.37 L292.12 551.92 L293.37 549.42 L294.57 546.97 L295.44 544.62 L293.76 542.83 L295.95 540.25 L296.94 537.95 L297.62 535.74 L297.05 533.75 L294.62 532.04 L292.52 530.25 L291.75 528.24 L284.20 527.07 L282.89 525.03 L282.69 522.85 L283.30 520.60 L285.29 518.25 L287.74 515.90 L291.43 513.53 L291.96 511.41 L288.00 509.50 L289.16 507.34 L290.45 505.19 L288.04 503.13 L282.43 501.04 L280.73 498.85 L280.58 496.66 L281.71 494.49 L282.09 492.32 L282.51 490.16 L282.99 488.00 L283.31 485.85 L284.98 483.80 L286.14 481.73 L286.38 479.60 L281.91 476.97 L286.06 475.24 L288.43 473.37 L289.14 471.31 L286.55 468.78 L283.26 466.08 L284.44 464.06 L287.36 462.36 L286.35 459.97 L280.47 456.59 L284.89 455.22 L287.33 453.51 L287.54 451.32 L290.21 449.72 L292.26 448.01 L287.05 444.44 L287.13 442.18 L293.32 441.64 L292.77 439.24 L291.78 436.68 L293.93 435.07 L298.92 434.43 L299.13 432.27 L297.52 429.46 L299.89 428.03 L297.91 425.03 L291.87 420.41 L294.09 418.90 L299.62 418.75 L298.47 415.93 L297.80 413.26 L300.05 411.85 L302.30 410.47 L303.08 408.44 L304.12 406.53 L305.10 404.59 L299.65 399.43 L298.97 396.56 L304.35 396.84 L307.96 396.28 L306.56 393.01 L306.80 390.61 L309.94 389.86 L311.10 387.99 L312.47 386.26 L312.01 383.39 L315.79 383.16 L313.39 379.01 L314.29 376.94 L311.90 372.63 L316.38 372.96 L317.15 370.78 L315.50 366.83 L315.67 364.12 L319.82 364.38 L321.40 362.75 L322.16 360.48 L326.33 360.92 L325.80 357.62 L324.78 353.84 L328.92 354.37 L331.57 353.69 L330.58 349.83 L332.80 348.79 L337.53 350.09 L339.14 348.57 L340.44 346.76 L341.05 344.25 L343.52 343.58 L340.64 337.48 L340.08 333.61 L344.79 335.24 L346.73 334.01 L346.62 330.52 L348.59 329.30 L352.25 330.03 L352.59 326.96 L356.57 328.18 L357.67 325.99 L357.98 322.78 L355.82 316.35 L359.30 317.04 L363.88 319.28 L365.30 317.40 L365.54 313.87 L368.02 313.39 L372.52 315.88 L374.41 314.67 L377.21 314.84 L378.75 313.13 L380.77 312.16 L383.12 311.73 L385.67 311.66 L387.60 310.59 L390.32 310.90 L391.84 309.15 L392.90 306.52 L396.68 308.86 L399.09 308.79 L399.00 303.88 L399.36 299.69 L402.71 301.43 L403.76 298.50 L405.08 296.04 L405.62 291.78 L408.08 291.71 L410.41 291.35 L412.71 290.95 L414.41 289.13 L416.65 288.60 L417.91 285.54 L420.87 286.93 L422.70 285.30 L423.76 281.39 L425.92 280.55 L428.53 281.08 L430.19 278.69 L432.53 278.43 L434.88 278.21 L436.68 276.08 L438.92 275.45 L440.28 271.43 L443.35 273.97 L445.55 273.16 L447.58 271.57 L449.87 271.06 L452.60 272.69 L454.84 272.03 L457.34 272.75 L459.81 273.45 L461.92 272.12 L464.60 274.28 L466.70 272.85 L469.09 273.40 L471.42 273.63 L473.77 274.09 L475.79 271.50 L477.93 269.79 L480.33 270.65 L482.46 268.34 L484.66 266.43 L486.88 264.21 L489.26 264.57 L491.53 261.96 L493.96 263.99 L496.31 262.81 L498.67 261.55 L501.05 262.84 L503.42 263.11 L505.77 263.74 L508.06 266.05 L510.31 268.18 L512.71 266.64 L515.05 266.79 L517.34 267.48 L519.45 270.18 L521.86 269.20 L524.51 266.14 L526.47 269.72 L528.67 270.81 L531.34 268.29 L533.82 267.50 L535.48 272.06 L537.90 271.57 L540.60 269.60 L543.55 266.54 L545.05 271.21 L546.14 277.44 L549.36 273.34 L553.58 265.26 L555.83 266.22 L556.93 271.75 L559.83 269.95 L563.93 263.89 L565.87 266.04 L567.26 269.92 L568.92 272.71 L570.70 274.97 L572.04 278.48 L574.77 277.69 L577.66 276.51 L579.88 277.32 L582.12 278.07 L584.97 277.26 L586.85 278.99 L588.69 280.76 L591.74 279.59 L593.46 281.66 L594.47 285.25 L597.09 285.14 L600.38 283.65 L602.87 283.97 L604.50 286.09 L606.47 287.47 L608.51 288.71 L611.47 288.17 L613.26 289.90 L616.25 289.43 L617.18 292.66 L620.49 291.70 L623.56 291.23 L625.31 293.03 L627.30 294.41 L630.34 294.13 L632.08 295.92 L633.49 298.20 L636.69 297.79 L638.87 298.93 L643.14 297.12 L643.02 301.53 L645.63 302.11 L648.54 302.33 L650.01 304.47 L650.93 307.29 L652.79 308.88 L653.67 311.68 L655.00 313.88 L657.72 314.42 L657.28 318.65 L659.43 319.84 L661.28 321.38 L662.43 323.69 L663.71 325.82 L666.81 326.04 L669.86 326.38 L669.97 329.70 L673.14 329.95 L675.33 331.22 L678.44 331.63 L680.08 333.46 L683.07 334.05 L683.10 337.33 L686.11 337.96 L689.42 338.38 L689.81 341.30 L690.78 343.70 L691.56 346.24 L691.45 349.45 L692.17 351.97 L695.26 352.68 L696.98 354.45 L697.97 356.76 L699.15 358.91 L703.90 358.59 L706.68 359.70 L705.06 363.78 L708.29 364.61 L709.28 366.93 L710.34 369.19 L711.59 371.33 L714.60 372.42 L717.33 373.72 L718.37 376.02 L717.86 379.17 L721.58 379.99 L723.44 381.86 L722.06 385.42 L722.82 387.83 L723.73 390.16 L724.03 392.78 L725.94 394.63 L725.68 397.49 L727.02 399.60 L727.47 402.12 L728.33 404.44 L728.01 407.24 L730.75 408.80 L730.96 411.38 L731.00 414.01 L731.68 416.38 L733.34 418.41 L735.46 420.30 L734.64 423.19 L736.83 425.08 L737.24 427.55 L739.76 429.40 L739.19 432.16 L742.28 433.89 L742.03 436.56 L743.48 438.77 L745.38 440.89 L744.94 443.59 L745.48 446.04 L746.59 448.38 L749.41 450.38 L745.20 453.77 L746.62 456.05 L747.78 458.39 L748.41 460.84 L749.72 463.19 L751.30 465.52 L752.28 467.95 L752.26 470.51 L754.20 472.86 L752.69 475.57 L753.76 478.03 L751.49 480.76 L751.87 483.26 L752.10 485.77 L751.81 488.31 L753.89 490.76 L752.99 493.33 L755.42 495.82 L753.27 498.39 L754.69 500.92 L755.06 503.48 L755.16 506.03 L752.26 508.49 L752.76 511.03 L754.18 513.64 L753.40 516.15 L754.21 518.75 L752.65 521.18 L755.05 523.95 L753.63 526.38 L754.63 529.06 L754.18 531.58 L753.92 534.13 L752.09 536.46 L751.87 539.00 L753.74 541.89 L751.90 544.18 L753.34 547.05 L751.45 549.31 L753.07 552.26 L750.71 554.39 L752.47 557.42 L751.17 559.77 L748.86 561.86 L747.04 564.04 L748.58 567.09 L749.74 570.09 L747.16 572.04 L749.22 575.36 L747.71 577.61 L748.50 580.60 L747.28 582.94 L746.94 585.59 L746.91 588.35 L742.48 589.51 L741.63 591.95 L740.80 594.41 L741.21 597.36 L739.34 599.40 L739.56 602.31 L739.29 605.04 L737.79 607.23 L736.65 609.57 L736.31 612.30 L737.22 615.65 L731.90 615.95 L730.71 618.25 L729.47 620.53 L730.01 623.76 L727.37 625.29 L726.23 627.62 L725.74 630.34 L724.99 632.93 L724.30 635.56 L722.21 637.35 L722.74 640.78 L719.21 641.63 L718.81 644.50 L717.14 646.53 L717.32 649.83 L716.38 652.40 L714.06 654.00 L714.17 657.35 L711.69 658.81 L711.51 662.01 L708.65 663.15 L707.60 665.70 L702.89 665.29 L702.97 668.76 L701.81 671.23 L699.53 672.77 L699.32 676.10 L697.64 678.17 L697.16 681.34 L694.21 682.25 L693.86 685.60 L691.12 686.68 L689.14 688.47 L685.41 688.49 L684.26 691.11 L683.77 694.45 L680.99 695.39 L680.91 699.26 L677.39 699.35 L677.48 703.52 L673.69 703.24 L672.70 706.22 L669.98 707.15 L667.45 708.28 L663.54 707.63 L661.84 709.75 L660.58 712.47 L657.92 713.36 L656.32 715.68 L653.53 716.35 L652.90 720.09 L649.93 720.49 L648.24 722.76 L646.20 724.54 L643.89 725.89 L641.46 727.07 L638.81 727.85 L638.11 731.89 L635.46 732.70 L634.13 735.81 L631.28 736.27 L629.85 739.30 L627.03 739.80 L624.85 741.48 L622.85 743.56 L618.65 741.20 L616.31 742.54 L614.14 744.24 L612.49 747.12 L609.57 747.25 L607.88 750.15 L605.34 751.13 L603.26 753.26 L600.98 754.91 L598.27 755.52 L596.27 757.97 L592.09 754.51 L590.05 756.87 L587.33 757.33 L585.27 759.77 L582.56 760.27 L580.00 761.24 L577.69 763.05 L575.03 763.72 L572.74 765.75 L569.86 765.64 L567.71 768.35 L563.77 763.83 L561.52 766.13 L558.85 766.71 L556.42 768.45 L553.62 768.42 L550.74 767.94 L548.39 770.27 L545.71 770.87 L543.26 772.97 L540.31 771.94 L537.84 774.13 L534.59 770.50 L532.04 772.17 L529.45 773.72 L526.68 773.76 L524.07 775.47 L521.14 773.36 L518.60 776.50 L515.77 775.63 L513.12 777.87 L510.28 776.47 L507.52 776.84 L504.70 773.61 L501.98 776.28 L499.21 777.46 L496.46 775.64 L493.66 777.66 L490.91 776.82 L488.03 779.30 L485.34 777.15 L482.44 779.05 L479.74 777.62 L476.99 777.11 L474.45 774.48 L471.62 774.96 L468.54 777.65 L466.01 775.35 L462.95 777.28 L460.51 774.59 L457.20 777.85 L454.66 776.00 L451.68 776.78 L448.87 776.53 L446.50 773.98 L444.03 772.13 L441.25 771.86 L437.89 774.11 L435.65 771.36 L432.59 772.13 L430.20 770.16 L426.75 772.25 L424.18 770.96 L421.38 770.52 L418.36 770.77 L416.54 767.11 L413.83 766.41 L411.29 765.16 L407.72 766.93 L405.64 764.37 L402.75 764.10 L400.10 763.15 L396.95 763.48 L393.97 763.29 L391.73 761.28 L388.31 762.09 L387.48 756.90 L384.32 757.07 L381.61 756.22 L378.61 755.97 L376.74 753.33 L373.44 753.64 L371.03 752.12 L368.19 751.44 L364.97 751.45 L363.05 749.00 L359.24 749.99 L359.16 744.37 L355.88 744.38 L353.58 742.71 L350.48 742.33 L348.27 740.50 L346.18 738.49 L342.64 738.70 L340.37 736.96 L337.07 736.71 L335.26 734.29 L331.84 734.15 L332.22 728.75 L329.30 727.92 L326.16 727.34 L324.03 725.41 L321.39 724.14 L320.29 720.95 L316.36 721.23 L314.73 718.70 L311.28 718.30 L309.95 715.45 L307.23 714.18 L307.39 709.75 L304.52 708.64 L300.89 708.30 L299.74 705.36 L296.02 705.03 L295.98 701.01 L291.15 701.69 L290.64 698.18 L287.06 697.57 L286.19 694.43 L284.77 691.83 L284.69 688.07 L280.88 687.57 L278.10 686.13 L277.87 682.57 L274.12 681.90 L273.11 679.00 L269.05 678.49 L268.85 674.98 L265.75 673.67 L264.24 671.16 L263.88 667.85 L263.49 664.59 L261.47 662.47 L257.35 661.75 L257.55 658.14 L254.34 656.75 L253.88 653.61 L250.13 652.50 L248.99 649.77 L247.04 647.52 L244.29 645.72 L245.85 641.48 L244.63 638.83 L243.42 636.19 L239.73 634.83 L240.18 631.32 L238.08 629.10 L236.94 626.41 L234.07 624.54 L232.58 621.99 L231.73 619.15 L228.49 617.35 L231.25 612.98 L229.20 610.67 L228.70 607.72 L225.21 605.94 L225.59 602.65 L224.33 599.99 L222.56 597.51 L221.01 594.93 L218.55 592.64 L218.93 589.40 L215.87 587.26 L219.83 582.99 L216.93 580.77 L216.02 577.97 L214.70 575.27 L214.69 572.23 L212.53 569.73 L211.77 566.87 L211.00 564.01 L208.74 561.46 L209.38 558.30 L206.75 555.78 L210.64 552.05 L208.43 549.44 L207.19 546.64 L206.72 543.71 L205.65 540.87 L206.62 537.75 L202.80 535.22 L201.52 532.35 L196.33 529.84 L195.23 526.88 L192.51 524.02 L191.48 521.00 L186.33 518.20 L185.99 515.07 L185.94 511.93 L186.06 508.78 L185.84 505.64 L186.35 502.50 L185.89 499.36 L186.24 496.22 L185.99 493.08 L186.26 489.95 L185.82 486.79 L186.35 483.66 L185.99 480.50 L186.61 477.39 L186.46 474.22 L186.94 471.11 L186.87 467.94 L187.56 464.85 L187.86 461.72 L188.57 458.64 L188.62 455.47 L189.26 452.39 L189.57 449.25 L190.30 446.19 L190.91 443.11 L191.59 440.04 L192.31 436.97 L193.34 433.98 L193.98 430.91 L194.76 427.88 L195.22 424.76 L195.95 421.70 L196.15 418.51 L196.52 415.34 L196.74 412.13 L197.50 409.06 L197.71 405.82 L198.27 402.67 L198.98 399.57 L200.40 396.70 L201.11 393.58 L202.17 390.60 L203.30 387.63 L205.24 384.98 L206.42 382.05 L207.92 379.24 L209.03 376.28 L210.54 373.49 L212.01 370.69 L213.57 367.93 L214.99 365.11 L216.42 362.30 L217.70 359.42 L219.31 356.70 L220.35 353.69 L221.54 350.74 L222.40 347.61 L223.65 344.68 L224.07 341.27 L225.32 338.31 L226.26 335.16 L227.31 332.05 L228.51 329.02 L230.14 326.25 L231.55 323.34 L233.28 320.63 L235.04 317.94 L237.06 315.43 L238.74 312.68 L240.86 310.25 L242.64 307.57 L244.61 305.03 L246.54 302.46 L248.75 300.12 L250.48 297.38 L252.71 295.05 L254.36 292.24 L256.64 289.96 L258.40 287.23 L260.60 284.88 L262.25 282.02 L264.90 280.09 L268.45 279.02 L273.89 279.85 L278.46 279.95 L281.63 278.71 L285.87 278.62 L291.27 279.84 L292.96 277.21 L294.30 274.15 L295.06 270.42 L298.40 269.56 L298.05 264.45 L299.64 261.53 L300.02 257.08 L302.00 254.53 L304.20 252.22 L308.05 252.04 L308.55 247.51 L310.52 244.85 L315.16 245.82 L318.38 244.93 L321.67 244.18 L325.41 244.13 L327.79 242.11 L329.74 239.42 L331.17 235.88 L335.22 236.44 L337.45 234.13 L337.53 228.20 L340.37 226.78 L344.64 227.88 L346.32 224.46 L349.30 223.33 L352.46 222.56 L354.60 219.86 L356.78 217.19 L357.53 211.54 L362.08 213.59 L365.11 212.54 L366.95 208.94 L369.88 207.66 L373.87 208.82 L377.00 208.06 L380.35 207.88 L383.67 207.69 L385.97 204.91 L390.21 207.21 L393.01 205.78 L396.49 206.22 L399.20 204.53 L402.90 205.76 L404.98 202.10 L407.45 199.48 L410.63 199.15 L413.15 196.57 L415.54 193.33 L417.86 189.68 L420.96 188.86 L423.13 184.19 L427.12 187.01 L429.97 185.00 L432.77 182.66 L436.15 183.00 L439.67 184.22 L442.85 183.72 L446.48 185.90 L449.91 187.15 L452.71 184.43 L455.75 183.17 L458.82 181.97 L462.28 183.92 L465.06 180.05 L467.97 176.76 L471.41 178.74 L474.53 177.25 L477.75 176.85 L481.01 177.14 L484.28 177.88 L487.41 175.38 L490.69 176.23 L493.89 174.36 L497.16 176.18 L500.40 174.06 L503.68 172.62 L506.90 175.25 L510.15 175.37 L513.38 175.66 L516.59 176.42 L519.78 177.46 L522.99 177.81 L526.07 179.78 L529.26 180.23 L532.43 180.82 L535.50 182.22 L538.78 181.72 L542.13 180.84 L545.44 180.40 L548.64 180.86 L552.21 179.01 L555.48 179.16 L558.94 178.36 L562.21 178.70 L565.57 178.61 L568.52 180.45 L572.00 179.90 L575.17 180.72 L578.44 181.20 L581.39 182.88 L584.19 185.09 L586.94 187.36 L590.57 186.51 L593.72 187.35 L597.39 186.55 L599.78 189.84 L603.23 189.79 L607.43 187.63 L610.58 188.62 L613.29 190.83 L616.97 190.41 L620.22 191.17 L622.94 193.31 L626.17 194.14 L628.92 196.12 L632.99 195.05 L634.67 199.43 L637.69 200.75 L640.65 202.20 L643.96 202.91 L646.36 205.52 L649.25 207.09 L651.82 209.26 L654.83 210.59 L657.93 211.77 L659.87 215.02 L662.61 216.82 L665.70 217.99 L668.47 219.74 L670.86 222.10 L674.57 222.32 L677.99 223.07 L680.45 225.32 L683.99 225.95 L687.72 226.34 L691.22 227.12 L693.73 229.35 L697.79 229.44 L699.60 232.61 L702.75 233.99 L705.92 235.36 L708.26 237.80 L710.45 240.41 L712.74 242.89 L714.12 246.43 L716.01 249.32 L719.18 250.72 L722.05 252.49 L724.62 254.61 L726.50 257.47 L730.91 257.66 L734.80 258.45 L735.86 262.17 L739.02 263.76 L741.01 266.51 L743.51 268.76 L745.42 271.57 L748.82 273.01 L750.62 275.92 L753.66 277.72 L755.00 281.02 L758.32 282.62 L761.10 284.70 L761.72 288.55 L763.61 291.35 L765.22 294.35 L767.32 296.97 L769.23 299.73 L770.92 302.65 L771.01 306.70 L772.97 309.40 L775.09 311.98 L775.68 315.59 L778.92 317.44 L782.25 319.26 L784.32 321.92 L786.75 324.37 L790.52 326.03 L793.19 328.39 L794.88 331.34 L798.61 333.15 L798.59 337.05 L799.96 340.17 L802.54 342.66 L804.61 345.44 L805.16 348.98 L806.51 352.11 L806.86 355.70 L806.97 359.38 L809.65 361.88 L810.85 365.06 L814.27 367.29 L812.62 371.66 L815.99 373.95 L819.27 376.33 L820.51 379.52 L820.53 383.16 L823.21 385.83 L823.57 389.33 L824.00 392.79 L826.12 395.69 L826.92 399.03 L830.50 401.53 L828.64 405.65 L830.66 408.65 L831.59 411.95 L832.82 415.18 L832.33 418.83 L833.61 422.04 L833.09 425.67 L833.80 429.01 L834.91 432.27 L832.98 436.11 L833.57 439.45 L834.34 442.76 L833.93 446.26 L834.12 449.65 L835.70 452.85 L838.04 455.96 L837.04 459.51 L840.15 462.58 L841.49 465.89 L843.61 469.15 L843.31 472.63 L844.98 475.97 L843.53 479.52 L844.53 482.91 L846.59 486.28 L843.82 489.84 L843.89 493.27 L842.84 496.72 L841.37 500.15 L839.93 503.55 L842.05 506.99 L842.31 510.42 L841.80 513.83 L840.89 517.21 L844.40 520.84 L845.64 524.39 L842.37 527.60 L843.87 531.19 L842.96 534.56 L842.36 537.97 L841.66 541.35 L843.05 545.00 L843.67 548.59 L842.72 551.95 L841.38 555.25 L842.69 558.98 L843.30 562.63 L840.02 565.55 L839.50 568.98 L838.33 572.27 L838.22 575.79 L837.96 579.29 L836.41 582.48 L834.52 585.58 L833.40 588.85 L833.31 592.40 L830.34 595.15 L831.89 599.20 L832.60 603.05 L831.44 606.33 L831.43 610.00 L832.43 614.03 L833.70 618.21 L832.75 621.63 L835.26 626.36 L830.82 628.48 L829.75 631.87 L829.88 635.77 L828.79 639.18 L825.19 641.51 L823.36 644.57 L819.93 646.90 L816.93 649.38 L817.26 653.43 L815.94 656.71 L816.03 660.71 L811.28 662.23 L812.44 666.83 L813.07 671.21 L810.34 673.77 L808.12 676.60 L807.58 680.40 L805.01 683.01 L802.41 685.59 L802.56 689.88 L800.76 692.97 L801.36 697.63 L796.86 698.96 L796.05 702.73 L795.51 706.73 L792.13 708.75 L788.97 710.89 L786.54 713.54 L783.40 715.64 L780.38 717.81 L778.51 720.85 L773.26 721.17 L771.25 724.07 L768.67 726.50 L765.05 728.02 L763.25 731.09 L761.84 734.54 L761.09 738.61 L757.53 740.13 L758.04 745.47 L756.30 748.75 L756.00 753.48 L753.51 756.08 L751.67 759.36 L747.52 760.24 L746.63 764.56 L745.07 768.20 L740.23 768.25 L736.80 769.80 L733.42 771.38 L729.50 772.28 L726.56 774.31 L724.70 777.67 L722.79 781.00 L718.93 781.88 L716.18 784.17 L716.01 789.92 L713.41 792.48 L708.75 792.18 L706.91 795.82 L703.59 797.37 L700.35 799.00 L697.71 801.53 L695.32 804.49 L693.99 809.18 L689.48 808.81 L686.27 810.50 L684.29 814.28 L681.13 816.09 L676.86 815.92 L673.44 817.21 L669.93 818.31 L667.08 820.65 L666.18 826.86 L663.57 829.85 L660.90 832.79 L658.32 835.98 L657.63 843.38 L654.54 845.74 L650.97 847.02 L647.39 848.26 L643.77 849.41 L639.92 849.95 L635.89 849.98 L631.79 849.75 L627.84 849.82 L624.16 850.61 L620.27 850.73 L616.46 851.02 L612.87 851.92 L609.67 854.08 L605.97 854.66 L602.69 856.64 L598.84 856.63 L595.31 857.79 L591.91 859.43 L588.39 860.63 L584.84 861.75 L581.10 862.07 L577.84 864.55 L574.11 864.93 L570.58 866.31 L566.83 866.53 L563.30 867.98 L559.53 868.04 L555.89 868.94 L552.02 868.24 L548.34 868.71 L544.58 868.59 L540.81 868.28 L537.05 868.00 L533.32 867.72 L529.62 867.84 L525.96 868.35 L522.25 868.23 L518.59 868.89 L514.93 869.81 L511.28 871.39 L507.54 870.62 L503.86 872.42 L500.13 872.82 L496.39 873.82 L492.66 873.62 L488.90 874.25 L485.15 874.25 L481.39 874.52 L477.67 873.96 L473.95 873.39 L470.28 872.30 L466.53 872.40 L462.80 872.06 L459.05 871.95 L455.44 870.63 L451.53 871.77 L447.89 870.75 L444.01 871.33 L440.51 869.47 L436.70 869.51 L433.07 868.54 L429.13 869.23 L425.60 867.71 L421.87 867.21 L418.10 866.86 L414.14 867.29 L410.35 866.90 L406.69 865.95 L402.92 865.47 L399.30 864.36 L395.62 863.48 L392.19 861.73 L388.82 859.86 L385.22 858.75 L382.01 856.46 L378.35 855.58 L375.38 852.70 L371.45 852.54 L368.55 849.61 L364.40 849.96 L361.49 847.13 L357.37 847.34 L354.80 843.76 L351.70 841.53 L348.65 839.24 L345.30 837.62 L342.65 834.55 L339.91 831.70 L335.88 831.56 L332.12 830.78 L328.79 829.15 L324.49 829.33 L320.62 828.62 L316.64 828.07 L313.49 826.01 L308.75 826.68 L306.52 823.03 L303.17 821.30 L299.65 819.82 L296.35 817.97 L294.00 814.67 L291.74 811.29 L288.55 809.30 L285.94 806.50 L282.62 804.71 L278.80 803.60 L275.64 801.56 L273.65 797.97 L268.89 798.00 L264.56 797.39 L263.29 792.93 L259.92 791.10 L256.53 789.26 L253.21 787.33 L251.36 783.69 L247.11 782.78 L244.56 779.95 L240.30 778.96 L239.04 774.76 L235.67 772.79 L231.95 771.15 L230.02 767.70 L228.75 763.63 L226.40 760.64 L223.35 758.32 L221.04 755.30 L219.84 751.30 L217.98 747.92 L215.77 744.88 L213.03 742.28 L211.47 738.69 L208.15 736.56 L205.18 734.12 L202.18 731.69 L199.20 729.22 L194.89 727.71 L192.15 725.00 L189.24 722.39 L185.77 720.16 L183.68 716.94 L182.61 713.04 L179.86 710.27 L176.75 707.72 L175.87 703.74 L175.47 699.49 L173.43 696.26 L172.55 692.36 L169.53 689.72 L168.48 685.94 L163.39 684.39 L164.52 679.44 L161.42 676.76 L157.29 674.58 L155.38 671.24 L156.04 666.64 L152.84 663.93 L151.11 660.49 L149.80 656.87 L147.56 653.66 L145.95 650.17 L141.59 647.81 L141.95 643.49 L140.35 639.97 L138.86 636.41 L136.37 633.21 L136.77 628.96 L137.23 624.72 L134.46 621.60 L131.69 618.45 L126.68 615.95 L124.85 612.42 L121.36 609.35 L116.95 606.49 L109.85 604.27 L108.97 600.33 L108.00 596.41 L107.37 592.41 L106.44 588.48 L105.67 584.52 L105.22 580.50 L104.65 576.51 L104.09 572.51 L103.37 568.55 L103.31 564.48 L103.25 560.43 L102.86 556.43 L102.56 552.43 L103.11 548.32 L103.68 544.23 L103.75 540.22 L103.59 536.23 L104.17 532.19 L104.10 528.22 L103.05 524.30 L103.13 520.32 L103.53 516.32 L102.70 512.38 L102.81 508.40 L103.17 504.42 L102.51 500.46 L103.03 496.49 L103.48 492.52 L104.86 488.60 L103.73 484.60 L103.69 480.62 L103.72 476.65 L105.14 472.77 L105.06 468.79 L105.55 464.86 L104.92 460.82 L105.37 456.87 L105.99 452.95 L107.60 449.16 L106.08 444.95 L105.02 440.77 L106.52 436.96 L108.37 433.24 L106.82 428.92 L106.18 424.73 L107.65 420.94 L108.90 417.11 L108.91 413.02 L109.32 409.00 L110.36 405.12 L111.05 401.16 L112.36 397.36 L113.40 393.48 L114.99 389.77 L116.24 385.96 L117.51 382.16 L118.20 378.18 L120.38 374.68 L121.87 370.97 L122.83 367.07 L122.75 362.79 L124.90 359.30 L126.18 355.50 L128.55 352.13 L129.82 348.33 L132.04 344.93 L133.23 341.09 L134.32 337.20 L135.53 333.35 L137.12 329.67 L137.31 325.32 L137.78 321.05 L139.25 317.27 L141.60 313.93 L142.13 309.64 L143.45 305.75 L145.99 302.52 L148.48 299.27 L149.77 295.33 L150.98 291.33 L153.35 288.01 L156.00 284.88 L158.23 281.49 L159.87 277.71 L162.45 274.55 L165.48 271.71 L168.70 269.01 L169.71 264.77 L172.81 262.02 L175.39 258.89 L177.88 255.71 L179.47 251.83 L182.13 248.76 L184.53 245.49 L186.90 242.19 L190.51 239.93 L193.37 237.05 L195.07 233.18 L196.75 229.25 L200.30 226.98 L201.85 222.89 L203.58 218.92 L206.18 215.75 L209.17 212.96 L210.53 208.52 L213.35 205.53 L216.84 203.24 L220.00 200.61 L222.37 197.13 L225.18 194.11 L229.00 192.22 L232.57 190.08 L235.70 187.45 L238.24 184.10 L241.70 181.85 L244.47 178.75 L247.13 175.48 L249.37 171.64 L252.39 168.78 L254.83 165.11 L257.96 162.35 L261.03 159.50 L264.74 157.55 L267.90 154.81 L271.77 153.13 L275.45 151.17 L279.24 149.39 L282.45 146.71 L285.61 143.91 L289.75 142.75 L293.37 140.73 L296.25 137.40 L299.85 135.32 L304.15 134.53 L308.04 133.02 L311.13 129.96 L314.96 128.33 L319.41 128.01 L323.03 125.99 L326.46 123.53 L329.96 121.22 L334.51 121.25 L338.79 120.76 L342.73 119.50 L346.54 117.94 L350.59 117.01 L354.61 116.01 L358.62 115.02 L362.25 112.99 L366.15 111.69 L369.94 110.08 L373.51 107.75 L377.79 107.63 L382.14 107.82 L385.81 105.79 L389.22 102.72 L393.52 102.83 L397.54 101.95 L401.08 99.15 L404.71 96.57 L409.00 96.76 L412.74 94.49 L416.44 91.86 L420.62 91.54 L425.02 92.47 L428.76 89.78 L432.57 87.29 L436.84 87.55 L441.10 87.82 L444.99 85.54 L449.03 84.07 L453.15 83.25 L457.34 82.97 L461.57 83.16 L465.80 83.61 L469.96 83.14 L474.15 83.29 L478.36 83.82 L482.50 83.15 L486.70 83.80 L490.88 84.45 L495.04 84.84 L499.19 84.10 L503.34 85.16 L507.48 85.70 L511.63 85.73 L515.84 83.95 L519.99 84.42 L524.24 82.85 L528.56 80.98 L532.83 80.23 L536.99 80.99 L541.33 79.88 L545.61 79.50 L549.79 80.23 L553.80 82.14 L558.20 81.14 L562.53 80.78 L566.69 81.59 L570.75 82.96 L575.10 82.69 L579.38 82.90 L583.51 83.85 L587.53 85.38 L591.55 86.82 L595.63 87.98 L599.64 89.37 L603.55 91.14 L607.27 93.58 L611.45 94.22 L615.49 95.42 L619.38 97.10 L623.27 98.75 L627.67 98.75 L631.80 99.69 L635.92 100.66 L640.38 100.67 L644.37 102.09 L648.59 102.90 L652.88 103.56 L657.33 103.87 L661.29 105.43 L665.71 105.93 L670.04 106.68 L674.74 106.66 L678.07 109.74 L681.97 111.52 L686.22 112.58 L690.25 114.11 L693.76 116.71 L697.64 118.55 L701.76 119.96 L705.65 121.82 L709.70 123.38 L713.78 124.94 L717.80 126.62 L721.82 128.30 L725.54 130.53 L729.80 131.88 L733.82 133.64 L737.59 135.82 L741.02 138.51 L745.08 140.26 L748.68 142.71 L752.16 145.33 L755.90 147.58 L759.40 150.17 L762.97 152.68 L766.37 155.40 L770.06 157.76 L773.32 160.66 L776.83 163.25 L780.07 166.17 L783.40 168.99 L786.48 172.08 L789.11 175.68 L791.76 179.21 L795.04 182.06 L798.01 185.23 L801.38 187.99 L804.31 191.19 L807.77 193.86 L810.55 197.21 L814.87 199.09 L817.82 202.29 L820.49 205.75 L823.26 209.11 L826.44 212.10 L828.71 215.89 L830.42 220.14 L832.25 224.25 L833.55 228.76 L835.82 232.45 L836.55 237.32 L837.90 241.66 L840.03 245.38 L843.32 248.24 L845.22 252.12 L847.79 255.50 L850.41 258.86 L855.36 260.65 L860.74 262.24 L863.78 265.42 L867.14 268.42 L873.06 269.87 L878.67 271.60 L881.74 274.93 L884.96 278.18 L887.30 281.96 L889.48 285.84 L891.63 289.73 L893.82 293.60 L895.95 297.50 L897.71 301.60 L899.22 305.80 L901.22 309.77 L902.92 313.87 L904.46 318.05 L905.54 322.41 L907.14 326.55 L908.70 330.69 L909.14 335.28 L908.42 340.30 L908.95 344.79 L910.20 348.99 L911.50 353.17 L911.45 357.81 L912.59 362.01 L914.41 366.00 L914.93 370.40 L914.04 375.21 L916.23 379.08 L919.21 382.74 L921.04 386.76 L920.18 391.48 L923.98 395.01 L928.41 398.45 L929.91 402.62 L929.36 407.25 L931.66 411.27 L933.35 415.43 L932.70 420.04 L932.59 424.52 L934.32 428.69 L936.61 432.79 L937.62 437.11 L939.78 441.28 L941.11 445.58 L943.42 449.80 L945.14 454.10 L948.04 458.33 L949.59 462.72 L950.25 467.19 L950.96 471.67 L951.70 476.15 L952.33 480.65 L952.56 485.18 L953.10 489.69 L953.61 494.22 L953.73 498.76 L959.51 500.00 L958.88 495.41 L958.79 490.82 L958.96 486.23 L958.99 481.63 L959.40 477.01 L959.48 472.40 L959.44 467.79 L959.41 463.17 L960.81 458.41 L962.54 453.59 L963.70 448.79 L963.71 444.09 L962.52 439.53 L962.83 434.78 L962.60 430.08 L963.37 425.22 L963.50 420.44 L961.20 416.08 L958.89 411.75 L959.12 406.93 L959.38 402.09 L955.63 398.11 L952.14 394.13 L952.93 389.16 L953.48 384.21 L952.21 379.70 L950.58 375.30 L951.54 370.16 L951.49 365.27 L947.65 361.52 L944.60 357.58 L944.07 352.84 L942.32 348.50 L938.89 344.75 L936.24 340.76 L935.24 336.18 L933.47 331.87 L930.82 327.93 L927.46 324.29 L924.72 320.43 L922.77 316.25 L920.34 312.29 L917.11 308.70 L914.57 304.83 L912.35 300.81 L909.59 297.07 L906.35 293.59 L903.63 289.86 L901.50 285.84 L898.91 282.07 L896.30 278.33 L893.98 274.42 L892.68 269.92 L891.37 265.40 L891.02 260.27 L892.56 253.89 L891.70 248.93 L889.15 245.04 L888.70 239.75 L887.87 234.64 L884.43 231.31 L880.45 228.39 L876.80 225.27 L875.39 220.51 L872.00 217.21 L868.07 214.34 L864.62 211.13 L862.42 206.93 L858.38 204.21 L854.90 201.07 L850.60 198.65 L846.45 196.14 L843.47 192.62 L841.83 187.88 L837.16 185.90 L833.86 182.68 L831.83 178.23 L827.70 175.81 L823.34 173.67 L819.83 170.69 L815.83 168.24 L811.94 165.69 L807.54 163.72 L803.08 161.87 L799.20 159.41 L795.96 156.23 L792.15 153.71 L788.56 150.94 L784.91 148.24 L781.21 145.63 L777.53 142.99 L773.92 140.27 L770.38 137.46 L766.04 135.73 L762.21 133.33 L758.78 130.37 L755.16 127.68 L751.08 125.66 L747.33 123.15 L743.64 120.56 L739.99 117.88 L736.18 115.48 L732.77 112.39 L728.69 110.40 L724.62 108.42 L720.81 105.98 L717.34 102.92 L713.30 100.87 L708.98 99.37 L704.95 97.32 L701.04 95.04 L697.18 92.63 L693.05 90.79 L689.01 88.73 L684.81 87.04 L680.87 84.76 L676.89 82.55 L672.59 81.08 L668.04 80.26 L664.06 78.01 L659.86 76.33 L655.60 74.79 L650.97 74.28 L647.38 70.84 L643.11 69.30 L638.85 67.74 L634.43 66.63 L630.00 65.63 L625.49 64.90 L621.18 63.50 L616.94 61.81 L612.46 61.02 L608.02 60.13 L603.38 60.04 L599.13 58.34 L594.80 56.97 L590.22 56.75 L585.49 57.37 L581.05 56.62 L576.53 56.30 L572.04 55.83 L567.53 55.61 L563.24 53.81 L558.95 51.90 L554.29 52.72 L549.67 53.54 L545.34 51.67 L540.95 50.28 L536.30 51.74 L531.76 52.19 L527.29 51.63 L522.84 50.73 L518.31 51.37 L513.85 50.45 L509.37 49.44 L504.85 50.37 L500.36 51.93 L495.87 50.75 L491.37 50.44 L486.86 50.17 L482.37 50.45 L477.82 49.60 L473.33 50.07 L468.85 50.54 L464.34 50.66 L459.84 51.01 L455.61 54.02 L451.23 55.19 L446.73 55.25 L442.29 55.86 L437.69 55.24 L433.28 56.18 L428.98 57.69 L424.64 58.89 L420.11 58.97 L415.89 60.75 L411.69 62.57 L407.55 64.53 L403.23 65.63 L398.72 65.90 L394.23 66.27 L389.64 66.35 L384.94 66.08 L381.12 69.13 L376.89 70.59 L372.15 70.32 L368.10 72.41 L364.17 74.82 L359.68 75.45 L355.15 76.01 L350.74 76.98 L346.18 77.56 L341.79 78.67 L337.53 80.13 L333.52 82.23 L329.60 84.52 L325.72 86.88 L321.70 88.88 L318.42 92.52 L314.91 95.56 L310.43 96.50 L306.17 97.92 L303.56 102.72 L300.11 105.72 L295.01 105.49 L291.70 108.72 L289.10 113.22 L284.93 114.79 L280.14 115.29 L276.39 117.67 L273.65 121.71 L269.00 122.55 L264.80 124.19 L261.54 127.32 L259.25 131.90 L255.78 134.62 L252.65 137.83 L249.91 141.57 L246.88 144.84 L242.46 146.19 L238.67 148.42 L235.62 151.65 L231.90 153.98 L227.08 154.95 L223.47 157.48 L220.82 161.19 L217.10 163.59 L213.72 166.39 L210.53 169.43 L207.52 172.66 L203.76 175.04 L201.41 178.97 L199.37 183.19 L196.00 185.99 L192.73 188.90 L189.04 191.39 L185.54 194.11 L183.14 197.88 L179.78 200.73 L174.99 202.29 L172.20 205.70 L169.24 208.97 L167.10 212.94 L164.78 216.74 L162.90 220.88 L160.05 224.20 L157.12 227.46 L153.67 230.32 L150.57 233.48 L147.79 236.89 L145.58 240.72 L142.96 244.25 L140.88 248.15 L139.13 252.27 L137.56 256.49 L136.24 260.85 L134.74 265.06 L131.94 268.43 L128.80 271.60 L126.74 275.45 L126.34 280.27 L124.70 284.32 L121.84 287.68 L120.45 291.87 L119.69 296.37 L117.08 299.87 L113.62 302.96 L112.95 307.47 L110.51 311.09 L107.02 314.23 L105.35 318.24 L104.80 322.76 L103.65 326.98 L101.62 330.82 L100.38 334.99 L99.14 339.15 L96.39 342.71 L94.22 346.52 L93.61 350.92 L91.87 354.90 L90.27 358.93 L88.89 363.04 L88.71 367.53 L88.20 371.90 L87.63 376.23 L86.46 380.37 L85.41 384.55 L83.18 388.41 L82.03 392.57 L81.78 396.95 L81.44 401.29 L79.14 405.18 L76.02 408.93 L76.35 413.42 L77.27 418.00 L76.30 422.20 L73.52 426.09 L74.02 430.56 L75.39 435.13 L74.53 439.35 L73.51 443.55 L73.46 447.88 L73.62 452.22 L72.91 456.46 L72.11 460.70 L71.99 465.00 L71.98 469.30 L71.60 473.58 L70.82 477.84 L71.14 482.15 L71.72 486.47 L72.24 490.76 L71.22 495.03 L72.65 499.32 L73.41 503.59 L74.10 507.84 L73.15 512.13 L73.34 516.39 L74.91 520.59 L76.21 524.78 L76.15 529.04 L77.11 533.23 L77.84 537.42 L79.67 541.50 L80.42 545.66 L81.38 549.80 L81.47 554.04 L83.42 558.03 L84.65 562.10 L85.94 566.14 L87.46 570.14 L89.16 574.09 L90.52 578.08 L91.93 582.04 L93.20 586.03 L94.32 590.04 L95.90 593.94 L97.31 597.87 L98.80 601.76 L100.10 605.70 L97.71 610.65 L94.95 615.78 L94.33 620.35 L95.08 624.55 L92.95 629.68 L92.81 634.22 L92.70 638.79 L95.11 642.50 L98.17 645.95 L100.19 649.76 L100.98 654.03 L102.20 658.15 L106.05 661.20 L105.25 666.16 L107.58 669.82 L108.35 674.15 L111.47 677.44 L113.19 681.35 L114.21 685.60 L116.65 689.17 L120.23 692.15 L120.58 696.76 L120.34 701.73 L125.38 703.88 L126.22 708.30 L127.93 712.25 L129.71 716.17 L133.15 719.10 L135.18 722.88 L138.84 725.63 L142.72 728.20 L144.30 732.23 L146.87 735.63 L149.32 739.10 L153.47 741.38 L153.67 746.42 L156.63 749.52 L158.61 753.34 L160.05 757.58 L161.48 761.87 L164.21 765.16 L166.80 768.57 L167.71 773.36 L171.99 775.39 L174.63 778.76 L178.71 780.89 L180.70 784.83 L185.98 785.81 L188.79 789.00 L192.50 791.34 L194.97 794.84 L199.33 796.50 L203.34 798.45 L205.69 802.07 L208.33 805.41 L212.38 807.27 L215.63 809.94 L218.01 813.59 L220.95 816.64 L224.71 818.73 L227.79 821.62 L230.84 824.54 L233.46 828.00 L239.05 827.77 L241.68 831.21 L243.30 836.01 L246.74 838.47 L251.37 839.30 L253.59 843.41 L257.20 845.63 L261.13 847.37 L264.88 849.35 L268.75 851.14 L273.28 851.87 L277.39 853.19 L280.45 856.18 L283.73 858.84 L288.56 858.91 L291.09 862.85 L295.18 864.13 L298.19 867.32 L302.03 869.03 L304.28 873.76 L308.30 875.17 L311.47 878.25 L315.15 880.35 L318.91 882.28 L323.72 881.97 L328.16 882.35 L331.97 884.09 L336.66 883.77 L341.25 883.60 L345.05 885.26 L349.22 886.01 L352.97 887.81 L357.11 888.57 L360.88 890.31 L365.35 890.06 L369.38 891.02 L373.62 891.32 L377.77 891.81 L381.78 892.72 L386.03 892.79 L389.87 894.26 L394.02 894.61 L397.80 896.28 L401.95 896.55 L405.81 897.99 L409.90 898.45 L413.50 901.12 L417.78 900.71 L421.79 901.51 L425.74 902.65 L429.68 903.84 L433.76 904.34 L437.93 904.14 L441.95 904.96 L446.04 905.20 L449.95 906.93 L454.12 906.49 L458.23 906.49 L462.42 905.64 L466.42 906.61 L470.55 906.17 L474.68 905.27 L478.76 905.15 L482.81 905.26 L486.86 905.49 L490.92 905.62 L494.98 905.15 L499.03 905.95 L503.09 905.34 L507.17 907.27 L511.21 905.81 L515.33 907.50 L519.38 906.71 L523.54 908.11 L527.51 906.23 L531.66 907.15 L535.56 904.87 L539.62 904.59 L543.48 902.46 L547.50 902.03 L551.40 900.57 L555.34 899.63 L559.17 897.96 L563.11 897.09 L567.01 896.05 L570.97 895.37 L574.87 894.37 L578.81 893.60 L582.64 892.34 L586.80 892.56 L590.67 891.44 L594.60 890.61 L598.21 888.49 L602.52 889.13 L605.98 886.51 L609.81 885.35 L613.48 883.61 L617.34 882.57 L621.04 881.01 L624.78 879.58 L628.46 877.98 L631.68 875.10 L635.16 873.03 L638.51 870.67 L641.62 867.74 L644.70 864.81 L647.99 862.49 L651.34 860.35 L654.66 858.17 L657.99 856.07 L661.27 853.87 L667.18 857.33 L671.87 857.97 L676.13 857.64 L679.71 855.88 L685.70 858.78 L689.64 857.59 L692.44 854.27 L695.86 852.12 L698.48 848.58 L701.34 845.52 L705.30 844.35 L709.24 843.11 L710.65 837.78 L715.92 838.64 L719.17 836.27 L723.46 835.48 L726.26 832.43 L728.85 829.11 L733.13 828.21 L735.10 824.07 L738.00 821.25 L743.00 821.24 L747.53 820.52 L747.91 814.45 L752.78 814.13 L755.70 811.32 L759.79 809.93 L761.45 805.65 L763.23 801.57 L765.50 798.11 L766.57 793.35 L769.57 790.75 L773.90 789.56 L775.85 785.84 L776.96 781.30 L781.82 780.57 L785.38 778.49 L789.31 776.73 L793.88 775.53 L796.75 772.70 L799.60 769.84 L803.55 767.95 L807.33 765.87 L807.88 761.00 L810.31 757.78 L812.21 754.12 L812.46 749.17 L813.88 745.21 L815.68 741.58 L817.22 737.76 L819.00 734.14 L820.25 730.18 L819.80 725.04 L823.09 722.55 L827.25 720.62 L827.36 715.97 L830.05 713.04 L832.14 709.71 L836.61 707.86 L837.75 703.92 L839.16 700.17 L840.89 696.62 L843.91 693.81 L842.84 688.72 L846.90 686.45 L851.66 684.50 L851.83 680.13 L853.44 676.51 L855.48 673.12 L858.91 670.36 L859.02 666.04 L858.25 661.35 L858.98 657.38 L859.08 653.17 L858.93 648.88 L861.75 645.82 L864.12 642.56 L862.46 637.75 L866.58 635.14 L867.61 631.36 L870.92 628.37 L873.92 625.24 L876.82 622.03 L877.04 617.95 L879.78 614.65 L882.66 611.36 L882.02 607.04 L883.27 603.27 L883.99 599.35 L885.23 595.57 L883.58 591.10 L885.40 587.47 L886.55 583.68 L885.83 579.49 L887.34 575.77 L885.56 571.43 L886.74 567.66 L887.71 563.84 L889.29 560.10 L886.17 555.67 L889.86 552.23 L890.07 548.29 L891.73 544.53 L891.32 540.52 L890.67 536.51 L892.72 532.74 L890.56 528.63 L890.19 524.69 L894.03 520.98 L894.94 517.07 L891.99 513.01 L893.97 509.14 L894.01 505.20 L894.48 501.26 L892.52 497.33 L890.88 493.43 L890.03 489.54 L887.66 485.72 L887.97 481.82 L889.27 477.86 L887.51 474.07 L886.42 470.26 L886.61 466.35 L886.85 462.43 L886.84 458.52 L889.15 454.33 L887.66 450.57 L888.06 446.57 L888.48 442.55 L888.47 438.58 L886.19 434.97 L885.19 431.17 L884.62 427.30 L880.15 424.20 L879.87 420.30 L878.42 416.64 L877.06 412.98 L875.54 409.37 L874.11 405.74 L870.78 402.63 L870.40 398.76 L870.60 394.71 L867.32 391.66 L867.33 387.65 L865.31 384.26 L865.50 380.17 L863.16 376.90 L860.91 373.63 L859.91 369.92 L859.17 366.11 L856.64 362.98 L856.78 358.81 L857.69 354.30 L853.77 351.75 L852.77 348.01 L851.60 344.32 L850.96 340.39 L847.76 337.63 L844.46 334.96 L842.44 331.69 L840.07 328.62 L838.25 325.27 L837.00 321.62 L834.97 318.39 L830.97 316.25 L831.17 311.78 L828.73 308.79 L827.57 305.06 L826.98 300.95 L826.06 297.02 L823.60 294.03 L822.50 290.17 L822.01 285.88 L818.24 283.76 L816.41 280.35 L813.46 277.72 L810.49 275.13 L806.35 273.43 L804.35 270.16 L801.58 267.48 L798.46 265.09 L795.84 262.32 L792.06 260.51 L789.77 257.51 L788.13 253.93 L785.21 251.46 L781.10 250.04 L779.99 245.97 L777.17 243.43 L774.80 240.48 L772.11 237.82 L768.79 235.79 L767.00 232.24 L763.07 230.85 L760.42 228.18 L759.88 223.25 L756.98 220.80 L753.70 218.78 L751.03 216.08 L748.46 213.25 L745.22 211.21 L741.29 210.00 L737.82 208.29 L734.20 206.79 L730.23 205.78 L727.67 202.97 L725.54 199.58 L721.56 198.66 L719.07 195.71 L715.75 193.92 L713.54 190.52 L710.61 188.14 L708.83 184.01 L705.19 182.66 L702.60 179.69 L699.64 177.26 L696.62 174.93 L692.76 173.99 L689.57 171.95 L686.37 169.91 L681.74 170.46 L678.63 168.29 L675.32 166.50 L671.38 165.92 L667.95 164.38 L664.15 163.62 L660.24 163.12 L656.92 161.41 L653.75 159.37 L649.06 160.74 L646.38 157.58 L642.42 157.41 L639.21 155.45 L634.91 156.23 L631.76 154.14 L628.37 152.64 L624.92 151.29 L620.94 151.44 L618.27 147.80 L615.49 144.34 L611.19 145.56 L607.85 143.78 L604.29 142.67 L601.02 140.56 L597.24 140.25 L593.04 141.57 L589.22 141.61 L585.47 141.42 L581.98 140.13 L578.37 139.36 L574.70 138.89 L570.87 139.24 L567.61 136.68 L563.90 136.45 L560.46 134.63 L556.98 132.86 L553.43 131.49 L549.67 131.52 L546.12 129.91 L542.62 127.69 L538.67 129.43 L534.95 129.22 L531.14 130.06 L527.38 130.61 L523.54 132.53 L519.88 132.04 L516.16 132.75 L512.48 132.79 L508.79 133.60 L505.10 135.09 L501.46 134.51 L497.79 133.05 L494.14 134.43 L490.51 135.47 L486.84 134.73 L483.14 133.83 L479.51 134.65 L475.91 135.62 L472.32 136.53 L468.53 135.02 L465.21 138.83 L461.45 137.79 L457.39 134.34 L453.82 135.51 L450.34 137.18 L446.63 137.09 L442.70 135.73 L439.24 137.39 L436.03 140.35 L432.67 142.22 L429.37 144.30 L426.60 148.76 L422.62 147.37 L418.61 146.06 L415.77 149.79 L411.84 148.93 L408.47 150.33 L404.16 148.25 L400.30 148.00 L395.85 145.84 L392.93 148.92 L388.70 147.72 L384.77 147.58 L381.45 149.33 L378.36 151.72 L375.04 153.39 L371.49 154.43 L369.58 159.74 L365.74 159.93 L362.87 162.57 L360.30 165.87 L357.05 167.49 L354.66 171.04 L352.02 173.91 L348.09 173.96 L344.33 174.44 L342.96 179.83 L337.96 177.83 L334.74 179.46 L330.45 179.05 L327.86 181.90 L325.25 184.65 L321.30 184.99 L319.15 188.50 L316.65 191.34 L311.98 190.57 L307.40 190.07 L306.97 196.19 L302.31 195.63 L299.56 198.04 L295.19 198.06 L293.56 202.11 L291.92 206.07 L289.60 209.00 L288.48 213.54 L285.75 215.82 L281.66 216.34 L279.31 219.16 L278.98 224.45 L273.70 223.58 L270.35 225.14 L266.09 225.66 L261.79 226.21 L258.77 228.28 L256.30 230.96 L252.03 231.69 L248.13 232.88 L248.87 238.94 L248.77 244.02 L247.95 248.26 L247.30 252.61 L248.28 258.46 L247.99 262.97 L246.73 266.51 L244.35 269.00 L242.16 271.67 L239.83 274.21 L237.66 276.88 L235.44 279.52 L233.25 282.17 L231.07 284.84 L229.16 287.72 L227.23 290.58 L225.24 293.38 L223.56 296.42 L221.81 299.38 L220.05 302.34 L218.41 305.37 L216.54 308.24 L214.99 311.32 L213.01 314.11 L211.37 317.12 L209.22 319.81 L207.37 322.68 L205.31 325.44 L203.16 328.15 L200.70 330.70 L198.86 333.61 L197.00 336.52 L195.26 339.49 L193.57 342.50 L192.40 345.76 L191.06 348.94 L190.09 352.29 L188.95 355.54 L188.30 359.01 L187.49 362.39 L186.45 365.66 L185.32 368.89 L184.29 372.15 L183.53 375.51 L182.68 378.82 L181.95 382.18 L181.04 385.45 L179.98 388.67 L179.44 392.07 L178.59 395.35 L177.65 398.60 L176.32 401.72 L175.55 405.02 L174.41 408.21 L173.67 411.52 L172.47 414.70 L172.10 418.10 L171.26 421.37 L170.84 424.74 L170.45 428.11 L170.06 431.47 L169.65 434.83 L169.40 438.21 L169.16 441.58 L168.80 444.93 L168.27 448.24 L168.15 451.62 L167.61 454.93 L167.35 458.28 L166.76 461.58 L166.87 464.97 L166.46 468.29 L166.45 471.65 L166.40 475.01 L166.62 478.37 L166.69 481.72 L166.58 485.06 L166.65 488.40 L166.79 491.74 L166.97 495.08 L167.05 498.41 L167.25 501.74 L167.55 505.06 L168.02 508.37 L168.37 511.69 L168.78 514.99 L169.31 518.28 L165.98 521.82 L164.51 525.28 L163.39 528.76 L164.01 532.09 L159.74 535.94 L160.08 539.34 L155.89 543.32 L158.70 546.43 L157.24 550.13 L160.14 553.18 L158.13 557.00 L157.96 560.55 L161.62 563.40 L162.56 566.73 L164.67 569.80 L163.65 573.53 L166.37 576.44 L165.34 580.20 L167.16 583.30 L166.23 587.08 L168.59 590.02 L168.74 593.54 L167.75 597.42 L172.37 599.64 L173.07 603.00 L175.76 605.73 L175.20 609.52 L177.59 612.32 L176.47 616.35 L179.46 618.91 L180.07 622.33 L181.33 625.52 L182.23 628.85 L182.43 632.48 L187.91 633.87 L187.72 637.67 L190.53 640.15 L190.82 643.76 L192.34 646.81 L192.63 650.46 L194.96 653.12 L197.69 655.55 L198.18 659.14 L200.19 661.93 L200.71 665.54 L207.04 665.89 L206.61 670.02 L209.55 672.22 L210.08 675.85 L211.51 678.95 L212.86 682.11 L214.57 685.06 L218.16 686.76 L218.05 690.92 L220.63 693.28 L222.05 696.43 L228.09 696.27 L228.27 700.30 L230.76 702.66 L232.73 705.39 L233.69 708.92 L236.41 711.08 L237.16 714.83 L241.02 716.03 L242.62 719.10 L243.90 722.46 L246.45 724.73 L251.46 724.77 L253.25 727.68 L255.41 730.26 L258.30 732.14 L258.90 736.24 L262.51 737.41 L263.83 740.86 L267.90 741.49 L268.45 745.79 L270.93 748.08 L274.57 749.09 L278.17 750.10 L281.17 751.74 L282.78 755.00 L286.75 755.46 L286.99 760.43 L291.39 760.31 L292.82 763.90 L296.96 764.02 L297.86 768.35 L300.40 770.57 L304.81 770.21 L308.00 771.47 L311.42 772.37 L313.10 775.81 L317.11 775.78 L317.86 780.71 L322.09 780.29 L323.98 783.54 L327.63 783.95 L329.49 787.32 L331.90 789.83 L336.63 788.29 L339.26 790.37 L342.91 790.61 L345.06 793.60 L348.53 794.12 L351.27 796.03 L354.11 797.76 L356.90 799.61 L360.23 800.33 L363.08 802.06 L365.33 805.17 L370.10 802.52 L372.68 804.89 L376.42 804.46 L378.91 807.12 L382.11 807.99 L384.67 810.56 L388.21 810.52 L391.50 811.09 L394.28 813.17 L397.59 813.68 L400.29 816.09 L404.94 812.18 L407.37 815.48 L410.99 814.78 L413.83 816.81 L416.83 818.30 L419.87 819.70 L423.15 820.19 L426.83 818.86 L429.55 821.74 L432.96 821.50 L436.00 823.04 L440.16 818.74 L442.96 821.55 L446.33 821.15 L449.44 822.36 L452.48 824.11 L455.77 824.26 L458.91 825.47 L462.43 823.58 L465.40 826.54 L468.70 826.54 L472.01 826.32 L475.53 823.23 L478.71 824.24 L481.94 824.62 L485.23 823.86 L488.40 825.90 L491.69 824.89 L494.91 826.99 L498.19 824.55 L501.44 825.15 L504.72 827.26 L507.96 825.66 L511.13 823.10 L514.34 822.53 L517.62 823.40 L520.73 821.35 L524.20 824.57 L527.22 821.68 L530.63 823.37 L533.62 820.74 L537.13 823.09 L540.39 822.97 L543.29 820.12 L546.40 819.04 L549.36 817.10 L552.81 818.29 L555.64 815.74 L559.47 818.79 L562.04 815.06 L565.53 816.10 L568.30 813.63 L571.97 815.29 L575.27 815.20 L577.41 810.38 L580.49 809.51 L583.32 807.72 L586.81 808.36 L589.34 805.60 L593.15 807.19 L595.67 804.49 L599.23 805.13 L601.94 803.10 L605.14 802.57 L608.35 802.04 L610.16 797.69 L613.51 797.56 L615.80 794.70 L619.24 794.74 L622.03 793.18 L625.31 792.76 L628.47 792.05 L631.45 790.88 L634.54 789.97 L637.16 788.04 L640.89 788.39 L641.42 782.29 L644.94 782.24 L646.96 779.26 L650.31 778.82 L652.96 777.07 L656.18 776.34 L658.83 774.58 L661.13 772.24 L665.41 773.20 L667.57 770.62 L670.51 769.31 L671.95 765.68 L675.61 765.47 L677.96 763.26 L680.34 761.11 L683.53 760.13 L686.06 758.20 L688.87 756.65 L690.78 753.89 L693.92 752.75 L696.34 750.69 L697.93 747.57 L698.56 743.33 L701.09 741.47 L703.61 739.57 L704.77 736.11 L708.08 735.14 L709.55 732.09 L713.20 731.42 L714.43 728.15 L718.25 727.60 L720.35 725.24 L721.77 722.20 L722.42 718.44 L724.09 715.72 L726.93 714.12 L727.47 710.37 L731.99 710.29 L732.94 706.95 L737.40 706.69 L737.18 702.37 L740.37 700.97 L743.74 699.68 L743.96 695.82 L744.56 692.32 L744.70 688.49 L748.35 687.38 L748.07 683.30 L752.46 682.67 L751.89 678.45 L755.89 677.47 L757.35 674.69 L760.98 673.37 L762.38 670.55 L762.41 666.85 L765.16 664.90 L765.73 661.60 L768.07 659.37 L769.10 656.36 L771.72 654.27 L772.13 650.93 L773.68 648.22 L775.14 645.48 L777.04 642.96 L778.88 640.39 L776.40 635.69 L778.44 633.26 L779.92 630.54 L781.81 628.01 L781.00 624.27 L783.83 622.14 L784.88 619.23 L786.51 616.56 L787.12 613.47 L787.96 610.49 L789.83 607.89 L786.97 603.57 L789.20 601.12 L788.84 597.77 L791.00 595.26 L791.58 592.24 L792.54 589.33 L794.53 586.73 L794.37 583.49 L796.46 580.89 L797.76 578.06 L799.47 575.31 L795.94 571.28 L797.53 568.53 L798.62 565.64 L798.76 562.54 L800.18 559.72 L800.18 556.60 L801.95 553.81 L800.82 550.51 L803.26 547.81 L803.17 544.69 L803.19 541.60 L801.87 538.35 L802.95 535.41 L803.51 532.41 L802.90 529.28 L804.87 526.40 L804.39 523.29 L805.46 520.30 L804.32 517.17 L805.68 514.18 L805.80 511.13 L804.43 508.03 L802.54 504.95 L803.14 501.93 L803.77 498.90 L801.45 495.89 L803.15 492.84 L802.32 489.83 L803.81 486.74 L802.41 483.77 L803.03 480.69 L802.67 477.67 L800.88 474.78 L799.58 471.87 L796.68 469.14 L798.11 465.98 L796.23 463.19 L798.23 459.91 L796.67 457.09 L798.78 453.73 L796.44 451.06 L797.47 447.82 L798.43 444.58 L794.22 442.31 L793.52 439.39 L792.72 436.50 L793.36 433.28 L789.44 431.12 L791.29 427.60 L789.55 424.94 L789.49 421.86 L788.51 419.02 L788.31 415.96 L787.91 412.94 L786.81 410.14 L786.86 406.96 L783.92 404.77 L783.93 401.59 L782.86 398.79 L781.81 395.97 L779.35 393.69 L778.58 390.78 L777.98 387.80 L776.00 385.38 L775.33 382.41 L772.61 380.34 L771.95 377.37 L769.10 375.40 L768.75 372.28 L766.39 370.12 L763.79 368.11 L762.24 365.59 L758.73 364.11 L757.43 361.49 L757.24 358.26 L755.64 355.78 L750.60 355.30 L752.64 350.74 L751.38 348.07 L750.90 344.92 L748.49 342.95 L746.43 340.78 L745.98 337.56 L742.28 336.51 L740.19 334.39 L741.84 329.67 L740.77 326.79 L736.18 326.48 L736.09 322.88 L734.27 320.56 L733.21 317.65 L729.53 316.79 L726.40 315.55 L723.43 314.23 L720.01 313.32 L718.85 310.51 L718.83 306.66 L715.50 305.74 L713.35 303.77 L711.61 301.42 L710.53 298.44 L709.13 295.73 L708.37 292.37 L705.36 291.23 L703.52 288.92 L702.27 285.97 L700.75 283.29 L697.36 282.62 L695.01 280.85 L692.77 278.95 L688.31 279.66 L686.47 277.34 L683.67 276.17 L680.67 275.28 L677.97 274.05 L674.81 273.44 L670.35 274.60 L669.24 271.34 L668.13 268.02 L664.03 268.86 L662.87 265.55 L660.34 264.20 L659.48 260.35 L656.22 260.07 L653.32 259.31 L650.93 257.74 L649.31 254.92 L646.25 254.45 L644.33 252.05 L642.88 248.80 L639.85 248.31 L637.83 245.99 L635.00 245.16 L632.82 243.10 L629.94 242.38 L626.38 243.10 L623.42 242.64 L619.93 243.36 L617.12 242.70 L615.37 239.68 L613.14 237.67 L609.75 238.36 L608.21 234.62 L606.65 230.78 L603.68 230.43 L601.38 228.33 L599.05 226.25 L596.01 226.13 L592.93 226.16 L590.35 224.74 L586.63 226.88 L583.65 226.86 L580.60 227.09 L577.14 228.84 L573.17 232.69 L571.57 227.84 L568.47 228.65 L564.60 232.75 L561.36 234.54 L560.02 228.00 L558.54 221.46 L555.44 222.48 L552.08 224.99 L550.11 220.13 L548.01 215.46 L545.14 215.15 L541.70 218.72 L538.91 218.10 L536.03 218.21 L533.33 216.84 L530.15 219.77 L527.33 219.62 L524.78 216.44 L522.04 214.95 L519.19 214.66 L516.24 216.18 L513.35 217.12 L510.52 217.02 L507.65 218.61 L504.79 221.24 L501.98 223.49 L499.23 226.64 L496.48 225.48 L493.69 223.49 L490.99 225.64 L488.21 225.00 L485.47 225.26 L482.60 223.45 L479.79 222.99 L476.77 220.19 L474.14 222.27 L471.19 220.86 L468.31 220.37 L465.43 220.02 L462.84 221.92 L460.12 222.71 L457.33 222.97 L455.10 226.67 L452.31 226.83 L449.83 228.65 L447.36 230.43 L444.71 231.14 L442.18 232.45 L439.86 234.60 L437.05 234.55 L434.03 233.68 L432.03 236.93 L428.87 235.63 L426.50 237.31 L423.37 236.31 L421.13 238.42 L418.88 240.36 L415.92 240.05 L413.38 241.09 L410.85 242.11 L407.81 241.72 L404.54 240.78 L402.80 243.97 L399.66 243.47 L397.28 244.91 L394.40 245.15 L392.47 247.67 L390.79 250.66 L388.70 252.65 L386.85 255.12 L383.95 255.30 L381.27 255.99 L379.25 258.00 L377.25 260.03 L373.34 258.38 L371.49 260.70 L368.63 261.14 L364.96 260.18 L362.82 261.97 L360.92 264.16 L357.84 264.37 L354.40 264.03 L353.47 267.75 L350.83 268.72 L349.57 271.80 L346.85 272.67 L345.35 275.32 L345.23 279.89 L344.38 283.31 L341.36 283.71 L338.58 284.47 L338.63 288.98 L339.09 293.88 L334.44 292.24 L330.04 291.04 L327.86 292.63 L327.09 295.90 L324.57 297.06 L324.52 301.06 L322.89 303.22 L320.09 304.08 L317.77 305.50 L319.48 311.14 L317.54 312.90 L310.63 309.65 L308.18 311.02 L306.66 313.29 L304.19 314.65 L302.24 316.52 L304.20 321.94 L303.05 324.47 L300.25 325.53 L298.55 327.56 L301.54 333.53 L298.00 333.98 L293.24 333.50 L293.50 337.08 L293.04 340.05 L291.00 341.79 L292.01 345.80 L292.23 349.16 L286.37 348.15 L284.19 349.82 L285.69 354.03 L283.04 355.37 L280.23 356.65 L275.87 356.98 L275.55 359.92 L273.63 361.85 L273.49 364.85 L271.13 366.53 L273.06 370.68 L272.46 373.33 L267.80 373.76 L268.29 377.01 L271.07 381.41 L272.19 384.86 L263.61 383.48 L261.93 385.60 L259.90 387.56 L261.05 391.00 L259.53 393.20 L261.02 396.71 L259.84 399.04 L255.84 400.22 L258.55 404.13 L260.80 407.78 L255.59 408.57 L249.96 409.30 L252.24 412.93 L248.21 414.33 L247.81 417.00 L249.19 420.22 L252.39 423.96 L250.45 426.08 L247.80 428.03 L251.51 431.77 L252.47 434.69 L247.05 435.96 L246.35 438.47 L250.41 442.10 L248.49 444.30 L249.12 447.06 L253.70 450.59 L249.52 452.36 L246.13 454.34 L247.68 457.22 L249.75 460.14 L245.61 462.08 L242.34 464.23 L241.69 466.76 L243.02 469.54 L246.12 472.48 L242.15 474.66 L241.78 477.23 L242.39 479.88 L245.18 482.65 L245.32 485.22 L247.67 487.89 L248.87 490.46 L249.63 493.00 L249.58 495.50 L247.26 497.99 L245.51 500.52 L242.59 503.10 L242.22 505.68 L243.97 508.21 L244.94 510.73 L242.89 513.39 L247.15 515.71 L251.02 517.97 L253.15 520.30 L253.97 522.71 L254.15 525.17 L254.86 527.58 L254.00 530.17 L255.05 532.53 L254.77 535.07 L255.27 537.50 L254.66 540.10 L250.90 543.28 L246.32 546.70 L246.48 549.29 L246.65 551.89 L240.47 555.87 L238.34 559.07 L244.34 560.41 L248.69 562.04 L249.30 564.56 L253.87 566.01 L258.83 567.28 L263.41 568.55 L264.98 570.66 L264.66 573.32 L259.53 577.57 L257.96 580.76 L261.10 582.37 L260.86 585.14 L259.72 588.26 L260.27 590.79 L257.55 594.61 L261.50 595.82 L263.59 597.74 L261.92 601.23 L262.81 603.66 L267.87 604.23 L270.76 605.70 L275.08 606.45 L280.12 606.77 L283.60 607.76 L283.74 610.41 L283.70 613.17 L283.06 616.28 L285.05 618.00 L286.31 620.10 L286.28 622.95 L288.07 624.76 L291.73 625.42 L294.31 626.69 L296.41 628.22 L297.87 630.14 L299.03 632.25 L293.22 639.06 L295.77 640.33 L298.01 641.79 L299.68 643.63 L298.39 647.62 L301.90 648.12 L305.36 648.59 L308.44 649.30 L307.94 652.80 L310.70 653.72 L312.27 655.59 L312.75 658.37 L313.05 661.35 L313.11 664.59 L316.25 665.11 L321.13 663.99 L323.71 664.91 L322.22 669.66 L321.85 673.45 L324.63 674.20 L328.09 674.21 L327.96 677.87 L327.69 681.74 L327.78 685.33 L332.12 684.32 L336.49 683.17 L339.49 683.46 L341.08 685.36 L340.76 689.54 L342.62 691.17 L347.09 689.57 L347.11 693.47 L348.58 695.60 L351.91 695.31 L355.52 694.55 L359.61 693.05 L364.26 690.63 L368.03 689.31 L371.04 689.00 L372.88 690.37 L372.95 694.45 L370.83 702.07 L371.99 704.74 L372.30 708.87 L372.51 713.28 L372.40 718.40 L372.72 722.94 L374.92 724.27 L377.52 724.86 L380.10 725.47 L383.67 724.14 L387.42 722.30 L391.09 720.51 L395.18 717.68 L400.10 712.89 L404.29 709.37 L406.77 709.47 L409.42 709.11 L411.73 709.51 L411.09 717.06 L412.66 719.47 L413.26 724.45 L414.05 729.20 L416.66 729.19 L419.14 729.50 L420.59 732.78 L424.49 728.82 L428.20 725.10 L431.17 723.50 L434.10 721.82 L436.96 720.25 L439.48 719.75 L441.86 719.65 L444.34 719.11 L446.80 718.56 L448.73 720.21 L450.96 720.57 L453.30 720.42 L455.59 720.47 L456.85 725.87 L458.92 727.33 L461.02 728.78 L462.40 734.84 L463.87 741.09 L467.08 735.75 L469.64 734.49 L471.61 737.95 L474.31 735.32 L477.23 729.84 L479.66 728.53 L482.11 726.71 L484.39 726.64 L486.53 729.05 L488.63 733.03 L490.99 732.32 L493.40 729.49 L495.71 728.88 L497.98 730.30 L500.29 731.88 L502.60 731.55 L504.99 734.75 L507.43 737.64 L509.95 741.08 L512.50 743.68 L514.97 744.12 L517.35 743.13 L519.36 737.72 L521.79 738.20 L524.08 737.05 L526.34 735.80 L528.24 731.75 L530.49 730.96 L533.25 733.85 L535.47 732.74 L537.32 729.44 L539.20 726.65 L541.12 724.36 L543.17 722.96 L545.96 725.28 L549.17 729.30 L551.35 728.28 L552.92 724.74 L555.42 725.25 L559.20 730.66 L561.62 730.47 L562.26 723.89 L563.22 718.82 L566.77 722.73 L570.14 725.74 L572.19 724.39 L573.61 721.21 L575.00 718.08 L577.89 719.34 L580.61 719.98 L583.32 720.53 L584.46 716.96 L585.54 713.39 L586.98 710.86 L590.60 713.55 L592.15 711.31 L593.09 707.76 L594.46 705.29 L595.95 703.16 L598.56 703.40 L600.12 701.45 L602.44 701.04 L603.33 697.88 L605.98 698.11 L609.66 700.13 L613.90 703.04 L616.03 702.07 L618.90 702.35 L624.04 706.35 L627.66 707.63 L627.28 702.46 L628.37 699.73 L629.59 697.26 L630.32 694.12 L629.16 688.29 L630.08 685.62 L633.46 686.45 L637.76 688.45 L637.60 684.33 L639.60 683.16 L643.49 684.41 L645.61 683.32 L644.79 678.60 L644.72 674.91 L644.50 671.12 L645.88 669.30 L648.01 668.33 L649.14 666.24 L651.24 665.22 L652.81 663.63 L653.85 661.46 L656.31 660.80 L658.12 659.45 L660.50 658.64 L659.22 654.25 L662.96 654.75 L662.34 651.10 L665.12 650.64 L664.50 647.08 L667.51 646.78 L667.04 643.45 L669.09 642.29 L670.58 640.66 L671.33 638.42 L673.69 637.48 L673.89 634.83 L677.50 634.81 L677.19 631.80 L678.59 630.09 L678.16 627.07 L680.24 625.85 L681.99 624.39 L682.69 622.20 L682.33 619.34 L682.64 616.95 L686.85 617.03 L687.91 615.10 L689.41 613.42 L689.06 610.66 L690.25 608.82 L690.40 606.39 L691.54 604.53 L693.76 603.24 L693.06 600.40 L692.46 597.66 L694.94 596.47 L698.18 595.62 L696.79 592.54 L699.25 591.27 L698.90 588.72 L700.01 586.82 L699.07 584.06 L699.78 582.02 L701.91 580.54 L701.17 577.92 L701.02 575.56 L704.06 574.39 L705.01 572.42 L702.91 569.40 L704.41 567.64 L704.81 565.51 L703.16 562.74 L705.40 561.20 L707.51 559.57 L706.96 557.18 L706.58 554.86 L709.06 553.28 L709.40 551.14 L711.76 549.48 L711.78 547.26 L711.31 544.94 L712.27 542.93 L710.76 540.44 L710.77 538.26 L712.72 536.42 L713.75 534.40 L710.76 531.76 L707.86 529.20 L712.66 527.71 L715.87 525.93 L715.94 523.75 L713.37 521.31 L715.28 519.33 L711.95 516.90 L712.73 514.82 L714.24 512.77 L715.18 510.67 L710.48 508.33 L711.61 506.26 L716.74 504.24 L717.13 502.07 L716.84 499.90 L717.08 497.73 L716.41 495.58 L711.91 493.55 L712.31 491.41 L714.20 489.19 L712.69 487.13 L707.51 485.36 L710.23 483.05 L713.16 480.67 L710.13 478.82 L709.00 476.82 L709.18 474.68 L705.87 472.99 L705.01 471.02 L708.45 468.40 L708.25 466.30 L704.39 464.82 L706.17 462.39 L706.50 460.19 L707.98 457.74 L705.10 456.19 L703.78 454.34 L701.41 452.75 L702.66 450.31 L700.60 448.68 L698.99 446.97 L698.39 445.00 L698.17 442.92 L697.75 440.89 L696.18 439.22 L696.55 436.94 L696.35 434.84 L696.08 432.74 L694.89 430.96 L693.45 429.29 L692.21 427.55 L692.31 425.31 L692.82 422.88 L690.86 421.45 L689.07 419.96 L689.47 417.55 L690.38 414.88 L687.90 413.72 L685.35 412.64 L684.19 410.93 L683.81 408.83 L680.87 408.02 L678.70 406.86 L678.57 404.65 L677.84 402.74 L677.24 400.75 L677.12 398.48 L675.31 397.18 L674.59 395.24 L674.55 392.87 L673.33 391.22 L670.56 390.57 L670.02 388.50 L667.90 387.47 L668.15 384.85 L666.17 383.75 L664.74 382.28 L662.97 381.06 L662.99 378.54 L661.85 376.84 L658.85 376.60 L658.52 374.30 L656.18 373.59 L654.55 372.33 L652.94 371.07 L652.32 368.96 L650.95 367.49 L647.90 367.53 L647.30 365.38 L645.87 363.99 L645.84 361.26 L643.33 360.89 L642.64 358.76 L639.46 359.13 L638.48 357.29 L637.71 355.22 L637.16 352.88 L635.23 352.00 L633.19 351.27 L633.30 348.13 L631.51 347.11 L628.77 347.23 L626.90 346.36 L625.98 344.32 L622.80 345.11 L619.97 345.53 L618.71 343.96 L617.42 342.41 L616.36 340.53 L614.70 339.46 L613.25 338.09 L611.01 337.86 L610.39 335.26 L609.02 333.73 L607.27 332.78 L604.89 332.83 L603.59 331.18 L602.02 329.94 L599.85 329.73 L597.76 329.40 L595.49 329.42 L595.76 324.85 L592.64 326.46 L592.04 323.36 L589.96 323.06 L589.58 319.35 L588.33 317.31 L587.01 315.35 L585.12 314.58 L582.88 314.58 L581.76 312.07 L579.69 311.69 L578.10 310.19 L574.24 314.31 L573.29 311.24 L571.01 311.54 L569.15 310.78 L567.63 309.04 L565.56 308.83 L564.31 306.15 L561.68 307.67 L560.05 306.10 L558.36 304.70 L556.33 304.35 L553.20 308.05 L551.47 306.81 L549.39 306.85 L547.22 307.32 L545.76 304.87 L543.61 305.29 L542.08 302.89 L539.63 304.84 L538.21 301.70 L536.22 301.33 L534.05 302.03 L531.70 303.99 L529.72 303.81 L527.78 303.36 L525.59 304.79 L524.08 300.90 L521.78 303.44 L519.98 301.56 L517.78 303.70 L516.04 300.75 L514.07 300.36 L511.91 302.91 L509.88 304.00 L507.89 304.65 L505.99 302.73 L503.98 304.57 L502.05 301.56 L500.07 303.85 L498.09 301.91 L496.14 303.70 L494.13 301.98 L492.12 301.24 L490.28 304.48 L488.31 304.28 L486.47 306.11 L484.43 304.94 L482.60 306.39 L480.54 305.34 L478.68 306.37 L476.62 305.49 L474.81 306.77 L472.76 306.20 L470.62 305.17 L469.42 310.06 L467.31 309.14 L465.72 311.22 L463.56 310.18 L461.78 311.11 L459.47 309.52 L457.80 310.98 L456.00 311.78 L454.05 311.96 L452.05 311.93 L449.91 311.42 L449.37 316.83 L446.96 315.32 L445.60 317.47 L443.44 316.92 L441.41 316.87 L439.16 316.18 L437.65 317.75 L436.42 320.05 L433.84 318.55 L432.12 319.47 L429.99 319.31 L429.78 324.02 L427.28 322.92 L425.79 324.31 L423.90 324.73 L421.95 325.06 L420.05 325.51 L418.16 326.00 L417.58 329.22 L414.77 327.83 L412.92 328.42 L411.28 329.44 L411.59 334.11 L408.89 333.09 L407.08 333.74 L405.97 335.64 L403.82 335.71 L402.47 337.17 L399.89 336.59 L399.19 339.07 L397.39 339.79 L394.95 339.54 L394.06 341.65 L393.69 344.48 L392.34 345.85 L390.13 345.99 L390.03 349.06 L387.36 348.61 L386.92 351.14 L384.51 351.08 L384.39 353.97 L381.43 353.27 L379.45 353.84 L379.28 356.58 L378.42 358.45 L377.74 360.51 L375.27 360.52 L375.56 363.62 L372.15 362.67 L372.51 365.77 L370.06 365.91 L369.30 367.79 L366.73 367.86 L364.34 368.15 L364.49 370.91 L363.55 372.59 L363.38 374.96 L360.93 375.25 L361.29 378.06 L358.81 378.36 L358.81 380.80 L357.13 381.81 L356.79 383.92 L354.81 384.70 L352.95 385.60 L355.01 389.52 L352.86 390.18 L352.74 392.37 L350.99 393.36 L350.91 395.54 L349.08 396.50 L347.88 397.89 L346.04 398.88 L345.17 400.51 L344.51 402.27 L341.92 402.83 L343.15 405.73 L341.74 407.03 L342.10 409.35 L340.70 410.65 L340.07 412.39 L339.06 413.92 L337.95 415.40 L338.84 417.90 L336.91 418.96 L336.12 420.60 L334.52 421.86 L338.38 425.65 L335.08 426.12 L335.35 428.21 L333.88 429.54 L332.62 430.97 L331.39 432.43 L330.61 434.08 L331.05 436.19 L328.63 437.22 L329.17 439.35 L328.20 440.93 L331.93 444.09 L329.22 445.08 L329.05 446.90 L328.70 448.67 L326.30 449.84 L327.64 452.09 L325.52 453.37 L327.07 455.63 L323.95 456.70 L323.81 458.53 L324.83 460.62 L327.08 462.93 L326.21 464.56 L324.86 466.11 L326.46 468.22 L323.48 469.49 L324.45 471.46 L322.09 472.90 L325.07 475.14 L323.74 476.75 L320.88 478.19 L323.11 480.26 L325.07 482.25 L325.94 484.09 L324.06 485.69 L326.45 487.63 L322.46 489.13 L326.09 491.10 L323.59 492.74 L325.85 494.57 L322.90 496.25 L322.40 498.02 L325.66 499.80 L325.34 501.55 L327.03 503.26 L324.96 505.05 L327.03 506.72 L323.70 508.62 L326.87 510.20 L325.71 512.02 L327.45 513.63 L325.55 515.54 L324.37 517.42 L329.25 518.66 L328.34 520.50 L330.00 522.03 L328.06 524.03 L329.40 525.58 L327.34 527.66 L329.46 529.07 L329.29 530.86 L329.31 532.62 L329.64 534.33 L328.20 536.41 L334.01 536.92 L332.13 539.10 L334.30 540.35 L333.13 542.41 L333.73 544.03 L334.74 545.53 L333.52 547.67 L335.38 548.92 L334.92 550.86 L335.80 552.39 L334.70 554.57 L340.53 554.42 L339.10 556.71 L341.85 557.52 L341.17 559.58 L341.28 561.35 L341.96 562.91 L342.43 564.56 L344.30 565.62 L342.88 568.07 L345.10 568.96 L344.92 570.91 L349.04 570.86 L348.42 573.01 L349.88 574.16 L350.56 575.69 L348.90 578.45 L351.12 579.19 L351.28 581.02 L354.18 581.34 L353.12 583.87 L354.94 584.77 L357.02 585.48 L361.20 584.88 L362.00 586.30 L361.98 588.24 L364.58 588.50 L364.35 590.60 L367.21 590.62 L367.35 592.49 L370.58 592.17 L370.43 594.24 L372.12 594.98 L374.69 595.03 L376.81 595.38 L378.64 595.92 L379.06 597.57 L381.19 597.83 L381.89 599.25 L383.52 599.88 L384.32 601.23 L386.13 601.67 L387.35 602.62 L387.50 604.56 L389.43 604.85 L390.68 605.76 L391.52 607.07 L392.57 608.17 L394.70 608.17 L395.84 609.16 L397.26 609.85 L399.10 610.08 L401.36 609.79 L402.95 610.22 L403.97 611.29 L404.79 612.60 L405.57 613.97 L407.99 613.32 L409.71 613.51 L409.63 615.97 L409.70 618.31 L412.25 617.37 L414.35 616.99 L415.23 618.26 L415.51 620.39 L417.57 619.99 L419.47 619.77 L421.02 620.04 L421.67 621.69 L423.50 621.50 L425.12 621.60 L426.24 622.51 L426.85 624.30 L428.29 624.69 L429.16 626.07 L429.96 627.61 L431.34 628.12 L433.17 627.75 L434.20 628.91 L435.63 629.30 L437.57 628.59 L439.39 628.10 L440.97 628.05 L442.45 628.20 L443.66 628.94 L444.85 629.74 L446.34 629.83 L448.09 629.25 L449.31 629.94 L450.55 630.60 L451.57 631.89 L452.81 632.58 L454.40 632.29 L455.67 632.92 L456.38 635.27 L457.77 635.58 L459.28 635.50 L460.86 635.13 L462.24 635.40 L463.71 635.35 L465.20 635.21 L466.49 635.81 L467.53 637.45 L468.79 638.31 L470.14 638.75 L471.65 638.49 L473.05 638.65 L474.56 638.30 L476.18 637.15 L477.80 635.88 L479.32 635.04 L480.79 634.40 L482.14 634.56 L483.41 635.33 L484.76 635.57 L486.23 634.61 L487.55 635.06 L488.87 635.48 L490.25 635.30 L491.61 635.30 L492.96 635.43 L494.28 636.24 L495.67 635.62 L497.02 635.71 L498.37 636.61 L499.74 636.05 L501.09 635.09 L502.43 634.30 L503.79 635.16 L505.14 634.87 L506.48 634.75 L507.86 635.31 L509.27 635.95 L510.57 635.15 L511.92 635.05 L513.27 634.92 L514.54 634.05 L515.73 632.62 L516.95 631.63 L518.22 631.11 L519.42 630.19 L520.56 629.02 L522.03 629.85 L523.39 629.99 L524.47 628.59 L525.67 627.90 L527.26 629.11 L528.96 630.70 L530.01 629.31 L530.99 627.70 L532.41 627.97 L534.19 629.53 L535.17 628.05 L536.02 626.20 L537.38 626.17 L539.13 627.37 L540.31 626.68 L541.24 625.25 L542.29 624.25 L543.90 624.89 L545.00 624.03 L545.79 622.37 L546.64 620.96 L548.01 620.89 L548.96 619.76 L550.03 618.97 L550.92 617.79 L552.05 617.16 L552.88 615.90 L553.92 615.12 L555.06 614.56 L556.46 614.51 L557.67 614.09 L558.41 612.72 L559.39 611.87 L560.59 611.42 L561.63 610.68 L562.47 609.59 L563.44 608.75 L564.37 607.86 L565.71 607.65 L566.87 607.13 L568.01 606.56 L569.11 605.93 L570.20 605.28 L571.09 604.35 L572.11 603.60 L572.93 602.58 L574.09 602.03 L575.22 601.44 L576.04 600.43 L576.65 599.16 L577.81 598.60 L578.93 597.99 L579.36 596.54 L580.10 595.48 L580.70 594.26 L581.56 593.35 L582.07 592.06 L583.03 591.29 L584.23 590.77 L584.99 589.77 L585.45 588.47 L586.69 587.98 L587.83 587.37 L588.47 586.26 L588.70 584.77 L589.41 583.75 L590.34 582.94 L591.17 582.04 L591.26 580.49 L592.01 579.53 L593.21 578.95 L594.28 578.25 L594.43 576.79 L595.25 575.89 L596.35 575.20 L597.54 574.57 L597.96 573.35 L598.41 572.17 L599.62 571.53 L600.15 570.41 L600.01 568.82 L600.06 567.40 L601.02 566.58 L601.64 565.54 L602.06 564.38 L602.43 563.19 L603.03 562.14 L603.99 561.31 L604.08 559.97 L603.83 558.45 L603.81 557.08 L603.34 555.49 L603.03 554.00 L603.12 552.74 L603.17 551.47 L602.95 550.08 L603.47 549.06 L603.48 547.80 L603.78 546.69 L604.10 545.59 L604.56 544.55 L604.04 543.10 L604.46 542.06 L605.24 541.15 L605.00 539.85 L604.45 538.45 L604.97 537.46 L605.25 536.37 L605.49 535.28 L605.34 534.06 L606.33 533.21 L606.96 532.24 L606.70 531.00 L606.36 529.75 L606.91 528.76 L606.54 527.51 L605.72 526.18 L604.76 524.83 L604.65 523.70 L604.87 522.65 L604.59 521.50 L604.14 520.33 L604.45 519.30 L604.32 518.20 L603.96 517.07 L603.55 515.94 L603.38 514.86 L603.39 513.81 L603.27 512.74 L603.05 511.67 L603.04 510.62 L602.90 509.57 L602.70 508.52 L602.48 507.47 L602.31 506.43 L602.16 505.39 L602.03 504.36 L601.86 503.34 L601.71 502.31 L601.55 501.29 L601.39 500.28 Z"/>
  <svg class="pausebutton" id="pausebutton">
    <circle cx="500" cy="500" id="pausestart" class="pausestart" r="52.65"/>
    <rect height="50.02" width="10.00" y="473.68" rx="2.00" ry="2.00" x="479.99" class="pausesymbol"/>
    <rect height="50.02" width="10.00" y="473.68" rx="2.00" ry="2.00" x="510.00" class="pausesymbol"/>
    <polygon points="530.01,500 479.99,530.01 479.99,469.99" class="playsymbol"/>
  </svg>
  <polygon id="playback-head" class="playback-head" points="956.2375,500 936.2375,540 976.2375,540"/>
</svg>