<?xml-stylesheet href="../../style/waveformjs.css" type="text/css"?>
<svg xmlns="http://www.w3.org/2000/svg" xmlns:xlink="http://www.w3.org/1999/xlink" width="100%" height="100%" viewBox="0 0 1000 1000">
  <path class="svg-wave" id="sp" d="M598.03 500.00 L598.20 500.98 L598.37 501.97 L598.53 502.96 L598.68 503.95 L598.81 504.94 L598.94 505.94 L599.06 506.95 L599.17 507.95 L599.26 508.96 L599.35 509.97 L599.43 510.98 L599.49 512.00 L599.55 513.01 L599.59 514.04 L599.63 515.06 L599.65 516.08 L599.67 517.11 L599.67 518.14 L599.66 519.17 L599.65 520.20 L599.62 521.23 L599.58 522.27 L599.53 523.30 L599.46 524.34 L599.39 525.38 L599.30 526.42 L599.21 527.46 L599.10 528.50 L598.98 529.54 L598.85 530.58 L598.71 531.62 L598.56 532.66 L598.40 533.70 L598.22 534.74 L598.03 535.78 L597.82 536.82 L597.59 537.85 L597.34 538.88 L597.06 539.90 L596.77 540.91 L596.45 541.92 L596.12 542.93 L595.78 543.93 L595.43 544.93 L595.06 545.92 L594.69 546.91 L594.30 547.90 L593.91 548.89 L593.48 549.86 L593.05 550.83 L592.60 551.80 L592.15 552.76 L591.67 553.71 L591.18 554.65 L590.67 555.59 L590.16 556.52 L589.62 557.44 L589.06 558.35 L588.50 559.26 L587.87 560.12 L587.24 560.97 L586.58 561.81 L585.88 562.62 L585.12 563.38 L584.35 564.12 L583.66 564.93 L582.84 565.63 L581.98 566.30 L581.08 566.92 L580.13 567.49 L579.12 568.01 L578.14 568.53 L577.15 569.05 L576.16 569.54 L574.97 569.84 L574.05 570.38 L573.41 571.18 L572.49 571.71 L571.68 572.34 L571.08 573.18 L570.10 573.64 L569.39 574.37 L568.43 574.83 L567.60 575.42 L566.61 575.83 L565.90 576.55 L564.46 576.41 L562.94 576.13 L562.12 576.69 L560.99 576.85 L559.64 576.72 L558.90 577.35 L558.15 577.97 L557.25 578.38 L556.53 579.04 L555.42 579.16 L554.90 580.11 L554.18 580.78 L553.25 581.13 L552.65 582.00 L552.68 583.87 L553.27 586.73 L553.91 589.78 L554.62 593.05 L555.65 597.02 L556.72 601.20 L556.02 602.35 L555.11 603.13 L554.00 603.52 L553.05 604.24 L552.04 604.82 L550.63 604.61 L549.45 604.82 L548.75 606.08 L547.59 606.33 L546.31 606.33 L544.98 606.14 L542.71 603.67 L540.67 601.59 L539.60 601.85 L537.66 599.81 L536.16 598.80 L535.69 600.65 L535.34 602.92 L534.37 603.43 L533.28 603.60 L532.37 604.35 L531.98 606.85 L530.64 606.23 L529.11 604.85 L528.62 607.25 L527.24 606.32 L525.98 605.78 L524.91 606.00 L523.96 606.75 L522.80 606.55 L521.90 607.58 L520.90 608.22 L520.04 609.62 L518.78 608.87 L517.76 609.50 L516.55 608.92 L515.26 607.68 L514.03 606.68 L512.80 605.42 L511.78 605.92 L510.67 605.45 L509.51 604.50 L508.49 604.85 L507.39 604.18 L506.35 604.29 L505.34 605.06 L504.32 605.91 L503.28 606.38 L502.24 607.71 L501.17 608.48 L500.09 608.62 L499.01 607.96 L497.93 607.93 L496.84 608.29 L495.65 610.81 L494.47 612.35 L493.21 614.60 L491.78 618.59 L490.55 619.10 L489.38 618.75 L488.45 616.05 L487.63 612.81 L486.59 611.92 L485.47 611.83 L484.73 608.98 L483.14 612.18 L481.15 617.39 L480.12 616.39 L478.44 619.02 L477.14 619.38 L476.09 618.46 L474.92 618.13 L473.98 616.81 L472.20 619.14 L470.68 620.21 L469.20 621.01 L467.44 622.78 L466.05 623.04 L464.92 622.38 L463.80 621.68 L462.59 621.27 L461.58 620.27 L460.65 619.06 L459.51 618.53 L458.48 617.67 L457.70 616.18 L456.75 615.19 L455.92 613.92 L455.48 611.71 L454.95 609.84 L454.10 608.81 L453.71 606.73 L453.47 604.42 L453.07 602.54 L450.48 605.41 L449.59 604.56 L448.36 604.44 L444.88 608.72 L443.08 609.54 L441.49 609.91 L439.45 611.04 L437.44 612.05 L436.57 610.99 L435.11 610.96 L432.56 612.72 L431.88 611.31 L430.64 610.82 L428.68 611.47 L427.47 610.90 L426.64 609.76 L425.87 608.55 L425.52 606.75 L425.51 604.51 L425.36 602.54 L424.18 602.01 L423.37 600.97 L423.16 599.17 L421.26 599.55 L420.06 599.02 L419.88 597.23 L420.41 594.64 L420.27 592.91 L419.98 591.38 L419.35 590.26 L418.48 589.42 L417.68 588.50 L416.44 588.05 L415.29 587.50 L414.71 586.35 L414.45 584.90 L413.23 584.40 L412.88 583.07 L412.02 582.22 L410.72 581.78 L409.17 581.55 L406.72 582.07 L404.05 582.74 L401.80 582.98 L398.21 584.28 L397.16 583.43 L396.30 582.43 L395.60 581.29 L395.50 579.70 L396.07 577.64 L396.20 575.94 L396.39 574.22 L395.68 573.16 L395.58 571.68 L394.66 570.77 L393.87 569.78 L394.81 567.66 L399.10 563.48 L402.07 560.25 L398.52 561.05 L399.73 558.97 L399.42 557.80 L391.88 560.71 L390.31 560.15 L390.09 558.85 L387.38 558.86 L385.15 558.57 L383.76 557.82 L381.36 557.55 L378.32 557.52 L377.52 556.41 L379.45 554.07 L380.80 552.03 L380.38 550.80 L381.93 548.75 L382.88 547.00 L387.10 544.00 L389.11 541.94 L389.50 540.54 L392.82 538.10 L395.64 535.93 L395.75 534.73 L393.18 534.40 L393.91 533.00 L393.22 532.05 L391.45 531.40 L393.82 529.57 L393.43 528.53 L394.41 527.14 L396.16 525.59 L395.68 524.60 L392.90 524.13 L385.02 524.70 L380.41 524.44 L376.64 523.93 L369.98 523.87 L366.05 523.21 L371.95 520.87 L378.02 518.63 L379.35 517.20 L384.29 515.31 L389.15 513.55 L385.07 512.88 L373.86 512.86 L373.48 511.62 L368.26 510.77 L357.45 510.22 L358.43 508.73 L358.38 507.31 L359.14 505.86 L359.97 504.43 L360.77 503.01 L362.71 501.59 L364.38 500.22 L364.95 498.86 L367.30 497.56 L369.99 496.31 L374.12 495.16 L378.84 494.13 L380.69 493.02 L383.65 492.03 L385.88 491.03 L384.07 489.72 L381.29 488.28 L378.71 486.80 L378.93 485.60 L376.83 484.10 L376.28 482.77 L372.64 480.96 L368.30 478.96 L369.75 477.86 L365.09 475.67 L363.52 473.98 L365.06 472.87 L364.81 471.41 L365.46 470.14 L363.25 468.21 L361.50 466.34 L362.18 465.04 L365.78 464.52 L371.90 464.77 L368.35 462.37 L369.27 461.22 L371.99 460.62 L362.46 456.18 L359.19 453.59 L358.71 451.86 L358.33 450.14 L358.82 448.72 L358.68 447.06 L361.18 446.41 L361.38 444.89 L362.29 443.65 L365.54 443.40 L369.90 443.70 L375.52 444.65 L376.94 443.80 L376.11 441.92 L383.85 444.12 L385.22 443.36 L383.13 440.87 L386.86 441.33 L390.63 441.89 L392.29 441.38 L391.19 439.37 L391.43 438.07 L391.73 436.79 L390.08 434.35 L391.13 433.49 L391.51 432.22 L393.73 432.12 L394.12 430.87 L397.01 431.28 L397.10 429.84 L394.14 426.26 L394.20 424.72 L396.70 424.93 L388.81 417.49 L387.28 414.59 L393.71 417.78 L392.27 414.93 L393.12 413.85 L398.38 416.40 L402.51 418.15 L402.30 416.29 L397.61 410.48 L397.64 408.69 L397.03 406.28 L392.17 399.87 L393.94 399.52 L395.43 398.92 L398.81 400.21 L400.67 400.07 L399.67 397.02 L402.06 397.44 L402.42 395.76 L400.80 391.88 L401.66 390.64 L402.28 389.12 L404.28 389.18 L407.51 390.72 L410.44 392.02 L412.93 392.85 L415.27 393.58 L418.40 395.38 L419.50 394.63 L419.38 392.25 L421.10 392.33 L419.62 387.97 L416.89 381.70 L415.77 377.51 L415.01 373.71 L414.60 370.33 L414.95 368.01 L417.22 368.67 L419.18 368.88 L419.59 366.58 L420.90 365.74 L421.97 364.48 L422.54 362.29 L423.75 361.21 L424.88 359.97 L426.34 359.33 L426.97 357.08 L427.94 355.43 L429.68 355.31 L430.58 353.46 L432.22 353.13 L433.42 351.85 L434.71 350.76 L436.67 351.20 L437.92 349.99 L439.75 350.18 L441.16 349.35 L442.90 349.39 L444.86 350.07 L446.69 350.43 L448.28 350.17 L450.03 350.41 L452.00 351.39 L454.40 353.82 L456.71 356.20 L458.42 356.68 L460.83 359.78 L463.47 363.99 L465.10 364.66 L466.03 362.62 L467.30 361.85 L468.90 362.45 L469.64 359.22 L471.28 360.02 L472.62 359.45 L474.32 360.76 L475.64 360.10 L476.86 358.74 L478.27 358.49 L479.04 353.82 L479.54 346.33 L480.91 344.78 L482.05 340.96 L482.85 333.11 L484.74 335.35 L486.81 340.25 L488.73 344.52 L490.46 347.27 L492.32 353.46 L493.85 355.02 L495.06 347.61 L496.51 344.33 L498.05 342.53 L499.60 331.08 L501.29 329.93 L502.99 330.03 L504.67 331.08 L506.28 333.03 L507.94 333.41 L509.37 337.55 L510.54 344.31 L512.20 343.09 L514.09 339.63 L515.12 345.61 L516.84 344.13 L518.65 342.12 L519.82 345.55 L521.06 347.91 L522.16 350.99 L523.09 354.74 L524.59 354.64 L526.53 352.18 L527.69 354.16 L529.44 352.94 L531.77 349.16 L533.59 348.10 L536.33 343.14 L537.25 346.18 L540.11 341.33 L543.95 333.20 L544.13 339.05 L545.80 339.28 L547.01 341.08 L548.92 340.52 L551.25 338.69 L551.07 344.65 L553.05 343.90 L553.78 346.79 L556.31 344.60 L558.58 343.24 L558.05 349.25 L562.13 343.36 L566.58 336.92 L568.41 337.10 L570.40 336.96 L572.01 337.71 L573.37 339.02 L574.53 340.70 L575.85 342.01 L576.54 344.58 L576.99 347.52 L577.55 350.17 L577.09 354.63 L576.65 358.90 L580.19 355.83 L580.38 358.84 L580.29 362.22 L583.63 359.73 L583.96 362.33 L583.08 366.78 L583.07 369.72 L584.56 370.26 L586.80 369.69 L587.28 371.77 L590.33 370.10 L592.11 370.33 L595.26 368.69 L601.14 363.48 L603.05 363.77 L606.45 362.16 L612.45 357.37 L614.07 358.25 L614.79 360.23 L617.35 360.00 L618.72 361.20 L620.76 361.65 L621.01 364.12 L618.62 369.46 L616.71 374.12 L616.40 376.95 L613.10 382.80 L611.97 386.27 L617.39 383.13 L622.46 380.50 L623.62 381.75 L631.38 376.83 L634.38 376.51 L633.34 379.91 L632.74 382.83 L632.52 385.36 L633.72 386.64 L634.21 388.51 L635.91 389.38 L639.38 388.85 L640.48 390.25 L642.32 391.09 L642.29 393.35 L639.68 397.47 L637.12 401.45 L636.46 403.97 L633.45 408.08 L633.04 410.30 L638.00 408.96 L648.06 404.43 L650.54 404.95 L657.05 403.02 L669.02 397.95 L669.08 400.21 L669.45 402.26 L670.01 404.19 L669.90 406.48 L669.87 408.70 L669.36 411.14 L669.74 413.10 L670.52 414.84 L669.86 417.28 L670.47 419.08 L672.16 420.38 L671.82 422.61 L671.94 424.62 L673.85 425.84 L673.77 427.92 L673.57 430.03 L673.93 431.90 L674.76 433.58 L675.92 435.15 L677.37 436.62 L681.63 437.14 L685.01 438.04 L688.06 439.10 L692.14 439.89 L694.23 441.37 L694.72 443.33 L695.18 445.31 L695.58 447.30 L695.48 449.42 L695.39 451.53 L695.58 453.55 L694.99 455.74 L693.35 458.14 L692.92 460.25 L693.17 462.21 L692.12 464.41 L692.71 466.29 L691.52 468.47 L691.81 470.39 L692.59 472.23 L691.43 474.35 L693.76 476.01 L693.55 478.00 L694.81 479.83 L696.94 481.59 L696.89 483.58 L698.11 485.48 L699.27 487.39 L698.57 489.43 L700.14 491.35 L701.24 493.32 L702.42 495.31 L702.82 497.33 L703.36 499.35 L705.59 501.40 L705.45 503.45 L706.00 505.53 L706.51 507.61 L706.36 509.67 L706.71 511.76 L705.78 513.77 L703.99 515.70 L703.31 517.70 L702.91 519.71 L701.36 521.59 L700.96 523.58 L699.00 525.37 L698.80 527.37 L698.14 529.30 L696.61 531.09 L696.97 533.17 L696.96 535.19 L697.21 537.28 L695.81 539.04 L695.44 541.01 L695.55 543.08 L693.77 544.72 L692.80 546.53 L693.81 548.83 L693.30 550.76 L693.77 552.96 L695.40 555.51 L695.24 557.58 L695.26 559.72 L693.54 561.32 L691.94 562.93 L691.01 564.75 L689.92 566.50 L687.67 567.83 L689.03 570.46 L690.58 573.22 L692.91 576.34 L693.76 578.92 L695.41 581.89 L697.79 585.22 L698.00 587.67 L697.79 589.95 L697.17 592.06 L696.44 594.12 L695.23 595.95 L693.70 597.62 L692.24 599.30 L690.68 600.93 L688.98 602.46 L686.90 603.77 L684.91 605.09 L682.83 606.34 L680.53 607.43 L678.31 608.54 L676.51 609.88 L675.26 611.55 L674.64 613.63 L673.78 615.56 L672.82 617.42 L671.66 619.16 L670.56 620.95 L668.55 622.08 L667.09 623.58 L665.93 625.31 L665.97 627.96 L664.99 629.86 L663.94 631.71 L665.39 635.62 L664.11 637.34 L661.95 638.30 L662.08 641.24 L662.79 644.75 L661.02 646.09 L660.25 648.34 L659.69 650.81 L657.10 651.37 L655.01 652.37 L652.68 653.12 L651.51 655.01 L649.57 656.12 L647.52 657.09 L647.26 659.99 L645.49 661.28 L643.65 662.47 L641.62 663.45 L639.51 664.30 L638.45 666.40 L636.13 666.98 L633.79 667.50 L632.60 669.45 L630.99 670.89 L628.86 671.64 L626.37 671.88 L624.86 673.43 L623.80 675.64 L621.47 676.05 L619.48 676.92 L618.89 679.91 L617.02 680.98 L615.46 682.54 L613.49 683.47 L611.12 683.72 L609.41 685.04 L606.90 684.98 L603.26 682.89 L600.35 681.96 L598.87 683.59 L598.14 686.69 L596.04 687.21 L595.31 690.46 L595.89 696.52 L594.82 699.35 L593.39 701.52 L591.30 702.27 L589.47 703.62 L587.17 703.90 L584.47 703.20 L582.36 703.85 L580.10 704.10 L577.51 703.47 L575.25 703.63 L572.80 703.24 L570.38 702.83 L567.93 702.28 L565.15 700.64 L562.90 700.49 L561.30 702.47 L559.28 703.10 L558.18 707.01 L557.04 711.02 L555.26 712.88 L554.25 717.92 L551.91 717.81 L549.76 718.41 L547.53 718.72 L544.71 716.15 L541.81 712.81 L539.08 710.00 L536.23 706.16 L533.78 704.12 L531.72 704.37 L529.62 704.31 L527.31 702.63 L525.55 705.01 L523.33 703.78 L520.75 698.82 L518.89 700.36 L516.92 700.97 L514.89 700.93 L513.10 704.50 L511.09 705.18 L509.16 708.12 L507.24 712.91 L505.19 716.35 L503.04 717.29 L500.88 721.98 L498.65 724.62 L496.51 717.77 L494.47 712.67 L492.09 719.43 L489.90 719.30 L487.80 717.65 L485.03 726.35 L482.57 728.87 L480.68 724.06 L479.12 716.74 L477.06 715.58 L474.30 720.53 L472.72 715.35 L470.08 718.61 L466.52 727.64 L464.33 726.78 L462.29 725.06 L460.06 724.56 L457.90 723.71 L455.79 722.63 L453.95 720.36 L452.46 716.66 L450.92 713.45 L449.77 708.85 L448.44 705.34 L446.84 703.08 L445.28 700.83 L443.11 700.85 L440.60 702.00 L438.82 700.60 L437.08 699.14 L434.97 698.89 L432.83 698.67 L431.76 695.39 L429.50 695.54 L427.45 695.11 L426.00 693.06 L422.92 695.25 L419.23 698.74 L417.98 696.18 L414.43 699.05 L410.72 702.08 L410.38 697.49 L409.17 694.95 L403.93 700.91 L400.50 702.86 L398.86 701.10 L392.19 709.11 L387.87 712.26 L387.25 708.35 L389.15 700.04 L388.10 697.26 L382.58 702.25 L383.50 696.12 L380.51 696.65 L372.44 705.28 L370.76 703.41 L369.15 701.46 L367.18 700.09 L365.23 698.68 L364.18 695.98 L363.73 692.50 L364.97 686.75 L366.64 680.61 L366.24 677.41 L364.92 675.49 L365.17 671.58 L362.38 671.58 L359.20 671.99 L357.25 670.86 L356.73 668.04 L357.73 663.52 L355.92 662.30 L354.63 660.49 L353.10 658.95 L349.67 659.44 L347.47 658.56 L342.99 659.99 L337.73 662.07 L334.54 661.98 L332.10 661.11 L329.13 660.71 L325.67 660.71 L327.61 655.77 L331.40 649.31 L325.61 651.34 L321.25 652.02 L322.86 647.62 L315.10 650.99 L309.35 652.53 L309.69 649.17 L313.99 642.82 L315.63 638.65 L310.36 639.67 L312.51 635.21 L312.03 632.72 L303.80 635.61 L302.32 633.73 L302.18 630.96 L300.71 629.08 L299.02 627.35 L297.77 625.32 L295.77 623.75 L297.33 620.05 L297.95 616.97 L298.82 613.80 L299.21 610.94 L300.81 607.47 L303.67 603.41 L301.23 602.16 L300.21 600.18 L301.90 596.86 L300.26 595.20 L297.45 594.07 L293.21 593.53 L292.50 591.37 L289.92 590.01 L286.07 589.13 L285.34 586.93 L280.63 586.29 L280.14 583.96 L277.17 582.55 L270.91 582.27 L270.51 579.83 L271.05 577.09 L274.95 573.28 L270.11 572.32 L266.14 571.00 L271.66 566.84 L263.61 566.64 L258.09 565.59 L260.02 562.50 L265.66 558.53 L269.74 555.08 L265.44 553.63 L266.87 550.86 L267.35 548.32 L258.47 547.65 L252.82 546.20 L250.88 543.99 L249.41 541.67 L245.53 539.70 L243.95 537.33 L246.39 534.39 L252.24 531.08 L259.15 527.77 L263.75 524.84 L264.69 522.37 L268.00 519.72 L266.52 517.49 L262.40 515.41 L262.34 513.03 L264.76 510.54 L267.00 508.11 L265.00 505.82 L262.42 503.51 L261.68 501.14 L256.90 498.73 L253.04 496.24 L255.79 493.84 L258.86 491.50 L253.68 488.85 L254.84 486.45 L256.02 484.06 L247.57 480.98 L249.84 478.63 L257.53 476.84 L254.63 474.09 L250.31 471.10 L255.94 469.28 L250.11 466.00 L241.64 462.21 L243.01 459.79 L250.28 458.36 L256.08 456.82 L250.49 453.25 L251.99 450.96 L255.25 449.05 L244.97 444.25 L242.01 440.89 L242.55 438.30 L243.06 435.70 L243.98 433.20 L244.11 430.49 L246.79 428.50 L250.66 426.89 L254.37 425.30 L262.14 425.06 L267.32 424.12 L270.72 422.69 L276.59 422.17 L277.28 419.91 L277.83 417.58 L279.78 415.79 L280.29 413.46 L279.43 410.56 L277.91 407.35 L280.61 405.89 L281.21 403.55 L280.90 400.78 L284.02 399.58 L284.71 397.27 L281.51 393.05 L279.34 389.24 L278.94 386.25 L274.52 381.11 L277.08 379.60 L282.39 379.64 L281.60 376.33 L274.69 369.43 L279.52 369.27 L274.83 363.42 L266.90 355.40 L270.48 354.43 L278.26 356.23 L286.14 358.28 L283.30 353.26 L284.17 350.68 L289.65 351.34 L282.36 342.91 L279.79 337.68 L282.93 336.61 L286.47 335.90 L289.55 334.90 L290.74 332.43 L294.08 331.69 L298.18 331.65 L302.54 331.91 L308.86 333.97 L310.85 332.34 L315.48 333.13 L317.99 332.06 L317.71 328.39 L320.66 327.76 L322.34 325.92 L325.07 325.13 L327.21 323.78 L324.99 317.91 L326.36 315.68 L324.34 309.76 L322.46 303.82 L327.11 305.08 L331.30 305.93 L330.42 300.93 L332.60 299.46 L337.79 301.69 L334.13 293.01 L335.60 290.59 L341.99 294.53 L342.17 290.46 L339.72 282.72 L345.93 286.71 L345.10 280.98 L341.62 271.25 L344.83 271.02 L350.79 275.01 L357.12 279.80 L357.95 276.20 L359.87 274.27 L365.38 278.22 L364.03 270.88 L364.33 266.09 L367.32 265.87 L370.37 265.82 L372.45 264.04 L375.06 263.25 L377.94 262.98 L381.18 263.50 L383.56 262.34 L387.82 265.12 L391.10 266.00 L394.46 267.15 L397.35 267.39 L399.66 266.31 L401.87 265.00 L404.46 264.61 L407.37 265.08 L408.26 260.34 L407.60 251.17 L409.23 247.86 L409.78 241.31 L408.18 228.02 L411.17 227.93 L413.74 226.55 L416.70 226.43 L419.80 226.82 L422.93 227.46 L426.06 228.16 L428.99 228.22 L432.01 228.74 L435.25 230.23 L438.22 230.77 L440.69 229.16 L443.65 229.78 L446.31 228.97 L448.81 227.32 L451.35 225.77 L453.93 224.33 L456.76 224.34 L459.64 224.73 L462.47 224.89 L465.33 225.34 L467.99 224.31 L470.53 221.91 L473.19 220.29 L475.77 217.49 L478.44 215.32 L481.25 214.54 L484.15 215.01 L487.04 215.88 L489.87 215.45 L492.72 215.52 L495.58 216.53 L498.42 215.73 L501.26 215.33 L504.10 215.93 L506.93 216.47 L509.74 217.09 L512.57 217.23 L515.33 218.67 L518.13 218.95 L521.00 218.37 L523.73 219.55 L526.61 218.98 L529.45 218.99 L532.24 219.48 L535.20 218.58 L537.81 220.41 L540.72 220.05 L544.03 217.13 L546.58 219.28 L549.69 218.00 L553.02 215.79 L555.84 216.42 L558.72 216.76 L561.57 217.28 L564.41 217.82 L567.41 217.75 L570.28 218.21 L572.96 219.44 L575.65 220.60 L578.59 220.84 L581.24 222.11 L583.66 224.12 L586.42 224.96 L588.98 226.39 L591.95 226.58 L594.53 227.96 L597.35 228.62 L600.39 228.70 L603.25 229.32 L605.80 230.76 L608.43 231.99 L611.03 233.25 L613.45 234.95 L615.74 236.90 L618.07 238.72 L620.19 240.96 L622.15 243.49 L624.29 245.58 L626.01 248.46 L627.85 251.05 L630.12 252.74 L632.63 253.98 L635.13 255.23 L638.91 254.22 L642.66 253.38 L644.96 255.08 L648.09 255.41 L650.95 256.22 L653.62 257.36 L654.97 260.57 L657.70 261.60 L662.29 259.92 L664.40 261.96 L666.82 263.56 L670.01 264.07 L672.25 265.94 L675.49 266.46 L676.95 269.36 L680.29 269.81 L683.54 270.42 L686.07 271.97 L688.91 273.16 L691.22 275.00 L694.31 275.95 L696.62 277.81 L698.57 280.08 L701.21 281.59 L704.02 282.94 L705.51 285.68 L707.05 288.36 L709.15 290.44 L711.07 292.71 L712.31 295.62 L713.99 298.09 L715.51 300.69 L716.91 303.38 L717.71 306.59 L718.69 309.59 L719.79 312.47 L720.35 315.76 L721.08 318.88 L723.36 320.72 L724.94 323.12 L726.86 325.25 L731.13 325.61 L735.74 325.80 L739.34 326.82 L743.08 327.79 L746.08 329.33 L749.94 330.34 L751.32 333.05 L752.94 335.59 L755.48 337.55 L757.13 340.09 L758.90 342.55 L760.23 345.29 L761.93 347.80 L763.53 350.38 L765.17 352.94 L767.01 355.39 L767.41 358.61 L769.56 360.91 L771.42 363.36 L771.84 366.54 L772.85 369.42 L773.11 372.63 L773.00 375.99 L773.93 378.86 L774.60 381.84 L775.35 384.76 L778.23 386.81 L778.44 389.96 L779.23 392.86 L781.24 395.30 L784.06 397.48 L784.63 400.48 L785.96 403.21 L789.51 405.22 L789.17 408.53 L787.30 412.27 L784.37 416.26 L782.83 419.78 L782.25 422.99 L780.25 426.54 L781.36 429.24 L787.41 430.77 L795.62 431.91 L797.65 434.57 L804.01 436.35 L809.72 438.39 L808.87 441.76 L809.67 444.81 L810.32 447.89 L810.65 451.02 L812.02 454.00 L813.00 457.05 L813.32 460.19 L811.80 463.55 L810.82 466.81 L810.29 470.00 L810.54 473.11 L810.51 476.24 L810.33 479.37 L810.90 482.46 L812.16 485.51 L813.21 488.60 L813.21 491.74 L813.15 494.87 L814.15 498.00 L814.40 501.14 L813.63 504.27 L812.35 507.38 L811.95 510.49 L812.09 513.63 L809.74 516.63 L806.10 519.50 L801.60 522.25 L799.13 525.07 L795.71 527.77 L790.42 530.20 L788.72 532.95 L791.63 536.24 L791.30 539.16 L791.04 542.09 L794.73 545.64 L795.08 548.72 L798.35 552.33 L803.23 556.32 L802.12 559.24 L805.65 563.11 L810.74 567.41 L808.83 570.24 L808.00 573.30 L808.64 576.72 L806.94 579.56 L806.89 582.83 L807.05 586.18 L807.61 589.67 L807.89 593.10 L808.09 596.53 L807.82 599.84 L807.91 603.28 L806.99 606.40 L806.21 609.57 L804.76 612.50 L802.48 615.11 L799.74 617.51 L797.70 620.16 L793.78 622.01 L790.08 623.89 L789.65 627.14 L787.74 629.75 L785.35 632.12 L786.30 636.05 L785.12 639.01 L782.95 641.47 L780.08 643.55 L773.97 643.90 L768.39 644.41 L765.05 646.05 L759.57 646.43 L755.63 647.60 L754.26 650.21 L754.85 654.03 L752.56 656.11 L751.88 659.19 L753.20 663.59 L754.09 667.79 L759.15 674.88 L757.13 677.29 L759.39 682.70 L762.47 688.82 L760.27 691.22 L759.53 694.70 L759.07 698.43 L758.02 701.75 L757.40 705.45 L755.30 707.99 L753.82 711.04 L751.18 713.13 L746.82 713.71 L738.99 711.15 L733.23 710.25 L735.16 716.30 L730.90 716.68 L730.05 720.25 L735.98 730.49 L734.46 733.63 L733.83 737.71 L730.80 739.38 L728.80 742.09 L726.05 744.03 L722.24 744.78 L719.08 746.20 L716.91 748.73 L713.81 750.19 L709.75 750.46 L705.93 750.96 L700.77 749.71 L696.62 749.62 L691.81 748.59 L685.68 745.70 L682.22 746.19 L680.69 749.30 L678.27 751.21 L674.72 751.51 L674.09 756.02 L672.26 758.86 L671.57 763.49 L672.44 770.71 L670.33 773.39 L669.75 778.64 L670.36 786.04 L667.57 787.86 L664.81 789.75 L662.78 792.95 L658.33 791.79 L652.87 788.57 L647.98 786.22 L645.73 788.92 L638.16 780.86 L636.59 784.81 L639.22 797.91 L633.39 793.04 L633.17 800.48 L633.44 809.41 L630.18 810.35 L626.86 811.12 L623.09 810.73 L618.99 809.38 L614.78 807.58 L610.82 806.27 L608.26 808.82 L604.64 808.34 L601.78 810.06 L600.33 816.29 L597.22 817.47 L593.94 818.10 L590.30 817.42 L585.77 813.37 L581.83 811.14 L578.43 810.81 L574.38 807.73 L570.74 806.05 L568.05 808.41 L565.36 810.98 L562.01 810.43 L558.88 810.89 L556.31 814.52 L554.05 820.29 L551.91 827.56 L548.87 829.66 L546.31 835.48 L544.05 844.55 L540.38 843.03 L536.76 841.69 L533.42 842.88 L529.98 843.12 L526.65 844.65 L523.18 844.53 L519.79 845.76 L516.37 846.76 L512.94 848.02 L509.47 848.42 L506.02 850.45 L502.53 852.56 L499.00 852.79 L495.47 852.85 L491.95 852.51 L488.43 852.31 L484.91 852.00 L481.43 851.20 L477.93 850.82 L474.42 850.59 L471.07 848.52 L467.75 846.43 L464.20 846.95 L460.99 844.25 L457.62 843.29 L454.55 840.15 L452.08 833.18 L449.09 830.52 L446.36 826.50 L444.18 819.75 L441.46 816.62 L437.47 820.24 L432.39 828.77 L429.24 827.45 L424.37 833.76 L418.24 844.77 L414.99 843.18 L412.02 840.53 L408.90 838.58 L405.90 836.28 L403.08 833.48 L399.63 832.89 L396.76 830.44 L392.94 830.98 L389.69 829.73 L386.24 829.09 L382.56 829.02 L379.80 826.41 L376.56 825.14 L373.25 824.07 L370.10 822.57 L367.09 820.75 L363.50 820.33 L359.77 820.15 L355.81 820.44 L352.26 819.74 L348.50 819.45 L344.97 818.62 L341.92 816.81 L338.72 815.28 L336.04 812.76 L333.61 809.82 L331.12 807.06 L328.10 805.29 L326.14 801.67 L324.03 798.39 L321.54 795.80 L321.09 789.96 L320.30 784.83 L317.71 782.63 L317.20 777.29 L316.39 772.55 L313.48 770.99 L310.73 769.18 L308.84 766.17 L305.23 765.55 L300.59 766.25 L297.77 764.47 L290.45 768.43 L285.76 768.85 L281.46 768.69 L274.52 771.62 L270.66 770.72 L268.31 768.01 L265.11 766.28 L262.10 764.32 L258.69 762.78 L256.33 760.08 L254.30 757.05 L251.47 754.85 L248.01 753.28 L245.99 750.26 L245.02 746.24 L241.20 744.98 L237.45 743.60 L234.82 741.15 L231.85 738.99 L228.74 736.94 L225.59 734.90 L223.00 732.35 L221.03 729.29 L218.45 726.73 L217.36 722.99 L216.30 719.25 L213.68 716.75 L212.38 713.24 L209.94 710.58 L209.75 706.32 L212.65 699.97 L212.24 696.01 L211.33 692.43 L214.97 685.92 L216.46 680.93 L214.85 677.96 L211.45 676.10 L212.20 671.72 L210.07 669.08 L206.17 667.44 L202.10 665.84 L194.43 666.12 L190.00 664.54 L185.60 662.87 L177.24 663.13 L174.05 660.66 L174.09 656.61 L171.31 653.92 L168.93 651.02 L167.83 647.53 L163.85 645.29 L163.15 641.61 L161.81 638.21 L159.56 635.17 L159.43 631.30 L158.98 627.57 L157.61 624.19 L156.31 620.79 L155.91 617.08 L155.78 613.29 L155.16 609.69 L155.44 605.82 L157.49 601.45 L158.20 597.53 L155.72 594.53 L154.33 591.20 L153.87 587.63 L148.07 585.36 L146.45 582.02 L145.52 578.51 L145.11 574.89 L150.68 570.07 L155.05 565.61 L154.65 562.12 L158.90 557.84 L161.97 553.84 L160.39 550.62 L157.73 547.52 L156.54 544.19 L155.95 540.77 L153.28 537.58 L150.33 534.37 L144.23 531.38 L138.78 528.22 L136.68 524.73 L129.26 521.51 L127.23 517.89 L127.77 514.14 L127.41 510.42 L127.47 506.69 L126.00 502.98 L125.37 499.24 L125.61 495.49 L125.66 491.75 L127.17 488.05 L128.04 484.35 L129.38 480.70 L130.03 477.02 L128.80 473.21 L129.06 469.50 L127.71 465.64 L127.07 461.81 L126.51 457.98 L124.35 453.93 L125.05 450.20 L125.42 446.44 L125.91 442.68 L128.44 439.26 L130.87 435.86 L131.77 432.22 L134.60 428.95 L136.53 425.55 L141.86 422.90 L145.99 420.08 L148.94 417.05 L155.12 414.86 L159.18 412.24 L158.72 408.47 L152.74 403.13 L148.14 398.04 L146.79 393.81 L136.58 386.77 L134.34 382.05 L137.05 378.90 L139.65 375.75 L141.75 372.45 L144.66 369.47 L146.04 365.95 L149.00 363.04 L149.34 359.11 L149.21 354.97 L151.78 351.94 L150.73 347.35 L152.24 343.85 L153.50 340.23 L152.63 335.60 L153.65 331.82 L155.08 328.23 L155.56 324.15 L156.56 320.31 L158.34 316.87 L160.70 313.74 L163.32 310.77 L165.87 307.78 L168.69 304.97 L170.99 301.87 L173.66 299.00 L176.34 296.16 L179.80 293.84 L183.19 291.51 L184.93 288.12 L188.36 285.86 L191.77 283.64 L197.53 283.13 L204.76 283.81 L208.72 282.21 L213.98 281.65 L219.31 281.23 L220.52 277.65 L222.21 274.42 L221.91 269.53 L225.07 267.47 L227.35 264.68 L229.00 261.33 L231.94 259.12 L235.49 257.49 L238.80 255.67 L241.22 253.03 L243.69 250.45 L241.42 243.15 L239.80 236.33 L240.33 231.55 L235.12 220.62 L235.18 215.03 L238.34 212.72 L241.33 210.24 L244.68 208.16 L246.93 204.83 L250.73 203.31 L253.33 200.37 L255.32 196.66 L258.64 194.57 L261.82 192.33 L264.85 189.88 L267.98 187.57 L271.34 185.57 L274.33 183.07 L277.36 180.61 L281.22 179.36 L285.51 178.79 L289.46 177.77 L292.06 174.69 L295.60 173.07 L299.35 171.82 L303.42 171.13 L308.57 172.35 L312.76 172.03 L318.50 174.57 L324.40 177.61 L327.69 175.98 L328.45 169.48 L329.38 163.07 L332.99 161.85 L332.16 151.43 L332.66 143.40 L336.53 142.40 L340.35 141.31 L343.25 138.12 L347.21 137.36 L350.93 136.07 L354.99 135.63 L358.36 133.46 L361.55 130.79 L365.48 130.06 L368.42 126.56 L371.95 124.64 L375.59 123.02 L378.69 119.66 L382.22 117.56 L386.13 116.68 L389.70 114.64 L393.36 112.81 L397.34 112.15 L401.27 111.32 L405.32 111.03 L409.28 110.36 L413.34 110.20 L417.31 109.66 L421.37 109.60 L425.40 109.49 L429.57 110.20 L433.79 111.39 L437.59 110.23 L441.67 110.82 L445.86 112.34 L450.18 115.23 L454.83 121.45 L458.93 123.89 L463.10 127.54 L467.21 131.59 L470.76 129.52 L474.15 124.59 L477.32 114.47 L481.06 111.80 L484.70 105.44 L488.43 97.81 L492.48 99.27 L496.49 99.63 L500.50 100.58 L504.47 102.43 L508.45 102.37 L512.43 102.40 L516.40 102.54 L520.37 102.81 L524.35 102.89 L528.33 103.02 L532.32 103.10 L536.31 103.19 L540.31 103.24 L544.30 103.39 L548.36 103.10 L552.46 102.59 L556.61 101.87 L560.75 101.36 L564.93 100.77 L569.22 99.72 L573.57 98.51 L577.68 98.76 L581.88 98.62 L586.09 98.53 L590.01 99.80 L593.83 101.51 L597.54 103.56 L601.27 105.42 L605.18 106.58 L609.24 107.17 L613.08 108.59 L617.12 109.31 L621.02 110.50 L624.85 111.91 L628.72 113.18 L632.15 115.74 L635.99 117.06 L640.02 117.87 L643.69 119.69 L647.51 121.07 L651.58 121.86 L655.42 123.22 L659.33 124.46 L663.45 125.22 L667.21 126.82 L670.85 128.69 L674.84 129.82 L678.40 131.84 L682.09 133.62 L686.32 134.34 L690.41 135.37 L694.04 137.30 L697.88 138.84 L701.28 141.20 L704.87 143.21 L708.07 145.89 L710.86 149.23 L714.86 150.53 L718.50 152.45 L721.58 155.25 L725.30 157.04 L729.09 158.77 L732.91 160.46 L736.71 162.21 L740.37 164.18 L744.02 166.19 L747.41 168.56 L750.66 171.12 L753.73 173.91 L757.08 176.33 L760.91 178.17 L764.52 180.31 L767.76 182.90 L770.96 185.54 L773.90 188.50 L776.68 191.60 L778.83 195.39 L781.23 198.87 L784.48 201.43 L786.97 204.78 L790.30 207.28 L793.52 209.89 L796.91 212.35 L801.29 213.89 L804.34 216.73 L807.75 219.25 L811.09 221.85 L813.52 225.27 L815.93 228.70 L818.06 232.35 L821.15 235.18 L824.44 237.88 L826.95 241.21 L830.16 243.99 L832.45 247.50 L834.85 250.92 L837.33 254.28 L838.76 258.38 L842.22 261.04 L845.38 263.94 L847.08 267.83 L850.41 270.64 L853.13 273.88 L855.89 277.09 L858.19 280.61 L860.57 284.08 L863.17 287.43 L865.13 291.15 L866.91 294.98 L868.41 298.95 L870.27 302.71 L872.57 306.25 L873.91 310.28 L875.60 314.12 L877.56 317.82 L879.78 321.41 L881.62 325.19 L882.79 329.26 L885.30 332.74 L888.81 335.82 L889.51 340.09 L891.21 343.95 L894.27 347.28 L895.33 351.40 L896.49 355.47 L898.20 359.34 L899.52 363.35 L900.32 367.54 L901.69 371.52 L902.86 375.58 L904.07 379.62 L906.42 383.33 L909.58 386.84 L910.96 390.87 L912.86 394.78 L913.51 399.00 L913.47 403.38 L913.84 407.65 L913.11 412.14 L914.48 416.17 L916.52 420.09 L916.82 424.34 L918.05 428.43 L919.29 432.53 L919.71 436.76 L920.63 440.91 L921.01 445.15 L921.77 449.33 L922.47 453.53 L922.35 457.81 L922.33 462.08 L923.16 466.26 L924.88 470.40 L926.19 474.59 L927.28 478.81 L927.62 483.08 L927.58 487.36 L927.51 491.64 L925.99 495.93 L953.22 500.00 L954.24 495.46 L953.10 490.94 L952.38 486.42 L951.58 481.93 L951.06 477.43 L950.97 472.91 L950.59 468.41 L950.66 463.87 L949.76 459.41 L948.69 454.98 L947.85 450.54 L947.47 446.04 L947.25 441.53 L946.38 437.09 L946.09 432.58 L945.57 428.09 L944.55 423.69 L944.23 419.16 L942.71 414.86 L942.04 410.39 L941.84 405.83 L939.19 401.79 L937.70 397.51 L935.99 393.31 L934.48 389.06 L933.00 384.81 L931.16 380.67 L930.12 376.32 L929.20 371.92 L927.36 367.80 L925.34 363.75 L924.07 359.47 L923.00 355.11 L921.09 351.04 L919.22 346.97 L918.00 342.66 L916.03 338.64 L914.81 334.32 L912.72 330.35 L910.07 326.62 L909.17 322.16 L906.46 318.49 L903.53 314.93 L901.29 311.08 L900.45 306.56 L898.04 302.79 L896.01 298.84 L894.69 294.52 L893.86 289.92 L891.13 286.32 L887.88 283.03 L886.00 278.99 L882.82 275.70 L880.24 272.07 L877.89 268.31 L875.06 264.86 L872.63 261.16 L870.44 257.30 L868.60 253.21 L865.63 249.86 L863.29 246.09 L861.87 241.66 L858.19 238.84 L856.09 234.87 L853.69 231.12 L849.28 228.93 L846.77 225.27 L843.74 222.03 L839.68 219.65 L836.34 216.71 L832.89 213.87 L829.69 210.84 L826.88 207.47 L824.02 204.14 L821.12 200.85 L818.42 197.36 L815.68 193.90 L812.64 190.72 L809.86 187.27 L806.86 184.05 L803.16 181.55 L800.03 178.45 L796.22 176.10 L792.02 174.21 L788.10 172.04 L784.50 169.54 L781.36 166.50 L777.81 163.94 L774.26 161.40 L771.23 158.21 L767.51 155.89 L763.60 153.82 L759.91 151.49 L756.26 149.12 L753.04 146.16 L749.60 143.48 L745.87 141.23 L742.25 138.82 L738.48 136.63 L734.90 134.16 L730.83 132.47 L727.18 130.12 L723.88 127.19 L719.66 125.78 L715.52 124.28 L711.59 122.43 L707.42 121.04 L703.78 118.68 L700.03 116.52 L696.25 114.41 L692.38 112.47 L688.51 110.55 L684.35 109.22 L680.30 107.69 L676.19 106.31 L672.25 104.54 L668.37 102.65 L664.31 101.18 L660.26 99.68 L656.22 98.18 L652.22 96.57 L647.88 95.87 L643.93 94.14 L639.94 92.49 L635.38 92.57 L631.22 91.47 L627.00 90.59 L622.88 89.43 L618.82 88.03 L614.54 87.41 L610.41 86.28 L606.29 85.11 L602.04 84.46 L597.63 84.54 L593.27 84.46 L589.13 83.47 L584.85 83.12 L580.57 82.83 L576.29 82.64 L572.04 82.33 L567.64 82.99 L563.30 83.39 L558.98 83.89 L554.63 84.75 L550.36 85.15 L546.17 84.96 L542.02 84.55 L537.88 84.00 L533.75 83.21 L529.60 82.56 L525.45 81.87 L521.30 81.08 L517.13 80.34 L512.95 79.70 L508.75 79.22 L504.56 77.28 L500.34 77.67 L496.12 78.06 L491.88 77.23 L487.67 78.03 L483.15 70.46 L478.57 64.89 L474.22 65.01 L469.26 56.56 L464.46 52.25 L460.22 55.22 L456.20 59.95 L452.11 63.17 L448.23 67.78 L444.62 73.76 L440.61 76.13 L436.59 78.17 L432.57 80.05 L428.40 80.87 L424.40 82.64 L420.56 85.14 L416.81 87.93 L412.90 89.75 L408.99 91.48 L405.18 93.57 L401.35 95.47 L397.47 97.13 L393.55 98.54 L389.80 100.59 L386.14 102.85 L382.38 104.69 L378.67 106.67 L374.75 107.91 L370.47 108.08 L366.70 109.82 L362.88 111.39 L357.90 109.76 L354.46 112.40 L350.93 114.75 L346.54 114.91 L343.33 117.99 L339.75 120.12 L336.35 122.65 L332.21 123.47 L328.61 125.51 L325.21 127.95 L317.80 122.05 L309.67 115.08 L306.31 117.94 L299.15 113.46 L291.99 109.27 L287.53 110.33 L286.35 117.32 L284.96 123.73 L282.21 127.62 L280.80 133.66 L279.38 139.51 L276.35 142.64 L272.95 145.14 L269.51 147.58 L266.50 150.66 L264.15 154.67 L261.50 158.18 L258.09 160.58 L255.13 163.59 L251.95 166.29 L249.14 169.46 L246.69 173.08 L243.59 175.83 L241.12 179.35 L238.28 182.38 L235.52 185.49 L233.35 189.28 L230.29 192.00 L227.75 195.29 L225.20 198.56 L222.41 201.55 L216.13 200.85 L204.89 195.17 L197.87 194.10 L189.78 192.13 L181.83 190.50 L178.41 193.37 L176.67 197.83 L175.52 202.77 L175.40 208.58 L173.93 213.10 L170.72 216.06 L168.03 219.48 L166.19 223.60 L161.06 225.01 L158.02 228.18 L156.31 232.38 L158.55 239.57 L158.48 244.87 L159.11 250.62 L162.45 258.21 L162.81 263.53 L160.55 266.98 L159.16 271.00 L157.02 274.51 L155.77 278.58 L154.88 282.86 L154.64 287.50 L153.37 291.47 L152.06 295.39 L151.29 299.60 L150.59 303.82 L149.13 307.59 L147.68 311.36 L146.36 315.18 L145.36 319.14 L144.16 322.99 L142.78 326.74 L141.28 330.42 L138.64 333.57 L137.16 337.27 L136.18 341.18 L131.49 343.51 L131.16 347.70 L130.48 351.73 L127.37 354.79 L127.69 359.18 L123.39 361.85 L116.71 363.73 L114.91 367.41 L109.74 369.98 L104.64 372.66 L101.56 376.05 L95.92 378.72 L94.01 382.55 L91.62 386.28 L86.97 389.42 L85.33 393.41 L88.53 398.61 L91.97 403.78 L93.24 408.36 L96.67 413.36 L101.14 418.49 L102.26 422.85 L104.33 427.35 L104.68 431.49 L106.32 435.83 L107.64 440.06 L107.99 444.12 L108.43 448.17 L108.51 452.16 L106.24 455.88 L105.23 459.76 L104.26 463.65 L102.20 467.47 L102.24 471.47 L101.21 475.41 L101.69 479.43 L103.62 483.50 L104.70 487.51 L106.40 491.50 L106.97 495.44 L108.39 499.38 L107.72 503.30 L106.19 507.25 L107.52 511.15 L106.98 515.10 L107.85 519.00 L106.14 523.03 L98.85 527.48 L97.00 531.66 L91.76 536.19 L86.84 540.79 L84.89 545.18 L83.89 549.50 L84.19 553.69 L83.34 558.04 L82.94 562.35 L83.01 566.61 L89.48 569.80 L94.36 573.15 L97.27 576.79 L105.27 579.36 L111.33 582.19 L109.78 586.61 L107.48 591.25 L108.97 595.03 L108.71 599.25 L107.13 603.84 L109.63 607.37 L113.21 610.56 L115.90 613.95 L117.97 617.51 L121.09 620.71 L123.41 624.13 L125.91 627.47 L129.01 630.57 L131.78 633.75 L135.21 636.65 L138.45 639.57 L142.00 642.33 L143.78 645.76 L145.53 649.20 L148.43 652.14 L147.36 656.81 L150.03 659.83 L152.52 662.91 L152.47 667.19 L156.09 669.71 L156.43 673.84 L149.77 681.63 L149.24 686.37 L148.77 691.15 L144.42 698.15 L145.18 702.41 L144.97 707.26 L146.38 711.20 L149.18 714.32 L149.55 718.94 L153.94 721.04 L159.23 722.49 L167.19 722.07 L173.19 722.82 L177.23 724.83 L182.85 725.66 L187.33 727.21 L189.72 730.25 L192.91 732.68 L195.52 735.53 L199.44 737.34 L203.63 738.89 L206.55 741.41 L209.10 744.23 L211.49 747.19 L214.13 749.93 L215.64 753.66 L217.20 757.40 L219.41 760.56 L219.62 765.64 L221.43 769.26 L225.85 770.34 L228.29 773.35 L231.18 775.90 L233.61 778.94 L238.05 779.84 L241.56 781.68 L243.20 785.58 L246.52 787.62 L249.18 790.41 L252.34 792.61 L254.70 795.77 L253.80 802.97 L255.89 806.61 L257.80 810.54 L258.17 816.54 L261.48 818.76 L263.27 823.06 L265.19 827.25 L268.61 829.39 L270.37 833.93 L272.42 838.14 L278.40 836.48 L284.19 834.93 L287.94 836.46 L294.52 833.35 L300.54 830.95 L304.43 831.97 L308.34 832.90 L312.74 832.90 L316.60 833.81 L321.01 833.64 L325.15 833.91 L329.10 834.46 L332.80 835.46 L336.68 836.05 L340.44 836.84 L343.82 838.41 L347.09 840.22 L349.49 844.04 L352.72 846.04 L355.80 848.44 L358.32 852.28 L362.09 853.05 L366.25 852.79 L369.20 855.68 L373.70 854.35 L377.84 853.88 L381.29 855.37 L385.48 854.60 L389.08 855.57 L393.39 854.16 L397.18 854.36 L398.88 862.01 L402.16 864.28 L405.46 866.60 L408.01 872.04 L411.74 872.92 L414.30 878.96 L417.31 883.48 L421.59 882.12 L424.39 888.13 L427.83 891.31 L432.26 889.05 L437.27 882.87 L441.55 880.61 L445.80 878.10 L450.55 871.34 L454.67 868.49 L458.55 867.22 L462.47 865.21 L466.10 865.90 L469.83 865.38 L473.58 864.30 L477.31 863.19 L480.93 863.70 L484.56 863.92 L488.21 864.04 L491.89 862.15 L495.51 862.05 L499.13 862.42 L502.75 861.63 L506.39 862.69 L509.97 861.15 L513.57 860.62 L517.21 861.24 L520.79 860.46 L524.36 859.76 L527.89 858.64 L531.73 861.21 L535.24 859.90 L538.94 860.50 L542.37 858.61 L545.64 855.67 L550.39 863.85 L554.62 867.34 L558.68 869.22 L563.38 874.58 L567.59 876.54 L572.10 879.77 L576.14 880.28 L579.24 876.16 L583.90 879.45 L587.84 879.25 L590.49 873.62 L593.47 869.74 L596.69 866.99 L598.99 861.02 L601.40 855.83 L605.05 855.11 L609.24 856.16 L613.35 856.80 L617.39 857.09 L620.97 855.93 L624.56 854.81 L627.34 851.44 L629.36 846.17 L631.71 842.00 L634.30 838.60 L636.80 835.07 L639.43 832.00 L642.34 829.65 L648.81 835.37 L654.54 839.10 L655.84 833.09 L664.20 842.01 L668.12 841.37 L668.14 832.97 L671.14 830.65 L671.39 823.18 L672.67 817.87 L673.90 812.64 L676.95 810.77 L679.37 807.82 L681.92 805.14 L688.95 809.84 L694.57 812.00 L697.58 809.88 L704.66 814.02 L710.22 815.60 L713.21 813.25 L718.17 813.74 L720.19 809.99 L723.48 808.05 L727.59 807.20 L729.49 803.38 L728.92 796.42 L729.83 791.53 L730.78 786.78 L730.19 780.26 L731.03 775.63 L731.58 770.73 L732.55 766.43 L735.05 763.91 L736.33 760.07 L737.15 755.79 L739.05 752.72 L741.48 750.23 L743.53 747.36 L746.61 745.52 L750.36 744.32 L761.72 750.34 L764.06 747.57 L766.38 744.79 L774.12 746.89 L771.64 739.79 L769.11 732.81 L769.41 728.40 L771.16 725.26 L772.49 721.79 L773.56 718.15 L777.63 716.89 L779.72 714.05 L782.91 712.04 L785.01 709.20 L786.62 706.00 L793.60 706.60 L799.11 706.04 L801.11 703.00 L809.34 704.08 L812.77 701.89 L816.86 700.06 L819.98 697.59 L818.78 692.47 L822.51 690.35 L824.78 687.33 L822.53 681.76 L821.92 677.20 L821.82 672.97 L820.21 668.01 L818.25 662.94 L818.55 659.09 L819.47 655.58 L821.09 652.41 L822.04 648.94 L823.09 645.52 L823.14 641.67 L823.01 637.78 L822.87 633.92 L821.78 629.71 L821.40 625.84 L821.15 622.05 L821.22 618.42 L821.74 614.97 L822.92 611.76 L824.04 608.53 L826.00 605.57 L827.61 602.48 L829.47 599.46 L831.39 596.44 L832.84 593.26 L834.83 590.21 L835.88 586.91 L834.21 582.92 L835.05 579.58 L833.82 575.77 L831.01 571.66 L839.72 569.99 L847.06 567.89 L847.16 564.32 L856.01 562.28 L862.38 559.67 L862.86 556.02 L865.40 552.68 L863.80 548.74 L863.46 545.00 L866.26 541.63 L864.61 537.76 L859.98 533.64 L858.24 529.87 L856.67 526.15 L851.74 522.25 L847.48 518.50 L845.35 514.92 L844.89 511.45 L843.81 507.97 L842.71 504.52 L841.81 501.09 L841.21 497.67 L841.59 494.26 L841.05 490.85 L840.02 487.48 L839.32 484.10 L839.15 480.71 L839.10 477.31 L838.21 473.97 L837.32 470.64 L836.94 467.28 L836.39 463.93 L835.43 460.64 L834.38 457.37 L833.58 454.07 L833.20 450.73 L834.60 447.10 L832.67 443.99 L829.74 441.08 L829.79 437.66 L826.43 434.91 L830.15 430.73 L834.01 426.42 L834.74 422.75 L841.96 417.47 L845.18 413.03 L846.70 408.95 L843.98 405.98 L838.83 403.74 L835.57 401.02 L830.69 398.86 L824.65 397.15 L821.13 394.72 L821.08 391.16 L819.81 388.02 L818.23 384.99 L817.38 381.69 L817.18 378.14 L815.74 375.05 L813.25 372.40 L812.33 369.12 L810.87 366.06 L807.85 363.70 L806.10 360.79 L803.80 358.16 L802.07 355.27 L800.32 352.40 L797.14 350.25 L795.64 347.28 L794.52 344.11 L791.48 341.97 L790.15 338.91 L788.62 335.97 L786.91 333.12 L785.36 330.18 L783.03 327.71 L781.09 325.02 L778.52 322.72 L777.08 319.73 L775.18 317.02 L772.53 314.82 L772.07 311.13 L770.94 307.87 L771.51 303.36 L771.29 299.35 L770.83 295.47 L771.21 290.90 L767.96 289.09 L765.07 287.04 L762.65 284.63 L758.19 283.93 L754.95 282.27 L751.83 280.55 L749.05 278.55 L746.77 276.11 L743.35 274.74 L741.23 272.18 L738.70 270.01 L735.64 268.37 L732.46 266.88 L730.46 264.22 L727.47 262.57 L724.09 261.36 L722.47 258.30 L719.52 256.66 L715.92 255.78 L713.21 253.93 L710.87 251.66 L708.23 249.74 L705.61 247.80 L703.45 245.29 L701.45 242.55 L698.96 240.44 L695.53 239.55 L693.20 237.23 L690.24 235.76 L687.31 234.26 L685.47 231.20 L682.27 230.11 L680.28 227.21 L678.15 224.49 L674.89 223.49 L672.28 221.49 L669.68 219.47 L667.87 216.08 L665.45 213.68 L663.48 210.44 L661.58 207.00 L659.04 204.67 L655.65 203.92 L651.85 203.99 L648.21 203.83 L644.46 203.97 L640.34 204.96 L636.80 204.82 L633.51 204.21 L630.20 203.66 L627.02 202.88 L623.56 202.78 L620.25 202.38 L617.32 201.06 L613.85 201.15 L610.74 200.34 L608.34 197.56 L604.98 197.45 L601.73 197.06 L598.86 195.57 L595.55 195.41 L592.36 194.92 L588.71 196.06 L585.61 195.39 L582.81 193.61 L579.33 194.38 L576.23 193.78 L573.30 192.46 L570.15 192.04 L567.06 191.42 L563.93 190.95 L560.79 190.58 L557.57 190.64 L554.52 189.79 L551.47 188.94 L548.23 189.29 L545.28 187.69 L542.13 187.45 L539.02 186.93 L536.01 185.45 L533.01 183.67 L529.98 181.98 L526.76 182.10 L523.55 182.26 L520.38 181.95 L517.15 182.68 L513.87 184.73 L510.73 184.51 L507.55 185.22 L504.40 185.30 L501.25 186.39 L498.12 187.39 L494.98 186.85 L491.88 188.07 L488.81 189.57 L485.71 189.61 L482.63 190.29 L479.64 192.03 L476.52 191.71 L473.43 191.93 L470.27 191.37 L467.16 191.41 L463.95 190.70 L460.72 189.96 L457.76 191.36 L454.61 191.39 L451.76 193.35 L449.00 195.64 L446.08 196.85 L443.05 197.37 L440.34 199.57 L437.37 200.31 L434.50 201.52 L431.89 203.80 L429.25 205.81 L426.59 207.65 L424.03 209.76 L421.28 211.10 L418.71 213.00 L416.10 214.70 L413.41 216.07 L410.74 217.47 L408.07 218.86 L405.44 220.30 L397.67 207.01 L392.86 202.83 L388.44 200.00 L382.26 192.81 L377.45 189.60 L374.77 191.86 L372.20 194.34 L369.29 195.95 L367.20 199.42 L366.11 204.97 L365.05 210.36 L363.41 214.34 L362.74 220.17 L360.44 222.52 L357.97 224.52 L355.32 226.13 L352.46 227.35 L349.84 229.03 L347.41 231.02 L345.34 233.61 L340.50 231.50 L334.74 228.04 L335.91 235.94 L333.07 237.27 L329.52 237.52 L331.27 245.81 L332.20 252.62 L330.70 255.70 L322.89 249.81 L318.20 248.56 L319.79 255.94 L313.45 252.57 L310.72 254.11 L312.21 261.02 L309.56 262.57 L302.54 258.81 L301.04 261.87 L298.07 263.17 L292.98 262.06 L292.75 266.55 L293.31 271.82 L287.24 269.79 L283.54 270.43 L280.99 272.33 L275.61 271.37 L274.80 275.08 L274.07 278.82 L272.59 281.78 L270.63 284.27 L265.64 283.95 L263.93 286.70 L264.29 291.27 L263.51 294.76 L266.83 301.69 L270.52 308.75 L272.35 314.10 L272.26 317.80 L270.69 320.27 L269.36 322.92 L267.84 325.41 L266.90 328.33 L260.99 327.64 L250.51 323.84 L254.21 330.12 L252.05 332.26 L246.71 332.32 L252.22 339.50 L256.69 345.83 L256.82 349.30 L246.71 346.52 L240.50 346.28 L243.45 351.48 L235.61 350.45 L232.29 352.08 L235.75 357.43 L235.50 360.69 L227.78 360.08 L224.86 362.04 L219.86 363.02 L214.10 363.73 L212.65 366.55 L213.74 370.52 L211.68 373.05 L210.28 375.87 L211.01 379.59 L206.92 381.31 L203.38 383.32 L203.29 386.70 L204.89 390.68 L203.76 393.61 L203.05 396.70 L207.07 401.37 L210.87 405.86 L212.92 409.69 L219.41 414.81 L223.21 418.97 L226.69 422.95 L227.83 426.20 L225.73 428.57 L225.48 431.43 L223.80 433.94 L223.21 436.72 L219.08 438.72 L207.97 439.35 L212.35 443.25 L212.68 446.30 L207.35 448.32 L213.66 452.39 L220.90 456.45 L222.27 459.51 L213.41 461.14 L206.91 463.24 L213.51 466.97 L207.89 469.28 L204.53 471.91 L211.12 475.45 L213.22 478.52 L204.78 480.85 L202.78 483.70 L201.24 486.61 L195.69 489.41 L195.81 492.46 L198.94 495.55 L197.27 498.55 L194.73 501.59 L196.76 504.62 L194.26 507.71 L193.98 510.78 L197.37 513.69 L197.57 516.72 L197.57 519.75 L195.50 522.95 L194.76 526.08 L199.73 528.68 L202.44 531.43 L209.40 533.63 L216.68 535.66 L223.16 537.66 L226.71 539.97 L226.67 542.77 L225.50 545.77 L225.10 548.67 L225.22 551.49 L220.07 555.35 L213.20 559.70 L216.46 561.98 L219.16 564.34 L216.24 568.01 L224.27 569.00 L231.88 569.96 L235.77 571.77 L230.65 576.06 L223.45 581.09 L231.86 581.54 L225.85 586.38 L219.80 591.37 L227.31 591.95 L229.62 594.19 L229.32 597.34 L226.70 601.38 L227.37 604.25 L227.55 607.31 L225.82 611.18 L226.82 613.96 L224.75 618.07 L226.05 620.77 L228.94 622.75 L227.07 626.90 L226.00 630.75 L229.07 632.62 L230.56 635.25 L229.21 639.34 L232.34 641.13 L239.59 640.65 L242.70 642.31 L247.09 643.21 L254.71 642.15 L258.75 643.05 L261.82 644.47 L264.81 645.89 L267.47 647.48 L269.87 649.21 L272.05 651.05 L274.70 652.56 L276.21 654.83 L269.22 663.10 L272.22 664.42 L276.75 664.57 L274.03 670.09 L280.48 668.69 L288.20 666.16 L292.06 666.51 L289.32 672.20 L284.18 680.03 L290.40 678.42 L289.95 682.46 L288.21 687.72 L295.61 684.84 L300.37 684.20 L302.11 686.29 L300.81 691.31 L298.76 697.18 L300.60 699.33 L298.82 705.18 L298.01 710.16 L299.98 712.33 L300.67 715.88 L304.17 716.38 L306.36 718.31 L308.34 720.49 L313.09 719.42 L316.30 720.06 L318.37 722.07 L319.77 724.90 L321.52 727.34 L326.14 726.08 L329.30 726.62 L333.58 725.60 L339.25 722.54 L343.69 721.02 L347.13 720.80 L350.15 721.13 L352.61 722.26 L355.30 723.00 L357.64 724.28 L360.68 724.42 L357.65 734.50 L359.72 736.39 L364.66 733.34 L364.11 739.79 L368.50 737.56 L375.10 731.05 L378.88 729.51 L379.20 734.56 L377.82 743.19 L381.00 742.89 L381.89 747.29 L381.64 754.33 L385.65 752.27 L389.82 749.70 L390.03 756.10 L391.47 759.90 L394.21 760.64 L395.12 765.99 L397.10 768.82 L400.32 768.41 L403.00 769.44 L405.80 770.08 L408.81 770.12 L411.12 772.23 L413.71 773.55 L416.54 774.08 L419.48 774.25 L421.99 775.87 L424.84 776.33 L428.40 774.03 L431.81 772.08 L435.15 770.18 L439.03 765.70 L442.55 762.37 L445.84 759.71 L448.94 757.74 L452.01 755.62 L454.85 754.50 L457.57 753.91 L460.37 752.68 L463.03 752.13 L464.13 762.98 L466.50 765.34 L469.80 760.11 L471.86 765.56 L474.75 763.38 L478.06 755.82 L480.94 751.75 L483.24 755.17 L485.28 764.66 L488.07 761.67 L490.67 762.07 L493.12 768.89 L495.92 761.90 L498.57 756.07 L501.14 756.96 L503.77 761.39 L506.49 765.82 L509.21 767.29 L512.12 772.69 L515.05 776.16 L517.80 775.96 L520.71 777.79 L523.36 776.06 L526.02 774.70 L528.92 775.90 L531.22 771.62 L533.72 769.61 L536.50 769.87 L539.25 769.90 L541.85 768.88 L544.30 766.98 L546.60 764.42 L548.67 760.87 L550.39 755.88 L552.26 752.05 L554.14 748.63 L556.33 746.76 L558.89 746.61 L561.03 744.69 L563.55 744.37 L565.77 742.91 L568.31 742.63 L571.22 743.62 L573.55 742.54 L576.13 742.30 L578.42 741.14 L580.22 738.54 L582.18 736.51 L583.93 733.97 L585.51 731.07 L587.25 728.72 L589.04 726.58 L591.27 725.61 L593.31 724.16 L595.22 722.47 L597.27 721.13 L599.61 720.43 L601.95 719.72 L604.74 719.96 L608.21 721.51 L614.44 728.43 L617.82 729.43 L619.22 726.55 L623.28 728.69 L625.27 726.91 L624.68 720.60 L624.49 715.21 L625.86 712.65 L628.14 711.64 L629.43 709.02 L631.15 707.14 L633.81 706.74 L636.03 705.64 L638.27 704.55 L640.52 703.45 L642.07 701.37 L644.10 699.97 L645.51 697.72 L647.41 696.16 L648.57 693.65 L649.49 690.87 L650.53 688.28 L651.65 685.84 L652.72 683.37 L654.14 681.37 L655.94 679.81 L656.75 677.14 L658.36 675.39 L659.44 673.07 L660.99 671.29 L662.14 669.09 L663.18 666.80 L664.90 665.22 L666.26 663.28 L667.58 661.32 L668.93 659.40 L670.77 657.94 L673.41 657.19 L675.29 655.73 L677.29 654.36 L680.43 653.95 L682.24 652.37 L683.25 650.13 L685.63 649.00 L687.94 647.79 L689.08 645.65 L690.97 644.08 L692.15 641.98 L693.97 640.35 L694.79 638.00 L695.45 635.55 L698.15 634.51 L699.61 632.60 L699.96 629.97 L701.29 627.99 L702.15 625.72 L702.51 623.15 L702.22 620.22 L702.15 617.46 L702.51 614.97 L702.28 612.19 L703.00 609.94 L703.27 607.48 L702.33 604.40 L703.21 602.30 L703.64 599.97 L704.19 597.72 L705.33 595.76 L705.42 593.31 L707.05 591.56 L708.01 589.51 L709.20 587.55 L712.09 586.28 L713.95 584.55 L714.57 582.33 L719.56 581.74 L720.85 579.71 L720.56 577.12 L721.06 574.82 L721.25 572.43 L720.93 569.89 L719.91 567.15 L720.43 564.91 L721.39 562.79 L722.74 560.77 L724.65 558.89 L726.27 556.90 L727.10 554.70 L727.16 552.32 L727.67 550.05 L726.81 547.48 L725.85 544.93 L726.77 542.76 L726.97 540.45 L726.69 538.07 L727.59 535.88 L727.43 533.53 L726.74 531.11 L727.27 528.87 L726.18 526.44 L724.58 523.98 L725.08 521.76 L723.90 519.39 L722.21 517.00 L721.79 514.74 L720.65 512.45 L720.00 510.21 L719.60 507.99 L718.80 505.77 L718.29 503.57 L717.66 501.39 L718.32 499.21 L718.40 497.02 L718.04 494.85 L718.62 492.65 L718.85 490.45 L719.80 488.20 L721.34 485.90 L721.69 483.65 L721.86 481.40 L725.71 478.80 L724.09 476.69 L724.00 474.44 L724.11 472.15 L722.48 470.09 L722.28 467.85 L722.82 465.50 L720.31 463.63 L719.04 461.58 L718.19 459.48 L715.33 457.78 L714.16 455.78 L712.07 453.99 L710.23 452.19 L709.00 450.26 L708.03 448.29 L706.49 446.48 L704.98 444.67 L704.56 442.59 L703.12 440.79 L702.28 438.84 L702.45 436.57 L703.39 434.03 L704.60 431.37 L704.55 429.11 L705.14 426.60 L705.18 424.26 L703.46 422.57 L702.34 420.68 L701.11 418.83 L699.57 417.12 L699.23 414.91 L697.69 413.22 L696.49 411.40 L695.90 409.29 L693.24 408.17 L691.82 406.48 L690.51 404.75 L688.74 403.26 L686.82 401.88 L685.06 400.42 L683.32 398.98 L681.71 397.49 L679.71 396.23 L677.88 394.91 L676.14 393.55 L686.75 384.57 L690.72 379.46 L691.52 376.26 L698.90 368.65 L701.33 364.14 L695.58 365.15 L690.64 365.72 L688.44 364.44 L681.08 366.96 L676.56 367.54 L677.36 364.15 L676.17 362.25 L676.19 359.37 L677.10 355.72 L675.15 354.37 L673.09 353.13 L671.28 351.69 L666.14 353.22 L662.92 353.13 L660.31 352.55 L659.77 350.07 L663.52 343.45 L663.06 340.73 L666.38 334.20 L669.05 328.14 L664.64 329.25 L658.91 331.85 L654.66 333.04 L648.94 335.95 L642.19 340.21 L638.23 341.50 L637.11 339.56 L634.20 339.76 L632.73 338.24 L630.03 338.27 L627.96 337.54 L631.37 329.73 L631.93 325.43 L631.09 322.88 L633.23 316.18 L633.21 312.28 L631.09 311.31 L630.77 307.68 L627.43 308.51 L626.23 306.14 L624.91 303.90 L621.50 304.98 L617.09 307.81 L614.65 307.49 L614.34 303.58 L610.52 305.71 L607.26 306.96 L606.72 303.32 L603.18 305.23 L599.12 308.28 L596.68 308.34 L593.48 309.98 L591.36 309.50 L589.10 309.34 L586.69 309.56 L584.68 308.93 L581.91 310.07 L580.32 308.52 L578.33 307.89 L578.57 301.66 L578.54 295.80 L574.36 300.73 L572.91 298.49 L571.19 296.91 L568.56 297.98 L566.73 296.70 L562.72 302.28 L561.72 298.47 L559.93 297.08 L557.52 297.81 L555.56 297.00 L551.95 302.48 L552.13 293.39 L551.57 286.66 L548.87 288.57 L547.74 283.62 L545.70 282.59 L544.07 279.40 L542.05 277.94 L539.50 279.38 L537.66 276.82 L535.75 274.40 L532.88 278.17 L529.97 282.88 L527.66 283.63 L524.84 288.98 L522.82 287.91 L520.88 285.75 L518.32 290.38 L516.47 287.01 L514.37 286.37 L511.92 291.68 L509.60 296.69 L507.48 298.76 L505.44 299.77 L503.41 301.29 L501.41 303.04 L499.44 301.20 L497.30 289.47 L495.17 288.68 L492.88 283.17 L490.40 275.97 L488.26 277.93 L486.50 285.39 L484.57 288.51 L483.06 295.95 L481.72 303.68 L480.15 307.63 L477.25 299.25 L474.71 295.12 L472.30 292.66 L469.16 285.56 L466.59 283.08 L464.27 282.51 L462.18 283.37 L460.41 285.88 L458.14 285.60 L456.12 286.66 L454.22 288.14 L451.60 286.40 L449.77 288.19 L447.70 288.88 L445.33 288.40 L443.48 289.92 L442.58 294.78 L441.32 298.10 L439.70 299.98 L438.99 304.74 L438.07 308.54 L436.71 310.82 L435.41 313.15 L434.03 315.16 L432.97 317.99 L432.06 321.04 L430.46 322.22 L428.89 323.42 L427.50 325.03 L425.87 326.04 L424.50 327.62 L422.74 328.30 L421.17 329.38 L419.47 330.19 L416.74 328.88 L414.94 329.52 L413.39 330.68 L410.88 329.99 L409.53 331.54 L408.43 333.50 L406.70 334.30 L404.14 333.67 L402.79 335.16 L401.39 336.55 L399.12 336.51 L397.84 338.08 L397.69 341.37 L395.27 341.13 L391.47 338.89 L388.05 337.35 L384.44 335.65 L379.15 331.74 L374.93 329.48 L373.13 330.60 L370.60 330.78 L367.92 330.81 L367.12 333.25 L368.15 337.90 L367.97 340.95 L368.35 344.60 L371.03 350.80 L370.88 353.62 L369.32 354.80 L366.91 355.07 L364.05 354.89 L364.03 357.75 L361.88 358.36 L360.19 359.47 L360.32 362.38 L360.84 365.61 L359.11 366.64 L359.32 369.48 L352.80 366.14 L350.56 366.81 L348.32 367.51 L342.06 364.80 L339.86 365.67 L342.43 370.49 L345.09 375.25 L344.89 377.63 L341.92 377.83 L347.91 384.87 L344.03 384.37 L334.84 380.09 L335.32 382.94 L332.51 383.45 L328.32 383.06 L326.47 384.32 L327.25 387.32 L327.53 389.95 L327.86 392.57 L329.02 395.65 L327.63 397.15 L323.94 397.33 L324.78 400.15 L323.94 401.99 L321.49 402.95 L321.46 405.23 L325.05 409.37 L327.39 412.76 L323.16 412.83 L323.16 415.02 L328.25 419.57 L326.92 421.05 L327.01 423.17 L330.93 426.92 L334.20 430.30 L336.00 432.98 L336.46 435.07 L335.90 436.74 L336.50 438.84 L335.61 440.37 L335.95 442.35 L334.72 443.76 L333.42 445.17 L329.12 445.65 L320.68 444.93 L324.43 448.00 L324.13 449.82 L319.94 450.56 L325.97 454.08 L328.16 456.49 L328.45 458.39 L327.08 459.88 L326.41 461.55 L326.28 463.34 L326.40 465.18 L328.40 467.36 L325.35 468.59 L319.80 469.45 L319.35 471.22 L311.94 471.97 L307.39 473.26 L304.82 474.89 L302.37 476.58 L303.41 478.69 L302.12 480.55 L302.83 482.61 L305.23 484.78 L309.28 487.02 L311.14 489.04 L313.77 491.06 L317.41 493.06 L319.81 494.96 L320.52 496.78 L322.82 498.59 L323.98 500.36 L326.22 502.09 L328.76 503.77 L329.99 505.45 L331.50 507.09 L332.73 508.71 L333.26 510.36 L334.83 511.92 L324.92 514.39 L319.18 516.69 L318.95 518.54 L309.86 521.39 L305.44 523.86 L311.33 525.06 L318.47 525.96 L321.49 527.35 L328.40 528.05 L335.87 528.52 L333.00 530.74 L326.40 533.75 L324.49 535.95 L320.11 538.73 L312.89 542.24 L311.24 544.60 L311.37 546.57 L314.16 547.86 L314.57 549.73 L316.40 551.21 L319.80 552.22 L318.94 554.43 L320.12 556.05 L322.17 557.36 L321.04 559.71 L323.13 560.98 L327.78 561.31 L331.21 562.00 L333.67 562.99 L336.47 563.81 L340.52 564.08 L342.78 565.00 L344.99 565.91 L346.89 566.92 L348.14 568.19 L350.47 568.95 L353.75 569.22 L353.45 571.16 L353.71 572.85 L355.11 573.97 L355.35 575.68 L355.48 577.46 L355.87 579.12 L355.86 581.01 L349.55 586.55 L352.48 586.84 L356.26 586.56 L352.95 590.57 L358.56 589.08 L365.13 586.84 L368.34 586.64 L368.20 588.64 L369.13 589.92 L370.80 590.69 L371.51 592.13 L373.22 592.83 L375.09 593.39 L377.01 593.89 L378.60 594.61 L379.94 595.52 L381.23 596.45 L382.18 597.64 L380.58 601.00 L379.75 603.79 L379.45 606.17 L378.44 609.23 L378.77 611.15 L380.01 612.24 L380.19 614.33 L382.11 614.78 L384.87 614.36 L385.45 616.08 L386.70 617.13 L387.92 618.22 L389.50 618.91 L392.19 618.37 L393.05 619.81 L394.66 620.41 L398.15 618.80 L401.05 617.78 L402.63 618.27 L404.56 618.32 L406.37 618.48 L407.56 619.41 L409.81 618.95 L410.80 620.11 L412.27 620.64 L414.71 619.79 L416.74 619.44 L418.80 619.01 L420.64 618.85 L422.36 618.82 L423.62 619.50 L424.95 620.04 L426.46 620.29 L427.52 621.25 L426.73 625.42 L428.17 625.81 L430.22 625.11 L429.65 629.15 L430.38 630.92 L431.52 631.94 L432.71 632.88 L432.65 636.36 L433.63 637.83 L434.72 639.12 L435.53 641.04 L437.73 639.89 L439.87 638.82 L441.48 638.90 L444.02 636.66 L446.36 634.79 L448.31 633.76 L450.12 633.01 L451.87 632.37 L453.44 632.15 L455.10 631.63 L456.81 630.88 L458.34 630.60 L459.84 630.40 L461.34 630.14 L462.85 629.80 L464.25 629.79 L465.34 630.93 L465.91 634.22 L467.16 634.91 L468.28 636.23 L468.95 639.67 L470.64 638.59 L472.27 637.68 L473.88 636.73 L475.47 635.74 L476.55 637.62 L477.49 640.60 L478.40 644.16 L479.62 645.96 L481.10 645.94 L482.51 646.58 L484.32 643.62 L486.16 639.68 L487.71 638.15 L489.10 638.16 L490.40 639.46 L491.70 641.10 L493.04 642.68 L494.39 644.59 L495.80 645.94 L497.24 647.28 L498.73 645.54 L500.18 644.51 L501.63 645.19 L503.13 647.22 L504.58 646.52 L506.03 646.06 L507.63 648.86 L509.14 649.13 L510.48 646.84 L511.84 645.37 L513.27 645.09 L514.46 642.34 L515.76 641.10 L517.08 640.16 L518.27 638.41 L519.49 637.09 L520.71 635.90 L521.82 634.17 L523.41 635.37 L524.69 634.73 L526.04 634.48 L527.57 635.13 L528.87 634.62 L529.96 633.21 L531.24 632.67 L532.45 631.89 L533.67 631.20 L535.15 631.46 L536.99 633.02 L537.25 628.95 L538.75 629.25 L540.83 631.41 L541.48 628.93 L541.61 625.06 L543.63 626.87 L545.69 628.67 L547.37 629.27 L547.32 625.24 L548.07 623.49 L549.68 623.94 L549.05 618.91 L548.45 614.19 L548.86 612.04 L549.79 611.12 L550.75 610.31 L551.97 610.03 L552.60 608.54 L553.18 606.99 L554.51 606.98 L555.27 605.84 L555.90 604.49 L556.83 603.73 L558.23 603.80 L559.95 604.41 L562.28 606.00 L564.44 607.21 L566.54 608.22 L568.71 609.30 L570.39 609.53 L572.14 609.81 L573.49 609.46 L574.60 608.76 L576.08 608.57 L576.87 607.39 L577.82 606.46 L578.53 605.21 L578.96 603.60 L579.21 601.80 L579.55 600.16 L579.92 598.57 L580.23 596.96 L580.81 595.70 L581.27 594.32 L581.94 593.19 L582.73 592.21 L583.41 591.12 L583.96 589.91 L584.89 589.10 L585.95 588.42 L586.94 587.67 L587.78 586.76 L588.52 585.76 L588.96 584.48 L589.25 583.07 L589.31 581.48 L589.41 579.95 L589.57 578.49 L589.56 576.91 L589.70 575.49 L589.83 574.07 L589.93 572.66 L590.17 571.38 L590.36 570.06 L590.50 568.73 L590.78 567.52 L591.15 566.39 L591.40 565.19 L591.61 563.96 L591.93 562.83 L592.24 561.70 L592.54 560.57 L592.81 559.43 L593.11 558.32 L593.42 557.22 L593.76 556.14 L594.03 555.04 L594.30 553.94 L594.61 552.87 L594.91 551.80 L595.18 550.72 L595.44 549.63 L595.70 548.56 L595.95 547.49 L596.20 546.42 L596.43 545.34 L596.64 544.27 L596.87 543.21 L597.07 542.14 L597.26 541.07 L597.44 540.00 L597.63 538.95 L597.82 537.89 L598.00 536.84 L598.18 535.79 L598.35 534.74 L598.51 533.69 L598.67 532.65 L598.81 531.60 L598.94 530.56 L599.06 529.51 L599.17 528.47 L599.27 527.43 L599.36 526.39 L599.44 525.34 L599.51 524.31 L599.57 523.27 L599.62 522.23 L599.66 521.19 L599.68 520.16 L599.70 519.13 L599.71 518.10 L599.71 517.07 L599.69 516.04 L599.67 515.02 L599.63 514.00 L599.58 512.97 L599.53 511.96 L599.46 510.94 L599.39 509.93 L599.30 508.92 L599.20 507.91 L599.09 506.90 L598.97 505.90 L598.85 504.90 L598.71 503.91 L598.56 502.91 L598.40 501.92 L598.23 500.94 Z"/>
  <svg class="pausebutton" id="pausebutton">
    <circle cx="500" cy="500" id="pausestart" class="pausestart" r="52.65"/>
    <rect height="50.02" width="10.00" y="473.68" rx="2.00" ry="2.00" x="479.99" class="pausesymbol"/>
    <rect height="50.02" width="10.00" y="473.68" rx="2.00" ry="2.00" x="510.00" class="pausesymbol"/>
    <polygon points="530.01,500 479.99,530.01 479.99,469.99" class="playsymbol"/>
  </svg>
  <polygon id="playback-head" class="playback-head" points="941.65,500 921.65,540 961.65,540"/>
</svg>