<?xml-stylesheet href="../../style/waveformjs.css" type="text/css"?>
<svg xmlns="http://www.w3.org/2000/svg" xmlns:xlink="http://www.w3.org/1999/xlink" width="100%" height="100%" viewBox="0 0 1000 1000">
  <path class="svg-wave" id="sp" d="M568.73 500.00 L571.03 500.71 L577.77 501.56 L574.88 502.25 L579.39 503.18 L585.83 504.29 L582.56 504.96 L577.60 505.44 L574.42 505.97 L570.38 506.35 L566.96 506.72 L565.20 507.20 L562.26 507.51 L563.08 508.25 L566.01 509.30 L568.11 510.29 L569.15 511.16 L571.52 512.28 L577.14 514.04 L576.19 514.65 L573.35 514.87 L575.72 516.14 L575.28 516.83 L575.64 517.71 L576.61 518.75 L574.94 519.13 L573.95 519.67 L571.62 519.82 L568.42 519.67 L566.24 519.77 L562.63 519.37 L565.65 521.03 L570.58 523.39 L575.19 525.75 L577.93 527.57 L587.47 531.93 L592.08 534.66 L592.25 535.78 L595.92 538.31 L594.97 539.04 L591.83 538.83 L587.78 538.15 L586.44 538.60 L580.52 536.93 L574.10 534.89 L571.46 534.52 L568.02 533.70 L564.69 532.86 L561.90 532.23 L562.80 533.50 L563.73 534.82 L564.99 536.35 L566.53 538.09 L569.88 540.94 L570.69 542.38 L570.87 543.45 L573.72 546.22 L571.09 545.57 L569.38 545.46 L571.16 547.65 L572.26 549.43 L569.36 548.47 L567.97 548.52 L567.52 549.23 L564.29 547.87 L561.35 546.64 L558.49 545.40 L558.73 546.53 L560.31 548.77 L567.17 555.44 L569.55 558.58 L572.29 562.13 L578.77 569.09 L575.96 567.98 L575.53 568.97 L573.78 568.73 L569.94 566.47 L569.48 567.37 L568.86 568.12 L565.87 566.48 L561.71 563.54 L560.05 563.08 L556.65 560.72 L553.97 559.01 L551.96 557.96 L549.97 556.88 L549.08 557.01 L548.23 557.17 L551.21 561.95 L551.07 563.05 L550.88 564.12 L554.46 570.06 L555.13 572.40 L553.49 571.72 L552.93 572.47 L553.36 574.62 L553.65 576.63 L552.67 576.85 L550.32 575.02 L549.44 575.33 L547.46 573.92 L544.94 571.55 L542.85 569.76 L541.06 568.37 L541.62 570.90 L544.28 577.20 L545.28 580.81 L546.73 585.38 L551.42 596.22 L551.51 598.75 L551.57 601.32 L551.80 604.34 L550.19 603.69 L547.67 601.04 L544.78 597.43 L542.94 595.94 L539.61 590.94 L536.28 585.63 L534.48 583.70 L532.63 581.51 L531.06 579.89 L529.16 577.27 L528.82 578.74 L529.04 581.88 L528.77 583.76 L528.23 584.95 L529.12 590.67 L528.85 593.01 L528.24 594.36 L527.59 595.67 L526.51 595.51 L525.43 595.29 L524.69 596.36 L524.14 598.31 L522.40 595.32 L521.12 594.08 L519.95 593.23 L518.35 590.15 L516.88 587.40 L515.65 585.61 L514.90 586.38 L514.80 591.28 L514.13 593.01 L513.08 592.26 L512.82 597.49 L511.71 596.51 L510.48 594.22 L510.30 601.85 L509.45 603.83 L508.32 602.80 L507.93 611.88 L506.78 611.41 L505.42 606.55 L504.18 602.36 L503.05 599.16 L501.98 595.25 L501.00 592.58 L500.07 589.31 L499.19 588.26 L498.34 586.62 L497.41 588.63 L496.36 592.77 L495.53 590.83 L494.35 595.33 L493.03 600.53 L492.28 597.25 L490.93 601.37 L490.07 599.78 L488.95 600.82 L487.36 605.52 L486.50 603.90 L485.66 602.33 L484.69 601.84 L484.32 597.67 L483.78 594.93 L483.32 592.06 L482.51 591.34 L480.95 594.39 L478.53 601.13 L476.70 604.57 L474.44 609.54 L470.29 621.84 L469.28 620.69 L466.75 625.40 L465.53 624.95 L464.83 622.68 L464.62 618.90 L464.50 615.07 L464.14 612.24 L465.14 605.48 L465.35 601.42 L465.47 597.86 L465.59 594.50 L465.41 592.12 L464.90 590.71 L463.70 591.11 L461.96 592.76 L460.97 592.53 L459.66 593.02 L455.31 600.29 L455.04 598.23 L453.32 599.37 L451.25 601.13 L450.85 599.40 L449.54 599.54 L447.89 600.29 L447.20 599.19 L447.27 596.71 L446.44 595.93 L446.30 593.97 L446.89 590.81 L447.36 587.98 L447.47 585.83 L444.55 588.61 L440.69 592.70 L436.64 596.87 L433.69 599.20 L428.22 605.09 L425.92 606.17 L425.53 604.48 L423.64 604.90 L425.70 599.95 L425.89 597.64 L424.17 597.87 L423.85 596.27 L426.36 591.22 L427.77 587.66 L428.08 585.53 L429.58 582.07 L430.65 579.20 L431.32 576.86 L430.99 575.70 L427.78 577.65 L426.01 577.97 L424.01 578.49 L421.83 579.15 L418.06 581.32 L416.42 581.30 L416.38 579.73 L414.47 579.93 L413.23 579.48 L411.77 579.22 L408.83 580.22 L410.15 577.48 L410.11 575.96 L409.74 574.73 L411.75 571.59 L414.08 568.30 L415.02 566.17 L414.35 565.33 L409.10 567.91 L403.73 570.43 L402.05 570.16 L392.97 575.06 L387.73 577.07 L387.67 575.47 L383.46 576.62 L383.00 575.26 L384.05 572.95 L385.94 570.18 L386.81 568.10 L390.03 564.67 L394.30 560.74 L396.92 557.88 L399.42 555.16 L400.19 553.44 L402.45 550.98 L402.03 549.96 L399.02 550.23 L395.43 550.72 L395.70 549.31 L390.92 550.24 L386.87 550.74 L386.53 549.53 L384.24 549.16 L384.19 547.82 L383.78 546.63 L383.22 545.51 L380.95 545.03 L381.59 543.44 L383.33 541.48 L382.77 540.36 L386.17 537.92 L388.35 535.96 L389.96 534.23 L390.81 532.77 L386.82 532.74 L378.45 533.85 L373.74 533.80 L368.00 533.93 L353.87 536.01 L353.19 534.62 L352.78 533.17 L352.47 531.69 L352.31 530.18 L352.17 528.67 L352.04 527.17 L352.10 525.63 L352.73 524.01 L354.20 522.27 L355.86 520.55 L356.40 519.01 L356.01 517.59 L358.91 515.81 L358.56 514.42 L354.43 513.37 L353.84 511.95 L353.26 510.52 L348.66 509.33 L347.07 507.90 L346.90 506.37 L347.05 504.83 L347.09 503.30 L347.02 501.77 L347.52 500.24 L348.44 498.73 L349.88 497.24 L352.21 495.80 L355.66 494.45 L357.99 493.12 L358.56 491.73 L362.26 490.56 L362.39 489.19 L360.24 487.61 L362.22 486.40 L363.45 485.14 L360.66 483.42 L359.72 481.89 L359.07 480.37 L358.20 478.80 L354.89 476.82 L353.59 475.11 L355.76 473.99 L353.74 472.11 L355.61 470.97 L357.54 469.87 L358.42 468.58 L359.23 467.28 L361.92 466.44 L363.27 465.32 L364.28 464.13 L361.84 462.00 L362.06 460.57 L361.24 458.83 L354.17 455.14 L353.61 453.37 L352.07 451.24 L348.65 448.43 L349.26 446.95 L350.18 445.58 L351.10 444.22 L352.04 442.88 L354.01 441.96 L356.85 441.42 L360.01 441.08 L363.04 440.73 L364.98 439.96 L368.21 439.81 L370.53 439.30 L369.85 437.39 L369.85 435.77 L373.22 435.86 L372.48 433.87 L371.36 431.65 L373.69 431.26 L372.35 428.86 L369.52 425.57 L366.78 422.23 L365.75 419.82 L362.60 416.06 L361.78 413.65 L363.93 413.09 L366.73 412.99 L369.44 412.88 L370.69 411.84 L371.50 410.49 L374.66 410.82 L374.05 408.47 L370.77 404.10 L372.54 403.42 L372.44 401.32 L369.28 396.77 L370.30 395.46 L371.46 394.26 L372.79 393.20 L373.94 391.99 L375.17 390.86 L376.73 390.03 L378.36 389.28 L380.61 389.13 L383.50 389.62 L387.13 390.90 L388.82 390.36 L391.31 390.65 L394.71 391.93 L395.64 390.72 L395.27 388.11 L398.46 389.33 L400.03 388.82 L397.74 383.97 L398.41 382.38 L397.28 378.64 L395.66 374.20 L394.06 369.63 L393.81 366.62 L395.29 365.74 L396.93 365.08 L398.84 364.80 L401.24 365.23 L404.06 366.28 L406.07 366.29 L406.74 364.38 L409.90 366.12 L411.46 365.56 L410.09 360.47 L411.11 358.96 L412.40 357.89 L411.55 353.23 L412.04 350.70 L413.54 349.82 L415.11 349.08 L416.70 348.39 L418.28 347.66 L420.04 347.29 L422.04 347.42 L424.26 348.04 L426.77 349.31 L430.09 352.42 L432.75 354.29 L434.49 354.24 L437.18 356.40 L439.16 357.05 L439.07 352.78 L440.09 351.04 L442.38 352.48 L442.86 349.28 L443.94 347.56 L445.91 348.26 L447.67 348.39 L449.04 347.45 L449.77 344.47 L451.71 345.20 L453.16 344.41 L454.30 342.50 L455.87 342.01 L457.32 341.09 L458.96 340.84 L460.82 341.52 L462.45 341.35 L463.91 340.42 L465.78 341.32 L467.69 342.52 L469.37 342.78 L471.02 342.85 L472.70 343.23 L474.42 343.85 L475.97 343.52 L477.70 344.43 L479.36 345.04 L480.76 343.62 L482.08 341.23 L483.64 340.82 L484.94 337.43 L486.38 335.12 L488.02 334.74 L489.71 335.29 L491.39 335.86 L493.09 337.16 L494.74 337.76 L496.34 336.39 L497.99 337.93 L499.61 337.27 L501.25 335.26 L502.91 334.75 L504.59 333.82 L506.29 332.72 L507.96 333.00 L509.51 335.09 L511.17 334.98 L512.72 336.41 L514.36 336.48 L516.13 335.31 L517.73 335.84 L519.63 333.84 L521.28 334.14 L523.09 333.30 L524.66 334.16 L526.14 335.50 L527.70 336.31 L529.11 337.82 L530.61 338.78 L532.12 339.57 L533.77 339.71 L535.18 340.90 L536.75 341.32 L538.33 341.72 L540.51 339.74 L542.10 340.21 L544.22 338.72 L546.84 335.62 L548.17 337.18 L549.67 338.05 L551.24 338.72 L552.46 340.42 L553.84 341.58 L555.65 341.48 L556.82 343.18 L558.56 343.30 L561.08 341.40 L562.43 342.60 L565.07 340.62 L567.60 339.03 L569.87 338.20 L571.05 339.87 L572.73 340.40 L573.90 342.04 L574.70 344.42 L575.96 345.76 L577.13 347.26 L579.35 346.70 L580.77 347.69 L581.44 350.07 L583.16 350.50 L585.55 349.74 L585.81 352.74 L586.16 355.49 L588.60 354.71 L589.91 355.82 L590.63 357.85 L591.93 358.96 L594.02 358.86 L595.00 360.43 L596.98 360.54 L599.60 359.78 L602.13 359.22 L605.48 357.62 L607.55 357.82 L609.29 358.48 L610.53 359.80 L610.69 362.44 L612.04 363.58 L613.44 364.67 L614.36 366.31 L615.60 367.56 L618.05 367.46 L619.11 368.92 L620.75 369.77 L622.42 370.58 L624.05 371.45 L625.97 372.05 L626.34 374.22 L628.16 374.93 L630.24 375.42 L630.69 377.47 L632.08 378.63 L634.68 378.70 L635.98 379.97 L636.62 381.82 L636.83 384.00 L636.47 386.63 L636.83 388.63 L635.46 391.98 L635.98 393.77 L639.10 393.56 L640.14 394.96 L640.93 396.56 L642.06 397.90 L643.24 399.20 L645.97 399.45 L648.70 399.75 L649.92 401.09 L654.40 400.34 L657.60 400.49 L658.80 401.94 L659.91 403.45 L660.57 405.23 L662.08 406.51 L662.85 408.23 L661.68 411.00 L659.31 414.37 L658.58 416.80 L655.06 420.61 L652.94 423.62 L657.58 423.26 L660.96 423.60 L660.61 425.72 L665.66 425.39 L671.51 424.81 L669.08 427.88 L665.84 431.21 L665.67 433.22 L662.38 436.42 L659.58 439.35 L657.39 441.98 L657.04 443.89 L660.60 444.42 L667.80 443.80 L672.28 444.21 L674.75 445.33 L684.72 444.24 L681.91 447.06 L679.04 449.83 L678.36 451.94 L680.10 453.40 L680.10 455.32 L680.11 457.22 L684.21 458.19 L681.98 460.61 L677.96 463.34 L675.80 465.61 L673.65 467.83 L671.93 469.92 L669.24 472.13 L672.41 473.38 L676.47 474.56 L679.61 475.94 L681.38 477.54 L688.79 478.54 L691.69 480.15 L695.58 481.72 L696.61 483.61 L695.66 485.65 L696.62 487.56 L694.88 489.63 L693.54 491.64 L688.54 493.74 L685.39 495.70 L684.22 497.57 L681.00 499.42 L678.80 501.22 L675.31 502.95 L677.61 504.76 L681.18 506.67 L684.32 508.64 L686.65 510.62 L693.95 512.98 L695.92 515.08 L695.27 516.99 L696.98 519.13 L692.31 520.62 L689.54 522.24 L686.28 523.75 L682.10 525.07 L681.54 526.85 L684.03 529.10 L679.84 530.28 L679.10 532.00 L681.25 534.26 L677.88 535.47 L674.76 536.67 L677.00 538.99 L676.73 540.79 L676.32 542.55 L683.13 546.14 L680.98 547.53 L682.29 549.83 L687.91 553.39 L687.80 555.39 L687.10 557.22 L685.38 558.73 L689.79 562.22 L685.77 562.97 L680.76 563.29 L680.41 565.20 L675.87 565.56 L671.98 566.07 L668.45 566.66 L667.75 568.33 L670.83 571.58 L675.65 575.68 L674.90 577.44 L677.68 580.80 L682.04 584.99 L680.25 586.36 L681.17 589.04 L683.38 592.42 L683.92 595.01 L683.26 597.00 L683.94 599.72 L680.40 600.15 L673.48 598.60 L669.23 598.43 L664.60 597.96 L660.72 597.84 L657.11 597.80 L654.55 598.37 L656.63 601.91 L659.37 605.97 L658.06 607.40 L660.41 611.35 L666.40 617.99 L663.26 618.24 L663.79 621.14 L665.62 625.08 L667.26 628.96 L664.83 629.74 L663.18 631.10 L662.13 632.94 L656.12 630.65 L651.21 629.13 L647.06 628.16 L643.73 627.80 L641.08 628.00 L638.09 627.82 L638.33 630.64 L640.68 635.55 L640.20 637.82 L640.97 641.37 L645.29 648.65 L644.45 650.77 L644.21 653.57 L643.05 655.42 L640.06 655.26 L638.13 656.23 L636.62 657.67 L633.64 657.38 L630.45 656.78 L627.97 656.96 L624.82 656.26 L621.27 654.98 L618.39 654.45 L614.97 653.14 L614.36 655.54 L615.61 660.58 L614.23 662.06 L612.21 662.63 L613.28 667.73 L610.81 667.67 L608.42 667.68 L610.02 673.94 L607.03 673.01 L606.04 675.32 L608.69 683.83 L605.51 682.58 L602.10 680.83 L599.58 680.57 L596.24 678.71 L592.38 675.74 L589.51 674.49 L586.24 672.34 L585.19 674.58 L585.27 679.27 L585.50 684.48 L584.08 686.28 L583.87 690.88 L583.84 696.12 L581.15 695.20 L578.87 695.20 L577.19 696.69 L574.27 694.95 L572.94 697.38 L572.37 702.02 L568.39 697.11 L566.40 697.72 L564.05 697.25 L560.81 693.84 L558.18 692.17 L555.35 689.64 L553.76 691.29 L553.20 696.82 L552.68 702.94 L551.14 705.44 L550.92 713.62 L550.08 719.83 L547.59 719.01 L545.75 721.15 L542.99 718.84 L540.82 719.36 L538.28 717.82 L535.90 716.93 L533.55 716.19 L530.71 711.79 L528.30 709.97 L525.79 706.93 L523.27 703.27 L520.99 701.11 L518.96 701.18 L516.96 701.47 L515.21 705.23 L513.19 705.88 L511.34 709.85 L509.44 714.50 L507.33 715.64 L505.23 717.92 L503.01 715.16 L500.87 718.06 L498.70 715.77 L496.53 716.62 L494.33 717.93 L492.29 713.92 L490.11 714.66 L488.09 712.44 L486.16 709.41 L484.29 706.23 L482.31 705.12 L480.00 707.61 L477.29 713.36 L474.74 716.72 L472.26 718.95 L468.63 729.23 L466.76 725.99 L464.68 724.57 L462.30 724.98 L460.48 722.22 L458.45 720.77 L455.61 723.53 L453.17 724.08 L451.20 722.37 L448.98 721.87 L446.98 720.45 L446.11 714.59 L444.63 711.53 L442.92 709.48 L441.07 708.07 L438.08 710.57 L435.43 711.72 L432.68 713.07 L429.56 715.44 L428.02 712.92 L426.25 711.15 L425.02 707.98 L423.18 706.57 L421.01 706.09 L418.07 707.53 L413.71 712.33 L410.61 713.80 L406.81 716.76 L403.58 718.25 L403.18 713.35 L402.69 708.86 L401.92 705.12 L400.45 702.96 L397.40 703.99 L394.95 703.76 L392.48 703.52 L387.99 706.98 L385.31 706.97 L383.14 706.00 L380.25 706.27 L378.75 704.11 L376.23 703.69 L375.03 701.10 L373.54 699.03 L371.88 697.26 L368.05 698.78 L366.91 696.21 L366.65 692.42 L365.25 690.35 L365.75 685.67 L364.96 682.88 L363.27 681.35 L362.24 678.97 L359.78 678.44 L356.80 678.54 L355.68 676.29 L354.07 674.67 L352.95 672.46 L351.73 670.41 L350.14 668.80 L347.38 668.49 L341.01 672.03 L337.93 671.88 L333.32 673.27 L327.74 675.52 L329.04 670.75 L330.14 666.29 L330.33 662.82 L330.99 658.97 L329.08 657.57 L327.58 655.80 L327.28 652.96 L324.53 652.29 L325.89 648.08 L327.23 643.98 L321.69 645.61 L318.16 645.49 L317.69 642.89 L311.84 644.46 L306.52 645.50 L307.60 641.69 L309.78 637.17 L310.44 633.84 L312.83 629.37 L314.49 625.50 L315.05 622.44 L314.82 619.95 L312.86 618.58 L307.81 619.10 L303.47 619.09 L302.24 617.14 L295.89 618.17 L293.00 617.09 L293.86 613.90 L291.80 612.33 L292.18 609.46 L292.25 606.78 L288.75 605.93 L288.85 603.24 L290.10 600.04 L289.23 597.88 L291.19 594.45 L292.09 591.55 L292.65 588.84 L294.08 585.80 L290.03 585.03 L283.35 585.22 L279.40 584.24 L274.55 583.52 L261.52 585.64 L260.11 583.45 L256.63 581.94 L255.11 579.74 L257.64 576.24 L260.56 572.70 L262.60 569.50 L264.41 566.41 L268.75 562.70 L271.48 559.51 L272.20 556.90 L274.21 554.01 L275.16 551.41 L277.10 548.62 L274.96 546.74 L272.07 544.97 L270.81 542.84 L268.40 540.90 L262.65 539.47 L262.20 537.10 L259.34 535.09 L257.10 532.94 L259.00 530.23 L258.75 527.81 L257.32 525.52 L257.11 523.09 L259.72 520.42 L260.17 517.97 L261.57 515.47 L264.00 512.94 L266.19 510.48 L269.37 508.02 L266.80 505.78 L262.28 503.51 L256.38 501.16 L254.77 498.72 L248.60 496.17 L244.26 493.55 L248.35 491.13 L247.06 488.55 L247.10 486.02 L250.46 483.70 L249.20 481.10 L247.10 478.39 L252.60 476.37 L256.29 474.26 L257.99 471.99 L262.40 470.09 L264.59 467.97 L267.52 466.00 L269.09 463.87 L267.65 461.26 L265.51 458.49 L261.45 455.30 L261.31 452.80 L260.09 450.06 L255.86 446.63 L256.13 444.13 L258.85 442.21 L259.21 439.74 L257.84 436.82 L256.56 433.88 L260.41 432.34 L262.71 430.42 L263.35 428.03 L267.79 426.84 L270.83 425.27 L274.21 423.87 L275.94 421.95 L272.10 418.04 L266.42 413.35 L267.78 411.21 L262.12 406.30 L252.76 399.75 L255.34 397.93 L254.02 394.48 L251.93 390.64 L255.16 389.12 L259.03 387.96 L263.61 387.20 L267.24 386.06 L273.12 386.11 L277.19 385.35 L281.42 384.75 L284.31 383.50 L287.37 382.39 L290.05 381.12 L289.39 377.95 L288.85 374.80 L288.28 371.58 L286.75 367.72 L283.05 362.40 L285.27 360.78 L285.24 357.69 L287.11 355.84 L289.08 354.08 L291.39 352.57 L292.06 349.91 L294.41 348.45 L297.79 347.80 L300.19 346.45 L303.73 346.03 L307.25 345.65 L309.98 344.69 L313.32 344.28 L313.87 341.56 L312.07 336.75 L314.33 335.43 L314.50 332.24 L313.51 327.93 L316.84 327.57 L317.85 325.06 L314.81 318.54 L318.35 318.41 L318.49 314.89 L316.28 308.84 L318.69 307.53 L322.68 307.96 L327.46 309.35 L330.56 308.96 L334.09 309.14 L337.19 308.88 L341.47 310.09 L343.20 308.29 L344.70 306.20 L344.41 301.82 L343.50 296.50 L346.65 296.42 L342.77 286.86 L342.95 282.58 L347.24 284.01 L344.48 275.38 L347.58 275.08 L349.48 273.02 L351.84 271.66 L355.28 272.00 L361.13 276.30 L365.25 278.02 L369.48 280.05 L372.84 280.76 L376.92 282.81 L378.42 280.36 L378.87 275.93 L379.23 271.15 L380.43 267.82 L379.89 260.94 L380.02 255.12 L381.19 251.23 L382.03 246.51 L384.28 244.69 L386.26 242.25 L389.78 243.29 L392.68 243.00 L397.18 246.68 L401.84 251.03 L405.18 252.30 L408.99 254.93 L412.63 257.33 L415.86 258.75 L418.07 257.29 L419.98 254.90 L421.16 250.06 L423.64 249.23 L424.39 242.49 L425.08 235.03 L428.42 236.82 L429.13 228.77 L432.17 229.37 L436.01 233.41 L439.04 234.36 L442.86 239.04 L445.88 240.44 L448.39 239.50 L451.20 240.08 L454.22 241.92 L456.26 238.28 L459.01 238.64 L462.39 243.50 L464.76 241.66 L467.19 240.11 L469.99 241.52 L471.76 233.55 L474.03 229.07 L476.97 231.56 L479.12 224.20 L481.70 221.30 L484.57 222.68 L487.40 223.79 L490.09 221.67 L492.86 220.82 L495.73 225.83 L498.48 227.52 L501.19 231.28 L503.83 234.75 L506.43 237.00 L508.97 239.40 L511.56 240.01 L514.32 237.14 L517.35 231.04 L520.29 227.84 L523.04 227.75 L526.88 216.21 L530.08 212.99 L532.46 217.54 L535.63 215.10 L538.70 213.82 L541.17 216.93 L543.63 219.74 L545.67 224.77 L547.67 229.45 L549.88 232.63 L551.77 237.08 L553.95 239.77 L555.89 243.36 L559.01 241.48 L563.31 234.92 L567.04 231.23 L570.61 228.50 L576.42 217.77 L580.12 215.40 L583.20 215.42 L586.64 214.30 L589.02 216.68 L591.07 219.98 L592.75 224.22 L594.92 226.84 L595.85 232.80 L596.76 238.52 L598.39 242.07 L599.82 245.98 L601.51 249.08 L603.06 252.41 L606.13 252.05 L610.85 248.02 L615.10 245.28 L618.69 244.20 L625.21 237.07 L628.92 236.10 L631.47 237.57 L635.38 236.39 L638.17 237.43 L640.28 239.79 L641.86 243.03 L645.18 243.13 L645.54 248.40 L644.58 255.72 L645.24 260.12 L645.60 264.86 L646.13 269.20 L647.09 272.74 L649.28 274.34 L654.00 272.18 L658.72 270.19 L660.16 272.99 L665.33 270.58 L667.76 272.04 L668.34 275.98 L675.52 271.23 L680.44 269.62 L681.80 272.60 L688.81 268.62 L691.93 269.54 L691.16 275.07 L688.98 282.09 L688.95 286.48 L688.06 291.72 L688.40 295.50 L688.45 299.50 L689.76 302.11 L691.73 304.01 L696.84 302.78 L701.40 302.21 L703.21 304.38 L708.95 302.84 L712.64 303.35 L712.74 307.16 L716.93 307.28 L716.91 311.14 L719.01 313.14 L724.61 312.20 L724.81 315.82 L724.94 319.44 L726.36 322.00 L724.41 327.14 L723.80 331.14 L723.25 335.04 L723.47 338.31 L727.90 338.54 L733.35 338.17 L736.56 339.42 L740.43 340.28 L750.55 337.15 L751.41 340.14 L755.66 341.01 L757.49 343.41 L761.64 344.46 L762.27 347.61 L761.09 351.76 L762.56 354.38 L758.83 359.82 L756.47 364.39 L755.50 368.16 L753.84 372.21 L752.55 376.01 L751.95 379.42 L754.44 381.34 L758.25 382.69 L760.23 384.92 L763.88 386.45 L771.93 386.19 L773.14 388.88 L776.02 390.91 L778.37 393.19 L777.99 396.51 L779.48 399.13 L781.82 401.46 L782.46 404.39 L781.12 407.97 L781.34 411.00 L780.05 414.48 L777.31 418.34 L775.67 421.81 L773.08 425.49 L776.11 427.62 L781.42 429.23 L784.65 431.44 L786.98 433.90 L793.26 435.54 L795.45 438.15 L795.58 441.20 L798.81 443.66 L800.10 446.51 L800.25 449.58 L802.40 452.32 L805.53 454.96 L800.62 458.75 L796.89 462.28 L795.32 465.48 L791.55 468.87 L789.13 472.05 L786.65 475.18 L786.08 478.11 L788.65 480.81 L790.35 483.62 L791.40 486.48 L790.51 489.43 L790.78 492.33 L791.31 495.23 L790.10 498.15 L787.83 501.04 L788.40 503.93 L794.59 506.96 L799.35 510.07 L797.08 512.97 L798.70 516.03 L800.27 519.13 L796.04 521.84 L792.85 524.55 L789.82 527.22 L788.96 530.05 L792.85 533.42 L797.77 537.00 L795.77 539.76 L801.67 543.63 L809.72 547.96 L810.40 551.25 L814.29 555.12 L817.37 558.94 L819.83 562.71 L815.24 565.09 L811.66 567.61 L806.77 569.77 L800.03 571.40 L795.84 573.54 L790.80 575.38 L788.12 577.77 L784.98 579.99 L782.27 582.28 L783.65 585.77 L784.58 589.16 L783.09 591.82 L783.28 595.02 L784.16 598.49 L780.58 600.40 L780.04 603.37 L778.06 605.82 L775.67 608.08 L777.49 612.00 L781.27 616.81 L780.31 619.71 L779.03 622.48 L781.61 626.99 L776.64 628.09 L772.53 629.51 L769.11 631.20 L765.80 632.89 L767.27 636.98 L771.39 642.54 L771.56 646.12 L773.40 650.65 L778.74 657.25 L776.95 659.91 L775.57 662.81 L773.81 665.48 L772.02 668.14 L771.94 671.87 L770.91 675.03 L769.05 677.67 L767.65 680.61 L766.59 683.81 L763.95 685.91 L761.52 688.14 L759.86 690.92 L756.97 692.78 L754.45 694.89 L752.18 697.19 L749.25 698.94 L746.01 700.42 L745.23 703.90 L743.07 706.25 L740.11 707.90 L738.03 710.30 L735.54 712.34 L732.19 713.56 L731.47 717.21 L729.85 720.05 L728.45 723.13 L729.34 728.53 L727.02 730.79 L725.49 733.87 L722.74 735.69 L719.37 736.82 L716.62 738.59 L713.70 740.15 L710.60 741.49 L707.62 742.94 L705.91 745.87 L703.40 747.88 L701.93 751.16 L699.99 753.91 L698.06 756.70 L695.61 758.84 L693.37 761.26 L692.05 764.98 L687.95 764.85 L686.47 768.42 L683.50 769.86 L680.20 770.79 L678.50 774.14 L674.42 773.82 L672.22 776.43 L668.98 777.37 L665.46 777.82 L662.48 779.11 L660.15 781.55 L657.31 783.12 L654.47 784.68 L651.80 786.54 L648.29 786.83 L644.82 787.11 L642.04 788.74 L639.88 791.69 L636.79 792.71 L635.04 796.66 L632.61 799.23 L629.03 799.19 L626.06 800.54 L622.87 801.35 L619.64 802.02 L616.72 803.48 L614.36 806.45 L610.76 806.13 L608.08 808.30 L605.67 811.37 L602.74 812.98 L599.87 814.84 L597.31 817.78 L594.56 820.17 L590.95 819.70 L588.00 821.52 L584.68 821.97 L581.39 822.55 L577.97 822.56 L574.90 824.01 L571.82 825.48 L568.24 824.68 L564.80 824.39 L561.67 825.66 L558.36 825.96 L554.50 822.98 L551.30 823.73 L548.25 825.50 L544.80 824.58 L541.50 824.57 L538.32 825.57 L535.18 826.97 L531.85 826.80 L528.83 829.87 L525.65 831.67 L522.43 833.37 L519.28 836.84 L515.93 837.58 L512.56 837.91 L509.13 836.12 L505.75 835.13 L502.40 835.32 L499.05 834.65 L495.73 832.50 L492.38 833.75 L488.96 836.18 L485.71 833.37 L482.25 835.67 L478.80 836.98 L475.43 836.70 L472.11 835.97 L468.73 835.84 L465.41 835.16 L462.10 834.43 L458.84 833.41 L455.40 833.76 L451.87 834.66 L448.61 833.64 L445.42 832.24 L442.19 831.17 L438.94 830.22 L435.80 828.80 L433.04 825.56 L429.49 826.27 L426.00 826.59 L422.82 825.49 L419.33 825.66 L416.37 823.69 L413.24 822.46 L409.61 823.04 L406.10 823.10 L402.25 824.21 L397.97 826.55 L394.03 827.61 L390.05 828.66 L386.11 829.46 L382.91 828.05 L379.54 827.12 L376.30 825.85 L374.70 820.36 L373.21 814.84 L370.79 811.83 L369.97 805.13 L367.92 801.55 L362.69 805.15 L359.04 805.07 L356.36 802.87 L349.85 808.60 L345.79 809.06 L345.12 802.77 L343.36 798.80 L341.11 795.86 L340.42 790.16 L339.19 785.60 L337.88 781.30 L335.41 779.09 L332.25 778.06 L327.26 779.97 L322.35 781.58 L319.68 779.57 L313.65 782.68 L308.57 784.16 L307.77 779.28 L303.94 778.83 L300.33 778.02 L297.74 775.76 L294.01 775.04 L290.52 773.95 L289.41 769.76 L287.39 766.80 L287.34 761.46 L286.37 757.35 L285.66 753.02 L283.75 750.16 L279.77 749.67 L273.69 751.45 L269.84 750.64 L265.34 750.47 L257.23 753.98 L253.91 752.35 L248.21 753.08 L246.57 749.69 L244.63 746.62 L241.19 744.99 L241.19 740.12 L240.46 736.02 L240.89 730.93 L240.12 727.00 L240.39 722.23 L240.69 717.52 L240.18 713.55 L239.15 710.06 L236.33 708.02 L231.61 707.42 L228.72 705.36 L223.78 704.78 L214.58 707.21 L215.62 702.14 L209.58 702.10 L206.03 700.24 L208.79 694.13 L207.27 690.93 L208.29 686.14 L208.99 681.63 L206.73 678.98 L205.37 675.79 L206.38 671.23 L203.45 668.99 L200.57 666.69 L202.81 661.57 L201.59 658.39 L197.45 656.73 L198.87 652.19 L193.07 651.29 L187.28 650.28 L187.79 646.21 L181.36 645.35 L174.98 644.35 L174.59 640.65 L174.31 636.92 L170.60 634.62 L167.01 632.22 L171.20 626.76 L171.63 622.84 L172.01 618.97 L175.14 614.17 L176.14 610.20 L177.76 606.06 L178.11 602.39 L175.28 599.72 L173.38 596.74 L168.66 594.55 L168.48 591.02 L162.49 589.05 L154.78 587.40 L149.33 585.06 L144.76 582.41 L140.11 579.71 L137.37 576.52 L137.99 572.62 L142.91 567.92 L149.10 563.11 L151.68 559.06 L154.80 554.99 L157.56 551.04 L159.43 547.29 L159.41 543.82 L153.90 541.02 L148.92 538.05 L149.35 534.46 L142.40 531.54 L137.48 528.32 L139.44 524.54 L135.48 521.15 L131.87 517.67 L130.33 514.04 L131.30 510.31 L129.28 506.66 L133.12 502.92 L139.26 499.27 L142.80 495.70 L146.60 492.21 L148.52 488.74 L151.81 485.35 L152.26 481.89 L148.40 478.16 L143.73 474.29 L145.65 470.86 L140.79 466.85 L134.02 462.53 L133.57 458.77 L130.87 454.73 L129.89 450.85 L127.55 446.74 L131.08 443.47 L133.73 440.13 L135.59 436.68 L142.75 434.24 L145.31 431.04 L149.61 428.23 L153.01 425.30 L156.02 422.34 L158.55 419.32 L156.40 415.17 L153.20 410.69 L155.16 407.51 L153.87 403.45 L151.30 398.96 L156.93 396.86 L155.41 392.64 L152.48 387.90 L155.90 385.19 L153.07 380.38 L149.17 375.09 L153.77 372.82 L157.87 370.42 L161.17 367.79 L166.59 366.04 L171.37 364.13 L174.85 361.75 L178.69 359.57 L180.35 356.47 L180.31 352.59 L178.41 347.80 L178.63 343.95 L179.19 340.24 L176.04 334.61 L178.78 331.94 L179.65 328.29 L179.41 324.01 L183.17 321.93 L179.22 315.46 L179.20 311.16 L185.38 310.53 L187.30 307.40 L191.39 305.64 L196.12 304.35 L199.42 302.19 L204.26 301.11 L203.63 296.36 L201.13 290.21 L200.32 285.13 L201.57 281.48 L196.64 273.18 L196.84 268.56 L197.96 264.60 L198.89 260.45 L202.56 258.47 L205.50 255.93 L209.15 254.01 L211.60 251.09 L218.85 252.40 L223.65 251.67 L227.29 249.97 L232.42 249.70 L236.91 248.93 L241.96 248.76 L243.37 245.09 L244.37 240.96 L246.64 238.07 L249.14 235.41 L248.09 228.92 L249.94 225.46 L252.27 222.49 L252.03 216.57 L255.35 214.65 L257.62 211.51 L260.25 208.78 L261.70 204.56 L266.66 204.72 L270.65 203.73 L274.31 202.36 L279.08 202.51 L284.14 203.16 L288.75 203.32 L291.09 200.31 L292.62 196.07 L292.29 188.94 L294.73 185.84 L296.43 181.53 L296.18 174.01 L300.69 174.02 L304.18 172.40 L306.48 168.78 L310.58 168.21 L313.94 166.39 L315.71 161.66 L320.96 163.33 L326.29 165.32 L329.93 164.17 L335.37 166.69 L340.29 168.33 L344.70 169.07 L348.47 168.52 L350.66 164.46 L352.36 159.16 L355.13 156.17 L357.79 152.81 L359.69 147.45 L362.41 143.96 L366.34 143.55 L370.82 144.74 L374.24 143.07 L377.34 140.45 L380.62 138.25 L384.18 136.90 L388.04 136.48 L391.29 134.03 L395.85 136.10 L400.31 138.04 L404.56 139.45 L408.64 140.33 L411.59 136.77 L413.96 130.48 L417.42 128.56 L420.44 124.47 L422.34 114.43 L426.28 114.11 L429.80 111.46 L433.59 110.24 L437.70 110.89 L441.65 110.63 L445.71 111.23 L449.96 113.50 L454.22 116.29 L458.31 118.16 L462.42 120.74 L466.47 123.23 L470.41 125.11 L474.34 127.34 L478.00 126.04 L481.60 122.84 L485.31 121.20 L489.05 119.24 L492.79 115.44 L496.62 114.10 L500.48 113.01 L504.32 115.37 L508.15 116.48 L512.02 115.38 L515.86 115.62 L519.87 112.49 L523.64 114.52 L527.52 114.32 L531.32 115.28 L534.84 119.23 L538.46 121.46 L541.97 124.29 L545.83 123.84 L550.16 120.00 L554.36 117.70 L558.72 114.71 L564.03 106.37 L568.88 101.68 L573.47 99.07 L578.44 94.85 L582.78 94.24 L586.77 95.35 L590.77 96.46 L594.70 97.77 L598.49 99.69 L602.15 102.02 L605.54 105.23 L608.98 108.10 L612.82 109.47 L616.34 111.90 L619.57 115.15 L623.55 115.95 L627.13 117.95 L630.41 120.80 L634.08 122.44 L637.95 123.53 L641.61 125.18 L645.64 125.89 L648.91 128.53 L652.13 131.20 L657.04 129.84 L661.97 128.59 L665.57 130.48 L671.08 128.19 L675.87 127.62 L679.02 130.57 L682.73 132.33 L686.22 134.53 L688.93 138.19 L693.06 139.12 L696.98 140.49 L699.19 144.93 L702.72 146.96 L707.13 147.49 L709.26 151.89 L713.09 153.41 L718.93 151.76 L722.66 153.57 L726.68 154.94 L732.14 154.23 L736.98 154.52 L740.17 157.28 L742.55 161.14 L744.76 165.18 L747.84 167.99 L751.11 170.54 L752.42 175.59 L755.33 178.54 L758.83 180.73 L760.85 184.74 L763.28 188.21 L765.84 191.49 L769.44 193.56 L772.30 196.49 L773.63 201.07 L776.26 204.19 L780.59 205.51 L785.75 206.04 L789.63 207.95 L794.79 208.63 L801.52 207.89 L803.65 211.66 L805.94 215.24 L809.18 217.94 L809.97 222.85 L813.07 225.67 L817.60 227.26 L818.47 232.00 L820.16 236.00 L824.34 237.96 L825.43 242.41 L826.54 246.80 L832.19 247.70 L836.66 249.57 L838.86 253.17 L844.03 254.62 L849.34 256.07 L851.21 259.95 L852.38 264.29 L852.72 269.13 L853.95 273.35 L856.43 276.76 L856.26 281.79 L857.35 286.01 L860.37 289.07 L859.69 294.27 L859.18 299.30 L861.52 302.71 L862.42 306.90 L863.52 310.95 L865.84 314.37 L867.37 318.19 L869.46 321.73 L874.37 323.96 L879.41 326.20 L881.86 329.68 L888.43 331.38 L891.73 334.58 L892.32 338.94 L894.55 342.61 L894.78 347.08 L894.95 351.54 L898.79 354.63 L899.54 358.87 L898.60 363.67 L900.45 367.49 L902.39 371.30 L900.95 376.17 L904.23 379.57 L907.84 382.92 L908.67 387.09 L912.84 390.37 L915.94 393.99 L917.08 398.13 L917.34 402.48 L916.90 406.97 L916.67 411.38 L917.57 415.55 L916.67 420.06 L915.86 424.52 L916.17 428.75 L914.63 433.28 L912.25 437.88 L912.44 442.07 L913.20 446.17 L913.13 450.37 L913.34 454.53 L914.18 458.63 L914.68 462.76 L916.58 466.79 L922.53 470.56 L923.03 474.78 L927.10 478.82 L931.83 482.91 L930.56 487.27 L930.70 491.58 L930.62 495.88 L956.98 500.00 L953.75 495.46 L953.61 490.93 L952.73 486.41 L950.09 481.99 L950.20 477.47 L950.46 472.94 L950.35 468.42 L953.41 463.65 L954.39 458.99 L957.66 454.08 L960.32 449.16 L959.40 444.61 L962.07 439.59 L961.27 435.00 L957.72 430.82 L954.16 426.71 L951.02 422.58 L948.33 418.42 L944.41 414.53 L942.34 410.33 L940.77 406.05 L937.78 402.10 L934.39 398.29 L932.05 394.27 L931.06 389.93 L931.39 385.24 L933.16 380.12 L931.48 375.93 L933.64 370.60 L933.52 365.90 L928.45 362.75 L928.79 357.90 L927.41 353.60 L922.51 350.54 L920.35 346.56 L921.54 341.33 L917.63 338.02 L913.73 334.75 L912.31 330.52 L908.40 327.33 L905.85 323.60 L905.11 319.09 L903.84 314.79 L904.81 309.42 L904.64 304.54 L904.83 299.43 L906.10 293.72 L904.16 289.59 L902.30 285.42 L900.18 281.38 L897.42 277.70 L891.34 275.94 L885.83 273.93 L884.96 269.24 L880.85 266.50 L875.52 264.57 L873.34 260.70 L869.38 257.99 L864.28 256.09 L860.14 253.62 L856.77 250.65 L857.42 244.83 L857.42 239.40 L854.27 236.23 L853.91 230.96 L853.56 225.60 L848.85 223.62 L844.76 221.21 L843.26 216.69 L838.48 214.90 L833.68 213.19 L833.16 207.80 L829.32 205.29 L823.77 204.37 L821.19 200.78 L817.27 198.45 L813.85 195.67 L810.95 192.38 L808.25 188.89 L806.41 184.51 L804.14 180.51 L801.39 177.00 L800.57 171.35 L796.88 168.79 L794.23 165.07 L793.49 159.10 L788.61 157.90 L784.29 156.10 L779.32 155.15 L775.20 153.20 L770.47 152.08 L765.20 151.72 L761.29 149.64 L757.33 147.66 L752.38 147.07 L747.11 147.04 L742.91 145.54 L740.85 140.91 L739.02 135.81 L735.49 133.24 L732.48 129.85 L731.22 123.55 L727.30 121.49 L722.11 121.61 L719.13 117.99 L714.78 116.75 L709.00 118.15 L705.58 115.32 L701.91 112.92 L696.51 113.90 L692.46 112.31 L688.46 110.65 L683.60 110.82 L679.62 109.18 L675.63 107.56 L671.75 105.71 L668.68 101.92 L664.98 99.56 L661.13 97.51 L658.87 91.36 L654.83 89.66 L651.03 87.26 L647.53 84.00 L642.96 83.71 L637.55 86.02 L633.22 85.25 L629.18 83.59 L624.10 85.33 L619.43 85.91 L615.06 85.55 L610.22 86.98 L605.25 89.18 L600.60 90.32 L596.27 90.29 L592.04 89.96 L587.81 89.61 L583.59 89.33 L579.51 88.36 L575.68 85.96 L571.75 84.02 L568.64 76.79 L565.66 67.88 L561.79 64.03 L558.07 58.55 L554.38 52.01 L549.99 50.70 L545.21 53.03 L540.49 55.24 L535.75 58.49 L531.22 59.77 L526.70 61.45 L522.21 63.07 L517.91 61.22 L513.49 61.95 L509.16 59.69 L504.76 58.94 L500.35 61.09 L495.94 58.66 L491.48 56.40 L487.01 55.28 L482.51 54.14 L478.01 53.45 L473.38 50.84 L468.87 50.89 L464.63 54.42 L460.41 57.38 L456.39 61.86 L452.35 65.39 L448.36 68.87 L444.58 73.42 L440.68 76.60 L436.61 78.28 L432.46 79.33 L428.49 81.44 L424.28 81.97 L419.94 81.92 L415.69 82.38 L409.75 74.90 L404.89 73.07 L400.31 72.70 L394.72 68.31 L389.91 67.42 L386.24 71.00 L382.63 74.59 L379.52 79.77 L376.19 83.90 L372.32 86.07 L368.55 88.50 L364.46 89.89 L360.15 90.66 L355.43 90.26 L350.47 89.35 L347.00 92.53 L343.41 95.32 L337.67 92.63 L332.49 91.56 L328.61 93.73 L323.33 92.64 L318.33 92.31 L314.10 93.80 L310.90 97.50 L307.75 101.21 L305.86 107.38 L304.38 114.13 L301.18 117.35 L299.76 123.86 L297.28 128.21 L292.63 128.58 L289.86 132.31 L286.39 134.76 L281.47 134.78 L278.82 138.60 L276.39 142.71 L268.74 138.56 L264.21 139.48 L260.48 141.65 L253.39 138.92 L248.64 139.75 L244.99 142.20 L243.07 147.02 L242.07 153.00 L240.83 158.52 L239.01 163.16 L237.91 168.64 L236.73 173.90 L233.57 176.66 L229.18 177.95 L225.10 179.65 L220.93 181.30 L215.60 181.70 L210.40 182.33 L205.82 183.72 L200.78 184.68 L197.58 187.62 L194.10 190.29 L190.74 193.08 L187.06 195.58 L186.64 201.21 L186.32 206.84 L186.23 212.58 L184.73 216.95 L184.61 222.49 L187.17 230.25 L184.26 233.20 L183.28 237.75 L181.68 241.75 L180.41 245.98 L177.07 248.54 L173.81 251.21 L168.64 252.46 L160.42 251.58 L156.72 254.10 L151.28 255.45 L144.58 256.01 L139.92 258.07 L140.84 263.87 L140.31 268.64 L141.09 274.18 L141.01 279.11 L142.34 284.84 L143.99 290.64 L139.89 293.05 L134.12 294.57 L134.06 299.33 L128.99 301.35 L124.71 303.86 L125.33 308.93 L119.80 310.88 L114.70 313.12 L113.41 317.25 L108.96 319.91 L104.82 322.77 L103.10 326.74 L104.17 331.90 L105.22 336.99 L107.24 342.40 L110.27 348.12 L111.91 353.22 L113.78 358.32 L115.41 363.27 L113.76 367.02 L112.76 370.99 L112.39 375.16 L111.16 379.04 L109.81 382.88 L110.82 387.42 L102.44 389.29 L97.78 392.31 L95.17 395.94 L88.89 398.70 L85.27 402.20 L86.17 406.77 L87.57 411.41 L90.25 416.26 L93.11 421.08 L94.78 425.59 L101.20 430.89 L101.66 435.07 L103.88 439.49 L106.26 443.87 L103.17 447.48 L101.02 451.25 L99.66 455.14 L97.95 459.01 L89.95 462.34 L85.94 466.14 L86.55 470.35 L81.13 474.17 L76.59 478.14 L78.34 482.45 L81.01 486.76 L84.25 491.02 L89.19 495.24 L92.42 499.35 L99.52 503.37 L102.94 507.31 L100.77 511.34 L102.22 515.29 L101.01 519.33 L97.25 523.55 L95.87 527.69 L99.19 531.49 L93.78 536.01 L89.34 540.54 L90.93 544.52 L86.04 549.25 L82.09 553.96 L83.74 557.98 L87.17 561.72 L91.63 565.23 L96.73 568.56 L100.84 571.98 L108.55 574.64 L115.38 577.33 L117.91 580.80 L117.67 584.86 L115.35 589.42 L113.00 594.05 L108.99 599.18 L105.44 604.29 L102.39 609.36 L102.15 613.72 L102.05 618.06 L101.83 622.48 L100.68 627.21 L103.02 630.85 L107.29 633.81 L111.46 636.74 L117.19 639.05 L120.78 642.05 L124.77 644.85 L132.04 646.29 L130.58 651.16 L131.39 655.15 L134.37 658.22 L136.04 661.84 L135.70 666.38 L137.10 670.14 L139.82 673.28 L138.12 678.58 L138.98 682.66 L141.60 685.86 L140.51 691.01 L143.42 694.06 L148.74 695.75 L148.69 700.41 L149.59 704.56 L154.04 706.63 L154.92 710.82 L156.72 714.46 L161.23 716.38 L166.72 717.60 L170.13 720.10 L176.75 720.39 L179.08 723.54 L178.61 728.67 L183.15 730.25 L179.00 738.21 L178.78 743.38 L180.16 747.41 L179.57 753.04 L181.09 757.05 L185.43 758.78 L190.08 760.20 L195.45 760.93 L200.56 761.79 L205.47 762.74 L210.87 763.15 L215.49 764.20 L220.38 764.91 L222.12 768.59 L225.86 770.33 L228.69 772.95 L229.62 777.51 L231.96 780.67 L228.98 789.53 L230.28 793.98 L232.06 797.97 L232.08 804.00 L233.97 808.02 L237.94 809.63 L243.08 809.78 L248.38 809.64 L254.00 808.99 L257.98 810.30 L263.09 810.10 L265.44 813.47 L268.04 816.55 L271.72 818.15 L273.73 822.10 L276.37 825.21 L281.70 824.36 L280.89 832.70 L281.88 838.51 L286.21 839.20 L287.04 845.50 L288.85 850.34 L292.95 851.46 L297.37 851.94 L302.51 851.09 L307.80 849.83 L313.96 846.80 L318.73 846.17 L323.94 844.55 L329.74 841.60 L332.72 844.20 L335.65 846.94 L338.77 849.36 L342.05 851.44 L345.59 852.96 L349.16 854.40 L353.08 855.01 L357.38 854.62 L362.47 852.09 L366.11 853.15 L368.88 856.57 L372.95 856.45 L377.08 856.08 L380.46 857.85 L384.13 858.76 L387.83 859.57 L391.33 861.01 L394.88 862.29 L397.86 865.66 L401.22 867.77 L404.75 869.34 L407.64 873.55 L411.18 875.32 L414.45 878.32 L417.89 880.77 L421.64 881.89 L426.09 879.44 L430.31 877.83 L433.96 879.31 L438.21 877.16 L442.31 875.65 L446.13 875.76 L449.94 875.91 L453.88 874.96 L457.81 873.83 L461.57 874.02 L465.40 873.49 L469.08 874.49 L472.80 875.05 L476.44 877.18 L480.07 880.00 L483.78 882.50 L487.61 882.34 L491.39 884.42 L495.24 883.85 L499.09 880.90 L502.90 880.56 L506.70 880.15 L510.38 875.76 L514.09 874.41 L517.74 872.37 L521.35 870.11 L525.02 869.55 L528.72 869.29 L532.48 869.74 L536.33 870.97 L540.12 871.39 L544.33 875.20 L548.49 877.88 L552.12 876.35 L556.16 877.71 L560.47 880.48 L564.00 878.27 L566.94 872.93 L570.65 872.15 L574.33 871.22 L577.29 866.91 L580.32 863.24 L583.69 861.31 L587.21 860.10 L590.60 858.39 L593.71 855.67 L597.06 853.99 L600.97 854.32 L604.20 852.26 L607.97 852.02 L612.57 854.34 L617.18 856.44 L620.94 855.84 L625.20 856.64 L629.44 857.25 L631.87 852.89 L635.77 852.55 L639.58 851.91 L642.15 848.17 L644.66 844.44 L648.22 843.26 L650.58 839.36 L652.89 835.49 L656.11 833.67 L659.01 831.20 L662.56 830.09 L665.50 827.75 L668.95 826.42 L672.89 826.02 L676.85 825.56 L681.99 827.18 L685.36 825.53 L688.99 824.33 L691.17 820.66 L693.54 817.37 L696.05 814.37 L698.29 811.00 L699.89 806.69 L703.69 805.80 L705.30 801.63 L707.65 798.62 L711.11 797.21 L712.49 792.90 L716.25 791.90 L719.09 789.63 L721.54 786.86 L724.28 784.48 L727.72 782.98 L731.98 782.44 L734.46 779.72 L738.70 779.05 L740.89 775.98 L742.49 772.27 L746.22 770.95 L747.01 766.42 L747.39 761.53 L750.01 759.07 L751.83 755.79 L753.25 752.13 L755.11 748.96 L757.81 746.60 L762.67 746.27 L765.03 743.55 L766.64 740.15 L773.58 741.49 L777.45 740.02 L777.30 735.08 L781.35 733.71 L783.89 731.07 L783.14 725.79 L782.77 720.91 L783.14 716.67 L783.72 712.65 L784.51 708.83 L785.26 705.03 L786.14 701.35 L787.98 698.37 L789.44 695.13 L790.32 691.53 L791.93 688.43 L793.32 685.20 L797.34 683.60 L799.02 680.54 L801.09 677.70 L804.94 675.89 L807.41 673.24 L816.13 674.01 L820.22 672.11 L824.08 670.03 L831.04 669.48 L834.61 667.11 L833.77 662.54 L832.81 657.98 L831.34 653.24 L829.26 648.30 L833.16 646.06 L833.81 642.39 L835.17 639.02 L840.98 637.45 L844.85 635.02 L845.47 631.30 L845.96 627.53 L846.92 623.96 L847.17 620.15 L848.92 616.86 L850.44 613.49 L851.22 609.87 L854.51 607.02 L856.36 603.70 L854.90 599.44 L853.75 595.31 L850.96 590.81 L847.07 586.11 L844.06 581.72 L837.69 576.64 L834.88 572.49 L832.30 568.46 L828.94 564.35 L832.31 561.57 L837.15 558.98 L840.60 556.08 L841.74 552.76 L851.45 550.67 L856.61 547.78 L855.35 544.00 L861.29 541.07 L865.02 537.80 L864.97 534.11 L861.80 530.17 L858.80 526.31 L855.06 522.46 L856.22 518.96 L856.77 515.42 L854.42 511.77 L858.23 508.31 L864.01 504.80 L864.64 501.16 L863.46 497.52 L862.29 493.91 L864.68 490.22 L864.89 486.56 L861.52 483.06 L863.37 479.33 L863.44 475.68 L863.97 471.99 L861.75 468.52 L858.65 465.17 L855.32 461.90 L850.35 458.89 L847.05 455.75 L841.25 453.02 L835.26 450.42 L837.56 446.63 L836.90 443.27 L836.73 439.83 L838.88 435.95 L839.21 432.36 L837.83 429.12 L840.09 425.09 L843.82 420.65 L843.66 417.06 L845.09 413.05 L847.76 408.67 L848.38 404.78 L843.66 402.36 L839.93 399.74 L834.89 397.58 L831.24 395.06 L825.99 393.12 L820.35 391.41 L819.10 388.27 L818.65 384.83 L817.46 381.66 L818.02 377.82 L820.99 372.98 L821.58 369.01 L822.04 365.05 L825.02 359.96 L825.99 355.67 L824.25 352.54 L824.39 348.54 L823.54 344.98 L819.11 343.16 L814.89 341.31 L809.91 339.91 L805.83 338.12 L799.93 337.39 L792.71 337.49 L791.28 334.46 L786.72 333.23 L783.75 331.14 L784.39 326.88 L782.50 324.14 L782.56 320.16 L780.69 317.38 L786.76 309.32 L786.37 305.42 L785.75 301.63 L787.86 295.87 L788.06 291.37 L783.75 290.13 L779.37 289.02 L774.63 288.26 L768.69 288.52 L763.70 288.14 L757.61 288.76 L755.88 285.87 L757.27 280.29 L753.18 279.37 L751.40 276.46 L753.82 269.72 L748.39 270.07 L747.00 266.73 L748.70 260.38 L746.14 258.05 L745.16 254.15 L745.52 248.81 L742.87 246.49 L739.35 245.11 L734.51 245.21 L729.69 245.39 L724.10 246.54 L718.92 247.35 L711.77 250.60 L707.02 251.20 L703.78 250.05 L701.26 248.03 L698.24 246.66 L696.46 243.69 L695.41 239.71 L692.37 238.36 L692.93 232.02 L693.68 225.22 L691.05 223.12 L692.82 214.48 L692.33 208.97 L689.04 207.63 L684.58 208.19 L679.63 209.61 L674.21 211.99 L669.35 213.59 L662.82 218.23 L657.71 220.67 L655.49 218.06 L651.49 218.69 L648.03 218.41 L645.13 217.08 L642.36 215.53 L639.00 215.16 L637.77 210.35 L638.02 202.18 L636.12 198.41 L635.33 192.00 L634.58 185.20 L631.77 183.03 L627.53 184.36 L623.36 185.68 L618.63 188.61 L614.54 190.05 L609.51 194.28 L604.51 198.81 L601.07 199.02 L596.99 201.30 L593.18 202.96 L589.66 203.87 L586.82 202.55 L583.68 202.27 L581.83 197.23 L581.62 185.60 L579.06 182.43 L577.11 176.50 L575.51 168.51 L572.55 166.13 L568.47 169.01 L564.70 170.66 L560.60 174.35 L556.81 176.75 L552.87 180.51 L548.91 184.91 L545.36 187.17 L541.82 189.77 L538.73 189.19 L535.93 186.14 L532.29 190.58 L529.26 189.57 L526.92 180.17 L523.89 177.66 L520.83 174.95 L517.83 169.93 L514.78 164.21 L511.47 162.67 L508.03 165.38 L504.65 167.67 L501.31 171.33 L498.05 175.51 L494.86 179.21 L491.79 184.64 L488.58 183.07 L485.41 183.28 L482.37 185.60 L479.16 184.72 L475.87 183.21 L472.70 183.36 L469.74 185.79 L466.16 182.04 L462.58 178.90 L459.39 179.47 L455.85 177.38 L452.71 178.45 L450.03 182.30 L446.95 183.38 L443.34 181.41 L440.46 183.63 L437.17 183.57 L433.76 183.06 L431.02 185.64 L429.15 191.86 L427.02 196.57 L425.21 202.17 L422.40 203.55 L418.62 201.32 L416.40 204.86 L410.76 196.55 L406.21 192.46 L403.09 193.26 L398.12 188.41 L394.26 187.23 L391.32 188.84 L389.14 192.49 L387.46 197.35 L386.08 202.78 L384.14 206.54 L383.57 213.51 L382.65 219.32 L380.44 221.89 L378.64 225.32 L375.55 225.77 L372.70 226.79 L368.62 225.22 L364.64 224.03 L359.64 220.94 L354.28 217.35 L350.41 216.84 L345.55 214.58 L341.15 213.33 L337.84 214.15 L336.87 219.03 L335.81 223.60 L335.24 228.85 L334.56 233.77 L335.83 241.62 L335.16 246.20 L332.55 247.75 L330.44 250.03 L329.10 253.40 L323.03 250.01 L322.57 254.60 L317.88 253.35 L310.83 249.10 L308.54 251.27 L302.77 249.00 L298.12 248.31 L294.78 249.32 L292.12 251.20 L292.29 256.39 L291.39 260.23 L290.99 264.57 L290.19 268.38 L291.86 274.78 L291.74 279.13 L289.88 281.57 L288.24 284.23 L285.95 286.22 L284.37 288.90 L281.73 290.55 L279.76 292.85 L277.11 294.52 L270.83 292.93 L266.80 293.48 L263.16 294.46 L256.68 293.06 L253.30 294.40 L253.20 298.46 L252.52 302.00 L252.87 306.31 L253.41 310.68 L254.66 315.51 L256.07 320.36 L254.91 323.26 L253.72 326.11 L252.79 329.14 L248.65 329.96 L246.76 332.35 L244.08 334.23 L239.90 335.20 L236.24 336.55 L232.29 337.78 L229.14 339.55 L225.88 341.31 L223.78 343.75 L224.45 347.75 L224.47 351.34 L225.76 355.56 L228.19 360.29 L230.25 364.74 L234.28 370.07 L235.15 373.77 L237.19 377.95 L239.11 382.00 L239.91 385.48 L235.27 386.58 L234.16 389.24 L234.56 392.50 L222.13 390.69 L216.11 391.59 L215.40 394.57 L207.14 394.83 L202.60 396.54 L203.10 400.03 L204.71 403.85 L206.64 407.71 L209.85 411.90 L211.02 415.41 L214.57 419.53 L217.00 423.27 L214.78 425.72 L212.88 428.28 L209.88 430.61 L208.60 433.37 L207.83 436.26 L200.27 437.75 L197.98 440.42 L198.72 443.69 L194.18 446.00 L192.29 448.83 L191.88 451.93 L193.07 455.25 L195.37 458.69 L197.49 462.06 L200.95 465.52 L203.40 468.81 L207.91 472.23 L211.89 475.52 L209.87 478.26 L210.47 481.22 L212.62 484.24 L210.15 487.01 L210.12 489.91 L214.23 492.92 L208.63 495.69 L203.28 498.58 L202.89 501.55 L197.67 504.60 L193.07 507.74 L192.25 510.84 L195.03 513.80 L198.54 516.66 L202.18 519.45 L204.72 522.25 L209.44 524.82 L214.02 527.31 L214.10 530.19 L214.41 533.05 L216.07 535.74 L214.69 538.82 L211.71 542.16 L208.88 545.55 L207.75 548.73 L205.81 552.08 L203.37 555.58 L204.16 558.50 L203.68 561.68 L203.42 564.84 L207.03 567.12 L209.55 569.61 L213.37 571.73 L215.65 574.19 L219.97 576.06 L226.19 577.32 L229.64 579.27 L233.35 581.09 L237.84 582.60 L242.01 584.13 L242.85 586.71 L241.93 589.90 L241.37 593.01 L232.16 599.36 L229.52 603.42 L227.73 607.24 L223.81 611.99 L221.81 616.05 L225.86 617.60 L228.59 619.65 L232.02 621.36 L236.03 622.73 L240.04 624.05 L245.63 624.52 L246.15 627.43 L246.02 630.69 L250.10 631.76 L249.60 635.24 L247.45 639.69 L251.35 640.80 L247.66 646.24 L245.95 650.64 L248.22 652.72 L247.73 656.49 L247.87 659.91 L249.70 662.28 L253.11 663.60 L256.92 664.60 L261.53 664.98 L267.20 664.53 L272.51 664.21 L278.23 663.48 L281.60 664.39 L282.32 667.29 L283.62 669.76 L284.93 672.23 L286.23 674.72 L287.82 676.99 L290.67 678.19 L293.65 679.25 L293.84 682.73 L294.35 685.98 L295.46 688.73 L297.45 690.68 L300.92 691.20 L304.36 691.70 L309.92 690.02 L314.43 689.25 L313.07 694.49 L313.59 697.87 L314.28 701.13 L312.94 706.70 L314.89 708.70 L315.99 711.68 L317.78 713.90 L321.20 714.20 L321.66 718.04 L324.84 718.58 L326.75 720.68 L328.28 723.29 L331.92 723.14 L335.02 723.65 L338.67 723.34 L341.85 723.61 L346.47 721.76 L350.81 720.15 L352.78 721.99 L354.51 724.22 L357.69 724.19 L359.87 725.72 L362.89 725.87 L364.95 727.57 L367.72 728.07 L369.94 729.50 L372.44 730.43 L374.66 731.87 L375.21 736.47 L376.91 739.02 L378.70 741.43 L380.10 744.71 L383.22 744.51 L386.11 744.72 L390.57 741.42 L394.96 738.04 L396.29 741.53 L398.51 743.05 L400.41 745.36 L400.83 751.51 L403.07 753.22 L405.40 754.75 L407.03 758.22 L410.35 757.05 L413.29 756.86 L416.38 756.13 L418.35 758.82 L420.66 760.58 L423.17 761.70 L425.21 764.50 L428.12 764.28 L430.95 764.27 L434.33 762.03 L438.12 757.81 L440.88 757.63 L443.65 757.35 L446.48 756.69 L449.07 757.08 L451.70 757.27 L454.70 755.38 L457.30 755.54 L460.00 755.01 L462.79 753.81 L465.50 752.90 L466.65 764.18 L469.04 766.66 L471.38 770.03 L473.56 775.83 L476.09 778.70 L479.03 776.98 L481.98 774.47 L484.92 771.05 L487.75 768.55 L490.49 767.25 L493.23 764.62 L495.87 765.34 L498.52 765.35 L501.17 763.94 L503.84 766.51 L506.48 765.04 L509.13 765.04 L511.90 767.63 L514.79 771.55 L517.59 772.61 L520.43 773.98 L523.43 776.89 L526.15 776.07 L528.77 774.51 L531.23 771.70 L533.43 767.25 L535.55 762.87 L537.81 759.97 L539.66 754.78 L541.94 752.79 L543.92 749.24 L546.06 746.91 L548.41 745.82 L550.08 741.56 L552.81 742.49 L555.04 741.12 L559.24 748.05 L563.21 753.45 L566.17 754.45 L570.59 760.70 L574.31 763.96 L576.99 763.36 L578.61 759.25 L580.30 755.56 L581.49 750.58 L583.31 747.71 L584.94 744.44 L585.99 739.71 L588.83 740.04 L591.47 739.78 L593.46 737.83 L596.82 739.33 L598.91 737.63 L600.64 735.13 L605.19 739.13 L608.96 741.13 L611.55 740.41 L615.56 742.67 L619.60 744.82 L622.44 744.41 L623.25 740.00 L624.05 735.73 L624.19 730.38 L624.39 725.32 L625.34 721.76 L625.93 717.70 L626.23 713.26 L629.46 713.83 L631.88 712.98 L632.73 709.64 L635.07 708.68 L637.11 707.26 L640.88 708.41 L646.32 711.86 L648.92 711.08 L652.57 711.72 L658.45 715.31 L660.74 713.90 L661.13 710.02 L661.55 706.26 L661.04 701.43 L661.52 697.94 L662.02 694.55 L661.77 690.35 L662.20 687.03 L663.73 685.02 L664.87 682.59 L665.36 679.49 L666.99 677.67 L668.87 676.11 L672.34 676.17 L679.06 679.41 L682.22 678.96 L685.21 678.30 L690.89 680.11 L694.01 679.43 L693.56 675.46 L693.68 672.06 L692.18 667.32 L691.31 663.24 L688.65 657.73 L684.75 651.35 L687.41 650.43 L688.70 648.39 L688.68 645.34 L693.28 645.83 L698.31 646.53 L700.81 645.30 L699.65 641.44 L707.84 644.14 L711.73 643.73 L713.16 641.61 L717.35 641.28 L721.13 640.61 L720.73 637.27 L719.33 633.38 L717.51 629.31 L714.66 624.73 L712.27 620.52 L707.19 614.91 L706.13 611.64 L708.09 610.02 L709.22 607.96 L711.21 606.32 L715.92 606.00 L718.29 604.47 L717.46 601.41 L724.32 601.89 L728.07 600.86 L728.20 598.20 L734.73 598.24 L739.32 597.36 L739.23 594.55 L737.20 591.01 L734.83 587.42 L731.22 583.45 L731.43 580.92 L727.05 576.85 L725.44 573.80 L730.67 572.97 L728.19 569.68 L729.20 567.49 L731.25 565.59 L732.09 563.33 L731.47 560.68 L732.77 558.54 L737.28 557.15 L737.51 554.70 L740.48 552.86 L743.47 550.97 L741.47 548.04 L739.85 545.23 L742.46 543.21 L742.12 540.66 L740.30 537.89 L744.07 535.98 L743.31 533.39 L739.14 530.38 L736.35 527.63 L733.11 524.89 L728.37 522.08 L729.51 519.87 L728.56 517.49 L731.80 515.41 L738.51 513.46 L741.24 511.19 L744.80 508.91 L748.75 506.56 L750.80 504.11 L747.39 501.58 L743.95 499.11 L740.53 496.72 L738.95 494.35 L734.43 492.11 L728.53 490.02 L727.14 487.81 L724.40 485.70 L724.97 483.41 L723.80 481.24 L724.67 478.90 L727.61 476.33 L730.66 473.68 L736.22 470.65 L737.41 468.09 L739.55 465.35 L743.15 462.35 L744.91 459.56 L740.86 457.75 L738.16 455.77 L734.23 454.07 L731.13 452.27 L725.60 451.06 L722.44 449.41 L724.11 446.67 L721.98 444.82 L720.25 442.91 L720.57 440.47 L718.22 438.75 L714.38 437.51 L712.43 435.77 L720.72 430.85 L721.61 428.12 L724.86 424.58 L730.16 420.23 L731.82 417.05 L728.93 415.49 L725.88 414.04 L720.75 413.46 L715.47 413.03 L712.37 411.80 L706.55 411.79 L703.17 410.82 L703.21 408.37 L702.12 406.41 L702.97 403.55 L701.28 401.87 L701.06 399.48 L699.91 397.54 L699.31 395.31 L696.14 394.47 L691.45 394.51 L692.74 391.27 L692.53 388.84 L688.83 388.44 L687.08 386.93 L686.42 384.77 L684.27 383.54 L682.52 382.07 L680.64 380.71 L679.76 378.69 L680.56 375.51 L679.70 373.43 L680.72 369.99 L682.08 366.23 L681.97 363.48 L682.61 360.13 L683.29 356.68 L681.40 355.21 L676.69 356.05 L675.01 354.48 L672.31 353.79 L667.98 354.55 L664.86 354.34 L662.97 353.09 L661.12 351.81 L658.75 351.02 L655.66 350.97 L654.27 349.32 L653.56 346.98 L651.14 346.35 L650.17 344.25 L651.85 339.32 L652.24 335.65 L650.29 334.47 L649.61 331.86 L648.72 329.47 L644.88 330.47 L640.88 331.78 L639.41 330.10 L636.61 330.08 L632.84 331.35 L630.89 330.36 L628.33 330.20 L625.78 330.06 L624.45 328.29 L623.26 326.30 L622.05 324.31 L620.54 322.73 L619.51 320.41 L620.09 315.56 L618.87 313.39 L617.18 311.91 L616.04 309.52 L615.03 306.86 L611.31 308.78 L607.61 310.81 L606.25 308.79 L604.20 307.96 L600.58 310.14 L598.23 310.01 L596.25 309.18 L593.23 310.47 L590.74 310.79 L588.18 311.30 L585.84 311.42 L584.18 310.06 L582.15 309.50 L581.22 306.36 L580.33 302.99 L579.40 299.57 L577.45 298.63 L576.67 294.55 L574.52 294.04 L571.66 295.59 L569.96 293.84 L567.80 293.44 L564.70 296.03 L562.54 295.77 L560.38 295.55 L557.69 297.22 L555.19 298.36 L553.13 297.99 L551.02 297.80 L548.82 298.02 L546.72 297.89 L545.09 295.63 L543.18 294.54 L541.80 290.75 L539.99 288.84 L538.04 287.53 L536.08 286.18 L533.47 288.81 L531.23 289.31 L528.99 290.00 L526.51 292.66 L524.22 294.19 L522.35 292.27 L519.99 294.92 L517.89 295.31 L515.79 295.80 L513.64 297.25 L511.62 296.95 L509.51 298.58 L507.47 299.23 L505.49 298.02 L503.51 295.76 L501.46 296.07 L499.41 293.48 L497.33 291.82 L495.31 294.84 L493.20 292.95 L491.09 292.22 L489.24 296.44 L487.25 297.41 L485.27 298.13 L483.44 300.50 L481.60 302.36 L479.75 303.80 L477.64 302.71 L475.40 300.70 L473.51 301.72 L471.39 301.06 L468.34 294.43 L466.23 294.42 L464.56 296.98 L462.11 295.09 L460.33 296.84 L459.28 302.02 L457.97 305.52 L456.66 308.71 L455.05 310.45 L453.59 312.65 L452.18 314.89 L450.68 316.68 L448.90 317.39 L447.19 318.30 L445.56 319.44 L443.80 320.13 L442.07 320.90 L439.40 318.87 L437.47 319.12 L435.23 318.53 L433.78 320.18 L431.23 318.84 L428.28 316.64 L427.63 320.28 L424.97 318.93 L421.60 316.03 L421.20 320.09 L420.85 324.11 L419.50 325.78 L419.51 330.28 L419.92 335.41 L419.34 338.36 L418.39 340.46 L417.29 342.23 L416.01 343.61 L414.74 344.97 L413.55 346.47 L412.29 347.81 L410.93 348.96 L408.24 347.91 L404.41 345.08 L403.20 346.58 L401.30 346.97 L396.67 343.25 L395.82 345.35 L396.44 349.54 L394.55 350.03 L394.28 352.80 L394.81 356.59 L394.94 359.73 L394.55 362.10 L393.66 363.78 L392.59 365.21 L389.46 364.09 L385.25 361.77 L381.20 359.76 L377.88 358.73 L376.06 359.49 L371.77 357.52 L371.03 359.56 L371.44 362.78 L369.18 363.14 L368.07 364.71 L368.28 367.60 L368.81 370.75 L369.22 373.71 L370.21 377.15 L371.38 380.67 L372.20 383.78 L372.17 386.08 L371.48 387.74 L370.81 389.41 L370.20 391.12 L369.41 392.67 L368.63 394.21 L367.94 395.81 L361.88 393.26 L360.21 394.18 L360.19 396.35 L354.50 394.37 L352.65 395.26 L354.82 398.97 L353.87 400.47 L353.92 402.62 L355.42 405.70 L357.11 408.82 L357.86 411.29 L354.48 411.19 L349.81 410.39 L347.46 411.04 L343.18 410.63 L338.17 409.91 L335.92 410.79 L337.07 413.52 L334.76 414.40 L332.28 415.23 L335.25 418.79 L333.78 420.13 L332.20 421.42 L334.25 424.39 L336.66 427.45 L337.34 429.70 L339.82 432.66 L342.71 435.72 L344.37 438.21 L345.71 440.52 L346.24 442.48 L346.33 444.26 L346.31 445.99 L346.17 447.66 L341.05 447.68 L339.23 448.86 L337.61 450.13 L329.36 449.46 L329.08 451.23 L328.18 452.82 L324.82 453.78 L326.30 456.02 L326.93 458.02 L328.83 460.29 L329.83 462.31 L330.51 464.24 L332.50 466.40 L334.49 468.52 L332.09 469.80 L334.11 471.87 L332.31 473.29 L329.22 474.54 L328.07 476.13 L327.62 477.82 L325.29 479.29 L322.83 480.80 L324.82 482.78 L325.40 484.60 L323.07 486.18 L324.87 488.08 L328.84 490.07 L329.75 491.83 L332.94 493.65 L337.10 495.44 L339.65 497.12 L341.24 498.74 L342.29 500.32 L342.77 501.89 L343.27 503.45 L343.93 505.00 L344.31 506.55 L344.69 508.09 L343.12 509.74 L338.31 511.67 L338.55 513.27 L338.37 514.92 L334.06 516.99 L334.63 518.61 L338.80 519.77 L338.80 521.41 L340.55 522.80 L343.66 523.95 L346.41 525.11 L348.29 526.36 L349.57 527.69 L350.42 529.08 L351.08 530.50 L351.70 531.92 L352.28 533.35 L352.84 534.77 L352.37 536.45 L339.74 541.27 L334.51 544.38 L330.71 547.22 L323.54 551.13 L321.54 553.65 L323.44 555.01 L325.97 556.14 L330.71 556.48 L335.06 556.87 L337.31 557.92 L342.45 557.87 L344.18 559.01 L343.61 561.03 L344.75 562.38 L342.86 564.97 L342.36 567.03 L342.77 568.72 L341.14 571.33 L338.71 574.37 L336.78 577.25 L337.87 578.73 L335.67 581.83 L335.52 583.97 L337.91 584.80 L341.84 584.77 L345.84 584.63 L350.30 584.14 L354.31 583.81 L361.20 581.71 L365.44 581.03 L368.06 581.26 L371.66 580.82 L374.00 581.13 L375.32 582.05 L374.81 584.19 L375.93 585.25 L370.28 591.05 L364.77 596.96 L365.27 598.65 L360.13 604.58 L357.20 609.01 L358.97 609.92 L361.38 610.28 L365.74 609.02 L369.94 607.79 L372.19 608.09 L376.30 606.76 L380.36 605.37 L379.82 607.99 L380.80 609.29 L380.10 612.15 L378.82 615.64 L380.68 616.17 L379.95 619.24 L378.83 622.79 L380.20 623.86 L381.12 625.39 L381.46 627.57 L380.59 631.10 L382.46 631.67 L385.47 630.91 L388.46 630.09 L392.43 628.04 L395.53 626.89 L400.03 623.94 L404.73 620.56 L406.79 620.40 L409.31 619.60 L411.72 618.88 L414.14 618.07 L415.97 618.02 L418.37 617.11 L416.53 622.34 L413.50 629.53 L413.19 632.86 L411.63 638.25 L410.23 643.58 L409.70 647.69 L412.72 646.02 L415.61 644.45 L418.66 642.47 L421.21 641.28 L424.57 638.48 L428.14 635.12 L429.70 635.43 L431.30 635.66 L432.83 636.01 L433.00 639.15 L432.92 642.95 L433.86 644.68 L434.37 647.45 L433.44 653.65 L434.77 654.82 L436.20 655.75 L437.41 657.28 L438.82 658.32 L441.09 657.11 L443.67 654.91 L446.31 652.39 L449.00 649.49 L451.94 645.63 L455.51 639.47 L457.71 637.30 L460.24 633.86 L462.65 630.50 L464.57 628.66 L465.95 628.65 L466.80 630.71 L468.32 630.14 L466.43 644.19 L466.79 649.39 L467.40 653.86 L467.55 661.13 L468.58 664.46 L470.39 663.87 L472.58 660.94 L474.73 657.85 L476.95 653.78 L478.84 651.51 L481.04 646.47 L482.66 645.36 L483.65 649.75 L485.30 648.40 L486.90 647.18 L487.79 654.65 L489.50 652.41 L490.92 654.30 L492.24 659.09 L493.79 660.04 L495.33 662.29 L496.91 664.78 L498.56 664.30 L500.20 663.87 L501.80 660.07 L503.33 656.78 L504.77 652.54 L506.08 647.30 L507.27 641.76 L508.46 637.97 L509.64 635.02 L511.13 636.72 L512.46 636.19 L513.91 636.88 L515.54 639.13 L516.84 638.23 L518.70 641.70 L521.02 647.84 L522.58 648.13 L524.81 652.55 L527.19 657.25 L528.76 656.96 L529.92 654.54 L530.74 650.70 L531.43 646.58 L532.47 644.36 L532.95 639.95 L533.41 635.81 L535.16 637.00 L536.28 635.70 L537.82 635.98 L540.00 638.44 L541.10 637.10 L543.53 640.10 L545.93 642.79 L548.14 644.68 L549.96 645.27 L551.84 645.96 L553.80 646.82 L555.49 646.87 L555.82 643.38 L556.37 640.62 L556.28 636.44 L556.45 633.06 L555.17 626.50 L553.69 619.84 L554.09 617.55 L553.40 613.06 L552.96 609.30 L553.39 607.42 L555.24 608.42 L556.45 608.10 L559.30 610.85 L565.48 619.51 L568.50 622.11 L571.93 625.27 L576.39 630.01 L578.96 631.36 L579.18 628.79 L578.80 625.35 L578.18 621.64 L577.92 618.61 L577.34 615.20 L576.20 611.09 L577.25 610.24 L578.58 609.79 L580.21 609.72 L583.37 611.69 L584.43 610.78 L585.91 610.41 L590.79 614.31 L592.47 614.06 L593.84 613.41 L597.24 615.16 L598.71 614.55 L599.50 613.16 L599.38 610.77 L598.94 608.08 L597.48 604.38 L595.75 600.49 L594.28 596.99 L591.19 591.95 L590.62 589.57 L589.44 586.65 L588.61 584.14 L588.46 582.34 L587.98 580.26 L587.48 578.22 L587.64 576.80 L596.85 583.17 L600.84 584.86 L604.25 585.97 L612.74 591.08 L615.08 591.09 L615.85 589.83 L615.01 587.35 L612.16 583.43 L609.76 579.96 L608.76 577.57 L605.28 573.51 L603.24 570.56 L604.58 569.96 L606.23 569.53 L607.68 568.95 L609.05 568.30 L611.96 568.58 L615.89 569.40 L617.87 568.99 L620.99 569.20 L623.21 568.85 L625.60 568.54 L626.44 567.37 L627.54 566.32 L625.52 563.69 L622.46 560.60 L619.58 557.70 L617.50 555.25 L611.64 551.14 L606.52 547.51 L605.58 545.83 L602.06 543.10 L599.44 540.82 L598.99 539.49 L600.73 539.02 L600.92 537.93 L607.95 539.35 L616.33 541.09 L620.07 541.07 L626.28 541.79 L631.94 542.20 L635.11 541.73 L631.68 539.23 L629.60 537.20 L626.18 534.86 L623.93 532.91 L619.88 530.55 L617.83 528.78 L619.67 527.96 L618.27 526.39 L618.23 525.14 L625.92 525.47 L624.44 523.88 L625.97 522.86 L636.37 523.35 L635.36 521.78 L636.32 520.54 L638.88 519.51 L637.40 517.90 L636.86 516.44 L633.00 514.63 L631.29 513.11 L627.73 511.47 L622.92 509.80 L617.52 508.19 L612.57 506.71 L609.58 505.43 L609.95 504.35 L610.79 503.28 L610.22 502.16 L612.61 501.08 Z"/>
  <svg class="pausebutton" id="pausebutton">
    <circle cx="500" cy="500" id="pausestart" class="pausestart" r="52.65"/>
    <rect height="50.02" width="10.00" y="473.68" rx="2.00" ry="2.00" x="479.99" class="pausesymbol"/>
    <rect height="50.02" width="10.00" y="473.68" rx="2.00" ry="2.00" x="510.00" class="pausesymbol"/>
    <polygon points="530.01,500 479.99,530.01 479.99,469.99" class="playsymbol"/>
  </svg>
  <polygon id="playback-head" class="playback-head" points="941.65,500 921.65,540 961.65,540"/>
</svg>