<?xml-stylesheet href="../../style/waveformjs.css" type="text/css"?>
<svg xmlns="http://www.w3.org/2000/svg" xmlns:xlink="http://www.w3.org/1999/xlink" width="100%" height="100%" viewBox="0 0 1000 1000">
  <path class="svg-wave" id="sp" d="M598.05 500.00 L598.22 500.98 L598.39 501.97 L598.55 502.96 L598.70 503.95 L598.83 504.95 L598.96 505.94 L599.08 506.95 L599.19 507.95 L599.28 508.96 L599.37 509.97 L599.45 510.98 L599.51 512.00 L599.57 513.02 L599.61 514.04 L599.64 515.06 L599.66 516.08 L599.67 517.11 L599.67 518.14 L599.66 519.17 L599.64 520.20 L599.61 521.23 L599.57 522.27 L599.52 523.30 L599.46 524.34 L599.38 525.38 L599.30 526.42 L599.20 527.46 L599.10 528.50 L598.98 529.54 L598.85 530.58 L598.71 531.62 L598.56 532.66 L598.40 533.70 L598.22 534.74 L598.03 535.78 L597.83 536.82 L597.62 537.86 L597.40 538.90 L597.17 539.94 L596.92 540.98 L596.66 542.01 L596.39 543.05 L596.11 544.08 L595.81 545.11 L595.50 546.13 L595.18 547.16 L594.84 548.18 L594.49 549.19 L594.12 550.20 L593.75 551.21 L593.36 552.22 L592.95 553.22 L592.54 554.22 L592.10 555.21 L591.66 556.19 L591.19 557.17 L590.72 558.15 L590.24 559.12 L589.73 560.08 L589.21 561.03 L588.68 561.98 L588.14 562.92 L587.58 563.86 L587.03 564.80 L586.44 565.71 L585.83 566.61 L585.21 567.51 L584.56 568.38 L583.84 569.19 L583.00 569.91 L582.19 570.64 L581.37 571.36 L580.44 571.99 L579.61 572.69 L578.72 573.34 L577.74 573.89 L576.71 574.38 L575.67 574.86 L574.58 575.27 L573.60 575.78 L572.90 576.58 L571.97 577.14 L570.94 577.57 L570.59 578.75 L570.11 579.81 L569.17 580.35 L568.43 581.11 L567.87 582.10 L566.79 582.46 L565.86 582.99 L564.68 583.20 L563.68 583.62 L563.14 584.66 L561.83 584.66 L561.21 585.60 L560.32 586.16 L559.10 586.23 L557.77 586.13 L556.55 586.17 L555.33 586.17 L553.39 585.00 L550.93 582.92 L548.98 581.57 L547.24 580.48 L545.61 579.51 L544.87 580.07 L545.26 582.69 L546.80 587.57 L547.57 591.20 L545.76 589.91 L543.74 588.11 L543.31 589.48 L541.03 586.98 L538.75 584.32 L539.88 589.10 L541.42 595.10 L540.12 594.67 L538.23 592.78 L537.77 594.35 L535.50 591.32 L532.48 586.09 L532.67 589.27 L533.78 595.25 L533.14 596.49 L531.26 594.09 L530.62 595.34 L528.86 593.03 L526.30 587.87 L525.51 588.44 L526.24 594.50 L526.38 598.86 L525.09 597.93 L524.27 598.84 L523.50 599.99 L521.49 595.76 L520.15 594.17 L520.05 598.53 L520.13 604.23 L519.13 604.63 L517.89 603.73 L517.26 606.39 L515.61 602.76 L513.99 598.70 L513.49 602.53 L512.96 606.79 L512.03 608.09 L510.85 607.25 L509.83 607.94 L508.63 606.54 L507.28 602.62 L506.33 603.93 L505.52 608.59 L504.58 612.11 L503.46 612.16 L502.34 612.52 L501.21 612.29 L500.09 609.13 L499.00 608.35 L497.86 611.63 L496.63 615.21 L495.50 614.67 L494.43 613.07 L493.24 614.07 L492.26 611.73 L491.33 609.25 L489.99 611.97 L488.45 616.08 L487.17 617.04 L486.12 615.92 L484.81 616.95 L483.89 614.96 L483.21 611.72 L481.87 612.94 L480.11 616.41 L478.69 617.63 L477.70 616.46 L476.56 616.13 L475.57 615.05 L475.23 611.19 L474.32 610.08 L472.42 613.10 L470.58 615.59 L469.60 614.64 L468.63 613.71 L467.30 614.05 L466.80 611.58 L466.19 609.61 L464.35 611.61 L462.02 614.92 L460.60 615.34 L459.88 613.71 L458.43 614.16 L457.71 612.62 L457.66 609.42 L455.83 610.83 L453.29 613.90 L451.61 614.71 L450.90 613.22 L449.94 612.33 L449.38 610.60 L449.52 607.45 L448.36 607.12 L445.98 609.26 L443.72 611.01 L443.25 609.22 L443.01 607.04 L441.81 606.72 L441.50 604.78 L441.36 602.60 L438.76 604.71 L435.15 608.39 L433.98 607.87 L433.57 606.15 L432.12 606.10 L432.14 603.76 L432.62 600.80 L430.40 601.91 L427.22 604.31 L426.56 603.04 L427.06 600.21 L426.42 598.99 L426.94 596.26 L428.69 592.03 L427.11 592.16 L425.03 592.85 L423.34 593.03 L422.81 591.79 L423.73 588.88 L422.98 587.95 L422.36 586.90 L422.28 585.25 L419.17 586.91 L415.98 588.55 L414.70 588.11 L414.92 586.15 L414.66 584.69 L414.56 583.11 L414.93 581.12 L412.32 581.94 L409.88 582.55 L408.32 582.31 L408.04 580.92 L407.77 579.53 L407.47 578.19 L407.90 576.26 L405.51 576.66 L402.49 577.51 L399.48 578.27 L397.94 577.84 L397.24 576.76 L396.42 575.77 L396.60 574.07 L395.36 573.38 L393.49 573.12 L391.38 572.98 L390.45 572.03 L390.45 570.46 L390.06 569.17 L390.02 567.67 L390.26 566.02 L388.67 565.47 L387.37 564.73 L386.54 563.70 L387.04 561.95 L387.26 560.36 L386.59 559.27 L386.17 558.05 L384.74 557.33 L381.56 557.45 L379.42 557.00 L378.45 555.98 L378.64 554.43 L377.68 553.40 L377.56 552.00 L377.00 550.79 L374.74 550.26 L372.85 549.55 L372.73 548.14 L374.36 546.09 L374.62 544.58 L375.53 542.86 L375.49 541.48 L372.93 540.93 L370.66 540.23 L368.57 539.45 L368.73 537.97 L368.56 536.60 L369.32 534.99 L369.69 533.50 L368.85 532.32 L367.20 531.32 L366.35 530.11 L365.93 528.80 L366.19 527.35 L366.82 525.83 L366.85 524.45 L366.21 523.19 L364.64 522.07 L363.46 520.86 L362.69 519.57 L363.02 518.13 L362.75 516.77 L362.65 515.39 L362.20 514.05 L360.84 512.78 L359.26 511.51 L358.74 510.13 L359.90 508.64 L360.21 507.22 L361.48 505.76 L363.27 504.32 L363.89 502.94 L363.61 501.58 L363.15 500.22 L364.47 498.86 L364.78 497.51 L363.39 496.12 L364.03 494.78 L364.08 493.42 L363.28 492.01 L362.95 490.61 L364.63 489.36 L366.32 488.15 L367.06 486.88 L366.61 485.48 L366.19 484.08 L365.85 482.68 L363.14 480.94 L362.40 479.43 L363.99 478.27 L363.91 476.86 L365.14 475.68 L365.84 474.42 L364.62 472.78 L362.08 470.83 L363.18 469.63 L364.42 468.48 L363.47 466.82 L365.59 465.91 L367.14 464.88 L365.89 463.11 L364.42 461.25 L363.38 459.47 L364.85 458.43 L365.88 457.27 L364.66 455.39 L371.26 456.13 L368.16 453.60 L365.18 451.03 L372.59 452.28 L368.22 449.13 L366.25 446.83 L371.57 447.45 L369.57 445.10 L368.56 443.12 L368.17 441.38 L368.34 439.87 L370.40 439.24 L374.43 439.59 L371.49 436.59 L374.49 436.50 L377.54 436.50 L372.39 432.19 L372.06 430.37 L376.19 431.00 L376.14 429.34 L376.87 428.12 L382.34 429.73 L379.71 426.51 L378.09 423.84 L376.64 421.20 L376.14 419.13 L377.04 417.96 L378.31 417.03 L377.61 414.75 L379.77 414.46 L381.98 414.24 L377.80 409.32 L377.37 407.08 L379.12 406.49 L383.58 408.07 L384.97 407.28 L383.84 404.44 L387.07 405.19 L384.70 401.22 L383.07 397.77 L383.71 396.26 L385.28 395.58 L385.59 393.76 L387.57 393.48 L387.99 391.74 L388.05 389.61 L389.56 388.90 L393.09 390.27 L395.17 390.23 L393.54 386.27 L397.55 388.34 L397.33 385.82 L395.30 381.20 L395.53 379.05 L396.19 377.34 L398.49 377.60 L400.59 377.67 L404.80 380.42 L404.05 376.98 L405.81 376.72 L408.23 377.35 L406.36 372.21 L409.69 374.14 L411.89 374.57 L413.96 374.87 L415.26 374.09 L414.64 370.39 L416.59 370.55 L413.94 363.46 L415.12 362.29 L417.13 362.49 L417.87 360.58 L419.92 360.90 L422.19 361.67 L422.37 358.70 L423.55 357.50 L426.20 359.07 L429.09 361.23 L428.04 355.63 L431.30 358.64 L433.71 360.05 L432.17 353.02 L433.09 351.12 L434.17 349.51 L436.95 351.85 L439.93 354.86 L439.58 349.77 L442.34 352.39 L444.76 354.30 L443.62 346.69 L445.37 346.74 L448.38 350.46 L450.30 351.21 L451.45 349.67 L454.16 353.05 L454.15 347.67 L455.36 346.16 L456.02 342.55 L457.05 340.08 L459.01 341.07 L460.54 340.40 L462.15 340.07 L464.04 340.97 L465.27 338.96 L466.50 336.73 L468.37 337.63 L470.87 342.03 L472.19 340.26 L474.25 342.82 L476.60 347.63 L477.56 343.48 L478.83 341.04 L480.23 339.28 L481.69 337.77 L483.36 338.01 L485.12 339.40 L486.74 339.43 L488.61 342.93 L490.17 342.68 L491.60 339.72 L493.29 341.69 L494.86 341.33 L496.43 340.45 L498.04 341.94 L499.62 340.31 L501.21 340.37 L502.85 338.07 L504.52 336.38 L506.10 337.81 L507.54 341.81 L509.23 339.89 L510.65 342.68 L512.04 345.12 L514.07 339.83 L515.68 339.84 L517.06 342.04 L519.11 338.29 L520.60 339.43 L521.58 344.21 L523.78 340.05 L525.84 337.42 L527.85 335.38 L529.71 334.47 L531.21 335.60 L532.61 337.12 L534.91 334.26 L536.12 336.64 L537.12 339.74 L540.32 333.53 L542.39 332.31 L543.92 333.30 L544.36 338.20 L546.33 337.42 L548.36 336.51 L548.99 340.28 L552.02 336.24 L554.23 335.04 L555.89 335.55 L557.79 335.37 L559.29 336.37 L560.59 337.86 L563.11 336.13 L565.41 335.09 L566.99 335.91 L567.60 339.04 L569.05 340.08 L571.05 339.88 L571.00 344.20 L573.28 343.36 L576.23 341.22 L578.74 340.11 L580.78 340.04 L582.00 341.57 L583.32 342.89 L582.99 347.23 L585.51 346.27 L586.88 347.42 L587.91 349.14 L590.77 347.75 L590.54 351.53 L592.33 351.95 L592.12 355.52 L593.81 356.07 L597.33 353.87 L597.57 356.64 L602.94 351.97 L603.90 353.73 L605.03 355.23 L607.29 355.18 L607.66 357.67 L609.22 358.58 L612.88 356.82 L614.97 357.13 L614.68 360.37 L614.86 362.97 L618.84 361.07 L617.32 365.59 L617.30 368.29 L622.37 365.34 L624.53 365.68 L626.46 366.31 L625.63 369.82 L624.40 373.65 L629.06 371.51 L627.77 375.31 L627.43 378.11 L633.79 374.56 L634.50 376.40 L633.14 380.08 L634.92 380.90 L635.37 382.89 L633.64 386.71 L639.08 384.47 L641.09 385.16 L643.86 385.28 L646.09 385.87 L646.61 387.81 L648.78 388.49 L649.27 390.43 L649.16 392.79 L652.84 392.45 L655.86 392.64 L654.93 395.55 L652.49 399.40 L655.21 399.82 L652.64 403.62 L649.58 407.63 L653.58 407.27 L656.67 407.53 L658.90 408.35 L659.85 409.92 L660.24 411.80 L660.91 413.51 L661.01 415.52 L656.79 419.73 L663.32 418.43 L665.00 419.65 L660.33 423.89 L662.58 424.81 L667.01 424.78 L663.75 428.21 L663.08 430.44 L669.34 429.76 L673.28 430.15 L675.49 431.29 L673.52 434.06 L673.42 436.07 L675.06 437.45 L671.32 440.71 L673.36 441.94 L679.78 441.78 L679.52 443.84 L678.86 446.00 L685.24 446.09 L681.21 449.23 L678.56 451.89 L682.83 452.70 L685.12 454.07 L687.21 455.54 L688.13 457.30 L687.47 459.42 L685.49 461.78 L687.85 463.25 L687.02 465.35 L685.53 467.54 L690.99 468.55 L693.78 470.08 L693.03 472.17 L689.40 474.62 L691.44 476.30 L690.20 478.38 L687.21 480.61 L691.22 482.13 L693.59 483.86 L693.53 485.81 L695.37 487.64 L694.32 489.66 L693.44 491.64 L696.36 493.48 L698.18 495.40 L697.75 497.39 L695.27 499.38 L695.44 501.33 L695.24 503.28 L691.06 505.12 L694.12 507.15 L696.03 509.18 L698.07 511.27 L698.82 513.30 L697.71 515.22 L695.62 517.03 L690.24 518.48 L693.69 520.77 L692.11 522.54 L691.51 524.42 L695.45 526.91 L692.91 528.53 L694.64 530.78 L688.92 531.81 L688.59 533.70 L692.50 536.39 L689.97 537.88 L695.33 540.98 L694.56 542.86 L693.11 544.57 L693.08 546.60 L691.00 548.12 L690.94 550.14 L693.59 552.91 L694.60 555.29 L691.87 556.59 L689.68 558.01 L691.63 560.71 L686.97 561.30 L685.14 562.76 L688.96 566.16 L690.93 569.01 L691.65 571.44 L688.00 572.23 L685.65 573.47 L686.88 576.12 L682.03 576.28 L681.57 578.23 L686.38 582.52 L684.87 584.07 L681.49 584.74 L682.40 587.39 L678.82 587.89 L674.65 588.02 L676.70 591.28 L677.78 594.10 L679.90 597.54 L679.12 599.44 L677.07 600.64 L676.64 602.74 L674.93 604.10 L672.97 605.29 L675.02 608.95 L676.37 612.26 L672.17 612.02 L667.25 611.21 L667.41 613.75 L662.22 612.61 L657.68 611.81 L660.98 616.59 L663.64 621.03 L665.03 624.63 L664.06 626.49 L661.63 627.22 L657.64 626.65 L656.09 627.99 L654.63 629.41 L652.74 630.44 L655.25 635.29 L652.99 636.04 L649.10 635.27 L648.90 637.83 L643.82 635.83 L643.21 637.98 L644.66 642.20 L646.14 646.56 L646.10 649.47 L643.53 649.81 L640.17 649.26 L638.36 650.32 L635.54 650.25 L634.31 651.91 L635.32 656.17 L634.50 658.39 L630.94 657.37 L630.24 659.75 L627.11 659.13 L623.27 657.53 L623.76 661.46 L624.33 665.61 L625.07 670.11 L623.64 671.74 L619.07 668.92 L617.01 669.58 L615.63 671.21 L611.61 668.88 L612.21 673.53 L612.21 677.41 L609.61 677.20 L605.82 674.95 L604.66 677.01 L601.41 675.49 L599.12 675.57 L599.01 679.54 L598.68 683.25 L598.35 687.09 L596.13 687.40 L593.27 686.38 L591.74 688.00 L589.46 688.07 L587.82 689.50 L587.82 694.57 L586.36 696.55 L583.17 694.55 L580.04 692.53 L578.57 694.47 L574.93 690.93 L573.58 693.14 L573.16 697.98 L572.57 702.58 L571.03 704.70 L568.70 704.56 L566.22 703.93 L562.94 700.64 L561.39 702.79 L559.65 704.39 L557.88 705.95 L556.46 708.88 L553.59 706.45 L551.77 707.98 L548.39 703.02 L545.88 701.41 L544.67 705.54 L542.12 703.60 L540.86 707.97 L539.00 709.58 L536.54 707.90 L534.24 706.93 L532.23 707.66 L530.33 709.20 L528.70 712.96 L526.91 715.97 L524.69 715.66 L522.28 713.46 L520.35 715.85 L517.95 713.23 L515.80 713.17 L513.92 717.21 L511.96 721.35 L509.84 723.55 L507.48 720.05 L505.21 717.02 L503.06 718.85 L500.86 714.85 L498.71 713.80 L496.47 720.32 L494.26 720.54 L492.16 717.56 L489.93 718.71 L487.93 715.23 L486.01 711.64 L483.58 715.60 L481.19 718.16 L478.59 722.26 L476.26 723.05 L474.27 720.75 L472.12 720.09 L469.94 719.64 L468.09 716.98 L465.44 719.68 L462.68 722.70 L460.71 720.91 L459.37 715.89 L456.89 717.11 L455.46 713.11 L454.12 709.07 L450.70 714.38 L447.59 717.92 L444.59 720.68 L442.21 720.76 L440.38 718.81 L439.21 714.60 L437.06 714.01 L435.03 713.03 L433.11 711.71 L429.44 715.80 L427.72 713.81 L426.53 710.37 L424.10 710.52 L423.24 706.41 L420.67 706.98 L417.83 708.14 L413.80 712.10 L411.24 712.29 L409.78 709.85 L408.59 706.91 L406.77 705.44 L405.63 702.54 L403.03 702.81 L399.41 705.08 L397.04 704.70 L396.18 701.37 L393.04 702.46 L392.45 698.74 L392.14 694.65 L388.15 697.16 L384.26 699.36 L380.58 701.03 L378.88 699.32 L379.59 693.77 L377.18 693.30 L375.85 691.15 L376.20 686.50 L371.23 689.83 L368.15 690.26 L367.30 687.45 L367.36 683.45 L365.00 682.84 L365.07 678.97 L362.74 678.31 L359.30 679.06 L355.14 680.61 L351.27 681.68 L349.74 679.85 L349.32 676.73 L347.21 675.61 L346.40 673.02 L344.67 671.48 L339.99 673.13 L337.90 671.92 L338.81 667.57 L338.45 664.61 L337.22 662.58 L338.79 657.82 L335.43 657.92 L330.87 659.08 L326.26 660.17 L323.33 659.63 L322.55 657.14 L321.93 654.54 L323.40 650.20 L320.61 649.51 L318.73 648.02 L315.15 647.89 L313.00 646.56 L314.17 642.68 L311.27 641.93 L314.85 636.36 L313.83 634.26 L309.08 634.80 L307.25 633.22 L300.98 634.64 L300.23 632.25 L301.59 628.52 L300.43 626.45 L300.70 623.51 L300.30 621.01 L295.91 620.89 L292.72 620.00 L292.96 617.11 L293.87 613.89 L290.80 612.87 L292.39 609.35 L290.54 607.66 L286.10 607.25 L281.25 606.96 L278.84 605.41 L281.49 601.48 L282.78 598.25 L280.28 596.75 L283.41 592.79 L282.48 590.63 L275.77 590.81 L275.09 588.47 L277.28 585.05 L275.14 583.30 L277.51 579.90 L279.70 576.64 L275.02 575.75 L271.31 574.46 L266.29 573.52 L265.01 571.35 L266.73 568.29 L265.63 566.07 L265.84 563.49 L267.28 560.61 L263.07 559.18 L259.81 557.45 L261.16 554.61 L264.65 551.34 L262.03 549.42 L266.27 546.11 L269.50 543.08 L263.92 541.69 L260.40 539.84 L257.58 537.82 L257.85 535.30 L258.77 532.71 L260.41 530.05 L260.50 527.61 L262.44 524.98 L257.13 523.09 L257.43 520.61 L258.92 518.06 L255.29 515.87 L257.54 513.29 L260.51 510.73 L256.23 508.48 L253.13 506.12 L249.40 503.70 L248.93 501.20 L254.42 498.72 L254.53 496.26 L253.73 493.79 L258.23 491.48 L253.86 488.86 L250.48 486.21 L251.58 483.77 L256.01 481.61 L254.41 479.02 L259.11 476.99 L263.48 475.02 L258.64 472.07 L254.90 469.15 L252.65 466.35 L251.16 463.61 L249.74 460.84 L252.63 458.75 L250.35 455.80 L251.02 453.35 L251.23 450.81 L245.21 446.97 L245.54 444.37 L250.72 442.89 L255.49 441.40 L254.79 438.63 L258.85 437.08 L260.58 434.97 L254.98 430.81 L253.76 427.80 L256.06 425.82 L257.74 423.67 L259.09 421.44 L261.64 419.63 L260.82 416.68 L258.05 412.99 L259.30 410.71 L263.73 409.66 L263.61 406.89 L266.37 405.27 L270.81 404.39 L267.61 400.31 L264.28 396.08 L262.56 392.48 L263.33 389.96 L267.00 388.82 L269.05 386.95 L273.41 386.26 L273.41 383.41 L273.61 380.63 L271.48 376.57 L273.01 374.45 L277.78 374.17 L277.15 370.85 L283.71 371.75 L285.13 369.67 L282.45 365.05 L281.54 361.44 L278.83 356.60 L281.08 354.93 L285.18 354.53 L286.13 352.04 L289.24 351.05 L291.55 349.53 L290.15 345.31 L290.32 342.18 L294.40 342.00 L297.68 341.28 L298.40 338.56 L302.82 338.84 L302.74 335.45 L301.53 331.05 L300.04 326.31 L301.26 323.84 L306.18 324.72 L309.72 324.42 L310.09 321.22 L314.91 322.23 L315.83 319.54 L313.86 313.93 L315.74 312.08 L320.49 313.23 L321.47 310.49 L325.41 310.92 L329.20 311.28 L328.06 306.15 L327.92 302.04 L326.68 296.54 L328.92 295.06 L333.13 295.98 L335.35 294.54 L337.70 293.27 L341.14 293.43 L341.20 289.18 L341.19 284.72 L344.49 284.72 L349.21 286.80 L350.29 283.76 L354.78 285.71 L358.32 286.36 L357.55 280.46 L357.73 275.87 L358.51 272.09 L360.74 270.59 L363.72 270.36 L367.40 271.37 L369.92 270.46 L373.31 271.14 L373.13 265.31 L376.18 265.37 L379.54 266.10 L380.83 262.81 L385.09 265.47 L389.10 267.80 L390.35 264.38 L391.48 260.59 L392.02 255.30 L393.92 252.95 L397.95 255.61 L400.20 254.11 L403.38 254.96 L407.60 258.62 L408.43 253.41 L409.83 249.54 L412.49 249.09 L415.59 249.95 L417.31 246.73 L420.87 249.16 L424.03 250.49 L425.58 246.51 L426.75 240.96 L428.57 237.39 L431.05 236.11 L433.74 235.62 L437.23 238.50 L439.53 236.51 L442.38 236.85 L444.93 235.91 L446.47 229.81 L448.79 227.24 L452.16 230.30 L455.37 232.91 L457.57 229.50 L460.74 232.18 L463.48 232.25 L465.29 225.03 L467.85 223.06 L470.91 225.45 L473.76 226.27 L476.50 226.09 L479.49 229.10 L482.04 226.50 L484.56 222.42 L487.37 222.95 L490.27 226.48 L492.95 224.48 L495.75 227.34 L498.50 231.19 L501.21 225.88 L504.01 221.93 L506.87 218.76 L509.74 217.20 L512.45 219.89 L515.10 222.80 L517.79 224.23 L520.59 223.87 L523.24 225.34 L526.44 220.81 L529.15 221.91 L531.53 225.65 L534.50 224.16 L536.43 230.62 L539.13 230.93 L542.46 227.21 L545.80 223.97 L549.22 220.71 L551.82 222.21 L554.17 224.88 L557.00 225.06 L559.30 227.71 L562.05 228.16 L565.70 224.91 L568.63 224.85 L570.59 228.57 L573.06 230.17 L575.59 231.51 L577.17 236.02 L580.75 233.72 L584.49 231.09 L588.52 227.81 L591.46 228.03 L592.74 233.10 L594.76 235.84 L598.06 235.01 L599.14 240.11 L602.76 238.49 L607.12 235.23 L609.23 237.57 L610.27 242.37 L613.37 242.28 L614.62 246.35 L616.06 249.86 L620.70 246.53 L625.07 243.99 L629.40 241.71 L631.86 243.24 L633.08 247.12 L635.93 247.85 L637.91 250.19 L639.82 252.61 L644.17 250.76 L647.66 250.52 L648.58 254.60 L648.73 259.81 L651.43 260.83 L651.33 266.19 L653.04 268.66 L657.86 266.47 L662.35 264.94 L665.85 264.92 L667.71 267.27 L670.09 268.87 L672.80 270.04 L672.08 275.71 L675.36 276.10 L681.33 273.19 L681.76 277.26 L683.36 279.82 L687.15 279.79 L688.65 282.48 L688.04 287.51 L692.89 286.37 L697.60 285.50 L702.20 284.87 L703.36 287.92 L702.06 293.46 L705.59 294.01 L705.84 297.84 L705.38 302.29 L711.71 300.23 L715.34 300.84 L716.06 304.15 L715.85 308.24 L718.55 309.72 L717.85 314.12 L719.81 316.22 L724.18 316.34 L729.04 316.16 L733.01 316.77 L734.64 319.25 L734.80 322.84 L733.47 327.49 L735.95 329.27 L736.64 332.35 L739.88 333.63 L745.41 333.41 L748.80 334.72 L747.26 339.28 L746.23 343.43 L750.13 344.44 L748.77 348.72 L750.68 350.97 L757.10 350.61 L760.00 352.38 L759.31 356.18 L760.27 359.04 L761.67 361.65 L760.65 365.50 L764.29 366.95 L768.76 368.05 L769.11 371.21 L766.68 375.63 L769.51 377.58 L767.85 381.55 L765.99 385.54 L772.32 386.03 L777.27 387.20 L781.83 388.62 L784.29 390.92 L783.69 394.39 L781.04 398.57 L781.96 401.41 L783.30 404.11 L782.37 407.56 L787.54 409.04 L787.67 412.16 L785.64 415.89 L787.12 418.56 L783.97 422.52 L785.70 425.11 L789.09 427.30 L795.12 428.91 L797.93 431.38 L796.93 434.73 L795.80 438.07 L796.05 441.11 L794.51 444.47 L795.50 447.34 L799.76 449.66 L800.68 452.60 L798.71 455.96 L800.43 458.77 L798.17 462.12 L795.13 465.50 L799.83 467.99 L802.56 470.75 L806.84 473.43 L807.16 476.50 L802.63 479.88 L801.68 482.98 L802.29 485.97 L798.30 489.15 L802.62 492.02 L805.65 495.00 L805.06 498.06 L801.79 501.10 L803.36 504.13 L800.11 507.09 L799.60 510.08 L803.08 513.23 L807.00 516.48 L810.09 519.76 L809.23 522.81 L806.00 525.65 L806.81 528.81 L804.86 531.71 L803.65 534.65 L807.20 538.17 L808.66 541.49 L805.45 544.18 L804.14 547.10 L806.44 550.59 L802.13 552.99 L803.25 556.32 L807.40 560.28 L809.06 563.82 L809.27 567.09 L805.76 569.54 L804.27 572.41 L803.10 575.34 L797.82 577.20 L800.02 580.98 L802.38 584.87 L795.48 586.13 L796.01 589.51 L795.99 592.74 L790.52 594.23 L788.79 596.87 L790.52 600.69 L792.09 604.52 L793.57 608.37 L791.63 610.98 L786.16 612.19 L787.14 615.90 L784.27 618.06 L779.44 619.34 L782.79 624.13 L785.20 628.61 L781.17 630.19 L777.85 632.04 L778.04 635.55 L772.23 636.11 L772.09 639.46 L773.90 643.86 L775.55 648.26 L776.59 652.41 L775.15 655.22 L772.46 657.32 L769.57 659.26 L768.05 662.00 L766.15 664.51 L767.76 669.23 L769.37 674.04 L768.17 677.09 L762.26 676.98 L758.17 678.00 L758.55 682.11 L754.42 683.03 L754.06 686.65 L756.79 692.65 L755.41 695.63 L750.72 696.04 L749.56 699.19 L746.67 700.96 L742.54 701.66 L743.77 706.84 L743.75 711.05 L740.11 712.14 L734.82 711.68 L734.77 715.93 L730.07 715.89 L726.16 716.52 L728.70 723.38 L729.50 728.69 L728.97 732.77 L725.69 734.08 L721.31 734.17 L717.40 734.70 L714.60 736.37 L712.08 738.34 L710.07 740.88 L710.93 746.82 L707.01 747.18 L702.30 746.53 L700.75 749.70 L695.81 748.60 L694.34 751.87 L693.34 755.82 L694.49 762.77 L692.80 766.00 L688.47 765.58 L684.79 765.99 L682.13 767.84 L677.62 766.91 L675.87 770.10 L675.21 775.06 L672.34 776.63 L667.68 775.25 L665.52 777.92 L661.93 778.18 L657.19 776.35 L656.91 782.39 L655.86 787.23 L654.69 792.00 L651.31 792.67 L646.04 789.54 L643.44 791.58 L640.35 792.66 L635.65 790.27 L635.05 796.69 L633.07 800.27 L629.12 799.39 L624.58 796.99 L622.19 799.68 L617.85 797.51 L615.23 799.61 L613.35 803.76 L611.78 808.94 L609.96 813.67 L606.27 813.14 L602.24 811.48 L599.29 813.01 L595.63 812.28 L592.44 813.00 L590.34 817.54 L587.65 820.24 L583.48 817.44 L579.76 816.09 L576.35 815.87 L572.12 812.01 L569.39 814.47 L566.93 818.43 L564.53 823.06 L561.79 826.25 L558.29 825.56 L554.93 825.51 L551.69 826.17 L547.47 820.23 L544.61 823.20 L541.98 828.31 L538.09 823.58 L534.96 824.98 L531.82 826.41 L528.23 823.02 L525.07 824.20 L521.75 823.41 L518.78 828.22 L515.70 832.60 L512.34 831.77 L508.89 827.31 L505.66 829.56 L502.34 826.65 L499.08 823.52 L495.78 829.08 L492.43 831.53 L489.18 829.48 L485.89 829.25 L482.62 828.67 L479.56 824.82 L476.19 826.39 L472.75 828.22 L469.09 832.04 L465.49 834.45 L462.17 833.81 L458.98 832.28 L455.79 830.90 L452.50 830.32 L449.47 828.05 L445.43 832.13 L441.48 835.19 L438.04 835.09 L435.56 830.01 L432.52 828.14 L428.71 829.86 L426.12 826.03 L422.38 827.31 L418.29 829.84 L414.98 829.07 L412.41 825.53 L409.19 824.54 L406.07 823.21 L403.01 821.70 L398.65 824.38 L394.63 825.77 L392.02 822.78 L390.10 817.92 L386.31 818.51 L384.48 813.70 L382.00 810.82 L376.95 814.60 L372.75 815.99 L369.17 815.74 L366.13 814.16 L363.68 811.23 L362.15 806.35 L359.11 804.92 L355.21 805.30 L351.69 804.81 L347.03 806.57 L343.65 805.66 L341.64 802.08 L338.43 800.85 L337.10 796.18 L334.02 794.77 L330.42 794.24 L326.46 794.27 L323.19 793.08 L320.69 790.61 L318.59 787.53 L315.34 786.31 L312.41 784.55 L308.67 784.01 L304.12 784.59 L301.19 782.74 L300.30 778.06 L298.34 774.94 L296.63 771.54 L295.43 767.52 L290.39 768.51 L285.62 769.03 L280.46 769.91 L276.26 769.53 L275.91 764.52 L273.81 761.65 L271.75 758.76 L270.57 754.91 L266.23 754.57 L261.99 754.04 L259.68 751.42 L258.94 747.20 L257.26 743.98 L256.24 740.16 L253.50 738.05 L249.85 736.79 L245.55 736.08 L241.36 735.19 L239.26 732.39 L238.29 728.59 L236.11 725.89 L233.38 723.64 L230.67 721.37 L225.76 720.85 L222.56 718.88 L222.58 714.40 L222.45 710.11 L221.63 706.38 L223.02 701.09 L220.20 698.90 L215.40 698.05 L210.53 697.17 L207.04 695.29 L206.59 691.38 L205.93 687.65 L203.93 684.78 L205.31 679.85 L201.42 678.15 L195.76 677.43 L194.57 674.05 L194.55 670.04 L192.76 667.03 L192.24 663.35 L193.05 659.01 L189.13 657.12 L183.23 656.14 L178.80 654.35 L179.30 650.18 L181.51 645.28 L178.59 642.75 L180.84 637.95 L181.27 633.99 L173.87 633.28 L170.50 630.83 L171.08 626.81 L167.48 624.39 L169.05 620.04 L170.55 615.78 L165.95 613.66 L163.60 610.72 L159.12 608.43 L155.29 605.86 L155.42 602.06 L158.08 597.57 L156.54 594.30 L156.17 590.72 L158.13 586.55 L152.20 584.36 L147.64 581.75 L146.94 578.20 L151.20 573.60 L150.40 570.13 L148.84 566.79 L151.43 562.70 L147.42 559.78 L143.80 556.74 L142.88 553.23 L144.23 549.40 L144.20 545.78 L143.88 542.20 L143.69 538.62 L140.23 535.36 L137.67 531.95 L139.57 528.16 L142.69 524.32 L141.17 520.82 L144.39 517.07 L143.98 513.52 L140.50 510.06 L137.47 506.51 L136.27 502.90 L135.72 499.26 L138.01 495.64 L143.33 492.14 L141.19 488.50 L140.17 484.87 L141.21 481.31 L136.80 477.44 L137.56 473.85 L138.62 470.29 L140.32 466.80 L142.43 463.39 L140.94 459.60 L142.83 456.19 L139.30 452.10 L140.29 448.56 L142.60 445.24 L143.14 441.66 L144.31 438.20 L144.94 434.64 L142.45 430.48 L139.95 426.25 L141.65 422.86 L146.47 420.19 L146.55 416.48 L150.68 413.76 L154.67 411.07 L149.95 406.11 L147.75 401.74 L144.67 397.04 L144.82 393.22 L150.83 391.21 L150.65 387.31 L154.08 384.58 L157.84 382.02 L154.07 376.84 L153.45 372.70 L156.43 369.88 L158.97 366.93 L160.24 363.49 L165.22 361.59 L164.12 357.19 L164.22 353.24 L163.01 348.69 L163.71 344.94 L166.30 342.07 L168.90 339.23 L170.29 335.81 L172.00 332.55 L171.37 328.06 L169.63 322.92 L171.34 319.58 L175.81 317.79 L174.90 312.98 L179.53 311.35 L185.69 310.72 L183.69 305.18 L183.25 300.51 L183.32 296.10 L184.47 292.35 L187.95 290.14 L190.56 287.37 L191.49 283.44 L200.23 285.07 L199.65 280.08 L199.01 274.95 L207.26 276.51 L204.77 269.91 L207.25 267.09 L212.85 266.83 L212.17 261.46 L214.70 258.70 L214.05 253.21 L214.70 248.75 L219.98 248.38 L223.88 246.84 L225.71 243.42 L231.96 244.20 L234.55 241.55 L233.72 235.50 L235.76 232.23 L240.02 231.22 L239.92 225.68 L243.87 224.37 L249.96 225.47 L250.04 219.99 L250.92 215.29 L252.23 211.01 L254.36 207.63 L257.57 205.52 L261.39 204.18 L262.67 199.67 L266.30 198.11 L270.78 197.70 L269.54 189.67 L271.54 185.85 L275.57 184.80 L280.66 185.34 L282.32 180.97 L286.29 179.96 L291.49 180.88 L291.68 174.10 L294.98 172.09 L298.13 169.82 L301.27 167.54 L304.91 166.08 L308.32 164.26 L310.45 160.14 L313.43 157.48 L317.20 156.27 L322.23 157.49 L325.74 155.88 L328.47 152.71 L333.76 154.76 L335.60 149.66 L338.47 146.64 L341.90 144.78 L345.69 143.75 L349.04 141.71 L353.51 142.36 L359.46 146.86 L361.33 141.15 L364.32 138.16 L368.85 139.32 L370.83 133.39 L374.78 132.94 L378.09 130.60 L382.99 133.14 L386.47 131.39 L389.34 127.47 L394.16 130.19 L396.68 124.88 L400.70 124.84 L404.32 123.35 L407.85 121.42 L411.76 121.03 L415.11 118.14 L418.37 114.67 L422.13 113.39 L426.65 116.02 L431.11 118.75 L434.55 115.84 L439.26 120.63 L443.20 121.01 L445.99 113.30 L449.73 111.78 L453.23 108.06 L457.18 107.86 L461.49 111.31 L465.05 107.25 L469.31 111.19 L473.23 111.26 L476.75 104.74 L480.72 104.98 L484.77 107.23 L488.61 104.16 L492.60 105.79 L496.58 109.62 L500.49 103.79 L504.45 103.75 L508.42 103.60 L512.37 104.22 L516.32 104.38 L520.33 103.59 L524.22 105.05 L528.24 104.25 L532.40 102.10 L536.47 101.43 L540.22 104.09 L543.59 109.76 L547.66 108.78 L551.02 113.46 L554.12 119.41 L558.41 116.74 L562.39 116.43 L566.57 115.08 L570.86 113.30 L575.10 112.11 L579.47 110.44 L583.65 109.93 L587.00 113.18 L591.44 111.65 L595.78 110.71 L599.40 112.73 L602.47 116.72 L606.56 116.82 L610.20 118.54 L613.26 122.16 L616.99 123.45 L621.36 122.73 L626.01 121.33 L629.77 122.66 L633.43 124.28 L636.20 128.32 L639.65 130.39 L643.63 131.06 L647.83 131.20 L652.86 129.43 L656.18 131.88 L659.97 133.18 L663.79 134.44 L665.84 139.57 L669.20 141.75 L674.18 140.56 L678.94 139.95 L683.73 139.41 L688.80 138.45 L692.69 139.81 L695.32 143.52 L699.20 144.92 L702.85 146.73 L706.17 149.13 L710.06 150.55 L712.99 153.57 L716.12 156.23 L720.52 156.90 L722.51 161.30 L727.38 161.31 L732.91 160.46 L736.05 163.16 L740.16 164.48 L743.98 166.25 L745.29 171.40 L748.15 174.41 L751.95 176.20 L755.31 178.56 L757.83 181.98 L760.08 185.68 L765.06 186.10 L765.99 191.32 L768.18 194.99 L773.75 194.87 L776.38 198.06 L779.75 200.45 L782.80 203.20 L785.86 205.93 L786.86 210.75 L788.35 215.00 L791.69 217.40 L795.11 219.76 L798.96 221.73 L803.60 223.03 L809.59 223.19 L812.28 226.36 L812.94 231.26 L815.68 234.35 L816.76 238.81 L816.89 243.98 L819.44 247.15 L821.78 250.49 L824.58 253.48 L827.98 256.03 L829.81 259.75 L833.25 262.31 L837.61 264.26 L841.92 266.30 L845.06 269.18 L845.59 273.80 L846.45 278.15 L847.83 282.14 L847.67 287.05 L850.40 290.17 L854.10 292.74 L860.24 293.95 L865.79 295.61 L866.21 300.15 L865.95 305.02 L869.20 308.00 L870.00 312.26 L871.06 316.37 L874.44 319.33 L874.39 323.95 L876.51 327.53 L876.34 332.14 L875.37 337.05 L877.37 340.65 L880.07 343.97 L883.52 347.01 L886.13 350.43 L888.68 353.90 L890.21 357.76 L891.87 361.58 L895.66 364.67 L898.15 368.25 L900.13 372.02 L900.22 376.39 L904.29 379.55 L911.07 381.99 L909.37 386.90 L914.15 390.02 L921.47 392.58 L922.15 396.89 L922.74 401.22 L923.51 405.49 L924.33 409.75 L925.09 414.03 L925.85 418.30 L926.58 422.57 L927.26 426.85 L927.79 431.16 L928.14 435.49 L928.49 439.81 L928.85 444.13 L929.05 448.46 L929.48 452.76 L929.58 457.09 L929.42 461.44 L928.94 465.80 L928.26 470.16 L927.75 474.49 L927.00 478.82 L926.44 483.12 L926.04 487.40 L925.13 491.69 L924.32 495.95 L957.19 500.00 L958.33 495.42 L958.31 490.83 L958.20 486.25 L956.61 481.73 L955.41 477.21 L954.01 472.73 L952.31 468.29 L951.27 463.82 L949.67 459.42 L947.95 455.06 L946.89 450.64 L945.07 446.33 L943.65 442.00 L942.51 437.64 L940.97 433.35 L939.43 429.09 L938.29 424.76 L936.83 420.51 L935.33 416.28 L934.21 411.98 L932.69 407.77 L931.13 403.59 L929.88 399.35 L927.96 395.27 L925.97 391.23 L931.11 385.32 L932.75 380.23 L928.15 376.88 L932.96 370.80 L934.36 365.64 L932.07 361.59 L931.95 356.86 L932.37 351.90 L932.61 346.97 L931.59 342.46 L929.83 338.21 L928.38 333.85 L927.48 329.26 L927.06 324.46 L926.46 319.70 L922.75 316.26 L917.11 313.73 L914.32 309.98 L911.40 306.32 L906.32 303.73 L907.24 298.23 L904.30 294.63 L901.53 290.96 L900.96 286.13 L896.69 283.29 L893.27 280.02 L894.66 274.03 L896.00 267.98 L895.91 262.68 L893.98 258.45 L888.20 256.62 L884.80 253.35 L881.46 250.08 L875.37 248.67 L872.51 245.15 L872.39 239.73 L871.17 235.02 L868.37 231.42 L865.56 227.82 L863.55 223.63 L860.72 220.05 L857.70 216.61 L854.00 213.74 L847.66 213.06 L842.62 211.41 L838.21 209.30 L833.86 207.19 L831.33 203.49 L831.18 197.60 L829.71 192.84 L827.12 189.09 L824.62 185.22 L821.89 181.57 L817.23 179.84 L813.09 177.63 L810.66 173.67 L807.17 170.80 L803.59 168.04 L799.39 166.00 L797.05 161.85 L791.81 161.05 L786.31 160.63 L783.85 156.64 L779.08 155.45 L775.06 153.37 L772.42 149.57 L769.13 146.56 L764.65 145.14 L758.80 145.64 L755.67 142.48 L752.18 139.80 L747.97 138.16 L745.98 133.25 L743.38 129.17 L738.56 128.46 L735.25 125.43 L730.96 123.97 L727.09 121.83 L723.94 118.49 L719.53 117.29 L714.77 116.77 L711.20 114.12 L706.49 113.61 L701.53 113.65 L698.78 109.44 L695.86 105.48 L693.08 101.11 L690.04 97.17 L684.53 98.48 L680.16 97.44 L676.26 95.34 L671.93 94.26 L668.06 92.07 L665.40 86.85 L661.66 84.19 L657.70 82.03 L652.82 82.37 L647.36 84.46 L643.04 83.49 L638.70 82.57 L635.10 79.40 L631.63 75.66 L627.62 73.59 L622.68 74.64 L617.92 75.26 L613.69 73.99 L608.54 76.32 L603.71 77.65 L599.99 74.48 L596.49 70.10 L591.52 72.30 L587.60 69.63 L583.66 66.87 L579.88 62.99 L575.69 61.18 L571.40 59.79 L567.51 55.71 L563.17 54.31 L557.76 60.93 L553.05 62.99 L548.62 63.01 L543.66 68.36 L539.11 70.39 L535.00 67.72 L530.95 63.63 L526.52 64.35 L522.06 66.17 L517.76 64.88 L513.36 66.17 L509.00 67.30 L504.68 66.92 L500.35 66.22 L495.97 62.02 L491.67 66.39 L487.39 68.17 L483.03 67.24 L478.82 69.87 L474.54 70.43 L469.81 64.41 L465.46 64.77 L461.51 69.68 L456.97 67.65 L453.11 72.37 L448.88 73.18 L444.34 71.64 L439.84 70.62 L434.48 64.16 L430.62 67.87 L427.18 73.73 L422.64 72.92 L419.14 77.75 L415.51 81.47 L411.11 81.34 L406.05 78.27 L401.70 78.66 L397.94 81.50 L393.51 81.56 L389.49 83.24 L385.88 86.38 L380.77 84.12 L377.76 89.19 L372.97 88.20 L369.07 90.15 L365.49 93.01 L361.15 93.56 L357.50 96.14 L351.63 92.53 L348.85 97.47 L344.00 96.84 L339.03 96.04 L338.12 105.28 L334.36 107.34 L330.40 108.93 L326.94 111.63 L322.87 112.97 L318.14 112.91 L313.62 113.38 L311.75 119.28 L307.37 120.03 L304.37 123.49 L302.50 129.01 L298.96 131.31 L294.42 131.78 L289.20 131.16 L286.27 134.55 L282.99 137.33 L279.32 139.41 L276.32 142.60 L273.26 145.63 L267.21 144.07 L266.05 149.98 L262.96 152.92 L259.11 154.76 L257.73 160.07 L255.06 163.50 L250.57 164.44 L243.30 161.77 L241.17 165.96 L237.75 168.44 L234.07 170.62 L232.34 175.17 L229.91 178.82 L226.87 181.72 L222.89 183.54 L218.01 184.40 L212.33 184.44 L212.16 190.53 L210.39 194.80 L204.69 194.97 L203.84 200.14 L199.84 202.11 L193.74 202.08 L190.07 204.49 L191.39 211.58 L189.26 215.36 L186.73 218.75 L186.44 224.10 L183.15 226.78 L177.03 227.09 L173.17 229.38 L168.67 231.19 L169.96 237.67 L167.36 240.99 L161.77 242.02 L166.40 250.79 L160.81 251.86 L154.80 252.73 L158.83 260.74 L156.34 264.08 L153.67 267.31 L152.46 271.51 L149.90 274.81 L145.53 276.98 L140.24 278.64 L135.93 280.98 L138.63 287.49 L138.39 292.19 L135.74 295.49 L137.43 301.18 L135.63 304.91 L129.84 306.54 L125.16 308.84 L124.18 313.05 L123.10 317.19 L121.60 321.12 L121.55 325.70 L119.57 329.38 L115.65 332.22 L112.06 335.25 L109.57 338.78 L111.93 344.28 L109.83 347.95 L110.41 352.65 L111.33 357.42 L107.39 360.42 L101.48 362.79 L102.58 367.60 L104.07 372.48 L101.92 376.16 L106.06 381.76 L104.13 385.48 L99.85 388.57 L95.11 391.60 L89.88 394.58 L92.94 399.70 L95.41 404.59 L94.19 408.57 L97.84 413.61 L97.47 417.74 L93.50 421.15 L88.80 424.50 L89.27 428.82 L89.86 433.14 L88.87 437.19 L90.85 441.68 L91.72 445.96 L87.55 449.60 L89.21 453.97 L87.79 457.98 L90.41 462.38 L89.44 466.43 L90.59 470.64 L91.02 474.78 L86.32 478.64 L87.46 482.83 L85.23 486.89 L84.95 491.04 L91.77 495.27 L91.86 499.35 L91.84 503.43 L91.60 507.52 L88.86 511.68 L85.94 515.91 L87.47 519.99 L91.76 523.87 L91.39 528.00 L95.79 531.76 L98.63 535.58 L96.95 539.79 L94.07 544.18 L94.00 548.30 L95.82 552.19 L96.34 556.23 L98.99 559.95 L100.15 563.87 L99.00 568.18 L97.28 572.62 L101.88 575.91 L101.26 580.17 L102.81 584.00 L108.73 586.84 L109.17 590.85 L106.58 595.61 L103.66 600.53 L106.73 603.95 L107.99 607.82 L110.67 611.28 L114.55 614.35 L116.57 617.94 L116.26 622.25 L114.32 627.13 L115.06 631.17 L113.94 635.87 L118.75 638.48 L122.61 641.36 L122.81 645.61 L126.68 648.42 L126.06 653.01 L121.82 659.18 L124.72 662.40 L130.71 664.21 L130.95 668.54 L136.56 670.39 L140.63 672.89 L139.40 677.94 L136.85 683.74 L137.17 688.16 L142.34 690.04 L145.42 692.97 L148.11 696.10 L152.66 698.14 L155.95 700.85 L153.51 706.94 L153.58 711.63 L158.81 713.16 L161.73 716.06 L164.77 718.87 L168.39 721.26 L170.31 724.78 L170.17 729.74 L169.20 735.37 L172.01 738.34 L177.56 739.28 L181.12 741.62 L186.84 742.25 L191.13 743.90 L192.74 747.66 L192.81 752.71 L194.67 756.34 L197.83 758.89 L200.67 761.69 L205.03 763.13 L208.21 765.58 L209.79 769.49 L210.45 774.32 L211.69 778.68 L215.31 780.74 L219.39 782.31 L223.28 784.02 L228.26 784.54 L231.09 787.28 L232.80 791.23 L234.11 795.68 L238.51 796.71 L241.95 798.78 L246.16 799.91 L251.63 799.47 L253.17 803.75 L254.18 808.76 L255.06 814.05 L256.82 818.31 L261.82 818.31 L266.13 819.16 L270.73 819.53 L275.80 819.16 L278.77 821.73 L280.27 826.48 L282.56 830.16 L286.32 831.63 L289.92 833.30 L293.95 834.27 L298.40 834.50 L301.66 836.67 L304.36 839.81 L307.15 842.84 L310.91 844.17 L315.83 843.31 L318.69 846.24 L323.28 845.84 L326.14 848.82 L328.27 853.35 L331.91 854.84 L334.60 858.38 L338.95 858.34 L344.27 855.98 L348.11 856.87 L352.00 857.62 L355.34 859.68 L357.85 863.92 L360.00 869.27 L364.79 867.69 L369.97 864.81 L373.27 867.13 L378.42 863.96 L382.69 863.23 L385.44 867.22 L387.92 872.33 L391.77 873.02 L395.84 872.90 L399.73 873.34 L404.17 871.58 L408.14 871.53 L411.17 875.34 L414.70 877.21 L419.33 874.11 L422.54 877.51 L426.72 876.20 L431.32 872.37 L434.89 873.95 L438.02 878.29 L441.33 882.01 L445.24 881.99 L449.05 882.59 L453.27 879.93 L457.22 879.05 L461.14 878.19 L464.76 880.37 L468.31 883.75 L472.06 885.34 L475.80 887.44 L479.88 883.66 L483.74 883.25 L487.60 882.86 L491.47 880.92 L495.24 884.18 L499.07 889.28 L502.94 886.31 L506.73 881.95 L510.60 883.74 L514.29 879.82 L518.03 878.33 L522.01 881.57 L526.16 886.36 L530.02 885.98 L533.79 884.71 L537.15 879.38 L541.09 880.34 L544.82 879.31 L547.86 873.00 L552.27 877.45 L556.46 879.71 L559.37 873.55 L562.86 871.49 L566.60 871.00 L570.16 869.59 L574.15 870.33 L578.63 873.28 L582.98 875.30 L586.84 874.94 L589.38 869.05 L592.89 867.45 L595.54 862.63 L598.09 857.74 L602.24 858.76 L606.96 861.58 L610.70 860.90 L613.49 857.22 L617.19 856.48 L619.78 852.44 L622.57 849.14 L626.59 849.38 L631.45 851.76 L636.27 853.83 L639.30 851.20 L641.38 846.31 L645.55 846.57 L647.19 840.89 L649.71 837.41 L654.11 838.16 L659.91 841.79 L661.40 836.17 L664.56 834.14 L668.10 832.89 L668.72 825.99 L671.41 823.22 L676.03 824.06 L680.95 825.31 L686.09 826.83 L687.09 821.06 L689.23 817.40 L692.73 816.04 L693.64 810.51 L696.84 808.72 L701.77 809.57 L706.43 809.91 L707.30 804.56 L709.67 801.53 L712.18 798.71 L713.07 793.70 L716.52 792.27 L722.17 793.70 L726.71 793.56 L730.22 792.03 L730.03 785.85 L734.53 785.55 L735.01 780.38 L736.60 776.61 L742.42 777.73 L744.97 775.06 L747.92 772.83 L749.60 769.21 L749.81 764.09 L751.00 760.09 L752.26 756.22 L755.48 754.36 L760.79 754.50 L767.65 756.02 L767.61 750.91 L767.58 745.89 L771.58 744.60 L770.46 738.74 L771.14 734.56 L775.82 733.82 L781.70 734.01 L782.06 729.58 L782.69 725.43 L785.87 723.33 L785.16 718.22 L786.92 715.05 L793.20 715.21 L795.88 712.66 L795.02 707.59 L799.35 706.20 L798.80 701.45 L796.76 695.78 L799.67 693.43 L804.94 692.54 L809.20 690.93 L811.30 687.95 L813.72 685.16 L812.29 680.13 L812.87 676.32 L812.71 672.13 L815.23 669.43 L819.50 667.63 L823.44 665.60 L825.55 662.59 L823.71 657.64 L826.89 655.17 L826.76 651.12 L826.64 647.12 L830.92 645.08 L837.82 644.10 L835.67 639.23 L834.21 634.72 L837.19 632.02 L833.07 626.58 L832.81 622.69 L836.59 620.27 L839.94 617.65 L843.88 615.18 L843.41 611.21 L839.86 606.32 L841.87 603.21 L842.98 599.81 L837.84 594.66 L842.31 592.23 L846.55 589.67 L843.53 585.23 L842.31 581.30 L843.58 577.98 L841.78 573.99 L842.90 570.65 L845.30 567.55 L850.07 564.86 L850.98 561.40 L847.39 557.20 L850.87 554.17 L849.14 550.34 L846.85 546.47 L848.83 543.19 L853.10 540.14 L852.78 536.53 L851.20 532.82 L851.98 529.35 L849.63 525.63 L848.06 522.02 L850.53 518.66 L854.34 515.31 L858.36 511.90 L855.88 508.25 L852.78 504.65 L854.16 501.13 L850.60 497.61 L849.48 494.12 L853.03 490.53 L857.03 486.85 L852.30 483.50 L852.09 479.97 L850.75 476.53 L845.09 473.44 L844.76 469.99 L847.99 466.20 L849.67 462.51 L852.23 458.67 L848.26 455.60 L845.16 452.48 L844.66 449.03 L840.99 446.09 L842.02 442.41 L844.91 438.37 L845.73 434.65 L842.20 431.77 L840.26 428.61 L838.18 425.51 L835.19 422.64 L835.50 419.03 L838.54 414.70 L840.03 410.70 L839.11 407.31 L833.57 405.23 L834.02 401.48 L829.90 399.10 L828.76 395.84 L831.31 391.38 L827.61 388.95 L828.22 385.07 L825.26 382.44 L819.83 380.78 L817.78 377.91 L817.76 374.25 L818.93 370.09 L821.22 365.39 L823.69 360.54 L818.73 358.88 L814.27 357.08 L813.10 353.81 L807.33 352.75 L804.71 350.24 L806.56 345.50 L807.92 340.94 L804.10 339.04 L801.57 336.50 L799.52 333.71 L795.28 332.18 L793.74 329.15 L796.56 323.52 L794.05 321.00 L789.01 320.09 L789.46 315.76 L784.50 314.90 L779.89 313.89 L779.84 309.86 L781.73 304.43 L780.04 301.42 L778.07 298.61 L776.48 295.52 L769.83 296.23 L767.21 293.97 L764.87 291.52 L763.85 288.02 L764.37 283.22 L764.76 278.43 L761.34 276.81 L756.17 276.76 L754.60 273.61 L749.46 273.68 L745.92 272.36 L745.46 268.19 L747.63 261.41 L742.26 261.86 L737.90 261.42 L736.65 257.88 L730.37 259.55 L726.55 258.75 L726.12 254.33 L726.47 248.95 L725.84 244.57 L719.91 246.20 L717.38 243.99 L715.76 240.69 L711.54 240.53 L707.43 240.31 L709.26 232.58 L707.53 229.25 L701.81 231.19 L699.33 228.89 L697.18 226.11 L693.39 225.63 L691.58 222.35 L690.70 217.62 L689.73 212.91 L685.61 212.94 L679.97 215.47 L677.01 213.86 L671.38 216.67 L667.06 217.46 L665.53 213.54 L664.60 208.47 L661.33 207.47 L657.39 207.74 L654.62 205.87 L650.24 207.13 L646.80 206.64 L645.03 202.80 L643.80 197.67 L642.76 191.96 L638.05 194.14 L633.57 196.00 L630.97 193.63 L626.22 196.38 L622.69 196.33 L621.39 190.70 L619.44 186.48 L614.46 190.26 L611.67 188.27 L608.05 188.60 L603.40 192.10 L600.45 190.66 L598.51 185.98 L596.33 181.84 L593.58 179.36 L589.30 182.27 L586.04 181.69 L582.30 182.96 L578.24 185.71 L575.52 183.16 L573.27 178.38 L570.09 177.47 L566.37 179.17 L563.01 179.26 L559.45 180.54 L555.87 182.13 L553.12 178.94 L550.30 175.94 L547.60 171.70 L544.18 172.21 L540.13 178.01 L537.22 174.85 L533.59 178.16 L530.36 177.88 L527.46 173.75 L524.07 175.26 L520.94 173.13 L517.48 176.46 L514.12 179.12 L510.85 180.84 L507.67 180.09 L504.51 177.51 L501.30 173.93 L498.01 169.99 L494.79 174.51 L491.62 178.09 L488.36 177.03 L485.33 181.41 L482.20 182.52 L478.75 178.61 L475.29 175.54 L472.34 179.25 L469.26 180.84 L466.12 181.61 L463.28 184.92 L460.12 185.24 L456.12 179.40 L453.12 181.26 L450.46 185.04 L446.83 182.65 L444.33 187.02 L441.76 190.53 L438.25 189.01 L434.06 184.47 L431.14 186.20 L427.91 186.49 L424.68 186.81 L422.95 193.17 L419.91 194.05 L416.83 194.78 L413.27 193.82 L409.09 190.85 L405.05 188.67 L402.77 192.25 L400.67 196.20 L397.18 195.89 L395.08 199.61 L392.35 201.42 L388.01 198.85 L383.42 195.86 L382.18 201.57 L380.00 204.72 L376.56 204.76 L375.45 210.29 L372.22 210.77 L367.47 207.96 L362.96 205.88 L359.46 206.08 L358.63 211.77 L357.68 217.03 L353.86 216.53 L353.00 221.75 L350.74 224.18 L345.44 221.08 L343.81 224.66 L341.35 226.73 L340.35 231.24 L337.91 233.25 L335.08 234.61 L330.96 233.95 L326.07 232.21 L321.05 230.42 L320.53 235.42 L320.67 241.22 L317.76 242.56 L318.52 249.00 L317.21 252.44 L312.65 251.50 L307.30 249.66 L306.41 253.64 L304.60 256.39 L302.36 258.58 L302.69 263.84 L301.07 266.68 L296.99 266.67 L292.31 266.06 L287.50 265.41 L287.85 270.45 L287.54 274.68 L284.47 275.95 L285.45 281.39 L283.32 283.59 L277.40 282.07 L273.75 282.90 L275.42 288.77 L272.51 290.28 L271.91 293.91 L273.40 299.34 L271.44 301.64 L266.30 301.24 L262.21 301.82 L259.02 303.21 L260.47 308.36 L257.42 309.87 L258.14 314.31 L259.04 318.80 L255.76 320.13 L251.13 320.53 L249.02 322.80 L249.83 327.09 L247.95 329.49 L248.51 333.51 L248.88 337.34 L243.53 337.50 L241.09 339.55 L235.72 339.86 L234.93 342.98 L238.21 348.44 L234.40 349.76 L236.73 354.54 L235.03 357.04 L231.11 358.38 L228.59 360.50 L226.16 362.69 L229.41 367.69 L229.31 370.98 L230.46 374.82 L229.93 377.84 L226.55 379.59 L222.19 380.98 L217.08 382.12 L220.17 386.68 L220.99 390.24 L219.06 392.72 L222.19 397.08 L221.15 399.86 L216.91 401.52 L213.00 403.37 L214.94 407.18 L214.97 410.34 L214.68 413.37 L216.29 416.95 L214.80 419.60 L208.35 420.92 L209.57 424.36 L212.79 428.26 L211.07 430.89 L214.99 434.83 L218.79 438.66 L217.84 441.40 L210.71 442.93 L210.91 445.97 L208.03 448.44 L204.67 450.89 L208.56 454.53 L206.53 457.21 L205.52 460.07 L203.71 462.84 L201.35 465.57 L197.27 468.16 L200.46 471.52 L204.17 474.86 L202.84 477.74 L207.23 481.01 L208.19 484.00 L204.76 486.77 L199.34 489.54 L204.41 492.67 L203.73 495.62 L203.55 498.58 L209.56 501.52 L209.63 504.42 L207.05 507.39 L203.97 510.43 L201.30 513.52 L205.11 516.30 L208.54 519.04 L204.68 522.26 L207.56 524.98 L208.16 527.87 L203.64 531.30 L206.00 534.03 L207.63 536.80 L209.53 539.52 L210.32 542.37 L210.69 545.27 L207.84 548.72 L203.61 552.47 L200.14 556.19 L205.92 558.15 L211.39 560.08 L212.82 562.78 L219.61 564.24 L221.72 566.69 L219.53 570.19 L216.10 574.07 L218.91 576.35 L220.95 578.80 L221.71 581.60 L225.90 583.36 L226.84 586.06 L224.62 589.80 L222.48 593.58 L220.35 597.42 L224.73 598.99 L229.18 600.46 L229.13 603.57 L233.69 604.89 L234.22 607.77 L230.15 612.58 L230.82 615.47 L236.63 616.11 L237.15 619.03 L240.88 620.48 L246.01 621.20 L246.46 624.11 L244.23 628.39 L242.58 632.45 L244.23 634.86 L248.94 635.60 L248.78 638.95 L252.75 640.00 L255.65 641.61 L254.69 645.45 L253.04 649.79 L255.09 651.92 L258.17 653.38 L260.27 655.43 L264.67 655.95 L267.66 657.33 L265.35 662.34 L267.38 664.40 L266.08 668.85 L268.91 670.35 L274.94 669.40 L275.02 672.89 L279.30 673.14 L279.46 676.60 L280.24 679.62 L281.43 682.32 L282.19 685.41 L288.51 683.71 L291.06 685.20 L293.52 686.73 L294.42 689.69 L294.01 693.92 L293.57 698.26 L294.64 701.22 L299.78 700.15 L302.64 701.27 L306.62 701.20 L311.29 700.32 L312.60 702.96 L311.74 708.02 L312.82 711.04 L316.68 710.89 L318.84 712.66 L322.38 712.78 L325.54 713.29 L326.62 716.36 L326.26 721.30 L326.86 725.14 L329.66 726.14 L334.04 724.97 L335.46 727.79 L340.12 726.05 L343.37 726.23 L344.03 730.16 L343.50 735.99 L348.12 734.07 L351.28 734.30 L353.62 735.79 L359.01 732.27 L361.78 732.91 L362.42 737.21 L363.19 741.41 L364.12 745.46 L368.57 743.14 L372.42 741.76 L374.25 744.17 L378.27 742.30 L380.57 743.77 L381.33 748.46 L382.74 751.97 L386.66 750.05 L389.68 750.00 L392.72 749.85 L396.13 748.73 L398.57 749.88 L399.72 754.34 L401.36 757.69 L403.76 759.15 L407.97 755.62 L409.77 758.71 L413.42 756.48 L416.34 756.25 L417.50 761.53 L420.57 760.86 L422.93 762.49 L425.81 762.36 L429.84 757.93 L432.52 758.26 L434.98 759.41 L437.07 762.18 L438.81 766.63 L440.55 771.48 L444.13 767.95 L447.55 764.77 L450.10 765.78 L453.62 761.42 L456.44 760.70 L458.45 764.90 L460.52 769.31 L463.53 767.36 L466.38 766.34 L469.07 766.47 L472.04 763.85 L474.68 764.14 L477.03 767.79 L479.50 770.80 L482.02 773.85 L484.97 770.15 L487.83 766.76 L490.46 767.95 L493.24 764.31 L495.86 765.54 L498.49 771.41 L501.20 770.66 L503.84 766.08 L506.53 767.20 L509.07 763.49 L511.55 759.78 L514.23 761.21 L517.07 764.51 L519.99 768.07 L522.53 766.28 L524.94 763.30 L527.83 765.55 L530.08 761.71 L532.56 760.36 L535.55 762.84 L538.63 765.63 L540.99 763.34 L543.22 760.45 L545.80 759.89 L547.87 756.63 L550.25 755.19 L553.76 759.30 L556.15 757.84 L559.52 760.76 L561.57 757.81 L563.13 753.10 L565.98 753.71 L567.71 750.05 L571.16 752.78 L573.61 751.79 L576.55 752.43 L579.38 752.65 L579.99 745.96 L582.20 744.42 L584.35 742.76 L587.09 742.79 L590.73 745.17 L594.59 747.97 L596.98 746.80 L597.87 741.93 L600.27 740.89 L601.12 736.24 L602.28 732.52 L605.31 733.03 L609.77 736.58 L612.30 735.83 L613.88 733.10 L616.33 732.21 L617.18 728.17 L618.70 725.56 L621.82 725.98 L625.93 728.10 L629.90 729.85 L630.79 726.10 L631.55 722.26 L634.44 722.04 L634.41 717.07 L636.04 714.86 L640.16 716.55 L644.65 718.66 L644.12 713.19 L646.47 712.08 L647.98 709.74 L646.56 703.38 L648.27 701.47 L652.57 703.03 L656.25 703.66 L659.66 703.85 L659.11 699.02 L659.77 695.79 L662.03 694.56 L661.66 690.22 L664.08 689.19 L668.55 690.46 L671.58 690.03 L671.44 686.10 L672.59 683.62 L673.17 680.59 L673.49 677.34 L675.93 676.27 L679.66 676.44 L684.32 677.44 L686.13 675.62 L683.75 669.94 L687.30 669.78 L686.29 665.50 L687.29 663.07 L692.37 664.13 L692.64 661.07 L694.82 659.61 L694.77 656.34 L693.40 652.08 L694.42 649.76 L696.62 648.35 L700.63 648.25 L705.77 648.89 L711.05 649.51 L707.75 644.08 L705.01 639.17 L705.96 636.82 L703.38 632.20 L702.56 628.80 L707.66 629.15 L713.11 629.59 L713.66 627.02 L713.76 624.21 L715.35 622.27 L714.24 618.82 L714.52 616.18 L718.34 615.44 L721.20 614.14 L723.96 612.74 L720.99 608.49 L718.84 604.73 L720.35 602.76 L718.73 599.36 L720.54 597.53 L726.80 597.60 L728.80 595.76 L725.24 591.63 L726.57 589.54 L725.09 586.37 L722.65 582.89 L725.35 581.33 L730.22 580.50 L734.40 579.34 L732.30 576.05 L729.14 572.48 L730.26 570.31 L727.94 567.12 L727.12 564.42 L731.45 563.15 L736.46 561.99 L737.59 559.75 L735.83 556.80 L735.99 554.35 L734.86 551.63 L733.52 548.89 L737.49 547.24 L734.45 544.21 L739.28 542.64 L737.56 539.89 L733.94 536.88 L736.14 534.81 L734.57 532.19 L739.92 530.48 L738.54 527.88 L739.21 525.54 L741.57 523.35 L734.29 520.29 L733.43 517.86 L733.54 515.52 L733.11 513.15 L734.70 510.89 L736.93 508.62 L738.07 506.28 L733.71 503.83 L732.95 501.48 L731.84 499.16 L728.72 496.88 L729.11 494.59 L731.57 492.21 L735.28 489.73 L733.06 487.49 L731.44 485.25 L732.56 482.85 L730.87 480.65 L731.18 478.29 L733.89 475.68 L729.56 473.80 L727.31 471.75 L728.05 469.34 L724.21 467.57 L723.37 465.41 L726.62 462.58 L730.26 459.61 L727.75 457.70 L727.50 455.39 L726.71 453.19 L723.78 451.45 L722.55 449.38 L722.20 447.12 L723.52 444.44 L724.23 441.88 L726.00 439.00 L721.60 437.80 L716.52 436.89 L719.77 433.55 L717.15 431.96 L716.71 429.71 L720.82 425.93 L722.58 422.86 L716.79 422.43 L715.63 420.40 L714.83 418.24 L710.46 417.49 L710.68 414.97 L713.97 411.14 L718.19 406.82 L714.27 405.95 L709.40 405.57 L711.54 402.05 L710.33 400.05 L702.88 401.09 L703.68 398.17 L708.96 392.90 L702.85 393.46 L699.99 392.39 L699.51 390.07 L697.64 388.50 L695.32 387.23 L695.57 384.46 L697.74 380.49 L698.08 377.56 L691.93 378.70 L687.80 378.66 L686.60 376.77 L681.08 377.80 L678.18 377.15 L679.42 373.63 L682.09 369.00 L679.09 368.42 L675.79 368.12 L676.02 365.18 L673.22 364.55 L671.21 363.35 L671.45 360.32 L671.37 357.52 L672.50 353.64 L667.58 354.90 L666.08 353.27 L664.43 351.77 L660.23 352.62 L658.92 350.87 L662.12 344.79 L659.02 344.68 L655.00 345.54 L656.02 341.39 L651.36 343.01 L648.02 343.38 L646.76 341.57 L646.25 338.92 L647.30 334.46 L643.53 335.42 L638.97 337.39 L639.09 333.91 L635.97 334.30 L632.58 335.09 L632.07 332.32 L633.62 326.82 L631.58 325.89 L628.02 327.03 L627.38 324.26 L624.69 324.30 L621.72 324.79 L623.02 319.08 L619.79 319.99 L619.79 316.02 L617.25 315.93 L614.88 315.61 L613.05 314.44 L609.54 316.09 L609.17 312.46 L606.49 312.78 L604.78 311.43 L602.89 310.38 L598.47 314.12 L596.72 312.93 L594.47 312.72 L592.58 311.80 L591.55 309.09 L591.05 305.16 L589.03 304.42 L585.33 307.46 L583.42 306.57 L581.03 306.82 L577.81 309.16 L576.04 308.04 L575.14 304.63 L574.30 300.90 L571.54 302.27 L569.38 302.07 L567.63 300.70 L565.17 301.47 L563.47 299.89 L562.47 296.00 L559.26 299.34 L557.78 296.91 L555.70 296.50 L552.45 300.58 L550.53 299.75 L549.02 297.19 L548.15 291.68 L545.58 293.41 L543.21 294.40 L541.32 293.18 L538.88 294.73 L536.46 296.34 L534.46 295.76 L532.67 293.85 L530.99 290.93 L529.46 286.59 L526.75 290.78 L524.55 291.47 L522.87 287.37 L520.44 290.30 L518.37 289.74 L516.65 284.65 L514.35 286.70 L512.02 290.02 L509.97 288.88 L507.72 292.37 L505.62 293.23 L503.58 291.63 L501.51 289.08 L499.40 288.29 L497.28 287.92 L495.22 290.85 L493.13 290.91 L491.06 291.35 L489.10 293.89 L486.88 291.45 L484.74 290.86 L482.88 293.79 L480.98 295.66 L479.01 296.63 L477.04 297.34 L475.00 297.46 L472.67 295.50 L470.18 292.67 L467.77 290.75 L466.60 296.69 L464.94 299.14 L463.12 300.52 L462.14 306.09 L460.28 306.86 L457.90 305.21 L455.25 302.53 L453.81 305.24 L452.07 306.50 L450.20 307.24 L448.85 309.88 L447.05 310.77 L444.57 309.27 L441.99 307.60 L439.25 305.57 L438.83 310.89 L436.24 309.40 L435.05 312.13 L434.70 317.06 L432.96 317.94 L428.50 311.67 L427.56 314.79 L426.87 318.40 L423.65 315.75 L423.56 320.63 L423.05 324.31 L421.17 324.80 L418.99 324.68 L414.74 320.21 L414.35 323.96 L414.52 328.70 L410.73 325.48 L410.63 329.52 L410.16 332.70 L408.06 332.83 L404.45 330.30 L404.02 333.47 L403.63 336.59 L400.97 335.85 L400.43 338.63 L399.47 340.66 L394.72 336.76 L393.70 338.74 L390.73 337.80 L389.71 339.76 L387.67 340.24 L387.25 343.01 L387.58 346.72 L383.02 343.80 L383.27 347.35 L381.56 348.28 L379.23 348.44 L382.05 354.99 L380.37 355.89 L379.93 358.27 L379.02 360.05 L377.08 360.64 L372.14 357.94 L370.83 359.34 L372.52 363.93 L368.78 362.72 L369.03 365.69 L369.96 369.29 L368.58 370.52 L365.25 369.87 L363.63 370.92 L363.87 373.70 L361.86 374.38 L361.55 376.61 L361.20 378.77 L357.99 378.44 L354.48 377.93 L356.13 381.75 L352.74 381.42 L352.67 383.77 L354.95 387.90 L354.60 389.93 L351.94 390.23 L346.54 388.59 L346.14 390.63 L345.60 392.55 L345.09 394.48 L344.73 396.50 L345.90 399.49 L345.14 401.18 L343.70 402.45 L341.73 403.41 L337.60 403.10 L340.59 407.03 L339.02 408.27 L336.37 408.91 L338.09 411.98 L336.09 413.00 L329.49 411.67 L329.93 414.04 L333.12 417.74 L329.58 418.11 L332.51 421.57 L334.92 424.70 L333.46 426.03 L330.07 426.56 L328.67 427.97 L326.55 429.11 L329.69 432.38 L327.89 433.65 L324.04 434.18 L330.98 438.69 L327.02 439.21 L321.57 439.29 L327.45 443.21 L326.48 444.81 L324.84 446.21 L325.91 448.43 L324.53 449.93 L321.38 450.96 L318.14 452.02 L319.29 454.25 L321.04 456.59 L321.43 458.57 L324.75 461.18 L325.51 463.18 L324.52 464.80 L323.47 466.42 L323.15 468.19 L323.94 470.15 L324.00 471.96 L325.27 473.96 L325.45 475.77 L323.87 477.34 L321.11 478.80 L320.52 480.55 L320.16 482.33 L320.32 484.15 L321.82 486.08 L322.99 487.95 L323.28 489.75 L322.32 491.47 L321.33 493.21 L321.24 495.00 L321.23 496.79 L321.16 498.58 L322.93 500.36 L323.34 502.13 L323.16 503.90 L323.12 505.67 L325.76 507.33 L327.12 509.00 L328.09 510.68 L330.62 512.22 L330.38 513.95 L329.49 515.74 L328.07 517.60 L328.34 519.31 L329.06 520.96 L329.76 522.61 L331.04 524.16 L331.54 525.81 L330.86 527.65 L329.44 529.64 L329.47 531.39 L330.70 532.92 L332.32 534.35 L333.26 535.90 L334.39 537.39 L334.60 539.08 L333.54 541.10 L333.22 542.95 L334.78 544.31 L336.84 545.51 L338.34 546.84 L339.84 548.15 L339.89 549.89 L338.62 552.06 L336.54 554.54 L338.59 555.65 L340.29 556.86 L342.00 558.04 L345.56 558.49 L346.90 559.74 L347.04 561.45 L346.33 563.53 L346.71 565.18 L348.47 566.23 L349.09 567.76 L350.96 568.72 L351.37 570.34 L351.11 572.30 L349.34 575.03 L349.27 576.95 L350.64 578.15 L351.81 579.43 L353.61 580.36 L355.59 581.16 L356.68 582.45 L357.04 584.16 L356.87 586.19 L359.16 586.75 L360.96 587.56 L362.84 588.31 L364.77 588.99 L365.75 590.28 L365.72 592.27 L364.95 594.80 L365.18 596.67 L367.77 596.83 L368.79 598.11 L370.43 598.92 L371.22 600.36 L370.97 602.66 L369.68 605.82 L369.23 608.38 L371.65 608.56 L373.53 609.15 L375.50 609.65 L377.73 609.87 L378.45 611.44 L377.56 614.53 L377.44 616.96 L379.99 616.85 L382.08 617.13 L384.31 617.23 L386.71 617.13 L387.79 618.35 L387.25 621.33 L386.72 624.37 L388.44 624.97 L389.88 625.87 L392.04 625.92 L395.26 624.66 L397.15 624.93 L398.23 626.17 L398.02 629.05 L398.61 630.98 L403.48 627.30 L406.12 626.41 L407.59 627.07 L411.47 624.33 L413.06 624.72 L411.57 629.61 L411.83 632.04 L415.55 629.25 L418.35 627.74 L419.39 628.93 L421.94 627.68 L423.31 628.30 L422.35 632.90 L421.82 636.94 L424.38 635.59 L427.21 633.64 L428.13 635.14 L430.62 633.68 L432.51 633.27 L432.44 636.78 L432.04 641.13 L433.54 641.63 L436.70 638.49 L438.91 637.25 L440.59 637.16 L442.78 635.82 L443.87 637.04 L443.46 642.08 L444.07 644.74 L447.35 640.42 L449.42 639.11 L450.52 640.44 L452.43 639.43 L453.78 640.05 L453.73 645.06 L454.21 648.69 L456.58 646.17 L458.95 643.42 L460.02 645.14 L461.99 643.59 L463.69 642.95 L464.20 647.07 L464.87 650.86 L466.76 649.50 L469.30 644.90 L471.05 643.75 L472.64 643.20 L474.39 641.76 L475.60 643.20 L476.32 647.91 L477.55 649.80 L479.77 644.84 L481.49 642.95 L482.87 643.55 L484.55 641.47 L485.93 641.99 L486.90 647.20 L488.10 650.84 L489.87 647.09 L491.54 643.81 L492.92 645.07 L494.47 642.58 L495.91 642.02 L497.26 646.04 L498.69 649.50 L500.18 648.20 L501.62 644.25 L503.05 643.51 L504.47 643.06 L505.89 642.77 L507.51 646.39 L509.27 651.26 L510.86 652.14 L511.96 646.86 L513.19 644.13 L514.75 645.15 L516.05 643.70 L517.59 644.36 L519.67 648.98 L521.75 652.98 L522.33 646.52 L523.01 641.48 L524.90 643.98 L526.03 642.06 L527.33 641.16 L530.00 647.07 L532.65 652.24 L533.25 647.85 L533.48 642.18 L535.26 643.33 L536.57 642.48 L537.41 639.93 L540.08 644.11 L543.23 649.63 L544.57 648.67 L543.96 641.48 L544.58 638.57 L546.15 638.68 L546.68 635.75 L548.48 636.51 L552.25 642.60 L554.72 644.83 L553.42 637.23 L553.04 632.31 L554.67 632.54 L554.62 628.74 L555.57 627.42 L559.74 633.33 L562.88 636.65 L562.35 632.02 L561.67 627.26 L563.22 627.20 L563.11 623.86 L563.26 621.15 L566.83 624.92 L571.15 629.85 L573.89 631.72 L576.35 632.97 L576.55 630.28 L576.87 627.88 L576.68 624.72 L575.67 620.36 L574.98 616.66 L575.27 614.57 L575.51 612.47 L575.97 610.76 L576.85 609.67 L577.89 608.82 L578.20 606.97 L578.97 605.79 L580.02 604.99 L580.17 603.04 L580.65 601.54 L581.14 600.09 L581.36 598.33 L582.01 597.13 L582.57 595.83 L582.88 594.26 L583.67 593.26 L584.63 592.46 L584.77 590.77 L585.48 589.71 L586.00 588.47 L586.08 586.80 L586.35 585.35 L586.80 584.09 L587.06 582.67 L587.25 581.21 L587.53 579.86 L587.86 578.55 L587.93 577.05 L588.08 575.64 L588.37 574.36 L588.45 572.93 L588.68 571.64 L589.11 570.53 L589.56 569.44 L589.99 568.35 L590.35 567.21 L590.73 566.09 L591.11 564.98 L591.48 563.88 L591.82 562.76 L592.17 561.65 L592.49 560.54 L592.83 559.44 L593.17 558.35 L593.51 557.27 L593.82 556.18 L594.11 555.08 L594.40 553.99 L594.68 552.90 L594.96 551.82 L595.23 550.74 L595.49 549.66 L595.74 548.58 L596.00 547.51 L596.25 546.44 L596.50 545.38 L596.73 544.31 L596.95 543.24 L597.18 542.19 L597.40 541.13 L597.61 540.07 L597.80 539.01 L597.99 537.96 L598.16 536.90 L598.32 535.84 L598.48 534.79 L598.63 533.73 L598.77 532.68 L598.90 531.63 L599.02 530.58 L599.13 529.54 L599.24 528.49 L599.33 527.44 L599.41 526.40 L599.48 525.36 L599.55 524.31 L599.60 523.27 L599.64 522.24 L599.68 521.20 L599.70 520.16 L599.72 519.13 L599.72 518.10 L599.71 517.07 L599.69 516.04 L599.66 515.02 L599.62 513.99 L599.57 512.97 L599.51 511.95 L599.44 510.94 L599.37 509.93 L599.28 508.91 L599.18 507.91 L599.07 506.90 L598.96 505.90 L598.83 504.90 L598.69 503.91 L598.54 502.91 L598.38 501.92 L598.22 500.94 Z"/>
  <svg class="pausebutton" id="pausebutton">
    <circle cx="500" cy="500" id="pausestart" class="pausestart" r="52.65"/>
    <rect height="50.02" width="10.00" y="473.68" rx="2.00" ry="2.00" x="479.99" class="pausesymbol"/>
    <rect height="50.02" width="10.00" y="473.68" rx="2.00" ry="2.00" x="510.00" class="pausesymbol"/>
    <polygon points="530.01,500 479.99,530.01 479.99,469.99" class="playsymbol"/>
  </svg>
  <polygon id="playback-head" class="playback-head" points="941.65,500 921.65,540 961.65,540"/>
</svg>