<?xml-stylesheet href="../../style/waveformjs.css" type="text/css"?>
<svg xmlns="http://www.w3.org/2000/svg" xmlns:xlink="http://www.w3.org/1999/xlink" width="100%" height="100%" viewBox="0 0 1000 1000">
  <path class="svg-wave" id="sp" d="M598.02 500.00 L598.20 500.98 L598.37 501.97 L598.52 502.96 L598.67 503.95 L598.81 504.94 L598.94 505.94 L599.05 506.95 L599.16 507.95 L599.24 508.96 L599.31 509.96 L599.38 510.98 L599.40 511.99 L599.42 513.00 L599.46 514.02 L599.40 515.02 L599.41 516.04 L599.45 517.07 L599.31 518.07 L599.24 519.08 L599.31 520.13 L599.21 521.15 L599.05 522.15 L598.88 523.15 L598.84 524.19 L598.66 525.19 L598.43 526.18 L598.34 527.22 L598.25 528.25 L598.01 529.25 L598.13 530.36 L597.74 531.31 L597.53 532.32 L597.31 533.33 L597.07 534.34 L596.84 535.35 L596.39 536.28 L596.18 537.31 L596.06 538.37 L595.66 539.32 L595.59 540.42 L595.17 541.37 L594.78 542.33 L594.54 543.36 L594.36 544.42 L593.88 545.35 L593.28 546.21 L593.34 547.41 L592.67 548.25 L592.33 549.25 L591.78 550.14 L590.96 550.88 L590.83 552.00 L590.04 552.76 L589.44 553.61 L589.30 554.75 L588.64 555.57 L588.65 556.82 L588.37 557.90 L587.68 558.71 L587.18 559.64 L586.98 560.79 L586.26 561.58 L585.91 562.64 L585.11 563.37 L584.72 564.40 L584.08 565.26 L584.00 566.55 L583.49 567.51 L582.56 568.14 L581.96 569.03 L581.96 570.45 L581.23 571.24 L580.35 571.90 L579.58 572.67 L579.12 573.71 L578.22 574.35 L577.57 575.22 L577.33 576.50 L576.30 577.01 L575.54 577.77 L575.54 579.35 L574.35 579.68 L573.47 580.34 L572.79 581.21 L572.49 582.52 L571.39 582.92 L570.37 583.41 L569.96 584.63 L568.74 584.87 L568.44 586.25 L567.07 586.27 L565.72 586.31 L565.25 587.49 L563.97 587.60 L563.64 589.00 L562.53 589.31 L561.51 589.75 L561.27 591.36 L560.45 592.11 L559.45 592.59 L558.89 593.76 L557.80 594.10 L556.86 594.68 L556.09 595.55 L555.16 596.17 L554.25 596.81 L553.10 597.02 L552.60 598.43 L552.00 599.69 L550.48 599.18 L549.71 600.14 L548.97 601.16 L547.88 601.49 L546.96 602.18 L545.58 601.84 L545.00 603.31 L543.59 602.86 L542.59 603.37 L542.00 604.92 L540.58 604.38 L539.62 605.00 L538.88 606.25 L537.69 606.28 L536.72 606.92 L535.57 607.04 L534.81 608.38 L533.51 608.02 L532.78 609.53 L531.47 609.13 L530.10 608.42 L529.25 609.59 L527.80 608.52 L526.68 608.67 L525.48 608.43 L524.15 607.61 L523.45 609.58 L522.23 609.23 L521.32 610.40 L520.42 611.74 L519.31 611.99 L518.22 612.34 L517.32 613.97 L515.98 612.74 L514.89 613.16 L513.81 613.79 L512.74 614.51 L511.64 615.11 L510.43 614.54 L509.36 615.58 L508.25 616.37 L507.05 615.88 L506.01 618.13 L504.76 616.72 L503.59 616.65 L502.44 617.08 L501.26 616.91 L500.09 617.22 L498.93 616.25 L497.76 616.59 L496.56 617.92 L495.41 617.02 L494.16 618.67 L492.98 618.35 L491.84 617.75 L490.60 618.47 L489.40 618.55 L488.24 618.18 L487.19 616.82 L485.77 618.77 L484.75 617.38 L483.68 616.50 L482.48 616.54 L481.58 614.74 L480.27 615.51 L479.37 613.91 L478.41 612.76 L476.94 614.25 L475.91 613.46 L474.36 615.07 L473.05 615.53 L472.00 614.83 L470.85 614.53 L469.42 615.31 L468.48 614.24 L467.20 614.41 L465.97 614.37 L464.66 614.55 L463.41 614.53 L461.79 615.60 L460.47 615.70 L459.65 614.37 L458.57 613.77 L456.86 614.90 L455.86 614.07 L455.09 612.70 L453.94 612.31 L452.68 612.17 L451.62 611.55 L450.37 611.37 L448.94 611.56 L447.93 610.83 L446.80 610.35 L445.10 611.03 L444.59 609.29 L443.52 608.70 L442.18 608.61 L440.31 609.46 L439.56 608.26 L438.74 607.20 L436.88 607.93 L436.42 606.25 L434.92 606.33 L434.71 604.32 L434.64 602.15 L433.33 601.94 L433.12 600.06 L431.66 600.07 L430.43 599.71 L429.32 599.17 L426.91 600.41 L425.54 600.17 L424.11 600.00 L422.82 599.61 L421.85 598.80 L420.99 597.87 L419.34 597.89 L418.03 597.47 L416.80 596.95 L415.86 596.09 L413.54 596.77 L411.88 596.66 L412.02 594.59 L410.82 593.98 L409.00 594.00 L408.33 592.81 L407.19 592.11 L407.10 590.37 L405.05 590.53 L404.93 588.85 L403.74 588.17 L401.44 588.49 L401.40 586.75 L400.33 585.94 L398.15 586.06 L397.89 584.55 L397.15 583.44 L396.51 582.26 L394.71 581.99 L394.55 580.43 L393.16 579.81 L392.64 578.54 L392.95 576.68 L391.12 576.36 L391.70 574.35 L391.37 572.98 L391.05 571.63 L391.27 569.94 L388.90 569.90 L389.29 568.12 L390.38 565.95 L391.64 563.72 L389.55 563.48 L392.46 560.38 L392.66 558.86 L393.22 557.17 L392.93 555.96 L392.79 554.67 L390.74 554.35 L388.27 554.19 L389.50 552.24 L384.23 553.32 L384.98 551.58 L383.58 550.82 L384.69 548.97 L385.24 547.39 L382.61 547.11 L382.64 545.74 L383.77 543.96 L381.16 543.59 L383.02 541.59 L381.42 540.83 L380.31 539.88 L380.28 538.56 L379.40 537.52 L377.41 536.80 L379.34 534.90 L378.23 533.91 L378.95 532.41 L375.35 532.04 L378.55 529.92 L374.87 529.51 L374.86 528.19 L372.12 527.47 L370.41 526.48 L374.96 524.25 L369.92 523.89 L371.03 522.35 L375.78 520.25 L372.80 519.43 L374.87 517.84 L373.13 516.79 L370.35 515.84 L373.73 514.15 L372.00 513.05 L367.64 512.16 L371.46 510.51 L371.50 509.22 L371.84 507.90 L370.68 506.68 L369.67 505.42 L369.03 504.14 L368.97 502.83 L367.18 501.54 L366.18 500.21 L367.38 498.88 L367.00 497.55 L366.36 496.20 L368.29 494.94 L367.01 493.56 L368.37 492.30 L368.30 490.98 L364.57 489.36 L369.87 488.47 L367.29 486.90 L367.57 485.59 L367.64 484.25 L362.84 482.29 L367.79 481.58 L366.70 480.07 L362.99 478.11 L367.39 477.45 L367.26 476.06 L366.02 474.45 L362.47 472.35 L367.87 472.06 L366.63 470.40 L364.33 468.46 L368.04 467.93 L369.38 466.87 L370.09 465.66 L369.57 464.13 L365.16 461.46 L371.49 461.88 L371.14 460.36 L367.84 457.90 L373.29 458.23 L372.87 456.68 L373.40 455.44 L372.94 453.85 L371.37 451.82 L375.02 451.75 L373.02 449.52 L374.68 448.72 L374.66 447.24 L371.39 444.34 L374.51 444.20 L374.19 442.54 L369.52 438.83 L374.59 439.67 L374.25 437.95 L375.79 437.15 L375.62 435.50 L374.86 433.51 L378.84 434.06 L376.28 431.06 L376.49 429.54 L379.09 429.41 L379.04 427.76 L381.45 427.58 L380.54 425.37 L382.50 424.95 L382.25 423.12 L381.93 421.22 L382.33 419.77 L382.54 418.18 L384.68 417.95 L384.38 415.98 L385.84 415.29 L387.24 414.56 L387.99 413.35 L389.11 412.43 L390.57 411.79 L389.19 408.84 L391.93 409.27 L391.39 406.95 L390.85 404.57 L392.56 404.16 L392.71 402.35 L393.03 400.67 L395.62 401.11 L395.66 399.14 L399.02 400.42 L398.38 397.76 L398.89 396.23 L396.58 391.71 L399.59 392.73 L400.91 391.99 L398.47 387.10 L401.55 388.29 L405.25 390.29 L405.32 388.14 L406.75 387.56 L406.31 384.71 L408.16 384.64 L410.15 384.80 L408.55 380.30 L410.76 380.74 L411.99 379.90 L413.06 378.84 L415.21 379.30 L414.28 375.34 L418.04 378.22 L417.32 374.46 L418.81 374.00 L419.49 372.26 L420.75 371.43 L423.14 372.47 L423.30 369.81 L425.39 370.41 L427.64 371.36 L428.26 369.42 L430.75 370.91 L431.37 368.95 L432.18 367.28 L434.80 369.20 L434.69 365.61 L434.83 362.42 L437.53 364.65 L437.74 361.48 L440.84 364.78 L440.99 361.35 L441.58 358.84 L443.96 360.66 L444.73 358.51 L444.24 352.93 L447.15 356.29 L447.65 353.14 L449.80 354.58 L450.73 352.51 L452.57 353.15 L454.07 352.77 L455.85 353.33 L457.53 353.62 L458.07 349.88 L460.32 352.26 L461.70 351.47 L462.14 346.87 L464.57 350.31 L465.60 347.86 L467.56 349.56 L469.00 348.90 L470.19 346.98 L472.20 349.25 L473.24 346.32 L474.57 344.79 L475.70 341.80 L477.61 343.81 L479.24 344.10 L480.41 340.70 L482.32 343.35 L484.09 345.12 L485.57 344.24 L487.16 344.45 L488.58 342.53 L490.30 344.70 L491.70 341.79 L493.27 341.24 L494.97 344.66 L496.46 341.84 L498.05 342.87 L499.63 343.47 L501.21 341.54 L502.77 342.55 L504.46 338.35 L506.10 337.80 L507.80 336.35 L509.62 333.27 L510.81 340.38 L512.85 334.74 L514.49 335.03 L515.53 341.37 L517.41 338.82 L518.89 340.11 L520.59 339.54 L522.33 338.72 L523.48 342.09 L525.57 339.14 L527.40 338.03 L528.45 341.51 L530.22 340.82 L531.75 341.43 L533.78 339.65 L535.37 340.03 L537.01 340.20 L539.04 338.79 L540.64 339.24 L542.27 339.58 L543.75 340.43 L545.14 341.59 L546.88 341.53 L548.69 341.25 L549.78 343.30 L551.33 343.87 L552.75 344.79 L555.35 342.34 L555.41 347.06 L558.24 344.14 L560.41 343.15 L560.56 347.32 L563.19 345.22 L564.70 345.95 L565.96 347.23 L568.87 344.78 L568.73 349.18 L571.62 346.93 L573.20 347.54 L574.02 349.70 L576.07 349.35 L576.87 351.48 L578.28 352.40 L580.70 351.43 L581.27 353.88 L583.12 354.02 L584.01 355.83 L587.47 353.28 L588.68 354.57 L588.94 357.38 L592.70 354.62 L593.24 356.95 L594.07 358.77 L596.43 358.33 L597.84 359.30 L598.88 360.80 L601.44 360.17 L605.36 357.78 L602.95 363.90 L606.08 362.64 L608.31 362.62 L608.04 365.74 L608.69 367.67 L611.23 367.30 L611.40 369.77 L613.34 370.15 L613.97 372.03 L615.70 372.68 L616.89 373.93 L617.95 375.31 L619.91 375.75 L620.72 377.38 L622.38 378.17 L623.28 379.69 L624.88 380.55 L626.79 381.12 L628.58 381.84 L629.81 383.08 L632.61 382.95 L633.97 384.11 L636.00 384.71 L637.25 385.99 L636.90 388.57 L639.32 388.90 L640.30 390.39 L639.56 393.20 L640.77 394.49 L641.25 396.32 L645.46 395.45 L643.74 398.85 L645.22 399.97 L649.37 399.30 L646.97 403.04 L649.07 403.78 L648.90 405.98 L651.05 406.73 L653.87 407.10 L652.45 410.03 L656.32 409.84 L658.52 410.67 L658.98 412.49 L660.38 413.80 L659.88 416.12 L661.63 417.25 L664.53 417.83 L661.47 421.37 L662.05 423.08 L661.67 425.23 L663.19 426.50 L662.48 428.77 L663.00 430.47 L664.45 431.79 L665.36 433.34 L665.81 435.08 L666.39 436.77 L667.64 438.20 L668.45 439.81 L668.76 441.59 L670.45 442.91 L670.80 444.69 L671.19 446.45 L672.14 448.03 L672.41 449.83 L673.43 451.41 L673.34 453.30 L674.17 454.94 L675.09 456.56 L674.87 458.47 L676.01 460.05 L676.24 461.85 L677.23 463.48 L677.75 465.23 L678.31 466.97 L679.53 468.59 L679.78 470.40 L680.69 472.10 L681.13 473.89 L681.14 475.73 L681.92 477.48 L682.67 479.24 L682.76 481.08 L683.94 482.81 L684.03 484.66 L684.25 486.49 L684.45 488.33 L684.69 490.17 L684.14 492.04 L683.71 493.90 L683.57 495.74 L683.76 497.58 L683.07 499.42 L684.20 501.26 L684.19 503.10 L683.99 504.93 L684.66 506.80 L685.57 508.69 L685.09 510.53 L685.30 512.40 L686.11 514.32 L686.09 516.20 L686.05 518.07 L686.26 519.97 L686.82 521.92 L686.28 523.75 L685.97 525.60 L685.66 527.46 L685.12 529.27 L685.12 531.17 L685.09 533.07 L685.43 535.05 L685.05 536.90 L685.08 538.83 L685.05 540.76 L684.67 542.62 L684.31 544.48 L683.83 546.32 L683.32 548.14 L682.55 549.90 L682.58 551.87 L682.44 553.81 L681.76 555.59 L682.09 557.69 L682.12 559.71 L680.96 561.34 L680.65 563.26 L680.14 565.11 L679.28 566.83 L678.36 568.53 L677.43 570.21 L677.70 572.38 L677.04 574.19 L675.74 575.72 L676.55 578.17 L675.45 579.79 L674.93 581.68 L674.37 583.55 L673.50 585.27 L673.00 587.19 L671.85 588.77 L670.81 590.41 L670.89 592.65 L669.91 594.33 L669.65 596.42 L668.75 598.15 L667.28 599.55 L666.69 601.47 L665.87 603.26 L664.51 604.71 L663.66 606.48 L662.97 608.37 L662.03 610.09 L661.75 612.29 L660.53 613.83 L659.05 615.19 L658.54 617.25 L657.17 618.69 L656.19 620.42 L654.90 621.92 L654.03 623.75 L653.00 625.46 L651.95 627.16 L650.97 628.93 L650.04 630.75 L648.82 632.33 L647.66 633.97 L646.74 635.83 L645.35 637.27 L644.07 638.82 L642.58 640.16 L640.91 641.31 L639.62 642.84 L637.94 643.97 L636.04 644.87 L634.81 646.47 L633.67 648.18 L631.97 649.26 L630.53 650.64 L629.14 652.08 L627.75 653.53 L626.23 654.83 L625.43 657.04 L623.87 658.30 L622.17 659.38 L621.35 661.64 L619.65 662.74 L617.85 663.70 L616.84 665.76 L614.94 666.58 L613.21 667.63 L611.72 669.05 L610.22 670.45 L608.48 671.50 L606.89 672.80 L605.35 674.17 L603.79 675.53 L602.06 676.61 L600.23 677.53 L598.67 678.92 L596.86 679.86 L595.11 680.92 L593.57 682.41 L591.76 683.38 L589.97 684.38 L588.56 686.18 L586.75 687.19 L585.10 688.55 L583.28 689.54 L581.32 690.24 L579.38 690.96 L577.12 690.88 L575.01 691.12 L573.52 692.98 L571.57 693.68 L569.86 695.01 L568.21 696.57 L566.46 697.90 L564.66 699.13 L562.67 699.79 L560.93 701.24 L559.05 702.33 L556.87 702.34 L555.23 704.33 L553.18 704.88 L551.13 705.40 L549.20 706.42 L547.10 706.76 L545.11 707.59 L542.97 707.72 L540.94 708.41 L538.96 709.34 L536.88 709.84 L534.88 710.80 L532.73 710.86 L530.83 712.61 L528.67 712.68 L526.72 714.39 L524.62 715.08 L522.48 715.38 L520.39 716.32 L518.19 716.03 L516.04 716.35 L513.96 717.83 L511.78 717.93 L509.62 718.66 L507.47 719.68 L505.28 720.13 L503.08 720.22 L500.88 720.54 L498.67 721.11 L496.46 720.93 L494.27 720.28 L492.03 721.05 L489.83 720.86 L487.68 719.66 L485.38 721.19 L483.17 721.02 L480.93 721.12 L478.69 721.26 L476.43 721.44 L474.23 721.09 L472.00 721.01 L469.65 721.75 L467.37 721.89 L465.12 721.75 L462.62 723.07 L460.49 722.12 L458.34 721.34 L456.12 720.97 L453.94 720.39 L451.88 719.29 L449.61 719.14 L447.11 719.91 L444.84 719.66 L442.58 719.34 L439.84 720.80 L437.81 719.55 L435.62 718.92 L433.44 718.25 L431.28 717.49 L429.25 716.38 L427.14 715.51 L424.67 715.69 L422.14 715.97 L419.97 715.21 L417.02 716.49 L414.54 716.45 L411.87 716.84 L409.60 716.22 L407.51 715.15 L405.33 714.27 L403.74 712.11 L401.82 710.72 L398.57 712.14 L396.96 710.07 L394.72 709.32 L391.08 711.26 L389.38 709.39 L387.27 708.31 L384.71 708.04 L383.07 706.11 L381.68 703.80 L379.37 703.07 L376.71 702.90 L375.38 700.55 L373.65 698.86 L371.14 698.40 L369.79 696.16 L367.69 695.06 L365.99 693.38 L363.93 692.21 L362.16 690.65 L360.04 689.56 L357.69 688.75 L356.74 686.11 L353.62 686.28 L352.20 684.27 L350.94 682.08 L347.00 683.12 L345.79 680.86 L343.64 679.71 L341.75 678.25 L339.80 676.86 L336.86 676.52 L335.73 674.22 L333.26 673.33 L330.02 673.20 L328.65 671.14 L327.12 669.25 L325.00 667.93 L323.98 665.55 L322.93 663.24 L321.69 661.12 L320.17 659.25 L317.76 658.16 L316.74 655.86 L313.65 655.30 L312.05 653.48 L310.61 651.53 L309.15 649.59 L307.98 647.43 L306.92 645.19 L305.54 643.21 L303.23 641.90 L300.66 640.75 L299.61 638.50 L296.65 637.57 L294.86 635.81 L295.06 632.74 L294.42 630.26 L293.20 628.15 L293.10 625.37 L292.09 623.16 L289.65 621.78 L287.24 620.35 L286.44 618.00 L283.84 616.63 L282.25 614.69 L281.60 612.26 L280.45 610.08 L279.76 607.69 L279.11 605.28 L278.58 602.83 L276.83 600.94 L273.73 599.63 L273.60 597.00 L269.91 595.87 L267.29 594.24 L266.93 591.68 L264.64 589.88 L264.64 587.19 L264.41 584.61 L265.02 581.74 L264.55 579.27 L260.82 577.88 L260.23 575.43 L258.44 573.34 L252.40 572.48 L253.73 569.43 L253.85 566.74 L252.50 564.46 L253.43 561.59 L255.03 558.59 L253.78 556.30 L253.42 553.79 L252.88 551.32 L253.47 548.64 L251.37 546.47 L252.10 543.77 L252.34 541.18 L251.97 538.70 L251.77 536.19 L251.45 533.70 L250.78 531.26 L249.82 528.84 L250.18 526.27 L248.77 523.88 L247.76 521.44 L249.64 518.76 L245.39 516.52 L246.77 513.89 L246.87 511.34 L246.11 508.83 L246.23 506.29 L244.99 503.77 L244.04 501.22 L243.87 498.66 L240.20 496.05 L240.00 493.44 L240.44 490.85 L239.62 488.22 L240.45 485.65 L242.15 483.16 L243.89 480.70 L244.98 478.21 L243.76 475.53 L245.67 473.14 L245.76 470.58 L244.14 467.79 L245.08 465.32 L245.13 462.72 L245.85 460.23 L246.64 457.75 L247.52 455.30 L247.19 452.63 L245.16 449.61 L246.61 447.26 L246.40 444.56 L244.72 441.51 L247.28 439.43 L249.01 437.19 L249.74 434.70 L251.15 432.41 L253.07 430.27 L252.93 427.55 L251.04 424.29 L253.06 422.20 L253.15 419.50 L251.91 416.35 L253.84 414.25 L254.73 411.79 L256.05 409.50 L257.35 407.22 L258.81 405.00 L259.50 402.48 L259.00 399.46 L259.75 396.94 L258.84 393.68 L256.94 389.93 L259.30 388.08 L258.22 384.63 L260.45 382.74 L262.56 380.81 L264.75 378.95 L266.98 377.13 L267.41 374.38 L266.22 370.70 L268.00 368.63 L265.95 364.36 L265.73 361.09 L269.01 359.89 L270.45 357.61 L271.97 355.37 L275.23 354.27 L277.01 352.23 L278.61 350.09 L279.51 347.46 L282.29 346.14 L283.67 343.85 L284.97 341.49 L287.34 339.93 L288.79 337.69 L290.84 335.91 L292.31 333.68 L294.02 331.64 L295.29 329.24 L296.58 326.84 L299.45 325.79 L299.34 322.15 L302.28 321.19 L303.48 318.67 L304.08 315.56 L306.73 314.38 L307.79 311.66 L310.08 310.14 L311.53 307.79 L312.06 304.46 L314.32 302.90 L314.95 299.59 L315.05 295.64 L317.63 294.39 L319.24 292.06 L321.39 290.33 L324.31 289.53 L327.57 289.19 L330.40 288.37 L332.26 286.34 L334.78 285.17 L337.23 283.90 L337.71 280.00 L340.54 279.25 L342.68 277.56 L345.02 276.15 L347.47 274.91 L350.06 273.90 L352.17 272.16 L353.59 269.33 L355.63 267.44 L357.84 265.82 L359.04 262.46 L361.87 261.84 L365.10 261.96 L367.72 261.04 L370.10 259.70 L373.27 259.85 L375.54 258.32 L377.21 255.60 L379.48 254.01 L381.99 252.91 L383.42 249.49 L386.22 248.99 L388.82 248.05 L391.41 247.11 L394.11 246.44 L396.90 246.00 L399.49 245.10 L401.78 243.41 L403.69 240.65 L406.50 240.28 L408.16 236.67 L410.30 234.31 L412.90 233.23 L415.24 231.32 L418.36 231.89 L421.29 231.92 L424.28 232.20 L427.09 231.96 L428.84 227.67 L431.65 227.28 L434.13 225.57 L436.06 221.36 L439.02 221.52 L441.97 221.71 L444.68 220.76 L447.84 222.18 L450.88 223.12 L453.52 221.86 L456.25 221.04 L459.19 221.68 L462.01 221.47 L464.64 219.93 L467.54 220.37 L470.38 220.46 L473.21 220.56 L476.01 220.30 L478.82 220.26 L481.59 219.71 L484.35 218.73 L487.25 220.38 L489.94 217.30 L492.79 218.12 L495.63 219.53 L498.42 216.05 L501.25 217.31 L504.08 217.18 L506.91 217.07 L509.74 217.14 L512.62 216.10 L515.52 215.18 L518.38 215.12 L521.54 211.15 L524.37 212.03 L527.19 212.87 L530.21 211.73 L532.92 213.59 L535.59 215.47 L538.33 216.57 L540.99 218.14 L544.01 217.26 L546.70 218.52 L549.60 218.54 L552.56 218.24 L555.45 218.43 L558.26 219.01 L560.99 219.93 L563.60 221.40 L566.37 222.07 L569.28 222.23 L572.59 220.87 L575.28 221.99 L578.28 221.95 L581.28 221.96 L583.93 223.23 L586.34 225.19 L588.99 226.36 L591.45 228.09 L593.99 229.50 L597.03 229.52 L600.31 228.92 L602.93 230.17 L605.84 230.66 L608.85 230.94 L611.57 231.96 L614.16 233.29 L616.53 235.10 L619.02 236.63 L621.53 238.07 L624.23 239.13 L627.69 238.62 L630.05 240.40 L633.60 239.85 L637.75 238.25 L639.45 241.32 L642.56 241.77 L645.25 243.00 L646.97 245.92 L649.58 247.28 L651.28 250.14 L654.09 251.15 L657.73 250.87 L660.37 252.22 L665.23 250.23 L667.74 251.85 L669.62 254.41 L672.09 256.08 L674.16 258.32 L675.31 261.79 L678.17 262.90 L679.89 265.52 L682.58 266.89 L684.91 268.72 L687.07 270.75 L689.40 272.58 L691.36 274.83 L693.71 276.64 L695.89 278.64 L697.49 281.27 L700.38 282.49 L702.09 284.99 L703.94 287.32 L706.84 288.57 L709.19 290.40 L710.37 293.39 L715.60 292.45 L716.82 295.42 L718.42 297.99 L720.56 300.07 L722.88 302.00 L724.86 304.22 L728.83 304.76 L730.00 307.69 L733.04 309.08 L737.00 309.76 L737.88 312.94 L740.76 314.54 L741.94 317.46 L742.01 321.17 L744.14 323.35 L744.56 326.74 L747.11 328.62 L748.31 331.44 L749.76 334.08 L752.69 335.75 L754.94 337.90 L755.92 340.84 L757.23 343.57 L758.32 346.43 L759.78 349.06 L761.24 351.68 L763.62 353.80 L765.15 356.39 L767.50 358.56 L770.48 360.43 L772.43 362.85 L771.47 366.73 L772.75 369.47 L774.25 372.10 L774.30 375.40 L776.07 377.91 L778.30 380.24 L778.87 383.29 L781.15 385.62 L783.38 388.01 L784.58 390.81 L785.62 393.67 L785.94 396.80 L787.04 399.63 L787.48 402.69 L788.21 405.65 L789.57 408.40 L792.26 410.75 L793.08 413.70 L796.81 415.82 L797.61 418.80 L799.10 421.59 L800.90 424.33 L799.68 427.82 L798.62 431.22 L797.77 434.55 L795.60 438.12 L796.95 440.93 L795.33 444.31 L795.15 447.40 L797.59 450.03 L797.74 453.06 L798.44 456.00 L798.61 459.02 L798.97 462.02 L799.76 464.96 L800.58 467.91 L801.82 470.82 L802.44 473.81 L802.30 476.87 L803.19 479.85 L802.77 482.91 L802.71 485.95 L802.87 488.98 L802.52 492.02 L802.43 495.05 L802.39 498.07 L802.12 501.10 L801.86 504.11 L803.89 507.18 L803.67 510.22 L805.13 513.32 L805.96 516.42 L805.49 519.46 L805.00 522.50 L804.36 525.51 L802.83 528.44 L802.56 531.47 L802.42 534.51 L803.20 537.68 L804.83 540.98 L804.48 544.04 L803.83 547.05 L803.66 550.14 L802.41 553.04 L800.89 555.88 L799.04 558.64 L798.65 561.67 L798.87 564.84 L797.50 567.66 L797.69 570.84 L797.62 573.98 L797.08 577.01 L796.79 580.11 L797.12 583.39 L795.97 586.27 L794.96 589.19 L794.68 592.33 L794.82 595.62 L793.49 598.44 L793.14 601.60 L792.68 604.73 L791.19 607.49 L790.83 610.67 L789.71 613.58 L789.05 616.67 L789.26 620.13 L788.83 623.35 L789.36 627.01 L788.55 630.11 L787.60 633.17 L785.82 635.83 L784.96 638.93 L783.01 641.50 L780.51 643.77 L778.71 646.39 L776.78 648.92 L775.57 651.84 L774.60 654.91 L772.67 657.44 L772.15 660.79 L772.25 664.54 L770.67 667.31 L768.46 669.67 L766.15 671.96 L764.55 674.70 L761.46 676.44 L759.14 678.67 L758.18 681.84 L755.79 684.02 L753.69 686.38 L753.35 690.07 L751.60 692.71 L749.23 694.89 L747.52 697.57 L746.18 700.56 L743.79 702.70 L741.59 704.99 L739.70 707.55 L738.41 710.64 L735.71 712.49 L733.62 714.88 L731.08 716.84 L728.04 718.32 L726.27 721.00 L723.84 723.05 L721.98 725.66 L719.92 728.09 L717.71 730.36 L715.15 732.27 L713.35 734.99 L710.78 736.88 L707.68 738.15 L706.35 741.45 L704.18 743.81 L702.52 746.80 L700.47 749.34 L698.47 751.97 L696.47 754.63 L694.60 757.49 L691.32 758.48 L688.92 760.66 L685.82 761.86 L682.96 763.37 L680.38 765.27 L677.67 766.99 L675.11 768.94 L672.46 770.75 L669.84 772.62 L667.90 775.60 L664.90 776.87 L662.33 778.85 L660.27 781.77 L657.65 783.72 L654.44 784.61 L651.33 785.66 L648.17 786.58 L645.50 788.47 L642.54 789.76 L640.01 791.95 L637.11 793.40 L634.06 794.50 L631.31 796.29 L627.85 796.46 L624.87 797.70 L621.90 798.95 L618.94 800.26 L616.41 802.68 L613.65 804.56 L611.87 809.18 L608.67 809.99 L605.81 811.80 L603.56 815.50 L600.43 816.60 L596.65 815.61 L593.30 815.91 L590.24 817.21 L586.84 817.25 L583.32 816.84 L580.33 818.34 L577.32 819.89 L574.28 821.33 L571.37 823.45 L568.07 823.85 L565.16 826.19 L561.76 826.09 L558.34 825.83 L554.99 825.86 L551.62 825.74 L548.26 825.54 L545.17 827.27 L541.93 827.94 L538.93 830.72 L535.76 832.39 L532.34 831.79 L528.99 831.73 L525.73 832.80 L522.27 831.10 L518.88 829.88 L515.57 829.94 L512.30 830.77 L508.99 830.87 L505.69 831.61 L502.39 833.13 L499.05 834.00 L495.70 834.90 L492.36 834.55 L489.03 833.97 L485.69 833.83 L482.40 832.77 L479.11 832.06 L475.85 830.94 L472.57 830.43 L469.38 828.85 L466.03 829.18 L462.73 828.91 L459.43 828.63 L456.17 828.03 L452.71 828.81 L449.22 829.65 L445.87 829.46 L442.45 829.66 L439.07 829.52 L435.51 830.26 L432.07 830.30 L428.82 829.36 L425.50 828.77 L422.19 828.11 L418.85 827.59 L415.55 826.87 L412.09 826.75 L408.67 826.38 L405.45 825.32 L401.60 826.37 L398.71 824.19 L395.82 822.10 L392.63 820.97 L389.23 820.43 L386.31 818.54 L383.39 816.66 L380.04 815.98 L376.73 815.16 L373.74 813.54 L369.99 813.75 L366.62 812.99 L363.47 811.70 L359.84 811.48 L356.83 809.86 L353.93 808.01 L350.78 806.69 L347.65 805.31 L344.35 804.28 L341.65 802.07 L337.91 801.82 L334.72 800.52 L331.73 798.84 L329.27 796.23 L327.00 793.36 L324.82 790.38 L322.13 788.28 L319.83 785.58 L316.59 784.37 L312.70 784.12 L308.58 784.15 L304.23 784.42 L300.61 783.57 L297.31 782.22 L294.44 780.26 L292.26 777.38 L290.46 774.02 L287.87 771.74 L283.97 771.09 L282.14 767.85 L279.17 766.02 L274.76 765.88 L272.44 763.24 L270.56 760.10 L267.58 758.23 L264.25 756.72 L262.49 753.51 L259.93 751.16 L256.58 749.62 L254.18 747.08 L252.34 744.01 L248.40 742.97 L246.16 740.28 L243.68 737.81 L241.06 735.47 L239.37 732.28 L236.73 729.95 L234.87 726.95 L232.86 724.08 L231.19 720.94 L227.08 719.78 L225.89 716.26 L224.10 713.23 L220.53 711.56 L218.96 708.36 L217.32 705.22 L214.30 703.08 L211.95 700.45 L209.53 697.85 L207.17 695.20 L204.57 692.70 L202.18 690.04 L200.88 686.69 L199.42 683.45 L198.08 680.15 L196.86 676.79 L195.53 673.50 L194.39 670.13 L192.68 667.08 L189.85 664.62 L188.26 661.49 L185.22 659.09 L183.19 656.16 L181.96 652.83 L180.47 649.63 L179.32 646.28 L177.99 643.01 L176.65 639.76 L174.86 636.69 L171.75 634.15 L170.87 630.68 L168.97 627.62 L165.79 625.02 L165.46 621.34 L163.46 618.28 L161.47 615.18 L161.84 611.30 L160.06 608.13 L157.72 605.12 L154.87 602.23 L154.43 598.61 L151.66 595.64 L149.96 592.36 L148.95 588.88 L148.74 585.20 L148.45 581.56 L147.28 578.12 L147.49 574.38 L146.89 570.83 L145.83 567.37 L145.94 563.68 L145.20 560.16 L144.23 556.67 L144.17 553.04 L143.53 549.49 L144.05 545.80 L143.85 542.21 L144.30 538.55 L143.49 535.04 L138.73 531.86 L137.11 528.35 L136.31 524.76 L128.78 521.54 L129.86 517.77 L131.11 514.01 L130.54 510.33 L129.76 506.65 L130.80 502.94 L130.76 499.25 L130.70 495.55 L129.28 491.83 L130.81 488.17 L129.69 484.42 L130.51 480.76 L131.83 477.13 L131.59 473.41 L132.80 469.81 L133.30 466.15 L133.36 462.46 L134.03 458.83 L134.40 455.16 L134.04 451.40 L134.05 447.67 L135.83 444.20 L132.62 439.95 L134.66 436.52 L134.53 432.73 L135.33 429.10 L136.41 425.53 L135.85 421.61 L135.39 417.68 L137.00 414.23 L135.73 410.07 L135.58 406.16 L136.90 402.61 L137.58 398.90 L139.94 395.67 L141.47 392.21 L143.53 388.93 L145.19 385.55 L144.46 381.37 L146.91 378.25 L148.47 374.85 L147.24 370.42 L149.12 367.11 L150.83 363.75 L152.35 360.32 L153.53 356.76 L155.74 353.62 L156.56 349.90 L155.77 345.44 L157.71 342.18 L158.98 338.61 L157.86 333.87 L161.33 331.34 L164.60 328.77 L165.80 325.14 L168.85 322.50 L170.79 319.28 L172.50 315.93 L172.65 311.69 L174.88 308.62 L176.36 305.10 L176.83 300.95 L179.26 298.00 L181.62 295.01 L184.35 292.28 L186.08 288.88 L189.28 286.49 L191.41 283.38 L191.99 279.16 L193.92 275.87 L195.15 272.06 L194.79 266.99 L198.01 264.64 L198.82 260.39 L201.96 257.98 L204.47 255.07 L207.99 253.02 L211.65 251.13 L213.48 247.67 L213.60 242.64 L217.51 241.01 L218.00 236.22 L218.86 231.70 L222.99 230.30 L225.86 227.69 L228.16 224.52 L231.90 222.82 L235.25 220.76 L237.93 217.99 L239.55 214.05 L243.57 212.75 L246.60 210.35 L248.74 206.94 L252.54 205.47 L255.08 202.49 L258.69 200.83 L262.04 198.87 L264.62 195.94 L267.86 193.85 L270.66 191.17 L274.12 189.39 L276.31 185.84 L280.19 184.67 L282.76 181.62 L284.91 177.90 L288.88 176.88 L291.27 173.46 L295.08 172.25 L298.06 169.71 L300.45 166.16 L304.08 164.67 L306.72 161.45 L308.35 156.37 L312.09 155.02 L315.73 153.49 L319.34 151.93 L322.89 150.26 L327.09 149.92 L331.29 149.63 L334.67 147.67 L338.09 145.79 L342.07 145.16 L344.39 140.76 L348.45 140.31 L352.08 138.88 L355.79 137.64 L359.32 135.96 L363.18 135.14 L366.90 133.97 L370.13 131.40 L373.28 128.55 L377.13 127.67 L380.09 124.06 L383.93 123.12 L388.35 124.15 L392.09 122.96 L396.05 122.58 L400.18 122.88 L403.89 121.63 L407.47 119.84 L411.02 117.85 L414.83 116.88 L418.37 114.66 L422.30 114.22 L426.13 113.34 L430.09 113.09 L433.91 112.10 L437.96 112.50 L441.93 112.54 L445.61 110.54 L449.28 108.27 L453.32 108.77 L456.92 105.50 L460.71 103.42 L464.65 102.79 L468.57 101.79 L472.65 102.83 L476.61 102.38 L480.67 103.98 L484.63 103.72 L488.48 99.50 L492.52 101.18 L496.50 100.53 L500.50 95.08 L504.53 97.01 L508.52 98.84 L512.56 98.09 L516.56 98.70 L520.47 100.91 L524.49 100.63 L528.50 100.59 L532.51 100.77 L536.37 102.49 L540.57 100.61 L544.42 102.36 L548.28 103.77 L552.30 103.81 L556.15 105.10 L560.16 105.26 L564.10 105.90 L568.08 106.31 L571.87 107.82 L576.31 105.83 L580.03 107.72 L583.65 109.92 L588.35 107.21 L591.93 109.57 L596.01 109.78 L599.77 111.30 L603.55 112.69 L607.97 111.76 L611.99 112.36 L616.01 113.01 L621.02 110.49 L624.76 112.17 L628.65 113.39 L632.64 114.33 L636.33 116.12 L639.56 119.14 L642.82 121.99 L646.42 123.87 L650.74 123.95 L653.84 127.05 L657.73 128.22 L662.06 128.39 L665.67 130.25 L669.35 131.95 L672.86 134.01 L676.41 135.95 L679.83 138.17 L683.92 139.05 L688.58 138.87 L691.82 141.45 L695.85 142.56 L700.58 142.46 L703.03 146.41 L706.25 148.98 L709.58 151.35 L712.20 154.85 L715.62 157.02 L719.32 158.76 L723.61 159.62 L726.79 162.19 L730.79 163.56 L734.72 165.06 L737.97 167.53 L740.94 170.40 L743.82 173.37 L747.16 175.72 L749.86 178.88 L753.25 181.15 L758.04 181.71 L760.64 185.00 L765.34 185.76 L770.45 186.14 L772.80 189.74 L776.73 191.54 L779.21 194.98 L782.08 197.96 L784.29 201.63 L786.46 205.32 L790.66 206.91 L795.30 208.13 L798.07 211.22 L804.93 210.43 L807.66 213.64 L809.44 217.70 L812.29 220.78 L814.43 224.47 L815.44 229.11 L818.47 232.00 L820.63 235.61 L823.58 238.57 L825.31 242.51 L828.27 245.46 L830.70 248.83 L832.44 252.71 L835.11 255.89 L837.28 259.44 L839.73 262.78 L842.26 266.07 L844.95 269.26 L847.25 272.71 L849.09 276.46 L852.82 279.02 L853.49 283.49 L858.38 285.40 L859.95 289.31 L861.38 293.30 L864.34 296.41 L865.98 300.27 L868.71 303.55 L872.10 306.49 L873.86 310.30 L878.12 312.87 L881.64 315.86 L882.91 319.94 L885.72 323.31 L886.80 327.47 L887.30 331.87 L887.20 336.50 L887.95 340.73 L891.13 343.98 L890.74 348.64 L892.16 352.59 L895.93 355.67 L896.50 359.94 L898.12 363.83 L899.19 367.91 L900.12 372.03 L900.84 376.20 L902.58 380.06 L905.91 383.47 L906.72 387.63 L908.37 391.56 L912.17 394.95 L911.33 399.53 L910.87 403.99 L911.58 408.16 L912.00 412.38 L911.44 416.79 L912.78 420.81 L915.75 424.54 L915.98 428.78 L917.07 432.88 L920.48 436.64 L919.78 441.03 L920.15 445.26 L920.46 449.49 L920.55 453.74 L920.32 458.02 L920.84 462.21 L922.48 466.32 L923.74 470.48 L924.73 474.67 L927.99 478.77 L928.43 483.04 L930.81 487.26 L929.81 491.59 L928.67 495.90 L952.24 500.00 L951.79 495.48 L950.77 490.98 L949.76 486.50 L951.90 481.91 L951.24 477.42 L952.49 472.82 L952.15 468.30 L951.71 463.79 L951.02 459.30 L950.24 454.83 L949.00 450.41 L947.75 446.01 L947.04 441.56 L946.26 437.11 L944.41 432.83 L945.05 428.18 L944.06 423.77 L942.75 419.43 L943.08 414.79 L941.97 410.41 L939.65 406.29 L938.65 401.91 L937.30 397.61 L934.57 393.65 L932.39 389.59 L932.81 384.86 L931.89 380.47 L930.49 376.21 L929.79 371.74 L928.53 367.44 L926.35 363.43 L924.33 359.38 L922.71 355.21 L921.44 350.92 L919.17 346.99 L919.59 342.07 L917.69 337.99 L914.49 334.45 L913.41 330.07 L910.68 326.37 L907.28 322.99 L904.27 319.47 L902.09 315.59 L901.20 311.12 L898.74 307.39 L897.37 303.12 L896.11 298.79 L893.36 295.21 L891.39 291.24 L888.84 287.58 L885.93 284.13 L885.36 279.36 L882.60 275.83 L880.46 271.94 L881.06 266.37 L877.00 263.64 L875.25 259.47 L872.16 256.17 L869.16 252.82 L866.44 249.31 L863.63 245.85 L861.15 242.17 L858.17 238.85 L855.51 235.31 L851.69 232.65 L848.60 229.45 L845.97 225.91 L842.20 223.28 L839.32 219.95 L835.77 217.18 L833.40 213.43 L828.66 211.74 L825.26 208.92 L822.35 205.67 L818.04 203.72 L815.06 200.55 L814.36 195.18 L810.80 192.53 L809.34 187.80 L806.75 184.16 L802.48 182.25 L798.69 179.89 L795.56 176.83 L791.72 174.55 L789.50 170.45 L785.19 168.74 L782.52 165.12 L780.42 160.78 L776.20 159.00 L773.04 155.92 L769.43 153.42 L765.22 151.70 L761.85 148.90 L757.84 146.96 L753.83 145.05 L750.39 142.35 L746.81 139.86 L743.24 137.34 L739.32 135.35 L736.10 132.30 L732.17 130.34 L728.37 128.19 L723.96 127.05 L720.10 125.03 L715.97 123.49 L711.20 123.13 L708.43 119.19 L704.64 117.07 L700.52 115.59 L697.24 112.46 L693.46 110.31 L689.18 109.15 L685.12 107.58 L680.93 106.31 L676.97 104.56 L672.90 103.07 L669.54 99.88 L665.45 98.42 L660.66 98.69 L657.09 95.95 L652.78 95.10 L648.18 95.05 L643.63 94.98 L639.40 94.09 L635.50 92.19 L631.40 90.91 L627.20 89.96 L623.44 87.54 L619.22 86.63 L615.00 85.76 L611.02 84.01 L606.55 84.11 L602.37 83.13 L598.44 81.09 L593.85 81.86 L590.60 76.59 L586.15 76.72 L581.41 78.52 L577.60 75.46 L573.23 75.45 L568.83 75.67 L564.50 75.50 L560.31 74.52 L555.92 74.90 L551.75 73.66 L547.32 74.69 L542.88 76.01 L538.81 73.76 L534.40 75.17 L530.17 74.60 L525.89 74.71 L521.66 74.03 L517.31 75.88 L513.06 76.22 L508.84 75.16 L504.56 77.52 L500.33 79.45 L496.09 75.33 L491.86 76.00 L487.66 77.72 L483.34 75.19 L479.11 75.76 L474.97 77.65 L470.71 77.43 L466.57 78.76 L462.30 78.50 L458.08 78.87 L453.80 78.63 L449.39 77.47 L445.37 79.56 L441.17 80.08 L436.87 80.02 L432.84 81.74 L428.87 83.64 L424.69 84.26 L420.64 85.57 L416.43 86.05 L412.42 87.48 L408.33 88.51 L404.29 89.78 L399.99 89.93 L395.91 91.01 L391.85 92.15 L388.17 94.66 L384.23 96.20 L380.16 97.24 L376.85 100.75 L372.83 101.92 L368.37 101.72 L364.65 103.81 L360.21 103.83 L356.10 104.82 L352.59 107.42 L348.93 109.59 L344.87 110.71 L341.16 112.70 L337.39 114.53 L333.84 116.86 L329.13 116.56 L325.85 119.48 L321.98 121.08 L318.34 123.17 L315.31 126.48 L312.29 129.74 L308.58 131.60 L304.92 133.56 L301.58 136.10 L298.24 138.63 L293.68 138.98 L289.96 140.86 L286.87 143.81 L283.22 145.78 L280.03 148.52 L276.94 151.38 L272.39 151.98 L269.72 155.47 L264.98 155.88 L260.80 157.17 L258.68 161.40 L254.60 162.86 L251.70 165.95 L248.59 168.74 L245.97 172.15 L242.58 174.55 L239.72 177.61 L237.07 180.91 L233.72 183.35 L231.76 187.42 L228.09 189.48 L225.39 192.65 L223.56 196.76 L219.66 198.60 L216.56 201.31 L214.27 204.86 L212.27 208.68 L208.90 211.11 L206.64 214.63 L205.35 219.06 L200.93 220.49 L197.55 222.95 L196.39 227.42 L191.59 228.63 L188.80 231.66 L187.34 235.80 L185.38 239.49 L183.04 242.85 L181.33 246.71 L177.03 248.51 L175.57 252.55 L172.00 254.97 L169.07 257.90 L166.94 261.42 L164.10 264.44 L162.21 268.12 L161.15 272.34 L158.69 275.61 L157.02 279.39 L155.13 283.02 L153.43 286.76 L150.99 290.04 L148.99 293.59 L147.00 297.14 L144.65 300.49 L143.31 304.40 L141.49 308.04 L140.63 312.18 L138.22 315.50 L138.15 320.01 L137.78 324.32 L133.85 326.91 L132.52 330.76 L130.60 334.33 L128.09 337.65 L126.50 341.38 L125.75 345.46 L123.84 349.06 L122.72 352.98 L122.08 357.06 L121.31 361.08 L117.73 364.09 L117.19 368.20 L117.09 372.43 L114.83 375.94 L114.10 379.95 L114.04 384.16 L113.53 388.20 L113.51 392.37 L112.32 396.21 L111.62 400.17 L109.95 403.89 L108.45 407.66 L109.00 411.91 L107.55 415.70 L106.49 419.58 L106.88 423.74 L105.63 427.59 L105.09 431.56 L106.00 435.77 L100.56 438.98 L101.68 443.22 L101.89 447.31 L100.35 451.16 L100.13 455.19 L101.12 459.34 L100.72 463.33 L100.73 467.35 L101.30 471.41 L100.71 475.38 L102.18 479.46 L102.50 483.46 L101.77 487.41 L103.54 491.44 L101.92 495.38 L102.03 499.37 L102.38 503.34 L103.31 507.30 L102.69 511.29 L102.85 515.26 L104.84 519.14 L106.75 522.99 L100.40 527.38 L100.51 531.39 L99.26 535.52 L95.98 539.89 L96.14 543.95 L97.57 547.87 L98.73 551.81 L100.67 555.63 L101.29 559.61 L102.63 563.48 L104.32 567.27 L105.21 571.19 L106.95 574.94 L108.82 578.65 L110.44 582.38 L111.77 586.17 L112.50 590.08 L114.06 593.80 L115.58 597.51 L116.62 601.34 L117.82 605.12 L117.87 609.22 L119.64 612.84 L119.93 616.91 L120.65 620.85 L121.30 624.83 L123.79 628.19 L124.26 632.24 L124.91 636.24 L127.21 639.64 L126.99 643.99 L128.59 647.66 L130.78 651.08 L131.18 655.24 L132.59 658.99 L134.45 662.55 L136.31 666.09 L138.68 669.40 L140.69 672.86 L143.18 676.08 L144.86 679.69 L145.65 683.76 L148.29 686.88 L149.46 690.77 L151.67 694.12 L154.18 697.27 L156.84 700.33 L159.21 703.54 L162.11 706.42 L164.68 709.49 L167.52 712.37 L169.84 715.56 L171.99 718.87 L173.80 722.41 L176.14 725.59 L178.32 728.88 L179.72 732.74 L182.97 735.26 L186.47 737.56 L187.01 742.12 L190.42 744.46 L194.47 746.27 L195.31 750.65 L198.34 753.26 L201.91 755.40 L204.86 758.02 L207.69 760.76 L211.11 762.94 L213.41 766.14 L216.36 768.73 L219.24 771.38 L221.16 774.97 L224.54 777.12 L227.50 779.69 L229.79 782.94 L232.92 785.32 L236.47 787.23 L238.69 790.59 L241.46 793.36 L245.22 794.99 L248.84 796.75 L250.53 800.80 L253.88 802.87 L257.96 804.01 L260.39 807.21 L263.92 809.01 L268.14 809.86 L271.67 811.59 L274.98 813.61 L277.79 816.32 L280.03 819.88 L281.97 823.96 L284.34 827.45 L286.75 830.96 L290.11 833.00 L294.39 833.57 L297.88 835.37 L302.27 835.63 L306.60 835.91 L310.45 836.97 L313.89 838.75 L317.25 840.65 L320.51 842.76 L324.42 843.62 L327.87 845.34 L331.57 846.56 L335.15 848.00 L338.94 848.98 L342.61 850.20 L345.59 852.96 L349.06 854.63 L352.52 856.37 L355.81 858.51 L359.69 859.21 L363.16 860.93 L366.75 862.34 L370.88 862.26 L374.76 862.80 L378.29 864.36 L382.14 864.94 L386.24 864.68 L390.39 864.14 L393.60 866.70 L397.50 866.96 L401.00 868.59 L404.75 869.34 L408.34 870.70 L411.99 871.88 L415.83 872.23 L419.40 873.78 L423.27 873.94 L426.96 874.93 L430.59 876.31 L434.34 877.09 L438.05 878.16 L441.82 878.81 L445.48 880.29 L449.14 881.89 L452.98 882.28 L456.89 881.97 L460.69 882.63 L464.56 882.55 L468.55 880.82 L472.42 880.28 L476.32 879.05 L480.16 878.42 L484.00 877.30 L487.79 876.83 L491.58 875.95 L495.34 876.04 L499.10 876.90 L502.87 877.24 L506.66 878.38 L510.46 878.63 L514.23 878.25 L518.03 878.42 L521.80 878.01 L525.45 875.82 L529.07 873.80 L532.83 873.77 L536.45 872.23 L540.08 871.00 L543.89 871.46 L547.72 871.89 L551.43 871.36 L555.26 871.66 L558.70 869.33 L562.23 867.80 L565.90 867.11 L569.37 865.39 L572.89 864.03 L576.86 864.87 L580.46 863.90 L584.09 863.06 L587.67 862.01 L591.33 861.26 L594.84 859.98 L598.04 857.55 L601.46 856.04 L605.09 855.26 L608.43 853.50 L611.36 850.54 L614.81 849.24 L618.77 849.46 L622.38 848.61 L625.87 847.39 L630.22 848.49 L633.80 847.42 L637.66 847.07 L641.18 845.80 L644.51 844.09 L647.82 842.34 L650.74 839.73 L654.01 837.94 L657.07 835.72 L660.56 834.42 L663.81 832.63 L666.92 830.57 L670.37 829.18 L673.44 827.04 L676.13 824.24 L678.98 821.78 L682.16 819.92 L685.72 818.71 L688.68 816.48 L691.61 814.20 L695.23 813.05 L698.18 810.81 L701.50 809.16 L704.64 807.22 L707.51 804.88 L710.29 802.42 L712.85 799.66 L715.19 796.63 L717.33 793.36 L719.51 790.19 L722.74 788.42 L726.19 786.91 L729.24 784.87 L732.57 783.16 L735.92 781.46 L738.75 779.11 L742.53 777.86 L744.09 774.07 L746.47 771.22 L749.49 769.09 L751.43 765.80 L753.74 762.93 L756.63 760.66 L758.98 757.84 L761.27 754.97 L764.07 752.59 L765.75 749.16 L767.63 745.94 L769.63 742.85 L771.40 739.57 L774.27 737.26 L776.47 734.37 L778.47 731.32 L780.12 728.00 L782.94 725.63 L785.12 722.74 L786.64 719.35 L788.55 716.27 L791.49 713.96 L792.72 710.38 L794.37 707.14 L796.14 703.99 L796.98 700.22 L797.87 696.52 L800.31 693.84 L801.03 690.07 L802.57 686.84 L804.69 683.96 L807.31 681.37 L809.44 678.48 L810.66 675.07 L812.34 671.92 L813.83 668.68 L815.13 665.34 L816.41 661.99 L816.68 658.16 L817.43 654.58 L819.22 651.53 L819.41 647.72 L820.49 644.35 L822.29 641.30 L824.83 638.56 L826.29 635.34 L828.89 632.58 L830.49 629.40 L831.89 626.13 L833.46 622.93 L834.50 619.52 L836.49 616.45 L836.85 612.82 L837.11 609.17 L839.38 606.17 L840.53 602.80 L841.19 599.29 L841.58 595.71 L843.69 592.60 L844.40 589.11 L844.86 585.56 L846.22 582.23 L846.91 578.74 L846.93 575.10 L848.76 571.85 L849.02 568.28 L848.34 564.53 L847.74 560.83 L847.68 557.25 L848.22 553.76 L848.45 550.24 L848.60 546.70 L850.57 543.41 L851.63 539.97 L851.79 536.43 L851.10 532.81 L849.83 529.17 L849.02 525.59 L848.52 522.05 L847.73 518.51 L849.33 515.10 L850.24 511.63 L849.95 508.12 L852.06 504.64 L851.48 501.12 L850.56 497.61 L850.10 494.11 L849.19 490.63 L848.42 487.17 L848.15 483.69 L847.34 480.24 L846.32 476.83 L846.49 473.33 L845.36 469.94 L845.21 466.47 L845.56 462.95 L845.27 459.48 L845.35 455.97 L844.33 452.59 L843.24 449.24 L842.50 445.85 L841.29 442.53 L841.52 438.98 L839.37 435.85 L836.01 433.00 L835.44 429.62 L831.21 427.04 L829.04 424.06 L826.44 421.22 L823.56 418.48 L823.91 414.94 L823.49 411.58 L822.85 408.28 L822.54 404.87 L820.87 401.86 L820.93 398.32 L818.93 395.44 L817.15 392.50 L815.51 389.52 L814.34 386.39 L812.48 383.52 L811.10 380.47 L810.34 377.19 L808.78 374.22 L808.32 370.80 L806.37 368.00 L804.77 365.06 L803.79 361.85 L800.73 359.59 L799.76 356.38 L797.95 353.56 L794.15 351.76 L793.54 348.37 L792.65 345.10 L791.84 341.77 L790.63 338.65 L788.24 336.18 L785.99 333.65 L784.32 330.80 L781.96 328.36 L779.76 325.85 L777.25 323.53 L776.35 320.20 L775.30 316.94 L773.16 314.39 L770.65 312.12 L768.91 309.31 L765.53 307.69 L764.17 304.62 L760.42 303.33 L757.82 301.22 L756.84 297.84 L753.69 296.18 L752.99 292.55 L750.69 290.21 L747.56 288.58 L746.38 285.30 L743.18 283.77 L741.21 281.16 L739.60 278.21 L736.85 276.32 L733.88 274.65 L735.09 268.91 L731.64 267.71 L728.83 265.88 L727.03 263.03 L724.03 261.43 L720.49 260.45 L718.67 257.61 L715.49 256.28 L712.93 254.25 L710.39 252.22 L707.65 250.44 L704.74 248.86 L701.68 247.51 L699.18 245.46 L696.80 243.26 L693.25 242.59 L691.22 239.92 L687.25 239.90 L684.35 238.46 L681.69 236.68 L678.19 236.14 L675.82 233.96 L674.08 230.78 L671.28 229.20 L669.48 226.02 L666.49 224.75 L662.68 224.87 L660.26 222.66 L656.75 222.37 L654.19 220.41 L651.91 217.90 L648.12 218.24 L646.06 215.28 L643.72 212.80 L640.58 211.92 L637.62 210.66 L634.38 210.04 L631.40 208.87 L628.27 208.07 L625.11 207.35 L621.90 206.76 L619.09 205.24 L616.19 203.94 L613.13 203.03 L609.94 202.50 L607.28 200.52 L604.34 199.30 L600.99 199.26 L597.87 198.62 L594.69 198.14 L591.32 198.38 L588.27 197.56 L585.33 196.40 L582.32 195.43 L579.17 195.03 L576.39 193.14 L573.27 192.59 L570.12 192.17 L566.77 192.75 L563.59 192.60 L560.53 191.87 L557.54 190.81 L554.53 189.76 L551.42 189.23 L548.16 189.71 L545.20 188.23 L541.85 189.48 L538.71 189.38 L535.40 190.79 L532.15 191.95 L529.22 190.02 L526.06 190.45 L522.91 190.90 L519.93 188.88 L516.78 189.49 L513.70 188.76 L510.56 189.34 L507.43 190.09 L504.35 189.13 L501.24 188.79 L498.14 190.25 L494.97 186.10 L491.86 187.13 L488.83 189.89 L485.59 187.18 L482.57 189.20 L479.48 189.70 L476.38 189.85 L473.32 190.60 L470.25 191.08 L467.18 191.61 L464.24 193.18 L461.29 194.47 L458.15 194.22 L455.16 195.11 L452.26 196.52 L449.35 197.75 L446.17 197.35 L443.42 199.33 L440.84 202.08 L437.69 201.84 L435.05 204.02 L432.28 205.49 L428.79 203.90 L425.82 204.58 L423.04 205.99 L419.44 204.34 L416.81 206.29 L414.15 208.06 L411.39 209.45 L408.82 211.41 L405.54 211.10 L402.62 211.96 L399.65 212.69 L396.25 212.23 L393.80 214.42 L390.78 215.05 L388.09 216.54 L385.45 218.14 L382.97 220.10 L380.44 221.89 L377.71 223.20 L375.01 224.57 L372.56 226.47 L369.49 227.05 L366.96 228.76 L364.22 230.04 L361.16 230.70 L358.66 232.46 L356.71 235.20 L353.88 236.32 L351.57 238.35 L349.83 241.35 L347.51 243.30 L344.40 243.92 L341.76 245.35 L339.08 246.73 L336.41 248.13 L334.03 249.98 L332.01 252.35 L329.90 254.55 L327.59 256.46 L325.04 258.02 L323.22 260.58 L319.40 260.46 L317.35 262.72 L315.46 265.16 L313.30 267.24 L311.76 270.06 L310.52 273.22 L309.08 276.08 L306.73 277.87 L304.12 279.36 L302.44 281.89 L299.45 283.00 L297.01 284.72 L295.49 287.41 L293.19 289.28 L291.55 291.81 L290.02 294.44 L286.59 295.21 L285.31 298.07 L281.55 298.61 L278.62 299.97 L278.25 303.63 L275.24 304.94 L274.36 308.10 L272.74 310.60 L271.02 313.01 L269.59 315.66 L267.55 317.81 L266.21 320.50 L264.52 322.92 L263.88 326.11 L262.41 328.66 L260.63 330.99 L260.34 334.35 L258.49 336.62 L257.04 339.15 L255.86 341.86 L256.29 345.58 L254.61 347.93 L253.50 350.63 L254.03 354.30 L251.39 356.07 L248.16 357.55 L247.58 360.53 L244.29 362.03 L242.88 364.58 L242.81 367.81 L242.16 370.72 L241.56 373.63 L241.51 376.79 L237.74 378.20 L237.71 381.36 L235.57 383.57 L233.10 385.65 L232.51 388.55 L231.53 391.28 L230.61 394.03 L230.41 397.05 L229.97 399.97 L229.29 402.78 L228.37 405.51 L228.36 408.54 L226.57 410.97 L225.85 413.76 L226.39 416.92 L223.79 419.14 L222.85 421.87 L223.46 425.02 L223.11 427.89 L222.54 430.69 L223.24 433.80 L224.15 436.93 L222.11 439.38 L220.94 442.04 L220.96 444.95 L219.60 447.59 L218.93 450.37 L219.16 453.30 L219.48 456.23 L219.52 459.11 L218.68 461.85 L218.87 464.74 L216.88 467.36 L216.60 470.20 L218.01 473.19 L216.91 475.94 L217.79 478.86 L219.25 481.79 L220.44 484.67 L220.98 487.50 L219.77 490.25 L220.04 493.06 L220.32 495.87 L218.77 498.66 L219.45 501.47 L219.63 504.27 L220.07 507.06 L221.02 509.83 L219.66 512.69 L219.88 515.48 L221.88 518.17 L216.87 521.34 L218.78 524.02 L219.71 526.77 L219.26 529.65 L220.49 532.35 L221.38 535.07 L221.91 537.83 L222.44 540.59 L223.12 543.33 L223.48 546.11 L225.09 548.67 L226.86 551.18 L226.65 554.05 L228.44 556.53 L229.35 559.17 L230.96 561.64 L230.62 564.56 L233.65 566.66 L236.18 568.83 L236.02 571.70 L238.07 573.97 L240.99 575.95 L237.59 579.80 L238.42 582.42 L239.28 585.02 L238.42 588.20 L240.14 590.53 L242.16 592.72 L243.62 595.11 L245.50 597.32 L244.78 600.53 L246.45 602.81 L247.36 605.40 L246.47 608.76 L248.78 610.75 L249.48 613.45 L250.72 615.90 L252.52 618.09 L254.42 620.22 L256.09 622.43 L257.31 624.88 L259.02 627.06 L260.36 629.43 L261.25 632.05 L263.35 634.00 L264.08 636.72 L264.90 639.40 L267.16 641.23 L269.40 643.05 L270.81 645.36 L273.11 647.11 L275.88 648.51 L277.09 650.94 L277.62 653.85 L279.54 655.80 L280.69 658.30 L281.96 660.72 L284.05 662.54 L286.28 664.24 L288.40 666.00 L289.94 668.21 L291.75 670.21 L293.30 672.42 L293.97 675.39 L296.41 676.85 L297.93 679.10 L300.48 680.44 L303.22 681.57 L306.19 682.45 L308.75 683.68 L310.29 685.89 L312.07 687.87 L314.23 689.46 L315.00 692.49 L316.81 694.46 L319.20 695.80 L320.97 697.82 L323.20 699.32 L324.94 701.39 L326.50 703.67 L329.27 704.53 L329.08 708.97 L331.59 710.15 L334.93 710.26 L336.01 713.24 L339.18 713.50 L341.34 715.08 L343.70 716.37 L346.20 717.47 L348.20 719.26 L350.78 720.19 L353.03 721.62 L355.94 722.03 L357.85 723.95 L360.48 724.74 L363.39 725.05 L365.41 726.81 L367.36 728.69 L370.29 728.89 L373.07 729.31 L374.87 731.49 L377.41 732.29 L380.20 732.63 L381.52 735.83 L384.24 736.28 L387.24 736.10 L388.84 738.85 L391.63 739.08 L394.53 739.02 L396.81 740.33 L399.23 741.31 L401.51 742.65 L403.58 744.54 L406.07 745.39 L408.16 747.32 L410.81 747.74 L413.30 748.60 L415.80 749.41 L418.46 749.75 L421.11 750.10 L423.68 750.64 L426.16 751.50 L428.67 752.27 L431.32 752.49 L433.69 753.76 L436.25 754.34 L438.79 754.99 L441.29 755.84 L443.89 756.24 L446.53 756.43 L449.05 757.18 L451.65 757.54 L454.32 757.47 L456.86 758.16 L459.40 758.89 L462.00 759.19 L464.51 760.19 L467.14 760.31 L469.75 760.53 L472.36 760.80 L474.98 761.01 L477.57 761.52 L480.19 761.67 L482.82 761.62 L485.37 762.90 L488.05 761.94 L490.68 761.85 L493.30 762.06 L495.93 761.22 L498.55 760.96 L501.16 761.21 L503.77 761.04 L506.37 760.93 L508.99 761.06 L511.61 761.13 L514.21 760.86 L516.82 760.68 L519.44 760.71 L522.04 760.42 L524.61 759.81 L527.27 760.20 L529.83 759.58 L532.51 759.91 L535.23 760.48 L537.73 759.42 L540.43 759.69 L542.94 758.78 L545.52 758.33 L548.02 757.40 L550.60 756.94 L553.16 756.40 L555.60 755.33 L558.19 754.92 L560.67 754.05 L563.31 753.85 L565.71 752.66 L568.13 751.60 L570.98 752.11 L573.22 750.44 L575.78 749.90 L578.50 749.83 L580.83 748.55 L583.38 747.92 L585.94 747.32 L588.60 746.99 L590.93 745.73 L593.28 744.52 L595.89 744.01 L597.94 742.08 L599.97 740.18 L602.31 739.02 L604.63 737.85 L606.97 736.71 L609.54 736.08 L611.76 734.69 L614.15 733.67 L616.41 732.38 L618.64 731.02 L620.74 729.43 L622.89 727.96 L625.15 726.70 L627.52 725.63 L629.79 724.37 L631.82 722.71 L634.02 721.35 L635.94 719.54 L638.03 718.01 L640.11 716.47 L642.03 714.70 L644.15 713.25 L646.00 711.39 L647.94 709.69 L650.42 708.74 L652.27 706.91 L654.09 705.06 L656.60 704.11 L658.42 702.26 L660.32 700.53 L662.70 699.38 L664.37 697.36 L666.38 695.77 L668.25 694.01 L670.10 692.22 L671.41 689.84 L673.38 688.21 L675.12 686.32 L676.13 683.68 L677.55 681.49 L679.16 679.51 L680.50 677.27 L681.98 675.19 L683.72 673.35 L685.24 671.32 L687.14 669.64 L688.80 667.73 L690.47 665.83 L692.25 664.04 L693.81 662.05 L695.33 660.02 L696.77 657.94 L698.19 655.85 L699.56 653.72 L700.95 651.61 L702.03 649.28 L704.22 647.76 L705.20 645.38 L706.07 642.92 L707.75 641.03 L708.82 638.72 L709.71 636.31 L711.10 634.23 L712.10 631.90 L713.10 629.59 L714.55 627.55 L715.11 624.99 L716.27 622.79 L717.83 620.81 L718.66 618.43 L720.39 616.53 L721.07 614.07 L722.00 611.76 L723.33 609.64 L723.83 607.12 L724.92 604.89 L725.73 602.54 L726.15 600.01 L728.01 598.12 L728.27 595.54 L728.96 593.14 L729.73 590.79 L730.16 588.31 L730.43 585.78 L730.96 583.36 L731.59 580.98 L732.46 578.68 L732.74 576.19 L733.55 573.88 L734.37 571.57 L734.69 569.11 L735.05 566.67 L735.79 564.34 L736.00 561.87 L736.59 559.50 L736.81 557.04 L737.23 554.64 L737.51 552.21 L738.27 549.88 L738.63 547.47 L738.71 545.01 L739.17 542.63 L739.63 540.24 L740.04 537.84 L739.57 535.32 L739.62 532.88 L739.83 530.47 L739.77 528.03 L740.25 525.65 L740.16 523.22 L740.37 520.81 L740.68 518.42 L741.38 516.04 L741.48 513.63 L741.35 511.20 L742.07 508.81 L741.93 506.38 L741.58 503.96 L741.49 501.54 L741.56 499.12 L740.19 496.73 L740.16 494.32 L739.37 491.95 L738.16 489.60 L737.50 487.25 L737.41 484.87 L737.06 482.51 L736.58 480.17 L736.35 477.81 L736.24 475.43 L735.36 473.14 L735.29 470.76 L734.73 468.45 L733.81 466.18 L733.39 463.86 L733.35 461.47 L732.77 459.17 L732.94 456.74 L732.35 454.44 L731.56 452.19 L731.39 449.80 L730.32 447.62 L729.84 445.30 L728.42 443.22 L728.23 440.84 L727.08 438.71 L726.08 436.55 L725.50 434.27 L724.15 432.22 L723.89 429.85 L722.86 427.72 L721.61 425.67 L721.43 423.25 L720.07 421.25 L719.34 419.03 L718.78 416.74 L717.51 414.73 L716.14 412.76 L715.33 410.57 L714.94 408.20 L713.17 406.43 L710.54 405.06 L709.89 402.82 L707.24 401.52 L705.69 399.72 L700.84 399.58 L700.97 397.00 L700.43 394.73 L698.10 393.41 L697.18 391.35 L695.71 389.59 L695.90 386.89 L696.89 383.68 L693.09 383.30 L693.81 380.20 L693.18 377.91 L690.50 376.92 L690.04 374.50 L686.05 374.45 L687.18 370.94 L685.75 369.17 L681.60 369.35 L682.97 365.57 L680.44 364.63 L678.94 362.94 L675.36 362.88 L673.92 361.18 L673.67 358.51 L670.44 358.29 L669.11 356.51 L668.32 354.26 L666.86 352.58 L666.83 349.61 L664.57 348.63 L663.62 346.46 L662.28 344.64 L660.88 342.87 L659.02 341.54 L657.11 340.28 L655.02 339.23 L654.01 337.04 L651.50 336.45 L649.64 335.19 L647.93 333.76 L645.50 333.16 L643.78 331.76 L640.73 331.96 L640.30 329.02 L637.54 328.92 L634.44 329.31 L633.89 326.47 L633.35 323.55 L628.01 327.05 L628.64 322.51 L627.49 320.35 L625.42 319.47 L623.26 318.73 L622.11 316.50 L619.24 316.87 L616.75 316.71 L616.62 312.81 L613.31 314.01 L611.19 313.31 L610.97 309.36 L608.23 309.72 L606.40 308.51 L603.45 309.36 L602.30 306.90 L600.06 306.47 L597.38 306.94 L595.86 305.14 L592.95 306.17 L591.11 305.05 L590.34 301.53 L586.57 304.66 L585.71 301.26 L583.74 300.36 L581.42 300.32 L580.28 297.34 L576.78 300.38 L575.24 298.38 L574.29 294.67 L570.46 299.01 L569.42 295.44 L566.98 295.95 L564.79 295.74 L562.14 297.09 L560.18 296.23 L558.33 294.97 L555.99 295.46 L553.74 295.66 L551.70 295.10 L549.55 295.03 L547.87 292.91 L545.74 292.69 L543.63 292.43 L541.85 290.49 L539.60 290.91 L537.62 289.91 L534.92 293.07 L533.07 291.30 L531.35 288.53 L528.74 291.76 L526.83 290.13 L524.68 290.30 L522.41 291.66 L520.58 288.87 L517.88 295.42 L515.84 295.09 L514.12 290.10 L511.60 297.25 L509.72 294.04 L507.70 292.98 L505.64 292.33 L503.63 288.49 L501.50 290.06 L499.40 288.53 L497.30 289.30 L495.23 291.05 L493.06 288.73 L491.11 292.56 L489.03 292.60 L486.81 290.39 L484.88 292.83 L482.71 291.77 L480.71 292.81 L478.60 292.60 L476.87 295.85 L475.22 299.32 L472.80 296.43 L470.87 297.44 L469.24 300.32 L466.84 298.19 L464.65 297.53 L462.21 295.64 L460.80 299.27 L458.46 298.00 L456.48 298.62 L455.05 301.64 L452.67 300.39 L451.63 304.73 L448.72 301.53 L446.78 302.19 L445.71 305.96 L442.80 303.18 L441.20 304.98 L439.65 306.84 L438.12 308.69 L436.64 310.60 L434.26 309.84 L433.08 312.50 L430.31 310.76 L430.03 315.70 L426.15 311.18 L423.79 310.77 L423.18 314.61 L420.53 313.51 L417.67 312.04 L417.58 316.84 L414.59 315.16 L414.30 319.30 L411.39 317.89 L408.52 316.67 L408.30 320.74 L406.16 321.00 L403.95 321.15 L403.83 325.14 L401.50 325.07 L400.84 327.95 L400.11 330.62 L397.40 329.94 L397.04 333.13 L395.36 334.14 L393.19 334.39 L391.88 335.99 L388.48 334.45 L389.95 340.12 L385.94 337.79 L385.46 340.52 L384.13 342.02 L383.01 343.80 L382.25 346.01 L378.13 343.88 L378.08 347.00 L377.24 349.07 L374.62 348.96 L373.86 351.09 L371.37 351.21 L373.07 356.11 L373.57 359.53 L368.60 356.91 L367.83 358.93 L368.72 362.66 L363.84 360.38 L362.26 361.55 L359.35 361.42 L360.62 365.40 L358.59 366.14 L359.38 369.54 L357.19 370.13 L355.57 371.27 L355.48 373.77 L353.17 374.31 L350.41 374.52 L351.33 377.80 L348.22 377.77 L348.18 380.22 L347.50 382.14 L346.87 384.08 L346.76 386.39 L346.24 388.37 L344.20 389.25 L344.64 391.89 L343.21 393.20 L341.56 394.38 L339.50 395.31 L338.09 396.69 L338.49 399.20 L336.27 400.07 L337.21 402.87 L335.76 404.22 L337.44 407.37 L336.01 408.71 L332.09 408.71 L334.87 412.36 L332.82 413.40 L331.89 415.03 L332.51 417.44 L331.24 418.90 L335.03 422.75 L328.94 421.97 L328.08 423.64 L329.90 426.48 L325.17 426.50 L324.52 428.29 L325.45 430.69 L322.70 431.65 L325.52 434.73 L322.95 435.78 L321.52 437.27 L321.61 439.30 L320.97 441.08 L325.96 444.64 L321.68 445.24 L321.09 447.01 L326.62 450.52 L321.70 451.04 L321.00 452.77 L321.06 454.70 L322.25 456.88 L325.62 459.55 L322.86 460.77 L321.08 462.25 L326.01 465.10 L322.43 466.22 L320.83 467.77 L320.44 469.55 L324.25 472.01 L320.59 473.26 L319.06 474.88 L323.71 477.32 L318.54 478.49 L318.81 480.36 L319.27 482.24 L317.22 483.88 L322.00 486.09 L318.80 487.67 L319.88 489.55 L320.88 491.40 L320.28 493.17 L322.02 495.02 L321.67 496.80 L321.78 498.58 L323.28 500.36 L322.87 502.13 L321.37 503.94 L321.55 505.72 L322.12 507.48 L320.83 509.33 L320.53 511.15 L321.26 512.90 L321.73 514.66 L326.72 515.99 L322.49 518.18 L321.86 520.04 L325.90 521.35 L323.75 523.41 L323.72 525.21 L326.73 526.55 L324.44 528.70 L330.60 529.43 L332.29 530.87 L328.11 533.42 L333.08 534.19 L332.23 536.12 L330.67 538.23 L330.96 539.94 L328.30 542.39 L332.98 543.01 L330.22 545.53 L332.44 546.74 L332.60 548.51 L335.85 549.35 L334.93 551.43 L335.30 553.13 L336.75 554.47 L336.45 556.39 L336.57 558.19 L339.89 558.81 L338.33 561.23 L341.42 561.88 L342.84 563.14 L341.14 565.68 L343.22 566.66 L345.93 567.34 L346.05 569.13 L348.07 570.05 L344.39 573.65 L347.60 574.00 L346.08 576.65 L345.81 578.72 L347.48 579.80 L348.84 581.02 L351.11 581.73 L353.08 582.57 L358.19 581.58 L358.11 583.52 L361.03 583.69 L364.96 583.17 L367.11 583.69 L366.79 585.76 L368.85 586.31 L369.97 587.44 L371.50 588.29 L373.82 588.57 L373.65 590.59 L375.92 590.85 L377.17 591.84 L377.15 593.79 L379.09 594.24 L378.64 596.55 L379.77 597.63 L381.07 598.57 L382.62 599.27 L382.71 601.23 L384.30 601.89 L386.49 601.99 L386.70 603.88 L388.13 604.64 L390.61 604.39 L390.61 606.50 L392.99 606.29 L393.95 607.47 L395.50 608.04 L395.71 610.00 L396.95 610.90 L399.18 610.69 L400.05 611.97 L400.02 614.28 L401.25 615.17 L402.39 616.18 L403.68 616.99 L404.29 618.65 L406.01 618.94 L407.32 619.72 L408.55 620.61 L410.12 621.04 L411.20 622.11 L411.27 624.61 L413.07 624.70 L414.35 625.53 L415.59 626.41 L417.68 625.98 L418.75 627.10 L420.87 626.56 L423.17 625.67 L423.90 627.31 L426.00 626.66 L426.49 628.76 L428.31 628.54 L430.10 628.33 L430.83 630.07 L432.05 630.91 L433.56 631.20 L435.69 630.20 L436.37 632.13 L437.97 632.19 L439.55 632.24 L440.52 633.65 L442.28 633.25 L443.76 633.48 L445.13 633.97 L446.60 634.18 L448.37 633.60 L449.92 633.55 L450.71 635.55 L452.28 635.45 L453.96 634.95 L455.16 635.88 L456.30 637.02 L457.50 638.01 L458.85 638.54 L460.21 639.03 L461.66 639.19 L463.33 638.54 L464.55 639.56 L466.04 639.51 L467.77 638.43 L469.05 639.23 L470.17 640.80 L471.85 639.75 L472.98 641.44 L474.67 640.17 L476.37 638.69 L477.64 639.68 L479.30 638.15 L480.62 638.78 L482.17 637.70 L483.73 636.35 L484.84 638.88 L486.37 637.52 L487.72 638.01 L489.11 638.04 L490.46 638.49 L491.88 638.05 L493.26 638.04 L494.62 638.67 L496.06 637.03 L497.41 638.08 L498.79 637.79 L500.17 635.66 L501.53 636.53 L502.87 635.02 L504.22 635.11 L505.56 634.66 L506.85 633.54 L508.26 634.63 L509.54 633.65 L510.90 633.92 L512.32 634.67 L513.53 633.23 L514.88 633.25 L516.26 633.47 L517.61 633.45 L518.91 632.96 L519.95 630.90 L521.42 631.71 L522.69 631.23 L523.88 630.30 L525.37 631.03 L526.61 630.45 L527.68 629.10 L529.26 630.11 L530.26 628.54 L531.35 627.40 L532.55 626.83 L533.43 625.05 L534.93 625.62 L535.80 623.92 L536.80 622.76 L538.27 623.17 L539.13 621.65 L540.59 621.96 L541.62 621.02 L542.71 620.28 L543.63 619.06 L545.12 619.42 L546.25 618.80 L546.85 616.87 L548.39 617.32 L549.41 616.47 L549.92 614.47 L551.47 614.87 L552.02 613.07 L553.16 612.55 L554.08 611.61 L555.41 611.49 L556.55 610.99 L556.96 609.08 L558.33 609.03 L559.76 609.07 L560.54 607.91 L561.45 607.02 L562.38 606.16 L563.50 605.64 L564.25 604.51 L565.03 603.44 L566.19 602.99 L566.82 601.72 L567.73 600.88 L569.19 600.87 L569.67 599.41 L570.24 598.13 L571.56 597.89 L571.89 596.31 L573.08 595.89 L573.45 594.40 L573.67 592.75 L575.00 592.51 L575.30 591.01 L576.55 590.66 L577.09 589.47 L577.54 588.19 L578.80 587.83 L579.59 586.95 L580.26 585.94 L580.47 584.46 L581.73 584.08 L582.18 582.87 L582.62 581.66 L583.52 580.91 L583.99 579.76 L584.39 578.54 L585.10 577.63 L585.56 576.50 L585.88 575.26 L586.33 574.14 L587.54 573.67 L588.03 572.59 L588.23 571.29 L588.91 570.37 L589.81 569.64 L590.32 568.60 L590.92 567.63 L591.19 566.42 L591.72 565.42 L591.95 564.21 L592.68 563.35 L593.13 562.30 L593.19 561.00 L593.78 560.05 L594.61 559.25 L594.65 557.97 L595.39 557.12 L595.52 555.91 L595.50 554.62 L596.14 553.72 L596.12 552.45 L596.40 551.36 L596.64 550.26 L596.63 549.03 L597.43 548.22 L597.41 547.00 L597.54 545.86 L597.89 544.84 L598.17 543.79 L598.30 542.67 L598.40 541.55 L598.85 540.58 L598.84 539.43 L599.20 538.43 L599.38 537.36 L599.26 536.18 L599.42 535.12 L599.50 534.03 L599.61 532.96 L599.72 531.89 L599.61 530.76 L600.00 529.79 L599.99 528.71 L600.13 527.67 L600.24 526.62 L600.15 525.52 L600.12 524.46 L600.21 523.42 L600.15 522.35 L600.12 521.29 L600.01 520.23 L600.12 519.21 L600.06 518.16 L599.95 517.11 L599.93 516.08 L599.89 515.05 L599.76 514.01 L599.72 512.99 L599.62 511.97 L599.51 510.95 L599.42 509.93 L599.32 508.92 L599.21 507.91 L599.10 506.90 L598.98 505.90 L598.85 504.90 L598.72 503.91 L598.57 502.91 L598.41 501.92 L598.24 500.94 Z"/>
  <svg class="pausebutton" id="pausebutton">
    <circle cx="500" cy="500" id="pausestart" class="pausestart" r="52.65"/>
    <rect height="50.02" width="10.00" y="473.68" rx="2.00" ry="2.00" x="479.99" class="pausesymbol"/>
    <rect height="50.02" width="10.00" y="473.68" rx="2.00" ry="2.00" x="510.00" class="pausesymbol"/>
    <polygon points="530.01,500 479.99,530.01 479.99,469.99" class="playsymbol"/>
  </svg>
  <polygon id="playback-head" class="playback-head" points="941.65,500 921.65,540 961.65,540"/>
</svg>