<?xml-stylesheet href="../../style/waveformjs.css" type="text/css"?>
<svg xmlns="http://www.w3.org/2000/svg" xmlns:xlink="http://www.w3.org/1999/xlink" width="100%" height="100%" viewBox="0 0 1000 1000">
  <path class="svg-wave" id="sp" d="M598.05 500.00 L598.22 500.98 L598.39 501.97 L598.55 502.96 L598.70 503.95 L598.83 504.95 L598.96 505.94 L599.08 506.95 L599.19 507.95 L599.28 508.96 L599.37 509.97 L599.45 510.98 L599.51 512.00 L599.57 513.02 L599.61 514.04 L599.65 515.06 L599.67 516.09 L599.69 517.11 L599.69 518.14 L599.68 519.17 L599.66 520.20 L599.63 521.23 L599.58 522.27 L599.52 523.30 L599.45 524.34 L599.37 525.37 L599.29 526.41 L599.19 527.45 L599.09 528.49 L598.97 529.53 L598.84 530.57 L598.70 531.62 L598.55 532.66 L598.39 533.70 L598.21 534.74 L598.03 535.78 L597.84 536.83 L597.63 537.87 L597.41 538.91 L597.17 539.94 L596.93 540.98 L596.67 542.02 L596.40 543.05 L596.12 544.08 L595.82 545.11 L595.51 546.14 L595.18 547.16 L594.85 548.18 L594.49 549.19 L594.13 550.21 L593.68 551.18 L591.83 551.37 L588.48 550.66 L585.50 550.10 L585.16 551.05 L584.39 551.74 L583.60 552.41 L582.58 552.93 L584.05 555.07 L585.33 557.13 L581.93 556.05 L580.35 556.16 L582.80 559.11 L582.25 559.97 L579.68 559.33 L580.42 561.13 L582.30 563.87 L579.64 563.10 L579.11 563.97 L580.18 566.18 L577.54 565.31 L578.22 567.23 L578.32 568.69 L575.64 567.69 L576.59 569.93 L575.05 569.92 L574.43 570.75 L573.74 571.50 L571.76 570.99 L571.56 572.23 L570.34 572.43 L567.81 571.23 L563.98 568.57 L560.34 565.98 L558.57 565.35 L555.35 563.01 L553.21 561.81 L551.96 561.59 L552.38 563.36 L551.38 563.44 L550.76 563.96 L551.33 566.03 L549.94 565.59 L548.34 564.82 L549.54 567.83 L549.60 569.36 L547.44 567.77 L549.83 572.72 L549.27 573.46 L547.62 572.56 L548.31 575.24 L546.27 573.67 L544.78 572.91 L544.60 574.28 L542.16 571.83 L539.85 569.47 L539.53 570.53 L540.05 573.17 L538.82 572.65 L538.70 574.19 L540.20 578.98 L538.63 577.82 L537.70 577.89 L537.05 578.55 L536.66 579.78 L535.87 580.14 L534.88 580.07 L533.73 579.59 L532.66 579.28 L531.58 578.89 L531.31 580.54 L530.67 581.29 L531.36 585.70 L530.70 586.57 L529.66 586.37 L529.87 589.88 L528.11 587.53 L526.76 586.28 L526.21 587.57 L524.22 583.97 L522.79 582.09 L521.76 581.55 L521.59 584.26 L520.96 585.37 L520.20 585.98 L520.33 590.59 L519.35 590.42 L518.33 590.05 L517.54 590.79 L516.75 591.65 L515.79 591.52 L514.90 591.85 L513.79 590.75 L512.71 589.66 L511.74 589.27 L510.96 590.30 L509.86 588.67 L509.38 592.70 L508.68 595.38 L507.53 592.98 L506.82 596.21 L505.88 596.54 L504.83 594.94 L503.97 597.23 L502.86 592.91 L501.86 589.54 L500.97 589.89 L500.07 590.35 L499.16 590.79 L498.22 592.56 L497.20 595.81 L496.18 597.39 L495.21 597.24 L494.23 597.41 L493.21 597.95 L492.27 597.43 L491.29 597.42 L490.49 595.57 L489.64 594.49 L488.69 594.42 L487.24 598.22 L486.24 598.24 L484.85 600.81 L483.36 603.63 L482.41 602.95 L481.45 602.38 L480.86 599.97 L480.02 598.99 L478.58 600.89 L478.27 597.53 L477.93 594.62 L476.82 595.06 L475.27 597.18 L474.49 596.19 L473.57 595.81 L471.73 598.60 L470.93 597.70 L470.25 596.45 L469.04 596.92 L467.96 596.93 L466.99 596.63 L466.03 596.26 L465.72 594.15 L464.80 593.75 L463.86 593.39 L461.75 596.00 L461.11 594.83 L458.53 598.30 L456.64 599.98 L456.89 596.74 L455.05 598.22 L454.99 595.80 L454.53 594.32 L452.93 595.19 L452.83 593.05 L453.56 589.38 L452.48 589.25 L450.95 589.95 L450.48 588.69 L449.51 588.34 L446.79 590.99 L445.81 590.56 L445.27 589.43 L443.50 590.29 L442.28 590.21 L441.38 589.63 L440.35 589.24 L440.37 587.31 L439.95 586.06 L439.94 584.27 L437.92 585.29 L437.61 583.94 L434.90 585.78 L432.48 587.14 L431.61 586.47 L429.18 587.72 L429.13 586.01 L429.11 584.30 L427.39 584.62 L428.18 582.01 L429.44 578.97 L428.84 578.06 L426.32 579.22 L425.66 578.34 L424.95 577.52 L422.36 578.60 L421.58 577.83 L421.62 576.25 L420.08 576.21 L418.75 575.94 L418.83 574.35 L417.95 573.66 L418.61 571.62 L419.35 569.55 L419.72 567.84 L417.16 568.59 L417.70 566.77 L414.41 568.03 L409.84 570.20 L410.81 568.03 L408.29 568.51 L406.31 568.54 L408.07 565.85 L406.12 565.84 L407.37 563.59 L410.19 560.34 L409.96 559.20 L407.05 559.79 L406.44 558.86 L405.23 558.31 L400.74 559.71 L399.52 559.09 L399.90 557.53 L398.60 556.93 L397.43 556.25 L397.57 554.84 L396.73 553.97 L397.57 552.24 L398.18 550.65 L398.78 549.09 L396.06 549.13 L396.19 547.81 L392.78 548.08 L389.55 548.21 L390.49 546.50 L386.22 546.98 L387.34 545.21 L389.83 542.93 L388.50 542.17 L392.10 539.58 L392.07 538.37 L393.38 536.71 L391.07 536.29 L387.35 536.28 L386.94 535.17 L383.78 534.88 L383.12 533.81 L383.81 532.36 L383.91 531.08 L382.64 530.17 L382.80 528.88 L383.01 527.59 L384.21 526.09 L384.82 524.74 L385.40 523.42 L382.02 522.88 L380.99 521.85 L378.56 521.04 L373.83 520.57 L376.09 518.93 L375.01 517.82 L374.68 516.59 L378.84 514.81 L377.86 513.69 L380.05 512.23 L383.05 510.74 L384.08 509.48 L381.81 508.48 L379.82 507.41 L380.26 506.18 L376.06 505.16 L375.41 503.94 L376.71 502.66 L375.49 501.44 L374.43 500.20 L374.57 498.95 L374.95 497.70 L376.65 496.49 L377.26 495.28 L378.89 494.13 L376.09 492.75 L376.42 491.53 L373.48 490.06 L368.03 488.30 L371.25 487.29 L369.26 485.77 L368.20 484.32 L373.55 483.67 L371.73 482.13 L374.20 481.19 L377.35 480.41 L378.34 479.32 L376.18 477.67 L375.24 476.21 L375.86 475.04 L373.54 473.26 L372.84 471.78 L374.61 470.85 L374.55 469.51 L373.84 468.00 L374.46 466.82 L375.06 465.64 L376.76 464.77 L377.83 463.76 L379.80 463.03 L378.50 461.29 L380.44 460.59 L378.79 458.70 L373.20 455.37 L377.19 455.39 L375.26 453.27 L372.00 450.59 L377.50 451.30 L376.50 449.47 L379.45 449.26 L383.55 449.61 L384.83 448.79 L383.67 446.87 L383.25 445.26 L383.22 443.82 L380.66 441.11 L379.72 439.14 L381.41 438.50 L381.44 437.00 L380.94 435.20 L382.51 434.53 L382.92 433.21 L384.55 432.61 L386.32 432.10 L388.29 431.75 L387.56 429.75 L388.05 428.50 L387.19 426.35 L384.23 422.75 L386.41 422.56 L384.89 419.82 L385.59 418.60 L389.36 419.60 L388.91 417.56 L390.82 417.28 L394.19 418.15 L395.34 417.35 L395.27 415.59 L394.80 413.46 L396.22 412.87 L395.85 410.77 L395.27 408.44 L397.18 408.28 L397.82 407.00 L397.58 404.89 L398.85 404.17 L399.57 402.92 L401.64 403.01 L403.32 402.74 L404.98 402.47 L405.14 400.67 L405.91 399.49 L405.58 397.08 L403.54 392.73 L405.98 393.31 L405.21 390.26 L406.02 388.97 L409.89 391.34 L410.18 389.47 L412.55 390.16 L415.53 391.69 L417.00 391.35 L417.57 389.84 L417.16 386.95 L418.84 386.89 L418.61 384.13 L418.74 381.82 L420.67 382.13 L421.60 380.96 L422.24 379.32 L423.57 378.73 L424.97 378.28 L426.94 378.77 L428.27 378.25 L430.50 379.28 L430.68 376.76 L431.81 375.88 L431.92 373.09 L430.25 366.81 L432.99 368.86 L433.40 366.38 L433.56 363.30 L437.53 368.11 L438.35 366.41 L439.98 366.47 L442.71 369.05 L444.18 368.85 L445.16 367.49 L445.67 364.92 L447.35 365.21 L447.90 362.59 L448.63 360.30 L450.59 361.38 L451.83 360.46 L452.80 358.70 L454.35 358.67 L455.98 358.88 L457.69 359.45 L459.33 359.82 L461.31 361.49 L462.39 359.96 L463.99 360.36 L465.28 359.58 L465.37 353.66 L467.16 354.78 L468.64 354.59 L469.26 350.20 L471.38 353.08 L472.92 353.18 L474.52 353.66 L476.37 355.79 L477.94 356.35 L479.34 355.90 L480.36 352.49 L481.95 353.24 L483.12 350.45 L484.32 347.42 L486.01 348.99 L487.51 348.71 L488.90 346.90 L490.46 347.28 L492.00 347.44 L493.56 348.24 L495.12 349.27 L496.65 350.26 L498.10 347.01 L499.63 344.03 L501.20 342.60 L502.89 336.03 L504.46 338.42 L506.06 338.94 L507.70 338.45 L508.94 345.03 L510.55 344.26 L512.08 344.70 L513.31 348.48 L514.77 349.19 L516.27 349.43 L517.96 348.01 L519.28 349.75 L521.08 347.75 L523.39 342.68 L524.55 345.54 L525.93 346.74 L527.88 344.70 L529.19 346.22 L530.95 345.40 L532.71 344.70 L534.82 342.53 L536.97 340.40 L538.61 340.57 L539.62 343.27 L541.26 343.41 L543.15 342.64 L544.42 344.11 L546.09 344.20 L548.78 340.97 L550.09 342.32 L551.51 343.30 L553.20 343.46 L553.23 348.36 L554.10 350.69 L556.04 350.02 L557.85 349.78 L558.42 352.72 L560.71 351.29 L563.83 348.02 L563.50 352.93 L564.59 354.42 L567.49 351.90 L567.81 355.05 L569.52 355.19 L572.36 353.07 L572.74 355.94 L573.92 357.19 L576.44 355.86 L577.38 357.54 L578.44 358.99 L582.82 354.55 L583.43 356.83 L584.17 358.82 L586.41 358.31 L586.42 361.42 L587.41 362.91 L588.91 363.58 L589.67 365.38 L590.27 367.38 L591.26 368.76 L593.26 368.70 L594.44 369.82 L596.46 369.79 L600.23 367.50 L601.02 369.19 L601.91 370.73 L604.21 370.50 L604.59 372.66 L606.68 372.73 L607.34 374.51 L608.89 375.24 L610.08 376.40 L611.28 377.54 L611.99 379.21 L612.44 381.13 L616.11 379.68 L616.58 381.59 L615.85 384.66 L619.19 383.68 L621.08 384.18 L619.59 387.88 L623.31 386.69 L625.23 387.21 L624.21 390.36 L626.46 390.60 L629.66 390.08 L627.79 393.85 L631.33 393.10 L635.00 392.35 L633.51 395.70 L635.29 396.47 L638.08 396.51 L638.06 398.66 L639.58 399.68 L641.25 400.61 L640.59 403.16 L640.06 405.58 L642.14 406.22 L642.16 408.24 L642.19 410.22 L648.24 408.46 L648.38 410.41 L648.55 412.33 L652.32 412.14 L650.69 415.08 L650.76 417.02 L651.95 418.33 L651.31 420.61 L651.13 422.63 L652.00 424.09 L654.57 424.73 L654.48 426.67 L656.18 427.77 L661.19 427.40 L659.67 430.00 L658.78 432.27 L659.62 433.79 L659.90 435.54 L662.85 436.24 L661.19 438.74 L662.91 439.94 L665.05 441.02 L664.77 442.97 L665.12 444.70 L664.37 446.77 L668.05 447.43 L667.07 449.56 L665.66 451.79 L668.94 452.66 L669.92 454.22 L668.37 456.44 L671.83 457.37 L673.74 458.74 L670.81 461.23 L671.92 462.78 L675.35 463.87 L673.24 466.11 L675.47 467.49 L679.51 468.60 L676.23 470.98 L674.73 473.02 L678.47 474.27 L676.97 476.29 L676.34 478.17 L680.64 479.47 L679.33 481.43 L677.68 483.39 L678.56 485.11 L678.16 486.94 L676.85 488.81 L682.85 490.27 L682.67 492.11 L682.51 493.94 L687.38 495.65 L682.95 497.59 L682.57 499.42 L684.01 501.25 L680.68 503.04 L678.93 504.80 L678.03 506.56 L678.95 508.38 L678.41 510.15 L679.48 512.01 L683.31 514.11 L682.76 515.91 L681.93 517.67 L683.49 519.67 L682.23 521.38 L683.57 523.41 L681.78 525.03 L681.86 526.89 L682.19 528.81 L680.70 530.43 L680.63 532.28 L678.83 533.80 L682.52 536.39 L682.11 538.21 L678.33 539.28 L680.74 541.71 L683.71 544.34 L679.32 545.18 L680.81 547.48 L682.72 549.94 L679.06 550.87 L677.93 552.48 L679.88 555.02 L677.46 556.22 L678.19 558.42 L681.78 561.62 L679.59 562.88 L678.68 564.58 L679.98 567.09 L678.51 568.59 L677.18 570.11 L678.19 572.58 L675.59 573.58 L672.61 574.37 L672.17 576.23 L670.76 577.66 L668.32 578.59 L671.43 582.14 L671.40 584.24 L669.95 585.65 L672.56 589.14 L669.72 589.83 L667.96 591.06 L668.13 593.34 L664.62 593.56 L662.24 594.37 L660.87 595.73 L661.77 598.47 L659.79 599.47 L659.25 601.36 L660.75 604.59 L659.46 606.03 L657.53 607.04 L656.09 608.36 L654.42 609.50 L655.37 612.52 L653.42 613.47 L652.67 615.30 L652.80 617.81 L652.48 620.01 L652.14 622.23 L648.93 622.12 L649.25 624.90 L648.62 626.93 L645.51 626.80 L643.64 627.72 L645.35 631.87 L642.38 631.79 L640.42 632.62 L642.32 637.13 L638.20 635.85 L636.34 636.73 L638.37 641.56 L635.42 641.35 L634.41 643.13 L636.70 648.52 L632.97 647.40 L629.71 646.71 L629.99 650.02 L627.86 650.58 L625.78 651.17 L626.30 654.92 L623.91 655.13 L621.40 655.14 L619.79 656.29 L618.66 658.05 L615.69 657.35 L616.38 661.65 L615.78 664.26 L612.96 663.71 L612.40 666.43 L610.73 667.54 L607.73 666.60 L606.54 668.44 L604.66 669.20 L601.76 668.24 L599.52 668.32 L598.51 670.48 L596.70 671.28 L595.68 673.50 L595.59 677.51 L594.21 679.21 L591.96 679.27 L591.25 682.35 L588.51 681.39 L587.55 684.07 L585.11 683.65 L583.38 684.73 L581.88 686.37 L579.47 685.90 L578.15 688.00 L575.27 686.29 L574.42 689.63 L573.21 692.16 L569.86 689.04 L568.34 690.79 L567.84 695.51 L564.45 691.91 L562.92 693.76 L562.10 697.95 L558.99 694.86 L556.99 695.26 L555.84 698.67 L553.33 697.31 L551.42 698.07 L550.75 703.85 L548.34 702.83 L545.98 701.85 L544.33 703.99 L542.24 704.19 L540.08 704.00 L538.31 705.89 L536.00 704.82 L533.59 703.00 L531.60 703.59 L529.76 705.24 L527.42 703.45 L525.85 707.43 L523.97 709.42 L521.66 707.60 L519.80 710.01 L517.65 709.67 L515.38 707.48 L513.35 708.34 L511.23 707.81 L509.05 705.67 L506.96 704.78 L504.96 706.88 L502.90 707.62 L500.82 706.92 L498.74 710.14 L496.61 711.54 L494.56 708.90 L492.46 709.31 L490.42 708.06 L488.19 710.63 L486.14 709.62 L484.10 708.78 L481.79 711.21 L479.76 710.11 L477.54 711.09 L475.76 707.97 L473.47 709.41 L471.06 711.45 L469.62 706.59 L467.29 707.95 L464.60 711.25 L463.09 707.50 L460.75 708.57 L457.76 712.71 L456.50 708.16 L454.53 707.23 L451.91 709.13 L450.38 706.30 L448.04 706.93 L444.99 710.14 L443.73 706.51 L441.83 705.38 L439.27 706.50 L437.15 706.10 L435.58 703.91 L432.56 706.25 L430.36 706.00 L429.18 702.77 L427.06 702.30 L424.14 704.01 L423.22 700.32 L420.38 701.66 L417.04 704.13 L416.62 699.42 L413.73 700.67 L412.16 698.82 L411.51 694.98 L408.52 696.34 L406.64 695.25 L405.88 691.89 L404.40 690.06 L400.99 692.04 L399.33 690.55 L397.18 690.00 L393.29 692.56 L390.86 692.39 L390.15 689.20 L386.91 690.38 L384.65 689.83 L382.98 688.31 L379.54 689.59 L377.04 689.31 L374.52 689.03 L373.08 687.11 L372.20 684.42 L371.39 681.68 L369.19 680.92 L365.62 682.00 L364.49 679.73 L361.45 680.00 L359.01 679.42 L357.77 677.32 L356.04 675.85 L354.39 674.28 L353.56 671.75 L351.40 670.80 L348.77 670.35 L347.39 668.47 L345.69 666.97 L342.96 666.55 L341.67 664.59 L340.68 662.34 L338.75 661.05 L336.58 659.98 L335.51 657.84 L333.84 656.28 L331.77 655.09 L330.60 653.06 L328.83 651.58 L326.82 650.30 L326.39 647.65 L323.86 646.80 L322.01 645.35 L322.58 641.94 L318.25 642.45 L318.12 639.65 L319.57 635.68 L315.83 635.63 L317.08 631.91 L318.58 628.09 L317.76 625.96 L312.59 626.78 L311.65 624.69 L310.77 622.57 L304.69 623.75 L301.95 622.73 L304.35 618.55 L302.77 616.83 L303.05 614.02 L301.09 612.52 L299.78 610.63 L300.01 607.90 L296.49 607.19 L296.07 604.82 L293.90 603.34 L295.47 600.01 L292.91 598.71 L287.15 598.85 L290.62 594.71 L291.05 592.00 L286.38 591.52 L286.31 589.04 L287.75 585.95 L282.52 585.55 L283.76 582.58 L284.13 579.97 L280.88 578.69 L280.50 576.36 L280.69 573.84 L275.52 573.09 L275.00 570.78 L277.94 567.42 L276.25 565.50 L273.78 563.77 L275.70 560.82 L272.94 559.13 L270.91 557.22 L272.92 554.32 L272.82 551.94 L269.78 550.22 L272.02 547.35 L269.20 545.53 L264.78 543.96 L266.70 541.20 L264.31 539.19 L264.10 536.81 L266.23 534.08 L264.93 531.88 L264.20 529.58 L267.39 526.82 L268.00 524.40 L265.33 522.31 L265.35 519.94 L265.47 517.57 L261.53 515.47 L258.39 513.25 L262.19 510.66 L262.11 508.28 L263.19 505.87 L262.51 503.51 L261.30 501.14 L263.43 498.76 L260.78 496.36 L260.87 493.97 L258.55 491.49 L259.71 489.13 L258.78 486.67 L254.75 483.98 L257.81 481.75 L260.89 479.57 L259.72 477.05 L260.33 474.69 L263.57 472.64 L259.43 469.72 L261.24 467.52 L263.28 465.38 L261.26 462.64 L261.56 460.24 L263.18 458.07 L259.61 454.96 L259.35 452.41 L263.62 450.80 L263.74 448.35 L261.86 445.44 L265.24 443.74 L264.18 440.99 L262.57 438.05 L265.87 436.41 L267.03 434.21 L265.54 431.25 L269.08 429.77 L269.01 427.22 L265.02 423.38 L268.39 421.90 L267.79 419.11 L267.75 416.48 L269.92 414.65 L270.24 412.15 L270.73 409.70 L274.35 408.50 L276.25 406.66 L276.34 404.06 L277.66 401.98 L278.45 399.67 L276.62 396.14 L274.48 392.39 L277.76 391.21 L278.35 388.74 L278.84 386.20 L280.28 384.15 L280.45 381.42 L282.80 379.86 L282.77 377.00 L284.64 375.20 L285.18 372.62 L288.92 371.97 L289.50 369.42 L287.07 364.95 L292.02 365.15 L294.83 364.04 L291.79 359.01 L294.68 357.96 L298.13 357.34 L295.16 352.14 L298.38 351.38 L301.47 350.57 L301.28 347.29 L302.32 344.92 L305.05 343.89 L304.04 339.84 L303.94 336.45 L307.20 335.88 L308.36 333.53 L309.23 330.91 L312.15 330.12 L313.05 327.50 L314.66 325.52 L318.20 325.40 L320.62 324.24 L320.66 320.72 L323.77 320.27 L324.99 317.91 L322.89 311.99 L326.51 312.11 L327.82 309.74 L329.15 307.37 L332.85 307.71 L334.67 305.91 L336.64 304.30 L340.02 304.40 L342.22 303.11 L343.61 300.79 L344.61 297.94 L347.32 297.31 L347.52 293.30 L347.11 288.35 L351.67 290.28 L354.25 289.49 L356.15 287.73 L358.47 286.59 L359.58 283.58 L362.92 284.04 L364.10 281.08 L366.23 279.63 L367.94 277.46 L371.53 278.49 L373.70 277.14 L374.14 272.63 L378.42 275.08 L380.93 274.36 L381.38 269.67 L384.40 269.91 L386.97 269.30 L387.42 264.29 L390.26 264.20 L393.65 265.38 L395.17 262.45 L396.94 259.98 L400.17 260.95 L401.34 256.94 L402.93 253.80 L406.79 256.50 L409.43 256.11 L410.81 252.25 L414.18 253.93 L416.46 252.55 L418.08 249.09 L421.27 250.41 L424.18 251.00 L426.05 248.12 L429.04 249.04 L431.49 248.14 L432.55 241.85 L435.65 243.24 L438.12 242.22 L440.37 240.13 L443.52 242.05 L446.17 241.83 L448.63 240.69 L451.61 242.25 L454.39 242.90 L457.04 242.94 L459.62 242.52 L462.14 241.78 L464.48 239.58 L466.51 234.74 L469.36 236.05 L472.00 235.79 L474.46 233.60 L477.30 235.34 L479.82 233.49 L482.62 235.41 L485.19 233.75 L487.87 234.06 L490.51 233.25 L493.21 234.72 L495.87 235.14 L498.50 230.21 L501.18 233.10 L503.81 235.60 L506.57 231.02 L509.25 231.45 L511.78 235.06 L514.67 230.78 L517.35 231.01 L519.84 233.98 L522.63 232.63 L525.48 230.94 L527.90 233.82 L530.86 231.47 L533.96 228.48 L536.38 230.97 L539.07 231.38 L542.03 229.97 L544.49 231.87 L547.28 231.70 L550.05 231.69 L552.27 234.56 L554.72 236.07 L557.71 234.99 L560.08 236.79 L562.63 237.76 L566.66 232.72 L568.93 234.94 L571.66 235.34 L574.86 234.08 L576.43 238.57 L579.06 239.29 L581.70 239.97 L583.44 243.43 L585.79 244.90 L588.43 245.50 L591.79 244.11 L594.31 245.14 L597.28 244.97 L601.36 242.07 L603.20 244.89 L605.99 245.36 L608.81 245.78 L611.47 246.61 L613.68 248.44 L616.05 249.88 L618.98 250.15 L621.84 250.60 L624.55 251.39 L626.96 252.78 L629.95 253.05 L631.84 255.44 L634.55 256.28 L637.18 257.28 L640.05 257.88 L643.24 257.99 L646.47 258.09 L649.74 258.18 L652.43 259.25 L655.34 259.99 L658.46 260.46 L660.59 262.44 L663.22 263.67 L666.15 264.50 L667.97 266.90 L669.96 269.05 L672.48 270.47 L674.23 272.91 L676.50 274.64 L678.44 276.80 L680.24 279.12 L682.90 280.38 L684.28 283.17 L686.81 284.60 L688.98 286.44 L689.61 290.01 L692.99 290.51 L693.91 293.69 L695.50 296.12 L700.54 295.01 L699.84 299.77 L702.15 301.46 L705.29 302.38 L703.82 307.68 L706.07 309.42 L707.45 311.95 L709.16 314.18 L711.45 315.89 L714.42 317.05 L718.90 316.98 L719.38 320.27 L722.16 321.68 L728.05 320.67 L730.73 322.27 L733.08 324.14 L738.89 323.48 L743.20 324.02 L743.84 327.25 L747.91 328.07 L748.69 331.18 L749.11 334.52 L752.69 335.76 L753.41 338.87 L753.99 342.04 L757.24 343.57 L757.39 346.98 L757.83 350.19 L761.07 351.78 L761.28 355.09 L762.74 357.70 L765.34 359.70 L766.13 362.67 L767.18 365.50 L769.38 367.75 L769.81 370.87 L770.87 373.68 L772.85 376.06 L773.78 378.93 L774.63 381.82 L775.89 384.53 L776.88 387.36 L777.49 390.33 L778.95 392.97 L779.20 396.07 L779.82 399.01 L781.31 401.64 L782.06 404.53 L782.32 407.58 L784.28 410.07 L784.73 413.05 L784.73 416.16 L785.71 418.97 L785.46 422.11 L783.02 425.81 L783.48 428.71 L783.87 431.62 L782.85 434.85 L784.57 437.45 L785.74 440.18 L788.71 442.56 L788.24 445.65 L789.24 448.45 L793.77 450.67 L794.75 453.53 L795.49 456.44 L797.75 459.14 L800.27 461.85 L799.97 464.93 L797.50 468.24 L799.98 471.00 L798.33 474.17 L795.02 477.43 L798.83 480.14 L799.54 483.10 L798.20 486.16 L799.15 489.12 L801.70 492.04 L800.59 495.08 L799.15 498.09 L797.82 501.08 L797.75 504.06 L799.09 507.07 L799.46 510.07 L800.26 513.11 L803.55 516.29 L801.72 519.22 L799.71 522.11 L799.81 525.13 L798.25 528.01 L797.26 530.92 L797.35 533.93 L796.71 536.87 L796.51 539.86 L795.97 542.81 L797.03 545.99 L795.04 548.71 L796.21 551.95 L796.78 555.12 L794.07 557.66 L797.12 561.35 L794.73 563.94 L792.82 566.60 L793.55 569.86 L790.55 572.22 L788.92 574.89 L787.68 577.65 L786.53 580.42 L786.81 583.60 L787.16 586.83 L788.75 590.47 L787.29 593.18 L786.74 596.18 L790.01 600.51 L790.88 604.08 L790.34 607.18 L792.26 611.22 L793.76 615.17 L791.51 617.66 L790.59 620.68 L787.89 622.95 L786.96 625.96 L785.24 628.63 L782.25 630.69 L781.74 633.89 L779.81 636.42 L777.49 638.74 L776.07 641.50 L774.01 643.92 L771.58 646.12 L767.99 647.67 L765.71 649.90 L765.81 653.48 L765.98 657.14 L765.50 660.46 L766.95 665.00 L766.96 668.73 L764.78 671.08 L761.14 672.45 L758.36 674.35 L755.42 676.11 L752.69 677.98 L749.54 679.52 L747.33 681.71 L746.20 684.70 L745.88 688.33 L742.75 689.82 L741.98 693.15 L741.51 696.76 L737.40 697.39 L737.69 701.68 L734.58 703.11 L731.57 704.59 L731.37 708.58 L727.58 709.32 L724.91 711.06 L723.00 713.49 L720.46 715.34 L719.32 718.55 L716.98 720.58 L717.10 725.16 L714.58 727.05 L711.69 728.52 L712.42 733.96 L710.68 736.76 L708.00 738.51 L706.77 741.95 L705.76 745.69 L703.06 747.46 L698.71 747.15 L697.23 750.40 L694.31 751.84 L689.46 750.69 L688.38 754.51 L686.29 757.03 L682.98 757.84 L680.50 759.83 L679.17 763.50 L676.47 765.19 L672.84 765.45 L669.32 765.82 L667.14 768.28 L664.81 770.53 L662.84 773.42 L660.90 776.41 L659.08 779.68 L656.60 781.83 L653.52 782.91 L649.82 782.80 L646.44 783.24 L643.40 784.29 L640.28 785.17 L637.25 786.20 L634.31 787.40 L631.40 788.66 L629.23 791.59 L625.65 791.34 L623.10 793.46 L621.08 796.94 L617.06 795.50 L615.08 799.20 L611.95 800.00 L608.17 798.97 L606.08 802.61 L602.22 801.22 L598.66 800.57 L595.63 801.46 L592.44 801.87 L589.88 804.34 L586.98 805.74 L584.53 808.82 L581.59 810.25 L578.35 810.50 L576.25 815.45 L573.62 818.49 L570.52 819.63 L567.92 823.12 L565.36 827.17 L561.92 826.96 L558.67 827.68 L555.13 826.72 L551.96 827.89 L548.68 828.38 L545.23 827.69 L542.08 829.15 L538.78 829.44 L535.29 828.01 L532.04 828.73 L528.78 829.29 L525.34 827.75 L522.01 827.22 L518.74 827.51 L515.48 827.88 L512.25 829.45 L508.98 830.36 L505.69 831.62 L502.39 833.52 L499.05 833.95 L495.74 831.94 L492.42 831.99 L489.13 831.05 L485.90 828.97 L482.57 829.59 L479.36 828.12 L476.12 827.35 L472.65 829.43 L469.55 827.02 L466.21 827.43 L462.63 829.76 L459.84 825.29 L456.26 827.31 L453.01 826.73 L450.13 823.79 L446.30 826.86 L443.33 824.62 L440.51 821.76 L437.09 822.17 L433.90 821.39 L430.64 820.95 L427.47 820.08 L423.77 821.46 L420.42 821.26 L417.82 818.08 L414.57 817.52 L411.86 815.01 L408.11 816.20 L405.07 814.86 L402.23 812.94 L398.23 814.64 L395.40 812.66 L391.89 812.73 L389.73 808.95 L385.93 809.76 L381.19 812.94 L379.78 807.36 L377.09 805.22 L372.54 807.61 L369.93 805.23 L367.28 803.01 L362.21 806.22 L360.84 801.18 L357.80 799.85 L353.78 800.52 L351.67 797.27 L348.91 795.36 L343.53 798.47 L341.12 795.85 L339.80 791.28 L336.23 790.84 L332.69 790.30 L331.08 786.43 L326.93 786.88 L323.63 785.85 L322.09 781.99 L319.42 779.98 L315.28 780.20 L313.89 776.27 L309.46 776.83 L304.73 777.71 L303.39 773.75 L298.92 774.15 L296.71 771.44 L295.62 767.27 L292.12 766.29 L289.44 764.24 L288.93 759.51 L287.08 756.50 L282.96 756.21 L280.87 753.49 L278.10 751.56 L273.22 751.96 L269.35 751.17 L268.70 746.88 L265.47 745.36 L263.46 742.57 L260.59 740.64 L257.88 738.54 L256.08 735.56 L252.78 734.01 L251.55 730.51 L248.36 728.83 L248.23 724.39 L244.72 722.98 L238.74 723.64 L240.48 717.69 L239.06 714.47 L232.87 715.12 L232.83 710.78 L231.75 707.31 L225.20 708.02 L226.05 703.10 L225.00 699.65 L220.94 698.37 L219.33 695.31 L218.24 691.92 L212.36 691.74 L210.03 689.14 L210.07 685.00 L206.95 682.90 L204.68 680.24 L203.98 676.62 L201.09 674.32 L199.60 671.19 L200.21 666.89 L198.96 663.67 L195.11 661.83 L196.03 657.46 L192.28 655.52 L187.13 654.22 L187.70 650.07 L184.36 647.81 L183.08 644.56 L183.91 640.38 L181.94 637.47 L180.62 634.26 L182.23 629.86 L181.46 626.48 L178.49 623.95 L176.88 620.87 L175.83 617.58 L171.36 615.50 L167.18 613.24 L169.97 608.62 L169.05 605.27 L168.89 601.69 L167.20 598.57 L165.02 595.59 L166.05 591.69 L162.88 588.95 L162.01 585.57 L160.37 582.38 L162.15 578.38 L160.76 575.14 L156.38 572.51 L160.23 568.16 L159.69 564.73 L156.06 561.86 L157.08 558.15 L156.66 554.69 L151.60 551.93 L153.17 548.16 L154.26 544.49 L151.30 541.33 L150.85 537.84 L151.71 534.23 L147.56 531.08 L146.85 527.59 L150.16 523.81 L149.40 520.34 L146.81 516.95 L149.20 513.32 L147.19 509.87 L144.98 506.38 L147.75 502.81 L148.23 499.28 L145.91 495.74 L148.37 492.25 L146.91 488.68 L142.16 484.95 L144.82 481.50 L143.44 477.85 L143.45 474.27 L146.19 470.91 L145.87 467.31 L145.84 463.74 L149.07 460.52 L150.54 457.14 L150.06 453.52 L150.68 450.05 L151.09 446.54 L149.02 442.63 L145.44 438.39 L149.29 435.44 L149.25 431.80 L149.09 428.12 L150.12 424.68 L149.40 420.85 L152.15 417.81 L151.36 413.93 L152.96 410.63 L153.56 407.08 L156.70 404.23 L157.71 400.82 L154.40 396.10 L158.78 393.69 L161.84 390.92 L158.37 386.01 L160.57 382.97 L163.96 380.36 L160.14 375.16 L163.35 372.50 L166.49 369.86 L165.91 365.77 L166.62 362.17 L169.45 359.45 L167.76 354.79 L167.15 350.54 L170.63 348.13 L171.45 344.51 L172.01 340.74 L175.23 338.27 L175.85 334.51 L177.25 331.14 L181.32 329.19 L183.90 326.48 L183.39 322.06 L187.09 319.99 L188.60 316.69 L185.62 310.68 L190.07 309.11 L191.50 305.71 L192.60 302.08 L197.82 301.14 L199.25 297.74 L201.66 295.00 L205.39 293.20 L207.36 290.18 L208.32 286.42 L208.88 282.32 L211.95 280.10 L211.97 275.52 L211.55 270.52 L215.95 269.34 L219.38 267.43 L221.73 264.64 L224.30 262.05 L225.12 257.92 L229.13 256.60 L230.26 252.69 L232.10 249.41 L233.33 245.51 L237.83 244.74 L240.51 242.25 L239.49 236.01 L244.32 235.67 L248.79 235.04 L249.49 230.42 L251.20 226.84 L256.38 227.09 L257.06 222.32 L259.53 219.53 L263.88 218.96 L265.50 215.15 L267.55 211.82 L271.75 211.17 L272.73 206.42 L274.24 202.26 L279.54 203.13 L282.76 201.27 L283.88 196.47 L288.45 196.52 L291.09 193.82 L292.59 189.39 L296.99 189.31 L300.80 188.36 L302.80 184.59 L306.83 184.05 L309.88 181.94 L310.11 174.99 L314.46 175.01 L317.54 172.86 L320.07 169.67 L324.59 170.16 L328.06 168.73 L331.13 166.54 L335.38 166.70 L339.17 166.00 L342.63 164.65 L345.76 162.59 L349.17 161.12 L351.81 157.88 L353.36 151.96 L357.77 152.77 L361.20 151.24 L364.03 148.13 L368.15 148.39 L370.97 145.16 L375.21 145.82 L378.39 143.53 L381.99 142.42 L385.52 141.08 L389.66 141.73 L393.38 141.08 L395.62 135.31 L400.05 137.11 L404.31 138.48 L406.77 132.98 L410.54 132.45 L415.01 134.97 L417.71 129.85 L421.41 129.04 L425.68 131.03 L429.09 128.79 L432.45 126.14 L436.63 128.05 L439.94 124.87 L443.20 120.98 L447.29 122.60 L451.08 122.17 L454.64 119.84 L458.60 120.86 L462.32 119.74 L466.08 118.81 L470.08 120.95 L473.96 121.82 L477.63 119.80 L481.50 120.87 L485.30 120.96 L488.92 114.70 L492.80 116.42 L496.64 116.34 L500.48 114.40 L504.30 117.31 L508.12 117.82 L511.95 117.68 L515.69 119.78 L519.46 120.58 L523.28 120.40 L527.19 118.99 L530.98 119.48 L534.91 118.47 L539.30 113.14 L542.70 117.75 L546.38 119.37 L550.35 118.57 L553.83 121.40 L557.97 119.61 L561.41 122.42 L565.37 122.00 L569.39 121.34 L573.21 121.88 L576.84 123.35 L580.31 125.47 L584.88 122.64 L588.06 126.01 L591.37 128.61 L595.91 126.31 L599.63 127.34 L602.97 129.73 L607.61 127.53 L611.57 127.81 L614.38 131.87 L618.37 132.04 L622.93 130.59 L625.65 134.65 L630.05 133.79 L634.94 131.76 L637.41 136.32 L640.43 139.26 L645.27 137.59 L648.17 140.81 L651.67 142.50 L656.67 140.75 L659.35 144.36 L662.31 147.25 L666.45 147.58 L669.62 149.97 L672.76 152.39 L679.04 148.61 L681.97 151.52 L685.11 153.99 L689.78 153.63 L691.86 158.00 L694.89 160.60 L698.61 161.99 L701.21 165.28 L703.66 168.74 L706.63 171.33 L710.43 172.59 L713.56 174.92 L717.74 175.67 L723.62 174.00 L725.97 177.54 L728.99 180.08 L733.27 180.89 L735.30 184.78 L739.60 185.63 L741.53 189.59 L745.00 191.55 L748.58 193.38 L751.11 196.52 L754.04 199.15 L755.97 202.94 L761.90 202.14 L764.36 205.34 L764.90 210.60 L769.96 210.94 L774.07 212.36 L774.09 218.03 L779.17 218.49 L783.11 220.18 L783.45 225.39 L786.64 227.81 L791.49 228.69 L792.27 233.37 L796.18 235.18 L802.15 235.23 L803.20 239.63 L805.22 243.15 L809.57 244.73 L811.11 248.64 L813.67 251.72 L817.01 254.19 L817.98 258.49 L819.12 262.62 L822.14 265.34 L824.41 268.62 L825.54 272.69 L832.90 272.47 L834.73 276.10 L836.73 279.60 L842.26 280.84 L840.71 286.60 L842.40 290.28 L845.69 292.99 L844.70 298.24 L845.67 302.29 L848.72 305.15 L855.42 306.04 L858.79 308.83 L863.78 310.81 L872.68 310.90 L874.38 314.72 L875.56 318.79 L876.93 322.75 L877.31 327.16 L878.54 331.16 L879.20 335.39 L879.69 339.67 L882.00 343.18 L881.44 347.84 L882.53 351.83 L885.08 355.25 L886.05 359.27 L886.44 363.50 L889.37 366.82 L892.66 370.07 L896.25 373.26 L898.89 376.80 L902.34 380.13 L906.90 383.19 L909.95 386.74 L912.26 390.53 L914.30 394.41 L916.10 398.37 L916.84 402.60 L917.80 406.77 L918.67 410.96 L918.84 415.29 L919.63 419.49 L921.07 423.57 L920.78 427.96 L921.18 432.22 L921.50 436.49 L921.03 440.86 L921.36 445.10 L922.58 449.24 L922.58 453.52 L923.21 457.73 L924.78 461.86 L926.17 466.02 L926.76 470.27 L929.65 474.38 L931.63 478.59 L933.10 482.86 L935.45 487.13 L935.99 491.47 L937.90 495.82 L944.19 500.00 L944.73 495.55 L946.00 491.08 L946.11 486.61 L947.88 482.08 L948.64 477.55 L949.90 472.97 L951.85 468.32 L951.29 463.82 L951.71 459.24 L951.93 454.66 L951.14 450.17 L949.94 445.75 L949.54 441.23 L948.22 436.84 L946.10 432.58 L944.75 428.23 L943.44 423.88 L941.33 419.69 L940.97 415.19 L939.49 410.91 L937.43 406.76 L936.10 402.48 L934.41 398.29 L932.85 394.07 L932.24 389.63 L931.88 385.11 L932.14 380.40 L932.85 375.53 L933.77 370.56 L934.79 365.50 L934.43 360.84 L934.86 355.89 L935.93 350.68 L935.45 345.96 L933.50 341.76 L932.60 337.17 L931.22 332.75 L928.60 328.81 L926.96 324.50 L923.75 320.84 L921.69 316.72 L918.58 313.07 L915.84 309.29 L912.79 305.67 L909.41 302.23 L906.69 298.51 L903.29 295.14 L906.36 288.44 L905.62 283.65 L902.90 279.90 L902.62 274.79 L898.77 271.68 L892.13 270.24 L887.35 267.81 L884.09 264.51 L880.63 261.36 L881.14 255.70 L881.23 250.23 L879.32 246.03 L877.58 241.68 L879.95 234.45 L875.95 231.60 L871.71 228.98 L868.63 225.54 L863.61 223.58 L858.14 222.04 L856.63 217.46 L853.92 213.79 L850.11 211.04 L849.67 205.48 L846.09 202.52 L841.09 200.84 L841.52 194.36 L839.50 190.01 L833.93 188.91 L831.89 184.56 L828.65 181.32 L822.32 181.14 L820.46 176.58 L819.40 171.14 L813.29 170.90 L811.55 166.10 L810.12 160.91 L803.77 161.10 L799.48 159.09 L798.90 152.81 L794.35 151.10 L790.39 148.72 L786.11 146.77 L782.96 143.42 L778.95 141.17 L772.38 142.30 L767.70 141.04 L764.67 137.60 L759.71 136.82 L755.16 135.54 L753.98 129.39 L752.09 124.15 L749.80 119.39 L745.26 118.04 L741.02 116.24 L735.60 116.41 L728.36 119.72 L724.24 117.98 L720.22 116.10 L715.26 115.89 L713.50 109.94 L710.84 105.47 L706.98 103.20 L703.25 100.66 L701.96 93.19 L697.39 92.21 L692.42 92.11 L688.19 90.52 L682.99 91.12 L677.64 92.18 L675.02 86.96 L670.75 85.55 L665.91 85.56 L663.27 80.04 L658.47 79.99 L652.90 82.16 L649.97 77.12 L646.35 73.84 L641.01 75.62 L637.13 73.08 L633.01 71.22 L627.53 73.89 L623.39 72.18 L620.12 67.30 L615.47 67.34 L611.23 65.82 L607.66 61.56 L602.66 63.12 L597.56 65.34 L593.98 60.81 L589.29 61.29 L584.64 61.77 L580.15 61.53 L576.03 59.17 L571.77 57.54 L566.68 61.19 L562.07 62.04 L557.83 60.42 L553.01 63.31 L548.15 67.15 L543.90 65.99 L539.97 61.03 L535.76 58.37 L531.35 57.90 L527.02 56.17 L522.44 58.70 L517.85 62.81 L513.41 64.58 L509.03 65.90 L504.66 68.72 L500.35 64.72 L495.97 62.10 L491.58 61.45 L487.20 61.69 L482.57 55.50 L478.16 56.39 L473.86 59.06 L469.46 59.46 L465.25 62.17 L461.21 66.31 L456.77 65.68 L452.35 65.40 L448.15 67.07 L443.46 64.85 L439.14 65.63 L435.14 68.52 L430.32 66.03 L425.62 64.63 L421.86 68.61 L417.45 68.92 L412.93 68.71 L409.40 73.29 L405.18 74.37 L399.97 71.24 L396.48 75.51 L392.16 76.26 L386.76 72.94 L383.48 77.66 L380.22 82.19 L374.59 78.52 L370.61 80.54 L367.18 84.24 L363.24 86.20 L359.05 87.42 L355.06 89.22 L352.15 93.95 L349.14 98.25 L344.58 98.34 L341.15 101.37 L338.29 105.71 L332.80 103.65 L327.37 101.95 L322.01 100.58 L318.27 102.92 L314.62 105.42 L312.28 110.59 L310.96 117.68 L307.87 121.02 L304.10 122.97 L301.68 127.48 L296.04 125.95 L291.21 126.03 L286.90 127.12 L283.35 129.56 L276.42 126.34 L272.68 128.57 L270.57 133.41 L266.86 135.63 L264.31 139.64 L262.85 145.20 L257.60 145.08 L253.66 146.95 L251.71 151.62 L245.85 150.85 L242.56 153.65 L241.89 159.91 L236.79 160.31 L231.67 160.75 L229.95 165.51 L226.94 168.61 L222.66 170.20 L221.55 175.52 L217.94 177.89 L212.97 178.75 L212.08 184.17 L208.30 186.38 L202.94 186.96 L202.11 192.31 L202.02 198.30 L194.94 197.26 L192.19 200.57 L191.01 205.38 L186.81 207.30 L183.15 209.76 L179.58 212.33 L178.68 217.27 L176.14 220.73 L172.40 223.17 L172.61 228.91 L172.15 234.02 L169.82 237.55 L165.59 239.61 L160.87 241.34 L158.90 245.19 L155.03 247.63 L155.20 253.02 L156.34 258.99 L155.47 263.49 L153.80 267.40 L155.89 273.76 L149.61 274.62 L146.40 277.52 L143.08 280.39 L140.62 283.80 L133.49 284.47 L130.62 287.72 L131.07 292.86 L129.23 296.68 L128.73 301.21 L129.63 306.43 L127.97 310.28 L124.90 313.41 L124.24 317.75 L120.58 320.64 L118.02 324.08 L119.05 329.15 L114.99 331.93 L110.19 334.46 L110.75 339.27 L110.02 343.52 L107.11 346.89 L108.27 351.84 L108.79 356.49 L102.69 358.74 L102.84 363.26 L99.80 366.67 L94.85 369.51 L95.83 374.27 L97.41 379.16 L93.46 382.40 L93.20 386.72 L95.36 391.67 L94.48 395.77 L94.57 400.10 L92.92 404.00 L95.06 408.77 L97.84 413.61 L95.87 417.41 L95.66 421.57 L100.19 426.59 L96.56 430.08 L92.26 433.53 L88.17 437.09 L87.50 441.20 L86.90 445.32 L88.78 449.75 L93.19 454.41 L95.28 458.74 L94.43 462.75 L97.21 467.06 L93.91 470.88 L91.37 474.80 L89.16 478.78 L89.81 482.93 L83.88 486.85 L82.48 490.98 L86.01 495.20 L85.71 499.34 L87.48 503.47 L91.41 507.52 L89.47 511.67 L87.65 515.84 L90.47 519.84 L87.39 524.13 L86.15 528.35 L91.12 532.12 L90.85 536.27 L87.15 540.76 L89.77 544.65 L91.43 548.61 L90.59 552.86 L94.19 556.53 L98.95 559.96 L94.24 564.82 L94.93 568.87 L98.05 572.48 L94.14 577.38 L95.19 581.39 L101.40 584.30 L98.23 589.17 L99.10 593.20 L102.65 596.57 L103.10 600.67 L104.43 604.56 L103.04 609.18 L107.23 612.27 L111.68 615.21 L111.66 619.45 L113.69 623.07 L120.84 624.98 L122.19 628.74 L120.39 633.60 L117.60 638.90 L118.55 642.88 L119.06 647.05 L123.00 649.88 L127.41 652.46 L131.48 655.12 L134.05 658.36 L138.83 660.60 L138.15 665.26 L137.98 669.73 L137.58 674.36 L139.94 677.68 L137.21 683.56 L137.31 688.09 L142.33 690.05 L144.10 693.69 L147.31 696.54 L152.64 698.15 L155.33 701.21 L155.77 705.60 L159.10 708.26 L160.14 712.32 L160.69 716.73 L165.26 718.55 L166.82 722.32 L165.32 728.18 L168.68 730.78 L172.48 733.04 L173.53 737.24 L177.52 739.31 L183.48 739.83 L181.26 746.56 L184.60 749.06 L189.13 750.57 L187.34 757.21 L191.08 759.36 L198.48 758.33 L197.02 764.88 L198.89 768.60 L204.09 769.33 L206.20 772.83 L210.46 774.31 L211.89 778.48 L216.59 779.48 L221.98 779.69 L224.04 783.24 L226.99 785.87 L232.18 786.11 L233.21 790.78 L234.85 794.86 L235.07 800.61 L237.66 803.74 L242.01 804.82 L246.74 805.37 L252.61 804.44 L258.07 803.87 L260.96 806.49 L265.50 806.95 L267.56 810.63 L269.23 814.93 L270.85 819.36 L274.37 821.19 L275.03 827.16 L276.85 831.57 L281.96 831.08 L284.89 833.85 L288.94 834.87 L294.08 834.08 L297.01 836.80 L299.48 840.37 L304.10 840.26 L306.79 843.49 L309.33 847.04 L314.76 845.29 L318.68 846.26 L319.84 852.58 L323.65 853.81 L328.07 853.76 L330.81 857.17 L335.15 857.19 L340.28 855.38 L341.93 861.32 L346.39 860.93 L350.49 861.27 L352.52 866.70 L356.75 866.74 L362.52 862.61 L364.44 868.64 L367.52 871.68 L372.43 869.55 L375.78 871.87 L379.91 871.82 L382.81 875.66 L387.10 875.05 L392.20 871.54 L395.72 873.33 L399.53 874.06 L404.78 869.23 L408.78 868.92 L412.15 871.21 L415.54 873.48 L418.98 875.71 L422.50 877.71 L426.16 879.04 L430.02 879.42 L433.81 880.14 L437.58 881.00 L442.13 876.81 L445.95 876.99 L449.80 876.95 L454.08 873.30 L457.60 875.67 L461.23 877.28 L465.16 876.04 L468.87 876.98 L472.55 878.61 L476.36 878.39 L480.24 876.80 L484.00 877.25 L487.81 876.12 L491.58 876.13 L495.35 875.00 L499.11 874.43 L502.85 875.03 L506.60 874.78 L510.38 875.82 L514.12 875.19 L517.91 875.81 L521.64 875.27 L525.43 875.57 L529.15 874.86 L532.68 872.10 L536.54 873.11 L540.27 872.75 L543.77 870.43 L547.54 870.50 L551.24 870.02 L554.84 868.82 L558.46 867.82 L562.30 868.21 L565.66 865.81 L569.54 866.31 L572.75 863.32 L576.11 861.33 L579.69 860.39 L583.09 858.71 L586.66 857.81 L590.64 858.53 L594.63 859.19 L598.81 860.36 L603.21 862.19 L607.50 863.42 L611.63 863.96 L615.45 863.39 L619.30 862.91 L622.71 861.08 L625.86 858.51 L627.93 853.07 L631.04 850.68 L633.97 847.87 L635.75 842.24 L639.71 842.20 L643.66 842.05 L646.67 839.68 L650.32 838.78 L654.47 838.95 L657.84 837.36 L661.08 835.50 L664.00 833.01 L667.50 831.70 L670.53 829.47 L673.46 827.08 L676.42 824.78 L679.63 822.94 L682.56 820.62 L686.20 819.54 L689.12 817.22 L692.80 816.16 L696.00 814.29 L698.86 811.88 L701.35 808.93 L704.32 806.74 L707.35 804.64 L709.18 800.81 L710.86 796.85 L714.48 795.65 L717.17 793.15 L717.21 787.15 L722.09 787.58 L725.38 785.88 L726.40 781.34 L731.21 781.51 L732.98 777.95 L734.50 774.14 L737.44 772.02 L739.58 769.01 L742.26 766.60 L745.53 764.82 L748.74 762.97 L753.30 762.48 L757.32 761.36 L760.79 759.64 L764.03 757.66 L766.75 755.16 L769.39 752.57 L770.69 748.75 L773.16 746.03 L773.04 741.02 L774.46 737.43 L776.88 734.72 L775.68 729.01 L779.23 727.28 L783.15 725.80 L784.67 722.39 L787.18 719.76 L791.50 718.48 L794.90 716.46 L796.43 713.05 L797.33 709.22 L799.18 706.08 L800.69 702.72 L800.44 698.21 L801.34 694.51 L803.01 691.32 L805.05 688.37 L808.64 686.34 L810.24 683.10 L813.24 680.68 L815.21 677.64 L816.28 674.09 L816.85 670.30 L817.31 666.48 L818.30 662.96 L819.63 659.63 L819.91 655.79 L821.26 652.49 L822.16 648.99 L823.14 645.54 L824.48 642.26 L826.65 639.33 L826.13 635.27 L828.52 632.43 L828.55 628.64 L827.93 624.63 L829.61 621.51 L829.34 617.68 L830.11 614.25 L833.20 611.60 L835.81 608.75 L839.19 606.11 L843.08 603.57 L846.01 600.69 L849.08 597.81 L850.69 594.49 L852.62 591.24 L852.53 587.46 L852.25 583.66 L849.02 579.22 L848.42 575.42 L848.70 571.84 L843.95 567.28 L845.98 564.10 L848.30 560.93 L847.67 557.24 L848.41 553.79 L851.04 550.61 L850.81 547.00 L851.23 543.49 L850.76 539.87 L852.98 536.55 L852.22 532.92 L853.16 529.45 L854.10 525.96 L852.30 522.29 L854.69 518.88 L853.81 515.29 L853.23 511.73 L853.51 508.20 L853.06 504.66 L851.85 501.12 L850.85 497.61 L850.46 494.11 L848.71 490.65 L846.69 487.23 L844.28 483.87 L843.77 480.45 L844.33 476.96 L839.87 473.84 L842.27 470.21 L844.54 466.54 L840.54 463.49 L842.52 459.81 L842.06 456.39 L838.97 453.33 L838.99 449.87 L837.15 446.69 L836.45 443.35 L836.70 439.84 L834.82 436.71 L835.73 433.06 L834.22 429.88 L833.79 426.47 L834.97 422.69 L835.61 419.00 L838.02 414.84 L837.38 411.40 L837.74 407.68 L835.22 404.76 L832.67 401.88 L828.92 399.40 L826.24 396.64 L824.30 393.68 L821.98 390.86 L820.63 387.73 L818.58 384.86 L817.62 381.60 L816.44 378.42 L815.06 375.32 L813.92 372.13 L812.05 369.24 L811.07 365.98 L808.86 363.25 L806.51 360.61 L806.35 356.97 L803.27 354.69 L801.10 352.02 L800.04 348.79 L797.70 346.22 L795.66 343.50 L795.30 339.89 L793.40 337.11 L790.17 335.09 L790.79 330.86 L787.50 328.90 L784.41 326.87 L784.37 322.97 L781.56 320.79 L778.95 318.51 L778.44 314.85 L775.43 312.86 L772.67 310.72 L771.98 307.13 L768.57 305.49 L766.02 303.25 L764.04 300.60 L760.18 299.40 L759.17 296.01 L757.52 293.11 L755.54 290.46 L755.82 285.91 L756.01 281.36 L754.92 277.85 L755.03 273.23 L754.13 269.43 L753.37 265.46 L750.76 263.18 L747.84 261.20 L743.20 260.94 L738.55 260.77 L736.22 258.33 L729.75 260.19 L727.48 257.76 L724.80 255.76 L720.32 255.78 L719.84 251.35 L715.95 250.77 L714.03 247.94 L712.79 244.26 L709.80 242.66 L708.49 238.99 L706.10 236.62 L703.42 234.62 L700.78 232.56 L698.06 230.62 L694.79 229.44 L691.34 228.54 L688.89 226.24 L685.78 224.90 L682.92 223.22 L680.49 220.86 L677.87 218.79 L675.30 216.62 L672.10 215.46 L669.17 213.89 L666.57 211.75 L663.67 210.11 L661.40 207.33 L658.13 206.36 L655.63 203.95 L653.38 201.00 L650.02 200.20 L647.19 198.36 L644.47 196.27 L641.47 194.75 L638.09 194.05 L634.62 193.61 L631.30 192.86 L627.38 193.60 L623.89 193.37 L620.71 192.41 L618.27 189.54 L615.98 186.16 L612.31 186.48 L610.04 182.85 L607.42 180.13 L602.95 182.96 L599.62 182.44 L596.24 182.13 L592.30 183.78 L589.64 181.05 L586.41 180.32 L583.23 179.38 L579.88 179.11 L577.89 173.23 L574.38 173.51 L570.56 175.31 L567.33 174.50 L563.59 176.29 L559.73 179.03 L556.66 177.60 L553.53 176.49 L550.00 177.85 L547.18 174.60 L543.92 174.18 L540.31 176.57 L537.49 172.54 L534.46 169.83 L530.85 172.72 L527.62 171.86 L524.42 170.51 L520.89 173.99 L517.62 173.98 L514.54 169.61 L511.12 172.87 L507.85 172.54 L504.64 167.83 L501.31 171.48 L498.04 175.08 L494.71 169.92 L491.43 170.68 L488.21 172.77 L484.95 173.23 L481.70 173.67 L478.42 173.63 L475.44 177.54 L472.52 181.28 L469.21 180.34 L466.20 182.36 L463.61 187.73 L460.17 185.61 L456.35 181.08 L452.76 178.81 L449.72 180.33 L446.31 179.57 L443.53 182.50 L441.37 188.43 L438.58 190.69 L435.48 191.28 L433.01 194.73 L429.07 191.53 L425.43 189.95 L422.06 189.60 L419.03 190.69 L414.30 185.47 L411.18 186.41 L408.85 190.06 L405.56 190.34 L402.89 192.64 L401.08 197.47 L397.08 195.58 L393.77 195.84 L391.50 199.04 L387.39 197.16 L384.50 198.66 L382.84 203.25 L379.09 202.49 L375.16 201.42 L373.20 205.05 L370.41 206.68 L367.03 206.98 L365.56 211.46 L363.17 213.84 L358.49 211.50 L355.95 213.59 L353.41 215.67 L348.69 213.58 L346.29 215.96 L345.27 220.77 L341.04 219.80 L338.42 221.69 L336.12 224.13 L332.96 225.09 L329.83 226.15 L326.58 227.06 L325.06 230.65 L323.36 233.89 L320.45 235.30 L319.59 239.67 L319.18 244.57 L316.24 245.85 L312.58 246.18 L308.79 246.39 L306.36 248.44 L303.02 249.32 L302.28 253.49 L301.71 257.79 L300.71 261.47 L298.60 263.79 L299.09 269.08 L294.57 268.60 L291.21 269.50 L288.38 271.02 L286.27 273.33 L280.08 271.39 L277.72 273.51 L277.82 278.10 L275.34 280.06 L274.66 283.76 L275.10 288.47 L272.96 290.69 L269.97 292.15 L269.22 295.63 L265.76 296.71 L262.90 298.35 L263.20 302.65 L259.35 303.49 L254.72 303.76 L254.67 307.71 L253.45 310.71 L250.45 312.34 L250.92 316.56 L250.87 320.34 L244.98 319.94 L245.02 323.77 L244.56 327.19 L238.07 326.60 L238.46 330.59 L239.98 335.24 L234.64 335.55 L233.08 338.26 L232.88 341.77 L232.43 345.10 L231.43 348.08 L229.24 350.40 L231.27 355.01 L232.55 359.13 L230.34 361.40 L229.57 364.40 L231.53 368.73 L227.09 369.92 L223.11 371.41 L218.35 372.61 L216.64 375.23 L216.65 378.60 L218.37 382.66 L221.99 387.42 L223.45 391.21 L221.84 393.78 L223.68 397.64 L218.71 398.98 L215.26 400.95 L212.12 403.07 L212.23 406.30 L205.93 407.49 L204.31 410.22 L207.26 414.31 L206.04 417.13 L206.54 420.43 L209.28 424.29 L206.29 426.64 L204.25 429.26 L206.78 432.96 L203.20 435.26 L202.14 438.14 L205.98 442.00 L204.38 444.74 L199.83 447.00 L201.24 450.32 L202.01 453.51 L200.12 456.28 L202.05 459.60 L203.53 462.81 L199.06 465.31 L201.07 468.56 L201.26 471.60 L199.36 474.45 L202.69 477.73 L206.10 480.93 L201.83 483.65 L200.90 486.60 L202.15 489.64 L199.29 492.55 L199.73 495.56 L197.35 498.55 L199.90 501.57 L203.96 504.51 L202.99 507.49 L204.17 510.42 L210.63 513.09 L211.04 515.97 L207.96 519.07 L203.78 522.32 L204.53 525.24 L205.36 528.14 L206.34 531.01 L210.94 533.45 L214.40 535.95 L214.41 538.86 L217.32 541.34 L215.22 544.56 L213.63 547.75 L211.83 551.02 L212.95 553.78 L208.58 557.63 L207.27 560.93 L211.29 563.11 L211.81 566.03 L213.92 568.56 L218.28 570.50 L217.72 573.65 L216.44 577.02 L219.89 579.10 L218.05 582.67 L217.47 585.92 L222.58 587.41 L223.30 590.23 L219.99 594.42 L222.17 596.79 L224.86 598.95 L224.32 602.26 L227.21 604.31 L230.95 605.97 L227.73 610.40 L230.80 612.30 L232.66 614.68 L230.01 619.03 L232.97 620.93 L239.71 621.02 L235.74 626.10 L235.99 629.24 L240.35 630.33 L240.93 633.31 L243.12 635.44 L241.95 639.38 L245.43 640.80 L250.83 641.09 L251.30 644.13 L253.07 646.42 L259.83 645.67 L261.79 647.77 L260.83 651.69 L257.42 657.28 L258.95 659.73 L260.68 662.05 L263.25 663.79 L267.71 664.16 L272.64 664.12 L275.74 665.31 L280.34 665.33 L280.28 668.85 L280.54 672.17 L280.30 675.94 L281.35 678.71 L284.07 680.12 L284.95 683.07 L287.47 684.62 L291.35 684.94 L294.04 686.26 L295.67 688.54 L297.18 690.93 L298.99 693.06 L300.85 695.13 L301.71 698.22 L303.40 700.50 L306.28 701.56 L308.84 702.91 L311.10 704.58 L313.85 705.69 L317.17 706.13 L319.01 708.21 L320.89 710.26 L323.43 711.52 L324.57 714.48 L326.16 716.92 L328.77 718.11 L329.95 721.13 L331.30 723.96 L334.65 724.15 L335.87 727.22 L337.54 729.71 L341.89 728.37 L344.49 729.48 L347.31 730.25 L349.64 731.72 L351.40 734.11 L352.88 736.98 L356.78 735.94 L358.83 737.89 L361.69 738.48 L364.84 738.51 L366.87 740.49 L367.18 745.70 L369.43 747.43 L372.38 747.80 L375.50 747.81 L379.62 745.70 L384.05 742.76 L386.09 744.78 L390.27 742.08 L391.80 745.20 L393.31 748.49 L395.38 750.54 L397.40 752.78 L398.73 756.83 L399.98 761.31 L403.58 759.63 L406.37 760.06 L409.23 760.27 L412.76 758.43 L415.63 758.41 L417.20 762.46 L419.93 762.95 L422.20 764.98 L423.50 770.54 L427.27 767.39 L430.70 765.23 L431.76 772.27 L435.07 770.50 L438.23 769.16 L440.76 770.53 L443.87 769.20 L447.33 765.88 L449.28 770.16 L451.77 771.89 L455.02 769.19 L457.11 773.43 L459.70 774.85 L463.19 769.88 L465.59 772.57 L468.16 774.27 L471.26 771.24 L473.91 772.14 L476.75 771.00 L479.26 773.92 L482.08 772.89 L485.10 767.88 L487.74 768.92 L490.39 770.13 L493.25 764.00 L495.88 764.43 L498.52 766.09 L501.20 770.42 L503.93 772.22 L506.63 771.21 L509.32 770.69 L511.88 767.33 L514.35 763.43 L516.98 763.24 L519.36 759.68 L521.96 759.49 L524.76 761.42 L527.62 763.52 L530.19 762.66 L533.16 765.11 L536.39 769.10 L538.62 765.56 L541.26 765.04 L543.77 763.82 L545.83 760.08 L548.06 757.64 L551.00 759.01 L553.49 757.99 L556.07 757.46 L559.20 759.35 L561.43 757.25 L563.74 755.57 L567.44 759.31 L570.03 758.65 L572.18 756.40 L575.30 757.57 L577.46 755.45 L579.14 751.89 L582.72 754.36 L585.44 754.05 L587.83 752.78 L591.63 755.43 L593.72 753.27 L595.58 750.57 L598.50 750.65 L600.90 749.41 L602.56 746.40 L604.91 745.11 L607.19 743.67 L609.71 742.79 L611.08 739.41 L612.13 735.47 L614.32 734.00 L616.48 732.51 L616.71 727.26 L619.74 727.54 L623.21 728.55 L627.06 730.15 L629.90 729.83 L631.01 726.48 L633.04 724.77 L633.62 720.69 L634.36 716.99 L636.70 715.91 L638.07 713.32 L641.07 713.25 L644.16 713.26 L646.57 712.22 L648.37 710.29 L651.52 710.26 L655.83 711.75 L656.64 708.45 L659.02 707.27 L661.29 705.93 L661.57 702.09 L663.67 700.57 L667.14 700.70 L667.83 697.48 L670.07 696.10 L672.88 695.36 L673.31 691.95 L673.32 688.14 L677.82 689.19 L679.72 687.42 L680.05 684.04 L684.17 684.53 L683.99 680.70 L683.32 676.47 L688.01 677.40 L688.33 674.18 L688.79 671.13 L694.19 672.52 L695.14 669.90 L694.72 666.14 L697.08 664.78 L699.28 663.26 L699.00 659.73 L701.04 658.09 L702.80 656.22 L705.37 654.95 L706.66 652.71 L706.79 649.62 L709.80 648.63 L709.69 645.43 L709.59 642.27 L710.09 639.56 L710.40 636.76 L714.51 636.40 L715.66 634.12 L715.75 631.20 L717.48 629.29 L717.19 626.20 L715.48 622.34 L714.56 619.00 L714.88 616.38 L715.13 613.75 L719.50 613.26 L722.35 611.94 L723.16 609.56 L727.42 608.84 L731.84 608.12 L730.58 604.74 L730.65 602.00 L731.07 599.43 L729.20 595.93 L727.50 592.55 L729.91 590.86 L729.89 588.21 L729.87 585.57 L732.49 583.91 L732.44 581.27 L731.81 578.46 L736.52 577.43 L738.23 575.36 L736.13 572.11 L737.62 569.97 L737.07 567.24 L733.30 563.66 L736.44 561.98 L738.96 560.09 L735.29 556.67 L740.10 555.30 L743.24 553.47 L739.99 550.24 L740.25 547.79 L743.93 546.00 L743.09 543.32 L743.35 540.86 L741.74 538.11 L742.63 535.77 L742.34 533.25 L737.72 530.20 L737.45 527.76 L738.54 525.47 L735.34 522.75 L735.95 520.43 L739.28 518.31 L742.66 516.13 L744.90 513.82 L742.99 511.28 L742.35 508.82 L739.45 506.32 L732.62 503.81 L731.02 501.47 L731.03 499.16 L730.07 496.86 L733.45 494.48 L737.37 492.01 L737.85 489.62 L739.24 487.16 L744.78 484.40 L742.75 482.09 L740.92 479.81 L740.48 477.42 L736.91 475.36 L734.79 473.21 L738.57 470.35 L736.73 468.18 L735.46 465.95 L738.21 463.11 L735.92 461.05 L731.81 459.34 L735.02 456.35 L736.13 453.70 L732.57 451.98 L733.87 449.26 L733.22 446.96 L728.50 445.62 L729.50 442.95 L731.66 439.95 L729.54 438.05 L729.88 435.48 L731.99 432.38 L728.60 430.88 L725.80 429.25 L727.76 426.13 L725.84 424.25 L724.31 422.26 L722.39 420.42 L722.92 417.71 L722.62 415.28 L717.16 414.86 L718.34 411.87 L718.79 409.14 L713.66 408.75 L711.25 407.27 L710.70 404.99 L711.99 401.84 L711.38 399.55 L710.03 397.60 L709.45 395.28 L706.26 394.28 L701.08 394.39 L698.59 393.15 L696.40 391.78 L693.20 391.01 L695.61 387.06 L697.37 383.39 L696.21 381.42 L695.89 378.92 L699.58 373.86 L697.11 372.65 L694.43 371.61 L693.33 369.54 L689.19 369.56 L685.74 369.18 L685.27 366.71 L684.08 364.76 L682.84 362.83 L685.39 358.00 L683.02 356.89 L680.67 355.79 L682.95 350.96 L680.65 349.80 L676.95 349.86 L675.31 348.21 L673.09 347.08 L668.85 347.78 L667.56 345.88 L668.41 341.96 L663.85 343.13 L663.20 340.60 L663.93 336.65 L659.99 337.36 L656.95 337.22 L657.85 332.98 L655.59 332.03 L652.82 331.67 L650.61 330.74 L648.86 329.30 L646.75 328.28 L642.66 329.65 L640.15 329.21 L639.20 326.86 L635.75 327.65 L633.52 326.95 L633.93 322.78 L633.95 319.02 L633.50 315.81 L631.37 314.88 L629.15 314.09 L625.68 315.17 L620.91 318.31 L618.77 317.59 L617.02 316.29 L614.73 315.85 L615.64 310.18 L614.55 307.66 L613.54 304.95 L612.10 302.92 L611.40 299.51 L608.80 299.50 L606.00 299.91 L603.96 298.92 L600.73 300.31 L597.87 301.04 L597.14 297.45 L594.78 297.18 L592.44 296.92 L591.10 294.44 L588.48 294.84 L586.16 294.60 L584.25 293.37 L582.72 291.19 L579.65 292.91 L577.96 291.10 L575.85 290.38 L572.48 293.23 L570.24 293.02 L567.73 293.67 L565.70 292.88 L563.38 293.03 L561.79 290.77 L559.75 289.98 L557.07 291.50 L555.28 289.79 L552.79 290.80 L550.42 291.42 L548.37 290.76 L546.44 289.51 L544.50 288.26 L542.32 288.16 L540.38 286.77 L538.10 287.21 L535.31 290.77 L532.74 293.39 L530.74 292.64 L528.94 290.36 L527.06 288.34 L524.79 289.36 L523.01 286.07 L520.74 287.22 L518.21 291.67 L515.86 294.87 L513.77 295.33 L511.39 300.97 L509.59 296.92 L507.57 296.44 L505.49 297.83 L503.50 296.27 L501.51 289.23 L499.40 288.32 L497.25 285.60 L495.09 285.16 L493.03 287.76 L490.99 289.79 L488.96 291.32 L486.97 292.87 L485.19 297.05 L482.93 294.41 L480.73 293.04 L479.01 296.60 L476.55 293.07 L473.86 288.23 L471.78 288.83 L469.37 287.00 L467.64 289.89 L466.26 294.63 L464.75 298.05 L462.96 299.65 L461.82 304.47 L458.79 299.61 L455.95 296.16 L453.48 294.70 L451.43 295.16 L448.16 290.75 L446.20 291.78 L444.55 293.92 L442.59 294.82 L441.57 298.93 L439.86 300.54 L438.20 302.22 L436.90 304.93 L436.06 308.86 L433.70 308.20 L431.34 307.62 L430.61 311.55 L427.97 310.27 L424.44 306.80 L423.01 308.82 L420.77 308.78 L420.35 313.09 L419.83 316.97 L419.33 320.72 L417.95 322.41 L418.69 328.55 L415.27 325.85 L411.78 323.21 L410.07 324.20 L407.55 323.64 L402.45 318.35 L400.20 318.55 L398.07 318.98 L396.00 319.54 L395.74 323.20 L394.19 324.61 L393.28 327.04 L392.33 329.34 L391.77 332.20 L389.85 332.91 L387.50 333.00 L387.62 336.73 L384.85 336.24 L380.65 333.81 L379.45 335.65 L376.94 335.69 L376.98 339.13 L377.96 343.67 L378.66 347.73 L377.71 349.64 L379.74 355.13 L376.73 354.49 L373.68 353.88 L371.05 353.81 L369.35 354.84 L363.88 351.77 L361.47 352.14 L359.82 353.34 L358.62 355.03 L359.07 358.34 L358.45 360.54 L358.16 363.03 L357.66 365.26 L359.12 369.29 L356.60 369.60 L353.92 369.80 L354.56 372.96 L352.08 373.39 L348.08 372.57 L346.99 374.24 L345.48 375.57 L346.62 379.00 L348.04 382.56 L349.08 385.75 L348.48 387.66 L351.25 392.01 L347.56 391.64 L344.50 391.79 L342.11 392.45 L341.06 394.05 L334.96 392.35 L332.78 393.30 L331.84 395.05 L331.31 397.05 L332.58 400.11 L333.10 402.67 L333.64 405.20 L333.35 407.23 L336.13 410.91 L333.92 411.85 L331.13 412.52 L332.95 415.57 L330.32 416.36 L324.18 415.51 L322.26 416.76 L321.11 418.40 L321.35 420.66 L324.39 424.10 L328.00 427.69 L328.13 429.76 L334.01 434.09 L331.83 435.17 L324.95 434.52 L323.94 436.14 L323.05 437.81 L315.14 437.10 L312.88 438.41 L314.73 441.07 L313.86 442.84 L316.60 445.68 L317.49 447.92 L318.12 450.06 L318.99 452.24 L321.91 454.91 L320.89 456.56 L318.48 457.89 L321.04 460.36 L320.22 462.06 L315.11 462.91 L315.06 464.82 L314.79 466.69 L315.90 468.78 L319.52 471.25 L322.52 473.55 L323.59 475.51 L328.98 478.00 L326.08 479.39 L321.74 480.68 L322.51 482.56 L321.09 484.22 L313.80 485.45 L311.68 487.18 L311.71 489.07 L310.55 490.91 L313.66 492.92 L314.63 494.82 L316.90 496.71 L318.15 498.55 L321.04 500.36 L320.37 502.16 L317.84 504.01 L320.35 505.76 L319.84 507.58 L313.49 509.71 L313.59 511.58 L311.83 513.58 L312.94 515.38 L317.86 516.81 L321.66 518.26 L323.41 519.87 L329.67 520.89 L329.38 522.66 L326.37 524.83 L327.51 526.43 L327.26 528.24 L321.59 531.00 L320.47 533.05 L320.28 534.94 L318.05 537.27 L320.07 538.73 L320.90 540.43 L323.05 541.81 L324.66 543.29 L327.33 544.46 L328.86 545.90 L327.80 548.04 L330.53 549.10 L331.69 550.60 L327.51 553.74 L328.51 555.32 L326.64 557.84 L328.18 559.25 L333.87 559.15 L335.27 560.51 L337.92 561.38 L343.66 561.00 L343.94 562.70 L342.69 565.04 L341.14 567.55 L341.20 569.40 L337.87 572.80 L336.07 575.59 L337.58 576.87 L337.60 578.86 L340.35 579.50 L343.29 580.01 L345.94 580.60 L346.73 582.15 L351.13 581.72 L351.94 583.22 L350.61 585.94 L353.46 586.26 L354.55 587.59 L349.22 592.87 L349.24 594.95 L350.30 596.39 L350.13 598.63 L354.24 598.02 L359.19 596.76 L360.34 598.04 L364.90 596.86 L366.04 598.09 L363.36 602.17 L363.28 604.38 L364.73 605.43 L361.48 610.20 L360.38 613.37 L363.13 613.43 L363.08 615.81 L366.05 615.61 L369.36 615.05 L371.93 615.09 L373.54 615.94 L376.58 615.45 L377.77 616.65 L377.58 619.19 L379.73 619.47 L382.20 619.38 L380.73 623.31 L382.10 624.36 L384.37 624.42 L385.96 625.20 L389.34 623.97 L392.94 622.37 L394.82 622.68 L397.67 621.80 L397.62 624.36 L396.96 627.75 L397.13 630.17 L397.75 632.08 L397.07 635.74 L397.31 638.28 L399.35 638.41 L400.32 639.99 L403.01 639.13 L405.42 638.62 L407.90 637.92 L409.35 638.74 L412.56 636.80 L414.25 637.15 L414.17 640.39 L416.41 639.85 L418.61 639.31 L416.75 645.82 L417.67 647.62 L419.96 646.95 L420.57 649.35 L422.57 649.18 L425.63 646.85 L427.68 646.43 L430.39 644.57 L431.78 645.38 L433.54 645.38 L435.17 645.66 L437.07 645.28 L437.11 649.27 L437.27 653.15 L439.37 652.35 L440.28 654.53 L442.64 652.98 L444.08 653.78 L446.62 651.49 L448.36 651.37 L450.28 650.67 L451.83 651.03 L452.48 654.30 L454.68 652.55 L456.41 652.29 L456.65 657.38 L458.40 657.15 L460.60 655.09 L461.63 657.64 L463.74 655.71 L466.54 650.50 L467.83 651.84 L469.57 651.06 L471.16 650.95 L472.45 652.46 L473.89 653.22 L475.37 653.82 L476.42 657.32 L477.72 659.51 L479.42 658.94 L480.78 661.11 L482.60 659.31 L484.37 657.71 L486.16 655.47 L487.73 655.46 L489.44 653.37 L490.99 653.09 L492.43 655.10 L494.01 654.56 L495.55 654.80 L497.00 660.16 L498.58 661.99 L500.20 661.56 L501.83 662.42 L503.40 659.97 L504.82 654.18 L506.30 652.57 L507.70 650.21 L509.18 649.66 L510.93 653.17 L512.60 654.75 L514.11 654.27 L516.01 657.64 L517.85 659.80 L519.24 657.95 L520.87 658.09 L522.26 656.55 L523.54 654.46 L524.88 652.94 L526.29 652.04 L527.50 650.07 L528.81 648.81 L530.48 649.40 L531.92 648.83 L533.05 646.96 L535.81 652.08 L537.62 652.89 L539.21 652.78 L540.94 653.14 L541.51 649.25 L542.25 646.25 L543.19 644.08 L543.56 640.20 L544.81 639.31 L546.78 640.58 L548.34 640.55 L549.76 640.13 L551.99 641.88 L554.51 644.26 L555.75 643.20 L557.44 643.29 L558.15 640.96 L559.09 639.27 L560.07 637.73 L560.91 635.94 L561.98 634.70 L563.86 635.21 L565.10 634.33 L566.18 633.17 L567.00 631.49 L570.39 634.80 L572.26 635.07 L572.69 632.66 L574.76 633.26 L576.13 632.58 L575.94 629.25 L576.04 626.49 L576.94 625.14 L578.29 624.54 L579.98 624.44 L580.98 623.27 L581.84 621.90 L584.18 622.72 L586.49 623.42 L586.08 620.26 L587.53 619.74 L589.53 619.93 L589.20 617.03 L589.50 615.02 L591.33 614.99 L591.77 613.20 L592.94 612.32 L594.53 611.95 L594.60 609.78 L594.28 607.23 L592.74 603.37 L592.32 600.86 L590.08 596.45 L587.75 592.10 L586.54 589.03 L586.55 587.27 L587.78 586.76 L586.77 584.07 L587.61 583.19 L588.18 582.07 L588.06 580.34 L590.16 580.62 L588.67 577.70 L590.02 577.30 L591.75 577.21 L590.26 574.42 L592.69 574.89 L592.98 573.60 L591.64 571.06 L594.67 571.90 L596.29 571.63 L594.68 568.96 L595.13 567.85 L598.71 568.92 L597.72 566.79 L595.39 563.80 L597.83 564.03 L599.78 563.89 L599.88 562.56 L599.83 561.15 L599.69 559.70 L600.17 558.63 L597.96 556.03 L595.45 553.34 L594.42 551.53 L594.71 550.46 L595.00 549.41 L595.30 548.35 L595.59 547.31 L595.86 546.25 L596.14 545.21 L596.39 544.15 L596.65 543.11 L596.89 542.06 L597.13 541.01 L597.36 539.97 L597.57 538.92 L597.78 537.88 L597.98 536.83 L598.17 535.78 L598.35 534.74 L598.51 533.69 L598.67 532.65 L598.81 531.60 L598.95 530.56 L599.07 529.52 L599.18 528.47 L599.29 527.43 L599.38 526.39 L599.46 525.35 L599.52 524.31 L599.57 523.27 L599.62 522.23 L599.65 521.19 L599.67 520.16 L599.68 519.13 L599.69 518.09 L599.69 517.07 L599.67 516.04 L599.65 515.02 L599.61 513.99 L599.57 512.97 L599.51 511.95 L599.44 510.94 L599.37 509.93 L599.28 508.91 L599.18 507.91 L599.07 506.90 L598.96 505.90 L598.83 504.90 L598.69 503.91 L598.54 502.91 L598.38 501.92 L598.22 500.94 Z"/>
  <svg class="pausebutton" id="pausebutton">
    <circle cx="500" cy="500" id="pausestart" class="pausestart" r="52.65"/>
    <rect height="50.02" width="10.00" y="473.68" rx="2.00" ry="2.00" x="479.99" class="pausesymbol"/>
    <rect height="50.02" width="10.00" y="473.68" rx="2.00" ry="2.00" x="510.00" class="pausesymbol"/>
    <polygon points="530.01,500 479.99,530.01 479.99,469.99" class="playsymbol"/>
  </svg>
  <polygon id="playback-head" class="playback-head" points="941.65,500 921.65,540 961.65,540"/>
</svg>