<?xml-stylesheet href="../../style/waveformjs.css" type="text/css"?>
<svg xmlns="http://www.w3.org/2000/svg" xmlns:xlink="http://www.w3.org/1999/xlink" width="100%" height="100%" viewBox="0 0 1000 1000">
  <path class="svg-wave" id="sp" d="M591.57 500.00 L591.82 500.92 L592.06 501.84 L592.29 502.77 L592.52 503.70 L592.73 504.64 L592.93 505.58 L593.13 506.53 L593.31 507.48 L593.49 508.44 L593.65 509.40 L593.81 510.36 L593.95 511.33 L594.09 512.30 L594.20 513.27 L594.28 514.25 L594.37 515.23 L594.44 516.21 L594.51 517.20 L594.58 518.19 L594.63 519.18 L594.67 520.18 L594.72 521.18 L594.68 522.17 L594.74 523.18 L594.69 524.18 L594.72 525.20 L594.69 526.21 L594.65 527.22 L594.55 528.21 L594.54 529.24 L594.32 530.21 L594.40 531.28 L594.15 532.25 L594.18 533.31 L593.99 534.31 L593.82 535.32 L593.62 536.31 L593.45 537.33 L593.16 538.29 L593.12 539.37 L592.78 540.32 L592.63 541.37 L592.46 542.40 L592.02 543.32 L591.97 544.43 L591.43 545.30 L591.32 546.39 L590.84 547.29 L590.66 548.36 L590.02 549.18 L589.96 550.32 L589.04 550.98 L589.18 552.25 L588.07 552.79 L588.34 554.16 L587.25 554.70 L587.33 555.98 L586.28 556.52 L586.18 557.70 L585.18 558.27 L584.95 559.37 L583.94 559.93 L583.68 561.01 L582.84 561.68 L582.26 562.53 L581.75 563.45 L580.60 563.86 L580.56 565.14 L578.73 564.98 L579.15 566.67 L577.04 566.22 L577.62 568.08 L575.56 567.62 L575.88 569.29 L573.12 568.12 L574.21 570.53 L570.42 568.29 L572.71 571.93 L568.88 569.51 L570.64 572.73 L567.54 570.95 L567.61 572.46 L565.00 571.08 L565.03 572.55 L562.48 571.13 L563.86 574.18 L561.55 572.96 L561.34 574.20 L560.98 575.28 L557.48 572.43 L559.14 576.07 L555.58 572.99 L557.29 576.82 L554.50 574.62 L555.78 578.01 L551.79 573.97 L554.96 580.20 L550.63 575.49 L554.08 582.40 L549.85 577.64 L552.72 583.94 L547.77 577.78 L551.09 585.08 L547.12 580.27 L548.63 584.77 L546.13 582.31 L546.14 584.30 L544.09 582.50 L544.49 585.29 L543.11 584.71 L543.22 587.06 L542.56 587.93 L541.24 587.42 L541.75 590.85 L538.85 586.81 L540.56 593.11 L537.61 588.77 L538.54 593.56 L535.97 589.86 L536.86 594.80 L533.99 590.08 L535.41 596.78 L532.65 592.08 L533.91 598.75 L531.06 593.48 L531.99 599.61 L529.35 594.61 L529.58 598.84 L527.71 596.07 L527.45 598.88 L525.84 596.82 L525.39 599.10 L524.15 598.33 L523.03 598.02 L522.50 600.25 L521.08 598.51 L520.78 602.07 L519.19 599.38 L519.02 604.04 L517.04 598.81 L517.13 605.62 L515.09 599.33 L515.04 606.12 L513.07 599.33 L513.01 607.17 L511.04 599.23 L511.05 609.25 L509.36 602.81 L508.92 610.22 L507.51 605.94 L506.71 610.19 L505.46 607.34 L504.43 608.62 L503.33 608.04 L502.25 608.12 L501.16 607.75 L500.09 608.98 L499.00 609.03 L497.95 606.77 L496.75 611.18 L495.83 606.24 L494.45 612.62 L493.62 607.72 L492.14 613.44 L491.55 606.50 L489.79 614.14 L489.44 606.14 L487.50 613.99 L487.19 606.96 L485.24 613.62 L485.08 606.50 L482.85 614.08 L482.78 607.23 L480.44 614.47 L480.23 609.12 L478.31 613.28 L477.56 611.18 L476.67 609.89 L475.14 611.60 L474.65 608.67 L472.96 610.88 L471.97 610.15 L470.43 611.52 L470.01 608.69 L467.54 613.24 L468.11 607.16 L464.69 614.48 L465.67 607.47 L461.90 615.29 L463.07 608.09 L459.37 615.14 L460.05 609.72 L457.55 613.06 L457.83 608.97 L455.17 612.51 L455.58 608.31 L452.56 612.46 L452.84 608.73 L450.53 611.02 L450.51 608.15 L448.54 609.52 L447.78 608.32 L447.18 606.83 L444.66 609.16 L445.78 604.36 L442.89 607.27 L443.56 603.51 L440.42 606.71 L441.26 602.78 L436.98 607.76 L439.06 601.85 L434.43 607.14 L436.97 600.72 L432.12 606.08 L435.51 598.60 L430.00 604.73 L432.16 599.33 L427.81 603.47 L427.86 601.22 L425.58 602.25 L425.41 600.35 L423.59 600.68 L422.35 600.22 L422.31 598.22 L420.00 599.09 L420.45 596.54 L417.72 597.84 L418.68 594.76 L415.06 597.00 L417.57 592.26 L412.99 595.44 L416.12 590.18 L410.20 594.63 L413.58 589.27 L407.28 593.88 L410.52 588.80 L405.30 592.12 L408.74 587.02 L403.02 590.63 L407.19 585.02 L401.54 588.39 L404.23 584.27 L401.07 585.30 L401.29 583.41 L398.76 583.83 L398.86 582.06 L397.21 581.70 L395.53 581.35 L397.32 578.32 L392.88 580.02 L395.62 576.36 L391.37 577.81 L394.17 574.22 L388.39 576.62 L393.14 571.80 L385.83 575.06 L391.06 570.07 L383.03 573.59 L388.65 568.51 L380.75 571.74 L385.90 567.10 L379.69 569.14 L383.73 565.28 L379.67 565.99 L383.75 562.24 L378.28 563.61 L380.64 560.87 L376.67 561.35 L376.17 560.06 L375.19 559.00 L373.95 558.05 L374.57 556.25 L371.72 556.00 L374.94 553.11 L370.18 553.60 L374.27 550.45 L368.17 551.37 L374.09 547.62 L366.33 549.03 L372.31 545.40 L365.41 546.34 L370.81 543.04 L363.48 543.97 L370.30 540.35 L360.60 541.84 L366.60 538.59 L361.48 538.57 L363.93 536.43 L362.99 535.22 L363.91 533.53 L362.17 532.50 L360.91 531.34 L360.93 529.87 L359.13 528.79 L360.45 527.07 L358.56 525.97 L361.03 524.08 L356.14 523.45 L360.44 521.32 L354.48 520.74 L359.17 518.64 L353.76 517.87 L360.75 515.60 L351.94 515.09 L359.32 512.92 L350.75 512.21 L356.24 510.31 L350.51 509.22 L355.80 507.45 L349.72 506.25 L353.23 504.64 L351.87 503.20 L352.31 501.71 L353.95 500.23 L352.60 498.76 L353.10 497.30 L348.81 495.70 L352.78 494.34 L346.95 492.59 L352.83 491.39 L346.91 489.51 L352.89 488.44 L346.21 486.37 L352.94 485.48 L346.05 483.25 L352.56 482.46 L347.07 480.25 L354.52 479.73 L346.87 477.11 L354.08 476.69 L346.94 473.98 L351.93 473.30 L347.83 470.99 L351.46 470.14 L348.28 467.91 L350.31 466.78 L350.76 465.31 L350.01 463.55 L351.34 462.29 L349.70 460.27 L350.56 458.90 L347.79 456.49 L352.48 456.24 L346.69 452.84 L353.07 453.19 L347.77 449.82 L355.25 450.68 L348.48 446.67 L356.78 447.98 L348.69 443.32 L355.89 444.37 L351.24 440.86 L358.26 442.00 L352.73 438.01 L358.70 438.85 L353.34 434.79 L357.28 434.82 L355.12 432.07 L356.86 431.13 L356.60 429.24 L357.02 427.66 L359.91 427.35 L358.04 424.57 L361.24 424.48 L358.05 420.90 L361.09 420.76 L357.49 416.81 L362.89 418.11 L358.56 413.59 L363.97 415.02 L359.99 410.58 L366.34 412.73 L360.98 407.24 L368.12 410.09 L362.71 404.37 L368.82 406.66 L366.19 402.76 L370.26 403.72 L368.69 400.51 L370.96 400.18 L370.45 397.70 L371.95 396.79 L372.14 394.81 L373.62 393.90 L374.90 392.82 L374.76 390.51 L379.58 392.58 L375.97 387.11 L380.53 389.06 L377.02 383.48 L380.45 384.44 L377.32 379.03 L382.97 382.27 L379.72 376.55 L385.28 379.88 L383.21 375.24 L388.83 378.83 L386.24 373.49 L391.13 376.47 L391.57 374.46 L396.02 377.14 L397.79 376.76 L403.06 380.71 L399.67 373.98 L404.46 377.50 L400.50 369.76 L403.60 371.17 L401.70 365.86 L408.81 372.91 L405.72 365.79 L407.93 366.11 L408.01 363.32 L411.19 365.14 L408.67 358.26 L413.66 363.02 L411.98 357.19 L409.82 350.37 L414.73 355.26 L412.49 348.01 L415.00 348.89 L413.75 343.01 L418.99 348.98 L418.27 343.93 L426.30 355.77 L428.69 356.93 L427.77 351.39 L429.24 350.63 L425.13 337.77 L428.26 340.39 L432.73 346.23 L433.09 342.78 L438.19 350.66 L435.27 339.05 L435.66 335.28 L438.03 336.54 L436.13 326.31 L439.92 331.43 L441.52 330.59 L446.62 340.20 L450.26 346.00 L450.08 339.97 L451.71 339.57 L450.52 329.46 L451.51 326.42 L457.03 340.02 L456.84 332.66 L460.22 339.11 L459.99 330.96 L461.54 329.94 L464.76 336.58 L465.48 331.75 L467.61 333.70 L467.92 326.08 L469.29 323.64 L472.71 333.40 L474.53 334.14 L476.12 333.41 L477.75 332.89 L477.93 320.60 L480.96 331.30 L482.36 328.36 L484.88 336.86 L486.87 341.01 L488.02 334.75 L490.01 340.07 L491.33 334.60 L492.52 323.59 L494.41 327.46 L495.86 315.33 L497.85 326.42 L499.59 327.12 L501.34 324.09 L502.92 334.38 L505.08 316.12 L506.41 329.68 L508.26 326.70 L510.40 319.66 L511.79 325.87 L514.19 317.52 L515.61 322.28 L516.64 330.11 L519.03 323.87 L520.18 329.22 L523.20 319.18 L524.24 324.99 L525.35 329.49 L528.22 322.42 L529.71 324.41 L533.95 310.88 L535.48 313.12 L535.31 323.64 L538.07 319.29 L538.53 325.73 L542.58 316.18 L544.10 317.91 L544.49 324.01 L547.15 321.03 L548.44 323.33 L553.24 313.16 L554.84 314.63 L554.07 323.73 L555.78 324.42 L556.83 327.12 L560.07 323.26 L564.93 315.05 L562.34 327.93 L565.62 324.40 L565.85 329.00 L569.23 325.47 L571.83 324.06 L572.54 327.27 L571.71 333.93 L575.48 329.90 L575.30 334.77 L582.22 324.27 L579.75 333.89 L580.84 335.84 L584.08 333.50 L584.56 336.63 L591.25 327.94 L590.95 332.57 L590.74 336.87 L595.84 331.68 L595.38 336.31 L601.30 330.08 L603.10 330.94 L602.32 335.93 L607.04 332.12 L606.19 337.07 L612.38 331.29 L608.95 339.93 L607.69 345.14 L612.89 341.07 L606.76 352.84 L613.81 346.38 L616.28 346.27 L611.31 355.88 L622.83 344.19 L619.22 351.85 L626.74 345.69 L627.93 347.38 L623.45 355.68 L628.74 352.50 L626.67 357.78 L634.42 352.08 L637.47 351.73 L632.74 359.67 L637.46 357.56 L637.61 360.23 L640.67 359.96 L649.69 353.92 L640.34 365.76 L646.01 363.11 L645.44 366.35 L650.46 364.48 L658.33 360.24 L660.29 361.33 L661.43 363.14 L662.81 364.75 L663.79 366.68 L665.01 368.42 L662.42 373.11 L665.99 372.98 L664.45 376.74 L668.33 376.44 L672.35 376.13 L666.85 382.59 L664.70 386.55 L668.48 386.41 L667.32 389.61 L673.77 387.84 L673.00 390.77 L665.19 397.99 L673.40 395.31 L666.39 401.80 L681.70 395.20 L674.15 401.86 L672.69 404.94 L679.96 403.28 L678.33 406.43 L688.38 403.55 L692.79 403.71 L680.71 411.99 L691.24 409.22 L681.79 415.93 L689.54 414.63 L689.41 416.96 L689.79 419.04 L690.99 420.78 L691.16 422.94 L694.55 423.83 L688.38 428.41 L688.36 430.56 L689.09 432.43 L694.57 432.66 L696.97 434.03 L708.89 432.35 L696.37 438.57 L703.14 438.68 L700.97 441.52 L705.67 442.37 L710.90 443.18 L702.74 447.54 L697.89 450.91 L697.28 453.15 L699.21 454.79 L708.51 454.86 L705.08 457.75 L703.79 460.13 L711.81 460.76 L709.00 463.44 L725.94 462.80 L716.48 466.58 L710.60 469.64 L714.60 471.25 L709.15 474.10 L718.61 475.15 L721.98 477.01 L716.90 479.73 L720.49 481.62 L717.61 484.05 L721.76 485.97 L717.38 488.43 L720.73 490.46 L720.15 492.69 L723.78 494.81 L726.38 497.01 L726.57 499.28 L714.55 501.46 L719.49 503.69 L708.69 505.60 L718.51 508.05 L716.63 510.15 L713.51 512.14 L719.63 514.70 L714.47 516.51 L727.14 519.77 L722.13 521.57 L718.06 523.38 L716.79 525.44 L717.68 527.75 L717.07 529.89 L729.21 533.89 L713.23 533.71 L717.59 536.64 L708.49 537.25 L715.29 540.69 L710.28 541.93 L720.67 546.30 L713.38 547.00 L719.83 550.73 L716.80 552.32 L721.91 555.91 L712.27 555.75 L713.92 558.47 L715.52 561.23 L713.01 562.83 L712.77 565.07 L711.24 566.93 L711.68 569.40 L708.94 570.83 L720.27 577.13 L712.49 576.80 L719.36 581.77 L711.78 581.36 L719.77 586.97 L708.87 585.08 L714.76 589.99 L704.17 587.97 L698.83 588.03 L704.84 593.16 L700.80 593.75 L709.85 600.55 L711.04 603.72 L701.21 601.40 L706.77 606.81 L695.50 603.48 L700.26 608.58 L701.81 612.04 L697.27 612.12 L701.34 617.11 L696.40 616.88 L698.17 620.63 L690.98 618.89 L688.03 619.68 L688.81 622.85 L690.76 626.85 L691.39 630.04 L699.91 638.77 L685.31 631.41 L688.83 636.76 L683.12 635.44 L687.04 641.25 L686.33 643.66 L682.37 643.54 L679.50 644.21 L679.95 647.56 L679.53 650.24 L683.42 656.64 L674.94 652.45 L669.58 650.79 L670.35 654.55 L667.78 655.31 L675.71 665.94 L670.22 664.01 L668.49 665.62 L668.24 668.72 L657.71 661.36 L668.02 675.38 L656.15 666.28 L657.55 671.17 L663.40 681.13 L657.00 677.57 L664.50 689.86 L655.29 682.89 L650.08 680.38 L651.09 685.33 L641.97 677.74 L648.49 689.77 L643.90 687.73 L638.84 684.94 L645.64 698.08 L637.65 691.20 L642.22 701.77 L636.89 698.39 L631.75 695.08 L631.51 698.99 L626.72 695.99 L630.07 705.64 L625.28 702.52 L621.84 701.44 L621.00 704.64 L620.40 708.36 L623.15 718.12 L622.79 722.65 L616.03 715.46 L614.62 718.05 L610.00 714.43 L611.48 722.78 L609.45 724.30 L605.23 721.23 L602.39 720.93 L600.35 722.34 L600.09 727.81 L599.81 733.47 L594.11 726.37 L591.39 726.18 L589.40 727.81 L587.68 730.17 L589.98 743.48 L584.21 735.07 L581.78 735.69 L579.65 737.20 L576.69 736.17 L576.52 743.94 L573.49 742.73 L568.43 734.45 L568.61 744.13 L563.94 736.56 L565.70 753.09 L561.18 745.78 L557.79 742.48 L557.01 750.25 L552.66 742.31 L552.55 754.02 L549.39 751.39 L545.22 742.99 L544.80 754.91 L541.00 747.78 L540.08 758.24 L537.35 757.59 L534.24 754.06 L532.29 759.08 L529.25 755.52 L527.53 763.76 L524.25 757.26 L521.13 750.97 L518.98 756.01 L515.80 746.69 L513.45 748.89 L511.42 759.48 L508.25 742.74 L506.25 760.37 L503.52 751.86 L501.03 759.85 L498.44 759.29 L495.92 754.72 L493.40 753.70 L490.81 754.96 L488.13 757.75 L485.06 766.36 L483.00 757.07 L480.44 756.87 L477.63 759.43 L475.41 755.28 L471.29 769.81 L469.99 757.46 L467.46 756.82 L464.52 759.20 L462.13 757.48 L457.63 769.37 L454.87 769.35 L452.21 768.69 L449.44 768.67 L446.78 768.02 L443.85 768.70 L442.41 762.44 L439.36 763.70 L437.55 759.68 L433.81 763.61 L430.96 763.74 L428.81 761.27 L428.91 750.97 L424.08 758.15 L423.68 750.26 L418.33 758.50 L416.58 755.12 L417.76 743.27 L411.90 752.23 L413.27 740.56 L405.03 755.40 L405.07 747.66 L404.21 742.62 L399.76 746.65 L397.56 745.00 L392.85 749.23 L386.51 756.87 L390.81 740.60 L384.84 747.17 L386.60 737.16 L381.76 741.06 L379.97 738.65 L375.40 741.68 L375.25 736.14 L370.63 739.07 L369.16 736.11 L367.71 733.19 L367.88 727.56 L366.26 725.14 L360.70 729.25 L358.84 727.16 L349.22 737.32 L352.64 726.88 L350.54 725.16 L346.58 726.17 L344.93 723.77 L337.91 728.96 L339.10 722.54 L342.01 713.97 L338.91 713.66 L337.18 711.53 L329.90 716.47 L329.02 713.16 L330.09 707.54 L321.59 713.54 L321.94 708.83 L309.72 718.70 L310.45 713.51 L315.46 703.73 L308.78 706.91 L313.01 698.32 L303.32 704.46 L300.93 702.84 L300.94 698.81 L297.14 698.59 L298.31 693.54 L292.11 695.53 L293.94 689.96 L289.91 689.83 L287.16 688.48 L283.40 687.98 L280.15 686.98 L275.48 687.11 L284.65 675.86 L280.81 675.36 L286.88 667.04 L278.51 670.05 L277.84 667.06 L275.39 665.42 L273.36 663.44 L270.72 661.88 L264.88 662.51 L260.74 661.86 L264.58 655.85 L266.15 651.47 L260.81 651.56 L263.36 646.65 L249.36 651.87 L258.83 642.86 L256.47 640.99 L256.68 637.63 L251.39 637.36 L249.46 635.18 L239.85 637.02 L241.34 632.95 L237.16 631.79 L233.92 630.10 L232.39 627.55 L235.97 622.62 L238.82 618.14 L229.07 619.30 L231.80 614.91 L229.02 612.91 L228.32 610.02 L223.74 608.67 L225.28 604.90 L210.30 607.32 L213.45 602.91 L209.28 601.13 L208.90 598.01 L203.37 596.58 L207.99 591.86 L209.68 588.15 L213.86 583.76 L225.87 577.28 L212.72 577.89 L218.61 573.28 L199.20 575.14 L201.12 571.49 L208.99 566.54 L201.87 565.03 L214.07 559.38 L201.69 558.85 L193.55 557.28 L194.29 553.98 L184.58 552.45 L185.22 549.11 L191.05 545.04 L197.71 540.99 L209.97 536.38 L209.19 533.53 L203.37 531.19 L194.74 529.02 L184.93 526.78 L197.07 522.70 L201.51 519.36 L200.26 516.44 L200.48 513.42 L186.23 510.92 L199.97 507.44 L201.32 504.41 L200.19 501.43 L202.04 498.44 L187.17 495.24 L196.27 492.34 L201.23 489.47 L194.51 486.18 L196.08 483.20 L181.27 479.18 L188.37 476.51 L197.41 474.15 L193.20 470.70 L212.36 469.62 L194.59 464.65 L205.77 462.96 L209.07 460.42 L191.00 454.81 L200.81 453.18 L185.86 447.62 L193.90 445.81 L204.90 444.71 L194.65 439.62 L212.21 440.10 L198.68 434.13 L201.98 431.72 L216.16 431.97 L197.75 424.36 L206.47 423.41 L196.69 417.62 L200.27 415.36 L208.09 414.41 L209.84 411.76 L212.08 409.29 L208.38 404.90 L208.16 401.59 L214.00 400.37 L214.58 397.36 L212.48 393.34 L203.95 386.80 L200.60 382.07 L209.05 382.02 L215.02 381.11 L215.89 378.13 L216.52 375.03 L207.77 367.66 L217.70 368.74 L221.49 367.10 L219.56 362.72 L219.63 359.27 L209.47 350.51 L220.30 352.52 L225.78 351.89 L225.94 348.42 L223.13 343.22 L213.93 334.22 L220.44 334.23 L230.39 336.47 L227.10 330.71 L234.57 331.65 L221.37 319.35 L229.44 320.71 L240.16 324.05 L234.52 316.34 L246.03 320.52 L233.48 307.62 L239.31 307.83 L248.84 310.95 L239.48 299.80 L249.68 303.62 L234.29 287.22 L243.25 290.15 L253.06 294.01 L249.54 286.80 L259.66 291.23 L252.60 280.71 L255.24 278.65 L260.16 278.70 L260.92 274.93 L262.58 271.97 L262.48 267.26 L263.85 263.93 L276.02 271.58 L272.56 263.36 L283.34 270.01 L286.58 268.87 L278.11 254.82 L294.95 268.82 L286.73 254.65 L289.51 252.91 L290.20 248.67 L284.99 237.12 L295.78 245.16 L301.07 246.61 L303.28 244.20 L307.17 244.00 L302.70 232.55 L309.82 236.72 L316.21 240.13 L313.33 230.38 L317.56 230.78 L311.35 215.53 L319.11 221.22 L326.69 226.95 L326.89 221.15 L333.25 225.30 L328.56 211.10 L331.02 208.64 L333.65 206.46 L336.05 203.83 L338.45 201.15 L340.87 198.46 L345.08 199.18 L348.58 198.61 L349.76 193.36 L352.33 190.81 L352.37 182.79 L357.70 186.07 L366.09 196.53 L367.71 191.91 L374.28 198.94 L372.25 185.27 L376.50 186.78 L383.12 194.65 L384.39 188.68 L389.20 192.25 L388.87 181.37 L389.70 173.27 L397.59 186.32 L397.29 174.40 L401.41 176.23 L401.35 164.00 L402.94 156.74 L410.65 171.51 L414.56 173.02 L418.55 175.01 L421.50 172.95 L422.93 164.16 L425.85 161.36 L429.52 162.00 L432.04 156.94 L435.50 156.41 L439.35 158.12 L444.15 165.76 L448.04 168.71 L450.44 161.99 L453.84 161.59 L455.42 146.87 L460.19 157.08 L464.42 164.24 L467.07 156.48 L471.11 163.23 L473.17 145.69 L477.47 156.91 L481.47 166.95 L484.73 165.15 L488.23 169.31 L491.20 156.02 L494.63 155.08 L498.12 162.69 L501.57 146.14 L504.96 155.95 L508.95 133.66 L512.31 142.60 L515.25 156.97 L519.00 151.30 L521.79 162.26 L526.29 147.36 L529.68 149.34 L533.15 149.94 L536.44 152.33 L539.80 153.70 L543.54 151.88 L547.07 151.97 L550.17 155.02 L554.58 149.36 L558.08 149.99 L562.60 144.74 L566.93 141.19 L567.76 155.87 L570.77 158.63 L573.33 163.27 L577.17 161.93 L582.36 155.14 L583.99 163.26 L587.40 163.91 L592.07 159.96 L596.42 157.52 L603.90 144.61 L604.28 156.11 L605.81 163.22 L611.20 158.08 L613.10 163.71 L622.40 147.75 L621.70 160.74 L621.41 171.92 L625.77 170.29 L626.19 178.88 L635.15 165.93 L639.40 165.09 L644.28 162.91 L648.76 161.84 L652.50 162.53 L656.36 163.02 L659.75 164.52 L663.52 165.27 L667.41 165.84 L670.33 168.32 L674.00 169.36 L677.82 170.15 L681.27 171.65 L684.10 174.26 L686.79 177.08 L688.68 181.21 L691.87 183.10 L695.00 185.09 L698.35 186.71 L701.43 188.78 L703.38 192.55 L708.93 190.92 L709.70 196.38 L714.52 195.94 L714.75 201.99 L716.54 205.76 L716.37 212.07 L719.27 214.20 L724.05 213.93 L727.53 215.41 L733.66 213.65 L737.17 215.21 L742.23 214.99 L746.66 215.59 L751.57 215.72 L754.02 218.67 L755.86 222.27 L757.53 226.01 L762.36 226.40 L764.19 229.95 L769.68 229.80 L772.71 232.17 L776.14 234.17 L778.31 237.39 L780.51 240.58 L781.36 244.96 L782.81 248.75 L785.34 251.56 L787.69 254.54 L790.71 256.94 L792.19 260.62 L793.52 264.40 L798.23 265.48 L798.44 270.11 L802.06 272.09 L802.15 276.73 L800.37 282.66 L799.95 287.50 L806.13 287.69 L805.28 292.77 L814.67 290.96 L815.62 294.85 L819.92 296.58 L824.90 297.94 L829.49 299.63 L832.94 302.06 L834.21 305.81 L834.42 310.13 L837.81 312.65 L839.59 316.08 L843.32 318.47 L846.43 321.24 L848.79 324.42 L851.40 327.49 L851.53 331.76 L853.03 335.36 L851.65 340.27 L853.08 343.86 L854.68 347.37 L856.27 350.89 L858.38 354.20 L857.91 358.55 L861.08 361.46 L861.32 365.49 L863.30 368.88 L862.82 373.14 L862.78 377.21 L858.97 382.49 L858.19 386.69 L863.99 388.85 L861.78 393.47 L871.07 394.75 L871.51 398.63 L875.67 401.52 L879.37 404.60 L883.55 407.61 L884.91 411.35 L884.58 415.46 L883.20 419.78 L886.49 423.11 L886.52 427.12 L890.69 430.37 L892.33 434.12 L893.96 437.89 L894.59 441.83 L893.96 445.94 L893.20 450.05 L891.25 454.26 L891.63 458.18 L892.00 462.10 L892.87 465.98 L892.94 469.93 L891.11 474.00 L895.78 477.67 L891.91 481.81 L895.10 485.62 L890.55 489.70 L888.32 493.64 L883.26 497.56 L945.09 500.00 L944.63 495.55 L939.12 491.22 L932.52 487.02 L932.32 482.70 L929.24 478.52 L928.56 474.26 L928.68 469.94 L925.90 465.86 L925.06 461.64 L923.98 457.46 L922.51 453.34 L921.51 449.17 L917.19 445.46 L916.49 441.31 L913.32 437.53 L912.62 433.41 L912.08 429.26 L912.11 425.01 L913.51 420.47 L912.51 416.38 L912.95 411.98 L909.97 408.32 L907.98 404.47 L909.29 399.84 L910.77 395.11 L912.55 390.25 L913.47 385.57 L909.52 382.24 L916.12 375.83 L914.22 371.87 L914.89 367.10 L914.12 362.76 L904.79 361.35 L900.62 358.28 L899.30 354.24 L893.96 351.71 L895.01 346.79 L890.90 343.87 L887.86 340.57 L885.77 336.90 L883.33 333.39 L880.89 329.90 L877.42 326.91 L873.31 324.25 L870.92 320.83 L867.55 317.90 L865.98 314.09 L863.97 310.52 L865.05 305.29 L862.13 302.17 L862.48 297.24 L858.80 294.57 L855.27 291.84 L852.69 288.58 L853.66 283.17 L853.01 278.68 L853.47 273.44 L851.04 270.01 L852.42 264.03 L852.28 258.99 L852.50 253.63 L849.06 250.80 L844.73 248.65 L835.09 250.51 L831.61 247.91 L828.35 245.17 L823.01 244.10 L822.86 238.91 L817.90 237.63 L814.62 235.00 L811.50 232.26 L808.07 229.81 L804.94 227.10 L799.84 226.22 L796.18 224.08 L792.14 222.33 L788.63 220.13 L786.09 216.99 L783.75 213.63 L782.99 208.63 L779.55 206.34 L778.03 202.03 L773.29 201.18 L769.30 199.56 L766.96 196.11 L766.09 190.92 L764.50 186.48 L763.20 181.61 L758.50 180.86 L760.20 172.10 L756.84 169.61 L755.31 164.71 L751.66 162.56 L744.90 164.67 L738.04 167.13 L734.69 164.78 L729.55 165.04 L726.32 162.57 L722.78 160.55 L718.14 160.26 L714.49 158.49 L710.71 156.94 L706.75 155.71 L702.99 154.19 L697.66 155.41 L694.38 153.14 L690.10 152.68 L686.48 151.05 L683.46 148.28 L679.83 146.68 L675.79 145.91 L673.28 142.00 L669.36 140.99 L666.00 138.81 L662.64 136.58 L659.70 133.37 L657.06 129.34 L654.36 125.33 L651.69 121.10 L652.05 108.91 L644.03 118.28 L641.72 112.72 L632.64 125.99 L626.36 132.05 L629.05 111.61 L621.08 123.03 L620.90 110.27 L613.35 121.25 L607.63 126.84 L609.11 106.98 L604.26 109.31 L602.82 98.66 L597.39 103.40 L592.44 106.62 L591.08 94.24 L585.23 101.67 L582.03 96.97 L575.67 108.23 L570.50 114.33 L567.21 110.30 L564.25 103.85 L559.90 105.82 L556.76 99.55 L552.12 103.77 L548.34 101.79 L544.54 99.69 L540.20 102.53 L536.20 102.45 L532.18 102.54 L528.75 94.51 L524.82 92.30 L520.54 95.90 L516.30 100.62 L511.84 115.56 L508.16 107.91 L504.33 98.67 L500.32 101.64 L496.26 93.41 L492.37 102.65 L488.20 96.22 L483.79 86.61 L480.00 93.90 L475.96 94.42 L472.88 108.76 L469.05 110.07 L464.00 97.49 L460.84 106.50 L456.19 100.40 L453.70 113.43 L450.88 121.91 L444.41 103.26 L441.98 114.03 L435.89 100.71 L433.62 111.46 L430.87 118.39 L427.30 120.33 L422.93 118.25 L419.23 119.55 L414.95 118.22 L411.55 120.90 L404.87 109.92 L403.37 120.29 L398.39 116.81 L397.58 128.77 L397.94 144.02 L388.61 125.62 L385.91 130.14 L378.98 121.15 L376.03 124.91 L375.60 135.87 L366.82 122.56 L363.64 125.50 L359.63 126.16 L356.91 130.22 L357.52 142.44 L350.67 135.90 L345.97 134.88 L343.37 138.83 L341.80 144.99 L344.77 160.82 L340.87 161.28 L334.56 156.82 L331.02 158.24 L325.46 155.71 L324.05 161.37 L321.25 164.24 L317.75 165.75 L313.58 166.11 L310.46 168.35 L306.52 169.19 L302.35 169.68 L293.41 162.45 L294.53 171.70 L289.23 170.59 L292.46 182.67 L290.72 186.89 L279.25 176.79 L279.16 183.49 L269.93 177.18 L273.74 189.16 L273.02 194.64 L261.63 185.92 L265.17 196.93 L258.27 194.38 L262.64 206.00 L264.62 214.34 L250.67 203.51 L252.66 211.77 L241.24 204.50 L237.70 206.43 L246.20 221.60 L228.99 208.62 L237.48 223.35 L231.93 223.10 L232.66 229.33 L236.50 238.50 L231.88 239.19 L228.77 241.39 L225.09 243.07 L222.52 245.82 L225.53 253.58 L214.28 248.60 L213.41 252.87 L211.70 256.38 L211.52 261.13 L216.74 270.19 L212.29 271.31 L200.21 266.57 L203.70 274.01 L193.99 271.41 L203.65 283.21 L195.03 281.54 L186.18 279.92 L190.77 287.72 L185.17 288.48 L194.79 299.34 L191.92 301.84 L179.04 298.06 L184.24 305.72 L177.88 306.21 L185.85 315.26 L187.28 320.28 L169.41 314.39 L171.54 319.88 L165.63 320.96 L172.69 328.93 L178.53 336.06 L161.96 331.85 L164.83 337.44 L156.67 337.70 L162.15 344.40 L165.61 350.03 L152.42 348.27 L155.72 353.80 L151.21 355.98 L160.57 363.80 L165.21 369.53 L151.70 368.26 L147.27 370.61 L137.76 371.21 L142.07 376.76 L145.95 382.04 L138.57 383.59 L139.48 387.85 L135.89 390.71 L140.46 395.99 L149.05 402.27 L139.92 403.60 L140.04 407.48 L140.40 411.39 L126.05 411.81 L147.58 420.60 L130.03 420.53 L131.96 424.78 L139.35 430.04 L134.31 432.85 L149.09 439.19 L143.13 441.82 L136.75 444.51 L140.04 448.69 L121.04 449.84 L137.76 455.74 L130.23 458.56 L125.51 461.82 L142.20 467.14 L136.86 470.30 L146.19 474.63 L151.91 478.53 L132.04 481.00 L142.87 485.14 L131.40 488.35 L143.32 492.30 L147.45 495.91 L130.60 499.41 L139.78 503.03 L132.08 506.77 L141.18 510.20 L148.06 513.52 L134.03 517.73 L141.27 520.98 L137.62 524.83 L149.43 527.54 L155.68 530.52 L142.67 535.28 L137.36 539.47 L132.18 543.76 L139.26 546.58 L152.15 548.46 L160.83 550.71 L166.01 553.35 L166.75 556.66 L158.80 561.53 L164.57 563.96 L146.15 571.14 L151.13 573.78 L153.12 576.99 L158.31 579.43 L165.29 581.34 L158.38 586.65 L151.67 592.07 L154.23 595.10 L150.11 600.01 L170.13 597.87 L168.34 602.02 L176.25 603.14 L179.10 605.78 L177.38 609.93 L177.49 613.51 L178.89 616.64 L184.42 618.21 L168.78 627.86 L181.40 626.67 L169.44 635.26 L180.10 634.65 L173.80 641.16 L185.55 639.83 L173.55 649.09 L188.12 646.22 L185.91 651.10 L192.84 651.58 L186.78 658.48 L192.05 659.70 L189.68 664.89 L190.98 668.18 L185.70 675.15 L191.10 676.21 L189.43 681.30 L196.18 681.46 L205.01 680.22 L196.49 689.61 L208.08 686.45 L201.05 695.18 L213.45 691.20 L213.00 695.68 L208.96 702.72 L210.00 706.34 L211.39 709.73 L213.03 712.95 L223.54 709.47 L214.43 720.90 L223.07 718.68 L221.25 724.68 L232.14 720.36 L237.08 720.74 L241.22 721.71 L239.14 728.06 L244.73 727.72 L243.07 733.85 L248.72 733.34 L251.30 735.63 L251.36 740.33 L256.24 740.37 L257.09 744.37 L261.42 744.87 L261.52 749.72 L260.79 755.54 L267.23 753.71 L269.86 755.93 L277.42 752.56 L283.83 750.29 L276.27 764.34 L284.95 759.29 L279.13 771.80 L288.31 765.89 L287.73 772.17 L285.58 780.66 L292.28 777.60 L293.92 781.23 L303.26 774.19 L309.24 771.56 L303.70 785.46 L310.40 781.71 L308.81 790.30 L315.11 786.94 L322.51 781.60 L319.05 793.56 L325.90 788.88 L322.40 801.46 L331.02 793.49 L330.66 801.06 L338.69 793.61 L337.15 803.55 L343.56 798.75 L344.28 804.76 L350.64 799.66 L347.89 812.98 L355.42 805.22 L356.06 811.88 L362.93 804.98 L367.64 802.56 L368.91 808.01 L370.84 812.10 L374.03 813.21 L376.27 816.77 L382.17 810.80 L382.28 820.11 L384.85 823.08 L389.45 820.25 L392.36 822.22 L399.11 812.40 L401.05 817.20 L402.51 823.86 L406.69 821.59 L410.19 821.50 L414.82 817.13 L419.88 810.69 L420.52 821.45 L425.25 815.84 L427.30 821.50 L431.92 815.73 L435.41 814.76 L438.65 814.92 L441.79 815.58 L444.98 816.00 L448.21 816.13 L451.49 815.88 L452.60 830.66 L456.88 823.79 L459.28 831.04 L463.31 825.08 L467.21 819.10 L469.14 833.07 L473.08 826.03 L475.72 834.85 L479.73 824.53 L482.99 824.46 L485.88 832.88 L489.26 831.56 L492.56 832.41 L495.90 830.65 L499.24 817.99 L502.54 833.64 L505.75 826.26 L509.21 833.49 L512.72 838.00 L515.45 824.35 L519.37 835.85 L522.15 827.14 L525.13 823.18 L528.36 822.93 L530.88 815.39 L534.19 816.53 L537.75 819.50 L540.80 817.99 L544.29 819.82 L546.29 811.30 L550.57 818.17 L553.99 819.09 L558.00 823.13 L560.59 819.18 L563.28 816.02 L564.41 805.78 L569.98 816.50 L570.30 803.52 L575.91 813.43 L576.32 801.88 L580.53 805.67 L586.09 813.98 L587.74 807.90 L591.99 810.97 L592.33 801.03 L593.88 795.50 L601.24 807.95 L600.89 796.86 L606.04 802.06 L606.69 794.47 L607.54 787.78 L615.21 799.15 L616.85 794.58 L621.84 798.42 L621.34 788.92 L623.41 785.81 L629.44 791.73 L632.33 790.38 L635.76 790.16 L637.47 786.33 L635.67 775.49 L644.65 786.46 L645.13 780.40 L650.43 783.67 L647.92 772.31 L648.52 767.01 L653.99 770.45 L658.96 772.79 L665.38 777.40 L666.31 772.71 L667.87 769.19 L671.99 769.74 L674.76 768.14 L677.61 766.64 L678.50 762.25 L675.40 752.24 L681.09 754.94 L684.57 754.41 L686.07 751.16 L696.02 759.14 L689.86 745.84 L695.45 747.91 L699.57 748.00 L694.16 736.39 L701.21 740.05 L695.27 728.28 L698.30 727.18 L705.62 730.87 L703.73 724.19 L717.77 734.89 L712.34 724.48 L712.91 720.62 L722.64 726.13 L715.06 714.11 L721.86 716.50 L723.39 713.68 L718.54 704.90 L731.29 712.54 L725.28 702.90 L734.45 706.95 L727.63 696.92 L730.34 695.27 L739.14 698.66 L738.45 694.09 L742.10 693.06 L741.58 688.73 L734.64 679.55 L748.47 686.23 L744.51 679.47 L752.73 681.64 L746.74 673.62 L746.19 669.58 L752.06 669.93 L756.92 669.50 L760.10 667.89 L760.87 664.71 L757.75 659.16 L755.84 654.47 L757.90 652.21 L756.03 647.68 L761.11 647.15 L756.64 641.26 L769.73 644.97 L768.31 640.77 L771.00 638.74 L767.46 633.58 L767.59 630.31 L765.71 626.13 L777.33 628.26 L771.90 622.46 L781.58 623.45 L770.26 615.28 L774.93 614.03 L770.79 609.16 L773.02 606.90 L773.42 603.91 L776.73 602.02 L776.93 598.95 L775.85 595.47 L784.81 595.39 L778.01 590.03 L785.16 589.21 L776.41 583.44 L785.77 583.16 L774.96 577.04 L788.53 577.74 L778.72 572.12 L783.59 570.36 L779.08 566.28 L788.87 565.56 L785.94 561.90 L791.28 560.01 L791.69 557.06 L799.61 555.51 L792.57 551.18 L797.17 548.93 L786.50 544.23 L783.40 540.86 L790.40 538.91 L785.83 535.39 L790.44 533.01 L784.05 529.41 L781.72 526.33 L790.29 524.20 L792.29 521.43 L792.23 518.49 L794.36 515.67 L784.60 512.30 L794.37 509.77 L791.83 506.77 L793.15 503.87 L785.28 500.91 L782.58 498.07 L777.28 495.34 L784.90 492.36 L779.50 489.71 L785.24 486.64 L780.50 484.05 L780.46 481.23 L781.10 478.37 L780.87 475.55 L779.44 472.86 L778.85 470.10 L776.54 467.55 L786.93 463.42 L776.76 461.90 L781.07 458.44 L771.97 457.00 L761.74 455.93 L779.36 450.08 L767.55 449.43 L782.62 443.65 L771.33 443.07 L775.86 439.24 L782.38 434.83 L778.06 432.89 L777.40 430.11 L769.21 429.30 L757.94 429.50 L772.58 422.56 L765.57 421.67 L772.71 416.59 L764.86 416.09 L759.35 414.97 L763.64 410.64 L762.68 408.02 L767.48 403.33 L762.28 402.23 L762.95 398.97 L755.95 398.71 L759.07 394.47 L754.78 393.24 L756.65 389.42 L749.97 389.33 L757.21 383.03 L752.05 382.32 L751.74 379.38 L745.75 379.22 L740.74 378.68 L736.57 377.80 L745.45 370.08 L737.60 371.18 L744.60 364.20 L733.15 367.49 L737.83 361.67 L741.62 356.21 L735.09 356.90 L736.23 352.94 L726.65 355.74 L722.52 355.23 L730.75 346.56 L723.97 347.82 L724.00 344.50 L718.17 345.29 L710.00 347.91 L715.94 340.29 L710.30 341.19 L711.01 337.31 L705.55 338.22 L701.74 337.92 L698.87 336.92 L697.69 334.56 L695.31 333.20 L693.26 331.58 L691.88 329.38 L699.94 318.60 L694.55 319.91 L697.63 313.36 L690.98 315.99 L684.94 318.21 L690.69 308.77 L686.19 309.50 L688.23 303.53 L681.26 306.98 L676.69 308.03 L680.22 300.22 L679.26 297.25 L676.18 296.68 L674.72 294.23 L662.73 304.42 L669.24 292.41 L665.26 293.10 L666.25 287.54 L668.79 279.79 L658.93 288.31 L660.41 281.82 L657.55 281.16 L648.47 289.37 L650.01 282.60 L641.57 290.38 L640.82 286.92 L639.75 283.87 L638.22 281.47 L636.27 279.71 L631.94 281.87 L630.56 279.19 L632.01 271.55 L628.42 272.55 L627.43 268.93 L624.01 269.72 L616.00 279.34 L620.95 264.23 L612.40 275.39 L615.88 262.53 L608.62 271.64 L608.14 266.67 L609.03 258.43 L604.76 261.56 L603.43 258.05 L598.87 262.16 L592.93 269.99 L596.43 254.29 L590.77 261.73 L590.81 254.27 L585.56 261.16 L581.75 264.39 L581.60 257.02 L579.61 254.85 L577.04 254.42 L573.09 258.57 L568.80 264.27 L568.73 255.44 L566.58 253.69 L564.46 251.68 L561.38 253.43 L556.27 263.90 L556.73 250.95 L553.78 252.50 L551.95 248.86 L547.98 255.79 L544.45 261.13 L542.27 259.49 L541.41 249.76 L539.17 247.65 L536.75 246.56 L533.44 251.89 L531.21 249.54 L529.09 245.85 L526.48 246.22 L523.85 247.01 L520.75 253.53 L518.15 255.16 L516.21 247.07 L513.35 252.98 L511.55 237.53 L508.50 249.92 L505.91 253.51 L503.60 242.64 L500.95 260.17 L498.47 246.04 L496.12 257.89 L493.68 257.30 L491.00 250.28 L488.59 252.24 L485.58 242.81 L483.12 244.68 L481.31 254.60 L477.67 241.08 L476.36 254.60 L473.32 249.30 L471.69 257.07 L469.86 262.07 L466.33 253.98 L464.63 259.50 L461.28 253.81 L460.18 262.34 L458.33 265.73 L454.28 257.05 L452.39 260.25 L449.99 260.70 L447.72 261.78 L448.44 275.78 L442.79 262.13 L441.30 266.21 L437.67 261.90 L437.32 269.96 L436.52 275.89 L433.59 274.17 L429.38 268.43 L426.63 267.77 L424.30 268.49 L425.38 279.28 L424.87 284.89 L424.04 289.30 L422.13 290.60 L417.64 285.11 L416.63 288.82 L412.40 284.45 L407.00 277.58 L408.37 286.85 L405.26 285.56 L405.56 291.89 L406.58 299.49 L396.56 283.66 L399.10 294.29 L390.87 283.03 L395.09 296.51 L394.01 299.36 L394.14 304.39 L391.17 303.61 L390.11 306.28 L385.80 303.31 L384.61 305.76 L383.69 308.59 L377.46 302.80 L376.74 305.99 L374.46 306.71 L373.83 309.93 L370.87 309.63 L371.87 315.11 L364.09 308.01 L365.54 314.03 L363.96 315.75 L363.99 319.60 L359.76 317.81 L357.05 318.09 L354.63 318.77 L350.46 317.33 L350.83 321.47 L352.40 326.89 L349.34 326.84 L353.37 334.83 L349.10 333.42 L350.35 338.08 L347.71 338.49 L349.45 343.50 L346.82 343.91 L347.96 348.15 L346.04 349.28 L345.02 351.28 L343.02 352.35 L340.79 353.22 L341.01 356.34 L336.51 355.22 L339.78 360.95 L334.48 359.23 L337.86 364.87 L333.16 363.76 L336.77 369.40 L330.05 366.79 L334.32 372.80 L326.28 369.36 L331.35 375.80 L324.14 373.18 L329.50 379.62 L323.60 378.08 L326.72 382.78 L323.55 383.19 L323.99 386.00 L321.74 387.05 L322.08 389.74 L320.75 391.38 L319.93 393.33 L320.15 395.88 L317.69 396.87 L318.03 399.46 L314.03 399.66 L317.30 403.77 L311.68 403.20 L317.20 408.34 L311.09 407.63 L316.35 412.47 L309.65 411.60 L315.11 416.37 L307.53 415.25 L312.67 419.74 L305.63 419.02 L310.75 423.36 L305.19 423.37 L310.42 427.60 L305.86 428.08 L308.22 431.13 L306.82 432.80 L307.24 435.10 L307.65 437.37 L306.92 439.26 L308.42 441.83 L304.26 442.70 L307.98 445.87 L302.43 446.43 L306.59 449.63 L301.00 450.29 L307.10 453.86 L299.90 454.25 L307.57 458.02 L300.59 458.59 L306.98 461.92 L298.80 462.39 L306.09 465.76 L297.61 466.35 L304.08 469.43 L298.37 470.60 L303.04 473.29 L299.23 474.82 L304.30 477.44 L300.77 479.05 L304.36 481.40 L303.53 483.30 L303.89 485.31 L305.49 487.38 L303.65 489.23 L307.35 491.37 L302.04 493.11 L307.98 495.24 L300.62 497.05 L307.06 499.08 L301.12 501.04 L308.88 502.91 L301.47 505.01 L310.04 506.69 L302.74 508.93 L309.38 510.54 L303.36 512.84 L309.90 514.33 L303.16 516.82 L308.44 518.30 L304.83 520.61 L307.56 522.27 L306.74 524.33 L309.49 525.92 L309.20 527.90 L310.46 529.66 L312.06 531.34 L310.67 533.52 L314.01 534.85 L311.90 537.19 L316.93 538.11 L313.29 540.82 L319.17 541.43 L313.30 544.74 L319.88 545.08 L313.27 548.72 L322.07 548.33 L313.67 552.62 L322.99 551.90 L317.61 555.47 L322.34 555.97 L319.78 558.77 L322.89 559.72 L320.05 562.69 L324.04 563.28 L323.66 565.41 L325.50 566.73 L327.30 568.02 L327.16 570.08 L330.51 570.71 L328.12 573.73 L333.66 573.33 L329.76 577.09 L336.22 576.15 L332.18 580.08 L338.86 578.88 L332.64 584.01 L339.74 582.46 L334.56 587.23 L341.10 585.82 L338.24 589.47 L344.59 588.00 L340.11 592.66 L346.30 591.14 L343.04 595.21 L346.93 594.95 L346.25 597.52 L348.71 598.09 L348.84 600.17 L350.04 601.55 L351.95 602.42 L352.04 604.57 L355.02 604.65 L355.08 606.83 L359.52 605.73 L355.74 610.86 L362.57 607.81 L358.12 613.61 L364.65 610.63 L360.47 616.39 L367.35 612.92 L361.56 620.25 L369.71 615.48 L365.59 621.56 L372.15 617.97 L369.90 622.48 L374.41 620.62 L372.36 625.07 L377.18 622.78 L375.77 626.69 L379.17 625.72 L379.35 628.07 L381.02 628.85 L383.05 629.22 L384.22 630.54 L387.52 629.40 L387.07 632.57 L390.92 630.67 L390.28 634.14 L394.91 631.14 L392.90 636.42 L398.38 632.14 L395.98 638.10 L400.86 634.39 L399.10 639.69 L403.62 636.28 L399.85 644.65 L405.11 640.02 L403.03 646.22 L407.60 642.41 L407.82 645.23 L411.02 643.33 L411.18 646.32 L413.96 644.99 L414.73 647.02 L416.75 646.90 L417.87 648.36 L419.72 648.51 L422.00 647.80 L422.69 650.12 L426.64 646.02 L425.15 652.78 L429.73 647.12 L429.10 652.34 L433.22 647.33 L433.21 651.35 L436.82 647.14 L436.38 652.35 L439.45 649.17 L439.29 653.98 L442.43 650.41 L441.74 656.90 L445.47 651.46 L445.33 656.74 L448.29 653.16 L449.29 655.31 L451.15 654.87 L452.77 655.13 L453.63 657.94 L456.10 655.26 L456.61 659.53 L459.22 656.08 L460.41 657.96 L462.84 654.82 L463.55 658.83 L466.57 652.67 L466.24 661.88 L469.67 653.11 L469.85 660.58 L472.84 653.11 L473.24 660.15 L475.81 654.25 L476.51 660.21 L478.78 655.56 L479.81 659.92 L481.91 655.80 L483.07 659.80 L485.03 656.11 L486.51 657.29 L488.18 656.17 L489.77 655.79 L491.33 655.91 L492.95 654.53 L494.41 656.97 L496.09 652.86 L497.53 658.42 L499.15 652.41 L500.70 657.22 L502.18 651.37 L503.82 656.51 L505.15 649.58 L506.99 657.34 L508.10 648.74 L510.03 655.52 L511.01 647.73 L513.21 656.07 L514.13 649.15 L516.29 655.48 L517.33 650.78 L519.21 653.55 L520.40 650.84 L522.19 652.56 L523.39 650.26 L524.73 649.02 L526.41 649.85 L527.42 647.00 L529.35 649.06 L530.10 645.16 L532.26 648.13 L532.53 642.52 L535.48 648.55 L535.17 641.00 L538.24 647.04 L537.89 639.94 L541.02 645.72 L540.43 638.29 L543.94 644.91 L543.13 637.26 L546.01 641.46 L545.95 636.63 L548.52 639.64 L549.20 637.16 L551.64 639.55 L552.38 637.31 L554.16 637.83 L554.49 634.70 L555.95 634.41 L556.64 632.32 L557.09 629.78 L559.88 632.50 L558.98 627.11 L562.78 631.84 L561.43 625.75 L564.96 629.67 L563.75 624.14 L567.60 628.46 L565.93 622.29 L570.33 627.40 L567.87 620.09 L572.96 626.13 L570.03 618.32 L574.57 623.15 L572.62 617.28 L575.20 618.78 L574.71 615.44 L577.09 616.54 L578.11 615.55 L579.15 614.60 L580.57 614.19 L580.89 612.25 L581.49 610.73 L581.64 608.65 L582.99 608.17 L581.42 603.96 L585.40 606.82 L581.98 600.47 L586.35 603.69 L583.39 598.12 L586.49 599.73 L584.55 595.55 L587.39 596.78 L584.75 592.00 L588.29 593.93 L585.15 588.79 L588.71 590.68 L586.26 586.43 L588.10 586.52 L587.32 584.06 L587.90 582.94 L587.86 581.26 L588.59 580.31 L588.23 578.39 L588.78 577.30 L588.83 575.80 L588.59 574.07 L589.61 573.41 L588.79 571.27 L590.32 571.02 L589.38 568.85 L590.76 568.48 L589.87 566.41 L590.95 565.81 L590.26 563.95 L591.28 563.30 L590.71 561.58 L591.74 560.95 L591.21 559.29 L592.16 558.60 L591.73 557.05 L592.38 556.18 L592.21 554.82 L592.58 553.79 L592.71 552.63 L592.90 551.52 L593.09 550.42 L593.25 549.31 L593.34 548.17 L593.46 547.05 L593.64 545.97 L593.65 544.82 L594.13 543.90 L593.98 542.69 L594.46 541.77 L594.32 540.59 L594.55 539.57 L594.52 538.45 L594.68 537.42 L594.67 536.32 L594.94 535.34 L594.81 534.22 L595.05 533.23 L594.95 532.14 L595.05 531.12 L595.08 530.08 L595.08 529.03 L595.13 528.01 L595.15 526.99 L595.12 525.95 L595.13 524.94 L595.07 523.91 L595.04 522.89 L595.04 521.89 L594.95 520.87 L594.95 519.88 L594.84 518.87 L594.78 517.87 L594.67 516.87 L594.57 515.88 L594.44 514.89 L594.32 513.90 L594.18 512.92 L594.04 511.95 L593.90 510.98 L593.75 510.01 L593.59 509.05 L593.43 508.09 L593.25 507.14 L593.06 506.19 L592.86 505.24 L592.65 504.30 L592.44 503.36 L592.21 502.43 L591.98 501.51 L591.73 500.58 Z"/>
  <svg class="pausebutton" id="pausebutton">
    <circle cx="500" cy="500" id="pausestart" class="pausestart" r="52.65"/>
    <rect height="50.02" width="10.00" y="473.68" rx="2.00" ry="2.00" x="479.99" class="pausesymbol"/>
    <rect height="50.02" width="10.00" y="473.68" rx="2.00" ry="2.00" x="510.00" class="pausesymbol"/>
    <polygon points="530.01,500 479.99,530.01 479.99,469.99" class="playsymbol"/>
  </svg>
  <polygon id="playback-head" class="playback-head" points="912.475,500 892.475,540 932.475,540"/>
</svg>