<?xml-stylesheet href="../../style/waveformjs.css" type="text/css"?>
<svg xmlns="http://www.w3.org/2000/svg" xmlns:xlink="http://www.w3.org/1999/xlink" width="100%" height="100%" viewBox="0 0 1000 1000">
  <path class="svg-wave" id="sp" d="M598.02 500.00 L598.19 500.98 L598.36 501.97 L598.52 502.96 L598.66 503.95 L598.80 504.94 L598.93 505.94 L599.05 506.94 L599.15 507.95 L599.25 508.96 L599.34 509.97 L599.41 510.98 L599.48 512.00 L599.53 513.01 L599.58 514.03 L599.60 515.05 L599.60 516.07 L599.61 517.10 L599.60 518.12 L599.56 519.15 L599.56 520.18 L599.51 521.21 L599.46 522.24 L599.40 523.27 L599.34 524.31 L599.27 525.35 L599.17 526.38 L599.03 527.41 L598.90 528.44 L598.80 529.48 L598.58 530.49 L598.40 531.52 L598.36 532.60 L598.14 533.61 L597.97 534.66 L597.85 535.72 L597.64 536.75 L597.44 537.79 L597.21 538.83 L596.97 539.86 L596.73 540.90 L596.41 541.90 L596.11 542.92 L595.90 543.98 L595.45 544.94 L595.03 545.90 L594.97 547.05 L594.55 548.03 L594.15 549.02 L593.97 550.12 L593.61 551.14 L593.24 552.16 L592.88 553.18 L592.47 554.18 L592.07 555.19 L591.60 556.16 L591.10 557.11 L590.64 558.10 L590.17 559.08 L589.52 559.94 L589.19 561.02 L588.80 562.06 L588.15 562.93 L587.93 564.11 L587.40 565.07 L586.85 566.03 L586.32 567.00 L585.79 567.97 L585.26 568.95 L584.67 569.88 L583.95 570.71 L583.30 571.60 L582.77 572.60 L581.86 573.26 L581.11 574.06 L580.90 575.37 L580.07 576.10 L579.44 577.03 L579.05 578.20 L578.33 579.05 L577.67 579.97 L576.97 580.85 L576.25 581.72 L575.56 582.62 L574.68 583.32 L573.88 584.10 L573.31 585.15 L572.20 585.58 L571.14 586.06 L571.00 587.66 L569.99 588.20 L569.06 588.83 L568.64 590.14 L567.83 590.95 L567.02 591.77 L566.25 592.64 L565.37 593.38 L564.54 594.18 L563.59 594.81 L562.57 595.34 L561.67 596.05 L560.80 596.80 L559.58 597.01 L558.87 598.03 L558.17 599.09 L557.01 599.38 L556.53 600.88 L555.58 601.54 L554.58 602.13 L553.66 602.88 L552.72 603.59 L551.79 604.33 L550.79 604.94 L549.64 605.23 L548.60 605.74 L547.70 606.59 L546.36 606.44 L545.21 606.69 L544.67 608.43 L543.45 608.54 L542.42 609.12 L541.67 610.45 L540.58 610.91 L539.56 611.55 L538.49 612.08 L537.41 612.59 L536.36 613.19 L535.16 613.36 L534.02 613.68 L533.03 614.53 L531.71 614.22 L530.41 613.95 L529.72 616.01 L528.45 615.86 L527.24 615.91 L526.35 617.38 L525.20 617.78 L524.07 618.24 L522.94 618.77 L521.76 619.05 L520.61 619.47 L519.40 619.60 L518.16 619.52 L516.98 619.77 L515.80 620.13 L514.51 619.54 L513.37 620.21 L512.26 621.20 L511.00 620.77 L509.91 622.34 L508.69 622.53 L507.46 622.60 L506.25 622.97 L505.03 623.21 L503.81 623.54 L502.57 623.67 L501.33 623.31 L500.10 623.28 L498.86 623.80 L497.64 622.80 L496.43 622.37 L495.13 624.23 L493.91 623.65 L492.67 623.74 L491.34 624.95 L490.09 624.90 L488.81 625.13 L487.54 625.16 L486.28 625.17 L484.99 625.31 L483.77 624.88 L482.54 624.63 L481.22 624.91 L480.09 624.03 L478.99 623.01 L477.36 624.97 L476.23 624.14 L475.08 623.46 L473.51 624.76 L472.24 624.59 L470.94 624.56 L469.62 624.56 L468.36 624.32 L467.06 624.21 L465.85 623.78 L464.71 623.09 L463.47 622.78 L462.17 622.63 L461.24 621.35 L459.87 621.41 L458.29 622.10 L457.29 621.04 L455.49 622.24 L454.22 621.92 L453.01 621.44 L451.66 621.30 L450.38 620.99 L449.05 620.78 L447.81 620.34 L446.79 619.40 L445.64 618.78 L444.20 618.77 L443.52 617.15 L442.59 616.10 L440.44 617.49 L439.56 616.33 L438.34 615.81 L436.49 616.48 L435.31 615.86 L433.99 615.51 L432.77 614.96 L431.56 614.39 L430.28 613.91 L429.36 612.88 L428.33 612.02 L427.00 611.62 L426.30 610.26 L425.79 608.65 L423.18 610.10 L422.52 608.71 L421.84 607.38 L419.57 608.20 L418.44 607.46 L417.24 606.81 L415.99 606.22 L414.85 605.47 L413.67 604.76 L412.74 603.77 L412.05 602.49 L411.05 601.58 L409.94 600.79 L409.77 598.98 L408.47 598.41 L406.49 598.54 L406.10 596.99 L403.69 597.51 L402.58 596.68 L401.75 595.58 L400.58 594.79 L399.55 593.88 L398.35 593.11 L397.38 592.13 L396.93 590.69 L396.14 589.56 L394.62 589.05 L394.99 586.95 L394.76 585.38 L391.62 586.14 L391.42 584.55 L390.58 583.46 L388.20 583.52 L387.38 582.39 L386.38 581.39 L385.33 580.42 L384.51 579.28 L383.63 578.19 L383.23 576.77 L382.65 575.48 L381.47 574.58 L381.59 572.86 L382.09 570.94 L378.34 571.54 L378.46 569.84 L378.75 568.08 L375.82 568.10 L375.08 566.89 L374.24 565.73 L373.30 564.61 L372.61 563.37 L371.83 562.16 L371.18 560.90 L371.23 559.31 L370.69 557.99 L369.85 556.81 L370.62 554.94 L370.04 553.66 L367.50 553.17 L367.95 551.46 L365.30 550.94 L364.51 549.70 L364.33 548.24 L363.69 546.93 L364.42 545.17 L367.60 542.64 L372.06 539.80 L373.29 538.03 L376.33 535.78 L381.37 533.03 L382.78 531.38 L380.93 530.61 L379.86 529.60 L381.31 527.99 L378.83 527.30 L378.55 526.09 L380.41 524.44 L378.91 523.49 L378.74 522.27 L378.89 520.99 L374.92 520.39 L377.95 518.64 L377.52 517.46 L372.50 516.88 L374.49 515.34 L376.18 513.87 L371.47 513.10 L372.01 511.76 L372.41 510.43 L364.48 509.72 L365.25 508.31 L359.26 507.27 L351.61 506.18 L352.64 504.66 L352.08 503.19 L355.52 501.68 L363.94 500.22 L367.71 498.89 L369.44 497.60 L371.88 496.36 L366.97 494.89 L364.90 493.46 L363.80 492.04 L363.42 490.64 L365.11 489.40 L362.62 487.82 L365.02 486.67 L366.59 485.48 L363.74 483.79 L366.49 482.76 L371.04 482.04 L372.29 480.91 L371.80 479.52 L372.05 478.25 L371.76 476.87 L369.95 475.20 L364.90 472.84 L370.47 472.61 L369.22 470.97 L365.76 468.79 L371.71 468.82 L369.10 466.80 L362.76 463.73 L365.32 462.96 L364.36 461.23 L363.72 459.57 L366.55 458.95 L365.79 457.24 L368.22 456.56 L373.17 456.78 L370.69 454.49 L370.84 453.09 L375.81 453.48 L371.96 450.57 L367.88 447.47 L366.62 445.42 L357.73 440.12 L358.20 438.64 L363.12 439.14 L364.66 438.19 L366.56 437.44 L368.52 436.75 L366.28 434.01 L365.69 432.04 L364.92 429.95 L361.06 426.17 L365.84 426.98 L371.00 428.11 L374.93 428.65 L375.52 427.33 L374.55 425.07 L378.13 425.55 L378.38 424.02 L378.69 422.52 L381.83 422.85 L386.21 424.08 L387.30 423.16 L387.83 421.87 L387.67 420.08 L389.44 419.66 L390.75 418.93 L390.36 416.92 L389.92 414.85 L388.67 412.09 L391.16 412.27 L388.96 408.65 L385.59 403.94 L387.20 403.36 L388.59 402.60 L386.78 399.00 L390.25 400.11 L391.66 399.39 L390.10 395.88 L394.58 398.10 L396.34 397.78 L395.16 394.53 L398.20 395.52 L400.40 395.71 L397.72 390.73 L397.97 388.79 L394.77 382.98 L390.61 375.87 L392.44 375.46 L394.06 374.83 L397.71 376.67 L404.77 382.81 L407.68 384.05 L410.37 385.08 L413.49 386.76 L412.29 382.79 L412.43 380.50 L412.67 378.29 L414.09 377.70 L415.70 377.40 L414.25 372.59 L416.78 373.64 L418.96 374.23 L417.29 368.78 L420.73 371.40 L424.63 374.94 L425.30 373.21 L427.05 373.29 L428.35 372.63 L429.56 371.79 L429.43 368.46 L427.07 360.72 L429.40 361.83 L430.20 359.96 L429.93 355.83 L433.46 359.52 L434.91 358.97 L434.99 355.36 L437.60 357.37 L438.58 355.68 L439.33 353.40 L441.90 355.53 L442.87 353.74 L444.53 353.69 L447.18 356.38 L447.85 353.68 L449.03 352.35 L451.69 355.37 L452.17 351.89 L452.77 348.61 L454.57 349.09 L455.19 345.56 L457.23 346.90 L458.88 346.89 L460.57 347.10 L463.63 352.92 L465.15 352.73 L466.39 351.36 L468.09 352.01 L468.95 348.67 L469.83 345.12 L471.02 342.86 L471.99 339.15 L474.13 342.07 L475.72 341.92 L477.01 339.60 L479.08 342.92 L480.61 342.35 L481.92 339.83 L483.94 343.65 L485.80 346.75 L487.31 346.31 L488.89 346.76 L490.36 345.73 L491.95 346.48 L493.44 345.40 L494.97 344.78 L496.57 346.64 L498.07 344.60 L499.63 344.04 L501.17 346.04 L502.73 344.79 L504.29 344.58 L505.82 345.32 L507.53 341.98 L508.97 344.52 L510.56 344.06 L512.52 338.99 L513.88 342.01 L515.20 344.77 L517.27 340.12 L519.09 338.46 L520.66 338.97 L522.82 335.22 L524.76 333.51 L526.66 332.23 L527.78 335.79 L528.90 338.98 L530.26 340.63 L530.92 345.55 L532.04 347.89 L533.87 346.84 L535.07 348.60 L536.77 348.19 L538.49 347.76 L540.32 346.97 L542.45 345.19 L543.85 346.12 L544.93 348.11 L547.29 345.82 L548.87 346.17 L550.26 347.12 L552.28 346.16 L553.85 346.60 L554.75 348.90 L556.98 347.53 L558.31 348.59 L559.77 349.30 L561.32 349.81 L562.73 350.65 L565.09 349.25 L565.46 352.48 L566.77 353.50 L569.54 351.36 L570.14 353.92 L571.17 355.49 L573.61 354.23 L574.29 356.47 L576.39 355.95 L578.52 355.45 L579.02 357.93 L581.89 356.18 L584.22 355.46 L584.60 358.10 L585.80 359.30 L588.33 358.36 L589.04 360.35 L592.09 358.70 L595.38 356.82 L596.59 358.09 L599.86 356.39 L599.52 359.89 L599.60 362.70 L599.66 365.47 L598.38 369.94 L599.52 371.13 L600.50 372.53 L602.56 372.55 L604.16 373.19 L605.54 374.09 L608.32 373.36 L611.53 372.23 L610.59 375.83 L611.75 377.02 L615.33 375.61 L615.78 377.60 L615.70 380.10 L618.90 379.23 L621.35 379.18 L622.05 380.90 L624.24 381.16 L625.42 382.41 L628.77 381.67 L629.06 383.76 L629.59 385.61 L630.33 387.25 L630.96 388.98 L631.95 390.39 L633.30 391.50 L634.55 392.70 L635.64 394.03 L637.06 395.11 L640.38 394.78 L645.34 393.32 L645.81 395.20 L646.58 396.86 L652.24 395.14 L650.67 398.42 L645.97 403.70 L647.12 405.04 L650.29 405.11 L651.77 406.28 L657.03 405.19 L660.33 405.37 L665.66 404.45 L665.73 406.60 L662.57 410.51 L660.38 413.80 L656.26 418.02 L654.38 420.96 L654.46 422.86 L654.20 424.91 L656.87 425.54 L658.34 426.77 L659.50 428.16 L663.67 428.24 L663.14 430.41 L663.09 432.35 L665.77 433.18 L666.42 434.84 L667.20 436.46 L666.77 438.52 L670.86 438.95 L674.55 439.59 L676.60 440.85 L678.27 442.27 L681.57 443.20 L680.23 445.59 L678.46 448.07 L676.10 450.66 L674.59 452.96 L674.13 454.95 L674.95 456.60 L675.34 458.36 L675.70 460.12 L676.27 461.84 L677.82 463.36 L681.20 464.55 L683.55 465.99 L683.36 467.92 L686.54 469.29 L687.70 471.02 L685.55 473.25 L681.18 475.73 L682.70 477.38 L684.74 479.00 L688.98 480.43 L690.88 482.16 L694.64 483.77 L699.10 485.40 L695.18 487.65 L691.10 489.83 L687.44 491.90 L682.63 493.94 L681.16 495.80 L679.51 497.63 L680.16 499.43 L682.78 501.25 L681.73 503.06 L684.65 504.95 L688.74 506.95 L685.29 508.68 L685.99 510.58 L687.52 512.55 L687.81 514.46 L684.88 516.09 L685.92 518.06 L688.70 520.23 L687.36 521.99 L686.75 523.81 L688.49 525.95 L686.61 527.60 L683.37 528.99 L683.05 530.82 L683.49 532.79 L680.78 534.17 L682.17 536.32 L683.03 538.40 L680.73 539.81 L681.21 541.82 L681.74 543.86 L680.72 545.53 L682.98 548.05 L680.64 549.37 L680.58 551.30 L684.54 554.43 L681.67 555.56 L678.67 556.61 L681.72 559.58 L681.10 561.39 L677.83 562.27 L681.22 565.50 L675.55 565.44 L676.32 567.74 L678.13 570.49 L672.94 570.44 L672.65 572.35 L673.03 574.55 L670.29 575.40 L670.40 577.49 L670.83 579.76 L670.48 581.68 L670.78 583.93 L670.32 585.83 L671.96 588.83 L669.49 589.71 L666.67 590.36 L667.91 593.22 L667.55 595.23 L666.55 596.87 L665.83 598.68 L665.80 600.93 L664.72 602.54 L665.42 605.29 L662.73 605.87 L661.51 607.40 L661.49 609.73 L657.95 609.65 L658.61 612.47 L656.65 613.45 L655.05 614.67 L656.49 618.18 L653.81 618.59 L652.04 619.67 L652.84 622.79 L650.50 623.41 L649.99 625.52 L650.29 628.34 L647.20 628.28 L647.91 631.53 L647.89 634.17 L645.06 634.28 L642.86 634.92 L643.41 638.17 L641.15 638.74 L639.68 640.08 L638.49 641.69 L635.04 640.95 L635.91 644.73 L633.56 645.10 L630.75 644.94 L630.34 647.42 L628.07 647.81 L625.71 648.05 L624.73 649.91 L623.30 651.24 L622.35 653.17 L621.33 655.06 L620.93 657.77 L620.98 661.15 L617.82 660.25 L616.07 661.23 L616.11 664.73 L613.79 664.91 L611.65 665.33 L612.07 669.58 L611.90 673.06 L610.76 675.12 L608.05 674.67 L606.45 675.99 L606.03 679.32 L601.33 675.36 L598.37 674.22 L598.39 678.42 L595.22 676.82 L593.48 677.82 L592.81 680.92 L589.99 679.83 L588.72 681.82 L587.36 683.67 L584.35 682.01 L582.39 682.53 L580.70 683.66 L579.04 684.89 L577.90 687.38 L576.45 689.20 L574.39 689.56 L573.62 693.26 L571.77 694.22 L569.71 694.59 L568.56 697.59 L564.94 693.38 L564.08 697.32 L562.37 698.81 L558.87 694.46 L557.00 695.30 L555.34 696.89 L552.71 695.00 L550.81 695.72 L549.09 697.18 L547.04 697.36 L545.64 700.33 L543.64 700.84 L542.11 703.59 L540.15 704.38 L537.65 702.33 L536.01 704.87 L534.11 706.17 L532.14 707.08 L530.00 706.88 L528.12 708.65 L526.02 708.82 L524.09 710.45 L521.81 709.00 L519.70 709.03 L517.78 711.17 L515.41 707.94 L513.44 709.80 L511.30 709.05 L509.15 707.96 L507.17 710.79 L505.01 708.74 L502.91 708.28 L500.84 711.08 L498.74 709.78 L496.61 711.78 L494.44 713.78 L492.38 711.46 L490.15 713.79 L487.90 715.86 L485.85 713.97 L483.84 712.12 L481.49 714.65 L479.40 713.90 L477.29 713.41 L475.11 713.61 L473.35 710.37 L470.76 713.66 L468.92 711.31 L467.23 708.35 L464.74 710.40 L462.87 708.77 L460.97 707.38 L458.43 709.33 L456.53 708.01 L454.11 709.10 L451.89 709.22 L449.43 710.25 L446.58 712.75 L444.96 710.27 L442.89 709.59 L440.17 711.25 L437.82 711.43 L436.46 708.34 L433.85 709.37 L431.02 710.95 L429.35 708.98 L427.35 708.01 L424.68 708.93 L422.58 708.21 L420.90 706.36 L418.69 705.94 L416.58 705.27 L415.05 703.17 L412.82 702.78 L410.29 703.05 L408.69 701.20 L406.68 700.28 L404.55 699.63 L402.26 699.27 L399.97 698.87 L399.19 695.53 L397.49 694.04 L393.50 696.80 L392.45 694.09 L391.13 691.92 L387.93 693.04 L385.97 691.96 L384.93 689.38 L381.77 690.25 L382.12 685.54 L380.09 684.62 L376.50 686.04 L376.90 681.48 L375.40 679.80 L372.87 679.58 L372.17 676.79 L370.70 675.12 L368.34 674.63 L366.30 673.69 L362.88 674.50 L361.12 673.14 L358.09 673.34 L355.50 672.94 L355.65 669.30 L353.09 668.85 L350.96 667.88 L349.49 666.16 L347.36 665.16 L345.18 664.20 L342.97 663.24 L340.20 662.82 L339.78 660.02 L338.47 658.13 L335.07 658.26 L335.88 654.37 L332.73 654.20 L331.39 652.35 L330.89 649.75 L326.85 650.27 L326.53 647.54 L326.41 644.67 L323.56 644.08 L323.18 641.47 L320.98 640.32 L316.62 640.79 L315.30 638.90 L313.47 637.37 L311.09 636.23 L309.82 634.27 L310.50 630.98 L309.49 628.88 L308.38 626.86 L306.20 625.53 L304.90 623.62 L306.45 619.94 L302.66 619.57 L302.20 617.17 L303.22 613.92 L300.58 612.80 L300.07 610.47 L300.61 607.58 L298.74 606.00 L297.49 604.09 L296.07 602.25 L294.12 600.67 L291.47 599.39 L288.22 598.36 L289.14 595.38 L288.89 592.96 L285.43 591.93 L286.00 589.16 L285.12 587.02 L282.44 585.58 L281.31 583.51 L279.59 581.65 L277.56 579.88 L279.16 576.82 L275.65 575.54 L276.24 572.86 L277.91 569.86 L274.28 568.53 L275.73 565.65 L275.13 563.39 L271.83 561.87 L273.70 558.94 L272.54 556.82 L270.95 554.79 L272.73 551.96 L272.69 549.59 L272.09 547.33 L271.34 545.11 L270.19 542.95 L268.55 540.87 L267.27 538.70 L264.92 536.68 L264.43 534.35 L262.64 532.19 L259.81 530.13 L265.01 527.09 L262.44 524.98 L260.22 522.79 L264.91 519.98 L265.07 517.60 L263.55 515.34 L265.76 512.84 L265.58 510.50 L264.60 508.19 L264.68 505.83 L262.57 503.51 L262.25 501.14 L259.86 498.75 L258.02 496.32 L261.22 493.98 L260.46 491.56 L259.73 489.13 L260.44 486.76 L259.58 484.30 L259.03 481.84 L258.69 479.38 L257.06 476.80 L258.42 474.49 L259.61 472.18 L256.73 469.38 L260.73 467.45 L259.60 464.84 L259.62 462.39 L262.21 460.35 L259.95 457.50 L261.78 455.36 L263.53 453.24 L262.60 450.58 L263.70 448.34 L263.03 445.71 L260.66 442.64 L264.10 440.96 L263.93 438.41 L262.43 435.47 L265.32 433.73 L266.00 431.39 L265.22 428.60 L266.08 426.30 L265.03 423.38 L265.13 420.80 L269.61 419.74 L267.70 416.46 L268.66 414.18 L272.87 413.15 L271.51 410.00 L273.08 407.99 L274.96 406.12 L273.57 402.87 L276.27 401.37 L275.60 398.38 L274.80 395.29 L276.15 393.19 L274.56 389.64 L277.78 388.45 L280.99 387.31 L280.90 384.47 L282.74 382.65 L283.99 380.52 L284.92 378.21 L284.34 375.02 L283.18 371.44 L283.29 368.55 L287.21 368.00 L283.35 362.59 L283.02 359.32 L287.10 358.92 L287.27 355.95 L289.28 354.22 L291.45 352.61 L293.98 351.29 L296.74 350.17 L297.02 347.22 L298.31 345.00 L300.02 343.11 L301.18 340.78 L302.44 338.53 L303.61 336.18 L304.47 333.56 L307.18 332.51 L308.64 330.39 L309.31 327.55 L311.98 326.51 L313.01 323.97 L313.61 320.99 L317.62 321.30 L319.05 319.11 L320.32 316.76 L323.58 316.44 L325.20 314.45 L326.60 312.21 L329.30 311.38 L332.13 310.74 L334.39 309.48 L336.36 307.91 L336.76 304.44 L337.68 301.55 L338.52 298.50 L339.08 295.03 L342.68 295.43 L343.53 292.28 L344.99 289.88 L348.56 290.35 L349.03 286.54 L351.19 285.07 L354.69 285.57 L355.96 282.79 L358.87 282.50 L361.30 281.49 L361.06 276.19 L364.39 276.60 L366.46 274.96 L368.64 273.51 L371.01 272.39 L373.31 271.14 L376.30 271.17 L378.38 269.54 L378.79 264.64 L382.07 265.28 L384.35 263.95 L384.95 259.10 L389.20 261.91 L391.49 260.62 L392.89 257.27 L397.22 260.62 L398.53 257.02 L400.37 254.54 L404.08 256.74 L406.08 254.63 L408.09 252.50 L411.86 255.17 L413.53 252.07 L415.56 249.86 L418.62 250.74 L420.99 249.52 L423.34 248.23 L426.43 249.43 L429.28 249.89 L431.73 249.02 L434.10 247.80 L436.00 244.66 L437.97 241.59 L440.27 239.71 L443.01 239.77 L445.57 238.96 L447.52 235.08 L450.67 237.23 L453.28 236.64 L455.34 232.76 L458.41 234.84 L461.06 234.38 L463.50 232.42 L466.56 235.08 L468.98 232.76 L471.74 233.30 L474.58 234.86 L476.95 231.26 L479.91 234.62 L482.47 233.12 L485.06 231.42 L487.84 233.39 L490.42 230.94 L493.04 227.75 L495.80 230.65 L498.49 228.42 L501.21 225.82 L503.95 226.33 L506.71 225.24 L509.40 227.09 L512.13 227.23 L514.94 225.84 L517.42 229.92 L520.09 230.54 L523.07 227.34 L525.43 231.48 L528.05 232.37 L531.37 227.08 L533.63 231.11 L536.28 231.77 L539.07 231.34 L541.67 232.31 L544.40 232.41 L547.29 231.64 L549.89 232.58 L552.94 231.13 L555.99 229.94 L558.89 229.56 L561.53 230.44 L563.62 233.58 L566.79 232.20 L569.85 231.43 L571.75 235.02 L575.17 233.00 L578.46 231.62 L580.89 233.24 L583.57 234.02 L585.98 235.61 L588.72 236.20 L591.83 235.71 L593.76 238.63 L596.39 239.51 L599.23 239.88 L601.51 241.68 L604.03 242.86 L606.18 244.91 L608.78 245.86 L612.93 243.29 L614.87 245.81 L617.42 246.93 L622.12 243.55 L623.61 246.97 L626.47 247.55 L629.31 248.20 L630.48 252.06 L633.79 251.82 L636.43 252.88 L637.98 255.86 L640.94 256.35 L643.12 258.19 L644.57 261.23 L647.40 261.95 L649.24 264.28 L650.19 267.95 L653.62 267.77 L655.78 269.55 L657.50 271.96 L661.38 271.27 L663.68 272.86 L666.73 273.44 L670.45 273.18 L673.13 274.34 L676.54 274.60 L678.21 277.09 L680.75 278.49 L684.09 278.95 L685.47 281.78 L688.00 283.22 L690.59 284.62 L690.84 288.64 L694.02 289.40 L700.04 287.16 L701.29 290.08 L704.69 290.77 L710.03 289.56 L711.39 292.40 L711.11 296.78 L711.98 299.99 L713.95 302.13 L715.18 304.95 L716.45 307.70 L718.36 309.88 L719.98 312.30 L722.00 314.39 L725.09 315.59 L725.85 318.71 L728.09 320.64 L730.58 322.38 L732.51 324.57 L733.15 327.72 L734.72 330.16 L739.02 330.67 L740.13 333.46 L741.86 335.82 L743.53 338.22 L746.62 339.70 L748.22 342.17 L749.87 344.60 L750.50 347.66 L751.06 350.74 L752.76 353.13 L752.40 356.70 L753.18 359.59 L756.16 361.26 L758.93 363.10 L760.64 365.51 L763.55 367.33 L766.05 369.39 L766.42 372.50 L767.98 375.03 L769.66 377.51 L770.26 380.48 L771.21 383.29 L772.28 386.04 L773.32 388.81 L774.63 391.46 L775.90 394.14 L777.20 396.81 L778.00 399.66 L778.69 402.55 L779.72 405.32 L779.39 408.54 L779.60 411.56 L780.62 414.31 L781.22 417.19 L782.42 419.90 L784.95 422.25 L788.43 424.39 L789.46 427.21 L790.16 430.11 L792.93 432.53 L792.34 435.74 L792.60 438.74 L792.75 441.76 L792.10 444.92 L793.27 447.73 L794.26 450.59 L793.31 453.76 L795.05 456.50 L797.08 459.23 L800.37 461.84 L802.89 464.59 L804.69 467.47 L806.14 470.41 L806.93 473.42 L805.24 476.64 L804.65 479.75 L803.88 482.85 L805.41 485.83 L807.60 488.81 L805.93 491.93 L805.91 494.99 L807.63 498.04 L806.41 501.11 L807.40 504.19 L806.83 507.25 L807.26 510.34 L808.38 513.46 L807.29 516.50 L807.30 519.58 L805.22 522.51 L802.54 525.36 L803.85 528.53 L799.50 531.15 L795.76 533.75 L797.94 537.02 L797.00 539.93 L796.01 542.81 L797.49 546.07 L795.83 548.84 L795.07 551.75 L796.33 555.04 L793.73 557.60 L791.93 560.28 L791.02 563.13 L791.94 566.40 L791.36 569.34 L791.15 572.37 L792.41 575.80 L793.74 579.29 L794.19 582.57 L794.89 585.96 L793.96 588.88 L791.22 591.24 L789.62 593.93 L791.19 597.67 L786.92 599.44 L785.03 601.99 L783.97 604.83 L783.06 607.72 L780.35 609.91 L778.10 612.25 L778.12 615.50 L777.27 618.42 L776.95 621.57 L777.93 625.33 L779.62 629.47 L774.51 630.45 L774.27 633.72 L774.66 637.33 L772.43 639.63 L770.74 642.20 L770.68 645.64 L770.36 648.98 L768.55 651.50 L766.83 654.06 L764.05 656.00 L764.84 660.06 L761.15 661.42 L759.91 664.27 L759.88 667.91 L755.93 669.01 L755.79 672.61 L753.96 675.10 L750.74 676.60 L749.80 679.71 L747.40 681.76 L746.32 684.79 L747.69 689.72 L742.97 689.99 L741.92 693.10 L743.93 698.72 L739.14 698.84 L736.82 700.95 L737.08 705.28 L734.72 707.38 L732.10 709.23 L732.05 713.43 L725.83 711.92 L725.15 715.55 L725.01 719.77 L720.21 719.43 L717.79 721.41 L716.15 724.18 L713.77 726.19 L711.44 728.26 L708.43 729.57 L707.20 732.85 L706.49 736.78 L702.33 736.75 L702.13 741.37 L698.90 742.39 L694.64 742.10 L693.86 746.12 L691.69 748.44 L689.37 750.58 L686.69 752.23 L684.91 755.12 L683.21 758.17 L681.73 761.59 L676.89 760.13 L675.49 763.71 L673.16 765.93 L669.00 765.32 L667.76 769.27 L663.84 768.93 L661.46 771.09 L659.73 774.40 L656.12 774.46 L653.35 775.98 L651.63 779.44 L648.21 779.78 L646.23 782.84 L643.78 785.04 L640.23 785.07 L638.85 789.54 L635.98 790.98 L632.21 790.45 L629.89 793.09 L627.15 794.82 L623.83 795.21 L621.36 797.64 L617.50 796.63 L613.96 796.30 L612.33 801.01 L608.19 799.02 L604.72 798.74 L602.35 801.60 L598.74 800.80 L595.38 800.68 L592.69 802.69 L589.75 803.91 L587.00 805.82 L584.34 808.12 L581.79 810.99 L579.33 814.39 L575.44 812.12 L572.39 813.18 L569.72 815.97 L566.18 814.89 L563.03 815.52 L560.24 818.06 L557.07 818.73 L553.93 819.61 L550.78 820.41 L547.29 819.00 L544.48 822.25 L540.95 820.31 L537.72 820.47 L534.77 823.22 L531.36 821.69 L528.30 823.88 L525.14 825.14 L521.73 823.04 L518.54 823.87 L515.33 824.71 L512.05 824.07 L508.90 827.37 L505.59 825.32 L502.34 826.38 L499.06 831.92 L495.79 828.33 L492.54 826.60 L489.12 831.15 L485.76 832.26 L482.48 831.23 L479.15 831.41 L476.06 828.10 L472.62 829.80 L469.48 827.82 L466.69 822.78 L463.35 823.43 L460.02 823.87 L457.11 821.01 L453.81 821.22 L450.61 820.67 L447.41 820.13 L443.83 821.73 L440.36 822.58 L436.92 823.06 L433.68 822.45 L430.73 820.54 L427.32 820.74 L424.02 820.39 L420.90 819.30 L417.31 820.06 L413.41 821.82 L409.81 822.34 L406.67 821.15 L403.63 819.63 L400.14 819.62 L397.47 816.98 L395.26 813.10 L391.45 814.00 L388.32 812.91 L385.57 810.75 L381.79 811.38 L378.95 809.49 L376.03 807.85 L372.15 808.55 L370.05 804.94 L367.52 802.46 L364.29 801.59 L361.08 800.66 L357.85 799.73 L354.00 800.08 L350.40 799.82 L346.95 799.20 L343.66 798.24 L341.15 795.80 L336.97 796.42 L335.72 791.75 L333.18 789.46 L328.48 790.84 L327.28 786.29 L325.09 783.48 L321.32 783.21 L319.44 779.95 L317.30 777.14 L313.99 776.12 L311.11 774.42 L307.74 773.43 L303.97 772.94 L300.06 772.59 L295.59 772.92 L294.65 768.54 L291.98 766.46 L287.84 766.25 L286.76 762.17 L283.90 760.32 L280.21 759.45 L278.06 756.74 L274.89 755.20 L272.01 753.31 L270.58 749.83 L265.73 750.04 L265.04 745.81 L262.73 743.31 L258.69 742.55 L258.21 738.22 L254.89 736.71 L252.10 734.65 L251.50 730.56 L248.83 728.41 L246.28 726.13 L243.55 724.01 L238.81 723.58 L238.36 719.47 L235.95 717.03 L230.45 717.07 L230.23 712.83 L229.06 709.39 L225.10 708.10 L222.83 705.49 L221.34 702.31 L216.30 701.66 L219.74 695.03 L215.97 693.47 L211.00 692.65 L212.02 687.84 L210.23 684.90 L208.14 682.15 L206.76 678.97 L205.38 675.79 L203.85 672.71 L202.23 669.69 L198.01 668.12 L196.97 664.75 L193.08 662.90 L192.26 659.42 L192.98 655.17 L190.76 652.43 L189.28 649.31 L186.63 646.75 L186.37 643.06 L184.19 640.26 L181.50 637.66 L178.26 635.26 L177.74 631.70 L175.81 628.72 L172.38 626.31 L170.37 623.31 L168.92 620.09 L168.48 616.51 L167.10 613.27 L164.88 610.30 L164.44 606.74 L163.12 603.46 L162.19 600.06 L160.62 596.84 L159.19 593.58 L159.43 589.86 L161.09 585.80 L157.83 583.00 L155.38 579.95 L155.01 576.41 L152.98 573.23 L151.54 569.90 L150.87 566.41 L149.44 563.05 L152.12 558.99 L154.51 555.03 L150.44 552.10 L152.39 548.26 L153.75 544.55 L151.80 541.27 L151.97 537.72 L153.26 534.08 L152.61 530.64 L151.88 527.20 L152.04 523.68 L150.12 520.30 L148.17 516.89 L146.52 513.43 L147.55 509.86 L146.25 506.36 L142.96 502.84 L142.68 499.27 L142.01 495.69 L140.87 492.08 L140.25 488.47 L140.32 484.87 L141.91 481.35 L144.93 477.94 L142.27 474.19 L144.58 470.78 L145.23 467.26 L141.94 463.34 L145.04 460.06 L142.90 456.20 L140.36 452.24 L142.58 448.89 L144.10 445.47 L144.08 441.82 L144.27 438.19 L142.53 434.20 L141.55 430.31 L142.38 426.75 L141.04 422.73 L140.05 418.74 L143.07 415.66 L146.32 412.69 L147.90 409.33 L148.13 405.63 L146.67 401.44 L156.05 400.34 L155.49 396.43 L153.76 392.12 L159.75 390.24 L159.92 386.53 L159.72 382.67 L162.84 379.96 L164.09 376.61 L165.48 373.31 L166.73 369.96 L165.84 365.74 L165.22 361.59 L166.06 358.01 L165.77 353.92 L169.13 351.43 L170.02 347.85 L170.33 343.98 L170.26 339.89 L171.66 336.49 L172.75 332.93 L172.68 328.74 L172.99 324.72 L179.93 324.30 L180.54 320.45 L178.32 314.95 L183.94 313.95 L184.16 309.80 L186.43 306.87 L188.88 304.06 L190.17 300.52 L194.91 299.22 L198.01 296.91 L198.37 292.74 L202.18 290.94 L205.89 289.13 L207.27 285.65 L208.87 282.32 L211.12 279.46 L211.52 275.17 L211.72 270.65 L213.19 267.10 L215.26 264.02 L216.24 260.00 L215.59 254.53 L223.05 256.09 L226.36 254.11 L224.90 247.78 L231.46 248.80 L235.32 247.40 L236.26 243.21 L239.16 240.90 L241.87 238.42 L241.83 233.09 L245.45 231.51 L247.51 228.29 L248.34 223.70 L251.13 221.22 L254.02 218.84 L258.30 218.09 L262.04 216.78 L263.26 212.43 L265.49 209.27 L268.29 206.79 L270.60 203.66 L272.84 200.42 L275.79 198.08 L279.31 196.53 L284.20 196.92 L285.82 192.75 L289.75 191.86 L293.06 190.11 L294.49 185.48 L299.46 186.27 L302.23 183.69 L303.91 179.28 L307.72 178.32 L311.08 176.65 L314.56 175.19 L316.89 171.69 L319.19 168.05 L323.99 169.04 L327.57 167.80 L328.93 162.18 L332.69 161.25 L335.96 159.33 L338.32 155.47 L342.09 154.56 L345.39 152.62 L347.77 148.56 L354.62 154.96 L357.65 152.47 L359.43 146.78 L364.33 148.92 L367.82 147.52 L371.13 145.61 L374.62 144.14 L378.26 143.14 L382.28 143.28 L386.12 142.97 L388.67 138.52 L392.37 137.67 L395.86 136.14 L399.24 134.17 L403.35 134.85 L407.29 135.05 L410.39 131.86 L413.55 128.70 L417.72 129.88 L421.23 128.16 L424.03 122.81 L427.55 120.74 L432.31 125.37 L435.93 123.95 L439.28 120.78 L443.61 123.71 L446.86 119.46 L450.84 120.30 L454.68 120.18 L458.00 115.40 L462.25 118.99 L466.00 117.98 L469.43 112.64 L473.42 114.00 L477.10 110.77 L480.68 104.11 L484.63 103.66 L488.60 103.58 L492.57 103.86 L496.53 103.84 L500.49 106.22 L504.38 110.07 L508.24 111.95 L512.19 109.83 L516.15 108.67 L520.00 109.98 L524.05 107.73 L527.81 110.24 L531.56 112.41 L535.32 113.91 L538.71 118.92 L542.32 121.18 L546.26 120.34 L550.22 119.56 L554.10 119.50 L558.41 116.75 L562.54 115.52 L566.79 113.80 L570.30 116.36 L574.10 117.25 L578.33 116.04 L581.51 119.91 L585.62 119.32 L590.02 117.68 L593.21 121.13 L597.28 120.99 L601.10 121.83 L604.01 125.99 L608.45 124.61 L612.02 126.31 L616.09 126.35 L622.09 120.49 L625.38 123.21 L630.48 120.60 L636.70 115.09 L640.28 117.19 L643.08 121.31 L646.89 122.68 L650.63 124.24 L652.88 129.40 L654.67 135.43 L658.09 137.49 L662.61 137.07 L665.27 140.81 L669.16 141.84 L674.64 139.61 L676.49 144.88 L680.32 146.10 L686.01 143.79 L688.04 148.52 L692.01 149.57 L696.65 149.45 L697.83 155.47 L700.71 158.42 L702.70 162.79 L704.18 167.89 L707.40 170.10 L711.50 170.94 L715.13 172.54 L720.55 171.49 L724.45 172.80 L728.64 173.73 L733.05 174.41 L734.49 179.22 L738.33 180.72 L741.38 183.29 L743.63 186.88 L748.51 187.12 L751.57 189.70 L754.87 191.97 L761.37 190.47 L763.75 193.91 L768.36 194.80 L776.15 192.19 L778.37 195.89 L782.33 197.70 L787.00 198.79 L789.21 202.48 L795.07 202.47 L799.14 204.33 L801.72 207.69 L804.84 210.52 L808.48 212.87 L811.00 216.29 L814.97 218.38 L817.45 221.82 L819.87 225.31 L824.09 227.27 L826.75 230.56 L829.42 233.85 L833.48 236.04 L835.67 239.72 L837.99 243.30 L841.50 245.98 L843.51 249.77 L846.48 252.88 L849.34 256.07 L851.07 260.05 L854.99 262.55 L856.96 266.36 L858.37 270.52 L862.30 273.08 L864.08 277.00 L865.81 280.95 L869.13 283.94 L870.83 287.90 L872.82 291.68 L875.86 294.88 L877.24 299.00 L880.27 302.24 L882.21 306.07 L883.29 310.31 L886.99 313.28 L888.11 317.49 L888.17 322.18 L888.75 326.60 L888.26 331.45 L892.32 334.34 L893.43 338.48 L893.63 342.98 L901.99 344.29 L902.94 348.54 L902.93 353.12 L905.33 356.82 L906.14 361.09 L907.66 365.11 L909.67 368.97 L911.37 372.95 L912.98 376.96 L915.57 380.70 L916.24 385.00 L917.09 389.24 L919.31 393.13 L919.70 397.49 L921.71 401.46 L922.79 405.65 L922.83 410.07 L925.62 413.92 L925.91 418.29 L925.70 422.73 L928.32 426.67 L928.48 431.05 L928.67 435.41 L930.55 439.52 L930.60 443.90 L931.13 448.21 L932.63 452.41 L932.34 456.82 L934.27 461.00 L934.35 465.37 L933.66 469.79 L935.97 474.00 L935.63 478.39 L935.06 482.78 L936.78 487.09 L936.33 491.47 L936.09 495.83 L946.00 500.00 L946.89 495.53 L946.07 491.08 L945.04 486.64 L946.21 482.14 L944.76 477.74 L943.56 473.35 L944.95 468.80 L943.31 464.46 L942.56 460.06 L942.93 455.56 L941.36 451.25 L941.60 446.75 L940.55 442.40 L939.08 438.12 L939.41 433.59 L937.80 429.35 L936.16 425.13 L936.97 420.48 L934.73 416.39 L933.06 412.22 L933.61 407.58 L931.50 403.51 L930.67 399.16 L929.82 394.82 L927.78 390.77 L927.50 386.28 L925.65 382.20 L923.57 378.20 L923.44 373.64 L922.50 369.31 L920.85 365.19 L919.77 360.89 L918.22 356.75 L915.75 352.93 L914.95 348.53 L911.51 345.10 L909.11 341.32 L913.97 334.66 L910.47 331.28 L907.95 327.52 L908.23 322.57 L903.85 319.65 L900.59 316.28 L896.60 313.29 L893.68 309.83 L893.27 305.15 L890.20 301.79 L888.17 297.92 L886.45 293.87 L883.42 290.54 L882.03 286.31 L879.35 282.80 L876.39 279.47 L875.11 275.15 L871.96 271.95 L868.87 268.74 L867.93 264.17 L864.32 261.31 L861.30 258.09 L860.00 253.71 L856.57 250.78 L854.40 246.99 L851.76 243.53 L848.42 240.59 L846.52 236.58 L843.24 233.61 L839.82 230.78 L838.45 226.31 L835.25 223.30 L832.10 220.28 L830.54 215.89 L827.07 213.14 L823.65 210.36 L821.53 206.42 L817.96 203.79 L815.55 200.08 L812.42 197.06 L808.77 194.54 L806.80 190.36 L806.10 184.83 L801.92 182.85 L800.15 178.33 L797.90 174.26 L792.80 173.34 L794.40 164.87 L792.23 160.56 L788.07 158.54 L787.86 151.79 L784.18 149.15 L780.37 146.68 L778.31 141.99 L773.63 140.65 L769.89 138.12 L766.49 135.12 L760.76 135.36 L758.32 131.03 L755.39 127.33 L752.25 123.90 L750.01 119.07 L746.53 116.05 L743.08 112.96 L738.77 111.26 L732.91 112.14 L727.53 112.38 L722.84 111.51 L716.48 113.70 L713.93 109.15 L710.00 107.05 L704.79 107.40 L702.62 101.89 L698.48 100.19 L693.16 100.95 L690.50 96.19 L686.55 94.09 L682.06 93.19 L678.44 90.33 L673.96 89.47 L667.88 92.51 L662.34 94.50 L658.43 92.49 L653.61 92.87 L648.76 93.48 L644.26 93.20 L642.39 85.36 L639.10 81.37 L634.23 82.10 L631.40 76.42 L627.70 73.33 L623.45 71.98 L619.09 71.01 L614.26 71.84 L610.19 69.90 L606.09 67.97 L601.11 69.72 L597.34 66.34 L593.14 64.73 L588.08 67.24 L584.12 64.50 L579.61 64.47 L574.90 65.77 L570.87 63.04 L566.77 60.60 L562.71 57.59 L558.34 56.55 L554.01 55.09 L549.66 53.59 L544.94 55.68 L540.04 60.20 L535.56 60.84 L531.00 62.91 L526.51 64.56 L522.24 62.55 L517.79 64.25 L513.48 62.31 L509.12 61.59 L504.72 62.38 L500.34 66.80 L496.04 69.76 L491.71 68.56 L487.43 69.54 L483.14 70.08 L478.79 69.27 L474.16 64.13 L469.71 62.99 L465.49 65.16 L460.80 61.69 L456.46 62.58 L452.51 66.89 L447.69 63.26 L443.50 65.16 L439.46 67.93 L434.99 67.52 L431.19 71.47 L426.59 70.27 L422.28 70.96 L418.92 76.59 L414.21 75.02 L409.17 72.19 L404.60 71.78 L400.92 75.33 L396.19 74.35 L391.67 74.32 L387.77 76.75 L384.03 79.65 L379.61 80.08 L375.53 81.67 L371.43 83.21 L366.29 81.43 L362.56 84.17 L358.88 86.94 L355.18 89.56 L351.32 91.69 L348.32 96.06 L345.02 99.49 L342.12 103.80 L336.83 102.15 L332.58 103.13 L330.45 109.06 L324.90 107.07 L321.00 108.88 L317.99 112.59 L313.01 112.12 L308.98 113.67 L305.70 116.75 L300.56 116.17 L297.23 119.12 L294.13 122.44 L290.88 125.44 L286.18 125.87 L282.06 127.36 L279.20 130.98 L276.29 134.47 L270.87 133.88 L267.27 136.27 L265.87 142.02 L261.40 143.02 L257.52 144.96 L254.61 148.31 L251.13 150.81 L249.05 155.25 L245.72 157.91 L243.04 161.42 L239.54 163.85 L235.56 165.67 L232.32 168.44 L228.93 171.03 L224.34 172.19 L221.69 175.68 L219.77 179.98 L218.12 184.52 L215.07 187.45 L209.53 187.70 L206.17 190.36 L204.22 194.48 L197.70 193.93 L195.01 197.32 L194.74 203.05 L192.19 206.51 L191.15 211.35 L192.68 218.49 L186.89 218.89 L183.61 221.61 L183.32 226.93 L178.36 228.21 L174.26 230.28 L171.66 233.62 L168.98 236.89 L163.79 238.21 L159.85 240.56 L157.85 244.40 L154.05 246.92 L151.61 250.45 L151.83 255.83 L151.31 260.63 L146.72 262.64 L146.05 267.30 L147.31 273.14 L144.15 276.11 L142.77 280.19 L142.31 284.82 L140.67 288.69 L141.48 293.97 L135.76 295.50 L133.61 299.08 L135.22 304.68 L131.05 307.17 L129.10 310.85 L127.00 314.46 L124.40 317.82 L121.92 321.27 L119.70 324.85 L117.68 328.54 L117.20 332.90 L113.70 335.95 L112.96 340.18 L109.02 343.12 L104.64 345.93 L103.41 350.00 L101.90 353.96 L101.42 358.29 L103.25 363.40 L104.19 368.13 L104.73 372.69 L107.35 377.86 L103.69 381.05 L101.74 384.79 L105.96 390.27 L99.94 392.89 L99.02 396.93 L100.03 401.45 L102.41 406.24 L102.01 410.34 L100.25 414.13 L99.09 418.07 L98.47 422.11 L94.31 425.51 L94.45 429.72 L95.16 434.00 L92.93 437.81 L94.47 442.19 L96.58 446.60 L91.53 450.09 L88.90 453.93 L91.53 458.36 L88.28 462.18 L87.38 466.26 L88.39 470.48 L87.93 474.59 L90.10 478.83 L90.16 482.94 L91.17 487.08 L92.53 491.20 L91.25 495.26 L90.83 499.35 L91.62 503.43 L88.56 507.57 L87.95 511.71 L88.85 515.80 L88.06 519.96 L86.42 524.18 L84.99 528.43 L85.79 532.54 L86.13 536.68 L85.98 540.87 L89.08 544.72 L92.70 548.45 L93.88 552.44 L96.44 556.21 L99.37 559.90 L97.82 564.25 L100.45 567.93 L101.04 571.94 L101.06 576.07 L102.65 579.89 L102.91 583.98 L103.31 588.04 L104.77 591.88 L104.00 596.24 L104.44 600.33 L107.83 603.66 L110.99 606.99 L113.07 610.60 L114.00 614.52 L114.73 618.51 L115.99 622.33 L118.04 625.90 L117.57 630.31 L118.40 634.30 L121.71 637.41 L121.31 641.85 L121.91 645.96 L122.26 650.18 L122.38 654.52 L125.87 657.48 L127.07 661.38 L128.21 665.32 L128.75 669.55 L132.33 672.38 L133.28 676.43 L135.29 679.97 L137.34 683.50 L141.85 685.73 L144.45 688.92 L144.73 693.35 L147.48 696.45 L146.51 701.65 L149.10 704.85 L151.52 708.13 L154.54 711.04 L157.95 713.69 L162.89 715.32 L167.28 717.23 L171.80 718.99 L171.74 723.81 L172.96 727.80 L178.36 728.85 L175.50 735.81 L178.69 738.44 L182.00 740.95 L182.07 745.94 L185.93 748.01 L190.20 749.71 L189.81 755.18 L192.82 757.90 L196.59 759.95 L197.34 764.61 L200.13 767.50 L202.50 770.78 L204.73 774.20 L209.09 775.62 L211.62 778.75 L213.86 782.16 L218.79 782.91 L222.26 785.06 L225.45 787.49 L229.25 789.24 L231.84 792.28 L235.58 794.05 L237.96 797.33 L241.20 799.65 L244.61 801.74 L246.21 806.00 L249.80 807.89 L254.20 808.73 L255.46 813.54 L258.64 815.92 L263.68 815.83 L265.40 820.15 L267.58 823.91 L270.14 827.21 L273.10 829.96 L276.53 832.04 L279.37 835.01 L283.92 835.35 L289.58 833.85 L293.57 834.89 L298.22 834.80 L303.12 834.18 L305.32 838.14 L308.28 840.84 L312.18 841.86 L313.89 846.91 L317.54 848.44 L321.06 850.19 L324.11 852.88 L327.30 855.34 L330.53 857.76 L334.02 859.65 L337.45 861.67 L341.21 862.97 L345.43 863.17 L350.02 862.39 L353.10 865.25 L356.92 866.30 L361.06 866.48 L364.15 869.41 L368.39 869.25 L372.42 869.58 L376.53 869.62 L381.10 868.16 L385.61 866.68 L389.25 867.91 L392.71 869.77 L396.32 871.16 L399.54 874.05 L402.55 877.87 L406.04 880.03 L409.95 880.50 L413.77 881.34 L417.46 882.75 L421.65 881.84 L425.45 882.71 L429.16 884.07 L432.77 886.12 L436.34 888.58 L440.39 888.12 L444.32 888.40 L448.16 889.26 L452.49 886.28 L456.73 883.41 L460.77 881.76 L464.95 878.30 L468.97 875.73 L472.59 877.98 L476.39 878.00 L480.04 880.55 L483.87 880.36 L487.64 881.53 L491.37 885.58 L495.24 883.87 L499.09 880.26 L502.93 885.00 L506.79 885.62 L510.59 883.32 L514.52 885.80 L518.33 884.62 L522.19 884.70 L526.04 884.55 L529.67 881.55 L533.57 882.15 L537.52 883.11 L541.09 880.32 L544.92 880.16 L548.62 878.92 L552.15 876.54 L556.02 876.72 L559.67 875.46 L563.59 875.82 L567.40 875.48 L571.07 874.35 L575.12 875.17 L578.78 874.01 L582.05 871.07 L586.19 872.12 L589.86 871.05 L592.85 867.27 L597.06 868.39 L601.17 868.99 L605.26 869.36 L609.07 868.73 L612.83 867.86 L616.64 867.16 L619.63 863.89 L622.02 859.04 L625.06 856.24 L627.69 852.42 L630.15 848.29 L634.68 849.70 L637.84 847.51 L641.85 847.44 L645.99 847.61 L649.08 845.26 L652.64 844.01 L656.21 842.77 L658.93 839.69 L662.62 838.71 L666.99 839.09 L669.51 835.68 L673.18 834.59 L677.02 833.79 L679.62 830.66 L683.63 830.14 L686.61 827.73 L688.79 823.99 L693.02 823.77 L696.06 821.51 L698.12 817.69 L701.19 815.53 L702.81 811.18 L705.70 808.82 L709.38 807.62 L710.52 802.74 L715.06 802.77 L719.50 802.57 L723.26 801.37 L725.61 798.26 L728.95 796.46 L732.05 794.34 L735.99 793.26 L736.83 788.34 L738.54 784.58 L743.25 784.38 L744.48 780.09 L748.91 779.47 L751.86 777.16 L753.55 773.47 L755.81 770.44 L757.80 767.14 L758.08 762.14 L758.48 757.34 L759.48 753.21 L763.58 752.12 L766.79 750.13 L766.96 745.32 L773.74 746.55 L775.46 743.16 L777.88 740.39 L782.31 739.32 L783.28 735.32 L783.64 730.87 L789.39 730.77 L791.63 727.83 L791.81 723.30 L796.18 721.99 L798.95 719.43 L800.79 716.18 L803.23 713.37 L803.26 708.89 L805.54 705.99 L808.38 703.45 L807.94 698.77 L809.36 695.33 L811.20 692.16 L811.80 688.25 L813.92 685.28 L814.86 681.61 L817.50 678.93 L818.67 675.41 L820.26 672.13 L823.14 669.54 L824.33 666.05 L824.34 661.98 L829.21 660.32 L831.69 657.45 L829.20 652.25 L833.97 650.42 L837.22 647.85 L838.07 644.20 L839.75 640.92 L841.86 637.81 L841.80 633.83 L841.21 629.67 L839.82 625.27 L837.94 620.75 L837.13 616.68 L834.66 612.09 L837.30 609.23 L838.43 605.87 L839.86 602.60 L842.58 599.69 L845.81 596.89 L848.06 593.78 L850.21 590.61 L852.74 587.51 L854.22 584.13 L854.39 580.43 L856.56 577.19 L856.71 573.49 L855.70 569.58 L854.24 565.63 L856.02 562.28 L856.02 558.62 L855.24 554.85 L856.97 551.46 L856.58 547.77 L855.97 544.07 L854.99 540.35 L852.88 536.54 L848.44 532.56 L847.11 528.94 L845.26 525.31 L845.25 521.84 L844.60 518.35 L844.27 514.88 L845.62 511.47 L846.56 508.04 L847.03 504.58 L846.82 501.10 L846.99 497.64 L848.74 494.14 L846.25 490.71 L845.51 487.27 L846.07 483.79 L844.88 480.38 L844.25 476.96 L840.84 473.77 L839.85 470.42 L841.09 466.87 L840.76 463.46 L841.95 459.87 L844.26 456.11 L846.66 452.27 L847.35 448.63 L847.05 445.13 L844.13 442.06 L843.60 438.60 L842.48 435.26 L839.07 432.39 L837.30 429.23 L834.82 426.25 L834.21 422.87 L834.86 419.18 L834.43 415.74 L834.71 412.10 L836.40 408.05 L836.22 404.48 L834.84 401.24 L833.69 397.94 L832.00 394.82 L830.07 391.78 L827.93 388.84 L827.14 385.45 L825.36 382.41 L823.81 379.29 L822.55 376.07 L821.18 372.90 L819.87 369.71 L817.16 367.10 L815.46 364.08 L813.72 361.10 L811.23 358.46 L809.82 355.35 L808.10 352.38 L806.04 349.59 L805.51 346.03 L804.15 342.88 L803.07 339.58 L802.31 336.10 L801.97 332.35 L799.82 329.60 L795.97 327.85 L794.21 324.92 L790.77 323.00 L787.74 320.88 L786.46 317.67 L783.90 315.29 L783.09 311.76 L781.20 308.93 L779.28 306.13 L777.19 303.44 L775.20 300.69 L773.04 298.06 L770.83 295.47 L767.96 293.40 L766.31 290.39 L764.85 287.22 L762.44 284.80 L760.29 282.17 L758.17 279.52 L755.17 277.63 L752.56 275.43 L749.82 273.34 L746.60 271.73 L743.61 269.94 L740.03 268.73 L735.27 268.73 L732.05 267.29 L732.64 261.98 L731.29 258.58 L727.62 257.60 L729.80 250.33 L728.87 246.30 L723.81 246.86 L720.82 245.15 L718.92 242.18 L715.52 240.97 L712.55 239.29 L710.12 236.94 L707.72 234.54 L705.00 232.55 L702.39 230.42 L700.95 226.68 L698.47 224.33 L695.79 222.22 L694.51 218.09 L690.68 217.65 L685.79 218.87 L682.26 218.13 L678.42 217.92 L673.61 219.35 L671.06 217.18 L668.60 214.85 L666.52 211.83 L664.71 208.27 L661.35 207.42 L658.15 206.31 L655.29 204.59 L651.77 204.14 L648.70 202.85 L645.30 202.24 L641.66 202.17 L640.82 196.16 L637.20 196.02 L633.28 196.66 L631.59 192.19 L628.25 191.51 L624.61 191.58 L621.51 190.39 L618.39 189.22 L615.02 188.75 L611.52 188.70 L608.07 188.53 L604.45 188.95 L601.46 187.55 L598.21 186.93 L595.49 184.61 L592.51 183.03 L589.74 180.70 L587.19 177.42 L583.53 178.20 L580.49 176.68 L577.15 176.32 L573.38 177.90 L569.84 178.60 L566.61 177.98 L563.57 176.40 L560.52 174.79 L557.29 174.02 L554.21 172.37 L550.91 172.02 L547.33 173.58 L543.58 176.67 L540.11 178.18 L536.60 180.28 L533.85 175.65 L530.54 175.97 L527.30 175.71 L524.39 170.93 L521.02 171.86 L517.51 175.86 L514.29 175.20 L511.03 175.42 L507.75 176.69 L504.53 176.19 L501.29 176.94 L498.04 174.12 L494.75 172.40 L491.59 176.81 L488.25 174.01 L484.90 172.15 L481.79 175.25 L478.41 173.48 L475.06 172.59 L472.06 176.02 L468.79 175.93 L465.70 177.66 L462.46 177.87 L459.30 178.74 L456.53 182.41 L452.84 179.33 L449.43 178.50 L446.65 181.62 L442.95 179.23 L439.75 179.83 L437.04 182.92 L433.44 181.53 L430.60 183.76 L427.43 184.42 L424.11 184.45 L420.69 184.14 L417.13 183.42 L413.85 183.83 L410.69 184.69 L408.08 187.42 L405.45 189.99 L403.33 194.03 L401.14 197.64 L398.63 200.17 L395.26 200.11 L391.85 200.01 L389.63 203.20 L385.26 200.63 L381.67 200.27 L380.03 204.80 L376.47 204.55 L372.95 204.47 L371.84 209.91 L367.75 208.59 L365.05 210.36 L364.48 216.58 L359.72 214.00 L357.26 216.20 L355.83 220.37 L351.53 218.96 L348.82 220.62 L346.74 223.43 L344.23 225.42 L341.17 226.43 L338.84 228.70 L336.53 230.98 L334.03 232.92 L330.01 232.45 L328.00 235.18 L325.75 237.50 L321.47 236.81 L319.81 239.99 L317.69 242.47 L313.80 242.47 L312.66 246.28 L309.84 247.77 L306.86 249.08 L306.50 253.75 L302.52 253.79 L299.08 254.58 L296.29 256.19 L292.76 256.95 L290.81 259.57 L288.66 261.94 L287.46 265.36 L287.14 269.68 L286.93 274.03 L285.72 277.25 L284.20 280.12 L283.14 283.40 L280.64 285.25 L277.45 286.44 L274.21 287.63 L271.50 289.35 L270.27 292.42 L267.79 294.36 L265.98 296.90 L264.78 299.95 L262.22 301.84 L259.80 303.85 L257.74 306.18 L256.34 309.03 L254.91 311.83 L253.06 314.30 L252.24 317.54 L249.90 319.64 L249.45 323.10 L248.42 326.12 L245.13 327.58 L246.06 331.88 L245.56 335.19 L241.54 336.23 L237.94 337.60 L238.88 341.77 L234.60 342.79 L230.30 343.86 L228.20 346.26 L226.65 348.97 L224.98 351.62 L224.81 355.06 L223.71 357.99 L224.42 361.82 L224.88 365.48 L221.81 367.40 L221.91 370.85 L218.80 372.81 L215.91 374.91 L216.34 378.47 L213.15 380.48 L213.34 383.91 L215.97 388.27 L216.06 391.57 L217.78 395.45 L217.68 398.61 L214.81 400.79 L215.75 404.29 L211.07 405.92 L207.97 408.13 L208.95 411.63 L207.00 414.23 L205.28 416.92 L207.70 420.74 L205.52 423.31 L204.32 426.14 L206.14 429.71 L203.10 432.12 L202.05 435.01 L202.60 438.23 L200.49 440.91 L201.74 444.25 L202.26 447.42 L199.84 450.09 L200.93 453.34 L201.43 456.47 L200.68 459.41 L203.03 462.75 L201.33 465.57 L201.99 468.66 L202.20 471.69 L199.15 474.43 L199.85 477.51 L199.56 480.51 L197.64 483.42 L199.14 486.52 L199.22 489.54 L199.02 492.54 L201.37 495.59 L199.83 498.57 L198.79 501.57 L198.12 504.60 L196.56 507.66 L196.80 510.68 L196.45 513.74 L197.72 516.71 L201.40 519.50 L204.05 522.30 L206.46 525.08 L210.39 527.66 L210.71 530.55 L208.63 533.72 L210.93 536.39 L207.29 539.82 L207.02 542.85 L208.72 545.58 L206.75 548.90 L206.39 551.98 L206.60 554.97 L206.86 557.97 L207.27 560.93 L207.96 563.84 L209.83 566.48 L213.43 568.68 L212.71 571.90 L212.90 574.91 L216.70 576.95 L214.92 580.50 L215.97 583.28 L217.82 585.81 L219.56 588.36 L222.58 590.47 L223.28 593.31 L224.76 595.89 L227.85 597.87 L225.58 601.80 L226.01 604.77 L228.62 606.89 L227.52 610.48 L228.64 613.20 L232.44 614.77 L231.83 618.22 L233.61 620.63 L236.02 622.74 L236.57 625.70 L236.24 629.11 L236.40 632.32 L237.38 635.13 L238.97 637.63 L239.96 640.45 L243.41 641.92 L248.60 642.35 L251.06 644.27 L254.74 645.43 L256.71 647.57 L256.89 650.81 L259.98 652.23 L258.29 656.72 L258.79 659.84 L262.41 660.88 L264.74 662.76 L267.90 664.03 L270.67 665.54 L271.34 668.56 L272.96 670.89 L275.02 672.89 L273.37 677.79 L275.41 679.85 L278.28 681.22 L278.50 684.77 L281.95 685.61 L284.77 686.96 L284.50 691.01 L287.56 692.12 L290.23 693.56 L292.09 695.73 L295.92 696.00 L296.70 699.20 L299.75 700.18 L302.23 701.69 L302.00 706.01 L304.88 707.12 L306.94 709.08 L308.04 712.11 L311.05 713.02 L313.43 714.63 L315.43 716.66 L318.90 716.95 L320.61 719.33 L321.93 722.20 L323.84 724.38 L324.77 727.86 L327.27 729.32 L329.36 731.32 L332.11 732.43 L336.26 731.52 L340.00 731.10 L343.74 730.59 L347.41 730.09 L348.44 733.57 L351.08 734.62 L353.66 735.72 L353.92 740.65 L357.08 740.84 L360.80 740.01 L361.40 744.57 L364.62 744.57 L368.05 744.09 L369.20 747.86 L372.10 748.35 L375.81 747.18 L378.49 748.00 L381.05 749.06 L383.36 750.63 L385.80 751.95 L388.81 751.98 L390.93 754.03 L393.02 756.20 L396.02 756.18 L398.86 756.52 L401.00 758.63 L404.60 756.89 L407.05 758.19 L409.37 759.87 L412.48 759.25 L415.63 758.41 L417.42 761.78 L419.73 763.62 L423.11 761.89 L425.75 762.59 L427.78 765.51 L430.47 766.09 L433.75 764.35 L435.77 767.59 L438.06 769.93 L440.81 770.31 L443.38 771.54 L446.23 771.44 L448.51 774.26 L451.61 772.76 L455.04 769.08 L457.88 768.54 L461.04 765.76 L464.01 763.81 L466.32 766.78 L469.16 765.61 L471.47 769.26 L474.13 769.84 L476.88 769.52 L479.37 772.44 L482.24 770.50 L485.09 767.93 L487.67 770.26 L490.31 772.41 L493.11 769.35 L495.77 771.57 L498.48 773.07 L501.20 771.94 L503.95 773.68 L506.66 772.72 L509.32 770.51 L512.13 772.87 L514.76 770.84 L517.29 768.00 L519.96 767.76 L522.42 764.90 L525.18 765.84 L527.74 764.67 L530.33 763.91 L533.17 765.23 L535.85 765.06 L538.68 765.97 L541.19 764.62 L543.81 764.02 L546.57 764.25 L549.53 765.53 L551.60 762.07 L554.35 762.15 L557.36 763.40 L559.97 762.70 L563.06 764.06 L565.46 762.45 L568.27 762.50 L570.63 760.86 L572.30 756.83 L574.14 753.59 L575.93 750.39 L577.36 746.21 L579.56 744.65 L583.09 747.06 L584.98 744.55 L588.68 747.20 L591.10 746.19 L593.56 745.27 L596.83 746.40 L599.25 745.32 L601.92 744.85 L604.95 745.21 L607.63 744.67 L609.78 742.93 L612.03 741.45 L613.15 737.62 L615.90 737.25 L618.48 736.50 L619.71 733.10 L623.02 733.76 L625.11 732.08 L626.11 728.44 L628.12 726.69 L628.68 722.45 L628.09 716.41 L630.51 715.55 L633.29 715.26 L635.14 713.45 L638.35 713.76 L642.34 715.17 L646.31 716.44 L647.84 714.05 L648.92 711.08 L652.70 711.90 L654.60 710.08 L655.49 706.92 L658.54 706.65 L661.67 706.42 L664.45 705.69 L666.31 703.80 L667.83 701.52 L670.45 700.55 L670.85 697.01 L669.93 692.02 L671.15 689.56 L671.26 685.90 L672.13 683.13 L675.37 682.88 L676.31 680.22 L680.59 680.94 L682.65 679.38 L683.35 676.50 L686.62 676.09 L687.30 673.22 L687.15 669.64 L690.02 668.82 L693.18 668.20 L692.90 664.59 L695.81 663.71 L697.87 662.10 L698.16 659.06 L701.37 658.35 L701.98 655.59 L701.81 652.26 L705.62 651.94 L706.51 649.42 L706.20 646.08 L707.55 643.95 L706.98 640.50 L709.01 638.85 L709.66 636.27 L710.50 633.85 L713.51 632.79 L714.48 630.43 L716.78 628.87 L717.32 626.27 L718.70 624.17 L720.44 622.26 L723.21 620.89 L721.99 617.37 L721.68 614.39 L724.92 613.23 L726.34 611.12 L728.04 609.14 L728.99 606.79 L731.36 605.09 L732.28 602.72 L730.36 599.13 L728.82 595.77 L727.25 592.45 L725.15 588.98 L728.04 587.50 L729.59 585.47 L728.67 582.53 L735.07 582.19 L733.18 578.93 L733.60 576.47 L737.25 575.05 L735.19 571.82 L733.70 568.82 L738.67 567.69 L738.85 565.17 L737.84 562.35 L740.71 560.53 L740.16 557.85 L741.38 555.59 L742.59 553.32 L740.80 550.41 L742.48 548.24 L744.02 546.01 L741.68 543.07 L742.37 540.70 L743.23 538.35 L738.97 535.23 L738.20 532.69 L740.28 530.53 L739.24 527.97 L737.92 525.40 L741.07 523.30 L743.23 521.06 L739.81 518.35 L739.89 515.94 L742.47 513.68 L742.11 511.23 L738.33 508.67 L742.11 506.39 L744.48 504.00 L743.56 501.55 L745.29 499.11 L745.42 496.65 L743.69 494.24 L741.12 491.89 L736.56 489.67 L732.53 487.52 L728.25 485.46 L724.23 483.46 L727.48 480.93 L730.49 478.36 L731.42 475.93 L733.74 473.33 L735.15 470.78 L735.70 468.32 L729.85 466.76 L727.34 464.80 L727.92 462.37 L729.64 459.72 L728.28 457.60 L729.91 454.92 L731.90 452.12 L732.03 449.66 L731.19 447.42 L730.26 445.20 L729.49 442.96 L728.81 440.69 L726.81 438.78 L724.10 437.10 L720.75 435.66 L717.44 434.25 L714.82 432.69 L716.38 429.82 L716.47 427.39 L716.71 424.89 L718.73 421.73 L720.40 418.64 L718.29 416.93 L717.47 414.74 L716.26 412.71 L716.79 409.97 L714.65 408.33 L712.90 406.55 L714.70 403.19 L713.69 401.06 L713.64 398.47 L713.69 395.82 L711.09 394.46 L709.28 392.73 L704.99 392.33 L698.72 393.08 L694.36 392.90 L689.38 393.16 L687.34 391.83 L690.09 387.70 L690.68 384.76 L693.25 380.55 L692.33 378.44 L692.78 375.44 L691.16 373.77 L684.02 375.82 L680.11 375.82 L683.18 370.98 L681.22 369.63 L679.31 368.27 L681.48 363.86 L682.01 360.59 L680.47 358.89 L678.85 357.25 L677.17 355.66 L675.36 354.19 L673.93 352.42 L670.93 351.99 L668.21 351.38 L665.72 350.60 L663.24 349.86 L663.75 346.34 L661.90 345.00 L661.70 342.07 L659.99 340.58 L659.37 337.98 L659.36 334.72 L656.49 334.42 L653.57 334.21 L653.82 330.57 L652.23 328.92 L648.03 330.26 L647.90 326.94 L647.50 323.88 L645.68 322.47 L643.97 320.93 L642.65 318.89 L640.53 317.86 L638.24 317.08 L633.36 319.83 L630.34 320.16 L626.67 321.50 L623.06 322.87 L622.99 319.12 L620.68 318.65 L620.71 314.61 L619.80 311.93 L617.23 311.84 L616.40 308.93 L613.89 308.78 L610.68 309.87 L609.49 307.50 L608.84 304.12 L605.63 305.33 L604.25 303.22 L602.73 301.29 L599.93 301.89 L598.68 299.40 L596.18 299.44 L593.14 300.70 L592.19 297.46 L589.94 297.05 L586.62 299.14 L585.55 296.05 L583.29 295.73 L581.09 295.30 L578.97 294.68 L576.44 295.15 L574.84 293.16 L572.11 294.29 L569.97 293.82 L568.19 292.27 L565.94 292.14 L563.73 291.88 L562.40 288.71 L559.69 290.20 L557.44 290.13 L555.80 287.82 L553.77 286.92 L551.89 285.34 L549.93 284.01 L547.40 285.18 L545.41 283.96 L542.80 285.76 L539.69 290.45 L537.24 291.98 L534.61 294.87 L531.95 298.36 L530.13 296.74 L528.34 294.71 L526.70 291.15 L524.54 291.51 L522.61 289.79 L520.90 285.55 L518.52 288.02 L516.19 290.66 L514.39 286.14 L512.25 286.04 L509.99 288.27 L507.98 285.50 L505.81 286.20 L503.67 286.18 L501.53 285.83 L499.40 287.92 L497.27 287.61 L495.12 286.38 L493.07 288.89 L490.93 288.49 L488.73 286.91 L486.71 288.79 L484.59 288.75 L482.49 289.09 L480.38 289.27 L478.64 293.06 L477.05 297.50 L474.88 296.56 L472.78 296.29 L471.29 300.39 L469.16 299.78 L467.27 300.75 L465.75 303.80 L463.29 301.45 L461.00 300.26 L458.35 297.49 L455.81 295.50 L454.13 297.58 L452.02 297.67 L450.07 298.43 L449.85 305.89 L448.13 307.21 L446.38 308.39 L444.91 310.43 L442.27 308.52 L440.81 310.56 L437.83 307.78 L435.08 305.94 L434.41 310.28 L432.37 310.53 L429.94 309.74 L429.25 313.64 L427.77 315.32 L425.90 315.99 L425.37 319.90 L423.07 319.47 L420.91 319.42 L420.35 322.99 L417.33 321.08 L415.88 322.63 L416.24 327.86 L412.87 325.38 L410.89 325.79 L410.20 328.70 L404.52 322.20 L401.55 321.00 L400.08 322.54 L398.30 323.54 L397.34 325.92 L395.26 326.38 L396.20 331.76 L396.76 336.36 L392.53 333.37 L391.91 336.03 L391.62 339.11 L387.98 337.25 L387.21 339.59 L385.70 340.85 L383.24 340.81 L381.00 341.11 L377.41 339.69 L377.81 343.47 L378.16 347.11 L379.53 351.88 L383.77 359.99 L385.20 364.49 L384.64 366.55 L383.54 367.97 L376.37 362.64 L371.27 359.82 L369.35 360.55 L364.11 357.83 L363.55 360.07 L364.51 363.82 L361.15 363.19 L360.69 365.47 L363.51 370.80 L360.20 370.29 L359.98 372.68 L361.48 376.54 L357.63 375.65 L357.18 377.75 L356.72 379.82 L351.27 377.76 L347.37 377.09 L347.87 379.98 L344.87 380.11 L343.09 381.22 L341.48 382.47 L340.29 384.05 L340.37 386.53 L338.94 387.92 L337.55 389.35 L337.45 391.64 L339.15 395.09 L340.63 398.30 L339.79 400.01 L338.53 401.45 L340.88 405.06 L339.22 406.24 L338.57 408.01 L341.48 411.75 L346.41 416.50 L349.12 419.92 L344.27 419.33 L341.91 420.10 L340.07 421.17 L337.70 422.01 L337.96 424.12 L338.91 426.52 L340.55 429.18 L343.82 432.50 L341.75 433.47 L332.31 431.47 L330.16 432.56 L325.16 432.59 L320.52 432.86 L323.56 436.00 L322.58 437.65 L320.06 438.77 L324.20 442.14 L326.23 444.73 L325.55 446.43 L328.35 449.16 L327.11 450.66 L325.58 452.11 L327.50 454.49 L320.07 454.45 L318.51 455.98 L323.51 459.06 L318.75 459.86 L318.23 461.64 L323.57 464.61 L317.32 465.25 L314.57 466.65 L315.47 468.71 L314.68 470.48 L313.96 472.27 L315.71 474.41 L319.14 476.73 L322.47 478.96 L319.64 480.45 L320.70 482.38 L324.08 484.49 L322.36 486.12 L324.06 488.02 L323.90 489.78 L323.06 491.51 L320.99 493.20 L316.21 494.86 L319.33 496.75 L321.23 498.58 L326.45 500.35 L334.70 501.99 L338.62 503.56 L338.80 505.17 L339.59 506.75 L332.03 508.75 L326.67 510.77 L327.90 512.42 L320.38 514.77 L321.48 516.48 L322.62 518.16 L318.71 520.40 L320.76 521.98 L323.26 523.47 L319.69 525.78 L320.01 527.58 L323.15 528.91 L320.80 531.14 L321.71 532.82 L322.73 534.47 L322.02 536.46 L324.49 537.78 L325.40 539.42 L323.98 541.59 L326.45 542.85 L327.12 544.52 L325.68 546.75 L328.64 547.80 L335.79 547.58 L338.66 548.50 L341.73 549.31 L347.51 549.19 L351.81 549.44 L353.30 550.58 L354.31 551.87 L355.43 553.10 L355.95 554.56 L356.20 556.11 L357.32 557.33 L356.61 559.28 L357.80 560.46 L359.27 561.51 L359.36 563.15 L360.21 564.46 L361.78 565.42 L362.73 566.66 L363.56 567.95 L364.48 569.19 L365.59 570.33 L366.69 571.46 L367.31 572.84 L367.48 574.48 L369.21 575.24 L370.40 576.29 L369.71 578.46 L371.31 579.26 L372.51 580.29 L373.25 581.61 L374.35 582.69 L375.89 583.46 L376.82 584.64 L378.01 585.63 L379.02 586.74 L380.20 587.72 L381.23 588.81 L381.75 590.28 L383.09 591.11 L384.41 591.96 L384.05 594.15 L385.57 594.83 L387.54 595.12 L388.00 596.66 L389.07 597.70 L390.76 598.16 L391.98 599.04 L392.98 600.11 L394.18 600.99 L395.44 601.80 L396.94 602.37 L397.89 603.48 L398.75 604.68 L400.25 605.21 L400.63 606.93 L402.00 607.60 L403.70 607.87 L404.62 609.02 L405.81 609.86 L407.41 610.20 L408.86 610.70 L409.98 611.60 L411.23 612.33 L412.62 612.88 L413.97 613.46 L415.06 614.38 L415.99 615.52 L417.64 615.66 L419.07 616.11 L419.54 617.92 L421.16 618.06 L422.57 618.50 L423.78 619.24 L425.13 619.74 L426.76 619.79 L428.00 620.46 L429.35 620.93 L430.70 621.39 L432.03 621.87 L433.35 622.37 L434.46 623.24 L435.89 623.52 L437.32 623.77 L438.08 625.37 L439.60 625.44 L441.28 625.13 L442.37 626.08 L443.72 626.44 L445.26 626.37 L446.66 626.60 L447.95 627.08 L449.27 627.46 L450.65 627.71 L452.10 627.74 L453.35 628.28 L454.57 628.93 L456.03 628.89 L457.09 630.03 L458.49 630.15 L460.01 629.86 L461.26 630.42 L462.59 630.70 L464.07 630.46 L465.50 630.33 L466.81 630.67 L468.16 630.82 L469.55 630.77 L470.93 630.76 L472.23 631.07 L473.52 631.49 L474.95 631.11 L476.34 630.92 L477.49 632.12 L478.92 631.64 L480.30 631.46 L481.62 631.63 L482.96 631.58 L484.36 631.06 L485.68 631.16 L487.02 631.05 L488.35 630.94 L489.67 630.83 L491.00 630.71 L492.29 631.01 L493.62 630.69 L494.95 630.35 L496.22 631.33 L497.55 630.83 L498.86 629.95 L500.16 630.28 L501.46 630.05 L502.75 629.40 L504.03 629.06 L505.32 628.94 L506.60 628.72 L507.87 628.36 L509.12 627.79 L510.40 627.68 L511.68 627.69 L512.91 627.08 L514.24 627.45 L515.48 627.06 L516.67 626.27 L517.94 626.17 L519.18 625.88 L520.35 625.14 L521.52 624.43 L522.76 624.19 L523.96 623.77 L525.14 623.21 L526.30 622.64 L527.53 622.38 L528.77 622.18 L529.86 621.35 L530.97 620.67 L532.38 621.10 L533.43 620.20 L534.50 619.42 L535.70 619.11 L536.83 618.54 L537.83 617.59 L538.97 617.11 L540.06 616.48 L541.15 615.87 L542.22 615.21 L543.28 614.55 L544.46 614.21 L545.47 613.42 L546.46 612.62 L547.81 612.70 L548.76 611.81 L549.59 610.67 L550.76 610.33 L551.77 609.62 L552.63 608.62 L553.60 607.84 L554.62 607.20 L555.62 606.52 L556.55 605.71 L557.41 604.78 L558.42 604.15 L559.47 603.57 L560.29 602.61 L561.42 602.17 L562.35 601.42 L563.10 600.37 L564.09 599.71 L565.00 598.94 L565.75 597.93 L566.48 596.92 L567.40 596.18 L568.18 595.25 L569.03 594.43 L569.80 593.50 L570.68 592.74 L571.56 591.97 L572.22 590.93 L572.92 589.95 L574.05 589.50 L574.65 588.41 L575.26 587.34 L576.12 586.58 L576.84 585.65 L577.38 584.54 L578.12 583.64 L578.79 582.69 L579.45 581.73 L580.09 580.76 L580.72 579.78 L581.48 578.94 L582.05 577.92 L582.61 576.89 L583.48 576.16 L584.01 575.12 L584.42 573.97 L585.12 573.10 L585.68 572.11 L586.12 571.01 L586.64 570.00 L587.20 569.02 L587.75 568.04 L588.23 567.01 L588.67 565.95 L589.20 564.98 L589.75 564.02 L590.15 562.95 L590.73 562.01 L591.19 561.00 L591.54 559.91 L592.01 558.92 L592.44 557.90 L592.78 556.83 L593.09 555.75 L593.51 554.73 L593.85 553.68 L594.21 552.64 L594.54 551.59 L594.91 550.57 L595.26 549.54 L595.53 548.47 L595.79 547.41 L596.24 546.43 L596.45 545.35 L596.65 544.28 L596.97 543.25 L597.21 542.20 L597.38 541.12 L597.62 540.08 L597.83 539.02 L598.02 537.97 L598.21 536.92 L598.38 535.86 L598.58 534.82 L598.73 533.77 L598.86 532.71 L599.07 531.69 L599.18 530.63 L599.24 529.57 L599.38 528.53 L599.48 527.48 L599.53 526.43 L599.59 525.38 L599.66 524.34 L599.72 523.30 L599.75 522.26 L599.77 521.22 L599.79 520.18 L599.80 519.15 L599.78 518.11 L599.76 517.08 L599.73 516.05 L599.69 515.02 L599.65 514.00 L599.60 512.98 L599.54 511.96 L599.48 510.94 L599.40 509.93 L599.31 508.92 L599.21 507.91 L599.11 506.90 L598.99 505.90 L598.86 504.90 L598.72 503.91 L598.57 502.91 L598.42 501.92 L598.25 500.94 Z"/>
  <svg class="pausebutton" id="pausebutton">
    <circle cx="500" cy="500" id="pausestart" class="pausestart" r="52.65"/>
    <rect height="50.02" width="10.00" y="473.68" rx="2.00" ry="2.00" x="479.99" class="pausesymbol"/>
    <rect height="50.02" width="10.00" y="473.68" rx="2.00" ry="2.00" x="510.00" class="pausesymbol"/>
    <polygon points="530.01,500 479.99,530.01 479.99,469.99" class="playsymbol"/>
  </svg>
  <polygon id="playback-head" class="playback-head" points="941.65,500 921.65,540 961.65,540"/>
</svg>