<?xml-stylesheet href="../../style/waveformjs.css" type="text/css"?>
<svg xmlns="http://www.w3.org/2000/svg" xmlns:xlink="http://www.w3.org/1999/xlink" width="100%" height="100%" viewBox="0 0 1000 1000">
  <path class="svg-wave" id="sp" d="M592.85 500.00 L593.85 500.94 L594.01 501.88 L594.40 502.83 L594.51 503.78 L594.20 504.71 L592.93 505.58 L591.44 506.41 L589.87 507.20 L588.06 507.95 L587.37 508.77 L587.89 509.71 L585.63 510.33 L584.67 511.07 L584.38 511.89 L579.22 511.97 L575.72 512.22 L575.13 512.90 L577.75 514.15 L573.06 514.05 L572.39 514.67 L583.47 517.79 L579.48 517.77 L577.05 518.04 L579.63 519.49 L581.22 520.74 L580.88 521.52 L577.65 521.49 L577.86 522.39 L577.57 523.15 L579.19 524.50 L573.46 523.53 L576.11 525.22 L578.90 527.03 L578.95 527.93 L578.61 528.70 L581.04 530.50 L577.15 529.92 L582.63 533.00 L578.51 532.27 L574.50 531.50 L579.30 534.46 L581.19 536.26 L580.91 537.11 L580.60 537.95 L577.63 537.50 L572.99 536.16 L577.60 539.42 L571.51 537.23 L570.74 537.73 L576.03 541.54 L578.27 543.78 L575.20 543.06 L574.88 543.87 L571.47 542.84 L574.09 545.43 L572.45 545.42 L567.65 543.36 L571.31 546.72 L574.92 550.16 L573.49 550.28 L572.60 550.74 L571.91 551.34 L573.28 553.43 L571.86 553.51 L566.59 550.62 L570.28 554.54 L572.16 557.17 L570.10 556.69 L567.49 555.71 L567.41 556.78 L567.52 558.04 L567.60 559.29 L564.85 558.04 L566.46 560.68 L565.85 561.34 L567.40 564.06 L564.50 562.55 L561.87 561.21 L562.58 563.15 L566.28 568.24 L562.31 565.45 L560.74 565.09 L561.87 567.65 L563.16 570.46 L561.10 569.55 L558.65 568.12 L557.98 568.73 L559.41 571.86 L557.72 571.26 L553.62 567.56 L555.86 571.86 L556.03 573.58 L554.08 572.51 L553.62 573.42 L553.34 574.60 L551.62 573.73 L554.24 579.14 L550.58 575.41 L550.63 577.14 L549.69 577.39 L549.77 579.24 L549.05 579.86 L546.38 577.24 L545.10 576.84 L545.93 580.08 L545.17 580.60 L542.49 577.63 L542.74 579.97 L542.87 582.18 L542.66 583.82 L541.04 582.67 L540.03 582.70 L539.01 582.69 L540.65 588.46 L538.01 584.94 L537.67 586.48 L536.69 586.59 L536.97 589.73 L536.72 591.72 L534.90 589.77 L533.52 588.85 L533.86 592.53 L533.51 594.49 L530.49 588.79 L530.52 591.84 L528.99 590.25 L528.18 590.84 L527.16 590.76 L525.14 587.15 L524.22 587.24 L524.72 592.64 L522.54 587.97 L521.26 586.59 L520.45 587.03 L519.96 588.94 L519.08 589.16 L518.18 589.31 L517.42 590.21 L516.83 592.06 L516.18 593.81 L514.64 590.28 L513.97 591.92 L513.19 593.09 L513.14 599.92 L512.01 598.95 L511.04 599.23 L510.15 600.33 L509.07 599.62 L507.73 595.44 L506.52 591.92 L505.68 593.34 L504.88 596.03 L503.88 594.99 L502.90 594.12 L502.02 597.00 L501.00 593.00 L500.08 595.14 L499.10 597.80 L498.09 599.21 L497.19 596.26 L496.01 601.74 L494.99 601.80 L494.36 595.08 L493.13 599.10 L491.71 604.49 L491.14 599.04 L490.19 598.55 L488.48 605.08 L487.40 605.19 L486.07 607.24 L484.90 607.78 L483.60 609.11 L482.35 609.92 L480.69 613.03 L480.67 606.70 L479.17 608.75 L477.97 609.12 L476.04 612.86 L476.09 607.35 L475.47 605.16 L474.54 604.39 L472.86 606.66 L472.93 602.08 L473.27 596.87 L471.37 599.88 L469.12 603.79 L468.70 601.46 L467.83 600.69 L466.83 600.36 L464.31 604.46 L464.15 601.62 L464.96 596.24 L463.01 598.52 L461.71 598.96 L460.27 599.71 L459.36 599.10 L458.67 597.97 L457.29 598.49 L456.02 598.70 L456.82 594.36 L456.09 593.46 L454.71 593.95 L451.60 597.89 L452.34 594.01 L450.71 594.87 L448.95 595.89 L444.79 601.26 L444.76 598.95 L444.94 596.35 L441.58 599.90 L439.59 600.95 L438.23 600.92 L438.17 598.79 L436.70 598.92 L437.46 595.62 L435.43 596.61 L437.51 591.49 L439.33 586.96 L434.93 591.30 L434.27 590.31 L435.12 587.29 L432.77 588.58 L432.49 587.13 L431.13 587.07 L432.19 583.99 L431.30 583.37 L431.39 581.59 L429.12 582.60 L428.76 581.36 L429.43 578.98 L427.99 578.99 L424.93 580.71 L425.60 578.41 L426.91 575.49 L424.81 576.13 L425.19 574.24 L423.73 574.19 L421.58 574.77 L420.75 574.06 L419.67 573.59 L416.51 574.95 L419.55 570.78 L417.43 571.20 L417.72 569.53 L418.39 567.58 L414.97 568.99 L413.61 568.67 L415.02 566.17 L409.62 568.94 L407.67 568.97 L408.23 567.14 L407.40 566.33 L405.83 566.04 L404.69 565.43 L404.39 564.24 L403.81 563.24 L404.21 561.61 L401.34 562.08 L400.49 561.23 L401.73 559.12 L402.79 557.17 L401.64 556.53 L399.41 556.47 L400.47 554.58 L402.18 552.38 L397.16 553.75 L398.27 551.88 L399.77 549.86 L399.30 548.84 L398.36 548.05 L396.08 547.86 L397.24 546.09 L396.53 545.17 L394.50 544.80 L394.29 543.65 L394.34 542.40 L395.25 540.82 L395.59 539.49 L393.25 539.16 L393.47 537.87 L392.67 536.95 L389.72 536.74 L386.23 536.64 L386.34 535.36 L383.96 534.83 L385.62 533.09 L380.32 533.33 L382.15 531.55 L383.76 529.88 L383.52 528.70 L381.43 527.96 L382.26 526.53 L384.76 524.76 L383.26 523.86 L382.30 522.83 L381.32 521.79 L381.76 520.49 L382.96 519.08 L381.91 518.04 L378.65 517.30 L381.51 515.68 L382.10 514.41 L382.82 513.13 L382.45 511.98 L380.86 510.94 L382.29 509.63 L383.14 508.38 L379.31 507.44 L379.53 506.22 L383.12 504.86 L380.16 503.79 L380.60 502.58 L380.89 501.38 L378.62 500.19 L379.82 498.99 L378.30 497.76 L373.25 496.40 L375.54 495.22 L374.64 493.93 L374.04 492.63 L372.37 491.26 L371.12 489.87 L371.87 488.64 L372.63 487.43 L372.68 486.14 L371.69 484.74 L375.82 483.97 L377.47 482.93 L376.09 481.48 L376.54 480.28 L377.71 479.21 L377.79 477.96 L377.14 476.57 L372.96 474.46 L375.89 473.75 L377.47 472.81 L377.16 471.44 L377.96 470.34 L378.08 469.08 L379.23 468.08 L380.84 467.23 L377.93 465.11 L377.63 463.69 L379.82 463.03 L378.99 461.45 L380.34 460.56 L379.70 459.01 L378.72 457.32 L378.70 455.94 L377.73 454.20 L375.56 451.96 L377.07 451.13 L381.56 451.53 L378.18 448.72 L377.76 447.10 L380.19 446.73 L382.19 446.20 L380.84 444.13 L382.59 443.52 L382.55 442.04 L382.82 440.71 L382.19 438.90 L385.12 438.96 L381.20 435.34 L382.97 434.78 L386.76 435.40 L385.40 433.10 L385.31 431.50 L388.00 431.58 L390.73 431.74 L390.73 430.21 L391.25 429.00 L389.98 426.59 L391.11 425.76 L393.58 425.87 L390.46 422.06 L391.15 420.90 L394.14 421.44 L394.75 420.25 L394.80 418.62 L396.01 417.88 L397.70 417.54 L397.48 415.66 L395.98 412.67 L394.40 409.53 L395.45 408.60 L396.63 407.79 L395.62 405.00 L396.41 403.80 L399.01 404.32 L400.61 403.93 L401.70 403.06 L401.91 401.31 L403.08 400.52 L405.22 400.75 L405.55 399.10 L406.40 397.98 L406.61 396.15 L408.54 396.22 L409.66 395.41 L410.83 394.65 L410.90 392.57 L413.26 393.25 L415.41 393.75 L416.12 392.45 L417.22 391.65 L417.73 390.05 L419.66 390.36 L420.99 389.89 L419.17 384.94 L421.14 385.31 L423.54 386.40 L423.89 384.44 L423.86 381.84 L425.58 381.93 L427.35 382.14 L426.50 378.05 L426.59 375.39 L425.31 370.27 L426.19 368.78 L425.50 364.39 L425.25 360.66 L426.93 360.45 L428.60 360.27 L430.07 359.70 L431.77 359.62 L433.87 360.40 L435.59 360.43 L437.75 361.49 L439.44 361.57 L440.77 360.83 L442.34 360.68 L443.51 359.54 L444.91 358.97 L446.31 358.39 L447.59 357.48 L448.86 356.52 L450.04 355.26 L451.41 354.55 L452.92 354.22 L454.37 353.74 L456.14 354.31 L457.61 353.89 L458.66 352.00 L460.35 352.39 L461.74 351.65 L462.97 350.25 L464.54 350.15 L465.93 349.36 L467.54 349.46 L468.89 348.39 L469.78 344.88 L471.25 344.15 L472.50 342.04 L473.78 339.97 L475.64 341.37 L477.29 341.61 L479.02 342.48 L480.74 343.42 L482.15 341.85 L483.51 339.53 L485.10 339.23 L486.85 340.75 L488.32 338.94 L489.98 339.58 L491.70 341.70 L493.26 341.07 L494.84 340.63 L496.43 340.66 L498.03 340.77 L499.62 341.29 L501.21 341.13 L502.79 341.80 L504.35 342.49 L505.96 341.55 L507.57 341.14 L509.13 341.77 L510.79 340.59 L512.29 341.98 L513.92 341.52 L515.46 342.14 L517.08 341.90 L518.70 341.71 L520.39 341.05 L522.30 338.96 L524.35 336.22 L525.90 337.06 L527.65 336.56 L529.67 334.73 L531.59 333.59 L532.76 336.40 L534.25 337.42 L535.64 338.80 L537.57 337.82 L538.52 340.96 L538.94 345.98 L541.19 343.67 L542.78 343.98 L544.70 343.14 L545.88 344.92 L547.62 344.75 L548.44 347.54 L550.95 345.01 L551.67 347.97 L552.19 351.32 L554.89 348.51 L556.63 348.44 L558.06 349.23 L559.98 348.78 L561.31 349.84 L564.13 347.31 L565.44 348.44 L565.30 352.82 L568.23 350.28 L569.91 350.57 L571.35 351.40 L572.17 353.46 L574.56 352.34 L575.79 353.56 L579.36 350.36 L579.77 353.14 L581.44 353.58 L584.87 350.95 L586.66 351.28 L587.27 353.61 L589.55 353.15 L590.06 355.58 L593.73 353.00 L594.16 355.54 L593.62 359.45 L596.35 358.45 L597.99 359.08 L599.48 359.95 L598.97 363.58 L600.76 364.00 L601.41 365.93 L604.63 364.52 L604.31 367.69 L605.41 369.01 L608.22 368.24 L609.66 369.17 L609.63 371.84 L612.18 371.48 L611.94 374.31 L615.45 372.95 L615.85 375.05 L615.58 377.81 L618.25 377.47 L620.35 377.76 L621.41 379.13 L621.62 381.31 L624.53 380.88 L626.28 381.60 L629.59 380.91 L629.79 383.11 L631.92 383.55 L634.89 383.31 L636.27 384.48 L635.05 387.81 L637.42 388.15 L635.56 391.90 L638.74 391.62 L637.96 394.43 L637.74 396.76 L638.90 398.05 L641.51 398.29 L642.49 399.73 L642.93 401.54 L644.67 402.47 L644.79 404.48 L646.57 405.39 L645.17 408.34 L646.26 409.69 L648.26 410.49 L649.79 411.59 L649.95 413.51 L652.52 414.04 L652.24 416.20 L655.78 416.27 L655.09 418.63 L655.26 420.51 L655.65 422.27 L656.87 423.61 L656.83 425.55 L657.72 427.06 L659.88 427.99 L664.16 428.03 L666.46 429.00 L666.60 430.90 L669.84 431.53 L672.47 432.47 L672.12 434.59 L670.64 437.09 L672.22 438.46 L670.35 441.04 L672.71 442.16 L670.02 444.94 L671.25 446.43 L671.54 448.21 L674.00 449.36 L673.66 451.34 L673.52 453.25 L674.44 454.87 L676.60 456.19 L676.04 458.19 L672.79 460.78 L675.38 462.03 L677.13 463.51 L677.69 465.24 L677.35 467.14 L678.62 468.75 L679.68 470.42 L681.60 471.96 L679.57 474.11 L681.14 475.73 L680.28 477.68 L681.54 479.36 L680.38 481.32 L680.76 483.11 L681.55 484.86 L686.40 486.33 L685.95 488.24 L682.76 490.27 L686.34 491.95 L687.96 493.76 L686.12 495.68 L684.65 497.57 L685.44 499.41 L686.63 501.27 L686.81 503.14 L683.96 504.93 L685.38 506.83 L685.41 508.69 L687.11 510.64 L685.31 512.40 L685.58 514.28 L685.21 516.12 L688.29 518.29 L685.57 519.90 L680.87 521.22 L683.89 523.45 L684.89 525.45 L683.18 527.09 L683.54 529.02 L683.56 530.91 L685.48 533.14 L684.80 534.93 L681.31 536.15 L682.98 538.39 L683.07 540.33 L683.60 542.37 L682.24 543.98 L682.97 546.10 L682.38 547.89 L686.94 551.10 L684.30 552.36 L682.08 553.70 L686.00 556.89 L687.56 559.42 L684.63 560.53 L683.75 562.29 L683.19 564.15 L684.43 566.66 L680.51 567.29 L676.91 567.97 L678.60 570.68 L677.97 572.49 L678.19 574.67 L676.28 575.95 L676.03 577.94 L673.73 579.01 L676.74 582.52 L673.39 583.08 L670.04 583.57 L671.28 586.32 L670.71 588.18 L668.37 589.12 L668.42 591.32 L667.06 592.75 L668.60 595.82 L667.16 597.23 L663.32 597.19 L665.02 600.45 L664.98 602.70 L664.87 604.94 L662.88 605.97 L663.79 608.91 L662.62 610.49 L666.10 615.30 L662.92 615.53 L661.42 616.91 L663.55 620.97 L662.80 622.95 L659.00 622.59 L658.51 624.76 L655.79 625.16 L656.78 628.56 L653.52 628.47 L649.56 627.72 L649.63 630.39 L649.14 632.61 L647.88 634.16 L645.28 634.49 L645.09 637.02 L642.67 637.47 L642.85 640.42 L639.51 639.91 L637.53 640.71 L637.74 643.77 L636.55 645.41 L634.23 645.84 L633.85 648.38 L630.91 648.06 L632.21 652.59 L629.49 652.50 L626.83 652.44 L626.43 655.08 L625.41 657.00 L623.84 658.26 L621.73 658.81 L621.46 661.79 L620.59 664.01 L620.24 667.01 L617.70 666.98 L616.88 669.40 L615.91 671.64 L613.84 672.25 L610.68 671.17 L609.53 673.16 L607.60 673.94 L609.70 681.37 L606.58 680.26 L603.45 679.02 L603.77 683.80 L601.27 683.63 L597.26 680.62 L595.08 680.87 L593.83 682.91 L592.25 684.34 L590.32 685.08 L587.26 683.45 L585.83 685.19 L584.20 686.55 L582.07 686.79 L580.06 687.27 L578.71 689.33 L576.29 688.81 L575.74 692.99 L573.26 692.32 L570.89 691.82 L569.20 693.19 L567.57 694.75 L565.07 693.78 L563.10 694.32 L561.99 697.60 L560.91 701.20 L559.29 703.12 L557.35 704.07 L556.67 709.67 L554.22 708.85 L552.08 709.23 L549.88 709.28 L547.27 707.50 L544.95 706.83 L542.91 707.44 L540.29 705.09 L538.02 704.34 L536.41 707.15 L534.24 706.96 L532.07 706.60 L530.73 711.93 L529.01 715.22 L526.90 715.86 L525.09 719.14 L523.19 722.17 L520.95 722.30 L518.63 721.32 L516.47 722.16 L514.28 722.84 L512.01 722.21 L509.87 724.38 L507.65 725.17 L505.43 726.25 L503.17 726.42 L500.90 725.60 L498.64 725.52 L496.39 725.46 L494.17 724.11 L491.95 723.30 L489.75 722.58 L487.52 722.63 L485.29 722.44 L483.00 723.23 L480.60 725.01 L478.21 726.24 L475.84 727.04 L473.45 727.78 L471.13 727.88 L469.02 726.33 L466.84 725.47 L464.55 725.35 L462.44 724.14 L460.28 723.35 L458.11 722.60 L455.96 721.80 L453.97 720.24 L451.79 719.69 L449.52 719.51 L447.28 719.21 L445.20 718.24 L442.86 718.28 L440.28 719.19 L438.32 717.76 L435.67 718.75 L433.01 719.66 L430.57 719.76 L428.02 720.15 L426.05 718.73 L424.43 716.36 L422.05 716.21 L419.98 715.19 L417.43 715.43 L413.76 718.45 L411.10 718.74 L407.89 720.31 L404.77 721.50 L403.21 719.09 L401.84 716.29 L399.82 715.02 L397.88 713.57 L395.82 712.39 L393.15 712.44 L390.88 711.66 L388.47 711.12 L386.09 710.50 L383.85 709.61 L381.17 709.47 L379.05 708.33 L376.89 707.25 L374.69 706.22 L372.92 704.50 L371.73 701.89 L370.45 699.46 L367.81 699.14 L365.82 697.81 L363.60 696.82 L361.24 696.01 L358.80 695.28 L356.59 694.22 L355.05 692.25 L353.52 690.29 L351.75 688.66 L349.42 687.73 L346.22 687.84 L344.11 686.59 L341.57 685.82 L338.46 685.66 L337.66 682.87 L336.44 680.57 L333.95 679.67 L333.26 676.84 L331.38 675.28 L328.93 674.31 L327.68 672.11 L326.74 669.62 L325.46 667.48 L324.09 665.45 L322.64 663.50 L320.53 662.16 L317.79 661.36 L314.46 661.03 L312.14 659.77 L310.08 658.28 L307.65 657.07 L307.00 654.41 L307.14 651.16 L305.30 649.48 L302.49 648.53 L301.42 646.25 L299.71 644.44 L296.52 643.67 L294.39 642.11 L293.93 639.41 L294.04 636.35 L291.44 635.09 L290.20 632.93 L288.00 631.37 L286.25 629.52 L284.16 627.85 L281.43 626.53 L281.12 623.81 L281.06 620.97 L280.37 618.50 L279.12 616.34 L277.72 614.25 L278.13 611.25 L276.44 609.31 L276.75 606.41 L277.26 603.44 L275.70 601.45 L274.29 599.39 L272.22 597.59 L270.83 595.48 L268.46 593.77 L267.22 591.57 L266.09 589.32 L263.15 587.74 L261.21 585.76 L260.00 583.49 L258.30 581.38 L257.08 579.10 L256.15 576.71 L257.30 573.69 L257.26 571.06 L255.06 569.05 L252.81 567.02 L253.49 564.20 L252.07 561.93 L250.34 559.72 L251.51 556.82 L252.09 554.08 L253.42 551.21 L253.09 548.71 L251.48 546.45 L251.04 543.96 L251.03 541.40 L249.15 539.14 L247.24 536.85 L246.29 534.40 L247.11 531.72 L244.72 529.43 L243.43 526.98 L244.64 524.28 L245.67 521.61 L245.87 519.04 L245.91 516.48 L246.37 513.91 L245.85 511.39 L245.30 508.86 L244.34 506.34 L242.60 503.80 L242.00 501.23 L242.15 498.65 L241.07 496.06 L239.82 493.44 L240.71 490.86 L241.26 488.29 L237.72 485.50 L238.77 482.94 L238.99 480.33 L237.66 477.59 L238.10 474.99 L238.34 472.37 L238.96 469.79 L239.61 467.22 L240.08 464.64 L239.95 461.97 L238.62 459.10 L238.78 456.44 L238.24 453.66 L236.99 450.72 L238.69 448.33 L240.21 445.92 L241.35 443.46 L242.51 441.01 L243.86 438.61 L244.36 436.02 L244.57 433.35 L245.16 430.78 L245.89 428.24 L246.29 425.61 L246.93 423.04 L247.26 420.37 L246.31 417.27 L245.79 414.28 L245.51 411.34 L244.27 408.03 L244.44 405.20 L245.66 402.75 L246.96 400.33 L248.71 398.11 L250.49 395.91 L251.78 393.52 L253.19 391.19 L255.00 389.05 L256.66 386.86 L258.18 384.61 L260.36 382.69 L262.41 380.74 L263.92 378.52 L263.68 375.40 L263.00 371.99 L264.08 369.51 L263.86 366.29 L264.44 363.49 L266.32 361.44 L268.63 359.66 L270.48 357.63 L272.16 355.49 L273.79 353.33 L274.99 350.89 L276.87 348.91 L278.84 347.00 L280.27 344.71 L282.45 342.97 L284.98 341.50 L287.30 339.90 L291.55 339.81 L295.54 339.60 L299.24 339.23 L303.75 339.60 L307.21 339.19 L309.04 337.45 L310.34 335.25 L310.06 331.65 L312.15 330.11 L313.02 327.47 L316.05 326.83 L317.09 324.33 L320.57 324.19 L323.11 323.17 L323.40 319.90 L325.98 318.94 L328.51 317.97 L326.53 312.14 L328.05 310.00 L331.55 310.08 L331.59 306.27 L333.43 304.46 L334.64 301.90 L336.82 300.50 L337.48 297.20 L339.18 295.16 L341.69 294.15 L344.56 293.63 L346.07 291.34 L349.98 292.32 L352.65 291.66 L353.77 288.80 L356.64 288.44 L360.62 289.82 L360.36 284.79 L361.83 282.32 L365.59 283.49 L366.05 279.34 L367.47 276.67 L369.27 274.60 L371.10 272.54 L371.96 268.71 L374.59 268.00 L377.51 267.89 L379.79 266.59 L382.58 266.29 L386.16 267.66 L388.63 266.82 L390.76 265.27 L392.91 263.74 L396.69 265.88 L397.29 260.80 L398.99 258.10 L402.58 259.98 L404.34 257.40 L406.40 255.48 L408.57 253.79 L411.08 253.01 L412.80 249.97 L415.36 249.28 L418.05 249.01 L420.60 248.30 L423.75 249.57 L426.65 250.18 L429.20 249.62 L431.66 248.77 L433.73 246.36 L436.93 248.38 L438.68 244.52 L440.79 241.98 L443.55 242.22 L445.82 240.16 L448.06 237.80 L450.56 236.66 L453.19 236.16 L455.42 233.24 L458.30 234.11 L461.17 235.18 L463.70 233.91 L466.74 236.51 L469.64 238.52 L472.17 237.33 L474.89 238.12 L477.37 236.22 L480.22 238.80 L482.77 237.69 L485.29 235.52 L487.97 236.29 L490.59 235.68 L493.18 233.35 L495.83 232.06 L498.50 231.06 L501.20 228.56 L503.91 228.99 L506.59 230.15 L509.35 228.46 L511.90 232.34 L514.48 234.28 L517.24 232.74 L519.75 235.15 L522.58 233.19 L525.19 234.03 L527.86 234.16 L530.75 232.47 L533.44 232.63 L536.25 231.97 L539.11 231.08 L541.76 231.70 L544.42 232.29 L547.58 229.99 L550.03 231.83 L552.53 233.25 L555.53 232.13 L557.57 235.62 L559.67 238.61 L562.79 237.06 L564.79 240.24 L568.04 238.37 L570.97 237.90 L573.38 239.36 L576.40 238.68 L579.38 238.21 L581.95 239.16 L585.33 237.62 L587.90 238.63 L590.77 238.76 L594.03 237.88 L596.29 239.79 L598.20 242.57 L601.68 241.24 L602.80 245.90 L604.65 248.58 L608.44 246.65 L609.54 250.98 L612.62 250.77 L616.20 249.57 L618.43 251.30 L621.01 252.30 L623.97 252.55 L626.45 253.78 L629.61 253.71 L631.74 255.63 L634.84 255.76 L638.29 255.31 L640.11 257.78 L641.49 260.96 L644.96 260.58 L645.56 264.92 L647.10 267.66 L651.24 266.33 L651.56 270.88 L654.49 271.46 L659.11 269.63 L660.83 272.04 L663.02 273.77 L666.66 273.53 L668.83 275.33 L672.21 275.54 L674.04 277.78 L677.24 278.31 L680.23 279.13 L681.76 281.75 L682.01 285.84 L685.67 285.91 L686.16 289.63 L686.95 292.95 L691.05 292.62 L691.36 296.40 L692.75 298.99 L698.34 297.26 L700.94 298.67 L701.20 302.40 L705.12 302.54 L707.80 303.93 L710.36 305.45 L711.52 308.27 L714.90 309.08 L716.90 311.15 L718.14 313.87 L718.47 317.34 L720.49 319.36 L720.26 323.21 L721.46 325.85 L724.44 327.11 L725.12 330.15 L725.39 333.45 L731.75 332.31 L734.75 333.69 L733.51 338.05 L737.70 338.64 L740.42 340.29 L742.33 342.49 L743.40 345.23 L747.10 346.33 L748.69 348.77 L749.18 351.86 L749.66 354.93 L750.65 357.70 L749.64 361.55 L750.52 364.32 L752.46 366.52 L753.80 369.04 L753.04 372.62 L759.08 372.81 L762.06 374.58 L760.15 378.68 L764.10 380.04 L766.74 382.04 L767.59 384.85 L768.12 387.79 L771.71 389.46 L772.55 392.29 L772.54 395.43 L773.02 398.36 L773.19 401.40 L772.09 404.86 L772.99 407.60 L774.03 410.29 L776.20 412.63 L774.70 416.12 L779.20 417.78 L781.71 420.10 L779.73 423.67 L782.75 425.88 L784.56 428.44 L785.13 431.32 L785.76 434.18 L788.79 436.52 L788.89 439.52 L788.58 442.59 L789.19 445.47 L788.19 448.64 L786.88 451.83 L787.62 454.65 L787.76 457.58 L790.15 460.18 L787.97 463.41 L792.17 465.85 L794.51 468.55 L793.54 471.62 L796.24 474.35 L798.16 477.18 L797.67 480.21 L797.76 483.20 L800.70 486.05 L799.44 489.10 L797.29 492.16 L798.41 495.11 L795.35 498.12 L793.38 501.06 L794.21 504.01 L793.18 506.93 L796.11 509.96 L794.82 512.87 L796.37 515.91 L798.52 519.02 L798.01 521.98 L799.16 525.08 L800.75 528.24 L799.91 531.19 L799.22 534.15 L801.74 537.49 L799.93 540.32 L798.03 543.10 L799.92 546.44 L795.66 548.82 L793.11 551.41 L795.22 554.83 L791.21 557.10 L793.45 560.59 L794.07 563.80 L794.18 566.91 L795.58 570.34 L796.13 573.61 L795.83 576.68 L796.64 580.07 L794.24 582.58 L793.93 585.68 L795.34 589.30 L792.83 591.75 L789.70 593.96 L791.32 597.72 L786.19 599.19 L782.47 601.07 L785.12 605.25 L780.61 606.79 L781.37 610.31 L782.78 614.14 L782.27 617.23 L781.96 620.42 L782.99 624.22 L781.56 626.96 L782.05 630.60 L779.47 632.81 L778.39 635.73 L778.18 639.08 L775.49 641.20 L771.91 642.82 L772.16 646.44 L768.33 647.86 L764.41 649.16 L765.83 653.49 L760.97 654.18 L760.70 657.56 L762.82 662.45 L762.09 665.65 L760.16 668.09 L761.27 672.54 L759.69 675.24 L759.07 678.63 L756.29 680.52 L755.31 683.67 L754.35 686.87 L750.94 688.26 L746.81 689.04 L746.55 692.78 L741.45 692.72 L738.21 694.07 L738.58 698.37 L733.73 698.32 L732.12 700.98 L734.47 707.16 L732.81 709.87 L729.97 711.52 L730.47 716.27 L728.77 719.02 L727.24 721.96 L724.16 723.37 L723.12 726.82 L721.14 729.35 L717.51 730.15 L713.42 730.40 L712.06 733.57 L707.13 732.78 L703.98 733.90 L703.24 737.82 L699.30 737.99 L696.20 739.10 L697.89 746.13 L696.40 749.35 L692.28 749.21 L691.93 753.96 L690.16 756.93 L687.92 759.27 L684.54 760.05 L683.41 764.01 L680.77 765.85 L676.99 765.96 L673.20 765.99 L670.76 768.08 L666.25 766.85 L663.12 767.76 L661.45 771.09 L658.23 771.82 L654.56 771.72 L655.02 779.00 L653.18 782.28 L648.82 780.92 L647.72 785.71 L645.43 788.31 L642.72 790.13 L639.27 790.40 L637.50 794.22 L634.36 795.18 L630.54 794.56 L627.29 795.16 L624.12 795.91 L619.93 794.13 L616.82 794.90 L614.16 796.83 L611.38 798.46 L607.37 796.74 L606.35 803.38 L604.11 806.80 L600.25 805.41 L598.27 809.78 L595.68 812.43 L592.50 813.22 L589.18 813.48 L586.64 816.55 L583.19 816.34 L579.43 814.78 L576.31 815.70 L572.66 814.32 L568.82 811.91 L565.75 812.81 L562.63 813.50 L559.87 816.15 L556.20 813.92 L553.93 819.60 L551.21 823.17 L547.83 822.65 L544.94 825.60 L541.89 827.67 L538.58 827.79 L535.20 827.16 L532.25 830.84 L528.77 829.24 L525.30 827.21 L522.12 828.78 L518.62 825.42 L515.22 822.39 L512.04 823.78 L508.75 822.02 L505.57 824.56 L502.31 822.61 L499.08 825.83 L495.79 828.23 L492.52 827.58 L489.20 828.87 L485.83 830.56 L482.56 829.87 L479.26 829.72 L475.73 832.64 L472.49 831.36 L469.38 828.89 L465.83 831.11 L462.98 826.67 L460.09 823.29 L456.55 825.17 L453.62 822.53 L450.08 824.08 L446.90 823.24 L443.38 824.33 L439.70 826.11 L436.42 825.61 L432.87 826.39 L429.11 828.04 L426.06 826.32 L422.80 825.54 L419.09 826.62 L416.22 824.27 L413.50 821.50 L409.72 822.63 L407.56 818.08 L405.11 814.71 L401.15 816.39 L398.89 812.59 L395.14 813.44 L391.19 814.77 L387.72 814.57 L384.11 814.71 L380.25 815.43 L376.66 815.33 L372.87 815.70 L370.26 813.09 L367.05 811.98 L363.07 812.62 L360.76 809.43 L358.81 805.57 L354.76 806.25 L353.75 800.58 L352.00 796.60 L347.48 798.16 L346.42 792.97 L342.40 793.47 L337.45 795.56 L334.41 794.07 L331.15 792.98 L326.79 793.72 L323.65 792.32 L320.06 791.63 L317.82 788.76 L314.44 787.70 L310.77 787.05 L309.00 783.52 L307.88 779.12 L303.84 778.97 L303.40 773.74 L302.19 769.69 L297.53 770.34 L297.09 765.35 L293.75 764.21 L287.74 766.36 L284.82 764.56 L282.50 762.02 L277.97 762.09 L274.64 760.69 L271.33 759.23 L269.78 755.79 L265.92 754.91 L262.72 753.26 L261.60 749.41 L261.13 744.95 L257.35 743.89 L257.88 738.55 L256.72 734.94 L252.20 734.56 L251.93 730.16 L249.93 727.40 L242.70 729.32 L240.15 726.97 L238.97 723.44 L234.21 722.95 L231.56 720.63 L228.50 718.64 L227.48 715.01 L223.79 713.47 L221.23 711.03 L220.88 706.93 L220.93 702.60 L217.99 700.46 L219.21 695.40 L218.44 691.79 L214.74 690.16 L214.67 686.11 L214.17 682.39 L205.54 683.78 L199.18 683.59 L200.39 678.77 L194.21 678.33 L188.27 677.64 L186.10 674.75 L186.77 670.29 L181.17 669.22 L179.44 666.06 L180.76 661.35 L180.98 657.25 L180.24 653.66 L183.02 648.44 L182.78 644.70 L179.71 642.25 L178.90 638.78 L181.74 633.79 L174.19 633.15 L170.96 630.65 L174.46 625.50 L169.71 623.56 L167.01 620.78 L165.48 617.57 L165.15 613.93 L161.56 611.39 L161.43 607.69 L163.15 603.45 L163.48 599.68 L163.99 595.88 L166.66 591.53 L165.48 588.26 L164.28 584.99 L162.87 581.77 L163.33 578.11 L156.71 576.03 L150.99 573.65 L149.15 570.38 L141.33 568.22 L139.73 564.80 L139.83 561.07 L142.66 556.92 L146.50 552.69 L148.39 548.82 L148.27 545.26 L147.87 541.73 L143.87 538.60 L140.49 535.33 L136.11 532.09 L133.97 528.60 L134.87 524.85 L135.38 521.16 L137.96 517.38 L141.60 513.61 L144.50 509.94 L148.24 506.32 L149.47 502.79 L146.77 499.28 L146.34 495.74 L141.49 492.10 L137.21 488.37 L135.74 484.68 L136.78 481.08 L136.03 477.39 L136.99 473.80 L142.84 470.63 L143.61 467.11 L143.30 463.48 L141.76 459.70 L142.57 456.16 L142.39 452.51 L139.96 448.51 L142.89 445.28 L143.23 441.68 L144.67 438.26 L146.50 434.93 L143.42 430.67 L141.20 426.51 L140.49 422.61 L139.32 418.57 L139.69 414.86 L142.09 411.64 L145.80 408.79 L149.16 405.90 L151.71 402.84 L155.04 400.05 L153.80 395.92 L152.68 391.79 L151.96 387.73 L151.86 383.84 L152.48 380.17 L150.73 375.65 L156.13 373.68 L161.38 371.75 L161.32 367.85 L161.27 363.90 L164.95 361.48 L169.88 359.63 L167.73 354.78 L166.88 350.43 L172.08 348.80 L173.84 345.64 L173.42 341.42 L174.83 338.07 L176.53 334.86 L175.97 330.47 L175.28 325.95 L173.90 320.99 L173.97 316.76 L175.55 313.36 L178.23 310.59 L182.70 308.92 L187.29 307.40 L191.17 305.50 L193.77 302.83 L194.29 298.82 L195.75 295.39 L197.68 292.27 L195.67 286.37 L200.54 285.29 L205.41 284.29 L203.87 278.58 L206.45 275.90 L212.69 276.08 L214.72 273.04 L212.90 266.87 L216.89 265.37 L221.40 264.36 L217.15 255.88 L217.74 251.42 L218.72 247.25 L219.58 242.91 L222.63 240.55 L226.13 238.63 L230.85 237.95 L236.62 238.38 L242.15 238.70 L245.79 237.19 L247.71 233.90 L249.15 230.06 L249.73 225.22 L249.12 218.96 L251.88 216.39 L255.61 214.96 L259.33 213.55 L264.12 213.48 L268.18 212.60 L268.39 206.91 L271.49 204.82 L276.08 204.68 L277.77 200.74 L278.88 195.94 L283.25 195.59 L287.41 195.02 L287.50 188.57 L289.48 184.74 L294.34 185.25 L297.61 183.38 L301.45 182.44 L305.83 182.41 L308.99 180.45 L312.10 178.40 L313.94 174.11 L315.28 168.80 L317.09 164.20 L319.56 160.70 L323.45 159.85 L328.62 161.57 L334.35 164.60 L339.41 166.51 L342.10 163.51 L345.78 162.62 L349.03 160.80 L348.61 150.50 L352.35 149.57 L357.24 151.48 L359.50 146.97 L362.74 144.80 L367.85 147.59 L372.06 148.16 L373.96 142.27 L377.65 141.36 L382.46 143.85 L384.98 139.39 L387.90 136.02 L390.97 132.97 L393.87 129.19 L397.00 126.03 L400.35 123.52 L404.00 122.08 L408.34 123.42 L413.00 126.33 L417.42 128.56 L421.79 130.82 L425.46 129.93 L428.73 126.90 L432.25 125.05 L435.23 119.87 L439.17 120.06 L442.84 118.58 L446.92 119.92 L451.38 124.49 L454.58 119.33 L458.30 118.06 L462.37 120.25 L466.14 119.53 L469.73 116.44 L473.57 116.27 L477.64 119.98 L481.22 115.07 L484.87 109.89 L488.82 111.28 L492.66 108.53 L496.58 109.89 L500.48 112.72 L504.35 113.42 L508.19 114.24 L512.04 114.62 L516.09 110.17 L520.10 108.14 L524.03 108.07 L527.79 110.51 L531.36 114.83 L534.89 118.63 L538.67 119.37 L542.45 119.96 L546.21 120.69 L550.83 114.95 L555.24 111.48 L558.55 115.79 L562.34 116.70 L566.48 115.56 L570.44 115.61 L573.80 118.82 L577.52 120.01 L582.16 116.86 L585.91 118.04 L588.98 122.08 L592.73 123.10 L596.75 123.06 L600.18 125.27 L604.18 125.36 L608.55 124.25 L613.07 122.81 L617.83 120.75 L622.31 119.78 L626.39 120.17 L629.57 123.25 L632.25 127.60 L634.80 132.13 L637.98 134.81 L641.29 137.07 L645.54 136.93 L649.24 138.20 L654.75 135.24 L659.56 134.12 L661.55 139.45 L664.92 141.56 L669.24 141.67 L673.10 142.79 L674.86 148.16 L678.67 149.34 L684.19 147.28 L686.66 151.09 L688.76 155.49 L693.44 155.17 L697.09 156.76 L700.48 158.80 L704.65 159.55 L709.51 159.24 L714.05 159.52 L718.48 160.07 L722.00 162.08 L724.73 165.25 L726.64 169.61 L728.95 173.29 L731.98 175.91 L735.58 177.74 L739.79 178.77 L744.50 179.21 L747.41 182.04 L752.05 182.66 L754.19 186.46 L754.12 192.88 L760.02 192.07 L763.78 193.88 L763.62 200.18 L766.09 203.41 L770.80 204.16 L773.95 206.66 L774.19 212.23 L780.37 211.57 L787.03 210.57 L790.17 213.20 L795.59 213.63 L799.79 215.32 L802.75 218.21 L803.54 223.09 L804.35 227.87 L805.00 232.74 L807.07 236.30 L810.69 238.55 L812.90 241.98 L815.91 244.77 L819.81 246.86 L824.36 248.50 L823.23 254.51 L824.41 258.69 L828.89 260.43 L829.49 264.99 L833.69 267.00 L834.30 271.51 L836.03 275.22 L842.74 275.67 L845.59 278.70 L845.71 283.47 L848.55 286.51 L851.36 289.60 L854.01 292.79 L856.39 296.16 L859.10 299.34 L861.64 302.64 L865.33 305.34 L869.43 307.88 L869.74 312.39 L871.14 316.32 L873.75 319.67 L874.68 323.81 L875.04 328.20 L874.74 332.85 L876.49 336.56 L878.15 340.32 L880.19 343.92 L885.79 346.11 L887.81 349.78 L892.59 352.43 L896.39 355.51 L898.20 359.34 L901.55 362.66 L901.97 366.99 L901.86 371.47 L902.10 375.81 L900.05 380.81 L899.53 385.31 L901.79 388.99 L902.66 393.08 L906.24 396.46 L910.81 399.66 L914.98 403.03 L918.46 406.62 L920.91 410.48 L922.62 414.53 L923.59 418.73 L925.09 422.84 L926.02 427.07 L926.40 431.38 L926.30 435.76 L925.22 440.27 L923.89 444.77 L922.58 449.24 L921.94 453.59 L922.18 457.83 L923.09 462.01 L925.83 466.05 L927.25 470.23 L930.01 474.36 L932.25 478.56 L933.35 482.85 L935.01 487.14 L935.92 491.47 L936.89 495.82 L945.72 500.00 L946.93 495.53 L947.16 491.06 L947.16 486.58 L947.37 482.10 L946.82 477.64 L946.90 473.15 L947.31 468.64 L947.58 464.12 L948.46 459.53 L949.60 454.89 L952.83 449.99 L954.20 445.23 L955.45 440.46 L956.57 435.66 L955.07 431.22 L953.66 426.79 L951.06 422.57 L947.75 418.52 L945.35 414.35 L942.65 410.27 L940.65 406.08 L939.31 401.76 L938.92 397.23 L937.40 392.96 L935.98 388.68 L936.86 383.78 L935.67 379.42 L936.43 374.50 L935.75 369.97 L934.55 365.58 L934.95 360.67 L933.01 356.50 L931.94 352.05 L930.94 347.56 L927.76 343.86 L925.31 339.91 L922.94 335.96 L918.46 332.86 L914.81 329.49 L912.25 325.70 L910.40 321.63 L908.88 317.41 L909.72 312.09 L909.94 307.01 L909.48 302.20 L907.26 298.22 L906.58 293.47 L907.81 287.69 L903.98 284.52 L899.00 282.02 L897.90 277.43 L895.78 273.39 L891.49 270.62 L889.21 266.70 L886.37 263.11 L883.96 259.28 L883.54 254.17 L881.37 250.14 L874.88 248.99 L873.65 244.37 L873.88 238.69 L868.33 237.05 L869.44 230.63 L864.37 228.71 L860.92 225.62 L863.33 218.02 L857.61 216.69 L852.01 215.34 L849.65 211.42 L845.87 208.68 L842.43 205.67 L839.23 202.47 L837.87 197.64 L836.52 192.73 L833.33 189.47 L830.36 186.01 L825.23 184.64 L821.14 182.31 L817.81 179.25 L812.18 178.57 L808.59 175.84 L807.36 170.59 L804.99 166.52 L799.59 165.77 L796.22 162.80 L796.34 155.78 L792.49 153.30 L786.20 153.80 L785.83 147.11 L783.90 142.24 L777.80 142.65 L773.19 141.23 L768.96 139.36 L763.39 139.36 L759.14 137.62 L755.59 134.92 L754.04 129.31 L751.43 125.13 L747.52 122.86 L744.19 119.69 L738.73 119.89 L732.90 120.81 L727.93 120.44 L723.15 119.83 L720.02 116.43 L716.31 114.00 L712.18 112.34 L711.72 103.82 L707.64 101.93 L702.17 102.78 L698.70 99.74 L695.53 96.05 L691.56 93.93 L686.47 94.27 L682.50 92.21 L680.07 86.61 L675.15 86.65 L669.09 89.59 L664.49 89.13 L660.26 87.79 L655.27 88.47 L652.31 83.78 L649.23 79.21 L645.48 76.38 L641.88 73.01 L637.35 72.39 L632.01 74.46 L626.69 76.68 L621.40 79.09 L616.48 80.44 L612.00 80.34 L608.32 77.18 L604.34 75.08 L600.18 73.66 L597.58 65.24 L593.24 64.25 L588.20 66.67 L584.20 64.04 L580.20 61.28 L575.59 61.73 L570.64 64.45 L566.58 61.84 L562.62 58.18 L557.60 62.13 L552.69 65.96 L548.31 65.74 L543.89 66.01 L539.52 65.94 L535.52 61.30 L531.27 59.04 L526.87 58.65 L522.50 57.46 L517.95 60.26 L513.44 63.81 L509.05 64.95 L504.70 64.89 L500.35 61.71 L495.95 59.66 L491.52 58.28 L487.07 57.41 L482.59 56.10 L478.29 59.06 L474.06 62.42 L469.45 59.29 L465.05 59.63 L461.05 64.56 L456.72 65.17 L452.07 62.82 L447.83 64.40 L443.89 68.14 L438.73 62.68 L433.84 59.85 L429.99 63.97 L425.62 64.60 L421.66 67.56 L418.32 73.43 L414.57 76.82 L410.54 78.64 L405.84 77.35 L400.81 74.86 L396.15 74.17 L391.74 74.60 L387.65 76.32 L383.78 78.77 L380.40 82.83 L377.17 87.19 L372.72 87.39 L369.22 90.61 L365.43 92.83 L359.32 88.20 L355.36 90.06 L352.43 94.73 L347.56 94.02 L342.53 93.05 L339.15 96.34 L336.11 100.38 L330.72 98.71 L327.31 101.81 L325.66 108.76 L322.40 111.93 L318.93 114.60 L314.90 116.03 L309.70 115.14 L303.96 113.30 L299.96 115.00 L295.66 116.17 L292.71 119.84 L291.43 126.42 L289.54 131.74 L287.27 136.27 L284.42 139.70 L280.32 141.05 L276.16 142.34 L271.32 142.59 L267.22 144.08 L260.53 141.73 L256.35 143.25 L255.39 149.43 L249.50 148.53 L244.96 149.62 L244.35 156.07 L242.29 160.44 L237.59 161.33 L234.25 164.02 L233.93 170.44 L228.33 170.31 L223.02 170.63 L219.12 172.69 L215.88 175.54 L213.78 179.66 L212.54 184.68 L212.57 190.98 L211.79 196.29 L209.66 200.10 L205.66 201.99 L200.83 203.10 L195.02 203.33 L190.63 205.02 L186.69 207.18 L184.11 210.64 L182.32 214.79 L178.36 216.99 L179.05 223.25 L178.87 228.64 L172.52 228.84 L169.14 231.57 L169.76 237.51 L167.32 240.96 L162.58 242.64 L158.99 245.26 L159.74 251.08 L154.55 252.55 L149.03 253.87 L149.63 259.48 L149.01 264.18 L147.95 268.55 L148.27 273.76 L146.29 277.45 L142.50 280.03 L138.04 282.25 L134.07 284.81 L130.88 287.88 L129.58 292.03 L130.39 297.31 L131.58 302.73 L132.58 307.98 L132.77 312.72 L130.99 316.44 L126.48 318.83 L126.05 323.22 L121.20 325.55 L114.60 327.15 L115.64 332.22 L116.22 337.02 L112.65 340.05 L109.74 343.41 L109.28 347.74 L109.53 352.32 L104.64 354.97 L99.16 357.49 L101.35 362.74 L102.09 367.43 L100.80 371.42 L103.00 376.50 L104.73 381.36 L104.72 385.65 L103.84 389.68 L100.68 393.09 L96.80 396.36 L93.85 399.92 L93.17 404.06 L93.03 408.31 L92.75 412.52 L95.95 417.42 L98.56 422.13 L97.86 426.16 L97.79 430.30 L95.65 434.09 L90.89 437.50 L90.71 441.66 L90.04 445.74 L89.68 449.86 L90.03 454.06 L89.23 458.12 L89.05 462.25 L88.64 466.36 L81.97 470.02 L78.34 474.00 L81.25 478.38 L80.79 482.55 L82.28 486.80 L87.50 491.09 L91.65 495.27 L95.00 499.35 L95.96 503.40 L95.19 507.45 L92.95 511.57 L89.61 515.77 L87.05 520.01 L85.67 524.23 L85.65 528.39 L87.16 532.44 L88.39 536.48 L92.34 540.25 L96.80 543.88 L98.37 547.78 L98.93 551.78 L98.42 555.94 L96.43 560.34 L93.72 564.90 L92.39 569.30 L94.12 573.19 L95.51 577.12 L93.53 581.72 L98.84 584.84 L99.13 588.97 L95.59 594.01 L98.69 597.53 L99.40 601.61 L99.93 605.75 L101.59 609.58 L106.97 612.34 L109.45 615.87 L112.80 619.10 L117.27 621.93 L119.40 625.46 L118.45 630.01 L121.32 633.27 L122.45 637.13 L123.07 641.19 L121.07 646.28 L127.87 647.95 L127.83 652.29 L123.30 658.56 L128.59 660.72 L132.16 663.56 L132.06 668.03 L135.44 670.92 L141.95 672.25 L143.87 675.74 L148.58 677.81 L153.54 679.67 L155.31 683.15 L154.16 688.22 L158.70 690.20 L160.24 693.82 L158.43 699.40 L156.67 705.06 L161.36 706.88 L159.44 712.76 L155.53 720.02 L158.71 722.83 L163.98 724.21 L164.80 728.54 L168.48 730.92 L174.27 731.76 L175.67 735.68 L180.56 737.05 L184.86 738.78 L186.94 742.17 L188.49 745.99 L192.33 747.99 L194.22 751.55 L196.52 754.80 L196.68 759.88 L200.33 761.99 L202.84 765.09 L201.44 771.74 L204.14 774.74 L210.13 774.63 L210.64 779.69 L214.94 781.10 L221.10 780.59 L222.69 784.62 L227.79 785.04 L232.26 786.03 L234.46 789.42 L236.59 792.93 L240.82 794.09 L243.23 797.29 L245.91 800.20 L247.29 804.71 L250.81 806.65 L253.35 809.80 L253.94 815.48 L256.53 818.69 L262.39 817.55 L263.58 822.63 L268.69 822.37 L274.76 820.63 L276.81 824.57 L281.77 824.25 L286.29 824.49 L288.87 827.66 L292.02 829.98 L296.16 830.70 L298.88 833.71 L302.46 835.30 L304.47 839.61 L307.41 842.37 L310.72 844.51 L312.84 848.87 L315.41 852.51 L320.94 850.42 L322.94 855.24 L327.91 854.09 L333.68 851.11 L336.34 854.61 L341.12 853.50 L345.60 852.92 L348.43 856.13 L352.10 857.38 L356.34 857.21 L359.33 860.13 L362.78 861.92 L365.83 864.86 L368.86 867.94 L372.32 869.89 L375.68 872.17 L379.00 874.67 L383.58 873.19 L386.67 876.48 L391.25 874.82 L396.14 871.81 L399.40 874.55 L403.70 873.41 L407.93 872.37 L411.24 875.05 L415.12 875.36 L419.15 874.94 L422.51 877.62 L425.96 880.09 L429.89 880.14 L433.31 883.01 L436.80 885.76 L440.92 884.67 L444.60 886.41 L448.69 885.27 L452.38 887.12 L456.63 884.23 L460.88 880.71 L464.51 883.02 L468.57 880.63 L472.50 879.29 L476.12 882.28 L479.97 882.03 L483.84 881.09 L487.59 882.91 L491.39 884.47 L495.25 883.04 L499.08 885.26 L502.96 888.83 L506.80 886.16 L510.71 887.69 L514.52 885.99 L518.40 886.08 L522.04 882.12 L525.66 878.90 L529.47 878.97 L533.02 875.97 L536.58 873.56 L540.59 875.74 L544.19 873.96 L547.86 873.01 L551.76 873.75 L555.88 875.83 L559.31 873.17 L563.49 875.23 L568.10 879.41 L571.40 876.12 L575.36 876.37 L579.02 875.11 L582.79 874.42 L585.63 869.71 L588.86 866.91 L592.37 865.40 L595.33 861.82 L598.59 859.56 L602.72 860.47 L606.01 858.38 L609.58 857.25 L613.45 857.10 L618.15 859.42 L620.74 855.28 L624.97 855.98 L630.55 860.32 L633.27 856.63 L636.44 854.29 L640.16 853.37 L643.46 851.39 L645.49 846.43 L648.68 844.32 L651.62 841.70 L654.02 837.96 L657.13 835.85 L661.34 836.05 L663.96 832.92 L667.47 831.65 L671.02 830.43 L675.85 831.59 L677.49 826.74 L681.50 826.30 L687.91 830.03 L690.22 826.44 L692.34 822.61 L696.61 822.41 L699.10 819.27 L700.00 813.67 L703.41 812.09 L705.23 808.10 L706.97 804.09 L710.05 802.07 L714.08 801.39 L716.09 797.86 L719.33 796.06 L722.64 794.32 L727.45 794.52 L728.72 790.11 L732.39 788.78 L739.02 791.02 L741.26 787.83 L742.18 783.13 L746.81 782.77 L748.02 778.48 L747.85 772.75 L751.61 771.38 L752.15 766.57 L753.26 762.43 L756.23 760.25 L759.39 758.24 L760.79 754.50 L763.95 752.48 L766.33 749.70 L771.11 749.14 L773.04 745.92 L775.60 743.28 L781.93 743.89 L784.60 741.27 L783.58 735.57 L788.56 734.87 L788.71 730.24 L787.56 724.65 L791.34 722.94 L791.13 718.20 L791.49 713.95 L794.47 711.64 L796.88 708.91 L797.68 705.05 L800.46 702.56 L802.50 699.57 L806.77 698.01 L808.77 694.96 L810.72 691.87 L815.90 690.73 L819.12 688.35 L817.41 683.08 L821.50 681.18 L820.62 676.48 L819.18 671.55 L822.48 669.19 L821.91 664.81 L821.77 660.70 L824.36 657.96 L825.86 654.68 L825.68 650.62 L828.33 647.88 L830.39 644.85 L833.12 642.09 L835.31 639.08 L836.93 635.82 L840.32 633.25 L843.22 630.44 L841.43 625.87 L845.22 623.36 L843.44 618.86 L839.92 613.85 L843.22 611.15 L841.91 606.96 L841.23 603.01 L844.33 600.20 L845.94 596.93 L845.35 593.05 L847.92 590.02 L849.21 586.64 L850.05 583.14 L852.44 579.99 L853.76 576.58 L854.26 572.99 L857.47 569.93 L854.91 565.75 L857.41 562.53 L854.92 558.44 L851.34 554.24 L854.08 551.05 L852.47 547.22 L851.06 543.47 L853.55 540.19 L853.61 536.62 L852.86 532.98 L854.53 529.56 L856.65 526.15 L855.71 522.51 L858.23 519.07 L860.56 515.58 L858.38 511.90 L860.29 508.35 L858.44 504.73 L859.64 501.15 L856.92 497.57 L853.18 494.06 L854.24 490.50 L851.84 487.04 L850.04 483.60 L852.09 479.97 L851.78 476.46 L850.80 473.00 L851.97 469.37 L853.55 465.66 L851.33 462.33 L852.72 458.61 L856.17 454.59 L852.15 451.52 L853.16 447.77 L852.01 444.34 L851.36 440.84 L848.16 437.79 L845.49 434.70 L845.22 431.16 L843.26 427.98 L841.70 424.73 L842.89 420.87 L841.68 417.54 L840.61 414.18 L840.27 410.64 L841.35 406.70 L837.28 404.18 L837.35 400.50 L840.72 395.79 L835.98 393.56 L835.12 390.13 L834.54 386.60 L832.78 383.47 L828.23 381.37 L826.10 378.44 L824.56 375.30 L821.34 372.84 L819.62 369.81 L820.91 365.53 L818.26 362.88 L817.19 359.56 L816.44 356.09 L817.65 351.69 L813.35 349.86 L812.86 346.23 L816.04 340.73 L812.06 338.80 L809.52 336.17 L809.01 332.47 L806.19 330.01 L802.06 328.32 L800.28 325.34 L796.81 323.37 L794.05 321.00 L791.88 318.30 L791.32 314.58 L788.27 312.45 L786.72 309.34 L785.17 306.24 L784.90 302.23 L780.85 300.84 L779.25 297.76 L781.51 291.79 L778.06 290.02 L773.92 288.80 L773.23 284.95 L769.84 283.21 L764.99 282.71 L763.58 279.42 L759.38 278.49 L755.71 277.17 L753.64 274.47 L752.70 270.73 L749.20 269.33 L747.31 266.44 L745.37 263.58 L744.72 259.45 L740.98 258.33 L738.33 256.17 L739.26 250.26 L736.73 247.91 L731.91 248.03 L730.84 244.11 L726.93 243.33 L722.49 243.23 L721.16 239.54 L716.41 239.90 L712.89 238.87 L710.95 235.90 L708.79 233.18 L705.42 232.01 L703.90 228.41 L700.88 226.78 L699.18 223.34 L696.33 221.46 L692.82 220.55 L691.75 216.06 L689.60 213.10 L684.65 214.42 L683.15 210.43 L678.93 210.75 L674.27 211.89 L672.57 208.15 L668.17 208.98 L664.24 209.10 L662.16 205.96 L659.66 203.51 L655.83 203.57 L653.37 201.03 L650.08 200.10 L647.65 197.42 L644.54 196.13 L641.47 194.74 L639.20 191.60 L636.82 188.59 L632.26 190.60 L630.24 186.70 L626.12 187.84 L621.58 190.21 L619.25 186.98 L615.37 187.82 L611.73 188.09 L609.14 185.44 L606.20 183.77 L602.90 183.13 L600.07 181.00 L597.05 179.43 L593.93 178.17 L590.99 176.25 L587.68 175.61 L584.37 174.98 L581.53 172.48 L577.64 174.28 L574.83 171.50 L570.97 173.42 L567.03 175.96 L564.04 174.00 L560.44 175.20 L556.97 175.87 L553.95 173.94 L550.72 173.19 L547.35 173.42 L544.23 171.84 L541.02 170.82 L537.67 170.90 L534.60 168.46 L531.31 167.83 L527.84 169.32 L524.65 167.45 L521.16 169.71 L517.94 168.05 L514.50 170.62 L511.06 174.78 L507.84 172.95 L504.55 174.71 L501.29 176.62 L498.04 174.21 L494.76 172.93 L491.49 172.94 L488.11 170.12 L484.77 169.37 L481.53 170.61 L478.11 168.88 L474.70 167.77 L471.66 171.29 L468.32 171.04 L465.09 171.98 L461.81 172.27 L458.94 175.93 L456.00 178.53 L452.73 178.56 L449.78 180.71 L446.81 182.54 L443.26 180.96 L440.18 182.13 L436.93 182.39 L433.59 182.24 L430.09 181.42 L427.29 183.81 L423.82 183.23 L419.84 180.76 L417.52 184.91 L414.03 184.47 L410.73 184.84 L407.83 186.58 L405.20 189.17 L402.55 191.57 L399.86 193.73 L397.05 195.47 L394.15 196.93 L390.51 196.30 L387.71 198.05 L384.35 198.27 L381.33 199.42 L377.57 198.75 L375.97 203.36 L372.62 203.69 L368.11 201.47 L366.39 205.59 L363.68 207.42 L360.68 208.63 L358.03 210.56 L356.46 214.61 L353.77 216.36 L351.60 219.08 L349.37 221.64 L346.81 223.56 L343.38 223.91 L340.23 224.82 L337.27 226.05 L334.35 227.39 L329.88 226.24 L329.30 231.33 L326.29 232.55 L321.33 230.83 L320.22 234.95 L319.00 238.82 L315.59 239.50 L313.77 242.44 L313.40 247.28 L310.16 248.21 L308.58 251.31 L306.54 253.81 L303.79 255.38 L300.30 256.06 L298.12 258.38 L295.44 260.09 L293.33 262.47 L289.43 262.81 L288.77 266.81 L286.46 268.94 L281.06 267.80 L279.05 270.31 L278.05 273.85 L274.54 274.82 L273.30 278.07 L272.89 282.06 L270.16 283.82 L269.93 287.90 L267.37 289.80 L265.50 292.34 L261.94 293.40 L260.04 295.92 L258.46 298.70 L258.37 302.69 L259.35 307.47 L260.48 312.27 L261.31 316.74 L261.79 320.87 L261.35 324.25 L260.92 327.59 L259.71 330.34 L257.92 332.68 L257.15 335.71 L256.14 338.56 L254.43 340.93 L253.38 343.74 L252.53 346.64 L251.79 349.60 L251.47 352.78 L251.06 355.88 L249.16 358.12 L246.63 360.01 L246.16 363.04 L243.01 364.64 L240.25 366.49 L240.32 369.80 L239.49 372.62 L238.98 375.59 L239.18 378.87 L238.24 381.60 L238.25 384.75 L238.19 387.83 L237.63 390.68 L237.52 393.70 L237.39 396.70 L237.38 399.72 L236.92 402.54 L235.35 404.96 L233.18 407.18 L231.77 409.69 L229.78 412.02 L227.50 414.28 L226.60 416.99 L225.96 419.78 L224.91 422.45 L224.33 425.25 L223.89 428.09 L222.94 430.79 L222.63 433.66 L222.97 436.66 L223.15 439.61 L223.84 442.65 L225.08 445.76 L225.72 448.74 L224.06 451.28 L223.70 454.05 L223.07 456.79 L221.27 459.36 L220.94 462.16 L221.12 465.02 L221.14 467.85 L221.73 470.74 L221.89 473.56 L221.93 476.37 L220.29 479.04 L220.35 481.86 L220.77 484.69 L217.67 487.35 L218.92 490.22 L219.78 493.06 L219.41 495.85 L219.12 498.66 L220.08 501.46 L219.55 504.27 L218.80 507.09 L218.69 509.91 L218.73 512.73 L219.15 515.52 L220.09 518.28 L220.60 521.06 L221.53 523.79 L223.31 526.43 L224.65 529.08 L222.67 532.10 L222.09 534.98 L223.66 537.60 L223.10 540.50 L223.28 543.30 L223.16 546.16 L224.58 548.76 L225.46 551.44 L225.34 554.31 L226.74 556.88 L228.85 559.28 L230.07 561.84 L233.05 563.98 L232.73 566.89 L233.61 569.50 L236.63 571.54 L235.95 574.56 L235.96 577.42 L237.53 579.82 L239.61 582.04 L239.95 584.80 L240.34 587.56 L241.37 590.10 L242.83 592.48 L243.05 595.32 L242.95 598.29 L244.47 600.65 L245.19 603.32 L246.00 605.96 L247.52 608.31 L248.07 611.06 L249.54 613.42 L250.78 615.88 L253.47 617.64 L255.01 619.92 L255.83 622.57 L258.36 624.34 L259.54 626.79 L260.68 629.26 L262.83 631.18 L265.41 632.83 L267.31 634.85 L267.49 637.87 L268.68 640.31 L269.62 642.91 L270.43 645.61 L272.52 647.49 L273.08 650.37 L275.80 651.81 L278.32 653.37 L279.08 656.13 L279.43 659.21 L281.35 661.18 L283.63 662.86 L284.54 665.58 L286.72 667.32 L290.61 667.67 L292.92 669.25 L293.59 672.18 L296.11 673.56 L297.95 675.51 L297.97 679.07 L299.95 680.92 L302.28 682.44 L304.09 684.43 L306.55 685.80 L309.14 687.02 L312.01 687.93 L314.45 689.24 L314.57 692.93 L316.43 694.86 L319.61 695.36 L320.27 698.60 L322.97 699.59 L327.32 698.65 L328.10 701.79 L329.86 703.82 L332.24 705.11 L332.91 708.51 L334.91 710.28 L337.11 711.81 L339.44 713.16 L342.33 713.73 L344.70 714.99 L346.79 716.63 L348.84 718.33 L350.58 720.49 L353.23 721.32 L355.16 723.22 L357.55 724.42 L361.23 723.54 L364.06 723.94 L366.30 725.30 L368.87 726.10 L371.29 727.12 L373.01 729.41 L375.43 730.44 L377.71 731.73 L379.88 733.24 L382.45 733.98 L384.64 735.45 L387.23 736.12 L390.11 736.12 L393.01 736.03 L396.02 735.63 L399.11 734.97 L400.72 737.74 L402.54 740.11 L404.61 741.94 L405.74 746.26 L408.00 747.75 L410.68 748.08 L413.13 749.09 L416.13 748.44 L419.04 747.97 L421.66 748.34 L424.03 749.49 L426.19 751.40 L428.52 752.77 L431.13 753.20 L433.56 754.27 L436.21 754.52 L439.08 753.82 L441.72 753.95 L444.25 754.60 L446.85 754.90 L449.42 755.31 L451.99 755.74 L454.73 755.19 L457.38 755.08 L460.09 754.46 L462.74 754.14 L465.41 753.57 L467.96 753.79 L470.44 754.65 L472.93 755.50 L475.43 756.31 L477.97 756.81 L480.48 757.80 L483.08 757.62 L485.69 757.26 L488.25 757.58 L490.86 756.90 L493.43 756.92 L496.00 756.51 L498.57 756.32 L501.13 755.92 L503.68 755.00 L506.22 754.75 L508.79 755.13 L511.34 755.13 L513.94 755.83 L516.47 755.31 L519.01 754.99 L521.50 754.09 L523.94 752.77 L526.46 752.48 L529.27 754.64 L532.17 757.19 L534.79 757.28 L537.88 760.49 L541.21 764.70 L543.72 763.51 L546.27 762.59 L549.24 763.97 L551.57 761.91 L553.47 757.90 L555.99 757.11 L558.17 754.84 L560.13 751.78 L562.47 750.46 L564.88 749.47 L566.97 747.34 L570.69 751.08 L573.29 750.68 L576.15 751.12 L579.29 752.35 L582.52 753.73 L584.88 752.39 L586.68 749.45 L589.31 748.96 L592.02 748.67 L593.79 745.88 L595.66 743.42 L599.34 745.56 L601.00 742.66 L603.86 742.66 L605.78 740.46 L607.74 738.41 L610.13 737.36 L612.81 736.90 L613.80 732.95 L616.17 731.89 L618.31 730.37 L621.30 730.50 L622.85 727.89 L622.46 721.82 L623.95 719.31 L628.43 722.02 L628.66 717.37 L629.56 713.98 L635.63 719.04 L637.46 717.11 L639.99 716.29 L640.47 712.35 L642.05 710.13 L644.87 709.75 L647.40 708.92 L648.34 705.86 L651.89 706.40 L654.38 705.44 L657.24 704.94 L658.66 702.57 L660.37 700.59 L662.48 699.11 L665.83 699.12 L666.11 695.45 L666.64 692.14 L671.02 693.26 L671.61 690.06 L673.98 688.86 L675.02 686.21 L677.10 684.69 L680.03 684.02 L680.96 681.32 L680.79 677.55 L683.79 676.93 L684.15 673.76 L686.26 672.26 L686.50 669.05 L688.45 667.42 L690.45 665.82 L693.88 665.42 L691.95 660.49 L690.78 656.30 L694.54 656.15 L694.92 653.28 L695.99 650.97 L695.00 647.13 L696.88 645.48 L701.47 645.78 L701.88 643.02 L701.30 639.61 L707.10 640.58 L708.39 638.44 L710.87 637.07 L711.11 634.24 L713.14 632.55 L714.97 630.73 L718.84 630.10 L716.74 625.94 L716.86 623.12 L720.32 622.19 L721.32 619.87 L722.63 617.71 L721.93 614.52 L723.01 612.27 L726.59 611.24 L724.12 607.26 L722.36 603.70 L726.88 603.06 L726.36 600.10 L726.90 597.64 L726.39 594.75 L728.18 592.83 L728.77 590.41 L731.82 588.95 L729.70 585.51 L727.29 582.03 L729.42 580.22 L730.32 577.96 L729.57 575.15 L727.96 572.11 L730.53 570.40 L736.06 569.51 L733.89 566.34 L732.36 563.40 L737.37 562.22 L738.34 559.94 L738.52 557.45 L738.27 554.88 L739.46 552.64 L740.08 550.26 L742.25 548.19 L739.48 545.16 L739.83 542.74 L741.29 540.52 L742.00 538.15 L742.27 535.72 L740.74 533.03 L742.39 530.80 L745.64 528.72 L740.80 525.71 L738.59 523.06 L741.39 520.90 L741.16 518.45 L740.79 516.00 L739.27 513.50 L740.24 511.15 L740.23 508.74 L741.38 506.37 L738.62 503.91 L738.89 501.52 L739.67 499.13 L739.61 496.73 L737.41 494.39 L735.06 492.09 L736.37 489.68 L738.95 487.17 L735.23 485.01 L735.07 482.66 L739.00 479.97 L739.33 477.53 L738.87 475.16 L736.78 472.98 L737.49 470.49 L735.81 468.30 L736.14 465.85 L733.33 463.87 L734.19 461.33 L733.78 459.00 L733.99 456.54 L732.67 454.38 L731.61 452.17 L732.39 449.58 L733.58 446.88 L729.15 445.47 L727.79 443.38 L727.94 440.92 L727.20 438.68 L725.54 436.70 L724.06 434.69 L724.77 432.04 L723.96 429.83 L723.15 427.62 L719.02 426.54 L719.47 423.94 L716.14 422.66 L715.82 420.33 L712.37 419.18 L710.31 417.55 L711.12 414.79 L712.30 411.83 L710.65 410.04 L711.72 407.06 L713.74 403.62 L713.85 400.98 L712.09 399.21 L710.26 397.49 L709.36 395.33 L707.80 393.50 L705.22 392.21 L702.30 391.15 L704.23 387.46 L701.43 386.37 L701.55 383.63 L699.40 382.19 L698.52 380.02 L698.26 377.45 L696.48 375.82 L693.05 375.27 L692.29 373.02 L689.99 371.79 L688.96 369.72 L686.49 368.65 L685.02 366.89 L684.57 364.40 L683.64 362.24 L680.09 362.06 L676.65 361.87 L677.49 358.33 L672.94 359.11 L672.20 356.82 L668.27 357.22 L666.97 355.43 L667.25 352.23 L666.15 350.22 L663.43 349.68 L663.63 346.45 L662.60 344.33 L662.48 341.30 L659.49 341.08 L657.68 339.70 L656.63 337.55 L656.33 334.58 L652.59 335.28 L649.89 334.91 L650.18 331.23 L647.07 331.36 L646.15 328.99 L642.82 329.45 L641.32 327.78 L641.21 324.36 L638.36 324.33 L634.88 325.19 L634.94 321.44 L632.04 321.60 L630.29 320.24 L626.29 322.03 L624.53 320.75 L622.63 319.66 L622.13 316.48 L617.94 318.87 L614.76 319.84 L615.03 315.36 L612.47 315.39 L610.73 314.09 L607.95 314.55 L606.33 313.07 L606.58 308.19 L604.20 307.98 L601.24 308.90 L601.44 303.79 L599.12 303.49 L597.67 301.46 L594.78 302.35 L592.72 301.60 L590.80 300.52 L589.80 297.37 L586.08 300.41 L583.78 300.27 L582.91 296.67 L580.68 296.32 L578.78 295.16 L576.45 295.15 L574.49 294.12 L573.50 290.34 L570.25 292.99 L567.32 294.92 L566.10 291.61 L563.44 292.83 L561.32 292.37 L558.82 293.25 L556.99 291.80 L554.83 291.52 L553.28 288.85 L549.97 293.28 L547.12 296.15 L545.36 294.42 L543.14 294.76 L540.73 296.08 L538.13 298.64 L536.38 296.81 L534.65 294.64 L532.61 294.24 L530.48 294.39 L528.81 291.27 L526.94 289.26 L524.88 288.60 L522.81 287.94 L520.67 287.95 L518.48 288.54 L516.36 288.38 L514.18 289.21 L512.09 288.83 L509.94 289.39 L507.83 289.35 L505.74 288.62 L503.61 289.57 L501.50 290.51 L499.41 290.74 L497.32 291.42 L495.26 292.26 L493.18 292.43 L491.12 292.82 L489.04 292.83 L486.97 292.86 L484.86 292.45 L482.81 292.98 L480.78 293.58 L478.72 293.77 L476.73 294.65 L474.80 295.88 L473.00 297.90 L471.20 299.72 L469.30 300.70 L467.61 302.84 L465.31 301.29 L463.11 300.50 L461.04 300.49 L458.48 298.13 L456.38 298.16 L454.53 299.33 L452.58 300.01 L450.72 301.08 L448.57 300.95 L446.67 301.78 L445.06 303.64 L442.75 303.03 L440.98 304.24 L439.33 305.81 L437.45 306.61 L435.51 307.23 L433.65 308.07 L431.61 308.40 L429.73 309.17 L427.85 309.94 L426.07 310.99 L424.32 312.06 L422.37 312.65 L420.92 314.42 L419.14 315.39 L417.67 317.04 L416.74 319.80 L415.34 321.49 L414.26 323.79 L413.03 325.70 L411.54 327.07 L410.19 328.67 L409.05 330.64 L405.76 328.65 L402.29 326.48 L400.45 327.27 L396.30 324.15 L393.75 323.89 L390.28 322.17 L389.23 324.42 L388.10 326.50 L385.64 326.53 L383.16 326.56 L382.92 329.90 L382.49 332.87 L378.06 330.21 L376.48 331.59 L376.07 334.53 L373.99 335.22 L372.41 336.56 L370.80 337.87 L370.38 340.63 L370.36 343.82 L368.03 344.21 L366.61 345.69 L365.36 347.36 L365.11 350.13 L362.87 350.67 L361.48 352.15 L359.88 353.41 L359.84 356.27 L358.63 357.91 L356.93 359.04 L355.98 360.92 L355.67 363.38 L356.08 366.47 L354.85 368.00 L351.43 367.59 L351.02 369.87 L350.13 371.71 L346.41 371.17 L343.47 371.35 L341.23 372.15 L341.28 374.78 L340.65 376.84 L338.78 377.95 L337.97 379.88 L338.75 382.93 L337.67 384.61 L333.63 384.22 L334.12 387.01 L333.76 389.18 L331.09 389.83 L330.25 391.68 L328.96 393.25 L330.05 396.28 L330.71 398.99 L329.53 400.59 L327.11 401.48 L329.47 405.07 L329.52 407.32 L324.40 406.79 L326.28 410.01 L324.74 411.42 L323.50 413.00 L322.30 414.61 L323.64 417.41 L321.76 418.69 L322.50 421.17 L323.52 423.72 L322.49 425.38 L318.38 425.78 L321.88 429.28 L322.26 431.48 L318.62 432.15 L317.17 433.68 L316.70 435.58 L314.42 436.86 L313.65 438.67 L314.75 441.07 L313.20 442.63 L314.90 445.17 L313.63 446.82 L310.78 448.05 L311.54 450.28 L311.69 452.33 L311.47 454.27 L312.23 456.44 L311.52 458.26 L312.87 460.51 L315.91 463.07 L311.01 464.05 L310.49 465.91 L310.51 467.87 L311.32 469.95 L311.61 471.92 L310.13 473.64 L311.93 475.80 L315.67 478.15 L314.33 479.88 L314.79 481.80 L315.79 483.75 L316.67 485.68 L315.46 487.44 L313.97 489.21 L313.43 491.04 L312.53 492.88 L315.44 494.84 L310.20 496.59 L309.14 498.48 L310.95 500.39 L308.79 502.30 L309.59 504.20 L310.76 506.06 L308.19 508.07 L312.40 509.77 L313.27 511.60 L309.69 513.73 L311.49 515.50 L314.01 517.17 L312.74 519.17 L313.09 521.03 L314.66 522.73 L315.99 524.44 L319.71 525.78 L316.89 528.06 L316.68 529.97 L318.34 531.56 L319.93 533.15 L319.62 535.07 L319.76 536.92 L319.09 538.94 L322.96 539.97 L324.97 541.36 L324.13 543.42 L324.69 545.14 L327.76 546.20 L330.30 547.34 L326.32 550.33 L328.46 551.57 L327.45 553.76 L329.04 555.15 L326.21 557.98 L325.12 560.30 L325.75 562.04 L327.08 563.52 L326.42 565.74 L328.20 567.04 L330.48 568.11 L332.04 569.44 L333.19 570.93 L332.71 573.11 L333.50 574.76 L336.09 575.58 L335.64 577.79 L336.65 579.32 L337.75 580.80 L340.86 581.25 L343.06 582.11 L339.85 585.84 L343.30 586.02 L345.80 586.67 L345.57 588.84 L346.35 590.44 L349.18 590.82 L352.33 590.95 L353.65 592.17 L352.18 595.17 L354.54 595.73 L355.27 597.33 L356.73 598.45 L357.78 599.83 L358.20 601.67 L359.46 602.91 L362.23 603.01 L361.74 605.55 L358.98 609.91 L362.85 609.11 L363.11 611.16 L362.34 614.09 L364.96 614.22 L367.03 614.76 L367.17 616.98 L372.21 614.83 L371.04 618.23 L372.34 619.41 L373.88 620.36 L373.83 622.85 L374.65 624.51 L377.36 624.28 L377.64 626.50 L380.83 625.69 L384.01 624.82 L383.18 628.26 L384.10 629.83 L387.25 628.87 L389.03 629.43 L388.86 632.29 L391.37 631.95 L392.88 632.80 L396.03 631.56 L397.13 632.89 L399.94 631.96 L399.93 634.75 L403.19 633.13 L404.36 634.32 L402.88 639.32 L406.58 636.92 L409.89 634.95 L411.28 635.78 L413.86 634.76 L415.00 635.95 L417.19 635.45 L418.49 636.37 L420.09 636.77 L419.12 641.66 L421.79 640.23 L425.11 637.48 L424.07 642.77 L424.70 645.08 L426.14 645.86 L428.51 644.75 L428.48 648.53 L429.35 650.55 L430.74 651.52 L434.68 646.76 L436.12 647.48 L437.35 648.69 L439.57 647.54 L441.79 646.27 L442.81 648.00 L443.66 650.25 L444.15 653.60 L447.41 649.27 L448.92 649.73 L448.94 654.73 L451.34 652.57 L453.23 651.86 L455.12 651.08 L456.65 651.47 L457.44 654.52 L459.49 653.06 L461.52 651.47 L462.82 652.74 L463.71 655.87 L465.06 657.18 L468.17 650.24 L468.75 655.17 L470.30 655.47 L472.15 654.11 L474.67 648.70 L475.44 653.40 L477.36 651.09 L478.70 652.53 L480.05 654.11 L481.84 652.22 L483.24 653.48 L484.35 657.95 L486.27 654.28 L488.15 650.10 L489.31 655.17 L490.75 657.31 L492.64 650.86 L494.19 649.73 L495.55 654.70 L497.12 653.36 L498.65 654.12 L500.19 653.61 L501.75 655.88 L503.24 652.41 L504.80 653.68 L506.25 651.51 L507.76 651.31 L509.50 654.87 L511.17 656.56 L512.45 652.85 L513.64 649.13 L514.99 647.60 L516.76 650.01 L518.15 649.00 L519.26 645.89 L521.57 651.72 L523.27 652.66 L524.87 652.90 L525.66 648.39 L527.54 650.30 L529.14 650.49 L530.38 648.92 L531.95 649.01 L533.47 648.79 L534.46 646.35 L536.70 649.17 L537.87 647.55 L537.48 640.18 L540.64 646.14 L541.88 644.97 L541.97 640.00 L543.64 640.46 L546.26 643.80 L547.06 641.43 L549.07 642.69 L549.47 639.31 L552.49 643.24 L554.71 644.80 L554.23 639.30 L555.55 638.58 L557.41 639.17 L557.15 634.70 L558.54 634.23 L559.90 633.68 L559.18 628.62 L564.66 636.90 L565.41 634.97 L567.07 634.95 L569.16 635.73 L570.37 634.77 L572.16 634.89 L573.77 634.63 L573.54 631.10 L574.35 629.48 L577.10 631.21 L578.60 630.75 L578.59 627.82 L581.04 628.90 L582.31 628.07 L583.21 626.66 L583.43 624.26 L581.34 618.57 L586.02 622.75 L584.48 618.03 L585.72 617.26 L586.72 616.18 L586.37 613.32 L586.76 611.50 L589.11 612.19 L586.70 606.95 L586.78 604.88 L589.72 606.25 L590.51 605.04 L588.85 601.06 L589.23 599.46 L592.07 600.58 L594.61 601.30 L594.05 598.71 L592.28 594.93 L597.37 598.18 L599.38 598.22 L598.73 595.65 L597.54 592.63 L600.11 593.18 L600.66 591.83 L602.64 591.77 L602.40 589.73 L603.75 589.10 L604.54 587.97 L606.00 587.40 L605.28 585.06 L604.79 582.94 L607.28 583.18 L611.28 584.51 L607.50 579.97 L608.19 578.81 L608.99 577.74 L608.53 575.78 L609.98 575.17 L607.21 571.71 L609.04 571.37 L614.05 573.03 L609.10 568.33 L606.73 565.37 L610.88 566.40 L609.67 564.19 L609.84 562.83 L608.07 560.39 L611.01 560.58 L618.59 563.18 L617.89 561.31 L612.25 556.96 L618.18 558.49 L613.72 554.87 L611.74 552.55 L610.88 550.79 L612.46 550.16 L614.04 549.50 L620.03 550.69 L615.95 547.60 L612.32 544.80 L618.29 545.82 L614.60 543.08 L617.71 542.91 L617.62 541.55 L621.18 541.45 L624.07 541.06 L626.45 540.44 L624.60 538.48 L625.50 537.39 L625.55 536.04 L626.45 534.93 L624.01 532.93 L624.06 531.62 L626.04 530.79 L626.47 529.55 L623.39 527.53 L621.95 525.94 L630.19 526.33 L628.61 524.67 L627.40 523.13 L630.58 522.36 L631.32 521.13 L629.79 519.56 L623.91 517.41 L622.32 515.94 L620.11 514.43 L614.33 512.58 L612.56 511.24 L611.21 509.99 L609.03 508.69 L607.15 507.47 L605.32 506.28 L603.73 505.14 L603.15 504.08 L603.00 503.04 L603.06 502.02 L602.90 500.98 Z"/>
  <svg class="pausebutton" id="pausebutton">
    <circle cx="500" cy="500" id="pausestart" class="pausestart" r="52.65"/>
    <rect height="50.02" width="10.00" y="473.68" rx="2.00" ry="2.00" x="479.99" class="pausesymbol"/>
    <rect height="50.02" width="10.00" y="473.68" rx="2.00" ry="2.00" x="510.00" class="pausesymbol"/>
    <polygon points="530.01,500 479.99,530.01 479.99,469.99" class="playsymbol"/>
  </svg>
  <polygon id="playback-head" class="playback-head" points="941.65,500 921.65,540 961.65,540"/>
</svg>