<?xml-stylesheet href="../../style/waveformjs.css" type="text/css"?>
<svg xmlns="http://www.w3.org/2000/svg" xmlns:xlink="http://www.w3.org/1999/xlink" width="100%" height="100%" viewBox="0 0 1000 1000">
  <path class="svg-wave" id="sp" d="M598.01 500.00 L598.19 500.98 L598.35 501.97 L598.50 502.96 L598.64 503.95 L598.75 504.94 L598.85 505.94 L598.94 506.94 L599.01 507.94 L599.06 508.94 L599.12 509.94 L599.16 510.95 L599.17 511.96 L599.16 512.96 L599.13 513.97 L599.09 514.98 L598.97 515.97 L598.83 516.96 L598.68 517.96 L598.46 518.94 L598.22 519.91 L597.97 520.88 L597.74 521.86 L597.60 522.85 L597.56 523.88 L597.47 524.89 L597.28 525.88 L597.14 526.88 L596.85 527.85 L596.32 528.74 L596.01 529.70 L595.77 530.68 L595.41 531.62 L595.29 532.64 L595.24 533.69 L595.03 534.69 L594.71 535.65 L594.17 536.52 L593.66 537.41 L592.96 538.21 L592.16 538.96 L591.35 539.70 L590.53 540.43 L589.86 541.21 L589.01 541.91 L588.35 542.68 L588.20 543.70 L588.23 544.82 L588.03 545.83 L587.99 546.93 L587.74 547.93 L587.32 548.84 L586.71 549.65 L585.78 550.26 L585.25 551.10 L584.74 551.95 L583.98 552.65 L583.39 553.45 L583.07 554.43 L582.78 555.43 L582.29 556.30 L581.06 556.66 L579.89 557.03 L578.50 557.24 L575.60 556.28 L572.02 554.75 L569.74 554.13 L568.65 554.39 L567.24 554.37 L568.44 556.48 L569.74 558.74 L570.79 560.85 L572.29 563.40 L571.71 564.17 L571.85 565.61 L571.06 566.20 L570.26 566.78 L569.46 567.35 L568.64 567.90 L567.74 568.37 L566.62 568.59 L564.95 568.23 L562.77 567.27 L561.70 567.46 L559.89 566.82 L557.96 565.98 L557.48 566.77 L554.73 564.88 L551.36 562.13 L548.94 560.42 L546.70 558.84 L544.98 557.86 L546.16 560.62 L545.63 561.19 L546.16 563.20 L548.89 568.37 L547.88 568.39 L547.23 568.92 L546.47 569.29 L546.07 570.19 L545.58 570.99 L544.77 571.28 L545.03 573.31 L544.62 574.30 L544.43 575.69 L543.85 576.44 L542.28 575.45 L542.54 577.72 L541.55 577.74 L540.77 578.16 L542.35 583.20 L541.52 583.64 L539.90 582.42 L539.96 584.71 L538.44 583.65 L536.09 580.64 L535.20 580.82 L535.46 583.69 L535.45 586.06 L535.88 589.62 L534.35 588.35 L533.44 588.62 L532.21 588.02 L529.54 583.29 L528.22 582.18 L527.43 582.54 L526.70 583.14 L526.44 585.22 L525.62 585.62 L524.91 586.36 L524.28 587.47 L523.73 588.91 L523.11 590.20 L522.49 591.58 L522.26 594.73 L521.73 596.80 L520.22 594.48 L519.47 595.64 L518.64 596.50 L516.87 592.29 L515.65 590.75 L514.78 591.12 L513.80 590.80 L512.88 590.84 L511.96 590.95 L510.92 589.99 L509.96 589.48 L509.11 590.06 L508.09 588.89 L507.16 588.41 L506.38 590.01 L505.53 590.77 L504.76 593.55 L503.88 595.13 L502.97 596.27 L501.96 594.07 L501.03 595.39 L500.07 594.07 L499.12 596.10 L498.06 600.91 L497.08 599.84 L496.07 600.25 L494.99 601.83 L494.14 598.89 L493.35 596.01 L492.45 595.13 L491.31 597.12 L489.92 601.29 L488.98 600.53 L488.25 598.10 L487.12 599.10 L486.49 596.44 L486.27 591.37 L485.40 590.96 L484.27 592.10 L483.36 591.86 L482.43 591.75 L480.82 595.03 L480.03 594.04 L478.88 594.80 L478.02 594.23 L477.52 592.20 L476.34 592.95 L473.83 598.68 L472.94 598.07 L472.04 597.52 L469.57 602.26 L469.09 600.21 L469.25 596.26 L468.77 594.49 L467.84 594.15 L466.95 593.68 L465.96 593.49 L464.97 593.28 L463.74 593.71 L462.75 593.47 L462.02 592.61 L460.98 592.50 L459.94 592.37 L459.30 591.33 L458.70 590.24 L457.32 590.84 L455.96 591.36 L455.95 589.08 L454.42 589.91 L452.42 591.57 L451.66 590.80 L448.55 594.35 L446.08 596.57 L445.52 595.33 L444.00 595.75 L443.33 594.72 L444.16 591.24 L444.63 588.47 L443.39 588.48 L440.86 590.43 L437.85 592.98 L437.45 591.59 L436.89 590.44 L434.76 591.53 L436.31 587.50 L437.57 584.00 L436.98 583.03 L435.72 582.96 L435.02 582.16 L433.83 581.96 L433.00 581.31 L431.63 581.30 L430.24 581.30 L429.06 581.01 L427.24 581.44 L424.32 583.02 L420.82 585.13 L421.09 583.15 L420.97 581.63 L419.34 581.67 L421.47 577.93 L423.69 574.23 L423.27 573.16 L422.53 572.40 L421.49 571.92 L420.87 571.04 L419.87 570.50 L419.54 569.38 L418.83 568.59 L417.91 567.97 L417.39 567.02 L416.37 566.47 L414.68 566.43 L413.97 565.62 L411.80 565.89 L409.37 566.30 L410.17 564.35 L407.58 564.81 L405.36 564.97 L404.95 563.86 L400.03 565.72 L399.67 564.53 L400.27 562.75 L397.97 562.78 L399.77 560.30 L402.31 557.45 L401.81 556.43 L400.15 556.06 L395.83 557.12 L392.96 557.32 L393.77 555.52 L390.72 555.73 L390.28 554.58 L394.33 551.25 L395.86 549.23 L394.56 548.56 L395.31 546.95 L394.78 545.93 L392.94 545.47 L393.04 544.17 L391.94 543.36 L391.36 542.34 L391.01 541.22 L389.00 540.72 L385.08 540.86 L384.21 539.87 L387.46 537.50 L383.02 537.68 L382.91 536.42 L387.70 533.71 L387.89 532.43 L386.71 531.55 L387.27 530.18 L386.84 529.09 L387.20 527.79 L387.34 526.57 L387.73 525.29 L387.58 524.15 L387.75 522.94 L387.07 521.91 L386.08 520.92 L384.95 519.94 L382.38 519.17 L380.64 518.23 L381.47 516.90 L380.31 515.84 L379.32 514.75 L380.63 513.38 L376.18 512.62 L372.63 511.70 L374.67 510.25 L374.10 509.03 L372.36 507.87 L376.98 506.35 L378.94 505.04 L378.37 503.84 L375.52 502.69 L370.80 501.50 L371.41 500.20 L372.50 498.93 L370.53 497.62 L373.64 496.41 L377.47 495.29 L378.82 494.13 L378.80 492.91 L378.59 491.68 L377.79 490.40 L377.95 489.18 L378.28 487.98 L378.04 486.73 L378.68 485.57 L378.62 484.33 L375.70 482.68 L371.29 480.76 L372.69 479.66 L372.79 478.37 L369.11 476.40 L372.26 475.64 L375.06 474.88 L375.59 473.69 L375.74 472.42 L376.03 471.18 L377.04 470.12 L377.83 469.01 L378.13 467.79 L378.70 466.64 L379.31 465.50 L379.07 464.12 L378.96 462.77 L378.23 461.21 L377.63 459.67 L377.18 458.15 L377.07 456.73 L379.77 456.33 L378.95 454.66 L378.40 453.06 L379.40 452.05 L374.64 448.70 L373.77 446.87 L375.08 445.94 L373.75 443.86 L375.53 443.15 L379.39 443.46 L380.39 442.46 L379.61 440.59 L377.26 437.90 L375.58 435.48 L378.68 435.53 L378.73 434.00 L378.58 432.33 L384.05 433.85 L386.29 433.62 L386.67 432.31 L388.02 431.59 L390.22 431.42 L389.87 429.65 L390.09 428.24 L390.99 427.26 L390.70 425.48 L390.41 423.67 L390.27 421.92 L387.69 418.39 L386.45 415.74 L389.15 416.01 L390.28 415.12 L392.39 415.03 L396.62 416.67 L399.26 417.13 L400.12 416.15 L400.21 414.50 L399.16 411.84 L398.79 409.71 L398.85 407.94 L400.17 407.30 L400.56 405.79 L402.28 405.54 L403.78 405.11 L404.61 404.03 L405.45 402.96 L405.89 401.46 L406.32 399.92 L407.63 399.32 L408.93 398.72 L408.08 395.70 L409.70 395.45 L408.66 392.08 L406.73 387.53 L408.19 387.02 L410.05 387.02 L410.65 385.44 L413.58 386.88 L416.05 387.80 L417.36 387.22 L416.76 383.99 L415.02 379.02 L415.96 377.79 L418.33 378.65 L419.01 377.03 L421.65 378.40 L425.62 381.99 L427.23 381.94 L428.51 381.37 L430.07 381.30 L430.82 379.84 L431.86 378.85 L432.85 377.77 L433.81 376.61 L434.50 374.92 L435.26 373.30 L435.26 370.12 L434.69 365.63 L435.83 364.53 L437.34 364.24 L437.85 361.72 L439.87 362.55 L442.63 365.21 L444.45 365.77 L445.51 364.52 L446.98 364.26 L448.28 363.58 L450.06 364.20 L451.69 364.47 L453.10 364.12 L454.71 364.42 L456.33 364.77 L457.41 363.49 L458.57 362.38 L459.74 361.25 L460.57 358.85 L461.43 356.39 L463.14 357.08 L464.54 356.57 L465.86 355.74 L467.42 355.93 L467.98 351.51 L469.09 349.34 L471.02 351.24 L472.10 348.72 L473.64 348.62 L475.95 353.21 L477.75 355.13 L479.02 353.65 L480.09 350.49 L481.06 346.04 L482.71 346.83 L484.21 346.29 L485.59 344.47 L487.55 349.20 L489.35 353.08 L490.80 352.68 L492.36 354.29 L493.86 355.23 L495.24 353.13 L496.69 352.36 L498.17 352.54 L499.65 351.41 L501.11 353.85 L502.53 356.48 L504.08 352.12 L505.74 347.51 L507.10 351.01 L508.85 346.62 L510.86 339.61 L512.19 343.19 L513.57 345.52 L515.14 345.41 L516.66 345.74 L518.04 347.33 L519.44 348.51 L520.83 349.58 L522.29 350.10 L523.57 351.68 L525.04 352.03 L526.76 350.91 L528.33 350.76 L529.87 350.82 L531.58 350.08 L533.34 349.20 L535.10 348.46 L535.70 352.60 L537.04 353.47 L538.76 352.90 L540.62 351.86 L543.45 347.54 L544.97 347.98 L546.23 349.26 L549.22 345.07 L549.51 349.41 L549.70 353.75 L551.10 354.45 L553.29 352.93 L555.85 350.53 L558.21 348.86 L559.23 350.68 L561.46 349.47 L562.18 351.95 L562.19 355.97 L562.67 358.77 L564.14 359.26 L565.60 359.80 L567.74 358.90 L569.21 359.47 L570.74 359.92 L572.48 359.97 L574.36 359.79 L576.04 360.01 L578.87 358.21 L582.42 355.24 L584.15 355.58 L584.33 358.55 L586.51 358.14 L587.15 360.26 L585.70 365.59 L586.56 367.19 L588.81 366.67 L590.23 367.43 L591.34 368.64 L593.20 368.79 L595.04 368.99 L596.46 369.80 L597.62 370.95 L598.52 372.43 L599.23 374.13 L600.35 375.29 L601.39 376.55 L603.36 376.69 L605.93 376.16 L607.42 376.93 L608.71 377.94 L611.71 377.07 L612.42 378.74 L615.57 377.82 L620.03 375.62 L619.79 378.33 L620.69 379.84 L621.63 381.31 L619.64 385.56 L618.93 388.50 L619.80 389.91 L623.98 388.33 L628.96 386.16 L629.08 388.34 L629.92 389.86 L632.78 389.70 L630.35 393.90 L628.17 397.79 L629.54 398.80 L630.08 400.46 L629.56 402.90 L632.67 402.62 L634.47 403.35 L634.99 405.01 L638.51 404.59 L640.95 404.97 L642.28 406.13 L646.10 405.70 L651.18 404.55 L650.95 406.79 L651.45 408.56 L654.76 408.66 L652.63 411.97 L650.77 415.03 L652.40 416.11 L651.90 418.36 L651.55 420.49 L652.74 421.80 L652.17 424.00 L651.69 426.13 L651.76 427.96 L650.95 430.19 L650.98 432.00 L652.00 433.36 L652.90 434.78 L655.71 435.41 L658.56 436.08 L660.20 437.28 L659.38 439.43 L662.32 440.16 L663.03 441.75 L663.26 443.50 L669.31 443.29 L670.52 444.78 L670.24 446.74 L672.91 447.80 L671.90 449.98 L668.49 452.79 L667.43 454.89 L669.33 456.19 L673.82 456.88 L676.89 457.99 L674.32 460.44 L674.72 462.18 L675.42 463.86 L671.35 466.48 L669.85 468.53 L671.25 470.04 L672.94 471.53 L674.03 473.13 L675.77 474.66 L676.16 476.40 L676.65 478.13 L677.14 479.86 L677.57 481.61 L679.92 483.19 L683.80 484.67 L686.56 486.32 L685.03 488.29 L686.22 490.09 L686.88 491.92 L683.68 493.90 L681.07 495.80 L681.20 497.61 L680.43 499.43 L679.93 501.23 L680.28 503.03 L680.54 504.84 L681.80 506.70 L682.65 508.56 L682.92 510.40 L682.77 512.23 L681.92 514.00 L680.39 515.70 L679.52 517.43 L679.88 519.29 L680.61 521.19 L677.44 522.62 L678.02 524.51 L679.63 526.56 L681.75 528.74 L685.57 531.25 L684.73 533.01 L686.38 535.23 L688.78 537.64 L684.17 538.64 L681.45 539.97 L682.05 542.01 L681.34 543.76 L684.26 546.42 L682.83 548.01 L680.10 549.23 L681.80 551.65 L680.78 553.32 L676.08 553.85 L676.70 555.98 L675.54 557.55 L675.38 559.45 L673.56 560.77 L673.04 562.54 L674.39 565.01 L674.71 567.13 L674.34 568.99 L675.51 571.49 L676.84 574.10 L679.84 577.49 L679.29 579.38 L676.11 580.09 L674.82 581.62 L671.16 582.01 L665.79 581.48 L661.32 581.30 L658.63 581.94 L658.71 584.01 L660.57 587.06 L660.17 588.92 L662.20 592.19 L664.65 595.77 L663.78 597.47 L663.11 599.29 L662.40 601.10 L660.90 602.41 L659.29 603.64 L659.30 605.93 L659.35 608.27 L656.26 608.48 L656.12 610.71 L656.14 613.08 L654.42 614.21 L657.01 618.57 L658.06 621.87 L656.16 622.91 L655.23 624.71 L651.43 624.17 L646.34 622.47 L642.78 621.93 L641.26 623.10 L643.07 627.22 L645.68 632.17 L643.00 632.37 L642.80 634.86 L643.96 638.71 L638.11 635.76 L635.25 635.63 L634.31 637.41 L632.55 638.35 L630.51 638.98 L629.02 640.18 L627.28 641.09 L625.69 642.16 L624.72 643.94 L623.32 645.23 L623.11 647.95 L623.93 652.01 L625.44 657.05 L623.36 657.65 L621.67 658.74 L619.75 659.50 L616.22 658.07 L613.39 657.49 L610.46 656.71 L609.69 658.97 L609.72 662.47 L607.87 663.22 L605.01 662.40 L602.35 661.81 L600.88 663.08 L598.63 663.06 L595.93 662.24 L595.36 665.01 L594.79 667.89 L593.52 669.58 L593.12 672.91 L592.58 676.11 L590.24 675.92 L589.20 678.25 L587.78 679.88 L586.44 681.74 L586.68 687.03 L584.45 687.10 L582.14 686.95 L581.39 690.38 L577.91 687.41 L574.53 684.46 L572.23 684.05 L571.28 687.11 L571.06 692.29 L569.80 694.86 L567.86 695.58 L566.65 698.47 L563.85 696.63 L560.13 691.67 L557.36 689.47 L555.41 689.85 L552.81 687.89 L551.47 690.43 L550.85 695.89 L548.51 694.85 L546.86 696.60 L545.51 699.76 L543.70 701.08 L541.73 701.72 L540.20 704.65 L538.46 706.66 L535.86 704.02 L534.12 706.22 L532.02 706.31 L529.48 703.34 L527.45 703.63 L525.24 702.50 L523.11 701.87 L521.02 701.40 L518.68 698.20 L516.52 696.27 L514.61 697.09 L512.58 696.28 L510.65 697.04 L508.76 699.11 L506.81 700.22 L504.85 702.37 L502.85 704.03 L500.82 706.28 L498.76 705.55 L496.73 704.29 L494.70 703.60 L492.67 703.30 L490.49 706.45 L488.24 709.63 L486.29 707.34 L484.08 709.08 L481.95 709.28 L480.37 703.84 L478.75 699.64 L476.91 698.17 L474.48 701.44 L471.57 707.75 L469.37 708.25 L467.27 708.11 L464.66 710.92 L463.02 707.94 L461.58 704.14 L460.07 701.11 L458.14 700.32 L456.07 700.18 L453.91 700.42 L451.89 700.02 L450.20 698.30 L448.28 697.59 L446.41 696.67 L444.05 697.55 L441.08 700.35 L437.39 705.30 L435.87 702.99 L433.87 702.23 L430.95 704.23 L430.67 698.51 L430.16 693.71 L428.73 691.65 L426.46 691.86 L424.14 692.14 L421.63 692.84 L419.29 693.04 L416.18 694.97 L413.48 695.83 L411.36 695.31 L408.98 695.34 L406.77 694.99 L405.36 692.96 L403.60 691.66 L401.56 690.93 L399.02 691.15 L397.65 689.13 L394.62 690.17 L391.28 691.66 L389.23 690.79 L384.32 694.73 L381.63 694.80 L380.40 692.46 L378.59 691.09 L377.97 687.88 L378.56 682.94 L377.91 680.00 L375.15 680.16 L370.83 682.47 L368.01 682.55 L367.40 679.59 L364.35 679.92 L362.70 678.37 L364.90 671.93 L364.69 668.69 L362.95 667.41 L361.97 665.21 L359.00 665.37 L355.80 665.74 L353.71 664.79 L350.50 665.04 L347.52 664.99 L345.17 664.20 L340.62 665.68 L336.83 666.26 L334.02 665.78 L330.71 665.74 L327.17 665.84 L323.06 666.42 L322.51 663.63 L319.24 663.33 L313.40 665.24 L311.71 663.41 L309.72 661.83 L307.62 660.33 L305.32 658.97 L304.83 656.15 L305.71 652.28 L303.37 650.96 L300.12 650.31 L299.53 647.64 L297.03 646.37 L292.34 646.62 L295.03 641.67 L298.62 636.23 L295.01 635.71 L292.20 634.60 L295.03 629.87 L288.16 631.28 L284.07 630.84 L286.46 626.49 L286.34 623.69 L282.36 623.11 L282.11 620.39 L279.43 619.01 L269.94 621.17 L269.97 618.23 L272.03 614.31 L276.44 609.31 L278.79 605.44 L276.81 603.65 L278.67 600.11 L278.61 597.48 L268.98 598.98 L266.34 597.36 L264.30 595.45 L257.91 595.23 L254.43 593.77 L253.41 591.35 L252.35 588.94 L251.46 586.46 L251.02 583.83 L251.71 580.85 L253.84 577.44 L257.38 573.67 L259.14 570.51 L256.80 568.56 L254.78 566.49 L254.10 564.04 L246.75 563.26 L242.51 561.59 L241.87 559.02 L241.26 556.44 L240.61 553.87 L240.12 551.27 L241.47 548.32 L245.30 544.98 L248.32 541.85 L247.60 539.38 L246.12 537.02 L247.31 534.26 L247.02 531.73 L247.93 529.06 L250.80 526.21 L247.04 524.05 L248.01 521.41 L248.67 518.83 L241.36 516.78 L243.21 514.08 L247.67 511.31 L246.41 508.82 L244.79 506.32 L247.57 503.73 L241.37 501.24 L235.79 498.62 L236.97 496.00 L239.21 493.42 L242.89 490.94 L244.29 488.43 L243.61 485.83 L248.60 483.58 L249.27 481.10 L245.06 478.22 L248.97 476.02 L250.05 473.60 L243.92 470.36 L243.72 467.74 L243.49 465.10 L236.89 461.52 L237.14 458.87 L237.06 456.16 L238.63 453.73 L244.08 452.05 L249.67 450.50 L249.57 447.87 L244.64 444.18 L249.83 442.68 L245.32 438.96 L234.58 433.58 L235.10 430.88 L235.69 428.21 L236.32 425.54 L237.26 422.96 L240.38 421.05 L245.59 419.84 L248.17 417.88 L247.89 414.99 L248.91 412.53 L249.88 410.05 L246.71 406.04 L250.92 404.76 L259.00 405.07 L258.76 402.18 L256.15 398.27 L262.91 398.30 L258.61 393.58 L255.64 389.34 L262.89 389.76 L266.96 388.80 L264.57 384.76 L267.45 383.27 L267.52 380.38 L259.28 373.07 L260.19 370.48 L262.30 368.53 L267.32 368.25 L272.31 368.05 L274.43 366.25 L276.37 364.36 L280.99 364.14 L279.07 359.88 L276.71 355.23 L278.59 353.28 L278.09 349.73 L278.46 346.73 L280.40 344.80 L282.21 342.80 L283.39 340.33 L284.28 337.63 L285.39 335.08 L287.36 333.19 L292.45 333.80 L297.12 334.18 L297.96 331.46 L299.67 329.46 L303.79 329.56 L300.95 323.58 L300.82 319.87 L302.79 318.03 L304.08 315.56 L305.83 313.51 L306.87 310.77 L308.87 308.94 L311.05 307.30 L314.60 307.10 L316.29 304.99 L317.46 302.31 L320.14 301.26 L321.72 299.00 L324.22 297.78 L329.52 299.87 L330.50 296.94 L332.19 294.84 L336.89 296.46 L335.18 290.06 L335.25 285.78 L339.31 286.67 L341.95 285.75 L343.14 282.85 L346.60 283.11 L348.21 280.76 L348.22 276.03 L349.35 272.83 L351.35 270.90 L356.34 273.67 L359.63 273.88 L360.52 270.23 L365.34 273.08 L368.50 273.27 L368.26 267.54 L371.68 268.20 L375.89 270.41 L378.65 270.05 L380.80 268.55 L384.46 270.04 L387.33 270.04 L390.35 270.41 L394.04 272.33 L397.77 274.46 L400.58 274.70 L403.07 274.27 L404.73 271.85 L405.77 267.85 L406.29 262.34 L408.01 259.69 L409.67 256.77 L411.43 253.97 L413.96 253.30 L416.68 253.20 L419.50 253.44 L422.11 253.08 L424.65 252.53 L427.25 252.20 L429.53 250.77 L431.80 249.27 L434.14 247.94 L436.23 245.57 L438.47 243.66 L441.13 243.45 L444.27 245.52 L446.60 243.89 L449.20 243.56 L451.73 242.86 L453.32 236.85 L455.79 235.46 L458.39 234.73 L460.88 233.20 L463.80 234.59 L466.98 238.45 L469.85 240.26 L472.34 238.95 L474.55 234.48 L477.06 232.59 L479.94 235.11 L482.45 232.69 L485.17 233.35 L488.08 238.67 L490.75 240.10 L493.30 237.94 L495.91 237.67 L498.54 237.21 L501.17 236.75 L503.80 236.92 L506.42 237.01 L509.05 237.18 L511.71 236.57 L514.49 233.98 L517.50 228.73 L520.42 226.19 L523.20 225.87 L526.29 222.44 L528.95 223.76 L530.97 230.50 L533.43 232.68 L535.99 233.89 L538.40 235.95 L541.23 235.11 L544.01 234.73 L546.84 234.21 L549.41 235.14 L552.00 235.92 L554.53 236.98 L556.88 238.80 L559.63 238.78 L562.11 239.91 L564.91 239.74 L567.78 239.38 L570.59 239.29 L572.80 241.42 L575.83 240.63 L578.35 241.61 L581.97 239.12 L585.71 236.46 L587.27 240.50 L590.06 240.81 L593.20 240.19 L593.58 247.13 L595.40 249.92 L598.06 250.46 L601.33 249.53 L606.22 244.81 L609.19 244.89 L611.87 245.69 L615.58 244.24 L617.57 246.62 L618.16 251.88 L619.92 254.53 L622.71 255.06 L624.38 257.81 L626.22 260.15 L629.38 259.99 L631.17 262.40 L633.45 263.88 L637.26 262.70 L640.27 263.00 L643.89 262.35 L648.70 259.86 L650.36 262.52 L651.86 265.37 L656.31 263.71 L656.48 268.52 L657.26 272.31 L660.72 272.20 L662.50 274.50 L664.51 276.46 L666.52 278.40 L668.41 280.50 L670.09 282.83 L671.57 285.40 L673.32 287.61 L675.02 289.84 L676.84 291.92 L678.30 294.41 L680.43 296.10 L683.96 296.26 L687.23 296.76 L687.92 300.06 L692.27 299.50 L695.65 300.00 L697.30 302.32 L703.03 300.60 L705.49 302.18 L705.61 306.00 L709.14 306.58 L709.57 310.03 L707.85 315.35 L710.00 317.16 L712.78 318.45 L717.67 318.00 L722.92 317.37 L723.43 320.66 L725.40 322.75 L726.86 325.25 L725.30 330.01 L724.42 334.17 L724.64 337.46 L726.92 339.24 L728.96 341.21 L731.34 342.96 L733.57 344.84 L735.10 347.19 L736.87 349.38 L738.13 351.91 L740.69 353.63 L745.69 353.94 L749.37 355.10 L748.28 359.04 L751.92 360.29 L755.96 361.37 L752.43 366.53 L752.97 369.47 L754.95 371.65 L755.09 374.77 L756.27 377.35 L757.01 380.14 L758.04 382.79 L759.86 385.08 L761.66 387.40 L762.33 390.21 L764.34 392.46 L766.59 394.64 L767.43 397.39 L769.09 399.83 L771.16 402.13 L771.93 404.92 L770.33 408.50 L773.33 410.52 L773.69 413.43 L775.15 415.98 L782.83 416.72 L783.62 419.56 L783.46 422.66 L785.56 425.14 L784.29 428.51 L781.83 432.11 L781.24 435.22 L785.64 437.21 L790.78 439.12 L790.06 442.30 L788.83 445.54 L790.95 448.15 L789.22 451.43 L785.00 455.07 L784.82 458.01 L785.33 460.85 L784.00 463.92 L785.08 466.67 L786.40 469.42 L785.33 472.42 L786.76 475.17 L790.09 477.80 L791.36 480.63 L794.91 483.36 L799.28 486.11 L800.47 489.07 L800.31 492.08 L801.46 495.06 L800.22 498.09 L795.17 501.07 L792.61 503.99 L792.18 506.91 L791.10 509.79 L790.73 512.69 L792.03 515.68 L792.57 518.64 L793.98 521.68 L794.24 524.66 L794.93 527.70 L794.95 530.68 L794.25 533.58 L794.45 536.59 L795.27 539.69 L795.59 542.75 L792.67 545.32 L794.36 548.60 L796.01 551.92 L793.94 554.59 L798.90 558.61 L801.67 562.29 L799.41 564.95 L799.52 568.12 L797.86 570.88 L793.33 572.91 L789.43 575.02 L788.80 577.95 L790.73 581.60 L793.97 585.69 L791.67 588.19 L790.94 591.16 L791.52 594.55 L785.13 595.64 L781.36 597.52 L779.28 599.93 L777.50 602.44 L777.02 605.42 L775.27 607.92 L774.42 610.76 L773.31 613.51 L772.69 616.46 L772.97 619.82 L773.53 623.34 L775.95 627.77 L779.65 632.89 L778.24 635.65 L776.48 638.23 L774.56 640.72 L769.65 641.63 L764.62 642.38 L762.28 644.52 L761.69 647.63 L760.45 650.38 L760.97 654.18 L759.94 657.10 L758.03 659.49 L756.73 662.26 L753.44 663.75 L751.16 665.86 L750.29 668.90 L747.63 670.74 L746.55 673.65 L746.56 677.38 L745.66 680.48 L742.74 682.10 L743.37 686.41 L743.02 690.02 L741.35 692.64 L743.77 698.59 L740.22 699.73 L736.08 700.32 L735.64 704.03 L730.86 703.97 L726.00 703.73 L724.30 706.30 L724.05 710.25 L725.04 715.45 L725.20 719.96 L722.49 721.70 L720.79 724.46 L717.60 725.68 L712.82 725.19 L707.77 724.29 L704.46 725.20 L701.57 726.52 L700.31 729.69 L699.46 733.39 L697.44 735.76 L696.76 739.78 L695.51 743.18 L692.76 744.72 L689.98 746.23 L689.50 750.75 L688.05 754.07 L683.16 752.72 L681.85 756.26 L679.17 757.91 L675.14 757.57 L671.92 758.35 L669.24 759.92 L667.43 762.86 L664.76 764.46 L661.84 765.65 L658.77 766.57 L655.85 767.73 L652.79 768.62 L650.33 770.55 L648.31 773.33 L645.46 774.57 L643.43 777.41 L642.02 781.56 L639.43 783.43 L635.97 783.52 L633.42 785.49 L630.17 785.95 L626.72 785.93 L625.45 790.89 L623.68 794.85 L619.66 793.46 L617.42 796.41 L615.54 800.40 L610.29 795.54 L606.94 795.55 L604.08 796.89 L601.85 800.11 L600.66 806.65 L597.45 807.21 L594.14 807.42 L591.69 810.45 L587.86 808.84 L583.69 805.77 L580.16 804.81 L577.31 806.41 L574.27 807.26 L571.44 809.07 L568.47 810.34 L565.35 810.91 L562.25 811.64 L559.30 813.14 L556.19 813.83 L553.54 817.30 L551.12 822.60 L547.71 821.87 L544.30 820.93 L541.47 824.31 L537.74 820.60 L534.12 817.21 L530.98 817.85 L527.76 817.70 L524.54 817.32 L521.29 816.46 L518.17 817.49 L515.00 817.72 L511.83 818.05 L508.67 819.12 L505.48 819.31 L502.30 821.00 L499.09 821.96 L495.87 822.02 L492.61 823.60 L489.34 824.65 L486.18 822.40 L482.87 823.89 L479.54 825.25 L476.36 823.95 L472.54 830.80 L469.11 831.78 L465.88 830.59 L462.43 831.52 L459.40 828.85 L456.61 824.74 L453.66 822.24 L450.37 822.19 L446.53 825.48 L442.83 827.47 L440.17 823.59 L436.72 824.06 L433.30 824.31 L431.20 818.34 L428.04 817.55 L424.70 817.56 L421.81 815.65 L418.45 815.65 L414.93 816.19 L412.30 813.42 L409.03 813.03 L405.48 813.51 L402.19 813.03 L398.52 813.73 L393.97 816.95 L389.82 818.71 L386.87 816.96 L383.59 816.11 L380.21 815.54 L378.14 811.57 L375.74 808.56 L372.48 807.74 L369.60 806.02 L366.78 804.15 L363.79 802.71 L360.72 801.44 L358.24 798.92 L356.03 795.90 L353.44 793.72 L350.95 791.37 L349.20 787.67 L346.09 786.59 L343.17 785.14 L339.80 784.51 L335.82 784.87 L333.39 782.51 L328.23 784.72 L325.69 782.51 L320.89 783.90 L314.69 787.32 L312.55 784.35 L309.63 782.58 L305.76 782.20 L304.85 777.54 L303.99 772.92 L301.38 770.80 L297.67 770.16 L292.83 770.92 L290.70 768.11 L290.03 763.49 L287.32 761.49 L287.50 755.99 L288.41 749.77 L286.90 746.51 L284.33 744.50 L280.54 743.84 L277.00 742.84 L273.05 742.23 L268.88 741.79 L265.58 740.39 L262.74 738.48 L260.44 736.02 L256.47 735.19 L251.05 735.65 L247.94 733.86 L246.35 730.66 L242.11 729.85 L240.40 726.76 L240.94 721.75 L239.73 718.32 L237.16 716.03 L235.86 712.71 L234.72 709.29 L233.63 705.87 L232.82 702.25 L231.80 698.84 L229.33 696.51 L227.04 694.03 L224.37 691.81 L221.46 689.73 L219.21 687.18 L215.20 685.77 L213.64 682.72 L212.87 679.20 L210.50 676.69 L208.72 673.80 L208.03 670.27 L201.56 670.07 L198.60 667.78 L199.48 663.38 L194.59 662.10 L193.10 658.98 L195.46 653.92 L194.18 650.74 L190.64 648.66 L185.16 647.44 L179.51 646.20 L178.55 642.77 L177.36 639.45 L175.81 636.29 L178.58 631.36 L181.59 626.43 L181.33 622.85 L182.37 618.82 L180.32 615.95 L178.72 612.91 L177.38 609.77 L175.54 606.79 L171.62 604.45 L170.53 601.18 L168.02 598.33 L162.96 596.17 L158.71 593.71 L161.08 589.42 L159.65 586.17 L156.12 583.41 L161.32 578.57 L164.16 574.38 L164.70 570.75 L166.25 566.95 L166.41 563.45 L165.77 560.12 L165.08 556.79 L161.86 553.86 L159.00 550.83 L156.79 547.65 L154.55 544.45 L153.94 541.01 L153.80 537.52 L152.34 534.17 L151.77 530.71 L150.71 527.29 L152.83 523.63 L150.03 520.31 L149.10 516.84 L147.11 513.40 L141.45 510.03 L143.74 506.40 L145.52 502.82 L142.43 499.27 L147.80 495.76 L152.66 492.34 L154.19 488.92 L153.54 485.43 L148.29 481.68 L146.37 478.03 L146.34 474.48 L142.24 470.58 L142.20 466.98 L146.85 463.84 L150.78 460.71 L151.26 457.23 L152.52 453.85 L152.99 450.38 L153.12 446.85 L153.10 443.29 L152.97 439.70 L152.29 435.99 L152.01 432.34 L150.18 428.35 L146.66 423.94 L147.14 420.34 L150.92 417.51 L150.63 413.75 L154.97 411.15 L160.99 409.08 L162.50 405.85 L162.98 402.35 L162.00 398.38 L161.50 394.53 L160.83 390.59 L160.02 386.56 L161.99 383.45 L162.90 379.98 L165.46 377.11 L167.51 374.08 L168.47 370.64 L170.31 367.54 L170.73 363.87 L169.80 359.60 L172.08 356.68 L173.25 353.28 L171.98 348.75 L173.75 345.59 L172.34 340.90 L169.87 335.60 L172.26 332.68 L174.94 329.93 L177.78 327.29 L182.09 325.48 L186.23 323.65 L188.64 320.88 L187.15 315.84 L184.47 309.99 L187.91 307.78 L190.71 305.21 L190.36 300.64 L196.90 300.53 L201.87 299.51 L204.21 296.76 L207.91 294.96 L211.14 292.89 L212.71 289.64 L214.15 286.26 L215.17 282.55 L215.89 278.57 L217.93 275.59 L219.11 271.91 L219.23 267.31 L218.57 261.98 L220.93 259.14 L225.15 257.94 L227.48 255.11 L231.07 253.44 L235.18 252.29 L239.79 251.68 L240.40 247.25 L241.31 243.05 L243.46 240.03 L246.65 238.08 L250.07 236.39 L253.99 235.26 L256.44 232.59 L257.96 228.87 L259.84 225.49 L261.56 221.89 L263.16 218.11 L265.11 214.69 L267.19 211.37 L272.26 211.80 L274.59 208.82 L277.68 206.80 L280.64 204.62 L280.80 198.57 L282.73 194.86 L285.94 192.91 L287.81 189.02 L290.82 186.75 L295.65 187.24 L299.78 186.77 L301.87 183.11 L303.32 178.31 L305.34 174.34 L309.91 174.64 L312.51 171.59 L315.34 168.92 L320.45 170.36 L324.19 169.40 L327.42 167.51 L331.07 166.42 L334.40 164.71 L337.82 163.20 L341.68 162.63 L345.42 161.84 L349.08 160.91 L352.61 159.72 L355.49 157.01 L357.38 151.81 L359.50 146.96 L363.03 145.56 L365.82 142.17 L368.96 139.63 L373.55 141.12 L377.88 142.03 L381.62 141.28 L385.27 140.30 L388.95 139.43 L392.91 139.52 L396.81 139.46 L400.19 137.62 L403.81 136.59 L407.51 135.88 L410.88 133.87 L414.16 131.34 L417.76 130.06 L421.06 127.38 L424.55 125.42 L428.17 123.98 L432.15 124.48 L435.59 121.95 L439.61 122.82 L443.12 120.46 L446.30 115.47 L450.51 117.80 L454.39 117.77 L458.04 115.69 L462.32 119.73 L466.36 122.01 L470.11 121.22 L473.76 119.00 L477.32 114.41 L481.12 113.15 L485.02 113.59 L488.85 112.44 L492.74 112.92 L496.64 116.49 L500.47 118.08 L504.30 117.65 L508.10 118.86 L511.87 120.09 L515.57 122.56 L519.15 126.55 L522.88 126.91 L526.55 127.88 L530.34 127.34 L534.57 122.18 L538.95 116.62 L542.86 116.31 L546.60 117.49 L550.84 114.83 L554.27 118.30 L557.63 121.86 L561.61 121.23 L565.48 121.38 L569.43 121.15 L573.33 121.25 L577.16 121.76 L580.86 122.93 L584.31 125.17 L587.73 127.40 L591.10 129.72 L594.47 131.92 L597.94 133.68 L601.43 135.26 L605.68 134.18 L610.07 132.80 L613.25 135.50 L618.13 132.80 L622.52 131.82 L626.19 133.08 L631.33 130.19 L635.49 130.26 L637.73 135.47 L642.71 133.42 L646.39 134.80 L648.51 139.98 L652.19 141.29 L656.85 140.34 L661.53 139.50 L666.37 138.42 L669.33 141.48 L672.63 143.75 L675.87 146.14 L677.78 151.09 L679.67 155.92 L682.15 159.52 L684.81 162.69 L688.35 164.25 L691.96 165.70 L695.49 167.30 L699.48 168.15 L703.25 169.42 L707.29 170.28 L711.54 170.87 L716.82 169.96 L721.78 169.65 L723.14 174.71 L727.37 175.54 L732.83 174.71 L731.45 183.39 L733.99 186.53 L737.61 188.24 L739.58 192.09 L742.07 195.23 L744.51 198.40 L746.35 202.27 L748.45 205.77 L751.85 207.73 L755.29 209.65 L758.24 212.16 L763.52 212.12 L768.15 212.88 L770.32 216.29 L775.65 216.44 L778.42 219.26 L779.73 223.52 L783.29 225.55 L786.67 227.78 L789.88 230.19 L796.56 229.46 L799.42 232.28 L801.11 236.15 L803.86 239.06 L804.20 244.01 L804.16 249.19 L804.70 253.83 L809.82 254.77 L816.74 254.40 L820.28 256.74 L821.93 260.53 L826.80 261.95 L827.58 266.36 L825.72 272.56 L828.02 275.81 L829.92 279.31 L829.74 284.17 L831.19 287.92 L834.81 290.30 L834.77 294.95 L837.03 298.18 L841.57 300.07 L847.24 301.39 L852.82 302.86 L857.78 304.75 L862.45 306.88 L864.37 310.51 L866.96 313.80 L870.32 316.73 L870.54 321.21 L873.45 324.39 L878.70 326.52 L881.49 329.84 L882.50 333.96 L885.53 337.20 L886.87 341.17 L888.32 345.10 L891.22 348.46 L892.76 352.36 L894.42 356.22 L896.32 360.01 L898.51 363.70 L900.36 367.52 L902.11 371.39 L903.87 375.26 L905.20 379.28 L905.66 383.55 L906.19 387.78 L906.74 391.99 L906.16 396.48 L906.27 400.77 L907.08 404.88 L907.96 408.96 L908.11 413.20 L909.32 417.22 L910.92 421.16 L911.59 425.29 L912.53 429.38 L914.18 433.35 L915.00 437.47 L915.83 441.59 L917.03 445.67 L918.42 449.74 L919.29 453.88 L920.89 457.96 L921.99 462.11 L922.30 466.33 L923.47 470.50 L924.04 474.72 L924.68 478.94 L924.82 483.19 L922.86 487.50 L923.01 491.73 L923.17 495.96 L957.52 500.00 L957.16 495.43 L958.10 490.84 L960.22 486.19 L958.84 481.64 L959.21 477.02 L960.00 472.37 L960.60 467.71 L959.88 463.13 L958.83 458.59 L958.28 454.02 L957.46 449.48 L956.94 444.90 L955.70 440.42 L954.59 435.94 L953.09 431.52 L951.78 427.09 L951.04 422.58 L949.11 418.28 L947.70 413.90 L946.40 409.51 L945.65 405.01 L944.85 400.52 L944.22 395.99 L943.43 391.49 L942.14 387.10 L941.63 382.52 L939.50 378.36 L936.84 374.38 L935.36 370.08 L933.21 365.99 L930.81 362.00 L928.78 357.91 L926.13 354.04 L923.91 350.05 L921.76 346.05 L919.63 342.05 L917.96 337.89 L916.38 333.69 L914.76 329.51 L913.16 325.32 L912.24 320.83 L910.11 316.86 L910.13 311.91 L911.50 306.28 L910.61 301.65 L906.74 298.48 L905.04 294.25 L903.83 289.76 L901.41 285.89 L901.31 280.76 L902.01 275.13 L903.50 268.97 L904.28 263.13 L904.75 257.38 L902.19 253.42 L897.85 250.57 L897.88 244.97 L895.49 240.89 L891.06 238.16 L888.74 234.05 L882.06 232.97 L876.23 231.41 L870.83 229.62 L867.47 226.40 L862.34 224.55 L860.24 220.41 L859.98 214.80 L857.21 211.13 L854.37 207.53 L848.43 206.52 L843.32 204.91 L843.09 199.09 L839.29 196.36 L835.30 193.84 L835.43 187.51 L832.48 183.99 L830.18 179.84 L827.75 175.77 L823.62 173.39 L821.38 169.09 L820.25 163.59 L817.46 159.77 L814.01 156.65 L810.02 154.13 L806.18 151.46 L801.41 149.90 L797.41 147.48 L794.06 144.29 L791.66 139.92 L789.33 135.40 L786.32 131.68 L781.41 130.44 L776.24 129.59 L770.57 129.53 L762.09 133.50 L757.34 132.43 L753.70 129.80 L749.50 128.00 L748.01 122.12 L746.49 116.12 L743.71 111.96 L740.34 108.69 L736.20 106.67 L732.15 104.50 L727.84 102.81 L723.85 100.56 L719.54 98.89 L715.03 97.63 L711.76 94.03 L706.35 94.58 L699.60 97.93 L697.48 92.02 L694.31 88.10 L689.65 87.34 L687.46 81.13 L684.78 75.77 L680.08 75.01 L673.65 78.50 L667.36 81.94 L662.03 83.24 L657.77 81.85 L652.81 82.41 L649.58 78.20 L646.78 72.60 L642.26 71.85 L637.80 71.00 L633.75 68.85 L628.66 70.09 L624.14 69.59 L620.27 66.77 L616.24 64.46 L612.10 62.43 L608.03 60.08 L603.95 57.63 L599.66 55.99 L595.30 54.63 L590.99 52.97 L586.66 51.34 L581.97 51.57 L577.25 52.12 L572.53 52.81 L567.50 55.76 L562.25 60.79 L557.47 63.13 L553.21 61.69 L548.69 62.37 L544.29 62.04 L540.29 57.48 L535.93 56.22 L531.54 55.29 L527.20 53.09 L522.85 50.64 L518.36 50.23 L513.89 49.22 L509.40 48.13 L504.84 52.15 L500.36 54.01 L495.89 53.61 L491.54 59.73 L487.20 61.96 L482.71 59.08 L478.37 60.78 L474.04 61.99 L469.35 57.88 L464.71 55.42 L460.36 56.84 L456.35 61.44 L452.30 64.95 L447.78 64.04 L443.48 64.98 L439.12 65.48 L433.95 60.63 L429.42 60.40 L424.90 60.38 L420.39 60.52 L416.77 65.35 L412.45 66.33 L407.96 66.47 L403.58 67.19 L398.74 65.96 L394.22 66.27 L389.84 67.13 L385.32 67.54 L381.21 69.44 L377.55 72.87 L374.04 76.66 L370.26 79.39 L366.13 80.94 L361.97 82.36 L357.45 82.74 L353.74 85.47 L351.09 91.04 L346.43 91.03 L342.31 92.47 L339.84 98.08 L335.00 97.68 L329.84 96.63 L325.11 96.74 L320.79 97.84 L316.35 98.72 L311.56 98.89 L306.84 99.31 L302.19 99.94 L297.64 100.85 L294.16 103.84 L291.67 108.67 L289.80 114.50 L289.10 122.26 L287.14 127.54 L283.81 130.35 L280.81 133.68 L275.23 132.74 L269.81 132.19 L265.81 134.00 L261.87 135.90 L260.51 141.70 L258.56 146.49 L253.91 147.30 L251.93 151.93 L248.34 154.26 L242.27 153.26 L239.17 156.32 L234.95 157.92 L229.67 158.22 L226.54 161.28 L222.69 163.45 L218.75 165.55 L215.23 168.16 L212.46 171.63 L210.08 175.52 L207.52 179.17 L204.96 182.79 L202.27 186.25 L199.23 189.32 L195.83 192.04 L193.03 195.36 L190.05 198.49 L187.82 202.34 L183.98 204.66 L183.95 210.49 L184.53 216.78 L178.29 216.93 L176.01 220.62 L174.61 225.04 L169.91 226.68 L165.90 228.95 L163.57 232.59 L161.57 236.48 L158.77 239.74 L156.92 243.72 L153.63 246.61 L150.37 249.56 L148.11 253.22 L146.40 257.26 L145.80 262.03 L146.51 267.60 L146.53 272.64 L142.73 275.22 L140.59 278.85 L138.84 282.73 L132.28 283.76 L128.17 286.32 L125.68 289.84 L125.42 294.59 L129.38 301.56 L126.28 304.68 L123.94 308.22 L124.27 313.10 L119.89 315.64 L115.22 318.10 L113.51 322.00 L110.72 325.41 L109.64 329.60 L108.91 333.91 L107.20 337.81 L104.96 341.49 L103.42 345.46 L103.02 349.85 L101.82 353.93 L100.87 358.10 L98.50 361.76 L97.10 365.77 L96.12 369.92 L94.70 373.92 L93.47 377.98 L93.31 382.35 L92.53 386.53 L95.40 391.68 L98.37 396.77 L98.50 401.07 L95.48 404.60 L95.15 408.79 L91.81 412.32 L86.52 415.50 L83.30 419.17 L82.97 423.43 L82.70 427.68 L83.24 432.06 L83.96 436.44 L84.04 440.71 L83.14 444.83 L82.27 448.96 L80.03 452.94 L80.69 457.25 L85.28 461.91 L85.80 466.13 L84.92 470.23 L88.48 474.62 L87.39 478.69 L83.68 482.67 L81.46 486.77 L83.77 491.01 L87.65 495.22 L88.92 499.35 L85.17 503.49 L84.82 507.64 L83.24 511.84 L78.00 516.22 L77.98 520.44 L79.49 524.59 L81.53 528.67 L86.63 532.48 L86.61 536.64 L85.91 540.88 L85.45 545.12 L85.32 549.33 L84.90 553.60 L85.07 557.80 L86.81 561.78 L88.70 565.70 L90.63 569.60 L91.68 573.63 L91.99 577.80 L93.59 581.71 L94.10 585.84 L94.96 589.90 L100.85 592.79 L104.51 596.12 L100.46 601.34 L98.55 606.11 L99.69 610.10 L95.64 615.58 L95.17 620.11 L97.64 623.76 L102.71 626.56 L105.07 630.18 L106.62 634.04 L106.55 638.47 L107.10 642.71 L108.03 646.83 L110.02 650.54 L111.77 654.35 L117.75 656.41 L125.44 657.66 L125.53 662.05 L129.57 664.71 L134.39 666.97 L133.09 672.02 L131.93 677.08 L133.76 680.73 L138.59 682.86 L143.03 685.12 L144.70 688.78 L145.60 692.88 L149.52 695.31 L147.90 700.86 L145.57 706.91 L149.66 709.24 L151.06 713.17 L152.32 717.21 L155.54 720.01 L156.62 724.19 L156.52 729.19 L159.21 732.35 L161.46 735.81 L165.27 738.16 L169.20 740.38 L172.32 743.16 L176.23 745.32 L178.60 748.62 L180.27 752.48 L181.51 756.72 L184.39 759.64 L185.53 764.02 L188.54 766.85 L194.92 766.71 L200.16 767.48 L202.28 770.98 L207.82 771.33 L211.01 773.80 L211.00 779.35 L212.32 783.68 L214.52 787.20 L217.03 790.43 L220.09 793.10 L223.19 795.72 L226.58 798.01 L230.24 799.99 L233.90 801.94 L237.14 804.35 L241.77 805.10 L247.70 804.21 L251.22 806.14 L252.36 811.05 L254.46 814.82 L255.44 820.12 L254.84 827.64 L256.37 832.47 L261.66 832.17 L267.69 830.70 L274.93 827.31 L279.67 827.38 L283.99 827.99 L288.66 827.99 L289.78 833.54 L291.82 837.74 L295.43 839.43 L298.59 841.87 L302.89 842.37 L306.45 844.09 L310.06 845.71 L313.24 848.14 L317.13 849.23 L320.81 850.69 L323.63 853.86 L326.58 856.82 L329.80 859.30 L331.96 864.11 L334.42 868.41 L337.85 870.66 L341.34 872.78 L345.41 873.55 L349.83 873.39 L354.86 871.57 L361.21 866.07 L364.93 867.30 L368.19 869.80 L373.14 867.50 L376.05 871.05 L378.44 876.38 L381.68 879.27 L385.48 880.43 L389.02 882.51 L392.71 884.09 L396.73 884.50 L400.23 886.87 L404.28 887.14 L408.65 885.97 L412.88 885.27 L417.45 882.81 L422.56 877.37 L426.40 877.84 L430.20 878.44 L434.17 878.06 L437.26 882.96 L440.71 886.07 L444.44 887.53 L448.22 888.81 L452.66 884.86 L456.79 882.86 L460.31 886.29 L464.40 884.23 L468.30 883.88 L471.75 889.60 L475.77 887.84 L479.66 887.88 L483.49 889.35 L487.43 887.87 L491.29 889.13 L495.17 890.17 L499.07 890.98 L502.97 890.73 L506.89 891.16 L510.82 891.86 L514.75 891.96 L518.62 890.89 L522.52 890.46 L526.41 889.98 L530.23 888.75 L534.05 887.69 L537.91 887.16 L541.48 883.97 L544.79 879.07 L548.24 875.95 L552.11 876.26 L555.65 874.27 L559.36 873.52 L563.80 877.05 L567.93 878.41 L571.75 877.94 L575.56 877.36 L579.27 876.32 L582.91 874.95 L586.68 874.23 L590.78 874.84 L594.66 874.44 L598.25 872.90 L602.34 873.26 L605.05 868.65 L607.38 863.01 L611.96 865.02 L615.22 862.69 L618.33 859.96 L623.36 862.97 L627.44 863.02 L630.62 860.50 L633.10 856.19 L634.68 849.71 L638.35 848.81 L641.76 847.23 L644.56 844.20 L649.83 847.00 L654.74 848.75 L657.38 845.33 L661.29 844.73 L665.05 843.78 L668.14 841.42 L672.26 841.13 L676.55 841.11 L680.33 840.03 L683.41 837.65 L686.89 836.00 L689.88 833.48 L692.73 830.74 L695.65 828.17 L698.40 825.35 L701.80 823.59 L704.60 820.89 L707.43 818.26 L710.41 815.88 L711.53 810.78 L711.94 804.79 L714.29 801.68 L718.39 801.04 L719.93 796.86 L724.24 796.44 L729.68 797.40 L733.07 795.63 L736.24 793.57 L739.39 791.46 L743.59 790.60 L746.16 787.78 L749.50 785.85 L751.86 782.79 L753.91 779.42 L756.61 776.77 L757.56 772.29 L756.77 766.07 L759.55 763.62 L764.01 762.84 L764.47 758.09 L768.71 757.03 L774.37 757.24 L778.00 755.47 L777.59 750.01 L777.19 744.68 L777.27 739.86 L778.62 736.20 L779.67 732.32 L782.14 729.65 L788.67 730.20 L790.68 727.08 L793.68 724.74 L797.80 723.20 L798.31 718.96 L801.46 716.67 L805.08 714.67 L807.16 711.58 L809.09 708.38 L811.97 705.82 L813.25 702.19 L813.59 698.00 L816.15 695.22 L818.03 692.01 L820.30 689.04 L822.32 685.91 L824.46 682.85 L827.02 680.01 L829.48 677.09 L828.01 672.10 L824.18 665.97 L827.76 663.69 L828.69 660.07 L828.03 655.71 L833.42 654.20 L838.07 652.27 L840.76 649.40 L842.96 646.29 L844.44 642.87 L844.52 638.88 L845.70 635.35 L846.37 631.64 L847.74 628.19 L847.81 624.28 L845.96 619.73 L843.22 614.95 L841.12 610.47 L841.81 606.93 L841.80 603.18 L842.40 599.64 L847.21 597.28 L850.18 594.35 L851.86 591.04 L851.33 587.16 L847.34 582.49 L848.67 579.14 L850.51 575.88 L848.93 571.89 L852.08 568.87 L857.31 566.20 L855.95 562.27 L856.85 558.76 L858.10 555.29 L855.96 551.32 L856.68 547.79 L857.92 544.31 L859.16 540.83 L859.02 537.18 L859.53 533.60 L859.80 530.00 L857.57 526.22 L857.18 522.60 L856.65 518.99 L855.86 515.38 L855.92 511.82 L856.30 508.26 L856.80 504.70 L858.05 501.14 L853.52 497.59 L854.25 494.04 L858.10 490.40 L855.49 486.91 L855.89 483.33 L860.72 479.48 L860.31 475.89 L859.35 472.34 L860.90 468.59 L860.85 464.96 L859.25 461.48 L859.21 457.85 L859.15 454.21 L857.60 450.77 L856.15 447.33 L852.17 444.32 L847.53 441.48 L844.70 438.41 L844.77 434.83 L842.72 431.66 L842.11 428.22 L845.83 423.82 L847.05 419.91 L847.16 416.21 L843.14 413.54 L838.42 411.13 L842.12 406.49 L838.67 403.78 L835.15 401.15 L838.80 396.38 L838.56 392.74 L836.08 389.81 L835.62 386.23 L832.52 383.57 L831.21 380.29 L831.95 376.26 L830.76 372.92 L829.42 369.64 L829.08 365.95 L828.16 362.49 L826.18 359.47 L824.41 356.36 L823.11 353.06 L821.34 349.97 L819.37 346.98 L817.73 343.84 L817.39 340.05 L813.52 338.04 L808.31 336.81 L803.85 335.26 L800.96 332.91 L798.25 330.49 L795.12 328.34 L796.22 323.72 L796.96 319.23 L795.86 315.82 L793.61 313.12 L792.09 309.96 L790.12 307.08 L788.34 304.08 L787.32 300.55 L786.05 297.16 L783.76 294.48 L782.75 290.87 L779.33 289.05 L772.09 290.22 L771.07 286.64 L769.68 283.34 L765.48 282.31 L765.58 277.75 L766.68 272.25 L764.94 269.12 L758.99 269.71 L754.00 269.55 L749.35 269.19 L746.09 267.59 L742.24 266.60 L741.24 262.86 L742.18 257.14 L738.67 255.82 L737.04 252.58 L735.89 248.80 L731.69 248.28 L729.49 245.61 L727.95 242.18 L725.67 239.56 L722.71 237.71 L720.18 235.38 L717.49 233.23 L714.37 231.62 L712.13 228.92 L710.45 225.45 L709.29 221.23 L707.50 217.78 L705.50 214.56 L702.57 212.62 L697.24 214.15 L691.24 216.83 L685.69 219.03 L682.21 218.21 L678.57 217.68 L676.04 215.41 L675.29 210.19 L673.82 206.03 L671.49 203.23 L668.81 201.01 L666.27 198.50 L663.02 197.28 L659.99 195.66 L656.36 195.20 L652.61 195.04 L649.18 194.29 L645.93 193.21 L640.83 196.13 L636.61 197.33 L634.83 193.14 L631.15 193.22 L627.67 192.88 L626.13 187.82 L623.76 184.65 L620.44 183.84 L616.02 186.05 L611.49 188.78 L608.55 187.15 L605.51 185.79 L602.26 185.10 L600.41 179.92 L597.79 177.00 L594.66 175.68 L591.48 174.52 L587.69 175.58 L584.51 174.43 L581.54 172.46 L578.33 171.35 L574.99 170.80 L571.94 168.96 L568.52 168.78 L565.45 166.85 L562.09 166.35 L558.65 166.29 L555.36 165.42 L551.83 166.09 L548.23 167.32 L544.46 170.19 L541.10 170.23 L537.81 169.70 L533.67 177.34 L530.50 176.41 L527.58 172.35 L524.15 174.10 L520.93 173.25 L517.86 169.49 L514.62 167.89 L511.30 167.72 L507.97 167.64 L504.65 167.55 L501.32 167.57 L498.00 166.95 L494.66 166.69 L491.34 167.11 L488.01 167.23 L484.86 171.27 L481.81 175.67 L478.64 176.94 L475.39 176.91 L472.31 178.86 L468.82 176.24 L465.14 172.38 L461.69 171.25 L458.33 171.09 L455.60 175.63 L452.89 179.64 L449.29 177.60 L446.44 180.36 L443.42 181.89 L439.36 177.81 L436.08 178.09 L432.95 179.18 L429.54 178.89 L426.74 181.39 L423.55 182.14 L419.98 181.34 L416.32 180.33 L413.25 181.62 L409.85 181.73 L406.73 182.84 L404.15 185.71 L401.34 187.72 L398.56 189.77 L395.77 191.70 L392.81 193.10 L389.82 194.38 L386.97 196.04 L384.18 197.82 L381.36 199.49 L378.45 200.91 L375.62 202.52 L372.52 203.48 L369.27 204.11 L366.21 205.18 L363.69 207.45 L360.36 207.97 L356.66 207.77 L353.37 208.46 L350.89 210.77 L347.07 210.52 L344.55 212.74 L343.49 217.57 L342.30 222.01 L339.85 224.15 L339.25 229.38 L339.05 235.12 L337.24 238.08 L336.22 242.23 L335.59 246.86 L333.54 249.23 L331.28 251.26 L325.44 248.11 L321.78 248.24 L322.37 254.32 L317.33 252.61 L314.36 253.77 L314.90 259.54 L311.95 260.69 L306.03 258.18 L305.56 262.50 L302.25 263.32 L298.76 263.98 L299.12 269.12 L297.39 271.78 L295.37 274.09 L294.14 277.25 L292.52 279.96 L290.80 282.53 L290.68 286.71 L290.16 290.42 L288.06 292.51 L285.74 294.40 L284.17 297.00 L282.29 299.30 L280.15 301.35 L275.40 301.11 L272.43 302.50 L271.99 306.08 L269.33 307.76 L266.80 309.57 L267.26 313.80 L268.30 318.39 L266.85 320.99 L265.29 323.50 L264.10 326.27 L262.55 328.76 L261.45 331.57 L260.62 334.55 L257.13 335.70 L253.46 336.78 L253.45 340.30 L247.71 340.14 L240.54 339.21 L243.58 344.62 L243.17 347.87 L241.90 350.58 L245.04 355.78 L248.34 360.95 L248.88 364.51 L246.26 366.36 L239.15 365.92 L238.10 368.68 L237.18 371.49 L234.69 373.54 L236.10 377.44 L239.61 382.22 L232.70 382.30 L227.51 383.26 L233.01 388.76 L227.67 389.71 L226.18 392.29 L232.89 398.00 L234.79 401.75 L230.61 403.26 L230.39 406.21 L229.83 409.03 L228.18 411.49 L229.73 414.98 L233.46 419.07 L234.95 422.41 L234.60 425.18 L234.14 427.91 L233.63 430.63 L233.08 433.33 L222.67 433.67 L220.05 435.99 L222.11 439.38 L217.57 441.34 L217.72 444.31 L220.63 447.78 L223.19 451.12 L224.23 454.14 L224.07 456.95 L223.58 459.70 L216.75 461.59 L216.37 464.42 L215.52 467.20 L209.32 469.43 L210.87 472.51 L214.57 475.74 L207.63 478.10 L207.06 481.00 L214.22 484.33 L211.18 487.06 L212.65 490.00 L219.00 493.04 L223.45 495.91 L224.93 498.69 L218.81 501.47 L215.81 504.33 L218.26 507.11 L216.18 510.00 L216.43 512.83 L221.26 515.41 L221.24 518.21 L213.65 521.58 L216.38 524.23 L217.24 527.01 L213.88 530.22 L219.58 532.45 L221.68 535.04 L222.40 537.77 L224.93 540.23 L224.16 543.16 L225.12 545.83 L229.97 547.81 L234.98 549.66 L237.65 551.88 L238.46 554.44 L239.35 556.98 L240.11 559.54 L241.01 562.07 L237.91 565.59 L228.35 570.88 L229.75 573.41 L230.51 576.10 L228.42 579.63 L233.46 581.06 L241.37 581.49 L246.31 582.73 L248.86 584.68 L250.47 586.93 L251.65 589.31 L252.78 591.71 L253.87 594.12 L252.19 597.61 L247.78 602.27 L248.39 604.96 L246.39 608.79 L241.37 614.02 L245.03 615.46 L248.08 617.13 L250.43 619.09 L254.87 619.99 L261.06 619.94 L265.37 620.73 L268.27 622.18 L257.79 630.82 L257.54 634.10 L262.33 634.58 L259.63 639.30 L262.54 640.80 L270.28 639.34 L270.10 642.61 L265.72 648.59 L271.74 647.99 L272.08 651.03 L271.09 655.01 L278.66 653.13 L284.71 652.15 L282.93 656.69 L284.49 658.86 L287.02 660.31 L287.19 663.54 L288.97 665.56 L293.46 665.39 L296.03 666.71 L297.42 668.99 L298.80 671.27 L300.50 673.29 L302.14 675.37 L298.64 682.10 L297.82 686.55 L302.18 686.22 L301.37 690.77 L300.55 695.43 L302.51 697.42 L304.87 699.01 L304.51 703.40 L303.45 708.64 L303.31 713.02 L306.05 714.31 L307.25 717.31 L308.96 719.77 L311.00 721.87 L314.16 722.63 L317.07 723.65 L320.02 724.59 L324.91 723.02 L330.08 720.96 L331.31 723.95 L332.82 726.63 L336.40 726.47 L336.10 731.74 L336.52 736.12 L339.03 737.53 L341.51 738.98 L346.75 736.19 L350.71 735.20 L352.15 738.17 L355.76 737.62 L358.22 738.92 L358.31 744.30 L360.79 745.65 L362.59 748.24 L364.30 751.04 L367.60 750.88 L369.84 752.74 L372.20 754.38 L374.87 755.39 L377.33 756.83 L380.43 756.93 L383.23 757.61 L385.72 758.97 L387.28 762.53 L389.34 764.99 L391.90 766.33 L394.11 768.55 L397.13 768.75 L400.79 767.14 L404.57 765.07 L408.94 761.09 L413.11 757.39 L415.17 759.84 L417.86 760.40 L420.51 761.06 L421.81 766.30 L423.72 769.77 L426.34 770.82 L429.13 771.23 L431.93 771.59 L434.85 771.43 L437.54 772.17 L440.23 772.93 L442.87 773.97 L445.68 774.21 L448.28 775.49 L451.66 772.48 L455.15 768.42 L457.30 772.28 L460.28 770.92 L463.34 768.73 L465.56 772.79 L467.97 775.94 L470.90 774.64 L474.01 771.08 L477.07 767.36 L479.76 767.33 L482.45 767.30 L485.18 766.41 L487.67 770.46 L490.21 775.11 L492.98 774.31 L495.71 775.74 L498.46 776.57 L501.22 774.96 L503.99 776.32 L506.78 777.52 L509.61 779.10 L512.44 779.83 L515.29 780.70 L518.05 779.72 L520.77 778.62 L523.37 776.10 L525.97 774.23 L528.50 771.93 L531.00 769.77 L533.59 768.58 L536.27 768.18 L538.56 765.16 L540.64 761.05 L543.06 759.49 L545.95 760.76 L548.37 759.30 L550.84 758.19 L554.65 763.62 L557.88 765.79 L560.35 764.39 L563.69 766.68 L566.51 766.65 L568.58 763.71 L571.11 762.63 L573.40 760.72 L575.11 756.91 L577.30 754.90 L579.91 754.34 L580.70 748.13 L582.94 746.62 L586.53 749.02 L588.20 745.86 L590.56 744.72 L594.04 746.51 L597.23 747.44 L598.78 744.16 L599.69 739.51 L601.19 736.41 L603.97 736.35 L605.51 733.48 L607.59 731.88 L612.35 735.92 L614.47 734.32 L616.61 732.78 L620.14 733.95 L621.29 730.48 L623.93 729.89 L627.13 730.29 L629.18 728.57 L631.41 727.17 L634.06 726.50 L636.01 724.65 L637.56 722.15 L639.72 720.68 L642.60 720.32 L645.72 720.29 L648.10 719.09 L651.36 719.15 L654.51 718.99 L656.56 717.26 L657.52 714.05 L656.00 707.60 L658.37 706.42 L659.93 704.19 L659.70 699.76 L663.80 700.74 L668.35 702.15 L671.32 701.58 L674.31 700.99 L677.13 700.17 L679.21 698.48 L681.84 697.39 L683.83 695.58 L685.31 693.25 L687.14 691.30 L686.82 687.18 L684.66 681.35 L684.29 677.41 L686.45 675.93 L688.53 674.36 L689.84 672.08 L695.46 673.65 L700.10 674.22 L701.74 672.13 L701.54 668.51 L698.55 662.66 L698.80 659.57 L701.97 658.82 L701.64 655.33 L704.62 654.39 L708.87 654.33 L710.25 652.13 L714.04 651.64 L717.18 650.62 L718.02 648.00 L722.12 647.56 L724.58 645.97 L724.42 642.70 L723.86 639.22 L725.45 637.10 L725.15 633.85 L725.19 630.85 L724.95 627.71 L725.22 624.91 L724.88 621.80 L724.19 618.54 L724.80 616.00 L726.83 614.19 L728.84 612.34 L727.17 608.72 L726.30 605.53 L732.03 605.40 L732.20 602.68 L732.43 600.02 L738.44 599.79 L741.32 598.18 L740.28 594.96 L739.03 591.71 L738.62 588.83 L737.90 585.86 L737.83 583.16 L738.56 580.75 L739.70 578.47 L740.72 576.15 L742.02 573.90 L737.75 570.01 L738.11 567.54 L740.18 565.53 L737.57 562.28 L737.72 559.78 L742.37 558.38 L743.03 555.97 L743.36 553.49 L740.94 550.44 L736.27 547.00 L738.61 544.99 L738.40 542.49 L738.50 540.05 L742.72 538.27 L744.48 536.04 L745.80 533.73 L747.80 531.48 L745.41 528.69 L747.72 526.45 L750.44 524.21 L750.52 521.69 L752.22 519.30 L753.61 516.86 L754.09 514.34 L753.89 511.78 L752.30 509.18 L752.32 506.66 L750.96 504.11 L749.12 501.59 L748.84 499.10 L748.94 496.61 L746.99 494.16 L743.20 491.82 L739.62 489.54 L739.27 487.16 L739.69 484.73 L738.89 482.38 L742.16 479.70 L746.46 476.86 L746.75 474.34 L745.68 471.96 L743.70 469.72 L742.25 467.43 L740.94 465.15 L740.65 462.74 L740.80 460.24 L739.95 457.91 L739.87 455.45 L737.08 453.51 L731.61 452.17 L730.90 449.91 L730.31 447.62 L726.99 445.98 L728.85 443.12 L732.12 439.83 L732.54 437.23 L729.91 435.47 L726.21 434.06 L724.17 432.22 L725.09 429.47 L722.48 427.84 L722.59 425.34 L727.17 421.27 L724.67 419.61 L723.71 417.42 L724.67 414.50 L721.75 413.06 L720.85 410.86 L721.16 408.15 L720.25 405.94 L718.89 403.92 L718.15 401.63 L716.18 399.90 L714.19 398.21 L713.09 396.11 L712.72 393.65 L712.54 391.07 L713.93 387.64 L715.12 384.25 L715.31 381.36 L710.78 381.09 L705.42 381.39 L700.51 381.54 L695.72 381.71 L691.58 381.58 L689.48 380.24 L691.61 376.20 L693.22 372.40 L692.57 370.05 L693.44 366.63 L694.91 362.72 L692.85 361.26 L691.95 358.98 L692.38 355.68 L688.18 355.86 L685.15 355.22 L684.21 352.97 L678.78 354.35 L674.20 355.16 L675.67 350.94 L673.90 349.43 L671.71 348.29 L673.45 343.63 L674.30 339.68 L671.63 338.94 L667.09 340.03 L661.80 341.96 L659.27 341.29 L657.03 340.37 L653.92 340.37 L655.82 335.12 L656.09 331.49 L653.82 330.57 L653.86 327.10 L651.75 325.99 L650.54 323.86 L649.59 321.38 L647.87 319.80 L646.04 318.35 L643.97 317.22 L641.30 316.87 L639.06 315.99 L637.30 314.50 L635.27 313.36 L633.56 311.80 L632.04 309.94 L629.21 309.98 L626.71 309.59 L625.20 307.72 L622.10 308.32 L617.07 312.09 L614.53 312.00 L613.65 309.18 L610.30 310.51 L608.74 308.83 L608.39 304.92 L607.70 301.51 L605.79 300.30 L603.80 299.23 L601.94 297.91 L600.07 296.57 L598.10 295.43 L596.26 294.01 L594.25 292.94 L592.20 291.95 L588.98 293.67 L585.21 296.86 L582.65 297.31 L581.22 294.97 L578.48 295.94 L577.18 293.17 L576.18 289.46 L574.66 287.03 L572.45 286.50 L568.75 290.57 L565.53 293.41 L564.29 290.06 L561.70 291.09 L559.19 291.95 L558.38 286.72 L556.54 285.03 L554.55 283.80 L552.64 282.22 L549.70 285.00 L547.87 283.07 L546.01 281.11 L543.98 279.86 L541.96 278.43 L540.04 276.36 L538.14 273.98 L535.79 274.13 L533.46 274.31 L530.92 275.98 L528.27 278.88 L525.74 281.32 L523.25 283.87 L520.97 284.88 L518.76 285.31 L516.43 287.55 L514.02 291.60 L511.99 290.44 L509.86 291.07 L507.70 293.05 L505.71 289.99 L503.65 287.55 L501.53 286.34 L499.39 285.63 L497.22 283.63 L495.08 284.35 L492.93 284.80 L490.72 283.37 L488.60 284.49 L486.51 285.64 L484.39 286.02 L482.48 288.97 L480.77 293.45 L478.45 291.15 L476.37 291.43 L474.34 292.12 L471.65 287.80 L469.12 285.25 L466.81 284.51 L465.13 287.77 L463.89 293.17 L461.97 294.29 L459.56 292.92 L458.17 296.62 L455.68 294.93 L452.94 292.30 L451.24 294.37 L449.27 295.23 L447.32 296.09 L445.73 298.31 L443.09 296.62 L440.57 295.51 L438.37 295.59 L436.14 295.61 L433.99 295.92 L432.43 298.01 L430.75 299.69 L428.70 300.23 L426.97 301.68 L425.22 303.04 L423.07 303.30 L421.19 304.31 L419.25 305.13 L418.12 307.85 L417.88 312.51 L417.04 315.63 L415.10 316.26 L413.97 318.60 L411.95 319.04 L408.35 316.33 L405.87 315.99 L404.04 316.95 L402.11 317.73 L400.24 318.62 L398.51 319.76 L396.56 320.51 L394.53 321.15 L393.26 323.07 L391.18 323.63 L389.75 325.25 L390.52 330.26 L390.05 333.22 L388.01 333.76 L387.52 336.58 L385.51 337.17 L381.48 334.98 L379.19 335.29 L377.80 336.84 L378.41 340.99 L378.73 344.65 L376.98 345.63 L376.13 347.70 L374.56 348.89 L370.55 347.19 L367.70 346.96 L365.54 347.57 L362.29 347.00 L362.00 349.72 L360.30 350.89 L358.00 351.44 L356.37 352.71 L355.33 354.58 L353.86 356.02 L352.78 357.83 L351.99 359.90 L350.99 361.75 L350.35 363.91 L349.47 365.84 L348.69 367.84 L348.04 369.93 L346.74 371.44 L345.81 373.27 L346.37 376.28 L348.09 380.16 L345.67 380.73 L343.44 381.49 L342.94 383.56 L339.37 383.38 L334.60 382.42 L332.35 383.34 L332.25 385.74 L331.06 387.38 L331.02 389.78 L330.59 391.90 L329.19 393.39 L329.21 395.77 L328.48 397.66 L327.63 399.48 L328.77 402.42 L333.02 407.04 L331.49 408.39 L329.92 409.73 L331.98 412.96 L328.84 413.49 L325.43 413.95 L323.62 415.24 L324.26 417.70 L327.99 421.54 L328.32 423.75 L325.40 424.54 L326.54 427.08 L323.90 428.03 L318.50 427.93 L319.08 430.25 L317.28 431.65 L316.23 433.34 L318.04 436.05 L317.11 437.77 L315.48 439.27 L314.54 441.01 L312.99 442.57 L311.47 444.16 L309.28 445.58 L309.27 447.63 L309.07 449.63 L308.44 451.50 L310.37 454.00 L311.38 456.24 L312.02 458.37 L312.27 460.39 L313.52 462.59 L316.38 465.07 L319.06 467.46 L316.43 468.87 L317.20 470.88 L317.71 472.83 L313.25 474.07 L310.81 475.66 L310.18 477.50 L310.37 479.45 L309.64 481.29 L309.47 483.20 L309.22 485.10 L308.25 486.95 L307.60 488.84 L307.99 490.78 L309.38 492.76 L313.25 494.78 L317.57 496.72 L317.03 498.54 L318.66 500.37 L319.28 502.18 L315.38 504.07 L311.96 506.03 L311.64 507.92 L314.34 509.67 L319.23 511.23 L317.03 513.20 L317.74 514.99 L320.70 516.55 L317.33 518.70 L314.07 520.92 L316.10 522.55 L315.52 524.50 L314.83 526.48 L316.27 528.15 L315.21 530.21 L313.82 532.35 L314.17 534.21 L315.34 535.90 L316.55 537.58 L317.59 539.27 L319.40 540.77 L320.48 542.42 L320.65 544.28 L320.46 546.23 L317.67 548.90 L316.82 551.10 L317.39 552.91 L320.01 554.11 L324.37 554.72 L328.83 555.21 L330.25 556.64 L335.90 556.58 L334.40 558.96 L331.93 561.74 L331.50 563.81 L331.51 565.75 L331.19 567.82 L331.30 569.75 L332.14 571.37 L331.74 573.54 L332.26 575.32 L333.60 576.72 L334.52 578.32 L338.58 578.38 L344.42 577.48 L346.81 578.21 L346.54 580.29 L349.44 580.70 L348.78 583.01 L346.11 586.49 L345.30 588.99 L346.17 590.55 L350.77 589.87 L353.66 590.13 L352.84 592.68 L355.48 593.05 L356.47 594.45 L353.22 598.71 L354.76 599.80 L353.69 602.70 L352.64 605.65 L355.51 605.80 L354.74 608.61 L355.07 610.64 L356.04 612.20 L357.53 613.35 L359.51 614.08 L360.94 615.25 L363.25 615.66 L365.18 616.36 L366.99 617.14 L369.19 617.54 L371.08 618.20 L372.25 619.50 L373.65 620.58 L374.73 621.97 L379.01 620.18 L383.25 618.31 L383.22 620.73 L384.63 621.69 L387.13 621.46 L385.62 625.58 L384.73 629.12 L385.07 631.37 L386.45 632.43 L387.86 633.48 L389.00 634.83 L390.66 635.56 L391.54 637.25 L392.85 638.42 L394.53 639.10 L396.18 639.80 L399.78 637.82 L404.40 634.27 L405.59 635.43 L407.80 635.13 L409.80 635.08 L409.29 638.82 L409.14 642.14 L410.76 642.74 L413.30 641.80 L416.88 639.05 L418.26 639.91 L419.33 641.30 L421.35 641.03 L421.44 644.24 L421.23 648.13 L423.16 648.04 L424.56 648.97 L425.84 650.16 L428.58 648.31 L429.85 649.49 L430.37 652.33 L431.88 653.05 L432.87 654.98 L434.09 656.44 L435.43 657.65 L436.96 658.41 L438.09 660.21 L439.94 660.17 L441.97 659.57 L443.59 660.10 L445.59 659.48 L447.94 657.74 L450.40 655.52 L453.12 652.21 L455.18 650.89 L456.67 651.39 L458.67 650.05 L459.97 651.25 L460.59 655.13 L461.48 658.25 L462.97 659.03 L464.33 660.46 L465.80 661.42 L467.82 659.75 L469.45 659.92 L471.19 659.45 L472.94 658.84 L474.69 658.06 L476.20 658.78 L478.37 654.89 L480.18 653.07 L481.44 655.57 L483.22 653.67 L484.77 653.70 L486.03 656.99 L487.41 659.48 L489.07 658.64 L490.85 655.58 L492.52 653.29 L493.97 655.39 L495.54 655.00 L497.12 653.42 L498.61 658.22 L500.20 659.64 L501.77 657.66 L503.37 658.56 L504.87 655.97 L506.45 656.34 L508.07 657.43 L509.71 658.32 L511.30 658.40 L512.89 658.33 L514.41 657.50 L515.78 655.31 L517.39 655.70 L518.87 654.91 L520.35 654.16 L521.93 654.22 L523.49 654.12 L524.95 653.39 L526.48 653.13 L527.74 651.37 L528.25 645.93 L529.78 646.00 L531.33 646.12 L532.23 643.28 L534.07 644.69 L536.03 646.46 L537.55 646.30 L538.82 645.20 L540.30 644.93 L541.74 644.50 L543.22 644.18 L544.78 644.12 L546.32 643.99 L547.72 643.39 L549.50 643.93 L550.23 641.43 L549.79 635.88 L551.20 635.50 L552.72 635.43 L553.41 633.24 L556.06 635.89 L558.39 637.63 L560.93 639.70 L561.74 637.80 L561.30 633.22 L561.85 630.97 L563.66 631.36 L564.09 628.95 L565.81 629.16 L569.00 632.14 L569.90 630.65 L571.87 631.16 L574.10 632.09 L573.68 628.32 L575.16 627.92 L576.70 627.59 L578.07 626.99 L579.20 625.98 L580.12 624.66 L581.76 624.45 L583.12 623.81 L583.63 621.92 L584.78 620.98 L586.68 621.09 L586.76 618.68 L587.74 617.53 L589.39 617.29 L590.31 616.06 L589.47 612.65 L589.85 610.83 L590.89 609.85 L590.46 607.13 L591.00 605.61 L593.62 606.47 L592.93 603.59 L593.85 602.53 L594.28 600.96 L593.13 597.75 L592.12 594.77 L593.37 594.15 L593.96 592.87 L594.06 591.13 L596.25 591.40 L598.26 591.46 L599.79 591.04 L601.07 590.37 L603.64 590.82 L603.57 588.94 L604.76 588.16 L603.22 585.12 L601.39 581.92 L600.78 579.77 L599.31 577.00 L598.38 574.72 L598.39 573.19 L599.31 572.34 L600.12 571.41 L600.14 569.92 L600.30 568.55 L600.10 566.96 L599.65 565.23 L599.52 563.73 L599.37 562.24 L599.47 560.93 L599.77 559.75 L599.91 558.48 L600.24 557.33 L600.39 556.10 L600.31 554.74 L600.34 553.46 L600.34 552.18 L600.28 550.88 L600.61 549.79 L600.94 548.71 L601.26 547.62 L601.78 546.62 L602.44 545.69 L602.75 544.61 L602.81 543.42 L602.89 542.24 L602.80 541.01 L602.46 539.69 L602.21 538.42 L601.92 537.15 L601.96 536.02 L602.06 534.91 L601.89 533.72 L601.91 532.59 L601.99 531.50 L601.69 530.30 L601.34 529.09 L601.11 527.94 L601.05 526.83 L600.99 525.74 L600.89 524.64 L600.92 523.58 L601.01 522.54 L601.00 521.48 L600.97 520.42 L600.95 519.37 L600.92 518.32 L600.84 517.26 L600.68 516.20 L600.50 515.14 L600.33 514.09 L600.14 513.05 L599.94 512.01 L599.79 510.98 L599.65 509.95 L599.50 508.93 L599.36 507.92 L599.22 506.91 L599.07 505.91 L598.91 504.91 L598.75 503.91 L598.59 502.91 L598.43 501.93 L598.26 500.94 Z"/>
  <svg class="pausebutton" id="pausebutton">
    <circle cx="500" cy="500" id="pausestart" class="pausestart" r="52.65"/>
    <rect height="50.02" width="10.00" y="473.68" rx="2.00" ry="2.00" x="479.99" class="pausesymbol"/>
    <rect height="50.02" width="10.00" y="473.68" rx="2.00" ry="2.00" x="510.00" class="pausesymbol"/>
    <polygon points="530.01,500 479.99,530.01 479.99,469.99" class="playsymbol"/>
  </svg>
  <polygon id="playback-head" class="playback-head" points="941.65,500 921.65,540 961.65,540"/>
</svg>