<?xml-stylesheet href="../../style/waveformjs.css" type="text/css"?>
<svg xmlns="http://www.w3.org/2000/svg" xmlns:xlink="http://www.w3.org/1999/xlink" width="100%" height="100%" viewBox="0 0 1000 1000">
  <path class="svg-wave" id="sp" d="M597.86 500.00 L597.99 500.98 L598.11 501.96 L598.22 502.95 L598.32 503.93 L598.37 504.92 L598.40 505.91 L598.53 506.91 L598.55 507.90 L598.53 508.89 L598.64 509.90 L598.64 510.89 L598.68 511.90 L598.72 512.91 L598.70 513.91 L598.74 514.92 L598.71 515.93 L598.68 516.94 L598.59 517.94 L598.51 518.95 L598.39 519.95 L598.14 520.92 L597.87 521.89 L597.36 522.80 L596.52 523.62 L595.88 524.48 L595.64 525.44 L594.99 526.29 L594.76 527.25 L594.07 528.07 L592.86 528.73 L591.24 529.23 L588.35 529.28 L588.27 530.23 L587.12 530.82 L583.28 530.40 L584.40 531.77 L583.06 532.22 L581.75 532.65 L582.11 533.75 L580.49 534.03 L580.23 534.87 L581.40 536.35 L580.66 536.99 L579.53 537.44 L579.60 538.45 L577.91 538.60 L573.39 537.28 L570.85 536.88 L567.83 536.18 L564.24 535.09 L564.20 535.91 L565.00 537.22 L565.55 538.41 L563.00 537.76 L563.84 539.14 L565.88 541.30 L562.59 540.12 L562.92 541.22 L567.20 545.00 L568.23 546.68 L565.76 545.96 L566.40 547.40 L565.90 548.05 L562.94 546.86 L563.41 548.20 L564.70 550.22 L566.16 552.42 L563.72 551.53 L564.33 553.09 L564.79 554.57 L562.83 554.00 L562.93 555.20 L560.51 554.15 L561.31 555.98 L561.79 557.57 L558.49 555.59 L559.99 558.17 L559.20 558.57 L557.58 558.11 L560.11 561.90 L559.41 562.41 L555.24 559.20 L556.08 561.32 L556.60 563.15 L554.24 561.74 L554.07 562.80 L555.45 565.73 L555.29 566.88 L553.11 565.58 L553.58 567.52 L552.53 567.57 L550.02 565.69 L549.63 566.54 L551.64 570.70 L551.01 571.33 L549.04 570.05 L549.92 572.84 L548.83 572.80 L547.51 572.39 L547.84 574.51 L545.58 572.57 L545.11 573.44 L545.00 574.93 L541.99 571.53 L540.71 570.96 L540.26 571.84 L540.37 573.76 L540.94 576.60 L540.12 576.91 L538.85 576.32 L538.77 578.10 L538.13 578.77 L536.47 577.30 L536.88 580.25 L537.87 584.62 L536.81 584.51 L535.56 583.93 L535.08 585.15 L533.30 583.18 L532.19 582.80 L531.86 584.44 L531.91 587.20 L531.07 587.61 L529.89 587.03 L529.58 589.02 L528.32 588.16 L527.47 588.56 L526.66 589.07 L525.29 587.67 L524.97 589.93 L523.37 587.55 L521.80 585.09 L521.05 585.71 L520.09 585.49 L519.55 587.09 L519.19 589.67 L518.26 589.70 L517.49 590.53 L517.11 593.58 L515.68 590.89 L514.78 591.13 L514.34 594.35 L513.60 595.97 L512.47 594.80 L511.59 595.46 L510.75 596.61 L509.42 593.18 L508.42 592.52 L507.69 594.94 L506.87 596.90 L505.80 595.32 L504.88 596.00 L504.01 598.17 L502.97 596.51 L502.05 598.44 L501.05 597.61 L500.08 597.07 L499.09 598.51 L498.18 594.74 L497.31 592.22 L496.35 593.02 L495.47 592.02 L494.52 592.46 L493.45 594.50 L492.67 592.33 L491.74 592.38 L490.46 595.88 L489.70 593.98 L488.73 594.09 L487.11 599.18 L485.86 600.90 L485.24 598.18 L484.09 599.12 L483.00 599.50 L482.63 595.86 L481.63 595.95 L480.25 597.81 L478.62 600.72 L478.01 598.73 L476.72 599.77 L475.16 601.84 L474.83 598.91 L473.65 599.36 L473.00 597.85 L471.90 598.03 L470.30 599.80 L470.38 596.03 L468.34 599.09 L466.96 599.96 L466.81 597.16 L464.50 600.60 L463.12 601.29 L464.24 595.24 L462.70 596.39 L460.83 598.29 L461.16 594.71 L459.88 595.10 L457.82 597.27 L456.52 597.57 L456.65 594.72 L455.28 595.19 L454.13 595.15 L454.84 591.32 L453.83 591.06 L451.47 593.39 L450.13 593.68 L450.15 591.43 L448.50 592.24 L447.06 592.63 L446.72 591.11 L445.18 591.63 L444.68 590.39 L443.97 589.54 L442.60 589.71 L444.04 585.56 L443.84 584.02 L442.73 583.85 L441.52 583.81 L439.23 585.27 L437.56 585.79 L436.90 584.90 L434.65 586.11 L433.34 586.03 L433.67 583.86 L431.53 584.81 L428.76 586.46 L428.01 585.61 L428.31 583.55 L426.64 583.77 L426.84 581.88 L427.12 579.94 L425.31 580.30 L422.50 581.67 L420.78 581.82 L420.97 580.01 L419.25 580.14 L418.32 579.46 L417.92 578.26 L417.15 577.43 L417.58 575.50 L415.87 575.53 L415.69 574.18 L417.77 570.91 L417.28 569.90 L416.76 568.92 L415.07 568.90 L412.45 569.59 L411.05 569.26 L410.88 567.98 L408.55 568.31 L408.56 566.89 L408.61 565.47 L405.72 566.12 L403.36 566.34 L403.20 565.03 L403.04 563.75 L401.66 563.25 L403.04 561.01 L404.09 559.01 L401.78 559.09 L398.53 559.67 L398.87 558.12 L398.85 556.79 L396.00 557.03 L396.53 555.40 L394.89 554.93 L393.47 554.33 L393.56 552.95 L389.44 553.62 L389.41 552.28 L390.17 550.58 L388.11 550.18 L387.38 549.16 L386.74 548.10 L387.51 546.45 L387.10 545.30 L386.17 544.36 L386.26 543.02 L385.35 542.06 L384.20 541.17 L382.96 540.30 L381.98 539.32 L381.32 538.23 L380.49 537.18 L380.19 535.96 L379.36 534.90 L378.80 533.75 L378.08 532.64 L378.02 531.35 L378.68 529.89 L379.08 528.52 L378.28 527.42 L379.02 525.99 L378.84 524.76 L377.06 523.85 L379.02 522.21 L378.86 520.99 L379.05 519.72 L379.76 518.37 L376.98 517.54 L377.04 516.27 L373.97 515.40 L371.87 514.36 L375.06 512.74 L373.71 511.60 L373.18 510.37 L376.59 508.85 L376.41 507.62 L375.86 506.41 L374.46 505.22 L372.87 504.02 L372.16 502.76 L371.75 501.49 L371.63 500.20 L371.39 498.92 L371.52 497.63 L373.41 496.40 L374.07 495.16 L373.69 493.88 L375.66 492.73 L372.89 491.29 L372.57 489.99 L372.67 488.71 L371.69 487.33 L369.93 485.84 L371.93 484.76 L372.22 483.50 L372.07 482.18 L373.08 481.02 L373.27 479.76 L373.60 478.51 L373.26 477.15 L371.33 475.47 L371.37 474.14 L369.73 472.45 L368.67 470.85 L368.84 469.51 L367.90 467.90 L367.93 466.50 L368.35 465.20 L367.77 463.63 L367.81 462.22 L367.92 460.82 L367.41 459.21 L367.79 457.88 L370.26 457.23 L370.79 455.97 L368.83 453.84 L371.79 453.43 L370.73 451.58 L370.27 449.92 L372.34 449.25 L371.52 447.43 L376.11 447.85 L378.75 447.53 L376.44 445.06 L377.44 444.03 L379.21 443.37 L379.85 442.20 L381.63 441.59 L381.96 440.28 L382.87 439.26 L382.62 437.63 L382.70 436.16 L380.87 433.61 L379.84 431.46 L380.57 430.28 L381.18 429.04 L382.05 427.95 L383.31 427.10 L384.37 426.15 L385.48 425.23 L387.16 424.71 L387.88 423.56 L388.80 422.54 L389.25 421.20 L388.51 418.98 L389.12 417.72 L390.29 416.88 L389.51 414.53 L388.69 412.10 L390.42 411.68 L390.67 410.06 L390.31 407.91 L391.38 406.93 L392.92 406.38 L393.96 405.41 L394.47 403.95 L395.58 403.03 L396.59 402.02 L397.46 400.89 L398.02 399.44 L398.79 398.18 L399.72 397.07 L400.42 395.73 L401.50 394.77 L401.87 393.04 L402.84 391.95 L404.18 391.27 L405.01 390.02 L407.37 390.56 L410.67 392.29 L409.97 389.21 L411.81 389.23 L413.90 389.61 L412.64 385.66 L415.63 387.24 L415.86 385.17 L417.64 385.22 L421.09 387.67 L421.50 385.85 L423.34 386.09 L423.30 383.55 L423.18 380.78 L425.91 382.45 L426.94 381.47 L426.34 377.78 L428.03 377.84 L429.37 377.32 L429.81 375.22 L429.24 371.20 L429.85 369.23 L431.03 368.28 L432.54 367.98 L433.84 367.27 L434.94 366.12 L435.81 364.48 L437.45 364.47 L438.36 362.86 L439.78 362.35 L441.86 363.39 L441.95 359.73 L443.50 359.51 L445.75 361.12 L446.99 360.18 L447.21 356.45 L449.17 357.40 L450.71 357.22 L451.42 354.58 L452.82 353.93 L454.22 353.25 L455.94 353.62 L457.41 353.20 L458.67 352.05 L460.23 351.94 L461.51 350.73 L462.81 349.60 L464.32 349.25 L465.69 348.27 L467.10 347.41 L468.63 347.12 L470.03 346.17 L471.51 345.54 L473.02 345.04 L474.49 344.31 L476.29 345.63 L478.47 349.85 L479.89 348.96 L481.13 346.60 L483.13 350.55 L484.45 348.71 L485.89 347.71 L487.45 348.05 L488.80 345.60 L490.67 350.64 L492.06 348.60 L493.43 345.15 L494.99 345.41 L496.54 345.33 L498.06 343.59 L499.63 345.67 L501.18 345.25 L502.73 344.79 L504.27 345.46 L505.83 345.08 L507.44 343.84 L509.11 342.02 L510.66 342.61 L512.28 342.13 L513.81 342.77 L515.34 343.37 L516.82 344.28 L518.28 345.30 L519.62 347.13 L521.03 348.16 L522.59 348.05 L524.27 347.28 L526.13 345.58 L527.83 344.94 L529.28 345.78 L531.41 343.14 L533.18 342.48 L534.32 344.80 L535.63 346.17 L537.41 345.54 L538.92 346.03 L540.18 347.50 L541.59 348.32 L543.58 347.08 L545.08 347.61 L546.92 347.04 L549.32 344.76 L551.02 344.79 L551.74 347.76 L554.21 345.58 L556.79 343.27 L557.24 346.82 L559.32 345.96 L561.74 344.34 L562.99 345.70 L564.06 347.46 L565.43 348.46 L567.02 348.96 L568.43 349.86 L569.97 350.45 L572.24 349.53 L573.58 350.60 L574.34 352.79 L575.93 353.29 L577.53 353.81 L578.06 356.29 L581.31 353.82 L583.24 353.82 L584.67 354.70 L586.68 354.61 L587.85 355.94 L589.12 357.10 L590.28 358.41 L591.71 359.29 L594.00 358.88 L595.15 360.21 L594.89 363.54 L596.81 363.70 L598.32 364.47 L597.89 367.87 L599.90 367.93 L601.06 369.14 L602.20 370.37 L603.77 371.04 L604.81 372.39 L606.53 372.91 L607.78 373.99 L609.78 374.23 L612.05 374.19 L613.73 374.85 L614.28 376.74 L619.11 374.08 L620.49 375.15 L621.23 376.87 L624.88 375.67 L626.55 376.51 L627.82 377.74 L628.96 379.09 L630.41 380.16 L631.84 381.26 L632.91 382.68 L634.49 383.65 L636.19 384.55 L635.61 387.35 L635.35 389.84 L638.11 389.87 L637.05 392.93 L637.12 395.07 L639.36 395.55 L639.57 397.55 L639.76 399.55 L640.31 401.26 L640.82 403.00 L641.48 404.62 L642.42 406.04 L644.74 406.58 L646.83 407.29 L647.05 409.20 L648.47 410.36 L652.36 410.08 L652.19 412.21 L653.04 413.75 L656.60 413.80 L657.97 415.09 L659.55 416.29 L660.94 417.60 L661.71 419.24 L662.70 420.77 L663.18 422.54 L664.06 424.13 L665.42 425.49 L664.20 428.01 L665.10 429.58 L665.78 431.24 L663.89 433.93 L663.76 435.88 L664.34 437.54 L663.73 439.64 L664.88 441.08 L665.71 442.65 L665.59 444.54 L666.48 446.09 L667.36 447.64 L668.91 449.01 L670.84 450.29 L671.43 451.97 L675.78 452.64 L681.52 453.03 L681.44 454.99 L685.02 456.06 L689.75 456.93 L690.63 458.73 L691.81 460.48 L692.16 462.41 L692.82 464.28 L693.28 466.19 L693.78 468.09 L694.14 470.03 L694.03 472.03 L693.29 474.10 L692.09 476.22 L692.64 478.10 L691.89 480.13 L691.85 482.07 L693.62 483.86 L694.29 485.76 L696.15 487.59 L697.06 489.51 L697.93 491.45 L699.99 493.36 L700.40 495.35 L698.98 497.38 L695.61 499.38 L693.48 501.32 L693.85 503.26 L692.56 505.16 L692.82 507.10 L698.51 509.30 L699.36 511.34 L700.78 513.44 L702.08 515.55 L702.03 517.58 L702.41 519.66 L702.37 521.70 L702.21 523.73 L702.00 525.76 L700.81 527.65 L699.23 529.46 L698.14 531.33 L698.07 533.35 L696.69 535.14 L696.49 537.14 L696.89 539.26 L697.20 541.38 L697.63 543.53 L698.61 545.84 L698.46 547.90 L699.10 550.16 L699.82 552.48 L697.28 553.92 L692.26 554.62 L690.71 556.25 L691.72 558.64 L687.45 559.39 L689.28 562.06 L693.66 565.65 L692.62 567.45 L693.02 569.76 L693.36 572.08 L692.89 574.11 L692.95 576.36 L691.94 578.19 L692.62 580.72 L692.04 582.74 L690.39 584.30 L688.37 585.67 L686.34 587.00 L685.19 588.73 L682.73 589.81 L681.07 591.25 L679.47 592.71 L678.26 594.36 L676.55 595.72 L675.77 597.58 L675.36 599.66 L675.21 601.91 L675.45 604.41 L674.11 605.99 L670.11 605.90 L668.35 607.15 L667.69 609.10 L663.55 608.75 L662.63 610.50 L662.92 613.09 L662.44 615.19 L662.88 617.97 L662.30 620.04 L661.32 621.83 L661.59 624.59 L661.20 626.88 L660.83 629.21 L660.06 631.24 L658.45 632.60 L657.67 634.65 L656.61 636.48 L653.65 636.62 L651.70 637.63 L650.66 639.46 L648.86 640.58 L647.55 642.16 L645.41 642.93 L644.83 645.24 L643.85 647.17 L642.79 649.05 L643.16 652.45 L640.77 652.94 L637.19 652.08 L636.10 653.94 L633.54 654.12 L629.18 652.13 L628.15 654.01 L626.69 655.40 L624.32 655.64 L623.68 658.05 L622.15 659.36 L620.87 661.00 L620.32 663.65 L619.37 665.81 L618.31 667.85 L617.22 669.89 L616.01 671.78 L614.42 673.14 L612.84 674.51 L611.33 676.02 L609.52 677.04 L608.02 678.59 L606.47 680.07 L604.97 681.65 L603.21 682.80 L600.63 682.48 L597.75 681.52 L597.09 684.70 L594.89 684.98 L592.74 685.32 L592.33 689.21 L589.35 687.85 L587.34 688.45 L585.25 688.87 L581.72 685.98 L580.41 688.09 L578.27 688.27 L576.60 689.58 L575.18 691.58 L572.11 689.29 L570.49 690.76 L569.08 692.85 L567.00 693.11 L565.32 694.51 L564.42 698.39 L563.21 701.50 L561.43 702.89 L559.44 703.67 L557.41 704.27 L555.21 704.27 L553.25 705.14 L551.24 705.82 L548.91 705.21 L547.10 706.74 L545.02 707.18 L542.81 706.95 L541.22 709.82 L539.27 711.05 L536.88 709.82 L534.96 711.27 L533.11 713.32 L530.68 711.64 L528.54 711.73 L526.60 713.43 L524.50 714.05 L522.37 714.33 L520.13 713.57 L517.99 713.69 L515.88 714.21 L513.65 713.10 L511.50 712.78 L509.34 712.32 L507.21 712.18 L505.09 712.23 L502.97 712.27 L500.85 713.43 L498.71 714.51 L496.56 714.53 L494.38 715.83 L492.20 716.51 L489.99 717.31 L487.93 715.27 L485.84 714.18 L483.55 715.98 L481.58 713.56 L479.28 715.13 L477.07 715.52 L474.98 714.72 L472.59 716.39 L470.86 712.94 L469.06 710.36 L466.62 712.20 L464.39 712.53 L462.36 711.62 L460.40 710.42 L458.77 707.65 L456.61 707.65 L454.72 706.36 L453.30 703.07 L450.78 704.67 L448.04 706.93 L445.30 708.97 L443.02 709.11 L440.44 710.26 L437.90 711.16 L435.85 710.34 L433.75 709.68 L431.67 708.98 L429.66 708.05 L427.25 708.30 L425.46 706.76 L423.10 706.81 L420.23 708.13 L418.29 706.96 L416.99 704.26 L414.46 704.58 L411.82 705.12 L411.02 701.40 L408.97 700.59 L406.69 700.28 L404.50 699.72 L403.15 697.45 L401.42 695.99 L399.57 694.79 L397.74 693.57 L395.47 693.17 L393.28 692.58 L391.59 691.10 L389.29 690.69 L386.66 690.79 L384.96 689.32 L382.66 688.82 L380.10 688.72 L377.80 688.15 L374.76 688.68 L371.91 688.83 L369.83 687.84 L368.51 685.74 L366.03 685.29 L363.61 684.72 L362.72 682.08 L359.84 682.08 L358.55 680.01 L357.16 678.09 L355.54 676.46 L356.04 672.30 L354.31 670.87 L352.93 669.04 L349.44 669.59 L347.21 668.67 L346.85 665.72 L344.44 664.99 L343.03 663.17 L342.12 660.87 L341.17 658.63 L339.27 657.35 L335.73 657.63 L333.85 656.28 L331.91 654.96 L329.78 653.81 L327.59 652.68 L326.46 650.61 L325.22 648.65 L324.62 646.16 L324.45 643.35 L323.62 641.11 L321.01 640.29 L319.55 638.54 L316.16 638.25 L314.31 636.75 L313.45 634.53 L311.04 633.41 L311.48 630.30 L310.63 628.11 L308.50 626.78 L306.51 625.33 L303.65 624.42 L301.54 622.98 L299.85 621.28 L298.25 619.50 L296.97 617.54 L295.45 615.70 L295.48 613.00 L294.04 611.13 L292.12 609.49 L291.37 607.24 L290.08 605.26 L287.95 603.69 L286.41 601.80 L284.94 599.88 L283.92 597.74 L283.76 595.22 L284.97 592.12 L284.28 589.88 L282.13 588.23 L283.40 585.20 L282.19 583.17 L282.09 580.72 L279.36 579.24 L278.22 577.15 L281.93 573.42 L279.42 571.82 L275.75 570.55 L276.22 567.94 L275.55 565.70 L273.64 563.81 L273.98 561.28 L270.71 559.71 L271.12 557.17 L269.59 555.11 L267.43 553.18 L265.24 551.21 L264.06 549.00 L264.46 546.47 L263.03 544.29 L263.17 541.82 L264.00 539.24 L262.54 537.05 L263.30 534.51 L263.95 532.01 L261.09 529.97 L262.45 527.39 L261.94 525.04 L258.19 522.99 L259.02 520.48 L261.74 517.85 L257.51 515.73 L256.30 513.36 L258.57 510.82 L256.85 508.46 L255.24 506.07 L254.54 503.63 L255.18 501.17 L255.21 498.72 L254.56 496.26 L255.13 493.82 L255.49 491.38 L255.48 488.93 L256.19 486.52 L256.53 484.10 L256.67 481.66 L256.67 479.21 L257.53 476.84 L257.94 474.44 L258.74 472.08 L259.20 469.69 L257.54 467.01 L256.33 464.36 L258.04 462.14 L258.78 459.78 L256.55 456.90 L258.50 454.75 L257.94 452.14 L259.15 449.87 L260.13 447.56 L258.67 444.71 L261.09 442.74 L261.69 440.36 L263.55 438.31 L262.50 435.49 L261.22 432.57 L265.52 431.25 L265.99 428.84 L265.56 426.14 L267.50 424.18 L269.26 422.20 L269.49 419.70 L267.83 416.51 L268.32 414.06 L268.82 411.60 L269.93 409.38 L271.32 407.27 L271.63 404.73 L273.92 403.02 L276.90 401.65 L277.47 399.23 L279.23 397.35 L280.58 395.30 L278.04 391.35 L276.82 387.97 L278.50 386.03 L277.56 382.72 L276.95 379.53 L280.13 378.39 L282.69 376.95 L282.95 374.21 L284.13 372.00 L285.84 370.10 L287.73 368.33 L288.68 365.97 L289.59 363.58 L290.77 361.35 L291.32 358.69 L292.46 356.42 L294.33 354.65 L294.16 351.42 L295.28 349.09 L297.00 347.21 L297.23 344.17 L298.19 341.68 L299.44 339.40 L300.35 336.82 L302.72 335.44 L307.11 335.80 L306.43 331.86 L306.54 328.53 L310.65 328.76 L310.58 325.22 L311.92 322.94 L313.46 320.84 L313.99 317.73 L319.67 319.73 L320.48 316.91 L320.46 313.20 L323.12 312.24 L326.09 311.65 L327.69 309.60 L330.61 309.02 L332.55 307.37 L335.23 306.58 L335.61 303.06 L337.87 301.78 L339.69 299.96 L340.61 296.98 L343.24 296.17 L344.94 294.15 L347.93 293.86 L350.52 293.06 L351.87 290.56 L354.89 290.40 L357.12 289.16 L358.75 287.01 L361.39 286.37 L362.92 284.04 L363.77 280.55 L366.01 279.27 L367.89 277.38 L368.26 272.86 L369.29 269.35 L371.45 267.78 L373.00 265.07 L374.21 261.64 L376.78 260.74 L379.26 259.67 L381.91 258.98 L384.26 257.67 L386.64 256.42 L388.98 255.07 L391.13 253.28 L393.58 252.16 L396.93 253.19 L399.11 251.44 L401.89 251.18 L404.98 251.77 L406.62 248.55 L408.49 245.82 L411.18 245.33 L414.12 245.61 L416.01 242.73 L419.16 243.73 L422.12 244.25 L423.80 240.47 L426.07 238.56 L428.81 238.28 L431.85 239.17 L434.22 237.54 L437.46 239.44 L440.35 240.08 L442.43 237.10 L445.14 236.91 L447.88 236.89 L450.56 236.67 L453.53 238.03 L456.60 240.26 L459.08 239.08 L461.53 237.63 L464.07 236.63 L466.43 234.07 L468.92 232.25 L471.54 231.41 L474.22 231.05 L477.03 232.28 L479.67 231.45 L482.36 231.43 L485.05 231.25 L487.78 232.06 L490.47 232.26 L493.14 231.93 L495.83 232.25 L498.50 230.91 L501.19 230.04 L503.90 229.41 L506.66 227.45 L509.55 222.71 L512.30 223.31 L515.17 221.48 L518.12 219.16 L520.93 219.30 L523.72 219.72 L526.39 221.35 L529.11 222.21 L531.93 222.20 L534.65 222.93 L537.38 223.60 L540.02 224.81 L542.64 226.06 L545.41 226.32 L547.97 227.79 L550.73 228.03 L553.74 227.11 L556.47 227.63 L559.40 227.24 L562.58 225.86 L565.32 226.46 L567.32 230.09 L570.28 229.74 L573.07 230.12 L575.18 232.97 L578.21 232.50 L580.62 234.14 L583.02 235.76 L585.58 236.86 L586.93 241.51 L588.91 244.13 L591.73 244.29 L594.52 244.59 L597.61 244.12 L600.28 244.80 L602.05 247.75 L605.53 246.47 L608.17 247.27 L610.46 248.91 L613.90 247.94 L617.39 246.99 L620.73 246.47 L623.52 247.15 L625.76 248.97 L628.32 250.14 L630.94 251.18 L633.05 253.19 L635.31 254.90 L637.65 256.45 L640.13 257.75 L643.03 258.35 L645.34 259.95 L648.62 259.99 L651.23 261.15 L652.88 263.80 L656.66 263.19 L660.82 262.10 L663.32 263.52 L666.21 264.42 L670.18 263.84 L673.18 264.67 L675.12 266.95 L676.77 269.60 L678.88 271.60 L680.78 273.88 L682.88 275.88 L684.39 278.59 L686.62 280.41 L688.56 282.58 L690.39 284.85 L691.74 287.65 L695.00 288.33 L697.33 290.05 L699.47 291.98 L702.63 292.88 L705.82 293.78 L707.22 296.48 L707.27 300.47 L709.85 301.99 L711.23 304.64 L712.78 307.12 L716.62 307.56 L716.15 311.80 L718.73 313.37 L720.52 315.62 L719.11 320.49 L720.93 322.67 L723.38 324.34 L725.69 326.15 L729.11 327.14 L729.13 330.69 L730.50 333.22 L734.92 333.57 L734.72 337.21 L735.12 340.40 L737.82 342.01 L739.95 344.03 L741.82 346.23 L743.28 348.70 L744.80 351.13 L746.83 353.26 L748.02 355.89 L748.27 359.04 L750.53 361.05 L751.45 363.81 L752.40 366.55 L755.28 368.27 L757.87 370.19 L761.28 371.73 L762.61 374.32 L763.71 377.02 L768.91 377.85 L769.81 380.68 L767.24 385.00 L769.19 387.34 L771.10 389.71 L769.05 393.67 L770.63 396.16 L775.24 397.54 L777.35 399.90 L777.50 402.97 L781.30 404.79 L783.89 407.06 L780.48 411.28 L781.25 414.12 L785.12 416.04 L782.26 419.94 L781.78 423.12 L784.48 425.43 L786.71 427.90 L789.39 430.29 L790.24 433.15 L790.45 436.16 L793.41 438.57 L791.19 442.07 L789.18 445.47 L788.82 448.53 L788.28 451.59 L788.70 454.48 L790.83 457.12 L790.66 460.12 L792.90 462.79 L795.28 465.48 L796.09 468.39 L796.33 471.35 L796.16 474.36 L797.23 477.26 L797.89 480.20 L798.30 483.17 L798.73 486.14 L797.97 489.16 L797.10 492.16 L796.28 495.15 L796.21 498.11 L794.41 501.07 L794.14 504.01 L794.88 506.97 L793.53 509.87 L793.39 512.81 L792.99 515.73 L792.23 518.62 L792.88 521.60 L793.58 524.61 L794.87 527.69 L797.08 530.90 L795.34 533.70 L798.28 537.07 L801.53 540.53 L797.93 543.09 L797.97 546.14 L802.57 549.96 L799.13 552.47 L798.74 555.48 L801.97 559.21 L801.07 562.17 L798.39 564.73 L799.27 568.06 L801.91 571.85 L797.72 574.00 L794.73 576.40 L796.54 580.04 L794.89 582.77 L791.49 584.96 L793.47 588.74 L793.08 591.83 L793.42 595.17 L794.98 598.94 L794.12 601.94 L792.70 604.74 L791.68 607.67 L790.60 610.59 L787.43 612.69 L785.57 615.27 L783.43 617.71 L780.49 619.79 L779.61 622.74 L778.57 625.61 L774.87 627.27 L774.88 630.63 L773.64 633.41 L771.53 635.76 L770.43 638.60 L769.88 641.75 L769.48 644.99 L769.28 648.38 L769.08 651.80 L768.25 654.89 L766.71 657.57 L766.38 660.99 L764.46 663.46 L761.91 665.53 L760.30 668.18 L757.80 670.24 L755.59 672.48 L753.49 674.77 L750.91 676.72 L748.36 678.67 L747.41 681.77 L745.56 684.22 L744.45 687.24 L743.53 690.42 L740.81 692.21 L741.99 697.15 L739.38 699.03 L736.79 700.92 L737.71 705.82 L737.55 709.88 L737.00 713.65 L735.43 716.54 L735.03 720.55 L733.07 723.14 L730.60 725.23 L727.82 727.02 L724.42 728.15 L721.90 730.14 L718.96 731.68 L717.52 734.82 L715.48 737.34 L712.88 739.24 L711.03 741.99 L708.93 744.47 L706.09 746.09 L704.06 748.67 L702.32 751.65 L699.89 753.78 L698.53 757.31 L695.63 758.86 L692.53 760.12 L689.18 761.01 L686.31 762.54 L683.03 763.47 L680.05 764.78 L678.09 767.62 L674.33 767.73 L671.61 769.41 L669.09 771.41 L666.57 773.41 L665.51 777.90 L662.47 779.10 L660.14 781.54 L659.09 786.32 L656.18 787.82 L650.89 784.83 L648.23 786.70 L646.73 790.91 L642.03 788.72 L639.43 790.74 L637.94 795.17 L635.77 798.26 L633.39 800.99 L630.75 803.19 L628.18 805.58 L625.23 807.14 L621.59 806.93 L618.70 808.62 L615.41 809.27 L610.99 806.74 L608.06 808.24 L606.04 812.47 L601.67 809.72 L598.74 811.27 L596.37 814.70 L592.85 814.41 L589.60 814.95 L586.49 815.99 L583.29 816.72 L580.06 817.31 L577.24 819.56 L574.50 822.27 L571.23 822.81 L567.56 821.45 L564.91 824.96 L562.52 830.14 L558.70 827.85 L556.06 832.24 L553.52 837.73 L550.29 839.28 L546.98 840.37 L543.54 840.52 L540.10 840.70 L536.57 839.95 L533.18 840.44 L529.72 840.10 L526.05 836.85 L522.48 834.26 L519.19 835.37 L515.86 835.98 L512.39 833.17 L509.08 833.96 L505.76 835.39 L502.39 834.04 L499.06 831.99 L495.74 832.04 L492.39 833.11 L489.09 832.09 L485.68 834.12 L482.27 835.30 L479.00 833.81 L475.83 831.27 L472.20 834.88 L468.42 839.16 L465.19 837.27 L461.39 840.74 L457.40 845.03 L453.92 844.86 L450.52 844.05 L447.15 843.11 L443.77 842.25 L440.53 840.67 L437.00 840.71 L433.79 839.10 L431.24 834.35 L428.43 831.16 L424.84 831.67 L422.00 828.91 L419.29 825.81 L415.20 828.22 L411.52 828.86 L408.04 828.67 L404.76 827.71 L402.17 824.47 L398.66 824.35 L394.35 826.64 L392.51 821.30 L389.85 818.64 L384.65 823.18 L381.65 821.38 L380.44 814.92 L376.33 816.19 L371.45 819.22 L370.12 813.45 L367.78 810.29 L363.24 812.22 L359.43 812.41 L356.27 811.06 L353.22 809.50 L350.92 806.41 L345.43 809.78 L342.36 808.17 L342.47 800.51 L338.93 799.92 L333.54 802.66 L332.02 798.33 L329.20 796.36 L324.15 798.19 L321.66 795.62 L318.96 793.42 L316.24 791.27 L312.27 791.06 L310.00 788.21 L307.22 786.17 L302.57 786.83 L300.39 783.89 L299.11 779.72 L297.21 776.48 L293.31 775.97 L291.97 772.05 L289.69 769.41 L285.02 769.78 L281.39 768.78 L278.39 766.96 L275.05 765.53 L271.29 764.57 L268.17 762.82 L265.29 760.78 L261.75 759.45 L259.50 756.69 L259.37 751.74 L257.00 749.18 L252.68 748.60 L253.25 743.10 L251.16 740.31 L246.93 739.55 L245.05 736.54 L243.92 732.87 L241.55 730.35 L238.04 728.81 L235.85 726.11 L232.52 724.36 L228.11 723.47 L226.01 720.65 L226.35 715.89 L223.96 713.34 L219.21 712.56 L220.07 707.54 L217.19 705.32 L211.64 704.98 L208.81 702.64 L205.99 700.27 L202.69 698.19 L199.61 695.93 L197.12 693.27 L193.35 691.38 L190.81 688.70 L191.31 684.18 L191.97 679.64 L188.77 677.36 L185.99 674.80 L187.55 669.86 L184.14 667.65 L178.78 666.40 L178.29 662.60 L177.70 658.87 L176.11 655.64 L173.99 652.67 L173.41 648.98 L170.92 646.15 L168.94 643.09 L168.92 639.18 L171.28 634.34 L168.05 631.80 L165.06 629.13 L168.14 624.14 L166.15 621.09 L161.54 618.95 L161.63 615.13 L162.15 611.20 L159.97 608.16 L158.41 604.90 L158.33 601.20 L156.65 597.98 L154.70 594.81 L154.75 591.09 L156.23 587.03 L154.90 583.71 L151.70 580.80 L153.52 576.74 L155.32 572.73 L151.88 569.83 L148.90 566.78 L149.34 563.07 L146.73 559.90 L142.53 556.94 L142.28 553.32 L143.14 549.55 L139.97 546.32 L141.36 542.50 L145.52 538.42 L139.68 535.41 L133.41 532.33 L136.66 528.38 L133.37 524.96 L126.50 521.67 L125.68 517.97 L125.92 514.21 L126.04 510.46 L124.46 506.75 L125.01 502.99 L125.05 499.24 L123.56 495.47 L123.80 491.71 L123.65 487.94 L125.78 484.26 L127.97 480.62 L129.33 476.98 L132.57 473.49 L133.40 469.86 L135.25 466.33 L135.82 462.71 L136.02 459.05 L135.97 455.35 L135.98 451.66 L136.68 448.04 L136.47 444.30 L136.83 440.63 L137.77 437.06 L138.03 433.37 L138.70 429.75 L139.25 426.11 L139.37 422.37 L140.05 418.74 L141.23 415.23 L141.93 411.60 L142.57 407.96 L142.96 404.24 L143.71 400.61 L144.80 397.08 L144.87 393.24 L147.03 390.03 L150.70 387.32 L149.08 382.92 L149.78 379.24 L152.20 376.17 L150.21 371.51 L149.10 367.10 L149.85 363.37 L150.84 359.72 L151.61 355.96 L152.86 352.40 L155.35 349.37 L155.43 345.28 L158.19 342.40 L159.60 338.90 L160.36 335.08 L160.32 330.85 L161.23 327.05 L162.40 323.37 L162.12 318.90 L164.19 315.66 L166.30 312.45 L168.93 309.54 L170.86 306.25 L172.39 302.72 L174.96 299.80 L177.37 296.81 L179.30 293.52 L181.96 290.70 L185.44 288.46 L188.28 285.81 L190.97 283.08 L194.23 280.77 L197.06 278.18 L199.37 275.21 L201.94 272.46 L204.81 269.94 L207.91 267.62 L209.49 264.09 L212.86 262.03 L215.32 259.22 L217.96 256.58 L220.68 254.01 L223.02 251.11 L225.49 248.32 L227.75 245.33 L230.69 242.99 L232.26 239.32 L234.41 236.19 L236.61 233.09 L239.28 230.46 L241.44 227.28 L243.23 223.69 L245.79 220.90 L247.32 216.94 L250.08 214.33 L254.31 213.44 L256.38 210.03 L257.66 205.63 L262.44 205.49 L264.67 202.20 L265.27 196.78 L268.42 194.58 L271.58 192.42 L274.18 189.47 L277.13 186.99 L280.75 185.47 L282.98 181.93 L285.52 178.81 L289.78 178.27 L292.60 175.54 L294.65 171.56 L296.51 167.18 L300.13 165.62 L301.96 161.03 L304.27 157.16 L307.99 155.72 L311.86 154.59 L315.40 152.87 L318.84 150.97 L322.37 149.23 L325.43 146.54 L328.32 143.46 L332.16 142.33 L335.50 140.13 L340.30 141.20 L344.48 140.96 L348.42 140.24 L353.43 142.16 L356.85 140.30 L360.41 138.78 L364.17 137.77 L367.72 136.21 L371.34 134.85 L374.74 132.81 L378.54 131.94 L382.18 130.61 L385.71 128.89 L389.41 127.74 L393.00 126.14 L396.81 125.34 L400.37 123.62 L404.12 122.56 L407.98 121.95 L411.71 120.82 L415.57 120.23 L419.30 119.04 L423.05 117.95 L426.90 117.35 L430.79 116.94 L434.47 115.38 L438.33 114.80 L442.19 114.27 L445.91 112.70 L449.76 111.96 L453.71 112.09 L457.48 110.62 L461.30 109.45 L465.16 108.48 L469.12 108.77 L473.04 108.47 L476.92 107.75 L480.91 108.83 L484.81 108.26 L488.74 108.52 L492.65 108.36 L496.58 109.24 L500.48 110.15 L504.38 110.40 L508.24 112.19 L512.15 111.17 L516.14 108.86 L520.18 106.58 L524.15 106.11 L528.22 104.48 L532.32 103.04 L536.03 106.22 L539.94 106.81 L544.12 104.99 L548.20 104.39 L552.02 105.89 L556.05 105.79 L560.10 105.63 L563.84 107.54 L567.59 109.17 L571.47 109.97 L575.59 109.56 L579.44 110.59 L583.31 111.48 L587.26 112.03 L591.12 113.01 L595.16 113.24 L599.01 114.24 L603.09 114.39 L606.93 115.50 L610.67 116.94 L614.52 117.98 L618.46 118.73 L622.40 119.52 L626.11 121.03 L630.08 121.75 L633.70 123.51 L637.42 124.99 L641.28 126.07 L644.79 128.06 L649.22 127.73 L652.87 129.40 L656.78 130.45 L661.24 130.27 L665.75 130.08 L669.76 131.06 L674.15 131.27 L679.03 130.54 L683.56 130.66 L686.82 133.34 L690.56 135.08 L695.87 133.87 L699.13 136.57 L702.43 139.15 L707.35 138.89 L710.99 140.92 L715.00 142.33 L718.52 144.58 L722.09 146.74 L725.40 149.30 L729.30 150.96 L732.89 153.11 L736.33 155.48 L739.37 158.42 L742.84 160.73 L748.06 160.67 L750.51 164.41 L754.31 166.33 L759.95 165.92 L763.09 168.77 L766.93 170.74 L770.00 173.69 L774.02 175.49 L776.95 178.60 L779.88 181.69 L783.64 183.84 L786.11 187.43 L788.62 190.95 L791.14 194.44 L794.86 196.67 L798.13 199.38 L801.10 202.40 L805.05 204.47 L808.52 207.03 L812.40 209.23 L814.50 213.09 L816.67 216.86 L820.76 218.92 L823.78 221.95 L825.86 225.78 L828.89 228.80 L830.87 232.68 L832.86 236.53 L835.18 240.10 L834.97 245.59 L838.18 248.44 L843.73 249.61 L843.52 254.99 L847.70 257.22 L850.11 260.71 L851.42 264.93 L853.69 268.50 L856.00 272.04 L859.39 274.90 L862.94 277.70 L866.79 280.36 L868.77 284.15 L871.46 287.53 L873.26 291.43 L875.97 294.82 L878.71 298.22 L881.56 301.57 L884.15 305.08 L885.13 309.40 L887.08 313.23 L888.17 317.47 L889.60 321.53 L892.69 324.84 L893.93 328.99 L895.90 332.82 L898.25 336.50 L900.15 340.38 L901.69 344.41 L904.20 348.06 L906.03 351.99 L908.07 355.85 L908.73 360.20 L909.42 364.52 L910.94 368.56 L911.45 372.92 L913.42 376.83 L915.26 380.79 L916.56 384.91 L918.03 388.99 L920.14 392.92 L921.82 396.97 L923.03 401.15 L924.81 405.20 L925.51 409.50 L926.82 413.68 L928.38 417.81 L928.23 422.27 L930.02 426.38 L931.56 430.55 L931.85 434.93 L932.10 439.30 L932.37 443.67 L932.03 448.10 L933.03 452.37 L932.22 456.83 L931.31 461.27 L934.98 465.32 L934.51 469.73 L934.57 474.09 L936.85 478.33 L937.69 482.68 L938.04 487.05 L938.26 491.43 L939.39 495.80 L943.28 500.00 L943.48 495.57 L944.07 491.12 L943.75 486.68 L943.44 482.25 L943.58 477.80 L945.06 473.26 L944.08 468.86 L942.70 464.51 L944.37 459.90 L942.52 455.60 L940.70 451.33 L939.84 446.96 L938.40 442.69 L937.52 438.34 L936.29 434.06 L934.83 429.83 L934.53 425.41 L933.97 421.03 L932.06 416.91 L931.37 412.56 L930.68 408.20 L929.19 404.02 L928.29 399.72 L927.42 395.40 L926.54 391.09 L925.97 386.68 L925.13 382.34 L923.88 378.11 L922.92 373.79 L921.94 369.48 L919.69 365.56 L918.36 361.36 L915.88 357.55 L913.47 353.74 L912.21 349.53 L910.58 345.46 L909.80 341.05 L907.50 337.24 L905.77 333.21 L904.56 328.95 L902.81 324.93 L900.31 321.23 L899.42 316.82 L896.77 313.21 L893.79 309.78 L891.51 306.03 L888.54 302.63 L886.85 298.60 L885.11 294.59 L883.31 290.60 L881.29 286.72 L878.69 283.18 L876.43 279.44 L874.07 275.77 L873.23 271.17 L871.71 266.96 L870.09 262.79 L867.24 259.39 L864.13 256.20 L860.33 253.49 L858.19 249.65 L856.87 245.23 L851.53 243.69 L852.37 237.65 L850.68 233.41 L845.41 231.92 L842.36 228.76 L838.84 225.99 L835.00 223.51 L831.55 220.74 L827.18 218.78 L823.81 215.99 L822.35 211.52 L818.47 209.21 L814.32 207.18 L812.27 203.21 L809.30 200.08 L807.49 195.81 L805.25 191.93 L802.23 188.81 L799.58 185.31 L795.95 182.82 L791.65 181.10 L786.75 180.09 L783.08 177.76 L779.13 175.78 L775.40 173.57 L772.59 170.25 L768.85 168.08 L765.74 165.13 L761.98 162.99 L762.35 155.46 L759.76 151.69 L755.15 150.64 L753.77 145.14 L749.92 143.02 L745.29 142.08 L740.49 141.45 L735.83 140.67 L731.89 138.85 L727.44 137.87 L722.81 137.24 L718.72 135.78 L715.65 132.62 L712.10 130.25 L709.91 125.42 L705.93 123.75 L702.32 121.41 L699.66 117.24 L695.66 115.58 L691.36 114.54 L688.29 111.01 L685.60 106.58 L682.26 103.42 L678.46 101.23 L675.20 97.78 L671.78 94.60 L667.86 92.57 L663.67 91.18 L660.38 87.48 L655.80 87.08 L651.67 85.51 L647.42 84.31 L642.86 83.99 L638.56 82.99 L634.19 82.24 L630.07 80.69 L625.81 79.63 L621.55 78.56 L617.16 77.97 L612.85 77.16 L608.74 75.54 L604.46 74.63 L600.35 72.96 L595.96 72.49 L591.68 71.54 L587.31 71.02 L582.89 70.84 L578.66 69.68 L574.29 69.27 L569.66 70.53 L565.13 71.37 L560.88 70.45 L556.55 70.11 L552.10 70.83 L547.91 69.34 L543.78 67.09 L539.49 66.28 L534.95 68.37 L530.72 66.84 L526.47 65.21 L522.13 64.66 L517.83 63.19 L513.50 61.78 L509.14 60.75 L504.72 62.60 L500.35 62.95 L495.98 63.60 L491.64 64.53 L487.30 65.12 L482.97 65.95 L478.64 66.17 L474.38 67.72 L470.07 68.19 L465.78 68.87 L461.54 70.02 L457.20 69.93 L452.89 70.36 L448.58 70.64 L444.38 71.90 L440.11 72.56 L435.78 72.78 L431.60 73.97 L427.44 75.29 L423.00 74.95 L418.91 76.55 L414.82 78.06 L410.50 78.44 L406.38 79.79 L402.42 81.74 L398.32 83.06 L394.31 84.69 L390.23 86.04 L385.97 86.70 L382.02 88.50 L377.90 89.65 L373.91 91.25 L369.86 92.61 L365.63 93.43 L361.80 95.46 L357.63 96.50 L353.61 97.96 L349.72 99.78 L346.05 102.14 L342.32 104.31 L338.32 105.77 L335.94 111.09 L332.62 114.04 L329.44 117.26 L326.99 121.96 L322.92 123.08 L319.67 125.92 L315.15 126.15 L310.91 127.02 L307.65 129.81 L303.85 131.56 L300.42 133.98 L297.79 137.81 L294.84 141.01 L290.17 141.23 L285.95 142.27 L282.75 145.03 L277.51 144.49 L273.55 146.09 L269.43 147.46 L266.91 151.27 L262.72 152.58 L258.54 153.94 L255.90 157.50 L252.50 159.98 L249.00 162.32 L246.25 165.66 L243.38 168.80 L238.08 168.86 L234.88 171.61 L233.32 176.35 L228.56 177.22 L225.07 179.62 L223.08 183.76 L219.59 186.17 L214.79 187.14 L211.86 190.20 L208.14 192.43 L204.40 194.67 L201.57 197.85 L198.75 201.03 L195.67 203.96 L191.91 206.24 L189.39 209.71 L186.70 213.01 L184.23 216.51 L181.15 219.45 L179.02 223.21 L176.74 226.84 L174.13 230.18 L172.79 234.54 L169.84 237.57 L168.23 241.66 L166.58 245.69 L164.99 249.74 L162.74 253.28 L161.20 257.31 L160.13 261.65 L158.74 265.74 L157.45 269.85 L156.81 274.37 L155.37 278.33 L152.99 281.67 L150.88 285.19 L149.54 289.16 L147.20 292.53 L145.73 296.41 L144.95 300.65 L144.25 304.91 L142.93 308.81 L139.50 311.59 L137.71 315.24 L135.15 318.51 L131.85 321.44 L129.34 324.78 L127.15 328.29 L127.47 332.93 L124.77 336.20 L124.51 340.54 L123.52 344.54 L121.95 348.30 L120.42 352.08 L118.44 355.68 L114.78 358.69 L111.95 362.04 L112.30 366.51 L109.67 369.96 L106.34 373.21 L108.34 378.16 L107.53 382.20 L105.05 385.75 L104.26 389.80 L103.37 393.81 L101.98 397.69 L101.11 401.71 L100.59 405.81 L102.07 410.35 L100.87 414.26 L99.87 418.23 L99.84 422.38 L99.20 426.41 L97.85 430.31 L97.53 434.39 L97.13 438.46 L95.13 442.29 L95.25 446.43 L94.71 450.48 L93.71 454.47 L93.84 458.60 L94.61 462.76 L96.15 466.98 L96.54 471.07 L99.84 475.32 L100.84 479.39 L103.24 483.49 L105.35 487.53 L105.27 491.48 L105.82 495.43 L104.75 499.37 L105.31 503.32 L106.36 507.25 L105.45 511.21 L106.13 515.13 L106.94 519.04 L106.99 522.98 L101.71 527.29 L100.19 531.41 L103.87 535.11 L98.42 539.65 L95.36 544.04 L100.99 547.47 L102.29 551.35 L99.71 555.76 L101.64 559.56 L101.92 563.59 L98.94 568.19 L99.03 572.30 L101.92 575.90 L100.22 580.38 L100.11 584.57 L104.66 587.75 L108.02 591.12 L106.75 595.57 L108.48 599.31 L111.77 602.62 L112.85 606.48 L114.05 610.32 L114.78 614.29 L115.38 618.31 L117.51 621.85 L119.26 625.50 L121.82 628.86 L123.66 632.45 L122.56 637.10 L124.62 640.61 L129.98 642.84 L130.18 647.03 L131.78 650.67 L136.07 653.18 L140.36 655.63 L140.88 659.69 L142.40 663.32 L145.32 666.29 L146.63 670.00 L149.52 672.95 L152.33 675.91 L154.94 678.95 L153.20 684.27 L153.92 688.35 L159.63 689.68 L159.83 694.05 L161.06 697.87 L164.97 700.10 L168.95 702.24 L170.35 705.95 L170.93 710.19 L173.07 713.45 L174.80 716.99 L176.27 720.72 L178.36 724.04 L180.00 727.68 L179.63 732.81 L182.18 735.84 L187.34 736.90 L187.79 741.51 L190.99 744.02 L195.85 745.15 L198.88 747.72 L200.26 751.65 L202.26 755.09 L205.27 757.67 L207.42 760.99 L210.00 763.95 L213.72 765.85 L216.67 768.43 L217.52 773.04 L221.11 775.02 L225.97 775.69 L227.51 779.67 L230.32 782.38 L234.86 783.25 L238.34 785.19 L240.71 788.34 L243.71 790.81 L247.00 792.93 L249.60 795.85 L251.99 799.04 L255.14 801.32 L256.84 805.43 L258.18 810.05 L262.41 810.99 L266.27 812.36 L268.81 815.50 L272.97 816.41 L277.20 817.16 L281.14 818.27 L283.13 822.23 L286.67 823.92 L291.07 824.25 L294.04 826.78 L297.72 828.17 L301.63 829.14 L304.98 831.02 L306.44 836.20 L310.38 837.10 L314.59 837.47 L316.14 842.72 L319.83 844.06 L326.29 839.96 L329.32 842.44 L330.50 848.76 L334.78 848.79 L338.62 849.68 L342.12 851.29 L344.99 854.33 L347.72 857.79 L352.52 856.36 L357.68 853.87 L359.49 859.72 L362.87 861.68 L368.50 857.58 L371.94 859.27 L373.99 865.04 L378.50 863.72 L382.89 862.61 L385.66 866.51 L389.20 868.09 L393.40 867.41 L397.12 868.32 L400.79 869.39 L404.16 871.62 L407.54 873.96 L412.08 871.51 L416.15 870.80 L419.82 871.83 L424.02 870.28 L428.37 867.71 L432.20 867.62 L435.73 869.11 L439.70 868.08 L443.58 867.34 L447.43 866.67 L451.22 866.30 L454.89 866.76 L458.14 870.87 L461.62 873.49 L465.57 871.62 L468.90 876.58 L472.48 879.49 L476.43 877.29 L480.22 877.22 L483.98 877.74 L487.78 877.11 L491.59 875.48 L495.36 874.41 L499.11 872.85 L502.82 870.66 L506.51 869.84 L510.29 872.47 L514.05 873.34 L517.67 870.75 L521.42 871.43 L525.16 871.61 L528.73 869.49 L532.13 865.76 L535.70 864.56 L539.36 864.33 L542.80 862.27 L546.27 860.60 L549.74 859.20 L553.39 859.06 L557.12 859.41 L561.50 863.50 L565.53 865.08 L568.61 861.42 L573.12 865.18 L577.15 866.24 L580.43 863.77 L584.05 862.89 L588.01 863.39 L591.63 862.47 L595.10 860.98 L598.56 859.45 L601.88 857.50 L605.16 855.50 L608.74 854.54 L612.89 855.35 L616.32 853.85 L618.91 849.87 L623.26 851.13 L626.70 849.69 L629.12 845.54 L632.26 843.43 L636.07 843.05 L638.86 840.13 L642.27 838.76 L645.86 837.80 L649.49 836.90 L653.21 836.18 L656.78 835.10 L661.46 836.30 L664.49 834.01 L665.85 828.43 L670.13 828.70 L673.43 827.03 L674.74 821.68 L677.73 819.53 L682.32 820.19 L685.52 818.38 L688.15 815.59 L692.07 814.97 L694.72 812.23 L698.18 810.83 L701.60 809.31 L703.94 806.17 L707.42 804.74 L710.13 802.18 L712.95 799.80 L715.52 797.08 L717.22 793.21 L719.81 790.59 L722.55 788.17 L725.99 786.65 L728.54 784.00 L731.82 782.25 L734.74 780.05 L736.94 776.99 L739.91 774.86 L742.79 772.61 L745.07 769.69 L748.43 767.95 L751.02 765.37 L753.00 762.16 L755.49 759.50 L756.57 755.44 L758.21 751.98 L760.21 748.90 L762.72 746.32 L766.58 744.97 L769.17 742.43 L772.76 740.77 L776.69 739.36 L781.88 738.96 L783.27 735.31 L785.27 732.19 L790.36 731.54 L791.17 727.47 L794.90 725.67 L798.19 723.50 L800.48 720.56 L802.53 717.44 L804.14 714.01 L806.14 710.88 L806.92 706.92 L807.62 702.95 L810.14 700.19 L812.39 697.24 L812.61 693.04 L814.16 689.68 L816.13 686.58 L818.12 683.49 L819.86 680.26 L822.20 677.35 L824.32 674.32 L826.31 671.20 L828.38 668.12 L829.56 664.59 L829.81 660.61 L831.24 657.23 L833.68 654.32 L832.34 649.69 L833.89 646.39 L834.98 642.89 L834.36 638.69 L834.27 634.75 L834.89 631.12 L834.51 627.13 L835.20 623.57 L835.82 620.00 L837.10 616.67 L837.70 613.11 L840.11 610.14 L842.13 607.03 L844.03 603.86 L846.16 600.73 L843.62 596.28 L844.26 592.75 L847.09 589.80 L844.65 585.51 L843.10 581.49 L847.35 578.84 L848.95 575.54 L848.08 571.71 L849.02 568.28 L852.86 565.37 L852.25 561.62 L850.29 557.67 L854.78 554.78 L853.32 550.94 L850.89 547.01 L855.94 544.07 L858.54 540.76 L857.74 537.05 L860.92 533.73 L862.71 530.24 L864.04 526.69 L864.69 523.07 L863.84 519.37 L863.61 515.71 L863.87 512.08 L862.16 508.40 L862.39 504.78 L861.88 501.15 L859.65 497.55 L859.16 493.96 L858.23 490.39 L856.75 486.86 L856.29 483.31 L856.22 479.74 L855.30 476.23 L854.19 472.74 L853.82 469.21 L852.89 465.73 L851.49 462.31 L851.65 458.73 L853.34 454.95 L854.24 451.23 L853.28 447.76 L853.67 444.08 L851.61 440.80 L850.67 437.34 L848.84 434.06 L842.69 431.67 L841.62 428.32 L843.92 424.24 L840.92 421.32 L841.30 417.63 L841.66 413.92 L841.85 410.23 L841.10 406.77 L837.08 404.23 L833.51 401.63 L834.05 397.83 L830.92 395.16 L826.61 392.92 L827.86 388.86 L829.18 384.74 L826.48 382.00 L827.05 378.09 L828.86 373.65 L826.59 370.76 L821.31 369.12 L821.85 365.13 L820.27 362.01 L814.48 360.76 L814.94 356.78 L816.43 352.26 L813.79 349.65 L813.35 345.99 L813.94 341.79 L813.24 338.19 L812.39 334.65 L810.08 331.88 L808.56 328.69 L806.52 325.79 L802.99 323.77 L801.14 320.79 L799.86 317.46 L797.20 314.99 L794.61 312.48 L792.82 309.49 L791.36 306.26 L789.98 302.96 L787.54 300.39 L784.56 298.22 L783.40 294.75 L780.48 292.56 L777.61 290.35 L775.31 287.73 L773.22 284.95 L771.80 281.63 L768.06 280.20 L762.67 280.18 L761.06 277.06 L758.34 274.87 L753.19 274.86 L752.08 271.29 L749.00 269.51 L746.30 267.39 L743.92 264.98 L740.75 263.35 L738.23 261.10 L736.01 258.54 L733.83 255.93 L730.80 254.22 L728.87 251.34 L726.15 249.31 L722.52 248.32 L720.66 245.34 L718.45 242.73 L714.63 242.05 L711.73 240.29 L708.25 239.29 L704.91 238.14 L701.80 236.73 L698.46 235.66 L695.13 234.60 L693.20 231.65 L692.17 227.36 L689.18 225.82 L686.09 224.45 L684.96 220.13 L682.86 217.20 L679.04 216.94 L676.99 213.89 L675.25 210.26 L672.38 208.46 L669.41 206.84 L666.50 205.09 L663.47 203.57 L659.84 203.19 L655.93 203.37 L653.56 200.66 L650.29 199.68 L646.51 199.75 L643.75 197.78 L641.43 194.83 L638.76 192.56 L636.54 189.24 L633.41 187.93 L630.29 186.58 L627.74 183.83 L623.96 184.15 L620.86 182.73 L617.54 181.95 L614.40 180.65 L611.16 179.63 L606.97 181.45 L602.81 183.40 L599.91 181.53 L596.02 182.84 L592.75 182.24 L589.82 180.41 L585.92 182.11 L583.07 180.01 L579.94 178.87 L576.25 180.07 L573.30 178.25 L570.42 175.96 L566.88 176.67 L563.29 177.82 L560.31 175.88 L557.00 175.70 L553.56 176.33 L550.41 175.23 L547.01 175.72 L543.63 176.32 L540.32 176.44 L536.91 177.62 L533.73 176.78 L530.37 177.78 L526.99 179.43 L523.79 179.07 L520.58 178.84 L517.41 177.72 L514.22 176.95 L511.00 176.50 L507.85 172.82 L504.58 172.32 L501.31 171.71 L498.01 169.49 L494.70 169.05 L491.43 170.69 L488.15 171.06 L484.89 171.88 L481.63 172.45 L478.43 173.81 L475.16 173.91 L471.81 173.07 L468.80 176.03 L465.59 176.62 L462.30 176.52 L458.94 175.87 L455.49 174.75 L452.53 177.20 L449.28 177.57 L445.94 177.37 L443.29 181.16 L440.29 182.71 L437.09 183.20 L434.07 184.51 L430.68 184.09 L427.50 184.70 L425.19 188.92 L422.40 190.97 L419.22 191.39 L416.93 195.13 L413.18 193.49 L409.95 193.80 L406.87 194.64 L404.29 197.05 L401.66 199.23 L398.61 200.11 L396.58 203.88 L393.75 205.29 L389.70 203.38 L386.72 204.46 L384.76 208.11 L381.72 208.97 L378.72 209.94 L376.44 212.59 L373.69 214.11 L370.54 214.72 L367.40 215.40 L365.14 217.96 L362.26 219.19 L359.09 219.83 L356.42 221.51 L354.07 223.76 L349.79 222.43 L346.94 223.79 L345.12 226.98 L341.53 227.05 L337.54 226.50 L335.23 228.84 L331.66 229.10 L328.02 229.32 L324.90 230.41 L322.36 232.39 L319.53 233.94 L317.07 236.04 L315.38 239.21 L313.35 241.84 L311.15 244.23 L308.88 246.50 L306.72 248.90 L304.70 251.46 L301.61 252.67 L298.04 253.31 L296.26 256.15 L293.66 257.99 L291.49 260.34 L288.80 262.10 L289.00 267.06 L287.27 269.82 L284.17 271.10 L283.68 275.13 L280.39 276.23 L277.47 277.75 L279.43 284.07 L276.18 285.23 L274.69 288.09 L272.02 289.83 L268.27 290.62 L268.54 295.03 L264.61 295.71 L261.38 297.05 L262.24 301.85 L261.28 305.07 L259.21 307.36 L257.38 309.84 L255.53 312.31 L252.84 314.13 L251.61 317.07 L249.57 319.41 L246.39 320.93 L245.26 323.93 L243.03 326.16 L240.95 328.50 L239.38 331.19 L237.33 333.57 L236.07 336.44 L235.52 339.74 L233.69 342.25 L232.76 345.29 L231.22 347.97 L231.37 351.58 L231.18 354.96 L228.53 357.02 L227.11 359.74 L225.10 362.16 L221.30 363.73 L217.48 365.34 L216.10 368.15 L215.43 371.28 L214.26 374.18 L214.33 377.61 L215.15 381.32 L213.94 384.16 L213.26 387.20 L213.60 390.63 L211.95 393.29 L211.88 396.53 L209.32 398.88 L205.67 400.90 L205.38 404.07 L204.29 406.98 L203.35 409.93 L204.30 413.44 L204.54 416.71 L205.08 420.03 L205.21 423.23 L203.47 425.93 L204.35 429.28 L207.37 433.09 L205.19 435.69 L205.86 438.91 L205.78 441.96 L204.77 444.82 L205.92 448.07 L202.26 450.49 L203.42 453.73 L204.57 456.93 L202.46 459.65 L200.49 462.43 L200.26 465.45 L200.78 468.53 L200.56 471.53 L200.69 474.56 L201.00 477.60 L201.06 480.61 L201.19 483.62 L201.82 486.64 L202.35 489.64 L202.92 492.64 L203.76 495.62 L204.08 498.59 L204.25 501.54 L205.29 504.49 L205.58 507.43 L203.99 510.43 L203.98 513.40 L207.47 516.17 L205.48 519.24 L203.83 522.32 L207.71 524.97 L207.50 527.94 L204.88 531.17 L205.24 534.11 L205.72 537.04 L205.04 540.13 L205.80 543.03 L206.69 545.90 L208.55 548.60 L209.27 551.47 L210.05 554.33 L212.44 556.86 L213.43 559.65 L214.05 562.51 L212.46 565.88 L211.66 569.10 L213.77 571.63 L215.00 574.36 L212.84 578.00 L216.84 579.96 L217.75 582.76 L217.41 585.94 L220.19 588.16 L218.81 591.69 L218.69 594.86 L224.09 596.12 L225.19 598.83 L225.48 601.83 L227.09 604.36 L228.22 607.05 L231.24 608.98 L231.21 612.13 L232.47 614.76 L235.67 616.53 L237.51 618.87 L238.69 621.50 L239.92 624.10 L241.34 626.62 L241.62 629.70 L243.16 632.16 L244.96 634.47 L245.94 637.22 L247.53 639.64 L250.62 641.21 L251.92 643.77 L253.84 645.96 L255.16 648.51 L255.97 651.37 L256.96 654.15 L257.50 657.23 L258.20 660.23 L259.74 662.69 L263.03 663.95 L266.29 665.17 L267.07 668.14 L269.51 669.90 L270.88 672.46 L269.73 676.95 L271.41 679.33 L272.07 682.52 L273.88 684.81 L278.21 685.01 L280.70 686.68 L283.70 687.89 L287.49 688.36 L288.66 691.13 L290.98 692.86 L293.18 694.70 L294.83 697.05 L295.82 700.07 L296.13 703.80 L298.50 705.49 L300.75 707.31 L302.52 709.62 L304.36 711.88 L307.04 713.22 L310.28 713.89 L312.26 715.97 L314.19 718.12 L317.53 718.59 L323.03 716.37 L324.86 718.55 L328.63 718.28 L331.48 719.13 L332.69 722.12 L336.24 721.99 L337.51 724.94 L339.69 726.67 L342.43 727.59 L344.51 729.46 L346.18 731.94 L347.32 735.30 L349.39 737.28 L351.47 739.25 L353.94 740.61 L356.77 741.36 L358.72 743.59 L361.24 744.86 L364.18 745.36 L366.40 747.15 L368.73 748.75 L371.54 749.45 L373.98 750.82 L376.83 751.40 L379.86 751.55 L382.55 752.36 L385.08 753.52 L387.64 754.63 L391.88 751.81 L393.38 755.33 L395.75 756.84 L399.27 755.47 L401.09 758.40 L403.08 761.00 L405.76 761.75 L408.54 762.23 L411.45 762.31 L413.93 763.64 L416.87 763.54 L419.95 762.91 L422.08 765.41 L424.82 765.89 L427.17 767.76 L429.51 769.77 L432.35 769.91 L434.52 772.78 L436.91 774.94 L440.16 773.26 L443.13 772.75 L445.67 774.22 L448.97 771.83 L451.90 771.13 L454.52 772.14 L457.41 771.56 L460.03 772.60 L463.17 769.98 L466.20 767.76 L468.71 769.53 L471.56 768.38 L474.16 769.58 L476.80 770.42 L479.65 768.73 L482.25 770.33 L485.04 768.89 L487.80 767.58 L490.46 768.19 L493.13 768.56 L495.81 769.05 L498.50 768.27 L501.19 768.27 L503.88 768.84 L506.55 767.97 L509.22 767.82 L511.89 767.53 L514.55 766.99 L517.19 766.49 L519.79 765.41 L522.43 765.02 L525.05 764.48 L527.59 763.24 L530.17 762.55 L532.77 762.02 L535.50 762.51 L537.94 760.85 L540.30 758.88 L543.07 759.56 L545.59 758.71 L548.10 757.82 L550.89 758.42 L553.72 759.12 L556.33 758.67 L558.86 757.84 L561.47 757.41 L564.24 757.56 L566.31 754.99 L568.88 754.40 L571.51 754.01 L573.45 751.25 L576.06 750.83 L578.54 749.97 L581.34 750.13 L585.23 753.42 L587.86 752.85 L590.27 751.65 L593.36 752.29 L595.71 750.90 L597.53 748.18 L599.68 746.40 L602.14 745.38 L604.31 743.70 L606.47 742.02 L607.05 736.89 L609.26 735.48 L610.98 733.06 L612.04 729.34 L615.57 730.69 L617.40 728.61 L619.59 727.26 L622.56 727.34 L623.54 723.78 L625.08 721.32 L627.20 719.90 L629.38 718.59 L631.59 717.34 L634.04 716.47 L635.75 714.40 L638.05 713.30 L640.44 712.30 L642.43 710.70 L644.60 709.36 L647.30 708.78 L649.53 707.50 L651.88 706.38 L654.67 705.83 L656.65 704.18 L658.62 702.52 L661.44 701.93 L662.39 699.00 L664.49 697.52 L666.38 695.77 L664.96 690.21 L666.33 687.95 L668.10 686.17 L667.59 681.92 L669.10 679.91 L672.40 679.79 L673.69 677.54 L675.88 676.23 L678.17 674.98 L678.77 672.10 L680.74 670.54 L681.71 668.05 L683.80 666.61 L684.88 664.25 L684.91 660.99 L686.85 659.43 L688.66 657.74 L689.47 655.23 L691.02 653.33 L692.28 651.20 L694.17 649.57 L697.14 648.74 L698.25 646.49 L700.08 644.77 L703.00 643.81 L704.95 642.14 L707.14 640.61 L707.82 638.05 L706.32 634.11 L707.75 632.10 L707.71 629.17 L706.68 625.69 L707.64 623.44 L710.18 622.13 L712.35 620.56 L713.55 618.44 L715.14 616.52 L716.31 614.37 L717.04 612.00 L717.72 609.60 L718.91 607.47 L718.94 604.78 L720.20 602.69 L720.40 600.11 L720.31 597.43 L720.66 594.96 L720.89 592.45 L722.15 590.37 L722.39 587.89 L723.37 585.71 L724.27 583.49 L724.38 580.98 L726.77 579.29 L727.43 576.98 L730.52 575.46 L730.96 573.06 L729.46 570.07 L731.59 568.20 L730.68 565.43 L729.25 562.55 L730.02 560.30 L731.21 558.15 L732.97 556.12 L733.36 553.75 L734.35 551.51 L735.09 549.22 L735.01 546.75 L736.52 544.60 L737.09 542.25 L736.53 539.72 L737.55 537.45 L737.03 534.94 L736.62 532.47 L736.38 530.03 L736.16 527.61 L736.59 525.26 L736.49 522.86 L736.54 520.48 L737.26 518.16 L737.50 515.79 L738.15 513.44 L738.84 511.08 L740.67 508.76 L739.01 506.30 L738.64 503.91 L740.05 501.53 L736.26 499.14 L735.27 496.79 L737.19 494.39 L737.41 492.01 L738.15 489.60 L737.87 487.23 L737.31 484.88 L738.82 482.38 L738.32 480.02 L739.27 477.53 L738.82 475.16 L737.62 472.88 L738.41 470.37 L737.21 468.11 L736.31 465.82 L735.71 463.50 L734.54 461.28 L734.55 458.86 L733.70 456.60 L733.23 454.27 L733.09 451.87 L731.55 449.77 L730.94 447.48 L732.24 444.73 L729.84 442.87 L726.44 441.31 L729.73 437.99 L730.30 435.36 L728.97 433.26 L730.63 430.27 L731.82 427.37 L730.17 425.35 L729.04 423.18 L727.40 421.19 L726.49 418.95 L725.76 416.66 L722.84 415.20 L721.03 413.35 L719.11 411.56 L715.93 410.32 L714.85 408.24 L712.79 406.60 L710.43 405.11 L710.28 402.64 L709.18 400.59 L707.97 398.61 L706.62 396.70 L704.93 394.97 L704.91 392.38 L704.10 390.18 L702.72 388.30 L702.46 385.79 L700.10 384.46 L698.27 382.86 L698.82 379.84 L696.56 378.51 L695.19 376.64 L695.18 373.89 L695.51 370.89 L694.67 368.63 L692.60 367.21 L690.34 365.94 L688.08 364.69 L685.02 364.07 L682.44 363.13 L681.56 360.93 L678.37 360.52 L675.66 359.79 L675.21 357.26 L672.04 356.96 L669.37 356.28 L668.34 354.24 L667.35 352.15 L665.52 350.79 L664.00 349.16 L662.53 347.48 L660.49 346.35 L658.84 344.86 L657.49 343.06 L657.56 339.83 L654.61 339.65 L653.45 337.63 L654.42 333.30 L651.97 332.61 L650.95 330.36 L650.26 327.70 L649.36 325.23 L647.19 324.25 L645.25 322.99 L642.87 322.30 L640.92 321.09 L638.54 320.45 L636.49 319.40 L634.99 317.61 L631.03 319.21 L629.18 317.96 L627.49 316.48 L623.74 318.03 L621.96 316.73 L620.80 314.47 L618.85 313.41 L616.77 312.57 L614.60 311.89 L612.42 311.25 L610.96 309.39 L608.81 308.70 L607.39 306.73 L605.96 304.73 L602.70 306.13 L601.05 304.56 L598.55 304.61 L595.77 305.32 L593.70 304.62 L592.80 301.43 L590.57 301.02 L588.12 301.17 L586.31 299.86 L583.94 299.87 L581.22 300.80 L578.90 300.82 L577.60 298.23 L575.77 296.95 L572.51 299.61 L571.66 295.58 L569.90 294.03 L567.15 295.42 L565.36 293.95 L563.82 291.58 L561.94 290.27 L559.77 289.91 L557.84 288.69 L555.47 289.07 L553.19 289.21 L551.04 288.85 L549.12 287.51 L546.66 288.51 L544.16 289.91 L542.26 288.46 L540.53 286.01 L538.02 287.65 L535.98 286.75 L534.38 283.06 L532.15 283.15 L529.96 282.94 L527.78 282.69 L525.53 283.13 L523.27 283.72 L520.84 286.21 L518.73 285.67 L516.47 286.95 L514.34 286.79 L512.24 286.05 L510.10 285.98 L508.07 282.88 L505.92 282.14 L503.73 282.68 L501.56 282.93 L499.39 283.59 L497.27 287.32 L495.14 287.40 L493.02 287.37 L490.94 288.58 L488.71 286.44 L486.53 285.87 L484.68 290.06 L482.48 288.94 L480.49 290.42 L478.29 289.61 L476.09 288.98 L474.40 292.64 L472.08 291.03 L470.00 291.43 L468.48 295.38 L466.69 297.23 L464.63 297.38 L462.71 298.33 L460.67 298.58 L458.60 298.67 L456.60 299.19 L454.65 299.87 L452.61 300.17 L450.59 300.53 L448.65 301.23 L446.66 301.74 L444.65 302.18 L442.70 302.84 L440.75 303.50 L439.12 305.13 L437.31 306.19 L435.47 307.10 L433.19 306.72 L431.68 308.60 L429.93 309.72 L426.48 306.34 L425.20 308.77 L423.24 309.38 L419.75 306.34 L418.24 308.14 L417.31 311.22 L415.10 311.32 L413.98 313.83 L413.09 316.75 L411.67 318.46 L409.65 318.92 L407.94 320.03 L406.51 321.66 L404.20 321.60 L401.53 320.96 L398.93 320.51 L395.46 318.61 L393.91 320.10 L392.49 321.79 L389.55 320.99 L388.46 323.21 L387.10 324.95 L384.99 325.53 L383.56 327.15 L381.71 328.14 L380.01 329.36 L381.01 334.31 L380.19 336.65 L378.21 337.38 L378.21 340.74 L375.53 340.56 L375.11 343.27 L373.63 344.63 L371.46 345.15 L372.25 349.19 L371.04 350.82 L368.91 351.39 L367.42 352.70 L366.42 354.54 L364.17 355.02 L363.14 356.82 L362.22 358.71 L360.39 359.67 L359.50 361.57 L357.92 362.79 L356.43 364.10 L355.30 365.74 L354.14 367.36 L352.89 368.88 L352.10 370.81 L351.30 372.72 L350.35 374.48 L348.79 375.71 L348.16 377.73 L348.09 380.16 L345.20 380.37 L342.95 381.12 L342.32 383.10 L340.49 384.20 L337.09 384.20 L335.94 385.83 L334.54 387.30 L334.53 389.69 L333.18 391.19 L333.85 393.98 L334.90 396.96 L333.69 398.50 L333.54 400.68 L333.18 402.71 L332.33 404.45 L331.86 406.40 L329.34 407.22 L327.84 408.62 L328.35 411.08 L326.67 412.40 L323.98 413.24 L326.29 416.52 L326.22 418.62 L323.98 419.71 L325.26 422.39 L323.68 423.79 L325.09 426.47 L327.61 429.55 L325.77 430.82 L327.17 433.37 L325.32 434.66 L324.12 436.21 L325.61 438.71 L323.00 439.77 L323.38 441.87 L324.68 444.23 L324.48 446.10 L323.55 447.74 L323.05 449.51 L322.85 451.36 L321.95 453.02 L321.31 454.76 L321.09 456.60 L319.66 458.16 L319.21 459.96 L317.57 461.50 L316.15 463.12 L315.49 464.91 L313.92 466.53 L313.31 468.34 L313.21 470.25 L313.64 472.22 L314.64 474.26 L314.32 476.11 L315.92 478.18 L317.55 480.23 L315.30 481.85 L315.38 483.72 L314.50 485.51 L313.87 487.33 L310.83 489.02 L309.73 490.87 L311.42 492.84 L311.35 494.72 L311.86 496.62 L314.75 498.52 L315.72 500.38 L316.98 502.20 L318.52 504.00 L317.37 505.85 L317.66 507.67 L317.92 509.48 L316.15 511.42 L317.10 513.20 L320.96 514.72 L319.72 516.64 L319.88 518.44 L322.77 519.94 L322.36 521.79 L320.77 523.80 L320.07 525.73 L319.75 527.62 L322.04 529.09 L322.37 530.86 L322.71 532.64 L324.86 534.05 L325.05 535.83 L325.89 537.48 L326.17 539.24 L327.76 540.70 L329.38 542.12 L330.98 543.52 L331.36 545.23 L331.91 546.89 L332.45 548.55 L332.59 550.33 L333.67 551.82 L334.20 553.48 L334.24 555.30 L334.70 557.00 L335.21 558.67 L335.59 560.39 L336.17 562.05 L337.43 563.44 L338.09 565.05 L339.05 566.54 L340.85 567.67 L341.13 569.44 L341.90 570.99 L342.21 572.76 L344.96 573.37 L345.89 574.83 L343.51 577.93 L346.16 578.54 L345.76 580.70 L346.38 582.34 L348.11 583.38 L348.30 585.26 L350.10 586.23 L351.19 587.60 L350.08 590.28 L349.83 592.49 L352.64 592.81 L354.90 593.42 L355.47 595.12 L358.01 595.49 L358.83 597.00 L358.29 599.47 L358.23 601.65 L360.80 601.93 L362.32 602.94 L362.07 605.30 L363.92 606.05 L363.97 608.22 L362.79 611.42 L363.45 613.17 L365.33 613.90 L367.55 614.31 L371.91 612.81 L373.98 613.24 L374.59 614.98 L377.14 614.93 L378.67 615.79 L380.57 616.28 L381.57 617.63 L382.36 619.21 L385.03 618.86 L385.30 620.98 L384.32 624.49 L385.48 625.74 L388.12 625.33 L389.97 625.77 L391.15 626.96 L393.86 626.34 L394.87 627.70 L392.91 632.77 L392.97 635.44 L395.05 635.57 L394.85 638.67 L395.89 640.19 L398.59 639.46 L400.38 639.91 L400.87 642.21 L402.73 642.55 L404.18 643.49 L406.71 642.77 L410.29 640.34 L411.82 641.03 L413.02 642.26 L414.90 642.38 L416.39 643.10 L417.99 643.64 L418.82 645.55 L420.35 646.23 L423.14 644.52 L423.92 646.58 L424.27 649.54 L426.20 649.41 L429.20 647.03 L430.36 648.40 L431.89 648.99 L434.33 647.55 L435.23 649.52 L436.19 651.45 L437.80 651.86 L440.36 649.87 L441.39 651.66 L442.72 652.76 L446.12 648.17 L447.21 649.81 L447.46 654.02 L449.78 652.19 L451.16 653.11 L451.96 655.97 L454.54 653.05 L455.77 654.52 L457.43 654.56 L459.26 653.90 L460.91 653.90 L463.08 651.70 L464.19 653.81 L465.65 654.53 L467.52 653.34 L468.45 656.63 L469.87 657.72 L471.53 657.58 L473.64 654.70 L475.21 654.83 L476.84 654.55 L478.67 652.72 L479.90 655.28 L480.93 659.82 L482.50 660.28 L484.24 659.09 L485.61 661.71 L487.17 662.51 L488.95 660.39 L490.49 661.60 L492.07 662.54 L493.70 662.44 L495.35 661.79 L497.02 658.74 L498.63 656.96 L500.20 657.31 L501.73 654.15 L503.28 654.53 L504.84 655.00 L506.29 652.48 L507.89 653.91 L509.44 654.01 L510.86 652.23 L512.54 654.01 L514.27 656.00 L515.65 654.04 L516.80 650.44 L518.49 651.75 L519.93 650.97 L521.33 650.01 L523.03 651.14 L524.83 652.67 L526.20 651.52 L527.25 648.68 L529.08 650.18 L530.54 649.69 L532.14 649.89 L534.09 651.57 L535.98 652.82 L537.37 651.90 L538.56 650.25 L539.33 647.11 L540.03 643.96 L541.75 644.52 L542.55 641.95 L543.92 641.37 L545.19 640.46 L546.36 639.31 L548.06 639.73 L548.96 637.87 L550.44 637.66 L552.67 639.41 L554.44 639.85 L555.24 637.82 L555.89 635.49 L557.09 634.57 L557.84 632.63 L559.01 631.70 L562.12 635.01 L564.97 637.56 L565.61 635.39 L567.44 635.70 L569.22 635.84 L569.94 633.95 L570.99 632.70 L572.74 632.76 L573.99 631.90 L575.25 631.04 L575.62 628.70 L574.15 623.36 L575.76 623.22 L577.70 623.59 L577.74 620.95 L579.13 620.45 L580.10 619.30 L581.14 618.29 L583.02 618.47 L583.03 616.01 L584.47 615.55 L587.54 617.28 L588.56 616.20 L587.63 612.62 L588.63 611.59 L590.17 611.22 L589.57 608.26 L591.69 608.58 L594.28 609.41 L595.09 608.15 L594.37 605.19 L596.32 605.23 L597.98 604.92 L595.57 600.30 L596.55 599.32 L600.63 601.47 L600.48 599.32 L601.10 597.95 L603.28 598.08 L601.38 594.37 L602.67 593.67 L603.71 592.73 L603.23 590.45 L604.48 589.73 L603.69 587.26 L605.78 587.22 L607.03 586.47 L605.87 583.80 L608.98 584.50 L611.35 584.57 L611.97 583.29 L610.36 580.39 L611.14 579.27 L612.33 578.44 L610.58 575.58 L613.06 575.63 L617.21 576.72 L617.59 575.30 L616.44 572.93 L619.46 573.17 L620.50 572.16 L619.23 569.79 L621.96 569.76 L623.59 569.06 L624.28 567.82 L622.62 565.34 L620.97 562.91 L619.15 560.46 L617.03 557.92 L615.04 555.51 L615.52 554.32 L617.05 553.62 L616.52 551.97 L616.89 550.74 L618.19 549.91 L618.17 548.51 L615.72 546.16 L615.15 544.60 L616.00 543.61 L616.00 542.28 L612.82 539.85 L612.52 538.49 L612.27 537.15 L609.28 534.95 L608.56 533.53 L607.92 532.15 L607.10 530.74 L606.16 529.33 L605.05 527.90 L604.24 526.57 L602.89 525.13 L602.17 523.87 L601.93 522.75 L601.68 521.62 L601.55 520.54 L601.47 519.47 L601.28 518.38 L601.12 517.31 L601.08 516.27 L600.96 515.21 L600.77 514.15 L600.62 513.11 L600.55 512.08 L600.39 511.04 L600.22 510.01 L600.10 508.99 L599.93 507.97 L599.74 506.95 L599.56 505.94 L599.37 504.93 L599.15 503.92 L598.93 502.92 L598.72 501.93 L598.50 500.94 Z"/>
  <svg class="pausebutton" id="pausebutton">
    <circle cx="500" cy="500" id="pausestart" class="pausestart" r="52.65"/>
    <rect height="50.02" width="10.00" y="473.68" rx="2.00" ry="2.00" x="479.99" class="pausesymbol"/>
    <rect height="50.02" width="10.00" y="473.68" rx="2.00" ry="2.00" x="510.00" class="pausesymbol"/>
    <polygon points="530.01,500 479.99,530.01 479.99,469.99" class="playsymbol"/>
  </svg>
  <polygon id="playback-head" class="playback-head" points="941.65,500 921.65,540 961.65,540"/>
</svg>