<?xml-stylesheet href="../../style/waveformjs.css" type="text/css"?>
<svg xmlns="http://www.w3.org/2000/svg" xmlns:xlink="http://www.w3.org/1999/xlink" width="100%" height="100%" viewBox="0 0 1000 1000">
  <path class="svg-wave" id="sp" d="M577.39 500.00 L577.58 500.78 L576.98 501.54 L577.25 502.32 L576.26 503.05 L576.27 503.82 L576.78 504.61 L576.26 505.35 L576.91 506.17 L575.87 506.85 L575.50 507.57 L574.72 508.25 L574.31 508.96 L574.82 509.78 L574.88 510.55 L574.60 511.27 L574.51 512.02 L573.86 512.68 L573.85 513.44 L574.99 514.42 L577.25 515.66 L578.78 516.79 L578.51 517.56 L576.72 517.96 L578.88 519.30 L576.77 519.60 L579.06 521.03 L578.15 521.63 L579.08 522.74 L577.77 523.21 L580.52 524.91 L579.54 525.48 L580.52 526.68 L580.01 527.41 L580.98 528.65 L580.74 529.47 L580.65 530.36 L581.10 531.45 L581.52 532.56 L581.56 533.52 L581.27 534.36 L580.88 535.15 L580.93 536.14 L581.04 537.16 L580.96 538.11 L581.04 539.15 L580.33 539.80 L579.51 540.39 L578.77 541.01 L577.25 541.20 L576.10 541.57 L576.24 542.65 L575.46 543.20 L576.37 544.75 L574.16 544.45 L575.88 546.52 L572.67 545.56 L574.43 547.71 L573.75 548.32 L573.62 549.30 L572.56 549.64 L571.51 549.98 L569.07 549.31 L568.49 549.94 L569.57 551.80 L570.10 553.29 L572.75 556.46 L573.06 557.88 L572.57 558.68 L571.74 559.21 L571.09 559.88 L570.19 560.33 L570.65 561.96 L570.44 563.03 L569.76 563.70 L569.81 565.04 L568.71 565.30 L568.60 566.52 L568.02 567.29 L566.87 567.49 L566.39 568.36 L566.53 569.89 L567.30 572.13 L568.06 574.42 L567.49 575.29 L568.69 578.19 L568.03 579.02 L569.32 582.17 L568.80 583.22 L566.29 581.84 L564.99 581.90 L563.75 582.01 L563.11 582.88 L562.42 583.70 L561.15 583.73 L559.91 583.77 L558.80 583.99 L557.74 584.25 L556.94 584.89 L556.08 585.45 L555.13 585.86 L554.80 587.26 L553.99 587.91 L552.84 587.99 L551.99 588.57 L550.75 588.48 L549.58 588.47 L549.00 589.53 L548.15 590.09 L547.31 590.70 L546.44 591.25 L545.62 591.89 L545.30 593.59 L545.38 596.19 L544.97 597.85 L543.77 597.81 L544.68 602.57 L542.64 600.63 L543.82 606.37 L542.90 607.17 L542.04 608.12 L541.23 609.28 L540.51 610.70 L539.05 610.11 L536.86 607.34 L534.44 603.65 L532.89 602.40 L530.59 598.60 L530.04 600.37 L528.71 599.53 L527.63 599.53 L526.63 599.78 L525.48 599.44 L524.56 600.03 L524.36 603.66 L523.96 606.74 L523.68 610.65 L522.84 612.21 L521.91 613.43 L520.46 611.95 L519.50 613.06 L518.18 612.08 L516.86 610.94 L515.42 608.77 L514.09 607.10 L512.83 605.70 L512.12 608.97 L511.61 614.75 L510.89 619.59 L510.26 626.70 L508.98 626.69 L507.74 627.13 L506.47 627.28 L505.20 627.48 L503.93 627.55 L502.65 627.61 L501.38 627.44 L500.10 627.06 L498.83 626.99 L497.57 626.32 L496.33 625.62 L495.14 623.89 L494.01 621.71 L492.86 620.40 L491.77 618.69 L490.59 618.57 L489.42 618.30 L488.22 618.39 L487.06 618.05 L485.90 617.72 L484.66 618.08 L483.12 620.48 L481.66 622.04 L480.22 623.21 L479.17 621.94 L477.23 625.68 L476.64 622.01 L475.15 623.08 L474.34 620.86 L473.72 617.95 L471.80 620.86 L470.18 622.29 L467.92 626.07 L466.66 625.72 L465.36 625.54 L464.07 625.33 L462.90 624.70 L461.64 624.37 L460.46 623.77 L459.23 623.36 L458.00 622.95 L456.68 622.79 L455.58 622.00 L454.33 621.63 L453.29 620.71 L452.14 620.10 L450.98 619.52 L449.74 619.15 L448.47 618.82 L446.93 619.08 L444.97 620.25 L443.34 620.61 L442.81 618.63 L442.20 616.90 L439.76 618.82 L440.45 614.62 L437.32 617.75 L437.54 614.55 L437.13 612.60 L435.92 612.13 L434.62 611.79 L433.11 611.79 L432.14 610.88 L430.57 610.94 L430.08 609.27 L429.15 608.33 L428.24 607.36 L427.50 606.15 L425.94 606.14 L424.88 605.40 L423.59 604.98 L422.57 604.17 L421.92 602.87 L420.49 602.62 L419.69 601.53 L418.04 601.52 L417.15 600.54 L416.17 599.69 L414.81 599.27 L412.29 600.16 L410.05 600.67 L408.78 600.06 L410.16 596.59 L408.87 596.03 L408.73 594.27 L404.93 596.25 L401.33 597.92 L399.26 598.00 L396.87 598.33 L395.02 598.11 L393.13 597.90 L393.32 595.78 L394.16 593.13 L393.92 591.48 L394.30 589.32 L394.82 587.09 L392.89 586.90 L391.95 585.89 L389.94 585.70 L388.48 585.06 L387.06 584.37 L387.68 582.17 L384.70 582.59 L382.48 582.41 L382.56 580.62 L381.70 579.48 L383.23 576.77 L381.81 576.02 L379.27 575.96 L376.82 575.79 L375.66 574.80 L375.49 573.22 L375.10 571.78 L374.53 570.44 L373.60 569.31 L370.99 569.07 L371.40 567.21 L369.57 566.51 L368.90 565.21 L367.24 564.39 L366.85 562.94 L366.59 561.44 L366.77 559.75 L366.22 558.40 L365.31 557.20 L362.71 556.69 L362.61 555.13 L360.75 554.27 L362.15 552.14 L359.54 551.53 L359.41 549.98 L358.22 548.82 L359.52 546.80 L360.59 544.90 L358.34 544.07 L359.34 542.22 L354.35 542.13 L355.02 540.37 L353.17 539.31 L351.65 538.13 L350.15 536.92 L345.76 536.37 L344.78 534.97 L345.71 533.14 L348.88 530.88 L349.71 529.15 L355.35 526.56 L354.04 525.30 L356.70 523.36 L353.69 522.35 L350.56 521.30 L347.47 520.19 L346.71 518.73 L344.74 517.40 L345.92 515.71 L344.64 514.27 L344.92 512.68 L342.42 511.30 L343.59 509.65 L343.49 508.08 L346.31 506.40 L346.35 504.86 L349.80 503.24 L347.83 501.76 L343.50 500.25 L345.19 498.70 L339.06 497.04 L339.75 495.45 L336.95 493.73 L336.71 492.09 L335.01 490.35 L334.80 488.68 L335.88 487.11 L336.77 485.53 L340.80 484.28 L343.86 483.01 L345.34 481.60 L348.83 480.48 L349.61 479.05 L350.37 477.63 L349.71 475.99 L347.35 474.05 L347.72 472.54 L345.99 470.64 L348.16 469.47 L349.97 468.27 L343.20 465.20 L352.25 465.65 L347.69 462.98 L355.18 463.27 L354.38 461.51 L353.30 459.65 L346.20 456.04 L346.28 454.39 L336.84 449.81 L340.03 449.04 L342.64 448.13 L347.75 448.12 L346.73 446.06 L350.64 445.75 L344.88 441.90 L343.52 439.60 L342.51 437.39 L341.53 435.15 L342.18 433.57 L350.07 435.12 L350.04 433.32 L356.33 434.39 L350.16 429.75 L349.38 427.54 L345.26 423.64 L345.12 421.63 L347.76 421.05 L348.82 419.67 L352.69 419.83 L352.80 417.97 L351.95 415.54 L351.68 413.41 L350.82 410.90 L352.31 409.77 L352.42 407.80 L356.25 408.18 L361.43 409.53 L358.40 405.52 L364.03 407.29 L357.43 400.69 L357.64 398.71 L358.67 397.30 L360.50 396.48 L363.13 396.30 L365.03 395.60 L364.42 392.94 L363.55 390.01 L362.69 387.04 L365.91 387.42 L371.52 389.93 L371.78 387.91 L377.82 391.01 L374.12 385.43 L373.92 382.92 L373.91 380.54 L373.35 377.58 L376.29 378.01 L372.80 372.04 L376.58 373.32 L373.26 367.29 L375.95 367.48 L375.60 364.41 L377.87 364.18 L377.97 361.54 L379.83 360.87 L380.92 359.31 L383.18 359.14 L384.51 357.87 L383.83 354.08 L385.93 353.75 L386.76 351.77 L393.19 357.26 L391.83 352.39 L396.74 356.08 L393.70 348.68 L393.03 344.44 L393.81 342.22 L395.38 341.15 L399.83 344.54 L405.72 350.41 L405.64 346.91 L410.17 350.95 L407.61 343.18 L408.94 341.83 L410.26 340.47 L412.21 340.20 L414.08 339.85 L414.58 336.88 L415.94 335.49 L416.53 332.53 L418.73 332.78 L418.62 328.21 L421.15 329.15 L420.39 322.86 L422.41 322.64 L424.10 321.68 L426.49 322.38 L428.94 323.31 L430.15 321.17 L432.31 321.46 L433.59 319.42 L435.38 318.71 L437.62 319.30 L439.17 317.89 L441.35 318.41 L442.35 315.20 L444.20 314.64 L446.98 317.28 L448.27 314.82 L451.82 320.61 L452.52 315.90 L455.43 319.72 L456.68 316.96 L458.68 317.28 L459.56 312.46 L462.05 315.06 L463.92 314.77 L465.87 314.97 L468.06 316.57 L468.95 310.47 L470.46 307.68 L472.10 305.39 L474.09 305.45 L476.17 306.29 L478.49 309.46 L480.25 307.79 L482.07 306.52 L483.88 304.85 L486.13 308.70 L487.97 307.35 L490.14 311.96 L492.06 312.69 L493.84 309.85 L495.73 309.13 L497.59 305.85 L499.52 300.97 L501.54 297.34 L503.57 297.11 L505.48 301.47 L507.52 300.10 L509.35 303.82 L511.55 299.74 L513.73 297.24 L515.72 297.86 L517.86 296.67 L519.76 298.25 L521.75 298.67 L523.56 300.63 L525.44 301.69 L527.09 304.38 L529.25 303.29 L531.47 302.02 L533.80 300.25 L536.04 299.24 L538.00 299.84 L540.26 298.95 L541.82 301.48 L544.22 300.01 L546.29 300.17 L548.74 298.76 L551.11 297.82 L553.22 297.98 L554.54 301.09 L556.67 301.14 L557.78 304.67 L560.57 302.53 L563.07 301.48 L565.46 300.87 L567.13 302.49 L568.60 304.59 L569.44 308.36 L570.37 311.69 L571.79 313.59 L573.51 314.67 L575.41 315.29 L577.30 315.94 L578.51 318.17 L580.21 319.24 L581.65 320.84 L584.34 319.74 L587.06 318.66 L589.18 318.92 L589.88 322.01 L590.57 325.02 L591.53 327.41 L594.19 326.61 L596.80 325.98 L599.18 325.81 L606.38 317.45 L606.13 321.99 L612.67 315.24 L614.51 316.38 L612.81 323.07 L615.96 322.08 L615.78 326.19 L619.60 324.28 L621.21 325.69 L622.63 327.36 L624.59 328.26 L626.86 328.76 L628.50 330.12 L632.73 328.13 L633.45 330.73 L635.72 331.34 L637.60 332.47 L639.00 334.17 L640.15 336.15 L641.84 337.50 L644.00 338.32 L645.77 339.59 L647.85 340.53 L651.23 340.13 L652.14 342.35 L654.56 343.02 L656.85 343.84 L656.57 347.20 L657.91 348.95 L661.15 348.91 L662.21 350.94 L666.93 349.65 L668.92 350.89 L669.60 353.28 L668.61 357.06 L668.35 360.15 L668.70 362.69 L672.34 362.57 L675.20 363.13 L676.54 364.90 L671.62 371.37 L668.95 375.99 L665.74 380.88 L666.18 383.06 L669.31 383.37 L675.37 381.77 L678.50 382.24 L684.27 381.06 L688.75 380.82 L690.43 382.41 L693.06 383.44 L693.79 385.62 L696.15 386.86 L697.18 388.88 L700.35 389.72 L700.21 392.39 L702.05 393.99 L701.03 397.08 L702.73 398.75 L706.23 399.57 L707.58 401.47 L710.55 402.62 L709.40 405.68 L709.11 408.32 L705.67 412.27 L707.09 414.10 L711.25 414.84 L713.57 416.38 L717.80 417.22 L716.21 420.30 L718.18 422.04 L712.55 426.44 L716.90 427.35 L718.41 429.27 L719.06 431.47 L724.20 432.32 L721.92 435.42 L721.07 438.06 L721.63 440.29 L721.80 442.61 L723.99 444.43 L727.04 446.08 L727.33 448.40 L728.67 450.50 L730.26 452.56 L730.40 454.93 L731.00 457.20 L730.59 459.66 L733.18 461.61 L733.65 463.93 L737.09 465.82 L737.22 468.22 L737.26 470.62 L738.83 472.85 L736.34 475.53 L739.54 477.61 L739.95 479.99 L740.50 482.37 L741.15 484.74 L738.19 487.32 L739.15 489.67 L736.58 492.15 L740.43 494.42 L742.56 496.80 L743.54 499.22 L742.99 501.66 L739.48 504.03 L738.71 506.40 L737.29 508.74 L737.87 511.14 L740.45 513.68 L741.02 516.13 L739.90 518.46 L740.04 520.89 L741.05 523.41 L741.21 525.86 L742.91 528.51 L742.87 530.97 L743.75 533.56 L743.41 535.99 L745.34 538.79 L744.57 541.18 L745.86 543.93 L744.46 546.21 L746.01 549.05 L745.67 551.54 L745.25 554.02 L743.44 556.18 L739.58 557.82 L739.35 560.30 L732.67 561.10 L735.13 564.27 L734.26 566.55 L736.67 569.80 L739.53 573.26 L736.67 574.98 L730.67 575.63 L732.57 578.83 L726.59 579.34 L729.56 582.97 L728.96 585.35 L727.24 587.31 L727.54 590.04 L728.16 592.94 L728.06 595.57 L728.32 598.37 L726.97 600.49 L725.19 602.41 L724.66 604.89 L723.74 607.20 L724.26 610.22 L723.35 612.56 L722.13 614.74 L722.88 617.97 L721.67 620.18 L724.90 624.86 L724.46 627.57 L723.39 629.94 L715.66 628.34 L711.62 628.82 L707.47 629.15 L702.92 629.16 L705.14 633.47 L707.34 637.87 L707.07 640.70 L707.15 643.80 L706.26 646.26 L703.16 647.14 L702.25 649.59 L703.83 653.93 L701.41 655.29 L701.27 658.42 L699.45 660.24 L698.06 662.41 L697.87 665.59 L697.80 668.92 L695.84 670.66 L692.80 671.44 L691.74 673.96 L688.09 674.11 L689.76 679.21 L688.56 681.68 L685.77 682.61 L685.73 686.26 L681.26 685.45 L682.26 690.24 L681.17 692.92 L679.94 695.50 L677.81 697.11 L674.16 696.98 L672.99 699.65 L669.06 699.10 L669.29 703.46 L667.98 706.04 L666.86 708.90 L665.19 711.11 L660.77 709.74 L656.70 708.73 L652.55 707.49 L649.54 707.72 L647.44 709.17 L647.09 713.17 L645.74 715.80 L644.96 719.34 L642.87 720.96 L641.97 724.46 L638.84 724.45 L638.54 729.05 L636.86 731.46 L635.11 733.82 L633.12 735.78 L629.99 735.70 L626.87 735.59 L623.59 735.10 L620.66 735.20 L618.69 737.18 L617.07 739.90 L615.49 742.81 L613.21 744.28 L610.70 745.25 L609.14 748.40 L605.89 747.69 L604.09 750.40 L601.85 752.07 L599.31 753.05 L596.88 754.32 L594.30 755.18 L592.51 758.23 L589.54 758.06 L587.35 760.12 L583.15 756.08 L581.43 759.58 L577.16 754.88 L576.19 761.04 L573.94 763.07 L571.62 764.97 L569.28 766.90 L566.49 767.09 L564.20 769.35 L561.67 770.72 L559.38 773.23 L556.64 773.79 L554.27 776.25 L551.37 776.04 L549.05 779.08 L546.22 779.33 L543.67 781.38 L540.60 780.02 L537.75 780.06 L534.61 777.75 L531.48 775.02 L528.40 772.11 L525.55 771.10 L523.06 773.98 L520.43 775.60 L517.88 779.09 L514.95 776.71 L512.06 774.03 L509.28 773.00 L506.51 771.29 L503.84 774.71 L501.10 776.67 L498.33 778.27 L495.50 780.92 L492.66 782.17 L489.75 784.45 L486.87 785.09 L484.11 783.31 L481.20 784.31 L478.46 782.86 L475.55 783.48 L472.78 782.62 L470.00 781.88 L467.16 781.80 L464.24 782.25 L460.88 785.81 L457.83 786.75 L454.88 786.87 L452.69 782.35 L450.08 780.69 L447.76 777.61 L445.33 775.34 L442.11 777.01 L438.97 778.10 L436.22 777.37 L433.69 775.73 L431.22 773.90 L429.07 770.97 L425.64 772.90 L422.44 773.82 L419.60 773.40 L417.01 772.13 L414.95 769.18 L412.18 768.57 L409.05 769.03 L405.56 770.41 L402.24 771.15 L399.00 771.62 L396.57 769.86 L393.62 769.46 L390.92 768.39 L388.35 767.03 L386.09 764.96 L382.47 766.03 L380.60 763.11 L376.05 766.02 L372.83 765.96 L369.74 765.56 L367.38 763.67 L365.78 760.33 L364.13 757.19 L363.15 752.89 L358.61 755.16 L356.18 753.52 L351.45 755.86 L348.60 754.87 L347.41 751.12 L344.01 751.03 L341.94 748.77 L338.17 749.16 L336.58 746.19 L333.39 745.63 L332.29 742.00 L329.45 740.92 L326.61 739.80 L323.61 738.88 L321.27 737.06 L317.94 736.53 L315.21 735.17 L312.05 734.33 L308.96 733.36 L306.83 731.21 L305.93 727.61 L303.39 725.97 L302.71 722.23 L299.31 721.56 L296.73 719.94 L294.14 718.33 L291.40 716.85 L291.65 712.30 L292.10 707.65 L289.06 706.51 L289.71 701.79 L283.22 703.89 L279.81 702.99 L276.21 702.21 L272.27 701.67 L271.95 697.92 L271.35 694.46 L269.96 691.71 L269.04 688.60 L266.78 686.59 L265.96 683.44 L265.70 679.89 L264.74 676.91 L262.62 674.82 L259.76 673.25 L256.00 672.28 L252.86 670.81 L253.80 666.55 L244.03 669.46 L246.50 664.20 L236.39 667.03 L236.74 663.14 L236.19 659.85 L234.65 657.18 L233.66 654.19 L229.14 653.21 L226.60 651.06 L225.30 648.21 L226.08 644.27 L225.05 641.32 L227.18 636.79 L226.97 633.50 L225.63 630.77 L223.16 628.57 L219.33 626.95 L215.33 625.35 L213.71 622.66 L213.30 619.45 L210.79 617.12 L209.86 614.13 L206.44 612.10 L206.59 608.69 L204.58 606.09 L205.57 602.42 L202.49 600.17 L200.66 597.47 L198.58 594.82 L197.53 591.84 L197.87 588.44 L195.08 585.96 L195.21 582.64 L191.19 580.43 L192.10 576.91 L191.88 573.70 L190.31 570.81 L189.69 567.69 L184.97 565.43 L183.63 562.41 L183.88 559.09 L186.89 555.29 L186.64 552.11 L192.70 547.95 L189.41 545.28 L188.13 542.29 L186.06 539.38 L184.52 536.37 L187.48 532.87 L184.51 529.99 L183.95 526.86 L179.65 524.00 L180.60 520.72 L181.70 517.45 L184.49 514.14 L184.00 510.99 L181.33 507.90 L179.57 504.74 L178.05 501.54 L178.63 498.32 L177.47 495.09 L177.91 491.87 L175.12 488.55 L177.01 485.38 L184.88 482.58 L177.96 478.97 L185.78 476.32 L175.15 472.25 L174.90 468.95 L173.25 465.49 L175.49 462.44 L177.56 459.41 L176.79 456.03 L177.58 452.85 L175.06 449.15 L173.13 445.50 L172.96 442.10 L175.26 439.15 L177.66 436.26 L180.44 433.48 L183.14 430.73 L184.47 427.71 L186.01 424.75 L186.45 421.53 L188.16 418.64 L188.99 415.52 L189.55 412.33 L190.76 409.32 L190.50 405.88 L189.51 402.18 L188.84 398.53 L188.62 395.01 L190.61 392.22 L190.24 388.60 L192.27 385.85 L191.07 381.87 L193.00 379.08 L193.88 375.88 L194.58 372.59 L195.70 369.47 L194.83 365.46 L195.08 361.92 L195.86 358.59 L197.59 355.70 L200.51 353.40 L199.46 349.14 L202.03 346.68 L198.83 341.20 L199.86 337.89 L201.00 334.62 L202.49 331.54 L203.07 327.93 L204.74 324.93 L209.99 324.09 L220.48 326.61 L224.09 325.01 L230.30 325.14 L228.39 320.01 L227.08 315.19 L225.18 309.87 L225.59 306.07 L225.76 302.05 L227.02 298.77 L228.15 295.38 L229.17 291.87 L230.42 288.51 L231.74 285.18 L235.78 284.04 L235.44 279.32 L239.55 278.29 L238.25 272.64 L240.11 269.64 L242.37 267.01 L244.57 264.31 L247.86 262.64 L250.67 260.53 L252.32 257.31 L254.92 255.01 L256.01 251.16 L259.16 249.42 L262.91 248.33 L267.78 248.50 L271.13 247.11 L272.16 243.13 L274.89 241.03 L274.45 235.23 L278.84 235.06 L283.12 234.85 L285.07 231.79 L288.91 231.12 L289.38 226.13 L291.14 222.71 L293.46 220.01 L296.18 217.84 L299.68 216.76 L301.10 212.71 L304.64 211.71 L305.61 206.88 L309.81 206.88 L312.71 204.93 L316.10 203.77 L318.55 201.09 L320.16 196.95 L322.65 194.22 L325.37 191.84 L329.25 191.55 L333.01 191.08 L335.28 187.86 L338.80 186.98 L340.05 181.64 L344.09 181.79 L348.78 183.38 L352.22 182.46 L355.97 182.25 L358.15 178.54 L361.20 176.74 L364.41 175.31 L367.53 173.64 L371.21 173.37 L374.23 171.43 L377.47 170.05 L381.55 170.98 L384.27 168.18 L387.57 166.95 L390.19 163.67 L393.53 162.48 L396.54 160.23 L399.69 158.33 L402.67 155.80 L406.08 154.70 L410.45 157.27 L413.59 155.25 L417.85 157.76 L420.34 152.85 L423.50 150.65 L427.01 149.97 L430.73 150.32 L433.42 145.36 L437.30 146.58 L439.81 139.78 L443.35 138.80 L446.95 138.15 L450.65 138.23 L454.24 137.48 L457.77 136.26 L461.34 135.18 L464.93 134.21 L468.88 137.25 L472.65 138.82 L476.16 136.95 L479.83 137.40 L483.29 133.66 L487.00 134.59 L490.67 135.07 L494.34 136.59 L497.97 135.60 L501.61 136.03 L505.25 136.13 L508.89 136.26 L512.52 136.55 L516.15 136.66 L519.78 136.96 L523.40 137.35 L527.03 137.51 L530.63 138.10 L534.27 138.20 L537.86 138.76 L541.46 139.29 L545.07 139.67 L548.58 140.75 L552.21 141.03 L555.72 142.03 L559.28 142.73 L562.81 143.55 L566.28 144.71 L569.79 145.57 L573.24 146.75 L576.69 147.83 L580.10 149.11 L583.49 150.39 L587.21 150.36 L591.31 148.90 L595.10 148.79 L598.91 148.66 L602.23 150.32 L606.02 150.37 L609.50 151.47 L613.85 149.93 L618.51 147.60 L622.27 148.13 L626.92 146.19 L629.72 149.45 L633.15 150.96 L636.77 151.94 L640.44 152.84 L645.23 151.09 L648.99 151.92 L652.43 153.49 L654.82 157.39 L657.75 160.01 L661.86 160.09 L664.94 162.37 L670.37 159.92 L672.48 164.14 L674.70 168.04 L676.63 172.35 L678.37 176.90 L683.81 174.77 L686.18 178.15 L692.16 175.33 L695.11 177.75 L698.64 179.20 L702.38 180.36 L706.05 181.64 L709.47 183.35 L713.29 184.48 L716.21 186.94 L718.96 189.65 L721.61 192.47 L725.88 193.06 L728.54 195.86 L732.67 196.74 L733.92 201.34 L738.22 202.03 L739.32 206.71 L745.48 205.24 L748.93 207.10 L752.49 208.86 L754.46 212.45 L755.88 216.60 L760.62 217.09 L762.16 221.07 L768.64 219.84 L770.87 223.12 L771.61 227.86 L771.26 233.59 L769.71 240.36 L771.75 243.58 L775.69 245.03 L781.52 244.82 L788.85 243.39 L793.46 244.49 L796.29 247.19 L798.56 250.37 L800.13 254.12 L803.67 256.25 L805.10 260.08 L808.18 262.61 L809.35 266.60 L813.04 268.69 L815.07 272.03 L819.59 273.59 L820.74 277.56 L820.45 282.47 L823.97 284.78 L823.79 289.54 L829.46 290.51 L832.20 293.40 L835.21 296.15 L837.38 299.43 L837.20 304.07 L842.14 305.75 L841.98 310.33 L847.92 311.57 L850.68 314.58 L852.15 318.29 L854.24 321.67 L856.36 325.05 L858.43 328.46 L859.81 332.20 L861.19 335.94 L862.43 339.72 L861.96 344.24 L863.95 347.68 L865.37 351.36 L868.28 354.45 L871.75 357.36 L874.17 360.71 L874.33 364.90 L875.04 368.86 L877.08 372.37 L878.09 376.23 L881.44 379.34 L882.41 383.23 L882.64 387.33 L885.17 390.76 L885.93 394.70 L888.79 398.08 L889.99 401.92 L889.51 406.18 L888.16 410.60 L889.78 414.32 L890.67 418.21 L893.96 421.63 L897.12 425.12 L898.03 429.06 L899.20 432.96 L899.48 437.02 L900.80 440.91 L900.18 445.09 L899.92 449.19 L901.38 453.08 L902.03 457.07 L904.67 460.88 L907.22 464.74 L908.21 468.76 L909.09 472.81 L909.28 476.90 L910.35 480.96 L910.36 485.07 L911.53 489.15 L911.96 493.26 L912.26 497.37 L912.53 500.00 L912.25 495.88 L911.93 491.76 L912.17 487.63 L911.87 483.52 L911.69 479.40 L911.23 475.30 L910.52 471.22 L910.51 467.09 L910.49 462.96 L912.12 458.65 L912.45 454.45 L912.02 450.32 L911.70 446.18 L909.22 442.33 L907.91 438.35 L907.11 434.30 L905.55 430.38 L905.08 426.29 L904.53 422.20 L906.27 417.65 L906.07 413.45 L905.14 409.40 L903.11 405.61 L899.25 402.30 L897.26 398.56 L896.67 394.48 L896.18 390.36 L894.68 386.51 L893.82 382.48 L891.28 378.96 L889.83 375.13 L890.14 370.71 L887.53 367.26 L886.57 363.25 L883.85 359.88 L881.50 356.40 L881.24 352.13 L881.31 347.70 L879.72 343.91 L877.94 340.21 L875.51 336.79 L871.30 334.19 L869.44 330.57 L866.37 327.52 L864.32 324.01 L862.30 320.50 L860.58 316.84 L858.30 313.47 L855.97 310.13 L858.61 304.09 L855.16 301.34 L854.86 296.82 L851.12 294.28 L846.89 292.06 L844.99 288.48 L843.40 284.71 L841.25 281.27 L841.35 276.36 L836.13 274.94 L834.95 270.85 L829.86 269.46 L829.01 265.11 L826.68 261.82 L824.90 258.10 L821.63 255.50 L818.24 253.01 L815.16 250.31 L812.35 247.42 L809.61 244.47 L805.43 242.74 L802.70 239.82 L800.21 236.70 L799.90 231.62 L802.00 224.25 L800.47 220.08 L799.12 215.71 L793.39 215.51 L786.58 216.50 L780.73 216.67 L776.03 215.79 L772.86 213.37 L772.87 207.56 L767.90 207.06 L766.76 202.39 L761.72 202.07 L758.30 199.97 L755.56 197.08 L753.39 193.48 L751.90 189.01 L747.13 188.57 L744.37 185.65 L739.18 185.89 L737.44 181.62 L733.32 180.53 L731.21 176.68 L727.66 174.82 L723.14 174.40 L720.24 171.63 L716.55 170.05 L713.34 167.74 L710.17 165.36 L707.11 162.79 L703.45 161.20 L699.68 159.82 L698.28 154.34 L693.87 154.05 L692.22 148.81 L686.52 150.99 L682.09 150.91 L676.90 152.44 L672.49 152.54 L670.95 146.82 L666.24 147.61 L663.64 143.95 L658.93 144.86 L654.54 145.21 L650.93 143.80 L647.43 142.16 L645.25 137.19 L640.84 137.75 L637.70 135.06 L633.32 135.66 L629.21 135.66 L626.46 131.76 L623.00 129.84 L620.14 125.99 L616.97 122.92 L612.99 122.45 L609.38 120.76 L605.31 120.66 L601.71 118.89 L598.00 117.47 L594.61 114.71 L590.68 114.11 L586.63 114.03 L582.57 114.11 L578.50 114.32 L574.48 114.39 L570.45 114.61 L566.49 114.48 L562.52 114.56 L558.54 114.72 L554.56 115.06 L550.63 115.09 L546.68 115.47 L542.80 115.31 L538.88 115.61 L535.00 115.58 L531.09 115.99 L527.21 116.28 L523.34 116.59 L519.46 117.22 L515.62 117.32 L511.77 117.94 L507.94 118.49 L504.11 118.87 L500.30 119.49 L496.51 120.42 L492.71 120.36 L488.99 122.96 L485.26 124.09 L481.46 123.60 L477.59 121.84 L473.88 123.13 L470.05 122.67 L466.65 127.09 L463.13 129.60 L459.41 129.76 L455.66 129.81 L451.98 130.43 L448.36 131.41 L444.77 132.60 L441.17 133.59 L436.88 130.50 L432.97 129.99 L429.11 129.81 L425.31 130.03 L421.96 132.41 L418.24 133.02 L414.34 132.86 L410.22 131.86 L407.48 136.47 L403.75 137.04 L401.12 141.60 L396.77 139.93 L393.54 142.20 L389.31 141.16 L386.14 143.57 L382.32 143.93 L378.32 143.83 L374.75 145.03 L371.43 146.92 L368.64 150.16 L365.65 152.79 L361.76 153.08 L358.77 155.65 L355.37 157.16 L351.92 158.54 L348.24 159.43 L344.48 160.18 L341.87 163.43 L339.46 166.98 L337.89 172.15 L335.21 174.94 L330.24 173.29 L328.10 177.10 L323.98 177.19 L321.95 181.09 L319.25 183.73 L316.02 185.42 L312.48 186.61 L307.54 185.53 L305.72 189.56 L301.99 190.53 L300.56 195.07 L298.25 198.17 L293.97 198.34 L291.79 201.60 L287.80 202.27 L285.97 205.97 L282.77 207.75 L279.69 209.71 L276.30 211.30 L271.45 211.05 L271.22 216.62 L267.16 217.42 L267.09 223.03 L263.68 224.61 L259.12 224.91 L256.20 227.14 L253.12 229.19 L253.24 234.70 L252.45 239.13 L251.52 243.34 L249.64 246.52 L245.74 247.67 L244.37 251.33 L240.86 252.91 L239.89 256.91 L238.30 260.28 L236.22 263.18 L234.13 266.06 L228.64 266.01 L227.02 269.33 L223.83 271.33 L222.56 274.91 L222.53 279.45 L218.41 280.73 L217.06 284.20 L213.24 285.79 L211.62 289.04 L208.41 291.13 L205.45 293.44 L201.53 295.11 L195.83 295.64 L190.62 296.60 L188.41 299.58 L190.23 305.10 L193.33 311.31 L199.75 319.37 L199.73 323.42 L197.99 326.44 L195.90 329.26 L194.34 332.39 L192.72 335.47 L190.63 338.31 L185.20 339.46 L185.68 343.64 L181.59 345.57 L182.44 349.88 L180.59 352.90 L178.92 356.00 L176.98 358.99 L173.09 361.17 L173.79 365.30 L170.97 367.97 L171.27 371.90 L170.70 375.45 L167.78 378.13 L168.31 382.07 L165.95 384.99 L166.39 388.85 L164.11 391.82 L161.71 394.76 L159.71 397.86 L158.10 401.10 L158.12 404.80 L157.12 408.20 L157.04 411.85 L157.33 415.56 L156.90 419.09 L157.53 422.84 L158.44 426.63 L159.96 430.51 L161.75 434.39 L163.11 438.14 L163.84 441.74 L162.58 445.00 L160.15 448.08 L157.78 451.22 L158.26 454.77 L157.45 458.14 L159.48 461.84 L160.08 465.35 L158.60 468.64 L148.87 471.29 L149.73 474.88 L148.54 478.33 L150.91 481.97 L159.06 485.81 L156.59 489.15 L157.10 492.59 L155.93 496.01 L157.39 499.45 L158.00 502.88 L156.95 506.32 L155.31 509.79 L154.67 513.27 L155.80 516.67 L159.47 519.91 L161.45 523.20 L159.00 526.79 L158.77 530.25 L156.77 533.89 L158.10 537.21 L159.08 540.56 L159.01 544.03 L158.77 547.53 L156.87 551.30 L162.04 553.99 L165.24 556.91 L169.54 559.59 L173.49 562.26 L174.59 565.42 L174.18 568.90 L171.29 572.96 L174.07 575.77 L173.37 579.38 L176.62 582.02 L178.35 585.02 L177.27 588.76 L178.15 592.00 L178.50 595.38 L180.39 598.31 L181.58 601.44 L182.48 604.66 L182.34 608.24 L179.38 612.84 L185.20 614.34 L183.92 618.40 L185.43 621.43 L187.88 624.09 L188.24 627.57 L191.41 629.89 L196.64 631.28 L196.20 635.09 L194.95 639.32 L192.66 644.09 L196.43 646.05 L196.08 649.97 L203.28 650.13 L206.33 652.29 L209.52 654.34 L213.07 656.16 L214.48 659.11 L215.57 662.25 L214.25 666.81 L218.80 667.95 L219.71 671.24 L224.26 672.26 L221.96 677.59 L221.92 681.55 L223.38 684.58 L221.64 689.79 L227.82 689.59 L226.54 694.57 L227.62 697.93 L229.06 701.06 L230.62 704.11 L235.24 704.81 L238.10 706.81 L242.59 707.48 L243.53 710.99 L248.68 711.00 L250.39 713.86 L255.66 713.61 L258.18 715.72 L258.81 719.53 L259.90 722.96 L261.41 726.04 L259.57 732.40 L266.67 730.09 L266.67 734.74 L274.15 731.80 L277.47 733.01 L279.39 735.68 L281.67 737.97 L284.21 739.97 L286.29 742.50 L290.80 742.21 L293.09 744.47 L297.18 744.55 L299.33 746.95 L301.44 749.40 L303.40 752.07 L306.33 753.50 L308.23 756.29 L311.45 757.31 L313.48 759.95 L314.81 763.63 L319.16 762.98 L321.50 765.23 L325.39 765.12 L327.62 767.54 L330.62 768.73 L332.77 771.31 L336.43 771.40 L340.27 771.12 L342.32 773.88 L343.59 778.06 L346.87 778.72 L348.19 782.99 L353.62 779.53 L356.76 780.33 L360.77 779.33 L363.64 780.57 L366.27 782.31 L368.78 784.33 L369.84 789.61 L374.25 787.46 L375.86 791.66 L379.60 790.91 L381.74 794.04 L385.67 792.69 L387.99 795.44 L392.13 793.34 L394.77 795.24 L397.41 797.20 L399.76 800.07 L402.42 802.13 L405.96 801.45 L409.39 801.02 L412.94 800.05 L415.22 803.52 L418.62 803.01 L420.72 807.43 L425.05 803.12 L428.25 803.18 L431.44 803.20 L434.50 803.74 L437.32 805.47 L439.81 808.97 L443.96 803.84 L446.94 804.75 L450.72 800.77 L454.20 798.25 L457.10 799.25 L459.96 800.69 L462.30 806.53 L465.87 802.41 L468.60 805.62 L472.03 801.83 L474.84 804.64 L478.05 802.66 L480.98 804.49 L484.17 801.89 L487.26 800.33 L490.22 801.71 L493.22 802.98 L496.19 807.70 L499.27 807.34 L502.37 811.16 L505.47 810.58 L508.56 809.84 L511.60 808.19 L514.50 804.32 L517.41 801.89 L520.39 801.05 L523.65 804.12 L526.71 804.07 L529.93 805.65 L532.70 802.68 L535.20 797.95 L537.84 794.90 L540.53 792.68 L543.10 789.83 L546.01 789.49 L548.72 787.94 L552.06 790.00 L554.67 787.96 L557.90 789.18 L560.51 787.25 L563.64 787.82 L566.39 786.63 L569.83 788.32 L572.45 786.59 L575.46 786.42 L578.37 785.82 L581.51 786.03 L584.76 786.54 L588.15 787.41 L589.66 782.23 L592.64 781.82 L593.85 776.16 L597.20 776.89 L599.39 774.30 L602.66 774.74 L606.02 775.30 L607.73 771.61 L611.39 772.85 L612.87 768.75 L616.64 770.13 L617.78 765.43 L621.94 767.56 L623.97 764.97 L627.00 764.52 L630.20 764.38 L633.80 764.97 L635.94 762.65 L637.84 759.92 L639.07 756.01 L640.19 752.04 L641.99 749.37 L644.91 748.68 L647.62 747.60 L652.14 749.48 L654.22 747.29 L657.03 746.28 L659.23 744.31 L661.71 742.78 L665.09 742.56 L668.50 742.31 L671.31 741.18 L674.39 740.38 L673.77 734.56 L675.18 731.58 L673.98 725.28 L674.60 721.46 L677.18 720.17 L680.60 719.89 L683.02 718.35 L686.28 717.77 L686.20 713.33 L688.12 711.23 L688.51 707.45 L690.64 705.62 L693.35 704.40 L698.70 705.89 L698.88 702.00 L701.49 700.60 L701.52 696.66 L702.90 694.08 L704.99 692.19 L709.25 692.29 L708.75 688.01 L710.94 686.20 L712.38 683.73 L713.85 681.29 L717.77 680.91 L720.87 679.78 L721.16 676.36 L723.52 674.62 L725.86 672.84 L725.49 669.00 L731.36 669.82 L730.24 665.48 L731.53 662.92 L732.67 660.27 L735.73 658.92 L738.58 657.40 L741.37 655.80 L749.34 657.44 L740.89 648.75 L745.80 648.41 L738.69 640.88 L735.57 635.88 L737.45 633.81 L739.27 631.71 L745.10 631.74 L744.51 628.29 L748.49 627.22 L748.63 624.17 L751.14 622.30 L754.17 620.65 L754.74 617.81 L756.21 615.40 L753.83 611.28 L755.25 608.88 L756.43 606.36 L758.41 604.17 L761.98 602.57 L759.80 598.74 L761.97 596.57 L761.19 593.33 L763.49 591.19 L761.06 587.43 L762.36 584.96 L757.39 580.52 L758.34 577.99 L762.37 576.35 L764.89 574.22 L767.73 572.14 L766.38 568.92 L763.96 565.49 L761.26 562.05 L758.56 558.68 L758.31 555.92 L757.88 553.13 L760.00 550.86 L759.25 548.03 L760.48 545.57 L760.54 542.90 L760.59 540.23 L763.01 537.92 L762.22 535.13 L763.61 532.64 L765.25 530.15 L765.93 527.54 L767.24 524.98 L770.23 522.53 L769.02 519.72 L768.64 517.00 L769.87 514.37 L766.33 511.51 L768.31 508.91 L763.66 506.11 L763.50 503.47 L760.51 500.83 L760.59 498.22 L761.32 495.61 L762.55 492.96 L764.26 490.27 L760.61 487.79 L760.96 485.16 L757.34 482.78 L759.86 480.00 L757.25 477.61 L758.47 474.90 L758.43 472.29 L755.17 470.06 L755.83 467.38 L754.97 464.90 L754.32 462.39 L755.91 459.54 L755.24 457.02 L756.04 454.25 L755.72 451.66 L753.61 449.43 L754.05 446.70 L753.41 444.18 L752.15 441.81 L752.71 439.01 L753.06 436.24 L754.39 433.19 L750.91 431.42 L751.05 428.68 L746.16 427.40 L745.36 424.96 L746.91 421.78 L745.68 419.45 L745.70 416.72 L744.68 414.32 L738.74 413.72 L738.14 411.23 L738.14 408.51 L738.72 405.53 L739.89 402.29 L740.90 399.05 L736.10 398.28 L732.43 397.09 L728.74 395.98 L726.14 394.41 L726.76 391.35 L725.87 388.99 L727.12 385.54 L724.30 384.13 L722.35 382.31 L720.04 380.70 L717.98 378.98 L718.05 376.07 L716.43 374.11 L715.46 371.78 L713.37 370.11 L713.84 366.88 L711.94 365.10 L715.55 359.76 L716.97 355.73 L718.00 351.88 L719.99 347.28 L719.40 344.42 L714.37 344.74 L708.77 345.59 L701.91 347.52 L695.34 349.39 L695.11 346.43 L694.29 343.91 L693.75 341.13 L690.40 340.66 L686.38 340.83 L682.68 340.80 L680.89 339.15 L683.19 333.80 L680.18 333.21 L680.97 329.09 L678.51 328.01 L674.13 328.83 L673.00 326.51 L670.11 325.96 L668.62 324.00 L666.50 322.70 L665.72 319.95 L663.41 318.86 L662.63 316.06 L659.36 316.08 L658.26 313.61 L654.94 313.79 L652.88 312.47 L650.70 311.33 L649.13 309.41 L648.31 306.52 L646.77 304.50 L644.26 303.79 L641.54 303.41 L638.37 303.69 L636.61 302.01 L635.00 300.10 L634.20 296.94 L630.13 298.75 L628.29 297.18 L623.90 299.71 L625.20 293.01 L623.09 291.82 L623.36 286.52 L623.25 281.70 L621.45 279.77 L620.68 275.91 L617.88 275.77 L614.25 277.28 L610.46 279.27 L607.16 280.39 L605.70 277.79 L603.96 275.68 L601.71 274.66 L598.82 275.09 L596.11 275.17 L593.74 274.51 L591.25 274.15 L589.40 272.20 L585.91 274.48 L583.55 273.92 L579.24 278.80 L576.58 279.29 L573.53 281.05 L571.20 280.74 L569.25 279.25 L567.80 276.07 L565.41 275.90 L562.56 277.41 L559.96 278.16 L557.26 279.42 L555.17 278.39 L553.28 276.46 L551.22 275.16 L548.85 275.21 L546.65 274.48 L543.98 276.13 L541.87 274.98 L539.62 274.60 L537.57 272.97 L535.48 271.39 L533.36 269.88 L530.96 270.28 L528.36 272.43 L525.92 273.60 L523.52 274.58 L521.10 276.19 L518.84 276.15 L516.60 275.96 L514.53 273.20 L512.32 272.03 L509.99 273.09 L507.66 274.74 L505.27 280.18 L503.08 279.60 L500.89 277.46 L498.62 270.59 L496.24 265.09 L493.77 260.64 L491.48 263.67 L488.88 258.61 L487.13 270.58 L484.80 270.15 L482.79 274.00 L480.59 274.94 L478.26 274.29 L475.97 274.17 L473.88 275.84 L472.25 280.98 L470.24 282.56 L467.98 282.25 L465.44 280.31 L462.14 274.06 L460.56 278.23 L458.17 277.75 L457.05 283.72 L454.80 283.69 L452.57 283.84 L449.39 279.89 L447.36 281.11 L445.43 282.67 L443.23 283.11 L441.81 286.43 L440.47 289.83 L438.67 291.44 L437.32 294.48 L434.58 292.94 L432.73 294.28 L430.68 294.95 L429.20 297.27 L427.83 299.81 L425.67 300.12 L423.56 300.57 L422.02 302.49 L419.30 301.42 L418.93 306.11 L416.92 306.74 L415.73 309.27 L410.18 302.07 L409.37 305.47 L405.44 302.25 L404.88 306.07 L403.97 309.07 L401.29 308.53 L398.84 308.51 L396.81 309.32 L395.71 311.80 L394.22 313.54 L392.39 314.64 L388.34 312.03 L385.27 311.18 L385.50 315.75 L384.16 317.68 L387.65 327.01 L387.54 330.59 L385.67 331.45 L383.65 332.11 L375.58 324.24 L375.88 328.33 L372.75 327.66 L373.77 332.57 L375.26 337.95 L374.10 339.78 L371.66 339.99 L370.07 341.30 L368.92 343.11 L368.44 345.71 L366.78 346.88 L365.13 348.08 L363.80 349.64 L362.54 351.27 L360.76 352.33 L356.00 350.31 L355.91 353.18 L351.21 351.40 L351.22 354.35 L350.00 356.06 L347.71 356.76 L345.35 357.43 L343.48 358.57 L338.41 356.90 L343.73 364.38 L340.39 364.25 L344.93 370.76 L343.70 372.37 L340.85 372.67 L337.95 372.99 L335.47 373.68 L337.17 377.56 L336.42 379.53 L337.53 382.84 L335.19 383.63 L333.28 384.77 L326.79 382.83 L331.48 388.44 L328.04 388.61 L333.10 394.25 L333.00 396.51 L330.85 397.51 L329.85 399.21 L327.24 399.98 L325.64 401.38 L322.20 401.76 L324.22 405.16 L324.54 407.58 L326.54 410.84 L326.50 413.01 L323.82 413.85 L320.03 414.22 L311.63 412.52 L313.41 415.60 L313.34 417.81 L317.61 421.86 L323.43 426.43 L321.54 427.73 L319.93 429.17 L317.47 430.30 L317.01 432.21 L308.69 431.30 L316.86 436.29 L311.29 436.46 L316.02 440.09 L318.99 443.06 L314.50 443.68 L309.68 444.29 L305.55 445.18 L302.57 446.47 L299.68 447.83 L304.16 451.08 L301.94 452.63 L309.81 456.51 L307.92 458.10 L307.74 460.07 L308.73 462.27 L306.31 463.80 L305.20 465.60 L303.90 467.39 L302.88 469.24 L301.49 471.06 L303.02 473.29 L303.47 475.35 L308.08 477.87 L308.74 479.89 L314.53 482.37 L317.16 484.46 L317.91 486.36 L318.50 488.23 L317.81 490.01 L317.56 491.83 L315.87 493.59 L315.68 495.43 L311.27 497.21 L312.87 499.11 L309.95 500.99 L310.25 502.89 L308.17 504.84 L312.67 506.60 L311.95 508.51 L315.65 510.19 L316.79 511.97 L317.35 513.76 L316.85 515.65 L316.41 517.53 L318.10 519.21 L317.91 521.07 L318.52 522.84 L317.99 524.76 L315.24 527.02 L313.43 529.19 L313.18 531.15 L316.83 532.43 L318.19 534.07 L325.02 534.60 L326.31 536.15 L330.42 537.07 L331.06 538.71 L329.89 540.77 L325.79 543.60 L327.99 544.88 L325.89 547.29 L327.54 548.70 L326.78 550.79 L324.69 553.31 L326.96 554.52 L327.89 556.12 L331.80 556.72 L333.32 558.07 L333.98 559.70 L334.83 561.27 L335.03 563.08 L337.48 564.01 L336.94 566.12 L337.07 567.97 L335.21 570.69 L337.95 571.44 L337.93 573.39 L341.50 573.70 L341.58 575.59 L344.11 576.31 L343.89 578.36 L343.72 580.41 L347.46 580.43 L346.29 583.02 L348.48 583.81 L347.87 586.14 L351.47 586.08 L351.19 588.23 L355.20 587.83 L352.53 591.48 L355.66 591.55 L350.83 596.72 L356.88 594.84 L358.02 596.14 L360.42 596.56 L362.08 597.47 L359.83 601.18 L362.61 601.28 L363.50 602.75 L365.67 603.23 L364.90 605.99 L367.11 606.42 L367.18 608.56 L369.55 608.82 L371.56 609.33 L374.33 609.16 L375.45 610.39 L378.83 609.59 L380.43 610.33 L380.33 612.66 L380.83 614.46 L380.10 617.48 L380.48 619.48 L378.11 624.31 L377.37 627.59 L380.39 626.97 L381.84 627.97 L386.07 625.89 L386.48 627.99 L386.51 630.56 L386.62 633.10 L388.44 633.65 L390.22 634.22 L392.06 634.70 L393.08 636.19 L395.24 636.22 L396.39 637.55 L398.73 637.28 L400.34 637.96 L401.83 638.81 L403.62 639.21 L405.06 640.10 L407.33 639.74 L409.11 640.07 L411.24 639.84 L413.28 639.70 L414.56 640.75 L416.26 641.11 L417.69 641.92 L419.05 642.85 L420.74 643.18 L424.08 640.45 L426.73 638.84 L426.50 642.73 L430.72 637.90 L429.88 643.12 L432.66 640.99 L434.27 641.23 L435.10 643.18 L435.84 645.40 L437.24 646.16 L438.99 646.11 L440.77 645.93 L442.49 645.85 L444.31 645.49 L445.96 645.51 L447.64 645.43 L449.36 645.19 L450.99 645.19 L452.63 645.08 L454.30 644.89 L455.95 644.66 L457.58 644.50 L459.23 644.20 L460.76 644.27 L462.41 643.86 L463.44 645.89 L463.74 651.05 L464.24 655.82 L466.04 655.07 L468.03 653.34 L470.86 647.09 L472.23 647.95 L474.39 644.38 L475.10 649.02 L476.81 647.84 L478.07 649.57 L479.25 652.08 L480.57 653.93 L482.16 653.65 L483.78 653.05 L485.41 652.14 L486.98 651.82 L488.58 650.85 L490.16 649.85 L491.80 647.47 L493.36 645.51 L494.93 642.48 L496.40 640.91 L497.83 639.28 L499.23 638.36 L500.61 637.46 L501.97 636.43 L503.32 635.80 L504.66 635.23 L505.98 634.46 L507.33 634.51 L508.62 633.65 L509.94 633.35 L511.26 633.02 L513.68 644.47 L515.50 647.89 L518.01 656.67 L519.63 656.95 L520.81 653.88 L521.74 649.51 L522.76 646.22 L523.59 642.17 L525.05 642.16 L526.28 640.90 L527.80 641.18 L528.86 639.21 L531.32 643.81 L532.83 643.81 L535.28 647.71 L537.28 649.48 L538.46 647.88 L539.65 646.42 L540.94 645.42 L542.08 643.94 L542.89 641.45 L544.74 642.41 L544.03 635.39 L544.97 633.71 L544.10 626.92 L544.07 622.86 L544.81 621.10 L546.67 622.35 L547.66 621.28 L549.11 621.40 L552.35 625.77 L553.51 625.01 L555.40 625.94 L556.80 625.68 L557.55 624.03 L559.44 624.81 L561.72 626.33 L562.90 625.55 L563.93 624.49 L564.35 622.28 L565.58 621.65 L566.70 620.82 L567.90 620.14 L568.45 618.34 L569.29 617.07 L569.88 615.42 L570.51 613.88 L571.58 613.05 L572.88 612.60 L573.62 611.29 L574.60 610.35 L575.49 609.30 L575.62 607.18 L576.46 606.11 L576.24 603.60 L577.52 603.16 L579.41 603.50 L580.23 602.43 L580.92 601.22 L579.59 597.53 L577.83 593.46 L581.35 595.73 L581.50 593.97 L584.73 595.75 L585.72 594.94 L587.53 595.01 L589.95 595.70 L592.22 596.17 L593.27 595.34 L593.70 593.88 L593.60 591.92 L594.75 591.21 L595.92 590.51 L595.79 588.59 L597.51 588.39 L597.96 587.02 L601.30 588.20 L602.72 587.64 L603.48 586.52 L606.49 587.24 L605.00 584.28 L608.83 585.58 L607.26 582.62 L613.17 585.39 L609.93 581.23 L611.99 581.03 L608.46 576.84 L603.68 571.91 L600.50 568.22 L598.05 565.14 L598.42 563.98 L603.55 565.84 L604.50 564.99 L608.17 565.78 L609.67 565.20 L609.90 563.86 L613.27 564.31 L612.83 562.58 L614.57 562.05 L612.29 559.37 L612.98 558.30 L611.82 556.29 L611.72 554.85 L610.64 552.95 L610.37 551.47 L610.39 550.14 L610.63 548.92 L610.45 547.53 L610.00 546.04 L609.92 544.72 L610.57 543.70 L611.41 542.75 L612.30 541.80 L611.77 540.34 L612.24 539.24 L611.07 537.59 L611.35 536.45 L611.45 535.26 L612.34 534.30 L615.23 533.93 L614.49 532.47 L616.09 531.68 L617.10 530.70 L618.71 529.85 L619.15 528.70 L619.13 527.44 L618.16 525.97 L619.89 525.10 L622.95 524.46 L624.88 523.55 L624.77 522.24 L622.35 520.55 L620.32 518.97 L618.25 517.43 L617.52 516.13 L615.82 514.71 L615.86 513.54 L614.55 512.23 L612.89 510.91 L611.30 509.64 L610.38 508.45 L609.56 507.28 L609.66 506.19 L609.82 505.10 L608.96 503.96 L608.47 502.86 L607.64 501.76 L606.97 500.68 Z"/>
  <svg class="pausebutton" id="pausebutton">
    <circle cx="500" cy="500" id="pausestart" class="pausestart" r="52.65"/>
    <rect height="50.02" width="10.00" y="473.68" rx="2.00" ry="2.00" x="479.99" class="pausesymbol"/>
    <rect height="50.02" width="10.00" y="473.68" rx="2.00" ry="2.00" x="510.00" class="pausesymbol"/>
    <polygon points="530.01,500 479.99,530.01 479.99,469.99" class="playsymbol"/>
  </svg>
  <polygon id="playback-head" class="playback-head" points="912.475,500 892.475,540 932.475,540"/>
</svg>