<?xml-stylesheet href="../../style/waveformjs.css" type="text/css"?>
<svg xmlns="http://www.w3.org/2000/svg" xmlns:xlink="http://www.w3.org/1999/xlink" width="100%" height="100%" viewBox="0 0 1000 1000">
  <path class="svg-wave" id="sp" d="M584.37 500.00 L585.37 500.85 L582.83 501.66 L581.22 502.44 L581.15 503.25 L581.94 504.10 L583.50 505.02 L584.43 505.92 L585.13 506.82 L585.74 507.74 L585.62 508.59 L584.94 509.38 L584.35 510.17 L582.26 510.75 L581.24 511.45 L580.65 512.19 L579.06 512.76 L578.07 513.40 L577.84 514.16 L577.19 514.85 L577.44 515.70 L576.06 516.21 L576.42 517.09 L576.11 517.82 L577.19 518.89 L577.01 519.66 L577.25 520.55 L582.12 522.73 L583.52 524.02 L581.04 524.18 L583.25 525.75 L586.66 527.76 L582.74 527.42 L579.76 527.32 L586.64 530.65 L587.69 532.01 L584.79 531.91 L584.42 532.75 L583.68 533.42 L583.62 534.37 L579.01 533.40 L574.54 532.40 L579.74 535.61 L581.06 537.17 L577.91 536.68 L576.59 537.00 L580.11 539.69 L579.33 540.30 L574.31 538.69 L573.69 539.30 L576.62 541.86 L577.84 543.54 L574.71 542.78 L575.03 543.96 L579.59 547.71 L577.20 547.33 L572.82 545.66 L574.36 547.67 L578.41 551.37 L576.05 550.92 L574.04 550.65 L575.78 552.96 L578.33 555.92 L575.31 554.91 L572.09 553.68 L576.95 558.49 L578.45 560.89 L575.75 560.01 L575.34 560.92 L574.92 561.83 L573.92 562.26 L570.78 560.84 L565.18 557.17 L568.62 561.41 L569.84 563.77 L567.40 562.79 L565.67 562.41 L568.35 566.28 L569.41 568.67 L565.13 565.73 L563.94 565.83 L566.86 570.24 L563.37 567.92 L561.32 567.05 L562.85 570.11 L559.55 567.78 L560.06 569.76 L558.86 569.76 L557.17 569.16 L557.98 571.58 L556.53 571.23 L555.12 570.91 L554.83 572.00 L555.08 573.85 L554.01 573.96 L553.64 575.01 L555.23 578.89 L556.17 581.96 L554.56 581.35 L553.58 581.64 L552.37 581.57 L551.04 581.27 L548.94 579.68 L546.69 577.75 L546.76 579.67 L546.72 581.44 L544.81 579.96 L543.86 580.13 L543.78 581.93 L543.83 584.02 L542.61 583.71 L542.23 585.07 L541.81 586.38 L540.52 585.90 L539.26 585.43 L538.58 586.21 L538.00 587.23 L537.67 588.89 L536.33 588.17 L535.71 589.20 L535.47 591.24 L534.31 590.94 L532.83 589.72 L532.21 590.84 L531.74 592.43 L530.71 592.43 L529.95 593.25 L530.05 596.88 L530.12 600.64 L528.74 599.63 L527.56 599.26 L526.49 599.26 L525.02 597.64 L523.68 596.42 L522.14 594.23 L521.29 594.86 L520.70 596.74 L519.41 595.36 L518.32 594.85 L517.58 596.16 L516.94 598.23 L515.85 597.73 L514.95 598.36 L514.27 600.70 L513.07 599.32 L511.99 598.75 L511.29 601.45 L510.20 600.85 L509.17 600.68 L508.31 602.65 L507.21 601.67 L506.30 603.49 L505.27 603.75 L504.16 601.92 L503.16 602.49 L502.16 603.65 L501.12 604.01 L500.08 603.57 L499.02 606.74 L497.87 610.77 L496.79 609.78 L495.73 608.98 L494.66 608.53 L493.71 606.12 L492.67 605.82 L491.86 602.50 L490.92 601.49 L489.64 604.11 L488.72 602.87 L487.90 601.06 L486.72 602.24 L485.42 604.08 L484.38 603.90 L483.50 602.77 L482.29 603.69 L481.18 603.88 L480.25 603.11 L479.49 601.58 L478.13 603.02 L476.80 604.15 L475.78 603.82 L474.62 604.08 L473.17 605.44 L471.93 605.87 L471.38 603.75 L470.14 604.14 L468.85 604.71 L467.63 604.93 L466.76 604.05 L464.98 605.97 L462.27 610.43 L461.43 609.32 L460.51 608.44 L459.57 607.66 L459.56 604.51 L458.11 605.13 L458.69 600.72 L458.33 598.78 L456.28 600.80 L455.37 600.15 L455.02 598.29 L453.94 598.04 L451.91 599.75 L450.80 599.50 L450.54 597.55 L449.33 597.52 L447.78 598.09 L447.35 596.56 L447.04 594.86 L444.39 597.30 L443.62 596.40 L442.15 596.69 L440.79 596.75 L439.48 596.71 L437.99 596.92 L437.96 594.86 L436.80 594.55 L435.64 594.24 L434.08 594.48 L433.41 593.43 L431.48 594.14 L427.23 597.90 L426.59 596.72 L425.69 595.91 L424.80 595.08 L426.12 591.50 L424.34 591.82 L425.93 588.08 L426.32 585.86 L423.88 586.93 L423.22 585.93 L423.56 583.85 L422.54 583.28 L420.29 584.00 L418.83 583.84 L418.99 582.02 L417.69 581.68 L416.55 581.18 L415.53 580.54 L415.87 578.63 L414.68 578.16 L411.99 579.02 L411.07 578.25 L410.83 576.89 L408.93 576.95 L407.23 576.82 L407.81 574.79 L407.05 573.88 L405.90 573.27 L404.07 573.17 L403.49 572.09 L401.37 572.15 L396.83 573.90 L395.89 573.01 L396.16 571.28 L394.51 570.87 L396.92 567.77 L395.43 567.26 L397.34 564.59 L399.44 561.88 L396.11 562.50 L395.74 561.31 L396.91 559.25 L396.10 558.33 L393.74 558.27 L391.85 557.91 L391.55 556.68 L390.95 555.61 L389.45 554.99 L388.42 554.12 L389.16 552.40 L390.30 550.52 L388.20 550.14 L386.09 549.73 L387.01 547.98 L385.34 547.35 L383.41 546.78 L382.30 545.87 L380.32 545.27 L378.66 544.51 L378.11 543.34 L376.39 542.56 L376.39 541.18 L374.66 540.37 L376.48 538.43 L378.20 536.56 L374.94 536.18 L375.10 534.78 L374.24 533.67 L374.90 532.16 L372.40 531.44 L369.03 530.89 L372.90 528.63 L373.89 527.09 L371.80 526.20 L372.35 524.76 L370.36 523.80 L371.70 522.23 L368.68 521.41 L361.96 521.09 L367.66 518.86 L368.53 517.40 L362.51 516.80 L362.25 515.44 L365.89 513.67 L365.54 512.35 L363.50 511.16 L367.08 509.53 L368.50 508.11 L366.65 506.89 L366.74 505.55 L367.76 504.18 L366.12 502.89 L367.72 501.53 L370.42 500.21 L369.55 498.90 L369.44 497.60 L370.30 496.31 L368.28 494.94 L364.83 493.45 L366.53 492.20 L368.22 490.97 L367.06 489.56 L369.05 488.39 L369.92 487.16 L369.71 485.82 L369.35 484.46 L365.62 482.65 L369.02 481.75 L368.65 480.36 L363.98 478.27 L362.60 476.64 L361.94 475.10 L361.70 473.63 L362.31 472.32 L359.56 470.30 L365.84 470.22 L366.78 469.03 L361.65 466.38 L366.41 466.12 L366.02 464.59 L364.35 462.69 L366.35 461.80 L367.25 460.62 L366.76 459.02 L365.91 457.28 L363.53 455.02 L362.79 453.25 L364.05 452.15 L365.09 451.00 L364.71 449.32 L365.93 448.24 L371.63 448.96 L369.28 446.51 L370.01 445.28 L372.47 444.81 L372.01 443.09 L373.09 442.04 L373.04 440.48 L373.11 438.95 L372.12 436.90 L369.86 434.15 L368.31 431.71 L369.59 430.71 L369.70 429.08 L372.17 428.76 L370.35 426.04 L376.48 427.89 L379.22 427.86 L376.73 424.69 L380.41 425.29 L382.20 424.76 L381.72 422.78 L381.94 421.23 L382.55 419.92 L382.95 418.47 L382.87 416.66 L381.95 414.21 L382.44 412.76 L383.85 411.99 L385.83 411.68 L385.74 409.77 L385.85 407.99 L391.24 410.53 L390.59 408.14 L390.24 405.97 L393.43 406.83 L393.57 405.06 L393.71 403.26 L393.98 401.55 L395.00 400.52 L395.45 398.94 L394.43 395.90 L394.02 393.38 L394.27 391.49 L395.30 390.36 L397.72 390.73 L397.63 388.42 L400.98 389.89 L404.33 391.45 L402.46 387.06 L405.15 387.94 L406.70 387.50 L407.58 386.27 L408.98 385.67 L409.69 384.21 L410.90 383.38 L409.64 379.25 L406.97 373.05 L407.13 370.57 L408.26 369.41 L409.35 368.17 L411.98 369.22 L414.18 369.69 L419.20 374.60 L420.55 373.94 L421.06 371.93 L423.79 373.55 L424.80 372.36 L425.97 371.41 L427.40 370.93 L428.17 369.25 L429.19 368.00 L428.66 363.76 L428.00 359.10 L428.93 357.41 L429.93 355.83 L432.44 357.39 L433.71 356.38 L436.18 358.00 L439.68 362.11 L439.84 358.64 L441.66 359.04 L443.71 360.04 L444.73 358.51 L446.45 358.74 L447.51 357.26 L448.89 356.59 L449.25 352.98 L448.18 344.86 L449.47 343.53 L450.69 341.92 L452.28 341.46 L455.08 345.19 L456.74 345.15 L459.88 350.62 L461.69 351.45 L462.47 348.22 L464.38 349.47 L465.84 348.92 L467.13 347.56 L468.56 346.78 L470.18 346.91 L471.62 346.15 L472.77 343.59 L474.12 342.02 L476.13 344.59 L477.48 342.92 L479.11 343.10 L480.76 343.58 L482.16 341.97 L483.94 343.67 L485.38 342.16 L486.93 341.70 L488.62 343.04 L490.08 341.23 L491.67 341.23 L493.19 339.49 L494.79 339.35 L496.39 338.72 L497.95 334.86 L499.60 333.08 L501.27 332.57 L502.95 332.60 L504.58 334.19 L506.36 330.94 L507.78 336.76 L509.28 339.18 L511.29 333.25 L512.65 337.32 L514.17 338.71 L515.88 337.82 L517.32 339.67 L518.97 339.44 L520.46 340.55 L522.36 338.57 L524.43 335.70 L526.24 334.91 L527.70 336.28 L529.32 336.67 L531.20 335.65 L532.84 335.97 L533.67 340.14 L535.83 337.97 L537.68 337.32 L538.70 340.21 L540.41 340.15 L541.84 341.21 L543.60 340.98 L545.29 341.06 L547.10 340.77 L549.97 337.09 L552.25 335.52 L553.50 337.26 L555.90 335.53 L556.84 338.09 L559.17 336.70 L559.49 340.81 L559.93 344.37 L563.03 341.08 L563.71 343.94 L565.01 345.20 L567.53 343.61 L569.64 343.05 L571.98 342.05 L574.86 340.00 L575.78 342.17 L577.05 343.54 L578.96 343.62 L578.78 347.80 L578.05 352.82 L579.98 352.77 L582.44 351.79 L582.87 354.46 L585.33 353.56 L588.08 352.26 L589.47 353.28 L591.40 353.44 L592.50 354.92 L594.59 354.86 L596.62 354.95 L597.48 356.77 L601.38 354.21 L602.49 355.71 L601.62 359.93 L605.06 358.19 L605.48 360.56 L607.41 360.92 L608.05 362.95 L610.24 363.01 L614.01 361.19 L613.11 365.06 L613.59 367.21 L616.12 366.97 L616.70 368.97 L619.78 368.18 L619.47 371.14 L622.67 370.31 L628.76 366.58 L625.65 372.38 L625.97 374.58 L631.06 372.11 L633.24 372.55 L631.97 376.27 L632.48 378.26 L636.08 377.44 L634.90 380.92 L634.44 383.70 L635.83 384.85 L636.28 386.80 L639.34 386.59 L643.34 385.70 L641.14 389.74 L643.55 390.15 L646.71 390.04 L644.12 394.21 L643.99 396.51 L644.78 398.12 L647.93 398.10 L648.96 399.57 L648.37 402.12 L652.68 401.45 L653.91 402.82 L652.48 405.85 L653.83 407.12 L653.54 409.38 L655.83 410.11 L656.09 412.03 L656.89 413.64 L661.60 413.14 L663.36 414.29 L664.60 415.73 L664.48 417.85 L667.87 418.25 L670.57 419.03 L665.50 423.46 L668.19 424.25 L672.56 424.35 L667.93 428.37 L668.76 430.00 L670.46 431.28 L670.05 433.42 L671.28 434.91 L671.52 436.77 L673.04 438.17 L673.59 439.92 L672.82 442.12 L676.56 442.82 L673.31 445.78 L676.98 446.57 L680.19 447.56 L676.52 450.54 L681.23 451.17 L682.46 452.79 L679.21 455.54 L682.46 456.66 L681.82 458.73 L682.62 460.47 L682.74 462.35 L683.10 464.18 L684.33 465.85 L682.82 468.02 L685.50 469.46 L683.81 471.62 L682.36 473.71 L691.45 474.35 L685.74 477.00 L687.45 478.69 L692.55 480.06 L687.51 482.48 L687.37 484.38 L689.12 486.13 L688.34 488.08 L689.47 489.91 L689.37 491.82 L689.70 493.70 L690.96 495.57 L689.66 497.50 L691.55 499.39 L688.95 501.29 L689.89 503.19 L694.39 505.21 L688.90 506.96 L689.84 508.89 L692.46 510.95 L689.13 512.66 L688.92 514.54 L689.14 516.46 L690.44 518.49 L691.07 520.49 L691.87 522.52 L694.80 524.84 L695.79 526.96 L695.69 528.94 L694.39 530.74 L691.84 532.30 L695.82 534.99 L690.51 536.01 L689.69 537.82 L694.93 540.90 L690.98 542.07 L688.60 543.53 L690.60 546.00 L689.57 547.76 L689.45 549.75 L688.94 551.64 L688.81 553.64 L689.32 555.84 L686.14 556.93 L689.44 560.02 L684.39 560.45 L683.81 562.30 L690.72 566.78 L684.13 566.55 L684.90 568.92 L688.64 572.47 L682.89 572.38 L683.28 574.66 L682.76 576.59 L681.86 578.36 L681.00 580.14 L680.14 581.92 L680.17 584.12 L676.89 584.75 L675.38 586.20 L676.73 589.07 L673.70 589.73 L677.58 593.99 L677.30 596.13 L675.15 597.24 L677.43 600.84 L674.79 601.67 L672.01 602.37 L672.13 604.78 L669.41 605.46 L666.99 606.29 L663.41 606.32 L662.04 607.75 L663.41 611.03 L660.10 611.14 L663.48 615.92 L661.65 617.07 L660.61 618.78 L665.88 625.27 L658.31 622.06 L656.03 622.81 L659.66 628.27 L660.63 631.72 L658.04 632.26 L658.42 635.29 L660.65 640.00 L657.16 639.75 L653.62 639.37 L651.74 640.46 L650.42 642.06 L651.46 645.93 L651.72 649.14 L647.96 648.38 L649.28 652.73 L649.30 655.83 L642.10 651.33 L642.16 654.45 L643.07 658.59 L639.14 657.37 L639.05 660.48 L636.74 661.04 L638.24 666.14 L635.87 666.66 L631.23 664.29 L630.95 667.34 L627.18 665.92 L627.49 669.82 L625.17 670.24 L620.43 667.27 L626.65 679.68 L621.84 676.58 L617.64 674.19 L619.94 681.49 L617.30 681.42 L614.60 681.19 L613.15 682.92 L612.37 685.78 L612.31 689.94 L607.38 685.83 L605.36 686.61 L604.22 688.98 L600.13 685.93 L600.42 691.03 L596.43 687.97 L595.14 690.12 L597.08 698.94 L591.74 692.86 L590.20 694.63 L590.30 700.06 L586.87 697.71 L585.58 700.19 L583.19 700.11 L582.77 704.87 L580.94 706.23 L576.89 701.84 L576.15 706.06 L573.65 705.59 L571.42 705.83 L569.93 708.24 L566.46 704.67 L566.68 712.55 L564.25 712.21 L560.39 706.92 L560.01 713.53 L557.74 713.64 L555.27 712.92 L553.25 713.91 L551.30 715.24 L550.23 720.48 L546.90 715.84 L544.91 717.11 L544.36 725.81 L541.73 724.24 L539.31 723.64 L537.30 725.40 L534.27 720.82 L532.05 721.08 L529.22 716.77 L526.47 712.43 L524.31 712.34 L522.34 714.06 L520.11 713.37 L517.97 713.49 L515.79 713.01 L513.97 717.99 L511.91 720.37 L509.71 720.73 L507.53 721.40 L505.40 725.13 L503.13 724.01 L500.88 720.87 L498.66 722.52 L496.44 722.25 L494.22 722.20 L492.00 722.00 L489.69 723.92 L487.47 723.36 L485.28 722.63 L482.91 724.38 L480.67 724.13 L478.38 724.44 L476.33 722.38 L474.45 719.23 L471.69 723.46 L469.30 724.34 L467.56 720.58 L465.08 722.01 L461.78 728.09 L460.10 724.31 L458.82 718.79 L456.10 721.08 L453.35 723.22 L452.18 717.93 L449.91 717.83 L447.44 718.56 L444.19 722.26 L441.81 722.29 L439.89 720.61 L436.73 723.37 L434.08 724.14 L432.66 720.80 L430.45 720.13 L428.35 719.13 L426.08 718.65 L423.99 717.62 L422.67 714.50 L420.12 714.82 L418.12 713.61 L416.54 711.40 L413.41 713.07 L411.10 712.61 L408.49 712.86 L406.64 711.32 L405.87 707.41 L402.22 709.86 L398.85 711.55 L398.80 706.33 L396.39 706.00 L391.10 711.23 L390.05 708.12 L391.56 700.40 L388.49 701.22 L384.82 703.03 L384.81 698.40 L383.04 696.90 L380.21 697.15 L374.50 701.96 L372.45 700.76 L371.41 697.98 L366.66 700.87 L365.59 698.15 L365.61 693.93 L363.58 692.70 L361.66 691.33 L359.81 689.86 L357.50 689.00 L356.29 686.69 L351.88 688.50 L351.27 685.42 L351.06 681.93 L345.40 685.04 L343.62 683.41 L341.35 682.35 L340.60 679.55 L339.89 676.76 L335.34 678.17 L333.38 676.71 L335.29 671.22 L332.44 670.73 L326.50 673.28 L326.55 669.80 L331.04 662.13 L326.23 663.44 L321.70 664.37 L324.03 659.00 L323.54 656.27 L320.32 655.94 L314.68 657.62 L312.43 656.32 L313.77 652.07 L307.86 653.72 L303.84 653.75 L305.60 649.26 L305.97 645.91 L302.56 645.41 L299.14 644.85 L300.46 640.89 L301.81 636.99 L295.93 638.05 L294.63 635.96 L297.70 631.03 L293.30 630.97 L289.73 630.31 L287.48 628.78 L289.21 624.86 L288.53 622.43 L282.52 623.02 L286.11 618.18 L288.08 614.34 L285.55 612.95 L284.03 611.01 L281.12 609.75 L281.36 606.91 L280.47 604.63 L274.45 604.75 L272.68 602.82 L278.11 597.70 L277.53 595.31 L271.29 595.29 L269.06 593.52 L272.50 589.49 L271.23 587.36 L266.69 586.43 L267.47 583.51 L271.54 579.48 L267.61 578.25 L267.52 575.70 L267.43 573.16 L266.25 570.97 L263.35 569.27 L264.56 566.37 L264.68 563.81 L262.86 561.76 L260.62 559.79 L260.67 557.25 L261.67 554.49 L260.16 552.32 L257.70 550.32 L259.20 547.51 L260.03 544.85 L258.02 542.73 L256.09 540.56 L256.14 538.05 L257.04 535.42 L255.68 533.13 L253.25 530.95 L255.85 528.15 L255.46 525.72 L253.83 523.40 L251.29 521.14 L253.00 518.50 L254.81 515.91 L252.49 513.57 L251.20 511.15 L254.09 508.56 L254.71 506.08 L251.69 503.67 L250.82 501.19 L252.67 498.71 L256.17 496.29 L254.71 493.81 L252.73 491.29 L255.83 488.95 L258.67 486.66 L254.61 483.97 L252.55 481.35 L256.25 479.18 L257.45 476.83 L253.85 474.00 L253.07 471.42 L255.84 469.27 L255.61 466.75 L251.81 463.70 L252.34 461.25 L256.29 459.36 L257.58 457.08 L256.49 454.37 L256.27 451.80 L260.37 450.12 L262.04 447.98 L257.31 444.40 L256.96 441.75 L262.10 440.46 L259.29 437.20 L255.99 433.72 L257.06 431.40 L259.04 429.35 L257.70 426.31 L256.37 423.24 L258.19 421.15 L260.15 419.12 L261.72 416.99 L261.03 414.06 L262.82 412.02 L266.20 410.60 L263.51 406.85 L263.57 404.13 L265.64 402.23 L268.31 400.61 L267.43 397.47 L267.69 394.80 L270.82 393.44 L271.85 391.13 L268.57 386.71 L270.22 384.66 L273.01 383.20 L273.19 380.41 L271.70 376.69 L274.06 375.03 L277.49 374.01 L277.38 370.99 L275.56 366.92 L278.48 365.64 L281.00 364.15 L279.67 360.26 L279.43 356.99 L283.16 356.31 L284.38 353.99 L284.44 350.87 L285.07 348.10 L288.14 347.08 L290.05 345.24 L290.99 342.68 L290.88 339.29 L295.98 339.94 L298.58 338.70 L298.30 335.15 L297.75 331.29 L301.59 331.10 L303.30 329.14 L297.26 320.30 L300.42 319.51 L302.49 317.76 L304.85 316.28 L310.33 317.83 L310.34 314.16 L316.78 316.84 L321.85 318.32 L321.09 313.85 L321.65 310.68 L326.82 312.45 L330.85 313.10 L330.58 308.99 L331.45 306.11 L335.72 307.15 L336.69 304.37 L335.90 299.37 L336.28 295.70 L339.97 296.16 L341.00 293.25 L340.74 288.57 L343.86 288.34 L346.84 287.97 L347.45 284.30 L349.91 283.22 L352.79 282.77 L355.58 282.23 L357.95 281.08 L358.76 277.48 L361.28 276.55 L364.92 277.47 L366.82 275.58 L367.83 272.11 L370.10 270.77 L375.08 274.34 L376.23 271.03 L376.47 265.91 L379.74 266.48 L383.35 267.81 L384.30 263.85 L385.25 259.74 L388.86 261.20 L392.47 262.78 L393.61 258.91 L395.43 256.47 L398.47 256.86 L401.05 256.20 L401.90 251.19 L403.90 248.93 L407.06 249.73 L410.11 250.32 L411.84 247.22 L413.88 244.89 L417.19 246.35 L419.15 243.69 L420.40 238.60 L423.31 238.81 L426.33 239.45 L428.20 236.04 L430.62 234.46 L433.46 234.52 L436.17 234.07 L438.97 234.07 L441.13 231.18 L444.32 232.96 L447.35 234.25 L449.52 231.10 L451.68 227.63 L454.80 229.53 L457.84 231.20 L459.99 227.09 L462.54 225.41 L465.85 229.45 L468.66 230.03 L470.94 225.79 L473.56 224.23 L476.57 226.84 L479.28 226.34 L481.73 221.84 L484.66 224.18 L487.51 226.18 L490.16 223.62 L492.86 220.94 L495.68 222.83 L498.45 222.76 L501.23 221.63 L503.99 223.34 L506.73 224.68 L509.44 225.94 L512.17 226.30 L515.05 223.68 L517.84 223.50 L520.36 226.96 L523.05 227.64 L525.99 225.56 L528.65 226.66 L530.94 230.80 L533.70 230.55 L537.25 224.55 L539.81 226.25 L541.67 232.30 L544.98 228.93 L548.27 226.09 L550.81 227.62 L552.57 233.01 L555.73 231.18 L559.28 227.77 L561.71 229.66 L563.61 233.63 L567.63 228.83 L570.40 229.29 L572.77 231.23 L574.76 234.46 L578.70 230.81 L581.68 230.63 L583.82 233.21 L587.02 232.42 L591.20 228.83 L592.82 232.87 L595.18 234.67 L597.90 235.43 L600.56 236.39 L603.19 237.40 L605.13 240.14 L607.48 241.79 L611.30 239.97 L613.72 241.49 L615.58 244.23 L618.08 245.52 L622.38 243.01 L625.08 243.96 L626.63 247.23 L630.12 246.63 L633.98 245.40 L635.83 248.04 L637.67 250.63 L640.42 251.55 L644.40 250.37 L646.04 253.26 L647.70 256.06 L651.57 255.22 L654.90 255.35 L655.73 259.39 L657.88 261.34 L661.95 260.42 L664.95 261.17 L666.07 264.62 L667.56 267.48 L671.82 266.52 L674.22 268.16 L674.31 272.80 L676.80 274.26 L680.98 273.62 L683.76 274.81 L683.61 279.53 L686.13 280.99 L690.55 280.28 L692.33 282.66 L691.50 287.91 L694.70 288.66 L699.04 288.23 L700.99 290.39 L699.62 295.95 L702.77 296.84 L707.36 296.35 L708.18 299.60 L707.47 304.24 L710.69 305.15 L716.31 303.92 L717.10 307.13 L714.89 312.90 L719.78 312.47 L724.09 312.64 L724.25 316.28 L723.01 320.99 L726.40 321.97 L732.00 321.29 L731.76 325.14 L729.13 330.69 L735.15 329.86 L739.10 330.61 L738.98 334.26 L736.97 339.14 L741.58 339.52 L745.80 340.23 L744.36 344.62 L742.91 348.93 L748.36 348.96 L751.95 350.21 L750.51 354.44 L750.72 357.66 L757.18 357.37 L759.78 359.30 L757.34 363.93 L757.20 367.28 L762.02 368.10 L764.42 370.19 L762.38 374.43 L763.59 377.07 L770.04 377.34 L771.66 379.87 L769.22 384.15 L771.60 386.33 L775.89 387.76 L776.89 390.57 L775.25 394.39 L776.29 397.15 L781.42 398.43 L781.54 401.56 L780.52 405.05 L783.90 407.06 L786.50 409.37 L786.85 412.41 L785.66 415.88 L788.00 418.32 L790.69 420.68 L790.47 423.86 L789.95 427.08 L793.35 429.34 L794.16 432.25 L792.73 435.65 L794.11 438.43 L797.28 440.86 L798.05 443.80 L796.52 447.15 L797.11 450.11 L801.09 452.53 L800.64 455.68 L797.83 459.13 L800.06 461.88 L803.57 464.51 L802.87 467.66 L800.00 471.00 L802.63 473.80 L805.18 476.65 L803.58 479.82 L800.33 483.05 L803.13 485.93 L806.94 488.83 L804.67 491.96 L800.87 495.07 L803.92 498.06 L806.66 501.11 L803.00 504.13 L800.23 507.10 L803.31 510.20 L807.18 513.41 L804.25 516.33 L800.42 519.14 L805.83 522.56 L805.20 525.58 L802.20 528.38 L800.41 531.24 L801.66 534.43 L802.99 537.65 L800.88 540.45 L800.36 543.44 L802.99 546.92 L802.40 549.93 L801.97 552.96 L802.78 556.23 L803.16 559.44 L804.36 562.85 L803.05 565.74 L803.82 569.10 L802.80 572.06 L799.68 574.49 L799.68 577.68 L798.38 580.54 L798.73 583.85 L797.74 586.79 L795.98 589.50 L798.82 593.63 L795.61 595.88 L793.19 598.34 L793.40 601.69 L791.02 604.13 L793.47 608.33 L791.02 610.75 L790.32 613.82 L794.88 619.02 L792.10 621.31 L787.71 622.88 L790.02 627.31 L790.62 631.05 L787.68 633.20 L784.25 635.08 L786.16 639.51 L783.91 641.95 L778.64 642.81 L777.83 645.93 L777.45 649.28 L773.88 650.91 L774.38 654.79 L772.24 657.19 L769.12 658.99 L769.30 662.76 L766.96 665.01 L764.45 667.14 L763.47 670.23 L763.47 673.99 L762.23 676.96 L758.45 678.19 L758.26 681.90 L756.21 684.32 L753.35 686.13 L750.35 687.81 L747.43 689.52 L746.60 692.82 L745.70 696.11 L742.96 697.93 L746.29 704.78 L746.91 709.51 L745.04 712.17 L745.20 716.64 L739.72 716.10 L738.37 719.25 L732.35 718.03 L727.50 717.81 L728.41 723.10 L724.87 724.07 L722.72 726.42 L720.97 729.17 L718.39 731.09 L717.42 734.71 L714.78 736.56 L713.46 739.89 L713.85 745.22 L712.30 748.42 L709.33 749.96 L706.30 751.41 L703.32 752.89 L701.75 756.14 L695.05 752.79 L692.08 754.17 L691.52 758.76 L687.90 759.25 L685.23 761.02 L682.48 762.66 L680.52 765.47 L678.33 767.98 L675.29 769.21 L674.39 773.77 L673.62 778.68 L671.61 781.69 L668.79 783.40 L664.80 783.10 L662.84 786.28 L658.46 785.18 L653.03 782.02 L651.85 786.65 L648.63 787.48 L645.30 788.06 L643.05 790.79 L639.74 791.40 L637.64 794.53 L634.16 794.74 L631.56 796.86 L629.91 801.23 L626.64 801.92 L623.69 803.35 L620.51 804.23 L617.17 804.66 L614.80 807.64 L610.31 804.87 L607.31 806.11 L605.13 809.77 L601.40 808.90 L598.30 809.89 L595.29 811.16 L592.46 813.09 L589.54 814.74 L586.26 815.17 L584.03 819.53 L582.04 825.15 L579.02 826.93 L575.86 828.18 L572.04 826.51 L568.71 826.89 L565.05 825.66 L560.66 820.31 L557.77 822.68 L554.61 823.61 L551.28 823.58 L548.04 824.06 L544.64 823.41 L541.69 826.07 L538.47 826.84 L535.39 829.01 L532.68 835.25 L529.59 838.65 L526.14 838.11 L522.84 839.47 L519.22 835.81 L515.95 837.92 L512.34 831.88 L508.92 828.42 L505.71 832.68 L502.37 831.09 L499.07 829.57 L495.77 829.43 L492.46 830.17 L489.13 831.10 L485.83 830.53 L482.44 832.03 L478.89 835.56 L475.43 836.81 L472.00 837.22 L468.80 835.07 L465.40 835.32 L461.99 835.48 L459.27 829.89 L455.89 830.14 L452.44 830.73 L449.38 828.62 L445.91 829.25 L442.88 827.18 L439.41 827.72 L435.95 828.01 L432.40 828.68 L427.78 834.20 L423.74 836.56 L420.31 836.04 L416.70 836.25 L414.73 830.04 L411.44 829.14 L409.37 823.88 L407.16 819.46 L402.85 822.21 L399.78 820.77 L396.52 819.92 L393.16 819.35 L390.00 818.20 L386.14 819.00 L383.19 817.20 L380.01 816.06 L375.16 819.19 L371.45 819.23 L368.97 816.20 L365.39 815.89 L363.31 812.08 L358.71 814.00 L358.06 807.18 L355.14 805.44 L350.44 807.38 L347.86 804.89 L344.97 803.07 L341.64 802.09 L337.88 801.88 L334.87 800.24 L332.01 798.34 L327.60 799.13 L323.36 799.53 L320.47 797.58 L316.78 796.95 L314.42 794.14 L311.06 792.94 L309.54 788.92 L308.92 783.65 L303.96 784.81 L302.29 781.17 L299.97 778.52 L296.53 777.41 L294.71 774.11 L291.00 773.31 L289.29 769.92 L286.12 768.39 L280.88 769.40 L277.94 767.50 L275.07 765.52 L272.74 762.89 L270.02 760.72 L266.18 759.79 L267.14 753.58 L264.29 751.59 L259.45 751.66 L258.62 747.52 L256.27 744.99 L253.79 742.57 L250.64 740.81 L247.52 739.00 L245.82 735.83 L241.03 735.49 L235.88 735.40 L233.27 732.98 L231.64 729.72 L230.07 726.42 L227.23 724.19 L225.77 720.84 L226.70 715.62 L222.88 714.17 L220.43 711.63 L218.91 708.40 L214.96 706.94 L210.51 705.78 L207.33 703.66 L204.27 701.44 L197.94 701.35 L199.69 695.88 L200.07 691.38 L198.58 688.12 L201.63 682.09 L201.28 678.23 L196.86 676.79 L196.52 672.94 L194.34 670.16 L189.13 669.01 L187.84 665.69 L186.23 662.54 L183.78 659.82 L182.72 656.39 L178.37 654.56 L178.44 650.58 L174.69 648.39 L170.77 646.22 L173.53 641.10 L171.13 638.25 L170.02 634.85 L168.30 631.70 L167.55 628.17 L168.60 623.97 L162.82 622.30 L161.95 618.81 L163.89 614.36 L161.87 611.29 L160.94 607.85 L156.78 605.41 L156.76 601.67 L156.80 597.93 L149.25 596.30 L148.75 592.67 L152.99 587.85 L148.23 585.32 L144.97 582.37 L145.70 578.47 L147.17 574.45 L143.12 571.59 L142.35 568.03 L146.53 563.58 L145.10 560.18 L143.26 556.83 L146.04 552.76 L142.81 549.59 L143.29 545.90 L144.60 542.12 L141.27 538.88 L141.32 535.25 L142.34 531.54 L142.46 527.93 L140.33 524.48 L138.31 520.99 L142.11 517.18 L138.99 513.71 L136.07 510.18 L138.98 506.49 L140.01 502.87 L140.24 499.27 L138.92 495.65 L139.35 492.05 L140.00 488.46 L132.36 484.54 L128.55 480.65 L128.66 476.93 L125.32 472.96 L128.37 469.44 L128.25 465.69 L134.11 462.54 L138.59 459.34 L134.96 455.23 L138.99 452.06 L139.88 448.50 L139.31 444.74 L140.52 441.24 L140.10 437.47 L141.43 434.00 L139.59 429.92 L135.38 425.31 L134.02 421.21 L135.15 417.63 L135.68 413.91 L137.46 410.50 L136.51 406.40 L144.94 404.77 L147.61 401.70 L144.98 397.13 L148.29 394.26 L149.71 390.86 L151.02 387.43 L150.56 383.41 L151.66 379.89 L152.81 376.39 L151.25 371.89 L149.72 367.34 L149.44 363.21 L152.45 360.36 L153.64 356.80 L153.79 352.79 L158.00 350.53 L163.60 348.95 L162.48 344.37 L164.73 341.33 L168.21 338.89 L168.26 334.80 L170.22 331.64 L171.00 327.86 L173.79 325.15 L174.85 321.51 L172.68 316.03 L172.87 311.81 L174.23 308.23 L176.59 305.24 L179.52 302.61 L178.93 297.80 L187.36 298.71 L189.77 295.84 L188.58 290.56 L193.57 289.44 L195.95 286.57 L197.45 283.08 L199.16 279.71 L200.97 276.41 L203.20 273.42 L202.37 268.03 L200.27 261.54 L201.74 257.80 L203.31 254.12 L207.05 252.23 L209.88 249.60 L213.53 247.71 L221.79 250.00 L222.69 245.76 L224.99 242.75 L228.50 240.89 L231.16 238.25 L233.65 235.44 L235.15 231.61 L238.04 229.18 L239.02 224.73 L237.86 217.91 L239.00 213.45 L241.87 210.84 L243.32 206.61 L249.21 207.49 L250.75 203.34 L258.33 206.44 L263.89 207.28 L262.75 199.77 L267.54 199.71 L271.71 198.92 L273.84 195.45 L276.99 193.33 L279.83 190.79 L283.43 189.32 L285.07 184.99 L285.93 179.42 L288.10 175.70 L291.05 173.12 L294.17 170.79 L297.68 169.09 L301.04 167.15 L307.93 171.25 L310.95 168.86 L313.33 165.31 L318.23 166.29 L320.90 163.22 L324.52 161.92 L327.62 159.60 L331.07 157.97 L334.22 155.73 L335.02 148.44 L337.15 143.75 L340.08 140.70 L343.15 137.90 L348.45 140.30 L351.45 137.33 L356.96 140.59 L362.29 143.63 L364.33 138.20 L368.45 138.21 L372.59 138.39 L375.89 136.19 L379.31 134.29 L382.68 132.18 L386.57 131.70 L390.40 131.05 L393.61 128.27 L397.33 127.23 L401.47 127.77 L405.06 126.24 L408.79 125.28 L411.52 120.00 L416.08 122.52 L419.78 121.31 L422.67 116.09 L427.23 119.07 L431.06 118.47 L434.81 117.38 L438.53 116.06 L442.45 116.01 L446.30 115.48 L449.68 111.33 L453.37 109.24 L457.21 108.12 L460.85 104.89 L465.12 108.10 L468.81 104.75 L472.90 106.52 L477.23 112.91 L480.94 109.41 L484.86 109.70 L488.82 111.53 L492.69 110.47 L496.58 109.34 L500.49 108.28 L504.39 109.10 L508.37 106.01 L512.50 99.89 L516.54 99.10 L520.60 98.25 L524.68 97.56 L528.47 100.99 L532.67 98.79 L535.89 107.74 L539.64 109.79 L544.08 105.40 L547.51 110.08 L551.27 111.55 L555.28 111.21 L559.22 111.41 L563.26 111.10 L567.19 111.48 L571.79 108.22 L576.85 103.04 L581.01 102.88 L584.91 104.03 L588.58 106.19 L592.55 106.92 L596.05 109.60 L598.02 118.09 L602.50 116.61 L606.70 116.32 L609.62 120.55 L613.68 120.78 L617.72 121.09 L621.72 121.64 L625.20 123.77 L629.04 124.80 L634.37 121.64 L638.24 122.73 L642.31 123.33 L647.65 120.73 L652.25 120.18 L656.12 121.52 L659.60 123.82 L664.26 123.34 L668.89 123.06 L671.60 127.06 L675.19 129.07 L680.03 128.48 L683.59 130.60 L686.86 133.28 L689.23 137.62 L693.08 139.08 L697.69 139.19 L699.48 144.41 L704.04 144.66 L708.95 144.39 L712.92 145.79 L716.75 147.46 L717.97 153.29 L721.53 155.32 L725.50 156.75 L727.59 160.99 L732.17 161.55 L736.07 163.12 L741.60 162.47 L744.11 166.07 L744.80 172.06 L750.82 170.92 L755.31 171.88 L756.16 177.49 L759.70 179.67 L763.89 181.07 L768.53 181.99 L767.95 189.04 L769.83 193.12 L779.23 188.76 L780.74 193.30 L781.63 198.44 L787.96 197.78 L792.45 199.15 L794.33 203.21 L794.76 208.67 L798.48 210.83 L804.51 210.83 L803.24 217.75 L805.76 221.06 L812.50 220.59 L815.12 223.87 L817.04 227.74 L818.13 232.28 L821.37 235.00 L824.54 237.80 L823.78 243.72 L828.57 245.23 L832.42 247.52 L835.56 250.39 L838.94 253.11 L838.49 258.57 L842.02 261.18 L844.52 264.53 L844.13 269.81 L847.98 272.24 L848.70 276.71 L855.41 277.40 L855.87 282.03 L854.80 287.53 L863.14 287.45 L865.99 290.66 L866.14 295.41 L870.85 297.62 L875.03 300.18 L877.97 303.44 L875.50 309.47 L876.31 313.76 L882.65 315.37 L882.02 320.36 L880.92 325.51 L886.32 327.69 L890.87 330.32 L890.62 335.05 L888.94 340.33 L892.48 343.44 L897.12 346.18 L892.78 352.35 L894.32 356.26 L900.41 358.56 L901.17 362.79 L901.86 367.02 L901.70 371.52 L905.30 374.82 L909.93 377.87 L907.07 383.14 L907.97 387.29 L909.76 391.19 L912.98 394.74 L911.74 399.43 L908.18 404.62 L914.26 407.56 L917.23 411.26 L915.86 415.89 L920.93 419.24 L922.23 423.36 L924.97 427.24 L922.82 431.96 L919.50 436.79 L923.36 440.53 L923.19 444.86 L921.97 449.31 L924.67 453.29 L927.37 457.31 L929.13 461.47 L924.57 466.15 L924.56 470.42 L929.51 474.39 L926.79 478.83 L924.07 483.22 L928.76 487.32 L931.68 491.56 L929.79 495.89 L956.04 500.00 L952.30 495.48 L953.63 490.93 L952.58 486.42 L956.74 481.72 L957.01 477.13 L951.53 472.88 L954.32 468.15 L952.47 463.72 L948.97 459.48 L947.72 455.08 L946.22 450.72 L952.40 445.45 L949.25 441.27 L944.56 437.35 L949.40 432.08 L946.27 427.98 L941.11 424.28 L939.74 419.98 L941.49 415.09 L945.01 409.79 L938.52 406.53 L939.94 401.62 L946.09 395.55 L938.66 392.65 L933.89 389.21 L935.40 384.18 L935.21 379.55 L933.31 375.40 L927.32 372.48 L930.39 366.86 L930.87 361.98 L923.49 359.66 L921.87 355.50 L922.85 350.42 L923.13 345.55 L921.98 341.16 L917.11 338.22 L918.05 333.03 L914.24 329.73 L908.15 327.44 L907.53 322.87 L905.13 319.08 L907.55 313.09 L905.73 308.99 L899.96 306.80 L901.85 300.90 L897.51 298.08 L892.31 295.76 L890.09 291.93 L887.11 288.52 L891.07 281.25 L885.78 279.12 L882.05 276.15 L887.99 267.43 L881.48 266.11 L876.97 263.66 L879.80 256.56 L875.02 254.30 L874.23 249.43 L868.40 247.96 L864.67 245.13 L863.98 240.15 L858.17 238.85 L852.26 237.73 L851.47 232.81 L852.09 226.74 L849.03 223.48 L842.54 223.00 L842.36 217.44 L840.27 213.40 L832.24 214.43 L828.82 211.60 L828.13 206.35 L827.16 201.27 L823.70 198.44 L818.21 197.55 L818.01 191.64 L812.98 190.38 L806.39 190.77 L803.61 187.39 L800.07 184.79 L800.81 177.61 L796.86 175.41 L791.59 174.70 L795.09 164.09 L789.15 164.14 L781.73 166.05 L779.93 161.37 L776.46 158.69 L774.05 154.65 L767.44 155.98 L764.43 152.73 L763.85 146.21 L758.62 145.89 L753.58 145.40 L749.49 143.63 L748.12 137.95 L746.19 132.93 L738.58 136.49 L735.57 133.12 L733.87 127.63 L727.78 129.14 L721.79 130.67 L719.50 126.06 L717.95 120.04 L713.55 118.93 L707.53 120.84 L705.61 115.26 L701.79 113.15 L694.96 116.94 L690.58 116.11 L687.71 112.20 L683.69 110.61 L678.77 111.02 L675.62 107.58 L672.07 104.95 L667.35 105.05 L663.82 102.37 L660.15 99.96 L656.48 97.50 L654.01 91.82 L650.90 87.64 L647.06 85.33 L644.54 79.11 L640.50 77.16 L636.07 76.39 L631.63 75.67 L627.45 74.13 L623.80 70.75 L618.20 74.25 L614.27 71.83 L610.82 67.45 L604.03 76.35 L599.27 77.54 L594.74 77.92 L590.01 79.35 L586.17 76.66 L581.99 75.52 L578.98 67.91 L575.49 62.29 L570.96 62.49 L566.76 60.66 L562.08 61.97 L557.63 61.94 L553.14 62.20 L548.19 66.87 L544.46 60.45 L539.80 62.85 L534.66 72.00 L530.52 69.66 L525.91 74.39 L521.75 72.25 L517.46 72.38 L513.21 71.32 L509.08 63.51 L504.74 61.22 L500.35 61.55 L495.96 61.22 L491.58 61.56 L487.18 61.25 L482.88 63.60 L478.56 64.65 L473.95 60.43 L470.01 67.28 L465.97 71.25 L461.65 71.23 L457.55 73.51 L453.27 73.79 L449.12 75.20 L444.26 70.98 L439.42 67.61 L435.15 68.59 L430.87 69.47 L426.64 70.56 L422.34 71.28 L417.92 71.39 L414.68 77.36 L409.61 74.25 L405.17 74.32 L402.28 81.13 L397.03 77.77 L393.04 79.70 L389.07 81.65 L384.59 81.70 L380.64 83.65 L375.79 82.55 L371.81 84.41 L368.14 87.22 L363.98 88.45 L360.49 91.65 L355.65 90.89 L352.35 94.51 L349.42 98.98 L343.38 95.24 L341.70 102.75 L339.79 109.37 L335.62 110.34 L333.84 116.87 L329.44 117.25 L325.11 117.86 L319.45 115.69 L313.10 112.31 L308.76 113.24 L304.71 114.79 L301.04 117.09 L297.60 119.81 L293.58 121.44 L291.90 127.27 L286.61 126.62 L282.50 128.11 L283.61 138.35 L279.80 140.21 L276.49 142.87 L273.43 145.90 L270.27 148.75 L265.57 149.27 L259.52 147.88 L254.53 148.19 L251.54 151.38 L247.72 153.41 L244.99 156.92 L241.48 159.37 L238.26 162.19 L237.75 168.44 L230.93 166.72 L230.43 172.85 L232.21 181.55 L228.75 183.91 L229.35 190.91 L223.66 190.72 L220.10 192.97 L215.66 194.30 L207.18 191.43 L203.59 193.84 L200.95 197.22 L198.29 200.57 L196.05 204.33 L191.94 206.27 L191.67 211.84 L188.22 214.41 L182.81 215.23 L187.21 224.78 L185.69 228.97 L184.18 233.13 L183.79 238.17 L181.14 241.31 L177.44 243.61 L169.32 242.51 L163.80 243.57 L160.98 246.74 L157.44 249.40 L155.77 253.42 L153.17 256.77 L151.85 261.00 L153.22 267.01 L147.02 267.94 L147.09 273.00 L151.93 281.00 L147.50 283.11 L148.41 288.49 L146.73 292.26 L143.64 295.21 L139.69 297.70 L132.53 298.49 L128.91 301.31 L127.37 305.25 L125.18 308.85 L124.92 313.42 L121.38 316.36 L121.53 321.09 L121.85 325.84 L116.20 327.87 L120.54 334.35 L121.72 339.36 L119.48 342.88 L118.83 347.05 L116.92 350.71 L114.64 354.25 L110.30 357.04 L106.26 360.02 L105.42 364.15 L104.08 368.09 L103.69 372.35 L102.67 376.40 L100.85 380.20 L104.26 385.52 L97.83 388.01 L98.17 392.42 L107.03 398.99 L103.54 402.31 L104.78 406.80 L104.93 410.99 L105.33 415.22 L101.30 418.52 L92.81 421.02 L91.73 425.04 L91.73 429.25 L89.73 433.12 L91.41 437.58 L90.09 441.57 L91.02 445.87 L94.47 450.45 L90.23 454.08 L95.26 458.74 L100.59 463.31 L99.43 467.24 L103.64 471.57 L101.11 475.40 L99.60 479.32 L93.67 483.09 L86.31 486.93 L87.02 491.08 L85.80 495.20 L86.46 499.34 L88.27 503.46 L88.61 507.57 L93.28 511.56 L91.65 515.69 L88.49 519.94 L92.16 523.85 L91.28 528.00 L89.97 532.22 L90.04 536.34 L91.92 540.29 L94.07 544.18 L92.92 548.43 L96.48 552.10 L98.02 556.00 L94.84 560.57 L99.97 563.90 L98.49 568.26 L98.08 572.48 L105.36 575.25 L106.54 579.11 L104.16 583.71 L108.12 586.98 L111.47 590.32 L110.11 594.75 L105.80 599.99 L113.14 602.25 L114.56 606.01 L108.27 611.97 L112.22 615.05 L113.61 618.85 L112.40 623.48 L115.04 626.89 L116.09 630.82 L120.02 633.73 L122.93 636.96 L120.37 642.20 L123.62 645.29 L124.67 649.22 L127.45 652.45 L128.90 656.20 L128.57 660.73 L136.86 661.47 L135.34 666.54 L136.49 670.42 L141.03 672.70 L139.93 677.68 L143.05 680.60 L144.83 684.19 L144.78 688.75 L146.97 692.13 L146.32 697.10 L148.69 700.41 L151.36 703.53 L152.13 707.77 L155.87 710.23 L164.02 709.90 L166.33 713.13 L171.72 714.33 L178.36 714.62 L176.22 720.76 L177.37 724.73 L178.98 728.41 L178.76 733.44 L177.81 739.09 L182.42 740.63 L185.40 743.36 L185.19 748.59 L193.17 747.32 L197.43 748.91 L198.08 753.48 L202.91 754.54 L205.87 757.15 L207.46 760.96 L207.24 766.46 L207.81 771.34 L211.14 773.67 L213.00 777.41 L216.51 779.55 L219.80 781.89 L222.79 784.51 L228.80 783.98 L228.16 790.40 L232.30 791.78 L239.65 789.52 L240.78 794.13 L244.68 795.61 L247.68 798.12 L251.42 799.72 L253.83 802.94 L253.54 809.56 L256.45 812.27 L260.37 813.66 L262.50 817.40 L266.69 818.39 L269.69 820.98 L273.44 822.52 L278.47 822.16 L278.74 828.75 L285.32 825.97 L290.86 824.57 L292.86 828.65 L297.56 828.42 L300.54 830.96 L303.48 833.58 L305.51 837.82 L307.24 842.68 L311.14 843.75 L314.46 845.87 L317.76 848.02 L321.20 849.92 L324.21 852.69 L329.44 850.95 L331.96 854.75 L335.32 856.81 L342.53 850.38 L345.14 854.00 L349.94 852.57 L353.00 855.19 L356.77 856.14 L360.21 857.88 L361.93 864.17 L365.21 866.54 L369.38 866.48 L372.60 869.08 L376.57 869.49 L379.83 872.10 L383.95 872.01 L388.64 869.94 L390.92 875.96 L396.09 872.00 L401.35 867.31 L405.02 868.29 L410.08 863.68 L413.44 865.73 L417.13 866.49 L420.17 870.19 L422.63 877.06 L426.03 879.72 L429.78 880.71 L433.39 882.58 L437.31 882.63 L441.16 883.09 L445.37 881.08 L449.10 882.24 L452.73 884.29 L457.61 875.58 L461.43 875.34 L465.31 874.40 L469.24 872.48 L472.90 873.77 L476.62 874.28 L480.06 880.31 L483.69 884.60 L487.54 884.55 L491.35 886.51 L495.23 885.07 L499.08 884.45 L502.93 884.95 L506.69 879.94 L510.60 883.83 L514.33 880.81 L517.77 872.85 L521.52 873.06 L524.96 868.55 L528.84 870.82 L532.53 870.30 L536.40 871.72 L540.96 879.19 L544.86 879.69 L548.63 878.99 L552.48 878.96 L556.14 877.58 L560.08 878.06 L563.33 874.28 L567.07 873.63 L571.25 875.33 L573.37 866.42 L576.50 863.15 L580.18 862.63 L583.11 858.80 L586.41 856.79 L590.33 857.30 L595.43 862.20 L599.88 864.28 L603.52 863.27 L607.48 863.33 L611.00 861.89 L614.61 860.77 L618.00 858.95 L620.28 853.91 L625.36 857.10 L628.66 855.11 L629.96 847.78 L634.57 849.43 L637.29 846.12 L640.25 843.53 L643.67 842.08 L647.12 840.72 L652.23 843.09 L655.93 842.16 L659.13 840.12 L663.02 839.54 L665.57 836.19 L669.36 835.40 L672.20 832.70 L674.63 829.29 L680.16 831.67 L679.85 823.33 L680.90 817.71 L684.80 817.15 L686.16 812.25 L689.99 811.55 L693.58 810.41 L699.05 812.18 L704.32 813.49 L706.96 810.70 L710.30 808.97 L712.88 806.14 L715.71 803.69 L718.98 801.85 L719.63 796.46 L724.97 797.41 L727.66 794.79 L724.82 785.17 L728.92 784.48 L730.88 781.11 L732.43 777.29 L734.85 774.55 L738.78 773.57 L746.51 776.79 L749.05 774.06 L751.13 770.86 L755.87 770.51 L757.30 766.62 L760.11 764.19 L761.76 760.60 L762.14 755.81 L767.78 756.14 L766.77 750.11 L765.28 743.78 L767.77 741.17 L766.31 735.08 L769.51 733.15 L772.14 730.70 L778.28 731.17 L785.33 732.24 L787.37 729.17 L791.19 727.48 L793.56 724.65 L794.61 720.81 L796.91 717.93 L796.15 712.85 L798.02 709.71 L802.22 708.18 L801.45 703.23 L803.27 700.08 L806.86 698.07 L809.73 695.56 L810.49 691.72 L810.97 687.75 L813.54 685.05 L813.58 680.87 L814.28 677.11 L818.10 675.09 L817.01 670.39 L820.06 667.92 L822.79 665.26 L818.92 659.27 L820.09 655.88 L824.63 654.09 L823.05 649.41 L822.53 645.27 L824.90 642.44 L832.23 641.71 L829.33 636.60 L827.40 631.98 L836.80 631.87 L836.47 627.87 L836.84 624.17 L840.54 621.68 L839.55 617.51 L841.28 614.30 L840.56 610.29 L839.01 606.05 L843.79 603.79 L843.81 600.05 L845.21 596.72 L846.97 593.49 L847.19 589.83 L849.57 586.73 L845.62 582.09 L847.12 578.78 L848.15 575.37 L846.44 571.38 L849.23 568.32 L849.44 564.74 L852.10 561.60 L852.68 558.07 L852.76 554.46 L856.77 551.44 L855.62 547.64 L854.74 543.92 L856.39 540.51 L857.62 537.03 L855.35 533.21 L854.52 529.56 L856.52 526.14 L862.01 522.90 L856.41 518.97 L856.05 515.39 L861.93 512.02 L862.82 508.41 L857.03 504.71 L856.71 501.14 L861.57 497.54 L862.80 493.90 L854.71 490.49 L855.15 486.92 L860.10 483.13 L859.19 479.57 L854.15 476.30 L853.89 472.76 L857.96 468.85 L857.00 465.33 L850.09 462.46 L851.25 458.78 L854.84 454.76 L852.78 451.43 L847.55 448.61 L847.77 445.01 L850.52 440.98 L847.94 437.83 L842.60 435.24 L843.08 431.59 L845.33 427.55 L842.73 424.50 L838.10 421.97 L837.16 418.63 L841.10 414.06 L836.89 411.53 L832.37 409.15 L832.73 405.47 L834.71 401.28 L832.73 398.23 L827.30 396.30 L826.78 392.86 L829.12 388.44 L825.91 385.88 L821.76 383.71 L823.35 379.46 L823.77 375.61 L821.01 372.97 L816.69 371.00 L817.50 366.95 L817.49 363.21 L814.36 360.81 L811.42 358.37 L813.60 353.58 L813.33 349.88 L808.98 348.14 L806.47 345.55 L807.77 341.01 L805.47 338.31 L801.82 336.36 L800.29 333.28 L802.77 327.93 L800.07 325.46 L796.12 323.77 L795.28 320.26 L796.88 315.18 L791.30 314.59 L788.18 312.50 L788.69 308.04 L789.76 303.12 L782.95 303.58 L780.51 301.09 L781.48 296.14 L782.25 291.25 L774.71 292.54 L772.15 290.17 L774.39 284.03 L772.32 281.22 L765.05 282.66 L763.03 279.88 L764.81 273.85 L763.98 269.95 L755.86 272.49 L754.29 269.29 L756.49 262.58 L753.11 260.96 L746.63 262.37 L745.18 258.99 L746.37 252.94 L743.03 251.36 L735.45 254.24 L734.84 249.92 L736.14 243.44 L731.80 243.05 L725.97 244.42 L725.06 240.26 L724.65 235.43 L719.88 235.73 L713.69 237.89 L712.91 233.44 L713.47 227.19 L707.67 229.07 L702.92 229.71 L701.34 226.16 L701.08 220.70 L695.14 223.15 L689.97 224.69 L688.82 220.41 L688.37 214.96 L683.31 216.51 L678.37 218.00 L676.25 215.08 L675.93 209.14 L670.15 212.24 L665.32 213.91 L664.03 209.48 L662.28 205.75 L658.45 205.76 L653.42 208.15 L651.20 205.25 L649.69 200.87 L645.32 202.19 L641.23 203.07 L639.22 199.61 L636.98 196.52 L633.48 196.19 L629.21 197.74 L626.96 194.61 L624.69 191.40 L622.40 188.11 L618.27 189.53 L615.54 187.35 L613.33 183.63 L609.51 184.38 L605.11 186.99 L602.32 184.90 L599.36 183.28 L596.75 180.45 L592.45 183.26 L589.58 181.27 L586.76 179.03 L582.70 181.41 L579.04 182.48 L577.06 176.70 L573.15 178.89 L570.04 177.67 L567.55 173.46 L564.46 171.87 L560.12 176.90 L556.93 176.08 L554.38 171.37 L551.32 169.36 L547.21 174.40 L544.03 173.35 L541.59 166.24 L538.14 166.86 L534.19 172.37 L531.05 170.54 L528.32 163.60 L524.69 166.82 L520.97 172.67 L517.93 168.22 L514.74 165.07 L511.19 170.81 L507.87 171.74 L504.58 172.50 L501.30 172.86 L498.04 173.67 L494.82 176.79 L491.54 175.04 L488.02 167.48 L484.85 170.99 L481.63 172.50 L478.26 171.17 L474.70 167.78 L471.83 173.29 L468.90 177.11 L465.37 174.61 L461.58 170.37 L459.06 176.83 L456.16 179.71 L452.64 177.96 L448.67 173.67 L446.49 180.67 L443.85 184.29 L439.95 180.90 L436.31 179.25 L433.70 182.77 L431.10 186.03 L427.61 185.19 L424.35 185.45 L421.26 186.41 L418.59 189.01 L415.50 189.89 L411.70 188.25 L408.95 190.38 L406.80 194.39 L403.98 196.08 L400.38 195.33 L396.66 194.33 L394.30 197.38 L391.33 198.57 L387.58 197.68 L385.65 201.67 L383.85 205.82 L380.55 206.08 L377.40 206.78 L374.89 208.99 L371.62 209.42 L367.93 208.97 L365.06 210.38 L363.22 213.94 L360.27 215.13 L356.05 213.79 L354.66 218.10 L352.44 220.68 L348.40 219.85 L344.98 220.26 L343.81 224.68 L341.04 226.20 L335.73 223.47 L332.74 224.74 L332.06 229.74 L328.42 229.95 L325.78 231.76 L324.47 235.57 L323.10 239.21 L320.27 240.65 L315.24 239.01 L311.33 239.06 L310.96 243.98 L308.11 245.48 L305.29 247.05 L304.54 251.26 L303.81 255.40 L301.65 257.72 L295.20 254.88 L293.00 257.23 L292.90 261.97 L287.96 261.16 L282.58 259.97 L282.34 264.48 L282.87 269.72 L278.54 269.79 L273.81 269.52 L277.83 278.10 L280.78 285.39 L276.53 285.56 L280.69 293.72 L280.23 297.40 L277.09 298.58 L274.81 300.58 L263.17 294.46 L262.60 298.09 L261.50 301.24 L255.90 300.67 L252.12 301.68 L254.95 307.93 L254.71 311.67 L250.08 312.06 L245.91 312.88 L249.60 319.43 L248.74 322.59 L244.40 323.34 L244.45 327.12 L243.64 330.29 L244.55 334.54 L241.40 336.15 L236.56 336.75 L238.78 341.71 L237.94 344.77 L234.04 346.03 L231.49 348.12 L233.66 352.84 L233.29 356.10 L229.66 357.61 L227.04 359.70 L229.08 364.16 L228.44 367.22 L224.92 368.89 L223.41 371.55 L225.07 375.64 L224.97 378.90 L221.10 380.51 L221.09 383.79 L222.57 387.65 L221.28 390.36 L218.03 392.33 L217.06 395.18 L219.25 399.17 L217.28 401.65 L213.21 403.44 L214.38 407.00 L215.03 410.36 L212.13 412.60 L211.84 415.65 L212.38 418.92 L213.38 422.28 L209.51 424.35 L206.31 426.64 L208.04 430.17 L206.75 432.95 L201.22 434.82 L202.04 438.12 L205.04 441.81 L203.96 444.67 L198.97 446.84 L199.92 450.10 L203.19 453.69 L200.81 456.38 L200.04 459.32 L202.72 462.71 L204.09 465.89 L204.81 468.96 L197.80 471.27 L199.62 474.47 L201.49 477.64 L197.36 480.37 L191.76 483.10 L198.14 486.47 L200.13 489.57 L195.66 492.46 L192.60 495.46 L199.81 498.57 L201.13 501.56 L198.31 504.59 L201.61 507.53 L205.56 510.37 L206.65 513.28 L203.77 516.38 L198.13 519.72 L203.73 522.33 L203.73 525.31 L201.52 528.51 L205.58 531.09 L207.74 533.83 L210.70 536.42 L206.89 539.88 L203.45 543.37 L209.28 545.49 L208.04 548.68 L206.20 552.01 L209.73 554.39 L212.48 556.85 L214.84 559.36 L212.38 562.88 L211.50 566.10 L216.80 567.87 L215.33 571.24 L214.28 574.55 L218.22 576.54 L220.18 579.02 L223.78 580.99 L221.27 584.77 L222.62 587.39 L226.81 589.09 L226.62 592.18 L226.03 595.44 L234.57 595.46 L238.63 596.96 L237.51 600.37 L236.75 603.69 L243.54 603.99 L243.60 606.96 L238.93 611.99 L239.72 614.75 L249.55 613.42 L249.78 616.34 L244.29 622.02 L245.44 624.61 L252.10 624.44 L250.88 628.18 L251.42 631.07 L253.57 633.10 L257.44 634.16 L262.76 634.34 L263.37 637.13 L262.34 640.92 L259.66 645.78 L266.53 644.83 L269.59 646.14 L261.72 654.49 L267.34 654.17 L275.60 651.95 L276.41 654.69 L274.21 659.57 L273.44 663.53 L280.08 662.12 L282.30 663.86 L280.51 668.67 L288.38 666.01 L292.72 665.99 L287.49 673.69 L292.28 673.27 L292.47 676.66 L289.70 682.67 L289.20 686.84 L294.43 685.91 L299.87 684.66 L297.48 690.65 L296.96 695.00 L307.33 688.79 L310.19 689.75 L306.93 696.91 L308.38 699.37 L316.38 694.92 L317.36 697.79 L311.93 707.81 L316.96 706.36 L324.65 701.72 L321.74 709.26 L320.68 714.82 L325.11 713.83 L330.19 711.90 L328.94 717.89 L328.09 723.54 L334.34 719.93 L339.21 717.96 L336.86 725.85 L337.20 730.19 L344.84 724.10 L348.23 723.96 L348.70 728.14 L350.54 730.35 L356.70 725.76 L359.33 726.60 L357.49 734.76 L358.71 738.09 L362.45 737.15 L367.16 734.40 L367.14 740.01 L368.38 743.48 L375.46 735.99 L378.91 735.12 L378.20 742.44 L379.99 744.95 L385.64 739.44 L388.36 739.90 L386.52 750.37 L390.16 748.91 L396.45 741.15 L397.06 746.52 L397.17 753.34 L400.49 752.37 L405.45 747.01 L406.33 752.23 L406.42 759.92 L411.06 755.02 L415.80 749.43 L416.26 756.50 L417.81 760.53 L422.63 754.10 L426.51 750.30 L427.18 757.51 L429.07 760.78 L433.19 755.68 L435.93 755.64 L437.01 762.42 L439.28 764.60 L442.35 763.27 L445.93 759.29 L447.50 765.01 L449.72 767.83 L453.83 760.24 L456.89 758.00 L458.62 763.82 L461.10 765.36 L464.59 759.57 L467.26 759.38 L468.78 768.92 L471.73 766.80 L475.17 758.96 L477.47 762.59 L479.82 766.47 L482.55 765.73 L485.56 759.61 L488.05 761.98 L490.41 769.59 L493.20 765.72 L495.97 758.98 L498.53 763.82 L501.19 769.92 L503.80 763.65 L506.29 757.47 L509.04 762.43 L511.69 762.87 L514.15 759.78 L516.55 756.57 L519.58 762.57 L522.61 767.13 L525.06 764.56 L527.24 759.89 L530.40 764.53 L533.18 765.32 L534.61 755.90 L536.40 750.31 L539.31 752.53 L540.78 745.80 L543.38 746.17 L545.65 744.73 L547.53 741.38 L552.20 751.76 L554.42 749.89 L555.71 744.04 L559.19 747.86 L561.44 746.34 L564.24 747.01 L566.02 743.84 L568.55 743.49 L573.08 749.96 L573.30 741.74 L575.27 739.56 L579.68 745.00 L580.39 739.03 L583.59 740.57 L585.23 737.60 L587.49 736.42 L591.53 739.95 L591.01 731.59 L593.44 730.97 L597.05 733.16 L598.75 730.71 L601.52 730.79 L602.27 726.32 L607.36 731.39 L609.93 730.84 L608.04 721.15 L614.41 728.37 L616.43 726.72 L616.30 720.99 L620.75 723.99 L620.30 717.91 L624.17 719.70 L625.68 717.27 L624.36 710.11 L629.06 713.16 L631.16 711.83 L633.40 710.70 L634.72 708.14 L635.64 705.05 L642.52 710.84 L641.01 704.17 L640.11 698.59 L649.41 707.34 L647.49 700.41 L649.57 699.04 L652.44 698.70 L652.37 694.55 L656.94 696.30 L654.44 689.26 L655.54 686.77 L659.59 687.78 L660.42 684.98 L664.00 685.33 L662.56 680.03 L667.82 682.17 L671.78 682.77 L666.61 673.75 L670.21 673.98 L673.83 674.17 L672.92 669.82 L673.59 667.11 L678.40 668.33 L680.71 667.13 L680.09 663.25 L679.97 659.89 L680.00 656.72 L684.14 657.12 L686.95 656.31 L689.36 655.13 L691.56 653.76 L698.61 656.18 L700.59 654.51 L694.77 646.95 L701.60 648.96 L702.91 646.82 L703.28 644.01 L708.67 644.72 L707.97 641.17 L712.49 641.16 L713.69 638.90 L713.26 635.60 L712.56 632.19 L711.38 628.55 L715.78 628.28 L713.06 623.80 L711.32 619.98 L717.03 620.37 L716.23 617.11 L718.06 615.29 L722.91 615.02 L721.41 611.46 L723.56 609.75 L724.69 607.53 L723.37 604.17 L725.00 602.20 L725.86 599.88 L726.35 597.41 L725.65 594.44 L727.28 592.46 L729.91 590.86 L724.16 586.01 L728.51 585.07 L732.48 583.91 L725.57 578.87 L732.46 578.68 L732.31 576.05 L727.73 572.04 L733.97 571.45 L731.48 568.16 L734.13 566.41 L735.84 564.35 L735.97 561.86 L736.03 559.36 L734.40 556.46 L738.26 554.88 L736.33 551.95 L732.54 548.68 L740.33 547.81 L738.31 544.93 L732.59 541.45 L735.74 539.59 L733.24 536.77 L734.81 534.62 L733.72 532.07 L735.39 529.91 L740.45 528.11 L740.50 525.68 L741.04 523.30 L740.33 520.81 L740.27 518.39 L740.39 515.98 L735.62 513.30 L739.41 511.11 L742.16 508.81 L735.07 506.20 L739.66 503.92 L739.04 501.52 L734.79 499.15 L737.16 496.77 L734.90 494.45 L737.84 492.00 L738.86 489.57 L738.10 487.22 L738.67 484.79 L736.64 482.54 L737.93 480.06 L735.58 477.88 L729.77 476.10 L735.84 473.09 L735.11 470.79 L728.96 469.22 L735.94 465.88 L733.13 463.90 L731.85 461.72 L731.50 459.40 L729.95 457.29 L730.87 454.73 L730.57 452.39 L730.61 449.97 L729.19 447.87 L726.71 446.05 L728.14 443.29 L722.92 442.22 L722.93 439.83 L726.39 436.46 L720.73 435.66 L723.05 432.56 L724.58 429.64 L719.13 428.93 L720.92 425.90 L718.90 424.13 L719.80 421.35 L718.74 419.25 L717.20 417.34 L717.47 414.74 L714.12 413.58 L714.06 411.10 L712.88 409.09 L705.37 409.85 L708.80 405.85 L710.43 402.57 L701.98 404.01 L702.83 401.11 L703.22 398.39 L699.81 397.59 L698.99 395.48 L699.32 392.75 L702.82 388.24 L701.76 386.18 L700.81 384.05 L700.07 381.80 L696.53 381.23 L696.09 378.79 L691.80 378.78 L689.52 377.55 L692.32 373.00 L689.09 372.40 L687.43 370.77 L687.75 367.76 L686.23 366.02 L683.60 365.11 L677.36 366.94 L677.44 364.09 L676.46 362.02 L671.08 363.45 L672.94 359.11 L673.69 355.58 L671.07 354.84 L670.61 352.27 L666.52 352.87 L661.22 354.66 L662.44 350.59 L659.78 350.06 L654.34 352.23 L653.62 349.96 L655.94 344.61 L653.27 344.19 L647.27 347.26 L651.16 340.06 L651.19 336.79 L648.71 336.20 L648.77 332.81 L646.07 332.50 L645.95 329.23 L643.10 329.12 L638.22 331.56 L639.84 326.06 L637.96 324.84 L635.10 324.90 L633.41 323.47 L630.22 324.07 L629.57 321.23 L625.52 323.12 L623.01 322.93 L623.10 318.96 L620.47 318.97 L619.82 315.98 L618.09 314.62 L615.58 314.48 L614.63 311.84 L612.65 310.86 L610.98 309.36 L609.96 306.69 L607.29 306.92 L605.84 304.95 L604.26 303.19 L599.33 307.87 L595.13 311.39 L594.40 308.11 L591.14 309.95 L587.91 311.89 L588.27 306.08 L586.65 304.48 L584.46 304.15 L583.92 299.93 L581.68 299.68 L577.80 303.60 L578.77 295.21 L575.04 298.93 L570.91 304.01 L569.63 301.37 L567.01 302.55 L565.29 301.09 L563.20 300.75 L562.09 297.24 L561.68 291.15 L559.31 291.52 L557.21 291.00 L555.18 290.19 L552.77 290.85 L551.05 288.80 L547.91 292.75 L546.12 290.98 L544.54 288.08 L540.81 295.70 L538.99 294.14 L537.20 292.20 L534.90 293.17 L533.04 291.50 L531.05 290.53 L529.41 286.92 L527.45 285.31 L525.11 286.70 L523.05 285.75 L520.67 287.94 L518.57 287.56 L516.43 287.51 L513.88 293.73 L512.13 288.07 L509.90 290.29 L507.53 297.40 L505.55 295.65 L503.48 297.19 L501.45 297.43 L499.42 296.42 L497.36 294.42 L495.21 290.18 L493.09 289.58 L491.00 290.10 L488.89 289.97 L486.76 289.63 L484.54 288.13 L482.74 292.06 L480.71 292.78 L478.29 289.65 L476.68 294.19 L474.64 294.55 L472.74 295.99 L470.76 296.69 L468.56 295.87 L467.16 300.11 L464.82 298.49 L462.37 296.46 L460.23 296.32 L458.18 296.67 L456.09 296.80 L453.75 295.91 L451.78 296.67 L450.78 301.32 L448.05 298.92 L446.41 300.83 L447.09 310.90 L444.93 310.50 L444.50 315.93 L442.48 315.89 L440.75 316.82 L438.69 316.73 L434.18 309.60 L431.18 307.20 L429.18 307.67 L427.03 307.78 L425.55 309.65 L423.26 309.44 L422.13 312.08 L421.43 315.62 L417.38 311.37 L418.60 319.11 L418.80 324.26 L416.73 324.42 L416.93 329.28 L415.15 329.96 L413.05 330.02 L409.42 327.21 L404.72 322.57 L402.52 322.76 L400.53 323.35 L398.77 324.35 L396.95 325.25 L395.19 326.27 L396.15 331.69 L392.73 329.97 L391.06 331.10 L395.16 340.96 L393.50 341.91 L393.51 345.28 L392.27 346.78 L391.12 348.40 L388.79 348.37 L382.07 342.54 L379.23 342.07 L377.19 342.69 L374.86 342.96 L373.96 345.04 L371.98 345.78 L371.61 348.44 L373.21 353.34 L368.94 351.42 L370.31 355.90 L371.13 359.66 L368.07 359.19 L368.28 362.19 L366.11 362.70 L365.16 364.46 L362.13 364.17 L358.70 363.55 L357.36 364.98 L355.90 366.31 L354.24 367.45 L353.22 369.18 L352.38 371.06 L353.78 374.84 L350.80 374.85 L348.47 375.45 L352.52 381.23 L350.79 382.28 L349.30 383.53 L349.66 386.20 L349.13 388.14 L348.07 389.70 L344.09 389.18 L341.55 389.74 L340.20 391.15 L338.51 392.35 L337.84 394.23 L335.61 395.11 L336.86 398.18 L339.09 401.80 L332.88 400.29 L336.43 404.61 L341.77 409.83 L337.99 409.81 L339.76 412.88 L338.14 414.09 L337.34 415.74 L334.79 416.50 L328.76 415.59 L328.23 417.46 L327.53 419.23 L327.10 421.13 L327.33 423.31 L324.86 424.30 L327.71 427.57 L326.66 429.16 L323.22 429.81 L329.85 434.40 L329.55 436.24 L328.35 437.74 L328.79 439.83 L327.90 441.44 L326.44 442.88 L323.74 443.94 L320.90 445.00 L320.63 446.87 L321.67 449.11 L323.38 451.50 L320.74 452.70 L319.53 454.31 L324.94 457.54 L317.26 457.61 L318.42 459.78 L326.90 463.47 L322.57 464.41 L324.37 466.59 L325.25 468.57 L323.03 469.99 L320.58 471.42 L313.96 472.27 L313.52 474.11 L315.54 476.27 L313.07 477.85 L314.04 479.84 L314.60 481.78 L316.22 483.79 L319.33 485.89 L317.80 487.60 L318.87 489.49 L320.13 491.37 L316.31 493.02 L314.56 494.81 L315.98 496.69 L316.18 498.54 L316.92 500.37 L320.33 502.16 L322.33 503.92 L321.12 505.73 L322.01 507.49 L322.84 509.23 L320.44 511.15 L323.42 512.74 L328.16 514.13 L326.24 516.04 L327.13 517.70 L332.55 518.84 L332.44 520.55 L326.76 523.01 L327.92 524.61 L335.32 525.23 L327.46 528.20 L324.95 530.42 L327.17 531.81 L325.01 534.02 L326.59 535.52 L324.92 537.69 L326.36 539.20 L332.75 539.52 L327.91 542.49 L328.11 544.26 L330.63 545.42 L330.04 547.41 L331.73 548.76 L331.41 550.68 L333.85 551.77 L336.70 552.68 L337.03 554.37 L339.35 555.39 L337.50 557.85 L338.49 559.33 L338.66 561.10 L337.21 563.52 L337.58 565.26 L337.99 566.98 L337.92 568.92 L339.53 570.14 L339.38 572.12 L337.64 574.86 L340.66 575.41 L342.86 576.30 L342.91 578.23 L342.91 580.20 L344.35 581.44 L346.08 582.50 L345.41 584.86 L344.90 587.17 L346.48 588.32 L349.16 588.79 L351.56 589.39 L350.01 592.38 L354.34 591.73 L360.13 590.05 L360.69 591.68 L364.88 590.87 L365.28 592.57 L366.86 593.46 L367.08 595.30 L362.60 600.61 L363.98 601.70 L365.34 602.80 L365.66 604.70 L366.88 605.91 L368.46 606.82 L371.01 606.91 L370.90 609.19 L371.23 611.13 L373.25 611.62 L373.98 613.24 L373.04 616.40 L374.59 617.31 L377.09 617.30 L378.49 618.30 L379.09 620.10 L380.41 621.19 L382.54 621.44 L382.75 623.67 L383.02 625.88 L384.69 626.60 L387.26 626.29 L389.61 626.18 L389.02 629.44 L392.15 628.37 L397.25 624.81 L398.30 626.08 L401.84 624.22 L403.31 624.91 L404.99 625.31 L406.42 626.02 L403.63 632.52 L404.44 634.21 L406.13 634.67 L406.83 636.54 L407.82 638.04 L409.66 638.26 L412.74 636.52 L413.44 638.45 L415.02 639.00 L416.88 639.05 L417.61 641.02 L418.69 642.43 L419.36 644.58 L420.98 645.07 L422.97 644.84 L423.78 646.86 L425.35 647.42 L427.70 646.39 L428.57 648.34 L429.33 650.60 L431.25 650.39 L433.52 649.36 L435.40 649.14 L436.27 651.25 L438.31 650.62 L441.88 646.04 L443.39 646.50 L446.13 643.66 L447.69 643.85 L449.55 643.18 L451.42 642.40 L450.76 649.21 L451.58 651.81 L453.19 652.00 L454.53 653.06 L455.70 654.78 L457.38 654.76 L459.75 652.05 L461.16 652.89 L462.47 654.20 L464.33 653.19 L465.90 653.37 L467.01 655.71 L468.47 656.56 L470.12 656.41 L471.90 655.52 L473.37 656.29 L474.82 657.24 L476.66 655.77 L478.05 657.18 L479.39 659.16 L481.02 659.10 L482.78 657.70 L484.47 656.75 L486.00 657.35 L487.63 656.69 L489.52 652.11 L491.15 650.50 L492.78 647.93 L494.31 646.85 L495.79 646.34 L497.28 644.86 L498.68 650.54 L500.19 653.37 L501.72 652.96 L503.26 653.50 L504.84 654.80 L506.35 653.82 L507.74 650.99 L509.24 650.69 L510.83 651.79 L512.18 649.57 L513.77 650.50 L515.30 650.57 L516.85 650.81 L518.69 653.39 L519.95 651.10 L521.39 650.43 L523.29 652.84 L524.51 650.71 L526.07 650.72 L527.82 651.82 L529.25 651.10 L530.53 649.63 L531.72 647.94 L533.17 647.45 L534.73 647.50 L535.24 643.22 L535.79 639.45 L536.81 637.67 L537.71 635.59 L539.04 635.13 L540.01 633.48 L542.92 638.16 L545.25 640.67 L546.55 639.89 L548.12 639.91 L549.83 640.30 L551.24 639.85 L551.87 637.28 L553.01 636.17 L555.01 637.24 L556.09 635.97 L557.02 634.40 L558.88 635.01 L560.74 635.55 L562.40 635.61 L562.73 632.82 L564.14 632.37 L566.52 633.85 L566.80 631.09 L568.08 630.38 L570.13 631.09 L571.54 630.57 L572.20 628.70 L572.69 626.59 L573.71 625.45 L575.59 625.74 L574.75 621.59 L573.35 616.67 L573.94 615.05 L574.39 613.23 L575.28 612.12 L575.44 609.98 L579.26 613.11 L582.88 615.79 L583.78 614.61 L585.12 614.03 L587.04 614.20 L588.08 613.20 L588.19 611.03 L588.66 609.36 L590.45 609.31 L590.20 606.82 L591.03 605.64 L593.67 606.53 L590.00 600.32 L592.39 600.93 L592.52 599.07 L588.04 592.40 L593.94 596.64 L593.74 594.53 L592.15 591.08 L595.46 592.48 L598.36 593.41 L597.06 590.34 L595.39 587.03 L598.33 587.92 L602.33 589.67 L598.28 584.40 L595.95 580.75 L596.22 579.35 L597.65 578.90 L599.18 578.50 L596.18 574.57 L600.67 576.46 L607.35 579.85 L603.93 575.71 L602.67 573.23 L606.78 574.56 L608.79 574.35 L605.46 570.54 L605.24 568.88 L611.17 571.19 L611.49 569.83 L606.64 565.32 L607.05 564.11 L612.86 566.06 L612.47 564.33 L610.10 561.52 L612.35 561.31 L618.02 562.88 L615.10 559.86 L610.16 555.89 L612.78 555.81 L616.48 556.20 L615.08 554.11 L612.70 551.63 L615.16 551.37 L621.08 552.56 L615.46 548.76 L611.24 545.67 L611.22 544.37 L610.89 542.95 L612.38 542.24 L611.44 540.62 L613.78 540.19 L621.17 541.45 L619.05 539.39 L615.46 536.93 L618.42 536.57 L620.89 536.02 L618.15 533.92 L621.45 533.55 L626.87 533.69 L627.90 532.60 L627.60 531.16 L628.16 529.95 L627.02 528.34 L627.12 527.04 L626.78 525.64 L625.45 524.07 L625.25 522.73 L625.22 521.44 L624.35 520.01 L622.99 518.53 L623.43 517.34 L622.71 515.99 L621.90 514.64 L622.18 513.44 L623.03 512.29 L623.76 511.11 L625.44 510.00 L626.53 508.82 L627.27 507.59 L627.61 506.33 L626.69 505.01 L625.06 503.70 L620.85 502.36 L616.07 501.11 Z"/>
  <svg class="pausebutton" id="pausebutton">
    <circle cx="500" cy="500" id="pausestart" class="pausestart" r="52.65"/>
    <rect height="50.02" width="10.00" y="473.68" rx="2.00" ry="2.00" x="479.99" class="pausesymbol"/>
    <rect height="50.02" width="10.00" y="473.68" rx="2.00" ry="2.00" x="510.00" class="pausesymbol"/>
    <polygon points="530.01,500 479.99,530.01 479.99,469.99" class="playsymbol"/>
  </svg>
  <polygon id="playback-head" class="playback-head" points="941.65,500 921.65,540 961.65,540"/>
</svg>