<?xml-stylesheet href="../../style/waveformjs.css" type="text/css"?>
<svg xmlns="http://www.w3.org/2000/svg" xmlns:xlink="http://www.w3.org/1999/xlink" width="100%" height="100%" viewBox="0 0 1000 1000">
  <path class="svg-wave" id="sp" d="M590.94 500.00 L591.13 500.91 L591.30 501.83 L591.46 502.74 L591.60 503.67 L591.73 504.59 L591.16 505.48 L588.01 506.17 L585.94 506.89 L583.45 507.53 L582.18 508.25 L582.63 509.13 L582.96 510.00 L584.65 511.07 L584.90 511.96 L585.71 512.95 L584.77 513.68 L583.37 514.31 L581.67 514.86 L579.82 515.35 L577.84 515.78 L575.98 516.19 L576.14 517.03 L577.61 518.17 L578.19 519.13 L580.05 520.44 L579.10 521.04 L578.38 521.69 L576.84 522.10 L575.95 522.67 L573.47 522.73 L571.49 522.90 L570.36 523.32 L571.22 524.39 L569.78 524.69 L572.42 526.43 L570.30 526.46 L568.08 526.41 L561.84 524.70 L552.70 521.66 L553.92 522.80 L552.38 522.76 L561.94 527.66 L566.72 530.60 L566.69 531.39 L562.16 530.03 L553.73 526.62 L557.54 529.23 L554.22 528.23 L562.18 533.17 L563.19 534.52 L560.73 533.97 L559.42 534.02 L560.81 535.63 L561.34 536.77 L564.62 539.62 L566.90 541.94 L564.48 541.33 L560.02 539.32 L551.70 534.62 L555.57 538.02 L554.20 537.88 L562.64 544.72 L565.07 547.44 L563.94 547.61 L561.07 546.42 L560.56 547.00 L561.59 548.79 L561.98 550.12 L565.66 554.19 L562.76 552.86 L557.99 549.84 L549.67 543.56 L551.29 545.90 L550.42 546.04 L556.50 552.63 L559.16 556.23 L558.52 556.74 L555.60 555.00 L554.11 554.61 L555.20 556.84 L553.28 555.97 L554.05 557.92 L553.35 558.33 L549.21 554.90 L544.82 551.01 L542.89 549.82 L546.32 554.90 L545.20 554.68 L551.49 563.57 L550.84 564.07 L550.56 565.04 L548.93 564.26 L549.15 565.90 L548.70 566.69 L549.71 569.52 L552.52 575.02 L551.18 574.68 L547.56 570.91 L541.63 563.43 L541.41 564.49 L541.01 565.30 L543.64 571.05 L546.35 577.18 L544.43 575.69 L541.03 571.53 L540.05 571.46 L540.10 573.27 L541.26 577.21 L543.84 584.05 L542.79 584.08 L539.58 579.74 L534.22 570.69 L532.59 569.08 L529.85 564.95 L530.56 568.29 L531.40 572.10 L531.95 575.40 L532.72 579.42 L531.84 579.53 L531.39 580.75 L528.68 576.02 L528.15 576.91 L526.88 575.81 L526.53 577.24 L523.83 571.73 L523.79 574.06 L523.29 575.07 L523.91 579.89 L525.14 587.18 L524.94 589.85 L523.89 589.53 L522.35 587.23 L521.11 585.95 L520.31 586.44 L518.79 583.71 L518.00 584.14 L516.51 581.14 L515.14 578.41 L514.16 577.47 L513.81 580.06 L513.40 582.65 L512.86 584.64 L512.39 587.40 L511.39 586.56 L510.27 584.59 L509.63 586.52 L508.87 587.73 L508.29 591.02 L507.57 593.47 L506.61 593.20 L505.42 588.97 L504.28 584.10 L503.56 587.27 L502.61 584.61 L501.88 590.50 L500.95 588.09 L500.07 588.46 L499.20 586.91 L498.28 589.40 L497.32 591.71 L496.24 595.87 L495.25 596.54 L494.25 597.07 L493.44 594.64 L493.05 587.54 L492.33 585.76 L491.63 584.05 L490.45 587.09 L489.21 590.11 L487.84 593.62 L487.10 592.08 L486.33 590.96 L485.03 593.21 L483.92 594.13 L482.17 598.40 L480.95 599.49 L480.53 596.47 L480.73 590.77 L479.83 590.56 L478.80 590.88 L476.90 594.73 L475.55 596.08 L475.04 594.12 L475.39 589.19 L474.40 589.30 L473.04 590.60 L470.44 595.84 L466.86 603.75 L465.79 603.51 L463.86 605.78 L465.76 597.03 L468.05 587.74 L467.09 587.63 L468.30 581.92 L465.10 587.58 L462.96 590.32 L461.39 591.53 L460.73 590.55 L458.50 593.14 L458.15 591.43 L455.61 594.49 L453.18 597.13 L452.16 596.75 L452.67 593.37 L455.78 585.11 L453.46 587.42 L454.53 583.38 L450.04 589.49 L449.49 588.37 L448.07 588.79 L448.42 586.20 L446.79 586.95 L444.43 588.79 L442.80 589.40 L439.61 592.33 L439.04 591.20 L438.45 590.11 L441.66 583.61 L442.19 581.11 L441.44 580.45 L441.91 578.15 L436.93 583.10 L436.20 582.34 L433.23 584.42 L433.52 582.35 L429.56 585.48 L430.50 582.65 L425.38 586.95 L425.00 585.65 L424.09 584.96 L428.23 578.73 L430.03 575.23 L427.24 576.68 L427.42 574.97 L421.13 579.86 L421.81 577.59 L421.13 576.72 L421.19 575.14 L421.06 573.78 L418.59 574.57 L417.35 574.20 L413.80 575.85 L413.36 574.71 L413.30 573.26 L417.63 568.20 L415.05 568.92 L414.79 567.73 L410.78 569.47 L407.69 570.41 L407.37 569.20 L407.66 567.55 L407.17 566.50 L405.77 566.08 L404.81 565.34 L400.80 566.65 L399.45 566.11 L400.41 564.06 L405.39 559.52 L404.44 558.80 L405.52 556.84 L402.16 557.53 L400.49 557.19 L399.59 556.37 L400.65 554.48 L398.53 554.33 L396.42 554.14 L395.47 553.31 L391.44 554.00 L390.59 553.06 L388.50 552.71 L392.14 549.68 L396.56 546.39 L392.61 546.88 L397.03 543.73 L388.96 545.85 L389.63 544.29 L389.07 543.23 L390.02 541.60 L387.94 541.11 L388.27 539.72 L383.19 540.22 L382.59 539.12 L379.16 538.92 L384.10 536.05 L389.25 533.24 L385.13 533.23 L389.02 530.90 L378.94 532.41 L382.04 530.32 L382.44 528.97 L384.23 527.30 L382.80 526.40 L377.97 526.21 L372.18 526.12 L366.65 525.87 L364.89 524.81 L370.16 522.50 L377.10 520.03 L381.35 518.13 L379.38 517.19 L377.09 516.27 L371.45 515.71 L371.64 514.38 L372.24 513.02 L373.76 511.59 L369.09 510.70 L370.95 509.25 L364.45 508.36 L365.79 506.93 L366.47 505.56 L373.36 504.00 L377.14 502.65 L375.09 501.45 L375.60 500.20 L370.44 498.91 L371.52 497.63 L372.34 496.37 L372.76 495.11 L369.95 493.70 L370.43 492.42 L367.44 490.92 L366.02 489.47 L366.07 488.13 L367.52 486.92 L375.06 486.40 L369.70 484.50 L374.27 483.77 L366.93 481.46 L365.54 479.90 L365.39 478.50 L367.70 477.51 L366.39 475.91 L366.02 474.45 L364.34 472.72 L361.06 470.62 L360.44 469.03 L364.48 468.50 L372.43 469.00 L371.35 467.37 L372.91 466.41 L368.15 463.74 L365.76 461.63 L366.87 460.50 L368.22 459.46 L370.58 458.77 L369.66 457.04 L370.63 455.92 L368.65 453.77 L367.89 452.02 L368.23 450.64 L373.10 451.01 L375.67 450.57 L373.37 448.18 L376.78 448.13 L370.08 443.78 L372.01 443.09 L370.68 440.94 L373.87 440.87 L371.17 438.02 L375.68 438.65 L370.12 434.29 L371.86 433.55 L369.26 430.53 L375.78 432.39 L380.10 433.18 L378.54 430.71 L381.78 430.98 L374.43 425.00 L380.10 426.75 L378.23 423.93 L382.44 424.91 L379.83 421.54 L379.97 419.91 L376.53 415.82 L375.39 413.20 L377.19 412.62 L377.75 411.16 L385.45 415.00 L385.90 413.55 L387.55 413.01 L386.77 410.59 L384.39 406.82 L384.73 405.17 L386.26 404.51 L387.39 403.52 L388.04 402.12 L389.48 401.41 L386.42 396.62 L388.63 396.58 L388.46 394.32 L395.75 399.24 L396.36 397.80 L398.52 397.91 L396.45 393.72 L395.43 390.51 L398.05 391.08 L398.62 389.50 L401.18 390.10 L400.27 386.84 L398.82 382.85 L394.21 375.01 L393.44 371.52 L394.96 370.74 L400.23 374.68 L408.51 382.70 L408.12 379.73 L412.17 382.63 L408.54 375.19 L409.40 373.73 L409.51 371.18 L412.91 373.35 L412.34 369.75 L416.19 372.74 L414.63 367.50 L415.50 365.93 L415.73 363.29 L418.33 364.49 L423.49 370.13 L423.87 367.77 L426.93 370.09 L424.29 362.20 L426.70 363.37 L427.03 360.65 L429.66 362.35 L430.26 360.09 L430.86 357.74 L431.12 354.59 L430.51 349.43 L433.08 351.11 L433.68 348.41 L438.60 355.73 L440.49 356.19 L440.91 353.07 L443.53 355.42 L442.27 347.73 L444.22 348.33 L445.24 346.37 L447.61 348.22 L447.99 344.31 L450.84 347.79 L450.23 340.47 L452.45 342.04 L453.15 338.54 L456.78 345.28 L459.01 347.40 L460.23 345.79 L462.08 346.65 L461.79 338.57 L464.43 342.71 L465.49 339.96 L467.75 342.84 L468.70 339.31 L470.45 339.78 L470.93 333.07 L472.51 332.20 L474.18 331.90 L475.96 332.34 L478.75 340.46 L480.07 337.95 L481.88 339.42 L483.11 335.63 L484.44 332.06 L486.07 331.35 L487.88 332.84 L489.50 331.91 L491.21 332.31 L492.83 330.95 L494.37 326.16 L496.12 326.64 L497.85 326.62 L499.61 334.68 L501.26 334.10 L502.88 336.71 L504.70 330.00 L506.41 329.54 L508.09 330.27 L509.74 331.09 L511.34 332.50 L513.19 330.40 L515.05 328.71 L517.34 322.96 L518.97 324.40 L521.03 321.98 L522.15 327.38 L523.15 332.84 L525.61 327.74 L526.14 335.55 L529.45 325.97 L530.81 328.38 L532.97 326.31 L534.08 329.77 L536.40 327.18 L537.09 332.24 L540.16 326.62 L541.91 326.97 L544.40 324.38 L545.08 328.90 L545.13 335.41 L547.71 332.58 L548.06 337.54 L553.05 327.04 L552.86 333.60 L555.34 331.67 L555.65 336.26 L558.43 333.57 L561.36 330.63 L565.55 324.58 L570.66 316.52 L572.94 316.12 L572.89 321.46 L571.51 329.73 L570.05 337.77 L572.06 337.61 L573.28 339.21 L577.36 334.65 L578.73 336.02 L580.58 336.39 L581.66 338.28 L584.59 336.57 L584.42 340.81 L589.73 334.81 L589.49 339.12 L592.93 336.79 L590.19 345.23 L591.05 347.29 L592.75 347.91 L595.28 347.21 L600.02 343.13 L599.47 347.38 L601.86 347.08 L601.16 351.38 L604.37 349.90 L605.53 351.43 L610.94 347.08 L611.99 348.83 L614.54 348.58 L615.00 351.09 L611.57 358.48 L615.77 356.13 L614.49 360.60 L619.86 357.01 L622.73 356.52 L624.76 357.07 L624.77 359.91 L627.75 359.42 L626.80 363.24 L630.59 361.94 L633.98 361.16 L636.27 361.59 L636.54 364.07 L632.79 370.41 L634.45 371.39 L633.55 374.79 L640.65 370.75 L641.15 372.87 L643.17 373.62 L642.88 376.40 L644.18 377.77 L647.21 377.71 L649.75 378.11 L655.73 375.82 L655.16 378.79 L658.68 378.57 L654.04 384.55 L652.38 388.15 L654.84 388.71 L654.04 391.61 L661.47 388.78 L661.92 390.83 L662.81 392.59 L664.12 394.07 L665.12 395.74 L667.30 396.69 L669.87 397.44 L670.00 399.66 L672.58 400.46 L672.53 402.77 L673.78 404.35 L678.36 404.14 L680.84 405.12 L682.77 406.42 L689.24 405.49 L688.25 408.32 L694.81 407.53 L697.56 408.63 L695.95 411.75 L699.14 412.69 L699.29 414.99 L698.42 417.70 L703.96 417.78 L704.38 419.98 L702.63 422.99 L699.50 426.46 L698.34 429.13 L693.44 433.05 L694.23 434.95 L696.40 436.40 L697.02 438.37 L702.26 438.94 L704.68 440.44 L708.70 441.52 L711.60 442.99 L712.30 445.07 L715.35 446.57 L716.73 448.52 L711.82 451.92 L716.73 453.08 L713.53 456.01 L716.88 457.57 L720.90 459.07 L722.53 461.07 L724.03 463.11 L725.75 465.14 L728.85 467.01 L726.50 469.65 L725.32 472.10 L727.40 474.15 L725.25 476.67 L718.08 479.62 L714.95 482.08 L706.56 484.86 L704.84 487.04 L707.12 488.97 L710.02 490.92 L711.80 492.97 L715.48 495.00 L720.00 497.10 L725.21 499.28 L729.12 501.56 L733.96 503.93 L733.50 506.26 L734.74 508.65 L734.03 510.96 L731.39 513.16 L732.96 515.59 L728.47 517.58 L733.09 520.29 L731.34 522.47 L729.96 524.66 L730.10 527.00 L726.06 528.82 L726.81 531.23 L726.52 533.50 L729.95 536.36 L727.60 538.32 L722.05 539.68 L721.08 541.79 L713.71 542.61 L715.03 545.12 L715.78 547.53 L717.63 550.23 L721.55 553.47 L725.84 556.90 L726.99 559.61 L729.54 562.74 L725.17 563.97 L725.95 566.64 L723.52 568.36 L719.25 569.46 L717.94 571.45 L716.68 573.45 L714.69 575.17 L717.40 578.57 L718.67 581.51 L716.09 583.02 L718.06 586.29 L717.90 588.76 L718.49 591.56 L717.85 593.86 L719.00 596.97 L718.97 599.58 L717.05 601.34 L717.79 604.35 L715.51 605.92 L712.15 606.91 L710.21 608.59 L707.14 609.64 L702.57 609.83 L699.80 610.93 L698.32 612.72 L695.18 613.52 L695.64 616.42 L695.66 619.10 L694.78 621.26 L693.31 623.04 L692.04 624.94 L688.55 625.37 L690.45 629.41 L684.44 628.04 L686.58 632.30 L683.19 632.68 L685.33 637.07 L684.69 639.48 L686.34 643.67 L682.91 643.97 L681.61 645.91 L678.96 646.75 L672.38 644.26 L674.51 649.03 L667.69 646.13 L674.35 655.03 L670.64 654.82 L671.20 658.48 L669.61 660.18 L668.15 662.01 L667.57 664.71 L669.51 669.99 L670.00 673.92 L668.25 675.62 L663.27 673.86 L656.42 669.94 L661.08 678.56 L658.42 679.18 L669.52 695.64 L667.34 697.07 L659.88 692.15 L651.66 686.03 L644.34 680.71 L645.11 685.44 L642.90 686.43 L648.71 698.08 L645.47 697.86 L640.96 695.79 L635.09 691.65 L630.28 688.82 L629.10 691.17 L626.98 692.14 L627.30 696.88 L624.61 697.01 L621.96 697.15 L620.41 699.07 L620.03 703.01 L618.68 705.38 L615.12 703.90 L615.57 709.56 L612.04 708.05 L609.80 708.88 L607.04 708.66 L605.47 710.76 L601.97 708.96 L603.87 718.38 L604.19 724.81 L603.87 730.13 L603.69 735.99 L600.30 734.62 L594.75 727.91 L591.74 727.06 L587.93 724.04 L586.58 727.28 L583.96 727.19 L579.45 721.80 L578.56 726.40 L576.61 728.13 L576.72 736.27 L578.00 748.65 L576.02 751.11 L573.31 751.18 L570.18 749.70 L567.17 748.50 L562.09 739.20 L559.17 737.68 L557.80 742.49 L553.55 735.06 L552.24 740.39 L548.81 735.97 L546.73 737.85 L544.41 738.63 L543.42 747.07 L542.40 756.25 L539.75 756.11 L538.23 763.70 L534.35 754.88 L531.25 750.74 L528.54 749.28 L525.70 746.25 L523.58 750.15 L520.61 744.89 L517.95 742.22 L515.83 747.11 L513.04 741.42 L511.03 750.73 L508.35 745.57 L505.90 746.04 L503.44 746.08 L501.00 750.29 L498.48 752.26 L496.01 749.01 L493.46 751.46 L490.78 755.77 L488.51 749.57 L485.79 753.48 L483.49 749.65 L481.26 746.00 L478.22 752.52 L475.13 758.24 L471.70 765.92 L468.87 767.07 L465.76 770.28 L464.60 758.62 L462.21 756.96 L460.37 751.96 L457.74 752.21 L454.92 753.49 L453.28 748.26 L449.86 752.50 L445.57 760.45 L441.30 767.52 L435.32 781.30 L432.98 778.67 L431.62 772.30 L430.47 765.63 L428.50 762.40 L428.35 752.95 L427.15 747.71 L423.41 751.13 L422.45 745.44 L419.53 746.11 L418.03 742.45 L414.81 743.92 L414.09 738.30 L408.08 747.18 L404.77 748.45 L402.47 747.04 L399.31 747.75 L397.30 745.62 L397.41 738.64 L393.33 741.43 L392.25 737.43 L388.62 739.05 L387.28 735.75 L387.40 729.55 L383.04 732.55 L383.46 726.05 L377.73 731.45 L375.91 729.32 L374.08 727.23 L372.04 725.56 L368.08 727.22 L362.99 730.65 L363.15 725.21 L359.81 725.59 L354.53 728.95 L357.44 719.49 L351.09 724.34 L352.24 717.84 L350.48 715.75 L346.64 716.63 L340.56 720.52 L332.45 726.92 L331.03 724.12 L324.03 728.61 L328.80 717.87 L328.57 713.73 L328.52 709.47 L327.75 706.16 L324.16 706.23 L325.61 700.44 L322.87 699.53 L313.10 706.33 L309.21 706.45 L293.72 718.77 L292.48 715.72 L293.15 710.77 L295.26 704.49 L295.52 700.18 L299.04 692.84 L301.57 686.64 L299.25 685.07 L296.12 684.22 L297.40 679.41 L294.25 678.57 L294.34 674.92 L295.37 670.54 L287.48 673.55 L281.80 674.58 L274.94 676.40 L270.53 676.18 L268.52 674.08 L274.06 666.39 L273.28 663.50 L275.07 658.81 L272.20 657.45 L270.13 655.51 L273.68 649.83 L272.60 647.30 L273.64 643.43 L266.87 644.47 L257.98 646.65 L251.47 647.22 L246.18 646.94 L248.37 642.33 L249.39 638.47 L251.36 634.15 L248.90 632.26 L245.32 630.90 L247.14 626.79 L251.53 621.49 L251.40 618.49 L250.07 616.07 L244.46 615.58 L235.85 616.31 L235.65 613.26 L238.13 609.11 L243.26 603.97 L236.99 603.46 L238.74 599.77 L226.34 601.38 L224.36 598.99 L226.64 595.09 L229.18 591.18 L236.63 585.75 L231.31 584.53 L230.59 581.80 L222.32 581.29 L215.13 580.31 L215.64 577.10 L218.81 573.23 L222.73 569.26 L229.63 564.67 L221.66 563.64 L218.43 561.42 L210.16 560.20 L209.95 557.22 L221.49 552.06 L219.68 549.50 L220.11 546.54 L213.09 544.77 L212.23 541.96 L218.47 538.18 L220.26 535.09 L223.75 531.85 L217.43 529.72 L216.61 526.94 L219.32 523.85 L215.15 521.34 L217.84 518.30 L216.92 515.52 L214.65 512.79 L215.18 509.91 L213.96 507.09 L206.05 504.34 L202.49 501.42 L199.83 498.43 L203.40 495.48 L207.84 492.63 L216.27 490.00 L206.96 486.74 L207.60 483.84 L200.76 480.46 L205.97 477.84 L213.58 475.53 L214.29 472.71 L214.69 469.87 L203.60 465.70 L208.24 463.27 L203.68 459.69 L206.38 457.06 L204.64 453.78 L200.74 450.10 L198.11 446.55 L192.47 442.38 L200.16 440.71 L201.55 437.88 L214.22 437.53 L214.06 434.49 L212.62 431.13 L209.40 427.28 L201.39 422.09 L201.45 418.91 L204.13 416.45 L204.84 413.45 L202.34 409.48 L203.19 406.48 L198.26 401.61 L201.59 399.38 L208.07 398.30 L219.44 399.10 L224.86 397.93 L229.72 396.65 L223.64 391.15 L219.91 386.43 L218.94 382.75 L217.77 378.94 L224.75 378.65 L227.14 376.43 L233.07 375.89 L232.34 372.28 L230.54 368.10 L230.29 364.61 L229.11 360.61 L236.39 361.01 L234.10 356.38 L237.61 354.87 L230.88 347.61 L233.24 345.41 L240.22 345.96 L241.01 342.91 L244.54 341.53 L242.99 336.99 L245.40 334.93 L248.59 333.40 L243.70 326.44 L246.87 324.88 L241.31 317.18 L243.06 314.54 L250.27 315.92 L256.64 316.82 L258.74 314.59 L262.02 313.30 L261.66 309.14 L262.64 306.00 L266.24 305.01 L268.16 302.65 L264.01 295.01 L265.41 292.07 L264.29 286.83 L272.83 290.39 L278.74 291.71 L277.50 286.30 L278.67 283.13 L273.67 273.75 L274.57 270.09 L278.11 269.14 L280.75 267.26 L282.63 264.58 L288.77 266.60 L293.84 267.58 L297.48 267.03 L301.64 267.14 L303.00 264.00 L302.58 258.64 L304.37 255.88 L304.44 250.90 L304.74 246.10 L307.49 244.42 L310.60 243.25 L314.27 242.88 L318.18 242.92 L317.28 236.08 L318.59 232.30 L318.67 226.57 L321.65 225.14 L326.73 227.03 L333.87 232.39 L336.66 230.91 L341.37 232.69 L344.22 231.41 L344.34 225.33 L346.03 221.85 L348.55 219.83 L349.81 215.39 L355.41 219.24 L358.12 217.61 L357.73 209.62 L360.22 207.34 L360.88 201.06 L368.66 210.24 L372.19 210.36 L376.81 213.09 L377.36 206.30 L378.50 200.67 L381.91 200.49 L383.36 195.29 L387.83 197.95 L388.04 189.02 L391.29 188.29 L391.43 178.38 L395.66 180.43 L400.02 183.06 L405.28 188.92 L410.85 196.34 L412.28 189.77 L415.22 188.30 L415.66 177.20 L417.90 172.42 L421.40 172.55 L425.61 175.83 L430.08 180.69 L434.73 186.99 L435.88 176.34 L439.13 175.76 L440.82 166.42 L444.96 170.61 L450.33 183.33 L453.65 183.89 L457.24 186.55 L459.03 175.45 L461.94 172.18 L464.95 169.25 L467.99 166.05 L471.88 172.15 L474.92 168.72 L478.01 165.08 L481.27 163.27 L484.46 159.24 L487.89 159.70 L491.36 162.32 L494.79 165.47 L498.16 170.62 L501.44 174.70 L504.69 174.98 L507.89 177.21 L511.29 172.18 L514.64 170.62 L518.31 163.92 L522.17 156.35 L526.08 150.27 L530.04 145.04 L533.12 150.26 L535.63 160.07 L538.64 163.80 L542.17 162.85 L545.93 160.37 L550.90 150.02 L553.33 157.41 L555.99 162.58 L557.70 172.54 L561.66 169.46 L565.74 166.13 L570.97 157.70 L575.57 153.01 L577.05 162.47 L579.34 167.80 L580.23 178.32 L584.75 174.11 L589.21 170.53 L594.80 163.27 L599.34 160.19 L600.48 168.63 L602.03 175.25 L604.82 177.68 L610.08 172.68 L615.18 168.52 L622.67 158.05 L624.60 163.30 L624.53 173.55 L624.75 182.54 L625.95 188.67 L630.32 186.92 L637.24 179.36 L642.16 176.83 L644.66 179.88 L645.55 186.31 L645.67 194.10 L652.68 187.47 L656.29 188.03 L666.82 175.16 L670.09 176.79 L672.48 180.04 L671.51 189.33 L673.95 192.22 L676.68 194.57 L681.54 193.28 L686.90 191.31 L689.27 194.34 L689.19 201.18 L689.59 207.08 L695.64 204.25 L700.39 203.56 L708.27 198.44 L711.80 199.80 L714.25 202.68 L708.90 216.14 L710.94 219.28 L715.35 219.30 L718.01 221.65 L730.89 211.20 L733.90 213.36 L735.03 217.79 L730.68 228.57 L732.17 232.30 L737.60 231.51 L744.60 229.10 L757.56 220.42 L758.07 225.43 L753.88 235.24 L749.72 244.74 L754.55 244.95 L757.18 247.42 L768.35 241.67 L775.44 240.11 L772.44 248.04 L765.75 259.11 L764.00 265.46 L767.30 267.27 L766.35 272.74 L777.41 268.05 L777.23 272.88 L774.03 280.04 L774.21 284.37 L775.57 287.73 L778.28 290.04 L782.93 290.93 L788.71 291.10 L788.71 295.47 L788.69 299.79 L788.53 304.14 L793.63 304.94 L795.35 308.02 L807.27 304.62 L810.33 307.00 L812.45 309.99 L807.75 317.04 L806.80 321.73 L807.68 325.31 L812.84 326.50 L817.27 328.17 L819.96 330.82 L820.02 334.87 L821.15 338.33 L826.00 339.95 L831.63 341.29 L835.88 343.36 L838.95 346.04 L839.58 349.83 L833.65 356.42 L836.30 359.25 L838.82 362.16 L839.20 365.94 L842.36 368.64 L841.05 373.04 L839.13 377.60 L843.50 379.89 L849.00 381.87 L852.75 384.52 L856.55 387.21 L853.04 392.19 L852.91 396.08 L851.65 400.26 L858.54 402.17 L865.81 404.11 L874.84 405.73 L879.18 408.67 L880.09 412.46 L879.20 416.65 L875.85 421.31 L879.19 424.57 L878.79 428.58 L878.02 432.63 L880.41 436.12 L878.40 440.34 L877.92 444.29 L883.31 447.40 L883.70 451.25 L883.24 455.20 L886.76 458.70 L881.49 463.12 L878.66 467.21 L878.17 471.06 L875.50 475.04 L881.23 478.49 L886.52 482.06 L894.94 485.63 L897.58 489.51 L900.26 493.45 L900.08 497.45 L921.50 500.00 L921.55 495.78 L923.50 491.53 L924.99 487.25 L935.22 482.58 L939.96 477.98 L948.29 473.07 L948.08 468.58 L940.14 464.71 L938.35 460.44 L928.31 457.03 L925.44 453.01 L926.57 448.56 L921.08 444.95 L924.99 440.11 L923.46 436.00 L922.86 431.76 L920.76 427.77 L919.29 423.70 L923.02 418.65 L922.28 414.40 L923.30 409.78 L917.57 406.62 L912.25 403.47 L910.88 399.45 L915.25 393.97 L919.24 388.47 L921.44 383.36 L921.19 378.88 L915.23 376.09 L911.17 372.81 L905.74 370.03 L904.07 366.09 L901.45 362.49 L899.55 358.66 L900.21 353.91 L899.63 349.58 L896.09 346.37 L896.31 341.71 L891.29 339.16 L891.40 334.52 L889.45 330.73 L887.85 326.79 L887.19 322.43 L889.88 316.45 L891.68 310.80 L895.44 304.08 L894.89 299.41 L892.77 295.52 L891.18 291.35 L886.04 289.11 L890.91 281.34 L882.63 280.92 L876.99 279.11 L866.83 280.11 L858.21 280.38 L854.55 277.71 L862.56 267.61 L866.21 260.07 L862.88 257.03 L859.29 254.20 L849.33 255.85 L844.31 254.20 L841.21 251.22 L850.31 239.18 L847.23 236.03 L846.28 231.25 L841.19 229.69 L833.04 230.69 L825.72 231.17 L824.50 226.68 L829.60 216.70 L823.12 216.60 L825.23 208.94 L814.62 212.72 L804.72 216.12 L796.44 218.25 L801.34 207.80 L803.63 199.64 L806.60 190.56 L803.03 187.99 L799.28 185.62 L787.26 192.14 L788.89 184.11 L788.97 177.62 L785.46 175.05 L783.23 171.01 L774.72 174.37 L766.76 177.30 L761.52 177.13 L759.79 172.63 L762.44 162.40 L756.79 162.77 L754.78 158.37 L745.28 164.16 L735.84 170.20 L729.47 172.23 L731.57 162.09 L731.12 155.41 L730.71 148.47 L728.30 144.45 L720.47 148.97 L714.71 150.42 L710.16 150.03 L711.40 139.86 L706.62 139.79 L704.50 135.08 L699.17 136.12 L691.13 142.35 L686.83 141.83 L685.27 135.99 L685.09 127.16 L682.51 122.94 L679.43 119.64 L671.82 126.15 L665.83 129.46 L661.20 129.91 L661.15 119.70 L659.34 113.24 L655.94 110.48 L650.13 113.84 L642.85 121.40 L636.42 127.19 L632.58 126.16 L633.19 112.15 L629.39 110.60 L627.07 104.41 L621.23 109.19 L615.20 115.08 L610.29 117.59 L608.60 108.82 L606.37 101.40 L603.05 97.76 L598.98 96.90 L592.55 106.14 L587.53 110.04 L582.03 116.66 L580.69 103.56 L577.50 98.72 L574.20 94.07 L569.92 94.63 L564.37 103.16 L559.25 110.05 L555.36 109.40 L552.91 97.77 L548.89 97.25 L545.10 94.59 L540.35 101.06 L535.61 108.84 L531.35 112.85 L527.97 105.56 L524.30 100.84 L520.66 93.56 L516.87 86.81 L512.81 84.23 L508.69 82.41 L504.53 80.80 L500.33 85.09 L496.19 85.97 L492.18 92.82 L488.10 92.59 L484.08 94.07 L479.86 91.04 L475.49 86.43 L471.28 85.64 L467.22 86.96 L463.16 88.07 L459.77 95.83 L455.69 95.89 L451.69 96.65 L447.06 92.57 L442.22 87.59 L438.60 91.52 L434.84 94.19 L433.08 108.29 L428.57 105.70 L423.77 101.93 L418.67 97.16 L414.21 95.91 L412.03 105.14 L409.63 112.65 L406.84 118.01 L403.36 120.25 L397.13 112.06 L391.87 108.10 L387.69 108.24 L382.77 106.02 L383.01 120.74 L380.11 124.71 L378.68 132.93 L373.69 130.26 L367.23 123.70 L363.65 125.55 L357.60 120.75 L356.54 129.26 L352.06 128.75 L349.52 133.08 L341.63 124.60 L338.36 127.29 L333.98 127.45 L333.68 136.58 L333.35 145.28 L326.09 139.24 L323.46 142.96 L314.75 134.59 L314.60 143.18 L313.60 149.86 L307.73 147.38 L305.16 151.02 L298.60 147.60 L293.49 146.90 L292.20 152.70 L289.40 155.89 L286.84 159.40 L286.49 166.30 L283.45 168.89 L280.82 172.09 L273.10 167.77 L271.29 172.21 L265.15 170.48 L263.22 174.71 L260.75 178.13 L257.80 180.88 L256.50 185.74 L256.92 192.68 L256.63 198.56 L258.03 206.34 L246.74 198.83 L244.73 202.53 L236.80 199.43 L234.83 203.22 L236.67 211.14 L236.92 217.15 L235.06 220.80 L234.69 225.96 L233.22 229.89 L227.99 230.05 L218.22 225.90 L217.30 230.45 L209.96 228.93 L215.23 239.15 L217.61 246.47 L207.47 242.60 L206.85 247.22 L193.56 241.06 L196.15 248.41 L195.63 253.07 L188.89 252.71 L191.10 259.47 L184.28 259.20 L188.61 267.39 L190.87 273.85 L195.85 282.13 L189.75 282.42 L180.61 280.75 L179.06 284.37 L169.52 282.73 L171.90 288.96 L167.39 290.73 L165.69 294.30 L163.80 297.75 L166.07 303.63 L170.02 310.37 L166.29 312.64 L160.72 313.95 L160.45 318.19 L155.59 320.00 L158.39 325.79 L150.30 326.05 L151.35 330.90 L141.55 330.55 L146.62 337.25 L148.96 342.57 L151.23 347.75 L153.93 353.03 L151.49 356.10 L146.47 358.14 L136.74 358.44 L139.16 363.52 L134.57 365.95 L145.89 374.10 L151.51 380.01 L158.13 386.10 L154.26 388.64 L148.27 390.58 L146.94 394.03 L143.61 396.90 L145.35 401.24 L147.98 405.76 L144.88 408.72 L134.77 410.00 L131.57 413.12 L126.61 415.88 L131.26 420.79 L141.18 426.67 L144.36 431.02 L149.30 435.61 L135.85 436.89 L136.25 440.70 L130.16 443.50 L131.38 447.45 L134.16 451.58 L133.94 455.27 L131.45 458.70 L119.72 461.23 L123.08 465.38 L118.62 468.81 L131.75 473.59 L128.26 477.07 L128.90 480.84 L121.97 484.27 L120.86 488.02 L129.64 492.00 L133.91 495.76 L138.75 499.42 L136.02 503.06 L135.69 506.71 L124.20 510.68 L129.76 514.23 L123.02 518.26 L121.93 522.11 L124.41 525.73 L125.10 529.46 L125.67 533.18 L128.98 536.63 L125.31 540.78 L123.77 544.76 L127.34 548.12 L133.86 551.00 L140.95 553.68 L138.61 557.73 L135.91 561.90 L135.99 565.64 L139.46 568.74 L151.50 570.07 L147.28 574.59 L144.45 578.91 L136.56 584.49 L138.83 587.77 L147.15 589.50 L154.70 591.27 L160.77 593.30 L161.45 596.77 L154.30 602.56 L151.58 607.17 L149.92 611.53 L151.38 614.91 L157.85 616.58 L162.01 618.95 L164.17 621.98 L159.93 627.39 L156.40 632.64 L160.66 634.91 L161.92 638.34 L171.45 638.29 L177.37 639.62 L179.13 642.68 L169.26 651.05 L171.52 654.00 L168.50 659.48 L176.45 659.66 L183.09 660.35 L188.61 661.48 L185.98 666.85 L188.77 669.38 L194.40 670.30 L199.31 671.53 L205.70 671.81 L203.72 676.96 L203.05 681.41 L194.73 690.71 L196.06 694.13 L195.88 698.56 L197.41 701.90 L201.94 703.22 L201.90 707.64 L205.62 709.45 L212.61 708.84 L219.56 708.10 L230.89 703.91 L224.24 713.32 L228.54 714.36 L224.87 721.77 L222.34 728.42 L226.52 729.61 L228.16 732.90 L235.58 731.17 L231.98 739.09 L241.97 734.85 L240.30 741.17 L242.34 744.12 L254.30 737.49 L257.74 738.90 L265.36 736.05 L273.34 732.64 L277.52 732.96 L276.13 739.16 L267.03 753.93 L268.60 757.33 L263.84 767.96 L267.10 769.66 L270.67 770.95 L271.84 775.10 L277.69 773.57 L284.74 770.38 L292.74 765.74 L298.04 764.35 L295.31 773.55 L298.67 774.75 L297.40 782.35 L296.32 789.94 L302.38 787.39 L303.53 791.92 L308.23 791.19 L310.91 793.46 L316.59 791.00 L316.56 797.60 L320.77 797.39 L325.44 796.31 L325.99 802.24 L329.88 802.44 L332.88 804.18 L336.79 804.23 L339.31 806.87 L340.93 811.31 L345.14 810.70 L347.32 814.15 L351.25 814.01 L353.61 817.19 L356.56 819.15 L361.70 816.13 L366.42 813.84 L374.40 803.49 L375.10 810.55 L378.38 811.35 L380.39 815.50 L380.97 823.69 L383.95 825.59 L387.95 824.60 L392.22 822.66 L394.27 827.39 L399.61 821.82 L401.56 827.03 L404.54 828.99 L410.15 821.65 L415.28 815.45 L419.60 811.77 L424.91 803.70 L428.80 800.85 L432.42 798.84 L430.85 820.67 L434.02 821.53 L434.59 835.79 L437.58 838.41 L441.61 835.36 L444.44 839.14 L448.37 836.16 L452.63 830.45 L456.88 823.84 L461.40 813.79 L463.26 825.52 L466.81 823.00 L469.31 831.22 L472.05 838.48 L475.70 835.16 L478.84 838.76 L482.53 833.18 L485.64 838.50 L489.32 829.51 L492.50 834.76 L495.84 835.55 L499.21 829.57 L502.55 835.03 L505.89 834.70 L509.19 832.67 L512.47 831.53 L515.80 831.52 L519.41 836.48 L522.53 832.74 L526.12 835.85 L529.29 833.49 L532.64 833.34 L536.14 834.59 L538.90 829.22 L541.31 821.94 L543.23 812.13 L546.13 810.23 L550.43 817.28 L553.59 816.71 L558.10 823.69 L562.29 828.09 L564.65 822.90 L568.16 823.55 L570.84 820.38 L573.75 818.42 L576.32 815.11 L580.35 817.82 L582.36 812.61 L582.63 801.35 L585.12 798.69 L586.39 792.04 L588.80 789.52 L593.23 793.46 L599.92 803.96 L604.14 806.43 L608.69 809.62 L612.32 809.99 L614.52 806.46 L618.49 807.68 L621.30 805.81 L621.69 798.07 L622.50 791.68 L620.23 778.44 L626.56 785.23 L628.92 782.89 L634.27 786.98 L640.08 791.76 L643.24 790.85 L646.26 789.64 L646.98 783.98 L652.25 787.09 L650.67 777.37 L656.36 781.11 L660.29 781.50 L659.53 773.77 L664.35 775.67 L667.41 774.52 L669.15 771.23 L672.15 770.00 L672.23 764.25 L680.57 771.08 L679.87 764.27 L686.80 768.64 L687.09 763.40 L688.64 760.03 L691.55 758.56 L695.06 757.86 L700.34 759.42 L700.11 753.82 L703.81 753.27 L703.09 747.27 L704.74 744.25 L708.11 743.30 L712.49 743.45 L716.33 742.90 L716.50 738.25 L717.58 734.68 L714.40 726.66 L712.87 720.58 L710.75 714.06 L717.52 716.56 L717.68 712.42 L723.54 713.82 L724.89 710.85 L724.86 706.63 L726.19 703.72 L731.82 704.63 L737.84 705.75 L737.93 701.71 L743.49 702.27 L742.51 697.39 L744.10 694.65 L746.51 692.58 L743.48 686.32 L745.28 683.84 L744.64 679.56 L746.92 677.47 L747.20 673.95 L749.83 672.09 L749.71 668.35 L753.65 667.34 L754.04 663.98 L754.15 660.47 L756.96 658.67 L756.15 654.66 L760.71 653.87 L761.96 651.10 L762.11 647.71 L762.98 644.75 L761.59 640.60 L761.26 637.07 L759.72 632.97 L761.55 630.62 L757.18 625.24 L758.41 622.66 L756.71 618.72 L756.91 615.71 L759.95 613.97 L762.05 611.78 L761.41 608.43 L762.04 605.63 L763.72 603.25 L763.84 600.27 L765.67 597.94 L766.44 595.20 L770.86 593.74 L768.47 589.92 L770.72 587.67 L769.62 584.34 L770.04 581.52 L771.11 578.90 L774.98 577.05 L776.08 574.39 L778.79 572.13 L781.18 569.76 L783.57 567.35 L785.71 564.85 L788.02 562.35 L787.62 559.26 L786.46 556.04 L778.54 551.60 L775.36 548.17 L769.07 544.30 L767.39 541.28 L770.17 538.95 L770.45 536.23 L769.93 533.42 L769.70 530.66 L770.23 527.98 L772.16 525.44 L775.27 522.95 L779.97 520.53 L780.41 517.74 L775.77 514.68 L775.25 511.89 L768.32 508.91 L769.47 506.25 L769.34 503.55 L770.62 500.86 L773.39 498.14 L780.36 495.29 L784.54 492.37 L791.05 489.28 L791.49 486.34 L790.58 483.47 L791.49 480.50 L782.03 478.29 L777.72 475.83 L769.51 473.83 L764.85 471.60 L767.22 468.64 L770.79 465.47 L769.82 462.85 L766.85 460.54 L764.08 458.25 L760.06 456.21 L759.39 453.65 L759.47 450.96 L761.93 447.77 L758.22 445.82 L757.63 443.25 L755.82 440.96 L752.58 439.04 L752.29 436.43 L752.78 433.62 L750.93 431.41 L757.16 426.94 L759.12 423.57 L763.57 419.39 L766.83 415.46 L767.32 412.36 L766.10 409.80 L766.25 406.77 L756.08 407.45 L752.18 406.00 L743.64 406.39 L741.53 404.42 L740.72 401.95 L740.80 399.09 L736.85 397.96 L734.78 396.05 L732.75 394.15 L731.04 392.13 L730.07 389.77 L730.75 386.59 L728.53 384.83 L735.20 378.51 L739.51 373.23 L743.51 367.98 L746.82 362.97 L743.26 361.75 L743.01 358.66 L740.96 356.60 L739.44 354.25 L737.32 352.26 L734.64 350.66 L731.02 349.69 L729.00 347.73 L726.35 346.20 L726.90 342.49 L730.70 336.41 L726.14 336.22 L728.55 330.96 L718.60 334.92 L714.21 334.84 L710.94 333.97 L710.47 330.90 L710.90 327.06 L710.39 323.94 L710.57 320.17 L704.14 322.11 L702.99 319.50 L698.51 319.90 L701.55 313.43 L700.85 310.31 L701.00 306.34 L697.67 305.69 L688.68 310.79 L686.36 309.34 L682.86 309.14 L685.21 302.77 L681.87 302.40 L679.99 300.48 L677.62 299.10 L672.07 301.42 L670.79 298.86 L673.75 291.18 L671.57 289.56 L670.93 286.01 L669.76 283.05 L661.09 289.84 L659.09 288.09 L654.87 289.36 L655.57 283.91 L653.75 281.87 L653.08 278.15 L651.14 276.20 L645.16 280.35 L643.98 277.32 L639.49 279.46 L643.10 268.67 L638.75 270.61 L639.59 263.92 L632.68 270.40 L627.21 274.69 L624.61 274.04 L623.00 271.59 L622.81 266.39 L619.70 266.67 L616.70 266.79 L613.69 267.02 L609.35 270.10 L608.34 266.23 L610.14 255.98 L606.03 258.69 L605.83 252.44 L598.69 262.60 L593.09 269.59 L590.33 269.83 L588.65 267.30 L590.09 256.22 L587.97 254.43 L586.55 250.57 L582.75 253.59 L579.51 255.14 L576.55 255.99 L574.93 252.50 L573.88 246.88 L570.99 247.41 L569.22 243.90 L563.51 255.33 L560.97 255.10 L557.77 257.63 L556.68 251.19 L554.38 249.77 L551.61 250.48 L548.99 250.65 L545.80 253.88 L542.99 255.40 L541.92 246.68 L539.84 243.32 L537.08 244.27 L535.20 238.86 L531.10 250.44 L528.47 251.28 L525.66 254.16 L523.56 250.02 L521.19 248.28 L518.87 245.42 L516.42 243.64 L513.52 249.83 L511.06 248.74 L508.42 252.29 L506.13 244.27 L503.57 244.73 L501.03 240.89 L498.46 244.32 L496.06 253.96 L493.62 254.83 L491.22 256.29 L488.51 250.47 L486.10 252.19 L483.66 252.89 L481.17 252.81 L479.17 258.44 L476.60 257.00 L473.17 247.86 L470.98 250.96 L467.77 245.60 L465.46 247.62 L464.45 258.24 L462.26 260.07 L460.30 263.07 L457.14 259.02 L454.49 258.15 L451.75 257.02 L449.32 257.51 L448.16 263.76 L445.57 263.31 L443.41 264.72 L438.83 256.40 L437.20 260.11 L433.31 255.24 L433.93 266.74 L432.75 271.32 L430.92 273.50 L427.75 271.31 L424.37 268.69 L422.62 271.13 L420.66 272.83 L419.27 276.08 L418.61 281.13 L414.87 277.89 L409.43 270.59 L408.40 274.60 L403.29 268.69 L404.45 277.75 L404.57 283.99 L403.29 286.89 L400.80 287.10 L397.14 284.88 L394.32 284.54 L390.87 283.03 L390.96 288.49 L389.41 290.66 L388.44 293.85 L384.06 290.77 L380.35 289.08 L378.38 290.52 L375.52 290.45 L379.19 301.19 L377.75 303.27 L377.29 306.86 L371.81 302.63 L370.52 304.95 L368.37 305.95 L367.27 308.48 L367.93 313.43 L366.35 315.15 L359.86 310.21 L356.23 309.31 L354.67 311.20 L353.60 313.69 L359.33 324.62 L359.34 328.19 L357.86 329.88 L351.60 325.95 L347.21 324.38 L344.48 324.82 L341.38 324.89 L344.35 331.58 L341.78 332.19 L342.54 336.32 L335.12 332.00 L334.27 334.48 L329.22 332.81 L331.81 338.60 L336.61 346.32 L335.71 348.54 L333.89 349.91 L328.49 348.12 L327.85 350.59 L327.18 353.02 L325.86 354.87 L328.43 359.89 L324.40 359.51 L315.87 355.68 L316.53 359.14 L311.00 357.87 L312.70 362.06 L318.74 369.28 L318.78 372.05 L318.26 374.39 L313.49 373.83 L310.92 374.82 L307.12 375.06 L308.49 378.66 L310.79 382.75 L309.98 384.86 L308.24 386.41 L300.88 384.73 L301.83 387.90 L297.01 387.84 L306.03 395.35 L307.38 398.55 L308.17 401.40 L302.95 401.20 L300.01 402.21 L300.42 404.88 L300.27 407.24 L302.73 410.77 L305.14 414.20 L297.56 413.27 L291.37 413.07 L292.75 416.07 L287.52 416.42 L291.85 420.51 L295.15 424.11 L291.81 425.23 L286.67 425.79 L283.34 427.05 L282.92 429.32 L285.68 432.58 L290.37 436.35 L290.94 438.80 L289.04 440.53 L283.08 441.18 L280.75 442.90 L280.96 445.29 L283.12 448.13 L289.09 451.78 L291.13 454.44 L292.92 456.99 L287.45 458.07 L290.91 460.92 L289.21 462.78 L289.38 464.98 L293.92 467.85 L293.50 469.89 L287.14 471.14 L286.13 473.17 L283.73 475.07 L282.23 477.10 L288.74 479.92 L287.95 481.98 L286.21 483.98 L284.32 486.01 L284.93 488.21 L285.25 490.38 L285.74 492.55 L287.73 494.74 L286.83 496.85 L287.40 498.98 L280.08 501.15 L283.79 503.29 L278.74 505.58 L286.52 507.52 L290.62 509.48 L290.04 511.61 L291.97 513.59 L287.94 515.98 L293.31 517.66 L293.31 519.74 L295.67 521.58 L298.00 523.38 L296.53 525.61 L287.64 528.89 L291.40 530.51 L287.69 533.22 L296.40 533.95 L308.13 533.97 L306.42 536.27 L307.45 538.08 L299.21 541.79 L298.59 544.03 L295.11 546.94 L297.92 548.43 L299.19 550.26 L300.34 552.09 L298.80 554.65 L296.44 557.48 L297.98 559.24 L296.89 561.77 L304.11 561.72 L306.09 563.23 L307.10 565.05 L306.48 567.42 L308.04 569.03 L308.21 571.15 L307.91 573.45 L310.41 574.68 L307.94 577.88 L308.29 579.98 L305.90 583.26 L312.34 582.73 L312.11 585.08 L319.50 583.92 L320.51 585.65 L319.00 588.60 L318.91 590.90 L320.06 592.59 L322.78 593.44 L324.56 594.76 L326.13 596.17 L326.73 598.11 L326.45 600.58 L322.91 605.00 L324.60 606.39 L324.53 608.85 L328.88 608.53 L334.83 607.09 L336.89 608.09 L339.09 608.96 L336.39 613.19 L341.28 612.17 L342.65 613.58 L344.77 614.43 L349.50 613.28 L350.45 614.93 L345.32 621.35 L346.88 622.62 L345.12 626.59 L346.24 628.26 L353.62 624.61 L354.93 626.01 L354.60 628.87 L351.69 634.13 L351.24 637.26 L354.57 636.91 L357.65 636.72 L364.07 633.19 L362.93 637.02 L364.70 637.99 L359.11 646.59 L365.49 642.78 L364.75 646.48 L372.43 640.96 L375.52 640.34 L377.61 640.80 L378.10 643.10 L378.07 646.07 L381.76 644.56 L383.15 645.81 L385.68 645.61 L387.69 646.04 L388.13 648.51 L384.32 656.82 L389.40 653.11 L388.25 658.01 L393.36 654.03 L397.21 651.69 L397.41 654.70 L397.84 657.45 L399.20 658.81 L401.31 658.97 L403.43 659.09 L406.18 658.10 L407.97 658.67 L408.87 660.80 L408.68 664.97 L409.06 668.24 L411.44 667.81 L413.07 668.81 L417.89 663.43 L419.48 664.33 L421.91 663.49 L421.46 668.77 L424.58 666.39 L427.17 665.05 L428.33 666.91 L431.11 664.98 L431.83 667.96 L431.72 673.16 L432.97 675.12 L435.81 672.85 L438.22 671.60 L443.24 662.75 L446.23 659.29 L447.41 661.08 L447.49 666.45 L447.94 670.96 L449.21 672.98 L450.30 675.77 L453.46 671.10 L455.05 672.04 L457.56 669.32 L457.57 676.75 L460.09 673.91 L460.94 678.35 L463.69 674.12 L466.68 668.19 L468.22 669.26 L470.00 669.13 L470.81 674.66 L472.89 672.85 L474.35 674.96 L476.24 674.17 L477.84 675.56 L479.41 677.33 L480.57 683.35 L482.58 681.73 L484.53 680.39 L486.61 676.78 L488.79 670.74 L490.50 670.80 L492.22 670.52 L493.83 673.24 L495.58 672.89 L497.28 674.35 L499.03 674.04 L500.77 673.37 L502.51 673.71 L504.27 674.80 L506.17 679.09 L507.77 674.86 L509.56 675.46 L510.78 667.11 L512.28 664.63 L513.95 664.80 L515.85 667.34 L517.40 666.02 L518.99 665.23 L520.50 663.90 L521.62 659.89 L523.28 660.03 L524.84 659.55 L526.68 660.79 L528.72 662.96 L530.52 663.61 L532.33 664.17 L532.75 657.97 L534.28 657.41 L535.71 656.44 L536.97 654.79 L538.34 653.72 L539.18 650.64 L539.00 644.03 L539.92 641.79 L541.32 641.32 L546.69 653.96 L548.70 655.01 L552.56 661.62 L553.33 658.59 L553.14 652.93 L553.98 650.46 L555.69 650.51 L556.91 649.19 L557.08 645.25 L559.27 646.52 L560.05 644.27 L562.70 646.50 L565.15 648.09 L568.57 651.74 L569.78 650.38 L570.79 648.66 L568.91 641.05 L566.61 632.96 L564.40 625.40 L565.80 625.03 L572.14 633.82 L572.99 632.20 L576.46 635.28 L575.66 630.80 L573.76 624.61 L573.53 621.45 L581.60 631.77 L582.72 630.65 L587.22 634.75 L584.96 628.43 L581.27 620.22 L578.97 614.34 L579.32 612.42 L586.15 619.56 L586.61 617.69 L589.04 618.50 L589.00 616.00 L586.91 610.96 L587.55 609.50 L589.70 609.93 L598.78 618.61 L598.40 615.78 L603.97 619.88 L601.35 614.52 L599.74 610.46 L596.74 605.01 L599.68 606.06 L601.26 605.60 L600.97 603.22 L603.41 603.61 L601.60 599.78 L599.78 596.06 L599.86 594.22 L606.70 598.68 L610.27 599.96 L612.44 599.89 L611.86 597.39 L605.37 589.91 L601.64 584.98 L600.81 582.59 L608.73 587.28 L607.70 584.70 L611.70 586.04 L609.89 582.91 L607.00 579.06 L606.93 577.37 L613.42 580.35 L619.18 582.65 L620.55 581.83 L622.24 581.20 L615.45 575.04 L611.09 570.64 L610.43 568.68 L617.11 571.22 L617.42 569.81 L620.60 570.08 L620.45 568.39 L617.07 564.93 L616.44 563.06 L623.01 565.04 L627.24 565.66 L628.66 564.77 L628.35 563.01 L620.68 557.76 L616.37 554.27 L615.69 552.55 L625.57 555.53 L629.83 555.87 L632.17 555.32 L630.78 553.20 L623.37 548.76 L618.30 545.39 L616.00 543.18 L616.63 542.09 L618.81 541.54 L620.58 540.81 L623.91 540.57 L625.60 539.73 L627.33 538.88 L628.42 537.81 L630.13 536.91 L631.45 535.87 L632.52 534.74 L632.83 533.40 L632.49 531.91 L632.45 530.51 L632.24 529.07 L632.59 527.76 L633.73 526.60 L634.89 525.44 L635.58 524.16 L635.54 522.76 L635.27 521.33 L636.64 520.14 L638.61 519.02 L639.19 517.68 L640.50 516.42 L639.78 514.92 L635.32 513.08 L623.74 510.71 L614.78 508.78 L600.08 506.65 L593.75 505.29 L593.28 504.33 L593.01 503.38 L592.74 502.45 L592.46 501.51 L592.16 500.59 Z"/>
  <svg class="pausebutton" id="pausebutton">
    <circle cx="500" cy="500" id="pausestart" class="pausestart" r="52.65"/>
    <rect height="50.02" width="10.00" y="473.68" rx="2.00" ry="2.00" x="479.99" class="pausesymbol"/>
    <rect height="50.02" width="10.00" y="473.68" rx="2.00" ry="2.00" x="510.00" class="pausesymbol"/>
    <polygon points="530.01,500 479.99,530.01 479.99,469.99" class="playsymbol"/>
  </svg>
  <polygon id="playback-head" class="playback-head" points="912.475,500 892.475,540 932.475,540"/>
</svg>