<?xml-stylesheet href="../../style/waveformjs.css" type="text/css"?>
<svg xmlns="http://www.w3.org/2000/svg" xmlns:xlink="http://www.w3.org/1999/xlink" width="100%" height="100%" viewBox="0 0 1000 1000">
  <path class="svg-wave" id="sp" d="M597.33 500.00 L597.33 500.97 L597.34 501.95 L597.34 502.92 L597.37 503.90 L597.35 504.87 L597.36 505.85 L597.36 506.83 L597.30 507.80 L597.26 508.78 L597.23 509.76 L597.22 510.74 L597.14 511.71 L597.10 512.69 L597.05 513.68 L596.94 514.65 L596.83 515.63 L596.72 516.60 L596.67 517.59 L596.52 518.56 L596.40 519.54 L596.31 520.53 L596.17 521.51 L595.95 522.47 L595.83 523.45 L595.71 524.44 L595.39 525.38 L595.26 526.36 L595.08 527.34 L594.92 528.33 L594.64 529.28 L594.49 530.27 L594.33 531.26 L594.07 532.22 L593.89 533.21 L593.61 534.17 L593.34 535.13 L593.00 536.07 L592.71 537.03 L592.40 537.98 L592.09 538.93 L591.80 539.90 L591.45 540.84 L591.11 541.79 L590.73 542.72 L590.34 543.64 L590.02 544.60 L589.57 545.50 L589.22 546.45 L588.80 547.36 L588.40 548.30 L587.90 549.17 L587.57 550.14 L587.29 551.15 L586.68 551.96 L586.29 552.91 L585.89 553.85 L585.35 554.71 L584.73 555.51 L584.35 556.48 L584.00 557.47 L583.36 558.26 L582.82 559.12 L582.25 559.97 L581.70 560.83 L580.87 561.48 L580.18 562.23 L579.70 563.14 L578.72 563.66 L578.04 564.41 L577.16 564.99 L575.76 565.12 L575.22 565.97 L573.78 566.02 L572.25 565.97 L571.20 566.33 L569.18 565.75 L568.29 566.22 L567.08 566.36 L564.23 564.83 L563.59 565.47 L560.12 563.16 L556.26 560.30 L556.30 561.56 L555.54 561.96 L552.73 560.02 L551.38 559.68 L551.82 561.42 L549.72 560.14 L546.47 557.38 L547.22 559.51 L547.55 561.16 L545.77 560.10 L548.14 564.55 L549.27 567.46 L544.18 561.79 L545.58 565.10 L546.98 568.56 L545.32 567.57 L545.00 568.57 L544.37 569.10 L544.26 570.47 L542.41 569.06 L539.94 566.52 L540.16 568.41 L540.51 570.62 L539.07 569.72 L539.92 572.94 L541.38 577.43 L537.64 572.17 L537.30 573.29 L538.41 577.36 L537.13 576.71 L536.40 577.17 L535.59 577.44 L534.87 577.91 L533.63 577.21 L531.43 574.18 L530.77 574.70 L531.06 577.60 L529.76 576.54 L529.94 579.35 L530.52 583.41 L528.06 579.13 L527.33 579.57 L527.59 583.02 L526.59 582.79 L526.11 584.17 L525.39 584.83 L524.43 584.69 L523.35 584.11 L521.97 582.32 L521.08 582.28 L520.66 584.13 L519.73 583.96 L519.26 585.80 L519.18 589.63 L517.57 586.34 L516.42 585.02 L516.34 589.38 L515.43 589.49 L514.71 590.67 L513.90 591.49 L512.72 589.73 L511.67 588.73 L510.55 586.89 L509.49 585.29 L508.82 587.17 L507.96 587.39 L507.21 589.07 L506.60 593.08 L505.51 590.51 L504.46 587.82 L503.75 591.94 L502.86 592.69 L501.93 592.88 L501.01 593.87 L500.07 592.62 L499.15 592.64 L498.26 590.84 L497.41 588.54 L496.44 590.79 L495.52 591.06 L494.60 591.08 L493.38 595.48 L492.48 594.76 L491.83 591.31 L490.65 593.98 L489.57 595.11 L488.50 596.03 L487.65 595.09 L486.93 593.28 L485.88 593.94 L485.16 592.42 L484.66 589.80 L483.38 591.77 L482.28 592.51 L481.35 592.37 L479.42 596.95 L478.59 596.11 L478.75 591.10 L476.91 594.69 L475.73 595.37 L474.92 594.58 L473.88 594.68 L473.19 593.53 L472.02 594.04 L471.36 592.85 L471.52 589.14 L469.88 591.13 L468.42 592.43 L468.02 590.65 L465.78 593.97 L464.29 595.10 L465.49 589.19 L463.18 592.39 L461.48 593.92 L460.62 593.35 L459.90 592.46 L459.69 590.47 L458.51 590.65 L458.28 588.80 L459.07 584.91 L457.38 586.20 L455.51 587.75 L455.76 585.15 L452.43 589.35 L450.10 591.52 L452.87 584.42 L450.07 587.37 L447.21 590.26 L447.21 588.23 L446.26 587.81 L445.53 587.04 L444.01 587.51 L443.92 585.74 L444.88 582.47 L443.21 583.15 L441.03 584.51 L440.83 583.02 L438.20 584.90 L435.65 586.57 L438.53 580.99 L436.03 582.56 L433.63 583.91 L433.16 582.79 L432.27 582.20 L431.84 581.06 L430.43 581.07 L431.38 578.36 L432.58 575.46 L430.74 575.98 L428.33 577.06 L428.77 575.07 L425.25 577.21 L422.19 578.78 L426.38 573.06 L424.58 573.37 L421.19 575.14 L421.54 573.32 L420.38 572.93 L419.32 572.43 L418.02 572.13 L418.32 570.43 L419.73 567.83 L418.13 567.79 L416.16 568.02 L416.41 566.44 L413.81 567.11 L410.40 568.34 L414.20 564.10 L413.14 563.54 L409.27 564.99 L408.92 563.87 L407.93 563.21 L406.64 562.72 L407.05 561.11 L407.25 559.66 L409.04 557.23 L409.27 555.83 L406.71 556.12 L406.81 554.80 L404.41 554.93 L399.92 556.19 L403.53 552.90 L403.74 551.54 L399.47 552.54 L399.19 551.41 L398.32 550.58 L396.69 550.11 L397.38 548.51 L397.51 547.20 L398.89 545.35 L399.80 543.74 L396.98 543.75 L396.69 542.66 L395.50 541.93 L391.10 542.44 L393.08 540.44 L394.61 538.66 L391.22 538.68 L390.66 537.65 L388.88 537.02 L389.18 535.69 L390.52 534.06 L389.39 533.20 L390.53 531.67 L392.05 530.06 L388.62 529.82 L388.60 528.63 L387.86 527.63 L383.10 527.57 L385.36 525.83 L388.43 523.97 L384.20 523.67 L383.69 522.56 L382.95 521.49 L382.24 520.41 L382.92 519.09 L382.31 517.98 L383.83 516.56 L386.25 515.06 L384.43 514.12 L382.98 513.11 L383.47 511.88 L379.95 511.03 L379.14 509.88 L384.07 508.31 L380.56 507.37 L378.95 506.25 L378.95 505.04 L378.57 503.84 L379.56 502.60 L378.57 501.41 L379.90 500.19 L382.65 499.01 L380.28 497.80 L379.64 496.58 L381.39 495.44 L377.01 494.04 L376.12 492.76 L383.16 492.00 L379.28 490.52 L376.47 489.05 L377.47 487.90 L377.85 486.71 L378.64 485.56 L377.21 484.15 L379.26 483.18 L382.71 482.46 L380.45 480.90 L378.79 479.39 L380.16 478.39 L376.56 476.46 L374.26 474.72 L380.81 474.79 L378.11 472.95 L375.89 471.15 L377.03 470.12 L377.37 468.89 L378.49 467.88 L377.56 466.32 L379.66 465.60 L383.56 465.45 L381.77 463.63 L380.05 461.79 L382.55 461.29 L378.84 458.71 L376.55 456.55 L384.36 458.00 L382.01 455.80 L379.58 453.52 L380.96 452.67 L381.13 451.36 L382.07 450.36 L380.80 448.42 L383.05 447.99 L386.28 448.06 L384.97 446.07 L384.34 444.36 L386.12 443.80 L384.02 441.32 L382.02 438.82 L388.52 440.77 L387.43 438.73 L384.73 435.77 L386.11 435.03 L386.05 433.48 L386.22 432.04 L386.93 430.93 L389.00 430.66 L392.55 431.37 L393.00 430.14 L391.77 427.78 L393.57 427.44 L392.37 425.03 L389.38 421.29 L395.14 423.80 L395.88 422.74 L393.26 419.12 L394.87 418.68 L395.61 417.56 L395.76 415.98 L396.35 414.73 L397.93 414.31 L400.28 414.56 L400.66 413.15 L399.98 410.78 L401.80 410.62 L401.39 408.43 L399.62 404.90 L404.05 407.26 L405.76 407.07 L404.26 403.68 L405.30 402.80 L405.62 401.17 L406.64 400.26 L408.40 400.17 L409.96 399.88 L412.20 400.38 L413.72 400.10 L412.97 397.17 L414.78 397.25 L414.41 394.67 L412.41 389.98 L416.21 392.57 L418.54 393.37 L416.91 388.95 L418.26 388.45 L419.18 387.36 L419.82 385.87 L421.38 385.67 L422.44 384.75 L424.65 385.59 L426.64 386.14 L426.70 383.70 L427.62 382.58 L428.68 381.66 L428.14 378.03 L429.96 378.35 L432.75 380.45 L432.09 376.40 L432.98 375.06 L433.88 373.74 L434.97 372.73 L436.97 373.54 L438.22 372.89 L440.41 374.20 L442.70 375.84 L443.15 373.50 L444.34 372.77 L445.84 372.76 L444.94 366.95 L446.51 366.99 L449.92 371.80 L449.55 366.92 L450.28 364.78 L451.82 364.81 L453.11 364.17 L454.85 364.85 L455.75 362.99 L457.34 363.24 L459.71 366.16 L460.39 363.50 L461.23 361.21 L462.90 361.87 L463.34 357.85 L464.49 356.39 L467.26 361.66 L467.77 357.48 L468.77 355.19 L470.28 355.16 L471.82 355.31 L473.62 356.97 L474.83 355.46 L476.48 356.46 L478.62 360.76 L479.58 357.58 L480.74 355.34 L482.48 357.59 L483.37 352.69 L484.63 350.43 L486.83 357.81 L487.93 353.80 L489.20 351.04 L490.72 351.44 L492.19 351.06 L493.72 351.89 L495.14 349.92 L496.68 351.53 L498.20 355.06 L499.65 353.34 L501.13 351.34 L502.59 353.14 L504.15 349.68 L505.74 347.46 L506.94 354.45 L508.54 351.88 L510.29 348.03 L511.73 349.15 L513.28 348.79 L514.77 349.19 L516.38 348.35 L517.72 350.02 L518.64 354.70 L520.31 353.34 L522.16 350.96 L523.36 353.00 L525.42 349.78 L527.52 346.68 L527.73 353.91 L529.69 351.74 L531.99 348.13 L533.23 349.71 L534.89 349.38 L536.45 349.51 L538.09 349.31 L539.20 351.23 L539.74 355.06 L541.48 354.46 L543.60 352.61 L544.44 355.11 L546.58 353.37 L549.41 349.71 L548.94 355.99 L550.63 355.77 L553.43 352.52 L554.77 353.43 L556.47 353.37 L557.90 354.02 L559.45 354.39 L560.44 356.10 L560.61 359.63 L562.22 359.78 L564.61 358.22 L565.21 360.62 L567.70 359.00 L571.31 355.19 L570.18 361.02 L571.43 362.00 L574.75 359.05 L575.78 360.49 L577.36 360.92 L578.98 361.29 L580.33 362.14 L581.45 363.39 L581.67 366.07 L582.65 367.47 L584.96 366.74 L586.06 367.96 L588.02 367.86 L591.93 364.94 L592.47 367.02 L593.44 368.45 L594.67 369.51 L595.37 371.26 L595.83 373.31 L595.47 376.38 L596.61 377.46 L597.79 378.48 L598.51 380.06 L600.26 380.39 L601.51 381.33 L602.63 382.42 L604.15 383.06 L605.33 384.09 L607.25 384.32 L608.74 385.05 L610.27 385.74 L612.17 386.07 L613.86 386.65 L615.28 387.50 L616.31 388.74 L617.57 389.77 L619.02 390.63 L620.00 391.92 L621.21 393.01 L622.47 394.06 L623.58 395.23 L624.90 396.25 L628.14 395.70 L632.69 394.19 L631.08 397.60 L632.78 398.39 L636.61 397.61 L631.06 403.80 L631.63 405.39 L632.03 407.09 L632.78 408.54 L634.48 409.34 L635.66 410.50 L636.81 411.70 L637.40 413.25 L639.04 414.15 L640.07 415.43 L640.48 417.09 L642.23 417.96 L643.31 419.24 L644.34 420.55 L645.37 421.87 L646.37 423.21 L647.15 424.66 L648.22 425.98 L649.12 427.38 L649.91 428.84 L650.82 430.25 L651.44 431.79 L652.28 433.24 L654.40 434.14 L656.24 435.19 L655.07 437.49 L657.07 438.50 L659.37 439.43 L656.76 442.21 L657.50 443.72 L658.58 445.12 L658.32 446.97 L659.24 448.43 L659.63 450.06 L659.66 451.80 L660.23 453.37 L660.48 455.04 L661.43 456.51 L661.88 458.12 L663.13 459.53 L664.24 460.99 L665.37 462.47 L665.94 464.08 L666.36 465.73 L667.26 467.28 L667.67 468.94 L667.99 470.61 L668.27 472.29 L668.57 473.97 L669.20 475.61 L669.14 477.34 L671.27 478.80 L675.80 480.02 L677.33 481.64 L674.14 483.73 L678.45 485.12 L676.60 487.05 L671.88 489.13 L672.45 490.82 L672.07 492.56 L671.15 494.32 L672.46 496.00 L672.15 497.73 L671.82 499.45 L672.99 501.18 L672.54 502.90 L673.19 504.65 L674.34 506.42 L674.02 508.15 L674.92 509.95 L675.57 511.75 L675.47 513.51 L675.53 515.28 L675.36 517.03 L675.15 518.78 L674.80 520.51 L674.50 522.25 L674.50 524.02 L673.43 525.65 L671.71 527.15 L672.74 529.09 L671.27 530.60 L669.81 532.10 L671.31 534.16 L672.11 536.11 L672.99 538.11 L672.87 539.90 L676.25 542.54 L677.27 544.66 L676.83 546.44 L682.81 549.97 L684.69 552.47 L683.71 554.18 L684.36 556.39 L683.67 558.19 L681.03 559.35 L676.43 559.81 L678.05 562.34 L678.38 564.47 L676.29 565.72 L676.56 567.84 L674.89 569.21 L673.49 570.67 L672.25 572.18 L669.79 573.15 L669.97 575.26 L670.35 577.47 L668.87 578.84 L666.38 579.72 L664.64 580.92 L664.57 582.94 L665.37 585.42 L662.18 585.84 L662.40 588.05 L665.52 591.89 L667.14 594.99 L668.18 597.82 L666.81 599.27 L665.92 601.00 L667.01 603.96 L665.94 605.62 L663.49 606.37 L662.09 607.78 L662.28 610.27 L660.84 611.65 L660.58 613.87 L658.21 614.59 L655.54 615.04 L655.76 617.63 L654.64 619.23 L655.55 622.43 L652.34 622.39 L649.82 622.85 L651.05 626.40 L648.39 626.73 L645.91 627.15 L643.39 627.50 L642.12 628.94 L643.01 632.38 L643.27 635.31 L641.24 636.08 L641.21 638.80 L641.40 641.80 L640.39 643.63 L638.80 644.87 L637.26 646.17 L634.65 646.29 L633.91 648.44 L634.10 651.67 L632.48 652.90 L630.83 654.07 L629.53 655.67 L627.67 656.60 L625.50 657.12 L621.60 655.40 L618.46 654.54 L617.18 656.08 L615.00 656.42 L615.49 660.42 L613.73 661.35 L611.63 661.78 L611.79 665.53 L610.24 666.81 L607.50 666.25 L604.08 664.56 L601.35 663.84 L599.10 663.83 L598.31 666.27 L597.73 669.12 L596.30 670.57 L596.08 674.22 L596.70 679.57 L595.66 681.97 L594.03 683.31 L591.59 683.02 L589.60 683.61 L588.29 685.62 L585.97 685.50 L583.21 684.36 L582.22 687.14 L580.48 688.26 L578.29 688.32 L576.68 689.78 L574.34 689.42 L572.60 690.58 L569.35 687.65 L567.46 688.31 L565.66 689.23 L563.15 688.05 L561.89 690.59 L560.60 693.16 L558.68 693.83 L557.26 696.20 L554.77 694.86 L551.61 690.93 L550.36 694.01 L548.84 696.20 L546.65 695.73 L545.47 699.60 L543.80 701.56 L542.01 703.10 L539.99 703.54 L537.71 702.66 L536.55 707.93 L534.51 708.58 L532.49 709.31 L530.51 710.42 L528.39 710.61 L525.95 708.20 L523.54 705.63 L521.94 710.20 L519.77 709.73 L517.54 708.42 L515.42 708.10 L513.31 707.72 L511.04 704.40 L508.84 700.76 L506.91 703.41 L504.92 705.11 L502.84 703.10 L500.81 704.64 L498.76 705.87 L496.73 703.99 L494.64 705.82 L492.60 705.23 L490.61 703.87 L488.41 706.75 L486.30 707.15 L484.01 709.94 L481.55 713.92 L479.42 713.72 L477.30 713.31 L474.92 715.18 L472.54 716.71 L470.64 714.53 L468.56 713.80 L466.13 715.31 L464.05 714.54 L461.82 714.68 L460.05 712.26 L458.33 709.86 L455.94 710.85 L453.94 709.91 L451.59 710.53 L450.16 707.23 L448.47 705.23 L445.52 708.13 L444.05 705.34 L442.22 703.99 L439.93 704.28 L437.99 703.34 L435.14 705.29 L432.26 707.16 L430.60 705.27 L428.14 705.75 L425.51 706.61 L423.06 706.91 L421.20 705.59 L419.96 702.75 L417.77 702.34 L415.75 701.50 L413.68 700.78 L411.31 700.75 L409.59 699.23 L407.49 698.54 L405.76 697.08 L403.74 696.24 L403.54 691.79 L402.50 689.11 L400.78 687.81 L399.35 686.00 L397.70 684.61 L395.71 683.84 L393.18 683.99 L389.81 685.49 L388.00 684.32 L385.60 684.10 L383.85 682.80 L382.76 680.50 L380.78 679.61 L378.49 679.13 L376.28 678.53 L372.80 679.68 L370.66 678.88 L367.12 679.97 L363.77 680.69 L362.13 679.12 L361.15 676.70 L358.83 676.01 L356.91 674.78 L355.95 672.41 L354.88 670.20 L352.26 669.80 L351.44 667.34 L349.90 665.71 L348.92 663.48 L349.01 660.13 L346.80 659.25 L345.26 657.67 L343.51 656.30 L341.86 654.82 L340.85 652.71 L338.78 651.64 L337.98 649.37 L335.31 648.80 L333.45 647.49 L331.59 646.16 L327.92 646.36 L325.60 645.34 L321.18 646.02 L320.46 643.64 L320.97 640.32 L317.34 640.24 L320.51 634.98 L320.95 631.86 L316.76 632.14 L318.15 628.40 L317.90 625.87 L313.17 626.39 L309.22 626.30 L313.85 620.58 L310.61 620.01 L306.71 619.78 L306.44 617.29 L305.57 615.17 L303.95 613.50 L302.30 611.83 L303.43 608.61 L305.58 604.90 L303.38 603.56 L301.00 602.28 L302.67 598.94 L298.06 598.74 L292.45 598.93 L298.62 593.52 L297.40 591.64 L292.42 591.40 L293.93 588.29 L294.45 585.64 L290.48 584.85 L288.43 583.22 L293.41 578.89 L290.05 577.78 L290.66 575.18 L289.58 573.20 L289.43 570.90 L286.23 569.60 L280.03 569.20 L284.30 565.49 L284.55 563.07 L279.31 562.21 L278.67 560.01 L277.59 557.92 L275.83 556.00 L275.83 553.62 L275.35 551.36 L276.81 548.69 L277.66 546.18 L274.43 544.50 L274.65 542.12 L273.46 540.00 L267.77 538.62 L270.16 535.86 L269.65 533.58 L263.06 532.13 L266.35 529.31 L267.33 526.82 L263.56 524.86 L264.41 522.40 L270.84 519.47 L267.79 517.40 L268.44 515.02 L267.04 512.77 L264.83 510.54 L264.57 508.19 L263.98 505.85 L261.32 503.53 L263.58 501.13 L267.16 498.78 L261.53 496.37 L262.14 494.00 L263.96 491.68 L265.69 489.40 L264.90 487.00 L266.26 484.73 L269.24 482.61 L265.80 479.99 L265.27 477.58 L267.63 475.46 L266.07 472.93 L267.46 470.73 L269.64 468.66 L269.95 466.36 L267.16 463.57 L263.45 460.56 L264.89 458.38 L267.11 456.36 L265.70 453.67 L267.51 451.61 L271.64 450.08 L269.09 447.10 L266.09 443.94 L266.87 441.66 L268.51 439.60 L268.15 437.03 L270.58 435.21 L274.84 433.98 L272.10 430.69 L270.14 427.58 L271.14 425.37 L272.09 423.15 L271.52 420.41 L273.91 418.69 L278.51 417.84 L276.63 414.59 L274.00 410.98 L274.48 408.55 L271.35 404.61 L269.84 401.27 L273.51 400.15 L273.16 397.28 L275.47 395.61 L275.55 392.90 L277.33 391.00 L282.42 390.78 L281.03 387.33 L282.63 385.39 L287.73 385.35 L287.07 382.23 L286.07 378.87 L288.23 377.28 L285.52 372.82 L287.20 370.92 L287.79 368.36 L289.92 366.76 L294.43 366.71 L294.90 364.09 L298.30 363.42 L300.24 361.80 L299.24 358.12 L298.92 354.86 L300.06 352.62 L302.07 351.02 L301.48 347.45 L304.60 346.71 L308.94 347.00 L305.92 341.37 L310.43 341.87 L309.77 338.07 L310.98 335.81 L315.80 336.74 L315.77 333.38 L319.22 333.19 L320.13 330.67 L321.59 328.65 L324.67 328.20 L324.33 324.39 L326.56 323.12 L328.26 321.32 L328.81 318.29 L331.79 317.83 L331.91 314.26 L333.44 312.21 L337.19 312.70 L338.67 310.62 L340.52 308.94 L341.85 306.64 L342.46 303.41 L342.82 299.79 L344.79 298.18 L347.18 297.11 L347.38 293.10 L349.63 291.84 L354.58 294.38 L353.70 288.69 L357.17 289.23 L359.00 287.38 L358.83 282.43 L362.78 283.81 L363.70 280.44 L365.97 279.20 L369.86 280.69 L372.98 281.00 L374.81 279.08 L378.84 281.13 L379.42 276.93 L381.88 276.16 L384.47 275.68 L385.95 272.99 L388.83 273.10 L390.58 270.90 L392.83 269.71 L395.86 270.24 L397.00 266.59 L399.73 266.48 L402.16 265.70 L402.98 260.96 L405.42 260.12 L407.71 258.89 L408.63 253.96 L411.27 253.54 L415.85 258.72 L416.68 253.18 L419.04 252.02 L423.37 257.07 L424.41 251.74 L426.90 251.02 L429.81 251.77 L432.49 251.82 L434.19 248.15 L436.74 247.60 L439.62 248.44 L442.12 247.77 L443.69 242.84 L446.68 244.32 L449.72 246.18 L451.79 243.20 L454.67 244.46 L457.53 245.82 L460.06 245.37 L462.69 245.49 L465.30 245.63 L467.79 244.84 L470.20 243.34 L472.40 239.52 L474.92 238.37 L477.31 235.45 L479.83 233.56 L482.68 236.21 L485.44 238.28 L487.96 236.06 L490.68 238.24 L493.35 239.90 L495.89 235.95 L498.51 232.99 L501.17 236.40 L503.81 236.11 L506.53 232.86 L509.18 233.47 L511.81 234.25 L514.51 233.60 L517.35 231.05 L520.09 230.52 L522.40 235.36 L525.25 233.42 L528.21 230.88 L530.01 238.87 L532.99 236.21 L535.64 236.50 L537.80 240.12 L540.46 240.11 L543.31 238.96 L546.43 236.51 L549.22 236.18 L552.01 235.90 L554.70 236.16 L557.67 235.17 L559.62 238.81 L562.04 240.20 L565.79 236.21 L566.89 242.80 L570.22 240.66 L573.30 239.63 L574.98 243.52 L577.83 243.34 L580.90 242.51 L584.38 240.53 L587.04 241.18 L589.79 241.61 L591.98 243.60 L595.16 242.84 L597.94 243.25 L598.77 248.66 L601.98 247.92 L605.82 245.76 L607.19 249.58 L608.45 253.47 L612.15 251.82 L614.81 252.56 L616.44 255.47 L620.17 254.02 L623.75 252.98 L626.29 254.08 L628.38 256.05 L631.75 255.61 L633.28 258.57 L633.99 262.93 L637.90 261.61 L638.32 266.30 L640.92 267.25 L643.21 268.73 L644.12 272.37 L646.74 273.29 L649.17 274.50 L653.05 273.59 L657.49 271.97 L659.44 274.02 L661.64 275.69 L666.16 274.21 L667.75 276.76 L666.74 282.67 L672.09 280.28 L672.16 284.66 L672.81 288.22 L676.54 288.02 L676.21 292.67 L678.10 294.64 L680.77 295.72 L684.81 295.32 L689.15 294.68 L691.03 296.76 L693.00 298.73 L697.80 297.81 L699.42 300.19 L697.01 306.51 L702.76 304.81 L703.06 308.40 L702.06 313.13 L706.07 313.20 L705.36 317.56 L706.76 319.98 L709.08 321.61 L712.95 321.95 L717.74 321.61 L719.33 323.95 L720.29 326.77 L724.01 327.44 L726.47 329.13 L725.22 333.58 L724.29 337.71 L729.93 337.11 L732.99 338.41 L731.30 342.99 L736.14 343.13 L739.84 344.11 L736.14 349.85 L740.89 350.19 L745.18 350.90 L743.00 355.53 L744.50 357.93 L748.24 359.06 L750.35 361.15 L746.01 366.76 L750.63 367.48 L754.48 368.69 L751.16 373.56 L756.21 374.22 L759.80 375.66 L757.19 380.06 L758.38 382.63 L763.22 383.60 L763.41 386.65 L763.64 389.66 L765.66 391.93 L770.13 393.24 L771.66 395.77 L767.40 400.46 L771.28 402.09 L773.96 404.21 L767.04 409.61 L771.08 411.26 L771.46 414.13 L768.95 417.87 L771.39 420.09 L774.71 422.09 L779.53 423.73 L780.15 426.56 L781.95 429.10 L784.13 431.56 L784.98 434.36 L781.01 438.23 L783.97 440.55 L787.36 442.83 L780.07 447.19 L783.85 449.41 L784.39 452.24 L782.13 455.52 L782.57 458.34 L784.92 460.90 L789.07 463.27 L789.68 466.14 L790.61 468.97 L790.09 471.96 L791.79 474.73 L792.40 477.63 L786.83 480.93 L791.01 483.58 L795.50 486.29 L791.49 489.39 L788.92 492.38 L792.33 495.21 L791.32 498.14 L789.44 501.05 L793.51 504.00 L794.70 506.96 L795.44 509.94 L795.53 512.90 L797.64 515.98 L795.13 518.80 L793.38 521.64 L797.60 524.95 L790.69 527.30 L792.67 530.44 L793.26 533.47 L788.10 535.80 L788.85 538.83 L789.07 541.81 L791.07 545.07 L793.52 548.46 L792.84 551.36 L792.12 554.25 L795.05 557.86 L792.56 560.41 L788.05 562.49 L792.12 566.44 L786.45 568.17 L785.40 570.94 L787.16 574.43 L782.16 576.16 L781.69 579.06 L782.04 582.21 L783.86 585.83 L785.79 589.54 L784.71 592.34 L783.53 595.10 L786.03 599.13 L784.18 601.69 L778.25 602.71 L782.40 607.47 L777.64 608.85 L775.26 611.10 L776.55 614.85 L771.97 616.15 L771.37 619.12 L770.84 622.13 L771.55 625.73 L773.63 630.04 L771.25 632.25 L768.36 634.18 L769.92 638.34 L768.80 641.18 L764.42 642.27 L761.60 644.15 L764.03 648.95 L763.37 652.07 L758.77 652.88 L760.08 657.18 L761.22 661.46 L753.12 659.98 L756.01 665.41 L757.23 669.87 L751.66 669.82 L749.72 672.18 L751.65 677.24 L749.63 679.59 L742.15 677.90 L745.09 683.87 L744.26 687.09 L738.63 686.60 L740.43 691.90 L739.63 695.22 L735.56 695.86 L736.15 700.38 L738.97 706.92 L731.32 704.37 L728.94 706.38 L729.90 711.46 L725.33 711.45 L721.97 712.51 L722.18 717.01 L724.62 723.83 L717.84 721.46 L714.98 722.97 L715.68 728.21 L712.38 729.28 L710.24 731.56 L708.32 734.11 L704.73 734.77 L702.63 737.10 L698.52 737.05 L694.64 737.20 L694.44 741.85 L691.78 743.48 L690.85 747.35 L692.75 755.05 L686.92 752.54 L682.86 752.30 L683.25 758.23 L680.26 759.47 L677.62 761.21 L675.31 763.44 L671.58 763.52 L669.25 765.71 L665.40 765.48 L660.82 763.98 L660.45 769.40 L659.36 773.75 L657.15 776.27 L653.18 775.69 L650.85 778.01 L647.21 777.88 L642.39 775.41 L641.75 781.03 L640.46 785.54 L637.75 787.23 L633.82 786.36 L631.42 788.70 L627.90 788.60 L623.19 785.65 L621.47 789.58 L618.89 791.59 L615.82 792.38 L614.63 798.04 L610.90 797.19 L606.79 795.16 L604.77 798.88 L602.59 802.29 L600.22 805.32 L597.07 806.02 L593.38 804.94 L590.78 807.38 L587.37 807.10 L582.91 802.89 L580.89 807.57 L578.94 812.84 L575.79 813.57 L572.35 812.97 L569.55 815.20 L566.10 814.50 L561.95 810.14 L559.52 814.29 L557.11 818.95 L553.97 819.86 L550.47 818.50 L547.49 820.33 L544.08 819.33 L540.14 813.91 L537.37 817.48 L534.38 819.61 L531.11 819.11 L528.50 826.13 L525.38 828.22 L521.58 820.85 L518.59 824.90 L515.45 827.28 L512.15 826.75 L508.85 825.74 L505.59 825.41 L502.34 826.40 L499.08 825.32 L495.89 820.03 L492.63 822.59 L489.25 827.32 L485.99 826.96 L482.62 828.58 L478.98 834.05 L475.73 832.58 L473.15 823.46 L469.32 829.58 L465.90 830.39 L463.13 825.40 L459.86 825.17 L456.59 824.84 L453.32 824.57 L450.79 819.46 L447.33 820.60 L443.65 822.80 L440.70 820.70 L436.38 825.81 L432.32 829.09 L430.77 820.35 L426.80 823.05 L423.18 823.94 L420.94 819.15 L418.34 816.05 L413.90 819.99 L409.41 823.75 L408.53 814.74 L404.86 815.56 L400.72 817.76 L398.72 813.12 L396.25 810.14 L391.48 813.91 L386.61 817.68 L386.27 808.85 L382.93 808.36 L378.49 810.66 L375.94 808.07 L372.78 807.02 L369.51 806.22 L366.65 804.44 L363.91 802.45 L362.35 797.92 L360.01 795.19 L355.80 796.37 L352.99 794.63 L348.36 796.45 L342.19 801.03 L342.13 793.97 L339.18 792.41 L334.51 793.90 L331.85 791.76 L328.52 790.78 L326.11 788.24 L323.95 785.33 L321.22 783.38 L319.97 779.13 L318.36 775.54 L313.09 777.45 L308.98 777.53 L305.75 776.26 L303.97 772.94 L301.15 771.11 L299.86 767.22 L298.95 762.92 L293.32 764.75 L288.92 764.88 L285.95 763.16 L284.49 759.62 L281.95 757.39 L280.88 753.47 L280.61 748.72 L275.87 749.03 L273.23 746.95 L269.67 745.84 L261.70 749.30 L261.96 744.10 L262.02 739.21 L256.06 740.33 L253.62 737.93 L251.09 735.62 L248.93 732.94 L248.49 728.72 L245.64 726.70 L244.93 722.79 L246.03 717.40 L240.09 718.02 L235.46 717.43 L232.54 715.38 L231.50 711.83 L228.18 710.07 L227.51 706.27 L229.48 700.56 L224.97 699.67 L220.00 699.03 L217.29 696.74 L218.37 691.83 L214.91 690.05 L213.83 686.66 L215.98 681.23 L211.31 680.18 L208.22 678.08 L206.26 675.26 L198.23 675.99 L196.86 672.75 L200.87 666.52 L194.96 665.84 L192.51 663.21 L191.01 660.07 L190.11 656.62 L190.13 652.74 L187.47 650.18 L187.29 646.44 L190.87 641.01 L186.41 639.28 L180.63 638.03 L179.12 634.90 L176.29 632.29 L169.01 631.42 L169.97 627.24 L177.09 620.79 L168.24 620.34 L166.22 617.30 L170.33 612.17 L169.22 608.87 L166.63 606.04 L166.81 602.33 L171.27 597.37 L167.53 594.87 L164.47 592.12 L164.80 588.44 L157.79 586.64 L155.12 583.65 L163.59 578.04 L160.32 575.23 L161.24 571.48 L165.96 567.01 L163.76 563.96 L160.16 561.13 L159.06 557.81 L160.42 554.09 L157.75 551.01 L159.27 547.31 L160.54 543.68 L158.15 540.51 L154.77 537.42 L154.20 533.98 L156.32 530.31 L153.48 527.07 L154.06 523.55 L153.41 520.11 L154.91 516.56 L154.48 513.12 L152.29 509.73 L154.01 506.22 L150.56 502.78 L148.48 499.28 L144.46 495.72 L142.22 492.11 L144.46 488.61 L141.60 484.93 L148.03 481.67 L149.55 478.23 L149.09 474.68 L153.07 471.48 L153.67 468.03 L153.85 464.56 L152.41 460.89 L151.25 457.23 L154.18 454.07 L152.99 450.38 L153.83 446.96 L155.64 443.71 L153.37 439.77 L156.58 436.79 L156.23 433.16 L154.59 429.25 L159.11 426.62 L158.85 422.98 L160.02 419.67 L161.09 416.33 L160.99 412.70 L160.42 408.92 L158.08 404.62 L156.59 400.49 L155.53 396.44 L153.61 392.07 L156.73 389.27 L154.56 384.74 L160.20 382.84 L165.28 380.83 L164.22 376.65 L167.79 374.18 L170.25 371.33 L171.81 368.14 L171.65 364.25 L169.90 359.64 L170.32 355.91 L169.74 351.71 L172.49 348.99 L172.82 345.16 L174.73 342.06 L183.51 342.39 L183.11 338.22 L184.57 334.97 L188.24 332.90 L186.48 327.89 L187.69 324.47 L191.64 322.61 L190.91 318.05 L193.42 315.37 L194.15 311.62 L193.69 307.09 L194.54 303.33 L192.73 297.79 L196.08 295.61 L196.49 291.45 L199.53 289.08 L206.09 289.27 L206.53 285.11 L211.44 284.24 L213.33 281.15 L217.36 279.72 L219.22 276.62 L217.51 270.61 L218.91 267.05 L221.69 264.61 L224.19 261.95 L225.09 257.89 L229.65 257.07 L235.82 257.79 L236.63 253.64 L238.32 250.27 L242.83 249.61 L243.23 244.96 L244.28 240.86 L249.15 240.66 L249.93 236.24 L252.36 233.52 L254.89 230.89 L255.17 225.74 L257.51 222.83 L257.40 217.04 L260.22 214.60 L263.47 212.69 L266.41 210.40 L273.71 213.64 L275.44 209.91 L279.45 209.14 L283.25 208.13 L285.58 205.15 L288.85 203.46 L290.95 200.10 L293.77 197.75 L297.48 196.71 L298.59 191.75 L301.66 189.72 L306.21 190.05 L307.13 184.55 L310.48 182.94 L314.94 183.25 L317.40 180.16 L321.43 179.83 L325.18 179.05 L328.04 176.65 L331.59 175.54 L334.14 172.47 L337.05 170.09 L339.20 166.07 L340.03 159.11 L344.60 160.04 L348.91 160.54 L349.65 152.90 L354.63 154.99 L359.53 157.05 L360.98 150.67 L364.90 150.40 L369.93 153.12 L372.80 150.19 L376.93 150.70 L379.90 147.95 L382.19 143.02 L385.64 141.45 L390.13 143.25 L393.04 139.93 L396.54 138.52 L401.76 143.32 L405.45 142.78 L408.58 140.12 L412.51 140.55 L415.97 139.08 L418.85 134.98 L422.98 136.42 L426.61 135.63 L429.70 132.01 L433.67 132.93 L436.83 129.26 L440.18 126.35 L443.42 122.46 L446.87 119.60 L450.98 121.39 L454.40 117.80 L458.90 123.64 L462.96 126.16 L466.54 124.07 L470.51 126.31 L474.30 126.82 L478.03 126.52 L481.62 123.45 L485.24 119.29 L489.03 118.83 L492.89 121.20 L496.67 119.42 L500.47 120.11 L504.21 125.54 L507.96 125.47 L511.71 125.42 L515.48 124.79 L519.29 123.78 L523.24 120.98 L526.96 122.18 L530.64 123.62 L534.69 120.83 L538.38 122.24 L542.43 120.19 L546.52 118.21 L550.55 117.06 L554.88 114.04 L558.39 116.85 L562.66 114.75 L565.90 118.91 L569.02 123.37 L573.52 120.27 L576.44 125.31 L580.20 125.99 L583.92 126.90 L587.38 128.86 L592.11 125.62 L596.03 125.87 L599.41 128.16 L603.36 128.33 L607.53 127.81 L610.12 132.66 L612.76 137.08 L617.07 136.08 L620.84 136.87 L623.67 140.40 L628.50 138.16 L632.25 139.09 L635.00 142.68 L639.69 141.18 L643.27 142.59 L647.21 143.13 L652.10 141.49 L656.11 142.05 L661.35 139.89 L664.39 142.73 L668.48 143.27 L671.39 146.33 L671.79 154.35 L676.68 153.24 L681.18 153.04 L686.24 151.87 L690.63 152.08 L695.09 152.23 L699.18 153.13 L702.90 154.69 L703.37 161.69 L706.58 163.99 L713.46 160.47 L716.21 163.61 L720.31 164.64 L724.21 166.04 L727.82 167.88 L727.71 175.06 L730.44 178.06 L737.68 174.86 L740.18 178.25 L744.05 179.80 L747.88 181.43 L753.17 181.25 L756.32 183.83 L758.64 187.42 L763.93 187.44 L766.76 190.42 L768.72 194.38 L770.91 198.04 L772.51 202.30 L775.88 204.60 L781.67 204.38 L784.24 207.60 L785.61 212.01 L789.17 214.19 L791.84 217.27 L794.59 220.25 L796.88 223.67 L798.69 227.52 L800.50 231.31 L803.81 233.77 L806.88 236.47 L808.60 240.30 L812.40 242.40 L815.61 245.01 L818.26 248.09 L822.85 249.66 L824.27 253.72 L826.64 257.03 L830.56 259.21 L835.00 261.07 L838.51 263.63 L839.81 267.75 L844.00 269.90 L846.71 273.07 L847.81 277.28 L848.75 281.56 L849.28 286.07 L850.96 289.84 L856.81 291.15 L859.19 294.55 L859.08 299.36 L861.74 302.59 L863.35 306.40 L865.71 309.81 L867.55 313.50 L867.46 318.15 L868.50 322.19 L870.71 325.68 L873.46 328.93 L874.23 333.08 L875.90 336.82 L879.41 339.79 L881.08 343.55 L884.50 346.62 L885.41 350.71 L885.92 354.93 L889.54 358.00 L892.98 361.18 L896.89 364.25 L896.69 368.74 L898.90 372.42 L901.55 375.98 L901.96 380.25 L901.53 384.73 L900.31 389.40 L900.88 393.55 L905.10 396.75 L907.79 400.40 L906.36 405.04 L907.10 409.15 L908.29 413.17 L909.02 417.28 L910.21 421.30 L908.61 425.83 L908.80 430.01 L910.28 433.98 L911.69 437.97 L911.73 442.16 L911.26 446.42 L914.17 450.25 L914.39 454.42 L916.89 458.36 L917.30 462.53 L916.43 466.80 L918.72 470.83 L920.31 474.94 L924.57 478.94 L922.99 483.26 L923.42 487.48 L925.99 491.67 L924.88 495.94 L956.35 500.00 L955.56 495.44 L955.16 490.90 L955.35 486.34 L956.88 481.71 L957.93 477.08 L959.76 472.38 L958.82 467.83 L958.84 463.21 L959.25 458.56 L960.62 453.78 L959.89 449.21 L957.39 444.85 L958.36 440.08 L957.58 435.52 L957.26 430.89 L955.27 426.53 L953.56 422.14 L952.42 417.67 L951.12 413.24 L950.68 408.64 L948.20 404.47 L946.76 400.10 L945.05 395.79 L946.08 390.84 L942.34 387.05 L935.15 384.24 L934.31 379.80 L933.93 375.22 L931.89 371.12 L930.28 366.90 L928.93 362.60 L929.14 357.79 L928.33 353.28 L929.03 348.24 L927.50 343.95 L925.65 339.79 L924.93 335.19 L924.39 330.49 L923.58 325.89 L919.77 322.52 L919.10 317.85 L917.67 313.48 L915.55 309.42 L912.67 305.72 L909.75 302.07 L907.74 297.98 L904.91 294.32 L903.41 289.98 L900.17 286.56 L897.78 282.69 L894.91 279.10 L893.41 274.75 L890.71 271.08 L883.14 270.34 L880.03 267.00 L878.96 262.41 L875.87 259.08 L873.06 255.58 L870.58 251.87 L868.92 247.61 L866.97 243.52 L866.33 238.47 L864.10 234.53 L860.92 231.28 L859.08 227.02 L856.91 223.00 L855.41 218.43 L851.20 216.00 L848.49 212.38 L846.59 208.07 L843.47 204.78 L839.60 202.15 L836.13 199.19 L832.51 196.39 L829.18 193.33 L826.16 190.00 L822.49 187.29 L819.10 184.32 L815.40 181.69 L812.32 178.42 L809.51 174.87 L802.62 175.68 L797.64 174.55 L794.97 170.93 L791.67 167.98 L787.89 165.60 L784.71 162.53 L781.59 159.37 L778.75 155.85 L776.72 151.29 L773.74 147.87 L769.48 146.11 L766.58 142.55 L761.82 141.51 L755.66 142.49 L752.25 139.70 L750.85 133.96 L747.87 130.44 L743.39 129.15 L740.10 126.07 L735.71 124.70 L729.69 126.04 L725.85 123.90 L724.07 118.27 L721.07 114.61 L717.44 112.00 L714.76 107.64 L712.05 103.21 L706.55 104.03 L700.90 105.27 L700.58 95.96 L694.56 98.05 L690.23 96.77 L687.23 92.60 L683.13 90.79 L680.15 86.42 L676.14 84.32 L673.16 79.68 L669.15 77.49 L664.36 77.23 L660.88 73.61 L656.09 73.45 L652.04 71.26 L648.50 67.57 L642.93 69.83 L637.99 70.41 L634.77 65.56 L629.45 67.48 L624.21 69.34 L620.33 66.55 L616.41 63.80 L612.16 62.21 L607.44 62.47 L603.66 58.86 L598.93 59.25 L594.30 59.28 L589.92 58.22 L584.12 64.46 L580.29 60.75 L575.27 63.59 L570.44 65.70 L566.66 61.29 L562.14 61.55 L558.11 58.25 L553.78 56.92 L549.64 53.77 L545.35 51.56 L540.66 53.38 L536.33 51.34 L531.81 51.45 L527.29 51.69 L522.90 49.57 L518.42 48.74 L513.91 48.31 L509.40 48.22 L504.88 48.07 L500.36 50.89 L495.89 53.36 L491.42 53.14 L486.95 53.38 L482.53 54.67 L478.01 53.49 L473.43 51.69 L468.98 52.52 L464.53 53.07 L460.56 59.02 L456.12 59.08 L451.99 62.08 L448.29 68.22 L443.38 64.22 L439.20 66.03 L434.45 63.95 L429.74 62.41 L425.13 61.73 L420.19 59.39 L416.35 63.16 L411.76 62.93 L407.21 62.97 L403.36 66.20 L398.39 64.47 L394.15 65.95 L390.97 71.58 L385.99 70.05 L381.70 71.23 L379.24 78.77 L374.50 78.21 L369.63 77.37 L365.29 78.29 L361.45 80.81 L356.85 81.00 L352.30 81.41 L349.03 85.40 L344.46 85.76 L342.38 92.65 L340.10 98.73 L333.93 95.08 L331.36 100.24 L328.09 103.61 L321.21 98.79 L318.29 102.97 L316.08 108.52 L309.28 104.37 L305.08 105.80 L300.95 107.36 L296.55 108.44 L293.92 112.91 L289.12 113.26 L288.68 121.50 L285.25 124.24 L278.62 121.47 L276.55 126.55 L274.07 130.84 L267.87 129.08 L265.86 134.06 L265.83 141.96 L258.84 139.19 L254.22 140.12 L250.67 142.65 L246.02 143.64 L244.19 148.56 L239.33 149.31 L238.90 155.98 L239.37 163.63 L232.22 161.45 L232.00 168.05 L228.19 170.14 L224.67 172.58 L220.54 174.35 L215.23 174.79 L211.89 177.55 L205.98 177.47 L203.35 181.06 L200.91 184.82 L196.27 186.27 L195.05 191.25 L190.85 193.19 L186.44 194.98 L186.68 201.25 L184.27 204.93 L178.79 205.77 L179.87 212.59 L178.16 216.82 L173.95 218.84 L169.98 221.13 L167.03 224.30 L165.02 228.23 L159.60 229.43 L158.19 233.85 L157.67 238.90 L155.32 242.51 L158.48 250.16 L153.99 252.14 L155.44 258.36 L153.41 262.08 L148.71 263.98 L146.65 267.69 L141.31 269.29 L138.65 272.65 L133.51 274.50 L130.89 277.94 L130.31 282.60 L126.34 285.27 L125.75 289.88 L123.21 293.38 L118.98 295.99 L120.05 301.42 L120.47 306.45 L115.15 308.56 L118.79 315.10 L118.67 319.74 L115.49 322.92 L113.26 326.55 L109.53 329.55 L108.16 333.60 L104.79 336.81 L102.34 340.43 L101.39 344.66 L100.70 348.98 L104.76 355.01 L101.65 358.37 L104.33 363.77 L107.15 369.12 L101.67 371.70 L101.54 376.05 L97.26 379.12 L94.86 382.80 L91.54 386.26 L87.63 389.60 L85.88 393.55 L85.14 397.78 L84.47 402.01 L83.07 406.07 L82.09 410.23 L85.61 415.31 L83.04 419.12 L81.32 423.12 L83.12 427.76 L80.58 431.63 L81.32 436.04 L81.16 440.30 L79.39 444.33 L80.71 448.76 L79.99 452.93 L78.00 456.98 L78.16 461.25 L78.36 465.52 L83.89 470.16 L84.76 474.39 L85.57 478.60 L91.16 482.99 L87.01 486.95 L88.15 491.11 L84.83 495.19 L82.19 499.33 L81.05 503.52 L77.20 507.78 L80.11 511.93 L79.58 516.16 L78.79 520.41 L82.49 524.41 L86.67 528.32 L84.73 532.63 L82.66 536.99 L85.76 540.90 L85.74 545.09 L82.82 549.63 L82.91 553.85 L90.08 557.10 L89.91 561.31 L87.40 565.91 L91.05 569.53 L90.38 573.86 L88.08 578.54 L88.19 582.80 L96.31 585.37 L99.31 588.93 L97.08 593.66 L107.03 595.50 L105.91 599.96 L101.18 605.42 L103.78 608.98 L102.95 613.49 L102.06 618.06 L108.77 620.34 L111.78 623.68 L112.57 627.71 L113.99 631.53 L121.38 633.25 L121.55 637.46 L115.79 643.92 L126.02 644.37 L129.87 647.15 L125.67 653.17 L125.67 657.56 L127.64 661.14 L125.09 666.71 L123.77 671.82 L131.07 672.97 L134.45 675.86 L135.14 680.04 L138.42 682.94 L141.54 685.89 L144.31 689.00 L145.16 693.11 L143.25 698.80 L151.78 698.64 L154.03 701.97 L149.88 709.12 L152.62 712.22 L154.05 716.12 L153.46 721.34 L160.41 721.72 L164.05 724.16 L165.38 728.14 L170.52 729.50 L172.44 733.06 L172.48 738.00 L172.11 743.31 L178.78 743.39 L182.74 745.42 L183.71 749.76 L187.72 751.71 L190.20 754.86 L190.34 759.98 L189.58 765.96 L196.15 765.64 L200.70 766.99 L202.69 770.61 L207.58 771.55 L211.02 773.79 L213.78 776.65 L217.01 779.06 L216.23 785.48 L222.39 784.93 L227.89 784.93 L225.06 793.72 L227.61 796.89 L230.28 799.95 L231.07 805.15 L237.00 804.51 L241.85 805.00 L245.13 807.31 L249.73 807.98 L252.85 810.43 L254.17 815.19 L254.57 821.25 L260.05 820.68 L264.85 820.90 L267.94 823.42 L272.26 824.20 L275.31 826.75 L277.32 830.87 L278.22 836.76 L283.24 836.41 L288.36 835.78 L291.89 837.63 L296.17 838.20 L300.39 838.82 L303.51 841.29 L307.05 843.03 L308.59 848.40 L312.90 848.77 L319.10 845.45 L319.22 853.80 L321.73 857.66 L325.78 858.47 L328.08 862.93 L332.65 862.60 L337.88 860.71 L341.90 861.39 L346.12 861.55 L349.69 863.21 L353.33 864.69 L357.73 864.22 L360.00 869.26 L363.83 870.30 L370.38 863.66 L372.15 870.37 L374.59 875.42 L379.08 874.41 L384.02 871.80 L386.79 876.09 L390.44 877.59 L396.56 870.32 L398.93 876.33 L401.62 881.47 L406.11 879.75 L410.76 877.08 L414.18 879.54 L417.44 882.88 L423.04 875.07 L425.91 880.35 L428.70 886.57 L432.95 885.06 L436.44 887.94 L440.13 889.82 L444.79 885.12 L448.75 884.88 L452.71 884.48 L456.59 884.59 L461.05 879.07 L464.68 881.25 L468.04 887.04 L472.56 878.45 L476.41 877.67 L479.90 883.39 L483.67 885.08 L487.53 885.00 L491.27 889.95 L495.14 892.12 L499.08 886.57 L502.93 884.90 L506.79 885.50 L510.62 884.65 L514.39 882.34 L518.17 881.27 L522.06 882.48 L526.06 884.81 L529.31 876.85 L533.26 878.67 L537.65 884.46 L541.35 882.79 L545.47 884.81 L549.65 886.98 L552.67 880.30 L556.19 877.87 L560.11 878.19 L563.60 875.87 L567.26 874.69 L571.70 877.68 L576.18 880.45 L578.75 873.86 L582.13 871.42 L586.13 871.85 L589.37 869.03 L592.91 867.54 L597.74 870.97 L602.42 873.55 L604.45 866.52 L607.76 864.28 L611.90 864.84 L614.93 861.76 L618.24 859.69 L622.95 861.76 L626.76 861.08 L630.97 861.47 L633.71 857.83 L636.15 853.52 L641.18 855.94 L644.45 853.82 L648.21 852.90 L652.87 854.03 L654.27 847.67 L656.80 844.06 L660.70 843.48 L662.99 839.48 L666.31 837.69 L671.29 839.21 L676.39 840.79 L677.52 834.74 L679.66 830.74 L683.42 829.75 L685.40 825.61 L688.90 824.17 L693.69 824.88 L699.12 826.51 L700.02 820.73 L701.91 816.67 L705.41 815.16 L707.01 810.78 L709.95 808.46 L712.99 806.30 L715.65 803.60 L721.11 804.79 L722.07 799.75 L721.98 793.46 L729.25 796.85 L733.07 795.64 L736.14 793.45 L740.85 793.24 L741.69 788.33 L742.58 783.59 L745.60 781.38 L746.93 777.26 L749.81 774.90 L752.47 772.31 L753.99 768.51 L759.61 769.01 L760.77 764.86 L758.77 757.62 L766.15 759.73 L770.61 758.84 L771.72 754.76 L771.60 749.58 L777.16 749.63 L778.51 745.85 L775.29 738.15 L782.60 739.57 L786.53 738.02 L787.28 733.83 L790.95 732.02 L796.24 731.43 L793.75 724.79 L797.56 723.02 L803.81 723.00 L799.53 715.28 L801.85 712.41 L807.28 711.66 L809.72 708.81 L807.29 702.73 L812.80 701.91 L818.85 701.32 L813.96 693.87 L818.65 692.39 L822.62 690.41 L819.87 684.50 L822.59 681.79 L827.86 680.47 L827.09 675.81 L825.73 670.90 L827.26 667.55 L831.59 665.60 L831.61 661.49 L831.35 657.28 L835.87 655.33 L839.16 652.76 L841.11 649.55 L842.18 645.96 L840.15 641.09 L844.36 638.82 L842.63 634.15 L840.84 629.53 L847.54 628.12 L843.09 622.59 L842.89 618.67 L848.21 616.62 L849.08 613.05 L849.20 609.24 L853.23 606.64 L856.91 603.86 L857.73 600.23 L858.55 596.61 L855.77 592.05 L858.09 588.84 L857.07 584.81 L853.49 580.23 L858.99 577.71 L854.95 573.13 L853.92 569.24 L858.36 566.39 L859.02 562.81 L858.80 559.08 L862.14 555.91 L865.19 552.65 L865.68 548.99 L866.45 545.37 L861.97 541.15 L862.96 537.59 L864.61 534.07 L857.90 529.84 L862.32 526.56 L860.06 522.78 L857.85 519.05 L860.32 515.57 L860.40 511.96 L860.18 508.35 L862.16 504.78 L865.53 501.16 L862.92 497.53 L862.22 493.91 L864.88 490.21 L861.23 486.70 L857.41 483.26 L860.77 479.48 L862.63 475.73 L856.43 472.57 L855.58 469.05 L856.64 465.36 L855.34 461.90 L855.26 458.31 L854.77 454.77 L857.88 450.73 L858.82 446.94 L857.78 443.43 L853.52 440.47 L853.46 436.84 L854.93 432.91 L846.69 430.87 L850.05 426.55 L849.61 422.99 L845.04 420.37 L844.75 416.80 L844.62 413.17 L844.68 409.48 L843.85 406.01 L846.17 401.65 L847.33 397.56 L847.15 393.83 L842.46 391.50 L839.97 388.54 L840.87 384.46 L831.16 384.04 L831.38 380.23 L832.46 376.07 L826.21 374.67 L824.84 371.45 L826.25 367.11 L825.70 363.52 L823.32 360.70 L820.51 358.09 L822.64 353.27 L821.50 349.89 L814.67 349.23 L815.22 345.07 L817.35 340.07 L809.09 340.34 L809.72 336.06 L811.96 330.86 L804.87 330.74 L803.22 327.67 L804.56 322.85 L803.60 319.32 L797.13 319.13 L798.15 314.39 L799.02 309.68 L791.14 310.58 L792.55 305.47 L792.82 301.04 L786.79 300.91 L787.75 295.95 L789.52 290.31 L783.46 290.35 L779.16 289.18 L776.53 286.79 L775.79 282.93 L772.53 281.05 L768.97 279.44 L769.46 274.50 L768.46 270.73 L765.90 268.28 L763.28 265.89 L758.64 265.35 L758.03 261.15 L752.27 261.76 L749.02 260.07 L750.22 254.04 L742.61 256.70 L739.66 254.81 L740.09 249.40 L737.45 247.14 L734.04 245.73 L733.94 240.67 L733.17 236.27 L730.53 233.94 L727.28 232.34 L722.47 232.62 L721.17 228.71 L715.74 229.90 L711.40 229.84 L711.91 223.54 L705.01 226.92 L701.58 225.83 L701.74 219.78 L698.75 218.03 L694.40 218.26 L693.53 213.44 L692.20 209.18 L688.93 207.81 L685.78 206.28 L682.32 205.26 L679.28 203.60 L675.71 202.82 L670.98 204.12 L669.61 199.59 L664.20 202.25 L660.07 202.75 L658.73 198.06 L655.74 196.40 L652.47 195.31 L650.89 190.78 L649.10 186.53 L644.32 188.59 L641.65 186.17 L639.69 182.07 L634.31 185.82 L630.36 186.43 L629.10 180.47 L625.71 179.67 L620.31 184.20 L617.69 181.53 L615.09 178.73 L611.35 179.10 L607.97 178.50 L605.39 175.44 L603.20 171.03 L600.24 168.89 L596.73 168.58 L592.05 172.46 L589.10 170.37 L585.89 169.12 L580.69 175.88 L578.33 171.34 L574.81 171.61 L570.81 174.13 L567.76 172.44 L564.41 172.13 L561.10 171.67 L557.83 171.00 L554.92 168.12 L551.81 166.17 L548.56 165.05 L544.74 168.07 L541.45 167.36 L538.47 163.96 L534.28 171.53 L531.30 167.91 L528.05 166.76 L524.37 171.20 L521.15 169.81 L517.94 168.02 L514.62 167.78 L511.28 168.22 L507.95 168.63 L504.67 165.93 L501.33 166.65 L498.02 170.66 L494.68 167.78 L491.27 164.70 L488.02 167.54 L484.80 169.82 L481.38 168.00 L478.21 170.43 L475.18 174.07 L471.79 172.85 L468.34 171.29 L465.06 171.66 L461.43 169.07 L457.93 167.89 L454.48 167.42 L451.31 168.92 L447.94 169.05 L444.55 169.10 L441.74 172.46 L438.68 174.15 L434.85 171.93 L432.70 177.96 L429.64 179.39 L425.29 175.10 L422.43 177.47 L419.61 179.86 L416.06 179.31 L411.98 176.95 L409.46 180.34 L406.82 183.15 L403.76 184.43 L399.66 182.41 L398.94 190.92 L395.80 191.80 L391.53 189.44 L390.76 196.99 L387.98 198.76 L383.47 195.98 L380.39 197.03 L377.57 198.75 L372.81 195.80 L370.06 197.75 L367.39 199.85 L363.59 199.40 L361.63 203.03 L358.34 203.74 L355.60 205.61 L353.44 208.61 L349.52 208.13 L347.38 211.11 L345.18 213.91 L340.74 212.60 L339.47 217.02 L336.50 218.39 L334.96 222.16 L333.92 226.67 L331.48 228.81 L327.75 228.89 L326.84 233.39 L321.55 231.18 L319.71 234.21 L317.93 237.28 L311.91 234.30 L313.44 241.98 L311.52 244.73 L306.18 242.92 L303.67 244.94 L301.89 247.88 L296.74 246.59 L292.46 246.49 L290.10 248.78 L288.14 251.52 L285.55 253.51 L285.97 258.91 L283.01 260.45 L279.18 261.07 L278.59 265.18 L274.37 265.45 L272.94 268.64 L270.96 271.25 L266.35 271.26 L266.62 276.05 L263.21 277.28 L260.31 279.04 L260.25 283.37 L256.60 284.45 L259.66 291.41 L257.80 294.01 L255.00 295.82 L256.83 301.43 L251.57 301.24 L252.75 306.20 L252.57 310.03 L248.66 310.99 L246.89 313.60 L244.58 315.80 L240.79 316.99 L236.81 318.09 L236.06 321.45 L236.90 325.82 L234.99 328.35 L237.28 333.53 L236.60 336.77 L234.86 339.34 L233.92 342.39 L229.27 343.27 L229.21 346.83 L225.98 348.60 L223.31 350.71 L225.56 355.45 L225.28 358.80 L221.46 360.34 L222.30 364.22 L221.30 367.16 L219.20 369.59 L218.75 372.78 L216.42 375.13 L219.31 379.74 L216.58 381.91 L211.95 383.35 L211.28 386.43 L206.93 388.09 L203.18 390.04 L206.36 394.55 L207.71 398.32 L205.72 400.91 L206.38 404.40 L206.80 407.77 L203.29 409.91 L199.75 412.11 L202.78 416.21 L203.38 419.57 L201.53 422.27 L201.98 425.56 L201.93 428.70 L197.84 430.91 L194.14 433.28 L197.38 437.15 L198.19 440.46 L195.30 443.05 L196.54 446.42 L197.34 449.67 L192.87 452.08 L189.62 454.75 L188.97 457.82 L191.48 461.30 L192.65 464.57 L189.98 467.40 L193.09 470.82 L192.43 473.86 L189.04 476.70 L192.73 480.07 L194.67 483.26 L194.18 486.30 L195.64 489.41 L198.34 492.52 L198.34 495.54 L192.59 498.53 L197.51 501.58 L199.87 504.57 L196.83 507.65 L196.38 510.70 L196.33 513.74 L194.41 516.89 L195.15 519.91 L195.68 522.94 L193.91 526.15 L202.51 528.41 L204.25 531.23 L200.20 534.70 L202.22 537.48 L205.79 540.03 L198.61 544.08 L200.08 546.93 L202.84 549.55 L197.03 553.64 L197.94 556.60 L199.82 559.36 L198.04 562.85 L201.47 565.26 L204.98 567.59 L206.76 570.28 L209.28 572.76 L209.68 575.75 L210.25 578.70 L211.20 581.55 L207.88 585.66 L210.93 587.91 L216.98 589.17 L213.32 593.49 L212.41 596.97 L214.47 599.47 L215.32 602.38 L217.49 604.80 L216.12 608.55 L223.04 609.09 L222.19 612.65 L220.08 616.78 L222.86 618.88 L226.31 620.66 L224.21 624.89 L227.51 626.69 L236.25 625.86 L234.15 630.14 L233.66 633.69 L236.98 635.34 L236.38 639.00 L237.61 641.72 L241.20 643.14 L244.59 644.62 L246.22 647.07 L247.79 649.55 L249.94 651.67 L252.59 653.47 L251.37 657.70 L251.16 661.34 L258.60 659.96 L257.00 664.55 L255.08 669.45 L258.53 670.65 L263.01 671.07 L262.31 675.21 L266.42 675.81 L273.39 674.15 L273.50 677.69 L277.21 678.41 L279.83 679.95 L279.67 683.79 L282.53 685.13 L283.95 687.67 L285.10 690.48 L285.88 693.64 L286.96 696.57 L290.17 697.53 L292.04 699.73 L293.27 702.56 L295.73 704.20 L298.04 705.97 L301.23 706.82 L302.73 709.41 L305.58 710.55 L307.56 712.64 L309.76 714.49 L313.48 714.57 L315.79 716.25 L318.67 717.23 L321.52 718.21 L324.11 719.49 L326.34 721.20 L328.19 723.41 L329.80 725.95 L330.96 729.15 L332.38 732.05 L334.46 734.06 L335.88 737.04 L338.17 738.81 L340.77 740.10 L345.10 738.72 L348.75 738.29 L351.34 739.46 L354.21 740.16 L356.80 741.31 L359.01 743.10 L361.26 744.81 L363.19 747.15 L365.40 749.00 L368.44 749.29 L371.03 750.43 L373.68 751.44 L376.30 752.47 L378.68 754.01 L382.42 752.66 L385.34 752.96 L387.69 754.51 L390.41 755.22 L393.44 755.17 L396.55 754.86 L398.94 756.32 L401.92 756.24 L404.48 757.21 L407.36 757.32 L409.22 760.29 L411.25 762.90 L413.70 764.33 L416.05 766.12 L419.09 765.73 L422.01 765.63 L424.32 767.66 L427.06 768.15 L430.13 767.42 L432.33 770.00 L435.36 769.30 L438.45 768.21 L441.00 769.43 L443.81 769.49 L446.78 768.64 L449.77 767.58 L452.33 768.71 L454.77 770.67 L458.00 767.79 L460.74 767.76 L463.43 768.07 L466.15 768.16 L468.97 767.28 L471.53 768.66 L473.71 774.24 L476.18 777.62 L478.81 779.80 L481.63 779.73 L484.30 782.28 L487.26 779.34 L490.19 775.59 L492.95 775.65 L495.74 773.55 L498.49 770.72 L501.20 772.16 L503.97 774.91 L506.69 773.98 L509.45 774.41 L512.19 774.25 L514.86 772.71 L517.58 772.56 L520.14 770.16 L522.63 767.37 L525.27 766.84 L527.86 765.81 L530.33 763.90 L533.00 763.85 L536.10 766.92 L538.75 766.43 L540.88 762.62 L543.42 761.70 L546.30 762.73 L549.32 764.41 L552.25 765.35 L555.92 769.73 L559.03 771.04 L562.07 771.91 L564.35 769.45 L565.54 762.79 L567.84 760.84 L569.64 757.18 L571.50 753.97 L574.48 754.76 L576.97 753.84 L579.64 753.49 L583.32 756.20 L585.78 755.07 L587.87 752.87 L591.07 753.87 L592.99 751.29 L594.31 747.24 L596.87 746.51 L599.36 745.61 L602.20 745.53 L604.35 743.79 L606.58 742.27 L608.96 741.11 L610.67 738.52 L612.46 736.16 L614.47 734.31 L616.77 733.08 L619.38 732.47 L621.94 731.72 L624.62 731.17 L627.75 731.40 L630.07 730.13 L632.94 729.82 L636.11 729.96 L637.38 726.90 L638.15 723.11 L639.76 720.75 L641.96 719.33 L643.17 716.43 L645.38 715.06 L648.27 714.68 L650.61 713.48 L653.69 713.28 L656.20 712.26 L658.08 710.37 L660.66 709.41 L661.85 706.65 L663.21 704.15 L664.77 701.92 L664.69 697.75 L666.15 695.50 L667.32 692.93 L669.35 691.37 L670.99 689.37 L672.66 687.43 L674.72 685.89 L677.55 685.16 L678.82 682.78 L680.52 680.87 L684.00 680.70 L685.29 678.37 L687.44 676.86 L689.21 674.99 L689.75 672.00 L691.98 670.56 L694.59 669.43 L695.16 666.52 L696.72 664.48 L699.09 663.10 L699.34 660.00 L699.53 656.91 L702.32 655.85 L703.24 653.35 L704.64 651.21 L705.00 648.33 L707.14 646.75 L709.21 645.09 L708.06 641.24 L708.81 638.72 L709.71 636.31 L711.16 634.27 L711.70 631.66 L714.27 630.30 L719.11 630.26 L721.93 628.95 L724.12 627.25 L727.87 626.38 L727.41 623.17 L726.24 619.62 L727.78 617.54 L727.71 614.63 L725.36 610.64 L727.40 608.83 L730.64 607.56 L732.75 605.72 L734.91 603.88 L735.16 601.19 L735.95 598.75 L737.57 596.65 L736.43 593.44 L736.18 590.62 L737.71 588.49 L738.28 586.00 L736.21 582.59 L733.95 579.19 L734.16 576.66 L736.02 574.66 L733.95 571.44 L733.00 568.61 L736.23 567.00 L737.68 564.85 L738.16 562.43 L740.57 560.50 L744.87 558.98 L747.57 557.02 L748.83 554.70 L750.55 552.45 L751.40 550.01 L750.85 547.30 L751.11 544.75 L751.85 542.29 L750.07 539.43 L750.55 536.94 L750.34 534.35 L750.14 531.78 L750.42 529.27 L750.00 526.69 L749.83 524.15 L750.19 521.66 L750.00 519.13 L750.02 516.62 L750.65 514.14 L751.44 511.67 L751.31 509.14 L752.52 506.66 L752.80 504.14 L752.45 501.61 L753.25 499.08 L752.03 496.56 L751.70 494.05 L752.65 491.50 L750.80 489.05 L750.31 486.56 L750.29 484.05 L744.29 481.98 L742.74 479.65 L746.16 476.88 L741.50 474.88 L742.95 472.27 L746.17 469.41 L747.49 466.73 L746.72 464.32 L745.88 461.93 L745.57 459.45 L744.77 457.07 L743.84 454.71 L743.21 452.31 L742.54 449.92 L742.10 447.48 L741.53 445.07 L741.12 442.62 L741.07 440.08 L741.06 437.51 L739.76 435.29 L739.40 432.81 L738.27 430.55 L737.24 428.27 L735.63 426.17 L734.50 423.94 L733.78 421.58 L731.81 419.66 L730.55 417.50 L729.83 415.16 L725.82 414.06 L726.14 411.34 L726.20 408.70 L723.09 407.35 L723.21 404.67 L723.49 401.90 L722.26 399.78 L720.54 397.89 L719.39 395.74 L718.30 393.57 L717.06 391.48 L715.84 389.37 L714.44 387.37 L713.16 385.31 L712.05 383.16 L710.76 381.10 L709.33 379.14 L708.59 376.76 L707.01 374.89 L705.68 372.87 L704.57 370.71 L702.87 368.93 L701.26 367.10 L700.26 364.86 L699.13 362.70 L697.06 361.20 L695.10 359.65 L692.73 358.41 L685.09 361.15 L686.18 357.39 L684.39 355.82 L680.49 355.93 L682.06 351.68 L682.76 348.04 L681.22 346.23 L679.23 344.81 L677.70 343.00 L675.96 341.38 L674.05 339.91 L672.51 338.11 L670.58 336.69 L668.81 335.12 L667.06 333.53 L665.79 331.46 L664.46 329.43 L662.95 327.58 L661.49 325.67 L660.25 323.50 L658.19 322.23 L656.43 320.62 L654.46 319.26 L652.55 317.85 L650.75 316.29 L648.17 315.71 L645.96 314.69 L644.07 313.28 L640.07 314.66 L637.29 314.51 L634.93 313.84 L632.57 313.18 L629.75 313.23 L626.83 313.48 L627.57 308.30 L625.65 307.03 L623.34 306.36 L622.48 303.41 L619.78 303.39 L617.08 303.41 L614.50 303.30 L611.95 303.19 L610.48 301.17 L608.32 300.38 L605.82 300.25 L605.53 295.89 L602.82 296.16 L598.03 300.73 L598.20 295.23 L596.88 292.69 L594.20 293.06 L592.94 290.29 L590.70 289.69 L587.78 290.73 L585.00 291.53 L582.76 291.07 L580.52 290.64 L578.47 289.72 L576.12 289.63 L575.18 285.54 L572.95 285.04 L568.88 290.15 L568.28 284.74 L566.86 281.67 L563.88 283.71 L562.29 281.06 L560.33 279.59 L557.08 282.96 L554.30 284.81 L552.21 284.00 L550.22 282.74 L547.97 282.59 L545.38 284.10 L544.06 279.42 L542.17 277.33 L538.50 284.98 L537.04 280.48 L535.42 276.48 L532.78 278.88 L530.80 276.89 L528.77 274.99 L526.08 278.44 L523.48 281.73 L521.38 280.64 L519.21 280.19 L517.01 280.05 L514.68 281.74 L512.71 277.96 L510.56 276.18 L508.05 283.51 L505.96 280.76 L503.81 278.25 L501.57 280.27 L499.37 278.70 L497.14 277.07 L495.01 281.28 L492.88 283.18 L490.65 281.95 L488.52 282.95 L486.39 283.72 L484.27 284.45 L481.89 281.89 L479.46 279.36 L478.10 287.76 L475.68 285.38 L472.99 281.21 L471.20 284.47 L468.83 283.29 L466.23 280.74 L464.80 285.73 L463.05 288.32 L460.69 287.40 L458.79 288.97 L456.82 290.06 L455.10 292.22 L452.50 290.38 L449.50 287.03 L449.26 295.16 L446.71 293.73 L443.50 290.00 L442.13 293.17 L439.53 291.93 L436.70 290.05 L435.96 295.05 L434.42 297.25 L431.94 296.56 L430.44 298.77 L428.77 300.44 L427.01 301.80 L424.40 300.86 L421.16 298.44 L421.75 305.68 L419.81 306.48 L416.11 303.15 L414.61 305.04 L412.26 305.01 L409.38 303.88 L409.06 308.25 L407.71 310.32 L405.48 310.57 L404.41 313.13 L402.73 314.45 L400.72 315.14 L398.39 315.24 L395.27 314.00 L395.99 319.53 L394.91 321.80 L391.32 319.85 L389.91 321.58 L387.91 322.33 L385.23 322.06 L384.86 325.34 L384.03 327.86 L382.38 329.12 L381.54 331.53 L379.49 332.20 L377.92 333.56 L376.52 335.13 L372.47 333.22 L372.88 337.17 L373.99 341.87 L368.86 338.77 L366.63 339.33 L365.53 341.27 L362.63 341.09 L362.00 343.55 L362.07 346.75 L361.24 348.90 L360.80 351.42 L359.47 352.98 L357.54 353.91 L356.37 355.63 L352.02 354.21 L352.24 357.31 L354.19 361.98 L349.89 360.73 L347.67 361.47 L347.41 364.00 L344.53 364.20 L343.82 366.31 L344.27 369.37 L344.22 371.96 L343.65 374.09 L341.87 375.25 L340.55 376.77 L340.16 379.00 L335.90 378.34 L335.53 380.59 L339.38 385.83 L335.25 385.35 L332.37 385.82 L333.16 388.78 L330.23 389.26 L328.12 390.32 L329.94 393.86 L330.33 396.45 L328.45 397.64 L326.68 398.93 L326.17 400.94 L325.79 403.02 L321.62 403.02 L320.70 404.83 L326.01 409.87 L322.57 410.33 L319.88 411.21 L320.21 413.60 L317.45 414.51 L316.04 416.09 L318.16 419.24 L319.37 421.93 L317.66 423.35 L317.59 425.45 L317.64 427.59 L317.56 429.67 L313.67 430.30 L311.21 431.52 L318.53 436.22 L314.22 436.79 L309.69 437.36 L311.94 440.18 L309.23 441.41 L306.86 442.79 L310.79 446.01 L312.63 448.55 L311.37 450.23 L312.06 452.42 L312.04 454.41 L313.26 456.68 L310.28 457.98 L307.08 459.29 L314.49 462.79 L311.92 464.22 L307.81 465.43 L309.58 467.71 L307.13 469.28 L305.36 470.99 L308.61 473.43 L310.01 475.55 L308.49 477.30 L308.98 479.30 L309.46 481.27 L310.58 483.29 L307.33 484.95 L303.82 486.65 L311.61 489.07 L309.32 490.85 L304.89 492.59 L306.89 494.60 L305.91 496.51 L303.80 498.44 L307.82 500.39 L309.82 502.29 L309.37 504.20 L311.51 506.04 L311.75 507.92 L312.21 509.78 L310.79 511.75 L307.78 513.87 L314.23 515.27 L313.80 517.19 L310.52 519.40 L312.44 521.10 L311.31 523.14 L309.63 525.28 L313.55 526.66 L315.36 528.29 L315.08 530.23 L316.71 531.85 L316.86 533.71 L317.95 535.40 L317.46 537.39 L313.97 540.05 L319.68 540.71 L321.78 542.11 L317.23 545.12 L318.64 546.70 L319.34 548.45 L317.29 550.97 L320.24 552.09 L323.01 553.21 L322.77 555.22 L325.25 556.37 L326.84 557.77 L326.54 559.81 L326.59 561.74 L324.20 564.58 L328.94 564.79 L331.76 565.65 L328.63 568.85 L329.87 570.34 L330.36 572.13 L329.00 574.74 L331.68 575.58 L333.79 576.64 L334.89 578.14 L337.16 579.07 L337.65 580.85 L338.70 582.35 L339.92 583.76 L337.62 587.04 L341.02 587.27 L346.26 586.41 L342.86 590.40 L343.32 592.23 L344.53 593.62 L343.23 596.56 L345.39 597.37 L348.08 597.81 L349.97 598.73 L351.46 599.90 L351.97 601.72 L353.35 602.94 L354.81 604.10 L352.72 607.85 L354.95 608.46 L360.31 606.64 L359.16 609.77 L358.74 612.39 L360.48 613.30 L360.90 615.28 L362.16 616.58 L365.07 616.46 L367.65 616.56 L368.85 617.85 L369.95 619.23 L370.78 620.87 L372.88 621.32 L371.00 625.59 L372.17 626.97 L379.00 622.62 L377.49 626.66 L376.57 630.19 L379.76 629.39 L379.47 632.34 L380.21 634.19 L383.78 632.85 L386.74 632.10 L388.31 632.93 L389.97 633.65 L391.51 634.50 L393.91 634.25 L393.09 638.11 L393.37 640.63 L399.31 635.59 L398.39 639.73 L398.22 642.94 L401.05 641.95 L401.16 644.85 L402.01 646.74 L405.22 645.06 L407.72 644.36 L408.48 646.37 L409.96 647.28 L412.00 647.22 L414.32 646.65 L413.61 651.31 L414.37 653.54 L419.84 647.17 L419.50 651.37 L419.08 655.90 L421.72 654.58 L422.47 656.97 L423.59 658.69 L427.00 655.57 L429.52 654.18 L431.10 654.81 L433.26 654.07 L434.95 654.39 L436.70 654.55 L437.25 657.68 L437.85 660.84 L441.97 654.75 L442.89 657.05 L443.27 661.01 L445.67 659.26 L446.65 661.67 L447.64 664.15 L450.62 660.34 L452.58 659.62 L453.89 661.11 L455.85 660.28 L457.62 660.10 L459.36 660.00 L460.53 662.17 L461.42 665.70 L464.56 659.39 L466.23 659.39 L466.81 664.76 L468.79 663.38 L470.33 664.20 L471.60 666.69 L473.77 663.82 L475.73 661.96 L477.26 662.85 L479.06 661.75 L480.80 660.88 L482.36 661.54 L483.80 663.50 L485.22 666.06 L487.34 660.43 L488.94 660.64 L490.30 664.91 L491.99 664.12 L493.61 664.85 L495.20 666.80 L496.92 664.23 L498.58 662.36 L500.20 662.21 L501.81 660.61 L503.41 660.51 L505.00 659.89 L506.62 660.46 L508.40 663.78 L509.78 659.46 L511.25 657.69 L513.17 661.79 L514.84 662.20 L516.53 662.71 L518.40 664.74 L519.68 661.52 L521.04 659.40 L522.54 658.53 L523.73 655.72 L525.26 655.32 L526.88 655.46 L528.37 654.82 L530.65 658.29 L531.61 654.97 L532.42 651.20 L534.79 654.69 L536.41 654.65 L537.99 654.42 L539.86 655.32 L541.15 653.90 L542.12 651.47 L543.31 649.92 L544.58 648.72 L546.13 648.48 L547.76 648.48 L548.81 646.67 L551.27 649.07 L552.35 647.40 L552.10 642.18 L554.88 645.26 L557.05 646.55 L557.94 644.54 L560.41 646.45 L561.61 645.22 L561.79 641.68 L562.65 639.82 L563.95 639.00 L565.15 637.94 L566.59 637.43 L567.60 636.01 L570.41 638.19 L571.59 637.09 L569.76 630.39 L572.98 633.19 L575.32 634.26 L575.88 632.15 L578.27 633.20 L579.79 632.73 L579.51 629.33 L579.89 627.07 L581.28 626.47 L582.73 625.94 L583.91 624.99 L584.13 622.65 L587.72 625.18 L590.02 625.77 L586.49 618.31 L590.14 620.76 L593.93 623.24 L593.72 620.44 L596.23 621.15 L597.93 620.79 L596.34 616.43 L595.69 613.32 L597.01 612.58 L597.25 610.60 L595.80 606.79 L598.30 607.39 L598.34 605.30 L596.78 601.57 L595.63 598.38 L593.35 594.13 L594.17 593.08 L593.80 590.87 L592.48 587.82 L593.52 587.05 L592.71 584.58 L592.45 582.66 L592.69 581.23 L592.39 579.34 L592.84 578.12 L592.89 576.60 L593.01 575.15 L593.51 574.02 L593.70 572.65 L594.03 571.41 L594.55 570.33 L594.93 569.15 L595.34 568.00 L595.81 566.90 L596.19 565.75 L596.55 564.58 L596.86 563.40 L597.27 562.29 L597.61 561.14 L598.05 560.05 L598.42 558.94 L598.74 557.80 L599.06 556.66 L599.36 555.52 L599.65 554.38 L599.84 553.20 L600.24 552.13 L600.44 550.96 L600.68 549.82 L601.00 548.73 L601.22 547.60 L601.48 546.49 L601.67 545.35 L601.91 544.24 L602.10 543.11 L602.22 541.97 L602.38 540.84 L602.45 539.69 L602.58 538.56 L602.68 537.43 L602.81 536.31 L602.87 535.19 L602.97 534.07 L603.06 532.96 L603.07 531.83 L603.13 530.72 L603.14 529.61 L603.18 528.51 L603.17 527.40 L603.18 526.30 L603.14 525.19 L603.08 524.09 L603.02 522.99 L602.94 521.89 L602.88 520.81 L602.78 519.72 L602.67 518.64 L602.58 517.56 L602.46 516.49 L602.34 515.42 L602.19 514.35 L602.02 513.29 L601.85 512.23 L601.68 511.18 L601.46 510.13 L601.23 509.09 L601.02 508.05 L600.81 507.02 L600.54 506.00 L600.28 504.97 L600.02 503.96 L599.71 502.95 L599.40 501.94 L599.08 500.95 Z"/>
  <svg class="pausebutton" id="pausebutton">
    <circle cx="500" cy="500" id="pausestart" class="pausestart" r="52.65"/>
    <rect height="50.02" width="10.00" y="473.68" rx="2.00" ry="2.00" x="479.99" class="pausesymbol"/>
    <rect height="50.02" width="10.00" y="473.68" rx="2.00" ry="2.00" x="510.00" class="pausesymbol"/>
    <polygon points="530.01,500 479.99,530.01 479.99,469.99" class="playsymbol"/>
  </svg>
  <polygon id="playback-head" class="playback-head" points="941.65,500 921.65,540 961.65,540"/>
</svg>