<?xml-stylesheet href="../../style/waveformjs.css" type="text/css"?>
<svg xmlns="http://www.w3.org/2000/svg" xmlns:xlink="http://www.w3.org/1999/xlink" width="100%" height="100%" viewBox="0 0 1000 1000">
  <path class="svg-wave" id="sp" d="M591.49 500.00 L591.76 500.92 L591.99 501.84 L592.22 502.77 L592.45 503.70 L592.64 504.64 L592.87 505.58 L593.04 506.52 L593.25 507.48 L593.41 508.43 L593.57 509.39 L593.73 510.35 L593.85 511.32 L594.02 512.29 L594.12 513.26 L594.24 514.24 L594.34 515.22 L594.41 516.21 L594.51 517.20 L594.55 518.18 L594.62 519.18 L594.62 520.17 L594.61 521.16 L594.57 522.14 L594.49 523.12 L594.36 524.10 L594.20 525.06 L593.99 526.01 L593.74 526.96 L593.41 527.87 L592.99 528.77 L592.59 529.66 L592.15 530.54 L591.89 531.47 L591.41 532.33 L590.65 533.09 L589.53 533.70 L587.87 534.08 L585.99 534.35 L582.40 533.87 L576.96 532.54 L569.74 530.31 L563.39 528.31 L559.44 527.26 L556.14 526.43 L555.92 527.01 L556.69 528.09 L554.91 527.89 L554.99 528.63 L556.68 530.23 L555.11 530.11 L556.02 531.33 L559.73 534.20 L558.75 534.42 L558.59 535.12 L561.60 537.77 L558.64 536.77 L563.16 540.48 L563.65 541.70 L562.12 541.59 L560.81 541.60 L555.16 538.55 L556.60 540.41 L553.81 539.23 L557.48 542.79 L553.87 540.95 L556.06 543.51 L557.53 545.58 L556.17 545.42 L556.44 546.58 L553.30 544.90 L548.57 541.75 L548.52 542.55 L549.00 543.85 L550.87 546.44 L552.51 548.92 L550.26 547.77 L549.39 547.90 L549.08 548.55 L547.79 548.24 L548.34 549.77 L550.92 553.49 L548.96 552.47 L552.02 556.88 L551.94 557.95 L550.86 557.89 L550.65 558.83 L546.63 555.27 L549.12 559.42 L546.14 556.97 L551.27 564.61 L547.17 560.68 L547.80 562.78 L546.02 561.71 L544.71 561.21 L544.41 562.10 L545.49 564.97 L543.98 564.18 L543.86 565.39 L543.23 565.87 L542.06 565.51 L541.21 565.62 L539.57 564.42 L538.31 563.79 L538.65 565.84 L537.46 565.31 L537.14 566.28 L539.57 572.30 L537.12 569.47 L539.58 575.88 L538.89 576.42 L537.56 575.65 L536.66 575.73 L533.93 571.92 L534.43 574.91 L532.74 573.15 L532.52 574.66 L531.01 573.18 L529.23 570.95 L528.65 571.56 L528.04 572.13 L528.53 575.60 L528.80 578.71 L528.37 579.98 L527.88 581.18 L525.97 578.14 L525.97 580.84 L524.00 577.38 L523.67 579.08 L523.47 581.39 L521.86 578.76 L521.52 580.64 L521.57 584.21 L521.13 586.03 L521.81 592.83 L521.05 593.77 L519.61 591.66 L518.30 589.91 L516.00 582.85 L515.99 587.48 L514.56 584.40 L514.05 586.61 L513.09 586.16 L511.89 583.90 L511.09 584.31 L509.85 581.15 L509.16 582.33 L508.57 584.72 L507.83 585.99 L507.39 591.25 L506.82 596.13 L505.65 592.74 L504.97 597.74 L503.89 595.31 L502.98 596.73 L502.08 599.79 L501.03 595.24 L500.08 598.25 L499.13 595.05 L498.16 595.78 L497.12 598.72 L496.14 598.42 L495.21 597.27 L494.30 596.21 L493.45 594.51 L492.40 595.72 L491.33 596.98 L490.32 597.24 L489.58 595.06 L488.08 599.50 L487.37 597.21 L486.05 599.57 L484.45 603.47 L484.26 598.03 L481.88 606.06 L481.23 603.64 L479.98 604.55 L478.08 608.58 L477.92 604.02 L476.53 605.33 L475.41 605.38 L475.41 600.82 L474.44 600.43 L473.43 600.18 L473.17 597.25 L471.77 598.46 L470.73 598.37 L469.78 597.97 L469.08 596.81 L467.76 597.54 L466.81 597.15 L463.74 602.77 L463.86 599.24 L463.40 597.47 L463.20 595.11 L462.86 593.20 L458.46 601.28 L456.74 602.54 L453.11 608.11 L454.00 603.23 L454.70 598.99 L455.50 594.72 L454.81 593.73 L453.39 594.27 L452.02 594.64 L448.98 598.20 L448.94 595.91 L445.59 599.79 L446.63 595.60 L444.85 596.49 L445.79 592.70 L444.56 592.66 L443.28 592.67 L442.17 592.40 L442.83 589.34 L441.97 588.73 L441.46 587.59 L440.84 586.62 L438.38 588.31 L438.92 585.69 L434.89 589.45 L433.57 589.37 L431.38 590.41 L430.01 590.34 L430.34 588.07 L427.44 589.87 L426.80 588.83 L424.15 590.19 L421.65 591.31 L423.75 587.08 L420.77 588.68 L419.37 588.45 L420.76 585.19 L417.43 587.01 L420.10 582.53 L419.21 581.80 L421.14 578.27 L419.62 578.19 L420.17 576.12 L418.63 576.04 L419.65 573.60 L415.20 576.13 L416.14 573.79 L412.75 575.24 L414.88 571.93 L413.49 571.63 L415.07 568.91 L415.00 567.56 L414.43 566.63 L412.56 566.70 L412.62 565.28 L408.96 566.60 L408.96 565.22 L408.43 564.22 L406.31 564.32 L407.00 562.48 L404.87 562.54 L403.18 562.27 L403.30 560.84 L402.16 560.20 L399.61 560.39 L404.17 556.35 L400.65 557.09 L401.63 555.23 L400.67 554.47 L399.46 553.83 L396.34 554.18 L397.07 552.49 L393.45 553.00 L393.31 551.75 L392.82 550.67 L388.80 551.22 L389.66 549.49 L385.32 550.06 L382.91 549.72 L385.50 547.28 L383.05 546.93 L385.59 544.59 L385.39 543.35 L379.39 544.24 L379.43 542.87 L374.03 543.37 L377.78 540.72 L381.28 538.24 L382.03 536.70 L384.32 534.72 L382.99 533.85 L380.56 533.26 L380.62 531.96 L379.66 530.93 L380.59 529.42 L380.70 528.13 L378.30 527.42 L379.36 525.91 L377.50 525.04 L380.85 523.11 L381.01 521.85 L381.56 520.53 L378.07 519.88 L373.33 519.35 L370.36 518.48 L369.82 517.23 L370.88 515.78 L373.29 514.20 L366.64 513.59 L369.91 511.95 L362.03 511.28 L369.35 509.37 L370.78 507.97 L371.80 506.62 L374.10 505.24 L373.33 504.00 L373.61 502.73 L372.69 501.48 L372.84 500.20 L372.82 498.93 L370.99 497.63 L371.52 496.35 L368.09 494.93 L370.33 493.72 L368.79 492.33 L367.29 490.91 L367.91 489.62 L361.67 487.74 L357.08 485.89 L356.30 484.36 L348.90 482.02 L352.37 480.94 L354.37 479.71 L357.65 478.72 L361.91 477.94 L365.29 477.10 L362.84 475.27 L368.04 474.84 L367.35 473.33 L365.96 471.65 L370.83 471.33 L366.28 468.91 L367.02 467.68 L366.02 466.02 L366.88 464.81 L368.47 463.82 L368.95 462.54 L370.46 461.57 L367.82 459.34 L372.37 459.34 L371.54 457.66 L375.19 457.47 L371.44 454.75 L367.79 451.98 L364.82 449.36 L365.56 448.10 L367.65 447.38 L372.67 447.90 L369.69 445.15 L372.95 445.02 L371.10 442.68 L370.45 440.83 L374.09 440.97 L374.67 439.70 L375.04 438.34 L380.28 439.42 L377.33 436.38 L377.31 434.81 L377.50 433.33 L378.42 432.25 L376.30 429.44 L376.41 427.85 L371.82 423.44 L372.97 422.39 L374.87 421.83 L373.55 419.23 L378.24 420.50 L373.75 415.76 L374.53 414.46 L377.57 414.72 L377.16 412.60 L380.94 413.48 L382.25 412.62 L382.15 410.70 L385.31 411.28 L384.07 408.45 L383.96 406.47 L387.08 407.11 L386.43 404.65 L385.84 402.19 L387.90 402.00 L383.87 396.41 L385.43 395.72 L386.93 395.00 L390.76 396.50 L390.40 394.06 L393.89 395.36 L389.92 389.26 L392.96 390.14 L395.20 390.26 L395.63 388.50 L399.15 390.08 L399.28 387.99 L399.24 385.66 L402.73 387.38 L403.92 386.48 L405.55 386.12 L407.80 386.54 L407.27 383.53 L410.03 384.64 L411.48 384.14 L410.35 380.19 L413.17 381.51 L413.56 379.53 L413.97 377.53 L417.31 379.74 L415.46 374.39 L416.01 372.47 L417.19 371.48 L418.03 369.94 L419.05 368.67 L420.46 368.02 L419.66 363.62 L421.75 364.09 L423.41 363.84 L424.59 362.74 L427.47 364.81 L427.82 362.16 L428.03 359.16 L430.38 360.32 L429.00 353.90 L430.10 352.45 L432.57 353.89 L432.31 349.38 L435.86 353.39 L437.20 352.46 L437.50 348.97 L439.96 350.72 L441.05 349.09 L440.22 342.32 L443.35 345.96 L442.12 337.62 L444.70 339.80 L447.81 343.76 L450.33 346.21 L453.16 349.87 L454.10 347.51 L456.06 348.54 L457.51 347.89 L459.39 348.80 L460.41 346.49 L462.02 346.39 L462.82 342.89 L464.88 344.69 L466.36 343.98 L468.48 346.39 L469.47 343.25 L470.46 339.82 L471.69 337.40 L473.34 337.27 L475.27 338.96 L477.17 340.72 L478.46 338.26 L480.12 338.35 L481.12 332.74 L483.04 334.94 L484.60 333.79 L486.10 331.64 L488.09 335.72 L489.83 337.20 L491.55 338.93 L493.18 339.13 L494.78 338.75 L496.32 335.49 L497.97 335.95 L499.60 333.08 L501.28 331.75 L503.03 327.77 L504.80 326.12 L506.61 324.35 L508.40 323.62 L509.99 326.72 L511.66 327.74 L513.35 328.38 L514.81 331.42 L516.59 330.56 L518.64 327.45 L520.34 327.82 L522.90 321.49 L524.65 321.99 L526.73 320.21 L528.73 319.24 L530.53 319.56 L531.99 321.78 L533.59 323.05 L534.11 329.62 L537.08 323.98 L538.16 327.40 L541.06 322.75 L542.24 325.60 L543.24 328.94 L544.06 332.78 L545.11 335.48 L546.83 335.66 L549.98 331.03 L551.94 330.65 L554.96 327.02 L555.77 330.34 L556.68 333.23 L557.56 336.04 L558.96 337.28 L561.20 336.23 L563.81 334.31 L566.56 332.19 L568.66 331.82 L570.24 332.76 L571.23 335.04 L572.91 335.68 L574.06 337.50 L574.36 341.07 L575.34 343.08 L576.30 345.08 L576.74 348.03 L580.38 344.70 L582.16 345.07 L583.66 345.99 L588.51 340.87 L590.71 340.68 L595.72 335.74 L596.19 338.65 L596.81 341.25 L596.19 345.76 L595.31 350.52 L597.85 349.87 L599.81 350.15 L600.66 352.11 L601.99 353.33 L604.79 352.47 L606.11 353.73 L611.73 349.18 L615.02 347.95 L617.78 347.49 L620.46 347.21 L620.44 350.34 L621.36 352.24 L620.10 356.72 L621.51 357.95 L621.85 360.40 L623.59 361.23 L626.74 360.52 L625.81 364.30 L629.79 362.79 L629.53 365.78 L632.68 365.24 L633.07 367.52 L634.21 369.03 L633.46 372.34 L633.91 374.45 L633.14 377.65 L635.19 378.24 L637.87 378.30 L640.97 378.05 L643.58 378.28 L645.92 378.79 L647.71 379.77 L650.53 379.96 L653.45 380.12 L658.19 378.94 L659.47 380.48 L661.14 381.72 L660.14 384.90 L656.61 389.80 L659.96 389.82 L658.89 392.88 L661.92 393.18 L661.15 395.98 L661.22 398.21 L662.70 399.53 L664.88 400.45 L666.91 401.49 L668.86 402.60 L670.90 403.69 L672.17 405.23 L672.77 407.14 L673.48 408.98 L675.83 409.98 L676.39 411.91 L679.34 412.66 L683.41 412.94 L679.34 417.06 L684.43 416.93 L683.33 419.63 L686.50 420.45 L690.32 421.06 L690.48 423.21 L688.50 426.20 L686.47 429.13 L686.07 431.41 L687.72 432.92 L689.34 434.47 L690.13 436.32 L687.36 439.33 L686.53 441.65 L686.10 443.82 L688.23 445.22 L687.75 447.39 L690.65 448.63 L689.52 450.96 L690.44 452.75 L692.58 454.26 L695.52 455.62 L697.79 457.18 L697.25 459.36 L701.40 460.60 L699.70 463.00 L706.08 463.95 L705.86 466.11 L708.22 467.85 L708.08 470.00 L708.20 472.11 L708.28 474.21 L706.21 476.56 L704.14 478.86 L703.59 480.97 L701.61 483.19 L703.46 485.08 L704.59 487.06 L706.32 489.02 L712.62 490.81 L714.09 492.89 L716.71 494.97 L715.80 497.15 L710.18 499.33 L708.49 501.42 L710.33 503.54 L710.38 505.64 L713.16 507.85 L712.62 509.96 L710.42 511.97 L711.68 514.16 L709.67 516.14 L713.63 518.59 L713.46 520.73 L714.43 522.99 L716.63 525.42 L717.12 527.68 L716.57 529.82 L716.14 531.96 L711.55 533.45 L714.64 536.14 L710.54 537.62 L711.41 539.96 L707.00 541.28 L706.41 543.31 L704.29 545.00 L707.98 548.00 L709.43 550.54 L710.99 553.16 L711.09 555.44 L709.77 557.34 L709.12 559.41 L711.38 562.34 L711.70 564.75 L714.41 567.93 L713.34 569.95 L709.54 571.03 L706.87 572.44 L702.24 573.09 L700.18 574.62 L701.11 577.27 L700.54 579.36 L703.80 583.01 L702.11 584.69 L704.91 588.28 L703.62 590.16 L706.54 593.93 L704.60 595.53 L699.87 595.76 L700.39 598.49 L695.73 598.64 L699.25 602.93 L698.42 605.02 L698.08 607.40 L697.35 609.56 L696.21 611.51 L696.41 614.24 L696.81 617.12 L695.91 619.26 L697.64 623.04 L695.30 624.30 L693.50 625.90 L693.11 628.41 L687.27 627.24 L687.18 629.94 L686.60 632.32 L683.92 633.20 L687.97 639.02 L683.64 638.68 L681.61 640.02 L681.71 643.02 L677.44 642.56 L681.51 648.83 L678.85 649.67 L674.51 649.03 L673.53 651.22 L669.89 651.07 L671.28 655.40 L670.15 657.50 L668.78 659.40 L665.46 659.42 L661.66 658.90 L660.39 660.85 L657.72 661.36 L656.30 663.14 L655.96 666.08 L655.29 668.72 L654.25 670.99 L655.18 675.51 L652.50 676.00 L650.97 677.80 L651.96 682.64 L647.07 680.40 L648.81 686.30 L644.03 684.06 L641.44 684.53 L638.92 685.04 L635.09 683.74 L635.24 687.85 L632.63 688.17 L631.45 690.51 L632.39 696.04 L630.67 697.72 L630.09 701.19 L629.25 704.35 L626.50 704.50 L626.44 709.05 L624.35 710.31 L622.37 711.77 L620.88 714.10 L619.37 716.45 L617.14 717.52 L613.93 716.73 L611.46 717.28 L608.07 715.97 L604.51 714.17 L604.60 719.92 L600.92 717.77 L600.03 721.63 L597.51 721.92 L594.71 721.54 L593.27 724.36 L590.21 723.28 L588.95 726.66 L585.18 723.60 L581.88 721.56 L579.87 722.97 L577.45 723.22 L576.31 727.25 L574.41 729.14 L571.89 729.17 L569.43 729.34 L566.81 728.92 L564.88 730.83 L563.45 734.77 L561.10 735.37 L558.83 736.34 L556.01 735.01 L554.75 740.35 L552.13 739.89 L550.38 743.57 L548.15 745.09 L545.13 742.54 L542.74 743.18 L540.24 743.21 L537.40 740.99 L534.91 740.80 L532.25 739.25 L530.00 740.71 L527.81 742.93 L525.29 742.35 L523.88 753.31 L521.31 753.12 L519.48 762.86 L516.64 759.65 L513.85 756.40 L511.42 759.48 L508.75 757.47 L506.20 758.29 L503.68 763.41 L501.02 756.78 L498.40 766.02 L495.81 761.84 L493.21 761.00 L490.66 759.08 L488.35 752.92 L485.87 752.02 L482.99 757.26 L480.64 754.15 L477.55 760.36 L475.51 754.23 L472.93 754.40 L469.91 758.16 L467.49 756.57 L464.08 762.43 L462.21 756.96 L459.99 754.34 L457.20 755.44 L454.39 756.46 L451.24 759.09 L448.50 759.35 L446.78 754.65 L443.28 758.46 L441.42 754.75 L438.07 757.51 L434.64 760.27 L432.30 758.63 L428.84 761.16 L426.69 758.83 L425.07 754.81 L422.68 753.52 L421.59 748.19 L418.64 748.84 L416.18 747.93 L415.36 742.33 L412.32 743.19 L411.14 738.95 L406.86 743.01 L404.16 742.74 L398.82 748.97 L397.31 745.60 L395.28 743.59 L391.78 744.94 L390.75 740.74 L386.66 743.27 L382.97 744.76 L380.85 742.91 L376.77 745.01 L375.38 741.71 L374.59 737.39 L370.81 738.74 L369.96 734.67 L364.51 738.84 L363.00 735.97 L361.50 733.15 L360.87 728.96 L360.21 724.95 L356.97 725.12 L354.60 723.87 L350.86 724.67 L348.51 723.33 L346.79 721.08 L342.71 722.19 L342.39 717.98 L338.06 719.31 L338.44 714.29 L336.84 711.96 L333.57 711.80 L331.46 710.12 L326.53 711.89 L318.87 716.80 L316.08 715.71 L308.69 719.89 L311.22 712.64 L309.83 709.95 L310.49 705.06 L307.95 703.68 L304.87 702.84 L304.13 699.57 L302.14 697.62 L301.72 694.11 L302.93 689.10 L297.84 690.14 L299.11 685.20 L296.86 683.55 L296.47 680.24 L295.63 677.37 L288.37 679.99 L289.00 675.85 L284.50 675.97 L287.74 669.82 L289.90 664.68 L284.48 665.47 L286.27 660.72 L281.87 660.64 L278.66 659.62 L278.09 656.68 L267.82 660.48 L266.64 657.86 L263.75 656.40 L260.03 655.44 L261.53 651.10 L254.07 652.40 L254.86 648.54 L254.24 645.58 L255.93 641.30 L258.94 636.35 L256.81 634.37 L251.36 634.15 L252.82 630.19 L244.52 631.31 L247.87 626.42 L245.87 624.26 L240.08 623.89 L242.48 619.59 L232.37 621.05 L237.78 615.46 L233.41 614.22 L235.16 610.35 L234.22 607.63 L229.52 606.40 L229.52 603.29 L231.55 599.45 L226.01 598.40 L229.33 594.16 L224.00 592.93 L220.89 590.88 L221.90 587.48 L217.75 585.70 L219.75 582.04 L217.26 579.71 L221.10 575.62 L220.81 572.71 L220.68 569.77 L223.30 566.18 L223.27 563.27 L223.44 560.33 L223.31 557.46 L216.86 555.86 L216.38 553.01 L209.02 551.38 L213.09 547.71 L213.99 544.63 L207.26 542.68 L207.29 539.69 L194.72 538.29 L194.12 535.26 L195.76 532.00 L198.79 528.63 L206.40 524.95 L207.59 521.91 L206.78 519.02 L205.65 516.14 L196.82 513.58 L199.27 510.46 L201.27 507.40 L205.54 504.35 L211.89 501.38 L212.22 498.50 L209.04 495.57 L211.95 492.73 L210.01 489.78 L213.24 487.02 L213.81 484.18 L209.76 481.04 L208.49 478.03 L203.11 474.64 L206.80 472.00 L208.28 469.19 L211.02 466.56 L213.79 463.97 L211.99 460.82 L210.53 457.67 L211.54 454.86 L213.21 452.18 L212.38 449.08 L211.00 445.85 L206.14 441.89 L202.39 438.05 L200.04 434.43 L203.57 432.09 L204.44 429.17 L211.28 427.75 L214.38 425.48 L215.61 422.75 L214.07 419.26 L211.14 415.30 L209.33 411.60 L211.20 409.01 L213.81 406.68 L215.75 404.15 L219.17 402.17 L219.36 399.08 L222.40 397.02 L222.87 394.03 L220.01 389.72 L220.27 386.58 L217.94 382.33 L220.32 380.03 L221.77 377.34 L222.92 374.52 L221.88 370.69 L222.89 367.77 L219.65 362.76 L219.30 359.10 L220.61 356.24 L223.89 354.42 L225.36 351.66 L229.80 350.55 L232.87 348.74 L228.63 342.73 L235.34 343.07 L232.10 337.50 L237.64 337.26 L241.22 335.87 L241.58 332.45 L245.47 331.33 L245.04 327.35 L249.75 326.87 L253.67 325.91 L256.67 324.36 L260.34 323.34 L260.64 319.83 L262.77 317.69 L263.50 314.47 L264.28 311.24 L259.93 303.78 L262.43 301.83 L255.46 291.84 L258.61 290.32 L258.06 285.56 L262.00 284.76 L265.57 283.69 L268.62 282.18 L274.24 283.17 L276.68 281.18 L279.60 279.68 L283.61 279.32 L285.42 276.74 L289.03 276.05 L291.83 274.55 L294.55 272.99 L296.87 270.99 L298.10 267.73 L301.59 267.08 L301.89 262.67 L303.33 259.55 L302.98 254.14 L305.10 251.74 L307.10 249.17 L308.32 245.53 L309.28 241.47 L311.15 238.57 L309.74 230.98 L314.77 232.46 L314.95 226.92 L320.31 229.04 L324.96 230.23 L329.67 231.65 L334.81 233.91 L336.11 230.01 L338.92 228.56 L339.27 222.88 L342.01 221.22 L344.86 219.74 L346.87 216.73 L351.58 218.75 L352.58 213.75 L356.36 214.09 L360.61 215.50 L362.54 212.19 L365.67 211.35 L366.73 205.98 L368.77 202.61 L370.69 198.85 L373.76 197.70 L376.03 194.56 L379.62 194.69 L381.90 191.47 L385.26 191.03 L387.45 187.37 L391.37 188.54 L395.54 190.57 L399.51 192.21 L403.94 195.49 L405.81 190.66 L408.80 189.37 L410.52 183.56 L413.79 183.05 L418.11 186.59 L420.88 184.33 L425.50 189.63 L428.22 187.19 L431.37 186.59 L434.62 186.44 L436.24 178.15 L438.94 174.75 L441.65 171.10 L444.85 169.99 L449.19 176.03 L452.88 178.58 L456.14 178.47 L459.50 179.19 L461.80 170.93 L464.96 169.34 L467.40 159.98 L471.07 162.76 L474.43 162.35 L477.63 159.28 L481.35 164.68 L484.65 163.49 L488.03 163.78 L491.50 167.85 L494.78 164.63 L498.14 166.56 L501.47 168.45 L504.81 166.88 L508.06 170.21 L511.45 167.44 L514.70 169.40 L518.08 168.19 L521.82 161.84 L525.12 163.08 L528.98 157.59 L532.29 159.07 L534.97 166.38 L539.12 159.58 L542.10 163.39 L545.78 161.49 L549.65 158.62 L552.58 162.24 L556.78 157.80 L559.33 163.31 L561.92 168.08 L564.37 173.09 L566.58 178.85 L569.78 179.59 L573.31 178.86 L576.50 179.66 L580.39 177.69 L583.61 178.48 L587.26 177.74 L591.12 176.33 L595.08 174.79 L598.76 174.30 L601.43 177.16 L605.56 175.40 L609.00 175.90 L613.04 174.69 L616.86 174.23 L618.34 180.22 L619.64 186.37 L622.43 188.43 L625.33 190.21 L630.88 185.57 L635.24 184.04 L641.40 178.56 L643.14 183.25 L645.62 186.17 L648.96 187.20 L650.46 192.02 L652.75 195.09 L657.26 193.78 L659.11 197.64 L663.99 195.81 L666.53 198.35 L670.35 198.59 L672.73 201.40 L676.85 201.21 L681.50 200.23 L682.76 204.84 L687.81 203.37 L690.42 205.80 L695.18 204.95 L699.50 204.87 L703.51 205.33 L704.74 209.80 L709.05 209.90 L710.95 213.35 L711.23 218.91 L716.26 218.12 L717.26 222.61 L720.18 224.59 L726.22 222.77 L727.07 227.34 L732.20 226.79 L735.46 228.50 L737.59 231.52 L741.75 232.26 L744.31 234.80 L746.85 237.37 L749.95 239.34 L751.73 242.68 L754.33 245.17 L757.11 247.49 L759.36 250.33 L762.91 251.93 L765.65 254.32 L767.61 257.42 L770.59 259.61 L772.67 262.60 L775.92 264.57 L777.81 267.72 L780.63 270.09 L782.43 273.30 L784.51 276.27 L785.93 279.74 L790.13 281.10 L791.22 284.81 L793.90 287.34 L795.89 290.38 L798.96 292.67 L801.50 295.34 L804.41 297.78 L807.33 300.24 L808.81 303.64 L810.19 307.09 L812.77 309.80 L814.90 312.79 L817.34 315.61 L820.08 318.28 L821.45 321.72 L822.88 325.13 L826.44 327.40 L826.32 331.62 L831.12 333.31 L831.36 337.32 L832.17 341.03 L832.95 344.73 L834.55 348.03 L835.03 351.84 L839.28 354.00 L838.50 358.33 L841.27 361.17 L842.50 364.64 L843.45 368.22 L848.85 370.13 L848.28 374.30 L850.02 377.61 L850.62 381.32 L850.98 385.10 L852.86 388.38 L855.99 391.29 L857.88 394.62 L861.13 397.57 L862.71 401.03 L861.05 405.35 L861.70 409.04 L862.36 412.72 L863.33 416.32 L864.07 419.97 L866.96 423.18 L863.91 427.61 L858.93 432.32 L863.41 435.23 L861.15 439.35 L867.55 442.05 L871.01 445.30 L872.36 448.90 L871.84 452.76 L873.74 456.31 L872.98 460.18 L873.41 463.90 L869.50 468.01 L869.56 471.72 L870.65 475.36 L872.45 478.98 L875.97 482.55 L878.15 486.24 L877.26 490.05 L876.89 493.83 L876.63 497.60 L950.00 500.00 L946.48 495.54 L945.96 491.08 L944.92 486.65 L944.06 482.23 L946.64 477.65 L950.75 472.92 L948.58 468.55 L949.88 463.93 L946.11 459.74 L941.59 455.69 L942.01 451.18 L940.15 446.93 L940.85 442.36 L937.89 438.29 L938.59 433.71 L940.33 428.94 L942.27 424.08 L939.14 420.09 L939.88 415.40 L932.69 412.29 L929.33 408.49 L930.84 403.66 L928.90 399.58 L927.50 395.38 L926.33 391.14 L922.90 387.50 L920.27 383.69 L920.65 379.04 L919.88 374.70 L920.73 369.85 L918.47 365.95 L918.10 361.45 L914.19 358.13 L912.41 354.12 L910.47 350.17 L907.76 346.52 L909.65 341.11 L905.59 338.00 L904.34 333.80 L901.95 330.06 L898.39 326.85 L900.28 321.25 L895.74 318.51 L894.57 314.24 L890.51 311.36 L886.89 308.32 L885.74 304.06 L883.64 300.28 L881.23 296.66 L878.69 293.12 L876.60 289.34 L873.58 286.10 L871.78 282.17 L870.16 278.11 L866.97 275.01 L865.42 270.90 L861.77 268.12 L858.88 264.87 L857.27 260.79 L855.19 257.00 L852.89 253.36 L850.84 249.53 L848.04 246.24 L844.60 243.43 L841.67 240.26 L839.68 236.38 L835.62 234.10 L833.02 230.70 L829.32 228.20 L826.79 224.75 L823.71 221.76 L819.88 219.45 L817.55 215.82 L813.50 213.75 L811.32 209.97 L808.67 206.62 L805.73 203.54 L802.77 200.48 L799.77 197.46 L795.48 195.76 L792.97 192.24 L788.89 190.39 L785.72 187.59 L782.99 184.29 L779.58 181.75 L775.97 179.45 L772.69 176.77 L771.66 171.38 L764.90 172.96 L765.68 165.20 L760.57 164.81 L754.74 165.46 L755.05 158.01 L746.71 162.20 L744.12 158.62 L741.29 155.35 L736.34 155.14 L734.38 150.55 L733.64 144.00 L729.99 141.82 L728.37 136.40 L723.73 135.74 L717.24 138.25 L715.71 132.52 L710.18 133.59 L707.73 129.32 L703.75 127.74 L699.24 127.18 L696.43 123.43 L691.68 123.39 L689.63 118.02 L684.33 119.17 L679.35 119.82 L674.68 119.93 L667.23 126.33 L665.71 119.57 L661.06 119.89 L660.92 109.40 L655.53 111.49 L650.22 113.62 L643.56 119.53 L638.38 121.85 L635.26 118.60 L634.56 108.18 L631.65 103.80 L628.71 99.28 L624.29 99.34 L619.48 100.77 L616.43 96.33 L612.40 95.11 L609.41 90.02 L604.81 90.91 L600.72 89.82 L597.30 85.93 L593.15 85.00 L589.57 81.42 L585.03 82.24 L579.62 87.75 L574.46 92.68 L568.88 100.66 L564.59 101.77 L561.04 98.27 L556.60 100.66 L553.45 93.70 L549.27 94.11 L545.31 92.71 L541.62 88.53 L537.03 93.25 L532.79 95.07 L529.06 90.17 L524.75 93.38 L520.92 88.57 L516.69 91.14 L512.63 90.11 L508.53 89.74 L504.44 88.46 L500.33 87.71 L496.26 93.54 L492.06 86.75 L488.08 91.89 L484.00 91.98 L479.88 91.46 L476.11 96.91 L472.10 97.54 L468.21 99.51 L464.97 108.36 L460.27 100.80 L456.57 103.92 L451.43 94.50 L448.10 100.52 L444.75 105.64 L442.15 115.17 L439.00 120.09 L434.88 118.82 L429.28 109.57 L424.38 105.12 L418.69 97.25 L414.31 96.41 L410.61 98.74 L406.32 98.44 L402.66 100.88 L399.27 104.19 L395.98 107.72 L393.84 115.24 L389.00 112.82 L385.61 115.56 L380.58 112.84 L376.10 112.15 L374.07 118.97 L370.59 121.21 L368.48 127.26 L366.25 132.69 L361.35 130.74 L357.08 130.66 L349.17 121.49 L346.62 126.01 L341.62 124.57 L341.78 135.17 L338.54 137.67 L335.22 139.95 L329.70 137.50 L325.07 137.14 L321.40 138.79 L319.63 144.21 L315.59 145.09 L312.87 148.49 L309.71 151.02 L305.01 150.76 L303.60 156.35 L297.54 153.82 L295.48 158.19 L292.04 160.19 L287.83 160.98 L289.28 170.68 L285.42 171.92 L287.26 181.72 L284.40 184.32 L281.22 186.44 L277.58 187.92 L270.32 184.46 L267.61 187.35 L264.38 189.54 L261.71 192.46 L258.04 194.09 L253.79 195.04 L247.39 193.43 L241.95 193.14 L238.15 194.86 L236.23 198.78 L231.63 199.63 L230.21 204.06 L226.84 206.31 L226.05 211.31 L225.25 216.21 L220.49 217.01 L221.71 223.82 L218.45 226.12 L216.91 230.07 L219.09 237.47 L216.69 240.49 L219.10 247.81 L220.02 253.65 L214.00 253.38 L211.88 256.53 L201.71 253.01 L198.72 255.57 L192.52 255.60 L189.51 258.23 L184.39 259.28 L182.92 263.13 L179.24 265.34 L181.32 271.72 L181.21 276.43 L183.92 283.02 L183.15 287.12 L179.34 289.19 L177.07 292.29 L172.78 294.12 L176.63 301.03 L170.63 301.85 L172.03 307.13 L169.49 310.06 L164.30 311.52 L167.86 317.87 L166.51 321.44 L168.22 326.60 L172.51 332.99 L165.49 333.60 L166.67 338.33 L155.28 337.04 L152.62 340.02 L151.15 343.55 L147.51 346.13 L150.66 351.65 L147.86 354.60 L143.46 356.93 L143.50 361.07 L137.68 362.96 L140.02 367.95 L140.73 372.27 L137.33 375.13 L140.72 380.30 L136.80 383.02 L140.66 388.22 L140.84 392.20 L135.04 394.42 L135.00 398.36 L131.63 401.38 L130.64 405.06 L135.84 410.27 L135.63 414.07 L136.09 418.01 L136.59 421.94 L129.57 424.30 L128.77 427.99 L121.97 430.59 L123.73 434.79 L122.12 438.40 L124.13 442.58 L124.10 446.42 L123.73 450.20 L121.27 453.72 L125.71 458.06 L125.63 461.84 L128.60 465.89 L133.38 470.02 L125.25 473.13 L129.57 477.16 L127.07 480.74 L132.73 484.72 L130.65 488.33 L131.16 492.03 L127.91 495.69 L124.01 499.40 L127.99 503.13 L132.58 506.76 L137.68 510.30 L146.37 513.59 L139.35 517.47 L139.85 521.06 L131.99 525.21 L133.93 528.76 L137.32 532.15 L130.82 536.45 L131.92 540.06 L131.73 543.81 L129.80 547.80 L136.78 550.60 L138.87 553.99 L135.93 558.16 L140.72 561.08 L140.43 564.84 L139.15 568.80 L138.48 572.68 L135.86 577.01 L140.80 579.72 L138.13 584.12 L144.95 586.29 L145.02 590.04 L146.48 593.44 L152.56 595.56 L154.91 598.64 L159.81 600.93 L164.58 603.17 L161.75 607.76 L167.13 609.72 L162.87 614.88 L161.94 618.98 L168.07 620.56 L167.48 624.56 L168.94 627.80 L175.62 628.96 L166.73 636.37 L169.66 639.05 L169.37 643.08 L173.01 645.40 L179.64 646.30 L176.71 651.57 L179.59 654.15 L175.31 660.22 L180.48 661.67 L182.63 664.59 L185.12 667.31 L187.42 670.12 L186.44 674.74 L188.60 677.64 L195.37 677.84 L197.62 680.60 L204.79 680.35 L205.48 684.00 L205.79 687.92 L209.15 689.90 L208.57 694.46 L209.99 697.73 L210.14 701.90 L213.59 703.78 L217.57 705.23 L220.57 707.36 L219.16 712.79 L217.73 718.35 L215.38 724.75 L223.35 722.99 L226.73 724.81 L229.45 727.15 L230.94 730.52 L230.12 735.94 L238.02 733.70 L236.87 739.49 L245.25 736.57 L245.44 741.18 L246.00 745.51 L254.30 742.29 L255.84 745.64 L261.18 745.12 L265.51 745.54 L265.25 750.78 L267.12 753.83 L260.63 766.20 L267.47 763.84 L269.81 766.52 L274.53 766.40 L281.12 763.91 L281.74 768.59 L281.05 775.02 L285.59 774.91 L285.40 780.89 L292.35 777.51 L293.22 782.19 L299.27 779.75 L301.85 782.08 L305.93 782.22 L311.39 780.24 L312.19 785.17 L316.40 784.93 L316.58 791.01 L318.12 795.06 L324.34 791.47 L326.96 793.73 L334.20 787.98 L335.13 793.11 L337.49 795.80 L340.00 798.26 L341.96 801.80 L347.89 797.69 L351.80 797.33 L354.24 799.92 L356.43 803.09 L358.31 807.02 L360.22 811.00 L364.11 810.62 L366.45 813.79 L370.18 813.69 L372.60 816.76 L374.85 820.40 L376.92 824.62 L380.71 824.39 L385.80 820.41 L388.21 823.84 L393.90 817.62 L395.86 822.45 L399.08 823.52 L403.79 819.61 L407.44 819.03 L412.84 812.02 L416.44 811.11 L418.71 815.21 L422.35 814.06 L423.84 821.79 L426.66 824.31 L430.67 821.49 L433.54 823.87 L436.81 824.40 L440.84 820.77 L442.36 831.06 L445.54 832.44 L448.61 834.61 L453.05 827.52 L456.41 827.37 L460.02 825.02 L463.20 826.10 L465.80 832.87 L469.61 828.03 L472.55 832.38 L476.11 829.48 L479.44 829.15 L482.64 831.09 L486.16 826.42 L489.49 824.31 L492.77 822.79 L496.10 814.81 L499.24 819.69 L502.43 819.27 L505.59 817.52 L508.88 821.38 L512.07 820.89 L515.11 817.15 L518.48 820.45 L521.37 815.52 L524.70 817.55 L528.45 823.87 L532.28 829.63 L536.21 835.18 L539.43 833.71 L543.19 836.65 L545.98 832.04 L549.09 830.14 L551.79 825.89 L553.96 818.94 L558.00 823.14 L560.16 816.90 L564.30 821.16 L567.13 818.68 L569.33 813.57 L572.39 812.55 L575.37 811.22 L578.35 809.93 L583.34 816.33 L586.70 816.20 L590.77 818.52 L593.36 815.61 L596.50 814.61 L599.00 811.63 L602.77 812.60 L605.94 811.72 L610.01 813.36 L612.27 809.85 L615.73 809.71 L617.19 804.29 L619.83 802.11 L623.53 802.57 L624.69 796.89 L627.91 796.23 L629.24 791.27 L632.45 790.63 L635.01 788.56 L638.25 787.96 L641.20 786.71 L642.16 781.53 L644.27 778.75 L646.35 775.97 L647.37 771.30 L651.92 773.13 L653.51 769.61 L657.38 770.07 L661.04 770.11 L661.46 764.77 L667.40 768.42 L667.45 762.62 L671.38 762.95 L675.29 763.16 L677.84 761.29 L684.19 764.88 L686.66 762.79 L688.83 760.29 L693.13 760.69 L691.31 752.91 L694.03 751.25 L693.08 744.91 L694.48 741.67 L697.41 740.35 L700.67 739.40 L705.08 739.75 L707.01 737.16 L709.50 735.23 L713.21 734.63 L714.80 731.68 L719.23 731.76 L720.24 728.21 L723.59 727.10 L724.76 723.77 L725.34 719.90 L732.64 722.53 L732.37 717.86 L734.42 715.42 L736.41 712.93 L734.36 706.87 L735.31 703.56 L739.13 702.72 L737.20 697.04 L742.34 697.25 L742.75 693.58 L743.56 690.27 L744.01 686.73 L742.08 681.44 L746.97 681.28 L748.32 678.47 L750.91 676.55 L751.22 673.05 L750.85 669.12 L749.89 664.86 L752.89 663.24 L752.69 659.55 L756.60 658.45 L756.04 654.59 L758.45 652.54 L760.02 649.98 L760.93 647.04 L762.83 644.67 L764.19 642.00 L765.11 639.10 L770.61 638.55 L773.10 636.39 L774.30 633.58 L774.05 630.09 L771.29 625.47 L775.31 624.00 L775.38 620.73 L779.60 619.26 L782.00 616.97 L783.46 614.27 L787.80 612.68 L788.97 609.82 L791.21 607.35 L788.54 603.10 L785.87 598.93 L783.52 594.96 L779.46 590.50 L781.88 588.18 L783.14 585.48 L786.10 583.26 L787.92 580.67 L787.58 577.48 L789.96 575.02 L789.83 571.90 L796.54 570.43 L796.76 567.36 L799.00 564.73 L797.67 561.33 L793.73 557.46 L791.33 553.97 L794.49 551.52 L789.91 547.73 L793.75 545.35 L789.97 541.81 L791.52 539.06 L790.55 535.97 L792.24 533.22 L793.43 530.39 L791.65 527.26 L791.19 524.28 L793.34 521.51 L791.07 518.42 L794.12 515.66 L789.76 512.52 L789.09 509.60 L787.28 506.66 L782.23 503.72 L781.21 500.90 L777.30 498.11 L775.98 495.36 L778.11 492.54 L785.86 489.47 L786.76 486.57 L794.78 483.23 L794.13 480.32 L796.99 477.14 L794.79 474.34 L796.90 471.17 L791.72 468.72 L790.58 465.90 L785.47 463.60 L783.31 461.00 L781.75 458.34 L780.50 455.65 L779.84 452.88 L784.07 449.24 L784.65 446.20 L785.82 443.01 L786.56 439.87 L784.74 437.28 L784.91 434.25 L782.32 431.86 L782.99 428.70 L779.28 426.66 L779.68 423.55 L781.82 419.93 L781.61 416.94 L780.28 414.28 L777.70 412.02 L772.23 410.75 L769.20 408.75 L771.45 404.95 L769.53 402.59 L770.70 399.09 L766.58 397.58 L762.31 396.20 L756.74 395.42 L756.87 392.36 L756.80 389.36 L753.30 387.85 L752.99 384.95 L753.08 381.84 L748.49 380.94 L753.03 375.64 L752.72 372.64 L746.93 372.45 L746.34 369.61 L745.92 366.67 L742.41 365.42 L747.19 359.51 L744.88 357.57 L741.83 356.08 L743.75 351.62 L739.29 351.04 L740.57 346.88 L735.73 346.63 L732.44 345.44 L732.72 341.88 L729.14 340.93 L728.56 337.93 L723.23 338.32 L720.09 337.22 L717.39 335.83 L716.54 333.05 L715.36 330.49 L713.65 328.36 L714.86 323.81 L711.78 322.77 L712.20 318.78 L711.93 315.32 L708.28 314.80 L707.00 312.20 L701.63 313.36 L699.25 311.83 L696.51 310.66 L695.96 307.38 L695.51 303.93 L694.49 301.02 L691.86 299.74 L691.80 295.76 L688.08 295.66 L684.19 295.83 L683.98 291.91 L678.13 294.42 L678.32 290.00 L672.47 292.71 L669.40 292.21 L663.82 294.90 L661.54 293.56 L659.31 292.16 L656.45 291.60 L658.83 283.97 L658.34 280.06 L656.99 277.28 L657.24 272.11 L654.20 271.66 L650.51 272.26 L647.72 271.54 L645.90 269.34 L640.97 272.12 L643.88 262.13 L638.42 265.89 L637.09 262.77 L633.47 263.61 L628.24 267.46 L627.26 263.69 L623.61 264.87 L623.07 260.08 L621.30 257.61 L619.60 254.90 L616.53 255.02 L614.04 253.93 L609.85 256.62 L607.26 255.88 L604.16 256.35 L600.51 258.23 L597.15 259.54 L596.40 254.36 L594.10 252.99 L592.83 248.79 L591.30 245.12 L586.48 250.76 L584.26 249.09 L579.52 255.11 L577.52 252.88 L575.64 250.18 L572.80 250.58 L571.23 246.55 L568.56 246.34 L565.19 248.86 L562.42 249.27 L558.72 253.65 L556.00 254.16 L554.45 249.45 L552.06 248.32 L550.04 245.30 L546.52 249.99 L542.97 255.50 L539.97 258.41 L537.61 257.70 L535.39 255.91 L533.16 254.00 L531.42 247.85 L529.06 246.13 L526.75 243.68 L524.46 240.49 L521.42 245.53 L518.93 244.56 L516.22 246.90 L513.56 249.13 L511.12 247.29 L508.50 249.88 L506.10 245.78 L503.60 242.89 L501.03 242.31 L498.44 240.77 L495.88 242.96 L493.35 244.31 L490.67 241.13 L488.09 241.32 L485.53 241.92 L483.02 243.24 L480.75 247.30 L478.50 250.72 L475.64 247.07 L473.57 251.62 L470.98 250.96 L468.17 248.76 L465.81 250.20 L463.11 249.13 L460.98 251.93 L458.96 255.09 L456.11 253.26 L454.04 255.77 L450.53 250.86 L448.62 254.14 L446.32 255.39 L443.80 255.59 L441.38 256.27 L439.05 257.26 L437.21 260.13 L435.87 264.64 L434.71 269.51 L431.25 266.22 L429.68 269.43 L425.62 264.58 L425.22 271.30 L423.00 272.24 L422.40 277.81 L419.91 277.84 L416.20 274.65 L415.40 279.29 L413.12 279.94 L410.22 279.10 L411.03 287.20 L404.98 278.98 L403.73 282.11 L400.88 281.58 L398.54 282.24 L396.54 283.62 L394.69 285.29 L393.72 288.70 L392.62 291.72 L392.09 295.74 L387.56 292.22 L386.47 295.13 L381.03 290.29 L379.85 293.06 L376.72 292.47 L374.37 293.25 L371.16 292.67 L370.07 295.51 L368.50 297.54 L367.39 300.22 L364.81 300.69 L360.51 298.72 L361.83 304.82 L357.41 302.79 L355.88 304.82 L354.91 307.56 L351.00 306.43 L350.12 309.26 L351.27 314.57 L349.60 316.29 L350.90 321.55 L348.75 322.60 L347.45 324.67 L344.71 325.08 L341.37 324.87 L340.16 327.05 L341.87 332.29 L339.48 333.14 L342.90 339.93 L337.07 337.27 L336.50 339.94 L332.21 338.99 L334.11 343.97 L334.44 347.37 L335.94 351.77 L334.00 353.00 L329.35 351.90 L328.20 353.88 L326.89 355.73 L323.51 355.88 L324.72 359.77 L319.63 358.63 L314.87 357.87 L318.43 363.46 L314.60 363.46 L316.11 367.38 L318.66 371.97 L315.11 372.21 L316.61 375.94 L314.52 377.21 L310.48 377.24 L313.30 381.70 L311.55 383.22 L312.43 386.35 L308.52 386.57 L306.16 387.78 L302.54 388.31 L301.54 390.35 L299.88 392.03 L298.91 394.09 L296.33 395.31 L294.36 396.89 L297.13 400.80 L296.43 402.97 L295.27 404.92 L299.48 409.30 L296.18 410.25 L293.87 411.69 L297.60 415.67 L286.25 413.44 L291.10 417.82 L288.15 419.10 L290.91 422.54 L290.84 424.89 L288.72 426.50 L289.99 429.29 L287.29 430.74 L290.70 434.16 L290.62 436.43 L285.81 437.30 L289.61 440.69 L285.46 441.83 L288.43 444.90 L288.51 447.17 L289.38 449.62 L288.35 451.61 L285.75 453.26 L289.51 456.28 L287.55 458.09 L287.85 460.35 L292.52 463.36 L291.14 465.27 L296.44 468.24 L293.06 469.83 L283.78 470.68 L287.00 473.28 L282.28 474.90 L288.80 477.79 L292.55 480.28 L293.29 482.43 L284.34 483.84 L288.02 486.25 L280.98 487.99 L281.38 490.20 L278.88 492.31 L280.52 494.56 L280.60 496.76 L283.31 498.96 L284.00 501.13 L285.54 503.26 L285.00 505.42 L286.43 507.53 L283.84 509.78 L287.64 511.74 L286.48 513.95 L295.20 515.43 L295.63 517.46 L296.74 519.41 L294.34 521.72 L291.18 524.17 L293.11 526.04 L292.92 528.17 L293.92 530.14 L291.91 532.56 L289.24 535.14 L291.06 536.99 L292.51 538.88 L295.09 540.52 L298.71 541.90 L294.90 544.84 L297.22 546.46 L295.22 549.08 L300.38 549.96 L301.38 551.82 L305.34 552.87 L306.08 554.76 L306.79 556.65 L303.45 559.77 L305.99 561.12 L305.32 563.48 L313.36 562.93 L318.85 563.11 L314.82 566.60 L318.20 567.44 L312.57 571.67 L313.29 573.54 L316.98 574.21 L317.92 575.96 L318.27 577.96 L321.11 578.86 L317.66 582.57 L319.27 584.03 L315.88 587.86 L317.47 589.35 L316.15 592.29 L318.75 593.26 L318.55 595.67 L320.41 597.00 L319.57 599.80 L321.06 601.32 L324.57 601.67 L324.43 604.10 L330.54 602.78 L329.10 606.01 L329.56 608.10 L333.23 608.13 L334.16 609.89 L333.38 612.83 L338.84 611.50 L336.02 615.89 L339.93 615.54 L343.33 615.49 L344.43 617.09 L350.63 614.79 L349.00 618.46 L349.63 620.41 L349.66 622.88 L349.92 625.19 L352.87 625.24 L357.19 624.05 L355.25 628.30 L357.86 628.54 L355.75 633.10 L359.65 632.13 L362.93 631.65 L366.39 630.92 L366.70 633.25 L370.93 631.63 L372.21 632.96 L373.82 633.94 L377.83 632.31 L380.31 632.25 L380.71 634.49 L383.58 633.93 L385.73 634.14 L385.32 637.38 L387.08 638.06 L385.91 642.36 L387.80 642.91 L389.36 643.87 L388.91 647.49 L391.43 647.18 L389.17 653.43 L390.12 655.36 L393.63 653.64 L392.47 658.67 L396.93 655.42 L395.87 660.48 L399.35 658.57 L401.20 659.15 L404.66 657.05 L406.03 658.35 L409.34 656.31 L413.16 653.24 L418.09 647.97 L417.29 653.01 L420.72 650.23 L419.58 656.16 L418.48 662.25 L422.28 658.63 L421.62 664.11 L425.31 660.49 L428.42 657.91 L433.68 650.30 L437.17 646.34 L435.19 655.21 L437.43 654.16 L433.20 669.41 L437.47 663.37 L437.75 667.62 L441.07 663.68 L441.15 668.72 L443.08 668.60 L443.74 672.31 L446.24 670.43 L448.17 670.23 L450.57 668.36 L451.75 670.62 L454.17 668.49 L457.16 663.97 L459.63 661.08 L461.45 660.62 L464.58 654.33 L465.90 655.71 L466.82 659.11 L469.86 652.16 L470.79 655.61 L471.55 660.38 L473.54 658.33 L473.59 668.40 L475.35 668.16 L476.69 670.91 L478.41 670.99 L479.97 672.56 L481.71 672.62 L483.87 668.21 L485.29 671.48 L487.27 668.15 L488.67 672.54 L490.57 669.53 L492.19 671.18 L494.00 668.59 L495.65 669.98 L497.33 671.34 L499.08 665.64 L500.72 661.90 L502.34 661.95 L503.92 660.55 L505.62 663.09 L507.40 666.37 L508.85 662.49 L510.70 665.89 L512.20 663.59 L513.83 663.46 L515.49 663.56 L516.83 660.56 L518.47 660.68 L520.58 664.54 L522.22 664.27 L524.60 669.15 L525.73 665.27 L527.51 665.80 L528.90 664.00 L530.81 665.18 L532.26 663.81 L532.90 658.69 L533.81 655.24 L534.77 652.32 L537.57 657.33 L539.16 657.01 L541.62 660.04 L543.36 660.13 L544.44 657.84 L545.69 656.28 L547.31 656.00 L548.75 655.17 L549.88 653.39 L552.26 655.40 L553.61 654.29 L555.67 655.18 L557.08 654.26 L559.48 655.92 L560.85 654.84 L562.16 653.64 L564.31 654.50 L564.32 650.27 L564.63 646.92 L566.94 648.13 L565.12 640.34 L568.62 644.11 L567.08 637.30 L568.85 637.44 L569.04 634.44 L571.24 635.37 L573.79 636.88 L576.09 637.83 L579.25 640.22 L581.58 641.04 L581.27 637.31 L582.65 636.51 L584.69 636.78 L583.68 632.18 L586.85 634.18 L586.48 630.73 L587.63 629.64 L588.08 627.53 L589.03 626.19 L590.22 625.20 L592.81 626.12 L591.23 621.40 L593.29 621.60 L590.35 615.35 L591.79 614.82 L594.81 616.19 L596.25 615.57 L598.64 616.07 L597.67 612.62 L596.70 609.27 L596.59 606.98 L599.84 608.37 L601.40 607.89 L606.23 610.79 L607.67 610.06 L610.72 610.94 L607.57 605.65 L607.40 603.38 L608.65 602.52 L607.15 599.09 L613.73 603.09 L615.93 602.99 L615.90 600.91 L616.57 599.46 L613.09 594.56 L614.10 593.48 L615.71 592.88 L616.62 591.70 L620.27 592.65 L616.57 587.95 L618.25 587.38 L617.27 584.85 L620.17 585.13 L619.47 582.86 L616.37 578.99 L614.81 576.27 L613.37 573.69 L617.69 574.83 L618.61 573.76 L619.85 572.88 L622.18 572.64 L622.10 570.95 L622.45 569.52 L625.01 569.33 L626.34 568.43 L623.61 565.36 L627.77 565.93 L626.48 563.67 L622.68 560.23 L624.88 559.77 L625.45 558.51 L625.56 557.03 L625.47 555.49 L621.03 552.08 L616.32 548.68 L612.08 545.59 L610.86 543.81 L608.17 541.50 L606.27 539.56 L603.90 537.50 L601.69 535.56 L599.91 533.82 L598.49 532.24 L597.54 530.85 L596.88 529.58 L596.35 528.37 L596.01 527.23 L595.73 526.12 L595.53 525.04 L595.37 523.98 L595.26 522.94 L595.15 521.91 L595.08 520.90 L594.97 519.88 L594.89 518.88 L594.81 517.88 L594.69 516.88 L594.63 515.89 L594.49 514.90 L594.40 513.92 L594.27 512.94 L594.12 511.96 L594.01 510.99 L593.83 510.02 L593.70 509.06 L593.51 508.10 L593.33 507.14 L593.15 506.19 L592.92 505.24 L592.75 504.30 L592.50 503.37 L592.30 502.43 L592.05 501.51 L591.80 500.58 Z"/>
  <svg class="pausebutton" id="pausebutton">
    <circle cx="500" cy="500" id="pausestart" class="pausestart" r="52.65"/>
    <rect height="50.02" width="10.00" y="473.68" rx="2.00" ry="2.00" x="479.99" class="pausesymbol"/>
    <rect height="50.02" width="10.00" y="473.68" rx="2.00" ry="2.00" x="510.00" class="pausesymbol"/>
    <polygon points="530.01,500 479.99,530.01 479.99,469.99" class="playsymbol"/>
  </svg>
  <polygon id="playback-head" class="playback-head" points="912.475,500 892.475,540 932.475,540"/>
</svg>