<?xml-stylesheet href="../../style/waveformjs.css" type="text/css"?><svg xmlns="http://www.w3.org/2000/svg" xmlns:xlink="http://www.w3.org/1999/xlink" width="100%" height="100%"  viewBox="0 0 1000 1000"><title>http://localhost/waveformjs/audio/deep-blue.wav</title><path class = "svg-wave" id = "sp" d="M591.56945 500 L591.8202273200747 500.9182328811675 L592.0617716219318 501.84148096978237 L592.2940076844477 502.7696511757442 L592.5168612275282 503.70264940612276 L592.7302589246432 504.6403805746952 L592.9341284152625 505.5827486116328 L593.1283983171944 506.52965647333787 L593.312998238823 507.48100615242885 L593.487858791244 508.4366986878727 L593.652911600296 509.3966341752634 L593.8080893184874 510.360711777246 L593.4463176959622 511.2676950526162 L592.4081612346537 512.0811951615424 L592.3522505075422 513.0144541489107 L591.6645587012233 513.8537430675268 L592.020923691066 514.8502870416203 L592.3305130098215 515.849162452605 L592.2928496971165 516.7944863931621 L592.2861382146245 517.7484551100548 L592.0647825826113 518.6624553464194 L592.3848852008374 519.6911402557165 L592.3421076197938 520.6494886877543 L592.6974877833325 521.7045014711233 L592.8844082714642 522.7303661257769 L592.8240599341564 523.7018737991241 L593.0714137295754 524.7590009709847 L592.8863824892121 525.7070620658894 L592.7584053309201 526.6730807018337 L592.6983943730588 527.6623861753766 L592.6356606022533 528.6555678308109 L592.6924557234196 529.6919430814289 L592.5608362682456 530.6736804779916 L592.6945736191136 531.7501965496403 L592.409057886086 532.6884916391606 L592.4146344089377 533.7339748985985 L592.2596471750157 534.7267942881632 L592.1582449864912 535.7447882731149 L591.9928844235287 536.7431283219337 L591.9203931610463 537.784329411572 L591.7641540127626 538.7972620398403 L591.4570058461346 539.7500686200046 L591.23310828528 540.7422014724157 L590.962609828387 541.7173652184122 L590.8078903491106 542.7505864995228 L590.6359173523007 543.7821390038343 L590.5260635726345 544.8510267702999 L590.3234616400522 545.8812382252206 L590.0455913796144 546.8787113438422 L589.7680856017305 547.8812328062769 L589.4933618077471 548.8904463800635 L589.1143885681331 549.8469099349555 L588.9289538469401 550.9173245769703 L588.7104513346671 551.9769626322702 L588.3675049556234 552.9701001953588 L588.2381710680817 554.0992826928513 L587.8497942172011 555.0773876389494 L587.4815371762612 556.0729141853338 L587.2025232845364 557.132341908419 L586.6880819770221 558.0424947004785 L586.3449457539248 559.0717556045267 L585.8613424803877 560.010111800002 L585.5372836140596 561.065837177243 L585.2088337104559 562.1270157197379 L584.7901458941461 563.1299793107008 L584.3834716368017 564.1486863524685 L583.8343550871056 565.0642548481828 L583.3040179475815 565.9979559906092 L582.9011800388878 567.0389822511884 L582.3201093007198 567.9417583955765 L581.9365561822175 569.0142092074421 L581.3534394519659 569.9256132229556 L580.8071152604999 570.8733268764704 L580.272650507754 571.8374020584121 L579.7484730391676 572.8174960266718 L579.1358820215933 573.7227075458682 L578.6129570281043 574.7177998301389 L578.090918173516 575.7222900542909 L577.5462413646133 576.7135139113616 L577.056557915264 577.769045071531 L576.4989881481379 578.7663077726617 L575.7730860446756 579.5962278690843 L575.167566023687 580.5581120051144 L574.3703379904514 581.3189756250985 L573.6789719001652 582.1986444605809 L573.1118608665088 583.2256229493532 L572.3979624294163 584.094277341701 L571.8821743972135 585.2037283254954 L571.1539451957824 586.0723745829824 L570.4239360762454 586.9453533838343 L569.5678453569877 587.6664920038795 L568.8458028251022 588.5611327453536 L568.0393247220118 589.3535752836809 L567.2468933404723 590.1695993559322 L566.6367874836982 591.2413871315838 L565.7898837899814 591.9994280431712 L565.0943633377473 592.9780214903747 L564.3013609161757 593.8286183593649 L563.4813207336979 594.6479998893485 L562.6342445568463 595.434341622494 L561.7640041269713 596.1917371329625 L561.0284696806258 597.1698970743939 L560.1920267619124 598.0004693437817 L559.3562473003906 598.8426342777398 L558.461943494173 599.5966211977411 L557.535605640692 600.3027021825725 L556.4606834994905 600.7498456452614 L555.5781988737164 601.5429364549007 L554.7336808871446 602.418612642995 L553.8523751756593 603.2399480233609 L553.0685373458873 604.2669212463932 L552.2033783564273 605.1552599481441 L551.1959062647832 605.7684519088723 L550.1595199049339 606.3256495508434 L549.1870468920728 607.0248721128207 L548.1293206682525 607.5448201788772 L547.1481617713246 608.2426809814976 L546.2111704618264 609.0574885002893 L545.24034237916 609.8103612351642 L544.1949504933445 610.3945397645001 L543.1519356032885 610.9933211598893 L542.2152258250647 611.8840512864075 L541.0337695975635 612.1352061811263 L540.0694931897477 612.9885873606014 L538.9841465114026 613.519100338204 L537.944099729124 614.1954118467986 L536.8731073625722 614.7959070363407 L535.8975375802582 615.7204935903187 L534.7041880730781 615.9588381626043 L533.5294454134379 616.2534826365559 L532.4132468032482 616.755835656571 L531.3052236191958 617.3032078788136 L530.2518674656031 618.0835599395035 L529.2061278562503 618.9364017248588 L528.1264163347539 619.6952805846927 L526.9047182358537 619.8664861192792 L525.7589051905175 620.3827288612406 L524.6149434749354 620.9346466935095 L523.4202370434793 621.2568109194976 L522.2612701361504 621.7844777115522 L521.0957758345808 622.3108551767942 L519.9284015996558 622.8656932535388 L518.7085900546239 623.1234660064482 L517.5425370463382 623.77073450177 L516.2834310767254 623.7838107382519 L515.0677078958546 624.1291752206432 L513.8066714119745 624.1027516081831 L512.6292144363439 624.8697777234096 L511.4076797342304 625.2948736174045 L510.16367652943745 625.5199460576758 L508.9529921945984 626.2499027197841 L507.67902998482225 626.1518087875475 L506.42593290328284 626.3950660141695 L505.1767846451312 626.8229950054329 L503.9206912989453 627.2701048894972 L502.6549301622411 627.6450132888644 L501.3809127585566 627.9008250675936 L500.10204554603365 628.1452854751584 L498.82005367400825 628.2002286154517 L497.5361232939027 628.2865936799516 L496.2457695645961 628.5168162767844 L494.951310027941 628.7150617142886 L493.6535277007551 628.879602946821 L492.3646834235583 628.8162252913164 L491.04041352849623 629.260175924827 L489.7672539015643 628.9250776175624 L488.4338532531839 629.3158861111987 L487.14453729203564 629.1611773676161 L485.77782500388855 629.7172003459692 L484.4847485060508 629.5404185052604 L483.1167165738944 629.9439153384585 L481.7994575712381 629.9019525637153 L480.47792081800077 629.8694474965166 L479.14541042747226 629.8845596229547 L477.8441379613183 629.6899590887335 L476.57626100885284 629.3079384368268 L475.1578991274552 629.7277047102771 L473.8284438350206 629.6384532624239 L472.3215305609751 630.3681351551659 L471.0159744769786 630.0995612114829 L469.69120213421604 629.9114386961579 L468.36458806651535 629.7209254101526 L467.1191293585581 629.201043886688 L465.4741644356109 630.2031164443176 L464.2988299941575 629.3984784571915 L462.8131059980521 629.710102195691 L461.544904684602 629.2409486024658 L460.31564267207057 628.6515292613497 L459.0758883114745 628.1081585673378 L457.99963967381086 627.0790187249279 L456.63491091200916 626.9338444932375 L455.46535510023284 626.2172616255522 L453.6409821451486 627.3157553873885 L452.0376715944077 627.7312865170679 L450.57386168965166 627.7335073101519 L448.95207210908615 628.1035227350282 L447.73730279613244 627.4313471370397 L446.2988630655163 627.2976606424475 L444.73674613905666 627.427239706056 L443.81696857912175 626.0789801443482 L442.07305408101115 626.5726859899844 L441.2756833839051 624.9963978423984 L439.9205659546206 624.6271761824211 L438.35630802505506 624.6693790894494 L437.09184087407334 624.0878980384259 L435.6461944707072 623.8528031979839 L434.67924450339206 622.6990317210311 L432.8689103962275 623.1155550099231 L432.247302498698 621.3523826940585 L430.77628173256215 621.125321789951 L429.30370780064715 620.8798108132306 L428.3293777931899 619.780897685055 L426.50941451111885 620.0806775830895 L425.2274552542334 619.4753528084467 L424.1075085252072 618.6106263688566 L422.3632841999333 618.7049669207285 L421.51326528032115 617.4242817840093 L419.90242040716464 617.2786021971964 L419.6266623421602 615.1919137579922 L418.6795311043233 614.1007617797837 L417.491239136326 613.3524380599389 L415.70017163252624 613.4118908643012 L414.2411660478672 612.9968893276251 L411.7987039432376 613.8331356047318 L410.79789443898005 612.7771780004015 L409.6597595010172 611.8979167383675 L408.8277001431759 610.6462345444099 L409.14421472762416 608.042286586524 L407.7846360641984 607.4589579228834 L405.80906830239564 607.5656459129453 L403.7643563255352 607.7082452215271 L401.52305037676973 608.0228958036149 L400.144367561746 607.3589348944028 L399.2493719086301 606.1721035980942 L398.50794895160516 604.8336832613847 L397.3310935710572 603.9488142440092 L398.0218688599071 601.2049123428069 L397.41521312623064 599.7907124216563 L396.4009158000192 598.7804264908411 L394.17357191383775 598.9028140190791 L391.5681931677516 599.3250845134479 L388.80910294365424 599.8260531558996 L387.7753559922017 598.7453019737517 L387.4445940771793 597.0567238492308 L386.07786299408144 596.265869163962 L385.6756002457568 594.6625657850724 L385.11201406232703 593.2084985662078 L383.8963303485771 592.2849740940221 L383.44549523518424 590.756335810243 L381.56140646263754 590.335544799589 L379.8250045106555 589.7734012010975 L378.91206607270533 588.5827121964779 L379.07541255234617 586.6202313767901 L378.8734545182634 584.9450956432047 L377.55471857115225 584.0559239341757 L375.77694097501484 583.4610954619412 L372.7289428467452 583.6739901976619 L370.66484479939936 583.1906779030309 L368.79766074834504 582.5486316317392 L367.6329735425993 581.4452574335105 L366.35959449842073 580.397615321694 L365.22431612336965 579.2559760198297 L364.3586579210696 577.9501671765032 L364.2101814166258 576.2394038938863 L364.51632409415174 574.2954906041357 L365.71815671909155 571.8992868341041 L366.3179666989923 569.867156152524 L366.3783470797771 568.1431848060746 L365.1368015869185 567.0855319716254 L362.74682788218115 566.5706524736613 L360.28280492657177 566.0481783719906 L358.45057046652823 565.1906004909071 L357.8434435887941 563.7549665344001 L358.2872857444336 561.8612886265636 L359.64189149151275 559.6061351147818 L360.36856458205585 557.6563183166887 L360.9911375570815 555.7787835757377 L360.13726591471107 554.5040242036532 L358.9013342140423 553.3666538854931 L356.8365804845056 552.5172691397847 L354.2888520756518 551.8046598912457 L352.30134545226144 550.8534368408655 L349.70297906205724 550.0726394548344 L348.24975838076523 548.8763973937217 L346.47417176335125 547.7591468964714 L345.36195786550053 546.4143133697864 L344.5637946101346 544.9645020861741 L343.7998504603715 543.4976080340833 L343.47108947444167 541.9071138726488 L343.0800693514683 540.33455879024 L342.87956009173956 538.7153238966465 L343.55853346848767 536.8926458799651 L344.0231698223971 535.1403809998218 L344.1074094808872 533.48697847718 L345.802489450085 531.5131401924272 L345.35846451334885 529.9961133726739 L347.40438390742577 528.0189048448366 L348.2375578996528 526.2999538849346 L348.9521313810237 524.6229193434485 L348.8374924002244 523.0922867200281 L348.17761640365507 521.641755942959 L346.4731165050462 520.3204394490049 L344.8427939156369 518.9595059711341 L343.16439497605006 517.5747141501527 L341.89123712972173 516.1181792391426 L340.2774900297825 514.6704560214018 L338.71325116403614 513.1890950140196 L337.5368947445709 511.65107751805095 L335.5805405529222 510.1398564254933 L335.2267228222438 508.5086413895894 L334.05930772956657 506.9058964719236 L334.2717158566907 505.23753890872604 L334.11845602584367 503.5823794860322 L334.3292691095396 501.92064943240297 L334.5256797119266 500.2635434930593 L334.27545499897724 498.6066635127307 L334.201820374289 496.9477507340493 L335.13308088795446 495.31530810268544 L334.35963553840986 493.635063143873 L335.5930545810521 492.03527389772745 L335.48511634310995 490.3801806366165 L335.05701335203946 488.6990546363253 L336.2676496924468 487.1358082984692 L335.4822630760232 485.4174118132657 L335.78714735306505 483.7878823601028 L335.8549842967336 482.135437173069 L335.65585805861053 480.4489903999266 L336.0967121019847 478.8371716208349 L335.81373819187337 477.12918603800307 L335.88462437804344 475.4636721292833 L336.65620905474185 473.90652398983013 L334.923044784731 471.93399804850384 L336.14605313801474 470.45310038039537 L335.4070885765384 468.6172702282426 L335.32425163123946 466.8915338178761 L336.6593626482229 465.4570485922425 L336.5574870323668 463.72430686015844 L337.5871217739316 462.2448495325914 L338.89145186717616 460.84589792879495 L339.24144878648326 459.2242179319598 L341.1338366014716 458.00898803780785 L341.605498399084 456.4345035976646 L342.4718850682269 454.97361800429 L344.50556921753366 453.8680476552473 L343.4811731010535 451.8560524575723 L345.33357642621036 450.7275580402548 L344.93208636022916 448.886083369214 L344.66040322443996 447.0686029112009 L345.87724359833885 445.7571210801996 L345.05767188229504 443.72112338267607 L345.04791977987884 441.9571758368454 L345.54537015087556 440.37556379592206 L345.69861505073754 438.6548360690169 L346.30396271050654 437.10844631314086 L346.9173226456745 435.56487826250964 L347.4407352082378 433.98165629190277 L348.94004975199175 432.8291340875778 L347.4184942882439 430.31682171186856 L349.3056907533543 429.34903112635226 L349.45245124359326 427.5727354479876 L349.3073006611838 425.63816642468225 L351.62421414901866 424.92720722333934 L350.87854281754085 422.66737192801173 L351.03165955374703 420.84654925936115 L351.58958412137014 419.2296628251109 L351.965253826727 417.5047349578664 L353.7219975532631 416.5558617372951 L354.56131660141796 415.0958641948421 L355.86448324231196 413.9126459146452 L358.64138023146114 413.6417545882256 L356.67917708967025 410.4627415595216 L359.9780495085075 410.5646391846354 L357.8451396985556 407.1878698238231 L358.20313776844864 405.38583763523104 L359.394797683525 404.1351949240087 L359.37666010000873 402.04869290653244 L360.84496807541655 400.990170571436 L361.5401505668938 399.38424098652433 L363.16768636183946 398.4606783294555 L364.5919292439885 397.40206702421426 L365.5919469604263 396.02783195857853 L367.26643865360086 395.1849349996428 L369.0051873664442 394.4141701610597 L367.9583623425659 391.3743515753099 L371.1537709032357 391.8246404611997 L370.05555182200743 388.66838404740713 L371.4167279209507 387.5855563543454 L372.57487971273446 386.3299837209898 L373.1665600955823 384.55959311760523 L374.1323368897187 383.11601651394375 L375.29659343442376 381.8529186888049 L376.8339060149608 380.9497555652721 L378.64743590854334 380.3323912758077 L378.79639580730924 378.06474427188977 L381.20335126392393 378.0715375600423 L383.290517332309 377.7922568227567 L382.8932788165539 374.89516819491456 L386.0510878724177 375.80227542832995 L384.7436753164644 371.8276182750442 L386.4848965427554 371.19635198523383 L386.6390767368202 368.748310459104 L388.84549231201436 368.67075459941714 L389.4947253522056 366.7584310431291 L391.87773137256886 366.94612972368503 L393.3670125142872 366.06420288242737 L395.3360978991457 365.80518517740165 L396.3837928365654 364.3732948845079 L396.40062684016357 361.546983137673 L397.78975699005184 360.5171693258036 L398.34885599142353 358.3302237912186 L400.15608264794866 357.8695394634984 L401.8830821050593 357.3155483772704 L403.97655708697266 357.32478027675126 L404.86506111406726 355.5471659246655 L406.9985276603697 355.66491845515947 L407.67459724830815 353.5174356407093 L409.9814198352774 353.9600693388684 L411.2840621938265 352.79801442127587 L413.1982525981033 352.66128972314084 L413.98278691155264 350.59668949179036 L415.1704509375825 349.1917433961446 L416.58962905209086 348.18150964478275 L418.24411256842336 347.60135386374884 L420.12696563626247 347.46898695527204 L421.2783939682265 345.9384277021882 L422.5831303856461 344.67783558422946 L423.4853656615847 342.56406994391966 L425.0888235405755 341.8602152952461 L426.44060413708445 340.6134357176413 L428.10277075704005 340.0296677440123 L429.8820732089921 339.7210858794218 L431.59130221943167 339.26984427724767 L433.0150712578609 338.1421294131951 L434.7115743085759 337.66587590621623 L436.6508013213035 337.8215215147028 L438.5310107325126 337.8694862240976 L440.59796663087127 338.466498630205 L442.2087591799186 337.85956297812663 L443.9403027032218 337.6005370905604 L444.69655385874046 334.44205825897666 L446.7292196140904 335.05641587736613 L447.66440993018153 332.23394100581885 L449.29586448973055 331.5568818145494 L451.5270076922905 332.9339171657539 L452.88086325797667 331.3148177964408 L455.1416770090995 332.9804157728651 L456.8392620854926 332.6378075363015 L458.48346280041136 332.08696647264753 L460.4132697860439 332.73075653781075 L462.0210228603488 332.0474513456477 L463.69853809666114 331.6580670886202 L465.5718756960394 332.22030178068735 L467.0756308250281 330.98227558414726 L469.1758904268597 332.876122849558 L470.29167186857813 329.37741695785996 L471.46553246268223 325.8305106345921 L472.59488600045916 321.55765291372313 L473.74050558376234 316.8272087886278 L475.58251443222537 316.6413493865257 L477.404597790604 316.3031508081541 L479.2262838966241 315.9412420916374 L481.1472185204842 316.51488028335933 L482.90838765275606 315.53043641242925 L484.83255497623077 316.3211776225637 L486.77951532261835 317.68794046784785 L488.50190916301926 315.94235773815234 L490.4571886105395 318.01364896221537 L492.1479176720275 314.87219668195195 L493.9958510943131 314.6885408357521 L495.8220385831333 313.4232452245069 L497.68827921625586 313.41462833551714 L499.552379637664 312.6315671586176 L501.418512175067 313.62749587798055 L503.28369936683055 313.56219265367497 L505.110877554498 314.94422266324995 L507.0136841897501 313.60843737169154 L508.93244030410244 312.5289066105381 L510.8631293009246 311.64873727104316 L512.75249339795 311.6718852290094 L514.6946948800197 311.04257172543714 L516.5506718104754 311.5727421967881 L518.4836731382468 311.2412687587864 L520.4222510169385 310.95468307958424 L522.2863060452219 311.3828628341421 L524.229853073664 311.1590529423298 L525.9533850802338 312.5923829848813 L527.7518003927897 313.3611865847564 L529.5471804363383 314.0858960096892 L531.5267893006676 313.66975264812424 L533.595545305288 312.840805166682 L535.6496140857214 312.2159050040018 L537.4106305042931 313.15619457982757 L539.3946689495734 312.98181968463336 L541.2241411214625 313.5601743621985 L543.1703934828345 313.6193069190654 L545.6618414421166 311.45971706557987 L547.1723181892128 313.39970046293377 L549.4400208073953 312.3469968867938 L550.5995489733352 315.4566438899946 L552.2854757357813 316.52260484597593 L553.5838593297289 318.8589594432042 L555.4514915713604 319.21171292589986 L557.4724831955217 319.0956401815773 L559.5357620940808 318.89720515082263 L561.488348392776 319.07623793512306 L563.2970420444194 319.6928632583081 L565.7265800016113 318.596995335197 L567.1309742697212 320.35067195585674 L569.9468744073698 318.3751562214038 L570.9252475025581 321.1872056944364 L572.4837270939133 322.45912605401367 L573.2809012447566 325.5133691033463 L574.4233631972436 327.64145744229495 L576.5610472018832 327.45258174244555 L578.8386155917972 327.0069009599481 L580.8376139929509 327.2203408112347 L582.7636802217813 327.61589849810986 L583.9350414490476 329.56551860970706 L585.2519424827072 331.1722794245575 L587.1599230660056 331.60045249964804 L589.3881779951505 331.44590821712654 L591.4587929619228 331.63102998019997 L593.0104396105728 332.78314012002636 L596.9091725228859 329.80296288208945 L600.3232512428523 327.8340137226505 L604.3133048367063 325.032539235106 L608.9231197607239 321.3856873412308 L610.8304701939771 322.28069150874524 L612.703357118061 323.23904238887866 L614.0066717281419 325.07857572431624 L615.1112998150387 327.18646803090155 L616.4486953671096 328.91178491691926 L619.0784667802309 328.75495113036845 L619.5121679311118 331.7461288345105 L623.1806839399327 330.2038334909628 L623.5785760591559 333.19062338135507 L627.0273564258032 332.0724934286966 L628.1673978044663 334.0411141595629 L630.1270400019507 334.94230286491296 L631.4877667367208 336.6038737014541 L633.0613802432583 337.9923373734505 L634.2097037452754 339.885868309433 L635.4696643468321 341.62693547296453 L636.8666003725012 343.19574315804755 L638.7513208253594 344.20894510011817 L642.2686480643406 343.4403195935888 L643.9299787582195 344.75985302973015 L646.6142724388059 345.00264417199514 L648.2694778469572 346.35984570903986 L649.7491357978143 347.90027621904585 L650.769769509938 349.8960219199206 L652.3499628091862 351.3265753320297 L653.0618262503124 353.5913623929346 L654.3941509680794 355.24561241446133 L655.7307878365602 356.89156746066 L656.9271396918418 358.6603867807189 L659.1575277779027 359.50857750750663 L660.9822150492992 360.7371080505867 L664.1226280110156 360.865342495987 L664.9268241768474 362.99441097818385 L666.6385434880913 364.36567672401304 L666.5989658294193 367.14533356829645 L668.6890396068094 368.2164919903322 L669.3602108337095 370.3983270584258 L672.030663472218 371.06186911211864 L672.0037978949752 373.7483961016759 L673.1102850443572 375.58066411179203 L674.0370327277703 377.5352310883021 L673.887746932309 380.2220848167772 L676.5380502275011 380.98178616084186 L677.018978286017 383.2151682853225 L679.837200032538 383.92017282566985 L680.1801631598867 386.2350068578964 L681.0972021809821 388.17311842592517 L680.8874689318073 390.78597815400565 L681.7312507106612 392.74151673505344 L681.5936202743792 395.2569615341189 L683.9126156044456 396.3563899035662 L683.2158020458535 399.1496561438996 L684.3865207806745 400.89470475020084 L684.5433487753337 403.17633841261636 L683.9405578249354 405.82618403031717 L685.7234781987032 407.2455614834148 L686.8334765470547 409.01402003108456 L689.6812817953377 409.96253205324774 L691.1993053407492 411.57377052352706 L691.6752762045229 413.6697344553161 L691.3937603174187 416.08847907280506 L691.0706046825462 418.4982625101403 L688.8042833979289 421.68713141565394 L690.5044069819216 423.20559707168417 L688.1493061759533 426.33348729881646 L692.9017775610608 426.6888700292609 L696.4812520989177 427.56867081322116 L699.442636031047 428.73419660120686 L705.3090071265652 428.9450605299804 L705.2008413576924 431.2724378242795 L707.2660969618801 432.8782725375118 L708.1504039436284 434.8843487856117 L708.8371419152759 436.95518725306016 L709.0566673810937 439.1632154418207 L709.9394110325889 441.1769800030919 L707.3138488794302 444.1423580654232 L710.9627587941307 445.4159847533864 L708.0332190989874 448.3879129715051 L711.9577011807171 449.6588129812518 L711.9320553413487 451.8985427848394 L713.6848264563797 453.74263429839954 L715.5362970805547 455.59340477171116 L716.4855670554634 457.6500119520432 L717.5423309812902 459.6976224930728 L717.4614696243283 461.9577704671328 L717.9145565295689 464.1204955558155 L718.1597920795143 466.31724861150116 L719.6446912272012 468.33340117183116 L720.5080359647422 470.4566795557003 L721.5825557762954 472.5653742061543 L722.2291761972376 474.7389578415216 L722.6281801758017 476.94616505033207 L723.1719238222239 479.14325087711103 L722.4666970526819 481.45123516595686 L722.7556085727813 483.6683940978976 L723.1167831433668 485.88350636820724 L723.3140005701338 488.11176484235847 L723.6668346098922 490.3348698993039 L723.7682050715894 492.57145624664264 L724.6118051429457 494.7913729542702 L725.334775310279 497.0287195792715 L725.3409449054238 499.282217442732 L725.3289522345065 501.53557136374144 L724.1835195477065 503.7699323191532 L724.8924035999372 506.03186648259134 L724.736341294238 508.2773391937885 L725.2201966674046 510.5513235983596 L724.997631528483 512.7969434088345 L724.6623247456603 515.0331211791588 L725.3318146469524 517.3429181626552 L725.7920317249266 519.6514603483157 L725.8917682957265 521.9382279837447 L725.4402426447206 524.1723306922925 L724.6760575951279 526.3654988784725 L723.4896406865327 528.4946843361936 L722.7418503500511 530.6659346753959 L721.6129542413487 532.7718376297555 L721.6582434009106 535.0470200638059 L720.1919789337041 537.0758015430854 L720.4194113131654 539.3846819849823 L718.3979398903925 541.2813005256779 L718.5455336341977 543.5770983171155 L718.9306982103674 545.9348738825008 L718.5715715806964 548.146333862977 L719.7525475510748 550.7157937272465 L719.2671726645723 552.918653729104 L720.0995511338857 555.4544515824915 L718.699288225437 557.4334280861686 L718.6718908809981 559.7699943935645 L716.5005390748687 561.509703549292 L717.5361886044018 564.1616700855991 L714.1155173448717 565.4871383930767 L715.3681372916365 568.2327012054902 L712.8408926317256 569.781590805259 L715.874855403917 573.1750385274488 L719.5608420043521 576.880769182608 L722.0431998059722 580.2515058426342 L727.057650149861 584.6404154880162 L725.4106499671924 586.6034869842591 L723.8389373609643 588.578426472951 L723.4689564943228 591.0270079147231 L721.3556870133023 592.7576755332408 L721.5822103753352 595.4685628591626 L722.2284587605402 598.3932983252835 L717.3678294151681 598.8526614657354 L721.0756517648006 603.2191297362848 L717.0928128332864 604.0162252153345 L718.5843820276266 607.4315578810191 L717.2674089974231 609.495201715482 L715.5760214493164 611.3598670427564 L715.389156092208 614.0062419871981 L714.5909748860895 616.3455849579251 L713.7788923882481 618.6866647073316 L712.803099925369 620.9445092767339 L710.8006488991003 622.6113858150809 L709.9254030571975 624.928291268022 L709.3982252303438 627.4672084377728 L708.1765148632264 629.5942567260136 L707.2256024383504 631.8957248383028 L705.721787347309 633.8478053521968 L703.8804526025239 635.5707458316847 L703.0881515040489 637.992467192925 L701.2666062294979 639.71688057711 L701.525999627661 642.9043334878149 L699.4382894918266 644.4426574618474 L699.3763414173902 647.4596297037301 L697.569063735788 649.202258915259 L695.8175911896385 650.978014328796 L694.7154786478769 653.2571631997093 L693.3113069348764 655.3075812815063 L691.9368427439402 657.3872618893914 L689.9942058778538 658.998134963524 L687.3406714714093 659.9899057891278 L686.3106070048323 662.3600026344701 L683.950936630765 663.5687070465333 L682.7987286134888 665.8469710424617 L681.2801421358681 667.8045553532371 L680.0945293748864 670.0825269876879 L679.6147915582014 673.0601132808395 L678.1051637162983 675.0735898250596 L677.3791958128368 677.8824347018659 L675.1282504085086 679.1733204593733 L672.9356331991562 680.5062900552041 L670.2487826028787 681.2967584540299 L668.1248059147365 682.6614686461427 L666.0096486025686 684.0229884977139 L664.0544951696319 685.5532258538169 L661.4406364336313 686.3187119451504 L659.805570728735 688.201902263628 L657.7528952080478 689.5949834899935 L656.4145178748067 691.8565556621608 L655.0220064486414 694.0794252427677 L652.6646866685194 695.0974818301643 L650.5014603942436 696.34735673924 L648.16593844453 697.3569404735883 L646.2742851664128 698.9501542517122 L644.4715251173575 700.6724238232466 L641.6777319788766 701.0006538465959 L639.8998377693629 702.7539711471535 L637.272894315966 703.2655547529299 L634.538029434826 703.5758856711191 L633.4376965771457 706.3680990492022 L629.268699169828 704.3741190237826 L629.4245399900773 709.222718666011 L627.86388616649 711.395966952975 L627.4982218217614 715.6315749272351 L626.811588606083 719.4500396260105 L623.8579471820359 719.3737578355749 L621.4641139524837 720.2496797258232 L619.5131123770238 721.9315151980315 L616.6627724137845 721.9264346541515 L615.2005679535436 724.5690386447422 L613.0979592119984 726.0071568048587 L609.3160239572943 724.0195973276451 L609.1911906506714 729.560224878325 L605.7256639524516 728.1279515228446 L605.1691304096373 733.0066595879373 L602.6658342600049 733.6642975647623 L600.3654262394659 734.7759335490905 L597.8841493425668 735.458635330996 L595.1893438658692 735.5956541376238 L593.285975150443 737.7010137084014 L591.0876462631707 739.1031470573135 L589.1054183636746 741.1204976965998 L586.8066051916766 742.3255540474331 L584.335470514648 743.0558935628437 L581.3501398400907 742.2474975592849 L578.6883212681931 742.3242054443137 L576.3383595816616 743.344969346668 L574.0408841801194 744.5577707513639 L571.8225930324479 746.0772084936681 L569.3584675499825 746.7838185352126 L567.1939180577226 748.5998190619244 L564.6425633732941 749.0203292992987 L562.1150172671753 749.5171032055011 L559.4692915887781 749.5069620486145 L556.5961450261982 748.4423802930429 L553.7498464291418 747.3434835210649 L551.3246765600284 748.1147219012073 L548.8502035633036 748.6623806052547 L546.6953318895958 750.9341335792062 L544.3128795339703 752.1235287068059 L542.1049406187415 754.4605821573396 L539.580500524613 755.0121173168843 L536.949178377183 754.8484567977105 L534.6656983514395 757.1846586589211 L531.9697261243085 756.5359886538879 L529.6182354024179 758.7246584046594 L526.9518004472096 758.2628626235091 L524.1248795196287 755.9415983203095 L521.4900202238408 755.2876505289862 L518.7511110154541 752.9937158744001 L516.1835872906038 752.5958927001972 L513.6537312746547 752.6871695491272 L511.12789308885385 752.8491088623732 L508.57224464065905 752.1640009733086 L506.0259160917889 751.2239511311441 L503.48285123452786 749.0856425107702 L500.99854176460025 750.785605658237 L498.489396892807 750.9958454492444 L495.92296001711276 754.5010685783834 L493.3530799196573 755.4126618384291 L490.76922552342404 756.1688212172882 L488.20349418808144 756.1624529515791 L485.6695425013554 755.549482161938 L483.09813922632327 755.6455042708894 L480.739248913766 752.8814613998316 L478.09693720921894 754.0040658425443 L475.5483886855116 753.872482973672 L472.96377678589374 754.058362520394 L470.440118140249 753.6420378127667 L467.9005034663674 753.370975292765 L465.2624541424702 753.8117151038961 L461.92806113131655 758.8781988480634 L458.9671819351678 760.862493066543 L455.7075860695645 764.3366193337497 L453.4253313301228 761.8628607735839 L451.1125982260943 759.7712089122552 L449.1294167228787 756.1870724689293 L447.33367654978883 752.0119540333721 L444.6703940476624 752.1372847374155 L442.26172423259413 751.0934793018976 L439.6151767997094 751.079605526154 L435.4449376250216 757.0839672214768 L433.2665670497994 754.9387356319844 L429.25817634289615 759.6256750946841 L426.6225618763129 759.0568789838487 L424.11258530888057 758.0487394566389 L421.1005868217949 758.7044460280092 L419.0254968491355 756.2947506292234 L416.53086542147616 755.275784510302 L413.45338818249513 755.9928607499302 L411.2315517523498 754.1591062724438 L408.6670612388921 753.3346745340232 L406.48685479830795 751.4714382266277 L404.5099189931619 749.1329961112677 L402.357576707196 747.3192286847241 L399.9550330555573 746.1687323645688 L396.3852007188955 747.8184347303913 L393.68772664211747 747.292148166593 L391.26585023571243 746.1132659248403 L388.0194179142154 746.7561639526807 L386.0165122758712 744.6388689470347 L382.6569044569259 745.408711475882 L379.74469053208463 745.1690751828112 L377.74314681073724 743.0713362270803 L375.14062173888544 742.1818220614456 L372.90626294577 740.5781882720421 L370.0030576523011 740.2262678776284 L367.39616158580026 739.2953897123082 L364.97015092653317 738.0274381932711 L362.1263086421057 737.4754133222965 L359.9148966229368 735.8215244353539 L358.21329187497236 733.3399063979739 L354.7091892182548 733.8057938932384 L352.28234541020686 732.4924545479987 L348.2436896231411 733.6536791847489 L345.3593462182878 732.9612013082209 L342.9967921106715 731.4631938729806 L341.4514708432295 728.782895592874 L339.4496869499252 726.7931828012297 L337.55882427121566 724.6660120562376 L335.6079417376109 722.6408646791328 L333.73352930148974 720.5299156413777 L330.5954490998721 720.078905892851 L329.34949142571764 717.1695934956928 L327.98884719895096 714.4517772989296 L324.17682714308637 714.7683786867678 L323.81267239075476 710.8753299869159 L318.2860689820676 713.1219172080403 L316.27466825505 711.1669208977813 L313.95548501614803 709.5632738965828 L313.3359295647732 706.0731319282094 L312.21167892091614 703.1930522160419 L310.350844170012 701.1335778993691 L308.93686815624466 698.6159796457232 L306.897336948406 696.7595993227928 L304.5635333984277 695.1941964067618 L303.27455336484684 692.5906750831749 L303.67252759014593 688.3933270247418 L299.8623146573261 688.2417114094658 L298.7786656437863 685.5038340725872 L291.89131101201144 688.0384927902916 L287.66208296617697 688.0373153356944 L282.8154336263573 688.488155638249 L280.4389935751215 686.7342492954552 L278.68463781975186 684.4443509518844 L277.41934651267167 681.7581408359206 L276.3912478036027 678.9005775393991 L274.08248203156097 677.0717511011819 L271.7942968753076 675.2097520159992 L271.2769163403418 671.9990715301473 L268.9430707281869 670.163800777959 L266.2874240581999 668.5410939232061 L264.3322436050289 666.3943226166523 L261.0397098603893 665.1631677714613 L259.3754358188563 662.7820004997343 L257.93336464777065 660.252669498742 L256.9759234740376 657.4140464440165 L255.31010207242863 655.0417828075759 L253.9737539665499 652.4621115344854 L252.43846631985056 650.0081995773568 L250.6151723872319 647.7239277564502 L248.68382775968408 645.4928601391379 L246.66894389572434 643.2963250468399 L245.10454015142489 640.83552750263 L243.24275831217238 638.5311049087969 L242.121446978589 635.8243741960652 L240.47484506104786 633.3936930482862 L238.55851708947773 631.0903515606766 L237.49351454982042 628.3555920784956 L236.08858176564144 625.7882712582777 L235.676977405657 622.7560238352143 L235.25548583184536 619.7480895096174 L234.94030707987946 616.712040077366 L233.6441323279384 614.1166297435349 L232.7461379572136 611.3516485476626 L230.74128822934983 609.0399632797205 L230.01655860723207 606.2034284381403 L229.0756412354893 603.4572398799604 L228.1337139895188 600.7135725669737 L226.23632065054136 598.3145179823064 L224.36708674414865 595.885024152424 L223.52020498657123 593.0908925291204 L222.44168634042256 590.3740546042975 L221.82787803276932 587.5071628167846 L221.42981533780284 584.5805087977221 L219.21820516793406 582.1945241331413 L218.92385672424422 579.2378706221928 L218.00262165438141 576.4619469843567 L218.25295610795064 573.3775403368224 L217.85380119853096 570.4763860981409 L217.91744537203016 567.4710297282992 L216.35348309291834 564.8534251034366 L214.37045169690379 562.307971338179 L213.17876297945872 559.5696702709951 L211.62854431770853 556.8896656199441 L211.43301123592767 553.9360659921082 L211.8093261779655 550.8886070635007 L211.22057315702227 548.0198821668956 L211.79166789084127 544.9679601296934 L211.11260796750793 542.1192217561176 L209.9596542312704 539.3294765083951 L208.94805241881932 536.506528726573 L207.55849318992404 533.7140192608833 L207.12639597738894 530.7994914995986 L205.2417437743984 528.0205382745394 L203.94586166737696 525.1591705504748 L203.41954260920107 522.2191117786379 L204.19036691917415 519.1887922205607 L204.19805611549913 516.2196535564432 L204.14393306528956 513.2566927234781 L197.32350933018773 510.5307171178868 L194.85069250902148 507.5625252973082 L189.12474537195072 504.5944367787927 L190.20109412901155 501.4802182826368 L189.680726319676 498.3794858485374 L190.01248725912887 495.28099343338465 L188.3090279295684 492.13685061980385 L187.06309553968384 488.97316376214445 L187.3672976418544 485.8524662971785 L190.24569531563048 482.8773270490009 L192.7979773442915 479.9351982383792 L196.2917401824161 477.1112581945632 L197.95028135813754 474.1962075340173 L194.83433750898837 470.85335684632406 L196.55662090279924 467.95270904615944 L193.11437827135603 464.48269625512563 L193.75765771973153 461.45000328136985 L192.40813763106144 458.1514225726258 L191.23251081895762 454.842257843011 L190.44076986466274 451.5599222076597 L187.95362209997694 447.96874187645096 L190.8293363045114 445.265165673146 L195.6587982008278 442.9756907416788 L197.5627821992988 440.19590813028606 L203.2456458789709 438.2298493832629 L203.362561884076 435.15272677585847 L201.43501036602987 431.5960580835599 L203.8003321643277 429.01323678221047 L200.10140548253162 424.94779673949563 L199.86779293141802 421.6919318601599 L199.24420494711597 418.3084219564598 L197.4484231868238 414.56296072366166 L196.68777381363782 411.06378495722663 L196.84913534426732 407.80916119304857 L200.44301245014248 405.61939175237075 L206.0939612975829 404.1586878409122 L206.21835881685445 400.93829279840145 L211.6697113932205 399.55435374457335 L210.1397179471332 395.7594955219075 L208.52006271350558 391.873271415896 L210.02881551733844 389.1218215305404 L206.94663253407782 384.57124852004074 L206.42539367754227 380.96120820639334 L209.80410494390998 378.938256026179 L208.04116338905186 374.760638039084 L211.1088286600044 372.6412035123901 L210.94389522571532 369.10074085107647 L211.65946156669503 365.93414567043453 L211.99564135139644 362.5713099588054 L212.1986080848007 359.1177726953605 L211.81354374373262 355.3391627367423 L212.55224839431725 352.0929233762064 L214.8920900399404 349.67217960396334 L217.4974396716545 347.41622334236786 L221.76527320075536 346.10768011591995 L223.12929606109344 343.22617639612895 L228.0600366054145 342.4062626187089 L225.46184455120385 337.21167709727774 L229.21759232192568 335.7568281549668 L227.9121320606045 331.22026310180144 L229.69588369796088 328.56011685494485 L230.4792719875038 325.25331776850715 L229.75435831438142 320.91964002905627 L229.63834328883985 316.9258597271995 L230.03891863511797 313.232678254819 L231.39912040554526 310.17429305401134 L236.8482951605402 310.05127995803196 L239.93493094880705 308.29472736709147 L243.82380659150948 307.17811807003585 L245.4521131947978 304.38574563711325 L245.7660270169811 300.5517916281782 L247.20803370126515 297.56689751950415 L248.31159838107573 294.2862638877409 L249.88028340013605 291.36179460187896 L250.71730498099336 287.79693086387624 L252.37455638461142 284.900228974454 L252.14770842234185 280.3162259308325 L254.33331029161553 277.82739282647447 L255.17303193521693 274.09538456748 L259.02948370128036 273.1507573649329 L261.7248385168499 271.1508751909412 L264.07777961630643 268.8311207199592 L266.45848171926235 266.54073184461276 L267.7727142347818 263.1645519364747 L268.9525440422002 259.6055130539212 L271.24583692205846 257.17741930778607 L272.4104228263816 253.52119567549542 L275.6837536152889 252.1385441615272 L278.1166839258068 249.84370831168644 L280.69266870401793 247.71031966621428 L282.914794306232 245.16399965710227 L285.2161295298144 242.69704712733716 L287.6052554248802 240.32418965017018 L290.4923480298397 238.56236216319388 L292.0765945109998 235.15496396775472 L294.16980563513084 232.35355353639 L295.69457600535475 228.76608654453116 L297.30329020019695 225.2267809556335 L299.47588614007395 222.4034267064182 L301.23188098796675 218.95582059011042 L304.30078974393246 217.34125536289247 L307.4791453573892 215.90315197970062 L310.6972699256777 214.5464579984386 L313.69810972120285 212.8786996156478 L317.1702666887718 211.9622206384991 L319.7885033773328 209.71144516408924 L323.5962526804867 209.39974592610872 L326.1470309699049 207.0368909327742 L328.921422650612 205.03047489147406 L331.34278122656315 202.3871546911372 L333.5592878173504 199.32810500995936 L336.5882461248202 197.7045975813689 L338.69317710420495 194.3306210720902 L341.79819253884557 192.81112993008105 L344.5879233089539 190.66724714791582 L348.03114587878997 189.82701038854162 L351.36124042993475 188.7851968879595 L355.3723701303137 189.2302308335037 L358.4536948555958 187.72549466248802 L362.18598789647484 187.69108319060564 L364.9018634296921 185.36427773940017 L368.0389648472975 183.99083515306353 L370.4959248100945 180.93860377104727 L373.8268621047261 179.99913874960686 L376.9596696639609 178.56152628213516 L379.8347429102288 176.41709006356814 L383.2331312873315 175.666624872979 L386.19816582010924 173.70065129031946 L389.1694540067694 171.69818449772936 L391.90522693741775 168.9133333625096 L394.91286313194655 166.8707504069195 L397.8904913940845 164.65799617048287 L401.33069379316873 163.93206726947506 L404.75852797111173 163.18243551542082 L407.74254062684923 160.81720835222598 L410.93007052297867 159.11228254184368 L413.9413544333721 156.63474342002064 L417.1457539476982 154.81855372293154 L420.4045226586452 153.14825029911503 L423.6584389782297 151.37172384020948 L427.03216227566776 150.06792369670404 L430.36613003208674 148.50296520418522 L433.9283060834431 148.05742869742227 L437.34903851452043 146.8396993750345 L440.7683734215328 145.54061922780443 L444.2486465500517 144.53743050835976 L447.75059456393905 143.61978881046286 L451.2713897566594 142.78113206315646 L454.9438174188644 143.08693069883418 L458.52050902708027 142.70045785993494 L462.12029389304445 142.5373314056065 L465.7336420726537 142.5611899147205 L469.33411402163256 142.52119095489064 L472.9900172232826 143.2842201608072 L476.5882712923918 143.48583505468872 L480.20004659269887 144.08783244379816 L483.7447384682851 143.5708225675645 L487.3221579972118 143.77379404429826 L490.8729675849226 143.1946548728995 L494.4517758662731 143.78623972418734 L498.0120779341421 143.38017140271154 L501.57459450139385 144.21903957265312 L505.13997432894274 143.718270272057 L508.6884889296862 144.35997564576502 L512.251083822949 144.2704343217356 L515.8001337136872 144.58110253117286 L519.3322366836987 145.146684023308 L522.8929005570283 145.1538169903278 L526.4763682134461 144.91486291586824 L530.1527565722612 143.69761656860027 L533.7859164031274 143.2598533900595 L537.5805175972833 141.4310659533313 L541.2448632361343 141.12352584862282 L545.0369375969831 139.91140178510943 L548.7838238112523 139.2831202217194 L552.587685439905 138.41938763776926 L556.416395809368 137.57834916781673 L560.1599894468573 137.42379005950312 L563.9036800264084 137.35687068902507 L567.5918875450726 137.66541780028257 L571.3121369363545 137.8498594267959 L574.9769772152287 138.3545452691357 L578.729015034968 138.48230545317062 L582.4243078153784 138.91918181492946 L586.1064346901461 139.4453226157766 L589.7913745778972 139.98857713890862 L593.4244171106128 140.7603649304828 L597.072003087698 141.4912548069418 L600.6524463508114 142.47892801601523 L604.2868082761789 143.2835650544058 L607.9064253236371 144.15388526739804 L611.6511793554171 144.64043639546338 L615.3847061270069 145.20408020472024 L619.1840738414219 145.61076389582712 L622.8880516762526 146.34227670195747 L626.4930624237148 147.3807576714239 L630.0528883658601 148.55515949146678 L633.7504051185209 149.37612902309104 L637.4006164269301 150.34759853236977 L641.1087121246171 151.19896294332176 L644.8608948516286 151.97570966770553 L648.3854101427273 153.3212025914463 L652.1553006416082 154.11634778902982 L655.6262444528741 155.6114141893188 L659.2299271194894 156.82357775338437 L662.7891053521354 158.14860539324718 L666.3394406552736 159.50694865589446 L669.9349926809236 160.79012251437962 L673.4460776440321 162.25805405418959 L677.0280330483183 163.6041190515433 L680.5283978561542 165.12163464841234 L684.0795564792716 166.56060153156136 L687.6419714959027 167.99820918535255 L691.1047445152105 169.62809519059368 L694.5866966946184 171.2382606469775 L698.0064820608541 172.96608057904905 L701.4111617208368 174.72943325036488 L704.8112411608213 176.51101385127976 L708.1674504759078 178.37191712665623 L711.5490935350747 180.20384705468092 L714.8400023812953 182.18206702986578 L718.2142282007137 184.04683564969912 L721.5940553707338 185.91695742052468 L725.0476998525526 187.69902189138844 L728.4765315815242 189.53414852615725 L731.8097983427166 191.51490315517157 L735.0609217267769 193.6164893679541 L738.2448341742106 195.81399511248975 L741.4327143349104 198.01400656566136 L744.6765742686274 200.15403028964113 L747.8838730032816 202.35023143680723 L751.111523646441 204.53375454639286 L754.3216189544987 206.75053626867793 L757.4433941923223 209.08005407073188 L760.5538073847783 211.43183329896965 L763.6129352659709 213.84928752208435 L766.6041167475184 216.3476397344192 L769.6219877011038 218.82475032182504 L772.545073683515 221.40735199140784 L775.5583037020459 223.905240576964 L778.4678480647608 226.51506808756102 L781.4351128030212 229.0761922068516 L784.3589004507446 231.68828043752166 L787.1625970561568 234.4205302835731 L790.03376300998 237.09710762418013 L792.8476503282566 239.8333911185997 L795.6449784670458 242.5916842678866 L798.4669644128264 245.33678585612145 L801.2569357025433 248.11816937670528 L804.0702604315397 250.88963277657862 L806.8866391515542 253.66941287178 L809.6188402398235 256.52699670798006 L812.2152000951971 259.4988464632453 L814.7791973199708 262.5012093929613 L817.2810446256032 265.55542614305693 L819.7915753923769 268.6082246618791 L822.3315329886641 271.64616509564394 L824.9268738436608 274.65339620773585 L827.4013531357668 277.75279561728723 L829.8976876399092 280.8450374088188 L832.2750736292711 284.02337932192995 L834.6106725672471 287.2344816118873 L836.9297220475746 290.4617149138164 L839.1383344315936 293.76230948567127 L841.1495475847926 297.1842639521337 L843.5895714019575 300.3565966094859 L845.4756150957082 303.85531904549845 L847.9049106345652 307.0507561292103 L849.9041802011037 310.4921648047832 L851.934861373719 313.9196586659135 L853.6437588321587 317.5175410552912 L855.2012670355284 321.1886964676002 L856.4755806046805 324.99309975558174 L858.0558140502305 328.639283334031 L860.1233531402594 332.0549298002066 L862.6611453131535 335.2664196077425 L865.8090709097831 338.2295758328411 L868.4528217696436 341.44628024049075 L871.1509596093495 344.66530599844873 L872.9222670988312 348.28828997875996 L874.6580769758255 351.93122728668936 L876.3582242531239 355.5937466544077 L878.022347374768 359.27555144330785 L879.6511102439184 362.9759672387705 L881.2432785260512 366.6950218574459 L882.7995819068152 370.4320310772992 L884.3189006470467 374.18695675969263 L885.8012988217988 377.95934445337116 L887.2466852406365 381.7487977157485 L888.6548656096443 385.5549539547113 L890.0254429026171 389.37750687990155 L891.3585714343295 393.2159896793121 L892.6538088259244 397.0701054748062 L893.9111178212552 400.93944323632576 L895.130322881739 404.8236301487858 L896.3111218273933 408.7223214060571 L897.4533411843904 412.635137278359 L898.5569216046575 416.5616728046259 L899.6219516707145 420.5014968587147 L900.6477855273871 424.45432600270675 L901.634750946379 428.4196818632162 L902.5822536592491 432.39725962837616 L903.4903733304741 436.3866287801581 L904.3588570719614 440.38741595051044 L905.1878552741334 444.39918675647596 L905.976967866144 448.4215873622569 L906.7261024843281 452.45421599475196 L907.4350099781202 456.4966880274506 L908.1038877968222 460.5485695633463 L908.7323405815316 464.60948981609874 L909.3204720859832 468.679027501501 L909.868177131923 472.7567828702446 L910.3749147567742 476.8423798319982 L910.8411879356111 480.93537528479493 L911.2664252144434 485.0353883637949 L911.6508332779545 489.14199758958483 L911.9941711175875 493.2547997310375 L912.2964009622514 497.373383094096 L912.4827951377882 499.9999999999998 L912.2064268779625 495.87779832358166 L911.8893238809943 491.76111497508185 L911.5309690793003 487.6503658150531 L911.1318364693732 483.5459501117562 L910.6916985067302 479.4482857910717 L910.2106830936693 475.35778125249004 L909.6890508224194 471.274833336586 L909.1269793961777 467.1998380959321 L908.5242143623393 463.1332266260255 L907.8812959520211 459.07536392086604 L907.1977516939373 455.0267085462109 L906.4739821531543 450.9876366383336 L905.7102943439413 446.958524230674 L904.9065946720889 442.93979538136995 L904.0633527041115 438.93179707969944 L903.1802925002607 434.93498181724453 L902.2578552579225 430.94969487344906 L901.2957926770976 426.97639360073686 L900.294879679308 423.0153537658054 L899.2546336119839 419.0670790435143 L898.1755935128645 415.1318807051591 L897.0579120562231 411.2101393965726 L895.9013727463839 407.30232142560277 L894.7066568332118 403.4086884003285 L893.4735284693579 399.5297132910161 L892.2024129276626 395.6657094442239 L890.8934853257348 391.81704767555823 L889.5468073726565 387.9841304610183 L888.1625336854622 384.16733668107275 L886.7408081614836 380.3670488323344 L885.2818862835968 376.5836146150615 L883.785857539563 372.8174329364941 L882.2539428494308 369.06851886266645 L880.6848551465168 365.3377278236984 L879.0795454022659 361.6251641208123 L877.4377304235661 357.9313619512782 L875.7595828024399 354.2567001917661 L874.0460414835813 350.60125262223966 L872.297084795277 346.96545339806437 L870.5130291805879 343.3496038083164 L870.1074997635583 339.139731546315 L868.5263457524777 335.4262514043627 L868.0153295535033 331.22043290180227 L866.2532546410671 327.57509966293736 L864.3841221577236 323.98240396146565 L861.7575899010353 320.76764736388145 L859.3327041673592 317.47124055413474 L856.5941462457652 314.35322048933574 L854.376963429197 310.97952826558526 L852.1737785859846 307.6065879007855 L850.0749563638246 304.1825220288756 L848.012467465325 300.7413446776592 L845.698674626196 297.4492653037735 L843.4968542340416 294.09781010899286 L840.9625727750562 290.954069095483 L838.5494706314998 287.74656679524946 L836.1360671430882 284.5473518654164 L833.6874942750718 281.3784820046922 L831.3123429636721 278.1679502867673 L828.8829736167211 274.99905211193743 L826.4085341009345 271.86691870855 L823.9342341711476 268.74043265996056 L821.4236152336371 265.6453078072796 L818.8627518179317 262.59270799758906 L816.3159309931868 259.5352377429216 L813.6956627877089 256.53925497271666 L811.0546907016444 253.5656227228225 L808.4209654328474 250.5918779702832 L805.7165038880947 247.68113136454448 L803.0454021939196 244.7483789793084 L800.3172676188883 241.86869982194577 L797.6016478000718 238.98314776470886 L794.8166587951766 236.16340413052217 L792.0402481291569 233.34110613844535 L789.1719519238145 230.6084332726652 L786.3217986217592 227.86502829581804 L783.4365684323787 225.16053660504178 L780.5786241646585 222.4343590441556 L777.6370079112115 219.79588024792542 L774.6584565906544 217.20106307432786 L771.6281875745683 214.66677362060278 L768.5495705087448 212.19174007642147 L765.5062601982843 209.68671536565205 L762.4185838025455 207.23733904618365 L759.3623573218829 204.75934408046749 L756.2750565175958 202.32220693281045 L753.2234732670947 199.84792192480722 L750.1101457081054 197.4507303964984 L746.9448899763706 195.12197242026832 L743.7568980598421 192.82774182532143 L740.500932673244 190.6269641743545 L737.2076758329994 188.4837701284095 L733.9942889496817 186.24318183231685 L730.7763013640565 184.013130754492 L727.6156929098827 181.70617798617775 L724.4402663297924 179.41906432296435 L721.1170560004643 177.34574253787213 L717.8089365419338 175.25596563752725 L714.3768603099473 173.35896413330397 L711.0099622487182 171.37145481472203 L707.5854944324411 169.48112522408462 L704.1556732183604 167.6079396074755 L700.7063433076961 165.7749674034136 L697.233085312696 163.99083384035566 L693.7691858959507 162.19921162463123 L690.3159279084167 160.3955323923828 L686.8731693447601 158.5774504313119 L683.3629200232871 156.88812492486187 L679.8824079752645 155.14890681969098 L676.3192631893612 153.57502488975553 L672.8168432559789 151.88842852425 L669.2570840042247 150.32243677556994 L665.6702083714509 148.82055191711805 L662.1033424935172 147.2833683734653 L658.4556660733963 145.9312976460261 L654.8488147167228 144.49831717642297 L651.2733927332902 142.99765352108085 L647.6741904756627 141.55540501143946 L644.0791274583808 140.10483578134642 L640.5206790068767 138.55950755019705 L636.8091235375887 137.41141507198523 L633.1546908885706 136.12095931689987 L629.3935237905685 135.13410570298436 L625.6382782034675 134.15014599522618 L622.0041905182926 132.81988813199536 L618.3615334066567 131.50869136079785 L614.6786965201878 130.31794768821715 L610.9658999840988 129.22409218371718 L607.1450790444084 128.5059763831303 L603.3177247951235 127.83897059704321 L599.4981611109692 127.17233333539656 L595.6766771104325 126.54065408600735 L591.8583930844813 125.92416237209505 L588.1199761980331 124.99505267204177 L584.3326249333612 124.27945435589874 L580.5970641432888 123.33435959289483 L576.8253240347898 122.55272173503676 L573.0001975519167 122.04604781735884 L569.1974555159953 121.44226598744712 L565.3906154053898 120.87281579575222 L561.6414021745718 119.95880234427239 L557.8964793579025 118.9763532526353 L554.2186627523591 117.46218948629678 L550.4709254678279 116.32880340419803 L546.7166198788959 115.14415233271643 L542.9489903487953 113.94837886454843 L539.11330669277 113.27207346349456 L535.3662051562658 111.55955386059264 L531.4865021035267 111.14621917264668 L527.6451717393956 110.16382379127384 L523.7422258910424 109.96053580779846 L519.8076829472329 110.39222920883805 L515.8945141233586 110.6096692326779 L511.9727640808022 111.35044200262536 L508.0822439342153 111.41797661666487 L504.18981089407777 111.93763551856097 L500.3088278107837 112.1846615353677 L496.4402936501933 113.24074002500618 L492.578045996291 113.5613461377423 L488.7400368550141 114.54294303765664 L484.9063890033898 115.19224161637698 L481.09293978001415 116.04899554433081 L477.28107098707153 116.70657021107462 L473.5038355302745 117.73917896940486 L469.75734452443993 118.96477572666464 L466.01373652853715 120.0148698932507 L462.3090700669854 121.31235593610495 L458.5424865833073 121.87551656543394 L454.8334751376805 122.89425115817647 L451.07133135416694 123.41550421948762 L447.4746502151757 125.11306886325531 L443.79293339409196 126.08589907565818 L440.2641108769611 127.95865027934934 L436.64255117410585 129.13539848492667 L432.9648609813547 129.94056445877112 L429.39251865116813 131.28132609417094 L425.7589962728944 132.25385486582456 L422.07934512226905 132.98655336200267 L418.3805899036558 133.63786609136662 L414.58927038501685 133.90726304921486 L410.91445330030353 134.70494448266675 L406.8923665666596 134.14583620401532 L403.094206411933 134.55087703389006 L399.1095630549067 134.32377623921383 L395.13461778514875 134.22329804774444 L391.70826277728065 136.0501325068575 L387.9283438058646 136.67825493340075 L384.23670326165995 137.61650130103328 L380.3041497771826 137.84045961436556 L376.5318866941629 138.5967924004832 L372.9941576486117 140.04810932881696 L369.71281805307945 142.19235535136318 L366.5758802935562 144.67041052730855 L363.33562081396343 146.81399205844315 L359.8783050080632 148.36804388161164 L356.32679177355453 149.68378114163386 L352.6703635129669 150.75752323484699 L349.26058297403057 152.42170005308225 L346.0940761431939 154.62344363940434 L342.83615082136373 156.59072448102023 L339.28800636024675 157.91989668661154 L335.96707361755773 159.73447085829798 L332.94447007714825 162.1437081119645 L329.8544533937267 164.38370582883016 L326.1025639674673 165.32383369667292 L322.71991072723677 166.99565655945526 L318.85888736941456 167.7949255961638 L314.8602821726597 168.39481351685015 L312.5355081041191 171.98097020220973 L308.9081158457516 173.26220250171644 L306.37056435371693 176.39310353634858 L303.34862014617556 178.67950998877586 L300.53716121600144 181.28819051268016 L297.5926268659167 183.66217997883484 L294.32847768511306 185.5324056236566 L292.31413352820016 189.28043962786433 L289.70290848821 192.08371758530598 L287.43297214143536 195.34669761856827 L284.96583311805455 198.28552905432423 L281.66786898009184 200.05028437135536 L277.86401416345075 201.15167882771902 L274.95266893143764 203.4748819412835 L270.8370800008071 204.24092486057367 L268.44361422073234 207.24597169630033 L265.815972450196 209.93319619819994 L262.9388133741328 212.30376223945962 L261.3305418169491 216.18324663464142 L257.5783550698336 217.50502052689438 L256.1644193478279 221.54079743455424 L253.66051467196593 224.29348752307226 L250.96679154819955 226.82654741891798 L247.3202364761475 228.33349888332992 L244.34568818300198 230.5887159837847 L240.5320559074827 231.98905740401608 L238.17988206573307 234.91593754013354 L236.38378302535642 238.38257445203885 L234.7933254769875 242.01668886637697 L233.60249024064228 245.99331805546464 L230.9595285353687 248.5612980227435 L229.451451121564 252.17366317692222 L224.9349518781678 253.04940564309067 L222.67498702311127 255.98459328258616 L220.16910480819956 258.70132850181096 L217.4782403465794 261.2649879508674 L213.4973057146463 262.77085028488347 L212.41181190310056 266.68001445832044 L210.02309100347668 269.5119231377096 L207.49634111245626 272.2390880962445 L206.4108640834491 276.0735436975773 L202.05193703015647 277.4261535424339 L201.0431011639804 281.2960212481118 L197.66083460199707 283.4295819088101 L198.72727700120123 288.7198040029737 L195.7223826091904 291.1202786761633 L195.15496802143997 295.18536643067057 L193.7439870576564 298.6528657960491 L191.3793859874914 301.48971828478204 L190.20545564314762 305.0864346664748 L186.64173704841818 307.1910725952187 L183.96894745727178 309.87678915907946 L181.07930574908545 312.4559997119533 L177.33964993362866 314.5740240886921 L176.89785325035598 318.5937994319821 L175.18576762338438 321.88088278325796 L175.44948136914536 326.2240801804872 L175.49964119700195 330.4041561890979 L174.76979230240192 334.14198475085846 L173.5148970106709 337.5952292947551 L172.52917983568324 341.16981904277753 L171.08091273944615 344.5108597125603 L169.86731699854545 347.95736784334827 L169.73627148137928 351.881942762272 L168.33763652671445 355.2207450039318 L167.71026483925476 358.8859093234991 L166.34643454752006 362.22847226594865 L161.46066847017278 364.1574949004878 L154.0151006023508 365.17088019049464 L149.1325275894729 367.29411752044814 L146.0676555695639 370.1654357472303 L144.50335486810343 373.6103376036753 L151.43373930215677 379.98677186644466 L153.32324613863597 384.5019016668171 L158.22232192314158 389.91871488477994 L159.28466068056173 394.0095348949484 L157.91495039625136 397.32382489930933 L154.57083467265113 400.074436415686 L153.52184442500362 403.5150027193008 L149.2930908821017 406.10607122362075 L148.57271607722987 409.6694448863337 L144.94238607446016 412.51188875790797 L143.88018649336504 416.01841594922917 L142.83521063411195 419.5335181273407 L142.26454122415163 423.15555493264594 L143.61176237153228 427.16540977044565 L140.04754433014574 430.17933613327415 L142.5829629849602 434.3727283490575 L139.5897687748503 437.5420405095023 L143.5631414061345 441.8957970050515 L143.121800400069 445.4816287441392 L145.3487678975892 449.44569286674505 L145.55493300697805 453.08652557863365 L146.40185340357317 456.7919122742247 L146.12496932951848 460.34540429794026 L146.35441230141686 463.948089491176 L148.01097021004023 467.6699321685162 L147.11358608476036 471.14299546690717 L146.56882673850026 474.65360525705984 L145.33343599794574 478.1274792533669 L144.4242778547681 481.6386105902551 L144.14527823659773 485.1905169616815 L147.0252730327462 488.84488018537706 L146.57875064635238 492.3675111571653 L148.18171525856496 495.9213097855714 L147.7813324227145 499.4390372003648 L149.25819277782102 502.9488773531277 L149.56484714365837 506.45130990268535 L146.6335926887266 510.04090301455017 L143.9262554660031 513.6825761489226 L139.66410723788533 517.4565416524961 L138.46963712245747 521.1400738215955 L139.31217417411563 524.7122566156635 L139.9787962054266 528.2862963460009 L138.43750232933064 532.0483195664931 L135.14225095061494 536.0210340059791 L132.761358221615 539.9680597087638 L129.82432515797143 544.0375183870475 L129.79880557566537 547.7995557248141 L130.1195351780379 551.5236001231538 L132.03571214587856 555.01308075057 L133.4056492901209 558.5618886420675 L134.44875260649712 562.1501772269557 L135.43444903323297 565.740142031802 L135.65120499259206 569.4699405794115 L136.54747752230634 573.073027865106 L137.17335169390128 576.729854156762 L138.8222632601271 580.1625752628388 L140.01543417082206 583.6834590783159 L142.59267919108083 586.860460739852 L144.28185793907397 590.2265249893734 L145.29289030172578 593.7550839510624 L146.7349435194809 597.1635214077485 L147.46027189511415 600.7667010627705 L148.6015854076635 604.252575699455 L150.2388486745234 607.5837511398037 L152.23999814150727 610.7867118897722 L154.11729064306115 614.0108198732098 L155.6930550539937 617.3213269614531 L157.56632965180432 620.5181412039502 L158.6741848285332 623.9779579389505 L160.96151089719393 626.9989494789487 L161.71218952338614 630.5899343650643 L163.61115430596033 633.7371591994325 L164.56196133276882 637.2593580777663 L166.5740214055507 640.3447071378617 L167.66401622991117 643.8147413272304 L170.14367355408217 646.6751116870068 L172.17841807351954 649.7144076113121 L174.2744676218777 652.7119674554579 L175.51520902981514 656.107130224525 L177.51266176313896 659.1367722612488 L179.54466521897575 662.1388342054031 L181.3209848494845 665.2631768668001 L184.21019879128102 667.7930518624944 L186.33546328550437 670.7076301905345 L188.46131199067713 673.6110426948208 L190.26487040152796 676.6880908046311 L192.1660165874107 679.7071984038424 L193.34276645657144 683.1561744165167 L195.26022650296937 686.1704096253469 L197.73925990924153 688.8322816765192 L199.92849260201245 691.6628317227832 L202.78462018642176 694.0502946091444 L204.9274464554336 696.8875901136681 L207.54439010791674 699.3966053445024 L209.8339140758235 702.115434114132 L210.0596704626525 706.2946784957787 L213.4928992159463 708.1984743314522 L214.2853595834967 712.0206112713263 L218.16425147807985 713.5453601516292 L221.2590688463577 715.6217449663767 L223.33688575562752 718.4712141268049 L226.42267529623695 720.5117002210363 L228.22452794504932 723.579375427646 L230.79834723837064 726.0134873955521 L233.3519055857904 728.4542637877668 L234.5956084047492 732.0308586014911 L235.8620266040357 735.6251865262863 L237.41634720008898 738.9966222056928 L238.52224155524124 742.8150427584213 L241.817206391662 744.60874285381 L244.2838058790406 747.1709090629585 L247.35106536578363 749.140956194409 L248.87467299210016 752.6412574318276 L253.07478996573317 753.434852897464 L255.20806461965472 756.3242445003189 L261.6873346616418 754.5888537641745 L266.3118681965367 754.7065495184025 L272.6495069412714 752.828244017748 L277.16816415725214 752.8434761210552 L281.9425281847193 752.4715816430319 L285.14509060759826 753.8514515337292 L288.15120009071364 755.4363723497102 L290.57086709530085 757.7207917972864 L292.4343261049857 760.7117613683778 L294.54076117660713 763.4295488135606 L295.27038818977417 767.9774086460758 L298.5424342466474 769.2333640403056 L300.97076642966977 771.6084031088832 L304.884268826419 771.9300627628866 L308.15951759265715 773.0900072555849 L311.8678909530385 773.5871385680257 L315.4887852593682 774.1536577517278 L318.5171520500438 775.5634473457164 L321.661628658674 776.7750092828711 L324.66781205736714 778.1803029187308 L326.7585411309559 781.0549843662262 L329.0545577462228 783.6413517981836 L330.6029893678592 787.5372653010342 L332.128143231301 791.5766535776029 L334.14287053558314 794.8574502198732 L336.6454720607624 797.327988625176 L339.2304901721667 799.6855199969964 L342.7033530731734 800.3844425770039 L345.75702725132896 801.8601384727222 L349.6850241870885 801.5782929956421 L354.40397776076907 799.5772687394018 L358.3963459247244 798.9296447773345 L362.88276409651235 797.1020204580816 L366.217011186812 797.665284128287 L369.0205235085199 799.3991583166139 L371.21899506417765 802.5783511310217 L373.44534834862554 805.798137189892 L376.45125737830074 807.1934528054303 L379.4391771248732 808.6443274206113 L383.2774439355304 807.8672385780724 L386.4036726427174 808.9054609754337 L389.51831030776884 809.9699746087862 L392.7159887858396 810.791292855389 L395.9182811915422 811.5819418337836 L399.37960251916434 811.5533295382413 L402.7903760127227 811.6134831171837 L405.95639197752905 812.4202478021613 L408.96005971654165 813.7765068858671 L412.2382539664263 814.1845785763364 L414.70028352840325 817.5937536199476 L417.7475054859171 818.9463035768824 L419.86061640430347 824.1225765017886 L423.1890131357328 824.5561225422468 L425.6893210492216 828.6204332497894 L429.52518775484236 826.8151058627944 L432.9239401486726 826.8839446562324 L436.8471001452644 824.1963230026337 L440.90686298698427 820.3944674269117 L444.27772936446684 820.0273575391653 L447.4199452995477 820.9396238427688 L450.279198229091 823.7460193436368 L453.17900009868157 826.5993283528712 L456.3361883056988 827.885423365273 L459.65225686536866 828.0204183640924 L462.7866387546258 829.716889088659 L465.895368228837 831.9240956683392 L468.54477385875026 839.4958720648488 L471.8864169433508 840.4574613957982 L474.8644762920492 846.6218679904358 L478.4955583137086 844.23600326789 L481.8559896206741 846.015666386246 L485.37768146356655 844.7490228700751 L488.9076096020733 842.3544423272976 L492.36988606227106 840.7407955752642 L495.8052843174447 838.5670925993038 L499.192304214938 838.0916200216702 L502.55979393787146 836.3208399798772 L505.90473326536375 835.2516171492988 L509.2455825032656 834.7660825037425 L512.5951427161159 834.7211349802416 L515.8930471221915 833.5579998135377 L519.2229951933645 833.2994865298581 L522.4913147076269 832.1504873934766 L525.7531055608802 831.1562871228193 L529.015386737052 830.3364249845586 L532.2309034424196 829.1480213401458 L535.5286280008282 828.8824887421137 L538.6486448229341 827.0975785333225 L541.9067447620292 826.6098785208908 L545.0803284296023 825.521965598536 L548.2600553235764 824.5627070483404 L551.366256149315 823.2021244096372 L554.498331716673 822.097107072681 L557.5655822596302 820.6951376416678 L560.8683790079507 820.6237643526765 L564.1525424199651 820.4037192517392 L567.4055345550469 819.9940690403662 L570.508059809793 818.8789388787607 L573.5493525008613 817.5365844237194 L576.5106081915346 815.9165565892821 L579.5072011118367 814.5079171923742 L582.6959493289004 813.8781696173398 L585.680471713083 812.4881965124998 L588.7434730150468 811.4138493834555 L591.7767551345693 810.2526979571509 L594.6438277728826 808.5669117336336 L597.6389820523651 807.335207379461 L600.4725886676941 805.6291877930455 L603.3901874854175 804.2160371745337 L606.4305187644887 803.1766016316155 L609.2383232718496 801.4938562994685 L612.4653868654133 800.9688358971398 L615.4499533726274 799.7786523445154 L618.3149972835272 798.2891990861547 L621.4062194155474 797.3711088226748 L624.1403823442308 795.5863902536244 L626.9050390394326 793.9018962915939 L629.368943472798 791.5618060980803 L633.5539730594365 793.053290132483 L635.2720960707538 789.1261320366971 L639.354213077457 790.2535356993583 L641.011392814219 786.3309910796459 L643.4057121037494 783.9918808523078 L645.9949397883436 782.0732388563769 L648.2245821294819 779.4984793412934 L650.8729695766153 777.7461375640703 L653.3280804736171 775.6576601032465 L655.9052211613526 773.8090319222481 L658.3482784397146 771.7434612132242 L661.0643164660144 770.1574311734217 L663.5582213618098 768.2060461765019 L665.2807333749952 765.0316072008392 L665.9640101304533 760.2935538904406 L667.8633291763012 757.5541604547282 L669.3512038238134 754.2424568486299 L672.962660354147 754.1194020484754 L674.0451505137066 750.2918546999038 L676.9321598251473 749.0919656098482 L678.271336128043 745.734870961986 L680.232980736959 743.2828741161695 L682.1113273926412 740.7473633075411 L683.592823089066 737.7270732659196 L685.6168083909392 735.4428636977881 L686.8177866591501 732.1531760813698 L689.0363457675188 730.1594683090952 L690.2742511776063 726.999953507091 L693.2752258954039 725.9516178016476 L696.2103643047708 724.7927564195026 L699.6959960366328 724.2202070349324 L701.6497503304863 721.9056756025317 L702.811414442137 718.7485474317865 L703.6536402553372 715.2981099265269 L705.0062937424024 712.4321138684696 L706.5099747118941 709.7515284101701 L708.0475900145539 707.1288627200709 L709.2683287939045 704.2182258705438 L711.1350470028057 701.9575706109421 L712.0793865168932 698.8379839668885 L713.7550019706584 696.4296444166944 L715.2498524989696 693.8691481757505 L716.7650211183858 691.34266904445 L718.8881063569373 689.3562633317316 L720.0872399536383 686.5785548468091 L721.4763788595087 683.9816045177221 L724.227867043159 682.5087663958911 L726.5451283958348 680.6588493206838 L729.1781597371612 679.0389104103162 L730.6802328074018 676.5263749922258 L731.1331732029485 673.2358565471014 L732.2207663421534 670.4511444979787 L733.7409736570208 667.9963539128856 L734.9427051997393 665.3223089868669 L736.1073228050676 662.6362028607734 L737.272283767587 659.963947552195 L737.983184106545 657.0047820629865 L739.4192003046743 654.5383234867827 L740.8364336585362 652.0631058548986 L741.3974221498001 649.062054045748 L743.5128601732576 647.0252140062361 L744.800632501336 644.4822750171892 L745.9143094325501 641.8431546950162 L747.433735996859 639.4408185326528 L748.0608571869606 636.5440233058367 L749.9813284981963 634.3616293797436 L751.2345846464051 631.8143003488424 L752.2492273911414 629.146462312241 L752.8542737773412 626.2810519068909 L757.7782332137797 625.5353462188933 L754.9516312561994 621.0198450260003 L760.1366370720548 620.3085017698107 L757.693950695329 616.0649804884126 L756.9877684958211 612.6694751093735 L757.9270796035337 610.0195666847972 L756.5863192916072 606.4277268586991 L757.2314081645263 603.6927844208969 L757.5053150099042 600.8216237643838 L757.9561022124471 598.0346245386899 L761.4319771549971 596.3749232814 L766.8591556496353 595.3553989265214 L771.9736234079444 594.1267488414815 L775.4314209378206 592.2497684824637 L776.970058562281 589.6948852638874 L780.4341229472475 587.728153260726 L782.1658485973692 585.1816536333479 L789.5132563319348 584.250150080593 L790.312799766108 581.3428766995644 L793.7084355425206 579.1353820035586 L793.2524647398764 575.8754630341735 L794.4195701999554 573.0441443240109 L794.2730161559693 569.8915531653698 L793.5819756493104 566.633246292522 L793.8510306206497 563.6113233243036 L793.024906952899 560.3714483876656 L793.5940854109493 557.4343415924901 L792.5950400597108 554.206809810078 L792.8331339846256 551.227582141883 L793.600207514473 548.3411026693047 L795.0042933126806 545.5471476915052 L795.2156929268964 542.5618159194603 L793.5377676542328 539.327729233881 L792.8363235541253 536.2567122100832 L793.0127076800967 533.3070863526503 L792.2900845430204 530.2675400803307 L793.3830319720336 527.4183964987928 L792.225786247248 524.3651182822337 L791.9288478240808 521.4031284090557 L792.7435026422971 518.5217433336073 L792.4548939174186 515.5689860152962 L793.3718976767311 512.6772373914179 L791.5613143549069 509.67910512479534 L790.9464317570594 506.746891385993 L790.4855890369186 503.8303636978517 L790.4152657830995 500.925064959827 L790.709492824775 498.0188734385004 L790.4455584551959 495.11578683401444 L789.9285070769829 492.2237922838269 L789.5655728346499 489.33491374207637 L789.2951148622764 486.44683550809015 L788.4362588060005 483.5949273958192 L786.8509502420234 480.8055707594753 L785.5646662369356 478.02119223843357 L785.6940202233816 475.13506270669683 L785.4794898785713 472.2747128818025 L785.7971584527298 469.356032694122 L784.7685697379745 466.5827080712904 L783.9181616700964 463.80074544284474 L783.6876040932738 460.94337224159153 L783.5216295490115 458.0731873734146 L782.5467619672704 455.32572177919366 L781.1207424011266 452.6650475399728 L780.2427467486029 449.9260460159408 L779.8733879105444 447.09868856239933 L779.0838619132621 444.3518030907556 L778.2318627104794 441.6228714009959 L777.138349246429 438.95274031955336 L775.7685684660528 436.3564973847277 L777.1160635368662 433.1199065009589 L774.2175312728929 430.9104324261431 L774.5956404431281 427.88742434357556 L772.3844991093317 425.548638560428 L770.9615983264478 423.0174314691394 L771.1630257910355 420.0212492834752 L769.2140567639784 417.6609971510607 L768.3033423979656 414.99642414847193 L766.4752686327652 412.6339495877561 L764.881831911789 410.2130805410518 L762.4698938823349 408.0943252688539 L760.1287418554841 405.9835056192156 L757.0105662582994 404.1940181334905 L755.4673198583184 401.8486450685864 L751.2814649242048 400.5619083649077 L750.3139663101354 398.03804631336163 L746.9555988306079 396.51484623448016 L748.2835360168586 393.0271869525667 L745.1225635478972 391.47016698067375 L744.6026089288914 388.76174105829625 L742.3012332029889 386.87075114067204 L739.8476006920387 385.08121606910845 L738.9064312493517 382.58040277705805 L736.2938077572196 380.91615643651306 L734.6247659815899 378.8001440559672 L731.5180414324475 377.4566819666285 L730.7707374895551 374.8821731266029 L728.4992860270285 373.1408052330117 L728.0957022785096 370.3640934277819 L726.4271598487703 368.29951425568765 L726.2309926349033 365.36812157962845 L723.6628631497003 363.849463071964 L721.5076744340936 362.1068161975356 L719.0165458184997 360.5995315134695 L716.5843773895411 359.0847184395783 L714.4860121915881 357.37706449002326 L712.3836791909275 355.69149324558356 L709.959975348232 354.24828613521004 L707.6032912020655 352.7861912908576 L706.4655113444342 350.4678955641129 L704.2622894149696 348.9267014058189 L702.2966172628741 347.22753807803645 L699.9281934871544 345.8526556390998 L698.1291078053001 344.0560287226142 L695.8712730653117 342.6357250145311 L694.2797177080001 340.69159222601263 L692.6537695086788 338.776188441964 L692.5651043540213 335.5484014128109 L691.3219744500398 333.27285131472934 L690.64222128536 330.481419582468 L687.9273135206137 329.5000410564221 L685.4448428661458 328.3403298725424 L683.111376067432 327.06834199883326 L680.5685334768342 326.02094968148873 L678.6708698739944 324.37033304755835 L676.4673058091432 323.0320424063244 L674.279269449888 321.69527005649593 L672.9817840619843 319.44553872134657 L670.9277071061599 317.98025950876934 L668.3681498618876 317.0741470321732 L666.9117129898967 314.9770661029185 L664.6081214452925 313.8205972087128 L662.6904826216866 312.23884000069404 L660.5255950115688 310.9501301775148 L657.832282610416 310.30960492837573 L655.4636082616423 309.30982099909295 L652.8939664356608 308.5847692937184 L651.0310552999665 306.9902135838912 L648.0413844186188 306.86210989270467 L648.9908030876477 301.54434032025085 L644.4027472754441 303.595356407767 L644.5086506420489 299.27600844382596 L641.633846994044 299.06160654199743 L638.22138736949 299.6785726597336 L637.0460007430927 297.0704157836603 L634.158940170676 296.9977323090502 L631.5215664060009 296.59529248928993 L628.7687092703012 296.41636618953964 L626.3299789263529 295.77982937381705 L624.398538532572 294.3332544547728 L624.6271690513267 289.2240977381938 L624.4339451096208 284.6645209220692 L624.4459900199885 279.5847170135396 L623.1888541786427 276.62286583469074 L622.352842539971 272.79520888036586 L620.7390277008262 270.3193453502711 L620.9987366700349 264.1281596617399 L618.6266818135086 262.944625485174 L616.6002485925903 261.0529564429009 L614.2404831507288 259.82429675863625 L611.2900572508887 259.8655630394488 L609.4079779044285 257.6019943829193 L607.1260873653282 256.1843028355032 L604.5955936770614 255.32881121771916 L601.4797241975564 255.89227128392034 L598.3552654444276 256.56862250349934 L594.7188308645325 258.64794169261404 L592.417840648404 257.40512078412985 L589.7074028423833 257.250523956466 L587.8391380607836 254.7920719785689 L585.691158188296 253.03699740110176 L583.2835541926033 251.99510866660324 L580.8101728819097 251.14145759087563 L577.6810813073979 252.37481584418387 L575.2678546631796 251.38953364086836 L572.4048893081788 251.92773903056747 L569.6363934554142 252.22729548399516 L567.1434901367672 251.5867509787942 L564.4568418047598 251.6951195279733 L561.8302223653376 251.62692286168132 L559.2536036434977 251.39796959833416 L556.5269223347415 251.8614893473836 L554.0065234087157 251.47535257833982 L551.4404211123766 251.32574359532558 L548.9338445785024 250.91186121083481 L546.3027603424216 251.17549059679772 L543.8308179176255 250.61921961034258 L541.3391335951743 250.16756119534833 L538.884178906809 249.47419406723122 L536.4161413335486 248.82804357267412 L533.8718969529363 248.7045503121547 L531.337294361237 248.53885956244287 L528.6499181609024 249.7338991068686 L526.0570540523719 250.31095290723192 L523.507624229784 250.60688227744004 L520.9750154271051 250.83027598775055 L518.5131655752132 250.2166912878793 L516.0257854766527 249.86710202104243 L513.5251510172553 249.6924423424032 L510.99045259211914 250.27382796369588 L508.4816995578155 250.49950331502743 L505.9712792695871 251.05388980531288 L503.47900223651135 251.18962912219084 L500.98880513838486 251.65976597447732 L498.50448149486556 251.51055244321887 L496.023157224731 251.75354175452276 L493.53879767708327 251.72367592382682 L491.1059160076571 253.1748806223716 L488.4671796654417 249.5635069014852 L486.14636738603895 252.9535507922814 L483.5410518052768 251.0536758435296 L481.1805006438222 252.91189431300964 L478.8271382490064 254.4638838116833 L476.3971564216494 254.93997399969737 L473.95784198463275 255.28283039058965 L471.63987716486554 256.65263539766977 L469.2646947641239 257.3969966981216 L466.88256008250517 258.0256745889168 L464.4678458934065 258.391604692455 L461.9125794524743 257.862609806473 L459.2591510494602 256.85907981241405 L456.3894568232605 254.802730276 L454.2251171490548 256.7676696952889 L451.4556411165712 255.52792230666734 L449.6265223502594 258.9594696889856 L447.4204722748539 260.3948351843145 L444.93008996811767 260.51076810027416 L443.1098213641879 263.45109825334134 L440.4830623033119 262.9798516642513 L438.4587015644597 264.8965425768206 L435.85147206332806 264.5720167942111 L433.44774192089585 265.0392176646777 L431.4231442340868 266.8101982611437 L429.1646700429854 267.73699502234393 L427.3930455078697 270.18962054215376 L425.6705542178167 272.6763589909357 L423.42330168456186 273.49675906560105 L421.24659289757324 274.5156532507554 L418.4140663310047 273.7010739723026 L415.89117807026105 273.81825440046373 L413.46558022788685 274.2322654115699 L411.20541898862774 275.0915376069214 L409.45617120436634 277.2095864608949 L407.74950126544184 279.3618830696512 L405.9610592922133 281.25675498765895 L404.20999527266656 283.18503471532443 L402.5186651799637 285.1938274552389 L400.09492541941995 285.57714862508726 L398.1022895351135 286.8934195761546 L395.4958526297593 286.94341832475334 L393.64809584126306 288.5509173531404 L391.5165056315622 289.5814419738634 L389.8941399899726 291.5784921168255 L388.10668573367695 293.22811135999 L386.4299411043307 295.052753916499 L384.74908024696026 296.8383926481954 L382.4441638715385 297.5203209683343 L380.4109840456769 298.68192000283204 L378.4448974425428 299.95546389337943 L376.80165530976416 301.7459835783686 L375.53388978986715 304.10309416869245 L374.4713374904721 306.7280776288089 L373.51944856577643 309.4610926449001 L372.2646531373839 311.68517667398226 L370.8598081608681 313.6528469641944 L369.17553638297613 315.1975170380557 L367.36062214425885 316.55168444344065 L365.63668119116164 318.0279157219809 L364.3428729898684 320.0692259238125 L362.28431446619976 321.08911929742874 L361.58579936879016 323.85428595409485 L359.90418455662564 325.33808927653473 L358.72880931663707 327.43694084676065 L358.1305312350089 330.19907591061747 L356.0561119148696 331.1764143385468 L355.1209541124749 333.48152520878125 L353.6142989119537 335.10899649837614 L348.9742618790079 333.27082290769647 L349.7939985715947 337.4722362070952 L346.2398919995319 336.9287723692567 L346.8944172168152 340.8420556060921 L347.0105258261693 344.1132444092316 L345.389047061925 345.5807084562228 L344.16345341823273 347.43882287644624 L343.288235156842 349.6213983690942 L342.32804854419396 351.6999038312291 L341.0850807795793 353.4980055616761 L340.1340658788125 355.5516857712855 L339.3958754970253 357.7759034973899 L338.9981068672705 360.2711491080417 L336.30318589034266 360.7776390144856 L336.86859883464695 364.04619583835176 L335.14025510375063 365.3764365341168 L335.17844940925875 368.1327528462428 L334.7010783789068 370.4404608823843 L332.1421773909247 371.1236087854718 L331.8875398752458 373.57993521486753 L330.2040183606036 374.95233454523543 L329.0720454974145 376.73583966188284 L328.9286526216541 379.2142743599016 L327.4380902618876 380.7296742383813 L326.98642690414783 382.95668965471526 L326.69659199584055 385.26988147091174 L325.3348960690894 386.86412813343327 L325.5330437925642 389.4532706069398 L324.0400482918485 390.95787048961427 L323.61712258615114 393.1220150247061 L322.42604796700164 394.8134819882299 L321.06266179691903 396.4089541521485 L320.888486205457 398.6858457268168 L319.8529633772762 400.46467306294244 L320.67203840098995 403.2451801629807 L319.4899035158947 404.9255139531052 L319.1120349871527 407.0251448776462 L319.0219196978202 409.25510401992574 L318.776734307295 411.38878139906785 L318.66812074067064 413.5716682186401 L318.44048120629617 415.6807288377706 L318.1809441364693 417.7603938479579 L317.7182723625589 419.7370521824061 L316.0625134904228 421.19442974008075 L315.7613841982656 423.23675534993504 L314.18863254320195 424.7531693544449 L313.72611115785037 426.7254113011917 L313.6000951725198 428.8199121139081 L312.69303821276094 430.61164896505875 L313.07450936109143 432.87097267817563 L312.39456719598775 434.7372879274267 L312.8098164238147 436.97296664679186 L312.9532774729235 439.09686763714734 L312.79548036966844 441.1093524991635 L312.9075177681109 443.1942892287859 L313.33472995506526 445.3566316409271 L313.3310542529891 447.3763600143966 L314.41632270805553 449.68006661086906 L314.57665783239065 451.7087789765499 L315.92711397555223 454.0210293785006 L316.3165466659668 456.06494787724546 L316.78991643082895 458.11053291783486 L317.88958792385824 460.2739618381997 L317.91822417124314 462.18358354091515 L318.2963989678261 464.15367436348765 L317.559786293421 465.9000932565441 L316.9125004377836 467.6704742041153 L315.33862258463705 469.2934580513369 L314.3489857283752 471.03363616620203 L313.06204258105083 472.74480818366334 L312.16594353841333 474.5296983028164 L311.5508694003754 476.36290134146424 L310.42261594084005 478.1446360083498 L309.79911500546314 479.9978883035305 L308.91420067062813 481.834853339158 L308.1345087794004 483.6949530800047 L308.48141633206296 485.65187721522875 L309.2988473701671 487.6294603528414 L310.7433320845629 489.62252395462195 L311.8949548977713 491.57140562133895 L312.7201127690493 493.4841602334658 L313.9391452189775 495.38884773263214 L314.92472404551836 497.264765715398 L316.9591749582322 499.1254314635602 L319.06647982141715 500.94485052908095 L321.554565000966 502.7165132301457 L322.94820109306715 504.4665545927992 L324.4779496978281 506.18480235864195 L324.79088898674655 507.92871885890986 L325.3623914603081 509.653659725615 L325.5389334415074 511.39486871002106 L325.3597220098012 513.1616316070755 L325.9191325537598 514.8715469627858 L325.65782753378085 516.6515755607229 L326.2943239615196 518.3454203446411 L326.3564232596809 520.0965806859575 L327.3002520396469 521.7395630780691 L327.6469302627602 523.4490299196891 L328.6376938685619 525.0620130255062 L328.95151479340905 526.7658048058992 L328.49228158741425 528.5975515144831 L327.8615403349955 530.4749809002624 L326.9886524895472 532.4170783558343 L326.195847447402 534.3681230179827 L325.89125148700566 536.2411653611346 L326.07131040778665 538.022177265073 L327.12018409267887 539.6083308372649 L328.66297114542033 541.0623725090906 L330.6722711877351 542.3757208362478 L332.91168861897506 543.5953308736503 L334.70777856354346 544.896832013128 L336.7288413854966 546.1058723876754 L337.7733225222385 547.5675737019901 L338.9269187315511 548.9837378106103 L339.373848196781 550.6080463408931 L340.0902398286585 552.1457854677897 L340.7962789361261 553.6827023564771 L341.544241706436 555.2012454938258 L342.41798462560797 556.6701607511129 L343.1234466992259 558.1945661779384 L343.8634884665025 559.702939180989 L343.7246183758737 561.5542225087121 L343.2374400014855 563.5641684900936 L342.8229485675766 565.5699418332294 L341.8104454081679 567.8573702921011 L341.4409269369919 569.9013840534682 L340.73467763354785 572.1234125885699 L341.42889356241005 573.72869237204 L342.6831683546801 575.0677739597114 L345.7586261426088 575.5029992973667 L349.282296876093 575.6557036285876 L352.81025571619364 575.7369110191669 L355.1041305508619 576.3987230018511 L356.5458885336976 577.4816698268161 L357.614828604953 578.7535926774664 L358.53313515307815 580.1034598452695 L359.62721563278023 581.3483661573754 L360.98570861738096 582.4289917614213 L362.00186529336224 583.702820826751 L363.269220507269 584.8159278965231 L364.5632647064931 585.9004975207962 L365.6825407977477 587.0861789905338 L366.35385054597646 588.5616522940893 L366.8239960363719 590.1795126098573 L366.03743795968705 592.6793921549473 L364.88291289673225 595.4899947408351 L364.52799938219465 597.7866859520182 L364.3097255914802 600.0232024393733 L366.09856809198175 600.7865943750999 L368.7559033939983 600.8580995086331 L372.2567035205557 600.2154484524186 L375.40163845206985 599.777035091079 L377.70313188381283 599.9575089403531 L378.48667586108934 601.3607492641547 L378.68970088730555 603.2659639192761 L379.7018233147753 604.4969768937434 L381.1725329542843 605.3226752817857 L382.3776823078931 606.3736276760434 L383.48764348578777 607.5072705410165 L382.95695168332725 610.1841307150634 L383.0672257360991 612.3069768800848 L383.62937674902173 614.025997696593 L385.5924899320429 614.3672173092401 L388.4220613020676 613.7920163793473 L390.0788476140204 614.3680155351866 L392.2279449629591 614.4000536579471 L393.253621827359 615.6059956027349 L394.71890259744566 616.3318595734377 L396.1578073962055 617.0740472161524 L397.21969408917835 618.237773309326 L397.6354873444376 620.1655492774098 L398.4679699001034 621.6315317284661 L400.6032882680137 621.5233536815731 L402.517682037079 621.6449456591213 L405.19440556803215 620.7598106347821 L406.3989387237011 621.7119359631599 L406.907324371614 623.5889396915237 L407.62740860729207 625.2191725929368 L409.21777477870455 625.6748335763709 L410.614198472892 626.3852541642161 L412.77145453151843 625.9888127620846 L413.77758165147736 627.2356562460376 L414.4744365557835 628.9657841027623 L415.15754664647574 630.7559225416655 L417.1450796175514 630.5331843125675 L418.1328325678284 631.8733941384021 L420.50541921458677 630.9560920601878 L421.99912515495885 631.4408314798973 L423.60313624306247 631.721615711945 L425.17693289379037 632.0329248766194 L426.2500874597484 633.2277762335631 L427.541473414853 634.0410278531544 L429.22706504983466 634.1116183603417 L430.694666924031 634.5738541113166 L432.93973056008423 633.4769999508314 L433.83518946385743 635.0443629370268 L434.9027076368809 636.2985070954051 L436.0713427694345 637.3672103218828 L437.3411059131661 638.2358595372554 L439.01041895307975 638.2122884508416 L440.4726895953713 638.6356524143607 L442.35134409626403 638.0521423282631 L443.52766965154706 639.1318423212238 L444.7285888908885 640.1795933150089 L446.570809421212 639.5818543783115 L447.7630339552645 640.6645305670695 L449.8692544287196 639.2438975885733 L451.6491531284841 638.6344074103056 L453.1406210738236 638.8066713639586 L454.74815585484686 638.6032072849796 L456.1244753763136 639.0866763430931 L457.65186037314413 639.0772533802716 L458.98463259590784 639.698456020154 L460.56661573783526 639.4545481461712 L462.006183264684 639.6835433491977 L463.479184712467 639.772170430289 L465.18044798871676 638.9264766094398 L466.5528487073604 639.3451344636128 L468.133675191343 638.8632983381174 L469.4627362389583 639.4542301880734 L470.9529210855288 639.3011627052106 L472.1910094929546 640.3738971910307 L473.73033461527854 639.930021991436 L475.1457753295847 640.1020071884562 L476.679802857124 639.5548816778978 L478.20561283147794 638.9578617202837 L479.6044491659617 639.1129842128896 L480.9986425359666 639.2948284112213 L482.39453737159454 639.4618750013711 L483.8079881897055 639.476118690076 L485.2244511005651 639.433688440557 L486.67590156263185 638.9861712472639 L488.0577054481749 639.2138885751443 L489.52123590860975 638.3910732379858 L490.91699707877694 638.3161082249156 L492.3221860559546 638.0118097605742 L493.6781895063534 638.6183611833111 L495.1021375824802 637.6217613297783 L496.47130669761725 637.9480837082115 L497.8681820054102 636.8695434379827 L499.2408812913177 636.1807831519726 L500.60287347865153 636.2197728129946 L501.9611883910571 635.9414556518875 L503.313505571781 635.6294761706368 L504.66047484785196 635.3242470169795 L506.0108357104539 635.2118051524284 L507.33715180537 634.6772590549184 L508.66803173300275 634.3568486222257 L509.99694244317135 634.0729834711422 L511.30410469717407 633.5758286812155 L512.6305562418291 633.3640452937277 L513.9445307621293 633.0496717671782 L515.2693551162996 632.8604799907212 L516.5762416520394 632.5337809059979 L517.8947023699778 632.3168357698946 L519.1909225733547 631.9522903095046 L520.4795623860285 631.561697655173 L521.6576288591341 630.5276324056014 L522.94240264182 630.1944533476824 L524.1500305965759 629.4591934644101 L525.3825128102801 628.902049177822 L526.6653170026574 628.6180245075475 L527.9277709033877 628.2422159904042 L529.0221636451816 627.1390306119066 L530.2830512321307 626.8046436541367 L531.3527519169853 625.7063819471203 L532.4945762319173 624.9495588875117 L533.7457370591924 624.630598564835 L534.8878739917934 623.9229701910663 L536.1260061189025 623.5701842310821 L537.2018318687404 622.6815483111762 L538.3786208936284 622.1501649265235 L539.5116124952033 621.494081567457 L540.6101863381243 620.7528191523813 L541.7661756627348 620.1982649595914 L542.9196570985124 619.6452728481308 L543.9558520643877 618.7828860419368 L545.0662031566387 618.1401027309907 L546.1293626369965 617.3884284047283 L547.3680806095274 617.0872825017186 L548.2800538188952 615.991492974947 L549.4318527961678 615.4896243813309 L550.438749791263 614.6587658608842 L551.3691445810791 613.6758592278472 L552.5707244085323 613.3017733776625 L553.4698428030554 612.2847889119485 L554.4441418383511 611.4459199172791 L555.4274271109107 610.6395478825174 L556.3865917338632 609.798488822173 L557.3331207010158 608.9467318460199 L558.404542293569 608.3398395191173 L559.2344962444855 607.2966231237493 L560.2827105596341 606.6604006630663 L561.0220425913883 605.4917212935765 L561.9444330634016 604.6575120658032 L562.8746825826456 603.8458623341046 L563.7368759037538 602.9323775849181 L564.7064543819436 602.2005687122335 L565.7340099849604 601.5620048317203 L566.2926030888287 600.2137096513932 L567.3066454784744 599.5683238876455 L568.0775511857321 598.5697307444512 L568.7992921332487 597.514759429687 L569.7827851925167 596.8382795516044 L570.5742876035262 595.9000302627203 L571.3212531086328 594.9120521634901 L572.0503521409996 593.9119938315159 L572.9437485137763 593.1330474334693 L573.779148254995 592.28355586318 L574.6025269265438 591.4238197751396 L575.3492757572183 590.476618018003 L576.1066548482468 589.5496440605688 L576.6859655649134 588.4239348981721 L577.4127031647051 587.4790339428603 L578.1393734340708 586.5408030892397 L578.7357902947685 585.4673632294589 L579.256896725736 584.32505130771 L579.9865811537927 583.4139942316358 L580.4281998327089 582.2128423131159 L581.0328592753881 581.1906136974585 L581.7155978231042 580.2533752537182 L582.2003208988158 579.1302255000201 L582.8846738812283 578.2072561794156 L583.4847274613154 577.2100192570044 L584.0567848136627 576.1937907572647 L584.5443526289957 575.1094212260356 L585.2763683187609 574.2473166786124 L585.773512958581 573.1851799458508 L586.2583451236071 572.120861966556 L586.8074039099911 571.1171958580906 L587.4353257995299 570.1822510080331 L587.9563915394347 569.1657096520613 L588.5341335864839 568.1983492425572 L588.9446285581831 567.1081249758977 L589.4058854897481 566.0635896124247 L589.7323572999678 564.927693718756 L590.1340239737519 563.8549068995115 L590.7908975286167 562.9662304361132 L590.9590497580521 561.7449938078074 L591.386866214127 560.7093835357334 L591.7705255945624 559.6502403243119 L592.0398654877554 558.5244623030945 L592.3559098138772 557.4366038186505 L592.7281585981398 556.390090217845 L592.911769979973 555.2366818288542 L593.3060723755627 554.2156788113545 L593.5690723201463 553.124084698018 L593.9382872445759 552.0984928361561 L594.2520817012984 551.0468550435451 L594.5776354055018 550.006522826787 L594.8611175678591 548.9489480860374 L595.2325361381417 547.9408591857715 L595.2953499159952 546.7839726026017 L595.6253339886258 545.7650040041387 L595.8918288925174 544.7195656557948 L595.9566398059003 543.5869158908301 L596.3240809335093 542.5970503994661 L596.5628927009046 541.5532326633645 L596.5529673236413 540.4095025106386 L596.7174280128268 539.3464474696916 L596.9293238508731 538.3074779499715 L596.8934321900423 537.1773927463029 L597.2860136934042 536.2161674418437 L597.3088628045356 535.1208055109344 L597.5372590684143 534.1047381568759 L597.4852515728662 532.9962900776883 L597.5975806354646 531.9501554879714 L597.5386703609123 530.8544406365278 L597.4453540402444 529.756304473241 L597.4981530021007 528.7097412048439 L597.6575829681424 527.6985142805578 L597.6289867713343 526.6385240849082 L597.5968769936025 525.583952145982 L597.6400921387224 524.5544780335636 L597.4223502396236 523.4664491719009 L597.4636400262186 522.4476536714095 L597.612343890737 521.4563274233382 L597.5378199147085 520.4196492164797 L597.6683124204984 519.4295749002374 L597.6175624558122 518.4066524665546 L597.4064071214078 517.3600058109574 L597.6581068228236 516.3990230088874 L597.3372735356431 515.3459723557737 L597.0508596743912 514.3077180782153 L596.0815708377368 513.1845350416024 L595.208530904792 512.09601845014 L594.1269006442543 511.0033195798828 L593.7529151762849 510.01033837879805 L593.5941456862101 509.04775239400783 L593.4255254288385 508.08934522876626 L593.2471221256517 507.1352173830393 L593.0590045204847 506.18546842004395 L592.861242367561 505.2401969558771 L592.653906419423 504.29950064928954 L592.4370684147594 503.3634761916073 L592.2108010661304 502.4322192967998 L591.9751780475943 501.50582469169797 L591.7302739822351 500.58438610636085 Z"/><svg class = "pausebutton" id ="pausebutton"><circle cx="500" cy="500" id ="pausestart" class = "pausestart" r="52.650000000000006"/><rect height="50.017500000000005" width="10.003500000000003" y="473.675"  rx="2.0007000000000006" ry="2.0007000000000006" x="479.993" class="pausesymbol"/><rect height="50.017500000000005" width="10.003500000000003" y="473.675"  rx="2.0007000000000006" ry="2.0007000000000006" x="510.00350000000003" class="pausesymbol"/><polygon points="530.0105,500 479.993,530.0105 479.993,469.9895" rx="2.0007000000000006" ry="2.0007000000000006" class="playsymbol"/></svg><polygon id="playback-head" class= "playback-head" points="912.475,500 892.475,540 932.475,540" /></svg>