<?xml-stylesheet href="../../style/waveformjs.css" type="text/css"?>
<svg xmlns="http://www.w3.org/2000/svg" xmlns:xlink="http://www.w3.org/1999/xlink" width="100%" height="100%" viewBox="0 0 1000 1000">
  <path class="svg-wave" id="sp" d="M598.01 500.00 L598.18 500.98 L598.35 501.97 L598.50 502.96 L598.64 503.95 L598.77 504.94 L598.89 505.94 L598.99 506.94 L599.09 507.94 L599.17 508.95 L599.25 509.96 L599.31 510.97 L599.36 511.98 L599.40 513.00 L599.43 514.01 L599.44 515.03 L599.43 516.05 L599.40 517.06 L599.35 518.08 L599.27 519.09 L599.16 520.10 L599.00 521.10 L598.83 522.10 L598.61 523.09 L598.29 524.05 L597.80 524.97 L596.12 525.57 L591.72 525.38 L585.64 524.63 L579.30 523.66 L574.66 523.09 L576.06 524.36 L574.28 524.61 L572.65 524.88 L579.02 527.95 L572.26 526.38 L573.31 527.59 L577.10 529.91 L570.89 528.32 L570.38 528.93 L575.65 531.98 L568.67 529.85 L571.19 531.79 L573.28 533.61 L573.25 534.48 L575.84 536.64 L571.12 535.23 L572.19 536.67 L577.82 540.52 L571.71 538.25 L569.54 537.99 L575.82 542.41 L569.99 540.07 L569.44 540.69 L571.89 543.09 L568.33 541.90 L573.18 545.88 L569.68 544.66 L568.76 545.05 L573.59 549.27 L566.88 545.75 L564.82 545.31 L571.88 551.31 L565.05 547.43 L562.49 546.53 L568.39 551.99 L567.12 552.09 L565.70 552.05 L566.27 553.59 L563.96 552.79 L563.75 553.70 L557.37 549.31 L554.98 548.22 L560.35 554.01 L556.34 551.44 L557.60 553.66 L564.54 561.34 L559.62 557.82 L563.14 562.46 L561.88 562.46 L559.66 561.43 L563.11 566.29 L558.72 562.93 L555.41 560.59 L561.57 568.69 L556.04 563.79 L553.57 562.23 L558.24 569.04 L555.55 567.19 L556.62 569.90 L555.82 570.34 L555.32 571.17 L556.98 574.83 L554.89 573.60 L551.14 570.02 L556.51 579.02 L551.72 573.88 L548.84 571.27 L552.05 577.61 L548.08 573.27 L549.39 576.92 L549.63 579.02 L546.10 575.06 L548.21 580.28 L546.72 579.59 L543.71 576.21 L547.80 585.29 L543.99 580.37 L540.72 576.19 L544.26 584.86 L541.07 580.70 L540.20 580.97 L541.57 585.88 L538.80 582.24 L537.92 582.50 L535.62 579.58 L532.95 575.65 L534.91 582.39 L532.31 578.43 L531.32 578.24 L536.69 594.36 L533.99 590.07 L532.87 589.83 L533.75 595.17 L531.43 591.52 L530.79 592.68 L529.84 592.90 L527.52 588.73 L527.87 593.13 L526.21 590.86 L524.52 588.32 L526.08 597.71 L523.68 592.43 L522.25 590.60 L522.93 597.57 L520.80 592.69 L519.85 592.77 L520.03 598.40 L518.24 594.41 L517.83 597.55 L516.71 596.88 L515.58 596.09 L515.31 600.74 L513.49 595.14 L512.39 594.18 L512.43 602.42 L510.79 597.01 L509.67 595.57 L509.22 601.21 L507.80 596.29 L507.11 600.30 L506.08 599.85 L504.90 596.44 L504.11 600.67 L503.08 600.06 L502.04 598.00 L501.12 603.80 L500.08 599.30 L499.13 594.53 L498.17 595.34 L497.37 590.11 L496.38 592.34 L495.36 594.14 L494.51 592.55 L492.93 602.04 L491.84 602.79 L491.07 599.88 L489.03 610.17 L488.72 602.91 L488.12 599.21 L486.19 606.32 L485.88 600.81 L484.88 600.57 L483.36 603.61 L483.10 598.90 L481.30 603.23 L480.20 603.40 L479.66 600.75 L477.18 607.49 L477.20 602.36 L476.86 599.20 L473.81 607.38 L473.87 602.68 L473.00 601.84 L471.04 604.96 L470.83 601.75 L469.22 603.46 L468.21 603.07 L467.95 600.32 L464.85 606.35 L464.65 603.47 L465.33 598.27 L461.35 606.15 L462.54 599.76 L462.18 597.74 L459.00 602.88 L459.81 597.99 L459.30 596.49 L456.21 600.98 L456.36 597.92 L455.12 598.06 L453.15 599.72 L455.07 593.20 L452.93 595.20 L455.33 588.11 L455.09 586.43 L450.90 592.23 L452.02 588.00 L449.75 590.00 L444.43 597.23 L446.08 592.19 L442.31 596.42 L441.95 594.86 L441.88 592.87 L437.85 597.13 L440.17 591.48 L440.86 588.48 L434.76 595.52 L437.85 589.08 L438.23 586.66 L432.95 592.12 L433.85 589.00 L431.77 589.91 L431.45 588.47 L430.28 588.15 L427.02 590.39 L428.26 587.06 L429.13 584.27 L422.29 590.55 L425.90 584.63 L426.53 582.23 L421.56 586.05 L424.31 581.38 L420.73 583.54 L418.89 583.78 L421.30 579.68 L416.66 582.71 L417.17 580.57 L419.03 577.21 L411.11 583.07 L415.43 577.47 L417.77 573.83 L410.17 579.04 L413.46 574.63 L413.49 573.10 L409.38 575.04 L411.65 571.68 L411.44 570.39 L413.53 567.33 L415.39 564.53 L408.96 568.01 L412.12 564.29 L412.17 562.92 L399.94 570.17 L404.64 565.47 L402.28 565.65 L398.70 566.60 L402.10 562.97 L397.71 564.36 L397.58 563.02 L400.59 559.81 L395.50 561.45 L396.87 559.27 L400.43 555.90 L391.10 559.72 L396.15 555.61 L395.23 554.76 L391.64 555.26 L394.40 552.53 L390.70 553.01 L388.29 552.81 L391.72 549.87 L387.88 550.29 L386.98 549.34 L389.28 547.02 L383.66 548.04 L388.84 544.61 L386.61 544.19 L381.80 544.71 L386.99 541.45 L383.91 541.27 L381.04 540.96 L386.10 537.95 L382.32 537.90 L380.68 537.12 L385.91 534.24 L381.71 534.22 L380.76 533.21 L380.85 531.90 L378.41 531.25 L382.27 529.01 L382.55 527.70 L383.71 526.20 L388.30 523.99 L384.76 523.55 L382.63 522.77 L384.49 521.21 L375.69 521.54 L375.27 520.33 L375.84 518.97 L368.89 518.69 L375.96 516.42 L373.85 515.42 L369.89 514.58 L375.85 512.66 L375.12 511.47 L370.18 510.62 L376.95 508.82 L373.46 507.80 L371.32 506.64 L371.03 505.37 L366.80 504.21 L372.51 502.75 L370.44 501.50 L364.02 500.22 L370.44 498.91 L371.82 497.64 L364.99 496.16 L371.36 495.06 L370.78 493.74 L368.11 492.29 L371.17 491.17 L365.17 489.41 L369.66 488.45 L369.54 487.12 L364.10 485.21 L371.27 484.69 L372.98 483.60 L364.92 481.18 L372.66 480.96 L374.96 480.03 L367.68 477.50 L368.48 476.28 L369.59 475.13 L369.13 473.69 L371.77 472.88 L371.45 471.47 L379.41 471.97 L381.46 471.19 L375.15 468.33 L379.17 468.06 L376.48 466.03 L368.13 462.31 L373.80 462.56 L368.86 459.66 L370.15 458.63 L372.65 458.02 L367.13 454.73 L373.49 455.48 L377.26 455.42 L368.55 450.76 L375.79 452.05 L378.61 451.74 L371.79 447.54 L375.02 447.39 L372.76 444.94 L373.90 443.93 L374.18 442.54 L370.54 439.30 L374.09 439.43 L378.77 440.18 L370.53 434.49 L377.28 436.36 L381.22 436.89 L375.71 432.36 L381.15 433.77 L378.19 430.51 L378.01 428.79 L382.91 430.07 L378.89 426.01 L381.19 425.78 L385.80 427.05 L377.72 420.17 L384.54 422.96 L389.59 424.72 L382.70 418.29 L388.29 420.52 L389.55 419.74 L387.16 416.27 L390.68 417.17 L387.87 413.26 L387.64 411.28 L388.86 410.42 L380.58 401.76 L379.71 399.01 L380.19 397.35 L381.64 396.53 L382.98 395.61 L383.37 393.84 L385.02 393.22 L386.21 392.19 L386.75 390.54 L389.42 390.96 L391.36 390.71 L390.25 387.36 L394.15 389.16 L394.79 387.61 L394.94 385.49 L396.24 384.61 L397.46 383.65 L399.33 383.44 L399.84 381.66 L401.51 381.24 L400.94 378.10 L402.96 378.12 L402.74 375.30 L403.83 374.12 L404.12 371.87 L406.51 372.41 L409.73 374.20 L409.94 371.80 L409.49 368.38 L411.92 369.13 L412.86 367.68 L413.08 365.11 L415.36 365.72 L416.11 363.90 L418.42 364.64 L419.84 363.94 L420.31 361.58 L422.62 362.43 L422.96 359.78 L425.05 360.29 L426.89 360.39 L428.46 360.00 L428.19 355.92 L430.43 356.85 L431.71 355.84 L432.45 353.63 L432.59 350.02 L433.99 349.12 L436.35 350.45 L437.02 347.81 L437.38 344.31 L439.55 345.24 L441.86 346.66 L443.09 345.24 L445.30 346.54 L446.63 345.40 L448.45 345.68 L450.21 345.84 L451.36 344.07 L453.31 344.90 L454.15 341.99 L456.05 342.67 L458.09 343.95 L459.57 343.24 L460.12 338.70 L462.19 340.25 L463.76 339.74 L464.88 337.14 L466.09 334.76 L468.07 336.11 L470.36 339.31 L471.75 337.76 L472.74 333.58 L474.79 335.85 L476.48 335.93 L477.60 331.77 L479.57 333.89 L481.25 333.89 L482.85 333.10 L484.64 334.22 L486.32 334.34 L487.98 334.20 L489.44 330.93 L491.25 333.19 L493.00 334.94 L494.63 334.27 L496.17 329.17 L497.91 331.67 L499.60 331.21 L501.32 327.16 L503.06 326.53 L504.80 326.13 L506.51 327.10 L508.25 326.86 L510.03 326.11 L511.68 327.47 L513.42 327.46 L515.18 327.15 L516.65 330.00 L518.45 329.19 L520.57 325.88 L521.76 330.38 L523.55 329.95 L525.69 327.24 L527.66 325.93 L528.81 329.70 L530.14 332.07 L532.24 330.16 L534.26 328.87 L535.60 331.00 L537.29 331.37 L540.06 327.03 L541.77 327.53 L543.33 328.61 L544.61 330.68 L545.88 332.67 L547.83 332.17 L549.65 332.16 L551.10 333.40 L553.72 330.92 L554.88 333.07 L556.53 333.65 L559.70 329.94 L559.91 334.65 L561.31 335.92 L564.15 333.44 L566.29 332.87 L567.13 335.58 L567.61 339.00 L570.11 337.62 L571.74 338.32 L573.08 339.64 L574.37 341.05 L577.76 338.03 L579.55 338.46 L581.92 337.77 L583.99 337.73 L585.93 337.97 L587.87 338.23 L589.45 339.18 L591.18 339.87 L591.92 342.25 L592.18 345.38 L593.50 346.68 L597.37 343.86 L597.04 347.81 L597.76 350.01 L601.26 347.98 L603.10 348.52 L603.99 350.45 L603.60 354.15 L606.47 353.23 L607.95 354.29 L609.34 355.45 L610.23 357.27 L613.97 355.44 L616.20 355.60 L617.40 357.06 L618.43 358.72 L618.21 361.80 L619.51 363.08 L622.40 362.57 L622.71 364.97 L624.75 365.45 L626.76 365.99 L627.22 368.18 L630.63 367.32 L631.28 369.30 L630.55 372.60 L634.33 371.50 L635.37 373.08 L637.65 373.51 L637.14 376.48 L640.73 375.78 L643.05 376.25 L643.24 378.57 L643.99 380.39 L644.84 382.10 L644.96 384.40 L646.15 385.82 L648.12 386.65 L648.69 388.56 L649.75 390.08 L651.43 391.16 L651.95 393.08 L653.03 394.59 L654.44 395.88 L655.75 397.25 L657.39 398.41 L658.86 399.69 L659.95 401.23 L660.89 402.86 L662.09 404.33 L664.46 405.14 L668.07 405.28 L668.15 407.44 L668.88 409.23 L670.71 410.43 L669.95 412.99 L669.65 415.27 L669.90 417.26 L670.21 419.21 L671.33 420.76 L672.23 422.43 L672.65 424.31 L672.95 426.23 L674.09 427.79 L675.51 429.25 L677.08 430.67 L677.97 432.36 L679.42 433.86 L680.76 435.41 L681.42 437.21 L682.05 439.03 L682.81 440.80 L684.76 442.20 L688.20 443.19 L688.99 445.00 L689.55 446.89 L692.41 448.16 L691.32 450.50 L689.93 452.88 L689.46 455.00 L689.16 457.07 L688.88 459.11 L688.96 461.07 L689.25 462.98 L689.26 464.94 L690.13 466.74 L691.20 468.52 L692.42 470.29 L692.91 472.19 L693.64 474.06 L694.50 475.92 L694.53 477.89 L694.93 479.81 L695.36 481.74 L696.59 483.61 L699.39 485.38 L700.41 487.32 L700.06 489.35 L701.87 491.28 L700.98 493.33 L698.97 495.39 L697.91 497.39 L698.06 499.37 L698.43 501.35 L698.27 503.33 L698.51 505.32 L698.93 507.33 L698.55 509.30 L698.86 511.31 L698.67 513.29 L698.86 515.31 L699.08 517.33 L699.22 519.35 L698.85 521.32 L698.76 523.32 L698.47 525.30 L698.81 527.37 L700.83 529.70 L702.45 532.01 L699.09 533.52 L695.83 534.99 L691.92 536.28 L685.24 536.94 L683.53 538.51 L676.82 538.95 L676.39 540.71 L689.44 545.72 L683.13 546.14 L686.04 548.86 L687.69 551.30 L681.53 551.57 L685.54 554.73 L683.00 555.97 L678.56 556.57 L684.50 560.49 L679.59 560.87 L674.13 560.97 L681.39 565.56 L677.87 566.30 L676.97 567.99 L677.68 570.31 L677.95 572.48 L681.03 575.86 L680.01 577.56 L676.05 577.95 L678.92 581.37 L677.66 582.95 L672.53 582.66 L677.12 587.05 L669.53 585.44 L669.04 587.32 L672.97 591.56 L666.84 590.46 L668.53 593.56 L670.92 597.14 L664.85 595.89 L667.78 599.85 L667.53 601.98 L660.40 599.85 L663.72 604.20 L663.79 606.56 L662.01 607.73 L661.90 610.01 L659.33 610.60 L657.88 611.95 L655.76 612.81 L650.09 611.01 L652.24 614.97 L652.48 617.57 L649.75 617.86 L656.69 625.88 L653.92 626.21 L652.62 627.72 L655.80 633.05 L649.02 629.86 L648.67 632.19 L648.96 635.15 L643.54 632.87 L643.65 635.67 L644.41 639.14 L638.22 635.87 L638.94 639.33 L638.97 642.18 L637.60 643.63 L637.82 646.76 L633.83 645.40 L634.97 649.61 L636.25 654.10 L631.64 651.93 L630.10 653.22 L631.95 658.59 L626.65 655.35 L625.25 656.80 L623.67 658.04 L620.17 656.78 L623.41 664.38 L617.84 660.27 L616.09 661.24 L619.09 668.96 L613.51 664.50 L611.37 664.90 L613.66 671.99 L607.84 666.78 L605.05 666.09 L607.13 673.18 L605.42 674.29 L602.38 673.16 L600.99 674.77 L600.92 678.76 L602.66 686.15 L598.18 682.32 L595.93 682.48 L596.67 688.45 L592.97 685.79 L591.73 687.99 L591.07 691.46 L588.10 690.09 L590.84 701.25 L590.85 706.77 L585.93 701.02 L582.86 699.33 L578.65 694.66 L575.63 692.72 L575.15 697.27 L572.61 696.48 L571.41 699.34 L571.39 705.75 L569.95 708.31 L565.26 700.96 L562.20 698.28 L560.25 699.00 L560.09 705.88 L556.95 702.64 L554.41 701.31 L553.98 707.93 L550.86 704.30 L548.16 702.07 L546.73 705.11 L544.32 703.97 L543.65 711.00 L542.38 715.74 L539.63 712.99 L537.45 713.05 L534.46 708.29 L532.10 706.81 L531.07 714.29 L528.37 710.50 L526.50 712.64 L525.26 720.66 L523.35 723.73 L520.30 715.36 L517.85 712.02 L515.54 709.73 L513.35 708.41 L511.15 706.29 L508.90 702.17 L507.15 710.26 L504.88 703.61 L502.87 705.15 L500.87 718.82 L498.71 714.60 L496.57 713.90 L494.28 719.92 L492.28 714.30 L490.11 714.78 L487.95 714.94 L486.02 711.50 L483.44 717.40 L481.81 710.93 L479.91 708.60 L477.10 715.19 L475.22 712.66 L473.41 709.85 L470.68 714.21 L468.53 713.95 L466.24 714.63 L463.65 716.95 L461.88 714.35 L459.13 717.19 L457.44 714.31 L455.66 712.15 L452.61 715.97 L451.98 708.83 L449.96 708.08 L446.27 713.97 L445.41 708.56 L443.05 709.02 L439.90 712.19 L439.24 706.60 L436.05 709.69 L434.36 707.74 L433.56 703.18 L430.11 706.74 L428.20 705.57 L426.66 703.43 L423.07 706.86 L421.76 704.13 L421.08 699.91 L418.59 700.31 L418.80 694.21 L415.13 697.42 L412.67 697.68 L411.22 695.63 L404.03 705.97 L402.83 703.22 L401.67 700.47 L396.37 706.03 L396.94 699.89 L395.97 696.92 L392.88 697.94 L393.27 692.60 L389.99 693.93 L387.40 693.94 L388.05 688.45 L383.85 691.16 L381.46 690.76 L380.52 688.05 L376.53 690.10 L376.25 686.43 L373.71 686.19 L369.30 688.59 L369.51 684.34 L367.00 683.94 L363.27 685.18 L363.89 680.53 L361.39 680.07 L360.37 677.69 L360.44 674.00 L353.89 678.48 L356.12 672.20 L355.39 669.60 L348.79 673.79 L351.13 667.69 L349.33 666.33 L343.99 668.81 L346.63 662.66 L345.66 660.44 L339.33 663.71 L338.70 661.10 L337.91 658.69 L335.60 657.75 L335.11 655.09 L333.48 653.51 L337.20 647.10 L336.48 644.81 L330.11 647.44 L330.93 643.79 L324.66 646.13 L317.46 649.06 L318.20 645.45 L314.27 645.58 L313.65 643.07 L315.02 639.10 L310.22 639.76 L314.80 633.56 L314.16 631.21 L307.58 632.99 L311.55 627.49 L310.41 625.51 L304.31 626.76 L304.14 624.10 L303.29 621.90 L301.98 619.99 L299.54 618.74 L294.23 619.13 L295.67 615.58 L292.06 614.89 L277.52 620.04 L277.03 617.44 L278.01 614.10 L278.26 611.18 L278.84 608.14 L276.47 606.54 L275.06 604.47 L275.21 601.68 L270.47 601.07 L272.66 597.40 L273.03 594.57 L268.33 593.82 L271.43 589.91 L272.41 586.91 L267.48 586.14 L266.27 583.94 L272.00 579.32 L276.47 575.26 L275.93 572.96 L272.57 571.54 L271.66 569.33 L271.69 566.83 L263.34 566.72 L265.08 563.70 L263.79 561.52 L262.93 559.22 L266.10 555.95 L260.74 554.70 L259.33 552.50 L259.34 549.98 L257.60 547.82 L257.58 545.31 L257.74 542.78 L250.47 541.49 L254.45 538.31 L257.24 535.39 L249.70 533.94 L249.97 531.36 L253.43 528.43 L255.36 525.73 L253.05 523.48 L252.66 521.02 L252.47 518.54 L252.89 516.03 L248.65 513.78 L249.30 511.23 L250.81 508.67 L248.01 506.25 L253.43 503.64 L253.72 501.18 L249.08 498.69 L252.26 496.23 L251.25 493.72 L249.93 491.19 L252.04 488.78 L246.99 486.01 L246.89 483.47 L251.47 481.27 L244.94 478.21 L246.16 475.76 L248.40 473.43 L250.82 471.16 L250.93 468.65 L250.69 466.08 L249.66 463.39 L251.75 461.15 L249.17 458.18 L246.77 455.17 L247.26 452.64 L245.09 449.59 L245.18 446.96 L246.14 444.50 L243.41 441.21 L245.64 439.04 L248.90 437.16 L250.15 434.81 L254.33 433.27 L253.72 430.45 L251.72 427.20 L257.38 426.22 L254.17 422.55 L253.28 419.55 L255.69 417.62 L258.79 415.97 L260.45 413.85 L260.26 411.07 L259.13 407.90 L262.14 406.31 L261.18 403.16 L259.54 399.69 L262.12 397.96 L263.21 395.61 L266.01 394.04 L268.63 392.42 L262.77 386.80 L267.16 386.02 L269.24 384.16 L265.79 379.49 L270.86 379.18 L272.02 376.87 L268.90 372.18 L275.50 372.88 L276.16 370.28 L273.15 365.49 L275.19 363.64 L279.96 363.51 L282.41 361.99 L282.09 358.72 L281.19 355.00 L285.24 354.57 L287.01 352.64 L287.35 349.72 L290.22 348.57 L289.73 345.00 L291.76 343.26 L292.15 340.27 L288.63 334.18 L289.40 331.35 L290.51 328.77 L290.20 324.99 L293.20 323.96 L294.78 321.74 L293.75 317.19 L297.42 316.80 L298.69 314.25 L299.23 310.99 L301.93 309.77 L305.09 309.01 L309.00 309.07 L311.05 307.30 L312.49 304.91 L315.62 304.28 L317.14 301.97 L317.91 298.79 L320.94 298.13 L322.03 295.26 L323.19 292.44 L325.93 291.47 L327.05 288.55 L329.24 286.91 L331.01 284.75 L332.28 281.91 L335.75 281.94 L337.46 279.67 L336.08 273.08 L339.78 273.46 L342.10 271.93 L343.13 268.51 L346.10 267.93 L348.95 267.21 L352.77 268.04 L355.68 267.53 L357.79 265.72 L360.58 265.06 L362.96 263.71 L363.51 259.16 L365.73 257.44 L367.43 254.76 L369.53 252.76 L371.60 250.68 L373.82 248.84 L376.40 247.74 L378.70 246.03 L381.29 244.92 L384.13 244.36 L386.86 243.61 L388.19 239.59 L391.26 239.60 L394.07 239.01 L395.73 235.55 L398.91 235.92 L401.90 235.84 L405.60 237.80 L408.47 237.57 L411.15 236.81 L413.91 236.32 L416.50 235.31 L418.44 232.14 L421.35 232.12 L423.99 231.19 L425.72 226.91 L428.88 227.81 L431.49 226.64 L433.50 222.96 L436.20 221.98 L439.02 221.52 L441.91 221.41 L444.83 221.54 L447.29 219.21 L450.09 218.67 L453.11 219.42 L455.59 216.82 L458.63 217.85 L461.59 218.40 L464.77 220.94 L467.94 223.85 L471.08 227.04 L474.15 230.38 L477.35 235.95 L479.98 235.54 L482.66 235.99 L485.39 237.39 L487.44 224.71 L490.33 228.21 L493.11 230.74 L495.67 221.70 L498.48 228.12 L501.19 231.26 L503.95 226.33 L506.56 231.63 L509.32 229.27 L512.02 229.56 L514.56 232.73 L517.50 228.77 L520.07 230.88 L522.67 232.09 L525.89 226.58 L528.27 230.27 L530.95 230.73 L534.50 224.12 L536.77 228.10 L539.62 227.59 L542.62 226.22 L544.96 229.04 L547.70 229.32 L549.91 232.48 L552.33 234.22 L556.72 226.40 L557.96 233.85 L560.25 236.05 L564.70 229.07 L565.97 235.52 L568.57 236.35 L572.23 233.25 L573.68 238.29 L576.06 239.85 L579.87 236.59 L582.14 238.57 L585.04 238.52 L587.69 239.27 L589.42 242.65 L592.74 241.47 L593.05 248.54 L594.95 251.08 L599.61 246.53 L601.32 249.55 L606.27 244.69 L610.59 241.63 L612.54 244.18 L616.95 241.21 L618.75 244.08 L619.29 249.50 L624.84 244.46 L624.15 252.18 L625.95 254.74 L630.81 251.42 L631.11 256.80 L633.52 258.15 L637.62 256.51 L639.79 258.34 L642.16 259.81 L645.05 260.43 L647.47 261.85 L653.79 257.09 L653.23 263.26 L654.98 265.72 L660.69 262.29 L660.90 267.03 L661.94 270.46 L665.28 270.65 L665.36 275.30 L669.65 274.24 L672.35 275.36 L672.58 279.66 L679.15 275.92 L678.28 281.52 L678.57 285.58 L686.18 280.94 L683.71 288.17 L683.74 292.37 L690.42 289.10 L692.46 291.08 L690.79 297.01 L696.28 295.31 L698.68 296.92 L704.40 295.20 L707.26 296.45 L709.92 297.92 L722.54 290.02 L722.37 294.34 L723.47 297.43 L725.65 299.53 L722.89 305.94 L724.57 308.39 L723.03 313.52 L720.15 319.64 L725.84 318.72 L726.27 322.07 L727.10 325.07 L741.99 317.42 L741.59 321.49 L740.45 326.02 L746.34 325.48 L746.77 328.86 L744.33 334.14 L739.55 340.86 L741.91 342.76 L747.33 342.73 L748.56 345.42 L749.63 348.19 L761.91 344.29 L765.55 345.70 L764.94 349.58 L767.36 351.72 L763.88 357.08 L762.58 361.16 L758.56 366.58 L754.92 371.67 L760.48 372.12 L763.01 374.13 L762.61 377.53 L774.04 375.52 L778.80 376.71 L776.02 381.22 L782.06 381.95 L781.76 385.37 L780.24 389.25 L773.65 395.00 L772.89 398.41 L773.44 401.31 L773.13 404.50 L767.94 409.31 L773.93 410.32 L775.95 412.71 L774.92 416.05 L787.02 415.48 L783.97 419.46 L785.88 422.00 L791.36 423.62 L785.59 428.18 L787.82 430.67 L790.33 433.13 L785.15 437.32 L788.96 439.51 L791.12 442.09 L786.02 446.07 L791.12 448.12 L791.22 451.10 L791.73 454.01 L794.54 456.58 L792.13 459.91 L796.08 462.38 L800.16 464.91 L796.21 468.37 L797.77 471.21 L801.77 473.87 L796.61 477.30 L797.43 480.23 L796.64 483.26 L794.00 486.36 L803.00 488.97 L795.28 492.21 L795.64 495.16 L802.90 498.07 L796.62 501.08 L797.02 504.05 L802.56 507.15 L795.45 509.94 L794.62 512.86 L800.60 516.14 L799.65 519.09 L797.99 521.98 L797.72 524.96 L797.85 527.97 L797.32 530.92 L790.54 533.16 L788.81 535.89 L795.38 539.71 L791.04 542.09 L798.08 546.16 L803.72 550.15 L800.83 552.76 L804.33 556.52 L801.69 559.16 L797.64 561.46 L801.35 565.37 L793.65 566.79 L792.26 569.55 L797.44 573.93 L790.92 575.41 L790.85 578.50 L794.93 582.78 L793.00 585.40 L791.96 588.28 L791.36 591.29 L791.54 594.55 L795.81 599.22 L789.37 600.29 L787.84 603.00 L793.11 608.20 L787.82 609.53 L785.06 611.76 L786.24 615.53 L780.38 616.44 L782.83 620.79 L781.67 623.64 L777.96 625.34 L782.78 630.93 L776.50 631.40 L773.41 633.30 L780.29 640.14 L772.12 639.47 L767.89 640.70 L773.95 647.40 L771.94 649.85 L766.37 650.27 L768.20 654.86 L766.45 657.42 L763.08 659.00 L757.56 659.20 L752.81 659.78 L759.26 667.51 L751.98 666.40 L751.51 669.73 L761.37 680.21 L756.53 680.68 L755.43 683.76 L756.01 688.09 L750.69 688.07 L749.16 690.84 L745.71 692.13 L741.42 692.70 L745.72 700.19 L738.17 698.03 L734.11 698.65 L738.05 706.12 L735.06 707.68 L731.34 708.55 L731.08 712.54 L729.51 715.38 L729.00 719.24 L726.47 721.20 L723.11 722.32 L724.57 728.30 L719.58 727.74 L715.40 727.91 L716.52 733.75 L709.99 731.29 L707.33 733.00 L708.48 739.06 L703.20 737.77 L702.51 741.82 L700.77 744.67 L696.07 743.88 L697.39 750.60 L692.92 750.03 L687.56 748.18 L688.56 754.76 L686.10 756.77 L681.47 755.72 L680.72 760.13 L678.50 762.51 L676.98 765.95 L676.94 771.75 L673.80 772.85 L676.88 783.91 L678.09 792.33 L674.93 793.71 L671.65 794.86 L668.04 795.43 L663.99 795.14 L659.65 794.21 L655.66 793.83 L652.08 794.15 L648.96 795.32 L645.50 795.77 L642.68 797.52 L640.08 799.74 L637.15 801.31 L634.02 802.41 L630.67 802.99 L626.76 802.19 L622.23 799.78 L617.41 796.39 L614.52 797.75 L612.52 801.53 L608.57 800.08 L606.11 802.69 L603.40 804.68 L599.44 802.93 L597.18 806.37 L594.22 807.66 L591.11 808.52 L590.60 818.46 L587.29 818.92 L583.50 817.50 L579.26 814.12 L575.56 812.59 L572.50 813.64 L570.12 817.80 L566.65 817.11 L564.70 823.89 L562.21 828.49 L558.57 827.14 L554.66 823.95 L550.65 819.62 L547.38 819.61 L545.07 826.51 L541.24 822.52 L538.06 823.38 L535.14 826.68 L531.51 823.30 L528.40 824.93 L525.22 826.19 L521.95 826.37 L519.13 834.32 L515.86 836.03 L512.41 833.83 L508.96 829.73 L505.60 825.91 L502.33 825.08 L499.07 829.27 L495.79 828.23 L492.41 832.38 L488.89 838.25 L485.58 836.51 L482.40 832.79 L479.40 827.46 L476.25 825.48 L472.46 831.71 L469.62 826.28 L466.41 825.52 L462.69 829.23 L459.79 825.68 L456.53 825.33 L452.83 827.97 L449.76 826.14 L445.43 832.14 L441.39 835.74 L438.40 833.14 L435.84 828.61 L433.35 824.09 L430.51 821.55 L426.17 825.80 L423.39 823.06 L419.64 824.38 L414.26 831.86 L411.31 829.64 L408.77 826.06 L406.94 820.21 L404.52 816.67 L401.20 816.21 L399.62 810.33 L397.61 806.07 L391.31 814.41 L390.37 807.15 L386.68 807.74 L378.74 819.42 L377.46 813.31 L374.09 812.67 L369.01 816.12 L368.50 808.58 L364.74 808.81 L361.83 807.07 L360.44 802.03 L354.11 807.63 L354.39 799.27 L352.29 796.03 L346.40 800.27 L343.77 798.03 L342.27 793.71 L337.03 796.32 L334.59 793.76 L330.26 794.52 L326.44 794.31 L324.78 790.45 L319.31 792.84 L318.82 787.18 L317.07 783.63 L312.02 785.15 L312.19 778.78 L309.71 776.46 L303.34 779.68 L303.58 773.49 L299.40 773.50 L295.34 773.26 L295.31 767.67 L288.96 770.34 L288.91 764.89 L288.21 760.38 L282.64 761.85 L280.38 759.24 L279.70 754.84 L273.51 756.76 L271.95 753.38 L271.98 748.31 L268.97 746.59 L270.88 739.70 L265.47 740.50 L263.15 738.07 L261.07 735.41 L248.44 742.93 L250.12 736.53 L248.98 732.90 L239.72 736.69 L242.20 729.76 L242.47 724.95 L236.53 725.53 L238.97 718.96 L234.15 718.50 L232.42 715.48 L232.83 710.78 L226.37 711.47 L226.86 706.77 L225.89 703.22 L219.05 703.97 L219.00 699.74 L217.30 696.73 L209.75 697.70 L210.89 692.72 L207.50 690.78 L205.03 688.22 L204.97 684.13 L202.58 681.51 L203.85 676.70 L203.60 672.86 L193.51 674.66 L198.37 667.91 L197.94 664.22 L189.87 664.61 L193.18 658.94 L191.03 656.16 L187.54 654.02 L189.89 649.02 L188.17 646.03 L183.97 644.16 L183.96 640.36 L181.56 637.63 L180.27 634.41 L178.64 631.33 L168.21 631.74 L169.39 627.46 L163.95 625.71 L152.86 625.92 L153.57 621.75 L153.47 617.91 L153.90 613.91 L153.36 610.26 L147.15 608.36 L148.26 604.18 L143.29 601.79 L144.74 597.54 L149.68 592.43 L152.83 587.89 L155.47 583.57 L160.58 578.74 L159.78 575.35 L155.01 572.80 L152.95 569.61 L153.51 565.91 L154.01 562.23 L150.20 559.31 L143.74 556.75 L150.24 552.13 L150.71 548.50 L142.95 545.94 L147.35 541.79 L149.61 537.98 L146.34 534.76 L151.34 530.75 L145.91 527.66 L147.55 523.99 L149.17 520.36 L140.97 517.23 L147.41 513.39 L148.44 509.83 L138.56 506.49 L146.54 502.81 L150.30 499.29 L142.06 495.69 L143.07 492.13 L146.51 488.67 L143.89 485.02 L142.86 481.40 L144.49 477.92 L150.15 474.75 L153.72 471.53 L144.80 467.22 L151.46 464.31 L150.71 460.70 L139.59 455.80 L144.65 452.81 L141.16 448.69 L141.27 445.04 L146.59 442.23 L142.80 437.93 L146.28 434.89 L150.43 432.03 L142.11 426.69 L150.59 424.78 L154.83 422.08 L148.35 416.91 L150.84 413.80 L152.06 410.40 L151.52 406.54 L151.41 402.76 L148.83 398.25 L151.20 395.14 L154.73 392.43 L149.81 387.04 L155.10 384.92 L159.72 382.67 L155.66 377.41 L163.17 376.27 L163.29 372.48 L160.48 367.52 L166.85 366.15 L163.58 360.91 L164.38 357.30 L169.31 355.47 L164.59 349.39 L169.42 347.57 L175.34 346.35 L171.47 340.48 L174.03 337.67 L177.13 335.17 L176.16 330.56 L179.00 327.94 L181.40 325.10 L184.54 322.70 L191.33 322.43 L188.70 316.75 L190.51 313.62 L194.05 311.56 L184.32 301.19 L191.29 301.24 L191.82 297.19 L190.05 291.56 L197.41 292.08 L197.57 287.71 L198.77 284.02 L206.20 284.87 L205.12 279.52 L206.56 275.98 L213.08 276.38 L211.09 270.15 L214.66 268.29 L216.92 265.39 L217.39 260.98 L221.21 259.39 L221.01 254.30 L221.03 249.32 L227.01 249.71 L228.07 245.64 L228.70 241.09 L234.37 241.37 L236.18 237.94 L240.53 237.06 L244.61 235.97 L241.42 227.27 L249.46 230.39 L251.55 227.23 L250.04 219.99 L256.72 221.93 L258.63 218.47 L258.87 213.00 L265.87 215.60 L268.43 212.91 L268.31 206.81 L271.64 205.01 L275.47 203.89 L278.67 201.96 L281.41 199.41 L284.66 197.57 L291.11 200.33 L294.27 198.48 L293.78 191.18 L299.54 193.20 L298.38 184.58 L299.37 179.11 L303.91 179.28 L304.11 172.29 L309.78 174.42 L313.15 172.72 L314.47 167.36 L321.21 171.77 L325.08 171.07 L325.30 163.42 L331.62 167.50 L334.82 165.57 L336.41 160.27 L339.17 157.26 L343.12 156.81 L347.04 156.33 L349.17 151.79 L350.32 144.74 L356.48 149.62 L360.56 149.63 L361.39 141.31 L366.64 144.37 L371.15 145.65 L373.79 141.80 L379.22 145.95 L381.00 139.40 L385.06 139.65 L389.56 141.41 L390.56 131.60 L395.89 136.26 L399.42 134.81 L398.70 117.30 L403.80 121.29 L408.19 122.81 L411.06 118.02 L414.92 117.29 L420.25 123.56 L425.26 128.92 L428.33 124.81 L431.02 118.22 L434.93 118.12 L438.36 115.02 L439.65 97.33 L443.73 97.10 L447.82 97.03 L451.94 97.21 L456.15 98.40 L460.46 100.94 L464.64 102.68 L468.80 104.72 L472.85 105.73 L476.83 106.15 L480.81 106.66 L484.68 104.85 L488.63 104.87 L492.58 104.51 L496.54 104.71 L500.49 105.98 L504.40 108.72 L508.20 113.79 L511.98 116.65 L515.91 114.51 L519.71 115.63 L523.44 117.69 L527.61 113.03 L531.20 116.79 L534.91 118.49 L539.16 114.52 L542.77 117.08 L546.91 115.00 L551.77 107.77 L555.58 109.10 L558.99 112.96 L562.26 117.22 L565.84 119.28 L570.26 116.59 L573.96 117.97 L577.88 118.24 L583.77 109.33 L587.39 111.45 L590.71 114.75 L593.39 120.43 L596.60 123.65 L600.98 122.31 L604.91 122.74 L607.77 126.97 L612.25 125.55 L615.97 126.75 L618.46 131.76 L623.72 128.21 L626.29 132.80 L631.07 130.92 L637.48 124.82 L640.65 127.72 L643.50 131.37 L646.18 135.34 L648.21 140.72 L652.63 140.25 L657.44 138.98 L660.89 140.92 L667.43 136.13 L670.80 138.36 L674.25 140.42 L675.50 146.87 L677.04 152.53 L681.80 151.85 L686.50 151.40 L688.32 156.29 L692.25 157.30 L696.47 157.84 L698.28 162.55 L702.60 162.96 L705.83 165.22 L710.35 165.40 L718.46 160.10 L720.48 164.39 L722.84 168.07 L724.45 172.80 L725.75 177.86 L728.95 180.15 L734.95 178.59 L737.36 182.03 L743.95 179.93 L748.32 180.86 L751.32 183.58 L751.22 190.13 L750.26 197.54 L754.57 198.52 L762.13 195.79 L764.14 199.59 L770.41 198.59 L779.85 194.28 L783.50 196.44 L786.20 199.62 L788.94 202.76 L792.28 205.28 L794.95 208.48 L798.18 211.12 L801.70 213.50 L803.79 217.24 L805.76 221.06 L808.17 224.46 L812.06 226.55 L813.92 230.42 L817.12 233.13 L821.49 234.90 L825.17 237.29 L828.18 240.24 L829.33 244.64 L831.27 248.40 L836.26 249.87 L836.35 254.99 L838.19 258.79 L841.57 261.50 L842.74 265.74 L845.17 269.11 L848.07 272.17 L849.87 275.97 L853.48 278.60 L856.67 281.54 L859.92 284.47 L861.56 288.37 L862.50 292.66 L864.42 296.37 L868.05 299.15 L869.02 303.38 L870.87 307.13 L875.02 309.71 L877.78 313.04 L879.97 316.66 L880.46 321.09 L880.92 325.51 L885.07 328.24 L884.94 332.89 L886.04 336.99 L890.12 339.84 L891.74 343.73 L894.17 347.32 L895.81 351.22 L896.98 355.29 L898.20 359.34 L899.79 363.26 L901.44 367.17 L903.18 371.05 L902.65 375.64 L903.55 379.77 L907.43 383.04 L907.17 387.51 L907.65 391.75 L911.56 395.11 L913.38 399.03 L915.17 402.99 L915.37 407.31 L914.90 411.76 L918.50 415.36 L918.34 419.74 L917.04 424.30 L919.99 428.10 L919.55 432.48 L920.39 436.66 L921.06 440.85 L921.64 445.07 L922.77 449.21 L924.12 453.35 L924.91 457.56 L925.61 461.78 L924.25 466.18 L923.97 470.46 L926.50 474.57 L925.68 478.89 L925.25 483.17 L928.14 487.34 L929.01 491.61 L929.76 495.89 L953.22 500.00 L952.37 495.48 L952.55 490.95 L952.12 486.43 L954.71 481.80 L953.27 477.32 L952.49 472.82 L953.16 468.23 L951.21 463.83 L949.89 459.40 L948.59 454.99 L948.15 450.50 L947.84 446.00 L947.33 441.52 L946.46 437.08 L945.72 432.64 L944.47 428.27 L943.36 423.89 L944.62 419.09 L941.08 415.17 L939.72 410.86 L940.38 406.14 L937.21 402.23 L935.42 398.05 L934.97 393.55 L934.15 389.14 L935.24 384.22 L933.40 380.05 L930.89 376.10 L931.36 371.28 L928.75 367.37 L926.57 363.36 L924.60 359.29 L923.11 355.07 L921.32 350.96 L919.53 346.86 L917.75 342.76 L915.72 338.76 L912.83 335.11 L910.83 331.13 L911.37 326.08 L907.69 322.81 L904.19 319.50 L905.15 314.19 L901.92 310.78 L898.88 307.32 L897.56 303.03 L895.82 298.94 L895.77 293.96 L893.57 290.07 L890.00 286.94 L889.52 282.12 L886.74 278.57 L883.49 275.31 L880.60 271.86 L878.50 267.94 L877.15 263.55 L875.58 259.27 L871.91 256.34 L869.86 252.36 L867.52 248.56 L863.65 245.84 L861.66 241.81 L857.98 238.99 L853.01 237.17 L852.11 232.32 L848.31 229.67 L844.14 227.36 L841.84 223.57 L839.39 219.89 L837.98 215.32 L835.45 211.67 L831.32 209.41 L829.81 204.85 L826.10 202.24 L821.81 200.20 L818.78 197.02 L815.17 194.39 L811.48 191.86 L808.59 188.56 L805.13 185.82 L801.97 182.79 L798.58 180.01 L794.84 177.62 L798.26 167.25 L797.25 161.63 L791.75 161.11 L793.47 152.15 L790.43 148.67 L783.23 150.32 L776.95 151.00 L773.14 148.64 L770.86 144.29 L769.98 137.99 L765.07 137.05 L763.80 131.11 L759.63 129.16 L753.74 129.75 L748.03 130.20 L743.38 129.17 L738.10 129.18 L738.73 119.90 L735.49 116.59 L731.79 114.02 L728.68 110.42 L722.89 111.43 L719.98 107.47 L716.25 104.91 L710.47 106.16 L707.87 101.49 L704.76 97.69 L698.43 100.30 L692.46 102.38 L688.27 100.90 L684.15 99.31 L682.44 92.34 L677.97 91.42 L674.86 87.33 L671.10 84.69 L665.49 86.63 L660.13 88.12 L655.14 88.83 L650.31 89.25 L648.69 80.71 L645.12 77.43 L640.01 78.62 L636.84 73.98 L631.30 76.72 L627.40 74.33 L623.69 71.13 L618.08 74.66 L614.44 71.19 L610.54 68.53 L605.44 70.63 L600.10 74.02 L595.41 74.92 L590.82 75.57 L588.35 65.95 L583.87 65.78 L579.53 64.91 L575.56 61.93 L570.84 63.24 L565.89 66.35 L561.13 68.67 L556.67 69.21 L553.17 62.00 L548.97 59.86 L544.28 62.23 L540.28 57.59 L535.71 59.01 L531.14 60.88 L527.00 56.47 L522.38 59.88 L518.00 59.06 L513.63 57.63 L509.12 61.32 L504.68 66.10 L500.34 68.02 L496.04 69.80 L491.75 70.67 L487.47 70.96 L483.19 71.36 L478.85 70.48 L474.63 71.93 L470.44 73.47 L466.23 74.58 L462.22 77.57 L458.30 81.07 L454.40 84.14 L450.49 86.61 L446.52 88.36 L442.57 90.14 L438.58 91.39 L431.87 75.70 L427.44 75.29 L423.20 76.05 L418.02 71.92 L413.26 70.34 L410.34 77.71 L407.50 84.78 L403.44 86.12 L398.52 83.87 L395.14 87.97 L392.34 94.01 L383.98 79.48 L380.09 81.73 L377.41 88.00 L371.01 81.84 L367.69 85.83 L363.90 88.19 L358.29 85.19 L356.12 92.22 L351.07 91.00 L348.22 95.79 L346.26 102.69 L339.50 97.24 L336.09 100.35 L334.77 108.32 L328.71 105.03 L323.86 104.72 L320.22 107.17 L316.87 110.21 L313.05 112.20 L307.05 109.77 L303.69 112.78 L302.93 120.72 L296.01 116.82 L293.09 120.54 L293.04 129.31 L287.13 127.52 L284.25 131.11 L282.50 136.49 L276.09 134.14 L274.37 139.47 L268.37 138.00 L261.43 135.22 L260.28 141.35 L253.03 138.39 L250.32 142.15 L250.55 149.99 L247.21 152.71 L243.89 155.45 L240.53 158.13 L238.20 162.12 L235.70 165.85 L228.80 164.08 L226.07 167.56 L227.46 175.91 L221.09 174.98 L217.86 177.80 L218.73 185.20 L211.63 183.68 L208.19 186.26 L210.08 194.48 L201.73 191.91 L200.61 196.88 L198.24 200.53 L195.30 203.60 L196.46 210.58 L191.33 211.52 L187.52 213.77 L188.07 219.95 L182.89 220.98 L177.89 222.24 L177.47 227.46 L173.17 229.38 L170.87 232.97 L168.73 236.69 L162.71 237.37 L165.02 244.51 L161.51 247.14 L156.71 248.86 L159.24 255.91 L155.56 258.45 L152.40 261.38 L155.54 268.57 L149.64 269.66 L146.55 272.66 L147.99 278.53 L136.16 276.13 L136.04 281.04 L133.38 284.41 L127.19 285.75 L130.81 292.72 L130.02 297.11 L128.80 301.25 L128.55 305.87 L124.51 308.51 L124.42 313.17 L122.89 317.09 L116.47 318.70 L120.22 325.09 L120.24 329.68 L114.13 331.56 L116.58 337.17 L114.30 340.74 L108.72 342.99 L111.68 348.67 L106.94 351.34 L104.90 355.06 L109.79 361.27 L103.81 363.59 L106.27 368.83 L108.41 373.87 L102.07 376.21 L103.65 381.04 L103.66 385.35 L99.35 388.43 L97.67 392.28 L95.76 396.10 L95.60 400.35 L97.19 405.01 L89.35 407.48 L92.29 412.42 L98.12 417.87 L89.80 420.43 L93.15 425.30 L94.72 429.77 L90.53 433.25 L95.10 438.15 L93.62 442.07 L90.08 445.74 L94.73 450.48 L83.04 453.28 L82.11 457.40 L88.66 462.22 L79.10 465.58 L83.12 470.10 L87.55 474.56 L89.22 478.79 L88.44 482.87 L85.79 486.91 L89.03 491.12 L90.48 495.25 L82.75 499.34 L87.32 503.47 L95.34 507.45 L85.71 511.77 L88.23 515.82 L94.23 519.66 L87.64 524.11 L89.67 528.11 L91.36 532.11 L87.79 536.54 L93.63 540.12 L91.22 544.49 L94.92 548.19 L101.20 551.49 L94.12 556.54 L96.01 560.40 L103.22 563.38 L99.02 568.17 L97.55 572.57 L98.96 576.47 L100.89 580.24 L102.04 584.16 L98.54 589.10 L100.49 592.87 L107.71 595.34 L112.07 598.40 L116.90 601.26 L124.33 603.33 L126.97 606.62 L125.42 611.13 L128.44 614.29 L125.30 619.37 L127.92 622.65 L130.48 625.91 L133.38 629.03 L136.94 631.87 L128.34 639.22 L126.95 644.01 L131.57 646.48 L124.18 653.78 L126.47 657.23 L127.88 661.03 L128.96 664.99 L132.94 667.63 L131.32 672.85 L133.80 676.17 L140.22 677.54 L138.89 682.71 L141.56 685.88 L148.81 686.60 L144.14 693.67 L147.80 696.27 L155.62 696.45 L150.80 703.86 L154.32 706.46 L158.65 708.54 L160.87 711.87 L166.13 713.25 L166.94 717.45 L168.37 721.28 L173.98 722.28 L170.83 729.28 L173.74 732.13 L178.85 733.37 L176.93 739.74 L180.92 741.77 L185.06 743.62 L184.14 749.42 L189.88 749.96 L192.57 752.91 L193.44 757.38 L200.36 756.72 L199.24 762.94 L204.95 763.20 L212.62 761.57 L208.84 770.38 L213.08 771.83 L218.78 771.82 L213.24 782.77 L216.61 785.10 L219.55 787.84 L219.56 793.65 L227.42 791.20 L229.62 794.70 L235.23 794.44 L239.73 795.32 L239.51 801.61 L244.45 801.93 L247.68 804.23 L248.02 810.08 L254.17 808.77 L258.74 809.33 L259.19 815.20 L265.64 813.20 L266.98 817.99 L269.17 821.71 L275.32 819.84 L275.28 826.80 L279.06 828.28 L285.65 825.46 L286.93 830.67 L291.73 830.44 L297.07 829.22 L298.15 834.92 L303.07 834.27 L305.51 837.81 L308.07 841.22 L311.87 842.43 L313.34 847.95 L318.44 846.72 L322.80 846.78 L323.57 853.98 L328.22 853.45 L334.73 848.90 L335.43 856.58 L340.91 853.98 L344.41 855.66 L347.49 858.33 L353.80 853.26 L355.41 859.51 L359.20 860.46 L364.72 856.82 L363.80 870.38 L367.16 872.70 L373.21 867.31 L373.81 877.75 L379.12 874.27 L384.01 871.81 L387.50 873.73 L392.35 871.01 L397.28 867.73 L401.53 866.61 L405.60 866.06 L407.47 874.25 L410.95 876.29 L415.34 874.38 L418.11 879.73 L422.40 878.15 L426.87 875.40 L431.46 871.61 L435.52 870.33 L438.52 875.24 L441.58 880.39 L445.68 878.92 L449.06 882.50 L452.95 882.54 L457.17 879.46 L460.48 884.62 L464.50 883.14 L468.66 879.47 L472.03 885.70 L476.10 882.66 L480.16 878.43 L484.07 875.63 L487.88 874.13 L491.50 879.75 L495.26 882.72 L499.09 880.72 L502.93 884.44 L506.74 882.90 L510.45 878.54 L514.07 873.89 L517.69 871.32 L521.52 873.15 L525.65 878.79 L529.38 877.85 L533.26 878.61 L537.08 878.70 L540.51 875.02 L544.63 877.72 L548.27 876.22 L551.43 871.36 L556.19 877.88 L559.71 875.71 L562.63 870.18 L565.74 866.25 L569.07 863.82 L573.47 866.96 L578.12 870.85 L581.30 867.70 L585.83 870.57 L589.46 869.40 L592.35 865.30 L594.94 860.35 L597.99 857.37 L601.48 856.12 L607.16 862.24 L610.62 860.64 L614.31 859.82 L618.46 860.35 L621.05 856.17 L625.08 856.29 L628.74 855.31 L631.21 851.12 L635.97 853.07 L639.15 850.83 L640.57 844.31 L642.73 839.84 L645.36 836.65 L648.20 834.01 L651.28 831.96 L654.39 830.00 L657.88 828.84 L661.41 827.75 L664.16 825.10 L666.78 822.23 L669.21 819.07 L671.11 815.00 L672.78 810.63 L674.56 806.58 L676.80 803.41 L679.18 800.55 L681.74 798.02 L688.79 802.73 L697.16 809.21 L699.05 805.41 L704.90 807.61 L708.90 806.92 L711.75 804.52 L716.12 804.26 L717.15 799.33 L720.47 797.60 L726.64 799.61 L725.78 792.35 L727.73 788.87 L733.61 790.30 L733.30 784.06 L737.62 783.48 L741.54 782.38 L741.30 776.45 L747.26 777.62 L749.44 774.50 L747.73 767.20 L753.43 767.92 L753.69 762.88 L754.14 758.13 L760.07 758.92 L760.86 754.57 L763.28 751.84 L766.71 750.06 L769.68 747.82 L773.98 746.77 L774.20 742.04 L775.13 738.01 L783.09 739.99 L782.79 734.92 L780.28 728.13 L787.82 729.53 L787.20 724.37 L788.13 720.49 L790.53 717.76 L788.72 711.92 L793.68 711.07 L795.71 708.09 L794.23 702.67 L807.54 707.34 L810.06 704.56 L806.27 697.69 L815.66 699.31 L814.03 693.91 L812.36 688.59 L812.62 684.51 L813.24 680.68 L818.23 679.34 L816.08 673.98 L816.60 670.17 L825.37 670.71 L823.54 665.64 L818.28 658.96 L828.10 659.78 L826.92 655.18 L824.63 650.14 L831.03 649.09 L830.20 644.77 L831.47 641.39 L835.50 639.16 L832.72 634.12 L836.28 631.66 L835.03 627.33 L831.22 622.10 L838.69 621.02 L839.16 617.38 L835.39 612.33 L840.53 610.28 L842.11 607.02 L843.62 603.73 L843.66 600.01 L843.36 596.21 L849.07 594.05 L849.45 590.42 L844.28 585.41 L850.63 583.28 L850.38 579.53 L843.97 574.46 L848.54 571.81 L845.57 567.60 L844.88 563.89 L848.32 560.93 L846.03 556.97 L853.05 554.51 L859.18 551.78 L856.08 547.71 L862.63 544.90 L861.23 541.06 L854.56 536.72 L854.97 533.17 L854.93 529.59 L855.49 526.06 L853.40 522.36 L852.89 518.79 L859.43 515.53 L857.49 511.87 L850.19 508.12 L856.31 504.70 L855.51 501.13 L848.79 497.62 L855.41 494.02 L855.40 490.47 L848.72 487.16 L855.69 483.34 L852.57 479.95 L852.09 476.44 L851.43 472.95 L845.25 469.95 L849.08 466.10 L849.19 462.56 L843.90 459.64 L846.88 455.77 L849.58 451.87 L845.40 448.92 L847.08 445.12 L845.80 441.77 L846.09 438.16 L848.43 434.14 L841.43 431.92 L842.88 428.06 L843.86 424.26 L837.29 422.16 L838.12 418.40 L838.06 414.82 L830.56 413.19 L834.55 408.56 L833.50 405.25 L829.78 402.73 L838.45 396.49 L835.29 393.77 L835.38 390.04 L838.12 385.39 L830.70 384.20 L828.14 381.40 L826.22 378.40 L822.60 376.06 L813.88 375.79 L810.42 373.55 L808.16 370.87 L810.64 366.16 L804.76 365.07 L808.01 359.93 L814.95 352.95 L810.13 351.40 L810.61 347.34 L812.55 342.48 L805.91 341.97 L798.68 341.91 L794.74 340.20 L788.47 339.85 L787.25 336.74 L783.30 335.22 L784.40 330.75 L791.75 322.40 L788.68 320.29 L786.57 317.61 L787.90 312.69 L786.30 309.63 L777.47 311.47 L772.10 311.11 L768.76 309.42 L770.54 304.06 L765.39 303.71 L762.40 301.84 L771.17 290.92 L767.42 289.52 L763.96 287.93 L764.98 282.71 L757.85 284.21 L752.49 284.37 L749.60 282.48 L742.73 284.17 L740.91 281.43 L737.44 280.21 L733.41 279.57 L740.55 268.23 L738.15 265.90 L737.03 262.30 L737.74 256.77 L734.66 255.07 L735.64 249.07 L729.53 250.62 L726.17 249.29 L728.00 242.12 L723.08 242.54 L715.58 246.11 L718.46 237.45 L713.27 238.40 L708.55 238.91 L709.29 232.53 L704.80 232.82 L702.59 230.15 L701.19 226.35 L696.35 227.27 L694.51 224.05 L690.14 224.44 L684.67 226.55 L685.25 219.69 L681.67 219.04 L676.24 221.37 L676.62 214.48 L673.52 213.13 L671.14 210.56 L667.88 209.48 L664.45 208.73 L663.31 203.87 L659.75 203.36 L654.24 206.59 L653.66 200.47 L649.87 200.51 L643.74 205.44 L643.34 198.66 L638.36 201.45 L634.99 200.93 L633.30 196.62 L629.18 197.81 L628.26 191.48 L626.85 186.04 L622.85 186.97 L621.63 180.71 L617.75 181.37 L612.08 187.12 L609.71 183.82 L605.55 185.70 L602.58 184.09 L599.32 183.39 L595.87 183.33 L593.94 178.13 L590.11 179.39 L585.63 183.20 L583.55 178.15 L580.00 178.62 L575.30 184.06 L573.80 176.04 L570.20 176.95 L565.77 182.06 L563.86 174.92 L560.37 175.56 L556.70 177.37 L553.43 177.10 L549.67 179.95 L546.81 177.16 L543.61 176.48 L539.84 180.32 L537.39 173.39 L534.09 173.35 L530.41 177.35 L527.62 171.93 L524.22 173.21 L520.90 173.82 L517.79 170.70 L514.31 174.85 L511.07 174.43 L507.85 172.82 L504.50 177.82 L501.30 173.18 L498.05 176.50 L494.93 183.59 L491.55 175.18 L488.42 178.55 L485.32 181.28 L481.52 170.49 L478.38 173.04 L475.19 174.27 L471.93 174.49 L469.19 180.12 L466.42 184.43 L463.64 188.02 L460.97 191.92 L458.34 195.59 L455.48 197.28 L452.65 198.99 L449.42 198.12 L446.68 200.20 L443.73 200.99 L440.47 200.20 L437.68 201.78 L434.93 203.47 L432.08 204.61 L429.14 205.36 L425.37 202.78 L422.14 202.55 L419.58 204.86 L415.79 202.70 L412.76 203.36 L410.15 205.38 L406.85 205.18 L404.30 207.31 L401.77 209.46 L399.00 210.83 L396.57 213.12 L394.94 217.48 L392.55 219.66 L390.25 222.00 L386.64 221.07 L384.27 223.20 L382.03 225.60 L378.27 224.47 L375.82 226.36 L373.63 228.77 L371.09 230.40 L368.28 231.45 L365.96 233.51 L363.27 234.79 L360.41 235.77 L357.70 237.05 L354.58 237.57 L351.73 238.63 L347.46 237.26 L344.95 238.98 L342.99 241.61 L340.21 242.86 L338.29 245.48 L337.71 250.12 L336.01 252.96 L334.36 255.80 L330.69 255.69 L328.68 258.00 L327.91 261.99 L321.37 258.08 L318.79 259.64 L318.06 263.64 L314.74 264.24 L312.48 266.21 L310.64 268.70 L308.39 270.67 L306.82 273.43 L303.62 274.29 L301.06 275.91 L300.14 279.36 L296.58 279.89 L294.34 281.88 L293.42 285.26 L290.68 286.72 L289.24 289.51 L289.25 293.68 L288.81 297.34 L287.86 300.47 L284.68 301.49 L282.57 303.54 L282.73 307.59 L278.12 307.44 L276.41 309.84 L276.04 313.35 L272.44 314.17 L270.33 316.25 L268.30 318.39 L260.27 315.94 L259.80 319.37 L258.30 322.00 L254.68 323.09 L255.44 327.33 L252.33 328.82 L250.44 331.17 L251.96 335.79 L248.05 336.81 L245.20 338.55 L244.79 341.85 L247.44 346.96 L246.47 349.82 L241.32 350.24 L239.82 352.83 L243.47 358.26 L238.08 358.68 L237.18 361.57 L239.77 366.25 L234.79 367.02 L234.01 369.94 L235.20 373.79 L228.35 373.84 L227.39 376.69 L227.23 379.89 L226.28 382.73 L227.26 386.36 L224.22 388.32 L222.12 390.69 L224.90 394.95 L222.15 397.07 L220.00 399.45 L221.00 402.95 L222.96 406.72 L223.64 410.02 L220.32 412.02 L216.86 414.03 L221.30 418.42 L217.95 420.49 L216.48 423.12 L219.50 426.95 L219.78 430.00 L221.75 433.45 L223.13 436.70 L219.94 438.91 L220.12 441.87 L218.96 444.56 L217.21 447.14 L217.01 450.03 L213.42 452.35 L210.39 454.81 L212.12 458.03 L210.63 460.76 L209.09 463.51 L209.63 466.52 L212.24 469.74 L214.11 472.82 L214.16 475.71 L208.85 478.19 L213.54 481.42 L212.67 484.25 L207.71 486.90 L210.32 489.92 L209.29 492.80 L207.68 495.68 L211.07 498.62 L208.07 501.52 L208.88 504.43 L213.82 507.22 L212.40 510.13 L214.27 512.93 L215.04 515.75 L211.13 518.87 L212.85 521.64 L212.81 524.53 L213.39 527.37 L212.19 530.40 L215.24 532.96 L219.26 535.34 L220.93 537.97 L214.71 541.72 L218.90 543.99 L222.87 546.21 L217.66 549.98 L219.42 552.57 L221.15 555.14 L220.76 558.13 L222.27 560.71 L221.55 563.80 L218.46 567.47 L224.37 568.98 L223.95 572.03 L224.76 574.76 L228.35 576.71 L222.29 581.43 L224.07 583.91 L224.57 586.78 L223.22 590.26 L224.85 592.78 L231.49 593.54 L238.10 594.19 L238.95 596.84 L236.73 600.67 L239.93 602.44 L245.19 603.32 L242.81 607.29 L245.97 608.97 L249.91 610.25 L248.19 614.03 L250.03 616.23 L251.24 618.70 L251.40 621.69 L254.36 623.30 L257.31 624.87 L260.85 626.10 L263.70 627.63 L251.97 637.19 L252.12 640.36 L255.99 641.41 L253.99 645.87 L254.95 648.63 L256.22 651.22 L258.92 652.90 L261.61 654.56 L258.51 660.03 L261.22 661.69 L268.45 660.20 L264.59 666.37 L267.63 667.73 L274.70 666.08 L274.07 670.06 L278.57 670.16 L280.53 672.18 L280.47 675.80 L285.25 675.52 L280.43 683.16 L278.89 688.22 L283.73 687.86 L280.76 694.33 L283.96 695.38 L291.58 692.31 L293.18 694.70 L296.77 695.19 L297.69 698.23 L301.29 698.64 L304.25 699.63 L301.87 706.14 L305.08 706.91 L311.62 704.02 L309.75 710.22 L312.39 711.51 L318.83 708.42 L316.40 715.53 L319.67 716.03 L324.80 714.20 L323.65 720.07 L327.33 719.94 L330.28 720.69 L332.53 722.33 L337.49 720.30 L337.33 725.20 L339.30 727.22 L344.33 724.84 L343.93 730.31 L345.89 732.38 L349.87 731.37 L350.84 734.99 L354.21 734.84 L355.76 737.62 L356.40 741.98 L361.94 738.04 L363.24 741.33 L364.98 743.91 L369.87 740.73 L371.11 744.24 L374.78 743.15 L380.04 738.76 L379.39 746.16 L383.01 744.95 L385.57 745.87 L383.75 756.46 L387.19 755.64 L389.26 757.91 L390.67 761.81 L395.41 757.69 L397.56 759.80 L401.47 757.41 L404.78 756.40 L406.29 760.28 L409.40 759.76 L412.14 760.26 L413.55 764.78 L417.75 760.73 L420.62 760.70 L422.27 764.74 L426.50 759.92 L427.86 765.22 L430.47 766.12 L434.49 761.38 L435.68 767.96 L438.44 768.27 L442.59 762.16 L444.56 765.85 L447.63 764.34 L450.66 762.80 L452.77 766.21 L455.99 763.38 L458.13 766.98 L460.79 767.46 L463.52 767.43 L465.68 771.84 L468.71 769.53 L471.77 766.45 L473.81 773.24 L476.80 770.48 L479.89 765.56 L482.22 770.71 L485.16 766.70 L487.79 767.71 L490.49 767.24 L493.30 761.99 L495.82 768.15 L498.51 766.75 L501.16 761.58 L503.96 774.82 L506.73 775.34 L509.28 769.48 L512.26 775.68 L514.76 770.96 L517.33 768.63 L519.91 767.02 L522.33 763.91 L524.58 759.57 L526.47 752.58 L529.16 753.71 L532.56 760.34 L535.43 761.96 L537.39 757.10 L540.92 762.90 L543.10 759.76 L544.90 754.80 L547.23 753.20 L549.20 749.87 L552.66 753.99 L556.30 758.53 L558.50 756.27 L561.54 757.70 L563.38 754.13 L564.52 748.11 L568.73 753.83 L570.58 750.72 L572.17 746.87 L576.24 751.40 L578.49 749.82 L579.90 745.68 L579.66 736.87 L582.65 737.85 L586.85 742.10 L589.86 742.84 L591.30 739.35 L595.04 741.86 L596.22 737.85 L596.28 731.32 L597.45 727.67 L596.95 720.39 L601.51 724.64 L607.70 732.13 L608.62 728.09 L612.24 729.75 L614.72 729.00 L615.06 724.06 L619.82 727.69 L621.34 725.09 L620.79 718.80 L626.43 723.69 L629.74 724.29 L632.50 723.86 L632.93 719.55 L635.25 718.42 L640.93 722.59 L641.61 718.80 L639.52 710.91 L645.59 715.38 L646.84 712.60 L644.82 705.27 L651.18 709.79 L652.84 707.69 L651.88 702.11 L657.71 705.57 L657.87 701.57 L659.79 699.87 L661.24 697.60 L659.52 691.55 L664.85 693.97 L666.56 692.06 L664.70 686.12 L669.58 687.82 L673.46 688.29 L672.92 683.98 L675.51 683.03 L677.25 681.19 L680.75 681.10 L684.02 680.73 L680.52 673.78 L685.02 674.58 L687.18 673.11 L684.43 667.18 L687.73 666.78 L689.70 665.17 L685.74 658.48 L692.12 660.64 L692.50 657.70 L693.95 655.68 L702.13 658.95 L701.62 655.31 L704.66 654.41 L708.36 653.96 L705.29 648.54 L705.61 645.66 L706.60 643.28 L706.65 640.28 L708.16 638.28 L708.80 635.72 L711.74 634.64 L716.08 634.38 L710.81 628.20 L713.45 626.90 L717.77 626.53 L713.27 621.08 L717.98 620.89 L721.08 619.74 L716.92 614.69 L722.63 614.88 L723.51 612.52 L719.02 607.53 L723.79 607.10 L720.42 602.79 L721.67 600.69 L726.01 599.95 L722.56 595.77 L724.07 593.78 L728.05 592.78 L728.91 590.47 L731.15 588.69 L731.21 586.07 L728.53 582.48 L737.01 582.87 L732.13 578.57 L730.03 575.30 L736.06 574.67 L732.02 570.85 L731.11 568.05 L735.02 566.66 L730.06 562.77 L733.44 561.19 L735.95 559.34 L730.47 555.51 L744.18 556.24 L743.53 553.53 L738.15 549.86 L736.71 547.09 L731.19 543.59 L727.97 540.63 L725.71 537.90 L723.23 535.19 L725.26 533.21 L727.66 531.24 L727.84 528.95 L727.42 526.59 L727.38 524.28 L727.52 521.99 L727.60 519.71 L727.34 517.40 L727.93 515.15 L727.40 512.83 L727.37 510.55 L727.28 508.27 L727.02 505.99 L727.08 503.72 L726.89 501.45 L726.66 499.18 L726.32 496.92 L724.86 494.69 L722.48 492.52 L721.70 490.32 L722.74 488.04 L721.82 485.87 L722.24 483.61 L724.22 481.21 L724.63 478.91 L723.80 476.72 L723.24 474.52 L722.70 472.33 L722.76 470.05 L722.53 467.82 L722.17 465.60 L722.27 463.30 L722.21 461.03 L721.61 458.84 L720.38 456.79 L719.52 454.67 L718.43 452.61 L717.08 450.63 L715.76 448.65 L713.44 446.95 L710.99 445.31 L708.68 443.68 L709.87 441.10 L709.36 438.97 L708.81 436.86 L710.45 434.06 L710.78 431.64 L709.65 429.68 L708.57 427.71 L707.60 425.72 L707.32 423.47 L706.78 421.31 L705.76 419.33 L705.63 417.00 L705.09 414.82 L703.95 412.90 L702.75 411.00 L701.28 409.24 L700.01 407.39 L698.92 405.47 L697.76 403.58 L695.92 402.04 L693.13 401.02 L690.44 399.97 L690.25 397.63 L688.67 396.04 L686.28 394.92 L687.40 391.80 L687.41 389.28 L686.06 387.55 L684.52 385.95 L683.01 384.33 L682.27 382.24 L681.21 380.33 L679.77 378.69 L679.03 376.56 L677.73 374.82 L675.46 373.77 L674.54 371.77 L673.06 370.17 L671.33 368.77 L670.36 366.79 L668.70 365.34 L666.43 364.41 L664.29 363.40 L661.78 362.73 L658.92 362.40 L658.25 360.19 L658.24 357.35 L654.79 357.63 L654.07 355.42 L652.60 353.91 L652.87 350.69 L649.00 351.52 L647.06 350.50 L647.03 347.51 L644.46 347.14 L643.21 345.40 L642.41 343.15 L639.67 343.03 L638.92 340.70 L637.36 339.27 L634.09 339.88 L631.79 339.40 L629.76 338.61 L628.69 336.62 L628.80 333.07 L626.38 332.77 L624.47 331.84 L622.45 331.06 L621.97 328.12 L618.18 329.88 L615.75 329.77 L614.20 328.39 L614.22 324.58 L611.28 325.30 L607.94 326.74 L608.05 322.64 L605.79 322.37 L602.56 323.82 L599.92 324.34 L598.12 323.41 L595.99 323.10 L594.31 321.97 L592.66 320.78 L591.04 319.51 L589.73 317.60 L588.16 316.16 L587.76 312.21 L585.35 312.50 L583.18 312.31 L581.21 311.69 L580.15 308.92 L576.86 311.49 L574.20 312.69 L572.63 311.15 L571.69 307.89 L569.31 308.45 L565.97 311.81 L565.44 307.15 L563.27 307.24 L560.83 308.22 L559.60 305.36 L557.56 305.08 L555.61 304.53 L553.83 303.34 L551.39 304.61 L548.95 306.00 L546.83 306.26 L544.63 306.92 L543.65 302.17 L541.56 302.29 L539.21 303.70 L537.44 302.30 L535.74 300.39 L533.34 302.42 L530.80 305.64 L529.09 303.74 L527.40 301.48 L525.42 301.21 L522.94 305.13 L521.35 301.54 L519.39 301.12 L517.14 303.87 L515.21 303.30 L513.22 303.45 L511.16 304.92 L509.22 304.66 L507.26 304.66 L505.27 305.99 L503.33 306.09 L501.39 305.90 L499.44 302.04 L497.46 302.07 L495.54 304.64 L493.43 300.12 L491.44 300.24 L489.53 302.01 L487.73 305.05 L485.59 302.46 L483.65 303.02 L481.75 303.96 L479.95 305.69 L477.95 305.41 L476.07 306.15 L474.49 309.11 L472.13 306.22 L470.20 306.53 L468.59 308.79 L466.25 306.69 L464.10 305.84 L462.87 309.85 L461.39 312.25 L459.25 311.41 L456.98 310.13 L455.09 310.63 L453.80 313.48 L451.00 310.34 L449.14 310.97 L447.84 313.58 L446.40 315.58 L443.99 314.21 L442.47 315.86 L440.48 315.98 L438.99 317.64 L437.44 319.02 L435.58 319.52 L434.55 322.25 L432.60 322.46 L431.62 325.17 L430.66 327.82 L428.12 326.54 L425.67 325.58 L424.87 328.48 L423.37 329.69 L420.55 328.05 L418.08 327.25 L416.48 328.35 L415.67 330.99 L412.45 328.85 L411.01 330.25 L409.96 332.34 L409.10 334.72 L406.65 334.22 L405.87 336.67 L403.71 336.72 L402.48 338.35 L401.81 340.86 L399.83 341.23 L399.27 343.82 L396.77 343.41 L394.87 343.95 L394.55 346.80 L391.82 346.14 L389.22 345.75 L389.81 349.77 L389.63 352.63 L387.44 352.80 L385.99 353.96 L383.52 353.83 L383.15 356.33 L380.24 355.73 L379.57 357.85 L377.73 358.56 L377.38 360.99 L375.90 362.12 L375.28 364.19 L373.00 364.45 L371.76 365.84 L372.90 369.67 L369.85 369.18 L369.82 371.74 L370.09 374.54 L368.48 375.50 L367.67 377.22 L367.38 379.40 L365.90 380.48 L365.34 382.38 L365.03 384.47 L363.76 385.72 L360.40 385.26 L351.86 380.70 L350.69 382.20 L348.38 382.82 L344.31 382.15 L345.82 385.70 L341.69 385.06 L341.72 387.49 L344.95 392.10 L337.82 389.53 L341.16 394.12 L344.97 398.88 L336.52 395.68 L339.69 399.95 L339.98 402.34 L334.88 401.48 L338.69 405.93 L336.72 406.95 L332.92 406.99 L336.90 411.33 L330.56 410.07 L332.95 413.47 L338.20 418.22 L329.63 416.02 L333.21 419.85 L334.15 422.34 L330.78 422.81 L330.01 424.50 L329.40 426.27 L326.65 427.12 L329.37 430.27 L321.91 429.29 L323.98 432.14 L330.19 436.48 L320.58 434.92 L323.96 438.13 L328.46 441.63 L322.60 441.61 L324.91 444.31 L325.29 446.35 L320.17 446.74 L325.33 450.16 L315.51 449.35 L313.30 450.74 L317.78 453.87 L310.19 453.96 L312.67 456.54 L319.24 459.97 L319.10 461.83 L321.14 464.12 L319.46 465.66 L320.39 467.69 L321.96 469.81 L314.52 470.46 L317.01 472.72 L324.54 475.64 L315.68 476.28 L317.73 478.40 L325.14 481.05 L318.72 482.18 L319.94 484.12 L323.35 486.20 L317.88 487.60 L321.25 489.63 L318.48 491.29 L318.88 493.12 L324.80 495.10 L318.08 496.73 L320.82 498.57 L326.79 500.35 L320.65 502.16 L319.90 503.97 L324.30 505.63 L321.63 507.50 L322.24 509.26 L320.03 511.18 L317.92 513.14 L325.30 514.36 L319.58 516.65 L320.58 518.37 L327.42 519.42 L323.34 521.67 L323.06 523.50 L330.02 524.31 L323.98 526.97 L326.20 528.41 L325.00 530.41 L317.38 533.62 L322.08 534.59 L319.33 537.01 L318.28 539.12 L323.45 539.86 L325.24 541.29 L326.47 542.84 L330.69 543.60 L329.72 545.67 L331.42 547.02 L330.59 549.09 L329.08 551.38 L335.11 551.38 L334.09 553.52 L332.25 555.97 L338.08 555.83 L335.86 558.44 L335.19 560.54 L341.84 559.90 L338.48 563.03 L337.35 565.35 L342.04 565.31 L339.00 568.46 L342.13 569.00 L342.70 570.63 L341.41 573.12 L346.62 572.59 L345.25 575.14 L344.23 577.57 L348.75 577.22 L346.50 580.31 L347.36 581.82 L353.55 580.39 L347.17 585.89 L352.22 585.01 L353.90 586.00 L351.59 589.37 L356.79 588.21 L357.59 589.69 L355.83 592.82 L360.91 591.53 L359.33 594.60 L359.16 596.77 L365.70 594.27 L355.67 603.48 L358.13 603.89 L362.01 603.18 L358.48 608.04 L362.50 607.17 L366.20 606.45 L367.74 607.40 L372.04 606.05 L370.24 609.75 L372.42 610.11 L376.94 608.38 L372.77 614.33 L377.11 612.67 L382.33 610.07 L377.59 616.82 L381.73 615.15 L384.02 615.20 L381.81 619.77 L386.60 617.24 L386.75 619.45 L385.50 623.21 L390.01 620.76 L387.72 625.77 L390.12 625.60 L395.77 621.57 L392.38 628.10 L395.79 626.58 L398.64 625.66 L398.63 628.27 L400.01 629.17 L401.49 629.92 L401.96 632.02 L405.37 630.13 L402.80 636.51 L405.66 635.34 L411.22 630.12 L407.53 638.47 L410.86 636.42 L414.97 633.02 L413.60 638.19 L416.45 636.65 L418.33 636.63 L417.49 641.23 L421.48 637.53 L418.37 646.35 L419.12 648.48 L423.06 644.68 L421.12 651.97 L423.73 650.61 L428.20 645.38 L429.00 647.44 L433.20 642.34 L433.29 645.94 L434.94 646.18 L437.75 643.72 L437.28 648.85 L439.46 647.80 L442.96 643.32 L442.13 649.75 L444.50 648.01 L448.30 642.18 L446.89 650.74 L450.25 645.82 L452.20 644.83 L452.04 650.35 L454.25 648.55 L455.72 649.07 L456.63 651.55 L458.96 649.01 L459.76 652.04 L461.59 651.20 L464.38 646.34 L464.06 654.34 L466.39 651.17 L468.72 647.68 L469.14 653.21 L471.18 650.88 L472.59 651.71 L473.62 654.81 L475.95 650.24 L476.85 654.49 L478.56 653.54 L480.89 647.61 L481.48 655.23 L483.51 651.01 L485.66 644.75 L486.34 653.48 L488.10 650.79 L489.45 653.13 L490.50 661.42 L492.29 657.98 L493.75 661.11 L495.34 662.06 L497.06 656.64 L498.62 657.32 L500.19 652.79 L501.67 648.89 L503.26 653.35 L504.70 650.50 L506.20 650.30 L507.82 652.52 L509.12 648.66 L510.62 648.89 L512.37 651.94 L513.42 646.69 L515.42 651.78 L516.75 649.93 L517.52 643.77 L519.86 650.43 L521.19 649.00 L521.93 643.93 L523.77 646.15 L524.98 644.47 L526.28 643.39 L528.15 645.39 L528.71 640.72 L531.40 646.41 L532.63 645.09 L532.96 640.00 L536.02 646.41 L536.82 643.46 L536.68 637.20 L540.12 644.26 L540.69 640.84 L541.62 638.84 L544.04 641.73 L543.60 635.54 L545.32 636.20 L546.50 635.22 L546.32 630.44 L549.44 634.91 L550.33 633.21 L549.69 627.63 L557.04 642.31 L557.77 640.06 L557.97 636.64 L561.41 640.82 L560.85 635.80 L560.78 632.09 L561.81 630.87 L561.06 626.00 L564.38 629.54 L565.28 628.12 L564.52 623.55 L569.23 629.40 L568.03 624.16 L566.92 619.28 L572.17 625.69 L570.89 620.64 L571.39 618.76 L575.38 622.60 L573.38 616.72 L575.66 617.73 L578.31 619.21 L576.32 613.68 L581.04 618.14 L579.99 614.15 L577.44 608.19 L583.35 614.02 L581.46 609.13 L581.86 607.41 L584.71 608.86 L585.28 607.37 L586.54 606.75 L588.99 607.56 L587.74 603.90 L593.72 608.76 L592.65 605.37 L588.53 598.68 L596.11 604.99 L594.00 600.65 L591.85 596.39 L596.71 599.49 L595.11 595.90 L595.35 594.24 L599.67 596.56 L596.66 591.79 L605.36 598.07 L606.88 597.50 L603.77 592.78 L610.51 596.83 L608.94 593.55 L604.83 588.22 L604.95 586.54 L603.99 584.02 L606.21 584.07 L606.12 582.29 L605.16 579.87 L611.96 583.28 L610.38 580.41 L604.48 574.52 L612.65 578.66 L611.50 576.21 L605.89 570.83 L612.17 573.42 L611.14 571.17 L609.44 568.55 L614.38 570.06 L611.80 566.95 L615.14 567.39 L615.11 565.84 L610.87 561.95 L617.11 563.91 L615.21 561.39 L610.41 557.42 L616.67 559.20 L617.72 558.26 L614.63 555.31 L617.48 555.25 L617.65 553.89 L620.45 553.73 L622.62 553.23 L616.93 549.38 L623.01 550.50 L622.33 548.80 L616.34 545.07 L621.04 545.50 L621.93 544.45 L616.64 541.20 L622.75 541.98 L621.05 540.05 L620.15 538.43 L621.75 537.60 L617.38 534.97 L611.39 531.98 L606.00 529.29 L602.24 527.15 L600.96 525.73 L600.65 524.58 L600.48 523.48 L600.36 522.39 L600.24 521.32 L600.15 520.25 L600.08 519.20 L600.01 518.15 L599.96 517.11 L599.90 516.08 L599.85 515.05 L599.79 514.02 L599.73 512.99 L599.65 511.97 L599.57 510.95 L599.48 509.94 L599.38 508.92 L599.28 507.91 L599.16 506.91 L599.03 505.90 L598.89 504.90 L598.75 503.91 L598.59 502.91 L598.43 501.93 L598.25 500.94 Z"/>
  <svg class="pausebutton" id="pausebutton">
    <circle cx="500" cy="500" id="pausestart" class="pausestart" r="52.65"/>
    <rect height="50.02" width="10.00" y="473.68" rx="2.00" ry="2.00" x="479.99" class="pausesymbol"/>
    <rect height="50.02" width="10.00" y="473.68" rx="2.00" ry="2.00" x="510.00" class="pausesymbol"/>
    <polygon points="530.01,500 479.99,530.01 479.99,469.99" class="playsymbol"/>
  </svg>
  <polygon id="playback-head" class="playback-head" points="941.65,500 921.65,540 961.65,540"/>
</svg>