<?xml-stylesheet href="../../style/waveformjs.css" type="text/css"?>
<svg xmlns="http://www.w3.org/2000/svg" xmlns:xlink="http://www.w3.org/1999/xlink" width="100%" height="100%" viewBox="0 0 1000 1000">
  <path class="svg-wave" id="sp" d="M598.01 500.00 L598.19 500.98 L598.35 501.97 L598.50 502.96 L598.64 503.95 L598.77 504.94 L598.89 505.94 L598.99 506.94 L599.08 507.94 L599.15 508.95 L599.21 509.95 L599.26 510.96 L599.29 511.97 L599.29 512.98 L599.30 513.99 L599.27 515.00 L599.22 516.01 L599.18 517.02 L599.04 518.02 L598.92 519.02 L598.74 520.01 L598.54 521.00 L598.25 521.97 L598.05 522.96 L597.67 523.90 L597.36 524.86 L597.03 525.81 L596.48 526.70 L596.07 527.63 L595.43 528.48 L594.72 529.30 L594.16 530.16 L593.87 531.11 L592.02 531.52 L588.79 531.41 L585.80 531.32 L586.76 532.66 L587.37 533.89 L585.62 534.20 L587.76 536.07 L587.17 536.85 L584.82 536.87 L585.83 538.33 L585.42 539.18 L583.14 539.14 L584.28 540.71 L583.06 541.15 L581.56 541.43 L582.27 542.83 L581.15 543.28 L580.57 544.02 L582.82 546.33 L580.38 546.03 L578.90 546.23 L578.85 547.26 L575.55 546.32 L576.23 547.79 L581.09 551.98 L574.91 549.08 L576.18 551.01 L582.38 556.36 L579.58 555.62 L580.29 557.32 L581.51 559.43 L578.31 558.30 L578.19 559.44 L579.15 561.43 L575.70 559.98 L575.19 560.80 L575.28 562.13 L572.89 561.40 L573.08 562.81 L572.39 563.49 L570.84 563.40 L573.96 567.54 L575.24 570.09 L570.94 567.42 L572.66 570.46 L575.11 574.31 L572.22 572.88 L572.52 574.67 L570.22 573.76 L568.88 573.82 L570.02 576.56 L568.07 575.94 L567.72 577.08 L569.82 581.10 L566.34 578.63 L565.28 578.97 L566.26 581.80 L563.10 579.52 L561.77 579.46 L562.54 582.13 L559.83 580.22 L559.15 580.98 L559.83 583.67 L558.06 582.93 L558.01 584.65 L557.85 586.26 L555.75 584.95 L554.23 584.45 L552.78 584.04 L551.02 583.07 L552.03 586.64 L551.08 587.03 L549.00 585.42 L550.99 590.99 L551.23 593.59 L550.06 593.68 L550.69 597.19 L548.89 596.06 L547.36 595.40 L547.19 597.50 L545.55 596.55 L543.70 595.10 L543.73 597.71 L541.78 595.92 L540.40 595.35 L540.23 597.65 L538.35 595.79 L537.76 597.12 L539.59 604.91 L537.35 602.07 L535.28 599.49 L537.09 607.99 L535.40 606.54 L533.68 604.85 L533.31 607.38 L531.27 604.47 L530.51 605.78 L529.91 607.74 L528.34 606.18 L527.91 608.95 L526.94 609.69 L525.24 607.39 L524.38 608.64 L523.44 609.56 L521.77 606.95 L520.90 608.19 L519.81 608.38 L518.45 606.96 L517.59 608.44 L516.51 608.65 L515.37 608.42 L514.67 611.48 L513.35 610.01 L512.10 608.79 L510.98 608.58 L509.62 605.68 L508.64 606.66 L508.01 613.01 L506.50 606.86 L505.50 608.24 L504.79 617.35 L503.53 614.52 L502.41 615.73 L501.28 618.95 L500.09 615.29 L498.94 615.27 L497.74 617.52 L496.68 613.55 L495.56 613.19 L494.35 614.77 L493.36 612.03 L492.21 612.38 L491.03 612.99 L490.05 611.29 L488.55 615.04 L486.93 619.20 L486.28 614.57 L484.94 615.88 L482.91 621.98 L482.15 618.71 L480.90 618.95 L479.90 617.68 L478.99 615.99 L477.37 618.19 L476.40 616.92 L475.23 616.69 L473.11 620.72 L472.69 617.08 L471.72 615.95 L469.99 617.94 L469.53 614.90 L468.73 613.33 L466.74 616.00 L466.55 612.44 L465.47 611.95 L463.29 614.92 L462.79 612.60 L461.27 613.35 L459.44 614.96 L459.31 611.75 L458.63 610.16 L457.78 609.11 L457.66 606.26 L455.57 608.33 L453.96 609.13 L454.14 605.75 L451.06 609.83 L448.31 612.94 L447.76 611.20 L445.29 613.50 L444.49 612.26 L444.32 609.83 L442.81 610.07 L441.78 609.36 L441.79 606.76 L439.86 607.71 L439.61 605.66 L439.69 603.12 L438.20 603.29 L437.66 601.85 L437.63 599.66 L435.13 601.38 L438.03 594.76 L437.35 593.73 L431.87 599.76 L434.87 593.34 L430.75 597.16 L427.39 599.75 L431.70 591.88 L428.54 594.16 L427.03 594.17 L431.29 586.87 L429.37 587.49 L425.42 590.51 L427.60 586.10 L428.83 582.94 L428.29 581.89 L428.89 579.58 L429.38 577.46 L429.63 575.66 L428.24 575.63 L422.99 579.55 L420.17 580.82 L419.44 579.95 L412.59 585.03 L414.13 581.88 L416.50 578.04 L413.04 579.66 L414.51 576.75 L413.43 576.17 L406.24 580.85 L411.65 574.66 L411.21 573.52 L403.57 578.23 L409.12 572.24 L408.50 571.25 L402.59 574.30 L405.50 570.60 L408.13 567.21 L407.68 566.13 L408.69 564.03 L410.21 561.64 L410.57 560.08 L410.17 559.06 L405.60 560.72 L398.68 563.75 L399.25 561.99 L393.18 564.26 L389.03 565.26 L396.11 559.70 L392.64 560.28 L388.80 560.98 L391.33 558.18 L384.86 560.18 L386.48 557.89 L389.90 554.77 L385.68 555.45 L388.92 552.51 L391.60 549.92 L386.51 550.90 L386.77 549.43 L390.41 546.54 L391.35 544.86 L392.00 543.34 L393.94 541.33 L394.49 539.91 L395.37 538.38 L392.18 538.33 L383.35 540.16 L384.96 538.33 L381.42 538.19 L373.38 539.39 L381.56 535.55 L380.58 534.55 L376.11 534.50 L382.59 531.43 L377.33 531.53 L373.57 531.15 L381.31 527.99 L376.09 527.92 L372.87 527.31 L379.12 524.70 L376.35 523.99 L372.85 523.35 L377.39 521.25 L379.82 519.59 L380.17 518.31 L382.29 516.78 L384.01 515.35 L385.19 514.03 L383.92 513.01 L375.95 512.65 L374.91 511.49 L372.20 510.45 L362.32 509.87 L370.70 507.97 L371.25 506.65 L363.97 505.66 L369.57 504.12 L366.25 502.89 L360.29 501.62 L369.37 500.21 L366.12 498.87 L362.61 497.47 L372.89 496.39 L370.75 495.03 L365.18 493.47 L371.15 492.47 L373.52 491.33 L373.52 490.06 L376.71 489.07 L378.16 487.97 L379.77 486.91 L379.99 485.72 L374.35 483.78 L371.04 482.04 L372.12 480.88 L364.75 478.39 L365.91 477.20 L370.93 476.73 L368.17 474.86 L369.92 473.85 L371.37 472.80 L364.82 470.00 L370.09 469.80 L372.49 469.01 L365.32 465.84 L370.78 465.85 L371.99 464.79 L366.25 461.77 L370.53 461.59 L374.43 461.38 L375.26 460.26 L377.19 459.52 L380.02 459.12 L381.46 458.28 L382.61 457.36 L379.76 454.96 L372.75 450.88 L375.88 450.65 L370.48 447.00 L365.05 443.20 L375.29 446.03 L372.27 443.21 L368.74 440.05 L375.93 441.83 L369.60 437.27 L370.73 436.21 L376.94 437.73 L373.74 434.53 L375.58 433.89 L380.12 434.76 L377.29 431.62 L377.52 430.13 L381.90 431.06 L384.31 430.90 L385.35 429.96 L388.36 430.26 L390.44 430.02 L392.07 429.53 L391.26 427.44 L385.38 421.85 L387.34 421.53 L385.74 418.71 L379.18 412.20 L387.38 416.43 L387.91 415.07 L384.30 410.50 L391.69 414.47 L389.23 410.71 L385.15 405.51 L394.09 411.08 L391.14 406.73 L388.37 402.41 L396.08 407.30 L394.52 404.00 L392.45 400.12 L397.48 402.87 L400.23 403.57 L401.27 402.64 L404.36 403.78 L406.68 404.22 L409.27 405.00 L410.56 404.45 L406.29 397.87 L404.57 393.88 L405.28 392.53 L396.32 379.96 L395.09 376.04 L399.60 378.94 L396.86 373.08 L396.90 370.50 L400.28 372.14 L399.89 368.96 L403.40 370.91 L405.18 370.61 L404.84 367.38 L407.29 368.02 L408.23 366.54 L407.50 362.56 L410.97 364.82 L412.45 364.12 L412.60 361.34 L415.86 363.50 L417.30 362.78 L418.03 360.86 L420.62 362.12 L421.81 360.99 L422.02 358.07 L424.07 358.45 L424.70 356.19 L425.78 354.75 L428.23 356.01 L430.07 356.11 L432.33 357.15 L434.35 357.74 L434.09 353.36 L436.22 354.20 L438.55 355.62 L437.09 348.00 L438.21 346.37 L440.09 346.61 L440.01 341.78 L442.37 343.28 L444.43 344.09 L445.32 341.60 L447.65 343.28 L449.58 343.89 L450.33 340.79 L452.90 343.53 L454.58 343.45 L455.26 339.83 L457.82 342.94 L458.95 340.83 L458.07 330.41 L461.25 336.27 L463.35 337.93 L462.84 327.69 L465.35 331.15 L467.37 332.50 L468.80 330.82 L471.02 333.57 L472.56 332.49 L474.00 330.72 L475.96 332.29 L477.29 329.44 L478.97 329.03 L480.95 331.22 L482.50 329.70 L484.27 330.19 L486.15 332.27 L487.71 330.50 L489.49 331.71 L491.24 332.89 L492.83 331.04 L494.51 330.70 L496.21 330.61 L497.86 327.45 L499.59 329.64 L501.28 331.21 L502.97 331.27 L504.56 334.73 L506.26 333.53 L508.19 328.01 L509.58 333.81 L511.37 332.02 L513.71 323.76 L515.21 326.82 L517.07 325.66 L519.09 323.31 L520.46 326.80 L522.22 326.85 L524.12 325.84 L525.43 329.00 L527.19 328.91 L528.99 328.69 L530.32 331.10 L532.00 331.42 L533.77 331.34 L535.40 331.95 L538.19 327.28 L540.01 327.28 L541.26 329.63 L543.48 328.00 L545.40 327.68 L546.09 331.89 L547.93 331.80 L550.66 328.74 L552.42 329.11 L554.04 329.90 L557.25 325.86 L559.02 326.34 L560.11 328.78 L560.17 333.92 L559.28 341.37 L558.30 348.62 L559.39 350.27 L562.31 347.39 L560.57 355.77 L561.00 358.73 L566.29 350.61 L570.03 346.33 L568.05 354.55 L572.92 348.11 L578.92 339.75 L578.26 345.02 L581.27 342.99 L585.05 339.63 L585.54 342.53 L588.07 341.67 L590.55 340.97 L591.46 343.04 L593.84 342.60 L595.69 343.09 L597.05 344.38 L599.30 344.26 L599.59 347.20 L597.66 353.39 L594.65 360.93 L593.84 365.05 L598.26 361.67 L595.57 368.26 L593.78 373.41 L600.25 367.47 L606.28 362.39 L603.74 368.41 L606.52 367.63 L617.39 357.07 L616.97 360.45 L618.77 361.15 L621.63 360.66 L621.54 363.54 L620.61 367.28 L624.26 365.98 L627.77 364.93 L628.11 367.25 L630.55 367.40 L635.49 365.11 L636.72 366.57 L635.64 370.25 L633.11 375.20 L628.25 382.15 L626.21 386.33 L628.57 386.51 L627.88 389.37 L623.10 395.64 L629.44 392.48 L636.08 389.24 L635.34 392.07 L633.43 395.76 L646.77 387.69 L647.79 389.23 L646.42 392.53 L653.09 389.97 L654.49 391.29 L654.84 393.34 L659.74 392.31 L659.17 394.99 L660.87 396.16 L663.50 396.77 L663.65 398.95 L664.96 400.40 L667.11 401.37 L663.92 405.45 L658.02 410.95 L653.57 415.47 L654.29 417.07 L656.64 417.81 L652.00 422.18 L652.60 423.79 L659.65 422.25 L658.05 424.98 L651.09 430.12 L657.25 429.18 L659.26 430.18 L653.71 434.43 L663.89 432.02 L670.07 431.44 L666.56 434.79 L672.27 434.53 L670.52 437.14 L667.29 440.22 L672.50 440.30 L673.92 441.75 L673.45 443.83 L687.70 441.28 L686.76 443.62 L681.20 447.27 L674.22 451.18 L672.61 453.49 L678.31 453.87 L671.01 457.57 L668.70 459.93 L676.39 459.97 L679.09 461.23 L667.20 465.55 L669.35 466.87 L679.09 466.82 L667.99 470.61 L674.38 471.29 L687.45 471.06 L682.06 473.75 L686.49 475.01 L688.25 476.69 L681.10 479.41 L684.91 480.85 L688.69 482.37 L686.42 484.46 L695.23 485.69 L699.80 487.36 L694.57 489.64 L686.36 491.95 L682.75 493.93 L686.48 495.68 L682.38 497.60 L676.48 499.44 L684.95 501.26 L687.68 503.16 L678.26 504.78 L674.37 506.42 L687.94 508.80 L677.15 510.08 L675.60 511.75 L693.97 514.93 L687.55 516.32 L687.45 518.21 L693.97 520.80 L686.23 521.85 L684.81 523.56 L692.87 526.55 L687.88 527.78 L693.16 530.54 L702.52 534.10 L697.57 535.30 L689.20 535.76 L683.99 536.69 L684.92 538.80 L684.05 540.54 L677.69 541.01 L680.52 543.57 L684.83 546.57 L679.06 547.02 L673.09 547.31 L680.33 551.23 L676.64 552.10 L671.85 552.56 L684.44 558.44 L684.95 560.64 L681.93 561.67 L689.58 566.38 L682.83 566.08 L678.63 566.59 L686.32 571.58 L681.70 571.90 L682.26 574.24 L694.75 581.61 L689.74 581.75 L682.14 580.64 L674.93 579.55 L673.19 580.86 L675.51 584.09 L667.57 582.36 L665.03 583.17 L672.44 589.08 L676.75 593.56 L670.07 592.21 L673.06 596.08 L677.46 600.86 L670.09 598.93 L670.91 601.71 L672.40 604.94 L667.01 603.97 L670.35 608.42 L669.94 610.57 L663.84 608.94 L665.88 612.71 L664.11 613.92 L659.84 613.35 L661.73 617.13 L660.63 618.80 L655.92 617.75 L653.33 618.22 L651.65 619.36 L648.96 619.67 L646.12 619.82 L644.28 620.74 L644.50 623.40 L649.40 630.20 L646.45 630.22 L647.68 633.99 L653.70 642.28 L644.29 636.27 L644.65 639.37 L649.49 646.94 L641.57 641.97 L643.70 647.02 L645.69 652.06 L637.55 646.48 L638.12 650.06 L638.69 653.74 L632.15 649.47 L632.02 652.36 L632.79 656.38 L628.34 654.24 L624.92 653.22 L623.17 654.20 L620.61 654.14 L617.68 653.53 L615.29 653.57 L614.56 655.81 L616.50 661.82 L616.46 665.22 L616.17 668.36 L619.22 676.53 L614.72 673.59 L611.84 672.97 L612.66 678.12 L608.44 675.30 L607.33 677.44 L609.82 685.74 L603.56 679.21 L602.28 681.16 L603.16 687.06 L596.99 680.10 L595.63 681.91 L596.23 687.59 L592.23 684.31 L588.77 681.92 L586.80 682.48 L584.40 682.12 L581.74 681.09 L579.16 680.16 L577.46 681.19 L577.27 685.88 L577.18 691.03 L574.87 690.76 L575.68 698.66 L573.96 700.12 L569.56 694.17 L569.51 700.34 L567.84 702.02 L564.93 699.97 L564.87 706.77 L562.07 705.01 L558.85 701.64 L558.22 707.15 L555.01 703.52 L552.50 702.25 L551.80 708.08 L549.11 706.03 L546.12 702.47 L543.88 701.94 L541.59 701.07 L539.16 699.32 L536.86 698.08 L534.71 697.49 L533.25 700.92 L532.50 709.38 L530.34 709.23 L528.83 713.91 L527.49 720.55 L524.32 712.41 L522.40 714.66 L520.64 718.96 L517.89 712.49 L516.12 717.53 L514.13 720.52 L511.52 713.24 L509.55 716.93 L507.41 718.06 L505.10 712.76 L503.01 715.26 L500.87 717.54 L498.72 713.07 L496.63 710.64 L494.53 710.18 L492.49 708.53 L490.50 706.22 L488.50 705.05 L486.37 706.20 L483.77 713.15 L481.70 712.27 L479.30 714.97 L476.13 724.31 L474.91 715.26 L472.65 715.91 L469.24 724.72 L468.23 716.02 L465.53 719.14 L462.22 725.49 L461.70 715.34 L459.14 717.12 L456.15 720.82 L455.64 712.25 L453.21 713.24 L450.06 717.16 L448.91 712.42 L447.62 708.61 L445.67 707.56 L443.94 705.75 L442.53 702.91 L441.02 700.54 L438.77 700.77 L435.12 705.34 L431.90 708.26 L429.18 709.47 L424.66 715.70 L423.26 712.86 L422.35 708.80 L419.10 711.07 L417.68 708.51 L415.67 707.50 L410.81 713.32 L411.07 706.86 L409.48 704.88 L404.88 709.60 L406.02 701.71 L404.06 700.64 L399.60 704.69 L399.37 700.06 L399.20 695.51 L397.56 693.90 L396.20 691.81 L395.23 689.07 L394.34 686.25 L392.45 685.25 L388.90 687.03 L384.28 690.44 L382.89 688.45 L377.72 692.45 L374.18 693.72 L376.35 686.28 L371.75 689.07 L368.02 690.45 L368.92 685.17 L363.93 688.19 L361.93 687.00 L363.52 681.02 L359.27 682.82 L358.40 680.20 L358.61 676.28 L354.14 678.17 L352.83 676.15 L353.70 671.59 L353.15 668.78 L352.11 666.58 L351.64 663.78 L351.51 660.67 L350.70 658.34 L347.17 658.87 L339.53 663.51 L337.96 661.84 L333.05 663.45 L326.50 666.49 L330.75 659.19 L327.78 658.77 L323.10 659.84 L326.76 653.41 L320.58 655.71 L317.56 655.16 L321.74 648.56 L316.87 649.55 L315.50 647.61 L319.60 641.39 L316.36 640.99 L311.95 641.41 L314.12 636.89 L315.07 633.36 L314.29 631.12 L314.37 628.30 L314.86 625.25 L315.04 622.44 L312.82 621.24 L305.06 623.52 L302.79 622.21 L300.06 621.15 L289.29 624.81 L295.39 618.46 L295.64 615.60 L287.03 617.67 L291.19 612.66 L286.60 612.40 L278.85 613.67 L286.75 606.93 L282.21 606.49 L279.43 605.13 L287.78 598.56 L285.78 596.90 L279.79 596.96 L282.87 593.03 L284.95 589.60 L284.93 587.10 L285.53 584.37 L286.73 581.44 L287.83 578.60 L287.17 576.43 L281.40 576.05 L275.46 575.60 L272.65 574.02 L265.75 573.69 L265.63 571.16 L269.01 567.62 L266.30 565.88 L265.56 563.57 L265.88 560.97 L258.88 560.23 L262.62 556.78 L264.22 553.91 L259.75 552.41 L264.86 548.84 L265.66 546.23 L259.22 545.00 L261.80 542.06 L265.41 539.01 L266.18 536.48 L267.24 533.94 L269.31 531.28 L270.82 528.75 L270.97 526.40 L267.40 524.46 L259.10 522.90 L260.66 520.34 L254.84 518.37 L248.44 516.32 L258.80 513.23 L254.48 511.00 L249.14 508.73 L254.56 506.08 L246.92 503.74 L247.65 501.21 L253.78 498.71 L249.42 496.19 L252.42 493.75 L257.74 491.46 L254.89 488.91 L253.38 486.37 L257.85 484.18 L260.28 481.93 L261.65 479.64 L264.21 477.48 L266.82 475.37 L269.51 473.32 L268.65 470.88 L259.47 467.28 L258.48 464.68 L253.85 461.48 L240.12 456.67 L240.88 454.13 L242.01 451.66 L243.27 449.23 L244.26 446.77 L245.12 444.28 L245.74 441.75 L245.65 439.04 L244.07 435.95 L242.70 432.87 L242.17 429.97 L241.84 427.10 L242.76 424.57 L244.61 422.33 L244.97 419.65 L245.15 416.89 L246.40 414.49 L246.03 411.53 L247.17 409.08 L248.97 406.88 L250.49 404.59 L253.07 402.74 L254.52 400.46 L253.78 397.28 L255.82 395.25 L256.55 392.67 L254.11 388.65 L255.33 386.24 L255.98 383.56 L255.83 380.48 L258.38 378.72 L259.64 376.32 L259.84 373.37 L261.62 371.25 L262.21 368.48 L262.62 365.58 L265.30 363.99 L266.52 361.56 L266.77 358.54 L268.89 356.64 L269.94 354.09 L270.57 351.25 L273.03 349.60 L274.93 347.60 L276.86 345.62 L278.59 343.52 L278.78 340.32 L279.55 337.50 L280.79 335.00 L282.12 332.57 L283.47 330.13 L284.91 327.76 L286.80 325.74 L288.61 323.66 L289.75 321.02 L290.61 318.11 L292.47 316.06 L293.93 313.64 L296.44 312.17 L299.61 311.36 L301.62 309.46 L303.06 307.03 L305.02 305.09 L306.33 302.49 L307.24 299.44 L310.34 298.68 L312.67 297.12 L315.17 295.76 L318.62 295.51 L320.14 293.09 L321.01 289.88 L324.49 289.75 L325.41 286.54 L325.28 281.97 L328.03 280.96 L329.71 278.57 L331.69 276.55 L334.52 275.68 L336.54 273.72 L338.38 271.48 L340.81 270.08 L342.44 267.50 L344.78 265.95 L347.61 265.15 L349.54 262.96 L351.82 261.32 L354.22 259.85 L355.91 257.20 L358.89 256.71 L362.53 257.42 L367.43 260.52 L373.72 266.40 L378.12 269.04 L379.37 265.77 L386.24 273.58 L389.23 273.92 L383.47 256.01 L388.22 259.81 L391.36 260.32 L390.38 251.59 L395.58 256.82 L399.21 258.63 L397.83 248.29 L402.71 253.26 L403.64 248.26 L401.12 233.74 L406.49 240.27 L412.12 248.04 L415.14 248.62 L417.80 248.24 L420.82 249.01 L424.39 251.67 L426.53 249.76 L427.63 244.06 L430.90 245.96 L435.04 251.37 L435.72 243.53 L438.72 244.69 L442.34 248.72 L442.20 236.03 L444.53 233.97 L448.13 238.16 L449.13 229.05 L452.67 233.20 L456.30 238.47 L457.36 228.16 L460.63 231.49 L463.41 231.80 L463.90 214.03 L467.40 219.23 L471.18 228.04 L474.16 230.50 L477.09 232.97 L479.61 230.74 L482.63 235.47 L485.41 237.70 L487.74 231.14 L490.33 228.41 L493.34 239.58 L495.88 235.33 L498.49 229.49 L501.15 239.65 L503.87 232.00 L506.81 221.36 L509.38 227.77 L512.22 225.18 L515.07 223.38 L517.45 229.58 L520.38 226.69 L523.36 224.02 L525.87 226.83 L529.76 216.05 L533.02 212.67 L534.80 221.75 L536.78 228.03 L539.13 230.93 L542.36 227.87 L544.13 234.05 L546.17 237.97 L550.07 231.58 L553.64 227.60 L554.19 238.60 L556.47 240.70 L561.90 228.82 L561.84 241.05 L564.94 239.63 L571.84 223.76 L572.21 233.33 L575.29 232.57 L580.27 225.44 L579.86 236.63 L582.74 236.67 L588.14 228.99 L588.79 235.98 L593.35 231.35 L599.83 221.71 L599.78 230.36 L599.36 239.54 L601.74 241.10 L604.44 241.85 L605.68 246.10 L606.45 251.29 L611.14 247.36 L614.58 246.45 L614.83 252.51 L615.41 257.64 L621.35 251.61 L621.87 256.74 L623.05 260.39 L630.82 251.41 L632.36 254.47 L634.84 255.76 L640.36 251.65 L640.65 256.85 L642.47 259.29 L648.36 254.97 L647.16 262.35 L649.99 263.11 L655.78 259.31 L654.60 266.30 L655.15 270.48 L658.38 270.69 L658.13 275.87 L660.39 277.43 L663.24 278.17 L664.78 280.72 L669.68 278.84 L671.65 280.83 L671.32 285.72 L678.02 281.84 L679.75 284.16 L677.98 290.58 L686.04 285.48 L688.46 287.03 L688.46 291.27 L695.90 287.35 L695.12 292.40 L694.79 296.87 L702.01 293.51 L701.81 297.80 L702.26 301.35 L709.34 298.48 L707.70 304.02 L706.32 309.19 L709.88 309.76 L709.29 314.06 L709.47 317.62 L713.13 318.15 L713.79 321.25 L717.06 322.17 L721.66 322.08 L717.88 328.67 L723.82 327.59 L731.47 325.36 L723.13 335.13 L730.72 333.06 L741.08 329.21 L735.72 336.52 L743.17 334.93 L746.02 336.56 L740.74 343.52 L746.75 343.10 L748.37 345.54 L745.29 350.83 L751.30 350.60 L752.91 353.04 L749.86 358.14 L750.49 361.08 L750.86 364.14 L749.55 368.05 L752.39 369.76 L752.86 372.71 L755.20 374.71 L759.81 375.66 L757.47 379.93 L759.09 382.31 L769.14 380.98 L761.33 387.54 L762.13 390.29 L775.42 387.95 L769.16 393.62 L772.66 395.38 L781.30 395.28 L772.90 401.50 L776.07 403.47 L784.33 403.76 L776.14 409.60 L781.09 411.08 L785.71 412.76 L778.96 417.86 L778.42 421.03 L780.12 423.57 L777.25 427.32 L777.69 430.17 L778.11 433.01 L778.54 435.85 L786.08 437.12 L789.50 439.39 L790.78 442.15 L799.35 443.55 L797.83 446.92 L794.73 450.51 L799.03 452.86 L798.10 456.05 L799.84 458.86 L805.66 461.17 L800.46 464.88 L800.12 467.96 L803.98 470.61 L797.59 474.23 L797.84 477.21 L804.53 479.76 L800.10 483.07 L796.91 486.22 L796.77 489.20 L794.83 492.22 L792.62 495.21 L791.35 498.14 L790.30 501.05 L794.62 504.02 L800.96 507.11 L798.13 510.03 L804.29 513.28 L807.86 516.53 L800.07 519.12 L802.69 522.33 L803.76 525.46 L798.71 528.05 L804.55 531.67 L803.58 534.64 L797.88 537.02 L803.80 540.84 L802.47 543.74 L798.42 546.21 L802.51 549.95 L801.88 552.95 L797.20 555.20 L794.66 557.78 L793.92 560.69 L790.70 563.06 L787.99 565.50 L786.66 568.22 L787.73 571.52 L795.52 576.60 L793.47 579.21 L796.63 583.25 L805.49 589.05 L793.89 588.86 L794.80 592.36 L800.99 597.62 L791.24 597.69 L795.56 602.44 L798.14 606.68 L788.03 606.33 L791.72 611.02 L791.52 614.29 L782.83 614.16 L784.81 618.28 L787.10 622.61 L781.40 623.52 L777.71 625.23 L776.59 628.07 L773.00 629.74 L769.79 631.54 L767.28 633.63 L766.66 636.67 L771.27 642.48 L770.84 645.73 L770.56 649.08 L776.60 656.04 L770.53 656.20 L767.25 657.89 L769.23 662.72 L763.31 662.75 L763.21 666.36 L767.82 673.04 L758.55 670.74 L758.23 674.26 L763.23 681.49 L753.56 678.59 L753.03 682.03 L756.23 688.25 L749.80 687.40 L745.62 688.13 L743.55 690.44 L739.69 691.31 L735.85 692.15 L732.28 693.13 L729.66 694.87 L731.63 700.56 L735.26 707.86 L733.91 710.86 L739.32 720.12 L742.36 727.43 L739.06 728.87 L736.12 730.63 L733.35 732.52 L730.44 734.27 L728.17 736.64 L726.43 739.59 L724.32 742.17 L721.84 744.35 L718.85 745.95 L716.61 748.38 L716.62 753.47 L714.40 756.01 L712.21 758.61 L713.30 765.30 L709.78 766.34 L706.06 767.07 L702.15 767.48 L698.16 767.72 L695.16 769.27 L694.08 773.48 L690.27 773.88 L687.75 776.10 L686.00 779.51 L682.07 779.63 L679.51 781.82 L678.35 786.27 L674.98 787.23 L673.45 791.23 L672.36 796.09 L668.62 796.44 L664.70 796.40 L660.51 795.81 L656.85 796.07 L654.66 799.13 L652.45 802.24 L649.22 803.33 L648.01 808.64 L645.54 811.43 L641.71 811.31 L637.74 810.79 L633.72 810.07 L630.22 810.45 L628.12 814.22 L625.06 815.70 L621.91 816.98 L620.21 822.14 L616.07 820.80 L612.75 821.63 L610.35 825.18 L606.69 825.03 L603.69 826.89 L601.61 831.80 L597.89 831.47 L594.09 830.72 L590.13 829.29 L586.33 828.26 L583.16 829.58 L580.59 833.41 L577.05 833.33 L574.28 836.65 L571.64 840.84 L567.95 840.13 L564.18 838.89 L560.38 837.21 L556.73 836.19 L553.52 837.73 L550.28 839.19 L546.72 838.44 L543.58 840.86 L540.10 840.68 L536.56 839.82 L533.39 842.53 L530.06 843.96 L526.62 844.30 L523.52 849.70 L520.02 849.86 L516.44 848.31 L512.87 846.22 L509.35 844.10 L505.90 843.68 L502.49 847.43 L499.02 846.62 L495.54 847.64 L491.94 852.90 L488.46 851.41 L485.01 849.70 L481.66 846.85 L478.43 842.89 L475.26 839.13 L472.11 835.96 L469.57 826.82 L466.32 826.35 L463.04 826.15 L460.84 817.24 L456.55 825.21 L452.05 833.39 L449.49 827.89 L445.55 831.45 L442.31 830.46 L439.84 825.37 L435.81 828.72 L432.09 830.20 L429.00 828.53 L422.84 840.52 L419.39 839.95 L417.72 832.16 L416.31 823.92 L413.99 819.68 L409.49 823.48 L408.00 816.55 L405.96 811.89 L400.50 818.44 L396.31 820.56 L396.92 808.12 L394.00 806.64 L386.72 817.36 L387.97 804.24 L383.64 806.51 L374.75 820.24 L374.88 810.69 L370.65 812.15 L365.29 816.12 L366.27 805.33 L362.07 806.53 L355.72 812.25 L354.13 807.57 L347.62 813.18 L341.44 817.77 L341.04 810.75 L342.03 801.35 L340.58 796.85 L336.84 796.67 L335.35 792.41 L335.45 785.52 L328.65 790.56 L324.04 791.66 L325.20 783.30 L324.58 778.05 L315.80 785.59 L317.32 777.11 L316.39 772.55 L303.92 784.88 L303.62 779.29 L302.00 775.69 L294.53 780.14 L295.66 772.83 L294.74 768.42 L285.85 774.32 L286.90 767.42 L282.17 767.81 L270.07 776.98 L271.88 769.28 L275.40 759.82 L274.37 755.78 L271.91 753.42 L270.07 750.39 L270.28 745.19 L267.55 743.18 L261.17 744.91 L260.21 741.02 L262.53 733.97 L255.65 735.98 L253.66 733.18 L255.04 727.27 L244.40 732.43 L240.31 731.45 L241.48 725.81 L233.54 728.09 L234.01 723.11 L235.83 717.13 L226.86 719.96 L226.62 715.68 L225.82 711.90 L210.85 718.89 L211.51 713.88 L216.59 705.76 L217.46 700.84 L217.39 696.67 L213.18 695.37 L216.08 689.26 L216.16 685.14 L208.75 685.84 L204.63 684.34 L212.90 675.22 L207.89 674.29 L200.30 674.78 L207.82 666.50 L198.10 668.07 L189.01 669.07 L192.75 663.08 L186.02 662.65 L183.60 659.91 L188.87 653.36 L183.47 652.11 L181.81 649.01 L184.39 643.97 L178.22 642.91 L177.55 639.37 L181.00 634.10 L180.85 630.43 L180.32 626.93 L181.88 622.64 L178.89 620.12 L178.04 616.78 L175.60 614.01 L170.78 612.02 L174.37 607.18 L172.10 604.30 L162.29 603.71 L171.35 597.34 L169.14 594.41 L155.61 594.56 L163.03 588.91 L158.01 586.58 L151.03 584.64 L159.60 578.97 L155.73 576.25 L149.21 574.02 L156.45 568.91 L151.97 566.20 L148.35 563.25 L154.96 558.51 L156.06 554.79 L154.66 551.47 L156.58 547.68 L156.46 544.20 L155.42 540.84 L154.54 537.44 L151.93 534.21 L154.27 530.49 L153.66 527.06 L145.50 524.13 L150.96 520.25 L153.72 516.62 L139.09 513.71 L141.48 510.03 L143.39 506.41 L133.56 502.92 L141.21 499.27 L143.74 495.71 L136.21 491.98 L143.76 488.58 L143.67 485.01 L136.77 481.08 L144.29 477.90 L148.72 474.65 L146.54 470.94 L151.20 467.81 L152.29 464.40 L150.62 460.69 L151.60 457.27 L149.29 453.42 L148.76 449.77 L153.99 446.98 L147.51 442.38 L148.07 438.85 L155.33 436.55 L147.52 431.47 L146.07 427.50 L150.16 424.69 L143.95 419.62 L147.43 416.69 L152.14 414.12 L146.46 408.96 L149.32 405.95 L153.21 403.26 L147.90 397.98 L152.87 395.64 L158.93 393.73 L159.11 390.04 L162.50 387.39 L166.02 384.84 L164.57 380.58 L166.79 377.60 L166.18 373.57 L164.58 369.12 L171.48 368.01 L169.96 363.55 L163.21 356.80 L176.34 358.54 L173.85 353.55 L161.52 343.93 L170.04 343.84 L169.16 339.36 L167.32 334.33 L175.35 334.26 L175.14 330.03 L171.92 324.14 L175.30 321.76 L169.82 314.42 L166.68 308.25 L173.77 307.96 L182.99 309.09 L187.91 307.78 L187.85 303.41 L192.73 302.16 L199.95 302.54 L195.15 294.98 L194.67 290.20 L203.92 292.16 L209.78 291.92 L201.79 281.64 L211.31 284.14 L215.55 282.85 L202.33 268.01 L210.45 269.64 L213.69 267.50 L207.47 257.56 L217.91 261.41 L221.73 259.83 L214.52 248.58 L222.39 250.54 L220.81 244.03 L215.03 233.44 L221.55 234.27 L230.32 237.43 L237.00 238.76 L239.10 235.61 L241.71 232.97 L248.45 234.68 L249.77 230.73 L248.42 223.79 L254.17 224.61 L261.10 226.94 L259.20 219.15 L263.32 218.29 L269.66 220.20 L264.89 208.52 L265.84 203.69 L271.69 205.07 L270.33 197.10 L275.41 197.57 L280.76 198.52 L279.88 190.85 L283.16 188.93 L286.01 186.38 L280.43 171.19 L286.36 173.03 L293.65 177.19 L300.54 180.98 L304.75 180.64 L305.97 175.40 L312.85 179.68 L316.94 179.36 L316.49 170.97 L319.38 168.40 L328.21 176.96 L329.62 171.74 L330.08 164.45 L338.03 172.06 L338.11 163.79 L337.05 152.75 L343.15 156.88 L344.70 151.07 L347.56 148.08 L354.00 153.49 L355.55 147.34 L357.60 142.19 L361.92 142.68 L361.65 131.06 L364.54 127.47 L370.50 132.45 L376.80 138.84 L381.79 141.79 L383.99 136.28 L389.34 140.70 L394.40 144.52 L395.32 134.24 L396.78 125.23 L402.20 130.51 L405.96 129.79 L406.57 116.13 L412.78 125.41 L416.56 124.67 L418.37 114.65 L423.92 122.29 L426.49 115.22 L429.85 111.78 L435.18 119.58 L438.37 115.09 L442.17 114.14 L447.12 121.39 L450.66 118.94 L453.94 113.98 L458.34 118.43 L462.46 121.09 L466.28 121.08 L470.23 122.81 L474.14 124.46 L477.97 125.51 L481.69 124.80 L485.17 117.53 L488.92 114.88 L492.77 114.67 L496.55 106.13 L500.48 110.12 L504.34 113.86 L508.29 109.99 L512.06 113.99 L515.97 112.97 L520.30 104.22 L523.68 113.80 L527.57 113.61 L532.14 105.31 L535.30 114.19 L539.18 114.31 L543.75 108.37 L547.10 113.38 L550.45 117.83 L554.21 118.72 L557.71 121.35 L561.11 124.30 L564.63 126.29 L568.36 126.97 L573.07 122.59 L578.16 116.87 L581.81 118.48 L587.04 113.02 L591.61 110.92 L593.52 119.89 L598.21 117.35 L602.78 115.57 L605.87 119.30 L611.58 113.78 L614.44 118.24 L617.16 122.92 L622.08 120.51 L624.37 126.25 L627.18 130.21 L632.74 126.23 L635.89 129.14 L637.94 134.90 L641.15 137.41 L644.30 140.02 L646.90 143.88 L650.10 146.20 L653.22 148.66 L657.87 147.66 L665.29 140.77 L667.79 144.73 L672.94 143.13 L679.70 138.43 L679.21 148.28 L683.35 148.88 L688.52 147.61 L688.91 155.22 L695.02 152.37 L699.79 152.05 L699.41 160.62 L705.51 158.13 L710.09 158.28 L710.18 165.68 L715.22 165.14 L719.88 165.30 L720.56 171.47 L722.32 175.89 L725.04 178.86 L726.74 183.23 L728.56 187.34 L730.45 191.29 L734.41 192.44 L743.18 187.46 L747.91 187.88 L754.41 186.19 L767.45 176.77 L770.77 179.33 L773.26 182.88 L776.27 185.79 L778.83 189.21 L781.28 192.71 L784.39 195.48 L787.47 198.29 L790.34 201.32 L792.44 205.11 L794.80 208.62 L798.55 210.76 L804.24 211.09 L806.36 214.85 L810.98 216.30 L816.69 216.84 L818.38 221.01 L819.76 225.41 L820.66 230.16 L822.05 234.44 L825.32 237.17 L828.93 239.64 L830.37 243.83 L834.33 246.08 L836.69 249.55 L838.04 253.76 L842.18 255.94 L845.71 258.60 L848.07 262.10 L854.45 262.90 L857.13 266.25 L858.03 270.74 L858.34 275.56 L858.70 280.30 L860.31 284.24 L865.18 286.25 L867.15 290.00 L870.00 293.25 L876.90 294.31 L877.69 298.76 L878.13 303.35 L878.08 308.16 L878.05 312.90 L880.05 316.62 L884.86 319.03 L885.53 323.40 L888.73 326.61 L892.14 329.77 L892.13 334.41 L894.23 338.15 L897.29 341.52 L897.91 345.87 L901.77 348.98 L905.40 352.22 L905.33 356.82 L904.87 361.52 L903.92 366.34 L903.90 370.82 L907.24 374.22 L909.72 377.93 L910.75 382.08 L916.55 384.92 L918.02 389.00 L917.54 393.58 L916.42 398.29 L915.43 402.92 L915.57 407.27 L918.73 410.94 L918.60 415.34 L919.22 419.57 L922.44 423.32 L921.14 427.90 L921.81 432.12 L926.28 435.77 L925.64 440.21 L927.83 444.26 L932.99 447.99 L931.99 452.48 L930.60 456.99 L928.49 461.52 L927.00 465.96 L928.16 470.17 L931.22 474.29 L930.83 478.63 L934.20 482.82 L937.23 487.07 L935.72 491.48 L933.76 495.85 L952.27 500.00 L948.90 495.51 L946.45 491.07 L944.66 486.66 L946.77 482.12 L949.82 477.49 L948.22 473.07 L949.81 468.46 L950.45 463.89 L947.55 459.61 L944.13 455.44 L941.66 451.22 L939.53 447.00 L943.12 442.07 L944.24 437.40 L941.58 433.26 L944.15 428.32 L943.37 423.89 L939.63 420.00 L940.93 415.20 L940.08 410.79 L937.44 406.76 L938.53 401.94 L936.51 397.79 L932.55 394.15 L929.03 390.45 L926.19 386.62 L925.21 382.32 L928.51 376.78 L926.78 372.64 L925.87 368.26 L926.58 363.35 L923.57 359.63 L919.00 356.48 L915.36 353.07 L912.28 349.51 L912.86 344.60 L913.02 339.81 L909.92 336.27 L909.52 331.67 L907.85 327.57 L903.85 324.47 L903.48 319.82 L903.38 315.00 L899.76 311.80 L900.13 306.71 L898.47 302.58 L893.94 299.89 L889.27 297.34 L885.59 294.33 L882.17 291.22 L884.49 284.93 L883.11 280.65 L879.96 277.38 L880.33 272.02 L877.30 268.68 L872.34 266.56 L867.86 264.21 L863.97 261.54 L861.75 257.79 L863.13 251.57 L860.25 248.21 L858.11 244.35 L857.26 239.51 L853.30 236.95 L849.74 234.12 L848.52 229.51 L844.49 227.08 L841.79 223.61 L839.80 219.55 L835.41 217.49 L830.13 216.25 L825.74 214.30 L821.67 212.13 L821.36 206.57 L820.19 201.71 L815.87 199.79 L815.26 194.30 L813.28 190.08 L808.91 188.23 L804.87 186.09 L801.13 183.67 L797.56 181.10 L793.73 178.83 L789.35 177.19 L785.31 175.22 L781.45 173.08 L777.36 171.24 L774.67 167.74 L780.65 153.51 L779.75 147.47 L778.15 142.19 L779.49 132.96 L775.99 129.93 L771.07 128.85 L765.89 128.18 L760.50 127.91 L756.22 126.12 L750.90 125.93 L744.31 127.74 L741.98 123.14 L739.85 118.10 L732.33 121.73 L729.69 117.52 L728.42 110.85 L720.33 115.90 L717.94 111.11 L716.44 104.55 L709.01 108.90 L706.91 103.33 L703.13 100.90 L694.92 107.37 L693.94 99.32 L691.08 94.95 L686.02 95.24 L685.24 86.09 L682.05 82.06 L677.21 81.78 L672.59 81.09 L667.36 81.95 L662.63 81.69 L657.90 81.52 L652.08 84.42 L647.59 83.83 L645.07 77.56 L639.61 79.82 L634.07 82.60 L630.93 77.93 L625.32 81.25 L620.20 83.25 L617.95 75.12 L612.60 78.07 L609.14 73.98 L605.74 69.40 L599.29 77.46 L595.73 73.48 L592.63 67.10 L587.90 68.12 L584.84 60.72 L581.19 55.85 L576.63 55.73 L571.95 56.39 L567.09 58.46 L562.34 60.15 L557.89 59.91 L552.98 63.54 L548.08 67.87 L544.38 61.16 L539.98 60.86 L534.92 68.78 L531.21 59.83 L526.76 60.44 L521.94 68.44 L517.98 59.53 L513.56 59.93 L509.08 63.51 L504.76 59.15 L500.35 64.51 L496.03 68.54 L491.57 61.02 L487.20 61.74 L482.72 59.51 L478.05 54.15 L473.56 53.88 L469.22 55.87 L464.94 58.30 L460.74 61.08 L456.42 62.16 L452.40 65.82 L448.66 71.35 L443.83 67.67 L439.22 66.19 L436.16 75.29 L431.84 75.50 L427.03 72.89 L424.41 82.69 L419.55 79.86 L414.29 75.46 L411.86 84.88 L405.68 76.64 L401.73 78.80 L399.98 89.85 L393.24 80.48 L389.60 83.68 L386.06 87.02 L380.40 82.84 L374.30 77.54 L371.27 82.68 L368.24 87.53 L363.71 87.62 L361.08 93.38 L359.04 100.51 L357.30 108.11 L352.73 107.79 L345.71 101.27 L342.75 105.39 L336.16 100.52 L331.46 100.47 L330.36 108.84 L324.99 107.27 L320.34 107.44 L319.34 115.46 L310.74 107.40 L305.76 107.16 L304.62 114.60 L298.12 111.47 L294.59 114.16 L293.93 122.07 L290.12 124.07 L284.07 122.18 L281.47 126.34 L280.36 132.93 L275.85 133.75 L274.05 138.96 L272.79 144.90 L273.19 153.21 L272.10 159.04 L261.82 151.26 L258.96 154.55 L254.43 155.45 L248.19 154.06 L247.53 160.34 L244.82 163.77 L238.52 162.54 L238.28 169.11 L231.25 167.12 L222.96 163.78 L223.84 171.60 L218.83 172.35 L213.85 173.21 L215.37 181.44 L212.65 184.80 L207.68 185.71 L203.89 187.95 L204.60 194.88 L200.83 197.10 L199.58 201.86 L199.73 207.90 L202.24 216.09 L203.33 222.74 L193.52 219.26 L188.84 220.65 L188.21 225.66 L177.50 221.91 L178.00 227.91 L180.24 235.23 L170.95 233.04 L171.41 238.82 L170.54 243.46 L157.25 238.58 L158.10 244.59 L157.99 249.80 L149.36 248.83 L151.61 255.67 L152.25 261.28 L148.80 264.04 L143.50 265.62 L144.98 271.65 L144.06 276.05 L141.88 279.65 L143.54 285.55 L147.04 292.44 L150.21 298.98 L143.54 299.87 L136.49 300.66 L136.71 305.48 L129.45 306.34 L127.92 310.25 L130.74 316.32 L124.78 318.01 L123.23 321.89 L125.63 327.58 L112.76 326.33 L110.99 330.19 L114.99 336.50 L106.89 337.68 L105.65 341.76 L107.41 347.01 L102.36 349.60 L101.81 353.93 L101.71 358.40 L98.86 361.88 L99.48 366.56 L99.42 370.98 L97.67 374.84 L102.71 380.75 L103.38 385.26 L97.78 387.99 L100.11 392.94 L98.82 396.88 L93.43 399.82 L97.25 405.02 L96.79 409.16 L91.06 412.16 L95.05 417.24 L90.24 420.52 L85.40 423.87 L90.09 428.96 L87.36 432.73 L83.97 436.45 L85.90 440.97 L84.45 445.00 L82.90 449.03 L83.74 453.35 L81.67 457.35 L82.74 461.68 L85.67 466.12 L83.94 470.16 L88.01 474.59 L93.76 479.02 L87.28 482.82 L88.77 487.00 L93.41 491.22 L86.88 495.21 L91.11 499.35 L96.25 503.39 L89.76 507.55 L92.83 511.57 L92.35 515.66 L82.32 520.23 L86.47 524.18 L87.70 528.25 L82.71 532.79 L86.96 536.61 L87.19 540.76 L85.90 545.07 L87.64 549.06 L87.63 553.24 L88.68 557.30 L91.97 561.00 L91.14 565.31 L95.40 568.79 L102.64 571.65 L99.42 576.38 L99.92 580.44 L106.11 583.30 L100.52 588.66 L101.12 592.72 L109.47 594.91 L104.26 600.38 L104.64 604.50 L112.16 606.67 L104.45 613.06 L105.73 616.97 L111.84 619.40 L106.95 625.22 L109.63 628.68 L112.82 631.93 L111.02 636.90 L113.91 640.24 L115.17 644.15 L115.80 648.31 L120.19 651.00 L121.41 654.92 L124.45 658.08 L131.80 659.33 L132.82 663.27 L131.49 668.30 L137.87 669.78 L136.75 674.76 L138.30 678.49 L145.71 679.26 L145.77 683.70 L145.86 688.17 L152.19 689.29 L145.64 697.47 L144.41 702.85 L151.75 703.30 L149.56 709.31 L152.72 712.16 L160.06 712.37 L160.65 716.75 L160.32 721.77 L164.89 723.60 L169.93 725.04 L171.78 728.62 L177.26 729.63 L180.80 731.95 L189.99 730.05 L194.35 731.59 L186.69 742.36 L191.65 743.49 L192.89 747.54 L190.60 754.54 L198.31 753.29 L200.95 756.22 L200.00 762.28 L207.16 761.23 L205.91 767.67 L203.41 775.42 L210.58 774.20 L210.77 779.57 L211.92 784.08 L219.66 782.04 L221.23 786.12 L222.91 790.14 L226.06 792.65 L231.28 792.89 L234.60 795.14 L240.06 794.95 L243.24 797.28 L252.00 793.02 L259.56 789.90 L254.44 802.18 L256.97 805.25 L262.17 804.93 L260.13 813.98 L265.88 812.88 L271.47 811.86 L270.75 819.51 L276.33 818.40 L279.32 820.92 L275.84 833.06 L281.81 831.30 L286.37 831.54 L286.23 839.17 L292.76 836.21 L297.51 835.98 L300.34 838.90 L302.07 843.79 L307.65 841.96 L311.76 842.62 L315.51 843.90 L320.90 842.03 L327.53 837.54 L333.50 834.06 L334.03 841.49 L335.20 847.90 L340.05 846.57 L339.98 856.04 L343.77 857.11 L350.14 852.11 L351.44 858.97 L355.45 859.40 L361.28 855.14 L360.29 868.50 L364.06 869.66 L369.59 865.87 L370.59 874.88 L375.53 872.62 L380.86 868.89 L384.40 870.58 L386.86 875.85 L391.45 874.14 L396.33 871.15 L399.60 873.83 L404.30 871.08 L409.42 866.35 L414.66 860.60 L418.22 861.67 L419.75 872.15 L423.83 871.22 L426.78 875.87 L430.14 878.75 L434.83 874.27 L438.34 876.38 L441.74 879.35 L446.39 873.98 L448.67 885.43 L452.12 889.28 L456.74 883.28 L460.43 885.07 L464.56 882.55 L468.93 876.22 L472.91 873.54 L476.90 869.77 L480.84 865.36 L484.63 862.33 L488.32 860.58 L491.96 859.15 L495.49 864.12 L499.13 865.20 L502.77 863.84 L506.46 866.93 L510.11 866.14 L513.66 863.04 L517.16 860.16 L520.66 858.20 L524.22 857.68 L528.17 862.30 L531.78 861.76 L535.41 861.59 L539.28 863.57 L542.72 861.58 L546.16 859.75 L550.04 861.31 L553.44 859.41 L557.02 858.75 L560.80 859.31 L564.06 856.89 L567.03 853.06 L570.11 850.17 L573.27 847.82 L577.39 849.99 L581.53 851.98 L584.64 849.49 L588.74 851.04 L592.39 850.66 L595.17 847.08 L597.80 843.21 L600.70 840.42 L603.63 837.87 L608.21 840.60 L611.69 839.75 L614.56 837.08 L618.67 838.03 L621.70 835.89 L624.08 832.06 L628.70 834.18 L632.10 833.04 L635.24 831.24 L639.51 832.17 L642.29 829.53 L644.33 825.28 L646.53 821.52 L649.00 818.47 L652.70 818.05 L657.70 820.22 L660.50 817.85 L664.11 817.07 L668.12 817.02 L670.30 813.51 L671.84 808.93 L673.81 805.25 L675.99 802.01 L680.57 802.88 L685.07 803.48 L687.25 800.25 L691.55 800.42 L694.84 798.95 L696.34 794.76 L699.87 793.65 L703.23 792.27 L704.70 788.19 L708.68 787.65 L711.34 785.27 L712.55 780.99 L713.67 776.67 L715.37 773.19 L717.31 770.04 L723.35 771.94 L726.33 770.01 L728.81 767.50 L734.26 768.38 L736.88 765.97 L738.30 762.24 L740.87 759.80 L743.19 757.10 L745.24 754.13 L747.15 751.03 L748.84 747.74 L750.25 744.21 L751.80 740.85 L753.34 737.52 L761.90 740.67 L770.83 743.93 L773.81 741.70 L781.67 743.67 L787.44 743.68 L788.72 739.84 L789.36 735.52 L789.72 731.04 L789.69 726.31 L791.61 723.15 L791.35 718.37 L788.95 712.09 L795.83 712.62 L799.04 710.43 L793.32 702.04 L802.42 703.89 L804.70 701.02 L799.48 693.30 L807.86 694.38 L810.38 691.66 L808.36 686.18 L813.63 685.10 L812.38 680.18 L809.95 674.67 L817.72 674.89 L819.78 671.88 L822.80 669.36 L829.62 668.76 L831.20 665.41 L831.70 661.53 L831.32 657.27 L830.13 652.68 L831.60 649.35 L830.61 644.95 L827.01 639.49 L831.68 637.58 L836.43 635.62 L829.46 628.99 L831.46 625.97 L837.39 624.38 L828.89 617.52 L834.03 615.60 L840.10 613.91 L832.07 607.54 L840.32 606.46 L842.31 603.34 L832.64 596.80 L842.54 595.98 L846.38 593.33 L845.92 589.50 L854.13 587.86 L856.47 584.66 L855.99 580.80 L854.73 576.79 L852.67 572.66 L852.91 569.04 L851.24 565.07 L847.67 560.82 L848.81 557.43 L853.30 554.55 L849.22 550.35 L848.97 546.75 L855.62 544.03 L849.69 539.75 L850.16 536.26 L856.54 533.32 L850.69 529.24 L852.08 525.81 L855.50 522.49 L846.85 518.46 L850.69 515.15 L855.90 511.82 L852.31 508.17 L858.91 504.73 L862.05 501.15 L860.68 497.54 L859.31 493.96 L856.51 490.44 L854.44 486.95 L853.67 483.43 L849.83 480.10 L844.90 476.92 L851.18 472.97 L850.26 469.52 L844.41 466.55 L846.72 462.82 L844.28 459.60 L839.14 456.76 L843.94 452.65 L843.18 449.25 L841.62 445.99 L844.70 441.96 L839.31 439.37 L837.81 436.15 L843.57 431.49 L841.37 428.38 L843.71 424.29 L848.60 419.55 L847.30 416.18 L846.07 412.81 L844.91 409.42 L840.72 406.87 L840.02 403.40 L837.05 400.59 L829.11 399.34 L832.06 394.80 L832.06 391.13 L824.66 389.95 L830.03 384.44 L829.35 380.96 L820.91 380.38 L825.85 374.81 L825.02 371.38 L818.28 370.35 L825.44 363.63 L823.07 360.81 L817.18 359.57 L821.92 353.60 L818.53 351.28 L815.72 348.73 L816.54 344.42 L813.70 341.90 L811.98 338.84 L811.27 335.24 L806.36 333.90 L805.06 330.64 L802.00 328.36 L795.51 328.12 L794.18 324.93 L795.63 320.04 L788.86 320.18 L788.56 316.34 L788.60 312.23 L781.29 312.96 L781.09 309.01 L781.74 304.42 L774.47 305.37 L781.28 296.29 L781.48 291.81 L773.25 293.65 L775.68 287.45 L774.42 284.01 L768.91 283.96 L769.20 279.25 L766.83 276.70 L763.17 275.25 L761.76 271.89 L758.32 270.31 L754.87 268.76 L752.80 265.99 L746.63 267.08 L742.02 266.82 L743.08 261.05 L739.07 260.25 L736.04 258.51 L737.25 252.36 L731.76 253.21 L727.78 252.52 L729.36 245.75 L723.71 246.97 L722.60 243.10 L723.42 236.88 L717.38 238.74 L715.98 235.08 L715.57 230.12 L710.53 230.95 L708.29 228.26 L706.76 224.59 L702.63 224.40 L700.85 221.02 L697.18 220.26 L692.41 221.14 L690.31 218.20 L685.50 219.31 L679.92 221.74 L680.15 215.18 L676.99 213.89 L671.53 216.40 L671.04 210.72 L667.35 210.40 L663.03 211.25 L661.77 206.66 L658.71 205.27 L655.79 203.64 L656.43 195.06 L652.01 196.23 L648.12 196.46 L646.99 190.97 L641.73 194.18 L638.01 194.23 L635.02 192.70 L632.58 189.87 L628.52 190.85 L624.55 191.73 L620.60 192.70 L617.31 192.06 L611.53 198.19 L605.79 204.68 L606.50 193.08 L604.28 189.46 L599.58 193.33 L599.17 183.88 L595.40 184.89 L590.18 191.02 L589.08 183.05 L585.35 184.24 L580.89 188.40 L580.93 174.90 L577.32 175.62 L573.02 179.47 L571.59 170.55 L567.37 174.31 L563.25 178.04 L560.42 175.31 L557.81 171.11 L554.05 173.38 L550.23 176.41 L546.99 175.88 L543.42 177.90 L539.64 181.94 L535.46 190.21 L532.80 185.68 L530.40 177.45 L526.87 180.82 L524.06 175.38 L520.84 174.66 L517.26 180.65 L514.24 176.48 L511.01 175.98 L507.61 182.58 L504.61 170.36 L501.32 167.89 L498.04 174.26 L494.70 168.88 L491.40 169.60 L488.33 176.09 L485.00 174.17 L481.55 171.03 L478.45 174.08 L475.45 177.66 L472.22 177.80 L469.39 182.22 L466.29 183.23 L464.14 192.34 L461.60 196.92 L456.70 183.60 L453.93 186.73 L450.72 186.68 L446.40 180.11 L444.38 187.30 L441.42 188.70 L437.35 184.47 L435.40 190.91 L431.40 187.38 L426.44 180.10 L424.59 186.45 L420.83 184.71 L416.84 182.31 L415.55 190.08 L411.97 189.23 L408.52 188.92 L405.39 189.77 L403.20 193.61 L400.45 195.54 L398.64 200.21 L395.64 201.20 L395.57 210.33 L395.49 218.95 L388.00 207.79 L384.67 207.88 L383.40 213.10 L377.03 205.88 L376.01 211.58 L374.88 216.79 L369.19 211.74 L367.98 216.66 L365.43 218.56 L356.65 207.75 L355.53 212.76 L354.49 217.76 L352.29 220.39 L352.74 227.87 L352.42 233.68 L352.35 239.73 L351.91 244.93 L349.87 247.27 L347.39 248.85 L345.25 250.98 L342.77 252.53 L340.08 253.78 L337.98 255.92 L335.22 257.08 L332.89 258.86 L330.95 261.20 L328.52 262.83 L326.71 265.31 L324.64 267.42 L322.07 268.85 L320.07 271.03 L318.06 273.17 L315.35 274.45 L313.24 276.47 L311.35 278.74 L308.73 280.16 L306.85 282.44 L304.68 284.37 L302.06 285.83 L300.40 288.31 L298.39 290.42 L296.00 292.13 L294.74 294.99 L292.66 297.02 L290.72 299.18 L289.40 301.92 L287.44 304.04 L285.14 305.86 L283.27 308.07 L281.51 310.38 L279.16 312.18 L276.96 314.12 L275.34 316.55 L273.61 318.87 L271.74 321.09 L270.11 323.49 L268.62 326.00 L267.06 328.45 L265.82 331.12 L264.71 333.87 L263.81 336.75 L262.56 339.37 L261.30 341.98 L260.62 344.95 L258.23 346.81 L256.53 349.12 L255.23 351.69 L252.70 353.51 L251.47 356.12 L250.22 358.71 L248.33 360.95 L247.49 363.76 L246.12 366.28 L244.39 368.62 L243.63 371.45 L242.31 374.00 L241.36 376.72 L241.27 379.84 L240.51 382.63 L239.96 385.50 L239.66 388.46 L238.55 391.07 L237.83 393.83 L237.56 396.76 L236.18 399.26 L235.08 401.86 L235.01 404.84 L234.07 407.49 L233.32 410.21 L233.26 413.15 L232.76 415.93 L231.76 418.56 L231.72 421.46 L229.34 423.70 L226.38 425.81 L225.27 428.45 L222.74 430.74 L220.50 433.15 L220.26 436.04 L219.81 438.88 L219.87 441.82 L220.84 444.93 L221.23 447.89 L221.53 450.83 L221.89 453.76 L208.13 454.46 L203.79 456.81 L201.40 459.51 L192.92 461.48 L192.54 464.55 L194.86 467.91 L197.22 471.22 L199.34 474.45 L200.40 477.55 L202.82 480.72 L207.32 483.95 L205.35 486.80 L201.57 489.62 L208.09 492.77 L211.08 495.73 L206.43 498.60 L213.73 501.49 L214.40 504.35 L206.84 507.40 L213.58 510.09 L208.26 513.20 L204.59 516.33 L216.14 518.54 L210.28 521.83 L206.01 525.12 L208.69 527.82 L201.43 531.53 L198.75 534.87 L200.44 537.71 L202.67 540.45 L205.80 543.03 L207.99 545.69 L209.80 548.39 L214.39 550.56 L217.29 552.97 L211.86 556.98 L214.92 559.34 L221.02 560.99 L217.43 564.74 L221.15 566.83 L225.56 568.68 L220.12 573.03 L222.95 575.25 L223.82 577.99 L222.32 581.42 L228.57 582.54 L230.07 585.05 L225.61 589.48 L225.84 592.45 L221.47 597.03 L218.86 601.10 L220.25 603.78 L223.47 605.74 L226.82 607.60 L229.49 609.69 L231.52 612.00 L236.14 613.19 L241.59 613.92 L237.41 618.91 L237.65 621.98 L248.26 620.13 L247.67 623.52 L246.69 627.15 L257.34 624.86 L251.25 631.16 L250.33 634.85 L255.95 634.98 L250.50 641.27 L254.84 642.07 L262.96 640.56 L256.21 647.87 L256.75 650.89 L257.35 653.90 L253.57 659.77 L254.37 662.77 L257.90 663.94 L261.42 665.06 L264.69 666.30 L267.23 668.02 L271.28 668.60 L276.62 668.13 L275.39 672.60 L275.13 676.41 L283.20 673.61 L285.07 675.67 L283.56 680.55 L291.61 677.39 L291.95 680.72 L289.11 686.92 L296.57 683.98 L295.08 689.08 L296.23 691.83 L303.84 688.40 L301.96 694.05 L301.27 698.66 L303.34 700.57 L299.81 708.29 L301.12 711.11 L304.06 712.21 L308.02 712.13 L311.61 712.40 L314.27 713.66 L317.67 714.03 L322.71 712.39 L324.33 714.77 L323.96 719.68 L329.19 717.57 L331.98 718.48 L332.01 723.03 L338.40 719.07 L339.81 721.75 L339.26 727.27 L345.13 723.69 L345.60 727.85 L345.78 732.55 L353.11 726.38 L353.56 730.71 L353.36 736.20 L356.34 736.65 L355.73 743.12 L356.64 747.19 L359.49 747.95 L363.04 747.41 L366.65 746.68 L369.87 746.60 L372.71 747.16 L376.99 744.83 L381.06 742.76 L380.83 749.51 L383.76 749.77 L389.04 744.81 L389.06 751.40 L392.70 749.90 L397.11 746.39 L397.03 753.68 L400.22 753.07 L403.34 752.53 L404.69 756.66 L409.03 752.67 L412.11 752.01 L412.83 758.20 L415.26 759.54 L416.57 764.47 L417.99 769.32 L420.73 770.01 L423.98 768.85 L427.38 766.99 L430.46 766.14 L433.21 766.50 L436.70 763.71 L440.37 759.86 L441.94 765.16 L444.28 767.22 L448.67 759.13 L450.31 764.70 L452.78 766.17 L457.00 757.32 L458.43 765.05 L460.83 767.19 L464.61 759.44 L466.22 767.62 L469.11 766.09 L472.69 757.69 L474.41 766.96 L476.96 768.59 L479.64 768.92 L481.92 775.26 L484.61 776.73 L487.44 775.49 L490.30 772.66 L493.07 770.86 L495.79 770.38 L498.51 767.47 L501.16 763.02 L503.84 765.89 L506.57 768.82 L509.02 761.96 L511.71 763.38 L514.51 766.39 L516.65 758.06 L519.47 761.11 L522.46 765.37 L524.40 757.67 L527.47 762.06 L530.23 763.07 L531.73 753.68 L535.09 759.45 L538.14 762.26 L540.52 760.28 L544.44 767.84 L547.45 769.28 L549.91 767.53 L552.14 764.81 L554.27 761.77 L556.58 759.81 L558.94 758.19 L560.47 753.19 L562.62 751.09 L566.47 755.60 L568.19 751.83 L569.59 747.20 L573.56 751.62 L574.40 745.34 L576.43 743.25 L580.78 748.40 L581.75 743.08 L584.56 743.36 L588.64 747.11 L588.34 738.72 L591.25 739.21 L595.63 743.35 L597.74 741.60 L602.03 745.13 L605.72 746.99 L608.14 745.83 L609.67 742.69 L611.00 739.23 L612.71 736.68 L614.82 735.04 L615.32 730.19 L615.61 725.13 L620.64 729.25 L623.17 728.47 L621.22 719.58 L626.32 723.50 L628.31 721.82 L626.38 713.53 L632.71 719.20 L634.90 717.85 L634.98 713.19 L639.46 715.47 L639.51 710.89 L639.23 705.96 L644.88 709.77 L647.81 709.51 L651.42 710.13 L656.75 713.01 L658.96 711.54 L660.02 708.57 L660.36 704.75 L661.25 701.70 L663.08 699.85 L662.94 695.65 L661.94 690.54 L666.51 692.00 L669.79 691.87 L666.04 683.89 L670.36 684.93 L673.71 684.82 L668.55 675.77 L674.19 678.05 L678.84 679.19 L673.69 670.59 L681.42 674.64 L683.53 673.17 L677.87 664.50 L685.81 668.43 L689.04 667.95 L689.98 665.41 L697.21 668.27 L699.81 667.06 L700.58 664.33 L700.11 660.62 L699.97 657.25 L701.01 654.84 L700.70 651.43 L698.62 646.76 L701.44 645.76 L705.72 645.74 L702.89 640.71 L704.03 638.50 L708.20 638.31 L703.96 632.57 L706.47 631.29 L711.75 631.69 L707.76 626.34 L711.78 625.91 L714.55 624.66 L708.64 618.45 L715.03 619.26 L716.84 617.44 L713.89 613.09 L719.39 613.20 L726.62 614.08 L726.46 611.18 L721.15 605.84 L723.38 604.18 L722.18 600.92 L719.27 596.97 L714.42 592.27 L711.54 588.54 L723.46 590.91 L723.83 588.46 L724.69 586.21 L730.17 585.69 L726.52 581.76 L724.53 578.51 L730.46 578.00 L727.40 574.44 L732.04 573.40 L741.47 573.74 L736.72 569.70 L738.66 567.69 L742.95 566.29 L736.90 562.10 L736.81 559.55 L739.58 557.71 L741.56 555.64 L736.66 552.02 L737.37 549.69 L736.33 547.01 L732.55 543.85 L726.32 540.33 L722.77 537.41 L732.36 536.63 L734.94 534.64 L732.48 531.90 L739.32 530.40 L736.48 527.64 L732.14 524.79 L737.42 522.95 L735.66 520.40 L734.02 517.91 L747.43 516.45 L743.94 513.77 L740.48 511.16 L748.27 509.03 L742.71 506.40 L738.86 503.91 L739.88 501.53 L744.15 499.11 L739.47 496.74 L736.92 494.40 L737.84 492.00 L734.27 489.77 L728.77 487.72 L723.62 485.75 L728.46 483.15 L734.30 480.36 L730.66 478.34 L735.65 475.49 L735.10 473.17 L729.82 471.44 L731.96 468.82 L732.31 466.40 L727.58 464.76 L737.92 460.72 L738.30 458.20 L732.11 456.89 L737.95 453.34 L735.25 451.42 L729.33 450.25 L729.25 447.86 L732.10 444.77 L729.87 442.86 L723.94 441.95 L725.67 439.09 L721.26 437.90 L715.76 437.11 L709.19 436.75 L707.34 435.04 L717.43 429.48 L715.47 427.73 L716.94 424.81 L719.24 421.55 L713.66 421.13 L712.52 419.12 L715.16 415.65 L709.36 415.50 L716.34 410.15 L720.59 405.79 L713.43 406.31 L716.69 402.29 L716.46 399.77 L709.31 400.53 L707.53 398.82 L709.77 395.12 L708.87 392.94 L702.45 393.66 L701.97 391.33 L698.68 390.52 L694.03 390.54 L686.56 392.28 L681.48 392.78 L679.51 391.51 L677.35 390.38 L676.34 388.55 L675.96 386.31 L675.12 384.35 L674.06 382.54 L676.85 378.07 L673.52 377.78 L672.67 375.78 L674.17 372.04 L670.31 372.24 L670.22 369.62 L678.20 360.66 L674.47 360.74 L674.75 357.63 L677.23 352.64 L678.13 348.85 L672.29 350.82 L669.57 350.18 L667.52 348.98 L662.74 350.32 L656.50 353.14 L651.47 354.99 L648.27 355.18 L646.44 354.07 L647.73 349.81 L646.71 347.84 L643.99 347.64 L644.53 343.97 L644.95 340.35 L640.97 341.58 L638.09 341.66 L637.38 339.25 L635.56 338.12 L631.89 339.27 L638.00 328.36 L636.18 327.11 L633.57 326.89 L634.73 321.73 L636.31 315.83 L632.01 317.87 L627.48 320.36 L626.68 317.65 L622.66 319.61 L617.67 323.17 L612.71 326.90 L609.49 328.11 L607.06 328.16 L605.26 327.22 L603.64 325.99 L601.98 324.81 L600.15 323.93 L600.26 319.56 L598.48 318.51 L595.28 320.15 L594.72 316.79 L593.03 315.56 L589.69 317.68 L591.97 308.23 L591.96 303.22 L588.33 305.94 L588.47 300.37 L589.15 293.29 L586.30 294.26 L581.65 299.75 L580.02 297.99 L577.16 299.39 L573.70 302.50 L569.29 308.50 L566.08 311.50 L563.78 312.05 L561.48 312.71 L560.78 308.38 L558.54 308.83 L556.60 308.36 L555.64 304.41 L553.67 303.93 L550.69 307.26 L548.98 305.90 L547.31 304.29 L544.81 306.15 L542.92 305.47 L541.88 300.76 L539.71 301.23 L537.74 300.71 L535.67 300.79 L533.18 303.39 L531.30 302.49 L529.33 302.13 L526.84 305.56 L525.05 304.08 L523.07 303.97 L520.72 307.42 L519.02 304.82 L517.14 303.83 L514.92 306.98 L513.55 298.52 L511.60 297.22 L509.30 302.93 L507.52 297.85 L505.51 297.19 L503.42 300.70 L501.42 301.28 L499.44 303.33 L497.50 305.54 L495.50 302.88 L493.55 303.59 L491.58 303.54 L489.54 302.23 L487.68 304.25 L485.82 305.63 L483.77 304.50 L482.08 307.55 L480.21 308.27 L478.21 307.69 L476.63 310.69 L474.72 310.83 L472.54 309.04 L470.97 311.54 L468.86 310.45 L466.91 310.47 L465.67 314.33 L463.56 313.36 L462.16 316.00 L461.22 320.53 L457.20 311.11 L455.97 314.33 L455.76 321.40 L451.43 312.01 L449.33 311.66 L448.39 315.54 L445.85 313.69 L444.29 315.22 L443.49 319.13 L440.81 317.01 L439.60 319.44 L438.58 322.34 L436.25 321.39 L435.10 323.76 L434.18 326.61 L431.16 324.00 L429.86 325.82 L427.56 325.18 L423.24 319.86 L422.58 323.25 L421.54 325.63 L418.28 323.15 L417.38 325.79 L416.60 328.59 L415.38 330.41 L414.90 333.64 L412.83 333.72 L410.60 333.54 L409.85 336.09 L407.08 334.98 L405.49 336.01 L405.51 339.77 L403.21 339.57 L401.92 341.04 L402.52 345.49 L399.73 344.54 L398.55 346.11 L399.30 350.52 L395.79 348.60 L394.25 349.60 L393.90 352.27 L391.04 351.44 L390.44 353.72 L391.03 357.49 L388.39 357.03 L389.34 361.13 L386.37 360.29 L381.76 357.56 L383.97 363.03 L379.85 361.01 L369.45 352.00 L368.04 353.38 L364.13 352.04 L358.12 348.57 L357.18 350.59 L357.49 353.86 L357.53 356.80 L358.52 360.61 L357.33 362.22 L357.66 365.27 L360.71 370.77 L356.65 369.64 L352.88 368.87 L358.68 376.56 L353.48 374.58 L348.97 373.31 L356.21 381.82 L349.41 378.73 L345.37 378.01 L351.03 384.87 L345.35 382.93 L344.66 384.83 L351.09 391.89 L343.49 388.74 L340.66 389.12 L340.59 391.42 L333.63 389.10 L331.97 390.40 L331.70 392.61 L332.41 395.41 L333.80 398.57 L333.24 400.50 L334.19 403.30 L337.24 407.25 L335.45 408.40 L330.84 408.03 L335.11 412.48 L335.66 414.87 L330.96 414.57 L336.47 419.39 L336.05 421.22 L328.16 419.53 L335.06 424.76 L329.98 424.49 L325.77 424.69 L335.76 430.96 L329.10 430.16 L323.85 430.06 L326.09 432.95 L318.44 432.08 L314.97 432.88 L315.75 435.25 L316.20 437.46 L318.23 440.18 L319.41 442.56 L319.56 444.58 L322.72 447.49 L325.68 450.26 L319.65 450.48 L320.68 452.69 L324.42 455.55 L317.40 455.71 L320.07 458.26 L323.88 460.99 L316.37 461.25 L318.78 463.65 L320.19 465.80 L316.50 466.99 L322.31 469.87 L322.80 471.77 L315.94 472.56 L318.02 474.73 L313.85 476.05 L309.00 477.36 L309.46 479.35 L310.78 481.40 L312.41 483.46 L315.47 485.58 L315.39 487.43 L317.77 489.43 L324.03 491.55 L318.47 493.11 L316.19 494.86 L326.28 496.88 L323.11 498.59 L320.81 500.36 L329.83 502.05 L323.56 503.89 L321.54 505.72 L326.51 507.30 L320.17 509.37 L322.12 511.05 L329.84 512.28 L321.75 514.66 L320.22 516.59 L319.68 518.46 L313.32 521.00 L312.78 522.96 L314.98 524.57 L317.24 526.13 L320.00 527.58 L321.09 529.25 L324.33 530.52 L329.48 531.39 L326.71 533.69 L324.39 535.97 L332.10 536.14 L329.47 538.50 L325.18 541.31 L334.42 540.88 L331.19 543.47 L326.85 546.44 L335.03 546.02 L330.86 549.01 L331.68 550.60 L341.07 549.52 L334.39 553.42 L332.68 555.82 L335.34 556.78 L328.00 561.24 L327.02 563.54 L329.04 564.75 L331.09 565.91 L334.41 566.53 L336.22 567.71 L338.31 568.75 L343.56 568.37 L344.26 569.93 L340.87 573.37 L345.68 573.04 L350.02 572.82 L347.36 576.01 L352.97 575.06 L355.93 575.38 L350.46 580.16 L355.67 579.23 L353.09 582.57 L351.09 585.66 L360.54 582.10 L357.64 585.73 L354.38 589.69 L356.76 590.21 L351.74 595.46 L349.65 598.94 L351.24 600.04 L353.48 600.68 L356.63 600.64 L359.64 600.64 L360.99 601.79 L365.58 600.51 L370.28 599.03 L366.14 604.32 L367.75 605.22 L374.45 601.95 L368.98 608.59 L371.39 608.78 L378.08 605.22 L372.65 612.16 L374.78 612.52 L378.15 611.71 L376.36 615.66 L381.70 612.90 L385.09 611.88 L381.16 618.04 L383.01 618.55 L382.08 621.92 L379.35 627.25 L380.74 628.34 L383.01 628.44 L385.85 627.88 L388.74 627.17 L390.31 627.94 L393.81 626.39 L398.39 623.42 L396.64 628.14 L396.86 630.52 L403.68 624.42 L404.19 626.36 L403.76 629.60 L410.60 622.94 L408.94 627.88 L407.77 632.31 L413.52 626.75 L409.97 634.83 L412.35 634.15 L418.31 627.80 L417.85 631.40 L420.40 630.19 L422.25 630.08 L423.31 631.26 L425.69 630.17 L427.71 629.62 L428.49 631.28 L431.06 629.63 L432.47 630.11 L433.60 631.12 L436.08 629.42 L437.65 629.48 L437.90 632.33 L439.99 631.27 L439.63 635.63 L439.28 640.18 L442.19 637.22 L442.98 639.21 L443.62 641.66 L446.22 639.16 L447.89 638.98 L449.87 637.85 L452.37 635.17 L453.10 637.47 L454.24 638.66 L456.36 636.81 L456.80 640.28 L458.39 640.07 L460.78 637.04 L461.37 640.27 L463.24 638.88 L465.26 636.75 L466.24 638.69 L467.99 637.47 L470.08 634.59 L470.69 638.37 L472.18 638.10 L473.74 637.48 L474.82 639.33 L476.56 637.56 L478.05 637.11 L479.48 636.90 L481.37 633.39 L481.91 639.75 L483.20 640.81 L485.21 635.44 L486.14 639.90 L487.22 643.58 L488.85 641.29 L490.22 642.07 L491.63 642.30 L493.19 639.45 L494.53 641.04 L495.97 640.22 L497.45 635.98 L498.79 638.39 L500.17 637.74 L501.50 633.53 L502.91 636.78 L504.29 637.42 L505.55 634.44 L507.33 643.01 L508.80 643.58 L509.83 637.75 L511.64 642.92 L513.08 642.95 L514.18 639.54 L515.45 638.32 L516.59 636.16 L517.73 634.30 L519.38 636.32 L520.64 635.44 L522.03 635.43 L523.55 636.19 L524.55 633.95 L525.92 633.88 L527.32 633.91 L527.96 630.38 L529.40 630.71 L530.79 630.77 L531.32 627.30 L532.68 627.32 L534.41 628.72 L535.08 626.14 L536.77 627.26 L538.11 627.15 L538.32 623.35 L540.21 624.99 L540.65 622.15 L540.87 618.85 L545.14 627.10 L545.14 623.20 L544.75 618.45 L549.03 625.94 L550.34 625.58 L550.69 622.89 L552.53 623.81 L553.23 622.06 L553.57 619.56 L555.42 620.45 L555.63 617.79 L556.16 615.89 L557.89 616.47 L558.06 613.94 L558.43 611.90 L561.13 614.27 L561.48 612.20 L563.89 613.89 L567.70 617.89 L567.18 614.34 L568.35 613.70 L570.97 615.43 L570.75 612.53 L571.10 610.62 L571.36 608.62 L570.79 605.44 L572.54 605.76 L574.08 605.71 L573.97 603.33 L576.56 604.73 L577.42 603.71 L576.34 600.17 L578.84 601.32 L579.01 599.47 L577.78 595.94 L580.11 596.82 L580.36 595.17 L578.36 590.94 L581.97 593.23 L582.86 592.36 L582.74 590.39 L585.07 591.09 L584.88 589.08 L584.50 586.93 L585.90 586.62 L584.12 583.15 L588.18 585.43 L590.99 586.40 L587.77 581.69 L590.60 582.66 L594.79 584.76 L594.19 582.54 L594.89 581.49 L596.03 580.81 L594.90 578.26 L596.44 577.92 L596.82 576.63 L594.50 573.27 L596.75 573.48 L597.45 572.49 L594.96 569.17 L597.68 569.67 L599.42 569.42 L596.94 566.26 L604.82 570.12 L606.85 569.93 L601.29 564.86 L607.13 567.10 L608.40 566.40 L605.64 563.26 L605.86 561.96 L604.90 560.00 L603.44 557.80 L606.16 557.94 L606.30 556.64 L606.64 555.46 L607.93 554.76 L607.02 552.96 L606.91 551.59 L608.35 550.95 L606.42 548.75 L606.81 547.64 L608.25 546.99 L606.13 544.81 L605.76 543.42 L608.17 543.15 L606.91 541.41 L607.76 540.51 L608.83 539.67 L606.41 537.59 L602.95 535.21 L601.69 533.65 L601.10 532.34 L601.25 531.27 L601.02 530.10 L600.84 528.95 L600.85 527.86 L600.62 526.72 L600.57 525.63 L600.48 524.54 L600.41 523.46 L600.35 522.39 L600.29 521.33 L600.23 520.27 L600.20 519.22 L600.13 518.17 L600.07 517.13 L600.00 516.09 L599.93 515.06 L599.86 514.03 L599.77 513.00 L599.69 511.98 L599.59 510.95 L599.50 509.94 L599.39 508.92 L599.28 507.91 L599.15 506.91 L599.03 505.90 L598.89 504.90 L598.74 503.91 L598.59 502.91 L598.42 501.93 L598.25 500.94 Z"/>
  <svg class="pausebutton" id="pausebutton">
    <circle cx="500" cy="500" id="pausestart" class="pausestart" r="52.65"/>
    <rect height="50.02" width="10.00" y="473.68" rx="2.00" ry="2.00" x="479.99" class="pausesymbol"/>
    <rect height="50.02" width="10.00" y="473.68" rx="2.00" ry="2.00" x="510.00" class="pausesymbol"/>
    <polygon points="530.01,500 479.99,530.01 479.99,469.99" class="playsymbol"/>
  </svg>
  <polygon id="playback-head" class="playback-head" points="941.65,500 921.65,540 961.65,540"/>
</svg>