<?xml-stylesheet href="../../style/waveformjs.css" type="text/css"?>
<svg xmlns="http://www.w3.org/2000/svg" xmlns:xlink="http://www.w3.org/1999/xlink" width="100%" height="100%" viewBox="0 0 1000 1000">
  <path class="svg-wave" id="sp" d="M598.01 500.00 L598.18 500.98 L598.33 501.97 L598.48 502.96 L598.60 503.95 L598.71 504.94 L598.79 505.93 L598.85 506.93 L598.87 507.93 L598.85 508.92 L598.78 509.91 L598.63 510.89 L598.39 511.86 L598.07 512.82 L597.56 513.75 L596.84 514.64 L595.88 515.47 L594.39 516.20 L592.08 516.76 L590.04 517.32 L589.88 518.22 L590.13 519.21 L587.00 519.46 L585.71 520.07 L586.26 521.11 L582.61 521.09 L579.07 521.03 L577.28 521.39 L575.51 521.71 L574.19 522.14 L574.86 523.16 L572.43 523.20 L571.68 523.75 L572.82 524.94 L573.18 525.89 L571.54 526.11 L570.36 526.48 L573.56 528.53 L575.19 530.03 L580.24 532.98 L578.65 533.25 L583.31 536.21 L591.67 540.94 L586.55 539.69 L584.04 539.56 L586.32 541.70 L583.51 541.37 L580.67 540.98 L579.43 541.35 L578.20 541.71 L574.45 540.67 L573.45 541.09 L571.08 540.70 L569.62 540.79 L571.21 542.68 L568.96 542.28 L567.98 542.62 L568.90 544.16 L569.01 545.21 L567.55 545.23 L566.71 545.64 L568.08 547.58 L564.84 546.29 L563.64 546.40 L562.38 546.45 L565.75 549.98 L570.44 554.67 L569.82 555.32 L574.59 560.32 L580.20 566.19 L576.09 564.09 L573.32 563.02 L573.40 564.38 L570.10 562.73 L566.96 561.14 L565.09 560.63 L563.28 560.14 L561.83 559.96 L561.96 561.29 L559.79 560.34 L558.63 560.37 L559.18 562.17 L558.95 563.17 L557.38 562.74 L556.05 562.53 L557.81 565.80 L558.54 568.00 L561.68 573.11 L560.10 572.70 L562.52 577.19 L567.94 585.62 L563.91 582.21 L561.58 580.87 L562.60 583.94 L560.11 582.31 L557.78 580.80 L556.44 580.61 L555.05 580.33 L552.21 577.84 L551.05 577.78 L548.89 576.13 L547.51 575.65 L548.01 578.16 L546.07 576.71 L544.87 576.43 L545.06 578.55 L544.50 579.41 L543.20 578.94 L542.26 579.08 L542.39 581.27 L540.14 578.86 L538.80 578.16 L537.63 577.75 L538.50 581.60 L540.85 588.87 L539.74 588.80 L540.76 593.57 L541.92 598.94 L539.73 596.44 L537.76 594.33 L536.75 594.53 L535.28 593.52 L533.48 591.49 L532.35 591.22 L530.55 588.97 L529.36 588.37 L529.17 590.81 L527.61 589.01 L526.54 588.69 L526.08 590.44 L525.13 590.54 L523.94 589.69 L522.92 589.45 L522.54 591.77 L521.96 593.47 L522.10 598.44 L520.90 597.68 L520.86 602.48 L521.54 611.51 L519.90 608.85 L518.58 607.72 L517.91 610.44 L516.32 607.40 L514.87 604.89 L513.81 604.99 L512.57 603.57 L511.26 601.25 L510.20 600.90 L508.94 598.16 L507.89 597.42 L507.08 599.78 L505.95 597.72 L504.94 597.22 L504.03 598.79 L503.04 598.84 L502.04 597.93 L501.06 597.97 L500.08 599.22 L499.11 596.88 L498.16 595.93 L497.23 594.75 L496.13 598.58 L494.77 606.21 L493.73 605.70 L492.35 610.31 L490.80 615.96 L489.94 612.52 L489.07 609.80 L487.98 609.64 L487.08 607.88 L486.33 605.22 L485.32 604.75 L484.72 601.63 L483.84 600.62 L482.46 602.68 L481.81 600.40 L480.93 599.58 L479.68 600.65 L478.64 600.61 L477.90 599.20 L477.01 598.55 L475.52 600.36 L474.15 601.58 L471.87 606.07 L471.12 604.68 L468.78 608.90 L465.09 617.32 L464.78 614.16 L464.07 612.47 L462.09 614.71 L462.03 611.13 L461.79 608.30 L460.72 607.86 L460.23 605.91 L460.15 602.98 L459.23 602.32 L459.35 599.12 L458.69 597.93 L456.83 599.54 L456.71 597.15 L455.95 596.25 L454.51 596.84 L453.38 596.70 L453.07 594.91 L452.43 593.83 L450.75 594.78 L449.42 595.02 L447.07 597.07 L447.38 594.26 L445.57 595.24 L443.59 596.45 L443.22 594.89 L442.57 593.84 L440.98 594.31 L439.14 595.12 L437.30 595.87 L434.94 597.34 L434.15 596.42 L432.79 596.33 L431.83 595.65 L431.61 593.96 L430.51 593.49 L429.63 592.72 L428.33 592.50 L427.60 591.53 L425.92 591.76 L425.15 590.84 L423.92 590.47 L421.69 591.25 L420.18 591.15 L419.53 590.06 L418.82 589.05 L417.36 588.85 L417.74 586.69 L417.11 585.62 L415.77 585.28 L415.31 584.04 L413.68 583.97 L413.22 582.74 L412.14 582.11 L410.57 581.92 L409.58 581.18 L409.09 579.99 L407.27 579.96 L405.84 579.56 L405.13 578.55 L404.11 577.80 L401.69 578.14 L402.00 576.31 L400.61 575.80 L399.40 575.15 L399.22 573.72 L398.45 572.74 L396.42 572.64 L396.83 570.83 L397.05 569.17 L395.21 568.89 L394.04 568.16 L393.59 566.95 L392.23 566.31 L392.19 564.86 L390.55 564.37 L391.63 562.28 L390.20 561.64 L388.51 561.14 L388.52 559.69 L387.93 558.57 L386.94 557.66 L386.49 556.46 L385.60 555.49 L384.34 554.68 L383.82 553.51 L382.60 552.65 L381.12 551.89 L381.98 550.12 L380.75 549.24 L379.76 548.25 L379.36 547.01 L378.45 545.97 L378.86 544.44 L377.74 543.47 L376.45 542.54 L375.81 541.38 L375.51 540.10 L375.00 538.89 L373.97 537.83 L375.76 535.94 L374.00 535.09 L372.96 534.01 L373.09 532.62 L372.19 531.49 L371.59 530.28 L371.63 528.92 L371.33 527.64 L371.04 526.36 L368.67 525.47 L369.44 523.97 L368.96 522.71 L368.50 521.44 L369.38 519.95 L369.35 518.62 L367.44 517.55 L367.22 516.23 L366.61 514.95 L365.40 513.72 L364.37 512.46 L364.32 511.10 L365.02 509.68 L366.90 508.21 L366.50 506.89 L367.25 505.52 L366.64 504.21 L365.52 502.90 L365.98 501.55 L365.86 500.21 L365.28 498.87 L366.81 497.55 L366.43 496.20 L366.07 494.85 L365.76 493.50 L366.14 492.17 L365.14 490.76 L366.25 489.49 L365.49 488.08 L363.53 486.53 L362.36 485.02 L362.71 483.67 L363.35 482.36 L363.56 480.99 L364.06 479.68 L364.78 478.40 L365.30 477.10 L365.23 475.70 L363.96 474.06 L365.46 472.95 L364.39 471.32 L363.87 469.79 L365.30 468.69 L365.22 467.24 L364.66 465.67 L365.55 464.46 L365.13 462.91 L365.01 461.42 L364.57 459.82 L365.36 458.59 L364.77 456.92 L365.56 455.68 L365.54 454.18 L365.68 452.73 L364.92 450.94 L365.88 449.76 L367.93 449.02 L367.96 447.51 L368.34 446.12 L369.28 444.98 L368.97 443.30 L370.88 442.58 L369.88 440.57 L371.63 439.81 L371.72 438.28 L371.49 436.58 L372.34 435.41 L373.87 434.59 L373.59 432.83 L374.36 431.62 L375.47 430.60 L374.84 428.60 L375.33 427.22 L376.67 426.34 L375.77 424.11 L377.61 423.54 L377.72 421.90 L376.61 419.44 L377.50 418.26 L378.87 417.42 L379.32 415.94 L381.04 415.36 L381.94 414.21 L381.74 412.24 L382.97 411.32 L383.97 410.25 L383.80 408.24 L385.79 407.94 L386.46 406.60 L387.01 405.13 L387.99 404.03 L389.23 403.16 L389.03 401.01 L389.59 399.51 L390.99 398.77 L391.08 396.80 L391.22 394.86 L393.27 394.75 L393.30 392.66 L394.68 391.90 L396.54 391.66 L397.35 390.34 L397.92 388.74 L400.76 389.64 L402.79 389.69 L404.98 389.98 L406.80 389.88 L407.39 388.34 L410.08 389.35 L411.45 388.78 L410.48 385.22 L412.59 385.58 L414.21 385.35 L413.86 382.45 L415.93 382.84 L417.10 381.99 L416.68 378.84 L419.62 380.57 L420.72 379.62 L420.06 375.94 L423.05 377.92 L424.24 377.09 L423.66 373.33 L426.24 374.80 L427.28 373.69 L427.19 370.57 L429.37 371.44 L430.57 370.58 L430.84 367.93 L433.39 369.65 L434.74 369.06 L434.51 365.26 L437.12 367.26 L438.77 367.33 L438.87 363.99 L440.74 364.55 L442.32 364.48 L442.95 362.15 L444.66 362.41 L445.94 361.61 L446.28 358.31 L448.94 361.16 L450.22 360.34 L450.40 356.31 L452.91 359.02 L454.23 358.27 L454.54 354.28 L456.86 356.70 L458.06 355.44 L458.78 352.43 L460.83 354.16 L462.28 353.72 L463.24 351.33 L465.36 353.64 L466.90 353.61 L467.57 349.63 L469.64 352.05 L471.19 352.10 L472.10 348.75 L473.90 350.11 L475.47 350.26 L476.63 347.81 L478.33 348.86 L479.81 348.36 L480.98 345.35 L482.92 348.64 L484.42 348.36 L485.60 344.58 L487.44 347.96 L488.92 347.27 L490.24 343.71 L491.95 346.53 L493.45 345.60 L494.90 342.60 L496.52 344.73 L498.07 344.26 L499.62 341.92 L501.18 344.79 L502.73 345.04 L504.39 341.17 L505.86 344.28 L507.38 345.11 L509.10 342.15 L510.59 343.65 L512.11 344.31 L513.85 342.34 L515.30 343.72 L516.89 343.65 L518.81 340.80 L519.92 344.74 L521.51 344.65 L523.66 340.85 L524.70 344.58 L526.32 344.44 L528.54 341.00 L529.55 344.34 L531.22 344.08 L533.39 341.48 L534.50 343.98 L536.16 343.88 L538.33 341.73 L539.24 344.77 L540.73 345.41 L543.28 342.14 L544.05 345.43 L545.52 346.13 L548.08 343.25 L549.13 345.36 L550.44 346.58 L552.83 344.57 L553.78 346.81 L555.38 347.15 L557.98 344.85 L558.33 348.55 L559.88 349.03 L562.86 346.02 L562.99 350.02 L564.34 350.99 L567.30 348.32 L567.59 351.68 L569.46 351.55 L572.23 349.56 L572.88 352.01 L574.53 352.40 L577.20 350.83 L577.41 354.04 L578.38 355.70 L581.94 352.69 L581.73 356.45 L582.49 358.44 L585.69 356.27 L586.49 358.17 L587.72 359.35 L590.17 358.57 L591.04 360.32 L592.57 361.02 L595.78 359.28 L595.19 363.11 L596.65 363.93 L600.29 361.76 L599.46 365.75 L600.72 366.86 L604.44 364.77 L603.68 368.48 L605.71 368.64 L608.93 367.38 L608.82 370.18 L610.03 371.36 L613.08 370.45 L612.57 373.60 L613.21 375.42 L617.35 373.43 L616.40 376.95 L616.67 379.11 L620.26 377.85 L620.44 380.09 L621.33 381.60 L624.01 381.38 L624.37 383.40 L625.68 384.50 L629.55 383.32 L628.00 387.01 L629.06 388.35 L633.44 386.88 L631.72 390.58 L632.44 392.20 L636.64 391.03 L635.34 394.27 L637.25 394.97 L640.65 394.58 L640.12 397.15 L641.25 398.48 L644.59 398.26 L643.23 401.34 L643.62 403.17 L648.00 402.36 L646.21 405.62 L646.04 407.79 L650.14 407.29 L649.88 409.51 L650.51 411.17 L652.83 411.85 L652.69 413.95 L653.58 415.46 L657.67 415.25 L655.28 418.53 L656.08 420.09 L660.53 419.83 L658.09 423.01 L658.35 424.83 L662.75 424.73 L660.34 427.78 L661.91 429.01 L664.56 429.80 L662.21 432.72 L662.34 434.56 L666.24 434.91 L666.03 436.90 L668.60 437.85 L677.73 436.49 L679.24 437.97 L679.78 439.79 L680.82 441.44 L682.73 442.84 L678.49 446.12 L676.62 448.60 L679.36 449.74 L681.01 451.23 L683.54 452.51 L682.11 454.82 L686.04 455.81 L691.04 456.64 L684.31 460.10 L683.81 462.13 L685.06 463.80 L679.79 466.69 L678.67 468.74 L677.46 470.78 L674.91 473.00 L674.65 474.82 L679.45 475.96 L678.93 477.85 L680.96 479.43 L691.22 480.20 L690.46 482.20 L690.79 484.09 L693.97 485.78 L689.75 487.99 L689.89 489.89 L691.23 491.74 L686.85 493.80 L690.98 495.57 L694.90 497.43 L689.69 499.40 L692.42 501.31 L696.62 503.31 L690.76 505.12 L691.25 507.04 L691.82 508.99 L687.29 510.65 L685.86 512.44 L685.27 514.26 L683.31 515.95 L680.34 517.51 L678.98 519.19 L678.17 520.91 L678.93 522.81 L686.11 525.62 L685.13 527.38 L687.09 529.58 L692.42 532.40 L691.80 534.27 L688.32 535.60 L688.71 537.63 L689.46 539.75 L688.63 541.55 L691.15 544.12 L688.42 545.47 L689.25 547.68 L692.14 550.46 L687.42 551.23 L686.79 553.07 L686.72 555.07 L682.05 555.68 L680.00 557.03 L677.92 558.33 L675.62 559.53 L674.94 561.26 L677.53 564.16 L677.48 566.16 L679.19 568.85 L686.53 573.81 L683.78 574.86 L682.64 576.53 L684.52 579.50 L680.21 579.79 L678.66 581.25 L677.73 582.98 L674.34 583.53 L673.95 585.49 L673.39 587.38 L669.29 587.45 L668.03 588.94 L669.80 592.06 L666.21 592.28 L664.37 593.42 L665.96 596.53 L663.57 597.34 L662.30 598.80 L661.90 600.79 L662.45 603.39 L662.97 606.03 L667.30 611.25 L666.22 612.94 L666.86 615.83 L672.22 622.12 L667.26 621.14 L664.16 621.41 L662.99 623.09 L659.75 623.17 L656.55 623.22 L654.72 624.30 L652.69 625.21 L651.42 626.72 L652.65 630.36 L648.80 629.67 L647.40 631.07 L648.92 635.11 L645.04 634.26 L643.59 635.61 L645.40 640.09 L641.97 639.55 L640.84 641.24 L641.58 644.85 L638.34 644.40 L636.98 645.87 L638.80 650.81 L636.60 651.42 L636.43 654.31 L640.94 662.66 L638.08 662.61 L635.26 662.56 L633.87 664.20 L630.65 663.56 L627.05 662.37 L623.78 661.48 L621.33 661.62 L619.75 662.87 L620.07 666.77 L616.24 664.91 L614.70 666.23 L615.16 670.53 L611.46 668.65 L609.71 669.67 L610.59 674.85 L607.07 673.08 L605.61 674.61 L605.37 678.20 L601.97 676.47 L600.21 677.49 L600.59 682.40 L598.01 681.99 L597.23 684.97 L599.78 694.51 L597.15 694.14 L594.94 694.56 L594.12 697.88 L591.71 697.89 L589.24 697.71 L587.34 698.77 L584.84 698.45 L582.88 699.37 L581.02 700.53 L577.21 696.73 L574.71 696.10 L572.76 696.89 L569.56 694.19 L567.59 694.79 L567.07 699.71 L564.09 697.38 L562.21 698.30 L561.10 701.81 L558.24 699.54 L556.35 700.49 L555.66 705.93 L553.26 705.16 L551.79 708.04 L552.06 718.44 L549.52 717.39 L547.10 716.75 L545.32 719.06 L543.05 719.12 L540.69 718.64 L538.49 718.99 L536.28 719.25 L534.24 720.59 L532.20 722.08 L529.36 717.84 L527.33 719.28 L525.63 723.90 L522.98 720.19 L520.77 720.35 L518.81 723.39 L516.20 718.58 L513.88 716.72 L511.67 715.93 L509.36 712.75 L507.22 712.37 L505.17 715.66 L502.97 712.53 L500.85 712.58 L498.69 717.70 L496.50 718.31 L494.33 717.80 L492.07 720.11 L489.82 721.12 L487.54 722.28 L485.27 722.79 L483.19 720.72 L481.20 718.03 L479.17 716.31 L477.32 713.09 L475.31 711.87 L472.95 713.53 L470.89 712.69 L468.79 712.23 L466.32 714.13 L464.37 712.64 L462.34 711.72 L460.26 711.18 L458.27 710.17 L456.26 709.28 L453.46 712.09 L451.41 711.32 L448.52 714.06 L444.53 720.89 L441.88 722.05 L439.88 720.65 L436.84 722.99 L435.35 719.84 L433.84 716.94 L431.43 717.03 L429.69 715.02 L428.49 711.53 L426.73 709.78 L425.75 705.95 L424.02 704.33 L421.25 705.45 L419.47 703.99 L417.46 703.10 L414.60 704.24 L412.97 702.45 L410.91 701.65 L408.88 700.78 L407.02 699.56 L405.52 697.60 L403.97 695.78 L402.87 693.10 L400.25 693.47 L394.30 700.09 L392.54 698.58 L389.20 699.94 L383.64 705.11 L383.23 701.13 L382.29 698.15 L379.63 698.10 L378.80 695.04 L378.43 691.33 L376.84 689.62 L376.69 685.77 L375.49 683.56 L372.38 684.16 L371.07 682.13 L369.32 680.74 L366.22 681.19 L365.18 678.82 L363.74 677.02 L362.36 675.16 L360.71 673.66 L359.06 672.15 L355.65 672.77 L354.23 670.97 L349.98 672.43 L343.42 676.38 L341.01 675.52 L338.73 674.50 L334.95 675.05 L335.07 671.45 L334.93 668.19 L332.74 667.05 L332.05 664.42 L332.63 660.61 L331.75 658.25 L332.72 654.22 L331.97 651.83 L328.70 651.70 L328.06 649.23 L326.37 647.67 L323.19 647.35 L322.81 644.69 L321.06 643.16 L319.58 641.41 L318.44 639.40 L318.00 636.86 L317.34 634.52 L317.59 631.55 L315.23 630.46 L306.86 633.49 L305.83 631.36 L302.28 630.89 L294.92 632.83 L296.25 629.10 L296.75 625.96 L294.37 624.60 L294.87 621.51 L296.07 618.06 L295.50 615.67 L297.17 612.07 L297.14 609.45 L293.91 608.55 L293.92 605.92 L292.61 603.99 L289.52 602.92 L290.03 600.08 L289.23 597.89 L288.45 595.69 L288.07 593.32 L287.83 590.90 L283.55 590.19 L282.64 588.02 L278.97 586.95 L270.99 587.45 L268.29 585.84 L268.16 583.26 L264.48 581.93 L266.33 578.68 L267.64 575.66 L266.19 573.55 L266.73 570.83 L268.79 567.68 L269.23 565.06 L271.80 561.87 L272.20 559.33 L269.44 557.59 L270.09 554.99 L269.33 552.74 L266.38 550.96 L267.39 548.31 L266.31 546.10 L266.07 543.72 L266.05 541.31 L266.72 538.79 L267.38 536.29 L268.64 533.73 L267.27 531.56 L258.20 530.33 L258.20 527.88 L255.23 525.74 L247.86 523.97 L250.80 521.18 L252.63 518.53 L251.29 516.13 L253.11 513.54 L255.79 510.94 L256.66 508.47 L259.75 505.95 L260.67 503.54 L258.59 501.15 L259.60 498.74 L259.51 496.34 L257.08 493.87 L258.79 491.50 L258.76 489.08 L259.23 486.69 L259.58 484.30 L259.76 481.89 L257.24 479.26 L257.50 476.84 L254.71 474.09 L247.44 470.77 L246.90 468.14 L247.13 465.60 L244.70 462.66 L247.61 460.51 L250.17 458.34 L250.21 455.78 L251.81 453.50 L255.01 451.56 L256.98 449.42 L260.76 447.70 L262.19 445.52 L260.80 442.67 L262.63 440.60 L263.29 438.24 L261.50 435.22 L263.87 433.32 L264.19 430.86 L265.83 428.79 L266.46 426.42 L264.28 423.13 L257.02 418.07 L259.58 416.24 L257.91 412.94 L245.68 405.66 L249.40 404.18 L251.66 402.18 L250.36 398.78 L250.64 395.97 L251.97 393.61 L255.48 392.20 L256.45 389.71 L256.63 386.84 L257.59 384.33 L262.33 383.66 L262.73 380.90 L260.34 376.68 L265.64 376.43 L266.40 373.83 L261.89 368.30 L265.18 367.04 L266.12 364.46 L263.68 359.88 L266.99 358.67 L271.36 358.17 L276.02 357.94 L280.67 357.80 L282.93 356.16 L281.56 352.08 L285.23 351.41 L286.59 349.18 L286.35 345.78 L290.48 345.55 L294.71 345.48 L297.29 344.22 L301.64 344.38 L302.33 341.71 L300.91 337.28 L305.93 338.11 L307.52 336.15 L304.97 330.59 L310.65 332.17 L313.31 331.17 L311.42 326.00 L315.31 326.13 L317.47 324.69 L317.16 320.85 L319.88 319.94 L322.34 318.82 L321.90 314.70 L323.99 313.16 L325.27 310.77 L320.85 302.05 L323.73 301.27 L327.13 301.14 L328.37 298.52 L331.55 298.21 L335.87 299.34 L340.18 300.56 L342.50 299.38 L343.89 297.01 L343.79 292.61 L348.28 294.33 L350.18 292.60 L348.54 285.85 L353.77 288.80 L356.59 288.37 L356.15 283.08 L360.21 284.55 L362.48 283.35 L363.62 280.31 L366.52 280.11 L368.16 277.84 L369.05 274.21 L371.49 273.24 L372.81 270.24 L370.82 261.02 L374.55 262.27 L377.67 262.47 L378.55 258.27 L382.62 260.42 L385.90 261.10 L388.92 261.31 L392.75 263.38 L394.54 261.01 L395.28 256.12 L399.50 259.34 L401.92 258.35 L402.14 251.80 L406.61 256.02 L409.52 256.34 L410.47 251.33 L414.20 253.98 L416.54 252.77 L418.01 248.86 L421.27 250.43 L424.01 250.43 L426.72 250.42 L429.57 250.92 L431.79 249.23 L432.33 241.03 L434.80 239.86 L437.00 237.53 L438.40 231.57 L441.09 230.99 L444.22 232.51 L447.41 234.51 L450.18 234.65 L452.87 234.33 L455.58 234.18 L458.72 236.78 L461.43 236.91 L463.43 231.94 L466.56 235.10 L469.42 236.55 L471.72 233.09 L474.59 234.98 L477.26 234.94 L479.91 234.70 L482.56 234.46 L485.09 231.94 L487.64 229.01 L490.38 229.64 L493.02 227.16 L495.62 219.05 L498.45 221.41 L501.23 221.56 L504.08 217.28 L506.82 220.93 L509.61 221.06 L512.40 221.04 L514.93 225.94 L517.66 226.22 L520.50 225.05 L522.83 230.20 L525.47 231.09 L528.66 226.51 L530.99 230.37 L533.45 232.52 L536.48 230.30 L538.80 233.23 L541.55 233.07 L544.20 233.59 L546.84 234.17 L549.73 233.44 L552.11 235.35 L554.39 237.64 L557.34 236.68 L561.66 229.90 L564.37 230.45 L567.34 230.00 L571.44 225.30 L574.22 225.87 L576.54 228.12 L578.51 231.47 L581.07 232.65 L583.45 234.40 L586.16 235.08 L587.72 239.17 L590.00 240.98 L594.20 237.39 L595.54 241.83 L597.63 244.07 L601.28 242.27 L603.04 245.31 L605.53 246.46 L608.26 247.06 L610.52 248.75 L613.97 247.80 L617.80 246.12 L619.99 248.02 L623.45 247.29 L629.92 240.66 L631.59 243.75 L634.04 245.29 L638.66 242.78 L639.66 247.03 L642.04 248.68 L644.52 250.15 L644.59 255.71 L646.85 257.46 L649.96 257.83 L649.77 263.44 L651.49 265.94 L656.65 263.19 L656.94 267.83 L658.11 271.06 L661.94 270.46 L662.88 273.97 L665.14 275.60 L667.31 277.34 L669.96 278.47 L673.45 278.54 L678.09 277.25 L679.59 279.92 L682.57 280.77 L686.15 280.97 L686.34 285.14 L687.80 287.78 L689.84 289.75 L690.56 293.15 L691.73 296.01 L696.29 295.30 L695.91 299.75 L697.40 302.22 L702.84 300.79 L702.65 304.92 L704.32 307.21 L709.69 306.07 L708.53 310.98 L709.35 314.01 L715.48 312.39 L714.90 316.64 L715.55 319.78 L721.40 318.62 L721.05 322.57 L722.42 325.10 L728.19 324.23 L728.84 327.35 L730.71 329.52 L737.19 328.37 L735.48 333.18 L735.91 336.39 L740.67 336.63 L739.54 340.87 L739.88 344.08 L743.79 344.98 L742.09 349.44 L743.60 351.86 L749.09 351.91 L748.41 355.66 L749.66 358.26 L754.13 359.06 L752.33 363.34 L753.15 366.15 L757.41 367.18 L756.03 371.11 L757.39 373.64 L761.31 374.94 L759.85 378.82 L762.45 380.79 L768.75 381.15 L769.66 383.96 L771.95 386.18 L777.31 387.18 L775.28 391.21 L774.08 394.84 L775.81 397.33 L774.19 401.04 L772.91 404.58 L777.53 406.06 L774.78 410.05 L774.46 413.18 L780.34 414.39 L778.42 418.01 L778.77 420.93 L784.81 422.29 L780.95 426.35 L780.53 429.45 L786.42 431.01 L783.89 434.61 L783.09 437.77 L788.49 439.60 L786.35 443.04 L786.48 445.98 L791.49 448.05 L791.21 451.10 L791.76 454.00 L798.50 455.99 L794.86 459.54 L793.60 462.70 L797.83 465.18 L795.00 468.50 L793.15 471.66 L796.00 474.37 L793.08 477.57 L792.69 480.55 L796.72 483.26 L795.26 486.30 L795.02 489.27 L798.53 492.13 L795.12 495.17 L794.73 498.12 L798.49 501.08 L795.36 504.03 L794.90 506.97 L798.04 510.03 L795.13 512.88 L795.97 515.89 L801.91 519.24 L802.36 522.30 L803.47 525.44 L809.46 529.06 L806.44 531.87 L804.52 534.75 L804.14 537.79 L802.28 540.64 L801.96 543.67 L805.46 547.30 L801.82 549.83 L802.18 553.00 L804.62 556.57 L801.04 559.03 L800.82 562.12 L803.76 565.90 L799.01 568.00 L797.91 570.90 L800.94 574.80 L797.02 576.99 L796.51 580.03 L800.31 584.29 L800.02 587.45 L799.57 590.58 L800.41 594.12 L799.62 597.18 L796.97 599.61 L796.83 602.88 L793.47 605.01 L790.96 607.41 L793.88 611.83 L790.26 613.79 L788.79 616.56 L791.17 620.92 L786.64 622.42 L785.46 625.30 L787.85 629.80 L785.48 632.18 L784.29 635.10 L784.82 638.86 L783.03 641.51 L780.60 643.82 L780.38 647.26 L778.30 649.74 L776.97 652.62 L777.21 656.38 L774.90 658.73 L774.79 662.35 L775.59 666.56 L772.65 668.53 L770.44 670.92 L770.56 674.81 L767.43 676.60 L762.76 677.32 L762.47 680.97 L759.31 682.64 L756.34 684.41 L757.76 689.38 L753.87 690.45 L750.91 692.19 L752.94 697.78 L749.37 699.04 L745.56 700.05 L747.19 705.53 L743.55 706.66 L739.83 707.66 L740.26 712.27 L737.01 713.66 L734.01 715.23 L735.02 720.54 L733.29 723.35 L730.51 725.15 L729.83 729.01 L727.81 731.59 L723.79 732.10 L722.27 735.19 L719.37 736.82 L715.21 737.04 L714.99 741.61 L711.62 742.67 L708.19 743.61 L707.82 748.16 L704.15 748.79 L700.96 749.95 L701.06 755.26 L698.90 757.78 L695.77 759.05 L694.63 762.96 L691.92 764.80 L688.46 765.56 L686.10 767.89 L683.51 769.88 L680.45 771.17 L678.25 773.75 L675.01 774.74 L671.85 775.83 L668.44 776.49 L664.29 775.84 L662.50 779.14 L661.44 783.82 L658.21 784.73 L655.67 786.88 L652.58 788.03 L648.64 787.50 L644.99 787.44 L640.10 784.80 L636.98 785.63 L634.38 787.55 L632.13 790.27 L628.25 789.39 L625.72 791.52 L624.61 797.06 L620.13 794.62 L616.71 794.63 L615.26 799.68 L611.42 798.59 L608.34 799.43 L606.06 802.54 L602.41 801.79 L599.69 803.69 L596.84 805.30 L593.76 806.17 L591.44 809.62 L590.42 817.83 L587.07 818.09 L583.71 818.31 L581.28 822.11 L577.35 820.02 L573.74 819.01 L570.07 817.57 L566.23 815.12 L563.16 816.16 L560.48 819.36 L556.63 816.28 L553.57 817.46 L551.16 822.85 L547.31 819.18 L543.96 818.48 L541.23 822.45 L537.75 820.73 L534.48 820.51 L531.56 823.82 L528.20 822.64 L524.94 822.55 L521.77 823.56 L518.53 823.77 L515.37 825.64 L512.40 833.37 L509.06 833.59 L505.71 832.57 L502.39 834.09 L499.06 832.89 L495.75 831.12 L492.54 826.48 L489.31 825.49 L486.01 826.46 L482.67 827.73 L479.58 824.55 L476.30 824.84 L472.64 829.56 L469.72 825.21 L466.57 823.95 L462.88 827.60 L459.86 825.15 L456.65 824.46 L452.98 826.96 L450.00 824.61 L446.65 824.72 L443.36 824.43 L440.47 821.97 L436.67 824.33 L432.07 830.28 L429.05 828.31 L425.85 827.24 L421.79 829.82 L419.10 826.56 L416.30 823.95 L413.51 821.46 L411.04 817.94 L407.85 817.06 L404.05 818.25 L401.96 813.78 L398.95 812.40 L394.16 816.37 L392.40 811.25 L389.64 809.20 L384.64 813.26 L382.18 810.36 L379.30 808.59 L374.29 812.17 L372.19 808.46 L369.76 805.62 L367.45 802.63 L365.30 799.35 L361.99 798.69 L356.11 803.41 L353.18 801.76 L350.07 800.48 L344.13 804.71 L341.46 802.43 L338.71 800.34 L336.95 796.45 L333.89 795.00 L331.66 792.09 L328.63 790.60 L328.35 784.52 L326.52 781.17 L321.23 783.35 L320.06 778.99 L317.84 776.33 L312.06 778.98 L310.39 775.47 L307.55 773.69 L303.34 773.83 L301.14 771.12 L297.83 769.94 L293.76 769.71 L292.62 765.64 L289.18 764.56 L281.55 768.58 L279.49 765.64 L277.51 762.64 L271.84 763.93 L269.60 761.20 L267.87 757.92 L266.33 754.46 L265.56 750.23 L264.32 746.56 L261.29 744.79 L262.43 738.80 L261.38 735.10 L255.76 735.87 L255.39 731.54 L254.09 728.16 L247.92 729.23 L247.17 725.33 L244.44 723.22 L240.31 722.29 L238.70 719.18 L236.89 716.26 L235.33 713.14 L234.98 709.09 L232.74 706.55 L225.19 708.03 L223.16 705.24 L221.03 702.53 L212.97 704.04 L212.55 700.04 L210.93 696.90 L210.71 692.85 L209.03 689.79 L207.91 686.38 L206.16 683.39 L208.11 678.14 L208.14 674.14 L202.87 673.28 L203.02 669.24 L202.44 665.65 L196.98 664.74 L196.56 661.06 L194.88 658.06 L191.82 655.76 L191.00 652.31 L189.16 649.37 L185.94 647.07 L185.80 643.32 L182.48 641.02 L174.04 640.88 L173.23 637.37 L170.47 634.67 L165.50 632.81 L165.99 628.77 L166.18 624.88 L165.45 621.35 L166.93 617.05 L166.99 613.31 L165.57 610.07 L168.67 605.39 L168.60 601.77 L164.70 599.32 L165.46 595.46 L165.21 591.92 L161.04 589.43 L162.09 585.55 L160.90 582.25 L160.23 578.83 L159.59 575.39 L157.74 572.22 L155.59 569.09 L155.76 565.48 L153.42 562.34 L145.41 560.12 L145.76 556.43 L143.62 553.12 L142.62 549.62 L143.03 545.93 L144.05 542.19 L148.90 538.05 L148.99 534.50 L147.61 531.08 L144.69 527.76 L146.42 524.07 L147.39 520.46 L140.90 517.24 L145.23 513.47 L148.15 509.84 L144.19 506.39 L145.22 502.83 L145.75 499.28 L143.34 495.71 L145.70 492.19 L145.19 488.63 L143.25 484.99 L143.43 481.43 L143.52 477.86 L133.90 473.58 L134.73 469.97 L137.46 466.54 L134.61 462.59 L137.65 459.23 L139.63 455.80 L142.47 452.52 L146.45 449.44 L146.05 445.77 L143.78 441.77 L146.28 438.54 L148.67 435.33 L142.73 430.53 L147.39 427.77 L151.10 424.89 L148.86 420.73 L151.32 417.61 L152.69 414.26 L150.84 410.09 L153.11 406.96 L153.48 403.34 L152.90 399.42 L153.00 395.68 L154.11 392.23 L148.17 386.51 L148.49 382.72 L151.45 379.82 L152.30 376.21 L154.42 373.06 L156.77 370.01 L162.42 368.27 L165.26 365.51 L165.49 361.70 L164.28 357.25 L167.46 354.66 L170.24 351.93 L165.81 345.91 L171.28 344.42 L175.29 342.33 L173.77 337.54 L176.72 334.96 L179.22 332.17 L178.40 327.62 L182.34 325.62 L183.25 321.97 L183.25 317.78 L184.97 314.55 L186.18 311.02 L180.61 303.28 L183.10 300.42 L187.09 298.54 L187.04 294.04 L191.19 292.32 L194.61 290.15 L198.41 288.30 L203.10 287.13 L204.47 283.60 L204.30 278.90 L208.40 277.39 L212.15 275.66 L209.17 268.62 L214.74 268.36 L218.86 267.00 L218.38 261.81 L222.06 260.12 L224.54 257.40 L224.19 252.16 L228.41 251.00 L231.44 248.79 L235.55 247.63 L238.88 245.77 L241.41 243.14 L239.66 236.18 L241.29 232.53 L242.74 228.66 L242.31 222.70 L244.44 219.42 L246.92 216.50 L252.58 217.19 L256.01 215.42 L258.48 212.53 L261.84 210.71 L266.42 210.42 L270.51 209.60 L271.09 204.30 L275.12 203.42 L279.62 203.24 L281.27 199.23 L285.26 198.41 L287.96 195.82 L291.64 194.63 L295.20 193.31 L296.54 188.62 L298.60 184.92 L301.42 182.38 L304.14 179.65 L302.87 170.21 L306.07 168.08 L310.34 167.79 L311.85 162.66 L315.88 161.97 L319.86 161.26 L323.49 159.94 L328.16 160.67 L331.85 159.55 L335.07 157.48 L340.04 159.12 L344.46 159.74 L346.23 154.51 L350.37 154.55 L354.74 155.23 L357.19 151.35 L361.00 150.72 L364.29 148.83 L367.88 147.66 L371.69 147.14 L374.76 144.55 L379.14 145.72 L383.19 146.05 L386.55 144.33 L388.53 138.05 L391.59 135.06 L394.94 132.94 L397.33 127.24 L400.77 125.11 L404.40 123.65 L409.14 126.72 L413.04 126.50 L416.60 124.87 L420.56 125.02 L424.81 126.68 L428.88 127.72 L431.96 123.45 L435.98 124.23 L440.15 126.17 L443.57 123.48 L447.49 124.03 L451.25 123.50 L455.18 124.38 L458.98 124.35 L462.42 120.76 L466.07 118.77 L469.82 117.65 L473.54 115.79 L476.95 108.09 L480.86 107.77 L484.85 109.41 L488.66 105.80 L492.63 107.04 L496.57 108.21 L500.49 108.82 L504.37 111.38 L508.24 112.14 L512.12 112.01 L515.87 115.35 L519.59 118.03 L523.65 114.36 L527.39 116.21 L531.01 119.15 L535.05 116.96 L538.74 118.61 L542.53 119.25 L546.37 119.43 L550.11 120.36 L554.36 117.71 L559.16 111.81 L563.80 107.76 L568.12 106.08 L573.95 96.45 L578.28 95.68 L582.10 97.55 L585.81 99.85 L589.45 102.29 L592.90 105.42 L596.21 108.97 L599.29 113.15 L602.35 117.16 L605.76 119.70 L608.95 122.89 L612.19 125.75 L616.62 124.64 L620.24 126.23 L623.44 129.06 L627.47 129.35 L631.06 130.97 L635.22 130.99 L638.26 134.05 L641.53 136.44 L646.44 134.67 L652.21 131.00 L656.66 130.75 L660.36 132.30 L668.34 124.30 L672.97 124.09 L674.72 130.07 L678.85 130.93 L682.24 133.32 L685.43 136.07 L687.71 140.54 L690.32 144.25 L693.35 147.11 L695.79 150.99 L698.47 154.35 L700.58 158.64 L704.82 159.26 L708.09 161.55 L710.60 165.01 L714.52 166.23 L717.69 168.63 L721.93 169.43 L724.34 172.96 L727.09 175.95 L730.96 177.33 L733.12 181.10 L735.09 185.07 L738.65 186.87 L746.07 183.75 L751.09 183.87 L755.17 185.26 L763.78 181.20 L766.98 183.83 L769.48 187.26 L770.59 192.25 L772.31 196.48 L774.56 200.06 L775.91 204.56 L777.87 208.37 L778.83 213.16 L782.75 214.89 L785.47 217.85 L787.04 221.91 L790.61 224.03 L793.08 227.21 L796.99 229.06 L798.12 233.44 L800.25 236.90 L805.36 237.77 L812.00 237.44 L816.35 239.14 L818.71 242.50 L829.46 239.22 L833.98 241.03 L832.81 247.23 L835.92 250.12 L838.09 253.72 L839.70 257.71 L839.52 262.93 L840.29 267.42 L841.63 271.48 L841.78 276.29 L842.89 280.43 L842.72 285.34 L846.04 288.05 L848.00 291.61 L848.46 296.04 L851.43 298.99 L852.90 302.81 L856.32 305.55 L856.27 310.17 L857.22 314.23 L860.29 317.19 L863.79 319.96 L867.28 322.78 L870.28 325.88 L878.69 326.53 L882.15 329.54 L888.13 331.51 L891.34 334.75 L892.96 338.68 L895.91 342.07 L897.32 346.10 L897.69 350.51 L898.00 354.92 L897.71 359.52 L898.93 363.56 L900.82 367.37 L903.38 370.98 L905.71 374.70 L908.85 378.19 L910.96 382.02 L912.08 386.15 L913.57 390.18 L914.19 394.44 L915.78 398.45 L918.00 402.32 L917.65 406.80 L917.82 411.14 L919.08 415.24 L919.11 419.59 L919.02 423.94 L920.80 427.96 L920.43 432.34 L921.36 436.51 L921.27 440.82 L921.36 445.10 L921.81 449.33 L923.11 453.46 L924.26 457.62 L923.33 461.99 L922.87 466.29 L924.13 470.45 L923.66 474.74 L922.66 479.04 L923.88 483.22 L925.95 487.41 L926.45 491.66 L926.69 495.92 L957.99 500.00 L957.99 495.42 L956.44 490.87 L955.88 486.32 L954.40 481.81 L953.22 477.32 L953.78 472.74 L952.50 468.27 L950.75 463.86 L950.47 459.35 L950.07 454.84 L949.66 450.34 L948.94 445.87 L948.83 441.32 L948.92 436.74 L950.48 431.92 L947.54 427.78 L944.08 423.77 L946.42 418.77 L942.48 414.90 L937.65 411.28 L937.74 406.70 L939.26 401.77 L939.78 397.03 L938.31 392.74 L937.80 388.21 L936.59 383.86 L936.02 379.33 L932.96 375.50 L929.90 371.71 L931.59 366.49 L930.55 362.08 L928.45 358.02 L928.11 353.36 L927.84 348.66 L926.82 344.20 L923.46 340.61 L920.40 336.94 L917.44 333.27 L913.64 329.97 L910.16 326.59 L907.96 322.69 L907.82 317.88 L908.12 312.83 L911.02 306.50 L909.68 302.10 L909.30 297.21 L908.82 292.33 L908.86 287.14 L905.99 283.45 L901.54 280.64 L900.29 276.10 L897.81 272.23 L895.42 268.32 L891.46 265.35 L889.11 261.44 L886.57 257.64 L882.12 255.07 L879.00 251.69 L873.55 249.89 L869.76 247.03 L866.13 244.11 L860.44 242.68 L856.36 240.17 L854.07 236.38 L850.83 233.30 L844.24 232.83 L844.16 227.33 L847.85 218.71 L844.62 215.57 L843.96 210.29 L843.64 204.63 L842.93 199.22 L839.44 196.23 L834.44 194.62 L832.26 190.46 L828.89 187.41 L825.84 184.05 L821.24 182.21 L818.14 178.92 L814.87 175.80 L809.85 174.52 L806.11 171.94 L800.50 171.42 L796.15 169.61 L791.93 167.68 L786.17 167.59 L781.65 166.16 L778.84 162.70 L779.65 154.74 L776.95 151.00 L775.21 145.98 L775.23 138.55 L771.72 135.65 L767.16 134.20 L761.86 133.82 L758.56 130.69 L754.59 128.50 L749.55 127.93 L746.61 124.25 L742.54 122.26 L738.87 119.68 L734.08 118.89 L730.31 116.47 L726.51 114.12 L721.31 114.19 L717.13 112.55 L711.66 113.30 L707.03 112.61 L702.48 111.82 L696.96 113.02 L692.27 112.70 L688.45 110.67 L684.32 109.29 L678.35 111.93 L675.59 107.64 L675.19 97.80 L670.94 96.58 L667.95 92.35 L665.25 87.23 L662.10 83.06 L657.77 81.86 L652.65 82.84 L648.92 80.08 L644.54 79.11 L640.36 77.58 L635.54 78.02 L631.29 76.76 L627.35 74.49 L622.49 75.29 L617.82 75.61 L612.97 76.69 L607.93 78.71 L602.96 80.73 L598.18 82.17 L593.55 83.20 L589.07 83.72 L584.64 84.15 L580.24 84.57 L576.37 82.18 L573.59 73.34 L569.61 70.85 L566.06 65.23 L562.25 60.79 L558.19 57.67 L553.78 56.98 L549.19 57.86 L544.74 57.65 L540.22 58.22 L535.98 55.66 L531.36 57.84 L526.83 59.31 L522.58 55.82 L517.99 59.17 L513.52 61.22 L509.15 60.32 L504.73 62.09 L500.35 64.65 L496.00 64.91 L491.67 66.04 L487.38 67.85 L482.95 65.24 L478.68 67.12 L474.31 66.59 L469.53 60.47 L465.15 60.85 L460.57 59.18 L456.15 59.39 L451.57 58.28 L447.27 59.77 L443.14 62.34 L438.79 63.12 L434.74 65.89 L430.14 64.90 L426.22 68.11 L422.16 70.30 L417.31 68.21 L413.49 71.48 L409.57 74.05 L405.51 75.85 L401.44 77.54 L397.25 78.67 L394.16 84.13 L390.19 85.87 L385.85 86.26 L380.57 83.42 L376.36 84.45 L371.73 84.18 L366.04 80.66 L362.06 82.65 L357.96 84.23 L354.54 87.75 L350.66 89.88 L346.60 91.48 L342.71 93.51 L338.78 95.42 L335.31 98.43 L330.37 97.90 L327.26 101.69 L324.15 105.39 L318.75 103.96 L316.26 108.90 L313.47 113.08 L309.10 113.92 L306.11 117.55 L303.54 121.90 L299.90 124.13 L296.64 127.04 L293.71 130.51 L288.71 130.29 L285.77 133.69 L281.60 134.99 L274.11 130.90 L271.16 134.34 L266.72 135.41 L262.43 136.76 L258.54 138.75 L255.61 142.17 L252.68 145.54 L249.33 148.29 L246.81 152.16 L242.25 153.24 L240.30 157.81 L238.10 162.00 L232.66 162.00 L230.69 166.43 L228.67 170.72 L225.92 174.07 L223.14 177.38 L219.92 180.15 L219.80 186.39 L217.25 189.85 L213.69 192.18 L207.79 192.06 L204.20 194.46 L200.43 196.69 L193.92 196.24 L190.65 199.07 L188.36 202.86 L186.73 207.22 L185.43 211.85 L183.65 215.98 L178.78 217.36 L177.28 221.72 L175.83 226.07 L170.23 226.95 L169.80 232.11 L170.28 237.92 L163.23 237.77 L162.89 242.88 L161.64 247.24 L157.28 249.28 L154.61 252.59 L155.20 258.19 L153.99 262.48 L152.93 266.81 L152.75 271.70 L148.73 274.06 L147.99 278.52 L145.31 281.76 L136.88 281.55 L136.00 285.95 L134.47 289.94 L130.32 292.44 L129.44 296.79 L129.74 301.75 L125.65 304.35 L124.25 308.38 L123.83 312.88 L119.03 315.22 L120.28 320.50 L122.03 325.93 L115.15 327.40 L115.59 332.20 L115.17 336.57 L111.74 339.68 L108.93 343.08 L109.15 347.69 L112.22 353.33 L112.68 357.92 L112.68 362.29 L109.99 365.72 L111.57 370.59 L108.20 373.81 L100.62 375.76 L99.64 379.83 L98.17 383.76 L95.93 387.48 L96.20 391.89 L97.16 396.45 L93.94 399.94 L94.13 404.29 L95.14 408.79 L91.01 412.15 L92.87 416.79 L96.08 421.65 L89.46 424.62 L91.43 429.20 L92.39 433.55 L89.02 437.22 L88.01 441.27 L91.66 445.95 L92.68 450.23 L93.46 454.44 L95.74 458.79 L93.51 462.66 L95.17 466.90 L93.38 470.84 L86.30 474.49 L87.58 478.70 L88.63 482.88 L85.68 486.91 L86.25 491.06 L89.35 495.24 L86.32 499.34 L86.58 503.48 L88.22 507.58 L85.49 511.78 L89.13 515.79 L93.63 519.69 L87.98 524.09 L90.45 528.06 L92.58 532.01 L90.72 536.28 L90.83 540.40 L92.98 544.30 L98.44 547.77 L100.50 551.58 L102.68 555.35 L100.95 559.66 L100.33 563.84 L101.68 567.72 L95.48 572.94 L95.09 577.20 L97.38 580.95 L98.44 584.92 L99.81 588.82 L101.35 592.67 L102.98 596.49 L104.07 600.43 L106.95 603.89 L105.27 608.57 L107.23 612.27 L110.90 615.44 L109.82 620.02 L112.35 623.49 L116.99 626.25 L117.67 630.28 L120.74 633.48 L124.84 636.27 L126.53 639.90 L130.14 642.78 L133.38 645.76 L131.55 650.77 L131.74 655.01 L133.99 658.39 L129.43 664.78 L130.62 668.69 L133.70 671.73 L134.36 675.91 L136.71 679.27 L139.25 682.53 L140.26 686.56 L142.22 690.10 L145.32 693.03 L144.66 698.02 L147.82 700.90 L151.67 703.35 L151.41 708.20 L154.91 710.82 L159.66 712.62 L163.06 715.21 L165.86 718.16 L168.23 721.37 L172.99 722.96 L175.19 726.25 L177.82 729.23 L176.19 735.31 L177.91 739.01 L180.65 741.97 L179.80 747.69 L181.86 751.22 L185.40 753.58 L189.59 755.36 L192.25 758.38 L195.58 760.81 L197.99 764.04 L200.51 767.16 L204.70 768.78 L204.76 774.17 L208.43 776.24 L212.38 778.01 L213.31 782.70 L217.52 784.18 L222.42 784.90 L225.66 787.27 L229.62 788.84 L233.92 790.01 L238.18 791.16 L242.61 792.05 L246.08 794.00 L247.16 798.73 L251.03 800.19 L254.16 802.53 L253.53 809.57 L256.46 812.26 L259.30 815.06 L262.31 817.65 L265.62 819.85 L268.21 823.04 L271.34 825.51 L275.09 827.07 L279.17 828.11 L280.46 833.35 L284.72 834.11 L289.16 834.51 L291.15 838.82 L295.58 839.18 L300.63 838.41 L304.65 839.31 L308.71 840.07 L312.34 841.57 L316.77 841.56 L320.59 842.61 L324.42 843.63 L325.25 850.60 L328.90 852.05 L332.58 853.42 L334.06 859.57 L337.50 861.56 L341.61 862.05 L346.25 861.24 L350.61 860.98 L355.03 860.47 L357.39 865.08 L361.51 865.29 L365.69 865.23 L367.96 870.46 L372.21 870.21 L377.28 867.37 L379.53 873.03 L383.78 872.56 L388.15 871.59 L391.15 875.16 L394.96 876.03 L399.62 873.74 L403.77 873.15 L407.94 872.34 L412.36 870.29 L415.43 873.98 L419.24 874.50 L423.24 874.08 L425.83 880.76 L429.35 883.07 L433.07 884.37 L437.07 884.12 L441.00 884.15 L445.01 883.56 L448.64 885.67 L452.74 884.23 L456.81 882.66 L460.28 886.61 L464.36 884.69 L468.62 880.03 L472.03 885.65 L475.98 884.55 L479.90 883.29 L483.67 885.12 L487.52 885.23 L491.40 884.01 L495.29 879.77 L499.10 877.10 L502.85 874.86 L506.63 876.67 L510.34 874.36 L514.10 874.80 L518.16 881.13 L522.03 882.01 L525.90 882.53 L529.70 881.91 L533.48 881.19 L537.08 878.69 L541.13 880.77 L544.81 879.23 L548.32 876.56 L552.60 879.80 L556.03 876.84 L558.99 871.19 L563.65 876.19 L567.11 873.87 L570.26 870.08 L574.76 873.39 L578.41 872.24 L581.23 867.38 L584.55 865.02 L587.78 862.43 L590.65 858.60 L594.80 859.83 L598.03 857.52 L601.70 856.89 L607.19 862.35 L611.28 862.79 L615.55 863.72 L619.28 862.85 L622.63 860.82 L625.79 858.32 L629.83 858.34 L632.56 854.76 L635.14 850.90 L639.98 852.92 L642.52 849.09 L644.03 842.93 L649.34 845.86 L652.35 843.36 L655.05 840.21 L659.11 840.08 L662.42 838.29 L665.14 835.33 L666.54 829.80 L668.83 826.18 L671.06 822.56 L674.36 820.98 L677.85 819.75 L680.65 817.27 L685.24 817.89 L688.85 816.76 L691.09 813.36 L693.13 809.68 L696.21 807.73 L698.56 804.65 L701.89 803.09 L704.89 801.03 L707.99 799.11 L710.51 796.36 L712.73 793.24 L715.60 791.03 L719.01 789.53 L720.93 786.07 L724.04 784.17 L728.02 783.36 L730.44 780.58 L732.64 777.54 L736.04 775.94 L738.70 773.47 L740.66 770.21 L744.12 768.64 L745.80 765.11 L748.11 762.30 L750.51 759.58 L751.57 755.52 L753.69 752.57 L757.09 750.88 L759.22 747.96 L761.47 745.15 L765.89 744.33 L767.86 741.26 L769.55 737.94 L772.95 736.13 L773.49 731.85 L775.16 728.57 L779.31 727.35 L780.28 723.51 L782.01 720.32 L785.82 718.72 L787.67 715.61 L788.55 711.80 L791.97 709.85 L793.63 706.62 L794.18 702.63 L796.72 700.04 L796.57 695.65 L796.03 691.08 L799.52 689.12 L800.85 685.77 L801.11 681.80 L804.48 679.71 L807.76 677.51 L808.48 673.84 L810.92 671.15 L812.55 667.99 L814.52 665.02 L815.83 661.70 L816.41 658.02 L818.01 654.87 L820.23 652.01 L820.93 648.42 L821.75 644.92 L825.04 642.50 L826.31 639.19 L825.00 634.81 L828.23 632.31 L829.97 629.19 L829.39 625.18 L832.94 622.74 L833.21 619.06 L833.18 615.31 L833.55 611.72 L833.05 607.86 L833.73 604.40 L835.38 601.25 L837.05 598.08 L837.57 594.58 L841.81 592.10 L843.01 588.75 L842.06 584.86 L844.90 581.92 L844.70 578.23 L842.76 574.20 L845.66 571.22 L845.48 567.58 L843.44 563.63 L846.16 560.56 L847.24 557.17 L845.26 553.31 L848.19 550.20 L849.69 546.85 L849.03 543.21 L848.60 539.63 L846.38 535.87 L844.51 532.20 L850.58 529.23 L850.76 525.72 L851.33 522.23 L857.24 519.02 L858.00 515.47 L855.29 511.79 L857.76 508.30 L857.17 504.71 L856.18 501.13 L858.14 497.56 L856.81 494.00 L854.27 490.50 L856.69 486.86 L855.00 483.37 L853.06 479.92 L855.51 476.21 L854.37 472.73 L850.69 469.48 L851.95 465.82 L849.61 462.51 L846.70 459.31 L848.10 455.62 L846.43 452.31 L843.14 449.26 L846.95 445.14 L846.98 441.58 L845.89 438.20 L848.16 434.19 L846.83 430.84 L843.52 427.92 L845.90 423.81 L844.56 420.48 L842.02 417.45 L843.77 413.39 L841.65 410.28 L837.72 407.69 L839.65 403.50 L837.66 400.41 L834.16 397.80 L836.29 393.46 L834.44 390.35 L830.69 387.91 L830.86 384.15 L827.51 381.63 L823.67 379.34 L821.12 376.63 L817.03 374.54 L812.80 372.58 L815.53 367.78 L815.37 364.12 L814.39 360.80 L817.30 355.70 L816.31 352.32 L812.67 350.19 L813.17 346.08 L810.74 343.40 L806.15 341.85 L806.81 337.60 L803.95 335.20 L799.75 333.58 L800.76 329.07 L798.43 326.42 L796.12 323.77 L796.86 319.29 L794.46 316.69 L789.91 315.48 L789.25 311.81 L786.06 309.78 L781.67 308.61 L781.25 304.76 L778.44 302.55 L774.32 301.33 L775.82 296.00 L773.87 293.18 L771.65 290.55 L771.81 286.07 L768.97 283.91 L764.87 282.81 L765.18 278.08 L761.99 276.26 L758.49 274.74 L758.55 270.10 L754.92 268.72 L750.59 268.04 L750.36 263.56 L747.18 261.84 L743.37 260.77 L742.81 256.50 L739.88 254.58 L735.10 254.61 L733.44 251.41 L730.81 249.23 L726.96 248.41 L724.76 245.79 L720.30 245.75 L715.34 246.40 L715.08 241.51 L711.79 240.21 L708.88 238.49 L708.48 233.57 L707.42 229.39 L704.64 227.42 L701.50 225.94 L698.84 223.81 L694.11 224.61 L692.92 220.41 L688.91 220.27 L684.26 221.18 L683.58 216.08 L679.75 215.82 L674.71 217.58 L672.76 214.37 L669.55 213.25 L664.32 215.64 L661.48 213.99 L658.29 212.98 L654.08 213.88 L652.73 209.45 L649.52 208.53 L646.23 207.79 L646.07 200.67 L643.54 198.23 L640.66 196.49 L637.98 194.30 L635.36 191.92 L632.35 190.41 L629.06 189.55 L625.51 189.35 L621.70 189.89 L619.55 186.18 L615.77 186.74 L611.30 189.31 L609.54 184.30 L605.95 184.50 L601.89 186.24 L598.75 185.22 L595.28 185.28 L591.98 184.88 L587.98 186.98 L584.21 188.43 L580.96 188.12 L578.95 182.86 L575.96 181.30 L572.70 180.85 L571.05 173.06 L567.75 172.48 L564.41 172.11 L560.88 172.83 L557.45 173.13 L554.14 172.83 L550.82 172.57 L547.56 171.96 L543.86 174.60 L540.93 171.58 L537.46 172.81 L533.80 176.09 L530.93 171.90 L527.52 173.12 L523.93 177.17 L520.80 175.41 L517.52 175.67 L514.08 180.09 L510.88 179.92 L507.67 180.22 L504.43 183.14 L501.27 179.88 L498.08 180.85 L494.91 182.03 L491.56 175.63 L488.26 174.32 L484.95 173.18 L481.64 172.60 L478.29 171.57 L474.96 171.20 L471.79 172.90 L468.66 174.64 L465.64 177.16 L462.14 175.15 L459.12 177.34 L456.48 182.02 L452.66 178.12 L449.66 179.95 L447.02 183.79 L443.80 184.04 L440.84 185.62 L437.83 186.92 L435.32 190.50 L432.77 193.65 L429.94 195.34 L425.74 191.23 L422.39 190.93 L419.51 192.51 L414.48 186.12 L411.21 186.51 L408.29 188.16 L405.60 190.48 L403.16 193.48 L400.76 196.48 L396.88 194.97 L393.98 196.44 L392.23 201.06 L387.67 197.93 L385.35 200.87 L384.45 207.32 L379.47 203.42 L376.94 205.67 L375.64 210.74 L370.89 207.77 L367.80 208.69 L366.58 213.65 L364.35 216.32 L362.23 219.11 L361.01 223.66 L357.27 223.15 L355.21 225.92 L352.97 228.31 L346.87 223.66 L343.28 223.74 L339.65 223.82 L336.23 224.30 L333.76 226.42 L331.48 228.81 L328.16 229.54 L326.51 232.89 L326.00 237.88 L321.13 236.31 L319.72 239.86 L320.59 246.56 L314.99 244.12 L312.88 246.58 L312.39 251.17 L307.77 250.27 L304.91 251.73 L303.19 254.63 L303.49 259.97 L303.10 264.33 L302.34 268.18 L298.88 268.84 L298.30 272.81 L296.34 275.16 L288.56 271.22 L285.95 272.99 L283.46 274.90 L279.92 275.75 L279.00 279.28 L278.37 283.03 L274.17 283.30 L272.89 286.39 L273.32 291.03 L267.90 290.28 L267.21 293.85 L269.39 299.86 L263.23 298.63 L262.04 301.68 L263.41 306.80 L257.78 306.21 L255.98 308.74 L257.60 313.89 L256.86 317.16 L257.26 321.23 L257.96 325.45 L254.48 326.65 L252.90 329.21 L253.30 333.11 L249.39 334.09 L249.20 337.55 L251.57 342.59 L253.04 346.96 L254.17 351.04 L255.29 355.04 L250.87 355.77 L249.87 358.51 L250.41 362.10 L244.72 362.26 L244.11 365.22 L246.26 369.58 L241.64 370.46 L241.35 373.53 L243.35 377.67 L241.60 380.00 L240.10 382.44 L239.49 385.29 L240.41 388.78 L239.02 391.26 L237.91 393.86 L235.48 395.95 L236.21 399.27 L236.51 402.39 L224.38 401.02 L221.05 402.96 L220.68 405.95 L213.15 406.60 L209.53 408.62 L209.35 411.75 L209.58 414.98 L208.77 417.90 L209.84 421.33 L207.84 423.91 L207.34 426.90 L208.81 430.35 L206.85 432.97 L207.01 436.09 L210.26 439.82 L210.25 442.84 L211.70 446.11 L213.38 449.39 L212.71 452.23 L215.09 455.55 L217.36 458.79 L214.82 461.33 L214.73 464.22 L214.46 467.08 L206.82 469.17 L203.52 471.82 L203.68 474.82 L201.04 477.60 L200.85 480.59 L201.51 483.63 L202.07 486.65 L202.19 489.64 L204.16 492.67 L202.51 495.60 L202.60 498.58 L204.90 501.54 L203.47 504.51 L204.48 507.46 L208.32 510.28 L208.59 513.19 L210.34 516.01 L213.22 518.73 L212.54 521.66 L215.40 524.31 L219.00 526.84 L213.12 530.30 L211.78 533.36 L212.67 536.17 L205.57 540.06 L204.78 543.18 L207.62 545.75 L209.09 548.51 L210.52 551.25 L212.00 553.96 L212.71 556.81 L213.16 559.71 L215.74 562.14 L214.69 565.37 L215.54 568.17 L218.37 570.48 L217.54 573.70 L219.24 576.26 L223.71 578.02 L225.00 580.63 L227.77 582.79 L230.97 584.76 L231.28 587.63 L234.91 589.39 L238.62 591.06 L237.35 594.45 L239.45 596.65 L239.70 599.53 L233.15 605.11 L232.26 608.56 L233.50 611.18 L231.76 615.06 L233.24 617.60 L235.70 619.69 L237.34 622.12 L239.05 624.52 L242.17 626.21 L241.81 629.60 L243.37 632.05 L246.68 633.57 L246.64 636.84 L249.00 638.83 L253.53 639.56 L255.12 641.91 L258.06 643.46 L261.70 644.54 L262.18 647.52 L266.00 648.41 L270.33 648.91 L266.41 654.79 L266.73 657.96 L268.90 659.88 L264.15 666.68 L265.21 669.47 L268.69 670.51 L271.25 672.18 L273.83 673.81 L276.20 675.57 L278.10 677.69 L279.75 680.02 L283.17 680.87 L283.60 684.21 L285.60 686.24 L289.36 686.70 L289.87 690.03 L292.70 691.28 L297.29 690.83 L299.55 692.52 L303.04 693.00 L306.68 693.25 L308.21 695.59 L312.14 695.46 L316.19 695.12 L316.65 698.57 L318.31 700.76 L320.44 702.44 L317.24 710.25 L317.71 713.99 L320.38 715.18 L321.14 718.68 L323.67 720.03 L326.26 721.31 L329.01 722.34 L331.45 723.76 L334.70 724.08 L336.00 727.03 L338.35 728.56 L342.01 728.19 L343.26 731.29 L346.32 731.74 L350.60 730.25 L352.90 731.75 L356.18 731.67 L359.98 730.66 L361.67 733.10 L365.32 732.21 L369.42 730.42 L368.87 736.88 L370.21 740.10 L373.28 740.12 L371.86 748.82 L373.97 750.84 L377.37 750.29 L380.33 750.57 L383.35 750.66 L386.16 751.14 L388.81 751.98 L391.30 753.16 L394.54 752.54 L396.49 755.02 L399.03 756.09 L402.53 754.64 L404.37 757.52 L407.41 757.19 L411.21 754.58 L413.86 755.18 L417.14 753.78 L420.45 752.18 L422.73 753.76 L426.07 751.79 L429.49 749.34 L431.34 752.44 L434.16 751.97 L436.58 753.03 L437.10 762.03 L439.26 764.69 L442.04 764.71 L443.97 768.71 L446.73 768.88 L449.70 767.94 L452.49 767.81 L455.23 767.94 L458.19 766.56 L460.66 768.36 L463.34 768.77 L466.35 766.60 L468.78 768.90 L471.63 767.73 L474.65 764.43 L477.38 763.73 L480.16 762.00 L482.94 759.81 L485.51 760.46 L488.08 761.31 L490.69 761.48 L493.30 761.79 L495.91 762.81 L498.53 762.94 L501.18 766.45 L503.86 767.44 L506.47 764.97 L509.22 767.68 L511.83 766.02 L514.30 762.50 L516.82 760.75 L519.21 757.68 L521.40 752.86 L524.07 754.12 L526.54 753.19 L528.68 749.51 L531.63 752.91 L534.06 751.86 L535.99 747.48 L538.75 748.91 L541.28 748.80 L543.61 747.48 L546.16 747.43 L548.47 746.15 L550.68 744.45 L553.35 744.96 L555.47 743.01 L557.67 741.49 L562.25 749.60 L565.32 751.16 L567.49 749.24 L571.27 753.15 L573.65 751.91 L575.30 748.30 L578.59 750.13 L580.90 748.75 L582.42 745.07 L586.06 747.67 L588.25 746.00 L589.50 741.87 L591.74 740.50 L593.02 736.71 L593.59 731.34 L596.25 731.24 L598.47 730.06 L600.04 727.41 L602.59 727.01 L604.51 725.24 L606.00 722.59 L608.98 723.08 L610.74 721.04 L612.37 718.80 L618.55 725.28 L621.74 725.83 L623.17 723.10 L627.22 725.10 L629.13 723.23 L629.54 718.86 L633.13 719.89 L635.17 718.30 L635.49 713.99 L639.75 715.91 L641.52 713.94 L641.68 709.60 L645.58 710.78 L647.33 708.82 L647.33 704.46 L651.33 705.64 L653.15 703.80 L653.89 700.59 L654.36 697.09 L654.20 692.88 L654.13 688.89 L655.90 687.20 L656.58 684.24 L657.40 681.49 L664.53 685.92 L667.70 685.73 L668.71 683.13 L673.46 684.55 L675.13 682.63 L674.96 678.84 L678.71 679.06 L680.29 677.06 L679.83 673.12 L684.07 673.68 L685.40 671.46 L684.53 667.27 L688.40 667.38 L689.64 665.11 L688.80 661.09 L692.85 661.24 L694.41 659.27 L694.62 656.21 L695.14 653.45 L695.72 650.77 L694.93 647.08 L695.35 644.35 L694.58 640.79 L693.28 636.93 L699.37 638.27 L701.95 637.09 L703.80 635.39 L709.12 635.93 L712.21 634.94 L714.65 633.49 L715.88 631.28 L716.67 628.81 L716.61 625.86 L719.64 624.70 L720.67 622.38 L718.61 618.40 L722.24 617.51 L723.29 615.22 L720.68 611.09 L722.32 609.15 L723.16 606.80 L720.94 603.04 L722.28 600.97 L722.78 598.52 L720.30 594.80 L723.58 593.57 L724.33 591.26 L722.61 587.98 L729.67 588.12 L732.10 586.40 L733.96 584.44 L736.83 582.81 L736.23 579.96 L735.57 577.12 L734.83 574.28 L732.35 570.95 L728.95 567.42 L730.39 565.35 L731.77 563.24 L727.61 559.67 L731.42 558.20 L733.03 556.13 L730.52 553.09 L733.55 551.34 L733.98 548.98 L734.38 546.63 L734.62 544.24 L733.12 541.55 L731.61 538.89 L736.38 537.27 L738.49 535.16 L737.45 532.58 L744.50 531.06 L745.69 528.72 L745.25 526.19 L744.08 523.60 L741.20 520.88 L738.95 518.28 L738.58 515.86 L737.12 513.38 L732.81 510.80 L734.23 508.52 L735.28 506.21 L729.07 503.75 L732.96 501.48 L733.93 499.15 L728.27 496.89 L732.85 494.50 L735.36 492.08 L730.41 489.94 L732.12 487.54 L731.78 485.23 L727.75 483.20 L730.09 480.71 L728.65 478.53 L728.03 476.28 L736.81 472.98 L736.43 470.62 L736.92 468.15 L740.03 465.28 L737.46 463.23 L735.30 461.15 L733.45 459.05 L730.13 457.26 L724.39 456.00 L725.49 453.44 L723.83 451.44 L715.78 450.93 L719.65 447.73 L720.22 445.26 L717.99 443.49 L720.05 440.60 L719.88 438.29 L720.91 435.61 L716.87 434.43 L712.18 433.52 L710.19 431.83 L710.32 429.45 L708.86 427.61 L709.55 425.02 L717.25 419.80 L717.28 417.31 L715.99 415.32 L717.42 412.24 L716.00 410.29 L711.71 409.58 L712.39 406.77 L711.93 404.44 L707.59 403.88 L709.15 400.61 L707.25 398.96 L703.25 398.38 L705.13 394.86 L703.32 393.21 L699.31 392.76 L701.28 389.09 L700.33 386.99 L697.42 386.01 L697.28 383.44 L695.91 381.60 L693.23 380.56 L694.38 377.15 L691.68 376.15 L687.87 375.94 L689.57 372.07 L687.10 371.00 L683.69 370.62 L684.13 367.54 L682.88 365.64 L679.87 365.06 L680.52 361.73 L679.66 359.52 L675.80 359.68 L676.52 356.20 L674.15 355.20 L670.17 355.61 L671.26 351.71 L669.00 350.69 L665.20 351.08 L666.29 347.05 L664.84 345.31 L661.90 345.00 L661.30 342.45 L659.47 341.09 L656.59 340.81 L656.78 337.40 L654.00 337.05 L650.57 337.45 L651.19 333.47 L648.57 333.04 L645.32 333.36 L644.85 330.51 L642.87 329.40 L639.66 329.81 L639.40 326.61 L638.13 324.64 L634.24 326.02 L634.19 322.44 L631.84 321.88 L628.26 323.03 L628.24 319.28 L626.04 318.57 L622.43 319.96 L622.46 315.98 L620.59 314.80 L617.92 314.87 L616.71 312.67 L614.68 311.76 L611.95 312.03 L611.40 308.64 L608.40 309.42 L605.15 310.76 L604.86 306.76 L602.22 307.05 L599.20 308.12 L598.36 305.00 L596.29 304.26 L593.52 304.99 L592.65 301.75 L590.82 300.48 L587.55 302.44 L586.72 298.92 L584.15 299.38 L580.92 301.54 L579.94 298.19 L577.67 298.05 L574.63 300.03 L573.70 296.31 L571.54 295.92 L568.90 296.97 L567.50 294.35 L565.20 294.45 L562.58 295.64 L561.33 292.32 L558.92 292.89 L556.16 294.80 L554.88 291.31 L552.62 291.47 L549.95 293.36 L548.34 290.89 L546.10 291.09 L543.47 293.18 L541.88 290.37 L539.80 289.84 L537.14 292.58 L535.61 288.99 L533.39 289.31 L530.79 292.26 L529.13 288.94 L526.96 289.14 L524.44 292.34 L522.72 288.79 L520.58 288.86 L518.30 290.54 L516.33 288.83 L514.18 289.15 L511.97 290.84 L510.01 288.03 L507.83 289.42 L505.64 292.33 L503.62 288.97 L501.51 289.60 L499.41 292.43 L497.31 290.16 L495.21 290.47 L493.20 292.92 L491.01 290.32 L488.91 290.20 L487.00 293.36 L484.71 290.42 L482.66 291.12 L480.91 294.93 L478.54 292.02 L476.54 292.97 L474.88 296.54 L472.41 293.50 L470.34 293.79 L468.61 296.23 L466.26 294.61 L464.28 295.39 L462.64 297.95 L460.09 295.63 L458.29 297.20 L456.88 300.46 L454.14 297.62 L452.31 298.89 L450.98 302.11 L448.52 300.74 L446.67 301.78 L445.47 305.12 L442.78 303.11 L440.72 303.37 L439.77 307.24 L436.82 304.69 L435.07 305.92 L434.32 310.01 L431.29 307.49 L429.58 308.77 L428.97 312.89 L425.83 310.37 L423.99 311.25 L422.83 313.76 L420.32 313.01 L418.65 314.28 L417.56 316.78 L414.67 315.33 L413.36 317.30 L412.89 320.97 L409.64 318.92 L408.11 320.36 L407.63 323.79 L404.90 322.92 L403.21 324.02 L402.63 327.08 L399.52 325.66 L397.76 326.64 L397.58 330.23 L394.37 328.81 L392.95 330.33 L393.23 334.45 L390.04 333.19 L388.68 334.76 L388.76 338.39 L385.56 337.25 L383.98 338.45 L383.59 341.29 L380.61 340.60 L379.52 342.44 L379.32 345.41 L376.05 344.46 L374.86 346.15 L375.19 349.64 L373.43 350.60 L373.11 353.22 L373.47 356.56 L373.47 359.41 L373.44 362.18 L372.16 363.55 L370.30 364.31 L369.28 365.95 L368.16 367.48 L365.87 367.85 L366.24 370.82 L364.81 372.04 L362.47 372.40 L361.95 374.46 L361.30 376.38 L357.44 375.48 L357.23 377.79 L357.30 380.30 L354.59 380.49 L353.89 382.34 L354.06 384.87 L351.19 384.99 L351.01 387.22 L351.25 389.72 L349.61 390.82 L350.03 393.39 L350.36 395.87 L348.22 396.61 L347.54 398.37 L346.80 400.07 L342.68 399.62 L341.96 401.37 L343.32 404.38 L340.00 404.53 L340.22 406.82 L340.95 409.36 L337.35 409.46 L337.38 411.59 L338.78 414.43 L335.90 414.99 L335.43 416.82 L336.28 419.30 L333.86 420.16 L333.20 421.89 L334.11 424.33 L332.68 425.69 L334.08 428.29 L334.85 430.57 L334.35 432.30 L333.06 433.72 L334.20 436.08 L333.49 437.71 L332.01 439.07 L331.35 440.73 L330.01 442.16 L328.12 443.43 L328.32 445.39 L326.93 446.85 L326.57 448.63 L326.21 450.41 L325.94 452.21 L324.98 453.82 L327.02 456.21 L325.34 457.63 L324.11 459.19 L326.80 461.64 L325.16 463.11 L322.67 464.43 L325.67 466.84 L323.83 468.31 L322.09 469.83 L325.29 472.17 L324.90 473.90 L323.83 475.54 L324.78 477.46 L325.14 479.28 L324.02 480.93 L324.19 482.72 L322.10 484.31 L321.03 486.02 L323.99 488.02 L322.47 489.70 L321.58 491.44 L324.19 493.32 L323.59 495.07 L322.35 496.81 L326.29 498.62 L324.65 500.36 L323.48 502.12 L326.22 503.83 L324.84 505.61 L323.81 507.41 L326.53 509.03 L326.55 510.77 L329.61 512.30 L332.38 513.78 L331.99 515.51 L332.32 517.17 L333.57 518.73 L331.88 520.62 L331.54 522.37 L332.08 524.01 L332.04 525.74 L332.87 527.32 L333.37 528.95 L333.00 530.74 L334.77 532.13 L334.75 533.85 L334.32 535.67 L335.64 537.11 L336.97 538.52 L335.01 540.73 L336.59 542.08 L337.92 543.47 L336.47 545.62 L337.79 547.00 L339.88 548.14 L338.64 550.28 L340.19 551.55 L342.27 552.63 L341.99 554.48 L343.23 555.82 L345.84 556.63 L345.45 558.53 L345.87 560.14 L347.79 561.15 L346.39 563.51 L346.86 565.11 L350.10 565.51 L348.87 567.86 L349.92 569.20 L352.41 569.85 L350.74 572.47 L351.72 573.84 L353.96 574.56 L352.76 577.04 L354.05 578.23 L356.11 578.99 L354.95 581.52 L356.48 582.56 L358.98 583.01 L359.51 584.60 L361.70 585.18 L365.06 584.98 L365.49 586.61 L365.34 588.62 L368.07 588.72 L368.56 590.31 L368.68 592.18 L369.70 593.42 L370.34 594.94 L370.88 596.55 L372.26 597.52 L372.22 599.59 L374.04 600.21 L374.97 601.53 L375.69 603.02 L376.66 604.32 L378.86 604.56 L378.43 607.06 L379.17 608.58 L382.32 607.90 L382.06 610.32 L382.26 612.36 L385.39 611.59 L385.46 613.77 L386.04 615.48 L388.90 614.86 L390.56 615.43 L391.87 616.36 L393.40 617.03 L394.91 617.72 L395.40 619.56 L397.03 620.10 L396.93 622.68 L397.39 624.64 L400.36 623.53 L400.79 625.54 L401.46 627.29 L404.31 626.20 L405.46 627.30 L405.93 629.36 L409.40 627.24 L410.24 628.77 L410.40 631.31 L412.91 630.43 L413.39 632.56 L413.23 635.74 L415.42 635.28 L417.61 634.76 L419.28 635.04 L421.82 633.81 L422.50 635.75 L423.27 637.58 L425.13 637.46 L424.59 641.81 L425.84 642.88 L426.53 645.08 L428.35 645.08 L430.31 644.72 L432.05 644.81 L433.15 646.24 L434.89 646.28 L437.38 644.56 L438.11 646.88 L440.26 645.84 L442.70 643.99 L444.26 644.25 L447.09 641.11 L449.27 639.51 L450.65 640.05 L453.05 637.62 L455.73 634.15 L456.05 637.80 L458.31 635.35 L460.98 631.35 L459.73 640.71 L460.09 644.92 L461.91 643.89 L461.95 649.78 L463.13 651.46 L464.13 654.05 L465.84 653.65 L467.62 652.83 L469.27 652.57 L470.66 653.59 L472.32 653.19 L474.28 650.94 L475.50 653.01 L477.29 651.54 L479.18 649.06 L480.69 649.15 L482.66 645.33 L484.35 643.29 L485.77 643.59 L487.49 640.60 L489.22 636.57 L490.16 642.93 L491.33 647.36 L492.84 646.72 L494.03 653.84 L495.48 657.18 L497.08 655.42 L498.64 654.75 L500.19 651.55 L501.72 652.67 L503.24 652.49 L504.73 651.26 L506.23 650.89 L507.77 651.47 L509.24 650.69 L510.58 648.20 L512.19 649.74 L513.56 648.17 L514.75 645.21 L516.20 645.02 L517.16 640.84 L518.29 638.54 L519.70 638.52 L520.60 635.17 L521.30 630.96 L523.17 634.00 L523.98 630.86 L524.40 626.04 L527.51 634.87 L529.71 638.53 L530.75 636.70 L533.39 641.80 L535.15 642.89 L537.12 644.63 L538.45 643.84 L539.46 641.88 L540.84 641.37 L542.41 641.47 L543.60 640.32 L544.27 637.61 L546.11 638.56 L547.05 636.81 L547.44 633.59 L548.74 633.00 L548.62 628.69 L549.14 626.22 L550.42 625.78 L550.47 622.34 L550.13 618.15 L553.68 623.08 L556.70 626.55 L557.81 625.65 L561.94 631.14 L564.80 633.73 L565.41 631.62 L566.26 630.04 L566.04 626.46 L567.93 626.98 L569.19 626.28 L569.73 624.30 L571.02 623.69 L572.58 623.52 L573.43 622.15 L573.40 619.39 L575.50 620.10 L575.99 618.24 L575.47 614.89 L576.57 614.06 L575.31 609.79 L575.29 607.44 L576.29 606.58 L575.61 603.44 L574.29 599.52 L577.37 601.51 L576.31 598.07 L573.90 593.04 L580.70 599.54 L584.58 602.22 L584.42 599.97 L589.02 603.31 L591.32 603.87 L593.98 604.76 L594.60 603.35 L594.52 601.21 L595.51 600.24 L596.95 599.73 L597.39 598.21 L596.69 595.57 L597.76 594.71 L598.00 593.06 L597.23 590.49 L597.22 588.69 L595.32 585.23 L592.96 581.46 L595.12 581.69 L593.09 578.33 L589.94 574.16 L596.77 578.18 L602.08 580.80 L602.54 579.51 L608.54 582.44 L612.28 583.52 L612.02 581.60 L611.82 579.75 L610.02 576.82 L611.63 576.30 L612.28 575.11 L611.94 573.27 L612.51 572.04 L613.87 571.32 L614.00 569.82 L612.69 567.48 L614.71 567.14 L614.35 565.41 L612.44 562.83 L612.74 561.53 L609.83 558.52 L608.79 556.57 L609.12 555.37 L606.99 552.95 L604.10 550.23 L607.52 550.56 L605.07 548.13 L600.61 544.87 L609.41 547.50 L614.15 548.20 L612.99 546.39 L618.48 547.26 L620.85 546.81 L623.53 546.43 L623.46 545.00 L622.44 543.25 L622.54 541.91 L623.85 540.98 L623.44 539.48 L621.47 537.51 L622.00 536.35 L621.43 534.86 L619.68 533.07 L618.56 531.48 L615.54 529.45 L611.80 527.31 L613.39 526.50 L612.24 525.05 L609.08 523.20 L609.59 522.16 L609.57 521.02 L607.30 519.48 L604.89 517.96 L603.40 516.64 L602.36 515.42 L601.58 514.27 L601.00 513.16 L600.57 512.08 L600.21 511.02 L599.92 509.98 L599.68 508.95 L599.47 507.93 L599.29 506.92 L599.11 505.91 L598.94 504.91 L598.78 503.91 L598.61 502.92 L598.44 501.93 L598.26 500.94 Z"/>
  <svg class="pausebutton" id="pausebutton">
    <circle cx="500" cy="500" id="pausestart" class="pausestart" r="52.65"/>
    <rect height="50.02" width="10.00" y="473.68" rx="2.00" ry="2.00" x="479.99" class="pausesymbol"/>
    <rect height="50.02" width="10.00" y="473.68" rx="2.00" ry="2.00" x="510.00" class="pausesymbol"/>
    <polygon points="530.01,500 479.99,530.01 479.99,469.99" class="playsymbol"/>
  </svg>
  <polygon id="playback-head" class="playback-head" points="941.65,500 921.65,540 961.65,540"/>
</svg>