<?xml-stylesheet href="../../style/waveformjs.css" type="text/css"?>
<svg xmlns="http://www.w3.org/2000/svg" xmlns:xlink="http://www.w3.org/1999/xlink" width="100%" height="100%" viewBox="0 0 1000 1000">
  <path class="svg-wave" id="sp" d="M597.58 500.00 L597.80 500.98 L597.96 501.96 L598.12 502.94 L598.26 503.93 L598.39 504.92 L598.51 505.92 L598.65 506.92 L598.73 507.92 L598.85 508.92 L598.60 509.89 L598.08 510.83 L597.73 511.78 L598.68 512.90 L598.14 513.83 L598.49 514.89 L599.30 516.03 L599.30 517.05 L599.30 518.07 L599.30 519.10 L599.29 520.13 L599.27 521.16 L599.22 522.19 L599.17 523.22 L599.11 524.25 L599.05 525.29 L598.97 526.33 L598.87 527.36 L598.77 528.40 L598.65 529.44 L598.52 530.48 L598.38 531.51 L598.23 532.55 L598.07 533.59 L597.90 534.63 L597.72 535.67 L597.52 536.71 L597.33 537.75 L597.11 538.79 L596.89 539.83 L596.66 540.87 L596.41 541.90 L596.15 542.94 L595.89 543.98 L595.60 545.01 L595.30 546.04 L595.00 547.07 L594.69 548.10 L594.37 549.13 L594.03 550.15 L593.67 551.17 L593.32 552.20 L592.95 553.22 L592.57 554.24 L592.17 555.25 L591.77 556.27 L591.35 557.27 L590.94 558.29 L590.50 559.29 L590.05 560.29 L589.60 561.30 L589.14 562.30 L588.67 563.30 L588.16 564.28 L587.65 565.26 L587.13 566.24 L586.62 567.23 L586.08 568.20 L585.52 569.16 L584.97 570.13 L584.39 571.08 L583.84 572.07 L583.23 573.00 L582.62 573.94 L582.02 574.90 L581.42 575.85 L580.78 576.78 L580.12 577.69 L579.48 578.63 L578.81 579.54 L578.16 580.47 L577.46 581.37 L576.75 582.25 L576.04 583.15 L575.31 584.02 L574.62 584.94 L573.85 585.78 L573.09 586.63 L572.34 587.51 L571.60 588.40 L570.82 589.25 L570.01 590.05 L569.22 590.91 L568.42 591.74 L567.62 592.59 L566.78 593.38 L565.92 594.15 L565.08 594.96 L564.22 595.75 L563.38 596.57 L562.47 597.30 L561.58 598.05 L560.68 598.80 L559.82 599.61 L558.90 600.34 L557.94 601.00 L557.05 601.80 L556.11 602.51 L555.18 603.25 L554.20 603.91 L553.22 604.56 L552.25 605.24 L551.28 605.94 L550.31 606.65 L549.28 607.23 L548.28 607.89 L547.25 608.48 L546.29 609.23 L545.23 609.78 L544.14 610.25 L543.12 610.92 L542.07 611.50 L541.05 612.18 L539.93 612.60 L538.86 613.14 L537.80 613.76 L536.74 614.38 L535.63 614.85 L534.51 615.31 L533.39 615.77 L532.26 616.22 L531.20 616.89 L530.03 617.20 L528.86 617.51 L527.73 618.01 L526.59 618.45 L525.47 619.04 L524.26 619.19 L523.09 619.57 L521.94 620.04 L520.80 620.62 L519.59 620.79 L518.40 621.07 L517.21 621.42 L516.03 621.83 L514.84 622.23 L513.62 622.43 L512.40 622.59 L511.18 622.79 L509.97 623.10 L508.76 623.49 L507.51 623.42 L506.28 623.61 L505.06 623.89 L503.83 624.36 L502.59 624.32 L501.34 624.28 L500.10 624.56 L498.85 624.81 L497.60 625.08 L496.35 625.07 L495.10 624.92 L493.84 625.06 L492.57 625.35 L491.31 625.38 L490.07 625.15 L488.79 625.28 L487.54 625.19 L486.22 625.69 L484.99 625.32 L483.77 624.89 L482.46 625.16 L481.18 625.20 L479.90 625.21 L478.68 624.81 L477.43 624.61 L476.16 624.48 L474.81 624.80 L473.58 624.45 L472.35 624.10 L471.07 624.00 L469.86 623.58 L468.43 624.06 L467.31 623.28 L466.22 622.42 L464.89 622.46 L463.58 622.40 L462.27 622.33 L461.19 621.50 L459.92 621.25 L458.57 621.26 L457.10 621.58 L456.08 620.62 L454.85 620.25 L453.79 619.42 L452.48 619.24 L451.04 619.37 L450.09 618.31 L449.04 617.51 L447.85 617.03 L446.49 616.92 L445.12 616.81 L444.36 615.43 L443.20 614.88 L441.73 614.94 L440.26 614.98 L439.51 613.62 L438.43 612.91 L437.41 612.10 L435.90 612.16 L434.80 611.49 L433.76 610.71 L432.88 609.67 L432.00 608.65 L430.50 608.62 L429.31 608.08 L428.98 606.25 L428.02 605.39 L426.57 605.24 L425.22 604.93 L424.75 603.39 L424.24 601.92 L422.89 601.60 L421.16 601.75 L420.50 600.51 L419.73 599.42 L419.26 597.99 L418.68 596.70 L416.54 597.26 L416.46 595.40 L416.18 593.81 L415.03 593.21 L414.27 592.17 L411.35 593.42 L412.82 590.05 L412.41 588.68 L409.84 589.47 L408.64 588.87 L409.52 586.27 L408.84 585.19 L408.10 584.18 L407.05 583.45 L404.68 583.87 L405.22 581.73 L403.28 581.73 L402.17 581.01 L401.13 580.21 L397.97 581.10 L397.25 580.01 L396.56 578.90 L393.51 579.55 L392.83 578.40 L392.35 577.11 L393.16 574.93 L392.88 573.54 L390.84 573.34 L389.18 572.86 L389.21 571.26 L388.25 570.31 L386.18 570.03 L384.16 569.69 L381.88 569.46 L381.44 568.13 L379.85 567.46 L378.17 566.81 L376.30 566.24 L376.29 564.66 L376.62 562.92 L375.10 562.13 L374.22 561.01 L372.34 560.35 L373.25 558.38 L372.87 557.02 L371.56 556.07 L370.25 555.10 L369.56 553.86 L370.17 552.09 L369.89 550.70 L370.01 549.17 L367.34 548.66 L368.34 546.81 L369.80 544.83 L368.17 543.92 L367.92 542.54 L365.38 541.88 L368.11 539.59 L367.92 538.21 L366.36 537.22 L364.18 536.36 L364.69 534.78 L365.61 533.11 L364.46 531.96 L364.77 530.47 L361.70 529.71 L364.25 527.74 L366.20 525.95 L365.17 524.76 L364.85 523.42 L362.17 522.47 L365.84 520.49 L365.50 519.17 L363.34 518.09 L360.58 517.04 L363.67 515.28 L364.01 513.86 L363.78 512.51 L363.10 511.19 L362.32 509.87 L364.56 508.35 L364.41 507.00 L362.90 505.71 L361.72 504.37 L359.60 503.03 L360.57 501.62 L361.11 500.22 L360.82 498.83 L358.00 497.39 L360.74 496.04 L363.16 494.74 L359.97 493.22 L358.97 491.75 L358.10 490.28 L359.51 488.96 L359.56 487.55 L358.96 486.08 L356.72 484.41 L357.11 483.00 L359.31 481.83 L359.07 480.37 L361.82 479.34 L356.36 477.05 L361.38 476.43 L364.14 475.50 L361.44 473.58 L361.59 472.17 L358.94 470.17 L363.97 469.81 L363.23 468.20 L361.78 466.41 L358.43 464.09 L361.30 463.34 L364.23 462.66 L363.07 460.86 L365.38 460.06 L358.63 456.52 L363.15 456.40 L362.07 454.54 L353.12 449.95 L354.38 448.75 L353.28 446.71 L355.20 445.76 L356.00 444.41 L355.31 442.47 L355.66 440.94 L356.66 439.66 L358.38 438.72 L359.51 437.53 L361.84 436.90 L361.99 435.29 L365.26 435.18 L368.99 435.35 L369.19 433.82 L368.20 431.65 L366.47 429.05 L368.19 428.26 L364.25 424.35 L362.12 421.35 L362.86 419.94 L363.91 418.72 L365.27 417.69 L365.76 416.13 L366.62 414.81 L367.56 413.53 L368.24 412.08 L370.35 411.61 L370.60 409.86 L371.64 408.67 L372.37 407.26 L374.08 406.56 L374.85 405.17 L375.82 403.94 L376.51 402.48 L378.71 402.23 L380.84 401.97 L381.26 400.31 L382.10 398.99 L383.82 398.43 L385.35 397.73 L386.75 396.92 L387.11 395.17 L386.12 392.10 L386.36 390.16 L386.94 388.51 L383.75 383.05 L385.53 382.51 L386.15 380.79 L388.03 380.38 L389.41 379.46 L389.80 377.45 L391.23 376.58 L391.65 374.56 L393.18 373.80 L394.69 373.02 L395.89 371.89 L396.72 370.27 L398.39 369.72 L400.22 369.39 L400.73 367.33 L402.76 367.30 L403.14 365.01 L404.86 364.56 L406.73 364.36 L407.36 362.35 L408.68 361.35 L409.05 358.85 L411.42 359.47 L412.40 357.89 L413.56 356.58 L414.40 354.70 L416.26 354.55 L418.26 354.68 L419.67 353.78 L421.54 353.74 L422.22 351.47 L424.39 352.04 L426.62 352.78 L427.84 351.51 L428.79 349.67 L429.81 347.92 L432.24 349.24 L432.30 345.26 L433.48 343.70 L434.83 342.53 L436.74 342.71 L438.58 342.75 L439.93 341.56 L441.54 341.02 L443.19 340.62 L444.81 340.13 L446.73 340.53 L448.22 339.66 L449.71 338.79 L451.37 338.43 L453.30 339.06 L454.74 337.97 L456.43 337.77 L457.85 336.56 L459.96 338.05 L461.92 339.09 L463.31 337.73 L464.77 336.63 L466.55 336.97 L468.23 336.90 L469.70 335.74 L471.32 335.30 L472.86 334.35 L474.62 334.75 L476.38 335.22 L477.93 334.29 L479.63 334.41 L481.28 334.13 L482.99 334.48 L484.70 334.83 L486.39 335.17 L487.77 331.41 L489.53 332.34 L491.27 333.54 L492.85 331.37 L494.55 331.71 L496.25 332.48 L497.94 333.78 L499.60 332.79 L501.26 334.48 L502.88 336.31 L504.57 334.59 L506.18 335.70 L507.77 336.88 L509.47 335.89 L511.23 334.23 L512.86 334.57 L514.42 335.83 L516.17 334.83 L518.00 333.36 L520.00 330.70 L521.55 332.02 L523.40 331.01 L525.37 329.40 L527.10 329.46 L528.56 331.22 L529.63 334.96 L531.18 335.76 L532.91 335.64 L534.77 334.93 L535.63 338.88 L537.17 339.53 L539.31 337.69 L540.82 338.53 L542.92 337.08 L544.24 338.64 L546.23 337.76 L548.24 336.91 L550.31 335.96 L551.26 338.64 L552.35 340.75 L554.06 340.95 L555.68 341.40 L558.19 339.41 L559.52 340.73 L560.80 342.13 L563.47 340.00 L565.27 340.12 L567.47 339.36 L568.10 342.29 L569.97 342.31 L572.43 341.08 L574.51 340.73 L575.10 343.57 L576.10 345.48 L578.05 345.44 L580.32 344.81 L583.38 342.78 L584.12 345.14 L585.59 346.12 L586.84 347.49 L589.44 346.50 L591.06 347.27 L589.94 352.52 L592.41 351.82 L593.44 353.45 L597.58 350.28 L596.67 354.88 L597.31 357.03 L600.21 355.88 L600.77 358.13 L602.96 358.07 L602.24 361.99 L602.96 363.89 L604.72 364.40 L609.25 361.43 L612.26 360.50 L612.75 362.73 L619.14 357.87 L621.66 357.77 L623.98 357.96 L624.80 359.87 L625.36 362.05 L627.33 362.67 L629.29 363.32 L630.45 364.83 L630.72 367.23 L632.16 368.42 L632.97 370.24 L634.17 371.66 L634.30 374.08 L632.71 378.05 L633.68 379.60 L634.81 381.00 L636.48 381.93 L634.59 385.91 L635.64 387.32 L638.33 387.41 L640.44 388.00 L642.03 389.04 L643.09 390.50 L646.51 390.19 L648.33 391.12 L649.88 392.28 L647.95 395.89 L648.51 397.70 L649.41 399.27 L650.57 400.66 L653.70 400.79 L653.98 402.78 L655.13 404.21 L658.29 404.43 L661.23 404.84 L662.78 406.11 L663.44 407.89 L669.46 406.72 L671.28 407.94 L670.75 410.41 L670.03 412.95 L668.66 415.77 L668.88 417.76 L670.41 419.11 L672.95 420.01 L673.37 421.91 L676.24 422.73 L678.21 423.98 L678.84 425.82 L679.27 427.73 L677.16 430.64 L678.48 432.17 L680.20 433.57 L681.38 435.19 L680.43 437.56 L682.72 438.80 L684.21 440.34 L683.88 442.48 L683.57 444.58 L684.40 446.34 L684.38 448.34 L684.78 450.21 L684.45 452.28 L683.05 454.59 L685.45 455.95 L688.53 457.21 L686.77 459.57 L694.54 459.92 L694.39 461.97 L694.81 463.91 L695.78 465.75 L697.78 467.44 L696.83 469.61 L696.18 471.72 L696.49 473.67 L697.40 475.56 L698.61 477.42 L697.06 479.59 L696.72 481.62 L696.56 483.61 L698.65 485.44 L697.56 487.50 L696.25 489.55 L696.91 491.49 L696.12 493.49 L699.30 495.38 L696.33 497.41 L695.79 499.38 L697.17 501.34 L697.53 503.32 L698.05 505.31 L698.05 507.29 L697.18 509.24 L698.82 511.31 L699.34 513.34 L700.66 515.44 L699.97 517.40 L700.05 519.43 L702.08 521.67 L701.74 523.67 L700.08 525.51 L698.21 527.29 L697.85 529.26 L698.27 531.35 L698.25 533.38 L696.05 535.03 L694.81 536.82 L696.21 539.12 L698.74 541.70 L698.16 543.65 L699.08 545.95 L702.23 548.81 L702.67 551.06 L703.20 553.36 L701.24 555.01 L700.19 556.88 L701.16 559.33 L700.48 561.32 L700.92 563.66 L699.59 565.44 L698.69 567.35 L697.94 569.31 L698.30 571.67 L697.08 573.47 L695.17 574.98 L695.25 577.26 L694.41 579.19 L694.66 581.57 L692.55 582.96 L690.90 584.52 L690.26 586.52 L689.62 588.53 L690.12 591.09 L687.15 591.98 L685.87 593.67 L685.13 595.63 L685.86 598.38 L683.40 599.43 L681.72 600.89 L681.64 603.24 L680.24 604.84 L680.75 607.57 L678.06 608.39 L676.08 609.61 L675.42 611.65 L675.86 614.42 L674.47 616.01 L672.20 617.01 L671.09 618.77 L670.26 620.73 L670.15 623.23 L667.27 623.72 L665.46 624.96 L662.86 625.57 L663.48 628.67 L662.65 630.67 L659.71 630.96 L659.07 633.12 L658.86 635.67 L658.18 637.85 L657.62 640.16 L655.07 640.69 L654.23 642.76 L652.87 644.37 L652.99 647.41 L649.64 647.09 L646.89 647.30 L646.44 649.82 L645.87 652.26 L645.12 654.54 L642.42 654.74 L640.92 656.21 L639.45 657.72 L640.30 661.92 L637.90 662.41 L634.75 661.94 L633.89 664.23 L631.76 664.96 L633.68 670.84 L628.36 667.46 L625.47 667.12 L625.18 670.25 L624.55 673.00 L622.86 674.30 L618.97 672.43 L618.15 674.95 L615.94 675.44 L617.16 681.20 L612.51 677.88 L610.25 678.22 L610.10 682.03 L608.03 682.71 L609.36 689.26 L605.86 687.49 L605.07 690.52 L605.81 696.48 L604.20 698.21 L602.01 698.85 L599.48 698.79 L597.41 699.61 L595.59 700.97 L593.96 702.75 L591.10 701.84 L588.66 701.79 L586.69 702.79 L584.50 703.27 L582.11 703.21 L579.11 701.59 L576.76 701.49 L574.89 702.65 L573.14 704.18 L570.16 702.21 L567.94 702.31 L566.28 704.11 L564.25 704.80 L562.89 707.73 L560.51 707.30 L558.67 708.75 L557.01 710.94 L555.25 712.82 L552.30 710.09 L549.65 708.31 L547.71 709.42 L545.54 709.58 L543.90 712.23 L541.83 712.94 L539.52 712.36 L537.93 715.81 L535.92 717.11 L533.92 718.55 L531.65 718.33 L529.60 719.61 L527.80 723.09 L525.59 723.50 L523.30 723.31 L520.96 722.39 L518.73 722.46 L516.63 724.36 L514.66 728.79 L512.32 728.05 L510.12 729.97 L507.99 735.03 L505.65 735.56 L503.30 736.21 L500.94 735.34 L498.59 734.97 L496.23 735.28 L493.86 735.97 L491.50 735.95 L489.18 734.92 L486.85 734.46 L484.47 734.87 L482.04 735.80 L479.80 734.24 L477.52 733.40 L475.15 733.51 L472.76 733.72 L470.36 733.94 L468.23 732.10 L465.89 731.94 L463.50 732.02 L460.97 732.94 L458.82 731.52 L456.63 730.45 L454.23 730.50 L451.81 730.59 L449.44 730.39 L447.57 728.00 L445.45 726.81 L443.26 725.98 L441.09 725.05 L439.19 723.16 L437.87 719.33 L436.20 716.95 L433.90 716.73 L431.61 716.46 L430.40 712.87 L428.47 711.57 L425.93 712.06 L423.66 711.75 L420.83 712.89 L418.92 711.54 L416.03 712.69 L413.22 713.53 L411.08 712.68 L410.01 709.33 L408.30 707.55 L406.41 706.23 L404.39 705.21 L401.11 706.82 L399.16 705.59 L397.54 703.72 L393.99 705.62 L391.17 706.01 L388.95 705.21 L387.49 703.04 L384.43 703.72 L381.38 704.32 L379.44 702.95 L377.81 701.08 L376.59 698.59 L374.09 698.17 L371.45 697.93 L368.77 697.70 L367.86 694.81 L364.79 695.11 L360.95 696.43 L359.80 693.91 L358.99 690.97 L355.97 691.04 L353.70 690.07 L353.49 686.45 L349.25 687.95 L347.34 686.47 L346.72 683.46 L344.26 682.66 L342.23 681.33 L340.44 679.73 L339.08 677.65 L335.64 677.85 L333.12 676.98 L331.37 675.30 L326.68 676.60 L325.07 674.71 L323.09 673.19 L319.54 673.17 L317.21 671.92 L315.49 670.10 L314.11 667.97 L312.43 666.11 L310.76 664.24 L309.12 662.34 L308.38 659.70 L307.28 657.37 L306.41 654.89 L305.28 652.62 L305.02 649.70 L306.05 645.85 L306.31 642.64 L303.95 641.38 L300.67 640.74 L300.61 637.81 L297.70 636.86 L293.52 636.69 L293.21 633.94 L293.23 631.02 L292.64 628.50 L291.62 626.27 L291.30 623.62 L288.70 622.33 L286.61 620.71 L285.87 618.31 L284.63 616.20 L281.87 614.89 L279.54 613.31 L279.84 610.39 L278.49 608.31 L276.47 606.54 L277.43 603.36 L278.49 600.19 L278.63 597.48 L277.39 595.37 L277.48 592.71 L275.61 590.87 L274.41 588.74 L275.02 585.91 L274.20 583.65 L274.90 580.84 L274.45 578.46 L274.26 576.01 L273.69 573.69 L271.73 571.81 L272.36 569.12 L271.36 566.93 L270.61 564.67 L267.63 563.01 L263.24 561.66 L261.29 559.63 L256.19 558.32 L253.51 556.36 L253.19 553.84 L251.51 551.61 L250.53 549.21 L250.27 546.68 L247.47 544.59 L246.42 542.17 L246.86 539.50 L246.32 536.99 L247.98 534.17 L248.28 531.57 L249.02 528.93 L248.55 526.44 L247.24 524.03 L246.88 521.51 L245.27 519.08 L243.59 516.63 L242.92 514.10 L241.96 511.56 L241.00 509.01 L240.22 506.44 L238.50 503.86 L237.73 501.25 L237.87 498.63 L237.04 496.00 L236.40 493.35 L236.17 490.70 L236.55 488.08 L237.39 485.48 L237.11 482.83 L237.53 480.22 L238.11 477.63 L239.09 475.08 L239.11 472.45 L239.41 469.84 L239.81 467.25 L240.41 464.68 L241.43 462.18 L241.73 459.59 L242.44 457.05 L242.62 454.43 L243.65 451.97 L245.18 449.61 L245.42 447.01 L246.31 444.54 L247.26 442.09 L249.24 439.90 L249.97 437.43 L250.28 434.84 L250.34 432.19 L252.64 430.15 L254.90 428.13 L254.99 425.49 L254.34 422.60 L253.32 419.56 L254.36 417.17 L251.89 413.56 L250.33 410.21 L250.34 407.39 L251.99 405.17 L253.53 402.92 L253.79 400.17 L254.60 397.63 L255.69 395.20 L257.92 393.28 L259.48 391.08 L260.39 388.59 L261.75 386.31 L263.93 384.44 L265.95 382.52 L267.06 380.14 L268.44 377.91 L269.71 375.62 L272.96 374.42 L275.01 372.60 L275.74 370.04 L277.32 367.96 L278.74 365.79 L280.55 363.87 L282.21 361.87 L283.63 359.71 L283.92 356.81 L285.57 354.80 L286.89 352.56 L286.19 348.89 L287.67 346.73 L288.73 344.26 L290.45 342.27 L293.03 340.95 L295.03 339.20 L295.63 336.34 L297.93 334.84 L301.30 334.25 L302.38 331.78 L303.81 329.58 L303.56 325.89 L305.40 324.01 L307.38 322.27 L307.67 318.94 L308.31 315.89 L311.70 315.49 L315.82 315.88 L317.22 313.59 L319.37 312.06 L320.68 309.65 L321.53 306.72 L323.99 305.51 L324.88 302.57 L326.05 299.89 L327.22 297.17 L330.22 296.61 L332.02 294.63 L332.65 291.17 L334.91 289.71 L336.79 287.77 L339.26 286.61 L341.97 285.78 L343.48 283.32 L343.82 279.17 L345.36 276.65 L347.08 274.34 L346.89 269.13 L349.17 267.54 L350.67 264.74 L353.45 263.93 L356.39 263.42 L358.76 261.99 L361.25 260.76 L363.70 259.49 L366.84 259.46 L369.60 258.78 L372.15 257.73 L373.68 254.71 L376.52 254.23 L379.38 253.82 L381.51 251.91 L383.93 250.60 L386.34 249.24 L389.28 249.10 L391.76 247.92 L394.54 247.45 L396.43 244.83 L398.73 243.17 L401.83 243.54 L404.25 242.17 L406.80 241.14 L408.71 238.24 L411.71 238.47 L414.60 238.44 L417.04 237.02 L419.69 236.24 L422.43 235.81 L425.75 237.40 L428.69 237.83 L431.23 236.79 L433.76 235.70 L436.69 236.24 L439.59 236.76 L442.01 235.16 L444.69 234.73 L446.68 230.83 L449.66 231.84 L452.32 231.21 L454.67 228.74 L457.23 227.32 L460.19 228.47 L463.31 231.02 L465.91 229.94 L468.59 229.46 L471.18 228.06 L473.83 227.05 L476.64 227.70 L479.17 224.89 L481.91 224.52 L484.57 222.73 L487.40 223.78 L490.18 223.99 L492.89 222.19 L495.66 221.54 L498.45 221.30 L501.22 223.27 L503.99 223.41 L506.78 222.47 L509.64 219.97 L512.37 221.65 L515.18 221.40 L518.19 218.08 L520.96 218.85 L523.80 218.78 L526.35 221.77 L529.34 220.10 L531.92 222.29 L534.77 221.98 L537.97 219.21 L540.42 222.11 L542.84 224.78 L545.37 226.57 L548.64 223.98 L550.52 229.18 L552.91 231.31 L556.17 229.05 L559.03 228.96 L561.94 228.65 L565.06 227.56 L568.86 223.92 L571.75 224.11 L576.04 219.19 L579.59 217.29 L581.86 219.98 L584.81 220.32 L587.70 220.87 L591.01 220.16 L592.97 223.55 L595.34 225.64 L598.39 225.71 L601.03 226.98 L603.28 229.27 L605.01 232.78 L607.12 235.21 L609.83 236.13 L612.57 236.99 L614.28 240.22 L616.40 242.42 L619.50 242.44 L621.76 244.31 L625.90 242.28 L627.45 245.59 L630.20 246.46 L634.17 245.04 L637.32 245.28 L637.89 250.23 L639.93 252.42 L642.70 253.30 L645.23 254.63 L648.93 254.01 L651.60 255.17 L653.63 257.35 L657.61 256.49 L660.39 257.54 L663.47 258.18 L665.36 260.57 L668.43 261.27 L671.57 261.91 L675.05 262.13 L676.37 265.29 L677.27 268.95 L680.68 269.32 L683.95 269.91 L688.37 269.16 L691.21 270.41 L694.67 270.95 L700.03 269.35 L701.93 271.81 L704.61 273.39 L706.04 276.34 L708.61 278.05 L711.34 279.61 L713.52 281.74 L716.34 283.24 L717.97 285.93 L720.07 288.15 L721.94 290.59 L724.74 292.15 L726.46 294.73 L727.86 297.57 L730.54 299.28 L732.29 301.80 L735.36 303.21 L736.12 306.56 L738.73 308.38 L740.68 310.74 L743.20 312.66 L745.51 314.76 L746.64 317.75 L749.50 319.47 L751.09 322.12 L753.37 324.28 L754.55 327.21 L754.71 330.80 L755.74 333.77 L756.62 336.83 L757.86 339.64 L755.85 344.41 L756.33 347.61 L757.77 350.22 L760.15 352.30 L758.26 356.77 L759.35 359.53 L763.79 360.53 L766.63 362.42 L769.26 364.45 L771.89 366.52 L776.00 367.91 L778.09 370.31 L778.02 373.72 L776.38 377.78 L774.81 381.74 L774.49 385.12 L774.98 388.13 L779.11 389.69 L779.20 392.87 L780.56 395.56 L784.59 397.28 L787.49 399.48 L788.17 402.46 L788.52 405.55 L791.35 407.84 L793.74 410.30 L794.59 413.25 L794.30 416.53 L792.71 420.13 L794.10 422.91 L795.09 425.79 L798.24 428.16 L797.56 431.47 L799.15 434.24 L802.68 436.63 L802.11 439.90 L800.89 443.27 L804.29 445.77 L802.75 449.16 L803.11 452.21 L807.64 454.65 L806.28 457.97 L804.50 461.31 L805.71 464.26 L805.87 467.34 L805.76 470.44 L803.30 473.74 L804.91 476.67 L805.35 479.70 L804.59 482.81 L805.75 485.81 L804.45 488.92 L805.19 491.95 L807.25 494.97 L807.14 498.04 L807.54 501.12 L807.02 504.18 L807.58 507.27 L809.40 510.41 L811.12 513.58 L810.62 516.67 L811.69 519.86 L811.92 523.01 L812.43 526.19 L809.84 529.10 L806.59 531.89 L806.71 535.00 L807.18 538.17 L807.63 541.35 L804.50 544.04 L803.29 546.96 L804.04 550.20 L805.10 553.51 L804.34 556.52 L803.03 559.42 L804.62 562.90 L804.81 566.12 L803.92 569.12 L800.61 571.54 L799.38 574.42 L798.04 577.26 L797.63 580.33 L800.02 584.21 L796.91 586.55 L796.90 589.77 L798.10 593.40 L799.47 597.13 L797.82 599.89 L796.18 602.65 L797.29 606.38 L796.51 609.45 L796.64 612.89 L793.31 614.99 L790.13 617.10 L790.72 620.74 L789.49 623.63 L791.43 627.92 L788.12 629.92 L786.59 632.70 L785.74 635.79 L788.60 640.70 L783.85 641.92 L780.18 643.60 L781.89 648.06 L779.39 650.33 L781.24 654.97 L775.95 655.67 L773.34 657.82 L771.27 660.27 L769.62 662.95 L767.20 665.16 L762.31 665.78 L761.42 668.90 L759.72 671.51 L763.22 677.63 L761.41 680.24 L759.47 682.75 L764.10 689.99 L762.53 692.88 L759.73 694.85 L757.32 697.09 L754.79 699.23 L753.29 702.17 L750.55 704.12 L750.13 707.97 L747.87 710.32 L745.10 712.22 L742.99 714.69 L741.97 718.13 L737.70 718.63 L733.73 719.34 L731.17 721.32 L728.93 723.61 L726.29 725.49 L722.84 726.53 L719.77 727.93 L718.28 730.97 L718.47 735.85 L714.79 736.57 L712.54 738.86 L713.00 744.25 L710.37 746.16 L706.68 746.80 L702.66 746.97 L699.77 748.47 L696.90 749.98 L694.11 751.57 L692.47 754.67 L690.10 756.84 L687.48 758.66 L686.88 763.35 L686.91 769.04 L683.26 769.50 L682.07 773.60 L681.28 778.42 L678.04 779.51 L675.64 781.93 L671.69 781.82 L667.57 781.35 L664.77 783.06 L662.41 785.53 L660.01 787.98 L656.49 788.38 L655.00 792.59 L651.65 793.32 L648.81 795.03 L645.41 795.60 L641.98 796.06 L639.71 798.95 L637.06 801.09 L634.75 804.05 L631.90 805.84 L628.94 807.41 L626.14 809.37 L622.67 809.66 L619.34 810.29 L615.95 810.72 L612.56 811.08 L609.35 811.93 L606.31 813.25 L602.77 813.09 L601.13 818.82 L597.32 817.81 L594.87 821.23 L593.07 827.15 L589.13 825.63 L585.72 825.93 L582.62 827.43 L579.69 829.67 L576.10 829.23 L572.59 829.00 L569.45 830.41 L565.95 830.16 L562.71 831.15 L558.93 829.13 L555.42 828.41 L552.19 829.31 L548.98 830.42 L545.51 829.68 L541.89 827.61 L538.68 828.64 L535.44 829.43 L532.37 832.06 L528.97 831.50 L525.65 831.79 L522.45 833.79 L519.17 835.02 L515.78 834.41 L512.34 831.81 L509.03 832.23 L505.72 833.12 L502.39 833.38 L499.05 835.34 L495.71 834.34 L492.35 835.02 L488.94 836.66 L485.50 838.29 L482.16 837.31 L478.82 836.66 L475.31 838.35 L471.89 838.64 L468.51 838.19 L465.39 835.41 L461.96 835.72 L458.51 836.07 L455.03 836.53 L451.58 836.70 L448.29 835.70 L445.00 834.77 L441.77 833.58 L437.60 837.50 L434.88 833.52 L431.99 830.71 L428.39 831.35 L424.91 831.38 L421.29 831.93 L419.00 826.99 L415.60 826.68 L412.47 825.32 L408.57 826.75 L406.05 823.27 L403.32 820.65 L399.52 821.58 L395.92 821.78 L390.72 826.67 L388.15 823.55 L383.81 825.52 L378.64 829.56 L374.97 829.33 L371.43 828.71 L368.47 826.63 L365.24 825.22 L362.06 823.69 L358.28 823.55 L355.80 820.46 L353.23 817.65 L350.29 815.68 L347.26 813.92 L344.40 811.84 L342.79 807.33 L340.56 804.14 L337.27 803.02 L333.79 802.21 L331.97 798.40 L329.55 795.75 L325.76 795.45 L323.10 793.22 L319.30 792.86 L316.88 790.25 L313.18 789.66 L309.59 788.83 L305.57 788.62 L304.04 784.70 L302.54 780.82 L299.17 779.63 L296.47 777.50 L292.42 777.15 L289.31 775.52 L287.13 772.68 L283.01 772.30 L279.95 770.54 L276.65 769.06 L274.74 765.91 L271.93 763.83 L267.32 763.78 L264.95 761.16 L262.36 758.78 L260.34 755.80 L258.06 753.11 L254.63 751.62 L250.24 751.04 L248.58 747.71 L245.38 745.90 L240.75 745.40 L237.96 743.12 L235.95 740.12 L233.79 737.26 L231.78 734.28 L228.78 732.16 L225.47 730.28 L222.06 728.44 L219.47 725.91 L216.77 723.46 L213.57 721.36 L210.93 718.83 L210.13 714.91 L208.03 711.97 L205.54 709.31 L203.47 706.35 L200.54 703.98 L199.05 700.62 L197.39 697.38 L195.06 694.58 L191.77 692.37 L190.97 688.60 L189.35 685.35 L186.26 682.97 L184.68 679.69 L181.36 677.38 L180.98 673.44 L180.22 669.73 L177.32 667.15 L175.21 664.15 L174.39 660.50 L174.19 656.57 L173.65 652.83 L172.22 649.52 L168.93 647.04 L168.92 643.10 L167.81 639.65 L165.14 636.85 L162.53 633.99 L162.54 630.10 L161.80 626.51 L160.86 623.02 L160.03 619.48 L156.80 616.77 L157.31 612.79 L156.32 609.32 L153.80 606.32 L152.15 603.03 L149.08 600.14 L148.18 596.60 L148.12 592.84 L144.57 589.98 L144.42 586.25 L142.57 582.92 L143.08 579.05 L144.53 575.01 L141.31 571.95 L140.13 568.45 L139.91 564.77 L139.70 561.09 L136.82 557.85 L134.65 554.46 L131.71 551.13 L131.88 547.37 L129.29 543.93 L126.19 540.51 L125.69 536.79 L124.64 533.10 L125.15 529.28 L125.40 525.50 L125.01 521.76 L123.38 518.08 L124.05 514.28 L125.19 510.48 L124.73 506.74 L124.18 502.99 L122.72 499.23 L124.45 495.48 L125.44 491.74 L124.86 487.98 L124.19 484.19 L124.10 480.42 L125.76 476.75 L125.24 472.96 L125.47 469.21 L123.40 465.24 L126.07 461.71 L127.68 458.11 L126.41 454.18 L126.75 450.43 L126.28 446.56 L128.66 443.10 L130.08 439.53 L130.68 435.83 L129.90 431.87 L131.48 428.35 L133.81 424.99 L135.27 421.48 L135.71 417.76 L133.35 413.36 L137.76 410.57 L139.45 407.15 L136.79 402.59 L137.74 398.95 L139.76 395.62 L142.04 392.38 L142.89 388.74 L143.66 385.05 L142.90 380.85 L146.05 377.96 L147.47 374.49 L148.34 370.82 L149.57 367.28 L148.02 362.65 L150.06 359.40 L152.38 356.28 L150.83 351.53 L153.06 348.37 L154.40 344.82 L157.28 341.98 L159.97 339.08 L160.31 335.06 L160.38 330.87 L163.10 328.00 L165.30 324.89 L165.04 320.46 L165.78 316.53 L165.38 311.93 L168.41 309.25 L169.46 305.42 L170.43 301.53 L171.47 297.65 L172.98 294.05 L177.56 292.40 L179.71 289.22 L182.40 286.41 L181.66 281.26 L186.07 279.64 L189.93 277.69 L190.95 273.70 L193.42 270.77 L193.88 266.30 L198.72 265.19 L200.93 262.06 L203.32 259.09 L203.49 254.26 L206.73 251.96 L211.61 251.09 L212.48 246.79 L216.11 244.90 L215.71 239.36 L220.62 238.66 L225.19 237.74 L226.36 233.58 L229.16 230.98 L230.28 226.67 L235.64 226.70 L238.34 224.02 L241.15 221.45 L241.62 216.32 L245.83 215.28 L250.98 215.37 L252.09 210.85 L255.11 208.52 L254.72 202.06 L260.13 202.62 L263.86 201.18 L264.08 195.24 L266.52 192.09 L270.63 191.13 L274.33 189.69 L277.62 187.68 L280.05 184.47 L282.43 181.13 L286.89 180.87 L289.55 177.91 L291.60 173.98 L294.68 171.60 L297.02 168.01 L300.60 166.41 L304.06 164.63 L306.46 161.01 L309.86 159.09 L313.56 157.71 L317.85 157.49 L320.95 155.04 L324.15 152.75 L326.74 149.20 L330.83 148.68 L334.49 147.30 L337.05 143.52 L340.19 140.95 L343.10 137.76 L346.98 136.82 L349.91 133.56 L353.65 132.26 L356.24 127.99 L360.52 128.05 L365.00 128.73 L368.17 125.83 L372.35 125.81 L375.03 121.31 L379.64 122.64 L383.88 122.95 L387.34 120.75 L390.94 118.97 L394.46 116.80 L399.00 118.41 L402.43 115.88 L406.60 116.28 L409.50 111.30 L414.03 113.28 L418.37 114.69 L421.86 112.04 L425.94 112.33 L429.26 108.52 L433.72 110.97 L437.77 111.32 L441.59 110.25 L445.24 107.90 L449.16 107.37 L453.43 109.70 L457.06 106.75 L461.21 108.53 L464.78 104.19 L469.01 107.32 L473.08 109.14 L476.89 107.11 L480.84 107.30 L484.59 102.73 L488.67 106.06 L492.59 105.23 L496.51 101.78 L500.50 100.69 L504.47 102.66 L508.43 103.14 L512.38 103.91 L516.40 102.55 L520.38 102.67 L524.27 104.16 L528.29 103.63 L532.40 102.07 L536.44 101.76 L540.61 100.22 L544.47 101.89 L548.50 101.94 L552.63 101.32 L556.75 100.86 L560.50 103.02 L564.06 106.13 L568.23 105.46 L572.26 105.68 L576.45 105.13 L580.23 106.71 L584.12 107.73 L588.50 106.54 L592.95 105.21 L596.98 105.81 L600.68 107.74 L605.35 105.95 L608.97 108.15 L613.83 105.99 L617.10 109.35 L620.30 112.81 L624.63 112.59 L628.37 114.24 L633.13 112.89 L635.94 117.22 L639.58 119.09 L643.48 120.23 L648.36 118.90 L651.76 121.42 L654.33 125.88 L658.76 125.79 L662.16 128.16 L667.48 126.22 L669.93 130.68 L672.59 134.56 L677.01 134.72 L680.72 136.38 L685.25 136.42 L687.23 141.45 L690.94 143.09 L694.49 145.04 L700.06 143.38 L702.22 147.82 L704.12 152.60 L708.36 153.38 L711.29 156.33 L716.74 155.25 L718.33 160.30 L720.55 164.28 L725.17 164.60 L729.48 165.46 L733.52 166.77 L735.43 171.09 L740.87 170.49 L744.87 171.96 L748.40 174.09 L750.18 178.47 L752.99 181.48 L755.86 184.40 L760.46 185.21 L763.42 188.05 L765.27 192.15 L769.24 193.79 L773.68 194.95 L777.56 196.78 L780.87 199.26 L783.61 202.35 L788.18 203.54 L790.93 206.64 L794.33 209.09 L796.25 212.99 L797.44 217.55 L801.51 219.37 L804.79 221.94 L807.97 224.63 L810.45 227.95 L814.21 230.17 L817.66 232.68 L823.42 233.31 L824.56 237.78 L827.02 241.15 L831.57 242.91 L833.48 246.72 L838.04 248.55 L838.73 253.26 L840.24 257.33 L843.02 260.49 L846.55 263.14 L849.02 266.53 L849.31 271.36 L853.57 273.59 L854.21 278.15 L859.46 279.83 L859.42 284.77 L859.69 289.47 L863.12 292.30 L864.73 296.20 L868.59 298.85 L868.21 303.81 L869.89 307.64 L871.45 311.52 L875.73 314.05 L876.65 318.26 L876.11 323.14 L879.86 325.99 L880.19 330.42 L884.97 332.88 L883.91 337.89 L883.46 342.57 L886.31 345.90 L887.38 349.95 L889.97 353.41 L888.88 358.24 L891.35 361.76 L891.61 366.06 L897.20 368.57 L897.03 373.02 L895.68 377.79 L899.99 380.83 L902.72 384.39 L901.50 389.07 L902.83 393.03 L902.93 397.30 L902.89 401.59 L909.28 404.36 L907.37 409.09 L906.44 413.56 L912.30 416.61 L912.28 420.90 L916.05 424.48 L918.51 428.35 L919.33 432.52 L924.00 436.11 L924.57 440.36 L925.07 444.62 L924.02 449.06 L922.69 453.51 L925.43 457.51 L926.66 461.69 L925.42 466.08 L926.27 470.30 L929.28 474.40 L930.61 478.64 L933.92 482.83 L934.14 487.16 L936.71 491.46 L941.02 495.79 L942.03 500.00 L941.82 495.58 L945.70 491.08 L947.65 486.57 L947.06 482.11 L949.59 477.50 L949.96 472.97 L952.23 468.29 L952.12 463.75 L949.93 459.40 L949.95 454.85 L951.66 450.12 L948.64 445.90 L946.36 441.64 L945.16 437.27 L944.25 432.86 L947.34 427.81 L946.20 423.41 L946.81 418.69 L948.74 413.70 L946.82 409.42 L950.86 403.90 L947.37 399.96 L943.60 396.13 L947.66 390.45 L945.10 386.35 L942.73 382.22 L941.28 377.87 L937.65 374.15 L937.34 369.49 L938.93 364.22 L934.70 360.75 L931.92 356.87 L933.92 351.37 L931.26 347.45 L929.83 343.10 L925.28 339.92 L924.79 335.24 L922.19 331.37 L921.35 326.80 L917.26 323.59 L912.11 320.88 L913.22 315.47 L909.30 312.29 L909.32 307.30 L904.51 304.60 L901.66 301.00 L901.53 296.04 L899.07 292.24 L896.10 288.73 L891.09 286.34 L890.77 281.42 L887.71 278.01 L886.28 273.67 L881.89 271.08 L876.97 268.88 L877.48 263.34 L873.34 260.70 L872.55 255.92 L867.67 253.83 L865.36 250.05 L863.25 246.12 L861.15 242.17 L856.99 239.71 L852.08 237.86 L851.48 232.80 L847.73 230.12 L847.13 224.98 L843.84 221.95 L839.19 220.05 L839.31 214.21 L837.13 210.22 L834.95 206.22 L831.29 203.52 L828.56 199.99 L825.96 196.33 L823.97 192.08 L818.84 190.83 L814.31 189.07 L811.44 185.68 L807.85 183.03 L806.02 178.54 L802.17 176.16 L799.21 172.83 L796.23 169.51 L794.18 165.13 L791.42 161.50 L786.42 160.50 L782.66 158.08 L780.59 153.59 L776.42 151.67 L772.33 149.68 L766.95 149.43 L763.68 146.43 L760.90 142.76 L758.80 138.09 L753.50 137.91 L750.73 134.13 L747.48 131.02 L745.19 126.42 L739.89 126.39 L734.07 127.31 L732.31 121.76 L727.75 120.74 L724.30 117.88 L718.53 119.04 L713.52 118.99 L711.37 113.82 L707.34 112.03 L703.25 110.35 L697.43 112.09 L694.54 108.14 L690.30 106.85 L687.03 103.55 L681.79 104.45 L676.44 105.75 L674.00 100.52 L669.51 99.95 L666.25 96.48 L660.85 98.22 L656.54 97.36 L653.33 93.64 L649.28 92.07 L644.75 91.83 L639.45 93.92 L636.29 89.83 L631.86 89.48 L628.12 86.98 L623.13 88.59 L618.25 90.00 L615.02 85.69 L610.45 86.14 L607.04 82.19 L602.50 82.61 L598.38 81.34 L594.63 78.40 L590.80 75.63 L586.41 75.47 L581.96 75.67 L577.87 74.00 L573.68 72.81 L569.57 71.10 L564.81 73.50 L560.27 74.78 L556.11 73.50 L551.95 72.05 L547.63 71.85 L543.17 73.17 L539.06 71.01 L534.79 70.38 L530.61 68.42 L526.32 67.59 L521.90 69.28 L517.58 69.20 L513.32 67.68 L508.97 68.84 L504.65 69.74 L500.34 72.04 L496.05 71.21 L491.70 67.81 L487.38 68.03 L483.22 72.29 L478.72 67.78 L474.46 69.16 L470.04 67.77 L465.95 70.96 L462.01 75.29 L457.40 71.94 L453.42 75.15 L448.89 73.28 L445.08 77.28 L440.83 77.69 L436.45 77.24 L432.16 77.47 L428.23 79.91 L424.71 84.39 L419.94 81.92 L416.11 84.47 L411.62 83.72 L408.09 87.46 L404.72 91.62 L399.73 88.84 L395.92 91.03 L391.65 91.41 L388.45 95.70 L384.09 95.71 L380.07 96.93 L375.77 97.25 L372.45 100.72 L369.47 105.05 L364.43 103.17 L361.11 106.36 L356.64 106.29 L353.65 110.25 L350.28 113.08 L345.57 112.47 L341.81 114.29 L337.35 114.44 L334.04 117.33 L329.59 117.58 L325.44 118.59 L320.68 118.31 L317.10 120.60 L314.23 124.29 L309.55 124.33 L305.67 126.00 L301.71 127.54 L299.18 131.70 L296.00 134.62 L292.62 137.13 L288.07 137.64 L284.87 140.46 L281.75 143.38 L277.30 144.16 L273.78 146.45 L269.23 147.16 L265.41 149.02 L263.54 153.78 L259.19 154.86 L255.26 156.61 L252.28 159.67 L250.02 163.70 L247.88 167.81 L244.26 169.94 L237.99 168.75 L235.95 172.95 L235.60 179.13 L229.01 177.75 L226.13 180.86 L221.60 182.07 L221.06 187.80 L219.05 191.82 L214.39 192.93 L211.35 195.82 L208.72 199.13 L208.86 205.23 L204.08 206.33 L201.86 209.98 L197.57 211.63 L197.27 217.07 L197.13 222.56 L191.34 222.89 L190.03 227.26 L185.88 229.13 L186.12 234.77 L183.98 238.33 L179.73 240.16 L177.25 243.46 L175.17 247.07 L175.72 252.67 L171.29 254.44 L169.59 258.28 L165.98 260.74 L165.81 265.64 L166.14 270.81 L160.97 272.21 L159.58 276.19 L157.92 279.97 L158.74 285.29 L156.28 288.51 L153.68 291.66 L150.72 294.60 L148.17 297.81 L148.01 302.38 L143.81 304.67 L141.04 307.80 L137.42 310.50 L136.15 314.45 L135.13 318.50 L132.13 321.58 L129.35 324.78 L129.45 329.34 L129.28 333.74 L127.90 337.57 L127.35 341.75 L123.03 344.34 L122.74 348.62 L122.48 352.88 L118.38 355.66 L117.17 359.56 L115.82 363.41 L114.98 367.44 L115.51 371.90 L112.86 375.31 L111.95 379.28 L110.69 383.15 L111.27 387.55 L111.63 391.85 L110.77 395.79 L106.28 398.80 L106.59 403.06 L109.83 407.99 L105.53 411.13 L104.71 415.09 L105.05 419.28 L106.54 423.68 L106.67 427.78 L105.08 431.56 L105.40 435.67 L105.94 439.80 L107.60 444.06 L106.92 447.97 L106.18 451.88 L103.76 455.60 L105.07 459.74 L107.41 463.94 L104.61 467.67 L104.65 471.65 L104.25 475.59 L106.02 479.66 L105.84 483.60 L105.36 487.53 L104.72 491.46 L106.12 495.43 L108.28 499.38 L106.95 503.30 L107.10 507.23 L107.82 511.14 L109.35 515.01 L110.42 518.87 L110.08 522.80 L110.56 526.68 L111.17 530.55 L112.93 534.31 L113.22 538.19 L113.34 542.08 L111.10 546.26 L110.12 550.34 L111.76 554.08 L109.84 558.33 L109.01 562.46 L107.70 566.70 L109.46 570.42 L110.67 574.23 L111.30 578.15 L110.66 582.34 L113.98 585.68 L116.42 589.17 L117.29 593.01 L118.75 596.70 L117.38 601.13 L119.57 604.64 L121.16 608.28 L120.25 612.66 L120.85 616.62 L121.26 620.66 L123.08 624.24 L126.47 627.28 L126.16 631.57 L128.19 635.05 L130.29 638.49 L133.10 641.64 L136.13 644.66 L136.43 648.77 L135.94 653.24 L138.87 656.27 L142.36 659.03 L142.09 663.46 L144.56 666.64 L147.71 669.48 L151.56 671.95 L154.08 675.03 L155.43 678.69 L156.15 682.71 L159.57 685.27 L163.63 687.45 L164.18 691.57 L166.83 694.50 L168.01 698.29 L170.48 701.31 L173.22 704.15 L174.40 707.97 L176.37 711.29 L179.26 714.01 L182.85 716.23 L185.05 719.38 L187.60 722.27 L189.88 725.36 L192.74 728.01 L196.43 730.01 L198.58 733.17 L200.52 736.49 L203.30 739.15 L206.76 741.24 L208.89 744.41 L210.89 747.70 L213.28 750.67 L215.79 753.53 L218.99 755.76 L221.04 759.05 L223.49 761.97 L223.55 767.22 L225.52 770.67 L229.14 772.50 L229.83 777.29 L231.82 780.81 L234.99 783.11 L238.21 785.34 L241.41 787.57 L244.24 790.21 L245.74 794.39 L249.10 796.44 L253.30 797.46 L255.76 800.56 L258.76 803.00 L261.51 805.79 L265.19 807.35 L268.23 809.74 L270.83 812.74 L273.51 815.66 L276.38 818.34 L281.21 818.17 L284.86 819.67 L287.06 823.33 L290.46 825.19 L293.69 827.33 L298.00 827.71 L300.80 830.52 L304.08 832.56 L307.13 835.00 L311.47 835.16 L315.41 835.99 L318.34 838.62 L321.97 839.97 L326.11 840.30 L330.84 839.39 L334.17 841.21 L337.83 842.35 L341.64 843.14 L345.68 843.35 L350.10 842.66 L353.23 844.85 L356.86 845.87 L360.56 846.70 L364.41 847.12 L367.71 848.93 L370.95 850.94 L372.73 857.07 L375.36 861.06 L379.95 859.37 L381.75 866.14 L385.30 867.66 L388.30 871.07 L392.76 869.62 L397.33 867.56 L400.22 871.51 L404.12 871.79 L407.87 872.64 L412.61 869.24 L415.92 871.81 L419.59 872.89 L422.94 875.56 L427.26 873.41 L431.93 869.07 L434.85 874.20 L438.88 873.07 L442.57 873.94 L446.41 873.81 L450.20 873.96 L453.64 876.87 L457.30 878.33 L461.12 878.40 L465.15 876.19 L468.92 876.36 L472.63 877.37 L476.37 878.29 L480.23 877.03 L484.09 875.20 L487.76 877.66 L491.54 877.89 L495.32 878.02 L499.10 877.43 L502.88 878.03 L506.66 877.93 L510.45 878.33 L514.22 878.02 L517.86 874.77 L521.61 874.75 L525.37 874.67 L529.12 874.40 L532.80 873.47 L536.37 871.39 L540.22 872.27 L543.99 872.33 L547.77 872.34 L551.19 869.65 L554.80 868.57 L558.56 868.47 L562.24 867.87 L565.52 864.99 L568.58 861.27 L572.24 860.81 L575.50 858.41 L579.03 857.40 L582.29 855.27 L585.49 852.99 L589.24 853.02 L592.92 852.67 L596.31 851.25 L599.02 847.47 L603.02 848.26 L607.26 849.69 L610.60 848.15 L614.20 847.38 L618.32 848.14 L622.19 848.06 L625.73 847.00 L629.06 845.37 L632.13 843.08 L635.02 840.41 L638.26 838.64 L641.52 836.96 L644.20 833.96 L647.81 833.11 L651.85 833.20 L654.58 830.40 L658.25 829.61 L661.64 828.21 L663.98 824.74 L666.97 822.60 L670.17 820.88 L674.20 820.69 L676.28 816.92 L680.14 816.37 L683.82 815.45 L686.23 812.37 L687.83 808.01 L690.01 804.69 L693.07 802.80 L695.20 799.50 L699.86 800.05 L703.82 799.46 L706.89 797.53 L712.09 798.58 L715.25 796.71 L719.13 795.78 L721.64 793.00 L724.02 790.08 L726.38 787.14 L729.30 784.94 L731.37 781.70 L732.88 777.83 L734.61 774.28 L737.04 771.57 L741.48 771.13 L743.90 768.40 L745.97 765.30 L749.64 763.91 L753.07 762.23 L755.30 759.31 L756.67 755.54 L758.61 752.37 L760.96 749.62 L763.42 746.97 L764.08 742.67 L764.34 738.08 L767.27 735.92 L768.96 732.67 L770.55 729.36 L771.73 725.73 L775.33 724.10 L776.19 720.25 L778.38 717.48 L780.59 714.72 L781.33 710.86 L782.52 707.37 L785.79 705.41 L794.81 707.45 L795.96 703.86 L797.38 700.49 L804.35 700.79 L806.29 697.70 L808.49 694.78 L805.86 688.87 L807.44 685.62 L809.10 682.43 L810.97 679.37 L810.31 674.87 L807.83 669.44 L812.73 668.09 L813.70 664.59 L817.92 662.77 L817.05 658.34 L814.93 653.37 L819.94 651.87 L821.46 648.67 L821.56 644.83 L819.94 640.27 L824.90 638.59 L826.11 635.27 L828.25 632.32 L827.87 628.37 L827.39 624.42 L830.34 621.78 L829.84 617.86 L831.60 614.76 L832.29 611.29 L831.95 607.50 L834.52 604.65 L838.28 602.12 L839.58 598.82 L839.63 595.16 L842.75 592.35 L842.93 588.73 L844.53 585.48 L844.15 581.74 L842.19 577.67 L842.62 574.17 L844.01 570.88 L845.73 567.63 L844.69 563.86 L844.84 560.33 L846.75 557.09 L848.43 553.80 L847.56 550.11 L844.99 546.22 L846.84 542.94 L847.38 539.49 L847.84 536.02 L845.18 532.26 L843.36 528.63 L844.75 525.28 L844.92 521.82 L846.50 518.45 L845.95 514.95 L848.02 511.55 L850.40 508.13 L851.46 504.63 L851.03 501.12 L848.77 497.62 L847.89 494.15 L848.87 490.64 L849.29 487.14 L847.97 483.70 L846.67 480.28 L846.56 476.81 L846.98 473.29 L845.12 469.96 L841.68 466.82 L841.68 463.36 L840.95 459.99 L841.78 456.42 L840.01 453.19 L839.18 449.84 L840.61 446.15 L839.15 442.89 L838.60 439.50 L838.37 436.04 L834.77 433.25 L831.81 430.38 L833.70 426.49 L833.57 423.02 L829.17 420.56 L830.25 416.79 L829.56 413.45 L829.07 410.06 L825.94 407.40 L823.97 404.45 L823.35 401.10 L823.15 397.62 L823.06 394.08 L820.94 391.21 L819.58 388.10 L819.64 384.47 L819.99 380.72 L818.54 377.62 L815.31 375.22 L815.40 371.53 L813.23 368.74 L810.20 366.35 L805.50 364.74 L802.23 362.55 L799.45 360.19 L799.80 356.36 L801.00 352.06 L798.55 349.54 L798.00 346.06 L798.52 341.99 L798.45 338.19 L794.64 336.42 L791.23 334.48 L790.52 331.02 L788.15 328.52 L785.13 326.43 L779.57 325.96 L777.82 323.17 L775.15 320.98 L772.72 318.65 L769.17 317.11 L766.43 315.05 L765.21 311.94 L762.58 309.83 L761.67 306.47 L758.50 304.79 L756.35 302.35 L754.92 299.35 L752.69 296.99 L750.63 294.49 L747.07 293.24 L746.07 289.85 L743.10 288.15 L741.58 285.19 L738.49 283.62 L735.51 281.99 L733.99 279.01 L731.32 277.12 L729.00 274.90 L725.73 273.63 L724.13 270.70 L721.61 268.68 L719.64 266.11 L717.09 264.13 L713.62 263.20 L711.59 260.68 L708.54 259.33 L708.87 254.02 L708.59 249.31 L704.90 248.67 L704.64 243.80 L703.85 239.49 L701.27 237.41 L697.79 236.55 L694.32 235.70 L692.19 233.05 L690.41 229.87 L687.57 228.16 L683.59 228.16 L681.52 225.33 L678.66 223.70 L676.10 221.58 L672.80 220.66 L669.08 220.46 L666.56 218.30 L664.07 216.07 L661.91 213.23 L657.91 213.67 L653.84 214.33 L651.55 211.70 L649.34 208.87 L646.34 207.56 L642.29 208.41 L640.29 205.06 L637.17 204.03 L634.85 201.24 L630.76 202.39 L627.34 202.13 L624.47 200.59 L621.58 199.10 L617.95 199.46 L614.06 200.59 L610.97 199.72 L607.57 199.71 L604.71 198.22 L601.24 198.51 L597.37 200.16 L594.69 198.17 L591.72 197.05 L588.68 196.15 L584.91 197.88 L583.55 190.88 L580.40 190.29 L577.13 190.15 L575.77 182.12 L572.24 182.88 L569.15 181.78 L566.25 179.75 L563.89 174.79 L560.35 175.70 L556.10 180.79 L553.44 177.03 L549.92 178.36 L546.38 180.10 L542.79 182.57 L539.75 181.01 L536.78 178.69 L533.61 177.95 L530.27 178.82 L526.85 181.04 L523.80 178.86 L520.40 181.67 L517.29 180.07 L514.07 180.39 L510.78 182.91 L507.68 179.74 L504.48 179.26 L501.28 179.53 L498.08 181.29 L494.89 181.23 L491.69 180.85 L488.47 179.97 L485.32 181.21 L482.25 183.39 L478.96 181.81 L475.82 182.53 L472.49 180.95 L469.44 182.66 L466.32 183.50 L463.09 183.26 L459.91 183.59 L456.71 183.68 L453.97 187.00 L450.95 188.19 L447.73 188.06 L444.43 187.56 L441.40 188.60 L438.70 191.30 L435.21 189.96 L431.93 189.79 L428.73 190.07 L426.17 193.00 L423.20 194.14 L420.07 194.66 L417.16 195.98 L414.49 198.11 L412.29 201.75 L409.29 202.58 L406.58 204.32 L403.69 205.44 L401.13 207.56 L399.08 211.04 L395.36 209.75 L392.58 211.12 L389.78 212.44 L387.31 214.58 L384.27 215.25 L381.28 216.06 L378.52 217.42 L375.87 219.04 L374.03 222.41 L370.69 222.46 L368.05 224.05 L364.94 224.65 L362.42 226.47 L360.50 229.43 L356.81 228.96 L354.10 230.38 L352.27 233.41 L350.28 236.08 L347.16 236.75 L345.45 239.83 L343.55 242.53 L341.10 244.29 L339.74 247.76 L336.69 248.55 L333.87 249.72 L329.35 248.41 L326.59 249.77 L323.82 251.13 L319.68 250.61 L316.75 251.82 L315.23 254.93 L312.42 256.30 L310.31 258.60 L308.49 261.24 L304.50 261.20 L302.96 264.16 L302.22 268.03 L298.87 268.83 L296.25 270.50 L293.63 272.17 L292.24 275.20 L289.64 276.90 L287.39 278.99 L285.22 281.15 L283.17 283.44 L282.92 287.49 L281.88 290.70 L278.88 292.02 L276.47 293.93 L274.87 296.58 L273.67 299.58 L270.32 300.66 L267.64 302.38 L265.72 304.75 L266.11 309.01 L264.50 311.58 L261.88 313.36 L261.12 316.59 L260.59 319.97 L258.91 322.45 L257.08 324.82 L255.53 327.39 L251.34 328.13 L249.41 330.48 L247.93 333.12 L244.50 334.50 L242.53 336.86 L241.47 339.79 L240.99 343.06 L240.28 346.16 L239.65 349.28 L238.05 351.83 L237.65 355.04 L238.29 358.80 L237.13 361.55 L235.92 364.27 L234.49 366.87 L234.65 370.26 L235.10 373.74 L234.35 376.63 L233.14 379.30 L232.80 382.35 L233.33 385.75 L232.53 388.56 L231.69 391.35 L230.33 393.92 L230.23 396.98 L230.48 400.16 L228.80 402.61 L226.19 404.75 L222.41 406.54 L222.33 409.59 L220.44 412.06 L217.77 414.31 L216.39 416.98 L217.26 420.29 L218.13 423.57 L216.76 426.23 L216.09 429.08 L215.87 432.04 L216.98 435.29 L217.23 438.32 L217.09 441.24 L216.64 444.10 L217.68 447.23 L217.79 450.17 L217.82 453.08 L218.39 456.06 L217.77 458.85 L218.91 461.88 L219.83 464.86 L219.59 467.67 L219.62 470.51 L219.42 473.33 L220.51 476.25 L220.84 479.09 L221.03 481.90 L220.78 484.69 L221.87 487.54 L222.38 490.34 L222.32 493.12 L221.80 495.89 L221.81 498.67 L222.73 501.45 L221.99 504.23 L220.48 507.05 L220.89 509.83 L220.62 512.64 L219.72 515.49 L220.64 518.25 L219.40 521.15 L219.99 523.92 L221.50 526.60 L219.48 529.63 L221.28 532.26 L223.21 534.84 L222.69 537.73 L224.65 540.27 L226.06 542.87 L225.65 545.75 L225.57 548.58 L225.35 551.46 L224.53 554.47 L223.50 557.55 L224.43 560.24 L225.57 562.87 L223.15 566.35 L221.36 569.73 L221.42 572.68 L221.25 575.71 L219.90 579.10 L221.26 581.73 L224.78 583.70 L225.55 586.47 L226.64 589.14 L227.69 591.82 L228.24 594.67 L229.90 597.14 L231.53 599.59 L231.28 602.75 L234.74 604.48 L236.14 606.99 L236.37 609.98 L238.91 612.00 L240.28 614.50 L243.68 616.07 L245.52 618.32 L248.03 620.23 L248.99 622.87 L251.33 624.82 L254.44 626.35 L254.74 629.32 L256.81 631.35 L258.61 633.51 L260.79 635.45 L262.54 637.61 L263.37 640.31 L265.85 642.03 L267.27 644.36 L270.12 645.80 L272.85 647.28 L274.53 649.41 L273.57 653.32 L274.56 655.97 L278.06 656.85 L277.84 660.36 L278.43 663.33 L282.09 664.02 L286.29 664.23 L288.62 665.83 L290.96 667.40 L293.94 668.42 L296.20 670.00 L299.00 671.10 L301.05 672.82 L303.03 674.58 L304.96 676.39 L307.45 677.67 L308.03 680.72 L308.45 683.98 L309.50 686.66 L308.60 691.33 L309.81 693.97 L312.28 695.31 L314.55 696.86 L315.45 699.86 L319.08 699.91 L323.11 699.42 L323.69 702.82 L325.08 705.33 L328.07 705.97 L330.04 707.79 L331.01 710.88 L333.38 712.23 L336.24 712.94 L337.06 716.32 L340.60 716.09 L343.77 716.27 L345.32 718.71 L346.78 721.30 L348.93 722.93 L352.32 722.68 L353.70 725.48 L355.79 727.19 L358.08 728.60 L360.92 729.12 L363.59 729.86 L366.06 730.93 L367.32 734.13 L369.36 736.00 L372.71 735.47 L374.67 737.50 L376.58 739.65 L378.53 741.77 L381.61 741.64 L384.36 742.13 L386.48 743.94 L388.68 745.59 L391.24 746.46 L394.37 746.02 L397.33 745.86 L399.63 747.29 L401.79 749.07 L404.11 750.51 L407.04 750.34 L409.39 751.68 L411.68 753.23 L413.80 755.35 L417.04 754.10 L420.16 753.09 L422.53 754.43 L425.28 754.49 L428.33 753.46 L431.76 750.87 L434.41 751.02 L437.05 751.18 L439.87 750.52 L442.48 750.67 L445.40 749.32 L448.04 749.21 L450.46 750.05 L452.91 750.81 L455.59 750.34 L458.27 749.75 L460.66 750.82 L463.15 751.36 L465.70 751.46 L468.47 749.75 L470.94 750.30 L473.44 750.65 L475.96 750.74 L478.55 750.09 L481.17 748.67 L483.61 749.60 L486.09 750.10 L488.61 749.71 L491.16 748.34 L493.65 748.24 L496.13 748.55 L498.62 748.29 L501.09 747.38 L503.55 746.04 L506.02 746.30 L508.48 746.24 L511.13 750.44 L513.68 751.05 L516.09 749.48 L518.95 754.13 L521.57 754.91 L524.11 754.52 L526.55 753.34 L528.99 752.22 L531.55 752.24 L534.38 754.23 L536.90 753.72 L539.24 752.06 L542.07 753.58 L544.67 753.49 L547.50 754.64 L549.82 753.00 L552.26 752.07 L554.91 752.15 L557.29 750.97 L559.74 750.14 L561.83 747.88 L563.79 745.30 L566.46 745.46 L569.31 746.20 L571.79 745.55 L573.67 742.95 L576.39 743.15 L579.02 742.99 L581.81 743.25 L583.53 740.39 L585.29 737.75 L587.95 737.68 L590.22 736.50 L592.03 734.20 L593.41 730.89 L595.60 729.68 L597.70 728.26 L599.64 726.51 L601.27 724.09 L602.70 721.33 L605.18 720.88 L607.25 719.55 L609.22 718.03 L610.58 715.33 L612.54 713.85 L614.79 712.94 L619.29 716.08 L622.42 716.61 L622.87 712.41 L628.54 717.17 L629.81 714.39 L633.92 716.27 L635.24 713.61 L634.26 707.44 L639.31 710.59 L640.85 708.36 L643.54 707.84 L642.83 702.45 L645.19 701.48 L647.90 700.98 L651.24 701.26 L651.56 697.55 L649.26 690.58 L655.07 693.97 L656.23 691.46 L658.48 690.30 L658.45 686.44 L659.66 684.10 L663.72 685.01 L665.42 683.21 L666.90 681.17 L667.17 677.86 L669.82 677.10 L672.12 675.94 L674.87 675.21 L674.98 671.85 L674.19 667.68 L677.53 667.51 L679.22 665.75 L680.77 663.86 L680.96 660.77 L683.24 659.54 L685.12 657.95 L687.68 656.92 L689.59 655.32 L688.77 651.52 L690.77 650.01 L693.82 649.30 L693.67 646.12 L694.16 643.47 L693.46 639.98 L695.99 638.85 L697.15 636.73 L698.35 634.64 L697.99 631.53 L698.98 629.33 L701.60 628.19 L702.99 626.24 L702.97 623.43 L702.05 620.12 L704.82 619.01 L705.22 616.52 L707.11 614.87 L707.04 612.13 L706.44 609.15 L709.04 607.86 L709.92 605.68 L710.06 603.12 L708.68 599.87 L710.98 598.39 L711.70 596.16 L712.47 593.96 L712.27 591.34 L711.59 588.55 L713.33 586.79 L713.78 584.49 L715.33 582.62 L714.47 579.84 L714.64 577.47 L716.05 575.54 L716.45 573.26 L716.14 570.76 L715.93 568.31 L717.68 566.47 L717.53 564.06 L719.80 562.34 L719.48 559.89 L718.09 557.17 L719.43 555.18 L720.73 553.17 L724.72 551.76 L724.88 549.43 L725.64 547.24 L729.27 545.61 L731.54 543.66 L730.07 541.00 L729.54 538.55 L730.33 536.31 L730.49 533.98 L729.95 531.55 L728.07 528.98 L726.74 526.51 L726.37 524.17 L729.47 522.18 L730.94 520.00 L730.18 517.61 L730.60 515.33 L732.78 513.14 L732.88 510.81 L730.45 508.39 L730.41 506.08 L730.51 503.77 L730.04 501.47 L731.31 499.16 L729.87 496.87 L726.20 494.65 L728.74 492.30 L728.21 490.04 L727.99 487.76 L725.41 485.64 L724.76 483.42 L725.60 481.09 L724.25 478.94 L722.92 476.82 L720.44 474.84 L721.12 472.52 L720.94 470.30 L720.33 468.13 L718.50 466.17 L716.51 464.25 L717.37 461.87 L717.32 459.64 L716.26 457.59 L714.43 455.72 L719.27 452.43 L720.37 449.88 L719.73 447.71 L720.31 445.24 L721.37 442.62 L719.14 440.85 L715.52 439.51 L715.63 437.15 L715.42 434.87 L712.03 433.57 L711.53 431.39 L714.47 428.06 L712.53 426.34 L709.78 424.94 L713.41 421.22 L711.61 419.47 L709.98 417.68 L708.01 416.04 L706.24 414.35 L703.24 413.20 L703.01 410.89 L702.74 408.58 L699.97 407.41 L700.37 404.78 L699.76 402.61 L696.19 401.91 L693.40 400.88 L690.68 399.85 L687.84 398.93 L686.98 396.97 L690.33 392.63 L688.02 391.44 L687.65 389.14 L689.12 385.70 L688.98 383.19 L686.86 381.90 L685.16 380.37 L684.74 378.00 L683.00 376.51 L682.38 374.25 L679.87 373.31 L676.44 373.07 L676.51 370.32 L675.29 368.50 L675.49 365.58 L673.22 364.56 L671.49 363.12 L670.65 360.98 L670.92 357.88 L668.29 357.20 L663.72 358.24 L663.35 355.68 L661.75 354.19 L659.74 353.08 L655.56 354.03 L653.30 353.24 L651.62 351.91 L649.56 350.97 L647.52 350.03 L644.74 349.88 L642.92 348.78 L641.51 347.23 L640.43 345.32 L637.81 345.13 L635.62 344.48 L634.77 342.31 L634.15 339.81 L637.39 332.57 L634.14 333.16 L633.68 330.28 L634.71 325.41 L632.63 324.51 L630.33 323.92 L626.06 326.07 L624.99 323.88 L622.64 323.47 L622.58 319.73 L619.53 320.38 L615.39 322.79 L616.18 317.61 L613.86 317.25 L612.58 315.21 L607.79 319.01 L606.19 317.57 L604.98 315.44 L602.64 315.29 L600.61 314.59 L597.43 316.09 L597.16 312.07 L596.46 308.77 L594.96 306.95 L592.35 307.43 L589.46 308.58 L588.33 305.95 L586.18 305.54 L584.17 304.84 L581.23 306.35 L579.57 304.86 L577.50 304.36 L576.11 302.12 L573.68 302.55 L571.09 303.52 L569.52 301.69 L567.66 300.62 L566.19 298.34 L563.32 300.37 L560.82 301.38 L559.21 299.52 L557.21 298.90 L555.12 298.63 L552.74 299.48 L550.83 298.57 L548.71 298.49 L547.27 295.51 L544.69 297.48 L542.16 299.39 L540.48 297.37 L538.32 297.68 L536.16 298.05 L533.65 300.60 L531.52 301.08 L529.46 301.25 L527.69 299.40 L525.85 297.79 L523.61 299.39 L521.94 296.09 L520.05 294.34 L518.05 293.44 L515.94 293.83 L513.79 295.06 L511.73 295.06 L509.74 293.65 L507.67 293.75 L505.55 295.59 L503.52 295.04 L501.47 294.80 L499.42 295.02 L497.39 296.39 L495.39 298.08 L493.40 298.97 L491.39 299.12 L489.38 299.20 L487.42 300.05 L485.56 302.08 L483.56 301.98 L481.46 300.90 L479.56 301.96 L477.94 305.32 L475.88 304.61 L473.95 305.01 L471.86 304.31 L470.09 305.82 L468.33 307.23 L466.25 306.65 L464.32 307.05 L462.36 307.23 L460.50 307.96 L458.84 309.53 L456.91 309.85 L454.82 309.49 L453.45 312.10 L452.15 314.80 L450.21 314.94 L448.58 316.25 L446.62 316.34 L445.27 318.47 L443.65 319.66 L441.88 320.30 L440.05 320.80 L438.83 323.05 L437.20 324.05 L435.64 325.22 L434.08 326.36 L432.19 326.64 L430.87 328.33 L429.67 330.27 L427.90 330.80 L425.79 330.57 L422.99 328.86 L422.39 332.04 L420.21 331.75 L418.31 332.11 L416.43 332.52 L415.72 335.25 L415.00 337.86 L412.65 337.35 L411.69 339.44 L410.22 340.55 L409.41 342.81 L408.45 344.76 L406.49 345.00 L404.74 345.61 L403.10 346.41 L402.71 349.16 L400.19 348.59 L398.94 349.99 L396.70 349.92 L396.16 352.32 L395.24 354.13 L392.94 354.03 L392.51 356.49 L390.68 357.04 L389.81 358.84 L388.87 360.54 L387.35 361.50 L386.15 362.85 L385.32 364.63 L384.26 366.12 L382.57 366.87 L381.70 368.56 L379.65 368.94 L378.68 370.51 L378.36 372.75 L376.89 373.75 L376.26 375.62 L371.63 373.52 L370.25 374.70 L368.63 375.65 L365.16 374.89 L363.50 375.87 L362.83 377.75 L361.90 379.38 L361.48 381.43 L360.16 382.70 L358.80 383.94 L359.30 386.70 L359.56 389.20 L358.61 390.73 L357.84 392.39 L357.14 394.09 L357.09 396.25 L356.08 397.69 L355.58 399.50 L354.26 400.73 L354.80 403.21 L354.11 404.84 L353.57 406.56 L352.90 408.19 L351.98 409.66 L352.00 411.69 L351.70 413.51 L351.09 415.14 L347.38 415.04 L343.56 414.95 L344.52 417.48 L341.36 417.82 L339.55 418.91 L338.57 420.43 L341.09 423.64 L342.42 426.21 L340.83 427.40 L342.17 429.90 L341.20 431.37 L342.42 433.75 L342.55 435.65 L341.66 437.13 L340.46 438.49 L341.24 440.61 L342.46 442.86 L340.58 443.97 L341.07 445.92 L330.87 444.33 L329.71 445.83 L333.19 448.77 L325.78 448.40 L327.43 450.76 L326.40 452.33 L328.82 454.84 L330.64 457.12 L327.57 458.18 L325.17 459.44 L324.51 461.13 L329.69 464.06 L326.06 465.11 L326.30 466.96 L323.24 468.21 L325.93 470.49 L330.17 472.95 L324.60 473.86 L327.20 476.01 L327.29 477.78 L329.61 479.81 L329.66 481.54 L327.50 483.05 L327.04 484.75 L327.02 486.49 L328.65 488.34 L327.70 490.00 L326.74 491.68 L323.90 493.31 L326.75 495.15 L329.65 496.94 L327.19 498.62 L327.26 500.35 L328.10 502.07 L329.58 503.76 L327.96 505.51 L327.43 507.26 L326.54 509.03 L326.41 510.78 L329.72 512.29 L329.00 514.06 L329.33 515.75 L329.49 517.46 L331.26 518.98 L334.92 520.25 L332.53 522.24 L331.24 524.13 L331.92 525.75 L336.74 526.69 L334.55 528.75 L335.27 530.32 L335.16 532.05 L338.19 533.14 L341.59 534.10 L339.52 536.23 L340.72 537.64 L340.80 539.30 L343.02 540.42 L344.45 541.72 L343.56 543.64 L342.82 545.55 L344.19 546.84 L348.04 547.35 L346.55 549.50 L347.75 550.80 L347.42 552.61 L350.35 553.28 L352.54 554.17 L351.41 556.27 L352.89 557.40 L354.19 558.58 L356.29 559.42 L356.98 560.81 L357.21 562.41 L357.42 564.02 L358.60 565.20 L361.13 565.72 L360.75 567.62 L361.44 569.00 L361.64 570.64 L363.85 571.24 L365.32 572.19 L365.13 574.04 L365.13 575.80 L365.31 577.49 L366.73 578.45 L366.18 580.59 L365.84 582.63 L365.70 584.58 L366.56 585.92 L368.36 586.63 L368.56 588.39 L368.37 590.45 L370.05 591.22 L372.89 591.14 L374.38 591.99 L375.77 592.89 L374.83 595.56 L376.27 596.43 L377.56 597.41 L376.55 600.24 L377.67 601.39 L378.47 602.79 L378.76 604.64 L381.45 604.41 L381.11 606.83 L382.40 607.82 L383.90 608.60 L385.61 609.16 L388.66 608.40 L389.71 609.55 L389.34 612.14 L391.34 612.34 L395.04 610.71 L394.27 613.78 L395.98 614.21 L397.00 615.38 L399.10 615.33 L401.11 615.34 L401.50 617.24 L403.37 617.38 L405.50 617.16 L407.03 617.65 L408.80 617.81 L409.40 619.48 L410.58 620.42 L412.44 620.40 L414.43 620.18 L415.48 621.25 L416.55 622.30 L418.13 622.60 L420.29 621.99 L421.57 622.70 L422.69 623.66 L424.00 624.30 L425.90 623.97 L427.46 624.15 L428.67 624.94 L429.85 625.77 L431.53 625.70 L432.94 626.10 L434.77 625.67 L435.80 626.77 L436.95 627.65 L438.38 627.97 L440.29 627.24 L441.45 628.09 L442.74 628.66 L444.12 629.00 L445.71 628.85 L447.39 628.44 L448.55 629.29 L449.88 629.71 L451.46 629.45 L452.83 629.73 L454.43 629.32 L455.58 630.22 L456.86 630.73 L458.24 630.93 L459.83 630.42 L461.11 630.93 L462.46 631.16 L463.76 631.57 L465.34 630.96 L466.87 630.44 L468.04 631.29 L469.49 631.05 L470.83 631.22 L472.24 631.06 L473.63 630.94 L474.91 631.36 L476.26 631.36 L477.65 631.18 L479.05 630.84 L480.39 630.87 L481.71 630.95 L483.01 631.22 L484.40 630.72 L485.77 630.32 L487.05 630.74 L488.38 630.55 L489.70 630.48 L491.04 630.04 L492.36 629.91 L493.66 629.95 L494.97 629.82 L496.28 629.38 L497.58 629.05 L498.87 629.01 L500.16 628.93 L501.45 628.80 L502.73 628.37 L504.00 627.90 L505.28 627.95 L506.55 627.73 L507.81 627.38 L509.04 626.74 L510.31 626.65 L511.56 626.33 L512.79 625.93 L514.01 625.46 L515.23 624.99 L516.46 624.72 L517.69 624.43 L518.91 624.06 L520.10 623.58 L521.27 623.00 L522.50 622.79 L523.71 622.45 L524.88 621.98 L526.00 621.23 L527.21 620.98 L528.37 620.49 L529.54 620.08 L530.65 619.42 L531.75 618.74 L532.94 618.45 L534.05 617.87 L535.16 617.28 L536.25 616.68 L537.34 616.08 L538.47 615.60 L539.59 615.11 L540.66 614.50 L541.68 613.75 L542.79 613.26 L543.85 612.63 L544.93 612.08 L545.92 611.32 L546.93 610.61 L548.00 610.07 L549.01 609.39 L550.01 608.70 L550.98 607.95 L552.00 607.30 L552.99 606.62 L553.97 605.93 L554.91 605.16 L555.84 604.38 L556.82 603.70 L557.76 602.97 L558.74 602.29 L559.61 601.45 L560.52 600.67 L561.46 599.96 L562.36 599.20 L563.22 598.37 L564.07 597.52 L564.96 596.77 L565.82 595.95 L566.67 595.14 L567.47 594.27 L568.28 593.40 L569.13 592.61 L569.95 591.78 L570.75 590.93 L571.51 590.03 L572.30 589.19 L573.09 588.33 L573.86 587.47 L574.60 586.57 L575.29 585.63 L576.06 584.78 L576.76 583.85 L577.46 582.94 L578.14 582.01 L578.81 581.07 L579.50 580.17 L580.17 579.24 L580.84 578.32 L581.47 577.36 L582.11 576.42 L582.74 575.48 L583.38 574.55 L583.96 573.58 L584.53 572.59 L585.14 571.65 L585.70 570.66 L586.26 569.69 L586.79 568.70 L587.32 567.71 L587.86 566.73 L588.36 565.73 L588.86 564.73 L589.35 563.73 L589.83 562.73 L590.31 561.73 L590.79 560.73 L591.23 559.71 L591.65 558.69 L592.09 557.68 L592.51 556.66 L592.91 555.64 L593.29 554.61 L593.68 553.58 L594.05 552.55 L594.41 551.52 L594.75 550.49 L595.08 549.45 L595.42 548.42 L595.73 547.38 L596.04 546.34 L596.33 545.30 L596.62 544.26 L596.90 543.22 L597.15 542.18 L597.40 541.13 L597.63 540.08 L597.86 539.04 L598.08 537.99 L598.29 536.95 L598.48 535.90 L598.66 534.85 L598.83 533.80 L598.99 532.75 L599.13 531.70 L599.26 530.66 L599.38 529.61 L599.50 528.56 L599.60 527.52 L599.70 526.48 L599.78 525.43 L599.85 524.39 L599.92 523.35 L599.96 522.31 L600.01 521.27 L600.03 520.23 L600.05 519.20 L600.10 518.17 L600.08 517.13 L600.04 516.10 L601.10 515.23 L600.61 514.13 L600.05 513.04 L600.84 512.11 L600.32 511.04 L599.76 509.96 L599.66 508.95 L599.57 507.94 L599.45 506.93 L599.33 505.92 L599.21 504.92 L599.07 503.92 L598.92 502.92 L598.77 501.93 L598.61 500.94 Z"/>
  <svg class="pausebutton" id="pausebutton">
    <circle cx="500" cy="500" id="pausestart" class="pausestart" r="52.65"/>
    <rect height="50.02" width="10.00" y="473.68" rx="2.00" ry="2.00" x="479.99" class="pausesymbol"/>
    <rect height="50.02" width="10.00" y="473.68" rx="2.00" ry="2.00" x="510.00" class="pausesymbol"/>
    <polygon points="530.01,500 479.99,530.01 479.99,469.99" class="playsymbol"/>
  </svg>
  <polygon id="playback-head" class="playback-head" points="941.65,500 921.65,540 961.65,540"/>
</svg>