<?xml-stylesheet href="../../style/waveformjs.css" type="text/css"?>
<svg xmlns="http://www.w3.org/2000/svg" xmlns:xlink="http://www.w3.org/1999/xlink" width="100%" height="100%" viewBox="0 0 1000 1000">
  <path class="svg-wave" id="sp" d="M594.95 500.00 L594.68 500.95 L595.02 501.90 L594.79 502.84 L594.50 503.78 L594.88 504.75 L594.76 505.69 L594.77 506.64 L595.37 507.65 L595.68 508.63 L596.10 509.64 L596.30 510.64 L596.04 511.58 L596.38 512.60 L596.50 513.60 L596.44 514.58 L596.47 515.57 L596.56 516.58 L596.44 517.55 L596.59 518.58 L596.16 519.49 L595.89 520.44 L596.20 521.51 L595.83 522.44 L595.64 523.40 L595.66 524.43 L595.22 525.33 L595.40 526.40 L595.42 527.44 L595.30 528.44 L595.16 529.44 L595.37 530.55 L595.27 531.57 L594.99 532.54 L594.71 533.50 L595.09 534.71 L594.60 535.61 L594.45 536.63 L594.41 537.71 L593.71 538.52 L593.46 539.51 L593.48 540.63 L592.89 541.48 L592.72 542.52 L592.75 543.66 L591.97 544.43 L591.63 545.40 L591.93 546.70 L591.49 547.63 L590.90 548.49 L591.51 549.99 L590.99 550.90 L590.11 551.60 L589.81 552.62 L589.47 553.63 L588.78 554.43 L588.52 555.50 L588.27 556.58 L587.30 557.20 L587.06 558.29 L586.74 559.35 L586.15 560.22 L585.39 560.96 L585.45 562.31 L585.52 563.67 L584.53 564.26 L583.87 565.09 L583.72 566.33 L582.77 566.93 L581.51 567.27 L581.33 568.51 L580.56 569.24 L579.62 569.83 L579.36 571.02 L578.30 571.50 L576.81 571.55 L575.77 572.01 L574.31 572.06 L572.27 571.49 L571.41 572.07 L570.82 572.92 L569.65 573.16 L569.12 574.08 L568.46 574.85 L568.52 576.45 L567.41 576.74 L566.29 576.99 L566.24 578.51 L565.39 579.10 L564.55 579.70 L564.15 580.84 L563.25 581.36 L562.89 582.59 L562.20 583.40 L561.46 584.16 L561.06 585.39 L560.09 585.83 L559.18 586.36 L558.34 586.98 L557.61 587.78 L557.06 588.86 L556.52 589.99 L556.04 591.24 L555.55 592.51 L554.16 592.27 L552.42 591.38 L551.79 592.41 L550.37 592.03 L549.18 592.04 L549.31 594.54 L548.69 595.66 L548.00 596.70 L546.67 596.43 L545.39 596.21 L544.73 597.33 L543.15 596.43 L542.46 597.47 L542.23 599.67 L541.49 600.71 L540.51 601.19 L539.05 600.44 L538.18 601.18 L537.16 601.54 L535.78 600.89 L535.42 603.13 L534.94 605.14 L534.41 607.12 L533.75 608.79 L532.90 609.95 L532.31 612.02 L531.32 612.83 L530.33 613.65 L529.46 614.99 L528.43 615.78 L526.96 614.75 L525.12 611.94 L523.69 610.70 L522.52 610.65 L520.92 608.30 L519.95 609.11 L519.19 611.24 L518.15 611.92 L516.99 611.84 L515.74 611.02 L514.69 611.69 L513.47 610.99 L512.32 610.75 L511.44 613.10 L510.38 614.00 L509.29 614.69 L508.08 613.99 L506.90 613.28 L505.81 614.23 L504.60 612.70 L503.49 613.35 L502.41 615.67 L501.26 617.14 L500.09 618.78 L498.90 619.93 L497.67 621.45 L496.42 622.58 L495.18 622.92 L493.90 623.83 L492.62 624.49 L491.40 624.09 L490.36 621.49 L489.41 618.45 L488.21 618.45 L487.24 616.40 L486.22 615.04 L484.79 617.08 L483.50 617.77 L482.26 618.00 L481.29 616.50 L480.16 616.16 L478.92 616.35 L478.08 614.46 L476.72 615.30 L475.14 617.10 L473.83 617.47 L472.70 617.00 L471.71 615.99 L470.46 616.08 L469.48 615.09 L468.46 614.32 L466.75 615.98 L465.10 617.30 L463.46 618.47 L461.92 619.21 L460.30 620.13 L458.59 621.20 L457.33 620.93 L455.85 621.24 L454.33 621.64 L452.99 621.48 L452.42 619.40 L452.52 615.77 L451.80 614.26 L450.92 613.18 L450.84 610.32 L449.26 610.88 L447.46 611.83 L445.78 612.48 L444.84 611.55 L444.25 609.97 L442.71 610.26 L442.04 608.86 L441.43 607.41 L439.23 608.85 L437.58 609.22 L436.16 609.16 L435.52 607.77 L434.70 606.69 L433.17 606.78 L433.03 604.66 L431.76 604.34 L429.32 605.74 L427.52 606.12 L425.74 606.43 L423.73 607.01 L421.92 607.26 L420.40 607.09 L418.96 606.78 L417.21 606.85 L415.72 606.55 L414.90 605.41 L415.45 602.61 L416.38 599.43 L415.16 598.86 L415.75 596.21 L415.63 594.43 L413.25 595.16 L411.65 594.99 L410.60 594.21 L410.39 592.56 L409.55 591.58 L408.26 591.05 L408.76 588.75 L406.90 588.77 L404.22 589.51 L402.97 588.88 L402.44 587.59 L402.23 586.03 L400.85 585.50 L400.75 583.87 L400.32 582.54 L397.27 583.34 L395.31 583.21 L393.27 583.11 L391.43 582.81 L389.62 582.46 L387.63 582.21 L386.52 581.29 L385.22 580.49 L383.55 579.94 L382.49 578.95 L383.28 576.74 L385.34 573.75 L385.31 572.16 L385.22 570.63 L386.80 568.10 L384.73 567.78 L382.74 567.38 L381.64 566.45 L381.50 564.98 L381.63 563.38 L380.31 562.56 L380.75 560.82 L380.50 559.44 L377.62 559.36 L376.20 558.52 L375.54 557.32 L375.91 555.65 L375.55 554.33 L374.60 553.26 L375.67 551.34 L373.83 550.63 L370.88 550.32 L368.93 549.57 L367.18 548.72 L365.44 547.84 L363.52 546.99 L362.46 545.82 L361.61 544.57 L360.09 543.52 L359.20 542.26 L359.60 540.61 L362.18 538.38 L364.21 536.36 L363.31 535.13 L365.71 533.09 L365.71 531.67 L362.89 530.89 L361.71 529.71 L361.64 528.28 L362.49 526.67 L361.85 525.37 L361.67 523.97 L362.97 522.34 L361.09 521.22 L359.11 520.08 L357.88 518.81 L358.27 517.32 L359.56 515.74 L358.26 514.45 L359.10 512.94 L360.23 511.43 L357.85 510.19 L356.61 508.84 L355.03 507.49 L354.60 506.05 L353.19 504.64 L351.69 503.20 L351.62 501.72 L350.81 500.24 L349.93 498.74 L350.44 497.25 L352.37 495.81 L355.83 494.46 L357.29 493.09 L358.61 491.73 L359.62 490.38 L359.39 488.95 L357.91 487.41 L355.96 485.78 L355.58 484.28 L357.23 483.02 L357.58 481.61 L356.78 480.05 L358.38 478.83 L358.25 477.36 L356.29 475.57 L355.63 473.97 L356.97 472.73 L358.12 471.48 L357.56 469.88 L358.52 468.60 L358.88 467.19 L357.19 465.29 L355.70 463.40 L354.15 461.45 L354.03 459.85 L353.03 457.99 L351.69 456.00 L352.02 454.48 L351.40 452.66 L350.77 450.81 L351.83 449.51 L355.35 449.09 L358.49 448.60 L359.31 447.30 L361.67 446.60 L362.38 445.29 L360.81 443.05 L359.77 440.98 L358.98 438.98 L359.75 437.64 L360.72 436.39 L360.61 434.65 L361.77 433.50 L362.14 431.97 L361.54 429.94 L361.33 428.09 L362.18 426.77 L363.03 425.46 L363.62 424.00 L364.62 422.77 L365.85 421.69 L366.01 419.97 L365.87 418.06 L365.23 415.80 L366.00 414.41 L365.98 412.50 L365.55 410.29 L366.07 408.69 L366.29 406.86 L366.68 405.14 L367.55 403.75 L369.51 403.17 L372.16 403.13 L373.76 402.35 L375.59 401.76 L377.06 400.91 L377.76 399.43 L378.52 398.01 L378.57 395.96 L379.56 394.70 L381.60 394.38 L382.10 392.69 L383.26 391.59 L384.79 390.85 L385.38 389.21 L386.04 387.62 L386.20 385.52 L387.82 384.87 L389.58 384.38 L390.03 382.51 L391.51 381.75 L392.87 380.86 L393.55 379.21 L393.37 376.54 L393.86 374.59 L394.97 373.36 L394.92 370.69 L395.60 368.87 L396.91 367.82 L397.57 365.93 L398.57 364.45 L400.78 364.60 L404.00 366.21 L406.26 366.55 L407.73 365.82 L410.64 367.23 L411.54 365.68 L411.84 363.18 L412.78 361.61 L414.32 361.00 L416.44 361.35 L417.34 359.70 L419.05 359.40 L421.11 359.74 L421.17 356.52 L422.13 354.84 L423.32 353.57 L425.04 353.30 L427.10 353.74 L428.05 351.95 L430.18 352.61 L431.56 351.71 L432.03 348.76 L433.08 347.02 L434.08 345.11 L435.34 343.75 L436.43 341.94 L437.55 340.13 L439.26 339.78 L440.38 337.88 L441.63 336.25 L443.33 335.83 L445.66 337.33 L448.30 339.91 L450.30 340.69 L452.35 341.70 L454.28 342.43 L455.70 341.42 L456.90 339.52 L458.19 337.89 L459.69 336.97 L461.71 338.22 L463.34 337.89 L464.84 336.96 L466.66 337.51 L468.12 336.36 L469.45 334.37 L470.90 332.90 L472.74 333.63 L474.63 334.80 L476.15 333.65 L477.90 334.03 L479.58 333.96 L481.00 331.62 L482.49 329.55 L484.03 327.62 L485.69 326.69 L487.29 324.73 L488.96 323.34 L490.71 322.91 L492.45 321.90 L494.20 320.88 L496.01 321.78 L497.83 325.13 L499.59 326.96 L501.31 327.28 L503.00 329.47 L504.72 328.99 L506.51 326.94 L508.31 325.64 L510.13 324.28 L511.88 324.51 L513.63 324.73 L515.38 324.87 L517.14 324.98 L518.95 324.54 L520.78 324.14 L522.68 323.23 L524.47 323.30 L526.04 324.89 L527.88 324.61 L529.65 324.74 L531.25 325.89 L533.11 325.57 L535.25 323.95 L537.27 323.06 L539.07 323.31 L541.22 322.04 L543.31 321.18 L545.15 321.39 L547.20 320.87 L549.14 320.79 L550.86 321.53 L552.16 323.67 L553.33 326.12 L554.91 327.16 L556.13 329.27 L557.77 330.02 L559.77 329.73 L561.61 329.97 L563.75 329.40 L565.50 329.92 L566.80 331.59 L568.64 331.87 L570.10 333.10 L571.68 333.99 L573.57 334.19 L575.43 334.48 L577.39 334.58 L578.87 335.73 L580.03 337.49 L581.49 338.61 L582.79 340.04 L584.47 340.71 L586.04 341.62 L588.62 340.68 L590.56 340.96 L592.51 341.25 L595.06 340.56 L596.81 341.25 L598.80 341.58 L600.71 342.05 L602.01 343.49 L601.23 348.03 L598.23 355.68 L598.67 358.11 L597.08 363.32 L594.97 369.10 L596.73 369.43 L597.38 371.27 L599.37 371.33 L600.64 372.35 L601.51 373.86 L602.38 375.34 L602.39 377.85 L603.38 379.15 L603.41 381.53 L603.83 383.42 L604.10 385.45 L606.07 385.60 L608.11 385.71 L609.03 387.02 L611.67 386.57 L616.24 384.28 L619.43 383.46 L622.85 382.49 L627.86 380.13 L630.47 380.11 L631.98 381.13 L633.12 382.50 L632.55 385.33 L633.01 387.24 L634.52 388.25 L635.95 389.34 L636.73 390.96 L636.37 393.46 L638.54 393.98 L640.53 394.67 L640.04 397.21 L641.86 398.04 L641.32 400.56 L642.35 401.95 L646.20 401.44 L644.51 404.66 L646.58 405.39 L649.44 405.64 L649.10 407.93 L650.94 408.87 L652.33 410.10 L652.33 412.14 L653.60 413.44 L654.87 414.75 L655.35 416.50 L656.60 417.84 L657.55 419.34 L659.40 420.39 L663.61 420.32 L664.61 421.86 L666.34 423.07 L668.65 424.04 L668.28 426.22 L666.44 429.01 L665.76 431.24 L666.70 432.80 L666.90 434.65 L666.88 436.58 L667.94 438.09 L669.83 439.32 L670.08 441.14 L670.58 442.87 L672.10 444.27 L672.06 446.17 L673.07 447.75 L673.76 449.43 L673.55 451.37 L676.18 452.53 L676.39 454.36 L676.95 456.10 L678.68 457.56 L678.71 459.44 L679.27 461.19 L679.90 462.93 L679.98 464.79 L680.53 466.56 L680.86 468.36 L681.42 470.13 L684.24 471.55 L686.10 473.17 L687.08 474.94 L689.16 476.58 L688.24 478.60 L685.64 480.78 L684.45 482.76 L685.27 484.55 L685.95 486.37 L686.70 488.19 L684.33 490.19 L686.39 491.95 L688.45 493.74 L686.43 495.68 L686.75 497.54 L686.65 499.41 L687.56 501.28 L687.81 503.16 L685.92 504.99 L687.64 506.91 L687.46 508.78 L687.08 510.64 L687.90 512.57 L688.37 514.50 L688.14 516.37 L688.01 518.26 L687.71 520.13 L687.18 521.97 L686.94 523.84 L686.76 525.71 L687.51 527.73 L690.82 530.17 L691.11 532.18 L692.03 534.31 L692.93 536.47 L691.37 538.16 L687.71 539.38 L686.13 541.00 L685.74 542.87 L684.67 544.57 L683.71 546.29 L685.66 548.76 L686.18 550.89 L683.66 552.18 L683.84 554.22 L683.52 556.13 L682.77 557.90 L681.95 559.65 L679.84 560.96 L680.28 563.13 L681.31 565.53 L680.18 567.17 L679.99 569.15 L678.87 570.78 L678.20 572.59 L677.43 574.35 L674.77 575.30 L673.30 576.73 L673.11 578.72 L674.06 581.27 L673.33 583.05 L675.43 586.22 L676.75 589.07 L676.69 591.27 L676.30 593.32 L674.85 594.80 L672.08 595.54 L670.38 596.83 L670.76 599.32 L669.28 600.74 L668.17 602.37 L665.65 603.12 L665.91 605.60 L665.54 607.71 L663.97 609.03 L663.18 610.88 L661.83 612.34 L661.18 614.30 L659.80 615.73 L658.46 617.20 L658.04 619.35 L657.25 621.25 L655.85 622.67 L655.47 624.91 L654.80 626.93 L653.10 628.12 L651.81 629.65 L650.28 630.96 L649.09 632.57 L647.62 633.93 L646.05 635.19 L646.50 638.35 L647.71 642.32 L646.00 643.51 L645.75 646.17 L644.94 648.29 L642.51 648.75 L638.83 647.84 L637.02 648.87 L635.70 650.42 L634.17 651.75 L632.61 653.04 L631.32 654.65 L630.91 657.34 L628.64 657.79 L626.99 658.98 L625.56 660.46 L623.79 661.50 L622.27 662.87 L620.60 664.03 L619.05 665.36 L618.13 667.59 L616.22 668.44 L615.07 670.38 L613.68 672.02 L612.13 673.42 L610.49 674.68 L608.53 675.45 L606.96 676.84 L605.22 677.95 L603.19 678.56 L601.64 680.03 L601.24 683.58 L600.03 685.76 L598.20 686.80 L597.19 689.45 L594.84 689.53 L591.77 688.05 L589.36 687.87 L587.75 689.33 L585.74 689.95 L583.86 690.87 L581.21 689.97 L580.16 692.83 L578.65 694.65 L576.27 694.35 L574.06 694.40 L572.47 696.11 L570.64 697.20 L568.27 696.77 L566.31 697.47 L564.86 699.74 L562.74 700.01 L560.69 700.45 L559.11 702.51 L557.13 703.28 L555.07 703.76 L553.04 704.31 L550.95 704.66 L548.79 704.71 L546.74 705.17 L544.68 705.62 L543.04 708.05 L541.51 711.27 L539.55 712.55 L537.65 714.20 L535.58 715.01 L533.15 713.58 L530.63 711.29 L528.42 710.85 L526.27 710.83 L524.18 711.18 L521.91 709.99 L520.08 712.99 L518.11 715.10 L515.77 712.82 L513.70 713.81 L511.55 713.67 L509.40 713.49 L507.24 713.11 L505.09 712.36 L502.99 713.65 L500.86 714.96 L498.71 714.97 L496.55 715.25 L494.40 715.37 L492.26 714.71 L490.16 713.58 L488.09 712.35 L485.99 711.83 L483.75 713.34 L481.56 713.83 L479.31 714.84 L476.69 719.02 L474.39 719.78 L472.10 720.25 L469.67 721.60 L467.57 720.49 L465.81 717.39 L463.78 716.19 L461.57 716.07 L459.67 714.30 L457.71 712.98 L455.60 712.48 L453.22 713.17 L451.08 712.76 L449.02 711.99 L446.94 711.30 L444.68 711.34 L442.64 710.52 L440.58 709.77 L438.74 708.31 L436.29 708.89 L434.26 708.08 L432.53 706.35 L429.71 707.91 L427.35 708.02 L425.41 706.89 L422.93 707.25 L420.91 706.33 L418.79 705.70 L416.75 704.85 L414.70 704.02 L411.55 705.75 L408.43 707.26 L406.09 706.94 L403.35 707.43 L401.32 706.37 L400.37 703.11 L399.36 700.09 L397.27 699.26 L395.15 698.47 L393.17 697.41 L391.99 694.91 L389.11 695.48 L385.82 696.66 L385.36 692.99 L383.44 691.83 L381.43 690.80 L379.10 690.29 L376.84 689.62 L376.20 686.50 L373.07 687.13 L370.42 686.99 L369.56 684.26 L366.91 684.07 L364.77 683.15 L362.96 681.76 L361.02 680.56 L359.15 679.25 L357.83 677.25 L356.06 675.83 L354.29 674.40 L352.24 673.30 L348.04 674.66 L345.75 673.75 L343.34 672.94 L340.25 672.85 L339.17 670.57 L339.57 666.78 L338.85 664.20 L337.07 662.73 L336.14 660.41 L334.53 658.78 L332.70 657.36 L330.04 656.69 L328.44 655.01 L327.55 652.71 L325.98 651.03 L324.00 649.69 L322.47 647.96 L321.87 645.46 L320.33 643.75 L317.08 643.37 L316.39 640.97 L315.18 638.99 L312.65 637.98 L311.33 636.06 L309.99 634.15 L308.58 632.30 L307.62 630.15 L306.49 628.11 L305.02 626.30 L303.51 624.50 L299.88 624.02 L296.70 623.19 L294.50 621.73 L292.12 620.34 L291.64 617.86 L292.72 614.53 L293.00 611.69 L291.61 609.76 L291.39 607.22 L291.99 604.30 L292.14 601.64 L289.05 600.54 L287.49 598.70 L287.04 596.32 L284.75 594.78 L283.42 592.79 L282.69 590.54 L282.10 588.24 L281.96 585.77 L280.12 583.97 L278.65 582.00 L276.66 580.21 L275.95 577.94 L275.39 575.63 L275.33 573.16 L275.01 570.78 L275.62 568.13 L275.11 565.83 L272.80 564.05 L271.60 561.93 L269.55 560.02 L264.45 558.84 L263.32 556.61 L261.84 554.45 L259.42 552.48 L260.10 549.83 L262.34 546.89 L263.58 544.19 L263.38 541.78 L263.46 539.33 L263.80 536.85 L262.59 534.61 L261.30 532.37 L261.47 529.92 L261.31 527.52 L260.48 525.19 L260.41 522.78 L259.98 520.40 L259.86 517.99 L259.86 515.58 L258.30 513.25 L258.20 510.83 L257.86 508.42 L256.87 506.03 L256.55 503.60 L256.76 501.16 L257.50 498.73 L257.28 496.30 L257.17 493.87 L257.75 491.46 L256.69 488.99 L253.87 486.39 L252.11 483.81 L251.34 481.26 L249.57 478.61 L250.91 476.21 L254.04 474.02 L255.61 471.72 L255.22 469.19 L255.11 466.68 L255.07 464.18 L258.13 462.15 L257.94 459.64 L257.45 457.06 L260.33 455.09 L261.01 452.74 L260.95 450.24 L260.90 447.73 L262.46 445.58 L262.77 443.15 L264.31 441.02 L266.46 439.07 L266.34 436.53 L269.31 434.86 L271.52 433.01 L271.97 430.65 L274.15 428.84 L275.77 426.88 L274.45 423.95 L273.31 421.03 L270.46 417.45 L267.91 413.91 L263.73 409.66 L262.67 406.52 L262.77 403.81 L262.56 400.95 L264.85 399.13 L268.91 398.12 L270.93 396.26 L271.99 393.98 L273.25 391.80 L274.38 389.55 L274.19 386.65 L273.86 383.64 L276.40 382.11 L277.55 379.85 L278.82 377.66 L279.90 375.37 L281.02 373.10 L283.18 371.43 L284.18 369.10 L283.81 365.89 L286.17 364.38 L287.07 361.94 L287.53 359.21 L289.02 357.14 L290.32 354.94 L292.08 353.06 L293.00 350.58 L294.29 348.36 L296.09 346.52 L297.14 344.10 L296.47 340.33 L297.21 337.61 L298.06 334.94 L298.58 331.98 L301.33 330.88 L305.12 330.72 L307.83 329.67 L309.00 327.27 L311.35 325.93 L313.96 324.86 L317.03 324.27 L318.64 322.30 L320.40 320.47 L321.25 317.70 L323.75 316.62 L325.12 314.37 L326.39 311.98 L328.08 310.03 L329.82 308.13 L331.85 306.56 L331.85 302.60 L333.10 300.05 L335.84 299.30 L337.85 297.66 L339.90 296.07 L342.61 295.34 L345.60 295.02 L347.06 292.68 L348.05 289.65 L350.68 288.87 L351.70 285.80 L352.44 282.26 L355.49 282.09 L357.06 279.70 L359.11 278.04 L361.12 276.29 L363.50 275.13 L365.86 273.96 L367.64 271.79 L369.79 270.22 L372.75 270.12 L375.30 269.32 L376.30 265.59 L378.96 264.97 L381.11 263.35 L383.53 262.28 L385.73 260.75 L387.87 259.06 L391.08 259.71 L392.98 257.47 L394.41 254.09 L397.98 255.70 L400.01 253.66 L402.29 252.20 L404.74 251.13 L407.22 250.16 L409.81 249.48 L412.28 248.47 L414.91 247.96 L417.49 247.29 L420.10 246.72 L422.07 244.07 L424.71 243.56 L427.40 243.24 L429.52 240.87 L432.13 240.26 L434.76 239.69 L437.30 238.77 L439.97 238.43 L442.47 237.30 L444.96 236.07 L448.11 238.08 L450.38 235.70 L452.71 233.43 L455.51 233.78 L458.24 233.77 L460.83 232.81 L463.48 232.29 L466.28 232.88 L468.92 232.29 L471.39 229.97 L474.16 230.45 L476.88 230.49 L479.44 228.50 L482.17 228.56 L484.90 228.56 L487.60 228.12 L490.34 228.55 L493.06 228.87 L495.77 228.68 L498.49 229.56 L501.20 228.09 L503.93 227.35 L506.65 227.74 L509.42 226.60 L512.14 226.85 L514.92 226.23 L517.62 226.87 L520.37 226.81 L523.12 226.82 L525.86 226.98 L528.47 228.37 L531.17 228.75 L534.16 226.87 L536.91 227.05 L539.68 227.15 L542.37 227.84 L545.07 228.39 L547.83 228.59 L550.32 230.23 L553.28 229.42 L556.23 228.78 L558.73 230.31 L561.69 229.73 L564.35 230.56 L567.22 230.50 L569.74 231.84 L572.51 232.20 L575.30 232.53 L577.99 233.24 L580.35 235.03 L583.12 235.44 L586.56 233.83 L588.71 236.21 L591.36 237.08 L594.52 236.51 L597.03 237.79 L599.63 238.83 L602.41 239.40 L604.73 241.12 L607.28 242.27 L609.86 243.34 L612.39 244.50 L615.22 245.02 L618.36 244.91 L620.94 246.02 L623.18 247.86 L625.42 249.66 L628.09 250.58 L630.91 251.24 L632.95 253.38 L636.00 253.64 L638.65 254.68 L640.98 256.27 L643.48 257.59 L646.48 258.07 L649.22 259.02 L651.56 260.63 L653.63 262.64 L656.44 263.52 L659.50 264.05 L660.51 267.60 L663.16 268.74 L666.42 269.06 L668.27 271.34 L670.76 272.75 L673.05 274.44 L675.80 275.55 L678.01 277.34 L679.90 279.53 L682.29 281.11 L685.20 282.08 L686.80 284.60 L688.80 286.65 L691.89 287.48 L692.95 290.55 L694.66 292.89 L696.41 295.17 L698.55 297.04 L702.17 297.44 L705.18 298.50 L706.77 300.95 L708.94 302.85 L710.92 304.93 L712.64 307.25 L714.95 309.04 L717.59 310.55 L719.79 312.47 L721.26 315.01 L722.84 317.44 L724.47 319.82 L725.45 322.71 L727.12 325.05 L730.48 326.10 L732.55 328.17 L735.28 329.76 L736.70 332.31 L738.97 334.26 L742.30 335.52 L743.16 338.47 L743.72 341.58 L745.55 343.86 L747.47 346.10 L746.67 349.99 L746.78 353.29 L749.78 354.87 L752.63 356.57 L752.79 359.80 L754.95 361.92 L758.16 363.50 L758.13 366.81 L757.55 370.35 L757.97 373.35 L761.29 374.95 L763.23 377.24 L763.32 380.39 L766.62 382.10 L769.20 384.16 L770.92 386.62 L772.44 389.17 L774.18 391.64 L775.68 394.22 L776.30 397.14 L777.07 400.00 L777.75 402.88 L779.35 405.45 L780.86 408.05 L781.70 410.89 L784.43 413.15 L785.09 416.05 L785.00 419.17 L785.77 422.03 L786.38 424.93 L786.82 427.87 L787.64 430.71 L788.39 433.58 L789.47 436.37 L790.38 439.21 L789.77 442.35 L789.74 445.37 L790.76 448.18 L791.45 451.06 L792.28 453.92 L793.89 456.67 L794.42 459.60 L794.27 462.61 L795.03 465.51 L796.73 468.32 L794.88 471.49 L795.72 474.40 L797.86 477.21 L797.30 480.24 L797.96 483.19 L800.30 486.06 L803.23 488.97 L804.03 491.98 L806.23 494.99 L806.55 498.05 L805.58 501.11 L802.74 504.13 L800.91 507.11 L801.22 510.13 L801.19 513.15 L800.92 516.15 L801.32 519.20 L802.56 522.32 L800.91 525.22 L800.04 528.18 L799.81 531.18 L800.13 534.25 L800.00 537.28 L798.40 540.11 L798.83 543.22 L799.65 546.40 L798.07 549.21 L798.60 552.37 L798.30 555.40 L798.30 558.49 L797.40 561.41 L796.43 564.31 L796.04 567.33 L795.15 570.24 L793.88 573.05 L794.09 576.23 L796.05 579.91 L796.08 583.10 L797.04 586.58 L797.40 589.92 L796.02 592.75 L792.71 594.94 L790.51 597.44 L790.36 600.63 L789.67 603.65 L788.47 606.49 L785.49 608.65 L786.09 612.16 L785.86 615.38 L783.26 617.64 L782.65 620.71 L781.53 623.58 L780.77 626.61 L779.60 629.46 L777.71 631.97 L777.88 635.48 L775.92 637.96 L774.53 640.71 L774.48 644.16 L773.06 646.92 L771.21 649.44 L769.82 652.21 L767.65 654.54 L765.76 657.01 L764.17 659.66 L763.10 662.63 L763.43 666.49 L763.99 670.57 L763.42 673.96 L763.47 677.80 L761.54 680.33 L758.80 682.28 L754.49 683.08 L751.52 684.79 L749.69 687.32 L747.23 689.36 L744.89 691.49 L745.01 695.56 L743.79 698.61 L740.35 699.84 L739.01 702.80 L736.66 704.91 L735.51 708.07 L735.90 712.66 L734.39 715.59 L732.04 717.75 L730.93 721.09 L727.52 722.22 L724.09 723.29 L719.97 723.62 L718.67 726.79 L716.40 728.98 L713.99 731.01 L712.19 733.71 L709.94 735.93 L707.45 737.88 L704.64 739.45 L703.93 743.51 L702.12 746.32 L699.92 748.66 L698.79 752.38 L695.76 753.72 L692.15 754.26 L689.51 756.04 L687.32 758.45 L684.16 759.52 L681.20 760.83 L678.06 761.86 L676.46 765.16 L673.84 766.98 L671.10 768.61 L668.32 770.18 L665.24 771.23 L662.15 772.25 L659.47 773.95 L656.76 775.60 L654.38 777.84 L652.08 780.26 L649.50 782.20 L646.42 783.19 L643.73 784.94 L641.50 787.66 L637.79 787.32 L635.34 789.61 L632.67 791.47 L629.78 792.83 L627.16 794.85 L625.11 798.26 L623.12 801.95 L620.34 803.78 L618.08 807.01 L614.84 807.74 L611.18 807.28 L607.18 805.75 L603.89 806.13 L600.87 807.31 L597.85 808.47 L594.47 808.48 L591.76 810.70 L589.11 813.23 L585.59 812.70 L582.26 812.80 L579.20 813.87 L576.23 815.36 L573.13 816.36 L569.67 815.77 L566.74 817.52 L563.75 819.14 L560.35 818.69 L557.38 820.47 L554.18 821.11 L551.04 822.06 L547.79 822.41 L544.52 822.56 L541.32 823.20 L538.01 822.95 L534.73 822.81 L531.64 824.62 L528.63 827.60 L525.44 829.08 L522.29 831.39 L519.01 832.18 L515.70 832.54 L512.29 830.39 L508.94 829.10 L505.67 830.18 L502.36 829.45 L499.07 828.56 L495.80 827.07 L492.48 829.25 L489.18 829.30 L485.91 828.74 L482.59 829.25 L479.29 829.15 L475.99 829.13 L472.75 828.25 L469.43 828.41 L466.01 829.38 L462.78 828.44 L459.40 828.87 L456.00 829.33 L452.73 828.67 L449.46 828.14 L446.23 827.29 L442.98 826.65 L439.66 826.34 L436.22 826.64 L433.00 825.78 L429.05 828.29 L425.13 830.43 L421.91 829.31 L418.16 830.37 L415.06 828.77 L412.30 825.94 L409.63 822.96 L406.65 821.20 L403.49 820.11 L400.29 819.12 L397.34 817.39 L393.37 818.73 L389.75 818.93 L387.19 816.07 L383.83 815.48 L380.74 814.14 L376.97 814.55 L372.47 816.69 L369.20 815.66 L365.17 816.41 L361.46 816.30 L359.49 812.27 L357.01 809.46 L355.14 805.46 L352.26 803.65 L349.28 802.06 L346.21 800.64 L343.17 799.17 L340.21 797.54 L337.47 795.51 L334.44 794.02 L329.90 795.14 L326.58 794.07 L323.42 792.70 L319.39 792.72 L316.77 790.42 L314.98 786.86 L312.56 784.33 L309.18 783.26 L306.58 781.00 L303.99 778.77 L301.56 776.31 L297.34 776.30 L294.04 775.00 L292.11 771.87 L289.51 769.63 L285.80 768.79 L281.01 769.24 L275.32 770.66 L272.95 768.02 L269.01 767.20 L266.57 764.63 L266.01 759.98 L265.89 754.94 L264.50 751.36 L262.18 748.80 L259.52 746.60 L257.34 743.91 L254.80 741.58 L252.25 739.25 L251.20 735.51 L248.76 733.10 L246.36 730.65 L244.96 727.30 L242.01 725.34 L238.86 723.54 L236.31 721.19 L232.83 719.59 L229.91 717.50 L227.63 714.89 L225.17 712.40 L224.08 708.87 L221.41 706.54 L217.85 704.84 L216.26 701.70 L214.18 698.90 L212.67 695.72 L210.26 693.14 L207.30 690.92 L207.18 686.85 L205.19 684.00 L201.57 682.14 L200.79 678.53 L198.86 675.62 L196.85 672.75 L194.36 670.15 L192.38 667.24 L191.23 663.89 L189.89 660.64 L187.76 657.81 L186.02 654.77 L185.27 651.24 L182.82 648.53 L180.98 645.52 L179.85 642.19 L177.78 639.27 L175.53 636.40 L173.68 633.36 L172.72 629.95 L171.93 626.48 L171.27 622.97 L170.12 619.65 L169.34 616.21 L167.21 613.23 L164.50 610.42 L163.08 607.17 L162.33 603.70 L161.68 600.21 L160.66 596.83 L159.42 593.51 L158.32 590.15 L157.12 586.81 L155.99 583.44 L154.47 580.16 L153.87 576.66 L153.12 573.20 L151.77 569.85 L151.05 566.37 L150.50 562.86 L149.44 559.44 L147.93 556.08 L147.74 552.50 L147.63 548.92 L146.69 545.46 L145.32 542.03 L145.33 538.44 L145.07 534.88 L144.41 531.36 L143.67 527.84 L143.50 524.27 L143.65 520.68 L142.95 517.14 L142.49 513.58 L143.11 509.98 L141.44 506.44 L139.05 502.87 L139.88 499.27 L141.16 495.68 L140.30 492.07 L139.37 488.44 L141.66 484.93 L142.33 481.37 L140.86 477.69 L141.26 474.11 L140.49 470.44 L140.76 466.84 L139.96 463.13 L139.73 459.47 L141.24 456.00 L141.70 452.41 L141.07 448.67 L142.51 445.23 L144.22 441.84 L143.40 438.04 L144.21 434.51 L144.19 430.82 L144.79 427.24 L144.87 423.55 L143.58 419.54 L145.67 416.27 L147.32 412.93 L147.34 409.19 L147.49 405.46 L149.56 402.24 L149.68 398.49 L151.16 395.13 L152.34 391.68 L154.15 388.44 L155.46 385.04 L155.92 381.36 L157.88 378.20 L158.37 374.51 L158.13 370.52 L160.53 367.53 L162.43 364.37 L164.19 361.16 L164.61 357.39 L165.19 353.67 L167.45 350.68 L168.15 346.99 L168.78 343.24 L170.73 340.12 L171.85 336.58 L171.59 332.34 L171.34 328.04 L172.24 324.32 L172.57 320.26 L175.23 317.47 L179.55 315.66 L182.67 313.20 L183.90 309.64 L185.78 306.47 L187.17 302.98 L190.17 300.52 L191.23 296.80 L191.49 292.52 L194.59 290.14 L196.93 287.26 L199.51 284.55 L201.38 281.34 L203.58 278.36 L206.41 275.86 L207.51 272.04 L209.83 269.15 L211.96 266.10 L213.59 262.63 L215.66 259.51 L218.42 256.98 L220.63 253.96 L223.07 251.15 L225.49 248.32 L227.87 245.44 L231.71 243.96 L232.74 239.79 L232.61 234.40 L236.06 232.54 L237.08 228.18 L239.64 225.39 L242.88 223.31 L247.76 223.06 L251.62 221.76 L254.09 218.93 L257.38 217.02 L260.18 214.56 L262.03 210.94 L263.72 207.08 L267.35 205.60 L270.35 203.34 L273.27 200.98 L276.60 199.18 L279.63 196.97 L282.94 195.16 L285.99 192.98 L287.93 189.20 L291.43 187.65 L294.27 185.14 L296.61 181.82 L300.13 180.32 L303.12 177.99 L306.47 176.23 L309.72 174.31 L312.76 172.04 L316.23 170.51 L319.41 168.46 L321.39 164.14 L324.10 161.10 L327.17 158.72 L329.79 155.37 L333.82 154.89 L338.59 156.04 L342.46 155.36 L345.43 152.72 L348.79 150.92 L352.02 148.77 L356.46 149.55 L359.18 146.17 L362.00 142.88 L366.26 143.34 L369.87 142.13 L373.36 140.56 L375.82 135.98 L378.01 130.34 L381.87 129.64 L385.33 127.66 L388.87 125.89 L393.13 126.59 L397.81 128.97 L402.09 130.11 L405.92 129.65 L409.57 128.48 L413.31 127.67 L417.04 126.86 L420.69 125.61 L424.52 125.26 L428.24 124.35 L431.32 119.89 L435.14 119.32 L438.77 117.59 L442.38 115.49 L446.39 116.10 L450.55 118.10 L454.50 118.71 L458.30 118.08 L462.11 117.61 L465.93 117.17 L469.55 114.15 L473.34 112.84 L477.29 114.03 L481.18 114.29 L485.07 114.97 L488.93 115.13 L492.77 114.43 L496.63 114.87 L500.48 113.68 L504.36 112.27 L508.22 112.96 L512.06 113.98 L515.89 114.92 L519.82 113.58 L523.71 113.36 L527.52 114.35 L531.48 113.41 L535.36 113.49 L539.21 114.00 L543.14 113.82 L547.28 111.97 L551.47 110.11 L555.44 110.11 L559.61 108.87 L563.28 110.93 L566.72 114.16 L570.47 115.42 L574.44 115.52 L578.13 117.02 L581.92 117.97 L585.50 119.88 L589.72 118.93 L593.80 118.73 L597.53 120.00 L601.22 121.40 L605.02 122.35 L608.82 123.34 L612.40 125.04 L616.15 126.17 L620.26 126.16 L624.10 127.07 L627.72 128.63 L631.90 128.59 L635.67 129.77 L639.20 131.56 L643.03 132.59 L646.62 134.23 L650.34 135.54 L654.06 136.87 L657.04 139.90 L661.70 139.10 L666.69 137.73 L670.06 139.93 L674.91 139.05 L678.32 141.21 L681.23 144.32 L683.29 149.00 L686.55 151.30 L690.04 153.16 L693.42 155.21 L696.96 156.98 L701.04 157.86 L705.36 158.36 L708.04 161.62 L711.66 163.32 L714.89 165.66 L717.92 168.28 L721.25 170.44 L724.29 173.02 L727.83 174.88 L732.01 175.86 L734.77 178.85 L738.59 180.37 L742.24 182.16 L745.38 184.64 L748.70 186.89 L751.52 189.76 L754.82 192.03 L757.92 194.56 L760.53 197.65 L764.09 199.65 L769.14 200.01 L773.07 201.68 L776.44 204.00 L780.78 205.32 L783.04 208.83 L784.05 213.58 L786.00 217.32 L789.26 219.76 L791.80 222.90 L794.78 225.63 L796.12 229.86 L800.69 231.15 L804.16 233.47 L805.96 237.25 L808.21 240.64 L811.81 242.88 L816.99 243.89 L823.00 244.33 L825.39 247.69 L828.55 250.47 L831.41 253.48 L831.83 258.28 L831.36 263.66 L832.17 268.06 L834.33 271.49 L836.48 274.93 L838.88 278.19 L841.04 281.62 L843.39 284.92 L844.92 288.74 L847.71 291.78 L852.55 293.64 L854.59 297.18 L857.91 300.01 L860.76 303.12 L861.84 307.20 L861.61 311.94 L862.72 315.95 L865.68 319.02 L870.90 321.04 L877.37 322.54 L882.81 324.64 L891.09 325.56 L894.94 328.56 L896.85 332.42 L898.83 336.27 L900.40 340.28 L902.53 344.08 L904.02 348.13 L905.30 352.26 L907.23 356.15 L908.65 360.23 L909.98 364.34 L911.91 368.25 L913.15 372.40 L914.18 376.60 L915.89 380.61 L917.61 384.62 L918.60 388.84 L919.99 392.96 L922.84 396.72 L924.23 400.87 L925.41 405.07 L927.31 409.12 L928.89 413.26 L929.93 417.51 L930.92 421.78 L931.86 426.07 L932.76 430.36 L933.63 434.66 L934.43 438.98 L935.18 443.30 L935.90 447.64 L936.57 451.98 L937.19 456.33 L937.78 460.69 L938.35 465.05 L938.84 469.43 L939.31 473.81 L939.74 478.19 L940.11 482.58 L940.44 486.98 L940.72 491.38 L940.96 495.79 L942.06 500.00 L941.88 495.58 L941.61 491.17 L941.35 486.76 L940.99 482.35 L940.61 477.95 L940.17 473.56 L939.69 469.17 L939.19 464.79 L938.62 460.42 L938.01 456.05 L937.37 451.69 L936.67 447.35 L935.94 443.01 L935.17 438.67 L934.36 434.35 L933.49 430.04 L932.61 425.74 L931.68 421.45 L930.68 417.17 L929.67 412.90 L928.98 408.57 L928.32 404.22 L927.20 399.97 L926.88 395.54 L925.80 391.27 L924.46 387.08 L923.57 382.77 L922.11 378.62 L920.51 374.52 L919.27 370.31 L917.96 366.12 L916.04 362.13 L914.56 358.00 L913.04 353.89 L911.12 349.93 L909.28 345.94 L907.57 341.92 L905.95 337.86 L904.17 333.87 L902.41 329.86 L900.52 325.92 L903.82 319.66 L907.44 313.14 L906.75 308.51 L908.56 302.65 L909.07 297.33 L906.72 293.40 L904.34 289.50 L900.97 286.12 L897.02 283.11 L896.24 278.36 L894.61 274.06 L892.35 270.11 L892.67 264.62 L890.30 260.70 L887.56 257.02 L885.25 253.06 L881.67 249.94 L878.90 246.31 L876.19 242.64 L872.22 239.85 L867.64 237.54 L862.08 236.00 L857.08 234.14 L854.96 230.16 L852.77 226.21 L849.37 223.21 L850.21 216.80 L849.47 211.57 L846.76 207.93 L843.29 204.93 L839.08 202.61 L837.42 198.04 L834.97 194.14 L831.24 191.42 L828.29 187.97 L824.94 184.91 L820.32 183.12 L815.19 181.90 L810.14 180.67 L806.12 178.43 L804.36 173.81 L801.69 170.12 L799.28 166.12 L797.54 161.30 L794.72 157.66 L790.68 155.46 L786.88 152.98 L783.24 150.31 L779.12 148.26 L775.26 145.91 L771.23 143.81 L768.12 140.49 L764.77 137.46 L760.75 135.37 L758.00 131.49 L754.34 128.86 L750.28 126.85 L746.29 124.74 L741.98 123.15 L737.77 121.42 L733.92 119.14 L730.06 116.89 L727.16 113.01 L722.88 111.45 L718.63 109.86 L714.44 108.21 L709.91 107.21 L705.59 105.86 L700.75 105.58 L696.05 105.09 L691.58 104.21 L688.78 99.84 L684.44 98.69 L681.51 94.41 L678.27 90.72 L673.45 90.66 L669.28 89.10 L665.08 87.66 L660.69 86.69 L656.47 85.30 L651.94 84.79 L647.73 83.42 L643.97 80.77 L639.69 79.61 L635.50 78.16 L631.59 75.79 L627.22 74.91 L622.70 74.57 L618.36 73.65 L613.90 73.20 L609.39 72.99 L605.13 71.89 L601.10 69.74 L596.85 68.51 L592.61 67.18 L588.32 66.09 L583.65 66.89 L578.94 68.14 L574.15 70.08 L569.45 71.80 L565.05 71.87 L561.07 69.12 L556.85 67.85 L552.76 65.39 L548.66 62.61 L544.31 61.92 L539.87 62.10 L535.47 61.95 L531.13 61.09 L526.70 61.43 L522.30 61.35 L517.96 60.12 L513.54 60.61 L509.11 61.91 L504.72 63.04 L500.35 61.75 L495.97 61.98 L491.61 63.05 L487.22 62.61 L482.88 63.45 L478.57 64.73 L474.25 65.49 L469.94 66.26 L465.44 64.61 L461.11 65.15 L456.83 66.29 L452.49 66.65 L448.32 68.49 L444.11 69.83 L440.02 71.93 L436.02 74.36 L431.53 73.59 L427.20 73.88 L422.93 74.53 L418.02 71.90 L413.77 72.89 L409.60 74.19 L405.29 74.90 L401.26 76.76 L397.11 78.11 L392.99 79.50 L389.15 81.97 L385.78 86.00 L382.76 91.05 L379.34 94.47 L375.07 94.98 L370.81 95.60 L367.01 97.61 L361.37 94.21 L356.47 93.22 L352.56 95.09 L348.62 96.86 L345.13 99.76 L340.57 99.91 L336.24 100.70 L332.68 103.37 L328.45 104.44 L324.89 107.05 L322.03 111.13 L319.20 115.16 L316.35 119.04 L312.88 121.56 L308.11 121.50 L303.95 122.69 L299.66 123.67 L294.61 123.32 L291.02 125.70 L287.64 128.43 L283.87 130.45 L280.45 133.06 L277.18 135.92 L273.66 138.34 L270.52 141.35 L266.35 142.76 L262.70 144.97 L259.55 147.93 L255.10 149.00 L251.66 151.55 L248.62 154.64 L245.49 157.59 L242.60 160.85 L239.47 163.76 L236.48 166.83 L233.02 169.31 L228.88 170.97 L226.06 174.25 L222.96 177.16 L220.01 180.25 L217.72 184.06 L215.47 187.89 L213.73 192.21 L211.84 196.33 L209.05 199.47 L204.40 200.71 L202.22 204.48 L196.87 205.12 L192.79 207.08 L191.24 211.44 L188.34 214.52 L185.90 218.00 L183.51 221.52 L181.12 225.03 L178.97 228.73 L176.43 232.08 L172.91 234.63 L170.45 238.05 L168.02 241.50 L164.24 243.91 L162.67 248.00 L160.41 251.57 L158.23 255.18 L156.59 259.17 L154.74 262.99 L152.11 266.27 L148.99 269.23 L146.79 272.81 L144.08 276.07 L141.93 279.68 L141.45 284.30 L141.26 289.04 L141.29 293.86 L141.36 298.64 L139.82 302.49 L136.05 305.13 L133.15 308.27 L129.53 311.07 L125.67 313.80 L123.77 317.52 L122.41 321.50 L120.75 325.34 L118.69 328.99 L117.72 333.12 L115.98 336.92 L113.83 340.54 L112.92 344.68 L112.43 348.97 L111.74 353.15 L109.44 356.73 L108.29 360.74 L107.78 364.96 L105.83 368.68 L105.12 372.81 L104.85 377.08 L104.02 381.15 L102.85 385.11 L101.34 388.98 L101.92 393.42 L99.78 397.13 L98.44 401.05 L98.74 405.37 L99.32 409.73 L96.69 413.37 L95.72 417.38 L95.14 421.47 L93.61 425.38 L93.16 429.50 L91.90 433.47 L92.81 437.80 L93.18 442.01 L92.18 446.02 L92.21 450.17 L93.12 454.41 L92.27 458.43 L91.00 462.43 L91.07 466.56 L89.96 470.59 L89.73 474.70 L88.46 478.75 L89.27 482.91 L91.22 487.08 L90.71 491.16 L90.71 495.26 L92.21 499.35 L93.16 503.42 L91.30 507.52 L90.89 511.62 L91.95 515.68 L91.88 519.77 L91.99 523.86 L93.25 527.87 L93.98 531.90 L94.45 535.95 L95.20 539.96 L96.40 543.93 L97.59 547.87 L97.30 552.00 L97.74 556.03 L98.76 559.99 L99.55 563.97 L99.60 568.07 L100.65 572.01 L101.96 575.89 L103.36 579.75 L104.17 583.71 L105.49 587.56 L106.93 591.37 L107.13 595.48 L108.01 599.43 L109.17 603.30 L109.68 607.36 L110.60 611.30 L112.44 614.98 L114.18 618.68 L116.23 622.26 L117.59 626.05 L118.18 630.11 L119.00 634.09 L121.16 637.60 L122.62 641.36 L124.53 644.94 L126.78 648.38 L128.82 651.89 L130.34 655.60 L131.64 659.40 L133.63 662.91 L135.84 666.31 L137.39 670.00 L138.67 673.83 L141.18 677.07 L142.69 680.78 L144.32 684.45 L146.59 687.78 L149.48 690.76 L151.65 694.13 L153.40 697.72 L155.69 701.00 L158.18 704.16 L161.38 706.87 L162.04 711.13 L164.19 714.49 L167.73 716.94 L168.98 720.88 L171.09 724.25 L173.95 727.11 L176.60 730.10 L179.74 732.72 L180.84 736.84 L183.17 740.06 L186.40 742.59 L188.71 745.82 L191.44 748.71 L192.70 752.80 L194.09 756.83 L197.54 759.14 L198.56 763.54 L201.03 766.70 L205.41 768.13 L208.18 770.99 L211.54 773.30 L215.75 774.75 L218.57 777.53 L221.76 779.92 L225.11 782.13 L228.12 784.69 L231.52 786.82 L236.17 787.56 L241.57 787.39 L246.54 787.59 L249.62 789.90 L251.63 793.45 L254.78 795.67 L254.94 801.56 L255.98 806.50 L258.59 809.52 L262.29 811.14 L266.44 812.13 L268.69 815.66 L271.04 819.10 L274.85 820.51 L277.69 823.29 L281.53 824.61 L285.23 826.11 L289.47 826.73 L293.72 827.28 L297.40 828.69 L299.42 832.80 L302.63 835.02 L305.66 837.55 L307.85 841.60 L311.23 843.60 L315.19 844.49 L318.88 845.88 L322.58 847.21 L326.34 848.41 L330.03 849.73 L333.96 850.52 L338.64 849.63 L343.06 849.19 L347.50 848.58 L350.26 851.81 L353.58 853.81 L357.01 855.54 L359.35 860.07 L362.58 862.46 L366.37 863.38 L369.98 864.79 L373.47 866.54 L376.81 868.80 L380.58 869.78 L384.73 869.50 L388.72 869.69 L392.88 869.19 L397.01 868.72 L401.23 867.75 L405.36 866.98 L409.15 867.45 L412.36 870.30 L416.11 870.97 L419.20 874.68 L422.41 878.14 L426.26 878.54 L429.96 879.74 L433.84 879.95 L437.73 880.10 L441.62 880.13 L445.53 879.92 L449.47 879.46 L453.19 880.53 L456.92 881.70 L460.85 881.01 L464.56 882.45 L468.37 883.05 L472.28 882.22 L476.13 882.09 L479.97 882.07 L483.79 882.07 L487.65 881.30 L491.43 882.50 L495.25 883.19 L499.09 882.70 L502.91 881.97 L506.71 880.81 L510.48 879.34 L514.18 876.89 L517.84 874.45 L521.55 873.70 L525.37 874.73 L529.27 876.39 L533.14 877.25 L537.10 878.89 L541.02 879.69 L544.81 879.21 L548.38 877.09 L552.11 876.30 L555.82 875.43 L559.41 873.82 L563.11 873.02 L566.79 872.06 L570.71 872.45 L574.18 870.49 L578.02 870.37 L581.93 870.51 L585.27 868.14 L588.98 867.39 L592.69 866.65 L596.26 865.36 L599.88 864.27 L603.37 862.75 L607.25 862.56 L610.79 861.20 L613.81 858.24 L617.04 856.02 L620.06 853.28 L623.37 851.44 L626.16 848.20 L628.88 844.91 L632.17 843.20 L636.33 843.70 L640.00 842.91 L644.27 843.53 L648.61 844.17 L651.95 842.46 L655.27 840.69 L658.85 839.52 L662.10 837.62 L664.76 834.56 L668.50 833.69 L671.61 831.56 L674.55 829.14 L677.74 827.20 L681.08 825.56 L684.55 824.11 L687.60 821.94 L690.92 820.24 L693.71 817.65 L696.37 814.89 L699.36 812.68 L702.26 810.33 L705.40 808.36 L708.63 806.52 L712.01 804.89 L714.75 802.33 L716.69 798.70 L718.59 795.06 L720.58 791.60 L722.60 788.24 L725.74 786.33 L730.00 785.82 L732.79 783.43 L736.24 781.84 L740.36 780.99 L742.28 777.57 L744.82 774.89 L747.56 772.43 L750.40 770.07 L752.82 767.27 L755.16 764.40 L758.20 762.25 L759.08 757.94 L759.86 753.58 L761.51 750.14 L764.86 748.32 L766.55 744.95 L769.57 742.79 L773.80 741.69 L776.66 739.33 L778.66 736.23 L780.84 733.30 L782.78 730.16 L786.13 728.18 L787.89 724.91 L789.65 721.65 L791.20 718.26 L791.99 714.32 L793.15 710.70 L793.31 706.39 L793.61 702.24 L795.49 699.21 L799.12 697.34 L802.13 695.02 L806.52 693.53 L810.05 691.46 L812.32 688.57 L814.02 685.34 L815.05 681.72 L815.90 678.03 L817.15 674.58 L818.19 671.02 L819.19 667.47 L821.76 664.74 L823.48 661.55 L824.24 657.90 L826.77 655.11 L827.94 651.67 L828.97 648.17 L829.94 644.65 L831.27 641.31 L832.44 637.89 L833.79 634.56 L835.28 631.27 L837.21 628.16 L837.98 624.59 L838.78 621.05 L837.95 616.96 L837.31 612.97 L836.39 608.94 L836.15 605.16 L836.94 601.72 L839.02 598.66 L841.98 595.82 L843.80 592.63 L846.35 589.61 L848.03 586.34 L848.76 582.83 L848.85 579.18 L849.81 575.72 L849.75 572.06 L849.41 568.35 L850.52 564.94 L850.60 561.33 L851.97 557.95 L851.42 554.26 L852.78 550.86 L853.97 547.42 L853.37 543.75 L853.53 540.19 L853.96 536.65 L853.86 533.07 L854.27 529.54 L853.55 525.92 L854.40 522.42 L853.80 518.83 L853.44 515.27 L852.44 511.70 L851.01 508.14 L849.55 504.61 L847.28 501.11 L845.62 497.64 L845.55 494.19 L847.47 490.68 L847.82 487.19 L850.19 483.59 L851.97 479.98 L851.46 476.48 L850.11 473.05 L851.22 469.43 L850.34 465.98 L848.31 462.65 L848.51 459.10 L847.67 455.67 L846.88 452.24 L845.98 448.84 L845.81 445.32 L845.83 441.77 L844.45 438.45 L844.07 434.96 L842.50 431.71 L841.05 428.44 L839.80 425.15 L838.85 421.80 L838.49 418.31 L837.45 414.98 L835.78 411.82 L835.03 408.43 L833.69 405.20 L831.10 402.34 L829.49 399.22 L830.33 395.35 L829.16 392.08 L828.17 388.76 L827.68 385.26 L826.54 381.98 L824.20 379.15 L821.97 376.30 L821.02 372.96 L819.42 369.89 L818.26 366.63 L817.39 363.25 L817.10 359.60 L817.92 355.42 L814.78 353.03 L813.74 349.68 L813.78 345.78 L810.68 343.43 L807.23 341.29 L804.14 339.02 L804.37 334.98 L803.27 331.63 L799.65 329.70 L799.36 325.88 L798.38 322.43 L794.08 320.98 L790.42 319.21 L788.45 316.40 L786.25 313.76 L782.68 312.03 L779.70 309.95 L779.33 306.09 L777.38 303.31 L774.72 301.03 L773.80 297.50 L772.14 294.48 L770.93 291.11 L768.16 288.94 L765.07 287.04 L762.63 284.64 L759.69 282.67 L756.59 280.87 L754.22 278.46 L752.12 275.81 L749.62 273.53 L746.99 271.37 L744.75 268.85 L742.87 265.99 L740.03 264.05 L738.51 260.82 L737.23 257.29 L734.71 255.01 L731.49 253.49 L728.42 251.83 L724.99 250.60 L723.19 247.56 L720.18 245.89 L716.72 244.77 L714.62 242.06 L711.81 240.19 L708.52 238.95 L705.74 237.08 L703.22 234.88 L700.24 233.28 L697.46 231.43 L694.12 230.36 L692.17 227.36 L689.38 225.53 L685.65 225.10 L683.49 222.35 L680.79 220.41 L677.53 219.33 L674.51 217.90 L671.75 216.05 L669.01 214.17 L665.90 212.91 L662.63 211.96 L659.84 210.17 L657.31 207.88 L654.07 206.91 L651.43 204.81 L648.46 203.33 L645.31 202.23 L641.80 201.88 L638.64 200.86 L635.99 198.71 L633.03 197.22 L629.83 196.31 L626.82 194.94 L623.64 193.99 L620.23 193.63 L617.06 192.73 L613.74 192.21 L610.40 191.81 L607.74 189.49 L604.52 188.75 L600.95 189.13 L598.54 185.89 L595.41 184.87 L591.92 185.08 L588.71 184.37 L585.48 183.75 L582.14 183.56 L578.79 183.50 L575.54 183.07 L572.38 182.26 L569.41 180.58 L565.99 181.00 L563.08 178.88 L559.96 177.79 L556.56 178.18 L553.26 178.11 L549.94 178.22 L546.64 178.33 L543.40 178.05 L540.12 178.04 L537.08 176.06 L533.74 176.65 L530.44 177.07 L527.21 176.78 L523.94 177.06 L520.68 177.19 L517.40 177.93 L514.18 177.70 L510.96 177.69 L507.76 176.49 L504.52 176.97 L501.29 176.00 L498.05 175.18 L494.81 176.27 L491.59 177.00 L488.40 177.95 L485.21 178.94 L482.03 179.53 L478.88 180.50 L475.74 181.50 L472.42 180.15 L469.26 180.84 L466.16 181.97 L462.81 180.93 L459.60 181.13 L456.59 182.85 L453.46 183.55 L450.29 183.96 L447.27 185.32 L444.40 187.41 L440.98 186.39 L437.69 186.22 L435.04 189.17 L431.82 189.30 L428.68 189.86 L425.67 190.95 L422.71 192.21 L419.91 194.03 L416.97 195.26 L413.50 194.60 L410.65 196.19 L407.78 197.63 L404.19 196.76 L401.13 197.63 L398.55 199.91 L395.60 201.09 L392.62 202.14 L389.97 204.10 L387.20 205.71 L384.52 207.51 L381.45 208.29 L378.31 208.94 L376.45 212.61 L372.65 211.74 L369.37 212.16 L367.33 215.25 L364.39 216.38 L361.62 217.87 L359.15 219.96 L356.48 221.62 L354.03 223.70 L350.42 223.58 L348.10 225.88 L345.75 228.10 L342.92 229.44 L340.07 230.78 L337.87 233.18 L335.50 235.28 L333.19 237.46 L330.34 238.78 L327.22 239.71 L325.43 242.64 L321.05 241.78 L317.72 242.51 L315.80 245.24 L312.18 245.63 L309.93 247.90 L308.75 251.54 L306.65 253.94 L304.41 256.15 L301.87 257.99 L300.13 260.78 L297.54 262.55 L294.44 263.74 L292.91 266.73 L290.82 269.06 L288.69 271.36 L285.91 272.95 L282.96 274.38 L281.31 277.17 L278.96 279.24 L276.45 281.15 L275.21 284.29 L273.68 287.13 L272.44 290.21 L271.86 293.86 L271.44 297.60 L271.03 301.28 L270.82 305.09 L269.59 307.98 L265.83 308.78 L263.36 310.67 L261.00 312.68 L256.67 313.17 L254.93 315.71 L253.40 318.39 L251.60 320.87 L249.91 323.42 L248.86 326.42 L247.65 329.29 L246.62 332.26 L244.11 334.25 L242.19 336.65 L241.71 339.94 L238.66 341.64 L236.89 344.14 L236.62 347.52 L235.47 350.37 L234.42 353.26 L233.35 356.13 L232.15 358.92 L231.15 361.81 L228.05 363.64 L227.58 366.79 L226.88 369.82 L225.85 372.68 L225.95 376.04 L226.03 379.36 L226.90 382.99 L227.88 386.62 L226.55 389.26 L223.78 391.34 L221.37 393.60 L216.08 394.82 L212.33 396.69 L209.78 399.04 L207.46 401.50 L205.16 404.00 L204.37 407.00 L204.09 410.15 L203.34 413.16 L203.79 416.50 L204.77 419.95 L204.06 422.92 L205.07 426.33 L205.36 429.53 L204.76 432.50 L205.34 435.72 L205.06 438.74 L205.39 441.88 L206.00 445.05 L205.71 448.03 L205.17 450.97 L205.08 453.99 L205.45 457.05 L205.03 460.00 L206.57 463.20 L208.28 466.37 L209.75 469.48 L211.86 472.61 L211.69 475.50 L209.14 478.21 L208.20 481.07 L206.33 483.90 L203.72 486.72 L203.45 489.68 L203.38 492.65 L203.95 495.62 L204.40 498.59 L205.16 501.54 L206.07 504.47 L206.49 507.40 L205.59 510.37 L205.40 513.33 L206.11 516.25 L204.82 519.28 L205.49 522.20 L206.33 525.09 L207.31 527.96 L208.43 530.79 L208.53 533.73 L208.74 536.66 L209.11 539.58 L208.66 542.61 L210.03 545.37 L211.55 548.10 L213.16 550.78 L215.55 553.30 L217.83 555.80 L220.18 558.25 L222.57 560.65 L221.95 563.70 L221.78 566.68 L221.56 569.68 L217.72 573.65 L217.92 576.62 L218.32 579.54 L217.84 582.73 L219.78 585.22 L222.01 587.58 L224.07 589.98 L226.08 592.36 L227.60 594.90 L229.03 597.45 L229.77 600.24 L230.28 603.13 L230.76 606.05 L232.60 608.43 L234.04 610.95 L235.67 613.39 L236.89 616.00 L238.03 618.63 L238.35 621.65 L239.49 624.31 L240.06 627.24 L242.51 629.25 L245.34 631.04 L248.92 632.39 L251.96 633.97 L255.17 635.41 L258.18 636.93 L259.57 639.33 L259.39 642.67 L259.68 645.77 L259.47 649.20 L259.38 652.61 L260.66 655.18 L262.61 657.31 L264.79 659.27 L267.26 661.02 L269.24 663.08 L271.37 665.03 L273.64 666.86 L274.32 669.87 L276.01 672.13 L278.75 673.57 L279.15 676.85 L280.89 679.08 L283.64 680.47 L285.87 682.28 L287.90 684.24 L290.07 686.07 L292.48 687.67 L293.99 690.09 L294.74 693.23 L297.38 694.60 L299.45 696.51 L302.32 697.61 L305.51 698.35 L308.78 698.96 L312.49 699.04 L315.57 699.73 L316.54 702.72 L318.01 705.18 L319.65 707.47 L319.55 711.83 L321.48 713.86 L323.31 716.02 L324.82 718.60 L327.36 719.90 L329.81 721.30 L332.36 722.56 L335.11 723.52 L338.05 724.20 L339.94 726.32 L342.98 726.79 L344.57 729.36 L346.16 731.98 L349.31 732.24 L351.59 733.81 L353.91 735.32 L356.46 736.47 L358.80 737.94 L361.47 738.85 L363.35 741.12 L365.71 742.60 L369.51 741.40 L372.05 742.47 L375.14 742.45 L378.25 742.32 L381.53 741.81 L384.74 741.32 L387.03 742.75 L388.70 745.55 L391.16 746.65 L392.42 750.55 L394.06 753.71 L396.96 753.87 L399.46 754.98 L402.32 755.18 L404.72 756.57 L406.81 758.86 L409.68 758.97 L412.40 759.49 L414.33 762.39 L417.27 762.24 L420.36 761.54 L422.72 763.23 L425.58 763.20 L428.42 763.15 L431.17 763.41 L433.90 763.74 L436.73 763.58 L439.28 764.61 L441.88 765.44 L444.43 766.52 L447.37 765.68 L450.19 765.34 L453.12 764.24 L456.25 761.78 L459.07 760.97 L461.96 759.48 L464.67 758.99 L467.04 761.11 L469.55 762.29 L472.08 763.43 L474.28 768.26 L476.92 769.04 L479.60 769.38 L482.21 770.92 L484.98 769.91 L487.76 768.39 L490.50 766.99 L493.19 766.12 L495.86 765.53 L498.52 765.43 L501.17 764.58 L503.84 765.83 L506.52 766.76 L509.15 765.76 L511.79 765.14 L514.40 764.37 L516.99 763.27 L519.59 762.76 L522.24 762.81 L524.93 763.22 L527.59 763.22 L530.04 761.41 L532.58 760.47 L534.99 758.74 L537.34 756.72 L539.42 753.24 L541.73 751.51 L544.32 751.48 L547.06 752.26 L549.74 752.58 L553.02 755.72 L555.86 756.49 L558.30 755.41 L560.77 754.46 L563.14 753.16 L565.48 751.78 L567.89 750.72 L570.19 749.30 L572.64 748.45 L575.46 748.85 L577.88 747.87 L580.12 746.37 L583.02 746.87 L585.26 745.36 L587.27 743.29 L589.65 742.27 L592.03 741.25 L594.23 739.78 L596.16 737.70 L599.13 738.15 L601.82 737.88 L603.87 736.12 L606.21 735.03 L608.29 733.39 L609.79 730.57 L610.97 727.15 L612.12 723.80 L613.77 721.54 L616.97 722.27 L619.48 721.63 L622.32 721.57 L625.80 722.58 L628.42 722.00 L630.31 720.16 L632.38 718.65 L634.61 717.39 L636.33 715.33 L638.09 713.35 L639.82 711.37 L642.22 710.39 L644.54 709.28 L646.28 707.34 L649.09 706.89 L651.22 705.48 L652.85 703.40 L654.74 701.69 L656.26 699.51 L658.03 697.66 L660.11 696.21 L661.85 694.35 L664.79 693.90 L666.22 691.66 L667.33 689.09 L668.71 686.85 L669.51 684.01 L670.92 681.85 L671.37 678.71 L671.31 675.11 L673.88 674.22 L676.73 673.56 L677.96 671.32 L682.73 672.42 L685.50 671.56 L686.71 669.25 L688.31 667.29 L689.47 664.96 L690.93 662.91 L691.87 660.42 L692.65 657.83 L694.52 656.13 L696.85 654.79 L698.05 652.56 L699.36 650.42 L702.05 649.30 L702.70 646.67 L703.06 643.86 L704.69 641.96 L705.69 639.63 L706.79 637.37 L708.19 635.32 L709.85 633.43 L711.60 631.60 L712.79 629.40 L713.36 626.84 L713.50 624.05 L713.00 620.93 L712.67 617.95 L712.87 615.29 L713.67 612.98 L716.74 611.84 L719.84 610.67 L723.15 609.55 L726.26 608.28 L727.08 605.90 L728.63 603.85 L728.70 601.14 L727.88 598.06 L726.95 594.98 L727.00 592.35 L727.56 589.93 L728.10 587.52 L728.46 585.05 L728.63 582.52 L730.85 580.72 L732.19 578.59 L731.29 575.72 L731.59 573.26 L732.09 570.87 L732.35 568.42 L733.09 566.11 L732.82 563.53 L734.96 561.59 L734.80 559.05 L734.71 556.54 L734.63 554.04 L733.57 551.34 L732.62 548.70 L730.94 545.94 L729.33 543.24 L730.60 541.10 L732.30 539.01 L733.04 536.74 L737.05 534.95 L738.20 532.69 L737.91 530.23 L738.08 527.83 L737.53 525.36 L737.12 522.92 L736.86 520.51 L736.42 518.09 L736.45 515.72 L737.54 513.40 L736.89 510.99 L736.57 508.61 L738.31 506.29 L736.36 503.87 L736.37 501.51 L736.54 499.14 L735.78 496.79 L735.91 494.42 L735.26 492.09 L736.19 489.69 L736.53 487.30 L735.65 484.99 L735.43 482.63 L733.47 480.43 L731.06 478.30 L728.77 476.21 L726.40 474.16 L725.48 471.98 L727.13 469.47 L727.56 467.09 L728.73 464.58 L730.75 461.90 L729.99 459.66 L730.11 457.26 L729.32 455.03 L728.29 452.86 L727.69 450.61 L726.21 448.55 L724.82 446.50 L725.33 443.99 L724.61 441.78 L723.28 439.73 L724.87 436.89 L723.42 434.88 L722.63 432.68 L721.64 430.55 L720.20 428.58 L719.68 426.31 L718.70 424.20 L718.06 421.97 L718.40 419.38 L716.43 417.64 L714.78 415.80 L713.01 414.02 L710.65 412.52 L708.46 410.97 L705.51 409.79 L702.59 408.65 L703.09 405.96 L702.48 403.78 L702.07 401.48 L705.08 397.46 L704.05 395.42 L703.64 393.04 L702.89 390.83 L700.45 389.55 L700.18 387.07 L698.91 385.15 L697.06 383.58 L696.17 381.44 L696.32 378.65 L694.09 377.33 L693.73 374.83 L692.99 372.56 L689.66 372.01 L689.46 369.37 L687.20 368.15 L685.14 366.81 L683.81 364.96 L682.66 362.97 L681.12 361.28 L679.98 359.27 L676.96 358.75 L674.40 357.92 L671.42 357.47 L668.96 356.63 L666.49 355.84 L663.90 355.19 L662.60 353.42 L663.48 349.64 L662.56 347.46 L663.92 343.06 L665.37 338.48 L664.93 335.65 L665.05 332.21 L664.17 329.73 L663.35 327.16 L661.87 325.25 L660.01 323.76 L658.25 322.16 L656.33 320.74 L653.84 319.99 L651.36 319.26 L647.64 320.08 L645.15 319.46 L642.06 319.65 L639.61 319.05 L638.04 317.34 L634.88 317.77 L633.64 315.61 L628.79 318.51 L623.33 322.48 L620.49 322.80 L614.62 327.76 L610.40 330.44 L608.49 329.68 L606.72 328.70 L605.22 327.28 L603.96 325.45 L603.04 322.99 L601.83 320.98 L600.03 319.98 L598.68 318.14 L597.07 316.76 L594.74 316.76 L592.29 317.04 L590.36 316.31 L588.08 316.32 L585.69 316.64 L584.05 315.36 L582.00 314.98 L580.26 313.90 L578.37 313.17 L576.23 313.05 L574.47 312.01 L572.24 312.16 L570.00 312.42 L568.10 311.78 L566.29 310.91 L564.48 310.01 L562.13 310.71 L559.81 311.46 L557.83 311.16 L555.24 312.96 L552.75 314.59 L550.76 314.55 L548.97 313.81 L547.22 312.88 L545.40 312.16 L543.72 310.88 L542.01 309.60 L540.15 309.00 L538.37 307.92 L536.60 306.75 L534.77 305.81 L532.76 305.88 L530.81 305.60 L528.95 304.71 L526.82 305.73 L524.82 305.91 L522.91 305.33 L520.94 305.31 L519.04 304.71 L517.05 304.91 L515.08 304.95 L513.15 304.56 L511.16 305.00 L509.23 304.43 L507.31 303.42 L505.37 302.48 L503.41 301.65 L501.40 304.25 L499.45 305.50 L497.52 306.96 L495.68 310.63 L493.84 312.44 L491.96 312.35 L490.02 311.21 L488.11 311.00 L486.17 310.50 L484.08 308.26 L482.18 308.56 L480.17 307.85 L478.08 306.55 L476.09 306.29 L474.11 306.25 L472.26 307.11 L470.27 306.98 L468.51 308.30 L466.80 309.81 L464.71 309.16 L462.85 309.72 L460.74 309.08 L458.93 309.97 L457.20 311.11 L455.12 310.74 L453.63 312.83 L451.95 314.01 L449.99 314.12 L447.97 314.06 L445.70 313.15 L444.41 315.63 L443.19 318.19 L441.39 318.81 L440.92 323.39 L440.27 327.22 L438.85 328.68 L436.99 328.89 L435.01 328.81 L433.24 329.32 L431.21 329.17 L429.12 328.94 L427.31 329.41 L425.15 329.10 L423.08 329.06 L421.03 329.08 L419.29 329.82 L417.84 331.14 L415.98 331.62 L415.06 333.95 L413.73 335.42 L411.97 336.07 L410.14 336.61 L407.94 336.50 L406.82 338.33 L405.27 339.36 L403.74 340.44 L402.96 342.73 L401.59 344.02 L399.98 344.93 L398.24 345.64 L396.45 346.29 L396.33 349.39 L395.43 351.28 L394.93 353.71 L395.34 357.31 L394.87 359.63 L393.39 360.58 L391.71 361.28 L390.23 362.25 L388.33 362.70 L386.32 363.05 L384.78 363.99 L383.03 364.69 L381.07 365.18 L379.33 365.92 L377.97 367.11 L376.81 368.52 L375.11 369.35 L374.31 371.11 L373.79 373.15 L372.30 374.18 L371.01 375.43 L369.64 376.60 L368.84 378.31 L367.60 379.60 L366.50 381.02 L366.15 383.09 L365.24 384.65 L364.19 386.08 L363.00 387.39 L361.44 388.42 L361.14 390.45 L361.33 392.83 L360.50 394.40 L361.38 397.23 L362.02 399.83 L361.33 401.43 L360.13 402.67 L358.72 403.77 L357.56 405.05 L355.60 405.82 L354.00 406.84 L353.12 408.33 L351.36 409.28 L350.03 410.52 L348.89 411.88 L348.42 413.62 L347.76 415.25 L346.87 416.75 L346.84 418.71 L346.20 420.33 L345.21 421.77 L344.24 423.22 L342.65 424.39 L342.54 426.26 L341.91 427.89 L341.17 429.46 L340.93 431.25 L339.86 432.68 L338.55 434.02 L337.43 435.45 L336.62 437.01 L338.08 439.43 L338.81 441.53 L340.29 443.87 L342.47 446.40 L342.97 448.32 L342.26 449.83 L340.90 451.14 L339.88 452.57 L338.67 453.96 L336.55 455.12 L335.74 456.66 L334.35 458.06 L332.43 459.35 L331.03 460.80 L330.45 462.45 L330.81 464.30 L329.41 465.78 L330.21 467.71 L331.19 469.64 L330.52 471.26 L330.45 472.99 L329.23 474.55 L330.27 476.43 L330.46 478.19 L329.96 479.85 L330.91 481.67 L330.74 483.37 L330.56 485.06 L329.33 486.67 L327.53 488.26 L329.73 490.12 L331.46 491.91 L331.37 493.60 L335.22 495.39 L337.96 497.09 L338.32 498.71 L337.90 500.33 L337.83 501.95 L336.91 503.59 L335.94 505.26 L336.08 506.89 L335.60 508.56 L334.77 510.26 L334.50 511.94 L333.58 513.68 L334.60 515.27 L335.05 516.89 L335.02 518.56 L337.03 519.99 L337.76 521.55 L337.74 523.20 L337.34 524.92 L336.71 526.69 L337.74 528.19 L338.47 529.73 L338.86 531.33 L340.54 532.66 L341.21 534.18 L341.05 535.88 L340.70 537.64 L341.58 539.11 L344.07 540.15 L345.01 541.57 L348.15 542.36 L351.54 543.02 L353.07 544.17 L353.51 545.64 L353.48 547.26 L353.46 548.89 L353.29 550.58 L352.47 552.53 L352.31 554.25 L351.98 556.06 L351.32 558.02 L351.12 559.82 L350.96 561.62 L352.42 562.75 L353.21 564.16 L354.36 565.39 L356.17 566.32 L356.98 567.69 L357.28 569.30 L357.24 571.09 L358.35 572.32 L359.56 573.48 L359.98 575.05 L361.98 575.77 L363.50 576.72 L363.84 578.33 L364.36 579.84 L364.54 581.57 L367.20 581.79 L369.39 582.26 L370.87 583.14 L374.59 582.53 L377.19 582.59 L378.20 583.69 L378.72 585.13 L378.81 586.90 L379.46 588.27 L379.13 590.37 L379.16 592.25 L379.87 593.63 L379.78 595.65 L379.82 597.59 L380.08 599.39 L381.74 600.02 L382.92 601.05 L383.91 602.23 L386.06 602.39 L387.46 603.18 L388.27 604.51 L388.89 606.03 L389.43 607.66 L391.14 608.14 L392.29 609.15 L393.86 609.73 L395.82 609.89 L397.09 610.75 L397.92 612.08 L398.39 613.82 L400.29 613.97 L402.71 613.47 L404.06 614.19 L407.26 612.65 L410.15 611.39 L411.85 611.55 L412.90 612.51 L413.55 614.01 L414.44 615.22 L415.07 616.79 L415.57 618.58 L416.64 619.58 L417.43 621.01 L417.90 622.95 L418.63 624.54 L419.68 625.66 L421.00 626.35 L422.01 627.55 L424.03 627.10 L425.77 627.05 L426.94 627.97 L427.92 629.23 L428.82 630.68 L430.51 630.66 L431.75 631.49 L433.06 632.19 L435.25 631.09 L436.71 631.44 L437.89 632.36 L438.96 633.53 L439.96 634.90 L442.29 633.22 L444.17 632.50 L445.90 632.08 L448.60 629.16 L450.65 627.71 L451.96 628.12 L453.08 629.03 L454.15 630.13 L455.29 631.06 L456.18 632.77 L457.19 634.21 L458.39 635.11 L459.40 636.68 L460.37 638.47 L461.49 639.84 L463.10 639.41 L464.57 639.46 L465.99 639.72 L467.72 638.62 L469.24 638.35 L470.57 638.91 L471.86 639.73 L473.10 640.79 L474.64 640.35 L476.06 640.53 L477.56 640.18 L479.16 639.06 L480.55 639.24 L481.86 640.10 L483.16 641.09 L484.75 639.65 L486.32 638.09 L487.75 637.70 L489.39 634.43 L490.93 631.74 L492.29 630.99 L493.59 631.31 L494.86 632.48 L496.18 632.66 L497.50 633.48 L498.81 635.47 L500.17 635.46 L501.53 636.50 L502.93 637.95 L504.34 638.84 L505.73 638.80 L507.09 638.25 L508.49 638.49 L509.76 636.80 L511.05 635.67 L512.42 635.76 L513.84 636.19 L515.29 636.89 L516.55 635.83 L517.92 635.77 L519.26 635.48 L520.38 633.75 L521.63 632.98 L523.03 633.19 L524.42 633.27 L525.80 633.27 L526.68 630.77 L527.80 629.62 L528.71 627.64 L529.20 624.03 L530.04 622.09 L531.24 621.73 L532.62 622.01 L533.99 622.22 L535.36 622.38 L536.99 623.40 L538.44 623.71 L539.84 623.85 L541.49 624.67 L543.09 625.28 L544.74 625.98 L545.67 624.64 L546.80 623.87 L548.07 623.49 L548.68 621.45 L549.75 620.61 L551.11 620.47 L552.55 620.51 L553.91 620.31 L554.85 619.21 L556.15 618.88 L556.74 617.08 L557.45 615.59 L558.65 615.11 L560.02 614.94 L561.70 615.33 L562.55 614.17 L563.52 613.23 L564.86 612.95 L564.93 610.50 L565.47 608.91 L566.60 608.32 L567.58 607.49 L569.04 607.42 L570.19 606.84 L571.37 606.31 L572.67 605.94 L573.06 604.25 L574.51 604.10 L575.37 603.10 L575.63 601.31 L576.80 600.77 L577.74 599.91 L578.16 598.40 L578.92 597.35 L580.15 596.87 L581.02 595.95 L582.21 595.41 L583.33 594.77 L584.28 593.94 L585.20 593.07 L586.30 592.41 L586.91 591.21 L587.06 589.56 L587.64 588.37 L587.80 586.78 L587.64 584.90 L587.55 583.14 L587.38 581.33 L587.08 579.44 L586.91 577.70 L586.92 576.17 L586.87 574.60 L587.15 573.34 L587.46 572.12 L587.77 570.91 L588.27 569.87 L588.83 568.88 L589.22 567.76 L589.76 566.77 L590.33 565.80 L590.85 564.80 L591.45 563.86 L591.77 562.72 L592.34 561.77 L592.86 560.78 L593.21 559.69 L593.64 558.65 L594.08 557.62 L594.40 556.53 L594.95 555.58 L595.17 554.43 L595.57 553.40 L596.33 552.57 L596.48 551.41 L596.88 550.38 L597.39 549.42 L597.60 548.30 L597.84 547.21 L598.49 546.31 L598.70 545.21 L598.62 543.99 L599.24 543.08 L599.40 541.97 L599.40 540.81 L599.59 539.73 L599.83 538.67 L600.10 537.63 L600.33 536.57 L600.72 535.58 L600.81 534.48 L601.02 533.43 L601.35 532.41 L601.26 531.27 L601.28 530.17 L601.34 529.09 L601.39 528.01 L601.38 526.92 L601.64 525.91 L601.84 524.87 L601.84 523.80 L602.08 522.78 L602.23 521.74 L602.21 520.67 L602.35 519.64 L602.22 518.55 L602.36 517.52 L602.37 516.47 L602.34 515.42 L602.24 514.36 L601.88 513.27 L601.89 512.24 L601.85 511.20 L601.81 510.17 L601.72 509.13 L601.57 508.10 L601.50 507.07 L601.52 506.05 L601.31 505.02 L600.99 504.00 L601.37 503.00 L601.09 501.98 L600.82 500.96 Z"/>
  <svg class="pausebutton" id="pausebutton">
    <circle cx="500" cy="500" id="pausestart" class="pausestart" r="52.65"/>
    <rect height="50.02" width="10.00" y="473.68" rx="2.00" ry="2.00" x="479.99" class="pausesymbol"/>
    <rect height="50.02" width="10.00" y="473.68" rx="2.00" ry="2.00" x="510.00" class="pausesymbol"/>
    <polygon points="530.01,500 479.99,530.01 479.99,469.99" class="playsymbol"/>
  </svg>
  <polygon id="playback-head" class="playback-head" points="941.65,500 921.65,540 961.65,540"/>
</svg>