<?xml-stylesheet href="../../style/waveformjs.css" type="text/css"?>
<svg xmlns="http://www.w3.org/2000/svg" xmlns:xlink="http://www.w3.org/1999/xlink" width="100%" height="100%" viewBox="0 0 1000 1000">
  <path class="svg-wave" id="sp" d="M597.63 500.00 L597.82 500.98 L597.99 501.96 L598.15 502.95 L598.30 503.93 L598.44 504.93 L598.62 505.92 L598.82 506.93 L598.94 507.93 L599.00 508.93 L599.00 509.93 L598.96 510.93 L598.87 511.92 L598.69 512.90 L598.53 513.88 L598.43 514.88 L598.36 515.87 L598.17 516.85 L598.03 517.84 L597.96 518.84 L597.78 519.82 L597.46 520.77 L597.38 521.78 L597.36 522.80 L597.11 523.76 L597.03 524.78 L596.85 525.76 L596.89 526.82 L596.65 527.79 L596.08 528.67 L596.05 529.71 L595.72 530.66 L595.47 531.64 L595.13 532.58 L595.01 533.61 L594.75 534.59 L594.36 535.52 L594.13 536.51 L593.81 537.47 L593.24 538.33 L593.08 539.35 L592.66 540.27 L592.25 541.20 L591.47 541.95 L591.32 542.99 L591.18 544.04 L590.69 544.93 L590.65 546.05 L590.23 546.97 L589.97 547.99 L589.58 548.94 L589.34 549.97 L588.81 550.85 L588.46 551.83 L587.99 552.75 L587.22 553.47 L586.65 554.33 L586.31 555.33 L585.50 556.02 L585.06 556.95 L584.75 557.98 L584.19 558.84 L583.10 559.32 L582.83 560.39 L582.66 561.54 L581.92 562.28 L581.73 563.43 L581.05 564.21 L581.14 565.61 L580.20 566.19 L579.16 566.67 L578.77 567.70 L578.20 568.58 L577.45 569.31 L576.55 569.90 L575.79 570.61 L575.06 571.34 L575.01 572.73 L574.26 573.46 L573.75 574.43 L573.46 575.63 L572.89 576.56 L572.70 577.92 L571.37 578.04 L570.53 578.68 L569.79 579.44 L568.93 580.06 L568.49 581.18 L567.50 581.65 L567.02 582.74 L566.36 583.63 L565.92 584.80 L564.83 585.14 L563.84 585.60 L563.32 586.70 L562.39 587.25 L561.58 587.96 L560.38 588.11 L560.02 589.49 L559.18 590.18 L558.51 591.12 L557.95 592.27 L557.27 593.25 L556.49 594.08 L555.44 594.45 L554.75 595.44 L553.87 596.13 L552.98 596.80 L552.05 597.41 L550.89 597.56 L550.13 598.49 L549.15 599.01 L547.99 599.15 L547.28 600.21 L546.30 600.74 L545.38 601.39 L544.13 601.32 L543.42 602.48 L542.59 603.37 L541.63 603.99 L540.85 605.07 L539.82 605.53 L539.08 606.80 L537.83 606.67 L536.72 606.94 L535.65 607.30 L534.56 607.60 L533.62 608.39 L532.47 608.48 L531.48 609.13 L530.50 609.87 L529.53 610.66 L528.38 610.80 L527.21 610.81 L526.22 611.58 L525.10 611.83 L524.01 612.19 L522.76 611.80 L521.80 612.88 L520.72 613.33 L519.63 613.80 L518.60 614.70 L517.49 615.12 L516.41 615.77 L515.24 615.87 L514.15 616.54 L512.99 616.74 L511.84 617.11 L510.68 617.27 L509.48 617.11 L508.33 617.40 L507.16 617.68 L505.97 617.40 L504.82 618.07 L503.64 618.16 L502.46 618.45 L501.27 617.79 L500.09 618.54 L498.90 619.16 L497.71 619.19 L496.50 619.95 L495.30 619.91 L494.04 620.94 L492.86 620.39 L491.68 620.09 L490.47 620.04 L489.29 619.77 L488.07 619.89 L486.93 619.23 L485.62 620.08 L484.34 620.51 L483.14 620.34 L481.90 620.43 L480.65 620.52 L479.46 620.24 L478.32 619.69 L477.01 620.08 L475.74 620.18 L474.58 619.75 L473.29 619.89 L471.98 620.12 L470.74 619.97 L469.51 619.82 L468.31 619.49 L467.14 619.10 L465.92 618.89 L464.60 618.96 L463.58 618.06 L462.17 618.41 L460.67 619.01 L459.59 618.29 L458.36 618.01 L457.04 617.99 L455.79 617.75 L454.73 616.99 L453.40 616.95 L451.99 617.07 L450.83 616.56 L449.67 616.05 L448.47 615.63 L447.45 614.83 L446.42 614.06 L445.50 613.04 L444.42 612.41 L443.36 611.72 L442.89 609.92 L442.94 607.18 L443.23 604.12 L444.41 599.57 L445.50 595.36 L445.43 593.31 L445.39 591.27 L444.60 590.52 L443.71 589.95 L442.16 590.40 L440.13 591.55 L438.76 591.62 L435.83 593.95 L432.50 596.74 L429.48 598.95 L426.70 600.70 L423.68 602.67 L422.14 602.59 L421.38 601.47 L421.05 599.81 L421.21 597.59 L421.46 595.32 L422.45 592.22 L424.23 588.29 L425.40 585.19 L425.38 583.51 L425.27 581.98 L425.00 580.63 L423.78 580.32 L421.16 581.43 L419.41 581.59 L416.93 582.44 L412.82 584.81 L409.28 586.50 L406.09 587.77 L402.43 589.37 L400.86 589.00 L400.48 587.57 L400.66 585.66 L401.64 583.12 L403.10 580.24 L405.07 577.02 L407.32 573.66 L409.31 570.62 L409.57 568.97 L408.93 568.03 L408.56 566.89 L407.87 566.00 L404.81 566.75 L403.46 566.27 L401.72 566.03 L396.75 567.88 L392.93 568.87 L389.10 569.78 L385.24 570.61 L383.35 570.18 L382.54 569.07 L383.17 567.14 L385.00 564.56 L387.08 561.92 L389.82 558.99 L393.11 555.87 L394.74 553.68 L395.88 551.79 L395.44 550.71 L394.25 549.99 L393.71 548.95 L391.65 548.59 L390.44 547.83 L388.20 547.48 L382.69 548.44 L378.67 548.68 L375.02 548.70 L370.59 548.95 L368.51 548.23 L368.29 546.83 L368.80 545.17 L370.75 543.06 L373.44 540.76 L376.58 538.39 L380.33 535.92 L383.16 533.80 L384.81 532.08 L384.32 530.97 L383.92 529.84 L383.57 528.69 L381.71 527.89 L379.57 527.13 L376.76 526.47 L373.38 525.88 L368.11 525.58 L364.19 524.94 L361.28 524.04 L358.64 523.04 L358.09 521.68 L359.18 520.07 L361.15 518.38 L363.91 516.63 L368.50 514.74 L372.76 512.97 L374.87 511.49 L378.51 509.93 L378.38 508.72 L376.67 507.61 L376.68 506.37 L375.71 505.17 L374.00 503.98 L372.64 502.75 L368.97 501.52 L364.09 500.22 L360.55 498.83 L356.58 497.36 L353.20 495.83 L353.14 494.36 L354.54 492.95 L356.80 491.63 L360.22 490.42 L364.94 489.39 L368.38 488.33 L370.99 487.26 L374.67 486.36 L375.09 485.14 L374.07 483.74 L375.09 482.60 L374.46 481.23 L373.21 479.75 L371.47 478.15 L368.18 476.23 L364.20 474.11 L360.60 471.97 L357.07 469.77 L354.73 467.76 L354.57 466.19 L355.68 464.92 L358.01 463.98 L361.92 463.50 L365.49 463.00 L370.39 462.95 L373.93 462.60 L376.04 461.87 L377.57 461.00 L376.58 459.32 L376.52 457.92 L376.21 456.43 L374.54 454.43 L373.16 452.49 L370.58 450.04 L366.82 447.05 L363.98 444.34 L361.75 441.81 L359.80 439.33 L359.99 437.74 L360.92 436.48 L363.15 435.84 L366.66 435.85 L370.03 435.87 L374.76 436.63 L378.01 436.74 L379.63 436.04 L382.55 436.08 L382.63 434.59 L382.74 433.11 L383.72 432.12 L383.30 430.30 L382.46 428.19 L380.65 425.44 L377.65 421.85 L375.40 418.65 L373.03 415.28 L371.25 412.21 L371.53 410.52 L372.81 409.50 L375.06 409.21 L378.21 409.62 L381.61 410.30 L385.75 411.62 L389.51 412.75 L392.13 413.05 L394.87 413.51 L395.06 411.89 L395.57 410.53 L396.05 409.12 L395.85 407.09 L395.96 405.31 L393.72 401.30 L392.72 398.36 L390.61 394.26 L388.27 389.82 L387.13 386.45 L387.30 384.33 L388.45 383.20 L391.00 383.55 L394.12 384.60 L397.78 386.33 L401.90 388.68 L405.73 390.85 L408.50 391.89 L410.53 392.12 L411.30 390.85 L412.11 389.60 L412.92 388.36 L413.06 386.20 L413.71 384.67 L412.86 381.08 L411.98 377.32 L410.83 373.06 L409.68 368.65 L409.33 365.28 L409.82 363.08 L411.04 361.94 L413.18 362.25 L415.97 363.68 L418.88 365.40 L422.00 367.60 L425.87 371.24 L428.02 372.03 L430.51 373.52 L432.02 373.29 L432.66 371.40 L434.05 370.94 L434.41 368.41 L435.49 367.27 L435.32 363.45 L435.26 359.73 L434.78 354.89 L434.86 351.11 L435.21 347.77 L435.93 345.18 L437.47 344.52 L439.41 344.87 L441.83 346.58 L444.45 348.93 L447.06 351.47 L450.17 355.66 L452.53 357.88 L454.35 358.65 L455.97 358.86 L457.09 357.46 L458.40 356.63 L459.40 354.64 L460.67 353.58 L461.55 350.91 L462.12 346.81 L462.86 343.08 L463.51 338.64 L464.49 335.31 L465.60 332.35 L467.19 331.57 L469.09 332.43 L471.15 334.32 L473.17 336.22 L475.25 338.83 L477.61 343.80 L479.59 346.73 L481.22 347.32 L482.91 348.56 L484.37 347.87 L485.90 347.83 L487.25 345.57 L488.72 344.43 L490.19 343.03 L491.55 338.81 L493.02 335.48 L494.53 331.08 L496.15 328.25 L497.83 325.03 L499.58 324.69 L501.33 325.80 L503.04 327.53 L504.70 329.91 L506.29 332.86 L507.76 337.07 L509.15 341.30 L510.59 343.55 L512.07 344.79 L513.59 345.27 L515.10 345.81 L516.77 344.79 L518.59 342.66 L520.32 341.62 L522.39 338.30 L524.53 335.00 L526.81 331.29 L529.03 328.45 L531.20 326.19 L533.05 325.92 L534.74 326.51 L536.15 328.38 L537.27 331.44 L538.36 334.41 L539.04 338.79 L539.67 343.07 L540.78 345.22 L542.07 346.56 L543.74 346.51 L545.37 346.64 L547.19 346.16 L549.33 344.74 L551.18 344.32 L553.62 342.23 L556.68 338.54 L559.49 335.82 L562.44 332.90 L565.37 330.25 L567.36 330.17 L569.14 330.65 L570.43 332.30 L571.16 335.20 L571.45 338.98 L571.29 343.57 L570.96 348.33 L571.89 350.26 L572.76 352.25 L573.69 354.06 L575.31 354.50 L577.30 354.24 L578.86 354.82 L581.25 353.92 L584.46 351.67 L587.74 349.43 L591.92 345.82 L595.14 343.98 L597.84 343.10 L600.06 343.06 L601.46 344.32 L602.58 345.99 L603.04 348.61 L602.41 352.73 L601.74 356.76 L600.10 362.01 L600.38 364.50 L601.30 366.08 L602.10 367.80 L602.97 369.39 L604.82 369.74 L606.64 370.17 L609.27 369.64 L611.98 369.08 L616.27 366.79 L621.25 363.86 L624.99 362.46 L627.28 362.72 L629.69 362.89 L631.17 364.08 L631.86 366.07 L632.09 368.49 L630.50 372.65 L628.10 377.47 L626.22 381.66 L625.93 384.28 L625.77 386.73 L626.57 388.28 L627.57 389.64 L629.46 390.25 L630.63 391.49 L634.00 390.93 L636.98 390.77 L641.02 389.83 L647.08 387.45 L651.40 386.53 L653.94 387.01 L656.31 387.66 L657.31 389.31 L657.86 391.26 L657.64 393.72 L655.69 397.29 L653.13 401.16 L650.34 405.07 L649.38 407.76 L648.10 410.58 L648.83 412.16 L648.69 414.23 L651.41 414.67 L652.16 416.24 L652.52 418.02 L656.19 418.05 L661.02 417.56 L665.67 417.26 L669.19 417.61 L674.46 417.19 L677.59 417.87 L678.54 419.59 L678.56 421.72 L678.20 423.99 L676.12 426.95 L672.32 430.54 L668.47 434.04 L667.54 436.33 L665.48 439.00 L665.46 440.88 L665.85 442.60 L667.10 444.03 L668.26 445.51 L669.54 446.96 L671.08 448.35 L675.27 449.00 L680.36 449.47 L682.41 450.85 L688.31 451.28 L690.21 452.81 L691.03 454.63 L692.34 456.35 L691.32 458.58 L689.41 460.98 L685.32 463.75 L680.24 466.61 L678.77 468.73 L676.72 470.90 L675.86 472.85 L675.79 474.66 L677.00 476.29 L678.19 477.94 L678.56 479.70 L680.98 481.26 L685.23 482.69 L691.13 484.06 L694.11 485.77 L699.40 487.38 L701.98 489.25 L703.26 491.22 L702.62 493.27 L700.54 495.35 L696.62 497.41 L692.42 499.39 L687.45 501.28 L684.65 503.11 L683.45 504.92 L681.88 506.70 L680.74 508.47 L681.01 510.30 L681.68 512.16 L682.14 514.02 L684.84 516.09 L687.95 518.25 L694.17 520.82 L697.60 523.19 L701.61 525.71 L704.17 528.11 L704.67 530.27 L703.92 532.24 L701.69 533.96 L697.56 535.30 L693.15 536.51 L686.98 537.28 L684.82 538.78 L682.83 540.27 L680.27 541.60 L681.44 543.79 L680.53 545.49 L680.85 547.49 L680.99 549.47 L681.60 551.59 L685.61 554.75 L689.53 557.97 L692.41 560.96 L695.97 564.25 L697.80 567.05 L698.56 569.53 L697.84 571.50 L695.59 572.91 L691.26 573.48 L686.51 573.81 L681.15 573.79 L676.68 574.04 L676.07 575.86 L672.87 576.54 L674.05 579.15 L674.34 581.40 L675.12 583.90 L674.64 585.84 L675.24 588.31 L677.13 591.50 L679.30 594.90 L681.86 598.60 L683.30 601.77 L684.78 605.02 L684.56 607.35 L683.25 609.05 L681.27 610.34 L678.17 610.91 L673.97 610.73 L669.35 610.18 L664.58 609.44 L661.80 609.94 L659.06 610.42 L657.64 611.79 L656.88 613.62 L656.60 615.82 L656.17 617.94 L656.13 620.38 L657.26 623.77 L659.27 627.96 L661.10 632.10 L662.46 635.95 L662.78 639.02 L662.37 641.49 L660.55 642.76 L659.12 644.36 L656.68 645.03 L652.64 644.15 L648.92 643.49 L643.80 641.36 L640.91 641.31 L639.02 642.23 L636.16 642.12 L634.00 642.70 L634.89 646.55 L634.01 648.55 L631.94 649.23 L633.34 653.89 L634.47 658.36 L635.24 662.54 L636.41 667.32 L636.44 670.82 L636.14 673.99 L634.28 675.18 L632.51 676.51 L629.52 676.16 L625.63 674.50 L621.73 672.70 L617.04 669.62 L614.18 669.07 L611.95 669.40 L609.58 669.47 L608.06 670.85 L607.34 673.53 L606.28 675.71 L604.28 676.37 L603.57 679.22 L603.51 683.34 L603.44 687.57 L603.53 692.26 L602.72 695.41 L602.16 699.14 L600.06 699.96 L597.89 700.59 L595.46 700.69 L592.38 699.33 L588.72 696.56 L585.09 693.67 L581.70 691.11 L578.41 688.62 L575.86 687.75 L573.69 687.78 L571.90 688.75 L570.27 690.15 L569.03 692.69 L567.81 695.43 L567.15 699.96 L566.73 705.50 L566.16 710.89 L565.07 714.91 L563.77 718.47 L561.78 719.81 L559.45 719.95 L556.94 719.34 L554.34 718.28 L551.27 715.12 L548.20 711.58 L545.22 708.11 L542.66 706.23 L540.36 705.43 L537.96 703.97 L536.18 705.86 L534.33 707.47 L532.31 708.17 L530.39 709.58 L528.74 713.22 L527.13 717.66 L525.31 721.11 L523.58 725.96 L521.59 729.03 L519.39 730.33 L517.07 730.36 L514.67 729.03 L512.20 725.83 L509.82 723.13 L507.44 718.96 L505.17 715.40 L502.99 713.55 L500.84 711.32 L498.74 710.17 L496.62 711.16 L494.47 712.46 L492.31 713.34 L490.14 714.15 L487.78 717.85 L485.27 722.85 L482.88 724.80 L480.25 729.07 L477.63 732.25 L475.21 732.97 L472.92 732.33 L470.70 731.30 L468.74 728.38 L467.03 724.16 L465.36 720.21 L463.87 715.64 L462.28 712.09 L460.36 710.63 L458.28 710.12 L456.29 709.17 L453.88 710.19 L451.67 710.16 L449.39 710.46 L446.76 712.04 L443.22 716.90 L440.27 719.22 L437.05 722.26 L433.57 725.90 L430.86 726.71 L428.68 725.75 L426.88 723.64 L425.33 720.86 L424.20 717.01 L423.64 711.81 L422.67 707.96 L421.99 703.52 L420.65 700.99 L418.35 700.90 L416.37 700.02 L414.33 699.27 L411.72 699.82 L409.54 699.34 L406.71 700.22 L402.67 703.55 L398.89 706.13 L395.06 708.64 L391.17 711.10 L388.27 711.50 L386.10 710.47 L384.43 708.55 L383.43 705.48 L382.96 701.59 L383.05 696.87 L382.70 693.04 L382.66 688.82 L382.41 685.07 L380.74 683.63 L379.20 681.98 L377.32 680.86 L374.42 681.22 L372.11 680.66 L367.99 682.57 L363.79 684.48 L358.75 687.35 L354.38 689.18 L350.70 690.00 L347.39 690.27 L345.56 688.65 L344.51 686.10 L344.02 682.94 L344.72 678.47 L346.04 673.42 L346.89 669.03 L346.95 665.60 L347.96 661.24 L346.23 659.85 L344.00 658.96 L342.38 657.43 L339.69 656.94 L337.82 655.63 L334.86 655.32 L329.64 657.06 L324.83 658.27 L320.83 658.67 L315.28 660.31 L311.58 660.25 L309.78 658.53 L308.96 656.00 L309.62 652.31 L311.35 647.86 L313.63 643.09 L315.41 638.81 L316.28 635.30 L316.80 632.12 L315.75 630.09 L313.49 628.91 L312.18 627.06 L309.17 626.34 L307.57 624.64 L304.88 623.63 L300.37 623.71 L295.02 624.21 L291.04 623.78 L286.14 623.81 L281.70 623.48 L280.60 621.22 L280.18 618.60 L281.12 615.29 L282.83 611.63 L284.65 607.98 L287.73 603.79 L289.19 600.48 L290.60 597.25 L290.01 594.98 L289.03 592.90 L287.93 590.86 L286.48 588.96 L284.31 587.35 L282.12 585.71 L278.43 584.61 L272.40 584.31 L267.98 583.32 L262.77 582.53 L259.18 581.09 L257.53 578.95 L257.11 576.41 L258.81 573.23 L261.66 569.77 L265.27 566.17 L269.24 562.57 L271.47 559.52 L273.33 556.62 L274.39 553.96 L272.06 552.12 L272.03 549.73 L271.12 547.53 L267.91 545.79 L266.90 543.57 L263.35 541.79 L257.19 540.38 L253.10 538.52 L249.25 536.56 L244.85 534.60 L243.56 532.16 L244.05 529.51 L245.90 526.72 L248.78 523.88 L251.68 521.10 L257.05 518.20 L261.52 515.47 L262.36 513.03 L264.75 510.54 L264.00 508.21 L262.97 505.87 L261.79 503.52 L260.52 501.14 L258.88 498.74 L254.95 496.27 L251.10 493.72 L247.04 491.09 L243.29 488.38 L240.36 485.65 L239.14 482.96 L239.94 480.40 L241.74 477.94 L244.95 475.64 L248.91 473.48 L253.04 471.42 L257.66 469.49 L260.75 467.45 L263.57 465.42 L263.20 462.95 L262.95 460.47 L262.72 457.99 L261.23 455.26 L260.21 452.58 L257.22 449.46 L254.16 446.26 L250.78 442.90 L247.48 439.48 L244.93 436.17 L244.75 433.40 L245.13 430.77 L246.46 428.40 L249.09 426.43 L251.93 424.56 L256.67 423.33 L261.26 422.15 L263.49 420.25 L265.71 418.38 L268.28 416.67 L269.51 414.50 L269.09 411.71 L269.46 409.19 L269.24 406.43 L267.14 402.86 L264.34 398.91 L262.03 395.09 L259.93 391.29 L259.11 388.00 L258.90 384.95 L260.41 382.72 L262.05 380.56 L264.05 378.59 L266.76 377.02 L270.15 375.85 L274.97 375.53 L277.20 373.84 L278.96 371.90 L282.91 371.28 L284.11 369.05 L286.00 367.25 L287.35 365.13 L288.17 362.66 L286.93 358.81 L285.91 355.03 L284.00 350.57 L281.79 345.79 L282.38 342.92 L282.74 339.85 L283.83 337.29 L286.14 335.66 L288.14 333.80 L290.41 332.16 L292.94 330.76 L297.12 330.77 L300.40 330.09 L302.20 328.18 L306.31 328.32 L309.15 327.41 L311.47 326.04 L312.90 323.87 L314.22 321.57 L315.10 318.82 L314.46 314.53 L313.60 309.90 L312.44 304.86 L313.12 301.63 L313.87 298.42 L316.02 296.70 L318.52 295.40 L320.87 293.94 L323.65 292.98 L325.82 291.34 L329.74 291.84 L333.88 292.70 L335.45 290.40 L339.38 291.15 L343.16 291.78 L345.28 290.26 L347.77 289.26 L348.95 286.42 L350.41 283.95 L351.02 280.16 L351.25 275.70 L350.78 270.03 L352.09 266.98 L353.52 264.05 L355.79 262.44 L358.51 261.58 L361.15 260.60 L364.05 260.11 L366.61 259.03 L370.11 259.71 L374.26 261.72 L376.44 260.09 L379.68 260.52 L383.73 262.69 L386.28 261.90 L388.96 261.39 L390.98 259.49 L393.23 258.04 L394.46 254.20 L395.73 250.30 L397.16 246.62 L398.96 243.73 L401.09 241.61 L403.78 240.90 L405.81 238.37 L408.68 238.16 L411.24 237.09 L413.50 235.05 L416.68 235.86 L420.43 238.68 L422.86 237.26 L425.69 237.20 L429.30 240.08 L432.08 240.06 L434.97 240.54 L437.13 238.09 L439.76 237.50 L441.85 234.47 L443.71 230.05 L445.44 224.58 L447.63 221.06 L450.17 219.13 L452.81 217.60 L455.71 217.62 L458.59 217.58 L461.55 218.13 L464.29 217.11 L467.35 218.74 L470.56 222.18 L473.38 222.37 L476.28 223.44 L479.33 226.95 L482.13 227.89 L484.94 229.37 L487.60 228.21 L490.31 227.67 L492.97 225.32 L495.66 221.37 L498.42 216.07 L501.27 212.71 L504.17 210.76 L507.10 209.44 L509.99 209.82 L512.86 210.61 L515.71 211.55 L518.63 211.27 L521.37 213.43 L523.89 217.74 L526.59 219.25 L529.33 220.11 L531.69 224.24 L534.26 226.06 L536.78 228.07 L539.68 227.14 L542.44 227.38 L545.42 226.28 L548.85 222.81 L552.48 218.66 L556.06 215.31 L559.30 213.95 L562.55 212.78 L565.32 213.85 L568.19 214.46 L570.83 216.02 L573.45 217.55 L576.07 219.06 L577.75 223.82 L579.49 228.10 L582.42 228.19 L584.43 231.29 L586.25 234.80 L589.28 234.52 L592.53 233.71 L595.22 234.55 L598.52 233.78 L602.11 232.32 L606.08 230.05 L609.84 228.49 L613.46 227.42 L616.98 226.69 L619.67 227.96 L622.23 229.52 L624.61 231.43 L626.92 233.47 L629.38 235.16 L630.61 239.28 L630.91 245.09 L633.80 245.74 L635.55 248.55 L636.58 252.61 L639.65 252.91 L643.06 252.68 L645.45 254.26 L648.73 254.35 L652.66 253.46 L656.58 252.68 L660.37 252.23 L663.88 252.26 L667.62 252.04 L669.49 254.60 L671.72 256.60 L674.29 258.13 L676.18 260.60 L678.67 262.23 L679.64 265.85 L679.01 271.44 L681.59 272.86 L682.83 275.95 L682.83 280.47 L686.08 281.05 L689.26 281.77 L691.28 283.84 L694.20 284.92 L698.50 284.53 L702.82 284.22 L707.21 283.91 L710.84 284.48 L715.02 284.56 L717.33 286.56 L719.10 289.08 L720.44 292.00 L722.16 294.54 L724.30 296.68 L723.94 301.05 L722.24 306.50 L723.91 308.95 L724.93 311.94 L723.31 317.05 L726.44 318.25 L729.45 319.57 L731.49 321.68 L733.89 323.53 L738.58 323.71 L742.61 324.45 L746.90 325.08 L750.83 326.04 L754.98 326.91 L757.54 328.91 L758.79 331.79 L759.76 334.83 L760.74 337.85 L761.82 340.78 L760.28 345.26 L756.51 350.96 L756.06 354.62 L756.43 357.78 L754.71 362.05 L756.25 364.51 L757.84 366.95 L762.27 367.97 L764.33 370.23 L768.02 371.73 L772.93 372.72 L778.47 373.51 L782.74 374.97 L787.04 376.48 L789.08 379.02 L789.83 382.09 L790.37 385.24 L790.55 388.52 L791.51 391.48 L790.69 395.08 L787.06 399.63 L785.77 403.27 L786.29 406.28 L783.40 410.35 L783.93 413.30 L785.84 415.83 L787.45 418.47 L789.15 421.10 L792.21 423.40 L796.16 425.52 L799.99 427.74 L803.83 430.02 L807.95 432.31 L809.68 435.17 L809.89 438.35 L810.28 441.49 L809.27 444.88 L809.20 448.08 L808.50 451.36 L804.61 455.09 L801.53 458.62 L802.18 461.61 L799.84 464.95 L798.48 468.13 L799.55 471.04 L801.47 473.90 L802.37 476.86 L804.91 479.73 L807.81 482.63 L811.62 485.54 L814.75 488.55 L817.79 491.62 L819.52 494.77 L819.77 497.96 L818.64 501.16 L817.13 504.32 L817.69 507.51 L816.33 510.64 L811.08 513.58 L807.57 516.51 L808.22 519.64 L804.54 522.46 L802.07 525.32 L803.18 528.47 L804.37 531.66 L804.37 534.74 L806.03 538.03 L808.38 541.46 L811.73 545.08 L813.70 548.58 L816.00 552.17 L817.28 555.65 L816.70 558.82 L814.73 561.71 L812.33 564.49 L811.55 567.59 L809.76 570.45 L804.34 572.42 L798.31 574.15 L796.94 576.97 L794.78 579.57 L791.33 581.77 L790.33 584.63 L792.67 588.49 L792.26 591.57 L793.07 595.05 L795.42 599.09 L797.83 603.22 L800.03 607.36 L801.80 611.41 L803.66 615.56 L802.19 618.47 L800.13 621.14 L797.91 623.72 L796.23 626.51 L794.53 629.29 L789.22 630.42 L782.22 630.67 L780.25 633.18 L777.53 635.30 L773.82 636.90 L771.80 639.31 L772.93 643.35 L772.44 646.59 L772.21 650.00 L774.01 654.58 L775.37 658.99 L777.53 663.97 L778.38 668.25 L779.55 672.79 L778.01 675.71 L775.29 677.86 L771.94 679.58 L769.49 681.86 L767.83 684.66 L762.46 684.86 L755.69 683.95 L752.94 685.83 L750.23 687.72 L745.76 688.24 L743.38 690.31 L743.37 694.26 L742.81 697.81 L741.44 700.74 L742.40 705.68 L742.95 710.36 L743.78 715.39 L743.93 719.90 L744.25 724.65 L742.31 727.38 L739.56 729.35 L735.89 730.40 L732.67 731.85 L730.61 734.43 L725.68 734.06 L719.12 731.86 L715.74 732.91 L712.65 734.22 L708.09 733.86 L705.34 735.46 L704.32 739.08 L703.59 743.10 L701.26 745.26 L701.14 750.18 L700.68 754.78 L700.44 759.78 L699.94 764.56 L699.22 769.16 L696.93 771.70 L693.84 773.16 L690.14 773.69 L686.64 774.47 L684.05 776.58 L679.63 775.88 L673.73 772.75 L669.97 772.82 L666.85 773.88 L662.24 772.41 L659.13 773.36 L657.29 776.52 L655.63 780.08 L653.08 782.11 L651.83 786.60 L650.49 791.08 L649.28 795.95 L647.84 800.52 L646.50 805.49 L643.88 807.89 L640.58 808.84 L636.90 808.89 L633.20 808.85 L630.14 810.25 L626.19 809.47 L621.13 805.78 L616.61 803.18 L613.42 803.93 L609.38 802.30 L605.65 801.38 L603.03 803.59 L600.86 807.28 L597.87 808.52 L595.66 812.38 L593.54 816.74 L591.46 821.50 L589.20 825.88 L586.91 830.48 L583.95 832.70 L580.60 833.45 L576.90 832.65 L573.20 831.74 L569.93 832.71 L566.26 831.70 L561.97 827.23 L557.90 823.39 L554.60 823.58 L551.02 821.94 L547.47 820.19 L544.36 821.39 L541.50 824.59 L538.29 825.31 L535.33 828.45 L532.36 832.03 L529.41 836.53 L526.30 840.20 L523.14 844.06 L519.81 846.21 L516.35 846.43 L512.83 845.10 L509.33 843.33 L505.89 843.20 L502.45 842.19 L499.05 837.08 L495.74 832.04 L492.43 831.47 L489.16 830.00 L485.98 827.06 L482.71 827.03 L479.24 829.97 L475.93 829.91 L472.46 831.77 L468.81 835.06 L465.03 838.91 L461.21 842.33 L457.39 845.15 L453.47 848.23 L450.00 847.68 L446.67 846.22 L443.36 844.77 L439.90 844.27 L436.62 842.80 L433.98 838.09 L431.39 833.62 L427.75 834.32 L425.27 829.80 L422.70 825.98 L419.64 824.38 L416.30 823.98 L412.95 823.55 L409.27 824.24 L405.02 826.81 L400.47 830.13 L395.77 833.60 L391.71 834.79 L387.40 836.60 L384.03 835.47 L380.97 833.47 L377.88 831.63 L374.65 830.18 L371.51 828.52 L369.67 823.65 L368.08 818.36 L364.38 818.26 L362.57 813.76 L361.01 808.88 L358.25 806.78 L355.20 805.33 L351.74 804.72 L348.23 804.15 L343.66 805.63 L338.61 807.87 L333.07 810.84 L328.92 811.05 L324.39 811.86 L320.98 810.63 L318.34 808.04 L315.73 805.45 L312.83 803.35 L309.81 801.46 L308.93 796.25 L308.39 790.66 L304.74 789.85 L303.42 785.60 L303.48 779.49 L300.53 777.73 L298.17 775.18 L294.77 774.02 L291.65 772.46 L286.93 772.94 L281.60 774.07 L275.31 776.25 L270.98 775.89 L266.66 775.45 L263.31 773.80 L260.99 770.96 L258.80 767.99 L256.36 765.31 L253.80 762.79 L253.53 757.86 L254.07 752.19 L251.23 750.04 L250.51 745.81 L251.59 739.90 L249.31 737.30 L247.68 734.11 L244.33 732.50 L241.63 730.27 L236.92 729.80 L231.45 729.88 L224.76 730.87 L220.23 729.95 L216.29 728.47 L213.03 726.40 L211.21 723.19 L209.66 719.79 L208.02 716.47 L205.30 713.95 L205.85 709.10 L207.44 703.59 L205.47 700.62 L205.03 696.63 L206.96 691.14 L205.56 687.88 L204.60 684.36 L201.81 681.99 L199.81 679.11 L195.51 677.57 L190.16 676.57 L183.64 676.11 L179.25 674.38 L175.42 672.28 L172.35 669.73 L171.02 666.27 L170.00 662.66 L169.23 658.95 L167.02 655.93 L167.86 651.51 L170.28 646.44 L169.87 642.68 L169.54 638.92 L172.08 634.01 L172.12 630.19 L172.10 626.41 L169.71 623.55 L168.16 620.37 L164.93 617.76 L159.67 615.80 L153.28 614.12 L148.84 611.70 L145.53 608.86 L142.82 605.79 L142.02 602.15 L141.76 598.36 L141.40 594.61 L140.26 591.08 L141.36 586.99 L144.40 582.50 L145.76 578.46 L145.48 574.81 L148.43 570.52 L149.73 566.63 L150.64 562.84 L148.90 559.53 L148.13 556.05 L145.69 552.81 L141.12 549.83 L135.61 546.88 L130.95 543.74 L128.54 540.26 L125.82 536.77 L125.64 533.02 L126.31 529.19 L126.81 525.40 L126.29 521.69 L127.55 517.88 L131.71 513.99 L134.37 510.23 L133.85 506.58 L137.70 502.89 L140.31 499.27 L141.60 495.69 L140.88 492.08 L140.91 488.49 L139.11 484.82 L135.28 481.00 L130.42 477.04 L126.43 473.04 L124.07 469.09 L121.82 465.09 L122.25 461.32 L123.25 457.61 L124.66 453.97 L125.81 450.30 L127.34 446.71 L131.63 443.56 L137.32 440.71 L137.29 436.98 L140.08 433.75 L144.16 430.81 L143.57 426.99 L142.60 423.06 L143.77 419.58 L143.07 415.66 L140.54 411.26 L138.08 406.80 L135.53 402.25 L134.13 397.94 L132.04 393.38 L132.70 389.58 L134.63 386.16 L137.06 382.93 L138.68 379.45 L140.58 376.07 L145.12 373.65 L151.53 371.99 L152.52 368.40 L155.18 365.45 L160.21 363.48 L159.99 359.43 L160.01 355.44 L161.61 352.11 L162.21 348.33 L160.67 343.54 L159.28 338.75 L158.27 334.07 L157.78 329.58 L156.42 324.59 L158.48 321.31 L160.35 317.94 L162.69 314.83 L165.61 312.06 L168.01 309.02 L171.90 306.86 L178.49 306.39 L181.29 303.70 L184.16 301.09 L189.36 299.99 L190.11 296.07 L191.10 292.26 L192.50 288.71 L194.26 285.38 L193.44 280.20 L192.79 275.05 L192.68 270.21 L192.74 265.43 L192.40 260.26 L194.10 256.63 L196.99 253.95 L200.80 252.03 L203.91 249.58 L206.40 246.60 L211.32 245.77 L217.75 246.37 L221.20 244.39 L224.45 242.25 L230.13 242.46 L232.24 239.30 L233.79 235.57 L236.11 232.58 L238.11 229.25 L238.48 224.17 L238.88 219.01 L239.49 213.99 L240.43 209.22 L240.78 203.70 L243.15 200.42 L246.74 198.56 L250.41 196.83 L254.10 195.15 L257.63 193.29 L262.76 193.54 L269.48 195.98 L274.61 196.50 L278.23 195.05 L283.30 195.67 L286.93 194.33 L289.76 191.87 L291.09 187.15 L293.34 183.72 L295.42 179.95 L296.30 174.20 L296.64 167.39 L298.15 162.32 L299.70 157.17 L302.46 153.99 L306.32 152.74 L310.30 151.73 L314.44 151.07 L318.15 149.64 L322.53 149.56 L328.02 151.79 L332.93 153.05 L336.30 151.15 L341.31 152.84 L345.47 152.81 L348.38 149.97 L351.41 147.32 L354.77 145.44 L357.29 141.42 L359.77 137.11 L361.95 131.86 L364.65 127.77 L367.14 122.93 L370.21 119.55 L374.23 118.91 L378.37 118.68 L382.61 118.85 L386.60 118.26 L390.85 118.64 L395.93 122.14 L400.70 124.84 L404.20 122.86 L408.70 124.91 L413.07 126.64 L416.47 124.26 L419.90 121.90 L423.67 121.05 L426.97 117.69 L430.26 114.02 L433.35 108.84 L436.86 105.64 L440.29 101.58 L443.95 98.63 L448.02 98.55 L452.12 98.72 L456.27 99.55 L460.34 99.71 L464.45 100.56 L468.73 103.82 L472.98 107.67 L476.90 107.29 L480.92 108.99 L484.94 111.54 L488.83 111.66 L492.67 109.25 L496.58 109.08 L500.49 107.67 L504.45 104.43 L508.48 100.68 L512.57 97.82 L516.69 95.45 L520.86 93.33 L524.93 93.37 L528.90 95.03 L532.73 97.95 L536.70 98.92 L540.67 99.63 L544.19 104.41 L547.40 110.95 L551.23 111.86 L554.96 113.45 L558.39 116.86 L562.07 118.40 L566.35 116.31 L570.39 115.86 L574.45 115.47 L579.16 111.98 L583.80 109.23 L588.61 106.06 L593.28 103.82 L598.21 100.81 L602.21 101.79 L605.91 103.87 L609.32 106.91 L612.96 109.01 L616.75 110.53 L619.35 115.86 L621.38 122.69 L624.82 124.90 L628.11 127.49 L630.82 131.64 L634.29 133.51 L638.79 132.64 L643.10 132.42 L647.06 133.12 L652.27 130.85 L657.33 129.16 L662.60 127.15 L667.74 125.64 L672.97 124.09 L676.84 125.57 L680.19 128.15 L682.96 131.87 L686.07 134.81 L689.81 136.51 L691.63 141.81 L692.14 149.33 L695.00 152.39 L697.92 155.31 L699.66 160.20 L702.80 162.64 L707.19 163.00 L711.61 163.40 L715.33 164.97 L720.85 163.82 L726.11 163.21 L731.72 162.20 L737.16 161.57 L742.67 160.97 L746.55 162.73 L749.70 165.50 L751.68 169.78 L753.99 173.58 L757.58 175.71 L758.97 180.56 L757.90 188.30 L759.56 192.61 L762.24 195.66 L762.85 201.06 L764.92 204.71 L769.31 205.79 L774.06 206.55 L777.19 209.08 L782.61 209.28 L788.08 209.51 L793.84 209.58 L799.06 210.27 L804.85 210.52 L808.36 212.99 L810.92 216.35 L812.19 220.86 L813.56 225.23 L816.53 228.18 L817.30 232.98 L815.50 239.84 L815.44 245.15 L817.89 248.38 L818.60 252.96 L819.46 257.37 L823.17 259.61 L827.93 261.13 L830.26 264.45 L835.45 265.77 L840.10 267.55 L845.70 268.76 L850.99 270.27 L856.48 271.73 L859.81 274.64 L861.95 278.31 L862.42 282.97 L862.58 287.77 L864.74 291.38 L865.36 295.84 L862.58 302.13 L860.88 307.72 L862.82 311.32 L862.34 316.15 L862.27 320.71 L864.75 324.00 L868.57 326.68 L870.64 330.21 L875.01 332.73 L879.87 335.10 L885.61 337.17 L890.59 339.65 L895.57 342.21 L898.92 345.48 L900.43 349.48 L900.26 354.10 L899.48 358.89 L900.77 362.93 L901.08 367.28 L897.24 372.95 L893.67 378.41 L894.37 382.51 L893.70 386.98 L892.08 391.68 L893.61 395.48 L897.83 398.60 L898.93 402.56 L902.46 405.96 L907.29 409.11 L912.38 412.30 L916.80 415.70 L921.06 419.22 L924.89 422.88 L925.21 427.20 L923.96 431.77 L922.54 436.33 L922.95 440.59 L922.49 444.96 L917.99 449.79 L913.07 454.56 L913.03 458.74 L911.59 463.04 L909.13 467.38 L909.44 471.47 L912.75 475.39 L913.35 479.50 L915.90 483.54 L920.08 487.58 L925.12 491.69 L929.84 495.89 L949.84 500.00 L954.02 495.46 L958.42 490.83 L963.10 486.10 L966.62 481.33 L968.38 476.56 L967.48 471.92 L968.92 467.12 L968.21 462.46 L964.14 458.11 L961.19 453.73 L960.15 449.18 L954.58 445.19 L948.52 441.36 L946.63 437.06 L946.42 432.53 L943.26 428.47 L939.47 424.56 L938.37 420.23 L941.40 415.11 L942.96 410.21 L945.28 405.09 L948.83 399.63 L950.85 394.44 L951.94 389.40 L950.32 385.02 L950.88 380.06 L949.46 375.61 L945.21 371.98 L941.15 368.36 L939.12 364.16 L933.57 361.12 L926.55 358.65 L923.66 354.89 L922.51 350.54 L918.84 347.11 L914.44 344.00 L912.63 339.95 L913.54 334.83 L914.66 329.55 L915.55 324.31 L917.96 318.34 L918.87 312.94 L919.31 307.70 L916.77 303.79 L916.20 298.95 L914.39 294.69 L909.41 292.03 L904.64 289.34 L902.13 285.51 L896.23 283.54 L889.09 282.36 L885.52 279.27 L883.31 275.41 L878.87 272.89 L874.39 270.46 L871.76 266.92 L870.77 262.35 L871.31 256.73 L871.35 251.36 L871.87 245.59 L871.74 240.18 L871.53 234.76 L868.22 231.52 L866.93 226.81 L865.13 222.42 L860.17 220.47 L854.79 218.91 L851.42 215.82 L846.17 214.29 L838.82 214.61 L833.83 213.06 L831.28 209.44 L826.87 207.48 L821.80 206.17 L818.32 203.45 L816.15 199.52 L816.25 193.35 L815.07 188.32 L814.75 182.34 L814.01 176.68 L812.75 171.47 L809.23 168.59 L807.04 164.27 L804.28 160.54 L799.37 159.21 L793.53 159.04 L789.50 156.85 L784.34 156.05 L776.77 158.31 L771.49 157.88 L768.20 154.99 L763.51 153.94 L758.33 153.61 L754.51 151.52 L751.45 148.38 L750.12 142.74 L748.23 137.78 L746.68 132.21 L744.97 126.75 L742.98 121.57 L739.28 119.02 L736.00 115.76 L732.73 112.45 L728.32 111.03 L722.40 112.29 L717.82 111.32 L713.26 110.38 L706.30 113.96 L700.58 115.46 L696.75 113.44 L692.19 112.86 L687.12 113.43 L682.83 112.45 L679.10 110.30 L676.66 105.25 L674.00 100.52 L671.28 95.78 L668.65 90.64 L665.95 85.46 L661.78 83.87 L657.98 81.31 L654.37 78.14 L649.76 77.69 L644.14 80.28 L639.39 80.48 L634.76 80.45 L628.86 84.61 L623.30 88.02 L619.07 87.18 L614.72 86.76 L609.93 88.10 L605.31 88.94 L601.28 87.56 L598.22 82.02 L594.58 78.61 L591.08 74.34 L587.54 69.92 L583.99 65.16 L579.68 64.10 L575.31 63.37 L571.29 60.48 L566.72 60.90 L561.80 63.99 L557.25 64.78 L552.82 64.85 L547.81 70.27 L543.05 74.33 L538.72 74.68 L534.43 74.82 L529.93 77.94 L525.58 79.83 L521.38 79.53 L517.29 76.36 L513.11 74.58 L508.90 71.91 L504.66 68.17 L500.35 65.13 L495.99 64.25 L491.65 65.10 L487.24 63.11 L482.91 64.26 L478.71 67.57 L474.48 69.41 L470.25 70.83 L466.28 75.14 L462.34 78.94 L458.23 80.36 L454.19 82.19 L450.27 84.80 L446.27 86.50 L442.26 87.90 L437.74 85.81 L433.16 83.69 L428.56 81.81 L423.61 78.29 L418.90 76.51 L414.23 75.15 L410.09 76.50 L405.56 76.08 L401.10 76.10 L397.78 80.85 L394.24 84.43 L390.02 85.25 L387.01 90.47 L384.16 95.94 L380.51 98.43 L376.89 100.91 L373.54 104.15 L370.05 106.80 L366.42 108.99 L361.97 108.81 L356.92 107.06 L352.09 106.10 L346.71 103.84 L341.74 102.85 L336.87 102.25 L332.92 103.95 L328.57 104.71 L324.41 105.96 L321.60 110.19 L319.11 114.97 L315.39 117.05 L313.08 121.98 L311.43 128.05 L308.66 131.76 L305.26 134.19 L302.69 138.15 L299.80 141.43 L296.57 144.04 L292.58 145.34 L287.33 144.57 L282.03 143.85 L275.97 142.04 L270.64 141.53 L266.08 142.34 L261.79 143.61 L257.15 144.42 L253.71 147.01 L250.83 150.39 L249.58 155.96 L246.84 159.41 L245.86 165.14 L246.23 172.48 L244.86 177.43 L242.04 180.48 L239.91 184.35 L237.59 187.95 L234.68 190.82 L231.13 192.96 L225.78 193.09 L221.07 194.03 L216.01 194.67 L211.05 195.50 L206.13 196.45 L202.65 198.94 L199.54 201.82 L195.94 204.22 L193.29 207.56 L193.39 213.45 L191.28 217.21 L190.03 221.71 L190.76 227.90 L190.24 232.89 L187.88 236.25 L186.21 240.18 L184.80 244.28 L182.69 247.78 L179.86 250.72 L175.16 252.24 L170.69 254.00 L166.25 255.84 L161.89 257.80 L157.05 259.49 L154.14 262.58 L151.96 266.17 L149.20 269.37 L146.23 272.45 L147.42 278.17 L146.72 282.63 L146.10 287.09 L147.98 292.99 L148.18 297.81 L147.11 301.87 L145.98 305.86 L145.09 309.97 L142.82 313.33 L140.80 316.82 L136.54 319.20 L132.73 321.87 L128.98 324.61 L125.24 327.40 L121.15 330.09 L118.77 333.58 L117.67 337.63 L115.18 341.10 L112.30 344.43 L114.82 349.89 L114.83 354.32 L113.80 358.33 L117.16 363.89 L118.56 368.67 L117.83 372.68 L117.55 376.82 L117.60 381.04 L116.33 384.84 L115.07 388.65 L111.65 391.86 L108.91 395.29 L105.29 398.54 L102.42 402.03 L99.50 405.55 L97.43 409.30 L97.60 413.56 L95.60 417.35 L93.68 421.19 L96.54 425.92 L98.14 430.36 L96.77 434.27 L100.96 439.04 L103.20 443.44 L103.16 447.48 L103.54 451.55 L104.13 455.64 L103.75 459.60 L103.27 463.56 L101.27 467.39 L99.36 471.27 L95.90 475.08 L92.38 478.95 L89.91 482.93 L89.13 487.02 L89.04 491.12 L88.73 495.23 L90.48 499.35 L93.88 503.41 L96.76 507.42 L95.98 511.48 L100.50 515.35 L103.48 519.21 L104.05 523.15 L105.11 527.06 L105.39 531.00 L105.06 535.01 L105.18 538.98 L104.48 543.05 L103.86 547.13 L101.10 551.50 L98.57 555.92 L97.75 560.14 L97.70 564.27 L98.39 568.28 L98.94 572.32 L101.08 576.06 L104.82 579.45 L108.46 582.80 L108.99 586.78 L113.48 589.85 L117.21 593.03 L118.67 596.72 L120.15 600.40 L121.51 604.10 L121.96 608.06 L123.00 611.85 L123.20 615.90 L123.63 619.90 L122.26 624.51 L120.56 629.29 L120.06 633.72 L120.37 637.89 L122.31 641.48 L122.96 645.55 L125.25 648.99 L129.11 651.77 L133.80 654.14 L135.83 657.59 L140.01 660.08 L144.54 662.34 L147.31 665.35 L149.34 668.70 L151.28 672.08 L152.64 675.75 L154.14 679.36 L155.27 683.17 L156.24 687.09 L155.94 691.74 L155.02 696.79 L155.37 701.19 L156.24 705.32 L158.43 708.67 L160.17 712.30 L163.34 715.03 L167.01 717.41 L172.48 718.54 L175.19 721.46 L179.35 723.35 L184.29 724.63 L187.75 726.90 L190.25 729.86 L192.79 732.77 L195.07 735.88 L197.08 739.21 L198.91 742.69 L200.59 746.31 L201.16 750.89 L201.16 756.03 L202.35 760.22 L203.80 764.23 L206.87 766.80 L208.78 770.44 L212.46 772.42 L216.37 774.16 L222.05 774.09 L225.34 776.32 L229.06 778.09 L234.37 778.14 L238.37 779.50 L241.27 782.01 L244.55 784.08 L247.31 786.73 L249.73 789.77 L252.40 792.54 L254.83 795.62 L256.42 799.74 L257.33 804.80 L259.36 808.54 L261.29 812.45 L264.81 814.32 L267.46 817.34 L271.20 818.87 L274.90 820.43 L280.63 819.02 L284.71 819.89 L288.12 821.72 L293.50 820.48 L297.85 820.73 L301.17 822.57 L304.69 824.07 L307.97 825.95 L310.78 828.65 L313.88 830.88 L316.68 833.67 L319.39 836.67 L321.13 841.58 L323.58 845.27 L326.37 848.35 L329.85 850.09 L333.18 852.17 L336.80 853.61 L340.81 854.20 L345.92 852.20 L350.32 851.68 L353.74 853.42 L358.84 850.98 L363.20 850.21 L366.74 851.49 L370.54 852.05 L374.13 853.16 L377.41 855.14 L380.85 856.70 L384.08 858.92 L387.24 861.45 L389.97 865.54 L392.97 868.89 L396.27 871.36 L399.87 872.80 L403.63 873.68 L407.30 874.94 L411.36 874.55 L415.95 871.69 L420.20 870.08 L423.67 871.99 L428.21 868.53 L432.36 866.72 L436.03 867.38 L439.85 867.16 L443.59 867.33 L447.18 868.44 L450.83 869.22 L454.33 871.27 L457.79 874.00 L461.28 876.80 L464.86 879.29 L468.50 881.51 L472.19 883.45 L476.06 883.27 L479.81 884.96 L483.69 884.65 L487.64 881.57 L491.50 879.65 L495.30 879.39 L499.10 875.15 L502.82 870.79 L506.53 870.66 L510.23 870.57 L513.88 868.96 L517.54 868.18 L521.25 868.44 L525.03 869.63 L528.88 871.40 L532.80 873.43 L536.74 875.17 L540.67 876.52 L544.65 877.87 L548.34 876.72 L552.30 877.64 L556.12 877.45 L559.47 874.17 L562.73 870.76 L566.32 869.48 L569.40 865.54 L572.21 860.64 L575.58 858.80 L579.30 858.64 L582.65 856.85 L586.06 855.35 L589.69 854.79 L593.48 854.82 L597.61 856.01 L601.80 857.22 L605.91 858.02 L610.03 858.73 L614.21 859.51 L617.58 857.67 L621.75 858.25 L625.56 857.65 L628.16 853.73 L630.43 849.05 L633.85 847.55 L635.95 842.76 L637.74 837.38 L640.52 834.58 L644.05 833.60 L647.06 831.42 L650.07 829.29 L653.40 827.88 L656.88 826.77 L661.29 827.51 L665.60 827.95 L669.88 828.23 L674.01 828.12 L678.40 828.43 L681.75 826.76 L685.88 826.45 L689.43 825.09 L691.65 821.46 L692.99 816.46 L695.39 813.31 L697.32 809.48 L697.92 803.67 L699.50 799.51 L702.92 798.13 L705.50 795.53 L707.65 792.34 L710.61 790.31 L713.82 788.62 L717.95 788.13 L722.48 788.08 L726.24 786.97 L730.07 785.91 L734.56 785.59 L737.05 782.81 L740.77 781.47 L744.50 780.11 L746.38 776.64 L746.91 771.71 L748.60 768.14 L750.56 764.89 L749.75 758.80 L750.07 753.99 L753.21 752.09 L755.27 749.11 L756.61 745.46 L759.36 743.16 L762.11 740.86 L766.10 739.66 L770.10 738.43 L773.81 736.87 L777.54 735.29 L781.64 733.96 L784.07 731.22 L786.97 728.84 L790.49 726.93 L792.20 723.61 L791.63 718.58 L792.20 714.47 L793.91 711.24 L791.94 705.43 L790.61 700.18 L793.45 697.84 L795.06 694.66 L795.47 690.72 L797.60 687.90 L799.79 685.12 L803.53 683.26 L807.21 681.32 L810.95 679.35 L814.28 677.11 L818.22 675.16 L820.15 672.07 L821.95 668.92 L825.47 666.64 L826.08 662.85 L824.88 658.21 L824.74 654.15 L825.79 650.67 L822.63 645.31 L820.45 640.49 L822.25 637.46 L823.00 633.97 L822.95 630.19 L824.19 626.93 L826.01 623.90 L828.73 621.18 L832.02 618.64 L835.74 616.20 L838.50 613.37 L841.59 610.62 L844.15 607.66 L844.94 604.13 L847.82 601.22 L848.18 597.56 L846.00 593.23 L844.88 589.23 L845.20 585.64 L841.53 581.12 L837.97 576.71 L838.69 573.32 L839.51 569.95 L838.83 566.28 L838.83 562.77 L840.04 559.49 L842.06 556.32 L843.62 553.05 L845.97 549.88 L848.45 546.68 L849.59 543.28 L851.80 539.99 L851.94 536.44 L853.26 533.01 L854.37 529.55 L851.73 525.79 L848.89 522.07 L849.95 518.63 L846.36 514.97 L843.37 511.40 L842.65 507.95 L842.26 504.51 L841.53 501.09 L841.17 497.68 L841.21 494.26 L842.38 490.82 L843.90 487.33 L845.71 483.80 L847.46 480.24 L847.83 476.72 L849.16 473.13 L849.06 469.62 L849.62 466.05 L849.30 462.55 L847.07 459.27 L843.75 456.17 L843.13 452.76 L839.42 449.81 L835.85 446.90 L834.16 443.73 L832.86 440.53 L831.50 437.34 L830.99 434.00 L830.50 430.66 L830.56 427.18 L831.75 423.44 L832.76 419.69 L833.74 415.91 L833.73 412.36 L834.31 408.62 L834.05 405.09 L833.43 401.65 L832.86 398.19 L830.91 395.16 L826.53 392.95 L825.00 389.83 L821.34 387.48 L816.77 385.51 L814.28 382.85 L812.73 379.85 L810.78 377.02 L809.21 374.05 L808.16 370.87 L807.32 367.59 L807.58 363.82 L808.63 359.64 L809.41 355.54 L809.65 351.64 L809.55 347.86 L808.49 344.53 L808.41 340.69 L807.32 337.33 L805.64 334.29 L800.49 333.17 L797.84 330.72 L793.74 329.15 L787.65 328.82 L783.94 327.15 L782.26 324.28 L780.03 321.76 L778.40 318.86 L777.40 315.54 L775.84 312.58 L775.04 309.07 L774.92 305.05 L773.80 301.70 L772.06 298.78 L771.74 294.78 L770.28 291.61 L767.88 289.15 L766.38 285.99 L765.06 282.65 L759.52 282.82 L756.73 280.75 L754.34 278.36 L749.71 277.96 L746.38 276.47 L744.56 273.62 L742.06 271.40 L738.90 269.82 L736.96 267.07 L734.38 264.95 L732.51 262.12 L730.75 259.15 L729.25 255.87 L727.09 253.27 L725.42 250.13 L723.67 247.02 L720.49 245.53 L718.65 242.50 L716.96 239.24 L712.30 239.60 L709.21 238.08 L707.17 235.25 L702.60 235.68 L699.07 234.83 L696.87 232.23 L693.41 231.35 L689.74 230.81 L687.52 228.23 L684.38 226.97 L681.74 224.99 L679.65 222.16 L677.61 219.19 L674.87 217.31 L672.82 214.28 L670.36 211.87 L666.96 211.08 L664.58 208.51 L662.10 206.06 L657.76 207.05 L654.52 206.05 L652.18 203.35 L647.57 205.11 L644.10 204.69 L641.29 202.97 L637.48 203.35 L633.99 203.14 L631.00 201.86 L627.67 201.36 L625.00 199.31 L622.25 197.43 L619.98 194.28 L617.30 192.09 L614.47 190.23 L611.98 187.40 L608.69 186.76 L605.73 185.14 L602.75 183.59 L598.92 184.69 L595.40 184.88 L592.76 182.20 L588.76 184.18 L585.19 184.83 L582.27 183.08 L578.58 184.35 L574.97 185.48 L572.00 183.93 L568.62 184.21 L565.48 183.47 L562.55 181.60 L559.84 178.44 L556.98 175.80 L553.85 174.54 L550.70 173.36 L547.33 173.54 L544.11 172.77 L540.72 173.25 L537.16 175.36 L533.69 177.20 L530.53 176.12 L527.04 178.83 L523.66 180.78 L520.48 180.40 L517.22 181.28 L514.01 181.77 L510.84 181.01 L507.64 181.35 L504.46 181.10 L501.27 180.88 L498.06 178.17 L494.81 175.78 L491.54 174.79 L488.27 174.47 L485.02 174.65 L481.78 175.02 L478.61 176.42 L475.51 178.49 L472.42 180.12 L469.12 179.40 L466.14 181.77 L463.19 184.16 L460.15 185.48 L457.10 186.57 L454.19 188.49 L451.18 189.66 L448.03 189.87 L444.92 190.32 L441.78 190.62 L438.19 188.70 L434.65 187.30 L431.27 186.80 L427.86 186.29 L424.84 187.49 L421.57 187.66 L418.77 189.66 L416.11 192.10 L413.77 195.56 L410.41 195.35 L407.63 197.12 L405.29 200.22 L402.30 201.19 L399.29 202.10 L396.72 204.30 L394.31 206.84 L391.08 207.09 L388.21 208.33 L385.65 210.37 L381.72 208.96 L377.86 207.87 L374.46 207.98 L371.09 208.22 L368.22 209.62 L365.19 210.67 L362.79 213.05 L360.37 215.34 L358.68 219.02 L355.81 220.32 L353.52 222.72 L351.08 224.80 L348.77 227.10 L347.26 230.76 L344.66 232.44 L341.82 233.72 L339.83 236.41 L337.15 237.94 L333.55 238.03 L330.70 239.34 L326.99 239.37 L323.43 239.68 L319.99 240.25 L317.71 242.50 L314.81 243.88 L312.27 245.75 L310.36 248.47 L308.97 251.83 L306.25 253.43 L303.16 254.59 L301.97 258.11 L300.18 260.83 L297.96 263.04 L296.92 266.59 L296.20 270.44 L294.43 273.06 L292.90 275.91 L290.95 278.29 L288.32 279.95 L284.54 280.46 L281.04 281.31 L278.06 282.72 L275.18 284.26 L273.05 286.54 L270.75 288.65 L269.22 291.47 L268.92 295.37 L268.33 298.94 L265.71 300.74 L266.10 305.06 L264.62 307.79 L262.27 309.80 L261.86 313.35 L259.02 314.98 L256.81 317.12 L255.81 320.16 L253.75 322.42 L251.59 324.61 L248.34 326.06 L245.47 327.81 L242.53 329.55 L239.85 331.49 L237.79 333.86 L236.03 336.42 L235.52 339.74 L234.27 342.59 L232.73 345.27 L230.79 347.72 L231.05 351.40 L231.09 354.91 L229.44 357.50 L231.45 361.97 L231.61 365.43 L229.93 367.94 L228.33 370.51 L227.77 373.57 L225.98 376.06 L222.10 377.63 L219.94 380.01 L218.62 382.76 L216.42 385.16 L215.39 388.04 L214.01 390.79 L213.03 393.69 L212.55 396.77 L212.80 400.09 L210.44 402.51 L210.59 405.77 L211.00 409.09 L211.34 412.35 L213.37 416.09 L212.56 418.97 L212.91 422.16 L214.72 425.70 L213.87 428.53 L211.57 431.01 L209.37 433.55 L208.06 436.32 L205.86 438.91 L202.99 441.41 L202.33 444.36 L200.13 447.05 L199.65 450.06 L199.46 453.11 L198.96 456.11 L200.31 459.36 L202.28 462.66 L205.45 466.04 L208.24 469.32 L210.47 472.48 L211.89 475.52 L212.41 478.45 L211.93 481.31 L210.78 484.14 L208.40 486.93 L205.67 489.76 L203.71 492.66 L202.00 495.60 L199.88 498.57 L199.76 501.57 L198.51 504.59 L198.43 507.61 L198.69 510.62 L199.52 513.60 L202.15 516.46 L203.68 519.35 L207.75 522.03 L212.48 524.56 L214.76 527.24 L217.08 529.88 L218.49 532.58 L219.04 535.37 L219.44 538.17 L216.18 541.51 L214.30 544.71 L213.21 547.82 L210.48 551.26 L209.28 554.47 L209.81 557.38 L208.58 560.66 L209.29 563.55 L210.68 566.29 L210.36 569.41 L213.06 571.81 L216.10 574.07 L218.67 576.41 L223.17 578.17 L226.12 580.31 L229.74 582.19 L231.63 584.55 L232.15 587.35 L233.24 589.95 L232.16 593.31 L230.63 596.87 L230.25 600.06 L228.58 603.78 L228.03 607.12 L229.00 609.89 L229.08 613.02 L229.94 615.84 L231.51 618.36 L232.62 621.08 L235.02 623.20 L238.53 624.77 L241.94 626.32 L246.97 627.01 L249.91 628.68 L253.65 629.89 L256.47 631.54 L256.48 634.69 L257.89 637.09 L257.75 640.39 L255.87 644.76 L256.37 647.78 L256.42 651.09 L255.84 654.86 L257.14 657.46 L259.13 659.62 L259.77 662.67 L261.76 664.82 L262.91 667.55 L265.21 669.48 L268.79 670.44 L272.30 671.39 L276.84 671.49 L281.33 671.55 L285.24 671.97 L288.62 672.77 L289.86 675.29 L290.87 678.03 L291.17 681.40 L290.65 685.56 L291.11 688.91 L291.47 692.42 L291.63 696.16 L293.25 698.57 L295.90 699.98 L297.35 702.58 L299.29 704.69 L301.24 706.81 L303.67 708.40 L307.23 708.77 L310.25 709.67 L314.99 708.59 L319.16 708.04 L323.01 707.77 L326.39 707.98 L328.96 709.11 L331.39 710.40 L332.14 713.82 L333.07 717.06 L333.93 720.48 L334.12 724.87 L335.30 728.01 L336.13 731.70 L338.58 733.15 L340.56 735.29 L343.06 736.65 L345.95 737.42 L348.86 738.12 L352.44 737.69 L356.38 736.59 L360.22 735.55 L364.08 734.34 L367.48 733.84 L370.27 734.35 L372.87 735.18 L375.64 735.65 L377.39 738.08 L378.70 741.44 L379.98 744.97 L381.59 747.93 L382.88 751.67 L384.70 754.37 L387.33 755.32 L389.56 757.22 L392.32 757.86 L395.18 758.24 L397.80 759.21 L401.12 758.33 L404.80 756.35 L408.44 754.32 L411.90 752.61 L414.94 751.97 L418.08 750.91 L420.55 751.85 L422.79 753.56 L425.20 754.76 L427.10 757.81 L428.92 761.31 L431.41 762.50 L433.59 764.99 L435.98 766.70 L438.52 767.89 L441.28 768.14 L443.82 769.41 L446.62 769.48 L449.52 768.88 L452.43 768.15 L455.50 766.30 L458.73 763.12 L461.68 761.36 L464.66 759.04 L467.39 758.28 L469.93 759.04 L472.49 759.58 L475.02 760.60 L477.49 762.36 L479.89 765.55 L482.52 766.18 L485.17 766.65 L487.72 769.28 L490.40 769.67 L493.10 769.58 L495.78 770.81 L498.49 771.25 L501.19 769.71 L503.86 767.44 L506.47 764.88 L509.02 761.97 L511.47 757.96 L513.96 756.19 L516.43 754.70 L518.89 753.35 L521.52 754.31 L524.15 755.01 L526.93 756.93 L529.83 759.53 L532.62 760.82 L535.40 761.79 L538.29 763.28 L540.94 763.02 L543.59 762.74 L546.35 763.05 L549.06 762.99 L551.24 760.20 L553.56 758.35 L555.73 755.90 L557.54 752.08 L559.53 749.27 L561.80 747.79 L563.75 745.14 L565.93 743.49 L568.49 743.26 L570.73 741.93 L573.61 742.75 L576.60 743.79 L579.90 745.70 L583.27 747.60 L586.45 748.79 L589.40 749.23 L592.29 749.41 L595.06 749.21 L597.55 748.23 L599.26 745.36 L600.94 742.52 L602.26 738.92 L603.06 734.28 L603.96 730.06 L605.09 726.50 L606.58 723.82 L608.79 722.70 L611.50 722.57 L613.71 721.42 L616.97 722.27 L619.89 722.39 L623.32 723.37 L626.07 723.07 L629.04 723.08 L632.09 723.17 L633.90 721.16 L636.55 720.52 L639.17 719.81 L640.98 717.81 L642.38 715.24 L643.84 712.79 L644.66 709.45 L644.67 705.05 L645.35 701.70 L646.03 698.43 L646.84 695.41 L648.56 693.63 L650.90 692.67 L653.58 692.09 L656.02 691.20 L660.18 692.34 L663.36 692.22 L666.57 692.07 L670.03 692.14 L671.04 689.43 L673.31 688.12 L676.40 687.68 L677.43 685.03 L677.82 681.77 L679.60 679.95 L680.01 676.79 L678.86 672.18 L679.19 669.08 L679.01 665.56 L679.55 662.75 L681.98 661.67 L683.37 659.66 L685.60 658.36 L688.50 657.61 L691.68 657.03 L694.63 656.22 L697.12 655.01 L699.57 653.73 L701.31 651.89 L703.49 650.36 L705.01 648.34 L706.54 646.32 L707.77 644.10 L707.23 640.67 L707.12 637.59 L706.05 633.93 L704.56 630.07 L703.61 626.62 L703.85 623.96 L705.05 621.90 L705.77 619.57 L707.61 617.87 L709.76 616.34 L712.80 615.25 L716.26 614.34 L718.31 612.65 L721.67 611.59 L723.48 609.72 L724.67 607.53 L726.62 605.69 L727.60 603.39 L729.54 601.51 L728.40 598.29 L728.48 595.63 L726.90 592.31 L724.94 588.90 L722.49 585.37 L721.60 582.49 L722.62 580.35 L722.77 577.89 L724.31 575.92 L726.38 574.11 L729.62 572.63 L732.24 570.92 L734.29 568.99 L737.13 567.26 L738.09 564.96 L738.39 562.49 L738.94 560.09 L738.31 557.40 L739.21 555.09 L738.24 552.37 L736.38 549.49 L735.79 546.91 L732.13 543.77 L729.55 540.91 L728.07 538.30 L728.79 536.07 L729.27 533.80 L730.00 531.56 L731.57 529.42 L734.32 527.39 L736.50 525.25 L739.36 523.14 L741.11 520.88 L743.20 518.61 L743.64 516.19 L743.75 513.75 L743.56 511.30 L742.50 508.82 L741.68 506.37 L739.23 503.92 L737.25 501.51 L733.09 499.15 L730.24 496.86 L727.76 494.62 L725.81 492.40 L727.43 490.07 L728.18 487.75 L729.28 485.39 L731.88 482.90 L733.51 480.43 L736.23 477.82 L737.59 475.29 L737.77 472.87 L737.52 470.49 L737.60 468.06 L737.82 465.61 L736.67 463.35 L735.13 461.18 L733.08 459.12 L730.75 457.14 L726.16 455.65 L723.62 453.82 L719.99 452.28 L718.50 450.30 L719.04 447.87 L719.53 445.43 L719.37 443.14 L721.81 440.13 L723.00 437.41 L725.87 434.16 L726.13 431.63 L725.68 429.29 L725.34 426.91 L724.43 424.72 L723.76 422.45 L722.10 420.53 L720.18 418.72 L717.07 417.39 L715.05 415.69 L711.18 414.76 L705.94 414.47 L702.95 413.32 L703.10 410.85 L701.70 409.05 L700.15 407.33 L702.30 403.86 L703.36 400.85 L704.29 397.86 L705.07 394.89 L706.19 391.70 L706.01 389.15 L704.06 387.56 L703.64 385.12 L702.82 382.89 L699.73 382.00 L698.88 379.80 L695.96 378.87 L692.63 378.25 L688.60 378.15 L685.47 377.52 L681.67 377.40 L679.45 376.27 L678.02 374.61 L676.32 373.15 L675.38 371.15 L674.60 369.01 L675.56 365.53 L677.46 361.24 L677.40 358.40 L677.12 355.70 L677.00 352.83 L675.14 351.39 L673.87 349.45 L671.67 348.33 L669.45 347.24 L666.51 346.85 L663.12 346.93 L659.15 347.64 L655.48 348.13 L651.58 348.96 L650.15 347.36 L649.57 344.87 L648.03 343.36 L646.70 341.63 L645.62 339.61 L645.48 336.51 L645.54 333.11 L644.99 330.35 L644.08 327.96 L642.67 326.13 L641.32 324.23 L639.41 323.01 L637.02 322.42 L634.56 321.95 L632.31 321.24 L629.26 321.66 L625.23 323.53 L622.44 323.75 L619.06 324.91 L616.40 325.08 L614.88 323.56 L613.76 321.40 L612.35 319.66 L610.47 318.66 L610.35 314.72 L610.03 310.99 L608.50 309.25 L607.49 306.55 L605.73 305.16 L603.63 304.38 L602.11 302.50 L599.77 302.19 L596.84 303.14 L594.72 302.48 L591.86 303.43 L588.55 305.47 L585.48 307.12 L582.41 308.91 L580.43 308.26 L578.54 307.38 L576.05 308.03 L574.09 307.35 L573.20 303.85 L572.03 300.93 L570.40 299.18 L569.21 296.05 L567.81 293.43 L565.74 292.74 L564.07 290.78 L562.12 289.66 L559.85 289.63 L557.58 289.62 L555.21 290.05 L552.78 290.81 L549.79 294.00 L547.07 296.36 L544.78 297.04 L542.37 298.42 L540.21 298.72 L538.31 297.72 L536.35 297.00 L534.54 295.34 L532.90 292.37 L531.03 290.69 L529.11 289.14 L527.23 287.02 L525.13 286.54 L523.10 285.28 L521.01 284.46 L518.76 285.35 L516.57 285.74 L514.27 287.85 L512.05 289.46 L509.78 292.87 L507.56 296.55 L505.49 298.04 L503.44 299.86 L501.43 301.12 L499.44 301.15 L497.45 301.45 L495.40 298.55 L493.32 296.51 L491.20 294.65 L489.03 292.52 L486.76 289.62 L484.64 289.50 L482.48 289.02 L480.26 287.96 L478.22 288.97 L476.16 289.64 L474.25 291.39 L472.33 292.94 L470.70 296.29 L469.22 300.16 L467.39 301.52 L465.81 304.16 L464.13 306.00 L462.12 306.02 L460.28 306.87 L458.04 305.83 L455.65 304.30 L453.19 302.60 L450.83 301.50 L448.25 299.71 L445.87 298.81 L443.80 299.14 L441.46 298.58 L439.57 299.57 L437.54 300.10 L436.04 302.27 L434.64 304.61 L433.67 308.12 L433.31 313.15 L432.00 315.35 L431.03 318.32 L429.81 320.55 L427.81 320.73 L425.60 320.45 L423.72 321.00 L421.05 319.76 L418.26 318.34 L415.69 317.53 L413.42 317.44 L410.74 316.55 L408.76 317.14 L406.43 317.08 L404.74 318.27 L402.70 318.82 L401.43 320.78 L400.69 323.63 L400.13 326.71 L400.68 331.59 L400.17 334.52 L399.75 337.53 L398.96 339.84 L397.56 341.17 L395.30 341.17 L393.03 341.21 L390.49 340.90 L387.16 339.52 L384.31 338.91 L381.72 338.74 L379.02 338.47 L377.37 339.63 L374.87 339.72 L373.45 341.19 L371.99 342.61 L370.99 344.58 L370.61 347.26 L370.79 350.53 L371.60 354.44 L373.09 358.99 L373.07 361.77 L373.05 364.50 L372.52 366.64 L371.43 368.16 L369.11 368.44 L365.95 367.93 L363.03 367.72 L359.93 367.42 L357.57 367.85 L354.53 367.72 L352.98 368.97 L350.48 369.40 L348.97 370.72 L347.43 372.03 L346.14 373.54 L346.60 376.47 L347.36 379.57 L348.29 382.75 L350.37 386.73 L350.83 389.41 L350.97 391.80 L350.26 393.56 L350.04 395.64 L348.68 396.92 L345.41 396.95 L342.66 397.38 L340.24 398.06 L336.98 398.26 L334.53 399.01 L333.12 400.43 L331.50 401.73 L330.95 403.66 L329.87 405.29 L328.72 406.88 L330.23 409.89 L330.25 412.07 L331.81 415.00 L334.61 418.48 L335.77 421.08 L337.18 423.75 L337.15 425.71 L335.28 426.84 L334.91 428.65 L332.72 429.68 L329.30 430.24 L327.56 431.53 L325.40 432.69 L322.99 433.78 L321.66 435.31 L319.87 436.69 L318.75 438.33 L317.88 440.06 L316.70 441.70 L317.67 444.01 L318.09 446.12 L320.57 448.80 L323.43 451.52 L325.07 453.85 L326.94 456.18 L327.60 458.18 L326.53 459.76 L325.95 461.45 L323.93 462.85 L321.25 464.14 L319.46 465.66 L317.13 467.11 L315.08 468.64 L314.60 470.47 L313.74 472.24 L313.15 474.06 L314.04 476.07 L312.84 477.82 L314.10 479.85 L316.81 482.00 L318.37 483.98 L321.95 486.09 L324.88 488.08 L327.32 489.98 L328.99 491.79 L329.26 493.52 L329.50 495.23 L326.45 496.88 L323.95 498.60 L322.43 500.36 L319.31 502.18 L316.83 504.04 L316.25 505.89 L315.38 507.77 L315.30 509.62 L316.21 511.42 L315.27 513.33 L316.64 515.08 L319.47 516.66 L321.44 518.28 L325.10 519.68 L327.54 521.15 L330.48 522.51 L332.04 524.02 L332.16 525.72 L333.23 527.26 L332.00 529.19 L330.30 531.24 L328.76 533.29 L326.62 535.51 L325.24 537.62 L324.39 539.65 L324.33 541.51 L323.34 543.61 L323.98 545.33 L324.99 546.94 L325.98 548.54 L328.03 549.83 L331.13 550.77 L336.06 551.08 L338.91 551.96 L341.85 552.77 L344.36 553.66 L344.59 555.33 L344.20 557.23 L344.61 558.85 L342.35 561.52 L340.65 564.02 L340.20 566.07 L338.47 568.68 L338.38 570.64 L338.96 572.31 L338.75 574.35 L339.72 575.85 L340.55 577.43 L341.86 578.75 L344.57 579.35 L347.67 579.70 L351.87 579.40 L355.08 579.55 L357.72 579.96 L360.05 580.51 L361.34 581.62 L361.11 583.64 L360.94 585.65 L360.30 587.98 L358.70 590.98 L357.81 593.57 L356.76 596.33 L357.39 597.99 L358.52 599.31 L357.94 601.86 L359.50 602.88 L361.47 603.58 L363.21 604.43 L365.27 605.00 L368.47 604.64 L372.56 603.49 L375.64 603.06 L377.87 603.30 L380.32 603.29 L381.81 604.08 L383.31 604.85 L383.91 606.44 L382.90 609.54 L382.77 611.87 L382.36 614.53 L381.96 617.25 L382.29 619.28 L383.22 620.74 L382.95 623.45 L384.12 624.70 L386.19 624.95 L388.28 625.15 L390.44 625.23 L393.46 624.26 L396.99 622.61 L400.44 620.93 L401.75 621.81 L403.53 622.07 L405.08 622.62 L406.93 622.74 L407.80 624.15 L407.31 627.45 L407.61 629.75 L408.04 631.93 L408.07 634.73 L408.13 637.58 L409.62 638.33 L410.25 640.41 L411.23 641.98 L412.92 642.42 L414.89 642.39 L417.23 641.67 L419.18 641.56 L422.81 638.41 L425.89 636.06 L427.79 635.78 L430.35 634.20 L431.91 634.47 L432.44 636.79 L434.09 636.87 L435.87 636.66 L437.02 637.77 L439.35 636.26 L441.22 635.70 L442.92 635.47 L444.55 635.37 L445.82 636.13 L447.03 637.07 L448.21 638.11 L449.83 637.97 L450.90 639.34 L452.38 639.60 L454.10 639.09 L455.38 639.88 L456.91 639.92 L458.70 639.04 L460.23 638.97 L461.65 639.24 L463.21 638.99 L464.42 640.07 L465.63 641.19 L467.31 640.40 L468.57 641.39 L469.94 641.91 L471.63 640.84 L473.04 641.12 L474.27 642.41 L475.66 642.83 L477.28 641.92 L478.60 642.80 L480.02 643.08 L481.64 641.79 L483.07 641.92 L484.48 642.12 L486.03 641.01 L487.52 640.26 L488.91 640.52 L490.38 639.74 L491.76 640.09 L493.13 640.70 L494.58 639.88 L495.98 639.67 L497.39 639.25 L498.78 639.39 L500.17 639.06 L501.57 639.83 L502.96 639.51 L504.34 639.01 L505.81 640.90 L507.19 640.12 L508.55 639.39 L510.03 640.54 L511.45 640.68 L512.64 638.12 L514.03 638.10 L515.38 637.69 L516.57 636.04 L517.97 636.17 L519.34 636.03 L520.61 635.22 L521.76 633.78 L523.08 633.49 L524.49 633.66 L525.67 632.60 L527.16 633.15 L528.58 633.26 L529.66 631.87 L531.40 633.35 L532.79 633.26 L533.90 632.09 L535.32 632.09 L536.95 632.89 L537.73 630.62 L539.01 630.12 L539.97 628.64 L540.94 627.28 L542.19 626.79 L543.16 625.50 L544.55 625.45 L545.96 625.42 L546.90 624.12 L547.96 623.19 L549.13 622.56 L550.33 622.00 L551.38 621.10 L552.93 621.38 L554.09 620.71 L554.96 619.45 L557.07 620.83 L558.09 619.87 L558.97 618.65 L560.44 618.62 L561.92 618.58 L562.12 616.11 L563.34 615.60 L564.30 614.62 L564.76 612.79 L565.94 612.23 L567.04 611.52 L567.88 610.40 L568.26 608.57 L569.34 607.88 L570.63 607.51 L571.22 606.09 L572.73 606.03 L574.13 605.79 L574.35 603.87 L576.61 604.80 L577.81 604.23 L578.25 602.66 L579.30 601.92 L581.32 602.38 L580.98 599.89 L581.93 599.02 L582.16 597.30 L582.59 595.84 L583.36 594.81 L583.81 593.42 L584.92 592.77 L586.05 592.14 L586.55 590.83 L586.90 589.40 L587.86 588.59 L588.69 587.66 L589.55 586.76 L589.59 585.08 L591.32 585.00 L592.27 584.18 L591.50 581.81 L592.53 581.08 L593.44 580.24 L593.47 578.66 L594.26 577.73 L595.37 577.06 L595.25 575.39 L595.92 574.38 L596.19 573.06 L596.62 571.87 L597.04 570.68 L598.19 570.03 L598.31 568.64 L598.90 567.60 L600.37 567.14 L600.27 565.63 L600.71 564.49 L602.01 563.89 L602.23 562.61 L601.07 560.52 L601.54 559.43 L601.89 558.28 L601.17 556.53 L601.77 555.54 L602.47 554.60 L602.23 553.16 L602.13 551.82 L602.18 550.57 L602.66 549.54 L602.52 548.21 L603.39 547.36 L603.59 546.20 L603.42 544.90 L604.39 544.08 L604.48 542.89 L604.35 541.62 L604.93 540.64 L605.29 539.58 L604.26 538.01 L604.33 536.85 L604.33 535.68 L603.43 534.22 L603.78 533.19 L603.81 532.06 L603.60 530.87 L603.73 529.78 L603.90 528.71 L603.49 527.48 L603.55 526.39 L603.33 525.24 L603.11 524.09 L603.01 522.99 L603.08 521.92 L602.76 520.78 L602.78 519.72 L602.82 518.66 L602.33 517.52 L602.17 516.44 L602.10 515.39 L601.73 514.29 L601.25 513.19 L600.78 512.11 L600.36 511.04 L600.02 509.99 L599.69 508.95 L599.46 507.93 L599.34 506.92 L599.30 505.92 L599.22 504.92 L599.08 503.92 L598.93 502.92 L598.79 501.93 L598.61 500.94 Z"/>
  <svg class="pausebutton" id="pausebutton">
    <circle cx="500" cy="500" id="pausestart" class="pausestart" r="52.65"/>
    <rect height="50.02" width="10.00" y="473.68" rx="2.00" ry="2.00" x="479.99" class="pausesymbol"/>
    <rect height="50.02" width="10.00" y="473.68" rx="2.00" ry="2.00" x="510.00" class="pausesymbol"/>
    <polygon points="530.01,500 479.99,530.01 479.99,469.99" class="playsymbol"/>
  </svg>
  <polygon id="playback-head" class="playback-head" points="941.65,500 921.65,540 961.65,540"/>
</svg>