<?xml-stylesheet href="../../style/waveformjs.css" type="text/css"?>
<svg xmlns="http://www.w3.org/2000/svg" xmlns:xlink="http://www.w3.org/1999/xlink" width="100%" height="100%" viewBox="0 0 1000 1000">
  <path class="svg-wave" id="sp" d="M597.62 500.00 L597.79 500.98 L597.96 501.96 L598.11 502.94 L598.26 503.93 L598.40 504.92 L598.52 505.92 L598.63 506.92 L598.70 507.91 L598.76 508.91 L598.79 509.91 L598.82 510.91 L598.80 511.91 L598.71 512.91 L598.54 513.89 L598.18 514.84 L597.65 515.76 L597.00 516.65 L596.25 517.51 L595.51 518.37 L595.08 519.27 L594.55 520.15 L594.16 521.06 L594.14 522.04 L593.91 522.98 L593.88 523.97 L593.88 524.97 L593.32 525.83 L593.44 526.87 L593.10 527.78 L592.65 528.66 L592.64 529.68 L592.01 530.49 L591.87 531.47 L591.64 532.42 L591.27 533.32 L591.42 534.41 L591.16 535.36 L590.90 536.31 L590.36 537.14 L590.06 538.08 L589.70 538.99 L588.87 539.69 L588.46 540.57 L588.21 541.53 L587.18 542.11 L586.02 542.62 L585.56 543.46 L584.66 544.07 L583.67 544.63 L583.08 545.38 L582.87 546.36 L582.01 546.95 L581.25 547.61 L580.94 548.52 L580.41 549.30 L580.12 550.23 L580.15 551.37 L580.18 552.53 L580.24 553.72 L580.45 555.04 L580.43 556.21 L580.27 557.30 L580.20 558.48 L580.25 559.75 L579.94 560.77 L579.74 561.88 L579.69 563.14 L579.41 564.22 L579.55 565.66 L579.13 566.65 L578.93 567.84 L578.96 569.26 L578.19 569.97 L577.73 570.97 L577.06 571.79 L576.14 572.37 L575.54 573.25 L574.50 573.70 L574.30 574.99 L573.48 575.66 L572.85 576.52 L572.07 577.24 L570.66 577.26 L568.56 576.49 L565.86 574.97 L562.90 573.06 L560.02 571.15 L557.13 569.10 L554.72 567.56 L553.00 566.78 L551.28 565.97 L549.99 565.64 L548.88 565.54 L547.39 564.89 L546.29 564.72 L545.48 564.96 L544.22 564.53 L543.95 565.52 L544.31 567.52 L544.14 568.74 L543.00 568.47 L542.64 569.42 L541.87 569.72 L540.07 568.26 L538.11 566.44 L537.91 567.65 L537.68 568.84 L536.46 568.22 L536.14 569.29 L535.95 570.63 L535.35 571.20 L534.50 571.27 L534.01 572.10 L533.91 573.78 L533.63 575.14 L532.88 575.49 L532.29 576.19 L531.59 576.67 L530.52 576.25 L529.44 575.71 L528.67 575.98 L528.27 577.25 L527.80 578.38 L527.28 579.45 L526.97 581.18 L526.52 582.56 L525.61 582.54 L525.28 584.46 L523.96 583.08 L523.19 583.52 L521.92 582.14 L520.99 581.91 L520.14 582.01 L519.01 580.90 L518.37 581.82 L517.61 582.29 L516.90 583.03 L516.09 583.33 L515.28 583.60 L514.72 585.34 L514.27 588.01 L513.29 587.49 L512.41 587.56 L511.73 589.18 L510.74 588.46 L509.73 587.44 L508.85 587.47 L508.05 588.47 L507.28 589.96 L506.34 589.42 L505.39 588.58 L504.56 589.60 L503.66 589.77 L502.76 589.43 L501.88 590.30 L500.98 590.64 L500.07 591.19 L499.16 591.32 L498.28 589.52 L497.39 589.47 L496.49 589.49 L495.59 589.47 L494.71 589.16 L493.83 589.02 L492.91 589.35 L491.94 590.12 L490.92 591.21 L489.73 593.64 L488.79 593.59 L487.92 592.97 L486.89 593.60 L486.11 592.40 L485.34 591.33 L484.41 591.24 L483.18 592.85 L482.24 592.77 L481.14 593.41 L480.13 593.58 L479.33 592.77 L478.50 592.14 L477.90 590.64 L476.85 590.97 L476.39 589.06 L475.35 589.36 L474.24 589.86 L473.36 589.54 L472.19 590.14 L471.33 589.75 L470.28 589.92 L468.66 591.72 L467.45 592.25 L466.34 592.45 L465.24 592.58 L464.50 591.75 L463.93 590.51 L463.43 589.16 L462.55 588.78 L461.18 589.52 L459.84 590.12 L459.38 588.76 L458.36 588.63 L457.25 588.69 L456.54 587.89 L455.69 587.41 L454.22 588.11 L453.52 587.31 L451.99 588.05 L451.16 587.48 L451.06 585.63 L450.12 585.28 L449.29 584.76 L448.51 584.13 L447.85 583.32 L446.94 582.93 L445.76 582.93 L444.47 583.08 L442.19 584.64 L440.46 585.34 L440.54 583.43 L439.39 583.26 L438.34 582.96 L438.50 581.03 L437.76 580.32 L436.15 580.73 L434.46 581.18 L433.81 580.32 L432.12 580.72 L431.76 579.52 L430.67 579.18 L431.04 577.18 L429.74 577.07 L429.41 575.89 L428.86 574.97 L427.72 574.66 L426.82 574.09 L425.74 573.70 L425.18 572.78 L423.73 572.72 L422.04 572.86 L420.46 572.86 L420.00 571.82 L419.10 571.18 L418.37 570.39 L418.41 568.94 L418.62 567.38 L418.09 566.45 L416.73 566.19 L414.80 566.34 L414.67 565.09 L414.50 563.87 L413.33 563.40 L412.93 562.37 L412.84 561.13 L410.69 561.31 L409.52 560.79 L409.30 559.63 L407.98 559.19 L407.97 557.91 L407.97 556.63 L407.52 555.63 L407.08 554.64 L406.66 553.64 L406.15 552.69 L405.87 551.62 L405.03 550.85 L403.08 550.66 L401.01 550.48 L401.11 549.19 L401.03 548.00 L399.84 547.35 L400.38 545.88 L400.81 544.48 L400.35 543.50 L397.96 543.33 L397.67 542.25 L396.06 541.71 L395.14 540.86 L394.99 539.72 L394.92 538.55 L395.14 537.28 L393.93 536.52 L395.30 534.88 L394.27 534.05 L393.11 533.25 L392.54 532.25 L391.67 531.34 L391.59 530.19 L390.20 529.40 L387.24 528.98 L386.00 528.09 L385.64 526.97 L382.58 526.45 L383.49 525.03 L385.46 523.41 L385.91 522.13 L386.60 520.82 L385.37 519.86 L383.42 519.00 L382.77 517.91 L382.83 516.70 L381.75 515.65 L380.95 514.55 L381.16 513.32 L380.77 512.15 L381.51 510.88 L379.67 509.84 L380.24 508.59 L382.13 507.27 L382.47 506.07 L382.25 504.90 L382.05 503.73 L382.42 502.54 L382.38 501.36 L381.82 500.19 L381.85 499.01 L379.94 497.79 L377.39 496.52 L378.22 495.32 L377.99 494.09 L377.01 492.81 L378.31 491.66 L379.26 490.51 L377.99 489.19 L377.47 487.90 L376.96 486.61 L377.66 485.45 L378.70 484.34 L377.72 482.97 L380.08 482.07 L380.08 480.84 L379.08 479.44 L380.32 478.42 L379.79 477.08 L379.15 475.70 L378.54 474.31 L378.18 472.96 L378.11 471.67 L377.42 470.21 L377.21 468.86 L378.22 467.81 L379.02 466.72 L379.37 465.52 L380.51 464.55 L381.55 463.56 L382.26 462.49 L381.83 461.05 L380.70 459.35 L381.41 458.26 L382.44 457.30 L382.00 455.80 L383.21 454.91 L384.49 454.08 L383.58 452.36 L383.51 450.97 L384.12 449.85 L383.49 448.19 L385.29 447.61 L385.88 446.50 L386.53 445.41 L387.15 444.31 L387.88 443.27 L388.58 442.22 L389.26 441.16 L389.70 439.97 L388.59 437.91 L387.29 435.70 L388.91 435.15 L389.84 434.20 L389.91 432.75 L391.59 432.28 L393.26 431.82 L393.72 430.61 L392.54 428.29 L393.11 427.13 L392.96 425.44 L393.53 424.25 L393.88 422.88 L395.06 422.12 L396.01 421.21 L395.89 419.47 L398.20 419.61 L398.09 417.86 L398.86 416.79 L399.58 415.69 L399.94 414.27 L400.62 413.12 L400.94 411.63 L401.18 410.06 L401.49 408.52 L402.25 407.39 L403.08 406.32 L404.63 405.96 L406.52 405.95 L407.74 405.31 L408.36 404.04 L408.24 401.97 L408.97 400.78 L410.79 400.79 L411.37 399.44 L412.48 398.66 L414.09 398.49 L414.69 397.13 L414.70 395.04 L416.23 394.78 L416.42 392.83 L417.57 392.10 L419.38 392.25 L420.73 391.83 L421.91 391.16 L423.04 390.44 L424.32 389.95 L425.40 389.16 L426.11 387.80 L426.68 386.21 L426.73 383.76 L427.43 382.27 L429.35 382.77 L429.93 381.07 L431.35 380.77 L433.45 381.69 L434.61 380.97 L435.18 379.17 L435.81 377.43 L437.06 376.83 L437.54 374.68 L438.95 374.37 L439.83 372.98 L441.59 373.44 L442.38 371.80 L443.92 371.81 L445.34 371.58 L446.38 370.44 L447.54 369.55 L448.80 368.92 L450.04 368.23 L451.24 367.41 L451.99 365.30 L453.21 364.46 L454.71 364.41 L455.87 363.36 L457.24 362.95 L458.88 363.40 L460.51 363.88 L461.91 363.63 L463.01 362.26 L464.08 360.70 L465.68 361.19 L467.17 361.29 L468.36 360.06 L469.93 360.55 L471.44 360.82 L472.49 358.80 L473.87 358.32 L475.27 357.98 L476.50 356.55 L478.16 357.81 L479.67 358.19 L481.05 357.70 L482.49 357.65 L483.96 357.86 L485.36 357.54 L486.76 357.07 L488.13 356.27 L489.46 354.69 L490.78 352.48 L492.30 353.10 L493.76 352.82 L495.22 352.51 L496.72 353.69 L498.19 354.22 L499.65 353.94 L501.13 351.98 L502.60 352.14 L504.12 351.00 L505.60 351.16 L507.08 351.47 L508.52 352.32 L509.94 353.16 L511.44 352.90 L512.76 354.78 L514.28 354.16 L515.79 353.87 L517.33 353.35 L518.76 353.82 L520.32 353.28 L521.99 352.13 L523.92 349.47 L525.72 347.96 L527.50 346.80 L529.64 343.86 L531.19 344.22 L532.52 345.62 L533.81 347.10 L535.38 347.23 L536.66 348.65 L537.98 349.75 L539.54 349.93 L540.95 350.63 L542.63 350.42 L544.05 351.07 L544.85 353.77 L546.20 354.58 L547.26 356.25 L548.50 357.29 L550.00 357.56 L551.37 358.21 L553.27 357.44 L555.31 356.38 L556.54 357.45 L558.03 357.86 L560.26 356.51 L563.23 353.58 L564.83 353.89 L566.85 353.31 L569.32 351.85 L570.02 354.16 L570.63 356.58 L571.33 358.74 L572.10 360.70 L573.80 360.85 L575.71 360.62 L576.68 362.15 L577.63 363.66 L579.26 363.99 L579.72 366.28 L580.24 368.42 L582.38 367.90 L585.12 366.50 L587.05 366.44 L588.64 366.93 L590.86 366.51 L591.40 368.55 L591.62 371.01 L592.82 372.06 L594.92 371.88 L599.25 368.79 L605.37 363.57 L608.62 362.23 L614.39 357.85 L620.66 353.09 L619.86 357.00 L618.87 361.03 L622.07 360.15 L623.95 360.83 L622.38 365.33 L625.81 364.31 L624.71 368.16 L622.89 372.66 L620.32 377.79 L616.39 384.12 L615.56 387.23 L614.89 390.11 L616.86 390.43 L619.18 390.48 L619.93 391.98 L622.34 392.01 L624.60 392.21 L623.82 395.04 L625.28 395.93 L627.22 396.45 L630.75 395.73 L633.93 395.37 L635.66 396.19 L638.66 396.07 L639.77 397.41 L638.98 400.11 L638.56 402.50 L637.78 405.09 L637.05 407.60 L637.08 409.56 L637.40 411.31 L638.18 412.75 L639.86 413.63 L642.21 414.14 L642.60 415.84 L643.08 417.47 L643.74 419.00 L643.98 420.75 L644.97 422.08 L645.80 423.50 L647.20 424.64 L649.51 425.33 L650.18 426.87 L650.70 428.47 L654.67 428.47 L662.24 426.93 L667.29 426.65 L672.77 426.31 L683.47 423.90 L684.74 425.53 L681.40 428.98 L674.91 433.53 L673.18 436.16 L669.20 439.54 L663.12 443.55 L663.83 445.13 L663.92 446.91 L665.44 448.25 L665.81 449.95 L663.97 452.28 L664.12 454.01 L663.45 455.96 L663.55 457.68 L664.10 459.29 L664.55 460.92 L666.19 462.28 L668.22 463.58 L667.74 465.44 L668.13 467.11 L670.31 468.45 L674.34 469.50 L674.58 471.26 L676.20 472.80 L678.26 474.30 L676.62 476.34 L675.43 478.28 L673.93 480.23 L673.46 482.04 L675.20 483.63 L676.56 485.28 L675.28 487.15 L674.72 488.95 L675.39 490.66 L673.65 492.50 L672.04 494.29 L673.73 495.97 L676.50 497.67 L677.36 499.44 L677.59 501.21 L679.61 503.02 L678.40 504.78 L676.37 506.50 L676.85 508.29 L677.14 510.08 L679.05 511.98 L680.95 513.93 L681.27 515.78 L681.96 517.67 L681.74 519.49 L680.17 521.14 L678.54 522.76 L676.94 524.36 L676.39 526.08 L676.37 527.89 L674.93 529.45 L675.74 531.40 L679.00 533.83 L684.39 536.77 L681.43 538.07 L678.28 539.27 L681.96 541.99 L676.37 542.57 L672.27 543.40 L671.93 545.15 L672.15 547.05 L673.33 549.24 L673.20 551.08 L671.90 552.58 L673.16 554.86 L675.89 557.67 L677.43 560.14 L676.91 561.95 L678.65 564.57 L677.53 566.18 L674.26 566.95 L672.10 568.10 L669.12 568.89 L666.71 569.86 L665.22 571.19 L664.74 572.94 L665.72 575.36 L666.19 577.59 L665.96 579.52 L666.70 581.93 L664.42 582.86 L661.53 583.44 L660.68 585.05 L660.30 586.91 L659.45 588.53 L659.12 590.44 L660.16 593.15 L658.83 594.52 L657.97 596.16 L660.11 599.67 L665.82 605.54 L668.20 609.44 L671.43 613.99 L676.46 619.90 L669.67 617.78 L665.49 617.35 L660.58 616.30 L654.82 614.51 L652.63 615.27 L650.68 616.17 L649.73 617.85 L648.19 619.06 L647.81 621.20 L646.29 622.42 L643.13 622.24 L641.67 623.45 L639.60 624.13 L638.00 625.21 L636.73 626.57 L635.48 627.95 L635.46 630.52 L635.06 632.76 L633.40 633.77 L632.45 635.51 L634.08 639.95 L638.14 647.10 L637.70 649.61 L640.48 655.72 L644.27 663.18 L642.00 663.88 L638.27 662.85 L633.25 660.14 L630.11 659.60 L625.30 656.87 L622.97 657.14 L618.29 654.33 L615.88 654.35 L614.34 655.52 L612.05 655.63 L610.74 657.11 L610.16 659.66 L608.52 660.70 L607.01 661.92 L605.87 663.73 L603.57 663.74 L600.97 663.23 L599.57 664.61 L598.47 666.54 L597.54 668.79 L597.01 671.82 L596.25 674.53 L594.85 676.13 L593.96 678.74 L592.13 679.60 L589.83 679.52 L587.61 679.53 L585.04 678.79 L582.39 677.78 L580.16 677.60 L578.36 678.33 L577.39 681.03 L576.19 683.27 L574.42 684.20 L573.11 686.28 L570.91 686.14 L568.23 684.63 L566.10 684.52 L564.31 685.33 L562.57 686.32 L561.00 687.86 L559.54 689.79 L557.62 690.31 L555.64 690.63 L554.58 694.20 L554.40 701.28 L553.76 707.12 L552.78 712.02 L552.98 722.29 L551.33 725.34 L548.43 722.84 L545.46 719.78 L543.85 723.23 L541.03 720.49 L537.06 710.85 L534.74 709.96 L532.40 708.73 L529.44 703.06 L526.93 699.81 L524.94 700.16 L522.88 699.89 L520.83 699.56 L518.83 699.82 L516.86 700.32 L514.88 700.72 L512.93 701.87 L511.01 703.84 L508.96 703.51 L506.93 703.92 L504.93 705.36 L502.92 708.51 L500.83 709.63 L498.73 710.94 L496.58 713.46 L494.47 712.50 L492.38 711.46 L490.34 709.86 L488.23 709.92 L486.18 709.00 L484.18 707.74 L482.10 707.61 L480.09 706.72 L477.90 707.68 L475.88 706.93 L474.15 704.02 L472.14 703.53 L470.25 702.29 L468.32 701.40 L466.27 701.33 L464.22 701.16 L461.87 702.60 L459.60 703.44 L457.68 702.49 L455.56 702.49 L453.00 704.38 L450.15 707.26 L448.11 706.64 L445.58 707.91 L443.18 708.52 L441.59 706.23 L439.92 704.30 L438.42 701.93 L436.48 701.03 L433.97 701.94 L431.80 701.74 L430.22 699.79 L428.34 698.78 L426.46 697.75 L425.00 695.69 L422.80 695.54 L420.13 696.52 L418.26 695.50 L416.14 695.07 L413.71 695.31 L412.42 693.00 L411.17 690.66 L409.03 690.26 L406.65 690.32 L404.18 690.50 L401.12 691.79 L398.36 692.39 L396.12 691.96 L393.53 692.14 L391.83 690.68 L390.38 688.81 L388.91 687.00 L387.56 685.04 L386.59 682.50 L385.75 679.81 L384.35 678.07 L382.44 677.10 L380.28 676.49 L377.87 676.24 L376.20 674.87 L374.05 674.19 L372.71 672.40 L371.44 670.52 L369.69 669.29 L367.74 668.31 L365.53 667.64 L362.97 667.38 L361.22 666.10 L359.41 664.89 L356.68 664.73 L352.70 665.93 L349.90 665.70 L347.86 664.62 L344.49 664.92 L344.04 662.12 L344.27 658.68 L343.94 655.87 L344.13 652.60 L344.07 649.63 L342.74 647.91 L341.05 646.54 L338.05 646.33 L335.73 645.47 L333.67 644.35 L331.23 643.54 L331.48 640.44 L331.50 637.59 L330.25 635.81 L328.57 634.36 L327.16 632.70 L324.86 631.71 L322.04 631.06 L321.21 628.93 L319.62 627.36 L315.45 627.56 L307.86 629.98 L304.41 629.48 L299.65 629.77 L292.99 631.17 L292.82 628.39 L292.73 625.60 L295.27 621.27 L296.64 617.73 L296.24 615.26 L297.64 611.81 L299.70 608.07 L298.28 606.25 L294.79 605.48 L295.21 602.68 L294.54 600.46 L288.31 600.90 L286.00 599.39 L284.72 597.37 L281.92 596.03 L281.14 593.77 L281.09 591.21 L279.82 589.17 L277.51 587.52 L276.00 585.54 L272.97 584.10 L273.52 581.33 L269.42 580.21 L264.79 579.20 L266.51 576.03 L262.69 574.65 L254.75 574.46 L254.12 571.98 L253.47 569.50 L253.16 566.93 L253.28 564.26 L255.57 561.06 L259.66 557.49 L257.77 555.38 L261.07 552.12 L264.10 548.99 L258.50 547.64 L257.56 545.31 L256.07 543.07 L256.00 540.57 L256.03 538.07 L254.53 535.79 L254.60 533.28 L253.24 530.95 L251.22 528.68 L251.74 526.11 L253.67 523.42 L251.40 521.13 L249.94 518.73 L252.55 516.05 L248.62 513.78 L243.87 511.48 L244.25 508.90 L243.01 506.37 L243.45 503.79 L244.55 501.22 L246.96 498.68 L251.99 496.22 L250.92 493.72 L254.19 491.34 L254.64 488.90 L251.47 486.26 L249.86 483.66 L250.02 481.16 L250.88 478.72 L250.88 476.21 L252.68 473.88 L252.93 471.41 L250.91 468.64 L247.93 465.71 L244.68 462.66 L242.83 459.76 L242.13 457.00 L241.36 454.21 L245.62 452.34 L250.32 450.63 L248.05 447.56 L248.81 445.09 L253.46 443.52 L249.42 439.95 L249.75 437.37 L253.37 435.65 L255.77 433.66 L258.30 431.75 L261.60 430.10 L259.64 426.90 L260.33 424.49 L259.28 421.50 L260.81 419.35 L264.38 417.92 L264.45 415.29 L266.53 413.39 L267.35 411.04 L267.08 408.26 L268.35 406.07 L269.83 403.98 L264.39 398.93 L267.33 397.42 L269.35 395.55 L264.90 390.69 L266.25 388.46 L267.72 386.30 L268.44 383.77 L271.76 382.56 L273.20 380.42 L275.05 378.50 L278.93 377.72 L281.54 376.30 L284.08 374.87 L288.66 374.68 L287.04 370.83 L288.36 368.72 L290.13 366.89 L289.28 363.38 L290.70 361.31 L293.35 360.07 L292.81 356.66 L292.30 353.22 L292.74 350.39 L290.18 345.33 L291.97 343.42 L292.13 340.26 L290.05 335.30 L293.84 334.91 L293.60 331.30 L289.70 324.58 L291.32 322.36 L293.25 320.41 L295.24 318.51 L297.83 317.17 L302.03 317.33 L307.66 318.94 L308.14 315.73 L312.67 316.45 L316.90 316.97 L315.31 311.65 L316.42 308.99 L317.52 306.30 L320.11 305.18 L322.04 303.36 L322.97 300.41 L325.95 299.78 L326.61 296.46 L326.97 292.71 L329.61 291.68 L333.67 292.44 L333.89 288.41 L335.15 285.64 L339.57 287.01 L339.24 282.08 L339.03 277.17 L341.46 275.83 L343.18 273.49 L345.52 272.04 L348.67 271.81 L352.81 273.16 L357.37 275.30 L359.60 273.83 L363.31 274.82 L365.64 273.59 L366.54 269.88 L367.82 266.76 L370.11 265.35 L372.91 264.90 L374.88 262.90 L377.97 263.05 L380.00 261.15 L381.19 257.51 L382.35 253.66 L383.15 248.92 L384.48 245.14 L386.63 243.08 L388.91 241.27 L391.41 239.95 L394.01 238.87 L396.79 238.23 L399.42 237.23 L402.38 237.14 L404.90 235.84 L408.41 237.39 L412.38 240.46 L415.74 241.91 L418.66 242.15 L422.13 244.27 L424.05 241.32 L426.06 238.50 L428.28 236.32 L431.08 236.25 L433.89 236.21 L436.39 235.00 L439.16 234.87 L441.58 233.19 L444.19 232.35 L447.22 233.60 L449.96 233.46 L451.53 226.79 L454.90 230.12 L457.69 230.27 L459.19 221.67 L462.07 221.91 L465.03 223.01 L467.88 223.33 L470.90 225.39 L473.88 227.56 L476.76 229.11 L479.62 230.83 L482.33 230.91 L485.00 230.40 L487.65 229.31 L490.22 225.28 L492.93 223.51 L495.65 221.02 L498.45 221.95 L501.23 222.63 L504.01 221.92 L506.79 222.20 L509.59 221.52 L512.46 219.70 L515.29 219.33 L517.93 222.08 L520.90 219.73 L523.97 216.74 L526.59 219.25 L529.81 215.57 L533.48 208.73 L536.34 209.48 L539.17 210.34 L542.04 210.94 L544.73 212.63 L547.05 216.41 L549.02 221.82 L552.08 220.82 L554.23 224.62 L556.51 227.42 L560.07 224.16 L563.18 223.22 L566.27 222.50 L568.77 224.27 L571.53 224.95 L574.52 224.78 L577.01 226.44 L580.44 224.86 L583.70 224.00 L585.94 226.47 L587.97 229.50 L591.36 228.35 L594.09 229.21 L596.09 232.13 L600.36 228.79 L604.44 226.21 L607.25 227.08 L610.43 227.04 L613.13 228.21 L615.22 230.80 L616.77 234.54 L617.71 239.51 L620.35 240.61 L621.97 243.87 L624.61 244.92 L628.31 243.89 L631.90 243.16 L635.09 243.30 L636.76 246.31 L639.67 247.01 L642.25 248.32 L644.04 250.99 L647.88 250.15 L651.70 249.45 L655.81 248.38 L659.43 248.18 L662.58 248.80 L665.38 250.00 L666.01 254.41 L666.53 258.87 L671.44 257.00 L673.17 259.69 L673.06 264.84 L679.76 260.78 L681.31 263.68 L680.87 269.06 L681.80 272.60 L683.14 275.57 L683.60 279.54 L687.33 279.58 L690.84 279.95 L694.43 280.29 L696.93 281.90 L697.90 285.19 L701.14 286.00 L703.04 288.26 L704.75 290.70 L707.02 292.58 L706.97 296.73 L709.13 298.68 L716.10 296.10 L714.82 301.32 L717.52 302.83 L727.04 298.29 L728.33 301.20 L729.06 304.56 L732.52 305.59 L734.05 308.26 L735.15 311.25 L735.37 314.92 L734.73 319.18 L736.98 321.20 L735.23 326.19 L735.63 329.50 L741.72 328.75 L742.62 331.73 L746.07 332.96 L746.93 335.96 L747.85 338.90 L749.40 341.42 L749.41 344.89 L749.15 348.49 L751.03 350.76 L753.88 352.48 L753.81 355.90 L756.86 357.54 L763.42 357.33 L765.11 359.83 L769.51 360.93 L775.68 361.22 L777.28 363.87 L778.59 366.67 L779.18 369.80 L778.88 373.32 L777.75 377.17 L776.97 380.81 L776.71 384.19 L776.30 387.60 L778.24 390.04 L780.71 392.29 L783.37 394.51 L785.22 397.06 L784.90 400.38 L785.16 403.48 L785.76 406.45 L784.35 410.05 L784.45 413.14 L786.06 415.77 L786.44 418.76 L786.11 421.93 L789.65 424.07 L793.76 426.12 L794.81 428.99 L800.30 430.84 L804.57 433.05 L805.80 435.98 L807.82 438.76 L808.62 441.81 L807.53 445.19 L805.69 448.67 L805.14 451.89 L808.69 454.49 L806.02 458.01 L808.46 460.81 L812.06 463.52 L812.10 466.68 L810.14 470.02 L806.66 473.45 L806.92 476.51 L806.49 479.63 L805.96 482.73 L808.31 485.69 L811.35 488.67 L814.49 491.70 L816.34 494.82 L817.24 497.98 L818.52 501.16 L818.71 504.34 L819.28 507.55 L819.25 510.74 L818.45 513.90 L817.82 517.06 L817.73 520.24 L814.84 523.22 L809.78 525.97 L809.10 529.03 L807.58 531.99 L803.95 534.69 L806.04 538.03 L807.38 541.32 L808.65 544.64 L808.27 547.73 L806.21 550.56 L806.80 553.81 L805.95 556.82 L805.37 559.88 L806.08 563.20 L806.18 566.42 L805.54 569.49 L805.67 572.74 L804.37 575.66 L803.27 578.61 L803.72 581.98 L801.78 584.70 L799.36 587.26 L796.09 589.53 L793.15 591.85 L793.58 595.22 L791.23 597.68 L791.65 601.08 L792.33 604.60 L790.53 607.25 L787.77 609.51 L788.20 612.99 L786.75 615.74 L786.67 619.06 L786.71 622.45 L785.06 625.13 L782.35 627.32 L782.43 630.77 L782.27 634.14 L781.62 637.30 L781.84 640.91 L779.42 643.21 L781.64 647.93 L783.19 652.37 L779.62 654.08 L782.21 659.21 L786.37 665.35 L784.56 668.12 L782.97 671.02 L781.37 673.92 L777.91 675.65 L773.33 676.60 L768.86 677.55 L771.80 683.42 L766.37 683.66 L763.19 685.38 L764.58 690.34 L762.86 693.12 L759.10 694.37 L754.48 694.92 L752.88 697.73 L751.40 700.66 L748.63 702.56 L748.50 706.61 L747.15 709.71 L743.15 710.53 L740.52 712.50 L739.98 716.34 L736.61 717.63 L734.53 720.08 L736.06 726.00 L735.87 730.38 L733.93 733.10 L732.26 736.11 L730.28 738.83 L726.28 739.43 L721.12 738.71 L716.95 738.96 L713.46 739.89 L709.02 739.69 L707.99 743.38 L706.92 747.08 L705.59 750.54 L702.79 752.23 L699.57 753.37 L697.39 755.82 L694.49 757.34 L692.51 760.09 L691.44 764.13 L690.77 768.82 L690.26 773.87 L688.30 776.91 L686.00 779.50 L683.45 781.74 L678.35 780.00 L673.37 778.28 L673.85 785.37 L669.59 784.74 L665.47 784.25 L666.88 793.39 L662.40 792.28 L657.76 790.73 L655.04 792.66 L649.98 790.09 L645.69 788.83 L645.06 794.87 L641.65 795.36 L639.14 797.75 L635.96 798.68 L632.79 799.63 L629.56 800.41 L626.67 801.99 L624.16 804.49 L620.82 805.00 L616.91 803.97 L614.73 807.43 L613.22 812.91 L608.32 809.00 L606.34 813.35 L605.76 822.21 L601.73 820.72 L597.62 818.76 L594.55 820.14 L590.61 818.49 L586.88 817.40 L582.58 814.02 L579.40 814.69 L576.46 816.32 L572.57 813.96 L569.43 814.67 L567.44 820.87 L564.14 821.10 L561.18 823.06 L558.17 824.90 L554.86 825.09 L551.32 823.83 L548.30 825.81 L545.21 827.56 L542.11 829.36 L539.09 832.12 L535.60 830.94 L532.68 835.30 L529.62 838.93 L525.99 836.19 L522.95 841.20 L519.85 846.83 L516.39 847.32 L512.93 847.64 L509.46 847.99 L505.94 846.04 L502.45 842.52 L499.04 839.94 L495.59 843.44 L492.28 838.25 L488.92 837.28 L485.37 841.35 L481.98 840.72 L478.63 839.62 L475.35 837.83 L471.91 838.34 L468.50 838.38 L465.23 836.97 L461.54 839.45 L457.99 840.25 L454.92 837.35 L451.62 836.41 L447.89 838.27 L444.82 835.85 L441.45 835.39 L437.20 839.66 L433.34 841.41 L429.81 841.30 L426.20 841.52 L422.78 840.78 L419.89 837.83 L417.40 833.44 L414.44 831.18 L411.93 827.34 L409.36 823.92 L405.17 826.30 L401.62 826.29 L397.89 826.81 L394.86 825.06 L391.86 823.24 L388.53 822.44 L385.50 820.79 L381.83 820.91 L377.70 822.15 L373.27 824.01 L368.76 825.89 L365.09 825.57 L361.71 824.51 L358.35 823.40 L355.24 821.71 L352.31 819.64 L349.76 816.79 L347.44 813.56 L345.84 808.96 L343.53 805.89 L341.18 802.97 L339.93 798.07 L336.43 797.41 L333.09 796.43 L330.45 794.19 L325.28 796.27 L321.29 796.23 L317.76 795.36 L315.15 793.00 L312.26 791.07 L309.86 788.42 L306.82 786.75 L303.12 786.04 L300.87 783.19 L299.44 779.25 L294.65 779.98 L289.32 781.30 L289.94 774.70 L284.09 776.57 L276.35 780.65 L274.29 777.50 L272.74 773.78 L269.24 772.39 L267.12 769.40 L265.70 765.62 L265.27 760.81 L264.95 755.97 L261.78 754.26 L261.07 749.96 L258.63 747.51 L253.47 747.80 L250.03 746.28 L246.34 744.97 L244.69 741.67 L242.47 738.94 L240.10 736.34 L237.90 733.60 L234.42 731.98 L230.69 730.52 L229.19 727.16 L227.74 723.78 L223.24 722.87 L219.96 720.94 L218.15 717.83 L211.82 718.15 L205.57 718.28 L203.55 715.22 L201.29 712.33 L199.42 709.17 L199.41 704.75 L200.77 699.47 L202.10 694.31 L200.01 691.42 L200.65 686.83 L198.17 684.21 L193.90 682.64 L190.36 680.58 L188.29 677.63 L187.74 673.83 L184.81 671.36 L182.76 668.39 L181.66 664.91 L177.60 662.94 L175.04 660.18 L176.46 655.48 L175.29 652.06 L172.06 649.59 L173.14 645.17 L170.33 642.49 L164.19 641.17 L160.87 638.59 L158.62 635.55 L156.21 632.54 L155.31 628.94 L155.87 624.82 L158.29 620.09 L158.44 616.21 L159.40 612.10 L160.92 607.85 L156.86 605.38 L154.05 602.47 L151.25 599.52 L149.68 596.19 L150.60 592.19 L148.20 589.07 L147.42 585.52 L147.31 581.82 L143.94 578.86 L140.34 575.89 L136.67 572.88 L135.03 569.42 L133.65 565.89 L133.17 562.20 L136.53 557.90 L139.56 553.72 L132.27 551.06 L135.22 546.93 L135.22 543.23 L127.89 540.33 L130.73 536.29 L135.47 532.15 L135.06 528.51 L137.48 524.68 L141.18 520.82 L136.62 517.44 L134.04 513.90 L132.78 510.27 L133.15 506.59 L133.80 502.92 L132.64 499.25 L133.43 495.59 L132.65 491.90 L134.26 488.28 L137.49 484.75 L133.75 480.92 L130.26 477.03 L136.72 473.79 L130.87 469.65 L123.62 465.26 L126.10 461.72 L127.94 458.14 L125.93 454.12 L127.04 450.47 L129.05 446.95 L131.93 443.60 L136.79 440.63 L136.92 436.91 L140.87 433.89 L141.78 430.35 L139.18 426.09 L138.53 422.18 L137.71 418.21 L139.48 414.81 L140.89 411.35 L142.46 407.93 L145.34 404.88 L147.94 401.79 L147.80 397.95 L148.80 394.42 L150.99 391.26 L149.00 386.78 L146.05 381.91 L146.17 378.00 L142.45 372.70 L139.69 367.65 L140.73 363.93 L141.70 360.19 L143.17 356.63 L146.74 353.95 L151.99 352.03 L156.13 349.71 L158.16 346.51 L162.29 344.29 L162.34 340.19 L162.42 336.08 L162.59 331.97 L164.35 328.64 L167.59 326.08 L168.83 322.49 L171.32 319.57 L175.65 317.70 L177.85 314.68 L179.09 311.09 L182.64 308.89 L184.71 305.81 L183.30 300.54 L184.19 296.67 L184.45 292.34 L182.32 286.36 L183.13 282.27 L184.37 278.44 L185.86 274.76 L188.57 271.96 L192.47 270.05 L197.94 269.40 L200.97 266.94 L205.20 265.46 L209.74 264.30 L209.48 259.22 L210.49 255.14 L211.56 251.05 L213.83 247.97 L217.57 246.21 L219.14 242.50 L221.97 239.93 L224.74 237.31 L225.64 232.88 L226.36 228.19 L227.01 223.36 L229.14 219.97 L231.45 216.75 L233.36 213.07 L235.78 209.91 L238.45 207.01 L241.23 204.22 L244.00 201.41 L246.77 198.60 L250.53 196.97 L255.69 197.12 L261.83 198.61 L264.44 195.70 L269.49 196.00 L274.83 196.79 L275.02 190.62 L276.92 186.70 L279.44 183.59 L283.11 182.12 L286.46 180.21 L289.20 177.38 L293.00 176.16 L295.61 173.09 L299.82 172.59 L304.71 173.28 L305.66 167.37 L307.46 162.75 L313.87 166.27 L314.16 158.82 L314.33 150.86 L318.53 150.38 L322.63 149.74 L325.20 146.08 L328.74 144.34 L332.75 143.59 L337.03 143.48 L341.97 144.94 L343.92 139.66 L348.50 140.42 L352.52 139.94 L354.61 134.67 L358.20 133.06 L361.60 130.93 L365.17 129.21 L369.00 128.21 L372.50 126.26 L376.23 124.94 L380.13 124.19 L384.37 124.56 L389.04 126.49 L393.20 126.84 L396.54 124.36 L400.21 123.00 L403.89 121.66 L406.47 115.75 L409.61 111.77 L413.42 110.57 L417.03 108.34 L420.91 107.34 L425.19 108.37 L429.57 110.22 L433.43 109.30 L436.97 106.33 L441.26 108.07 L444.67 103.83 L448.43 101.70 L452.75 104.01 L456.95 105.77 L460.35 99.85 L464.63 102.59 L468.49 100.69 L472.21 96.46 L476.47 100.02 L480.76 105.71 L484.70 105.54 L488.73 108.41 L492.64 107.90 L496.53 103.45 L500.50 100.85 L504.56 94.22 L508.66 92.30 L512.74 92.25 L516.81 92.60 L520.83 93.86 L524.70 97.12 L528.49 100.74 L532.58 99.86 L536.47 101.40 L540.17 104.60 L544.63 100.48 L548.66 100.65 L552.70 100.79 L556.81 100.46 L560.71 101.67 L564.77 101.82 L568.90 101.55 L572.78 102.86 L576.82 103.21 L581.13 102.29 L585.50 101.31 L589.56 101.81 L593.96 100.93 L598.33 100.33 L602.33 101.32 L606.17 102.87 L609.96 104.61 L613.75 106.28 L617.46 108.16 L621.19 109.93 L624.15 114.08 L627.03 118.26 L632.22 115.54 L635.20 119.29 L638.17 122.93 L643.89 119.15 L647.79 120.36 L651.81 121.29 L655.81 122.28 L659.35 124.39 L663.39 125.34 L667.34 126.53 L670.65 129.12 L673.35 132.97 L675.57 137.69 L679.82 138.19 L685.57 135.80 L687.63 140.68 L693.80 137.75 L700.39 134.27 L704.04 136.28 L707.60 138.45 L711.26 140.47 L714.60 142.99 L716.96 147.11 L718.66 152.19 L720.40 157.09 L725.47 156.79 L727.37 161.32 L730.87 163.43 L736.22 162.91 L739.70 165.13 L743.47 166.94 L746.87 169.28 L750.01 171.97 L753.78 173.84 L756.97 176.47 L760.30 178.92 L764.13 180.78 L768.66 181.84 L772.32 183.97 L776.42 185.62 L781.43 186.31 L784.57 189.12 L787.73 191.91 L790.77 194.83 L793.78 197.78 L796.72 200.80 L799.26 204.21 L800.28 209.09 L800.99 214.18 L803.90 217.14 L807.82 219.19 L809.08 223.65 L814.52 224.39 L817.70 227.18 L818.67 231.83 L820.16 236.00 L826.30 236.38 L826.98 241.19 L831.19 243.20 L836.61 244.34 L836.64 249.59 L836.60 254.81 L844.40 254.36 L843.98 259.81 L845.96 263.54 L853.95 263.24 L856.46 266.69 L858.79 270.25 L860.96 273.92 L863.33 277.46 L865.34 281.23 L866.54 285.46 L865.89 290.72 L865.13 295.98 L868.78 298.75 L869.25 303.25 L868.77 308.22 L875.19 309.63 L877.05 313.40 L879.36 316.96 L881.80 320.46 L883.08 324.52 L885.30 328.14 L887.74 331.68 L888.85 335.80 L890.85 339.54 L894.11 342.79 L897.22 346.14 L899.28 349.91 L902.72 353.20 L905.64 356.71 L907.38 360.66 L908.77 364.74 L909.81 368.93 L911.38 372.94 L912.39 377.14 L912.00 381.73 L909.96 386.74 L907.58 391.77 L911.68 395.08 L910.09 399.84 L909.21 404.38 L915.06 407.38 L916.12 411.50 L917.64 415.53 L918.99 419.61 L919.16 423.92 L920.63 427.99 L921.78 432.13 L922.01 436.41 L923.65 440.49 L926.84 444.39 L929.36 448.42 L931.36 452.55 L935.74 456.48 L937.83 460.68 L938.38 465.05 L938.89 469.42 L939.38 473.80 L939.80 478.19 L940.18 482.58 L940.51 486.98 L940.80 491.38 L941.04 495.79 L942.04 500.00 L941.84 495.58 L941.59 491.17 L941.30 486.76 L940.96 482.35 L940.58 477.95 L940.16 473.56 L939.69 469.17 L939.17 464.79 L938.62 460.42 L939.59 455.89 L942.86 451.09 L943.44 446.53 L944.58 441.88 L946.45 437.09 L946.43 432.53 L944.93 428.20 L944.45 423.71 L944.08 419.19 L942.11 414.97 L941.52 410.50 L940.81 406.04 L939.46 401.73 L943.81 396.09 L939.66 392.41 L935.12 388.90 L937.18 383.70 L931.77 380.50 L926.84 377.26 L923.99 373.48 L922.13 369.42 L920.80 365.21 L918.82 361.21 L917.07 357.14 L915.56 353.00 L915.25 348.42 L915.47 343.62 L914.03 339.41 L913.76 334.74 L913.49 330.03 L911.80 325.89 L909.26 322.12 L907.91 317.84 L906.19 313.71 L903.52 310.03 L902.06 305.78 L899.94 301.85 L897.60 298.03 L899.96 291.78 L894.47 289.59 L890.62 286.60 L889.83 281.95 L884.03 280.12 L878.87 278.01 L875.50 274.92 L872.83 271.42 L870.43 267.76 L867.55 264.41 L864.94 260.90 L862.41 257.35 L866.20 249.47 L862.38 246.73 L856.66 245.37 L859.35 237.99 L853.67 236.67 L848.00 235.45 L848.45 229.57 L846.67 225.35 L841.43 223.90 L842.43 217.38 L837.72 215.54 L832.37 214.32 L830.17 210.42 L829.72 204.92 L824.34 203.85 L822.89 199.19 L819.45 196.38 L813.65 195.86 L808.58 194.73 L804.88 192.30 L801.52 189.55 L798.15 186.81 L794.70 184.16 L791.36 181.42 L788.03 178.67 L786.45 173.93 L783.93 170.20 L780.83 167.12 L778.68 162.89 L775.75 159.56 L772.18 157.00 L768.50 154.61 L765.36 151.51 L761.38 149.52 L757.79 147.03 L754.54 144.06 L750.68 141.94 L749.25 136.30 L745.18 134.45 L739.37 135.27 L737.74 129.75 L731.71 131.07 L725.83 132.32 L720.95 132.06 L716.89 130.50 L713.07 128.54 L709.08 126.91 L705.19 125.11 L704.32 117.66 L702.55 111.69 L697.10 112.75 L695.25 106.71 L691.59 104.17 L686.18 105.35 L681.18 105.77 L676.70 105.17 L672.84 103.20 L669.01 101.13 L664.63 100.40 L660.72 98.54 L656.75 96.82 L652.64 95.46 L650.64 88.33 L645.28 90.33 L640.18 91.80 L637.19 87.11 L631.81 89.63 L626.58 91.96 L622.25 91.51 L617.94 91.07 L613.67 90.57 L609.41 90.01 L605.11 89.70 L600.92 89.01 L597.09 86.84 L593.30 84.32 L589.14 83.40 L585.25 81.15 L581.36 78.77 L577.18 77.77 L572.77 78.07 L568.63 76.86 L564.41 76.10 L560.06 76.28 L555.89 75.11 L551.62 74.78 L547.38 74.10 L543.58 69.15 L538.91 72.65 L534.52 73.71 L530.32 72.49 L525.78 76.47 L521.38 79.50 L517.12 80.63 L512.91 80.95 L508.72 80.92 L504.55 78.90 L500.34 72.77 L496.05 71.33 L491.67 66.11 L487.34 66.71 L483.17 70.88 L478.87 70.93 L474.96 77.47 L471.03 82.06 L466.48 77.68 L462.28 78.25 L458.41 82.11 L453.64 77.19 L449.77 80.62 L446.01 84.48 L441.56 82.92 L436.95 80.56 L433.26 84.36 L428.62 82.17 L424.57 83.62 L421.09 87.90 L417.45 91.10 L413.41 92.17 L409.24 92.62 L405.21 93.72 L400.31 91.21 L395.07 87.70 L391.03 89.05 L386.68 89.29 L382.24 89.26 L378.74 92.46 L375.60 96.71 L372.05 99.48 L368.30 101.51 L364.36 102.98 L360.28 104.01 L356.66 106.35 L352.69 107.69 L348.68 108.94 L344.88 110.73 L339.25 108.05 L336.10 111.48 L333.65 116.43 L328.18 114.41 L326.06 119.93 L323.61 124.56 L320.50 127.64 L317.00 129.90 L311.90 128.97 L309.12 132.64 L306.34 136.22 L299.08 131.52 L292.87 129.00 L292.38 136.71 L287.10 135.98 L281.72 135.19 L279.80 140.20 L276.63 143.09 L273.05 145.31 L269.48 147.55 L266.25 150.28 L263.63 153.91 L259.83 155.78 L256.06 157.73 L252.81 160.41 L246.05 158.35 L243.90 162.56 L243.81 169.36 L240.09 171.39 L239.35 177.15 L239.13 183.41 L236.58 186.75 L233.85 189.86 L231.41 193.27 L228.48 196.12 L225.80 199.22 L223.00 202.19 L219.51 204.42 L216.18 206.84 L212.60 209.02 L207.98 210.19 L202.84 210.93 L197.99 212.04 L195.72 215.63 L192.59 218.41 L190.32 221.98 L188.86 226.23 L185.47 228.78 L181.92 231.22 L179.13 234.31 L173.03 234.73 L172.30 239.53 L172.79 245.22 L170.77 248.89 L171.71 254.76 L172.22 260.21 L170.18 263.75 L168.16 267.28 L166.16 270.82 L162.26 273.08 L155.85 273.74 L152.58 276.53 L148.89 279.09 L143.46 280.62 L142.15 284.72 L141.75 289.33 L139.51 292.84 L138.46 297.01 L139.00 302.04 L137.92 306.13 L136.27 309.90 L136.46 314.60 L134.73 318.30 L132.44 321.72 L128.58 324.42 L125.67 327.60 L127.08 332.75 L125.09 336.34 L126.47 341.37 L129.23 346.90 L130.13 351.59 L129.01 355.42 L127.82 359.23 L126.56 363.01 L121.09 365.29 L115.37 367.57 L113.83 371.35 L108.30 373.84 L104.39 376.93 L104.52 381.30 L102.41 384.99 L100.91 388.86 L101.39 393.28 L101.15 397.48 L102.00 401.93 L102.03 406.15 L100.26 409.94 L99.65 414.00 L98.14 417.87 L93.10 421.07 L94.82 425.60 L97.53 430.25 L96.29 434.19 L100.97 439.04 L103.07 443.42 L104.35 447.63 L105.75 451.82 L102.67 455.48 L104.32 459.66 L106.46 463.85 L98.23 467.15 L93.61 470.86 L99.98 475.33 L95.84 479.13 L92.97 483.06 L95.92 487.23 L96.34 491.28 L96.57 495.32 L96.36 499.36 L96.83 503.39 L98.63 507.39 L98.17 511.42 L97.55 515.46 L97.37 519.51 L92.04 523.86 L94.67 527.77 L100.01 531.43 L99.91 535.46 L104.64 539.03 L109.94 542.45 L103.38 547.18 L105.60 550.92 L110.44 554.27 L104.59 559.12 L109.97 562.31 L115.33 565.40 L116.68 569.12 L116.88 573.05 L116.55 577.09 L115.00 581.42 L112.56 585.99 L110.89 590.45 L113.00 594.05 L113.33 598.08 L115.11 601.73 L117.86 605.11 L118.06 609.17 L118.08 613.31 L118.81 617.25 L116.14 622.29 L119.95 625.27 L124.23 628.04 L126.50 631.45 L131.98 633.67 L136.69 636.09 L138.34 639.61 L140.07 643.10 L141.97 646.50 L141.20 651.02 L138.37 656.49 L139.73 660.20 L143.16 662.97 L143.16 667.30 L145.98 670.32 L150.76 672.34 L152.34 675.90 L151.99 680.48 L154.55 683.55 L156.69 686.84 L157.96 690.61 L161.66 693.01 L163.66 696.35 L164.83 700.18 L163.97 705.29 L165.72 708.83 L170.68 710.34 L171.62 714.40 L177.09 715.46 L183.31 715.92 L187.55 717.64 L190.31 720.35 L192.91 723.15 L195.55 725.92 L193.79 732.01 L192.64 737.76 L196.05 740.02 L197.18 744.08 L197.92 748.51 L201.14 750.91 L203.56 753.98 L205.68 757.31 L206.96 761.40 L209.20 764.68 L213.18 766.35 L216.42 768.67 L218.50 772.09 L221.45 774.68 L223.54 778.13 L223.13 784.17 L227.29 785.56 L231.84 786.48 L234.10 789.82 L239.53 789.66 L244.57 789.83 L248.93 790.69 L253.03 791.79 L255.40 794.93 L259.98 795.36 L264.18 796.20 L262.53 804.47 L263.72 809.27 L270.29 806.99 L271.15 812.31 L273.38 815.83 L277.79 816.33 L280.75 818.83 L284.50 820.19 L287.02 823.38 L290.37 825.34 L294.95 825.33 L297.85 827.96 L300.24 831.45 L303.75 833.11 L304.88 838.90 L308.39 840.65 L312.33 841.58 L315.98 843.02 L321.22 841.40 L325.80 840.92 L330.40 840.26 L334.99 839.51 L339.48 838.86 L343.31 839.51 L347.06 840.29 L350.67 841.34 L353.95 843.16 L357.36 844.65 L360.48 846.91 L363.07 850.56 L365.12 855.75 L368.06 858.79 L371.78 859.75 L374.86 862.52 L378.89 862.56 L383.15 861.82 L386.50 863.83 L389.77 866.20 L393.56 866.85 L396.33 871.14 L400.93 868.85 L405.27 867.34 L409.63 865.50 L414.25 862.34 L418.51 860.37 L422.32 860.23 L425.87 861.25 L429.48 862.02 L432.58 865.56 L435.39 871.07 L439.23 870.90 L443.14 870.24 L446.51 873.11 L450.43 872.25 L454.45 870.28 L457.93 872.70 L461.47 875.01 L465.29 874.61 L469.02 875.17 L472.88 874.02 L476.68 873.38 L480.51 871.69 L484.33 869.50 L487.85 875.10 L491.63 873.98 L495.44 867.85 L499.11 871.95 L502.81 868.60 L506.42 864.47 L510.01 862.38 L513.62 861.85 L517.22 861.42 L520.83 861.21 L524.80 866.21 L528.76 869.77 L532.12 865.65 L536.09 868.59 L540.03 870.58 L543.42 867.49 L547.20 867.84 L551.15 869.33 L554.96 869.60 L558.65 869.00 L562.34 868.43 L565.64 865.69 L569.45 865.81 L573.27 865.92 L576.92 865.19 L581.70 869.49 L585.66 869.84 L588.78 866.57 L592.38 865.41 L595.71 863.28 L598.66 859.83 L600.79 853.70 L603.78 850.82 L607.59 850.76 L609.86 845.79 L612.49 842.17 L618.67 849.16 L622.75 849.67 L624.37 843.27 L629.45 846.42 L633.18 845.80 L635.96 842.77 L639.51 841.70 L642.57 839.46 L646.59 839.48 L649.68 837.34 L652.02 833.58 L655.66 832.69 L659.69 832.60 L662.28 829.52 L667.61 831.93 L669.61 827.70 L670.71 821.89 L673.32 819.08 L674.37 813.49 L675.84 808.81 L683.07 814.18 L684.38 809.26 L686.14 805.24 L692.18 808.17 L692.69 802.21 L693.28 796.55 L696.09 794.39 L699.44 793.01 L702.93 791.83 L707.41 791.99 L712.92 793.49 L716.69 792.50 L719.50 790.18 L723.51 789.41 L725.56 786.11 L727.13 782.25 L730.61 780.77 L733.98 779.14 L737.43 777.58 L741.76 776.98 L741.89 771.60 L743.78 768.27 L743.85 763.01 L743.42 757.34 L744.23 753.08 L746.02 749.88 L748.67 747.57 L751.25 745.18 L756.03 744.90 L761.64 745.30 L763.61 742.24 L765.43 739.07 L769.12 737.56 L770.58 734.08 L771.03 729.77 L774.73 728.22 L777.81 726.12 L779.77 723.10 L782.14 720.41 L782.98 716.55 L782.68 711.87 L782.58 707.41 L783.96 704.09 L789.95 704.03 L790.56 700.15 L788.86 694.74 L795.41 694.89 L794.20 689.90 L792.62 684.76 L792.79 680.79 L794.25 677.66 L795.61 674.47 L797.04 671.33 L803.95 671.29 L809.02 670.10 L808.25 665.68 L812.47 663.94 L816.33 661.95 L815.93 657.78 L817.60 654.67 L820.91 652.33 L822.43 649.12 L824.37 646.09 L825.68 642.79 L825.09 638.67 L827.33 635.77 L829.62 632.87 L830.93 629.57 L831.67 626.05 L833.60 622.98 L832.77 618.91 L833.94 615.57 L836.25 612.62 L837.29 609.23 L836.89 605.39 L837.98 602.03 L836.64 597.96 L835.45 593.99 L835.79 590.47 L837.10 587.22 L837.41 583.71 L837.97 580.27 L839.11 576.97 L839.17 573.42 L841.92 570.44 L844.01 567.30 L844.13 563.75 L845.54 560.45 L844.87 556.78 L844.18 553.14 L845.41 549.80 L846.50 546.42 L847.33 543.00 L852.14 540.03 L849.42 536.18 L846.32 532.37 L846.11 528.86 L842.03 525.08 L838.17 521.40 L837.80 517.98 L837.28 514.57 L836.33 511.17 L836.03 507.79 L835.39 504.42 L835.23 501.07 L836.02 497.71 L836.72 494.34 L838.16 490.93 L840.40 487.46 L843.73 483.90 L845.14 480.37 L844.26 476.96 L844.69 473.47 L842.11 470.22 L838.54 467.12 L836.80 463.89 L834.04 460.80 L836.60 457.08 L837.91 453.48 L833.25 450.72 L835.92 446.89 L833.50 443.85 L829.33 441.16 L826.42 438.30 L825.56 435.08 L824.91 431.83 L824.41 428.54 L827.65 424.38 L830.85 420.15 L830.06 416.84 L833.08 412.53 L834.47 408.58 L831.73 405.75 L830.44 402.54 L829.46 399.23 L827.31 396.30 L823.73 393.86 L821.34 391.08 L819.23 388.22 L816.57 385.58 L815.14 382.52 L815.11 378.93 L815.40 375.19 L813.45 372.32 L810.86 369.74 L808.22 367.20 L804.12 365.35 L800.20 363.48 L797.59 361.06 L795.38 358.47 L793.53 355.73 L792.03 352.83 L795.59 347.31 L796.47 343.08 L794.86 340.13 L798.16 334.47 L797.81 330.75 L795.00 328.42 L795.11 324.38 L792.50 321.94 L789.36 319.87 L787.83 316.80 L783.61 315.48 L780.41 313.54 L780.39 309.48 L777.77 307.17 L775.43 304.69 L778.20 298.52 L772.55 298.42 L767.08 298.30 L765.71 295.13 L760.34 295.09 L755.46 294.76 L752.86 292.66 L749.77 290.97 L748.85 287.48 L745.28 286.25 L742.10 284.72 L747.40 275.55 L744.96 273.25 L739.56 273.76 L741.75 267.07 L738.76 265.30 L734.74 264.59 L732.63 261.99 L729.94 260.00 L727.73 257.49 L724.62 255.96 L721.30 254.68 L719.21 252.07 L717.29 249.23 L715.24 246.51 L715.21 241.35 L710.25 242.11 L706.03 242.06 L702.69 240.98 L697.04 242.94 L693.17 242.69 L695.12 234.62 L689.54 236.73 L686.04 236.06 L685.55 231.08 L680.11 233.30 L675.10 235.05 L672.55 233.14 L670.45 230.51 L668.75 227.21 L667.15 223.65 L666.03 219.20 L664.21 215.83 L661.08 214.70 L658.18 213.18 L654.81 212.53 L651.78 211.28 L649.06 209.42 L646.35 207.53 L644.73 203.41 L642.27 200.91 L637.34 203.66 L634.44 202.15 L630.03 204.06 L625.26 206.99 L621.37 208.04 L618.36 207.07 L615.34 206.11 L612.25 205.34 L610.80 200.17 L608.99 195.75 L605.14 196.97 L602.34 195.23 L599.81 192.64 L595.91 194.27 L592.32 195.05 L589.50 193.36 L587.00 190.44 L583.57 190.81 L580.45 190.10 L577.28 189.56 L573.83 190.23 L570.80 189.21 L567.94 187.33 L565.83 181.77 L562.04 184.19 L558.20 187.26 L555.39 184.85 L551.41 189.29 L547.64 193.07 L544.32 194.30 L541.21 194.29 L538.06 194.63 L534.99 194.35 L532.64 187.25 L529.80 183.82 L526.48 185.49 L523.56 182.16 L520.51 179.84 L517.21 181.52 L514.08 180.09 L510.89 179.51 L507.70 178.92 L504.51 177.64 L501.28 179.24 L498.08 180.73 L494.86 178.97 L491.66 179.34 L488.41 178.27 L484.99 174.03 L481.82 175.82 L478.63 176.79 L475.41 177.12 L472.42 180.20 L469.36 181.82 L466.45 184.77 L463.67 188.24 L460.59 188.93 L457.80 191.65 L454.91 193.38 L450.59 185.88 L447.66 187.63 L445.23 192.06 L441.10 187.04 L438.35 189.50 L435.47 191.24 L432.42 192.03 L429.42 193.06 L425.97 192.19 L423.10 193.76 L420.56 196.50 L417.28 196.40 L413.93 196.13 L410.65 196.16 L406.94 194.85 L405.00 199.32 L402.51 201.84 L400.66 206.18 L399.25 211.54 L397.30 215.13 L394.91 217.39 L392.22 218.81 L389.55 220.24 L386.95 221.84 L384.41 223.53 L381.71 224.84 L378.68 225.41 L375.59 225.86 L372.14 225.59 L368.03 224.00 L363.40 221.51 L360.07 221.79 L357.47 223.54 L354.16 223.94 L352.09 226.68 L350.15 229.59 L346.68 229.73 L343.85 231.05 L339.71 230.17 L336.95 231.67 L336.31 236.59 L333.63 238.15 L334.02 244.44 L333.60 249.33 L332.33 252.82 L330.23 255.02 L327.79 256.74 L325.57 258.76 L320.57 256.99 L316.20 256.22 L316.28 261.32 L312.74 261.69 L308.77 261.59 L308.65 266.26 L306.72 268.67 L302.29 268.11 L299.51 269.56 L297.31 271.68 L295.04 273.72 L293.78 276.86 L291.43 278.80 L288.83 280.48 L287.21 283.18 L281.16 281.44 L280.48 285.09 L282.04 290.85 L279.30 292.42 L279.97 297.16 L281.14 302.25 L280.36 305.49 L278.68 307.92 L277.76 310.98 L276.16 313.45 L269.53 311.80 L266.66 313.31 L267.02 317.39 L262.02 317.28 L260.07 319.57 L258.61 322.22 L254.52 322.97 L250.27 323.68 L247.26 325.31 L244.65 327.26 L242.15 329.30 L241.72 332.70 L240.12 335.33 L236.72 336.85 L236.80 340.52 L233.33 342.04 L234.14 346.09 L235.66 350.48 L235.25 353.72 L236.28 357.71 L236.89 361.42 L237.09 364.87 L236.15 367.70 L234.67 370.26 L234.85 373.62 L233.87 376.40 L224.97 375.60 L225.96 379.33 L227.12 383.09 L220.31 383.47 L220.54 386.83 L218.45 389.25 L217.09 391.96 L217.27 395.26 L214.99 397.65 L216.04 401.22 L218.39 405.18 L217.10 407.89 L215.70 410.56 L214.64 413.36 L210.94 415.38 L214.51 419.52 L214.83 422.68 L216.87 426.26 L220.67 430.23 L220.78 433.21 L214.05 434.62 L218.50 438.59 L217.39 441.31 L214.96 443.77 L219.22 447.52 L221.78 450.87 L221.12 453.63 L220.04 456.32 L217.80 458.86 L213.88 461.20 L209.69 463.59 L208.13 466.35 L208.07 469.30 L206.78 472.13 L208.55 475.23 L209.34 478.22 L207.58 481.03 L207.85 483.98 L204.44 486.76 L204.55 489.72 L209.51 492.80 L209.20 495.70 L214.04 498.63 L217.97 501.47 L220.20 504.26 L220.44 507.05 L220.33 509.85 L220.83 512.63 L215.92 515.70 L212.98 518.75 L215.85 521.41 L214.59 524.38 L213.30 527.38 L216.27 529.97 L217.09 532.74 L215.16 535.86 L215.41 538.72 L215.40 541.62 L216.10 544.42 L218.04 547.01 L218.19 549.89 L217.78 552.88 L219.47 555.47 L214.89 559.35 L217.71 561.71 L223.39 563.37 L223.03 566.38 L227.96 568.08 L232.25 569.86 L234.15 572.21 L236.09 574.52 L238.06 576.80 L238.40 579.56 L233.59 583.94 L232.42 587.26 L235.38 589.23 L233.54 592.83 L233.62 595.80 L236.16 597.87 L236.51 600.75 L236.00 603.99 L236.04 607.03 L236.46 609.94 L238.25 612.28 L240.53 614.39 L240.81 617.38 L241.03 620.41 L241.88 623.17 L238.27 628.12 L237.60 631.72 L238.57 634.52 L237.94 638.17 L239.39 640.76 L243.80 641.71 L248.52 642.40 L252.60 643.37 L258.14 643.41 L263.47 643.47 L266.52 644.83 L269.53 646.18 L267.84 650.53 L267.44 654.11 L267.87 657.19 L265.68 662.11 L265.47 665.75 L267.09 668.12 L269.24 670.11 L270.24 672.94 L271.85 675.33 L273.71 677.52 L275.35 679.90 L277.51 681.85 L280.26 683.30 L283.07 684.66 L284.81 686.93 L286.37 689.35 L287.86 691.85 L289.48 694.25 L290.50 697.22 L293.59 698.24 L297.45 698.47 L300.41 699.52 L304.12 699.76 L308.26 699.50 L311.27 700.34 L311.94 703.67 L313.78 705.76 L314.94 708.64 L315.34 712.43 L316.64 715.25 L319.04 716.79 L321.33 718.44 L323.14 720.70 L325.07 722.81 L327.35 724.50 L329.80 725.95 L332.43 727.16 L335.15 728.22 L337.42 729.88 L339.93 731.20 L342.12 732.97 L344.31 734.76 L346.76 736.16 L348.78 738.25 L352.40 737.76 L356.21 736.87 L358.62 738.24 L361.93 738.06 L365.54 737.27 L368.12 738.23 L370.02 740.44 L372.29 742.01 L374.15 744.37 L375.96 746.90 L378.28 748.43 L380.59 750.01 L382.92 751.57 L386.10 751.29 L389.15 751.21 L391.30 753.16 L393.99 753.86 L396.84 754.17 L398.83 756.58 L401.44 757.48 L404.59 756.91 L407.06 758.16 L409.82 758.57 L412.70 758.59 L415.02 760.29 L417.67 761.00 L420.20 762.07 L423.40 760.88 L426.64 759.43 L429.81 758.05 L432.14 759.71 L434.44 761.56 L437.12 761.97 L439.09 765.45 L441.40 767.59 L444.08 768.16 L446.87 768.20 L449.41 769.48 L452.04 770.33 L454.80 770.51 L457.47 771.16 L460.25 771.10 L463.05 770.85 L465.80 770.90 L468.60 770.44 L471.34 770.50 L473.93 771.99 L476.71 771.44 L479.52 770.42 L482.28 769.84 L485.10 767.77 L487.86 766.30 L490.59 764.50 L493.28 762.78 L495.93 761.58 L498.53 763.37 L501.17 764.46 L503.83 765.33 L506.53 767.39 L509.23 768.14 L511.92 768.06 L514.56 767.33 L517.28 767.80 L519.98 767.97 L522.65 767.61 L525.32 767.33 L527.94 766.54 L530.49 765.31 L533.03 764.09 L535.56 762.94 L537.73 759.44 L539.63 754.60 L542.00 753.15 L544.56 752.90 L545.71 745.04 L547.63 741.90 L550.61 744.10 L552.31 740.20 L554.04 736.71 L556.56 736.84 L560.58 742.89 L563.87 745.59 L567.05 747.61 L570.94 751.99 L574.08 753.39 L576.47 752.16 L578.93 751.22 L581.66 751.10 L584.23 750.45 L586.72 749.58 L589.10 748.39 L591.33 746.80 L593.34 744.68 L595.67 743.45 L598.23 742.82 L600.73 742.00 L603.51 741.82 L606.13 741.26 L608.88 740.94 L610.39 737.91 L611.60 734.36 L613.55 732.43 L614.96 729.47 L616.05 725.98 L618.34 724.87 L621.18 724.79 L623.44 723.60 L626.36 723.57 L629.32 723.55 L631.62 722.38 L634.22 721.68 L636.54 720.50 L637.77 717.60 L639.46 715.48 L642.07 714.77 L643.87 712.83 L645.69 710.95 L648.67 710.73 L650.65 709.06 L651.75 706.21 L654.02 704.97 L655.16 702.24 L655.90 699.05 L657.28 696.73 L655.94 691.10 L658.21 689.98 L656.87 684.58 L656.21 680.13 L656.90 677.30 L662.36 679.81 L667.02 681.30 L669.50 680.34 L674.95 682.45 L678.63 682.60 L680.60 680.95 L681.86 678.61 L683.99 677.12 L686.07 675.57 L687.82 673.70 L689.35 671.64 L690.71 669.43 L692.26 667.39 L693.68 665.26 L694.48 662.61 L696.31 660.83 L699.21 659.90 L699.94 657.23 L700.74 654.63 L702.00 652.41 L701.26 648.71 L698.05 643.30 L696.50 639.21 L694.91 635.17 L692.01 630.34 L697.73 631.35 L701.83 631.19 L705.67 630.78 L711.52 631.55 L714.88 630.67 L715.91 628.36 L716.94 626.05 L718.61 624.12 L720.13 622.08 L721.20 619.80 L722.30 617.54 L722.90 615.02 L723.02 612.27 L723.34 609.65 L724.52 607.45 L725.86 605.33 L727.66 603.41 L729.07 601.30 L730.78 599.31 L730.14 596.32 L729.16 593.23 L728.67 590.37 L727.04 587.11 L725.26 583.85 L725.39 581.35 L727.97 579.71 L728.76 577.43 L730.90 575.59 L734.80 574.27 L738.70 572.89 L737.51 569.94 L737.72 567.42 L740.54 565.63 L740.11 562.94 L739.58 560.25 L736.62 557.00 L733.26 553.72 L736.84 552.06 L734.71 549.14 L733.58 546.47 L738.13 544.90 L740.87 542.93 L741.48 540.55 L742.14 538.17 L741.19 535.56 L740.06 532.94 L739.38 530.41 L737.74 527.79 L735.41 525.14 L735.69 522.78 L736.81 520.50 L736.62 518.11 L738.51 515.85 L742.10 513.66 L741.05 511.19 L740.36 508.75 L740.82 506.35 L738.61 503.91 L738.39 501.52 L738.85 499.13 L738.94 496.74 L739.79 494.33 L740.89 491.90 L739.61 489.54 L737.42 487.26 L737.62 484.86 L736.75 482.54 L736.06 480.21 L736.49 477.79 L735.85 475.47 L736.25 473.04 L733.28 471.01 L730.58 469.00 L728.17 467.00 L729.69 464.43 L730.30 461.98 L729.95 459.67 L732.71 456.78 L733.57 454.20 L732.87 451.91 L731.87 449.70 L732.08 447.22 L731.72 444.86 L730.76 442.64 L730.11 440.35 L729.03 438.18 L727.98 436.01 L726.93 433.85 L725.06 431.95 L724.65 429.61 L725.45 426.88 L723.85 424.92 L721.91 423.09 L716.15 422.65 L710.98 422.12 L706.77 421.31 L700.06 421.57 L696.11 420.84 L695.66 418.74 L701.59 413.90 L703.83 410.53 L706.01 407.10 L709.76 402.88 L710.63 399.90 L709.35 397.93 L708.09 395.96 L707.52 393.64 L706.54 391.52 L705.23 389.58 L703.98 387.60 L702.14 385.97 L700.04 384.50 L698.07 382.98 L695.78 381.67 L694.76 379.61 L693.71 377.57 L692.30 375.76 L691.72 373.39 L688.67 372.68 L686.24 371.59 L683.72 370.60 L680.34 370.26 L677.22 369.80 L675.82 368.10 L676.19 365.05 L675.27 362.95 L675.47 359.94 L676.01 356.61 L675.20 354.33 L673.61 352.69 L671.19 351.77 L670.18 349.65 L669.00 347.65 L667.47 345.97 L666.11 344.12 L664.57 342.44 L662.05 341.72 L658.74 341.82 L653.14 344.31 L649.53 344.92 L645.38 346.18 L642.20 346.49 L642.95 342.55 L638.31 344.57 L637.09 342.80 L636.64 340.12 L632.44 341.85 L628.49 343.42 L630.00 338.30 L631.17 333.47 L630.22 331.22 L631.76 325.65 L631.81 321.92 L630.02 320.61 L627.86 319.82 L625.61 319.18 L623.00 319.11 L621.49 317.44 L619.95 315.77 L618.22 314.41 L616.89 312.38 L615.53 310.36 L612.99 310.29 L610.16 310.76 L608.32 309.57 L606.03 309.19 L604.14 308.08 L602.26 306.97 L600.48 305.65 L598.96 303.81 L595.97 304.90 L593.78 304.45 L591.31 304.60 L589.47 303.45 L587.93 301.59 L585.88 300.88 L584.46 298.64 L582.66 297.28 L580.55 296.67 L578.29 296.45 L576.51 294.98 L574.44 294.26 L572.37 293.56 L570.27 292.94 L568.04 292.73 L565.82 292.51 L563.67 292.08 L561.28 292.51 L559.29 291.58 L557.60 289.56 L555.27 289.85 L552.93 290.22 L550.71 290.21 L548.12 291.85 L545.66 293.08 L543.24 294.28 L540.83 295.61 L538.81 295.05 L537.12 292.70 L535.16 291.64 L533.32 289.74 L531.46 287.74 L529.49 286.38 L527.27 286.70 L525.11 286.67 L522.95 286.65 L520.79 286.66 L518.72 285.82 L516.52 286.35 L514.44 285.28 L512.26 285.70 L510.12 285.67 L507.95 286.11 L505.78 287.19 L503.66 287.10 L501.52 287.54 L499.40 286.56 L497.26 286.72 L495.16 287.97 L493.09 289.51 L490.97 289.25 L488.86 289.32 L486.79 290.05 L484.60 288.88 L482.32 287.03 L480.22 287.53 L478.16 288.39 L476.11 289.17 L474.10 290.22 L472.08 291.07 L470.03 291.63 L468.02 292.37 L466.15 293.95 L464.01 293.86 L461.88 293.86 L459.87 294.47 L457.71 294.37 L455.83 295.62 L454.12 297.52 L452.11 298.06 L450.29 299.33 L448.49 300.64 L446.19 300.01 L444.03 299.96 L442.05 300.59 L440.19 301.63 L438.81 304.16 L436.55 303.83 L434.65 304.66 L433.02 306.25 L431.00 306.69 L428.79 306.62 L426.77 307.11 L425.15 308.62 L423.35 309.66 L421.53 310.63 L419.71 311.58 L417.73 312.17 L415.71 312.67 L413.61 313.03 L412.30 315.07 L410.02 315.08 L408.81 317.25 L406.92 318.04 L405.43 319.59 L403.46 320.24 L401.33 320.59 L399.89 322.21 L399.03 324.80 L397.54 326.26 L395.71 327.12 L394.25 328.61 L392.26 329.23 L389.50 328.68 L387.43 329.23 L385.91 330.64 L384.60 332.34 L383.33 334.07 L382.06 335.78 L380.59 337.20 L379.19 338.70 L378.45 341.04 L377.22 342.73 L374.65 342.69 L373.38 344.32 L372.01 345.82 L370.14 346.71 L369.72 349.30 L368.57 351.00 L367.22 352.47 L366.61 354.75 L364.95 355.85 L362.86 356.53 L361.57 358.04 L359.49 358.76 L359.62 361.69 L359.29 364.11 L356.97 364.61 L356.12 366.51 L355.01 368.15 L353.10 369.07 L351.91 370.64 L350.80 372.28 L349.69 373.92 L348.71 375.65 L347.52 377.21 L345.97 378.48 L345.03 380.23 L343.18 381.29 L342.59 383.30 L341.36 384.83 L340.77 386.81 L340.05 388.69 L339.06 390.38 L338.41 392.29 L336.26 393.20 L335.71 395.16 L335.58 397.38 L335.74 399.75 L334.59 401.31 L333.34 402.81 L333.04 404.86 L330.95 405.89 L328.51 406.77 L327.76 408.58 L327.44 410.61 L327.11 412.62 L326.75 414.60 L326.38 416.57 L325.86 418.45 L325.65 420.47 L325.83 422.65 L324.54 424.16 L323.54 425.82 L323.06 427.69 L321.47 429.11 L321.94 431.35 L322.39 433.56 L321.92 435.41 L322.21 437.52 L322.13 439.48 L320.52 440.93 L319.42 442.56 L318.31 444.20 L318.59 446.27 L319.81 448.58 L318.39 450.14 L318.76 452.18 L319.48 454.30 L319.06 456.11 L318.16 457.81 L317.83 459.65 L317.56 461.50 L317.23 463.34 L317.37 465.26 L316.55 467.00 L316.11 468.82 L314.38 470.43 L313.76 472.24 L314.21 474.20 L313.07 475.95 L315.16 478.09 L315.90 480.05 L316.79 481.99 L317.54 483.91 L316.77 485.69 L317.75 487.59 L319.31 489.51 L318.23 491.28 L317.86 493.08 L317.80 494.90 L317.53 496.72 L316.29 498.54 L316.38 500.37 L317.98 502.19 L319.17 503.99 L319.66 505.78 L320.18 507.56 L320.57 509.35 L321.02 511.12 L321.99 512.85 L322.40 514.60 L319.64 516.65 L320.63 518.37 L321.76 520.05 L321.43 521.90 L322.54 523.57 L323.82 525.19 L325.05 526.81 L325.34 528.55 L324.91 530.42 L325.25 532.17 L326.19 533.79 L325.11 535.82 L328.63 536.89 L329.60 538.47 L326.49 541.00 L328.33 542.38 L328.64 544.13 L327.21 546.34 L327.33 548.17 L328.02 549.83 L329.11 551.37 L329.48 553.13 L329.89 554.87 L330.21 556.65 L330.98 558.28 L331.49 559.99 L333.00 561.34 L333.40 563.10 L335.06 564.36 L336.48 565.70 L337.39 567.23 L338.34 568.74 L337.86 570.86 L339.04 572.28 L341.15 573.24 L342.93 574.34 L343.62 575.93 L344.27 577.55 L345.58 578.84 L344.87 581.16 L343.92 583.66 L345.19 584.98 L346.60 586.22 L347.88 587.51 L349.44 588.63 L350.87 589.81 L351.93 591.20 L353.53 592.25 L355.57 592.99 L355.77 594.91 L356.44 596.55 L357.62 597.83 L357.90 599.75 L359.84 600.49 L361.74 601.24 L362.70 602.66 L364.58 603.38 L365.85 604.55 L366.34 606.33 L367.30 607.76 L368.02 609.38 L369.98 609.97 L372.48 610.06 L372.56 612.23 L374.03 613.19 L375.93 613.75 L376.84 615.20 L377.19 617.20 L378.44 618.36 L379.95 619.25 L381.52 620.07 L383.02 620.93 L383.98 622.37 L385.35 623.38 L386.10 625.06 L387.43 626.10 L389.17 626.68 L390.27 627.98 L392.50 627.95 L393.69 629.14 L395.60 629.42 L396.45 631.04 L397.49 632.43 L399.34 632.76 L401.73 632.34 L403.07 633.29 L404.18 634.57 L405.80 635.14 L406.72 636.71 L407.23 638.92 L408.39 640.21 L410.01 640.78 L411.71 641.21 L413.52 641.44 L415.18 641.90 L416.76 642.47 L418.58 642.62 L420.54 642.46 L422.12 642.98 L422.81 645.14 L424.75 644.98 L425.98 646.17 L427.52 646.75 L429.57 646.27 L431.15 646.72 L432.82 646.96 L434.79 646.52 L436.00 647.75 L437.10 649.28 L438.70 649.66 L440.09 650.53 L442.30 649.32 L444.13 648.99 L445.19 650.73 L447.04 650.31 L448.57 650.76 L449.71 652.38 L451.23 652.90 L452.84 653.12 L454.50 653.16 L456.01 653.71 L457.61 653.91 L459.07 654.64 L460.64 654.95 L462.02 656.02 L463.84 655.31 L465.30 656.10 L467.08 655.42 L468.77 655.03 L470.42 654.85 L471.98 655.07 L473.34 656.47 L474.99 656.18 L476.76 655.04 L478.46 654.24 L479.98 654.65 L481.54 654.72 L483.15 654.31 L484.53 656.18 L485.95 657.89 L487.56 657.60 L489.18 657.05 L490.79 656.63 L492.39 656.03 L493.97 655.59 L495.52 655.79 L497.08 655.43 L498.65 653.87 L500.19 655.12 L501.75 655.33 L503.28 654.53 L504.85 655.13 L506.34 653.53 L507.81 652.32 L509.34 652.24 L510.78 651.06 L512.28 650.79 L513.88 651.68 L515.41 651.72 L517.01 652.29 L518.34 650.50 L519.62 648.63 L521.38 650.38 L522.65 648.63 L523.93 647.15 L525.51 647.51 L527.10 647.88 L528.53 647.36 L529.89 646.54 L531.34 646.13 L532.73 645.53 L534.29 645.62 L535.67 644.96 L537.21 644.98 L538.71 644.80 L539.94 643.62 L541.48 643.57 L542.62 642.17 L544.33 642.68 L545.44 641.26 L547.31 642.16 L548.93 642.27 L550.55 642.33 L552.28 642.67 L553.80 642.39 L555.05 641.41 L556.32 640.51 L556.90 637.93 L558.01 636.73 L559.15 635.63 L560.14 634.21 L561.54 633.75 L563.18 633.77 L564.59 633.30 L565.92 632.64 L566.95 631.40 L568.62 631.41 L569.99 630.82 L571.09 629.75 L572.73 629.65 L573.98 628.84 L574.10 626.11 L574.39 623.76 L575.29 622.46 L576.37 621.48 L577.19 620.11 L578.70 619.79 L580.52 619.94 L581.74 619.16 L582.90 618.30 L583.19 616.23 L583.49 614.22 L584.13 612.70 L584.06 610.30 L584.04 608.01 L584.19 606.00 L584.10 603.73 L583.53 600.95 L582.85 598.11 L582.37 595.59 L581.80 593.03 L581.47 590.81 L581.51 589.05 L582.03 587.83 L582.90 587.01 L583.55 585.95 L584.19 584.89 L585.25 584.26 L585.58 582.91 L586.25 581.90 L586.64 580.65 L587.26 579.61 L587.99 578.67 L588.45 577.50 L589.52 576.88 L590.50 576.16 L591.19 575.19 L592.42 574.67 L593.11 573.70 L594.06 572.94 L594.85 572.04 L595.49 571.03 L596.56 570.33 L597.44 569.50 L598.20 568.57 L599.23 567.82 L600.43 567.18 L601.26 566.28 L602.30 565.51 L603.35 564.73 L603.87 563.62 L604.13 562.36 L604.66 561.26 L604.84 559.97 L604.80 558.56 L604.97 557.28 L605.09 556.00 L604.70 554.45 L604.43 552.99 L604.40 551.67 L603.91 550.14 L603.57 548.70 L604.06 547.67 L604.31 546.53 L604.02 545.15 L604.21 544.00 L604.36 542.84 L604.32 541.61 L604.51 540.48 L604.82 539.40 L605.21 538.35 L605.12 537.13 L605.40 536.05 L605.36 534.86 L604.99 533.58 L605.43 532.56 L605.27 531.36 L605.06 530.16 L605.53 529.16 L605.19 527.93 L605.23 526.82 L605.41 525.75 L605.21 524.58 L605.40 523.52 L604.91 522.31 L604.37 521.11 L604.03 519.96 L603.20 518.73 L602.42 517.53 L601.75 516.37 L601.12 515.24 L600.68 514.14 L600.37 513.08 L600.14 512.03 L600.01 511.00 L599.89 509.98 L599.76 508.96 L599.64 507.94 L599.52 506.93 L599.39 505.93 L599.26 504.92 L599.12 503.92 L598.97 502.93 L598.81 501.93 L598.62 500.94 Z"/>
  <svg class="pausebutton" id="pausebutton">
    <circle cx="500" cy="500" id="pausestart" class="pausestart" r="52.65"/>
    <rect height="50.02" width="10.00" y="473.68" rx="2.00" ry="2.00" x="479.99" class="pausesymbol"/>
    <rect height="50.02" width="10.00" y="473.68" rx="2.00" ry="2.00" x="510.00" class="pausesymbol"/>
    <polygon points="530.01,500 479.99,530.01 479.99,469.99" class="playsymbol"/>
  </svg>
  <polygon id="playback-head" class="playback-head" points="941.65,500 921.65,540 961.65,540"/>
</svg>