<?xml-stylesheet href="../../style/waveformjs.css" type="text/css"?>
<svg xmlns="http://www.w3.org/2000/svg" xmlns:xlink="http://www.w3.org/1999/xlink" width="100%" height="100%" viewBox="0 0 1000 1000">
  <path class="svg-wave" id="sp" d="M597.67 500.00 L597.84 500.98 L598.01 501.96 L598.17 502.95 L598.32 503.93 L598.45 504.93 L598.58 505.92 L598.71 506.92 L598.81 507.92 L598.91 508.93 L598.99 509.93 L599.07 510.94 L599.13 511.95 L599.19 512.97 L599.23 513.98 L599.27 515.00 L599.30 516.03 L599.31 517.05 L599.32 518.07 L599.32 519.10 L599.30 520.13 L599.27 521.16 L599.22 522.19 L599.16 523.22 L599.09 524.25 L599.01 525.28 L598.91 526.31 L598.83 527.35 L598.73 528.39 L598.60 529.42 L598.49 530.47 L598.36 531.51 L598.21 532.55 L598.06 533.59 L597.89 534.63 L597.71 535.67 L597.52 536.71 L597.29 537.74 L597.09 538.78 L596.86 539.82 L596.61 540.85 L596.38 541.89 L596.11 542.92 L595.82 543.95 L595.45 544.94 L595.13 545.95 L594.92 547.03 L594.54 548.02 L594.18 549.03 L593.98 550.13 L593.64 551.16 L593.23 552.15 L592.81 553.14 L592.50 554.20 L592.07 555.19 L591.59 556.16 L591.19 557.17 L590.78 558.19 L590.33 559.18 L589.83 560.15 L589.43 561.18 L588.98 562.19 L588.53 563.20 L588.03 564.19 L587.52 565.17 L586.97 566.12 L586.42 567.07 L585.92 568.07 L585.34 569.02 L584.78 569.97 L584.22 570.94 L583.64 571.89 L583.04 572.83 L582.42 573.76 L581.80 574.69 L581.12 575.57 L580.43 576.45 L579.72 577.30 L578.89 578.05 L578.11 578.83 L577.38 579.67 L576.39 580.24 L575.85 581.29 L575.38 582.42 L574.46 583.07 L574.09 584.34 L573.51 585.38 L572.73 586.21 L571.96 587.05 L571.20 587.91 L570.41 588.72 L569.63 589.57 L568.87 590.44 L568.03 591.23 L567.22 592.04 L566.41 592.86 L565.55 593.62 L564.69 594.40 L563.82 595.15 L562.95 595.92 L562.06 596.66 L561.17 597.40 L560.27 598.13 L559.36 598.85 L558.46 599.59 L557.50 600.25 L556.52 600.85 L555.56 601.52 L554.56 602.10 L553.62 602.79 L552.67 603.49 L551.67 604.09 L550.73 604.81 L549.80 605.57 L548.80 606.17 L547.80 606.82 L546.83 607.50 L545.84 608.18 L544.81 608.77 L543.80 609.41 L542.80 610.08 L541.74 610.63 L540.71 611.25 L539.64 611.78 L538.56 612.29 L537.47 612.77 L536.44 613.44 L535.33 613.89 L534.25 614.45 L533.17 615.01 L532.07 615.52 L530.97 616.06 L529.86 616.56 L528.72 616.95 L527.60 617.44 L526.45 617.86 L525.28 618.16 L524.12 618.50 L522.94 618.75 L521.77 619.11 L520.59 619.39 L519.41 619.69 L518.25 620.11 L517.06 620.35 L515.88 620.73 L514.68 620.95 L513.46 621.01 L512.26 621.19 L511.04 621.26 L509.81 621.09 L508.60 621.20 L507.38 621.32 L506.18 621.63 L504.99 622.27 L503.79 622.95 L502.57 623.47 L501.33 623.33 L500.10 622.10 L498.88 621.28 L497.69 620.05 L496.53 618.64 L495.33 618.96 L494.10 619.80 L492.84 620.83 L491.65 620.41 L490.62 618.20 L489.56 616.77 L488.60 614.51 L487.78 611.46 L486.60 611.91 L485.21 613.85 L483.71 616.28 L482.33 617.56 L481.16 617.31 L480.17 616.07 L479.30 614.27 L478.64 611.57 L477.63 610.80 L476.03 612.90 L474.30 615.36 L472.80 616.57 L471.48 616.94 L470.85 614.53 L470.06 612.92 L469.86 609.25 L469.41 606.69 L467.91 607.85 L465.89 610.59 L464.02 612.63 L462.60 613.15 L461.82 611.75 L460.47 612.02 L460.38 608.80 L460.18 606.05 L458.43 607.44 L456.32 609.61 L454.22 611.62 L452.49 612.62 L451.82 611.10 L451.00 609.96 L450.85 607.39 L451.37 603.51 L449.89 603.94 L447.52 606.13 L445.13 608.23 L443.35 609.02 L442.34 608.31 L441.24 607.76 L441.18 605.35 L442.12 601.28 L441.04 600.81 L438.60 602.61 L436.21 604.22 L434.48 604.69 L433.27 604.28 L432.95 602.51 L432.70 600.69 L433.54 597.31 L433.43 595.41 L430.99 596.83 L427.77 599.23 L425.76 599.88 L424.62 599.33 L424.64 597.26 L423.79 596.35 L424.65 593.34 L425.65 590.24 L423.76 590.66 L420.08 593.13 L418.08 593.55 L416.60 593.34 L416.99 591.06 L416.08 590.23 L416.89 587.58 L418.88 583.79 L416.62 584.42 L413.13 586.22 L409.68 587.86 L408.48 587.26 L408.36 585.64 L407.77 584.48 L408.68 581.99 L411.71 577.68 L409.92 577.67 L406.66 578.87 L403.53 579.88 L401.23 580.13 L400.30 579.25 L400.12 577.77 L400.86 575.62 L403.72 571.92 L403.64 570.49 L400.90 570.99 L397.18 572.10 L395.00 572.08 L393.76 571.38 L393.79 569.83 L393.86 568.27 L396.26 565.27 L397.71 562.94 L394.90 563.23 L390.29 564.52 L387.79 564.49 L387.18 563.34 L387.54 561.67 L387.11 560.45 L389.55 557.72 L391.90 555.13 L389.74 554.85 L385.75 555.41 L382.33 555.63 L380.40 555.08 L381.38 553.20 L381.43 551.76 L382.37 549.96 L386.27 546.96 L384.99 546.15 L380.45 546.59 L376.91 546.56 L375.56 545.65 L375.84 544.14 L375.71 542.79 L377.01 540.97 L381.31 538.23 L379.63 537.44 L375.82 537.27 L371.23 537.25 L369.47 536.35 L368.95 535.08 L369.44 533.56 L370.71 531.86 L374.22 529.66 L374.95 528.17 L372.93 527.30 L369.62 526.64 L366.72 525.85 L366.35 524.54 L366.58 523.12 L366.58 521.75 L370.29 519.81 L373.14 518.08 L370.99 517.08 L367.10 516.24 L365.20 515.11 L364.01 513.86 L364.73 512.42 L363.85 511.13 L367.14 509.53 L369.93 508.02 L368.13 506.81 L364.56 505.64 L361.85 504.37 L360.28 503.02 L361.41 501.61 L361.65 500.22 L365.13 498.87 L369.67 497.60 L369.08 496.28 L366.50 494.87 L362.94 493.36 L362.11 491.94 L361.78 490.53 L360.77 489.06 L363.43 487.89 L367.43 486.91 L366.67 485.49 L364.66 483.90 L360.57 482.00 L358.90 480.34 L358.89 478.90 L359.85 477.61 L361.75 476.49 L365.28 475.71 L367.22 474.68 L365.55 472.97 L361.59 470.73 L359.98 468.92 L359.66 467.38 L360.12 466.00 L360.89 464.72 L364.87 464.28 L367.46 463.55 L366.15 461.74 L363.38 459.47 L361.83 457.50 L361.34 455.83 L363.81 455.11 L363.89 453.62 L367.02 453.20 L371.18 453.21 L370.14 451.35 L366.65 448.52 L365.05 446.35 L364.51 444.56 L366.21 443.69 L366.33 442.15 L369.21 441.84 L374.37 442.63 L373.55 440.72 L370.97 437.93 L368.59 435.16 L368.68 433.55 L369.61 432.38 L370.87 431.39 L373.15 430.96 L377.69 431.84 L378.34 430.60 L375.92 427.57 L373.61 424.51 L372.95 422.38 L373.64 421.06 L375.29 420.35 L377.54 420.05 L381.89 421.19 L383.73 420.73 L382.35 418.05 L379.80 414.47 L378.58 411.77 L378.80 410.06 L380.58 409.51 L381.76 408.53 L385.87 409.87 L389.03 410.55 L388.51 408.28 L386.79 404.95 L385.70 402.07 L386.02 400.35 L388.31 400.37 L389.14 399.10 L391.88 399.60 L395.83 401.31 L395.91 399.39 L393.81 395.28 L393.01 392.36 L393.27 390.45 L394.71 389.74 L396.15 389.06 L398.90 389.80 L403.43 392.61 L403.80 390.84 L402.67 387.31 L401.23 383.30 L401.39 381.11 L402.74 380.31 L404.20 379.67 L406.22 379.76 L410.11 382.34 L411.56 381.81 L410.77 378.23 L409.88 374.39 L410.30 372.31 L411.56 371.39 L413.50 371.48 L415.69 371.98 L418.84 374.05 L420.77 374.29 L420.51 371.04 L419.68 366.73 L419.66 363.64 L420.45 361.83 L422.63 362.46 L424.22 362.06 L427.19 364.28 L430.03 366.39 L430.53 364.05 L430.31 360.18 L430.63 357.26 L431.52 355.44 L433.88 356.73 L434.94 355.24 L437.39 356.87 L440.55 360.33 L441.54 358.74 L441.90 355.54 L442.18 351.98 L443.36 350.60 L445.36 351.43 L446.49 349.88 L448.27 350.15 L451.18 353.84 L452.64 353.36 L453.40 350.62 L453.85 346.69 L455.29 345.89 L456.87 345.60 L458.07 343.90 L459.76 343.98 L462.37 347.80 L463.96 347.71 L465.41 347.01 L466.25 343.50 L467.22 340.26 L469.03 341.02 L470.49 340.01 L472.00 339.20 L474.07 341.70 L475.91 343.16 L477.39 342.25 L478.53 338.78 L479.87 336.36 L481.51 336.13 L483.24 336.86 L484.77 335.58 L486.69 338.81 L488.48 341.20 L489.99 339.76 L491.45 337.00 L492.94 333.57 L494.59 332.90 L496.29 334.29 L497.92 332.51 L499.61 335.02 L501.23 338.99 L502.85 338.40 L504.54 335.79 L506.29 332.82 L508.01 331.90 L509.62 333.15 L511.40 331.62 L512.97 333.16 L514.31 337.13 L515.95 337.07 L517.81 335.12 L519.95 331.14 L521.64 331.34 L523.27 331.94 L525.03 331.67 L526.51 333.22 L527.50 337.44 L529.08 338.02 L530.86 337.43 L533.22 334.11 L535.35 332.18 L536.90 333.12 L538.59 333.41 L540.57 332.48 L541.47 335.97 L542.37 339.20 L544.47 337.80 L546.95 335.24 L549.18 333.75 L551.06 333.54 L552.63 334.35 L554.64 333.79 L555.46 336.81 L555.54 341.78 L557.52 341.25 L560.12 339.12 L562.30 338.24 L564.46 337.48 L565.86 338.67 L568.17 337.67 L569.01 340.19 L569.14 344.17 L570.82 344.61 L572.78 344.45 L576.06 341.58 L578.07 341.47 L578.73 344.08 L580.68 344.11 L582.02 345.33 L580.90 351.07 L582.11 352.39 L584.95 350.81 L587.86 349.22 L590.18 348.73 L591.67 349.69 L592.90 351.04 L594.21 352.24 L592.86 357.53 L593.80 359.18 L596.62 358.04 L599.95 356.26 L602.75 355.35 L604.25 356.30 L605.66 357.38 L607.58 357.79 L606.53 362.06 L606.19 365.30 L608.67 364.96 L611.66 364.04 L615.08 362.71 L616.39 363.93 L616.77 366.22 L619.22 366.14 L617.98 370.17 L616.98 373.83 L619.03 374.17 L622.84 372.71 L626.39 371.63 L628.69 371.88 L628.97 374.14 L630.68 375.00 L629.97 378.14 L627.81 382.55 L629.58 383.29 L633.06 382.54 L637.36 381.18 L638.64 382.47 L639.60 384.03 L641.57 384.77 L641.48 387.18 L639.01 391.40 L640.24 392.68 L642.85 392.94 L646.89 392.18 L649.16 392.80 L649.84 394.56 L651.01 395.98 L651.93 397.57 L649.44 401.41 L649.04 403.80 L651.52 404.33 L655.46 404.00 L657.98 404.61 L659.12 406.09 L658.79 408.41 L661.07 409.23 L658.45 412.78 L655.96 416.17 L658.27 416.96 L661.56 417.29 L665.43 417.38 L667.10 418.63 L666.51 420.96 L669.91 421.42 L668.59 424.07 L665.81 427.30 L667.17 428.69 L669.89 429.53 L673.60 430.02 L675.34 431.35 L674.85 433.55 L677.24 434.66 L675.48 437.30 L671.37 440.69 L673.16 442.00 L675.71 443.10 L679.36 443.89 L681.39 445.24 L681.77 447.10 L682.81 448.78 L681.52 451.09 L677.89 453.97 L677.58 455.94 L680.06 457.24 L684.07 458.22 L686.30 459.67 L687.25 461.42 L687.09 463.40 L687.52 465.26 L684.49 467.73 L682.87 469.89 L684.02 471.59 L688.62 472.81 L690.95 474.42 L690.90 476.36 L689.93 478.41 L691.92 480.13 L687.89 482.44 L685.34 484.55 L686.66 486.31 L689.79 487.99 L692.66 489.74 L693.71 491.63 L692.28 493.62 L693.12 495.52 L691.32 497.48 L686.12 499.41 L687.97 501.28 L690.81 503.21 L694.83 505.23 L695.85 507.21 L695.53 509.16 L694.96 511.09 L693.52 512.95 L688.78 514.53 L688.04 516.37 L690.82 518.53 L694.57 520.86 L696.09 523.01 L695.14 524.88 L694.48 526.78 L693.55 528.62 L688.36 529.78 L686.79 531.45 L688.43 533.67 L692.08 536.31 L694.45 538.77 L693.58 540.62 L692.97 542.51 L692.30 544.38 L688.13 545.40 L685.40 546.71 L686.90 549.08 L689.58 551.82 L692.60 554.72 L692.09 556.66 L690.82 558.36 L691.08 560.54 L686.97 561.30 L683.08 562.06 L684.34 564.55 L685.54 567.06 L688.33 570.20 L688.23 572.32 L686.50 573.80 L686.86 576.11 L684.31 577.24 L678.94 577.09 L679.38 579.42 L680.75 582.20 L683.33 585.60 L683.67 588.00 L681.51 589.21 L681.12 591.28 L678.75 592.33 L674.07 592.14 L673.19 593.90 L674.07 596.64 L676.85 600.51 L677.52 603.26 L676.19 604.85 L674.24 606.07 L672.55 607.42 L667.87 606.84 L665.95 607.97 L666.50 610.71 L668.51 614.50 L669.30 617.52 L668.12 619.22 L666.39 620.51 L665.77 622.61 L661.50 621.97 L658.16 621.94 L657.89 624.27 L659.60 628.22 L660.56 631.66 L658.85 632.94 L656.50 633.65 L656.64 636.50 L653.30 636.31 L648.96 635.15 L647.85 636.86 L649.20 640.91 L649.84 644.37 L648.32 645.79 L646.10 646.51 L645.93 649.30 L642.73 648.98 L637.07 645.96 L637.26 649.13 L636.76 651.60 L637.58 655.61 L637.06 658.18 L635.21 659.24 L634.60 661.77 L632.93 663.05 L628.32 660.65 L626.29 661.39 L625.73 664.03 L626.04 667.89 L625.41 670.57 L623.44 671.46 L621.82 672.83 L619.99 673.90 L615.96 671.71 L613.49 671.73 L612.69 674.29 L612.61 678.03 L612.03 681.11 L610.46 682.63 L608.22 683.02 L606.49 684.28 L602.81 682.10 L599.82 681.01 L598.40 682.73 L598.19 686.78 L597.81 690.66 L596.26 692.36 L593.50 691.60 L592.44 694.35 L589.54 693.21 L586.15 690.87 L584.36 692.01 L583.89 696.24 L583.12 699.94 L581.19 700.96 L578.93 701.13 L577.55 703.58 L574.68 702.10 L571.05 698.35 L569.48 700.24 L568.12 702.86 L567.33 707.35 L565.36 708.34 L563.23 708.84 L561.11 709.37 L558.91 709.60 L555.58 705.64 L553.36 705.56 L552.25 709.90 L550.95 713.77 L549.16 715.81 L547.03 716.41 L544.83 716.71 L542.55 716.57 L539.76 713.67 L537.18 711.52 L535.50 714.53 L533.82 717.90 L532.03 720.92 L529.79 721.02 L527.53 720.95 L525.37 721.64 L522.78 718.24 L520.31 715.47 L518.41 718.65 L516.34 720.40 L514.36 724.15 L512.13 724.57 L509.83 723.40 L507.60 723.57 L505.33 722.31 L503.05 718.45 L500.87 719.09 L498.66 722.31 L496.38 725.97 L494.10 726.82 L491.86 725.93 L489.55 726.86 L487.33 725.94 L485.40 720.84 L483.17 720.96 L480.74 723.36 L478.19 726.41 L475.82 727.24 L473.60 726.53 L471.20 727.30 L468.94 726.92 L467.24 722.73 L465.11 721.81 L462.64 722.95 L459.80 726.02 L457.27 727.08 L455.29 725.14 L452.96 725.10 L450.54 725.41 L449.13 721.24 L447.44 718.56 L444.65 720.44 L441.57 723.21 L439.07 723.61 L436.91 722.74 L434.73 721.96 L432.28 722.05 L430.99 718.41 L429.56 715.42 L427.00 715.93 L424.01 717.57 L420.83 719.60 L418.84 718.24 L417.27 715.85 L414.45 716.70 L413.21 713.56 L412.56 709.14 L410.02 709.31 L406.85 710.84 L403.53 712.58 L401.52 711.37 L399.73 709.70 L397.48 709.02 L395.94 706.89 L396.09 701.54 L394.15 700.37 L391.46 700.57 L387.75 702.57 L384.99 702.74 L383.47 700.72 L381.24 699.93 L378.87 699.34 L378.98 694.75 L377.56 692.70 L374.66 692.97 L370.97 694.38 L367.66 695.11 L366.26 692.99 L364.56 691.32 L361.76 691.19 L361.50 687.57 L361.05 684.30 L358.10 684.35 L354.80 684.78 L351.18 685.54 L350.38 682.76 L349.23 680.45 L346.26 680.31 L346.54 676.38 L346.47 672.93 L343.87 672.36 L339.93 673.20 L336.08 673.84 L334.57 671.97 L334.14 669.00 L331.15 668.64 L330.97 665.48 L332.00 661.21 L330.24 659.67 L326.59 659.86 L322.20 660.65 L320.68 658.80 L319.61 656.56 L317.22 655.45 L317.03 652.49 L318.63 648.10 L317.03 646.39 L314.15 645.67 L309.50 646.26 L306.89 645.22 L305.48 643.26 L303.60 641.64 L302.14 639.70 L304.26 635.29 L303.55 632.90 L301.58 631.36 L297.22 631.35 L294.68 630.10 L293.12 628.20 L291.05 626.61 L288.90 625.04 L289.69 621.75 L290.99 618.23 L288.52 616.85 L285.57 615.69 L282.11 614.76 L280.91 612.61 L280.28 610.17 L278.38 608.36 L279.95 604.88 L281.52 601.47 L280.08 599.47 L277.64 597.91 L273.36 597.10 L272.04 594.98 L272.69 592.05 L270.24 590.38 L270.76 587.54 L273.73 583.82 L271.61 582.02 L269.19 580.29 L264.35 579.34 L262.68 577.27 L263.38 574.44 L261.22 572.50 L260.91 569.99 L264.77 566.31 L264.19 563.94 L262.03 561.98 L258.89 560.23 L256.47 558.25 L256.66 555.64 L255.05 553.43 L254.20 551.05 L256.98 547.94 L257.68 545.29 L255.79 543.12 L252.51 541.15 L250.13 538.99 L249.97 536.45 L249.53 533.96 L248.29 531.57 L250.78 528.73 L252.49 526.03 L251.73 523.60 L248.61 521.36 L245.48 519.07 L246.18 516.46 L246.94 513.88 L245.35 511.41 L248.02 508.77 L251.07 506.17 L250.15 503.69 L248.33 501.20 L245.20 498.67 L245.02 496.12 L245.71 493.58 L244.77 491.01 L247.02 488.55 L250.67 486.22 L250.05 483.67 L248.55 481.05 L245.08 478.22 L245.25 475.67 L246.53 473.23 L246.36 470.64 L247.50 468.22 L251.59 466.20 L251.50 463.66 L250.67 460.99 L246.98 457.81 L246.25 455.08 L247.87 452.76 L247.73 450.12 L248.64 447.68 L252.22 445.83 L254.12 443.67 L253.39 440.90 L250.47 437.55 L249.38 434.61 L250.80 432.31 L252.92 430.23 L252.05 427.30 L255.55 425.66 L258.40 423.88 L257.49 420.92 L256.30 417.83 L253.70 414.20 L254.45 411.69 L257.04 409.87 L257.00 407.08 L259.70 405.35 L264.01 404.31 L264.27 401.66 L263.03 398.35 L260.74 394.52 L261.58 392.03 L263.88 390.22 L263.42 387.11 L266.09 385.50 L271.03 385.06 L271.01 382.17 L270.31 378.89 L268.08 374.74 L269.08 372.28 L270.57 370.09 L271.46 367.56 L274.30 366.17 L278.43 365.61 L280.29 363.71 L280.88 361.02 L278.63 356.47 L279.19 353.68 L281.16 351.81 L283.38 350.13 L284.54 347.73 L288.70 347.48 L291.74 346.48 L292.20 343.59 L290.40 338.93 L290.99 336.03 L292.21 333.61 L294.83 332.31 L295.27 329.22 L299.45 329.28 L303.23 329.08 L304.36 326.59 L303.49 322.28 L303.52 318.70 L304.63 316.08 L306.28 313.95 L307.57 311.45 L310.62 310.69 L315.27 311.61 L317.18 309.79 L317.21 305.97 L317.55 302.40 L319.13 300.14 L321.76 299.04 L322.95 296.32 L326.01 295.75 L330.91 297.44 L332.37 295.05 L333.12 291.76 L332.73 286.94 L334.10 284.28 L336.96 283.55 L338.98 281.72 L341.18 280.13 L345.47 281.50 L348.05 280.54 L349.42 277.79 L349.99 273.80 L351.11 270.53 L354.17 270.25 L356.37 268.63 L358.38 266.70 L362.22 267.83 L365.82 268.65 L366.91 265.15 L368.52 262.48 L369.25 258.12 L371.96 257.37 L374.80 256.90 L376.64 254.47 L380.09 255.26 L384.20 257.55 L385.65 254.28 L387.21 251.16 L388.37 247.04 L390.64 245.30 L393.51 244.99 L395.46 242.45 L398.72 243.13 L402.60 245.55 L404.67 243.30 L406.82 241.18 L408.44 237.46 L410.65 235.33 L413.61 235.39 L415.96 233.58 L418.94 233.80 L422.70 236.70 L425.21 235.50 L427.60 233.83 L429.24 229.18 L431.95 228.48 L434.62 227.63 L437.35 227.00 L440.17 226.77 L443.64 229.70 L446.44 229.62 L449.09 228.81 L451.10 224.36 L453.76 223.30 L456.72 224.05 L459.39 223.01 L462.07 221.92 L465.30 225.13 L468.19 225.96 L470.82 224.64 L473.25 220.98 L475.87 218.72 L478.70 218.71 L481.62 220.19 L484.32 218.08 L487.25 220.50 L490.16 223.41 L492.91 222.80 L495.63 219.55 L498.42 217.01 L501.25 216.92 L504.07 217.74 L506.94 216.11 L509.70 218.23 L512.35 222.25 L515.22 220.65 L518.08 219.79 L521.15 216.37 L524.10 215.18 L526.75 217.51 L529.64 217.21 L532.53 216.97 L534.79 221.82 L537.50 222.75 L540.60 220.86 L543.88 218.13 L546.85 217.62 L549.38 219.80 L552.26 219.88 L555.05 220.44 L557.08 224.68 L559.72 225.79 L562.70 225.31 L566.25 222.57 L569.54 221.20 L572.25 222.19 L574.70 224.11 L577.61 224.33 L579.54 227.92 L581.67 230.66 L584.35 231.55 L588.25 228.65 L591.80 227.05 L594.46 228.15 L596.34 231.42 L599.62 230.80 L601.38 234.23 L602.63 238.83 L605.55 239.11 L609.50 236.92 L613.52 234.79 L616.40 235.41 L618.85 237.00 L622.17 236.70 L623.66 240.32 L624.44 245.27 L627.51 245.47 L630.60 245.69 L635.34 242.82 L638.03 243.95 L640.44 245.61 L643.35 246.36 L645.83 247.89 L646.20 252.99 L648.37 254.94 L652.45 253.80 L656.48 252.84 L660.14 252.57 L662.02 255.08 L664.34 256.89 L666.23 259.32 L666.80 263.58 L667.60 267.42 L670.49 268.33 L674.63 267.61 L678.95 266.75 L681.11 268.77 L682.99 271.11 L686.07 271.98 L686.39 276.18 L686.72 280.30 L689.65 281.32 L693.40 281.45 L698.44 280.22 L699.96 282.94 L701.26 285.88 L703.94 287.32 L704.72 290.73 L703.85 295.76 L706.86 296.84 L710.60 297.26 L715.37 296.79 L718.29 298.11 L719.67 300.88 L722.37 302.45 L723.40 305.49 L721.40 311.09 L723.85 312.83 L727.19 313.87 L731.74 313.99 L734.88 315.30 L736.27 318.00 L738.70 319.90 L739.91 322.73 L738.21 327.64 L739.42 330.39 L742.27 331.98 L746.62 332.59 L750.32 333.71 L751.09 336.79 L752.49 339.45 L753.73 342.20 L751.88 346.83 L751.25 350.63 L754.52 352.11 L758.54 353.21 L762.44 354.45 L764.23 356.89 L764.27 360.27 L766.22 362.63 L765.25 366.47 L763.48 370.65 L765.46 372.95 L769.73 374.21 L774.38 375.37 L775.96 377.97 L775.89 381.28 L778.40 383.49 L777.56 387.08 L774.59 391.48 L776.55 393.89 L779.79 395.84 L784.60 397.28 L786.10 399.96 L786.03 403.18 L788.43 405.58 L788.40 408.77 L784.47 413.13 L785.34 415.98 L788.88 418.06 L793.26 419.98 L794.35 422.84 L795.13 425.78 L796.13 428.67 L796.13 431.80 L792.16 435.78 L791.66 438.94 L793.96 441.52 L797.56 443.89 L800.97 446.36 L801.45 449.38 L801.63 452.45 L803.12 455.31 L800.48 458.77 L797.88 462.16 L800.04 464.93 L803.75 467.57 L806.34 470.39 L807.11 473.41 L806.26 476.56 L808.33 479.51 L805.58 482.76 L801.59 486.00 L803.76 488.95 L806.91 491.90 L809.37 494.93 L810.25 498.02 L809.13 501.12 L810.14 504.23 L807.65 507.27 L803.20 510.20 L803.73 513.26 L806.80 516.47 L810.13 519.76 L810.80 522.93 L809.83 525.97 L810.12 529.12 L808.19 532.05 L803.76 534.67 L803.33 537.69 L805.28 541.04 L808.74 544.65 L809.55 547.93 L809.09 551.03 L809.00 554.20 L807.45 557.10 L803.06 559.43 L801.05 562.16 L802.66 565.66 L805.20 569.41 L805.75 572.76 L805.05 575.83 L803.71 578.72 L803.45 581.90 L798.78 583.86 L795.77 586.21 L797.20 589.87 L798.89 593.65 L800.81 597.56 L800.24 600.71 L797.81 603.22 L797.92 606.61 L793.71 608.42 L788.62 609.83 L789.77 613.60 L791.34 617.59 L792.72 621.57 L792.17 624.78 L789.55 627.10 L788.57 630.12 L785.19 632.05 L779.01 632.59 L778.48 635.77 L779.55 639.77 L781.46 644.26 L781.74 647.98 L779.69 650.49 L778.36 653.38 L775.62 655.49 L770.09 655.95 L768.93 658.88 L769.10 662.64 L771.05 667.54 L771.36 671.50 L769.78 674.31 L766.86 676.22 L764.56 678.53 L758.78 678.42 L756.06 680.35 L756.20 684.31 L757.29 689.03 L757.55 693.22 L755.62 695.79 L753.01 697.84 L751.34 700.61 L745.93 700.36 L742.21 701.38 L741.79 705.16 L742.25 709.75 L742.63 714.37 L740.58 716.87 L737.14 718.12 L735.60 721.08 L730.58 720.75 L726.40 721.14 L725.06 724.27 L725.17 728.91 L725.79 734.17 L724.40 737.44 L721.25 738.85 L718.97 741.19 L714.48 741.04 L708.95 739.60 L707.17 742.41 L706.79 746.93 L706.89 752.13 L704.54 754.41 L702.26 756.78 L699.68 758.79 L696.17 759.58 L690.69 757.64 L687.84 759.16 L686.91 763.39 L686.05 767.80 L684.47 771.29 L682.00 773.50 L678.96 774.85 L676.20 776.62 L671.54 775.34 L667.82 775.47 L665.87 778.50 L665.06 783.56 L663.02 786.60 L660.11 788.14 L656.80 788.97 L653.99 790.68 L649.45 789.06 L645.04 787.54 L642.63 789.94 L641.23 794.49 L639.71 798.96 L636.87 800.69 L633.45 801.12 L631.37 804.62 L627.33 803.56 L622.50 800.43 L620.03 803.00 L618.11 807.10 L615.88 810.54 L613.05 812.45 L609.93 813.58 L607.29 816.16 L603.43 815.09 L598.71 811.18 L595.98 813.43 L593.51 816.62 L591.11 820.25 L588.23 822.36 L584.94 822.99 L581.93 824.71 L578.32 824.01 L574.09 820.52 L570.68 820.33 L568.00 823.54 L565.40 827.38 L562.38 829.40 L559.09 830.05 L555.84 830.90 L552.45 830.97 L548.68 828.38 L545.10 826.71 L542.04 828.77 L539.20 833.03 L536.08 835.37 L532.74 835.85 L529.30 835.24 L526.05 836.91 L522.43 833.41 L518.92 830.52 L515.69 832.42 L512.48 835.51 L509.18 837.93 L505.81 838.56 L502.42 837.37 L499.04 838.00 L495.70 835.40 L492.43 831.35 L489.06 833.15 L485.61 835.72 L482.05 839.51 L478.59 840.32 L475.23 839.50 L471.85 839.07 L468.64 836.84 L465.80 831.39 L462.38 832.04 L458.75 834.16 L454.97 837.03 L451.33 838.40 L447.99 837.65 L444.74 836.35 L441.50 835.10 L439.10 829.40 L435.98 827.88 L432.13 830.01 L428.03 833.02 L424.31 834.02 L420.88 833.65 L417.72 832.14 L414.51 830.90 L412.33 825.84 L409.50 823.45 L405.60 824.82 L401.23 827.61 L396.96 829.79 L393.83 828.23 L390.97 825.91 L387.74 824.74 L385.89 819.70 L383.56 816.19 L379.68 816.93 L375.30 818.81 L370.79 820.87 L367.33 820.18 L364.75 817.40 L361.34 816.57 L359.27 812.75 L357.71 807.96 L353.72 808.45 L349.37 809.59 L344.70 811.24 L341.19 810.45 L338.54 808.00 L335.61 806.11 L333.80 802.20 L332.89 796.77 L328.91 796.85 L324.49 797.61 L319.31 799.51 L315.72 798.66 L313.03 796.36 L310.47 793.86 L308.55 790.41 L308.15 784.79 L305.44 782.66 L301.10 782.87 L296.34 783.57 L292.30 783.17 L289.31 781.31 L286.89 778.68 L284.54 776.00 L284.53 770.40 L282.88 766.94 L278.68 766.62 L273.89 766.91 L269.70 766.41 L266.57 764.64 L264.82 761.30 L261.46 759.76 L261.17 754.91 L260.75 750.30 L256.89 749.30 L251.89 749.39 L247.67 748.61 L245.04 746.22 L243.51 742.79 L240.37 740.88 L240.53 735.95 L241.89 730.04 L238.29 728.59 L234.04 727.66 L229.26 727.10 L226.35 724.91 L223.79 722.43 L220.86 720.22 L219.92 716.46 L221.58 710.76 L218.83 708.46 L214.80 707.05 L209.91 706.20 L206.81 704.03 L204.56 701.24 L202.10 698.58 L201.21 694.89 L202.97 689.53 L201.21 686.48 L197.60 684.56 L193.32 682.98 L190.14 680.71 L187.85 677.88 L186.39 674.59 L185.27 671.11 L186.61 666.34 L186.40 662.45 L183.45 659.99 L178.47 658.49 L174.89 656.23 L173.26 653.01 L172.85 649.23 L170.92 646.15 L172.15 641.70 L174.38 636.89 L171.75 634.15 L166.26 632.51 L162.92 629.95 L161.41 626.66 L160.66 623.09 L157.87 620.24 L159.80 615.75 L162.77 610.99 L160.40 608.02 L156.89 605.37 L152.61 602.89 L151.26 599.51 L150.66 595.92 L150.01 592.34 L151.08 588.34 L154.65 583.77 L152.99 580.50 L149.06 577.73 L144.97 574.92 L142.28 571.76 L141.20 568.25 L141.84 564.42 L142.58 560.60 L146.55 556.30 L146.81 552.64 L143.95 549.44 L139.85 546.34 L136.71 543.06 L136.10 539.44 L137.13 535.66 L136.40 532.07 L140.90 528.05 L143.22 524.29 L140.47 520.86 L136.93 517.43 L133.88 513.91 L133.00 510.27 L134.35 506.57 L133.89 502.92 L137.00 499.26 L140.08 495.67 L137.83 492.02 L135.09 488.31 L131.74 484.51 L130.70 480.77 L131.97 477.14 L132.98 473.52 L135.67 470.04 L140.65 466.83 L139.69 463.11 L137.06 459.17 L133.63 455.07 L132.91 451.25 L134.11 447.68 L134.48 444.00 L136.51 440.58 L141.86 437.77 L141.91 434.09 L139.71 429.95 L136.76 425.60 L136.14 421.67 L136.78 418.00 L138.98 414.69 L141.14 411.41 L145.80 408.79 L147.55 405.47 L145.92 401.23 L143.19 396.61 L141.69 392.28 L141.91 388.43 L144.58 385.35 L146.00 381.89 L150.84 379.61 L154.74 377.08 L154.22 372.98 L152.58 368.42 L151.24 363.91 L151.43 359.95 L154.05 356.97 L155.00 353.31 L159.47 351.17 L164.33 349.28 L164.42 345.27 L163.36 340.68 L162.14 335.94 L163.07 332.22 L164.63 328.79 L165.41 324.94 L169.59 322.90 L175.18 321.69 L175.67 317.72 L175.09 313.09 L174.17 308.20 L175.85 304.80 L177.89 301.61 L179.91 298.41 L183.27 296.07 L189.48 295.65 L192.30 293.07 L192.92 288.99 L192.05 283.83 L192.72 279.68 L194.53 276.32 L196.50 273.07 L198.48 269.81 L203.96 269.27 L207.89 267.60 L208.43 263.24 L208.04 258.04 L208.90 253.80 L210.87 250.46 L214.13 248.24 L216.04 244.83 L221.06 244.26 L226.37 244.05 L227.40 239.85 L227.52 234.71 L228.79 230.61 L230.84 227.24 L234.14 225.14 L236.35 221.92 L241.47 221.80 L246.58 221.77 L248.79 218.59 L249.48 213.65 L250.06 208.49 L252.47 205.38 L255.82 203.39 L258.55 200.66 L262.80 199.84 L268.61 201.09 L271.45 198.58 L272.44 193.57 L273.34 188.32 L276.26 185.77 L279.25 183.31 L282.20 180.79 L285.93 179.42 L291.41 180.77 L294.98 179.27 L296.95 175.23 L298.42 170.30 L301.32 167.61 L304.52 165.42 L308.39 164.38 L312.06 163.02 L317.39 164.75 L321.54 164.41 L323.92 160.76 L325.76 155.94 L327.87 151.48 L330.99 149.01 L335.34 149.12 L338.67 147.08 L343.70 148.83 L348.60 150.48 L351.21 146.86 L353.37 142.03 L355.72 137.47 L359.25 135.77 L363.31 135.48 L366.91 133.98 L371.46 135.19 L376.66 138.44 L379.77 135.69 L382.60 131.91 L385.25 127.41 L388.59 124.96 L392.60 124.77 L396.36 123.72 L400.51 124.14 L405.41 127.64 L408.93 125.86 L412.14 122.64 L415.03 117.79 L418.40 114.83 L422.35 114.47 L426.38 114.62 L430.45 115.11 L435.15 119.39 L438.99 118.95 L442.47 116.10 L445.83 112.13 L449.40 109.17 L453.26 108.28 L457.23 108.29 L461.17 108.08 L465.50 112.32 L469.52 113.74 L473.23 111.26 L476.91 107.57 L480.70 104.51 L484.64 103.86 L488.65 105.44 L492.59 105.11 L496.57 108.63 L500.48 111.31 L504.39 109.71 L508.37 106.14 L512.43 102.32 L516.47 100.83 L520.40 102.26 L524.39 102.30 L528.13 105.87 L531.71 110.58 L535.69 109.88 L539.90 107.20 L544.25 103.90 L548.19 104.47 L552.06 105.61 L556.17 104.98 L559.73 108.07 L562.82 113.79 L566.85 113.46 L571.26 111.14 L575.70 108.98 L579.97 108.00 L583.99 108.34 L587.85 109.41 L591.58 111.03 L594.51 115.84 L598.22 117.33 L602.65 116.06 L607.40 113.80 L611.76 113.16 L615.67 114.14 L619.20 116.35 L623.15 117.19 L625.47 122.95 L628.13 127.43 L632.50 126.91 L637.36 125.15 L642.06 124.00 L645.93 125.13 L649.39 127.32 L654.02 126.63 L656.36 131.45 L658.49 136.58 L662.97 136.28 L667.71 135.51 L672.60 134.54 L676.73 135.29 L680.28 137.25 L684.52 137.85 L686.91 142.07 L688.04 148.51 L692.39 148.88 L697.32 148.27 L701.95 148.30 L706.20 149.08 L709.58 151.34 L713.44 152.84 L715.78 156.78 L716.85 162.60 L720.20 164.82 L725.14 164.65 L730.29 164.27 L734.42 165.49 L738.02 167.47 L740.86 170.52 L743.34 174.02 L744.56 179.12 L746.79 182.83 L750.77 184.28 L756.68 183.38 L761.22 184.29 L764.40 186.89 L767.09 190.04 L770.83 191.98 L771.49 197.39 L772.63 202.16 L776.55 203.88 L781.35 204.72 L785.72 206.07 L789.33 208.25 L790.73 212.65 L794.38 214.80 L795.32 219.56 L795.17 225.27 L799.63 226.66 L804.51 227.74 L810.04 228.32 L813.58 230.71 L815.72 234.31 L818.26 237.57 L819.29 242.04 L818.22 248.12 L821.99 250.33 L826.58 251.96 L831.81 253.18 L835.98 255.26 L838.14 258.83 L839.93 262.64 L841.48 266.60 L839.99 272.57 L841.02 276.79 L845.62 278.69 L850.95 280.19 L854.07 283.13 L856.74 286.37 L858.58 290.11 L860.22 293.96 L858.39 299.74 L858.86 304.16 L863.00 306.59 L867.89 308.68 L872.38 311.05 L874.54 314.64 L875.96 318.60 L878.37 322.07 L876.43 327.56 L875.83 332.37 L879.13 335.42 L883.11 338.22 L887.30 341.00 L889.75 344.53 L890.04 348.92 L892.58 352.43 L891.92 357.13 L889.77 362.32 L892.51 365.75 L896.76 368.71 L900.74 371.83 L903.00 375.53 L903.82 379.69 L904.95 383.75 L904.00 388.38 L901.26 393.45 L903.60 397.14 L906.68 400.67 L911.47 403.85 L913.93 407.63 L914.76 411.79 L915.12 416.04 L914.84 420.41 L912.02 425.21 L911.66 429.52 L914.85 433.24 L917.99 437.02 L921.70 440.76 L926.25 444.47 L930.58 448.28 L933.03 452.37 L933.71 456.68 L933.31 461.09 L934.23 465.38 L935.86 469.63 L936.16 473.99 L937.52 478.30 L939.91 482.59 L940.51 486.98 L940.79 491.38 L941.04 495.79 L942.02 500.00 L941.82 495.58 L941.57 491.17 L941.28 486.76 L941.49 482.33 L942.43 477.86 L942.75 473.40 L942.59 468.97 L942.91 464.49 L942.88 460.03 L941.66 455.69 L941.22 451.27 L942.24 446.68 L944.89 441.84 L947.71 436.91 L949.22 432.11 L951.13 427.20 L952.97 422.24 L950.09 418.10 L945.44 414.33 L943.51 410.10 L941.49 405.90 L939.72 401.67 L940.57 396.84 L942.88 391.62 L943.67 386.71 L942.70 382.23 L937.70 378.86 L934.25 375.13 L932.31 370.99 L930.33 366.88 L930.49 362.10 L931.09 357.14 L932.09 352.00 L931.41 347.40 L925.76 344.59 L921.25 341.44 L920.07 337.07 L917.57 333.22 L916.21 328.92 L916.35 323.97 L916.91 318.80 L915.65 314.38 L910.82 311.59 L905.71 309.00 L903.75 304.97 L900.77 301.44 L899.16 297.24 L899.29 292.12 L899.93 286.68 L898.78 282.15 L894.98 279.06 L889.13 277.20 L885.99 273.84 L883.21 270.29 L881.17 266.30 L879.59 262.02 L880.16 256.33 L879.61 251.29 L875.27 248.74 L869.25 247.38 L865.84 244.31 L862.41 241.27 L859.11 238.17 L858.20 233.30 L857.85 227.96 L857.20 222.78 L854.80 218.91 L848.32 218.33 L843.62 216.40 L840.10 213.54 L836.13 211.09 L834.14 206.94 L833.64 201.42 L832.41 196.48 L830.21 192.38 L824.17 191.89 L818.98 190.70 L815.94 187.45 L811.20 185.92 L808.54 182.32 L806.64 177.89 L805.23 172.89 L802.72 169.00 L797.15 168.49 L791.58 168.08 L788.64 164.73 L784.16 163.18 L780.51 160.68 L778.47 156.20 L777.08 150.83 L774.43 146.98 L769.73 145.78 L764.07 145.92 L759.84 144.21 L755.78 142.33 L751.70 140.48 L748.42 137.51 L746.61 132.31 L744.02 128.20 L739.76 126.60 L733.93 127.54 L729.27 126.71 L725.81 123.97 L721.67 122.36 L718.10 119.78 L715.75 115.01 L713.01 110.82 L709.25 108.45 L703.16 110.52 L698.13 110.72 L694.51 108.18 L690.23 106.98 L686.31 105.06 L683.40 100.94 L680.25 97.24 L676.79 94.12 L671.07 96.27 L665.78 97.61 L662.70 93.59 L658.16 93.18 L654.06 91.70 L650.76 88.02 L647.53 83.99 L643.73 81.46 L638.43 83.39 L632.85 86.39 L628.92 84.41 L624.28 84.74 L620.07 83.71 L616.32 81.00 L612.72 77.64 L608.98 74.63 L604.48 74.52 L599.23 77.72 L594.84 77.46 L590.58 76.69 L586.21 76.47 L582.15 74.70 L578.44 70.87 L574.52 67.94 L570.11 67.74 L565.06 71.81 L560.53 72.92 L556.30 71.99 L551.94 72.11 L547.59 72.22 L543.63 68.57 L539.56 65.52 L535.26 64.56 L530.55 69.24 L526.07 71.80 L521.78 71.61 L517.43 72.98 L513.19 71.79 L508.98 68.39 L504.69 65.46 L500.35 65.12 L496.02 67.96 L491.77 71.33 L487.49 71.75 L483.27 73.45 L478.97 73.00 L474.57 70.95 L470.10 68.58 L465.69 67.66 L461.56 70.18 L457.70 74.96 L453.52 76.06 L449.32 76.86 L445.08 77.28 L440.60 76.07 L435.91 73.66 L431.41 72.79 L427.41 75.07 L423.97 80.27 L420.04 82.42 L416.15 84.65 L412.02 85.62 L407.49 84.76 L402.51 82.13 L397.94 81.49 L393.72 82.38 L390.70 87.81 L387.13 90.92 L383.14 92.40 L379.40 94.69 L375.08 95.02 L370.07 93.26 L365.19 92.10 L361.18 93.67 L358.56 99.15 L355.33 102.69 L351.51 104.55 L348.08 107.39 L343.97 108.46 L339.08 107.62 L333.91 106.29 L329.36 106.53 L326.98 111.73 L324.63 116.82 L320.85 118.67 L317.90 122.27 L313.89 123.61 L309.18 123.61 L304.07 122.92 L299.73 123.80 L296.85 127.44 L295.23 133.23 L291.89 135.85 L288.67 138.66 L285.18 140.98 L281.15 142.41 L276.05 142.17 L271.41 142.74 L268.72 146.37 L267.37 151.97 L264.64 155.39 L261.00 157.47 L258.19 160.72 L254.24 162.37 L249.13 162.50 L244.31 163.10 L241.05 165.80 L240.66 172.12 L238.75 176.41 L235.35 178.82 L232.83 182.29 L229.87 185.21 L224.66 185.56 L219.74 186.33 L216.42 188.93 L216.08 194.75 L214.95 199.61 L211.55 202.05 L209.60 205.98 L206.53 208.75 L202.13 210.24 L197.05 211.15 L193.27 213.34 L193.15 218.92 L192.62 224.04 L189.21 226.54 L187.80 230.79 L185.30 234.08 L181.55 236.32 L176.67 237.68 L172.62 239.78 L171.95 244.56 L172.71 250.37 L169.41 253.04 L166.98 256.38 L164.78 259.88 L161.00 262.26 L156.42 264.14 L153.23 267.02 L151.83 271.10 L153.86 277.35 L153.10 281.74 L151.26 285.42 L149.64 289.22 L146.72 292.25 L142.85 294.75 L138.49 297.03 L135.43 300.08 L137.62 305.97 L138.30 310.96 L135.56 314.14 L134.52 318.20 L132.59 321.80 L128.37 324.32 L124.76 327.18 L122.36 330.63 L124.27 335.98 L125.44 340.93 L123.63 344.59 L123.16 348.79 L121.15 352.36 L117.12 355.19 L113.13 358.08 L110.74 361.61 L112.70 366.65 L114.75 371.65 L113.84 375.63 L113.97 379.91 L112.55 383.71 L109.24 386.96 L104.83 389.96 L101.59 393.34 L102.56 397.84 L105.36 402.76 L105.63 407.00 L106.10 411.26 L104.97 415.15 L102.79 418.82 L99.31 422.28 L96.41 425.89 L96.11 430.01 L100.51 434.88 L101.77 439.16 L100.97 443.12 L101.25 447.22 L99.94 451.11 L95.83 454.71 L92.66 458.47 L91.94 462.52 L96.50 467.00 L98.20 471.18 L98.59 475.24 L100.11 479.35 L99.04 483.31 L95.55 487.22 L93.71 491.23 L92.00 495.27 L95.33 499.36 L99.22 503.37 L98.73 507.39 L100.60 511.35 L100.33 515.36 L98.13 519.47 L95.75 523.64 L94.29 527.80 L97.77 531.60 L102.16 535.26 L102.69 539.23 L104.93 543.00 L105.34 546.95 L103.37 551.21 L100.46 555.66 L99.39 559.89 L101.65 563.64 L106.43 566.91 L108.67 570.57 L110.80 574.21 L111.74 578.06 L110.85 582.30 L108.54 586.88 L107.16 591.32 L108.49 595.15 L113.73 597.98 L117.17 601.19 L118.78 604.85 L120.54 608.46 L121.09 612.41 L119.53 617.03 L118.86 621.42 L119.35 625.47 L124.81 627.84 L129.00 630.57 L129.23 634.67 L131.66 637.97 L133.32 641.55 L132.51 646.10 L130.71 651.11 L131.83 654.97 L137.32 656.94 L141.22 659.54 L142.10 663.45 L144.96 666.46 L147.81 669.44 L148.00 673.70 L146.52 678.85 L147.71 682.70 L151.86 684.98 L156.48 686.95 L158.58 690.26 L161.03 693.36 L163.35 696.53 L164.31 700.50 L163.85 705.36 L164.37 709.68 L167.59 712.32 L173.07 713.45 L176.11 716.12 L178.78 719.01 L181.37 721.94 L182.98 725.56 L183.00 730.36 L183.63 734.77 L185.69 738.15 L191.83 738.39 L195.34 740.58 L196.85 744.35 L199.63 747.10 L202.11 750.10 L202.10 755.23 L203.32 759.37 L205.11 763.06 L211.48 762.60 L216.61 763.17 L218.86 766.36 L223.13 767.62 L225.59 770.60 L227.05 774.60 L227.80 779.37 L229.38 783.37 L234.84 783.27 L239.73 783.68 L241.96 786.95 L245.99 788.22 L249.11 790.48 L250.68 794.57 L251.83 799.24 L253.85 802.91 L258.31 803.57 L263.91 802.71 L267.17 804.76 L270.69 806.45 L273.70 808.82 L275.90 812.33 L277.31 817.00 L279.40 820.80 L283.43 821.79 L288.98 820.41 L293.08 821.13 L296.94 822.17 L300.64 823.43 L303.26 826.44 L304.69 831.53 L306.72 835.71 L309.70 838.31 L315.39 836.01 L319.74 836.01 L323.34 837.37 L327.28 838.03 L330.37 840.33 L332.60 844.44 L334.95 848.43 L338.16 850.67 L343.26 848.74 L347.90 847.67 L351.26 849.48 L355.35 849.52 L358.67 851.41 L361.08 855.64 L363.71 859.47 L366.99 861.69 L371.63 860.17 L376.45 857.92 L380.23 858.53 L384.11 858.83 L387.66 860.11 L390.52 863.70 L393.30 867.74 L396.54 870.39 L400.76 869.50 L405.67 865.79 L409.56 865.77 L413.41 865.88 L417.06 866.77 L420.59 868.26 L423.55 872.56 L426.85 875.50 L431.00 874.09 L435.50 870.46 L439.31 870.42 L443.15 870.19 L446.91 870.33 L450.30 873.24 L453.69 876.50 L457.22 879.00 L460.99 879.65 L465.25 875.09 L469.21 872.91 L472.99 872.43 L476.74 872.28 L480.39 873.91 L484.02 876.87 L487.70 879.48 L491.49 880.16 L495.35 875.67 L499.11 872.56 L502.83 872.44 L506.53 871.02 L510.25 871.22 L514.04 873.11 L517.91 875.89 L521.73 876.77 L525.24 872.75 L528.69 868.95 L532.51 870.18 L536.03 867.98 L539.67 867.21 L543.66 869.53 L547.71 871.83 L551.58 872.48 L554.96 869.65 L558.11 865.64 L561.71 864.69 L565.17 863.06 L568.60 861.35 L572.51 862.14 L576.78 864.48 L580.90 865.87 L584.21 863.56 L586.93 858.93 L590.14 856.57 L593.58 855.20 L596.85 853.23 L600.56 852.87 L604.98 854.89 L609.13 855.81 L612.76 854.93 L614.84 849.32 L617.59 846.00 L621.32 845.59 L624.62 843.94 L628.13 842.88 L632.51 844.07 L636.92 845.20 L640.70 844.63 L642.19 838.55 L644.56 834.79 L648.69 835.11 L651.32 832.04 L654.75 830.76 L659.29 831.77 L664.12 833.26 L667.73 832.15 L669.28 827.06 L670.97 822.38 L674.34 820.94 L676.69 817.65 L679.88 815.91 L683.65 815.16 L688.02 815.36 L692.12 815.05 L693.97 811.03 L694.73 805.42 L697.77 803.45 L700.31 800.72 L702.98 798.22 L706.44 796.88 L711.22 797.37 L715.66 797.28 L717.51 793.61 L717.99 788.17 L720.31 785.27 L722.90 782.74 L725.76 780.54 L728.55 778.27 L733.37 778.42 L737.97 778.20 L740.86 775.94 L740.06 769.54 L740.99 765.20 L743.46 762.60 L745.34 759.37 L748.53 757.54 L753.16 757.13 L758.34 757.20 L761.48 755.17 L761.23 749.87 L761.57 745.24 L764.01 742.61 L764.92 738.61 L767.44 736.07 L771.85 735.17 L775.77 733.79 L779.08 731.83 L779.25 727.30 L778.08 721.76 L780.24 718.93 L782.14 715.90 L784.36 713.13 L788.65 711.87 L793.40 710.87 L796.43 708.59 L796.94 704.54 L795.00 698.88 L795.58 695.00 L797.08 691.76 L799.34 689.00 L802.58 686.84 L807.58 685.71 L810.37 683.18 L811.81 679.85 L809.37 674.34 L809.51 670.37 L811.90 667.64 L813.41 664.44 L815.94 661.75 L820.55 660.09 L824.40 657.98 L825.45 654.48 L821.92 648.88 L821.68 644.89 L823.27 641.73 L823.44 637.97 L825.45 634.99 L829.22 632.71 L833.79 630.69 L836.06 627.72 L832.73 622.66 L831.16 618.33 L833.09 615.28 L832.61 611.40 L833.26 607.92 L836.36 605.22 L840.04 602.65 L842.51 599.67 L840.09 595.29 L837.11 590.83 L838.57 587.60 L838.34 583.94 L838.92 580.50 L840.94 577.38 L844.21 574.51 L846.92 571.47 L845.79 567.65 L842.25 563.41 L842.22 559.87 L843.53 556.56 L842.89 552.94 L844.79 549.71 L848.45 546.68 L850.00 543.33 L849.73 539.75 L845.30 535.76 L843.73 532.12 L844.90 528.76 L844.36 525.25 L844.86 521.82 L848.81 518.57 L851.30 515.18 L851.82 511.68 L846.48 508.03 L844.44 504.54 L845.38 501.10 L843.70 497.66 L843.72 494.22 L846.08 490.72 L848.74 487.16 L849.66 483.62 L845.07 480.37 L842.07 477.11 L843.15 473.59 L841.27 470.30 L840.58 466.92 L842.31 463.30 L845.24 459.49 L845.65 455.93 L842.47 452.85 L838.26 449.98 L839.09 446.39 L837.64 443.15 L836.26 439.92 L838.21 436.07 L840.64 432.08 L841.49 428.35 L838.81 425.37 L834.11 422.89 L832.02 419.87 L830.73 416.67 L828.67 413.69 L828.88 410.11 L830.69 406.05 L831.90 402.11 L830.49 398.92 L824.66 397.14 L822.20 394.37 L821.78 390.93 L819.27 388.20 L818.38 384.93 L820.34 380.59 L820.87 376.72 L820.14 373.31 L814.24 372.00 L811.21 369.59 L811.75 365.68 L808.82 363.27 L807.52 360.15 L809.17 355.65 L810.00 351.47 L808.46 348.40 L802.86 347.37 L798.80 345.65 L797.71 342.42 L794.66 340.25 L793.55 337.03 L794.41 332.68 L795.02 328.40 L795.00 324.44 L790.35 323.26 L785.30 322.39 L783.38 319.63 L780.29 317.64 L778.10 315.07 L777.82 311.23 L777.44 307.41 L776.89 303.65 L773.35 302.03 L767.55 302.12 L765.13 299.78 L763.42 296.90 L760.56 294.92 L759.26 291.71 L759.99 286.81 L759.19 283.10 L756.61 280.85 L750.75 281.49 L747.59 279.84 L745.71 277.08 L742.98 275.08 L740.92 272.48 L740.83 267.96 L740.15 263.94 L738.02 261.30 L732.50 262.13 L728.10 261.91 L726.41 258.90 L723.15 257.55 L720.44 255.64 L719.80 251.39 L719.27 246.94 L716.92 244.53 L712.04 245.16 L707.62 245.33 L705.97 242.13 L702.36 241.39 L699.58 239.62 L698.60 235.46 L698.23 230.38 L695.74 228.11 L691.53 228.27 L686.74 229.36 L684.01 227.54 L680.87 226.31 L677.37 225.70 L675.20 223.00 L673.79 219.06 L671.72 216.09 L668.19 215.54 L662.76 218.34 L659.45 217.59 L656.79 215.70 L653.12 215.67 L650.71 213.31 L649.22 209.12 L647.04 206.17 L644.23 204.43 L639.29 207.17 L635.65 207.31 L632.80 205.78 L629.30 205.71 L626.45 204.21 L624.84 199.70 L622.82 196.02 L620.04 194.14 L615.48 196.87 L611.62 197.95 L609.14 195.33 L605.40 196.23 L602.21 195.64 L600.08 191.81 L597.70 188.57 L594.81 186.85 L590.86 188.68 L586.66 191.65 L583.77 190.09 L580.34 190.50 L576.97 190.80 L574.28 188.35 L571.71 185.22 L568.76 183.58 L565.20 184.82 L561.31 187.90 L558.07 187.95 L554.93 187.49 L551.86 186.57 L548.79 185.63 L546.18 181.48 L543.23 179.25 L539.86 180.17 L536.15 184.18 L532.81 185.56 L529.69 185.03 L526.51 185.08 L523.36 184.78 L520.46 180.73 L517.40 178.06 L514.19 177.59 L510.81 182.01 L507.58 183.99 L504.42 183.78 L501.25 185.36 L498.11 185.51 L494.92 183.04 L491.70 181.17 L488.47 179.90 L485.48 184.69 L482.47 187.36 L479.26 186.24 L476.30 188.85 L473.23 189.51 L469.90 187.53 L466.53 185.44 L463.29 184.98 L460.49 188.15 L457.82 191.79 L454.61 191.36 L451.58 192.18 L448.60 193.27 L445.24 192.13 L441.58 189.60 L438.28 189.17 L435.65 192.09 L433.28 195.94 L430.45 197.55 L427.52 198.64 L424.67 200.00 L421.50 200.10 L417.59 197.55 L414.04 196.51 L411.31 198.41 L409.41 202.97 L406.82 205.08 L403.94 206.21 L401.33 208.15 L398.09 208.22 L394.16 206.42 L390.49 205.50 L387.60 206.74 L386.04 211.35 L384.23 215.13 L380.98 215.35 L378.69 217.82 L375.85 218.99 L372.06 218.08 L367.97 216.63 L364.87 217.39 L363.66 222.04 L362.24 226.11 L358.80 226.12 L356.92 229.15 L354.56 231.23 L350.93 230.98 L346.92 230.15 L343.67 230.74 L342.19 234.34 L341.58 239.29 L338.29 239.78 L336.21 242.21 L334.08 244.54 L331.02 245.44 L326.26 243.86 L323.62 245.49 L321.72 248.16 L321.53 253.17 L319.35 255.34 L316.87 257.11 L315.08 259.77 L312.65 261.58 L307.56 260.08 L304.51 261.21 L302.14 263.18 L302.59 268.47 L301.03 271.31 L298.23 272.72 L296.53 275.37 L294.58 277.73 L290.53 277.84 L286.96 278.54 L284.88 280.81 L286.17 286.44 L285.70 290.21 L282.53 291.32 L281.71 294.69 L280.47 297.61 L275.75 297.38 L272.22 298.29 L270.28 300.63 L270.64 304.93 L270.68 308.89 L268.44 310.91 L267.61 314.07 L266.41 316.91 L262.41 317.58 L258.09 318.09 L255.53 319.95 L255.82 323.91 L256.51 328.08 L255.42 330.95 L254.14 333.68 L253.68 336.93 L250.69 338.51 L246.58 339.43 L244.02 341.37 L243.04 344.29 L245.37 349.17 L245.08 352.42 L242.94 354.59 L242.72 357.85 L240.90 360.20 L236.84 361.39 L234.24 363.40 L232.92 366.08 L235.86 370.84 L235.72 374.03 L233.80 376.37 L233.05 379.25 L231.99 381.99 L227.53 383.26 L224.58 385.25 L222.57 387.65 L224.96 391.81 L226.35 395.50 L224.52 397.95 L224.44 401.04 L223.75 403.90 L220.41 405.86 L216.21 407.60 L215.16 410.39 L217.44 414.21 L219.75 417.96 L218.46 420.63 L219.46 423.93 L218.99 426.81 L216.47 429.18 L213.05 431.36 L210.71 433.86 L212.99 437.39 L215.66 440.94 L215.58 443.89 L215.38 446.80 L216.12 449.87 L214.03 452.45 L211.03 454.91 L209.40 457.63 L209.93 460.67 L213.52 464.07 L214.26 467.06 L213.77 469.90 L214.38 472.85 L213.06 475.62 L210.24 478.29 L207.60 481.03 L207.83 483.98 L212.03 487.10 L213.94 490.05 L212.48 492.87 L214.46 495.78 L213.70 498.63 L211.20 501.51 L207.95 504.45 L208.32 507.36 L212.28 510.14 L214.38 512.93 L213.63 515.83 L216.11 518.54 L216.69 521.35 L214.08 524.43 L210.78 527.62 L210.91 530.53 L213.84 533.12 L217.37 535.58 L217.40 538.45 L219.37 541.04 L220.79 543.69 L220.25 546.65 L216.50 550.19 L216.97 553.03 L218.85 555.60 L222.91 557.68 L223.34 560.48 L224.14 563.20 L225.43 565.80 L225.56 568.68 L222.51 572.40 L222.44 575.39 L223.90 577.97 L228.87 579.50 L230.64 581.92 L230.96 584.76 L233.02 587.06 L233.55 589.85 L230.79 593.78 L230.17 597.04 L231.18 599.72 L236.25 600.85 L239.08 602.77 L240.11 605.38 L242.51 607.42 L243.48 610.04 L242.18 613.66 L241.07 617.25 L241.24 620.31 L245.56 621.41 L249.58 622.58 L248.90 626.04 L251.62 627.80 L253.69 629.87 L253.11 633.35 L252.58 636.85 L253.66 639.49 L257.72 640.41 L262.59 640.78 L263.50 643.45 L265.71 645.34 L268.16 647.05 L268.19 650.30 L267.76 653.89 L268.03 657.08 L270.81 658.56 L275.54 658.63 L277.66 660.49 L278.97 662.93 L281.80 664.24 L281.94 667.58 L281.18 671.67 L282.21 674.41 L283.78 676.72 L289.16 675.87 L291.95 677.10 L293.08 679.74 L295.67 681.11 L297.21 683.39 L296.55 687.73 L297.15 690.97 L298.62 693.42 L304.52 691.55 L307.57 692.36 L309.06 694.72 L312.17 695.43 L314.15 697.28 L314.33 701.08 L315.01 704.41 L316.42 706.97 L320.76 706.20 L324.87 705.58 L326.21 708.20 L329.00 709.06 L330.95 710.95 L331.60 714.50 L332.12 718.30 L334.17 720.15 L337.74 719.96 L342.25 718.39 L344.55 719.79 L346.97 721.03 L349.57 721.98 L350.31 725.72 L350.60 730.25 L352.42 732.50 L355.33 733.03 L359.70 731.13 L362.40 731.88 L364.73 733.23 L367.87 733.15 L369.50 735.75 L370.40 739.75 L372.06 742.44 L375.22 742.29 L379.96 738.92 L382.71 739.40 L385.26 740.23 L388.26 740.11 L390.14 742.37 L391.56 745.74 L393.35 748.39 L395.69 749.80 L400.04 746.26 L403.46 744.84 L405.27 747.48 L408.60 746.13 L410.95 747.35 L412.67 750.39 L414.28 753.92 L416.74 755.01 L420.44 752.20 L423.68 750.65 L425.93 752.28 L428.78 751.87 L431.29 752.60 L433.48 754.59 L435.24 758.37 L437.46 760.54 L440.82 757.88 L444.09 755.32 L446.61 756.04 L449.40 755.40 L452.02 755.58 L454.37 757.22 L456.49 760.39 L458.88 762.19 L461.74 760.97 L464.87 757.56 L467.56 756.94 L470.04 758.05 L472.68 757.85 L475.21 758.63 L477.48 762.56 L479.97 764.53 L482.66 764.05 L485.56 759.53 L488.23 757.99 L490.79 758.83 L493.38 758.77 L495.97 758.45 L498.54 761.45 L501.17 764.59 L503.81 764.16 L506.35 759.78 L508.86 757.15 L511.44 757.44 L513.94 755.89 L516.54 756.34 L519.28 758.63 L522.06 760.65 L524.74 761.23 L527.07 758.32 L529.21 754.16 L531.78 754.06 L534.21 752.93 L536.83 753.23 L539.61 754.43 L542.68 757.20 L545.45 757.89 L547.52 754.74 L549.26 750.15 L551.70 749.39 L554.04 748.14 L556.53 747.63 L559.23 748.00 L562.32 749.87 L565.61 752.29 L567.84 750.54 L568.81 744.41 L571.13 743.29 L573.70 743.05 L575.44 740.11 L578.08 740.08 L581.56 742.51 L584.48 743.12 L587.17 743.00 L587.84 737.37 L589.48 734.58 L592.22 734.69 L594.02 732.39 L596.29 731.34 L599.98 733.59 L603.51 735.30 L605.84 734.21 L606.42 729.36 L607.76 726.29 L610.63 726.45 L611.99 723.54 L613.93 721.85 L617.69 723.64 L621.23 724.88 L623.48 723.68 L624.21 719.77 L624.75 715.66 L627.12 714.77 L628.67 712.52 L630.64 710.98 L633.99 711.62 L637.46 712.38 L640.36 712.18 L641.16 708.82 L641.02 704.18 L642.90 702.54 L644.72 700.83 L646.49 699.06 L649.01 698.30 L652.84 699.22 L655.54 698.59 L657.05 696.43 L655.93 691.09 L657.44 689.05 L660.60 688.97 L662.01 686.80 L664.24 685.60 L668.43 686.54 L671.09 685.72 L673.21 684.29 L670.96 678.28 L670.86 674.65 L673.65 673.99 L674.41 671.29 L676.25 669.67 L680.11 669.95 L683.69 669.88 L685.99 668.60 L683.74 663.24 L683.41 659.69 L686.17 658.85 L686.53 655.96 L686.87 653.10 L690.59 652.98 L694.80 653.18 L696.61 651.45 L695.21 647.28 L694.09 643.42 L696.61 642.26 L697.09 639.63 L698.11 637.40 L701.59 636.84 L705.25 636.35 L707.83 635.09 L707.09 631.68 L704.58 627.23 L705.57 625.01 L706.27 622.63 L706.92 620.23 L710.04 619.25 L714.15 618.77 L716.89 617.47 L717.03 614.75 L714.42 610.64 L713.91 607.68 L714.78 605.45 L715.21 603.00 L717.80 601.57 L720.85 600.32 L723.80 598.97 L725.28 596.94 L721.42 592.67 L719.66 589.36 L721.46 587.52 L721.28 584.90 L722.39 582.79 L726.30 581.68 L728.62 579.94 L730.72 578.09 L728.21 574.71 L725.17 571.23 L726.60 569.20 L726.05 566.56 L727.39 564.49 L730.04 562.77 L733.54 561.22 L735.11 559.13 L732.59 556.02 L729.03 552.75 L729.82 550.52 L729.15 547.97 L730.13 545.78 L732.66 543.87 L736.97 542.23 L738.34 540.02 L736.76 537.33 L732.28 534.24 L732.26 531.87 L731.63 529.43 L731.79 527.10 L732.75 524.85 L736.22 522.84 L738.77 520.67 L737.42 518.17 L732.37 515.45 L731.14 513.04 L731.36 510.74 L731.38 508.42 L731.96 506.12 L734.71 503.84 L738.08 501.52 L739.39 499.13 L732.87 496.83 L730.89 494.54 L732.36 492.18 L729.28 489.99 L728.62 487.73 L731.95 485.22 L733.73 482.76 L734.39 480.35 L730.81 478.33 L726.92 476.40 L727.93 473.99 L725.88 471.93 L724.43 469.83 L726.61 467.23 L729.02 464.54 L729.37 462.13 L726.54 460.27 L722.46 458.68 L721.81 456.51 L721.46 454.27 L720.18 452.24 L721.21 449.69 L723.93 446.71 L724.54 444.19 L722.52 442.32 L717.92 441.18 L715.93 439.39 L715.65 437.14 L713.81 435.35 L714.45 432.81 L716.61 429.75 L717.32 427.11 L717.01 424.79 L711.34 424.38 L708.92 422.88 L709.34 420.34 L707.50 418.65 L706.79 416.53 L708.84 413.27 L709.75 410.42 L709.41 408.08 L704.48 407.79 L701.31 406.79 L702.78 403.63 L700.46 402.27 L698.97 400.52 L701.05 396.95 L702.57 393.60 L701.45 391.61 L697.14 391.37 L692.72 391.28 L692.18 389.04 L689.68 387.93 L688.59 386.02 L689.23 383.04 L690.20 379.79 L690.53 376.90 L686.84 376.61 L682.15 377.08 L680.57 375.50 L679.30 373.71 L676.92 372.73 L676.73 370.16 L678.03 366.44 L677.82 363.80 L675.43 362.83 L670.69 363.76 L668.72 362.55 L667.68 360.58 L665.56 359.52 L664.46 357.60 L665.44 353.83 L665.72 350.60 L664.15 349.02 L658.87 350.92 L655.77 350.87 L654.99 348.62 L652.22 348.32 L651.90 345.58 L652.11 342.24 L652.72 338.40 L651.30 336.66 L646.82 338.29 L642.97 339.33 L642.30 336.82 L638.91 337.46 L638.17 335.01 L637.65 332.26 L637.43 329.06 L636.47 326.74 L632.64 328.09 L628.55 329.91 L627.15 328.21 L625.10 327.40 L623.53 325.92 L622.73 323.34 L622.79 319.43 L621.93 316.78 L618.96 317.31 L614.33 320.51 L612.52 319.39 L610.06 319.33 L608.73 317.44 L607.24 315.78 L606.99 311.91 L606.05 309.14 L603.65 308.98 L599.22 312.71 L596.72 312.93 L594.82 312.01 L592.44 312.09 L590.87 310.52 L590.38 306.60 L589.28 303.86 L587.29 303.04 L583.54 306.30 L580.71 307.58 L579.20 305.77 L576.80 306.13 L575.09 304.77 L573.73 302.42 L572.80 298.80 L570.86 297.87 L567.42 301.34 L564.33 304.03 L562.79 302.05 L560.36 302.89 L558.48 301.99 L557.16 299.07 L555.90 295.75 L554.16 294.05 L551.50 295.90 L548.25 300.39 L546.52 298.76 L544.23 299.54 L541.87 300.80 L540.33 298.12 L538.75 295.39 L536.91 293.85 L534.68 294.49 L531.99 298.14 L529.74 299.39 L527.87 298.11 L525.58 299.91 L523.69 298.76 L522.02 295.31 L520.10 293.82 L518.02 293.81 L515.61 298.12 L513.49 299.42 L511.55 298.20 L509.46 299.51 L507.47 299.24 L505.53 296.34 L503.53 294.11 L501.48 293.75 L499.43 298.81 L497.44 300.27 L495.41 298.82 L493.44 300.39 L491.43 299.95 L489.25 296.76 L487.13 295.38 L485.01 294.62 L483.26 298.36 L481.59 302.25 L479.59 302.22 L477.72 303.34 L475.79 303.87 L473.64 302.69 L471.12 299.17 L468.96 298.47 L467.32 301.06 L465.88 304.58 L463.67 303.53 L461.78 304.27 L459.98 305.42 L457.51 303.40 L454.86 300.79 L453.08 302.14 L451.41 303.85 L450.59 308.75 L449.19 311.17 L447.07 310.85 L445.05 310.94 L442.94 310.76 L440.05 308.11 L437.25 306.01 L435.63 307.60 L435.40 313.14 L433.91 314.84 L431.60 314.25 L430.44 316.78 L428.64 317.54 L425.42 314.79 L422.90 313.93 L421.51 315.82 L421.72 321.28 L420.64 323.63 L418.95 324.60 L417.63 326.31 L415.60 326.54 L412.85 325.34 L409.87 323.81 L407.63 323.79 L408.05 328.78 L407.95 332.63 L406.13 333.28 L405.38 335.82 L403.83 336.93 L401.00 335.91 L397.81 334.38 L395.04 333.63 L394.52 336.46 L394.97 340.68 L393.91 342.52 L393.05 344.62 L391.77 346.07 L389.39 345.99 L386.21 344.86 L383.48 344.42 L382.71 346.62 L383.70 351.02 L383.31 353.56 L381.96 354.87 L380.77 356.36 L378.50 356.57 L374.76 355.12 L371.82 354.69 L370.87 356.53 L372.57 361.23 L372.56 363.97 L371.98 366.07 L370.95 367.66 L368.75 368.08 L365.65 367.64 L362.06 366.79 L359.93 367.41 L361.76 371.74 L362.68 375.13 L361.51 376.57 L361.49 379.02 L360.14 380.28 L357.33 380.32 L353.61 379.68 L351.75 380.62 L353.25 384.23 L354.56 387.59 L353.93 389.42 L354.49 392.12 L352.77 393.11 L349.81 393.24 L346.13 392.93 L343.29 393.26 L344.12 396.09 L346.44 399.84 L346.48 402.04 L346.76 404.36 L346.12 406.09 L343.93 406.88 L340.74 407.12 L337.55 407.43 L337.39 409.48 L340.29 413.17 L341.36 415.80 L340.75 417.50 L340.64 419.46 L339.46 420.87 L335.79 421.09 L333.13 421.85 L331.50 423.14 L334.93 426.69 L336.55 429.35 L335.38 430.80 L336.15 433.04 L334.71 434.37 L332.24 435.32 L329.07 436.06 L327.46 437.41 L331.05 440.62 L333.11 443.21 L331.74 444.62 L332.91 446.85 L332.34 448.51 L329.54 449.51 L326.11 450.38 L324.62 451.85 L327.18 454.40 L329.58 456.85 L329.89 458.74 L330.37 460.65 L330.37 462.43 L328.05 463.72 L324.30 464.76 L322.64 466.26 L324.52 468.44 L327.20 470.70 L328.61 472.70 L329.55 474.59 L329.16 476.28 L327.52 477.81 L324.52 479.20 L322.43 480.75 L322.44 482.55 L326.43 484.69 L327.98 486.56 L326.44 488.19 L326.92 489.96 L326.04 491.65 L322.68 493.27 L321.23 495.00 L320.66 496.78 L325.24 498.61 L328.54 500.35 L328.84 502.06 L330.63 503.73 L329.66 505.46 L327.65 507.25 L324.87 509.12 L324.23 510.92 L328.08 512.41 L331.26 513.87 L329.79 515.71 L329.62 517.45 L329.69 519.16 L328.52 521.03 L325.15 523.22 L325.02 525.02 L329.60 526.11 L333.55 527.21 L333.80 528.88 L333.73 530.61 L333.86 532.30 L332.55 534.30 L329.32 536.74 L328.33 538.76 L331.27 539.87 L335.76 540.55 L337.66 541.80 L338.74 543.25 L340.51 544.49 L340.06 546.34 L336.96 549.02 L335.54 551.24 L336.23 552.83 L341.70 552.82 L343.64 553.91 L343.97 555.55 L345.61 556.71 L344.84 558.77 L343.11 561.22 L341.21 563.80 L341.79 565.41 L347.22 564.96 L349.74 565.67 L350.82 566.98 L352.33 568.09 L352.55 569.78 L351.70 572.01 L349.02 575.19 L348.99 577.09 L353.53 576.63 L356.45 576.94 L357.68 578.13 L359.91 578.74 L360.73 580.12 L359.90 582.47 L357.55 585.78 L357.19 587.96 L360.24 588.02 L364.01 587.56 L365.99 588.19 L367.67 589.00 L368.53 590.34 L368.18 592.53 L365.98 596.09 L365.89 598.20 L368.37 598.42 L372.40 597.41 L374.66 597.69 L376.74 598.06 L378.24 598.88 L377.80 601.27 L376.84 604.17 L376.21 606.84 L377.32 608.04 L381.74 606.27 L384.40 605.99 L386.05 606.59 L388.03 606.86 L388.39 608.67 L387.56 611.69 L386.96 614.55 L387.25 616.57 L391.33 614.62 L394.51 613.52 L395.53 614.70 L398.03 614.23 L398.75 615.73 L398.80 618.03 L398.04 621.36 L398.54 623.25 L401.63 621.95 L404.67 620.64 L406.01 621.42 L408.47 620.72 L409.72 621.57 L409.79 624.04 L409.78 626.71 L410.27 628.72 L412.52 628.21 L415.77 626.13 L417.88 625.69 L419.64 625.72 L420.92 626.48 L421.79 627.92 L421.53 631.27 L421.99 633.51 L423.82 633.44 L426.70 631.42 L429.03 630.29 L430.53 630.64 L432.19 630.65 L433.20 631.91 L433.43 634.78 L433.80 637.48 L435.12 638.25 L438.01 635.62 L440.23 634.29 L441.91 634.10 L443.77 633.45 L444.74 634.91 L445.37 637.26 L446.13 639.41 L446.98 641.39 L449.42 639.09 L451.84 636.69 L452.91 638.04 L454.71 637.23 L455.87 638.36 L456.70 640.61 L457.41 643.36 L458.63 644.56 L460.82 642.25 L463.17 639.14 L464.77 638.69 L466.69 636.84 L467.94 637.71 L469.08 639.09 L470.15 640.91 L471.26 642.71 L472.88 641.96 L474.83 639.32 L476.48 638.05 L477.98 637.53 L479.36 637.70 L480.64 638.59 L481.74 641.01 L482.97 642.71 L484.52 641.78 L486.21 639.19 L487.74 637.81 L489.25 636.16 L490.75 634.31 L492.13 633.79 L493.44 634.43 L494.76 635.11 L496.12 634.74 L497.51 632.82 L498.85 631.72 L500.16 631.06 L501.46 629.81 L502.75 629.39 L504.05 629.63 L505.35 629.72 L506.65 629.59 L507.93 629.38 L509.20 628.89 L510.45 628.39 L511.72 628.09 L512.97 627.64 L514.20 627.09 L515.44 626.71 L516.67 626.28 L517.90 625.87 L519.12 625.43 L520.33 624.98 L521.54 624.53 L522.72 623.99 L523.94 623.63 L525.12 623.16 L526.29 622.62 L527.47 622.12 L528.65 621.69 L529.82 621.21 L530.99 620.75 L532.16 620.28 L533.32 619.82 L534.49 619.39 L535.65 618.93 L536.78 618.38 L537.92 617.87 L539.03 617.30 L540.14 616.73 L541.20 616.01 L542.31 615.46 L543.43 614.94 L544.49 614.29 L545.57 613.69 L546.63 613.05 L547.66 612.34 L548.72 611.71 L549.76 611.05 L550.77 610.33 L551.77 609.61 L552.81 608.99 L553.86 608.36 L554.79 607.53 L555.85 606.94 L556.85 606.26 L557.72 605.34 L558.68 604.60 L559.59 603.78 L560.51 602.98 L561.36 602.08 L562.29 601.31 L563.22 600.56 L564.05 599.65 L564.91 598.80 L565.83 598.05 L566.64 597.15 L567.43 596.23 L568.26 595.36 L569.09 594.51 L569.89 593.63 L570.68 592.74 L571.48 591.87 L572.27 590.99 L573.03 590.08 L573.79 589.18 L574.52 588.25 L575.21 587.28 L575.98 586.42 L576.81 585.62 L577.45 584.61 L578.17 583.70 L578.97 582.88 L579.56 581.84 L580.18 580.85 L580.81 579.87 L581.40 578.86 L582.01 577.87 L582.62 576.90 L583.21 575.91 L583.82 574.95 L584.39 573.95 L584.96 572.96 L585.52 571.97 L586.07 570.97 L586.58 569.95 L587.09 568.94 L587.64 567.95 L588.14 566.94 L588.63 565.92 L589.13 564.93 L589.64 563.93 L590.09 562.91 L590.57 561.90 L591.05 560.90 L591.45 559.86 L591.87 558.83 L592.29 557.80 L592.70 556.78 L593.06 555.73 L593.43 554.68 L593.84 553.67 L594.18 552.63 L594.50 551.57 L594.84 550.53 L595.24 549.53 L595.53 548.48 L595.82 547.42 L596.17 546.40 L596.43 545.34 L596.66 544.28 L596.92 543.23 L597.17 542.18 L597.42 541.14 L597.66 540.09 L597.88 539.04 L598.09 538.00 L598.29 536.95 L598.48 535.90 L598.66 534.85 L598.83 533.80 L598.99 532.75 L599.14 531.71 L599.27 530.66 L599.40 529.61 L599.51 528.57 L599.62 527.52 L599.71 526.48 L599.80 525.43 L599.87 524.39 L599.93 523.35 L599.97 522.31 L600.00 521.27 L600.03 520.23 L600.04 519.19 L600.05 518.16 L600.05 517.13 L600.03 516.10 L600.01 515.07 L599.98 514.04 L599.94 513.02 L599.89 512.00 L599.82 510.98 L599.75 509.96 L599.66 508.95 L599.56 507.94 L599.45 506.93 L599.33 505.92 L599.19 504.92 L599.06 503.92 L598.92 502.92 L598.76 501.93 L598.60 500.94 Z"/>
  <svg class="pausebutton" id="pausebutton">
    <circle cx="500" cy="500" id="pausestart" class="pausestart" r="52.65"/>
    <rect height="50.02" width="10.00" y="473.68" rx="2.00" ry="2.00" x="479.99" class="pausesymbol"/>
    <rect height="50.02" width="10.00" y="473.68" rx="2.00" ry="2.00" x="510.00" class="pausesymbol"/>
    <polygon points="530.01,500 479.99,530.01 479.99,469.99" class="playsymbol"/>
  </svg>
  <polygon id="playback-head" class="playback-head" points="941.65,500 921.65,540 961.65,540"/>
</svg>