<?xml-stylesheet href="../../style/waveformjs.css" type="text/css"?>
<svg xmlns="http://www.w3.org/2000/svg" xmlns:xlink="http://www.w3.org/1999/xlink" width="100%" height="100%" viewBox="0 0 1000 1000">
  <path class="svg-wave" id="sp" d="M590.67 500.00 L590.86 500.91 L591.15 501.82 L591.27 502.74 L591.64 503.67 L591.73 504.59 L592.09 505.53 L592.25 506.47 L592.48 507.41 L592.66 508.36 L592.81 509.31 L592.99 510.27 L593.11 511.23 L593.26 512.19 L593.39 513.16 L593.39 514.12 L593.51 515.09 L593.52 516.05 L593.66 517.04 L593.75 518.03 L593.87 519.03 L593.89 520.01 L593.95 521.01 L593.92 521.99 L593.99 523.00 L593.98 524.00 L594.00 525.00 L593.98 526.01 L593.94 527.01 L593.89 528.02 L593.84 529.03 L593.75 530.03 L593.63 531.03 L593.53 532.04 L593.37 533.03 L593.25 534.04 L593.15 535.06 L592.99 536.07 L592.86 537.09 L592.65 538.08 L592.44 539.08 L592.17 540.06 L591.94 541.06 L591.65 542.03 L591.42 543.04 L591.12 544.02 L590.80 544.99 L590.38 545.91 L590.03 546.87 L589.56 547.77 L588.91 548.57 L588.89 549.72 L588.04 550.41 L587.92 551.52 L587.35 552.36 L586.71 553.16 L586.19 554.04 L585.71 554.94 L584.99 555.69 L584.21 556.38 L583.73 557.28 L583.08 558.07 L582.75 559.08 L581.70 559.57 L580.67 560.06 L579.43 560.38 L578.28 560.75 L577.53 561.42 L576.71 562.03 L576.07 562.78 L575.57 563.65 L575.17 564.61 L574.76 565.57 L574.38 566.56 L573.58 567.18 L572.68 567.71 L571.10 567.58 L569.60 567.49 L568.02 567.29 L566.91 567.53 L565.71 567.66 L565.07 568.35 L564.25 568.86 L563.45 569.37 L563.83 571.21 L563.97 572.82 L563.16 573.37 L563.62 575.41 L561.52 574.42 L560.42 574.59 L558.95 574.28 L557.34 573.76 L556.21 573.81 L555.27 574.10 L555.30 575.72 L554.40 576.07 L554.10 577.27 L552.91 577.21 L551.84 577.29 L550.87 577.50 L549.91 577.73 L549.11 578.19 L548.40 578.80 L548.09 580.08 L546.45 579.14 L547.02 581.96 L545.59 581.36 L544.94 582.11 L543.26 580.95 L543.62 583.63 L541.50 581.54 L542.24 585.09 L539.01 580.60 L537.54 579.57 L538.08 582.86 L536.92 582.49 L539.79 591.36 L539.46 593.12 L538.76 594.08 L538.61 596.45 L537.66 596.88 L536.82 597.58 L535.92 598.16 L535.25 599.39 L534.62 600.80 L534.11 602.66 L533.51 604.33 L532.73 605.50 L531.88 606.54 L530.36 605.27 L528.99 604.41 L527.59 603.38 L526.38 602.97 L525.50 603.83 L524.63 604.83 L523.66 605.42 L522.61 605.69 L521.59 606.06 L520.69 607.14 L519.86 608.64 L519.07 610.58 L518.18 612.11 L517.20 613.16 L516.13 613.79 L514.82 612.67 L513.48 611.04 L512.26 610.17 L511.05 609.25 L510.02 610.02 L508.98 610.89 L507.91 611.53 L506.80 611.73 L505.70 612.02 L504.61 612.90 L503.52 614.25 L502.41 616.00 L501.27 617.45 L500.09 618.48 L498.90 619.07 L497.73 618.19 L496.61 615.92 L495.49 614.93 L494.40 613.64 L493.26 613.73 L492.05 614.70 L490.87 615.03 L489.69 615.25 L488.52 615.30 L487.30 615.86 L486.00 616.90 L484.63 618.33 L483.22 619.73 L481.84 620.80 L480.54 621.21 L479.38 620.72 L478.61 618.05 L477.51 617.45 L476.69 615.48 L475.46 615.59 L474.11 616.22 L472.86 616.31 L471.64 616.30 L470.43 616.17 L469.18 616.23 L467.68 617.15 L466.13 618.13 L464.50 619.32 L462.98 620.01 L461.56 620.34 L460.35 619.98 L459.75 617.82 L458.85 616.61 L458.27 614.62 L457.15 614.12 L455.88 614.02 L454.44 614.34 L453.21 614.08 L451.76 614.36 L450.20 614.82 L448.33 615.94 L446.60 616.68 L444.94 617.19 L443.66 616.86 L442.44 616.41 L441.48 615.43 L441.39 612.80 L440.93 610.96 L440.65 608.84 L439.48 608.40 L437.89 608.67 L435.78 609.80 L434.27 609.86 L432.62 610.09 L430.59 610.90 L428.82 611.25 L426.97 611.66 L425.60 611.31 L424.31 610.82 L423.37 609.83 L423.64 607.13 L423.77 604.72 L423.90 602.38 L422.82 601.70 L421.26 601.63 L418.94 602.48 L417.37 602.34 L415.85 602.12 L413.75 602.57 L411.92 602.64 L410.17 602.58 L408.83 602.04 L407.62 601.33 L406.75 600.26 L407.23 597.76 L407.20 595.85 L407.62 593.54 L406.47 592.82 L405.08 592.33 L403.04 592.45 L401.98 591.60 L400.94 590.74 L399.23 590.47 L397.48 590.21 L395.27 590.31 L393.29 590.17 L391.53 589.82 L390.04 589.21 L390.22 587.26 L389.64 585.93 L390.05 583.86 L389.85 582.28 L388.91 581.27 L388.19 580.09 L387.22 579.09 L385.92 578.32 L384.08 577.88 L382.22 577.43 L380.22 577.04 L378.53 576.43 L376.84 575.78 L377.27 573.84 L376.87 572.41 L377.31 570.51 L377.74 568.64 L376.57 567.68 L376.10 566.34 L375.18 565.24 L373.75 564.38 L372.15 563.60 L370.04 563.03 L368.11 562.35 L366.11 561.66 L364.70 560.68 L365.41 558.75 L365.17 557.26 L365.84 555.40 L366.42 553.60 L365.46 552.43 L365.28 550.95 L364.74 549.62 L363.36 548.58 L361.74 547.60 L359.95 546.66 L358.25 545.66 L356.61 544.61 L355.30 543.43 L356.08 541.63 L355.82 540.15 L356.92 538.31 L357.38 536.66 L356.61 535.33 L356.60 533.82 L356.00 532.44 L354.85 531.18 L353.42 529.96 L351.55 528.80 L350.04 527.53 L348.37 526.28 L347.43 524.87 L348.61 523.13 L348.18 521.64 L349.75 519.89 L350.30 518.29 L349.71 516.84 L349.97 515.29 L349.57 513.82 L348.65 512.38 L347.37 510.95 L345.66 509.52 L344.22 508.04 L342.82 506.54 L342.23 504.99 L343.47 503.38 L343.61 501.81 L345.54 500.25 L345.92 498.70 L345.64 497.16 L345.31 495.60 L344.40 494.02 L343.42 492.41 L342.28 490.78 L341.36 489.13 L341.44 487.54 L341.72 485.97 L342.77 484.48 L343.98 483.02 L346.54 481.74 L349.31 480.54 L347.18 478.71 L350.09 477.59 L346.61 475.50 L347.54 474.08 L349.01 472.77 L350.46 471.49 L351.48 470.14 L352.22 468.75 L351.83 467.11 L353.84 466.02 L353.69 464.44 L349.64 461.86 L350.56 460.50 L344.63 457.27 L343.99 455.41 L344.60 453.90 L342.38 451.52 L342.92 449.96 L343.05 448.27 L344.20 446.91 L345.24 445.53 L346.41 444.21 L350.36 443.95 L353.73 443.53 L353.43 441.73 L355.68 440.95 L352.67 437.99 L352.80 436.30 L352.83 434.56 L354.00 433.32 L353.92 431.51 L353.48 429.51 L354.56 428.23 L354.75 426.51 L355.53 425.08 L354.07 422.46 L355.10 421.14 L353.89 418.58 L353.94 416.68 L355.01 415.36 L353.90 412.74 L353.84 410.71 L355.39 409.66 L355.50 407.70 L358.05 407.32 L358.27 405.43 L361.66 405.68 L365.26 406.15 L365.26 404.13 L368.15 404.19 L366.44 400.89 L367.31 399.46 L367.86 397.78 L369.14 396.66 L370.20 395.38 L369.83 392.91 L371.25 391.91 L372.09 390.41 L373.30 389.23 L372.86 386.59 L373.87 385.20 L373.28 382.33 L373.76 380.40 L374.83 379.01 L375.22 376.95 L374.84 374.09 L377.02 373.78 L376.85 371.04 L379.99 371.79 L380.29 369.53 L383.52 370.47 L387.16 371.97 L388.91 371.38 L390.61 370.75 L391.59 369.28 L391.16 366.07 L392.61 365.11 L393.80 363.84 L395.42 363.11 L395.82 360.78 L397.35 359.92 L398.68 358.79 L399.95 357.58 L401.56 356.85 L402.74 355.49 L402.54 352.02 L402.89 349.29 L403.08 346.23 L403.93 344.15 L405.56 343.29 L407.25 342.56 L408.96 341.87 L410.32 340.57 L411.34 338.62 L412.69 337.24 L414.02 335.81 L415.78 335.18 L417.58 334.63 L418.98 333.30 L420.17 331.48 L421.23 329.32 L422.37 327.28 L423.94 326.14 L425.89 325.86 L427.80 325.54 L430.07 326.13 L431.98 325.85 L434.26 326.61 L436.07 326.15 L438.20 326.61 L440.10 326.48 L441.91 326.10 L444.17 327.12 L446.02 326.97 L448.29 328.23 L450.15 328.17 L451.89 327.76 L452.44 322.92 L454.08 321.95 L454.93 317.70 L456.73 317.16 L459.07 319.02 L461.14 319.79 L463.28 321.06 L465.48 322.79 L467.34 322.94 L469.36 324.01 L471.19 324.17 L473.04 324.47 L474.46 321.87 L476.29 321.97 L477.72 318.86 L479.23 316.01 L480.78 312.97 L482.37 309.70 L484.11 307.56 L486.03 307.41 L487.95 307.18 L489.88 306.93 L491.76 305.82 L493.67 304.61 L495.61 304.10 L497.55 302.45 L499.53 302.55 L501.50 303.26 L503.44 304.71 L505.34 306.65 L507.19 308.87 L509.07 309.74 L511.07 308.01 L512.98 308.28 L515.01 306.97 L516.76 309.19 L518.41 312.00 L520.08 314.10 L521.90 314.67 L523.99 313.03 L526.48 308.81 L528.84 306.05 L531.25 303.35 L533.25 303.46 L535.09 304.52 L536.90 305.62 L538.90 305.69 L541.08 305.00 L543.37 303.87 L545.71 302.64 L548.04 301.63 L549.79 303.06 L551.47 304.63 L552.84 307.28 L554.21 309.78 L555.65 311.86 L558.11 310.53 L559.95 311.29 L562.32 310.42 L563.81 312.26 L564.90 315.13 L566.06 317.67 L567.97 318.10 L570.52 316.89 L573.82 313.89 L576.43 312.79 L579.03 311.83 L581.31 311.68 L583.11 312.69 L586.23 310.80 L587.79 312.35 L590.29 311.95 L591.46 314.29 L593.67 314.50 L594.74 316.96 L594.80 321.25 L595.36 324.44 L597.56 324.60 L598.66 326.73 L602.37 324.33 L604.25 325.13 L606.22 325.82 L607.60 327.46 L610.04 327.42 L612.17 327.89 L613.79 329.17 L615.72 329.98 L617.72 330.71 L620.43 330.46 L622.52 331.11 L625.33 330.83 L627.64 331.27 L629.31 332.56 L632.59 331.82 L634.44 332.94 L636.09 334.31 L637.67 335.75 L638.59 337.98 L640.11 339.47 L639.37 343.51 L638.91 347.14 L641.03 347.89 L641.26 350.66 L645.15 349.60 L646.80 350.90 L648.35 352.30 L649.44 354.16 L651.64 354.95 L654.05 355.57 L655.63 356.99 L657.43 358.21 L658.56 360.04 L661.14 360.60 L664.31 360.71 L667.08 361.20 L670.13 361.52 L671.71 363.07 L672.92 364.91 L675.46 365.73 L675.81 368.23 L678.31 369.12 L677.59 372.36 L679.81 373.47 L678.69 376.91 L677.25 380.50 L678.98 381.92 L678.44 384.82 L682.04 385.06 L683.86 386.47 L685.38 388.07 L686.52 389.91 L687.50 391.85 L690.28 392.77 L691.02 394.85 L692.42 396.58 L693.28 398.59 L695.54 399.89 L696.98 401.62 L699.59 402.80 L701.64 404.29 L702.99 406.12 L704.74 407.78 L708.05 408.79 L707.79 411.37 L710.60 412.65 L709.13 415.70 L711.33 417.26 L709.62 420.34 L707.01 423.69 L706.61 426.17 L707.02 428.35 L707.95 430.35 L711.51 431.51 L712.16 433.63 L713.04 435.69 L713.22 437.95 L715.42 439.64 L716.50 441.67 L717.08 443.83 L718.06 445.90 L716.40 448.60 L714.72 451.27 L715.32 453.39 L714.86 455.73 L717.11 457.53 L717.79 459.65 L719.48 461.60 L719.76 463.82 L719.26 466.15 L719.39 468.37 L717.88 470.81 L717.06 473.12 L719.56 475.04 L720.29 477.19 L723.23 479.14 L726.66 481.10 L727.77 483.30 L731.29 485.37 L732.35 487.63 L731.92 489.98 L730.78 492.34 L729.43 494.68 L728.37 496.99 L727.72 499.27 L726.13 501.54 L725.72 503.80 L723.47 505.99 L726.16 508.33 L724.86 510.53 L728.50 513.00 L732.56 515.56 L736.21 518.18 L740.38 520.92 L742.82 523.58 L740.09 525.74 L740.20 528.19 L738.28 530.38 L738.11 532.78 L737.36 535.10 L736.64 537.42 L735.65 539.68 L731.28 541.33 L728.23 543.14 L726.26 545.12 L726.62 547.55 L727.92 550.21 L729.71 553.01 L726.92 554.76 L725.71 556.87 L728.99 560.14 L729.03 562.60 L735.33 566.86 L735.26 569.39 L733.55 571.43 L731.40 573.31 L729.10 575.11 L724.41 576.07 L724.17 578.50 L719.45 579.31 L718.82 581.57 L717.55 583.58 L720.68 587.33 L722.57 590.66 L726.51 594.92 L726.95 597.78 L727.09 600.55 L726.02 602.79 L724.59 604.86 L721.95 606.34 L721.04 608.64 L718.59 610.16 L717.16 612.18 L715.59 614.11 L715.68 616.94 L715.70 619.75 L718.04 623.92 L718.47 627.08 L716.44 628.81 L713.40 629.90 L710.16 630.83 L705.85 631.02 L703.72 632.55 L701.34 633.88 L697.71 634.34 L698.08 637.51 L697.81 640.27 L700.27 645.05 L702.81 650.00 L703.92 653.99 L701.95 655.71 L698.97 656.60 L695.55 657.10 L691.50 657.03 L688.73 657.94 L686.77 659.50 L682.62 659.14 L682.54 662.31 L681.37 664.55 L683.04 669.43 L683.07 672.89 L683.07 676.39 L682.13 679.03 L680.13 680.64 L680.76 684.93 L678.21 686.01 L677.26 688.76 L674.43 689.52 L672.66 691.39 L669.76 692.01 L665.47 690.97 L661.45 690.14 L660.21 692.55 L657.33 692.98 L658.10 697.94 L656.38 699.84 L654.98 702.19 L652.46 703.07 L650.93 705.29 L649.63 707.84 L647.29 708.97 L645.95 711.52 L643.47 712.44 L643.00 716.37 L640.11 716.69 L638.99 719.74 L637.33 722.00 L634.80 722.86 L633.76 726.23 L632.00 728.42 L629.29 728.99 L627.50 731.19 L624.38 730.98 L622.26 732.57 L618.66 731.32 L614.81 729.43 L613.01 731.59 L609.82 730.88 L608.89 734.95 L606.68 736.35 L604.65 738.18 L602.03 738.68 L600.00 740.54 L597.96 742.45 L595.52 743.38 L593.34 745.03 L590.71 745.47 L589.35 749.43 L586.55 749.45 L584.89 752.78 L582.61 754.41 L579.94 754.83 L577.89 757.26 L575.84 759.83 L572.83 759.14 L570.70 761.57 L567.44 759.79 L565.15 761.72 L562.05 760.34 L558.53 756.93 L556.00 757.71 L553.07 756.57 L550.81 758.64 L548.55 760.88 L546.08 762.17 L543.44 762.54 L540.86 763.28 L538.42 764.97 L535.78 765.43 L533.20 766.39 L530.52 766.56 L528.00 768.33 L525.36 769.07 L522.76 770.39 L520.17 772.10 L517.48 772.76 L514.77 773.31 L512.17 776.48 L509.34 774.88 L506.65 777.40 L503.84 774.73 L501.10 776.24 L498.35 773.68 L495.67 770.04 L493.02 768.27 L490.32 768.69 L487.64 768.38 L484.74 772.09 L482.00 772.27 L479.28 772.01 L476.56 771.85 L473.76 772.42 L470.95 772.94 L468.19 772.91 L465.45 772.70 L462.71 772.47 L460.23 770.44 L457.61 769.49 L455.19 767.43 L452.66 766.19 L450.09 765.20 L447.34 765.19 L444.38 766.15 L442.05 764.08 L439.36 763.71 L437.03 761.82 L434.35 761.44 L431.17 762.97 L428.48 762.49 L424.64 766.05 L421.49 766.96 L418.13 768.44 L415.04 768.90 L412.57 767.38 L410.65 764.29 L408.27 762.65 L405.95 760.88 L403.43 759.69 L399.81 761.39 L396.04 763.32 L391.98 765.79 L388.63 766.36 L386.71 763.52 L385.11 760.05 L383.59 756.52 L382.24 752.74 L379.14 752.76 L378.94 746.82 L375.24 748.05 L372.98 746.38 L367.91 750.04 L363.41 752.41 L358.61 755.16 L356.76 752.49 L355.28 749.27 L353.74 746.22 L353.50 741.10 L350.73 740.21 L350.66 735.04 L348.25 733.65 L345.72 732.42 L340.39 735.31 L336.02 736.62 L329.80 740.42 L327.89 738.03 L326.55 734.91 L325.63 731.28 L325.32 726.93 L323.80 724.24 L322.37 721.46 L321.88 717.57 L318.86 716.80 L316.51 715.20 L311.61 716.52 L308.51 715.70 L304.46 715.87 L301.58 714.70 L299.15 713.02 L295.01 713.09 L292.54 711.39 L289.71 710.03 L287.54 707.99 L285.53 705.80 L283.29 703.83 L280.76 702.11 L277.93 700.65 L274.85 699.38 L273.97 696.17 L273.33 692.78 L273.08 689.12 L274.64 684.03 L272.42 682.08 L273.57 677.47 L272.14 674.95 L269.54 673.30 L264.19 673.67 L258.87 673.89 L252.16 674.99 L250.20 672.66 L250.34 668.89 L250.62 665.09 L251.38 661.04 L251.29 657.59 L249.29 655.36 L249.78 651.62 L246.05 650.43 L244.83 647.72 L240.66 646.70 L236.38 645.66 L233.10 644.01 L228.91 642.78 L226.14 640.76 L224.14 638.32 L222.63 635.62 L222.35 632.34 L223.35 628.48 L225.62 624.10 L221.07 622.82 L221.62 619.27 L217.52 617.70 L216.71 614.72 L216.80 611.40 L217.85 607.75 L216.21 605.13 L213.86 602.76 L212.86 599.89 L210.15 597.59 L210.64 594.22 L208.63 591.66 L208.10 588.63 L204.47 586.51 L202.13 583.97 L199.98 581.35 L200.43 578.02 L198.45 575.32 L200.25 571.70 L200.34 568.51 L203.16 564.75 L202.46 561.80 L202.10 558.77 L199.46 556.17 L197.61 553.40 L196.93 550.40 L197.21 547.24 L195.92 544.33 L194.66 541.40 L193.47 538.45 L191.89 535.52 L192.54 532.33 L191.83 529.30 L191.98 526.18 L189.13 523.29 L187.31 520.28 L184.71 517.29 L185.20 514.11 L184.23 510.99 L185.61 507.79 L187.33 504.62 L190.90 501.48 L194.14 498.40 L191.97 495.31 L192.91 492.25 L188.29 489.02 L188.30 485.89 L188.32 482.77 L188.70 479.67 L187.77 476.47 L186.82 473.24 L186.80 470.09 L186.16 466.85 L187.43 463.82 L187.42 460.65 L187.05 457.42 L185.17 453.96 L183.75 450.51 L183.08 447.16 L184.42 444.13 L183.95 440.78 L187.64 438.23 L189.65 435.40 L194.09 433.13 L193.31 429.74 L194.93 426.89 L192.45 423.03 L193.03 419.91 L193.83 416.84 L195.62 414.05 L195.81 410.81 L195.43 407.38 L196.13 404.26 L196.02 400.87 L198.03 398.18 L200.45 395.64 L202.55 393.03 L204.89 390.53 L205.41 387.36 L207.14 384.65 L207.46 381.38 L207.86 378.13 L209.61 375.43 L210.65 372.44 L213.85 370.42 L213.81 366.93 L213.82 363.44 L214.22 360.11 L211.43 355.15 L212.78 352.21 L211.97 348.13 L212.76 344.86 L214.79 342.25 L216.85 339.67 L219.37 337.37 L221.79 335.04 L221.88 331.31 L220.93 326.89 L220.65 322.82 L220.95 319.08 L224.58 317.49 L228.53 316.17 L233.69 315.76 L235.83 313.31 L240.63 312.78 L242.86 310.45 L243.99 307.30 L242.16 301.86 L240.71 296.58 L238.43 290.54 L241.29 288.55 L245.46 287.67 L248.82 286.18 L253.93 286.25 L254.95 282.80 L260.94 283.80 L262.09 280.48 L264.24 278.06 L262.14 271.55 L261.64 266.45 L260.72 260.81 L264.51 259.84 L268.67 259.31 L273.27 259.32 L276.94 258.42 L279.40 256.25 L284.32 256.83 L285.21 252.90 L287.97 251.10 L287.25 245.13 L287.39 240.06 L287.38 234.68 L289.87 232.34 L292.84 230.62 L296.43 229.74 L299.59 228.33 L302.34 226.37 L306.22 226.01 L309.02 224.16 L311.10 221.25 L312.72 217.60 L313.64 212.78 L316.36 210.69 L320.51 210.87 L324.34 210.63 L329.28 212.32 L331.89 210.15 L337.13 212.60 L339.56 210.16 L342.35 208.35 L342.32 201.20 L343.63 196.37 L344.35 190.19 L348.31 190.39 L352.57 191.33 L356.69 192.06 L360.91 193.14 L363.44 190.53 L368.29 193.24 L370.51 189.91 L373.58 188.53 L374.88 182.66 L377.27 179.38 L378.59 173.06 L382.12 172.57 L385.17 170.76 L388.66 170.20 L391.65 168.14 L395.97 170.21 L399.57 170.18 L403.93 172.78 L406.98 171.03 L410.42 170.66 L412.97 166.92 L415.98 164.77 L419.53 164.73 L422.88 163.92 L426.32 163.54 L429.37 161.28 L432.68 160.17 L435.95 158.83 L439.42 158.50 L442.35 155.01 L446.06 156.07 L448.74 150.40 L452.36 150.78 L455.67 148.85 L459.30 149.38 L462.65 147.58 L466.38 149.28 L469.97 149.94 L473.76 153.44 L477.37 155.32 L480.76 154.10 L484.23 154.11 L487.56 150.53 L491.05 150.20 L494.56 150.68 L498.05 150.65 L501.55 149.18 L505.08 148.13 L508.62 147.32 L512.15 147.11 L515.73 146.16 L519.31 145.48 L522.94 144.39 L526.70 141.95 L530.28 142.19 L533.84 142.74 L537.45 142.68 L540.97 143.48 L544.23 146.37 L547.43 149.28 L550.40 153.44 L554.07 152.64 L557.44 153.82 L561.56 150.64 L565.34 149.76 L568.64 151.40 L572.16 151.93 L575.68 152.50 L579.49 151.76 L582.99 152.50 L586.63 152.65 L590.10 153.54 L594.35 151.55 L597.46 153.82 L602.41 149.70 L605.48 152.16 L609.31 152.11 L612.38 154.43 L616.33 154.11 L618.80 158.10 L622.05 159.76 L624.26 164.21 L627.65 165.36 L630.84 167.04 L634.92 166.51 L638.72 166.73 L641.87 168.54 L645.13 170.10 L648.31 171.80 L652.27 171.81 L655.68 173.09 L659.05 174.43 L662.10 176.43 L664.49 179.70 L667.30 182.09 L670.07 184.52 L673.43 185.85 L676.25 188.15 L679.66 189.41 L683.36 190.21 L686.01 192.78 L689.40 194.13 L691.18 198.04 L694.77 199.07 L698.82 199.44 L702.18 200.91 L708.08 198.72 L711.41 200.35 L715.55 200.87 L719.50 201.73 L722.05 204.50 L724.81 206.98 L727.08 210.07 L729.70 212.69 L733.48 213.87 L738.32 213.83 L742.71 214.42 L746.53 215.73 L748.06 219.68 L749.05 224.17 L749.33 229.35 L751.24 232.70 L752.97 236.19 L753.80 240.57 L758.23 241.27 L762.21 242.49 L768.73 241.30 L774.67 240.83 L777.76 243.12 L778.57 247.49 L779.69 251.52 L779.08 257.01 L781.78 259.57 L780.91 265.13 L783.41 267.81 L785.98 270.45 L793.07 269.54 L798.14 270.34 L805.11 269.80 L806.14 273.79 L806.41 278.29 L806.69 282.73 L806.16 287.67 L809.16 290.13 L806.87 296.14 L810.98 297.87 L812.08 301.56 L818.57 301.88 L823.44 303.31 L830.08 303.77 L831.94 307.12 L833.91 310.42 L834.12 314.70 L835.25 318.43 L837.31 321.65 L837.38 325.91 L839.07 329.31 L841.40 332.39 L844.97 334.90 L849.30 337.10 L852.01 340.10 L851.70 344.47 L851.25 348.85 L849.18 353.86 L850.40 357.45 L848.71 362.19 L849.37 365.95 L851.69 369.08 L857.30 371.04 L862.75 373.16 L869.14 375.06 L869.57 379.01 L868.51 383.43 L867.96 387.64 L865.20 392.46 L867.82 395.68 L863.60 400.79 L866.18 404.01 L868.11 407.43 L878.21 408.90 L883.74 411.62 L896.57 412.83 L897.70 416.74 L898.74 420.68 L899.74 424.63 L900.75 428.58 L901.67 432.55 L902.63 436.52 L903.52 440.51 L904.39 444.51 L905.20 448.52 L905.96 452.54 L906.65 456.58 L907.29 460.63 L907.95 464.68 L908.49 468.74 L909.07 472.81 L909.57 476.89 L910.03 480.97 L910.47 485.06 L910.83 489.16 L911.20 493.27 L911.45 497.38 L913.20 500.00 L912.93 495.87 L912.61 491.75 L912.26 487.63 L911.86 483.52 L911.40 479.41 L910.93 475.31 L910.39 471.23 L909.85 467.14 L909.24 463.07 L908.60 459.00 L907.94 454.94 L907.19 450.90 L906.44 446.86 L905.63 442.84 L904.78 438.82 L903.89 434.82 L902.96 430.83 L902.00 426.85 L900.99 422.88 L899.96 418.92 L898.88 414.98 L902.77 409.93 L911.50 403.65 L915.30 398.37 L920.01 392.75 L918.67 388.63 L916.73 384.67 L912.58 381.36 L909.86 377.69 L904.85 374.76 L899.93 371.89 L897.48 368.28 L898.49 363.51 L900.75 358.24 L902.73 352.99 L900.96 349.08 L900.58 344.63 L896.48 341.64 L893.63 338.20 L890.44 334.92 L884.69 332.80 L880.43 330.11 L877.40 326.92 L878.45 321.83 L878.02 317.39 L877.65 312.89 L875.62 309.20 L871.65 306.52 L868.38 303.51 L866.30 299.89 L863.03 296.93 L860.74 293.45 L858.92 289.70 L857.20 285.88 L860.21 279.15 L859.19 274.81 L860.05 269.22 L855.91 266.82 L853.77 263.13 L848.40 261.64 L844.72 259.07 L839.19 257.85 L833.16 257.09 L829.34 254.79 L827.96 250.68 L828.74 244.86 L829.36 239.06 L827.00 235.56 L825.26 231.55 L820.84 229.76 L816.70 227.79 L812.46 225.95 L806.65 225.57 L801.43 224.76 L797.71 222.65 L797.56 217.19 L797.42 211.60 L797.77 205.42 L793.56 203.72 L792.23 199.11 L786.44 199.10 L782.97 196.73 L778.42 195.57 L772.30 196.21 L767.30 195.73 L763.58 193.84 L763.45 187.72 L761.12 184.14 L759.93 179.09 L756.29 177.04 L751.73 176.19 L747.82 174.55 L744.55 172.10 L740.81 170.27 L738.70 166.20 L737.12 161.30 L735.55 156.29 L734.10 150.97 L731.12 147.84 L727.90 145.06 L723.28 144.50 L719.04 143.37 L715.40 141.31 L710.23 141.86 L706.66 139.72 L702.04 139.47 L698.24 137.81 L694.31 136.41 L690.71 134.39 L687.19 132.23 L683.27 130.84 L679.42 129.32 L675.36 128.27 L671.77 126.25 L667.77 125.11 L664.50 122.35 L660.46 121.32 L656.30 120.62 L653.95 115.45 L649.17 116.31 L645.88 113.37 L640.87 115.03 L635.69 117.37 L631.65 116.63 L627.09 117.51 L623.03 116.97 L618.83 116.95 L615.22 115.02 L610.48 116.93 L608.20 110.24 L604.08 110.00 L600.84 106.40 L597.16 104.35 L592.82 105.01 L588.87 104.06 L584.84 103.49 L580.91 102.46 L577.08 100.91 L572.71 102.21 L568.90 100.52 L565.30 97.42 L560.89 99.26 L557.08 97.28 L552.43 101.47 L548.27 102.36 L544.03 104.24 L540.04 104.09 L535.84 106.41 L532.09 103.70 L527.73 108.93 L524.20 102.44 L520.13 104.08 L516.30 100.80 L512.35 99.10 L508.33 99.65 L504.31 100.39 L500.32 99.89 L496.32 100.40 L492.29 98.72 L488.32 100.24 L484.32 100.34 L480.14 96.74 L476.33 100.74 L472.18 98.68 L468.51 103.22 L464.85 106.95 L461.01 108.22 L457.27 110.23 L453.60 112.57 L449.65 112.50 L446.02 114.73 L442.11 114.86 L437.73 112.17 L433.84 112.70 L429.50 110.82 L425.56 111.26 L421.93 113.29 L418.00 113.76 L414.19 114.81 L410.25 115.30 L406.42 116.26 L403.04 119.02 L398.27 116.35 L394.78 118.62 L390.90 119.45 L387.70 122.59 L385.26 128.04 L381.83 130.10 L378.77 133.19 L375.27 134.89 L372.27 138.00 L368.03 137.57 L366.35 144.08 L359.58 137.10 L357.00 141.14 L351.70 138.40 L348.74 141.43 L345.14 142.92 L343.05 147.78 L340.19 150.81 L338.14 155.47 L336.46 160.75 L333.79 163.85 L329.96 164.59 L324.65 162.54 L319.45 160.85 L315.58 161.77 L311.69 162.72 L309.21 166.16 L307.12 170.20 L304.81 173.78 L303.68 179.22 L302.25 184.02 L299.81 187.13 L295.26 186.95 L290.87 187.13 L286.99 188.11 L283.89 190.27 L282.17 194.36 L280.39 198.29 L277.30 200.39 L275.05 203.60 L272.26 206.07 L268.84 207.75 L266.10 210.28 L259.34 207.94 L255.57 209.33 L249.99 208.66 L248.76 213.09 L245.46 215.11 L245.13 220.43 L243.28 223.99 L242.66 228.82 L243.00 234.54 L242.17 238.96 L239.47 241.45 L233.55 240.80 L228.46 241.09 L224.09 242.15 L221.95 245.30 L219.63 248.29 L219.79 253.44 L218.26 257.05 L218.65 262.26 L219.17 267.47 L217.79 271.05 L213.79 272.51 L207.94 272.59 L202.63 273.19 L200.21 276.05 L196.98 278.32 L197.03 282.98 L196.25 286.99 L195.69 291.10 L197.51 296.77 L198.05 301.49 L197.09 305.16 L191.63 305.99 L188.35 308.24 L183.79 309.77 L182.27 313.16 L182.16 317.34 L181.56 321.21 L179.53 324.26 L178.53 327.87 L175.07 330.18 L170.94 332.19 L166.86 334.29 L161.87 336.00 L159.38 338.98 L157.28 342.16 L157.61 346.44 L157.06 350.30 L155.41 353.66 L156.00 357.96 L155.00 361.56 L155.07 365.58 L155.00 369.52 L153.81 373.01 L153.66 376.87 L151.94 380.16 L151.94 384.04 L150.56 387.45 L150.06 391.14 L147.60 394.23 L146.76 397.82 L144.56 401.02 L144.07 404.71 L145.21 408.81 L141.62 411.69 L141.69 415.50 L140.97 419.11 L141.34 422.96 L145.99 427.65 L146.14 431.36 L147.99 435.37 L147.48 438.91 L147.93 442.61 L144.38 445.67 L144.33 449.30 L139.84 452.33 L140.29 456.05 L139.75 459.63 L139.56 463.26 L139.98 466.93 L139.33 470.51 L139.38 474.14 L138.46 477.70 L137.98 481.31 L138.71 484.96 L140.02 488.62 L135.59 492.13 L140.14 495.83 L136.80 499.42 L142.33 503.01 L145.15 506.53 L147.53 510.02 L148.13 513.52 L149.97 516.96 L147.79 520.59 L147.47 524.15 L145.55 527.85 L144.64 531.50 L145.17 535.03 L145.82 538.55 L146.24 542.08 L147.63 545.50 L147.02 549.17 L148.61 552.54 L147.95 556.24 L149.51 559.59 L151.66 562.81 L148.95 566.93 L151.65 570.04 L150.87 573.83 L154.37 576.71 L159.45 579.17 L161.65 582.23 L164.92 584.99 L166.15 588.24 L167.32 591.50 L165.53 595.60 L166.01 599.09 L163.81 603.41 L165.16 606.67 L166.84 609.82 L167.58 613.27 L170.32 616.03 L170.88 619.54 L173.04 622.48 L173.53 626.03 L176.32 628.69 L179.79 631.03 L182.39 633.69 L182.21 637.52 L187.64 638.90 L185.34 643.71 L192.21 644.30 L195.62 646.44 L197.45 649.30 L199.41 652.09 L201.21 654.95 L199.43 659.71 L200.64 662.92 L199.12 667.67 L200.53 670.83 L201.21 674.43 L205.59 675.84 L206.33 679.41 L210.71 680.73 L213.83 682.79 L217.88 684.20 L223.01 684.83 L226.66 686.36 L229.18 688.64 L227.77 693.69 L225.82 699.24 L225.20 703.92 L227.10 706.77 L229.00 709.63 L233.47 710.47 L236.95 712.03 L240.56 713.43 L246.01 713.24 L250.41 713.84 L252.99 715.95 L254.62 718.89 L255.88 722.19 L257.31 725.37 L259.27 728.07 L261.64 730.40 L263.63 733.09 L266.47 734.94 L268.91 737.19 L270.47 740.35 L272.48 743.06 L274.10 746.22 L276.75 748.27 L277.51 752.46 L280.55 754.08 L281.62 758.02 L286.41 757.54 L288.36 760.45 L293.14 759.82 L296.71 760.64 L300.66 760.92 L305.79 759.54 L309.70 759.70 L312.35 761.53 L313.02 766.17 L312.88 772.11 L314.15 776.14 L316.74 778.27 L319.71 779.80 L323.70 779.72 L327.46 779.91 L331.13 780.20 L335.93 778.49 L340.31 777.36 L343.46 778.29 L345.99 780.33 L345.32 788.34 L347.66 790.91 L348.41 796.66 L352.67 795.59 L355.72 796.87 L360.32 794.88 L364.13 794.40 L368.13 793.41 L372.63 791.15 L375.92 791.53 L378.86 792.72 L380.25 797.75 L382.53 800.74 L384.61 804.35 L387.64 805.55 L390.97 805.90 L394.58 805.38 L397.97 805.44 L400.99 806.56 L404.52 806.08 L406.40 810.95 L408.73 814.57 L411.17 818.01 L413.34 822.66 L417.21 821.02 L420.27 822.48 L423.97 821.25 L427.54 820.42 L430.67 821.51 L434.38 819.79 L437.52 820.73 L441.08 819.47 L444.36 819.53 L448.27 815.75 L451.07 818.57 L454.75 815.64 L457.60 818.38 L460.74 819.21 L463.96 819.28 L467.18 819.47 L470.32 820.28 L473.55 820.27 L476.70 821.37 L479.93 821.32 L483.12 821.86 L486.20 825.37 L489.53 823.13 L492.77 822.79 L496.04 819.26 L499.24 816.87 L502.39 814.07 L505.56 815.65 L508.64 812.91 L511.69 810.70 L514.82 810.99 L517.96 811.38 L521.09 811.52 L524.32 812.73 L527.44 812.38 L530.51 811.54 L533.75 812.45 L536.95 812.70 L540.10 812.50 L543.17 811.70 L546.42 812.19 L549.43 811.02 L552.83 812.23 L555.91 811.45 L559.13 811.44 L562.80 813.66 L565.62 811.54 L568.55 810.01 L570.73 805.36 L573.32 802.73 L575.24 797.64 L578.82 799.15 L581.09 795.76 L583.56 793.21 L586.28 791.68 L589.82 792.83 L592.47 791.08 L596.22 792.68 L598.99 791.27 L601.80 790.00 L604.98 789.74 L608.20 789.55 L611.21 788.77 L613.81 786.93 L617.07 786.74 L619.59 784.75 L623.11 785.12 L625.88 783.70 L628.79 782.61 L632.64 783.50 L635.32 781.84 L637.48 779.17 L638.92 775.10 L640.74 771.93 L641.46 766.74 L645.01 766.95 L646.75 763.83 L648.43 760.68 L650.35 758.02 L654.03 758.35 L656.02 755.85 L659.81 756.25 L662.24 754.45 L664.61 752.56 L667.32 751.19 L670.14 749.97 L673.18 749.05 L675.08 746.48 L678.13 745.54 L680.17 743.20 L683.18 742.16 L685.57 740.29 L688.15 738.66 L690.36 736.55 L694.63 736.97 L694.61 732.17 L696.29 729.48 L696.67 725.31 L696.89 721.07 L698.95 718.94 L701.14 716.94 L701.69 713.22 L702.13 709.45 L705.35 708.57 L707.30 706.39 L710.60 705.52 L712.85 703.60 L716.54 703.02 L718.20 700.51 L721.76 699.74 L721.75 695.74 L724.17 693.93 L723.34 689.34 L724.31 686.33 L724.09 682.40 L722.55 677.47 L722.65 673.94 L723.92 671.35 L726.21 669.55 L731.55 669.96 L734.85 668.80 L739.06 668.22 L739.16 664.74 L741.61 662.89 L740.49 658.66 L741.25 655.72 L741.04 652.19 L739.23 647.72 L738.92 644.25 L739.96 641.62 L741.77 639.45 L745.78 638.51 L748.33 636.69 L750.68 634.74 L751.78 632.10 L751.27 628.65 L751.32 625.51 L750.96 622.22 L751.83 619.54 L752.75 616.89 L754.40 614.58 L755.46 612.00 L757.56 609.86 L761.47 608.45 L764.90 606.78 L768.76 605.23 L768.63 602.09 L769.81 599.46 L768.36 595.89 L767.92 592.72 L767.20 589.49 L763.97 585.49 L762.08 581.99 L761.76 579.02 L762.73 576.46 L766.64 574.71 L771.44 573.14 L770.78 570.06 L771.82 567.44 L769.36 563.97 L766.77 560.55 L772.75 559.04 L774.71 556.60 L775.60 553.91 L774.72 550.89 L771.21 547.44 L768.87 544.27 L768.18 541.41 L767.66 538.59 L766.59 535.72 L766.69 533.02 L765.84 530.22 L766.19 527.57 L765.04 524.77 L768.43 522.38 L772.58 519.98 L776.53 517.50 L779.90 514.90 L779.59 512.08 L777.05 509.20 L778.23 506.45 L775.87 503.64 L776.85 500.88 L775.39 498.12 L773.98 495.39 L771.75 492.71 L770.50 490.04 L770.22 487.34 L769.25 484.69 L771.10 481.86 L775.69 478.78 L776.42 475.94 L780.59 472.75 L779.41 470.04 L780.20 467.12 L779.95 464.31 L778.14 461.71 L776.71 459.08 L775.65 456.42 L773.12 454.01 L773.18 451.19 L771.66 448.65 L769.04 446.35 L769.12 443.54 L766.57 441.28 L766.60 438.47 L765.29 435.97 L763.95 433.50 L762.96 430.94 L761.70 428.47 L761.16 425.80 L760.29 423.23 L760.47 420.34 L759.00 417.94 L758.85 415.13 L760.15 411.82 L757.47 409.85 L755.81 407.54 L751.76 406.15 L748.77 404.42 L745.27 402.94 L746.12 399.75 L742.75 398.28 L740.39 396.43 L739.63 393.90 L739.73 390.98 L738.39 388.70 L738.88 385.54 L736.82 383.61 L735.83 381.15 L735.55 378.32 L734.88 375.68 L733.50 373.40 L731.44 371.51 L730.35 369.09 L728.97 366.82 L728.80 363.84 L727.01 361.81 L726.32 359.11 L726.94 355.55 L724.77 353.76 L722.69 351.92 L718.22 351.73 L715.09 350.69 L710.09 351.02 L710.80 347.33 L706.73 347.10 L704.73 345.39 L701.99 344.26 L700.82 341.94 L696.96 341.76 L696.83 338.60 L695.68 336.24 L694.90 333.56 L696.02 329.18 L694.73 326.85 L693.16 324.76 L690.68 323.49 L689.52 321.02 L687.45 319.39 L686.42 316.75 L684.58 314.90 L682.46 313.33 L681.50 310.56 L680.07 308.24 L676.13 308.64 L672.77 308.48 L669.01 308.84 L664.80 309.81 L664.12 306.72 L660.97 306.53 L658.51 305.57 L655.25 305.64 L654.68 302.33 L652.21 301.43 L651.15 298.67 L649.01 297.33 L647.23 295.50 L645.55 293.51 L644.48 290.60 L642.54 288.93 L639.63 288.72 L637.70 287.04 L635.25 286.17 L633.36 284.42 L631.56 282.49 L629.08 281.70 L626.94 280.33 L626.36 276.20 L622.21 278.39 L619.95 277.26 L616.28 278.80 L612.63 280.44 L610.46 279.26 L608.29 278.08 L605.23 278.76 L602.17 279.53 L600.68 276.94 L598.16 276.60 L596.44 274.40 L594.17 273.48 L592.29 271.59 L589.75 271.31 L588.12 268.69 L585.66 268.21 L582.72 269.08 L580.05 269.28 L576.22 273.03 L573.96 272.25 L571.18 273.09 L568.89 272.45 L566.70 271.46 L563.87 272.75 L560.91 274.65 L558.33 275.31 L555.80 275.84 L553.56 275.30 L551.60 273.49 L549.60 271.77 L547.42 270.78 L545.22 269.83 L542.82 269.91 L540.31 270.68 L537.94 270.72 L535.92 268.60 L533.94 265.90 L531.99 262.67 L530.04 258.99 L527.56 259.24 L524.97 260.76 L522.42 262.13 L519.64 266.68 L517.24 267.46 L514.85 268.21 L512.50 268.75 L510.20 268.26 L507.83 269.72 L505.45 272.62 L503.17 273.47 L500.90 274.20 L498.64 274.57 L496.38 274.09 L494.10 273.34 L491.85 273.75 L489.56 273.23 L487.28 273.15 L485.07 274.18 L482.84 274.69 L480.49 273.74 L478.01 271.71 L475.45 269.34 L472.63 265.16 L470.30 265.53 L467.77 264.49 L465.67 266.59 L463.35 267.01 L461.19 268.38 L458.99 269.43 L456.95 271.27 L454.84 272.57 L452.50 272.71 L450.42 274.05 L448.27 275.05 L446.55 277.78 L444.38 278.48 L441.90 278.03 L439.01 276.18 L436.26 274.97 L434.13 276.02 L432.56 278.88 L431.19 282.20 L429.59 284.66 L428.11 287.37 L426.34 289.09 L424.71 291.16 L423.17 293.38 L421.43 295.01 L419.64 296.47 L417.94 298.08 L416.49 300.27 L414.84 301.92 L413.51 304.23 L411.41 304.78 L409.12 304.94 L407.08 305.67 L404.74 305.80 L403.84 308.82 L402.18 310.26 L400.58 311.81 L398.42 312.29 L396.03 312.38 L393.29 311.90 L391.96 313.91 L390.53 315.72 L389.83 318.69 L388.24 320.15 L385.39 319.61 L381.88 318.13 L378.62 317.15 L375.02 315.75 L372.38 315.84 L370.29 316.77 L368.49 318.12 L367.68 320.80 L366.14 322.45 L364.58 324.07 L361.86 324.20 L360.34 325.89 L358.29 326.90 L355.11 326.58 L354.63 329.50 L353.38 331.48 L354.19 335.76 L354.02 338.85 L354.79 342.88 L351.62 342.64 L351.99 346.14 L351.22 348.40 L349.91 350.09 L347.24 350.45 L346.08 352.30 L343.17 352.50 L342.26 354.58 L340.55 355.93 L338.28 356.79 L336.09 357.75 L334.91 359.59 L334.16 361.79 L332.73 363.41 L331.42 365.13 L329.09 366.04 L328.09 368.02 L326.48 369.51 L323.57 370.07 L322.75 372.18 L322.69 374.81 L324.00 378.36 L324.47 381.26 L326.61 385.21 L323.26 385.52 L324.41 388.74 L323.84 390.83 L324.25 393.50 L320.96 393.94 L320.83 396.28 L317.97 397.03 L317.57 399.20 L316.49 400.99 L315.03 402.58 L312.87 403.82 L311.78 405.62 L311.97 408.06 L310.50 409.68 L309.92 411.72 L308.16 413.23 L306.94 414.99 L306.16 416.95 L304.71 418.63 L301.98 419.81 L304.47 423.08 L304.88 425.49 L306.73 428.40 L309.37 431.54 L307.42 433.01 L308.09 435.38 L308.64 437.69 L310.25 440.31 L307.59 441.58 L307.83 443.74 L305.77 445.24 L305.74 447.33 L298.78 447.59 L301.72 450.47 L296.42 451.31 L297.44 453.69 L297.97 455.93 L296.35 457.70 L296.79 459.91 L297.99 462.24 L299.92 464.67 L301.22 466.95 L302.34 469.16 L296.69 470.36 L301.41 473.07 L297.38 474.59 L302.53 477.23 L305.85 479.58 L309.44 481.89 L310.73 483.92 L312.63 485.96 L311.68 487.78 L310.06 489.59 L307.91 491.39 L305.53 493.23 L304.23 495.15 L304.46 497.11 L304.88 499.07 L307.34 501.01 L310.19 502.89 L312.78 504.72 L314.90 506.52 L315.68 508.34 L314.78 510.24 L313.16 512.20 L311.11 514.24 L309.33 516.29 L308.33 518.31 L307.64 520.32 L308.79 522.13 L309.44 523.99 L312.40 525.52 L315.02 527.05 L317.90 528.50 L320.19 529.98 L321.06 531.68 L320.54 533.62 L319.02 535.79 L317.23 538.04 L315.91 540.24 L315.09 542.36 L315.13 544.31 L316.59 545.90 L317.39 547.64 L321.62 548.45 L323.83 549.75 L327.47 550.59 L329.27 551.92 L329.98 553.57 L329.64 555.55 L328.39 557.87 L326.91 560.30 L325.56 562.73 L324.91 564.95 L324.97 566.93 L326.72 568.25 L327.74 569.85 L331.63 570.24 L334.41 571.03 L337.86 571.48 L340.42 572.27 L341.55 573.67 L341.38 575.69 L340.27 578.19 L339.82 580.41 L339.13 582.78 L338.64 585.08 L339.00 586.96 L339.93 588.53 L340.98 590.04 L344.85 589.91 L347.74 590.28 L351.37 590.15 L353.91 590.62 L355.43 591.69 L355.40 593.76 L354.72 596.27 L353.90 598.93 L353.17 601.58 L353.11 603.81 L353.83 605.51 L355.62 606.43 L357.11 607.55 L360.79 606.98 L363.48 607.10 L366.82 606.65 L369.48 606.68 L371.03 607.58 L371.60 609.30 L371.25 611.84 L370.82 614.50 L370.53 617.09 L370.59 619.40 L371.17 621.28 L371.89 623.05 L374.39 623.08 L376.27 623.69 L379.64 622.75 L382.56 622.19 L384.98 622.10 L387.02 622.36 L388.70 622.98 L389.58 624.49 L389.84 626.73 L390.06 629.06 L390.24 631.49 L390.63 633.72 L391.58 635.29 L392.71 636.66 L395.15 636.33 L397.16 636.53 L400.29 635.17 L403.05 634.21 L405.44 633.70 L407.67 633.35 L409.33 633.80 L410.31 635.25 L410.68 637.65 L410.95 640.30 L411.50 642.56 L412.10 644.81 L413.27 646.15 L414.61 647.24 L416.86 646.70 L418.82 646.64 L421.64 644.96 L424.26 643.52 L426.48 642.77 L428.50 642.32 L430.13 642.61 L431.32 643.80 L432.00 646.12 L432.75 648.36 L433.49 650.72 L434.42 652.73 L435.73 653.92 L437.10 654.98 L438.32 656.43 L440.61 655.16 L442.37 655.19 L445.27 652.03 L447.75 649.81 L450.08 647.86 L452.11 646.68 L453.71 646.74 L455.15 647.31 L456.15 649.37 L457.10 651.72 L458.04 654.25 L459.08 656.59 L460.41 657.96 L461.87 658.84 L463.31 659.88 L465.11 659.35 L467.11 657.75 L469.05 656.23 L471.47 651.95 L473.32 650.39 L475.19 648.48 L476.84 647.66 L478.21 648.61 L479.49 650.38 L480.71 652.77 L482.02 654.87 L483.36 657.03 L484.85 658.04 L486.37 658.86 L487.91 659.71 L489.53 659.40 L491.24 657.46 L492.88 656.16 L494.61 651.53 L496.18 649.44 L497.71 647.00 L499.19 645.78 L500.65 646.03 L502.13 647.54 L503.66 649.73 L505.22 651.48 L506.83 653.62 L508.43 654.65 L510.03 655.49 L511.63 655.99 L513.22 656.18 L514.56 653.75 L516.02 652.86 L517.01 648.04 L518.23 645.73 L519.27 642.49 L520.46 640.66 L521.86 640.41 L523.44 641.26 L525.24 643.26 L527.02 644.83 L528.87 646.59 L530.55 647.37 L532.17 647.73 L533.79 648.02 L535.39 648.17 L536.46 646.18 L537.65 644.77 L538.05 640.54 L538.72 637.54 L539.33 634.52 L540.19 632.52 L541.42 631.84 L543.08 632.48 L545.04 633.92 L547.05 635.39 L549.05 636.73 L550.86 637.45 L552.49 637.61 L554.03 637.48 L555.73 637.75 L555.97 634.47 L557.28 633.83 L559.05 634.22 L562.73 638.81 L563.79 637.47 L565.76 638.10 L565.16 633.38 L566.03 631.81 L568.07 632.54 L568.92 630.97 L569.91 629.69 L571.06 628.72 L574.20 631.29 L575.64 630.77 L577.64 631.17 L576.64 626.58 L578.47 626.72 L578.57 624.10 L580.03 623.66 L580.22 621.26 L579.68 617.87 L580.63 616.74 L582.82 617.39 L583.99 616.55 L585.46 616.12 L585.88 614.28 L587.28 613.76 L587.55 611.78 L587.97 610.03 L588.90 608.94 L588.03 605.71 L588.28 603.87 L588.29 601.80 L588.91 600.47 L589.18 598.77 L590.53 598.26 L591.45 597.30 L591.90 595.84 L592.31 594.35 L591.62 591.79 L590.76 589.13 L590.58 587.20 L590.06 584.98 L590.76 583.94 L590.98 582.47 L592.71 582.36 L593.10 581.06 L594.25 580.42 L594.17 578.74 L593.81 576.85 L593.23 574.84 L592.91 573.06 L592.85 571.53 L593.04 570.20 L593.72 569.25 L594.08 568.07 L594.46 566.92 L594.61 565.62 L594.72 564.30 L594.68 562.90 L594.43 561.38 L594.09 559.83 L594.18 558.57 L594.30 557.35 L594.83 556.38 L595.24 555.34 L595.37 554.15 L595.36 552.89 L594.96 551.43 L594.96 550.21 L594.68 548.86 L594.95 547.80 L595.18 546.73 L595.46 545.68 L595.71 544.63 L595.80 543.51 L595.89 542.40 L595.76 541.21 L595.75 540.07 L595.63 538.91 L595.72 537.83 L595.82 536.77 L595.95 535.72 L596.06 534.67 L596.05 533.59 L596.09 532.52 L595.94 531.41 L595.96 530.35 L595.91 529.29 L595.92 528.24 L595.93 527.21 L595.97 526.19 L595.97 525.16 L595.95 524.13 L595.89 523.10 L595.79 522.06 L595.72 521.04 L595.63 520.02 L595.55 519.01 L595.49 518.01 L595.43 517.01 L595.32 516.01 L595.24 515.02 L595.08 514.02 L594.95 513.03 L594.80 512.04 L594.65 511.06 L594.51 510.09 L594.33 509.12 L594.18 508.15 L593.99 507.19 L593.80 506.23 L593.60 505.28 L593.38 504.33 L593.18 503.39 L592.93 502.45 L592.71 501.52 L592.45 500.59 Z"/>
  <svg class="pausebutton" id="pausebutton">
    <circle cx="500" cy="500" id="pausestart" class="pausestart" r="52.65"/>
    <rect height="50.02" width="10.00" y="473.68" rx="2.00" ry="2.00" x="479.99" class="pausesymbol"/>
    <rect height="50.02" width="10.00" y="473.68" rx="2.00" ry="2.00" x="510.00" class="pausesymbol"/>
    <polygon points="530.01,500 479.99,530.01 479.99,469.99" class="playsymbol"/>
  </svg>
  <polygon id="playback-head" class="playback-head" points="912.475,500 892.475,540 932.475,540"/>
</svg>