<?xml-stylesheet href="../../style/waveformjs.css" type="text/css"?>
<svg xmlns="http://www.w3.org/2000/svg" xmlns:xlink="http://www.w3.org/1999/xlink" width="100%" height="100%" viewBox="0 0 1000 1000">
  <path class="svg-wave" id="sp" d="M597.36 500.00 L597.56 500.98 L597.71 501.95 L597.84 502.94 L598.07 503.92 L598.20 504.91 L598.30 505.91 L598.44 506.90 L598.53 507.90 L598.62 508.90 L598.72 509.91 L598.74 510.91 L598.78 511.91 L598.89 512.93 L598.92 513.94 L598.95 514.95 L599.04 515.98 L599.06 517.01 L599.03 518.02 L599.01 519.04 L599.00 520.07 L598.96 521.09 L598.95 522.13 L598.91 523.16 L598.85 524.19 L598.79 525.23 L598.71 526.26 L598.61 527.29 L598.51 528.33 L598.39 529.36 L598.30 530.41 L598.13 531.43 L597.99 532.47 L597.81 533.50 L597.66 534.55 L597.47 535.58 L597.31 536.63 L597.15 537.68 L596.92 538.71 L596.75 539.77 L596.54 540.82 L596.27 541.84 L596.02 542.88 L595.74 543.91 L595.42 544.92 L595.10 545.94 L594.80 546.97 L594.49 548.00 L594.16 549.02 L593.86 550.07 L593.53 551.10 L593.19 552.13 L592.83 553.15 L592.45 554.17 L592.03 555.17 L591.62 556.17 L591.18 557.16 L590.71 558.14 L590.23 559.12 L589.76 560.10 L589.26 561.07 L588.77 562.04 L588.24 562.99 L587.67 563.92 L587.08 564.84 L586.46 565.72 L585.82 566.61 L585.26 567.55 L584.61 568.42 L583.94 569.28 L583.26 570.13 L582.55 570.95 L581.83 571.77 L580.98 572.47 L580.21 573.24 L579.54 574.10 L578.74 574.84 L577.94 575.58 L577.23 576.40 L576.51 577.22 L575.77 578.02 L575.01 578.79 L574.26 579.58 L573.42 580.28 L572.56 580.95 L571.71 581.63 L570.89 582.34 L570.21 583.22 L569.42 583.98 L568.70 584.81 L568.09 585.80 L567.17 586.40 L566.35 587.13 L565.51 587.84 L564.68 588.56 L563.77 589.18 L563.01 590.00 L562.21 590.78 L561.46 591.64 L560.68 592.45 L559.90 593.28 L559.02 593.98 L558.16 594.69 L557.37 595.53 L556.42 596.11 L555.55 596.85 L554.69 597.59 L553.72 598.14 L552.72 598.66 L551.65 599.03 L550.54 599.29 L549.63 599.98 L548.70 600.61 L547.80 601.33 L547.00 602.26 L546.02 602.84 L544.95 603.20 L543.97 603.78 L542.88 604.09 L541.67 604.09 L540.59 604.41 L539.61 604.98 L538.57 605.41 L537.54 605.85 L536.62 606.64 L535.82 607.81 L534.89 608.62 L533.81 608.98 L532.79 609.57 L531.74 610.06 L530.44 609.64 L529.25 609.61 L528.15 609.89 L526.89 609.50 L525.75 609.56 L524.72 610.12 L523.65 610.54 L522.53 610.68 L521.43 610.94 L520.37 611.45 L519.36 612.26 L518.24 612.45 L517.05 612.20 L516.05 613.25 L514.98 613.86 L513.80 613.65 L512.70 614.12 L511.63 615.02 L510.52 615.59 L509.42 616.39 L508.29 616.95 L507.11 616.86 L505.93 616.69 L504.77 616.77 L503.59 616.46 L502.42 616.43 L501.26 616.74 L500.09 616.34 L498.93 616.12 L497.78 615.77 L496.63 615.42 L495.51 614.58 L494.41 613.43 L493.34 612.37 L492.29 611.17 L491.29 609.72 L490.21 609.44 L489.07 609.82 L487.91 610.23 L486.70 611.00 L485.39 612.49 L484.22 612.63 L483.14 612.16 L482.02 611.97 L480.97 611.40 L479.92 610.84 L478.77 610.88 L477.62 610.84 L476.30 611.63 L475.10 611.75 L473.78 612.40 L472.46 612.91 L471.39 612.42 L470.09 612.80 L468.79 613.10 L467.70 612.65 L466.57 612.34 L465.33 612.40 L464.32 611.69 L463.24 611.21 L461.88 611.59 L460.52 611.90 L459.30 611.78 L457.68 612.70 L456.43 612.61 L455.40 611.91 L454.14 611.82 L453.00 611.41 L451.88 610.95 L450.79 610.43 L449.53 610.29 L448.64 609.33 L447.49 608.92 L446.27 608.67 L445.26 607.97 L443.96 607.85 L442.77 607.49 L441.60 607.10 L440.83 605.97 L440.09 604.83 L439.18 603.99 L438.38 602.98 L437.59 601.97 L436.39 601.64 L435.40 600.96 L434.37 600.34 L432.98 600.27 L431.94 599.65 L431.04 598.84 L429.92 598.33 L428.92 597.65 L427.78 597.16 L426.75 596.52 L425.93 595.59 L424.74 595.16 L423.61 594.62 L422.85 593.63 L421.80 592.99 L420.87 592.21 L419.90 591.47 L419.02 590.63 L418.14 589.79 L417.35 588.86 L416.24 588.27 L415.43 587.35 L414.83 586.23 L414.05 585.30 L413.56 584.09 L412.59 583.35 L412.09 582.16 L411.10 581.43 L409.96 580.84 L409.75 579.41 L409.07 578.41 L408.43 577.38 L407.06 576.95 L406.15 576.14 L405.11 575.42 L403.15 575.41 L402.02 574.73 L401.71 573.42 L401.36 572.16 L400.74 571.10 L400.68 569.65 L400.26 568.47 L398.76 568.02 L397.39 567.46 L395.96 566.92 L394.48 566.39 L393.17 565.73 L392.92 564.42 L392.06 563.47 L391.93 562.11 L391.73 560.79 L391.24 559.64 L390.68 558.53 L389.07 557.98 L388.15 557.04 L387.54 555.94 L386.82 554.90 L386.70 553.56 L386.29 552.37 L385.63 551.29 L384.48 550.43 L383.15 549.62 L381.51 548.93 L380.19 548.07 L378.87 547.20 L378.66 545.89 L378.40 544.61 L378.24 543.29 L378.33 541.89 L377.80 540.71 L377.25 539.53 L377.04 538.25 L376.24 537.15 L375.60 535.99 L375.84 534.58 L375.72 533.27 L374.63 532.22 L373.81 531.09 L373.62 529.80 L372.83 528.65 L371.66 527.57 L372.18 526.12 L372.27 524.78 L371.17 523.65 L370.76 522.40 L370.50 521.11 L370.03 519.85 L369.61 518.59 L369.22 517.31 L369.54 515.94 L369.64 514.61 L369.24 513.33 L368.99 512.03 L369.41 510.68 L369.13 509.39 L368.37 508.12 L367.67 506.83 L367.09 505.53 L366.37 504.22 L365.02 502.91 L364.23 501.57 L363.97 500.22 L363.43 498.85 L362.84 497.47 L363.34 496.12 L363.36 494.75 L363.75 493.40 L364.06 492.05 L364.52 490.72 L364.26 489.34 L364.19 487.96 L363.69 486.54 L363.47 485.14 L363.34 483.74 L364.15 482.46 L364.26 481.09 L364.73 479.78 L365.11 478.45 L365.45 477.12 L366.35 475.90 L366.42 474.53 L366.88 473.24 L367.12 471.90 L366.39 470.35 L366.18 468.89 L366.27 467.50 L365.54 465.90 L365.90 464.56 L366.90 463.39 L367.47 462.12 L367.42 460.67 L368.55 459.57 L369.43 458.41 L369.58 457.01 L370.15 455.75 L371.12 454.64 L370.91 453.11 L370.88 451.63 L370.90 450.16 L371.15 448.77 L372.02 447.63 L372.75 446.44 L373.48 445.25 L374.19 444.06 L374.52 442.70 L374.43 441.13 L374.96 439.84 L374.49 438.06 L374.40 436.45 L374.39 434.86 L374.28 433.20 L375.20 432.08 L375.74 430.75 L376.46 429.52 L377.94 428.74 L378.99 427.73 L380.14 426.78 L381.40 425.91 L382.22 424.77 L382.28 423.14 L382.24 421.42 L382.13 419.63 L382.26 417.99 L382.48 416.38 L382.35 414.50 L383.42 413.49 L384.27 412.31 L384.36 410.55 L385.37 409.48 L385.99 408.11 L386.44 406.58 L387.42 405.48 L388.29 404.29 L389.15 403.09 L389.79 401.69 L390.54 400.37 L392.05 399.76 L393.22 398.84 L394.07 397.61 L394.78 396.24 L396.16 395.53 L397.16 394.44 L398.26 393.47 L399.52 392.66 L400.40 391.45 L401.43 390.38 L403.00 389.94 L403.67 388.46 L404.48 387.14 L405.60 386.17 L406.87 385.39 L407.67 384.03 L408.62 382.84 L409.89 382.05 L410.73 380.70 L411.50 379.22 L412.58 378.16 L413.67 377.11 L414.98 376.36 L416.26 375.57 L417.59 374.87 L419.22 374.63 L420.36 373.65 L421.15 372.08 L422.53 371.45 L423.72 370.52 L424.82 369.43 L425.88 368.23 L426.99 367.11 L428.26 366.28 L429.40 365.19 L430.70 364.38 L432.33 364.24 L433.85 363.90 L435.28 363.37 L436.46 362.32 L437.91 361.85 L438.85 360.23 L439.97 358.95 L441.49 358.62 L442.61 357.31 L444.27 357.33 L445.86 357.21 L447.18 356.37 L448.62 355.84 L449.86 354.74 L451.16 353.79 L452.50 352.91 L453.62 351.31 L455.13 350.95 L456.47 349.98 L457.79 348.88 L459.18 348.02 L460.59 347.20 L462.03 346.43 L463.59 346.14 L465.13 345.81 L466.63 345.26 L468.21 345.08 L469.93 345.64 L471.41 344.98 L472.90 344.33 L474.56 344.72 L476.13 344.58 L477.68 344.29 L479.29 344.46 L480.83 344.17 L482.39 343.93 L483.95 343.75 L485.47 343.17 L486.95 341.95 L488.47 341.02 L489.99 339.80 L491.52 338.36 L493.11 337.67 L494.72 336.95 L496.34 336.74 L497.97 336.36 L499.61 337.03 L501.25 335.91 L502.90 335.33 L504.54 335.63 L506.21 334.94 L507.89 334.42 L509.53 334.79 L511.20 334.62 L512.82 335.18 L514.50 334.90 L516.17 334.90 L517.82 335.04 L519.49 335.03 L521.26 334.29 L522.97 334.12 L524.68 334.05 L526.39 333.98 L528.06 334.14 L529.74 334.30 L531.37 334.78 L532.82 336.11 L534.17 337.79 L535.86 337.81 L537.36 338.70 L538.90 339.38 L540.77 338.73 L542.53 338.59 L544.37 338.17 L546.18 337.94 L547.81 338.37 L549.31 339.22 L550.66 340.54 L552.39 340.64 L554.07 340.90 L555.62 341.56 L556.97 342.77 L558.54 343.35 L560.01 344.17 L561.97 343.76 L563.37 344.79 L564.91 345.44 L567.00 344.82 L568.60 345.39 L570.36 345.62 L571.88 346.36 L573.40 347.12 L575.20 347.30 L576.35 348.80 L577.52 350.22 L578.81 351.39 L580.04 352.64 L581.42 353.62 L582.96 354.29 L584.47 355.03 L586.00 355.74 L587.30 356.84 L588.60 357.93 L590.17 358.58 L591.67 359.35 L593.07 360.28 L594.67 360.91 L596.86 360.71 L598.84 360.84 L600.84 360.99 L602.67 361.41 L603.57 363.08 L605.37 363.55 L607.45 363.71 L607.64 366.24 L608.80 367.53 L610.31 368.40 L611.02 370.21 L612.00 371.69 L613.44 372.63 L615.32 373.10 L617.56 373.20 L619.81 373.34 L621.58 374.02 L622.80 375.27 L623.85 376.70 L625.04 377.98 L626.12 379.36 L626.68 381.23 L628.42 381.99 L630.08 382.84 L630.62 384.70 L632.17 385.67 L633.98 386.42 L634.87 387.96 L635.81 389.46 L637.29 390.52 L638.09 392.12 L638.96 393.66 L640.55 394.66 L641.37 396.23 L643.17 397.10 L644.99 397.97 L646.58 399.04 L647.81 400.35 L649.37 401.46 L650.10 403.12 L650.70 404.85 L651.90 406.20 L652.53 407.91 L652.99 409.71 L653.61 411.40 L655.21 412.53 L656.15 414.05 L657.53 415.33 L658.77 416.70 L660.01 418.08 L660.71 419.74 L661.79 421.21 L662.04 423.08 L662.85 424.69 L664.40 425.96 L665.53 427.43 L666.29 429.07 L667.54 430.51 L668.44 432.10 L669.28 433.72 L669.55 435.56 L669.86 437.38 L670.83 438.96 L671.33 440.71 L672.15 442.34 L673.06 443.95 L673.84 445.62 L675.03 447.16 L675.89 448.82 L676.04 450.68 L677.44 452.19 L677.75 454.01 L677.84 455.88 L678.19 457.68 L679.12 459.35 L679.56 461.13 L679.77 462.96 L681.02 464.59 L681.66 466.34 L682.30 468.11 L683.15 469.84 L684.14 471.57 L684.65 473.38 L685.46 475.15 L684.81 477.12 L685.70 478.89 L686.14 480.72 L685.72 482.64 L685.61 484.52 L687.40 486.26 L687.20 488.16 L686.77 490.06 L688.54 491.85 L688.50 493.74 L688.18 495.64 L689.88 497.50 L690.81 499.39 L690.27 501.30 L691.06 503.21 L691.41 505.13 L690.57 507.02 L690.80 508.94 L690.50 510.83 L690.55 512.75 L690.29 514.65 L690.50 516.58 L690.12 518.46 L690.22 520.40 L690.65 522.37 L689.48 524.16 L689.53 526.09 L690.04 528.10 L690.18 530.07 L689.15 531.85 L689.43 533.85 L690.00 535.91 L689.47 537.78 L689.30 539.72 L689.27 541.69 L688.55 543.51 L687.97 545.36 L688.24 547.43 L688.23 549.43 L687.62 551.28 L688.40 553.53 L688.11 555.48 L687.14 557.24 L687.52 559.41 L687.20 561.37 L686.76 563.31 L686.55 565.32 L686.46 567.39 L685.32 569.08 L684.43 570.86 L684.22 572.90 L682.53 574.35 L681.72 576.15 L681.01 577.99 L678.90 579.21 L678.69 581.26 L678.65 583.41 L677.91 585.24 L677.00 586.99 L677.76 589.58 L677.11 591.49 L675.94 593.12 L675.45 595.12 L673.94 596.57 L672.60 598.09 L670.95 599.43 L669.82 601.06 L669.20 603.00 L668.00 604.58 L667.18 606.41 L666.99 608.65 L665.78 610.24 L664.80 611.98 L664.16 613.96 L663.52 615.95 L661.88 617.24 L660.55 618.75 L659.79 620.67 L658.83 622.46 L657.40 623.89 L656.23 625.52 L655.12 627.19 L653.33 628.32 L652.31 630.08 L651.55 632.07 L649.96 633.34 L648.72 634.93 L647.66 636.69 L645.69 637.59 L643.69 638.45 L642.37 639.95 L640.40 640.80 L638.68 641.88 L638.83 644.91 L636.34 645.18 L635.58 647.30 L635.60 650.31 L633.72 651.24 L633.44 654.00 L632.31 655.82 L631.13 657.60 L629.87 659.30 L628.71 661.14 L627.45 662.87 L625.85 664.19 L624.16 665.38 L622.63 666.79 L620.46 667.33 L618.77 668.51 L617.38 670.12 L615.39 670.87 L613.43 671.64 L612.21 673.54 L610.57 674.81 L608.85 675.97 L607.43 677.62 L605.68 678.73 L603.95 679.88 L602.53 681.59 L600.79 682.76 L598.85 683.56 L597.17 684.85 L594.99 685.17 L593.10 686.04 L591.52 687.55 L589.61 688.39 L587.63 689.08 L585.84 690.19 L583.96 691.09 L582.03 691.89 L580.14 692.78 L578.40 694.05 L576.79 695.68 L575.05 697.00 L573.15 697.94 L571.17 698.69 L569.34 699.84 L567.60 701.30 L565.40 701.41 L563.50 702.43 L561.72 703.86 L559.46 703.73 L557.38 704.16 L555.75 706.26 L553.50 706.11 L551.35 706.28 L549.50 707.70 L547.32 707.72 L545.41 708.98 L543.33 709.48 L541.10 709.21 L539.12 710.25 L537.18 711.53 L534.94 711.18 L532.83 711.55 L530.83 712.64 L528.76 713.34 L526.52 712.79 L524.46 713.65 L522.41 714.75 L520.26 714.94 L518.18 715.97 L516.01 716.08 L513.84 716.05 L511.69 716.28 L509.51 716.18 L507.35 716.22 L505.18 716.13 L503.04 717.48 L500.87 717.62 L498.69 717.52 L496.50 718.75 L494.34 717.53 L492.16 717.64 L489.92 718.98 L487.78 717.96 L485.55 718.58 L483.26 719.73 L481.03 720.05 L478.89 719.19 L476.64 719.48 L474.42 719.48 L472.26 718.95 L470.10 718.48 L467.81 718.91 L465.56 718.95 L463.49 717.92 L461.24 717.93 L459.11 717.27 L456.95 716.80 L454.59 717.31 L452.35 717.13 L450.19 716.63 L447.79 717.10 L445.61 716.61 L443.61 715.41 L441.38 715.12 L439.20 714.65 L437.12 713.82 L434.59 714.47 L432.34 714.15 L430.21 713.44 L427.69 713.88 L425.41 713.55 L423.09 713.32 L421.11 712.16 L418.86 711.70 L416.65 711.13 L414.62 710.08 L412.40 709.52 L410.00 709.35 L407.95 708.34 L405.88 707.41 L403.67 706.74 L401.82 705.34 L399.68 704.52 L397.57 703.66 L395.62 702.46 L393.71 701.19 L391.58 700.35 L389.77 698.92 L387.43 698.44 L385.13 697.85 L383.39 696.30 L381.25 695.44 L379.04 694.65 L377.40 692.97 L375.51 691.67 L373.52 690.53 L371.12 690.00 L369.64 688.11 L367.89 686.61 L366.13 685.15 L364.56 683.44 L362.48 682.40 L360.80 680.84 L358.85 679.62 L356.53 678.86 L355.14 676.94 L352.92 676.03 L350.82 674.97 L349.48 673.00 L347.52 671.75 L345.19 670.91 L343.44 669.41 L341.38 668.23 L339.57 666.77 L337.38 665.70 L335.92 663.87 L334.15 662.36 L332.25 660.97 L330.68 659.25 L329.68 657.02 L328.22 655.22 L327.68 652.60 L326.01 651.00 L323.78 649.87 L323.31 647.25 L320.60 646.50 L319.12 644.72 L317.73 642.86 L315.75 641.46 L314.76 639.30 L312.49 638.09 L310.26 636.83 L308.93 634.90 L307.43 633.10 L305.45 631.61 L303.22 630.27 L302.08 628.20 L300.53 626.39 L299.11 624.49 L298.13 622.32 L296.82 620.36 L295.04 618.66 L293.25 616.95 L292.18 614.83 L290.43 613.07 L289.77 610.73 L290.03 607.92 L288.95 605.82 L288.22 603.55 L287.43 601.32 L285.83 599.46 L283.63 597.87 L282.11 595.94 L280.66 593.97 L279.02 592.07 L278.82 589.57 L278.14 587.27 L276.76 585.25 L276.54 582.78 L275.39 580.66 L273.60 578.76 L272.57 576.58 L271.77 574.31 L270.40 572.23 L269.64 569.94 L269.33 567.52 L268.05 565.39 L267.33 563.09 L266.98 560.69 L265.24 558.64 L264.12 556.42 L264.17 553.92 L263.78 551.53 L263.17 549.19 L262.80 546.80 L261.35 544.61 L260.47 542.30 L260.74 539.79 L259.86 537.47 L258.47 535.21 L258.91 532.69 L258.58 530.28 L256.96 528.02 L256.92 525.56 L256.54 523.14 L256.43 520.70 L256.13 518.27 L256.27 515.81 L255.36 513.41 L255.57 510.95 L256.18 508.48 L255.02 506.07 L254.15 503.63 L254.06 501.18 L253.30 498.71 L252.87 496.24 L252.32 493.75 L252.41 491.28 L252.78 488.81 L253.05 486.35 L253.02 483.87 L252.46 481.34 L253.12 478.91 L253.70 476.48 L253.23 473.94 L254.48 471.59 L254.26 469.07 L254.42 466.59 L254.58 464.11 L253.44 461.42 L252.87 458.79 L253.23 456.31 L253.63 453.84 L253.30 451.22 L254.30 448.86 L255.03 446.45 L256.17 444.14 L256.64 441.68 L257.12 439.22 L257.55 436.74 L257.93 434.25 L258.75 431.87 L258.52 429.19 L259.37 426.82 L260.05 424.40 L260.39 421.86 L260.50 419.24 L261.27 416.84 L262.66 414.65 L262.75 411.99 L263.52 409.58 L264.68 407.31 L265.31 404.84 L265.88 402.33 L266.02 399.63 L266.04 396.86 L267.09 394.52 L267.73 392.00 L268.42 389.49 L269.88 387.35 L271.24 385.17 L272.40 382.89 L273.33 380.48 L273.63 377.73 L274.94 375.52 L275.32 372.78 L276.17 370.29 L276.78 367.64 L277.69 365.16 L279.18 363.02 L280.83 360.99 L283.17 359.41 L285.08 357.58 L286.52 355.44 L287.91 353.27 L288.69 350.66 L289.89 348.34 L290.39 345.49 L292.25 343.63 L294.11 341.78 L295.90 339.88 L297.84 338.11 L300.12 336.63 L301.25 334.21 L303.21 332.48 L305.36 330.93 L306.78 328.74 L308.14 326.48 L309.66 324.38 L311.24 322.30 L312.77 320.17 L314.23 317.97 L316.16 316.22 L318.15 314.54 L319.99 312.71 L321.90 310.94 L323.71 309.08 L325.34 307.01 L327.38 305.38 L328.91 303.18 L330.75 301.31 L332.72 299.61 L333.93 296.97 L335.58 294.83 L337.86 293.47 L339.84 291.73 L342.65 291.10 L345.81 290.99 L347.71 289.18 L350.45 288.55 L353.22 287.99 L354.09 284.69 L356.62 283.79 L359.11 282.87 L359.26 278.27 L361.29 276.56 L363.34 274.87 L364.43 271.55 L366.62 270.03 L368.51 267.97 L370.90 266.79 L372.92 264.91 L374.99 263.12 L377.59 262.31 L379.83 260.82 L382.24 259.65 L385.05 259.32 L387.55 258.37 L390.13 257.60 L392.46 256.30 L394.65 254.64 L396.95 253.22 L399.36 252.06 L401.75 250.81 L404.35 250.13 L406.76 248.92 L409.52 248.69 L411.80 247.12 L414.09 245.51 L416.31 243.67 L418.96 243.09 L421.36 241.75 L423.83 240.56 L426.41 239.74 L429.16 239.56 L431.75 238.81 L434.49 238.61 L436.92 237.18 L439.52 236.43 L442.22 236.12 L444.79 235.23 L447.39 234.42 L450.06 233.98 L452.72 233.50 L455.34 232.75 L457.85 231.26 L460.53 230.77 L463.19 230.13 L465.95 230.25 L468.70 230.36 L471.41 230.16 L474.02 229.05 L476.72 228.65 L479.43 228.28 L482.08 227.18 L484.85 227.63 L487.58 227.69 L490.27 226.49 L493.00 226.47 L495.73 225.87 L498.47 225.19 L501.22 225.35 L503.96 225.43 L506.71 225.44 L509.47 225.13 L512.26 224.30 L515.00 224.71 L517.71 225.44 L520.51 224.94 L523.25 225.26 L525.97 225.81 L528.79 225.32 L531.66 224.55 L534.46 224.50 L537.22 224.79 L540.03 224.76 L542.90 224.41 L545.62 225.05 L548.30 225.90 L551.06 226.28 L553.85 226.54 L556.53 227.32 L559.45 227.01 L561.92 228.74 L564.75 228.87 L567.76 228.33 L570.49 228.94 L573.50 228.55 L576.37 228.72 L579.21 229.07 L581.79 230.29 L584.52 230.99 L587.30 231.56 L589.88 232.73 L592.58 233.57 L595.42 234.01 L597.87 235.53 L600.50 236.55 L603.17 237.45 L605.74 238.63 L608.46 239.44 L611.26 240.07 L614.09 240.66 L616.42 242.37 L619.12 243.27 L622.48 242.80 L624.68 244.78 L627.38 245.73 L630.28 246.31 L632.80 247.65 L635.64 248.39 L638.33 249.43 L641.02 250.50 L643.56 251.82 L646.54 252.41 L648.59 254.59 L650.76 256.53 L653.26 257.93 L655.57 259.64 L658.00 261.15 L660.41 262.71 L663.13 263.81 L665.61 265.26 L667.88 267.03 L670.27 268.63 L672.89 269.93 L675.94 270.68 L678.40 272.22 L680.94 273.68 L683.63 274.96 L685.41 277.36 L687.44 279.45 L689.32 281.71 L691.36 283.76 L693.42 285.78 L695.72 287.55 L698.00 289.34 L700.77 290.63 L703.06 292.43 L705.29 294.31 L707.03 296.68 L708.82 298.98 L710.58 301.30 L712.56 303.41 L714.02 306.00 L715.45 308.59 L718.23 309.99 L720.70 311.69 L722.33 314.11 L724.14 316.38 L726.11 318.51 L727.73 320.92 L729.59 323.14 L731.75 325.15 L733.45 327.50 L735.93 329.29 L737.28 331.90 L738.52 334.58 L741.09 336.34 L742.39 338.98 L743.78 341.54 L745.49 343.90 L746.13 346.93 L747.78 349.32 L749.81 351.49 L749.23 355.19 L750.41 357.83 L753.66 359.32 L754.78 362.01 L756.31 364.48 L758.87 366.42 L761.21 368.50 L763.87 370.46 L765.85 372.77 L767.25 375.37 L768.52 378.03 L770.54 380.36 L772.53 382.72 L773.86 385.38 L775.10 388.09 L776.95 390.55 L778.22 393.25 L779.40 395.99 L780.30 398.84 L780.83 401.81 L782.13 404.51 L783.05 407.34 L784.36 410.05 L786.60 412.48 L786.78 415.55 L787.27 418.52 L788.86 421.18 L789.13 424.21 L790.18 427.02 L792.09 429.64 L793.37 432.43 L793.34 435.52 L794.63 438.32 L794.13 441.49 L794.23 444.52 L794.66 447.49 L794.96 450.47 L796.12 453.31 L797.45 456.15 L798.18 459.08 L798.22 462.11 L798.78 465.07 L799.32 468.04 L799.27 471.07 L799.30 474.08 L800.14 477.03 L801.29 479.97 L801.94 482.96 L801.76 486.00 L802.24 489.00 L802.04 492.03 L801.72 495.06 L802.06 498.08 L801.90 501.10 L802.25 504.12 L802.66 507.15 L802.64 510.18 L803.11 513.23 L804.25 516.33 L803.58 519.34 L803.30 522.37 L803.85 525.47 L803.00 528.45 L802.99 531.51 L802.53 534.53 L803.29 537.69 L802.76 540.70 L802.35 543.73 L803.14 546.94 L802.70 549.98 L802.71 553.09 L802.48 556.18 L802.45 559.31 L801.97 562.35 L800.56 565.20 L799.31 568.07 L799.35 571.24 L798.89 574.29 L798.56 577.39 L797.89 580.40 L797.69 583.55 L796.60 586.46 L795.30 589.29 L795.16 592.48 L794.09 595.38 L793.78 598.54 L793.87 601.85 L793.33 604.96 L793.33 608.28 L792.43 611.29 L791.23 614.18 L789.60 616.89 L789.26 620.13 L788.48 623.20 L786.74 625.86 L785.91 628.93 L785.08 632.00 L783.16 634.56 L781.57 637.28 L780.08 640.04 L778.75 642.87 L777.33 645.66 L776.20 648.61 L774.71 651.37 L773.40 654.23 L772.43 657.30 L770.43 659.77 L769.40 662.82 L768.02 665.66 L766.02 668.13 L764.61 670.97 L763.07 673.73 L761.46 676.44 L760.93 679.90 L758.72 682.22 L757.11 684.96 L755.83 687.95 L753.13 689.90 L750.70 692.02 L749.37 694.99 L747.42 697.49 L746.09 700.48 L744.71 703.46 L742.55 705.81 L741.16 708.81 L739.34 711.46 L736.94 713.60 L734.93 716.08 L732.68 718.35 L730.86 721.02 L729.20 723.86 L726.89 726.09 L725.01 728.74 L722.96 731.24 L720.00 732.78 L717.70 735.02 L715.75 737.64 L712.69 739.02 L710.02 740.82 L708.28 743.71 L706.02 746.01 L702.91 747.27 L700.32 749.16 L698.61 752.15 L695.88 753.86 L693.21 755.66 L691.58 758.84 L689.39 761.30 L687.09 763.64 L685.07 766.40 L682.07 767.76 L679.18 769.26 L676.31 770.77 L673.50 772.38 L670.41 773.53 L667.73 775.31 L665.00 777.03 L662.44 779.05 L660.13 781.52 L657.26 783.02 L654.26 784.29 L651.68 786.33 L647.94 786.14 L643.90 785.29 L641.27 787.17 L638.46 788.73 L634.58 787.98 L633.21 792.64 L630.36 794.15 L626.94 794.35 L625.18 798.44 L621.91 798.99 L618.73 799.74 L616.61 803.18 L613.92 805.28 L611.13 807.15 L608.12 808.44 L604.99 809.38 L602.22 811.42 L599.13 812.51 L595.72 812.56 L592.75 814.05 L589.91 816.05 L586.85 817.29 L583.58 817.79 L580.31 818.29 L577.11 819.01 L573.76 819.10 L570.50 819.50 L567.44 820.84 L564.16 821.18 L560.97 821.93 L557.75 822.53 L554.54 823.23 L551.29 823.64 L548.02 823.94 L544.89 825.21 L541.78 826.80 L538.60 827.91 L535.42 829.26 L532.15 829.79 L528.87 830.40 L525.55 830.39 L522.18 829.80 L518.88 829.85 L515.57 829.79 L512.28 830.35 L509.00 831.21 L505.69 831.51 L502.38 832.10 L499.06 832.57 L495.74 832.11 L492.41 832.42 L489.07 832.73 L485.74 832.68 L482.40 832.89 L479.05 833.01 L475.71 832.97 L472.39 832.54 L469.08 832.15 L465.74 832.00 L462.32 832.53 L458.92 832.72 L455.73 831.35 L452.32 831.53 L448.90 831.73 L445.71 830.47 L442.29 830.57 L438.90 830.47 L435.46 830.55 L432.35 828.96 L429.11 828.04 L425.66 828.06 L422.20 828.10 L418.98 827.07 L415.83 825.78 L412.33 825.84 L408.89 825.61 L405.82 824.07 L402.80 822.39 L399.25 822.45 L395.82 822.07 L392.69 820.78 L389.55 819.52 L386.17 818.91 L382.59 818.85 L379.23 818.12 L375.93 817.22 L372.44 816.75 L368.93 816.30 L365.83 814.86 L363.10 812.54 L359.62 811.98 L356.42 810.74 L353.46 809.00 L350.03 808.23 L346.81 807.00 L343.95 805.07 L340.64 804.00 L337.60 802.40 L334.94 800.11 L331.77 798.77 L328.79 797.07 L326.38 794.40 L323.20 793.06 L320.14 791.50 L316.94 790.16 L314.03 788.34 L310.82 786.97 L307.31 786.04 L304.67 783.78 L301.88 781.77 L299.19 779.60 L296.64 777.26 L293.98 775.07 L291.20 773.05 L288.04 771.52 L284.85 769.99 L281.79 768.28 L278.86 766.40 L275.54 764.96 L273.01 762.57 L270.13 760.59 L266.53 759.40 L263.75 757.27 L261.02 755.07 L257.87 753.31 L255.44 750.79 L253.12 748.15 L250.58 745.74 L248.13 743.23 L246.09 740.35 L243.16 738.29 L241.40 735.16 L239.12 732.51 L236.68 730.00 L234.14 727.57 L232.49 724.39 L230.41 721.58 L227.66 719.31 L226.17 716.04 L224.44 712.96 L221.71 710.67 L218.90 708.40 L216.53 705.80 L213.67 703.53 L210.75 701.28 L209.17 698.10 L206.98 695.33 L205.12 692.34 L203.96 688.90 L202.17 685.88 L200.12 683.02 L198.20 680.07 L196.15 677.20 L194.27 674.22 L193.08 670.86 L190.67 668.17 L188.83 665.16 L186.98 662.15 L185.26 659.07 L183.29 656.11 L181.53 653.04 L180.52 649.61 L178.63 646.59 L177.43 643.26 L175.78 640.13 L173.60 637.22 L172.04 634.03 L170.20 630.95 L168.40 627.84 L166.81 624.64 L166.23 621.07 L165.31 617.62 L163.12 614.62 L163.32 610.81 L160.84 607.88 L159.39 604.60 L158.47 601.16 L156.95 597.89 L156.77 594.24 L155.59 590.87 L153.81 587.64 L153.74 583.99 L152.60 580.59 L151.25 577.24 L151.11 573.62 L150.19 570.17 L148.53 566.85 L147.75 563.36 L146.86 559.88 L144.92 556.56 L143.67 553.11 L142.74 549.60 L142.37 546.02 L141.74 542.46 L140.61 538.95 L140.92 535.29 L141.29 531.63 L141.87 527.98 L141.89 524.38 L142.02 520.77 L140.96 517.23 L140.82 513.64 L140.34 510.06 L139.48 506.48 L139.80 502.87 L139.96 499.27 L139.25 495.66 L139.77 492.06 L140.24 488.47 L138.98 484.82 L139.65 481.23 L139.82 477.63 L139.34 473.97 L140.28 470.42 L139.66 466.74 L139.77 463.12 L141.32 459.65 L140.22 455.87 L139.79 452.16 L140.78 448.63 L141.68 445.10 L141.50 441.40 L141.23 437.66 L141.72 434.05 L141.82 430.36 L141.80 426.63 L142.76 423.10 L143.62 419.54 L144.81 416.07 L146.19 412.65 L148.07 409.37 L148.18 405.64 L149.73 402.29 L151.57 399.04 L151.19 395.14 L150.99 391.26 L152.21 387.81 L152.45 384.04 L153.26 380.44 L154.63 377.04 L156.33 373.76 L157.79 370.40 L158.52 366.75 L159.69 363.27 L160.65 359.70 L161.81 356.20 L163.54 352.95 L165.19 349.66 L167.44 346.66 L169.39 343.53 L170.33 339.92 L171.86 336.59 L173.66 333.39 L174.82 329.86 L174.71 325.64 L175.83 322.05 L178.66 319.40 L178.89 315.27 L180.24 311.77 L182.56 308.84 L183.63 305.15 L184.66 301.40 L186.19 297.95 L188.38 294.93 L190.55 291.89 L193.15 289.15 L195.42 286.20 L198.15 283.58 L200.03 280.35 L202.12 277.27 L204.39 274.33 L206.36 271.14 L208.27 267.91 L210.68 265.06 L213.00 262.14 L215.04 258.98 L216.91 255.67 L219.52 252.99 L221.60 249.84 L223.79 246.76 L226.02 243.71 L228.38 240.78 L230.75 237.85 L233.63 235.42 L236.38 232.86 L238.56 229.71 L241.34 227.17 L243.87 224.38 L246.01 221.14 L248.46 218.23 L251.26 215.68 L253.78 212.82 L256.18 209.80 L259.48 207.84 L262.31 205.32 L265.05 202.68 L268.01 200.32 L271.22 198.27 L274.28 196.05 L277.31 193.77 L279.91 190.90 L283.17 188.94 L286.30 186.81 L288.74 183.63 L291.86 181.45 L295.04 179.36 L298.26 177.33 L300.98 174.48 L304.39 172.75 L307.87 171.15 L310.96 168.89 L314.41 167.23 L317.63 165.19 L321.05 163.51 L324.07 161.04 L327.39 159.14 L330.71 157.23 L334.35 155.99 L337.52 153.76 L341.00 152.18 L344.72 151.13 L347.78 148.59 L350.80 145.88 L354.61 145.05 L357.65 142.32 L361.17 140.73 L364.75 139.33 L368.40 138.08 L371.98 136.65 L375.60 135.33 L379.00 133.34 L382.73 132.34 L386.46 131.35 L390.09 130.02 L393.95 129.47 L397.54 127.99 L401.35 127.31 L405.11 126.46 L408.64 124.64 L412.10 122.49 L415.91 121.77 L419.75 121.17 L423.45 119.95 L427.18 118.84 L431.28 119.69 L435.13 119.26 L438.86 118.15 L442.87 118.81 L446.73 118.54 L450.50 117.71 L454.29 116.94 L458.08 116.10 L461.83 114.79 L465.60 113.42 L469.46 113.09 L473.33 112.74 L477.21 112.59 L481.13 113.30 L485.01 113.47 L488.89 113.75 L492.75 113.48 L496.60 111.94 L500.48 111.24 L504.38 110.24 L508.29 109.61 L512.20 109.73 L516.11 109.55 L520.04 109.27 L523.93 109.74 L527.86 109.60 L531.79 109.60 L535.72 109.54 L539.59 110.33 L543.54 110.21 L547.61 109.21 L551.58 109.22 L555.45 110.00 L559.59 109.02 L563.51 109.55 L567.25 111.12 L571.28 111.01 L575.33 110.90 L579.06 112.46 L583.05 112.73 L586.93 113.50 L590.84 114.18 L594.67 115.20 L598.64 115.67 L602.60 116.24 L606.57 116.77 L610.52 117.43 L614.29 118.74 L617.91 120.48 L621.82 121.31 L625.40 123.16 L628.90 125.20 L632.88 125.82 L636.78 126.72 L640.48 128.17 L644.88 127.83 L648.86 128.63 L652.71 129.79 L656.78 130.47 L660.58 131.80 L664.30 133.31 L668.25 134.35 L672.13 135.55 L676.03 136.74 L679.83 138.17 L683.25 140.34 L686.93 142.03 L690.92 143.13 L694.28 145.42 L697.94 147.15 L701.91 148.37 L705.65 150.00 L709.53 151.43 L713.04 153.49 L716.75 155.23 L720.40 157.08 L723.81 159.31 L727.46 161.18 L730.85 163.47 L734.17 165.83 L737.41 168.32 L741.10 170.19 L744.66 172.25 L748.27 174.25 L751.97 176.17 L755.33 178.54 L758.45 181.20 L761.97 183.40 L765.31 185.80 L769.02 187.80 L772.64 189.93 L776.22 192.12 L779.75 194.39 L783.02 196.95 L785.86 199.98 L789.16 202.54 L792.53 205.03 L795.73 207.70 L799.11 210.22 L802.29 212.95 L805.34 215.80 L808.36 218.69 L811.38 221.59 L814.21 224.66 L817.08 227.71 L819.85 230.84 L822.60 233.99 L825.11 237.33 L827.84 240.51 L830.34 243.85 L832.75 247.27 L835.39 250.52 L837.31 254.29 L839.14 258.11 L842.09 261.13 L844.38 264.62 L845.36 268.99 L847.33 272.66 L850.23 275.73 L852.91 278.96 L854.02 283.16 L857.54 285.90 L861.18 288.60 L863.13 292.30 L865.88 295.56 L867.88 299.24 L870.16 302.77 L872.45 306.31 L874.78 309.83 L876.97 313.44 L880.04 316.63 L883.13 319.84 L885.56 323.38 L887.06 327.35 L889.44 330.94 L891.79 334.56 L893.64 338.40 L896.37 341.89 L898.64 345.58 L900.52 349.45 L902.66 353.22 L904.95 356.96 L906.89 360.83 L909.21 364.59 L911.49 368.39 L913.28 372.36 L915.11 376.33 L916.38 380.47 L917.59 384.63 L918.79 388.79 L919.51 393.08 L920.29 397.35 L921.42 401.53 L922.10 405.81 L921.79 410.29 L922.66 414.52 L923.63 418.72 L923.52 423.13 L924.03 427.41 L924.47 431.69 L925.23 435.93 L926.29 440.12 L925.93 444.51 L925.42 448.89 L925.84 453.16 L925.95 457.45 L926.18 461.73 L928.62 465.83 L931.31 469.95 L933.45 474.15 L936.35 478.36 L940.19 482.58 L940.51 486.98 L940.80 491.38 L941.07 495.79 L942.03 500.00 L941.85 495.58 L941.59 491.17 L941.31 486.76 L941.10 482.35 L944.06 477.78 L947.40 473.12 L950.02 468.45 L951.40 463.81 L954.03 459.03 L954.08 454.44 L953.35 449.93 L952.65 445.42 L950.08 441.16 L948.63 436.78 L947.56 432.36 L944.59 428.25 L942.45 424.05 L941.02 419.75 L939.44 415.49 L937.66 411.28 L935.70 407.13 L934.31 402.88 L933.01 398.61 L930.72 394.60 L929.07 390.44 L927.81 386.19 L925.89 382.13 L924.36 377.97 L922.63 373.88 L921.18 369.71 L920.52 365.30 L919.49 360.99 L918.31 356.72 L917.52 352.31 L916.08 348.12 L914.93 343.82 L913.47 339.63 L912.81 335.12 L911.43 330.88 L909.64 326.81 L907.66 322.82 L906.18 318.61 L903.50 314.94 L902.72 310.41 L900.56 306.51 L900.14 301.75 L898.25 297.70 L896.53 293.56 L895.28 289.16 L893.19 285.20 L891.70 280.90 L891.53 275.83 L888.28 272.50 L886.79 268.15 L885.08 263.91 L882.90 259.94 L880.05 256.40 L875.53 253.97 L872.20 250.79 L868.92 247.61 L865.84 244.31 L861.96 241.59 L859.25 238.07 L856.08 234.89 L853.16 231.53 L849.87 228.47 L846.57 225.42 L843.55 222.18 L840.82 218.71 L837.36 215.84 L834.27 212.68 L831.46 209.28 L828.24 206.25 L825.30 202.97 L821.89 200.12 L818.41 197.36 L814.95 194.60 L811.59 191.75 L807.66 189.49 L804.76 186.21 L801.15 183.65 L797.61 181.05 L794.70 177.77 L791.48 174.81 L787.81 172.37 L785.45 168.43 L782.11 165.60 L778.76 162.79 L775.89 159.38 L772.63 156.44 L768.99 153.98 L765.82 150.90 L761.97 148.74 L758.39 146.20 L754.71 143.82 L750.86 141.68 L747.25 139.21 L743.76 136.56 L739.77 134.67 L736.44 131.77 L732.77 129.39 L728.49 127.98 L724.82 125.62 L720.99 123.53 L716.95 121.79 L713.40 119.21 L709.56 117.12 L705.82 114.86 L702.29 112.19 L698.41 110.17 L694.44 108.33 L690.39 106.67 L686.34 105.00 L681.84 104.34 L678.05 102.14 L674.38 99.65 L669.91 99.01 L666.10 96.82 L662.49 94.13 L658.16 93.19 L654.27 91.13 L650.03 90.02 L645.97 88.38 L641.83 87.00 L637.08 87.45 L633.54 84.26 L629.45 82.70 L624.89 82.71 L621.19 79.82 L617.04 78.43 L612.51 78.42 L608.38 76.96 L603.96 76.64 L599.52 76.47 L595.17 75.99 L590.66 76.33 L586.12 76.89 L581.80 76.47 L577.46 76.26 L573.20 75.58 L569.07 74.18 L564.80 73.51 L560.43 73.61 L556.09 73.59 L551.72 73.95 L547.34 74.47 L542.98 75.05 L538.68 75.14 L534.46 74.48 L530.18 74.40 L525.90 74.59 L521.64 74.26 L517.40 73.70 L513.15 73.25 L508.88 73.05 L504.62 71.64 L500.34 70.57 L496.05 70.33 L491.71 68.54 L487.40 68.54 L483.11 69.46 L478.77 68.97 L474.45 68.96 L470.15 69.42 L465.97 71.25 L461.61 70.73 L457.25 70.46 L452.99 71.25 L448.50 70.03 L444.12 69.88 L439.83 70.58 L435.58 71.43 L431.61 74.09 L427.17 73.70 L423.10 75.46 L419.11 77.59 L414.80 77.95 L410.70 79.40 L406.53 80.45 L402.65 82.74 L398.89 85.40 L394.49 85.43 L390.36 86.52 L386.57 88.89 L382.44 89.96 L378.14 90.46 L373.96 91.41 L369.90 92.75 L366.03 94.66 L361.72 95.26 L358.07 97.75 L354.22 99.64 L350.15 100.93 L346.39 103.02 L342.49 104.74 L338.34 105.84 L334.65 108.04 L331.10 110.55 L327.56 113.04 L323.87 115.15 L320.50 117.92 L316.88 120.13 L313.13 122.06 L309.37 123.98 L305.21 125.11 L301.08 126.34 L297.80 129.17 L294.16 131.32 L290.31 133.09 L287.24 136.22 L283.76 138.61 L280.34 141.09 L277.51 144.49 L274.48 147.53 L270.70 149.41 L267.85 152.69 L264.62 155.36 L260.53 156.79 L257.11 159.20 L253.78 161.74 L249.71 163.27 L246.15 165.53 L242.77 168.02 L238.68 169.62 L235.22 172.04 L232.55 175.42 L229.17 177.94 L226.06 180.78 L223.58 184.32 L220.07 186.69 L216.79 189.33 L214.31 192.85 L211.39 195.86 L209.19 199.61 L206.86 203.21 L204.55 206.79 L202.08 210.19 L199.27 213.26 L196.75 216.59 L193.62 219.35 L191.01 222.59 L187.89 225.38 L185.04 228.41 L182.54 231.75 L179.40 234.54 L176.74 237.74 L174.36 241.16 L170.97 243.80 L168.92 247.48 L166.87 251.15 L164.12 254.28 L161.97 257.86 L160.53 261.93 L158.83 265.79 L157.13 269.63 L155.16 273.28 L153.71 277.26 L151.99 281.04 L149.42 284.29 L147.00 287.64 L144.82 291.13 L142.29 294.43 L139.84 297.78 L138.23 301.61 L136.20 305.21 L133.86 308.64 L132.23 312.45 L130.47 316.18 L128.69 319.91 L126.66 323.51 L125.16 327.37 L124.33 331.52 L123.25 335.54 L122.35 339.62 L121.41 343.67 L120.30 347.64 L119.70 351.80 L118.33 355.64 L116.36 359.27 L114.69 363.01 L113.26 366.84 L111.16 370.45 L109.46 374.21 L108.33 378.16 L106.80 381.98 L105.90 386.00 L105.42 390.12 L104.14 394.02 L102.26 397.77 L101.39 401.78 L100.29 405.74 L99.95 409.87 L98.43 413.74 L98.07 417.86 L98.18 422.06 L97.34 426.07 L96.89 430.14 L95.56 434.07 L94.56 438.06 L93.89 442.11 L93.29 446.17 L93.15 450.28 L92.11 454.29 L92.88 458.50 L93.24 462.64 L92.40 466.67 L93.09 470.82 L93.58 474.94 L93.78 479.02 L93.18 483.07 L93.75 487.16 L95.00 491.25 L95.10 495.31 L95.26 499.36 L96.35 503.39 L96.54 507.43 L96.14 511.48 L96.48 515.51 L96.40 519.55 L96.91 523.57 L97.08 527.61 L97.17 531.65 L97.67 535.66 L98.61 539.63 L99.12 543.63 L100.31 547.55 L101.81 551.41 L102.23 555.41 L103.24 559.32 L104.10 563.24 L103.95 567.34 L104.76 571.27 L104.87 575.34 L106.06 579.20 L107.20 583.07 L107.39 587.14 L108.61 590.98 L110.47 594.67 L110.65 598.76 L111.73 602.63 L114.45 606.04 L114.89 610.08 L117.01 613.63 L119.22 617.13 L121.66 620.53 L124.08 623.91 L126.33 627.33 L129.17 630.51 L130.64 634.16 L132.21 637.77 L133.13 641.62 L133.73 645.62 L135.52 649.15 L137.79 652.46 L139.80 655.87 L142.18 659.11 L144.56 662.33 L147.25 665.38 L149.20 668.77 L150.90 672.27 L153.20 675.47 L154.77 679.03 L155.51 683.04 L156.30 687.06 L157.59 690.82 L159.17 694.42 L160.32 698.30 L161.21 702.35 L164.01 705.26 L166.40 708.41 L167.56 712.34 L169.76 715.61 L172.53 718.51 L174.66 721.82 L177.16 724.87 L178.71 728.60 L181.71 731.30 L183.49 734.88 L185.69 738.15 L189.40 740.27 L191.28 743.79 L194.41 746.31 L197.26 749.05 L199.11 752.61 L201.30 755.91 L204.09 758.70 L206.72 761.63 L209.16 764.71 L212.40 767.07 L215.31 769.72 L218.01 772.57 L221.15 774.97 L223.57 778.10 L226.16 781.06 L229.71 783.03 L232.33 785.95 L235.41 788.39 L238.86 790.40 L241.75 793.03 L245.13 795.10 L247.86 797.90 L251.46 799.67 L254.44 802.18 L257.29 804.86 L260.98 806.46 L264.37 808.43 L267.39 810.86 L270.53 813.16 L273.58 815.55 L276.66 817.93 L279.55 820.58 L282.83 822.69 L286.03 824.89 L289.77 826.27 L293.05 828.35 L296.86 829.55 L299.93 831.96 L302.85 834.64 L307.00 835.22 L309.94 837.88 L313.03 840.31 L316.56 841.95 L319.91 843.92 L323.58 845.25 L326.94 847.20 L330.34 849.09 L334.52 849.33 L338.39 850.16 L341.17 853.40 L345.18 853.89 L349.58 853.43 L352.77 855.76 L356.35 857.17 L360.41 857.35 L363.99 858.74 L367.47 860.39 L370.77 862.58 L374.56 863.39 L378.57 863.50 L381.80 865.97 L385.12 868.24 L389.19 868.14 L393.07 868.53 L396.59 870.19 L400.62 870.03 L404.80 869.14 L408.60 869.67 L412.43 870.02 L415.86 872.09 L419.69 872.44 L423.33 873.62 L427.02 874.62 L430.82 875.08 L434.65 875.31 L438.52 875.29 L442.13 876.83 L445.92 877.22 L449.79 877.03 L453.71 876.35 L457.57 875.89 L461.48 874.89 L465.33 874.20 L469.14 873.72 L472.90 873.75 L476.54 875.57 L480.33 875.14 L484.11 874.66 L487.88 874.07 L491.62 874.13 L495.35 874.95 L499.10 874.92 L502.86 875.41 L506.63 876.52 L510.41 876.79 L514.19 877.14 L517.92 876.08 L521.71 876.49 L525.55 877.32 L529.31 876.84 L533.03 876.04 L536.71 874.92 L540.40 873.95 L544.11 873.36 L547.77 872.33 L551.49 871.80 L555.27 871.72 L558.84 870.24 L562.60 870.00 L566.34 869.60 L569.91 868.26 L573.54 867.28 L577.28 866.89 L580.97 866.21 L584.49 864.76 L588.07 863.64 L591.76 862.99 L595.58 862.79 L599.01 861.10 L602.66 860.27 L606.33 859.45 L609.84 858.11 L613.54 857.37 L616.95 855.77 L620.51 854.60 L623.75 852.50 L626.95 850.39 L630.07 848.09 L633.16 845.75 L637.22 845.95 L640.82 844.92 L644.18 843.31 L648.55 844.02 L651.74 841.98 L655.22 840.60 L659.14 840.14 L661.89 837.20 L665.24 835.53 L668.61 833.91 L671.38 831.12 L674.05 828.19 L677.28 826.35 L680.18 823.93 L683.62 822.48 L686.57 820.18 L689.59 818.01 L692.59 815.81 L695.75 813.89 L698.67 811.59 L701.91 809.79 L704.43 806.90 L707.84 805.37 L710.93 803.33 L713.83 801.03 L716.85 798.91 L719.70 796.55 L722.99 794.79 L726.08 792.75 L728.79 790.21 L731.70 787.92 L734.23 785.18 L736.59 782.26 L739.18 779.61 L741.65 776.85 L743.83 773.78 L746.85 771.65 L749.50 769.10 L751.95 766.35 L754.56 763.78 L757.14 761.18 L759.04 757.89 L761.08 754.78 L763.48 752.03 L765.27 748.71 L767.62 745.93 L770.22 743.38 L773.04 741.02 L776.07 738.82 L777.69 735.41 L779.81 732.44 L782.92 730.28 L784.38 726.78 L786.65 723.94 L789.32 721.40 L791.02 718.12 L792.59 714.76 L794.76 711.85 L796.25 708.46 L798.76 705.79 L799.34 701.81 L801.54 698.94 L802.86 695.49 L804.33 692.15 L806.26 689.11 L807.89 685.90 L810.13 683.04 L812.08 680.01 L813.46 676.65 L815.81 673.84 L817.28 670.54 L819.06 667.40 L821.20 664.45 L822.11 660.87 L823.84 657.71 L824.83 654.19 L826.01 650.77 L827.51 647.51 L828.82 644.16 L830.27 640.88 L831.62 637.55 L832.23 633.93 L834.23 630.86 L835.23 627.40 L835.45 623.66 L837.05 620.44 L837.22 616.71 L838.42 613.35 L839.39 609.91 L840.33 606.47 L840.43 602.77 L841.71 599.44 L842.78 596.04 L842.47 592.27 L843.77 588.95 L844.83 585.55 L844.65 581.86 L845.54 578.43 L846.55 575.02 L847.37 571.57 L848.04 568.09 L849.45 564.74 L849.34 561.11 L849.44 557.53 L848.27 553.77 L847.45 550.09 L847.04 546.50 L847.74 543.05 L848.85 539.65 L848.47 536.09 L849.96 532.71 L851.25 529.29 L851.83 525.79 L852.23 522.29 L853.02 518.79 L853.25 515.26 L852.77 511.71 L852.68 508.18 L852.11 504.64 L851.28 501.12 L851.02 497.61 L851.29 494.09 L850.99 490.59 L851.03 487.07 L850.79 483.57 L850.22 480.08 L849.04 476.64 L847.33 473.27 L846.44 469.85 L846.19 466.38 L845.30 462.98 L845.30 459.48 L846.62 455.81 L846.18 452.34 L845.62 448.89 L845.79 445.33 L845.17 441.88 L844.39 438.46 L844.40 434.90 L843.23 431.56 L842.14 428.21 L840.68 424.95 L838.63 421.85 L837.32 418.59 L835.43 415.49 L833.79 412.34 L833.19 408.93 L831.95 405.69 L831.20 402.31 L829.85 399.12 L828.98 395.77 L828.02 392.46 L826.38 389.37 L825.26 386.11 L824.18 382.83 L823.26 379.50 L821.40 376.52 L820.08 373.34 L818.52 370.26 L816.52 367.37 L814.80 364.37 L813.38 361.25 L811.42 358.37 L809.68 355.41 L808.06 352.40 L806.58 349.32 L806.40 345.59 L804.30 342.81 L803.92 339.13 L802.54 335.97 L800.31 333.27 L799.80 329.61 L797.87 326.74 L794.94 324.48 L793.46 321.36 L791.39 318.60 L788.38 316.45 L785.75 314.09 L783.58 311.43 L782.37 308.14 L780.11 305.55 L777.84 302.98 L775.64 300.37 L772.94 298.13 L770.74 295.54 L767.38 293.85 L765.16 291.30 L762.92 288.77 L760.36 286.51 L759.13 283.15 L757.94 279.71 L756.02 276.89 L754.23 273.94 L751.87 271.48 L749.65 268.91 L746.92 266.81 L743.87 265.03 L741.28 262.83 L738.82 260.50 L735.66 258.89 L732.38 257.45 L730.49 254.55 L727.73 252.58 L724.92 250.68 L722.42 248.44 L719.38 246.81 L716.87 244.60 L713.97 242.84 L710.77 241.48 L708.58 238.87 L706.24 236.43 L703.69 234.26 L700.76 232.59 L698.19 230.44 L695.46 228.50 L692.47 226.94 L690.05 224.56 L687.18 222.84 L684.27 221.17 L681.49 219.32 L678.48 217.83 L675.77 215.85 L672.76 214.38 L669.67 213.05 L666.82 211.31 L664.29 209.02 L661.03 208.01 L657.64 207.27 L654.69 205.73 L651.89 203.92 L647.91 204.43 L644.87 203.12 L642.08 201.30 L638.66 200.81 L635.86 199.00 L633.51 196.14 L629.94 196.05 L626.72 195.17 L623.79 193.63 L620.52 192.91 L617.10 192.61 L614.24 190.87 L611.15 189.73 L608.06 188.56 L605.04 187.22 L601.73 186.72 L598.59 185.72 L595.66 184.04 L592.35 183.58 L589.05 183.15 L585.92 182.14 L582.72 181.36 L579.45 180.86 L576.11 180.69 L572.89 180.01 L569.50 180.19 L565.96 181.14 L562.73 180.69 L559.35 181.06 L555.99 181.44 L553.00 179.71 L549.87 178.69 L546.74 177.63 L543.61 176.44 L540.39 175.87 L537.14 175.54 L533.81 176.02 L530.45 176.99 L527.23 176.48 L523.95 176.84 L520.68 177.17 L517.42 177.53 L514.20 177.30 L510.98 177.12 L507.72 177.95 L504.50 178.16 L501.29 177.23 L498.06 178.04 L494.83 177.33 L491.57 176.26 L488.35 176.67 L485.10 176.46 L481.88 176.89 L478.68 177.59 L475.52 178.60 L472.36 179.51 L469.21 180.31 L466.09 181.31 L462.89 181.57 L459.67 181.64 L456.53 182.39 L453.40 183.12 L450.17 183.22 L447.14 184.53 L444.19 186.23 L440.84 185.63 L437.97 187.62 L434.90 188.48 L431.56 188.13 L428.65 189.72 L425.46 190.06 L422.31 190.60 L419.31 191.76 L415.96 191.59 L412.99 192.82 L409.90 193.64 L406.86 194.62 L403.96 196.01 L401.07 197.45 L397.96 198.17 L395.17 199.87 L392.38 201.50 L389.40 202.57 L386.73 204.48 L384.09 206.41 L380.82 206.76 L378.05 208.34 L375.11 209.50 L372.20 210.72 L369.43 212.28 L366.49 213.45 L363.76 215.08 L360.84 216.30 L357.86 217.39 L355.14 219.03 L352.60 220.98 L349.80 222.44 L347.19 224.24 L345.31 227.32 L342.17 228.15 L339.82 230.36 L336.88 231.55 L333.85 232.62 L331.71 235.13 L328.60 236.10 L326.43 238.53 L324.16 240.77 L320.89 241.54 L319.01 244.33 L316.60 246.34 L313.75 247.76 L311.86 250.46 L310.45 253.75 L307.97 255.62 L306.65 258.95 L304.71 261.45 L301.62 262.57 L299.79 265.18 L297.21 266.93 L294.73 268.78 L292.64 271.07 L290.57 273.39 L288.19 275.37 L286.45 278.01 L284.15 280.07 L282.16 282.43 L280.35 284.96 L278.03 287.00 L275.79 289.12 L273.63 291.31 L270.52 292.65 L268.49 294.98 L266.18 297.07 L264.30 299.54 L263.62 303.00 L261.69 305.39 L260.25 308.19 L259.00 311.10 L257.04 313.46 L255.55 316.18 L253.81 318.69 L252.52 321.53 L251.11 324.27 L249.71 327.01 L248.76 330.03 L246.92 332.46 L245.67 335.27 L244.00 337.79 L241.78 339.98 L239.76 342.31 L238.53 345.12 L237.00 347.74 L234.90 350.04 L233.86 352.95 L233.08 355.98 L231.67 358.67 L230.40 361.43 L229.72 364.48 L227.74 366.88 L227.50 370.12 L226.79 373.12 L225.18 375.70 L225.10 378.95 L224.11 381.80 L223.24 384.69 L222.02 387.43 L221.19 390.32 L220.07 393.10 L218.90 395.86 L219.05 399.11 L217.32 401.66 L216.44 404.53 L217.24 407.93 L215.27 410.43 L214.81 413.41 L215.92 416.84 L213.71 419.29 L212.89 422.15 L213.41 425.36 L211.64 427.97 L209.65 430.55 L210.13 433.72 L208.77 436.47 L207.17 439.18 L207.56 442.31 L207.03 445.24 L206.54 448.18 L207.84 451.42 L207.23 454.32 L206.74 457.24 L207.12 460.29 L206.98 463.25 L206.52 466.17 L206.19 469.10 L205.79 472.03 L204.89 474.92 L204.96 477.90 L204.98 480.86 L204.47 483.80 L205.18 486.79 L205.83 489.77 L205.16 492.69 L206.25 495.66 L206.82 498.60 L205.57 501.54 L207.00 504.46 L208.41 507.36 L207.56 510.30 L208.28 513.20 L208.40 516.12 L208.44 519.04 L208.92 521.94 L208.71 524.88 L209.03 527.79 L209.49 530.68 L209.22 533.65 L209.01 536.63 L209.46 539.53 L210.74 542.30 L211.88 545.09 L212.57 547.93 L213.90 550.65 L214.64 553.47 L215.09 556.34 L215.82 559.15 L217.26 561.81 L217.73 564.67 L218.83 567.39 L220.17 570.03 L220.78 572.85 L222.41 575.40 L222.47 578.37 L222.82 581.27 L223.46 584.10 L223.91 586.99 L224.72 589.77 L224.81 592.79 L226.56 595.26 L227.78 597.90 L228.01 600.90 L229.39 603.47 L230.91 605.99 L232.09 608.63 L233.45 611.20 L235.15 613.61 L237.04 615.93 L238.62 618.37 L240.48 620.67 L241.48 623.36 L242.98 625.81 L244.61 628.20 L245.44 630.99 L246.12 633.86 L248.38 635.90 L250.41 638.05 L251.58 640.66 L253.46 642.87 L255.77 644.82 L256.31 647.81 L257.85 650.21 L259.07 652.81 L260.67 655.17 L262.12 657.63 L263.89 659.88 L266.22 661.73 L267.30 664.45 L270.17 665.90 L271.14 668.70 L273.20 670.71 L275.93 672.20 L277.13 674.84 L279.22 676.79 L280.56 679.36 L281.99 681.86 L284.46 683.48 L285.72 686.14 L287.76 688.12 L290.34 689.61 L292.61 691.36 L295.18 692.82 L297.67 694.33 L299.59 696.38 L302.02 697.91 L304.64 699.24 L306.43 701.40 L309.02 702.72 L311.36 704.30 L313.05 706.57 L316.08 707.35 L318.19 709.16 L319.92 711.40 L322.50 712.64 L324.32 714.78 L327.04 715.83 L329.17 717.60 L330.92 719.86 L333.52 721.02 L335.84 722.54 L338.12 724.09 L340.55 725.46 L343.13 726.58 L345.63 727.79 L347.47 730.00 L349.70 731.64 L351.98 733.19 L354.50 734.38 L357.01 735.56 L359.63 736.53 L362.17 737.65 L364.82 738.53 L367.60 739.19 L369.70 741.05 L372.00 742.56 L375.24 742.25 L377.37 744.08 L379.45 746.05 L382.10 746.85 L384.85 747.43 L386.73 749.88 L389.69 749.99 L392.51 750.34 L394.75 752.05 L397.40 752.78 L400.27 752.93 L402.62 754.41 L405.46 754.57 L408.23 754.90 L410.91 755.45 L413.54 756.12 L415.94 757.46 L418.62 757.98 L421.27 758.55 L423.70 759.88 L426.62 759.51 L429.33 759.81 L431.94 760.48 L434.42 761.65 L437.06 762.22 L439.86 762.07 L442.48 762.67 L445.18 762.90 L447.86 763.18 L450.64 762.91 L453.26 763.47 L455.87 764.07 L458.69 763.41 L461.48 762.74 L464.01 763.82 L466.72 763.62 L469.36 763.92 L471.94 764.80 L474.50 765.95 L477.21 765.62 L479.89 765.63 L482.55 765.76 L485.18 766.38 L487.90 765.34 L490.54 765.93 L493.19 766.18 L495.86 765.56 L498.52 765.10 L501.18 765.77 L503.83 765.52 L506.49 765.82 L509.13 765.02 L511.73 763.92 L514.39 764.08 L516.99 763.41 L519.53 761.87 L522.15 761.74 L524.78 761.60 L527.19 759.39 L529.79 759.21 L532.29 758.19 L534.87 757.80 L537.58 758.38 L540.15 757.90 L542.73 757.51 L545.52 758.34 L548.21 758.46 L550.72 757.57 L553.43 757.70 L555.92 756.79 L558.22 755.06 L560.80 754.59 L563.32 753.88 L565.58 752.15 L567.97 751.02 L570.46 750.28 L572.91 749.38 L575.27 748.22 L577.75 747.46 L580.25 746.78 L582.67 745.82 L585.36 745.66 L587.65 744.34 L589.94 743.05 L592.23 741.77 L594.63 740.81 L596.90 739.52 L598.96 737.75 L601.64 737.47 L603.93 736.25 L606.17 734.95 L608.62 734.11 L610.68 732.43 L612.77 730.83 L615.24 730.03 L616.97 727.78 L619.29 726.69 L621.65 725.66 L623.32 723.38 L625.35 721.79 L627.72 720.79 L629.40 718.62 L631.51 717.20 L633.92 716.28 L636.23 715.17 L638.12 713.40 L640.31 712.10 L642.51 710.82 L644.00 708.50 L645.73 706.55 L648.40 705.93 L650.54 704.56 L652.45 702.87 L654.77 701.73 L656.17 699.39 L657.89 697.48 L659.64 695.63 L660.78 693.06 L662.48 691.18 L664.44 689.61 L667.11 688.84 L669.38 687.59 L671.47 686.13 L673.45 684.55 L674.84 682.33 L677.19 681.12 L678.83 679.18 L679.55 676.33 L681.40 674.63 L683.56 673.20 L684.24 670.39 L684.96 667.66 L686.12 665.35 L688.13 663.80 L689.71 661.87 L691.29 659.94 L692.92 658.05 L694.41 656.05 L695.65 653.85 L696.62 651.46 L698.66 649.89 L699.42 647.36 L700.36 644.98 L702.38 643.38 L703.50 641.13 L704.35 638.72 L705.63 636.60 L707.02 634.56 L708.55 632.61 L709.93 630.56 L711.39 628.55 L712.89 626.56 L714.78 624.80 L714.58 621.83 L715.35 619.44 L715.85 616.91 L715.99 614.20 L716.82 611.88 L717.92 609.70 L719.70 607.86 L721.98 606.24 L722.82 603.91 L723.50 601.52 L723.95 599.04 L724.22 596.49 L724.58 593.99 L725.23 591.63 L726.61 589.56 L727.66 587.35 L728.84 585.19 L729.74 582.92 L729.43 580.22 L730.41 577.99 L730.61 575.49 L729.83 572.70 L730.89 570.50 L731.79 568.25 L732.36 565.90 L732.82 563.53 L734.24 561.40 L733.96 558.84 L734.24 556.42 L734.70 554.06 L735.33 551.73 L735.24 549.25 L736.37 547.02 L736.55 544.60 L736.20 542.10 L736.52 539.72 L736.29 537.25 L736.07 534.80 L736.56 532.46 L737.08 530.12 L736.93 527.70 L736.84 525.29 L737.18 522.93 L737.02 520.52 L737.31 518.16 L737.53 515.79 L737.91 513.43 L737.56 511.02 L738.05 508.66 L738.80 506.30 L737.41 503.89 L736.18 501.50 L735.48 499.15 L734.96 496.80 L735.60 494.43 L734.71 492.10 L734.20 489.78 L734.79 487.40 L733.86 485.10 L733.48 482.78 L733.22 480.45 L733.36 478.09 L732.86 475.78 L733.09 473.40 L732.55 471.10 L731.62 468.86 L731.17 466.57 L730.73 464.27 L730.25 461.98 L729.75 459.70 L728.86 457.49 L727.32 455.43 L725.90 453.35 L724.34 451.33 L724.46 448.95 L723.54 446.80 L722.13 444.79 L722.30 442.38 L721.68 440.17 L720.78 438.04 L720.62 435.69 L720.44 433.35 L720.01 431.07 L719.77 428.72 L718.90 426.58 L717.50 424.62 L716.19 422.64 L715.08 420.61 L713.89 418.60 L714.05 416.08 L713.04 414.01 L711.88 412.00 L711.10 409.84 L710.11 407.77 L708.26 406.09 L705.87 404.68 L705.20 402.49 L704.13 400.48 L702.79 398.61 L702.02 396.46 L700.63 394.62 L699.19 392.82 L697.42 391.22 L695.79 389.55 L694.68 387.59 L693.03 385.96 L691.35 384.35 L689.78 382.70 L689.07 380.51 L687.36 378.95 L685.63 377.42 L683.76 376.00 L682.06 374.47 L680.26 373.04 L677.56 372.26 L675.65 370.95 L674.17 369.34 L673.14 367.39 L671.98 365.52 L671.12 363.42 L670.32 361.24 L668.68 359.75 L666.77 358.49 L665.47 356.73 L663.21 355.80 L661.62 354.30 L660.89 352.01 L660.07 349.79 L659.30 347.49 L657.90 345.77 L655.75 344.80 L654.53 342.90 L652.41 341.93 L650.34 340.92 L648.86 339.29 L647.62 337.40 L646.50 335.36 L644.50 334.31 L642.68 333.05 L641.16 331.44 L639.53 329.96 L637.33 329.19 L634.70 328.99 L632.75 327.95 L630.79 326.94 L628.87 325.89 L626.54 325.42 L624.35 324.78 L623.02 322.92 L620.29 323.09 L617.67 323.17 L616.19 321.56 L614.06 320.94 L612.00 320.22 L610.49 318.63 L608.79 317.34 L607.21 315.83 L605.25 314.95 L603.23 314.22 L601.47 313.00 L599.42 312.32 L597.11 312.17 L595.33 311.01 L593.03 310.89 L590.99 310.27 L589.12 309.29 L586.96 308.95 L585.12 307.92 L583.23 307.01 L581.54 305.62 L579.69 304.57 L577.82 303.56 L575.74 303.06 L573.82 302.19 L571.82 301.49 L569.88 300.66 L567.89 299.95 L566.03 298.84 L563.91 298.52 L561.53 299.08 L559.45 298.69 L557.34 298.44 L554.99 299.09 L552.55 300.20 L550.59 299.52 L548.32 300.10 L545.93 301.29 L544.07 300.26 L542.07 299.83 L540.12 299.16 L538.30 297.74 L536.15 298.11 L533.98 298.61 L531.86 298.97 L529.54 300.70 L527.43 301.29 L525.44 301.01 L523.39 301.28 L521.44 300.71 L519.42 300.73 L517.46 300.26 L515.49 299.62 L513.56 298.45 L511.55 298.16 L509.58 297.08 L507.58 296.14 L505.53 296.53 L503.50 296.40 L501.46 296.33 L499.42 295.14 L497.37 295.37 L495.35 296.20 L493.30 296.04 L491.31 297.13 L489.40 299.48 L487.42 300.03 L485.40 299.84 L483.53 301.68 L481.66 303.02 L479.54 301.74 L477.72 303.34 L475.77 303.70 L473.60 302.39 L471.61 302.59 L469.71 303.36 L467.69 303.33 L465.61 303.02 L463.94 304.99 L462.01 305.46 L459.80 304.55 L457.78 304.62 L455.85 305.15 L453.67 304.63 L451.66 304.86 L449.82 305.77 L448.05 306.90 L446.21 307.75 L444.49 309.01 L442.98 310.86 L441.14 311.63 L439.35 312.50 L438.08 314.92 L436.15 315.28 L434.67 316.96 L433.20 318.61 L431.43 319.37 L429.49 319.73 L427.80 320.71 L425.73 320.76 L423.99 321.62 L421.91 321.71 L420.15 322.54 L418.73 324.11 L416.86 324.69 L415.42 326.17 L414.09 327.82 L412.33 328.61 L410.49 329.25 L408.55 329.71 L406.78 330.50 L404.62 330.61 L402.45 330.75 L400.95 332.04 L399.86 334.01 L398.70 335.82 L397.31 337.24 L396.52 339.56 L395.46 341.42 L393.63 342.10 L392.50 343.82 L391.40 345.55 L389.58 346.25 L388.14 347.48 L386.93 349.03 L385.37 350.10 L383.42 350.66 L381.81 351.69 L380.17 352.67 L377.84 352.84 L375.50 353.04 L373.63 353.81 L371.93 354.81 L370.54 356.16 L369.45 357.84 L369.70 360.93 L369.34 363.31 L369.18 365.85 L368.63 367.96 L367.68 369.63 L366.23 370.81 L364.58 371.81 L362.47 372.40 L360.95 373.55 L359.18 374.49 L357.10 375.19 L356.19 376.90 L355.34 378.66 L354.86 380.71 L355.25 383.43 L355.13 385.71 L355.67 388.45 L355.44 390.57 L354.29 391.97 L352.97 393.25 L351.88 394.71 L351.66 396.77 L350.47 398.15 L349.81 399.88 L348.76 401.35 L347.72 402.83 L345.85 403.79 L343.37 404.41 L341.80 405.61 L340.09 406.74 L338.97 408.23 L338.16 409.91 L337.74 411.79 L336.93 413.44 L337.05 415.59 L337.34 417.79 L336.09 419.21 L336.01 421.19 L335.36 422.90 L334.34 424.43 L334.26 426.39 L333.83 428.18 L332.74 429.69 L332.26 431.45 L332.52 433.50 L331.76 435.14 L330.49 436.59 L331.08 438.73 L331.13 440.65 L329.43 441.96 L328.10 443.42 L328.64 445.49 L328.24 447.25 L326.98 448.75 L326.63 450.53 L327.87 452.74 L326.00 454.09 L325.08 455.71 L326.00 457.79 L326.14 459.66 L325.94 461.45 L326.86 463.46 L328.38 465.57 L327.57 467.20 L326.22 468.74 L326.69 470.61 L326.27 472.33 L326.72 474.17 L326.31 475.88 L326.04 477.62 L325.79 479.35 L325.10 481.04 L324.41 482.74 L324.92 484.56 L325.42 486.36 L325.57 488.13 L325.57 489.88 L324.61 491.58 L323.35 493.29 L323.23 495.06 L323.38 496.83 L324.51 498.60 L326.70 500.35 L327.68 502.07 L328.28 503.78 L328.18 505.51 L327.71 507.25 L327.40 508.99 L327.69 510.70 L328.59 512.37 L329.74 514.00 L331.26 515.57 L332.12 517.19 L331.68 518.94 L332.25 520.57 L332.85 522.20 L332.76 523.92 L333.49 525.51 L334.75 527.01 L335.68 528.55 L335.70 530.24 L335.47 531.99 L337.02 533.38 L337.77 534.92 L338.13 536.54 L339.87 537.84 L340.86 539.29 L341.33 540.86 L342.45 542.26 L342.70 543.88 L342.70 545.58 L343.99 546.90 L345.18 548.24 L345.03 549.99 L345.24 551.64 L346.41 552.96 L346.79 554.55 L346.87 556.25 L347.19 557.87 L347.93 559.34 L348.87 560.72 L350.32 561.88 L351.62 563.09 L352.86 564.31 L354.23 565.45 L355.18 566.77 L355.78 568.25 L356.35 569.75 L356.66 571.38 L357.10 572.96 L357.97 574.31 L358.81 575.68 L358.56 577.64 L358.34 579.62 L358.75 581.25 L358.30 583.41 L358.21 585.39 L359.59 586.48 L360.39 587.93 L361.17 589.39 L361.73 590.99 L361.77 592.96 L361.91 594.89 L362.49 596.52 L364.03 597.49 L367.08 597.33 L369.07 597.90 L371.40 598.17 L374.62 597.72 L375.56 599.00 L376.28 600.46 L377.48 601.54 L378.85 602.46 L380.69 602.97 L382.09 603.84 L383.93 604.30 L385.91 604.60 L387.37 605.35 L388.45 606.45 L389.51 607.58 L390.60 608.67 L391.93 609.51 L392.97 610.66 L393.71 612.11 L394.80 613.21 L395.92 614.27 L397.00 615.38 L398.25 616.30 L399.73 616.95 L401.35 617.41 L402.63 618.28 L403.92 619.12 L405.43 619.67 L406.47 620.82 L407.84 621.55 L409.17 622.31 L410.78 622.69 L412.07 623.49 L413.36 624.29 L415.15 624.35 L416.99 624.31 L418.45 624.81 L420.20 624.84 L421.62 625.36 L423.11 625.76 L424.44 626.42 L425.13 628.14 L426.71 628.38 L428.30 628.55 L429.02 630.31 L429.77 632.06 L431.14 632.68 L431.91 634.45 L432.95 635.75 L434.31 636.43 L435.88 636.65 L437.47 636.79 L439.13 636.76 L440.69 636.93 L442.09 637.45 L443.24 638.57 L445.25 637.57 L446.80 637.66 L448.06 638.51 L450.06 637.34 L451.98 636.30 L453.33 636.79 L454.87 636.75 L456.50 636.37 L457.72 637.28 L458.97 638.13 L460.43 638.25 L461.95 638.16 L463.31 638.60 L464.75 638.77 L466.35 638.23 L467.84 638.13 L469.29 638.12 L470.67 638.43 L472.18 638.12 L473.56 638.41 L474.88 639.05 L476.29 639.18 L477.58 640.01 L478.93 640.62 L480.40 640.37 L481.89 639.91 L483.36 639.48 L484.79 639.33 L486.24 638.87 L487.73 637.93 L489.07 638.44 L490.47 638.34 L491.89 637.82 L493.27 637.99 L494.65 637.96 L496.04 637.68 L497.43 637.18 L498.81 636.29 L500.17 635.72 L501.52 634.89 L502.84 633.78 L504.16 633.18 L505.47 632.57 L506.77 632.06 L508.08 631.71 L509.35 631.08 L510.63 630.59 L511.91 630.14 L513.17 629.62 L514.42 629.09 L515.72 629.01 L516.98 628.62 L518.24 628.25 L519.59 628.54 L520.87 628.33 L522.16 628.14 L523.44 627.92 L524.68 627.46 L525.91 627.03 L527.08 626.28 L528.32 625.89 L529.58 625.63 L530.78 625.11 L531.94 624.43 L533.08 623.72 L534.20 622.96 L535.28 622.11 L536.34 621.24 L537.44 620.52 L538.58 619.93 L539.78 619.54 L541.09 619.48 L542.36 619.29 L543.64 619.08 L544.88 618.80 L546.02 618.21 L546.98 617.20 L547.90 616.12 L549.03 615.56 L550.13 614.95 L551.17 614.21 L552.48 614.06 L553.69 613.67 L554.77 613.03 L555.88 612.43 L556.80 611.47 L557.66 610.42 L558.50 609.35 L559.32 608.27 L560.13 607.18 L560.90 606.06 L561.74 605.07 L562.53 604.02 L563.34 603.02 L564.30 602.27 L565.19 601.43 L566.23 600.82 L567.30 600.24 L568.29 599.55 L569.29 598.88 L570.02 597.83 L570.78 596.83 L571.59 595.90 L572.23 594.76 L573.02 593.85 L573.87 593.01 L574.63 592.06 L575.46 591.19 L576.25 590.29 L576.84 589.18 L577.40 588.03 L578.13 587.08 L578.92 586.21 L579.51 585.14 L580.16 584.13 L580.83 583.15 L581.30 581.98 L581.80 580.85 L582.35 579.78 L582.90 578.72 L583.43 577.66 L584.03 576.66 L584.54 575.59 L585.02 574.50 L585.54 573.46 L586.02 572.39 L586.52 571.34 L587.05 570.33 L587.50 569.26 L587.93 568.18 L588.39 567.13 L588.86 566.10 L589.30 565.05 L589.77 564.03 L590.22 563.00 L590.68 561.98 L591.12 560.95 L591.54 559.91 L591.96 558.89 L592.38 557.86 L592.74 556.80 L593.15 555.78 L593.49 554.72 L593.85 553.68 L594.24 552.66 L594.61 551.63 L595.00 550.62 L595.37 549.60 L595.72 548.57 L596.07 547.54 L596.34 546.49 L596.68 545.46 L596.93 544.40 L597.15 543.33 L597.43 542.29 L597.69 541.25 L597.89 540.19 L598.09 539.13 L598.31 538.08 L598.56 537.05 L598.74 535.99 L598.99 534.97 L599.14 533.91 L599.28 532.85 L599.47 531.82 L599.55 530.75 L599.70 529.70 L599.85 528.67 L599.92 527.61 L600.03 526.56 L600.12 525.52 L600.17 524.47 L600.24 523.42 L600.33 522.39 L600.35 521.34 L600.40 520.31 L600.43 519.27 L600.41 518.23 L600.40 517.19 L600.44 516.16 L600.42 515.13 L600.43 514.11 L600.36 513.07 L600.31 512.05 L600.22 511.02 L600.11 510.00 L599.96 508.98 L599.87 507.96 L599.75 506.95 L599.61 505.94 L599.50 504.93 L599.39 503.93 L599.27 502.93 L599.15 501.94 L598.95 500.95 Z"/>
  <svg class="pausebutton" id="pausebutton">
    <circle cx="500" cy="500" id="pausestart" class="pausestart" r="52.65"/>
    <rect height="50.02" width="10.00" y="473.68" rx="2.00" ry="2.00" x="479.99" class="pausesymbol"/>
    <rect height="50.02" width="10.00" y="473.68" rx="2.00" ry="2.00" x="510.00" class="pausesymbol"/>
    <polygon points="530.01,500 479.99,530.01 479.99,469.99" class="playsymbol"/>
  </svg>
  <polygon id="playback-head" class="playback-head" points="941.65,500 921.65,540 961.65,540"/>
</svg>