<?xml-stylesheet href="../../style/waveformjs.css" type="text/css"?>
<svg xmlns="http://www.w3.org/2000/svg" xmlns:xlink="http://www.w3.org/1999/xlink" width="100%" height="100%" viewBox="0 0 1000 1000">
  <path class="svg-wave" id="sp" d="M597.67 500.00 L597.85 500.98 L598.01 501.96 L598.17 502.95 L598.32 503.94 L598.45 504.93 L598.58 505.92 L598.70 506.92 L598.80 507.92 L598.90 508.93 L598.99 509.93 L599.07 510.94 L599.13 511.95 L599.19 512.97 L599.23 513.98 L599.25 515.00 L599.27 516.02 L599.27 517.04 L599.24 518.06 L599.20 519.08 L599.16 520.10 L599.08 521.12 L598.95 522.13 L598.84 523.14 L598.71 524.16 L598.56 525.17 L598.42 526.18 L598.29 527.20 L598.12 528.21 L597.96 529.23 L597.80 530.25 L597.64 531.28 L597.49 532.31 L597.40 533.36 L597.27 534.41 L597.07 535.43 L596.94 536.49 L596.68 537.50 L596.34 538.48 L596.03 539.47 L595.69 540.46 L595.36 541.45 L595.02 542.43 L594.45 543.32 L594.12 544.31 L593.75 545.28 L593.35 546.25 L592.92 547.20 L592.54 548.18 L592.20 549.18 L591.76 550.13 L591.39 551.12 L591.13 552.18 L590.89 553.25 L590.73 554.39 L590.47 555.47 L590.14 556.51 L589.72 557.51 L589.12 558.39 L588.54 559.28 L588.07 560.25 L587.49 561.15 L586.91 562.05 L586.32 562.94 L585.57 563.71 L584.90 564.54 L584.45 565.55 L583.79 566.39 L583.18 567.27 L582.83 568.36 L582.21 569.24 L581.58 570.12 L581.09 571.13 L580.52 572.06 L579.97 573.02 L579.43 573.99 L578.82 574.92 L578.34 575.96 L577.67 576.84 L576.89 577.61 L576.31 578.57 L575.63 579.45 L574.73 580.09 L573.83 580.73 L573.14 581.60 L572.24 582.24 L571.54 583.09 L570.77 583.89 L569.75 584.37 L568.96 585.13 L568.06 585.77 L567.17 586.41 L566.46 587.28 L565.86 588.31 L565.52 589.71 L565.00 590.89 L564.50 592.14 L563.74 593.00 L562.90 593.78 L561.95 594.40 L561.02 595.03 L560.08 595.66 L559.05 596.15 L557.99 596.57 L557.02 597.15 L555.98 597.59 L554.94 598.03 L554.10 598.84 L553.13 599.42 L552.17 600.02 L551.35 600.90 L550.43 601.59 L549.49 602.25 L548.54 602.88 L547.71 603.80 L546.78 604.54 L545.93 605.44 L545.03 606.28 L543.88 606.50 L542.80 606.91 L541.69 607.22 L540.72 607.92 L539.69 608.46 L538.46 608.46 L537.54 609.32 L536.42 609.61 L535.24 609.70 L534.07 609.84 L533.00 610.28 L531.80 610.26 L530.73 610.69 L529.65 611.09 L528.56 611.46 L527.61 612.42 L526.64 613.36 L525.64 614.23 L524.69 615.40 L523.59 615.91 L522.49 616.42 L521.29 616.45 L520.10 616.54 L518.94 616.75 L517.80 617.12 L516.59 617.05 L515.35 616.67 L514.20 617.02 L513.06 617.36 L511.87 617.39 L510.70 617.50 L509.55 617.91 L508.38 618.20 L507.20 618.21 L506.02 618.46 L504.85 618.83 L503.68 619.34 L502.49 619.92 L501.29 619.94 L500.10 620.85 L498.88 621.45 L497.68 620.93 L496.46 621.13 L495.26 620.92 L494.05 620.82 L492.86 620.47 L491.70 619.68 L490.48 619.90 L489.28 619.90 L488.11 619.51 L486.91 619.39 L485.75 618.95 L484.55 618.90 L483.44 618.16 L482.24 618.12 L480.99 618.37 L479.72 618.69 L478.27 619.98 L476.88 620.72 L475.50 621.36 L474.22 621.43 L472.98 621.29 L471.86 620.62 L470.72 620.04 L469.48 619.92 L468.33 619.44 L467.30 618.51 L466.13 618.13 L464.94 617.83 L463.80 617.37 L462.64 616.95 L461.43 616.69 L460.24 616.38 L459.06 616.02 L457.94 615.50 L456.63 615.51 L455.32 615.46 L453.70 616.20 L452.33 616.23 L450.92 616.35 L449.33 616.83 L448.37 615.86 L447.46 614.81 L446.21 614.50 L445.14 613.80 L444.09 613.07 L443.31 611.82 L442.59 610.49 L441.70 609.51 L440.76 608.64 L439.83 607.78 L439.00 606.74 L437.76 606.42 L436.60 605.96 L435.70 605.07 L434.51 604.64 L433.05 604.64 L431.42 604.86 L429.68 605.21 L427.78 605.75 L426.47 605.38 L425.38 604.70 L424.40 603.86 L423.81 602.51 L422.64 601.93 L421.83 600.89 L421.05 599.81 L420.23 598.80 L419.57 597.61 L418.79 596.58 L417.78 595.82 L416.72 595.10 L416.07 593.94 L414.61 593.66 L413.67 592.82 L412.57 592.14 L411.41 591.51 L409.98 591.14 L407.86 591.44 L406.64 590.81 L405.22 590.37 L403.74 589.96 L403.69 588.22 L403.42 586.71 L402.93 585.42 L402.69 583.91 L401.85 582.94 L401.21 581.80 L400.35 580.85 L399.13 580.17 L398.29 579.20 L397.60 578.11 L397.84 576.32 L397.20 575.21 L396.90 573.85 L396.55 572.55 L395.45 571.77 L393.80 571.35 L390.84 571.77 L389.12 571.32 L386.61 571.34 L385.37 570.53 L385.07 569.14 L384.26 568.06 L383.81 566.77 L383.45 565.44 L382.81 564.26 L382.77 562.77 L382.44 561.44 L382.17 560.09 L381.84 558.78 L381.45 557.50 L380.94 556.28 L380.29 555.13 L379.42 554.08 L379.12 552.77 L377.86 551.87 L376.69 550.92 L374.73 550.27 L373.46 549.31 L371.72 548.52 L370.39 547.55 L371.02 545.86 L371.23 544.34 L371.86 542.69 L371.32 541.44 L370.63 540.24 L371.01 538.72 L371.11 537.29 L371.04 535.91 L370.82 534.59 L371.55 533.02 L371.92 531.56 L371.54 530.29 L370.91 529.08 L370.55 527.81 L370.29 526.51 L368.37 525.53 L366.38 524.53 L364.56 523.47 L361.81 522.53 L361.13 521.21 L360.48 519.89 L360.79 518.43 L361.44 516.93 L361.32 515.54 L361.30 514.14 L361.72 512.70 L362.84 511.22 L362.63 509.85 L362.52 508.48 L362.55 507.10 L362.06 505.74 L361.83 504.37 L361.37 502.99 L361.53 501.61 L360.97 500.22 L360.73 498.83 L360.08 497.42 L357.89 495.96 L357.53 494.53 L356.02 493.02 L354.95 491.52 L356.39 490.16 L357.22 488.78 L357.53 487.37 L358.28 486.01 L359.24 484.68 L359.39 483.27 L360.62 482.00 L361.03 480.64 L360.52 479.15 L361.90 477.94 L362.92 476.69 L362.32 475.17 L363.44 473.96 L363.67 472.59 L363.08 471.04 L362.49 469.48 L360.00 467.46 L358.66 465.65 L357.28 463.80 L357.09 462.23 L357.15 460.71 L358.07 459.43 L359.53 458.33 L359.38 456.75 L360.57 455.58 L362.45 454.66 L363.42 453.46 L363.49 451.96 L364.41 450.75 L364.93 449.41 L365.34 448.02 L365.70 446.61 L366.21 445.25 L366.48 443.80 L366.44 442.20 L366.60 440.68 L365.61 438.62 L365.81 437.08 L364.96 435.03 L364.50 433.13 L365.90 432.15 L366.99 431.02 L367.78 429.75 L368.49 428.43 L369.49 427.27 L371.42 426.65 L371.77 425.14 L371.84 423.46 L373.76 422.88 L375.01 421.92 L375.93 420.75 L377.94 420.31 L378.26 418.77 L379.71 417.98 L380.26 416.60 L379.74 414.43 L379.26 412.26 L378.57 409.89 L377.62 407.27 L377.79 405.46 L379.15 404.57 L380.13 403.38 L381.49 402.50 L382.45 401.31 L383.76 400.41 L385.37 399.78 L386.46 398.72 L388.28 398.31 L389.94 397.80 L390.57 396.32 L391.64 395.26 L392.78 394.26 L392.99 392.34 L394.18 391.39 L395.10 390.16 L395.60 388.47 L396.06 386.71 L396.18 384.55 L396.64 382.71 L397.31 381.10 L397.75 379.19 L399.62 378.96 L401.25 378.48 L402.22 377.18 L403.72 376.55 L405.22 375.93 L407.29 376.09 L408.15 374.66 L410.35 375.05 L411.92 374.62 L413.05 373.56 L414.77 373.36 L415.93 372.35 L417.40 371.81 L418.47 370.64 L419.43 369.30 L420.11 367.43 L420.14 364.44 L421.02 362.81 L421.87 361.11 L423.19 360.20 L424.71 359.66 L426.64 359.91 L428.40 359.88 L429.94 359.44 L431.47 359.00 L432.97 358.50 L434.27 357.58 L435.77 357.08 L437.24 356.53 L438.44 355.35 L439.99 355.00 L441.48 354.49 L442.82 353.62 L444.56 353.78 L445.96 353.05 L447.54 352.81 L449.04 352.36 L450.26 351.11 L451.73 350.55 L452.17 346.67 L453.72 346.25 L455.23 345.69 L456.31 343.59 L458.09 343.97 L459.58 343.26 L461.32 343.56 L462.98 343.58 L464.73 344.02 L466.84 346.20 L468.21 345.08 L470.07 346.36 L471.95 347.94 L472.90 344.35 L474.68 345.47 L475.83 342.62 L477.05 339.94 L478.63 339.54 L479.93 336.86 L481.56 336.59 L483.13 335.83 L484.69 334.81 L486.40 335.35 L488.01 334.67 L489.68 334.81 L491.38 335.63 L493.10 337.33 L494.76 338.18 L496.35 336.89 L497.99 337.87 L499.61 338.37 L501.24 337.00 L502.87 337.24 L504.48 337.89 L506.07 338.66 L507.66 339.28 L509.30 338.80 L510.93 338.63 L512.70 336.63 L514.50 334.91 L516.22 334.36 L518.19 331.66 L519.86 331.95 L521.48 332.55 L523.07 333.39 L524.64 334.32 L526.16 335.40 L527.63 336.67 L529.19 337.41 L530.64 338.59 L532.10 339.70 L533.62 340.39 L535.09 341.31 L536.55 342.21 L537.95 343.28 L539.56 343.50 L541.05 344.18 L542.36 345.49 L544.50 343.86 L547.14 340.63 L548.87 340.67 L551.44 338.10 L554.08 335.49 L555.95 335.36 L557.74 335.51 L559.12 336.84 L560.17 338.98 L561.28 340.88 L562.91 341.40 L564.46 342.11 L565.74 343.47 L567.57 343.52 L569.36 343.68 L570.65 344.97 L571.88 346.36 L573.15 347.64 L574.52 348.69 L576.26 348.98 L578.17 348.97 L581.02 347.23 L582.71 347.74 L585.44 346.39 L587.69 346.00 L588.67 347.84 L589.74 349.48 L590.89 350.96 L591.87 352.69 L592.91 354.28 L594.03 355.73 L594.95 357.46 L596.21 358.65 L597.16 360.27 L597.82 362.28 L598.76 363.86 L599.50 365.69 L600.63 366.97 L601.40 368.70 L602.36 370.16 L604.55 370.08 L607.41 369.22 L610.44 368.25 L613.05 367.84 L617.15 365.78 L619.48 365.85 L621.03 366.81 L622.40 367.99 L623.03 369.94 L623.05 372.49 L624.08 373.98 L626.13 374.43 L626.54 376.52 L627.72 377.83 L629.77 378.33 L630.83 379.77 L631.39 381.66 L632.28 383.23 L633.11 384.85 L634.58 385.91 L635.70 387.27 L638.89 386.95 L641.22 387.39 L643.15 388.17 L646.62 387.80 L647.26 389.63 L648.18 391.24 L648.65 393.16 L648.78 395.31 L649.45 397.05 L649.59 399.15 L650.19 400.91 L650.41 402.92 L650.54 404.95 L650.89 406.82 L650.82 408.94 L651.01 410.87 L651.13 412.83 L651.87 414.41 L651.94 416.36 L652.83 417.86 L656.45 417.91 L659.93 418.12 L661.88 419.15 L665.66 419.33 L669.41 419.59 L670.26 421.26 L671.40 422.80 L671.97 424.60 L671.57 426.82 L671.94 428.68 L672.52 430.45 L673.35 432.13 L673.58 434.03 L674.06 435.83 L675.63 437.24 L676.09 439.06 L676.10 441.02 L676.63 442.80 L676.49 444.79 L677.45 446.43 L679.68 447.71 L682.56 448.85 L683.59 450.53 L687.36 451.52 L689.47 452.99 L688.96 455.12 L688.95 457.11 L688.52 459.19 L688.67 461.13 L688.24 463.18 L687.82 465.20 L687.68 467.17 L688.12 469.03 L687.89 470.99 L686.74 473.08 L686.26 475.05 L686.07 476.96 L685.14 478.96 L685.24 480.82 L686.43 482.58 L688.91 484.25 L689.90 486.08 L693.03 487.79 L694.34 489.65 L695.30 491.56 L695.18 493.52 L695.97 495.46 L695.77 497.42 L694.39 499.38 L692.72 501.31 L692.33 503.23 L692.98 505.18 L692.20 507.08 L691.61 508.98 L692.49 510.95 L692.16 512.86 L691.28 514.72 L690.38 516.57 L689.03 518.36 L688.63 520.23 L689.65 522.26 L692.17 524.50 L693.42 526.63 L695.80 528.95 L699.49 531.54 L698.77 533.47 L698.19 535.41 L697.75 537.38 L696.43 539.17 L695.12 540.94 L693.85 542.70 L693.06 544.56 L691.78 546.29 L690.76 548.06 L689.21 549.69 L687.83 551.34 L687.22 553.19 L685.39 554.68 L684.46 556.42 L685.07 558.63 L686.05 561.00 L687.87 563.68 L689.27 566.27 L691.06 569.05 L692.50 571.76 L691.38 573.53 L691.10 575.62 L690.48 577.59 L688.16 578.85 L685.69 580.01 L683.73 581.35 L682.64 583.06 L681.27 584.64 L679.81 586.15 L679.38 588.16 L678.97 590.19 L677.40 591.64 L675.76 593.03 L673.87 594.27 L672.04 595.52 L671.84 597.66 L672.74 600.47 L674.11 603.61 L674.61 606.29 L677.53 610.52 L677.48 612.97 L675.86 614.42 L674.84 616.26 L672.71 617.35 L671.38 618.97 L669.59 620.26 L667.65 621.42 L665.83 622.65 L664.63 624.33 L663.03 625.70 L660.12 626.03 L658.44 627.29 L656.89 628.65 L654.72 629.48 L653.37 630.98 L653.12 633.44 L653.92 636.86 L653.49 639.26 L653.98 642.53 L653.64 645.10 L652.44 646.87 L650.72 648.15 L649.49 649.92 L647.48 650.88 L645.00 651.35 L642.36 651.60 L640.46 652.61 L639.01 654.09 L636.84 654.77 L634.91 655.71 L633.83 657.61 L632.02 658.67 L629.95 659.39 L627.92 660.15 L625.79 660.75 L624.25 662.10 L623.30 664.24 L623.07 667.38 L622.12 669.62 L621.65 672.58 L621.70 676.37 L619.54 677.01 L617.36 677.58 L615.20 678.16 L612.87 678.45 L610.74 679.02 L608.13 678.76 L605.95 679.19 L603.75 679.54 L601.47 679.72 L599.14 679.76 L597.15 680.40 L595.32 681.33 L593.33 681.94 L591.38 682.60 L589.38 683.16 L587.93 684.85 L587.39 688.56 L587.06 692.89 L585.86 695.41 L585.56 700.13 L584.11 702.32 L582.13 703.29 L580.01 703.86 L577.58 703.66 L575.17 703.41 L572.99 703.77 L570.94 704.45 L568.72 704.64 L566.52 704.84 L564.33 705.07 L562.55 706.60 L560.36 706.81 L558.10 706.74 L556.07 707.45 L553.94 707.80 L551.96 708.70 L550.16 710.46 L548.21 711.65 L546.25 712.83 L544.66 715.91 L542.49 716.30 L540.20 716.01 L538.03 716.38 L535.72 715.86 L533.43 715.36 L531.27 715.69 L529.00 715.12 L526.70 714.21 L524.55 714.42 L522.30 713.72 L520.04 712.59 L517.84 711.91 L515.69 711.75 L513.53 711.13 L511.38 710.63 L509.30 711.27 L507.25 713.13 L505.15 714.89 L503.03 716.94 L500.88 720.79 L498.65 724.40 L496.39 725.43 L494.09 726.99 L491.80 727.49 L489.59 726.12 L487.42 724.37 L485.24 723.26 L482.94 723.96 L480.78 722.84 L478.64 721.82 L476.31 722.65 L474.08 722.40 L471.91 721.75 L469.69 721.47 L467.47 721.19 L465.08 721.97 L463.02 720.67 L460.95 719.56 L458.45 720.78 L456.40 719.57 L454.22 719.08 L451.58 720.67 L449.23 720.78 L447.32 719.03 L445.44 717.28 L443.01 717.71 L441.21 715.76 L440.10 711.48 L437.91 711.13 L435.25 712.29 L433.55 710.31 L431.64 709.08 L428.75 710.74 L426.44 710.63 L424.44 709.59 L421.90 710.03 L419.63 709.69 L417.76 708.31 L415.59 707.71 L413.54 706.78 L411.91 704.90 L410.17 703.32 L408.39 701.87 L406.48 700.72 L404.88 698.93 L403.06 697.63 L400.72 697.39 L397.87 698.09 L394.83 699.08 L392.35 698.94 L389.19 699.96 L386.77 699.60 L385.25 697.64 L383.66 695.85 L382.15 693.94 L380.59 692.16 L378.08 691.89 L374.92 692.58 L372.14 692.61 L368.98 693.16 L364.88 694.98 L362.92 693.63 L361.27 691.88 L359.12 690.79 L357.98 688.37 L356.33 686.64 L354.76 684.83 L353.00 683.26 L351.86 680.95 L350.27 679.21 L348.91 677.21 L348.20 674.48 L346.43 672.98 L345.89 670.13 L343.98 668.82 L341.63 667.96 L339.19 667.17 L335.53 667.58 L332.59 667.20 L329.60 666.82 L326.70 666.30 L325.31 664.31 L323.66 662.56 L321.72 661.08 L321.15 658.39 L320.49 655.80 L319.74 653.31 L318.34 651.39 L317.19 649.28 L315.76 647.40 L314.19 645.63 L312.16 644.22 L311.36 641.85 L310.30 639.71 L309.86 637.12 L309.31 634.64 L307.51 633.05 L305.47 631.60 L302.29 630.89 L300.46 629.25 L297.04 628.60 L294.57 627.30 L293.91 624.88 L293.11 622.55 L292.50 620.13 L292.08 617.61 L291.31 615.31 L291.18 612.67 L290.94 610.11 L290.18 607.85 L290.12 605.24 L289.63 602.86 L289.47 600.35 L288.66 598.15 L288.34 595.74 L288.08 593.31 L287.74 590.94 L285.67 589.30 L281.80 588.36 L280.74 586.25 L278.44 584.61 L273.36 583.96 L273.09 581.49 L271.23 579.58 L270.27 577.35 L268.86 575.26 L267.44 573.16 L266.28 570.96 L265.84 568.55 L264.48 566.40 L263.54 564.11 L263.56 561.58 L262.88 559.23 L262.53 556.80 L262.65 554.27 L262.46 551.82 L261.66 549.50 L261.34 547.08 L261.42 544.59 L261.33 542.14 L261.50 539.66 L261.64 537.19 L261.38 534.79 L261.33 532.36 L261.55 529.91 L261.46 527.50 L261.89 525.04 L262.60 522.57 L262.57 520.18 L262.78 517.77 L262.78 515.39 L262.85 513.00 L262.65 510.64 L262.99 508.25 L263.19 505.87 L263.91 503.49 L263.92 501.13 L263.30 498.76 L260.35 496.35 L255.57 493.83 L253.88 491.33 L248.96 488.64 L245.00 485.90 L245.31 483.36 L244.84 480.77 L246.39 478.33 L248.35 475.96 L249.76 473.57 L249.95 471.06 L250.69 468.62 L251.59 466.20 L251.04 463.59 L250.97 461.03 L251.75 458.61 L253.13 456.29 L254.36 453.98 L254.80 451.51 L254.86 448.97 L253.85 446.19 L252.44 443.28 L252.48 440.68 L250.41 437.54 L250.66 434.94 L251.82 432.59 L253.07 430.27 L254.67 428.07 L256.16 425.85 L257.38 423.56 L258.81 421.35 L260.55 419.26 L261.91 417.06 L263.28 414.87 L265.43 412.99 L266.96 410.89 L268.83 408.95 L270.02 406.75 L271.77 404.79 L273.48 402.83 L271.99 399.48 L269.64 395.68 L268.90 392.55 L267.01 388.82 L263.62 384.29 L264.83 381.95 L265.97 379.58 L268.14 377.75 L270.73 376.17 L273.72 374.84 L275.50 372.88 L276.46 370.46 L278.89 368.89 L280.12 366.63 L280.70 363.96 L282.71 362.19 L284.73 360.43 L286.59 358.58 L288.19 356.58 L289.49 354.36 L290.28 351.79 L289.14 347.80 L289.68 344.97 L289.73 341.73 L289.25 338.05 L291.32 336.29 L293.41 334.56 L295.51 332.86 L297.96 331.47 L300.23 329.94 L302.39 328.35 L304.81 326.99 L306.84 325.31 L309.29 324.03 L311.85 322.88 L314.42 321.76 L316.48 320.17 L319.30 319.36 L321.63 318.10 L324.09 316.97 L325.14 314.38 L324.87 310.34 L324.50 306.08 L324.54 302.19 L323.34 296.77 L323.89 293.26 L325.71 291.20 L327.86 289.54 L330.95 289.05 L334.54 289.25 L337.34 288.48 L339.22 286.55 L342.11 285.97 L344.49 284.73 L346.02 282.28 L348.18 280.72 L350.62 279.56 L353.31 278.80 L355.93 277.97 L358.12 276.48 L360.33 275.01 L361.66 272.11 L363.02 269.18 L365.11 267.42 L366.07 263.67 L368.11 261.75 L370.80 260.99 L373.29 259.89 L376.06 259.34 L378.99 259.15 L381.53 258.21 L384.42 258.00 L387.16 257.53 L389.78 256.84 L392.58 256.58 L395.32 256.21 L398.08 255.94 L400.97 256.02 L403.48 255.20 L406.18 254.91 L408.70 254.15 L410.22 250.62 L411.01 244.85 L413.10 242.58 L414.68 238.68 L415.65 232.60 L418.22 231.43 L420.77 230.14 L423.51 229.50 L426.05 228.11 L428.87 227.76 L431.42 226.38 L433.97 224.91 L436.88 224.96 L439.64 224.35 L442.66 225.01 L445.29 223.82 L447.77 221.78 L450.85 222.95 L453.67 222.74 L456.65 223.60 L459.31 222.43 L461.97 221.20 L465.15 223.90 L467.62 221.12 L470.08 217.68 L473.03 218.67 L475.88 218.87 L478.72 218.97 L481.60 219.78 L484.46 220.72 L487.30 221.44 L490.08 221.36 L492.88 221.51 L495.66 221.47 L498.45 222.44 L501.22 224.17 L503.99 223.49 L506.70 225.65 L509.43 226.18 L512.24 224.58 L515.06 223.53 L517.93 222.02 L520.88 219.99 L523.81 218.61 L526.74 217.69 L529.52 218.31 L532.40 218.11 L535.25 218.15 L537.91 219.71 L540.48 221.69 L543.15 222.79 L546.01 222.68 L548.71 223.60 L551.40 224.49 L554.35 224.01 L557.11 224.53 L559.72 225.77 L562.27 227.20 L564.73 228.95 L567.28 230.26 L570.23 229.96 L573.54 228.39 L576.70 227.56 L580.04 226.23 L583.92 223.25 L586.80 223.73 L589.55 224.65 L592.34 225.43 L594.78 227.23 L597.30 228.76 L599.71 230.54 L602.24 231.98 L604.48 234.12 L606.85 235.88 L609.21 237.62 L611.43 239.66 L613.84 241.21 L616.04 243.22 L618.40 244.83 L621.18 245.52 L623.78 246.63 L626.66 247.18 L629.21 248.39 L631.99 249.19 L634.31 250.86 L636.19 253.31 L638.25 255.38 L640.48 257.15 L642.67 258.96 L644.81 260.83 L647.10 262.44 L650.41 262.44 L654.44 261.39 L657.11 262.50 L660.14 263.10 L663.98 262.57 L666.06 264.64 L667.98 266.89 L669.86 269.19 L671.42 271.88 L673.91 273.33 L676.81 274.26 L680.62 274.08 L683.67 274.92 L687.27 275.14 L691.91 274.20 L694.45 275.79 L696.58 277.85 L697.95 280.76 L700.05 282.85 L701.60 285.50 L703.30 287.99 L704.87 290.58 L706.03 293.57 L709.23 294.51 L712.11 295.82 L712.32 299.67 L715.20 300.97 L718.22 302.19 L719.86 304.67 L720.89 307.67 L722.62 310.05 L726.33 310.76 L728.57 312.74 L731.08 314.52 L735.18 315.06 L738.04 316.64 L740.78 318.33 L742.89 320.53 L744.56 323.04 L745.41 326.14 L746.51 329.04 L748.19 331.52 L749.34 334.36 L749.53 337.81 L750.96 340.43 L752.37 343.05 L752.90 346.20 L754.11 348.93 L755.65 351.45 L756.84 354.18 L758.75 356.50 L761.63 358.30 L763.16 360.86 L764.99 363.26 L767.97 365.10 L769.54 367.67 L770.48 370.55 L771.92 373.19 L773.19 375.91 L773.39 379.10 L773.97 382.10 L774.46 385.13 L774.15 388.47 L774.48 391.52 L775.86 394.15 L776.02 397.25 L776.63 400.16 L778.09 402.76 L779.23 405.49 L779.27 408.58 L780.51 411.26 L784.75 413.05 L788.96 414.91 L791.36 417.36 L795.05 419.49 L798.54 421.74 L798.93 424.83 L799.73 427.80 L799.03 431.13 L798.91 434.30 L798.74 437.46 L798.89 440.54 L799.53 443.52 L799.39 446.64 L799.90 449.64 L801.23 452.51 L801.78 455.51 L801.48 458.63 L801.90 461.64 L801.80 464.72 L802.35 467.72 L803.84 470.63 L805.78 473.52 L806.21 476.57 L808.36 479.50 L809.66 482.53 L809.12 485.66 L808.69 488.77 L808.13 491.87 L807.54 494.96 L806.70 498.05 L805.83 501.11 L805.04 504.16 L804.27 507.19 L803.17 510.20 L802.48 513.21 L801.48 516.18 L800.70 519.16 L800.49 522.17 L799.32 525.09 L798.71 528.05 L800.25 531.23 L803.30 534.61 L805.18 537.92 L807.52 541.34 L812.71 545.23 L812.85 548.44 L812.96 551.67 L811.60 554.65 L809.36 557.45 L806.73 560.14 L804.91 562.96 L804.75 566.11 L803.22 568.96 L802.02 571.87 L802.10 575.09 L801.26 578.09 L799.69 580.89 L798.25 583.71 L796.34 586.38 L795.27 589.28 L795.42 592.56 L796.91 596.30 L797.13 599.66 L798.58 603.48 L801.08 607.73 L799.63 610.61 L798.52 613.60 L797.55 616.65 L795.81 619.40 L794.08 622.13 L792.05 624.73 L790.58 627.55 L788.69 630.18 L787.24 633.00 L784.99 635.43 L782.28 637.62 L780.78 640.38 L778.24 642.61 L776.10 645.02 L774.97 647.95 L773.72 650.83 L773.02 654.02 L771.72 656.89 L770.03 659.54 L767.79 661.84 L764.78 663.66 L762.55 665.93 L760.14 668.08 L757.81 670.25 L755.65 672.52 L755.15 675.92 L754.92 679.55 L755.79 684.02 L754.55 687.02 L755.15 691.41 L755.11 695.40 L752.66 697.56 L750.45 699.90 L748.17 702.18 L745.77 704.35 L743.77 706.84 L742.20 709.71 L740.53 712.51 L738.64 715.12 L737.49 718.44 L735.11 720.62 L732.69 722.78 L730.23 724.87 L727.49 726.68 L725.09 728.83 L722.33 730.59 L719.70 732.46 L717.03 734.30 L714.73 736.51 L711.97 738.22 L709.30 740.01 L706.74 741.91 L704.12 743.74 L702.13 746.33 L700.14 748.93 L698.74 752.32 L697.96 756.56 L696.26 759.69 L695.46 764.08 L693.96 767.61 L691.57 769.95 L688.79 771.75 L686.38 774.10 L683.04 775.05 L679.38 775.49 L675.60 775.68 L672.32 776.60 L669.76 778.65 L666.61 779.74 L663.50 780.87 L661.17 783.35 L658.33 784.95 L655.11 785.86 L651.90 786.73 L648.48 787.18 L645.58 788.61 L643.17 791.03 L641.00 794.01 L638.38 796.12 L636.06 798.90 L634.04 802.45 L630.69 803.04 L627.40 803.74 L624.16 804.50 L620.75 804.83 L617.45 805.38 L614.24 806.12 L610.83 806.31 L607.49 806.64 L604.30 807.35 L600.91 807.43 L597.62 807.74 L594.30 807.94 L590.97 808.03 L587.70 808.28 L584.31 808.03 L581.38 809.43 L579.05 813.29 L576.66 817.16 L573.72 818.90 L571.40 823.61 L568.63 826.52 L565.18 826.28 L561.82 826.42 L558.61 827.37 L555.35 828.02 L552.15 829.05 L548.95 830.19 L545.61 830.45 L542.32 831.01 L539.03 831.61 L535.64 831.30 L532.38 832.18 L529.05 832.37 L525.64 831.60 L522.36 832.35 L519.01 832.16 L515.71 832.89 L512.38 833.07 L509.07 833.76 L505.76 835.68 L502.40 834.67 L499.05 835.17 L495.70 834.90 L492.37 833.99 L489.01 834.68 L485.75 832.37 L482.34 833.91 L479.03 833.23 L475.84 831.08 L472.30 833.59 L469.25 830.34 L465.86 830.82 L462.31 832.57 L459.12 831.12 L455.34 834.26 L451.92 834.35 L448.45 834.68 L444.83 835.80 L441.45 835.39 L437.90 835.86 L434.49 835.53 L431.07 835.19 L427.52 835.39 L424.25 834.32 L421.25 832.09 L418.22 830.13 L414.96 829.16 L411.57 828.66 L408.52 826.92 L405.20 826.20 L401.64 826.25 L398.52 824.80 L395.51 823.03 L392.51 821.31 L389.43 819.85 L386.12 819.05 L382.72 818.48 L378.62 819.72 L375.18 819.14 L371.38 819.39 L367.37 820.07 L364.45 818.10 L361.52 816.17 L358.60 814.25 L355.82 812.04 L352.98 810.01 L350.37 807.54 L347.53 805.57 L344.73 803.53 L342.23 800.96 L339.63 798.62 L336.93 796.49 L334.23 794.40 L331.62 792.16 L328.73 790.41 L326.05 788.33 L322.54 787.61 L317.69 788.96 L313.58 789.03 L309.34 789.22 L303.76 791.30 L300.13 790.39 L296.66 789.19 L294.09 786.70 L292.15 783.38 L290.75 779.39 L288.64 776.40 L285.46 774.82 L283.55 771.63 L281.08 769.16 L277.62 767.90 L275.12 765.46 L272.79 762.83 L270.79 759.85 L268.56 757.15 L265.82 755.02 L263.00 752.96 L258.77 752.37 L254.22 752.04 L250.64 750.64 L245.25 750.99 L242.65 748.53 L240.18 745.94 L237.56 743.50 L236.25 739.84 L234.21 736.89 L232.94 733.27 L230.58 730.62 L228.96 727.35 L227.25 724.17 L225.50 721.06 L225.02 716.95 L223.08 714.02 L221.76 710.63 L219.94 707.63 L216.83 705.58 L213.16 703.90 L208.55 702.82 L205.16 700.83 L200.91 699.38 L197.89 697.06 L196.22 693.84 L194.22 690.84 L192.12 687.90 L191.50 684.07 L191.45 679.94 L191.31 675.91 L189.71 672.74 L188.10 669.57 L187.15 666.06 L185.27 663.04 L182.80 660.32 L181.80 656.84 L181.01 653.29 L179.92 649.89 L178.72 646.56 L177.00 643.45 L174.98 640.48 L170.95 638.33 L168.80 635.35 L165.22 632.93 L162.20 630.23 L161.59 626.59 L160.95 622.98 L160.41 619.35 L160.32 615.58 L159.99 611.91 L159.53 608.30 L159.10 604.69 L158.73 601.08 L158.74 597.38 L158.74 593.70 L158.69 590.05 L158.27 586.52 L158.30 582.88 L158.44 579.24 L158.38 575.66 L155.74 572.64 L151.15 569.98 L147.98 566.96 L145.00 563.85 L139.61 561.11 L137.99 557.67 L137.37 554.05 L137.34 550.35 L138.12 546.56 L138.73 542.82 L138.30 539.20 L138.38 535.54 L138.43 531.89 L138.15 528.27 L137.72 524.66 L137.13 521.06 L137.12 517.42 L137.57 513.77 L137.89 510.13 L138.39 506.50 L137.34 502.89 L135.06 499.26 L134.22 495.60 L132.29 491.90 L128.80 488.10 L129.16 484.40 L129.56 480.71 L129.31 476.97 L130.34 473.32 L130.79 469.64 L132.14 466.05 L132.69 462.39 L133.91 458.81 L134.89 455.22 L135.45 451.58 L138.11 448.25 L138.72 444.65 L140.48 441.23 L142.06 437.81 L141.88 434.08 L141.01 430.20 L138.67 425.99 L137.80 422.03 L135.63 417.74 L134.59 413.66 L135.83 410.10 L136.52 406.40 L137.27 402.71 L139.72 399.50 L142.52 396.42 L145.32 393.37 L146.95 390.00 L148.01 386.46 L149.80 383.15 L150.81 379.60 L151.42 375.89 L153.35 372.66 L155.36 369.47 L157.63 366.41 L160.14 363.45 L160.88 359.79 L160.89 355.81 L159.77 351.30 L160.06 347.36 L158.40 342.49 L157.63 337.97 L160.22 335.01 L161.96 331.66 L164.24 328.59 L166.44 325.48 L168.89 322.52 L171.56 319.70 L173.68 316.59 L175.76 313.48 L178.38 310.68 L181.27 308.06 L183.89 305.30 L186.06 302.28 L189.12 299.84 L191.25 296.82 L192.81 293.42 L193.27 289.24 L192.98 284.49 L193.83 280.48 L194.32 276.17 L194.35 271.46 L196.98 268.66 L198.82 265.27 L201.97 262.89 L205.86 261.15 L210.28 259.89 L214.00 258.10 L216.03 254.91 L219.06 252.59 L222.13 250.31 L223.51 246.51 L225.47 243.20 L228.73 241.12 L231.42 238.51 L234.57 236.35 L237.59 234.08 L239.42 230.61 L240.11 225.89 L241.48 221.81 L242.27 217.04 L242.59 211.65 L245.76 209.39 L249.08 207.34 L252.34 205.23 L256.27 203.94 L259.39 201.70 L263.75 201.04 L266.93 198.93 L270.26 197.02 L273.64 195.18 L277.08 193.47 L280.99 192.42 L283.61 189.57 L286.93 187.73 L290.17 185.77 L292.14 181.88 L294.22 178.07 L295.89 173.54 L298.28 170.07 L300.56 166.34 L303.48 163.63 L307.24 162.37 L310.57 160.35 L313.91 158.35 L317.98 157.72 L322.15 157.34 L326.18 156.75 L329.71 155.21 L333.36 153.92 L337.18 153.04 L340.48 151.02 L343.91 149.30 L347.72 148.44 L351.52 147.60 L355.37 146.91 L359.22 146.25 L362.45 144.07 L365.30 140.79 L367.81 136.47 L370.94 133.71 L373.11 128.04 L376.34 125.29 L380.32 124.77 L384.02 123.40 L388.09 123.29 L391.94 122.45 L395.87 121.94 L399.96 122.04 L403.89 121.65 L407.75 120.99 L411.66 120.57 L415.80 121.25 L419.72 121.05 L423.59 120.63 L427.54 120.72 L431.42 120.47 L435.15 119.37 L438.54 116.16 L441.98 112.89 L445.54 110.06 L449.33 108.67 L452.98 105.97 L456.99 106.12 L460.95 105.84 L464.96 106.22 L468.96 106.72 L472.97 107.57 L476.93 107.77 L480.81 106.75 L484.78 107.51 L488.72 108.03 L492.63 106.95 L496.56 106.73 L500.49 107.17 L504.41 107.93 L508.32 108.15 L512.22 108.87 L516.18 107.90 L520.22 105.67 L524.19 105.48 L528.31 103.30 L532.54 100.32 L536.46 101.55 L540.44 101.91 L544.44 102.16 L548.34 103.25 L552.26 104.11 L556.08 105.61 L560.01 106.23 L563.85 107.43 L567.70 108.53 L571.48 109.95 L574.99 112.65 L578.94 113.06 L582.44 115.54 L586.17 116.88 L590.25 116.71 L594.44 116.15 L599.00 114.30 L603.34 113.47 L607.90 112.01 L612.27 111.39 L616.03 112.93 L619.98 113.84 L623.90 114.86 L627.17 117.84 L630.38 120.89 L633.73 123.43 L637.39 125.07 L641.01 126.77 L644.49 128.84 L648.44 129.69 L652.26 130.90 L655.71 132.97 L658.96 135.49 L662.18 138.05 L665.39 140.54 L669.49 141.14 L674.06 140.80 L678.83 140.18 L683.37 140.11 L689.18 137.73 L693.19 138.88 L696.53 141.31 L700.25 143.05 L703.22 146.09 L706.74 148.16 L709.78 151.02 L712.82 153.84 L715.88 156.61 L719.11 159.08 L722.23 161.72 L724.52 165.57 L727.50 168.34 L730.58 170.96 L733.15 174.27 L736.52 176.46 L740.64 177.64 L745.81 177.48 L749.99 178.71 L755.01 178.94 L759.57 179.82 L762.88 182.29 L765.95 185.04 L769.46 187.28 L771.67 191.02 L773.59 195.05 L775.20 199.36 L777.58 202.78 L780.65 205.45 L782.95 208.92 L785.55 212.07 L789.09 214.26 L791.77 217.33 L793.97 220.85 L796.07 224.43 L798.03 228.11 L800.90 230.96 L804.82 232.89 L809.20 234.47 L813.07 236.54 L818.23 237.59 L823.23 238.86 L825.43 242.41 L827.95 245.71 L830.49 248.99 L832.60 252.60 L834.79 256.13 L836.29 260.14 L838.31 263.77 L840.51 267.26 L842.50 270.90 L843.75 275.00 L844.72 279.26 L847.22 282.53 L847.98 286.87 L849.72 290.58 L852.96 293.40 L856.74 295.96 L860.60 298.50 L864.89 300.87 L868.55 303.63 L871.92 306.58 L873.69 310.39 L875.72 314.06 L877.38 317.91 L877.66 322.41 L877.59 327.03 L878.16 331.32 L879.91 335.08 L880.94 339.14 L881.82 343.25 L884.22 346.74 L886.03 350.47 L886.86 354.58 L887.36 358.80 L887.82 363.01 L888.60 367.09 L890.69 370.72 L893.96 374.00 L896.70 377.48 L899.32 381.03 L904.11 383.99 L905.77 387.90 L906.25 392.12 L907.40 396.17 L907.29 400.52 L908.09 404.64 L908.55 408.83 L908.56 413.11 L909.08 417.26 L909.85 421.37 L910.56 425.48 L910.35 429.75 L910.17 433.99 L910.45 438.15 L910.80 442.30 L912.26 446.29 L914.86 450.16 L920.36 453.76 L925.55 457.49 L930.06 461.38 L934.30 465.38 L938.90 469.42 L939.36 473.80 L939.79 478.19 L940.16 482.58 L940.50 486.98 L940.79 491.38 L941.04 495.79 L942.04 500.00 L941.83 495.58 L941.59 491.17 L941.29 486.76 L940.97 482.35 L940.59 477.95 L940.15 473.56 L939.68 469.17 L944.57 464.36 L948.49 459.53 L951.44 454.70 L956.19 449.62 L960.03 444.53 L960.64 439.78 L960.30 435.13 L958.60 430.69 L957.18 426.22 L955.53 421.80 L953.17 417.54 L952.20 413.03 L950.17 408.75 L948.93 404.31 L946.88 400.07 L945.29 395.74 L943.47 391.48 L941.02 387.39 L939.78 383.01 L937.41 378.94 L937.31 374.25 L940.49 368.55 L940.14 363.85 L941.30 358.64 L942.74 353.28 L940.81 349.01 L937.09 345.39 L934.30 341.47 L932.32 337.27 L930.68 332.96 L927.93 329.08 L925.84 324.96 L923.83 320.81 L920.40 317.28 L916.35 314.07 L913.21 310.49 L912.38 305.86 L909.39 302.24 L906.23 298.74 L904.58 294.49 L901.58 290.93 L898.73 287.32 L896.83 283.21 L895.84 278.58 L895.10 273.78 L894.11 269.08 L892.43 264.77 L889.41 261.25 L886.19 257.88 L883.63 254.11 L880.08 250.99 L876.54 247.88 L873.14 244.72 L869.70 241.61 L866.83 238.11 L862.59 235.63 L859.36 232.44 L855.76 229.55 L852.40 226.50 L849.21 223.33 L845.81 220.36 L846.39 214.11 L845.96 208.60 L843.93 204.39 L844.34 197.99 L841.97 193.96 L837.54 191.80 L833.49 189.32 L829.46 186.86 L826.63 183.28 L822.89 180.58 L818.59 178.46 L815.51 175.14 L811.86 172.40 L806.61 171.40 L801.93 169.86 L799.17 166.24 L795.74 163.35 L791.67 161.21 L788.25 158.33 L784.34 156.04 L780.39 153.84 L776.54 151.51 L773.72 147.90 L770.92 144.22 L768.57 139.88 L765.38 136.64 L761.66 134.09 L757.48 132.23 L753.61 129.93 L749.49 128.02 L744.80 127.00 L740.97 124.71 L736.55 123.36 L732.39 121.63 L727.93 120.44 L723.63 119.02 L719.45 117.42 L715.19 116.02 L711.25 114.04 L706.88 112.87 L703.85 109.20 L701.88 103.36 L698.22 100.71 L695.75 95.59 L692.80 91.30 L688.40 90.07 L683.50 89.98 L678.79 89.52 L674.65 87.84 L670.43 86.32 L665.70 86.11 L661.52 84.55 L657.17 83.46 L652.26 83.90 L647.34 84.54 L642.82 84.11 L639.02 81.62 L634.49 81.31 L630.05 80.76 L625.83 79.57 L621.37 79.17 L616.92 78.85 L612.84 77.18 L608.91 74.88 L605.21 71.56 L601.14 69.58 L597.03 67.70 L592.48 67.79 L587.97 67.81 L583.59 67.23 L578.96 68.03 L574.60 67.47 L570.00 68.45 L565.50 68.93 L561.19 68.27 L556.58 69.89 L552.17 70.26 L547.74 70.92 L543.42 70.70 L539.04 71.23 L534.67 71.77 L530.68 67.43 L526.49 64.89 L522.20 63.38 L517.96 59.94 L513.58 59.26 L509.15 59.95 L504.74 61.07 L500.35 62.37 L495.97 61.97 L491.61 62.96 L487.28 64.48 L482.94 64.94 L478.63 66.12 L474.35 67.26 L470.10 68.62 L465.79 68.96 L461.50 69.60 L457.33 71.32 L453.01 71.38 L448.88 73.21 L444.58 73.48 L440.23 73.38 L435.85 73.22 L431.36 72.51 L426.85 71.80 L422.51 72.24 L418.35 73.61 L414.25 75.25 L410.03 76.26 L406.00 78.05 L402.13 80.51 L398.05 81.96 L394.12 83.97 L390.10 85.53 L386.33 87.99 L382.43 89.92 L378.50 91.66 L374.78 94.05 L370.83 95.64 L367.12 97.96 L362.33 97.02 L356.88 94.37 L352.56 95.07 L347.21 93.09 L342.36 92.62 L338.51 94.73 L335.15 98.06 L331.69 101.02 L327.49 102.22 L323.82 104.64 L320.61 108.02 L316.51 109.44 L313.11 112.31 L310.17 116.09 L307.19 119.68 L303.78 122.35 L299.74 123.82 L296.37 126.55 L292.95 129.15 L289.55 131.76 L286.50 134.94 L283.64 138.40 L279.99 140.51 L276.06 142.18 L271.31 142.59 L267.00 143.76 L262.55 144.75 L258.91 147.00 L255.21 149.17 L251.49 151.31 L248.21 154.09 L245.00 156.94 L242.61 160.86 L239.54 163.85 L236.42 166.75 L234.91 171.66 L232.04 174.81 L230.07 179.01 L227.25 182.17 L225.12 186.08 L222.19 189.07 L216.01 188.49 L211.69 190.02 L207.64 191.91 L202.25 192.44 L199.04 195.29 L197.43 199.72 L195.55 203.84 L192.58 206.87 L188.70 209.07 L185.59 212.00 L183.29 215.66 L180.09 218.51 L177.50 221.91 L176.82 226.91 L175.65 231.43 L172.17 234.03 L170.22 237.88 L169.24 242.45 L166.95 245.97 L165.78 250.33 L163.64 253.93 L160.91 257.10 L158.11 260.23 L154.25 262.65 L150.66 265.29 L147.52 268.26 L145.89 272.23 L144.60 276.39 L142.57 280.08 L141.10 284.09 L140.16 288.39 L138.86 292.46 L137.39 296.41 L135.89 300.33 L135.30 304.72 L133.92 308.67 L132.72 312.70 L131.33 316.61 L129.80 320.44 L129.00 324.62 L124.45 327.04 L119.61 329.40 L117.61 333.07 L112.48 335.43 L109.65 338.82 L109.66 343.37 L109.29 347.74 L109.37 352.25 L107.65 356.07 L106.88 360.23 L107.09 364.72 L105.19 368.47 L104.54 372.63 L105.78 377.37 L106.86 382.00 L105.81 385.97 L103.71 389.64 L103.80 393.93 L103.06 397.97 L102.50 402.05 L102.39 406.23 L103.17 410.60 L101.25 414.34 L99.03 418.05 L96.49 421.73 L94.43 425.53 L93.01 429.47 L93.21 433.69 L93.11 437.84 L93.01 441.98 L94.01 446.26 L93.34 450.31 L94.71 454.58 L95.33 458.75 L95.60 462.86 L96.74 467.02 L97.30 471.12 L98.61 475.25 L98.38 479.26 L99.26 483.32 L99.25 487.34 L94.88 491.25 L93.36 495.29 L91.24 499.35 L88.63 503.46 L89.57 507.56 L90.20 511.64 L91.28 515.71 L92.87 519.72 L92.50 523.83 L93.67 527.84 L95.09 531.81 L96.03 535.81 L98.71 539.62 L98.73 543.67 L100.63 547.51 L101.16 551.50 L101.07 555.57 L102.66 559.40 L104.07 563.25 L104.22 567.29 L103.05 571.58 L103.31 575.64 L102.58 579.90 L101.23 584.33 L101.59 588.43 L102.83 592.33 L104.79 596.05 L106.89 599.71 L108.68 603.43 L110.39 607.16 L112.27 610.82 L113.88 614.55 L115.95 618.13 L117.41 621.88 L119.88 625.30 L122.18 628.74 L124.77 632.06 L127.75 635.21 L129.91 638.63 L132.38 641.91 L130.89 646.75 L129.64 651.55 L131.05 655.30 L128.52 660.76 L129.27 664.85 L132.22 667.96 L135.03 671.11 L137.90 674.20 L138.97 678.16 L141.41 681.44 L145.06 684.07 L146.05 688.07 L148.56 691.27 L152.75 693.51 L156.74 695.81 L158.76 699.21 L160.10 703.01 L163.74 705.43 L166.09 708.60 L168.16 711.95 L171.26 714.63 L174.32 717.31 L175.42 721.30 L176.41 725.39 L177.27 729.63 L178.51 733.62 L180.45 737.13 L183.64 739.70 L186.54 742.48 L189.67 745.06 L193.14 747.34 L195.38 750.60 L198.82 752.86 L201.82 755.47 L204.48 758.36 L208.50 760.04 L211.47 762.61 L215.71 764.00 L218.77 766.44 L221.66 769.04 L223.97 772.20 L223.93 777.74 L226.34 780.88 L227.02 785.85 L227.83 790.75 L231.65 792.48 L235.46 794.18 L239.06 796.08 L242.60 798.02 L245.14 801.12 L249.08 802.55 L252.35 804.75 L255.44 807.18 L259.47 808.40 L263.79 809.18 L267.86 810.24 L270.28 813.49 L274.19 814.71 L278.15 815.81 L281.22 818.15 L284.46 820.26 L286.83 823.67 L289.60 826.54 L291.79 830.34 L293.97 834.26 L296.80 837.17 L300.06 839.38 L303.90 840.60 L307.96 841.40 L311.75 842.65 L315.43 844.05 L319.41 844.86 L323.33 845.74 L327.19 846.72 L330.89 847.95 L334.94 848.45 L338.77 849.36 L342.71 849.97 L346.55 850.76 L350.15 852.09 L353.93 852.97 L356.34 857.19 L359.30 860.20 L362.79 861.90 L365.36 866.13 L368.98 867.59 L373.10 867.62 L377.16 867.75 L381.20 867.85 L384.69 869.63 L388.63 869.99 L392.79 869.50 L396.31 871.21 L400.14 871.82 L404.38 870.78 L408.58 869.74 L412.22 870.90 L415.95 871.71 L419.98 871.06 L423.83 871.19 L427.69 871.19 L431.79 869.83 L435.63 869.71 L439.46 869.53 L442.96 871.38 L446.50 873.22 L450.04 875.20 L453.45 878.43 L457.36 877.77 L461.00 879.53 L464.80 879.96 L468.82 877.55 L472.48 879.46 L476.39 877.91 L480.19 877.80 L483.90 879.51 L487.81 876.34 L491.55 877.27 L495.35 875.70 L499.11 874.16 L502.86 875.29 L506.60 874.72 L510.42 877.42 L514.24 878.42 L518.02 878.29 L521.90 879.74 L525.63 878.45 L529.37 877.73 L533.08 876.56 L536.74 875.17 L540.44 874.35 L544.13 873.45 L547.91 873.38 L551.56 872.30 L555.22 871.39 L558.97 871.04 L562.62 870.10 L566.31 869.43 L569.89 868.17 L573.42 866.67 L576.93 865.20 L580.90 865.87 L584.84 866.27 L588.51 865.48 L592.71 866.72 L596.79 867.36 L600.47 866.42 L603.93 864.72 L607.24 862.51 L610.64 860.72 L613.97 858.75 L617.26 856.71 L620.52 854.60 L623.78 852.59 L626.97 850.43 L630.16 848.32 L633.16 845.76 L636.30 843.62 L639.37 841.36 L642.41 839.08 L645.44 836.84 L648.60 834.90 L653.58 836.99 L657.52 836.68 L661.29 835.94 L666.33 837.75 L669.87 836.39 L672.34 832.97 L675.05 830.09 L677.74 827.21 L681.14 825.65 L683.96 823.08 L686.54 820.13 L689.75 818.27 L692.62 815.86 L694.20 811.40 L696.32 807.90 L699.76 806.50 L702.72 804.33 L705.13 801.38 L708.12 799.29 L710.54 796.40 L713.09 793.73 L716.08 791.67 L719.63 790.34 L723.55 789.47 L727.85 789.01 L731.61 787.81 L734.81 785.89 L737.52 783.36 L740.62 781.30 L742.91 778.29 L745.16 775.26 L747.81 772.71 L750.03 769.68 L752.13 766.54 L753.99 763.18 L755.96 759.98 L757.72 756.58 L759.77 753.50 L761.63 750.26 L763.41 746.97 L765.71 744.17 L769.23 742.49 L771.36 739.53 L774.02 737.05 L776.66 734.54 L778.49 731.34 L780.13 728.01 L781.25 724.29 L783.39 721.39 L785.19 718.24 L787.81 715.72 L791.50 713.96 L793.55 710.98 L796.74 708.81 L799.79 706.51 L801.79 703.46 L803.17 700.01 L804.59 696.60 L805.90 693.14 L806.49 689.25 L806.85 685.27 L808.41 682.02 L810.33 679.00 L812.27 675.98 L815.28 673.55 L817.43 670.62 L819.58 667.67 L820.36 664.02 L821.34 660.49 L822.55 657.08 L822.99 653.31 L823.84 649.77 L824.33 646.08 L825.07 642.52 L826.12 639.11 L825.58 635.05 L826.52 631.62 L826.66 627.90 L826.91 624.24 L827.51 620.73 L828.71 617.46 L834.10 615.63 L837.19 612.94 L840.05 610.12 L845.05 607.94 L846.45 604.59 L845.48 600.54 L845.37 596.77 L845.26 593.03 L846.44 589.64 L846.47 585.96 L846.32 582.25 L847.03 578.76 L846.93 575.10 L845.04 571.09 L844.00 567.29 L845.64 564.03 L846.02 560.53 L845.25 556.84 L845.83 553.39 L845.72 549.84 L848.07 546.63 L848.71 543.17 L849.96 539.78 L852.99 536.55 L854.60 533.14 L854.37 529.55 L853.78 525.94 L853.25 522.35 L852.74 518.78 L851.98 515.21 L851.18 511.66 L850.62 508.13 L849.84 504.61 L848.77 501.11 L847.43 497.63 L846.29 494.18 L844.82 490.75 L843.69 487.34 L842.88 483.94 L841.55 480.57 L843.32 477.03 L845.78 473.39 L845.34 469.94 L848.39 466.16 L849.51 462.52 L848.63 459.09 L847.09 455.75 L845.68 452.41 L845.25 448.95 L843.68 445.66 L842.17 442.39 L841.12 439.05 L839.63 435.80 L838.15 432.57 L835.80 429.54 L834.04 426.42 L833.84 422.96 L832.27 419.81 L831.13 416.57 L829.81 413.39 L830.23 409.74 L830.48 406.11 L829.49 402.82 L830.31 398.98 L831.20 395.07 L830.14 391.76 L828.50 388.65 L827.43 385.35 L826.23 382.09 L824.83 378.91 L823.09 375.87 L821.26 372.87 L819.71 369.77 L817.30 367.04 L814.51 364.50 L812.29 361.73 L809.59 359.21 L806.90 356.71 L804.88 353.92 L802.78 351.19 L800.99 348.31 L802.60 343.68 L801.19 340.58 L799.79 337.46 L799.94 333.48 L797.97 330.65 L794.86 328.49 L792.52 325.92 L790.67 323.06 L789.17 319.98 L787.35 317.10 L785.23 314.42 L783.86 311.25 L781.60 308.66 L777.96 307.04 L775.40 304.71 L773.86 301.65 L770.55 299.90 L767.12 298.28 L764.83 295.81 L762.51 293.38 L761.05 290.27 L757.98 288.46 L756.26 285.55 L755.68 281.64 L753.72 278.90 L750.39 277.35 L747.66 275.30 L746.10 272.19 L744.16 269.41 L739.55 269.19 L738.22 265.84 L736.86 262.47 L733.85 260.75 L730.96 258.93 L728.03 257.17 L725.21 255.32 L722.22 253.67 L718.73 252.60 L716.50 250.14 L713.65 248.38 L713.77 243.08 L712.56 239.28 L710.23 236.80 L709.66 232.06 L707.39 229.43 L703.66 228.72 L700.17 227.74 L696.54 227.01 L693.96 224.82 L690.66 223.67 L687.64 222.16 L685.51 219.29 L682.56 217.66 L679.52 216.19 L676.24 215.09 L673.47 213.20 L670.43 211.75 L667.13 210.79 L663.93 209.66 L660.49 208.99 L657.15 208.18 L653.98 207.08 L651.45 204.76 L648.69 202.87 L645.86 201.09 L643.14 199.06 L640.15 197.59 L636.68 197.17 L633.54 196.06 L630.29 195.23 L626.73 195.17 L623.56 194.18 L620.12 193.92 L616.60 193.93 L613.23 193.61 L609.89 193.24 L606.57 192.88 L603.04 193.16 L599.82 192.60 L596.34 192.90 L593.56 190.98 L591.66 185.95 L588.67 184.49 L586.22 181.00 L583.83 177.06 L580.44 176.85 L576.70 178.19 L573.14 178.96 L569.77 178.92 L566.54 178.31 L563.09 178.85 L559.78 178.73 L556.54 178.30 L553.02 179.56 L549.41 181.63 L545.97 182.91 L542.96 181.30 L539.63 181.96 L536.29 182.99 L533.18 182.07 L529.93 182.51 L526.73 182.46 L523.59 181.73 L520.52 179.77 L517.43 177.34 L514.26 175.91 L511.07 174.29 L507.80 174.95 L504.52 176.86 L501.29 176.12 L498.07 178.97 L494.87 179.51 L491.66 179.68 L488.52 181.33 L485.30 180.89 L482.15 181.68 L478.98 182.07 L475.87 183.25 L472.72 183.62 L469.65 184.88 L466.63 186.47 L463.18 184.09 L459.87 183.27 L457.23 187.50 L454.10 187.88 L451.12 189.28 L448.56 193.02 L445.63 194.30 L443.12 197.75 L440.24 199.03 L437.10 199.04 L434.23 200.29 L431.52 202.19 L428.91 204.40 L425.43 203.01 L422.23 202.88 L419.45 204.39 L416.58 205.49 L413.67 206.43 L410.28 205.83 L407.55 207.38 L403.82 205.86 L400.16 204.70 L396.45 203.52 L392.78 202.60 L389.07 201.69 L385.82 202.12 L383.18 204.11 L380.65 206.33 L378.31 208.95 L375.73 210.94 L373.12 212.81 L370.66 215.00 L367.72 216.09 L364.98 217.62 L362.71 220.11 L360.31 222.28 L358.26 225.07 L356.22 227.83 L353.93 230.07 L351.79 232.54 L348.22 232.45 L343.61 230.63 L340.94 232.24 L337.34 232.32 L333.15 231.49 L330.76 233.63 L329.57 237.60 L327.38 239.95 L324.38 241.10 L321.61 242.58 L319.95 245.67 L317.29 247.30 L314.82 249.21 L313.24 252.29 L312.54 256.47 L310.66 259.05 L307.62 260.16 L306.20 263.27 L304.69 266.23 L302.07 267.86 L299.39 269.42 L296.20 270.44 L293.59 272.13 L289.88 272.65 L285.90 272.93 L283.50 274.94 L281.71 277.57 L280.23 280.50 L279.05 283.69 L277.31 286.31 L276.13 289.44 L274.34 291.97 L272.82 294.73 L271.57 297.72 L269.75 300.17 L268.80 303.37 L267.24 306.02 L266.58 309.39 L265.52 312.40 L264.25 315.22 L263.16 318.16 L258.38 318.30 L254.73 319.37 L251.95 321.12 L247.15 321.48 L244.64 323.50 L243.73 326.63 L243.01 329.87 L242.19 333.01 L240.21 335.39 L239.13 338.34 L239.17 341.95 L237.38 344.44 L236.38 347.39 L236.68 351.05 L237.03 354.70 L235.53 357.31 L234.39 360.10 L234.24 363.40 L233.39 366.32 L232.56 369.23 L229.35 371.00 L227.26 373.33 L225.36 375.78 L222.20 377.68 L219.51 379.83 L219.07 382.95 L218.74 386.10 L218.05 389.09 L217.78 392.23 L217.51 395.35 L217.41 398.52 L216.81 401.49 L216.89 404.68 L216.61 407.73 L216.59 410.85 L216.49 413.92 L216.42 416.99 L217.15 420.26 L217.04 423.28 L217.37 426.39 L215.11 428.84 L211.07 430.89 L210.61 433.83 L206.46 435.97 L203.81 438.48 L204.50 441.70 L205.42 444.94 L206.12 448.11 L205.45 451.02 L204.86 453.95 L206.04 457.14 L205.02 460.00 L205.25 463.03 L206.25 466.14 L208.08 469.30 L208.57 472.30 L207.75 475.16 L208.57 478.17 L209.66 481.17 L208.98 484.04 L206.82 486.86 L204.85 489.73 L204.80 492.68 L201.80 495.59 L199.89 498.57 L199.56 501.57 L199.91 504.57 L200.83 507.55 L201.15 510.53 L201.95 513.49 L202.96 516.42 L203.61 519.36 L203.97 522.31 L204.81 525.22 L205.33 528.14 L206.76 530.97 L207.83 533.81 L208.97 536.63 L210.17 539.43 L211.22 542.24 L212.07 545.06 L213.33 547.80 L213.89 550.65 L215.60 553.29 L216.64 556.03 L218.02 558.70 L218.92 561.45 L219.80 564.20 L220.01 567.10 L220.16 570.03 L221.15 572.76 L222.11 575.48 L222.73 578.30 L224.17 580.88 L225.12 583.59 L226.11 586.29 L226.20 589.28 L226.22 592.32 L226.85 595.16 L227.77 597.90 L229.80 600.23 L228.42 603.85 L229.10 606.70 L230.55 609.26 L230.45 612.45 L230.98 615.40 L232.86 617.77 L234.93 620.04 L237.30 622.14 L238.82 624.63 L240.97 626.80 L243.29 628.86 L245.21 631.11 L247.32 633.23 L249.34 635.38 L251.66 637.36 L253.58 639.53 L256.13 641.33 L258.18 643.39 L260.24 645.43 L262.97 647.03 L262.12 650.87 L261.31 654.75 L262.81 657.18 L261.62 661.42 L262.36 664.41 L265.11 666.00 L267.92 667.52 L270.95 668.84 L272.15 671.50 L274.55 673.26 L277.62 674.46 L278.45 677.41 L281.18 678.85 L284.67 679.62 L287.64 680.77 L290.04 682.38 L291.35 684.94 L294.41 685.93 L296.49 687.78 L298.75 689.45 L301.51 690.64 L303.55 692.49 L304.75 695.18 L305.57 698.29 L305.71 702.15 L306.70 705.18 L308.19 707.73 L310.45 709.45 L313.22 710.58 L315.58 712.16 L318.99 712.49 L321.45 713.89 L324.01 715.17 L327.17 715.67 L329.81 716.78 L332.31 718.05 L335.06 718.97 L338.24 719.28 L340.41 720.93 L343.26 721.62 L345.57 723.05 L345.36 728.19 L346.99 730.73 L348.36 733.71 L348.95 737.97 L351.28 739.56 L354.70 739.36 L357.74 739.73 L360.58 740.38 L362.97 741.80 L366.11 741.88 L368.01 744.16 L369.82 746.69 L372.62 747.35 L375.73 747.35 L378.14 748.72 L380.58 750.04 L383.76 749.77 L386.60 750.18 L389.24 751.00 L392.25 750.93 L395.11 751.18 L397.55 752.42 L399.93 753.79 L402.87 753.75 L404.91 756.05 L407.27 757.57 L410.15 757.63 L412.52 759.13 L414.71 761.22 L417.48 761.58 L420.56 760.89 L422.95 762.45 L425.73 762.65 L429.24 760.15 L432.26 759.26 L434.67 760.64 L437.46 760.56 L440.56 759.03 L443.16 759.58 L445.43 761.69 L448.17 761.63 L450.85 761.83 L453.22 763.67 L455.76 764.75 L458.46 764.85 L461.08 765.43 L463.84 765.06 L466.44 765.88 L469.12 765.99 L471.82 765.96 L474.50 766.03 L477.20 765.80 L480.00 764.09 L482.76 762.51 L485.50 760.72 L488.13 760.35 L490.75 759.87 L493.35 759.90 L495.92 762.15 L498.53 763.32 L501.17 763.55 L503.81 764.18 L506.50 766.15 L509.17 766.26 L511.84 766.27 L514.54 766.89 L517.20 766.61 L519.82 765.85 L522.42 764.89 L524.90 762.92 L527.40 761.48 L529.96 760.69 L532.38 758.91 L534.83 757.53 L537.34 756.71 L539.77 755.46 L542.09 753.66 L544.44 752.16 L546.84 751.11 L549.06 749.16 L551.74 749.56 L555.04 752.72 L557.74 752.93 L560.91 755.06 L563.89 756.18 L566.33 755.04 L568.71 753.77 L570.88 751.75 L573.26 750.59 L575.73 749.74 L577.85 747.78 L580.22 746.66 L582.56 745.50 L584.61 743.49 L586.62 741.47 L588.49 739.14 L590.94 738.39 L593.15 737.05 L595.29 735.54 L597.47 734.18 L599.99 733.61 L603.14 734.47 L605.64 733.77 L608.58 734.02 L611.78 734.73 L614.42 734.22 L616.69 732.93 L618.71 731.16 L620.86 729.67 L623.26 728.64 L625.48 727.29 L627.25 725.14 L629.03 723.06 L630.87 721.10 L632.72 719.20 L633.55 715.68 L635.13 713.43 L636.35 710.67 L637.90 708.46 L639.14 705.83 L640.67 703.68 L645.19 705.80 L648.50 706.07 L651.39 705.72 L655.74 707.25 L658.32 706.36 L659.43 703.56 L660.68 700.98 L661.86 698.36 L664.30 697.28 L665.59 694.84 L666.50 691.98 L668.40 690.30 L669.68 687.92 L669.89 684.41 L670.72 681.63 L672.97 680.38 L674.56 678.44 L675.69 676.03 L677.02 673.85 L677.90 671.25 L679.08 668.98 L680.48 666.91 L682.86 665.75 L685.49 664.79 L688.63 664.23 L690.73 662.74 L692.21 660.71 L693.06 658.16 L694.25 655.92 L695.35 653.61 L695.64 650.71 L696.88 648.54 L697.66 646.06 L698.41 643.56 L698.86 640.88 L699.29 638.21 L700.28 635.95 L700.70 633.33 L701.87 631.21 L702.25 628.60 L705.04 627.52 L710.09 627.76 L712.16 626.13 L716.64 625.88 L719.93 624.86 L720.42 622.25 L720.23 619.27 L719.95 616.30 L721.03 614.05 L721.93 611.72 L721.42 608.70 L722.49 606.48 L723.03 604.01 L722.21 600.93 L721.14 597.79 L721.25 595.21 L723.29 593.45 L723.23 590.82 L723.24 588.23 L723.97 585.94 L724.26 583.48 L725.18 581.27 L726.95 579.36 L728.93 577.49 L731.91 575.92 L734.02 574.03 L735.13 571.80 L734.90 569.17 L734.59 566.54 L734.94 564.11 L734.52 561.48 L734.18 558.89 L733.73 556.30 L733.01 553.67 L733.23 551.27 L731.94 548.56 L731.62 546.08 L730.51 543.46 L730.34 541.05 L730.08 538.64 L729.78 536.23 L734.75 534.61 L737.32 532.57 L739.10 530.38 L743.66 528.48 L744.32 526.09 L742.40 523.43 L741.24 520.89 L740.29 518.39 L740.62 515.99 L739.92 513.54 L738.71 511.08 L738.78 508.69 L737.94 506.28 L734.92 503.85 L732.74 501.48 L733.76 499.15 L733.37 496.82 L731.77 494.52 L731.88 492.20 L730.57 489.93 L729.63 487.67 L729.31 485.39 L730.54 482.99 L732.23 480.53 L734.21 478.01 L735.21 475.54 L734.65 473.22 L733.02 471.04 L732.49 468.75 L731.31 466.55 L729.50 464.46 L729.23 462.15 L728.03 460.01 L726.93 457.85 L725.53 455.78 L724.37 453.67 L723.37 451.54 L724.40 448.96 L724.18 446.65 L722.60 444.67 L724.61 441.78 L725.73 439.07 L724.52 436.98 L725.68 434.22 L725.27 431.88 L723.76 429.89 L722.33 427.89 L720.35 426.09 L719.86 423.80 L718.56 421.79 L716.15 420.21 L714.75 418.28 L713.28 416.38 L711.90 414.47 L710.05 412.76 L708.01 411.16 L708.18 408.62 L706.46 406.90 L704.67 405.23 L702.94 403.56 L702.84 401.11 L703.66 398.17 L702.31 396.31 L703.65 393.03 L704.39 390.02 L702.76 388.28 L701.28 386.45 L699.24 384.96 L697.35 383.40 L695.40 381.90 L693.36 380.48 L691.91 378.71 L689.85 377.34 L687.58 376.13 L686.22 374.34 L684.10 373.07 L682.50 371.46 L680.22 370.35 L678.65 368.74 L677.01 367.20 L675.44 365.62 L676.81 361.75 L675.57 359.86 L675.13 357.33 L675.91 353.74 L673.93 352.42 L671.49 351.51 L669.31 350.41 L667.08 349.38 L666.05 347.27 L663.52 346.55 L661.29 345.59 L659.81 343.90 L657.48 343.08 L654.11 343.33 L651.21 343.17 L650.14 341.14 L648.10 340.12 L645.46 339.79 L643.83 338.37 L642.15 337.00 L641.54 334.38 L640.40 332.35 L639.62 329.86 L639.41 326.60 L638.76 323.83 L636.75 322.77 L634.42 322.14 L632.12 321.49 L629.80 320.91 L627.43 320.43 L624.80 320.35 L622.97 319.16 L620.60 318.77 L618.44 318.09 L616.29 317.43 L614.11 316.84 L612.15 315.91 L610.00 315.30 L607.99 314.49 L606.25 313.20 L605.30 310.49 L604.33 307.74 L602.31 306.87 L601.49 303.69 L599.65 302.45 L597.02 302.78 L594.58 302.79 L592.24 302.62 L590.38 301.46 L588.39 300.55 L585.67 301.35 L584.01 299.71 L581.69 299.65 L578.93 300.76 L576.24 301.78 L574.20 301.15 L572.36 300.02 L569.97 300.39 L567.78 300.28 L565.73 299.74 L564.08 297.98 L562.14 297.08 L560.07 296.61 L558.74 293.52 L557.01 291.71 L554.87 291.37 L552.62 291.46 L550.38 291.56 L548.14 291.76 L545.94 291.80 L543.74 291.89 L541.63 291.62 L539.35 292.22 L537.10 292.78 L534.92 293.03 L532.65 293.99 L530.46 294.54 L528.18 295.84 L526.06 296.17 L523.95 296.54 L521.98 295.68 L520.29 291.84 L518.22 291.47 L516.33 288.84 L514.40 285.87 L512.22 286.47 L510.03 287.61 L507.86 288.58 L505.73 289.16 L503.63 288.58 L501.51 289.73 L499.41 290.17 L497.31 290.29 L495.22 290.84 L493.18 292.50 L491.16 293.69 L489.09 293.61 L487.05 294.24 L485.02 294.70 L483.00 295.19 L481.05 296.49 L479.15 297.99 L477.20 298.76 L475.25 299.54 L473.15 299.09 L471.07 298.82 L468.80 297.44 L466.62 296.85 L464.70 297.78 L462.37 296.47 L460.75 298.98 L459.06 300.91 L456.90 300.58 L455.25 302.52 L453.43 303.63 L451.37 303.71 L449.89 306.05 L447.84 306.13 L446.28 308.02 L444.37 308.57 L442.41 308.98 L440.30 308.92 L437.39 306.42 L435.63 307.59 L433.39 307.32 L431.25 307.37 L429.58 308.76 L428.07 310.52 L426.45 311.95 L424.98 313.71 L423.49 315.37 L421.55 315.90 L419.52 316.25 L418.16 318.12 L416.57 319.43 L414.74 320.21 L413.18 321.55 L412.04 323.73 L410.81 325.65 L409.23 326.85 L408.05 328.77 L405.76 328.65 L404.63 330.62 L402.65 331.08 L400.17 330.71 L397.95 330.85 L396.46 332.19 L394.99 333.55 L393.55 334.96 L392.07 336.28 L390.61 337.62 L389.31 339.18 L387.48 339.97 L386.75 342.32 L385.92 344.46 L384.44 345.71 L383.87 348.14 L382.63 349.66 L381.97 351.89 L380.20 352.71 L379.64 355.01 L379.50 357.75 L377.25 358.01 L375.37 358.71 L373.30 359.22 L371.23 359.77 L369.02 360.20 L367.35 361.23 L364.90 361.47 L363.49 362.79 L362.83 364.86 L361.11 365.87 L360.05 367.52 L359.66 369.80 L359.41 372.15 L358.70 374.07 L356.88 374.99 L356.44 377.11 L356.26 379.43 L355.18 380.97 L355.20 383.39 L354.77 385.42 L353.99 387.16 L352.48 388.33 L350.36 389.06 L348.54 390.04 L346.97 391.22 L345.44 392.44 L344.83 394.30 L344.53 396.36 L343.42 397.87 L343.11 399.89 L342.14 401.48 L342.03 403.59 L342.23 405.86 L340.75 407.13 L340.40 409.05 L341.04 411.51 L340.33 413.19 L339.70 414.92 L339.42 416.81 L339.58 418.92 L339.66 420.96 L338.02 422.16 L335.83 423.12 L334.61 424.56 L332.98 425.82 L331.80 427.30 L330.06 428.56 L328.30 429.83 L328.63 431.96 L328.69 433.96 L328.17 435.72 L328.47 437.78 L329.03 439.91 L328.72 441.72 L327.72 443.30 L327.28 445.06 L327.70 447.08 L327.55 448.92 L328.29 451.00 L329.71 453.24 L329.38 454.98 L329.16 456.75 L328.14 458.31 L326.59 459.77 L325.07 461.26 L324.52 462.97 L323.61 464.62 L323.84 466.49 L323.89 468.32 L323.61 470.09 L323.94 471.95 L324.50 473.84 L324.74 475.67 L324.67 477.44 L325.49 479.32 L324.89 481.02 L326.30 482.93 L327.77 484.81 L327.86 486.55 L329.57 488.40 L331.57 490.23 L330.23 491.85 L328.70 493.49 L327.95 495.19 L325.88 496.87 L325.18 498.61 L325.79 500.35 L323.53 502.12 L322.92 503.90 L324.46 505.63 L324.80 507.37 L324.88 509.12 L325.61 510.83 L327.16 512.47 L328.22 514.12 L327.22 515.95 L328.54 517.56 L329.00 519.24 L329.88 520.86 L331.87 522.33 L332.63 523.93 L333.58 525.50 L333.97 527.14 L332.76 529.06 L332.55 530.82 L332.18 532.63 L331.31 534.55 L332.41 536.08 L333.07 537.69 L333.54 539.33 L333.98 540.99 L335.34 542.40 L336.99 543.72 L337.67 545.28 L338.67 546.75 L339.90 548.13 L341.06 549.52 L341.79 551.03 L342.44 552.57 L344.76 553.53 L346.28 554.73 L348.07 555.81 L348.46 557.39 L347.79 559.39 L347.54 561.25 L346.94 563.28 L347.53 564.83 L347.50 566.65 L346.58 568.89 L347.72 570.21 L349.66 571.15 L350.52 572.58 L351.37 574.01 L353.36 574.87 L355.10 575.81 L355.73 577.33 L356.85 578.58 L358.70 579.42 L360.36 580.33 L362.53 580.92 L363.99 581.90 L365.23 583.01 L365.62 584.63 L365.21 586.78 L365.36 588.60 L364.98 590.80 L365.75 592.25 L366.68 593.58 L368.39 594.36 L369.70 595.41 L371.05 596.42 L372.90 597.03 L373.94 598.25 L375.40 599.13 L376.23 600.51 L377.54 601.49 L379.13 602.23 L380.45 603.18 L382.37 603.59 L383.92 604.30 L385.93 604.58 L388.28 604.51 L388.94 605.99 L389.56 607.53 L390.21 609.05 L390.78 610.68 L391.33 612.35 L392.22 613.68 L392.60 615.58 L393.91 616.48 L395.72 616.82 L396.80 617.96 L397.88 619.10 L399.85 619.21 L401.71 619.39 L403.28 619.91 L404.60 620.72 L406.31 621.03 L407.97 621.37 L409.65 621.66 L411.88 621.17 L413.20 621.91 L414.63 622.47 L415.88 623.28 L416.58 624.93 L417.56 626.18 L418.66 627.24 L419.77 628.33 L421.35 628.64 L423.00 628.82 L424.35 629.47 L425.65 630.22 L427.37 630.22 L428.83 630.67 L430.49 630.70 L432.08 630.85 L433.85 630.63 L435.66 630.27 L437.12 630.59 L438.58 630.89 L440.06 631.12 L441.77 630.84 L443.35 630.79 L444.50 631.72 L445.57 632.87 L446.75 633.80 L447.93 634.73 L449.16 635.57 L450.43 636.32 L451.62 637.31 L453.10 637.48 L454.65 637.41 L456.14 637.50 L457.57 637.78 L459.27 637.10 L460.90 636.63 L462.25 637.07 L463.69 637.17 L465.26 636.75 L466.69 636.83 L468.26 636.31 L469.82 635.76 L471.18 636.05 L472.64 635.86 L473.96 636.33 L475.22 637.14 L476.53 637.76 L477.93 637.86 L479.31 638.06 L480.77 637.73 L482.19 637.53 L483.62 637.25 L485.04 637.03 L486.38 637.42 L487.84 636.62 L489.22 636.54 L490.59 636.65 L492.01 635.78 L493.40 635.28 L494.79 634.47 L496.14 634.02 L497.49 633.73 L498.84 632.87 L500.17 633.19 L501.50 633.57 L502.84 633.65 L504.18 633.89 L505.53 634.01 L506.86 633.79 L508.24 634.37 L509.58 634.20 L510.85 633.22 L512.18 633.07 L513.47 632.55 L514.74 631.98 L516.02 631.52 L517.27 630.82 L518.60 630.82 L519.83 630.12 L521.04 629.38 L522.25 628.65 L523.38 627.58 L524.58 626.98 L525.79 626.44 L527.03 626.04 L528.36 626.10 L529.63 625.84 L530.90 625.59 L532.20 625.47 L533.37 624.80 L534.50 624.06 L535.68 623.49 L536.74 622.57 L537.87 621.88 L538.92 620.99 L539.99 620.18 L541.08 619.44 L542.30 619.11 L543.31 618.19 L544.39 617.49 L545.52 616.93 L546.48 615.95 L547.45 615.03 L548.39 614.06 L549.52 613.56 L550.76 613.29 L551.89 612.78 L553.05 612.32 L554.12 611.69 L555.18 611.02 L556.45 610.79 L557.58 610.27 L558.42 609.20 L559.36 608.33 L560.45 607.75 L561.15 606.50 L561.84 605.24 L562.85 604.56 L563.75 603.69 L564.43 602.48 L565.35 601.67 L566.03 600.51 L566.75 599.43 L567.63 598.59 L568.53 597.80 L569.65 597.31 L570.78 596.82 L571.93 596.37 L572.87 595.62 L573.74 594.77 L574.40 593.67 L575.14 592.68 L575.89 591.71 L576.47 590.56 L577.28 589.68 L577.98 588.69 L578.53 587.53 L579.24 586.57 L579.74 585.38 L580.28 584.25 L580.94 583.27 L581.77 582.46 L582.28 581.33 L582.90 580.32 L583.76 579.54 L584.47 578.62 L585.19 577.72 L585.87 576.78 L586.61 575.89 L587.23 574.91 L587.99 574.04 L588.55 573.02 L589.00 571.91 L589.57 570.90 L590.07 569.84 L590.45 568.70 L590.77 567.52 L591.19 566.42 L591.78 565.46 L592.16 564.35 L592.50 563.22 L592.87 562.12 L593.14 560.97 L593.46 559.85 L593.75 558.72 L594.20 557.70 L594.72 556.72 L595.22 555.74 L595.65 554.71 L596.08 553.69 L596.41 552.61 L596.69 551.52 L597.03 550.46 L597.32 549.38 L597.56 548.28 L597.77 547.17 L597.99 546.08 L598.23 545.00 L598.24 543.82 L598.43 542.73 L598.57 541.62 L598.73 540.53 L598.82 539.42 L598.87 538.30 L599.03 537.22 L599.26 536.18 L599.48 535.14 L599.69 534.10 L599.90 533.06 L600.06 532.00 L600.20 530.95 L600.32 529.89 L600.37 528.81 L600.41 527.74 L600.45 526.67 L600.46 525.61 L600.37 524.51 L600.33 523.44 L600.34 522.39 L600.32 521.33 L600.27 520.28 L600.25 519.23 L600.19 518.19 L600.14 517.14 L600.09 516.11 L600.03 515.07 L599.99 514.05 L599.94 513.02 L599.88 512.00 L599.81 510.98 L599.73 509.96 L599.65 508.95 L599.54 507.94 L599.44 506.93 L599.33 505.92 L599.20 504.92 L599.06 503.92 L598.91 502.92 L598.76 501.93 L598.59 500.94 Z"/>
  <svg class="pausebutton" id="pausebutton">
    <circle cx="500" cy="500" id="pausestart" class="pausestart" r="52.65"/>
    <rect height="50.02" width="10.00" y="473.68" rx="2.00" ry="2.00" x="479.99" class="pausesymbol"/>
    <rect height="50.02" width="10.00" y="473.68" rx="2.00" ry="2.00" x="510.00" class="pausesymbol"/>
    <polygon points="530.01,500 479.99,530.01 479.99,469.99" class="playsymbol"/>
  </svg>
  <polygon id="playback-head" class="playback-head" points="941.65,500 921.65,540 961.65,540"/>
</svg>