<?xml-stylesheet href="../../style/waveformjs.css" type="text/css"?>
<svg xmlns="http://www.w3.org/2000/svg" xmlns:xlink="http://www.w3.org/1999/xlink" width="100%" height="100%" viewBox="0 0 1000 1000">
  <path class="svg-wave" id="sp" d="M598.00 500.00 L598.18 500.98 L598.35 501.97 L598.51 502.96 L598.65 503.95 L598.79 504.94 L598.92 505.94 L599.04 506.94 L599.14 507.95 L599.24 508.96 L599.33 509.97 L599.40 510.98 L599.47 511.99 L599.52 513.01 L599.56 514.03 L599.60 515.05 L599.62 516.08 L599.63 517.10 L599.63 518.13 L599.61 519.16 L599.59 520.19 L599.56 521.22 L599.51 522.25 L599.45 523.29 L599.38 524.32 L599.29 525.35 L599.20 526.39 L599.09 527.42 L598.97 528.46 L598.84 529.49 L598.69 530.53 L598.54 531.56 L598.36 532.60 L598.18 533.63 L597.98 534.66 L597.76 535.68 L597.54 536.72 L597.29 537.73 L597.03 538.75 L596.77 539.78 L596.47 540.79 L596.19 541.81 L595.85 542.80 L595.50 543.80 L595.19 544.82 L594.82 545.80 L594.45 546.79 L594.06 547.78 L593.65 548.75 L593.24 549.73 L592.78 550.69 L592.34 551.65 L591.88 552.61 L591.42 553.56 L590.97 554.53 L590.44 555.45 L590.00 556.43 L589.49 557.36 L589.00 558.31 L588.48 559.24 L587.96 560.18 L587.44 561.11 L586.87 562.02 L586.35 562.96 L585.75 563.84 L585.21 564.78 L584.61 565.66 L584.07 566.61 L583.51 567.53 L582.86 568.39 L582.28 569.30 L581.70 570.23 L581.05 571.08 L580.42 571.97 L579.82 572.88 L579.19 573.78 L578.49 574.60 L577.82 575.46 L577.16 576.34 L576.47 577.18 L575.69 577.94 L575.01 578.79 L574.34 579.67 L573.62 580.50 L572.83 581.25 L572.12 582.09 L571.46 583.01 L570.57 583.65 L569.84 584.48 L569.03 585.22 L568.24 586.00 L567.48 586.80 L566.60 587.46 L565.83 588.27 L565.03 589.05 L564.15 589.71 L563.32 590.45 L562.44 591.11 L561.57 591.80 L560.74 592.55 L559.85 593.21 L558.99 593.92 L558.10 594.60 L557.31 595.43 L556.37 596.04 L555.46 596.68 L554.56 597.36 L553.62 597.97 L552.67 598.56 L551.64 599.01 L550.74 599.70 L549.76 600.24 L548.76 600.73 L547.84 601.42 L546.77 601.77 L545.76 602.25 L544.80 602.86 L543.78 603.32 L542.86 604.03 L541.71 604.18 L540.59 604.40 L539.68 605.16 L538.51 605.23 L537.55 605.88 L536.55 606.42 L535.43 606.64 L534.52 607.48 L533.49 607.95 L532.42 608.33 L531.51 609.25 L530.54 610.02 L529.40 610.17 L528.39 610.80 L527.31 611.23 L526.22 611.59 L525.23 612.41 L524.10 612.64 L523.02 613.12 L522.04 614.10 L520.93 614.50 L519.86 615.15 L518.75 615.61 L517.60 615.84 L516.52 616.55 L515.38 616.90 L514.18 616.79 L513.05 617.27 L511.94 618.02 L510.76 618.16 L509.58 618.36 L508.41 618.66 L507.26 619.28 L506.06 619.24 L504.88 619.46 L503.69 619.81 L502.49 619.74 L501.30 619.97 L500.10 620.01 L498.90 619.87 L497.69 620.38 L496.49 620.09 L495.29 620.02 L494.08 620.15 L492.90 619.79 L491.70 619.76 L490.51 619.55 L489.33 619.27 L488.12 619.36 L486.98 618.75 L485.75 618.95 L484.60 618.50 L483.44 618.22 L482.24 618.12 L481.20 617.12 L480.01 617.01 L478.87 616.64 L477.78 616.05 L476.60 615.92 L475.58 615.02 L474.50 614.48 L473.28 614.54 L472.31 613.55 L471.03 613.85 L470.12 612.67 L469.14 611.86 L468.00 611.63 L467.03 610.81 L466.02 610.15 L465.16 609.07 L463.92 609.15 L462.71 609.15 L461.71 608.53 L461.03 607.03 L459.63 607.52 L458.16 608.14 L456.79 608.45 L456.50 606.05 L455.07 606.50 L453.51 607.19 L452.42 606.78 L451.82 605.27 L450.85 604.62 L449.61 604.53 L449.28 602.57 L448.08 602.40 L447.83 600.39 L447.45 598.71 L445.85 599.31 L444.65 599.15 L444.59 596.95 L444.01 595.74 L441.62 597.57 L441.21 596.06 L440.45 595.15 L438.43 596.22 L437.22 595.98 L436.36 595.21 L434.83 595.43 L435.22 592.84 L433.56 593.22 L433.40 591.50 L432.88 590.29 L431.47 590.29 L430.43 589.79 L429.07 589.68 L428.89 588.08 L426.99 588.60 L426.16 587.81 L425.35 586.99 L424.83 585.84 L423.34 585.80 L422.29 585.24 L421.90 583.97 L421.71 582.50 L420.19 582.44 L419.10 581.91 L419.39 580.00 L417.71 580.05 L417.51 578.66 L417.48 577.12 L415.62 577.29 L415.06 576.26 L414.32 575.39 L412.92 575.09 L410.43 575.69 L409.97 574.55 L410.30 572.78 L406.63 574.22 L406.98 572.43 L406.35 571.43 L405.90 570.30 L405.79 568.92 L404.12 568.68 L405.28 566.43 L405.09 565.15 L402.36 565.60 L401.64 564.66 L401.46 563.38 L400.27 562.75 L398.69 562.34 L398.63 560.98 L398.80 559.51 L397.62 558.84 L397.92 557.31 L397.20 556.37 L396.78 555.27 L397.25 553.70 L396.67 552.70 L395.87 551.80 L395.19 550.83 L393.35 550.41 L393.09 549.24 L389.35 549.63 L385.86 549.83 L387.10 547.95 L384.11 547.85 L383.57 546.72 L384.40 545.05 L383.93 543.90 L384.36 542.42 L385.25 540.80 L383.13 540.24 L383.87 538.69 L384.21 537.30 L381.75 536.79 L382.68 535.21 L383.79 533.62 L383.28 532.50 L383.97 531.07 L384.00 529.82 L383.07 528.81 L383.17 527.55 L382.94 526.37 L381.45 525.46 L381.76 524.16 L380.23 523.23 L377.82 522.43 L377.01 521.31 L376.19 520.18 L373.27 519.36 L375.90 517.69 L376.10 516.40 L375.73 515.18 L376.89 513.80 L374.95 512.75 L373.85 511.59 L375.11 510.21 L374.26 509.02 L375.40 507.68 L376.32 506.39 L376.56 505.14 L373.99 503.98 L372.75 502.75 L371.44 501.49 L370.19 500.21 L369.99 498.91 L369.69 497.60 L371.42 496.35 L370.41 495.02 L368.44 493.63 L368.96 492.34 L368.86 491.02 L369.91 489.78 L369.60 488.44 L369.50 487.12 L372.27 486.10 L371.29 484.69 L372.02 483.48 L373.78 482.42 L373.56 481.10 L374.10 479.89 L373.79 478.54 L373.78 477.24 L373.70 475.92 L371.33 474.13 L372.03 472.94 L372.77 471.76 L371.58 470.15 L372.22 468.95 L373.35 467.88 L373.09 466.46 L372.48 464.93 L373.39 463.81 L374.12 462.65 L372.94 460.92 L375.02 460.18 L374.99 458.79 L375.52 457.58 L377.07 456.74 L376.85 455.27 L377.70 454.19 L377.29 452.63 L376.53 450.91 L377.43 449.84 L375.40 447.55 L372.44 444.80 L375.15 444.48 L373.93 442.43 L373.26 440.58 L375.34 440.03 L376.12 438.87 L377.44 437.99 L379.35 437.43 L379.37 435.91 L380.30 434.86 L382.00 434.24 L381.55 432.43 L382.39 431.34 L384.08 430.76 L384.84 429.65 L385.82 428.67 L387.04 427.85 L387.24 426.38 L387.97 425.25 L388.60 424.05 L388.40 422.26 L389.40 421.31 L389.72 419.87 L388.52 417.27 L388.80 415.74 L388.19 413.51 L387.35 411.05 L389.19 410.68 L389.04 408.72 L390.29 407.89 L392.10 407.56 L392.79 406.28 L393.39 404.90 L394.36 403.85 L396.07 403.49 L395.67 401.15 L396.25 399.72 L396.99 398.42 L397.88 397.26 L398.72 396.06 L399.80 395.08 L399.83 392.99 L401.72 392.88 L402.50 391.58 L403.14 390.10 L405.47 390.55 L406.40 389.41 L408.14 389.24 L409.64 388.81 L409.66 386.52 L411.28 386.25 L412.40 385.34 L413.19 383.98 L413.84 382.42 L416.17 383.17 L418.32 383.73 L418.81 381.92 L420.37 381.68 L421.16 380.30 L422.23 379.30 L423.10 377.99 L422.77 374.70 L424.52 374.76 L425.91 374.23 L425.98 371.43 L427.26 370.69 L429.21 371.16 L430.46 370.37 L431.45 369.09 L433.02 368.92 L434.87 369.33 L435.79 367.88 L437.21 367.44 L438.56 366.87 L439.92 366.33 L441.67 366.67 L442.90 365.83 L444.12 364.99 L445.30 363.99 L446.45 362.91 L447.79 362.28 L448.21 359.17 L448.47 355.42 L450.57 356.80 L451.36 354.38 L452.45 352.78 L454.39 353.79 L455.96 353.68 L457.60 353.86 L459.41 354.69 L460.47 352.81 L462.17 353.30 L463.86 353.82 L464.88 351.60 L466.54 352.02 L468.30 352.99 L469.77 352.67 L471.43 353.36 L472.90 353.08 L474.07 351.09 L475.30 349.26 L476.86 349.31 L478.07 347.06 L479.35 344.93 L481.13 346.62 L482.64 346.23 L484.16 345.84 L485.68 345.49 L487.29 346.07 L489.01 348.38 L490.51 348.07 L492.06 348.56 L493.62 349.63 L495.12 349.41 L496.60 348.15 L498.11 347.29 L499.64 347.39 L501.16 347.22 L502.70 346.82 L504.26 345.90 L505.87 343.90 L507.45 343.55 L509.13 341.72 L510.90 339.04 L512.54 338.81 L514.19 338.42 L515.77 338.97 L517.49 338.13 L519.09 338.44 L520.64 339.17 L522.29 339.08 L523.71 340.51 L525.50 339.58 L526.98 340.52 L528.35 342.04 L530.00 341.98 L531.35 343.45 L532.48 345.80 L533.99 346.29 L535.48 346.83 L537.27 346.09 L539.10 345.32 L540.88 344.82 L543.48 341.42 L545.02 342.02 L546.54 342.66 L548.79 340.92 L550.21 341.97 L551.35 343.79 L553.24 343.35 L553.98 346.23 L555.77 346.07 L557.29 346.69 L558.25 348.75 L560.20 348.23 L562.24 347.56 L562.93 350.16 L564.41 350.82 L565.65 352.04 L566.71 353.63 L568.18 354.28 L570.34 353.49 L571.52 354.77 L574.02 353.42 L577.60 350.07 L578.09 352.74 L580.37 352.04 L582.79 351.17 L583.41 353.50 L584.74 354.57 L585.89 355.94 L586.63 357.94 L588.63 357.87 L589.84 359.09 L590.61 360.98 L592.96 360.45 L593.92 362.01 L594.47 364.14 L595.95 364.92 L596.65 366.77 L597.65 368.18 L599.56 368.39 L601.18 368.98 L602.28 370.27 L604.33 370.36 L605.93 371.02 L608.14 370.99 L611.41 369.76 L612.82 370.75 L615.64 370.16 L619.21 368.81 L619.17 371.47 L619.79 373.36 L621.05 374.57 L621.28 376.81 L621.75 378.79 L623.09 379.88 L623.73 381.65 L625.84 382.01 L628.32 382.08 L629.60 383.28 L631.40 384.01 L633.45 384.55 L634.69 385.82 L635.65 387.31 L637.90 387.76 L637.97 389.98 L639.81 390.78 L642.05 391.30 L641.65 393.83 L642.89 395.12 L644.81 395.92 L646.12 397.18 L647.72 398.25 L649.03 399.52 L649.50 401.37 L650.68 402.74 L650.85 404.75 L649.24 407.84 L648.65 410.25 L649.50 411.77 L649.85 413.57 L651.35 414.71 L652.90 415.84 L654.03 417.21 L658.94 416.61 L659.23 418.48 L660.11 420.04 L662.98 420.63 L663.21 422.53 L662.40 424.90 L664.27 426.01 L663.18 428.46 L663.97 430.06 L664.82 431.64 L664.07 433.86 L665.29 435.28 L666.92 436.56 L665.95 438.82 L666.66 440.45 L666.35 442.43 L666.07 444.38 L667.43 445.78 L669.50 446.98 L671.23 448.31 L672.96 449.67 L674.73 451.04 L675.44 452.73 L676.21 454.41 L676.11 456.31 L676.46 458.09 L678.53 459.48 L679.11 461.23 L678.94 463.13 L678.84 465.02 L679.31 466.78 L680.43 468.44 L678.02 470.69 L679.15 472.34 L680.55 473.97 L678.31 476.11 L678.71 477.87 L678.29 479.73 L678.80 481.48 L680.45 483.14 L681.67 484.85 L683.12 486.57 L684.38 488.33 L685.24 490.14 L685.86 491.97 L686.04 493.82 L686.23 495.68 L687.22 497.53 L686.74 499.41 L686.92 501.27 L687.07 503.15 L686.83 505.01 L687.88 506.92 L687.13 508.77 L686.74 510.62 L686.04 512.45 L684.13 514.17 L683.08 515.93 L682.65 517.74 L684.45 519.78 L685.84 521.81 L688.27 524.00 L689.91 526.15 L688.74 527.91 L687.89 529.71 L688.21 531.69 L686.16 533.26 L685.55 535.07 L687.74 537.43 L686.94 539.22 L686.96 541.18 L686.03 542.93 L685.53 544.78 L684.45 546.47 L683.64 548.23 L682.43 549.86 L681.45 551.55 L680.47 553.23 L679.03 554.76 L678.58 556.58 L679.09 558.71 L677.85 560.29 L679.89 562.99 L681.31 565.53 L678.48 566.53 L679.45 568.94 L679.26 570.94 L677.38 572.25 L676.07 573.78 L676.80 576.18 L675.99 577.92 L673.90 579.09 L673.36 580.94 L673.06 582.92 L670.75 583.92 L671.10 586.23 L668.75 587.17 L667.69 588.76 L667.48 590.81 L667.24 592.85 L667.13 594.99 L666.80 597.02 L667.69 599.80 L669.07 602.92 L666.95 603.93 L666.01 605.66 L667.35 608.88 L664.99 609.71 L663.56 611.13 L661.81 612.33 L659.61 613.18 L659.04 615.18 L657.96 616.83 L655.33 617.31 L655.45 619.85 L654.23 621.39 L652.31 622.37 L650.47 623.39 L648.86 624.57 L647.96 626.36 L648.69 629.58 L650.95 634.22 L650.28 636.35 L652.05 640.75 L652.71 644.22 L650.56 645.07 L649.64 647.09 L646.99 647.40 L645.83 649.20 L644.18 650.49 L642.90 652.17 L642.35 654.66 L640.53 655.78 L639.56 657.85 L638.26 659.56 L636.56 660.83 L635.20 662.48 L633.50 663.75 L631.64 664.81 L630.62 666.92 L628.09 667.11 L625.71 667.45 L624.01 668.67 L622.16 669.69 L619.24 669.16 L617.47 670.25 L615.61 671.19 L613.49 671.73 L611.41 672.30 L608.90 672.18 L606.56 672.25 L604.31 672.46 L602.35 673.10 L600.38 673.71 L598.95 675.25 L597.67 677.10 L596.14 678.53 L594.70 680.14 L592.50 680.31 L590.69 681.23 L588.77 681.91 L587.38 683.70 L586.68 687.04 L585.10 688.55 L584.06 691.32 L583.02 694.20 L580.94 694.70 L578.77 694.96 L576.28 694.37 L574.79 696.32 L572.38 695.85 L569.77 694.76 L568.51 697.45 L566.26 697.30 L563.96 696.96 L562.22 698.34 L560.21 698.89 L557.85 698.19 L555.82 698.62 L553.80 699.04 L551.63 698.91 L549.63 699.37 L547.83 700.66 L546.12 702.46 L544.68 705.62 L542.77 706.76 L540.75 707.42 L539.49 712.20 L537.00 710.50 L534.80 710.33 L533.04 712.85 L530.77 712.25 L528.48 711.32 L526.33 711.24 L524.16 711.06 L522.12 711.95 L519.81 710.12 L517.76 711.02 L515.65 711.10 L513.41 709.35 L511.32 709.51 L509.20 709.02 L507.15 710.36 L505.12 713.27 L502.99 713.76 L500.86 715.33 L498.70 716.70 L496.52 716.95 L494.35 717.13 L492.22 715.90 L489.99 717.46 L487.74 718.66 L485.59 717.93 L483.28 719.48 L480.97 720.70 L478.96 718.48 L476.78 718.24 L474.69 717.13 L472.80 714.70 L470.89 712.69 L468.87 711.69 L466.80 711.07 L464.67 710.85 L462.24 712.30 L459.85 713.36 L457.39 714.58 L454.70 716.74 L452.30 717.36 L450.39 715.77 L448.60 713.71 L446.40 713.44 L444.03 713.82 L442.59 710.68 L440.24 710.98 L437.81 711.48 L436.06 709.66 L434.19 708.29 L431.86 708.41 L430.09 706.79 L428.33 705.19 L426.36 704.26 L424.40 703.30 L422.41 702.42 L420.40 701.63 L417.73 702.43 L415.03 703.23 L412.11 704.43 L410.40 702.80 L407.18 704.54 L404.46 705.06 L403.66 701.48 L400.65 702.54 L398.35 702.11 L397.26 699.28 L395.47 697.87 L393.77 696.31 L391.56 695.69 L390.32 693.35 L388.43 692.17 L386.01 691.89 L384.96 689.33 L383.22 687.92 L381.64 686.29 L379.33 685.80 L375.06 688.21 L371.04 690.12 L367.61 691.04 L362.55 694.17 L359.12 694.84 L357.98 692.35 L355.68 691.42 L354.39 689.17 L352.84 687.27 L352.00 684.52 L352.81 679.80 L352.86 676.10 L352.89 672.54 L352.18 669.90 L351.67 667.08 L350.06 665.53 L346.77 665.80 L345.75 663.60 L344.51 661.64 L343.02 659.95 L341.29 658.51 L339.30 657.32 L338.30 655.17 L336.17 654.10 L334.52 652.55 L332.90 650.98 L330.92 649.73 L329.87 647.65 L327.81 646.44 L325.76 645.22 L324.96 642.94 L323.54 641.18 L322.02 639.50 L319.24 638.78 L316.54 637.96 L315.64 635.77 L313.63 634.40 L311.48 633.11 L312.13 629.85 L310.58 628.14 L309.38 626.20 L307.34 624.79 L304.16 624.09 L302.32 622.50 L299.63 621.41 L295.81 620.95 L294.70 618.85 L293.29 616.92 L292.17 614.83 L292.08 612.18 L290.54 610.32 L289.56 608.17 L288.97 605.81 L286.28 604.50 L283.40 603.24 L283.55 600.52 L282.23 598.50 L278.88 597.37 L280.99 593.83 L279.25 591.98 L275.72 590.83 L276.01 588.11 L273.92 586.33 L273.99 583.73 L273.47 581.35 L273.16 578.91 L273.49 576.27 L273.49 573.75 L273.75 571.17 L273.51 568.77 L273.36 566.35 L275.10 563.40 L273.76 561.34 L273.49 558.99 L272.95 556.71 L271.24 554.72 L269.97 552.60 L269.16 550.36 L268.51 548.08 L268.57 545.66 L268.59 543.25 L268.31 540.91 L267.39 538.68 L265.71 536.55 L263.03 534.55 L261.93 532.28 L262.44 529.80 L257.89 527.91 L257.96 525.45 L258.81 522.93 L256.18 520.72 L256.26 518.26 L257.52 515.73 L257.63 513.29 L257.77 510.85 L257.31 508.44 L259.21 505.97 L258.39 503.57 L258.24 501.16 L259.97 498.75 L259.96 496.35 L260.68 493.96 L259.31 491.52 L255.98 488.96 L256.16 486.52 L254.63 483.97 L252.17 481.32 L253.37 478.93 L254.96 476.60 L254.78 474.10 L255.30 471.68 L255.48 469.22 L254.41 466.59 L254.55 464.10 L254.04 461.51 L253.56 458.91 L253.82 456.42 L255.04 454.10 L255.86 451.72 L256.33 449.28 L256.51 446.77 L257.16 444.36 L256.96 441.75 L257.64 439.35 L257.87 436.83 L257.43 434.11 L257.88 431.63 L257.93 429.02 L258.21 426.47 L259.36 424.18 L259.92 421.71 L260.67 419.30 L261.22 416.82 L261.05 414.07 L262.64 411.95 L265.14 410.20 L266.43 408.00 L266.82 405.45 L268.99 403.63 L268.19 400.56 L268.90 398.12 L269.94 395.82 L270.90 393.48 L272.43 391.41 L275.23 389.97 L277.26 388.19 L278.95 386.26 L280.33 384.18 L281.46 381.96 L281.68 379.25 L283.58 377.45 L283.40 374.48 L283.95 371.89 L287.20 370.92 L288.00 368.49 L289.64 366.58 L291.12 364.57 L291.65 361.94 L292.43 359.45 L293.73 357.30 L294.85 355.01 L296.71 353.26 L298.27 351.29 L299.90 349.38 L301.13 347.17 L301.85 344.55 L301.63 341.15 L302.35 338.45 L305.01 337.35 L303.15 332.43 L305.13 330.73 L308.03 329.85 L307.83 326.21 L309.85 324.55 L312.40 323.40 L314.26 321.61 L316.37 320.07 L317.76 317.82 L320.94 317.38 L322.24 315.05 L324.02 313.20 L327.22 312.88 L329.11 311.17 L331.39 309.90 L332.81 307.66 L332.67 303.57 L334.26 301.45 L336.01 299.51 L337.07 296.68 L340.16 296.40 L343.29 296.22 L345.72 295.18 L347.36 293.08 L348.29 289.97 L349.97 287.87 L351.55 285.58 L353.82 284.28 L356.62 283.79 L359.08 282.82 L360.85 280.78 L360.36 275.06 L360.32 269.89 L360.83 265.49 L359.42 257.62 L360.60 254.01 L363.27 253.00 L366.21 252.51 L369.49 252.69 L372.92 253.24 L376.67 254.52 L380.67 256.44 L384.50 258.17 L388.25 259.88 L391.70 261.07 L394.20 260.24 L395.76 257.23 L396.96 253.25 L399.49 252.38 L401.36 249.83 L403.98 249.15 L407.54 251.03 L410.61 251.70 L413.08 250.76 L414.03 245.33 L415.09 239.92 L416.76 236.11 L417.31 228.44 L419.63 226.27 L423.06 227.90 L426.38 229.35 L429.82 231.43 L432.64 231.24 L435.79 232.50 L439.11 234.67 L441.70 233.77 L445.03 236.37 L448.11 238.06 L450.98 238.90 L453.31 236.79 L455.28 232.39 L458.04 232.49 L460.56 231.01 L463.16 229.94 L466.21 232.30 L469.12 234.03 L471.91 234.95 L474.55 234.57 L477.24 234.74 L479.76 232.68 L482.42 232.30 L485.12 232.59 L487.65 229.19 L490.38 229.59 L493.10 230.15 L495.75 226.87 L498.49 228.39 L501.19 230.08 L503.88 230.98 L506.55 231.92 L509.29 230.28 L511.93 231.53 L514.66 230.85 L517.48 229.10 L520.08 230.71 L522.76 231.04 L525.40 231.82 L528.14 231.52 L531.04 229.92 L533.85 229.34 L536.63 229.18 L539.41 229.04 L542.00 230.18 L544.47 231.99 L547.04 233.08 L549.82 232.93 L552.63 232.75 L555.48 232.41 L558.26 232.46 L560.81 233.59 L563.27 235.08 L565.87 235.92 L568.38 237.07 L571.11 237.39 L573.91 237.47 L577.09 236.29 L580.48 234.60 L583.01 235.81 L585.48 237.14 L588.77 236.06 L591.10 237.82 L592.87 241.10 L596.04 240.48 L599.59 238.93 L601.47 241.79 L604.23 242.37 L607.62 241.44 L609.17 244.94 L611.48 246.57 L613.41 249.03 L616.15 249.67 L619.00 250.11 L621.25 251.80 L624.66 251.17 L627.93 250.89 L630.10 252.78 L632.20 254.77 L634.59 256.21 L637.16 257.32 L638.98 259.75 L641.64 260.70 L644.83 260.79 L646.87 262.81 L649.94 263.18 L653.18 263.34 L654.97 265.74 L657.23 267.40 L660.08 268.22 L660.98 271.84 L663.18 273.55 L665.23 275.48 L667.73 276.78 L670.81 277.36 L673.03 279.08 L675.67 280.28 L678.17 281.66 L679.60 284.34 L681.51 286.43 L683.24 288.71 L685.40 290.49 L688.12 291.65 L691.35 292.29 L693.36 294.28 L695.84 295.77 L699.89 295.67 L702.40 297.21 L703.33 300.30 L706.57 301.14 L708.69 303.08 L708.82 306.87 L710.57 309.13 L711.31 312.27 L713.76 313.88 L715.60 316.05 L717.05 318.52 L720.45 319.40 L722.10 321.73 L723.50 324.24 L725.18 326.54 L726.73 328.93 L729.19 330.65 L730.23 333.41 L732.23 335.48 L734.90 337.09 L736.37 339.55 L739.23 341.08 L740.75 343.51 L743.18 345.37 L745.98 347.02 L745.84 350.50 L747.22 353.02 L748.21 355.77 L750.26 357.92 L753.63 359.34 L755.99 361.36 L757.29 363.96 L759.29 366.20 L762.24 367.99 L763.32 370.73 L763.74 373.78 L767.43 375.28 L767.33 378.57 L769.36 380.88 L771.75 383.06 L771.19 386.50 L774.05 388.51 L776.07 390.89 L775.62 394.25 L775.97 397.26 L775.24 400.66 L776.15 403.44 L776.83 406.30 L778.04 408.98 L778.80 411.81 L782.27 413.81 L784.46 416.24 L784.92 419.19 L787.05 421.68 L786.92 424.79 L786.84 427.87 L788.01 430.63 L787.89 433.69 L787.91 436.71 L789.33 439.43 L789.31 442.45 L791.20 445.09 L793.78 447.64 L791.47 451.06 L792.50 453.89 L794.03 456.65 L791.71 459.97 L792.05 462.90 L791.95 465.87 L792.46 468.77 L794.04 471.58 L794.21 474.53 L795.51 477.39 L796.10 480.32 L795.08 483.35 L795.06 486.31 L794.94 489.27 L795.01 492.22 L795.82 495.16 L797.87 498.10 L798.34 501.08 L797.91 504.06 L801.32 507.12 L801.09 510.13 L798.69 513.04 L801.98 516.21 L801.09 519.18 L798.08 521.99 L797.92 524.97 L796.55 527.85 L797.67 530.96 L796.53 533.84 L796.21 536.81 L798.37 540.11 L796.82 542.93 L795.75 545.80 L794.52 548.63 L794.20 551.60 L796.18 555.01 L796.92 558.22 L798.68 561.67 L800.71 565.24 L799.55 568.13 L798.45 571.02 L797.52 573.95 L794.97 576.46 L791.61 578.71 L791.10 581.70 L789.39 584.35 L787.24 586.85 L786.61 589.80 L785.69 592.66 L786.04 595.94 L785.08 598.80 L784.59 601.83 L785.84 605.52 L785.76 608.75 L784.43 611.51 L782.69 614.10 L782.84 617.46 L781.52 620.23 L778.14 622.09 L776.43 624.65 L776.05 627.82 L774.27 630.34 L772.82 633.01 L773.25 636.62 L771.95 639.39 L770.81 642.24 L770.08 645.32 L767.38 647.34 L765.78 649.93 L764.07 652.47 L763.41 655.62 L763.78 659.42 L762.85 662.47 L761.99 665.58 L761.81 669.15 L760.05 671.73 L756.54 673.12 L755.11 675.89 L754.64 679.35 L751.21 680.72 L749.54 683.34 L750.07 687.60 L746.79 689.03 L744.71 691.35 L743.61 694.44 L739.79 695.35 L737.28 697.29 L735.03 699.43 L733.09 701.82 L731.85 704.84 L730.20 707.52 L728.60 710.26 L726.96 712.98 L724.08 714.54 L721.91 716.75 L719.35 718.58 L717.31 720.92 L715.35 723.34 L713.99 726.42 L712.85 729.78 L710.19 731.51 L709.36 735.28 L708.52 739.11 L704.51 739.30 L703.55 743.06 L701.91 746.05 L697.61 745.79 L694.85 747.38 L691.63 748.36 L689.70 751.01 L686.89 752.50 L683.99 753.86 L682.74 757.51 L679.74 758.72 L676.84 760.07 L674.09 761.61 L672.40 764.77 L672.42 770.69 L670.99 774.46 L669.91 778.90 L670.21 785.78 L666.52 786.06 L662.96 786.49 L659.39 786.86 L655.30 786.20 L651.19 785.40 L647.28 784.86 L643.78 785.04 L640.26 785.13 L637.27 786.24 L634.96 788.80 L632.25 790.54 L629.72 792.71 L626.74 793.87 L623.45 794.31 L620.25 794.92 L616.93 795.18 L613.93 796.23 L610.92 797.23 L608.05 798.62 L605.11 799.85 L602.26 801.33 L599.81 804.06 L597.42 807.13 L594.12 807.36 L591.98 811.45 L588.94 812.64 L585.17 811.15 L582.04 811.95 L578.59 811.46 L575.78 813.51 L572.60 814.08 L569.52 815.06 L566.90 818.30 L563.77 819.21 L560.50 819.46 L557.26 819.79 L553.92 819.53 L550.61 819.38 L547.53 820.67 L544.27 820.71 L541.02 820.80 L537.93 822.25 L534.91 824.50 L531.58 823.95 L528.32 824.12 L525.16 825.46 L521.77 823.57 L518.49 823.01 L515.26 823.19 L512.02 823.30 L508.83 824.95 L505.58 825.16 L502.34 825.83 L499.08 826.37 L495.82 825.49 L492.58 824.90 L489.35 824.26 L486.11 824.05 L482.83 824.59 L479.51 825.62 L476.16 826.75 L472.90 826.45 L469.39 828.82 L465.92 830.28 L462.89 827.49 L459.22 830.32 L455.96 829.57 L452.97 827.02 L449.84 825.61 L446.81 823.77 L443.42 824.09 L440.25 823.14 L437.16 821.82 L433.61 822.81 L430.43 821.91 L427.32 820.74 L424.10 820.09 L420.73 820.00 L417.03 821.15 L413.50 821.47 L409.88 822.06 L406.11 823.07 L402.91 822.02 L399.57 821.42 L396.40 820.30 L393.08 819.60 L389.73 818.98 L386.60 817.71 L383.42 816.58 L380.12 815.76 L376.67 815.33 L373.59 813.92 L370.21 813.22 L367.19 811.66 L364.95 808.34 L362.34 805.92 L359.94 803.11 L356.75 802.05 L353.97 800.13 L350.88 798.85 L346.79 799.51 L343.51 798.52 L341.37 795.39 L337.25 795.91 L333.60 795.52 L332.17 791.20 L328.66 790.54 L325.62 789.05 L324.12 785.05 L321.14 783.51 L318.49 781.42 L315.31 780.17 L311.77 779.41 L308.69 777.95 L305.47 776.65 L303.00 774.29 L300.32 772.24 L298.18 769.47 L295.90 766.91 L292.68 765.58 L289.85 763.71 L286.10 762.98 L282.65 761.83 L280.18 759.49 L275.89 759.25 L273.30 757.00 L271.93 753.40 L268.96 751.59 L267.02 748.67 L265.64 745.18 L263.24 742.79 L261.19 740.04 L258.13 738.30 L255.18 736.43 L252.44 734.33 L249.73 732.20 L247.96 729.19 L245.87 726.49 L243.84 723.75 L241.48 721.29 L238.38 719.45 L235.55 717.35 L232.15 715.70 L230.29 712.78 L226.99 710.99 L222.75 709.88 L222.30 705.88 L219.65 703.53 L216.15 701.77 L216.16 697.52 L214.77 694.28 L213.68 690.87 L212.16 687.75 L209.71 685.23 L208.60 681.87 L206.17 679.33 L204.19 676.50 L202.77 673.34 L201.28 670.23 L198.66 667.75 L192.85 666.99 L188.64 665.26 L184.25 663.56 L176.82 663.34 L174.34 660.52 L172.25 657.50 L169.49 654.78 L168.17 651.37 L166.54 648.10 L165.10 644.75 L164.28 641.13 L162.94 637.75 L162.18 634.13 L161.44 630.52 L160.24 627.10 L159.66 623.45 L158.50 620.02 L157.58 616.51 L156.74 612.98 L154.86 609.78 L154.45 606.12 L154.60 602.31 L153.86 598.77 L153.33 595.18 L155.11 591.00 L155.61 587.19 L153.08 584.15 L153.61 580.36 L152.43 576.98 L149.84 573.89 L149.07 570.39 L148.13 566.93 L147.48 563.41 L146.99 559.86 L146.18 556.36 L145.80 552.79 L145.14 549.27 L145.62 545.60 L146.84 541.85 L147.55 538.20 L147.19 534.67 L146.86 531.14 L147.76 527.52 L146.34 524.07 L144.37 520.64 L144.15 517.08 L144.36 513.51 L142.71 509.99 L142.42 506.42 L142.50 502.85 L140.91 499.27 L140.28 495.67 L139.57 492.06 L140.36 488.47 L139.29 484.83 L138.09 481.15 L140.21 477.65 L140.85 474.08 L137.95 470.23 L138.15 466.60 L141.10 463.25 L138.70 459.35 L139.72 455.81 L141.83 452.43 L142.35 448.86 L143.45 445.37 L142.75 441.60 L143.27 438.02 L142.64 434.22 L141.88 430.37 L142.73 426.82 L142.91 423.13 L144.52 419.75 L145.50 416.23 L146.52 412.74 L146.65 409.01 L147.49 405.46 L147.86 401.77 L148.43 398.13 L148.46 394.32 L148.90 390.61 L151.46 387.57 L151.44 383.70 L152.57 380.21 L154.05 376.83 L155.83 373.57 L157.07 370.12 L158.06 366.57 L159.76 363.30 L161.35 359.99 L161.01 355.86 L162.60 352.54 L162.89 348.63 L163.89 345.03 L165.11 341.51 L166.01 337.82 L166.86 334.10 L168.03 330.52 L169.32 326.99 L169.77 322.99 L172.09 319.99 L174.47 317.04 L175.26 313.19 L178.55 310.78 L180.55 307.63 L181.04 303.55 L183.25 300.52 L185.16 297.29 L187.22 294.17 L188.93 290.80 L191.18 287.80 L192.68 284.28 L194.65 281.07 L196.63 277.86 L199.01 274.95 L200.89 271.65 L202.77 268.35 L205.78 265.92 L208.31 263.14 L209.28 259.06 L212.62 256.94 L214.36 253.47 L217.21 250.95 L219.40 247.85 L222.73 245.79 L225.88 243.59 L227.00 239.46 L230.77 237.87 L232.41 234.20 L234.83 231.28 L237.60 228.72 L240.16 225.93 L242.62 223.04 L244.73 219.73 L247.28 216.90 L248.79 212.86 L252.44 211.25 L254.53 207.83 L256.98 204.81 L262.01 204.95 L264.50 201.98 L265.17 196.65 L269.67 196.23 L272.68 193.89 L274.88 190.44 L278.77 189.30 L282.48 187.96 L285.56 185.72 L288.53 183.31 L291.02 180.17 L294.00 177.73 L296.04 173.78 L299.19 171.55 L303.20 170.76 L305.77 167.55 L309.19 165.78 L313.20 165.08 L316.76 163.59 L319.24 160.09 L322.44 157.91 L325.91 156.22 L329.25 154.29 L331.99 151.08 L335.98 150.48 L339.92 149.82 L342.25 145.58 L346.26 145.06 L350.35 144.82 L353.03 141.19 L356.71 139.96 L360.54 139.12 L363.82 136.85 L367.12 134.58 L370.45 132.32 L373.51 129.21 L377.32 128.27 L380.69 125.94 L383.99 123.32 L387.52 121.35 L391.58 121.18 L395.00 118.75 L398.81 117.72 L402.73 117.07 L406.30 115.03 L410.09 113.85 L414.04 113.33 L417.53 110.70 L421.47 110.10 L425.54 110.24 L429.23 108.35 L433.20 107.92 L437.27 108.20 L440.96 106.03 L444.92 105.61 L448.78 104.44 L452.75 104.04 L456.71 103.52 L460.65 102.86 L464.65 102.78 L468.64 102.64 L472.54 101.32 L476.53 100.99 L480.48 100.00 L484.47 99.53 L488.45 98.37 L492.47 98.90 L496.49 99.20 L500.50 98.60 L504.50 99.80 L508.50 99.80 L512.54 98.78 L516.53 99.36 L520.54 99.52 L524.61 98.68 L528.62 98.91 L532.69 98.54 L536.83 97.51 L540.81 98.30 L544.85 98.50 L549.05 97.45 L552.80 99.97 L556.75 100.88 L561.09 99.19 L565.03 100.22 L568.88 101.72 L573.09 101.13 L577.00 102.28 L580.81 103.85 L584.88 104.18 L588.84 105.02 L592.99 105.08 L596.94 105.99 L601.27 105.43 L605.30 106.15 L608.93 108.31 L612.98 108.93 L617.04 109.58 L620.59 111.86 L624.56 112.79 L628.82 112.88 L632.72 114.08 L636.58 115.41 L640.54 116.48 L644.72 116.96 L648.53 118.46 L651.87 121.13 L656.27 121.16 L660.19 122.42 L663.59 124.89 L667.50 126.16 L671.63 126.98 L675.26 128.91 L678.73 131.17 L683.05 131.68 L686.54 133.90 L690.91 134.40 L694.65 136.16 L698.43 137.85 L702.23 139.51 L706.40 140.55 L710.14 142.36 L713.75 144.41 L717.71 145.90 L721.39 147.85 L725.06 149.83 L729.04 151.35 L732.23 154.09 L735.90 156.10 L740.02 157.48 L743.15 160.31 L746.43 162.89 L749.87 165.27 L753.08 167.95 L756.46 170.41 L760.16 172.46 L763.42 175.07 L766.78 177.57 L769.88 180.39 L773.09 183.07 L776.28 185.78 L779.04 188.97 L782.44 191.45 L785.99 193.77 L788.96 196.73 L792.35 199.25 L795.50 202.04 L798.49 204.98 L800.85 208.53 L803.96 211.36 L807.52 213.77 L809.67 217.50 L813.35 219.83 L816.63 222.54 L819.45 225.67 L822.55 228.56 L825.83 231.33 L828.64 234.48 L831.53 237.58 L834.84 240.36 L837.00 244.05 L840.22 246.92 L843.35 249.89 L845.07 253.88 L847.88 257.09 L851.09 260.03 L853.34 263.64 L855.93 267.03 L858.55 270.40 L861.07 273.85 L863.38 277.43 L865.76 280.97 L868.42 284.36 L870.96 287.82 L873.46 291.32 L876.64 294.46 L878.97 298.08 L881.15 301.78 L883.64 305.34 L885.83 309.06 L887.74 312.91 L889.87 316.67 L892.17 320.36 L894.23 324.16 L896.22 328.00 L898.14 331.88 L900.23 335.69 L901.96 339.66 L903.60 343.67 L905.66 347.51 L907.31 351.52 L909.08 355.50 L910.84 359.48 L912.41 363.53 L914.11 367.55 L915.61 371.64 L917.15 375.72 L918.58 379.84 L919.93 383.98 L921.43 388.09 L922.85 392.23 L924.13 396.41 L925.48 400.58 L926.75 404.77 L927.92 408.99 L929.00 413.24 L930.06 417.49 L931.05 421.76 L931.95 426.05 L932.88 430.34 L933.71 434.65 L934.52 438.96 L935.33 443.28 L936.00 447.62 L936.68 451.97 L937.37 456.31 L937.96 460.67 L938.58 465.03 L939.08 469.41 L939.54 473.79 L940.01 478.18 L940.43 482.57 L940.78 486.97 L941.08 491.37 L941.39 495.78 L941.69 500.00 L941.66 495.58 L941.48 491.17 L941.20 486.76 L941.07 482.35 L940.83 477.94 L940.42 473.54 L939.99 469.15 L939.53 464.76 L939.00 460.38 L938.43 456.01 L937.73 451.65 L937.14 447.29 L936.48 442.94 L935.78 438.59 L934.87 434.28 L934.03 429.96 L933.32 425.62 L932.13 421.36 L931.15 417.08 L930.30 412.77 L929.25 408.51 L928.04 404.28 L926.94 400.04 L925.77 395.81 L924.47 391.61 L923.23 387.41 L921.94 383.23 L920.55 379.07 L919.35 374.86 L917.90 370.73 L916.50 366.58 L915.04 362.46 L913.48 358.37 L911.73 354.36 L910.12 350.29 L908.43 346.26 L906.58 342.30 L904.77 338.33 L903.03 334.33 L901.18 330.39 L899.32 326.44 L897.36 322.55 L895.34 318.69 L893.34 314.82 L891.34 310.96 L889.25 307.15 L887.09 303.37 L885.12 299.50 L883.09 295.67 L880.98 291.87 L878.92 288.05 L876.85 284.23 L874.42 280.62 L872.02 277.00 L869.69 273.34 L867.20 269.79 L864.92 266.10 L862.48 262.52 L860.03 258.94 L857.70 255.28 L855.25 251.71 L852.39 248.43 L849.66 245.05 L846.98 241.66 L844.09 238.42 L841.49 234.97 L838.72 231.65 L836.02 228.28 L833.39 224.84 L830.43 221.68 L827.81 218.24 L824.81 215.12 L821.74 212.07 L819.21 208.54 L816.15 205.47 L813.10 202.41 L810.22 199.19 L807.07 196.23 L804.00 193.19 L800.79 190.29 L797.33 187.66 L794.12 184.78 L790.87 181.95 L787.37 179.40 L783.96 176.76 L780.92 173.70 L777.46 171.12 L774.13 168.39 L770.82 165.65 L767.33 163.12 L763.67 160.82 L760.21 158.28 L756.43 156.17 L752.79 153.88 L749.45 151.17 L745.93 148.73 L742.43 146.25 L738.95 143.73 L735.43 141.29 L732.11 138.51 L728.59 136.04 L724.88 133.87 L721.73 130.76 L718.35 128.01 L714.25 126.50 L710.48 124.42 L706.99 121.83 L703.33 119.52 L699.20 118.11 L695.33 116.21 L691.69 113.87 L687.40 112.84 L683.49 111.04 L679.54 109.35 L675.45 107.96 L671.17 107.03 L666.99 105.92 L662.65 105.21 L658.44 104.23 L654.26 103.21 L650.17 102.00 L646.04 100.91 L641.90 99.88 L637.68 99.10 L633.60 97.92 L629.39 97.16 L625.31 96.04 L621.11 95.31 L617.05 94.16 L612.97 93.07 L608.90 91.96 L604.79 90.96 L600.74 89.75 L596.57 89.03 L592.35 88.58 L588.16 87.99 L583.97 87.44 L579.79 86.92 L575.68 85.98 L571.54 85.22 L567.37 84.63 L563.26 83.70 L559.05 83.36 L554.80 83.40 L550.63 82.92 L546.40 82.92 L542.19 82.83 L538.05 82.13 L533.83 82.18 L529.67 81.60 L525.49 81.20 L521.29 81.23 L517.10 81.14 L512.89 81.57 L508.70 81.48 L504.52 81.19 L500.33 81.34 L496.15 81.45 L491.95 81.12 L487.76 81.03 L483.57 81.10 L479.40 81.73 L475.25 82.38 L471.05 82.38 L466.91 83.06 L462.78 83.86 L458.64 84.48 L454.42 84.31 L450.24 84.58 L446.15 85.51 L441.96 85.74 L437.81 86.27 L433.82 87.81 L429.70 88.49 L425.62 89.38 L421.52 90.16 L417.36 90.64 L413.29 91.58 L409.16 92.23 L405.07 93.11 L400.85 93.43 L396.61 93.74 L392.52 94.66 L388.54 96.02 L384.08 95.67 L380.11 97.07 L376.19 98.62 L371.99 99.29 L368.04 100.73 L363.80 101.34 L360.13 103.58 L356.10 104.81 L351.81 105.35 L348.00 107.19 L344.46 109.68 L340.89 112.03 L337.09 113.83 L333.27 115.54 L330.09 118.71 L326.68 121.28 L323.26 123.81 L319.72 126.04 L316.28 128.44 L312.90 130.95 L309.54 133.45 L305.99 135.57 L302.54 137.86 L299.06 140.10 L295.77 142.64 L292.30 144.87 L288.63 146.75 L285.12 148.89 L281.45 150.79 L277.98 153.01 L274.48 155.18 L271.58 158.26 L268.55 161.12 L265.21 163.50 L262.29 166.47 L258.70 168.50 L255.31 170.81 L252.21 173.51 L248.68 175.64 L245.34 178.04 L242.80 181.42 L239.93 184.38 L236.81 187.03 L234.05 190.09 L230.74 192.50 L227.79 195.34 L224.73 198.05 L221.30 200.35 L218.80 203.67 L215.91 206.55 L213.13 209.56 L210.46 212.66 L207.43 215.40 L204.40 218.15 L201.55 221.08 L198.20 223.54 L195.44 226.57 L192.46 229.40 L189.71 232.44 L187.35 235.81 L184.39 238.67 L182.43 242.36 L180.32 245.90 L177.51 248.89 L174.99 252.11 L172.75 255.54 L170.10 258.66 L167.94 262.14 L165.51 265.43 L163.67 269.12 L161.50 272.57 L159.55 276.17 L157.48 279.68 L154.71 282.76 L152.70 286.31 L150.19 289.56 L147.87 292.92 L145.74 296.41 L143.25 299.70 L141.16 303.22 L139.47 306.96 L136.81 310.18 L135.06 313.89 L133.56 317.72 L131.90 321.46 L129.95 325.07 L127.60 328.49 L126.77 332.61 L124.77 336.20 L122.63 339.74 L121.99 343.91 L120.56 347.74 L118.91 351.49 L117.61 355.37 L116.95 359.49 L115.96 363.46 L114.79 367.37 L114.52 371.57 L113.62 375.55 L112.75 379.53 L112.45 383.68 L111.64 387.65 L111.18 391.72 L110.73 395.78 L110.09 399.78 L109.71 403.83 L108.92 407.77 L108.02 411.69 L107.54 415.70 L106.38 419.56 L105.79 423.53 L105.79 427.62 L105.13 431.57 L105.13 435.63 L105.51 439.74 L104.80 443.67 L104.55 447.66 L104.47 451.67 L103.09 455.52 L102.72 459.50 L102.94 463.53 L102.38 467.49 L103.08 471.53 L104.08 475.58 L103.95 479.55 L103.77 483.51 L104.20 487.49 L103.50 491.44 L102.47 495.39 L102.16 499.37 L101.73 503.35 L101.75 507.33 L102.33 511.30 L103.02 515.25 L103.95 519.19 L104.17 523.15 L104.47 527.10 L104.22 531.10 L103.92 535.11 L104.12 539.08 L103.57 543.14 L102.91 547.24 L102.90 551.27 L103.84 555.18 L103.15 559.33 L102.92 563.43 L104.67 567.21 L104.74 571.28 L103.25 575.65 L103.40 579.74 L105.04 583.53 L106.19 587.40 L106.10 591.57 L107.55 595.38 L108.98 599.18 L110.49 602.95 L111.38 606.89 L113.62 610.44 L117.38 613.52 L119.84 616.93 L122.98 620.11 L125.71 623.37 L128.04 626.74 L130.92 629.90 L132.84 633.36 L135.29 636.62 L137.60 639.90 L139.74 643.23 L142.21 646.40 L144.37 649.69 L146.53 652.96 L144.66 658.01 L143.55 662.79 L144.47 666.69 L143.05 671.72 L144.79 675.29 L147.84 678.18 L147.16 682.98 L148.56 686.74 L148.96 691.05 L147.46 696.46 L149.07 700.19 L152.76 702.71 L156.88 704.93 L161.47 706.82 L166.23 708.52 L170.18 710.67 L173.30 713.30 L176.87 715.61 L179.83 718.29 L182.28 721.31 L184.77 724.29 L184.92 728.96 L187.55 731.86 L189.43 735.32 L190.40 739.49 L194.03 741.62 L194.52 746.23 L194.52 751.31 L197.12 754.29 L197.41 759.25 L198.81 763.32 L202.22 765.63 L206.59 767.06 L211.35 768.05 L213.02 771.89 L215.54 774.96 L218.30 777.79 L219.04 782.65 L221.74 785.60 L225.86 787.05 L230.22 788.20 L234.06 789.86 L237.87 791.50 L242.92 791.71 L246.18 793.88 L250.10 795.25 L254.30 796.26 L255.00 801.49 L256.99 805.23 L258.84 809.21 L259.81 814.39 L262.54 817.35 L266.83 818.20 L270.87 819.34 L274.49 821.03 L277.58 823.45 L280.69 825.86 L282.92 829.61 L285.77 832.48 L289.90 833.34 L294.06 834.10 L298.91 833.66 L303.89 832.88 L308.63 832.39 L313.03 832.39 L316.83 833.39 L320.78 834.09 L324.66 834.84 L327.65 837.30 L330.97 839.13 L334.12 841.31 L337.34 843.37 L340.10 846.47 L343.57 848.06 L346.90 849.97 L350.00 852.43 L354.12 852.49 L357.79 853.60 L360.88 856.16 L364.87 856.41 L368.71 857.02 L371.90 859.39 L375.58 860.42 L379.29 861.35 L383.44 860.90 L387.03 862.15 L390.47 863.87 L394.34 864.18 L396.93 868.99 L400.12 871.90 L403.47 874.31 L406.55 877.94 L410.41 878.57 L414.64 877.50 L418.89 876.12 L423.33 873.65 L427.61 871.60 L431.79 869.82 L435.80 868.73 L439.76 867.68 L443.53 867.70 L447.23 868.08 L450.99 868.04 L454.38 870.90 L458.04 871.78 L461.76 872.19 L465.23 875.27 L469.09 874.28 L472.68 876.79 L476.28 879.67 L480.05 880.43 L483.73 883.62 L487.52 885.33 L491.38 884.76 L495.26 882.41 L499.09 879.83 L502.90 880.82 L506.71 880.78 L510.53 881.16 L514.43 883.49 L518.27 883.51 L522.01 881.57 L525.67 879.08 L529.31 876.89 L532.87 874.19 L536.28 870.51 L540.19 872.06 L543.88 871.34 L547.17 867.59 L550.95 867.92 L554.48 866.37 L557.74 863.30 L561.24 861.92 L564.78 860.86 L568.17 859.06 L571.67 857.95 L575.34 857.68 L578.66 855.76 L582.15 854.68 L585.64 853.61 L589.00 852.05 L592.63 851.58 L596.40 851.57 L599.67 849.74 L604.47 853.16 L609.21 856.06 L613.00 855.68 L617.87 858.54 L621.94 858.79 L625.49 857.47 L629.30 856.86 L632.46 854.48 L636.03 853.22 L639.58 851.91 L642.58 849.24 L645.36 846.11 L648.40 843.69 L652.04 842.65 L655.31 840.79 L659.09 840.04 L663.22 839.96 L666.69 838.48 L669.41 835.48 L671.86 832.04 L674.27 828.62 L676.31 824.57 L678.11 820.22 L680.58 817.14 L682.54 813.26 L685.30 810.81 L690.48 812.35 L694.45 811.80 L698.81 811.80 L703.99 812.98 L707.32 811.25 L709.82 808.27 L711.91 804.74 L713.01 799.89 L714.02 795.01 L715.25 790.55 L716.71 786.48 L718.19 782.52 L720.59 779.81 L723.42 777.64 L726.02 775.19 L730.43 774.91 L733.34 772.79 L736.10 770.49 L740.77 770.34 L742.48 766.84 L746.49 765.86 L751.05 765.41 L753.96 763.16 L758.82 762.88 L762.76 761.60 L764.62 758.23 L765.88 754.32 L765.98 749.37 L769.01 747.21 L771.69 744.70 L773.77 741.66 L778.67 741.07 L781.55 738.69 L782.63 734.78 L783.12 730.44 L783.83 726.34 L784.33 722.13 L783.94 717.28 L784.89 713.53 L786.45 710.26 L786.49 705.91 L787.37 702.22 L788.68 698.85 L789.96 695.48 L792.17 692.75 L793.59 689.50 L800.07 689.46 L804.89 688.27 L808.51 686.27 L814.27 685.49 L817.23 682.98 L819.30 679.94 L819.73 675.99 L819.95 671.97 L822.64 669.28 L824.31 666.04 L826.09 662.86 L828.49 659.97 L829.36 656.34 L829.67 652.47 L829.86 648.57 L828.25 643.91 L827.58 639.73 L827.42 635.81 L827.51 632.02 L827.47 628.21 L828.51 624.85 L829.97 621.64 L831.51 618.46 L835.12 615.98 L838.75 613.46 L841.06 610.45 L844.80 607.86 L846.06 604.47 L845.98 600.68 L845.28 596.74 L844.01 592.69 L842.72 588.68 L842.01 584.85 L841.54 581.12 L841.22 577.45 L841.36 573.90 L845.72 571.23 L848.10 568.10 L849.99 564.84 L853.59 561.86 L854.37 558.35 L853.36 554.56 L852.00 550.75 L849.77 546.86 L846.49 542.90 L844.85 539.20 L843.39 535.56 L841.24 531.89 L840.59 528.40 L840.65 524.98 L840.37 521.53 L843.86 518.31 L844.98 514.91 L844.78 511.45 L848.82 508.09 L847.09 504.58 L848.58 501.11 L851.37 497.61 L851.17 494.09 L853.67 490.51 L855.40 486.91 L854.35 483.40 L852.01 479.98 L848.89 476.65 L849.40 473.11 L849.57 469.58 L848.77 466.13 L851.33 462.33 L851.58 458.74 L849.46 455.44 L846.96 452.23 L844.11 449.11 L840.84 446.11 L837.16 443.23 L834.85 440.17 L833.21 437.02 L830.56 434.09 L828.42 431.09 L827.31 427.90 L826.12 424.74 L825.53 421.44 L824.46 418.25 L823.35 415.08 L822.88 411.75 L822.02 408.51 L820.67 405.42 L819.90 402.16 L819.13 398.90 L817.50 395.91 L815.95 392.90 L814.25 389.96 L812.61 387.02 L811.30 383.96 L810.07 380.87 L809.31 377.60 L809.12 374.09 L807.40 371.18 L806.46 367.96 L806.78 364.17 L806.15 360.77 L805.10 357.55 L805.69 353.53 L804.59 350.30 L804.43 346.58 L805.01 342.44 L803.67 339.27 L804.17 335.09 L804.40 331.00 L803.86 327.30 L801.18 324.82 L799.49 321.77 L797.72 318.77 L794.07 316.94 L793.00 313.51 L791.31 310.47 L788.72 308.01 L787.21 304.85 L784.20 302.71 L782.47 299.70 L780.49 296.85 L777.51 294.75 L775.90 291.64 L773.02 289.50 L769.56 287.83 L765.73 286.51 L760.88 286.08 L756.44 285.40 L752.24 284.58 L748.47 283.47 L745.02 282.13 L742.13 280.33 L739.83 278.00 L738.00 275.23 L737.82 270.86 L735.35 268.66 L732.54 266.80 L733.25 261.36 L729.19 260.78 L726.78 258.50 L727.35 252.99 L725.03 250.55 L723.98 246.66 L722.84 242.82 L719.83 241.11 L715.87 240.56 L711.45 240.64 L709.02 238.31 L706.75 235.79 L703.79 234.13 L703.00 229.60 L700.81 226.87 L697.45 225.74 L693.44 225.56 L689.35 225.59 L686.46 223.90 L682.06 224.51 L678.42 224.06 L675.57 222.43 L671.39 222.94 L667.38 223.26 L663.84 222.90 L660.35 222.51 L657.33 221.35 L654.49 219.86 L652.46 216.89 L649.79 215.05 L646.53 214.35 L644.10 212.05 L640.82 211.42 L637.46 211.00 L634.12 210.60 L631.47 208.72 L629.74 204.71 L626.19 204.82 L623.87 202.04 L621.19 200.06 L617.58 200.38 L614.48 199.50 L610.99 199.66 L607.55 199.76 L604.13 199.90 L601.14 198.83 L598.01 198.18 L594.84 197.69 L592.69 193.84 L590.89 188.59 L588.33 185.70 L586.20 181.07 L583.71 177.54 L580.40 177.01 L577.01 176.92 L573.42 177.71 L570.03 177.73 L566.85 176.85 L563.57 176.41 L560.57 174.51 L557.35 173.71 L553.92 174.12 L550.63 173.83 L547.14 174.89 L543.88 174.48 L540.70 173.38 L537.45 172.82 L534.25 171.79 L530.91 172.11 L527.49 173.46 L524.07 175.23 L520.61 178.36 L517.22 181.22 L513.91 183.85 L510.68 185.79 L507.49 187.82 L504.35 188.96 L501.24 187.87 L498.12 187.20 L494.95 184.51 L491.76 183.55 L488.62 184.30 L485.34 181.59 L482.23 183.09 L479.07 183.48 L475.63 180.01 L472.36 179.42 L468.97 177.79 L465.50 175.82 L462.33 176.79 L459.36 179.20 L456.55 182.53 L453.44 183.40 L450.10 182.74 L447.10 184.27 L443.39 181.70 L440.02 181.30 L437.09 183.16 L434.44 186.30 L432.07 190.43 L428.98 191.16 L426.70 195.23 L424.09 197.70 L421.03 198.33 L418.88 202.28 L416.90 206.62 L414.52 209.32 L411.54 209.94 L406.94 205.45 L403.08 203.59 L398.74 200.50 L394.31 197.38 L391.26 198.37 L388.95 201.38 L387.18 205.66 L384.45 207.33 L380.95 207.06 L378.53 209.47 L374.27 207.54 L370.93 207.85 L368.11 209.36 L366.46 213.40 L365.50 218.71 L364.08 222.89 L363.30 228.21 L362.30 232.92 L360.94 236.77 L359.34 240.07 L357.36 242.59 L355.21 244.77 L351.09 243.52 L344.69 238.54 L340.45 237.43 L335.23 234.84 L330.25 232.83 L327.06 233.72 L325.00 236.37 L323.59 239.92 L320.54 241.04 L317.84 242.69 L315.19 244.39 L311.55 244.77 L308.90 246.53 L306.83 249.04 L305.12 252.00 L303.80 255.39 L301.01 256.94 L298.65 259.01 L296.35 261.15 L293.22 262.34 L291.21 264.81 L289.92 268.07 L288.81 271.49 L288.84 276.05 L287.90 279.52 L287.79 283.78 L286.96 287.22 L285.64 290.15 L284.91 293.60 L282.17 295.11 L280.80 297.92 L277.65 299.09 L275.01 300.76 L273.74 303.63 L269.21 303.72 L268.87 307.38 L265.79 308.74 L261.02 308.80 L258.63 310.82 L255.08 311.96 L251.49 313.12 L250.10 315.96 L249.75 319.54 L249.80 323.35 L247.95 325.79 L245.71 327.97 L244.42 330.80 L240.44 331.88 L238.28 334.17 L237.26 337.18 L237.57 340.98 L238.13 344.88 L235.19 346.70 L233.58 349.30 L231.84 351.84 L228.78 353.66 L227.28 356.36 L227.43 359.90 L228.47 363.85 L229.51 367.74 L230.59 371.59 L231.29 375.21 L230.06 377.90 L229.13 380.73 L227.07 383.07 L226.01 385.84 L225.41 388.80 L224.56 391.65 L224.48 394.79 L224.08 397.79 L222.89 400.48 L222.09 403.32 L221.07 406.09 L220.54 409.01 L219.93 411.90 L218.46 414.52 L218.72 417.66 L217.22 420.28 L216.35 423.09 L215.85 426.00 L215.11 428.84 L214.09 431.61 L213.56 434.51 L211.49 437.06 L211.60 440.10 L210.97 442.98 L209.28 445.66 L209.25 448.66 L208.72 451.56 L208.30 454.49 L206.95 457.27 L207.06 460.28 L207.12 463.26 L205.85 466.09 L205.87 469.07 L206.95 472.14 L206.61 475.07 L206.68 478.03 L205.51 480.90 L203.71 483.75 L202.74 486.68 L200.16 489.57 L200.28 492.57 L201.68 495.59 L204.43 498.59 L207.93 501.53 L210.75 504.40 L213.66 507.22 L215.13 510.04 L216.43 512.83 L217.97 515.59 L217.19 518.47 L217.98 521.25 L216.90 524.18 L216.68 527.06 L218.32 529.75 L214.16 533.08 L216.19 535.73 L216.51 538.57 L212.00 542.12 L211.96 545.07 L211.01 548.19 L209.26 551.47 L209.99 554.34 L212.42 556.87 L215.42 559.24 L216.08 562.07 L215.81 565.11 L217.30 567.75 L215.49 571.20 L215.10 574.33 L216.81 576.92 L218.77 579.42 L220.59 581.93 L222.09 584.51 L224.59 586.77 L226.19 589.29 L227.96 591.73 L231.16 593.66 L232.70 596.13 L233.71 598.78 L235.29 601.22 L234.15 604.71 L234.97 607.46 L234.85 610.61 L237.90 612.43 L238.99 615.07 L239.48 617.98 L242.02 619.95 L243.02 622.63 L243.29 625.66 L244.06 628.47 L245.50 630.95 L246.96 633.42 L247.92 636.15 L248.62 639.04 L250.90 641.05 L252.12 643.65 L253.60 646.11 L255.44 648.34 L255.60 651.60 L256.46 654.47 L257.42 657.28 L258.28 660.18 L260.13 662.43 L261.34 665.11 L263.99 666.79 L266.09 668.84 L266.89 671.83 L268.67 674.12 L270.46 676.39 L272.14 678.76 L273.94 681.03 L276.27 682.86 L278.51 684.76 L280.10 687.19 L282.04 689.33 L284.48 691.03 L286.34 693.23 L288.75 694.92 L290.78 696.96 L292.76 699.04 L295.46 700.42 L297.25 702.67 L299.62 704.36 L302.56 705.43 L305.34 706.63 L308.28 707.63 L310.92 708.93 L313.91 709.81 L316.16 711.49 L317.62 714.10 L320.52 715.01 L323.34 715.98 L325.39 717.90 L328.81 718.06 L331.41 719.23 L334.08 720.27 L337.27 720.59 L339.54 722.13 L341.87 723.58 L342.87 726.95 L344.38 729.64 L345.72 732.65 L346.98 735.83 L349.48 737.14 L352.92 736.91 L356.37 736.61 L359.97 735.96 L364.07 734.37 L367.13 734.46 L370.29 734.31 L373.71 733.62 L376.56 733.91 L378.97 735.02 L381.67 735.52 L383.77 737.24 L386.43 737.79 L388.89 738.75 L391.18 740.07 L394.30 739.53 L394.94 744.67 L395.99 749.08 L398.18 750.86 L399.02 756.10 L401.03 758.56 L403.95 758.63 L407.27 757.56 L410.54 756.50 L413.80 755.33 L416.95 754.38 L420.22 752.90 L423.17 752.32 L425.88 752.45 L428.84 751.65 L431.51 751.79 L433.67 753.86 L436.21 754.50 L438.78 755.03 L441.01 757.08 L443.69 757.16 L446.00 758.97 L447.90 763.00 L450.36 764.44 L452.61 767.12 L454.79 770.54 L457.56 770.62 L460.22 771.33 L463.26 769.32 L466.40 766.19 L469.01 766.95 L471.88 765.38 L474.63 764.66 L477.42 763.24 L480.13 762.47 L482.70 763.46 L485.33 763.68 L488.04 762.35 L490.69 761.73 L493.22 764.95 L495.91 762.60 L498.55 759.27 L501.17 763.63 L503.82 765.06 L506.46 764.47 L509.23 768.11 L511.96 768.99 L514.62 768.34 L517.14 765.70 L519.54 762.02 L521.95 759.38 L524.21 755.62 L526.52 753.01 L528.85 751.00 L531.18 749.30 L533.86 750.40 L536.20 748.92 L538.66 748.34 L541.28 748.80 L543.59 747.39 L546.02 746.72 L548.37 745.64 L551.02 746.07 L554.61 750.78 L557.57 752.22 L560.80 754.58 L564.25 757.60 L566.82 756.93 L568.85 754.29 L570.76 751.33 L572.57 748.24 L574.13 744.47 L576.15 742.37 L578.22 740.51 L580.08 738.11 L582.43 737.23 L584.54 735.68 L587.02 735.14 L589.39 734.33 L591.74 733.46 L594.28 733.05 L596.61 732.09 L598.78 730.79 L602.11 732.13 L605.70 733.90 L608.45 733.74 L612.27 735.77 L615.06 735.53 L616.88 733.31 L618.16 730.09 L619.37 726.83 L622.17 726.62 L624.70 725.88 L627.13 724.94 L630.65 725.87 L632.85 724.45 L634.37 721.93 L635.71 719.17 L636.28 715.24 L637.29 712.11 L638.55 709.45 L640.01 707.12 L641.38 704.71 L643.07 702.78 L645.04 701.27 L646.60 699.20 L648.46 697.56 L650.50 696.17 L651.75 693.75 L653.97 692.59 L655.66 690.76 L657.51 689.13 L659.10 687.20 L661.42 686.13 L663.15 684.36 L664.73 682.44 L666.89 681.16 L668.80 679.59 L670.44 677.74 L671.81 675.63 L673.81 674.15 L675.30 672.16 L677.65 671.01 L678.76 668.67 L682.18 668.49 L686.30 668.87 L687.26 666.36 L691.24 666.51 L693.82 665.38 L694.80 662.87 L694.78 659.57 L694.72 656.30 L693.93 652.50 L693.33 648.92 L694.61 646.83 L694.52 643.73 L694.33 640.61 L695.35 638.39 L695.66 635.70 L696.15 633.15 L696.77 630.72 L698.10 628.76 L700.73 627.64 L701.41 625.26 L703.10 623.51 L709.20 624.37 L712.05 623.21 L715.02 622.08 L718.91 621.41 L720.36 619.35 L720.58 616.63 L719.37 613.20 L718.34 609.91 L717.04 606.55 L716.40 603.57 L716.45 600.94 L715.64 597.95 L716.12 595.57 L716.78 593.29 L717.04 590.84 L717.63 588.54 L719.22 586.64 L721.97 585.17 L721.41 582.42 L722.19 580.19 L726.53 579.21 L729.18 577.57 L730.74 575.54 L735.11 574.37 L736.80 572.31 L736.74 569.71 L735.54 566.81 L733.20 563.63 L731.42 560.67 L729.73 557.77 L728.70 555.09 L727.69 552.44 L727.35 549.97 L727.91 547.71 L727.61 545.28 L727.92 542.98 L729.33 540.87 L729.82 538.59 L729.93 536.25 L731.35 534.11 L732.08 531.85 L735.57 529.93 L737.43 527.76 L739.60 525.58 L742.20 523.41 L742.52 521.00 L741.19 518.46 L739.17 515.90 L737.43 513.40 L736.12 510.96 L734.87 508.55 L733.32 506.15 L734.32 503.84 L734.77 501.50 L733.85 499.15 L734.60 496.80 L734.91 494.45 L734.07 492.13 L734.71 489.75 L733.89 487.44 L732.28 485.20 L735.13 482.66 L735.92 480.22 L735.85 477.85 L738.42 475.20 L738.62 472.77 L736.92 470.56 L734.53 468.47 L730.94 466.60 L727.65 464.75 L724.89 462.87 L722.70 460.94 L720.87 458.98 L718.82 457.09 L718.05 454.98 L716.99 452.93 L717.14 450.61 L717.83 448.16 L715.58 446.42 L716.60 443.85 L717.12 441.40 L714.75 439.73 L718.69 436.26 L720.35 433.37 L721.19 430.70 L723.50 427.51 L723.14 425.15 L720.96 423.42 L717.66 422.12 L713.51 421.18 L709.93 420.11 L706.81 418.92 L704.58 417.42 L702.28 415.99 L701.98 413.74 L702.19 411.25 L699.58 410.00 L700.01 407.39 L700.53 404.70 L697.06 403.93 L697.52 401.25 L697.06 399.00 L697.54 396.25 L699.91 392.44 L699.73 389.95 L701.80 386.16 L702.14 383.28 L700.71 381.42 L698.90 379.79 L694.93 379.51 L692.27 378.48 L690.29 377.06 L687.63 376.10 L685.62 374.74 L683.30 373.62 L682.16 371.70 L681.84 369.18 L680.76 367.20 L679.34 365.46 L679.12 362.81 L679.08 359.97 L676.82 358.87 L675.79 356.79 L674.50 354.91 L672.50 353.63 L671.26 351.71 L668.59 351.05 L667.68 348.84 L666.10 347.23 L663.45 346.62 L662.80 344.14 L661.09 342.66 L659.82 340.75 L656.86 340.54 L654.18 340.09 L652.75 338.37 L649.57 338.53 L646.45 338.70 L646.72 335.11 L646.06 332.51 L644.41 331.02 L644.52 327.43 L643.28 325.40 L641.47 324.04 L639.94 322.33 L637.47 321.83 L635.91 320.17 L633.88 319.12 L631.21 318.97 L628.60 318.79 L624.99 320.09 L622.28 320.17 L618.97 321.23 L615.33 322.88 L613.47 321.86 L610.59 322.49 L607.67 323.26 L605.43 322.98 L603.52 322.17 L602.34 320.08 L600.02 320.00 L599.14 317.30 L597.40 316.13 L595.40 315.47 L595.95 309.79 L594.93 307.03 L593.76 304.50 L593.40 300.13 L591.45 299.10 L588.78 299.68 L585.55 301.62 L582.22 304.00 L579.40 305.27 L576.55 306.75 L574.19 307.11 L571.64 308.03 L569.35 308.33 L567.75 306.74 L565.20 307.87 L563.93 305.24 L561.77 305.27 L559.49 305.72 L558.15 303.11 L555.67 304.32 L554.67 300.27 L553.59 296.24 L551.62 295.42 L550.48 291.17 L548.91 288.41 L546.75 288.12 L544.46 288.47 L541.98 289.83 L539.57 291.06 L537.15 292.49 L534.80 293.78 L532.55 294.60 L530.30 295.61 L528.13 296.22 L526.10 295.83 L523.93 296.69 L521.96 295.83 L519.90 295.85 L517.96 294.49 L515.91 294.20 L513.80 294.84 L511.97 290.90 L509.94 289.49 L507.86 288.65 L505.81 286.30 L503.66 286.77 L501.53 285.99 L499.39 285.81 L497.26 286.86 L495.11 286.06 L492.97 285.88 L490.83 286.02 L488.75 287.22 L486.74 289.22 L484.79 291.59 L482.98 295.04 L480.98 295.67 L479.18 298.28 L477.32 299.82 L475.21 299.19 L473.39 300.88 L471.00 298.33 L468.74 297.09 L466.64 296.92 L464.09 294.32 L461.85 293.69 L459.96 294.95 L458.31 297.30 L456.95 300.79 L455.66 304.30 L454.29 307.23 L452.89 309.82 L451.26 311.33 L449.60 312.66 L447.65 312.91 L445.92 313.92 L444.12 314.68 L442.15 314.84 L440.63 316.46 L438.46 316.04 L436.98 317.69 L435.30 318.72 L431.60 314.25 L429.01 313.01 L426.52 312.13 L423.30 309.55 L421.28 310.03 L420.03 312.34 L419.22 315.58 L418.41 318.67 L417.84 322.18 L417.17 325.34 L415.60 326.53 L414.69 329.03 L413.24 330.39 L410.90 330.03 L409.73 331.92 L407.37 331.57 L405.28 331.78 L403.43 332.45 L401.17 332.42 L398.55 331.83 L395.61 330.81 L392.51 329.63 L390.34 329.97 L387.53 329.38 L385.50 330.03 L383.57 330.84 L381.93 332.08 L381.42 334.89 L379.64 335.90 L377.96 337.05 L378.39 340.96 L376.08 341.26 L374.87 342.97 L374.92 346.22 L372.86 346.84 L370.50 347.13 L370.17 349.82 L368.88 351.36 L367.05 352.28 L367.01 355.18 L365.24 356.16 L363.63 357.34 L362.65 359.15 L360.76 360.04 L359.51 361.58 L357.78 362.65 L357.62 365.22 L356.75 367.10 L355.03 368.17 L353.63 369.55 L352.00 370.73 L350.72 372.22 L349.94 374.12 L348.36 375.36 L347.53 377.22 L347.67 379.82 L345.79 380.82 L343.36 381.43 L341.76 382.69 L340.26 384.03 L339.45 385.87 L338.25 387.44 L337.13 389.06 L336.64 391.11 L335.57 392.75 L335.08 394.77 L335.45 397.30 L336.37 400.14 L337.90 403.28 L339.70 406.51 L341.00 409.39 L341.84 411.95 L341.68 413.93 L342.03 416.15 L341.58 417.93 L340.48 419.38 L339.42 420.85 L337.32 421.82 L335.34 422.89 L332.57 423.62 L331.31 425.08 L330.25 426.63 L326.32 426.98 L324.83 428.41 L323.69 429.99 L321.09 431.03 L320.21 432.74 L319.78 434.63 L319.75 436.65 L320.59 438.96 L321.00 441.09 L322.02 443.39 L322.43 445.47 L324.36 447.97 L325.68 450.26 L325.33 452.04 L326.71 454.28 L327.35 456.29 L327.39 458.13 L327.17 459.90 L326.94 461.67 L327.00 463.49 L323.64 464.62 L320.65 465.89 L319.48 467.53 L316.12 468.82 L314.51 470.45 L315.52 472.50 L317.75 474.70 L320.21 476.87 L323.48 479.08 L326.68 481.21 L328.54 483.15 L329.70 484.98 L331.22 486.81 L331.61 488.54 L331.08 490.20 L331.71 491.92 L332.27 493.63 L332.60 495.32 L332.16 496.98 L332.70 498.67 L333.24 500.34 L326.99 502.08 L324.03 503.88 L321.93 505.71 L317.76 507.67 L317.23 509.52 L319.37 511.22 L322.70 512.79 L324.21 514.45 L325.72 516.09 L329.07 517.50 L329.39 519.19 L330.16 520.83 L332.96 522.18 L335.53 523.52 L336.86 525.00 L333.92 527.15 L330.47 529.46 L329.00 531.48 L324.57 534.11 L323.06 536.24 L323.07 538.09 L323.00 539.96 L324.32 541.51 L324.48 543.33 L325.27 544.99 L327.44 546.28 L330.12 547.39 L333.41 548.27 L337.13 548.97 L340.33 549.75 L343.28 550.55 L345.20 551.65 L346.33 552.99 L348.04 554.10 L348.94 555.49 L350.02 556.80 L350.55 558.32 L351.37 559.72 L351.43 561.42 L351.86 562.99 L352.86 564.31 L348.14 568.19 L346.48 570.79 L345.47 573.13 L342.51 576.47 L342.43 578.47 L344.57 579.35 L347.67 579.70 L351.07 579.83 L354.47 579.89 L357.52 580.08 L358.10 581.63 L360.01 582.40 L361.18 583.60 L360.18 586.12 L360.37 587.94 L361.68 589.05 L361.61 591.07 L362.00 592.81 L363.03 594.12 L363.17 596.05 L362.97 598.25 L362.05 601.01 L363.89 601.77 L363.41 604.27 L363.95 606.04 L364.91 607.47 L366.47 608.43 L368.90 608.65 L368.89 610.89 L369.69 612.47 L373.35 611.53 L373.60 613.58 L374.53 615.04 L377.49 614.59 L377.97 616.46 L377.76 619.02 L380.59 618.61 L381.66 619.92 L381.83 622.17 L384.64 621.67 L385.53 623.18 L386.85 624.22 L389.30 624.01 L389.78 625.99 L391.47 626.59 L393.11 627.22 L395.03 627.50 L396.66 628.12 L398.16 628.87 L399.80 629.44 L400.50 631.22 L401.91 632.08 L403.99 632.02 L404.45 634.19 L406.13 634.67 L408.51 634.08 L409.10 636.12 L411.11 636.04 L411.72 638.11 L413.64 638.13 L416.42 636.71 L416.40 639.86 L418.58 639.36 L420.38 639.45 L421.24 641.21 L423.11 641.17 L424.85 641.32 L426.23 642.14 L428.19 641.81 L430.41 640.90 L431.01 643.28 L433.26 642.23 L434.90 642.42 L436.28 643.17 L437.80 643.61 L439.90 642.64 L441.60 642.57 L443.08 643.03 L444.72 643.04 L446.65 642.27 L448.43 641.83 L449.98 641.96 L452.11 640.37 L453.32 641.46 L455.09 640.79 L456.93 639.84 L458.35 640.19 L459.93 639.99 L461.50 639.80 L463.24 638.87 L464.88 638.24 L466.43 637.91 L467.95 637.67 L469.54 636.99 L471.15 636.20 L472.62 635.96 L474.10 635.55 L475.58 635.17 L476.98 635.08 L478.39 634.95 L479.81 634.75 L481.17 634.81 L482.58 634.57 L483.99 634.18 L485.36 634.04 L486.73 633.91 L488.09 633.81 L489.43 633.97 L490.78 633.92 L492.13 633.81 L493.47 633.79 L494.82 633.54 L496.15 633.74 L497.50 633.42 L498.83 633.50 L500.17 633.62 L501.50 633.54 L502.83 633.14 L504.16 633.23 L505.49 633.06 L506.82 633.00 L508.14 632.69 L509.48 632.88 L510.82 632.83 L512.10 632.19 L513.45 632.35 L514.78 632.33 L516.12 632.34 L517.37 631.60 L518.72 631.65 L520.09 631.85 L521.34 631.17 L522.65 630.97 L523.92 630.55 L525.26 630.48 L526.52 629.97 L527.80 629.62 L529.13 629.49 L530.31 628.74 L531.78 629.18 L532.92 628.25 L534.13 627.65 L535.52 627.73 L536.59 626.65 L537.84 626.23 L539.14 625.96 L540.29 625.26 L541.43 624.51 L542.49 623.56 L543.81 623.35 L544.80 622.26 L545.92 621.55 L547.07 620.91 L548.04 619.85 L549.09 619.01 L550.34 618.65 L551.38 617.82 L552.37 616.89 L553.50 616.27 L554.53 615.46 L555.48 614.50 L556.60 613.89 L557.54 612.93 L558.51 612.04 L559.59 611.39 L560.55 610.50 L561.48 609.59 L562.47 608.79 L563.46 607.99 L564.36 607.07 L565.32 606.25 L566.22 605.34 L567.17 604.52 L568.03 603.55 L568.88 602.60 L569.80 601.75 L570.52 600.64 L571.36 599.69 L572.20 598.77 L572.99 597.78 L573.86 596.91 L574.62 595.90 L575.39 594.92 L576.28 594.09 L577.00 593.06 L577.70 592.02 L578.66 591.28 L579.37 590.27 L580.19 589.38 L580.92 588.40 L581.57 587.34 L582.36 586.44 L582.94 585.33 L583.56 584.25 L584.24 583.27 L584.84 582.19 L585.40 581.10 L586.00 580.04 L586.57 578.97 L587.09 577.87 L587.64 576.79 L588.06 575.62 L588.51 574.49 L589.01 573.39 L589.48 572.29 L589.86 571.12 L590.31 570.03 L590.78 568.95 L591.22 567.85 L591.66 566.77 L591.99 565.61 L592.46 564.56 L592.75 563.40 L593.20 562.34 L593.45 561.17 L593.73 560.02 L594.14 558.96 L594.39 557.81 L594.74 556.73 L594.98 555.59 L595.18 554.44 L595.52 553.37 L595.69 552.22 L595.90 551.10 L596.14 550.00 L596.31 548.87 L596.56 547.79 L596.78 546.70 L596.93 545.58 L597.16 544.51 L597.32 543.41 L597.53 542.34 L597.72 541.26 L597.86 540.17 L598.06 539.12 L598.20 538.04 L598.37 536.98 L598.51 535.91 L598.64 534.84 L598.79 533.79 L598.91 532.73 L599.03 531.67 L599.14 530.62 L599.23 529.56 L599.33 528.52 L599.42 527.47 L599.49 526.42 L599.56 525.37 L599.61 524.33 L599.67 523.29 L599.71 522.25 L599.73 521.21 L599.75 520.17 L599.76 519.14 L599.76 518.11 L599.75 517.08 L599.73 516.05 L599.71 515.02 L599.67 514.00 L599.62 512.98 L599.56 511.96 L599.49 510.94 L599.41 509.93 L599.33 508.92 L599.23 507.91 L599.12 506.91 L599.00 505.90 L598.87 504.90 L598.73 503.91 L598.58 502.91 L598.43 501.93 L598.26 500.94 Z"/>
  <svg class="pausebutton" id="pausebutton">
    <circle cx="500" cy="500" id="pausestart" class="pausestart" r="52.65"/>
    <rect height="50.02" width="10.00" y="473.68" rx="2.00" ry="2.00" x="479.99" class="pausesymbol"/>
    <rect height="50.02" width="10.00" y="473.68" rx="2.00" ry="2.00" x="510.00" class="pausesymbol"/>
    <polygon points="530.01,500 479.99,530.01 479.99,469.99" class="playsymbol"/>
  </svg>
  <polygon id="playback-head" class="playback-head" points="941.65,500 921.65,540 961.65,540"/>
</svg>