<?xml-stylesheet href="../../style/waveformjs.css" type="text/css"?>
<svg xmlns="http://www.w3.org/2000/svg" xmlns:xlink="http://www.w3.org/1999/xlink" width="100%" height="100%" viewBox="0 0 1000 1000">
  <path class="svg-wave" id="sp" d="M598.01 500.00 L598.18 500.98 L598.35 501.97 L598.51 502.96 L598.66 503.95 L598.79 504.94 L598.92 505.94 L599.03 506.94 L599.11 507.95 L599.15 508.95 L599.18 509.95 L599.18 510.95 L599.16 511.96 L599.16 512.96 L598.98 513.95 L598.92 514.95 L598.94 515.97 L598.77 516.95 L598.73 517.97 L598.76 518.99 L598.43 519.95 L598.36 520.96 L598.36 522.00 L598.03 522.95 L597.99 523.98 L598.00 525.02 L597.48 525.93 L597.44 526.97 L597.35 527.99 L596.87 528.91 L596.87 529.97 L596.75 530.99 L596.08 531.84 L596.08 532.91 L595.87 533.91 L595.22 534.76 L595.32 535.88 L594.97 536.84 L594.18 537.62 L594.24 538.74 L593.81 539.66 L593.05 540.44 L593.30 541.67 L592.59 542.47 L591.72 543.18 L591.89 544.39 L591.18 545.17 L590.39 545.91 L590.80 547.27 L589.65 547.82 L588.83 548.53 L589.04 549.81 L588.02 550.39 L587.30 551.15 L587.86 552.67 L586.29 552.90 L585.59 553.66 L585.82 555.01 L584.41 555.30 L583.88 556.17 L584.47 557.79 L582.52 557.67 L582.03 558.56 L582.16 559.90 L580.52 559.95 L580.21 560.98 L580.64 562.59 L578.46 562.16 L578.20 563.24 L578.24 564.57 L576.36 564.32 L576.32 565.59 L576.52 567.11 L574.20 566.40 L574.30 567.84 L573.97 568.91 L571.99 568.43 L572.30 570.11 L572.05 571.28 L569.77 570.42 L570.11 572.19 L569.39 572.89 L567.44 572.27 L568.11 574.47 L567.22 574.99 L565.13 574.14 L565.70 576.31 L564.57 576.53 L562.77 575.93 L563.69 578.63 L562.14 578.31 L560.40 577.70 L561.07 580.20 L559.44 579.70 L558.00 579.41 L559.10 582.65 L556.90 581.28 L555.58 581.11 L556.05 583.57 L554.13 582.48 L553.06 582.63 L554.14 586.19 L551.53 583.90 L550.52 584.13 L550.93 586.76 L548.74 584.97 L547.98 585.62 L548.78 589.13 L546.06 586.18 L545.49 587.20 L545.52 589.44 L543.30 587.21 L542.84 588.51 L543.25 591.68 L540.60 588.34 L540.32 590.09 L540.06 591.97 L537.89 589.42 L537.83 591.81 L537.71 594.20 L535.40 591.04 L535.41 593.85 L534.72 594.87 L532.75 592.34 L532.95 595.94 L532.51 597.85 L530.53 595.06 L530.03 596.80 L529.17 597.46 L527.83 596.48 L527.97 600.77 L527.33 602.39 L525.98 601.41 L526.02 605.96 L524.71 605.16 L522.72 601.23 L521.97 602.66 L520.64 601.43 L519.18 599.28 L518.43 600.83 L516.93 598.15 L516.22 599.98 L515.74 603.56 L514.22 600.30 L513.35 601.51 L512.87 606.04 L511.51 603.45 L510.41 602.96 L509.83 607.96 L508.47 604.58 L507.41 604.48 L506.44 605.77 L505.29 604.07 L504.34 606.25 L503.42 610.87 L502.26 608.77 L501.21 611.98 L500.09 612.78 L498.99 609.72 L497.92 608.50 L496.80 609.40 L495.85 605.83 L494.77 606.16 L493.77 605.02 L492.82 603.52 L491.48 607.32 L490.41 607.24 L489.56 604.88 L488.04 609.12 L486.86 609.73 L486.23 605.96 L484.72 609.04 L483.42 610.31 L482.79 607.17 L481.47 608.47 L480.37 608.36 L479.51 607.00 L477.58 611.04 L476.24 611.90 L475.36 610.62 L473.28 614.54 L472.41 613.13 L472.31 608.80 L470.87 609.85 L470.24 607.87 L469.77 605.46 L468.37 606.29 L468.09 603.43 L466.52 604.80 L464.37 607.79 L464.48 603.97 L463.03 604.78 L460.49 608.50 L460.46 605.29 L459.53 604.58 L456.67 608.72 L456.95 604.96 L455.95 604.43 L454.50 604.92 L454.16 602.87 L452.17 604.50 L449.15 608.23 L449.08 605.63 L446.53 608.14 L445.17 608.16 L445.48 604.92 L444.70 603.88 L443.21 604.16 L444.29 599.78 L442.58 600.47 L441.07 600.75 L441.46 597.84 L439.20 599.34 L437.28 600.21 L438.05 596.82 L435.60 598.46 L434.42 598.12 L434.94 595.25 L432.13 597.27 L430.59 597.39 L431.17 594.56 L429.35 595.05 L428.44 594.29 L428.24 592.62 L424.52 595.43 L422.64 595.83 L422.30 594.30 L419.18 596.10 L418.62 594.83 L420.26 591.06 L418.81 590.86 L419.20 588.63 L419.62 586.42 L417.87 586.55 L418.94 583.73 L416.68 584.36 L413.38 585.97 L415.00 582.68 L413.04 582.92 L409.40 584.67 L410.70 581.80 L410.26 580.56 L405.99 582.72 L407.75 579.55 L407.00 578.58 L405.46 578.28 L406.05 576.22 L403.53 576.68 L399.15 578.53 L399.74 576.47 L396.77 577.11 L395.41 576.51 L396.94 573.82 L397.27 572.04 L396.14 571.30 L398.06 568.49 L396.82 567.84 L397.33 566.04 L397.56 564.45 L393.61 565.46 L393.32 564.18 L394.05 562.30 L389.84 563.31 L389.00 562.32 L391.21 559.66 L387.85 560.05 L386.64 559.24 L388.24 556.99 L386.45 556.48 L385.79 555.40 L386.31 553.74 L381.53 554.56 L379.92 553.85 L380.09 552.34 L376.55 552.42 L376.81 550.87 L379.76 548.25 L378.45 547.37 L379.88 545.43 L381.13 543.61 L379.68 542.78 L381.61 540.76 L379.22 540.24 L375.62 540.06 L378.68 537.74 L376.48 537.07 L372.60 536.85 L375.12 534.78 L375.10 533.44 L370.27 533.35 L373.53 531.16 L372.95 529.96 L371.79 528.89 L373.38 527.20 L370.67 526.43 L365.81 526.03 L367.61 524.31 L364.45 523.49 L363.29 522.29 L365.75 520.51 L366.41 519.04 L365.57 517.79 L369.60 515.93 L367.63 514.83 L366.58 513.60 L369.48 511.99 L366.35 510.93 L365.04 509.68 L368.21 508.13 L365.02 506.97 L365.21 505.61 L367.44 504.19 L363.67 502.94 L363.36 501.58 L365.65 500.21 L364.29 498.86 L364.67 497.51 L365.67 496.18 L361.01 494.66 L360.15 493.22 L360.81 491.86 L357.75 490.25 L358.82 488.91 L362.36 487.80 L361.58 486.33 L363.94 485.19 L365.74 484.03 L364.99 482.57 L367.64 481.56 L365.38 479.87 L362.68 478.06 L366.29 477.27 L364.63 475.59 L361.40 473.57 L364.75 472.81 L364.97 471.44 L361.04 469.16 L364.93 468.60 L364.96 467.18 L364.25 465.57 L366.47 464.71 L364.30 462.68 L360.54 460.14 L362.69 459.26 L360.12 456.97 L360.18 455.46 L363.51 455.01 L365.10 454.03 L364.99 452.48 L368.68 452.30 L368.04 450.57 L370.38 449.96 L371.50 448.91 L368.34 446.13 L369.90 445.24 L371.53 444.40 L367.85 441.24 L368.71 440.04 L372.01 439.99 L369.28 437.11 L370.18 435.94 L372.64 435.56 L371.95 433.60 L373.10 432.57 L374.41 431.65 L370.88 428.04 L371.03 426.43 L372.05 425.30 L370.31 422.54 L371.99 421.80 L375.59 422.28 L375.55 420.51 L378.41 420.62 L380.28 420.12 L380.69 418.65 L383.45 418.82 L382.22 416.20 L380.69 413.30 L384.42 414.23 L383.55 411.76 L381.77 408.54 L385.25 409.39 L385.92 408.05 L383.72 404.34 L387.57 405.61 L388.35 404.34 L388.34 402.38 L390.79 402.58 L390.08 399.96 L388.14 396.13 L390.56 396.32 L389.62 393.31 L390.55 392.07 L393.80 393.16 L395.66 392.91 L396.84 391.98 L400.73 393.95 L401.76 392.93 L404.53 393.84 L406.61 394.04 L407.68 393.11 L409.81 393.44 L409.38 390.73 L408.82 387.79 L411.17 388.42 L411.94 387.10 L411.36 383.98 L411.58 381.84 L414.57 383.42 L416.13 383.11 L416.03 380.47 L416.49 378.56 L418.20 378.46 L420.17 378.78 L420.15 376.08 L420.79 374.32 L421.90 373.29 L423.35 372.83 L423.37 369.92 L424.11 368.18 L425.24 367.10 L426.84 366.84 L428.73 367.15 L429.31 365.01 L430.71 364.40 L433.92 367.42 L434.69 365.63 L435.21 363.22 L437.52 364.62 L439.39 365.14 L439.71 362.19 L441.09 361.60 L442.03 359.93 L444.30 361.51 L445.79 361.23 L446.63 359.24 L447.29 356.66 L449.25 357.63 L450.85 357.62 L451.73 355.49 L453.18 355.02 L454.27 353.40 L456.36 355.02 L457.81 354.58 L458.84 352.66 L460.32 352.26 L462.35 354.00 L463.85 353.79 L465.24 353.13 L466.43 351.54 L467.62 349.83 L469.53 351.50 L470.87 350.45 L471.84 347.31 L473.13 345.68 L475.13 348.20 L476.74 348.57 L477.92 345.97 L479.32 344.70 L481.04 345.83 L482.71 346.82 L484.03 344.55 L485.49 343.44 L487.04 343.01 L488.61 342.87 L490.02 340.31 L491.56 339.13 L493.15 338.56 L494.79 339.13 L496.44 340.87 L498.03 341.08 L499.63 343.29 L501.18 344.54 L502.80 341.00 L504.33 343.09 L505.84 344.85 L507.52 342.25 L509.25 339.65 L510.71 341.85 L512.16 343.67 L513.96 341.11 L515.66 340.03 L517.35 339.41 L518.72 341.57 L520.31 341.69 L522.22 339.53 L523.97 338.76 L525.39 340.25 L527.25 338.93 L529.39 336.26 L530.75 338.00 L532.14 339.48 L533.56 340.70 L535.07 341.37 L536.17 343.84 L537.32 345.90 L539.73 342.84 L541.34 343.09 L542.33 345.60 L544.17 345.00 L546.48 342.86 L548.30 342.54 L548.91 346.06 L550.53 346.28 L552.71 344.89 L554.62 344.40 L556.03 345.35 L557.12 347.15 L559.28 346.06 L561.55 344.83 L562.98 345.73 L564.41 346.65 L567.01 344.82 L568.86 344.82 L570.51 345.28 L571.92 346.28 L572.95 348.06 L575.30 347.09 L576.56 348.38 L576.12 352.93 L578.32 352.31 L580.66 351.52 L580.95 354.47 L581.86 356.23 L584.72 354.61 L586.02 355.72 L588.04 355.64 L588.35 358.33 L589.37 359.83 L591.82 359.13 L594.73 357.78 L595.12 360.25 L596.02 361.92 L598.63 361.15 L600.20 361.88 L601.71 362.71 L601.63 365.64 L603.31 366.23 L605.41 366.29 L606.79 367.29 L606.64 370.16 L607.97 371.19 L609.30 372.23 L611.61 372.13 L613.64 372.41 L613.53 375.06 L615.67 375.24 L618.84 374.36 L620.50 375.13 L619.66 378.46 L621.04 379.50 L623.56 379.42 L625.66 379.80 L626.22 381.66 L626.56 383.70 L629.44 383.42 L631.64 383.80 L632.83 385.09 L633.81 386.57 L637.00 386.20 L638.76 387.06 L639.96 388.39 L640.62 390.14 L639.97 392.89 L640.53 394.67 L639.76 397.41 L640.04 399.35 L643.86 398.77 L643.27 401.31 L643.02 403.58 L646.01 403.67 L649.48 403.51 L648.17 406.45 L647.79 408.74 L651.52 408.52 L652.95 409.73 L654.48 410.89 L653.90 413.27 L655.16 414.59 L658.02 415.06 L660.48 415.80 L659.94 418.11 L661.69 419.25 L664.42 419.93 L663.36 422.46 L662.48 424.85 L661.73 427.16 L661.44 429.22 L661.53 431.10 L660.70 433.34 L664.77 433.58 L666.90 434.65 L665.59 437.07 L667.54 438.24 L670.98 438.91 L671.93 440.50 L669.82 443.12 L670.36 444.83 L673.06 445.86 L675.12 447.13 L674.04 449.35 L673.45 451.40 L676.69 452.39 L677.96 453.96 L678.08 455.82 L678.84 457.52 L681.91 458.71 L682.95 460.39 L684.13 462.06 L683.70 464.06 L682.79 466.14 L685.24 467.59 L684.09 469.69 L680.48 472.14 L682.68 473.66 L684.32 475.30 L681.84 477.49 L681.45 479.37 L684.58 480.89 L684.40 482.77 L685.12 484.56 L683.34 486.56 L683.33 488.40 L684.91 490.16 L687.58 491.89 L685.70 493.84 L685.27 495.70 L687.37 497.53 L687.71 499.40 L687.87 501.28 L685.84 503.13 L686.66 505.01 L687.44 506.90 L687.60 508.79 L684.85 510.51 L684.71 512.36 L684.60 514.21 L686.31 516.22 L687.00 518.16 L684.74 519.81 L686.36 521.87 L689.05 524.10 L688.81 525.99 L686.01 527.51 L685.79 529.38 L687.45 531.56 L688.59 533.70 L686.40 535.23 L684.95 536.88 L687.45 539.33 L687.71 541.35 L687.39 543.25 L687.11 545.16 L689.52 547.75 L689.23 549.69 L689.49 551.79 L688.20 553.47 L685.30 554.65 L684.51 556.43 L681.47 557.49 L680.32 559.12 L682.73 561.94 L680.21 563.10 L678.48 564.51 L680.18 567.16 L682.37 570.07 L679.02 570.84 L676.87 572.05 L679.57 575.25 L679.40 577.29 L678.65 579.10 L676.30 580.18 L675.89 582.12 L676.90 584.76 L677.06 587.02 L674.79 588.09 L675.44 590.62 L676.04 593.18 L673.44 594.03 L671.22 595.06 L668.79 595.93 L666.85 597.05 L665.41 598.44 L663.39 599.46 L665.86 603.25 L665.99 605.65 L663.19 606.18 L663.62 608.80 L665.61 612.53 L664.27 614.03 L660.37 613.72 L660.04 615.91 L660.38 618.62 L660.17 620.96 L658.09 621.89 L655.93 622.73 L656.87 626.03 L656.98 628.72 L655.47 630.11 L653.67 631.24 L655.51 635.52 L654.23 637.14 L652.72 638.56 L651.51 640.25 L648.98 640.69 L649.24 643.80 L646.82 644.32 L642.31 642.71 L642.30 645.59 L642.10 648.32 L638.01 646.97 L635.76 647.50 L636.88 651.73 L634.72 652.38 L633.41 653.96 L630.80 654.04 L628.99 655.03 L628.76 657.93 L629.32 661.91 L625.85 660.83 L623.75 661.45 L623.83 664.94 L622.21 666.22 L620.54 667.43 L617.46 666.65 L616.30 668.55 L615.47 670.98 L613.69 672.03 L610.28 670.56 L608.56 671.64 L606.79 672.63 L606.40 675.92 L604.73 677.13 L602.00 676.51 L601.34 679.48 L601.13 683.37 L598.98 683.81 L595.53 681.72 L594.20 683.64 L593.04 685.93 L591.74 688.00 L589.37 687.89 L587.06 687.84 L586.31 691.22 L585.17 693.85 L582.99 694.12 L580.91 694.63 L580.52 699.30 L578.50 700.03 L576.44 700.65 L574.40 701.32 L571.38 699.25 L569.18 699.36 L566.37 697.62 L564.19 697.66 L563.06 701.01 L560.46 699.72 L558.11 699.11 L556.95 702.64 L555.88 706.76 L552.70 703.00 L550.41 702.50 L549.35 707.04 L547.25 707.43 L545.18 707.90 L542.84 707.11 L540.94 708.39 L539.31 711.23 L537.57 713.76 L534.99 711.47 L533.22 714.05 L531.41 716.66 L529.02 715.33 L526.81 715.16 L524.22 711.53 L521.87 709.57 L519.75 709.55 L517.55 708.47 L515.41 707.85 L513.42 709.48 L511.40 710.93 L509.50 715.84 L507.38 717.13 L505.17 715.66 L503.06 719.07 L500.88 719.96 L498.68 719.32 L496.51 717.93 L494.32 718.39 L492.07 720.11 L489.76 722.38 L487.65 720.22 L485.44 720.20 L483.24 720.08 L481.21 717.96 L479.09 717.05 L476.84 717.66 L475.02 714.30 L473.06 712.63 L470.76 713.61 L468.69 712.92 L466.91 710.36 L464.62 711.14 L462.24 712.32 L459.66 714.33 L456.51 719.02 L454.88 715.91 L452.41 716.85 L449.63 719.06 L447.47 718.42 L445.75 716.03 L443.86 714.48 L441.14 716.02 L438.48 717.21 L436.46 716.07 L434.47 714.85 L431.95 715.40 L430.44 712.74 L428.79 710.63 L426.37 710.82 L424.90 708.31 L423.75 705.05 L421.23 705.52 L419.32 704.34 L417.95 701.89 L416.09 700.68 L413.56 701.08 L411.05 701.34 L406.63 705.75 L404.36 705.27 L403.07 702.71 L399.26 705.37 L397.13 704.52 L395.54 702.62 L394.28 700.12 L391.90 699.76 L389.05 700.22 L386.01 700.94 L384.94 698.18 L382.91 697.11 L380.94 695.93 L380.01 693.09 L378.48 691.26 L376.21 690.60 L375.91 686.94 L374.80 684.58 L372.37 684.17 L370.92 682.33 L370.26 679.43 L367.85 678.98 L365.17 678.83 L361.57 679.83 L356.82 682.21 L356.68 678.68 L353.89 678.48 L350.37 679.09 L348.72 677.42 L348.23 674.44 L347.12 672.20 L344.01 672.21 L341.01 672.03 L339.88 669.82 L338.62 667.76 L336.05 667.06 L336.04 663.76 L335.53 661.01 L333.40 659.86 L333.32 656.77 L333.54 653.46 L330.89 652.80 L329.48 651.00 L329.19 648.24 L327.96 646.31 L325.42 645.49 L323.15 644.41 L317.41 646.08 L315.81 644.37 L315.51 641.64 L311.54 641.72 L309.50 640.29 L309.19 637.60 L309.00 634.86 L306.67 633.62 L304.04 632.57 L301.08 631.69 L301.05 628.87 L299.58 626.99 L298.46 624.90 L298.79 621.92 L297.98 619.67 L296.47 617.83 L297.86 614.34 L297.64 611.81 L295.57 610.30 L295.01 607.97 L295.52 605.10 L293.64 603.47 L291.04 602.17 L287.55 601.26 L282.51 601.00 L283.94 597.73 L281.42 596.25 L278.51 594.89 L277.55 592.69 L278.61 589.66 L278.26 587.22 L275.64 585.67 L273.00 584.09 L272.54 581.69 L272.40 579.18 L270.22 577.37 L271.83 574.29 L272.40 571.60 L270.56 569.66 L272.12 566.71 L273.87 563.75 L271.52 561.95 L271.43 559.53 L272.64 556.79 L272.08 554.52 L270.13 552.56 L268.27 550.55 L261.95 549.44 L261.82 546.99 L262.68 544.36 L258.67 542.61 L258.08 540.23 L259.00 537.60 L260.04 534.99 L258.46 532.75 L256.74 530.51 L254.67 528.28 L255.32 525.73 L255.16 523.28 L255.47 520.78 L256.85 518.22 L256.94 515.77 L257.02 513.32 L259.85 510.76 L260.33 508.34 L259.29 505.97 L259.85 503.55 L261.53 501.14 L260.48 498.75 L258.72 496.33 L255.92 493.84 L251.68 491.25 L254.65 488.90 L252.79 486.33 L251.06 483.74 L251.31 481.26 L253.75 478.96 L254.33 476.54 L252.71 473.88 L250.82 471.16 L251.83 468.76 L252.49 466.33 L251.53 463.66 L254.38 461.57 L257.19 459.51 L258.76 457.29 L261.97 455.40 L263.71 453.27 L262.97 450.66 L263.29 448.25 L263.20 445.75 L260.80 442.67 L262.78 440.63 L260.95 437.63 L261.88 435.32 L265.04 433.65 L265.11 431.13 L266.26 428.92 L267.70 426.81 L268.06 424.37 L267.59 421.63 L268.42 419.33 L269.79 417.21 L269.37 414.45 L270.67 412.31 L270.98 409.79 L270.84 407.08 L272.27 405.00 L273.25 402.73 L273.41 400.11 L275.88 398.51 L276.86 396.25 L276.22 393.22 L279.18 391.91 L279.29 389.21 L280.08 386.84 L282.14 385.13 L282.19 382.36 L282.71 379.82 L285.58 378.59 L285.03 375.42 L286.76 373.56 L288.63 371.80 L288.23 368.64 L288.91 366.11 L291.76 364.98 L291.24 361.66 L293.58 360.22 L296.11 358.94 L296.32 356.05 L297.48 353.82 L299.46 352.17 L299.05 348.75 L301.96 347.81 L303.51 345.85 L304.02 343.06 L305.56 341.08 L306.73 338.78 L305.81 334.69 L308.80 333.92 L308.48 330.25 L310.03 328.20 L313.56 327.97 L315.53 326.34 L316.99 324.23 L319.22 322.86 L321.36 321.42 L322.01 318.48 L324.24 317.13 L326.56 315.89 L327.17 312.82 L329.57 311.68 L331.47 309.99 L332.20 306.96 L334.64 305.89 L336.46 304.08 L337.86 301.77 L340.86 301.41 L342.60 299.51 L343.57 296.58 L346.86 296.69 L348.31 294.37 L350.11 292.50 L352.95 292.09 L354.08 289.25 L355.50 286.77 L358.96 287.32 L359.95 284.15 L362.09 282.73 L364.91 282.39 L366.30 279.75 L368.12 277.76 L371.43 278.32 L372.41 274.86 L374.87 273.95 L377.71 273.78 L379.17 271.03 L381.01 268.95 L383.97 269.06 L385.36 266.02 L388.56 266.68 L391.24 266.31 L392.91 263.74 L395.30 262.72 L397.21 260.61 L398.51 256.96 L401.55 257.44 L402.91 253.76 L405.65 253.51 L409.01 254.98 L411.10 253.07 L413.83 252.92 L416.46 252.54 L418.79 251.25 L420.90 249.25 L423.59 249.06 L426.08 248.22 L428.36 246.66 L430.96 246.18 L433.31 244.77 L435.67 243.34 L438.44 243.52 L440.92 242.56 L443.42 241.63 L446.36 242.76 L448.81 241.63 L451.11 239.59 L454.10 241.26 L456.43 239.27 L459.02 238.73 L461.75 239.11 L464.24 237.87 L466.76 236.66 L469.59 238.07 L472.01 235.84 L474.71 236.18 L477.40 236.52 L479.90 234.49 L482.50 233.50 L485.29 235.60 L487.82 232.87 L490.52 233.55 L493.22 234.90 L495.84 233.16 L498.51 233.01 L501.18 233.30 L503.88 231.28 L506.52 233.09 L509.20 233.01 L511.92 231.82 L514.59 232.17 L517.34 231.26 L520.25 228.38 L522.81 230.51 L525.77 227.93 L528.49 228.17 L530.92 230.96 L533.57 231.57 L536.32 231.45 L538.93 232.29 L541.53 233.23 L544.47 231.98 L547.00 233.27 L549.58 234.23 L552.51 233.35 L555.10 234.22 L557.81 234.54 L560.83 233.52 L563.25 235.17 L566.08 235.04 L568.83 235.33 L571.07 237.53 L573.78 237.91 L576.94 236.82 L578.77 240.24 L581.77 239.73 L584.46 240.29 L586.55 242.65 L589.77 241.66 L592.82 241.25 L594.54 244.51 L597.85 243.50 L600.44 244.40 L602.49 246.67 L605.68 246.12 L608.59 246.30 L610.17 249.56 L613.70 248.39 L616.00 249.99 L618.07 252.05 L621.25 251.80 L624.22 252.05 L625.93 254.79 L629.26 254.37 L630.95 257.08 L633.09 258.93 L636.16 259.08 L638.63 260.34 L641.24 261.36 L644.69 261.03 L646.62 263.22 L650.07 262.97 L652.04 265.10 L653.55 267.88 L655.88 269.41 L657.79 271.54 L659.57 273.83 L661.91 275.32 L664.82 276.03 L666.65 278.23 L669.09 279.61 L671.79 280.67 L673.99 282.37 L676.82 283.31 L679.57 284.38 L681.48 286.46 L684.05 287.78 L686.36 289.41 L687.57 292.26 L689.92 293.85 L693.15 294.49 L693.53 298.18 L696.35 299.30 L698.30 301.32 L700.35 303.24 L702.70 304.87 L704.93 306.63 L706.26 309.24 L709.22 310.35 L710.48 313.00 L711.58 315.79 L714.53 316.95 L716.85 318.69 L717.58 321.75 L720.70 322.85 L721.81 325.57 L723.53 327.81 L726.03 329.46 L727.85 331.64 L729.72 333.78 L732.70 335.15 L733.10 338.34 L734.91 340.53 L737.74 342.07 L739.36 344.42 L741.27 346.59 L744.47 347.97 L745.57 350.66 L748.58 352.22 L749.43 355.07 L749.92 358.11 L751.00 360.79 L751.99 363.52 L752.46 366.51 L753.75 369.06 L756.08 371.09 L756.61 374.02 L758.01 376.52 L759.95 378.77 L761.34 381.29 L763.41 383.51 L765.63 385.69 L766.61 388.42 L768.15 390.91 L769.71 393.41 L769.25 396.69 L770.67 399.24 L773.60 401.25 L772.04 404.88 L774.24 407.18 L775.41 409.84 L775.65 412.80 L777.47 415.27 L778.84 417.89 L778.35 421.05 L780.67 423.42 L781.00 426.34 L780.57 429.44 L782.50 431.95 L783.63 434.68 L782.76 437.85 L785.31 440.27 L785.55 443.19 L786.04 446.06 L787.46 448.77 L789.53 451.38 L792.44 453.89 L796.29 456.32 L794.59 459.58 L796.98 462.27 L797.14 465.26 L794.66 468.54 L794.45 471.54 L795.37 474.43 L792.54 477.62 L793.85 480.47 L795.37 483.33 L793.75 486.37 L796.82 489.20 L800.12 492.08 L798.34 495.12 L802.39 498.07 L801.11 501.09 L798.06 504.06 L800.02 507.09 L798.07 510.03 L795.45 512.90 L797.40 515.96 L797.46 518.95 L796.34 521.86 L800.13 525.16 L800.90 528.26 L799.24 531.12 L803.35 534.62 L799.23 537.18 L796.11 539.81 L798.00 543.10 L795.03 545.69 L793.37 548.44 L795.73 551.87 L793.79 554.56 L793.31 557.51 L798.16 561.57 L796.31 564.28 L796.05 567.33 L798.98 571.15 L794.60 573.23 L792.62 575.85 L794.48 579.48 L789.27 581.19 L788.41 584.07 L789.78 587.62 L787.28 590.01 L787.77 593.33 L791.96 597.93 L789.58 600.37 L789.67 603.65 L789.58 606.90 L785.83 608.77 L783.39 611.10 L782.17 613.89 L778.75 615.77 L778.28 618.85 L778.24 622.14 L776.60 624.73 L777.51 628.49 L779.26 632.71 L776.39 634.75 L778.25 639.12 L775.85 641.39 L771.51 642.61 L771.37 646.01 L768.39 647.89 L765.10 649.55 L765.09 653.06 L763.86 655.89 L761.65 658.13 L763.92 663.13 L762.73 666.05 L759.76 667.83 L761.96 672.99 L757.36 673.67 L753.20 674.58 L753.80 678.76 L749.91 679.79 L747.13 681.57 L747.87 685.95 L744.44 687.23 L742.48 689.60 L744.99 695.55 L741.75 696.95 L740.15 699.68 L740.81 704.33 L735.80 704.17 L732.48 705.40 L732.44 709.54 L727.38 709.14 L725.13 711.26 L724.30 714.74 L721.57 716.42 L720.81 720.03 L722.42 726.12 L719.05 727.19 L719.69 732.46 L718.88 736.29 L714.29 736.03 L712.34 738.63 L709.95 740.75 L707.66 742.99 L705.46 745.33 L702.42 746.68 L701.02 750.03 L699.09 752.76 L695.23 753.03 L691.99 754.04 L690.80 757.78 L686.34 757.10 L682.06 756.55 L679.16 757.89 L675.76 758.48 L673.09 760.11 L670.24 761.45 L668.62 764.72 L667.19 768.36 L667.21 774.47 L664.63 776.43 L662.38 778.95 L662.78 786.17 L658.44 785.14 L654.30 784.36 L651.69 786.34 L648.26 786.76 L645.72 788.89 L642.74 790.17 L639.85 791.63 L637.76 794.79 L635.30 797.23 L631.29 796.26 L628.52 798.01 L624.97 797.93 L620.96 796.65 L617.29 796.10 L613.86 796.04 L610.71 796.66 L607.70 797.67 L604.78 798.89 L602.51 802.07 L600.58 806.42 L598.65 811.01 L595.23 810.98 L593.43 816.35 L590.76 819.03 L586.66 816.61 L583.49 817.48 L580.10 817.46 L576.76 817.55 L573.88 819.62 L570.48 819.44 L567.46 820.97 L564.93 825.05 L561.25 823.42 L557.85 823.08 L554.83 824.95 L551.04 822.05 L547.38 819.61 L544.08 819.33 L540.62 817.74 L537.42 817.91 L534.29 818.76 L531.25 820.59 L528.22 822.90 L525.47 829.39 L522.17 829.60 L518.95 831.14 L515.95 837.90 L512.45 834.85 L509.03 832.27 L505.72 833.46 L502.39 833.38 L499.05 834.04 L495.73 832.68 L492.36 834.34 L488.98 835.57 L485.65 834.86 L482.41 832.68 L479.06 832.87 L475.88 830.61 L472.80 827.67 L469.70 825.41 L466.62 823.50 L463.49 822.22 L460.32 821.42 L457.00 821.82 L453.51 823.28 L449.83 825.71 L445.87 829.49 L442.64 828.57 L438.58 832.18 L434.98 832.98 L432.17 829.82 L428.98 828.66 L425.60 828.32 L422.50 826.80 L419.62 824.48 L416.88 821.72 L413.50 821.48 L410.31 820.53 L408.04 816.42 L404.82 815.68 L400.15 819.57 L397.28 817.57 L394.71 814.74 L390.90 815.59 L387.59 814.93 L384.53 813.57 L381.87 811.15 L378.76 809.99 L374.73 811.07 L370.23 813.17 L367.72 810.43 L363.99 810.53 L358.63 814.17 L356.34 810.92 L354.03 807.79 L351.00 806.24 L348.27 804.08 L345.71 801.62 L343.41 798.71 L340.89 796.28 L337.16 796.08 L334.57 793.79 L333.15 789.51 L328.46 790.88 L324.52 790.88 L322.96 786.93 L320.27 784.88 L316.39 784.68 L313.04 783.61 L310.62 781.12 L308.74 777.88 L304.24 778.41 L299.22 779.56 L296.08 778.02 L294.03 775.01 L288.73 776.29 L285.14 775.23 L284.14 770.89 L282.51 767.40 L280.08 764.92 L278.13 761.90 L275.81 759.34 L274.81 755.29 L272.21 753.09 L268.48 752.12 L268.69 746.89 L266.20 744.60 L260.13 745.98 L258.35 742.90 L257.26 739.16 L253.77 737.79 L251.16 735.55 L249.06 732.82 L247.54 729.57 L245.39 726.93 L241.20 726.05 L235.63 726.30 L235.42 721.93 L232.12 720.18 L224.89 721.54 L224.80 717.12 L224.20 713.15 L221.16 711.08 L218.68 708.57 L217.74 704.92 L217.40 700.88 L215.44 698.02 L212.90 695.56 L212.35 691.75 L212.93 687.24 L207.93 686.37 L204.72 684.29 L205.07 680.00 L203.47 676.93 L200.50 674.66 L198.75 671.67 L198.65 667.76 L197.02 664.72 L194.75 662.02 L192.88 659.10 L191.99 655.67 L191.15 652.23 L189.29 649.31 L186.68 646.73 L186.15 643.17 L184.16 640.28 L181.46 637.68 L179.83 634.60 L178.51 631.39 L177.79 627.93 L176.35 624.77 L176.08 621.17 L175.01 617.88 L173.61 614.71 L171.53 611.76 L169.01 608.94 L169.65 605.08 L167.61 602.08 L166.27 598.85 L165.27 595.51 L164.52 592.11 L162.81 588.96 L162.28 585.50 L161.09 582.21 L159.91 578.90 L160.23 575.25 L158.58 572.05 L156.70 568.86 L158.33 564.99 L157.03 561.69 L156.36 558.27 L156.01 554.79 L155.44 551.36 L154.19 548.01 L153.97 544.52 L152.35 541.20 L152.29 537.69 L151.55 534.24 L149.45 530.92 L149.73 527.36 L150.47 523.79 L148.39 520.40 L149.17 516.84 L149.53 513.31 L148.09 509.84 L147.91 506.33 L147.04 502.81 L146.31 499.28 L147.17 495.75 L146.61 492.21 L145.49 488.64 L146.99 485.15 L146.44 481.59 L145.71 477.99 L146.02 474.46 L145.28 470.83 L146.54 467.38 L147.24 463.88 L146.99 460.28 L147.67 456.79 L148.06 453.26 L147.82 449.64 L146.93 445.90 L149.19 442.65 L148.94 439.00 L150.48 435.66 L151.01 432.14 L150.99 428.51 L151.52 424.98 L152.76 421.61 L151.94 417.76 L152.38 414.18 L154.64 411.06 L154.66 407.38 L154.19 403.54 L157.86 400.86 L157.92 397.16 L158.32 393.54 L160.27 390.41 L160.99 386.89 L161.26 383.20 L162.97 380.01 L163.01 376.21 L164.39 372.89 L166.12 369.72 L165.38 365.56 L167.57 362.56 L169.81 359.61 L169.39 355.50 L172.19 352.81 L174.22 349.79 L174.02 345.73 L174.83 342.11 L174.29 337.80 L174.46 333.80 L175.72 330.34 L173.76 325.14 L176.29 322.30 L178.33 319.21 L179.17 315.44 L181.17 312.32 L184.35 309.92 L182.97 304.74 L186.26 302.41 L188.66 299.55 L189.70 295.80 L191.44 292.49 L193.95 289.71 L194.47 285.54 L197.19 282.89 L200.60 280.77 L201.45 276.77 L204.51 274.42 L207.55 272.07 L209.20 268.65 L212.21 266.31 L214.54 263.42 L215.03 258.98 L218.21 256.80 L220.39 253.76 L221.27 249.54 L224.01 246.97 L227.36 244.97 L228.99 241.36 L232.59 239.64 L234.65 236.43 L236.74 233.22 L239.32 230.50 L242.06 227.93 L243.99 224.51 L247.18 222.43 L250.02 219.97 L252.08 216.62 L254.91 214.14 L258.33 212.35 L260.29 208.83 L264.16 207.61 L266.96 205.10 L270.03 202.93 L272.38 199.81 L274.65 196.55 L277.31 193.77 L281.02 192.46 L283.20 188.98 L286.28 186.78 L290.00 185.52 L292.20 181.97 L295.47 180.03 L299.49 179.30 L301.36 175.10 L305.57 174.72 L309.13 173.31 L311.51 169.85 L314.99 168.28 L318.68 167.12 L320.65 162.75 L324.32 161.52 L328.54 161.42 L331.12 158.07 L335.15 157.66 L338.94 156.79 L342.21 154.82 L345.97 153.93 L349.44 152.41 L351.82 148.32 L355.67 147.64 L358.98 145.66 L361.55 141.73 L365.07 140.18 L369.43 140.93 L372.57 138.33 L376.72 138.63 L380.38 137.54 L383.90 135.99 L387.45 134.56 L391.13 133.53 L394.33 130.79 L398.17 130.28 L401.85 129.21 L405.21 126.84 L409.01 126.19 L412.99 126.29 L416.42 124.05 L420.48 124.61 L424.17 123.54 L427.98 122.97 L431.41 120.40 L434.82 117.42 L438.22 114.15 L442.19 114.28 L445.55 110.10 L449.58 110.58 L453.45 109.85 L457.34 109.30 L461.46 111.03 L465.19 108.81 L469.13 108.85 L473.18 110.52 L476.88 106.98 L480.80 106.63 L484.80 108.01 L488.65 105.50 L492.58 104.67 L496.55 106.27 L500.49 104.41 L504.43 105.69 L508.35 106.88 L512.37 104.21 L516.24 106.36 L520.17 106.66 L524.31 103.48 L528.24 104.21 L532.08 105.95 L536.37 102.49 L540.16 104.66 L543.94 106.62 L548.20 104.42 L551.77 107.76 L555.61 108.91 L560.01 106.22 L563.45 109.90 L567.53 109.53 L571.90 107.65 L575.62 109.41 L579.32 111.20 L584.04 108.08 L587.57 110.69 L591.33 112.10 L595.56 111.58 L599.04 114.13 L602.82 115.43 L607.20 114.52 L610.22 118.49 L614.58 117.75 L619.06 116.79 L622.75 118.43 L626.61 119.53 L631.30 118.21 L634.39 121.58 L638.06 123.25 L641.95 124.28 L644.84 127.94 L649.23 127.72 L652.97 129.18 L656.00 132.30 L660.84 131.19 L665.00 131.75 L667.71 135.51 L672.15 135.49 L676.79 135.18 L679.32 139.19 L683.20 140.46 L686.82 142.23 L689.58 145.64 L693.76 146.36 L696.76 149.26 L700.08 151.56 L705.27 150.66 L709.00 152.31 L711.44 156.10 L717.02 154.80 L720.09 157.56 L722.39 161.48 L726.79 162.18 L729.09 166.03 L731.64 169.45 L736.59 169.47 L738.06 174.34 L742.00 175.81 L747.00 175.92 L749.65 179.16 L752.15 182.54 L757.74 182.08 L759.72 186.11 L762.51 189.12 L766.68 190.51 L768.43 194.72 L771.42 197.47 L775.98 198.50 L776.77 203.65 L781.27 204.80 L786.64 205.13 L790.21 207.36 L794.08 209.34 L798.59 210.73 L801.61 213.59 L802.94 218.04 L804.54 222.18 L806.73 225.74 L810.40 228.01 L811.63 232.39 L814.14 235.64 L819.00 236.95 L822.90 239.12 L825.59 242.28 L829.22 244.72 L832.72 247.30 L834.96 250.84 L835.51 255.60 L837.10 259.56 L838.94 263.33 L842.09 266.19 L842.65 270.80 L846.03 273.51 L850.02 275.87 L853.97 278.30 L855.86 282.04 L859.33 284.83 L862.35 287.91 L864.06 291.77 L863.74 296.75 L865.14 300.73 L866.99 304.46 L869.28 307.96 L869.41 312.56 L873.53 315.14 L876.36 318.40 L879.81 321.40 L881.86 325.08 L884.77 328.38 L887.06 331.97 L888.00 336.16 L887.35 340.98 L888.59 344.99 L890.31 348.81 L891.32 352.91 L891.41 357.32 L895.96 360.13 L897.82 363.93 L900.40 367.51 L902.78 371.17 L905.42 374.79 L906.71 378.83 L905.85 383.49 L905.48 387.97 L905.89 392.22 L908.15 395.98 L907.17 400.55 L908.15 404.63 L911.89 408.09 L914.54 411.84 L915.30 416.01 L917.47 419.91 L919.34 423.88 L919.77 428.14 L918.09 432.72 L917.67 437.06 L917.72 441.32 L919.09 445.40 L917.62 449.83 L919.52 453.85 L921.85 457.86 L924.14 461.91 L924.29 466.17 L925.99 470.32 L927.07 474.54 L926.86 478.83 L924.20 483.21 L923.63 487.48 L923.61 491.71 L923.90 495.95 L960.56 500.00 L958.85 495.41 L958.32 490.83 L956.78 486.29 L957.27 481.70 L954.60 477.25 L954.42 472.70 L954.32 468.15 L954.53 463.56 L953.82 459.05 L954.05 454.44 L954.04 449.85 L954.14 445.24 L952.03 440.90 L950.85 436.47 L949.14 432.12 L948.67 427.59 L945.82 423.47 L944.83 419.05 L944.43 414.53 L944.28 409.94 L943.24 405.53 L942.71 401.00 L943.08 396.26 L941.37 391.99 L938.73 387.97 L937.10 383.72 L935.44 379.49 L933.69 375.29 L930.77 371.45 L929.62 367.10 L928.76 362.66 L928.23 358.09 L927.49 353.58 L925.30 349.55 L925.79 344.57 L922.50 340.97 L920.58 336.87 L917.16 333.38 L916.50 328.79 L912.55 325.58 L910.98 321.37 L909.35 317.20 L908.05 312.86 L906.28 308.73 L905.10 304.31 L903.06 300.31 L902.22 295.69 L898.68 292.44 L896.20 288.67 L892.86 285.38 L891.34 281.10 L887.04 278.40 L884.81 274.54 L882.86 270.50 L881.10 266.35 L878.48 262.71 L876.67 258.57 L874.82 254.43 L872.78 250.41 L868.94 247.59 L865.98 244.21 L862.62 241.13 L860.13 237.43 L855.83 235.07 L852.97 231.67 L850.68 227.84 L848.56 223.86 L845.74 220.42 L843.20 216.74 L841.48 212.38 L837.99 209.49 L834.01 207.05 L830.56 204.18 L827.40 201.06 L823.78 198.36 L819.66 196.18 L816.76 192.85 L814.23 189.14 L811.77 185.34 L809.10 181.74 L806.39 178.15 L804.21 173.97 L799.14 172.91 L797.03 168.63 L793.21 166.23 L789.74 163.45 L786.21 160.75 L782.79 157.92 L778.65 155.98 L775.58 152.72 L771.42 150.85 L767.97 148.08 L764.68 145.10 L761.37 142.12 L756.66 141.09 L753.58 137.80 L748.89 136.82 L745.16 134.48 L741.54 131.98 L737.13 130.69 L733.14 128.80 L730.11 125.35 L725.84 123.93 L722.05 121.72 L719.19 117.88 L715.27 115.87 L710.88 114.72 L707.91 110.95 L703.31 110.23 L699.24 108.53 L695.62 105.96 L691.02 105.37 L686.99 103.63 L683.25 101.28 L678.82 100.42 L674.84 98.59 L671.27 95.82 L666.66 95.48 L662.50 94.10 L658.07 93.42 L653.76 92.50 L649.85 90.51 L645.30 90.28 L640.83 89.93 L637.31 86.77 L633.13 85.54 L629.03 84.05 L624.97 82.44 L621.17 79.90 L616.28 81.14 L612.54 78.32 L608.11 78.01 L603.83 77.15 L599.56 76.31 L595.28 75.49 L590.82 75.57 L586.69 74.09 L582.21 74.36 L577.98 73.40 L573.81 72.06 L569.57 71.07 L565.02 72.08 L560.86 70.58 L556.31 71.96 L552.01 71.54 L547.72 71.02 L543.29 71.96 L538.97 71.97 L534.78 70.46 L530.42 71.02 L526.13 70.80 L521.93 68.60 L517.60 68.71 L513.26 69.58 L508.99 67.87 L504.65 69.36 L500.34 69.73 L496.03 69.05 L491.75 70.67 L487.46 70.74 L483.14 70.26 L478.89 71.29 L474.60 71.52 L470.25 70.80 L466.08 72.64 L461.81 73.03 L457.67 74.70 L453.46 75.55 L449.16 75.52 L445.08 77.33 L440.71 76.81 L436.15 75.26 L432.05 76.79 L427.31 74.49 L422.96 74.72 L418.30 73.38 L414.02 74.10 L410.02 76.17 L405.97 77.93 L401.26 76.77 L397.72 80.58 L393.21 80.39 L388.94 81.17 L385.13 83.64 L380.97 84.82 L376.67 85.50 L372.96 88.15 L368.64 88.80 L364.55 90.16 L360.71 92.28 L357.14 95.10 L352.68 95.41 L349.46 99.09 L345.24 100.04 L340.43 99.57 L336.61 101.61 L332.65 103.30 L328.12 103.68 L324.34 105.80 L320.57 107.94 L316.97 110.42 L313.55 113.22 L309.76 115.25 L305.91 117.16 L302.66 120.21 L299.00 122.45 L295.20 124.41 L291.57 126.68 L287.76 128.64 L284.44 131.43 L281.03 134.04 L278.37 137.87 L273.77 138.51 L271.43 142.77 L267.32 144.24 L264.11 147.09 L260.72 149.65 L256.31 150.74 L253.63 154.32 L250.57 157.33 L246.29 158.67 L243.76 162.37 L239.60 163.92 L236.12 166.38 L233.51 169.91 L230.70 173.18 L226.10 174.29 L224.63 179.11 L220.57 180.89 L217.20 183.49 L214.81 187.17 L211.84 190.19 L208.39 192.70 L206.16 196.48 L203.00 199.30 L199.93 202.21 L197.67 205.91 L195.75 209.91 L191.98 212.13 L190.67 216.65 L187.54 219.47 L182.94 221.03 L180.64 224.61 L177.83 227.76 L174.07 230.12 L171.72 233.67 L169.64 237.41 L167.30 240.94 L165.75 245.06 L163.10 248.33 L160.67 251.76 L159.35 255.98 L157.11 259.54 L154.69 262.95 L152.73 266.68 L149.84 269.79 L148.46 273.88 L146.50 277.59 L145.91 282.13 L141.85 284.54 L142.07 289.52 L138.96 292.52 L137.31 296.37 L135.24 299.98 L132.61 303.28 L128.11 305.64 L125.81 309.17 L122.34 312.14 L119.02 315.22 L116.52 318.72 L113.80 322.14 L112.86 326.37 L112.54 330.86 L109.38 334.11 L108.80 338.47 L107.54 342.52 L104.87 346.02 L103.89 350.18 L102.31 354.12 L100.19 357.85 L99.96 362.26 L97.87 366.03 L96.81 370.14 L96.45 374.46 L95.11 378.47 L93.98 382.55 L95.59 387.38 L92.77 390.97 L91.80 395.08 L92.40 399.56 L90.68 403.47 L89.75 407.57 L89.88 411.90 L88.83 415.97 L88.38 420.16 L87.57 424.27 L86.85 428.40 L85.68 432.46 L86.56 436.84 L84.83 440.82 L84.48 445.00 L83.98 449.16 L84.23 453.41 L85.32 457.73 L85.49 461.93 L86.35 466.17 L85.74 470.29 L85.78 474.45 L84.39 478.54 L83.38 482.66 L84.03 486.85 L82.59 490.99 L82.91 495.16 L83.59 499.34 L82.81 503.51 L83.53 507.67 L84.47 511.81 L83.42 516.01 L84.40 520.13 L86.27 524.19 L85.04 528.43 L86.58 532.48 L87.34 536.58 L86.44 540.83 L87.53 544.89 L87.81 549.04 L87.62 553.25 L89.88 557.13 L89.47 561.38 L90.38 565.43 L92.06 569.36 L92.49 573.48 L93.08 577.59 L96.76 581.07 L95.93 585.45 L96.88 589.47 L99.15 593.18 L99.54 597.32 L100.58 601.31 L102.55 605.05 L103.51 609.05 L104.82 612.95 L106.14 616.85 L107.30 620.79 L108.07 624.86 L110.93 628.25 L111.14 632.50 L112.83 636.26 L114.27 640.11 L116.18 643.77 L118.90 647.12 L120.75 650.78 L123.71 653.98 L124.75 657.95 L126.87 661.47 L127.21 665.76 L128.58 669.63 L130.96 673.02 L131.47 677.30 L133.73 680.74 L136.28 684.03 L140.59 686.39 L143.72 689.31 L144.38 693.54 L148.02 696.15 L152.52 698.22 L154.26 701.83 L154.52 706.34 L157.15 709.45 L162.46 710.87 L162.32 715.69 L161.21 721.19 L165.61 723.12 L169.24 725.51 L170.57 729.47 L174.40 731.67 L178.97 733.29 L182.43 735.66 L185.65 738.18 L188.55 740.92 L192.21 743.05 L195.93 745.09 L194.25 751.53 L195.71 755.47 L199.66 757.32 L200.88 761.51 L201.45 766.33 L204.75 768.73 L209.72 769.56 L212.40 772.48 L215.31 775.17 L216.64 779.42 L221.17 780.51 L225.39 781.85 L224.02 788.98 L226.92 791.73 L232.29 791.79 L234.90 794.80 L238.09 797.18 L243.09 797.46 L247.28 798.59 L251.14 800.06 L254.24 802.44 L257.97 804.00 L262.14 804.97 L264.47 808.29 L265.29 813.67 L268.69 815.66 L271.72 818.14 L273.69 822.16 L275.56 826.39 L279.90 827.04 L284.69 826.92 L287.87 829.22 L290.01 833.16 L293.74 834.62 L299.19 833.20 L300.82 838.10 L302.41 843.20 L307.32 842.54 L311.49 843.12 L314.44 845.90 L318.76 846.10 L323.43 845.56 L327.65 845.78 L331.46 846.79 L335.16 847.99 L339.33 848.15 L343.39 848.45 L344.77 854.82 L347.81 857.58 L352.02 857.56 L354.78 861.07 L357.50 864.82 L361.47 865.39 L366.08 864.17 L369.78 865.35 L373.51 866.44 L376.54 869.59 L381.09 868.18 L385.25 867.83 L387.24 874.61 L391.08 875.39 L395.70 873.37 L399.17 875.42 L403.10 875.73 L407.58 873.78 L411.55 873.74 L415.72 872.73 L419.57 872.98 L423.43 873.18 L427.52 872.09 L430.98 874.24 L434.13 878.29 L437.89 879.13 L441.13 883.29 L444.74 885.46 L448.34 887.94 L452.21 888.52 L456.27 887.42 L460.27 886.64 L464.39 884.38 L468.47 881.87 L472.56 878.37 L476.51 876.05 L480.27 876.23 L484.09 875.08 L487.85 874.99 L491.55 877.22 L495.32 877.35 L499.10 876.07 L502.87 876.69 L506.60 874.94 L510.34 874.34 L514.01 872.22 L517.64 870.17 L521.69 876.07 L525.56 877.45 L529.42 878.37 L533.63 882.82 L537.61 884.09 L541.56 884.71 L545.34 883.72 L549.02 882.04 L552.49 879.03 L556.03 876.80 L559.21 872.57 L562.12 867.14 L565.82 866.69 L569.46 865.89 L572.72 863.22 L576.54 863.38 L580.59 864.49 L584.00 862.66 L587.58 861.62 L591.05 860.18 L594.51 858.71 L597.88 856.99 L600.82 853.79 L604.95 854.78 L609.73 857.74 L613.24 856.44 L618.24 859.68 L622.57 860.64 L626.81 861.22 L630.49 860.14 L633.56 857.42 L636.50 854.44 L639.15 850.82 L641.52 846.63 L643.53 841.76 L646.07 838.29 L649.42 836.75 L652.09 833.72 L655.55 832.47 L659.67 832.56 L662.86 830.70 L665.61 827.97 L669.05 826.62 L671.59 823.55 L674.58 821.40 L676.79 817.84 L679.14 814.61 L685.40 818.16 L689.30 817.51 L693.28 816.95 L699.00 819.11 L703.02 818.40 L706.71 817.16 L709.52 814.54 L712.04 811.53 L713.60 807.17 L715.78 803.78 L716.79 798.83 L716.81 792.66 L720.04 790.88 L722.70 788.36 L724.35 784.57 L728.10 783.45 L731.96 782.42 L733.72 778.83 L736.82 776.85 L739.14 773.98 L741.07 770.68 L743.40 767.85 L744.42 763.63 L749.02 763.26 L754.18 763.39 L755.83 759.85 L762.86 761.70 L766.12 759.69 L766.39 754.81 L771.13 754.20 L773.28 751.13 L771.62 744.64 L774.97 742.72 L776.67 739.35 L776.24 734.18 L780.26 732.82 L783.28 730.57 L784.97 727.25 L791.71 727.89 L792.95 724.18 L793.14 719.71 L798.10 718.81 L798.35 714.43 L797.85 709.59 L800.04 706.67 L800.68 702.71 L800.01 697.92 L804.48 696.53 L806.02 693.22 L809.85 691.33 L815.34 690.39 L814.87 685.84 L816.58 682.60 L820.40 680.56 L818.98 675.58 L818.59 671.24 L820.69 668.25 L820.84 664.27 L820.12 659.88 L824.36 657.96 L825.17 654.35 L830.46 652.83 L833.92 650.40 L832.46 645.76 L835.43 643.08 L837.49 639.99 L834.74 634.94 L835.78 631.47 L836.30 627.81 L835.06 623.52 L836.61 620.28 L839.13 617.37 L838.56 613.39 L845.17 611.78 L846.55 608.41 L844.69 604.06 L848.92 601.54 L848.99 597.78 L844.69 592.87 L846.81 589.73 L846.83 586.05 L843.83 581.66 L846.94 578.74 L848.39 575.42 L849.04 571.91 L855.02 569.45 L854.03 565.59 L852.58 561.68 L856.37 558.68 L854.42 554.72 L852.04 550.75 L852.87 547.28 L851.61 543.53 L848.91 539.66 L852.17 536.47 L851.78 532.88 L854.70 529.57 L858.83 526.31 L856.38 522.55 L856.63 518.99 L859.01 515.51 L855.14 511.79 L853.11 508.19 L853.65 504.66 L851.73 501.12 L849.50 497.62 L852.31 494.08 L851.12 490.58 L855.16 486.92 L857.03 483.27 L853.71 479.88 L855.52 476.21 L855.70 472.62 L850.99 469.45 L850.64 465.95 L849.29 462.55 L846.17 459.38 L844.83 456.04 L846.49 452.30 L844.69 449.03 L848.29 444.93 L849.71 441.12 L850.44 437.38 L850.41 433.77 L848.69 430.47 L847.17 427.16 L847.49 423.46 L844.85 420.41 L844.74 416.80 L844.38 413.23 L842.33 410.10 L841.52 406.65 L841.28 403.04 L838.97 400.02 L838.73 396.40 L837.54 393.06 L835.62 389.96 L834.76 386.53 L833.45 383.24 L830.45 380.57 L830.87 376.66 L829.43 373.43 L826.76 370.69 L826.12 367.16 L824.23 364.13 L821.56 361.45 L821.04 357.86 L819.20 354.84 L817.77 351.63 L816.84 348.19 L814.72 345.32 L812.51 342.51 L811.57 339.06 L809.56 336.15 L807.36 333.36 L805.42 330.44 L803.48 327.52 L799.76 325.65 L797.23 323.11 L796.81 319.32 L793.53 317.27 L793.54 313.17 L791.54 310.32 L790.01 307.16 L788.90 303.70 L786.23 301.30 L783.46 298.99 L782.34 295.51 L779.16 293.53 L777.31 290.58 L775.61 287.50 L772.71 285.36 L769.92 283.15 L768.53 279.81 L764.83 278.38 L763.19 275.24 L761.32 272.28 L758.21 270.40 L755.91 267.82 L754.12 264.77 L750.71 263.23 L748.84 260.25 L746.39 257.80 L743.31 256.00 L741.05 253.38 L738.53 251.03 L734.62 250.16 L733.39 246.43 L730.76 244.20 L727.15 243.09 L725.03 240.29 L722.01 238.54 L718.59 237.29 L716.52 234.42 L713.75 232.40 L710.96 230.41 L708.76 227.64 L705.56 226.20 L702.41 224.70 L700.01 222.19 L696.89 220.67 L693.71 219.26 L690.85 217.40 L687.76 215.89 L683.69 215.91 L680.45 214.70 L678.34 211.71 L674.56 211.40 L672.81 207.74 L669.83 206.11 L667.03 204.17 L664.32 202.05 L660.96 201.10 L657.39 200.59 L654.82 198.20 L651.14 197.96 L648.51 195.65 L645.80 193.48 L642.09 193.41 L638.76 192.56 L636.30 189.78 L632.08 191.03 L629.44 188.64 L626.55 186.79 L622.83 187.01 L619.83 185.45 L616.90 183.67 L612.86 184.95 L610.37 181.91 L607.10 181.08 L603.56 181.08 L600.68 179.06 L597.40 178.28 L593.51 179.61 L590.81 176.88 L587.24 177.23 L583.60 177.93 L580.63 176.12 L577.12 176.44 L573.71 176.41 L570.76 174.36 L567.38 174.26 L564.14 173.53 L561.07 171.80 L557.63 172.09 L554.25 172.15 L551.18 170.24 L547.70 171.02 L544.35 170.98 L540.98 171.14 L537.52 172.28 L534.01 174.08 L530.66 174.68 L527.53 172.96 L524.16 174.01 L521.10 170.73 L517.79 170.78 L514.54 169.65 L511.26 168.72 L507.92 169.87 L504.60 170.71 L501.32 169.66 L498.02 171.24 L494.72 170.24 L491.40 169.66 L488.15 171.26 L484.88 171.62 L481.53 170.54 L478.39 173.19 L475.03 172.13 L471.73 172.14 L468.59 173.88 L465.28 173.76 L461.95 173.54 L459.02 176.50 L455.55 175.23 L452.32 175.76 L449.27 177.49 L445.88 177.03 L442.67 177.67 L439.89 180.57 L436.26 179.02 L433.34 181.05 L430.50 183.30 L427.08 182.87 L424.21 184.88 L421.19 186.16 L417.68 185.52 L414.74 187.09 L411.70 188.27 L408.19 187.82 L405.43 189.92 L402.51 191.43 L399.02 191.16 L396.41 193.59 L393.45 194.93 L390.64 196.67 L388.11 199.10 L385.90 202.31 L383.18 204.10 L379.64 203.84 L377.06 205.97 L372.94 204.46 L370.04 205.84 L366.77 206.43 L363.50 207.03 L361.07 209.46 L358.69 211.90 L355.39 212.48 L353.25 215.37 L349.81 215.70 L346.81 216.91 L344.64 219.64 L341.98 221.44 L338.68 222.15 L337.18 225.90 L333.73 226.37 L330.81 227.73 L328.89 230.69 L325.86 231.88 L323.04 233.42 L321.77 237.24 L318.09 237.51 L315.61 239.54 L313.64 242.25 L310.39 243.20 L308.27 245.70 L306.94 249.19 L302.99 249.29 L301.59 252.63 L300.02 255.73 L296.76 256.75 L295.37 260.01 L293.06 262.15 L289.79 263.21 L287.94 265.89 L285.82 268.26 L282.57 269.40 L281.26 272.62 L279.02 274.83 L276.05 276.33 L274.71 279.44 L272.91 282.09 L271.18 284.78 L270.18 288.13 L269.67 291.88 L268.16 294.69 L265.02 296.07 L263.79 299.10 L259.38 299.47 L257.93 302.33 L254.95 303.94 L252.43 305.96 L251.50 309.21 L250.37 312.28 L247.50 314.05 L247.06 317.60 L244.21 319.40 L242.30 321.88 L241.69 325.25 L240.23 328.03 L237.73 330.12 L238.08 334.04 L235.19 335.89 L233.19 338.33 L232.93 341.80 L230.72 344.11 L228.98 346.70 L229.58 350.59 L226.33 352.34 L225.17 355.25 L224.86 358.58 L222.33 360.77 L221.84 363.99 L222.11 367.55 L218.81 369.41 L219.25 373.01 L219.13 376.33 L216.50 378.54 L216.76 381.99 L215.88 384.94 L213.17 387.17 L212.78 390.32 L211.83 393.25 L209.43 395.65 L210.00 399.12 L209.06 402.04 L207.07 404.62 L207.35 407.94 L207.06 411.06 L206.76 414.16 L207.46 417.53 L208.73 421.02 L208.54 424.09 L206.32 426.64 L206.60 429.82 L202.88 432.07 L202.59 435.12 L201.00 437.90 L198.93 440.61 L200.19 443.96 L201.52 447.29 L201.78 450.41 L203.44 453.73 L205.91 457.12 L204.73 459.96 L205.06 463.01 L205.37 466.03 L204.45 468.92 L202.86 471.75 L203.00 474.76 L205.17 477.91 L205.75 480.91 L203.75 483.76 L202.28 486.66 L206.14 489.78 L203.04 492.64 L200.24 495.57 L199.45 498.56 L199.50 501.57 L201.86 504.54 L201.71 507.53 L201.72 510.51 L202.76 513.45 L205.22 516.29 L204.89 519.27 L204.71 522.25 L207.02 525.03 L208.09 527.88 L208.14 530.82 L210.18 533.54 L209.66 536.55 L209.41 539.54 L208.70 542.60 L210.92 545.24 L212.89 547.87 L213.96 550.64 L210.92 554.17 L213.60 556.63 L216.00 559.12 L211.41 563.09 L210.73 566.27 L211.51 569.14 L213.31 571.75 L215.69 574.18 L217.35 576.77 L216.64 580.02 L219.54 582.24 L222.11 584.51 L221.26 587.82 L223.17 590.27 L226.65 592.17 L226.77 595.18 L228.66 597.58 L230.07 600.13 L230.53 603.04 L230.34 606.21 L232.16 608.61 L235.30 610.42 L237.06 612.79 L236.34 616.24 L236.45 619.35 L241.13 620.36 L239.34 624.38 L238.11 628.20 L238.99 631.02 L240.25 633.66 L243.91 635.03 L244.96 637.75 L246.19 640.38 L248.85 642.21 L252.15 643.63 L252.67 646.66 L254.15 649.12 L257.54 650.40 L259.58 652.48 L260.97 654.98 L264.08 656.33 L264.98 659.14 L265.80 662.03 L266.54 664.99 L269.74 666.21 L272.60 667.63 L274.30 669.88 L273.53 674.03 L276.97 674.97 L279.80 676.33 L277.75 681.65 L278.81 684.50 L280.90 686.51 L283.62 687.96 L286.68 689.08 L288.79 691.01 L290.05 693.72 L293.79 694.12 L296.60 695.36 L297.93 698.00 L300.96 698.97 L304.48 699.40 L306.08 701.76 L308.58 703.19 L311.38 704.28 L312.94 706.70 L313.62 710.13 L316.46 711.15 L319.92 711.39 L322.61 712.50 L323.19 716.17 L324.54 718.94 L329.34 717.38 L329.18 722.13 L329.77 725.99 L331.82 727.98 L334.10 729.66 L338.03 729.01 L340.11 730.94 L342.19 732.87 L345.58 732.85 L349.16 732.47 L350.98 734.77 L353.32 736.27 L356.91 735.72 L359.46 736.83 L361.94 738.05 L365.21 737.85 L367.07 740.14 L368.83 742.65 L371.07 744.32 L374.35 743.97 L377.30 744.23 L379.86 745.21 L380.80 749.58 L384.35 748.50 L387.35 748.53 L387.72 754.45 L389.76 756.74 L392.42 757.64 L395.61 757.19 L398.66 757.01 L401.46 757.44 L403.73 759.24 L407.09 758.06 L410.10 757.75 L412.31 759.75 L415.34 759.30 L418.59 758.09 L421.01 759.41 L423.81 759.52 L426.65 759.38 L429.06 760.83 L431.17 763.41 L434.07 763.06 L437.17 761.76 L440.01 761.40 L442.08 764.53 L444.51 766.13 L447.98 762.57 L449.84 767.16 L452.10 770.01 L454.78 770.60 L457.43 771.42 L460.59 768.82 L463.21 769.69 L465.87 770.38 L468.78 768.88 L471.71 766.96 L474.28 768.30 L476.97 768.50 L479.84 766.27 L482.51 766.28 L485.19 766.21 L487.94 764.50 L490.54 765.78 L493.16 767.25 L495.83 767.57 L498.52 765.80 L501.17 764.96 L503.83 765.28 L506.55 768.21 L509.15 765.80 L511.79 765.32 L514.68 769.51 L517.45 770.52 L520.16 770.42 L522.71 768.38 L525.32 767.37 L527.97 766.86 L530.31 763.74 L532.50 759.85 L535.18 760.13 L537.63 758.72 L540.55 760.52 L543.43 761.75 L545.68 759.23 L548.54 760.18 L551.49 761.48 L554.10 760.95 L556.32 758.63 L558.90 758.01 L561.31 756.74 L564.69 759.38 L566.90 757.26 L568.25 752.05 L571.06 752.40 L574.17 753.71 L576.48 752.21 L577.74 747.41 L580.92 748.83 L583.17 747.31 L585.04 744.73 L587.06 742.70 L588.73 739.78 L591.17 739.01 L593.93 739.03 L596.51 738.57 L600.19 740.70 L602.26 738.91 L604.55 737.66 L607.46 737.81 L610.62 738.41 L612.36 735.96 L614.04 733.43 L616.80 733.15 L619.46 732.62 L622.00 731.84 L622.51 727.25 L623.96 724.54 L626.70 724.17 L630.05 724.82 L630.93 721.22 L632.46 718.78 L635.66 719.09 L638.48 718.73 L640.50 717.08 L640.74 712.75 L643.29 711.97 L646.61 712.28 L649.40 711.76 L650.01 708.18 L651.92 706.43 L654.13 705.11 L657.45 705.23 L658.61 702.51 L658.63 698.42 L662.17 698.73 L665.21 698.38 L666.51 695.92 L667.07 692.64 L668.91 690.88 L669.53 687.76 L673.64 688.48 L673.75 684.87 L672.77 680.18 L675.39 679.28 L677.67 678.02 L675.57 672.42 L676.67 670.07 L680.00 669.85 L681.20 667.58 L683.01 665.89 L685.60 664.88 L687.69 663.42 L691.96 663.79 L692.76 661.17 L694.36 659.23 L696.85 658.01 L699.84 657.15 L700.19 654.21 L700.69 651.42 L702.74 649.81 L704.91 648.27 L706.79 646.50 L705.15 642.28 L705.44 639.45 L708.11 638.25 L710.93 637.10 L709.85 633.44 L711.45 631.50 L716.60 631.72 L717.09 629.06 L717.45 626.35 L717.86 623.69 L717.60 620.68 L717.65 617.88 L716.85 614.65 L720.01 613.53 L722.18 611.85 L721.65 608.82 L724.05 607.23 L726.43 605.60 L727.26 603.23 L726.47 600.15 L727.58 597.93 L728.60 595.67 L732.21 594.47 L731.42 591.46 L728.95 587.85 L730.48 585.80 L732.98 584.09 L732.84 581.41 L729.50 577.68 L733.08 576.30 L733.25 573.78 L731.82 570.79 L731.85 568.27 L730.58 565.40 L730.87 562.99 L732.83 561.03 L734.00 558.85 L737.20 557.14 L737.48 554.70 L738.07 552.33 L739.04 550.04 L741.02 547.95 L740.60 545.37 L738.93 542.58 L740.35 540.36 L742.27 538.20 L742.38 535.73 L739.03 532.80 L738.54 530.31 L739.56 528.00 L741.43 525.78 L739.17 523.12 L738.76 520.67 L740.44 518.40 L741.75 516.07 L741.16 513.61 L738.53 511.07 L739.64 508.72 L741.47 506.37 L742.00 503.96 L740.06 501.53 L739.83 499.13 L740.20 496.73 L741.71 494.29 L740.38 491.91 L737.74 489.62 L739.69 487.13 L741.02 484.64 L739.82 482.31 L737.44 480.10 L737.22 477.72 L735.89 475.47 L738.09 472.83 L735.48 470.74 L732.02 468.81 L732.43 466.39 L732.52 463.99 L727.48 462.44 L726.26 460.32 L727.91 457.67 L726.68 455.55 L725.83 453.37 L726.83 450.79 L726.94 448.39 L728.92 445.52 L727.95 443.34 L727.67 440.99 L727.58 438.57 L728.22 435.94 L726.67 433.93 L724.37 432.16 L724.67 429.61 L725.41 426.89 L724.50 424.70 L720.18 423.69 L718.72 421.73 L718.82 419.22 L719.18 416.59 L715.64 415.46 L715.09 413.18 L718.06 409.44 L716.07 407.72 L714.07 406.03 L712.48 404.19 L710.12 402.71 L708.15 401.08 L705.42 399.85 L706.44 396.78 L706.08 394.38 L704.10 392.80 L703.69 390.41 L703.90 387.65 L702.42 385.81 L699.52 384.80 L698.85 382.52 L697.63 380.56 L698.49 377.31 L695.52 376.43 L691.66 376.17 L690.86 373.96 L691.18 370.98 L688.69 369.90 L683.91 370.46 L685.37 366.64 L683.39 365.27 L680.27 364.76 L678.39 363.36 L675.76 362.56 L673.87 361.22 L673.62 358.56 L672.77 356.35 L673.22 353.02 L671.13 351.83 L670.02 349.79 L669.37 347.32 L668.58 344.95 L665.76 344.45 L663.22 343.74 L662.19 341.59 L661.33 339.24 L659.48 337.87 L655.37 338.86 L653.52 337.55 L652.74 335.11 L651.82 332.78 L648.36 333.27 L646.56 331.94 L645.61 329.62 L644.54 327.40 L642.34 326.54 L639.05 327.05 L637.72 325.16 L637.22 322.16 L635.75 320.38 L632.48 321.01 L630.89 319.41 L629.48 317.54 L628.37 315.22 L625.53 315.39 L622.56 315.82 L621.68 313.13 L620.69 310.52 L618.07 310.49 L614.84 311.50 L613.09 310.12 L610.92 309.45 L610.00 306.61 L606.82 307.76 L603.56 309.15 L602.02 307.41 L600.11 306.36 L596.06 309.56 L593.99 308.93 L592.89 306.29 L590.68 305.95 L588.58 305.40 L587.19 303.27 L585.53 301.68 L584.59 298.33 L582.28 298.22 L580.31 297.28 L578.70 295.38 L576.98 293.72 L574.34 294.53 L572.03 294.51 L570.15 293.29 L568.49 291.35 L566.29 291.01 L562.96 294.40 L560.86 293.92 L559.07 292.38 L557.26 290.79 L554.37 293.28 L552.29 292.75 L551.31 287.73 L548.79 288.93 L546.26 290.33 L544.20 289.69 L541.85 290.50 L539.60 290.88 L537.17 292.42 L535.55 289.32 L533.55 288.30 L531.26 289.13 L529.26 288.01 L527.37 285.93 L525.15 286.36 L522.77 288.30 L520.75 287.12 L518.65 286.58 L516.67 284.38 L514.36 286.45 L512.07 289.06 L509.96 288.94 L507.94 286.59 L505.76 288.19 L503.57 292.12 L501.51 289.01 L499.41 290.04 L497.34 292.44 L495.28 293.15 L493.25 294.39 L491.20 294.65 L489.08 293.46 L486.93 292.34 L484.70 290.36 L482.70 291.66 L480.54 291.02 L478.41 290.78 L476.20 289.97 L474.20 291.01 L472.33 292.89 L470.18 292.63 L467.84 291.21 L465.90 292.41 L464.53 296.82 L462.45 296.92 L460.21 296.23 L458.00 295.79 L456.59 299.14 L454.56 299.45 L452.32 298.94 L449.96 297.98 L448.20 299.50 L446.85 302.44 L444.53 301.76 L441.95 300.26 L440.06 301.21 L438.72 303.86 L436.63 304.08 L434.51 304.23 L432.23 303.95 L430.70 305.85 L429.46 308.44 L426.94 307.56 L424.48 306.93 L422.98 308.73 L422.07 311.93 L420.02 312.31 L418.28 313.42 L415.80 312.88 L415.05 316.15 L414.31 319.31 L411.91 318.95 L410.32 320.27 L410.54 325.12 L408.76 325.95 L406.30 325.53 L404.82 326.95 L403.08 327.88 L401.01 328.24 L398.75 328.31 L395.84 327.35 L394.84 329.56 L392.57 329.72 L390.47 330.18 L388.32 330.60 L387.15 332.49 L386.07 334.48 L384.17 335.27 L381.53 335.04 L380.28 336.77 L381.20 341.37 L379.43 342.33 L377.15 342.63 L375.18 343.37 L375.70 347.18 L372.76 346.72 L369.36 345.78 L368.42 347.79 L367.59 349.89 L367.28 352.54 L367.12 355.30 L366.44 357.45 L368.38 362.30 L367.87 364.50 L367.80 367.12 L368.44 370.38 L367.88 372.41 L365.19 372.40 L364.97 374.72 L360.71 373.34 L357.57 373.06 L357.37 375.42 L354.99 375.87 L353.54 377.15 L355.52 381.25 L353.26 381.83 L353.23 384.20 L354.86 387.83 L351.98 387.95 L349.85 388.68 L351.03 391.84 L347.17 391.36 L344.06 391.48 L344.82 394.30 L342.94 395.30 L342.90 397.53 L344.97 401.08 L343.87 402.56 L345.66 405.80 L345.99 408.11 L343.40 408.67 L344.17 411.20 L341.15 411.57 L336.80 411.27 L336.64 413.29 L335.33 414.70 L333.04 415.62 L334.29 418.32 L335.06 420.74 L333.42 421.99 L335.50 424.96 L335.79 427.07 L332.37 427.55 L332.71 429.67 L331.20 431.01 L327.67 431.58 L327.92 433.66 L328.06 435.68 L326.70 437.14 L329.22 439.98 L329.57 442.01 L330.44 444.19 L332.10 446.59 L332.70 448.62 L330.52 449.80 L331.23 451.84 L326.82 452.45 L323.81 453.51 L324.70 455.62 L322.94 457.05 L322.29 458.77 L326.29 461.53 L324.41 462.95 L325.55 465.01 L328.66 467.41 L326.07 468.72 L324.37 470.22 L326.67 472.39 L323.15 473.64 L320.58 475.09 L322.30 477.14 L320.98 478.78 L322.29 480.74 L325.52 482.85 L325.20 484.58 L328.53 486.60 L329.72 488.41 L327.57 489.99 L329.54 491.82 L326.72 493.42 L322.91 495.05 L323.95 496.84 L323.27 498.59 L321.72 500.36 L324.75 502.11 L325.85 503.84 L324.15 505.64 L325.38 507.34 L326.91 509.02 L324.46 510.90 L327.25 512.47 L327.58 514.18 L325.71 516.09 L327.68 517.64 L328.50 519.30 L326.77 521.25 L330.29 522.54 L331.02 524.16 L332.85 525.61 L335.51 526.89 L336.11 528.48 L334.36 530.49 L336.53 531.78 L332.20 534.37 L330.34 536.52 L331.90 537.95 L331.07 539.92 L331.09 541.70 L336.20 542.18 L334.64 544.35 L336.69 545.55 L340.80 546.13 L338.69 548.49 L338.23 550.40 L341.01 551.29 L338.25 553.97 L336.83 556.26 L339.40 557.18 L338.86 559.19 L340.95 560.24 L344.57 560.65 L345.13 562.22 L349.22 562.34 L350.82 563.43 L349.56 565.75 L352.23 566.35 L350.19 569.08 L347.46 572.19 L349.29 573.18 L348.81 575.29 L348.18 577.51 L351.54 577.67 L352.97 578.81 L353.51 580.42 L356.89 580.43 L358.50 581.40 L357.23 584.04 L359.34 584.70 L359.49 586.54 L357.45 589.77 L359.62 590.38 L361.16 591.37 L361.50 593.14 L365.11 592.69 L366.72 593.55 L369.03 593.90 L371.71 593.94 L373.60 594.51 L373.24 596.77 L374.91 597.49 L372.66 601.31 L371.98 603.96 L373.84 604.56 L374.16 606.44 L374.81 608.05 L379.03 606.53 L379.06 608.67 L381.29 608.83 L384.85 607.71 L384.22 610.49 L384.80 612.16 L387.62 611.62 L386.15 615.37 L386.10 617.75 L388.59 617.51 L388.95 619.51 L391.40 619.24 L394.62 618.04 L395.80 619.10 L399.51 617.21 L401.25 617.53 L401.05 620.19 L403.62 619.49 L402.91 622.87 L402.04 626.54 L403.93 626.70 L404.53 628.56 L404.85 630.84 L408.03 629.17 L409.69 629.56 L410.21 631.59 L412.22 631.46 L414.24 631.25 L414.18 634.25 L417.04 632.69 L418.04 634.05 L418.51 636.32 L420.92 635.36 L422.35 636.01 L423.30 637.52 L426.30 635.30 L428.16 635.10 L430.04 634.79 L432.87 632.57 L434.63 632.36 L434.91 635.18 L436.99 634.28 L436.41 639.11 L436.73 642.15 L438.60 641.75 L439.43 643.75 L440.86 644.37 L444.01 640.68 L444.80 642.84 L446.86 641.72 L449.48 638.93 L449.70 642.75 L451.05 643.48 L453.17 641.89 L453.53 645.70 L454.39 648.09 L456.51 646.39 L457.71 647.77 L459.80 645.96 L461.92 643.85 L463.35 644.26 L465.76 640.68 L467.66 638.89 L468.31 642.53 L470.14 640.97 L471.04 643.77 L471.78 647.74 L473.40 647.22 L474.67 648.69 L475.87 650.72 L477.94 647.19 L479.52 646.68 L480.85 647.87 L482.82 643.96 L484.33 643.50 L485.40 647.34 L487.12 644.68 L488.44 646.52 L489.65 650.33 L491.23 649.16 L492.74 648.79 L494.23 648.89 L495.83 645.03 L497.29 644.29 L498.75 642.83 L500.17 639.68 L501.56 639.22 L503.00 641.38 L504.37 639.91 L505.96 644.37 L507.52 646.66 L508.93 645.57 L510.51 647.21 L511.95 646.80 L513.01 642.17 L514.63 643.98 L515.84 641.78 L516.84 638.21 L518.71 641.76 L520.11 641.46 L521.22 639.24 L523.21 642.67 L524.92 644.12 L525.99 641.84 L527.59 642.52 L528.49 639.67 L529.39 637.08 L530.78 636.86 L531.21 632.56 L532.02 630.14 L534.18 633.17 L534.96 630.76 L537.03 633.16 L539.36 636.26 L540.44 634.90 L542.22 635.88 L544.11 637.13 L544.27 633.04 L545.45 632.15 L547.46 633.63 L548.12 631.33 L549.11 629.98 L551.44 632.14 L551.53 628.55 L553.00 628.49 L554.90 629.41 L555.22 626.61 L556.49 626.07 L558.58 627.31 L558.25 623.32 L559.85 623.50 L561.61 623.96 L561.60 620.90 L562.98 620.61 L564.84 621.19 L564.26 617.29 L566.08 617.78 L567.65 617.81 L567.39 614.69 L569.11 614.96 L570.56 614.76 L569.85 611.11 L571.83 611.76 L573.10 611.27 L572.80 608.44 L574.81 609.07 L575.68 608.00 L575.22 605.09 L577.12 605.50 L577.95 604.43 L577.71 601.96 L579.89 602.67 L580.18 600.94 L580.15 598.87 L581.94 599.03 L582.37 597.55 L582.35 595.57 L584.35 595.94 L584.16 593.81 L584.57 592.39 L586.14 592.23 L586.24 590.51 L586.47 588.95 L588.29 589.02 L587.78 586.76 L588.42 585.67 L589.75 585.23 L589.62 583.42 L590.01 582.12 L591.60 581.90 L590.85 579.61 L591.64 578.69 L592.81 578.10 L592.41 576.20 L593.02 575.15 L594.26 574.61 L593.45 572.46 L594.34 571.65 L595.25 570.85 L594.74 569.01 L595.45 568.08 L596.40 567.31 L595.55 565.31 L596.48 564.53 L597.12 563.57 L596.63 561.88 L597.49 561.06 L597.99 560.02 L597.26 558.24 L598.13 557.44 L598.51 556.34 L598.12 554.82 L598.96 554.00 L599.12 552.81 L598.72 551.34 L599.39 550.43 L599.50 549.24 L599.27 547.90 L599.99 547.02 L599.92 545.77 L599.77 544.50 L600.26 543.52 L600.24 542.33 L600.13 541.11 L600.68 540.16 L600.46 538.91 L600.47 537.77 L600.80 536.75 L600.70 535.57 L600.69 534.44 L601.05 533.44 L600.80 532.24 L600.85 531.15 L601.06 530.11 L600.91 528.97 L600.91 527.88 L601.13 526.86 L600.88 525.71 L600.92 524.65 L601.00 523.60 L600.82 522.50 L600.80 521.44 L600.88 520.40 L600.63 519.31 L600.61 518.26 L600.57 517.22 L600.38 516.15 L600.30 515.11 L600.24 514.08 L599.99 513.03 L599.86 512.00 L599.69 510.97 L599.53 509.94 L599.39 508.92 L599.25 507.91 L599.12 506.91 L599.00 505.90 L598.87 504.90 L598.73 503.91 L598.58 502.91 L598.42 501.93 L598.26 500.94 Z"/>
  <svg class="pausebutton" id="pausebutton">
    <circle cx="500" cy="500" id="pausestart" class="pausestart" r="52.65"/>
    <rect height="50.02" width="10.00" y="473.68" rx="2.00" ry="2.00" x="479.99" class="pausesymbol"/>
    <rect height="50.02" width="10.00" y="473.68" rx="2.00" ry="2.00" x="510.00" class="pausesymbol"/>
    <polygon points="530.01,500 479.99,530.01 479.99,469.99" class="playsymbol"/>
  </svg>
  <polygon id="playback-head" class="playback-head" points="941.65,500 921.65,540 961.65,540"/>
</svg>