<?xml-stylesheet href="../../style/waveformjs.css" type="text/css"?>
<svg xmlns="http://www.w3.org/2000/svg" xmlns:xlink="http://www.w3.org/1999/xlink" width="100%" height="100%" viewBox="0 0 1000 1000">
  <path class="svg-wave" id="sp" d="M598.01 500.00 L598.18 500.98 L598.35 501.97 L598.51 502.96 L598.65 503.95 L598.77 504.94 L598.89 505.94 L598.99 506.94 L599.07 507.94 L599.15 508.95 L599.21 509.95 L599.27 510.96 L599.32 511.98 L599.35 512.99 L599.38 514.00 L599.39 515.02 L599.39 516.04 L599.38 517.06 L599.36 518.08 L599.33 519.10 L599.29 520.13 L599.23 521.15 L599.17 522.18 L599.09 523.20 L599.00 524.23 L598.89 525.25 L598.78 526.28 L598.66 527.31 L598.52 528.33 L598.38 529.36 L598.21 530.38 L598.04 531.41 L597.80 532.41 L597.06 533.24 L595.96 533.95 L595.69 534.93 L595.69 536.02 L594.27 536.56 L593.59 537.38 L594.46 538.83 L594.30 539.87 L592.66 540.27 L592.05 541.11 L592.93 542.62 L592.69 543.63 L590.64 543.79 L590.22 544.70 L591.44 546.45 L590.75 547.25 L588.84 547.38 L588.54 548.37 L589.68 550.17 L588.46 550.65 L586.45 550.65 L586.83 552.05 L587.70 553.77 L586.07 553.96 L584.42 554.11 L584.90 555.63 L585.72 557.40 L583.19 556.91 L581.63 557.05 L583.15 559.36 L583.28 560.72 L580.50 559.93 L579.43 560.38 L580.91 562.79 L580.90 564.10 L577.24 562.46 L576.42 563.07 L578.77 566.35 L578.00 567.05 L574.72 565.54 L574.00 566.22 L576.16 569.54 L574.95 569.83 L571.64 568.09 L571.67 569.50 L573.44 572.65 L571.70 572.37 L569.08 571.13 L569.23 572.72 L570.72 575.80 L568.06 574.41 L565.48 573.05 L566.96 576.22 L567.65 578.58 L564.62 576.60 L562.87 576.05 L564.04 579.07 L564.68 581.51 L560.68 578.05 L559.17 577.70 L561.74 582.79 L561.22 583.83 L557.31 580.14 L556.18 580.24 L558.34 585.14 L557.64 585.94 L553.48 581.48 L552.97 582.49 L555.25 587.97 L553.81 587.61 L550.49 584.07 L550.17 585.47 L551.89 590.45 L549.72 588.72 L546.61 585.15 L547.29 588.48 L548.25 592.49 L545.75 589.89 L543.49 587.61 L544.01 590.93 L544.79 594.94 L541.43 590.15 L539.49 588.23 L541.12 594.40 L540.86 596.44 L537.56 591.17 L536.35 590.81 L537.57 596.65 L537.18 598.55 L533.47 591.48 L532.57 591.85 L534.27 599.78 L533.13 599.70 L530.18 593.96 L529.42 594.84 L530.46 601.76 L529.08 600.82 L526.43 595.19 L526.13 597.91 L526.58 603.76 L524.94 601.55 L523.00 597.87 L522.60 600.70 L522.66 605.89 L520.69 601.65 L518.95 598.10 L518.97 603.80 L518.49 607.21 L516.59 602.26 L515.30 600.69 L514.98 605.67 L514.31 608.80 L512.36 601.80 L511.22 600.83 L511.00 608.73 L509.96 609.41 L508.32 602.78 L507.27 602.50 L506.67 609.63 L505.59 609.97 L504.20 602.81 L503.20 603.85 L502.31 611.22 L501.19 609.86 L500.08 604.40 L499.02 606.25 L497.85 612.16 L496.81 609.15 L495.91 604.23 L494.67 608.30 L493.33 612.48 L492.47 608.62 L491.61 605.66 L490.21 609.43 L488.71 613.43 L488.23 607.36 L487.42 605.03 L485.48 611.72 L484.14 613.17 L483.95 606.80 L482.98 606.00 L480.88 611.91 L479.48 613.27 L479.82 605.39 L478.75 605.27 L476.04 612.83 L475.02 612.12 L475.33 605.76 L474.11 606.15 L471.38 612.47 L470.62 610.80 L471.12 604.68 L469.27 607.19 L466.65 612.08 L466.31 609.20 L466.44 605.05 L464.46 607.53 L461.79 611.83 L462.27 606.94 L462.44 603.15 L459.38 608.18 L457.17 610.69 L458.06 605.24 L457.60 603.37 L454.61 607.59 L452.44 609.66 L454.30 602.56 L453.65 601.28 L449.34 607.84 L448.02 607.82 L449.94 601.25 L449.09 600.43 L444.77 606.29 L443.68 605.79 L445.96 599.11 L444.47 599.46 L439.89 605.18 L439.59 603.29 L441.28 598.14 L439.38 599.06 L435.22 603.51 L435.87 600.23 L437.48 595.59 L434.16 598.51 L430.85 601.25 L432.10 597.31 L432.73 594.39 L429.46 596.91 L426.11 599.40 L428.85 593.74 L429.15 591.44 L423.94 596.17 L422.08 596.52 L425.17 590.81 L424.55 589.73 L419.68 593.60 L417.70 593.98 L421.91 587.39 L421.01 586.64 L414.71 591.70 L414.20 590.42 L417.55 585.17 L416.26 584.78 L410.64 588.68 L410.86 586.71 L414.26 581.76 L411.30 582.90 L406.42 585.72 L407.68 582.88 L409.81 579.35 L406.77 580.39 L402.22 582.63 L405.17 578.52 L407.01 575.45 L401.77 578.08 L398.53 579.01 L402.17 574.61 L402.54 572.81 L397.83 574.74 L394.81 575.35 L400.17 570.01 L400.09 568.58 L392.93 571.94 L391.83 571.12 L396.74 566.42 L396.32 565.23 L389.57 567.95 L388.97 566.79 L394.17 562.23 L392.66 561.68 L385.78 564.13 L386.61 562.18 L390.52 558.62 L388.29 558.38 L382.32 560.01 L384.81 557.30 L388.45 554.10 L383.90 554.89 L379.66 555.42 L382.84 552.54 L384.66 550.35 L380.57 550.72 L376.43 551.02 L381.74 547.45 L383.10 545.56 L376.02 546.89 L374.11 546.18 L378.96 543.03 L377.70 542.11 L371.48 542.82 L369.55 542.02 L375.26 538.81 L376.87 536.96 L372.79 536.80 L370.05 536.19 L374.62 533.57 L374.18 532.34 L366.77 532.83 L366.63 531.45 L372.61 528.70 L372.86 527.31 L366.15 527.36 L369.47 525.32 L372.41 523.43 L366.87 523.07 L361.93 522.51 L365.27 520.58 L369.08 518.66 L367.11 517.59 L363.84 516.64 L366.53 514.96 L369.14 513.34 L363.08 512.58 L358.83 511.54 L365.30 509.66 L369.25 508.06 L362.83 507.08 L361.23 505.78 L368.19 504.17 L365.88 502.90 L358.31 501.64 L358.11 500.23 L364.19 498.86 L365.29 497.52 L361.52 496.07 L360.16 494.63 L365.20 493.47 L363.22 492.00 L357.14 490.21 L359.00 488.92 L365.23 488.05 L363.55 486.53 L358.30 484.58 L363.68 483.78 L365.38 482.62 L359.22 480.39 L355.96 478.46 L360.97 477.79 L364.41 476.95 L362.06 475.13 L359.24 473.16 L363.86 472.63 L366.04 471.67 L359.25 468.76 L356.83 466.72 L363.98 466.94 L367.74 466.45 L360.70 463.18 L361.69 461.96 L368.31 462.36 L366.22 460.31 L361.34 457.35 L362.23 456.11 L368.77 456.74 L368.53 455.20 L363.46 451.95 L365.65 451.20 L370.72 451.57 L368.25 449.14 L363.83 445.86 L367.63 445.83 L372.11 446.17 L368.47 443.08 L364.55 439.77 L369.96 440.61 L373.03 440.47 L368.40 436.69 L365.88 433.82 L373.08 435.78 L376.42 435.91 L370.77 431.33 L369.59 429.03 L376.13 430.97 L377.90 430.35 L372.03 425.29 L371.66 423.35 L378.60 425.83 L379.53 424.74 L374.01 419.53 L375.21 418.52 L380.50 420.26 L379.42 417.79 L376.42 413.92 L378.69 413.69 L384.24 415.88 L382.85 413.07 L379.36 408.59 L383.60 409.96 L387.43 411.11 L384.57 406.96 L382.00 402.93 L387.06 405.18 L390.49 406.17 L386.98 401.19 L385.46 397.82 L390.93 400.73 L392.88 400.53 L389.55 395.36 L388.71 392.43 L395.18 396.64 L398.06 397.45 L393.78 390.98 L394.14 389.15 L399.64 392.79 L400.64 391.71 L397.16 385.64 L398.21 384.50 L403.45 388.22 L403.73 386.25 L400.58 380.13 L403.36 381.08 L408.05 384.51 L407.93 381.95 L405.25 375.98 L409.03 378.42 L413.54 382.02 L410.70 375.55 L409.71 371.47 L413.75 374.57 L416.02 375.22 L414.43 370.07 L413.85 366.29 L418.12 370.08 L420.83 371.56 L418.68 365.07 L419.27 362.97 L423.94 367.89 L426.12 368.65 L424.21 362.05 L425.13 360.44 L429.75 365.84 L431.33 365.61 L428.99 357.53 L431.05 358.13 L434.78 362.32 L434.95 359.05 L434.00 353.16 L436.72 355.36 L439.89 358.77 L440.54 356.33 L440.01 350.83 L442.82 353.61 L445.14 355.30 L444.18 348.21 L444.57 344.48 L447.59 348.17 L449.60 349.12 L450.19 345.78 L450.78 342.22 L453.96 347.04 L455.94 348.14 L455.45 340.51 L456.74 338.93 L459.81 344.15 L461.62 344.79 L462.03 339.57 L463.29 337.67 L466.21 343.33 L467.82 343.16 L468.03 335.90 L469.84 336.49 L472.38 341.35 L473.72 339.58 L474.66 335.01 L476.61 336.85 L478.84 341.08 L479.91 336.67 L481.11 332.66 L483.21 336.61 L484.97 337.79 L486.38 335.02 L487.76 331.17 L489.77 336.32 L491.63 340.43 L492.95 333.85 L494.57 332.27 L496.41 339.85 L498.03 341.25 L499.60 334.03 L501.27 332.53 L502.83 339.10 L504.46 338.64 L506.32 332.05 L508.06 330.93 L509.41 336.92 L510.96 338.14 L513.11 331.38 L514.69 332.79 L515.75 339.14 L517.50 337.96 L519.83 332.15 L521.24 334.45 L522.25 339.31 L524.40 335.90 L526.87 330.92 L527.84 335.46 L528.74 339.90 L531.44 334.40 L533.91 330.64 L534.23 337.51 L535.52 339.38 L538.35 334.44 L540.67 332.06 L540.74 338.84 L542.33 339.32 L545.90 332.59 L548.06 331.33 L548.30 336.72 L549.69 338.00 L552.89 333.51 L554.98 332.75 L554.78 338.82 L556.83 338.10 L560.64 332.65 L561.81 334.60 L562.06 338.84 L563.64 339.56 L566.88 336.19 L567.95 338.20 L567.64 343.35 L570.65 340.77 L574.40 336.74 L574.48 340.80 L574.45 344.93 L577.64 342.35 L580.85 339.90 L580.08 345.28 L580.19 348.79 L585.25 343.06 L587.69 342.35 L586.31 348.42 L588.19 348.65 L592.03 345.64 L594.63 344.82 L592.61 351.50 L592.91 354.28 L597.63 350.20 L599.08 351.26 L596.34 358.46 L598.20 358.78 L602.46 355.75 L602.93 358.12 L602.18 362.07 L604.16 362.30 L608.37 359.68 L610.21 360.20 L607.78 366.06 L611.34 364.44 L615.16 362.61 L613.13 367.75 L613.03 370.51 L617.01 368.62 L620.94 366.91 L619.46 371.15 L618.89 374.31 L623.95 371.56 L626.20 371.82 L622.27 378.27 L623.47 379.51 L629.84 375.81 L631.92 376.32 L629.76 380.75 L631.03 381.98 L635.59 380.31 L636.62 381.81 L633.81 386.56 L636.47 386.63 L642.01 384.41 L643.87 385.27 L642.17 388.93 L644.95 389.08 L648.16 388.96 L647.10 392.03 L645.97 395.09 L648.12 395.77 L652.83 394.72 L653.03 396.83 L651.47 400.07 L656.05 399.27 L658.76 399.76 L655.46 404.01 L655.68 406.00 L659.05 406.13 L662.86 406.07 L660.04 409.81 L659.24 412.35 L664.53 411.57 L664.92 413.47 L661.40 417.36 L662.29 418.95 L668.36 418.01 L670.62 419.01 L668.55 422.05 L669.00 423.88 L673.11 424.11 L672.44 426.44 L669.01 429.90 L670.44 431.29 L675.22 431.40 L676.30 433.00 L671.91 436.63 L675.34 437.35 L678.52 438.22 L675.43 441.24 L674.09 443.62 L677.04 444.62 L682.38 444.94 L679.85 447.66 L676.28 450.61 L683.55 450.54 L684.48 452.27 L677.99 455.84 L677.66 457.81 L683.41 458.37 L686.24 459.68 L680.98 462.71 L680.37 464.71 L686.32 465.48 L686.40 467.39 L680.64 470.26 L681.57 471.97 L690.06 472.60 L689.67 474.59 L685.54 477.03 L686.69 478.78 L691.28 480.19 L687.91 482.44 L685.38 484.54 L689.84 486.08 L694.57 487.69 L692.54 489.75 L690.00 491.79 L693.09 493.59 L695.32 495.47 L690.96 497.48 L689.52 499.40 L694.40 501.32 L698.90 503.34 L694.25 505.21 L693.00 507.11 L697.99 509.28 L697.44 511.23 L693.26 512.93 L692.16 514.79 L696.19 517.07 L698.59 519.29 L692.49 520.64 L692.41 522.58 L696.04 524.99 L693.53 526.64 L690.06 528.11 L692.18 530.39 L695.25 532.88 L694.41 534.74 L692.73 536.43 L693.42 538.57 L695.10 540.94 L691.73 542.23 L690.33 543.93 L692.71 546.51 L691.52 548.25 L690.01 549.90 L689.72 551.86 L689.92 553.96 L689.95 556.02 L692.27 558.81 L693.04 561.16 L695.16 563.99 L696.58 566.63 L695.10 568.32 L693.97 570.11 L693.60 572.17 L692.25 573.86 L691.35 575.72 L690.17 577.46 L687.58 578.60 L683.47 579.05 L678.20 578.90 L675.46 579.79 L674.81 581.62 L670.54 581.71 L669.08 583.10 L674.64 588.01 L674.56 590.17 L671.81 590.94 L675.22 595.00 L676.97 598.25 L673.02 598.34 L672.42 600.29 L673.37 603.17 L671.95 604.67 L668.44 604.86 L665.75 605.50 L663.19 606.17 L662.87 608.30 L660.74 609.22 L656.57 608.69 L659.46 613.07 L663.49 618.40 L659.24 617.78 L659.30 620.30 L664.19 626.59 L660.26 626.14 L657.46 626.50 L658.59 630.05 L658.12 632.32 L654.63 632.06 L651.76 632.25 L648.59 632.13 L647.23 633.58 L645.44 634.63 L640.91 633.07 L638.91 633.84 L641.33 638.93 L640.26 640.66 L635.69 638.82 L635.48 641.41 L638.75 647.75 L634.69 646.34 L631.18 645.41 L631.00 648.17 L630.09 650.13 L629.21 652.17 L624.60 649.76 L623.95 652.03 L625.24 656.80 L622.81 656.95 L619.52 655.93 L621.35 661.64 L622.18 666.18 L618.70 664.87 L619.01 668.84 L620.52 674.67 L617.26 673.63 L614.77 673.66 L614.40 676.93 L612.87 678.44 L609.58 677.14 L607.03 676.95 L603.72 675.42 L602.27 676.98 L600.44 677.89 L596.20 674.45 L595.73 677.76 L597.40 685.28 L594.47 684.15 L592.16 684.16 L593.91 692.45 L591.37 692.09 L588.24 690.40 L586.96 692.67 L585.98 695.69 L583.05 694.27 L580.21 692.94 L577.51 691.83 L575.44 692.22 L573.46 692.83 L570.50 690.78 L568.47 691.13 L568.77 698.19 L567.48 700.94 L564.57 698.84 L564.10 704.35 L563.22 708.82 L560.09 705.89 L558.05 706.53 L556.66 709.62 L554.46 709.80 L551.60 707.27 L549.12 706.07 L546.54 704.31 L544.60 705.26 L542.40 704.95 L539.20 699.53 L537.55 701.78 L536.36 706.86 L534.14 706.35 L531.39 702.24 L529.87 706.05 L528.48 711.26 L525.86 707.50 L523.57 705.87 L521.76 708.50 L519.75 709.49 L517.58 708.84 L515.23 705.44 L513.41 709.24 L511.48 712.50 L509.18 708.63 L507.11 709.13 L505.20 716.59 L503.03 716.54 L500.86 715.23 L498.67 721.45 L496.42 723.39 L494.28 719.64 L492.04 720.95 L489.71 723.47 L487.59 721.34 L485.58 718.11 L483.55 715.94 L481.57 713.75 L479.37 714.24 L477.38 712.55 L475.69 708.60 L472.97 713.38 L470.00 719.22 L468.39 714.94 L465.93 716.58 L462.53 723.62 L460.85 720.13 L459.03 717.69 L456.30 720.07 L453.89 720.65 L452.28 717.46 L450.80 713.97 L449.06 711.81 L446.79 711.91 L444.92 710.40 L443.88 705.97 L441.07 708.03 L436.68 715.31 L435.33 712.04 L433.51 710.46 L428.21 719.55 L426.65 716.95 L425.69 712.77 L422.77 714.20 L419.60 716.20 L418.75 711.98 L417.63 708.64 L416.17 706.27 L414.72 703.96 L412.71 703.05 L411.86 699.51 L411.30 695.46 L407.90 697.68 L404.65 699.41 L403.99 695.74 L402.81 693.23 L398.18 697.50 L395.88 697.10 L395.90 692.38 L393.61 692.00 L390.75 692.58 L388.16 692.63 L387.85 688.79 L387.16 685.69 L382.03 689.84 L380.26 688.46 L381.00 683.23 L377.08 685.17 L370.41 691.04 L370.96 686.20 L369.09 684.92 L361.55 691.48 L361.31 687.84 L361.23 684.06 L357.69 684.88 L354.52 685.13 L354.94 680.85 L354.63 677.57 L354.23 674.47 L353.28 672.08 L351.10 671.14 L351.83 666.90 L350.41 665.15 L344.43 668.33 L341.25 668.36 L341.32 664.96 L336.59 666.50 L332.00 667.79 L332.78 663.71 L330.92 662.24 L327.76 662.00 L326.43 660.02 L327.62 655.76 L327.45 652.80 L327.36 649.83 L325.48 648.43 L324.89 645.94 L326.63 641.57 L321.42 642.88 L313.89 645.87 L316.09 641.20 L313.36 640.35 L304.54 643.95 L306.49 639.55 L306.78 636.42 L302.75 636.34 L300.44 635.00 L302.13 630.99 L303.02 627.59 L303.53 624.49 L302.61 622.32 L301.68 620.17 L304.42 615.85 L304.21 613.35 L298.61 613.92 L296.67 612.34 L298.99 608.45 L297.48 606.67 L290.47 607.70 L291.06 604.77 L290.89 602.25 L283.91 602.99 L281.28 601.58 L280.40 599.33 L275.93 598.66 L274.80 596.48 L272.29 594.87 L269.71 593.26 L271.23 589.99 L269.96 587.84 L267.67 586.07 L268.45 583.15 L267.09 581.02 L264.82 579.18 L263.08 577.14 L261.53 575.02 L261.57 572.39 L260.28 570.17 L260.05 567.65 L260.28 565.00 L259.36 562.67 L257.65 560.53 L257.45 558.02 L256.78 555.61 L256.36 553.15 L254.61 550.96 L256.08 548.12 L256.00 545.61 L254.77 543.30 L253.70 540.96 L253.10 538.52 L253.34 535.96 L252.20 533.60 L249.84 531.38 L251.29 528.67 L250.67 526.22 L248.40 523.92 L247.98 521.42 L248.22 518.86 L248.62 516.31 L246.47 513.90 L246.25 511.37 L247.60 508.78 L246.42 506.28 L244.32 503.78 L245.24 501.22 L245.12 498.67 L244.40 496.11 L244.12 493.54 L244.85 491.01 L245.51 488.48 L245.87 485.95 L245.17 483.36 L245.61 480.83 L246.18 478.32 L246.15 475.75 L244.65 473.03 L247.10 470.73 L247.36 468.20 L246.46 465.51 L246.01 462.85 L246.48 460.33 L248.04 457.99 L247.05 455.22 L246.83 452.56 L248.45 450.26 L247.39 447.42 L246.64 444.61 L245.57 441.71 L245.03 438.89 L247.62 436.84 L247.15 434.03 L247.78 431.49 L249.91 429.38 L249.75 426.62 L249.09 423.70 L248.65 420.81 L249.41 418.28 L251.43 416.18 L251.50 413.43 L253.18 411.24 L255.16 409.18 L255.54 406.52 L255.42 403.67 L255.28 400.77 L257.79 398.96 L258.89 396.57 L258.56 393.56 L261.73 392.10 L262.67 389.65 L263.27 387.04 L264.33 384.64 L265.18 382.13 L268.36 380.81 L268.19 377.78 L268.63 375.03 L270.25 372.93 L270.38 369.98 L270.15 366.80 L270.27 363.78 L271.61 361.47 L274.51 360.13 L273.36 356.26 L275.31 354.32 L277.70 352.69 L277.62 349.42 L278.74 346.93 L279.75 344.34 L281.89 342.56 L283.77 340.60 L284.52 337.81 L287.05 336.35 L289.35 334.75 L291.46 333.00 L292.76 330.62 L293.71 327.92 L297.44 327.57 L298.05 324.58 L298.87 321.72 L302.05 320.98 L303.88 319.04 L305.61 317.00 L306.97 314.60 L308.37 312.23 L310.56 310.63 L312.27 308.55 L316.30 308.87 L320.62 309.59 L325.86 311.41 L328.05 310.00 L328.64 306.81 L330.03 304.47 L329.25 299.56 L325.83 291.35 L326.67 288.09 L328.77 286.32 L328.98 282.16 L331.69 281.14 L337.29 283.98 L340.05 283.17 L341.71 280.87 L346.77 283.34 L350.84 284.57 L354.31 285.01 L356.64 283.82 L358.59 282.06 L361.36 281.59 L363.12 279.51 L361.63 272.06 L363.04 269.21 L366.00 268.95 L366.06 263.65 L366.73 259.25 L371.85 262.94 L373.85 260.95 L375.13 257.54 L378.56 258.28 L382.84 260.87 L385.76 260.80 L389.28 262.09 L391.28 260.15 L393.63 258.96 L396.21 258.27 L395.07 248.72 L396.40 244.77 L399.97 246.29 L400.70 240.59 L401.97 236.02 L406.74 240.96 L410.23 242.61 L411.58 238.08 L414.12 236.95 L418.40 241.34 L421.88 243.45 L424.79 243.85 L427.57 243.85 L430.20 243.40 L433.74 246.41 L436.77 247.71 L438.12 242.19 L440.37 240.13 L443.87 243.69 L446.61 243.94 L447.76 236.31 L450.76 237.70 L453.71 239.04 L455.16 231.67 L457.62 229.81 L460.73 232.15 L463.45 232.06 L466.56 235.13 L469.15 234.27 L471.82 234.08 L475.05 239.79 L477.43 236.84 L479.66 231.36 L482.36 231.45 L484.98 230.03 L487.23 219.98 L490.02 219.62 L492.87 221.34 L495.60 217.25 L498.43 217.81 L501.23 222.69 L503.96 225.52 L506.66 227.55 L509.35 228.64 L512.05 228.86 L514.72 229.83 L517.68 225.93 L520.94 219.18 L523.62 220.84 L526.63 218.86 L529.80 215.64 L532.39 218.17 L534.62 223.18 L537.88 219.93 L540.89 218.87 L543.02 223.65 L545.31 226.94 L547.74 229.08 L550.18 231.03 L553.06 230.56 L555.74 231.14 L558.77 230.14 L563.56 221.55 L566.22 222.71 L568.98 223.44 L573.09 218.96 L576.08 219.02 L577.45 224.90 L579.99 226.38 L583.58 224.38 L586.01 226.25 L587.30 231.58 L589.20 234.75 L591.16 237.64 L593.79 238.55 L596.16 240.14 L598.11 242.80 L602.73 238.57 L607.35 234.65 L608.72 238.80 L610.75 241.25 L613.06 242.98 L616.94 241.23 L617.02 247.79 L619.80 248.42 L626.68 240.69 L627.18 246.14 L628.74 249.31 L630.36 252.28 L632.59 254.05 L635.30 254.91 L637.23 257.19 L640.84 256.53 L647.31 251.11 L649.73 252.70 L652.08 254.40 L657.27 251.60 L660.66 251.77 L660.08 258.01 L663.09 258.73 L666.36 259.13 L667.70 262.30 L667.47 267.60 L668.26 271.36 L669.34 274.65 L672.27 275.47 L674.14 277.66 L674.83 281.32 L681.05 278.13 L686.57 275.97 L686.98 280.00 L691.07 279.69 L697.25 277.10 L696.15 282.76 L696.62 286.57 L700.99 286.16 L703.33 287.95 L702.60 292.90 L702.99 296.62 L703.98 299.67 L706.03 301.67 L708.01 303.73 L709.49 306.25 L714.92 305.19 L723.00 301.88 L723.26 305.61 L727.22 306.13 L731.88 306.12 L732.32 309.67 L729.82 315.53 L733.98 316.01 L737.03 317.42 L735.69 322.17 L733.93 327.15 L734.66 330.21 L734.34 333.98 L736.11 336.25 L736.53 339.44 L734.63 344.13 L737.83 345.41 L742.48 345.81 L742.28 349.33 L741.05 353.42 L746.53 353.43 L750.95 354.18 L750.01 358.06 L754.48 358.87 L760.62 358.85 L760.65 362.19 L760.67 365.49 L760.45 368.89 L761.98 371.39 L763.10 374.09 L764.02 376.87 L770.93 376.93 L778.48 376.85 L776.72 380.92 L781.67 382.12 L786.37 383.50 L783.96 387.78 L780.59 392.34 L785.52 393.71 L787.78 396.13 L783.84 400.75 L781.07 404.87 L780.44 408.19 L779.90 411.46 L781.24 414.12 L782.15 416.92 L784.92 419.19 L795.03 419.50 L794.73 422.74 L795.71 425.64 L801.86 427.29 L803.16 430.18 L798.40 434.41 L798.77 437.45 L802.02 439.92 L801.31 443.19 L797.28 447.02 L795.09 450.45 L793.59 453.71 L794.52 456.58 L794.59 459.58 L794.15 462.63 L803.08 464.57 L808.26 467.09 L805.00 470.52 L810.54 473.11 L814.70 475.92 L809.10 479.45 L805.60 482.76 L809.87 485.62 L810.30 488.71 L804.03 491.98 L801.05 495.07 L799.46 498.09 L798.00 501.08 L797.59 504.06 L795.39 506.98 L792.52 509.84 L796.32 512.94 L799.16 516.06 L795.55 518.83 L793.46 521.65 L798.25 525.00 L794.52 527.66 L792.89 530.46 L800.36 534.28 L803.07 537.66 L807.73 541.37 L817.01 545.85 L819.43 549.46 L821.52 553.09 L820.03 556.13 L817.63 558.99 L815.09 561.78 L814.57 564.96 L814.08 568.14 L811.98 570.96 L812.64 574.40 L811.41 577.41 L810.35 580.45 L809.68 583.59 L807.49 586.30 L803.01 588.32 L798.42 590.23 L793.03 591.81 L790.23 594.13 L788.79 596.87 L786.92 599.44 L790.14 603.82 L795.39 609.04 L793.02 611.51 L793.75 615.16 L795.86 619.42 L794.04 622.12 L788.26 623.11 L789.83 627.22 L791.44 631.42 L786.44 632.63 L781.97 634.00 L779.46 636.25 L775.94 637.96 L774.18 640.53 L772.20 642.97 L770.68 645.64 L776.52 652.37 L775.99 655.69 L773.67 658.02 L775.29 662.64 L776.49 667.11 L770.65 667.29 L767.69 669.19 L769.80 674.32 L767.58 676.70 L762.28 676.99 L758.78 678.43 L754.99 679.60 L752.95 681.98 L750.27 683.87 L744.47 683.40 L742.74 685.92 L745.02 691.59 L743.08 694.02 L737.15 693.20 L736.83 696.91 L740.47 704.04 L735.53 703.93 L733.20 706.04 L737.61 714.20 L734.56 715.74 L730.83 716.61 L727.98 718.26 L724.74 719.51 L722.32 721.54 L719.63 723.28 L718.36 726.47 L721.36 734.23 L719.01 736.43 L716.66 738.64 L716.85 743.69 L715.34 746.93 L710.07 745.81 L707.64 747.94 L707.64 753.03 L704.06 753.81 L699.11 752.79 L695.64 753.56 L691.36 753.21 L688.83 755.13 L685.80 756.35 L682.36 756.97 L684.04 764.92 L683.78 770.26 L679.66 769.98 L678.71 774.46 L678.53 780.27 L673.26 778.10 L668.76 777.01 L668.15 782.34 L666.31 785.70 L660.93 782.92 L656.89 782.35 L653.21 782.35 L649.74 782.67 L646.63 783.60 L643.13 783.76 L641.92 788.50 L641.86 795.80 L638.79 796.99 L636.13 799.05 L634.60 803.72 L632.00 806.09 L626.98 802.73 L624.56 805.48 L622.85 810.13 L618.70 808.63 L614.15 805.89 L610.75 806.08 L606.72 804.42 L603.74 805.69 L600.18 805.18 L595.49 801.04 L593.05 803.87 L591.31 809.19 L587.90 808.98 L583.65 805.61 L581.73 810.77 L579.60 815.45 L575.68 813.09 L573.28 817.00 L571.45 823.82 L567.84 822.75 L564.37 822.21 L560.81 821.12 L557.36 820.39 L554.10 820.61 L550.66 819.66 L548.16 824.90 L545.79 831.74 L542.20 830.03 L539.22 833.20 L536.23 836.78 L532.77 836.23 L529.00 831.84 L525.96 835.79 L522.80 838.92 L519.16 834.80 L515.66 831.84 L512.29 830.44 L508.92 828.13 L505.63 828.21 L502.35 827.56 L499.07 827.87 L495.69 835.73 L492.31 836.67 L488.97 835.90 L485.45 839.37 L481.91 842.03 L478.79 837.06 L475.52 835.52 L471.78 839.88 L468.40 839.45 L465.19 837.30 L461.88 836.42 L459.10 831.33 L455.56 832.58 L451.84 834.88 L449.05 830.77 L445.06 834.39 L440.19 842.61 L436.44 843.74 L433.50 840.58 L429.81 841.30 L426.26 841.23 L423.40 838.03 L419.82 838.10 L416.85 835.68 L413.98 832.93 L411.30 829.65 L409.81 822.31 L407.07 819.77 L403.73 819.30 L401.44 815.46 L399.27 811.41 L394.98 813.93 L391.00 815.32 L388.93 811.19 L386.39 808.52 L381.10 813.18 L377.78 812.47 L375.60 808.92 L370.35 812.89 L366.00 814.45 L363.70 811.18 L360.88 809.18 L358.82 805.56 L355.61 804.47 L352.89 802.34 L350.53 799.56 L344.04 804.88 L339.23 806.68 L337.38 802.81 L332.59 804.39 L327.47 806.39 L326.63 800.82 L325.04 796.69 L319.97 798.41 L316.01 798.20 L315.71 792.10 L314.08 788.26 L312.30 784.73 L310.15 781.82 L307.76 779.29 L305.73 776.29 L300.79 777.38 L293.91 780.98 L291.71 778.10 L287.96 777.29 L283.27 777.62 L280.27 775.74 L280.72 769.60 L276.52 769.21 L271.56 769.65 L271.14 764.74 L271.08 759.52 L268.93 756.74 L268.60 751.99 L266.14 749.61 L263.80 747.11 L262.08 743.98 L253.54 747.72 L249.94 746.37 L248.37 743.00 L243.48 742.82 L238.12 742.98 L239.32 737.05 L238.57 733.00 L233.01 733.21 L230.37 730.80 L231.57 725.16 L231.11 721.00 L230.53 717.01 L228.82 713.94 L227.60 710.53 L228.88 705.24 L227.77 701.83 L221.48 702.21 L218.95 699.78 L220.66 694.39 L217.92 692.14 L209.72 693.50 L210.50 688.83 L208.82 685.80 L199.91 687.29 L199.09 683.65 L200.14 678.91 L198.49 675.83 L199.17 671.43 L196.82 668.78 L192.08 667.41 L189.75 664.67 L181.03 665.23 L174.32 664.60 L172.88 661.24 L171.43 657.89 L167.96 655.49 L167.39 651.72 L167.66 647.60 L164.42 645.04 L165.47 640.63 L167.69 635.81 L170.12 630.98 L173.78 625.77 L172.09 622.66 L168.42 620.27 L166.58 617.18 L160.93 615.37 L151.56 614.68 L149.17 611.59 L149.98 607.49 L148.21 604.20 L146.57 600.85 L146.85 596.96 L145.36 593.57 L145.96 589.63 L146.68 585.70 L149.50 581.31 L154.47 576.53 L155.29 572.74 L153.42 569.52 L150.28 566.52 L146.84 563.52 L140.30 560.99 L134.03 558.30 L133.33 554.65 L134.83 550.70 L131.54 547.41 L133.27 543.46 L133.34 539.74 L132.07 536.16 L134.39 532.24 L137.21 528.34 L141.53 524.40 L145.64 520.56 L146.04 516.99 L146.40 513.43 L150.62 509.77 L149.70 506.29 L144.56 502.83 L144.25 499.28 L149.40 495.78 L147.51 492.23 L143.86 488.59 L149.76 485.27 L146.73 481.60 L141.76 477.75 L143.94 474.31 L142.79 470.63 L143.30 467.08 L143.90 463.54 L142.15 459.74 L140.96 455.97 L137.73 451.89 L131.37 447.29 L128.36 443.06 L128.60 439.29 L130.52 435.80 L128.23 431.57 L130.56 428.17 L131.85 424.59 L132.20 420.82 L135.66 417.75 L140.59 415.07 L146.46 412.72 L150.66 410.04 L150.73 406.33 L147.79 401.75 L148.85 398.25 L144.47 393.12 L138.19 387.27 L138.21 383.30 L142.10 380.59 L140.41 376.01 L142.37 372.67 L145.84 369.90 L145.15 365.61 L149.00 363.04 L153.45 360.77 L158.61 358.86 L165.04 357.58 L166.88 354.41 L166.20 350.12 L166.62 346.28 L164.18 341.07 L158.53 334.19 L157.16 329.27 L160.50 326.67 L161.58 322.94 L161.54 318.59 L165.46 316.36 L166.99 312.83 L169.77 310.03 L173.99 308.09 L179.32 306.88 L186.23 306.74 L190.40 305.01 L192.69 302.14 L195.94 299.90 L200.81 298.79 L200.89 294.47 L199.74 289.23 L203.23 287.22 L207.99 286.18 L207.09 280.99 L210.02 278.62 L214.55 277.53 L211.95 270.84 L212.86 266.83 L215.71 264.39 L216.05 259.85 L220.10 258.42 L222.38 255.50 L222.77 250.88 L225.11 247.97 L223.69 241.54 L219.57 232.38 L222.12 229.45 L225.74 227.58 L227.46 223.82 L229.93 220.79 L234.42 219.88 L236.27 216.20 L240.14 214.70 L244.96 214.31 L250.15 214.41 L256.85 216.40 L260.74 215.22 L262.57 211.60 L264.15 207.60 L265.09 202.73 L264.18 195.38 L264.05 188.82 L266.95 186.18 L270.98 185.08 L272.14 180.00 L276.59 179.51 L280.42 178.18 L283.10 175.19 L287.67 175.04 L293.26 176.58 L299.21 178.86 L304.44 180.14 L307.42 177.82 L308.97 173.04 L311.99 170.69 L312.81 164.38 L311.81 154.50 L314.68 151.51 L319.41 152.06 L321.30 147.12 L325.23 146.14 L329.82 146.58 L332.60 143.27 L337.09 143.63 L342.11 145.26 L347.12 147.06 L352.97 151.02 L357.13 151.21 L360.84 150.34 L365.42 151.75 L369.44 151.84 L371.47 146.54 L374.36 143.40 L379.13 145.67 L382.95 145.33 L384.90 139.16 L389.86 142.37 L393.53 141.60 L394.98 133.07 L399.16 133.86 L402.63 132.16 L405.70 128.77 L410.11 130.68 L413.45 128.30 L416.33 123.67 L420.12 122.94 L422.68 116.12 L425.16 108.23 L428.96 106.84 L433.26 108.26 L436.63 104.22 L440.68 104.17 L444.99 106.12 L448.65 103.38 L452.90 105.29 L457.31 109.07 L461.62 112.62 L465.99 117.80 L469.82 117.56 L473.49 115.05 L477.28 113.84 L480.92 109.10 L484.50 100.21 L488.43 97.81 L492.47 98.89 L496.48 97.74 L500.50 96.17 L504.51 98.71 L508.54 97.94 L512.52 99.24 L516.41 102.32 L520.18 106.52 L523.76 112.44 L527.48 114.90 L531.40 114.29 L535.52 111.81 L539.63 109.88 L544.20 104.35 L548.95 98.25 L553.05 98.12 L556.77 100.74 L561.35 97.44 L565.03 100.19 L568.78 102.29 L573.07 101.24 L576.47 105.03 L579.62 109.73 L582.60 114.81 L585.34 120.57 L588.99 122.05 L592.61 123.59 L595.38 128.39 L599.10 129.32 L604.32 124.86 L608.15 125.63 L610.41 131.67 L614.50 131.48 L619.66 128.02 L621.20 135.79 L625.63 134.72 L631.64 129.32 L635.11 131.30 L640.55 128.00 L646.74 123.07 L650.71 124.04 L654.11 126.42 L657.81 128.02 L662.29 127.88 L665.42 130.82 L668.90 132.92 L673.31 133.04 L676.65 135.47 L680.86 136.09 L683.44 139.99 L686.72 142.43 L691.73 141.61 L694.31 145.37 L697.67 147.65 L702.10 148.04 L705.73 149.88 L709.61 151.30 L712.08 155.04 L716.18 156.13 L720.48 156.96 L723.12 160.36 L726.63 162.43 L730.48 164.01 L734.76 165.00 L737.38 168.36 L739.55 172.31 L744.42 172.57 L747.61 175.13 L750.34 178.27 L754.61 179.44 L757.41 182.49 L761.62 183.81 L763.69 187.72 L766.35 190.89 L771.34 191.40 L773.36 195.30 L776.35 198.10 L780.32 199.85 L783.21 202.77 L787.00 204.76 L788.36 209.23 L791.68 211.71 L795.84 213.38 L797.09 217.88 L800.58 220.23 L803.63 223.01 L807.27 225.26 L809.86 228.47 L811.15 232.80 L815.72 234.31 L817.80 237.95 L819.89 241.55 L823.82 243.69 L825.46 247.64 L830.08 249.30 L831.34 253.53 L832.68 257.66 L837.55 259.25 L839.20 263.15 L841.58 266.53 L845.79 268.70 L847.70 272.42 L850.76 275.39 L851.83 279.64 L853.60 283.42 L857.01 286.21 L857.42 290.79 L860.39 293.87 L863.87 296.68 L865.40 300.59 L868.21 303.81 L869.10 308.05 L871.17 311.67 L873.76 315.03 L874.54 319.28 L877.71 322.39 L880.41 325.74 L882.65 329.32 L883.50 333.52 L884.01 337.84 L886.73 341.23 L887.62 345.38 L888.89 349.36 L893.03 352.26 L894.20 356.30 L896.25 360.03 L896.80 364.28 L897.35 368.52 L900.24 371.99 L899.88 376.50 L901.70 380.32 L904.75 383.81 L905.74 387.90 L907.12 391.89 L907.18 396.22 L908.81 400.15 L910.32 404.12 L909.77 408.56 L913.14 412.13 L914.42 416.19 L915.04 420.37 L915.98 424.49 L915.44 428.88 L917.58 432.80 L917.24 437.13 L917.70 441.33 L921.03 445.15 L920.88 449.44 L922.23 453.56 L921.70 457.88 L921.11 462.19 L923.16 466.26 L922.06 470.60 L922.97 474.78 L925.09 478.92 L924.76 483.19 L926.28 487.40 L924.94 491.69 L925.41 495.93 L956.22 500.00 L959.96 495.40 L960.14 490.80 L958.03 486.25 L958.66 481.64 L957.76 477.09 L958.60 472.45 L958.45 467.86 L955.93 463.45 L957.04 458.76 L955.58 454.29 L953.12 449.96 L953.17 445.36 L952.12 440.89 L953.77 436.05 L952.37 431.63 L950.70 427.27 L951.53 422.49 L949.00 418.30 L947.43 413.95 L946.60 409.47 L946.20 404.90 L946.83 400.08 L943.52 396.15 L943.51 391.47 L942.44 387.03 L939.46 383.10 L938.44 378.66 L936.48 374.49 L936.95 369.61 L935.32 365.34 L931.97 361.63 L932.07 356.82 L929.60 352.85 L926.99 348.96 L925.82 344.56 L923.79 340.48 L924.28 335.44 L921.85 331.51 L919.04 327.75 L918.08 323.24 L914.66 319.77 L912.37 315.85 L910.39 311.78 L909.14 307.39 L908.61 302.62 L904.88 299.40 L903.02 295.28 L900.84 291.32 L897.36 288.05 L895.85 283.75 L892.77 280.30 L891.81 275.66 L890.02 271.48 L885.84 268.71 L884.67 264.16 L881.34 260.92 L877.62 257.96 L875.98 253.67 L872.89 250.33 L871.55 245.81 L868.89 242.17 L865.07 239.38 L864.78 234.03 L860.79 231.37 L856.11 229.29 L855.55 224.05 L851.64 221.41 L849.56 217.32 L845.97 214.46 L842.23 211.74 L841.28 206.66 L836.36 204.99 L832.96 202.03 L830.87 197.88 L827.77 194.65 L824.85 191.24 L820.19 189.52 L818.40 185.02 L815.53 181.55 L810.43 180.37 L807.90 176.57 L803.99 174.21 L801.45 170.39 L797.60 167.99 L792.92 166.56 L791.67 161.21 L787.42 159.31 L782.98 157.69 L780.63 153.54 L775.86 152.37 L773.46 148.23 L769.02 146.71 L764.94 144.74 L762.99 139.91 L758.09 139.09 L753.69 137.65 L750.76 134.09 L746.94 131.83 L743.11 129.57 L738.33 128.82 L734.97 125.88 L732.04 122.21 L727.12 121.78 L723.62 119.04 L719.76 116.88 L716.74 113.25 L712.40 111.93 L707.39 111.93 L704.68 107.61 L700.37 106.32 L695.36 106.48 L691.77 103.82 L687.28 103.02 L684.03 99.58 L679.43 99.06 L674.57 99.22 L670.94 96.58 L666.73 95.30 L662.28 94.63 L658.28 92.88 L656.65 84.83 L654.10 78.90 L649.37 78.81 L647.48 70.54 L643.71 67.49 L637.01 73.45 L634.26 67.19 L630.16 65.10 L624.23 69.26 L619.89 68.14 L617.01 61.56 L612.53 60.75 L607.09 63.90 L602.50 63.81 L597.86 64.01 L592.20 69.13 L586.90 73.07 L581.79 76.53 L576.87 79.49 L572.97 76.91 L568.47 77.88 L563.85 79.79 L560.22 75.13 L555.56 77.65 L551.39 76.68 L547.93 69.19 L544.18 63.14 L539.96 61.10 L535.81 57.77 L531.41 57.13 L526.83 59.29 L522.11 65.14 L517.57 69.45 L513.16 72.89 L508.85 74.47 L504.61 73.12 L500.34 76.61 L496.09 75.58 L491.84 75.00 L487.64 76.89 L483.30 74.19 L478.67 66.75 L474.07 62.47 L469.63 61.83 L465.10 60.24 L460.74 61.02 L457.04 68.37 L453.21 73.23 L449.50 78.37 L445.65 81.70 L441.13 79.86 L437.40 83.53 L433.40 85.22 L428.62 82.19 L425.00 85.98 L420.84 86.64 L415.24 80.14 L409.76 74.98 L405.70 76.74 L400.56 73.78 L396.06 73.79 L392.72 78.45 L387.81 76.93 L383.52 77.81 L379.81 80.76 L373.48 74.78 L369.56 77.12 L366.73 82.83 L360.98 79.36 L357.36 82.47 L354.55 87.78 L349.69 87.20 L344.20 85.08 L340.88 88.78 L337.98 93.42 L334.39 96.19 L331.09 99.60 L329.94 107.88 L327.85 113.68 L325.65 119.05 L323.03 123.32 L318.33 123.15 L315.87 127.61 L312.92 130.97 L307.41 129.34 L305.30 134.27 L301.33 135.65 L293.13 129.47 L286.99 127.29 L283.10 129.13 L277.82 128.68 L274.08 130.85 L272.82 136.99 L272.13 143.86 L271.03 149.91 L269.35 154.93 L265.37 156.46 L262.73 159.94 L261.08 164.77 L255.77 164.47 L254.02 169.08 L250.68 171.49 L243.93 169.52 L236.86 167.31 L231.87 167.89 L227.12 168.83 L223.21 170.85 L221.36 175.30 L222.45 183.04 L222.11 188.98 L221.20 194.18 L219.34 198.25 L215.12 199.79 L214.03 204.62 L211.04 207.43 L207.51 209.72 L206.00 214.01 L202.88 216.70 L193.84 213.87 L187.31 213.57 L184.27 216.54 L179.80 218.26 L176.98 221.46 L176.00 226.22 L171.63 228.10 L169.81 232.12 L165.52 234.14 L158.27 233.91 L158.72 239.70 L156.67 243.53 L151.23 244.86 L152.27 250.91 L151.41 255.53 L145.63 256.73 L141.59 259.20 L142.68 265.08 L141.74 269.56 L139.98 273.48 L140.59 278.85 L144.22 285.97 L145.99 291.82 L146.31 296.74 L145.64 301.05 L143.29 304.39 L143.85 309.31 L140.07 311.89 L138.24 315.52 L138.60 320.23 L133.77 322.37 L124.85 322.66 L119.57 324.79 L116.65 328.07 L113.15 331.13 L112.19 335.31 L116.19 341.52 L118.65 346.98 L120.41 352.08 L121.64 356.90 L118.53 360.06 L119.90 364.86 L119.71 369.07 L115.78 371.99 L118.47 377.11 L116.51 380.70 L107.49 382.19 L101.63 384.76 L100.55 388.76 L95.96 391.83 L93.99 395.64 L97.43 400.80 L102.28 406.21 L105.50 411.12 L108.04 415.80 L106.59 419.60 L106.16 423.61 L107.33 427.90 L103.91 431.36 L105.97 435.77 L105.18 439.69 L100.93 443.11 L94.02 446.27 L90.30 449.94 L88.04 453.84 L85.57 457.75 L86.22 461.99 L86.18 466.16 L84.79 470.22 L87.16 474.54 L81.30 478.38 L78.60 482.46 L85.39 486.90 L81.04 490.95 L79.50 495.13 L85.23 499.34 L85.56 503.48 L79.95 507.73 L80.17 511.93 L84.88 515.95 L86.12 520.05 L87.15 524.14 L92.50 527.92 L98.24 531.57 L101.74 535.30 L104.95 539.00 L104.79 543.01 L105.62 546.92 L108.20 550.59 L106.40 554.83 L110.32 558.26 L110.99 562.14 L106.10 566.97 L101.66 571.83 L99.83 576.30 L98.15 580.79 L97.91 585.03 L101.02 588.55 L108.23 591.07 L113.15 594.02 L116.01 597.40 L118.66 600.79 L119.41 604.68 L122.38 607.94 L123.10 611.82 L124.25 615.58 L128.11 618.47 L127.94 622.64 L121.33 629.03 L118.41 634.30 L119.18 638.32 L118.40 642.94 L119.90 646.73 L127.51 648.09 L133.09 650.14 L138.21 652.28 L142.68 654.63 L142.58 658.93 L146.09 661.63 L148.74 664.68 L148.83 668.95 L151.66 671.89 L154.18 674.97 L150.54 681.23 L145.76 688.23 L147.72 691.73 L146.51 696.99 L148.10 700.74 L153.02 702.56 L155.52 705.75 L161.03 707.08 L164.01 709.91 L158.99 717.81 L161.97 720.70 L166.93 722.24 L162.94 729.81 L165.07 733.29 L171.56 733.69 L173.32 737.39 L171.79 743.56 L175.49 745.88 L181.95 746.03 L185.15 748.63 L188.53 751.05 L193.01 752.55 L197.85 753.68 L203.98 753.62 L206.33 756.75 L206.06 762.21 L210.70 763.32 L217.27 762.55 L217.17 767.96 L217.70 772.87 L221.90 774.24 L223.39 778.28 L220.07 787.31 L224.17 788.83 L227.41 791.21 L230.65 793.58 L235.86 793.74 L239.85 795.19 L245.76 794.36 L250.92 794.29 L251.81 799.26 L253.79 802.99 L260.26 801.13 L262.87 804.04 L264.24 808.59 L267.02 811.36 L270.62 813.02 L269.97 820.60 L271.29 825.57 L275.56 826.39 L279.32 827.90 L283.55 828.65 L288.32 828.53 L293.01 828.41 L299.33 825.56 L301.54 829.29 L302.84 834.66 L308.13 833.26 L313.57 831.44 L315.07 836.60 L316.97 841.18 L321.82 840.27 L323.52 845.37 L323.52 854.08 L328.06 853.77 L331.91 854.84 L335.51 856.40 L340.20 855.55 L344.30 855.92 L348.75 855.37 L351.05 859.92 L352.83 865.92 L357.70 864.31 L361.05 866.49 L362.71 873.33 L367.33 872.23 L372.13 870.44 L374.98 874.25 L377.74 878.55 L382.73 875.91 L387.37 874.17 L391.29 874.69 L395.54 873.96 L401.27 867.60 L405.81 865.23 L409.84 864.67 L413.86 863.98 L417.30 865.70 L421.53 863.88 L425.02 865.40 L428.60 866.54 L432.84 864.14 L436.18 866.51 L438.53 875.21 L441.72 879.48 L446.06 876.28 L449.44 879.64 L453.10 881.26 L457.47 876.84 L461.36 876.03 L465.34 874.12 L469.11 874.09 L472.55 878.60 L476.45 877.06 L480.49 872.11 L484.09 875.04 L487.75 878.08 L491.56 877.00 L495.32 877.68 L499.08 886.05 L502.93 885.46 L506.77 884.47 L510.61 884.17 L514.32 880.62 L518.04 878.57 L521.61 874.64 L525.04 869.83 L528.98 872.66 L532.97 875.33 L536.21 869.80 L539.85 868.90 L543.80 870.71 L547.80 872.56 L551.24 870.01 L555.88 875.80 L560.22 878.89 L563.75 876.77 L567.39 875.44 L570.81 873.00 L574.20 870.56 L577.51 867.94 L580.68 864.88 L585.83 870.56 L590.05 871.82 L592.78 867.02 L597.60 870.45 L602.36 873.33 L604.58 866.98 L607.87 864.64 L612.92 868.14 L616.96 868.16 L618.90 861.69 L621.79 858.36 L625.41 857.23 L627.88 852.93 L630.72 849.81 L632.52 844.10 L635.03 840.42 L639.53 841.77 L643.40 841.44 L644.92 835.63 L649.34 836.57 L654.39 838.78 L657.59 836.84 L660.89 835.11 L667.18 839.47 L671.09 838.81 L673.42 835.05 L676.29 832.43 L678.77 829.10 L680.76 824.98 L682.47 820.46 L682.87 813.82 L687.03 813.70 L692.10 815.00 L693.05 809.57 L693.82 803.98 L698.98 805.30 L703.65 805.74 L704.95 801.11 L710.71 803.01 L717.61 806.37 L719.57 802.67 L721.73 799.29 L724.74 797.10 L725.24 791.65 L727.02 787.96 L727.32 782.48 L728.98 778.79 L734.11 779.30 L736.53 776.52 L736.44 770.88 L740.03 769.51 L744.75 769.34 L747.07 766.48 L749.61 763.89 L757.72 767.05 L760.45 764.54 L762.71 761.55 L765.11 758.71 L766.03 754.47 L767.66 750.95 L768.05 746.33 L769.75 742.96 L778.46 745.80 L780.33 742.51 L779.30 736.77 L787.60 738.91 L790.91 736.78 L788.88 730.37 L791.09 727.41 L797.69 727.81 L799.05 724.14 L797.34 718.25 L798.26 714.37 L799.88 711.02 L799.58 706.36 L799.22 701.73 L797.64 696.36 L799.16 693.10 L804.27 692.11 L804.33 687.92 L803.21 683.07 L809.26 682.52 L812.96 680.52 L813.69 676.78 L817.61 674.83 L824.96 674.66 L824.66 670.34 L825.30 666.55 L826.65 663.14 L825.14 658.34 L825.24 654.38 L822.91 649.34 L820.83 644.50 L824.71 642.36 L828.47 640.11 L824.67 634.67 L825.75 631.31 L829.43 628.98 L832.13 626.22 L831.99 622.39 L839.50 621.31 L844.72 619.30 L844.54 615.40 L844.76 611.65 L843.24 607.38 L838.73 602.26 L835.66 597.68 L832.62 593.20 L831.60 589.35 L832.48 586.03 L833.18 582.66 L833.67 579.25 L834.37 575.89 L834.12 572.33 L834.69 568.96 L834.97 565.53 L833.33 561.75 L832.00 558.08 L831.29 554.55 L832.57 551.35 L835.54 548.38 L846.41 546.41 L850.96 543.45 L854.34 540.28 L863.03 537.59 L861.61 533.79 L858.52 529.89 L863.74 526.67 L861.52 522.87 L857.91 519.05 L861.25 515.61 L864.59 512.10 L861.17 508.38 L858.52 504.73 L857.58 501.14 L854.80 497.58 L852.72 494.07 L848.61 490.65 L840.46 487.46 L841.42 484.01 L846.20 480.31 L841.41 477.15 L835.68 474.16 L838.90 470.50 L843.89 466.60 L839.40 463.61 L844.11 459.62 L851.88 455.14 L850.29 451.77 L848.96 448.40 L847.58 445.04 L843.88 442.10 L840.50 439.16 L834.17 436.83 L831.63 433.87 L834.72 429.77 L833.38 426.56 L826.70 424.60 L826.79 421.13 L831.34 416.52 L830.09 413.31 L828.15 410.31 L836.77 404.32 L836.90 400.63 L835.44 397.41 L833.74 394.26 L830.31 391.71 L827.05 389.14 L821.46 387.44 L814.63 386.29 L814.61 382.72 L818.41 377.67 L811.71 376.65 L807.06 374.92 L809.58 370.27 L811.54 365.77 L807.14 364.01 L811.99 358.11 L815.73 352.59 L813.40 349.84 L811.55 346.88 L809.35 344.10 L805.61 342.13 L802.47 339.90 L798.76 338.02 L802.11 332.27 L803.18 327.69 L798.12 326.60 L799.80 321.59 L802.10 316.10 L796.12 315.66 L793.06 313.47 L794.33 308.50 L794.08 304.45 L787.52 304.64 L784.08 302.79 L781.41 300.45 L776.19 299.97 L773.22 297.93 L766.74 298.56 L760.93 298.82 L760.79 294.74 L761.31 290.06 L754.24 291.53 L751.06 289.90 L751.86 284.91 L751.34 280.97 L747.30 280.10 L751.03 272.25 L751.96 266.77 L748.85 264.99 L745.96 263.02 L742.80 261.34 L738.79 260.53 L734.58 260.00 L728.35 261.65 L726.40 258.91 L726.96 253.42 L722.41 253.45 L717.09 254.46 L718.65 247.65 L717.19 244.22 L712.97 244.04 L713.49 238.13 L714.15 231.89 L709.65 232.08 L706.25 230.93 L703.29 229.22 L698.87 229.51 L694.67 229.60 L688.83 232.10 L684.79 232.19 L683.48 228.32 L681.32 225.64 L675.16 229.11 L674.55 224.04 L674.32 218.20 L670.58 217.98 L668.13 215.65 L669.08 207.40 L666.45 205.19 L662.76 204.86 L659.54 203.75 L655.82 203.58 L651.90 203.89 L647.64 204.97 L642.00 209.01 L644.14 196.96 L641.26 195.19 L635.55 199.67 L633.59 195.96 L630.08 195.72 L626.52 195.66 L621.88 198.35 L620.90 191.94 L619.85 185.39 L616.02 186.05 L612.41 186.21 L609.00 185.86 L604.90 187.61 L600.82 189.51 L596.04 193.84 L592.55 194.32 L590.64 189.46 L587.23 189.63 L582.62 194.32 L579.89 192.23 L577.98 186.74 L574.60 187.01 L571.31 186.97 L570.25 176.73 L567.15 175.39 L563.81 175.18 L560.56 174.56 L556.80 176.81 L553.28 177.99 L549.53 180.87 L545.61 185.43 L542.71 183.14 L540.11 178.16 L536.27 183.14 L532.84 185.32 L530.01 181.67 L527.00 179.22 L523.64 181.00 L520.89 174.00 L517.82 170.26 L514.45 171.57 L511.14 172.30 L507.80 174.69 L504.52 177.06 L501.27 180.35 L498.12 186.80 L494.99 187.25 L491.73 182.20 L488.63 184.56 L485.49 184.95 L481.76 174.82 L478.47 174.39 L475.28 175.42 L471.61 170.79 L468.08 168.58 L465.46 175.41 L462.32 176.68 L459.10 177.20 L456.47 181.96 L453.27 182.22 L450.64 186.20 L447.29 185.44 L442.83 178.56 L439.97 181.04 L437.16 183.53 L432.52 177.10 L429.56 179.01 L427.48 184.60 L423.93 183.69 L419.61 179.87 L417.10 183.29 L415.03 188.15 L412.23 190.15 L409.67 192.84 L407.23 195.81 L405.36 200.44 L404.49 207.89 L401.37 208.26 L396.80 204.52 L395.06 208.92 L394.50 216.29 L390.08 213.23 L385.45 209.84 L383.97 214.50 L379.62 212.09 L373.20 205.05 L370.61 207.13 L367.93 208.99 L365.05 210.36 L363.88 215.31 L361.56 217.76 L361.05 223.74 L359.55 227.58 L355.36 226.21 L352.43 227.30 L352.21 233.31 L347.87 231.83 L342.77 229.18 L340.54 231.56 L337.59 232.73 L331.46 228.78 L328.78 230.51 L327.07 233.75 L324.75 235.99 L323.08 239.18 L321.86 242.95 L321.71 248.14 L322.83 254.97 L319.32 255.30 L317.09 257.40 L318.44 264.13 L316.29 266.21 L310.55 263.81 L309.47 267.27 L305.41 267.10 L297.25 262.20 L293.27 262.39 L290.67 264.20 L287.13 264.99 L285.72 268.14 L286.71 273.80 L287.13 278.71 L287.20 283.17 L285.12 285.39 L282.55 287.12 L280.94 289.79 L278.55 291.72 L275.64 293.16 L274.80 296.52 L274.02 299.88 L270.55 300.87 L269.14 303.65 L268.58 307.14 L266.04 308.95 L265.06 312.04 L263.23 314.42 L262.39 317.57 L262.50 321.40 L259.80 323.11 L259.10 326.27 L258.16 329.25 L255.70 331.15 L254.52 333.93 L251.72 335.64 L250.78 338.58 L250.47 341.89 L247.14 343.30 L247.18 346.81 L246.35 349.75 L243.94 351.76 L241.60 353.83 L239.42 356.02 L238.89 359.12 L237.04 361.50 L234.31 363.44 L235.52 367.39 L233.99 369.93 L232.59 372.54 L231.64 375.37 L230.63 378.16 L232.09 382.03 L229.66 384.17 L229.00 387.09 L229.77 390.56 L227.46 392.79 L226.08 395.40 L224.45 397.92 L225.02 401.25 L225.76 404.60 L223.82 407.01 L224.61 410.33 L224.62 413.37 L222.89 415.86 L221.13 418.36 L219.86 421.03 L220.77 424.29 L220.45 427.19 L218.46 429.67 L220.21 433.08 L218.57 435.65 L216.31 438.12 L215.16 440.84 L213.19 443.42 L214.30 446.60 L213.36 449.39 L212.00 452.11 L212.94 455.21 L212.32 458.06 L212.21 460.98 L210.66 463.71 L210.49 466.62 L213.39 469.86 L211.24 472.55 L211.12 475.45 L211.59 478.39 L211.42 481.28 L210.94 484.15 L211.25 487.06 L212.06 489.98 L213.27 492.89 L213.28 495.76 L212.91 498.63 L212.81 501.50 L214.47 504.35 L212.74 507.25 L211.51 510.17 L214.07 512.94 L214.55 515.78 L213.05 518.74 L214.04 521.55 L215.06 524.34 L215.74 527.15 L214.28 530.18 L214.77 533.01 L217.87 535.51 L216.75 538.54 L216.62 541.44 L218.23 544.09 L218.33 546.97 L219.44 549.67 L218.89 552.67 L220.09 555.35 L223.72 557.51 L222.75 560.61 L223.46 563.36 L224.45 566.04 L225.82 568.62 L225.34 571.66 L225.76 574.49 L228.32 576.72 L229.97 579.18 L230.24 582.04 L232.65 584.23 L233.12 587.03 L233.30 589.93 L233.66 592.78 L234.04 595.65 L237.12 597.52 L237.38 600.42 L237.85 603.26 L242.11 604.57 L241.91 607.67 L241.35 610.95 L242.86 613.36 L240.75 617.40 L242.35 619.79 L241.88 623.17 L237.54 628.48 L240.46 630.28 L243.29 632.09 L238.75 637.75 L240.58 640.12 L245.77 640.61 L246.20 643.71 L243.33 648.75 L246.48 650.33 L252.20 650.30 L254.36 652.37 L256.45 654.47 L260.22 655.47 L264.66 655.95 L269.62 656.00 L270.15 659.01 L269.49 662.91 L273.21 663.70 L278.72 663.11 L272.13 671.52 L273.41 674.13 L279.58 672.92 L274.47 680.60 L273.23 685.34 L278.63 684.66 L281.98 685.59 L283.49 688.07 L286.90 688.88 L291.00 689.02 L295.94 688.29 L297.90 690.25 L298.70 693.34 L300.88 695.11 L305.69 694.24 L304.35 699.53 L303.75 704.19 L308.22 703.58 L308.29 707.63 L306.36 713.97 L309.28 715.03 L313.90 714.09 L316.03 715.96 L318.77 717.10 L322.86 716.57 L327.01 715.87 L331.51 714.62 L332.46 717.85 L333.31 721.29 L337.83 719.84 L341.61 719.27 L338.40 728.49 L340.90 729.79 L345.87 727.45 L343.27 736.33 L343.91 740.55 L349.26 737.48 L351.76 738.79 L351.03 745.41 L355.28 743.87 L359.25 742.67 L361.17 744.98 L362.70 748.03 L365.06 749.63 L369.88 746.58 L371.86 748.81 L371.77 755.22 L375.63 753.84 L379.60 752.08 L380.91 755.90 L382.01 760.30 L386.53 757.13 L390.23 755.64 L392.96 756.33 L396.28 755.53 L399.70 754.37 L403.46 752.20 L407.13 750.08 L409.02 752.70 L410.75 755.90 L414.71 752.66 L417.67 752.17 L417.43 761.73 L420.54 760.96 L423.82 759.48 L424.18 768.13 L426.44 770.43 L430.15 767.31 L433.26 766.30 L435.88 767.14 L438.98 765.91 L442.49 762.64 L445.80 759.91 L448.13 761.82 L450.28 764.82 L453.42 762.57 L456.64 759.45 L457.97 767.98 L460.52 769.27 L463.89 764.73 L465.68 771.88 L467.87 776.77 L471.12 772.52 L474.01 771.14 L476.68 771.84 L479.60 769.47 L482.45 767.27 L485.34 763.56 L488.06 761.88 L490.60 763.99 L493.23 764.84 L495.94 760.59 L498.53 763.13 L501.19 768.70 L503.85 766.68 L506.52 767.04 L509.44 774.03 L512.16 773.64 L514.66 769.07 L517.56 772.14 L520.50 774.99 L522.88 770.40 L525.48 769.01 L528.21 769.12 L531.23 771.70 L533.57 768.39 L535.65 763.62 L539.06 768.57 L542.16 770.86 L543.95 764.85 L546.47 763.72 L550.07 768.40 L552.91 768.70 L554.30 761.93 L556.61 759.94 L559.33 759.90 L561.25 756.49 L563.18 753.32 L564.86 749.40 L567.28 748.49 L570.22 749.42 L572.64 748.46 L573.99 743.99 L577.70 747.32 L581.64 751.03 L582.93 746.59 L586.39 748.61 L590.89 753.38 L592.87 750.96 L594.18 746.89 L596.54 745.66 L598.79 744.21 L600.21 740.74 L601.40 736.91 L602.72 733.51 L606.15 734.90 L608.67 734.21 L609.59 730.14 L611.43 728.10 L617.05 733.64 L618.55 730.84 L619.57 727.21 L625.59 732.96 L628.83 733.37 L628.48 727.33 L630.49 725.59 L632.81 724.38 L633.39 720.32 L634.39 717.04 L634.95 713.14 L637.43 712.33 L640.51 712.40 L641.36 709.12 L641.91 705.47 L647.13 708.54 L650.66 709.07 L650.74 704.83 L655.52 706.96 L660.80 709.59 L660.68 705.16 L661.88 702.49 L666.69 704.27 L669.20 703.16 L667.57 697.17 L670.09 696.12 L672.49 694.91 L675.35 694.20 L674.83 689.78 L673.91 685.03 L680.57 688.31 L682.79 686.85 L681.37 681.73 L683.55 680.26 L689.07 682.00 L689.46 678.77 L688.03 673.90 L688.94 671.27 L690.54 669.27 L689.79 665.25 L689.34 661.55 L688.79 657.85 L691.08 656.54 L694.19 655.87 L694.08 652.62 L692.81 648.52 L700.34 651.16 L702.61 649.71 L700.79 645.29 L707.64 647.10 L712.87 647.63 L710.13 642.64 L710.59 639.90 L712.38 638.04 L711.82 634.69 L710.95 631.19 L709.32 627.29 L710.48 625.13 L713.22 623.89 L714.28 621.66 L712.20 617.69 L715.84 616.90 L720.95 616.83 L719.55 613.29 L721.78 611.65 L729.32 612.58 L729.30 609.74 L726.76 605.75 L727.80 603.48 L726.05 599.96 L722.19 595.61 L719.43 591.83 L718.38 588.84 L718.80 586.47 L719.50 584.22 L719.25 581.62 L720.33 579.52 L720.46 577.09 L720.03 574.47 L722.63 572.88 L725.29 571.27 L726.94 569.30 L729.63 567.62 L731.62 565.69 L732.67 563.49 L732.80 561.03 L732.88 558.56 L733.86 556.33 L736.17 554.40 L735.08 551.67 L733.81 548.95 L734.84 546.72 L736.45 544.58 L733.22 541.57 L733.00 539.13 L736.84 537.34 L736.22 534.82 L733.46 532.04 L731.70 529.44 L733.18 527.26 L734.40 525.03 L729.01 522.14 L730.69 519.97 L736.81 518.12 L735.38 515.65 L730.72 513.02 L731.00 510.72 L734.11 508.52 L732.76 506.14 L727.65 503.73 L732.12 501.48 L735.76 499.14 L734.13 496.81 L729.92 494.57 L730.61 492.24 L733.96 489.79 L731.09 487.59 L728.40 485.45 L732.79 482.83 L735.60 480.25 L732.69 478.15 L728.27 476.26 L732.53 473.46 L732.45 471.11 L727.27 469.45 L727.54 467.09 L732.10 464.06 L731.76 461.74 L725.75 460.40 L724.67 458.27 L729.94 454.91 L728.66 452.78 L722.81 451.66 L724.28 448.99 L727.40 445.88 L725.40 443.97 L717.92 443.51 L717.95 441.17 L724.01 437.13 L719.75 435.95 L716.57 434.52 L719.60 431.20 L720.56 428.47 L716.99 427.22 L711.50 426.70 L713.65 423.55 L716.54 420.06 L710.12 420.04 L709.79 417.75 L713.01 414.02 L711.69 412.08 L705.85 412.09 L703.42 410.71 L705.38 407.39 L704.69 405.23 L699.08 405.39 L699.94 402.52 L704.08 397.97 L701.03 396.96 L695.56 397.29 L694.23 395.49 L696.14 391.92 L693.83 390.65 L689.36 390.67 L690.69 387.34 L692.74 383.51 L690.28 382.39 L685.08 383.03 L685.06 380.43 L686.64 376.75 L681.98 377.20 L679.64 376.14 L682.37 371.55 L680.53 370.13 L677.33 369.72 L673.72 369.68 L673.50 367.11 L674.81 363.31 L670.29 364.08 L669.44 361.96 L672.34 356.71 L672.63 353.52 L666.35 355.97 L663.98 355.12 L667.68 348.84 L663.51 349.61 L658.18 351.56 L658.44 348.31 L659.97 343.75 L658.69 341.87 L652.13 345.35 L651.00 343.39 L653.74 337.33 L649.21 338.93 L644.95 340.35 L646.27 335.63 L645.54 333.11 L642.17 333.65 L637.47 335.85 L638.00 331.83 L637.53 328.94 L632.27 332.07 L631.10 330.09 L631.82 325.57 L630.48 323.71 L626.52 325.43 L623.30 326.25 L624.30 321.07 L622.78 319.44 L616.47 324.97 L614.64 323.93 L616.87 316.52 L613.15 318.38 L607.92 322.86 L607.12 320.15 L607.59 315.18 L605.70 314.16 L600.31 319.48 L599.84 316.00 L601.10 309.15 L597.01 312.37 L592.89 315.84 L592.46 312.04 L591.29 309.65 L588.36 310.92 L584.61 314.13 L584.78 308.70 L584.32 304.49 L580.15 308.91 L577.74 309.34 L577.44 304.52 L575.74 303.08 L571.77 307.68 L569.51 307.88 L569.73 301.08 L567.41 301.37 L563.46 306.66 L561.89 304.89 L561.23 300.06 L559.10 299.88 L555.47 305.00 L553.92 303.02 L553.67 295.94 L551.64 295.34 L547.89 301.88 L546.56 298.57 L545.81 292.39 L543.14 294.74 L539.93 300.11 L538.50 296.70 L537.19 292.28 L534.55 295.23 L531.74 299.73 L530.38 295.09 L528.85 291.00 L526.02 296.46 L523.69 298.76 L522.25 293.17 L520.26 292.13 L517.61 298.45 L515.50 299.49 L513.86 293.89 L511.84 293.14 L509.47 299.34 L507.47 299.03 L505.65 292.16 L503.56 292.93 L501.43 299.86 L499.43 299.31 L497.35 293.25 L495.30 294.06 L493.50 302.00 L491.43 299.98 L489.18 295.48 L487.41 299.89 L485.76 304.79 L483.58 302.26 L481.27 298.81 L479.42 300.60 L477.94 305.35 L475.46 301.24 L473.05 298.34 L472.01 305.38 L470.24 306.81 L467.66 303.13 L465.65 303.26 L464.59 308.47 L462.82 309.59 L459.40 302.61 L457.71 304.33 L457.16 310.94 L454.86 309.64 L451.91 305.87 L450.17 307.11 L450.07 314.43 L447.87 313.68 L443.91 306.99 L442.96 310.82 L442.75 316.78 L440.06 314.69 L437.06 311.86 L435.75 314.15 L435.66 319.73 L432.36 316.31 L428.71 312.22 L427.83 315.49 L427.62 320.27 L423.88 316.30 L421.02 314.67 L421.89 321.67 L420.90 324.22 L417.04 320.45 L415.03 320.84 L415.60 326.53 L414.39 328.44 L408.99 322.09 L407.42 323.40 L409.34 331.18 L406.83 330.59 L402.17 326.26 L401.82 329.65 L403.79 336.86 L401.50 336.72 L395.78 331.09 L395.96 335.09 L397.74 341.45 L394.13 339.40 L390.61 337.62 L390.87 341.45 L391.89 346.24 L388.46 344.70 L382.11 339.26 L384.41 345.67 L385.28 349.97 L378.84 344.79 L376.60 345.14 L379.42 351.75 L379.52 354.87 L373.99 351.25 L371.83 351.73 L375.70 359.09 L374.97 361.09 L369.38 357.76 L368.32 359.45 L371.54 365.60 L370.37 367.07 L364.30 363.60 L364.36 366.36 L368.05 372.57 L365.34 372.53 L358.75 368.94 L358.06 370.93 L361.50 376.56 L357.69 375.70 L352.32 373.58 L354.99 378.36 L358.54 383.73 L354.07 382.48 L350.35 381.94 L352.27 385.83 L354.81 390.09 L350.07 388.84 L347.44 389.24 L350.70 393.87 L351.33 396.54 L345.35 394.66 L341.74 394.50 L345.86 399.46 L345.22 401.23 L338.35 399.11 L337.94 401.09 L344.36 407.13 L342.94 408.41 L336.70 406.94 L336.72 409.10 L342.38 414.31 L340.31 415.24 L334.48 414.25 L335.61 416.92 L340.49 421.37 L337.19 421.76 L330.09 420.43 L331.78 423.27 L335.46 426.92 L330.91 426.92 L326.36 427.00 L331.40 431.10 L334.75 434.39 L329.66 434.33 L327.21 435.36 L331.12 438.75 L333.40 441.45 L327.38 441.27 L326.76 442.98 L331.94 446.54 L332.03 448.42 L324.32 447.96 L324.09 449.80 L331.08 453.62 L328.19 454.67 L321.55 454.82 L322.68 456.99 L330.68 460.72 L327.90 461.88 L319.40 461.89 L319.37 463.77 L328.02 467.29 L324.68 468.47 L319.91 469.46 L325.60 472.22 L331.86 474.94 L328.02 476.12 L321.19 476.99 L326.04 479.38 L328.67 481.43 L321.91 482.50 L320.42 484.16 L326.33 486.43 L328.25 488.31 L322.07 489.68 L317.49 491.24 L325.01 493.35 L327.69 495.18 L319.50 496.76 L323.07 498.59 L331.42 500.34 L331.62 502.03 L323.35 503.89 L324.48 505.63 L331.50 507.09 L327.31 508.99 L322.26 511.04 L324.70 512.65 L332.55 513.77 L329.03 515.78 L321.69 518.26 L324.25 519.77 L332.26 520.57 L327.63 522.89 L325.51 524.95 L332.53 525.66 L337.31 526.59 L332.90 529.03 L328.33 531.60 L334.82 532.12 L335.84 533.63 L329.41 536.72 L329.98 538.38 L337.41 538.42 L337.96 540.00 L331.09 543.50 L329.09 545.84 L338.07 545.17 L338.90 546.68 L332.12 550.47 L337.08 550.76 L345.47 549.85 L345.02 551.71 L340.61 554.96 L343.26 555.80 L348.35 555.71 L345.30 558.59 L341.53 561.84 L344.56 562.45 L348.59 562.60 L345.48 565.70 L344.27 568.06 L350.44 567.15 L353.62 567.49 L350.02 570.98 L348.40 573.61 L353.33 573.04 L354.24 574.41 L350.59 578.17 L352.38 579.13 L359.50 577.13 L360.05 578.66 L355.27 583.26 L356.19 584.66 L362.15 583.01 L361.23 585.47 L357.35 589.84 L361.63 589.09 L368.24 586.71 L366.93 589.49 L363.08 594.08 L365.46 594.44 L370.59 592.78 L368.53 596.27 L366.70 599.67 L372.09 597.65 L376.48 596.27 L374.07 600.18 L372.26 603.73 L376.25 602.56 L378.90 602.43 L376.12 606.92 L377.14 608.20 L383.15 605.00 L385.12 605.33 L381.97 610.40 L382.39 612.24 L387.29 609.74 L387.73 611.51 L384.75 616.79 L388.09 615.70 L394.19 611.60 L394.13 613.92 L391.05 619.62 L392.72 620.18 L398.02 616.57 L397.33 619.75 L395.48 624.41 L399.65 621.90 L404.64 618.22 L403.43 622.20 L401.83 626.81 L404.78 625.57 L408.24 623.56 L406.98 627.92 L407.18 630.35 L411.95 626.31 L414.69 625.02 L413.16 630.05 L413.22 632.81 L417.13 629.64 L418.49 630.36 L417.12 635.55 L419.16 635.24 L424.17 629.80 L425.21 631.00 L423.46 637.24 L424.88 637.91 L429.10 633.33 L429.43 635.97 L428.30 641.59 L431.53 638.63 L435.86 633.20 L435.98 636.43 L435.08 642.02 L437.28 640.92 L440.66 637.00 L440.52 641.18 L440.72 644.72 L444.18 640.26 L447.04 637.04 L446.94 641.49 L447.14 645.37 L449.89 642.21 L451.97 640.78 L451.77 646.14 L453.26 646.55 L456.69 640.63 L458.37 640.13 L458.20 646.04 L459.44 647.26 L462.29 642.47 L463.46 643.84 L463.51 649.93 L465.75 647.10 L468.78 640.44 L469.79 642.59 L469.99 649.01 L471.62 648.56 L474.20 642.77 L475.14 645.89 L475.88 650.68 L478.08 646.24 L480.36 640.66 L481.26 644.77 L482.17 649.42 L483.98 646.71 L485.80 643.34 L486.85 647.82 L488.19 649.60 L490.11 643.63 L491.69 641.27 L492.85 646.54 L494.24 648.59 L495.86 643.89 L497.30 643.84 L498.69 649.13 L500.18 647.66 L501.58 640.43 L502.99 640.95 L504.61 647.38 L506.07 647.21 L507.23 641.02 L508.78 643.18 L510.59 648.40 L511.75 644.28 L512.56 637.33 L514.25 640.24 L516.24 645.40 L517.46 643.33 L518.27 638.43 L520.19 642.02 L522.07 644.82 L522.64 639.17 L523.36 635.06 L525.48 639.02 L527.54 642.25 L528.15 637.99 L529.16 635.99 L531.62 640.58 L533.00 640.16 L532.77 633.20 L533.89 632.03 L536.71 637.33 L538.29 637.69 L538.16 632.10 L539.79 632.72 L542.90 638.08 L543.22 634.34 L542.30 627.13 L544.19 628.50 L547.56 633.93 L548.66 632.79 L547.81 626.53 L550.13 628.77 L553.08 632.41 L552.53 627.33 L551.55 621.52 L554.25 624.41 L557.23 627.72 L557.15 624.21 L556.96 620.61 L559.94 623.68 L561.68 624.11 L560.22 618.19 L560.37 615.61 L563.65 618.98 L565.54 619.61 L564.53 615.02 L565.68 614.39 L569.10 617.60 L569.31 615.31 L567.20 609.30 L568.52 609.00 L572.33 612.53 L573.15 611.35 L571.45 606.43 L573.49 607.14 L576.80 609.59 L575.84 605.96 L573.76 600.90 L576.09 601.94 L579.24 603.96 L579.18 601.77 L578.05 598.27 L580.65 599.48 L582.76 600.02 L581.09 596.03 L580.25 593.13 L582.98 594.38 L585.14 594.91 L584.07 591.84 L584.21 590.17 L587.09 591.40 L587.71 590.23 L585.46 586.17 L585.90 584.90 L589.02 586.24 L589.91 585.38 L588.29 582.18 L589.50 581.65 L592.54 582.74 L591.60 580.27 L589.38 576.75 L590.84 576.44 L593.65 577.22 L593.78 575.77 L592.12 572.91 L593.86 572.78 L595.86 572.80 L594.54 570.33 L593.07 567.80 L594.87 567.67 L596.79 567.59 L596.11 565.69 L595.53 563.90 L597.40 563.75 L598.15 562.85 L596.56 560.48 L596.27 558.97 L598.17 558.79 L598.88 557.88 L597.83 555.95 L598.27 554.91 L599.98 554.56 L599.63 553.09 L598.12 551.03 L598.61 550.03 L600.26 549.62 L600.26 548.37 L599.22 546.66 L600.00 545.81 L601.17 545.12 L600.43 543.60 L599.40 541.97 L600.15 541.11 L601.07 540.32 L600.79 539.04 L600.20 537.67 L600.72 536.71 L600.62 535.54 L599.81 534.14 L599.43 532.90 L599.50 531.82 L599.60 530.76 L599.69 529.70 L599.76 528.64 L599.84 527.58 L599.90 526.53 L599.95 525.47 L599.99 524.42 L600.03 523.37 L600.05 522.33 L600.06 521.28 L600.07 520.24 L600.06 519.20 L600.04 518.16 L600.01 517.12 L599.97 516.09 L599.93 515.06 L599.87 514.03 L599.80 513.00 L599.72 511.98 L599.63 510.96 L599.54 509.94 L599.43 508.93 L599.31 507.92 L599.17 506.91 L599.04 505.91 L598.89 504.90 L598.74 503.91 L598.59 502.91 L598.43 501.93 L598.26 500.94 Z"/>
  <svg class="pausebutton" id="pausebutton">
    <circle cx="500" cy="500" id="pausestart" class="pausestart" r="52.65"/>
    <rect height="50.02" width="10.00" y="473.68" rx="2.00" ry="2.00" x="479.99" class="pausesymbol"/>
    <rect height="50.02" width="10.00" y="473.68" rx="2.00" ry="2.00" x="510.00" class="pausesymbol"/>
    <polygon points="530.01,500 479.99,530.01 479.99,469.99" class="playsymbol"/>
  </svg>
  <polygon id="playback-head" class="playback-head" points="941.65,500 921.65,540 961.65,540"/>
</svg>