<?xml-stylesheet href="../../style/waveformjs.css" type="text/css"?>
<svg xmlns="http://www.w3.org/2000/svg" xmlns:xlink="http://www.w3.org/1999/xlink" width="100%" height="100%" viewBox="0 0 1000 1000">
  <path class="svg-wave" id="sp" d="M598.01 500.00 L598.18 500.98 L598.34 501.97 L598.48 502.96 L598.58 503.95 L598.66 504.94 L598.76 505.93 L598.75 506.92 L598.71 507.91 L598.69 508.91 L598.73 509.91 L598.53 510.88 L598.47 511.87 L598.64 512.90 L598.29 513.85 L598.14 514.83 L598.10 515.83 L597.96 516.82 L597.64 517.77 L597.71 518.79 L597.66 519.80 L597.43 520.77 L597.18 521.73 L597.32 522.79 L596.90 523.71 L596.16 524.55 L596.15 525.58 L596.07 526.59 L595.67 527.51 L595.50 528.50 L595.57 529.56 L595.68 530.65 L595.05 531.50 L594.65 532.42 L594.79 533.53 L593.99 534.31 L593.39 535.15 L593.07 536.10 L592.91 537.11 L592.47 538.01 L591.71 538.78 L593.00 540.42 L592.18 541.16 L590.80 541.64 L590.89 542.79 L591.01 543.96 L589.04 544.12 L588.54 544.97 L590.08 546.89 L588.42 547.16 L586.98 547.52 L586.98 548.65 L585.49 548.95 L583.36 548.84 L583.40 549.99 L582.75 550.74 L582.03 551.43 L582.03 552.58 L582.20 553.85 L581.37 554.48 L580.95 555.38 L580.78 556.46 L578.96 556.37 L579.67 558.09 L578.30 558.30 L575.39 557.31 L575.36 558.49 L575.15 559.54 L573.53 559.46 L573.56 560.71 L573.58 561.98 L573.34 563.04 L572.83 563.87 L572.08 564.51 L571.51 565.29 L569.65 564.88 L571.87 568.31 L569.78 567.66 L568.12 567.39 L568.55 569.19 L568.54 570.57 L566.08 569.42 L564.38 569.00 L567.16 573.44 L564.70 572.18 L564.01 572.86 L564.22 574.59 L562.73 574.35 L560.72 573.45 L559.66 573.66 L557.45 572.40 L556.76 573.01 L557.18 575.09 L556.18 575.33 L556.21 576.96 L557.51 580.42 L556.51 580.72 L554.53 579.57 L555.37 582.56 L554.07 582.38 L551.85 580.75 L552.47 583.55 L551.38 583.66 L550.92 584.79 L549.66 584.60 L548.67 584.85 L547.74 585.19 L546.79 585.48 L546.55 587.11 L545.39 587.02 L544.85 588.11 L546.73 594.14 L544.55 592.05 L542.79 590.71 L543.13 593.84 L542.69 595.39 L539.59 590.88 L539.51 593.23 L540.60 598.55 L538.09 595.14 L536.74 594.50 L536.55 596.86 L534.59 594.51 L532.47 591.57 L532.36 594.22 L531.40 594.49 L530.46 594.84 L530.05 596.88 L529.49 598.54 L528.38 598.39 L527.91 600.55 L526.88 600.73 L525.45 599.34 L525.30 603.03 L523.76 601.09 L521.98 597.94 L521.39 599.96 L520.53 600.86 L519.26 599.70 L518.54 601.43 L517.75 602.91 L517.00 604.78 L515.94 604.89 L514.95 605.48 L513.89 605.58 L512.68 604.50 L512.22 609.83 L510.79 606.70 L509.70 606.54 L508.81 608.82 L507.81 610.07 L506.50 606.77 L505.44 607.05 L504.57 611.84 L503.36 609.19 L502.28 609.72 L501.20 611.41 L500.09 610.18 L499.01 607.70 L497.93 607.75 L496.93 605.10 L495.87 605.35 L494.72 607.26 L493.69 606.41 L492.50 608.24 L491.11 611.97 L490.10 610.65 L489.19 608.61 L487.75 611.72 L486.81 610.16 L485.94 608.19 L484.57 610.11 L483.52 609.62 L482.24 610.59 L481.36 609.11 L480.34 608.53 L479.21 608.55 L478.14 608.30 L476.81 609.21 L475.91 608.11 L474.41 609.69 L472.06 614.59 L471.84 610.63 L470.96 609.51 L469.03 612.27 L467.83 612.22 L468.29 606.58 L466.08 609.97 L463.84 613.20 L464.02 608.87 L463.01 608.26 L461.47 609.20 L461.39 606.04 L461.31 603.04 L459.42 604.88 L458.44 604.30 L457.26 604.22 L455.40 605.71 L454.10 605.84 L453.28 604.85 L450.96 607.15 L450.47 605.42 L449.74 604.25 L447.33 606.51 L447.62 603.33 L447.73 600.59 L445.90 601.62 L444.75 601.33 L444.32 599.72 L442.35 600.87 L440.76 601.30 L438.88 602.15 L438.26 600.88 L437.70 599.55 L438.19 596.60 L435.89 598.02 L434.77 597.59 L437.54 591.46 L434.08 594.48 L433.43 593.41 L433.49 591.37 L431.01 592.81 L431.66 590.05 L428.92 591.73 L425.95 593.62 L427.51 589.78 L426.90 588.72 L422.67 591.96 L425.89 586.36 L424.83 585.85 L423.01 586.17 L423.32 584.11 L420.33 585.66 L418.99 585.37 L418.65 584.03 L416.87 584.16 L414.27 585.08 L416.66 581.07 L412.67 583.27 L412.95 581.36 L414.78 578.07 L409.50 581.25 L410.80 578.49 L412.05 575.84 L409.07 576.84 L409.83 574.66 L410.22 572.84 L405.51 575.11 L406.45 572.84 L406.35 571.43 L398.37 575.92 L400.58 572.73 L404.57 568.36 L399.73 570.32 L400.79 568.10 L401.51 566.17 L399.27 566.23 L398.46 565.31 L396.07 565.39 L394.34 565.01 L396.77 562.10 L396.11 561.09 L392.49 561.78 L396.37 558.18 L392.68 558.85 L390.36 558.71 L393.16 555.84 L387.57 557.33 L386.41 556.50 L391.74 552.51 L391.24 551.41 L388.65 551.28 L390.89 548.93 L388.27 548.77 L388.07 547.54 L387.46 546.47 L380.88 547.80 L385.05 544.80 L386.12 543.07 L381.92 543.31 L384.78 540.96 L384.80 539.66 L379.91 540.01 L381.48 538.17 L381.80 536.77 L374.31 537.72 L375.79 535.93 L380.62 533.24 L375.76 533.26 L377.48 531.49 L378.51 529.94 L377.36 528.92 L376.89 527.74 L372.50 527.39 L373.05 525.94 L376.26 524.00 L375.34 522.89 L373.86 521.86 L377.56 519.96 L374.87 519.12 L374.37 517.91 L375.53 516.48 L371.30 515.73 L370.98 514.46 L374.07 512.84 L369.86 511.95 L369.92 510.64 L372.53 509.14 L366.59 508.23 L369.45 506.74 L370.34 505.40 L366.82 504.21 L369.75 502.81 L372.65 501.48 L369.81 500.21 L370.24 498.91 L371.18 497.63 L366.17 496.20 L367.55 494.91 L369.00 493.65 L363.50 492.02 L366.04 490.82 L369.98 489.78 L364.41 487.98 L368.04 486.97 L367.97 485.63 L367.56 484.24 L368.82 483.06 L363.41 480.97 L364.43 479.73 L368.18 478.94 L366.74 477.34 L364.72 475.61 L370.83 475.37 L368.42 473.54 L369.40 472.38 L370.04 471.15 L366.39 468.94 L367.41 467.78 L368.64 466.68 L365.14 464.35 L366.62 463.31 L369.48 462.69 L365.69 460.15 L369.97 460.00 L371.12 458.94 L367.15 456.21 L371.27 456.14 L373.47 455.47 L371.30 453.25 L374.38 452.95 L374.37 451.50 L371.22 448.80 L374.42 448.61 L372.87 446.49 L367.49 442.66 L371.59 442.90 L375.32 443.06 L371.76 439.88 L375.11 439.91 L375.62 438.62 L376.53 437.53 L376.49 435.95 L372.90 432.46 L375.62 432.31 L379.09 432.62 L377.68 430.22 L379.58 429.70 L382.35 429.73 L381.29 427.48 L381.99 426.28 L383.86 425.82 L380.05 421.69 L381.91 421.20 L385.01 421.60 L381.68 417.59 L384.27 417.66 L385.83 417.03 L382.15 412.55 L386.75 414.19 L386.95 412.55 L385.67 409.72 L389.35 410.82 L392.27 411.38 L390.10 407.73 L392.44 407.85 L393.76 407.12 L391.91 403.58 L394.07 403.58 L394.56 402.09 L392.61 398.25 L395.95 399.42 L398.21 399.62 L395.45 394.82 L398.94 396.28 L398.43 393.65 L400.73 393.95 L401.74 392.91 L398.91 387.59 L401.41 388.14 L404.71 389.68 L403.38 385.84 L405.02 385.48 L408.94 387.94 L408.26 384.77 L410.21 384.88 L411.55 384.22 L409.66 379.27 L412.03 379.96 L413.64 379.64 L412.22 375.04 L415.04 376.45 L416.67 376.18 L415.53 371.75 L419.95 375.77 L420.47 373.82 L420.11 370.40 L423.51 373.09 L425.15 372.94 L425.19 370.06 L428.27 372.47 L428.26 369.42 L428.08 365.94 L431.16 368.54 L430.00 363.01 L429.36 358.28 L433.91 364.02 L435.45 363.74 L435.55 360.34 L438.51 363.19 L439.02 360.61 L440.60 360.44 L442.19 360.31 L441.81 355.32 L444.06 356.79 L446.63 359.22 L446.59 354.76 L449.10 357.21 L451.08 358.30 L451.02 353.37 L453.18 355.04 L454.88 355.36 L454.47 348.74 L456.94 351.58 L459.77 355.98 L460.12 351.51 L461.88 352.20 L463.85 353.79 L464.39 349.52 L466.41 351.44 L467.16 347.73 L468.33 345.67 L470.80 350.12 L472.12 348.86 L473.22 346.20 L475.43 350.06 L476.71 348.34 L477.87 345.63 L479.80 348.34 L480.77 343.68 L481.87 339.37 L483.97 344.01 L485.52 343.68 L486.83 340.50 L488.65 343.54 L490.11 341.62 L491.74 342.51 L493.27 341.24 L494.68 335.84 L496.42 340.19 L498.05 342.56 L499.62 339.13 L501.20 342.78 L502.75 343.81 L504.43 339.66 L505.98 341.14 L507.63 339.89 L509.49 335.52 L510.88 339.35 L512.40 340.58 L514.41 335.99 L515.55 341.16 L517.41 338.84 L519.45 335.40 L520.38 341.12 L522.42 338.13 L524.19 337.31 L525.17 341.66 L526.55 343.08 L528.87 339.15 L530.46 339.55 L533.34 333.50 L534.96 334.05 L536.35 335.59 L540.29 326.04 L541.21 329.86 L541.04 337.64 L544.21 332.18 L545.72 333.24 L545.88 339.01 L549.68 332.06 L550.33 335.91 L551.22 338.78 L556.06 329.46 L555.54 336.58 L555.43 342.10 L559.34 336.22 L559.63 340.42 L560.32 343.36 L564.02 338.59 L563.51 344.44 L565.68 343.62 L569.77 338.41 L569.39 343.62 L570.18 346.01 L575.49 338.65 L574.29 345.27 L576.87 343.92 L580.12 341.33 L578.59 348.15 L583.32 342.88 L584.60 344.27 L582.79 351.15 L584.93 350.85 L587.72 349.46 L586.69 354.59 L590.35 351.84 L591.59 353.13 L591.26 356.87 L596.90 351.32 L598.00 352.88 L596.68 357.95 L601.62 353.87 L603.44 354.37 L602.65 358.51 L609.07 352.78 L607.53 357.84 L608.58 359.40 L616.46 352.27 L612.57 360.11 L611.10 364.73 L617.58 359.73 L615.56 364.91 L616.38 366.67 L622.04 362.97 L618.68 369.40 L622.11 368.30 L625.39 367.44 L622.52 373.04 L622.72 375.35 L627.33 373.23 L625.22 377.80 L628.69 376.91 L631.72 376.50 L629.62 380.89 L636.04 377.47 L637.11 378.97 L633.52 384.49 L636.84 384.00 L639.20 384.37 L637.78 387.85 L644.58 384.70 L644.48 387.13 L643.64 390.08 L653.91 384.64 L649.86 390.00 L645.88 395.15 L653.14 392.24 L651.70 395.51 L649.85 398.97 L657.41 396.15 L653.68 400.80 L655.10 402.07 L662.73 399.51 L657.45 404.93 L655.47 408.24 L662.30 406.38 L658.28 410.80 L658.95 412.51 L663.59 412.07 L659.36 416.39 L664.22 415.92 L668.37 415.91 L664.15 420.06 L665.30 421.53 L672.66 420.15 L667.18 424.70 L673.02 424.14 L673.71 425.90 L669.20 429.82 L677.57 428.42 L675.49 431.29 L670.37 435.25 L674.53 435.66 L674.99 437.47 L671.83 440.53 L677.20 440.65 L676.04 442.99 L674.82 445.31 L683.32 444.66 L680.96 447.34 L677.54 450.26 L685.54 450.01 L684.31 452.31 L683.53 454.47 L691.83 454.44 L685.05 458.00 L688.61 459.17 L695.83 459.65 L687.67 463.29 L686.37 465.47 L694.69 465.94 L687.26 469.17 L690.66 470.56 L694.90 471.90 L688.17 474.79 L697.22 475.58 L697.09 477.60 L689.30 480.40 L692.06 482.05 L695.74 483.68 L689.00 486.14 L695.69 487.62 L694.59 489.64 L689.65 491.80 L698.73 493.40 L694.72 495.48 L688.67 497.51 L693.83 499.38 L693.05 501.32 L691.26 503.22 L698.89 505.33 L695.71 507.21 L695.83 509.17 L707.21 511.79 L697.60 513.22 L692.83 514.84 L701.36 517.53 L695.29 518.97 L695.34 520.95 L702.95 523.82 L694.52 524.80 L699.59 527.48 L704.17 530.19 L694.79 530.80 L694.19 532.70 L700.94 535.90 L692.39 536.36 L697.02 539.29 L698.67 541.68 L691.72 542.23 L701.06 546.40 L699.00 548.03 L690.65 548.04 L694.27 551.02 L695.45 553.42 L688.75 553.63 L695.83 557.76 L692.89 558.99 L688.69 559.78 L698.85 565.20 L692.55 565.27 L685.89 565.09 L692.21 569.47 L688.81 570.38 L684.95 571.06 L691.52 575.79 L685.78 575.68 L685.23 577.62 L692.12 582.77 L684.52 581.70 L680.68 582.17 L686.81 587.22 L680.77 586.61 L680.82 588.87 L684.78 593.12 L678.15 592.03 L682.35 596.52 L683.69 599.59 L676.41 597.94 L675.66 599.83 L679.24 604.25 L672.22 602.49 L675.48 606.82 L674.77 608.80 L669.44 607.84 L675.70 614.32 L672.85 614.94 L666.54 613.16 L669.24 617.48 L668.12 619.21 L662.96 618.02 L667.05 623.55 L663.89 623.77 L660.64 623.85 L666.90 631.37 L661.04 629.38 L655.98 627.90 L659.56 633.53 L654.42 631.87 L649.26 630.07 L651.04 634.30 L646.84 633.22 L644.40 633.66 L646.55 638.40 L644.12 638.86 L641.01 638.61 L642.67 643.08 L639.90 643.13 L637.85 643.89 L637.27 646.17 L635.53 647.24 L635.84 650.58 L634.61 652.25 L631.10 651.31 L630.35 653.51 L629.87 656.08 L626.07 654.63 L626.80 658.75 L625.10 659.87 L621.93 659.07 L623.72 664.79 L621.66 665.47 L617.49 663.20 L616.71 665.58 L615.58 667.51 L612.38 666.41 L612.17 669.72 L609.98 670.09 L608.81 672.03 L609.82 677.53 L605.70 674.76 L603.73 675.44 L603.67 679.40 L600.08 677.26 L597.71 677.17 L596.99 680.10 L594.74 680.22 L592.08 679.50 L591.15 682.15 L590.38 685.21 L587.24 683.40 L585.61 684.72 L584.70 687.65 L581.92 686.46 L580.43 688.15 L579.65 691.60 L576.68 689.79 L575.84 693.25 L573.83 693.80 L571.16 692.55 L569.65 694.42 L567.31 693.99 L565.39 694.73 L563.47 695.45 L561.43 695.82 L559.97 698.08 L557.99 698.68 L555.99 699.22 L554.69 702.34 L552.34 701.64 L550.27 701.94 L548.45 703.26 L545.98 701.86 L544.21 703.44 L542.34 704.66 L539.95 703.34 L538.50 706.90 L535.99 704.75 L534.13 706.27 L532.22 707.61 L530.19 708.20 L528.11 708.55 L526.01 708.71 L524.42 713.32 L522.05 711.28 L519.78 709.83 L517.99 713.72 L515.73 712.27 L513.63 712.70 L511.50 712.85 L509.33 712.02 L507.33 715.68 L505.16 715.22 L502.98 713.28 L500.86 715.70 L498.71 714.67 L496.59 712.55 L494.38 715.92 L492.26 714.73 L490.18 713.16 L487.76 718.29 L485.69 716.44 L483.82 712.45 L481.48 714.75 L479.30 714.88 L477.43 712.10 L474.91 715.26 L472.98 713.24 L470.59 714.88 L467.90 718.29 L466.34 714.00 L464.14 713.99 L461.40 717.00 L460.05 712.29 L458.14 710.79 L455.68 712.06 L453.82 710.43 L451.60 710.49 L449.49 710.03 L447.09 710.73 L445.16 709.49 L443.10 708.82 L440.69 709.38 L438.81 708.06 L436.64 707.74 L433.66 709.99 L432.74 705.71 L430.25 706.32 L427.77 706.82 L426.69 703.34 L423.94 704.54 L422.12 703.18 L420.32 701.83 L417.58 702.79 L415.83 701.32 L413.41 701.41 L410.50 702.57 L409.20 700.09 L406.66 700.34 L404.68 699.34 L402.94 697.89 L400.42 697.99 L399.12 695.67 L397.00 694.97 L394.55 694.86 L393.20 692.74 L389.80 694.26 L388.88 691.39 L386.58 690.93 L384.25 690.48 L381.71 690.36 L380.46 688.14 L378.26 687.44 L373.86 690.02 L373.82 686.03 L373.01 683.24 L368.81 685.32 L368.34 682.09 L366.24 681.16 L364.70 679.45 L361.83 679.51 L360.90 677.01 L359.06 675.71 L356.61 675.15 L356.18 672.13 L353.52 671.80 L352.31 669.75 L350.97 667.87 L348.45 667.30 L347.39 665.13 L344.11 665.33 L342.49 663.74 L340.93 662.08 L338.97 660.83 L337.05 659.53 L335.69 657.67 L334.86 655.32 L333.02 653.94 L330.24 653.39 L329.19 651.26 L328.40 648.93 L324.84 648.97 L324.61 646.17 L324.55 643.27 L321.57 642.75 L320.91 640.37 L320.11 638.11 L317.48 637.26 L315.45 635.91 L314.57 633.72 L311.97 632.76 L311.11 630.55 L309.64 628.78 L308.25 626.94 L307.01 625.00 L303.73 624.36 L304.81 620.96 L303.29 619.19 L300.81 617.99 L301.90 614.69 L299.39 613.48 L298.00 611.61 L298.54 608.70 L294.22 608.38 L293.93 605.92 L293.36 603.61 L289.48 602.94 L289.53 600.31 L288.66 598.15 L286.54 596.55 L286.38 594.06 L284.87 592.17 L284.69 589.71 L283.63 587.62 L282.35 585.62 L281.84 583.31 L279.26 581.77 L278.25 579.63 L273.73 578.71 L266.36 578.67 L262.57 577.31 L258.87 575.85 L252.43 575.17 L254.38 571.90 L254.41 569.23 L257.02 565.88 L261.48 562.12 L264.30 558.87 L262.62 556.78 L261.61 554.51 L262.88 551.73 L259.74 549.90 L255.74 548.19 L257.63 545.30 L260.87 542.23 L259.29 540.03 L263.17 536.95 L264.48 534.34 L264.55 531.93 L262.76 529.76 L260.23 527.64 L262.93 524.93 L258.18 522.99 L258.56 520.52 L260.51 517.94 L257.72 515.72 L253.16 513.53 L255.58 510.95 L252.99 508.59 L251.01 506.17 L253.10 503.65 L253.55 501.18 L256.65 498.73 L257.71 496.31 L256.19 493.85 L255.59 491.39 L255.04 488.91 L252.14 486.30 L252.35 483.82 L250.61 481.20 L252.86 478.89 L250.43 476.16 L255.46 474.17 L256.47 471.82 L251.80 468.76 L253.20 466.42 L252.51 463.80 L252.65 461.30 L251.43 458.55 L256.45 456.88 L258.77 454.80 L257.85 452.12 L258.02 449.63 L258.74 447.26 L254.49 443.75 L255.82 441.48 L259.37 439.78 L254.62 435.98 L259.44 434.66 L262.38 432.90 L260.58 429.80 L257.41 426.23 L259.97 424.38 L257.49 420.92 L253.97 417.04 L255.59 414.86 L259.99 413.69 L260.83 411.28 L265.83 410.46 L268.51 408.82 L267.69 405.80 L268.08 403.25 L269.94 401.31 L271.17 399.12 L270.04 395.86 L273.45 394.66 L275.20 392.73 L275.95 390.32 L277.55 388.34 L275.74 384.61 L275.22 381.48 L275.32 378.65 L274.64 375.35 L276.64 373.53 L280.47 372.78 L282.95 371.30 L286.56 370.54 L289.25 369.27 L291.30 367.63 L289.53 363.54 L290.52 361.19 L293.15 359.93 L289.70 354.51 L292.31 353.22 L296.01 352.75 L294.74 348.69 L293.96 344.91 L298.16 344.89 L298.83 342.18 L299.81 339.69 L301.49 337.75 L305.14 337.45 L307.72 336.32 L309.51 334.53 L310.87 332.37 L312.45 330.38 L312.41 326.91 L312.01 323.03 L313.23 320.62 L315.01 318.74 L317.46 317.52 L318.29 314.68 L322.45 315.27 L325.00 314.24 L324.02 309.41 L325.81 307.53 L327.48 305.49 L329.45 303.80 L330.72 301.28 L334.86 302.17 L338.13 302.10 L338.56 298.54 L340.65 297.03 L343.50 296.50 L342.82 291.33 L345.21 290.17 L349.31 291.39 L349.50 287.20 L353.19 287.96 L355.56 286.86 L356.97 284.32 L357.38 280.20 L359.42 278.52 L360.94 275.99 L362.56 273.59 L364.34 271.40 L368.43 273.14 L370.82 272.04 L373.81 272.03 L376.92 272.31 L378.66 270.06 L380.11 267.19 L382.46 266.04 L384.81 264.90 L386.28 261.90 L389.37 262.28 L392.29 262.37 L394.18 260.20 L396.40 258.73 L397.82 255.31 L399.36 252.05 L401.30 249.67 L403.48 247.85 L406.40 247.96 L409.74 249.30 L413.02 250.60 L416.22 251.82 L418.86 251.47 L421.62 251.54 L423.33 248.21 L425.65 246.75 L428.18 246.00 L429.60 241.18 L432.46 241.51 L435.63 243.15 L437.67 240.32 L439.61 236.83 L442.66 238.16 L445.19 237.13 L447.81 236.57 L450.27 235.08 L453.54 238.09 L456.37 238.89 L458.79 237.26 L461.48 237.26 L464.15 237.18 L466.43 234.10 L468.64 229.90 L471.34 229.54 L474.08 229.67 L476.84 230.04 L479.50 229.31 L482.38 231.69 L485.05 231.21 L487.62 228.49 L490.30 227.35 L493.00 226.48 L495.75 227.28 L498.48 226.96 L501.20 229.71 L503.87 231.42 L506.62 229.05 L509.35 228.38 L511.96 231.05 L514.89 226.68 L517.56 227.84 L520.15 229.80 L522.98 228.45 L525.57 230.05 L528.20 230.95 L530.86 231.52 L534.05 227.74 L536.96 226.71 L539.81 226.31 L542.70 225.67 L545.60 225.17 L547.63 229.73 L550.35 230.08 L552.88 231.43 L555.26 233.47 L558.26 232.47 L561.51 230.55 L564.21 231.15 L566.77 232.30 L569.90 231.20 L572.08 233.80 L574.03 237.06 L577.10 236.27 L580.31 235.16 L583.28 234.93 L586.57 233.81 L590.23 231.70 L592.84 232.81 L594.83 235.63 L597.00 237.87 L598.44 241.93 L599.96 245.62 L603.04 245.30 L605.15 247.38 L608.63 246.20 L611.09 247.46 L614.74 246.08 L618.12 245.42 L620.34 247.29 L622.30 249.66 L625.21 250.07 L628.62 249.54 L630.88 251.30 L633.67 252.05 L635.81 254.00 L638.93 254.18 L639.36 259.08 L640.97 261.82 L644.19 261.85 L646.66 263.14 L648.77 265.03 L653.09 263.46 L657.40 262.07 L659.75 263.67 L661.52 266.14 L663.90 267.69 L665.70 270.06 L667.08 272.96 L670.21 273.49 L672.95 274.57 L675.61 275.79 L678.79 276.37 L680.87 278.35 L682.28 281.12 L683.36 284.25 L684.39 287.38 L687.34 288.30 L690.44 289.08 L691.60 292.01 L695.86 291.61 L697.07 294.49 L699.10 296.48 L700.53 299.08 L702.32 301.30 L704.66 302.98 L705.45 306.14 L710.63 305.20 L714.14 305.89 L716.57 307.60 L718.88 309.43 L721.03 311.41 L720.05 316.02 L721.52 318.52 L723.38 320.70 L726.22 322.11 L728.05 324.33 L731.91 325.03 L737.19 324.74 L739.49 326.72 L739.37 330.42 L742.40 331.89 L746.19 332.88 L744.74 337.41 L746.31 339.90 L751.50 340.08 L751.63 343.51 L752.06 346.71 L754.67 348.59 L754.38 352.19 L754.35 355.59 L756.08 357.98 L756.83 360.90 L757.80 363.69 L760.16 365.76 L763.15 367.53 L764.67 370.06 L766.40 372.50 L769.69 374.23 L770.86 376.97 L773.27 379.15 L774.15 382.03 L772.66 385.89 L774.45 388.35 L776.08 390.89 L775.52 394.28 L777.14 396.83 L779.55 399.10 L780.53 401.91 L781.01 404.89 L782.65 407.47 L783.65 410.27 L783.18 413.53 L787.99 415.20 L788.50 418.17 L788.44 421.30 L791.44 423.60 L793.57 426.17 L791.60 429.76 L792.51 432.63 L796.08 434.92 L794.95 438.25 L795.52 441.21 L796.94 444.01 L796.50 447.16 L796.72 450.17 L796.92 453.19 L795.65 456.41 L796.72 459.28 L799.14 461.99 L798.93 465.06 L800.58 467.91 L803.22 470.69 L803.08 473.76 L802.79 476.83 L803.85 479.80 L804.05 482.84 L802.38 485.97 L804.48 488.92 L804.19 491.98 L804.02 495.02 L802.94 498.07 L801.97 501.10 L799.69 504.08 L799.81 507.09 L799.51 510.08 L799.29 513.07 L801.27 516.17 L801.07 519.18 L801.82 522.26 L800.40 525.18 L799.32 528.11 L797.26 530.92 L797.25 533.92 L802.18 537.55 L801.76 540.57 L801.94 543.67 L804.32 547.12 L803.04 550.03 L799.32 552.50 L798.32 555.40 L796.07 558.06 L793.88 560.68 L794.22 563.83 L794.68 567.02 L795.39 570.30 L792.58 572.73 L794.63 576.37 L791.02 578.55 L789.36 581.21 L790.13 584.57 L790.72 587.90 L791.24 591.25 L792.94 595.01 L792.78 598.21 L790.09 600.54 L789.55 603.61 L784.81 605.14 L782.34 607.44 L783.25 611.05 L782.39 613.98 L781.10 616.74 L782.90 620.82 L784.45 624.86 L783.84 627.99 L780.21 629.74 L780.97 633.52 L776.64 634.87 L772.72 636.35 L775.61 641.26 L774.93 644.40 L773.29 647.05 L772.57 650.19 L771.92 653.40 L767.16 654.26 L763.62 655.75 L762.25 658.50 L760.70 661.14 L760.59 664.70 L759.71 667.80 L759.80 671.56 L756.85 673.33 L758.12 677.97 L754.22 679.06 L750.62 680.29 L751.02 684.42 L749.64 687.28 L746.33 688.67 L746.80 692.98 L746.97 697.13 L743.02 697.98 L740.19 699.70 L739.88 703.54 L739.56 707.43 L740.08 712.12 L740.89 717.16 L741.73 722.33 L744.62 729.55 L742.51 732.17 L742.06 736.43 L739.59 738.74 L736.44 740.36 L733.12 741.78 L729.99 743.36 L726.99 745.04 L723.98 746.70 L720.41 747.70 L716.99 748.82 L713.76 750.12 L709.84 750.56 L705.81 750.81 L703.37 752.95 L699.79 753.65 L696.51 754.69 L694.12 756.85 L692.17 759.64 L689.13 760.95 L687.71 764.51 L685.20 766.59 L681.96 767.59 L680.73 771.58 L676.78 771.49 L672.64 771.03 L670.51 773.68 L667.59 775.09 L664.20 775.70 L661.90 778.12 L659.46 780.34 L657.00 782.56 L654.00 783.80 L651.42 785.83 L648.72 787.65 L645.95 789.35 L645.07 794.91 L641.46 794.97 L638.84 797.09 L636.81 800.55 L633.97 802.29 L629.73 800.80 L627.04 802.88 L625.01 806.60 L621.17 805.87 L618.38 807.79 L615.49 809.49 L612.09 809.80 L608.42 809.28 L605.40 810.59 L601.70 809.84 L598.93 811.89 L596.25 814.31 L593.02 814.98 L590.38 817.70 L588.08 821.78 L584.58 821.61 L581.00 821.01 L578.40 824.33 L574.72 823.23 L571.24 822.87 L568.22 824.60 L564.91 824.92 L561.79 826.28 L558.34 825.83 L555.06 826.30 L551.90 827.53 L548.85 829.54 L545.68 830.95 L542.35 831.24 L539.41 834.81 L536.24 836.86 L532.55 833.97 L529.29 835.13 L526.08 837.26 L522.63 836.47 L519.09 833.54 L515.98 838.59 L512.56 837.66 L509.11 835.35 L505.77 836.36 L502.41 836.40 L499.05 835.27 L495.72 833.78 L492.35 835.04 L489.00 834.98 L485.67 834.47 L482.31 834.52 L478.87 835.86 L475.70 833.07 L472.36 832.89 L468.82 834.87 L465.48 834.53 L462.23 833.36 L458.71 834.44 L455.01 836.72 L451.79 835.20 L448.72 832.90 L445.05 834.48 L441.90 832.83 L438.98 830.04 L435.53 830.17 L432.25 829.41 L428.77 829.59 L425.67 828.03 L421.67 830.32 L417.32 833.76 L414.59 830.60 L411.17 830.16 L407.14 831.86 L404.12 829.91 L402.00 825.03 L397.40 828.39 L393.80 828.34 L391.52 824.28 L388.15 823.55 L385.02 822.14 L382.53 819.00 L379.81 816.59 L376.04 816.93 L372.99 815.39 L369.44 815.08 L365.40 815.86 L362.11 814.82 L359.13 813.06 L354.52 814.86 L352.14 811.78 L348.96 810.42 L344.98 810.68 L343.47 806.00 L341.10 803.12 L337.55 802.50 L335.14 799.74 L333.14 796.33 L328.92 796.84 L326.40 794.38 L324.63 790.69 L322.59 787.53 L320.88 783.91 L319.22 780.29 L317.10 777.45 L313.64 776.63 L310.48 775.34 L304.97 777.37 L302.11 775.54 L298.75 774.38 L295.13 773.54 L292.09 771.88 L288.13 771.40 L286.62 767.78 L282.31 767.64 L279.85 765.21 L277.49 762.66 L276.30 758.77 L270.83 759.80 L269.88 755.68 L268.17 752.46 L265.12 750.70 L262.01 748.98 L259.81 746.30 L257.37 743.87 L253.93 742.44 L253.25 738.30 L248.56 738.01 L246.64 735.07 L244.80 732.07 L243.14 728.93 L238.12 728.74 L237.41 724.77 L235.68 721.71 L232.29 720.03 L229.43 717.89 L226.72 715.60 L224.16 713.18 L221.61 710.74 L221.74 706.29 L216.32 705.95 L215.30 702.38 L213.71 699.22 L212.45 695.86 L207.45 695.02 L207.48 690.80 L206.29 687.41 L203.21 685.23 L201.90 681.93 L198.44 679.93 L196.34 677.09 L195.24 673.67 L195.49 669.52 L190.12 668.47 L190.17 664.45 L189.67 660.76 L187.68 657.85 L184.07 655.72 L184.03 651.84 L182.76 648.56 L179.16 646.36 L179.59 642.30 L176.25 639.93 L174.69 636.76 L173.55 633.41 L173.81 629.51 L167.84 628.06 L167.99 624.20 L167.81 620.49 L166.31 617.28 L164.15 614.27 L164.24 610.51 L165.12 606.52 L162.00 603.80 L163.35 599.72 L161.21 596.67 L159.71 593.43 L160.15 589.67 L156.19 587.04 L153.63 584.01 L154.00 580.27 L154.22 576.58 L147.57 574.37 L148.10 570.59 L149.51 566.67 L148.93 563.15 L145.92 560.04 L145.25 556.51 L145.42 552.85 L144.51 549.36 L146.11 545.53 L141.15 542.53 L141.51 538.85 L143.33 535.05 L144.27 531.37 L138.01 528.28 L139.38 524.55 L140.71 520.85 L140.24 517.27 L138.45 513.73 L137.19 510.15 L137.84 506.51 L138.25 502.88 L140.55 499.27 L136.12 495.62 L138.53 492.03 L140.47 488.48 L141.64 484.93 L138.21 481.16 L139.97 477.64 L140.89 474.09 L140.50 470.44 L140.65 466.83 L138.50 462.98 L138.66 459.35 L139.83 455.83 L142.58 452.53 L137.32 448.14 L138.69 444.64 L141.53 441.40 L142.66 437.91 L139.46 433.63 L141.18 430.23 L142.79 426.83 L142.94 423.13 L145.00 419.86 L142.09 415.43 L143.00 411.86 L145.89 408.81 L148.80 405.81 L143.24 400.48 L146.02 397.43 L149.01 394.48 L150.28 391.04 L148.81 386.72 L149.97 383.21 L151.93 379.98 L153.04 376.47 L157.10 374.04 L154.47 369.14 L156.70 366.04 L158.01 362.60 L157.48 358.39 L156.49 353.94 L158.40 350.70 L158.97 346.87 L161.79 344.05 L164.70 341.31 L166.96 338.29 L164.69 333.02 L169.72 331.38 L174.69 329.80 L172.95 324.70 L174.24 321.17 L175.77 317.77 L180.23 316.04 L176.51 309.57 L181.73 308.34 L186.17 306.71 L188.33 303.71 L190.29 300.60 L190.70 296.45 L190.81 292.07 L193.66 289.51 L195.59 286.32 L194.60 281.03 L201.20 281.21 L204.79 279.26 L207.75 276.89 L209.53 273.61 L208.73 268.27 L209.99 264.50 L212.96 262.11 L213.72 257.87 L214.37 253.48 L217.47 251.18 L218.44 246.99 L220.76 243.98 L220.15 238.23 L221.94 234.63 L223.35 230.65 L227.53 229.35 L232.08 228.50 L236.25 227.32 L237.87 223.52 L243.55 224.04 L247.73 223.02 L248.57 218.34 L250.65 214.98 L253.56 212.57 L258.74 212.84 L257.43 205.35 L262.63 205.72 L267.74 206.09 L270.88 204.02 L273.33 201.06 L275.25 197.36 L277.19 193.61 L280.74 192.06 L283.45 189.34 L284.96 184.84 L290.96 186.95 L294.67 185.75 L298.78 185.21 L301.21 182.05 L302.39 176.78 L305.18 174.08 L308.78 172.71 L310.78 168.56 L313.56 165.71 L317.24 164.46 L319.58 160.73 L323.45 159.85 L325.15 154.73 L328.96 153.69 L331.80 150.70 L335.25 148.91 L339.82 149.58 L344.00 149.51 L346.24 145.02 L351.53 147.61 L355.25 146.61 L358.22 143.74 L361.20 140.82 L364.73 139.26 L369.58 141.34 L371.02 133.94 L375.85 136.06 L380.59 138.17 L384.37 137.48 L387.69 135.33 L390.90 132.72 L394.13 130.10 L398.04 129.79 L401.48 127.78 L404.73 124.97 L409.57 128.47 L413.47 128.37 L417.64 129.52 L421.04 127.26 L423.94 122.39 L427.57 120.86 L431.49 120.83 L434.71 116.78 L438.54 116.12 L442.41 115.73 L445.73 111.44 L449.64 111.02 L453.09 106.87 L456.90 105.29 L460.71 103.43 L464.92 105.78 L469.00 107.25 L473.04 108.57 L476.93 107.87 L481.08 112.30 L484.93 111.50 L488.79 110.50 L492.66 108.73 L496.57 108.30 L500.48 111.49 L504.43 106.01 L508.30 109.42 L512.11 112.58 L515.93 113.95 L519.90 111.97 L523.85 111.12 L527.82 110.13 L531.67 111.07 L535.72 109.60 L539.68 109.37 L543.13 113.88 L546.95 114.63 L550.44 117.87 L554.55 116.35 L558.99 112.95 L562.96 112.94 L566.69 114.35 L571.19 111.54 L574.86 113.33 L578.41 115.66 L582.99 112.98 L586.89 113.70 L591.35 112.04 L595.45 112.04 L599.61 111.89 L603.66 112.27 L607.64 112.94 L611.66 113.51 L615.58 114.44 L619.66 114.85 L623.63 115.68 L627.60 116.55 L631.36 118.04 L635.29 119.05 L639.20 120.11 L643.03 121.42 L646.83 122.83 L651.08 123.10 L654.77 124.80 L659.07 125.06 L663.01 126.21 L666.74 127.87 L670.50 129.44 L674.24 131.09 L677.94 132.79 L681.55 134.70 L685.28 136.36 L688.69 138.65 L692.02 141.07 L695.48 143.22 L699.16 144.99 L702.25 147.78 L705.63 150.04 L709.26 151.88 L712.78 153.92 L716.00 156.43 L720.10 157.55 L724.41 158.40 L728.14 160.19 L732.02 161.76 L735.78 163.54 L739.22 165.80 L742.66 168.06 L745.92 170.56 L749.21 173.02 L752.64 175.31 L755.86 177.88 L758.79 180.79 L762.13 183.19 L765.36 185.75 L768.56 188.33 L772.20 190.42 L775.73 192.66 L778.95 195.26 L782.62 197.39 L785.79 200.06 L789.10 202.60 L791.83 205.73 L794.71 208.71 L797.63 211.65 L800.82 214.34 L803.63 217.39 L806.08 220.77 L809.01 223.71 L811.19 227.31 L813.87 230.46 L816.09 234.00 L818.55 237.33 L820.82 240.80 L823.16 244.21 L825.73 247.43 L828.77 250.30 L832.25 252.85 L835.67 255.49 L838.86 258.31 L841.98 261.21 L844.41 264.60 L846.88 267.97 L849.12 271.49 L851.42 274.97 L853.97 278.30 L856.28 281.78 L858.09 285.56 L860.41 289.04 L862.49 292.67 L864.77 296.17 L867.29 299.56 L869.60 303.07 L871.67 306.72 L874.05 310.21 L876.00 313.92 L878.34 317.45 L879.79 321.41 L882.17 324.94 L883.86 328.78 L886.03 332.42 L887.83 336.23 L888.79 340.39 L890.61 344.19 L892.01 348.15 L892.82 352.34 L894.54 356.18 L895.76 360.20 L896.27 364.47 L898.05 368.29 L899.39 372.26 L901.20 376.09 L903.47 379.79 L905.12 383.70 L907.82 387.33 L909.58 391.24 L910.67 395.33 L911.81 399.42 L912.77 403.55 L913.64 407.69 L915.11 411.71 L915.82 415.90 L916.68 420.06 L917.35 424.25 L917.77 428.48 L919.43 432.50 L920.73 436.60 L921.58 440.78 L922.77 444.92 L924.13 449.05 L924.51 453.31 L925.58 457.49 L926.07 461.74 L926.48 466.00 L926.69 470.27 L927.73 474.50 L928.68 478.74 L928.74 483.03 L929.46 487.30 L930.64 491.58 L931.28 495.88 L954.32 500.00 L954.49 495.45 L955.27 490.89 L956.41 486.30 L956.47 481.73 L955.16 477.22 L955.57 472.63 L955.94 468.03 L954.77 463.54 L953.80 459.05 L953.70 454.48 L953.15 449.95 L952.65 445.42 L951.61 440.96 L950.43 436.52 L950.65 431.89 L949.32 427.49 L948.16 423.07 L946.67 418.72 L945.39 414.34 L943.74 410.05 L942.58 405.67 L941.34 401.31 L939.44 397.11 L938.97 392.58 L937.11 388.39 L936.81 383.80 L937.09 379.03 L937.21 374.28 L937.22 369.53 L936.99 364.82 L935.16 360.61 L933.46 356.36 L931.26 352.28 L928.48 348.43 L927.00 344.13 L924.45 340.24 L922.20 336.24 L921.07 331.82 L918.31 328.05 L915.98 324.13 L914.47 319.86 L912.87 315.62 L911.02 311.50 L909.42 307.25 L908.45 302.69 L906.72 298.49 L904.51 294.52 L901.68 290.88 L898.68 287.35 L895.95 283.69 L892.88 280.24 L889.92 276.75 L887.30 273.07 L884.62 269.45 L881.67 266.00 L878.84 262.49 L876.11 258.92 L873.47 255.31 L870.76 251.76 L867.45 248.61 L866.40 243.92 L864.64 239.68 L862.59 235.63 L861.54 230.81 L859.59 226.64 L856.25 223.51 L852.88 220.43 L849.44 217.42 L845.54 214.81 L842.35 211.64 L838.82 208.78 L835.46 205.78 L832.20 202.70 L828.85 199.73 L825.20 197.04 L822.58 193.40 L819.69 190.01 L816.35 187.04 L813.21 183.90 L809.89 180.93 L806.18 178.37 L803.51 174.72 L799.75 172.24 L795.76 170.04 L792.75 166.75 L788.68 164.69 L784.54 162.73 L781.13 159.92 L777.58 157.31 L773.61 155.21 L769.77 152.98 L766.51 150.01 L762.46 148.07 L758.86 145.56 L754.90 143.55 L752.35 139.55 L749.36 136.13 L746.14 133.02 L742.86 129.96 L739.86 126.45 L736.38 123.64 L732.11 122.10 L728.42 119.63 L724.41 117.69 L720.32 115.92 L716.49 113.70 L712.60 111.58 L708.17 110.47 L703.89 109.12 L700.04 106.98 L695.82 105.55 L691.77 103.80 L687.78 101.94 L683.55 100.62 L679.38 99.17 L675.19 97.80 L671.41 95.48 L667.06 94.49 L663.00 92.85 L659.34 90.14 L654.57 90.34 L650.24 89.43 L646.39 87.22 L641.68 87.45 L637.34 86.65 L633.52 84.31 L629.38 82.92 L625.00 82.33 L621.51 78.72 L616.94 78.78 L612.11 79.93 L608.28 77.35 L603.74 77.52 L599.45 76.77 L595.99 72.32 L591.76 71.18 L588.05 67.42 L583.51 67.65 L579.12 67.14 L575.33 63.25 L570.79 63.56 L566.43 62.82 L562.59 58.39 L558.31 56.71 L553.59 58.54 L549.02 59.37 L544.16 63.34 L539.90 61.78 L535.59 60.51 L531.09 61.53 L526.78 60.07 L522.40 59.38 L518.03 58.18 L513.57 59.57 L509.07 63.76 L504.66 68.15 L500.35 61.70 L496.01 66.13 L491.67 66.22 L487.32 66.02 L482.93 64.89 L478.57 64.73 L474.70 73.24 L470.38 72.61 L466.18 73.92 L462.04 75.63 L457.97 77.75 L453.51 75.98 L449.03 74.46 L444.29 71.22 L440.06 72.18 L435.56 71.34 L431.35 72.42 L426.98 72.58 L422.24 70.75 L418.16 72.61 L413.79 72.98 L408.78 70.34 L404.26 70.24 L400.47 73.39 L396.54 75.77 L393.51 81.55 L388.72 80.35 L384.42 81.08 L380.71 83.90 L376.12 83.65 L371.66 83.94 L367.51 85.25 L363.78 87.84 L361.05 93.29 L358.63 99.34 L352.11 93.84 L349.61 99.48 L345.69 101.21 L341.77 102.93 L336.82 102.13 L333.38 105.03 L332.74 114.33 L328.02 114.05 L324.12 115.71 L321.26 119.54 L317.79 122.03 L311.77 119.32 L307.67 120.63 L302.12 119.16 L298.59 121.67 L294.97 123.99 L292.14 127.70 L287.78 128.67 L283.06 129.07 L280.04 132.39 L276.00 133.99 L270.46 133.23 L266.54 135.13 L263.77 138.81 L261.15 142.66 L260.72 149.64 L255.34 149.35 L251.89 151.88 L249.36 155.67 L244.84 156.72 L240.76 158.42 L237.56 161.30 L234.76 164.66 L234.17 170.74 L234.26 177.50 L225.90 174.05 L225.60 180.25 L222.52 183.12 L219.80 186.40 L214.08 186.37 L212.94 191.37 L215.50 200.19 L210.71 201.18 L208.35 204.72 L206.99 209.21 L205.13 213.16 L200.04 213.99 L196.05 215.94 L190.64 216.62 L187.28 219.24 L184.40 222.31 L182.75 226.43 L177.89 227.81 L174.22 230.25 L172.53 234.32 L169.04 236.94 L163.38 237.89 L161.08 241.50 L159.02 245.28 L158.53 250.19 L160.78 257.01 L154.89 257.98 L152.79 261.65 L151.57 265.90 L147.98 268.57 L144.23 271.16 L142.49 275.07 L141.16 279.21 L141.45 284.30 L142.29 289.65 L135.30 290.42 L135.52 295.36 L133.90 299.24 L132.30 303.12 L126.70 304.90 L129.55 311.08 L133.83 317.85 L125.33 318.28 L125.77 323.09 L126.58 328.02 L118.90 329.08 L119.50 333.90 L120.36 338.78 L113.35 340.35 L112.07 344.34 L111.97 348.78 L111.81 353.18 L106.57 355.68 L108.19 360.70 L107.59 364.89 L107.35 369.19 L105.76 373.02 L103.06 376.52 L102.13 380.58 L103.38 385.27 L104.21 389.78 L97.31 392.19 L98.23 396.73 L99.59 401.34 L98.87 405.40 L94.03 408.54 L95.47 413.10 L94.55 417.14 L94.91 421.42 L94.51 425.55 L91.61 429.23 L91.57 433.42 L93.47 437.90 L94.51 442.20 L88.46 445.53 L90.20 449.92 L91.23 454.19 L90.58 458.26 L87.41 462.10 L87.57 466.27 L87.06 470.39 L88.02 474.59 L88.54 478.75 L86.37 482.79 L86.97 486.95 L89.37 491.13 L92.45 495.28 L87.89 499.34 L90.82 503.44 L92.33 507.51 L93.36 511.55 L91.77 515.69 L91.53 519.79 L91.86 523.87 L93.75 527.83 L95.62 531.77 L90.82 536.27 L92.69 540.21 L95.58 544.01 L96.96 547.95 L93.24 552.52 L96.37 556.22 L97.32 560.20 L98.90 564.07 L99.04 568.17 L98.67 572.37 L99.48 576.37 L102.81 579.86 L105.78 583.37 L101.04 588.55 L102.76 592.34 L105.02 595.99 L104.90 600.22 L102.60 605.04 L106.07 608.35 L107.16 612.29 L107.44 616.46 L111.32 619.55 L111.46 623.78 L114.78 626.98 L117.49 630.34 L118.42 634.29 L119.47 638.22 L122.20 641.52 L125.52 644.56 L122.55 650.06 L125.13 653.39 L127.71 656.70 L130.13 660.06 L129.36 664.81 L133.44 667.40 L134.00 671.60 L135.94 675.15 L138.88 678.20 L139.73 682.28 L140.80 686.28 L144.63 688.82 L148.69 691.20 L146.97 696.73 L151.13 699.01 L154.36 701.78 L156.59 705.11 L156.99 709.55 L160.34 712.20 L161.43 716.25 L164.56 719.00 L168.98 720.87 L168.65 725.92 L171.41 728.88 L175.16 731.12 L178.90 733.34 L177.56 739.27 L182.41 740.64 L185.28 743.46 L187.29 746.94 L188.99 750.68 L191.66 753.66 L193.07 757.69 L196.33 760.17 L200.90 761.49 L201.34 766.42 L204.41 769.04 L208.31 770.88 L211.89 772.96 L212.27 778.12 L216.92 779.15 L219.54 782.15 L222.52 784.80 L225.59 787.34 L228.23 790.34 L230.75 793.47 L235.15 794.54 L240.12 794.89 L240.21 800.79 L244.51 801.86 L248.40 803.37 L252.26 804.87 L253.26 809.91 L257.96 810.33 L260.40 813.62 L263.38 816.23 L265.33 820.25 L268.38 822.80 L271.40 825.41 L272.57 830.74 L275.40 833.72 L278.21 836.76 L282.77 837.13 L287.23 837.57 L291.98 837.48 L297.12 836.63 L301.05 837.69 L305.81 837.30 L309.80 838.13 L312.94 840.47 L317.77 839.70 L321.15 841.55 L324.64 843.20 L327.70 845.69 L330.50 848.76 L334.98 848.36 L337.98 851.06 L341.19 853.35 L346.39 851.13 L350.19 851.99 L353.76 853.36 L357.13 855.23 L360.78 856.42 L363.81 859.21 L367.47 860.39 L371.56 860.36 L374.88 862.46 L378.49 863.76 L382.93 862.49 L386.52 863.76 L389.08 868.48 L393.90 865.67 L397.82 865.82 L401.12 868.14 L404.82 869.07 L408.97 868.17 L411.98 871.93 L415.05 875.69 L418.89 876.13 L422.53 877.54 L426.31 878.31 L430.18 878.58 L433.97 879.25 L437.81 879.59 L441.61 880.21 L445.52 880.00 L449.32 880.59 L453.27 879.92 L457.32 878.13 L461.03 879.23 L464.93 878.54 L468.76 878.33 L472.44 880.07 L476.16 881.58 L479.92 883.00 L483.68 884.86 L487.52 885.06 L491.41 883.50 L495.24 884.30 L499.09 881.00 L502.88 878.34 L506.66 877.86 L510.45 878.35 L514.10 874.67 L517.84 874.48 L521.75 877.16 L525.25 872.84 L528.93 871.98 L532.80 873.38 L536.46 872.34 L539.76 868.02 L543.86 871.22 L547.59 870.91 L551.07 868.81 L555.13 870.79 L558.76 869.71 L562.72 870.72 L566.48 870.35 L570.27 870.17 L573.88 868.98 L577.56 868.19 L581.01 866.39 L584.51 864.85 L588.00 863.36 L591.52 862.03 L595.10 860.94 L598.70 859.95 L602.67 860.30 L605.61 857.02 L609.35 856.52 L613.46 857.14 L616.62 854.74 L620.39 854.23 L624.54 854.77 L627.46 851.78 L630.82 850.10 L634.24 848.57 L637.82 847.47 L640.41 843.92 L644.40 843.83 L648.11 843.02 L650.30 838.73 L653.42 836.65 L657.37 836.36 L660.96 835.25 L663.74 832.47 L668.70 834.09 L672.67 833.61 L675.97 831.81 L679.61 830.66 L682.82 828.69 L686.18 826.98 L689.19 824.68 L691.88 821.84 L694.84 819.50 L697.60 816.85 L700.59 814.60 L703.03 811.51 L706.34 809.77 L709.28 807.47 L711.35 803.93 L714.93 802.58 L717.66 800.04 L719.22 795.91 L722.37 793.97 L725.10 791.47 L727.32 788.34 L729.00 784.57 L731.25 781.56 L733.09 778.08 L734.27 773.88 L736.07 770.45 L737.73 766.92 L739.14 763.16 L740.79 759.71 L742.33 756.18 L743.15 751.96 L744.70 748.54 L745.75 744.66 L747.35 741.38 L750.36 739.48 L752.17 736.42 L760.92 739.77 L766.86 740.35 L770.57 738.84 L776.85 739.50 L781.37 738.53 L783.42 735.44 L783.57 730.81 L785.41 727.60 L789.38 726.07 L792.88 724.12 L795.57 721.53 L797.93 718.68 L801.71 716.84 L802.33 712.74 L800.89 707.26 L805.73 706.11 L805.70 701.68 L808.83 699.34 L810.77 696.22 L814.31 694.09 L814.63 689.96 L817.04 687.12 L817.60 683.19 L815.47 677.78 L817.28 674.65 L820.49 672.26 L821.57 668.72 L822.87 665.31 L828.41 664.01 L828.00 659.73 L826.02 654.76 L829.02 652.16 L828.24 647.84 L830.49 644.89 L833.87 642.41 L838.59 640.44 L839.83 636.99 L841.22 633.60 L843.98 630.73 L843.83 626.75 L843.17 622.62 L844.09 619.09 L842.79 614.81 L845.14 611.77 L846.20 608.30 L847.30 604.85 L849.60 601.74 L850.74 598.28 L850.35 594.40 L849.05 590.31 L854.43 587.93 L853.23 583.90 L854.78 580.52 L856.98 577.28 L857.55 573.66 L856.38 569.72 L852.43 565.29 L852.35 561.64 L848.85 557.44 L847.89 553.71 L852.49 550.82 L852.75 547.26 L852.84 543.69 L858.37 540.74 L858.91 537.17 L856.72 533.34 L857.17 529.78 L856.19 526.11 L856.60 522.56 L856.85 519.00 L857.15 515.43 L856.97 511.85 L856.05 508.26 L854.99 504.68 L854.27 501.13 L853.56 497.59 L853.53 494.05 L852.76 490.54 L851.93 487.04 L850.64 483.57 L850.06 480.09 L848.42 476.69 L848.03 473.21 L848.05 469.71 L848.11 466.19 L846.75 462.82 L844.75 459.54 L845.69 455.92 L845.72 452.40 L843.45 449.21 L844.20 445.58 L844.26 442.03 L843.26 438.67 L840.80 435.58 L840.94 432.02 L840.36 428.59 L836.30 425.92 L837.88 422.02 L836.09 418.89 L832.31 416.27 L832.32 412.73 L834.18 408.66 L832.23 405.61 L832.26 402.00 L835.22 397.47 L833.47 394.35 L831.92 391.18 L830.06 388.12 L828.89 384.84 L827.39 381.67 L824.93 378.88 L823.68 375.64 L821.87 372.63 L819.07 370.03 L817.84 366.81 L816.39 363.68 L815.62 360.26 L813.05 357.63 L812.06 354.30 L812.74 350.16 L809.54 347.87 L806.64 345.47 L805.76 342.05 L803.47 339.37 L800.01 337.34 L797.29 334.95 L796.75 331.35 L793.39 329.35 L790.45 327.15 L789.53 323.75 L787.07 321.29 L782.65 320.10 L784.52 314.89 L781.43 312.86 L777.19 311.66 L777.90 307.09 L776.63 303.84 L773.24 302.11 L772.37 298.55 L773.43 293.51 L773.54 289.10 L771.00 286.70 L769.71 283.32 L767.16 280.93 L764.66 278.52 L760.93 277.17 L757.38 275.70 L755.94 272.42 L754.80 268.82 L751.32 267.37 L751.33 262.64 L748.41 260.66 L744.84 259.33 L742.29 257.03 L739.30 255.18 L736.61 253.03 L734.15 250.66 L734.01 245.75 L729.14 246.00 L728.34 241.73 L725.72 239.50 L721.46 239.19 L716.89 239.33 L713.29 238.38 L710.27 236.75 L708.24 233.88 L705.46 231.96 L703.88 228.43 L701.51 225.92 L697.34 225.89 L694.28 224.37 L691.45 222.53 L687.59 222.22 L685.48 219.34 L684.25 215.04 L681.77 212.62 L679.28 210.19 L675.65 209.59 L672.54 208.19 L669.42 206.82 L665.34 207.15 L662.40 205.52 L658.88 204.96 L657.28 200.80 L653.48 200.81 L651.00 198.24 L648.30 196.10 L644.84 195.50 L641.02 195.72 L638.68 192.74 L635.30 192.06 L632.70 189.58 L630.31 186.55 L625.87 188.48 L623.50 185.31 L619.67 185.88 L615.14 188.44 L611.34 189.20 L607.16 191.17 L604.12 189.95 L601.54 187.30 L598.93 184.65 L596.38 181.66 L593.53 179.56 L590.70 177.27 L586.94 178.36 L583.05 180.08 L580.39 177.05 L576.94 177.18 L573.66 176.63 L570.97 173.40 L567.70 172.70 L564.24 173.00 L560.62 174.25 L557.48 172.94 L553.79 174.93 L550.34 175.65 L547.35 173.39 L544.28 171.45 L540.66 173.71 L537.88 169.14 L534.56 168.83 L531.01 171.07 L527.64 171.60 L524.48 169.68 L521.04 171.61 L517.77 171.21 L514.62 167.78 L511.19 170.73 L507.94 169.04 L504.65 167.63 L501.31 170.70 L498.04 174.90 L494.80 175.37 L491.55 175.37 L488.32 175.83 L485.07 175.77 L481.62 172.32 L478.39 173.21 L475.38 176.82 L472.07 176.09 L468.93 177.44 L465.86 179.18 L462.46 177.87 L458.89 175.51 L455.63 175.78 L452.31 175.70 L449.25 177.34 L446.16 178.68 L443.06 179.85 L440.06 181.47 L437.11 183.29 L434.01 184.22 L430.25 182.13 L427.74 185.74 L424.26 185.09 L420.59 183.76 L417.82 186.06 L415.28 189.08 L411.38 187.13 L408.92 190.28 L405.23 189.27 L401.62 188.62 L399.21 191.76 L395.87 192.01 L393.54 195.17 L391.63 199.40 L389.70 203.38 L387.58 206.69 L384.12 206.49 L380.98 207.15 L377.38 206.72 L373.07 204.75 L370.24 206.29 L366.99 206.90 L364.22 208.59 L362.28 211.98 L358.50 211.51 L355.81 213.32 L352.92 214.71 L349.40 214.93 L346.62 216.57 L344.35 219.12 L342.76 222.83 L339.58 223.69 L338.24 227.68 L336.23 230.49 L332.26 230.06 L328.92 230.73 L328.29 235.62 L323.23 233.71 L320.13 234.83 L318.80 238.54 L317.47 242.16 L312.90 241.23 L312.25 245.72 L309.66 247.54 L305.15 246.86 L303.61 250.07 L301.03 251.94 L297.58 252.74 L297.38 257.48 L298.02 263.11 L295.42 264.87 L292.58 266.36 L290.47 268.68 L288.43 271.08 L282.95 269.80 L281.94 273.32 L282.40 278.28 L278.61 278.89 L277.84 282.51 L276.08 285.13 L272.58 286.09 L268.85 286.90 L266.98 289.46 L264.43 291.39 L262.56 293.94 L261.37 297.04 L260.46 300.37 L258.47 302.77 L258.30 306.62 L255.76 308.57 L251.98 309.57 L252.72 314.05 L249.93 315.83 L245.42 316.41 L245.01 319.96 L245.68 324.22 L240.81 324.66 L241.27 328.72 L238.22 330.44 L234.87 332.01 L234.26 335.32 L232.96 338.19 L234.13 342.51 L234.37 346.22 L236.29 350.83 L236.57 354.45 L232.80 355.83 L231.06 358.35 L228.66 360.54 L223.05 361.13 L222.88 364.50 L221.98 367.49 L220.54 370.22 L221.63 374.09 L218.86 376.21 L218.49 379.39 L217.72 382.39 L217.08 385.43 L214.95 387.87 L215.75 391.45 L218.69 395.79 L218.33 398.85 L220.68 402.83 L221.34 406.18 L216.28 407.62 L213.05 409.73 L213.50 413.01 L209.69 415.02 L206.37 417.22 L207.99 420.82 L212.32 425.08 L206.13 426.60 L208.56 430.29 L208.72 433.40 L204.64 435.57 L204.09 438.54 L204.24 441.65 L202.87 444.46 L204.35 447.79 L209.28 451.66 L207.72 454.40 L206.85 457.26 L205.65 460.09 L207.46 463.31 L201.54 465.59 L202.21 468.68 L207.85 472.23 L204.14 474.86 L206.57 478.02 L204.85 480.85 L204.78 483.81 L201.58 486.63 L201.27 489.61 L201.64 492.61 L199.79 495.56 L200.86 498.57 L204.46 501.54 L204.82 504.49 L208.44 507.36 L206.44 510.34 L205.18 513.34 L207.60 516.16 L203.97 519.34 L201.95 522.46 L204.44 525.25 L205.89 528.09 L201.80 531.49 L205.05 534.14 L203.14 537.37 L203.26 540.37 L204.07 543.28 L207.16 545.82 L213.20 547.82 L212.79 550.85 L218.06 552.83 L222.26 554.92 L218.75 558.54 L216.81 561.91 L221.02 563.92 L221.29 566.80 L221.14 569.79 L226.68 571.31 L232.99 572.52 L237.43 574.15 L238.51 576.67 L241.33 578.66 L234.36 583.70 L232.11 587.36 L232.11 590.33 L224.55 595.96 L223.03 599.60 L223.59 602.54 L225.76 604.86 L227.77 607.23 L227.70 610.41 L230.14 612.58 L233.12 614.48 L231.37 618.42 L232.51 621.13 L234.06 623.65 L233.44 627.19 L238.02 628.24 L238.05 631.49 L239.52 634.03 L243.16 635.42 L243.79 638.39 L246.02 640.48 L246.87 643.33 L246.54 646.88 L251.18 647.54 L250.89 651.10 L252.32 653.64 L256.92 654.18 L256.40 657.94 L259.03 659.68 L260.60 662.11 L261.78 664.81 L264.23 666.62 L264.64 669.89 L266.75 671.94 L267.96 674.66 L268.79 677.68 L271.28 679.43 L273.86 681.09 L274.61 684.22 L277.80 685.34 L280.93 686.48 L283.02 688.48 L284.53 690.98 L288.06 691.67 L290.71 693.12 L292.60 695.25 L296.47 695.48 L297.60 698.32 L299.94 699.99 L301.73 702.21 L302.55 705.43 L302.84 709.29 L304.35 711.89 L307.62 712.57 L308.76 715.61 L311.57 716.77 L315.52 716.56 L317.33 718.84 L320.96 718.89 L322.52 721.47 L325.46 722.32 L328.63 722.84 L329.60 726.23 L332.91 726.51 L335.06 728.33 L338.33 728.59 L338.12 733.81 L342.07 733.05 L345.69 732.68 L345.94 737.44 L347.55 740.18 L351.01 740.00 L353.44 741.43 L355.06 744.24 L358.05 744.75 L361.45 744.48 L363.48 746.63 L366.47 747.01 L368.86 748.50 L371.54 749.44 L375.55 747.71 L376.19 752.69 L378.91 753.53 L382.03 753.50 L383.15 757.80 L387.20 755.62 L390.00 756.18 L392.05 758.50 L395.41 757.68 L398.06 758.55 L400.36 760.31 L403.30 760.39 L405.25 763.17 L408.92 761.14 L411.10 763.35 L413.41 765.21 L417.24 762.36 L419.12 765.61 L422.12 765.24 L424.95 765.41 L427.21 767.62 L429.99 767.95 L432.89 767.76 L435.27 769.68 L437.86 770.77 L440.50 771.71 L443.66 770.19 L446.24 771.37 L449.13 770.96 L452.43 768.13 L454.86 770.12 L457.84 768.81 L460.90 766.71 L463.37 768.54 L466.06 768.87 L469.03 766.77 L471.37 770.14 L474.21 769.06 L476.97 768.43 L479.42 771.79 L482.26 770.08 L484.99 769.74 L487.54 773.31 L490.34 771.31 L493.07 771.05 L495.76 772.46 L498.50 768.86 L501.19 768.48 L503.89 769.82 L506.52 767.07 L509.14 765.28 L511.94 768.52 L514.61 768.17 L517.24 767.21 L519.94 767.48 L522.53 766.23 L525.57 770.01 L527.97 766.88 L530.52 765.57 L533.64 768.96 L536.42 769.30 L538.94 767.76 L541.41 766.04 L544.33 767.16 L547.07 767.10 L549.05 762.95 L552.02 764.18 L554.54 763.07 L556.95 761.51 L559.70 761.53 L561.65 758.16 L565.16 761.26 L567.56 759.77 L569.56 756.90 L573.14 759.78 L575.30 757.57 L577.18 754.54 L580.13 755.02 L582.15 752.60 L584.27 750.59 L587.29 751.21 L589.19 748.62 L591.73 747.88 L593.73 745.72 L595.85 743.90 L599.29 745.44 L600.59 741.67 L603.97 742.90 L606.54 742.18 L608.16 739.34 L611.36 740.01 L614.03 739.46 L615.02 735.45 L618.36 736.27 L621.45 736.50 L623.23 734.17 L624.57 731.08 L627.69 731.30 L629.23 728.64 L630.23 725.14 L632.85 724.46 L634.32 721.85 L634.88 717.82 L638.44 718.66 L640.10 716.46 L641.13 713.35 L645.33 714.99 L645.97 711.35 L647.82 709.51 L651.44 710.16 L652.34 707.00 L654.74 705.92 L658.14 706.12 L659.38 703.49 L661.45 701.95 L664.59 701.70 L663.17 695.93 L666.26 695.63 L668.28 694.03 L667.81 689.63 L669.61 687.84 L673.32 688.14 L674.81 685.99 L677.69 685.30 L678.82 682.79 L679.65 680.00 L684.34 681.04 L683.74 676.88 L685.53 675.06 L690.05 675.77 L689.92 672.15 L689.36 668.23 L693.47 668.45 L691.02 662.99 L689.99 658.85 L695.08 659.82 L693.15 655.04 L690.69 649.96 L698.19 652.67 L697.07 648.69 L696.73 645.37 L702.52 646.54 L699.79 641.54 L702.00 640.10 L705.68 639.62 L702.38 634.44 L702.97 631.93 L709.92 633.48 L706.49 628.42 L708.65 626.88 L712.27 626.20 L707.24 620.42 L712.84 620.84 L713.26 618.27 L708.23 612.78 L712.32 612.26 L716.88 611.91 L712.46 606.95 L718.57 607.30 L719.46 605.03 L716.36 600.90 L723.35 601.46 L720.60 597.56 L715.27 592.63 L723.30 593.46 L723.12 590.77 L719.27 586.66 L726.90 587.06 L723.47 583.19 L721.82 580.06 L728.96 580.06 L722.98 575.47 L718.87 571.65 L729.54 572.61 L725.59 568.89 L724.28 566.04 L731.80 565.74 L725.52 561.53 L728.42 559.88 L731.84 558.30 L723.94 553.94 L723.31 551.43 L732.83 551.18 L725.97 547.31 L729.34 545.62 L733.37 544.00 L724.64 540.04 L732.94 539.12 L731.71 536.53 L722.05 532.74 L728.36 531.34 L732.85 529.58 L724.13 526.20 L732.91 524.87 L732.24 522.45 L726.31 519.60 L735.43 518.02 L729.68 515.27 L719.37 512.38 L732.33 510.78 L731.53 508.42 L728.58 506.03 L736.35 503.87 L733.99 501.49 L733.75 499.15 L738.26 496.75 L731.07 494.54 L727.88 492.33 L735.80 489.71 L729.71 487.67 L728.61 485.43 L734.27 482.72 L726.40 481.02 L730.47 478.36 L731.26 475.95 L722.43 474.62 L722.34 472.37 L729.84 469.10 L721.80 467.92 L726.08 464.99 L727.67 462.41 L719.26 461.54 L727.02 457.84 L723.50 456.17 L713.61 455.89 L721.27 452.00 L722.44 449.41 L714.67 448.91 L722.35 444.73 L719.23 443.17 L717.28 441.35 L723.71 437.21 L718.46 436.32 L715.31 434.90 L722.38 430.33 L719.23 428.90 L717.25 427.13 L720.73 423.50 L715.50 422.89 L715.26 420.54 L716.82 417.49 L709.55 417.85 L706.58 416.62 L712.26 411.85 L705.37 412.29 L705.04 410.00 L707.94 406.23 L700.09 407.35 L706.07 402.07 L704.47 400.31 L698.64 400.68 L701.46 396.74 L703.41 393.16 L697.06 393.97 L699.94 389.83 L697.44 388.62 L691.87 389.21 L696.07 384.16 L690.94 384.60 L683.48 386.59 L689.19 380.43 L687.20 379.05 L681.43 380.19 L686.56 374.11 L681.45 374.90 L677.70 374.84 L682.32 368.84 L675.00 371.43 L668.83 373.35 L676.52 364.80 L672.34 365.24 L669.87 364.41 L674.04 358.21 L669.55 359.03 L669.99 355.76 L669.93 352.87 L663.16 355.85 L662.14 353.84 L664.97 348.26 L659.68 350.16 L660.47 346.37 L660.28 343.45 L654.26 346.29 L656.38 341.03 L653.48 340.82 L646.40 345.09 L647.56 340.70 L647.69 337.33 L640.58 342.01 L643.79 335.12 L641.00 335.01 L635.69 337.98 L639.19 330.37 L633.90 333.46 L626.28 339.67 L631.92 329.03 L628.98 329.33 L624.36 331.97 L627.69 323.82 L623.12 326.50 L621.91 324.52 L623.27 318.71 L618.43 322.04 L616.37 321.28 L618.55 313.89 L614.85 315.65 L612.70 315.00 L612.79 310.63 L608.18 314.17 L607.83 310.42 L605.98 309.27 L600.60 314.61 L598.64 313.81 L599.33 307.88 L594.14 313.37 L594.13 308.64 L592.62 306.87 L587.93 311.85 L589.66 303.04 L586.60 304.60 L582.68 308.28 L583.43 301.10 L581.61 299.86 L577.64 303.99 L577.65 298.11 L574.26 301.01 L571.16 303.33 L571.18 296.95 L567.12 302.23 L563.10 307.77 L564.17 297.71 L561.03 300.71 L558.09 303.30 L558.15 295.60 L554.36 301.41 L552.33 301.02 L551.57 295.62 L547.47 303.61 L544.80 306.19 L545.25 294.90 L542.85 296.14 L540.76 295.98 L540.01 288.76 L537.75 289.15 L536.17 285.65 L533.90 286.09 L530.94 291.31 L529.10 289.20 L527.31 286.40 L524.67 290.41 L523.08 285.41 L520.81 286.51 L518.37 289.78 L516.63 284.87 L514.14 289.78 L511.65 296.50 L509.93 289.69 L507.82 289.83 L505.59 294.42 L503.64 287.95 L501.51 288.78 L499.42 293.60 L497.29 288.99 L495.25 291.95 L493.31 296.33 L491.04 290.88 L488.93 290.71 L486.90 291.73 L484.67 289.86 L482.90 294.08 L480.54 291.01 L478.51 291.73 L477.05 297.44 L474.55 293.83 L471.89 289.64 L470.26 293.23 L467.95 291.94 L465.57 290.45 L464.17 294.77 L461.83 293.55 L460.02 295.24 L458.73 299.34 L456.58 299.09 L454.31 298.38 L453.22 302.74 L450.41 299.80 L448.60 301.04 L447.22 303.83 L443.96 299.71 L442.65 302.66 L440.96 304.19 L437.66 300.47 L435.98 302.09 L434.40 303.91 L431.73 302.50 L431.04 306.80 L430.09 310.16 L426.87 307.37 L426.34 311.67 L425.41 314.79 L421.89 311.51 L420.07 312.43 L418.83 314.69 L416.23 313.82 L416.14 318.51 L412.71 315.94 L411.85 318.82 L412.88 325.40 L409.12 322.34 L406.39 321.42 L405.78 324.55 L402.19 322.17 L400.36 323.05 L400.01 326.50 L397.03 325.39 L396.08 327.74 L396.65 332.50 L393.59 331.33 L391.26 331.41 L391.31 335.13 L387.43 332.90 L386.85 335.61 L386.47 338.54 L382.54 336.45 L384.20 342.12 L385.61 347.27 L378.85 341.57 L378.92 344.90 L378.49 347.51 L374.04 345.14 L374.82 349.20 L373.88 351.12 L370.38 350.06 L371.34 354.15 L371.28 356.98 L366.39 354.50 L365.38 356.31 L364.91 358.67 L362.73 359.23 L364.40 363.71 L359.41 361.49 L359.77 364.58 L360.53 367.98 L355.86 366.27 L352.92 366.25 L353.64 369.56 L350.13 369.09 L348.80 370.57 L350.18 374.33 L346.04 373.46 L346.65 376.50 L350.03 381.68 L345.15 380.33 L344.30 382.14 L345.18 385.22 L340.47 384.18 L342.16 387.80 L340.81 389.22 L337.07 389.02 L340.62 393.76 L341.80 396.81 L335.72 395.17 L336.44 397.92 L337.07 400.56 L332.70 400.18 L334.74 403.63 L334.41 405.64 L331.72 406.32 L334.52 410.04 L335.44 412.66 L330.54 412.21 L329.71 413.93 L328.97 415.70 L328.08 417.39 L331.13 420.92 L326.27 420.75 L329.14 424.12 L333.07 427.85 L325.74 426.74 L325.84 428.83 L326.79 431.23 L321.54 431.20 L321.62 433.27 L323.07 435.82 L321.19 437.16 L322.11 439.47 L325.22 442.48 L321.47 443.21 L321.15 445.08 L321.78 447.21 L317.95 448.05 L320.75 450.78 L320.91 452.75 L317.25 453.73 L323.02 457.07 L325.17 459.44 L318.06 459.70 L320.84 462.19 L320.79 464.05 L315.92 464.99 L321.07 467.82 L318.50 469.23 L317.35 470.91 L321.03 473.32 L321.64 475.24 L316.78 476.43 L317.87 478.42 L317.41 480.21 L317.90 482.10 L321.44 484.25 L316.18 485.64 L320.86 487.81 L323.32 489.75 L316.81 491.21 L316.98 493.05 L319.16 494.94 L314.83 496.67 L314.79 498.53 L317.15 500.37 L314.14 502.24 L316.91 504.04 L322.37 505.69 L317.03 507.70 L318.78 509.44 L319.93 511.19 L316.16 513.27 L320.65 514.75 L318.06 516.79 L317.25 518.71 L323.11 519.90 L323.89 521.60 L319.18 524.01 L322.63 525.36 L322.67 527.17 L320.57 529.33 L325.65 530.29 L324.19 532.36 L324.07 534.21 L328.80 535.07 L329.39 536.73 L326.39 539.19 L327.20 540.83 L326.60 542.81 L328.65 544.12 L331.84 545.10 L327.81 548.03 L334.22 548.04 L337.90 548.73 L330.47 552.82 L332.02 554.19 L335.21 554.98 L330.94 558.29 L332.96 559.47 L335.89 560.28 L335.51 562.30 L337.84 563.28 L341.17 563.81 L338.39 566.82 L341.47 567.41 L343.50 568.40 L340.18 571.76 L344.77 571.58 L344.20 573.74 L343.57 575.96 L346.55 576.42 L346.00 578.62 L344.64 581.28 L347.32 581.84 L346.87 584.06 L346.64 586.20 L354.24 583.85 L351.57 587.38 L352.96 588.55 L357.27 587.91 L356.44 590.41 L356.12 592.63 L357.69 593.65 L357.02 596.15 L359.87 596.29 L362.19 596.74 L359.85 600.49 L366.45 597.79 L368.89 598.03 L363.76 604.01 L368.12 602.79 L369.00 604.22 L367.24 607.81 L370.01 607.73 L371.71 608.50 L372.78 609.80 L375.58 609.58 L377.84 609.77 L375.87 613.81 L378.60 613.56 L379.40 615.09 L378.19 618.60 L382.77 616.45 L382.19 619.39 L383.18 620.77 L389.01 617.07 L389.45 618.96 L387.38 623.65 L392.12 620.85 L390.98 624.61 L391.11 627.01 L396.25 623.49 L394.21 628.50 L396.41 628.43 L400.38 626.06 L399.88 629.34 L399.76 632.20 L402.75 630.95 L402.54 634.02 L405.90 632.15 L407.55 632.62 L406.49 637.05 L412.05 631.71 L413.43 632.49 L412.76 636.49 L416.00 634.35 L417.93 634.23 L419.77 634.22 L420.25 636.50 L422.50 635.75 L424.51 635.35 L425.17 637.37 L427.18 636.93 L428.18 638.37 L429.78 638.66 L430.59 640.54 L431.44 642.38 L433.63 641.43 L434.70 642.85 L436.37 642.95 L439.25 640.24 L440.79 640.53 L442.49 640.39 L444.19 640.23 L445.76 640.36 L446.21 643.44 L448.39 641.93 L450.49 640.51 L451.13 643.24 L452.72 643.27 L455.33 640.05 L455.70 643.84 L456.18 647.50 L459.03 643.14 L460.36 643.92 L461.43 645.71 L463.10 645.25 L465.55 641.54 L466.06 645.78 L467.41 646.60 L469.14 645.69 L470.21 647.89 L472.07 646.22 L473.21 648.28 L474.75 648.20 L476.15 648.95 L477.76 648.39 L479.22 648.78 L480.82 648.14 L482.39 647.55 L483.93 647.17 L485.38 647.52 L486.90 647.22 L488.34 647.76 L489.76 648.69 L491.44 645.47 L492.84 646.73 L494.22 649.00 L495.79 646.36 L497.23 647.52 L498.70 648.85 L500.18 645.66 L501.62 644.49 L503.09 645.30 L504.54 645.34 L505.82 641.04 L507.45 645.25 L508.94 645.79 L510.09 641.33 L511.50 641.20 L513.12 643.44 L514.52 642.97 L515.52 638.96 L517.54 643.96 L519.02 644.10 L520.22 642.19 L521.71 642.46 L523.14 642.25 L524.74 643.05 L525.84 640.99 L527.18 640.40 L528.56 640.00 L529.77 638.84 L531.44 639.79 L532.74 639.05 L534.50 640.22 L536.01 640.29 L537.06 638.62 L538.72 639.22 L539.64 637.20 L540.03 633.53 L541.38 633.20 L542.63 632.53 L543.54 630.85 L544.77 630.18 L547.13 632.72 L547.45 629.50 L548.17 627.50 L550.31 629.24 L551.24 627.82 L551.01 623.66 L554.19 627.72 L556.08 628.60 L555.48 623.82 L557.12 624.15 L558.86 624.62 L559.42 622.62 L559.10 618.92 L562.61 622.88 L563.31 621.24 L564.45 620.47 L566.57 621.49 L566.77 619.03 L568.51 619.32 L569.70 618.62 L571.38 618.75 L571.73 616.67 L573.06 616.21 L573.87 614.94 L574.67 613.66 L575.28 612.14 L576.60 611.66 L577.43 610.49 L579.27 610.74 L579.98 609.41 L579.22 606.12 L581.60 607.06 L583.54 607.37 L583.07 604.59 L585.25 605.16 L586.55 604.60 L585.85 601.67 L585.93 599.72 L587.63 599.67 L588.07 598.17 L586.43 594.42 L590.56 596.97 L590.72 595.21 L589.20 591.76 L590.05 590.80 L592.19 591.12 L591.87 589.01 L591.10 586.51 L594.98 588.40 L595.22 586.87 L595.12 585.05 L595.70 583.86 L596.72 583.06 L597.22 581.82 L596.59 579.65 L597.70 578.93 L597.46 577.14 L597.66 575.73 L598.85 575.08 L599.10 573.71 L600.44 573.17 L600.35 571.57 L600.47 570.15 L601.19 569.16 L600.42 567.17 L599.17 564.91 L599.57 563.76 L600.07 562.68 L599.64 561.03 L599.96 559.86 L601.35 559.32 L600.33 557.39 L600.32 556.06 L601.25 555.25 L600.75 553.68 L599.84 551.92 L601.98 551.75 L602.02 550.49 L601.06 548.76 L601.72 547.83 L601.94 546.70 L601.35 545.21 L600.88 543.79 L602.50 543.28 L602.29 541.99 L602.24 540.78 L602.66 539.77 L602.69 538.60 L602.63 537.41 L602.73 536.29 L602.89 535.19 L602.79 534.01 L602.70 532.85 L602.91 531.78 L602.51 530.54 L602.21 529.34 L602.48 528.31 L602.25 527.15 L602.17 526.04 L602.32 524.99 L602.50 523.95 L602.42 522.85 L602.57 521.82 L602.45 520.72 L602.35 519.64 L602.04 518.52 L601.57 517.39 L601.35 516.31 L601.27 515.26 L601.01 514.19 L600.56 513.10 L600.69 512.10 L600.42 511.05 L600.05 509.99 L599.92 508.97 L599.70 507.95 L599.41 506.93 L599.18 505.91 L599.02 504.91 L598.81 503.91 L598.61 502.92 L598.43 501.93 L598.26 500.94 Z"/>
  <svg class="pausebutton" id="pausebutton">
    <circle cx="500" cy="500" id="pausestart" class="pausestart" r="52.65"/>
    <rect height="50.02" width="10.00" y="473.68" rx="2.00" ry="2.00" x="479.99" class="pausesymbol"/>
    <rect height="50.02" width="10.00" y="473.68" rx="2.00" ry="2.00" x="510.00" class="pausesymbol"/>
    <polygon points="530.01,500 479.99,530.01 479.99,469.99" class="playsymbol"/>
  </svg>
  <polygon id="playback-head" class="playback-head" points="941.65,500 921.65,540 961.65,540"/>
</svg>