<?xml-stylesheet href="../../style/waveformjs.css" type="text/css"?>
<svg xmlns="http://www.w3.org/2000/svg" xmlns:xlink="http://www.w3.org/1999/xlink" width="100%" height="100%" viewBox="0 0 1000 1000">
  <path class="svg-wave" id="sp" d="M591.09 500.00 L591.28 500.91 L591.43 501.83 L591.56 502.75 L591.70 503.67 L591.84 504.60 L591.94 505.52 L592.06 506.46 L592.11 507.38 L592.13 508.31 L592.13 509.24 L592.13 510.17 L592.10 511.11 L592.02 512.03 L591.96 512.96 L591.68 513.86 L591.59 514.78 L591.25 515.66 L591.03 516.57 L590.78 517.46 L587.65 517.77 L582.38 517.56 L582.52 518.45 L576.53 517.92 L582.72 520.24 L579.40 520.27 L582.85 522.04 L580.56 522.29 L579.69 522.92 L579.09 523.60 L578.08 524.15 L577.36 524.78 L576.88 525.48 L575.83 525.97 L575.04 526.55 L574.74 527.28 L572.69 527.36 L573.45 528.49 L571.72 528.64 L570.69 529.06 L567.91 528.71 L565.31 528.38 L563.37 528.30 L561.89 528.38 L565.08 530.64 L572.52 535.03 L575.73 537.52 L584.49 542.92 L581.90 542.64 L578.73 541.99 L576.06 541.55 L572.13 540.35 L569.33 539.70 L566.19 538.78 L562.97 537.75 L559.53 536.50 L559.26 537.15 L567.31 543.14 L568.51 544.88 L577.66 552.00 L575.41 551.59 L571.75 550.15 L567.51 548.19 L563.50 546.30 L560.83 545.29 L558.63 544.57 L558.44 545.36 L557.39 545.46 L558.17 547.04 L566.95 555.25 L568.00 557.27 L579.27 568.14 L578.23 568.61 L577.49 569.35 L576.83 570.16 L575.80 570.62 L574.12 570.45 L572.71 570.50 L571.02 570.25 L570.31 570.96 L569.86 571.93 L569.01 572.49 L567.48 572.32 L567.67 574.00 L564.00 571.40 L567.08 576.36 L563.98 574.32 L565.43 577.55 L563.92 577.32 L562.56 577.24 L561.14 577.04 L559.84 576.98 L558.44 576.74 L557.42 577.00 L556.35 577.16 L555.32 577.35 L554.53 577.88 L553.67 578.32 L552.03 577.57 L550.72 577.29 L548.45 575.46 L546.79 574.51 L545.66 574.34 L544.73 574.48 L544.07 575.07 L542.92 574.82 L541.41 573.89 L539.63 572.40 L540.00 574.86 L543.50 583.39 L544.25 586.94 L546.81 594.28 L544.39 591.71 L542.00 589.03 L539.73 586.45 L538.49 586.01 L536.99 584.91 L535.14 582.94 L534.04 582.63 L532.43 581.01 L532.38 583.28 L535.14 593.13 L534.31 593.77 L535.94 601.34 L533.05 596.25 L530.77 592.61 L529.09 590.58 L528.22 590.98 L527.44 591.68 L526.68 592.50 L525.66 592.43 L524.13 590.43 L523.16 590.41 L524.69 600.53 L523.79 601.23 L526.12 616.36 L525.00 616.82 L523.82 617.04 L522.66 617.30 L521.28 616.44 L519.21 611.41 L518.54 614.31 L515.82 604.13 L513.76 597.07 L511.67 588.68 L510.14 583.53 L508.52 576.55 L508.49 583.98 L507.20 579.09 L507.96 598.33 L506.94 597.84 L506.96 614.39 L505.55 609.13 L503.98 597.38 L502.82 591.53 L501.98 595.32 L500.96 588.99 L500.08 594.36 L499.19 588.35 L498.19 594.04 L497.26 593.89 L495.74 608.72 L494.65 608.62 L493.54 608.98 L492.49 608.33 L491.45 607.66 L490.51 606.13 L489.53 605.19 L488.55 604.41 L487.77 602.12 L486.91 600.74 L486.07 599.41 L485.51 596.40 L484.96 593.65 L484.55 590.43 L481.70 601.04 L481.17 598.33 L477.21 612.89 L477.03 608.20 L478.16 598.03 L478.12 593.80 L476.90 594.74 L476.83 591.05 L475.73 591.52 L475.67 588.20 L475.79 584.46 L475.34 582.88 L468.80 601.14 L470.31 592.94 L467.56 598.17 L469.29 589.89 L467.34 592.57 L466.94 590.80 L462.26 600.52 L461.18 600.33 L460.84 598.28 L458.77 600.54 L453.75 609.63 L451.25 612.42 L444.57 624.39 L443.76 622.89 L442.53 622.32 L441.74 620.86 L441.53 618.25 L444.28 609.91 L448.09 599.91 L451.19 591.69 L445.92 599.17 L445.69 597.28 L435.48 612.90 L434.92 611.28 L433.09 611.82 L433.88 608.03 L429.61 612.47 L429.62 610.00 L426.78 611.95 L428.74 606.62 L434.61 595.74 L437.34 589.80 L433.39 593.46 L436.98 586.57 L431.80 591.75 L436.02 584.30 L430.06 590.26 L430.23 588.21 L417.85 601.76 L416.87 600.89 L416.00 599.89 L415.08 598.96 L414.73 597.38 L414.44 595.76 L414.18 594.13 L414.26 592.18 L414.49 590.11 L414.44 588.38 L415.13 585.92 L417.04 582.33 L419.35 578.45 L421.74 574.62 L411.25 582.95 L412.14 580.48 L397.81 591.74 L398.37 589.43 L397.88 588.06 L398.59 585.70 L398.60 583.96 L400.74 580.53 L403.09 577.03 L404.75 574.17 L408.85 569.52 L409.60 567.53 L400.25 572.98 L406.63 566.89 L401.60 569.01 L409.00 562.47 L406.29 562.96 L406.59 561.42 L396.15 566.80 L395.88 565.51 L395.52 564.29 L392.67 564.57 L386.05 567.01 L384.05 566.64 L379.72 567.53 L383.04 564.14 L387.07 560.47 L391.83 556.53 L393.98 554.06 L395.93 551.77 L384.90 555.83 L385.57 554.09 L382.99 553.89 L390.77 548.99 L396.99 544.97 L403.67 540.91 L397.10 542.49 L398.17 540.86 L377.29 547.82 L375.40 547.13 L357.33 552.34 L362.93 548.73 L373.79 543.45 L379.98 539.99 L376.04 539.93 L384.14 536.04 L378.98 536.32 L388.41 532.28 L385.51 531.88 L382.80 531.38 L367.50 534.06 L362.84 533.80 L358.45 533.38 L359.90 531.56 L358.58 530.38 L360.40 528.53 L360.78 527.01 L365.69 524.66 L371.77 522.22 L377.65 519.94 L378.45 518.57 L380.94 516.97 L377.01 516.28 L377.24 515.00 L360.87 515.59 L362.37 514.03 L345.59 514.18 L352.02 512.10 L364.95 509.69 L371.46 507.93 L374.21 506.50 L380.45 504.98 L378.53 503.84 L382.24 502.54 L380.38 501.39 L380.84 500.19 L360.22 498.82 L367.72 497.56 L360.82 496.05 L371.08 495.05 L368.62 493.64 L371.85 492.51 L363.67 490.66 L367.30 489.57 L370.45 488.52 L370.07 487.17 L355.31 484.25 L350.22 482.18 L331.28 478.22 L331.86 476.58 L332.28 474.93 L332.92 473.31 L335.74 472.07 L345.92 472.22 L356.42 472.62 L367.82 473.42 L365.92 471.65 L367.91 470.68 L354.60 466.20 L350.39 463.64 L348.23 461.50 L349.74 460.28 L342.84 456.77 L347.53 456.42 L340.80 452.77 L347.44 453.07 L359.58 455.26 L367.91 456.46 L368.33 455.13 L374.31 455.76 L370.01 452.78 L373.04 452.44 L367.90 449.01 L371.10 448.75 L355.31 440.79 L359.36 440.80 L354.44 437.01 L357.98 436.85 L360.20 436.16 L360.97 434.82 L361.76 433.50 L363.86 432.82 L364.87 431.63 L368.41 431.76 L370.14 431.00 L373.68 431.25 L375.12 430.41 L379.17 431.07 L368.39 423.17 L371.73 423.39 L359.93 414.43 L365.19 415.78 L369.87 416.88 L373.38 417.33 L376.68 417.71 L376.94 416.09 L376.69 414.11 L378.77 413.74 L380.99 413.52 L385.21 414.82 L377.45 407.15 L384.91 410.97 L381.35 406.31 L389.30 410.77 L387.68 407.60 L391.87 409.22 L385.90 402.25 L386.98 401.19 L387.76 399.87 L386.54 396.73 L376.91 385.69 L376.88 383.35 L367.19 371.63 L368.36 370.19 L369.70 368.92 L371.18 367.78 L373.29 367.32 L378.21 369.89 L377.84 366.85 L386.53 373.81 L392.45 377.96 L399.49 383.63 L404.38 387.03 L410.76 392.40 L408.96 387.96 L411.11 388.35 L401.80 374.10 L400.26 369.45 L392.06 355.74 L396.64 358.95 L404.83 367.36 L409.99 371.87 L409.71 368.70 L414.12 372.40 L412.75 367.52 L418.06 372.84 L419.46 372.22 L420.13 370.43 L415.12 359.16 L414.02 354.05 L412.83 348.59 L414.63 348.23 L416.47 347.97 L419.17 349.33 L421.68 350.44 L423.24 349.78 L426.38 352.29 L429.28 354.48 L431.92 356.28 L434.55 358.18 L436.39 358.48 L437.93 358.13 L434.11 345.19 L436.65 346.93 L432.63 332.50 L436.26 336.82 L441.35 345.29 L444.43 348.89 L446.03 348.57 L449.50 353.71 L450.33 351.31 L453.07 354.68 L454.59 354.44 L456.08 354.08 L452.20 335.24 L456.02 342.55 L456.17 336.81 L460.22 345.75 L461.25 343.29 L463.10 344.09 L462.44 333.92 L464.40 334.90 L466.33 335.91 L467.72 334.30 L467.14 321.86 L468.06 316.55 L467.41 301.10 L469.55 301.75 L471.54 301.51 L473.68 302.33 L475.93 304.32 L478.83 312.41 L481.75 322.38 L484.43 331.99 L485.90 329.21 L487.96 333.97 L489.00 323.95 L490.65 321.63 L492.24 316.94 L494.03 315.67 L495.60 303.60 L497.61 307.28 L499.52 300.68 L501.47 306.37 L503.20 318.27 L504.81 325.71 L506.58 325.12 L507.95 333.06 L509.88 328.62 L511.25 333.89 L513.58 325.34 L515.42 324.44 L518.88 307.15 L520.90 306.49 L523.01 305.28 L524.93 305.67 L526.73 306.98 L528.41 308.91 L529.63 313.56 L530.71 318.48 L531.62 323.83 L532.89 326.77 L535.01 325.12 L536.48 326.82 L538.15 327.47 L539.24 330.59 L543.97 318.43 L545.20 321.21 L551.39 304.94 L552.26 309.40 L553.01 313.99 L552.94 321.05 L553.13 326.77 L554.26 329.22 L555.67 330.65 L558.05 329.20 L559.34 330.95 L560.76 332.31 L566.24 322.75 L564.91 331.47 L568.53 327.23 L566.32 337.55 L568.41 337.12 L568.72 340.85 L574.15 332.88 L575.85 333.56 L578.13 333.01 L581.59 330.05 L587.81 321.70 L590.47 320.83 L593.97 318.44 L594.37 322.05 L592.55 329.61 L591.71 335.13 L592.25 337.99 L592.19 341.79 L601.27 330.14 L600.62 335.01 L603.94 333.33 L599.35 344.18 L596.78 351.52 L594.09 358.74 L598.44 355.37 L599.42 357.02 L614.28 339.12 L616.84 338.94 L631.18 322.93 L628.20 330.52 L622.08 341.92 L619.19 348.82 L622.87 347.31 L618.78 355.38 L623.17 353.06 L618.75 361.17 L623.38 358.64 L626.23 358.26 L638.56 347.52 L641.91 346.94 L645.30 346.39 L645.35 349.39 L647.75 349.93 L647.30 353.35 L647.98 355.59 L646.03 360.32 L642.60 366.31 L640.14 371.22 L641.04 372.97 L640.11 376.32 L644.48 375.01 L644.49 377.51 L657.88 368.85 L657.83 371.54 L672.05 362.80 L668.57 368.31 L659.85 377.68 L655.57 383.40 L654.53 386.58 L650.36 391.93 L652.74 392.52 L650.62 396.25 L653.69 396.39 L653.84 398.51 L672.26 388.81 L666.93 394.60 L673.77 392.70 L665.41 400.13 L669.02 400.24 L666.12 404.18 L674.05 401.92 L671.62 405.53 L667.39 410.03 L670.21 410.69 L684.34 405.62 L692.33 403.95 L713.67 395.95 L714.58 398.14 L715.29 400.43 L715.52 402.93 L713.97 406.19 L705.08 412.52 L695.58 418.87 L685.75 425.12 L688.33 426.26 L687.30 428.82 L701.98 425.54 L708.33 425.56 L710.03 427.31 L712.35 428.88 L716.43 429.91 L714.63 432.86 L721.45 433.15 L716.65 436.95 L705.64 442.38 L698.49 446.52 L698.80 448.56 L693.59 451.97 L698.68 452.81 L696.40 455.42 L705.35 455.55 L702.87 458.20 L720.83 456.80 L717.58 459.69 L720.74 461.38 L718.09 464.09 L715.77 466.69 L716.58 468.78 L716.57 470.98 L715.06 473.37 L715.11 475.55 L712.30 478.02 L710.92 480.29 L707.96 482.66 L707.69 484.77 L703.55 487.12 L717.83 488.40 L714.77 490.72 L729.76 492.37 L724.87 494.79 L720.55 497.09 L717.65 499.31 L713.96 501.46 L715.76 503.63 L715.17 505.77 L714.40 507.90 L712.52 509.96 L707.56 511.80 L719.24 514.67 L710.42 516.19 L716.66 518.86 L707.43 520.15 L710.92 522.62 L705.25 524.09 L713.15 527.18 L712.30 529.23 L711.51 531.28 L714.17 533.86 L730.30 538.78 L730.31 541.15 L748.31 546.93 L747.80 549.41 L747.22 551.87 L745.88 554.16 L743.80 556.27 L737.86 557.41 L739.71 560.39 L728.03 559.88 L720.23 560.19 L710.78 559.88 L703.54 560.03 L695.78 559.88 L698.40 562.86 L697.03 564.60 L712.04 571.88 L716.18 575.70 L730.62 583.35 L725.22 583.96 L713.47 582.02 L706.70 581.80 L708.50 584.93 L702.46 584.84 L706.16 588.82 L698.17 587.74 L696.66 589.44 L696.93 591.95 L706.85 599.11 L710.69 603.55 L714.45 608.08 L712.73 609.89 L710.88 611.62 L707.41 612.45 L704.51 613.54 L703.48 615.64 L699.22 615.88 L694.61 615.81 L689.05 615.08 L686.10 615.85 L683.97 617.09 L683.57 619.43 L695.67 630.11 L691.92 630.40 L702.99 640.91 L696.93 639.64 L687.36 635.69 L681.77 634.44 L680.19 636.08 L672.48 632.98 L673.31 636.41 L668.62 635.47 L668.20 637.92 L668.13 640.70 L680.67 654.29 L673.36 651.07 L675.69 656.22 L666.89 651.41 L668.02 655.53 L665.42 656.22 L671.55 665.29 L668.35 665.48 L665.41 665.88 L664.41 668.20 L671.21 678.70 L673.07 684.31 L681.99 697.73 L679.20 698.64 L676.95 700.14 L673.87 700.67 L670.29 700.55 L662.77 695.63 L654.03 688.93 L645.68 682.38 L645.69 686.18 L640.66 683.51 L645.31 693.55 L645.41 697.78 L645.59 702.23 L645.50 706.43 L648.40 715.08 L644.74 714.32 L645.08 719.53 L639.88 716.32 L631.42 707.78 L625.29 702.53 L624.06 705.10 L617.84 699.30 L618.41 704.91 L614.23 702.32 L615.80 709.97 L614.26 712.18 L619.62 727.55 L617.56 729.16 L616.04 731.89 L613.81 733.22 L611.20 733.79 L608.34 733.78 L604.29 731.05 L600.20 728.05 L596.04 724.67 L592.70 722.98 L591.39 726.20 L588.60 725.77 L586.21 726.29 L583.13 724.95 L585.12 737.62 L582.06 736.51 L585.31 754.03 L581.40 750.67 L577.56 747.23 L573.09 741.42 L569.00 736.40 L566.27 735.79 L563.52 735.02 L561.83 738.17 L558.94 736.78 L556.43 736.77 L556.33 747.26 L552.12 739.83 L550.74 745.27 L546.23 735.30 L544.23 737.70 L541.19 734.35 L540.49 744.69 L538.00 744.82 L535.72 746.39 L533.84 751.06 L532.70 762.38 L530.59 767.24 L528.77 775.69 L525.39 769.39 L522.30 764.90 L519.17 758.63 L516.38 755.73 L513.83 755.96 L511.78 767.55 L509.07 766.92 L506.67 778.03 L503.84 774.68 L501.08 770.05 L498.40 765.46 L495.81 761.73 L493.12 764.26 L490.21 771.75 L487.17 778.56 L483.73 790.14 L480.93 788.45 L478.30 784.91 L475.56 783.38 L473.09 779.44 L470.74 774.98 L467.64 777.69 L465.40 773.10 L462.18 776.31 L459.47 775.61 L456.81 774.57 L454.17 773.49 L451.45 772.98 L449.07 770.64 L446.15 771.18 L443.92 768.36 L441.59 766.17 L439.66 762.42 L437.79 758.66 L435.72 755.97 L433.39 754.47 L430.31 755.76 L424.54 766.41 L421.07 768.40 L414.37 780.78 L412.27 777.68 L410.65 773.25 L408.86 769.57 L407.71 764.25 L406.04 760.62 L404.74 756.17 L403.41 752.01 L402.27 747.55 L399.67 746.86 L393.15 755.56 L389.77 756.42 L382.58 765.78 L382.30 759.36 L379.97 757.61 L380.75 749.41 L378.56 747.58 L377.32 743.91 L376.15 740.22 L373.67 739.14 L371.71 737.08 L368.33 737.62 L359.92 746.93 L355.77 748.43 L344.87 761.15 L342.16 759.76 L339.69 757.97 L337.40 755.91 L335.68 753.00 L337.05 745.48 L332.06 747.58 L333.24 740.63 L327.54 743.62 L325.12 741.87 L322.75 740.06 L320.38 738.24 L318.11 736.30 L315.86 734.33 L313.61 732.38 L311.33 730.46 L309.19 728.38 L307.00 726.36 L304.75 724.42 L302.77 722.16 L300.90 719.80 L301.84 714.41 L297.49 714.78 L298.33 709.65 L293.81 710.10 L291.99 707.75 L290.42 705.17 L289.85 701.66 L288.99 698.47 L289.18 694.35 L289.17 690.50 L287.46 688.21 L286.32 685.45 L283.96 683.74 L282.66 681.13 L281.75 678.22 L281.19 675.06 L279.40 672.91 L267.45 678.54 L264.70 676.95 L254.32 680.93 L255.58 676.27 L257.73 671.06 L258.85 666.68 L257.95 663.75 L257.85 660.31 L258.43 656.47 L257.85 653.43 L258.02 649.95 L254.89 648.52 L244.44 651.38 L241.90 649.42 L234.58 650.14 L239.81 643.76 L239.89 640.34 L243.45 635.13 L239.79 633.75 L239.45 630.64 L238.66 627.79 L238.46 624.66 L238.21 621.58 L235.38 619.69 L223.81 621.61 L220.25 619.86 L204.31 623.20 L203.60 620.03 L203.12 616.79 L202.81 613.49 L203.70 609.76 L208.28 604.76 L203.27 603.22 L207.94 598.34 L202.37 596.91 L202.49 593.59 L202.27 590.40 L202.14 587.19 L200.85 584.33 L200.06 581.33 L198.74 578.46 L197.41 575.58 L196.86 572.51 L195.94 569.52 L195.93 566.33 L196.15 563.11 L196.81 559.81 L200.32 556.01 L197.25 553.46 L199.97 549.89 L195.89 547.45 L195.59 544.38 L195.67 541.27 L195.41 538.20 L195.36 535.12 L195.72 532.00 L196.16 528.88 L197.75 525.69 L198.42 522.59 L198.89 519.53 L201.10 516.39 L202.27 513.34 L203.23 510.33 L202.89 507.36 L191.52 504.56 L192.98 501.47 L181.68 498.34 L187.03 495.24 L187.12 492.11 L188.24 489.01 L189.91 485.97 L191.14 482.93 L194.67 480.06 L196.84 477.15 L201.55 474.50 L197.61 471.12 L191.62 467.43 L188.90 463.99 L180.05 459.72 L188.89 457.67 L187.84 454.35 L194.80 452.24 L194.28 449.02 L196.31 446.23 L198.69 443.54 L199.79 440.64 L201.94 437.96 L199.94 434.40 L190.82 429.16 L187.59 425.13 L175.78 418.86 L177.73 415.92 L179.01 412.81 L181.34 410.01 L183.55 407.21 L189.26 405.50 L186.89 401.35 L192.80 399.82 L189.28 395.23 L190.67 392.24 L192.10 389.27 L193.10 386.15 L193.58 382.83 L194.52 379.68 L194.70 376.21 L195.43 372.94 L196.43 369.78 L197.51 366.65 L199.06 363.72 L200.91 360.94 L203.29 358.41 L208.49 357.30 L207.79 353.32 L212.67 352.15 L211.21 347.73 L213.11 345.05 L214.17 341.91 L215.98 339.18 L217.35 336.20 L218.86 333.30 L221.10 330.83 L223.29 328.35 L225.95 326.18 L228.82 324.18 L232.01 322.41 L234.80 320.42 L238.13 318.83 L240.10 316.32 L233.00 307.28 L234.54 304.32 L226.91 294.45 L231.18 293.41 L235.32 292.36 L239.85 291.67 L242.73 289.72 L247.04 288.99 L250.10 287.27 L255.56 287.66 L260.81 287.99 L262.17 284.92 L258.44 277.11 L258.19 272.36 L254.06 263.79 L262.05 266.84 L266.26 266.34 L274.68 270.21 L277.06 268.04 L280.39 266.89 L283.38 265.40 L286.21 263.77 L288.73 261.81 L289.27 257.57 L284.97 247.58 L284.03 241.28 L278.00 228.58 L280.57 226.18 L283.25 223.91 L285.95 221.66 L288.64 219.40 L291.42 217.25 L294.13 215.01 L296.84 212.75 L299.68 210.67 L302.43 208.46 L305.35 206.48 L308.22 204.43 L311.16 202.50 L313.98 200.35 L316.98 198.50 L319.79 196.33 L322.88 194.62 L325.81 192.62 L328.94 190.99 L331.99 189.21 L335.10 187.52 L338.07 185.58 L341.20 183.91 L344.12 181.85 L347.35 180.39 L350.35 178.44 L353.68 177.20 L356.75 175.38 L360.13 174.26 L363.31 172.66 L366.72 171.64 L369.93 170.11 L373.31 169.03 L376.51 167.45 L379.92 166.47 L383.15 164.96 L386.54 163.92 L389.81 162.51 L393.32 161.83 L396.68 160.67 L400.24 160.21 L403.62 159.15 L407.08 158.40 L410.48 157.38 L413.99 156.82 L417.42 155.98 L421.05 155.96 L424.62 155.77 L428.23 155.83 L431.73 155.39 L435.33 155.53 L438.90 155.58 L442.67 156.91 L446.48 158.79 L450.30 161.02 L454.09 163.42 L457.68 164.74 L461.27 166.43 L464.37 163.73 L466.74 153.01 L469.82 148.15 L472.26 133.59 L475.80 131.45 L479.48 131.20 L483.17 131.00 L486.89 131.62 L490.64 133.94 L494.34 136.54 L497.99 139.02 L501.59 141.15 L505.17 141.95 L508.73 142.64 L512.29 143.13 L515.80 144.63 L519.29 145.85 L522.76 147.22 L526.17 149.03 L529.54 150.92 L532.77 153.95 L536.06 155.94 L540.47 147.85 L544.21 146.53 L549.52 133.85 L553.61 131.41 L557.44 131.03 L561.10 131.77 L564.30 135.08 L567.66 137.30 L570.75 140.71 L573.99 143.13 L577.35 144.83 L580.64 146.74 L583.89 148.71 L587.05 150.98 L590.07 153.65 L593.05 156.35 L595.92 159.30 L599.62 159.26 L604.33 155.96 L609.78 150.59 L615.51 144.81 L621.01 140.19 L624.62 141.37 L628.27 142.44 L631.87 143.66 L635.16 145.68 L638.21 148.28 L641.82 149.44 L644.44 152.99 L648.11 153.96 L651.23 156.22 L654.61 157.85 L658.05 159.36 L661.32 161.24 L664.41 163.46 L667.35 165.95 L670.46 168.08 L673.57 170.17 L676.55 172.50 L679.46 174.92 L682.21 177.60 L684.96 180.26 L687.69 182.89 L690.38 185.57 L692.56 189.03 L694.44 192.89 L696.02 197.14 L697.69 201.15 L700.53 203.36 L706.23 201.41 L713.43 197.49 L720.72 193.71 L727.90 190.32 L729.76 194.24 L731.78 197.90 L733.48 201.90 L735.88 204.96 L738.40 207.84 L740.65 211.04 L742.55 214.60 L744.20 218.42 L745.57 222.50 L746.74 226.73 L749.37 229.31 L754.43 229.30 L761.50 227.29 L768.17 225.88 L775.18 224.29 L776.29 228.65 L776.65 233.68 L778.02 237.67 L778.36 242.56 L780.28 245.94 L781.20 250.18 L781.98 254.49 L782.82 258.69 L783.71 262.79 L785.01 266.50 L789.41 267.70 L794.53 268.40 L803.34 266.33 L809.89 266.19 L817.34 265.51 L819.67 268.70 L821.86 271.98 L823.09 275.93 L823.41 280.46 L824.17 284.65 L824.39 289.15 L825.33 293.14 L826.30 297.07 L826.75 301.30 L827.15 305.51 L826.69 310.18 L826.82 314.45 L832.50 315.60 L834.28 318.95 L832.66 324.11 L836.83 326.19 L837.55 330.07 L838.32 333.91 L848.50 333.21 L844.51 339.34 L844.86 343.35 L844.39 347.70 L841.35 353.11 L842.77 356.54 L840.71 361.39 L839.87 365.68 L846.39 367.09 L847.92 370.48 L856.57 371.31 L859.35 374.35 L862.24 377.39 L870.57 378.69 L873.05 381.99 L883.77 382.81 L883.44 387.09 L883.84 391.13 L883.35 395.40 L884.49 399.21 L885.23 403.12 L886.16 406.98 L887.27 410.81 L888.29 414.65 L889.24 418.51 L890.29 422.36 L891.06 426.26 L891.61 430.21 L892.20 434.14 L892.55 438.11 L893.01 442.06 L893.11 446.06 L893.51 450.01 L893.56 453.99 L893.81 457.95 L893.72 461.94 L893.67 465.91 L893.75 469.87 L893.13 473.87 L892.53 477.85 L890.75 481.87 L888.89 485.85 L886.69 489.80 L887.48 493.66 L890.97 497.51 L932.34 500.00 L938.44 495.62 L940.71 491.18 L939.63 486.81 L935.64 482.57 L932.70 478.35 L930.41 474.14 L928.40 469.96 L926.87 465.78 L925.08 461.64 L923.70 457.49 L922.41 453.35 L921.53 449.17 L920.32 445.05 L919.48 440.89 L918.03 436.82 L916.72 432.75 L915.17 428.73 L913.59 424.74 L912.19 420.73 L910.61 416.76 L909.24 412.77 L907.96 408.77 L906.54 404.81 L905.24 400.83 L903.59 396.95 L901.61 393.16 L899.97 389.30 L896.27 386.05 L893.86 382.47 L896.21 377.44 L901.78 371.30 L900.50 367.28 L908.34 360.13 L903.32 357.33 L908.20 351.00 L910.01 345.67 L909.18 341.29 L913.31 334.92 L905.65 333.26 L904.58 328.95 L899.02 326.57 L890.23 325.73 L887.49 322.29 L881.01 320.63 L877.65 317.57 L880.01 311.73 L874.37 309.83 L871.76 306.46 L870.52 302.37 L866.61 299.72 L866.44 295.03 L865.68 290.63 L859.68 289.26 L855.28 287.04 L850.85 284.89 L847.20 282.32 L843.53 279.81 L840.27 277.06 L836.22 274.88 L832.65 272.42 L828.47 270.43 L824.99 267.99 L822.06 265.18 L820.09 261.68 L823.71 253.92 L825.32 247.52 L828.02 240.12 L827.44 235.21 L824.37 232.29 L819.36 231.01 L814.84 229.38 L809.94 228.16 L805.69 226.43 L801.14 225.04 L797.66 222.71 L791.82 222.64 L787.83 220.90 L782.02 221.01 L779.45 217.97 L781.46 210.20 L782.57 203.17 L784.96 194.60 L783.17 190.38 L779.90 187.73 L774.40 187.64 L768.94 187.61 L763.88 187.21 L759.20 186.45 L755.03 185.15 L750.94 183.78 L746.51 182.90 L741.18 183.26 L736.33 183.11 L733.31 180.55 L735.59 170.55 L736.87 161.67 L737.55 153.37 L735.46 148.94 L729.98 149.58 L723.98 151.17 L718.39 152.27 L713.14 152.99 L708.36 153.02 L704.08 152.33 L699.82 151.65 L695.50 151.15 L691.25 150.58 L687.23 149.66 L683.28 148.63 L679.35 147.62 L675.31 146.86 L671.16 146.38 L667.15 145.67 L663.30 144.67 L659.59 143.40 L655.77 142.38 L652.04 141.20 L648.10 140.53 L643.82 140.76 L639.87 140.22 L635.49 140.91 L631.63 140.28 L627.90 139.35 L624.19 138.37 L620.84 136.33 L619.57 127.75 L617.77 120.34 L615.57 113.83 L612.58 109.68 L608.12 110.54 L603.47 112.29 L598.88 114.02 L594.56 114.94 L590.31 115.66 L586.10 116.41 L581.97 116.92 L577.83 117.63 L573.47 119.62 L569.21 121.36 L564.95 123.44 L560.77 125.35 L557.03 124.67 L553.28 124.11 L550.88 113.19 L547.73 106.80 L544.60 99.09 L540.92 95.41 L536.71 96.85 L532.47 99.04 L528.36 100.04 L524.23 101.89 L520.15 103.69 L516.12 105.00 L512.12 106.53 L508.17 107.23 L504.23 108.62 L500.31 110.71 L496.45 114.79 L492.68 118.82 L489.00 123.47 L485.35 126.51 L481.66 127.62 L477.97 128.29 L474.28 128.91 L470.14 123.78 L465.27 111.69 L461.00 108.17 L456.17 100.28 L452.40 102.56 L448.75 105.56 L445.32 109.74 L441.74 112.44 L438.33 115.94 L434.83 118.50 L431.29 120.70 L427.61 121.99 L424.07 123.90 L420.38 124.96 L416.89 126.97 L413.26 128.22 L409.85 130.36 L406.22 131.52 L402.80 133.43 L399.21 134.69 L395.86 136.76 L392.36 138.23 L389.02 140.22 L385.60 141.89 L382.28 143.82 L378.84 145.36 L375.58 147.36 L372.08 148.70 L368.89 150.83 L365.47 152.34 L362.29 154.42 L358.92 156.00 L355.74 158.04 L352.42 159.71 L349.27 161.75 L346.08 163.68 L343.05 165.92 L339.86 167.82 L336.75 169.84 L333.49 171.56 L330.39 173.58 L327.28 175.56 L324.36 177.88 L321.40 180.10 L318.50 182.41 L315.52 184.58 L312.58 186.76 L309.64 188.95 L306.76 191.23 L303.94 193.59 L301.08 195.86 L298.31 198.25 L295.48 200.54 L292.70 202.89 L289.85 205.14 L287.16 207.59 L284.35 209.87 L281.73 212.40 L279.02 214.80 L276.49 217.42 L273.86 219.90 L269.56 220.34 L259.72 214.27 L253.80 213.10 L246.16 210.11 L243.25 212.64 L241.89 216.87 L241.04 221.58 L239.13 225.09 L234.99 226.26 L235.58 232.28 L234.61 236.63 L236.63 243.81 L235.83 248.12 L224.80 242.80 L219.21 242.79 L210.79 240.35 L209.86 244.71 L211.75 251.44 L213.35 257.78 L213.77 263.00 L214.57 268.43 L214.72 273.24 L215.25 278.27 L215.70 283.16 L208.25 282.06 L204.26 283.65 L195.94 282.19 L192.13 284.09 L192.05 288.60 L191.12 292.48 L190.92 296.80 L189.94 300.56 L188.63 304.10 L187.92 307.98 L186.46 311.38 L185.10 314.82 L184.14 318.48 L182.23 321.59 L181.22 325.19 L180.13 328.73 L173.75 329.49 L175.72 334.63 L172.59 337.13 L174.70 342.22 L177.06 347.34 L176.56 351.04 L175.82 354.61 L175.10 358.17 L173.78 361.46 L172.39 364.72 L171.16 368.05 L169.36 371.15 L168.09 374.47 L167.29 377.95 L166.04 381.27 L165.79 384.93 L158.85 386.34 L161.40 390.94 L158.51 393.77 L161.69 398.46 L164.40 402.92 L165.08 406.73 L165.44 410.43 L165.96 414.14 L163.77 417.15 L152.81 418.12 L148.86 420.89 L139.82 422.63 L140.15 426.46 L141.60 430.48 L141.92 434.25 L144.63 438.41 L140.21 441.35 L144.54 445.70 L143.52 449.18 L148.14 453.43 L153.62 457.67 L140.26 459.69 L137.19 463.01 L127.60 465.80 L125.59 469.38 L130.84 473.53 L135.46 477.52 L140.47 481.43 L143.70 485.17 L146.31 488.82 L146.90 492.37 L149.23 495.93 L146.81 499.44 L142.91 503.00 L139.24 506.64 L134.78 510.38 L136.68 513.96 L137.56 517.56 L139.58 521.07 L140.84 524.61 L142.17 528.11 L144.12 531.54 L146.40 534.91 L148.35 538.27 L150.54 541.57 L151.62 544.98 L153.08 548.32 L155.03 551.58 L150.17 555.88 L154.77 558.70 L153.40 562.50 L157.62 565.28 L162.79 567.80 L164.25 571.00 L166.31 574.06 L168.07 577.16 L169.57 580.30 L170.28 583.63 L171.53 586.82 L172.36 590.12 L173.87 593.22 L175.50 596.27 L177.57 599.18 L179.64 602.06 L175.45 606.98 L180.46 608.88 L179.47 612.81 L184.77 614.50 L190.76 615.84 L193.92 618.16 L196.38 620.71 L199.16 623.10 L194.39 628.64 L186.66 635.60 L183.31 640.82 L177.29 647.38 L179.29 650.36 L181.37 653.29 L183.67 656.10 L186.84 658.45 L186.24 662.71 L193.12 663.06 L196.48 665.18 L205.51 664.11 L208.83 666.10 L207.57 670.71 L205.07 676.15 L202.28 681.88 L204.80 684.42 L207.67 686.72 L211.19 688.56 L214.56 690.46 L217.30 692.74 L220.90 694.41 L226.82 694.37 L232.52 694.37 L232.06 698.83 L231.51 703.44 L227.59 710.72 L225.99 716.37 L230.31 717.38 L232.93 719.71 L237.83 720.11 L239.72 723.00 L242.75 724.91 L246.63 726.02 L249.49 728.01 L253.37 729.02 L256.95 730.27 L259.96 732.02 L263.77 732.95 L267.19 734.22 L266.38 739.78 L271.61 739.15 L272.57 742.97 L277.63 742.37 L282.56 741.81 L285.36 743.55 L288.25 745.17 L291.00 746.94 L293.91 748.49 L296.70 750.18 L299.45 751.89 L302.40 753.36 L305.19 754.99 L308.19 756.34 L311.09 757.80 L314.02 759.20 L312.83 766.44 L318.16 764.43 L319.82 767.72 L325.50 764.96 L331.64 761.28 L334.66 762.33 L337.75 763.22 L340.70 764.31 L340.30 771.08 L337.55 782.16 L338.25 787.56 L337.15 796.41 L341.11 796.19 L344.89 796.21 L348.56 796.38 L352.95 795.03 L354.23 799.94 L360.53 794.42 L363.39 796.00 L369.73 789.85 L371.40 793.97 L370.45 804.39 L370.62 812.63 L370.79 821.26 L374.76 820.62 L379.87 816.85 L385.28 811.96 L390.22 808.00 L395.31 803.28 L400.26 798.60 L404.66 795.19 L408.87 792.11 L409.57 800.40 L410.36 808.95 L410.97 818.72 L412.61 825.39 L415.81 826.47 L419.71 824.73 L423.84 821.82 L428.13 817.83 L431.97 815.49 L435.65 813.58 L439.18 812.23 L442.41 812.23 L445.71 811.79 L448.97 811.46 L452.17 811.46 L455.37 811.34 L457.98 815.55 L461.52 812.82 L464.58 813.81 L468.00 811.44 L471.68 805.66 L474.92 803.74 L478.19 800.72 L481.41 797.56 L484.39 797.60 L486.69 813.72 L489.67 818.94 L492.64 828.81 L495.93 828.86 L499.23 822.81 L502.41 816.36 L505.44 809.07 L508.60 811.38 L511.85 814.94 L515.19 818.78 L518.63 822.96 L521.59 818.85 L524.50 815.06 L526.95 806.87 L529.58 802.05 L532.45 800.41 L537.19 814.73 L540.95 819.13 L545.26 826.81 L548.27 824.60 L550.64 818.65 L554.35 821.23 L558.91 828.20 L562.22 827.73 L564.88 824.05 L566.96 817.86 L570.24 817.65 L572.66 813.72 L579.17 826.90 L581.27 821.48 L584.29 819.91 L586.13 814.15 L587.69 807.73 L590.22 804.99 L591.29 797.64 L593.98 795.81 L594.73 788.16 L598.49 789.79 L605.44 800.35 L609.18 801.33 L615.13 808.10 L617.37 804.78 L617.77 796.91 L619.94 793.79 L620.97 788.04 L622.96 784.78 L624.39 780.34 L627.12 778.94 L628.53 774.71 L630.67 772.17 L633.01 770.09 L636.36 770.04 L643.02 776.33 L650.02 782.88 L657.95 790.77 L660.77 789.04 L659.75 780.56 L660.50 775.43 L663.24 773.80 L663.56 768.21 L667.06 767.88 L663.51 756.44 L660.28 745.92 L662.50 743.96 L671.34 751.73 L677.50 755.26 L682.62 757.10 L683.53 752.98 L680.13 743.14 L682.96 741.87 L690.31 746.43 L694.07 746.16 L696.55 744.25 L692.28 734.11 L686.15 722.08 L685.05 716.34 L685.65 712.69 L687.04 710.01 L688.06 706.95 L693.41 708.61 L701.59 713.12 L707.76 715.29 L717.72 721.13 L721.65 720.67 L722.92 717.54 L727.57 717.68 L732.12 717.63 L732.01 713.20 L732.49 709.40 L731.20 704.09 L734.03 702.45 L734.68 698.95 L749.83 707.53 L748.75 702.47 L753.39 702.07 L754.99 699.21 L756.82 696.53 L755.50 691.50 L751.50 684.60 L745.96 676.78 L737.84 667.36 L742.46 667.01 L751.82 669.77 L754.92 668.18 L760.98 668.45 L758.72 663.36 L758.59 659.68 L760.68 657.39 L762.02 654.64 L763.51 651.99 L761.15 647.17 L760.29 643.28 L758.34 638.86 L757.40 635.05 L757.36 631.76 L758.62 629.16 L761.65 627.42 L765.37 625.96 L777.60 628.38 L779.35 625.82 L782.12 623.69 L783.42 620.89 L783.32 617.51 L778.98 612.46 L779.06 609.26 L769.95 602.59 L761.17 596.28 L766.54 595.24 L781.26 597.34 L783.69 595.01 L799.96 597.14 L794.60 592.16 L800.77 590.80 L793.34 585.36 L787.10 580.44 L781.55 575.86 L767.06 569.10 L766.43 566.10 L762.67 562.38 L759.10 558.81 L758.03 555.86 L757.49 553.05 L757.52 550.38 L765.18 549.13 L784.48 549.77 L792.03 548.08 L800.75 546.43 L797.55 542.90 L790.22 538.88 L790.26 535.94 L798.55 533.94 L798.22 530.88 L796.62 527.72 L792.51 524.39 L792.81 521.47 L790.42 518.37 L804.09 516.19 L803.46 513.11 L799.51 509.94 L797.75 506.90 L787.92 503.80 L785.16 500.91 L779.92 498.09 L780.53 495.28 L776.92 492.57 L778.52 489.74 L788.20 486.50 L788.60 483.59 L799.83 479.94 L799.89 476.92 L797.49 474.11 L793.79 471.47 L786.33 469.30 L776.38 467.57 L774.77 464.97 L771.64 462.60 L770.88 459.94 L770.31 457.26 L768.53 454.78 L766.96 452.30 L771.77 448.63 L778.22 444.52 L788.34 439.50 L790.97 435.91 L783.41 434.59 L779.55 432.53 L776.98 430.21 L770.35 429.00 L771.58 425.77 L761.28 425.77 L750.18 426.21 L747.45 424.32 L753.76 419.60 L759.37 414.96 L764.98 410.18 L767.12 406.47 L758.30 406.64 L758.45 403.66 L761.23 399.63 L759.77 397.20 L759.09 394.46 L748.69 395.79 L734.19 399.10 L726.36 399.78 L724.26 398.01 L722.32 396.20 L720.45 394.37 L725.45 389.19 L733.78 382.18 L736.78 377.69 L744.93 370.36 L744.66 367.35 L743.67 364.72 L746.74 359.77 L748.91 355.22 L744.91 354.25 L740.08 353.86 L734.13 354.25 L733.29 351.52 L730.68 349.92 L742.93 338.46 L738.09 338.23 L737.42 335.19 L735.62 332.92 L734.82 329.93 L730.00 329.89 L723.63 331.12 L713.46 335.42 L699.66 342.85 L699.39 339.81 L706.35 330.80 L708.03 325.91 L713.71 317.49 L708.18 318.58 L704.26 318.38 L704.34 314.61 L699.49 315.34 L700.60 310.55 L692.21 314.81 L687.82 315.37 L681.02 318.47 L677.24 318.67 L675.00 317.34 L674.58 314.09 L675.09 309.77 L676.32 304.55 L682.70 293.36 L680.47 291.72 L679.88 288.16 L677.52 286.65 L674.07 286.49 L668.09 289.56 L662.99 291.71 L653.48 299.77 L643.88 308.35 L645.65 301.90 L654.54 285.34 L656.70 277.69 L663.00 263.76 L658.08 265.93 L656.66 262.95 L650.62 267.06 L643.59 272.98 L638.57 276.00 L632.29 281.29 L630.28 279.66 L631.82 271.88 L629.94 269.86 L627.86 268.15 L623.17 271.27 L616.70 278.01 L612.64 280.43 L613.90 272.39 L613.10 268.22 L613.72 260.91 L610.58 261.40 L605.72 265.78 L604.63 261.87 L605.12 254.11 L602.77 252.80 L598.82 255.41 L594.57 259.02 L592.18 258.03 L588.91 259.42 L591.04 245.86 L587.13 248.90 L584.22 249.20 L580.15 253.16 L576.03 257.64 L573.17 258.31 L568.96 263.73 L566.45 263.57 L562.30 269.50 L560.67 266.29 L561.38 253.43 L559.31 251.18 L558.87 241.59 L555.70 243.69 L551.72 249.97 L548.69 252.13 L545.21 257.03 L542.30 259.33 L539.28 262.63 L536.82 262.80 L533.91 266.08 L531.32 267.62 L528.86 268.40 L526.68 266.98 L525.30 257.55 L523.75 248.00 L522.18 236.46 L519.55 236.19 L516.46 243.15 L513.65 247.30 L511.13 247.15 L508.44 251.69 L505.97 251.11 L503.32 262.36 L500.90 273.80 L498.62 270.95 L496.17 260.95 L493.59 253.51 L491.00 250.34 L488.67 253.97 L486.72 263.18 L484.29 262.33 L481.33 254.87 L478.68 252.79 L476.28 253.74 L474.84 263.55 L473.99 276.85 L472.39 282.04 L470.47 284.23 L468.44 285.42 L466.45 286.72 L463.95 284.86 L459.70 273.44 L456.68 269.84 L451.83 257.41 L448.80 255.01 L446.74 257.31 L443.62 254.82 L440.60 253.02 L438.99 257.03 L437.27 260.34 L435.93 264.86 L433.40 264.88 L431.49 267.05 L424.00 250.80 L423.31 257.27 L419.43 253.60 L417.46 255.85 L415.26 257.38 L413.82 260.95 L414.14 269.11 L414.65 277.33 L416.61 288.78 L413.23 286.49 L407.50 278.76 L404.99 278.99 L400.39 274.54 L400.15 279.98 L398.79 282.78 L396.39 283.30 L394.67 285.26 L392.37 286.01 L392.56 291.61 L391.84 295.26 L391.69 299.86 L390.91 303.13 L389.60 305.38 L387.55 306.31 L384.22 305.09 L380.92 304.02 L372.53 294.86 L370.46 296.11 L367.76 296.40 L365.60 297.54 L364.57 300.34 L365.87 306.45 L364.52 308.62 L369.20 319.10 L373.52 328.70 L368.83 326.02 L359.51 317.49 L355.35 315.92 L344.84 306.56 L346.23 312.17 L341.02 309.72 L344.64 317.79 L347.10 324.26 L349.53 330.51 L358.01 343.25 L357.30 345.59 L358.99 350.45 L360.28 354.76 L359.80 357.15 L358.83 359.01 L357.82 360.81 L350.92 356.95 L340.89 350.34 L335.17 348.04 L327.73 344.35 L329.39 348.92 L330.21 352.64 L327.39 353.20 L319.32 349.42 L317.70 351.13 L317.90 354.31 L319.65 358.64 L318.73 360.83 L320.14 364.75 L308.49 358.96 L308.28 361.74 L310.34 366.09 L309.53 368.35 L315.59 375.25 L315.95 378.16 L319.27 382.94 L317.68 384.48 L319.65 388.24 L317.39 389.35 L307.86 386.19 L306.40 387.92 L297.06 385.21 L297.17 387.93 L298.24 391.14 L299.93 394.62 L303.43 398.96 L309.65 404.55 L310.64 407.41 L312.24 410.51 L312.02 412.70 L310.65 414.35 L310.66 416.63 L310.07 418.63 L302.06 417.53 L294.93 416.95 L284.01 415.04 L281.18 416.44 L288.35 421.60 L290.56 424.79 L291.31 427.40 L297.02 431.66 L293.66 432.81 L303.65 438.23 L313.55 443.39 L311.98 444.96 L306.75 445.52 L297.52 445.10 L291.76 445.77 L288.65 447.21 L295.83 451.16 L294.25 452.96 L290.07 454.20 L290.37 456.46 L289.59 458.49 L299.12 462.45 L312.28 466.85 L319.10 469.92 L319.82 471.89 L320.11 473.77 L320.97 475.72 L313.14 476.56 L302.68 477.25 L298.61 478.82 L288.52 479.90 L288.35 482.01 L288.23 484.13 L282.15 485.87 L278.47 487.85 L281.33 490.20 L286.39 492.57 L290.77 494.81 L289.77 496.89 L291.07 499.00 L273.54 501.18 L277.98 503.38 L276.64 505.63 L276.19 507.89 L275.59 510.16 L279.24 512.20 L285.12 514.04 L296.32 515.35 L311.54 516.10 L310.16 518.13 L299.71 521.15 L294.99 523.73 L287.22 526.79 L291.56 528.36 L295.13 529.96 L293.14 532.37 L295.84 534.04 L292.86 536.67 L301.70 537.16 L306.09 538.34 L312.98 538.93 L316.09 540.20 L316.93 541.94 L314.98 544.34 L314.45 546.44 L310.13 549.54 L297.63 554.97 L299.40 556.65 L295.27 560.03 L297.01 561.73 L298.78 563.40 L305.73 563.35 L310.28 563.97 L322.69 561.77 L333.98 559.70 L329.12 563.39 L314.58 570.90 L306.90 576.06 L295.64 582.87 L299.61 583.60 L298.95 586.24 L306.12 585.47 L314.95 583.80 L318.89 584.21 L327.21 582.45 L326.40 584.98 L322.85 588.93 L323.09 591.03 L323.15 593.24 L329.08 592.31 L336.04 590.68 L342.48 589.19 L342.53 591.26 L342.11 593.62 L338.74 597.82 L339.47 599.58 L342.36 599.98 L340.04 603.71 L333.47 610.36 L334.31 612.20 L337.03 612.75 L341.74 611.85 L342.97 613.35 L347.00 612.78 L339.13 621.09 L344.74 619.31 L348.18 619.10 L352.06 618.47 L357.51 616.46 L362.27 614.89 L365.80 614.24 L369.46 613.39 L372.32 613.17 L369.78 617.77 L361.33 627.95 L361.63 630.26 L358.49 635.92 L364.29 632.97 L371.22 628.73 L375.21 627.27 L377.84 627.10 L380.17 627.20 L382.39 627.37 L384.62 627.49 L386.65 627.80 L388.72 628.02 L390.71 628.30 L392.69 628.55 L394.16 629.40 L391.18 635.80 L385.23 646.19 L385.74 648.58 L386.81 650.27 L390.13 648.93 L390.71 651.29 L395.29 648.06 L395.50 650.94 L403.13 642.96 L410.94 634.30 L411.13 636.96 L413.53 636.22 L412.87 640.36 L415.22 639.67 L417.44 639.13 L419.30 639.14 L417.35 645.84 L413.08 657.02 L413.56 659.90 L414.96 661.15 L420.87 653.65 L428.41 642.49 L432.04 638.72 L434.31 637.54 L436.08 637.36 L437.84 637.13 L438.84 638.61 L435.32 650.65 L436.11 653.00 L433.88 662.89 L436.10 662.06 L438.34 661.08 L438.27 666.23 L437.47 673.68 L439.18 674.40 L441.51 673.26 L444.58 669.75 L446.10 670.87 L448.43 669.35 L445.18 686.71 L448.86 680.87 L450.53 681.88 L453.03 679.78 L455.00 679.54 L458.06 674.74 L460.22 673.34 L463.75 665.56 L467.24 657.09 L467.93 661.88 L467.83 671.33 L469.43 672.34 L470.31 677.69 L472.87 672.95 L475.22 669.02 L477.24 666.81 L478.99 666.44 L480.86 664.88 L482.63 663.89 L484.35 663.24 L486.16 661.35 L487.91 659.69 L489.59 658.45 L491.27 656.85 L492.85 656.68 L494.24 661.75 L495.59 672.39 L497.30 673.39 L499.03 673.62 L500.76 670.70 L502.47 671.22 L504.05 665.97 L505.80 668.54 L507.02 657.94 L508.03 647.38 L509.80 651.88 L512.20 663.58 L514.22 668.04 L517.11 680.65 L518.18 673.42 L520.57 678.98 L520.90 667.11 L521.99 662.60 L522.80 656.80 L522.36 643.66 L523.66 642.58 L524.32 638.03 L524.88 633.36 L526.01 632.08 L527.20 631.18 L528.39 630.36 L531.31 637.16 L534.75 645.49 L536.97 648.24 L540.09 654.17 L540.91 651.08 L542.00 649.18 L543.69 649.44 L545.05 648.55 L546.36 647.54 L546.70 643.61 L546.90 639.46 L546.33 633.33 L547.47 632.32 L550.36 636.09 L553.04 639.05 L556.46 643.69 L557.74 642.72 L558.59 640.75 L559.30 638.56 L559.98 636.35 L560.84 634.63 L561.47 632.47 L560.83 627.75 L560.63 624.11 L560.59 620.94 L564.88 626.34 L567.81 628.85 L572.31 634.13 L572.98 632.20 L573.77 630.52 L573.34 626.78 L574.53 625.92 L575.57 624.81 L575.73 622.30 L576.75 621.22 L577.20 619.28 L577.56 617.24 L578.63 616.32 L578.78 614.07 L579.34 612.45 L579.87 610.84 L580.21 609.00 L580.58 607.23 L580.81 605.33 L580.84 603.22 L581.08 601.42 L581.02 599.29 L581.18 597.48 L584.36 599.26 L583.56 596.35 L587.07 598.40 L586.47 595.77 L586.37 593.76 L586.94 592.49 L586.93 590.65 L587.76 589.70 L588.11 588.28 L587.61 586.05 L587.22 583.96 L586.43 581.55 L586.01 579.55 L586.37 578.29 L586.76 577.08 L586.84 575.61 L592.29 578.75 L600.34 583.89 L604.50 585.61 L610.99 589.09 L610.02 586.51 L609.82 584.60 L609.96 582.96 L608.20 579.95 L608.15 578.25 L604.49 574.03 L603.06 571.47 L599.67 567.66 L605.21 569.89 L613.90 574.03 L620.57 576.67 L627.67 579.40 L626.73 577.07 L622.97 573.10 L618.45 568.83 L614.70 565.12 L610.17 561.10 L606.37 557.61 L603.40 554.67 L600.97 552.10 L602.05 551.37 L612.61 555.28 L617.13 556.05 L625.88 558.70 L627.44 557.89 L625.77 555.62 L623.27 553.04 L619.66 550.08 L617.53 547.81 L616.16 545.91 L615.19 544.20 L615.19 542.88 L614.74 541.41 L614.37 539.99 L614.25 538.67 L613.75 537.24 L612.73 535.66 L612.59 534.38 L610.73 532.61 L611.39 531.59 L608.58 529.63 L607.66 528.22 L609.33 527.50 L606.05 525.54 L610.95 525.55 L604.44 522.96 L605.15 522.01 L599.88 519.87 L598.64 518.60 L598.14 517.49 L597.60 516.39 L597.15 515.32 L596.61 514.24 L596.28 513.21 L595.89 512.18 L595.58 511.17 L595.15 510.16 L594.90 509.17 L594.58 508.19 L594.34 507.22 L594.02 506.25 L593.75 505.29 L593.41 504.33 L593.12 503.39 L592.84 502.45 L592.54 501.52 L592.24 500.59 Z"/>
  <svg class="pausebutton" id="pausebutton">
    <circle cx="500" cy="500" id="pausestart" class="pausestart" r="52.65"/>
    <rect height="50.02" width="10.00" y="473.68" rx="2.00" ry="2.00" x="479.99" class="pausesymbol"/>
    <rect height="50.02" width="10.00" y="473.68" rx="2.00" ry="2.00" x="510.00" class="pausesymbol"/>
    <polygon points="530.01,500 479.99,530.01 479.99,469.99" class="playsymbol"/>
  </svg>
  <polygon id="playback-head" class="playback-head" points="912.475,500 892.475,540 932.475,540"/>
</svg>