<?xml-stylesheet href="../../style/waveformjs.css" type="text/css"?>
<svg xmlns="http://www.w3.org/2000/svg" xmlns:xlink="http://www.w3.org/1999/xlink" width="100%" height="100%" viewBox="0 0 1000 1000">
  <path class="svg-wave" id="sp" d="M591.51 500.00 L591.74 500.92 L591.97 501.84 L592.19 502.77 L592.39 503.70 L592.59 504.63 L592.77 505.57 L592.94 506.52 L593.10 507.46 L593.25 508.42 L593.41 509.37 L593.51 510.33 L592.78 511.19 L590.95 511.89 L591.34 512.87 L589.62 513.55 L590.68 514.63 L590.58 515.55 L590.67 516.50 L590.68 517.44 L590.76 518.40 L590.83 519.36 L590.88 520.32 L590.99 521.31 L590.87 522.24 L590.86 523.20 L590.62 524.11 L590.70 525.10 L590.56 526.04 L590.64 527.05 L590.66 528.05 L590.44 528.97 L588.99 529.49 L587.58 530.00 L586.16 530.48 L585.10 531.07 L584.67 531.87 L583.89 532.54 L582.52 532.96 L580.48 533.08 L579.64 533.67 L579.77 534.67 L579.97 535.71 L580.92 537.11 L580.23 537.77 L578.89 538.11 L577.38 538.34 L575.24 538.22 L573.02 538.02 L568.36 536.46 L559.66 532.59 L554.74 530.62 L548.06 527.52 L545.92 526.90 L544.93 526.93 L544.31 527.16 L542.03 526.35 L543.89 528.13 L553.53 535.07 L559.58 539.89 L565.58 544.87 L559.61 541.66 L553.92 538.50 L546.72 534.06 L546.63 534.72 L543.23 532.86 L546.00 535.70 L555.86 544.25 L560.00 548.52 L574.32 561.33 L573.85 562.20 L572.69 562.48 L572.23 563.35 L571.77 564.23 L570.58 564.45 L569.46 564.70 L568.42 565.03 L566.68 564.66 L566.64 565.92 L566.39 567.00 L565.83 567.78 L565.68 568.99 L563.68 568.25 L561.70 567.46 L558.67 565.45 L553.09 560.43 L547.42 555.08 L543.52 551.58 L539.95 548.32 L539.16 548.35 L538.65 548.71 L536.74 547.27 L537.71 549.52 L536.53 548.98 L543.61 559.71 L547.42 566.32 L552.76 575.37 L554.99 580.24 L551.03 576.08 L548.40 573.75 L545.99 571.63 L542.23 567.24 L539.00 563.50 L536.32 560.49 L533.23 556.62 L532.46 556.58 L532.37 557.77 L531.89 558.27 L530.68 557.41 L530.37 558.23 L532.99 564.83 L536.60 573.72 L540.19 583.03 L540.08 584.95 L535.18 576.54 L530.91 569.06 L527.60 563.36 L526.93 563.56 L526.12 563.40 L527.53 568.77 L531.04 579.85 L533.26 588.16 L537.78 603.24 L536.97 604.24 L535.85 604.39 L534.66 604.31 L533.38 603.91 L532.24 603.94 L529.89 599.86 L525.07 586.93 L523.48 584.58 L518.95 571.01 L518.94 573.93 L516.74 568.16 L517.56 574.73 L515.00 566.83 L515.59 572.87 L514.67 572.08 L516.55 585.69 L516.67 591.20 L518.16 605.28 L516.52 601.82 L514.29 594.06 L512.38 587.32 L510.79 582.01 L509.44 577.79 L509.16 582.33 L509.44 593.38 L508.93 598.10 L508.43 604.05 L506.80 595.83 L505.34 587.70 L504.12 581.11 L503.27 580.17 L502.52 581.65 L501.91 591.86 L501.08 599.66 L500.09 610.77 L498.94 615.57 L497.84 612.35 L496.84 608.24 L496.14 598.34 L495.66 588.13 L494.89 586.28 L494.46 579.96 L493.20 585.68 L492.14 587.90 L491.19 588.52 L490.12 590.08 L489.65 586.39 L489.18 583.26 L487.59 588.61 L485.63 595.61 L483.00 605.87 L481.71 607.06 L481.47 602.30 L482.30 592.41 L482.20 588.17 L481.31 588.01 L480.55 587.31 L479.21 589.12 L477.97 590.34 L477.27 589.31 L475.67 591.74 L475.37 589.26 L474.22 589.93 L473.54 588.92 L472.62 588.75 L471.41 589.49 L468.84 594.28 L469.13 590.37 L467.45 592.24 L467.97 587.95 L466.96 587.99 L467.73 583.40 L465.61 586.29 L465.39 584.38 L465.98 580.64 L462.39 586.73 L458.57 592.97 L454.89 598.57 L448.15 610.36 L446.28 611.43 L447.16 606.86 L448.11 602.35 L448.36 599.39 L447.25 599.08 L444.39 601.98 L439.96 607.54 L437.22 609.84 L435.34 610.55 L435.92 607.09 L437.38 602.33 L438.68 597.99 L438.44 596.21 L436.86 596.55 L432.27 601.34 L429.65 603.00 L425.63 606.59 L424.32 606.18 L423.41 605.22 L422.01 604.92 L421.96 602.82 L422.85 599.56 L427.20 592.04 L431.47 584.88 L433.70 580.47 L434.76 577.58 L433.33 577.69 L434.03 575.34 L436.02 571.61 L439.36 566.51 L438.87 565.72 L435.38 568.10 L426.35 576.08 L417.31 583.72 L409.76 589.56 L404.33 593.06 L407.02 588.65 L408.68 585.35 L409.77 582.65 L415.02 576.30 L416.99 573.04 L419.95 569.02 L421.66 566.20 L420.80 565.58 L419.82 565.05 L419.34 564.11 L418.90 563.15 L416.51 563.68 L406.51 569.84 L400.61 572.71 L386.65 581.20 L382.23 582.59 L379.82 582.50 L380.03 580.60 L380.51 578.56 L382.01 575.89 L383.87 573.07 L385.29 570.58 L382.34 570.78 L380.14 570.48 L375.11 571.77 L372.15 571.78 L371.94 570.22 L371.94 568.57 L375.61 565.01 L385.94 558.17 L391.00 554.22 L399.89 548.56 L400.32 547.12 L401.03 545.58 L397.67 545.89 L402.81 542.43 L395.36 544.44 L403.89 539.69 L398.70 540.65 L394.33 541.18 L394.01 540.09 L387.50 541.27 L386.59 540.32 L391.19 537.46 L386.36 537.86 L394.97 533.83 L394.20 532.91 L390.28 532.93 L381.88 534.17 L366.33 537.22 L354.20 539.04 L351.86 538.08 L352.82 536.27 L354.17 534.39 L355.67 532.52 L357.63 530.58 L359.11 528.79 L358.30 527.49 L354.72 526.68 L353.53 525.38 L349.88 524.47 L354.92 522.16 L363.92 519.40 L366.49 517.67 L373.89 515.41 L374.77 514.03 L374.73 512.77 L377.28 511.27 L376.45 510.10 L378.74 508.70 L373.73 507.79 L384.85 505.95 L380.99 504.95 L381.55 503.74 L368.46 502.84 L354.30 501.69 L337.34 500.26 L329.52 498.57 L329.38 496.86 L329.15 495.15 L329.17 493.44 L329.00 491.72 L329.06 490.00 L329.15 488.29 L329.67 486.62 L330.55 484.98 L332.25 483.44 L334.88 482.03 L337.88 480.71 L341.81 479.58 L345.51 478.48 L351.34 477.77 L361.17 477.82 L367.11 477.41 L375.56 477.56 L377.12 476.57 L378.53 475.58 L378.30 474.26 L380.44 473.46 L379.22 471.92 L369.37 468.25 L361.73 464.93 L355.08 461.70 L360.15 461.53 L367.51 462.13 L375.97 463.20 L375.98 461.85 L379.28 461.54 L376.18 459.19 L364.97 453.99 L360.31 450.84 L342.86 442.92 L342.54 441.02 L343.84 439.72 L344.34 438.11 L344.72 436.46 L345.84 435.11 L347.28 433.91 L348.11 432.46 L350.47 431.71 L350.30 429.82 L350.62 428.13 L351.24 426.59 L351.14 424.68 L353.48 424.01 L355.81 423.39 L359.65 423.62 L366.59 425.65 L374.38 428.34 L379.08 429.41 L385.55 431.64 L385.32 429.94 L386.31 428.98 L388.66 428.88 L387.93 426.83 L389.50 426.27 L379.86 418.09 L374.54 412.61 L368.03 406.10 L363.25 400.63 L368.81 402.64 L372.82 403.64 L375.98 404.06 L381.53 406.45 L386.21 408.28 L390.73 410.11 L394.27 411.23 L395.82 410.74 L397.44 410.34 L396.60 407.76 L398.61 407.72 L399.68 406.84 L395.29 400.80 L388.98 392.69 L383.83 385.45 L382.80 382.09 L391.42 388.56 L398.09 393.29 L404.45 397.93 L405.47 396.97 L407.03 396.61 L404.53 391.67 L397.90 381.79 L393.46 374.12 L385.11 361.48 L385.07 358.57 L386.75 357.76 L388.39 356.90 L390.19 356.26 L391.88 355.50 L395.69 357.66 L405.06 367.69 L408.61 369.90 L417.37 379.83 L417.43 377.32 L421.82 381.28 L419.84 375.60 L425.36 381.57 L423.38 375.69 L425.41 376.24 L419.34 363.09 L417.86 357.33 L413.02 345.37 L415.81 346.76 L421.32 353.33 L425.71 358.14 L430.92 364.81 L432.96 365.50 L433.60 363.37 L429.22 350.58 L428.96 346.08 L427.76 339.27 L433.12 347.12 L437.16 352.36 L442.04 359.94 L442.83 357.84 L444.78 358.62 L442.07 347.22 L441.36 340.55 L438.98 328.81 L438.99 323.26 L441.67 325.39 L444.79 329.05 L449.10 336.82 L454.30 348.19 L455.73 347.43 L459.61 355.41 L459.10 347.70 L460.34 346.20 L461.42 343.95 L462.98 343.56 L464.78 344.23 L467.52 349.39 L467.48 341.52 L468.11 336.27 L467.54 324.01 L469.04 322.19 L471.67 327.06 L474.79 335.84 L477.00 339.58 L478.80 340.78 L480.17 338.81 L481.88 339.46 L483.11 335.58 L485.05 338.61 L486.24 333.34 L488.20 337.31 L489.69 335.02 L491.38 335.60 L493.05 336.15 L494.63 334.28 L496.18 329.39 L497.92 332.51 L499.60 330.59 L501.26 334.94 L502.92 334.37 L504.42 340.08 L506.16 336.38 L507.72 337.91 L509.07 342.81 L511.23 334.17 L513.27 329.33 L515.78 320.39 L518.69 309.15 L520.97 305.84 L522.40 310.42 L523.80 314.49 L525.18 318.21 L527.16 317.36 L529.36 315.25 L532.51 307.88 L534.88 305.70 L537.25 303.81 L538.60 307.21 L539.54 312.28 L540.42 317.18 L541.83 319.42 L543.90 318.73 L547.30 312.91 L549.86 310.74 L553.24 305.83 L555.32 305.87 L557.18 306.71 L559.33 306.58 L560.81 308.60 L561.80 312.01 L561.02 320.45 L560.10 328.79 L560.28 333.63 L561.02 336.70 L562.87 336.75 L563.60 339.66 L563.83 343.66 L563.21 349.50 L564.44 350.76 L567.31 348.29 L573.80 338.07 L580.19 328.61 L585.93 321.02 L590.67 315.89 L590.23 321.32 L590.24 325.66 L590.81 328.76 L588.84 336.46 L588.61 340.70 L587.79 345.82 L587.90 349.15 L589.39 350.07 L591.13 350.56 L592.47 351.73 L593.83 352.84 L596.27 352.29 L603.92 343.99 L609.26 339.48 L619.99 327.44 L624.59 324.60 L627.72 323.94 L628.75 326.22 L629.56 328.72 L629.61 332.17 L629.35 335.93 L629.38 339.22 L632.20 339.04 L635.26 338.64 L639.71 336.66 L643.43 335.67 L644.59 337.65 L645.86 339.49 L644.41 344.25 L637.80 354.32 L634.87 360.24 L628.20 369.78 L628.97 371.60 L628.84 374.27 L632.73 373.04 L630.76 377.41 L636.09 374.94 L632.52 380.64 L636.16 379.81 L640.27 378.65 L641.37 380.16 L646.23 378.53 L647.28 380.12 L646.77 382.96 L648.93 383.66 L646.50 387.89 L646.68 390.07 L650.67 389.41 L656.57 387.47 L665.01 383.89 L673.15 380.73 L674.65 382.25 L676.35 383.65 L678.47 384.80 L679.90 386.41 L681.13 388.15 L681.80 390.24 L681.96 392.61 L682.68 394.63 L683.88 396.38 L685.61 397.83 L686.22 399.91 L682.76 404.11 L682.06 406.79 L677.78 411.21 L677.25 413.68 L677.15 415.91 L676.80 418.23 L678.31 419.69 L677.22 422.30 L682.04 422.35 L674.96 427.43 L675.84 429.12 L678.66 430.05 L686.90 428.97 L701.45 425.74 L714.25 423.44 L720.72 423.61 L721.40 425.85 L721.88 428.14 L721.42 430.73 L720.47 433.44 L720.12 435.94 L721.63 437.90 L722.55 440.04 L724.52 441.91 L725.04 444.17 L724.56 446.67 L723.90 449.18 L722.65 451.80 L720.85 454.50 L717.48 457.46 L708.85 461.31 L702.92 464.50 L696.51 467.64 L693.58 470.11 L694.13 472.01 L694.27 473.97 L693.73 476.01 L693.35 478.02 L704.65 478.81 L712.85 480.11 L719.21 481.72 L715.26 484.22 L709.91 486.72 L699.42 489.38 L700.67 491.33 L697.87 493.43 L700.81 495.34 L714.53 497.17 L719.48 499.30 L738.06 501.62 L739.64 504.03 L738.80 506.41 L738.86 508.80 L738.96 511.20 L738.48 513.56 L737.63 515.90 L737.09 518.25 L735.14 520.46 L735.74 522.89 L735.83 525.29 L735.68 527.66 L736.34 530.13 L734.35 532.26 L732.25 534.34 L728.88 536.19 L721.87 537.36 L713.00 538.06 L707.52 539.23 L701.78 540.23 L701.47 542.27 L701.11 544.30 L698.59 545.83 L701.15 548.55 L698.90 550.11 L709.15 554.93 L717.23 559.38 L724.19 563.69 L730.60 568.02 L725.02 568.82 L720.49 569.85 L717.37 571.26 L711.11 571.56 L704.91 571.75 L701.83 572.95 L695.60 572.91 L694.19 574.61 L693.78 576.68 L694.42 579.19 L692.08 580.49 L691.14 582.35 L697.95 587.65 L705.00 593.23 L712.64 599.28 L715.15 603.08 L704.53 600.53 L697.01 599.28 L688.52 597.38 L687.43 599.21 L685.82 600.75 L688.84 604.84 L697.84 612.44 L704.00 618.66 L715.62 628.32 L716.74 631.93 L715.21 633.97 L713.48 635.88 L711.71 637.74 L709.73 639.46 L705.71 639.77 L693.22 634.13 L688.74 633.84 L676.58 627.88 L675.98 630.16 L670.34 628.64 L673.34 633.64 L666.53 631.07 L668.24 635.17 L666.28 636.35 L675.56 646.92 L678.77 652.67 L687.68 663.56 L684.47 664.03 L676.77 660.37 L670.65 657.97 L661.96 652.96 L659.26 653.45 L657.49 654.81 L665.56 666.03 L667.57 671.44 L670.87 678.35 L663.57 674.18 L657.44 671.05 L649.49 665.71 L648.89 668.40 L646.50 669.08 L651.57 678.51 L654.21 685.33 L659.11 695.16 L661.32 701.96 L657.66 701.48 L652.95 699.54 L646.13 694.64 L636.74 685.98 L633.99 686.11 L628.02 681.63 L629.36 687.48 L629.49 691.74 L627.42 692.80 L626.76 696.04 L623.09 694.60 L619.27 692.80 L620.28 698.86 L621.35 705.24 L625.02 716.35 L624.16 719.90 L618.94 715.67 L613.30 710.39 L608.13 705.70 L606.11 706.85 L604.65 709.13 L602.16 709.35 L602.16 714.77 L598.16 711.80 L598.36 717.92 L594.58 715.26 L592.99 717.52 L590.89 718.62 L588.06 717.96 L586.69 720.88 L586.29 726.52 L582.72 723.84 L581.55 727.65 L577.93 724.59 L575.56 725.00 L571.61 720.53 L570.42 724.49 L567.67 723.52 L564.19 719.91 L564.30 728.79 L563.17 733.70 L563.27 743.73 L563.25 754.09 L561.92 759.80 L558.33 756.05 L555.06 753.36 L551.67 749.79 L549.37 751.28 L547.35 754.46 L546.05 762.01 L543.94 765.52 L541.63 768.24 L538.49 765.48 L535.25 761.52 L531.99 756.70 L529.19 754.99 L526.76 756.43 L524.75 762.56 L522.43 766.49 L520.18 772.22 L517.48 772.75 L514.74 772.73 L512.04 773.59 L509.26 772.30 L506.47 769.58 L503.66 762.10 L501.01 752.50 L498.50 748.61 L496.08 745.01 L493.59 746.34 L491.23 743.33 L488.96 739.69 L486.86 734.25 L484.65 732.19 L481.95 737.02 L478.74 746.50 L475.01 759.50 L471.54 767.42 L467.96 774.92 L465.80 769.96 L463.65 765.62 L461.37 762.66 L459.86 755.21 L458.00 750.65 L456.18 746.37 L454.39 742.38 L451.88 742.33 L449.33 742.47 L447.00 741.52 L444.56 741.11 L441.89 741.61 L436.85 751.47 L432.73 757.00 L426.03 771.49 L421.87 775.85 L418.42 777.40 L416.02 775.35 L413.76 772.95 L411.86 769.58 L410.17 765.69 L408.37 762.34 L405.15 763.08 L401.74 764.24 L397.59 767.20 L393.66 769.36 L391.19 767.73 L388.75 766.08 L387.64 761.35 L389.72 749.60 L389.67 743.12 L392.29 731.18 L390.48 729.04 L389.28 725.74 L385.69 727.28 L385.56 721.98 L380.47 726.26 L381.73 718.55 L377.31 721.40 L373.54 722.93 L370.27 723.45 L365.70 726.08 L363.11 725.29 L363.10 720.30 L360.01 720.33 L361.11 713.84 L359.76 711.27 L356.40 711.70 L348.53 718.58 L339.64 726.52 L328.48 737.22 L324.14 738.17 L322.48 735.46 L321.32 732.12 L319.96 729.12 L319.30 725.28 L318.21 722.06 L316.49 719.65 L311.51 721.07 L309.39 719.08 L303.97 720.81 L304.56 715.76 L308.89 706.79 L308.71 702.87 L312.24 695.18 L312.06 691.50 L309.73 690.03 L309.72 686.28 L306.72 685.47 L307.11 681.42 L302.36 682.20 L306.45 674.88 L305.42 672.32 L302.75 671.19 L293.68 675.47 L281.60 682.01 L268.12 689.35 L261.72 690.64 L259.84 688.23 L258.23 685.62 L257.27 682.53 L256.77 679.13 L256.07 675.91 L253.57 673.99 L251.65 671.66 L248.55 670.11 L246.90 667.56 L246.28 664.34 L245.51 661.25 L245.40 657.77 L245.75 654.06 L247.39 649.63 L253.68 642.60 L257.56 637.14 L262.89 631.01 L264.26 627.19 L263.13 624.76 L261.33 622.67 L260.55 620.07 L261.51 616.61 L250.16 619.08 L242.90 619.40 L234.53 620.07 L236.32 616.10 L241.28 610.85 L249.49 604.38 L248.68 601.78 L249.50 598.54 L246.68 596.73 L232.14 599.23 L227.36 597.91 L208.16 601.52 L205.09 599.29 L204.75 596.13 L203.85 593.16 L202.45 590.34 L202.21 587.17 L201.87 584.05 L201.53 580.93 L202.31 577.53 L200.98 574.69 L199.81 571.80 L199.07 568.81 L197.47 565.99 L198.29 562.66 L199.37 559.31 L201.65 555.76 L207.51 551.65 L216.39 547.16 L219.68 543.74 L226.43 539.89 L225.74 537.19 L223.91 534.63 L226.29 531.55 L223.97 529.03 L225.07 526.14 L214.68 524.25 L204.24 522.16 L197.69 519.61 L188.30 517.09 L193.31 513.74 L196.78 510.55 L199.74 507.44 L204.46 504.37 L211.82 501.38 L213.84 498.51 L220.18 495.74 L219.57 492.93 L220.34 490.15 L220.08 487.33 L219.42 484.49 L221.32 481.80 L214.09 478.45 L204.70 474.77 L195.61 470.93 L190.77 467.34 L202.63 465.58 L209.86 463.48 L218.99 461.77 L219.53 458.98 L220.61 456.28 L217.17 452.84 L205.78 447.91 L198.27 443.47 L184.09 437.53 L181.42 433.69 L182.41 430.57 L183.40 427.46 L184.62 424.42 L186.31 421.50 L189.60 419.01 L203.19 419.38 L207.95 417.53 L221.40 418.31 L222.26 415.54 L227.83 414.25 L224.71 410.23 L230.52 409.13 L228.38 405.38 L229.44 402.70 L219.68 396.01 L214.08 390.67 L203.52 383.22 L204.40 380.14 L213.71 380.57 L219.33 379.60 L230.00 380.97 L232.82 379.01 L234.25 376.44 L224.40 368.49 L220.29 363.08 L215.21 357.04 L223.72 357.84 L231.22 358.28 L239.70 359.41 L241.97 357.29 L242.09 353.96 L237.32 347.77 L230.54 340.22 L224.98 333.19 L219.30 325.88 L223.60 324.69 L228.50 323.97 L237.31 325.92 L249.31 330.25 L252.56 328.82 L259.65 330.14 L258.42 325.62 L256.16 320.26 L258.45 318.19 L258.20 314.18 L262.98 314.06 L266.46 312.98 L264.86 307.81 L262.17 301.61 L255.53 291.90 L255.26 287.40 L262.34 289.35 L269.10 291.18 L277.33 294.54 L277.77 290.79 L280.65 289.32 L282.22 286.61 L282.13 282.21 L286.13 281.89 L285.28 276.60 L289.23 276.27 L291.65 274.35 L293.16 271.44 L296.08 270.10 L298.06 267.69 L296.07 260.61 L301.34 262.02 L301.03 256.74 L306.83 258.95 L309.01 256.72 L314.78 259.15 L315.17 254.62 L318.03 253.32 L323.90 256.22 L320.96 246.84 L321.36 241.98 L318.30 231.87 L316.19 222.83 L315.56 215.75 L320.76 217.61 L325.58 219.04 L330.18 220.24 L332.92 218.44 L334.38 214.44 L333.92 206.94 L334.94 201.82 L336.88 198.25 L341.34 199.34 L346.40 201.75 L351.51 204.45 L355.56 205.20 L358.28 203.28 L358.85 196.69 L360.36 191.93 L361.03 185.07 L363.98 183.23 L367.15 181.85 L370.19 180.17 L373.73 179.75 L377.92 181.08 L383.59 186.53 L390.33 195.38 L394.56 197.68 L399.14 201.23 L401.50 198.30 L405.37 200.02 L409.34 202.26 L413.92 206.80 L417.66 208.82 L419.29 203.26 L420.11 194.26 L419.47 178.69 L420.95 170.67 L422.06 160.38 L426.51 164.41 L430.56 166.99 L434.48 169.28 L438.86 174.32 L443.31 180.42 L446.82 181.77 L450.70 185.68 L453.76 184.59 L456.77 183.12 L460.04 183.49 L463.19 182.95 L466.29 181.92 L468.51 171.52 L471.22 164.56 L473.47 149.60 L476.53 142.65 L479.97 139.88 L483.63 140.98 L487.27 142.32 L490.91 144.80 L494.51 147.80 L498.05 150.73 L501.55 148.91 L505.10 146.53 L508.73 142.82 L512.43 139.05 L516.01 139.81 L519.58 140.51 L522.94 144.35 L525.67 155.79 L528.50 163.24 L530.91 173.60 L533.92 176.37 L536.89 179.00 L540.47 176.40 L543.10 181.33 L547.01 176.80 L549.40 182.68 L553.08 180.09 L556.99 176.59 L560.59 175.20 L564.54 172.22 L568.19 171.08 L570.42 176.64 L574.05 175.60 L576.03 181.64 L578.52 185.16 L582.69 182.05 L587.95 175.20 L594.68 163.68 L602.14 150.64 L606.68 148.18 L609.92 150.14 L612.80 153.14 L615.77 155.75 L618.25 159.69 L621.09 162.45 L624.08 164.68 L629.08 161.62 L632.36 163.18 L637.62 159.83 L639.46 164.96 L639.20 174.79 L641.12 179.20 L641.20 187.54 L642.89 192.05 L646.44 192.49 L647.87 197.31 L651.79 197.01 L654.13 199.87 L657.75 200.24 L658.40 206.17 L660.37 209.50 L663.60 210.54 L670.01 206.09 L677.64 199.87 L686.45 192.06 L691.43 190.85 L694.94 192.10 L698.36 193.53 L701.44 195.49 L705.57 195.90 L708.68 197.84 L712.96 198.16 L716.16 200.03 L719.02 202.38 L721.31 205.49 L723.85 208.23 L725.59 211.97 L727.71 215.18 L731.62 216.16 L734.51 218.41 L740.45 217.07 L744.22 218.39 L747.93 219.83 L749.83 223.31 L751.66 226.82 L753.12 230.70 L755.40 233.65 L758.90 235.35 L762.71 236.77 L766.11 238.65 L768.80 241.24 L770.34 244.91 L772.44 248.03 L774.91 250.81 L777.53 253.44 L779.67 256.50 L782.18 259.23 L785.96 260.91 L790.39 262.09 L792.59 265.14 L795.00 268.02 L795.38 272.46 L797.27 275.71 L799.14 278.96 L802.25 281.30 L806.72 282.71 L809.85 285.11 L815.29 285.97 L817.95 288.78 L820.06 291.96 L821.02 295.88 L822.11 299.68 L822.23 304.05 L823.06 307.94 L825.90 310.64 L830.88 312.14 L834.15 314.68 L836.48 317.77 L836.55 322.05 L836.55 326.34 L837.98 329.86 L840.03 333.07 L842.63 336.02 L844.62 339.29 L846.73 342.50 L848.47 345.90 L849.74 349.50 L850.96 353.12 L852.66 356.53 L853.74 360.20 L854.49 363.98 L856.12 367.43 L859.82 370.13 L862.51 373.25 L866.03 376.11 L866.48 380.03 L866.49 384.07 L866.76 388.00 L868.18 391.58 L869.18 395.29 L871.70 398.58 L875.12 401.67 L875.82 405.49 L877.47 409.08 L875.49 413.52 L875.44 417.47 L875.36 421.42 L876.62 425.08 L877.07 428.90 L879.55 432.36 L883.16 435.66 L886.18 439.12 L887.91 442.81 L886.46 446.97 L885.18 451.06 L883.93 455.12 L886.00 458.79 L887.97 462.49 L890.00 466.23 L888.96 470.24 L889.48 474.11 L888.12 478.10 L888.35 481.98 L888.82 485.85 L889.14 489.74 L887.91 493.65 L889.25 497.52 L931.71 500.00 L936.57 495.63 L935.52 491.29 L934.31 486.97 L933.81 482.64 L933.66 478.30 L932.43 474.02 L930.73 469.80 L928.92 465.61 L928.42 461.34 L929.07 456.95 L929.58 452.55 L929.47 448.21 L926.08 444.30 L923.12 440.37 L921.41 436.31 L921.12 432.04 L923.61 427.28 L924.27 422.80 L924.34 418.39 L923.07 414.24 L921.71 410.12 L919.92 406.10 L916.07 402.58 L913.06 398.92 L912.09 394.78 L911.18 390.62 L912.01 385.97 L911.40 381.70 L909.60 377.77 L907.60 373.92 L904.61 370.39 L901.69 366.88 L899.86 363.04 L899.85 358.56 L899.72 354.09 L899.26 349.72 L897.51 345.82 L895.07 342.21 L893.03 338.44 L890.88 334.74 L888.30 331.23 L886.29 327.49 L884.58 323.62 L882.85 319.76 L881.24 315.84 L879.24 312.11 L877.17 308.41 L873.47 305.57 L869.37 302.98 L865.19 300.49 L864.95 295.86 L863.51 291.87 L864.50 286.43 L861.50 283.30 L857.60 280.75 L853.19 278.57 L849.49 275.99 L846.11 273.24 L843.48 270.02 L842.81 265.47 L842.29 260.77 L841.09 256.49 L839.65 252.36 L837.23 248.92 L833.97 246.11 L830.01 243.88 L825.72 241.95 L822.77 238.99 L820.07 235.84 L819.64 230.77 L816.77 227.73 L814.26 224.37 L810.54 222.09 L807.80 218.95 L804.55 216.28 L800.53 214.36 L796.22 212.77 L793.44 209.71 L790.85 206.46 L788.85 202.59 L785.65 199.94 L782.01 197.77 L776.90 197.23 L772.99 195.44 L768.83 193.98 L767.12 189.73 L764.84 186.08 L763.85 180.83 L760.33 178.60 L757.47 175.55 L752.71 174.92 L748.25 173.98 L744.35 172.36 L739.80 171.66 L736.61 169.13 L733.71 166.18 L730.88 163.10 L727.95 160.14 L724.81 157.47 L721.13 155.61 L717.72 153.35 L714.61 150.59 L714.99 141.99 L716.20 131.68 L717.42 120.97 L713.72 118.63 L711.44 113.69 L702.63 120.84 L700.23 116.14 L694.45 117.96 L691.86 113.53 L686.49 114.73 L682.40 113.35 L679.00 110.51 L671.56 116.64 L666.94 116.73 L659.27 124.12 L652.45 129.96 L649.38 126.85 L645.61 125.47 L642.66 121.91 L638.88 120.47 L634.23 121.51 L629.73 122.22 L625.16 123.33 L620.84 123.80 L616.47 124.55 L612.45 124.25 L611.10 114.78 L610.83 100.77 L610.43 86.21 L606.56 84.07 L604.02 76.42 L596.89 87.69 L593.18 84.86 L588.55 86.16 L583.07 91.89 L580.39 83.76 L575.69 85.94 L572.07 82.16 L569.07 74.13 L563.86 79.76 L560.28 74.67 L555.60 77.36 L551.40 76.57 L547.22 75.59 L542.74 77.41 L537.85 84.32 L532.97 92.83 L528.17 102.75 L523.64 111.64 L519.68 112.98 L515.75 114.06 L511.87 114.54 L508.12 109.54 L504.22 108.82 L500.31 106.21 L496.39 107.35 L492.52 110.55 L488.71 113.38 L484.94 115.99 L481.18 117.91 L477.43 119.19 L473.40 116.24 L468.61 104.56 L463.76 94.78 L458.79 85.94 L454.01 80.51 L449.99 82.44 L445.83 83.09 L441.83 84.82 L437.62 85.04 L433.62 86.61 L430.70 94.34 L426.91 96.52 L424.52 105.83 L421.32 110.28 L418.29 115.15 L415.53 120.83 L412.51 125.02 L405.68 113.24 L400.43 108.74 L392.21 93.49 L386.83 89.83 L382.36 89.66 L379.89 96.34 L377.44 102.69 L374.63 107.55 L370.98 109.64 L367.30 111.56 L365.25 118.10 L363.56 125.29 L363.92 137.60 L362.10 143.63 L359.40 147.17 L355.65 148.02 L352.26 149.78 L348.81 151.39 L344.80 151.72 L339.05 148.32 L334.55 147.84 L329.00 145.29 L325.90 147.89 L324.12 153.07 L323.11 159.57 L321.91 165.48 L319.55 169.07 L315.06 168.75 L309.35 166.40 L303.07 163.28 L299.14 164.32 L296.27 167.12 L295.81 173.73 L295.32 180.10 L294.13 185.23 L285.14 178.54 L278.29 175.37 L268.73 168.55 L263.95 168.80 L257.39 166.70 L259.08 175.89 L253.55 175.27 L251.68 179.52 L250.68 184.79 L249.84 190.15 L246.97 192.92 L245.75 197.66 L242.27 199.66 L236.14 198.68 L233.87 202.15 L230.83 204.74 L228.22 207.80 L226.71 212.00 L222.90 213.77 L221.35 217.87 L216.91 219.06 L214.19 221.97 L210.69 224.14 L208.52 227.59 L206.20 230.87 L212.01 241.44 L212.63 247.15 L212.92 252.45 L206.33 251.84 L195.30 247.71 L190.27 248.71 L187.30 251.45 L188.87 257.73 L186.39 260.81 L184.19 264.08 L180.72 266.43 L174.24 266.65 L173.65 271.13 L174.50 276.55 L177.91 283.60 L186.03 293.58 L189.23 300.11 L190.96 305.56 L187.43 307.67 L178.25 306.44 L168.82 305.25 L160.15 304.69 L155.11 306.36 L154.77 310.69 L153.95 314.71 L162.48 323.60 L165.83 329.58 L165.89 333.80 L159.94 335.06 L149.54 334.33 L139.30 333.88 L144.60 340.61 L142.02 343.73 L153.64 352.91 L156.31 358.08 L162.91 364.74 L154.47 365.35 L148.00 366.87 L136.82 366.77 L131.90 369.13 L125.94 371.21 L129.83 376.67 L124.55 379.07 L126.94 383.95 L125.79 387.68 L131.95 393.53 L139.25 399.54 L146.79 405.44 L156.26 411.65 L156.27 415.30 L157.19 419.16 L157.14 422.76 L157.58 426.45 L157.85 430.07 L149.05 431.93 L136.52 433.26 L126.63 435.30 L116.61 437.50 L115.03 441.19 L115.27 445.16 L115.99 449.17 L127.14 454.44 L133.22 458.90 L141.85 463.49 L130.99 466.11 L125.99 469.42 L112.33 472.20 L111.25 476.03 L112.12 479.97 L113.77 483.93 L113.92 487.80 L115.53 491.70 L116.68 495.56 L123.28 499.40 L124.75 503.15 L132.98 506.76 L136.72 510.32 L141.45 513.78 L147.19 517.09 L151.26 520.39 L139.18 524.72 L137.94 528.45 L122.21 533.49 L122.28 537.29 L120.57 541.30 L120.61 545.13 L122.22 548.78 L122.48 552.59 L123.20 556.33 L135.03 558.30 L138.62 561.44 L151.37 562.87 L157.16 565.37 L159.41 568.48 L162.99 571.27 L163.77 574.63 L164.51 577.99 L165.14 581.38 L165.82 584.76 L167.30 587.94 L170.48 590.63 L172.21 593.69 L174.30 596.63 L175.98 599.67 L177.35 602.79 L178.93 605.83 L181.17 608.64 L176.50 613.85 L162.51 622.59 L157.85 628.17 L147.27 636.16 L148.87 639.60 L152.60 642.16 L158.52 643.73 L169.28 643.12 L179.19 642.65 L176.05 647.95 L176.42 651.71 L165.75 660.81 L164.69 665.46 L169.13 667.41 L171.02 670.60 L173.48 673.49 L175.01 676.87 L184.19 675.99 L190.79 676.39 L200.72 674.71 L208.49 674.11 L212.09 675.89 L215.41 677.79 L218.93 679.52 L222.00 681.50 L224.58 683.77 L226.48 686.49 L227.62 689.73 L229.83 692.23 L231.94 694.80 L235.87 696.01 L239.18 697.62 L242.46 699.22 L244.58 701.70 L246.77 704.11 L240.52 713.47 L231.45 725.47 L224.82 735.77 L224.06 741.24 L224.45 745.81 L234.14 741.97 L234.97 746.11 L240.20 746.14 L241.45 749.91 L244.97 751.49 L249.21 752.30 L250.89 755.68 L258.43 752.95 L263.71 752.42 L271.98 748.53 L280.14 744.50 L281.68 747.72 L284.00 750.08 L284.93 754.11 L287.73 755.94 L291.77 756.25 L295.82 756.46 L299.80 756.69 L303.45 757.27 L307.30 757.54 L310.39 758.75 L308.06 767.50 L303.02 780.41 L298.54 792.97 L300.22 796.84 L300.14 803.47 L308.93 796.53 L311.49 799.09 L315.77 798.88 L321.50 796.17 L321.43 803.10 L325.84 802.50 L326.95 807.65 L326.52 815.75 L332.41 812.40 L333.97 817.05 L338.18 816.69 L341.65 817.71 L344.57 819.81 L348.86 819.06 L354.51 815.25 L362.03 806.99 L368.77 799.98 L375.52 792.46 L379.14 792.04 L382.55 792.03 L385.73 792.54 L387.00 798.06 L389.83 799.60 L391.88 803.34 L395.10 803.89 L399.20 801.76 L403.04 800.21 L406.79 798.78 L410.32 797.93 L413.63 797.68 L415.78 801.49 L416.01 812.71 L416.46 823.94 L417.62 833.20 L419.38 840.65 L423.12 840.00 L426.51 840.79 L430.21 840.10 L433.49 841.42 L436.94 841.91 L441.73 834.68 L445.06 835.33 L450.05 825.24 L453.70 822.94 L457.52 818.97 L461.27 814.84 L464.92 810.80 L466.63 824.74 L469.27 831.63 L471.27 847.89 L474.33 854.05 L477.75 856.18 L481.60 850.93 L485.35 845.30 L488.94 841.30 L492.38 840.37 L495.79 840.17 L499.20 834.06 L502.50 828.09 L505.57 816.14 L508.59 810.87 L511.60 808.19 L514.70 808.50 L517.77 808.17 L520.84 807.74 L524.03 809.01 L527.55 813.67 L531.00 816.59 L534.60 820.30 L537.79 819.82 L540.39 814.80 L542.92 809.94 L545.25 804.30 L547.98 801.89 L551.23 802.77 L555.23 807.70 L559.31 812.42 L562.91 814.19 L565.63 811.59 L567.81 806.66 L569.54 800.24 L571.65 795.86 L577.20 805.39 L581.66 809.93 L587.80 820.21 L591.53 821.20 L596.34 825.69 L597.47 817.79 L601.39 819.14 L604.38 817.51 L606.17 812.40 L608.22 808.28 L610.73 805.62 L613.37 803.40 L616.32 802.03 L621.30 805.83 L624.08 803.92 L626.71 801.71 L630.05 801.20 L631.81 797.06 L635.04 796.31 L638.18 795.35 L641.26 794.22 L644.72 793.86 L647.85 792.79 L649.98 789.78 L653.72 789.86 L650.61 777.26 L651.66 772.67 L652.23 767.36 L656.61 768.77 L665.56 777.70 L669.69 778.27 L673.72 778.56 L673.50 772.11 L676.55 770.89 L678.56 768.07 L682.69 768.42 L687.03 768.97 L690.25 767.84 L689.29 760.92 L688.58 754.55 L683.77 742.94 L682.09 735.78 L681.91 730.74 L684.89 729.76 L692.98 734.96 L700.48 739.18 L708.23 743.44 L713.12 744.17 L714.64 741.00 L716.25 737.97 L710.67 727.22 L709.16 721.12 L708.64 716.20 L714.55 717.92 L723.31 722.33 L733.03 727.41 L730.77 720.74 L732.97 718.42 L725.15 706.90 L723.65 701.44 L718.86 693.19 L725.92 695.44 L732.12 696.78 L742.06 701.08 L747.18 701.19 L752.49 701.35 L751.97 696.85 L755.41 695.45 L756.01 691.88 L757.11 688.72 L753.77 682.39 L748.27 674.70 L742.90 667.31 L735.14 658.53 L735.53 655.39 L735.73 652.16 L736.70 649.45 L737.30 646.53 L737.84 643.60 L744.83 644.50 L757.62 648.59 L766.06 649.94 L776.64 652.28 L779.41 650.18 L780.09 646.95 L780.92 643.82 L772.00 635.84 L768.14 630.58 L760.28 623.55 L770.13 624.93 L775.56 624.11 L790.04 627.16 L790.87 624.07 L792.67 621.39 L792.52 617.92 L793.31 614.84 L791.73 610.87 L793.72 608.28 L787.24 602.64 L788.30 599.78 L779.61 593.65 L778.15 590.08 L774.20 585.78 L770.09 581.54 L766.47 577.54 L779.83 578.41 L781.71 575.90 L798.48 577.23 L799.01 574.18 L802.69 571.89 L801.84 568.51 L801.92 565.36 L803.89 562.61 L802.84 559.24 L793.16 554.31 L790.79 550.87 L779.58 546.03 L774.22 542.34 L773.14 539.38 L770.59 536.25 L770.70 533.52 L771.17 530.82 L771.50 528.12 L771.86 525.41 L771.62 522.65 L769.29 519.74 L768.86 517.01 L767.67 514.25 L767.23 511.55 L767.11 508.87 L766.51 506.18 L765.27 503.50 L770.23 500.86 L787.34 498.04 L794.12 495.05 L804.78 491.83 L806.96 488.69 L803.16 485.80 L799.49 482.97 L787.98 480.73 L779.41 478.49 L782.64 475.40 L785.40 472.28 L795.41 468.33 L799.88 464.81 L796.28 462.22 L795.72 459.29 L795.21 456.34 L794.83 453.38 L787.16 451.65 L780.74 449.84 L770.90 448.80 L763.26 447.51 L760.28 445.39 L757.87 443.20 L755.52 441.03 L753.20 438.89 L751.90 436.53 L751.06 434.07 L751.43 431.28 L749.99 428.97 L749.38 426.45 L746.04 424.75 L744.00 422.69 L741.58 420.80 L740.55 418.46 L739.28 416.21 L748.36 410.24 L760.01 403.08 L770.88 395.93 L774.08 391.54 L775.31 387.86 L767.09 388.08 L764.62 385.99 L763.36 383.39 L761.23 381.20 L760.59 378.33 L756.69 377.01 L756.15 374.10 L749.50 374.26 L745.26 373.31 L739.43 373.27 L734.62 372.79 L733.98 370.10 L731.48 368.44 L730.32 366.04 L727.04 364.89 L724.87 363.11 L722.96 361.20 L721.40 359.08 L720.40 356.60 L719.35 354.14 L717.98 351.89 L717.97 348.69 L725.21 340.30 L728.31 334.65 L730.47 329.54 L730.20 326.16 L724.10 327.22 L721.60 325.58 L718.88 324.15 L714.20 324.36 L714.94 320.12 L711.65 319.25 L712.02 315.23 L713.65 310.03 L709.26 310.14 L708.62 306.89 L706.19 305.28 L703.37 304.05 L702.75 300.70 L698.91 300.53 L693.13 302.41 L684.19 307.75 L675.58 313.03 L667.08 318.47 L663.78 318.44 L661.14 317.74 L658.86 316.66 L660.12 311.43 L658.59 309.40 L658.34 305.79 L656.23 304.40 L652.18 305.53 L648.47 306.30 L645.08 306.75 L641.95 306.93 L639.36 306.43 L638.85 303.01 L642.24 293.85 L646.87 282.52 L649.05 274.46 L650.80 266.78 L647.77 266.38 L645.48 264.82 L642.29 264.75 L640.24 262.82 L638.47 260.37 L631.91 266.36 L629.87 264.50 L622.36 272.78 L618.50 274.58 L614.32 277.15 L609.90 280.38 L605.82 283.14 L609.02 270.79 L609.54 263.64 L613.33 248.92 L613.80 240.98 L611.86 238.34 L607.49 241.44 L602.73 245.74 L598.63 248.69 L595.42 249.53 L593.12 248.02 L588.46 253.06 L584.36 256.86 L578.04 267.62 L573.99 272.14 L570.91 273.95 L568.74 272.95 L566.42 272.44 L564.12 271.85 L562.20 269.88 L561.09 264.67 L559.60 260.58 L558.10 256.23 L555.67 255.64 L552.34 259.16 L548.94 263.44 L545.62 267.80 L542.83 269.86 L540.80 267.84 L539.24 262.88 L537.75 256.79 L535.64 254.15 L533.04 254.86 L530.02 259.11 L526.97 264.37 L524.19 268.16 L522.82 257.90 L520.78 253.13 L519.30 239.63 L516.73 238.85 L514.54 230.86 L511.48 239.14 L508.93 237.25 L506.30 237.44 L503.61 241.71 L501.01 245.17 L498.48 247.25 L495.96 247.66 L493.46 248.51 L490.76 243.69 L488.15 242.62 L485.68 244.57 L483.12 244.72 L480.68 246.35 L478.27 247.95 L475.55 246.11 L473.19 248.10 L470.24 244.62 L467.88 246.45 L465.28 246.34 L462.69 246.33 L461.98 258.29 L460.14 262.13 L458.95 269.21 L455.79 265.09 L451.29 254.72 L448.06 251.45 L445.16 250.11 L443.36 253.67 L441.36 256.19 L438.63 255.60 L436.16 256.10 L432.49 252.24 L429.81 252.18 L429.11 258.94 L428.13 264.36 L429.47 276.75 L429.68 284.95 L428.71 289.15 L426.34 289.11 L421.24 281.53 L416.62 275.78 L410.94 267.65 L407.78 266.41 L405.03 266.31 L403.57 269.36 L405.26 279.63 L405.78 286.73 L405.74 292.28 L401.10 287.73 L395.42 281.29 L388.40 272.48 L388.68 278.67 L386.24 279.35 L390.37 292.48 L390.45 297.56 L393.02 306.95 L388.02 302.61 L382.83 298.19 L375.59 290.57 L371.27 288.15 L367.09 286.12 L366.59 290.03 L364.07 290.72 L362.29 292.54 L361.17 295.32 L362.43 301.49 L365.61 310.16 L368.52 318.15 L373.76 329.03 L373.06 331.64 L372.36 334.17 L371.26 336.17 L370.14 338.10 L369.16 340.17 L363.70 336.87 L353.28 327.92 L346.54 323.62 L337.34 316.77 L334.50 317.29 L333.35 319.67 L331.69 321.50 L338.21 331.81 L340.74 337.73 L347.91 348.10 L338.69 342.08 L334.54 341.22 L323.17 333.68 L320.08 334.13 L317.54 335.14 L317.75 338.61 L316.00 340.31 L316.15 343.64 L314.23 345.18 L319.50 352.61 L317.46 353.96 L324.17 362.19 L324.93 365.59 L327.52 370.29 L330.56 375.22 L332.58 379.27 L322.40 374.60 L319.58 375.30 L304.14 367.50 L302.65 369.35 L299.04 369.83 L299.04 372.66 L297.76 374.67 L296.62 376.76 L295.40 378.81 L302.91 385.90 L305.46 389.96 L314.18 397.33 L318.80 402.24 L318.94 404.64 L320.67 407.82 L320.20 409.84 L318.88 411.44 L318.15 413.32 L317.16 415.09 L316.81 417.14 L318.08 419.90 L318.12 422.07 L318.46 424.36 L318.30 426.42 L317.85 428.35 L317.66 430.37 L318.28 432.68 L314.24 433.29 L296.93 429.36 L290.15 429.34 L277.98 427.71 L274.85 429.17 L278.23 432.66 L279.69 435.51 L290.66 440.98 L297.60 445.12 L294.07 446.37 L290.60 447.70 L279.93 447.36 L274.81 448.51 L278.10 451.59 L277.95 453.88 L277.88 456.18 L276.64 458.25 L283.49 461.77 L288.95 464.91 L299.94 468.79 L308.12 472.02 L312.96 474.64 L315.65 476.88 L318.19 479.04 L320.02 481.07 L322.10 483.09 L323.40 484.99 L324.29 486.84 L324.89 488.64 L325.18 490.41 L325.45 492.18 L325.72 493.94 L325.98 495.69 L326.29 497.43 L326.63 499.17 L311.77 500.98 L298.62 503.07 L281.10 505.52 L277.41 507.84 L274.04 510.23 L281.43 512.08 L283.95 514.11 L284.05 516.28 L284.79 518.39 L284.89 520.55 L288.24 522.36 L286.71 524.68 L294.19 525.91 L299.03 527.34 L306.79 528.26 L315.39 528.89 L315.89 530.70 L315.72 532.62 L314.17 534.82 L314.06 536.77 L316.51 538.19 L319.19 539.53 L321.94 540.80 L324.15 542.14 L326.60 543.40 L328.03 544.87 L322.75 548.14 L308.13 554.18 L298.11 559.20 L293.17 562.90 L290.35 566.05 L299.30 565.45 L299.95 567.46 L302.84 568.69 L308.25 568.96 L305.87 572.02 L306.78 573.88 L305.96 576.43 L300.70 580.81 L303.49 581.98 L304.23 583.98 L304.37 586.24 L308.09 586.90 L307.28 589.61 L310.21 590.56 L316.02 590.06 L325.70 587.50 L334.71 585.05 L344.61 581.93 L347.63 582.30 L349.61 583.18 L351.18 584.27 L347.91 588.14 L348.31 589.94 L346.87 592.88 L348.00 594.29 L351.79 594.00 L355.01 594.01 L358.03 594.08 L360.68 594.34 L362.73 594.97 L361.58 597.82 L355.46 604.33 L346.48 613.17 L341.91 618.99 L336.55 625.60 L338.51 626.69 L339.95 628.17 L342.21 628.96 L343.15 630.84 L343.82 632.95 L350.93 629.49 L352.36 630.86 L360.88 625.81 L365.56 624.05 L369.48 622.87 L374.30 620.73 L378.51 619.04 L371.77 628.18 L368.49 634.12 L359.77 645.90 L355.99 652.86 L356.35 655.57 L360.59 654.04 L365.95 651.13 L369.95 649.61 L373.16 648.89 L374.12 650.80 L379.47 647.36 L383.61 645.24 L392.45 637.00 L397.42 633.39 L400.47 632.13 L401.69 633.27 L403.10 634.14 L404.48 635.06 L405.32 636.75 L403.60 642.26 L403.44 645.60 L402.11 650.86 L403.90 651.40 L407.26 649.38 L411.62 645.59 L415.48 642.43 L418.52 640.48 L418.83 643.23 L418.82 646.65 L416.62 654.24 L418.04 655.32 L419.31 656.68 L423.21 652.84 L426.93 649.13 L430.32 645.90 L428.14 654.40 L427.35 660.27 L423.53 673.29 L425.19 674.22 L423.45 683.31 L428.25 676.77 L429.61 678.52 L431.30 679.47 L434.82 675.52 L437.72 673.00 L439.99 672.06 L442.13 671.43 L444.04 671.42 L444.33 676.49 L445.92 677.61 L447.98 677.19 L449.94 677.04 L451.64 677.79 L454.10 675.68 L455.20 678.76 L457.53 676.94 L458.42 681.19 L460.83 678.87 L462.17 681.43 L464.34 679.99 L467.77 671.66 L470.47 666.47 L473.36 659.43 L474.10 665.16 L474.28 675.46 L475.30 681.10 L476.84 683.46 L479.07 680.26 L481.15 677.92 L482.76 679.88 L484.60 679.56 L485.97 685.32 L487.77 686.31 L489.97 680.33 L491.96 676.22 L494.20 663.01 L496.03 655.12 L497.65 651.12 L499.16 651.57 L500.70 659.13 L502.42 668.04 L504.30 676.15 L506.21 680.23 L508.00 679.96 L509.75 678.90 L510.86 668.26 L512.07 661.91 L513.26 656.63 L515.34 661.99 L517.89 670.71 L520.88 681.67 L522.03 676.15 L523.82 676.15 L523.53 661.82 L524.49 657.34 L524.52 647.78 L526.69 651.43 L529.85 660.00 L532.93 667.22 L536.17 674.48 L538.34 676.07 L539.76 674.17 L541.39 673.31 L543.17 673.09 L544.06 669.43 L544.83 665.58 L543.39 654.11 L543.20 647.77 L541.06 635.39 L541.80 633.04 L542.66 631.17 L543.70 629.94 L544.64 628.48 L545.63 627.21 L548.74 631.70 L554.80 643.65 L559.18 650.60 L564.81 660.19 L567.27 661.62 L568.35 659.69 L570.10 659.35 L566.82 647.86 L565.92 642.07 L561.98 630.16 L567.05 637.26 L570.50 640.72 L577.93 651.74 L580.95 653.83 L581.99 652.09 L583.28 650.85 L584.86 650.15 L585.16 647.21 L586.79 646.63 L584.50 639.57 L585.40 637.92 L581.66 628.98 L580.79 624.83 L579.82 620.66 L577.91 615.25 L576.63 610.96 L583.71 618.65 L586.64 620.24 L596.30 630.86 L599.18 631.98 L601.74 632.61 L603.02 631.53 L602.99 628.83 L605.30 629.04 L606.77 628.21 L601.03 618.87 L599.69 614.95 L593.57 605.74 L590.33 600.04 L590.25 597.97 L589.23 594.93 L589.65 593.50 L590.98 592.99 L591.81 591.99 L592.78 591.12 L593.48 589.99 L592.65 587.42 L592.87 585.89 L592.79 584.11 L593.13 582.74 L593.73 581.61 L594.22 580.39 L593.86 578.48 L596.69 579.21 L611.01 589.11 L616.49 591.60 L627.75 598.41 L630.33 598.33 L629.08 595.38 L627.90 592.54 L619.71 584.81 L614.43 579.36 L615.79 578.60 L621.10 580.45 L628.86 583.76 L635.81 586.35 L632.88 582.64 L633.09 580.94 L633.61 579.43 L634.44 578.12 L629.98 573.80 L624.53 569.06 L617.98 563.90 L611.17 558.78 L609.43 556.47 L608.16 554.45 L607.10 552.58 L606.12 550.79 L605.90 549.39 L605.86 548.09 L607.49 547.54 L607.28 546.17 L608.05 545.22 L606.38 543.28 L605.06 541.52 L604.18 539.97 L603.96 538.70 L603.94 537.51 L602.42 535.81 L601.66 534.41 L599.85 532.69 L599.22 531.39 L599.32 530.33 L599.53 529.31 L599.55 528.23 L599.48 527.14 L599.49 526.08 L599.32 524.98 L599.21 523.90 L599.06 522.82 L599.03 521.77 L598.97 520.72 L598.92 519.68 L598.96 518.66 L598.80 517.61 L598.79 516.59 L598.91 515.59 L598.68 514.55 L597.32 513.35 L596.75 512.29 L594.59 511.06 L594.04 510.04 L593.86 509.07 L593.67 508.11 L593.47 507.15 L593.24 506.20 L593.02 505.25 L592.78 504.31 L592.55 503.37 L592.30 502.43 L592.06 501.51 L591.80 500.58 Z"/>
  <svg class="pausebutton" id="pausebutton">
    <circle cx="500" cy="500" id="pausestart" class="pausestart" r="52.65"/>
    <rect height="50.02" width="10.00" y="473.68" rx="2.00" ry="2.00" x="479.99" class="pausesymbol"/>
    <rect height="50.02" width="10.00" y="473.68" rx="2.00" ry="2.00" x="510.00" class="pausesymbol"/>
    <polygon points="530.01,500 479.99,530.01 479.99,469.99" class="playsymbol"/>
  </svg>
  <polygon id="playback-head" class="playback-head" points="912.475,500 892.475,540 932.475,540"/>
</svg>