<?xml-stylesheet href="../../style/waveformjs.css" type="text/css"?>
<svg xmlns="http://www.w3.org/2000/svg" xmlns:xlink="http://www.w3.org/1999/xlink" width="100%" height="100%" viewBox="0 0 1000 1000">
  <path class="svg-wave" id="sp" d="M597.01 500.00 L596.94 500.97 L596.88 501.94 L596.83 502.91 L596.64 503.87 L596.38 504.82 L595.96 505.76 L595.54 506.70 L594.85 507.60 L593.51 508.44 L588.20 508.85 L579.12 508.74 L575.88 509.15 L571.93 509.40 L564.81 509.13 L565.15 509.85 L565.56 510.58 L570.38 512.08 L567.77 512.33 L566.32 512.76 L569.87 514.16 L567.77 514.45 L566.32 514.83 L571.15 516.66 L571.96 517.61 L566.38 516.95 L570.71 518.81 L568.55 518.97 L564.29 518.49 L571.49 521.33 L578.13 524.17 L580.18 525.68 L584.86 528.12 L585.95 529.44 L580.56 528.50 L578.08 528.50 L579.39 529.88 L581.42 531.58 L582.24 532.85 L587.99 536.17 L590.76 538.37 L589.25 538.79 L583.69 537.38 L579.99 536.69 L576.49 536.01 L576.25 536.83 L567.85 533.61 L565.20 533.12 L567.45 535.12 L564.62 534.47 L565.52 535.80 L566.95 537.45 L564.35 536.84 L565.19 538.19 L564.49 538.66 L561.10 537.46 L563.95 540.10 L568.29 543.77 L563.21 541.42 L562.97 542.16 L564.25 543.96 L557.90 540.47 L561.20 543.69 L567.31 549.08 L569.98 552.10 L575.47 557.37 L579.62 561.80 L574.82 559.28 L571.17 557.55 L568.32 556.39 L572.28 560.88 L570.13 560.28 L570.08 561.47 L576.80 568.73 L574.38 567.91 L570.87 566.02 L567.02 563.69 L563.65 561.72 L562.77 562.10 L558.01 558.55 L555.47 557.12 L557.13 560.01 L552.94 556.74 L551.91 556.76 L553.55 559.74 L552.37 559.62 L549.36 557.33 L553.19 563.04 L551.12 561.84 L550.19 561.97 L552.87 566.63 L551.51 566.27 L548.81 564.09 L550.01 567.06 L548.11 565.87 L545.85 564.12 L549.01 570.01 L553.03 577.39 L554.21 580.82 L557.33 587.35 L558.11 590.50 L553.92 585.85 L551.54 583.91 L551.64 586.00 L551.31 587.41 L550.27 587.63 L553.81 596.02 L554.45 599.48 L552.37 598.00 L549.57 595.02 L546.14 590.65 L542.23 585.07 L541.02 584.75 L537.12 578.68 L534.55 575.18 L534.49 577.07 L532.99 575.74 L533.31 578.61 L533.26 580.73 L531.45 578.55 L531.48 580.98 L531.08 582.38 L528.76 578.59 L528.76 581.09 L529.49 585.88 L529.10 587.57 L526.56 582.70 L527.41 588.34 L527.83 592.98 L527.57 595.59 L526.98 597.18 L529.12 609.10 L529.59 615.49 L527.82 613.30 L525.72 609.43 L523.30 603.79 L521.70 601.42 L521.55 605.86 L520.47 605.97 L519.49 606.64 L520.54 619.09 L519.14 618.02 L517.46 614.89 L515.53 609.54 L513.44 602.14 L511.46 594.38 L510.34 592.90 L508.97 588.73 L507.93 587.09 L507.37 590.99 L506.54 592.16 L505.93 597.47 L504.82 594.77 L503.80 593.05 L502.99 596.97 L501.95 593.85 L500.99 591.90 L500.08 597.30 L499.09 598.90 L498.21 593.44 L497.23 594.81 L496.33 593.60 L495.64 588.47 L494.33 595.61 L492.90 602.38 L491.41 608.29 L489.51 617.33 L487.99 620.65 L487.32 615.62 L486.75 610.65 L485.89 608.58 L483.91 614.81 L483.14 612.14 L481.52 615.08 L478.70 624.71 L477.83 622.38 L477.33 618.40 L477.39 612.02 L477.35 606.66 L476.57 605.15 L477.07 598.30 L476.91 594.67 L475.26 597.21 L475.04 594.13 L473.56 595.83 L472.09 597.34 L471.95 594.26 L470.56 595.43 L469.41 595.76 L470.15 590.32 L469.14 590.34 L466.97 593.60 L466.92 590.85 L467.04 587.77 L464.16 592.63 L464.13 590.01 L461.91 592.88 L456.94 602.07 L454.93 603.93 L450.98 610.01 L446.86 616.11 L447.75 611.23 L448.87 606.07 L448.84 603.47 L444.68 609.11 L444.93 605.99 L442.58 607.85 L436.38 616.68 L436.20 614.28 L436.69 610.78 L438.73 604.77 L440.15 600.03 L441.02 596.37 L443.60 590.12 L444.23 587.16 L443.06 587.06 L443.53 584.48 L441.51 585.63 L439.01 587.41 L439.39 585.04 L439.88 582.59 L437.95 583.48 L438.91 580.50 L436.83 581.53 L434.15 583.25 L432.73 583.32 L433.24 581.02 L429.23 584.16 L431.27 580.09 L432.28 577.34 L426.13 582.68 L419.80 587.97 L417.05 589.18 L411.59 593.17 L408.43 594.59 L411.98 589.12 L413.11 586.23 L410.47 587.10 L408.68 587.08 L408.27 585.73 L399.85 591.74 L397.32 592.19 L398.48 589.33 L400.69 585.63 L403.87 581.23 L407.88 576.28 L407.31 575.20 L412.01 569.94 L413.94 567.01 L412.12 567.03 L412.73 565.19 L410.79 565.26 L408.29 565.69 L410.21 562.97 L408.83 562.59 L407.29 562.29 L410.24 559.01 L407.56 559.46 L403.00 561.03 L402.72 559.86 L406.18 556.44 L399.46 559.12 L395.06 560.31 L393.97 559.53 L390.48 560.06 L377.45 565.62 L372.94 566.41 L374.71 563.90 L377.89 560.74 L382.21 557.13 L384.45 554.62 L379.07 555.69 L380.08 553.78 L379.11 552.77 L368.01 556.05 L368.55 554.28 L371.34 551.63 L375.94 548.35 L381.53 544.81 L388.08 541.06 L389.26 539.37 L393.13 536.80 L392.83 535.70 L390.34 535.32 L388.77 534.60 L385.43 534.39 L386.22 532.91 L387.51 531.33 L384.21 531.00 L387.27 528.98 L387.17 527.80 L382.08 527.81 L380.44 526.94 L385.84 524.52 L383.55 523.80 L382.97 522.70 L386.70 520.80 L382.69 520.33 L374.40 520.47 L369.65 519.91 L363.93 519.40 L362.43 518.21 L367.70 516.17 L368.94 514.69 L366.51 513.61 L364.53 512.44 L363.36 511.17 L356.32 510.30 L352.95 509.07 L354.32 507.52 L360.52 505.80 L363.45 504.32 L367.44 502.86 L367.43 501.54 L376.49 500.20 L377.93 498.97 L376.28 497.72 L379.90 496.59 L376.79 495.27 L375.39 493.96 L378.85 492.92 L376.80 491.56 L376.72 490.31 L380.77 489.43 L376.41 487.80 L371.78 486.05 L377.50 485.43 L375.94 483.98 L372.80 482.28 L379.99 482.06 L375.75 480.15 L367.36 477.45 L365.52 475.75 L358.69 473.06 L353.78 470.60 L359.68 470.33 L363.81 469.77 L366.08 468.87 L360.22 466.03 L363.21 465.30 L363.23 463.85 L355.21 460.18 L356.06 458.86 L360.79 458.70 L366.14 458.83 L368.29 458.04 L368.81 456.76 L375.50 457.58 L379.54 457.61 L377.86 455.64 L383.06 456.20 L383.10 454.87 L380.34 452.43 L381.25 451.41 L383.27 450.87 L379.01 447.64 L382.04 447.55 L381.57 445.92 L378.58 443.07 L380.47 442.50 L383.30 442.41 L383.65 441.13 L387.45 441.63 L387.24 440.09 L385.99 437.95 L377.86 431.94 L374.24 428.26 L369.12 423.60 L367.38 420.79 L374.00 423.02 L376.55 422.87 L375.00 420.16 L375.76 418.89 L376.43 417.55 L369.52 411.04 L370.15 409.55 L372.54 409.31 L376.03 409.92 L381.12 411.78 L385.83 413.50 L385.93 411.76 L391.47 414.30 L396.56 416.62 L395.87 414.34 L397.67 414.09 L396.34 411.18 L396.97 409.92 L399.72 410.54 L398.61 407.72 L399.14 406.34 L403.62 408.69 L403.71 406.92 L400.07 401.46 L402.22 401.63 L407.73 405.30 L402.33 397.73 L402.59 395.94 L403.72 395.06 L401.61 390.59 L395.23 381.12 L394.40 377.73 L395.16 376.13 L398.71 377.87 L403.18 380.86 L405.60 381.43 L404.41 377.44 L405.51 376.32 L407.73 376.69 L403.97 368.95 L405.73 368.62 L408.79 370.16 L412.91 373.35 L416.68 376.20 L421.35 380.58 L423.25 380.89 L426.82 383.89 L428.15 383.43 L428.35 381.11 L428.89 379.30 L426.74 372.76 L429.65 374.93 L431.84 375.93 L430.85 371.10 L434.16 374.26 L436.45 375.64 L435.11 369.81 L435.51 367.31 L438.91 371.03 L438.51 366.77 L441.57 370.00 L443.85 371.64 L443.09 366.29 L442.52 361.10 L441.43 354.37 L440.66 348.09 L441.68 346.18 L444.62 349.40 L447.25 352.00 L448.99 352.22 L448.42 345.59 L450.31 346.14 L451.44 344.33 L450.32 334.95 L452.25 335.44 L455.41 340.38 L458.02 343.71 L460.81 348.04 L462.61 348.78 L465.89 355.89 L468.18 359.28 L468.70 354.87 L470.52 356.36 L471.46 353.51 L472.69 351.91 L474.58 354.00 L475.78 352.16 L477.38 352.70 L479.42 356.44 L480.89 356.51 L481.93 353.10 L483.58 354.55 L485.29 356.82 L486.14 350.36 L487.99 354.56 L489.10 349.66 L489.93 338.86 L491.49 337.67 L492.91 332.88 L494.37 326.16 L496.22 331.07 L497.94 333.89 L499.61 337.42 L501.29 330.83 L502.94 333.14 L504.60 333.41 L506.57 325.28 L508.30 325.79 L509.82 329.80 L511.16 335.19 L512.63 337.59 L514.10 339.46 L515.15 345.30 L516.25 349.61 L517.81 349.28 L519.15 350.75 L520.98 348.54 L523.57 341.49 L524.72 344.47 L526.27 344.74 L528.61 340.61 L529.28 345.77 L530.40 348.18 L532.63 345.10 L533.83 347.02 L534.89 349.36 L537.31 345.96 L537.75 350.67 L539.04 351.82 L541.96 346.97 L545.76 339.43 L548.28 336.80 L552.21 329.78 L555.14 326.43 L555.80 330.26 L557.53 330.74 L559.76 329.77 L561.15 331.23 L563.23 330.80 L566.36 327.68 L567.52 329.78 L568.85 331.37 L570.58 331.94 L571.86 333.59 L572.48 336.66 L572.41 341.11 L572.21 345.66 L571.75 350.56 L570.63 356.59 L571.59 358.23 L575.03 355.04 L577.99 352.94 L578.00 356.42 L579.89 356.38 L581.77 356.39 L580.47 361.91 L581.59 363.15 L585.38 359.99 L586.70 360.98 L586.00 365.12 L592.20 358.54 L594.96 357.44 L594.99 360.44 L599.89 356.35 L606.86 349.57 L609.28 349.37 L611.79 349.11 L611.62 352.44 L611.75 355.30 L613.24 356.36 L616.15 355.67 L616.37 358.32 L617.51 359.81 L620.84 358.73 L622.40 359.77 L622.78 362.14 L623.89 363.66 L623.50 366.80 L620.09 373.04 L620.40 375.24 L617.85 380.30 L615.29 385.22 L617.38 385.45 L618.39 386.76 L623.19 384.50 L622.70 387.25 L623.09 389.14 L626.09 388.70 L624.37 392.41 L626.26 392.96 L630.36 391.71 L632.78 391.92 L630.66 395.80 L633.01 396.09 L632.10 398.91 L632.05 401.03 L635.63 400.45 L643.35 396.97 L647.14 396.46 L652.94 394.65 L655.42 395.22 L651.74 399.89 L651.67 402.10 L655.00 402.13 L657.52 402.73 L659.26 403.85 L666.59 401.68 L670.07 401.90 L669.45 404.51 L664.91 409.22 L663.70 412.01 L661.15 415.45 L661.30 417.42 L654.78 422.70 L653.33 425.33 L656.19 425.86 L655.53 428.07 L656.99 429.29 L659.74 429.97 L658.21 432.52 L660.01 433.63 L660.15 435.44 L658.23 438.05 L662.71 438.16 L667.89 438.11 L663.95 441.42 L665.22 442.82 L664.11 445.04 L660.69 447.96 L665.16 448.33 L671.10 448.35 L677.83 448.25 L684.57 448.28 L690.91 448.56 L685.97 451.88 L683.05 454.59 L681.83 456.81 L688.07 457.31 L685.89 459.76 L687.31 461.41 L695.10 461.83 L694.64 463.94 L690.66 466.65 L686.23 469.34 L684.41 471.53 L684.09 473.46 L678.28 476.11 L675.48 478.27 L677.62 479.81 L673.67 482.02 L672.82 483.85 L677.97 485.16 L676.10 487.09 L673.48 489.02 L680.72 490.38 L677.66 492.32 L679.03 494.06 L683.16 495.75 L681.30 497.61 L678.90 499.43 L679.81 501.23 L675.32 502.95 L676.85 504.74 L678.89 506.59 L689.25 508.87 L693.58 511.01 L700.63 513.42 L702.38 515.58 L695.26 516.99 L693.40 518.78 L696.88 521.11 L696.01 523.00 L696.30 525.03 L705.75 528.33 L704.54 530.25 L703.01 532.10 L699.43 533.58 L693.52 534.58 L688.45 535.62 L688.16 537.52 L681.87 538.16 L679.07 539.44 L678.78 541.26 L679.29 543.27 L681.02 545.61 L680.97 547.53 L678.16 548.70 L679.83 551.09 L677.94 552.48 L673.06 552.93 L676.09 555.79 L679.56 558.87 L678.17 560.40 L674.01 560.93 L677.93 564.31 L679.83 567.03 L678.62 568.62 L680.97 571.62 L691.97 578.20 L694.14 581.35 L694.02 583.59 L689.50 583.90 L684.50 583.90 L681.66 584.81 L684.76 588.53 L684.02 590.45 L682.49 591.97 L688.80 597.53 L687.50 599.24 L683.89 599.70 L677.21 598.38 L671.90 597.70 L665.62 596.33 L663.57 597.34 L658.85 596.69 L658.42 598.62 L658.22 600.70 L658.84 603.35 L663.05 608.42 L658.78 607.89 L656.83 608.87 L659.13 612.84 L654.63 611.99 L652.11 612.50 L655.80 617.66 L655.74 620.08 L650.37 618.36 L652.50 622.52 L648.09 621.43 L645.44 621.71 L647.69 626.12 L649.92 630.65 L654.66 637.53 L657.20 642.62 L656.57 644.93 L652.13 643.67 L648.16 642.76 L646.41 643.92 L649.34 649.76 L647.06 650.46 L647.04 653.47 L651.60 661.44 L648.80 661.67 L643.69 659.28 L639.85 658.18 L634.67 655.42 L632.49 656.03 L625.88 651.29 L623.18 651.09 L622.95 653.93 L620.11 653.49 L620.04 656.61 L619.96 659.79 L616.59 658.57 L615.35 660.23 L613.84 661.50 L609.23 658.31 L609.35 661.91 L608.85 664.71 L605.57 663.27 L604.04 664.49 L603.22 666.85 L600.65 666.40 L601.38 671.46 L602.64 677.62 L604.00 684.20 L605.30 690.94 L605.54 695.99 L601.30 692.70 L598.01 691.06 L594.84 689.51 L595.60 695.91 L592.56 694.60 L590.69 695.69 L591.97 703.76 L589.69 704.13 L586.13 701.49 L582.16 697.62 L579.24 696.13 L577.02 696.25 L572.81 691.13 L569.67 688.52 L568.09 690.07 L565.52 688.83 L564.05 690.73 L563.29 694.90 L560.49 692.83 L558.35 692.72 L556.83 694.72 L554.04 692.30 L552.49 694.20 L551.44 698.16 L549.07 697.10 L546.87 696.64 L545.80 701.06 L542.11 693.76 L540.64 696.46 L539.57 701.41 L539.05 709.84 L537.76 714.85 L536.90 723.02 L534.87 724.69 L531.65 718.28 L529.23 716.85 L527.54 721.00 L525.21 720.22 L523.08 721.15 L521.84 731.71 L519.44 730.96 L516.97 728.98 L514.48 725.93 L511.92 720.54 L509.54 716.68 L507.36 716.48 L505.06 711.01 L502.89 706.44 L500.83 707.51 L498.76 706.62 L496.64 709.47 L494.53 710.07 L492.56 706.53 L490.35 709.63 L488.24 709.72 L486.44 705.08 L484.17 707.83 L481.65 712.84 L479.59 711.86 L477.83 708.37 L475.20 712.83 L472.74 715.20 L470.68 714.20 L468.08 717.04 L464.04 728.60 L461.19 731.64 L458.81 731.60 L457.42 726.27 L455.98 721.69 L454.10 719.61 L450.69 724.70 L448.80 722.65 L446.37 722.98 L442.31 729.76 L440.06 728.99 L438.71 724.94 L438.41 717.45 L436.66 715.37 L434.29 715.44 L432.05 715.09 L430.38 712.94 L425.41 720.63 L421.99 723.36 L419.32 723.78 L416.65 724.13 L414.12 724.06 L412.00 722.90 L410.62 719.92 L408.62 718.55 L405.86 718.97 L403.06 719.42 L400.23 719.84 L397.42 720.17 L393.94 721.80 L391.97 720.25 L390.10 718.50 L387.83 717.57 L385.78 716.21 L384.46 713.51 L382.76 711.58 L380.27 711.05 L378.65 709.02 L376.70 707.57 L373.54 708.12 L371.16 707.34 L369.36 705.61 L366.12 706.14 L363.24 706.03 L361.70 703.90 L360.20 701.74 L358.01 700.58 L355.06 700.45 L353.14 698.90 L351.80 696.57 L348.73 696.52 L346.72 695.06 L344.62 693.72 L343.34 691.36 L341.00 690.30 L338.44 689.49 L336.47 687.96 L334.58 686.33 L333.14 684.21 L330.98 682.89 L329.45 680.88 L327.33 679.49 L324.66 678.66 L322.31 677.47 L321.24 675.01 L319.27 673.42 L317.67 671.49 L316.73 668.95 L315.50 666.71 L313.57 665.09 L311.72 663.40 L310.62 661.06 L308.71 659.42 L305.60 658.75 L304.38 656.51 L303.00 654.40 L300.14 653.44 L298.87 651.25 L299.65 647.55 L297.35 646.14 L294.98 644.75 L292.96 643.10 L291.71 640.91 L290.32 638.81 L288.62 636.92 L287.82 634.44 L287.27 631.83 L285.45 630.01 L282.92 628.59 L280.31 627.19 L277.94 625.61 L277.25 623.08 L275.71 621.02 L274.62 618.71 L273.55 616.39 L271.34 614.65 L269.01 612.95 L267.55 610.79 L267.47 607.99 L266.23 605.74 L264.52 603.69 L264.78 600.78 L263.60 598.50 L261.56 596.56 L260.80 594.09 L260.36 591.51 L258.07 589.62 L256.44 587.47 L255.49 585.06 L253.75 582.91 L252.64 580.54 L251.18 578.27 L252.44 575.16 L251.26 572.81 L250.73 570.27 L249.78 567.85 L250.77 564.91 L249.82 562.49 L248.89 560.06 L249.56 557.26 L248.01 554.97 L245.73 552.81 L245.05 550.30 L243.59 547.93 L242.60 545.45 L242.74 542.78 L242.25 540.22 L242.06 537.61 L241.26 535.09 L239.86 532.63 L239.02 530.09 L240.08 527.33 L239.14 524.80 L239.05 522.18 L238.90 519.56 L237.79 517.01 L236.80 514.43 L236.62 511.80 L236.43 509.17 L237.28 506.51 L236.31 503.90 L236.78 501.26 L237.57 498.63 L236.64 495.99 L237.44 493.38 L238.46 490.78 L237.79 488.13 L237.67 485.50 L236.49 482.79 L237.10 480.19 L238.12 477.63 L237.96 474.97 L239.28 472.46 L239.79 469.89 L238.69 467.11 L237.20 464.25 L236.37 461.44 L236.14 458.71 L237.11 456.17 L237.09 453.45 L238.16 450.94 L238.24 448.24 L237.38 445.34 L236.96 442.50 L237.12 439.77 L238.44 437.32 L238.91 434.66 L239.80 432.11 L242.20 429.98 L243.72 427.63 L243.74 424.86 L245.40 422.57 L246.45 420.12 L245.21 416.91 L245.56 414.20 L246.86 411.81 L245.55 408.49 L245.26 405.50 L247.12 403.30 L248.97 401.12 L249.57 398.45 L249.02 395.30 L250.38 392.92 L252.40 390.84 L251.80 387.60 L252.92 385.12 L253.82 382.53 L255.96 380.54 L256.46 377.75 L256.89 374.91 L258.04 372.42 L259.31 370.00 L261.10 367.87 L262.00 365.24 L263.77 363.10 L264.75 360.51 L265.03 357.48 L265.70 354.66 L268.18 352.97 L269.36 350.47 L270.95 348.22 L273.44 346.58 L275.41 344.62 L276.68 342.18 L278.05 339.79 L280.25 338.01 L281.49 335.53 L281.64 332.20 L283.67 330.29 L285.56 328.28 L285.95 325.05 L287.98 323.15 L291.93 322.88 L292.93 320.13 L293.89 317.32 L295.24 314.83 L297.25 312.92 L299.07 310.85 L300.75 308.63 L303.18 307.14 L305.70 305.77 L307.20 303.38 L308.23 300.47 L309.18 297.44 L310.38 294.64 L312.86 293.22 L314.67 291.06 L316.91 289.38 L319.06 287.60 L320.42 284.87 L321.73 282.04 L323.72 280.03 L326.59 279.12 L328.69 277.24 L330.49 274.95 L333.60 274.43 L335.71 272.56 L337.35 270.03 L339.80 268.62 L342.38 267.41 L343.88 264.58 L345.82 262.38 L348.19 260.83 L350.08 258.50 L352.27 256.64 L354.44 254.72 L357.96 255.11 L360.12 253.17 L362.72 252.00 L365.13 250.50 L368.42 250.66 L370.70 248.94 L373.16 247.53 L376.22 247.36 L378.29 245.17 L380.12 242.41 L382.62 241.05 L384.81 238.95 L387.24 237.39 L390.08 236.78 L392.70 235.64 L395.43 234.79 L397.89 233.25 L400.22 231.30 L402.72 229.79 L405.84 230.02 L408.36 228.54 L411.10 227.70 L413.86 226.93 L416.33 225.22 L418.85 223.59 L421.60 222.73 L424.35 221.89 L427.38 222.08 L429.96 220.55 L432.87 220.32 L435.83 220.35 L438.44 218.88 L441.43 219.10 L444.42 219.44 L447.34 219.52 L451.12 224.44 L455.13 231.51 L458.04 232.46 L461.34 236.28 L464.71 241.26 L467.29 240.87 L469.70 239.01 L471.86 234.48 L474.75 236.61 L477.52 237.94 L479.89 234.40 L482.73 237.04 L485.35 236.67 L487.76 231.69 L490.50 233.20 L493.28 237.16 L495.81 231.15 L498.53 236.38 L501.16 237.76 L503.90 229.98 L506.77 222.80 L509.61 220.91 L512.70 214.37 L515.51 215.29 L517.95 221.71 L520.67 222.82 L523.76 219.29 L526.72 217.82 L529.61 217.51 L533.43 209.10 L536.56 207.72 L539.11 210.79 L541.11 217.35 L543.55 220.26 L545.61 225.13 L548.10 227.05 L549.43 235.01 L551.97 236.05 L554.69 236.22 L556.99 238.29 L560.24 236.09 L563.13 235.66 L565.03 239.25 L568.34 237.22 L570.46 239.79 L572.30 243.17 L576.52 238.26 L580.07 235.94 L581.19 241.58 L584.39 240.51 L586.02 244.23 L587.46 248.30 L591.41 245.17 L595.78 241.18 L600.95 235.36 L606.10 230.00 L610.64 226.50 L611.08 233.14 L612.37 237.46 L614.32 240.12 L619.52 235.52 L620.97 239.28 L624.15 239.30 L630.13 233.63 L632.20 236.12 L632.89 241.22 L633.64 246.05 L634.81 249.92 L637.39 251.14 L636.54 258.41 L637.45 262.38 L640.30 262.96 L640.76 267.52 L643.65 268.01 L647.68 266.74 L649.03 269.74 L650.88 271.91 L655.95 269.29 L656.38 273.57 L659.43 274.03 L664.49 271.74 L664.60 276.33 L666.30 278.70 L671.56 276.38 L669.83 283.16 L671.94 284.93 L678.67 281.04 L685.07 277.78 L688.49 278.21 L694.17 276.11 L697.05 277.33 L695.62 283.34 L695.85 287.40 L701.72 285.38 L704.17 287.08 L706.53 288.89 L716.14 283.44 L718.72 285.19 L718.97 289.21 L716.91 295.33 L717.08 299.24 L714.29 305.75 L715.37 308.66 L713.15 314.42 L712.60 318.60 L713.40 321.57 L715.48 323.47 L719.29 323.98 L721.87 325.53 L721.28 329.55 L725.49 329.87 L727.34 332.01 L726.18 336.34 L731.83 335.76 L735.91 336.39 L737.28 338.93 L737.61 342.15 L741.66 342.93 L745.90 343.64 L747.61 346.01 L751.66 346.96 L763.93 343.09 L766.75 345.00 L767.55 348.10 L764.65 353.23 L763.28 357.41 L762.23 361.35 L768.07 361.68 L768.16 365.01 L768.52 368.17 L777.19 367.34 L778.31 370.21 L776.22 374.53 L773.73 378.95 L771.87 383.01 L768.88 387.47 L767.79 391.06 L764.77 395.36 L766.95 397.57 L768.52 400.04 L771.79 401.91 L777.87 402.84 L775.81 406.64 L774.65 410.09 L779.08 411.72 L775.55 415.86 L774.44 419.19 L781.51 420.16 L781.61 423.16 L779.03 426.86 L785.35 428.24 L780.88 432.34 L779.91 435.53 L786.83 436.95 L791.43 438.99 L797.71 440.78 L804.31 442.62 L806.37 445.40 L802.22 449.25 L799.49 452.78 L799.79 455.80 L806.00 458.01 L805.37 461.20 L808.92 463.89 L817.34 466.12 L815.40 469.51 L810.11 473.15 L807.75 476.45 L802.41 479.90 L801.17 483.01 L792.94 486.41 L790.30 489.44 L791.34 492.32 L789.92 495.25 L794.07 498.13 L795.22 501.07 L791.98 503.98 L796.41 507.01 L794.96 509.92 L790.63 512.69 L792.08 515.68 L796.20 518.87 L792.56 521.58 L791.59 524.44 L792.18 527.44 L791.41 530.31 L794.22 533.58 L797.83 537.01 L805.92 541.12 L812.50 545.20 L816.15 548.96 L810.60 551.28 L807.51 553.94 L804.50 556.55 L809.36 560.66 L806.27 563.24 L806.98 566.60 L812.86 571.15 L811.54 574.14 L806.95 576.30 L801.79 578.23 L797.92 580.41 L796.60 583.25 L790.37 584.64 L786.35 586.58 L786.47 589.75 L784.54 592.29 L785.80 595.86 L785.99 599.12 L783.26 601.36 L781.30 603.84 L779.30 606.29 L776.35 608.34 L776.99 611.80 L777.28 615.16 L777.20 618.39 L775.56 620.96 L779.18 625.89 L771.28 625.61 L770.57 628.58 L776.59 634.85 L781.10 640.54 L781.55 644.30 L785.41 649.91 L783.37 652.47 L777.03 652.65 L772.79 653.89 L776.63 659.72 L774.61 662.24 L773.50 665.30 L781.16 673.79 L780.07 677.01 L775.82 678.21 L768.94 677.60 L765.25 678.99 L758.72 678.38 L754.43 679.21 L748.04 678.44 L744.51 679.64 L742.00 681.55 L740.65 684.32 L741.35 688.72 L740.45 691.92 L736.15 692.38 L737.44 697.42 L734.02 698.57 L729.45 698.67 L730.01 703.22 L731.04 708.28 L726.90 708.69 L722.81 709.09 L726.14 716.50 L725.20 719.96 L723.83 723.04 L725.75 729.50 L730.77 739.34 L728.51 741.79 L725.70 743.66 L720.42 742.78 L714.65 741.22 L710.98 741.94 L713.54 749.87 L708.08 748.47 L705.96 750.99 L708.38 759.18 L705.23 760.56 L700.10 759.34 L694.45 757.29 L689.08 755.46 L683.99 753.85 L680.41 754.22 L675.35 752.41 L673.74 755.51 L671.79 758.15 L670.27 761.50 L670.14 767.11 L665.78 766.10 L662.71 767.08 L661.36 770.92 L657.00 769.70 L654.94 772.40 L654.48 778.02 L651.31 778.84 L646.63 776.79 L645.98 782.36 L641.57 780.66 L637.72 779.97 L637.71 787.15 L637.55 794.34 L636.16 799.12 L635.65 806.08 L632.20 806.53 L626.79 802.27 L623.34 802.49 L621.85 807.61 L619.39 810.41 L616.35 811.79 L616.45 821.85 L613.50 823.77 L609.28 822.03 L604.17 817.35 L600.42 816.57 L596.15 813.97 L592.25 812.38 L587.40 807.23 L584.34 808.14 L581.09 808.33 L577.83 808.45 L575.14 810.84 L572.17 812.22 L568.72 811.45 L566.02 814.10 L562.55 813.11 L558.82 810.57 L556.60 816.13 L554.16 820.98 L549.94 815.14 L546.97 816.88 L543.54 815.43 L540.01 812.91 L537.35 817.35 L534.71 822.64 L532.25 830.88 L529.52 837.82 L526.49 842.60 L522.69 837.33 L519.14 834.40 L515.74 833.43 L512.60 838.76 L509.14 836.53 L505.82 838.80 L502.48 845.40 L499.03 844.09 L495.64 839.57 L492.33 835.67 L489.07 832.75 L485.72 833.14 L482.80 825.22 L479.73 822.11 L476.48 822.39 L473.52 818.94 L470.22 819.90 L466.78 821.88 L463.69 820.47 L460.64 818.80 L456.72 823.90 L454.04 819.56 L450.46 821.59 L446.60 825.04 L444.04 820.55 L441.13 818.41 L436.98 822.73 L435.13 815.44 L431.86 815.30 L427.13 821.60 L422.16 828.26 L418.27 829.94 L413.74 833.87 L410.09 834.17 L408.25 827.89 L405.70 824.46 L400.73 829.24 L397.50 828.05 L394.02 827.66 L387.33 836.79 L383.74 836.31 L381.32 832.51 L380.10 825.61 L377.77 821.97 L376.84 814.88 L374.22 812.34 L373.07 806.32 L371.08 802.54 L367.77 801.88 L364.28 801.62 L360.54 801.82 L357.54 800.38 L355.10 797.80 L351.45 797.70 L348.92 795.35 L348.49 789.01 L344.64 789.29 L337.66 795.17 L337.02 789.44 L335.53 785.38 L328.28 791.19 L324.00 791.74 L321.48 789.32 L317.36 789.49 L306.61 799.83 L303.24 798.48 L300.94 795.49 L300.79 789.42 L299.59 785.02 L298.41 780.69 L292.18 783.34 L290.32 779.96 L287.64 777.71 L279.84 782.02 L277.32 779.45 L276.83 774.38 L277.53 768.00 L277.55 762.59 L277.72 757.13 L277.03 752.78 L277.15 747.61 L273.66 746.48 L271.99 743.37 L266.69 744.08 L260.73 745.36 L261.41 739.82 L259.66 736.79 L253.99 737.57 L255.28 731.65 L253.27 728.92 L246.97 730.09 L245.54 726.79 L245.57 722.24 L239.38 723.09 L241.41 716.91 L240.37 713.40 L232.89 715.10 L227.34 715.11 L220.89 715.71 L213.97 716.52 L210.83 714.38 L212.77 708.53 L213.21 703.86 L210.70 701.32 L204.53 701.26 L203.09 697.92 L197.86 697.08 L189.56 698.09 L189.90 693.54 L192.93 687.41 L193.40 682.94 L196.75 676.85 L194.87 673.88 L199.64 667.21 L201.26 662.41 L197.96 660.31 L197.11 656.90 L192.92 655.20 L191.72 651.95 L191.40 648.29 L187.80 646.20 L187.92 642.36 L190.52 637.45 L186.52 635.49 L182.27 633.57 L183.83 629.21 L181.73 626.37 L179.94 623.39 L180.21 619.63 L174.10 618.21 L169.83 616.04 L160.44 615.54 L152.60 614.34 L148.82 611.70 L152.55 606.70 L154.00 602.49 L154.88 598.48 L149.09 596.35 L150.46 592.22 L146.95 589.38 L140.63 587.17 L140.49 583.40 L143.46 578.97 L147.46 574.39 L150.06 570.19 L150.02 566.57 L155.04 562.05 L158.37 557.93 L155.73 554.84 L156.89 551.14 L154.07 548.03 L151.84 544.80 L153.81 541.03 L152.01 537.72 L150.43 534.35 L153.73 530.54 L150.35 527.32 L144.36 524.21 L148.71 520.38 L150.38 516.78 L146.73 513.42 L153.16 509.70 L152.16 506.25 L145.56 502.82 L139.51 499.27 L135.35 495.61 L129.97 491.84 L129.56 488.13 L135.31 484.66 L138.73 481.18 L131.84 477.13 L133.38 473.54 L132.70 469.80 L122.50 465.16 L122.18 461.31 L125.83 457.90 L131.60 454.82 L134.21 451.42 L139.97 448.52 L143.43 445.37 L147.90 442.44 L150.63 439.30 L153.96 436.30 L153.45 432.62 L151.59 428.63 L152.22 425.13 L154.51 422.00 L152.70 417.94 L154.58 414.72 L158.55 412.07 L156.38 407.84 L153.24 403.27 L157.70 400.81 L160.72 398.00 L154.42 392.33 L154.20 388.45 L154.41 384.69 L149.60 379.18 L140.61 372.05 L141.93 368.47 L144.24 365.26 L149.31 363.16 L155.75 361.69 L158.49 358.81 L153.07 352.49 L158.48 350.74 L158.89 346.84 L153.47 340.22 L156.10 337.24 L161.59 335.68 L168.03 334.68 L170.49 331.78 L166.86 325.70 L167.97 322.03 L169.98 318.84 L160.69 309.29 L159.55 304.15 L161.32 300.63 L163.35 297.27 L165.29 293.85 L167.47 290.58 L169.67 287.32 L171.74 283.98 L173.77 280.61 L176.25 277.54 L178.56 274.36 L180.76 271.11 L183.69 268.39 L187.15 266.08 L190.20 263.49 L192.66 260.47 L194.97 257.32 L198.48 255.16 L201.27 252.43 L203.46 249.19 L206.55 246.73 L209.26 243.95 L210.45 239.81 L213.02 236.89 L215.55 233.92 L216.76 229.69 L219.13 226.54 L222.51 224.37 L225.82 222.15 L228.10 218.90 L230.13 215.35 L232.76 212.43 L236.02 210.17 L237.93 206.43 L240.91 203.85 L244.04 201.46 L247.47 199.43 L249.82 196.11 L252.39 193.02 L255.26 190.29 L258.20 187.65 L261.67 185.68 L264.44 182.79 L267.72 180.59 L270.86 178.19 L273.40 174.93 L276.06 171.80 L280.03 170.59 L283.17 168.16 L286.51 166.02 L290.26 164.54 L293.95 162.99 L297.27 160.83 L300.68 158.84 L304.53 157.61 L307.98 155.72 L310.53 152.16 L314.15 150.52 L317.86 149.08 L320.53 145.60 L324.25 144.15 L328.85 144.57 L332.03 142.06 L335.22 139.52 L338.98 138.22 L342.86 137.22 L346.25 135.08 L349.76 133.20 L353.74 132.50 L357.33 130.81 L360.45 127.85 L363.66 125.05 L366.94 122.36 L370.37 120.01 L374.44 119.52 L378.05 117.68 L381.97 116.74 L385.78 115.51 L389.29 113.20 L392.80 110.77 L396.67 109.63 L400.82 109.57 L404.63 108.16 L408.47 106.87 L412.68 107.21 L416.55 106.10 L420.27 104.14 L424.28 103.62 L428.35 103.46 L432.02 101.03 L435.93 99.82 L439.93 99.19 L443.81 97.69 L447.72 96.20 L451.77 95.80 L456.04 97.37 L459.98 96.06 L464.04 95.97 L468.08 95.60 L472.25 97.05 L476.22 95.85 L480.28 95.89 L484.37 96.85 L488.37 95.58 L492.38 93.95 L496.44 93.57 L500.51 92.59 L504.58 92.37 L508.65 92.83 L512.72 93.02 L516.78 93.25 L520.88 92.85 L525.01 92.20 L529.11 92.08 L533.12 93.27 L537.22 93.25 L541.25 93.95 L545.30 94.46 L549.46 94.08 L553.63 93.74 L557.68 94.34 L561.69 95.21 L565.62 96.57 L569.76 96.62 L573.67 97.97 L577.62 99.08 L581.78 99.11 L585.62 100.72 L589.55 101.85 L593.78 101.70 L597.80 102.49 L602.12 102.14 L605.90 103.88 L609.68 105.59 L613.73 106.35 L617.32 108.63 L621.19 109.93 L625.62 109.50 L630.03 109.26 L634.33 109.40 L638.49 110.03 L642.11 112.17 L646.16 113.15 L649.77 115.28 L653.82 116.26 L658.21 116.47 L662.47 117.05 L666.34 118.58 L669.86 120.90 L673.78 122.32 L677.42 124.35 L680.41 127.71 L683.91 129.96 L687.75 131.52 L690.98 134.27 L694.55 136.34 L699.30 136.26 L703.00 138.14 L706.46 140.44 L711.49 140.06 L715.53 141.46 L718.37 144.83 L721.58 147.54 L725.40 149.30 L729.77 150.24 L732.98 152.97 L736.16 155.73 L740.53 156.76 L743.96 159.17 L747.44 161.52 L750.06 165.02 L754.07 166.65 L757.95 168.49 L761.20 171.15 L764.48 173.77 L767.54 176.66 L770.93 179.15 L773.89 182.15 L777.43 184.48 L781.41 186.33 L785.13 188.50 L787.30 192.37 L790.68 194.92 L793.60 197.96 L795.84 201.69 L798.41 205.06 L801.78 207.64 L804.66 210.70 L807.05 214.21 L810.50 216.74 L814.45 218.84 L816.99 222.22 L819.71 225.45 L823.56 227.71 L825.82 231.33 L826.65 236.09 L829.99 238.80 L833.40 241.48 L836.57 244.38 L838.84 247.95 L841.32 251.37 L844.19 254.51 L846.05 258.37 L847.63 262.40 L850.97 265.23 L854.34 268.07 L857.95 270.79 L861.21 273.76 L862.57 277.93 L865.35 281.22 L867.26 285.04 L869.44 288.69 L872.58 291.81 L875.85 294.89 L877.88 298.66 L879.04 302.88 L881.41 306.47 L883.63 310.14 L884.48 314.49 L886.41 318.30 L889.25 321.69 L890.88 325.65 L892.07 329.80 L895.34 333.06 L897.46 336.83 L899.08 340.81 L901.39 344.52 L903.92 348.17 L905.24 352.28 L904.80 357.01 L907.14 360.75 L908.33 364.89 L909.52 369.02 L909.12 373.64 L911.35 377.45 L912.22 381.66 L912.36 386.07 L914.53 389.92 L917.03 393.71 L918.42 397.80 L920.25 401.80 L921.47 405.95 L922.09 410.23 L922.91 414.47 L923.69 418.71 L924.88 422.88 L926.38 427.00 L927.49 431.21 L927.29 435.62 L928.21 439.85 L928.75 444.14 L929.34 448.42 L930.56 452.64 L931.66 456.88 L932.19 461.19 L932.29 465.54 L932.03 469.90 L933.04 474.18 L932.77 478.54 L932.52 482.88 L933.32 487.19 L932.31 491.54 L931.76 495.87 L953.19 500.00 L953.37 495.47 L951.46 490.97 L949.24 486.52 L949.96 481.99 L949.31 477.52 L948.01 473.09 L949.01 468.52 L948.20 464.07 L946.76 459.68 L945.51 455.30 L945.47 450.80 L944.85 446.36 L944.01 441.95 L943.51 437.50 L942.52 433.12 L939.70 429.04 L940.01 424.47 L939.90 419.95 L939.16 415.54 L937.75 411.26 L936.86 406.89 L933.94 402.96 L932.31 398.78 L931.97 394.29 L930.82 389.99 L931.45 385.22 L931.13 380.68 L928.51 376.78 L926.37 372.77 L924.83 368.58 L920.25 365.38 L918.92 361.18 L917.99 356.83 L916.66 352.61 L913.56 349.04 L912.70 344.66 L910.89 340.63 L910.93 335.87 L909.46 331.69 L908.03 327.49 L908.50 322.45 L905.11 319.09 L901.91 315.68 L900.57 311.42 L898.25 307.62 L893.47 305.05 L892.27 300.74 L891.18 296.35 L887.02 293.57 L884.97 289.69 L883.95 285.23 L882.35 281.08 L879.73 277.51 L877.18 273.90 L874.12 270.63 L870.05 268.00 L868.70 263.68 L866.02 260.20 L864.79 255.75 L863.66 251.21 L860.02 248.37 L856.28 245.65 L853.99 241.90 L851.01 238.66 L847.91 235.51 L845.67 231.72 L844.20 227.31 L842.34 223.16 L836.82 222.01 L833.13 219.41 L831.94 214.69 L828.72 211.69 L824.86 209.28 L823.71 204.42 L821.43 200.56 L816.94 198.76 L813.44 196.06 L810.85 192.49 L806.86 190.31 L802.58 188.46 L799.79 185.08 L796.56 182.17 L792.02 180.70 L790.03 176.43 L787.32 172.93 L783.98 170.14 L780.11 167.97 L776.49 165.54 L771.48 164.83 L767.99 162.29 L764.70 159.50 L761.24 156.92 L758.70 153.11 L754.97 150.88 L750.87 149.18 L746.42 148.02 L743.98 143.99 L739.50 142.92 L735.43 141.27 L733.07 137.01 L729.87 134.01 L725.78 132.40 L721.28 131.51 L717.62 129.26 L715.18 124.88 L710.92 123.64 L706.91 121.96 L704.09 118.10 L700.08 116.44 L695.21 116.46 L691.83 113.59 L687.68 112.26 L682.55 113.03 L678.75 111.07 L675.01 108.94 L670.25 109.13 L666.41 107.29 L662.83 104.77 L658.87 103.15 L655.15 100.93 L650.94 99.97 L646.62 99.32 L642.28 98.79 L638.57 96.50 L634.59 94.94 L631.00 92.17 L627.40 89.30 L623.15 88.52 L618.42 89.42 L614.40 87.92 L610.18 87.15 L605.65 87.62 L602.00 84.61 L597.88 83.45 L593.81 82.05 L589.33 82.52 L584.78 83.47 L580.76 81.87 L576.53 81.34 L572.16 81.62 L568.14 79.92 L563.83 79.93 L559.50 80.23 L555.17 80.59 L551.05 79.45 L546.83 79.06 L542.59 78.87 L538.38 78.44 L534.14 78.39 L529.76 80.27 L525.64 78.86 L521.46 77.92 L517.24 77.76 L512.99 78.19 L508.78 78.02 L504.53 80.19 L500.33 80.74 L496.13 79.90 L491.94 80.13 L487.68 78.22 L483.42 77.38 L479.28 79.14 L475.13 80.41 L470.95 80.91 L467.04 84.69 L462.87 84.84 L458.66 84.65 L454.49 84.95 L450.54 87.02 L446.30 86.66 L442.24 87.74 L437.85 86.57 L433.70 87.05 L429.52 87.41 L424.97 85.83 L421.15 88.25 L417.37 90.71 L413.15 90.93 L409.15 92.19 L405.77 96.12 L401.52 96.16 L397.27 96.35 L393.81 99.55 L389.77 100.46 L385.37 100.15 L381.20 100.73 L377.41 102.58 L373.45 103.86 L369.86 106.23 L366.52 109.29 L362.31 109.77 L358.49 111.37 L354.10 111.44 L349.50 111.06 L345.68 112.73 L342.43 115.79 L338.42 116.97 L334.50 118.38 L331.10 120.97 L327.52 123.13 L323.29 123.86 L319.15 124.86 L316.86 129.62 L313.41 131.95 L308.63 131.69 L305.26 134.20 L302.03 136.93 L297.25 136.86 L293.80 139.20 L291.21 143.01 L287.77 145.31 L283.64 146.48 L280.57 149.39 L277.23 151.84 L273.00 152.92 L270.18 156.16 L268.12 160.48 L263.73 161.37 L260.49 163.94 L257.49 166.83 L254.41 169.60 L251.02 171.94 L249.11 176.20 L245.51 178.25 L242.39 180.92 L239.63 184.02 L235.81 185.83 L233.13 189.02 L231.01 192.81 L228.44 196.07 L224.38 197.66 L221.97 201.08 L218.77 203.64 L215.19 205.82 L211.71 208.11 L209.70 211.90 L207.69 215.65 L204.83 218.55 L200.56 220.15 L198.35 223.68 L195.20 226.36 L190.89 228.01 L189.56 232.30 L188.27 236.59 L184.14 238.46 L182.93 242.76 L183.02 248.04 L180.01 250.84 L177.73 254.20 L177.13 258.81 L175.96 262.94 L174.29 266.69 L172.91 270.61 L170.80 274.01 L169.11 277.69 L167.65 281.50 L165.66 284.94 L163.81 288.48 L162.41 292.28 L160.40 295.70 L158.52 299.19 L157.03 302.90 L152.29 304.78 L139.77 302.46 L137.08 305.68 L133.36 308.38 L127.72 310.15 L126.27 314.09 L128.11 319.63 L131.61 325.85 L132.65 330.82 L124.54 331.61 L122.90 335.39 L124.52 340.54 L116.90 341.81 L117.76 346.62 L119.84 351.85 L123.28 357.51 L123.23 361.79 L121.32 365.37 L111.03 366.08 L104.48 368.23 L102.45 371.96 L100.39 375.69 L92.16 377.59 L93.87 382.51 L95.67 387.40 L89.98 390.23 L86.66 393.76 L90.10 399.00 L88.93 403.06 L85.53 406.62 L87.36 411.36 L85.14 415.22 L80.86 418.70 L80.60 422.99 L82.12 427.58 L85.06 432.36 L89.99 437.37 L92.64 441.93 L98.95 446.92 L100.55 451.19 L105.67 455.81 L108.19 460.06 L107.56 463.95 L97.34 467.07 L96.00 471.03 L94.47 474.99 L88.42 478.75 L91.62 483.00 L96.93 487.26 L98.12 491.32 L94.29 495.30 L92.17 499.35 L86.99 503.47 L80.61 507.72 L80.22 511.93 L86.21 515.90 L82.55 520.22 L84.89 524.27 L88.33 528.21 L84.31 532.66 L82.92 536.97 L87.42 540.73 L87.74 544.87 L88.04 549.01 L90.38 552.89 L90.42 557.05 L88.25 561.56 L90.11 565.48 L90.01 569.71 L93.18 573.36 L99.14 576.43 L101.63 580.09 L105.60 583.41 L109.57 586.66 L115.84 589.30 L119.40 592.50 L114.63 597.75 L114.67 601.85 L118.64 604.89 L115.01 610.04 L117.60 613.45 L122.26 616.19 L128.36 618.39 L126.34 623.17 L121.85 628.85 L116.55 634.95 L113.05 640.55 L111.84 645.40 L115.26 648.52 L115.94 652.69 L118.02 656.31 L123.34 658.54 L121.75 663.68 L120.10 668.93 L127.54 670.10 L130.36 673.30 L130.80 677.62 L133.36 680.92 L135.97 684.19 L135.95 688.79 L138.24 692.22 L139.05 696.44 L145.02 697.82 L154.63 697.01 L156.77 700.37 L163.78 700.82 L168.23 702.68 L175.23 702.89 L178.89 705.10 L174.50 712.52 L172.87 718.28 L175.83 721.02 L173.03 727.75 L173.96 731.98 L180.21 732.38 L186.60 732.56 L189.08 735.58 L188.47 740.99 L188.48 746.00 L187.98 751.50 L185.78 758.49 L189.68 760.53 L196.22 760.27 L194.62 766.98 L200.04 767.58 L203.04 770.28 L202.42 776.34 L206.21 778.34 L212.79 777.61 L212.63 783.38 L216.82 784.89 L222.90 784.40 L222.05 791.04 L223.10 795.81 L227.05 797.50 L229.47 800.84 L234.92 800.78 L238.90 802.30 L244.67 801.67 L250.39 800.96 L255.91 800.38 L262.15 798.75 L266.62 799.23 L264.95 807.66 L269.06 808.64 L273.41 809.22 L273.43 815.76 L278.07 815.92 L283.44 814.93 L289.50 812.77 L293.01 814.29 L295.69 817.08 L292.14 829.79 L294.12 834.01 L298.14 834.93 L300.40 838.80 L299.80 847.72 L304.57 847.44 L309.60 846.56 L309.57 854.98 L311.94 859.13 L318.57 855.07 L322.65 855.83 L325.71 858.61 L330.20 858.44 L334.02 859.65 L336.78 863.17 L340.34 864.95 L344.30 865.83 L349.80 862.94 L355.84 858.44 L359.96 858.51 L365.77 854.05 L370.11 853.21 L375.50 849.30 L379.58 848.84 L382.97 850.34 L383.36 861.15 L386.72 863.14 L389.96 865.56 L392.05 872.07 L396.77 869.58 L401.86 865.39 L405.47 866.54 L408.31 870.83 L411.92 872.17 L413.88 880.82 L416.40 887.70 L420.11 889.33 L425.30 883.46 L428.41 888.15 L432.48 887.81 L437.02 884.42 L440.26 888.98 L443.99 890.70 L448.55 886.33 L451.78 892.01 L455.96 890.19 L460.07 888.60 L463.65 892.28 L467.54 893.13 L471.73 889.84 L475.55 891.42 L479.62 888.65 L483.77 882.60 L487.63 881.84 L491.51 879.15 L495.34 876.39 L499.12 870.41 L502.79 867.22 L506.58 873.62 L510.35 874.84 L513.96 871.02 L517.93 876.39 L521.66 875.55 L525.08 870.31 L528.33 864.24 L532.38 868.64 L536.64 874.20 L541.10 880.50 L545.55 885.51 L550.02 889.84 L553.21 884.24 L556.89 882.62 L560.99 883.78 L563.83 877.27 L568.27 880.35 L572.98 884.40 L575.96 879.37 L579.40 876.93 L583.36 877.01 L586.72 874.38 L590.54 873.83 L594.62 874.29 L598.02 872.04 L601.60 870.55 L604.87 868.00 L606.11 858.72 L609.25 856.18 L611.42 850.71 L614.13 847.18 L615.56 840.04 L618.18 836.65 L621.95 836.58 L628.54 843.98 L632.23 843.35 L636.46 844.04 L641.70 847.08 L644.16 843.25 L645.19 836.25 L647.88 833.28 L653.15 836.05 L657.02 835.60 L662.75 838.98 L669.29 843.75 L670.88 838.40 L672.86 833.97 L678.75 837.05 L679.92 831.23 L682.61 828.31 L688.45 830.96 L692.22 829.87 L693.62 824.77 L698.12 824.88 L700.97 822.27 L702.89 818.20 L707.60 818.52 L711.37 817.32 L714.63 815.33 L718.11 813.65 L718.88 808.14 L720.79 804.35 L721.16 798.52 L721.79 793.21 L722.31 787.86 L721.58 781.06 L722.98 777.09 L730.62 780.78 L732.70 777.62 L733.05 772.45 L740.03 774.99 L741.13 770.74 L741.16 765.38 L740.30 759.18 L742.25 756.10 L745.51 754.40 L754.04 758.03 L760.94 759.79 L763.46 757.10 L766.95 755.34 L775.22 758.04 L774.78 752.51 L775.19 747.86 L781.67 748.64 L785.56 747.03 L783.77 740.57 L785.56 737.22 L789.39 735.55 L789.37 730.76 L793.58 729.35 L797.26 727.48 L801.08 725.66 L802.01 721.68 L801.44 716.65 L798.00 709.69 L796.72 704.39 L793.97 698.19 L793.96 693.93 L791.52 688.17 L791.36 683.97 L793.46 681.21 L804.19 683.66 L806.80 681.07 L809.98 678.80 L816.34 678.28 L815.02 673.40 L811.83 667.60 L812.82 664.13 L818.32 662.97 L819.60 659.61 L826.69 659.09 L836.25 659.61 L837.63 656.15 L832.38 649.71 L839.37 648.79 L839.49 644.81 L842.08 641.89 L844.80 638.99 L846.35 635.61 L844.92 631.09 L845.11 627.22 L844.88 623.23 L843.84 619.00 L846.65 616.10 L850.85 613.62 L849.95 609.47 L850.97 605.95 L849.85 601.81 L846.08 596.97 L844.90 592.93 L843.22 588.80 L840.80 584.55 L836.12 579.83 L834.36 575.89 L841.46 573.92 L842.72 570.61 L840.04 566.52 L845.90 564.08 L844.87 560.33 L841.71 556.26 L836.96 552.02 L841.30 549.21 L847.78 546.59 L855.63 544.03 L861.34 541.07 L863.38 537.63 L861.80 533.81 L863.46 530.30 L862.22 526.56 L859.51 522.75 L863.60 519.36 L866.06 515.82 L860.29 511.96 L858.73 508.32 L861.73 504.77 L858.31 501.14 L860.16 497.55 L862.76 493.90 L861.66 490.30 L862.02 486.67 L859.01 483.18 L849.65 480.11 L847.26 476.76 L841.48 473.72 L838.31 470.56 L832.88 467.67 L830.82 464.53 L838.18 460.32 L841.94 456.40 L840.29 453.15 L846.42 448.77 L846.74 445.18 L841.11 442.56 L835.68 440.02 L834.77 436.72 L837.78 432.65 L840.78 428.50 L844.18 424.19 L848.64 419.54 L845.70 416.57 L840.86 414.12 L844.89 409.43 L839.93 407.09 L838.87 403.72 L843.77 398.61 L839.60 396.13 L834.05 394.17 L836.78 389.58 L833.92 386.81 L829.01 384.79 L831.60 380.15 L832.98 375.88 L830.83 372.90 L830.19 369.34 L825.91 367.24 L822.80 364.73 L817.70 363.12 L812.58 361.60 L807.75 360.04 L801.58 359.19 L797.89 357.27 L803.68 350.74 L800.33 348.64 L797.68 346.23 L800.50 340.95 L796.36 339.32 L791.28 338.29 L785.10 337.96 L783.16 335.30 L782.64 331.80 L791.00 322.86 L791.71 318.41 L789.77 315.57 L789.09 311.91 L790.25 307.00 L786.19 305.54 L783.74 303.03 L784.56 298.22 L786.22 292.70 L780.27 292.71 L777.56 290.39 L777.83 285.79 L772.79 285.29 L771.72 281.70 L772.99 276.15 L770.26 273.83 L767.14 271.86 L761.27 272.31 L753.52 274.57 L749.92 273.26 L742.25 275.75 L737.95 275.28 L732.03 276.44 L728.56 275.33 L726.69 272.66 L731.19 263.47 L729.27 260.69 L728.35 256.83 L729.12 251.07 L724.15 251.53 L718.05 253.38 L716.16 250.53 L715.63 246.05 L713.76 243.09 L714.57 236.81 L716.70 228.70 L713.28 227.44 L706.53 230.55 L706.72 224.65 L703.48 223.25 L698.43 224.39 L698.09 218.97 L695.85 216.15 L690.83 217.43 L691.24 210.62 L686.93 210.91 L683.33 210.16 L682.69 204.68 L679.57 203.11 L674.70 204.53 L672.66 201.22 L667.71 202.96 L661.91 206.41 L658.44 205.78 L653.88 207.28 L649.48 208.61 L643.80 212.65 L639.62 213.89 L639.96 205.75 L637.36 203.61 L632.65 206.11 L632.34 198.81 L628.77 198.79 L623.67 202.52 L618.46 206.81 L617.40 200.85 L616.52 194.13 L615.65 187.05 L614.17 181.28 L612.53 175.68 L607.62 179.52 L604.05 179.57 L600.47 179.75 L595.63 184.13 L593.62 179.25 L591.51 174.39 L587.35 176.83 L584.09 176.06 L581.76 171.57 L577.53 174.71 L574.94 171.05 L572.37 166.96 L568.51 168.80 L564.97 169.28 L561.56 169.16 L556.56 178.21 L552.80 180.92 L549.04 184.02 L545.39 186.96 L541.42 192.70 L538.12 194.11 L535.28 191.81 L533.07 183.11 L529.97 182.07 L527.00 179.24 L524.08 175.07 L520.66 177.52 L517.12 183.12 L513.93 183.38 L510.91 179.00 L507.72 177.98 L504.60 171.35 L501.34 164.20 L497.99 166.29 L494.73 171.08 L491.29 165.27 L488.10 169.83 L484.86 171.14 L481.33 167.05 L478.03 167.64 L475.07 172.71 L471.56 170.22 L468.36 171.49 L465.52 175.98 L461.82 172.39 L458.37 171.38 L455.19 172.58 L452.74 178.64 L450.18 183.27 L447.38 185.99 L445.42 193.13 L443.27 198.56 L440.42 199.96 L437.90 202.85 L435.34 205.34 L432.12 204.79 L429.33 206.17 L426.66 207.95 L423.29 206.95 L420.56 208.45 L417.90 210.14 L415.20 211.64 L412.15 211.96 L409.30 212.92 L406.53 214.13 L403.62 214.92 L400.81 216.00 L398.84 219.42 L395.57 219.18 L392.46 219.44 L389.76 220.77 L387.12 222.26 L384.38 223.47 L382.58 226.86 L379.86 228.08 L376.84 228.60 L374.20 229.99 L370.62 229.41 L367.45 229.76 L365.71 233.00 L363.29 234.83 L360.96 236.81 L360.06 241.40 L357.15 242.21 L354.30 243.17 L351.87 244.86 L350.10 247.65 L346.90 248.03 L344.82 250.28 L341.29 250.21 L338.70 251.66 L335.86 252.73 L332.43 252.97 L330.89 255.98 L329.31 258.88 L326.60 260.17 L324.39 262.17 L324.04 266.61 L320.89 267.31 L318.20 268.64 L317.46 272.42 L314.96 273.97 L311.83 274.78 L309.28 276.32 L307.35 278.58 L305.30 280.68 L304.09 283.72 L302.90 286.74 L300.19 288.09 L298.04 290.06 L294.83 290.95 L291.97 292.23 L291.16 295.54 L290.00 298.49 L287.56 300.18 L286.15 302.86 L284.36 305.15 L282.21 307.14 L278.88 308.10 L276.12 309.59 L277.09 314.22 L276.20 317.25 L272.43 317.93 L271.31 320.75 L270.57 323.85 L266.55 324.45 L264.49 326.56 L264.40 330.10 L262.91 332.60 L260.99 334.80 L260.49 337.97 L259.98 341.10 L258.07 343.29 L256.87 345.94 L256.26 348.95 L253.59 350.69 L251.52 352.81 L250.22 355.40 L249.55 358.33 L248.62 361.11 L249.76 364.98 L248.28 367.42 L246.70 369.80 L245.56 372.42 L243.01 374.34 L242.03 377.04 L241.93 380.15 L241.82 383.22 L239.21 385.17 L239.85 388.54 L238.72 391.14 L235.80 393.01 L234.07 395.39 L234.30 398.54 L234.45 401.63 L232.14 403.81 L230.05 406.09 L230.42 409.23 L229.43 411.90 L226.45 413.95 L226.59 416.99 L227.73 420.30 L225.56 422.63 L225.78 425.65 L227.65 429.07 L226.77 431.75 L226.02 434.47 L227.47 437.69 L226.35 440.31 L224.89 442.86 L224.35 445.62 L223.11 448.25 L223.34 451.15 L223.96 454.10 L223.95 456.93 L222.67 459.57 L222.29 462.34 L220.10 464.89 L218.44 467.54 L218.76 470.42 L220.70 473.45 L219.80 476.19 L220.25 479.04 L220.91 481.90 L219.27 484.61 L219.13 487.41 L218.62 490.21 L220.97 493.08 L222.83 495.90 L221.43 498.67 L222.21 501.45 L223.34 504.21 L221.57 507.02 L222.35 509.78 L223.31 512.52 L224.17 515.25 L223.87 518.04 L224.01 520.80 L224.55 523.53 L224.72 526.29 L225.06 529.04 L227.82 531.50 L226.81 534.39 L226.42 537.22 L227.12 539.91 L227.82 542.59 L228.37 545.29 L231.37 547.56 L231.85 550.24 L231.49 553.10 L232.28 555.73 L230.82 558.85 L230.42 561.76 L233.14 563.96 L234.13 566.54 L235.66 568.97 L239.89 570.65 L239.84 573.47 L239.96 576.25 L241.14 578.72 L243.35 580.86 L242.87 583.85 L244.43 586.18 L243.56 589.34 L244.32 591.95 L244.45 594.80 L244.00 597.89 L246.52 599.84 L248.85 601.84 L249.36 604.56 L250.83 606.88 L254.92 608.05 L254.72 611.08 L255.39 613.73 L258.77 615.11 L259.54 617.71 L259.48 620.73 L260.42 623.28 L262.05 625.46 L263.50 627.74 L266.07 629.39 L268.52 631.07 L269.20 633.76 L270.49 636.09 L270.21 639.38 L270.88 642.12 L273.91 643.40 L276.31 645.03 L277.22 647.62 L279.38 649.39 L281.05 651.47 L282.44 653.76 L282.41 657.06 L283.10 659.89 L287.64 659.85 L290.29 661.16 L289.92 664.81 L292.29 666.33 L294.98 667.57 L294.34 671.55 L295.93 673.71 L299.17 674.45 L301.02 676.37 L302.68 678.45 L305.51 679.46 L308.18 680.58 L309.71 682.76 L311.92 684.29 L314.29 685.64 L315.40 688.26 L316.76 690.65 L318.86 692.29 L321.32 693.51 L323.63 694.88 L327.55 694.42 L329.39 696.26 L331.17 698.19 L332.99 700.07 L334.34 702.54 L336.57 703.94 L339.39 704.57 L342.08 705.34 L343.17 708.20 L346.54 708.03 L348.58 709.62 L349.41 712.92 L351.24 714.86 L354.17 715.19 L356.98 715.66 L358.29 718.40 L359.89 720.73 L362.89 720.85 L365.01 722.38 L366.04 725.73 L368.94 725.98 L372.17 725.56 L373.76 728.04 L376.52 728.43 L380.03 727.33 L382.24 728.66 L384.52 729.85 L387.76 729.08 L390.58 729.10 L390.51 735.26 L391.94 738.39 L393.85 740.55 L395.53 743.31 L397.28 745.99 L400.66 744.74 L405.24 740.33 L407.92 740.54 L409.90 742.63 L412.01 744.40 L414.45 745.30 L415.41 750.56 L415.74 758.09 L419.23 756.05 L421.86 756.63 L424.38 757.56 L427.58 756.13 L432.00 750.02 L435.15 748.20 L437.83 748.07 L438.72 755.32 L441.18 756.32 L444.14 755.11 L445.84 759.72 L448.73 758.81 L452.23 754.48 L455.60 750.26 L457.89 751.98 L459.70 756.95 L460.81 767.31 L463.04 770.94 L465.80 770.88 L468.48 771.50 L470.68 776.64 L473.98 771.47 L476.77 770.77 L479.13 775.65 L481.70 778.62 L484.79 773.46 L487.48 774.56 L490.14 776.98 L492.99 774.17 L495.70 776.35 L498.44 779.17 L501.24 779.46 L504.01 777.91 L506.68 773.62 L509.22 767.62 L511.84 766.25 L514.17 760.03 L516.41 754.32 L518.80 752.10 L521.01 748.21 L523.38 746.85 L526.81 755.85 L529.33 755.18 L531.59 752.61 L534.67 756.35 L536.88 753.60 L538.23 745.59 L541.17 748.11 L544.75 753.97 L548.26 758.69 L552.37 765.97 L555.71 768.72 L558.87 770.35 L559.94 762.60 L563.19 764.59 L565.26 761.64 L567.79 760.68 L571.15 762.76 L573.77 762.04 L575.41 757.94 L578.53 758.96 L580.75 756.99 L582.12 752.52 L586.21 756.34 L589.30 757.00 L591.06 753.86 L594.07 754.20 L595.33 749.91 L595.93 744.12 L597.50 741.00 L598.65 737.01 L599.31 732.01 L599.38 725.91 L600.77 722.99 L606.17 728.82 L608.36 727.55 L609.04 723.21 L614.16 727.87 L615.17 724.27 L615.83 720.10 L615.24 713.77 L619.92 717.22 L624.72 720.67 L629.43 723.74 L634.93 727.97 L639.02 729.61 L640.08 726.23 L643.04 725.93 L645.68 725.08 L646.77 721.86 L649.36 720.95 L653.09 721.66 L651.97 715.39 L653.53 713.05 L656.28 712.36 L656.56 708.35 L660.29 708.92 L664.27 709.73 L664.29 705.49 L667.25 704.96 L667.55 701.19 L663.50 692.38 L663.79 688.86 L662.51 683.64 L661.64 679.01 L659.97 673.65 L660.84 671.13 L668.53 675.75 L672.50 676.32 L673.36 673.70 L680.84 677.61 L682.36 675.55 L680.59 670.40 L678.72 665.28 L680.21 663.35 L685.19 664.52 L690.45 665.82 L695.25 666.59 L701.44 668.42 L700.44 664.21 L698.61 659.42 L703.02 659.65 L700.57 654.50 L703.41 653.47 L709.45 654.76 L708.97 651.21 L706.62 646.38 L710.95 646.30 L711.05 643.27 L709.98 639.49 L714.70 639.56 L717.62 638.37 L721.12 637.51 L720.00 633.79 L716.96 628.99 L717.53 626.40 L713.35 621.13 L709.77 616.34 L705.41 611.25 L705.24 608.52 L705.18 605.87 L712.63 607.04 L712.89 604.51 L714.16 602.50 L718.07 601.70 L717.25 598.68 L713.26 594.31 L710.49 590.58 L712.93 589.11 L717.24 588.38 L728.55 590.33 L732.30 589.13 L732.70 586.63 L734.27 584.55 L737.81 583.15 L735.02 579.55 L735.49 577.09 L740.55 576.09 L744.77 574.74 L740.18 570.73 L740.27 568.15 L742.31 566.12 L740.22 562.97 L742.73 561.04 L747.00 559.50 L748.65 557.27 L748.42 554.61 L745.13 551.32 L738.74 547.49 L737.35 544.75 L731.81 541.31 L726.08 537.96 L724.72 535.43 L722.74 532.84 L722.13 530.48 L731.05 529.35 L731.16 527.02 L730.40 524.60 L733.45 522.57 L731.23 520.02 L723.71 517.12 L727.23 515.10 L733.01 513.15 L738.50 511.07 L747.82 509.02 L749.43 506.58 L751.09 504.11 L746.58 501.57 L747.10 499.10 L744.70 496.66 L742.98 494.26 L746.46 491.71 L746.78 489.23 L742.94 486.96 L748.07 484.19 L744.59 481.96 L744.49 479.51 L747.32 476.78 L747.10 474.30 L742.19 472.36 L743.86 469.70 L740.61 467.66 L734.27 466.12 L732.85 463.94 L730.39 461.96 L725.70 460.41 L719.45 459.24 L716.61 457.53 L723.33 453.88 L722.95 451.63 L718.74 450.25 L724.06 446.68 L722.28 444.75 L716.92 443.77 L710.57 443.16 L715.42 439.54 L721.12 435.55 L725.59 431.79 L729.81 428.00 L733.60 424.24 L727.98 423.53 L726.45 421.52 L724.97 419.50 L719.58 418.94 L723.11 415.10 L726.19 411.32 L720.89 410.84 L719.65 408.78 L719.47 406.27 L716.48 404.98 L716.39 402.42 L716.65 399.69 L713.29 398.64 L714.23 395.56 L710.44 394.78 L700.57 397.20 L699.65 395.14 L695.12 395.01 L691.20 394.65 L684.80 395.75 L682.58 394.58 L684.04 391.27 L689.23 385.63 L688.48 383.50 L690.38 379.68 L691.55 376.24 L688.08 375.80 L681.87 377.27 L681.25 375.03 L682.87 371.20 L684.16 367.51 L689.42 360.83 L689.45 357.87 L686.99 356.78 L682.82 357.05 L682.98 353.95 L677.04 355.77 L677.74 352.21 L679.41 347.77 L677.81 346.04 L673.12 347.05 L673.44 343.65 L670.94 342.78 L667.66 342.67 L668.56 338.63 L667.32 336.57 L664.97 335.61 L659.26 338.10 L653.53 340.77 L650.58 340.67 L644.86 343.62 L641.13 344.56 L638.11 344.79 L636.39 343.60 L634.37 342.77 L634.20 339.75 L633.45 337.37 L630.98 337.09 L630.46 334.37 L629.06 332.74 L625.51 333.93 L621.67 335.62 L621.37 332.54 L621.22 329.18 L624.88 320.24 L625.27 315.78 L622.74 315.56 L621.62 313.21 L622.56 307.59 L618.68 309.51 L616.42 308.90 L616.75 303.98 L614.46 303.37 L609.74 307.06 L608.33 305.03 L606.98 302.85 L603.64 304.37 L604.02 298.80 L603.75 294.32 L601.91 292.84 L596.48 298.82 L592.54 301.98 L588.71 305.12 L584.47 309.40 L580.80 312.64 L578.16 313.65 L576.56 312.23 L573.67 314.03 L571.06 315.25 L570.59 310.84 L569.23 308.65 L566.64 309.89 L565.28 307.63 L563.31 307.12 L559.82 311.41 L558.63 308.53 L559.16 299.68 L557.53 297.77 L557.64 289.42 L557.12 282.80 L554.44 284.25 L551.37 287.48 L550.01 283.65 L547.45 284.93 L544.98 285.99 L543.50 282.22 L540.81 284.50 L537.77 289.02 L536.26 285.09 L533.91 286.01 L531.53 287.32 L530.25 280.86 L528.38 278.02 L525.98 279.24 L523.79 278.90 L521.27 281.74 L518.62 286.93 L516.26 289.70 L513.94 292.76 L511.64 296.67 L509.32 302.47 L507.28 304.29 L505.52 296.77 L503.48 297.04 L501.43 300.67 L499.42 294.07 L497.39 296.66 L495.44 300.35 L493.64 306.28 L491.44 300.38 L489.16 294.93 L487.08 294.67 L484.29 284.67 L481.76 280.32 L480.06 285.78 L477.38 280.79 L475.44 283.30 L473.63 286.42 L471.10 283.73 L468.85 283.41 L467.59 289.61 L465.63 290.78 L463.31 289.81 L461.59 292.29 L459.40 292.07 L456.63 289.12 L455.15 292.46 L452.32 289.59 L451.31 294.66 L451.30 303.42 L449.76 305.56 L448.96 310.32 L448.32 315.29 L447.91 320.77 L446.26 321.76 L441.91 314.09 L439.15 311.89 L437.64 313.58 L433.18 306.70 L431.36 307.68 L431.19 313.15 L431.03 318.33 L428.98 318.43 L425.49 314.97 L422.11 312.03 L418.55 308.86 L414.10 303.89 L413.88 308.60 L413.76 313.37 L410.55 311.38 L410.52 316.08 L407.77 315.17 L403.51 311.36 L402.68 314.36 L403.15 319.66 L399.77 317.76 L398.91 320.47 L398.82 324.43 L394.77 321.57 L392.09 321.12 L389.16 320.37 L388.71 323.60 L389.85 329.21 L388.78 331.29 L390.35 337.24 L391.95 343.02 L393.69 348.80 L392.95 350.94 L392.42 353.32 L386.56 348.54 L385.72 350.55 L383.91 351.30 L380.60 350.16 L380.44 353.01 L382.49 358.44 L383.55 362.54 L380.83 362.15 L376.52 360.01 L369.17 354.64 L364.17 352.08 L363.20 353.99 L361.63 355.24 L354.99 351.30 L358.53 357.80 L358.03 360.12 L352.12 357.19 L350.31 358.30 L352.77 363.40 L350.64 364.18 L348.05 364.57 L349.14 368.23 L345.45 367.70 L342.50 367.89 L341.27 369.53 L339.55 370.79 L343.05 376.17 L346.76 381.57 L345.45 383.01 L349.71 388.58 L353.58 393.70 L354.08 396.27 L355.38 399.36 L354.23 400.71 L346.77 397.86 L346.22 399.69 L345.80 401.60 L342.53 401.72 L343.93 404.75 L349.70 410.32 L345.22 409.74 L339.61 408.60 L333.97 407.57 L324.91 404.81 L322.53 405.80 L321.12 407.34 L323.29 410.69 L321.33 411.93 L323.78 415.32 L323.88 417.52 L319.36 417.60 L319.36 419.77 L321.21 422.73 L315.50 422.44 L318.12 425.67 L316.83 427.27 L313.07 427.93 L312.58 429.89 L316.33 433.38 L314.91 434.95 L316.73 437.64 L321.83 441.36 L322.73 443.61 L323.61 445.83 L327.13 448.80 L332.67 452.25 L334.33 454.51 L325.96 454.08 L325.87 455.92 L328.85 458.49 L322.37 458.79 L323.85 460.99 L328.62 463.84 L334.26 466.75 L326.90 467.07 L322.09 468.00 L320.13 469.50 L310.15 469.76 L306.49 471.16 L314.96 474.31 L310.70 475.64 L309.39 477.41 L314.71 479.92 L310.76 481.40 L307.00 482.98 L311.30 485.26 L311.56 487.17 L309.18 488.93 L312.67 491.01 L309.83 492.78 L306.82 494.60 L311.06 496.61 L310.20 498.49 L310.89 500.39 L322.91 502.13 L323.44 503.89 L327.37 505.53 L331.43 507.09 L337.60 508.46 L338.21 510.05 L335.32 511.88 L328.55 514.10 L327.80 515.89 L324.07 518.01 L322.25 520.00 L325.09 521.45 L331.14 522.43 L331.28 524.13 L328.06 526.34 L325.01 528.61 L317.31 531.74 L314.86 534.08 L319.49 535.10 L319.72 536.93 L317.32 539.32 L323.23 539.91 L322.65 541.91 L317.81 544.98 L319.86 546.39 L324.12 547.17 L323.63 549.20 L326.09 550.39 L326.68 552.11 L325.16 554.47 L325.48 556.30 L322.67 559.17 L325.62 560.13 L331.31 560.06 L334.13 560.93 L342.11 559.80 L349.22 558.84 L354.58 558.43 L358.44 558.53 L360.09 559.49 L349.83 565.63 L351.17 566.83 L353.71 567.45 L349.93 571.03 L353.58 571.10 L359.94 569.75 L364.37 569.24 L367.44 569.36 L363.99 572.90 L353.73 580.30 L351.31 583.57 L352.13 585.06 L349.32 588.70 L344.53 593.62 L350.25 592.23 L350.93 593.89 L348.28 597.69 L347.35 600.46 L352.89 598.93 L353.16 600.90 L353.59 602.77 L357.62 602.08 L356.61 605.00 L355.44 608.09 L357.69 608.64 L357.94 610.72 L362.66 609.26 L370.44 605.21 L372.12 605.99 L378.98 602.36 L384.44 599.74 L388.75 597.98 L391.40 597.59 L390.13 600.74 L384.81 607.75 L386.92 607.92 L387.60 609.44 L387.32 611.93 L390.99 610.47 L396.58 606.92 L395.05 610.69 L391.50 616.76 L390.81 619.88 L387.11 626.46 L383.48 633.19 L387.11 631.68 L391.04 629.69 L389.19 634.61 L391.47 634.55 L392.61 635.90 L391.97 639.55 L392.74 641.45 L397.31 638.29 L398.23 639.94 L401.00 639.04 L404.40 637.15 L404.07 640.60 L403.81 644.05 L406.74 642.74 L407.60 644.55 L411.28 641.90 L416.02 637.35 L419.96 633.90 L424.26 629.63 L428.69 624.91 L431.55 622.73 L433.70 621.72 L429.73 632.15 L430.51 633.89 L433.61 631.10 L431.81 638.06 L434.59 635.83 L438.31 631.46 L441.57 627.81 L439.72 635.44 L438.35 642.33 L438.83 645.19 L436.58 654.82 L437.00 658.31 L439.75 655.91 L439.65 660.94 L441.98 659.57 L444.55 657.36 L445.07 661.01 L446.67 661.60 L450.22 656.07 L451.72 656.77 L453.12 657.83 L455.43 655.73 L456.67 657.32 L457.50 660.57 L459.95 657.68 L461.18 659.48 L463.56 656.51 L466.77 649.46 L468.71 647.70 L471.35 642.26 L473.95 636.38 L475.92 633.24 L477.68 631.02 L477.40 641.16 L478.49 643.53 L480.43 640.12 L481.00 646.78 L482.78 644.32 L484.81 639.12 L486.69 634.38 L487.64 638.89 L488.33 647.86 L489.49 652.58 L490.58 660.13 L491.87 666.63 L493.77 660.65 L495.41 659.73 L496.96 661.90 L498.63 656.23 L500.20 658.09 L501.83 663.18 L503.39 659.45 L504.88 656.14 L506.53 658.15 L507.97 655.44 L509.39 653.07 L511.22 657.29 L512.85 657.87 L514.76 661.27 L516.08 658.28 L517.01 652.30 L518.37 650.77 L518.84 642.73 L519.37 636.20 L520.13 632.09 L520.89 628.42 L522.21 628.45 L525.38 638.48 L526.38 636.25 L527.53 634.97 L529.61 638.09 L530.29 634.68 L530.16 628.09 L530.44 623.74 L531.08 621.08 L533.94 626.95 L538.46 638.30 L539.93 638.22 L541.91 639.81 L544.72 643.95 L547.41 647.39 L547.32 642.20 L549.22 643.12 L552.18 646.94 L554.56 648.89 L554.00 642.92 L555.65 642.95 L557.62 643.74 L557.54 639.48 L559.89 641.17 L562.28 642.82 L563.02 640.65 L565.10 641.49 L564.12 635.77 L562.26 628.48 L562.80 626.35 L560.54 618.82 L559.08 613.14 L558.48 609.32 L558.60 606.95 L561.39 609.43 L566.51 615.84 L566.82 613.72 L568.53 614.01 L570.17 614.14 L569.33 610.29 L567.05 604.33 L570.37 607.12 L575.09 611.85 L577.82 613.45 L583.45 619.09 L588.57 623.74 L587.47 619.66 L587.44 617.13 L590.52 618.77 L589.68 615.25 L589.71 612.95 L594.15 616.13 L594.35 614.03 L593.46 610.68 L599.33 615.27 L597.69 611.10 L598.06 609.31 L601.66 611.06 L602.15 609.38 L599.47 604.39 L602.80 605.75 L601.93 602.78 L598.68 597.54 L599.08 595.99 L597.06 592.17 L595.06 588.48 L591.78 583.73 L589.93 580.40 L598.52 586.33 L599.28 585.26 L597.86 582.35 L603.11 585.02 L601.27 581.82 L598.35 577.85 L594.61 573.36 L600.21 576.11 L607.17 579.72 L610.00 580.13 L617.85 584.05 L621.82 585.06 L615.77 579.13 L619.02 579.61 L620.95 579.16 L616.53 574.62 L620.88 575.71 L625.59 576.92 L621.47 572.74 L622.01 571.42 L623.55 570.67 L621.76 568.03 L623.94 567.63 L625.90 567.08 L623.56 564.26 L626.26 564.06 L622.60 560.67 L614.07 555.04 L615.45 554.29 L612.23 551.41 L609.07 548.65 L604.46 545.35 L604.46 544.11 L607.76 544.24 L614.28 545.59 L615.63 544.79 L619.72 545.00 L621.74 544.38 L618.85 541.98 L614.28 539.09 L615.44 538.20 L619.34 538.17 L620.94 537.35 L626.90 537.81 L635.03 538.76 L629.97 535.91 L628.65 534.16 L632.96 533.89 L627.57 531.16 L629.41 530.24 L633.28 529.74 L631.73 528.02 L628.93 526.08 L632.35 525.39 L630.16 523.63 L627.30 521.79 L632.86 521.38 L632.85 520.02 L633.09 518.69 L626.72 516.51 L621.86 514.64 L617.74 512.95 L609.53 510.94 L603.86 509.33 L602.49 508.17 L602.02 507.11 L601.37 506.04 L600.85 505.00 L600.37 503.97 L599.90 502.95 L599.59 501.95 L599.27 500.95 Z"/>
  <svg class="pausebutton" id="pausebutton">
    <circle cx="500" cy="500" id="pausestart" class="pausestart" r="52.65"/>
    <rect height="50.02" width="10.00" y="473.68" rx="2.00" ry="2.00" x="479.99" class="pausesymbol"/>
    <rect height="50.02" width="10.00" y="473.68" rx="2.00" ry="2.00" x="510.00" class="pausesymbol"/>
    <polygon points="530.01,500 479.99,530.01 479.99,469.99" class="playsymbol"/>
  </svg>
  <polygon id="playback-head" class="playback-head" points="941.65,500 921.65,540 961.65,540"/>
</svg>