<?xml-stylesheet href="../../style/waveformjs.css" type="text/css"?>
<svg xmlns="http://www.w3.org/2000/svg" xmlns:xlink="http://www.w3.org/1999/xlink" width="100%" height="100%" viewBox="0 0 1000 1000">
  <path class="svg-wave" id="sp" d="M591.52 500.00 L591.78 500.92 L592.02 501.84 L592.25 502.77 L592.47 503.70 L592.69 504.64 L592.89 505.58 L593.08 506.53 L593.27 507.48 L593.44 508.43 L593.61 509.39 L593.76 510.36 L593.91 511.32 L594.04 512.29 L594.17 513.27 L594.28 514.25 L594.39 515.23 L594.48 516.22 L594.57 517.21 L594.64 518.20 L594.70 519.20 L594.74 520.19 L594.63 521.16 L593.02 521.78 L583.47 520.43 L571.51 518.26 L563.88 516.99 L555.09 515.25 L555.55 515.97 L556.29 516.80 L558.98 518.24 L559.10 518.93 L559.62 519.76 L560.36 520.68 L560.68 521.46 L567.86 524.77 L568.17 525.66 L571.12 527.58 L569.54 527.78 L563.86 526.25 L562.77 526.54 L561.72 526.82 L560.62 527.07 L562.36 528.60 L563.57 529.93 L568.52 533.10 L564.29 531.85 L559.70 530.33 L563.05 532.83 L555.92 529.82 L564.71 535.35 L563.30 535.41 L564.58 536.97 L562.58 536.67 L565.80 539.44 L565.61 540.23 L566.02 541.39 L566.03 542.32 L563.96 541.91 L556.63 537.92 L560.57 541.44 L559.81 541.80 L561.61 543.98 L569.52 550.69 L567.95 550.59 L569.82 553.08 L569.30 553.79 L570.37 555.75 L570.31 556.86 L572.05 559.46 L570.81 559.64 L562.19 553.46 L556.19 549.28 L559.89 553.59 L551.06 546.62 L556.80 552.91 L552.75 550.14 L548.18 546.72 L549.77 549.24 L551.05 551.53 L550.57 552.07 L552.00 554.63 L552.83 556.62 L550.40 555.11 L547.49 552.98 L547.63 554.22 L540.82 547.42 L545.64 554.10 L542.20 551.05 L544.10 554.45 L543.34 554.61 L544.10 556.73 L542.45 555.75 L543.62 558.49 L545.70 562.57 L545.60 563.77 L542.86 561.22 L544.40 564.79 L537.17 555.41 L538.86 559.21 L539.01 560.76 L539.73 563.26 L539.32 564.01 L539.47 565.72 L537.06 563.14 L534.70 560.50 L536.00 564.23 L536.56 566.80 L536.52 568.34 L536.03 569.07 L539.54 577.68 L532.81 566.10 L537.00 576.44 L532.66 569.23 L532.99 571.79 L532.12 571.77 L531.70 572.79 L530.33 571.57 L530.36 573.68 L531.32 578.23 L529.73 576.48 L527.92 573.99 L528.50 577.88 L524.19 568.22 L526.46 577.04 L524.59 573.99 L523.76 573.97 L522.90 573.81 L522.45 575.03 L521.54 574.68 L521.62 577.86 L521.86 581.91 L521.74 584.84 L519.87 580.91 L521.95 593.39 L519.10 585.07 L520.72 596.83 L519.35 595.09 L518.26 594.56 L517.39 595.15 L516.82 597.51 L516.51 601.79 L514.53 595.61 L512.46 587.89 L513.06 599.28 L510.82 589.14 L511.76 605.67 L510.57 604.55 L509.31 602.23 L508.53 605.29 L507.47 605.37 L506.37 604.58 L504.68 592.02 L503.98 597.40 L502.48 580.64 L501.86 589.20 L500.90 583.57 L500.07 583.16 L499.23 583.80 L498.30 588.49 L497.21 595.66 L496.41 591.48 L495.03 600.99 L494.56 591.73 L493.71 590.75 L492.82 590.50 L492.31 585.98 L491.29 587.56 L490.40 587.54 L489.35 588.95 L489.24 582.78 L487.99 585.70 L486.18 591.93 L485.22 592.05 L482.11 604.73 L481.22 603.65 L480.04 604.21 L478.37 607.13 L476.64 610.01 L477.36 601.60 L477.76 595.32 L474.43 604.86 L475.36 596.82 L470.13 612.64 L472.66 599.09 L471.60 599.08 L471.17 596.89 L468.51 602.07 L466.59 604.58 L469.07 593.59 L464.01 605.33 L467.11 593.21 L458.11 615.05 L457.10 614.26 L455.46 615.11 L452.82 618.39 L452.28 616.35 L452.61 612.34 L456.91 599.36 L457.06 596.35 L461.62 583.86 L459.26 586.72 L457.70 587.74 L456.41 588.16 L454.95 588.86 L451.75 592.86 L449.56 594.76 L451.47 589.01 L448.61 592.04 L448.93 589.37 L447.22 590.25 L442.21 596.58 L440.47 597.28 L438.68 597.99 L435.91 600.17 L433.52 601.64 L438.35 592.24 L439.02 589.29 L435.27 592.77 L436.72 588.79 L427.38 599.77 L427.61 597.39 L427.39 595.67 L426.45 594.92 L424.54 595.41 L427.97 589.22 L431.82 582.74 L423.30 591.21 L429.23 582.46 L412.59 599.83 L413.63 596.67 L411.79 596.76 L408.74 598.11 L408.70 596.21 L410.97 591.96 L419.91 581.09 L420.31 579.09 L428.10 569.94 L422.31 574.08 L420.06 574.71 L418.75 574.43 L415.53 575.84 L414.00 575.67 L413.47 574.62 L418.07 569.23 L409.80 574.68 L415.11 568.87 L404.06 576.26 L403.54 575.11 L401.25 575.32 L399.71 574.92 L395.80 576.23 L394.16 575.82 L402.44 568.42 L400.20 568.51 L398.81 567.98 L396.35 568.14 L389.98 570.77 L400.42 562.65 L391.46 566.79 L399.94 560.20 L384.78 567.76 L393.44 561.24 L397.55 557.52 L389.98 560.33 L395.13 556.15 L373.69 566.01 L374.51 563.99 L372.18 563.58 L368.41 563.82 L370.55 561.20 L376.86 556.71 L388.27 550.11 L388.51 548.67 L398.54 543.09 L388.24 546.15 L388.47 544.75 L386.29 544.31 L384.32 543.75 L381.13 543.61 L373.92 544.83 L364.69 546.59 L363.29 545.54 L364.97 543.49 L367.42 541.24 L373.92 537.84 L371.31 537.23 L370.20 536.14 L365.21 536.09 L360.52 535.85 L353.88 536.00 L350.89 535.16 L351.43 533.47 L356.05 530.92 L360.23 528.56 L362.72 526.63 L359.91 525.72 L359.64 524.32 L353.81 523.83 L350.83 522.79 L352.10 521.08 L363.43 518.08 L366.71 516.29 L379.24 513.53 L377.67 512.47 L375.44 511.44 L372.31 510.44 L367.13 509.53 L362.39 508.49 L353.45 507.57 L355.85 506.00 L361.99 504.36 L365.94 502.90 L372.88 501.47 L369.82 500.21 L366.88 498.88 L362.90 497.48 L359.00 495.99 L350.01 494.24 L349.07 492.69 L350.57 491.26 L353.25 489.95 L359.26 488.94 L356.91 487.32 L355.63 485.75 L350.68 483.75 L346.14 481.70 L340.13 479.36 L338.95 477.57 L338.58 475.87 L342.29 474.81 L342.65 473.25 L343.81 471.84 L343.88 470.23 L345.56 468.95 L345.62 467.35 L345.49 465.71 L343.87 463.71 L345.93 462.56 L345.61 460.84 L345.07 459.05 L345.88 457.61 L343.35 455.22 L341.81 453.07 L341.32 451.19 L340.81 449.29 L350.25 450.64 L360.51 452.47 L369.44 454.05 L375.07 454.62 L375.24 453.27 L375.92 452.10 L374.03 449.92 L369.59 446.64 L365.10 443.22 L361.31 439.98 L356.99 436.41 L362.17 437.05 L361.18 434.92 L364.97 435.04 L364.57 433.17 L364.39 431.39 L359.96 427.38 L357.49 424.28 L354.91 421.04 L353.07 418.12 L356.71 418.26 L361.09 418.91 L364.54 419.09 L367.74 419.20 L365.74 416.13 L365.41 414.04 L360.79 409.11 L361.56 407.63 L362.80 406.46 L365.19 406.10 L365.55 404.34 L365.45 402.22 L364.53 399.47 L362.51 395.82 L362.58 393.69 L362.64 391.53 L362.93 389.51 L363.88 388.02 L371.33 391.97 L378.60 395.99 L382.55 397.32 L389.06 401.04 L388.26 398.30 L389.41 397.30 L387.52 393.44 L384.57 388.43 L384.76 386.36 L388.21 387.53 L392.60 389.77 L398.48 393.70 L398.77 391.85 L399.71 390.69 L400.61 389.47 L397.55 383.75 L397.66 381.51 L395.38 376.39 L396.46 375.16 L400.13 377.10 L400.43 374.93 L401.97 374.31 L403.73 374.00 L404.72 372.66 L406.92 372.98 L405.93 368.89 L402.35 360.99 L402.08 357.60 L408.85 364.57 L411.61 365.79 L419.62 375.25 L421.14 374.88 L422.51 374.29 L421.80 370.24 L419.39 363.17 L417.23 356.23 L417.65 353.60 L421.63 357.36 L425.67 361.44 L429.79 365.92 L431.63 366.21 L432.65 364.88 L432.63 361.38 L431.73 355.88 L431.36 351.27 L430.41 345.17 L430.95 342.16 L433.10 342.81 L434.66 342.13 L436.15 341.24 L437.30 339.50 L437.73 335.76 L438.40 332.49 L443.74 342.15 L446.74 345.72 L445.94 338.18 L449.41 343.36 L445.97 326.80 L448.39 328.55 L450.17 328.27 L451.53 326.48 L452.67 323.80 L456.34 330.71 L460.28 339.36 L461.04 335.36 L465.84 348.95 L464.87 337.09 L467.47 341.48 L469.03 341.01 L470.58 340.47 L471.58 336.80 L472.69 333.33 L475.18 338.41 L474.54 322.44 L478.61 339.37 L478.55 325.59 L481.18 333.25 L482.92 333.77 L484.71 334.93 L486.43 335.67 L488.10 335.88 L490.11 341.63 L491.12 330.68 L492.96 333.98 L494.25 322.40 L495.99 321.04 L497.77 319.70 L499.57 318.29 L501.41 314.63 L503.29 313.07 L504.85 324.39 L506.63 323.84 L508.46 322.47 L510.27 321.95 L512.70 312.41 L513.56 325.65 L516.12 316.51 L516.98 326.60 L520.34 311.74 L521.14 321.08 L522.14 327.47 L525.01 319.38 L525.75 326.79 L531.24 303.45 L532.95 305.25 L535.21 303.84 L537.85 300.63 L539.29 303.77 L539.83 310.93 L538.54 325.69 L539.47 329.61 L538.14 342.52 L541.27 336.77 L543.02 336.71 L545.28 334.87 L547.46 333.47 L550.65 328.78 L553.21 326.52 L552.81 333.79 L558.81 321.10 L556.43 333.95 L562.56 321.79 L564.07 323.16 L566.48 322.10 L568.77 321.42 L572.06 318.32 L573.69 319.49 L570.89 331.20 L575.21 325.83 L575.03 330.91 L579.26 326.09 L584.41 319.58 L584.86 323.25 L587.92 321.48 L590.02 321.73 L592.31 321.65 L588.65 332.84 L588.40 337.25 L591.81 334.93 L593.18 336.35 L604.67 320.37 L606.02 322.17 L608.87 321.47 L612.27 319.97 L612.19 324.04 L608.69 333.23 L603.15 345.15 L603.30 348.22 L598.85 357.84 L605.63 351.29 L607.90 351.26 L610.64 350.66 L613.61 349.82 L617.27 348.15 L617.86 350.50 L615.40 356.59 L625.93 346.68 L618.71 358.38 L631.52 346.25 L630.23 350.79 L632.97 350.70 L635.57 350.81 L640.02 348.98 L639.49 352.53 L633.10 362.08 L642.45 355.32 L637.36 363.25 L648.94 354.65 L645.66 360.67 L639.59 369.12 L647.92 364.07 L642.45 371.70 L657.02 361.40 L647.65 372.27 L651.24 371.79 L650.77 374.76 L657.58 371.74 L669.38 364.93 L670.33 366.93 L673.82 366.98 L676.69 367.57 L675.30 371.33 L667.27 379.78 L659.10 388.05 L654.92 393.29 L649.69 399.08 L657.50 396.09 L660.55 396.37 L662.74 397.25 L666.26 397.34 L672.70 395.73 L672.60 398.13 L669.42 402.28 L678.49 399.41 L664.39 409.51 L675.79 405.51 L672.71 409.38 L673.59 411.13 L674.86 412.67 L679.70 412.49 L680.19 414.47 L676.48 418.38 L693.17 413.00 L677.23 422.30 L694.55 417.02 L687.41 422.27 L689.09 423.78 L691.26 425.11 L694.56 426.06 L697.07 427.35 L689.47 432.30 L699.84 430.84 L686.75 437.45 L696.39 436.40 L692.21 439.87 L692.50 441.89 L692.63 443.94 L693.92 445.67 L699.68 446.20 L692.66 450.15 L702.74 449.70 L699.20 452.69 L699.80 454.65 L704.45 455.74 L698.80 459.04 L696.74 461.51 L697.92 463.33 L699.13 465.16 L694.60 467.96 L697.41 469.52 L705.66 470.35 L703.25 472.77 L718.05 473.00 L716.38 475.40 L718.00 477.43 L720.59 479.38 L724.96 481.24 L717.12 484.08 L710.29 486.70 L721.51 488.21 L712.87 490.80 L729.73 492.37 L715.90 494.99 L714.63 497.17 L714.88 499.32 L717.60 501.48 L724.04 503.77 L711.94 505.68 L723.76 508.24 L711.62 509.91 L733.71 513.29 L734.48 515.69 L735.35 518.11 L739.29 520.83 L737.77 523.09 L734.08 525.10 L719.82 525.80 L713.83 527.26 L702.07 527.82 L701.90 529.86 L704.88 532.39 L708.42 535.09 L709.12 537.37 L714.37 540.52 L719.60 543.79 L712.80 544.65 L713.66 547.06 L714.68 549.54 L710.47 550.80 L720.02 555.43 L720.13 557.81 L720.59 560.29 L721.56 562.95 L724.30 566.16 L714.03 565.46 L709.01 566.22 L716.86 571.10 L709.20 570.91 L723.57 578.29 L720.15 579.57 L717.26 580.99 L716.92 583.34 L718.62 586.51 L711.57 586.18 L702.89 585.02 L712.79 591.68 L700.88 588.94 L721.92 600.92 L719.03 602.26 L720.09 605.45 L722.34 609.28 L720.58 611.16 L715.45 611.29 L703.72 607.83 L708.66 613.13 L693.63 607.50 L701.54 614.54 L697.29 614.75 L691.83 614.16 L693.84 618.00 L694.45 621.05 L693.98 623.46 L686.75 621.50 L688.34 625.24 L679.23 621.78 L682.30 626.55 L680.87 628.26 L680.37 630.63 L681.30 634.09 L682.80 638.05 L685.93 643.35 L679.67 641.42 L678.27 643.23 L675.42 643.84 L673.57 645.25 L677.23 651.35 L668.45 646.79 L673.90 654.63 L664.46 649.20 L673.43 660.54 L666.49 657.24 L663.19 657.24 L667.08 664.24 L655.42 655.86 L665.80 669.63 L661.15 668.20 L661.04 671.49 L662.66 676.72 L662.77 680.43 L658.52 679.30 L651.51 674.85 L652.62 679.74 L643.44 672.39 L649.49 683.37 L647.94 685.21 L647.71 688.76 L649.41 694.92 L648.06 697.22 L645.49 697.88 L638.22 691.99 L640.85 699.83 L632.15 691.52 L637.83 704.09 L634.98 704.25 L633.95 707.16 L632.59 709.62 L632.50 714.20 L630.44 715.66 L622.69 707.51 L623.02 712.88 L619.38 711.45 L619.66 716.97 L621.39 725.42 L617.88 724.25 L616.50 727.11 L614.27 728.35 L612.86 731.28 L605.75 722.32 L601.34 718.66 L598.17 717.51 L593.64 713.12 L593.90 719.64 L590.78 718.37 L587.80 717.32 L585.95 719.02 L586.01 725.77 L583.90 727.02 L580.87 725.75 L583.23 739.87 L574.94 723.16 L577.60 738.96 L572.38 730.74 L570.55 733.03 L569.20 737.10 L568.03 742.06 L565.55 742.52 L561.08 735.29 L561.85 748.44 L555.96 734.77 L557.41 752.02 L554.00 748.51 L551.91 750.93 L549.72 753.08 L547.94 757.64 L544.99 756.00 L540.75 746.26 L539.72 755.92 L536.07 748.78 L535.20 761.16 L531.99 756.69 L528.28 746.99 L526.77 756.54 L523.26 746.72 L522.30 764.95 L518.60 750.96 L516.25 753.70 L513.67 752.91 L511.34 757.69 L509.29 773.25 L506.54 772.65 L503.85 775.50 L501.10 777.50 L498.35 774.07 L495.77 764.02 L493.41 753.24 L491.04 748.58 L488.90 740.96 L486.07 748.41 L483.59 748.20 L481.10 748.08 L478.60 748.12 L475.83 750.94 L473.67 747.43 L471.56 744.03 L467.23 758.64 L466.46 745.04 L461.02 765.03 L459.12 759.92 L456.30 760.82 L453.41 761.95 L449.95 765.97 L448.10 761.37 L447.35 751.92 L442.45 762.26 L442.55 749.82 L436.68 763.28 L434.27 761.76 L431.59 761.34 L428.23 763.41 L425.24 763.95 L422.58 763.26 L423.99 749.24 L419.99 753.23 L419.62 745.82 L413.26 756.55 L407.76 764.09 L404.32 765.40 L400.52 767.53 L397.87 766.46 L396.38 762.46 L398.36 750.10 L399.07 741.41 L399.85 732.95 L399.22 728.11 L395.14 731.06 L392.45 730.83 L389.37 731.37 L384.69 735.08 L379.53 739.51 L378.66 735.36 L377.51 731.86 L370.78 738.79 L373.97 727.43 L363.72 740.24 L362.21 737.34 L359.41 736.67 L355.39 737.98 L351.32 739.25 L352.67 731.89 L354.67 723.75 L345.90 732.15 L348.81 722.90 L336.84 735.44 L342.08 723.07 L341.68 718.97 L338.45 718.79 L335.88 717.68 L328.39 722.95 L333.74 711.58 L324.67 718.59 L329.74 707.97 L314.49 722.04 L310.87 721.82 L308.04 720.63 L303.14 721.74 L301.52 719.12 L301.72 714.55 L308.89 702.68 L310.25 697.25 L315.47 688.03 L313.10 686.66 L309.60 686.40 L307.89 684.35 L306.99 681.54 L304.96 679.81 L301.31 679.53 L295.26 681.31 L285.34 686.29 L282.50 684.98 L277.90 685.10 L279.79 679.82 L278.40 677.30 L275.39 676.05 L271.34 675.56 L266.47 675.61 L273.04 667.15 L275.18 662.13 L266.87 664.60 L269.91 659.03 L246.99 671.16 L248.66 666.39 L246.78 664.02 L247.02 660.30 L249.70 655.11 L253.34 649.46 L259.99 642.17 L252.94 643.03 L264.93 632.97 L251.82 637.12 L257.29 630.95 L255.72 628.66 L253.47 626.71 L247.29 626.71 L244.27 625.04 L247.98 620.12 L237.43 621.94 L251.43 612.43 L240.54 614.24 L247.62 608.13 L245.63 605.98 L241.91 604.52 L236.96 603.47 L232.86 602.01 L239.27 596.59 L230.95 596.62 L236.20 591.77 L226.80 591.99 L222.29 590.42 L219.83 588.14 L218.26 585.54 L213.56 583.85 L210.77 581.54 L220.47 575.79 L220.83 572.71 L216.57 570.80 L217.40 567.60 L205.61 567.31 L218.67 561.37 L209.08 560.42 L217.46 555.74 L203.30 555.46 L209.83 551.24 L217.60 546.96 L206.94 545.73 L215.97 541.41 L190.64 541.95 L191.93 538.64 L189.97 535.74 L185.71 533.05 L188.38 529.62 L194.10 526.00 L206.82 521.96 L210.35 518.79 L221.31 515.28 L214.98 512.77 L215.07 509.91 L215.85 507.04 L216.76 504.19 L214.63 501.36 L211.87 498.50 L217.78 495.70 L203.47 492.52 L213.17 489.89 L201.72 486.50 L200.44 483.44 L198.94 480.34 L196.69 477.14 L193.50 473.82 L193.42 470.72 L204.26 468.77 L202.41 465.56 L204.24 462.77 L201.38 459.37 L192.66 455.05 L195.19 452.30 L194.89 449.12 L196.21 446.22 L195.34 442.92 L206.05 441.87 L209.99 439.63 L204.12 435.32 L208.40 433.19 L188.84 425.43 L191.19 422.72 L190.67 419.29 L189.06 415.54 L192.17 413.07 L200.45 412.17 L212.52 412.58 L214.27 409.97 L227.87 411.26 L218.46 405.07 L219.65 402.34 L219.11 398.98 L217.22 395.10 L216.42 391.57 L221.10 390.14 L226.10 388.94 L216.15 381.59 L227.45 383.08 L212.21 373.13 L217.15 371.91 L216.49 368.18 L216.56 364.75 L214.16 360.08 L216.57 357.73 L227.58 359.82 L221.65 353.24 L228.64 353.43 L220.89 345.62 L225.57 344.61 L235.95 346.98 L229.23 339.44 L239.23 341.83 L225.87 329.95 L239.72 334.92 L240.38 331.67 L241.83 328.92 L240.19 324.07 L228.75 312.34 L231.14 309.99 L231.07 305.88 L231.13 301.81 L235.83 301.16 L245.62 304.51 L256.49 308.97 L260.82 308.47 L269.75 311.81 L265.62 304.49 L269.39 303.70 L272.50 302.38 L275.19 300.74 L273.84 295.47 L275.91 293.23 L278.75 291.72 L269.59 278.71 L280.69 285.10 L270.27 270.35 L275.91 271.47 L276.58 267.54 L277.88 264.21 L277.19 258.70 L282.61 259.79 L292.06 265.57 L286.34 254.21 L295.96 260.48 L288.09 246.14 L290.64 244.04 L294.66 243.77 L295.18 239.11 L297.97 237.29 L296.89 230.35 L299.44 228.12 L302.89 227.12 L310.98 232.74 L316.58 235.07 L324.25 240.65 L327.79 240.33 L329.90 237.85 L331.58 234.66 L331.27 228.21 L330.53 220.83 L328.55 211.09 L333.69 213.26 L337.88 213.92 L344.58 219.24 L349.40 221.41 L351.00 217.65 L352.37 213.34 L352.27 205.95 L353.71 201.42 L353.99 194.29 L357.09 192.92 L361.62 194.71 L365.48 195.15 L369.58 196.26 L372.00 193.48 L374.16 189.96 L375.79 184.98 L381.46 190.31 L387.24 196.36 L386.48 184.69 L392.72 192.39 L390.36 175.23 L397.54 186.17 L401.74 188.51 L404.07 184.96 L407.46 184.83 L407.85 174.10 L414.63 186.12 L415.01 174.71 L420.85 184.22 L419.57 164.94 L422.17 160.84 L425.42 159.43 L427.99 154.66 L431.59 154.70 L435.67 157.34 L441.53 170.42 L445.52 173.96 L450.55 184.70 L453.56 183.23 L456.02 177.63 L459.27 177.36 L462.16 174.02 L465.01 169.84 L468.17 167.93 L472.02 173.85 L475.22 172.78 L478.39 170.96 L481.73 171.66 L484.52 160.67 L487.95 161.39 L491.32 160.74 L494.68 158.29 L498.07 154.32 L501.49 162.54 L504.80 167.38 L508.35 158.18 L511.46 167.18 L515.47 151.91 L518.80 154.99 L522.13 156.97 L525.73 154.99 L529.37 152.97 L532.42 157.73 L534.75 168.45 L539.16 159.25 L541.22 170.42 L547.37 149.71 L551.00 149.34 L554.94 147.06 L559.13 143.61 L562.54 145.10 L565.38 149.51 L566.18 163.93 L568.92 167.55 L569.76 179.67 L574.18 175.02 L577.75 174.42 L581.28 174.10 L585.17 172.50 L588.74 172.28 L591.93 173.45 L593.31 180.81 L598.05 176.66 L600.46 180.25 L606.47 172.62 L611.14 169.54 L614.83 169.54 L618.51 169.65 L623.07 167.42 L627.18 166.59 L626.71 177.56 L629.16 180.73 L634.06 177.93 L636.13 181.95 L644.27 172.05 L641.89 186.01 L648.63 179.68 L647.70 189.83 L656.77 179.10 L657.00 186.61 L656.74 194.79 L664.58 187.26 L662.85 197.92 L678.07 177.45 L680.31 180.96 L684.24 181.49 L689.45 179.92 L691.23 184.16 L691.54 190.67 L687.48 203.89 L689.65 206.98 L685.67 219.33 L690.96 217.50 L693.00 220.55 L694.60 224.18 L697.00 226.62 L701.53 226.15 L706.23 225.56 L706.62 230.68 L717.14 222.76 L715.37 230.62 L724.33 225.09 L728.45 225.68 L730.40 228.90 L734.11 230.06 L737.20 231.96 L740.85 233.26 L743.92 235.22 L751.54 232.38 L755.39 233.67 L762.45 231.73 L764.15 235.34 L764.96 239.78 L767.33 242.65 L768.16 246.97 L772.21 248.25 L776.28 249.56 L778.84 252.28 L781.53 254.88 L783.21 258.36 L787.41 259.69 L791.07 261.54 L798.50 260.40 L803.32 261.48 L806.60 263.83 L807.72 267.83 L809.74 271.13 L812.53 273.86 L813.79 277.70 L816.68 280.37 L817.54 284.45 L818.96 288.11 L820.61 291.61 L823.34 294.40 L825.03 297.86 L827.07 301.10 L831.85 302.71 L833.63 306.14 L835.96 309.26 L833.65 314.96 L832.50 319.92 L830.01 325.51 L831.20 329.10 L832.32 332.71 L832.96 336.54 L832.91 340.67 L833.18 344.62 L835.57 347.57 L837.44 350.77 L839.88 353.74 L841.09 357.25 L842.51 360.66 L844.07 364.02 L846.14 367.19 L847.04 370.81 L849.90 373.71 L854.16 376.16 L861.65 377.59 L867.31 379.75 L873.54 381.84 L875.08 385.46 L876.59 389.11 L876.48 393.22 L878.49 396.73 L879.92 400.41 L881.10 404.16 L883.80 407.55 L883.52 411.67 L884.83 415.41 L883.47 419.72 L880.48 424.31 L877.49 428.82 L874.26 433.30 L873.94 437.21 L872.69 441.24 L874.75 444.75 L873.59 448.74 L875.25 452.33 L875.42 456.11 L875.75 459.88 L875.44 463.71 L875.85 467.46 L875.54 471.26 L877.26 474.92 L879.01 478.61 L880.09 482.36 L882.62 486.08 L885.04 489.84 L895.23 493.53 L898.60 497.46 L917.91 500.00 L923.16 495.77 L928.30 491.43 L932.87 487.01 L934.96 482.59 L934.84 478.24 L936.20 473.80 L935.10 469.49 L935.29 465.10 L933.26 460.90 L933.08 456.55 L932.12 452.27 L931.82 447.93 L930.85 443.67 L929.97 439.41 L928.99 435.16 L927.26 431.05 L926.71 426.75 L922.42 423.13 L919.25 419.37 L914.57 415.96 L910.88 412.42 L909.11 408.52 L907.81 404.51 L907.21 400.35 L907.55 395.94 L906.99 391.73 L905.70 387.72 L904.98 383.55 L901.85 380.08 L900.88 375.99 L898.93 372.21 L900.55 367.26 L900.59 362.79 L903.33 357.33 L902.92 352.92 L902.01 348.68 L900.69 344.59 L898.36 340.89 L896.69 336.94 L894.01 333.42 L892.86 329.25 L889.86 325.90 L888.83 321.68 L887.12 317.75 L883.54 314.73 L881.60 310.94 L877.84 308.07 L874.55 305.01 L870.43 302.42 L864.93 300.64 L860.24 298.49 L857.66 295.22 L855.64 291.62 L854.18 287.69 L853.35 283.36 L850.15 280.48 L847.58 277.21 L845.30 273.77 L841.77 271.17 L838.16 268.65 L834.41 266.27 L832.94 262.31 L827.82 260.98 L827.22 256.37 L822.21 255.05 L820.11 251.56 L817.62 248.36 L816.44 244.11 L816.53 238.75 L813.86 235.64 L811.93 231.88 L809.44 228.60 L805.30 226.78 L804.13 222.30 L801.46 219.16 L799.19 215.64 L796.08 212.90 L791.83 211.31 L787.07 210.28 L785.24 206.31 L784.55 201.10 L784.86 194.71 L784.20 189.25 L780.96 186.55 L776.63 185.10 L773.01 182.88 L769.56 180.48 L765.51 178.82 L771.79 164.44 L765.68 165.20 L766.90 156.67 L765.04 151.94 L759.21 152.44 L759.27 145.00 L756.08 141.90 L751.42 140.88 L745.76 141.38 L742.88 137.88 L737.88 137.54 L729.05 143.27 L722.67 145.47 L710.86 156.69 L705.14 158.40 L700.36 158.67 L697.47 155.75 L693.72 154.31 L692.92 147.54 L698.50 128.56 L690.61 134.58 L691.68 123.40 L680.91 135.59 L682.64 122.68 L677.77 123.18 L675.92 117.22 L669.71 120.79 L660.18 132.27 L663.25 114.72 L655.66 122.17 L656.02 110.28 L648.68 117.57 L641.97 123.74 L638.75 120.83 L634.85 119.74 L630.33 120.50 L625.56 122.12 L627.57 102.83 L623.06 103.29 L622.02 92.30 L618.06 90.67 L611.65 97.83 L607.60 96.82 L603.85 94.62 L599.87 93.31 L596.02 91.39 L593.47 83.56 L588.37 86.98 L583.28 90.86 L577.61 98.19 L571.08 111.15 L566.65 113.57 L562.48 114.76 L558.46 115.30 L554.52 115.32 L552.37 101.92 L549.59 91.46 L545.17 93.97 L541.59 88.79 L536.03 104.27 L531.94 105.56 L527.82 107.71 L524.03 105.25 L520.01 106.47 L516.24 102.24 L512.70 87.82 L508.37 97.40 L504.43 89.25 L500.32 101.96 L496.38 106.34 L492.39 103.61 L488.45 104.45 L484.48 104.37 L480.72 108.53 L475.58 88.00 L472.22 99.24 L467.09 85.32 L463.47 91.55 L459.86 96.69 L455.58 94.89 L451.09 91.64 L446.91 91.41 L442.85 92.12 L437.27 82.70 L434.79 93.87 L431.20 97.29 L429.55 111.07 L428.22 125.15 L425.18 129.38 L421.64 130.92 L417.86 131.29 L414.43 133.23 L406.00 114.55 L401.61 113.41 L397.08 111.89 L393.51 114.04 L393.93 130.01 L384.70 112.50 L384.11 124.28 L376.93 114.75 L377.30 128.74 L374.63 133.04 L367.67 124.97 L365.96 131.88 L359.49 125.79 L360.48 139.43 L358.18 144.09 L353.84 143.63 L350.87 146.48 L347.91 149.31 L346.19 154.84 L341.43 153.52 L338.90 157.08 L332.10 151.72 L326.91 149.95 L321.55 148.00 L315.64 145.18 L310.37 143.80 L305.57 143.42 L306.43 153.30 L304.22 157.43 L305.23 166.97 L301.68 168.55 L294.27 163.85 L288.73 162.42 L283.04 160.92 L278.74 161.69 L275.36 163.91 L274.38 169.65 L275.90 178.82 L278.05 188.58 L280.69 198.70 L278.83 202.45 L275.28 203.90 L270.90 204.32 L268.33 207.11 L264.66 208.50 L264.06 213.66 L251.91 204.98 L247.05 205.24 L244.29 207.98 L239.84 208.82 L246.75 222.20 L244.67 225.48 L241.21 227.28 L239.80 231.23 L237.96 234.70 L233.69 235.71 L220.65 228.26 L221.64 234.59 L206.39 225.60 L207.56 232.12 L203.16 233.50 L198.84 235.01 L198.17 239.73 L197.26 244.18 L195.58 247.94 L188.96 247.66 L196.47 258.74 L195.41 262.83 L205.71 275.54 L210.02 283.38 L210.95 288.55 L208.14 290.94 L206.40 294.10 L205.53 297.85 L180.95 285.64 L187.31 294.42 L175.08 291.00 L181.70 299.73 L185.02 306.19 L171.03 302.10 L177.55 310.38 L168.02 309.22 L180.72 320.74 L167.96 317.92 L168.96 322.75 L163.15 323.95 L163.31 328.30 L173.17 337.42 L170.99 340.42 L168.57 343.32 L168.91 347.52 L168.92 351.52 L159.54 351.38 L150.20 351.45 L147.65 354.51 L139.26 355.25 L144.81 361.58 L144.46 365.53 L141.72 368.57 L139.40 371.80 L139.09 375.74 L134.51 378.23 L129.30 380.60 L139.64 387.90 L139.90 391.92 L154.97 400.19 L159.99 405.32 L161.71 409.43 L159.32 412.43 L155.54 415.12 L151.61 417.84 L130.05 416.65 L139.44 422.55 L130.04 424.39 L143.14 430.78 L148.10 435.39 L147.19 438.86 L143.65 441.91 L144.28 445.66 L146.43 449.60 L128.21 450.79 L137.15 455.66 L127.98 458.31 L133.46 462.63 L143.23 467.23 L140.80 470.63 L140.79 474.24 L143.99 478.04 L146.95 481.77 L132.84 484.72 L133.17 488.41 L124.66 491.89 L118.33 495.58 L124.36 499.40 L119.74 503.20 L120.53 506.99 L122.24 510.73 L124.65 514.42 L121.22 518.35 L122.78 522.06 L132.62 525.17 L138.20 528.43 L154.39 530.63 L159.89 533.58 L163.06 536.67 L162.34 540.17 L163.21 543.49 L158.68 547.55 L139.32 553.92 L149.86 555.93 L139.19 561.34 L155.17 562.18 L145.32 567.63 L146.92 570.99 L144.43 575.19 L149.41 577.81 L165.11 577.85 L147.59 585.64 L158.75 586.56 L148.69 592.86 L158.37 593.96 L168.40 594.78 L167.28 598.71 L168.46 601.98 L171.49 604.66 L175.21 607.06 L157.43 616.73 L164.07 618.23 L154.17 625.61 L156.42 628.70 L164.82 629.39 L161.19 634.70 L159.03 639.52 L158.20 643.87 L163.64 645.56 L161.82 650.38 L168.30 651.48 L175.30 652.23 L172.84 657.39 L180.80 657.51 L178.10 662.87 L176.54 667.74 L178.31 670.93 L178.86 674.78 L184.99 675.55 L181.06 681.94 L195.95 677.50 L195.99 681.58 L211.08 676.51 L215.46 677.76 L222.58 677.19 L222.35 681.28 L227.03 682.14 L226.39 686.55 L210.60 701.58 L221.39 698.23 L213.60 708.12 L225.44 703.74 L231.99 703.07 L232.69 706.78 L235.22 709.08 L238.81 710.52 L244.02 710.59 L245.71 713.49 L242.97 720.21 L239.55 727.70 L233.52 737.72 L233.55 742.52 L234.99 746.09 L238.46 747.78 L242.43 748.97 L245.44 751.03 L242.83 758.73 L252.18 754.35 L257.19 754.24 L268.68 747.12 L280.33 739.43 L285.06 739.02 L287.91 740.65 L290.10 743.02 L293.10 744.45 L283.82 760.66 L283.73 766.14 L285.28 769.70 L288.26 771.49 L300.28 761.42 L291.86 778.17 L300.64 772.06 L297.17 782.68 L307.27 774.35 L312.41 772.80 L309.02 783.77 L315.74 779.79 L313.75 789.06 L323.52 780.00 L328.57 778.11 L330.17 781.79 L333.99 781.79 L337.48 782.28 L341.07 782.54 L334.57 801.10 L344.27 790.30 L338.51 808.40 L345.43 802.49 L347.54 805.88 L347.94 812.88 L349.92 816.82 L352.70 819.16 L355.77 820.92 L356.91 827.09 L364.88 817.48 L369.56 815.19 L377.78 803.90 L384.39 795.97 L387.93 795.61 L390.77 797.03 L393.89 797.72 L397.53 796.83 L393.94 817.51 L398.15 815.36 L399.12 823.37 L403.25 821.41 L409.62 811.50 L412.87 811.94 L416.45 811.09 L419.86 810.76 L423.93 807.68 L424.38 819.52 L426.60 824.58 L430.21 823.66 L432.75 827.71 L438.61 815.16 L441.99 814.52 L445.09 815.34 L448.35 815.28 L451.60 815.15 L453.86 821.82 L455.37 835.15 L459.34 830.58 L461.07 844.93 L465.33 837.41 L468.72 837.57 L471.98 839.38 L475.44 838.74 L478.92 837.51 L482.21 839.26 L485.40 844.20 L489.21 833.01 L492.61 829.87 L496.11 814.22 L499.27 805.26 L502.30 801.81 L505.32 802.23 L508.34 802.02 L511.31 800.63 L515.61 827.53 L518.35 818.20 L522.32 829.68 L524.87 819.74 L527.33 811.20 L531.93 826.11 L534.12 815.86 L538.37 824.72 L539.47 807.63 L544.13 818.64 L547.00 816.10 L550.84 819.89 L553.72 817.50 L554.61 804.23 L557.64 803.64 L560.88 804.05 L563.50 801.45 L566.19 799.33 L570.98 806.43 L575.56 812.00 L578.32 809.81 L583.24 815.94 L584.25 807.27 L587.87 808.34 L592.38 812.29 L596.19 813.62 L599.74 813.93 L600.56 805.89 L606.90 814.53 L603.64 795.22 L611.65 808.16 L612.72 801.64 L617.20 804.33 L622.12 807.89 L625.17 806.59 L628.25 805.38 L627.85 796.09 L635.37 805.09 L631.05 787.57 L635.15 788.87 L632.77 776.54 L632.16 768.36 L634.19 765.75 L637.55 765.75 L639.49 763.03 L640.89 759.36 L653.33 775.66 L652.35 767.57 L659.48 773.68 L659.13 766.92 L655.54 755.05 L658.71 754.49 L661.44 753.21 L662.88 749.90 L664.13 746.40 L674.44 756.29 L677.18 754.79 L681.74 755.86 L684.51 754.33 L680.73 743.95 L683.68 742.82 L687.48 742.76 L692.36 743.99 L695.48 742.91 L700.27 743.83 L706.23 746.03 L702.34 736.55 L706.47 736.55 L702.42 727.28 L704.12 724.63 L708.90 725.32 L712.58 724.73 L716.79 724.64 L714.75 718.12 L729.10 728.09 L717.85 712.60 L729.01 719.05 L724.72 710.69 L731.12 712.39 L733.94 710.71 L735.39 707.79 L737.76 705.68 L730.51 695.42 L744.45 703.06 L736.34 692.37 L745.28 695.60 L742.08 689.12 L740.00 683.66 L745.66 684.12 L748.82 682.64 L751.42 680.70 L751.73 677.13 L761.67 680.25 L757.54 673.63 L760.37 671.78 L759.07 667.22 L755.17 661.11 L758.51 659.63 L761.42 657.84 L763.54 655.54 L756.43 647.91 L766.63 650.26 L763.46 645.02 L762.00 640.82 L763.47 638.23 L751.45 628.74 L749.04 624.38 L747.72 620.64 L748.90 618.15 L751.02 616.09 L762.02 618.01 L774.87 620.51 L771.61 615.86 L777.52 615.11 L763.25 606.12 L762.65 602.83 L761.33 599.32 L766.08 598.09 L766.87 595.36 L768.80 593.03 L785.52 595.63 L774.02 588.74 L784.71 589.06 L774.53 582.88 L769.54 578.44 L772.26 576.29 L774.64 574.00 L772.92 570.61 L770.47 567.10 L790.70 569.04 L775.79 562.59 L793.90 563.62 L787.40 559.21 L785.20 555.79 L792.43 554.18 L796.24 551.82 L799.03 549.23 L802.42 546.69 L807.52 544.34 L800.62 540.28 L794.07 536.41 L781.42 531.99 L767.61 527.71 L764.22 524.69 L763.37 521.96 L764.14 519.37 L763.31 516.66 L780.71 514.94 L786.35 512.37 L786.75 509.52 L788.30 506.69 L772.61 503.59 L791.40 500.93 L781.22 498.08 L791.23 495.10 L779.16 492.51 L773.29 489.93 L785.49 486.63 L777.53 484.22 L786.41 480.84 L773.60 478.94 L769.43 476.55 L771.00 473.68 L769.60 471.09 L767.55 468.60 L764.68 466.25 L784.55 460.82 L778.26 458.85 L794.02 453.51 L791.36 450.94 L788.14 448.51 L788.71 445.43 L788.36 442.50 L784.83 440.24 L775.82 439.24 L789.36 433.22 L772.96 434.12 L783.00 428.70 L780.87 426.24 L775.32 424.75 L779.13 420.70 L777.79 418.07 L776.12 415.55 L772.72 413.60 L778.96 408.54 L770.77 408.22 L769.51 405.63 L765.43 404.07 L758.79 403.53 L760.70 399.84 L762.30 396.20 L762.83 392.94 L759.51 391.25 L759.57 388.16 L761.70 384.13 L752.56 385.14 L761.02 378.13 L752.87 378.84 L755.02 374.66 L756.25 370.86 L754.17 368.70 L753.51 365.82 L745.68 366.80 L752.10 360.04 L734.95 366.47 L743.21 358.54 L734.89 360.21 L736.40 356.10 L739.15 351.12 L737.87 348.60 L738.32 344.95 L737.11 342.34 L740.75 336.42 L728.47 341.40 L724.18 341.03 L709.62 348.18 L700.21 351.93 L695.95 352.02 L694.88 349.75 L693.16 347.97 L690.63 346.84 L709.36 328.32 L701.49 331.38 L708.15 322.24 L699.41 326.23 L691.03 330.14 L700.91 317.72 L691.39 322.84 L696.87 314.08 L683.27 323.42 L689.16 314.06 L686.82 312.65 L687.38 308.29 L684.56 307.36 L672.94 315.84 L670.99 314.23 L669.93 311.63 L666.75 311.40 L663.81 310.95 L666.70 303.68 L670.07 295.61 L666.25 296.08 L670.54 286.49 L662.37 292.50 L661.51 289.29 L661.44 284.97 L659.65 282.86 L658.57 279.75 L656.99 277.28 L658.05 270.94 L648.19 280.57 L645.09 280.46 L633.83 293.03 L627.90 297.79 L623.95 299.62 L622.48 297.51 L620.21 296.69 L617.62 296.45 L629.10 271.34 L621.01 280.58 L625.31 267.30 L616.87 277.69 L611.00 283.62 L607.84 284.51 L606.52 281.72 L603.79 281.79 L600.43 283.31 L607.27 262.33 L601.69 268.57 L602.73 259.69 L598.05 264.14 L590.77 275.35 L588.99 273.26 L586.89 271.91 L583.94 272.86 L580.90 274.17 L583.00 260.80 L580.54 260.17 L579.61 254.85 L578.96 248.30 L574.09 255.28 L573.26 248.98 L571.70 244.87 L569.30 243.61 L567.03 241.77 L564.79 239.73 L562.42 238.09 L556.82 250.57 L553.41 254.22 L547.42 270.77 L544.13 275.37 L541.35 277.82 L539.32 276.29 L537.01 276.33 L535.15 273.56 L536.23 250.13 L532.26 260.63 L531.39 248.11 L527.23 262.12 L525.60 254.64 L523.37 252.03 L520.94 251.22 L518.31 253.00 L514.76 269.57 L513.52 249.85 L510.54 260.51 L508.57 247.92 L505.83 256.94 L503.25 267.71 L500.93 265.30 L498.59 265.48 L496.27 267.44 L494.03 270.58 L491.08 252.41 L488.68 254.14 L485.47 240.95 L482.78 239.62 L480.66 246.08 L478.06 245.58 L475.63 247.02 L473.23 248.47 L471.15 252.45 L468.35 250.17 L466.19 252.93 L464.27 257.06 L461.02 252.19 L459.43 257.86 L456.04 252.82 L453.14 251.01 L450.51 250.77 L447.78 250.10 L446.49 256.18 L442.37 249.39 L444.02 267.23 L441.31 266.27 L442.74 281.27 L441.16 284.07 L439.58 286.67 L436.59 284.39 L435.38 288.13 L433.31 288.91 L424.75 269.86 L426.44 282.42 L419.73 270.17 L421.61 282.55 L422.13 290.60 L419.46 289.87 L417.40 290.77 L416.27 293.98 L415.50 297.91 L411.11 293.23 L409.93 296.13 L403.31 286.95 L399.03 283.28 L394.87 280.14 L391.00 277.78 L388.12 277.57 L386.63 280.11 L384.84 282.01 L386.85 290.90 L386.80 295.73 L386.93 300.68 L382.78 298.11 L377.91 294.48 L372.51 290.19 L369.99 290.78 L368.26 292.65 L368.91 298.17 L372.06 307.26 L373.88 314.06 L375.18 319.89 L369.85 316.15 L363.44 311.13 L361.08 311.86 L359.99 314.30 L359.15 317.01 L357.43 318.56 L356.37 320.93 L354.09 321.77 L355.61 327.19 L351.98 326.40 L348.18 325.50 L344.36 324.69 L342.10 325.68 L340.39 327.30 L340.62 330.97 L339.11 332.75 L343.35 340.39 L343.30 343.49 L343.09 346.39 L339.21 345.71 L333.68 343.57 L330.84 344.06 L329.05 345.54 L329.68 349.17 L335.42 357.16 L335.76 360.32 L343.78 369.81 L342.96 371.76 L341.39 373.10 L339.75 374.40 L338.32 375.87 L337.94 378.13 L337.70 380.47 L337.67 382.94 L334.64 383.25 L333.92 385.21 L329.83 384.88 L328.09 386.19 L326.80 387.82 L323.90 388.42 L324.80 391.43 L322.73 392.59 L322.87 395.07 L320.99 396.37 L322.38 399.53 L322.33 401.83 L321.47 403.68 L320.57 405.49 L317.01 405.94 L313.88 406.68 L314.33 409.22 L312.98 410.86 L312.89 413.10 L309.90 414.02 L309.49 416.11 L301.71 415.05 L297.97 415.82 L292.17 415.84 L288.01 416.61 L286.08 418.31 L284.95 420.34 L284.97 422.78 L294.21 428.41 L300.28 432.76 L311.94 438.77 L319.03 443.07 L318.06 444.76 L318.72 446.93 L317.79 448.63 L317.37 450.48 L317.89 452.57 L313.87 453.51 L315.21 455.80 L312.31 457.09 L312.01 458.99 L311.51 460.85 L312.98 463.10 L313.18 465.08 L313.78 467.12 L314.62 469.17 L315.94 471.28 L316.77 473.29 L317.26 475.22 L312.83 476.52 L309.23 478.01 L305.02 479.49 L303.57 481.33 L305.40 483.46 L306.60 485.51 L313.36 487.89 L310.14 489.59 L309.12 491.45 L301.16 493.08 L293.72 494.89 L290.35 496.90 L286.03 498.98 L283.75 501.13 L282.15 503.32 L293.64 505.21 L294.44 507.24 L305.53 508.80 L302.99 510.89 L295.54 513.35 L291.22 515.73 L286.43 518.25 L284.57 520.58 L283.57 522.86 L288.07 524.53 L299.85 525.20 L308.43 526.06 L320.16 526.30 L320.66 528.06 L317.40 530.45 L316.65 532.46 L316.05 534.47 L317.15 536.16 L320.77 537.31 L325.34 538.18 L327.55 539.51 L328.69 541.06 L324.53 543.91 L322.49 546.32 L319.12 549.13 L319.53 550.96 L321.71 552.28 L324.20 553.46 L330.63 553.36 L330.17 555.38 L329.48 557.50 L322.57 561.81 L316.92 565.84 L312.29 569.63 L311.93 571.91 L310.54 574.62 L310.91 576.67 L310.77 578.94 L306.85 582.86 L319.31 579.66 L321.85 580.68 L338.24 575.21 L343.65 574.60 L347.14 574.83 L346.89 576.85 L348.11 578.15 L347.55 580.38 L327.14 593.36 L338.35 589.41 L327.81 597.50 L340.95 592.17 L336.97 596.67 L334.90 600.14 L336.89 601.18 L337.90 602.81 L353.16 595.20 L339.35 606.46 L348.32 602.71 L340.66 610.24 L347.76 607.59 L357.44 602.90 L356.72 605.62 L357.96 606.91 L360.70 607.05 L363.74 606.89 L352.43 618.17 L352.51 620.55 L348.63 626.27 L348.05 629.35 L355.21 625.77 L357.14 626.63 L357.08 629.25 L358.13 630.90 L358.26 633.44 L355.64 638.65 L356.92 640.20 L364.75 635.20 L370.35 632.22 L383.08 621.65 L387.31 619.62 L389.78 619.37 L390.21 621.32 L389.37 624.73 L385.49 631.73 L376.79 644.64 L383.85 639.14 L381.30 645.13 L392.99 633.53 L395.46 633.15 L397.04 633.88 L395.80 638.34 L398.18 638.03 L399.95 638.51 L392.03 652.66 L400.44 643.80 L395.90 653.61 L402.58 646.90 L407.72 642.22 L407.33 645.99 L409.79 645.32 L412.56 644.05 L416.21 641.20 L407.47 659.54 L414.38 651.08 L408.73 664.88 L412.46 661.94 L415.82 659.52 L415.47 664.14 L415.47 668.26 L416.94 669.52 L418.62 670.38 L417.86 676.49 L422.50 670.99 L426.66 666.20 L432.33 657.61 L439.63 644.57 L442.51 641.64 L444.46 640.87 L445.64 642.01 L447.37 641.73 L444.09 655.29 L442.47 664.94 L444.94 663.09 L445.36 667.37 L451.81 652.75 L448.13 670.35 L452.25 662.63 L451.40 671.88 L456.03 661.64 L459.82 653.79 L458.01 667.55 L461.70 659.55 L460.85 670.61 L465.16 659.08 L467.65 655.13 L468.92 656.91 L470.69 656.13 L472.59 654.53 L474.77 650.99 L473.06 671.77 L475.51 667.06 L474.97 683.53 L477.10 681.42 L479.31 678.24 L480.92 680.06 L482.68 680.68 L484.38 682.07 L486.97 672.10 L487.88 684.53 L490.79 665.64 L492.06 674.10 L493.92 670.89 L495.64 670.27 L497.24 677.07 L498.99 680.29 L500.80 681.05 L502.61 680.87 L504.45 682.07 L506.13 677.94 L507.47 668.06 L508.87 662.73 L509.59 648.68 L511.06 648.33 L512.43 646.86 L514.12 649.11 L515.18 644.88 L517.61 653.23 L520.25 661.92 L521.16 656.50 L523.71 663.00 L523.33 649.88 L524.31 646.52 L526.10 648.10 L527.29 646.29 L528.29 643.65 L528.91 639.46 L532.87 650.93 L534.55 651.34 L537.14 655.53 L540.29 661.56 L540.68 656.44 L543.47 660.53 L546.06 663.61 L548.05 664.35 L549.43 663.02 L550.87 661.90 L552.14 660.34 L553.46 658.95 L554.10 655.71 L557.69 660.83 L555.21 649.19 L558.64 653.72 L558.68 649.33 L560.19 648.77 L563.37 652.25 L564.24 650.08 L565.35 648.56 L566.15 646.39 L568.31 647.23 L568.79 644.45 L566.65 636.43 L573.23 646.18 L567.91 632.25 L575.46 643.39 L576.38 641.69 L577.42 640.24 L580.76 642.88 L583.86 644.98 L581.68 638.00 L583.90 638.58 L584.24 636.05 L585.33 634.77 L586.28 633.31 L591.93 638.98 L590.00 633.13 L588.80 628.58 L590.44 628.19 L587.91 621.99 L590.64 623.17 L593.66 624.64 L595.26 624.16 L596.01 622.58 L596.85 621.14 L598.02 620.12 L600.24 620.36 L600.53 618.28 L604.72 620.74 L601.12 614.27 L602.59 613.62 L600.89 609.51 L600.99 607.45 L604.07 608.53 L605.17 607.51 L606.72 606.93 L608.65 606.71 L610.16 606.05 L604.71 598.80 L604.67 596.80 L608.77 598.60 L603.10 591.60 L608.98 594.89 L603.30 588.14 L597.39 581.43 L597.72 580.06 L597.06 577.91 L594.98 574.69 L595.22 573.35 L595.85 572.32 L601.47 574.98 L604.71 575.77 L620.52 585.38 L616.18 580.58 L620.49 581.79 L614.70 576.20 L607.85 570.10 L608.37 568.91 L612.79 570.15 L612.22 568.25 L613.94 567.74 L612.42 565.32 L608.32 561.50 L608.88 560.39 L616.60 563.15 L621.30 564.13 L622.91 563.42 L624.02 562.43 L614.80 556.36 L612.88 554.02 L615.09 553.67 L615.60 552.51 L620.66 553.36 L618.38 550.94 L618.60 549.64 L614.28 546.49 L606.75 542.19 L612.58 543.20 L615.03 542.82 L623.12 544.44 L629.13 545.15 L629.37 543.79 L629.80 542.49 L631.30 541.54 L630.87 539.96 L634.28 539.54 L633.83 537.96 L633.33 536.38 L622.20 532.03 L615.69 529.09 L601.81 524.52 L595.58 522.01 L594.95 520.87 L594.83 519.85 L594.77 518.85 L594.71 517.86 L594.63 516.86 L594.54 515.88 L594.44 514.89 L594.33 513.91 L594.21 512.93 L594.08 511.95 L593.95 510.98 L593.80 510.02 L593.64 509.05 L593.47 508.09 L593.29 507.14 L593.10 506.19 L592.91 505.24 L592.70 504.30 L592.48 503.37 L592.26 502.43 L592.02 501.51 L591.77 500.58 Z"/>
  <svg class="pausebutton" id="pausebutton">
    <circle cx="500" cy="500" id="pausestart" class="pausestart" r="52.65"/>
    <rect height="50.02" width="10.00" y="473.68" rx="2.00" ry="2.00" x="479.99" class="pausesymbol"/>
    <rect height="50.02" width="10.00" y="473.68" rx="2.00" ry="2.00" x="510.00" class="pausesymbol"/>
    <polygon points="530.01,500 479.99,530.01 479.99,469.99" class="playsymbol"/>
  </svg>
  <polygon id="playback-head" class="playback-head" points="912.475,500 892.475,540 932.475,540"/>
</svg>