<?xml-stylesheet href="../../style/waveformjs.css" type="text/css"?>
<svg xmlns="http://www.w3.org/2000/svg" xmlns:xlink="http://www.w3.org/1999/xlink" width="100%" height="100%" viewBox="0 0 1000 1000">
  <path class="svg-wave" id="sp" d="M595.95 500.00 L595.87 500.96 L594.83 501.90 L591.31 502.74 L586.60 503.47 L586.66 504.34 L586.84 505.22 L586.86 506.09 L588.63 507.11 L590.93 508.21 L589.27 508.96 L584.64 509.35 L581.99 509.89 L579.58 510.40 L580.17 511.30 L583.83 512.67 L584.63 513.66 L586.22 514.80 L586.85 515.80 L584.73 516.29 L584.11 517.05 L586.86 518.51 L585.11 519.03 L584.62 519.81 L584.21 520.61 L582.29 521.01 L581.26 521.62 L583.58 523.13 L585.00 524.44 L588.42 526.39 L592.53 528.62 L591.85 529.42 L591.32 530.26 L590.97 531.16 L590.09 531.87 L587.62 531.99 L586.57 532.59 L585.72 533.25 L583.19 533.23 L582.42 533.88 L581.32 534.38 L580.24 534.88 L579.03 535.29 L577.79 535.68 L576.55 536.04 L575.70 536.57 L574.64 536.98 L573.77 537.47 L572.98 537.99 L572.40 538.62 L572.57 539.65 L573.81 541.28 L577.10 544.14 L578.24 545.84 L577.79 546.63 L578.30 548.01 L576.03 547.66 L575.32 548.28 L576.67 550.23 L575.93 550.84 L576.42 552.28 L577.63 554.25 L576.14 554.36 L574.77 554.52 L575.65 556.33 L574.25 556.45 L573.36 556.93 L573.91 558.56 L572.40 558.55 L570.67 558.33 L573.61 562.00 L573.15 562.87 L573.19 564.19 L573.58 565.85 L570.18 564.08 L568.08 563.42 L566.47 563.18 L566.20 564.19 L568.33 567.60 L567.52 568.15 L567.75 569.75 L568.22 571.66 L566.40 571.17 L565.02 571.09 L566.35 574.02 L564.72 573.68 L563.08 573.27 L562.57 574.16 L561.47 574.35 L560.18 574.30 L561.35 577.32 L561.51 579.13 L563.00 582.74 L564.69 586.74 L563.54 587.00 L562.19 586.97 L561.34 587.62 L560.13 587.74 L557.99 586.46 L556.09 585.47 L555.02 585.69 L552.78 584.04 L551.38 583.65 L550.37 583.87 L549.28 583.95 L548.22 584.07 L547.26 584.34 L546.33 584.64 L545.31 584.79 L544.41 585.13 L543.53 585.53 L542.73 586.07 L541.88 586.53 L541.18 587.28 L540.89 588.96 L541.47 592.66 L541.08 594.32 L540.33 595.17 L539.71 596.38 L538.30 595.67 L537.34 596.05 L536.14 595.78 L535.59 597.26 L535.05 598.84 L534.90 601.63 L533.49 600.78 L532.37 600.77 L531.69 602.15 L530.35 601.39 L528.94 600.32 L527.35 598.51 L526.35 598.73 L525.54 599.70 L524.90 601.40 L524.22 603.09 L523.83 606.15 L523.08 607.85 L521.14 603.86 L519.77 602.35 L518.47 601.06 L517.46 601.23 L517.13 605.63 L516.16 606.34 L515.31 608.00 L514.45 609.84 L513.09 607.80 L511.99 607.73 L511.20 610.78 L509.98 609.59 L508.81 608.85 L507.75 609.30 L506.58 608.06 L505.43 606.87 L504.47 609.50 L503.42 610.90 L502.38 614.30 L501.29 619.75 L500.10 619.56 L498.90 619.20 L497.71 619.31 L496.53 618.64 L495.43 616.46 L494.31 615.57 L493.18 615.05 L492.19 612.73 L491.12 611.84 L490.05 611.22 L489.03 610.22 L488.03 609.20 L487.05 608.12 L486.07 607.18 L485.14 606.08 L484.14 605.48 L483.21 604.56 L482.25 603.91 L481.24 603.59 L480.14 603.70 L478.81 604.98 L477.51 605.95 L476.18 606.91 L474.75 608.23 L473.49 608.69 L472.81 606.86 L471.57 607.20 L470.32 607.56 L469.28 607.17 L467.96 607.69 L466.26 609.38 L465.30 608.62 L464.25 608.16 L462.79 608.93 L461.56 608.95 L460.70 607.93 L459.58 607.63 L458.23 607.96 L457.41 606.87 L455.13 609.42 L453.53 610.16 L452.14 610.35 L450.30 611.54 L450.67 607.79 L450.48 605.41 L450.16 603.38 L449.21 602.72 L446.10 606.33 L445.12 605.62 L443.76 605.64 L441.51 607.28 L441.22 605.28 L441.04 603.16 L438.29 605.51 L437.71 604.10 L437.31 602.43 L436.13 602.05 L435.71 600.47 L434.97 599.42 L432.87 600.44 L430.74 601.41 L427.59 603.78 L423.98 606.66 L422.92 605.90 L422.41 604.38 L421.40 603.57 L420.69 602.36 L420.75 600.20 L421.21 597.59 L420.52 596.46 L420.94 594.02 L420.96 592.11 L420.36 590.95 L419.55 590.04 L419.13 588.71 L418.42 587.71 L417.64 586.79 L416.90 585.84 L416.21 584.83 L415.20 584.15 L414.30 583.37 L413.29 582.67 L412.54 581.74 L410.90 581.61 L408.05 582.55 L405.63 583.03 L404.49 582.36 L403.26 581.74 L402.68 580.59 L402.39 579.19 L402.80 577.26 L401.53 576.67 L400.00 576.28 L397.73 576.40 L397.65 574.87 L396.08 574.44 L394.86 573.73 L393.45 573.15 L394.09 571.16 L394.99 569.04 L394.45 567.89 L393.44 567.05 L392.18 566.34 L389.86 566.26 L386.83 566.55 L383.95 566.69 L387.04 563.42 L388.25 561.28 L389.05 559.40 L388.75 558.14 L384.31 559.00 L383.25 558.07 L381.04 557.70 L378.86 557.26 L380.18 555.18 L380.32 553.67 L377.09 553.65 L377.49 552.03 L377.83 550.45 L376.69 549.48 L377.82 547.61 L378.31 546.02 L376.04 545.47 L373.98 544.80 L370.33 544.65 L365.05 544.96 L364.11 543.77 L363.98 542.31 L363.73 540.90 L363.64 539.44 L365.17 537.55 L365.96 535.89 L366.03 534.44 L367.74 532.59 L368.44 531.03 L368.56 529.61 L369.25 528.09 L369.59 526.65 L370.40 525.14 L371.00 523.69 L371.59 522.25 L371.99 520.87 L372.39 519.49 L372.68 518.15 L372.96 516.81 L372.32 515.60 L371.10 514.44 L369.66 513.29 L368.56 512.07 L366.76 510.90 L366.43 509.58 L367.74 508.16 L366.20 506.91 L363.97 505.66 L363.20 504.32 L362.94 502.96 L359.53 501.63 L360.27 500.22 L362.12 498.84 L361.84 497.46 L361.50 496.06 L361.79 494.69 L362.16 493.32 L361.66 491.91 L362.10 490.55 L360.51 489.04 L358.08 487.42 L357.52 485.93 L355.37 484.26 L358.65 483.18 L361.34 482.10 L363.40 480.97 L363.96 479.66 L360.09 477.65 L359.86 476.17 L359.64 474.69 L357.31 472.79 L358.94 471.64 L360.98 470.60 L359.03 468.71 L359.07 467.24 L360.92 466.20 L360.90 464.72 L362.17 463.57 L363.23 462.38 L362.01 460.56 L360.28 458.55 L357.94 456.30 L353.66 453.38 L353.55 451.73 L354.87 450.55 L355.70 449.21 L356.37 447.83 L358.33 446.93 L361.37 446.48 L362.28 445.25 L364.64 444.61 L366.90 443.97 L367.90 442.84 L368.70 441.61 L369.85 440.56 L370.59 439.33 L371.50 438.18 L372.26 436.96 L373.39 435.94 L373.78 434.55 L374.69 433.42 L374.95 431.94 L375.63 430.69 L375.41 428.93 L373.70 426.27 L372.15 423.64 L372.49 422.10 L372.97 420.64 L374.16 419.62 L375.38 418.64 L377.36 418.17 L377.95 416.79 L379.32 415.94 L380.05 414.65 L380.64 413.26 L382.88 413.09 L384.56 412.53 L385.24 411.22 L385.68 409.72 L385.78 407.93 L386.76 406.85 L387.13 405.24 L387.49 403.60 L388.79 402.77 L389.44 401.37 L390.29 400.15 L391.34 399.10 L392.19 397.86 L392.95 396.53 L393.86 395.33 L395.10 394.46 L396.16 393.42 L397.00 392.15 L397.59 390.60 L398.85 389.75 L399.22 387.92 L399.92 386.44 L401.20 385.61 L401.97 384.18 L402.75 382.74 L404.19 382.09 L405.36 381.12 L406.11 379.62 L407.35 378.73 L408.67 377.94 L409.66 376.71 L410.59 375.39 L411.69 374.29 L413.09 373.61 L414.47 372.91 L415.06 371.03 L416.49 370.40 L417.33 368.83 L417.94 366.87 L418.73 365.15 L419.94 364.11 L421.44 363.55 L422.74 362.65 L424.36 362.32 L425.82 361.73 L427.13 360.85 L428.54 360.15 L429.54 358.64 L431.01 358.04 L432.48 357.46 L433.91 356.79 L435.01 355.40 L436.40 354.62 L438.09 354.53 L439.31 353.35 L440.96 353.20 L442.67 353.24 L443.95 352.16 L444.79 349.86 L444.80 345.13 L445.80 343.00 L446.46 339.71 L446.97 335.80 L448.71 335.60 L450.59 335.84 L452.50 336.30 L454.22 336.12 L455.71 335.08 L457.47 335.09 L459.02 334.25 L460.58 333.45 L462.18 332.74 L463.92 332.69 L465.60 332.34 L467.34 332.32 L469.00 331.94 L470.66 331.48 L472.36 331.29 L474.07 331.15 L475.77 330.96 L477.53 331.27 L479.32 331.85 L481.03 331.95 L482.66 331.25 L484.42 331.86 L486.05 331.04 L487.74 330.91 L489.44 330.88 L491.13 330.80 L492.83 330.91 L494.52 330.71 L496.21 330.95 L497.90 330.50 L499.60 330.66 L501.29 330.56 L502.98 330.94 L504.66 331.26 L506.34 331.55 L508.01 331.90 L509.74 331.17 L511.43 331.17 L513.15 330.91 L514.89 330.51 L516.58 330.68 L518.27 330.90 L519.87 331.86 L521.57 331.87 L523.16 332.73 L524.87 332.74 L526.46 333.49 L528.20 333.31 L529.66 334.74 L531.30 335.10 L532.99 335.21 L534.59 335.80 L536.36 335.55 L538.09 335.56 L539.82 335.59 L541.60 335.43 L543.25 335.83 L544.93 336.13 L546.80 335.78 L548.71 335.33 L550.05 336.83 L551.65 337.42 L553.25 338.02 L554.73 338.96 L556.21 339.88 L557.85 340.33 L559.50 340.76 L561.14 341.26 L562.83 341.61 L564.49 342.04 L566.05 342.73 L567.80 342.99 L569.51 343.34 L571.06 344.08 L572.56 344.91 L574.30 345.24 L575.79 346.11 L577.25 347.02 L578.88 347.60 L580.49 348.23 L582.05 348.96 L583.70 349.53 L585.23 350.32 L586.83 351.00 L588.43 351.67 L590.29 351.95 L591.91 352.62 L593.38 353.54 L595.11 354.07 L596.72 354.80 L598.13 355.83 L599.65 356.70 L601.18 357.56 L602.57 358.62 L604.20 359.34 L606.21 359.59 L607.77 360.45 L609.57 361.01 L612.28 360.47 L613.03 362.39 L615.21 362.56 L617.70 362.40 L618.33 364.43 L619.88 365.40 L621.00 366.84 L622.04 368.37 L622.81 370.17 L623.87 371.65 L625.09 372.95 L626.38 374.18 L628.05 375.04 L629.80 375.84 L631.40 376.81 L633.13 377.66 L634.93 378.47 L636.58 379.44 L638.17 380.47 L639.50 381.74 L640.49 383.30 L641.54 384.80 L642.77 386.15 L644.85 386.84 L648.27 386.54 L649.88 387.67 L653.18 387.56 L657.00 387.16 L657.76 388.99 L659.51 390.12 L660.43 391.84 L661.52 393.44 L662.41 395.17 L663.33 396.88 L664.11 398.66 L664.77 400.52 L666.07 401.99 L666.66 403.87 L667.48 405.62 L668.49 407.26 L669.40 408.95 L670.10 410.76 L670.84 412.53 L671.64 414.28 L672.14 416.17 L673.15 417.81 L673.65 419.69 L674.30 421.50 L674.88 423.33 L675.64 425.08 L676.31 426.87 L676.93 428.68 L677.81 430.38 L678.31 432.23 L679.33 433.89 L679.69 435.79 L680.38 437.57 L680.97 439.39 L681.60 441.19 L682.13 443.02 L682.47 444.91 L683.26 446.67 L683.79 448.50 L684.89 450.18 L685.57 451.99 L686.27 453.79 L686.84 455.62 L686.69 457.63 L686.88 459.55 L686.99 461.48 L687.47 463.33 L688.01 465.17 L689.42 466.86 L690.20 468.68 L690.51 470.59 L691.53 472.39 L690.76 474.44 L690.77 476.38 L691.25 478.26 L690.89 480.23 L691.05 482.15 L691.49 484.03 L691.97 485.93 L692.26 487.84 L691.95 489.78 L690.42 491.77 L688.52 493.74 L687.76 495.65 L685.72 497.55 L681.88 499.42 L680.10 501.23 L679.56 503.02 L679.79 504.82 L680.13 506.63 L679.24 508.40 L681.64 510.33 L681.10 512.12 L681.54 513.97 L682.62 515.89 L681.57 517.63 L682.48 519.57 L681.53 521.30 L680.39 523.00 L679.07 524.65 L676.34 526.08 L676.75 527.95 L677.42 529.87 L676.84 531.60 L678.30 533.70 L679.71 535.83 L677.41 537.22 L680.11 539.67 L678.98 541.31 L679.13 543.23 L679.06 545.11 L677.17 546.53 L676.39 548.21 L677.33 550.38 L682.63 553.87 L685.07 556.60 L686.86 559.20 L693.23 563.35 L691.98 565.08 L688.45 565.99 L688.81 568.24 L685.95 569.32 L680.02 569.16 L682.08 572.05 L682.27 574.24 L678.98 575.00 L676.23 575.93 L679.44 579.45 L677.79 580.85 L675.72 582.04 L674.39 583.55 L672.73 584.89 L670.78 586.07 L669.01 587.31 L666.99 588.39 L665.70 589.84 L664.43 591.29 L662.68 592.46 L661.46 593.91 L661.89 596.34 L662.10 598.67 L660.65 600.01 L659.93 601.79 L659.61 603.85 L657.76 604.91 L657.72 607.16 L657.72 609.49 L656.86 611.23 L655.82 612.85 L654.20 614.04 L652.13 614.89 L651.16 616.55 L650.04 618.09 L647.59 618.57 L649.00 622.18 L648.14 623.97 L647.32 625.81 L647.45 628.49 L645.33 629.23 L645.55 632.06 L644.31 633.58 L641.49 633.62 L639.36 634.27 L637.30 634.96 L635.46 635.85 L634.47 637.58 L632.40 638.19 L632.22 640.80 L631.59 642.97 L628.82 642.80 L629.65 646.64 L627.99 647.71 L626.87 649.41 L625.84 651.24 L623.08 650.97 L621.56 652.18 L620.57 654.08 L622.66 660.02 L623.16 664.05 L622.88 667.13 L625.89 674.87 L623.57 675.31 L620.06 674.00 L618.40 675.32 L615.84 675.29 L611.07 671.78 L610.48 674.67 L609.04 676.26 L606.25 675.67 L603.16 674.46 L603.17 678.54 L601.22 679.27 L599.08 679.66 L596.89 679.91 L594.81 680.35 L592.52 680.35 L590.48 680.81 L588.14 680.63 L586.09 681.00 L584.17 681.62 L582.09 681.88 L579.95 681.97 L578.96 684.71 L577.18 685.65 L575.23 686.21 L573.65 687.68 L571.86 688.64 L569.67 688.53 L568.07 690.03 L566.67 692.15 L564.81 692.99 L563.00 694.01 L560.90 694.12 L558.65 693.71 L556.75 694.44 L555.02 695.77 L552.63 694.71 L551.35 697.83 L549.31 698.08 L547.50 699.27 L545.96 701.77 L543.63 700.78 L541.86 702.35 L539.81 702.64 L537.41 701.04 L535.29 700.77 L532.94 699.09 L530.93 699.28 L529.18 701.29 L527.13 701.27 L525.28 702.86 L523.39 704.29 L521.20 703.19 L519.37 705.53 L517.36 706.27 L515.30 706.43 L513.30 707.52 L511.11 705.54 L509.05 705.58 L507.02 706.47 L505.09 712.22 L503.03 716.41 L500.87 718.40 L498.64 725.80 L496.37 726.29 L494.20 723.05 L491.97 722.96 L489.78 721.98 L487.88 716.17 L485.61 717.61 L483.36 718.51 L481.33 716.46 L479.38 714.13 L476.90 717.07 L474.73 716.86 L472.70 715.49 L470.63 714.60 L468.63 713.30 L466.73 711.54 L464.79 710.15 L462.80 709.13 L460.82 708.20 L459.06 706.15 L457.13 705.16 L455.15 704.36 L452.63 706.01 L450.39 706.28 L448.34 705.73 L446.09 705.94 L443.82 706.17 L442.05 704.60 L439.85 704.54 L437.33 705.48 L435.19 705.12 L433.01 704.87 L431.09 703.82 L429.54 701.73 L427.65 700.67 L425.29 700.90 L424.00 698.29 L421.06 699.95 L418.75 699.93 L416.44 699.85 L413.59 701.00 L411.95 699.30 L409.25 699.96 L407.26 699.04 L405.88 696.85 L404.47 694.77 L403.02 692.81 L401.36 691.33 L399.21 690.80 L397.79 688.87 L395.59 688.41 L392.68 689.18 L391.73 686.49 L388.44 687.81 L386.34 687.05 L384.39 686.05 L381.97 685.76 L381.30 682.76 L379.51 681.51 L377.44 680.68 L372.82 683.52 L368.23 686.14 L365.21 686.42 L359.03 690.91 L356.69 690.08 L356.78 686.06 L355.23 684.24 L353.68 682.42 L355.30 676.75 L352.89 676.07 L350.65 675.17 L350.03 672.37 L350.11 668.84 L346.62 669.32 L344.53 668.23 L343.45 666.03 L342.30 663.93 L341.21 661.79 L340.25 659.55 L339.12 657.50 L338.12 655.34 L336.86 653.44 L336.29 650.93 L334.94 649.14 L334.18 646.84 L331.29 646.42 L329.57 644.95 L327.86 643.46 L325.68 642.35 L324.22 640.63 L323.66 638.21 L321.83 636.79 L319.31 635.88 L317.62 634.32 L315.69 632.92 L315.20 630.48 L314.59 628.15 L312.79 626.65 L311.42 624.85 L310.70 622.61 L307.53 621.95 L306.89 619.67 L305.33 617.96 L302.37 617.06 L302.86 614.13 L300.02 613.12 L298.20 611.50 L299.57 608.14 L299.05 605.84 L299.31 603.15 L299.03 600.77 L296.49 599.51 L295.73 597.36 L294.05 595.64 L291.11 594.48 L291.46 591.83 L289.03 590.39 L287.62 588.49 L287.00 586.26 L285.48 584.39 L286.33 581.60 L285.62 579.42 L284.29 577.47 L279.20 576.81 L273.08 576.40 L270.64 574.68 L263.25 574.48 L260.45 572.73 L263.04 569.37 L262.72 566.89 L262.04 564.52 L267.04 560.67 L266.07 558.43 L264.07 556.43 L265.61 553.59 L267.29 550.76 L265.09 548.79 L263.38 546.68 L263.85 544.14 L264.28 541.62 L264.75 539.12 L265.38 536.61 L265.70 534.16 L266.27 531.69 L266.97 529.23 L268.59 526.68 L268.65 524.33 L268.93 521.97 L267.48 519.76 L267.21 517.44 L266.03 515.18 L264.63 512.91 L264.25 510.56 L265.23 508.17 L264.20 505.84 L262.82 503.51 L262.53 501.13 L262.25 498.76 L262.29 496.38 L263.80 494.04 L263.56 491.67 L263.65 489.30 L265.05 487.01 L263.75 484.57 L262.12 482.07 L261.43 479.62 L260.07 477.08 L261.12 474.77 L259.42 472.16 L258.64 469.62 L260.42 467.40 L262.42 465.25 L263.77 463.04 L264.91 460.80 L265.24 458.44 L265.37 456.04 L266.28 453.78 L263.96 450.87 L266.39 448.93 L265.04 446.17 L265.29 443.75 L265.95 441.43 L265.38 438.78 L267.46 436.84 L268.53 434.64 L268.78 432.20 L265.62 428.72 L260.84 424.65 L259.93 421.71 L254.12 417.09 L252.52 413.78 L256.69 412.50 L258.50 410.41 L258.60 407.69 L264.86 407.38 L265.98 405.11 L265.75 402.28 L268.60 400.74 L271.73 399.37 L272.07 396.78 L271.47 393.75 L273.15 391.75 L275.00 389.86 L276.77 387.95 L278.41 385.98 L280.31 384.17 L281.95 382.23 L284.05 380.56 L286.99 379.38 L288.05 377.17 L290.19 375.59 L290.74 373.07 L290.97 370.34 L291.63 367.84 L292.15 365.24 L293.76 363.34 L295.33 361.41 L296.40 359.14 L296.94 356.49 L297.75 354.01 L299.11 351.92 L300.59 349.91 L303.02 348.62 L303.86 346.13 L305.64 344.36 L307.88 342.97 L308.15 339.97 L309.15 337.53 L311.26 336.05 L311.27 332.72 L314.32 332.08 L314.10 328.47 L315.26 326.09 L318.55 325.73 L320.98 324.59 L323.51 323.58 L326.44 323.00 L327.07 320.08 L328.14 317.57 L331.06 317.04 L330.28 312.47 L333.09 311.82 L334.72 309.86 L335.83 307.28 L337.72 305.60 L339.44 303.70 L342.46 303.42 L344.27 301.64 L346.47 300.36 L346.23 295.86 L344.46 289.15 L345.56 286.20 L344.16 279.65 L344.14 274.88 L348.30 276.14 L351.23 275.67 L352.72 273.02 L358.04 276.35 L360.73 275.66 L362.09 272.82 L365.11 272.70 L368.65 273.52 L370.57 271.61 L372.00 268.77 L374.72 268.24 L377.52 267.90 L380.22 267.42 L382.96 267.05 L385.60 266.50 L388.39 266.31 L391.03 265.84 L394.22 266.63 L396.72 265.96 L399.26 265.38 L401.43 263.95 L403.64 262.60 L405.61 260.62 L407.60 258.61 L410.15 258.05 L412.54 257.08 L414.92 256.05 L416.93 253.92 L419.20 252.50 L421.57 251.38 L424.00 250.39 L426.93 251.13 L429.36 250.17 L431.95 249.81 L434.63 249.80 L436.88 248.17 L438.89 245.43 L441.32 244.28 L443.59 242.41 L446.42 243.04 L448.45 239.77 L450.90 238.46 L453.71 239.08 L456.54 239.95 L459.35 240.79 L462.07 241.29 L464.62 240.66 L467.17 239.92 L469.92 240.87 L472.15 237.22 L474.89 238.11 L477.50 237.74 L480.03 236.22 L482.66 235.94 L485.26 235.12 L487.96 236.07 L490.61 236.26 L493.26 236.50 L495.84 232.75 L498.48 226.79 L501.22 224.73 L504.05 219.24 L506.97 214.65 L509.71 218.12 L512.46 219.72 L515.36 218.01 L517.83 223.70 L520.44 225.84 L523.31 224.56 L526.00 225.48 L528.51 227.99 L531.21 228.46 L534.17 226.83 L536.79 227.97 L539.40 229.13 L541.96 230.43 L544.56 231.42 L547.21 232.08 L549.72 233.48 L552.08 235.54 L554.56 236.85 L557.09 237.83 L559.58 238.98 L562.07 240.11 L564.94 239.61 L567.84 239.12 L570.68 238.97 L573.09 240.39 L575.86 240.50 L578.38 241.51 L581.09 241.91 L583.64 242.81 L586.69 242.24 L590.21 240.39 L592.80 241.31 L595.22 242.70 L598.19 242.60 L600.89 243.27 L602.10 247.62 L605.03 247.66 L608.01 247.66 L610.03 249.88 L613.44 248.96 L616.29 249.38 L619.23 249.63 L622.00 250.26 L622.86 254.76 L625.91 254.83 L628.67 255.50 L630.23 258.42 L631.63 261.57 L634.59 261.86 L637.76 261.85 L639.18 264.84 L640.63 267.73 L643.76 267.83 L647.59 266.89 L648.82 270.06 L651.20 271.43 L654.93 270.81 L656.56 273.31 L660.41 272.63 L667.23 267.94 L669.83 269.22 L674.57 267.69 L681.08 263.97 L681.01 268.89 L682.09 272.24 L686.04 272.01 L684.81 278.09 L685.55 281.67 L690.32 280.55 L692.25 282.76 L693.44 285.76 L694.55 288.81 L698.59 288.71 L700.10 291.32 L701.90 293.62 L703.42 296.18 L704.59 299.07 L705.81 301.88 L706.50 305.15 L706.90 308.65 L708.30 311.18 L710.23 313.23 L709.68 317.43 L712.50 318.69 L715.84 319.53 L717.54 321.78 L718.66 324.49 L721.42 325.89 L723.53 327.81 L725.58 329.80 L728.01 331.52 L729.25 334.12 L730.14 336.96 L732.60 338.68 L733.66 341.38 L735.34 343.66 L736.49 346.28 L739.25 347.87 L741.84 349.60 L742.45 352.56 L744.76 354.49 L748.05 355.87 L748.99 358.63 L751.92 360.29 L754.30 362.27 L755.13 365.11 L755.36 368.23 L755.55 371.35 L755.00 374.81 L755.23 377.85 L759.78 378.85 L759.63 382.07 L759.63 385.19 L767.18 385.03 L764.77 389.19 L767.14 391.32 L768.33 393.95 L768.31 397.05 L769.57 399.65 L770.87 402.24 L770.88 405.28 L774.43 407.11 L782.71 407.45 L784.11 410.13 L789.09 411.72 L796.78 412.61 L793.61 416.72 L792.15 420.29 L796.38 422.31 L792.07 426.55 L789.75 430.21 L793.22 432.47 L794.86 435.19 L793.44 438.57 L793.07 441.70 L796.10 444.17 L795.72 447.30 L795.73 450.34 L795.66 453.39 L795.23 456.48 L794.54 459.58 L794.08 462.64 L793.23 465.72 L792.25 468.80 L792.25 471.75 L791.49 474.76 L788.72 477.91 L790.70 480.68 L791.97 483.52 L791.78 486.46 L792.73 489.35 L794.00 492.25 L794.17 495.18 L795.38 498.12 L795.98 501.07 L796.11 504.04 L795.98 507.00 L794.30 509.90 L794.18 512.84 L794.41 515.80 L793.65 518.71 L793.37 521.64 L795.54 524.77 L795.66 527.76 L797.30 530.92 L796.03 533.78 L797.32 536.95 L797.24 539.96 L794.53 542.60 L794.29 545.57 L793.12 548.40 L790.69 550.99 L790.89 554.02 L791.16 557.09 L790.20 559.92 L791.62 563.26 L791.74 566.35 L788.93 568.76 L791.57 572.47 L789.20 574.96 L789.72 578.20 L788.40 580.95 L787.73 583.87 L785.78 586.41 L787.30 590.02 L793.70 595.26 L793.63 598.49 L796.20 602.66 L802.14 608.11 L797.49 609.82 L793.95 611.86 L795.81 615.97 L790.14 617.11 L785.21 618.45 L786.56 622.38 L787.25 626.09 L783.06 627.64 L780.85 630.04 L782.73 634.36 L780.74 636.87 L778.52 639.25 L776.50 641.72 L774.52 644.19 L772.39 646.56 L769.79 648.66 L766.63 650.41 L764.75 652.87 L763.07 655.43 L760.47 657.42 L757.94 659.44 L757.00 662.43 L755.51 665.08 L754.00 667.74 L751.86 669.96 L751.21 673.21 L749.44 675.69 L748.81 678.99 L747.70 681.98 L745.85 684.44 L744.10 686.96 L741.01 688.45 L738.82 690.62 L737.36 693.38 L735.23 695.58 L733.26 697.93 L732.86 701.62 L731.08 704.16 L730.34 707.64 L728.40 710.07 L726.43 712.48 L725.38 715.78 L723.02 717.84 L719.79 719.01 L716.75 720.34 L713.97 721.91 L711.55 723.84 L708.89 725.50 L706.49 727.43 L705.55 731.00 L703.92 733.83 L700.13 734.17 L700.08 738.91 L696.69 739.69 L695.22 742.81 L692.42 744.30 L689.92 746.14 L686.97 747.40 L685.80 751.03 L687.74 759.03 L685.82 761.86 L685.22 766.62 L686.97 774.96 L682.12 773.67 L677.97 773.33 L676.55 777.17 L671.69 775.59 L666.36 773.08 L665.30 777.54 L663.39 780.68 L659.09 779.69 L655.89 780.55 L654.68 785.06 L651.53 786.03 L648.39 787.02 L645.19 787.85 L641.95 788.56 L638.59 788.99 L635.30 789.52 L631.60 789.10 L628.29 789.48 L625.36 790.68 L621.97 790.79 L618.59 790.84 L616.21 793.37 L613.45 794.97 L610.64 796.50 L607.55 797.24 L604.93 799.32 L601.92 800.32 L599.19 802.17 L595.96 802.52 L593.18 804.28 L591.13 808.56 L588.07 809.59 L584.68 809.38 L581.62 810.36 L578.90 812.67 L575.16 810.96 L571.62 809.85 L568.83 811.96 L565.86 813.34 L562.95 815.12 L559.77 815.59 L557.00 818.33 L553.89 819.36 L550.26 817.16 L547.27 818.85 L544.09 819.38 L540.46 816.44 L537.26 816.57 L534.24 818.31 L531.19 820.00 L527.78 817.83 L524.61 818.25 L521.35 817.45 L518.35 820.61 L515.14 820.81 L511.87 819.09 L508.76 822.46 L505.52 821.37 L502.31 822.87 L499.07 829.74 L495.74 832.11 L492.36 834.39 L488.74 842.89 L485.41 840.31 L482.15 837.50 L478.67 839.08 L475.52 835.53 L472.51 831.08 L468.66 836.60 L465.50 834.29 L462.43 831.58 L459.12 831.15 L455.45 833.41 L452.26 831.99 L449.06 830.68 L445.86 829.53 L442.71 828.19 L439.60 826.65 L436.55 824.94 L433.69 822.43 L431.02 819.20 L427.62 819.44 L425.09 815.91 L422.23 813.93 L418.55 815.26 L414.75 816.83 L411.92 814.77 L408.59 814.54 L405.05 814.93 L401.96 813.79 L398.49 813.82 L395.30 812.97 L392.62 810.62 L389.24 810.30 L386.11 809.27 L383.23 807.59 L380.00 806.82 L376.66 806.27 L373.52 805.22 L370.89 802.98 L367.13 803.36 L363.28 803.84 L360.34 802.26 L357.25 800.99 L353.43 801.24 L350.28 800.06 L347.97 797.20 L345.28 795.14 L343.22 791.94 L340.99 789.11 L336.91 789.64 L333.93 788.16 L333.06 783.08 L326.82 787.06 L324.64 784.20 L322.43 781.45 L318.83 780.90 L316.61 778.19 L312.93 777.69 L310.50 775.31 L308.52 772.31 L304.90 771.66 L298.13 775.23 L294.14 774.87 L289.81 774.87 L281.99 779.27 L280.82 775.04 L280.17 770.27 L277.22 768.38 L275.93 764.50 L276.82 758.18 L271.98 758.50 L268.43 757.29 L267.27 753.44 L265.36 750.44 L259.78 751.32 L257.93 748.23 L256.12 745.13 L254.06 742.31 L252.17 739.33 L250.75 735.94 L249.07 732.81 L247.37 729.73 L245.13 727.15 L243.99 723.62 L242.85 720.12 L241.68 716.68 L239.23 714.33 L235.84 712.73 L234.55 709.42 L232.21 706.96 L229.89 704.47 L228.17 701.53 L223.12 701.02 L216.11 701.80 L214.00 699.02 L207.73 699.08 L202.51 698.31 L203.26 693.55 L202.22 690.01 L198.35 688.26 L200.64 682.70 L199.42 679.35 L194.37 678.24 L191.63 675.73 L189.93 672.61 L186.34 670.52 L183.01 668.25 L183.22 664.10 L182.07 660.68 L179.52 657.97 L182.35 652.64 L182.75 648.57 L179.03 646.41 L177.91 643.05 L177.19 639.52 L172.88 637.52 L173.06 633.61 L170.33 630.90 L165.12 629.10 L161.57 626.60 L160.74 623.06 L155.20 621.18 L151.22 618.67 L151.00 614.87 L149.59 611.46 L148.26 608.02 L148.04 604.25 L147.22 600.67 L148.78 596.43 L150.69 592.16 L149.08 588.84 L149.36 585.05 L153.53 580.38 L147.62 578.05 L142.91 575.35 L141.88 571.83 L140.49 568.38 L130.10 566.53 L128.59 562.98 L128.44 559.19 L129.06 555.29 L129.05 551.51 L130.66 547.52 L132.90 543.51 L136.71 539.38 L139.14 535.46 L137.16 532.00 L140.24 528.10 L143.90 524.24 L138.47 520.98 L133.80 517.58 L134.93 513.87 L133.09 510.26 L126.01 506.72 L127.32 502.97 L127.53 499.24 L128.32 495.53 L129.87 491.84 L131.40 488.19 L134.24 484.62 L136.02 481.04 L137.86 477.51 L135.44 473.69 L138.80 470.30 L140.66 466.83 L136.52 462.78 L135.28 458.97 L135.19 455.26 L132.47 451.19 L128.96 446.94 L129.00 443.16 L129.29 439.40 L132.33 436.12 L136.57 433.10 L140.64 430.13 L143.09 426.89 L143.94 423.35 L146.17 420.12 L143.95 415.87 L146.09 412.63 L146.00 408.84 L142.82 404.20 L141.04 399.87 L142.53 396.42 L139.90 391.74 L137.31 387.00 L139.48 383.71 L140.23 379.96 L141.09 376.25 L143.15 372.95 L144.72 369.49 L148.47 366.86 L152.56 364.43 L153.69 360.86 L155.67 357.64 L161.69 356.15 L159.58 351.22 L157.70 346.30 L158.39 342.49 L159.61 338.90 L154.91 332.43 L155.53 328.46 L159.70 326.26 L164.69 324.56 L165.31 320.60 L168.49 318.02 L172.44 315.90 L175.04 313.06 L177.82 310.35 L178.26 306.25 L182.58 304.50 L188.33 303.72 L185.57 297.56 L184.34 292.27 L186.91 289.44 L188.20 285.75 L183.94 278.14 L187.41 275.87 L190.44 273.33 L193.61 270.90 L197.23 268.86 L201.44 267.31 L204.36 264.79 L207.76 262.69 L211.57 260.96 L213.90 258.02 L216.11 254.98 L217.98 251.63 L219.97 248.37 L222.13 245.24 L224.14 241.96 L226.65 239.13 L229.31 236.45 L231.67 233.47 L234.33 230.78 L237.08 228.18 L239.45 225.19 L242.09 222.46 L245.01 220.04 L247.79 217.47 L250.56 214.89 L253.02 211.94 L255.76 209.30 L258.37 206.49 L260.72 203.35 L263.58 200.83 L266.53 198.41 L269.12 195.51 L271.95 192.91 L275.23 190.92 L278.35 188.70 L281.11 185.99 L284.23 183.77 L287.51 181.79 L290.36 179.15 L293.42 176.82 L296.66 174.77 L299.87 172.66 L303.19 170.75 L306.38 168.61 L309.15 165.71 L312.21 163.29 L315.27 160.85 L317.74 157.28 L321.19 155.49 L324.50 153.44 L328.02 151.79 L331.49 150.06 L335.28 148.99 L338.62 146.96 L342.14 145.33 L345.84 144.10 L349.32 142.36 L352.85 140.75 L356.54 139.53 L359.78 137.15 L363.55 136.13 L367.28 135.02 L370.75 133.18 L374.75 132.84 L378.45 131.68 L381.78 129.36 L384.48 124.92 L387.42 121.01 L390.68 118.04 L393.52 113.39 L397.25 111.81 L401.18 110.98 L405.31 110.99 L409.45 111.09 L412.92 108.32 L416.92 107.81 L420.96 107.59 L424.59 105.26 L428.61 104.88 L432.59 104.35 L436.63 104.20 L440.56 103.38 L444.56 103.06 L448.55 102.61 L452.48 101.71 L456.47 101.36 L460.46 100.89 L464.50 101.08 L468.55 101.52 L472.57 101.74 L476.54 101.18 L480.56 101.57 L484.54 101.45 L488.51 100.50 L492.51 100.61 L496.50 100.54 L500.50 100.61 L504.49 100.92 L508.48 100.63 L512.47 101.00 L516.47 100.96 L520.44 101.35 L524.44 101.41 L528.39 102.16 L532.35 102.71 L536.31 103.09 L540.32 103.13 L544.33 103.16 L548.33 103.34 L552.36 103.30 L556.37 103.57 L560.33 104.13 L564.25 104.98 L568.07 106.39 L572.01 107.06 L575.92 107.85 L579.75 109.06 L583.65 109.90 L587.38 111.51 L591.20 112.67 L595.09 113.49 L598.76 115.23 L602.84 115.32 L606.78 116.04 L610.74 116.69 L614.78 117.10 L618.76 117.75 L622.60 118.91 L626.58 119.60 L630.61 120.23 L634.23 122.04 L637.84 123.84 L642.12 123.84 L645.14 127.17 L648.85 128.66 L652.59 130.08 L656.23 131.75 L660.00 133.12 L663.63 134.80 L667.25 136.51 L670.94 138.07 L674.62 139.65 L678.35 141.15 L682.10 142.61 L685.77 144.24 L689.24 146.27 L692.90 147.94 L696.46 149.80 L699.81 152.02 L703.40 153.83 L706.99 155.65 L710.57 157.50 L714.13 159.39 L717.62 161.41 L721.27 163.18 L724.71 165.29 L728.11 167.46 L731.57 169.55 L735.20 171.42 L738.70 173.47 L741.92 175.92 L745.01 178.53 L748.48 180.65 L751.79 182.99 L754.92 185.56 L758.41 187.69 L761.92 189.82 L765.36 192.05 L769.16 193.88 L772.81 195.92 L775.74 198.76 L779.93 200.26 L782.73 203.27 L785.67 206.13 L788.85 208.74 L791.28 212.10 L793.81 215.36 L796.27 218.66 L798.82 221.87 L801.63 224.83 L804.61 227.64 L807.69 230.38 L811.07 232.87 L814.10 235.68 L817.16 238.47 L820.26 241.25 L823.23 244.15 L826.09 247.15 L828.63 250.40 L830.99 253.79 L833.23 257.27 L836.20 260.21 L840.68 262.12 L844.62 264.46 L847.95 267.25 L854.01 268.29 L856.72 271.58 L858.67 275.36 L861.06 278.85 L863.01 282.62 L865.06 286.32 L867.27 289.93 L869.34 293.62 L871.19 297.43 L873.04 301.24 L874.83 305.07 L876.26 309.08 L878.37 312.75 L879.98 316.66 L881.48 320.61 L883.54 324.31 L885.24 328.17 L886.69 332.14 L888.00 336.16 L889.94 339.91 L891.03 344.02 L892.50 347.96 L893.87 351.95 L895.34 355.89 L896.73 359.86 L898.09 363.84 L899.38 367.85 L900.68 371.85 L902.32 375.74 L903.15 379.89 L904.47 383.89 L905.42 387.99 L906.55 392.04 L907.60 396.12 L908.50 400.23 L909.65 404.27 L910.73 408.34 L912.52 412.27 L913.23 416.43 L914.27 420.52 L915.04 424.67 L915.15 428.93 L915.64 433.11 L916.03 437.31 L916.97 441.43 L917.95 445.55 L919.26 449.64 L920.11 453.79 L920.53 458.00 L920.46 462.24 L920.51 466.48 L920.54 470.70 L920.31 474.94 L920.71 479.13 L920.96 483.34 L921.37 487.54 L921.79 491.75 L922.37 495.96 L960.80 500.00 L960.49 495.39 L960.13 490.80 L959.40 486.21 L958.33 481.66 L957.63 477.10 L957.59 472.51 L956.82 467.97 L956.38 463.41 L956.09 458.84 L955.26 454.32 L954.27 449.83 L953.61 445.30 L952.24 440.88 L950.90 436.46 L949.77 432.02 L948.22 427.67 L947.47 423.19 L946.87 418.68 L946.69 414.09 L945.91 409.61 L945.17 405.12 L944.18 400.67 L942.45 396.40 L940.72 392.15 L938.86 387.94 L937.76 383.55 L936.11 379.30 L934.82 374.97 L933.36 370.68 L931.58 366.50 L930.01 362.26 L928.01 358.16 L926.23 354.00 L924.12 349.97 L922.51 345.77 L920.39 341.76 L918.41 337.71 L916.44 333.67 L914.22 329.73 L912.08 325.77 L909.59 321.98 L907.45 318.04 L904.91 314.30 L902.86 310.34 L900.38 306.60 L898.03 302.80 L895.83 298.93 L893.20 295.29 L890.72 291.59 L888.01 288.03 L885.58 284.32 L882.82 280.81 L880.81 276.87 L877.90 273.48 L875.22 269.95 L872.73 266.32 L869.66 263.06 L867.22 259.41 L867.34 254.05 L865.97 249.62 L864.67 245.12 L864.37 239.88 L862.67 235.58 L860.04 231.94 L857.47 228.25 L854.72 224.70 L851.99 221.13 L849.15 217.66 L846.27 214.21 L842.70 211.34 L839.63 208.08 L836.44 204.92 L832.55 202.40 L828.80 199.78 L825.28 196.97 L821.73 194.22 L818.33 191.33 L815.39 187.99 L812.46 184.65 L809.46 181.37 L806.42 178.12 L803.18 175.08 L799.96 172.02 L796.03 169.74 L793.31 166.11 L790.03 163.12 L786.87 159.97 L783.95 156.52 L780.79 153.34 L777.02 150.91 L773.38 148.33 L769.91 145.54 L766.14 143.14 L762.29 140.86 L758.53 138.47 L754.85 135.98 L751.16 133.50 L747.42 131.11 L743.67 128.73 L740.02 126.20 L736.14 124.01 L732.34 121.71 L728.58 119.36 L724.64 117.30 L720.68 115.29 L716.61 113.48 L712.56 111.64 L708.58 109.71 L704.53 107.89 L700.51 106.05 L696.51 104.16 L692.54 102.23 L688.48 100.47 L684.36 98.85 L680.12 97.53 L675.97 96.00 L671.86 94.41 L667.57 93.26 L663.44 91.75 L659.19 90.54 L654.28 91.12 L650.57 88.52 L646.35 87.33 L641.89 86.82 L637.77 85.36 L633.67 83.85 L629.46 82.65 L625.32 81.25 L621.11 80.09 L616.83 79.18 L612.53 78.33 L608.37 76.98 L603.72 77.62 L599.44 76.80 L595.09 76.36 L590.63 76.43 L586.32 75.92 L581.90 75.99 L577.65 75.19 L573.36 74.67 L569.09 74.06 L564.92 72.74 L560.65 72.09 L556.40 71.24 L552.12 70.61 L547.79 70.48 L543.38 71.04 L539.06 71.02 L534.71 71.30 L530.36 71.88 L526.06 71.83 L521.77 71.81 L517.48 71.68 L513.19 71.78 L508.90 72.19 L504.62 72.28 L500.34 73.22 L496.07 73.53 L491.82 74.34 L487.58 74.96 L483.32 74.66 L479.11 75.70 L474.91 76.65 L470.68 77.02 L466.50 77.95 L462.40 79.56 L458.26 80.61 L454.11 81.47 L449.99 82.46 L445.79 82.77 L441.73 84.08 L437.61 84.94 L433.51 85.88 L429.51 87.41 L425.50 88.75 L421.49 90.02 L417.19 89.80 L413.31 91.69 L409.36 93.14 L405.10 93.23 L401.34 95.44 L397.63 97.76 L393.81 99.54 L389.66 100.08 L384.82 98.23 L380.55 98.56 L376.11 98.36 L371.18 96.75 L367.00 97.58 L362.97 98.90 L359.14 100.79 L354.98 101.73 L350.96 103.09 L347.09 104.82 L342.76 105.42 L338.99 107.42 L335.43 109.88 L331.41 111.27 L327.85 113.69 L324.40 116.31 L320.52 117.97 L316.81 120.01 L313.01 121.83 L309.30 123.85 L305.90 126.44 L302.20 128.45 L297.84 129.24 L294.30 131.56 L290.86 134.06 L287.17 136.09 L283.52 138.20 L280.21 140.86 L276.78 143.32 L273.11 145.40 L269.25 147.18 L265.39 149.00 L261.77 151.18 L258.40 153.73 L254.90 156.10 L251.39 158.45 L248.19 161.23 L244.87 163.83 L241.48 166.35 L238.21 169.02 L235.43 172.30 L232.96 175.92 L230.02 178.95 L227.57 182.54 L225.30 186.29 L222.14 189.01 L219.44 192.24 L216.85 195.58 L213.38 197.96 L210.65 201.12 L207.71 204.06 L204.67 206.90 L201.40 209.53 L198.33 212.36 L195.29 215.22 L191.76 217.65 L188.75 220.56 L185.50 223.27 L182.61 226.31 L180.07 229.65 L177.51 232.97 L176.51 237.55 L175.24 241.87 L173.65 245.88 L172.72 250.38 L171.78 254.81 L170.02 258.60 L168.81 262.77 L167.65 266.93 L159.10 265.98 L157.09 269.61 L155.69 273.63 L151.10 275.58 L144.44 276.29 L146.60 282.55 L146.83 287.53 L143.41 290.30 L142.79 294.72 L141.64 298.80 L142.64 304.03 L142.35 308.50 L139.85 311.77 L141.45 317.15 L142.62 322.23 L138.92 324.87 L131.47 325.78 L129.71 329.46 L126.90 332.67 L121.90 334.95 L117.50 337.56 L121.00 343.51 L119.87 347.47 L118.86 351.47 L120.83 356.59 L121.94 361.32 L120.95 365.24 L120.62 369.38 L118.86 373.02 L117.48 376.80 L117.50 381.01 L112.36 383.65 L108.86 386.85 L108.89 391.09 L104.94 394.23 L100.21 397.24 L99.26 401.26 L99.44 405.54 L95.99 408.98 L97.32 413.50 L97.14 417.67 L99.17 422.25 L102.65 427.04 L106.15 431.75 L108.74 436.22 L107.70 440.07 L107.04 443.98 L101.86 447.30 L98.35 450.92 L98.07 454.96 L95.48 458.76 L90.87 462.42 L92.72 466.70 L95.45 470.99 L92.58 474.87 L94.53 479.06 L96.21 483.20 L98.28 487.30 L100.41 491.37 L101.47 495.38 L102.17 499.37 L103.81 503.33 L105.61 507.26 L98.45 511.41 L98.28 515.44 L100.33 519.36 L97.00 523.56 L92.49 527.92 L97.42 531.63 L101.22 535.35 L100.30 539.46 L104.10 543.09 L109.07 546.51 L112.75 550.00 L115.81 553.52 L117.98 557.11 L120.02 560.70 L121.68 564.32 L120.45 568.44 L112.21 573.94 L112.43 577.92 L112.36 581.98 L109.64 586.64 L106.18 591.55 L112.38 594.20 L114.38 597.81 L115.33 601.68 L119.81 604.57 L123.79 607.53 L125.21 611.19 L127.33 614.63 L128.19 618.45 L129.16 622.24 L131.52 625.56 L129.90 630.25 L128.17 635.06 L130.51 638.41 L129.78 642.92 L127.53 648.08 L128.51 652.01 L131.48 655.12 L130.45 659.92 L133.85 662.81 L136.25 666.12 L136.30 670.52 L140.47 672.97 L147.07 674.16 L147.65 678.28 L150.39 681.30 L154.77 683.44 L154.52 688.02 L155.17 692.16 L157.95 695.12 L158.99 699.07 L157.37 704.64 L160.94 707.14 L167.50 707.72 L167.07 712.65 L170.83 714.91 L176.30 715.99 L174.85 721.69 L173.43 727.47 L175.98 730.54 L173.04 737.59 L173.11 742.58 L176.19 745.35 L178.39 748.78 L181.38 751.61 L184.74 754.11 L186.50 757.90 L189.37 760.80 L193.12 762.92 L196.68 765.18 L200.99 766.73 L204.26 769.17 L207.67 771.47 L211.08 773.73 L215.04 775.43 L218.82 777.28 L222.39 779.28 L225.86 781.37 L229.40 783.35 L229.83 788.62 L233.67 790.28 L237.93 791.44 L239.91 795.12 L241.25 799.59 L248.09 797.63 L252.24 798.74 L255.51 800.86 L261.09 800.08 L265.61 800.52 L263.84 809.11 L265.69 813.14 L267.21 817.68 L266.87 824.91 L269.58 828.01 L273.67 829.13 L277.75 830.23 L280.45 833.36 L284.41 834.59 L287.27 837.51 L291.51 838.24 L295.65 839.07 L295.87 846.49 L301.72 844.39 L305.02 846.62 L307.52 850.33 L311.94 850.56 L316.60 850.24 L320.56 851.16 L324.81 851.49 L328.32 853.25 L330.99 856.78 L334.83 857.88 L338.75 858.78 L341.72 861.80 L344.70 864.89 L349.00 864.87 L352.66 866.36 L356.07 868.47 L359.67 870.14 L363.82 870.33 L367.64 871.37 L371.24 872.99 L375.49 872.75 L379.17 874.12 L382.73 875.91 L386.67 876.47 L390.01 879.07 L393.85 880.01 L398.11 879.35 L401.22 883.03 L404.72 885.36 L409.11 884.03 L413.55 882.31 L417.20 883.99 L421.71 881.54 L426.02 879.76 L430.03 879.39 L434.01 878.97 L438.01 878.35 L442.00 877.67 L445.91 877.31 L449.82 876.79 L453.35 879.22 L457.21 879.13 L461.22 877.42 L465.26 874.97 L468.56 880.79 L472.71 876.35 L476.66 873.54 L480.35 874.80 L484.24 871.63 L488.04 869.13 L491.55 877.33 L495.30 879.35 L499.09 882.10 L502.96 888.41 L506.86 889.28 L510.71 887.81 L514.70 890.57 L518.48 887.79 L522.33 887.26 L526.39 889.76 L530.18 888.03 L534.05 887.63 L537.67 884.71 L541.59 884.95 L545.51 885.21 L549.35 884.61 L552.68 880.38 L556.41 879.36 L560.25 879.09 L563.61 875.93 L567.45 875.77 L571.45 876.36 L575.24 875.77 L578.99 874.98 L582.98 875.30 L586.94 875.33 L589.97 871.50 L593.02 867.94 L597.18 868.85 L600.68 867.20 L603.94 864.75 L607.63 863.84 L612.08 865.42 L615.93 864.90 L619.39 863.18 L623.08 862.16 L626.49 860.32 L630.36 859.80 L633.70 857.80 L637.18 856.21 L640.74 854.82 L644.84 854.76 L647.79 851.91 L650.49 848.53 L653.95 846.96 L656.94 844.37 L659.44 840.78 L662.00 837.41 L664.76 834.55 L667.75 832.20 L670.52 829.45 L673.23 826.65 L676.00 824.00 L681.14 825.65 L683.57 822.40 L685.04 817.55 L688.84 816.75 L693.53 817.36 L693.77 810.71 L694.81 805.53 L698.71 804.88 L699.96 800.19 L700.75 794.95 L708.33 799.60 L713.05 799.94 L716.53 798.47 L723.91 802.24 L728.05 801.48 L730.16 798.02 L732.65 795.10 L735.51 792.66 L738.96 790.94 L740.42 786.83 L745.41 786.90 L746.87 782.83 L750.17 780.90 L753.60 779.07 L756.23 776.36 L758.21 772.97 L760.23 769.66 L762.04 766.15 L763.59 762.43 L765.15 758.76 L767.13 755.52 L770.41 753.52 L772.69 750.59 L775.20 747.86 L778.68 745.99 L781.38 743.41 L785.62 742.14 L787.36 738.71 L789.38 735.54 L791.77 732.67 L793.08 728.96 L794.06 725.03 L796.13 721.95 L798.28 718.94 L800.83 716.22 L803.65 713.67 L805.38 710.36 L808.34 707.87 L809.33 704.08 L811.27 700.91 L813.10 697.69 L815.69 694.94 L816.20 690.91 L816.80 686.98 L818.26 683.57 L819.07 679.81 L819.37 675.79 L819.82 671.90 L820.10 667.95 L820.80 664.24 L821.77 660.70 L822.28 656.95 L822.73 653.19 L827.06 651.26 L827.56 647.53 L825.68 642.79 L828.47 640.11 L832.30 637.83 L829.26 632.73 L826.22 627.73 L829.78 625.33 L827.91 620.88 L825.10 616.17 L833.49 615.42 L837.80 613.14 L839.48 609.94 L847.74 608.78 L850.93 605.94 L850.53 602.01 L850.98 598.34 L851.32 594.66 L853.06 591.35 L852.23 587.39 L856.01 584.55 L854.11 580.37 L855.56 576.97 L857.85 573.73 L858.11 570.06 L859.04 566.52 L859.97 562.97 L858.13 558.97 L857.87 555.25 L857.64 551.56 L856.01 547.70 L856.92 544.19 L857.54 540.64 L856.95 536.96 L858.86 533.54 L859.06 529.94 L861.51 526.50 L861.33 522.86 L860.57 519.19 L861.12 515.60 L860.56 511.97 L858.31 508.31 L858.40 504.73 L857.87 501.14 L858.34 497.56 L859.51 493.95 L858.87 490.37 L860.07 486.74 L860.14 483.13 L859.10 479.58 L859.47 475.95 L860.46 472.26 L857.06 468.92 L855.06 465.52 L853.92 462.05 L852.71 458.61 L850.25 455.34 L848.29 452.05 L846.72 448.73 L845.09 445.44 L843.31 442.19 L841.44 438.99 L839.90 435.75 L841.72 431.86 L839.50 428.77 L835.81 426.03 L836.48 422.34 L838.13 418.39 L833.30 416.03 L827.22 414.07 L829.30 409.99 L825.41 407.55 L820.14 405.58 L826.14 400.25 L828.70 395.86 L828.06 392.44 L833.88 386.82 L835.14 382.65 L832.33 379.89 L831.09 376.58 L830.20 373.14 L827.01 370.59 L825.69 367.34 L825.13 363.76 L820.43 361.95 L825.07 356.07 L821.48 353.80 L818.29 351.39 L819.82 346.76 L816.99 344.20 L813.18 342.17 L810.17 339.77 L807.16 337.42 L805.06 334.61 L804.13 331.15 L803.09 327.74 L800.50 325.22 L800.46 321.20 L799.74 317.54 L796.23 315.59 L795.45 311.95 L794.87 308.15 L791.94 305.88 L789.33 303.41 L786.11 301.39 L784.98 297.91 L781.95 295.80 L778.99 293.66 L777.71 290.27 L775.48 287.60 L773.40 284.81 L771.87 281.58 L768.52 279.81 L766.63 276.87 L765.43 273.32 L763.43 270.43 L758.42 270.21 L756.10 267.65 L753.17 265.65 L748.89 264.95 L744.97 263.97 L741.74 262.37 L738.47 260.86 L735.26 259.30 L731.97 257.87 L728.89 256.26 L728.13 252.14 L724.45 251.20 L720.46 250.65 L717.66 248.80 L717.42 243.95 L713.08 243.91 L706.80 246.34 L705.94 242.17 L701.57 242.40 L696.32 243.87 L698.03 236.22 L697.50 231.38 L694.83 229.38 L696.53 221.18 L695.14 217.19 L691.31 216.72 L689.97 212.55 L686.75 211.18 L682.60 211.31 L681.02 207.37 L678.51 204.87 L674.70 204.55 L670.67 204.65 L668.21 202.07 L665.42 200.04 L661.44 200.21 L657.32 200.73 L654.44 198.94 L651.96 196.34 L646.97 198.81 L644.22 196.80 L641.53 194.61 L638.64 192.83 L636.07 190.31 L632.70 189.59 L629.78 187.83 L626.70 186.40 L622.18 188.68 L619.11 187.33 L616.15 185.69 L612.73 185.30 L609.32 184.94 L606.94 181.54 L604.05 179.58 L600.53 179.55 L597.46 178.10 L594.17 177.37 L591.03 176.09 L587.53 176.17 L584.37 174.97 L581.25 173.62 L578.11 172.28 L574.70 172.10 L571.08 172.90 L567.69 172.76 L564.13 173.57 L560.52 174.76 L557.03 175.54 L553.62 175.94 L550.22 176.46 L546.82 177.08 L543.43 177.81 L540.07 178.45 L537.07 176.21 L533.77 176.37 L530.33 178.18 L527.06 178.58 L524.00 176.22 L520.58 178.77 L517.06 184.26 L514.00 181.89 L510.74 184.19 L507.48 188.08 L504.42 183.60 L501.28 179.05 L498.06 178.12 L494.74 171.84 L491.38 168.73 L488.09 169.42 L484.82 170.42 L481.61 172.00 L478.28 171.53 L475.06 172.57 L471.65 171.23 L468.43 172.20 L465.26 173.60 L461.71 171.46 L458.65 173.61 L455.44 174.42 L452.14 174.57 L449.05 176.08 L446.09 178.26 L443.13 180.25 L440.22 182.36 L436.94 182.43 L433.27 180.69 L430.54 183.46 L427.05 182.77 L423.80 183.16 L420.19 182.16 L416.89 182.51 L413.86 183.88 L410.95 185.60 L407.88 186.76 L405.23 189.27 L402.38 191.03 L399.27 191.92 L396.18 192.90 L392.80 193.07 L389.71 194.10 L386.52 194.85 L383.85 196.95 L380.73 197.90 L377.40 198.32 L374.66 200.23 L371.79 201.78 L369.41 204.41 L366.75 206.37 L364.54 209.27 L362.37 212.17 L360.00 214.57 L357.44 216.56 L355.24 219.21 L353.14 222.00 L350.79 224.27 L348.57 226.73 L345.11 226.96 L342.22 228.24 L340.66 231.76 L338.51 234.24 L334.94 234.38 L333.20 237.48 L333.78 244.07 L330.46 244.59 L328.97 247.85 L328.68 252.79 L324.10 251.53 L318.63 249.15 L315.73 250.44 L309.35 247.13 L304.80 246.41 L302.64 248.83 L300.29 251.01 L299.13 254.64 L296.51 256.45 L294.32 258.76 L291.40 260.24 L288.91 262.22 L287.55 265.46 L283.34 265.57 L282.15 268.96 L279.78 271.08 L276.63 272.40 L275.56 275.83 L273.81 278.56 L272.19 281.40 L272.54 286.06 L270.22 288.17 L266.39 288.92 L266.23 292.98 L263.01 294.32 L260.97 296.70 L257.76 298.11 L254.90 299.85 L253.59 302.85 L252.28 305.84 L250.03 308.08 L249.99 311.99 L248.37 314.69 L246.78 317.39 L244.97 319.94 L242.34 321.91 L240.39 324.38 L238.78 327.07 L238.12 330.37 L235.72 332.55 L233.52 334.87 L231.95 337.57 L230.21 340.19 L229.67 343.50 L228.35 346.34 L228.78 350.14 L228.75 353.65 L228.72 357.12 L228.09 360.24 L227.44 363.33 L227.38 366.70 L227.26 370.00 L226.80 373.12 L224.01 375.17 L222.22 377.69 L223.15 381.39 L223.25 384.69 L221.27 387.13 L220.72 390.14 L225.16 395.05 L223.49 397.57 L223.72 400.78 L226.42 404.83 L223.38 406.86 L217.00 407.86 L215.13 410.39 L208.80 411.59 L204.21 413.41 L203.47 416.41 L203.47 419.60 L204.48 423.03 L202.55 425.70 L202.75 428.90 L201.52 431.75 L199.60 434.47 L201.35 437.97 L197.93 440.41 L198.94 443.73 L198.78 446.81 L198.61 449.88 L198.94 453.03 L199.67 456.21 L200.32 459.36 L202.32 462.66 L201.32 465.57 L198.29 468.27 L200.53 471.53 L198.83 474.41 L197.74 477.36 L196.21 480.29 L194.96 483.27 L195.98 486.38 L196.12 489.43 L196.18 492.47 L197.97 495.54 L198.85 498.56 L198.72 501.57 L199.00 504.58 L198.25 507.61 L197.80 510.65 L198.56 513.64 L199.55 516.61 L198.98 519.66 L198.80 522.70 L199.68 525.66 L199.28 528.72 L201.17 531.56 L201.86 534.50 L204.69 537.17 L206.26 539.96 L207.62 542.76 L209.22 545.50 L210.82 548.22 L212.63 550.87 L214.26 553.54 L216.11 556.14 L215.34 559.25 L214.42 562.43 L217.43 564.74 L220.28 567.04 L219.52 570.19 L220.18 573.01 L226.77 574.22 L227.35 576.99 L229.24 579.39 L233.73 580.98 L233.00 584.12 L227.80 588.76 L227.85 591.77 L223.72 596.25 L220.79 600.41 L221.78 603.21 L223.02 605.91 L226.40 607.76 L226.85 610.76 L228.79 613.14 L229.52 616.03 L229.28 619.35 L232.51 621.13 L231.20 624.98 L233.33 627.25 L235.01 629.71 L235.41 632.81 L237.65 634.99 L240.33 636.92 L242.27 639.21 L246.77 640.06 L247.84 642.78 L247.66 646.23 L251.67 647.25 L251.64 650.64 L252.26 653.67 L253.80 656.15 L253.69 659.70 L256.48 661.37 L258.32 663.65 L259.74 666.22 L263.00 667.49 L265.38 669.36 L267.11 671.67 L268.67 674.12 L269.78 676.92 L271.16 679.53 L273.87 681.08 L276.04 683.05 L277.17 685.87 L278.96 688.16 L281.10 690.15 L282.30 692.95 L284.98 694.45 L287.95 695.66 L291.35 696.42 L294.03 697.82 L296.96 698.95 L299.55 700.38 L302.53 701.39 L305.61 702.25 L308.15 703.65 L311.01 704.68 L312.66 707.01 L313.24 710.56 L316.96 710.56 L320.63 710.56 L322.03 713.20 L323.77 715.47 L329.69 712.52 L331.95 714.06 L334.68 714.97 L339.08 713.63 L340.77 715.85 L339.16 722.66 L340.54 725.47 L340.16 730.86 L339.92 736.22 L342.16 738.01 L344.67 739.40 L348.24 739.09 L350.36 741.04 L353.00 742.17 L355.51 743.49 L356.85 746.82 L360.22 746.66 L362.02 749.25 L364.57 750.53 L367.56 750.97 L370.23 751.97 L373.18 752.42 L376.26 752.55 L379.33 752.66 L382.86 751.70 L385.20 753.26 L386.95 756.18 L390.42 755.20 L392.32 757.86 L394.61 759.65 L397.01 761.20 L399.01 763.84 L402.23 763.29 L404.70 764.70 L407.56 765.04 L410.69 764.54 L413.86 763.84 L416.48 764.75 L419.09 765.72 L421.48 767.43 L424.07 768.52 L427.06 768.18 L429.69 769.09 L432.27 770.23 L435.06 770.56 L437.88 770.70 L440.29 772.70 L443.30 771.94 L446.21 771.51 L449.21 770.54 L452.08 770.12 L455.00 769.31 L457.88 768.55 L460.78 767.53 L463.63 766.64 L466.41 766.11 L469.22 765.15 L471.83 765.82 L474.22 768.94 L477.13 766.60 L479.98 764.43 L482.56 765.60 L485.15 766.90 L488.10 760.96 L490.74 760.10 L493.36 759.47 L496.01 756.00 L498.57 756.16 L501.16 763.05 L503.81 764.42 L506.56 768.67 L509.43 773.79 L512.18 774.01 L514.92 773.82 L517.50 771.20 L520.25 771.64 L522.90 770.56 L525.63 770.64 L528.58 772.66 L531.09 770.53 L533.99 771.79 L536.74 771.65 L539.26 769.94 L542.18 770.98 L544.76 769.78 L547.09 767.22 L549.71 766.49 L551.86 763.37 L554.28 761.83 L557.23 762.81 L559.23 759.47 L562.23 760.60 L565.15 761.22 L567.65 760.13 L570.96 762.07 L573.01 759.32 L575.70 758.93 L578.17 757.80 L580.24 755.38 L582.50 753.68 L584.96 752.63 L587.52 751.88 L590.45 752.16 L592.97 751.24 L595.14 749.41 L597.53 748.18 L600.19 747.66 L602.41 746.04 L604.65 744.50 L607.85 745.16 L609.76 742.88 L611.61 740.54 L613.56 738.47 L615.51 736.44 L617.21 733.96 L618.86 731.46 L620.67 729.30 L622.46 727.16 L624.14 724.86 L625.77 722.54 L628.07 721.41 L631.93 722.90 L632.83 719.39 L633.77 716.04 L636.19 715.11 L639.31 715.24 L638.03 708.65 L639.38 706.19 L641.28 704.56 L641.29 700.26 L642.61 697.90 L648.85 702.26 L651.92 702.17 L655.99 703.32 L661.63 706.36 L664.12 705.29 L666.05 703.50 L666.52 699.96 L668.84 698.66 L670.66 696.78 L672.37 694.79 L676.16 695.10 L676.89 692.01 L679.34 690.80 L681.79 689.58 L682.74 686.80 L684.55 684.91 L685.57 682.25 L686.31 679.35 L687.12 676.56 L687.43 673.35 L688.98 671.30 L691.85 670.44 L691.99 667.16 L694.96 666.35 L696.97 664.68 L698.70 662.79 L702.50 662.55 L702.85 659.51 L704.72 657.70 L705.88 655.33 L706.22 652.38 L706.54 649.45 L707.91 647.29 L709.18 645.07 L711.45 643.54 L713.33 641.72 L713.96 639.07 L715.58 637.08 L717.05 634.99 L717.48 632.25 L718.86 630.12 L721.59 628.75 L721.79 625.92 L721.50 622.84 L722.13 620.31 L722.51 617.65 L722.50 614.81 L722.51 612.01 L721.91 608.94 L721.99 606.24 L722.61 603.81 L722.22 600.94 L722.28 598.30 L727.05 597.71 L725.89 594.54 L723.90 591.09 L725.63 589.17 L728.91 587.83 L724.04 583.40 L722.57 580.33 L723.71 578.22 L721.39 574.94 L721.01 572.35 L728.50 572.28 L730.95 570.52 L734.34 569.01 L740.98 568.35 L742.73 566.23 L742.92 563.68 L741.52 560.74 L742.52 558.42 L742.96 555.96 L742.23 553.24 L745.82 551.46 L744.51 548.64 L745.96 546.38 L747.35 544.08 L746.77 541.44 L748.14 539.12 L748.70 536.67 L746.36 533.81 L746.10 531.27 L744.80 528.62 L743.51 526.00 L745.09 523.69 L743.00 521.04 L743.97 518.67 L745.06 516.29 L745.14 513.83 L748.15 511.52 L746.55 508.97 L746.55 506.50 L746.33 504.03 L745.10 501.56 L743.10 499.12 L738.69 496.75 L736.97 494.40 L735.56 492.08 L733.12 489.82 L730.82 487.61 L729.61 485.37 L728.85 483.12 L727.87 480.90 L726.91 478.69 L726.45 476.45 L725.61 474.25 L725.91 471.93 L725.55 469.68 L724.86 467.48 L724.74 465.20 L723.91 463.03 L723.12 460.87 L721.96 458.78 L720.99 456.67 L719.79 454.62 L718.85 452.52 L718.53 450.30 L718.27 448.06 L718.35 445.73 L717.88 443.52 L717.29 441.35 L716.31 439.29 L715.07 437.31 L713.72 435.38 L712.48 433.43 L711.91 431.27 L710.83 429.28 L710.21 427.15 L708.94 425.24 L707.88 423.26 L706.91 421.26 L705.39 419.48 L704.30 417.54 L702.91 415.73 L701.98 413.74 L700.55 411.97 L699.49 410.04 L698.12 408.27 L696.60 406.57 L695.43 404.72 L693.67 403.17 L692.20 401.49 L690.52 399.93 L689.29 398.15 L687.74 396.55 L686.80 394.62 L685.23 393.05 L683.47 391.60 L682.40 389.76 L680.52 388.42 L678.86 386.96 L677.15 385.54 L675.72 383.96 L674.08 382.53 L672.51 381.06 L671.34 379.32 L669.58 378.00 L670.20 374.95 L670.70 371.94 L670.11 369.71 L670.71 366.52 L670.75 363.71 L669.77 361.69 L668.33 360.04 L666.98 358.32 L665.60 356.61 L664.19 354.94 L662.64 353.38 L661.03 351.89 L659.09 350.71 L657.29 349.41 L655.07 348.54 L652.86 347.68 L650.70 346.80 L648.70 345.78 L646.69 344.78 L644.87 343.60 L643.79 341.63 L642.33 340.05 L641.03 338.28 L638.61 337.81 L637.86 335.38 L636.04 334.21 L633.53 333.91 L632.82 331.37 L631.29 329.84 L629.81 328.24 L628.30 326.66 L626.69 325.21 L624.92 323.97 L623.15 322.73 L621.17 321.81 L619.09 321.04 L617.04 320.25 L615.28 319.02 L613.40 317.98 L611.51 316.96 L609.66 315.88 L607.81 314.79 L606.00 313.64 L603.99 312.85 L602.09 311.85 L600.11 311.02 L598.05 310.36 L596.10 309.48 L594.01 308.88 L591.87 308.43 L589.93 307.56 L587.85 307.02 L585.77 306.47 L583.80 305.68 L581.89 304.76 L579.81 304.28 L577.77 303.68 L575.77 302.99 L573.74 302.39 L571.66 301.94 L569.58 301.51 L567.40 301.38 L565.10 301.68 L562.88 301.78 L560.73 301.69 L558.38 302.34 L556.39 301.79 L554.50 300.88 L552.51 300.34 L550.47 299.96 L548.56 299.10 L546.48 298.91 L544.42 298.67 L542.42 298.19 L540.18 298.86 L538.04 299.13 L535.96 299.16 L533.69 300.32 L531.64 300.33 L529.52 300.85 L527.48 300.90 L525.49 300.66 L523.49 300.42 L521.51 300.02 L519.59 299.02 L517.57 298.89 L515.62 297.93 L513.57 298.25 L511.51 298.80 L509.48 299.14 L507.44 299.96 L505.42 300.60 L503.41 301.31 L501.42 301.35 L499.44 301.62 L497.45 301.61 L495.48 301.90 L493.50 302.19 L491.54 302.70 L489.62 303.78 L487.67 303.96 L485.77 304.97 L483.84 305.41 L481.89 305.51 L480.05 306.71 L478.09 306.67 L476.22 307.40 L474.42 308.58 L472.66 309.91 L470.81 310.48 L469.04 311.57 L467.27 312.53 L465.46 313.19 L463.68 313.98 L461.89 314.70 L460.17 315.67 L458.42 316.49 L456.57 316.84 L454.65 316.94 L452.90 317.72 L451.29 318.96 L449.42 319.22 L447.86 320.59 L446.46 322.42 L445.03 324.07 L443.50 325.33 L440.97 323.55 L438.53 322.19 L436.60 322.38 L433.79 320.19 L431.44 319.42 L429.51 319.79 L427.83 320.80 L426.14 321.75 L424.02 321.70 L422.34 322.70 L420.35 322.98 L418.35 323.28 L417.04 325.06 L415.48 326.28 L414.26 328.17 L412.75 329.43 L411.41 331.01 L409.72 331.89 L408.15 333.00 L406.33 333.65 L404.73 334.70 L403.31 336.04 L401.24 336.30 L399.59 337.26 L397.73 337.89 L396.34 339.29 L395.08 340.85 L393.35 341.68 L392.15 343.32 L390.45 344.19 L388.49 344.74 L386.72 345.55 L384.93 346.36 L383.10 347.13 L381.65 348.39 L380.18 349.64 L378.68 350.84 L377.28 352.16 L375.74 353.32 L374.34 354.63 L373.16 356.21 L372.38 358.20 L371.55 360.12 L370.78 362.08 L370.44 364.46 L369.59 366.27 L368.30 367.62 L367.96 369.91 L366.10 370.69 L364.56 371.80 L363.80 373.63 L362.29 374.77 L360.84 375.97 L359.31 377.11 L358.36 378.76 L356.31 379.47 L354.73 380.60 L353.55 382.07 L351.66 382.97 L350.44 384.41 L349.25 385.88 L349.28 388.26 L349.83 390.97 L349.22 392.82 L349.10 394.99 L349.74 397.65 L349.69 399.80 L349.59 401.89 L348.76 403.49 L348.52 405.46 L346.52 406.33 L345.01 407.52 L343.37 408.66 L341.52 409.69 L340.34 411.12 L340.56 413.32 L340.44 415.31 L339.92 417.08 L339.40 418.83 L339.69 420.98 L339.38 422.81 L338.96 424.59 L338.57 426.36 L338.48 428.27 L337.80 429.89 L337.52 431.70 L338.25 433.90 L339.21 436.16 L339.50 438.12 L341.19 440.59 L342.45 442.85 L342.35 444.60 L342.32 446.35 L342.83 448.27 L341.19 449.48 L337.51 450.10 L335.14 451.17 L333.49 452.49 L331.83 453.83 L330.95 455.40 L331.07 457.23 L330.65 458.92 L330.62 460.71 L329.95 462.34 L329.81 464.09 L330.60 466.02 L331.61 467.97 L329.20 469.28 L328.97 471.00 L329.42 472.83 L326.88 474.20 L327.88 476.10 L329.73 478.09 L331.08 479.98 L332.30 481.82 L331.33 483.42 L330.68 485.07 L329.46 486.68 L329.63 488.40 L329.29 490.09 L327.77 491.73 L328.79 493.50 L328.35 495.20 L327.52 496.90 L327.66 498.63 L329.36 500.35 L330.02 502.05 L329.50 503.76 L329.73 505.46 L330.58 507.13 L329.58 508.88 L328.86 510.63 L328.91 512.35 L328.45 514.10 L328.16 515.86 L328.98 517.51 L329.24 519.21 L330.22 520.82 L331.83 522.33 L332.93 523.89 L333.25 525.55 L334.24 527.10 L335.19 528.64 L336.11 530.17 L336.85 531.72 L337.74 533.24 L338.82 534.70 L339.47 536.24 L340.59 537.67 L342.06 538.99 L344.45 540.06 L345.89 541.33 L348.11 542.37 L350.48 543.33 L351.75 544.57 L352.42 545.98 L353.42 547.28 L353.34 548.93 L349.99 551.72 L349.10 553.73 L348.91 555.50 L347.71 557.68 L348.02 559.30 L349.70 560.39 L350.40 561.85 L351.40 563.18 L352.72 564.37 L352.64 566.17 L353.60 567.50 L354.52 568.85 L354.38 570.71 L353.83 572.79 L354.58 574.24 L354.33 576.21 L356.06 577.15 L357.50 578.22 L359.41 579.01 L361.82 579.49 L361.47 581.54 L361.41 583.46 L362.40 584.75 L363.85 585.75 L364.53 587.22 L365.78 588.33 L367.19 589.32 L369.25 589.84 L369.12 591.87 L369.73 593.40 L371.02 594.44 L372.64 595.23 L372.68 597.20 L374.24 598.02 L376.09 598.58 L377.86 599.18 L379.23 600.09 L380.93 600.71 L381.20 602.53 L381.37 604.48 L381.96 606.07 L381.91 608.27 L382.39 610.02 L384.61 610.12 L386.44 610.57 L387.77 611.47 L389.59 611.89 L391.57 612.10 L393.13 612.72 L394.47 613.56 L395.93 614.26 L397.54 614.78 L398.80 615.68 L400.12 616.49 L402.18 616.42 L404.49 616.02 L406.16 616.34 L408.77 615.45 L411.27 614.62 L412.86 614.92 L414.16 615.59 L415.97 615.55 L416.87 616.75 L416.03 620.46 L416.17 622.87 L416.67 624.79 L417.39 626.43 L418.14 628.07 L419.72 628.40 L420.89 629.39 L422.54 629.58 L424.18 629.77 L425.00 631.37 L426.92 631.03 L428.83 630.65 L429.37 632.81 L430.57 633.77 L432.53 633.24 L432.53 636.60 L434.48 636.07 L436.75 634.79 L438.60 634.33 L440.67 633.31 L441.70 634.60 L442.91 635.50 L444.01 636.69 L445.29 637.48 L446.76 637.77 L447.62 639.69 L449.10 639.99 L450.60 640.21 L451.73 641.51 L452.95 642.58 L454.62 642.27 L456.33 641.79 L457.67 642.51 L459.10 642.91 L460.70 642.68 L462.06 643.35 L463.46 643.85 L464.84 644.45 L466.14 645.44 L467.62 645.64 L469.14 645.66 L470.62 645.88 L472.16 645.72 L473.85 644.71 L475.51 643.73 L476.96 643.88 L478.47 643.63 L480.02 643.05 L481.52 642.70 L483.02 642.34 L484.50 641.93 L485.99 641.41 L487.45 640.98 L488.90 640.60 L490.38 639.66 L491.90 637.74 L493.33 636.61 L494.76 635.03 L496.18 632.86 L497.53 631.89 L498.85 631.77 L500.16 631.21 L501.47 630.95 L502.88 635.49 L504.29 637.34 L505.67 637.34 L507.17 639.83 L508.57 639.84 L509.91 638.90 L511.29 638.67 L512.63 638.08 L513.92 637.06 L515.39 637.80 L516.74 637.42 L518.06 636.79 L519.57 637.63 L521.13 638.64 L522.50 638.35 L524.11 639.43 L525.31 638.11 L526.56 637.19 L527.73 635.94 L528.62 633.49 L530.25 634.49 L531.81 635.11 L533.09 634.50 L534.31 633.67 L535.69 633.48 L537.01 633.07 L537.96 631.40 L539.13 630.55 L540.35 629.87 L541.71 629.66 L542.68 628.24 L543.54 626.61 L545.29 627.52 L546.52 626.96 L547.60 625.97 L548.56 624.74 L549.85 624.37 L550.40 622.19 L552.18 622.99 L553.92 623.65 L555.22 623.24 L557.00 623.87 L558.51 623.89 L559.39 622.57 L560.07 620.87 L561.08 619.88 L562.12 618.97 L562.87 617.52 L563.60 616.08 L564.66 615.25 L565.48 614.03 L566.43 613.06 L567.30 611.96 L568.45 611.33 L568.85 609.51 L568.96 607.30 L569.46 605.74 L569.44 603.43 L569.05 600.67 L569.53 599.22 L570.43 598.39 L570.79 596.83 L571.59 595.91 L574.61 597.90 L577.29 599.34 L578.74 599.14 L580.79 599.65 L582.06 599.18 L583.07 598.37 L584.16 597.67 L584.63 596.25 L585.21 594.97 L586.83 594.86 L586.92 593.07 L586.95 591.26 L588.51 591.05 L590.03 590.78 L590.24 589.19 L592.67 589.78 L593.11 588.42 L592.48 586.08 L592.40 584.30 L591.80 582.08 L592.85 581.37 L594.19 580.89 L594.97 579.92 L596.77 579.80 L596.67 578.11 L596.65 576.50 L597.81 575.84 L598.16 574.56 L598.32 573.14 L599.92 572.78 L600.56 571.72 L600.57 570.23 L601.63 569.46 L602.94 568.86 L602.72 567.24 L602.97 565.94 L603.87 565.06 L602.70 562.90 L604.59 562.63 L605.79 561.92 L606.05 560.66 L608.89 560.84 L609.96 560.01 L609.57 558.38 L609.25 556.81 L609.49 555.56 L609.80 554.34 L609.37 552.77 L609.78 551.62 L609.49 550.16 L609.73 548.94 L609.36 547.47 L609.53 546.25 L609.38 544.90 L608.95 543.46 L607.64 541.69 L606.67 540.10 L605.79 538.56 L603.80 536.67 L603.12 535.27 L603.20 534.15 L603.16 532.99 L602.94 531.79 L607.19 531.93 L609.60 531.46 L610.10 530.42 L612.43 529.86 L612.75 528.74 L611.68 527.28 L611.32 526.01 L611.20 524.81 L610.55 523.51 L611.56 522.56 L611.34 521.36 L610.45 520.05 L611.17 519.03 L612.23 518.06 L612.69 516.98 L613.95 516.01 L613.58 514.80 L611.54 513.40 L609.32 512.02 L606.32 510.62 L605.47 509.47 L607.11 508.54 L607.88 507.52 L607.67 506.42 L607.95 505.35 L607.36 504.25 L604.25 503.08 L601.84 501.99 L600.84 500.96 Z"/>
  <svg class="pausebutton" id="pausebutton">
    <circle cx="500" cy="500" id="pausestart" class="pausestart" r="52.65"/>
    <rect height="50.02" width="10.00" y="473.68" rx="2.00" ry="2.00" x="479.99" class="pausesymbol"/>
    <rect height="50.02" width="10.00" y="473.68" rx="2.00" ry="2.00" x="510.00" class="pausesymbol"/>
    <polygon points="530.01,500 479.99,530.01 479.99,469.99" class="playsymbol"/>
  </svg>
  <polygon id="playback-head" class="playback-head" points="941.65,500 921.65,540 961.65,540"/>
</svg>