<?xml-stylesheet href="../../style/waveformjs.css" type="text/css"?>
<svg xmlns="http://www.w3.org/2000/svg" xmlns:xlink="http://www.w3.org/1999/xlink" width="100%" height="100%" viewBox="0 0 1000 1000">
  <path class="svg-wave" id="sp" d="M598.01 500.00 L598.19 500.98 L598.36 501.97 L598.52 502.96 L598.66 503.95 L598.80 504.94 L598.93 505.94 L599.05 506.94 L599.15 507.95 L599.25 508.96 L599.34 509.97 L599.41 510.98 L599.48 511.99 L599.48 513.01 L599.43 514.01 L599.41 515.02 L599.36 516.03 L599.26 517.04 L599.23 518.06 L599.17 519.07 L599.10 520.09 L599.05 521.11 L598.94 522.13 L598.83 523.14 L598.75 524.16 L598.59 525.17 L598.42 526.18 L598.30 527.20 L598.09 528.20 L597.86 529.20 L597.71 530.22 L597.44 531.21 L597.16 532.20 L596.96 533.21 L596.63 534.18 L596.31 535.15 L596.07 536.16 L595.68 537.11 L595.28 538.06 L595.03 539.06 L594.56 539.98 L594.12 540.91 L593.78 541.88 L593.29 542.78 L592.75 543.66 L592.42 544.64 L591.74 545.45 L591.28 546.36 L590.85 547.30 L590.23 548.13 L589.50 548.90 L589.13 549.86 L588.34 550.58 L587.85 551.47 L587.32 552.34 L586.37 552.96 L585.64 553.69 L585.31 554.68 L584.75 555.53 L583.71 556.05 L582.92 556.73 L582.43 557.61 L581.51 558.19 L580.11 558.41 L579.85 559.45 L579.28 560.27 L578.35 560.81 L578.59 562.26 L578.60 563.56 L577.33 563.82 L577.58 565.35 L577.50 566.62 L576.18 566.82 L576.14 568.14 L576.12 569.51 L574.65 569.55 L574.72 571.02 L575.39 573.10 L573.84 573.05 L572.74 573.41 L572.50 574.65 L570.89 574.47 L568.78 573.72 L568.85 575.29 L567.44 575.24 L566.88 576.14 L566.32 577.04 L566.02 578.25 L565.07 578.72 L564.01 579.03 L565.11 582.05 L563.31 581.44 L562.33 581.85 L562.64 583.99 L561.12 583.69 L560.45 584.53 L559.95 585.63 L558.77 585.76 L558.14 586.68 L558.20 588.68 L557.57 589.66 L556.49 589.94 L556.63 592.21 L556.16 593.53 L554.90 593.54 L553.72 593.64 L552.80 594.21 L551.67 594.41 L550.60 594.69 L549.88 595.63 L549.28 596.82 L548.05 596.79 L547.26 597.63 L546.63 598.84 L545.10 598.14 L544.24 598.84 L543.69 600.31 L542.23 599.65 L541.46 600.63 L540.85 602.03 L539.49 601.56 L538.69 602.55 L538.08 604.07 L536.69 603.46 L535.87 604.44 L535.52 606.89 L534.47 607.32 L533.46 607.87 L532.58 608.86 L531.34 608.67 L529.93 607.82 L528.83 608.02 L527.61 607.79 L526.35 607.30 L525.18 607.17 L524.46 608.99 L523.16 608.26 L522.25 609.31 L521.56 611.63 L520.16 610.28 L519.27 611.75 L518.16 611.98 L516.83 610.75 L515.79 611.41 L514.69 611.68 L513.56 611.75 L512.52 612.53 L511.56 614.27 L510.49 615.23 L509.28 614.55 L508.21 615.73 L507.04 615.73 L505.89 615.86 L504.71 615.44 L503.53 614.60 L502.41 615.80 L501.24 615.19 L500.09 615.92 L498.93 616.23 L497.78 615.55 L496.59 616.63 L495.43 616.58 L494.29 615.97 L493.10 616.47 L491.87 617.27 L490.75 616.53 L489.52 617.17 L488.23 618.24 L487.16 617.15 L485.90 617.76 L484.64 618.26 L483.56 617.34 L482.35 617.44 L481.07 617.88 L480.04 616.84 L478.93 616.30 L477.63 616.82 L476.56 616.09 L475.41 615.84 L474.07 616.39 L472.81 616.53 L471.53 616.76 L470.24 616.95 L469.06 616.67 L467.84 616.57 L466.67 616.27 L465.67 615.37 L464.39 615.44 L463.11 615.47 L461.98 615.05 L460.88 614.52 L459.61 614.48 L458.42 614.20 L457.36 613.56 L456.14 613.34 L454.72 613.64 L453.38 613.68 L452.09 613.57 L450.78 613.49 L449.45 613.43 L448.47 612.60 L447.52 611.70 L446.34 611.32 L445.15 610.92 L444.04 610.37 L442.88 609.93 L441.25 610.35 L440.09 609.86 L438.79 609.63 L437.18 609.92 L436.26 608.98 L435.10 608.46 L433.72 608.30 L432.95 607.13 L431.67 606.79 L429.94 607.12 L429.23 605.88 L427.63 605.96 L426.17 605.82 L425.70 604.26 L424.46 603.78 L423.45 602.98 L422.99 601.47 L421.77 600.96 L420.23 600.85 L419.31 599.94 L418.49 598.92 L416.64 599.13 L416.10 597.77 L415.43 596.57 L414.01 596.24 L413.35 595.05 L412.29 594.30 L410.82 593.98 L409.93 593.03 L408.94 592.19 L407.56 591.73 L406.73 590.73 L405.71 589.91 L404.54 589.21 L403.43 588.46 L402.09 587.90 L401.11 587.01 L400.11 586.14 L399.16 585.21 L398.17 584.32 L397.70 583.00 L397.00 581.87 L395.88 581.07 L394.99 580.09 L394.23 579.01 L393.18 578.14 L392.21 577.21 L391.37 576.18 L390.48 575.18 L389.74 574.08 L388.66 573.20 L387.01 572.67 L386.89 571.17 L385.43 570.50 L383.82 569.89 L383.84 568.31 L382.62 567.45 L381.62 566.47 L381.44 565.02 L380.13 564.18 L379.06 563.21 L378.67 561.87 L377.71 560.83 L376.89 559.71 L376.83 558.23 L376.23 557.00 L374.95 556.08 L374.52 554.78 L374.00 553.51 L372.52 552.64 L371.66 551.50 L371.21 550.19 L370.87 548.84 L369.95 547.71 L369.07 546.55 L368.91 545.14 L368.85 543.69 L368.03 542.50 L367.08 541.35 L366.66 540.02 L366.84 538.52 L365.90 537.34 L365.26 536.07 L365.42 534.59 L364.68 533.34 L364.27 532.01 L363.31 530.79 L363.16 529.40 L362.59 528.08 L361.59 526.85 L361.61 525.41 L360.74 524.13 L359.90 522.84 L359.44 521.47 L358.55 520.16 L356.60 518.98 L356.45 517.54 L356.35 516.10 L354.73 514.81 L354.70 513.35 L354.66 511.89 L353.93 510.48 L354.27 508.99 L354.82 507.50 L353.91 506.08 L353.98 504.61 L354.27 503.15 L353.57 501.70 L352.42 500.24 L353.08 498.76 L353.65 497.31 L354.09 495.85 L354.79 494.42 L355.57 493.00 L355.11 491.53 L355.24 490.08 L355.02 488.61 L354.56 487.11 L354.39 485.62 L354.12 484.12 L354.47 482.69 L354.44 481.21 L354.13 479.68 L354.78 478.29 L354.83 476.81 L355.11 475.37 L354.34 473.73 L353.26 472.02 L353.39 470.52 L353.79 469.08 L353.51 467.49 L353.87 466.03 L355.45 464.87 L355.98 463.47 L355.92 461.92 L356.36 460.49 L356.59 459.01 L357.04 457.59 L357.14 456.06 L357.01 454.45 L357.52 453.04 L357.33 451.39 L357.64 449.90 L358.26 448.52 L358.70 447.07 L359.50 445.76 L359.90 444.30 L359.34 442.44 L360.39 441.24 L360.16 439.48 L359.49 437.52 L361.15 436.59 L361.36 435.00 L361.16 433.21 L362.99 432.39 L363.05 430.71 L362.53 428.71 L364.07 427.78 L364.45 426.23 L364.04 424.24 L366.16 423.65 L367.21 422.48 L367.28 420.73 L368.22 419.50 L368.97 418.14 L368.86 416.24 L370.30 415.32 L371.07 413.97 L371.56 412.43 L373.05 411.57 L374.04 410.38 L373.54 408.10 L375.15 407.35 L376.43 406.37 L376.19 404.23 L377.55 403.30 L378.87 402.36 L378.59 400.12 L379.09 398.49 L380.52 397.63 L380.85 395.83 L381.74 394.51 L383.21 393.70 L384.02 392.29 L385.42 391.44 L386.75 390.54 L387.08 388.65 L388.36 387.69 L389.70 386.80 L389.89 384.70 L391.22 383.80 L392.65 382.99 L392.98 380.99 L394.46 380.24 L395.85 379.41 L396.08 377.21 L397.85 376.83 L398.93 375.63 L399.29 373.51 L401.10 373.20 L402.69 372.63 L402.75 370.03 L404.16 369.21 L405.92 368.88 L406.67 367.14 L407.92 366.09 L409.56 365.61 L410.96 364.80 L412.25 363.81 L413.82 363.26 L414.83 361.83 L416.37 361.24 L417.80 360.48 L418.31 358.11 L420.08 357.92 L421.59 357.29 L422.44 355.43 L424.07 355.00 L425.65 354.49 L426.62 352.77 L428.32 352.50 L429.82 351.85 L430.74 349.92 L432.59 350.02 L434.35 349.94 L435.33 348.06 L436.85 347.40 L438.38 346.79 L439.44 344.96 L441.17 344.82 L442.61 343.94 L443.89 342.58 L445.79 342.96 L447.36 342.43 L448.53 340.63 L450.04 339.86 L451.43 338.65 L452.99 337.98 L454.60 337.48 L456.11 336.57 L458.03 337.26 L459.92 337.88 L461.46 337.17 L462.65 334.84 L464.37 334.75 L466.38 336.18 L467.76 334.47 L469.71 335.78 L472.64 342.87 L473.74 339.69 L475.75 342.09 L478.26 348.36 L479.46 345.75 L480.87 344.45 L482.91 348.61 L483.91 343.36 L485.57 344.24 L487.28 346.01 L488.82 345.81 L490.14 342.17 L491.84 344.45 L493.20 339.71 L494.79 339.35 L496.44 341.14 L498.04 342.14 L499.61 338.45 L501.20 341.89 L502.83 339.13 L504.52 336.24 L505.99 340.94 L507.55 341.54 L509.38 337.38 L510.72 341.64 L512.67 337.06 L514.33 336.89 L515.62 340.54 L517.54 337.61 L519.40 335.82 L520.39 341.12 L522.87 334.86 L524.31 336.51 L525.37 340.38 L526.51 343.29 L528.91 338.95 L530.12 341.34 L531.94 340.47 L534.20 337.62 L535.24 340.61 L536.41 342.82 L538.81 339.76 L538.80 346.53 L540.35 346.84 L544.47 337.83 L545.41 340.65 L547.31 340.06 L549.63 338.21 L552.70 334.11 L553.71 336.62 L554.54 339.51 L555.35 342.34 L555.58 346.59 L558.19 344.29 L558.71 347.54 L560.63 347.14 L563.74 343.87 L564.49 346.45 L565.30 348.78 L569.10 344.27 L569.02 348.55 L569.64 351.15 L573.37 347.19 L573.88 349.99 L574.67 352.13 L578.12 349.07 L578.86 351.30 L581.00 350.88 L583.94 349.09 L585.40 350.02 L585.72 352.89 L584.71 357.91 L589.46 353.30 L589.81 356.00 L588.16 361.74 L593.10 357.16 L593.73 359.29 L597.60 356.61 L597.21 360.21 L601.42 357.22 L603.52 357.30 L601.77 362.63 L602.49 364.51 L606.23 362.45 L604.93 366.90 L606.27 367.94 L609.80 366.31 L609.96 368.81 L609.25 372.28 L613.40 370.08 L613.90 372.11 L617.60 370.59 L623.75 366.53 L623.12 369.84 L623.61 371.91 L621.66 376.43 L624.65 375.90 L623.93 379.06 L622.29 383.02 L625.73 382.12 L627.16 383.15 L629.58 383.29 L627.81 387.18 L632.38 385.48 L632.70 387.51 L632.62 389.83 L633.49 391.35 L637.85 390.07 L637.29 392.75 L641.48 391.73 L642.92 392.88 L642.24 395.60 L642.10 397.87 L645.84 397.38 L643.98 400.82 L646.83 401.01 L650.29 400.85 L647.87 404.55 L648.09 406.50 L652.71 405.70 L650.76 408.97 L655.15 408.43 L656.97 409.46 L655.13 412.58 L658.31 412.86 L661.21 413.35 L657.55 417.34 L663.50 416.29 L664.04 418.08 L661.35 421.42 L659.29 424.39 L664.71 423.83 L663.55 426.34 L664.76 427.77 L669.45 427.72 L667.47 430.54 L666.12 433.03 L670.99 433.05 L665.56 437.08 L665.31 439.06 L673.59 437.97 L667.27 442.11 L666.80 444.14 L674.63 443.45 L674.07 445.54 L676.21 446.80 L679.47 447.77 L677.58 450.24 L674.59 452.96 L678.72 453.76 L675.96 456.35 L676.90 457.99 L682.64 458.55 L680.49 460.93 L678.59 463.20 L685.14 463.78 L681.88 466.30 L678.97 468.69 L684.89 469.56 L683.14 471.72 L680.60 473.96 L685.89 475.10 L684.71 477.13 L684.88 478.98 L689.53 480.37 L690.28 482.22 L687.35 484.38 L683.07 486.58 L689.11 488.04 L687.65 490.01 L681.88 492.14 L687.89 493.76 L686.79 495.67 L691.01 497.48 L688.24 499.40 L691.35 501.30 L694.51 503.27 L689.12 505.07 L686.63 506.87 L691.45 508.97 L687.22 510.65 L686.80 512.50 L690.12 514.63 L687.90 516.35 L685.01 517.97 L690.43 520.42 L688.22 522.09 L685.86 523.70 L687.82 525.86 L691.78 528.36 L686.87 529.55 L677.72 529.92 L690.75 534.08 L687.25 535.39 L683.00 536.49 L685.69 538.96 L685.46 540.85 L687.30 543.23 L682.63 544.08 L686.25 546.93 L685.52 548.72 L683.34 550.11 L682.06 551.73 L685.71 554.77 L682.98 555.96 L685.90 558.90 L686.21 561.05 L683.66 562.26 L681.51 563.56 L685.05 566.88 L681.13 567.52 L682.50 570.12 L685.38 573.36 L680.63 573.58 L678.40 574.76 L682.43 578.60 L677.60 578.63 L679.72 581.73 L681.00 584.51 L676.69 584.66 L677.45 587.21 L679.73 590.58 L674.34 590.06 L677.84 594.13 L676.37 595.63 L672.40 595.71 L668.27 595.64 L671.92 599.99 L668.67 600.38 L667.86 602.18 L670.85 606.36 L667.08 606.34 L664.21 606.84 L666.92 611.00 L660.74 609.22 L658.46 610.00 L664.78 616.85 L657.41 614.01 L654.77 614.47 L660.46 621.18 L657.95 621.78 L657.72 624.14 L659.31 627.99 L656.28 628.15 L651.92 627.14 L653.88 631.41 L649.70 630.46 L648.64 632.17 L651.68 637.61 L648.34 637.31 L645.18 637.11 L648.18 642.77 L643.76 641.31 L640.36 640.76 L643.18 646.48 L639.79 645.91 L636.70 645.57 L639.03 651.05 L636.37 651.16 L634.77 652.43 L636.35 657.36 L634.93 658.90 L631.54 658.09 L627.15 655.96 L629.02 661.52 L626.38 661.50 L621.27 658.21 L623.23 664.14 L620.34 663.68 L621.82 669.21 L618.21 667.71 L618.01 671.04 L618.43 675.36 L613.81 672.21 L610.81 671.37 L612.31 677.56 L608.03 674.64 L605.80 674.92 L606.43 680.00 L603.20 678.59 L599.36 675.99 L600.02 681.37 L597.68 681.39 L597.16 684.82 L598.78 692.56 L596.50 692.84 L596.25 697.24 L594.64 698.97 L589.07 692.18 L588.07 695.12 L586.01 695.75 L581.23 690.01 L579.09 690.26 L578.35 693.91 L574.72 690.39 L573.78 693.67 L571.95 694.71 L569.56 694.19 L567.18 693.62 L566.96 699.39 L564.53 698.71 L563.27 701.70 L561.87 704.37 L559.17 702.72 L556.69 701.69 L555.79 706.40 L552.89 703.76 L551.15 705.47 L550.13 710.31 L546.93 706.03 L544.61 705.28 L543.65 711.01 L540.66 706.98 L539.11 710.19 L537.54 713.62 L534.76 710.06 L532.96 712.34 L531.40 716.57 L528.52 711.58 L526.90 715.88 L524.82 716.85 L522.24 713.14 L519.74 709.42 L518.14 715.53 L515.85 713.85 L513.67 713.35 L511.85 719.25 L509.53 716.46 L507.25 713.33 L505.26 719.37 L502.99 713.68 L500.84 710.34 L498.67 721.25 L496.58 713.19 L494.55 709.38 L492.13 718.53 L490.02 716.72 L487.80 717.48 L485.37 721.29 L483.34 718.78 L481.49 714.68 L478.96 718.44 L477.19 714.39 L475.06 714.01 L472.18 719.63 L470.33 716.80 L468.42 714.76 L465.33 720.44 L463.77 716.24 L462.11 713.04 L458.89 718.46 L457.23 715.40 L455.66 712.15 L452.10 718.29 L450.17 716.72 L448.31 714.91 L445.13 718.49 L442.78 718.60 L441.31 715.40 L440.56 709.86 L437.15 713.70 L435.36 711.96 L434.86 706.18 L430.67 712.04 L429.44 708.71 L425.52 713.25 L424.35 709.82 L421.40 711.35 L417.52 715.20 L417.55 708.83 L416.66 705.05 L412.18 710.04 L411.84 705.07 L410.45 702.69 L406.45 706.15 L405.34 703.16 L405.06 698.56 L400.32 703.22 L398.81 701.18 L397.99 697.85 L394.69 699.35 L391.06 701.32 L390.87 696.94 L393.20 688.27 L385.02 698.05 L385.02 693.56 L385.14 689.03 L381.09 691.35 L379.91 689.01 L376.17 690.66 L376.73 685.70 L373.72 686.17 L371.00 686.14 L370.38 683.10 L369.51 680.48 L364.17 683.95 L363.36 681.23 L360.42 681.34 L356.97 682.02 L356.51 678.90 L356.13 675.74 L351.34 677.93 L352.26 673.28 L350.26 672.10 L345.15 674.43 L346.45 669.52 L346.42 666.18 L340.64 669.01 L341.18 665.10 L338.65 664.40 L334.37 665.42 L334.63 661.89 L332.64 660.60 L327.50 662.24 L329.40 657.28 L325.37 657.78 L322.79 656.93 L324.64 652.19 L326.54 647.53 L320.24 649.81 L320.46 646.61 L319.62 644.31 L313.54 646.14 L314.20 642.65 L315.24 638.94 L309.00 640.66 L312.17 635.45 L314.60 630.90 L303.60 635.75 L308.97 629.23 L311.52 624.78 L301.87 628.33 L301.92 625.51 L300.13 623.86 L295.29 624.05 L295.89 620.91 L298.13 616.87 L293.81 616.63 L295.99 612.72 L295.68 610.24 L288.78 611.25 L289.91 607.98 L290.67 604.96 L284.48 605.38 L286.43 601.79 L288.68 598.14 L282.06 598.58 L283.36 595.39 L284.69 592.25 L277.87 592.55 L277.29 590.19 L277.93 587.35 L273.05 586.66 L271.53 584.64 L273.19 581.45 L277.13 577.53 L272.57 576.58 L272.10 574.21 L276.44 570.33 L269.60 569.95 L271.92 566.77 L265.32 566.16 L267.40 563.07 L265.82 560.99 L259.32 560.12 L264.34 556.37 L267.84 553.08 L259.97 552.36 L264.28 548.96 L266.04 546.16 L259.93 544.87 L261.68 542.08 L264.43 539.17 L257.05 537.91 L258.47 535.21 L257.44 532.89 L247.55 531.66 L249.03 528.93 L245.69 526.74 L242.87 524.44 L249.27 521.31 L247.32 518.93 L245.38 516.52 L246.53 513.90 L246.87 511.34 L246.39 508.82 L244.09 506.34 L246.67 503.74 L246.67 501.21 L244.26 498.66 L245.48 496.13 L247.06 493.62 L244.35 490.99 L246.82 488.54 L247.21 486.03 L244.66 483.32 L244.27 480.73 L244.91 478.21 L242.47 475.40 L243.20 472.88 L244.32 470.41 L242.42 467.58 L242.22 464.93 L245.08 462.72 L243.65 459.89 L244.39 457.38 L246.03 455.04 L244.89 452.20 L244.22 449.42 L245.64 447.05 L245.13 444.28 L246.87 442.01 L247.73 439.54 L247.79 436.88 L246.91 433.97 L249.35 431.92 L249.96 429.39 L249.07 426.42 L252.61 424.77 L250.21 421.30 L249.19 418.21 L250.09 415.73 L247.00 411.86 L250.25 410.18 L253.59 408.59 L252.30 405.29 L255.76 403.80 L261.15 403.15 L259.71 399.76 L261.16 397.54 L264.27 396.08 L261.21 391.86 L261.80 389.25 L264.09 387.43 L260.63 382.83 L265.00 382.04 L266.39 379.80 L265.97 376.60 L266.24 373.74 L269.38 372.45 L271.32 370.51 L270.22 366.84 L274.25 366.14 L273.07 362.36 L273.35 359.41 L276.94 358.53 L276.15 354.86 L278.06 352.93 L282.06 352.42 L283.50 350.22 L282.16 346.04 L282.50 343.00 L285.83 342.12 L285.64 338.65 L285.63 335.26 L288.60 334.15 L289.60 331.51 L292.71 330.58 L293.38 327.64 L295.69 326.08 L298.61 325.06 L299.31 322.12 L300.55 319.63 L304.41 319.53 L304.89 316.32 L307.00 314.64 L310.67 314.49 L310.99 311.06 L311.57 307.84 L313.89 306.36 L312.94 301.44 L314.41 299.00 L316.84 297.62 L318.90 295.83 L319.87 292.78 L321.86 290.89 L328.30 294.32 L328.22 289.98 L329.88 287.72 L332.30 286.40 L334.98 285.42 L337.51 284.28 L337.14 279.23 L342.57 282.05 L343.74 279.05 L344.77 275.79 L347.36 274.75 L349.18 272.58 L350.43 269.48 L352.74 268.00 L355.18 266.72 L356.98 264.39 L358.86 262.16 L362.71 263.29 L364.60 261.08 L366.75 259.29 L369.79 259.13 L371.49 256.48 L373.21 253.81 L376.52 254.23 L378.23 251.47 L380.87 250.58 L384.04 250.83 L385.66 247.74 L387.86 245.86 L390.96 246.04 L392.85 243.41 L395.90 243.52 L398.82 243.40 L401.33 242.23 L403.33 239.68 L407.12 242.00 L409.48 240.45 L411.68 238.37 L415.16 240.15 L416.69 235.91 L419.08 234.26 L422.18 234.95 L422.90 227.34 L426.13 228.41 L429.28 229.36 L430.33 222.03 L433.65 223.58 L437.20 226.33 L439.91 225.57 L443.02 226.72 L446.03 227.58 L448.39 225.11 L450.97 223.62 L453.95 224.44 L455.74 217.80 L458.79 218.88 L461.73 219.47 L464.08 215.45 L466.87 214.66 L470.05 217.34 L472.85 216.75 L475.60 215.51 L478.64 217.94 L481.37 216.23 L484.12 214.57 L487.10 217.16 L489.88 215.67 L492.73 215.89 L495.63 219.12 L498.43 218.94 L501.26 215.30 L504.13 213.88 L506.95 215.53 L509.87 213.38 L512.81 211.87 L515.62 213.29 L518.54 212.61 L521.22 215.46 L524.22 213.76 L527.15 213.30 L529.81 215.57 L532.84 214.25 L535.82 213.57 L538.16 217.85 L541.29 216.08 L543.96 217.59 L546.23 221.38 L548.45 225.07 L550.36 230.02 L554.29 224.29 L556.40 227.98 L558.30 232.29 L561.73 229.57 L565.00 227.84 L567.46 229.53 L567.95 238.72 L573.38 229.01 L575.69 231.15 L577.01 236.59 L580.88 233.29 L582.88 236.20 L587.00 232.48 L588.17 237.83 L590.98 238.18 L594.50 236.56 L596.46 239.33 L598.12 242.78 L603.03 237.82 L605.23 239.89 L607.95 240.64 L612.16 237.96 L613.76 241.39 L615.09 245.31 L620.07 241.22 L620.70 246.54 L622.85 248.53 L628.24 244.02 L628.76 249.28 L629.76 253.43 L635.39 248.86 L636.22 253.26 L638.77 254.47 L643.64 251.68 L644.33 256.15 L647.01 257.20 L652.49 253.74 L652.59 259.00 L655.82 259.26 L660.00 258.13 L660.25 262.94 L659.70 268.77 L665.96 264.77 L666.74 268.62 L667.92 271.83 L674.36 267.97 L674.76 272.22 L674.44 277.28 L680.79 273.87 L679.18 280.42 L677.65 286.68 L688.62 278.06 L685.66 285.93 L683.68 292.43 L693.76 285.41 L694.68 288.68 L695.96 291.51 L702.38 288.95 L703.18 292.31 L702.24 297.37 L707.22 296.49 L706.26 301.44 L706.77 304.90 L714.24 301.86 L714.72 305.36 L714.87 309.11 L720.52 308.00 L720.84 311.57 L719.34 316.61 L726.30 314.60 L726.32 318.34 L725.41 322.74 L732.73 320.73 L733.25 324.01 L733.69 327.32 L739.96 326.37 L742.18 328.43 L742.46 331.85 L739.92 337.14 L742.90 338.64 L745.57 340.38 L743.20 345.36 L748.85 345.24 L747.79 349.31 L755.59 348.05 L754.53 352.10 L755.58 354.89 L763.14 354.06 L759.73 359.33 L757.65 363.77 L765.28 363.11 L762.43 367.89 L760.98 371.87 L768.27 371.61 L766.88 375.54 L764.65 379.79 L771.80 379.80 L771.10 383.34 L768.80 387.50 L773.94 388.56 L775.76 391.02 L776.17 394.04 L770.06 399.47 L779.46 399.14 L779.59 402.24 L776.25 406.50 L781.44 407.87 L780.00 411.43 L785.49 412.82 L782.45 416.83 L783.46 419.60 L787.30 421.61 L786.11 425.00 L784.11 428.55 L791.21 429.85 L790.27 433.15 L790.53 436.14 L795.66 438.10 L794.05 441.50 L791.50 445.03 L797.64 446.95 L794.67 450.52 L792.87 453.83 L799.81 455.80 L796.44 459.32 L793.09 462.76 L800.52 464.87 L797.97 468.18 L797.93 471.20 L803.93 473.68 L800.42 477.01 L800.10 480.05 L806.59 482.70 L802.22 485.98 L803.35 488.96 L807.02 491.90 L802.81 495.04 L798.55 498.10 L805.25 501.11 L802.79 504.13 L800.17 507.09 L807.38 510.34 L804.28 513.28 L799.78 516.09 L806.64 519.54 L800.64 522.18 L793.69 524.62 L807.09 528.84 L800.07 531.21 L792.32 533.36 L804.51 537.84 L802.14 540.62 L801.10 543.55 L806.35 547.44 L803.77 550.15 L799.52 552.53 L803.13 556.30 L798.56 558.54 L795.60 561.04 L802.89 565.71 L799.59 568.14 L796.95 570.67 L800.22 574.62 L797.60 577.14 L793.38 579.19 L798.43 583.76 L794.72 585.91 L791.16 588.04 L796.64 592.94 L794.52 595.52 L791.81 597.88 L796.31 602.70 L795.90 605.88 L793.24 608.25 L787.41 609.37 L787.23 612.61 L788.21 616.33 L782.51 617.33 L784.79 621.63 L781.83 623.71 L786.69 629.28 L782.58 630.84 L781.26 633.66 L786.64 639.75 L780.37 640.18 L775.82 641.37 L780.03 647.08 L774.29 647.58 L769.06 648.26 L773.86 654.49 L769.79 655.78 L765.41 656.80 L769.34 662.78 L766.37 664.65 L761.25 665.11 L763.64 670.34 L762.20 673.15 L760.56 675.83 L752.01 673.76 L757.05 681.05 L754.98 683.44 L749.37 683.21 L750.98 688.29 L746.55 688.85 L749.05 694.74 L744.08 694.82 L741.46 696.72 L742.52 701.65 L738.95 702.75 L734.31 702.88 L737.22 709.59 L734.41 711.32 L731.51 712.93 L733.04 718.69 L729.53 719.75 L724.84 719.61 L726.99 726.19 L722.00 725.69 L717.75 725.84 L721.02 733.87 L716.16 733.35 L710.69 732.06 L713.73 740.20 L709.02 739.69 L706.20 741.28 L707.97 748.34 L702.39 746.64 L699.55 748.20 L700.74 754.86 L695.22 753.01 L692.74 755.03 L692.88 760.60 L688.19 759.65 L683.40 758.44 L684.49 765.57 L680.53 765.49 L676.05 764.56 L677.66 772.86 L672.99 771.58 L668.08 769.79 L668.86 777.18 L662.79 773.32 L656.60 769.02 L661.14 783.30 L654.64 778.30 L648.52 773.71 L651.69 786.34 L647.68 785.64 L644.28 786.03 L644.25 793.25 L640.40 792.77 L636.12 791.28 L634.73 795.97 L630.38 794.19 L626.29 792.84 L626.41 801.37 L622.78 801.12 L619.12 800.71 L617.21 804.76 L613.77 804.86 L609.60 802.91 L608.45 809.38 L604.61 808.26 L600.58 806.41 L599.49 813.64 L595.67 812.41 L591.80 810.85 L590.51 818.15 L587.28 818.86 L583.72 818.32 L579.45 814.87 L576.21 815.30 L573.81 819.30 L569.61 815.50 L567.21 819.76 L563.64 818.59 L561.75 826.08 L558.04 824.16 L554.50 822.99 L552.68 832.43 L548.45 826.86 L544.67 823.59 L542.31 830.90 L538.40 826.21 L534.72 822.71 L532.16 829.99 L528.60 827.28 L525.08 824.41 L522.24 830.65 L518.85 829.43 L515.38 825.78 L512.32 831.25 L508.98 830.51 L505.70 832.11 L502.33 824.72 L499.07 829.86 L495.74 831.79 L492.51 827.98 L489.11 831.68 L485.98 827.21 L482.39 833.08 L479.29 829.17 L476.16 826.72 L472.50 831.28 L469.37 828.97 L466.41 825.52 L462.37 832.10 L459.19 830.57 L456.07 828.76 L451.98 833.94 L449.06 830.72 L446.23 827.27 L442.02 832.12 L439.40 827.76 L436.70 824.19 L431.84 831.43 L429.21 827.59 L427.05 821.94 L422.09 828.54 L419.45 825.17 L416.64 822.64 L411.85 827.62 L409.48 823.49 L406.56 821.52 L401.20 827.71 L399.18 822.70 L396.30 820.59 L391.48 824.37 L389.43 819.86 L387.82 814.31 L382.67 818.61 L380.30 815.30 L378.37 810.98 L372.22 817.31 L370.09 813.51 L368.43 808.76 L362.43 814.09 L361.62 807.52 L361.85 799.00 L352.11 811.85 L351.22 805.79 L350.73 799.15 L344.07 804.83 L340.34 804.57 L335.97 805.44 L333.72 802.33 L331.43 799.37 L329.99 794.99 L325.58 795.76 L324.68 790.61 L323.40 786.22 L315.87 791.84 L314.24 788.01 L312.44 784.51 L307.97 785.05 L305.32 782.83 L304.78 777.64 L298.49 780.58 L297.40 776.22 L296.52 771.69 L289.86 774.81 L288.21 771.30 L287.10 767.17 L280.23 770.20 L277.70 767.80 L275.51 765.00 L276.05 759.06 L273.83 756.40 L269.12 756.53 L269.26 751.27 L264.88 750.95 L263.43 747.50 L256.25 749.95 L255.46 745.80 L254.42 741.96 L245.55 745.73 L247.42 739.09 L247.48 734.29 L240.00 736.44 L241.46 730.42 L242.51 724.91 L233.95 727.74 L234.48 722.72 L234.76 718.01 L228.21 718.87 L227.12 715.28 L228.51 709.82 L222.03 710.42 L220.77 707.02 L217.56 705.05 L221.61 697.89 L215.57 697.93 L212.04 696.14 L213.25 691.15 L208.17 690.35 L209.95 685.08 L202.90 685.42 L204.27 680.49 L204.11 676.55 L198.24 675.98 L198.15 672.01 L199.25 667.42 L191.31 667.82 L190.37 664.35 L190.15 660.51 L183.17 660.13 L184.15 655.68 L184.56 651.58 L177.66 650.95 L180.22 645.87 L181.73 641.35 L172.64 641.49 L174.86 636.69 L177.72 631.71 L169.02 631.42 L170.73 626.94 L171.81 622.77 L163.83 621.93 L165.92 617.41 L166.91 613.34 L158.71 612.33 L161.07 607.81 L161.53 603.95 L155.33 602.09 L157.67 597.68 L160.80 593.13 L154.77 591.09 L155.98 587.10 L158.54 582.82 L148.71 581.50 L151.98 577.08 L154.37 572.93 L146.75 570.86 L151.66 566.26 L158.97 561.34 L142.87 560.56 L149.77 555.79 L157.75 551.01 L144.46 549.36 L145.84 545.57 L147.47 541.78 L140.12 539.01 L141.39 535.24 L143.48 531.44 L140.62 528.08 L143.64 524.26 L146.78 520.50 L138.78 517.34 L140.57 513.65 L142.03 510.01 L139.50 506.48 L139.40 502.87 L142.93 499.27 L136.93 495.63 L139.50 492.05 L142.59 488.55 L136.41 484.71 L138.28 481.16 L142.12 477.77 L135.11 473.67 L135.88 470.06 L137.23 466.52 L142.11 463.35 L143.89 459.94 L139.97 455.84 L144.08 452.73 L143.03 448.95 L143.97 445.45 L138.13 440.84 L141.50 437.71 L144.82 434.62 L135.47 429.12 L141.83 426.63 L146.50 423.90 L140.31 418.80 L145.04 416.13 L150.82 413.80 L144.42 408.43 L147.43 405.44 L151.77 402.86 L147.70 397.92 L149.81 394.72 L155.33 392.61 L150.55 387.28 L153.54 384.40 L153.13 380.40 L161.29 379.41 L159.42 374.89 L157.61 370.33 L161.89 368.07 L160.00 363.40 L165.50 361.70 L160.83 355.79 L165.87 353.97 L170.06 351.85 L167.14 346.52 L170.14 343.89 L174.54 341.97 L169.40 335.36 L171.75 332.42 L175.49 330.21 L171.67 324.01 L175.81 322.04 L180.10 320.21 L176.98 314.18 L182.11 312.87 L187.00 311.51 L181.37 303.75 L186.07 302.29 L192.34 301.92 L188.36 294.91 L192.47 293.18 L197.03 291.82 L193.15 284.61 L198.00 283.47 L202.06 281.84 L197.50 273.81 L202.88 273.17 L207.26 271.84 L204.34 264.78 L209.92 264.44 L215.42 264.15 L214.07 258.16 L217.61 256.28 L223.02 256.07 L219.25 247.72 L224.04 246.99 L229.24 246.73 L227.60 240.04 L233.76 240.78 L241.83 243.56 L233.46 229.90 L241.09 232.32 L249.69 235.99 L243.73 224.23 L247.42 222.69 L251.84 222.00 L250.31 214.60 L254.06 213.15 L258.81 212.93 L260.69 209.32 L265.43 209.19 L270.11 209.09 L267.98 200.28 L271.92 199.20 L275.80 198.09 L277.71 194.33 L280.32 191.48 L285.58 192.40 L285.90 186.22 L290.30 185.97 L294.63 185.69 L294.86 179.08 L299.04 178.59 L303.82 179.14 L303.34 170.99 L306.82 169.36 L310.57 168.19 L315.81 169.75 L320.11 169.74 L321.24 163.85 L326.36 165.46 L329.47 163.26 L332.64 161.16 L333.34 153.88 L337.74 154.22 L342.39 155.22 L341.66 144.25 L347.39 147.68 L352.40 149.69 L353.90 143.31 L358.86 145.36 L364.19 148.55 L364.93 139.81 L369.70 141.67 L374.29 143.21 L376.55 138.11 L380.41 137.63 L385.16 139.94 L387.05 133.26 L391.50 134.75 L394.07 129.88 L399.63 135.56 L403.16 134.15 L405.69 128.75 L410.09 130.63 L413.27 127.49 L417.84 130.42 L420.07 122.72 L424.60 125.65 L428.98 128.25 L431.64 121.69 L435.70 122.63 L439.97 125.03 L442.65 117.32 L446.54 117.18 L450.78 119.83 L453.75 112.41 L457.90 114.48 L462.02 116.68 L465.36 110.71 L469.56 114.32 L473.70 118.12 L477.02 109.35 L481.05 111.61 L485.14 116.75 L488.77 109.59 L492.73 112.27 L496.63 115.26 L500.49 107.56 L504.37 110.87 L508.20 113.85 L512.33 105.52 L516.12 109.42 L519.85 112.98 L524.09 107.19 L527.78 110.77 L531.33 115.24 L535.45 112.53 L539.29 113.23 L542.80 116.82 L547.61 109.27 L551.10 112.91 L554.62 115.83 L559.28 111.04 L562.71 114.46 L565.09 123.64 L571.64 109.05 L574.30 116.22 L576.16 126.68 L582.45 115.51 L585.87 118.21 L589.27 120.88 L594.74 114.91 L598.26 117.16 L601.54 120.20 L605.57 120.38 L608.39 124.82 L611.46 128.18 L617.50 121.82 L620.84 124.36 L624.21 126.73 L628.22 127.16 L632.59 126.64 L635.17 131.13 L640.07 129.27 L643.38 131.70 L646.49 134.56 L651.97 131.60 L655.37 133.79 L657.85 138.04 L664.44 132.99 L667.90 135.10 L671.22 137.47 L672.73 143.56 L675.15 147.57 L680.62 145.52 L682.40 150.69 L685.90 152.51 L689.81 153.58 L695.95 150.71 L698.37 154.54 L700.12 159.43 L708.95 152.40 L709.78 158.79 L711.09 164.23 L717.09 162.23 L719.09 166.50 L719.49 173.06 L727.02 169.04 L728.58 173.81 L730.45 178.05 L735.28 178.15 L738.79 180.12 L739.98 185.13 L746.63 183.04 L747.69 188.15 L753.73 187.03 L752.48 194.86 L754.52 198.59 L761.37 196.68 L762.77 201.15 L766.79 202.63 L767.31 207.98 L774.73 205.83 L775.15 211.22 L775.22 216.87 L781.77 215.87 L783.62 219.68 L784.53 224.35 L791.93 222.78 L794.68 225.72 L795.49 230.43 L802.97 229.11 L803.94 233.66 L805.36 237.77 L811.12 238.18 L811.19 243.40 L810.56 249.09 L819.66 246.98 L820.21 251.71 L818.70 257.94 L826.76 256.94 L827.32 261.57 L826.78 266.93 L835.69 265.60 L835.46 270.72 L835.42 275.63 L845.31 273.98 L844.21 279.59 L842.34 285.58 L850.56 285.29 L850.08 290.36 L848.59 295.96 L852.81 298.20 L855.44 301.39 L854.44 306.57 L862.93 306.63 L863.13 311.16 L862.46 316.08 L868.51 317.63 L867.95 322.46 L862.27 329.64 L877.06 327.27 L873.56 333.38 L866.28 341.00 L878.14 340.32 L878.45 344.63 L878.26 349.11 L886.00 350.48 L886.32 354.78 L886.30 359.18 L887.32 363.18 L885.99 367.98 L885.21 372.54 L893.26 374.22 L892.78 378.69 L893.23 382.84 L894.94 386.62 L897.73 390.11 L895.94 394.86 L899.55 398.17 L900.20 402.25 L899.77 406.58 L903.50 409.96 L904.71 413.93 L903.25 418.44 L909.65 421.41 L909.92 425.60 L911.31 429.58 L907.79 434.38 L904.63 439.03 L911.25 442.23 L908.83 446.74 L908.18 450.97 L910.79 454.82 L915.95 458.45 L915.04 462.73 L912.18 467.14 L923.60 470.49 L919.38 474.99 L916.54 479.34 L921.22 483.33 L920.62 487.56 L917.13 491.84 L925.39 495.93 L955.12 500.00 L957.15 495.43 L964.80 490.70 L962.87 486.11 L964.41 481.41 L966.86 476.64 L964.83 472.08 L963.36 467.51 L969.57 462.35 L963.56 458.17 L961.84 453.66 L964.29 448.72 L964.03 444.05 L961.01 439.73 L955.62 435.79 L961.05 430.32 L958.69 425.98 L953.96 422.07 L953.49 417.48 L955.35 412.43 L959.67 406.82 L953.86 403.26 L953.29 398.63 L953.89 393.72 L948.07 390.35 L947.00 385.86 L948.62 380.66 L945.40 376.73 L947.59 371.29 L946.08 366.88 L942.04 363.26 L937.21 359.95 L941.72 353.62 L936.56 350.47 L934.82 346.19 L935.69 340.96 L932.93 337.04 L926.52 334.57 L932.00 327.45 L925.30 325.18 L920.56 322.19 L929.20 313.46 L920.30 312.31 L915.01 309.67 L923.21 300.76 L914.74 299.66 L909.50 297.11 L910.40 291.53 L906.37 288.44 L902.88 285.11 L905.73 278.35 L899.24 276.68 L897.87 272.20 L898.08 266.76 L892.46 264.75 L889.15 261.41 L892.53 253.90 L886.33 252.38 L882.08 249.67 L883.34 243.34 L875.69 242.98 L870.21 241.25 L873.87 233.09 L867.46 232.08 L862.81 229.87 L863.24 223.86 L858.68 221.62 L855.04 218.72 L855.58 212.45 L850.00 211.13 L847.83 207.02 L847.26 201.52 L841.37 200.60 L835.87 199.43 L838.63 190.80 L832.53 190.22 L826.90 189.30 L827.07 182.85 L821.52 181.94 L817.32 179.74 L818.07 172.50 L812.05 172.20 L808.90 168.95 L808.21 162.99 L801.86 163.24 L799.95 158.56 L793.64 158.92 L794.53 150.88 L789.84 149.39 L783.89 149.51 L781.12 145.75 L773.25 148.50 L773.86 140.34 L766.67 142.43 L762.20 140.98 L761.79 133.92 L757.17 132.66 L752.08 132.16 L752.42 123.65 L746.81 123.95 L743.20 121.25 L741.21 115.95 L735.61 116.39 L731.04 115.26 L730.45 107.41 L723.33 110.66 L718.48 110.14 L716.36 104.70 L711.91 103.47 L707.31 102.56 L700.93 105.23 L699.34 98.45 L694.65 97.86 L688.48 100.46 L684.59 98.36 L681.14 95.24 L679.78 87.26 L673.80 89.83 L669.55 88.46 L666.57 83.93 L660.66 86.76 L656.32 85.69 L653.32 81.01 L648.28 81.88 L645.14 77.36 L640.94 75.84 L635.76 77.33 L630.52 79.24 L628.48 70.69 L623.02 73.47 L618.45 73.33 L615.11 68.66 L610.43 68.97 L604.89 72.85 L602.41 64.20 L596.90 68.28 L591.81 70.91 L590.03 57.66 L584.09 64.64 L578.92 68.24 L576.69 55.34 L571.02 62.17 L566.08 65.13 L562.23 60.95 L557.53 62.67 L552.87 64.43 L549.22 57.57 L544.30 62.01 L539.94 61.31 L535.84 57.38 L531.12 61.15 L526.69 61.54 L522.62 55.07 L518.01 58.82 L513.51 61.39 L509.23 56.46 L504.72 62.51 L500.35 66.15 L495.94 58.59 L491.60 62.77 L487.32 66.05 L482.78 60.94 L478.56 64.55 L474.31 66.61 L469.57 60.96 L465.49 65.23 L461.24 66.61 L456.43 62.28 L452.56 67.29 L448.72 71.83 L443.39 64.33 L439.56 68.62 L435.78 72.76 L430.75 68.71 L426.97 72.52 L422.97 74.77 L417.68 70.11 L414.04 74.19 L409.75 74.90 L404.49 71.27 L401.36 77.18 L396.37 75.06 L393.36 80.96 L387.70 76.49 L383.57 78.00 L380.51 83.21 L376.16 83.79 L373.91 91.22 L367.67 85.77 L365.53 93.14 L362.48 97.48 L356.12 92.22 L352.83 95.82 L349.94 100.36 L343.04 94.35 L340.38 99.43 L336.67 101.75 L331.07 99.56 L328.42 104.36 L325.23 107.80 L318.46 103.34 L317.03 110.54 L314.12 114.42 L308.16 112.03 L304.82 115.00 L301.51 118.00 L299.98 124.28 L293.98 122.17 L290.73 125.18 L289.00 130.79 L285.78 133.73 L281.09 134.15 L273.61 130.09 L272.59 136.63 L269.91 140.40 L264.05 139.23 L263.36 145.96 L260.84 149.83 L254.50 148.15 L252.65 152.94 L247.81 153.53 L243.98 155.56 L242.14 160.24 L240.94 165.66 L233.04 162.49 L232.40 168.54 L230.06 172.41 L224.11 171.92 L222.22 176.30 L221.93 182.45 L213.84 179.73 L214.35 186.66 L214.02 192.53 L201.68 185.63 L204.11 194.37 L204.78 201.10 L192.11 194.45 L194.80 203.12 L195.26 209.44 L189.06 209.40 L188.72 214.86 L188.10 219.98 L179.52 218.02 L180.99 224.92 L178.99 228.74 L172.24 228.61 L172.88 234.61 L171.57 238.95 L163.95 238.33 L163.63 243.44 L162.74 248.06 L156.14 248.45 L158.14 255.12 L159.03 260.88 L150.46 260.05 L151.90 266.13 L152.23 271.36 L145.44 271.94 L146.11 277.34 L144.89 281.50 L137.87 282.14 L139.29 287.88 L138.00 291.97 L131.23 292.96 L133.15 298.83 L134.35 304.22 L125.93 304.49 L126.81 309.68 L128.20 315.05 L121.14 316.25 L122.93 321.75 L122.69 326.23 L115.81 327.70 L117.89 333.20 L116.76 337.25 L110.49 339.16 L114.13 345.17 L108.89 347.59 L112.10 353.29 L107.12 355.88 L103.55 359.05 L107.08 364.72 L105.39 368.53 L107.13 373.46 L100.24 375.64 L105.62 381.63 L106.45 386.15 L99.44 388.45 L101.36 393.27 L103.41 398.06 L94.67 400.12 L97.32 405.04 L97.71 409.37 L91.58 412.27 L94.47 417.12 L95.84 421.60 L88.07 424.36 L93.11 429.49 L95.00 433.98 L88.86 437.19 L90.51 441.63 L89.99 445.73 L94.34 450.43 L89.86 454.04 L89.86 458.19 L93.55 462.67 L94.74 466.86 L92.17 470.75 L84.88 474.40 L89.80 478.82 L91.56 483.00 L86.41 486.93 L92.14 491.19 L94.51 495.30 L88.52 499.34 L91.46 503.43 L90.45 507.54 L88.70 511.69 L91.63 515.69 L95.64 519.59 L88.06 524.09 L92.88 527.89 L95.47 531.78 L90.71 536.28 L93.11 540.17 L98.58 543.69 L91.11 548.64 L96.28 552.13 L101.66 555.49 L88.09 561.58 L96.96 564.38 L103.54 567.41 L90.31 573.88 L99.01 576.46 L105.03 579.41 L100.68 584.45 L104.54 587.77 L108.20 591.08 L101.78 596.78 L108.00 599.43 L110.18 603.04 L105.84 608.41 L111.46 611.06 L113.96 614.53 L109.27 620.18 L113.13 623.25 L117.00 626.25 L113.05 631.85 L120.05 633.72 L126.16 635.79 L120.50 642.16 L125.10 644.72 L130.59 646.86 L125.74 653.14 L130.50 655.53 L133.93 658.41 L130.13 664.47 L135.56 666.44 L138.69 669.39 L135.12 675.54 L140.69 677.31 L146.09 679.06 L141.44 685.95 L145.53 688.34 L150.77 690.07 L147.96 696.18 L153.48 697.67 L157.04 700.21 L154.65 706.27 L159.15 708.23 L161.30 711.60 L159.30 717.61 L167.00 717.41 L164.94 723.57 L171.76 723.79 L171.90 728.54 L171.07 734.04 L177.61 734.28 L179.69 737.69 L185.05 738.64 L182.81 745.36 L190.12 744.70 L195.57 745.38 L192.34 753.10 L197.42 754.04 L202.23 755.12 L198.48 763.60 L204.25 763.83 L208.41 765.40 L206.88 772.20 L212.60 772.29 L217.27 773.28 L214.86 781.18 L221.46 780.22 L226.54 780.67 L225.29 787.65 L230.13 788.30 L232.64 791.40 L238.37 790.95 L239.21 795.92 L242.06 798.65 L247.62 798.19 L251.54 799.58 L253.54 803.29 L251.88 811.65 L257.92 810.38 L262.25 811.20 L262.15 817.87 L268.57 815.82 L273.68 815.42 L273.15 822.93 L278.21 822.53 L281.25 825.03 L283.22 829.15 L288.11 828.85 L293.12 828.23 L292.25 837.04 L298.18 834.88 L302.71 834.89 L303.50 841.30 L308.21 840.96 L314.02 838.52 L317.41 840.36 L321.09 841.65 L325.29 841.92 L324.63 851.84 L330.35 849.07 L335.14 848.03 L332.77 862.36 L339.76 856.52 L345.59 852.96 L346.88 859.76 L352.02 857.56 L356.51 856.79 L357.17 865.66 L362.81 861.86 L367.27 860.93 L368.66 868.48 L373.87 865.38 L378.14 864.80 L380.00 871.57 L384.32 870.82 L388.76 869.55 L391.12 875.27 L396.22 871.55 L401.14 868.09 L403.05 875.93 L407.73 873.18 L412.25 870.78 L414.69 877.24 L419.24 874.50 L423.10 874.74 L425.87 880.52 L430.50 876.84 L434.30 877.31 L437.25 882.99 L441.81 878.89 L446.13 875.77 L448.99 883.07 L453.13 881.06 L457.31 878.26 L460.58 883.65 L464.86 879.23 L468.82 877.64 L472.19 883.47 L476.27 879.80 L480.05 880.44 L483.63 885.97 L487.70 879.75 L491.38 884.98 L495.29 879.81 L499.09 882.17 L502.94 885.82 L506.70 880.63 L510.51 880.46 L514.16 876.20 L518.23 882.53 L521.70 876.22 L525.20 872.13 L529.56 880.06 L533.08 876.66 L536.54 873.16 L541.15 880.90 L544.47 876.38 L547.92 873.51 L552.54 879.41 L555.74 874.90 L559.09 871.78 L563.90 877.65 L566.79 872.06 L569.90 868.20 L574.79 873.51 L577.75 869.09 L581.71 869.54 L584.32 864.02 L588.65 866.05 L592.54 866.07 L595.05 860.78 L598.16 857.99 L602.43 859.44 L607.91 864.81 L610.22 859.34 L613.09 855.98 L618.39 860.15 L620.28 853.91 L622.76 849.68 L628.39 854.35 L630.83 850.11 L634.39 848.97 L638.74 849.77 L641.18 845.81 L643.21 841.00 L649.76 846.84 L651.29 840.98 L653.64 837.13 L659.47 840.84 L661.69 836.77 L663.55 832.10 L669.71 836.09 L671.43 831.22 L672.75 825.75 L682.34 835.68 L681.87 826.98 L682.05 819.73 L692.13 829.72 L691.71 821.55 L691.69 814.34 L697.90 817.34 L698.91 811.97 L700.18 807.14 L707.34 811.27 L707.48 804.83 L709.01 800.57 L716.14 804.29 L716.46 798.38 L718.21 794.55 L724.64 796.97 L726.65 793.47 L727.49 788.56 L733.34 789.96 L733.65 784.48 L733.35 778.39 L740.22 780.83 L741.76 776.98 L742.04 771.77 L748.85 773.84 L748.90 768.46 L750.27 764.58 L756.67 765.97 L756.79 760.82 L758.18 757.04 L764.87 758.48 L764.29 752.80 L764.45 747.94 L771.12 749.14 L772.28 745.24 L772.30 740.37 L778.40 740.84 L777.66 735.38 L777.82 730.78 L783.64 730.87 L784.51 726.88 L785.90 723.35 L792.28 723.67 L790.07 717.41 L796.66 717.75 L794.04 711.34 L796.38 708.55 L804.30 709.61 L801.44 703.23 L803.07 699.94 L803.52 695.91 L809.97 695.71 L806.70 689.39 L805.40 684.39 L813.81 685.21 L812.35 680.17 L810.69 675.09 L819.89 676.08 L818.17 671.01 L817.26 666.45 L824.58 666.18 L823.18 661.40 L822.39 657.00 L829.47 656.39 L828.04 651.71 L826.04 646.85 L833.21 646.09 L830.78 641.09 L833.84 638.47 L831.20 633.51 L834.23 630.86 L836.03 627.71 L834.68 623.38 L833.68 619.23 L835.76 616.20 L844.22 615.29 L841.27 610.52 L839.87 606.32 L846.74 604.68 L842.15 599.57 L839.70 595.18 L847.18 593.54 L844.68 589.18 L844.84 585.55 L849.16 582.93 L847.18 578.80 L844.41 574.56 L853.16 572.76 L849.50 568.37 L846.60 564.21 L853.46 561.83 L851.33 557.85 L847.34 553.63 L854.07 551.05 L851.95 547.15 L847.77 543.06 L861.37 541.08 L854.52 536.71 L849.28 532.64 L862.67 530.24 L855.42 526.06 L849.53 522.11 L856.02 518.95 L852.08 515.21 L849.00 511.59 L856.56 508.27 L851.94 504.64 L849.57 501.11 L856.31 497.57 L851.60 494.09 L849.12 490.64 L853.59 486.98 L852.94 483.47 L849.26 480.14 L853.62 476.34 L849.70 473.08 L843.83 470.08 L849.47 466.06 L847.91 462.70 L843.06 459.74 L848.79 455.53 L845.19 452.48 L842.82 449.30 L847.35 445.08 L843.16 442.22 L841.47 438.99 L846.95 434.42 L841.82 431.84 L837.12 429.27 L842.37 424.58 L840.36 421.45 L835.80 418.96 L839.86 414.37 L835.07 412.01 L831.97 409.26 L834.95 404.84 L832.51 401.93 L830.33 398.97 L834.03 394.17 L828.15 392.41 L832.20 387.39 L825.62 385.98 L823.77 382.98 L829.92 377.02 L823.12 375.86 L820.79 373.05 L817.68 370.60 L821.16 365.42 L814.66 364.43 L809.14 363.13 L815.50 356.52 L811.16 354.72 L806.13 353.32 L811.73 346.79 L807.35 345.11 L803.17 343.39 L807.31 337.34 L802.04 336.24 L798.00 334.56 L801.55 328.62 L796.53 327.53 L791.71 326.40 L795.44 320.16 L789.87 319.55 L790.08 315.37 L784.00 315.22 L783.30 311.62 L783.06 307.67 L777.76 307.18 L774.59 305.29 L773.64 301.81 L777.25 294.94 L772.39 294.30 L768.10 293.29 L770.76 286.89 L764.13 287.79 L759.20 287.46 L762.57 280.27 L757.32 280.24 L754.48 278.24 L755.42 272.88 L750.93 272.34 L745.89 272.39 L748.93 264.91 L743.72 265.17 L738.69 265.37 L741.03 258.29 L736.55 257.99 L731.43 258.44 L732.95 251.93 L728.50 251.74 L723.01 252.80 L729.06 240.92 L722.22 243.54 L715.78 245.88 L721.40 233.91 L714.65 236.71 L707.89 239.73 L708.73 233.25 L703.93 233.95 L699.45 234.33 L700.29 227.58 L695.67 228.21 L691.18 228.77 L692.40 221.16 L686.85 223.33 L682.77 223.45 L682.42 217.88 L679.56 216.11 L674.76 217.48 L674.30 211.83 L669.77 212.87 L663.85 216.46 L663.98 209.57 L660.58 208.82 L655.54 211.17 L655.51 204.18 L651.16 205.33 L647.39 205.46 L646.32 200.14 L642.28 200.88 L638.64 200.84 L638.20 193.82 L633.33 196.55 L628.70 198.95 L627.71 192.79 L624.38 192.15 L619.98 194.29 L618.56 188.79 L614.11 191.22 L610.53 191.44 L608.35 187.72 L604.95 187.46 L601.52 187.35 L599.85 181.72 L595.46 184.71 L593.63 179.22 L588.87 183.80 L585.42 183.98 L584.44 174.73 L579.50 180.66 L575.83 181.85 L572.58 181.38 L570.20 176.95 L565.94 181.22 L561.81 185.36 L560.01 177.52 L556.11 180.73 L552.50 182.72 L548.69 186.28 L545.34 187.27 L542.46 185.01 L538.90 187.87 L535.70 188.11 L532.68 186.80 L529.40 188.13 L526.27 187.94 L523.19 187.13 L519.93 188.95 L516.87 187.87 L513.65 189.93 L510.63 187.40 L507.54 185.71 L504.36 188.24 L501.25 185.98 L498.10 183.56 L494.95 184.65 L491.87 187.51 L488.79 188.96 L485.62 187.75 L482.63 190.24 L479.49 189.71 L476.27 188.49 L473.36 191.02 L470.31 191.71 L467.10 190.88 L464.36 194.16 L461.44 195.64 L457.64 190.52 L455.01 194.09 L452.12 195.62 L448.41 192.11 L445.51 193.63 L442.39 193.88 L439.15 193.58 L436.09 194.21 L433.71 197.93 L430.30 196.89 L428.39 202.24 L425.75 204.30 L421.51 200.17 L419.81 205.68 L417.07 207.22 L412.50 202.46 L409.89 204.54 L407.28 206.52 L403.77 205.71 L401.06 207.35 L398.97 210.74 L395.74 210.82 L393.38 213.29 L390.08 213.21 L386.71 213.06 L384.52 215.85 L382.28 218.46 L379.08 218.72 L376.69 220.88 L373.97 222.28 L370.72 222.54 L368.30 224.56 L366.00 226.81 L362.70 227.01 L360.88 230.15 L357.96 231.14 L354.68 231.47 L352.48 233.78 L350.82 237.02 L346.39 235.43 L344.83 238.79 L343.09 241.78 L338.65 240.36 L336.87 243.25 L335.66 246.98 L332.62 247.84 L331.28 251.27 L328.66 252.77 L323.96 251.33 L323.12 255.37 L321.54 258.31 L316.28 256.31 L315.24 259.97 L314.10 263.42 L312.59 266.35 L308.42 265.99 L306.30 268.16 L308.53 275.44 L304.03 274.76 L301.38 276.27 L298.69 277.75 L297.62 281.02 L294.54 282.10 L289.51 281.19 L288.91 284.91 L286.24 286.51 L282.63 287.20 L282.11 290.92 L281.77 294.74 L277.04 294.46 L278.09 299.49 L276.71 302.26 L273.34 303.29 L273.60 307.45 L272.72 310.59 L270.20 312.34 L269.38 315.49 L267.06 317.42 L267.19 321.26 L263.23 321.95 L260.13 323.34 L260.99 327.64 L258.03 329.16 L254.26 330.15 L253.43 333.19 L254.10 337.21 L253.36 340.24 L249.04 340.99 L248.79 344.33 L247.47 346.98 L244.87 348.87 L244.71 352.21 L243.75 355.06 L241.27 357.05 L242.29 360.96 L238.79 362.42 L233.92 363.24 L236.30 367.77 L236.08 370.95 L231.74 372.14 L233.87 376.41 L233.23 379.34 L231.78 381.90 L231.15 384.81 L232.33 388.47 L229.21 390.34 L232.13 394.63 L232.37 397.80 L225.69 398.38 L229.25 402.77 L230.01 406.08 L222.68 406.63 L222.68 409.70 L221.48 412.38 L218.47 414.52 L218.67 417.65 L220.37 421.17 L217.01 423.27 L219.22 426.87 L219.10 429.84 L215.87 432.04 L217.12 435.32 L219.01 438.70 L217.82 441.39 L218.10 444.39 L217.56 447.21 L216.33 449.91 L216.49 452.86 L217.35 455.90 L215.80 458.56 L216.50 461.56 L215.92 464.37 L214.56 467.09 L214.98 470.03 L215.38 472.94 L214.33 475.72 L215.14 478.66 L214.61 481.49 L212.55 484.24 L212.80 487.13 L215.22 490.09 L212.66 492.88 L214.39 495.78 L214.36 498.64 L213.03 501.50 L214.07 504.35 L216.10 507.16 L214.15 510.07 L215.50 512.87 L216.07 515.69 L217.78 518.43 L216.35 521.38 L215.74 524.28 L222.93 526.46 L220.58 529.51 L218.37 532.59 L220.08 535.24 L210.79 539.35 L211.46 542.20 L215.14 544.57 L208.76 548.56 L213.02 550.81 L217.18 552.99 L211.20 557.11 L214.68 559.39 L217.36 561.79 L211.10 566.19 L216.13 568.03 L219.48 570.20 L215.06 574.34 L218.03 576.59 L222.81 578.28 L218.34 582.59 L223.39 584.12 L220.68 588.00 L227.02 589.02 L228.72 591.47 L225.92 595.48 L230.15 597.04 L233.62 598.82 L233.13 602.05 L227.98 607.15 L231.47 608.88 L236.01 610.13 L231.38 615.23 L237.36 615.78 L242.05 616.81 L236.89 622.33 L241.22 623.48 L243.87 625.38 L239.93 630.55 L243.89 631.78 L248.54 632.58 L244.45 638.03 L248.67 639.01 L253.56 639.55 L249.16 645.36 L253.34 646.26 L257.75 646.93 L255.74 651.52 L258.75 653.01 L263.85 653.11 L255.94 661.73 L262.30 660.96 L267.68 660.72 L260.27 669.42 L267.02 668.17 L273.19 667.19 L270.57 672.69 L275.72 672.35 L279.76 672.78 L277.08 678.51 L281.11 678.91 L284.93 679.40 L281.29 686.18 L286.81 685.19 L290.33 685.84 L290.08 689.84 L291.09 692.76 L295.29 692.71 L294.64 697.23 L298.89 697.06 L303.88 696.05 L302.89 701.02 L305.35 702.52 L309.77 701.93 L308.37 707.54 L312.99 706.64 L315.79 707.68 L315.61 712.12 L319.03 712.44 L321.88 713.38 L320.17 719.86 L325.17 718.17 L329.66 716.97 L329.39 721.85 L331.44 723.77 L336.14 722.12 L335.93 727.14 L339.92 726.33 L343.27 726.37 L344.83 728.98 L346.67 731.21 L349.81 731.47 L350.04 736.25 L354.85 733.81 L354.11 740.34 L359.27 737.15 L363.56 735.25 L360.01 747.02 L365.52 742.94 L369.23 741.91 L371.40 743.69 L372.40 747.76 L376.83 745.16 L380.68 743.53 L380.38 750.45 L384.36 748.47 L388.35 746.32 L388.38 752.95 L391.78 752.03 L395.21 750.95 L395.23 758.12 L399.46 754.99 L402.93 753.58 L403.72 759.27 L407.02 758.25 L410.84 755.65 L411.61 761.84 L415.67 758.30 L417.03 763.03 L421.25 758.62 L424.33 757.74 L425.66 762.89 L429.25 760.12 L432.60 757.96 L434.79 760.19 L435.87 767.16 L439.10 765.37 L442.40 763.06 L443.78 769.62 L447.54 764.83 L450.85 761.82 L452.28 769.02 L455.62 765.60 L458.66 763.58 L460.39 770.17 L463.49 767.65 L466.63 764.34 L468.63 770.25 L471.61 767.88 L474.62 764.73 L476.72 771.42 L479.69 768.27 L482.59 765.13 L485.04 768.83 L487.79 767.63 L490.62 763.63 L492.97 774.67 L495.80 769.65 L498.53 764.51 L501.22 774.85 L503.89 769.56 L506.45 763.82 L509.27 769.03 L511.78 765.03 L514.30 762.57 L517.27 767.61 L519.74 764.76 L522.15 761.77 L525.42 768.44 L527.60 763.32 L529.97 760.78 L532.85 762.66 L535.80 764.68 L537.91 760.65 L541.02 763.49 L543.28 760.82 L545.10 755.93 L548.39 759.39 L550.97 758.85 L552.75 754.44 L556.31 758.55 L558.07 754.39 L560.23 752.21 L563.60 754.98 L565.69 752.61 L568.01 751.18 L572.15 756.29 L573.58 751.69 L575.11 747.68 L578.40 749.51 L581.33 750.09 L582.68 745.85 L586.33 748.44 L587.78 744.70 L589.64 742.23 L592.48 742.44 L595.12 742.05 L597.32 740.55 L601.30 743.38 L601.79 737.82 L601.85 731.54 L603.71 729.50 L606.70 729.96 L605.38 721.29 L609.58 724.32 L613.34 726.23 L612.62 719.29 L618.92 725.97 L621.20 724.83 L621.10 719.36 L627.05 724.80 L628.14 721.53 L628.73 717.49 L633.76 720.93 L635.26 718.44 L635.72 714.36 L641.53 718.68 L641.46 713.85 L641.92 709.95 L646.40 711.97 L647.88 709.60 L647.73 705.01 L652.80 707.63 L652.56 703.03 L657.12 704.79 L655.73 698.83 L656.34 695.55 L661.54 697.97 L661.34 693.73 L661.24 689.72 L663.56 688.59 L669.47 691.51 L670.15 688.45 L669.84 684.36 L675.58 686.81 L674.17 681.63 L673.33 677.18 L679.85 680.20 L679.37 676.16 L678.80 672.12 L685.44 674.97 L684.73 670.85 L683.52 666.35 L689.46 668.32 L689.60 665.08 L688.53 660.86 L695.11 663.13 L694.22 659.12 L693.36 655.20 L697.08 654.98 L698.76 653.10 L696.91 648.57 L705.75 652.03 L705.12 648.42 L701.72 642.91 L710.73 646.15 L709.25 642.04 L705.52 636.53 L710.75 636.99 L709.78 633.39 L708.27 629.52 L713.55 629.87 L713.38 626.86 L711.56 622.93 L718.31 623.95 L715.79 619.68 L714.57 616.21 L716.75 614.61 L720.98 614.02 L719.23 610.36 L722.69 609.32 L722.08 606.28 L719.93 602.57 L723.12 601.35 L724.66 599.35 L722.69 595.83 L727.19 595.09 L725.76 591.84 L725.04 588.94 L728.34 587.61 L729.06 585.27 L728.07 582.31 L733.46 581.63 L731.65 578.41 L728.84 574.92 L730.94 573.05 L734.42 571.58 L731.61 568.20 L735.04 566.66 L733.24 563.64 L732.19 560.87 L733.19 558.64 L735.94 556.83 L735.29 554.19 L739.32 552.61 L736.63 549.54 L741.92 548.13 L737.04 544.70 L733.17 541.56 L746.78 541.44 L739.59 537.77 L735.57 534.73 L737.10 532.54 L740.47 530.55 L736.81 527.68 L733.26 524.91 L740.45 523.24 L738.12 520.62 L734.97 517.98 L740.35 515.98 L738.93 513.48 L736.53 510.98 L743.04 508.84 L739.05 506.31 L736.35 503.87 L739.85 501.53 L739.27 499.13 L735.43 496.79 L740.24 494.32 L736.29 492.05 L740.41 489.50 L734.49 487.41 L731.39 485.26 L737.20 482.50 L733.25 480.45 L729.69 478.43 L731.68 475.90 L737.09 472.94 L735.18 470.78 L731.78 468.84 L737.05 465.72 L731.96 464.08 L727.84 462.38 L734.09 458.94 L730.35 457.22 L726.69 455.55 L732.78 451.93 L729.50 450.21 L724.53 448.93 L729.36 445.42 L727.59 443.43 L723.47 442.07 L728.31 438.38 L725.26 436.78 L721.64 435.39 L722.78 432.64 L722.39 430.32 L717.90 429.33 L725.62 424.32 L722.27 422.97 L716.23 422.63 L723.51 417.49 L719.76 416.37 L713.13 416.44 L716.39 412.66 L712.49 411.75 L709.27 410.63 L712.21 406.85 L710.50 405.08 L706.64 404.32 L711.27 399.60 L706.74 399.21 L703.17 398.42 L703.06 395.92 L705.38 392.13 L701.22 391.73 L702.08 388.65 L699.90 387.23 L695.28 387.25 L695.15 384.71 L695.90 381.60 L691.59 381.57 L693.41 377.76 L690.21 377.10 L687.85 375.95 L688.34 372.90 L686.90 371.14 L684.06 370.36 L686.59 365.76 L682.55 365.88 L677.90 366.54 L677.69 363.90 L678.75 360.22 L674.59 360.65 L675.00 357.43 L672.62 356.47 L669.85 355.88 L668.09 354.46 L668.75 350.91 L666.08 350.29 L666.93 346.47 L663.25 346.81 L664.86 342.17 L659.94 343.78 L655.41 345.14 L655.83 341.58 L652.37 341.97 L649.58 341.73 L644.53 343.98 L648.66 336.26 L647.81 333.89 L643.67 335.25 L645.78 329.42 L642.37 330.00 L638.23 331.55 L639.33 326.70 L637.52 325.40 L633.78 326.62 L635.32 320.94 L631.84 321.87 L628.26 323.04 L628.24 319.29 L626.48 317.95 L622.25 320.21 L623.23 314.82 L619.68 316.19 L620.10 311.46 L615.06 315.32 L611.50 316.98 L612.84 310.54 L609.09 312.59 L605.65 314.26 L604.26 312.36 L605.10 306.31 L602.84 305.87 L599.42 307.71 L599.75 302.25 L596.02 304.80 L592.28 307.58 L592.90 301.22 L589.89 302.53 L586.52 304.78 L587.20 297.81 L584.12 299.44 L580.66 302.19 L580.28 297.34 L577.84 297.61 L574.66 299.94 L574.54 293.99 L571.63 295.66 L568.52 298.09 L565.17 301.45 L562.43 303.18 L560.97 300.90 L559.65 298.03 L557.72 297.09 L555.66 296.64 L556.28 285.98 L553.52 287.90 L549.94 293.41 L548.58 289.86 L546.00 291.53 L543.35 293.75 L541.90 290.23 L539.80 289.86 L537.00 293.34 L535.93 287.08 L533.24 290.22 L530.77 292.41 L528.77 291.61 L527.27 286.71 L524.69 290.25 L522.76 288.43 L520.57 289.01 L518.09 293.04 L516.12 291.54 L514.16 289.43 L511.87 292.58 L509.94 289.40 L507.75 291.52 L505.63 292.67 L503.59 291.04 L501.50 291.26 L499.41 292.43 L497.28 287.68 L495.23 290.99 L493.25 294.34 L491.16 293.77 L488.90 290.11 L487.03 293.80 L484.81 291.75 L482.83 293.13 L480.95 295.42 L478.97 296.18 L476.51 292.66 L474.65 294.70 L472.17 291.75 L470.49 294.81 L469.33 300.91 L467.80 304.00 L465.71 303.59 L465.16 311.58 L463.12 311.11 L460.69 308.86 L459.52 312.68 L457.81 313.81 L455.96 314.28 L454.19 315.08 L452.43 315.88 L450.81 317.18 L449.09 318.07 L447.22 318.38 L445.51 319.28 L443.84 320.27 L442.14 321.13 L440.25 321.41 L438.40 321.82 L436.86 323.12 L434.81 322.98 L433.26 324.21 L431.47 324.79 L429.54 325.04 L428.21 326.74 L426.51 327.54 L424.67 328.02 L423.19 329.29 L421.70 330.53 L419.73 330.75 L418.10 331.67 L416.51 332.68 L414.76 333.36 L413.30 334.62 L411.84 335.84 L410.41 337.11 L409.01 338.41 L407.69 339.83 L406.08 340.74 L404.61 341.88 L403.03 342.84 L401.21 343.42 L399.92 344.84 L398.08 345.40 L396.45 346.29 L395.24 347.80 L394.12 349.41 L392.80 350.73 L391.39 351.92 L390.71 354.07 L389.36 355.32 L388.00 356.52 L386.67 357.78 L384.74 358.30 L383.54 359.70 L382.31 361.07 L380.39 361.63 L379.33 363.20 L378.21 364.68 L376.74 365.77 L375.67 367.29 L374.32 368.52 L372.77 369.53 L372.28 371.62 L371.09 373.00 L369.78 374.24 L369.09 376.08 L367.92 377.46 L366.80 378.87 L366.22 380.77 L364.99 382.07 L364.10 383.67 L363.47 385.47 L362.21 386.75 L360.97 388.04 L360.05 389.59 L359.31 391.27 L357.60 392.21 L356.88 393.90 L356.79 396.03 L355.14 397.03 L354.29 398.60 L353.93 400.51 L352.57 401.72 L351.61 403.21 L350.99 404.92 L350.19 406.50 L349.49 408.14 L348.81 409.79 L348.35 411.56 L348.16 413.47 L347.98 415.37 L346.40 416.49 L346.10 418.31 L346.40 420.43 L344.41 421.36 L343.65 422.93 L344.35 425.20 L342.40 426.20 L341.58 427.74 L341.84 429.76 L340.39 431.02 L339.94 432.71 L339.50 434.41 L338.53 435.89 L338.35 437.68 L337.70 439.29 L337.47 441.05 L336.92 442.69 L336.75 444.46 L336.50 446.19 L336.01 447.84 L335.88 449.60 L335.64 451.32 L335.12 452.95 L334.58 454.58 L334.23 456.26 L333.78 457.92 L333.36 459.58 L333.34 461.33 L333.40 463.10 L333.70 464.91 L332.93 466.49 L332.77 468.19 L332.99 469.96 L332.73 471.64 L332.21 473.27 L331.95 474.95 L332.58 476.75 L332.18 478.41 L331.77 480.06 L331.64 481.75 L331.77 483.47 L332.15 485.20 L331.66 486.85 L331.65 488.54 L332.29 490.27 L332.60 491.96 L332.74 493.65 L333.13 495.33 L333.58 497.01 L334.06 498.68 L334.53 500.34 L334.36 501.99 L334.61 503.65 L335.24 505.28 L335.69 506.91 L336.01 508.54 L337.08 510.12 L336.69 511.78 L337.76 513.34 L338.97 514.86 L338.40 516.55 L338.18 518.21 L339.10 519.73 L339.09 521.37 L338.37 523.11 L338.34 524.77 L338.66 526.37 L339.37 527.91 L339.82 529.48 L340.36 531.04 L340.89 532.59 L341.36 534.15 L342.15 535.64 L342.31 537.26 L342.59 538.86 L343.04 540.42 L344.03 541.83 L344.52 543.37 L344.89 544.94 L345.50 546.45 L346.05 547.97 L346.69 549.45 L347.05 551.03 L347.51 552.58 L348.35 553.99 L349.71 555.21 L350.68 556.55 L350.70 558.26 L351.97 559.47 L352.96 560.79 L353.18 562.43 L353.73 563.93 L354.44 565.36 L355.80 566.49 L356.59 567.87 L357.26 569.31 L358.42 570.50 L360.13 571.41 L361.41 572.51 L361.79 574.08 L363.37 575.00 L365.44 575.63 L364.96 577.69 L365.53 579.16 L367.18 579.99 L366.85 582.01 L367.39 583.51 L368.73 584.52 L369.13 586.13 L370.19 587.30 L371.18 588.52 L372.34 589.61 L373.42 590.76 L374.21 592.11 L375.32 593.22 L376.51 594.27 L377.54 595.44 L378.60 596.58 L379.61 597.76 L380.74 598.84 L382.14 599.69 L383.21 600.80 L384.23 601.96 L385.72 602.69 L386.79 603.79 L388.16 604.62 L389.36 605.59 L390.58 606.54 L391.85 607.42 L392.87 608.56 L394.11 609.47 L395.33 610.40 L396.28 611.61 L397.67 612.35 L399.11 613.02 L400.49 613.74 L401.81 614.53 L403.24 615.17 L404.53 615.97 L405.75 616.84 L407.23 617.39 L408.15 618.65 L409.46 619.41 L411.08 619.74 L412.09 620.88 L413.56 621.40 L415.22 621.62 L416.27 622.72 L417.84 623.04 L419.31 623.49 L420.16 624.91 L421.56 625.46 L423.01 625.92 L424.00 627.14 L425.61 627.32 L426.98 627.90 L428.26 628.62 L429.91 628.67 L431.20 629.38 L432.35 630.34 L433.80 630.72 L435.05 631.50 L436.31 632.27 L437.65 632.87 L439.03 633.38 L440.49 633.70 L442.07 633.75 L443.37 634.40 L444.86 634.63 L446.43 634.60 L447.76 635.19 L449.15 635.62 L450.47 636.20 L451.95 636.38 L453.58 636.07 L454.92 636.59 L456.32 636.95 L457.97 636.46 L459.26 637.15 L460.57 637.77 L461.99 638.02 L463.60 637.53 L465.06 637.56 L466.26 638.60 L467.92 637.78 L469.31 638.02 L470.56 638.96 L472.03 638.88 L473.55 638.47 L474.92 638.81 L476.34 638.87 L477.86 638.31 L479.19 638.83 L480.60 638.90 L482.04 638.70 L483.42 638.91 L484.85 638.76 L486.27 638.56 L487.64 638.84 L489.05 638.70 L490.47 638.31 L491.83 638.85 L493.22 638.88 L494.63 638.45 L496.00 638.90 L497.40 638.69 L498.79 638.35 L500.17 638.07 L501.54 637.00 L502.92 637.40 L504.27 636.76 L505.61 636.04 L506.97 635.90 L508.29 635.27 L509.71 636.09 L511.03 635.50 L512.29 634.29 L513.81 635.97 L515.17 635.78 L516.43 634.88 L517.81 634.95 L519.09 634.28 L520.26 632.94 L521.55 632.50 L522.70 631.24 L523.64 629.01 L525.29 630.61 L526.68 630.76 L527.61 628.75 L529.46 630.98 L530.77 630.70 L532.09 630.42 L533.43 630.26 L534.57 629.31 L535.67 628.25 L536.88 627.64 L537.92 626.48 L539.07 625.75 L540.32 625.32 L541.33 624.21 L542.79 624.41 L543.86 623.50 L544.82 622.31 L546.26 622.45 L547.42 621.80 L548.49 620.96 L549.75 620.61 L550.82 619.78 L551.67 618.48 L553.21 618.75 L554.24 617.89 L555.03 616.51 L556.18 615.94 L557.66 616.02 L558.60 615.02 L559.20 613.37 L560.67 613.40 L561.54 612.32 L562.18 610.84 L563.22 610.10 L563.92 608.79 L564.82 607.83 L566.68 608.45 L567.44 607.27 L567.86 605.59 L570.29 606.99 L570.96 605.69 L571.01 603.52 L572.52 603.48 L573.09 602.11 L574.29 601.63 L575.23 600.78 L576.04 599.76 L576.65 598.51 L578.69 599.07 L579.18 597.67 L578.96 595.42 L579.91 594.63 L581.51 594.60 L582.47 593.79 L582.23 591.65 L583.53 591.26 L585.21 591.24 L585.32 589.54 L585.26 587.71 L586.67 587.40 L587.11 586.09 L587.42 584.70 L588.39 583.94 L588.99 582.83 L589.16 581.34 L590.44 580.87 L591.26 579.97 L591.25 578.36 L592.44 577.79 L593.39 577.01 L593.36 575.43 L594.69 574.95 L595.63 574.15 L595.80 572.76 L596.38 571.69 L597.01 570.67 L597.31 569.40 L597.36 567.98 L597.58 566.69 L598.00 565.55 L598.22 564.29 L598.38 562.99 L598.44 561.66 L598.25 560.18 L598.84 559.19 L598.88 557.88 L598.67 556.44 L598.67 555.13 L598.94 553.99 L599.00 552.75 L598.97 551.47 L598.99 550.23 L598.80 548.90 L599.17 547.85 L599.19 546.64 L599.12 545.40 L599.15 544.23 L599.39 543.15 L599.42 541.98 L599.44 540.83 L599.49 539.69 L599.43 538.52 L599.66 537.46 L599.71 536.35 L599.69 535.21 L599.73 534.11 L599.86 533.04 L599.90 531.95 L599.92 530.86 L599.95 529.78 L599.94 528.69 L600.04 527.64 L600.06 526.57 L600.05 525.50 L600.06 524.44 L600.10 523.39 L600.10 522.34 L600.09 521.29 L600.07 520.24 L600.03 519.19 L600.04 518.16 L599.98 517.12 L599.87 516.07 L599.81 515.04 L599.73 514.01 L599.63 512.98 L599.54 511.96 L599.48 510.94 L599.40 509.93 L599.31 508.92 L599.21 507.91 L599.11 506.90 L598.99 505.90 L598.86 504.90 L598.72 503.91 L598.57 502.91 L598.42 501.92 L598.25 500.94 Z"/>
  <svg class="pausebutton" id="pausebutton">
    <circle cx="500" cy="500" id="pausestart" class="pausestart" r="52.65"/>
    <rect height="50.02" width="10.00" y="473.68" rx="2.00" ry="2.00" x="479.99" class="pausesymbol"/>
    <rect height="50.02" width="10.00" y="473.68" rx="2.00" ry="2.00" x="510.00" class="pausesymbol"/>
    <polygon points="530.01,500 479.99,530.01 479.99,469.99" class="playsymbol"/>
  </svg>
  <polygon id="playback-head" class="playback-head" points="941.65,500 921.65,540 961.65,540"/>
</svg>