<?xml-stylesheet href="../../style/waveformjs.css" type="text/css"?>
<svg xmlns="http://www.w3.org/2000/svg" xmlns:xlink="http://www.w3.org/1999/xlink" width="100%" height="100%" viewBox="0 0 1000 1000">
  <path class="svg-wave" id="sp" d="M594.77 500.00 L594.97 500.95 L595.15 501.90 L594.75 502.84 L594.61 503.79 L594.94 504.75 L595.15 505.72 L595.33 506.68 L595.56 507.66 L596.13 508.68 L596.37 509.67 L596.40 510.65 L596.44 511.63 L596.47 512.61 L596.73 513.63 L596.69 514.61 L596.71 515.61 L597.09 516.67 L597.16 517.68 L596.82 518.62 L596.20 519.50 L595.67 520.39 L595.30 521.31 L594.82 522.20 L594.06 523.02 L593.75 523.94 L593.63 524.91 L593.46 525.86 L593.64 526.93 L593.84 528.00 L594.29 529.17 L594.99 530.43 L595.42 531.62 L595.46 532.70 L594.85 533.55 L594.42 534.47 L594.46 535.56 L594.44 536.63 L594.20 537.63 L594.06 538.66 L593.91 539.70 L593.27 540.54 L592.09 541.12 L591.27 541.86 L590.58 542.64 L589.86 543.41 L589.43 544.31 L589.08 545.25 L589.34 546.51 L589.32 547.64 L588.69 548.45 L588.19 549.33 L587.33 550.00 L586.26 550.54 L585.48 551.24 L584.44 551.77 L584.01 552.67 L584.28 554.02 L584.47 555.34 L583.91 556.18 L581.09 555.48 L576.75 553.64 L574.77 553.38 L570.92 551.71 L567.84 550.51 L566.98 550.92 L566.38 551.52 L567.17 553.22 L568.17 555.12 L570.11 557.86 L569.06 558.17 L568.54 558.91 L569.36 560.83 L567.22 560.16 L564.78 559.15 L560.66 556.51 L562.12 559.04 L562.53 560.64 L558.39 557.76 L560.70 561.26 L563.24 565.12 L562.53 565.69 L559.16 563.41 L560.60 566.26 L560.05 567.00 L555.46 563.13 L556.30 565.40 L555.71 566.03 L556.06 567.81 L554.62 567.44 L554.86 569.13 L556.65 572.88 L557.31 575.27 L556.43 575.66 L556.20 576.95 L555.31 577.34 L553.01 575.71 L550.01 572.97 L549.08 573.18 L548.68 574.18 L547.42 573.86 L547.72 575.98 L548.22 578.52 L547.63 579.31 L545.66 577.78 L548.04 583.75 L545.26 580.75 L542.73 578.07 L547.03 588.00 L544.58 585.46 L543.08 584.64 L545.34 591.32 L545.14 593.26 L544.39 594.09 L543.45 594.55 L543.18 596.48 L542.86 598.41 L542.13 599.43 L541.70 601.21 L541.15 602.78 L540.79 604.92 L540.90 608.39 L539.79 608.73 L538.24 607.84 L536.13 605.21 L534.41 603.57 L532.77 602.03 L531.22 600.63 L530.12 600.63 L529.59 602.58 L529.08 604.76 L528.65 607.35 L528.18 609.98 L527.55 612.18 L526.87 614.37 L525.77 614.82 L524.20 613.10 L522.82 612.12 L521.55 611.56 L520.03 609.56 L519.07 610.59 L518.02 611.12 L516.91 611.29 L515.97 612.68 L515.06 614.50 L514.03 615.55 L512.51 612.45 L510.84 607.21 L509.74 606.96 L508.48 604.70 L507.01 598.81 L506.46 606.06 L505.43 606.82 L504.40 607.74 L503.35 608.87 L502.28 609.80 L501.23 613.61 L500.09 611.54 L498.98 611.10 L497.82 613.42 L496.75 611.23 L495.77 607.74 L495.02 601.21 L493.86 603.53 L492.64 606.17 L492.03 600.46 L490.45 606.75 L488.50 615.51 L487.92 610.16 L487.26 606.40 L485.30 613.12 L484.92 607.61 L484.81 601.02 L483.40 603.37 L482.28 603.75 L480.71 606.50 L480.24 603.18 L478.17 608.13 L475.37 616.00 L474.86 612.84 L473.57 613.27 L472.02 614.75 L471.90 610.41 L471.84 606.21 L471.78 602.30 L470.31 603.55 L468.73 605.09 L468.51 602.09 L465.42 608.24 L462.48 613.53 L463.44 607.03 L462.70 605.71 L459.40 611.50 L461.54 602.42 L462.15 597.82 L457.15 607.54 L457.29 604.14 L456.70 602.64 L452.93 608.54 L451.10 609.73 L449.94 609.38 L448.80 608.98 L446.98 609.98 L444.78 611.69 L443.37 611.71 L442.18 611.28 L439.80 613.08 L438.10 613.52 L436.05 614.53 L434.75 614.18 L434.24 612.44 L434.58 609.34 L434.67 606.75 L434.37 604.87 L434.20 602.84 L433.40 601.83 L431.25 602.86 L429.21 603.64 L426.88 604.79 L424.52 605.91 L422.35 606.68 L420.24 607.30 L419.18 606.49 L419.33 604.11 L418.90 602.54 L418.43 601.04 L418.69 598.67 L417.09 598.59 L415.94 597.96 L414.86 597.22 L413.05 597.32 L411.13 597.49 L409.54 597.25 L411.08 593.71 L414.45 588.37 L413.85 587.22 L415.21 584.14 L419.10 578.69 L416.09 580.01 L415.49 578.98 L414.47 578.35 L412.85 578.24 L410.29 578.94 L407.37 579.88 L406.96 578.62 L405.49 578.25 L403.83 578.02 L404.94 575.56 L406.05 573.15 L408.97 569.43 L406.03 570.20 L404.66 569.75 L407.58 566.20 L402.85 568.13 L398.74 569.52 L398.63 568.11 L401.37 564.84 L396.37 566.66 L397.24 564.65 L401.32 560.72 L398.85 560.85 L398.04 559.96 L396.29 559.60 L396.90 557.88 L394.49 557.86 L390.63 558.56 L387.88 558.60 L387.29 557.48 L386.51 556.45 L386.08 555.25 L388.38 552.76 L391.46 549.99 L390.88 548.94 L389.94 548.05 L390.22 546.62 L387.49 546.46 L385.11 546.10 L384.32 545.08 L385.58 543.28 L379.91 544.05 L383.19 541.53 L386.01 539.25 L375.71 541.41 L378.21 539.23 L378.42 537.82 L371.99 538.42 L369.90 537.64 L369.53 536.33 L368.91 535.10 L367.39 534.08 L365.21 533.21 L363.48 532.20 L362.49 530.98 L360.48 529.97 L357.48 529.13 L354.73 528.18 L355.06 526.61 L356.25 524.91 L358.91 523.00 L361.18 521.21 L362.59 519.59 L364.15 517.98 L364.39 516.57 L362.13 515.45 L359.94 514.28 L357.61 513.08 L354.99 511.86 L352.77 510.56 L350.91 509.19 L351.01 507.69 L352.95 506.12 L353.93 504.62 L355.10 503.13 L357.06 501.66 L355.99 500.23 L355.87 498.79 L355.76 497.34 L354.33 495.86 L352.98 494.35 L352.07 492.83 L355.95 491.58 L361.38 490.50 L359.80 488.98 L364.49 487.99 L370.04 487.17 L361.98 484.98 L362.31 483.62 L361.56 482.12 L360.56 480.58 L359.44 478.99 L356.78 477.12 L359.10 476.05 L359.31 474.63 L357.20 472.77 L360.13 471.88 L364.13 471.27 L370.67 471.30 L367.86 469.28 L366.15 467.47 L372.24 467.59 L364.84 464.27 L357.41 460.78 L363.68 461.04 L366.77 460.47 L359.70 456.84 L367.00 457.63 L373.30 458.24 L371.28 456.14 L370.44 454.40 L368.90 452.38 L372.10 452.09 L366.68 448.53 L360.47 444.53 L364.12 444.40 L363.42 442.51 L363.06 440.74 L367.43 441.05 L371.88 441.49 L375.57 441.66 L374.17 439.47 L373.81 437.73 L376.44 437.48 L370.13 432.65 L367.20 429.44 L373.31 431.05 L374.25 429.92 L370.48 426.11 L378.91 429.31 L382.36 429.74 L374.87 423.55 L378.16 423.88 L379.43 422.99 L374.73 418.21 L374.08 415.98 L375.07 414.82 L375.51 413.29 L375.22 411.22 L375.01 409.17 L375.11 407.32 L374.76 405.11 L375.05 403.34 L374.05 400.54 L372.76 397.44 L374.37 396.65 L376.57 396.37 L379.79 397.01 L382.81 397.54 L384.85 397.28 L387.00 397.15 L388.51 396.47 L387.87 393.76 L387.58 391.33 L387.20 388.76 L386.73 386.05 L386.65 383.66 L386.82 381.49 L388.46 380.84 L392.28 382.60 L396.50 384.90 L399.62 386.10 L403.13 387.84 L406.15 389.12 L407.42 388.37 L408.50 387.40 L409.36 386.16 L410.54 385.30 L410.98 383.48 L412.06 382.47 L414.53 383.37 L414.59 380.96 L416.37 380.94 L419.48 382.91 L418.10 378.30 L420.04 378.59 L420.89 377.23 L421.98 376.22 L423.28 375.54 L423.43 372.96 L424.79 372.34 L425.05 369.83 L426.65 369.60 L427.43 367.92 L429.03 367.71 L433.76 373.51 L433.95 370.74 L435.38 370.35 L439.30 375.10 L438.95 371.12 L438.90 367.62 L440.30 367.18 L442.34 368.19 L442.21 364.22 L443.29 362.97 L446.14 366.07 L446.96 364.23 L448.10 363.11 L449.24 361.97 L450.91 362.27 L451.88 360.61 L452.78 358.63 L453.70 356.63 L454.87 355.33 L456.82 356.56 L457.74 354.35 L459.83 356.18 L462.06 358.75 L463.34 357.85 L464.68 357.13 L466.41 358.08 L467.32 355.48 L468.19 352.48 L469.64 352.05 L471.46 353.49 L472.17 349.12 L473.88 350.01 L476.19 354.66 L476.67 348.06 L478.24 348.25 L480.03 350.02 L481.21 347.21 L482.51 345.03 L483.66 340.96 L485.02 338.37 L486.37 334.96 L487.46 327.00 L489.13 325.93 L490.82 324.92 L492.59 325.20 L494.40 327.29 L496.18 329.44 L497.91 330.93 L499.60 333.69 L501.25 335.26 L502.88 336.73 L504.45 338.96 L506.01 340.27 L507.54 341.84 L509.05 343.03 L510.60 343.50 L512.16 343.66 L513.73 343.67 L515.30 343.77 L516.83 344.23 L518.47 343.69 L520.42 340.83 L521.88 341.99 L523.48 342.12 L525.69 338.33 L526.88 341.13 L528.39 341.82 L530.06 341.67 L531.73 341.52 L533.29 341.96 L535.10 341.25 L536.79 341.18 L537.71 344.30 L539.87 342.27 L541.12 343.92 L541.74 347.79 L544.49 343.89 L545.67 345.60 L547.37 345.56 L549.20 345.13 L550.74 345.65 L552.76 344.77 L554.20 345.61 L556.45 344.21 L557.95 344.92 L560.11 343.91 L561.10 345.96 L559.98 353.08 L562.27 351.73 L563.50 352.95 L562.66 358.78 L565.69 355.87 L568.55 353.48 L570.11 353.98 L570.58 356.68 L573.67 354.12 L575.30 354.52 L575.15 358.29 L577.18 357.91 L578.90 358.16 L580.61 358.43 L581.54 360.07 L583.64 359.71 L585.76 359.37 L588.19 358.58 L590.07 358.73 L590.59 361.00 L592.85 360.61 L592.73 363.76 L592.27 367.31 L593.93 367.76 L595.47 368.41 L596.01 370.40 L599.00 369.12 L602.00 367.93 L603.31 368.96 L603.71 371.13 L607.45 369.17 L607.79 371.40 L605.76 376.36 L611.46 372.30 L612.44 373.75 L612.52 376.17 L615.42 375.51 L618.20 375.04 L622.08 373.50 L625.04 373.00 L628.69 371.88 L635.92 367.36 L637.47 368.51 L639.48 369.23 L640.49 370.90 L640.04 373.87 L639.59 376.78 L639.79 379.07 L638.98 382.18 L639.06 384.48 L638.77 387.05 L638.28 389.73 L638.50 391.80 L638.23 394.22 L638.27 396.36 L639.20 397.82 L640.01 399.37 L641.20 400.64 L642.27 402.00 L642.83 403.71 L644.96 404.37 L648.21 404.33 L647.99 406.56 L649.57 407.64 L653.71 407.20 L652.15 410.20 L653.16 411.66 L654.12 413.14 L655.25 414.54 L656.04 416.13 L658.47 416.86 L659.16 418.51 L657.30 421.44 L660.82 421.68 L660.11 424.00 L657.60 427.11 L662.50 426.81 L662.17 428.90 L663.47 430.27 L664.75 431.66 L665.73 433.19 L667.21 434.53 L667.86 436.21 L670.52 437.14 L670.87 438.94 L672.89 440.16 L671.69 442.49 L665.88 446.28 L668.41 447.32 L668.07 449.26 L663.64 452.38 L668.52 452.78 L671.56 453.78 L671.88 455.53 L670.40 457.72 L674.42 458.58 L674.94 460.29 L672.08 462.75 L673.48 464.26 L674.66 465.83 L675.46 467.49 L675.27 469.34 L677.15 470.83 L678.64 472.42 L680.44 473.98 L681.15 475.73 L680.03 477.71 L681.86 479.33 L679.10 481.45 L676.48 483.51 L677.41 485.21 L678.04 486.95 L676.91 488.81 L679.82 490.43 L682.25 492.12 L682.32 493.95 L681.11 495.80 L685.37 497.56 L683.13 499.42 L679.00 501.22 L685.33 503.12 L684.72 504.95 L683.08 506.74 L685.64 508.70 L687.77 510.68 L691.35 512.80 L693.53 514.90 L696.67 517.12 L705.01 519.91 L704.87 521.97 L706.07 524.18 L704.91 526.13 L702.34 527.86 L699.74 529.54 L697.98 531.30 L695.44 532.91 L693.41 534.56 L691.35 536.17 L688.81 537.65 L687.18 539.27 L685.76 540.92 L683.66 542.39 L683.23 544.22 L682.62 546.01 L682.59 547.95 L681.71 549.67 L681.09 551.45 L681.72 553.60 L684.13 556.32 L681.89 557.63 L682.34 559.78 L684.89 562.67 L681.68 563.62 L681.23 565.50 L680.72 567.37 L679.95 569.14 L679.57 571.06 L680.19 573.40 L679.47 575.21 L675.58 575.65 L677.92 578.77 L675.41 579.77 L671.58 580.11 L674.71 583.71 L672.96 585.01 L673.20 587.29 L672.50 589.11 L671.78 590.92 L671.43 592.95 L670.71 594.78 L671.93 597.72 L670.63 599.25 L670.94 601.73 L667.60 602.02 L661.09 600.28 L662.72 603.57 L660.22 604.24 L655.09 603.13 L658.11 607.43 L659.01 610.38 L657.57 611.74 L654.91 612.19 L656.77 615.95 L655.67 617.56 L651.62 616.90 L651.80 619.48 L651.37 621.61 L650.26 623.21 L648.49 624.26 L648.40 626.74 L648.00 628.97 L647.89 631.50 L646.82 633.20 L645.08 634.30 L644.92 636.87 L640.93 635.79 L637.74 635.39 L637.05 637.44 L635.76 638.90 L633.66 639.51 L634.38 643.10 L634.55 646.18 L632.79 647.20 L630.19 647.25 L631.65 651.94 L628.66 651.52 L624.94 650.16 L627.02 655.81 L624.90 656.36 L622.97 657.15 L622.79 660.19 L622.10 662.64 L623.14 667.49 L622.51 670.17 L622.70 674.07 L625.89 682.45 L624.10 683.76 L623.15 686.34 L620.63 686.56 L617.51 685.79 L614.52 685.12 L611.64 684.58 L608.67 683.78 L605.88 683.23 L603.28 682.92 L600.42 682.10 L598.15 682.25 L595.50 681.67 L593.08 681.45 L591.08 682.01 L589.38 683.16 L587.55 684.06 L585.66 684.83 L583.73 685.51 L582.39 687.52 L581.74 691.21 L579.00 690.02 L577.55 691.95 L576.77 695.62 L573.86 693.89 L571.93 694.64 L569.98 695.34 L568.07 696.18 L566.09 696.80 L564.50 698.62 L562.66 699.75 L560.49 699.78 L560.89 708.64 L558.53 708.25 L556.07 707.44 L555.68 714.49 L553.95 716.70 L551.83 717.47 L549.54 717.46 L547.90 720.44 L546.19 723.31 L544.05 724.23 L541.89 725.12 L539.21 723.10 L536.59 721.14 L534.41 721.68 L531.86 719.74 L529.23 716.88 L527.32 719.19 L525.41 721.95 L523.10 721.35 L521.14 724.31 L519.27 728.97 L516.95 728.74 L514.63 728.38 L512.23 726.36 L509.95 726.15 L507.55 722.23 L505.24 718.57 L503.11 722.61 L500.89 724.28 L498.65 724.16 L496.34 728.40 L493.95 732.38 L491.67 731.19 L489.43 729.42 L487.19 728.40 L484.94 727.83 L482.94 723.97 L480.82 722.46 L478.22 726.12 L476.01 725.42 L473.79 724.92 L470.83 730.22 L468.48 730.29 L466.02 731.04 L463.97 729.07 L461.73 728.40 L460.03 724.76 L458.33 721.39 L455.88 722.21 L453.78 721.17 L450.92 723.68 L448.44 724.21 L445.20 727.86 L442.69 728.21 L440.25 728.25 L437.62 728.95 L434.81 730.14 L432.28 730.28 L430.04 729.39 L427.03 730.97 L424.14 732.01 L421.58 731.95 L419.88 729.40 L418.75 725.38 L416.52 724.49 L415.32 720.92 L413.67 718.67 L411.21 718.47 L408.91 717.86 L406.13 718.36 L403.50 718.42 L400.71 718.79 L397.57 719.84 L394.49 720.66 L391.53 721.14 L388.71 721.26 L387.07 719.05 L386.03 715.74 L384.30 713.81 L382.62 711.83 L381.01 709.76 L378.92 708.56 L376.47 707.95 L373.67 707.90 L371.09 707.45 L368.62 706.78 L366.63 705.35 L365.88 702.04 L364.85 699.24 L364.63 695.34 L363.93 692.21 L360.69 692.67 L358.42 691.75 L356.62 690.17 L354.50 689.02 L350.50 690.26 L347.53 690.09 L346.89 687.02 L343.95 686.78 L342.60 684.61 L342.13 681.45 L343.11 676.73 L344.93 671.20 L341.97 670.99 L339.79 669.91 L339.35 667.00 L333.02 670.14 L327.43 672.36 L326.51 669.84 L323.73 669.15 L322.14 667.29 L322.25 663.86 L324.67 658.42 L325.19 654.80 L322.16 654.35 L320.68 652.51 L319.35 650.56 L312.61 653.02 L307.55 653.97 L306.71 651.50 L304.36 650.21 L303.31 647.91 L304.21 644.19 L307.38 638.90 L307.57 635.87 L304.70 634.98 L304.04 632.57 L302.28 630.90 L295.09 632.73 L290.82 632.54 L290.15 630.04 L287.98 628.47 L287.57 625.84 L289.73 621.73 L289.28 619.19 L287.48 617.42 L288.01 614.38 L284.44 613.53 L280.48 612.83 L278.09 611.27 L275.81 609.62 L273.07 608.16 L271.24 606.24 L268.40 604.76 L266.73 602.71 L264.97 600.69 L263.69 598.46 L260.64 596.93 L257.16 595.53 L257.84 592.47 L260.55 588.70 L261.22 585.75 L262.87 582.49 L264.35 579.34 L263.53 577.00 L261.89 574.91 L259.91 572.90 L256.71 571.22 L254.07 569.33 L250.68 567.60 L248.30 565.55 L245.23 563.64 L243.79 561.28 L244.64 558.39 L246.27 555.35 L246.38 552.67 L247.15 549.88 L247.29 547.23 L246.74 544.72 L246.24 542.20 L244.41 539.88 L243.20 537.44 L241.88 535.00 L242.10 532.35 L244.08 529.50 L244.99 526.82 L248.07 523.95 L250.16 521.23 L247.60 518.91 L246.45 516.45 L245.48 513.96 L244.26 511.46 L241.52 508.99 L238.80 506.47 L240.63 503.83 L241.03 501.24 L241.12 498.65 L243.81 496.10 L248.61 493.66 L252.57 491.28 L251.15 488.74 L251.15 486.24 L252.78 483.85 L246.00 480.86 L240.91 477.87 L242.08 475.37 L239.93 472.53 L241.03 470.03 L243.24 467.68 L247.61 465.66 L252.21 463.76 L249.86 460.86 L249.34 458.20 L251.93 456.08 L245.06 452.23 L241.37 448.86 L243.60 446.63 L242.45 443.70 L244.60 441.49 L247.42 439.47 L253.17 438.23 L256.58 436.49 L255.01 433.46 L256.57 431.26 L257.40 428.87 L250.41 424.10 L248.64 420.80 L250.25 418.56 L249.22 415.44 L252.10 413.64 L255.80 412.18 L256.84 409.80 L258.76 407.76 L260.20 405.55 L259.03 402.29 L258.11 399.09 L256.55 395.57 L257.26 392.99 L256.55 389.75 L256.18 386.64 L255.93 383.53 L256.03 380.57 L256.52 377.78 L257.91 375.43 L256.78 371.76 L255.90 368.16 L258.22 366.27 L262.22 365.36 L264.91 363.76 L268.14 362.52 L270.21 360.62 L271.85 358.47 L272.25 355.55 L272.88 352.75 L272.73 349.40 L273.19 346.42 L273.19 343.09 L273.56 339.97 L273.75 336.68 L274.91 334.08 L277.44 332.48 L280.36 331.21 L282.78 329.59 L285.56 328.28 L287.80 326.56 L289.77 324.64 L291.67 322.65 L292.46 319.72 L293.79 317.22 L294.68 314.31 L297.00 312.69 L300.45 312.15 L303.35 311.13 L308.02 311.89 L311.45 311.52 L311.42 307.68 L313.25 305.70 L315.61 304.27 L315.98 300.71 L316.20 296.91 L317.34 294.07 L320.17 293.13 L322.26 291.35 L324.71 290.00 L327.94 289.63 L332.80 291.36 L336.39 291.61 L337.82 289.11 L339.04 286.31 L341.93 285.72 L340.72 279.50 L339.87 273.59 L343.13 273.42 L344.44 270.45 L347.43 269.94 L350.85 270.14 L355.84 272.89 L359.83 274.22 L360.64 270.43 L363.09 269.28 L365.91 268.81 L364.31 260.56 L364.96 256.05 L367.94 255.70 L369.52 252.74 L372.78 252.98 L376.28 253.74 L380.99 257.10 L384.59 258.35 L385.77 254.56 L388.56 254.15 L391.00 252.98 L390.20 244.28 L392.13 241.69 L394.94 241.16 L397.12 239.08 L400.63 240.40 L404.13 241.85 L406.70 240.86 L409.82 241.42 L412.40 240.52 L414.17 237.12 L416.21 234.37 L418.15 231.21 L420.62 229.64 L422.91 227.36 L425.34 225.50 L427.52 222.60 L429.96 220.54 L432.81 220.08 L435.37 218.37 L437.51 214.62 L440.16 213.01 L443.41 214.35 L446.95 217.40 L450.01 218.21 L453.19 219.88 L456.32 221.53 L459.11 221.13 L461.76 219.65 L464.43 218.22 L467.02 215.91 L469.63 213.45 L472.27 210.77 L475.04 209.03 L477.75 206.17 L480.65 205.27 L483.66 206.21 L486.68 207.83 L489.64 208.93 L492.58 209.98 L495.49 210.46 L498.39 210.97 L501.28 210.57 L504.20 209.09 L507.11 208.98 L509.98 210.18 L512.69 214.55 L515.42 216.97 L518.04 220.36 L520.51 224.92 L523.18 226.15 L525.88 226.74 L528.71 226.02 L531.66 224.52 L534.75 222.17 L537.65 221.65 L540.39 222.27 L543.39 221.24 L546.04 222.55 L548.37 225.52 L550.47 229.48 L552.74 232.17 L556.29 228.47 L558.33 232.14 L561.22 231.82 L564.91 228.18 L568.09 227.01 L570.19 230.11 L572.36 232.75 L576.21 229.31 L577.66 234.35 L579.60 237.51 L582.83 236.37 L586.04 235.43 L588.41 237.11 L590.97 238.20 L594.93 235.37 L598.64 233.45 L601.59 233.67 L604.10 235.08 L606.92 235.71 L609.22 237.60 L610.38 242.10 L611.87 245.70 L614.90 245.74 L617.03 247.78 L619.66 248.72 L623.59 247.02 L626.60 247.29 L628.68 249.44 L631.83 249.49 L634.83 249.90 L635.24 255.02 L641.59 249.49 L643.93 251.18 L645.26 254.58 L650.70 251.09 L654.26 250.88 L657.64 251.02 L659.79 253.12 L662.94 253.68 L666.82 253.22 L669.43 254.69 L672.13 256.02 L675.37 256.64 L676.80 259.76 L678.83 262.01 L680.53 264.69 L681.73 267.98 L682.18 272.12 L683.42 275.22 L684.09 278.95 L685.23 282.05 L686.45 285.01 L688.09 287.45 L690.28 289.27 L692.35 291.21 L694.17 293.42 L696.28 295.31 L698.24 297.36 L700.51 299.10 L703.40 300.24 L707.26 300.48 L708.07 303.67 L711.19 304.68 L714.09 305.94 L715.20 308.81 L717.13 310.95 L719.02 313.13 L721.08 315.15 L723.48 316.92 L726.07 318.54 L727.27 321.29 L727.18 325.00 L731.51 325.33 L730.61 329.60 L730.83 332.98 L735.19 333.38 L736.82 335.76 L739.32 337.54 L740.46 340.26 L743.19 341.93 L744.74 344.38 L747.31 346.20 L749.98 347.98 L751.80 350.31 L754.55 352.09 L751.26 357.35 L749.27 361.75 L753.75 362.57 L750.87 367.35 L751.47 370.24 L756.50 370.88 L759.29 372.71 L759.95 375.59 L760.06 378.72 L764.45 379.88 L764.54 383.01 L763.66 386.54 L765.81 388.75 L768.51 390.76 L768.82 393.76 L769.75 396.50 L772.48 398.56 L774.86 400.80 L778.19 402.73 L777.52 406.07 L778.60 408.79 L781.30 411.02 L776.76 415.49 L776.33 418.63 L778.41 421.03 L778.55 424.00 L779.14 426.83 L783.72 428.65 L785.55 431.22 L785.37 434.27 L786.77 436.97 L790.09 439.27 L786.24 443.06 L790.07 445.31 L792.06 447.95 L789.77 451.34 L792.99 453.81 L794.28 456.62 L797.06 459.24 L802.06 461.62 L802.54 464.63 L807.40 467.18 L813.80 469.66 L813.91 472.82 L814.52 475.93 L814.79 479.08 L813.70 482.30 L811.71 485.54 L809.92 488.72 L807.17 491.90 L805.57 495.00 L803.68 498.07 L801.81 501.10 L800.75 504.10 L799.45 507.08 L799.42 510.07 L799.04 513.06 L798.83 516.04 L798.84 519.04 L798.09 521.99 L798.19 525.00 L799.25 528.10 L801.63 531.37 L799.49 534.18 L800.84 537.38 L801.75 540.56 L799.94 543.38 L799.40 546.36 L799.43 549.44 L798.74 552.40 L798.51 555.44 L798.51 558.53 L798.04 561.54 L795.46 564.10 L798.87 567.97 L796.26 570.50 L794.25 573.14 L797.32 577.07 L795.61 579.79 L795.81 583.02 L796.49 586.42 L798.78 590.34 L798.20 593.43 L796.78 596.25 L797.75 599.87 L795.35 602.36 L791.94 604.46 L787.28 606.05 L785.62 608.69 L787.60 612.75 L782.82 614.15 L783.82 617.87 L786.73 622.46 L786.61 625.81 L782.41 627.35 L780.62 629.93 L782.45 634.22 L776.61 634.86 L774.34 637.17 L773.91 640.39 L774.20 644.02 L771.84 646.26 L770.65 649.14 L772.57 653.77 L773.75 658.06 L772.89 661.22 L771.42 664.04 L769.41 666.53 L766.45 668.40 L761.79 669.14 L758.06 670.41 L757.32 673.65 L754.78 675.67 L753.86 678.80 L754.67 683.21 L753.36 686.14 L750.28 687.76 L751.14 692.36 L748.63 694.41 L743.00 693.95 L749.11 702.94 L745.10 703.79 L741.63 705.03 L744.03 711.29 L743.46 715.10 L742.33 718.46 L739.73 720.49 L738.23 723.56 L738.11 727.96 L736.89 731.38 L733.89 733.07 L732.51 736.37 L729.92 738.46 L726.20 739.35 L723.00 740.74 L718.95 741.16 L714.74 741.33 L711.08 742.05 L707.54 742.84 L704.15 743.78 L700.71 744.59 L697.78 746.00 L695.37 748.04 L692.53 749.53 L690.10 751.54 L687.66 753.54 L685.01 755.26 L682.52 757.20 L680.93 760.45 L679.44 763.89 L675.88 764.30 L674.46 767.93 L672.26 770.44 L668.83 770.99 L666.20 772.81 L663.65 774.78 L660.91 776.43 L658.41 778.49 L656.06 780.87 L652.96 781.89 L648.69 780.68 L647.57 785.43 L643.21 783.92 L640.08 784.76 L638.61 789.04 L635.65 790.28 L633.08 792.35 L629.70 792.65 L627.49 795.61 L624.65 797.17 L622.30 799.94 L619.27 801.08 L616.44 802.76 L614.17 805.93 L608.81 800.72 L604.97 799.45 L602.83 803.00 L598.23 799.25 L595.30 800.44 L593.54 805.46 L590.73 807.22 L587.39 807.20 L584.12 807.32 L581.94 811.57 L578.45 810.92 L575.15 810.91 L572.08 811.81 L569.30 814.06 L566.00 814.03 L562.86 814.65 L560.06 817.15 L557.08 818.82 L554.35 822.10 L550.78 820.42 L547.67 821.56 L544.61 823.17 L540.68 818.18 L537.44 818.06 L534.39 819.71 L531.11 819.16 L527.93 819.58 L525.03 823.72 L521.85 824.81 L518.54 823.89 L515.41 826.49 L512.18 827.53 L508.77 822.58 L505.63 827.76 L502.35 827.92 L499.08 825.49 L495.79 828.26 L492.47 829.91 L489.09 832.05 L485.60 836.03 L482.21 836.40 L478.58 840.40 L474.84 844.85 L471.37 844.89 L467.87 845.14 L464.48 844.17 L461.12 843.08 L457.87 841.28 L454.77 838.46 L451.80 835.15 L448.74 832.80 L445.73 830.35 L442.61 828.73 L439.65 826.37 L436.51 825.16 L433.24 824.62 L430.06 823.64 L426.88 822.70 L423.56 822.33 L420.48 821.01 L417.13 820.76 L413.50 821.48 L409.91 821.98 L407.00 820.00 L403.16 821.21 L399.83 820.61 L396.86 818.86 L393.69 817.78 L390.37 817.14 L387.21 816.00 L383.73 815.75 L380.33 815.21 L377.46 813.30 L375.25 809.78 L371.04 811.21 L369.23 806.87 L366.26 805.34 L362.07 806.52 L359.03 805.10 L355.79 804.07 L352.97 802.18 L349.21 802.20 L346.00 801.06 L342.33 800.77 L339.45 798.95 L335.97 798.25 L332.06 798.26 L332.53 790.58 L330.49 787.43 L326.22 788.05 L326.34 781.46 L323.44 779.85 L318.34 781.65 L315.09 780.49 L312.69 778.05 L310.00 776.04 L305.35 776.83 L303.69 773.34 L301.30 770.90 L298.61 768.89 L294.87 768.25 L292.82 765.39 L290.07 763.44 L286.26 762.79 L282.85 761.59 L278.29 761.72 L277.62 757.24 L274.31 755.85 L271.14 754.28 L272.16 748.12 L270.20 745.28 L266.94 743.82 L265.30 740.67 L262.61 738.61 L257.51 738.91 L254.35 737.23 L252.82 733.98 L248.33 733.50 L245.87 731.10 L247.49 725.05 L241.14 726.10 L238.87 723.52 L238.68 719.20 L234.17 718.49 L230.91 716.70 L226.34 715.91 L221.16 715.50 L217.82 713.61 L210.46 714.66 L204.95 714.20 L202.65 711.37 L199.65 709.01 L199.25 704.85 L199.15 700.55 L198.62 696.58 L198.60 692.33 L198.19 688.37 L197.95 684.34 L197.63 680.41 L197.40 676.47 L196.72 672.83 L196.35 669.04 L194.68 665.99 L193.59 662.64 L191.57 659.77 L190.25 656.55 L189.13 653.23 L186.94 650.44 L183.77 648.09 L181.43 645.32 L180.57 641.87 L177.07 639.57 L175.69 636.34 L175.06 632.79 L173.41 629.67 L172.13 626.40 L170.64 623.21 L168.59 620.21 L166.55 617.19 L166.64 613.43 L167.45 609.45 L163.87 606.92 L166.09 602.54 L164.22 599.46 L161.55 596.58 L160.74 593.15 L159.67 589.79 L158.53 586.45 L155.83 583.48 L155.01 580.04 L152.97 576.86 L152.52 573.32 L150.53 570.10 L148.05 566.94 L154.75 562.10 L154.98 558.50 L152.66 555.33 L157.52 551.05 L156.38 547.71 L151.45 544.85 L150.27 541.45 L151.17 537.81 L150.53 534.35 L147.44 531.09 L149.12 527.41 L148.85 523.90 L148.91 520.37 L147.18 516.94 L148.02 513.37 L147.38 509.86 L145.58 506.37 L143.99 502.84 L141.28 499.27 L144.23 495.72 L143.20 492.14 L142.92 488.56 L148.14 485.20 L148.90 481.71 L147.82 478.12 L148.96 474.67 L148.39 471.09 L145.01 467.23 L144.75 463.63 L146.61 460.24 L143.11 456.23 L143.55 452.66 L149.94 449.94 L144.50 445.53 L145.25 442.01 L148.11 438.86 L146.20 434.87 L145.35 431.04 L142.82 426.84 L140.19 422.54 L139.31 418.57 L132.99 413.28 L130.69 408.83 L131.38 405.08 L131.38 401.13 L134.35 398.00 L137.73 395.03 L140.31 391.86 L143.77 389.01 L146.57 385.99 L149.18 382.95 L152.31 380.12 L155.05 377.19 L157.44 374.16 L159.96 371.21 L161.76 368.02 L163.22 364.69 L164.81 361.42 L166.23 358.08 L167.69 354.76 L168.48 351.14 L168.62 347.21 L169.39 343.53 L170.99 340.24 L170.97 336.15 L172.41 332.75 L174.64 329.77 L176.48 326.59 L178.31 323.41 L179.62 319.93 L180.54 316.22 L181.92 312.76 L185.12 310.38 L188.38 308.07 L188.60 303.89 L193.47 302.64 L193.29 298.16 L195.10 294.95 L197.00 291.80 L198.50 288.36 L200.89 285.54 L201.35 281.32 L203.94 278.63 L204.67 274.54 L207.15 271.76 L208.26 267.90 L209.68 264.25 L218.09 266.36 L220.78 263.84 L222.05 260.11 L228.59 260.97 L229.83 257.23 L229.11 251.64 L231.37 248.73 L234.98 247.08 L236.81 243.75 L237.64 239.40 L241.98 238.53 L244.35 235.70 L247.19 233.34 L248.82 229.70 L251.95 227.67 L254.29 224.75 L256.04 221.15 L258.08 217.83 L259.23 213.43 L263.96 213.28 L265.95 209.83 L268.93 207.59 L274.68 208.94 L277.90 207.08 L280.11 203.90 L283.74 202.61 L286.13 199.64 L286.97 194.39 L289.68 191.76 L293.83 191.26 L294.71 185.81 L298.10 184.15 L304.37 187.11 L304.07 179.54 L307.42 177.83 L311.84 177.95 L313.89 174.02 L316.28 170.60 L317.99 165.86 L319.73 161.03 L322.26 157.56 L322.43 149.34 L324.55 144.78 L327.98 142.76 L331.19 140.27 L335.63 140.42 L340.21 140.98 L344.51 141.03 L348.87 141.30 L353.21 141.63 L357.35 141.57 L361.73 142.19 L365.87 142.30 L369.95 142.35 L373.84 141.93 L377.57 141.11 L381.33 140.40 L384.97 139.37 L388.53 138.05 L392.18 137.03 L395.70 135.59 L398.95 133.09 L402.31 130.94 L406.14 130.51 L409.27 127.26 L412.93 126.03 L416.88 126.12 L420.65 125.44 L424.38 124.57 L428.08 123.52 L431.68 121.91 L435.39 120.80 L439.36 121.28 L443.41 122.38 L446.88 119.65 L451.19 123.02 L454.60 119.55 L458.43 119.30 L462.22 118.69 L465.89 116.77 L469.80 117.34 L473.51 115.30 L477.37 115.38 L481.11 112.96 L485.00 113.09 L488.83 111.82 L492.70 110.87 L496.66 118.30 L500.47 117.93 L504.31 116.79 L508.01 123.01 L511.84 120.99 L515.80 116.99 L519.65 116.89 L523.39 118.58 L527.30 117.50 L531.30 115.56 L534.90 118.60 L538.79 118.16 L542.59 118.71 L546.55 117.92 L550.26 119.21 L554.16 119.10 L558.21 118.02 L562.25 117.31 L566.50 115.48 L569.83 118.94 L573.89 118.34 L577.63 119.48 L580.49 124.64 L584.26 125.38 L588.25 125.19 L591.70 127.28 L595.70 127.15 L600.33 124.73 L604.17 125.43 L607.34 128.45 L612.29 125.42 L615.86 127.11 L617.88 133.56 L623.43 129.08 L627.31 129.80 L629.95 134.08 L634.56 132.78 L638.92 132.31 L643.71 130.85 L648.59 129.30 L653.12 128.80 L659.57 123.88 L664.64 122.48 L668.61 123.68 L672.62 124.84 L675.51 128.39 L678.28 132.10 L681.02 135.78 L683.73 139.40 L686.45 142.94 L689.37 146.03 L691.75 150.04 L694.48 153.33 L697.32 156.36 L700.00 159.62 L703.36 161.69 L706.47 164.18 L709.79 166.30 L713.27 168.17 L716.30 170.75 L719.86 172.52 L724.35 172.93 L727.73 175.02 L730.83 177.51 L735.93 177.26 L738.67 180.28 L741.32 183.37 L744.69 185.53 L747.83 187.98 L750.88 190.54 L754.18 192.81 L757.95 194.52 L760.86 197.27 L765.63 197.89 L772.50 196.26 L775.21 199.34 L783.27 196.69 L786.91 198.89 L790.42 201.24 L793.00 204.55 L796.06 207.38 L799.00 210.33 L801.87 213.35 L805.41 215.73 L810.81 216.46 L814.24 219.03 L818.39 221.00 L825.20 220.74 L828.12 223.88 L831.00 227.06 L833.86 230.27 L836.65 233.53 L839.23 236.97 L840.27 241.56 L838.41 248.27 L835.14 255.87 L835.32 260.84 L833.72 266.98 L831.55 273.39 L833.68 276.80 L834.88 280.81 L836.29 284.66 L837.19 288.81 L840.15 291.66 L843.59 294.25 L843.30 299.06 L848.91 300.43 L853.37 302.55 L852.28 307.75 L855.85 310.40 L858.10 313.77 L858.88 317.90 L859.20 322.23 L859.89 326.35 L862.92 329.34 L866.12 332.28 L864.56 337.39 L870.62 339.11 L874.52 341.85 L872.59 347.04 L876.53 349.80 L877.77 353.67 L878.16 357.85 L878.34 362.08 L878.82 366.19 L881.12 369.65 L883.85 372.99 L882.68 377.60 L887.97 380.18 L891.18 383.46 L888.98 388.33 L892.36 391.60 L893.29 395.56 L893.06 399.82 L892.51 404.13 L892.87 408.20 L895.10 411.83 L896.84 415.60 L895.28 420.06 L900.93 423.08 L902.77 426.89 L901.31 431.30 L903.83 435.01 L903.71 439.17 L903.20 443.36 L902.22 447.60 L902.47 451.65 L904.18 455.54 L905.05 459.54 L903.82 463.74 L909.31 467.37 L909.25 471.49 L909.63 475.58 L910.16 479.66 L909.52 483.79 L907.92 487.94 L906.16 492.06 L906.04 496.12 L976.11 500.00 L977.58 495.22 L976.27 490.47 L973.52 485.79 L971.13 481.14 L970.33 476.46 L970.07 471.76 L967.63 467.21 L967.92 462.49 L972.37 457.37 L969.67 452.88 L969.88 448.10 L970.47 443.27 L968.90 438.70 L966.50 434.26 L963.89 429.89 L962.13 425.42 L962.52 420.60 L958.77 416.52 L959.02 411.72 L963.22 406.10 L958.99 402.17 L959.13 397.33 L959.34 392.45 L957.20 388.12 L953.86 384.11 L950.92 380.05 L949.15 375.70 L948.85 370.93 L944.27 367.42 L944.85 362.39 L947.60 356.62 L943.36 353.07 L943.21 348.19 L942.52 343.47 L939.89 339.43 L936.35 335.75 L932.92 332.08 L930.62 328.01 L930.34 323.11 L925.09 320.28 L925.60 315.02 L927.07 309.28 L922.64 306.17 L922.40 301.14 L920.90 296.68 L917.25 293.28 L913.23 290.09 L910.04 286.53 L907.49 282.65 L905.93 278.24 L900.87 275.77 L900.95 270.43 L901.57 264.71 L897.24 261.88 L896.11 257.15 L893.96 253.01 L890.31 249.82 L886.03 247.09 L882.19 244.10 L879.18 240.59 L871.88 240.09 L864.89 239.50 L860.03 237.50 L851.28 238.46 L844.00 238.49 L839.66 236.39 L836.68 233.26 L833.82 230.05 L830.96 226.84 L828.08 223.67 L825.17 220.50 L825.92 214.14 L824.31 209.77 L821.95 206.03 L820.99 200.97 L818.67 197.12 L815.44 194.13 L812.17 191.18 L808.94 188.20 L805.06 185.90 L802.14 182.62 L799.77 178.74 L799.82 172.16 L796.32 169.42 L797.05 161.86 L794.32 158.13 L791.24 154.78 L788.00 151.61 L784.64 148.59 L780.87 146.06 L777.10 143.55 L773.41 140.94 L768.88 139.46 L765.46 136.52 L762.90 132.37 L758.69 130.49 L755.56 127.09 L752.40 123.68 L748.56 121.28 L744.57 119.10 L740.53 117.02 L736.37 115.16 L732.28 113.21 L727.69 112.10 L723.04 111.17 L718.40 110.29 L713.43 110.06 L708.44 109.96 L703.75 109.38 L698.81 109.39 L693.81 109.60 L688.92 109.70 L683.91 110.15 L679.01 110.50 L675.38 108.12 L671.74 105.72 L668.66 101.96 L667.26 94.02 L663.72 91.05 L660.48 87.22 L657.36 82.95 L653.54 80.42 L649.77 77.69 L644.47 79.32 L640.84 76.12 L637.91 70.65 L631.82 75.08 L627.92 72.56 L624.35 68.85 L619.31 70.23 L615.42 67.52 L611.45 64.98 L607.00 64.25 L602.70 62.96 L598.39 61.65 L594.09 60.27 L588.97 62.91 L584.71 61.42 L580.48 59.70 L575.35 63.12 L571.20 61.03 L566.98 59.20 L562.54 58.77 L558.20 57.56 L553.73 57.34 L549.25 57.27 L544.88 56.23 L540.37 56.60 L535.72 58.88 L531.49 55.98 L526.98 56.83 L522.47 58.03 L518.08 57.01 L513.68 55.88 L509.26 54.74 L504.76 59.42 L500.35 58.44 L495.92 56.86 L491.62 63.72 L487.20 61.72 L482.75 60.14 L478.50 63.45 L474.09 62.89 L469.77 63.80 L465.37 63.64 L461.06 64.57 L456.75 65.42 L452.50 66.76 L448.13 66.96 L443.73 66.92 L439.80 70.32 L435.02 67.72 L430.94 69.91 L426.85 71.79 L422.47 72.02 L418.03 71.94 L413.83 73.16 L409.63 74.34 L405.43 75.52 L401.44 77.54 L397.17 78.33 L392.62 78.07 L388.51 79.57 L384.09 79.89 L379.64 80.17 L375.38 81.17 L371.27 82.67 L367.25 84.43 L363.39 86.66 L359.39 88.42 L355.69 91.01 L352.13 93.91 L348.64 96.92 L345.39 100.43 L342.20 104.01 L338.87 107.12 L335.76 110.66 L333.05 115.05 L330.00 118.51 L327.27 122.59 L324.56 126.58 L320.49 127.63 L316.53 128.95 L311.77 128.70 L304.98 124.66 L300.66 125.56 L295.69 125.30 L290.47 124.72 L286.39 126.23 L281.92 127.12 L279.63 131.70 L275.10 132.52 L269.41 131.55 L268.85 138.74 L264.58 140.04 L259.45 140.12 L257.14 144.41 L252.83 145.75 L248.92 147.70 L245.63 150.54 L241.87 152.73 L238.07 154.88 L234.33 157.12 L233.44 162.99 L229.42 164.85 L225.57 166.95 L225.12 173.13 L220.87 174.73 L216.76 176.55 L213.96 179.86 L210.34 182.26 L207.21 185.21 L204.20 188.28 L200.73 190.88 L198.82 195.07 L197.37 199.67 L191.95 200.34 L190.37 204.77 L188.37 208.76 L184.85 211.32 L181.39 213.96 L177.91 216.60 L178.26 222.56 L174.61 225.04 L171.10 227.66 L173.53 235.13 L168.84 236.77 L165.08 239.21 L164.97 244.47 L162.20 247.65 L159.89 251.19 L156.97 254.28 L154.88 257.97 L153.10 261.86 L151.74 266.01 L147.91 268.52 L146.22 272.44 L146.41 277.53 L141.22 279.24 L140.54 283.75 L139.33 287.91 L136.44 291.07 L133.85 294.43 L132.19 298.30 L130.44 302.13 L128.48 305.83 L127.51 310.04 L125.68 313.80 L122.31 316.81 L121.23 320.94 L118.71 324.40 L115.76 327.67 L114.02 331.51 L112.72 335.53 L111.68 339.66 L110.44 343.68 L109.48 347.82 L109.11 352.16 L109.22 356.65 L109.43 361.14 L110.02 365.73 L110.45 370.22 L111.19 374.77 L111.92 379.28 L113.41 383.96 L114.21 388.40 L115.56 392.94 L116.88 397.43 L114.82 400.99 L113.54 404.77 L109.63 407.94 L102.55 410.46 L100.90 414.27 L97.37 417.71 L93.53 421.16 L92.11 425.10 L89.73 428.90 L91.44 433.40 L89.88 437.35 L85.99 440.98 L90.57 445.81 L88.29 449.69 L86.25 453.64 L87.76 457.97 L85.70 461.95 L84.59 466.03 L84.66 470.21 L83.91 474.34 L83.23 478.48 L82.67 482.63 L86.71 486.94 L85.16 491.04 L84.38 495.18 L89.01 499.35 L87.19 503.47 L86.00 507.62 L86.33 511.75 L86.05 515.91 L86.60 520.03 L86.74 524.16 L85.91 528.37 L88.58 532.32 L90.91 536.26 L87.99 540.68 L90.83 544.53 L92.04 548.53 L91.38 552.76 L91.27 556.93 L91.58 561.06 L96.29 564.49 L94.96 568.86 L95.78 572.89 L102.81 575.73 L100.72 580.28 L100.24 584.54 L104.36 587.81 L104.73 591.89 L105.67 595.83 L106.09 599.92 L107.69 603.69 L109.87 607.30 L111.75 610.97 L110.69 615.50 L113.32 618.94 L116.96 622.02 L114.67 627.01 L118.01 630.16 L120.08 633.71 L120.78 637.74 L121.35 641.84 L123.45 645.36 L125.20 649.01 L126.90 652.67 L129.28 656.04 L130.68 659.82 L130.68 664.22 L133.37 667.44 L134.00 671.60 L134.77 675.71 L136.53 679.36 L138.86 682.72 L140.79 686.28 L143.27 689.55 L145.76 692.79 L148.82 695.70 L152.35 698.31 L155.88 700.89 L159.52 703.36 L163.16 705.78 L166.81 708.15 L170.91 710.20 L175.19 712.07 L179.24 714.03 L183.52 715.78 L187.66 717.56 L188.77 721.44 L190.88 724.63 L190.10 729.96 L187.50 736.78 L189.63 740.09 L189.57 745.14 L190.01 749.86 L192.04 753.34 L193.50 757.33 L197.92 758.81 L199.45 762.76 L200.07 767.56 L206.35 767.27 L207.31 771.80 L209.44 775.28 L213.39 777.03 L215.00 781.05 L217.31 784.40 L220.36 787.01 L223.00 790.05 L225.40 793.35 L228.17 796.28 L234.07 795.73 L235.86 799.71 L238.82 802.40 L244.68 801.66 L246.61 805.53 L248.84 809.07 L251.73 811.84 L254.60 814.64 L258.24 816.45 L261.43 818.83 L264.12 821.90 L268.66 822.41 L272.69 823.59 L274.16 828.42 L279.00 828.37 L282.77 829.85 L285.56 832.80 L288.29 835.90 L291.59 838.11 L297.09 836.67 L299.29 840.69 L303.00 842.17 L309.48 838.71 L311.26 843.54 L314.53 845.72 L319.45 844.78 L322.51 847.35 L325.92 849.26 L329.22 851.39 L333.20 852.12 L337.20 852.75 L340.93 853.94 L343.47 857.80 L347.96 857.22 L352.40 856.66 L354.38 862.07 L359.01 860.95 L362.84 861.77 L366.05 864.26 L369.62 865.79 L373.47 866.54 L377.19 867.66 L380.88 868.83 L385.00 868.64 L388.49 870.43 L391.71 873.21 L395.91 872.62 L399.25 875.13 L402.67 877.39 L406.55 877.96 L410.43 878.46 L414.30 878.99 L418.19 879.40 L422.13 879.48 L426.15 879.12 L430.27 878.09 L434.20 877.90 L438.34 876.34 L442.46 874.69 L446.36 874.19 L450.48 871.86 L454.59 869.16 L458.44 868.24 L462.31 866.83 L466.18 865.04 L469.68 867.15 L473.36 867.34 L476.81 871.23 L480.25 876.56 L484.03 876.64 L487.68 880.11 L491.45 882.04 L495.26 882.88 L499.08 884.20 L502.91 881.83 L506.76 883.68 L510.65 885.44 L514.35 881.38 L518.30 883.98 L522.12 883.58 L525.86 881.91 L529.83 883.62 L533.73 884.01 L537.54 883.37 L541.39 883.17 L545.28 883.21 L549.12 882.81 L552.33 877.90 L556.42 879.44 L560.20 878.80 L563.38 874.61 L567.40 875.46 L571.34 875.77 L575.04 874.78 L578.91 874.62 L582.52 873.20 L586.29 872.55 L590.30 872.84 L593.28 869.00 L596.64 866.80 L601.07 868.62 L604.09 865.27 L607.58 863.68 L611.51 863.54 L615.35 863.10 L618.98 861.92 L621.27 856.82 L625.83 858.45 L628.95 855.90 L630.47 849.14 L635.14 850.91 L638.70 849.68 L641.20 845.86 L645.05 845.38 L648.45 843.79 L652.00 842.56 L655.06 840.24 L658.12 837.97 L661.49 836.36 L666.05 837.17 L667.91 832.52 L670.55 829.52 L675.40 830.74 L677.31 826.41 L680.44 824.40 L683.99 823.13 L687.40 821.60 L690.35 819.28 L693.68 817.59 L696.59 815.23 L698.96 812.05 L702.68 810.97 L706.47 809.96 L708.49 806.32 L712.92 806.20 L716.38 804.63 L719.20 802.15 L721.98 799.64 L724.82 797.20 L727.30 794.33 L730.06 791.82 L732.11 788.44 L733.69 784.52 L736.17 781.76 L737.40 777.53 L738.59 773.35 L740.71 770.27 L741.30 765.54 L742.10 761.12 L743.48 757.40 L745.34 754.23 L746.84 750.72 L750.07 748.97 L752.76 746.66 L754.32 743.27 L758.19 742.07 L760.32 739.22 L761.91 735.90 L766.06 734.86 L768.70 732.45 L774.99 733.12 L776.77 729.92 L780.36 728.19 L786.83 728.73 L785.48 723.02 L790.18 722.06 L791.85 718.74 L791.76 714.15 L794.52 711.68 L796.35 708.53 L798.13 705.36 L799.72 702.06 L802.10 699.31 L804.15 696.32 L803.47 691.61 L804.85 688.24 L808.12 686.04 L808.21 681.91 L809.68 678.62 L813.17 676.48 L815.09 673.44 L816.82 670.28 L817.86 666.77 L820.38 664.03 L824.64 662.13 L823.91 657.74 L822.76 653.21 L827.88 651.64 L826.36 646.99 L825.55 642.73 L828.05 639.93 L830.02 636.89 L833.86 634.58 L831.68 629.86 L836.54 627.90 L837.17 624.29 L835.09 619.74 L834.90 615.91 L834.09 611.90 L834.46 608.31 L835.80 605.05 L836.26 601.51 L839.50 598.80 L842.71 596.02 L843.75 592.62 L844.08 589.03 L847.82 586.29 L845.51 582.06 L845.26 578.36 L850.09 575.79 L849.40 571.99 L849.70 568.41 L851.06 565.04 L851.93 561.57 L852.12 557.98 L852.22 554.38 L852.26 550.79 L851.43 547.08 L852.84 543.69 L854.44 540.29 L853.19 536.57 L855.72 533.24 L856.82 529.75 L856.83 526.16 L857.04 522.59 L856.69 518.99 L856.03 515.38 L855.87 511.81 L854.51 508.22 L852.62 504.65 L852.19 501.12 L849.57 497.62 L846.76 494.17 L845.76 490.73 L842.57 487.38 L839.86 484.08 L837.53 480.80 L836.33 477.49 L835.25 474.20 L835.67 470.79 L835.26 467.44 L839.76 463.57 L843.42 459.70 L842.03 456.39 L845.51 452.43 L847.64 448.59 L846.93 445.15 L847.44 441.50 L845.18 438.32 L847.02 434.41 L845.97 431.02 L842.29 428.18 L845.57 423.88 L843.12 420.81 L841.42 417.60 L842.38 413.74 L841.82 410.23 L840.73 406.87 L840.08 403.38 L839.75 399.79 L838.49 396.47 L833.20 394.44 L834.55 390.31 L833.20 387.05 L828.75 384.88 L828.87 381.14 L828.67 377.48 L827.24 374.27 L826.37 370.85 L824.36 367.88 L823.49 364.44 L823.90 360.45 L818.61 358.93 L816.36 356.13 L817.92 351.57 L813.53 349.78 L812.01 346.65 L811.50 343.01 L810.49 339.61 L808.11 336.91 L803.66 335.36 L805.17 330.57 L800.94 328.96 L794.92 328.46 L795.95 323.88 L793.93 321.08 L790.53 319.14 L789.11 315.99 L786.73 313.45 L785.34 310.26 L782.79 307.85 L780.63 305.19 L778.54 302.48 L778.27 298.46 L773.60 297.64 L770.78 295.51 L771.64 290.56 L766.95 289.89 L764.49 287.51 L763.24 284.14 L761.45 281.21 L758.70 279.07 L756.20 276.74 L753.88 274.25 L750.41 272.82 L748.83 269.66 L747.82 265.96 L743.95 264.95 L743.18 260.96 L741.43 257.88 L739.01 255.47 L736.15 253.51 L733.22 251.65 L730.40 249.68 L727.47 247.85 L724.12 246.51 L720.45 245.57 L717.40 243.97 L713.21 243.75 L709.13 243.48 L706.00 242.10 L701.32 242.73 L697.21 242.71 L693.66 242.04 L689.43 242.35 L687.00 240.26 L685.09 237.41 L681.74 236.60 L679.26 234.56 L677.90 230.80 L674.80 229.66 L671.50 228.85 L670.08 225.05 L667.45 223.15 L667.27 217.10 L664.24 215.79 L663.46 210.49 L661.43 207.28 L656.82 208.78 L655.74 203.74 L651.80 204.09 L647.76 204.73 L645.16 202.52 L642.06 201.34 L639.00 200.07 L635.72 199.30 L632.98 197.33 L629.85 196.25 L625.59 197.89 L622.51 196.78 L620.05 194.10 L616.04 195.39 L612.99 194.24 L610.58 191.32 L607.58 189.96 L604.53 188.73 L601.17 188.45 L598.35 186.50 L596.10 182.60 L591.89 185.16 L588.10 186.53 L586.01 181.79 L581.83 184.78 L578.13 186.13 L575.39 183.69 L572.62 181.23 L569.58 179.82 L565.70 182.38 L563.42 177.17 L559.88 178.22 L556.14 180.60 L552.71 181.46 L549.15 183.36 L545.84 183.80 L542.77 182.71 L539.51 182.96 L536.61 180.23 L533.70 177.10 L530.45 176.97 L527.13 177.67 L523.78 179.11 L520.25 183.88 L516.92 186.78 L513.67 189.36 L510.43 193.24 L507.30 195.80 L504.26 195.54 L501.21 195.35 L498.17 196.00 L495.12 195.65 L492.10 196.45 L489.11 197.70 L486.11 198.31 L483.17 199.85 L480.26 201.37 L477.25 201.24 L474.19 200.72 L471.11 200.00 L468.05 199.74 L464.99 199.56 L461.85 198.86 L458.83 199.22 L455.81 199.53 L452.46 197.80 L449.71 199.89 L447.23 203.32 L444.10 202.97 L441.79 206.86 L439.34 209.73 L436.11 208.83 L432.97 208.49 L430.10 209.34 L426.88 208.82 L423.96 209.49 L421.18 210.71 L417.88 210.07 L414.94 210.75 L411.96 211.33 L408.05 208.98 L405.08 209.70 L402.59 211.88 L398.40 209.09 L394.76 208.09 L393.82 214.45 L390.88 215.32 L387.75 215.67 L386.56 220.86 L384.03 222.64 L381.25 223.78 L377.49 222.70 L373.66 221.61 L371.18 223.51 L366.82 221.47 L363.65 222.03 L363.20 228.02 L360.42 229.27 L358.63 232.40 L357.72 237.08 L355.29 238.86 L352.80 240.52 L348.74 239.48 L345.02 239.10 L342.43 240.69 L337.83 239.03 L335.57 241.20 L335.38 246.54 L332.67 247.92 L331.65 251.80 L330.90 256.00 L328.65 257.96 L326.40 259.90 L321.14 257.76 L318.76 259.61 L316.58 261.72 L310.51 258.85 L310.41 263.63 L310.25 268.22 L307.57 269.68 L307.48 274.21 L306.19 277.24 L304.32 279.58 L303.13 282.66 L299.35 282.89 L296.82 284.52 L295.12 287.02 L293.59 289.68 L291.15 291.41 L290.26 294.67 L289.23 297.74 L288.39 300.96 L287.96 304.52 L286.47 307.07 L284.66 309.31 L282.15 310.93 L279.70 312.64 L277.89 314.89 L275.99 317.08 L274.62 319.69 L273.57 322.52 L272.57 325.39 L272.63 329.02 L272.00 332.08 L269.75 333.96 L266.44 335.10 L263.71 336.68 L260.83 338.20 L257.84 339.68 L255.12 341.39 L252.76 343.34 L251.19 345.81 L248.37 347.52 L249.44 351.58 L250.71 355.68 L249.30 358.19 L251.59 362.75 L252.71 366.58 L251.50 369.11 L247.69 370.31 L244.26 371.77 L243.92 374.79 L242.11 377.08 L239.77 379.14 L238.23 381.60 L237.67 384.49 L235.98 386.88 L231.71 388.22 L230.52 390.87 L229.98 393.78 L225.21 395.07 L222.84 397.33 L227.16 402.02 L226.03 404.69 L225.09 407.44 L228.73 411.67 L228.75 414.67 L227.91 417.39 L224.67 419.40 L222.26 421.70 L221.55 424.50 L216.36 426.13 L215.80 429.01 L219.67 432.95 L218.51 435.64 L220.02 438.92 L222.19 442.30 L221.57 445.07 L221.43 447.93 L216.93 450.02 L213.45 452.35 L214.19 455.41 L210.08 457.73 L210.15 460.70 L214.59 464.20 L214.61 467.10 L217.89 470.33 L222.51 473.62 L222.10 476.38 L221.85 479.16 L220.28 481.86 L219.39 484.61 L216.61 487.30 L212.56 490.00 L215.22 492.94 L216.86 495.82 L215.34 498.64 L218.60 501.47 L218.95 504.28 L219.49 507.08 L220.77 509.84 L218.80 512.73 L217.08 515.64 L219.26 518.34 L220.73 521.05 L220.69 523.86 L222.60 526.49 L225.02 529.04 L227.90 531.49 L230.04 533.98 L230.48 536.67 L230.72 539.38 L230.40 542.19 L230.12 545.00 L230.69 547.68 L231.48 550.31 L232.91 552.81 L234.55 555.25 L236.26 557.65 L238.66 559.88 L240.00 562.31 L239.86 565.10 L239.07 568.08 L238.76 570.96 L238.54 573.83 L238.40 576.71 L238.62 579.49 L238.85 582.28 L240.31 584.68 L238.97 588.02 L241.85 589.93 L245.84 591.40 L246.34 594.10 L250.40 595.44 L253.28 597.18 L254.03 599.74 L253.10 603.00 L251.48 606.60 L253.63 608.61 L254.34 611.25 L253.97 614.39 L254.08 617.35 L256.03 619.43 L256.78 622.09 L254.47 626.34 L257.47 627.88 L259.77 629.75 L256.88 634.47 L258.12 636.96 L264.37 636.55 L264.63 639.57 L265.89 642.00 L269.84 642.77 L272.66 644.19 L273.72 646.71 L272.17 650.97 L274.87 652.45 L275.84 655.08 L273.51 660.07 L276.92 661.03 L281.53 661.05 L282.03 664.07 L285.36 664.94 L288.69 665.77 L291.36 667.08 L292.27 669.79 L291.37 674.03 L294.69 674.77 L295.36 677.76 L294.30 682.32 L298.48 682.25 L302.10 682.60 L303.00 685.45 L307.21 685.16 L311.85 684.36 L313.82 686.12 L315.14 688.53 L317.26 690.13 L318.36 692.82 L318.42 696.65 L318.71 700.31 L321.80 700.90 L324.50 701.89 L325.75 704.55 L329.75 703.95 L334.05 702.89 L335.43 705.36 L337.74 706.69 L339.15 709.16 L339.51 713.07 L342.63 713.33 L345.46 713.94 L346.88 716.50 L350.84 715.44 L354.25 715.08 L356.95 715.71 L359.79 716.09 L362.23 717.06 L364.25 718.67 L366.14 720.52 L368.08 722.30 L370.83 722.72 L373.10 723.93 L375.69 724.57 L378.78 724.25 L381.31 724.91 L384.31 724.64 L386.98 724.96 L388.99 726.58 L390.31 729.68 L392.24 731.55 L393.78 734.34 L395.49 736.84 L397.12 739.61 L399.34 741.06 L401.60 742.44 L403.96 743.57 L407.41 741.89 L410.71 740.43 L413.78 739.47 L417.39 736.87 L420.18 736.44 L421.78 739.58 L423.97 741.03 L426.00 743.02 L428.36 744.00 L430.93 744.26 L432.95 746.52 L435.25 747.82 L437.56 749.12 L439.79 750.85 L442.16 752.05 L444.28 754.48 L446.91 754.62 L449.07 757.10 L451.49 758.42 L454.70 755.37 L457.35 755.20 L460.04 754.80 L462.80 753.71 L465.81 750.67 L467.70 755.83 L469.84 759.82 L472.46 759.92 L474.92 761.58 L477.36 763.92 L480.27 760.57 L483.20 755.80 L485.81 755.11 L488.47 752.90 L491.00 752.90 L493.54 752.38 L496.03 755.13 L498.55 760.59 L501.15 758.93 L503.74 759.07 L506.37 760.65 L508.87 757.60 L511.29 753.94 L513.77 752.77 L516.20 751.11 L518.66 750.27 L521.07 748.98 L523.93 752.68 L526.92 756.84 L529.36 755.47 L532.05 756.28 L534.81 757.43 L536.73 752.56 L538.73 748.80 L540.93 746.69 L543.21 745.20 L545.75 745.25 L547.88 743.15 L550.55 743.83 L553.26 744.57 L555.67 743.86 L558.08 743.21 L560.50 742.57 L563.20 743.03 L567.29 748.51 L569.26 746.00 L571.43 744.32 L576.01 750.66 L578.26 749.08 L581.01 749.09 L583.74 749.00 L586.16 747.97 L588.41 746.46 L590.70 745.10 L593.16 744.21 L594.56 740.62 L598.05 742.37 L600.70 741.92 L602.39 739.22 L605.86 740.65 L608.44 739.96 L610.68 738.54 L612.88 737.05 L615.14 735.68 L617.12 733.78 L619.00 731.72 L620.56 729.09 L622.10 726.49 L623.44 723.60 L624.54 720.36 L625.83 717.53 L626.97 714.52 L627.71 710.94 L628.76 707.94 L629.43 704.43 L630.00 700.85 L631.13 698.22 L634.34 698.73 L636.07 697.02 L642.52 702.00 L646.52 703.32 L649.06 702.55 L653.08 703.72 L656.67 704.21 L659.28 703.36 L659.60 699.63 L661.99 698.52 L667.54 701.17 L665.29 694.49 L667.30 692.90 L671.86 694.21 L671.86 690.33 L674.13 689.02 L677.26 688.60 L678.86 686.52 L680.78 684.79 L682.84 683.20 L685.15 681.83 L685.84 678.90 L685.92 675.42 L689.02 674.82 L689.21 671.51 L689.81 668.63 L692.47 667.58 L694.35 665.83 L696.11 663.97 L698.04 662.25 L698.98 659.72 L701.10 658.14 L703.40 656.68 L701.34 651.91 L703.50 650.37 L706.73 649.58 L705.92 645.88 L707.79 644.11 L709.92 642.50 L713.35 641.73 L711.15 637.25 L711.54 634.51 L715.90 634.27 L712.33 629.12 L712.52 626.34 L715.87 625.43 L715.41 622.30 L716.71 620.19 L717.88 618.00 L718.47 615.51 L719.64 613.33 L720.36 610.93 L721.04 608.52 L721.46 605.99 L725.00 604.93 L721.85 600.77 L722.83 598.54 L726.77 597.59 L725.13 594.22 L726.28 592.06 L728.63 590.36 L729.09 587.90 L729.54 585.45 L730.10 583.05 L730.99 580.77 L729.01 577.51 L732.90 576.24 L734.00 574.02 L733.38 571.26 L736.31 569.59 L737.79 567.45 L737.71 564.86 L738.09 562.41 L738.46 559.97 L738.43 557.43 L737.94 554.80 L737.07 552.11 L735.87 549.38 L734.40 546.63 L732.78 543.89 L731.24 541.21 L730.05 538.63 L727.35 535.84 L725.94 533.31 L723.74 530.70 L721.41 528.13 L720.73 525.80 L722.57 523.76 L722.45 521.50 L730.33 519.94 L733.56 517.87 L734.64 515.60 L738.68 513.47 L740.79 511.17 L742.11 508.81 L739.09 506.31 L740.42 503.94 L746.18 501.57 L739.07 499.13 L739.22 496.74 L743.36 494.25 L740.28 491.92 L740.69 489.49 L742.09 487.00 L741.32 484.62 L741.46 482.19 L741.95 479.72 L742.50 477.23 L740.44 474.99 L738.12 472.83 L739.38 470.25 L736.77 468.17 L735.28 465.97 L736.48 463.38 L736.37 460.97 L736.20 458.57 L735.92 456.19 L734.51 454.02 L734.75 451.53 L735.18 448.98 L730.23 447.64 L730.78 445.08 L732.09 442.31 L728.53 440.76 L728.62 438.29 L728.94 435.74 L730.57 432.79 L725.59 431.79 L724.11 429.78 L726.52 426.53 L720.36 426.09 L718.76 424.18 L720.30 421.17 L717.36 419.76 L716.91 417.45 L715.46 415.53 L714.67 413.36 L713.60 411.29 L712.25 409.35 L710.76 407.49 L708.94 405.78 L710.55 402.51 L705.92 402.14 L704.97 400.07 L706.38 396.81 L702.99 395.96 L702.62 393.58 L702.27 391.17 L700.75 389.38 L699.49 387.46 L698.49 385.40 L696.76 383.75 L693.29 383.18 L695.24 379.32 L693.77 377.53 L691.68 376.15 L692.71 372.74 L691.62 370.69 L689.59 369.28 L688.15 367.48 L686.49 365.84 L684.76 364.26 L682.35 363.20 L680.09 362.06 L677.49 361.21 L674.37 360.82 L671.17 360.55 L668.55 359.86 L665.81 359.31 L661.87 359.84 L659.10 359.43 L655.88 359.47 L652.57 359.67 L650.52 358.75 L650.26 356.14 L648.80 354.66 L652.73 347.81 L653.17 344.29 L652.27 342.08 L653.25 337.84 L652.82 335.03 L652.25 332.31 L648.47 333.14 L647.35 331.03 L649.23 325.38 L643.15 329.06 L641.94 327.02 L642.62 322.61 L638.78 323.81 L637.39 321.93 L636.78 319.01 L634.69 318.02 L632.89 316.65 L631.34 314.92 L629.93 312.98 L626.93 313.34 L624.20 313.36 L623.23 310.74 L619.72 312.06 L617.38 311.60 L616.15 309.34 L614.50 307.75 L612.81 306.21 L610.89 305.04 L608.52 304.70 L606.86 303.07 L605.30 301.24 L601.15 304.36 L599.74 302.26 L598.50 299.78 L595.42 301.04 L593.64 299.63 L592.03 297.83 L590.80 295.13 L586.95 298.38 L584.74 297.99 L584.01 293.97 L579.60 299.06 L577.67 298.05 L576.23 295.72 L573.37 297.22 L571.41 296.30 L569.25 295.93 L567.36 294.80 L565.25 294.28 L562.97 294.36 L560.59 294.84 L558.37 294.84 L556.98 291.82 L553.98 294.76 L552.03 293.80 L550.46 291.26 L547.94 292.62 L545.88 292.09 L543.97 290.80 L541.83 290.59 L539.71 290.31 L537.55 290.26 L535.34 290.58 L532.96 291.99 L531.30 288.82 L529.14 288.92 L527.06 288.34 L525.12 286.62 L523.01 286.15 L520.81 286.55 L518.67 286.41 L516.49 286.78 L514.32 287.15 L512.12 288.19 L509.94 289.43 L507.78 290.82 L505.63 293.00 L503.52 294.71 L501.46 296.61 L499.43 298.65 L497.45 301.54 L495.52 303.84 L493.63 306.13 L491.81 308.86 L489.93 309.52 L487.94 308.24 L485.98 307.78 L483.46 300.83 L481.23 298.43 L479.10 297.51 L476.67 294.12 L474.40 292.61 L472.11 291.30 L470.49 294.82 L468.27 293.99 L465.33 288.99 L464.38 295.99 L462.18 295.43 L459.40 292.07 L458.01 295.84 L455.85 295.68 L453.40 294.36 L451.33 294.78 L449.23 295.05 L447.09 295.21 L444.88 295.13 L443.54 298.21 L441.85 299.91 L439.44 299.12 L438.37 302.76 L436.44 303.50 L434.03 302.80 L431.97 303.21 L429.91 303.64 L427.99 304.46 L426.38 306.09 L424.22 306.26 L421.98 306.26 L421.58 310.74 L419.30 310.62 L416.95 310.40 L416.01 313.35 L413.94 313.74 L411.49 313.36 L408.71 312.37 L409.04 317.72 L407.30 318.78 L404.27 317.38 L405.43 323.91 L403.43 324.41 L400.52 323.33 L400.45 327.27 L398.52 327.92 L396.80 328.94 L394.85 329.59 L393.19 330.71 L392.15 332.79 L391.07 334.76 L389.71 336.29 L386.40 334.96 L387.22 339.61 L384.83 339.64 L382.38 339.64 L382.06 342.53 L380.27 343.43 L378.05 343.79 L376.60 345.15 L375.42 346.83 L374.09 348.32 L372.88 349.94 L373.37 353.52 L374.58 357.81 L375.19 361.33 L377.06 366.12 L378.60 370.43 L378.30 372.68 L376.61 373.47 L374.71 374.07 L373.11 374.98 L370.91 375.34 L369.15 376.14 L367.77 377.31 L366.40 378.51 L365.38 380.02 L366.20 383.13 L365.46 384.84 L365.72 387.36 L366.09 389.94 L365.47 391.66 L363.75 392.51 L362.04 393.38 L358.53 392.91 L357.08 394.04 L356.30 395.67 L354.12 396.30 L352.18 397.13 L352.30 399.40 L350.69 400.47 L348.35 401.08 L343.76 400.31 L342.90 401.95 L340.95 402.93 L332.89 400.29 L337.87 405.45 L341.06 409.43 L338.84 410.28 L341.73 413.95 L343.87 417.13 L344.43 419.41 L339.65 418.96 L337.31 419.81 L336.34 421.35 L331.42 421.05 L331.64 423.20 L333.55 426.07 L333.60 428.08 L335.83 430.98 L337.61 433.63 L338.05 435.70 L338.43 437.71 L333.31 437.65 L331.92 439.03 L330.48 440.42 L325.56 440.65 L322.96 441.73 L326.60 444.85 L328.50 447.33 L327.57 448.93 L331.85 452.02 L334.24 454.49 L333.99 456.20 L325.15 455.73 L326.88 458.01 L326.33 459.71 L318.72 459.85 L323.38 462.73 L325.59 465.01 L325.61 466.83 L328.77 469.20 L330.54 471.27 L331.52 473.16 L331.32 474.86 L330.35 476.44 L329.97 478.12 L329.87 479.84 L330.35 481.61 L323.49 482.65 L328.92 484.91 L329.63 486.69 L328.39 488.32 L333.64 490.35 L337.73 492.21 L337.45 493.83 L336.37 495.42 L336.11 497.06 L335.76 498.69 L335.19 500.34 L333.64 502.00 L335.48 503.63 L336.57 505.24 L337.66 506.83 L340.04 508.33 L341.53 509.84 L341.02 511.47 L340.01 513.15 L339.44 514.82 L337.95 516.59 L337.25 518.31 L337.24 519.96 L336.78 521.68 L337.47 523.24 L340.70 524.41 L341.15 525.97 L343.48 527.20 L345.72 528.40 L346.43 529.86 L344.44 531.86 L344.21 533.54 L342.87 535.47 L341.86 537.37 L342.86 538.79 L342.64 540.52 L341.89 542.41 L343.28 543.72 L342.76 545.56 L341.80 547.56 L337.83 550.53 L338.83 551.99 L338.29 553.95 L331.29 558.17 L337.46 557.87 L338.02 559.50 L334.92 562.52 L339.78 562.52 L340.33 564.15 L340.66 565.88 L341.86 567.24 L343.02 568.61 L343.74 570.16 L343.48 572.17 L346.03 572.87 L349.10 573.27 L348.37 575.51 L349.42 576.88 L352.14 577.36 L351.63 579.53 L351.25 581.66 L352.06 583.15 L353.35 584.36 L354.20 585.83 L353.96 587.95 L353.45 590.26 L358.24 589.28 L358.57 591.06 L358.08 593.40 L362.64 592.37 L363.26 593.96 L363.51 595.81 L361.42 599.36 L365.44 598.53 L366.93 599.50 L364.42 603.50 L368.84 602.22 L371.27 602.41 L373.26 602.92 L375.82 602.92 L376.58 604.39 L377.81 605.46 L378.26 607.21 L377.39 610.17 L377.85 611.99 L379.07 613.12 L380.70 613.85 L380.57 616.28 L386.56 612.68 L388.21 613.29 L391.10 612.58 L396.71 608.95 L400.58 606.99 L401.39 608.26 L401.84 609.96 L402.87 611.02 L403.74 612.27 L404.48 613.69 L404.72 615.74 L407.06 615.23 L408.75 615.48 L410.53 615.57 L413.03 614.69 L414.97 614.50 L415.71 615.91 L416.28 617.58 L417.10 618.93 L417.44 621.01 L418.15 622.58 L419.27 623.55 L420.07 625.05 L421.71 625.23 L424.55 623.41 L425.76 624.21 L428.11 623.05 L430.24 622.19 L431.82 622.24 L432.21 624.45 L432.31 627.29 L432.77 629.53 L433.82 630.68 L434.97 631.66 L435.99 632.94 L437.24 633.74 L439.17 633.07 L440.03 634.74 L440.81 636.65 L440.17 641.99 L441.95 641.72 L442.94 643.39 L441.53 651.31 L445.50 645.34 L448.50 641.62 L449.31 643.87 L452.26 639.94 L454.70 637.28 L456.42 636.63 L456.40 641.56 L457.47 643.17 L458.68 644.38 L458.97 648.98 L460.92 647.66 L463.01 645.63 L464.69 645.07 L466.90 642.14 L468.87 640.02 L470.50 639.25 L472.00 639.01 L472.52 643.87 L473.90 644.47 L475.07 646.35 L475.88 650.68 L477.11 652.70 L479.27 648.41 L480.90 647.54 L482.51 646.59 L484.52 641.81 L486.20 639.25 L487.54 639.96 L488.28 648.47 L489.97 645.66 L491.37 646.74 L492.49 653.95 L494.25 648.17 L495.80 645.96 L497.27 645.77 L498.76 641.95 L500.17 639.95 L501.56 638.44 L502.95 639.01 L504.36 639.58 L505.74 639.18 L507.15 639.47 L508.56 639.58 L510.32 644.68 L511.34 639.26 L512.81 639.96 L514.13 639.13 L514.92 633.56 L515.80 629.72 L517.17 630.06 L518.61 630.87 L519.91 630.66 L521.29 630.90 L522.72 631.36 L524.25 632.31 L525.20 630.14 L526.35 629.18 L527.37 627.64 L528.15 625.16 L529.12 623.69 L530.55 624.17 L532.04 624.83 L533.48 625.23 L535.18 626.49 L536.71 627.06 L537.94 626.55 L539.54 627.25 L540.55 626.04 L540.74 622.44 L542.11 622.44 L542.48 619.61 L542.99 617.33 L544.17 616.91 L545.74 617.49 L547.18 617.70 L549.63 620.30 L550.86 619.89 L551.94 619.10 L553.80 620.07 L555.25 620.07 L555.86 618.27 L557.67 619.00 L559.42 619.55 L562.77 623.20 L563.70 621.98 L565.45 622.33 L570.51 628.69 L568.78 622.60 L570.19 622.23 L573.30 624.75 L572.18 620.08 L573.51 619.57 L574.89 619.12 L576.01 618.27 L576.89 617.05 L578.01 616.20 L579.55 615.96 L579.36 613.25 L579.29 610.78 L581.32 611.25 L581.93 609.76 L582.06 607.67 L584.22 608.24 L585.62 607.80 L586.89 607.18 L587.72 606.02 L588.84 605.21 L590.61 605.15 L592.42 605.11 L590.52 600.89 L592.88 601.47 L594.09 600.75 L592.14 596.70 L593.58 596.27 L595.43 596.23 L598.85 597.70 L596.85 593.83 L597.77 592.84 L601.52 594.49 L599.51 590.78 L599.29 588.78 L598.83 586.60 L598.18 584.31 L599.29 583.55 L599.96 582.43 L602.00 582.41 L605.22 583.28 L606.87 582.87 L607.17 581.40 L607.80 580.19 L604.43 576.07 L602.27 572.94 L601.52 570.89 L598.04 567.01 L596.66 564.66 L596.57 563.21 L596.78 561.97 L597.17 560.86 L597.15 559.50 L597.81 558.57 L598.22 557.49 L598.59 556.39 L599.81 555.77 L600.45 554.82 L600.66 553.64 L601.47 552.77 L601.17 551.34 L600.92 549.94 L600.95 548.71 L600.79 547.40 L600.88 546.21 L600.99 545.04 L601.42 544.03 L601.89 543.02 L601.96 541.86 L602.35 540.83 L602.94 539.87 L602.74 538.62 L602.67 537.43 L603.14 536.43 L602.51 535.06 L602.42 533.89 L602.88 532.91 L602.93 531.79 L603.52 530.84 L604.00 529.86 L604.23 528.80 L604.47 527.74 L604.16 526.55 L603.93 525.39 L603.72 524.24 L603.28 523.05 L603.58 522.03 L603.52 520.94 L603.16 519.79 L603.78 518.84 L603.59 517.73 L603.33 516.63 L603.76 515.63 L603.44 514.53 L603.27 513.45 L603.39 512.42 L602.96 511.32 L602.64 510.25 L602.49 509.20 L602.18 508.15 L602.59 507.15 L602.59 506.12 L602.51 505.08 L602.74 504.07 L602.15 503.02 L601.79 501.99 L601.82 500.97 Z"/>
  <svg class="pausebutton" id="pausebutton">
    <circle cx="500" cy="500" id="pausestart" class="pausestart" r="52.65"/>
    <rect height="50.02" width="10.00" y="473.68" rx="2.00" ry="2.00" x="479.99" class="pausesymbol"/>
    <rect height="50.02" width="10.00" y="473.68" rx="2.00" ry="2.00" x="510.00" class="pausesymbol"/>
    <polygon points="530.01,500 479.99,530.01 479.99,469.99" class="playsymbol"/>
  </svg>
  <polygon id="playback-head" class="playback-head" points="941.65,500 921.65,540 961.65,540"/>
</svg>