<?xml-stylesheet href="../../style/waveformjs.css" type="text/css"?>
<svg xmlns="http://www.w3.org/2000/svg" xmlns:xlink="http://www.w3.org/1999/xlink" width="100%" height="100%" viewBox="0 0 1000 1000">
  <path class="svg-wave" id="sp" d="M590.89 500.00 L590.89 500.91 L590.63 501.81 L590.77 502.72 L590.60 503.63 L590.96 504.55 L591.23 505.48 L591.58 506.42 L591.43 507.33 L591.92 508.30 L591.81 509.21 L592.05 510.17 L592.38 511.14 L592.49 512.09 L592.57 513.05 L592.66 514.00 L592.48 514.92 L592.42 515.86 L592.48 516.83 L592.47 517.78 L592.65 518.78 L592.49 519.71 L592.31 520.64 L591.91 521.52 L592.37 522.60 L592.01 523.49 L592.48 524.60 L592.70 525.65 L592.29 526.54 L592.80 527.69 L592.45 528.60 L592.62 529.67 L592.17 530.55 L592.09 531.54 L591.88 532.50 L591.95 533.56 L591.91 534.60 L591.90 535.65 L591.65 536.61 L591.56 537.64 L591.34 538.62 L591.16 539.62 L591.11 540.69 L590.96 541.72 L590.95 542.82 L590.76 543.84 L590.44 544.81 L590.32 545.88 L589.99 546.85 L589.66 547.82 L589.37 548.82 L588.96 549.76 L588.76 550.82 L588.48 551.84 L588.24 552.90 L587.88 553.88 L587.51 554.86 L587.04 555.79 L586.70 556.81 L586.41 557.86 L585.95 558.80 L585.77 559.95 L585.18 560.81 L584.81 561.84 L584.41 562.85 L583.95 563.82 L583.53 564.83 L582.88 565.66 L582.25 566.51 L581.67 567.40 L581.06 568.27 L580.78 569.43 L580.17 570.32 L579.71 571.34 L579.19 572.31 L578.45 573.08 L578.03 574.17 L577.46 575.11 L576.97 576.15 L576.49 577.19 L575.87 578.12 L575.28 579.08 L574.48 579.82 L573.71 580.60 L573.08 581.53 L572.30 582.30 L571.72 583.30 L571.18 584.37 L570.39 585.15 L569.73 586.09 L569.02 586.98 L568.22 587.76 L567.50 588.64 L566.75 589.50 L565.91 590.25 L565.21 591.19 L564.40 591.99 L563.59 592.79 L562.83 593.68 L562.00 594.47 L561.15 595.24 L560.36 596.11 L559.37 596.67 L558.48 597.38 L557.66 598.23 L556.71 598.86 L555.91 599.77 L554.96 600.42 L554.01 601.06 L553.11 601.81 L552.22 602.59 L551.23 603.20 L550.38 604.08 L549.32 604.55 L548.34 605.19 L547.39 605.90 L546.40 606.52 L545.33 606.97 L544.31 607.56 L543.19 607.89 L542.19 608.53 L541.20 609.18 L540.18 609.82 L539.07 610.18 L538.05 610.81 L536.90 611.06 L535.83 611.54 L534.83 612.29 L533.67 612.51 L532.61 613.08 L531.41 613.15 L530.25 613.34 L529.20 613.97 L528.09 614.41 L527.01 614.96 L525.87 615.25 L524.50 614.50 L523.36 614.79 L522.13 614.56 L521.02 615.02 L519.67 614.03 L518.51 614.10 L517.09 612.47 L515.99 612.85 L515.00 614.00 L513.95 614.91 L512.76 614.72 L511.75 616.17 L510.39 614.16 L509.32 615.05 L508.09 614.13 L507.04 615.71 L505.77 613.42 L504.69 614.88 L503.44 611.78 L502.32 611.65 L501.17 608.81 L500.09 609.18 L499.00 608.33 L497.91 608.83 L496.80 609.39 L495.70 609.58 L494.59 609.77 L493.51 609.46 L492.37 610.08 L491.27 609.99 L490.15 610.13 L488.99 610.58 L487.81 611.22 L486.73 610.83 L485.37 612.62 L484.03 614.00 L482.84 614.13 L481.61 614.54 L480.05 616.78 L478.62 618.01 L477.30 618.53 L475.62 620.78 L474.52 620.03 L473.64 618.31 L471.76 621.05 L470.34 621.60 L468.99 621.87 L467.91 621.03 L466.83 620.21 L465.73 619.55 L464.79 618.34 L462.92 620.19 L461.02 622.04 L460.06 620.83 L459.09 619.76 L457.99 619.07 L456.95 618.23 L455.75 617.85 L454.00 618.88 L451.82 620.90 L451.08 619.29 L450.13 618.21 L449.07 617.43 L448.02 616.65 L446.57 616.74 L445.31 616.40 L442.16 619.99 L441.92 617.46 L439.55 619.23 L438.62 618.13 L438.09 616.29 L437.73 614.21 L436.72 613.34 L436.52 611.08 L435.74 609.88 L435.43 607.92 L434.77 606.59 L434.16 605.20 L433.47 603.97 L432.35 603.43 L431.15 603.01 L430.10 602.34 L428.53 602.43 L426.31 603.39 L424.68 603.47 L423.51 602.91 L420.68 604.52 L419.51 603.88 L417.15 604.75 L415.07 605.20 L412.97 605.62 L413.66 602.67 L410.30 604.52 L409.65 603.18 L408.60 602.30 L406.60 602.46 L407.04 599.95 L405.06 600.05 L405.75 597.35 L402.21 599.01 L401.16 598.09 L400.18 597.10 L398.88 596.42 L398.75 594.63 L397.27 594.10 L397.95 591.62 L394.56 592.78 L393.96 591.44 L392.43 590.90 L391.46 589.88 L390.77 588.62 L390.68 586.89 L390.95 584.92 L389.05 584.63 L388.40 583.37 L388.84 581.32 L388.21 580.08 L389.34 577.60 L391.03 574.80 L390.66 573.46 L391.19 571.53 L388.36 571.81 L388.63 570.07 L386.90 569.59 L387.05 567.95 L386.70 566.63 L384.83 566.19 L383.79 565.24 L383.39 563.95 L382.41 562.96 L381.66 561.85 L380.97 560.70 L380.52 559.43 L380.43 558.00 L380.22 556.62 L379.76 555.37 L376.90 555.21 L375.19 554.48 L372.52 554.14 L371.63 553.01 L371.83 551.43 L371.45 550.10 L371.61 548.56 L370.48 547.51 L369.45 546.42 L368.03 545.44 L368.10 543.94 L367.38 542.71 L366.52 541.52 L365.31 540.43 L366.17 538.71 L364.72 537.67 L366.53 535.73 L366.22 534.39 L365.31 533.19 L363.53 532.18 L361.84 531.13 L360.39 529.99 L359.54 528.70 L359.31 527.29 L359.20 525.85 L359.24 524.39 L358.64 523.04 L358.39 521.63 L358.38 520.19 L357.70 518.83 L356.29 517.56 L355.84 516.15 L357.20 514.56 L356.10 513.22 L356.94 511.70 L356.38 510.30 L355.68 508.90 L355.74 507.45 L357.54 505.93 L355.41 504.57 L355.16 503.13 L354.67 501.68 L354.16 500.23 L353.96 498.77 L353.41 497.30 L354.74 495.87 L353.09 494.35 L355.25 492.99 L354.28 491.48 L353.43 489.96 L351.98 488.37 L350.46 486.74 L349.58 485.15 L349.10 483.58 L350.23 482.18 L350.53 480.70 L351.06 479.25 L350.91 477.71 L350.34 476.09 L350.90 474.65 L349.69 472.89 L351.33 471.65 L349.54 469.75 L352.55 468.82 L351.68 467.08 L354.98 466.29 L354.08 464.54 L353.72 462.90 L352.70 461.07 L350.67 458.93 L350.33 457.22 L350.80 455.74 L352.08 454.50 L353.31 453.27 L353.45 451.69 L353.78 450.18 L352.55 448.11 L350.31 445.63 L349.13 443.48 L346.33 440.68 L346.19 438.85 L348.48 438.00 L348.70 436.31 L351.23 435.62 L352.41 434.37 L353.15 432.94 L354.58 431.82 L355.47 430.47 L353.45 427.68 L354.29 426.28 L356.31 425.49 L356.18 423.58 L359.74 423.67 L359.39 421.64 L359.81 420.03 L361.35 419.06 L360.56 416.72 L363.53 416.63 L362.77 414.27 L365.13 413.86 L364.29 411.40 L364.16 409.36 L364.22 407.43 L364.26 405.45 L365.72 404.46 L365.94 402.58 L367.02 401.32 L367.38 399.52 L368.53 398.30 L370.06 397.39 L369.98 395.20 L371.37 394.18 L371.24 391.90 L373.32 391.47 L373.61 389.50 L375.34 388.79 L377.81 388.79 L378.18 386.88 L380.20 386.50 L379.02 383.06 L379.74 381.41 L379.66 378.93 L381.31 378.18 L382.94 377.43 L383.83 375.89 L384.81 374.45 L385.53 372.70 L386.44 371.15 L387.29 369.50 L387.07 366.58 L386.97 363.72 L387.61 361.70 L388.85 360.39 L390.26 359.30 L392.57 359.38 L393.71 357.95 L395.63 357.57 L397.19 356.72 L399.51 356.95 L400.87 355.84 L402.82 355.61 L404.19 354.52 L405.75 353.73 L407.15 352.68 L409.41 353.03 L409.93 350.56 L412.51 351.49 L413.59 349.91 L415.16 349.17 L416.42 347.87 L416.86 345.03 L417.99 343.38 L419.00 341.48 L421.01 341.51 L422.34 340.20 L423.99 339.53 L425.39 338.33 L426.90 337.36 L428.91 337.50 L429.95 335.42 L431.85 335.32 L433.02 333.46 L435.02 333.65 L436.65 332.90 L438.06 331.57 L440.33 332.58 L441.62 330.88 L443.77 331.66 L444.64 328.60 L446.01 326.94 L447.13 324.37 L448.76 323.40 L450.82 323.93 L452.42 322.85 L454.49 323.51 L456.01 322.09 L457.90 322.11 L459.17 319.45 L461.33 320.69 L463.30 321.15 L465.41 322.41 L467.43 323.42 L468.78 320.69 L470.67 320.96 L472.20 318.97 L474.21 320.08 L475.98 319.62 L477.68 318.52 L479.42 317.69 L481.28 317.81 L483.09 317.51 L484.86 316.61 L486.71 316.79 L488.54 316.57 L490.39 316.81 L492.27 317.78 L494.08 317.14 L495.86 314.99 L497.69 313.25 L499.55 310.93 L501.44 310.65 L503.34 310.51 L505.21 311.41 L507.08 311.71 L508.96 311.99 L510.87 311.52 L512.81 310.80 L514.62 311.95 L516.67 310.21 L518.52 310.90 L520.62 309.09 L522.21 312.04 L524.23 311.13 L525.65 314.80 L527.58 314.49 L529.63 313.56 L531.91 311.40 L534.09 310.06 L536.17 309.49 L538.24 309.01 L539.78 311.16 L541.80 310.97 L543.46 312.38 L545.67 311.41 L547.90 310.51 L550.41 308.68 L552.14 309.84 L554.38 309.18 L555.04 313.93 L556.79 314.86 L558.36 316.31 L560.77 315.14 L562.54 315.98 L564.69 315.73 L566.36 316.85 L567.85 318.44 L570.34 317.36 L572.19 318.00 L574.00 318.75 L576.11 318.78 L577.86 319.69 L579.85 320.04 L581.20 321.83 L583.24 322.09 L584.41 324.18 L586.37 324.62 L588.99 323.76 L591.46 323.30 L594.05 322.65 L595.98 323.30 L598.13 323.57 L598.88 326.34 L601.04 326.60 L602.44 328.18 L604.53 328.59 L607.40 327.78 L608.60 329.68 L611.10 329.54 L612.01 331.84 L614.59 331.64 L614.35 335.56 L616.79 335.58 L617.03 338.68 L618.85 339.57 L621.44 339.46 L623.94 339.51 L627.10 338.78 L629.37 339.23 L631.02 340.47 L632.14 342.36 L633.07 344.43 L634.65 345.74 L636.41 346.84 L639.26 346.76 L641.79 347.07 L643.82 347.96 L645.78 348.94 L647.13 350.56 L648.15 352.51 L649.32 354.28 L651.23 355.34 L652.57 356.95 L654.38 358.13 L656.30 359.23 L657.70 360.79 L659.60 361.93 L660.38 364.04 L661.89 365.52 L662.49 367.74 L663.98 369.24 L666.05 370.28 L667.73 371.64 L668.39 373.79 L671.62 374.03 L670.23 377.65 L673.57 377.87 L672.89 380.91 L676.57 380.96 L678.04 382.54 L680.98 383.18 L682.69 384.65 L683.34 386.79 L684.95 388.33 L686.01 390.21 L687.37 391.93 L687.54 394.31 L688.87 396.04 L690.50 397.61 L691.99 399.27 L693.84 400.76 L694.43 402.90 L695.50 404.79 L695.82 407.05 L696.07 409.32 L696.96 411.29 L697.64 413.35 L700.79 414.35 L702.48 416.01 L705.03 417.35 L705.58 419.51 L705.49 421.90 L707.34 423.56 L707.45 425.87 L710.98 426.98 L713.71 428.42 L716.67 429.83 L719.52 431.33 L720.47 433.44 L719.92 436.00 L721.60 437.91 L720.40 440.62 L721.39 442.72 L720.87 445.20 L719.46 447.88 L720.47 449.96 L718.75 452.65 L718.16 455.05 L718.26 457.30 L718.44 459.53 L718.72 461.74 L720.72 463.66 L720.27 465.99 L721.97 468.00 L720.86 470.41 L722.62 472.44 L721.54 474.82 L723.60 476.85 L724.96 478.98 L726.79 481.09 L727.37 483.33 L727.96 485.58 L728.13 487.86 L728.24 490.14 L728.15 492.43 L728.59 494.70 L727.68 497.00 L729.98 499.27 L729.65 501.57 L731.41 503.89 L730.18 506.17 L730.08 508.47 L729.83 510.77 L727.84 512.96 L728.36 515.28 L727.40 517.50 L730.30 520.04 L730.48 522.38 L732.40 524.92 L731.58 527.18 L730.57 529.40 L730.64 531.75 L729.88 533.99 L732.21 536.72 L730.92 538.88 L731.96 541.45 L729.56 543.39 L727.00 545.26 L725.80 547.38 L724.74 549.51 L726.92 552.37 L724.95 554.29 L726.18 556.99 L724.12 558.86 L724.80 561.45 L726.26 564.28 L725.88 566.62 L725.56 568.99 L724.69 571.19 L725.41 573.90 L723.02 575.60 L722.23 577.82 L719.91 579.48 L718.12 581.31 L718.25 583.85 L719.64 586.92 L720.58 589.85 L721.03 592.62 L720.36 594.94 L719.17 597.04 L717.49 598.91 L716.03 600.86 L715.41 603.21 L714.71 605.53 L715.40 608.55 L713.04 610.05 L713.29 612.90 L712.09 614.99 L711.28 617.30 L708.45 618.47 L707.88 620.91 L704.47 621.68 L703.70 624.00 L703.54 626.71 L703.89 629.77 L703.72 632.55 L702.94 634.94 L702.12 637.33 L699.63 638.58 L699.25 641.29 L697.12 642.76 L696.07 645.01 L694.94 647.21 L692.84 648.69 L692.14 651.23 L691.45 653.81 L689.75 655.60 L687.52 656.93 L686.17 658.99 L684.87 661.10 L682.57 662.34 L682.10 665.21 L679.82 666.45 L678.05 668.15 L677.88 671.39 L677.19 674.17 L674.97 675.47 L673.53 677.54 L672.44 679.99 L670.04 681.07 L667.66 682.15 L665.80 683.79 L662.26 683.52 L661.23 686.08 L660.40 688.90 L660.40 692.78 L659.14 695.20 L657.67 697.39 L655.85 699.17 L653.13 699.78 L651.02 701.16 L649.02 702.69 L647.43 704.78 L646.17 707.37 L643.83 708.46 L642.29 710.70 L639.85 711.61 L638.14 713.63 L634.34 712.39 L633.27 715.44 L629.15 713.53 L627.97 716.44 L626.18 718.35 L624.95 721.30 L623.84 724.56 L621.73 726.06 L619.74 727.79 L616.54 727.18 L614.33 728.47 L611.80 729.11 L610.00 731.26 L608.53 734.18 L607.61 738.41 L606.08 741.44 L605.26 746.22 L602.81 747.31 L599.79 746.98 L597.32 747.99 L594.04 746.86 L590.97 746.15 L588.63 747.42 L585.74 747.10 L583.60 748.95 L582.08 752.76 L579.29 752.77 L576.81 753.69 L574.16 754.07 L571.02 752.70 L568.96 755.12 L566.17 754.92 L563.55 755.29 L561.36 757.44 L557.96 754.45 L555.89 757.21 L552.81 755.31 L550.78 758.48 L548.35 759.85 L546.12 762.43 L543.61 763.57 L540.88 763.41 L538.35 764.51 L535.60 764.11 L533.05 765.19 L530.23 764.06 L527.75 765.92 L525.07 765.97 L522.52 767.56 L519.85 767.85 L517.10 766.93 L514.52 768.66 L511.73 766.57 L509.09 767.40 L506.38 766.12 L503.73 766.72 L501.07 768.72 L498.38 769.90 L495.66 771.15 L492.95 770.91 L490.25 770.51 L487.52 770.94 L484.78 771.50 L482.03 771.80 L479.26 772.25 L476.48 772.76 L473.54 774.69 L470.49 777.27 L467.53 778.58 L464.76 778.19 L461.88 778.52 L459.36 776.35 L456.58 776.01 L453.88 775.24 L451.04 775.26 L448.14 775.55 L444.75 778.26 L441.51 779.90 L438.71 779.29 L436.71 775.24 L434.48 772.43 L432.93 767.09 L429.88 767.86 L428.15 763.68 L424.76 765.63 L422.86 762.32 L419.43 764.20 L416.48 764.34 L413.27 765.26 L410.44 764.90 L408.03 763.31 L405.32 762.62 L402.88 761.16 L399.97 760.98 L397.41 759.86 L394.81 758.83 L391.78 758.83 L389.20 757.73 L386.67 756.52 L384.25 755.07 L381.81 753.67 L379.01 753.04 L377.10 750.55 L374.27 749.97 L372.14 747.99 L368.46 748.99 L365.66 748.26 L362.16 748.74 L360.01 746.77 L357.87 744.80 L355.28 743.63 L352.88 742.11 L350.02 741.34 L347.64 739.81 L343.58 740.83 L343.18 736.24 L340.62 734.96 L340.05 730.81 L337.90 728.98 L334.02 729.56 L332.50 726.85 L329.20 726.54 L327.78 723.74 L324.86 722.88 L321.18 722.94 L318.68 721.48 L316.53 719.60 L314.58 717.47 L311.76 716.36 L310.95 712.95 L308.47 711.44 L307.71 708.07 L306.08 705.66 L303.35 704.43 L299.40 704.40 L295.92 703.83 L292.87 702.77 L290.47 701.06 L288.91 698.54 L287.54 695.87 L285.88 693.47 L283.91 691.36 L281.37 689.74 L278.08 688.74 L276.94 685.89 L274.10 684.47 L272.20 682.25 L270.81 679.64 L270.35 676.32 L268.41 674.15 L268.36 670.59 L266.21 668.59 L262.57 667.64 L259.64 666.13 L256.60 664.66 L254.62 662.45 L252.17 660.52 L252.18 657.03 L249.75 655.08 L248.90 652.15 L246.35 650.25 L243.11 648.72 L241.04 646.48 L238.74 644.35 L238.49 641.10 L239.24 637.34 L238.89 634.21 L237.87 631.44 L234.30 629.92 L233.61 626.97 L231.12 624.87 L230.91 621.71 L229.39 619.15 L226.02 617.38 L223.93 615.03 L222.75 612.28 L222.11 609.31 L220.01 606.92 L220.13 603.68 L219.52 600.73 L219.29 597.65 L219.89 594.31 L218.50 591.66 L215.31 589.56 L212.34 587.34 L209.82 584.94 L208.58 582.15 L207.82 579.22 L208.05 576.03 L207.87 572.97 L207.10 570.06 L205.86 567.25 L203.94 564.58 L203.52 561.58 L201.59 558.87 L201.30 555.83 L199.44 553.07 L201.53 549.63 L200.20 546.78 L202.64 543.35 L202.02 540.41 L200.04 537.62 L197.90 534.83 L195.48 532.02 L194.37 529.05 L193.35 526.06 L194.73 522.87 L194.57 519.81 L194.50 516.75 L193.70 513.72 L191.53 510.73 L189.72 507.69 L187.89 504.61 L186.11 501.50 L183.59 498.35 L181.25 495.15 L182.02 491.98 L181.95 488.79 L183.34 485.67 L183.31 482.49 L181.18 479.18 L180.81 475.94 L181.41 472.78 L185.79 469.99 L186.62 466.90 L188.92 464.00 L188.93 460.84 L188.26 457.59 L189.44 454.58 L190.55 451.58 L189.79 448.28 L193.41 445.72 L192.11 442.31 L194.52 439.59 L192.19 435.93 L192.14 432.70 L190.45 429.08 L191.34 426.03 L193.09 423.19 L193.28 419.97 L194.81 417.10 L194.41 413.71 L196.76 411.08 L195.97 407.54 L197.35 404.64 L196.88 401.15 L198.05 398.18 L199.90 395.46 L199.79 392.04 L203.40 389.97 L202.73 386.33 L205.77 384.11 L205.30 380.50 L204.82 376.86 L204.85 373.39 L205.16 370.02 L207.11 367.37 L208.95 364.68 L210.43 361.82 L210.85 358.46 L210.06 354.46 L209.17 350.35 L208.55 346.33 L208.29 342.44 L210.33 339.78 L211.89 336.86 L212.34 333.29 L215.44 331.27 L215.50 327.44 L217.69 324.88 L219.79 322.28 L220.09 318.52 L226.10 318.49 L228.23 315.97 L232.17 314.71 L234.42 312.31 L235.02 308.73 L237.28 306.34 L239.93 304.24 L240.55 300.62 L245.47 300.32 L245.39 296.11 L249.25 295.06 L249.21 290.81 L250.70 287.79 L251.19 283.87 L253.32 281.35 L256.00 279.33 L257.76 276.49 L260.67 274.69 L262.14 271.55 L264.97 269.70 L266.72 266.81 L268.70 264.11 L270.72 261.44 L272.67 258.69 L275.67 257.05 L277.44 254.08 L280.69 252.75 L283.58 251.04 L286.31 249.15 L288.92 247.13 L289.73 242.92 L291.90 240.32 L293.19 236.57 L296.20 234.99 L299.00 233.16 L301.44 230.83 L304.10 228.80 L306.07 225.79 L308.88 223.95 L310.26 220.00 L312.19 216.80 L312.84 211.56 L315.80 209.81 L318.97 208.39 L321.89 206.58 L325.85 206.54 L327.22 202.10 L329.95 199.92 L332.09 196.68 L336.58 197.69 L341.04 198.77 L344.48 198.02 L348.63 198.71 L350.92 195.73 L353.95 194.20 L357.35 193.49 L359.82 190.75 L364.06 191.95 L366.37 188.78 L370.34 189.49 L372.71 186.40 L375.26 183.64 L377.93 181.09 L380.66 178.64 L384.11 178.11 L387.34 176.98 L390.68 176.16 L393.77 174.62 L397.02 173.54 L400.49 173.20 L403.22 170.38 L406.69 170.00 L409.57 167.52 L413.15 167.62 L416.56 167.07 L419.68 165.39 L423.65 167.30 L426.63 164.94 L430.33 165.90 L433.10 162.31 L436.34 160.90 L439.32 157.94 L442.74 157.32 L446.32 157.78 L449.66 156.63 L453.20 156.91 L456.31 153.91 L459.54 151.44 L462.75 148.49 L466.09 146.25 L469.50 144.45 L473.21 146.18 L476.57 143.17 L480.20 144.04 L483.75 143.74 L487.25 141.75 L490.89 143.81 L494.41 141.33 L498.02 144.36 L501.57 146.16 L505.08 147.83 L508.56 149.42 L512.09 148.81 L515.63 148.45 L519.10 149.46 L522.65 148.93 L526.10 149.96 L529.55 150.83 L533.04 151.11 L536.50 151.71 L540.28 149.48 L543.85 149.38 L547.64 147.73 L551.05 149.00 L554.66 148.85 L558.30 148.61 L561.67 150.01 L565.42 149.32 L568.42 152.56 L572.26 151.47 L575.61 152.82 L579.45 151.97 L582.74 153.56 L586.04 155.05 L589.83 154.58 L592.37 158.86 L596.47 157.32 L599.21 160.66 L603.50 158.69 L607.15 158.97 L611.19 158.11 L614.74 158.83 L617.93 160.60 L621.47 161.37 L624.60 163.28 L628.49 163.18 L631.85 164.46 L635.82 164.27 L639.83 164.06 L644.46 162.48 L648.65 162.07 L651.78 164.12 L655.28 165.34 L657.84 168.54 L661.55 169.32 L665.67 169.30 L669.38 170.18 L672.57 172.08 L673.82 177.56 L676.78 179.79 L678.64 183.93 L682.02 185.34 L685.75 186.17 L688.64 188.44 L691.60 190.57 L695.12 191.82 L696.66 196.15 L700.59 196.77 L702.68 200.17 L707.36 199.77 L710.85 201.15 L715.02 201.62 L717.97 203.81 L720.36 206.76 L723.76 208.35 L726.10 211.32 L729.86 212.49 L731.36 216.47 L735.46 217.27 L737.79 220.21 L741.74 221.25 L744.40 223.82 L746.56 226.94 L750.27 228.33 L750.96 232.99 L755.05 234.02 L756.43 237.88 L760.41 239.08 L763.94 240.78 L767.75 242.25 L770.70 244.57 L772.82 247.68 L775.04 250.68 L777.50 253.47 L780.80 255.52 L785.23 256.63 L789.43 258.01 L793.80 259.30 L797.81 260.95 L799.59 264.41 L802.46 267.02 L805.52 269.49 L806.61 273.44 L810.46 275.36 L812.07 278.92 L814.22 282.08 L817.34 284.58 L815.34 290.52 L816.90 294.02 L817.18 298.32 L818.89 301.68 L822.38 303.95 L824.02 307.37 L824.89 311.22 L828.43 313.53 L827.10 318.59 L831.02 320.72 L830.89 325.04 L835.07 327.10 L837.55 330.08 L841.16 332.51 L843.09 335.80 L844.02 339.57 L846.08 342.80 L846.89 346.60 L849.47 349.61 L849.69 353.65 L852.05 356.78 L853.58 360.26 L855.81 363.48 L857.79 366.81 L858.38 370.65 L860.47 373.96 L860.54 377.97 L861.79 381.56 L862.10 385.46 L863.68 388.95 L866.90 391.96 L868.67 395.44 L871.50 398.63 L872.05 402.47 L872.58 406.30 L873.83 409.96 L875.00 413.63 L880.71 416.32 L885.51 419.29 L892.24 421.97 L898.01 424.95 L898.62 428.96 L899.49 432.92 L900.24 436.90 L901.07 440.87 L901.99 444.84 L902.94 448.81 L903.97 452.78 L905.11 456.75 L906.10 460.74 L906.81 464.78 L907.39 468.83 L907.64 472.91 L908.47 476.95 L908.62 481.04 L908.75 485.13 L909.05 489.21 L909.13 493.30 L909.04 497.39 L915.03 500.00 L915.15 495.85 L914.52 491.71 L914.28 487.57 L913.84 483.44 L913.08 479.33 L912.77 475.20 L912.10 471.11 L911.97 466.97 L911.30 462.88 L910.94 458.77 L910.19 454.70 L909.06 450.68 L908.27 446.62 L907.09 442.63 L906.49 438.57 L905.58 434.55 L904.97 430.48 L903.72 426.54 L902.81 422.53 L909.58 416.97 L910.70 412.46 L916.35 406.90 L916.84 402.40 L916.07 398.18 L913.88 394.32 L912.63 390.23 L910.76 386.32 L910.00 382.10 L908.06 378.23 L906.42 374.28 L906.87 369.67 L906.00 365.45 L904.39 361.49 L904.34 356.97 L901.58 353.41 L898.95 349.83 L897.03 346.01 L895.23 342.14 L891.17 339.21 L891.46 334.49 L888.19 331.28 L886.52 327.39 L884.12 323.83 L880.89 320.68 L879.25 316.80 L877.28 313.08 L875.40 309.31 L873.32 305.65 L871.52 301.83 L871.50 297.05 L868.92 293.64 L867.48 289.60 L865.57 285.81 L861.87 283.08 L859.41 279.64 L856.89 276.25 L854.68 272.66 L848.15 271.90 L846.03 268.31 L839.75 267.57 L837.37 264.21 L835.19 260.70 L833.57 256.79 L831.10 253.49 L827.49 251.04 L825.22 247.59 L821.40 245.37 L817.89 242.94 L816.78 238.55 L813.92 235.59 L813.94 230.16 L811.64 226.67 L808.84 223.61 L806.03 220.57 L802.27 218.41 L799.56 215.29 L796.86 212.14 L793.48 209.68 L790.66 206.65 L788.26 203.20 L786.28 199.27 L782.89 196.83 L780.70 193.07 L777.36 190.56 L773.23 188.97 L770.05 186.32 L766.63 183.95 L761.83 183.28 L759.37 179.78 L755.41 178.14 L751.88 175.99 L748.50 173.65 L744.11 172.67 L741.02 169.99 L737.33 168.13 L734.23 165.43 L730.73 163.32 L727.34 161.05 L725.36 156.62 L721.54 154.97 L718.71 151.76 L715.48 149.18 L711.10 148.47 L707.15 147.10 L703.21 145.75 L699.30 144.36 L693.48 146.50 L690.47 143.59 L685.04 145.26 L680.58 145.20 L677.53 142.40 L674.02 140.47 L669.90 139.85 L666.60 137.49 L661.98 138.06 L658.66 135.76 L655.84 132.21 L652.74 129.25 L649.51 126.54 L646.05 124.33 L642.19 123.16 L638.57 121.32 L634.62 120.40 L630.31 120.55 L626.46 119.41 L622.50 118.62 L618.65 117.51 L614.78 116.48 L611.01 115.11 L607.79 111.74 L603.79 111.11 L600.07 109.38 L596.27 107.97 L591.89 108.94 L587.84 108.66 L583.83 108.24 L579.53 109.26 L575.52 109.01 L571.72 107.63 L567.62 107.93 L563.74 107.04 L559.62 107.62 L555.62 107.55 L551.64 107.42 L547.73 106.79 L543.79 106.38 L539.80 106.51 L536.06 103.91 L532.12 103.28 L528.15 103.07 L524.26 101.45 L520.20 102.67 L516.15 104.25 L512.19 104.42 L508.24 103.75 L504.23 107.90 L500.31 108.66 L496.42 111.56 L492.60 114.82 L488.69 112.86 L484.86 114.05 L480.90 112.20 L477.14 114.40 L473.33 115.19 L469.45 115.15 L465.85 118.16 L461.90 117.19 L458.00 116.95 L453.97 115.70 L449.80 113.62 L445.89 113.82 L441.99 114.08 L438.37 116.14 L434.53 116.79 L430.84 118.19 L426.99 118.76 L423.22 119.70 L419.47 120.71 L415.27 119.70 L411.61 121.13 L407.67 121.40 L403.72 121.66 L400.27 123.88 L396.77 125.84 L393.11 127.18 L389.64 129.09 L386.58 132.31 L382.23 131.33 L379.07 134.11 L375.29 134.97 L372.07 137.43 L368.80 139.69 L365.37 141.46 L361.68 142.53 L358.13 143.98 L354.62 145.52 L350.37 145.31 L346.57 146.22 L343.21 148.15 L339.30 148.87 L336.06 151.05 L333.30 154.20 L329.80 155.79 L326.56 157.88 L325.11 163.41 L322.11 165.84 L319.83 169.58 L317.92 173.88 L314.25 174.98 L310.90 176.67 L307.48 178.25 L305.10 181.54 L302.02 183.65 L299.50 186.65 L295.58 187.45 L291.32 187.79 L287.57 188.96 L284.12 190.60 L280.83 192.48 L277.74 194.65 L274.48 196.59 L272.13 199.75 L269.35 202.32 L267.00 205.42 L263.85 207.50 L261.21 210.20 L258.42 212.73 L254.25 213.62 L251.26 215.94 L248.48 218.49 L245.11 220.40 L243.14 223.84 L241.58 227.68 L238.87 230.27 L236.50 233.22 L235.86 237.87 L231.63 238.94 L230.43 242.97 L227.73 245.54 L225.58 248.63 L224.18 252.37 L221.41 254.87 L219.04 257.73 L216.73 260.63 L214.40 263.52 L211.81 266.19 L207.76 267.71 L206.03 271.09 L202.73 273.26 L200.56 276.31 L199.76 280.36 L198.00 283.67 L196.26 286.99 L194.60 290.35 L196.40 296.02 L194.24 298.98 L196.34 304.68 L194.00 307.47 L192.06 310.52 L189.58 313.25 L187.62 316.30 L187.02 320.14 L184.81 323.04 L184.82 327.17 L183.67 330.62 L181.00 333.28 L179.22 336.41 L174.60 338.13 L172.46 341.13 L170.07 344.03 L169.09 347.60 L168.34 351.25 L167.28 354.76 L165.89 358.11 L164.89 361.63 L163.50 364.98 L161.20 367.97 L158.87 370.98 L158.08 374.57 L155.41 377.49 L154.66 381.10 L154.94 385.04 L154.20 388.62 L153.42 392.18 L155.07 396.47 L152.64 399.52 L152.74 403.30 L151.79 406.77 L151.31 410.37 L151.94 414.24 L151.10 417.72 L150.87 421.34 L149.92 424.80 L149.32 428.33 L148.55 431.83 L145.55 434.92 L145.55 438.57 L144.18 442.00 L143.30 445.51 L144.06 449.26 L144.81 452.99 L144.68 456.58 L143.76 460.08 L148.24 464.14 L146.32 467.51 L150.50 471.42 L152.80 475.10 L151.37 478.50 L150.64 481.96 L152.37 485.53 L151.30 488.98 L153.83 492.52 L152.86 495.98 L150.85 499.44 L148.91 502.95 L147.11 506.50 L145.36 510.08 L144.42 513.66 L143.34 517.28 L144.27 520.80 L144.55 524.35 L146.96 527.74 L147.04 531.29 L148.58 534.69 L148.85 538.22 L148.64 541.80 L150.16 545.17 L150.98 548.62 L150.28 552.29 L148.47 556.16 L148.73 559.72 L149.41 563.22 L151.23 566.50 L155.05 569.35 L156.44 572.66 L155.44 576.48 L157.32 579.66 L157.70 583.19 L158.64 586.59 L161.21 589.55 L163.64 592.51 L164.69 595.84 L167.35 598.69 L166.98 602.44 L168.72 605.54 L170.12 608.74 L171.21 612.03 L170.27 616.05 L170.69 619.61 L171.35 623.11 L173.80 625.92 L175.01 629.21 L177.34 632.03 L177.76 635.63 L180.47 638.27 L183.58 640.70 L184.24 644.20 L184.73 647.81 L185.74 651.19 L187.86 654.03 L190.00 656.85 L192.74 659.34 L193.98 662.60 L198.52 664.07 L200.59 666.85 L204.49 668.57 L203.69 672.98 L204.77 676.33 L205.16 680.12 L207.75 682.58 L211.43 684.32 L213.91 686.79 L217.08 688.78 L219.36 691.34 L220.18 694.91 L222.61 697.36 L224.87 699.93 L226.47 702.98 L227.03 706.83 L229.32 709.38 L230.96 712.45 L233.73 714.62 L237.52 715.93 L240.50 717.87 L241.39 721.57 L244.40 723.46 L246.33 726.28 L249.05 728.41 L252.32 730.00 L256.01 731.16 L258.14 733.78 L261.67 735.02 L263.15 738.28 L265.70 740.48 L268.53 742.37 L270.99 744.66 L272.54 747.92 L273.99 751.34 L276.12 754.03 L279.46 755.35 L281.97 757.60 L285.39 758.77 L287.51 761.49 L290.79 762.78 L294.81 763.09 L297.14 765.53 L299.10 768.49 L301.14 771.38 L303.89 773.32 L306.97 774.79 L311.81 773.67 L314.70 775.32 L318.34 775.83 L322.06 776.16 L324.81 777.95 L327.92 779.17 L331.07 780.30 L333.84 782.03 L337.29 782.61 L340.12 784.23 L343.30 785.22 L346.05 786.97 L349.18 788.01 L352.26 789.13 L354.26 792.40 L357.12 793.98 L359.27 797.09 L362.10 798.80 L365.40 799.48 L369.25 798.89 L372.72 799.06 L375.96 799.72 L380.05 798.24 L382.16 801.69 L385.88 801.02 L388.70 802.65 L391.92 803.24 L395.38 803.08 L398.44 804.03 L401.52 804.94 L404.66 805.63 L407.72 806.56 L410.50 808.48 L413.07 811.19 L416.33 811.52 L419.11 813.67 L422.37 813.98 L426.91 808.85 L430.08 809.22 L434.31 804.64 L437.30 805.55 L440.24 806.78 L442.88 809.71 L446.48 807.37 L449.59 807.71 L452.87 806.90 L455.96 807.18 L459.02 807.76 L462.07 808.38 L465.29 807.54 L468.19 809.63 L471.11 811.78 L474.14 813.22 L477.24 813.87 L480.35 814.61 L483.54 813.97 L486.66 814.62 L489.83 813.85 L492.99 812.99 L496.13 812.70 L499.25 813.01 L502.38 812.58 L505.50 812.34 L508.67 813.84 L511.84 814.70 L514.96 813.91 L518.19 815.38 L521.25 813.84 L524.26 811.95 L527.37 811.63 L530.43 810.72 L533.25 807.78 L536.51 808.96 L539.46 807.53 L542.52 807.06 L545.55 806.31 L548.35 804.19 L551.38 803.67 L554.37 802.90 L557.50 802.86 L560.48 802.07 L563.60 801.93 L566.98 802.93 L569.96 802.06 L572.94 801.16 L576.10 801.04 L578.57 798.23 L581.40 796.87 L584.33 795.92 L586.45 792.25 L589.23 790.91 L591.96 789.46 L594.83 788.47 L597.76 787.66 L600.33 785.81 L602.02 781.58 L605.26 781.69 L606.78 777.26 L609.94 777.16 L611.95 774.22 L614.48 772.59 L617.82 772.86 L621.49 773.80 L626.00 776.48 L629.44 776.66 L633.00 777.02 L635.23 774.59 L638.00 773.29 L639.54 769.61 L642.36 768.44 L644.47 765.96 L647.30 764.82 L650.27 763.91 L652.42 761.56 L654.93 759.87 L658.61 760.10 L661.76 759.39 L665.23 759.14 L667.06 756.33 L668.97 753.68 L669.19 748.57 L671.78 747.03 L674.53 745.72 L677.13 744.16 L679.57 742.38 L682.17 740.83 L683.49 737.59 L684.83 734.44 L687.49 732.99 L688.56 729.58 L692.04 729.11 L693.75 726.50 L695.68 724.19 L697.84 722.13 L701.41 721.64 L704.54 720.61 L706.80 718.63 L708.81 716.38 L709.98 713.27 L712.33 711.39 L713.98 708.81 L715.51 706.14 L715.98 702.50 L719.09 701.33 L721.75 699.73 L724.13 697.85 L725.82 695.35 L725.57 691.23 L727.01 688.58 L729.38 686.70 L729.73 683.19 L731.31 680.71 L732.10 677.61 L734.11 675.47 L737.20 674.11 L739.43 672.09 L741.19 669.72 L740.85 665.90 L741.57 662.86 L741.99 659.65 L743.20 656.98 L745.41 654.95 L746.86 652.44 L748.04 649.76 L750.01 647.56 L753.09 645.98 L754.75 643.56 L755.82 640.82 L757.30 638.30 L755.88 634.25 L756.99 631.57 L759.48 629.59 L759.84 626.54 L761.43 624.09 L762.74 621.51 L762.22 618.10 L761.54 614.67 L762.82 612.11 L762.26 608.78 L765.03 606.84 L765.92 604.12 L766.47 601.27 L767.58 598.64 L769.81 596.41 L772.25 594.22 L773.57 591.63 L773.37 588.53 L773.69 585.62 L773.46 582.55 L774.72 579.95 L774.74 576.98 L773.24 573.62 L774.60 571.05 L776.11 568.50 L777.73 565.96 L778.30 563.17 L778.43 560.27 L777.30 557.13 L778.07 554.40 L774.50 550.85 L774.73 548.06 L772.86 544.93 L773.94 542.29 L775.37 539.70 L776.69 537.07 L775.13 534.06 L776.55 531.44 L775.77 528.56 L776.35 525.83 L776.41 523.05 L775.63 520.21 L778.32 517.61 L776.50 514.72 L777.50 511.99 L777.62 509.22 L776.47 506.41 L776.04 503.64 L775.67 500.88 L775.10 498.13 L773.66 495.40 L774.96 492.63 L772.99 489.95 L773.27 487.20 L771.57 484.55 L771.07 481.86 L770.44 479.19 L771.13 476.40 L770.28 473.75 L769.95 471.06 L770.54 468.25 L770.98 465.45 L770.37 462.78 L771.41 459.86 L769.81 457.34 L768.13 454.85 L767.21 452.25 L766.28 449.67 L764.17 447.33 L762.07 445.01 L760.71 442.57 L757.08 440.67 L757.07 437.96 L754.91 435.77 L754.44 433.18 L753.08 430.83 L750.87 428.73 L750.69 426.06 L747.61 424.27 L746.99 421.75 L747.98 418.70 L747.37 416.15 L750.40 412.32 L750.90 409.32 L750.26 406.71 L748.82 404.40 L746.56 402.43 L745.48 400.01 L743.71 397.88 L742.68 395.44 L741.45 393.09 L741.27 390.28 L739.82 388.03 L738.65 385.65 L738.39 382.83 L735.81 381.16 L734.67 378.78 L733.03 376.66 L731.84 374.30 L728.34 373.23 L728.17 370.32 L725.40 368.90 L723.58 366.95 L722.13 364.79 L719.18 363.56 L718.48 360.94 L716.74 358.99 L715.41 356.76 L713.81 354.72 L712.62 352.40 L712.48 349.33 L710.72 347.38 L709.80 344.83 L708.16 342.80 L705.51 341.55 L703.36 339.94 L701.74 337.92 L699.76 336.20 L696.45 335.60 L694.96 333.50 L691.55 333.08 L689.51 331.49 L686.89 330.44 L685.82 328.00 L683.32 326.87 L680.95 325.66 L679.06 323.99 L677.11 322.39 L675.94 320.00 L675.58 316.73 L673.87 314.85 L673.66 311.33 L671.67 309.71 L670.71 306.92 L668.33 305.73 L665.91 304.61 L662.82 304.32 L661.09 302.41 L658.44 301.64 L657.25 299.04 L654.99 297.80 L652.48 296.89 L649.96 296.03 L648.54 293.68 L646.87 291.63 L644.97 289.90 L642.43 289.09 L639.25 289.29 L636.26 289.27 L633.99 288.15 L632.75 285.40 L629.93 285.19 L628.08 283.38 L625.52 282.79 L622.48 283.07 L620.14 282.16 L617.60 281.63 L614.95 281.32 L613.40 278.93 L610.48 279.22 L608.30 278.07 L605.86 277.45 L604.03 275.53 L602.26 273.45 L599.67 273.16 L597.83 271.15 L594.85 271.84 L592.81 270.30 L590.27 269.97 L587.46 270.41 L584.97 270.07 L582.92 268.53 L581.14 266.16 L578.84 265.24 L576.37 264.82 L573.67 265.15 L570.95 265.65 L568.52 265.25 L565.99 265.20 L563.22 266.09 L560.93 265.28 L558.86 263.56 L556.59 262.58 L554.29 261.69 L551.66 262.29 L548.91 263.58 L546.65 262.51 L543.88 264.18 L541.72 262.62 L539.44 261.66 L536.95 261.95 L534.55 261.68 L532.24 260.82 L529.96 259.60 L527.56 259.22 L525.10 259.46 L522.66 259.62 L520.16 260.54 L517.66 261.71 L515.41 259.49 L512.89 261.43 L510.52 260.91 L508.09 262.08 L505.69 262.91 L503.29 264.55 L500.94 264.81 L498.59 265.82 L496.23 264.57 L493.89 265.15 L491.56 265.83 L489.17 264.83 L486.77 264.15 L484.35 263.24 L481.94 262.93 L479.75 265.14 L477.44 265.78 L475.22 267.17 L472.93 267.76 L470.64 268.23 L468.57 270.36 L466.06 269.18 L463.56 268.35 L461.17 268.29 L458.83 268.54 L456.64 269.60 L454.94 273.09 L452.59 273.15 L450.72 275.42 L448.82 277.42 L446.55 277.77 L444.56 279.21 L442.18 279.13 L440.08 280.08 L438.05 281.28 L435.96 282.22 L433.89 283.23 L431.83 284.23 L429.59 284.66 L427.48 285.49 L424.77 284.61 L422.56 285.21 L420.01 284.91 L418.04 286.16 L416.13 287.57 L414.53 289.70 L412.86 291.60 L411.15 293.32 L409.75 295.71 L407.49 296.14 L405.80 297.82 L403.90 299.01 L401.96 300.12 L400.38 301.93 L398.62 303.37 L396.52 304.13 L394.91 305.80 L393.17 307.22 L390.53 307.02 L388.22 307.46 L386.43 308.81 L383.78 308.74 L383.32 312.24 L382.59 315.21 L381.04 316.84 L380.30 319.68 L378.58 321.00 L376.70 322.08 L375.16 323.65 L374.61 326.58 L373.22 328.30 L372.25 330.56 L370.58 331.86 L369.62 334.07 L367.77 335.14 L366.87 337.38 L364.26 337.53 L361.94 338.07 L359.20 338.17 L357.72 339.73 L354.99 339.91 L353.28 341.24 L351.32 342.32 L350.87 344.98 L349.77 346.92 L348.56 348.75 L347.34 350.55 L345.35 351.60 L344.62 353.86 L341.84 354.20 L340.92 356.26 L339.49 357.86 L337.37 358.85 L337.30 361.63 L336.36 363.62 L335.11 365.35 L333.98 367.17 L334.33 370.15 L331.73 370.81 L331.89 373.58 L330.86 375.44 L330.08 377.46 L329.96 379.94 L328.82 381.68 L327.97 383.62 L326.80 385.34 L325.80 387.16 L323.71 388.30 L321.59 389.44 L321.02 391.55 L319.02 392.80 L318.14 394.72 L318.29 397.22 L317.17 398.98 L316.54 401.01 L319.24 404.80 L317.14 406.01 L317.46 408.47 L316.64 410.35 L314.66 411.66 L315.79 414.45 L316.01 416.78 L315.23 418.64 L315.88 421.12 L314.92 422.89 L314.79 425.00 L314.90 427.19 L313.27 428.69 L310.84 429.93 L307.35 430.82 L306.06 432.53 L303.17 433.73 L303.91 436.15 L303.44 438.17 L305.01 440.80 L303.38 442.44 L304.88 445.00 L302.81 446.53 L302.57 448.58 L302.62 450.70 L301.60 452.55 L300.03 454.28 L298.93 456.14 L298.31 458.11 L299.53 460.45 L300.74 462.76 L302.34 465.10 L301.61 467.01 L301.47 469.02 L300.27 470.88 L301.60 473.10 L300.83 475.02 L302.14 477.19 L302.58 479.24 L302.37 481.21 L303.35 483.29 L302.52 485.21 L302.84 487.21 L303.97 489.25 L302.31 491.14 L301.69 493.10 L300.73 495.06 L301.38 497.06 L301.23 499.05 L302.87 501.03 L301.89 503.02 L302.92 504.97 L303.75 506.92 L304.70 508.84 L303.27 510.88 L303.07 512.86 L302.87 514.86 L304.21 516.73 L306.84 518.45 L306.82 520.40 L306.84 522.36 L307.08 524.28 L308.43 526.06 L308.45 528.01 L308.72 529.93 L307.01 532.18 L307.73 534.04 L309.03 535.78 L310.38 537.49 L313.48 538.82 L313.09 540.86 L313.96 542.62 L314.23 544.52 L314.58 546.40 L316.16 547.97 L315.06 550.23 L315.77 552.02 L315.27 554.17 L316.93 555.67 L317.69 557.44 L320.64 558.49 L321.12 560.32 L320.78 562.43 L322.27 563.92 L322.81 565.73 L323.94 567.32 L326.47 568.35 L328.45 569.56 L329.51 571.12 L330.48 572.72 L330.08 574.91 L331.42 576.34 L332.13 578.05 L333.04 579.67 L332.38 582.05 L332.25 584.21 L333.57 585.64 L334.99 587.00 L337.13 587.97 L338.32 589.43 L339.41 590.93 L340.86 592.23 L343.22 592.96 L343.05 595.20 L343.20 597.27 L344.00 598.95 L345.33 600.28 L347.25 601.22 L349.20 602.11 L350.17 603.66 L353.18 603.76 L355.70 604.16 L359.29 603.72 L360.95 604.66 L362.46 605.70 L361.96 608.30 L365.20 607.95 L364.84 610.47 L367.65 610.40 L368.71 611.76 L368.86 613.91 L369.74 615.45 L370.95 616.71 L372.78 617.38 L374.17 618.46 L376.25 618.86 L378.02 619.52 L378.65 621.31 L380.43 621.94 L381.40 623.40 L383.28 623.90 L385.07 624.47 L387.13 624.71 L388.73 625.45 L390.53 625.93 L391.60 627.25 L393.33 627.79 L394.74 628.70 L396.78 628.80 L398.13 629.76 L398.98 631.36 L400.98 631.45 L401.21 633.92 L403.19 634.02 L403.47 636.48 L405.44 636.57 L406.63 637.79 L408.11 638.56 L409.96 638.76 L411.69 639.13 L413.17 639.87 L415.79 638.73 L417.33 639.30 L419.52 638.77 L421.36 638.77 L423.37 638.42 L425.12 638.52 L427.08 638.19 L429.00 637.87 L430.70 637.93 L430.70 641.44 L431.89 642.60 L433.15 643.65 L432.61 648.68 L435.79 645.52 L435.77 649.59 L438.11 648.20 L439.29 649.57 L440.87 649.97 L442.77 649.51 L443.92 651.02 L445.96 650.10 L447.19 651.42 L448.92 651.31 L450.50 651.63 L452.20 651.54 L453.90 651.39 L455.39 651.95 L456.84 652.64 L458.57 652.32 L460.50 651.18 L462.15 651.03 L464.09 649.59 L465.47 650.48 L467.10 650.25 L468.48 651.18 L470.30 649.90 L471.69 650.80 L473.15 651.33 L474.94 649.95 L476.16 652.00 L477.81 651.36 L479.14 652.88 L480.68 653.07 L482.19 653.39 L483.77 653.18 L485.39 652.37 L486.90 652.72 L488.42 652.92 L490.00 652.24 L491.53 652.18 L493.05 652.42 L494.62 651.14 L496.12 651.56 L497.65 650.83 L499.16 650.92 L500.66 649.69 L502.16 649.83 L503.64 649.08 L505.16 649.72 L506.59 648.23 L508.11 648.80 L509.61 649.02 L511.12 649.10 L512.55 648.32 L514.02 648.07 L515.54 648.29 L516.82 646.31 L518.61 648.82 L519.93 647.39 L521.43 647.34 L522.65 645.50 L523.91 644.09 L524.87 641.13 L525.71 637.84 L526.91 636.66 L528.12 635.64 L529.47 635.34 L530.74 634.66 L531.97 633.86 L533.28 633.41 L534.31 631.93 L535.45 630.93 L536.41 629.33 L537.70 628.95 L538.71 627.65 L540.08 627.57 L541.03 626.15 L542.10 625.19 L543.29 624.58 L544.28 623.44 L545.52 623.02 L546.46 621.80 L547.48 620.83 L548.63 620.21 L549.63 619.24 L550.70 618.44 L551.61 617.32 L552.66 616.53 L553.57 615.47 L554.70 614.87 L555.53 613.66 L556.51 612.79 L557.58 612.12 L558.40 610.98 L559.42 610.22 L560.18 609.01 L561.10 608.10 L562.13 607.42 L563.09 606.59 L563.91 605.55 L564.70 604.48 L565.61 603.64 L566.35 602.51 L567.37 601.84 L568.06 600.68 L568.86 599.70 L569.71 598.81 L570.40 597.70 L571.29 596.87 L571.94 595.74 L572.74 594.81 L573.43 593.76 L574.14 592.74 L574.87 591.75 L575.51 590.67 L576.48 589.99 L576.99 588.77 L577.88 588.00 L578.35 586.78 L579.01 585.77 L579.68 584.78 L580.19 583.62 L580.76 582.56 L581.32 581.47 L581.91 580.45 L582.65 579.56 L583.29 578.59 L583.89 577.59 L584.31 576.43 L584.98 575.50 L585.42 574.37 L586.18 573.53 L586.60 572.40 L587.13 571.38 L587.48 570.21 L587.78 569.03 L588.15 567.90 L588.55 566.81 L589.04 565.79 L589.42 564.70 L589.85 563.65 L590.30 562.62 L590.72 561.58 L591.85 561.01 L592.15 559.89 L592.59 558.88 L592.68 557.64 L592.60 556.31 L592.72 555.12 L593.35 554.24 L593.53 553.10 L593.91 552.08 L594.08 550.95 L594.17 549.79 L594.34 548.68 L594.49 547.57 L594.81 546.54 L595.00 545.46 L595.28 544.43 L595.75 543.49 L596.07 542.48 L596.36 541.47 L596.36 540.33 L596.54 539.27 L596.42 538.11 L596.79 537.14 L597.02 536.12 L597.18 535.07 L597.35 534.04 L597.21 532.90 L597.13 531.80 L596.92 530.66 L597.38 529.74 L597.30 528.65 L597.93 527.77 L597.62 526.64 L598.17 525.73 L597.81 524.60 L597.93 523.59 L597.57 522.47 L597.33 521.39 L597.06 520.32 L597.34 519.36 L597.16 518.32 L597.58 517.39 L596.75 516.25 L596.89 515.27 L596.09 514.17 L595.77 513.14 L595.43 512.12 L595.68 511.19 L595.66 510.21 L595.62 509.24 L595.48 508.27 L595.11 507.28 L594.61 506.29 L594.59 505.34 L594.58 504.39 L594.47 503.44 L594.05 502.48 L593.55 501.53 L592.77 500.59 Z"/>
  <svg class="pausebutton" id="pausebutton">
    <circle cx="500" cy="500" id="pausestart" class="pausestart" r="52.65"/>
    <rect height="50.02" width="10.00" y="473.68" rx="2.00" ry="2.00" x="479.99" class="pausesymbol"/>
    <rect height="50.02" width="10.00" y="473.68" rx="2.00" ry="2.00" x="510.00" class="pausesymbol"/>
    <polygon points="530.01,500 479.99,530.01 479.99,469.99" class="playsymbol"/>
  </svg>
  <polygon id="playback-head" class="playback-head" points="912.475,500 892.475,540 932.475,540"/>
</svg>