<?xml-stylesheet href="../../style/waveformjs.css" type="text/css"?>
<svg xmlns="http://www.w3.org/2000/svg" xmlns:xlink="http://www.w3.org/1999/xlink" width="100%" height="100%" viewBox="0 0 1000 1000">
  <path class="svg-wave" id="sp" d="M590.45 500.00 L590.58 500.91 L590.76 501.82 L591.01 502.73 L591.14 503.65 L591.25 504.57 L591.48 505.50 L591.73 506.43 L592.13 507.39 L592.45 508.34 L592.71 509.30 L592.75 510.24 L592.92 511.20 L593.03 512.16 L593.12 513.12 L593.20 514.09 L593.22 515.04 L593.26 516.01 L593.35 516.99 L593.35 517.95 L593.41 518.93 L593.57 519.94 L593.52 520.91 L593.75 521.95 L593.10 522.78 L592.24 523.55 L591.53 524.35 L590.79 525.13 L590.36 525.98 L590.96 527.14 L590.59 528.02 L590.88 529.11 L590.35 529.94 L590.00 530.83 L589.51 531.66 L589.77 532.77 L589.80 533.80 L589.74 534.81 L589.50 535.75 L589.34 536.72 L588.90 537.59 L589.02 538.69 L589.01 539.75 L588.81 540.73 L588.42 541.63 L587.55 542.29 L587.56 543.38 L587.16 544.27 L587.35 545.48 L587.20 546.51 L586.73 547.38 L586.26 548.25 L586.10 549.30 L585.63 550.17 L585.85 551.46 L585.33 552.31 L584.93 553.25 L584.09 553.90 L583.58 554.76 L583.37 555.82 L583.06 556.82 L582.77 557.85 L582.49 558.89 L581.42 559.37 L581.09 560.37 L580.61 561.28 L580.21 562.25 L579.80 563.22 L579.32 564.14 L578.20 564.54 L577.75 565.49 L577.17 566.33 L576.54 567.13 L576.27 568.26 L575.30 568.76 L574.56 569.46 L573.86 570.20 L573.07 570.86 L572.59 571.82 L571.81 572.48 L570.91 573.01 L570.06 573.60 L569.17 574.13 L568.45 574.84 L567.78 575.62 L566.78 576.02 L565.60 576.19 L564.56 576.53 L563.44 576.75 L562.42 577.06 L561.12 577.02 L559.43 576.45 L557.34 575.30 L555.32 574.18 L553.63 573.44 L551.35 571.80 L550.34 571.90 L548.11 570.21 L545.22 567.42 L542.21 564.32 L539.25 561.13 L541.78 566.52 L540.79 566.42 L544.71 574.46 L543.81 574.64 L541.93 573.09 L542.15 575.21 L542.28 577.25 L540.90 576.54 L540.39 577.44 L537.64 573.95 L535.76 572.04 L536.08 574.54 L536.34 577.03 L535.72 577.73 L535.38 579.05 L533.61 577.17 L532.42 576.51 L532.91 579.87 L531.16 577.84 L530.56 578.59 L528.49 575.51 L527.37 574.79 L528.89 581.46 L528.07 581.73 L529.24 587.99 L527.74 586.37 L526.55 585.59 L526.63 588.98 L525.33 587.84 L524.86 589.55 L523.31 587.35 L522.00 585.89 L521.03 585.64 L520.99 589.34 L519.99 589.05 L519.32 590.31 L518.24 589.61 L517.19 589.00 L516.93 592.64 L516.02 592.89 L515.27 594.13 L514.02 592.25 L512.67 589.41 L511.12 584.50 L510.43 585.93 L509.84 588.42 L509.09 589.89 L508.83 596.96 L507.77 596.01 L507.24 602.04 L506.07 599.71 L505.26 603.44 L504.13 601.18 L503.03 598.35 L502.09 600.27 L501.09 601.32 L500.08 601.75 L499.06 602.62 L498.07 600.70 L497.03 601.60 L495.92 603.94 L494.91 603.41 L493.82 604.29 L492.98 601.26 L492.00 600.80 L490.52 605.97 L489.75 603.00 L488.25 607.16 L487.68 602.83 L486.81 601.49 L485.67 602.31 L484.38 603.88 L483.44 603.14 L482.42 602.93 L481.66 601.23 L480.85 600.01 L478.85 604.75 L478.48 601.37 L477.11 602.72 L476.98 598.69 L476.69 595.58 L475.16 597.59 L473.36 600.47 L471.60 602.93 L469.51 606.35 L468.73 605.08 L468.60 601.81 L468.94 597.21 L467.98 596.87 L466.76 597.29 L464.69 600.08 L462.41 603.23 L460.91 604.11 L459.01 605.94 L458.24 604.80 L456.76 605.43 L456.30 603.60 L456.27 600.84 L453.87 603.52 L453.33 601.98 L451.94 602.30 L451.17 601.28 L450.95 599.20 L449.99 598.64 L446.90 602.20 L446.95 599.64 L444.56 601.67 L444.60 599.22 L444.62 596.90 L440.86 601.11 L440.30 599.77 L437.38 602.32 L436.94 600.76 L436.90 598.61 L435.37 598.82 L433.38 599.66 L432.61 598.67 L431.33 598.42 L430.97 596.86 L431.49 594.12 L428.62 596.02 L427.36 595.71 L425.13 596.62 L423.46 596.77 L423.57 594.66 L422.97 593.48 L420.59 594.43 L420.66 592.46 L417.41 594.32 L417.79 592.01 L417.72 590.25 L420.23 585.76 L420.40 583.88 L416.63 586.11 L414.14 586.93 L406.12 593.17 L404.76 592.65 L403.95 591.58 L402.51 591.11 L403.61 588.29 L402.91 587.16 L404.56 583.98 L403.84 582.92 L400.23 584.31 L399.37 583.33 L395.47 584.80 L395.75 582.86 L394.73 581.97 L393.54 581.20 L390.73 581.62 L389.93 580.52 L389.09 579.45 L388.45 578.23 L388.41 576.61 L386.77 576.08 L384.49 575.94 L384.29 574.43 L382.34 574.03 L382.54 572.27 L381.23 571.45 L379.49 570.87 L377.80 570.23 L376.19 569.52 L374.79 568.66 L373.92 567.51 L371.95 566.92 L370.87 565.85 L369.40 564.97 L368.63 563.72 L368.49 562.17 L368.21 560.70 L367.63 559.37 L366.19 558.41 L361.10 558.99 L359.03 558.21 L353.59 558.75 L352.59 557.44 L352.10 555.94 L351.41 554.51 L350.37 553.20 L349.78 551.72 L348.72 550.40 L347.97 548.97 L347.46 547.45 L347.38 545.81 L346.85 544.30 L346.31 542.80 L345.62 541.33 L344.12 540.07 L344.20 538.39 L344.35 536.71 L345.64 534.78 L347.09 532.85 L348.75 530.91 L348.54 529.38 L349.58 527.62 L347.93 526.35 L348.60 524.68 L347.51 523.29 L348.59 521.58 L349.40 519.93 L349.89 518.34 L351.00 516.70 L350.77 515.21 L350.34 513.75 L350.07 512.26 L349.04 510.83 L348.82 509.32 L347.34 507.88 L347.55 506.34 L346.51 504.85 L347.15 503.30 L345.81 501.79 L346.26 500.24 L344.92 498.70 L345.62 497.16 L345.74 495.62 L346.38 494.10 L347.27 492.60 L348.52 491.14 L349.87 489.71 L349.54 488.18 L350.85 486.78 L350.01 485.19 L351.33 483.82 L352.49 482.45 L353.34 481.06 L353.46 479.59 L355.72 478.43 L355.80 476.96 L358.72 475.98 L360.06 474.77 L359.59 473.23 L355.87 471.02 L354.56 469.24 L350.80 466.89 L351.03 465.37 L352.22 464.08 L351.24 462.27 L347.47 459.68 L347.01 457.92 L344.95 455.68 L346.46 454.45 L348.24 453.32 L347.67 451.47 L346.73 449.48 L345.41 447.32 L345.37 445.58 L345.91 444.03 L346.65 442.56 L348.67 441.58 L349.57 440.19 L352.31 439.57 L353.87 438.49 L355.51 437.47 L356.31 436.11 L357.53 434.94 L358.80 433.80 L359.87 432.59 L360.02 430.92 L359.12 428.72 L357.90 426.31 L357.74 424.41 L357.75 422.58 L358.94 421.39 L358.08 419.04 L356.74 416.37 L353.82 412.69 L351.79 409.45 L352.13 407.62 L354.51 407.08 L358.13 407.37 L361.10 407.32 L362.70 406.39 L363.64 405.02 L363.62 402.96 L365.17 402.02 L365.88 400.47 L367.88 399.89 L368.57 398.33 L370.32 397.60 L371.95 396.78 L373.58 396.00 L375.32 395.32 L376.83 394.47 L377.92 393.27 L379.71 392.70 L381.06 391.74 L382.59 390.97 L383.84 389.94 L384.71 388.57 L385.72 387.31 L384.73 384.04 L382.93 379.84 L382.84 377.32 L381.69 373.61 L383.78 373.33 L385.65 372.84 L386.51 371.22 L388.67 371.10 L390.01 370.04 L391.69 369.40 L393.82 369.33 L395.02 368.14 L396.79 367.67 L398.35 366.95 L399.98 366.34 L401.90 366.13 L403.87 366.03 L405.72 365.79 L407.52 365.51 L409.41 365.40 L410.37 363.91 L409.30 359.24 L408.39 354.66 L406.90 348.96 L407.17 345.98 L407.65 343.24 L408.82 341.64 L410.36 340.64 L410.80 337.63 L412.82 337.49 L415.12 337.91 L417.66 338.86 L419.91 339.31 L421.35 338.17 L422.24 335.84 L423.31 333.83 L424.80 332.69 L427.65 334.62 L431.05 338.01 L435.91 345.14 L438.43 346.91 L437.71 340.54 L439.52 340.49 L437.31 329.52 L439.57 330.44 L441.76 331.28 L442.77 328.67 L444.17 327.12 L445.58 325.54 L447.09 324.22 L449.02 324.30 L449.94 320.79 L451.56 319.63 L452.54 315.98 L454.12 314.43 L456.05 314.30 L458.90 318.25 L462.26 325.01 L464.96 329.23 L465.59 323.38 L467.03 321.25 L466.59 308.10 L467.98 304.58 L469.97 304.49 L472.02 304.86 L474.17 306.05 L476.20 306.50 L478.38 308.45 L480.22 307.45 L482.41 310.16 L484.27 309.45 L486.28 310.80 L488.22 311.38 L490.09 311.05 L492.01 311.51 L493.88 311.10 L495.68 307.08 L497.61 307.23 L499.53 302.99 L501.50 303.16 L503.46 303.54 L505.44 302.95 L507.37 304.16 L509.36 303.66 L511.23 305.26 L513.20 305.01 L515.02 306.84 L516.91 307.49 L518.66 309.46 L520.41 311.10 L522.13 312.68 L523.94 313.43 L525.71 314.38 L527.81 312.98 L530.78 306.34 L532.99 305.04 L536.38 297.30 L538.14 299.08 L540.05 299.95 L541.59 302.58 L543.22 304.51 L544.70 307.00 L546.59 307.63 L548.10 309.72 L550.22 309.40 L551.73 311.32 L553.69 311.59 L555.29 313.09 L557.26 313.33 L559.15 313.80 L561.67 312.42 L564.44 310.39 L566.61 310.26 L569.32 308.69 L570.07 312.49 L571.69 313.85 L572.61 316.93 L573.74 319.39 L574.83 321.84 L576.15 323.63 L577.31 325.77 L578.70 327.30 L580.13 328.73 L581.14 331.00 L582.14 333.22 L583.48 334.68 L584.75 336.25 L589.06 332.06 L592.60 329.52 L596.31 326.84 L598.90 326.31 L598.87 330.33 L600.32 331.73 L602.03 332.69 L603.60 333.87 L606.80 332.50 L609.94 331.32 L611.82 332.13 L614.76 331.39 L615.91 333.32 L617.02 335.26 L619.64 335.09 L621.52 335.97 L624.08 335.96 L625.23 337.84 L626.25 339.86 L626.50 342.81 L629.25 342.64 L629.68 345.29 L631.90 345.81 L632.41 348.30 L632.56 351.16 L632.97 353.67 L635.82 353.51 L637.14 355.02 L638.70 356.28 L640.76 357.03 L640.57 360.05 L643.88 359.59 L644.46 361.82 L647.34 361.86 L653.44 359.00 L655.09 360.31 L659.60 359.12 L661.92 359.92 L662.05 362.62 L664.14 363.65 L665.67 365.16 L665.89 367.71 L666.24 370.13 L666.90 372.28 L668.42 373.77 L669.29 375.74 L672.13 376.29 L673.23 378.11 L673.58 380.43 L673.80 382.83 L673.54 385.51 L674.61 387.29 L677.97 387.63 L679.31 389.28 L683.03 389.49 L687.60 389.28 L688.67 391.17 L693.99 390.68 L694.19 393.11 L694.46 395.48 L695.11 397.63 L695.54 399.89 L695.42 402.40 L696.22 404.44 L696.44 406.76 L697.77 408.53 L696.87 411.33 L696.96 413.65 L698.95 415.14 L701.24 416.53 L700.84 419.04 L705.53 419.53 L702.02 423.23 L702.92 425.20 L703.94 427.13 L703.10 429.71 L703.08 431.98 L705.47 433.46 L705.61 435.68 L708.03 437.20 L709.70 438.97 L709.12 441.41 L709.96 443.43 L710.04 445.65 L711.05 447.64 L714.63 449.02 L716.87 450.78 L719.61 452.46 L721.49 454.37 L722.01 456.57 L722.47 458.79 L724.57 460.71 L722.70 463.33 L723.42 465.51 L722.03 467.99 L722.16 470.24 L721.75 472.54 L722.78 474.68 L721.39 477.07 L721.76 479.27 L721.69 481.52 L721.84 483.74 L724.70 485.78 L724.49 488.05 L727.12 490.19 L727.48 492.45 L727.52 494.72 L728.35 496.99 L727.67 499.27 L726.21 501.54 L726.00 503.80 L725.92 506.06 L723.98 508.25 L722.47 510.42 L720.88 512.56 L719.86 514.71 L720.64 516.98 L722.80 519.39 L724.82 521.83 L725.13 524.14 L725.54 526.47 L726.95 528.94 L725.75 531.08 L727.93 533.71 L728.31 536.10 L727.43 538.29 L727.35 540.62 L726.62 542.84 L725.82 545.03 L726.10 547.44 L726.15 549.82 L725.63 552.07 L724.64 554.21 L723.05 556.20 L722.95 558.55 L723.79 561.17 L723.36 563.46 L724.78 566.30 L724.79 568.75 L721.93 570.31 L724.40 573.57 L720.08 574.60 L720.58 577.24 L722.42 580.39 L722.30 582.87 L725.28 586.55 L726.34 589.57 L723.51 591.04 L721.74 592.92 L718.71 594.23 L715.51 595.42 L715.27 597.90 L712.71 599.31 L713.44 602.27 L714.97 605.65 L714.29 608.00 L716.57 611.87 L715.03 613.81 L712.68 615.31 L712.15 617.78 L711.00 619.92 L710.28 622.31 L709.87 624.90 L706.53 625.72 L705.45 627.89 L702.38 628.81 L700.36 630.36 L699.16 632.43 L697.73 634.35 L696.03 636.08 L697.20 639.84 L695.10 641.30 L696.06 645.01 L695.15 647.37 L692.84 648.68 L692.26 651.32 L690.87 653.35 L688.90 654.90 L688.95 658.12 L688.43 660.92 L687.25 663.17 L685.55 664.99 L681.93 665.06 L678.97 665.67 L676.73 666.91 L674.79 668.41 L674.35 671.38 L675.31 675.81 L673.10 677.09 L673.69 681.29 L671.11 682.22 L667.70 682.20 L665.23 683.16 L662.52 683.82 L659.84 684.47 L659.15 687.43 L658.26 690.20 L657.34 692.99 L656.92 696.45 L654.83 697.86 L652.29 698.69 L649.54 699.19 L647.16 700.16 L645.95 702.72 L641.13 700.23 L636.17 697.35 L631.96 695.40 L631.93 699.63 L630.02 701.08 L635.92 714.89 L634.25 717.02 L634.37 722.15 L633.64 726.02 L631.67 727.86 L629.13 728.71 L628.21 732.49 L625.29 732.67 L623.88 735.65 L620.95 735.77 L618.03 735.86 L615.40 736.49 L612.21 735.91 L609.76 736.84 L606.85 736.72 L604.67 738.22 L601.78 738.08 L600.37 741.43 L597.62 741.61 L596.13 744.94 L593.46 745.33 L590.74 745.53 L588.05 745.81 L585.57 746.61 L583.04 747.29 L581.47 750.89 L578.33 749.70 L576.14 751.50 L573.16 750.65 L569.98 749.00 L567.96 751.44 L564.90 750.00 L562.37 750.54 L560.18 752.49 L557.19 751.07 L555.18 753.94 L552.36 753.13 L550.04 754.71 L547.40 754.70 L545.47 758.72 L542.70 758.03 L540.61 761.68 L537.81 760.79 L535.32 762.03 L532.70 762.37 L530.02 762.23 L527.32 761.82 L524.61 761.14 L521.85 759.53 L519.28 760.13 L516.64 759.69 L514.08 760.66 L511.50 761.40 L508.87 760.86 L506.28 761.99 L503.68 763.44 L501.05 764.92 L498.38 769.41 L495.69 769.18 L493.01 768.62 L490.36 767.43 L487.83 764.23 L485.12 765.30 L482.37 766.62 L479.74 766.04 L476.81 768.98 L474.09 769.04 L471.21 770.56 L468.25 772.47 L465.38 773.26 L462.89 771.12 L460.08 771.47 L457.83 768.11 L455.26 767.02 L452.50 767.05 L449.94 765.98 L446.87 767.55 L443.70 769.42 L440.85 769.54 L437.41 772.19 L434.84 770.94 L432.34 769.46 L430.07 767.14 L427.56 765.84 L425.16 764.23 L422.25 764.39 L419.57 763.71 L416.90 763.03 L414.17 762.49 L411.79 760.92 L409.25 759.82 L405.87 761.10 L403.26 760.16 L399.65 761.81 L396.15 763.04 L393.82 761.27 L390.58 761.71 L388.28 759.88 L385.94 758.17 L383.79 756.08 L381.46 754.42 L379.42 752.18 L377.40 749.96 L373.43 751.66 L371.38 749.48 L368.13 749.62 L366.52 746.67 L365.43 742.84 L363.08 741.37 L359.30 742.35 L356.65 741.31 L352.04 743.50 L348.66 743.54 L345.89 742.56 L342.59 742.36 L340.30 740.58 L339.18 737.09 L336.85 735.42 L334.86 733.27 L332.59 731.54 L330.22 729.94 L328.24 727.81 L326.20 725.79 L323.97 724.01 L321.62 722.39 L318.83 721.30 L316.66 719.44 L315.20 716.74 L312.28 715.76 L310.80 713.12 L309.82 709.96 L306.41 709.47 L306.29 705.44 L303.32 704.46 L300.00 703.79 L298.03 701.72 L294.95 700.74 L293.49 698.16 L291.85 695.78 L290.72 692.93 L289.43 690.26 L287.79 687.93 L285.26 686.36 L280.43 686.74 L277.53 685.41 L274.19 684.39 L272.53 681.99 L271.75 678.90 L270.46 676.23 L268.81 673.85 L267.70 671.08 L266.94 668.07 L264.90 666.00 L263.93 663.17 L262.02 660.99 L261.23 658.07 L260.30 655.26 L259.37 652.47 L258.40 649.72 L257.50 646.94 L255.66 644.74 L251.55 643.83 L245.65 643.87 L241.79 642.67 L236.19 642.33 L236.73 638.66 L234.99 636.21 L235.62 632.56 L236.33 628.93 L237.33 625.20 L237.21 622.04 L235.47 619.65 L233.53 617.33 L230.82 615.33 L230.15 612.43 L229.87 609.39 L228.99 606.61 L226.58 604.41 L226.31 601.39 L224.09 599.08 L222.51 596.53 L222.97 593.28 L219.23 591.42 L218.97 588.41 L216.90 585.96 L216.69 582.94 L215.90 580.09 L215.33 577.19 L213.78 574.54 L213.76 571.50 L214.34 568.33 L214.74 565.22 L214.18 562.35 L209.87 560.26 L205.78 558.04 L202.60 555.59 L198.07 553.31 L199.29 550.00 L198.51 547.04 L199.11 543.87 L199.57 540.74 L198.62 537.80 L197.14 534.92 L196.61 531.91 L195.92 528.91 L195.92 525.84 L195.66 522.80 L194.79 519.80 L195.39 516.70 L195.04 513.66 L194.80 510.62 L193.48 507.60 L189.76 504.59 L191.05 501.48 L188.40 498.37 L190.18 495.28 L190.68 492.20 L191.45 489.13 L191.20 486.03 L192.36 482.99 L190.41 479.78 L190.56 476.68 L189.55 473.48 L190.44 470.43 L191.37 467.40 L190.55 464.19 L192.26 461.26 L189.99 457.82 L189.21 454.55 L190.36 451.55 L190.20 448.34 L193.08 445.66 L196.25 443.09 L196.35 439.96 L196.72 436.87 L195.78 433.50 L193.94 429.88 L195.50 427.02 L196.13 423.95 L198.67 421.38 L200.67 418.70 L200.49 415.42 L201.15 412.37 L200.60 408.95 L199.59 405.35 L201.80 402.76 L199.43 398.65 L201.00 395.84 L202.09 392.86 L202.65 389.70 L204.01 386.82 L205.86 384.14 L206.23 380.88 L208.57 378.42 L208.41 374.92 L209.95 372.13 L211.49 369.35 L213.14 366.62 L213.96 363.51 L216.42 361.19 L216.98 357.93 L217.66 354.72 L221.26 353.03 L220.20 348.87 L223.23 346.92 L223.08 343.20 L222.45 339.15 L223.78 336.22 L223.63 332.37 L225.45 329.69 L227.35 327.07 L229.69 324.74 L230.97 321.73 L233.09 319.26 L233.25 315.46 L236.10 313.50 L237.02 310.18 L239.63 308.07 L241.50 305.43 L243.87 303.17 L246.27 300.95 L249.60 299.48 L251.65 297.01 L253.13 294.07 L255.15 291.57 L256.39 288.39 L259.47 286.81 L262.01 284.77 L264.92 283.09 L266.82 280.49 L267.13 276.34 L265.20 269.94 L267.68 267.76 L265.98 261.34 L270.79 261.52 L273.37 259.44 L275.93 257.33 L279.15 255.96 L282.64 254.95 L285.97 253.79 L288.96 252.26 L292.33 251.22 L295.02 249.39 L297.76 247.63 L300.38 245.74 L303.03 243.87 L304.92 241.01 L308.52 240.44 L309.89 236.83 L312.04 234.24 L313.95 231.27 L315.37 227.55 L317.11 224.22 L320.21 222.91 L322.99 221.14 L325.85 219.47 L329.53 219.18 L332.02 216.93 L334.97 215.46 L338.38 214.80 L341.51 213.69 L344.04 211.50 L345.70 207.60 L346.76 202.45 L348.45 198.35 L350.60 195.08 L354.42 195.18 L358.33 195.59 L361.60 194.67 L364.96 193.98 L368.05 192.69 L369.86 188.36 L373.13 187.42 L374.95 182.85 L377.58 180.19 L380.48 178.14 L383.24 175.70 L386.38 174.21 L389.31 172.13 L392.75 171.49 L395.86 169.86 L398.65 167.17 L401.98 166.15 L404.79 163.29 L407.85 161.20 L411.54 161.44 L414.81 160.09 L418.29 159.59 L422.15 160.75 L425.26 158.67 L429.07 159.83 L432.27 158.09 L435.71 157.54 L439.18 157.13 L442.42 155.41 L446.09 156.25 L449.35 154.56 L452.94 155.00 L456.24 153.34 L459.57 151.76 L462.91 149.99 L466.41 149.64 L469.86 148.66 L473.43 149.09 L476.95 148.94 L480.46 148.69 L483.99 149.04 L487.53 149.64 L491.05 150.19 L494.56 150.54 L498.04 149.12 L501.56 147.80 L505.10 146.15 L508.66 145.47 L512.15 147.28 L515.69 147.11 L519.06 150.15 L522.47 151.74 L526.00 151.29 L529.44 152.12 L533.12 150.32 L536.62 150.61 L539.95 152.41 L543.49 152.27 L546.94 152.91 L550.58 152.23 L554.51 149.79 L558.03 150.29 L562.03 147.98 L565.02 151.43 L569.10 149.09 L572.36 150.99 L576.48 148.83 L581.05 144.93 L585.27 142.94 L589.95 139.36 L593.81 139.29 L596.22 144.62 L598.19 151.24 L600.31 156.89 L602.33 162.54 L605.41 164.51 L608.77 165.55 L612.26 166.19 L615.95 166.31 L620.62 163.74 L624.81 162.73 L629.04 161.73 L632.78 162.10 L635.22 165.76 L638.23 167.90 L641.40 169.63 L644.23 172.12 L648.27 171.90 L653.03 170.18 L656.74 170.86 L662.19 167.99 L665.13 170.39 L669.16 170.61 L671.37 174.35 L671.14 182.54 L675.18 182.68 L677.09 186.66 L682.91 183.79 L687.95 182.45 L691.08 184.41 L693.34 187.76 L696.00 190.43 L698.69 193.02 L701.75 195.02 L705.34 196.23 L707.84 199.06 L711.32 200.48 L714.09 202.91 L718.11 203.61 L721.81 204.82 L725.66 205.87 L729.63 206.81 L732.44 209.26 L735.51 211.39 L739.66 212.23 L742.00 215.25 L745.41 217.03 L748.15 219.58 L750.47 222.60 L754.04 224.24 L756.32 227.29 L759.47 229.42 L762.25 231.94 L764.27 235.22 L768.06 236.74 L770.26 239.83 L773.84 241.62 L776.60 244.19 L778.31 247.72 L781.60 249.83 L783.32 253.32 L785.36 256.52 L788.17 259.06 L789.61 262.74 L792.53 265.19 L795.50 267.63 L797.33 270.97 L800.20 273.50 L801.75 277.03 L804.59 279.61 L806.41 282.93 L808.99 285.71 L812.05 288.17 L814.69 290.95 L817.46 293.65 L820.87 295.97 L821.83 299.85 L823.75 303.12 L825.33 306.59 L826.25 310.43 L828.54 313.47 L830.07 316.94 L831.62 320.39 L833.46 323.69 L834.19 327.55 L837.94 329.88 L836.12 334.99 L836.49 338.96 L842.22 340.40 L842.63 344.36 L853.07 343.86 L854.89 347.28 L856.52 350.79 L855.93 355.20 L857.07 358.88 L857.68 362.76 L858.90 366.40 L861.95 369.36 L863.17 373.02 L865.77 376.20 L866.03 380.18 L867.23 383.83 L869.05 387.31 L869.68 391.14 L873.26 394.13 L873.47 398.10 L874.90 401.72 L876.66 405.28 L877.03 409.18 L877.62 413.03 L878.55 416.79 L878.70 420.72 L879.98 424.41 L880.20 428.31 L880.50 432.19 L880.36 436.13 L882.54 439.69 L889.27 442.61 L892.45 446.15 L901.53 448.99 L902.25 452.98 L903.37 456.93 L904.16 460.93 L904.40 464.98 L904.96 469.01 L905.75 473.03 L905.73 477.10 L905.92 481.16 L906.24 485.22 L906.65 489.27 L908.53 493.31 L909.76 497.39 L913.79 500.00 L915.19 495.85 L915.14 491.70 L915.88 487.52 L916.46 483.33 L915.11 479.23 L915.44 475.04 L914.42 470.94 L914.05 466.80 L913.51 462.68 L913.10 458.55 L912.24 454.47 L911.88 450.34 L912.91 446.02 L915.11 441.50 L915.58 437.19 L916.99 432.71 L915.11 428.74 L914.04 424.66 L912.62 420.64 L911.55 416.57 L911.23 412.35 L909.71 408.38 L908.97 404.24 L907.38 400.31 L905.09 396.56 L905.27 392.19 L903.06 388.45 L902.75 384.19 L901.85 380.08 L899.66 376.37 L898.31 372.41 L895.59 368.90 L894.73 364.79 L893.08 360.95 L892.04 356.89 L891.36 352.69 L888.69 349.24 L886.05 345.81 L883.70 342.28 L880.35 339.19 L878.27 335.59 L883.25 328.85 L885.60 323.16 L883.60 319.41 L883.93 314.54 L874.34 314.53 L870.86 311.61 L867.94 308.45 L865.45 305.07 L864.41 300.92 L861.33 297.89 L859.86 293.96 L857.18 290.72 L853.87 287.88 L851.77 284.33 L848.55 281.48 L845.95 278.26 L845.08 273.91 L842.41 270.74 L840.54 267.02 L838.38 263.50 L834.47 261.22 L831.92 257.99 L828.41 255.49 L825.20 252.78 L823.57 248.87 L819.94 246.52 L819.02 242.02 L815.61 239.52 L812.26 236.99 L809.84 233.68 L806.10 231.53 L803.12 228.73 L800.97 225.19 L796.88 223.43 L795.07 219.55 L791.67 217.18 L787.95 215.15 L785.73 211.63 L781.02 210.65 L779.28 206.63 L775.73 204.49 L772.45 202.09 L769.83 198.97 L765.96 197.25 L762.85 194.68 L760.33 191.42 L756.45 189.79 L754.43 185.88 L750.64 184.15 L747.48 181.64 L744.35 179.10 L740.28 177.82 L737.66 174.59 L734.08 172.67 L730.56 170.68 L728.35 166.79 L724.20 165.73 L721.63 162.30 L717.65 161.03 L713.28 160.42 L709.05 159.64 L705.44 157.89 L700.85 157.82 L702.50 146.98 L697.95 146.78 L695.06 143.61 L690.78 143.01 L683.01 149.15 L679.83 146.67 L676.05 145.37 L672.29 144.06 L670.58 138.42 L666.39 137.95 L663.89 133.79 L660.61 131.27 L656.16 131.46 L652.56 129.70 L648.05 130.19 L643.51 130.87 L640.74 127.01 L636.92 125.83 L634.08 121.92 L630.39 120.30 L626.13 120.40 L621.96 120.29 L617.68 120.65 L613.49 120.78 L608.64 123.31 L604.18 124.72 L599.64 126.64 L595.32 127.94 L592.61 122.85 L589.76 118.03 L586.49 114.67 L583.91 107.86 L579.75 108.18 L576.12 105.91 L572.40 103.94 L568.00 105.76 L564.23 104.00 L560.19 103.88 L556.22 103.36 L552.34 102.08 L548.24 102.60 L544.18 102.86 L540.12 103.29 L536.21 102.34 L532.22 102.08 L528.20 102.35 L524.18 102.75 L520.10 104.58 L516.11 105.40 L512.16 105.15 L508.18 106.70 L504.25 106.73 L500.31 107.93 L496.40 109.29 L492.50 109.60 L488.63 110.84 L484.76 111.47 L480.87 111.60 L477.07 113.08 L473.10 111.96 L469.35 113.85 L465.49 114.18 L461.74 115.59 L457.96 116.54 L454.23 117.84 L450.31 117.59 L446.66 119.32 L442.76 119.24 L439.03 120.24 L435.41 121.90 L431.63 122.55 L428.13 124.70 L424.38 125.42 L420.75 126.72 L417.14 128.09 L413.21 128.01 L409.76 129.98 L406.03 130.74 L402.44 132.09 L399.17 134.56 L395.32 134.86 L391.77 136.24 L388.25 137.73 L384.38 138.07 L381.06 140.12 L377.69 141.98 L374.06 143.07 L371.12 146.07 L367.44 146.97 L364.13 148.87 L360.11 148.95 L354.38 144.93 L351.40 147.75 L345.18 143.01 L341.87 145.15 L338.24 146.56 L334.50 147.73 L332.20 151.91 L328.97 154.11 L324.23 153.30 L319.89 153.36 L315.12 152.72 L311.04 153.46 L308.40 156.83 L305.59 159.82 L302.63 162.53 L299.51 164.93 L296.74 167.88 L294.18 171.13 L290.79 173.02 L288.42 176.50 L285.41 178.96 L281.64 180.28 L278.58 182.66 L275.59 185.13 L271.30 185.81 L268.04 187.93 L264.68 189.93 L260.92 191.44 L258.34 194.48 L255.97 197.74 L253.02 200.26 L252.17 205.29 L249.21 207.76 L247.94 212.15 L246.32 216.08 L244.29 219.50 L242.86 223.53 L240.56 226.60 L239.24 230.66 L237.45 234.18 L231.69 233.73 L229.34 236.71 L222.61 235.51 L219.66 238.00 L217.92 241.61 L216.31 245.31 L214.53 248.82 L213.12 252.62 L209.81 254.79 L207.95 258.18 L204.93 260.61 L203.45 264.29 L202.57 268.41 L201.40 272.25 L200.03 275.91 L198.90 279.73 L197.84 283.56 L195.81 286.67 L194.28 290.13 L191.88 292.98 L190.33 296.41 L189.22 300.10 L188.14 303.79 L186.87 307.33 L184.43 310.16 L181.24 312.55 L177.44 314.63 L174.75 317.39 L170.35 319.23 L171.52 324.12 L168.86 326.93 L171.54 332.50 L171.79 336.74 L168.47 339.20 L167.55 342.84 L162.38 344.51 L160.84 347.89 L160.82 351.94 L160.01 355.61 L159.59 359.44 L158.50 362.97 L156.95 366.31 L157.65 370.51 L156.57 374.02 L156.87 378.01 L156.86 381.86 L156.47 385.55 L153.78 388.49 L154.05 392.38 L151.24 395.32 L151.80 399.27 L151.94 403.08 L152.02 406.84 L152.99 410.81 L152.44 414.36 L152.40 418.03 L151.61 421.51 L149.35 424.68 L148.75 428.22 L147.90 431.70 L147.57 435.29 L149.07 439.18 L148.59 442.71 L148.05 446.23 L147.81 449.80 L147.19 453.30 L147.58 456.94 L148.45 460.61 L148.11 464.13 L149.36 467.79 L148.00 471.22 L149.00 474.83 L148.37 478.31 L148.07 481.83 L149.06 485.40 L149.48 488.92 L149.96 492.44 L151.48 495.96 L150.53 499.44 L150.18 502.94 L150.38 506.44 L148.79 509.98 L150.14 513.44 L150.16 516.95 L151.31 520.39 L153.53 523.74 L153.67 527.21 L155.32 530.55 L155.63 534.00 L152.54 537.82 L153.31 541.24 L148.57 545.38 L150.62 548.67 L151.63 552.08 L150.35 555.86 L151.87 559.19 L148.98 563.30 L145.46 567.60 L144.07 571.56 L142.10 575.69 L141.43 579.58 L143.27 582.93 L144.98 586.28 L147.48 589.41 L148.98 592.78 L150.91 596.02 L152.78 599.25 L155.25 602.28 L157.38 605.39 L159.34 608.53 L160.06 612.05 L161.54 615.33 L163.75 618.34 L165.36 621.55 L168.61 624.14 L170.81 627.08 L168.65 631.73 L171.85 634.28 L171.92 638.09 L173.54 641.27 L175.66 644.22 L178.25 646.94 L179.88 650.08 L184.92 651.58 L188.00 653.96 L191.10 656.29 L193.87 658.76 L197.25 660.86 L201.51 662.45 L197.80 668.41 L197.76 672.41 L194.10 678.58 L193.77 682.90 L196.58 685.36 L200.19 687.30 L203.71 689.25 L206.86 691.39 L209.29 693.98 L212.13 696.27 L214.51 698.86 L218.05 700.61 L220.88 702.83 L224.34 704.56 L227.09 706.78 L229.83 708.99 L233.00 710.84 L236.86 712.10 L237.39 716.04 L238.59 719.47 L238.35 724.17 L238.28 728.81 L240.99 731.05 L244.31 732.72 L247.68 734.31 L251.15 735.76 L254.35 737.45 L257.30 739.33 L259.21 742.25 L262.09 744.18 L263.07 748.09 L266.53 749.42 L271.72 748.81 L273.02 752.42 L280.05 749.57 L281.92 752.50 L284.38 754.76 L287.80 755.86 L289.80 758.67 L292.32 760.86 L295.94 761.64 L298.86 763.28 L301.86 764.80 L304.68 766.55 L307.47 768.33 L310.91 769.17 L313.90 770.63 L317.57 771.06 L321.09 771.65 L323.67 773.65 L326.70 774.95 L329.68 776.32 L332.52 777.89 L335.81 778.71 L338.85 779.90 L341.17 782.36 L344.20 783.58 L347.06 785.08 L349.62 787.17 L352.78 788.11 L355.66 789.59 L358.40 791.36 L361.85 791.63 L365.24 792.00 L368.37 792.88 L371.90 792.81 L375.20 793.22 L378.11 794.52 L380.94 796.04 L384.14 796.60 L386.85 798.43 L390.43 797.97 L393.51 798.77 L396.28 800.48 L399.54 800.75 L402.33 802.41 L405.46 803.06 L408.94 802.49 L411.89 803.68 L414.98 804.36 L418.22 804.48 L421.23 805.45 L424.70 804.56 L427.94 804.49 L431.27 803.95 L433.85 806.76 L437.01 806.95 L439.67 809.73 L442.85 809.84 L446.14 809.31 L449.35 809.14 L452.67 808.18 L455.85 807.99 L458.89 808.68 L462.09 808.20 L465.10 809.19 L468.02 811.25 L471.08 812.15 L474.05 814.29 L476.90 818.51 L480.21 816.73 L483.13 821.80 L486.41 820.37 L489.66 819.28 L492.84 819.59 L496.05 818.42 L499.24 819.02 L502.44 820.12 L505.63 819.78 L508.82 819.42 L512.00 818.90 L515.17 818.29 L518.35 818.23 L521.50 817.48 L524.65 816.93 L527.69 815.20 L530.78 814.30 L533.74 812.34 L536.80 811.48 L539.80 810.18 L543.04 810.77 L545.85 808.33 L549.09 808.90 L552.47 810.14 L555.20 807.50 L558.72 809.33 L561.60 807.65 L564.68 807.05 L567.82 806.70 L571.20 807.40 L573.40 803.08 L576.63 803.11 L578.73 798.84 L581.57 797.50 L584.35 795.99 L586.19 791.38 L588.57 788.76 L592.37 790.75 L594.99 788.95 L599.80 793.65 L602.84 792.96 L605.64 791.57 L608.36 789.99 L610.83 787.78 L613.58 786.34 L616.78 786.05 L619.13 783.66 L622.03 782.60 L624.41 780.39 L626.23 776.99 L628.53 774.71 L630.49 771.79 L632.50 769.04 L635.39 768.12 L637.58 765.81 L640.78 765.46 L642.83 762.94 L644.97 760.64 L646.95 758.07 L648.69 755.17 L651.04 753.35 L656.04 755.87 L659.28 755.41 L666.03 760.39 L672.65 764.90 L675.65 763.70 L677.98 761.50 L677.00 754.54 L677.38 749.72 L677.50 744.67 L680.93 744.23 L683.28 742.29 L684.06 738.34 L686.91 737.08 L687.99 733.61 L690.91 732.44 L692.82 730.04 L695.17 728.17 L697.63 726.42 L699.02 723.46 L700.77 720.93 L701.93 717.80 L702.87 714.47 L705.34 712.77 L707.98 711.24 L710.15 709.22 L712.25 707.13 L713.59 704.31 L713.85 700.50 L714.77 697.37 L715.41 694.01 L716.17 690.82 L718.45 688.98 L720.17 686.65 L722.77 685.05 L726.07 684.01 L727.12 681.12 L729.43 679.24 L730.81 676.63 L730.59 672.83 L733.34 671.27 L734.92 668.84 L736.56 666.46 L738.80 664.49 L739.34 661.36 L739.59 658.06 L740.24 655.07 L740.58 651.90 L741.28 648.99 L742.89 646.65 L743.90 643.95 L746.71 642.30 L747.67 639.58 L748.80 636.95 L750.09 634.42 L749.33 630.81 L751.71 628.87 L753.08 626.39 L754.78 624.08 L756.50 621.75 L756.41 618.58 L755.95 615.28 L756.47 612.44 L755.64 609.04 L756.44 606.37 L756.87 603.55 L756.99 600.62 L759.22 598.51 L764.07 597.35 L766.14 595.10 L769.94 593.42 L772.54 591.28 L772.43 588.23 L774.34 585.82 L775.75 583.25 L776.27 580.40 L779.06 578.19 L780.60 575.60 L782.67 573.14 L783.41 570.31 L782.87 567.18 L782.50 564.12 L781.98 561.04 L781.53 558.00 L781.92 555.15 L781.57 552.16 L781.21 549.19 L781.46 546.34 L780.42 543.30 L781.19 540.54 L781.00 537.65 L780.64 534.75 L781.77 532.03 L783.83 529.39 L785.38 526.67 L790.09 524.19 L790.90 521.33 L791.66 518.45 L790.30 515.45 L788.24 512.46 L786.15 509.50 L783.65 506.58 L782.89 503.73 L781.14 500.90 L778.99 498.10 L778.38 495.32 L777.65 492.55 L775.48 489.85 L773.75 487.18 L775.31 484.34 L775.26 481.58 L778.08 478.60 L777.72 475.83 L776.93 473.11 L775.51 470.46 L775.15 467.71 L773.30 465.15 L773.04 462.41 L770.78 459.96 L770.21 457.28 L769.22 454.67 L767.82 452.15 L766.69 449.59 L765.11 447.14 L762.58 444.91 L763.76 441.90 L763.99 439.08 L764.94 436.06 L766.29 432.91 L764.72 430.48 L763.58 427.96 L761.18 425.80 L759.09 423.58 L758.06 421.07 L758.30 418.17 L757.51 415.57 L757.36 412.76 L756.82 410.07 L751.00 409.28 L753.25 405.60 L747.81 404.79 L745.97 402.66 L747.39 399.23 L745.50 397.12 L747.89 393.20 L747.81 390.28 L745.98 388.13 L744.47 385.86 L741.73 384.18 L740.02 382.03 L737.75 380.18 L734.67 378.78 L733.01 376.67 L730.72 374.91 L728.20 373.31 L727.45 370.73 L726.01 368.54 L724.35 366.49 L723.47 363.97 L721.15 362.33 L719.20 360.48 L717.80 358.29 L715.71 356.56 L713.71 354.79 L712.54 352.45 L710.39 350.81 L709.27 348.44 L707.33 346.66 L704.94 345.23 L702.55 343.83 L700.10 342.50 L697.75 341.13 L695.42 339.75 L697.00 335.14 L695.05 333.43 L695.03 330.04 L694.23 327.29 L693.46 324.48 L692.95 321.40 L692.96 317.76 L691.01 315.96 L687.80 315.39 L687.32 312.15 L685.00 310.73 L685.83 306.03 L683.91 304.16 L680.80 303.57 L676.51 304.34 L672.79 304.57 L668.91 305.06 L668.72 301.31 L666.81 299.52 L663.00 300.07 L661.22 298.16 L657.39 298.86 L655.97 296.52 L654.37 294.38 L653.13 291.73 L650.57 290.85 L648.37 289.51 L645.54 289.07 L644.10 286.63 L642.17 284.87 L640.15 283.26 L638.24 281.44 L635.13 281.55 L634.59 277.49 L632.26 276.31 L629.86 275.27 L626.19 276.50 L624.01 275.14 L622.40 272.71 L621.75 268.40 L620.41 265.28 L616.84 266.51 L613.43 267.56 L609.92 268.90 L606.63 269.92 L603.70 270.26 L601.20 269.67 L597.92 270.95 L595.38 270.55 L592.04 272.21 L589.02 273.18 L586.47 273.01 L583.42 274.26 L580.83 274.35 L579.55 270.75 L577.03 270.61 L575.57 267.28 L573.04 267.17 L569.86 269.24 L567.25 269.57 L564.52 270.42 L561.73 271.62 L559.72 269.93 L557.20 270.22 L554.77 270.20 L552.43 269.85 L549.88 270.47 L547.39 270.90 L544.94 271.26 L542.38 272.25 L539.99 272.45 L538.52 267.21 L536.12 267.30 L534.32 263.31 L531.66 265.10 L529.09 266.54 L526.63 267.40 L524.11 269.00 L521.73 269.46 L519.36 270.05 L516.99 270.81 L514.60 272.11 L512.34 271.57 L509.99 273.01 L507.71 273.20 L505.43 273.66 L503.15 274.99 L500.89 275.35 L498.64 274.67 L496.35 272.42 L494.08 272.34 L491.75 271.02 L489.54 272.80 L487.37 274.77 L485.16 275.48 L483.04 277.27 L480.82 277.59 L478.56 277.36 L476.48 278.95 L474.19 278.53 L472.17 280.32 L470.10 281.50 L468.17 283.53 L466.07 284.28 L464.25 286.62 L460.52 278.05 L456.88 270.85 L454.11 268.87 L450.85 264.80 L449.93 271.84 L448.59 276.42 L446.64 278.15 L444.97 280.86 L442.56 280.58 L440.37 281.14 L437.48 279.29 L434.92 278.71 L432.65 279.17 L430.88 281.22 L429.02 282.91 L427.22 284.72 L425.40 286.41 L423.27 287.16 L419.97 284.78 L415.15 278.64 L412.49 278.34 L409.69 277.78 L409.45 283.42 L410.17 291.04 L408.77 293.52 L406.63 294.25 L405.20 296.54 L402.33 295.74 L400.98 298.12 L399.21 299.60 L398.02 302.21 L397.11 305.24 L395.80 307.44 L394.62 309.83 L393.11 311.57 L391.91 313.82 L390.31 315.34 L388.47 316.46 L383.06 311.82 L379.04 309.62 L374.15 306.23 L370.68 305.18 L369.90 308.20 L368.13 309.72 L367.30 312.55 L366.73 315.68 L365.61 317.99 L364.89 320.79 L363.29 322.40 L362.82 325.42 L361.32 327.11 L360.36 329.43 L359.71 332.09 L357.97 333.43 L357.23 335.91 L356.21 338.03 L355.44 340.40 L355.30 343.43 L354.85 346.06 L349.64 343.70 L347.77 344.89 L342.12 342.31 L339.23 342.61 L338.07 344.61 L336.97 346.66 L336.17 348.97 L335.52 351.38 L335.26 354.11 L334.67 356.51 L334.05 358.86 L334.04 361.69 L333.67 364.17 L333.04 366.42 L332.62 368.81 L331.11 370.33 L330.55 372.57 L328.88 373.98 L328.75 376.50 L328.34 378.80 L327.00 380.42 L326.54 382.65 L327.02 385.48 L327.14 388.04 L328.42 391.29 L329.12 394.10 L325.91 394.51 L322.78 395.02 L320.06 395.83 L317.54 396.79 L317.62 399.23 L317.91 401.76 L317.92 404.10 L317.04 405.96 L316.21 407.84 L314.54 409.32 L313.60 411.15 L312.58 412.96 L311.89 414.91 L311.32 416.92 L311.30 419.15 L311.57 421.49 L311.84 423.80 L312.64 426.30 L312.92 428.56 L312.98 430.72 L312.96 432.83 L313.08 434.97 L312.54 436.88 L313.23 439.19 L312.70 441.08 L312.25 443.00 L312.52 445.12 L311.85 446.96 L308.92 448.19 L308.89 450.23 L306.00 451.54 L306.12 453.63 L306.70 455.80 L307.09 457.92 L301.11 458.69 L301.79 460.90 L297.67 462.18 L299.02 464.51 L302.44 467.15 L304.57 469.51 L306.62 471.81 L307.82 473.94 L307.99 475.92 L308.22 477.89 L308.32 479.84 L307.72 481.72 L306.13 483.52 L305.76 485.45 L304.98 487.35 L305.87 489.36 L306.77 491.34 L307.39 493.30 L308.13 495.24 L308.80 497.17 L309.99 499.09 L310.56 500.99 L311.37 502.87 L311.60 504.75 L311.94 506.63 L312.61 508.48 L313.47 510.31 L314.96 512.09 L316.02 513.87 L316.98 515.64 L317.45 517.44 L318.80 519.14 L319.17 520.93 L320.38 522.61 L321.37 524.30 L321.55 526.10 L322.69 527.74 L322.54 529.59 L323.30 531.28 L322.89 533.18 L324.50 534.70 L325.28 536.37 L327.38 537.74 L329.96 538.96 L331.58 540.36 L332.90 541.82 L334.12 543.28 L334.16 545.05 L335.35 546.49 L335.83 548.14 L336.81 549.63 L337.60 551.17 L338.51 552.66 L339.39 554.16 L340.19 555.67 L341.29 557.08 L341.79 558.69 L342.68 560.15 L343.55 561.62 L343.28 563.55 L343.07 565.47 L343.44 567.16 L342.12 569.60 L343.90 570.69 L344.02 572.52 L345.99 573.49 L346.42 575.18 L348.21 576.19 L347.77 578.33 L348.80 579.72 L349.54 581.27 L350.98 582.42 L350.82 584.47 L352.39 585.54 L352.43 587.50 L353.33 588.96 L354.95 589.97 L356.07 591.29 L356.76 592.87 L357.98 594.11 L358.17 596.04 L359.69 597.07 L360.60 598.52 L362.18 599.48 L362.48 601.38 L364.15 602.26 L364.42 604.19 L366.77 604.52 L368.11 605.62 L367.96 607.92 L368.17 609.97 L368.09 612.29 L369.25 613.58 L372.05 613.41 L374.80 613.23 L376.48 613.98 L379.19 613.73 L380.04 615.21 L382.46 615.17 L379.87 620.09 L374.73 627.75 L375.16 629.89 L374.48 633.24 L379.67 630.31 L385.22 626.83 L387.18 627.19 L388.33 628.47 L388.82 630.51 L390.26 631.46 L391.96 632.09 L394.65 631.46 L397.23 630.91 L397.61 633.14 L398.83 634.31 L399.05 636.84 L400.61 637.60 L403.56 636.36 L405.40 636.64 L406.55 637.90 L408.33 638.23 L408.95 640.32 L411.19 639.92 L413.00 640.15 L413.80 642.00 L414.81 643.56 L415.42 645.84 L416.80 646.81 L419.23 645.91 L421.04 646.06 L422.19 647.45 L423.82 647.92 L424.91 649.45 L427.36 648.25 L428.98 648.70 L430.00 650.40 L431.26 651.65 L432.61 652.73 L434.33 652.95 L436.97 650.93 L439.51 649.04 L440.21 651.64 L442.49 650.25 L443.20 652.95 L445.14 652.38 L443.93 660.76 L445.73 660.75 L446.21 664.76 L448.70 662.62 L451.85 658.13 L454.59 654.66 L456.53 653.74 L457.21 657.33 L458.72 657.97 L459.36 662.17 L461.18 661.71 L463.46 659.25 L465.86 655.90 L467.37 656.51 L469.12 655.87 L470.40 657.67 L472.09 657.30 L474.04 655.35 L475.15 658.43 L477.07 656.41 L478.35 658.71 L480.12 657.47 L481.95 655.50 L483.44 656.30 L484.99 656.53 L486.51 657.31 L488.14 656.59 L489.82 655.00 L491.56 651.72 L492.95 654.53 L494.56 652.84 L496.04 654.72 L497.60 654.40 L499.15 652.74 L500.69 655.56 L502.23 654.69 L503.81 655.98 L505.31 654.26 L506.72 651.15 L508.26 651.58 L509.81 652.02 L511.42 653.12 L513.00 653.63 L514.53 653.41 L517.08 662.92 L518.58 661.65 L520.78 666.18 L521.82 661.35 L522.44 654.26 L523.68 652.09 L524.84 649.68 L526.75 651.82 L528.23 651.32 L529.87 651.67 L531.10 649.99 L532.36 648.61 L534.31 650.32 L535.37 648.10 L537.68 651.09 L538.17 646.79 L539.37 645.40 L540.85 645.10 L542.06 643.87 L544.07 645.34 L545.13 643.64 L546.26 642.25 L548.47 644.12 L550.23 644.56 L553.04 647.85 L554.16 646.37 L555.11 644.46 L554.97 639.88 L557.05 641.02 L557.62 638.44 L559.88 639.89 L560.21 636.86 L559.85 632.44 L562.93 635.63 L563.48 633.30 L566.41 635.93 L567.09 633.93 L566.79 630.05 L566.23 625.86 L568.28 626.67 L568.09 623.34 L570.94 625.51 L571.28 623.23 L571.34 620.54 L574.95 623.79 L579.91 629.05 L581.45 628.65 L585.05 631.41 L581.64 623.41 L579.59 617.74 L578.05 613.01 L577.69 610.11 L578.27 608.62 L578.48 606.65 L579.14 605.32 L578.90 602.84 L578.80 600.61 L578.23 597.86 L578.63 596.35 L578.85 594.68 L579.73 593.81 L580.27 592.55 L580.78 591.28 L581.04 589.75 L581.53 588.50 L582.21 587.47 L583.02 586.57 L583.94 585.80 L584.11 584.27 L584.56 583.05 L584.62 581.46 L585.46 580.64 L586.63 580.12 L587.28 579.12 L587.79 578.00 L587.91 576.54 L587.63 574.77 L588.38 573.90 L589.04 572.94 L589.99 572.23 L590.42 571.11 L590.65 569.83 L590.58 568.34 L591.13 567.34 L592.03 566.59 L592.71 565.68 L593.38 564.76 L593.24 563.29 L593.00 561.78 L593.50 560.78 L594.24 559.92 L595.13 559.16 L595.45 558.04 L595.28 556.65 L594.94 555.16 L595.14 554.02 L595.76 553.11 L596.72 552.38 L597.01 551.29 L597.17 550.14 L596.95 548.80 L597.17 547.71 L597.50 546.66 L598.25 545.82 L598.58 544.78 L598.71 543.65 L598.48 542.38 L598.92 541.40 L599.10 540.32 L599.77 539.43 L599.80 538.29 L599.95 537.21 L599.55 535.93 L599.64 534.84 L599.45 533.66 L599.69 532.64 L599.83 531.58 L599.99 530.53 L599.50 529.30 L599.97 528.35 L599.78 527.22 L598.77 525.89 L598.61 524.80 L596.98 523.36 L596.31 522.18 L596.33 521.18 L596.17 520.13 L596.13 519.12 L596.03 518.11 L595.90 517.09 L595.89 516.10 L595.77 515.10 L595.58 514.09 L595.37 513.09 L595.29 512.11 L595.09 511.12 L594.96 510.14 L594.76 509.16 L594.69 508.20 L594.67 507.24 L594.67 506.29 L594.51 505.33 L594.17 504.37 L594.01 503.42 L593.54 502.47 L593.49 501.53 L593.08 500.59 Z"/>
  <svg class="pausebutton" id="pausebutton">
    <circle cx="500" cy="500" id="pausestart" class="pausestart" r="52.65"/>
    <rect height="50.02" width="10.00" y="473.68" rx="2.00" ry="2.00" x="479.99" class="pausesymbol"/>
    <rect height="50.02" width="10.00" y="473.68" rx="2.00" ry="2.00" x="510.00" class="pausesymbol"/>
    <polygon points="530.01,500 479.99,530.01 479.99,469.99" class="playsymbol"/>
  </svg>
  <polygon id="playback-head" class="playback-head" points="912.475,500 892.475,540 932.475,540"/>
</svg>