<?xml-stylesheet href="../../style/waveformjs.css" type="text/css"?>
<svg xmlns="http://www.w3.org/2000/svg" xmlns:xlink="http://www.w3.org/1999/xlink" width="100%" height="100%" viewBox="0 0 1000 1000">
  <path class="svg-wave" id="sp" d="M553.81 500.00 L557.49 500.57 L554.86 501.10 L557.86 501.74 L557.13 502.29 L559.56 502.98 L559.58 503.58 L559.34 504.16 L555.85 504.48 L554.82 504.95 L554.45 505.46 L555.98 506.18 L556.13 506.77 L556.98 507.45 L557.34 508.08 L559.44 508.98 L562.11 510.02 L563.36 510.88 L564.99 511.83 L565.69 512.63 L565.92 513.36 L564.82 513.82 L563.90 514.29 L562.93 514.73 L563.12 515.45 L562.56 515.98 L561.32 516.31 L562.08 517.18 L561.77 517.76 L564.24 519.17 L567.33 520.83 L570.12 522.46 L570.57 523.38 L570.60 524.18 L568.86 524.36 L568.18 524.89 L566.63 525.08 L565.31 525.33 L565.72 526.25 L565.33 526.85 L567.88 528.70 L568.22 529.65 L568.11 530.42 L567.52 530.96 L566.47 531.29 L563.70 530.77 L565.04 532.22 L565.51 533.27 L567.80 535.30 L570.86 537.79 L570.76 538.65 L570.01 539.16 L568.70 539.34 L566.23 538.81 L563.84 538.26 L563.20 538.75 L562.29 539.05 L561.98 539.73 L561.65 540.39 L561.81 541.39 L562.76 542.93 L564.93 545.38 L564.89 546.33 L565.34 547.64 L562.96 546.87 L562.07 547.19 L559.57 546.23 L561.38 548.63 L561.10 549.41 L564.70 553.40 L564.93 554.69 L564.63 555.55 L563.81 555.97 L562.23 555.69 L560.44 555.19 L558.88 554.85 L557.06 554.23 L556.04 554.34 L555.36 554.76 L554.76 555.26 L555.67 557.32 L556.29 559.13 L557.32 561.43 L557.30 562.65 L556.65 563.20 L555.95 563.69 L554.00 562.72 L552.53 562.26 L553.51 564.73 L553.29 565.79 L555.27 569.65 L556.02 572.06 L555.64 573.07 L554.15 572.61 L552.73 572.20 L550.79 571.03 L548.97 569.94 L548.60 570.92 L546.59 569.47 L546.54 570.91 L545.24 570.46 L545.46 572.39 L545.95 574.82 L546.19 576.92 L545.75 577.95 L545.09 578.60 L543.31 577.29 L541.85 576.46 L541.08 576.87 L541.50 579.55 L541.34 581.22 L542.94 586.50 L541.54 585.82 L541.16 587.25 L539.50 585.96 L538.67 586.40 L536.72 584.30 L535.42 583.59 L534.18 582.96 L533.11 582.72 L532.55 583.72 L531.27 582.89 L531.48 586.03 L531.14 587.81 L530.95 590.12 L530.16 590.77 L529.33 591.32 L528.11 590.61 L526.72 589.28 L525.97 590.03 L525.47 591.73 L525.04 593.84 L525.06 597.82 L524.47 599.67 L523.09 598.24 L522.27 599.21 L520.42 595.44 L519.42 595.43 L517.96 592.97 L517.27 594.48 L515.92 592.30 L515.43 595.16 L514.31 594.16 L513.93 598.29 L512.89 597.96 L512.35 601.70 L511.24 601.03 L510.31 601.90 L509.09 599.79 L508.16 600.75 L507.21 601.67 L506.10 600.29 L505.17 601.69 L504.06 599.41 L503.04 598.55 L502.07 599.55 L501.11 603.19 L500.08 604.89 L499.00 608.79 L497.91 608.57 L496.85 607.92 L495.80 606.97 L494.80 605.60 L493.77 605.03 L492.83 603.41 L491.90 602.04 L490.86 602.24 L489.92 601.29 L488.71 602.96 L487.65 603.10 L486.32 605.32 L485.30 604.94 L483.90 607.10 L483.12 605.13 L483.33 597.55 L483.02 593.72 L483.52 586.05 L484.44 577.08 L482.73 581.34 L480.76 586.38 L478.32 592.93 L474.62 604.06 L473.29 604.95 L472.03 605.47 L470.51 606.90 L468.82 608.77 L467.84 608.09 L466.37 609.03 L466.25 605.66 L464.34 607.90 L464.23 604.69 L462.94 605.03 L462.47 603.06 L462.41 600.10 L460.90 601.04 L460.30 599.63 L458.51 601.16 L457.11 601.66 L455.24 603.20 L453.27 604.88 L452.56 603.66 L451.17 603.93 L452.61 598.30 L454.58 591.85 L453.65 591.42 L459.30 578.33 L458.07 578.76 L453.76 584.80 L453.06 584.07 L443.76 598.41 L441.86 599.41 L440.17 599.99 L438.25 600.90 L436.53 601.41 L436.34 599.50 L434.99 599.41 L434.31 598.28 L433.04 598.04 L432.12 597.28 L431.36 596.30 L431.11 594.64 L428.94 595.61 L428.22 594.58 L427.64 593.39 L428.12 590.88 L429.82 586.93 L426.20 589.56 L426.10 587.88 L422.11 590.77 L421.43 589.72 L425.49 583.39 L425.49 581.73 L429.21 576.11 L432.90 570.71 L428.53 573.82 L428.32 572.57 L419.65 579.74 L414.28 583.38 L411.35 584.52 L408.44 585.57 L407.62 584.63 L405.67 584.68 L405.05 583.55 L406.08 580.98 L406.04 579.39 L404.88 578.76 L404.56 577.43 L402.87 577.20 L401.59 576.62 L401.66 575.00 L399.23 575.28 L399.02 573.88 L397.59 573.36 L394.42 574.04 L394.91 572.14 L392.43 572.27 L392.76 570.51 L391.69 569.67 L398.89 563.62 L397.70 562.94 L404.50 557.45 L410.19 552.81 L403.74 555.32 L401.19 555.48 L392.64 558.87 L382.25 563.05 L381.19 562.09 L380.58 560.90 L380.12 559.63 L384.53 556.00 L386.90 553.47 L386.76 552.15 L387.60 550.41 L385.63 549.93 L382.56 549.87 L386.66 546.80 L384.02 546.54 L390.47 542.68 L389.82 541.67 L391.54 539.79 L390.18 539.04 L381.67 540.74 L379.00 540.31 L373.87 540.63 L372.41 539.69 L376.70 537.01 L379.57 534.84 L383.17 532.53 L393.50 528.51 L393.81 527.29 L383.49 528.71 L384.77 527.17 L366.56 530.06 L366.76 528.62 L366.86 527.21 L366.93 525.81 L365.28 524.74 L363.81 523.60 L360.48 522.74 L356.99 521.85 L356.18 520.50 L356.69 518.97 L356.55 517.53 L358.21 515.89 L358.51 514.42 L359.78 512.88 L363.44 511.17 L365.62 509.64 L366.28 508.25 L362.64 507.09 L358.04 505.91 L355.13 504.58 L353.93 503.15 L360.30 501.62 L365.32 500.21 L369.05 498.90 L380.05 497.79 L379.93 496.59 L371.50 495.06 L372.16 493.81 L356.95 491.64 L359.09 490.35 L358.67 488.90 L360.38 487.62 L361.75 486.35 L361.47 484.92 L358.96 483.22 L356.99 481.53 L358.19 480.25 L355.93 478.46 L362.21 477.99 L361.82 476.51 L360.20 474.79 L361.38 473.57 L357.81 471.41 L358.77 470.13 L360.51 469.04 L362.22 467.97 L364.08 466.97 L364.53 465.64 L367.03 464.85 L370.85 464.48 L371.83 463.36 L383.16 465.34 L379.76 463.01 L371.98 459.22 L371.81 457.74 L355.65 450.81 L357.21 449.75 L358.60 448.64 L358.03 446.82 L358.50 445.38 L355.80 442.67 L355.87 441.02 L354.62 438.81 L356.36 437.84 L356.72 436.29 L357.92 435.11 L359.65 434.20 L360.91 433.09 L362.19 431.99 L362.92 430.64 L364.22 429.58 L363.31 427.37 L363.81 425.88 L364.15 424.30 L362.41 421.51 L368.23 423.07 L372.92 424.10 L376.02 424.26 L386.54 429.12 L388.87 429.02 L379.46 421.30 L383.74 422.43 L369.56 411.07 L371.46 410.47 L371.83 408.81 L371.19 406.40 L371.30 404.50 L369.83 401.37 L370.05 399.48 L370.94 398.09 L371.36 396.31 L374.00 396.34 L376.35 396.18 L378.37 395.79 L380.73 395.73 L381.20 394.02 L382.20 392.79 L383.31 391.64 L383.67 389.79 L384.63 388.48 L383.75 385.37 L385.23 384.53 L385.05 382.02 L389.84 384.65 L395.99 388.88 L397.32 388.09 L406.86 396.42 L410.13 398.03 L405.23 390.28 L407.02 390.14 L398.24 377.30 L396.78 372.98 L396.99 370.61 L397.57 368.67 L397.93 366.40 L398.16 363.89 L399.40 362.72 L401.04 362.08 L403.48 362.60 L403.58 359.79 L407.20 362.12 L407.46 359.49 L410.25 360.71 L411.60 359.74 L414.40 361.13 L414.44 358.04 L416.25 357.84 L416.03 354.15 L416.23 351.07 L417.17 349.24 L419.04 349.08 L421.08 349.30 L426.11 355.40 L428.44 356.43 L433.43 363.03 L438.00 369.11 L438.44 366.62 L437.44 360.79 L437.09 356.19 L433.14 342.92 L434.33 341.33 L435.64 339.98 L435.95 336.03 L437.78 335.88 L438.96 334.02 L441.34 335.41 L442.48 333.37 L444.20 332.96 L445.69 331.85 L447.50 331.71 L449.58 332.51 L451.08 331.41 L453.04 331.89 L454.71 331.36 L456.94 333.03 L459.13 334.71 L459.85 330.35 L462.10 332.41 L462.93 328.09 L465.29 330.82 L468.33 337.41 L470.31 339.01 L473.27 346.47 L475.58 350.92 L475.13 338.05 L477.73 344.63 L476.68 324.89 L478.75 327.28 L479.87 321.66 L481.50 319.96 L483.03 316.87 L484.84 316.38 L486.82 318.24 L488.66 318.45 L490.59 320.59 L492.33 319.06 L494.17 319.97 L495.93 318.37 L497.75 318.26 L499.57 320.76 L501.38 318.09 L503.16 320.87 L505.05 317.21 L506.95 315.39 L508.83 314.75 L510.61 316.08 L512.41 316.72 L513.95 320.57 L515.16 327.38 L516.97 326.69 L517.50 338.01 L518.74 341.37 L521.49 332.50 L522.88 334.75 L526.90 319.10 L529.00 317.51 L530.56 319.37 L532.56 318.60 L534.44 318.60 L536.37 318.34 L538.95 315.11 L540.65 316.14 L541.76 319.69 L543.17 321.73 L544.58 323.66 L545.39 327.74 L548.14 324.44 L549.52 326.24 L552.04 324.09 L554.15 323.45 L557.05 320.44 L559.54 318.88 L562.30 316.68 L564.27 316.92 L565.80 318.40 L564.12 328.40 L564.66 332.10 L563.65 339.53 L561.45 349.49 L566.23 342.31 L568.99 340.23 L573.88 333.50 L579.98 324.50 L582.05 324.62 L583.07 326.97 L584.82 327.78 L587.22 327.27 L589.35 327.37 L592.50 325.57 L595.98 323.30 L597.88 324.02 L599.98 324.42 L600.54 327.46 L602.38 328.28 L602.46 331.99 L604.19 332.92 L602.77 338.83 L604.01 340.42 L605.66 341.38 L609.97 338.42 L614.06 335.97 L617.50 334.58 L618.71 336.37 L614.14 345.92 L614.26 348.95 L610.73 356.62 L605.87 365.71 L610.15 363.12 L614.56 360.52 L620.29 356.49 L631.37 346.41 L632.28 348.46 L632.81 350.88 L634.78 351.68 L637.84 351.33 L640.58 351.38 L645.03 349.72 L645.98 351.73 L646.78 353.87 L645.39 358.11 L645.89 360.45 L644.93 364.12 L646.78 365.12 L649.24 365.58 L650.74 366.94 L654.02 366.76 L655.87 367.86 L655.89 370.50 L654.94 373.89 L653.47 377.61 L650.31 382.57 L650.04 385.18 L650.37 387.29 L643.03 395.01 L649.69 392.41 L654.37 391.37 L661.03 389.08 L673.32 383.15 L673.88 385.28 L674.06 387.65 L676.18 388.76 L677.72 390.26 L681.27 390.56 L683.24 391.85 L685.95 392.75 L687.32 394.44 L687.69 396.69 L688.16 398.86 L687.89 401.42 L687.77 403.87 L689.48 405.37 L688.77 408.07 L691.17 409.26 L692.11 411.15 L693.39 412.90 L695.42 414.32 L697.95 415.56 L691.15 420.71 L691.42 422.83 L685.06 427.54 L678.92 432.00 L680.99 433.28 L688.80 432.54 L690.34 434.13 L699.42 433.21 L696.67 436.31 L695.72 438.77 L697.85 440.27 L704.37 440.53 L707.83 441.77 L711.32 443.06 L711.45 445.29 L712.46 447.29 L711.60 449.74 L711.28 452.05 L710.57 454.42 L709.46 456.84 L711.02 458.72 L711.80 460.76 L712.97 462.74 L713.96 464.77 L714.71 466.85 L716.50 468.79 L716.06 471.05 L719.56 472.82 L713.15 475.77 L708.75 478.38 L706.02 480.75 L693.94 483.83 L693.95 485.78 L704.38 487.07 L702.64 489.21 L720.81 490.46 L720.28 492.69 L722.15 494.85 L722.96 497.06 L725.47 499.28 L726.90 501.55 L726.61 503.81 L725.17 506.04 L725.41 508.30 L725.48 510.56 L722.62 512.66 L722.97 514.92 L720.37 516.96 L721.74 519.30 L720.55 521.42 L722.50 523.86 L721.90 526.04 L723.25 528.46 L725.16 531.00 L725.11 533.29 L725.02 535.58 L721.45 537.29 L713.91 538.22 L712.03 540.08 L702.18 540.31 L695.82 541.09 L700.53 544.17 L702.34 546.70 L711.50 551.05 L720.43 555.54 L722.35 558.39 L722.03 560.69 L723.71 563.56 L722.06 565.50 L722.87 568.17 L721.24 570.09 L721.37 572.58 L720.43 574.72 L718.90 576.65 L717.69 578.68 L717.10 580.93 L717.31 583.49 L716.22 585.56 L714.53 587.38 L711.24 588.52 L710.07 590.51 L709.74 592.87 L711.00 595.96 L712.19 599.07 L707.23 599.29 L703.17 599.86 L699.30 600.44 L689.01 597.63 L687.71 599.36 L694.79 605.61 L692.79 607.03 L705.13 616.59 L703.89 618.59 L704.52 621.71 L703.88 624.11 L703.43 626.64 L702.32 628.77 L699.39 629.73 L697.18 631.12 L694.95 632.46 L694.76 635.20 L692.62 636.59 L692.62 639.50 L690.40 640.82 L688.84 642.61 L688.30 645.18 L686.07 646.45 L687.63 650.74 L687.58 653.82 L685.97 655.63 L684.63 657.67 L683.60 660.00 L677.04 657.42 L672.78 656.76 L670.33 657.67 L659.11 650.26 L659.98 654.15 L662.49 659.73 L662.16 662.62 L669.90 673.82 L669.64 677.06 L667.04 677.88 L664.37 678.58 L661.71 679.25 L656.31 676.80 L653.99 677.72 L653.72 681.04 L651.15 681.66 L651.56 685.91 L646.55 683.47 L640.45 679.49 L639.10 681.47 L635.12 679.98 L635.91 684.85 L636.15 689.11 L636.31 693.39 L636.32 697.56 L635.50 700.64 L635.28 704.70 L632.34 704.68 L627.77 702.00 L625.23 702.44 L617.08 693.57 L612.69 690.58 L615.65 700.14 L613.30 700.67 L618.70 715.23 L618.63 720.29 L616.07 720.80 L613.81 721.86 L611.09 722.00 L610.26 725.96 L608.27 727.63 L607.63 732.24 L605.79 734.39 L604.03 736.77 L601.16 736.64 L598.56 737.08 L595.71 736.89 L592.48 735.64 L589.81 735.75 L585.48 731.31 L583.54 733.21 L581.73 735.56 L580.54 739.85 L579.67 745.34 L577.86 748.21 L574.23 745.19 L569.95 739.65 L566.50 736.61 L562.05 729.58 L558.05 723.62 L557.20 729.76 L554.97 730.62 L555.44 743.36 L554.10 748.97 L551.88 750.82 L549.15 750.19 L546.44 749.57 L544.09 750.84 L542.07 754.27 L539.22 752.71 L536.99 755.10 L534.02 752.37 L531.48 752.58 L528.92 752.65 L526.30 751.97 L523.78 752.30 L521.15 751.27 L518.86 754.41 L516.43 756.47 L514.05 760.10 L511.52 761.70 L508.78 758.35 L506.11 754.86 L503.49 749.79 L500.99 747.77 L498.54 742.91 L496.22 736.26 L493.57 747.11 L491.20 744.30 L488.04 759.64 L485.09 765.81 L482.62 762.95 L479.87 764.27 L477.29 763.37 L474.34 766.47 L471.66 766.30 L468.49 770.39 L465.94 768.84 L463.19 768.96 L460.74 766.95 L458.22 765.59 L455.84 763.52 L453.23 762.97 L450.79 761.47 L448.02 761.78 L445.27 761.89 L442.43 762.34 L439.77 761.94 L436.77 762.92 L434.44 761.10 L433.49 754.07 L431.90 749.93 L431.20 742.90 L431.27 733.72 L426.71 740.31 L423.69 741.53 L418.73 748.54 L413.01 757.29 L410.84 755.29 L407.93 755.39 L404.84 755.89 L401.67 756.54 L397.93 758.54 L395.28 757.67 L392.43 757.27 L390.49 754.72 L388.70 751.93 L386.57 749.96 L384.99 746.84 L382.56 745.60 L380.47 743.69 L378.12 742.33 L375.15 742.17 L372.55 741.25 L368.93 742.20 L366.08 741.67 L363.47 740.67 L360.85 739.68 L362.40 731.64 L361.16 728.49 L363.03 720.41 L365.52 711.66 L362.79 711.26 L356.51 716.16 L352.17 717.94 L342.06 727.91 L338.76 727.76 L336.65 725.92 L333.49 725.51 L329.67 725.92 L327.44 724.18 L324.44 723.42 L323.53 720.01 L321.21 718.39 L319.71 715.79 L317.82 713.67 L316.29 711.14 L315.86 707.42 L312.96 706.49 L311.57 703.88 L307.60 704.05 L305.59 702.09 L301.73 702.03 L298.72 701.03 L297.03 698.70 L296.12 695.64 L296.93 691.00 L299.39 684.94 L299.34 681.31 L304.75 672.91 L305.71 668.62 L295.57 673.87 L295.91 670.09 L280.16 679.52 L278.34 677.34 L274.35 676.86 L272.37 674.77 L268.19 674.32 L267.53 671.20 L265.71 668.96 L264.16 666.51 L262.25 664.32 L260.42 662.07 L260.45 658.59 L259.40 655.84 L256.85 654.07 L254.79 651.96 L253.77 649.20 L253.19 646.20 L255.57 641.51 L250.92 640.89 L249.82 638.23 L245.34 637.40 L242.69 635.53 L248.84 629.09 L251.72 624.49 L255.63 619.49 L264.74 612.13 L254.60 613.97 L251.21 612.53 L241.89 613.65 L231.83 614.89 L230.82 612.15 L226.90 610.60 L225.64 607.93 L222.42 606.00 L222.69 602.73 L223.69 599.23 L222.85 596.41 L223.27 593.17 L220.79 590.91 L220.66 587.88 L218.25 585.55 L217.54 582.69 L215.31 580.26 L215.04 577.26 L214.43 574.37 L211.20 572.14 L210.85 569.16 L208.14 566.73 L207.91 563.72 L208.20 560.60 L216.94 555.84 L215.98 553.09 L222.43 549.01 L233.62 544.30 L227.86 542.46 L224.95 540.10 L217.84 538.26 L202.67 537.29 L202.30 534.32 L201.48 531.39 L201.53 528.37 L199.84 525.51 L197.22 522.68 L196.55 519.68 L198.17 516.55 L200.30 513.43 L201.34 510.39 L205.70 507.29 L206.52 504.34 L205.70 501.41 L206.60 498.47 L203.00 495.48 L200.95 492.46 L198.61 489.38 L194.98 486.20 L194.78 483.13 L192.70 479.93 L200.25 477.41 L205.62 474.85 L210.08 472.31 L223.13 470.76 L223.05 467.95 L213.17 463.89 L215.07 461.23 L196.35 455.59 L196.55 452.52 L198.53 449.73 L198.63 446.65 L200.53 443.89 L197.38 440.16 L197.78 437.09 L193.02 432.89 L193.08 429.68 L193.36 426.51 L194.73 423.60 L196.81 420.89 L199.00 418.24 L200.54 415.44 L204.19 413.26 L209.18 411.56 L209.06 408.33 L208.61 404.98 L204.53 400.37 L202.01 396.19 L202.46 393.00 L209.21 392.13 L215.40 391.18 L221.73 390.39 L231.01 390.93 L236.62 390.13 L225.20 382.12 L230.16 381.04 L211.66 369.42 L214.77 367.38 L216.02 364.49 L218.73 362.31 L217.39 358.14 L218.65 355.23 L215.05 349.75 L216.28 346.76 L217.74 343.88 L223.02 343.16 L225.94 341.17 L229.77 339.76 L231.85 337.35 L233.49 334.68 L235.49 332.24 L236.82 329.37 L235.84 324.96 L235.65 320.99 L235.70 317.15 L237.56 314.53 L246.67 317.14 L251.07 316.51 L257.92 317.78 L266.01 320.19 L269.61 319.26 L262.03 309.43 L266.14 308.86 L253.36 294.26 L255.28 291.68 L258.68 290.38 L259.70 287.01 L262.08 284.83 L261.49 279.92 L262.74 276.64 L263.65 273.00 L265.77 270.49 L268.19 268.27 L271.46 266.93 L274.57 265.45 L278.62 265.01 L280.85 262.66 L283.37 260.63 L285.49 258.16 L287.27 255.28 L289.23 252.57 L292.01 250.84 L293.68 247.75 L298.61 248.69 L305.54 252.31 L309.88 252.78 L318.55 259.10 L323.28 260.43 L312.00 239.74 L315.63 239.32 L297.34 207.28 L299.69 204.41 L302.51 202.20 L305.36 200.03 L308.23 197.88 L311.13 195.76 L314.05 193.67 L316.99 191.61 L319.97 189.60 L323.03 187.72 L326.30 186.21 L332.44 190.03 L341.27 199.21 L346.07 201.10 L353.23 207.87 L356.15 206.41 L358.99 204.75 L362.37 204.27 L364.08 200.13 L366.88 198.32 L368.69 194.18 L371.64 192.61 L374.92 191.84 L378.04 190.67 L381.70 190.94 L385.13 190.69 L387.84 188.45 L391.18 187.98 L393.37 184.13 L396.72 183.66 L399.55 181.56 L402.24 178.95 L404.80 175.75 L407.48 172.81 L410.74 171.85 L413.89 170.46 L417.31 170.06 L420.74 169.78 L424.37 170.43 L428.12 171.77 L431.60 171.96 L435.02 171.99 L438.23 170.97 L441.70 171.35 L445.01 170.90 L448.28 170.24 L451.00 165.76 L454.27 164.73 L457.33 161.97 L460.66 161.12 L464.24 162.51 L467.71 163.15 L471.19 164.12 L474.53 163.64 L477.81 162.07 L481.13 160.82 L484.42 158.42 L487.88 159.54 L491.26 158.35 L494.66 156.84 L498.08 155.13 L501.54 151.85 L505.02 151.84 L508.53 151.05 L511.95 152.91 L515.34 154.96 L518.72 156.45 L522.02 158.70 L525.40 159.31 L528.74 160.39 L532.09 161.12 L535.54 160.86 L538.93 161.27 L542.54 159.91 L546.18 158.50 L549.69 158.32 L553.40 156.95 L556.82 157.53 L560.18 158.49 L563.30 160.66 L566.32 163.23 L570.11 161.81 L573.24 163.68 L577.53 160.35 L580.87 161.39 L584.30 162.00 L587.98 161.68 L591.63 161.59 L595.75 159.89 L599.79 158.65 L602.96 160.47 L606.28 161.73 L609.35 163.77 L612.02 166.92 L615.13 168.66 L617.67 171.98 L620.93 173.21 L624.57 173.44 L627.44 175.71 L630.82 176.62 L633.82 178.50 L637.98 177.64 L642.04 177.12 L645.71 177.55 L649.27 178.29 L652.16 180.46 L655.62 181.45 L657.87 184.88 L660.67 187.14 L664.79 186.86 L667.19 189.86 L672.09 188.28 L674.20 191.77 L678.16 192.01 L680.12 195.68 L683.90 196.26 L687.42 197.33 L691.00 198.32 L695.08 198.60 L697.62 201.25 L700.68 203.12 L702.48 206.83 L704.61 209.99 L708.39 210.82 L710.72 213.66 L715.23 213.58 L716.77 217.45 L720.07 219.02 L722.12 222.17 L726.18 222.83 L730.72 222.96 L734.53 224.04 L737.79 225.81 L740.29 228.47 L741.69 232.32 L743.45 235.74 L744.76 239.59 L750.29 238.98 L751.94 242.47 L757.22 242.28 L760.15 244.50 L761.02 248.73 L764.14 250.76 L766.50 253.53 L770.98 254.37 L773.63 256.91 L779.62 256.55 L781.38 259.92 L784.39 262.22 L785.46 266.14 L786.84 269.76 L786.92 274.38 L789.03 277.36 L789.82 281.33 L792.37 283.96 L794.39 286.99 L796.85 289.70 L801.19 291.11 L804.99 292.96 L808.48 295.07 L810.99 297.86 L811.80 301.74 L812.06 305.93 L812.81 309.77 L814.09 313.27 L817.61 315.45 L819.71 318.49 L823.70 320.48 L825.75 323.57 L826.12 327.57 L828.90 330.29 L830.43 333.66 L834.91 335.58 L837.72 338.37 L841.58 340.70 L843.92 343.78 L844.85 347.50 L845.51 351.32 L844.73 355.72 L843.82 360.13 L844.99 363.66 L845.82 367.31 L847.21 370.75 L848.47 374.23 L850.31 377.51 L853.50 380.35 L857.17 383.07 L858.90 386.47 L860.62 389.88 L859.13 394.25 L860.63 397.71 L857.94 402.34 L862.36 405.01 L862.65 408.80 L865.66 411.92 L868.36 415.16 L867.49 419.22 L868.18 422.92 L869.14 426.56 L871.18 430.01 L873.18 433.49 L876.92 436.71 L878.25 440.37 L880.57 443.89 L878.86 448.01 L879.88 451.74 L875.84 456.06 L875.83 459.87 L874.86 463.76 L873.81 467.63 L874.33 471.36 L873.45 475.18 L875.97 478.78 L878.27 482.45 L879.68 486.18 L882.30 489.92 L879.69 493.78 L879.86 497.58 L948.17 500.00 L947.10 495.53 L944.99 491.10 L942.61 486.72 L940.89 482.36 L938.03 478.08 L936.56 473.77 L933.00 469.64 L932.20 465.35 L930.01 461.19 L931.20 456.74 L931.79 452.31 L933.46 447.73 L933.35 443.34 L934.58 438.76 L932.43 434.64 L931.51 430.36 L929.65 426.25 L927.92 422.13 L924.94 418.28 L923.21 414.21 L920.23 410.43 L919.49 406.19 L917.06 402.35 L918.43 397.60 L919.88 392.79 L920.20 388.22 L922.87 382.97 L920.09 379.20 L918.27 375.18 L914.55 371.76 L913.07 367.68 L908.65 364.58 L906.99 360.59 L903.14 357.40 L900.21 353.91 L897.18 350.50 L895.72 346.52 L893.87 342.68 L896.14 337.16 L894.15 333.35 L894.33 328.61 L891.86 325.00 L889.77 321.24 L886.78 317.91 L885.28 313.89 L881.29 311.09 L878.93 307.52 L874.94 304.80 L872.85 301.12 L869.75 298.01 L867.48 294.45 L869.26 288.58 L866.99 284.97 L869.01 278.81 L866.66 275.20 L864.00 271.79 L860.19 269.13 L857.03 266.09 L853.29 263.45 L849.73 260.74 L846.13 258.08 L842.43 255.53 L838.11 253.48 L835.08 250.52 L831.69 247.85 L830.29 243.66 L829.27 239.13 L827.38 235.26 L826.11 230.85 L822.70 228.19 L820.35 224.65 L816.57 222.35 L813.32 219.60 L809.29 217.59 L805.31 215.58 L801.48 213.46 L797.93 211.10 L794.65 208.51 L791.23 206.08 L791.26 200.11 L788.09 197.37 L788.45 190.86 L784.89 188.49 L781.86 185.54 L777.18 184.48 L773.71 182.07 L769.40 180.67 L765.19 179.20 L760.86 177.94 L756.45 176.83 L752.01 175.82 L748.57 173.56 L746.17 169.92 L744.76 164.87 L742.08 161.48 L739.80 157.47 L736.33 155.15 L732.25 153.73 L728.34 152.09 L724.27 150.72 L719.81 150.02 L715.78 148.69 L711.29 148.15 L707.50 146.49 L703.67 144.94 L699.76 143.55 L695.87 142.14 L694.52 136.02 L690.67 134.47 L688.92 128.82 L685.02 127.31 L681.04 125.98 L676.96 124.88 L672.72 124.18 L668.72 122.99 L663.79 123.97 L659.35 123.95 L654.87 124.10 L650.57 123.88 L646.40 123.44 L642.32 122.81 L638.32 121.99 L634.94 119.50 L631.92 115.86 L628.28 113.94 L624.89 111.18 L621.00 109.96 L616.89 109.44 L612.60 109.58 L608.72 108.36 L604.54 108.30 L600.27 108.60 L595.96 109.22 L591.71 109.73 L588.20 107.06 L584.81 103.64 L581.33 100.40 L577.77 97.33 L573.58 97.46 L569.39 97.67 L565.12 98.49 L561.07 98.08 L556.89 98.64 L552.58 100.32 L548.35 101.73 L544.08 103.75 L540.07 103.78 L536.01 104.44 L532.01 104.62 L528.11 103.61 L524.17 102.88 L520.34 99.92 L516.38 98.74 L512.34 99.35 L508.33 99.34 L504.32 100.00 L500.32 99.99 L496.32 100.49 L492.35 101.68 L488.44 104.12 L484.53 105.72 L480.67 107.49 L476.51 103.74 L472.46 102.69 L468.22 99.63 L464.10 98.60 L460.28 100.92 L456.25 100.98 L452.59 104.17 L448.65 104.81 L445.01 107.54 L441.28 109.38 L437.58 111.25 L434.00 113.64 L430.43 115.97 L426.80 117.74 L423.12 119.17 L419.01 118.54 L414.76 117.39 L410.52 116.48 L406.57 116.91 L402.80 118.06 L399.14 119.62 L395.37 120.77 L391.66 122.11 L388.17 124.16 L385.06 127.36 L381.62 129.42 L378.39 132.06 L374.53 132.73 L369.67 130.62 L365.68 131.11 L360.75 129.15 L357.42 131.53 L353.71 132.88 L350.46 135.38 L347.27 137.96 L344.11 140.55 L341.69 144.73 L338.67 147.49 L335.98 150.89 L333.38 154.36 L330.33 156.86 L328.02 160.76 L327.50 168.01 L325.99 173.15 L326.45 181.72 L324.69 186.00 L321.74 188.09 L318.79 190.16 L315.84 192.22 L312.90 194.29 L309.99 196.40 L307.10 198.52 L304.24 200.68 L301.40 202.87 L298.58 205.08 L283.11 189.16 L269.26 176.24 L262.03 173.07 L250.01 163.68 L254.86 177.01 L255.73 184.75 L256.71 192.41 L258.28 200.60 L258.02 206.33 L255.83 209.64 L255.01 214.51 L252.68 217.56 L249.65 219.81 L247.23 222.73 L243.89 224.64 L238.82 224.77 L236.59 227.92 L231.84 228.50 L230.21 232.25 L227.51 234.93 L226.41 239.13 L223.88 241.94 L223.24 246.48 L221.17 249.67 L220.25 253.85 L217.48 256.39 L215.74 259.80 L205.91 256.49 L192.38 250.43 L188.94 252.75 L179.34 250.32 L182.41 257.77 L183.66 263.68 L184.00 268.83 L184.39 273.93 L185.46 279.41 L183.25 282.56 L183.00 287.02 L182.54 291.29 L183.11 296.17 L184.94 301.78 L184.67 305.98 L179.67 307.29 L178.98 311.22 L175.26 313.38 L174.89 317.47 L175.33 321.96 L172.85 324.83 L170.94 328.02 L169.40 331.40 L168.40 335.05 L168.70 339.31 L169.31 343.67 L169.19 347.65 L156.94 346.14 L143.55 344.40 L139.53 346.92 L128.93 346.78 L137.02 354.35 L143.45 361.05 L146.68 366.37 L153.35 372.84 L154.25 377.07 L154.89 381.18 L149.17 383.12 L147.05 386.32 L144.83 389.51 L144.60 393.33 L150.76 398.97 L151.15 402.86 L151.72 406.75 L149.33 409.86 L145.58 412.67 L143.45 415.92 L141.86 419.31 L140.93 422.87 L140.69 426.57 L141.41 430.44 L141.86 434.24 L144.34 438.36 L144.59 442.06 L144.61 445.71 L138.14 448.42 L120.23 449.73 L120.28 453.60 L109.51 456.24 L114.92 460.74 L126.06 465.65 L127.49 469.54 L135.04 473.83 L140.90 477.85 L140.90 481.46 L144.16 485.19 L145.02 488.78 L145.39 492.34 L145.27 495.89 L146.44 499.44 L143.75 503.00 L140.72 506.61 L143.24 510.14 L140.33 513.82 L144.41 517.23 L144.96 520.76 L145.44 524.29 L145.52 527.85 L142.22 531.71 L141.33 535.41 L139.22 539.27 L142.45 542.54 L145.58 545.76 L130.56 551.46 L133.83 554.74 L125.48 559.83 L124.39 563.86 L140.17 564.89 L139.49 568.74 L143.33 571.71 L151.11 573.78 L151.42 577.37 L155.98 579.97 L157.53 583.23 L160.52 586.11 L161.54 589.46 L164.79 592.20 L167.35 595.08 L167.35 598.69 L168.68 601.91 L167.56 605.91 L167.62 609.56 L167.44 613.32 L169.59 616.29 L170.88 619.55 L173.58 622.27 L174.02 625.84 L176.38 628.66 L178.65 631.49 L181.54 634.04 L183.93 636.78 L167.68 647.77 L167.99 651.63 L161.48 658.71 L159.79 663.67 L174.50 660.62 L176.97 663.44 L184.66 663.53 L190.11 664.66 L189.67 668.89 L192.31 671.47 L193.86 674.64 L198.34 676.10 L204.64 676.41 L208.98 677.79 L213.15 679.21 L214.13 682.59 L214.68 686.28 L215.52 689.82 L215.24 694.15 L217.57 696.73 L217.74 700.83 L221.16 702.63 L223.45 705.22 L226.51 707.22 L228.48 710.04 L231.78 711.81 L233.84 714.53 L229.60 722.45 L223.50 732.14 L224.21 736.29 L221.07 743.86 L229.65 741.17 L237.98 738.48 L242.26 739.35 L250.15 736.71 L253.41 738.35 L257.74 738.90 L260.88 740.57 L263.93 742.29 L267.27 743.69 L271.51 744.10 L273.83 746.51 L277.38 747.57 L278.85 750.94 L281.77 752.67 L282.40 757.09 L285.17 759.03 L287.16 761.91 L289.71 764.13 L293.30 765.02 L295.61 767.53 L299.29 768.23 L301.63 770.70 L306.07 770.27 L309.29 771.48 L312.68 772.41 L303.98 791.25 L308.76 790.38 L303.73 804.60 L308.40 803.99 L316.60 797.54 L321.36 796.41 L327.21 793.30 L332.93 790.19 L336.41 790.83 L340.96 789.48 L344.81 789.28 L348.57 789.17 L351.70 790.22 L354.83 791.25 L358.03 792.11 L360.52 794.45 L363.23 796.36 L365.13 800.09 L367.66 802.50 L370.99 803.12 L374.04 804.36 L377.33 805.02 L380.42 806.14 L383.63 806.94 L387.07 807.08 L390.95 805.96 L394.40 805.91 L397.74 806.13 L395.00 825.13 L398.13 826.54 L398.29 837.88 L401.58 839.23 L408.08 829.07 L412.51 825.74 L416.76 822.78 L421.85 816.08 L425.29 815.66 L429.16 813.29 L432.52 812.92 L435.83 812.70 L438.86 813.85 L442.28 812.94 L445.11 815.23 L448.23 815.97 L451.35 816.77 L454.26 819.08 L457.54 818.87 L460.64 820.02 L463.97 819.23 L467.25 818.79 L470.57 817.62 L473.89 816.25 L477.11 815.64 L480.24 816.30 L483.34 817.74 L485.80 834.89 L488.98 839.99 L492.27 845.39 L495.68 849.05 L499.19 838.96 L502.56 835.69 L505.88 833.92 L509.08 828.92 L512.32 827.29 L515.51 825.44 L518.70 824.17 L522.29 829.15 L525.11 822.89 L528.38 823.07 L531.79 824.69 L534.13 815.89 L537.96 821.24 L541.11 820.42 L543.85 816.60 L547.28 818.00 L550.61 818.46 L553.70 817.39 L556.82 816.53 L559.89 815.45 L562.92 814.25 L565.91 812.90 L568.59 810.20 L574.69 822.45 L577.76 821.06 L582.68 827.07 L586.24 827.35 L586.98 817.24 L588.84 811.75 L590.60 806.26 L591.74 799.09 L594.52 797.52 L597.44 796.42 L601.82 799.59 L605.11 799.42 L607.70 797.26 L609.53 793.10 L610.12 785.94 L613.02 784.94 L615.43 782.74 L619.04 783.44 L622.76 784.30 L625.66 783.20 L629.10 783.29 L631.44 780.93 L634.17 779.47 L636.09 776.34 L637.94 773.17 L640.03 770.54 L641.91 767.60 L644.92 766.80 L654.57 777.89 L660.69 782.20 L666.30 785.38 L671.85 788.26 L669.54 778.02 L668.44 770.10 L669.84 766.37 L668.21 758.08 L669.36 754.26 L670.26 750.15 L671.75 746.99 L672.06 742.23 L673.31 738.89 L674.53 735.58 L675.11 731.50 L678.14 730.67 L681.26 729.91 L683.99 728.64 L689.25 730.42 L691.03 727.90 L693.26 725.94 L696.17 724.74 L698.11 722.44 L701.62 721.87 L707.82 724.15 L709.77 721.76 L710.74 718.37 L714.53 717.90 L723.69 722.70 L723.97 718.56 L733.05 722.92 L732.19 717.69 L725.78 707.48 L729.75 706.93 L726.66 700.08 L726.58 696.01 L727.39 692.77 L728.03 689.43 L728.66 686.11 L730.01 683.42 L733.32 682.27 L732.00 677.54 L733.47 674.99 L734.24 671.93 L735.25 669.08 L739.23 668.34 L742.84 667.27 L744.41 664.78 L746.83 662.84 L746.97 659.41 L747.00 655.95 L748.49 653.44 L748.05 649.77 L750.70 647.97 L749.58 643.96 L751.88 641.94 L768.71 647.91 L766.53 643.26 L781.10 647.48 L777.24 641.94 L771.93 635.81 L772.07 632.49 L768.02 627.22 L767.07 623.51 L772.37 622.67 L769.79 618.28 L773.65 616.72 L768.41 611.33 L767.01 607.63 L764.16 603.43 L765.06 600.73 L765.01 597.69 L767.31 595.52 L769.02 593.10 L772.47 591.26 L773.40 588.54 L775.57 586.21 L773.97 582.71 L775.99 580.31 L775.18 577.10 L775.76 574.30 L774.22 570.95 L774.31 568.06 L791.07 569.13 L794.98 566.95 L804.61 565.94 L804.59 562.75 L795.89 557.88 L790.01 553.73 L788.07 550.39 L782.09 546.45 L782.13 543.56 L779.07 540.23 L779.24 537.41 L779.12 534.56 L777.73 531.57 L776.90 528.67 L776.06 525.80 L776.40 523.05 L775.94 520.23 L778.22 517.60 L780.02 514.91 L780.16 512.11 L780.80 509.32 L780.58 506.51 L779.74 503.69 L779.20 500.89 L778.13 498.10 L778.03 495.32 L774.97 492.63 L775.29 489.86 L781.85 486.80 L795.28 483.21 L797.44 480.10 L805.30 476.50 L800.06 473.88 L790.80 471.76 L787.78 469.14 L780.15 467.12 L775.68 464.85 L774.13 462.26 L770.83 459.95 L768.55 457.54 L766.48 455.13 L764.70 452.70 L763.19 450.25 L763.38 447.48 L765.18 444.36 L766.58 441.28 L767.63 438.23 L767.32 435.48 L766.96 432.74 L765.82 430.19 L764.76 427.63 L765.49 424.57 L763.89 422.17 L765.62 418.76 L762.86 416.72 L760.28 414.67 L755.92 413.25 L771.85 404.81 L764.08 404.55 L778.17 396.31 L772.60 395.27 L764.10 395.49 L759.97 394.11 L753.64 393.72 L746.98 393.59 L744.74 391.64 L740.30 390.72 L738.05 388.86 L736.64 386.62 L735.09 384.46 L734.16 381.99 L734.78 378.72 L733.71 376.30 L733.66 373.32 L732.65 370.84 L731.35 368.51 L728.71 366.97 L727.76 364.46 L724.51 363.34 L723.07 361.13 L718.87 360.69 L718.88 357.59 L716.18 356.25 L715.43 353.62 L730.76 339.81 L728.31 338.10 L735.36 329.54 L734.19 326.80 L723.01 331.58 L719.62 330.67 L714.88 330.88 L710.47 330.90 L707.86 329.56 L705.15 328.32 L702.19 327.33 L699.85 325.84 L697.11 324.73 L693.71 324.26 L692.41 321.89 L689.22 321.30 L687.20 319.63 L685.52 317.63 L682.16 317.32 L679.99 315.85 L677.81 314.40 L677.58 310.89 L674.44 310.48 L671.78 309.58 L668.30 309.65 L664.38 310.29 L662.32 308.83 L674.43 290.36 L671.66 289.44 L678.25 276.84 L674.10 277.51 L665.50 284.09 L660.46 286.26 L654.78 289.48 L648.85 293.25 L646.06 292.79 L645.07 289.75 L645.61 284.39 L643.02 283.59 L641.62 280.98 L635.15 286.33 L630.65 288.80 L627.61 289.02 L626.03 286.84 L624.71 284.19 L624.02 280.35 L621.88 279.00 L619.75 277.62 L618.18 275.18 L614.92 275.98 L612.44 275.30 L609.11 276.39 L606.42 276.26 L603.27 277.16 L601.28 275.61 L606.31 258.05 L605.09 254.16 L605.55 246.10 L604.63 241.05 L596.66 253.71 L593.04 255.76 L588.60 260.26 L583.56 266.75 L581.16 266.09 L577.68 268.69 L575.02 268.97 L572.31 269.50 L570.07 268.55 L567.74 267.90 L565.88 265.58 L564.59 261.02 L561.53 262.98 L559.40 261.37 L556.59 262.59 L553.48 265.23 L551.55 262.78 L548.83 263.95 L546.84 261.58 L544.17 262.65 L542.06 260.68 L539.41 261.80 L537.01 261.55 L536.19 250.36 L534.89 241.12 L532.55 238.77 L530.71 231.75 L526.96 241.67 L523.66 248.95 L521.18 248.40 L518.05 256.40 L515.58 256.86 L513.05 258.45 L510.60 259.21 L508.10 261.79 L505.73 260.95 L503.34 260.99 L500.94 264.83 L498.58 264.01 L496.28 267.52 L493.95 267.41 L491.54 265.13 L489.13 263.91 L486.72 263.13 L484.31 262.75 L482.05 264.35 L479.66 264.15 L477.39 265.21 L475.23 267.25 L472.87 267.23 L470.46 266.83 L466.88 258.03 L462.74 246.67 L460.20 246.96 L455.97 237.20 L455.13 247.72 L453.43 252.54 L451.57 256.10 L451.14 266.21 L448.88 267.05 L446.37 266.77 L444.64 269.83 L441.48 266.96 L440.71 273.50 L438.75 275.20 L438.11 281.50 L435.76 281.54 L433.85 283.09 L431.27 282.47 L428.77 282.14 L426.05 281.27 L423.68 281.49 L421.26 281.60 L419.53 283.61 L417.65 285.15 L415.96 287.14 L413.88 288.10 L412.28 290.20 L410.49 291.79 L400.47 274.73 L399.37 278.25 L391.76 267.68 L390.83 271.68 L392.99 281.83 L392.65 286.56 L392.64 291.77 L392.86 297.18 L390.91 298.41 L390.64 302.65 L389.02 304.36 L387.30 305.88 L384.49 305.55 L383.25 307.86 L381.39 309.13 L380.57 312.03 L379.82 314.96 L378.10 316.36 L374.42 314.87 L372.86 316.54 L370.17 316.60 L368.93 318.73 L367.61 320.71 L366.15 322.46 L364.94 324.53 L363.73 326.58 L363.60 329.94 L361.95 331.37 L350.64 321.23 L345.12 318.35 L338.51 314.39 L334.10 313.12 L337.84 320.98 L342.44 329.52 L341.98 332.41 L346.26 340.18 L345.54 342.61 L345.73 345.92 L346.02 349.26 L345.85 352.08 L345.20 354.40 L343.97 356.15 L343.16 358.28 L342.02 360.10 L339.69 360.87 L336.43 360.89 L334.04 361.69 L331.39 362.32 L331.32 365.05 L330.20 366.91 L328.79 368.55 L327.78 370.49 L326.94 372.55 L327.71 375.75 L328.13 378.65 L327.11 380.50 L318.97 377.53 L305.16 371.01 L303.60 372.79 L295.01 370.11 L300.70 376.49 L307.93 383.61 L308.23 386.40 L314.49 392.60 L317.00 396.48 L317.85 399.36 L318.52 402.08 L318.77 404.54 L316.51 405.69 L316.90 408.19 L314.52 409.31 L312.31 410.54 L311.18 412.31 L308.11 413.21 L307.69 415.32 L306.16 416.95 L307.07 419.62 L306.46 421.63 L308.21 424.56 L308.90 427.02 L309.68 429.49 L308.89 431.37 L308.81 433.49 L305.22 434.42 L284.77 429.92 L286.71 432.90 L273.34 431.18 L278.07 435.03 L286.80 439.90 L286.51 442.11 L290.07 445.33 L292.17 448.09 L291.65 450.16 L293.54 452.80 L296.33 455.57 L293.58 457.13 L294.30 459.42 L296.57 461.98 L290.48 463.00 L294.87 465.89 L292.05 467.55 L290.97 469.52 L291.78 471.77 L292.02 473.91 L292.41 476.07 L292.65 478.19 L292.57 480.28 L293.73 482.47 L293.47 484.53 L296.80 486.82 L293.15 488.66 L281.08 490.19 L281.17 492.39 L272.92 494.37 L278.60 496.73 L287.42 498.98 L291.32 501.09 L297.56 503.08 L302.61 504.98 L302.66 506.95 L300.25 509.04 L297.42 511.20 L297.75 513.21 L298.41 515.19 L305.69 516.60 L307.71 518.37 L308.81 520.19 L307.88 522.24 L306.00 524.42 L304.82 526.55 L304.81 528.55 L305.10 530.50 L306.58 532.25 L307.23 534.13 L309.96 535.61 L310.95 537.38 L313.56 538.81 L313.71 540.73 L312.84 542.88 L294.75 549.19 L297.69 550.63 L286.00 555.84 L290.28 556.96 L300.14 556.44 L302.54 557.90 L308.68 558.18 L313.47 558.77 L316.25 559.92 L319.96 560.71 L322.04 562.00 L326.04 562.56 L329.46 563.26 L331.38 564.48 L332.65 565.92 L327.50 569.95 L329.07 571.31 L326.73 574.33 L329.40 575.21 L333.13 575.57 L332.20 578.02 L332.76 579.80 L327.53 584.43 L325.61 587.54 L323.98 590.57 L327.06 591.19 L331.95 590.77 L323.92 597.39 L326.23 598.39 L321.90 603.21 L321.24 605.99 L331.40 602.26 L334.46 602.68 L336.63 603.62 L342.77 601.94 L344.04 603.35 L347.66 603.16 L349.21 604.32 L352.77 604.05 L351.43 607.24 L354.68 607.12 L356.90 607.71 L357.99 609.13 L361.49 608.66 L360.96 611.34 L361.25 613.40 L361.43 615.59 L362.26 617.25 L363.44 618.63 L365.94 618.83 L366.43 620.80 L368.76 621.10 L370.00 622.38 L370.80 624.09 L371.71 625.70 L363.18 636.77 L362.65 640.08 L360.22 645.43 L361.21 647.32 L368.03 642.92 L371.79 641.67 L375.69 640.16 L381.07 636.81 L382.40 638.05 L383.29 639.81 L386.92 638.26 L387.07 640.93 L392.56 636.85 L394.41 637.30 L397.82 635.65 L398.86 637.10 L400.00 638.44 L400.82 640.24 L400.98 643.02 L402.09 644.49 L402.61 646.85 L405.01 646.39 L405.98 648.13 L408.65 647.15 L410.62 647.25 L413.06 646.51 L415.19 646.23 L413.62 652.42 L406.70 668.54 L408.34 669.56 L406.39 677.39 L410.84 673.13 L417.73 663.76 L419.48 664.34 L424.10 658.91 L427.11 656.63 L428.92 656.81 L431.67 654.85 L433.35 655.23 L435.67 654.06 L438.20 652.25 L439.44 653.59 L441.87 651.87 L442.51 654.80 L444.24 654.88 L445.12 657.34 L446.64 658.07 L448.19 658.69 L449.27 660.83 L451.55 659.11 L452.98 660.16 L455.00 659.13 L456.80 658.84 L458.70 658.05 L460.63 657.08 L462.39 656.70 L459.68 675.70 L461.35 676.51 L461.15 686.33 L462.44 689.57 L467.03 675.64 L469.14 673.96 L471.81 668.71 L474.59 661.99 L476.16 662.63 L478.23 659.60 L480.04 658.12 L481.92 655.74 L483.56 655.10 L485.20 654.33 L486.79 654.04 L488.28 654.84 L489.73 656.42 L491.22 657.83 L492.73 659.49 L494.30 660.19 L495.91 659.87 L497.51 659.75 L499.10 660.90 L500.73 665.43 L502.38 665.23 L504.11 668.22 L505.64 663.79 L507.11 659.94 L508.53 656.59 L510.04 655.64 L511.59 655.38 L513.31 657.33 L514.95 657.82 L516.40 656.48 L517.88 655.58 L519.29 654.26 L520.59 652.28 L522.02 651.42 L523.19 648.97 L524.34 646.70 L525.74 646.07 L526.92 644.33 L528.87 646.63 L530.60 647.62 L532.32 648.39 L534.03 649.06 L535.45 648.45 L536.69 647.12 L538.39 647.61 L540.22 648.55 L541.76 648.33 L543.69 649.43 L545.23 649.16 L546.30 647.37 L547.30 645.43 L548.67 644.72 L549.31 641.91 L550.41 640.53 L550.95 637.69 L551.89 636.04 L552.59 633.83 L553.58 632.43 L554.83 631.72 L556.51 632.03 L558.77 633.60 L560.62 634.16 L562.48 634.66 L563.60 633.55 L564.73 632.51 L565.56 630.86 L568.12 632.66 L569.29 631.66 L571.68 632.97 L572.48 631.28 L573.66 630.34 L573.95 627.85 L574.90 626.54 L575.10 624.04 L575.69 622.23 L575.97 619.99 L575.97 617.37 L576.09 615.02 L577.06 614.00 L578.17 613.18 L580.65 614.32 L582.52 614.52 L584.59 614.95 L585.77 614.14 L587.07 613.49 L587.02 611.10 L587.84 609.87 L591.07 611.60 L590.88 609.13 L594.46 611.15 L594.97 609.50 L595.28 607.67 L595.44 605.71 L595.79 603.98 L594.99 601.07 L595.35 599.43 L594.74 596.84 L595.10 595.29 L594.82 593.12 L595.85 592.27 L596.52 591.07 L598.88 591.45 L600.75 591.32 L602.51 591.07 L603.70 590.29 L604.55 589.21 L604.66 587.50 L604.34 585.48 L608.32 586.94 L607.54 584.57 L611.67 586.02 L610.73 583.54 L611.67 582.51 L610.14 579.69 L611.26 578.82 L609.35 575.83 L609.85 574.57 L608.16 571.85 L607.84 570.10 L607.01 568.04 L607.86 567.08 L608.23 565.82 L612.32 566.78 L612.59 565.42 L615.19 565.40 L614.98 563.77 L615.41 562.51 L614.77 560.68 L618.00 560.89 L618.27 559.54 L620.17 559.00 L622.08 558.43 L620.88 556.37 L621.46 555.17 L619.74 552.95 L620.12 551.69 L616.67 548.83 L619.55 548.64 L617.62 546.49 L621.55 546.64 L622.03 545.43 L621.55 543.87 L620.83 542.25 L619.66 540.50 L619.10 538.99 L620.07 537.98 L618.88 536.30 L618.57 534.92 L616.00 532.90 L614.93 531.36 L614.75 530.08 L615.04 528.93 L615.82 527.90 L616.58 526.85 L617.01 525.72 L619.19 524.95 L620.25 523.92 L622.32 523.06 L623.72 522.05 L625.08 521.00 L625.70 519.82 L625.64 518.52 L624.38 517.07 L621.58 515.45 L620.52 514.09 L620.79 512.90 L622.20 511.81 L624.83 510.81 L624.90 509.56 L626.35 508.40 L627.97 507.22 L626.77 505.88 L627.56 504.64 L624.42 503.28 L625.04 502.05 L620.73 500.77 Z"/>
  <svg class="pausebutton" id="pausebutton">
    <circle cx="500" cy="500" id="pausestart" class="pausestart" r="52.65"/>
    <rect height="50.02" width="10.00" y="473.68" rx="2.00" ry="2.00" x="479.99" class="pausesymbol"/>
    <rect height="50.02" width="10.00" y="473.68" rx="2.00" ry="2.00" x="510.00" class="pausesymbol"/>
    <polygon points="530.01,500 479.99,530.01 479.99,469.99" class="playsymbol"/>
  </svg>
  <polygon id="playback-head" class="playback-head" points="912.475,500 892.475,540 932.475,540"/>
</svg>