<?xml-stylesheet href="../../style/waveformjs.css" type="text/css"?>
<svg xmlns="http://www.w3.org/2000/svg" xmlns:xlink="http://www.w3.org/1999/xlink" width="100%" height="100%" viewBox="0 0 1000 1000">
  <path class="svg-wave" id="sp" d="M597.39 500.00 L597.58 500.98 L597.78 501.96 L597.96 502.94 L598.08 503.93 L598.20 504.91 L598.31 505.91 L598.44 506.90 L598.53 507.90 L598.57 508.90 L598.63 509.90 L598.68 510.90 L598.71 511.90 L598.74 512.91 L598.77 513.92 L598.85 514.94 L598.88 515.96 L598.80 516.96 L598.77 517.97 L598.75 518.99 L598.65 520.00 L598.67 521.03 L598.62 522.05 L598.59 523.09 L598.53 524.11 L598.49 525.15 L598.36 526.17 L598.27 527.20 L598.17 528.23 L597.99 529.24 L597.82 530.26 L597.53 531.24 L597.31 532.25 L597.14 533.27 L596.86 534.26 L596.79 535.33 L596.65 536.38 L596.48 537.42 L596.28 538.46 L595.99 539.46 L595.76 540.49 L595.51 541.51 L595.19 542.51 L594.81 543.48 L594.46 544.47 L594.01 545.41 L593.63 546.39 L593.48 547.48 L593.07 548.45 L592.76 549.48 L592.60 550.59 L592.23 551.59 L591.63 552.47 L591.12 553.39 L590.70 554.37 L590.36 555.40 L589.90 556.37 L589.37 557.29 L589.04 558.34 L588.57 559.30 L587.96 560.17 L587.46 561.13 L586.82 561.98 L585.92 562.65 L584.96 563.26 L584.06 563.90 L583.20 564.57 L582.03 564.99 L581.40 565.82 L580.79 566.68 L580.48 567.79 L579.69 568.50 L577.52 567.99 L574.45 566.63 L571.86 565.62 L569.19 564.45 L566.03 562.76 L564.47 562.52 L563.81 563.12 L563.44 564.02 L562.63 564.48 L558.29 561.23 L553.96 557.83 L555.52 560.71 L555.01 561.37 L551.76 558.92 L556.65 565.80 L559.01 569.95 L558.68 570.99 L555.68 568.74 L550.28 563.36 L551.20 565.86 L553.57 570.36 L548.51 565.05 L551.30 570.24 L555.16 577.14 L554.30 577.56 L553.59 578.20 L550.82 575.77 L545.47 569.29 L545.68 571.15 L548.72 577.58 L544.40 572.28 L545.44 575.67 L549.90 585.02 L548.41 584.39 L546.42 582.83 L542.04 576.81 L539.61 574.11 L541.72 579.98 L538.46 575.57 L538.30 577.16 L542.94 588.70 L542.14 589.32 L541.61 590.55 L539.70 588.70 L536.43 583.63 L533.14 578.21 L531.44 576.32 L530.02 574.98 L530.20 577.69 L530.02 579.58 L532.97 590.09 L532.49 591.61 L529.96 587.24 L527.28 582.11 L527.36 585.18 L527.42 588.41 L525.14 583.99 L525.82 589.53 L526.86 596.74 L526.11 597.85 L524.89 597.15 L523.03 593.79 L520.51 587.27 L519.86 588.46 L519.94 593.21 L517.93 588.09 L518.06 593.52 L518.43 600.81 L517.50 601.49 L516.04 598.88 L513.81 590.86 L512.74 589.88 L512.76 597.01 L511.05 591.02 L510.42 593.67 L510.59 604.73 L509.66 606.13 L508.73 607.83 L507.40 604.34 L505.89 596.80 L504.82 594.73 L504.09 600.16 L502.91 594.36 L501.99 595.81 L501.17 608.01 L500.09 608.67 L499.00 608.39 L498.07 600.47 L497.23 594.74 L496.12 599.04 L495.10 599.45 L494.17 598.36 L492.34 610.49 L490.77 616.24 L489.63 615.92 L488.53 615.26 L488.27 607.00 L488.35 597.29 L486.94 600.51 L485.47 603.70 L485.21 598.39 L482.83 606.96 L480.24 615.67 L479.10 615.37 L479.16 608.82 L479.92 599.47 L478.66 600.51 L476.38 606.04 L477.42 596.80 L474.94 602.76 L471.02 613.89 L470.16 612.54 L468.83 612.98 L469.08 607.86 L470.76 598.27 L470.22 596.54 L466.90 603.61 L468.17 596.30 L466.39 598.38 L461.28 609.75 L459.18 612.09 L459.66 607.43 L461.21 600.25 L461.98 595.42 L460.61 596.04 L461.01 592.43 L460.85 590.28 L456.78 596.99 L455.10 598.10 L453.43 599.12 L452.71 598.09 L453.57 593.91 L454.66 589.44 L452.78 590.87 L451.76 590.62 L452.37 587.35 L448.20 592.78 L445.60 595.20 L444.21 595.40 L444.67 592.48 L447.14 586.38 L444.80 588.21 L440.71 592.66 L442.91 587.29 L439.28 590.84 L434.24 596.28 L433.18 595.77 L432.62 594.54 L434.08 590.57 L437.04 584.70 L435.90 584.45 L431.91 587.87 L435.46 581.60 L432.39 583.75 L425.85 589.99 L424.37 589.94 L424.17 588.37 L427.60 582.68 L429.07 579.39 L425.77 581.42 L428.74 576.61 L428.04 575.83 L420.94 581.66 L420.16 580.83 L418.53 580.86 L418.01 579.75 L420.53 575.78 L422.23 572.68 L419.12 574.09 L419.73 572.07 L420.66 569.81 L412.80 575.19 L409.26 576.68 L408.02 576.16 L410.39 572.70 L413.47 568.78 L412.03 568.50 L411.12 567.79 L414.99 563.50 L410.95 565.15 L405.60 567.62 L404.39 567.05 L403.10 566.52 L405.23 563.67 L409.94 559.21 L410.33 557.68 L410.69 556.19 L408.01 556.60 L407.55 555.61 L402.61 557.27 L395.73 559.92 L397.15 557.74 L401.84 553.83 L401.64 552.66 L393.57 555.63 L398.04 552.00 L393.80 552.83 L382.47 557.01 L382.41 555.59 L380.86 554.87 L383.27 552.35 L390.82 547.66 L393.18 545.36 L386.15 547.01 L390.88 543.79 L389.24 543.16 L375.68 547.02 L373.75 546.31 L375.44 544.28 L382.12 540.59 L386.79 537.72 L384.06 537.34 L384.75 535.85 L387.38 533.80 L379.26 534.93 L374.63 534.91 L373.31 533.92 L374.61 532.23 L378.91 529.84 L384.82 527.16 L382.06 526.57 L379.13 525.96 L383.47 523.82 L376.67 523.92 L369.60 523.94 L367.93 522.89 L371.96 520.87 L380.22 518.30 L379.45 517.18 L374.52 516.61 L383.58 514.23 L380.13 513.43 L371.30 513.12 L371.67 511.79 L370.98 510.55 L373.10 509.10 L379.85 507.41 L380.74 506.16 L375.58 505.18 L382.25 503.72 L380.53 502.58 L371.91 501.48 L370.42 500.21 L371.33 498.92 L377.18 497.74 L379.06 496.56 L372.46 495.10 L373.97 493.89 L373.11 492.58 L359.49 490.37 L357.50 488.80 L356.54 487.28 L358.28 486.01 L367.18 485.55 L372.96 484.89 L369.99 483.21 L371.13 482.05 L373.78 481.13 L363.41 478.18 L357.94 475.85 L359.22 474.61 L364.83 474.23 L373.46 474.56 L374.47 473.45 L373.10 471.84 L379.71 472.04 L376.08 469.88 L369.93 467.01 L369.23 465.43 L369.21 464.03 L372.25 463.49 L379.22 464.17 L380.02 463.09 L375.98 460.49 L382.53 461.28 L380.00 459.11 L373.41 455.45 L372.75 453.78 L374.15 452.86 L379.13 453.34 L381.76 452.99 L376.09 449.30 L379.68 449.36 L379.37 447.80 L368.78 441.65 L369.31 440.32 L369.91 439.01 L371.81 438.33 L378.54 440.06 L383.10 440.85 L380.06 437.80 L382.47 437.55 L384.23 436.99 L375.14 430.42 L374.03 428.14 L374.69 426.85 L380.10 428.38 L387.38 431.20 L385.27 428.32 L383.70 425.72 L388.87 427.45 L384.45 422.90 L379.92 418.13 L380.69 416.89 L381.90 415.97 L386.26 417.35 L393.35 420.86 L391.26 417.61 L388.09 413.43 L393.51 415.91 L390.20 411.50 L384.67 405.13 L386.79 404.95 L389.59 405.41 L396.76 409.74 L399.03 409.93 L394.84 404.28 L401.59 408.61 L399.70 404.98 L392.67 396.26 L393.78 395.25 L394.07 393.43 L397.21 394.50 L403.32 398.77 L408.26 401.99 L410.39 402.33 L411.48 401.56 L411.49 399.57 L410.20 396.03 L403.72 386.25 L404.91 385.35 L409.58 388.73 L413.76 391.68 L412.78 388.17 L413.94 387.36 L416.55 388.47 L412.39 380.44 L410.95 375.89 L411.48 373.98 L413.18 373.74 L417.63 377.61 L422.84 382.83 L422.53 379.78 L421.88 376.05 L425.35 378.89 L423.19 372.55 L421.47 366.70 L422.98 366.22 L426.46 369.27 L431.98 376.20 L432.62 374.41 L430.28 366.87 L435.19 373.17 L434.52 368.64 L431.06 358.15 L431.94 356.33 L432.88 354.57 L436.13 357.88 L440.77 364.61 L442.52 364.95 L441.80 359.37 L446.06 365.89 L445.85 361.38 L443.62 351.29 L444.84 350.01 L446.74 350.57 L451.12 358.40 L454.07 362.51 L453.68 356.58 L455.13 356.18 L456.88 356.76 L454.75 344.05 L455.36 340.19 L457.11 340.31 L459.56 343.19 L462.82 349.63 L465.66 354.92 L466.12 350.16 L467.60 349.74 L469.70 352.35 L469.01 340.93 L469.44 334.33 L471.27 334.98 L474.11 341.97 L476.96 349.97 L478.06 346.97 L478.99 342.20 L481.52 349.76 L482.29 343.09 L482.76 332.23 L484.40 331.65 L486.15 332.31 L488.28 338.35 L490.41 346.54 L491.94 346.24 L493.26 341.00 L495.09 348.45 L496.50 343.58 L497.91 331.41 L499.59 330.41 L501.26 334.24 L502.78 341.92 L504.23 346.84 L505.85 344.62 L507.13 350.36 L508.63 350.29 L510.70 342.05 L512.29 341.98 L514.00 340.64 L515.53 341.45 L516.60 346.38 L517.71 350.13 L519.56 347.54 L520.88 349.21 L522.19 350.76 L525.02 342.58 L526.79 341.67 L528.53 341.04 L529.41 345.11 L529.79 351.23 L532.04 347.90 L534.46 344.16 L535.04 348.73 L537.82 343.83 L540.92 338.12 L542.58 338.38 L543.87 339.99 L544.24 344.77 L544.17 350.68 L545.95 350.20 L548.46 347.45 L548.07 353.76 L551.35 348.90 L555.45 342.03 L557.46 341.41 L558.12 344.47 L557.51 350.66 L558.31 353.00 L561.31 349.84 L559.99 357.16 L561.83 356.81 L566.88 349.28 L568.43 349.85 L570.11 350.14 L571.21 351.69 L570.52 356.80 L570.82 359.74 L574.53 356.00 L573.89 360.68 L575.04 361.86 L581.30 353.84 L584.23 352.08 L585.65 353.02 L584.59 358.11 L584.14 362.02 L586.24 361.71 L586.83 363.82 L585.67 368.56 L590.80 363.68 L594.06 361.80 L595.68 362.40 L597.46 362.79 L596.59 366.85 L594.23 372.80 L594.65 374.88 L595.20 376.73 L598.30 375.31 L600.15 375.54 L604.55 372.70 L609.70 369.12 L609.46 372.04 L606.10 378.44 L608.15 378.57 L614.00 374.55 L610.78 380.51 L614.92 378.51 L622.94 372.61 L624.46 373.59 L626.82 373.74 L625.91 377.13 L621.48 383.80 L621.60 385.99 L627.22 383.10 L622.86 389.34 L625.41 389.30 L634.39 383.74 L636.13 384.60 L636.71 386.43 L632.59 392.08 L630.62 395.84 L635.58 394.08 L635.23 396.52 L635.47 398.46 L645.46 393.23 L648.71 393.12 L650.14 394.35 L650.07 396.63 L645.33 402.02 L642.37 406.08 L645.80 405.89 L646.39 407.57 L645.14 410.37 L653.80 407.14 L658.64 406.37 L659.87 407.79 L656.23 411.96 L649.69 417.61 L650.92 418.88 L655.07 418.64 L649.52 423.45 L653.83 423.17 L661.21 421.49 L662.67 422.78 L663.88 424.21 L661.94 427.06 L656.63 431.33 L657.29 432.91 L661.93 432.83 L656.09 437.08 L659.08 437.71 L667.27 436.43 L669.56 437.49 L668.44 439.81 L662.89 443.62 L663.26 445.32 L671.10 444.59 L667.56 447.58 L671.08 448.35 L685.95 445.89 L686.32 447.80 L688.07 449.33 L686.39 451.77 L677.46 455.97 L674.06 458.66 L678.06 459.59 L675.47 462.01 L675.57 463.83 L688.79 463.07 L691.87 464.45 L690.55 466.67 L684.66 469.60 L677.14 472.65 L677.06 474.47 L677.70 476.19 L673.17 478.56 L677.81 479.79 L684.15 480.93 L685.56 482.66 L685.65 484.52 L682.32 486.63 L675.81 488.88 L676.44 490.61 L679.33 492.25 L674.21 494.22 L678.42 495.86 L684.99 497.56 L685.30 499.41 L684.22 501.26 L678.37 503.00 L679.12 504.80 L691.13 507.04 L686.27 508.73 L691.13 510.87 L708.55 513.95 L708.21 516.03 L707.01 518.02 L700.32 519.45 L688.77 520.24 L686.08 521.84 L691.91 524.47 L684.31 525.38 L686.14 527.53 L701.93 531.93 L701.97 534.01 L699.29 535.61 L689.54 535.83 L683.88 536.67 L686.95 539.22 L685.58 540.88 L682.45 542.11 L693.40 546.68 L697.54 549.77 L695.65 551.38 L694.17 553.07 L685.90 552.81 L678.43 552.63 L681.92 555.64 L685.30 558.71 L678.80 558.62 L685.85 563.00 L694.37 568.06 L692.51 569.58 L684.46 568.76 L676.36 567.76 L677.79 570.35 L682.11 574.18 L673.80 572.83 L679.55 577.36 L692.03 585.02 L691.82 587.23 L691.73 589.52 L684.69 588.49 L674.01 585.52 L668.42 584.88 L664.97 585.22 L669.16 589.54 L669.32 591.80 L673.17 596.14 L685.02 605.15 L680.12 604.77 L669.99 601.16 L663.94 599.80 L666.87 603.88 L663.58 604.11 L662.13 605.49 L672.12 614.45 L672.91 617.48 L672.64 619.84 L669.30 620.05 L661.35 616.86 L656.28 615.59 L657.82 619.18 L656.02 620.29 L652.69 620.18 L660.97 629.33 L664.74 635.09 L663.24 636.61 L656.43 633.59 L648.30 629.24 L647.62 631.26 L646.42 632.84 L639.21 628.87 L642.59 634.67 L648.27 642.86 L648.41 645.88 L650.34 650.77 L643.67 646.98 L638.37 644.42 L637.26 646.17 L640.34 652.47 L632.96 647.38 L634.60 652.24 L640.21 661.81 L636.67 660.96 L632.04 658.69 L624.45 652.65 L621.96 652.69 L625.31 660.14 L622.46 659.76 L620.54 660.56 L626.58 672.16 L624.97 673.58 L624.01 675.93 L618.29 671.44 L613.21 667.63 L611.01 667.97 L609.57 669.45 L605.82 667.30 L604.93 669.63 L611.15 683.76 L609.86 685.80 L609.95 690.27 L604.69 685.42 L598.36 678.36 L597.26 680.60 L595.63 681.92 L592.08 679.50 L594.77 689.39 L597.04 698.87 L596.15 702.15 L594.47 703.85 L588.65 696.40 L583.09 689.12 L581.94 691.67 L581.83 696.85 L577.28 691.26 L578.16 699.15 L579.88 709.68 L576.61 707.31 L572.77 703.14 L567.36 694.14 L565.04 693.67 L566.36 704.36 L562.02 697.71 L560.67 700.39 L562.61 714.52 L560.87 716.58 L558.08 714.86 L554.72 710.78 L550.79 704.02 L548.15 702.02 L547.08 706.69 L543.84 701.74 L542.60 705.93 L543.19 719.83 L541.29 721.87 L539.20 723.05 L535.38 713.80 L532.03 706.35 L530.45 709.99 L528.16 708.94 L525.59 705.36 L524.57 714.63 L522.97 720.11 L520.86 721.35 L518.50 719.74 L515.85 713.79 L513.39 708.97 L511.40 711.00 L509.39 713.26 L507.15 710.24 L505.31 721.46 L503.21 729.23 L500.92 730.21 L498.65 725.10 L496.58 713.45 L494.43 714.04 L492.07 720.13 L490.30 710.63 L487.89 715.94 L484.91 728.27 L482.76 726.32 L480.59 725.13 L478.78 720.28 L477.56 710.87 L475.36 711.40 L471.94 721.48 L470.81 713.25 L468.29 715.65 L463.63 731.22 L461.15 731.86 L459.99 724.96 L459.45 715.47 L457.89 712.06 L455.07 714.99 L453.76 710.69 L451.55 710.72 L445.70 725.77 L442.81 727.75 L440.02 729.15 L438.32 726.37 L439.05 715.19 L439.08 707.14 L437.99 703.33 L436.63 700.58 L433.10 704.62 L430.20 706.46 L424.71 715.58 L421.15 718.71 L421.36 711.48 L422.63 701.85 L419.63 703.57 L415.36 708.26 L415.99 700.93 L411.81 705.14 L405.16 714.67 L402.79 714.20 L401.46 711.49 L401.78 705.42 L402.88 698.01 L400.89 697.06 L396.62 700.51 L397.94 693.19 L392.02 699.55 L384.31 708.77 L381.35 709.16 L380.15 706.44 L384.17 694.99 L384.57 689.97 L381.59 690.55 L383.51 683.35 L381.81 681.97 L372.32 692.35 L369.71 692.09 L365.47 694.13 L364.24 691.78 L367.29 683.54 L366.27 681.12 L361.81 683.30 L361.92 679.38 L360.80 677.14 L350.69 686.14 L349.54 683.79 L349.34 680.33 L353.58 671.73 L356.24 665.23 L351.10 667.73 L345.63 670.42 L347.13 665.41 L342.31 667.24 L334.35 672.20 L329.96 673.26 L332.54 667.25 L336.04 660.51 L336.06 657.31 L335.09 655.11 L332.66 654.27 L335.64 648.51 L325.17 654.82 L317.63 658.27 L315.31 657.08 L312.85 655.97 L320.66 646.44 L320.69 643.46 L315.49 644.62 L320.58 637.76 L314.78 639.29 L301.80 645.97 L299.10 644.88 L295.32 644.52 L298.08 639.56 L305.87 631.33 L306.53 628.08 L299.61 629.80 L303.40 624.57 L300.52 623.62 L285.32 630.09 L286.63 626.39 L288.90 622.21 L294.93 615.99 L300.53 610.21 L294.02 611.13 L290.61 610.28 L293.17 606.31 L284.24 608.19 L275.58 609.73 L274.31 607.57 L278.26 602.98 L282.46 598.39 L286.82 593.87 L284.85 592.18 L283.53 590.19 L285.06 587.04 L274.33 588.77 L266.47 589.18 L264.12 587.38 L267.68 583.43 L277.76 577.31 L275.69 575.53 L265.77 576.27 L273.84 571.15 L265.63 571.16 L247.23 573.99 L246.46 571.48 L247.80 568.38 L255.76 563.61 L267.85 557.99 L268.57 555.36 L263.42 554.09 L273.90 549.32 L270.06 547.76 L258.03 547.74 L257.31 545.36 L256.31 543.03 L253.43 541.00 L249.93 539.02 L250.60 536.36 L248.00 534.17 L248.21 531.58 L249.46 528.88 L249.76 526.32 L249.25 523.84 L246.92 521.51 L243.80 519.19 L242.54 516.70 L242.14 514.14 L238.87 511.70 L241.81 508.98 L244.35 506.34 L243.56 503.79 L242.95 501.23 L241.72 498.65 L238.59 496.02 L239.79 493.44 L243.62 490.97 L243.31 488.38 L244.10 485.85 L244.12 483.29 L242.22 480.57 L236.51 477.49 L236.21 474.81 L235.17 472.03 L236.12 469.46 L237.66 466.98 L237.64 464.31 L237.05 461.54 L239.22 459.19 L240.73 456.77 L238.84 453.76 L238.50 451.00 L239.53 448.49 L239.73 445.82 L238.91 442.92 L243.00 441.12 L247.54 439.50 L247.86 436.90 L248.73 434.44 L250.25 432.16 L247.48 428.69 L246.59 425.70 L249.92 423.95 L249.69 421.14 L248.37 417.94 L249.37 415.49 L249.29 412.66 L245.49 408.47 L244.23 405.12 L247.71 403.53 L252.71 402.60 L258.45 402.06 L262.42 400.89 L263.87 398.71 L265.66 396.69 L263.17 392.75 L259.48 388.17 L261.66 386.27 L256.80 380.95 L258.70 378.88 L261.37 377.21 L262.99 375.03 L265.10 373.13 L269.56 372.54 L272.93 371.43 L274.12 369.10 L272.84 365.31 L272.46 361.98 L272.34 358.78 L268.29 353.04 L275.17 354.23 L280.15 354.32 L281.17 351.82 L282.41 349.47 L285.94 348.72 L282.38 342.92 L282.51 339.68 L288.57 340.86 L290.28 338.83 L289.64 334.97 L291.61 333.12 L293.32 331.07 L287.04 322.36 L289.28 320.62 L292.73 319.95 L296.89 319.97 L300.21 319.31 L301.64 316.97 L302.24 313.83 L303.47 311.24 L303.08 307.04 L302.76 302.83 L305.72 301.86 L306.41 298.58 L308.77 297.01 L312.41 296.84 L313.62 294.06 L316.30 292.89 L320.40 293.39 L324.14 293.55 L324.96 290.31 L325.68 286.88 L327.78 285.09 L327.55 280.35 L328.66 277.21 L334.25 279.95 L337.48 279.68 L338.78 276.81 L342.76 277.67 L343.87 274.50 L342.84 268.08 L346.28 268.20 L350.61 269.77 L351.85 266.60 L353.57 264.13 L357.48 265.22 L359.00 262.40 L358.92 256.75 L361.44 255.50 L364.43 255.09 L366.68 253.38 L369.44 252.60 L372.97 253.34 L376.72 254.63 L378.91 252.85 L380.72 250.25 L383.63 249.96 L384.84 245.93 L386.09 241.86 L389.57 242.82 L392.05 241.48 L393.95 238.73 L396.41 237.27 L398.99 236.11 L400.54 232.17 L402.32 228.69 L405.54 229.16 L408.79 229.81 L412.09 230.73 L415.04 230.69 L418.11 231.06 L421.17 231.51 L424.59 233.31 L426.84 231.04 L429.09 228.60 L431.39 226.25 L433.81 224.25 L435.93 220.82 L438.76 220.34 L442.67 225.05 L445.48 224.79 L447.83 222.09 L451.07 224.16 L453.20 219.92 L455.36 215.40 L458.60 217.61 L461.33 216.54 L464.13 215.83 L466.98 215.53 L469.73 214.30 L472.31 211.15 L474.98 208.31 L478.00 209.44 L480.85 208.43 L483.71 207.15 L486.68 207.94 L489.57 206.95 L492.50 206.86 L495.48 209.97 L498.39 210.60 L501.29 209.47 L504.18 210.52 L507.04 211.82 L509.94 211.49 L512.82 211.70 L515.55 214.58 L518.31 216.15 L521.20 215.62 L524.14 214.77 L527.12 213.60 L530.28 211.12 L533.05 212.39 L535.80 213.72 L538.72 213.73 L541.46 214.91 L544.31 215.35 L547.71 212.44 L550.77 211.87 L553.87 211.21 L556.69 212.10 L558.21 219.23 L560.61 221.68 L562.62 225.66 L565.29 226.61 L568.45 225.55 L572.50 221.24 L575.74 220.28 L579.40 217.96 L582.94 216.31 L585.66 217.51 L588.14 219.47 L590.45 221.86 L592.51 224.92 L594.01 229.44 L596.73 230.36 L599.62 230.79 L603.53 228.61 L606.98 227.76 L611.47 224.45 L614.02 226.07 L614.05 233.54 L616.20 235.86 L620.61 233.10 L621.22 238.74 L624.39 238.78 L630.39 233.09 L630.98 238.55 L632.42 242.14 L635.03 243.41 L639.75 240.76 L641.33 243.99 L645.63 242.33 L651.79 237.59 L653.13 241.29 L654.51 244.81 L655.57 248.75 L657.83 250.71 L660.75 251.64 L664.00 252.09 L667.87 251.67 L672.33 250.48 L674.75 252.32 L677.62 253.51 L680.35 254.93 L681.81 258.06 L684.56 259.44 L686.53 261.84 L687.78 265.12 L687.86 269.78 L690.15 271.68 L694.35 271.32 L696.56 273.36 L700.79 273.10 L705.45 272.46 L705.38 277.06 L704.48 282.44 L707.38 283.73 L709.58 285.77 L710.70 288.89 L716.21 287.65 L719.81 288.40 L719.42 292.96 L721.21 295.42 L724.13 296.83 L724.54 300.52 L726.47 302.82 L731.15 302.77 L734.47 303.96 L735.62 306.97 L736.24 310.37 L736.40 314.11 L737.48 317.07 L737.69 320.66 L738.09 324.07 L739.77 326.51 L741.55 328.87 L740.39 333.28 L734.93 340.52 L736.91 342.62 L742.93 342.10 L738.54 348.32 L743.22 348.74 L753.68 345.73 L756.02 347.79 L755.71 351.42 L750.85 357.58 L749.65 361.54 L755.93 361.39 L752.30 366.60 L755.36 368.23 L766.30 365.94 L766.72 369.06 L768.58 371.46 L768.99 374.55 L763.61 380.26 L761.89 384.19 L768.56 384.43 L768.21 387.75 L767.55 391.16 L779.86 389.40 L781.61 391.95 L780.66 395.52 L777.10 399.99 L770.81 405.31 L774.40 407.12 L777.61 409.12 L773.96 413.34 L782.17 413.83 L789.37 414.79 L791.46 417.33 L791.20 420.54 L788.01 424.50 L781.81 429.13 L778.62 432.89 L776.81 436.25 L779.87 438.48 L780.98 441.18 L786.60 442.98 L795.17 444.34 L793.75 447.65 L787.92 451.65 L787.34 454.70 L794.93 456.52 L788.13 460.46 L790.87 463.05 L800.80 464.84 L801.77 467.78 L802.61 470.75 L800.36 473.99 L793.92 477.51 L792.20 480.58 L798.05 483.18 L793.09 486.40 L795.15 489.26 L805.46 491.94 L805.22 495.00 L805.54 498.05 L799.07 501.09 L792.73 503.99 L797.19 507.02 L798.24 510.03 L795.36 512.89 L803.11 516.27 L808.08 519.63 L809.96 522.86 L807.73 525.80 L801.85 528.35 L796.18 530.80 L797.95 534.00 L799.18 537.18 L794.44 539.58 L801.19 543.56 L807.04 547.54 L807.75 550.81 L802.49 553.05 L792.96 554.41 L794.24 557.70 L800.08 561.96 L792.72 563.50 L799.37 568.09 L811.02 574.02 L810.16 577.10 L810.53 580.49 L804.13 582.09 L792.18 582.01 L790.68 584.73 L798.11 590.14 L788.77 590.48 L791.16 594.43 L803.58 601.83 L804.05 605.38 L798.69 606.88 L789.05 606.70 L784.66 608.33 L787.49 612.71 L783.00 614.22 L781.98 617.11 L793.13 625.19 L793.07 628.65 L792.06 631.70 L788.88 633.76 L780.26 633.18 L773.19 633.19 L775.12 637.55 L774.03 640.45 L770.29 641.96 L777.14 649.12 L781.38 655.05 L779.22 657.52 L771.89 656.99 L763.86 655.89 L761.88 658.27 L761.79 661.81 L754.29 660.72 L755.72 665.22 L759.43 671.32 L758.56 674.48 L757.44 677.50 L753.76 678.73 L746.97 677.67 L745.01 680.00 L746.97 685.28 L740.15 683.94 L740.15 687.78 L744.44 695.11 L743.15 698.09 L740.56 700.02 L734.13 698.67 L730.66 699.72 L733.98 706.72 L729.35 706.75 L727.87 709.58 L733.48 719.10 L730.87 721.03 L728.78 723.45 L724.79 723.99 L718.22 721.84 L714.17 722.13 L714.29 726.75 L709.96 726.66 L707.20 728.22 L711.99 738.24 L710.69 741.60 L708.42 743.88 L702.87 742.25 L696.78 739.80 L694.87 742.37 L692.97 745.00 L687.22 742.65 L687.71 748.38 L688.60 754.81 L686.39 757.17 L684.19 759.55 L680.22 759.41 L674.16 756.13 L672.13 758.67 L671.60 763.54 L665.65 760.06 L665.35 765.41 L666.96 774.06 L665.55 777.96 L661.47 777.38 L655.60 773.55 L652.66 774.75 L651.69 779.54 L645.06 773.83 L642.97 776.53 L643.86 785.21 L641.13 786.89 L638.77 789.37 L635.26 789.43 L629.95 785.48 L625.52 783.23 L622.57 784.22 L619.85 785.73 L617.41 787.95 L615.59 791.79 L616.02 801.66 L612.80 802.27 L608.43 799.67 L603.70 795.83 L602.12 800.91 L599.85 804.20 L596.22 803.34 L595.87 813.05 L594.00 818.28 L590.98 819.81 L587.62 820.11 L583.03 815.71 L578.05 809.31 L575.63 812.89 L573.21 816.72 L568.85 812.05 L567.12 819.35 L565.29 826.81 L562.07 827.76 L557.91 823.45 L553.33 816.07 L550.35 817.71 L548.10 824.48 L543.72 816.74 L541.05 821.08 L538.93 830.71 L535.65 831.35 L532.30 831.36 L528.76 829.15 L524.88 821.72 L521.62 821.37 L518.85 829.35 L515.19 821.81 L512.06 824.22 L509.11 835.31 L505.78 836.57 L502.40 834.98 L499.07 827.94 L495.85 823.73 L492.53 827.13 L489.39 823.00 L486.22 821.40 L482.51 830.75 L479.16 831.31 L475.79 831.79 L472.53 830.90 L469.68 825.64 L466.96 820.14 L463.46 822.45 L460.31 821.47 L457.50 818.03 L453.30 824.75 L449.45 828.19 L446.11 828.01 L443.45 823.94 L441.35 817.18 L437.10 822.13 L432.10 830.14 L430.13 823.30 L424.90 831.41 L418.58 843.34 L415.54 840.93 L412.21 839.81 L409.43 836.60 L406.65 833.62 L403.91 830.64 L400.44 830.22 L397.66 827.54 L394.83 825.13 L390.84 826.31 L387.66 824.98 L384.70 823.03 L381.71 821.22 L379.75 816.76 L377.14 814.11 L374.00 812.88 L372.11 808.64 L368.65 808.24 L365.42 807.26 L362.11 806.44 L358.70 805.80 L355.61 804.46 L352.59 802.96 L349.07 802.48 L346.07 800.92 L343.63 798.30 L340.10 797.75 L337.26 795.91 L334.41 794.07 L331.77 791.89 L328.40 790.98 L325.07 789.96 L321.11 789.93 L318.10 788.32 L314.73 787.26 L310.44 787.55 L307.95 785.09 L304.77 783.64 L303.89 778.90 L305.52 770.79 L301.91 770.07 L296.92 771.16 L298.04 764.11 L292.51 765.79 L284.76 770.10 L281.48 768.67 L279.91 765.13 L282.57 756.66 L280.01 754.48 L272.40 758.03 L275.85 749.04 L270.80 749.59 L261.22 754.86 L259.09 752.04 L256.21 749.99 L255.10 746.16 L258.43 738.00 L257.19 734.48 L249.47 737.15 L250.42 731.56 L248.08 729.09 L236.64 734.72 L234.71 731.73 L234.10 727.61 L236.29 721.20 L239.16 714.39 L234.07 714.15 L232.27 711.22 L231.98 707.14 L222.07 710.39 L217.53 709.42 L214.23 707.47 L213.28 703.81 L215.14 698.23 L219.38 691.15 L220.49 686.32 L219.77 682.78 L215.77 681.37 L212.86 679.21 L205.15 679.95 L197.50 680.49 L198.59 675.78 L202.95 669.28 L200.58 666.68 L194.20 666.25 L199.13 659.70 L193.72 658.66 L184.81 659.30 L182.51 656.49 L179.61 653.96 L181.39 649.20 L186.91 642.82 L185.88 639.51 L178.43 638.98 L183.82 632.92 L179.90 630.82 L169.93 631.05 L168.76 627.70 L167.68 624.32 L172.81 618.68 L176.10 613.83 L169.63 612.41 L169.14 608.90 L168.83 605.34 L157.36 605.23 L154.45 602.35 L152.55 599.14 L153.22 595.21 L159.39 589.87 L163.29 585.25 L159.34 582.63 L159.22 579.06 L160.58 575.18 L150.38 573.77 L145.78 571.05 L144.09 567.70 L148.56 563.21 L156.77 558.20 L154.32 555.06 L147.01 552.61 L152.45 548.26 L146.19 545.52 L134.14 543.36 L133.00 539.78 L134.55 535.92 L139.69 531.78 L148.08 527.49 L146.97 524.03 L138.92 520.95 L147.27 516.93 L142.12 513.59 L128.92 510.38 L127.70 506.69 L132.96 502.92 L142.42 499.27 L144.12 495.72 L137.60 492.01 L144.26 488.60 L142.76 484.97 L128.08 480.63 L128.83 476.94 L128.65 473.20 L132.35 469.77 L141.34 466.90 L145.18 463.67 L142.11 459.73 L145.71 456.55 L146.33 453.03 L133.66 447.61 L131.61 443.56 L133.52 440.09 L140.39 437.52 L148.64 435.32 L149.83 431.92 L150.25 428.36 L155.92 425.93 L152.54 421.56 L147.82 416.78 L147.74 413.04 L148.07 409.37 L151.92 406.64 L158.39 404.71 L158.82 401.14 L156.58 396.76 L162.58 394.87 L159.94 390.30 L155.04 384.90 L155.55 381.23 L157.85 378.18 L165.15 377.00 L166.57 373.72 L159.90 367.29 L167.05 366.23 L165.81 361.83 L157.79 354.49 L159.94 351.38 L161.07 347.82 L165.45 345.75 L173.34 345.40 L176.43 342.89 L172.99 337.15 L179.91 336.58 L180.27 332.72 L172.54 324.48 L173.84 320.95 L175.79 317.78 L182.54 317.38 L188.89 316.86 L189.18 312.82 L192.03 310.32 L197.17 309.28 L193.70 302.79 L192.53 297.66 L194.15 294.31 L196.04 291.14 L200.84 290.01 L206.96 289.90 L207.45 285.78 L208.14 281.77 L214.50 282.04 L211.97 275.52 L208.82 268.35 L209.57 264.16 L214.14 263.09 L221.35 264.32 L223.38 261.25 L223.47 256.47 L232.12 259.28 L232.60 254.83 L229.63 247.09 L231.84 244.08 L233.53 240.56 L237.68 239.43 L244.87 241.46 L249.31 240.83 L252.20 238.64 L253.43 234.66 L256.44 232.59 L256.67 227.42 L253.48 218.22 L257.27 216.90 L263.02 217.93 L268.25 218.50 L267.55 211.82 L270.70 209.84 L274.05 208.12 L269.82 196.44 L271.75 192.64 L274.34 189.70 L277.96 188.17 L285.13 191.76 L291.22 194.01 L292.76 189.64 L296.41 188.41 L300.88 188.50 L298.53 177.76 L298.86 171.02 L301.88 168.55 L307.85 171.12 L315.16 176.23 L317.41 172.63 L319.13 167.95 L325.69 172.22 L326.32 165.38 L325.41 155.23 L328.64 153.05 L332.14 151.40 L337.42 153.55 L344.46 159.75 L347.73 157.89 L348.82 150.98 L354.99 155.82 L357.00 150.87 L356.68 139.87 L360.00 137.71 L364.76 139.34 L370.99 145.21 L375.80 147.50 L377.89 142.05 L383.10 145.78 L386.66 144.65 L387.34 134.20 L390.97 132.97 L394.28 130.64 L398.39 131.08 L403.57 135.69 L407.97 137.72 L410.91 134.00 L415.26 136.05 L419.13 136.26 L420.97 126.94 L424.33 124.34 L428.04 123.29 L432.62 127.09 L437.21 131.44 L440.14 126.10 L443.28 121.56 L447.59 124.73 L450.13 114.85 L452.99 106.01 L456.87 105.02 L460.79 104.24 L465.39 111.05 L469.95 119.29 L473.65 117.40 L477.27 113.58 L481.44 119.58 L484.97 112.50 L488.56 102.23 L492.53 101.96 L496.55 106.30 L500.48 114.83 L504.29 118.07 L508.19 114.57 L511.80 122.42 L515.66 120.41 L519.88 112.43 L523.79 111.98 L527.74 111.26 L531.49 113.20 L534.74 120.35 L538.27 123.26 L542.56 118.96 L545.74 124.58 L549.53 124.76 L554.55 116.33 L558.50 116.14 L562.27 117.14 L565.37 122.01 L568.40 126.77 L573.67 119.48 L578.50 115.19 L582.14 116.96 L589.20 103.41 L595.62 93.91 L599.72 94.71 L603.80 95.58 L607.73 97.04 L610.95 101.04 L613.72 106.37 L617.34 108.57 L620.84 111.05 L623.72 115.42 L628.04 115.22 L632.61 114.41 L637.30 113.38 L641.49 113.87 L645.13 115.87 L648.04 119.72 L652.15 120.42 L655.50 123.03 L658.53 126.34 L663.08 126.05 L667.73 125.66 L672.31 125.50 L676.33 126.65 L679.37 129.84 L682.36 133.08 L686.40 134.18 L689.04 137.99 L692.52 140.14 L697.05 140.35 L701.74 140.39 L706.37 140.59 L710.22 142.23 L712.97 145.71 L716.01 148.66 L719.55 150.77 L721.81 154.88 L725.24 157.14 L729.74 157.80 L734.52 158.12 L738.90 159.09 L742.28 161.52 L744.34 165.75 L747.69 168.19 L750.66 171.12 L752.27 175.78 L756.45 177.12 L760.95 178.13 L765.73 178.85 L769.59 180.74 L772.38 183.90 L773.67 188.75 L777.64 190.53 L779.69 194.45 L781.53 198.54 L785.98 199.85 L790.62 201.04 L794.82 202.72 L798.33 205.14 L800.17 209.19 L802.30 212.93 L805.20 215.93 L806.53 220.36 L809.16 223.58 L813.50 225.29 L817.71 227.16 L822.02 229.01 L824.41 232.50 L825.21 237.25 L827.80 240.53 L829.88 244.21 L830.09 249.29 L833.92 251.61 L838.04 253.76 L842.13 255.98 L846.42 258.11 L849.26 261.28 L851.06 265.17 L853.73 268.47 L856.32 271.84 L857.58 276.03 L861.30 278.70 L864.44 281.76 L866.48 285.49 L868.91 288.99 L872.02 292.13 L873.32 296.27 L875.69 299.82 L877.71 303.57 L881.22 306.57 L883.74 310.09 L884.14 314.65 L885.93 318.52 L889.54 321.56 L891.80 325.24 L892.35 329.68 L894.49 333.42 L897.98 336.62 L899.65 340.58 L899.60 345.21 L902.43 348.73 L904.73 352.47 L904.86 356.99 L906.63 360.92 L909.76 364.41 L910.83 368.60 L910.76 373.14 L913.88 376.69 L915.21 380.80 L914.30 385.54 L916.67 389.35 L918.98 393.21 L918.97 397.67 L920.10 401.83 L922.97 405.61 L924.76 409.66 L925.05 414.03 L927.64 417.95 L928.90 422.15 L929.81 426.42 L931.17 430.61 L931.96 434.91 L932.25 439.28 L933.30 443.55 L934.31 447.83 L934.59 452.20 L935.16 456.53 L935.92 460.86 L936.57 465.19 L937.17 469.54 L937.72 473.90 L938.51 478.25 L938.99 482.63 L939.42 487.01 L939.86 491.40 L940.06 495.79 L942.80 500.00 L942.82 495.57 L942.53 491.15 L942.34 486.73 L942.16 482.30 L941.91 477.89 L941.83 473.46 L941.48 469.05 L941.01 464.64 L940.53 460.25 L940.35 455.82 L939.55 451.45 L938.39 447.14 L938.10 442.72 L937.68 438.32 L936.30 434.06 L935.35 429.74 L935.11 425.31 L933.89 421.04 L933.24 416.68 L934.13 412.00 L931.96 407.93 L931.50 403.51 L932.41 398.75 L930.36 394.68 L928.20 390.66 L928.00 386.14 L927.16 381.78 L923.73 378.16 L922.75 373.84 L922.91 369.18 L919.36 365.67 L917.93 361.50 L918.25 356.74 L915.94 352.87 L912.88 349.29 L912.45 344.75 L911.48 340.40 L907.64 337.18 L906.11 333.07 L906.09 328.31 L903.73 324.53 L900.70 321.06 L899.40 316.83 L898.67 312.31 L895.88 308.77 L892.67 305.45 L891.18 301.29 L890.11 296.91 L887.35 293.39 L885.20 289.56 L882.27 286.17 L880.62 282.07 L878.48 278.24 L875.74 274.77 L874.16 270.60 L873.09 266.09 L869.22 263.34 L866.88 259.63 L864.70 255.81 L861.16 252.92 L858.90 249.16 L858.11 244.34 L857.11 239.63 L855.36 235.42 L853.28 231.44 L848.78 229.31 L845.53 226.25 L841.63 223.74 L836.64 222.16 L833.58 219.03 L832.23 214.44 L830.95 209.73 L828.90 205.66 L825.32 202.96 L821.31 200.67 L818.22 197.55 L813.52 195.99 L808.81 194.51 L806.07 191.10 L804.55 186.43 L802.71 182.02 L800.33 178.13 L795.61 176.77 L791.94 174.30 L788.84 171.21 L783.12 171.14 L779.00 169.29 L776.55 165.47 L774.30 161.35 L772.24 156.94 L768.99 153.98 L764.17 153.08 L760.49 150.71 L756.27 149.11 L751.03 148.96 L747.29 146.78 L744.71 142.92 L742.27 138.79 L739.58 134.96 L735.34 133.47 L730.80 132.52 L727.17 130.13 L722.19 130.00 L717.34 129.74 L713.90 127.11 L711.23 123.07 L708.29 119.45 L705.02 116.36 L700.97 114.72 L696.48 113.97 L692.41 112.41 L687.45 112.74 L682.69 112.74 L679.12 110.25 L676.06 106.58 L672.91 103.03 L669.32 100.40 L664.54 100.62 L660.30 99.59 L656.30 97.97 L650.96 99.92 L646.56 99.47 L643.03 96.68 L639.65 93.36 L636.11 90.36 L632.16 88.54 L627.30 89.64 L622.76 89.80 L618.00 90.87 L612.66 94.18 L607.85 95.90 L603.64 95.44 L599.55 94.61 L595.45 93.81 L593.97 81.35 L592.60 67.24 L587.86 68.34 L584.67 61.65 L581.59 53.67 L576.35 57.35 L571.16 61.26 L566.55 62.05 L562.22 61.02 L558.96 51.79 L554.42 51.66 L549.32 56.72 L545.37 51.38 L540.60 54.11 L535.61 60.27 L531.06 61.99 L526.70 61.43 L522.32 60.97 L518.28 52.08 L513.83 51.03 L509.17 58.91 L504.79 55.90 L500.35 59.41 L496.03 68.54 L491.80 73.14 L487.52 72.83 L482.85 62.69 L478.17 56.62 L474.15 63.87 L469.57 60.92 L465.12 60.53 L461.58 70.44 L457.98 77.79 L453.79 78.51 L449.56 78.84 L444.09 69.72 L438.65 62.12 L434.91 67.00 L429.95 63.74 L424.81 59.87 L421.56 66.97 L418.02 71.90 L413.82 73.12 L409.02 71.47 L403.07 64.92 L399.12 67.60 L395.43 71.19 L390.46 69.58 L387.33 75.11 L384.69 82.04 L380.93 84.67 L376.72 85.67 L372.54 86.79 L365.41 78.67 L361.45 80.79 L358.88 86.92 L353.64 85.18 L350.81 90.27 L349.43 99.00 L346.48 103.24 L342.58 104.97 L334.93 97.52 L329.43 95.67 L328.82 105.30 L322.55 101.79 L318.56 103.55 L318.52 113.71 L316.35 119.04 L312.44 120.68 L308.55 122.36 L300.62 116.29 L294.26 113.54 L294.21 122.58 L289.08 122.22 L284.38 122.71 L285.31 132.91 L284.60 140.02 L280.49 141.32 L273.83 138.62 L265.41 133.37 L263.29 138.07 L260.29 141.37 L254.98 141.24 L255.08 148.98 L255.90 157.50 L253.33 161.12 L249.19 162.58 L244.26 163.03 L234.49 157.33 L231.93 161.08 L228.43 163.63 L222.58 163.32 L221.91 169.30 L222.60 176.75 L220.21 180.48 L210.68 176.19 L206.11 177.62 L202.62 180.27 L198.32 182.08 L195.74 185.73 L194.63 190.82 L196.54 198.84 L195.14 203.44 L191.87 206.20 L188.80 209.16 L180.27 207.13 L176.10 209.20 L180.18 218.59 L175.35 220.05 L171.98 222.82 L174.67 230.62 L175.09 236.40 L170.45 238.06 L162.14 236.92 L155.66 237.37 L157.34 244.02 L152.76 245.97 L148.47 248.19 L151.11 255.33 L151.62 260.84 L149.03 264.20 L147.26 268.09 L141.68 269.53 L134.61 270.11 L136.29 276.21 L134.80 280.30 L131.62 283.37 L134.68 290.06 L137.85 296.67 L136.34 300.58 L134.10 304.08 L123.06 303.00 L119.89 306.16 L123.06 312.50 L116.75 314.11 L117.25 319.06 L122.13 325.97 L123.79 331.28 L122.22 335.09 L121.64 339.32 L110.01 338.97 L106.87 342.25 L110.81 348.33 L101.89 349.43 L100.83 353.57 L105.68 359.81 L106.23 364.42 L104.82 368.34 L97.18 370.26 L92.94 373.37 L98.29 379.43 L93.07 382.28 L91.11 386.14 L96.52 391.98 L98.54 396.81 L97.45 400.81 L95.96 404.72 L89.76 407.58 L85.00 410.85 L89.93 416.19 L88.83 420.25 L88.76 424.49 L96.67 430.10 L102.38 435.18 L103.16 439.38 L99.23 442.87 L87.11 445.35 L86.82 449.51 L89.61 454.01 L86.18 457.81 L90.77 462.41 L98.70 467.18 L102.32 471.48 L102.26 475.47 L102.21 479.46 L86.59 482.80 L86.40 486.93 L92.93 491.21 L87.54 495.22 L89.39 499.35 L99.16 503.37 L104.42 507.28 L104.60 511.24 L91.08 515.71 L85.90 520.06 L96.25 523.61 L88.74 528.18 L88.22 532.35 L98.25 535.61 L103.62 539.13 L106.34 542.84 L106.88 546.77 L95.76 552.20 L91.12 556.96 L98.43 560.04 L92.71 565.06 L90.90 569.55 L101.16 571.92 L107.19 574.90 L107.12 578.99 L103.81 583.79 L96.95 589.46 L100.40 592.89 L101.53 596.84 L100.12 601.43 L107.13 603.84 L114.42 606.05 L117.26 609.40 L117.86 613.37 L115.87 618.16 L107.43 625.06 L110.96 628.24 L112.82 631.93 L110.27 637.16 L116.46 639.31 L124.71 640.58 L126.42 644.21 L127.92 647.93 L121.30 654.96 L120.17 659.88 L128.58 660.73 L124.89 666.80 L128.13 669.83 L136.90 670.24 L142.08 672.19 L143.19 676.07 L144.72 679.76 L138.35 687.55 L137.85 692.43 L146.68 692.29 L144.02 698.38 L145.44 702.26 L154.53 701.68 L159.70 703.25 L155.53 710.45 L152.69 716.98 L153.60 721.25 L154.14 725.81 L157.81 728.33 L163.10 729.70 L171.71 728.67 L179.05 728.36 L182.44 730.76 L183.56 734.82 L183.03 740.17 L178.70 748.54 L183.70 749.77 L186.12 753.00 L186.71 757.73 L194.54 756.45 L201.97 755.34 L206.47 756.62 L209.22 759.39 L203.41 769.95 L205.77 773.23 L211.59 773.25 L209.21 781.07 L214.30 781.73 L223.04 778.64 L227.76 779.41 L230.40 782.30 L233.84 784.34 L229.36 794.98 L230.47 799.73 L238.93 796.23 L237.57 803.85 L241.18 805.79 L249.17 802.44 L253.39 803.48 L256.11 806.33 L254.15 815.21 L254.86 820.87 L262.56 817.32 L263.44 822.83 L266.15 825.91 L273.94 821.80 L279.43 820.76 L282.43 823.27 L285.90 825.09 L288.06 828.92 L291.20 831.28 L294.58 833.25 L297.20 836.50 L300.30 838.98 L303.73 840.89 L307.13 842.87 L310.91 844.17 L314.57 845.65 L317.61 848.30 L321.78 848.79 L325.41 850.28 L328.99 851.88 L332.88 852.79 L336.67 853.91 L340.27 855.39 L343.78 857.10 L347.53 858.25 L351.21 859.53 L355.71 858.77 L359.43 859.86 L363.86 859.09 L368.30 858.13 L372.22 858.49 L376.22 858.58 L379.71 860.12 L382.58 863.58 L387.20 861.61 L391.10 861.77 L394.75 862.75 L399.10 861.23 L403.36 859.80 L407.63 858.20 L411.35 858.56 L415.33 857.76 L416.06 871.20 L418.10 879.81 L423.26 873.96 L425.30 883.48 L428.17 889.45 L433.34 882.82 L437.78 879.77 L441.54 880.68 L444.71 885.66 L447.78 892.17 L452.12 889.24 L456.04 889.47 L459.72 892.05 L464.24 886.01 L468.54 881.01 L472.43 880.25 L476.19 881.10 L479.93 882.74 L483.40 891.48 L487.38 889.44 L491.35 886.41 L495.19 888.15 L499.08 883.29 L502.86 875.93 L506.60 874.68 L510.34 874.36 L514.51 885.57 L518.47 887.55 L521.88 879.45 L526.18 886.57 L529.88 884.28 L532.99 875.56 L536.42 871.94 L540.13 871.52 L543.92 871.70 L548.86 880.83 L553.12 883.54 L555.76 875.02 L560.37 879.85 L564.21 879.47 L566.45 870.20 L569.22 864.60 L572.74 863.31 L577.93 869.95 L582.91 874.95 L585.27 868.12 L589.68 870.29 L594.04 871.99 L595.61 862.91 L597.55 855.80 L600.91 854.10 L604.62 853.65 L609.68 857.57 L615.79 864.47 L618.42 860.23 L622.94 861.74 L627.81 864.09 L629.55 857.56 L631.09 850.82 L634.59 849.48 L641.70 857.24 L645.97 857.54 L650.04 857.26 L653.48 855.44 L656.71 853.18 L658.58 847.96 L659.39 840.67 L661.95 837.31 L665.71 836.48 L669.01 834.69 L676.28 840.58 L679.89 839.21 L679.04 829.60 L683.83 830.49 L686.85 828.16 L686.58 820.19 L688.19 815.65 L692.91 816.34 L700.49 821.50 L705.67 822.57 L705.12 814.72 L710.64 816.23 L714.60 815.29 L713.81 807.47 L715.10 802.82 L718.44 801.11 L721.16 798.53 L727.38 800.59 L732.92 801.60 L732.22 794.56 L735.71 792.91 L738.90 790.88 L737.47 783.30 L736.88 776.92 L739.53 774.43 L743.67 773.59 L752.81 778.21 L754.84 774.87 L755.76 770.38 L760.76 770.21 L760.86 764.96 L758.71 757.57 L759.22 752.96 L761.72 750.34 L763.45 747.00 L774.13 751.91 L776.39 748.94 L776.51 744.08 L783.90 745.59 L784.66 741.32 L782.20 734.43 L783.56 730.80 L785.80 727.91 L794.15 729.80 L798.15 728.16 L794.29 720.57 L800.72 720.73 L802.63 717.51 L799.44 710.71 L799.47 706.28 L801.97 703.58 L804.08 700.61 L811.75 701.23 L816.18 699.63 L811.67 692.46 L815.17 690.29 L816.12 686.57 L810.73 679.23 L806.99 673.01 L807.46 669.24 L814.82 669.21 L824.50 670.26 L823.36 665.55 L825.01 662.32 L829.84 660.63 L824.92 654.23 L818.27 647.20 L817.71 643.10 L819.67 640.15 L823.29 637.90 L835.97 639.35 L836.43 635.62 L835.18 631.23 L838.81 628.76 L836.25 623.96 L828.64 617.43 L825.60 612.68 L827.10 609.56 L842.13 610.80 L846.57 608.42 L838.66 602.24 L847.83 601.22 L847.50 597.37 L836.68 590.71 L831.83 585.86 L833.57 582.76 L834.51 579.45 L847.69 578.91 L854.13 576.66 L847.77 571.65 L854.68 569.38 L856.56 566.06 L847.85 560.85 L843.54 556.56 L844.61 553.21 L852.70 550.85 L859.32 548.14 L854.71 543.92 L856.92 540.57 L859.05 537.18 L852.55 532.95 L846.43 528.88 L844.60 525.26 L845.88 521.88 L852.11 518.74 L859.85 515.55 L856.14 511.82 L857.99 508.30 L862.21 504.78 L855.25 501.13 L848.99 497.62 L848.69 494.14 L848.33 490.66 L857.79 486.82 L858.94 483.18 L853.92 479.87 L858.71 476.00 L855.45 472.64 L847.71 469.74 L844.65 466.53 L844.89 463.02 L844.49 459.57 L854.33 454.82 L855.33 451.08 L847.86 448.56 L853.21 444.15 L850.86 440.92 L843.18 438.68 L839.60 435.81 L847.03 430.80 L852.02 426.14 L850.83 422.72 L852.34 418.68 L849.07 415.75 L844.29 413.26 L835.46 411.90 L830.32 409.71 L828.76 406.60 L828.19 403.20 L833.38 398.04 L840.06 392.26 L833.14 390.78 L833.85 386.83 L834.64 382.82 L825.96 382.19 L819.58 380.87 L816.48 378.41 L816.72 374.67 L825.34 367.48 L822.17 365.00 L819.72 362.25 L823.62 356.71 L817.61 355.56 L809.51 355.49 L805.93 353.42 L805.02 350.09 L802.72 347.44 L811.20 339.24 L810.29 335.76 L803.99 335.18 L806.04 330.09 L801.71 328.53 L793.51 329.28 L789.57 327.68 L788.32 324.49 L795.36 316.13 L796.70 311.15 L787.73 312.79 L790.27 306.99 L788.23 304.15 L779.06 306.28 L773.92 305.76 L772.23 302.84 L769.70 300.53 L766.27 298.91 L762.42 297.67 L759.97 295.39 L756.02 294.31 L752.29 293.12 L749.08 291.55 L748.31 287.94 L749.03 282.98 L746.30 280.99 L742.32 280.15 L741.17 276.75 L737.99 275.24 L732.62 275.87 L732.07 271.88 L733.58 265.75 L729.26 265.45 L726.44 263.65 L724.92 260.49 L718.27 262.86 L713.00 263.89 L713.88 258.09 L713.07 254.09 L710.27 252.36 L709.94 247.69 L706.99 246.11 L701.63 247.57 L697.36 247.78 L694.50 246.25 L691.71 244.64 L687.70 244.71 L685.49 242.36 L682.90 240.52 L679.97 239.17 L679.73 233.86 L678.49 229.92 L675.41 228.72 L673.22 226.15 L670.06 225.09 L664.52 228.00 L660.15 229.14 L656.30 229.52 L655.67 224.28 L654.16 220.46 L650.66 220.22 L648.69 217.14 L646.40 214.61 L642.35 215.55 L637.85 217.50 L636.96 212.05 L634.95 208.82 L630.35 211.19 L628.13 208.39 L625.20 207.14 L620.04 211.26 L616.63 211.33 L615.19 206.49 L612.82 203.85 L610.26 201.64 L607.84 198.96 L604.53 198.73 L600.31 201.28 L596.69 202.25 L593.39 202.30 L589.98 202.81 L586.65 203.12 L584.30 200.06 L581.73 197.61 L578.95 195.85 L576.79 191.54 L574.09 189.14 L570.79 189.27 L567.33 190.19 L563.76 191.75 L559.65 196.37 L556.82 194.66 L553.97 192.93 L551.02 191.66 L548.49 187.58 L545.34 187.25 L542.01 188.32 L538.95 187.49 L535.61 188.92 L532.38 189.69 L529.54 186.61 L526.48 185.42 L523.41 184.17 L520.26 183.82 L517.01 185.28 L513.68 189.08 L510.57 189.06 L507.46 189.05 L504.32 190.75 L501.23 192.13 L498.14 191.41 L495.08 192.62 L492.10 196.51 L489.08 196.97 L486.02 196.46 L483.06 197.97 L480.01 197.67 L476.94 197.22 L474.07 199.35 L470.81 196.97 L467.51 194.70 L464.35 194.12 L461.36 194.97 L458.35 195.65 L455.25 195.72 L452.71 199.36 L448.93 195.20 L445.32 192.59 L442.86 196.40 L439.47 195.16 L436.54 196.34 L434.93 203.47 L432.02 204.35 L428.43 202.40 L425.04 201.50 L421.70 200.86 L418.38 200.44 L415.03 200.02 L412.89 203.79 L410.54 206.68 L408.14 209.27 L405.57 211.20 L403.64 214.97 L401.48 217.93 L399.33 220.77 L395.60 219.25 L391.68 217.40 L388.96 218.76 L386.14 219.84 L382.71 219.47 L380.06 221.00 L378.44 224.86 L374.15 222.69 L370.24 221.49 L368.11 224.16 L364.80 224.37 L361.82 225.27 L360.72 229.85 L359.39 233.84 L356.96 235.67 L354.26 237.00 L352.44 239.88 L350.08 241.77 L344.67 238.51 L341.18 238.63 L340.90 243.98 L337.70 244.56 L334.19 244.70 L334.32 250.41 L333.23 254.13 L327.03 250.40 L323.80 251.10 L323.70 256.16 L320.34 256.68 L319.58 260.70 L321.41 267.99 L317.73 268.04 L312.69 266.47 L310.86 268.96 L306.59 268.51 L303.22 269.21 L303.33 273.96 L303.57 278.73 L302.46 281.92 L299.83 283.41 L300.05 287.94 L298.40 290.43 L295.24 291.36 L294.58 294.83 L290.19 294.60 L285.24 293.92 L283.39 296.26 L280.62 297.76 L278.22 299.61 L279.27 304.53 L280.77 309.74 L280.79 313.56 L279.28 316.05 L272.63 314.33 L270.21 316.15 L269.42 319.27 L266.28 320.56 L264.59 322.97 L266.39 327.95 L263.85 329.70 L259.09 329.90 L258.12 332.82 L257.16 335.72 L255.51 338.14 L256.47 342.26 L259.41 347.55 L254.69 347.98 L251.18 349.23 L249.16 351.42 L245.99 352.95 L244.04 355.21 L245.23 359.23 L246.47 363.21 L246.45 366.46 L245.03 368.95 L245.80 372.54 L245.24 375.43 L239.89 376.03 L239.29 378.92 L235.63 380.42 L231.00 381.55 L230.29 384.45 L230.26 387.61 L230.74 390.96 L233.81 395.29 L236.22 399.27 L237.60 402.79 L234.27 404.57 L228.64 405.60 L226.74 407.99 L226.19 410.85 L223.42 412.99 L221.56 415.46 L224.01 419.21 L221.25 421.42 L217.51 423.41 L218.02 426.56 L217.75 429.50 L217.26 432.37 L221.74 436.38 L225.24 440.06 L223.56 442.59 L222.87 445.33 L223.33 448.29 L222.46 450.99 L219.41 453.34 L220.84 456.44 L222.45 459.53 L221.60 462.25 L221.23 465.03 L222.61 468.02 L223.44 470.92 L222.17 473.59 L221.02 476.29 L215.44 478.68 L212.74 481.37 L213.04 484.26 L214.18 487.19 L213.34 490.03 L218.37 493.02 L219.44 495.85 L216.76 498.65 L215.73 501.48 L215.32 504.33 L215.30 507.18 L218.85 509.91 L222.56 512.55 L219.81 515.49 L219.82 518.30 L218.72 521.20 L216.55 524.21 L214.37 527.28 L215.06 530.09 L216.36 532.83 L218.94 535.38 L219.89 538.11 L217.48 541.32 L219.09 543.96 L216.81 547.22 L214.90 550.47 L214.45 553.50 L215.64 556.23 L206.29 561.14 L204.23 564.66 L216.11 565.04 L213.81 568.59 L217.30 570.75 L231.18 570.14 L240.51 570.48 L243.32 572.48 L244.39 574.95 L226.97 583.03 L221.93 587.61 L231.54 587.54 L223.08 593.38 L223.27 596.41 L235.30 595.19 L239.65 596.58 L238.93 599.83 L232.97 605.18 L226.17 611.03 L229.98 612.64 L230.55 615.58 L231.58 618.34 L238.44 618.45 L243.96 619.05 L251.36 618.65 L252.19 621.31 L244.99 628.01 L240.97 633.29 L247.22 633.28 L245.29 637.57 L241.74 642.84 L250.15 641.47 L258.12 640.17 L263.69 640.12 L268.06 640.69 L257.15 650.64 L257.56 653.76 L263.93 653.06 L260.85 658.47 L265.29 658.93 L276.05 654.93 L281.66 654.31 L280.19 658.66 L280.33 661.93 L270.50 672.74 L268.83 677.65 L277.62 674.46 L276.85 678.70 L280.87 679.10 L292.22 673.32 L296.16 673.52 L296.66 676.63 L291.16 685.11 L286.09 693.45 L292.61 691.36 L292.90 694.97 L294.87 697.02 L301.40 694.60 L308.38 691.55 L314.03 689.66 L314.67 692.83 L309.49 702.22 L307.53 708.44 L313.84 705.70 L312.01 711.94 L311.21 717.18 L319.33 712.08 L326.91 707.36 L331.31 706.24 L332.94 708.47 L326.87 720.52 L330.02 721.03 L334.03 720.33 L333.33 725.94 L337.92 724.38 L345.65 718.24 L349.28 717.69 L350.11 721.19 L351.30 724.23 L345.89 737.52 L348.15 739.23 L354.07 735.07 L355.06 738.77 L359.76 736.32 L368.13 727.36 L370.97 727.68 L372.30 730.69 L369.24 741.90 L367.92 750.28 L374.03 744.60 L374.42 749.96 L377.09 750.87 L382.78 745.43 L387.52 741.69 L390.78 740.96 L393.00 742.48 L391.11 753.59 L392.05 758.51 L397.41 752.76 L397.81 759.17 L399.52 762.49 L405.46 754.58 L410.28 749.22 L411.20 754.61 L411.04 763.52 L413.01 766.43 L414.44 771.22 L418.09 769.00 L422.04 765.54 L426.90 758.50 L432.42 748.45 L435.38 747.32 L437.34 750.01 L438.97 754.27 L438.20 769.29 L441.07 769.10 L444.46 766.35 L446.79 768.57 L450.06 766.01 L454.32 757.52 L458.00 751.32 L460.40 752.50 L460.67 768.27 L463.08 770.65 L466.75 763.41 L468.26 773.42 L470.97 773.93 L474.50 765.96 L477.51 762.21 L480.20 761.51 L482.93 759.98 L484.88 771.80 L487.46 775.02 L490.56 765.31 L493.08 770.47 L495.79 770.21 L498.56 757.97 L501.12 753.22 L503.67 754.27 L506.41 762.47 L509.36 771.74 L511.91 768.01 L514.73 770.36 L517.53 771.68 L519.84 766.03 L521.97 759.63 L524.45 758.19 L527.19 759.42 L530.42 764.66 L533.94 771.36 L536.01 766.23 L538.47 764.51 L541.39 765.90 L542.64 757.01 L543.63 747.61 L546.45 748.99 L549.18 749.74 L554.07 760.78 L557.49 764.01 L558.98 758.40 L562.23 760.56 L563.90 756.20 L564.93 749.66 L566.04 743.89 L567.70 740.46 L570.56 741.34 L576.83 753.35 L579.30 752.38 L579.85 745.53 L585.53 754.32 L587.32 751.29 L586.66 741.57 L587.20 735.64 L588.06 730.86 L594.08 739.42 L598.63 743.81 L598.05 735.57 L602.24 738.86 L605.12 738.97 L603.49 729.02 L601.92 719.66 L604.90 720.29 L608.61 722.33 L614.52 728.59 L621.30 736.19 L621.47 730.82 L623.49 729.08 L625.92 728.10 L623.26 718.09 L621.35 709.78 L623.83 709.21 L627.57 710.70 L637.04 721.31 L639.64 720.56 L639.89 716.13 L643.24 716.54 L643.40 712.14 L641.06 704.24 L639.47 697.69 L641.28 696.06 L644.12 695.84 L654.70 705.87 L656.23 703.63 L656.19 699.43 L662.88 703.73 L662.83 699.55 L658.44 690.24 L656.93 684.65 L656.71 680.70 L666.81 688.50 L671.90 690.38 L667.15 681.44 L673.88 685.00 L676.04 683.58 L671.78 675.59 L668.74 669.07 L672.02 668.94 L674.93 668.40 L684.33 673.92 L690.60 676.27 L686.48 669.04 L689.48 668.33 L692.26 667.40 L686.79 659.38 L683.10 653.09 L684.70 651.31 L691.76 653.92 L701.40 658.37 L700.43 654.39 L701.78 652.24 L705.53 651.87 L702.36 646.42 L697.06 639.60 L696.48 636.26 L698.38 634.66 L702.59 634.58 L713.59 638.83 L713.27 635.61 L713.02 632.48 L717.34 632.17 L712.85 626.54 L704.77 618.98 L702.18 614.79 L716.34 619.98 L720.89 619.63 L723.29 618.06 L728.27 617.79 L726.44 613.99 L722.72 609.34 L713.44 602.15 L708.30 597.14 L710.20 595.48 L712.10 593.80 L726.32 597.39 L732.32 597.23 L725.67 591.81 L731.20 591.37 L734.03 589.80 L727.32 584.62 L720.71 579.66 L720.30 577.03 L730.92 578.16 L737.15 577.64 L731.09 573.10 L736.39 572.19 L741.16 571.01 L733.92 566.35 L726.62 561.84 L726.92 559.48 L725.38 556.68 L731.22 555.69 L741.43 555.61 L737.94 552.30 L737.60 549.74 L740.52 547.85 L735.28 544.36 L726.77 540.42 L725.28 537.83 L726.11 535.65 L741.38 535.59 L743.26 533.38 L736.14 530.00 L741.22 528.20 L737.70 525.38 L726.41 521.89 L719.97 519.05 L718.94 516.75 L718.89 514.55 L736.85 513.37 L740.30 511.15 L736.22 508.60 L747.20 506.52 L747.53 504.05 L741.86 501.54 L739.34 499.13 L739.14 496.74 L746.17 494.18 L749.34 491.61 L742.33 489.42 L745.71 486.81 L746.43 484.30 L739.04 482.37 L735.13 480.29 L734.71 477.96 L735.18 475.54 L740.56 472.55 L744.30 469.64 L738.17 467.98 L738.50 465.51 L737.34 463.25 L728.26 462.31 L721.58 461.14 L720.26 459.09 L722.27 456.42 L733.52 451.78 L732.73 449.51 L728.99 447.92 L731.36 444.94 L725.50 443.95 L715.66 444.10 L712.56 442.63 L713.00 440.22 L712.86 437.95 L726.65 431.47 L727.70 428.66 L723.26 427.59 L728.80 423.25 L726.86 421.37 L719.89 421.32 L717.65 419.66 L717.37 417.28 L724.37 412.04 L725.86 408.84 L717.49 409.68 L720.55 405.81 L719.49 403.66 L711.60 404.58 L707.69 403.83 L706.76 401.74 L705.94 399.60 L711.59 394.21 L713.29 390.68 L705.59 392.02 L708.04 388.06 L706.97 385.95 L698.24 388.17 L692.81 388.68 L691.20 387.04 L693.89 382.82 L699.37 376.77 L695.53 376.42 L693.96 374.68 L694.86 371.32 L688.71 372.65 L681.70 374.72 L679.01 373.92 L678.80 371.37 L680.31 367.53 L687.01 359.71 L684.07 359.01 L680.94 358.52 L682.37 354.44 L677.34 355.53 L670.39 358.33 L668.03 357.43 L667.11 355.31 L673.26 346.92 L673.48 343.61 L666.20 347.14 L668.53 341.85 L665.68 341.38 L658.15 345.53 L654.64 345.91 L653.43 344.02 L652.22 342.12 L657.61 333.23 L657.83 329.62 L651.48 333.16 L654.29 326.60 L652.52 325.11 L645.86 329.32 L642.22 330.18 L644.60 323.78 L645.45 319.08 L644.50 316.54 L644.13 313.20 L641.78 312.39 L638.48 312.90 L632.89 316.66 L628.54 318.86 L626.62 317.73 L625.13 315.98 L625.47 311.45 L626.63 305.52 L622.03 308.42 L618.93 309.11 L617.50 307.13 L613.49 309.44 L609.00 312.74 L606.74 312.35 L606.36 308.59 L608.93 299.26 L606.71 298.56 L602.76 301.25 L602.97 295.86 L599.57 297.59 L595.18 301.52 L592.81 301.39 L590.80 300.53 L588.63 300.02 L590.17 290.93 L588.02 290.16 L583.11 296.18 L582.41 291.96 L579.40 293.56 L574.82 299.51 L572.06 300.84 L570.30 299.47 L570.74 291.55 L570.22 286.09 L566.10 291.61 L565.01 287.71 L563.23 285.89 L559.23 291.81 L555.70 296.48 L553.38 297.03 L551.18 297.16 L550.59 290.71 L549.72 284.91 L546.48 289.35 L545.29 284.53 L543.82 280.63 L540.42 286.59 L537.64 289.78 L535.45 289.91 L533.53 288.42 L532.63 279.89 L530.07 282.13 L527.66 283.63 L525.85 280.36 L523.20 284.32 L520.54 289.24 L518.35 289.99 L516.32 288.93 L514.22 288.57 L512.60 279.77 L510.33 281.12 L507.94 286.44 L505.84 284.96 L503.61 289.98 L501.45 297.91 L499.44 302.24 L497.45 300.94 L495.19 289.51 L492.94 285.01 L491.14 293.31 L488.82 288.52 L486.74 289.28 L485.27 298.08 L483.74 304.15 L481.92 305.85 L479.97 305.91 L476.74 294.76 L474.00 289.43 L473.11 298.76 L470.41 294.24 L468.01 292.34 L467.34 301.22 L466.66 309.03 L465.06 311.03 L461.83 304.51 L457.69 294.26 L456.44 298.45 L454.37 298.63 L451.32 294.72 L450.99 302.15 L450.89 309.92 L449.73 313.14 L448.25 315.06 L445.33 311.87 L439.80 300.35 L438.60 303.47 L436.55 303.83 L433.05 299.88 L432.77 305.51 L433.87 314.73 L432.54 316.82 L430.60 317.19 L425.12 308.54 L421.89 306.02 L422.65 313.34 L418.94 309.77 L417.95 312.68 L419.32 320.70 L419.41 325.58 L417.46 325.95 L414.96 325.22 L408.07 315.77 L404.78 313.86 L406.85 322.30 L401.56 316.70 L399.58 317.41 L402.18 326.28 L402.47 330.77 L401.06 332.23 L395.83 327.33 L391.61 324.34 L392.19 329.11 L388.84 327.66 L386.09 327.21 L389.03 335.28 L390.51 340.92 L389.54 342.91 L387.51 343.37 L382.66 340.02 L376.41 334.99 L376.86 338.96 L375.55 340.59 L372.43 339.92 L374.18 345.31 L376.64 351.39 L375.39 352.91 L366.19 345.21 L362.28 343.88 L360.21 344.68 L359.13 346.59 L359.22 349.74 L361.29 354.88 L365.53 362.10 L366.66 365.97 L364.41 366.41 L363.76 368.43 L354.22 362.01 L350.85 361.62 L355.03 368.17 L349.29 365.68 L349.88 368.88 L355.06 375.93 L356.23 379.40 L356.20 381.81 L348.14 377.70 L343.08 376.20 L347.27 381.96 L341.30 379.87 L338.21 380.05 L344.27 386.94 L346.87 391.15 L346.17 392.95 L345.47 394.74 L339.29 392.87 L333.02 391.09 L336.38 395.59 L333.28 395.94 L330.18 396.36 L336.24 402.29 L340.09 406.74 L339.49 408.53 L336.80 409.15 L326.58 405.72 L327.28 408.32 L328.37 411.09 L324.18 411.14 L327.82 415.13 L333.33 419.91 L333.97 422.25 L333.91 424.24 L332.76 425.72 L320.97 422.62 L320.76 424.65 L322.62 427.51 L316.35 427.08 L318.04 429.85 L322.19 433.48 L323.04 435.81 L322.51 437.62 L314.67 436.94 L311.79 438.06 L318.65 442.32 L313.44 442.71 L313.08 444.64 L319.29 448.44 L321.57 451.01 L321.06 452.79 L320.18 454.47 L312.79 454.59 L309.74 455.86 L316.42 459.34 L314.09 460.77 L314.94 462.88 L323.86 466.50 L329.34 469.30 L329.14 471.03 L323.28 471.85 L313.59 472.22 L315.94 474.44 L316.58 476.40 L314.01 477.96 L320.99 480.60 L329.92 483.28 L331.95 485.18 L330.42 486.75 L326.65 488.20 L313.94 489.20 L314.13 491.08 L314.70 492.96 L309.35 494.67 L312.07 496.62 L317.95 498.55 L318.92 500.37 L318.05 502.19 L309.27 504.20 L307.97 506.15 L314.85 507.79 L310.48 509.87 L312.30 511.66 L320.00 512.99 L323.00 514.55 L322.50 516.38 L323.29 518.09 L314.53 520.87 L312.70 522.97 L322.20 523.61 L317.99 526.03 L318.29 527.84 L327.21 528.25 L332.13 529.17 L331.31 531.05 L324.04 534.21 L319.04 537.07 L324.86 537.70 L322.39 540.10 L320.88 542.32 L329.02 542.21 L334.69 542.57 L336.65 543.81 L336.24 545.68 L330.92 548.99 L324.54 552.75 L328.68 553.38 L330.11 554.80 L329.48 556.89 L336.10 556.51 L343.94 555.56 L347.87 555.88 L347.63 557.71 L334.90 564.42 L334.83 566.36 L340.51 565.94 L335.23 570.06 L339.00 570.37 L348.40 568.07 L352.63 567.95 L352.34 569.88 L354.04 570.87 L342.84 578.26 L340.78 581.29 L346.37 580.38 L340.34 585.58 L341.93 586.77 L349.06 584.83 L351.74 585.29 L346.36 590.44 L343.40 594.30 L344.69 595.65 L343.79 598.38 L345.78 599.30 L348.16 599.92 L355.03 597.49 L358.82 597.01 L359.67 598.51 L360.35 600.13 L357.15 604.60 L354.68 608.66 L361.10 606.04 L362.25 607.36 L362.64 609.28 L367.89 607.27 L372.97 605.28 L373.22 607.23 L371.65 610.78 L366.19 617.85 L369.09 617.63 L371.47 617.84 L370.08 621.53 L374.03 620.22 L379.11 617.71 L380.47 618.73 L381.23 620.35 L382.89 621.08 L378.00 628.68 L380.21 628.91 L385.06 626.19 L384.38 629.51 L388.34 627.63 L394.36 623.21 L396.63 623.03 L397.45 624.57 L393.21 632.39 L392.29 636.30 L398.36 631.30 L396.66 636.28 L398.00 637.35 L403.70 632.42 L407.51 629.90 L409.37 630.01 L411.02 630.40 L407.88 637.95 L406.93 642.45 L411.84 637.92 L409.79 644.29 L409.95 647.28 L415.04 642.14 L418.02 640.32 L419.53 640.95 L419.23 644.81 L417.82 650.87 L421.30 647.99 L422.47 649.36 L422.95 652.16 L426.96 647.88 L430.24 644.88 L431.94 645.04 L433.16 646.23 L433.75 648.85 L432.35 656.18 L435.19 653.83 L437.83 651.77 L439.35 652.40 L442.85 647.90 L446.77 641.94 L449.71 638.32 L450.77 639.72 L447.95 652.59 L448.69 655.49 L452.73 648.21 L452.12 655.46 L454.20 654.18 L458.63 644.56 L461.53 639.68 L462.75 640.75 L464.32 640.48 L462.84 652.66 L463.22 657.96 L466.84 649.14 L467.19 654.90 L468.66 655.62 L472.02 646.45 L474.70 640.04 L476.22 639.56 L476.04 649.63 L476.31 658.06 L478.77 652.01 L479.87 655.44 L481.00 659.23 L483.72 649.11 L486.10 640.33 L487.56 639.73 L488.98 639.69 L489.90 646.66 L490.74 657.42 L492.42 655.25 L493.95 656.08 L495.41 659.44 L497.12 653.44 L498.73 645.53 L500.18 644.53 L501.63 644.98 L503.34 657.16 L504.94 657.96 L506.27 652.04 L508.01 656.23 L509.40 653.28 L510.36 645.23 L511.49 641.14 L512.95 641.49 L514.42 641.94 L517.22 654.17 L518.91 655.18 L519.67 649.02 L522.20 656.17 L523.50 654.17 L523.71 645.77 L524.68 642.71 L526.05 642.15 L528.91 649.30 L531.31 653.49 L531.59 647.34 L534.02 651.23 L535.69 651.58 L535.32 643.54 L535.58 638.64 L536.78 637.57 L538.30 637.72 L541.68 644.29 L544.75 649.28 L544.62 643.61 L546.90 645.79 L548.99 647.22 L548.06 639.76 L547.95 635.01 L549.97 636.37 L554.70 644.77 L556.94 646.26 L559.22 647.72 L559.63 644.56 L560.12 641.70 L558.86 634.96 L557.53 628.40 L557.72 625.44 L559.51 626.01 L560.38 624.61 L567.34 635.49 L568.90 635.22 L567.61 629.48 L571.19 633.06 L570.77 629.16 L568.08 621.36 L567.85 618.16 L568.52 616.62 L574.91 624.63 L578.06 626.96 L575.12 619.48 L580.46 625.19 L582.14 625.03 L578.21 616.50 L577.24 612.60 L578.02 611.33 L579.12 610.53 L584.81 616.02 L589.17 619.45 L585.84 612.62 L589.87 615.50 L592.20 616.08 L588.32 608.94 L586.73 604.81 L588.18 604.43 L592.51 607.35 L598.39 611.90 L596.53 607.60 L597.73 606.77 L600.61 607.73 L597.31 602.12 L594.70 597.42 L595.14 595.94 L596.37 595.25 L596.84 593.82 L596.31 591.45 L594.88 588.31 L593.46 585.26 L592.09 582.34 L590.55 579.35 L589.65 576.99 L589.91 575.66 L590.76 574.84 L590.73 573.30 L591.00 572.03 L591.50 570.95 L590.99 569.11 L591.03 567.72 L591.59 566.72 L591.33 565.14 L591.38 563.81 L591.83 562.76 L592.24 561.70 L592.62 560.62 L592.90 559.49 L593.59 558.62 L593.96 557.55 L594.25 556.44 L594.68 555.42 L595.20 554.45 L595.42 553.32 L595.78 552.27 L596.09 551.20 L596.30 550.08 L596.57 549.00 L596.81 547.91 L597.05 546.83 L597.46 545.83 L597.58 544.70 L597.86 543.65 L598.23 542.64 L598.45 541.57 L598.62 540.49 L598.95 539.47 L599.18 538.42 L599.23 537.30 L599.45 536.25 L599.53 535.16 L599.61 534.07 L599.64 532.97 L599.75 531.90 L599.97 530.87 L600.01 529.79 L600.14 528.75 L600.28 527.71 L600.41 526.66 L600.43 525.60 L600.53 524.56 L600.59 523.51 L600.56 522.44 L600.60 521.40 L600.51 520.33 L600.53 519.29 L600.52 518.24 L600.44 517.20 L600.46 516.17 L600.43 515.13 L600.40 514.10 L600.36 513.07 L600.32 512.05 L600.20 511.02 L600.15 510.00 L600.01 508.98 L599.86 507.96 L599.76 506.95 L599.60 505.94 L599.43 504.93 L599.27 503.93 L599.15 502.93 L598.96 501.94 L598.82 500.94 Z"/>
  <svg class="pausebutton" id="pausebutton">
    <circle cx="500" cy="500" id="pausestart" class="pausestart" r="52.65"/>
    <rect height="50.02" width="10.00" y="473.68" rx="2.00" ry="2.00" x="479.99" class="pausesymbol"/>
    <rect height="50.02" width="10.00" y="473.68" rx="2.00" ry="2.00" x="510.00" class="pausesymbol"/>
    <polygon points="530.01,500 479.99,530.01 479.99,469.99" class="playsymbol"/>
  </svg>
  <polygon id="playback-head" class="playback-head" points="941.65,500 921.65,540 961.65,540"/>
</svg>