<?xml-stylesheet href="../../style/waveformjs.css" type="text/css"?>
<svg xmlns="http://www.w3.org/2000/svg" xmlns:xlink="http://www.w3.org/1999/xlink" width="100%" height="100%" viewBox="0 0 1000 1000">
  <path class="svg-wave" id="sp" d="M596.28 500.00 L596.39 500.96 L596.47 501.93 L596.63 502.90 L596.66 503.87 L596.73 504.84 L596.80 505.81 L596.90 506.79 L596.88 507.77 L596.88 508.74 L596.93 509.73 L596.86 510.70 L596.93 511.69 L596.89 512.67 L596.91 513.66 L596.85 514.64 L596.74 515.61 L596.76 516.61 L596.64 517.59 L596.54 518.57 L596.39 519.54 L596.32 520.53 L596.19 521.51 L595.97 522.47 L595.89 523.46 L595.61 524.41 L595.40 525.38 L595.16 526.34 L595.07 527.34 L594.70 528.26 L594.39 529.20 L594.14 530.15 L593.82 531.09 L593.56 532.05 L593.11 532.94 L592.76 533.86 L592.35 534.76 L591.76 535.59 L591.47 536.53 L591.08 537.44 L590.44 538.24 L589.79 539.02 L589.17 539.82 L588.83 540.74 L588.02 541.44 L587.02 542.04 L586.70 542.95 L586.03 543.70 L585.20 544.36 L585.17 545.43 L583.97 545.87 L583.64 546.78 L583.47 547.79 L582.68 548.44 L582.76 549.61 L582.47 550.56 L582.36 551.64 L582.68 553.00 L582.36 553.96 L582.64 555.33 L582.45 556.41 L582.62 557.75 L582.76 559.08 L582.32 560.02 L581.92 561.00 L581.44 561.91 L581.26 563.06 L580.52 563.79 L580.19 564.84 L580.06 566.07 L579.56 567.01 L578.46 567.44 L577.09 567.61 L576.32 568.30 L575.54 568.97 L574.26 569.18 L573.81 570.16 L574.07 571.82 L574.12 573.32 L573.36 574.04 L572.67 574.83 L573.02 576.70 L571.83 576.98 L570.90 577.52 L570.51 578.67 L569.24 578.82 L568.40 579.46 L567.32 579.80 L566.11 579.98 L565.76 581.18 L565.12 582.07 L564.13 582.49 L563.72 583.68 L563.97 585.77 L563.10 586.39 L562.49 587.39 L562.50 589.27 L561.90 590.32 L561.33 591.44 L560.60 592.33 L560.00 593.45 L559.32 594.44 L558.54 595.31 L557.60 595.92 L556.36 596.01 L555.48 596.72 L554.63 597.48 L553.82 598.34 L553.09 599.34 L552.21 600.08 L551.09 600.38 L550.30 601.33 L549.39 602.04 L548.04 601.83 L546.83 601.90 L546.23 603.31 L545.08 603.49 L543.76 603.28 L543.05 604.50 L542.19 605.38 L540.99 605.43 L539.89 605.73 L538.92 606.35 L538.00 607.16 L536.96 607.63 L535.84 607.87 L535.05 609.11 L533.85 609.11 L532.62 609.00 L531.63 609.66 L530.34 609.30 L529.16 609.25 L528.32 610.56 L527.15 610.57 L526.15 611.27 L525.10 611.85 L523.97 612.02 L522.92 612.62 L521.66 612.16 L520.63 612.85 L519.70 614.21 L518.46 613.82 L517.48 615.01 L516.48 616.25 L515.35 616.71 L514.18 616.83 L513.01 616.97 L511.93 617.94 L510.73 617.84 L509.54 617.78 L508.41 618.64 L507.26 619.31 L506.07 619.31 L504.86 619.14 L503.70 620.18 L502.49 619.78 L501.28 618.89 L500.10 620.36 L498.89 620.31 L497.69 620.16 L496.48 620.55 L495.27 620.52 L494.04 620.98 L492.86 620.44 L491.67 620.18 L490.39 621.03 L489.22 620.55 L488.03 620.24 L486.75 620.88 L485.54 620.71 L484.46 619.62 L483.09 620.70 L481.89 620.47 L480.72 620.09 L479.43 620.41 L478.16 620.57 L476.88 620.75 L475.81 619.81 L474.65 619.38 L473.26 620.02 L472.31 618.68 L471.25 617.89 L469.75 618.85 L468.42 619.08 L467.51 617.76 L466.16 618.03 L464.81 618.26 L463.57 618.10 L462.27 618.11 L460.90 618.30 L459.41 618.82 L457.87 619.40 L456.51 619.45 L455.27 619.11 L454.11 618.58 L453.16 617.55 L451.63 617.94 L450.43 617.51 L449.50 616.43 L448.10 616.47 L446.75 616.35 L445.50 616.01 L444.40 615.33 L443.03 615.21 L441.43 615.53 L440.40 614.71 L439.48 613.69 L437.93 613.83 L436.86 613.09 L435.96 612.06 L434.40 612.17 L433.33 611.42 L432.30 610.61 L430.78 610.61 L429.52 610.15 L428.55 609.25 L427.53 608.42 L426.29 607.93 L425.12 607.32 L424.69 605.67 L424.02 604.38 L421.99 604.96 L421.23 603.78 L420.16 603.04 L418.31 603.29 L417.21 602.55 L416.32 601.56 L415.52 600.46 L414.65 599.46 L413.44 598.85 L412.49 597.95 L411.05 597.57 L409.30 597.52 L407.88 597.08 L407.12 595.94 L405.37 595.81 L404.03 595.25 L403.42 593.95 L402.36 593.10 L401.24 592.30 L400.11 591.50 L399.19 590.50 L398.40 589.40 L396.36 589.37 L395.82 588.03 L395.21 586.77 L393.32 586.55 L392.71 585.28 L392.60 583.63 L391.01 583.13 L390.18 582.04 L389.82 580.60 L388.81 579.65 L387.85 578.65 L387.02 577.56 L386.53 576.23 L385.20 575.48 L384.00 574.61 L383.89 573.05 L383.38 571.75 L381.49 571.29 L381.00 569.98 L380.97 568.41 L379.10 567.88 L377.88 566.96 L377.56 565.56 L377.05 564.26 L376.20 563.13 L375.19 562.09 L374.85 560.70 L373.89 559.61 L372.16 558.88 L371.65 557.56 L371.46 556.11 L370.01 555.20 L369.98 553.69 L370.06 552.14 L367.93 551.47 L366.92 550.33 L366.48 548.98 L366.30 547.54 L366.76 545.87 L366.17 544.58 L366.79 542.90 L367.70 541.16 L366.48 540.08 L365.80 538.82 L366.32 537.23 L365.16 536.10 L364.75 534.77 L364.55 533.37 L362.50 532.43 L361.72 531.15 L361.26 529.80 L360.97 528.41 L362.30 526.71 L366.89 524.44 L375.86 521.51 L376.20 520.18 L369.01 520.01 L379.52 517.17 L383.29 515.45 L376.21 515.13 L365.99 515.02 L372.85 512.96 L370.72 511.87 L356.46 511.74 L361.42 509.94 L370.82 507.97 L373.38 506.54 L366.51 505.56 L373.50 504.00 L372.95 502.74 L362.94 501.59 L363.91 500.22 L365.35 498.87 L367.65 497.56 L368.12 496.25 L369.97 495.00 L374.27 493.91 L378.44 492.89 L375.98 491.50 L378.06 490.42 L384.68 489.78 L381.33 488.28 L371.89 486.06 L369.03 484.42 L370.50 483.28 L354.08 479.67 L354.36 478.23 L365.03 478.44 L371.76 478.20 L364.45 475.56 L367.33 474.70 L370.33 473.93 L353.92 469.11 L351.49 467.04 L352.63 465.74 L353.09 464.30 L354.32 463.05 L357.37 462.30 L365.49 463.00 L372.51 463.56 L369.22 461.20 L369.99 460.01 L380.15 461.82 L376.71 459.36 L371.18 456.10 L366.64 453.06 L373.66 454.11 L366.60 450.03 L359.62 445.81 L367.08 447.16 L374.61 448.69 L374.02 446.97 L371.62 444.45 L378.59 446.01 L373.15 442.07 L368.81 438.49 L370.69 437.79 L372.87 437.26 L374.59 436.55 L376.18 435.79 L378.89 435.65 L383.15 436.41 L385.91 436.42 L384.26 433.98 L389.79 435.66 L394.03 436.71 L389.71 432.62 L380.44 425.31 L385.30 426.74 L381.81 422.83 L372.46 414.90 L377.87 416.73 L386.13 420.69 L387.97 420.29 L381.89 414.17 L388.56 417.31 L386.28 413.83 L376.16 404.20 L376.88 402.78 L377.67 401.40 L378.04 399.67 L380.15 399.38 L384.65 401.18 L391.76 405.37 L395.54 406.82 L390.06 399.93 L397.12 404.47 L402.82 407.93 L399.20 402.57 L394.48 395.95 L397.84 397.22 L400.00 397.37 L390.40 385.24 L393.34 386.05 L400.42 391.46 L405.33 394.72 L402.04 388.85 L405.86 391.00 L408.51 391.91 L402.21 382.09 L403.64 381.42 L405.87 381.76 L408.16 382.25 L410.04 382.25 L412.04 382.44 L415.38 384.52 L418.96 387.05 L420.23 386.44 L421.18 385.37 L426.18 390.32 L426.69 388.68 L422.95 380.41 L420.72 374.22 L423.42 375.76 L418.00 363.94 L416.39 358.08 L422.31 365.06 L427.67 371.41 L427.22 367.53 L427.39 364.65 L431.63 369.44 L426.78 356.70 L424.75 349.04 L426.51 348.80 L428.01 348.02 L429.71 347.69 L432.29 349.34 L436.53 354.91 L441.04 361.46 L442.11 360.13 L442.19 356.26 L447.45 365.47 L449.15 365.88 L447.82 358.11 L446.50 349.91 L450.54 356.73 L450.60 352.13 L448.54 340.65 L451.87 345.73 L455.84 353.31 L457.52 353.58 L457.45 347.66 L460.97 354.69 L461.77 351.74 L461.20 343.08 L463.03 343.81 L465.04 345.40 L466.99 346.90 L468.67 347.31 L470.54 348.76 L472.84 352.76 L474.91 355.90 L475.85 352.62 L477.95 356.44 L480.18 361.76 L481.14 358.39 L481.27 347.73 L482.83 347.91 L484.18 346.03 L484.18 329.30 L485.86 328.73 L487.51 327.71 L489.30 328.66 L490.98 327.90 L492.67 327.26 L494.44 328.27 L496.12 326.82 L497.84 325.26 L499.58 325.74 L501.33 324.93 L503.07 325.72 L504.71 329.63 L506.07 338.59 L507.38 345.10 L509.37 337.61 L510.65 342.66 L511.56 351.40 L513.60 345.13 L515.75 339.18 L517.50 337.99 L518.48 343.56 L521.77 330.35 L523.92 327.28 L524.37 336.08 L524.94 343.10 L527.08 339.96 L528.59 340.71 L529.17 346.36 L532.64 336.96 L534.88 334.43 L536.22 336.19 L537.47 338.24 L538.76 339.96 L540.03 341.66 L540.80 345.15 L541.05 350.28 L542.24 351.79 L544.36 350.03 L543.96 356.69 L544.59 359.65 L548.79 351.59 L553.44 342.76 L553.78 346.81 L558.16 339.49 L563.92 328.95 L562.62 337.41 L560.67 347.04 L562.85 346.06 L566.51 341.63 L565.15 349.11 L569.83 342.62 L576.66 331.80 L578.07 333.13 L579.70 334.00 L581.16 335.21 L581.86 337.89 L580.92 343.66 L578.33 352.30 L579.30 354.02 L584.15 348.71 L580.40 358.80 L579.40 363.73 L584.37 358.48 L591.26 350.35 L589.17 357.02 L591.16 357.03 L600.58 345.67 L599.32 350.89 L595.57 359.58 L594.93 363.48 L600.96 357.86 L598.38 364.39 L599.74 365.37 L607.71 357.61 L608.18 359.92 L608.55 362.31 L608.71 364.91 L609.47 366.72 L609.77 369.04 L608.42 373.25 L606.97 377.44 L609.55 377.00 L609.65 379.34 L606.23 385.42 L609.43 384.31 L616.38 379.40 L619.10 379.03 L619.40 381.13 L630.59 372.56 L632.38 373.37 L627.51 380.46 L623.41 386.59 L629.57 383.30 L629.93 385.31 L628.58 388.76 L641.40 380.13 L645.95 378.76 L647.16 380.22 L649.00 381.18 L649.98 382.83 L648.54 386.33 L643.61 392.36 L639.40 397.68 L642.82 397.35 L644.80 398.11 L636.74 405.81 L640.41 405.34 L647.49 402.70 L652.17 401.78 L647.39 406.94 L655.29 404.11 L663.33 401.38 L658.37 406.53 L652.88 411.82 L654.11 413.15 L657.91 413.08 L652.71 417.92 L658.99 416.59 L664.99 415.53 L664.99 417.60 L664.18 420.05 L663.57 422.36 L663.53 424.37 L661.83 427.11 L658.26 430.62 L657.12 432.98 L660.47 433.44 L655.20 437.44 L651.91 440.52 L658.70 439.69 L670.94 436.98 L668.02 439.96 L674.06 439.76 L689.63 436.49 L683.56 440.56 L673.73 445.65 L672.79 447.84 L682.78 446.81 L674.81 451.02 L679.95 451.52 L695.79 449.34 L695.07 451.60 L695.20 453.64 L695.97 455.52 L694.71 457.85 L690.41 460.77 L682.02 464.39 L677.65 467.09 L685.97 467.47 L678.47 470.61 L671.99 473.45 L678.63 474.25 L686.72 474.98 L684.06 477.21 L682.32 479.28 L698.07 479.49 L696.23 481.66 L687.68 484.35 L681.64 486.68 L688.25 488.09 L684.77 490.16 L682.04 492.13 L693.91 493.56 L693.47 495.51 L691.79 497.47 L690.06 499.39 L688.60 501.29 L687.49 503.15 L684.12 504.94 L679.95 506.63 L678.79 508.38 L679.48 510.21 L672.63 511.55 L672.55 513.28 L679.98 515.66 L685.63 518.03 L683.17 519.64 L694.58 522.83 L700.65 525.58 L692.97 526.57 L685.25 527.39 L688.02 529.73 L689.73 531.95 L683.72 532.83 L694.89 536.84 L703.42 540.56 L704.17 542.84 L704.42 545.03 L704.16 547.12 L701.43 548.61 L693.86 548.84 L684.70 548.51 L685.66 550.75 L689.31 553.78 L678.00 552.50 L675.86 553.79 L683.15 558.03 L690.30 562.39 L682.23 561.77 L684.69 564.67 L695.68 570.72 L690.05 570.84 L680.91 569.51 L678.92 570.80 L684.17 575.02 L676.47 573.95 L677.98 576.68 L685.77 582.25 L683.77 583.57 L681.68 584.82 L678.72 585.63 L676.68 586.84 L673.26 587.32 L667.25 586.40 L662.29 585.90 L665.38 589.67 L658.70 588.11 L654.09 587.58 L658.62 592.26 L666.18 598.89 L666.25 601.20 L668.72 605.03 L681.93 615.79 L676.82 615.04 L666.95 611.01 L662.07 610.12 L668.29 616.83 L662.29 615.08 L661.70 617.11 L675.12 629.52 L672.44 630.22 L670.45 631.42 L669.50 633.41 L666.80 634.01 L663.16 633.79 L655.27 629.94 L649.42 627.61 L653.01 633.34 L648.67 632.20 L640.55 627.52 L643.64 632.97 L646.53 638.38 L646.75 641.40 L641.43 639.02 L648.61 649.03 L649.80 653.26 L643.08 649.35 L636.56 645.42 L636.99 648.84 L635.78 650.51 L630.05 647.10 L635.61 656.50 L636.13 660.32 L633.56 660.52 L631.40 661.18 L629.03 661.53 L626.28 661.38 L622.28 659.52 L617.49 656.50 L614.90 656.28 L613.95 658.28 L607.78 652.91 L606.54 654.41 L609.53 662.19 L612.26 669.87 L608.99 668.56 L611.69 676.58 L614.37 684.89 L609.64 681.27 L603.35 674.79 L602.00 676.51 L603.16 682.72 L598.15 677.98 L599.26 684.32 L603.16 696.24 L601.45 697.76 L599.74 699.31 L597.86 700.55 L595.14 700.02 L590.89 696.11 L585.27 688.92 L582.81 688.47 L584.31 697.22 L578.18 688.06 L574.48 684.34 L575.12 691.42 L576.52 700.86 L572.45 696.04 L570.75 697.51 L573.83 712.78 L570.13 708.84 L565.15 700.64 L561.87 697.23 L562.32 705.85 L558.53 700.52 L556.42 700.73 L557.52 712.79 L554.93 711.60 L552.40 710.49 L549.86 709.20 L547.41 708.13 L544.79 706.11 L541.63 701.26 L538.61 696.52 L537.14 699.57 L534.54 696.53 L531.48 690.26 L530.60 697.16 L529.84 705.83 L528.31 710.00 L526.38 711.65 L525.83 725.61 L523.76 727.64 L520.56 718.14 L517.79 711.35 L516.13 717.65 L513.86 716.38 L511.51 713.08 L510.08 728.99 L507.90 732.46 L505.57 732.06 L503.26 733.03 L500.92 731.38 L498.62 728.73 L496.45 721.56 L494.42 714.24 L492.20 716.46 L489.98 717.49 L488.42 706.54 L486.20 708.67 L483.55 715.95 L480.93 721.14 L479.38 714.10 L476.48 721.05 L473.21 729.90 L471.73 723.12 L470.62 714.69 L468.36 715.14 L465.62 718.56 L464.65 710.96 L461.53 716.32 L458.02 723.08 L456.11 721.01 L454.16 719.34 L452.39 716.97 L450.62 714.77 L449.17 711.36 L448.49 705.12 L447.18 701.80 L444.37 704.17 L444.02 697.65 L442.95 694.00 L438.86 700.47 L434.23 708.18 L432.62 706.07 L428.84 710.48 L422.45 722.05 L419.84 722.35 L417.59 721.61 L415.60 720.20 L412.91 720.59 L410.94 719.13 L408.96 717.74 L406.06 718.52 L403.55 718.32 L401.48 717.09 L398.84 717.12 L397.09 715.22 L395.73 712.57 L394.33 710.09 L391.53 710.40 L389.38 709.40 L387.61 707.68 L384.26 708.87 L381.25 709.33 L378.73 708.87 L376.79 707.41 L374.14 707.13 L372.00 705.98 L370.61 703.64 L369.03 701.66 L367.32 699.87 L365.27 698.63 L363.40 697.12 L361.34 695.87 L358.56 695.62 L356.44 694.43 L355.82 691.24 L353.31 690.57 L351.83 688.56 L350.78 686.04 L347.88 685.82 L345.70 684.68 L344.32 682.58 L342.01 681.59 L339.31 681.01 L336.29 680.73 L333.73 679.91 L330.99 679.25 L327.79 679.02 L325.35 677.96 L323.85 675.93 L321.29 674.95 L319.56 673.15 L318.27 670.93 L315.92 669.70 L314.21 667.88 L313.09 665.52 L312.11 663.06 L311.08 660.68 L309.03 659.15 L308.55 656.33 L308.07 653.56 L306.83 651.40 L305.35 649.44 L303.60 647.69 L302.47 645.47 L300.44 643.91 L298.17 642.50 L295.70 641.21 L293.66 639.59 L292.48 637.38 L289.97 636.04 L289.19 633.58 L287.72 631.55 L286.92 629.11 L286.21 626.64 L285.08 624.42 L283.86 622.26 L282.38 620.24 L281.61 617.83 L280.99 615.35 L279.03 613.58 L275.93 612.35 L275.12 609.96 L272.53 608.42 L270.41 606.62 L270.84 603.65 L269.51 601.49 L269.73 598.66 L269.12 596.20 L266.05 594.74 L263.64 592.98 L261.29 591.16 L258.68 589.40 L257.15 587.21 L256.80 584.60 L255.63 582.28 L254.70 579.87 L253.28 577.61 L253.03 574.99 L252.33 572.50 L250.68 570.29 L251.35 567.42 L251.78 564.65 L250.89 562.22 L251.89 559.35 L253.12 556.45 L252.50 553.99 L251.01 551.71 L250.20 549.28 L249.70 546.78 L247.94 544.51 L246.27 542.19 L244.52 539.86 L245.48 537.11 L243.70 534.75 L243.25 532.20 L244.96 529.40 L244.70 526.85 L245.25 524.22 L245.06 521.67 L244.85 519.12 L244.28 516.59 L242.02 514.15 L241.03 511.60 L240.50 509.03 L239.29 506.46 L238.50 503.86 L239.57 501.24 L239.47 498.64 L239.82 496.04 L240.05 493.44 L240.35 490.85 L239.89 488.23 L239.09 485.58 L238.26 482.90 L237.55 480.22 L236.98 477.53 L235.47 474.73 L235.66 472.08 L235.04 469.33 L235.63 466.72 L236.47 464.15 L235.55 461.32 L236.02 458.69 L237.65 456.26 L238.21 453.65 L239.78 451.24 L239.91 448.57 L241.42 446.18 L243.12 443.84 L243.26 441.18 L244.37 438.74 L245.75 436.37 L245.72 433.66 L246.51 431.15 L247.45 428.68 L246.77 425.75 L246.35 422.86 L247.95 420.59 L246.73 417.41 L247.59 414.89 L249.07 412.58 L250.24 410.18 L250.94 407.61 L252.09 405.21 L253.26 402.81 L254.23 400.35 L253.92 397.34 L253.49 394.26 L254.77 391.89 L254.58 388.86 L254.74 385.96 L256.93 384.01 L258.75 381.91 L260.51 379.78 L261.46 377.26 L262.76 374.91 L263.86 372.46 L264.12 369.53 L264.64 366.73 L267.36 365.18 L268.33 362.63 L269.35 360.10 L271.47 358.24 L272.19 355.51 L273.47 353.13 L275.32 351.12 L276.45 348.62 L277.99 346.41 L278.91 343.75 L279.85 341.09 L281.12 338.66 L281.22 335.33 L282.92 333.18 L287.17 333.04 L293.91 334.97 L301.63 337.86 L301.24 334.20 L301.73 331.23 L311.71 336.44 L312.55 333.86 L308.74 327.03 L306.16 321.14 L314.10 324.99 L311.80 319.25 L306.51 310.41 L313.09 313.15 L320.88 317.33 L322.06 314.86 L321.04 310.04 L327.38 313.05 L326.16 307.91 L322.36 299.72 L324.64 298.27 L327.70 297.74 L330.58 297.04 L333.33 296.23 L338.15 298.03 L344.07 301.38 L347.83 302.13 L347.52 297.57 L354.14 302.28 L357.35 302.53 L355.14 295.17 L350.75 284.43 L353.44 283.72 L354.03 279.89 L346.97 264.15 L352.63 267.82 L360.65 275.54 L364.34 276.52 L361.75 267.03 L367.84 272.14 L368.77 268.44 L363.57 253.54 L365.93 251.99 L368.63 251.05 L370.93 249.38 L373.86 248.93 L378.09 251.19 L384.45 258.06 L389.13 261.77 L388.16 253.26 L393.39 258.40 L398.90 264.53 L398.27 256.39 L398.36 249.59 L401.21 249.45 L405.35 252.73 L402.80 238.26 L405.03 236.20 L410.53 243.47 L415.28 249.04 L416.04 242.83 L419.24 243.99 L423.29 248.07 L422.64 236.53 L425.05 234.93 L428.14 235.81 L431.30 237.08 L434.28 237.80 L437.19 238.34 L440.56 240.98 L444.10 244.72 L446.92 245.45 L449.10 243.05 L452.89 249.07 L455.65 250.01 L456.73 241.06 L458.25 233.78 L461.42 236.89 L462.86 227.71 L464.65 219.96 L468.24 226.39 L471.83 234.16 L474.32 232.12 L476.61 227.35 L479.79 233.10 L481.85 223.69 L484.04 213.20 L486.88 212.41 L489.74 211.60 L492.59 210.45 L495.51 211.91 L498.43 218.45 L501.21 226.52 L503.95 225.86 L506.83 220.48 L509.23 232.04 L511.76 235.37 L514.81 228.19 L518.14 218.85 L520.34 227.19 L523.36 223.97 L527.44 210.30 L529.73 216.30 L531.49 226.00 L534.06 227.70 L537.85 220.15 L539.33 229.60 L542.29 228.30 L546.70 218.53 L549.17 220.96 L551.57 223.53 L553.94 226.09 L556.47 227.64 L558.80 230.00 L560.60 234.54 L562.25 239.32 L565.61 236.95 L567.51 240.39 L568.41 247.35 L571.71 245.28 L577.40 235.25 L580.66 234.01 L583.63 233.82 L592.25 216.35 L594.30 219.61 L593.38 231.26 L593.84 238.41 L599.43 231.31 L600.76 235.87 L603.04 237.78 L612.42 222.11 L615.75 221.90 L618.05 224.20 L620.51 226.06 L622.88 228.08 L624.23 232.26 L623.20 241.28 L622.64 248.96 L627.29 245.92 L628.91 248.97 L626.55 259.53 L631.12 256.78 L636.88 252.06 L640.76 250.95 L640.07 257.85 L648.21 249.60 L654.06 245.55 L652.70 253.40 L650.98 261.54 L654.55 261.21 L657.93 261.26 L656.16 268.98 L663.44 263.36 L668.38 261.34 L669.95 264.16 L671.09 267.51 L672.23 270.80 L673.86 273.39 L674.55 277.13 L673.84 282.56 L674.76 285.83 L678.55 285.61 L677.08 291.64 L676.34 296.67 L682.66 293.58 L691.66 287.74 L690.84 292.84 L697.38 290.00 L708.48 282.59 L711.38 283.93 L713.92 285.66 L715.05 288.80 L717.98 290.16 L720.08 292.34 L721.68 294.98 L725.12 295.93 L728.02 297.43 L730.41 299.39 L733.37 300.88 L735.21 303.34 L737.31 305.59 L738.54 308.53 L740.68 310.74 L743.47 312.45 L744.82 315.29 L747.19 317.35 L750.34 318.86 L752.54 321.09 L754.51 323.49 L756.40 325.95 L758.32 328.40 L759.93 331.05 L760.66 334.26 L761.68 337.26 L762.71 340.24 L763.56 343.31 L762.78 347.31 L762.16 351.16 L762.00 354.69 L761.59 358.32 L760.87 362.07 L760.82 365.42 L761.00 368.61 L761.26 371.74 L761.21 374.99 L761.39 378.10 L761.17 381.37 L761.20 384.49 L764.21 386.31 L770.96 386.60 L776.25 387.61 L780.74 389.05 L790.90 388.38 L794.69 390.30 L796.23 393.09 L797.97 395.81 L798.80 398.86 L800.22 401.72 L801.40 404.66 L802.02 407.77 L802.03 411.06 L802.50 414.20 L803.89 417.08 L803.89 420.34 L804.24 423.49 L805.42 426.43 L806.49 429.41 L806.98 432.52 L807.97 435.53 L809.92 438.35 L810.91 441.37 L811.75 444.44 L812.42 447.54 L812.95 450.66 L812.89 453.87 L812.87 457.07 L813.47 460.18 L813.17 463.39 L813.30 466.55 L813.63 469.68 L811.92 472.99 L809.90 476.29 L807.95 479.53 L806.24 482.72 L804.41 485.87 L802.32 489.00 L801.21 492.05 L800.14 495.09 L798.93 498.10 L797.51 501.08 L796.13 504.04 L794.70 506.96 L794.29 509.90 L797.36 512.98 L804.12 516.33 L804.43 519.40 L808.71 522.77 L815.36 526.43 L814.52 529.53 L814.27 532.68 L813.48 535.77 L814.09 539.03 L814.47 542.27 L814.47 545.48 L815.78 548.90 L816.15 552.20 L815.56 555.35 L816.75 558.83 L816.25 562.01 L814.76 565.00 L814.58 568.24 L814.41 571.51 L814.19 574.77 L813.39 577.90 L813.35 581.22 L814.09 584.78 L813.30 587.93 L811.85 590.90 L811.69 594.25 L810.24 597.20 L808.33 600.00 L807.38 603.10 L805.87 606.01 L804.06 608.80 L802.77 611.77 L799.98 614.16 L796.50 616.24 L793.27 618.37 L790.27 620.55 L786.80 622.49 L783.82 624.58 L781.48 626.93 L779.17 629.26 L776.60 631.45 L774.01 633.59 L771.35 635.67 L768.72 637.73 L768.32 640.93 L771.14 645.89 L775.29 651.69 L776.12 655.77 L781.42 662.49 L784.84 668.28 L783.96 671.62 L782.09 674.36 L779.78 676.82 L779.56 680.62 L777.50 683.25 L775.01 685.59 L773.44 688.53 L771.30 691.09 L769.48 693.86 L767.12 696.25 L764.46 698.40 L762.62 701.15 L760.18 703.44 L757.78 705.75 L756.19 708.72 L754.31 711.45 L752.71 714.43 L751.30 717.59 L748.97 719.97 L746.99 722.66 L745.10 725.43 L742.59 727.64 L740.72 730.46 L738.18 732.64 L735.79 734.96 L733.01 736.88 L729.35 737.87 L725.20 738.29 L721.12 738.71 L717.39 739.44 L713.71 740.17 L709.77 740.54 L706.59 741.74 L703.31 742.77 L699.97 743.69 L696.41 744.30 L693.08 745.13 L689.89 746.11 L686.90 747.30 L685.40 750.49 L686.62 757.48 L685.49 761.39 L685.02 766.32 L687.69 776.02 L685.56 778.84 L683.08 781.18 L679.78 782.23 L677.30 784.59 L674.55 786.51 L671.22 787.48 L669.24 790.73 L667.38 794.26 L665.19 797.30 L663.34 801.02 L661.28 804.44 L658.22 806.03 L655.25 807.79 L652.22 809.43 L649.13 810.96 L646.00 812.41 L642.80 813.70 L639.56 814.90 L636.46 816.41 L632.79 816.58 L629.36 817.26 L625.88 817.77 L622.52 818.55 L619.44 820.08 L615.90 820.33 L612.39 820.60 L609.30 822.07 L605.39 821.07 L601.66 820.49 L597.76 819.25 L593.97 818.20 L590.29 817.37 L586.47 815.92 L582.79 814.82 L579.37 814.56 L575.88 813.90 L572.31 812.81 L568.86 812.10 L565.32 810.78 L562.14 811.05 L559.83 815.91 L558.06 824.29 L555.03 826.13 L552.86 833.57 L550.87 843.16 L547.51 844.19 L544.04 844.42 L540.57 844.69 L537.27 846.45 L533.75 846.30 L530.19 845.46 L526.78 846.39 L523.24 845.44 L519.80 846.00 L516.32 845.79 L512.82 844.88 L509.38 845.31 L505.93 845.30 L502.48 845.96 L499.02 846.39 L495.55 846.77 L492.05 848.13 L488.54 848.99 L485.07 848.29 L481.64 847.25 L478.09 848.16 L474.63 847.70 L471.20 846.92 L467.72 846.77 L464.25 846.42 L460.88 845.22 L457.57 843.72 L454.34 841.74 L451.25 838.96 L448.18 836.39 L445.04 834.54 L441.94 832.56 L439.03 829.77 L436.00 827.76 L432.94 826.05 L430.07 823.60 L427.26 821.00 L424.47 818.52 L421.73 815.97 L418.20 816.59 L413.65 820.93 L409.55 823.24 L405.51 825.13 L400.03 831.59 L396.26 832.03 L392.83 831.34 L389.64 829.89 L386.33 828.82 L382.72 828.59 L379.11 828.29 L375.48 828.00 L371.93 827.45 L368.49 826.57 L364.64 826.67 L361.11 825.93 L358.42 823.24 L354.86 822.55 L351.33 821.76 L348.22 820.04 L344.55 819.48 L341.13 818.39 L337.49 817.69 L333.78 817.08 L330.88 814.92 L327.94 812.84 L325.18 810.47 L322.00 808.85 L319.08 806.78 L316.63 803.96 L313.26 802.66 L309.71 801.61 L307.70 798.16 L305.68 794.78 L303.80 791.24 L302.38 787.12 L300.55 783.66 L299.16 779.65 L297.60 775.95 L295.67 772.82 L293.75 769.71 L292.19 766.19 L290.48 762.92 L289.10 759.30 L287.21 756.34 L282.39 756.87 L274.50 760.85 L270.90 759.72 L264.38 761.79 L253.93 767.96 L251.40 765.34 L248.73 762.88 L245.91 760.55 L242.69 758.64 L240.46 755.71 L238.21 752.81 L234.96 750.88 L233.12 747.61 L231.24 744.40 L228.63 741.86 L227.16 738.32 L225.18 735.24 L223.11 732.26 L220.84 729.45 L218.35 726.81 L215.98 724.08 L212.37 722.29 L209.40 719.98 L207.72 716.69 L205.80 713.59 L202.28 711.63 L200.55 708.38 L199.25 704.86 L196.51 702.31 L194.49 699.27 L193.21 695.76 L192.26 692.06 L191.67 688.18 L191.50 684.07 L191.59 679.86 L191.23 675.96 L190.92 672.06 L191.14 667.91 L191.12 663.94 L190.24 660.46 L190.12 656.62 L190.55 652.53 L190.20 648.87 L190.32 645.02 L188.63 642.03 L183.47 640.58 L177.77 639.27 L174.26 636.94 L166.70 636.21 L160.52 634.79 L157.71 631.96 L156.62 628.45 L155.88 624.82 L153.73 621.69 L153.07 618.04 L151.77 614.61 L149.18 611.59 L147.18 608.35 L144.97 605.16 L143.33 601.78 L143.01 598.02 L141.12 594.69 L141.17 590.85 L140.81 587.13 L138.25 583.93 L137.58 580.27 L136.64 576.67 L133.72 573.47 L132.39 569.92 L131.98 566.19 L131.33 562.51 L130.49 558.86 L129.76 555.19 L130.22 551.34 L129.97 547.61 L128.01 544.09 L128.40 540.28 L128.38 536.52 L127.28 532.87 L129.23 528.96 L129.55 525.22 L129.12 521.52 L131.29 517.70 L131.26 514.01 L129.86 510.35 L129.60 506.65 L129.44 502.95 L128.73 499.24 L127.45 495.52 L125.89 491.75 L124.54 487.97 L123.43 484.16 L121.49 480.29 L120.98 476.46 L121.87 472.71 L121.53 468.88 L121.33 465.05 L121.71 461.27 L122.30 457.51 L122.76 453.73 L122.69 449.89 L124.60 446.32 L125.55 442.63 L125.26 438.74 L127.47 435.27 L128.86 431.68 L128.73 427.81 L128.91 423.99 L129.99 420.35 L130.26 416.53 L129.16 412.37 L129.43 408.52 L131.39 405.08 L132.52 401.44 L132.18 397.40 L133.95 393.93 L135.98 390.56 L135.88 386.55 L137.34 383.02 L139.31 379.66 L140.36 375.99 L141.64 372.41 L142.68 368.74 L144.71 365.44 L147.42 362.42 L146.66 358.04 L147.60 354.30 L149.84 351.11 L148.81 346.51 L150.23 342.95 L153.73 340.34 L154.65 336.56 L157.32 333.60 L158.74 330.06 L159.20 326.01 L160.66 322.46 L162.25 318.96 L164.54 315.85 L167.96 313.38 L169.88 310.09 L172.20 307.04 L174.35 303.89 L175.29 300.01 L176.99 296.57 L178.33 292.90 L179.19 288.88 L181.02 285.48 L182.45 281.80 L183.45 277.80 L186.33 275.10 L188.79 272.12 L190.51 268.59 L192.49 265.24 L194.13 261.61 L196.51 258.55 L198.40 255.09 L198.84 250.41 L201.85 247.83 L205.06 245.45 L207.34 242.26 L210.03 239.44 L213.20 237.06 L216.33 234.65 L218.39 231.25 L220.53 227.90 L223.52 225.37 L225.75 222.08 L227.68 218.46 L232.25 217.59 L236.15 216.07 L238.59 212.99 L242.99 212.09 L246.64 210.40 L248.47 206.63 L251.13 203.79 L254.42 201.70 L256.85 198.55 L259.15 195.22 L261.14 191.45 L263.39 187.95 L265.62 184.39 L267.51 180.30 L270.22 177.30 L273.78 175.48 L276.40 172.29 L279.67 170.04 L283.24 168.26 L286.24 165.59 L289.37 163.12 L292.93 161.32 L296.62 159.75 L300.13 157.91 L303.37 155.58 L307.53 154.91 L311.66 154.22 L314.83 151.80 L318.41 150.14 L322.32 149.13 L325.32 146.33 L328.24 143.31 L331.73 141.41 L335.23 139.55 L338.78 137.77 L342.01 135.27 L345.84 134.12 L349.61 132.84 L352.91 130.42 L356.81 129.47 L360.57 128.17 L364.33 126.89 L368.29 126.18 L372.20 125.38 L376.11 124.58 L380.12 124.17 L383.85 122.88 L387.80 122.30 L392.02 122.72 L395.49 120.53 L399.20 119.19 L403.38 119.64 L407.10 118.31 L410.54 115.78 L414.15 113.82 L417.73 111.66 L421.31 109.32 L425.03 107.54 L428.94 106.75 L433.17 107.76 L437.20 107.75 L441.14 107.28 L445.13 107.13 L448.94 105.64 L452.80 104.44 L456.68 103.28 L460.58 102.16 L464.59 102.14 L468.53 101.28 L472.41 99.33 L476.46 99.92 L480.39 98.21 L484.36 96.73 L488.39 96.46 L492.42 96.09 L496.46 96.10 L500.50 95.56 L504.55 95.59 L508.57 96.39 L512.66 94.97 L516.77 93.69 L520.69 96.59 L524.67 97.71 L528.66 98.42 L532.50 100.86 L536.35 102.74 L540.34 102.88 L544.53 101.32 L548.84 99.13 L553.01 98.40 L557.02 98.98 L560.95 100.08 L564.69 102.29 L568.05 106.49 L571.80 108.16 L575.91 107.90 L579.92 108.23 L584.23 107.20 L588.49 106.56 L592.72 106.21 L597.45 103.90 L601.67 103.90 L605.57 105.14 L610.42 102.96 L614.75 102.81 L618.70 104.02 L622.65 105.24 L626.64 106.34 L630.70 107.23 L634.69 108.37 L638.55 109.86 L642.15 112.07 L645.56 114.74 L650.12 114.39 L653.83 116.24 L657.00 119.40 L661.21 120.01 L664.76 122.19 L668.01 125.04 L671.71 126.81 L675.74 127.91 L680.04 128.47 L684.35 129.07 L688.09 130.85 L691.48 133.31 L694.43 136.57 L696.60 141.18 L699.41 144.54 L702.91 146.63 L706.40 148.73 L710.81 149.31 L715.44 149.59 L719.93 150.17 L724.11 151.31 L726.33 155.48 L728.10 160.23 L731.52 162.49 L733.82 166.34 L736.77 169.21 L742.07 168.86 L746.41 169.91 L749.53 172.61 L752.43 175.58 L755.21 178.69 L758.89 180.67 L763.24 181.85 L766.98 183.83 L772.32 183.97 L778.40 183.37 L781.42 186.32 L783.95 189.80 L786.72 193.00 L789.87 195.78 L792.96 198.63 L796.19 201.34 L799.64 203.84 L802.89 206.56 L805.99 209.43 L808.14 213.20 L809.90 217.29 L811.88 221.14 L814.24 224.63 L816.37 228.31 L819.43 231.19 L823.58 233.18 L827.54 235.37 L830.86 238.11 L832.79 241.96 L833.30 246.86 L835.42 250.50 L836.25 255.06 L837.39 259.36 L841.71 261.40 L845.51 263.85 L848.43 266.93 L851.14 270.16 L853.98 273.33 L857.19 276.28 L858.07 280.68 L857.34 286.01 L861.92 288.16 L865.20 291.11 L864.51 296.32 L868.22 299.05 L871.07 302.29 L871.77 306.66 L871.40 311.55 L871.75 316.02 L874.33 319.38 L878.67 321.93 L882.46 324.80 L887.57 327.13 L893.49 329.18 L896.18 332.71 L897.69 336.73 L899.22 340.75 L900.63 344.81 L902.54 348.69 L904.47 352.56 L906.01 356.58 L906.83 360.85 L907.16 365.27 L908.22 369.44 L908.95 373.70 L909.11 378.11 L911.00 382.01 L913.72 385.70 L915.16 389.76 L916.85 393.76 L918.98 397.67 L920.36 401.77 L919.94 406.29 L917.60 411.19 L918.19 415.42 L920.22 419.38 L918.57 424.03 L921.14 427.90 L924.16 431.74 L924.84 435.98 L924.28 440.40 L924.45 444.70 L926.18 448.80 L926.44 453.09 L927.18 457.33 L929.35 461.45 L931.17 465.63 L927.64 470.21 L924.85 474.67 L924.21 478.96 L923.28 483.25 L921.02 487.55 L921.53 491.76 L925.49 495.93 L956.18 500.00 L956.78 495.43 L956.37 490.87 L955.39 486.33 L955.11 481.79 L957.88 477.09 L960.06 472.36 L956.99 467.96 L954.61 463.55 L953.29 459.09 L948.01 455.05 L944.86 450.87 L944.46 446.41 L945.81 441.72 L947.83 436.89 L947.56 432.36 L946.92 427.88 L946.24 423.40 L943.09 419.37 L939.32 415.51 L936.90 411.44 L934.87 407.31 L933.06 403.16 L931.85 398.88 L931.19 394.48 L930.58 390.05 L928.73 385.95 L926.64 381.92 L925.68 377.59 L925.20 373.11 L922.29 369.37 L920.47 365.31 L919.80 360.88 L917.18 357.10 L914.46 353.39 L912.91 349.28 L911.22 345.22 L909.37 341.22 L907.69 337.16 L905.85 333.17 L903.73 329.31 L903.58 324.59 L904.37 319.42 L902.30 315.50 L902.03 310.73 L902.32 305.66 L900.82 301.41 L899.96 296.84 L898.90 292.33 L897.01 288.24 L895.75 283.80 L891.64 280.93 L885.96 279.02 L882.13 276.10 L879.28 272.65 L876.98 268.87 L875.70 264.45 L875.28 259.46 L873.99 254.97 L871.19 251.47 L866.68 249.14 L862.33 246.76 L859.33 243.47 L854.67 241.40 L850.05 239.37 L849.05 234.65 L846.33 231.21 L842.89 228.35 L840.00 225.05 L837.31 221.61 L834.52 218.24 L831.38 215.17 L828.31 212.05 L826.71 207.62 L823.85 204.29 L819.68 202.19 L816.78 198.92 L812.46 197.02 L807.86 195.45 L804.13 193.05 L801.15 189.93 L798.65 186.28 L795.81 182.98 L792.32 180.37 L788.81 177.80 L785.16 175.39 L782.34 172.05 L779.64 168.53 L777.77 163.99 L776.27 158.92 L773.93 154.80 L771.82 150.34 L768.73 147.08 L763.81 146.26 L758.83 145.60 L754.56 144.03 L749.58 143.51 L743.95 144.03 L741.51 139.92 L739.05 135.76 L735.31 133.52 L732.21 130.28 L728.69 127.66 L724.07 126.88 L719.58 125.93 L715.36 124.56 L711.89 121.90 L709.15 117.88 L704.00 118.28 L700.20 116.20 L696.49 113.94 L690.92 115.43 L686.35 115.01 L682.57 113.00 L679.03 110.46 L675.64 107.52 L671.87 105.42 L668.18 103.09 L664.50 100.70 L659.74 100.98 L655.13 100.99 L650.77 100.41 L646.11 100.71 L641.85 100.01 L637.84 98.63 L633.93 96.92 L630.07 95.06 L625.86 94.28 L621.52 93.96 L617.24 93.49 L613.19 92.28 L610.08 87.52 L606.66 83.66 L602.98 80.64 L599.40 77.01 L595.29 75.45 L590.71 76.07 L585.93 77.81 L581.32 78.95 L577.14 78.01 L573.18 75.70 L568.50 77.68 L564.37 76.37 L560.55 72.81 L555.80 75.81 L551.24 77.90 L547.08 76.83 L542.88 76.05 L538.64 75.65 L534.42 74.98 L530.24 73.55 L526.09 71.38 L521.76 72.07 L517.38 74.32 L513.08 75.35 L508.79 77.45 L504.54 79.14 L500.34 78.59 L496.11 77.61 L491.86 76.36 L487.61 75.85 L483.41 77.12 L479.24 78.40 L475.10 79.86 L470.98 81.35 L466.79 81.53 L462.57 81.56 L458.28 80.85 L453.96 80.12 L449.68 79.86 L445.46 80.22 L441.20 80.33 L437.12 81.69 L433.06 83.07 L429.04 84.63 L425.25 87.36 L421.03 87.64 L416.65 87.13 L412.57 88.18 L408.22 88.03 L403.74 87.39 L399.49 87.88 L395.65 89.98 L391.86 92.18 L387.64 92.77 L383.51 93.66 L380.26 97.58 L376.57 99.87 L372.55 101.05 L369.16 104.11 L365.52 106.36 L361.67 107.95 L357.90 109.76 L354.28 111.94 L350.60 113.90 L347.09 116.28 L343.20 117.68 L339.51 119.57 L335.77 121.32 L331.59 122.08 L328.12 124.43 L324.03 125.44 L320.29 127.21 L316.68 129.24 L312.55 130.25 L309.38 133.14 L306.03 135.65 L302.10 137.06 L299.28 140.48 L296.53 143.97 L293.03 146.12 L290.01 149.05 L287.02 151.99 L283.99 154.85 L280.69 157.25 L276.84 158.79 L273.89 161.71 L270.87 164.52 L267.04 166.12 L264.12 169.04 L260.50 170.97 L256.08 171.85 L251.80 172.97 L247.64 174.30 L243.41 175.59 L239.54 177.39 L236.00 179.61 L233.50 183.09 L230.73 186.21 L227.08 188.33 L224.87 192.07 L223.78 197.01 L220.69 199.70 L218.51 203.36 L217.14 207.83 L213.70 210.13 L210.81 213.00 L208.14 216.09 L205.69 219.38 L203.42 222.82 L200.57 225.72 L198.82 229.60 L196.69 233.12 L193.21 235.46 L191.16 239.03 L189.27 242.71 L185.24 244.63 L182.46 247.60 L180.32 251.07 L177.19 253.79 L175.28 257.43 L173.43 261.09 L171.70 264.83 L170.17 268.69 L166.88 271.32 L164.62 274.67 L161.75 277.62 L158.15 280.12 L155.38 283.18 L153.12 286.57 L150.47 289.73 L148.96 293.57 L147.76 297.58 L145.98 301.24 L146.10 305.93 L144.69 309.76 L142.62 313.22 L140.27 316.55 L137.83 319.85 L136.07 323.48 L135.56 327.72 L134.23 331.55 L134.32 336.00 L133.10 339.84 L129.60 342.70 L128.67 346.67 L127.16 350.39 L124.37 353.62 L125.25 358.26 L125.18 362.50 L124.67 366.56 L123.44 370.35 L121.93 374.04 L121.15 377.98 L120.23 381.86 L118.53 385.50 L118.19 389.55 L117.65 393.53 L116.17 397.24 L115.74 401.23 L114.49 405.01 L113.18 408.78 L112.31 412.66 L111.87 416.63 L112.24 420.75 L111.81 424.70 L110.98 428.57 L111.19 432.62 L111.77 436.71 L110.73 440.53 L110.58 444.49 L111.40 448.57 L111.08 452.48 L110.90 456.40 L110.50 460.29 L110.62 464.24 L110.46 468.15 L109.88 472.02 L110.44 475.98 L109.90 479.86 L107.49 483.67 L106.25 487.56 L104.78 491.46 L103.00 495.40 L101.81 499.37 L101.21 503.35 L101.65 507.33 L102.18 511.30 L101.88 515.30 L102.63 519.25 L106.01 523.04 L106.24 526.98 L107.35 530.85 L109.37 534.62 L109.26 538.58 L110.51 542.39 L111.81 546.18 L111.61 550.15 L113.07 553.90 L114.13 557.69 L114.61 561.57 L116.00 565.29 L116.40 569.17 L117.59 572.91 L118.66 576.67 L117.49 580.89 L118.93 584.58 L120.36 588.25 L119.19 592.55 L121.34 596.04 L123.74 599.45 L124.20 603.36 L126.47 606.77 L127.31 610.57 L128.33 614.32 L129.26 618.11 L129.28 622.20 L130.89 625.77 L133.19 629.10 L133.95 632.96 L136.12 636.30 L137.96 639.76 L138.44 643.75 L134.84 649.42 L130.55 655.51 L129.99 660.12 L127.33 665.71 L126.08 670.77 L128.06 674.38 L131.69 677.19 L135.18 680.03 L138.98 682.66 L142.51 685.39 L145.80 688.20 L149.51 690.75 L153.91 692.87 L157.89 695.15 L161.99 697.32 L166.40 699.25 L170.38 701.37 L173.72 703.84 L177.16 706.21 L180.44 708.64 L182.95 711.55 L185.15 714.67 L187.91 717.38 L190.75 720.04 L191.76 723.99 L193.87 727.17 L196.60 729.89 L198.23 733.44 L200.28 736.68 L202.83 739.53 L205.66 742.14 L207.70 745.41 L210.53 748.01 L213.38 750.58 L217.51 752.00 L220.28 754.60 L223.83 756.46 L227.74 757.95 L230.10 760.88 L233.14 763.15 L236.23 765.37 L238.46 768.43 L241.49 770.69 L244.30 773.17 L247.19 775.55 L242.19 786.70 L241.35 793.49 L243.02 797.54 L240.94 806.08 L242.26 810.76 L246.31 812.19 L250.86 812.93 L255.26 813.79 L259.77 814.45 L264.01 815.38 L268.32 816.16 L272.72 816.75 L277.64 816.54 L282.17 816.77 L286.88 816.66 L290.91 817.48 L295.42 817.50 L299.98 817.35 L302.98 819.63 L306.68 820.77 L310.48 821.69 L313.64 823.69 L317.43 824.58 L320.73 826.29 L323.99 828.10 L327.58 829.27 L330.57 831.58 L333.58 833.89 L337.17 835.04 L339.92 837.93 L343.31 839.51 L347.32 839.70 L350.87 840.88 L354.49 841.89 L358.08 842.93 L361.36 844.71 L364.63 846.55 L367.73 848.87 L370.88 851.13 L374.18 852.99 L377.61 854.56 L381.20 855.66 L385.03 855.98 L388.58 857.15 L391.61 860.09 L393.32 867.70 L396.15 871.79 L398.97 876.14 L401.59 881.60 L405.23 883.31 L409.54 882.23 L413.90 880.74 L418.17 879.47 L422.37 878.30 L426.49 877.39 L430.56 876.51 L434.75 874.73 L438.87 873.15 L443.01 871.09 L447.16 868.60 L451.14 866.91 L455.10 865.00 L458.92 863.98 L462.57 864.32 L466.22 864.58 L469.91 864.39 L473.59 864.15 L477.26 863.98 L480.87 864.77 L484.55 864.34 L488.21 863.83 L491.83 864.96 L495.47 865.36 L499.13 864.11 L502.77 863.64 L506.41 864.09 L510.02 862.90 L513.64 862.53 L517.27 862.40 L520.84 861.38 L524.42 860.66 L527.91 858.95 L531.52 858.85 L534.98 857.18 L538.47 856.10 L542.15 856.76 L545.63 855.63 L549.11 854.61 L552.67 854.22 L557.71 863.09 L562.48 869.25 L566.40 869.94 L571.54 876.83 L576.03 879.71 L579.66 878.16 L582.95 875.14 L586.26 872.39 L589.47 869.43 L592.63 866.42 L595.88 863.93 L598.97 860.97 L601.80 857.21 L604.70 853.94 L607.67 851.05 L610.55 847.97 L613.11 844.07 L615.89 841.01 L619.35 839.97 L622.22 837.33 L625.13 834.85 L628.86 834.59 L631.86 832.43 L635.07 830.85 L638.10 828.82 L640.95 826.42 L644.16 824.89 L646.84 822.20 L649.86 820.30 L653.33 819.36 L656.47 817.73 L659.19 815.24 L661.82 812.64 L665.21 811.52 L668.38 809.97 L671.67 808.63 L675.09 807.50 L679.13 807.41 L682.93 806.83 L685.34 803.93 L688.22 801.81 L691.29 800.02 L693.78 797.32 L696.85 795.52 L700.41 794.44 L708.29 799.54 L713.61 800.72 L717.99 800.48 L723.89 802.22 L727.90 801.28 L730.11 797.96 L732.11 794.42 L733.74 790.46 L735.81 787.11 L737.57 783.42 L739.16 779.60 L740.83 775.91 L741.68 771.36 L742.49 766.85 L743.44 762.57 L744.10 758.06 L744.90 753.77 L746.06 749.92 L747.66 746.56 L749.78 743.76 L751.49 740.56 L753.84 737.99 L755.61 734.90 L758.29 732.64 L761.02 730.41 L762.59 727.16 L765.65 725.21 L767.96 722.60 L769.96 719.73 L772.23 717.09 L774.71 714.61 L776.25 711.40 L777.39 707.90 L778.84 704.67 L780.20 701.39 L781.15 697.83 L782.17 694.37 L784.40 691.73 L785.53 688.37 L786.75 685.09 L789.80 682.98 L790.94 679.65 L792.12 676.37 L794.28 673.69 L801.57 673.95 L810.06 674.73 L813.86 672.76 L820.84 672.45 L826.89 671.51 L829.03 668.46 L829.11 664.36 L829.02 660.23 L829.32 656.32 L829.23 652.26 L828.99 648.18 L829.14 644.30 L828.34 640.05 L827.00 635.63 L826.18 631.49 L825.18 627.32 L823.91 623.10 L822.47 618.88 L822.78 615.34 L822.83 611.73 L822.50 608.01 L823.73 604.84 L823.73 601.27 L824.21 597.87 L825.48 594.72 L826.33 591.43 L827.56 588.26 L828.93 585.11 L830.03 581.88 L831.39 578.71 L832.24 575.41 L832.95 572.07 L832.94 568.60 L833.17 565.18 L833.26 561.74 L833.98 558.43 L833.74 554.95 L835.93 551.87 L837.53 548.66 L838.20 545.31 L839.51 542.04 L840.39 538.69 L839.82 535.19 L839.86 531.76 L839.16 528.28 L846.42 525.40 L850.80 522.20 L851.18 518.70 L858.23 515.48 L860.87 511.98 L860.09 508.35 L858.81 504.73 L856.91 501.14 L855.47 497.58 L853.79 494.05 L851.64 490.57 L850.19 487.10 L847.30 483.73 L844.12 480.43 L841.41 477.15 L838.20 473.97 L835.32 470.82 L833.55 467.61 L832.37 464.36 L831.53 461.10 L830.94 457.81 L829.61 454.62 L828.07 451.49 L827.60 448.20 L826.92 444.95 L825.66 441.81 L825.93 438.39 L825.48 435.10 L824.02 432.02 L822.55 428.95 L822.79 425.50 L821.17 422.49 L820.07 419.36 L819.53 416.09 L817.84 413.12 L816.47 410.09 L814.31 407.30 L812.21 404.51 L810.67 401.57 L809.41 398.56 L808.40 395.46 L806.91 392.53 L805.90 389.44 L804.78 386.39 L806.77 382.14 L814.69 375.47 L816.24 371.18 L819.20 366.24 L823.62 360.57 L823.33 356.84 L820.46 354.26 L817.50 351.76 L814.31 349.40 L811.25 347.02 L808.03 344.76 L804.91 342.49 L801.45 340.44 L797.37 338.77 L793.73 336.93 L790.49 334.90 L786.23 333.51 L781.99 332.18 L779.14 330.08 L776.33 327.98 L773.47 325.94 L771.23 323.53 L769.14 321.04 L766.92 318.63 L765.84 315.46 L763.85 312.90 L761.54 310.58 L760.46 307.36 L759.23 304.23 L756.46 302.27 L754.62 299.59 L753.19 296.59 L750.05 294.96 L747.28 293.06 L745.01 290.76 L743.24 288.03 L740.65 286.02 L739.24 282.95 L738.18 279.52 L735.06 278.00 L732.85 275.64 L730.92 273.01 L727.50 271.85 L725.42 269.37 L723.52 266.69 L729.92 255.16 L731.57 248.41 L726.01 249.47 L730.68 239.09 L731.46 232.87 L725.00 235.02 L718.73 237.12 L717.57 233.14 L712.78 233.61 L707.79 234.46 L703.68 234.27 L700.43 233.02 L696.26 233.06 L692.07 233.21 L688.13 233.09 L688.24 227.18 L688.74 220.53 L681.35 225.59 L680.14 221.41 L677.57 219.27 L670.27 224.74 L663.93 228.97 L665.62 219.89 L666.83 211.30 L660.36 215.98 L660.05 209.78 L659.80 203.26 L658.21 199.04 L649.86 207.87 L647.00 206.25 L645.73 201.36 L639.46 206.80 L633.00 213.02 L629.31 213.50 L626.05 213.11 L622.37 213.76 L618.98 213.80 L616.92 210.62 L620.07 194.06 L615.55 196.68 L611.66 197.84 L611.14 189.74 L605.42 196.18 L599.02 205.15 L595.93 204.56 L598.69 185.39 L595.39 184.94 L593.02 181.29 L592.76 169.95 L589.82 167.68 L584.49 174.50 L580.74 175.68 L577.87 173.27 L573.59 176.98 L569.62 179.63 L566.07 180.60 L562.65 181.10 L558.96 183.14 L555.34 185.16 L551.74 187.28 L550.17 176.75 L546.75 177.56 L542.38 185.61 L540.23 177.18 L536.59 180.39 L532.42 189.30 L528.87 193.71 L527.01 179.08 L523.88 177.87 L520.17 185.21 L517.48 176.58 L514.53 169.76 L511.09 173.76 L507.55 185.24 L504.50 178.03 L501.28 178.32 L498.12 186.96 L495.09 193.55 L492.03 193.77 L488.94 193.16 L485.91 194.05 L482.82 193.69 L479.04 183.01 L475.37 176.64 L472.72 183.68 L469.03 178.43 L465.77 178.37 L463.51 186.90 L461.16 193.44 L457.02 185.98 L452.64 177.96 L450.02 182.29 L445.59 175.31 L441.15 169.10 L438.39 172.61 L436.47 180.08 L432.75 178.21 L430.15 181.70 L427.95 186.67 L425.48 190.16 L422.63 191.87 L420.06 194.62 L417.71 198.00 L415.29 200.93 L411.97 200.67 L406.24 192.58 L405.17 199.84 L402.37 201.41 L398.15 198.75 L397.72 207.14 L397.46 215.58 L393.68 214.09 L386.33 203.44 L385.58 210.18 L382.34 210.48 L377.41 206.80 L372.02 202.31 L373.00 212.54 L372.31 218.63 L366.23 212.90 L366.18 220.14 L367.44 229.75 L365.80 233.19 L363.21 234.68 L361.15 237.17 L358.87 239.20 L356.37 240.81 L346.15 228.80 L343.71 230.81 L344.56 238.32 L336.78 231.39 L336.99 237.68 L339.90 248.02 L340.23 254.01 L328.38 241.46 L324.38 241.08 L321.88 242.98 L313.34 236.33 L306.70 232.65 L305.75 236.92 L307.62 244.83 L302.29 243.15 L302.47 248.62 L304.25 255.96 L304.46 261.15 L303.01 264.23 L301.80 267.54 L300.84 271.10 L299.05 273.64 L291.22 269.52 L287.60 270.17 L290.16 277.45 L284.47 275.95 L282.93 278.82 L286.42 286.69 L288.64 293.08 L279.17 288.10 L274.42 287.83 L279.13 296.38 L271.93 293.93 L265.55 292.38 L263.95 295.14 L270.08 304.45 L265.20 304.32 L262.33 305.92 L267.02 313.60 L269.69 319.49 L269.57 323.08 L268.03 325.56 L265.82 327.54 L264.08 329.87 L261.78 331.80 L260.00 334.12 L259.19 337.09 L257.40 339.39 L256.46 342.25 L255.11 344.83 L252.84 346.84 L250.84 349.02 L249.21 351.44 L247.72 353.95 L245.82 356.22 L244.60 358.89 L244.34 362.06 L243.39 364.84 L242.80 367.80 L243.05 371.16 L242.56 374.12 L241.53 376.80 L240.57 379.51 L239.43 382.14 L237.70 384.50 L236.29 387.02 L235.09 389.63 L233.43 392.05 L232.94 394.95 L232.53 397.86 L232.55 400.92 L231.76 403.67 L232.40 406.91 L232.51 409.93 L229.19 411.82 L227.94 414.42 L227.45 417.25 L225.60 419.67 L222.96 421.90 L223.46 425.02 L223.50 427.99 L222.64 430.72 L222.95 433.73 L223.31 436.74 L224.42 439.88 L225.65 443.02 L225.44 445.83 L225.61 448.71 L226.34 451.68 L225.64 454.38 L226.30 457.30 L226.53 460.13 L224.89 462.70 L225.42 465.56 L225.74 468.38 L224.83 471.06 L222.03 473.58 L221.08 476.30 L221.10 479.11 L218.12 481.71 L217.43 484.51 L217.78 487.35 L218.24 490.20 L218.93 493.03 L220.50 495.87 L222.45 498.67 L223.34 501.44 L223.03 504.22 L223.62 506.97 L223.54 509.74 L221.78 512.59 L221.00 515.42 L221.31 518.20 L222.54 520.91 L222.66 523.69 L223.68 526.39 L224.95 529.05 L225.35 531.79 L225.46 534.56 L225.69 537.32 L225.92 540.08 L225.81 542.91 L226.15 545.66 L226.37 548.44 L226.91 551.17 L227.08 553.97 L228.80 556.45 L229.85 559.06 L231.47 561.52 L234.12 563.72 L236.49 565.95 L237.20 568.57 L238.91 570.92 L240.75 573.21 L240.87 575.98 L242.06 578.44 L243.49 580.82 L244.24 583.40 L245.29 585.89 L245.87 588.53 L247.52 590.80 L248.26 593.38 L246.97 596.75 L246.58 599.82 L246.29 602.87 L246.09 605.92 L247.53 608.30 L250.22 610.12 L251.95 612.33 L254.66 614.07 L255.25 616.79 L255.16 619.85 L256.31 622.32 L257.02 625.03 L258.12 627.53 L261.40 628.87 L262.60 631.31 L264.82 633.17 L266.83 635.13 L267.60 637.80 L269.37 639.89 L272.16 641.33 L274.01 643.34 L273.90 646.60 L275.51 648.76 L277.40 650.73 L278.19 653.45 L278.90 656.25 L281.24 657.90 L284.53 658.83 L285.09 661.76 L287.93 662.97 L290.13 664.65 L291.54 666.93 L294.20 668.21 L296.93 669.40 L298.64 671.41 L301.17 672.71 L303.55 674.13 L306.21 675.26 L308.16 677.01 L309.26 679.56 L311.88 680.68 L314.12 682.13 L315.44 684.49 L317.78 685.84 L319.14 688.18 L319.61 691.49 L320.64 694.25 L321.71 697.00 L322.73 699.85 L323.92 702.56 L325.63 704.69 L328.37 705.60 L330.72 706.97 L332.16 709.45 L334.59 710.70 L338.05 710.59 L340.05 712.34 L342.26 713.84 L345.05 714.50 L347.58 715.51 L350.08 716.53 L352.27 718.00 L354.85 718.87 L357.67 719.35 L359.92 720.68 L361.93 722.41 L364.34 723.47 L366.33 725.25 L368.45 726.82 L370.98 727.67 L372.82 729.75 L374.58 732.01 L377.06 732.96 L379.73 733.53 L382.19 734.50 L384.90 734.92 L388.17 734.16 L391.26 733.66 L392.90 736.29 L395.60 736.59 L397.87 737.86 L399.63 740.36 L402.43 740.38 L405.15 740.55 L407.26 742.27 L410.02 742.29 L412.46 743.16 L414.77 744.39 L413.23 757.04 L414.17 762.88 L417.04 763.00 L417.35 771.42 L418.29 778.30 L422.21 775.09 L426.64 769.72 L428.66 773.05 L432.26 770.28 L436.32 765.30 L439.72 762.67 L442.69 761.72 L445.86 759.64 L448.85 758.19 L451.88 756.33 L453.12 764.24 L455.26 767.74 L459.24 759.88 L461.16 764.92 L463.92 764.48 L467.71 755.80 L470.97 750.06 L472.28 761.61 L474.48 766.21 L477.76 759.22 L479.86 766.03 L482.10 772.60 L484.80 773.22 L488.05 762.09 L490.58 764.65 L493.18 766.75 L495.97 758.86 L498.60 751.59 L501.10 749.38 L503.57 747.40 L506.04 747.16 L508.47 746.06 L511.16 750.98 L514.45 765.30 L516.72 759.15 L519.35 759.47 L522.33 763.88 L524.19 755.45 L525.80 746.13 L528.66 749.38 L532.74 761.79 L535.42 761.92 L538.67 765.85 L542.51 773.11 L546.20 778.45 L547.72 770.82 L549.86 767.26 L552.83 768.31 L554.42 762.50 L555.90 756.68 L558.03 754.22 L560.03 751.37 L561.93 748.32 L563.92 745.80 L565.67 742.52 L571.13 752.65 L573.01 749.73 L573.65 742.88 L578.41 749.55 L579.25 743.67 L578.83 734.40 L580.05 730.36 L587.63 744.28 L589.54 741.97 L590.35 736.85 L595.60 743.28 L599.99 747.16 L600.30 740.97 L598.87 731.00 L604.36 737.23 L605.57 733.62 L604.14 724.44 L603.95 718.29 L605.83 716.64 L608.11 715.80 L610.17 714.53 L612.71 714.17 L620.60 723.72 L624.97 726.37 L623.71 718.89 L629.43 723.75 L631.04 721.40 L628.63 712.44 L628.34 707.27 L634.78 712.88 L640.87 717.64 L641.66 714.15 L648.08 719.06 L654.68 723.96 L656.44 721.73 L654.31 714.13 L657.08 713.45 L657.83 710.04 L656.45 703.92 L655.93 699.09 L657.12 696.53 L657.54 693.06 L658.08 689.82 L658.71 686.75 L662.70 687.61 L669.88 691.97 L666.71 684.63 L669.80 684.32 L672.68 683.72 L669.16 676.41 L665.65 669.32 L671.34 671.67 L680.25 677.02 L677.16 670.54 L681.53 671.29 L686.73 672.70 L691.89 673.94 L685.61 664.89 L685.68 661.67 L691.04 663.01 L687.65 656.90 L683.41 650.26 L683.14 647.00 L682.99 643.90 L684.12 641.83 L684.53 639.22 L685.38 636.98 L700.33 644.96 L699.97 641.66 L697.62 637.05 L706.07 639.89 L701.79 634.05 L694.92 626.69 L694.23 623.50 L708.23 629.50 L712.70 629.35 L716.14 628.50 L724.61 630.51 L731.26 631.30 L727.90 626.40 L723.50 621.05 L729.03 621.09 L725.00 616.10 L721.02 611.27 L719.61 607.82 L719.25 604.93 L717.79 601.57 L717.16 598.64 L716.48 595.73 L725.58 597.07 L726.78 594.91 L719.94 589.48 L727.68 589.98 L726.08 586.74 L718.43 581.31 L715.55 577.80 L728.17 579.78 L730.04 577.86 L722.91 572.97 L732.27 573.48 L738.98 572.98 L736.18 569.55 L726.33 564.19 L732.65 563.48 L733.31 561.16 L724.81 556.53 L718.48 552.63 L718.01 550.21 L717.87 547.89 L718.18 545.68 L719.90 543.75 L730.07 543.38 L739.77 542.73 L733.09 539.14 L736.97 537.36 L738.80 535.21 L730.93 531.69 L724.52 528.53 L732.65 527.20 L743.92 526.04 L740.83 523.28 L747.34 521.42 L754.67 519.49 L752.67 516.79 L745.22 513.84 L746.80 511.45 L744.94 508.91 L740.82 506.35 L737.97 503.90 L737.13 501.51 L735.09 499.15 L732.31 496.83 L730.11 494.56 L729.84 492.27 L740.13 489.52 L734.16 487.43 L731.25 485.27 L736.11 482.58 L728.43 480.85 L719.99 479.34 L720.26 477.09 L734.32 473.26 L729.63 471.47 L728.23 469.32 L734.09 466.14 L739.83 462.86 L731.17 461.83 L724.51 460.62 L731.38 457.03 L725.72 455.74 L716.44 455.31 L711.66 454.08 L709.73 452.30 L708.84 450.30 L707.32 448.47 L705.44 446.75 L720.87 440.39 L722.29 437.61 L713.67 437.72 L722.37 432.76 L718.30 431.60 L707.48 432.71 L700.99 432.58 L715.82 425.20 L719.92 421.31 L715.78 420.35 L726.98 413.62 L730.71 409.55 L723.64 409.73 L717.74 409.57 L719.16 406.40 L714.80 405.71 L710.65 405.01 L707.71 403.83 L706.17 402.02 L702.90 401.08 L699.41 400.30 L696.75 399.16 L702.01 393.90 L703.66 390.42 L694.90 392.61 L697.88 388.37 L696.09 386.78 L687.58 389.18 L680.98 390.62 L688.85 383.27 L692.56 378.30 L684.79 380.61 L688.97 375.21 L692.58 370.04 L692.66 367.17 L681.97 371.83 L682.60 368.63 L683.81 364.95 L675.72 368.17 L668.34 371.06 L665.69 370.44 L663.60 369.42 L661.90 368.11 L660.35 366.68 L663.26 361.47 L671.86 351.19 L666.33 353.04 L665.43 350.86 L667.68 345.77 L660.41 349.47 L653.30 353.23 L653.43 350.14 L661.77 338.80 L658.36 339.02 L658.65 335.46 L662.84 327.70 L661.62 325.53 L654.77 329.53 L652.61 328.50 L651.09 326.75 L646.33 328.78 L642.46 329.89 L640.05 329.33 L637.57 328.89 L634.07 329.79 L630.98 330.24 L627.89 330.78 L632.70 320.72 L629.07 321.92 L623.60 325.83 L626.43 318.01 L621.32 321.58 L614.50 327.94 L610.74 329.93 L616.93 316.43 L614.66 315.96 L610.01 319.42 L612.76 310.68 L613.83 304.45 L609.01 308.35 L601.90 316.61 L604.16 308.05 L601.04 309.27 L595.14 315.99 L590.86 319.88 L588.29 320.53 L586.21 320.23 L584.10 320.04 L581.74 320.43 L585.30 307.53 L585.55 301.64 L580.25 308.69 L580.89 301.61 L578.86 300.93 L573.19 309.71 L568.63 316.09 L571.05 303.63 L572.10 294.32 L568.61 297.82 L569.94 286.94 L569.97 279.41 L566.41 283.13 L562.40 288.70 L561.03 285.47 L557.96 288.24 L554.80 291.61 L552.08 293.61 L549.81 293.94 L547.31 295.33 L544.66 297.61 L542.34 298.57 L540.97 294.90 L540.35 286.94 L536.79 294.52 L534.94 292.94 L533.15 290.81 L529.83 298.75 L526.73 306.37 L525.49 300.60 L524.81 289.20 L521.98 295.71 L520.30 291.69 L518.60 287.20 L516.87 281.85 L514.02 291.55 L511.77 294.42 L509.99 288.45 L507.61 295.41 L505.35 303.08 L503.33 306.17 L501.38 307.74 L499.45 307.18 L497.54 308.40 L495.59 306.88 L493.62 305.78 L491.74 307.30 L489.79 307.01 L487.85 306.95 L486.03 308.49 L484.06 308.04 L482.06 307.34 L478.50 291.70 L476.33 291.14 L474.21 291.07 L470.79 281.39 L468.42 280.40 L467.29 287.63 L465.71 291.29 L463.17 289.05 L461.84 293.61 L460.51 297.74 L458.81 299.71 L456.94 300.74 L455.55 303.84 L454.18 306.78 L452.72 309.13 L448.52 300.76 L446.70 301.91 L447.11 310.96 L443.32 304.99 L442.14 308.09 L443.01 317.61 L442.67 322.77 L436.80 311.07 L434.18 309.61 L434.93 317.69 L430.14 310.28 L425.77 304.48 L424.74 307.58 L427.04 318.83 L423.31 314.93 L421.26 315.23 L422.97 324.14 L424.12 331.38 L422.78 332.87 L421.53 334.53 L420.54 336.68 L419.02 337.71 L413.39 330.68 L406.91 322.42 L408.73 330.06 L405.23 327.69 L402.36 326.60 L405.22 335.54 L407.80 343.66 L402.50 338.38 L394.47 328.96 L394.29 332.45 L388.68 327.40 L382.59 321.90 L381.21 323.67 L383.77 331.14 L381.48 331.45 L380.78 334.00 L381.64 338.63 L381.87 342.27 L380.72 344.01 L380.27 346.62 L380.50 350.03 L380.35 352.90 L379.18 354.46 L371.16 347.91 L373.08 353.19 L373.64 356.75 L368.38 353.76 L371.97 360.58 L376.32 367.99 L375.35 369.59 L363.91 360.45 L365.27 364.58 L364.98 366.98 L358.82 363.65 L353.61 361.43 L357.24 367.55 L361.10 373.69 L353.40 369.34 L356.19 374.39 L361.51 381.45 L363.26 385.30 L363.05 387.44 L362.03 388.89 L361.47 390.71 L359.63 391.52 L347.60 384.63 L345.44 385.41 L349.68 390.87 L340.83 386.85 L343.05 390.78 L349.12 397.23 L351.98 401.33 L340.53 395.98 L336.19 395.47 L338.17 399.00 L328.19 395.14 L322.68 394.20 L326.76 398.97 L330.41 403.36 L327.26 403.84 L329.34 407.22 L331.68 410.66 L332.73 413.35 L332.36 415.27 L333.61 417.98 L335.56 420.98 L336.33 423.36 L329.90 422.41 L326.03 422.74 L333.00 427.82 L327.93 427.66 L327.84 429.64 L334.72 434.38 L340.38 438.46 L331.22 436.86 L324.49 436.34 L330.75 440.52 L325.44 440.61 L318.96 440.41 L316.01 441.48 L326.45 446.70 L324.15 447.91 L321.05 448.94 L328.02 452.78 L334.88 456.44 L336.12 458.51 L336.77 460.41 L337.39 462.27 L338.20 464.16 L334.16 465.01 L319.08 463.71 L324.39 466.60 L325.12 468.54 L318.71 469.26 L326.29 472.33 L335.76 475.52 L333.82 476.93 L318.03 476.59 L318.95 478.54 L314.93 479.94 L305.61 480.90 L303.64 482.68 L311.15 485.25 L312.09 487.21 L310.81 489.02 L315.44 491.14 L318.84 493.12 L320.13 494.97 L321.21 496.79 L324.07 498.60 L326.17 500.35 L328.04 502.07 L318.00 504.01 L320.23 505.76 L327.61 507.25 L320.15 509.37 L325.34 510.85 L334.99 511.91 L339.40 513.20 L324.56 516.19 L324.97 517.92 L331.18 518.99 L321.58 521.88 L316.04 524.43 L321.64 525.50 L332.19 525.71 L324.25 528.73 L326.73 530.11 L336.37 530.12 L340.95 530.92 L342.28 532.31 L342.96 533.81 L344.11 535.19 L343.70 536.93 L342.70 538.83 L344.05 540.16 L344.74 541.64 L344.57 543.36 L346.50 544.48 L346.75 546.07 L346.72 547.76 L348.83 548.76 L350.14 550.00 L350.53 551.54 L351.92 552.72 L353.37 553.86 L355.17 554.85 L355.10 556.54 L355.58 558.02 L357.27 559.01 L358.31 560.24 L357.73 562.18 L358.66 563.47 L359.96 564.57 L359.79 566.36 L361.21 567.39 L362.53 568.46 L363.19 569.85 L364.56 570.86 L365.25 572.23 L366.24 573.43 L366.96 574.77 L367.59 576.17 L369.07 577.07 L370.02 578.27 L370.08 580.02 L371.79 580.74 L373.32 581.56 L373.34 583.35 L374.52 584.38 L375.85 585.31 L377.07 586.29 L377.68 587.70 L378.52 588.96 L380.51 589.34 L381.68 590.33 L382.18 591.82 L384.08 592.22 L385.76 592.77 L386.15 594.36 L387.39 595.24 L388.83 595.95 L389.18 597.60 L390.54 598.36 L391.56 599.42 L392.64 600.43 L393.95 601.21 L394.94 602.29 L396.35 602.96 L397.41 603.97 L397.66 605.80 L399.18 606.34 L400.20 607.39 L400.66 609.06 L402.33 609.41 L403.52 610.28 L404.87 610.96 L406.34 611.48 L407.61 612.23 L408.75 613.12 L409.54 614.47 L410.09 616.15 L411.76 616.38 L413.38 616.64 L414.23 617.94 L416.03 617.93 L417.87 617.82 L418.68 619.18 L419.93 619.90 L421.51 620.13 L422.77 620.82 L423.82 621.84 L424.76 623.07 L426.47 623.02 L427.85 623.50 L428.58 625.11 L430.41 624.78 L432.28 624.32 L433.36 625.32 L434.80 625.62 L436.45 625.49 L437.63 626.28 L439.10 626.48 L440.39 627.03 L441.81 627.29 L443.24 627.53 L444.42 628.32 L446.06 628.03 L447.41 628.39 L448.42 629.62 L449.97 629.46 L451.42 629.56 L452.42 630.84 L453.49 632.00 L454.80 632.49 L456.33 632.33 L457.44 633.44 L458.88 633.51 L460.54 632.83 L461.61 634.12 L462.97 634.46 L464.58 633.81 L465.80 634.62 L467.13 635.05 L468.75 634.20 L470.31 633.54 L471.54 634.36 L472.97 634.18 L474.47 633.67 L475.76 634.13 L477.13 634.23 L478.49 634.32 L479.93 633.91 L481.26 634.16 L482.50 635.16 L484.01 634.04 L485.41 633.63 L486.63 634.94 L488.05 634.24 L489.46 633.52 L490.78 633.82 L492.12 633.97 L493.47 633.74 L494.83 633.26 L496.18 632.95 L497.50 633.04 L498.84 632.10 L500.16 631.78 L501.49 632.57 L502.80 631.59 L504.09 630.82 L505.43 631.53 L506.71 630.91 L507.99 630.24 L509.31 630.43 L510.60 630.14 L511.89 629.97 L513.20 629.90 L514.48 629.67 L515.83 629.94 L517.12 629.70 L518.34 628.97 L519.78 629.78 L521.00 629.10 L522.11 627.84 L523.44 627.89 L524.62 627.14 L525.78 626.37 L527.06 626.19 L528.45 626.51 L529.90 626.98 L531.01 626.03 L532.21 625.50 L533.62 625.77 L534.48 623.98 L535.43 622.65 L536.88 623.03 L537.85 621.81 L538.72 620.36 L540.11 620.52 L541.45 620.54 L542.65 620.09 L543.65 619.12 L544.85 618.72 L546.24 618.78 L547.02 617.31 L547.77 615.81 L549.07 615.65 L549.93 614.49 L550.65 613.04 L552.11 613.25 L552.77 611.72 L553.50 610.40 L554.81 610.28 L555.66 609.23 L556.50 608.20 L557.57 607.61 L558.55 606.87 L559.78 606.55 L560.84 605.96 L561.71 605.03 L562.73 604.35 L563.80 603.77 L564.84 603.13 L566.00 602.69 L567.05 602.07 L568.25 601.67 L569.76 601.70 L570.67 600.84 L571.81 600.32 L572.65 599.38 L574.05 599.20 L575.05 598.47 L575.42 596.93 L576.34 596.11 L577.58 595.69 L579.10 595.59 L579.36 593.98 L580.15 593.02 L581.73 592.95 L581.70 591.07 L582.58 590.22 L583.48 589.38 L583.81 587.96 L584.55 586.98 L584.85 585.55 L585.10 584.11 L585.43 582.77 L586.81 582.44 L588.27 582.16 L589.43 581.59 L589.90 580.38 L591.15 579.87 L591.47 578.55 L591.06 576.63 L591.51 575.46 L592.50 574.73 L593.05 573.65 L593.36 572.39 L594.24 571.58 L595.02 570.68 L596.85 570.55 L596.61 568.90 L597.98 568.41 L599.58 568.06 L600.24 567.05 L600.81 565.98 L602.00 565.31 L603.63 564.90 L604.06 563.74 L604.48 562.57 L605.66 561.85 L606.53 560.93 L606.29 559.39 L606.26 557.99 L607.16 557.10 L607.25 555.77 L606.76 554.17 L606.39 552.65 L607.16 551.70 L607.14 550.38 L606.59 548.83 L606.16 547.35 L606.55 546.25 L606.65 545.03 L606.32 543.65 L605.88 542.24 L606.08 541.09 L606.26 539.94 L606.11 538.68 L605.63 537.31 L605.64 536.13 L605.85 535.03 L605.77 533.83 L605.21 532.49 L605.10 531.31 L605.53 530.29 L605.40 529.12 L604.89 527.85 L604.71 526.69 L605.11 525.67 L604.94 524.52 L604.50 523.32 L604.23 522.17 L604.50 521.13 L604.41 520.03 L604.03 518.88 L603.74 517.76 L603.81 516.71 L603.75 515.63 L603.49 514.54 L603.16 513.44 L603.06 512.38 L603.01 511.33 L602.78 510.27 L602.37 509.19 L602.22 508.15 L602.18 507.12 L601.93 506.08 L601.51 505.03 L601.29 504.01 L601.26 502.99 L601.00 501.98 L600.55 500.96 Z"/>
  <svg class="pausebutton" id="pausebutton">
    <circle cx="500" cy="500" id="pausestart" class="pausestart" r="52.65"/>
    <rect height="50.02" width="10.00" y="473.68" rx="2.00" ry="2.00" x="479.99" class="pausesymbol"/>
    <rect height="50.02" width="10.00" y="473.68" rx="2.00" ry="2.00" x="510.00" class="pausesymbol"/>
    <polygon points="530.01,500 479.99,530.01 479.99,469.99" class="playsymbol"/>
  </svg>
  <polygon id="playback-head" class="playback-head" points="941.65,500 921.65,540 961.65,540"/>
</svg>