<?xml-stylesheet href="../../style/waveformjs.css" type="text/css"?>
<svg xmlns="http://www.w3.org/2000/svg" xmlns:xlink="http://www.w3.org/1999/xlink" width="100%" height="100%" viewBox="0 0 1000 1000">
  <path class="svg-wave" id="sp" d="M584.70 500.00 L584.56 500.85 L585.11 501.70 L584.83 502.55 L585.61 503.43 L586.14 504.31 L585.81 505.16 L586.12 506.04 L586.48 506.93 L585.99 507.76 L586.41 508.67 L586.37 509.54 L586.37 510.41 L586.17 511.27 L586.05 512.13 L585.64 512.94 L585.24 513.76 L584.57 514.52 L583.42 515.18 L582.39 515.84 L581.73 516.57 L580.54 517.17 L580.29 517.95 L579.31 518.57 L578.67 519.25 L577.88 519.89 L577.46 520.61 L576.30 521.12 L575.75 521.78 L574.75 522.31 L573.98 522.88 L573.84 523.65 L573.07 524.21 L573.88 525.30 L575.93 526.86 L574.30 527.12 L576.74 528.89 L573.91 528.67 L575.95 530.34 L573.90 530.38 L575.17 531.78 L574.02 532.17 L575.35 533.65 L575.58 534.66 L576.80 536.16 L576.53 536.97 L575.02 537.17 L573.71 537.44 L572.97 537.99 L571.53 538.16 L571.57 539.10 L569.91 539.10 L568.94 539.47 L566.91 539.21 L565.56 539.30 L564.06 539.28 L563.43 539.77 L563.21 540.51 L562.81 541.15 L562.91 542.12 L562.79 542.95 L562.53 543.70 L562.35 544.51 L561.49 544.83 L560.62 545.14 L559.59 545.30 L559.03 545.81 L558.94 546.70 L558.89 547.62 L559.22 548.88 L559.36 549.99 L559.57 551.20 L558.90 551.66 L559.24 553.02 L559.18 554.04 L559.81 555.72 L560.79 557.78 L561.35 559.49 L561.97 561.31 L561.66 562.23 L561.06 562.87 L559.76 562.77 L558.37 562.55 L557.49 562.86 L557.67 564.33 L557.97 565.99 L558.00 567.37 L556.85 567.38 L555.51 567.14 L553.12 565.58 L552.05 565.59 L551.14 565.78 L550.95 566.91 L551.43 568.96 L551.23 570.14 L550.92 571.20 L550.84 572.62 L550.85 574.21 L551.92 577.41 L552.67 580.25 L553.61 583.49 L553.34 584.93 L553.06 586.40 L552.55 587.50 L551.91 588.43 L550.87 588.68 L549.86 588.98 L548.46 588.53 L547.33 588.57 L546.21 588.59 L545.40 589.19 L545.05 590.75 L544.47 591.88 L545.04 595.47 L543.84 595.39 L543.41 596.99 L542.35 597.24 L541.59 598.16 L540.97 599.45 L541.09 602.63 L540.22 603.46 L539.00 603.37 L537.84 603.42 L535.73 600.74 L534.39 600.13 L533.20 599.92 L531.10 596.82 L527.61 589.01 L525.93 586.65 L523.42 581.20 L523.44 584.43 L524.44 591.58 L525.03 597.70 L525.03 601.92 L524.70 605.13 L523.55 604.90 L522.72 606.18 L522.19 609.01 L520.95 608.47 L520.20 610.51 L518.97 610.00 L518.05 611.28 L517.11 612.59 L516.37 615.51 L515.26 615.99 L514.04 615.68 L512.83 615.29 L511.37 612.37 L510.15 611.45 L509.01 611.24 L507.59 606.97 L506.00 598.63 L504.86 595.65 L503.69 590.50 L502.90 594.00 L502.11 601.26 L501.16 607.31 L500.09 611.49 L498.95 614.09 L497.82 613.69 L496.65 614.77 L495.40 617.31 L494.26 616.64 L492.99 618.23 L491.86 617.45 L490.57 618.85 L489.30 619.68 L487.80 622.57 L486.59 622.35 L485.39 622.01 L484.27 621.04 L483.46 618.07 L482.46 616.67 L481.40 615.83 L480.98 611.35 L481.29 603.29 L480.91 599.71 L480.79 595.15 L479.19 598.03 L476.49 605.53 L474.16 610.75 L472.10 614.39 L470.36 616.48 L469.25 615.98 L467.79 616.73 L465.96 618.75 L464.98 617.71 L463.28 619.05 L462.31 617.98 L460.70 618.92 L459.12 619.67 L456.97 621.96 L455.82 621.32 L454.68 620.69 L453.85 619.26 L453.72 616.14 L453.04 614.50 L452.10 613.54 L453.01 608.36 L454.87 601.27 L455.29 597.69 L456.22 593.19 L453.61 596.22 L449.01 603.13 L445.47 607.55 L442.75 610.18 L440.36 612.04 L439.79 610.43 L437.85 611.31 L435.51 612.84 L434.77 611.53 L432.71 612.46 L432.28 610.66 L430.38 611.25 L428.68 611.47 L425.90 613.30 L425.02 612.18 L423.73 611.68 L423.63 609.45 L424.07 606.54 L423.86 604.60 L423.02 603.57 L425.51 598.15 L428.39 592.42 L430.20 588.25 L431.41 584.96 L428.01 587.37 L421.86 592.92 L417.61 596.01 L414.05 598.16 L411.64 598.90 L411.02 597.61 L408.95 597.89 L406.64 598.38 L406.27 596.82 L403.87 597.33 L403.91 595.36 L401.33 595.98 L399.61 595.72 L396.39 596.83 L395.98 595.29 L394.79 594.45 L395.24 592.17 L396.33 589.40 L396.69 587.30 L395.69 586.37 L400.35 580.84 L403.76 576.50 L406.65 572.69 L407.76 570.35 L404.11 571.64 L396.70 575.57 L391.93 577.41 L387.99 578.55 L385.74 578.44 L385.17 577.15 L382.99 576.93 L380.90 576.60 L380.75 575.03 L378.29 574.89 L378.69 572.98 L375.86 573.00 L374.07 572.37 L370.81 572.53 L370.89 570.80 L369.77 569.73 L371.00 567.42 L372.42 565.06 L373.74 562.80 L372.72 561.73 L379.40 557.01 L382.88 553.94 L387.13 550.62 L388.03 548.88 L383.90 549.30 L375.54 551.39 L370.86 551.82 L366.36 552.08 L364.69 551.18 L364.22 549.81 L362.06 549.04 L360.25 548.12 L360.29 546.55 L357.89 545.77 L358.62 543.98 L356.26 543.14 L354.41 542.12 L351.59 541.33 L352.11 539.60 L351.42 538.19 L353.21 536.17 L355.18 534.15 L357.72 532.05 L357.89 530.53 L365.37 527.51 L368.59 525.49 L372.84 523.35 L372.56 522.09 L368.45 521.44 L359.73 521.43 L355.57 520.59 L351.89 519.60 L350.76 518.24 L351.23 516.67 L351.81 515.11 L364.74 512.42 L360.71 511.39 L364.45 509.72 L354.85 508.95 L344.60 508.02 L345.69 506.42 L359.80 504.43 L350.80 503.22 L361.18 501.61 L348.02 500.24 L346.45 498.71 L349.16 497.22 L362.04 496.08 L367.12 494.89 L373.68 493.88 L372.20 492.53 L365.80 490.81 L361.10 489.09 L366.69 488.18 L360.15 486.19 L360.82 484.85 L353.22 482.54 L344.50 479.92 L346.99 478.69 L360.39 479.13 L354.20 476.71 L360.80 476.33 L348.09 472.61 L341.24 469.73 L343.20 468.47 L357.52 469.87 L346.04 465.83 L359.58 467.36 L344.32 462.16 L344.85 460.65 L348.34 459.91 L361.76 461.98 L364.61 461.30 L373.77 462.55 L370.24 460.09 L365.69 457.21 L361.85 454.46 L368.03 455.03 L359.56 450.57 L363.30 450.35 L353.50 445.12 L348.22 441.41 L351.22 440.85 L364.56 444.58 L356.44 439.57 L365.49 441.79 L351.50 433.97 L346.99 430.12 L350.35 429.84 L363.88 434.51 L352.98 427.45 L366.58 432.50 L351.63 423.06 L352.94 421.86 L357.46 422.42 L370.03 427.57 L371.30 426.58 L381.66 430.92 L376.55 426.27 L373.81 422.91 L371.72 419.86 L377.60 421.82 L368.19 413.94 L374.34 416.16 L363.11 406.67 L361.41 403.47 L365.20 404.09 L377.40 410.91 L369.74 403.34 L378.86 408.21 L365.95 396.30 L363.33 392.07 L367.37 393.10 L378.91 400.39 L370.26 391.07 L382.00 398.90 L369.39 385.81 L371.16 385.07 L375.86 387.01 L387.27 395.32 L387.24 393.17 L397.60 401.02 L392.53 394.02 L391.45 390.79 L390.34 387.45 L395.91 391.01 L387.62 379.94 L394.37 384.86 L384.59 371.66 L384.43 368.87 L388.53 370.93 L398.48 380.06 L392.75 370.68 L400.55 377.62 L390.12 361.98 L389.16 357.88 L393.54 360.65 L402.76 370.05 L396.70 359.03 L406.23 369.32 L396.79 353.07 L398.75 352.75 L403.46 356.55 L412.54 367.20 L413.07 365.09 L421.01 374.67 L417.80 366.64 L417.16 362.55 L417.29 359.61 L422.03 364.57 L416.36 351.31 L421.93 357.90 L415.18 341.89 L416.18 339.93 L420.02 343.47 L427.46 354.46 L423.94 343.49 L430.10 352.44 L423.12 333.43 L423.57 329.94 L427.55 334.39 L434.28 345.59 L431.16 333.66 L438.00 345.84 L432.50 327.20 L434.47 327.16 L438.38 332.43 L444.66 344.72 L445.87 343.18 L451.17 353.83 L449.88 344.80 L450.21 340.40 L451.39 338.53 L454.79 344.19 L452.49 329.90 L456.57 338.31 L453.55 319.88 L455.18 318.74 L458.37 324.10 L462.89 335.91 L462.09 324.18 L466.06 334.61 L463.56 312.95 L465.07 310.61 L468.07 316.60 L472.02 329.21 L471.90 317.04 L475.66 330.23 L474.70 310.04 L476.71 310.62 L479.40 317.44 L482.65 331.14 L484.19 329.39 L486.89 341.19 L487.73 330.82 L489.17 326.68 L490.87 325.95 L492.90 332.58 L494.08 317.42 L496.13 327.31 L497.61 307.26 L499.54 307.01 L501.42 313.78 L503.06 326.34 L505.13 314.20 L506.55 325.88 L509.39 303.03 L511.42 301.99 L512.91 309.32 L513.81 322.42 L516.58 311.24 L517.23 324.02 L521.10 304.71 L523.00 305.34 L523.98 313.07 L524.02 326.58 L525.99 325.22 L525.94 336.76 L529.27 326.99 L531.88 322.42 L533.50 323.56 L533.89 330.74 L538.84 315.63 L538.30 326.81 L544.98 305.81 L546.82 306.68 L546.97 314.19 L545.60 326.91 L550.73 314.97 L549.31 326.95 L557.87 304.37 L560.09 304.10 L559.46 312.85 L557.90 323.88 L562.88 314.97 L560.91 326.49 L569.22 308.96 L570.94 310.15 L569.75 318.88 L566.31 332.81 L568.87 331.32 L565.92 343.05 L572.21 332.76 L575.79 329.19 L577.09 330.85 L575.93 337.71 L583.87 325.31 L581.37 334.78 L592.39 317.04 L594.26 317.89 L592.20 326.14 L588.62 336.86 L595.90 327.59 L592.52 337.51 L605.76 318.50 L608.17 318.56 L604.93 327.94 L601.55 337.16 L607.75 331.02 L604.57 339.55 L615.98 325.88 L617.40 327.52 L613.72 336.46 L607.04 349.31 L609.87 348.55 L604.95 358.33 L613.48 349.98 L618.22 346.93 L618.70 349.43 L616.47 355.27 L626.56 345.90 L622.54 353.81 L637.36 339.41 L639.11 340.62 L634.53 348.95 L629.38 357.63 L637.65 351.53 L633.67 358.69 L650.28 344.28 L652.59 345.02 L646.56 354.09 L642.51 360.93 L648.64 357.82 L644.56 364.47 L658.52 354.33 L659.52 356.33 L653.15 364.81 L644.35 375.13 L646.86 375.50 L640.18 383.55 L650.86 377.21 L656.67 375.07 L655.66 378.39 L652.30 383.46 L663.86 377.18 L658.93 383.34 L676.34 373.26 L677.74 374.93 L670.73 382.40 L665.59 388.36 L673.33 385.65 L669.39 390.67 L688.13 381.21 L690.37 382.45 L681.29 390.54 L678.21 394.82 L682.48 394.74 L680.42 398.32 L693.81 393.32 L693.95 395.76 L685.50 402.68 L675.03 410.39 L676.68 411.76 L670.26 417.09 L681.49 413.85 L687.16 413.44 L685.26 416.56 L682.92 419.80 L693.09 417.64 L688.77 421.70 L706.92 416.59 L707.94 418.58 L698.62 424.52 L693.83 428.55 L700.24 428.45 L698.58 431.27 L716.67 427.43 L718.35 429.29 L706.98 435.25 L705.15 438.07 L707.13 439.72 L706.80 442.06 L719.36 440.90 L718.62 443.44 L708.40 448.30 L697.23 453.16 L697.74 455.12 L690.96 458.66 L702.76 458.23 L708.63 459.19 L705.35 461.96 L703.38 464.42 L712.70 464.98 L710.08 467.56 L726.99 467.27 L727.14 469.57 L715.81 473.28 L712.74 475.82 L716.66 477.56 L716.77 479.74 L734.07 480.48 L734.82 482.78 L721.80 485.97 L723.05 488.13 L720.82 490.46 L723.26 492.59 L733.07 494.60 L731.66 496.95 L719.98 499.30 L709.92 501.43 L708.17 503.50 L703.28 505.45 L713.07 507.85 L718.45 510.23 L714.15 512.18 L714.14 514.33 L720.31 516.96 L719.12 519.07 L734.51 522.78 L733.43 525.03 L721.11 525.95 L720.53 528.12 L720.96 530.42 L723.64 533.07 L738.18 537.66 L737.82 540.04 L723.90 540.01 L727.58 543.02 L721.80 544.23 L727.40 547.71 L733.89 551.52 L731.08 553.33 L719.04 552.86 L709.68 552.83 L706.31 554.18 L703.08 555.51 L711.03 559.96 L715.63 563.60 L710.87 564.49 L712.53 567.33 L715.38 570.61 L717.23 573.64 L728.31 579.94 L726.32 581.80 L713.67 579.65 L714.80 582.53 L712.19 583.97 L717.48 588.59 L727.82 595.46 L726.52 597.60 L712.61 594.14 L718.44 599.34 L709.45 597.79 L717.61 604.27 L720.24 608.25 L716.89 609.30 L704.61 605.69 L697.95 604.77 L692.23 604.22 L690.56 605.80 L696.59 611.73 L699.77 616.19 L694.14 615.54 L697.31 620.11 L696.51 622.33 L700.89 627.87 L707.46 634.98 L705.22 636.46 L692.83 631.02 L695.76 635.90 L690.39 635.01 L697.52 643.06 L703.76 650.70 L701.14 651.90 L688.20 645.10 L695.14 653.59 L684.21 647.99 L693.75 658.88 L692.86 661.40 L689.06 661.46 L677.67 654.83 L673.23 654.04 L665.66 650.30 L665.87 653.54 L669.17 659.76 L670.64 664.41 L665.01 662.20 L669.22 669.70 L666.17 670.01 L671.06 678.54 L674.26 685.56 L670.82 685.59 L659.89 677.23 L663.39 684.80 L656.32 680.41 L663.70 692.79 L665.99 699.50 L662.67 699.52 L651.74 689.97 L657.50 701.27 L647.07 691.87 L655.18 706.69 L652.86 707.91 L648.72 706.57 L638.80 696.92 L635.89 696.94 L628.26 689.92 L629.07 695.31 L629.74 700.65 L629.96 705.47 L624.73 701.64 L628.21 711.97 L623.72 709.24 L628.07 721.62 L628.13 726.94 L624.50 725.75 L615.63 714.72 L618.19 724.84 L611.51 717.37 L616.86 733.53 L616.67 739.08 L612.83 737.22 L604.54 725.57 L607.59 738.38 L599.48 726.41 L604.14 743.61 L601.47 744.10 L597.37 741.00 L589.95 729.20 L587.73 730.29 L581.39 720.24 L581.65 727.92 L580.55 732.15 L579.29 736.11 L574.99 730.92 L576.54 743.98 L571.97 737.71 L573.80 752.87 L572.10 756.54 L568.58 753.73 L562.62 741.23 L562.83 752.38 L557.87 742.81 L559.44 760.93 L557.72 765.63 L554.23 762.17 L549.07 749.76 L548.83 762.40 L543.77 749.06 L544.29 767.68 L541.48 767.26 L538.07 762.58 L533.56 749.00 L531.27 750.93 L527.30 738.49 L525.80 747.18 L523.64 750.79 L521.38 753.98 L518.34 747.49 L516.76 761.57 L513.68 753.18 L511.88 769.97 L509.26 772.38 L506.43 768.03 L503.57 755.06 L501.06 765.92 L498.46 755.26 L495.60 774.54 L492.77 777.84 L490.17 772.71 L488.04 759.66 L484.75 771.86 L482.95 757.88 L478.94 776.53 L476.24 775.56 L474.07 769.20 L472.85 755.12 L470.15 756.17 L469.10 743.90 L465.46 752.35 L462.38 755.83 L459.53 757.30 L458.02 750.51 L453.07 763.88 L452.00 755.07 L446.03 771.78 L443.04 772.55 L441.44 766.87 L441.65 753.74 L436.48 764.10 L436.45 753.09 L428.67 772.49 L425.27 774.25 L424.16 767.76 L425.18 754.41 L419.03 765.51 L420.57 751.40 L411.95 769.28 L409.49 767.72 L408.95 760.70 L411.05 746.74 L408.22 746.80 L409.94 734.97 L404.12 742.87 L400.14 745.72 L397.37 745.47 L397.33 738.82 L388.98 751.29 L390.43 741.45 L379.89 757.80 L377.21 756.81 L377.38 749.99 L380.53 737.53 L372.72 746.88 L375.57 735.54 L362.57 753.96 L359.27 753.96 L360.09 746.64 L364.17 733.96 L355.72 742.88 L360.29 729.93 L347.33 745.68 L345.30 743.49 L346.88 735.76 L352.33 722.46 L348.91 722.74 L353.76 711.02 L345.53 718.20 L340.99 719.92 L338.49 718.74 L340.26 711.88 L328.89 722.30 L332.94 712.60 L317.99 726.92 L315.76 725.05 L318.16 717.64 L324.04 706.37 L313.72 714.10 L319.72 703.07 L301.55 719.09 L298.87 717.63 L302.00 709.99 L308.29 699.29 L298.48 705.33 L304.93 694.83 L289.14 706.43 L287.63 703.79 L291.58 696.04 L300.04 684.34 L296.44 683.93 L303.59 673.93 L293.22 679.46 L287.91 680.38 L286.51 677.92 L290.26 671.27 L278.43 677.27 L284.50 668.91 L269.85 676.71 L268.84 673.83 L268.92 670.18 L268.80 666.73 L268.22 663.65 L265.88 661.82 L263.80 659.79 L261.20 658.09 L258.71 656.29 L256.08 654.56 L252.02 653.67 L248.63 652.32 L245.85 650.54 L243.96 648.23 L241.27 646.35 L239.98 643.67 L236.66 642.08 L236.06 639.02 L234.11 636.66 L232.59 634.08 L230.38 631.83 L228.18 629.56 L227.94 626.35 L226.98 623.49 L224.15 621.46 L225.03 617.81 L222.43 615.65 L223.29 612.06 L220.34 610.01 L218.56 607.47 L213.65 606.08 L211.35 603.66 L208.96 601.25 L207.82 598.38 L206.27 595.64 L205.22 592.73 L205.45 589.43 L207.44 585.64 L211.15 581.43 L215.41 577.16 L221.57 572.51 L222.23 569.38 L223.36 566.17 L221.15 563.76 L217.69 561.58 L214.00 559.40 L207.21 557.76 L202.48 555.61 L196.92 553.52 L195.81 550.58 L195.92 547.44 L197.34 544.13 L197.43 541.03 L194.62 538.30 L194.42 535.23 L190.21 532.58 L189.24 529.54 L187.68 526.54 L186.63 523.48 L185.67 520.39 L186.71 517.18 L189.68 513.90 L193.99 510.65 L198.67 507.47 L204.81 504.36 L206.40 501.40 L207.81 498.47 L206.82 495.54 L203.92 492.53 L199.58 489.41 L193.97 486.15 L189.74 482.85 L185.05 479.43 L185.41 476.29 L186.27 473.20 L186.17 470.03 L185.44 466.78 L185.41 463.59 L186.47 460.53 L187.39 457.47 L186.70 454.18 L186.70 450.98 L185.30 447.53 L186.58 444.51 L190.42 441.99 L193.51 439.39 L197.03 436.94 L201.34 434.71 L206.22 432.69 L209.55 430.39 L211.15 427.71 L210.83 424.55 L208.31 420.77 L204.26 416.49 L199.85 411.99 L196.45 407.69 L193.19 403.33 L194.22 400.29 L196.17 397.55 L196.51 394.27 L196.90 391.00 L198.08 388.00 L198.82 384.84 L199.43 381.61 L200.82 378.69 L199.37 374.59 L200.03 371.33 L200.78 368.09 L203.57 365.76 L208.48 364.46 L213.39 363.24 L219.71 362.79 L225.57 362.24 L228.55 360.32 L230.93 358.13 L231.43 354.94 L230.30 350.83 L227.24 345.56 L224.43 340.30 L221.59 334.92 L219.64 329.94 L221.64 327.33 L224.12 325.02 L225.06 321.74 L225.95 318.40 L226.34 314.69 L226.39 310.71 L228.41 308.06 L229.38 304.66 L231.66 302.20 L232.96 299.00 L235.38 296.65 L238.72 295.02 L244.45 295.36 L248.88 294.75 L256.29 296.70 L261.46 296.94 L265.29 296.12 L267.51 293.94 L268.63 290.76 L268.00 285.93 L266.17 279.87 L264.93 274.23 L263.73 268.49 L263.63 263.72 L266.33 261.69 L269.50 260.18 L271.22 257.15 L273.04 254.20 L274.32 250.63 L275.60 247.01 L278.42 245.09 L279.97 241.71 L282.89 239.91 L284.94 237.07 L287.76 235.16 L291.87 234.89 L297.23 236.33 L301.72 236.77 L308.23 240.03 L313.14 241.31 L317.20 241.54 L319.52 239.32 L322.04 237.40 L322.15 231.82 L322.05 225.74 L322.23 219.94 L322.19 213.59 L323.73 209.63 L326.77 208.09 L330.16 207.16 L332.33 204.12 L334.93 201.81 L336.99 198.44 L339.16 195.22 L342.33 193.84 L344.78 191.05 L347.99 189.74 L350.79 187.59 L354.18 186.66 L358.35 187.50 L363.41 190.46 L368.11 192.84 L373.64 197.40 L377.89 199.15 L381.79 200.20 L384.47 198.18 L387.13 196.06 L389.01 191.71 L389.90 184.31 L391.61 178.92 L392.86 171.84 L395.14 167.58 L398.86 167.84 L402.15 166.74 L405.60 166.14 L408.96 165.30 L412.31 164.40 L415.86 164.29 L419.36 164.04 L422.07 160.42 L425.47 159.64 L428.26 155.97 L431.69 155.20 L435.52 156.54 L439.73 160.27 L443.78 163.59 L448.12 169.20 L452.00 172.60 L455.62 174.66 L458.77 173.39 L461.86 171.47 L464.73 167.14 L467.35 159.42 L470.46 155.68 L473.40 148.65 L476.86 147.57 L480.41 147.91 L483.91 147.13 L487.48 148.26 L490.95 146.14 L494.48 145.71 L498.02 144.27 L501.58 143.27 L505.16 142.12 L508.73 142.48 L512.33 142.00 L515.90 142.36 L519.34 145.09 L522.60 149.68 L525.79 154.11 L528.68 161.08 L531.75 164.71 L534.90 167.04 L538.35 166.35 L541.82 165.66 L545.70 162.08 L550.08 155.65 L553.97 153.30 L558.61 146.77 L562.31 146.42 L565.83 147.08 L569.45 147.30 L573.02 147.80 L576.72 147.72 L580.34 148.06 L584.03 148.14 L587.57 148.91 L591.00 150.10 L594.54 150.83 L598.09 151.60 L601.48 152.87 L604.64 154.91 L606.85 159.91 L608.85 165.29 L610.46 171.54 L612.52 176.17 L615.03 179.35 L618.70 179.22 L622.29 179.41 L626.81 177.29 L632.79 171.77 L637.36 169.99 L643.29 165.22 L647.53 164.63 L650.47 167.02 L653.99 168.11 L657.29 169.69 L661.04 170.36 L664.88 170.87 L668.44 172.00 L671.98 173.20 L675.64 174.18 L678.89 175.96 L682.29 177.48 L685.21 179.81 L687.03 184.00 L687.91 189.65 L688.82 195.07 L688.25 202.68 L689.77 206.80 L691.31 210.80 L694.77 211.88 L698.58 212.48 L703.80 211.14 L711.86 206.00 L716.19 206.24 L724.01 201.90 L726.67 204.55 L729.12 207.46 L731.74 210.13 L734.85 212.20 L738.32 213.83 L742.10 215.13 L745.88 216.48 L749.07 218.54 L752.14 220.75 L755.02 223.18 L758.10 225.40 L760.31 228.54 L761.29 232.91 L761.07 238.42 L760.24 244.41 L758.26 251.38 L758.44 256.14 L759.02 260.44 L762.31 262.23 L766.32 263.40 L771.49 263.63 L779.72 261.33 L784.13 262.44 L792.17 260.64 L794.95 263.25 L796.73 266.66 L799.59 269.23 L802.07 272.09 L805.20 274.49 L808.33 276.90 L810.78 279.83 L813.69 282.45 L816.04 285.46 L818.20 288.62 L820.50 291.68 L821.69 295.45 L821.94 299.78 L820.16 305.30 L818.65 310.56 L814.67 317.16 L814.20 321.61 L813.81 325.96 L816.41 328.63 L820.20 330.70 L825.53 332.02 L835.04 331.34 L838.88 333.63 L847.66 333.62 L848.87 337.30 L849.99 341.02 L851.57 344.52 L853.09 348.06 L855.62 351.17 L858.14 354.30 L859.65 357.86 L861.24 361.40 L861.75 365.33 L864.19 368.55 L865.42 372.23 L867.56 375.59 L866.08 380.16 L863.20 385.11 L860.02 390.06 L854.42 395.64 L853.15 399.84 L852.06 403.94 L854.22 407.14 L857.13 410.19 L862.81 412.61 L871.88 414.35 L875.14 417.54 L883.62 419.69 L883.13 423.78 L883.48 427.69 L884.47 431.48 L885.59 435.25 L887.29 438.94 L889.14 442.63 L889.75 446.52 L891.17 450.30 L891.59 454.22 L892.57 458.08 L893.02 462.01 L892.27 466.03 L889.95 470.16 L885.83 474.35 L881.89 478.45 L874.85 482.61 L872.59 486.44 L870.43 490.23 L871.07 493.92 L873.50 497.62 L973.39 500.00 L974.59 495.25 L969.94 490.60 L964.42 486.06 L955.63 481.76 L949.14 477.52 L937.21 473.74 L932.01 469.71 L925.19 465.91 L922.25 461.89 L921.70 457.69 L920.95 453.51 L920.69 449.27 L919.78 445.12 L919.35 440.90 L918.73 436.72 L919.92 432.23 L917.48 428.34 L917.69 423.99 L915.86 420.02 L914.58 415.96 L919.40 410.61 L935.32 402.65 L940.90 396.77 L951.57 389.49 L952.09 384.56 L946.28 381.28 L940.42 378.11 L931.60 375.89 L923.89 373.51 L911.75 372.63 L906.33 369.84 L898.90 367.81 L895.99 364.37 L896.47 359.75 L894.04 356.16 L893.38 351.93 L890.22 348.65 L888.20 344.95 L887.12 340.87 L886.98 336.39 L883.78 333.20 L882.20 329.32 L879.56 325.93 L877.23 322.41 L882.96 315.01 L894.28 304.66 L899.38 297.13 L907.30 287.96 L905.32 283.81 L899.58 281.71 L893.04 280.15 L883.80 280.25 L875.51 279.98 L864.24 281.67 L858.61 280.14 L851.59 279.57 L847.04 277.56 L844.74 274.13 L841.63 271.26 L839.66 267.62 L838.01 263.76 L835.11 260.76 L833.64 256.74 L832.04 252.78 L828.03 250.63 L826.20 246.83 L823.07 244.05 L820.13 241.13 L825.35 231.47 L832.19 220.20 L836.72 210.58 L840.40 201.45 L837.53 197.94 L831.60 197.22 L824.43 197.77 L815.70 199.95 L807.48 201.85 L797.03 206.16 L790.87 206.44 L783.76 207.83 L779.27 206.64 L776.31 203.88 L773.22 201.25 L770.22 198.53 L767.51 195.49 L764.17 193.15 L762.95 188.32 L760.02 185.47 L756.39 183.46 L753.11 181.04 L748.71 180.06 L745.24 177.93 L749.10 165.99 L752.92 153.69 L755.12 143.25 L756.64 133.42 L752.82 131.08 L746.68 132.21 L739.62 134.90 L731.83 138.95 L724.02 143.31 L715.17 149.67 L709.66 150.87 L703.10 153.99 L698.77 153.48 L695.16 151.75 L691.70 149.76 L687.91 148.37 L684.78 145.76 L681.13 144.13 L677.53 142.40 L674.88 138.71 L670.29 139.04 L667.21 136.17 L663.17 135.41 L659.54 133.74 L660.96 120.14 L661.28 108.52 L661.35 96.95 L659.91 88.68 L655.49 87.89 L649.93 90.27 L643.72 94.75 L637.45 99.75 L630.83 106.26 L624.07 113.75 L619.03 116.28 L613.58 120.50 L610.19 117.95 L605.84 118.77 L602.34 116.51 L598.07 117.21 L594.18 116.45 L590.17 116.27 L586.37 115.18 L582.72 113.42 L578.52 114.23 L574.79 112.77 L570.89 112.20 L566.97 111.74 L565.25 97.73 L562.76 86.99 L560.15 75.64 L556.80 68.20 L552.35 68.76 L547.49 73.16 L542.62 78.58 L537.80 84.85 L532.91 93.52 L528.23 101.91 L523.97 106.28 L519.76 111.43 L515.82 112.55 L511.92 113.21 L508.06 112.47 L504.18 113.16 L500.31 112.20 L496.42 110.51 L492.53 111.22 L488.59 109.34 L484.74 110.94 L480.90 112.14 L477.01 112.16 L473.22 113.64 L468.19 99.26 L463.36 90.38 L458.17 79.68 L453.18 72.99 L449.13 75.32 L445.46 80.26 L442.14 87.06 L439.00 94.20 L436.53 104.70 L433.92 113.20 L430.89 118.48 L428.02 124.13 L424.35 125.27 L420.35 124.84 L416.03 123.08 L412.23 123.80 L408.04 122.93 L404.80 125.94 L401.42 128.23 L397.85 129.74 L394.88 133.33 L391.27 134.57 L387.87 136.49 L384.49 138.42 L375.73 123.99 L369.18 117.09 L361.17 106.52 L355.32 102.66 L351.86 105.48 L349.50 111.05 L348.00 118.57 L346.60 125.95 L346.48 136.09 L346.02 144.96 L344.65 151.39 L343.06 157.07 L340.34 160.16 L337.08 162.04 L333.63 163.52 L330.50 165.66 L326.93 166.92 L323.97 169.34 L320.02 169.93 L316.47 171.28 L313.23 173.19 L309.48 174.24 L307.35 178.03 L304.89 181.20 L293.49 170.03 L285.57 164.87 L274.85 155.75 L268.32 153.39 L265.42 156.52 L265.03 163.23 L266.06 171.76 L266.27 178.89 L269.44 189.82 L270.51 197.62 L270.50 203.81 L270.25 209.53 L267.93 212.55 L265.04 214.86 L262.05 217.03 L259.58 219.83 L256.32 221.72 L254.19 224.89 L250.50 226.31 L247.53 228.56 L244.93 231.21 L242.02 233.53 L241.08 237.85 L239.67 241.64 L224.57 232.08 L217.01 230.17 L203.54 222.93 L196.64 222.12 L195.76 226.85 L196.66 233.10 L199.87 241.20 L201.75 247.97 L207.61 257.90 L210.70 265.29 L212.47 271.46 L213.27 276.73 L211.29 279.80 L209.21 282.77 L206.77 285.48 L205.54 289.07 L202.84 291.60 L201.54 295.12 L197.91 297.04 L195.70 299.94 L193.76 303.02 L191.42 305.85 L191.58 310.23 L190.77 313.97 L173.00 307.70 L166.41 308.30 L150.22 303.61 L144.65 305.14 L145.11 309.98 L147.03 315.52 L152.49 322.78 L155.74 328.76 L164.61 337.33 L168.18 343.14 L172.30 349.08 L173.70 353.66 L172.58 357.07 L170.21 359.95 L168.05 362.93 L165.10 365.62 L164.65 369.32 L163.39 372.69 L163.03 376.39 L162.22 379.91 L161.59 383.49 L159.58 386.59 L161.20 390.88 L161.06 394.56 L141.99 392.54 L136.13 394.74 L119.25 393.97 L115.04 396.94 L116.73 401.49 L119.75 406.31 L127.13 412.07 L131.81 417.05 L139.87 422.64 L144.08 427.26 L146.90 431.51 L149.97 435.73 L151.42 439.59 L151.03 443.11 L148.26 446.27 L149.06 449.98 L147.40 453.33 L149.34 457.15 L149.55 460.73 L149.24 464.24 L148.85 467.75 L148.17 471.23 L151.01 474.97 L151.93 478.53 L131.99 481.00 L127.82 484.51 L110.80 487.70 L107.68 491.53 L110.87 495.49 L115.07 499.39 L123.37 503.17 L128.97 506.83 L140.41 510.22 L145.92 513.61 L152.24 516.85 L155.21 520.16 L155.77 523.58 L155.82 527.04 L154.96 530.58 L155.02 534.06 L153.72 537.69 L151.32 541.48 L153.05 544.80 L151.06 548.61 L155.39 551.52 L156.40 554.89 L159.57 557.88 L158.98 561.49 L142.24 568.21 L137.05 572.97 L123.99 579.52 L122.59 583.76 L126.59 586.80 L131.25 589.62 L139.71 591.38 L146.76 593.37 L158.49 593.93 L165.32 595.66 L172.17 597.26 L175.95 599.67 L177.09 602.87 L178.42 606.00 L178.92 609.41 L180.47 612.46 L180.90 615.90 L178.96 620.26 L179.50 623.72 L178.91 627.66 L181.96 630.14 L183.70 633.14 L186.81 635.53 L189.63 638.01 L191.04 641.10 L195.63 642.70 L196.77 645.88 L197.25 649.39 L197.80 652.90 L198.76 656.22 L201.15 658.79 L202.65 661.83 L203.51 665.22 L205.47 668.02 L206.95 671.08 L209.42 673.56 L213.08 675.29 L214.04 678.65 L214.47 682.38 L217.29 684.58 L215.19 690.04 L218.62 691.84 L221.05 694.30 L224.92 695.72 L230.22 696.04 L233.77 697.56 L236.38 699.74 L235.41 704.67 L224.51 717.54 L227.15 719.93 L217.28 732.58 L221.82 733.55 L223.17 737.18 L225.94 739.60 L227.52 743.07 L240.17 736.49 L245.07 736.73 L257.78 729.49 L263.98 728.14 L266.05 730.70 L256.64 744.83 L268.96 737.13 L262.91 748.26 L275.80 739.52 L279.95 739.84 L280.06 744.58 L271.84 758.89 L281.66 752.80 L278.28 761.96 L290.41 752.71 L294.97 752.30 L293.21 759.74 L287.76 772.13 L289.39 775.68 L284.61 787.85 L289.00 787.94 L290.83 791.51 L293.47 794.01 L297.30 794.77 L306.71 787.20 L312.53 784.65 L323.04 774.64 L328.05 772.82 L330.38 775.18 L325.41 789.69 L334.68 780.62 L332.13 791.57 L342.60 779.83 L346.31 779.74 L345.93 787.20 L343.20 799.44 L349.98 793.59 L350.09 800.77 L359.53 789.02 L363.51 788.13 L362.23 798.52 L361.16 808.92 L362.53 814.23 L361.70 824.94 L365.66 824.60 L368.51 826.94 L370.95 830.38 L375.84 827.48 L382.22 820.28 L387.96 814.35 L395.69 802.18 L399.80 799.96 L401.75 804.21 L401.40 816.06 L407.24 808.17 L408.23 816.28 L415.36 803.00 L418.80 802.33 L419.27 813.03 L420.62 821.06 L424.97 817.02 L427.44 820.86 L433.64 807.73 L437.15 806.30 L437.70 819.80 L439.79 826.44 L441.86 833.92 L443.88 842.56 L447.64 840.94 L450.86 842.79 L453.80 846.96 L458.07 840.87 L462.34 833.65 L466.62 824.85 L471.12 811.66 L474.50 808.84 L477.09 815.95 L479.80 823.30 L483.34 817.72 L486.35 821.88 L490.01 808.31 L493.14 806.52 L496.03 820.13 L499.23 823.54 L502.45 821.63 L505.67 821.90 L508.50 807.74 L511.53 806.37 L515.34 821.85 L518.75 825.15 L522.72 835.58 L526.44 839.94 L529.64 837.45 L533.13 838.36 L537.15 843.88 L539.47 834.04 L542.04 827.69 L543.82 816.40 L545.09 803.23 L547.71 800.18 L552.36 809.43 L555.98 811.87 L558.68 809.07 L561.84 808.83 L562.26 795.58 L564.87 793.40 L571.40 808.25 L574.44 807.37 L577.82 807.85 L580.26 804.64 L579.74 790.81 L582.37 789.04 L590.11 804.62 L593.54 804.96 L600.35 815.86 L604.52 817.94 L607.09 815.11 L610.68 815.30 L616.06 820.33 L615.29 808.53 L617.07 803.99 L615.26 790.59 L613.43 777.83 L615.29 774.52 L622.91 784.65 L625.62 783.11 L628.71 782.41 L630.47 778.87 L628.00 766.60 L630.18 764.33 L640.90 779.03 L642.10 774.54 L646.38 776.01 L646.92 770.46 L643.48 757.95 L645.57 755.65 L658.28 771.63 L660.07 768.49 L670.14 778.99 L673.64 778.44 L675.77 775.67 L679.13 774.84 L685.69 778.78 L681.26 766.31 L682.08 761.85 L676.89 749.04 L672.37 737.60 L673.45 734.13 L685.12 744.73 L685.04 739.60 L689.21 740.00 L688.82 734.64 L683.59 723.53 L685.34 721.11 L701.05 735.04 L698.74 727.69 L705.50 730.74 L702.24 722.56 L696.47 711.91 L697.84 709.15 L714.28 722.04 L714.94 718.32 L727.96 726.95 L730.41 724.85 L732.25 722.16 L734.33 719.70 L742.66 722.99 L734.00 710.76 L734.88 707.33 L725.60 695.16 L718.95 685.61 L719.57 682.40 L734.88 691.18 L731.34 684.48 L738.20 686.09 L733.57 678.73 L726.73 669.94 L727.58 667.05 L746.90 677.45 L741.26 669.77 L749.62 671.95 L743.59 664.22 L735.84 655.59 L736.83 652.87 L757.10 662.33 L755.12 657.54 L771.16 663.72 L772.10 660.59 L772.90 657.41 L774.52 654.70 L783.12 655.84 L771.16 645.75 L771.74 642.57 L759.28 632.74 L750.99 625.35 L751.02 622.25 L768.92 627.65 L762.13 621.23 L770.39 621.78 L762.78 615.21 L754.96 608.75 L755.09 605.81 L777.98 612.06 L768.09 604.97 L778.56 605.87 L769.06 599.19 L760.48 593.08 L760.25 590.07 L783.33 594.89 L778.51 590.19 L797.62 593.10 L796.10 589.39 L796.95 586.41 L797.36 583.32 L806.35 582.54 L790.87 575.26 L791.16 572.23 L776.33 565.63 L767.19 560.64 L766.71 557.74 L787.21 559.17 L776.43 554.08 L786.91 553.15 L775.58 548.21 L767.31 544.01 L766.84 541.20 L790.74 541.92 L778.22 537.28 L790.12 535.92 L777.87 531.59 L769.18 527.87 L768.22 525.07 L791.52 524.31 L785.86 520.96 L804.57 519.27 L802.55 516.11 L803.48 513.11 L802.61 510.05 L809.82 507.18 L793.12 503.87 L792.39 500.93 L777.18 498.11 L767.51 495.50 L766.56 492.85 L786.95 489.43 L774.10 487.16 L785.47 483.76 L772.12 481.79 L764.28 479.66 L763.22 477.09 L786.53 472.17 L772.44 470.79 L783.55 466.73 L770.28 465.54 L761.67 463.98 L760.27 461.51 L782.37 455.35 L775.95 453.54 L794.55 447.37 L791.96 444.81 L791.87 441.80 L790.11 439.13 L795.39 434.93 L778.92 435.63 L776.81 433.19 L762.10 433.96 L752.56 433.67 L751.37 431.29 L770.72 423.09 L756.33 424.40 L767.29 418.25 L753.07 419.82 L745.75 419.43 L744.83 417.01 L765.08 407.18 L751.65 409.05 L761.17 402.64 L747.62 404.86 L739.64 405.17 L738.29 402.93 L758.10 391.84 L751.49 391.65 L768.46 381.14 L764.53 379.70 L764.10 376.69 L761.63 374.64 L765.20 369.66 L749.32 374.35 L746.85 372.48 L732.91 376.72 L724.05 378.52 L722.44 376.50 L738.40 364.51 L724.69 369.31 L734.13 360.67 L720.64 365.69 L714.15 366.68 L713.58 364.06 L729.46 350.71 L717.28 355.52 L724.84 347.23 L712.34 352.59 L705.57 354.23 L703.72 352.46 L719.98 337.30 L713.67 338.64 L727.37 324.70 L723.58 324.03 L722.34 321.37 L719.92 319.67 L721.50 314.63 L707.23 323.03 L704.33 321.94 L691.64 329.59 L683.98 333.08 L681.95 331.58 L694.18 316.61 L682.03 324.61 L689.22 314.00 L677.37 322.13 L672.10 323.93 L671.22 321.28 L682.80 305.34 L672.07 313.06 L677.45 303.29 L666.39 311.81 L660.84 314.38 L659.73 311.88 L670.55 295.03 L665.79 296.64 L675.23 280.62 L671.36 281.01 L669.79 278.49 L666.95 277.62 L666.65 273.33 L655.02 284.67 L651.86 284.56 L641.57 294.82 L635.48 299.39 L633.44 298.08 L641.29 281.49 L631.65 291.86 L636.04 280.08 L626.35 291.11 L622.06 293.57 L621.09 290.46 L628.06 273.18 L619.57 283.19 L622.61 272.33 L613.65 283.81 L609.32 286.90 L608.24 283.69 L614.16 266.05 L610.77 267.13 L615.37 251.07 L611.75 252.42 L609.94 249.78 L606.78 250.21 L605.19 246.96 L596.92 260.12 L593.74 261.14 L586.26 273.56 L581.97 278.20 L579.82 277.18 L583.15 260.37 L576.29 272.83 L577.88 260.18 L570.95 273.83 L567.70 276.39 L566.13 273.43 L568.69 255.59 L562.89 267.32 L563.28 256.24 L557.19 270.26 L554.12 272.94 L553.10 266.91 L553.97 251.65 L551.69 250.13 L551.75 236.59 L548.63 238.69 L546.22 237.00 L543.68 236.00 L541.00 235.83 L536.46 248.54 L533.41 252.14 L529.19 265.74 L526.39 269.46 L524.16 268.47 L523.28 252.98 L519.70 265.96 L518.16 255.04 L514.77 269.42 L512.33 271.85 L510.25 267.10 L508.41 252.68 L505.67 263.56 L503.43 254.92 L500.92 269.82 L498.63 272.48 L496.24 264.98 L493.57 252.75 L490.99 250.03 L487.96 238.47 L485.48 241.16 L482.81 239.95 L480.07 238.39 L477.72 241.58 L476.19 252.78 L474.33 258.80 L473.54 272.93 L471.75 277.02 L469.27 275.46 L465.06 262.42 L464.53 274.52 L460.63 265.05 L460.94 280.39 L459.05 282.40 L455.37 275.24 L450.96 265.35 L450.21 273.12 L446.71 268.24 L447.79 282.93 L446.16 285.58 L441.30 275.75 L436.76 267.90 L432.74 262.54 L427.96 255.02 L426.17 257.90 L423.36 257.42 L419.78 254.66 L419.13 260.79 L419.69 270.05 L420.10 278.36 L422.80 292.41 L421.84 296.08 L417.94 292.15 L412.33 284.29 L413.45 293.00 L408.69 287.61 L412.36 301.63 L411.10 304.11 L404.37 294.74 L399.73 290.31 L399.44 294.98 L396.34 293.90 L400.66 307.32 L399.62 309.99 L391.40 299.32 L386.62 295.39 L380.49 289.32 L374.81 284.37 L373.82 287.59 L370.89 287.53 L366.43 285.06 L368.53 293.08 L369.93 299.74 L373.71 309.75 L379.25 321.98 L379.18 325.66 L372.67 320.13 L367.68 316.99 L368.85 322.39 L365.18 321.18 L371.44 332.98 L371.02 335.86 L360.17 325.67 L357.27 325.65 L356.35 328.07 L354.78 329.68 L362.20 341.61 L361.44 343.92 L348.61 332.87 L345.42 332.74 L336.17 326.25 L331.63 324.98 L331.13 327.94 L328.21 328.43 L323.00 326.72 L328.30 335.24 L330.33 340.41 L337.15 349.87 L345.21 360.14 L345.66 363.32 L335.87 357.55 L333.48 358.38 L333.38 361.14 L332.09 362.88 L340.63 372.49 L340.51 374.99 L325.34 365.90 L325.50 368.78 L322.21 369.07 L324.06 373.12 L333.56 382.48 L333.41 384.86 L317.08 376.26 L315.51 377.86 L303.09 372.45 L300.02 373.29 L299.85 375.97 L297.95 377.57 L290.37 375.82 L299.97 384.20 L301.73 387.85 L312.36 396.33 L322.13 404.03 L323.16 406.86 L309.95 402.31 L310.96 405.21 L308.04 406.14 L310.43 409.65 L320.66 416.71 L320.66 418.88 L302.81 413.17 L305.87 416.83 L300.66 416.95 L305.62 421.28 L316.24 427.71 L316.61 429.97 L296.81 424.73 L298.04 427.47 L283.75 424.77 L281.30 426.36 L282.18 429.08 L280.91 431.08 L273.08 431.10 L285.10 437.09 L286.87 439.92 L299.99 445.77 L310.78 450.72 L312.22 453.10 L296.61 451.35 L300.42 454.37 L295.93 455.48 L301.17 458.70 L312.07 462.93 L312.39 464.93 L290.84 463.07 L298.87 466.56 L291.60 467.48 L299.43 470.76 L310.59 474.32 L311.17 476.32 L290.08 475.80 L292.98 478.23 L276.28 478.73 L276.75 481.03 L277.28 483.31 L276.94 485.53 L268.59 487.31 L283.27 490.29 L284.95 492.52 L299.92 495.04 L310.94 497.21 L312.42 499.10 L294.10 501.08 L302.33 503.01 L295.65 505.16 L304.12 506.90 L314.58 508.39 L315.98 510.17 L293.58 513.48 L303.92 514.78 L294.75 517.53 L305.36 518.59 L316.32 519.40 L317.19 521.16 L313.40 523.49 L307.17 526.24 L297.56 529.61 L289.66 532.91 L282.67 536.24 L283.71 538.29 L292.67 538.85 L299.80 539.59 L311.68 539.20 L319.05 539.56 L321.64 540.86 L324.70 542.01 L327.51 543.17 L328.66 544.70 L330.14 546.14 L330.95 547.74 L329.31 550.05 L329.68 551.79 L329.52 553.71 L331.55 554.93 L331.75 556.73 L332.47 558.36 L331.43 560.62 L332.77 562.04 L328.93 565.41 L323.59 569.48 L314.68 575.14 L307.14 580.45 L302.29 584.81 L304.18 586.33 L315.13 583.72 L321.99 582.77 L334.21 579.11 L341.10 577.78 L342.83 578.90 L345.48 579.51 L348.83 579.71 L349.83 581.11 L351.56 582.10 L352.66 583.43 L351.10 586.29 L351.93 587.80 L352.15 589.68 L354.42 590.30 L355.08 591.92 L356.31 593.17 L355.77 595.57 L357.50 596.49 L354.28 600.81 L350.02 606.00 L342.03 614.03 L336.10 620.81 L332.91 625.77 L335.13 626.70 L345.45 621.25 L351.65 618.79 L363.21 611.80 L368.57 609.63 L371.03 609.79 L373.45 609.92 L376.80 609.20 L377.82 610.50 L379.76 610.94 L380.84 612.18 L380.20 615.06 L380.99 616.61 L382.28 617.67 L383.74 618.57 L385.50 619.13 L386.52 620.46 L386.81 622.58 L388.81 622.86 L386.11 628.40 L383.45 634.08 L377.44 643.88 L373.09 652.03 L371.76 656.79 L373.89 657.37 L382.96 649.08 L387.82 645.87 L397.75 635.74 L401.82 633.10 L404.48 632.23 L406.77 631.82 L409.83 630.24 L411.11 631.17 L412.97 631.24 L414.35 631.99 L414.45 634.79 L414.95 637.01 L416.95 636.81 L418.06 638.07 L420.22 637.56 L421.66 638.23 L422.36 640.26 L423.94 640.71 L422.60 646.67 L420.86 653.67 L417.50 664.22 L415.37 672.73 L415.29 677.36 L417.42 677.45 L424.57 666.41 L428.10 662.94 L435.61 649.95 L438.57 647.10 L440.95 645.49 L443.05 644.42 L445.62 642.06 L447.07 642.52 L448.84 642.11 L450.14 642.97 L450.92 645.38 L451.74 647.81 L453.75 646.60 L454.91 648.08 L456.91 646.78 L458.27 647.58 L459.39 649.32 L460.94 649.50 L461.06 655.38 L460.69 663.79 L460.21 673.38 L460.02 682.59 L461.05 686.80 L463.16 685.96 L467.50 673.09 L470.07 668.74 L474.19 654.45 L476.25 651.43 L478.17 648.92 L479.90 647.32 L481.71 644.86 L483.17 645.00 L484.73 644.14 L486.11 644.93 L487.39 646.97 L488.71 649.15 L490.34 647.13 L491.74 648.46 L493.32 646.43 L494.77 647.07 L496.21 648.34 L497.67 649.58 L499.14 654.79 L500.72 663.47 L502.48 672.11 L504.44 681.70 L506.34 684.03 L508.09 682.09 L509.22 669.15 L510.59 664.11 L511.14 649.35 L512.39 646.35 L513.59 643.46 L514.86 641.79 L515.94 638.71 L517.39 639.06 L518.59 637.46 L520.11 638.26 L521.74 639.64 L523.49 641.56 L524.49 638.98 L526.14 640.15 L527.11 637.67 L528.66 638.22 L530.30 639.13 L532.04 640.36 L534.55 644.67 L538.32 653.66 L542.01 661.53 L545.92 669.59 L548.23 671.31 L549.27 668.52 L547.25 655.80 L547.14 650.03 L544.25 636.05 L544.98 633.75 L545.26 630.26 L546.08 628.46 L546.34 625.22 L547.70 625.05 L548.42 623.22 L550.06 623.74 L551.97 624.86 L553.97 626.09 L554.28 623.39 L555.95 623.82 L556.49 621.74 L557.80 621.37 L559.82 622.45 L560.34 620.45 L561.70 620.15 L561.75 617.34 L562.78 616.45 L563.51 615.04 L564.70 614.48 L565.46 613.17 L566.56 612.46 L567.57 611.60 L569.02 611.47 L569.98 610.53 L571.85 611.02 L573.43 611.00 L574.97 610.90 L576.80 611.20 L577.03 609.19 L578.70 609.21 L579.21 607.64 L580.14 606.65 L580.98 605.55 L580.77 603.12 L581.31 601.70 L581.39 599.74 L581.89 598.33 L582.32 596.85 L582.72 595.39 L583.07 593.88 L583.27 592.22 L583.62 590.77 L583.69 589.04 L584.66 588.29 L585.40 587.30 L585.81 585.98 L586.89 585.34 L587.47 584.20 L588.28 583.30 L589.44 582.71 L590.24 581.80 L591.13 580.96 L592.31 580.37 L593.19 579.52 L593.86 578.48 L594.47 577.40 L594.44 575.81 L595.51 575.10 L595.30 573.41 L596.23 572.60 L596.23 571.11 L596.49 569.82 L597.23 568.88 L598.03 567.99 L598.77 567.05 L599.68 566.22 L600.11 565.07 L600.59 563.96 L601.12 562.89 L601.91 561.97 L602.47 560.92 L602.95 559.82 L603.16 558.57 L603.40 557.35 L603.55 556.08 L603.91 554.94 L604.93 554.14 L604.94 552.83 L605.97 552.02 L605.67 550.57 L606.36 549.60 L608.93 549.48 L610.23 548.75 L612.60 548.45 L610.65 546.31 L609.00 544.34 L607.05 542.31 L606.84 541.00 L607.10 539.87 L607.42 538.77 L608.96 538.10 L607.56 536.41 L608.99 535.68 L608.56 534.34 L608.08 533.00 L608.36 531.91 L608.70 530.83 L608.58 529.63 L608.39 528.41 L608.55 527.30 L607.77 525.96 L607.47 524.75 L606.81 523.48 L605.74 522.14 L605.17 520.92 L604.14 519.64 L603.15 518.38 L601.61 517.06 L600.99 515.92 L600.67 514.84 L600.55 513.80 L600.31 512.74 L600.13 511.70 L599.80 510.66 L599.74 509.64 L599.73 508.64 L599.42 507.61 L599.37 506.60 L598.97 505.58 L598.50 504.57 L598.47 503.58 L598.36 502.59 L598.17 501.61 L598.15 500.63 Z"/>
  <svg class="pausebutton" id="pausebutton">
    <circle cx="500" cy="500" id="pausestart" class="pausestart" r="52.65"/>
    <rect height="50.02" width="10.00" y="473.68" rx="2.00" ry="2.00" x="479.99" class="pausesymbol"/>
    <rect height="50.02" width="10.00" y="473.68" rx="2.00" ry="2.00" x="510.00" class="pausesymbol"/>
    <polygon points="530.01,500 479.99,530.01 479.99,469.99" class="playsymbol"/>
  </svg>
  <polygon id="playback-head" class="playback-head" points="912.475,500 892.475,540 932.475,540"/>
</svg>