<?xml-stylesheet href="../../style/waveformjs.css" type="text/css"?>
<svg xmlns="http://www.w3.org/2000/svg" xmlns:xlink="http://www.w3.org/1999/xlink" width="100%" height="100%" viewBox="0 0 1000 1000">
  <path class="svg-wave" id="sp" d="M574.64 500.00 L575.40 500.75 L575.13 501.50 L574.06 502.22 L575.00 503.00 L573.06 503.66 L573.85 504.44 L573.36 505.14 L572.69 505.83 L574.01 506.68 L576.13 507.64 L578.30 508.65 L579.33 509.57 L579.77 510.43 L578.37 511.04 L579.37 512.00 L576.67 512.37 L578.78 513.52 L577.44 514.09 L577.55 514.91 L577.81 515.77 L576.61 516.33 L576.94 517.21 L576.16 517.83 L575.72 518.53 L576.03 519.41 L576.85 520.44 L576.41 521.15 L576.29 521.94 L575.59 522.56 L574.46 523.03 L574.24 523.78 L573.54 524.37 L574.07 525.37 L573.68 526.06 L575.02 527.39 L576.21 528.69 L577.82 530.18 L577.75 531.05 L577.29 531.77 L576.89 532.51 L576.87 533.41 L577.11 534.43 L577.91 535.73 L577.56 536.51 L577.51 537.44 L576.74 538.02 L575.30 538.25 L573.48 538.25 L572.04 538.42 L571.49 539.05 L572.38 540.49 L574.25 542.52 L575.60 544.29 L576.20 545.67 L575.12 546.06 L574.31 546.59 L573.09 546.85 L572.99 547.82 L573.90 549.48 L574.19 550.75 L574.25 551.89 L575.16 553.65 L574.23 554.12 L574.53 555.49 L574.09 556.32 L573.19 556.81 L574.43 558.96 L573.48 559.42 L573.92 561.01 L572.80 561.32 L571.82 561.73 L570.77 562.07 L569.10 561.84 L567.31 561.46 L563.80 559.43 L561.12 558.09 L559.63 557.82 L558.92 558.28 L560.70 561.26 L562.70 564.55 L563.45 566.66 L562.86 567.37 L560.95 566.65 L558.20 564.93 L557.69 565.67 L558.54 568.00 L557.39 568.03 L557.81 569.93 L557.29 570.73 L558.81 574.11 L560.21 577.45 L561.82 581.19 L561.41 582.35 L560.08 582.26 L558.63 581.99 L556.95 581.35 L555.61 581.14 L554.02 580.55 L552.94 580.67 L550.49 578.63 L547.66 575.88 L544.52 572.48 L542.45 570.68 L541.81 571.23 L542.95 574.88 L545.42 581.04 L547.20 586.24 L547.03 588.01 L546.21 588.60 L543.57 585.61 L541.92 584.45 L541.39 585.50 L541.16 587.25 L541.04 589.29 L540.79 591.15 L542.09 596.63 L541.25 597.35 L542.24 602.54 L540.94 602.26 L539.54 601.71 L539.15 603.75 L537.11 601.42 L536.27 602.28 L534.20 599.59 L532.85 598.88 L531.40 597.76 L529.95 596.56 L527.95 593.39 L525.26 587.57 L523.53 584.77 L522.03 582.55 L521.43 583.63 L521.79 588.75 L522.20 594.47 L521.55 596.00 L520.94 597.86 L519.17 594.18 L517.72 591.74 L516.86 592.26 L516.55 595.97 L515.28 594.21 L515.00 598.69 L514.07 599.25 L514.08 607.05 L513.51 611.26 L513.04 617.22 L511.67 615.43 L510.28 612.89 L509.00 611.16 L507.72 608.85 L506.53 607.21 L505.33 604.90 L504.23 603.60 L503.10 600.57 L501.96 594.14 L500.97 589.82 L500.07 585.94 L499.21 586.22 L498.24 591.83 L497.10 599.42 L495.82 606.61 L494.73 607.06 L493.63 607.43 L492.99 601.07 L492.04 600.23 L490.94 601.33 L489.71 603.39 L488.46 605.24 L486.96 608.83 L485.08 614.84 L483.82 615.49 L481.67 621.92 L480.81 619.54 L479.78 618.38 L478.30 619.80 L477.79 616.00 L476.64 615.69 L476.34 611.42 L475.49 610.04 L474.72 608.38 L474.09 606.24 L474.19 601.40 L475.20 593.54 L475.08 590.34 L475.01 587.15 L473.90 587.71 L470.95 594.17 L468.28 599.30 L466.62 601.01 L465.33 601.48 L465.91 596.61 L466.03 593.28 L464.87 593.57 L462.54 596.82 L462.25 594.74 L459.62 598.45 L457.45 600.87 L453.24 607.83 L449.76 612.74 L446.22 617.51 L445.99 614.96 L446.09 611.82 L446.11 608.99 L445.89 606.74 L445.87 604.18 L445.92 601.58 L445.69 599.61 L446.45 595.91 L448.95 589.33 L450.80 584.13 L451.78 580.60 L451.11 579.88 L446.36 585.71 L440.68 592.71 L436.01 597.84 L434.66 597.76 L433.30 597.67 L436.56 590.92 L435.54 590.45 L433.61 591.21 L431.35 592.36 L428.87 593.72 L425.72 595.86 L420.52 600.49 L419.22 600.05 L413.13 605.43 L414.07 602.18 L413.43 600.88 L411.69 600.85 L412.86 597.53 L412.16 596.36 L413.78 592.70 L413.70 590.94 L414.11 588.72 L414.33 586.74 L417.32 582.05 L422.11 575.77 L423.34 573.09 L425.52 569.60 L422.92 570.60 L416.15 575.28 L412.16 577.29 L409.22 578.28 L408.37 577.43 L411.27 573.47 L412.45 571.03 L410.33 571.27 L407.37 572.13 L407.19 570.79 L403.00 572.46 L400.01 573.15 L392.73 576.84 L387.07 579.20 L382.61 580.58 L383.82 578.06 L385.26 575.43 L386.87 572.77 L387.20 570.97 L389.05 568.27 L389.80 566.30 L391.11 564.04 L393.66 561.11 L398.93 556.75 L403.34 553.00 L404.90 550.92 L403.92 550.22 L395.92 553.08 L388.03 555.70 L380.65 557.89 L381.97 555.80 L380.69 554.95 L386.79 550.77 L385.61 549.93 L382.62 549.85 L380.43 549.37 L377.35 549.22 L372.32 549.76 L367.54 550.10 L364.47 549.72 L358.66 550.25 L360.91 547.89 L359.15 546.92 L359.87 545.13 L360.81 543.30 L362.98 541.13 L365.73 538.84 L366.35 537.22 L368.16 535.30 L369.08 533.65 L375.22 530.75 L382.04 527.82 L383.79 526.18 L386.94 524.29 L382.78 523.96 L375.11 524.22 L370.43 523.79 L367.62 522.94 L368.57 521.42 L372.89 519.42 L374.94 517.83 L372.57 516.87 L370.63 515.81 L369.73 514.60 L366.36 513.62 L361.70 512.70 L353.52 511.98 L347.75 510.92 L344.81 509.57 L347.29 507.89 L349.99 506.24 L352.47 504.66 L353.74 503.16 L356.62 501.66 L358.05 500.23 L360.77 498.83 L364.89 497.51 L371.64 496.35 L376.84 495.27 L378.98 494.14 L377.53 492.84 L368.58 491.00 L360.20 489.02 L354.59 487.11 L355.36 485.72 L356.97 484.43 L363.39 483.75 L362.29 482.22 L359.67 480.45 L357.53 478.70 L355.74 476.95 L348.91 474.31 L347.55 472.51 L342.30 469.93 L339.88 467.81 L342.80 466.76 L340.13 464.52 L343.78 463.68 L343.41 461.94 L348.69 461.62 L351.36 460.71 L352.80 459.51 L355.89 458.81 L357.32 457.67 L365.37 458.59 L371.43 459.04 L374.51 458.64 L377.83 458.37 L373.63 455.52 L366.25 451.42 L364.34 449.19 L361.80 446.65 L364.19 446.01 L369.10 446.44 L371.03 445.72 L369.00 443.31 L369.28 441.88 L368.19 439.80 L365.84 437.10 L360.32 432.80 L355.60 428.74 L349.29 423.75 L350.03 422.23 L353.30 422.05 L356.28 421.78 L359.67 421.80 L361.32 420.89 L364.52 420.91 L366.13 420.05 L370.40 420.83 L374.35 421.50 L381.44 424.27 L385.45 425.21 L387.74 425.10 L385.49 421.93 L379.62 416.15 L373.18 409.77 L370.70 406.04 L371.84 404.90 L375.32 405.53 L380.50 407.56 L380.53 405.66 L379.21 402.64 L378.51 400.05 L377.94 397.52 L372.66 390.90 L373.84 389.70 L369.31 383.41 L369.92 381.61 L372.77 381.85 L371.43 378.19 L376.10 380.24 L376.47 378.18 L381.69 380.98 L384.42 381.38 L385.72 380.34 L386.46 378.71 L389.76 379.85 L392.45 380.39 L397.27 383.43 L400.22 384.47 L401.81 383.99 L399.82 379.21 L396.26 372.33 L393.21 365.87 L391.83 361.31 L393.32 360.36 L395.13 359.84 L397.95 360.73 L398.33 358.30 L398.30 355.23 L400.29 355.00 L400.40 352.01 L401.72 350.77 L402.53 348.73 L403.48 346.87 L404.30 344.74 L406.08 344.16 L410.44 347.98 L413.01 348.91 L414.59 348.17 L417.55 349.93 L418.41 347.91 L418.92 345.16 L421.14 345.68 L424.07 347.65 L425.98 347.69 L430.79 353.91 L432.26 353.22 L432.70 350.26 L432.98 346.81 L434.77 346.75 L436.31 346.09 L439.55 349.70 L440.77 348.36 L441.62 346.02 L443.02 345.05 L443.92 342.65 L446.88 346.11 L448.21 344.96 L447.76 338.26 L449.81 339.11 L449.73 332.99 L452.41 335.97 L454.60 337.47 L456.51 338.09 L458.64 339.62 L460.24 339.20 L462.59 341.92 L463.36 337.95 L463.33 329.93 L463.99 324.49 L464.20 316.22 L465.76 314.36 L467.69 314.42 L469.67 314.85 L471.84 316.63 L472.81 310.31 L475.30 314.51 L476.84 311.71 L478.74 311.59 L480.73 312.41 L482.81 314.43 L484.57 313.15 L486.21 309.82 L488.30 312.69 L489.94 308.19 L491.67 303.69 L493.70 305.56 L495.51 299.36 L497.53 300.98 L499.52 300.23 L501.49 304.59 L503.40 306.90 L505.32 307.37 L507.01 313.58 L508.89 313.39 L510.84 311.99 L512.67 312.92 L514.63 311.84 L516.22 315.33 L517.62 320.06 L519.10 323.22 L521.37 319.16 L524.05 312.58 L526.62 307.77 L529.07 304.47 L530.89 305.62 L532.46 308.14 L533.96 310.80 L535.92 310.78 L537.39 313.26 L538.91 315.27 L541.46 312.49 L544.52 307.78 L546.92 306.25 L550.48 300.31 L552.16 302.01 L553.93 303.30 L554.99 307.04 L556.48 309.06 L557.77 311.66 L558.72 315.17 L560.24 316.75 L564.23 311.02 L565.71 312.81 L570.23 306.18 L571.91 307.57 L573.75 308.49 L575.58 309.45 L576.68 312.19 L580.22 308.98 L580.40 313.80 L582.41 314.26 L583.66 316.43 L583.56 321.41 L584.18 324.67 L586.82 323.72 L587.32 327.08 L588.45 329.10 L591.75 326.99 L595.96 323.34 L599.08 321.87 L604.58 316.33 L604.11 321.34 L603.96 325.63 L603.37 330.50 L604.52 332.40 L605.81 334.05 L606.04 337.29 L607.76 338.23 L613.12 333.80 L615.49 333.92 L622.87 327.02 L624.10 328.93 L622.93 334.07 L623.02 337.38 L622.77 341.03 L625.39 340.95 L624.98 344.69 L628.14 343.99 L630.71 344.07 L632.43 345.18 L636.53 343.59 L638.38 344.63 L638.27 347.84 L639.49 349.55 L641.21 350.71 L643.15 351.66 L642.14 355.63 L644.29 356.35 L648.21 355.37 L650.86 355.69 L654.59 355.06 L656.88 355.83 L655.53 359.92 L653.80 364.24 L655.82 365.20 L658.75 365.42 L658.92 367.98 L661.94 368.19 L665.49 368.03 L665.87 370.42 L670.02 369.90 L671.34 371.58 L673.63 372.55 L671.86 376.48 L673.85 377.67 L674.57 379.75 L670.00 385.39 L671.88 386.61 L674.97 387.06 L678.74 387.14 L684.32 386.18 L686.89 387.16 L686.37 390.00 L684.82 393.40 L686.93 394.66 L688.29 396.36 L686.75 399.62 L686.77 402.01 L688.83 403.32 L692.38 403.92 L694.61 405.23 L697.27 406.36 L698.66 408.12 L694.73 412.29 L702.05 411.42 L699.19 415.03 L699.41 417.29 L698.61 419.94 L699.24 421.99 L706.06 421.69 L708.38 423.18 L712.16 424.19 L711.90 426.66 L707.88 430.37 L707.18 432.91 L707.82 434.99 L704.61 438.23 L705.02 440.34 L709.94 441.18 L713.27 442.54 L719.45 443.22 L721.61 445.02 L719.90 447.77 L716.92 450.77 L715.39 453.37 L715.00 455.70 L710.61 458.80 L709.44 461.20 L712.47 462.83 L714.60 464.67 L720.09 466.02 L723.46 467.78 L721.32 470.35 L722.83 472.41 L719.39 475.06 L726.15 476.58 L725.81 478.90 L729.96 480.83 L729.43 483.18 L727.72 485.59 L724.44 488.05 L725.20 490.27 L729.66 492.38 L729.50 494.68 L730.43 496.96 L732.46 499.26 L732.79 501.59 L734.56 503.94 L738.38 506.39 L738.12 508.77 L736.40 511.07 L734.75 513.35 L734.16 515.67 L729.53 517.67 L726.02 519.67 L725.62 521.91 L721.62 523.76 L718.17 525.60 L717.82 527.77 L715.45 529.66 L713.95 531.64 L717.24 534.35 L725.91 538.04 L728.45 540.82 L734.86 544.39 L733.86 546.63 L730.22 548.30 L723.83 549.30 L725.00 551.93 L721.37 553.43 L724.26 556.50 L720.86 558.00 L725.53 561.65 L727.63 564.67 L730.39 567.95 L737.74 572.71 L736.01 574.77 L733.87 576.68 L728.57 577.48 L727.59 579.69 L722.77 580.51 L720.62 582.24 L719.89 584.48 L718.35 586.40 L714.16 587.24 L714.44 589.86 L707.74 589.51 L707.45 591.85 L704.99 593.22 L710.49 598.28 L714.20 602.63 L717.21 606.76 L716.00 608.86 L714.16 610.63 L707.74 609.96 L707.38 612.44 L706.77 614.79 L702.51 615.09 L704.20 618.77 L705.29 622.17 L708.58 626.97 L712.29 632.16 L714.54 636.55 L712.93 638.54 L708.28 638.50 L703.81 638.48 L702.13 640.31 L697.05 639.73 L695.94 641.91 L695.89 644.88 L689.85 643.37 L687.97 644.93 L682.64 643.75 L679.66 644.34 L677.05 645.18 L676.82 647.97 L684.53 657.59 L683.90 660.26 L688.98 668.04 L686.17 668.90 L682.51 668.95 L677.53 667.66 L677.15 670.68 L676.80 673.79 L673.66 674.15 L672.83 676.82 L672.80 680.36 L673.03 684.26 L673.18 688.16 L675.25 694.27 L672.70 695.33 L668.90 694.93 L664.24 693.43 L661.70 694.33 L657.77 693.52 L654.90 693.93 L654.31 697.20 L652.89 699.47 L650.12 699.95 L649.62 703.50 L646.52 703.52 L644.40 704.87 L640.83 704.11 L642.60 711.16 L639.69 711.37 L640.32 717.01 L637.15 716.83 L633.78 716.26 L629.97 714.88 L629.26 718.61 L628.91 723.08 L626.20 723.52 L624.95 726.57 L623.43 729.20 L621.17 730.50 L620.49 734.88 L618.76 737.31 L616.42 738.58 L612.86 737.27 L609.96 737.26 L607.41 737.98 L602.58 733.48 L599.74 733.30 L597.15 733.68 L592.94 730.03 L590.31 730.11 L587.75 730.33 L584.87 729.66 L582.22 729.51 L581.33 734.40 L581.76 743.47 L580.08 746.60 L580.08 755.26 L576.96 754.21 L573.16 750.64 L569.79 748.32 L567.33 749.09 L564.66 749.07 L562.25 750.05 L559.39 749.16 L558.30 755.90 L555.99 757.66 L554.67 764.29 L553.16 770.59 L550.31 770.36 L547.11 768.05 L543.78 764.60 L541.05 764.48 L537.79 760.67 L535.04 759.98 L532.55 761.15 L529.63 758.83 L526.80 756.83 L524.31 757.95 L521.12 750.84 L518.78 753.38 L516.12 751.53 L514.20 762.83 L511.68 765.43 L509.21 770.91 L506.45 768.90 L503.72 766.02 L501.04 761.66 L498.40 765.16 L495.80 762.46 L493.15 763.14 L490.44 765.29 L487.60 769.23 L484.68 773.15 L481.52 779.56 L478.62 780.69 L475.90 779.51 L473.52 774.94 L471.03 772.24 L468.46 770.66 L466.13 767.37 L463.32 767.99 L460.64 767.63 L458.74 762.29 L456.41 760.17 L454.74 754.49 L452.31 753.42 L450.14 751.11 L446.61 755.48 L441.97 764.43 L438.69 766.65 L434.49 772.40 L432.23 769.88 L430.54 765.34 L428.82 761.25 L425.69 762.37 L422.53 763.43 L420.42 760.93 L416.98 762.76 L413.57 764.33 L410.25 765.48 L406.02 769.09 L402.14 771.44 L399.79 769.47 L398.41 765.06 L396.84 761.30 L394.29 760.10 L393.32 755.16 L390.70 754.24 L387.06 755.63 L385.43 752.46 L381.55 754.23 L379.48 752.06 L377.11 750.54 L375.49 747.54 L372.41 747.47 L367.52 750.77 L365.08 749.32 L361.11 750.64 L359.03 748.49 L359.34 742.28 L356.62 741.37 L353.42 741.23 L349.38 742.39 L347.61 739.84 L343.98 740.22 L340.23 740.69 L338.44 738.18 L332.75 741.34 L330.99 738.75 L328.61 737.04 L327.75 733.29 L325.47 731.49 L324.87 727.52 L325.60 721.94 L324.29 719.06 L322.78 716.47 L323.99 710.66 L321.03 709.90 L320.59 706.21 L319.36 703.48 L317.10 701.92 L310.16 705.41 L304.45 707.39 L298.66 709.30 L293.72 710.19 L292.02 707.72 L295.57 700.13 L293.42 698.23 L293.84 693.91 L290.85 692.81 L289.11 690.55 L285.74 689.74 L280.70 690.32 L276.56 690.04 L270.23 691.49 L265.78 691.26 L264.21 688.64 L265.87 683.51 L265.85 679.77 L264.98 676.73 L266.77 671.76 L264.93 669.52 L261.90 668.11 L264.22 662.97 L261.49 661.35 L263.32 656.68 L265.09 652.16 L262.40 650.55 L260.52 648.41 L249.85 651.58 L247.91 649.33 L241.88 649.43 L242.41 645.71 L244.10 641.39 L243.90 638.18 L240.53 636.66 L241.82 632.70 L239.48 630.63 L236.48 628.85 L230.71 628.35 L225.51 627.48 L218.55 627.30 L217.22 624.51 L218.29 620.70 L220.95 616.27 L220.51 613.18 L222.27 609.25 L222.14 606.10 L220.24 603.64 L221.58 599.99 L223.86 596.06 L225.86 592.30 L227.74 588.65 L228.68 585.35 L227.46 582.75 L220.93 581.69 L211.68 581.28 L208.15 579.13 L202.16 577.57 L203.07 574.17 L207.72 569.91 L206.73 567.05 L205.96 564.14 L204.31 561.41 L205.69 558.06 L201.73 555.75 L200.06 552.96 L195.38 550.65 L190.05 548.36 L187.41 545.58 L188.64 542.22 L192.01 538.63 L193.46 535.34 L194.53 532.12 L197.78 528.73 L195.76 525.85 L193.39 522.97 L195.42 519.76 L191.83 516.90 L194.42 513.69 L193.30 510.67 L196.40 507.52 L191.21 504.56 L190.26 501.48 L186.92 498.37 L187.30 495.24 L188.36 492.14 L193.13 489.19 L192.51 486.09 L189.81 482.85 L188.75 479.67 L189.00 476.56 L186.31 473.20 L186.01 470.01 L185.08 466.74 L181.05 463.09 L181.99 459.97 L183.45 456.93 L185.47 454.00 L186.69 450.97 L191.07 448.49 L195.16 446.03 L195.76 442.99 L200.08 440.69 L203.72 438.33 L205.39 435.60 L207.58 433.00 L209.93 430.48 L208.51 427.05 L201.45 422.10 L198.38 418.07 L192.47 413.16 L191.19 409.45 L194.70 407.16 L202.43 406.24 L201.86 402.78 L206.06 400.88 L203.68 396.77 L207.12 394.67 L202.97 389.81 L201.67 385.93 L199.70 381.72 L193.79 375.84 L195.62 373.02 L197.38 370.19 L203.47 369.27 L205.67 366.71 L209.60 364.98 L213.31 363.20 L213.96 359.98 L215.70 357.29 L220.69 356.28 L220.83 352.80 L228.27 353.23 L229.50 350.39 L232.08 348.30 L229.80 343.42 L224.74 336.79 L224.83 333.10 L223.12 328.25 L226.96 326.82 L232.67 326.68 L234.29 323.92 L235.28 320.74 L239.19 319.56 L239.98 316.24 L239.12 311.69 L237.88 306.78 L234.71 300.32 L232.77 294.64 L235.47 292.47 L239.67 291.53 L245.10 291.66 L246.99 288.95 L252.28 289.12 L254.67 286.89 L255.66 283.43 L261.59 284.39 L265.01 283.17 L270.00 283.48 L273.22 282.19 L276.70 281.20 L277.48 277.56 L273.20 268.70 L272.86 263.67 L270.59 256.48 L272.64 253.77 L276.50 253.04 L282.23 254.48 L283.63 251.09 L285.49 248.19 L288.71 246.88 L291.55 245.15 L291.86 240.27 L293.01 236.35 L293.57 231.57 L292.63 224.70 L295.59 222.90 L299.64 222.63 L304.62 223.74 L307.88 222.51 L312.25 222.94 L316.15 222.78 L319.89 222.43 L324.44 223.42 L330.80 227.46 L337.18 231.78 L340.91 231.91 L345.46 233.54 L346.01 228.27 L345.26 220.46 L345.85 214.83 L347.56 211.12 L350.82 210.33 L355.88 213.14 L359.71 213.67 L361.61 210.25 L363.74 207.22 L366.42 205.30 L368.06 201.01 L369.20 195.36 L369.17 186.71 L370.24 180.31 L372.34 176.24 L376.49 177.34 L380.68 178.68 L384.76 179.91 L388.40 180.03 L392.55 181.71 L396.20 182.08 L400.13 183.41 L404.51 186.39 L409.55 191.92 L414.06 196.08 L417.64 197.19 L420.31 195.01 L421.22 185.69 L422.43 176.83 L424.28 170.03 L427.75 170.06 L431.31 170.57 L435.82 176.03 L438.83 174.19 L441.59 170.76 L444.53 168.07 L447.53 165.45 L449.84 157.86 L453.05 155.80 L455.79 149.75 L458.95 146.38 L462.78 148.72 L466.01 145.43 L469.83 148.31 L473.30 147.33 L477.15 152.01 L480.76 154.22 L484.27 155.10 L487.82 157.79 L491.27 158.77 L494.80 166.45 L498.17 172.43 L501.44 175.28 L504.64 178.41 L507.98 173.41 L511.52 165.51 L514.99 162.79 L518.53 159.82 L521.81 162.00 L524.84 166.92 L528.05 168.57 L531.63 165.99 L535.00 166.08 L538.54 164.68 L542.25 162.19 L546.56 155.73 L550.88 150.15 L555.58 142.98 L559.18 143.32 L562.27 146.64 L565.31 149.90 L568.28 153.25 L571.53 154.99 L574.36 158.53 L577.57 160.19 L580.07 164.70 L582.48 169.32 L583.92 177.32 L586.10 182.01 L588.78 184.65 L592.96 182.03 L598.36 175.63 L604.39 167.76 L609.04 164.72 L612.34 165.96 L614.64 170.08 L616.14 176.25 L619.77 176.33 L624.05 174.80 L628.08 174.06 L632.16 173.33 L638.50 167.26 L641.86 168.56 L648.14 163.25 L651.92 163.81 L654.33 167.38 L659.12 165.86 L660.52 171.41 L664.40 171.83 L665.17 178.38 L667.53 181.65 L670.09 184.48 L671.86 188.70 L674.11 191.94 L673.23 200.53 L673.58 206.73 L675.34 210.41 L677.21 213.82 L683.27 210.53 L689.37 207.41 L694.73 205.64 L697.84 207.33 L699.77 210.76 L700.34 216.05 L702.75 218.64 L707.66 217.81 L709.84 220.76 L714.79 220.03 L718.94 220.46 L726.93 216.15 L733.14 214.29 L741.22 210.35 L742.93 214.16 L743.84 218.83 L744.80 223.36 L745.97 227.58 L747.51 231.33 L748.62 235.48 L750.22 239.05 L749.92 244.54 L749.30 250.22 L746.88 257.53 L746.76 262.46 L748.14 265.86 L753.64 265.43 L762.44 262.11 L770.56 259.63 L776.24 259.49 L778.53 262.34 L777.39 268.07 L776.76 273.27 L780.01 275.24 L784.29 276.45 L788.35 277.88 L792.63 279.22 L801.29 277.37 L803.93 280.08 L811.87 279.06 L813.84 282.34 L814.51 286.51 L819.13 288.00 L817.49 293.64 L820.49 296.21 L817.98 302.25 L818.73 306.17 L819.31 310.17 L819.51 314.35 L818.37 319.24 L813.71 326.01 L811.28 331.41 L810.62 335.77 L811.42 339.31 L819.62 339.10 L826.24 339.84 L830.82 341.67 L833.83 344.32 L831.85 349.26 L830.11 354.02 L831.32 357.43 L836.38 359.22 L836.47 363.12 L841.22 365.15 L843.96 368.03 L854.52 368.03 L859.53 370.24 L868.77 371.06 L867.61 375.57 L865.76 380.26 L864.47 384.71 L863.32 389.05 L862.69 393.20 L861.64 397.43 L861.29 401.42 L858.71 405.97 L854.01 410.97 L848.81 415.98 L845.84 420.35 L846.42 423.85 L853.04 426.09 L861.26 428.13 L870.32 430.17 L871.93 433.71 L873.70 437.25 L868.53 441.90 L866.95 445.90 L868.46 449.44 L870.89 452.88 L873.28 456.36 L876.48 459.80 L884.84 462.80 L885.04 466.66 L893.49 469.89 L891.62 473.97 L889.62 478.01 L892.98 481.76 L887.84 485.89 L888.26 489.76 L882.13 493.74 L879.29 497.58 L941.77 500.00 L940.10 495.60 L935.36 491.29 L929.37 487.11 L929.05 482.83 L922.77 478.84 L924.61 474.49 L919.73 470.57 L922.02 466.17 L926.63 461.50 L928.67 456.99 L933.12 452.16 L933.26 447.76 L933.04 443.39 L933.28 438.94 L931.53 434.78 L925.92 431.27 L920.40 427.84 L924.00 422.85 L925.03 418.26 L936.66 411.49 L942.60 405.66 L944.55 400.59 L942.49 396.39 L938.11 392.79 L928.40 390.61 L925.09 386.92 L917.62 384.42 L913.87 380.99 L908.42 378.12 L905.06 374.70 L902.01 371.23 L898.36 367.99 L895.75 364.45 L894.14 360.58 L897.72 354.82 L901.11 349.02 L903.65 343.44 L903.67 338.77 L903.02 334.34 L900.81 330.54 L900.17 326.07 L896.15 323.09 L888.33 321.90 L884.67 318.90 L886.75 313.18 L889.54 307.00 L896.38 298.65 L898.18 292.70 L894.47 289.59 L889.18 287.39 L880.56 287.13 L871.67 287.20 L867.08 284.92 L861.33 283.41 L857.46 280.84 L852.24 279.16 L847.02 277.57 L844.26 274.45 L838.68 273.24 L837.45 269.14 L831.86 268.06 L832.26 262.80 L833.59 256.77 L833.29 251.85 L834.60 245.64 L832.23 242.15 L830.70 238.00 L828.37 234.46 L824.82 231.91 L818.00 232.16 L813.07 230.91 L812.61 225.82 L813.71 219.26 L818.95 208.77 L821.59 200.41 L820.36 195.51 L816.02 193.57 L809.43 193.89 L800.31 196.92 L795.45 195.80 L788.25 197.21 L783.71 195.95 L777.37 196.71 L773.34 195.05 L768.79 194.03 L764.17 193.15 L760.23 191.54 L758.61 187.17 L757.68 181.87 L758.26 174.55 L757.06 169.33 L754.73 165.47 L751.97 162.14 L748.79 159.35 L745.75 156.35 L740.22 156.88 L733.14 159.81 L730.26 156.69 L728.21 152.29 L728.63 143.93 L729.83 134.06 L727.65 129.36 L722.76 129.05 L717.18 130.00 L709.23 135.25 L702.32 138.98 L697.23 139.66 L691.91 140.89 L687.50 140.54 L681.99 142.42 L677.51 142.44 L672.89 142.81 L668.53 142.76 L664.72 141.60 L659.54 143.52 L657.99 137.29 L655.54 132.93 L653.45 127.54 L651.14 122.46 L647.58 120.41 L644.10 118.09 L640.41 116.31 L636.07 116.31 L630.22 120.80 L626.17 120.29 L623.26 116.27 L621.12 109.57 L620.38 97.77 L618.17 90.28 L614.51 87.51 L609.85 88.37 L604.30 92.87 L598.42 99.19 L593.55 101.89 L588.45 105.93 L583.95 107.66 L579.01 111.80 L574.94 112.01 L570.61 113.70 L566.40 115.02 L562.34 115.67 L558.98 111.85 L555.56 108.00 L552.60 100.17 L548.73 98.59 L545.01 95.45 L540.95 95.11 L537.01 93.54 L532.97 92.87 L528.60 96.74 L524.18 102.70 L520.30 100.71 L516.42 97.77 L512.66 89.02 L508.72 80.99 L504.55 78.88 L500.33 81.51 L496.19 86.29 L492.22 95.00 L488.34 100.75 L484.48 104.32 L480.67 107.52 L476.86 109.62 L473.26 114.18 L469.40 114.51 L465.93 119.08 L462.15 119.74 L458.56 122.08 L455.16 125.61 L450.69 120.49 L446.57 118.69 L441.99 114.12 L437.70 111.99 L433.65 111.60 L429.67 111.73 L425.74 112.21 L422.36 115.43 L419.77 122.10 L415.97 122.80 L411.55 120.87 L405.81 113.79 L399.60 105.51 L394.08 100.54 L389.71 100.24 L386.58 104.39 L384.38 111.42 L382.51 119.11 L380.03 124.45 L377.75 130.12 L375.09 134.38 L372.82 139.54 L369.68 142.09 L366.89 145.51 L364.08 148.73 L361.23 151.75 L356.00 148.88 L351.16 147.18 L344.97 142.53 L340.71 142.53 L335.97 141.58 L332.98 144.50 L328.64 144.54 L325.26 146.60 L323.97 152.78 L323.37 160.07 L317.83 157.82 L314.15 159.15 L305.12 150.94 L298.64 147.66 L294.67 148.92 L292.50 153.21 L291.45 159.24 L292.08 167.78 L290.30 172.26 L289.37 177.94 L286.34 180.34 L285.05 185.27 L283.36 189.51 L279.38 190.44 L277.95 194.94 L275.75 198.31 L272.23 199.88 L267.00 199.29 L262.60 199.86 L257.60 199.75 L254.07 201.54 L252.10 205.21 L249.42 207.99 L246.34 210.33 L246.06 215.79 L248.50 224.12 L248.29 229.37 L241.30 227.38 L238.12 229.49 L229.23 225.85 L223.23 225.33 L220.63 228.24 L217.97 231.09 L217.26 235.75 L217.04 240.80 L216.66 245.62 L216.37 250.44 L213.23 252.72 L213.93 258.27 L213.94 263.13 L210.27 264.94 L211.25 270.49 L209.88 274.10 L209.19 278.19 L204.07 278.93 L197.97 279.05 L192.93 280.04 L188.48 281.53 L185.29 283.96 L188.46 290.69 L183.33 291.81 L186.18 298.15 L188.30 303.89 L187.93 307.98 L180.06 307.53 L179.01 311.24 L168.29 309.37 L167.90 313.54 L165.18 316.39 L166.37 321.36 L166.59 325.75 L164.71 329.01 L165.64 333.68 L165.08 337.56 L164.82 341.55 L169.22 347.66 L169.13 351.61 L168.81 355.43 L169.34 359.58 L169.39 363.49 L164.35 365.32 L158.98 367.10 L156.15 369.95 L151.21 372.05 L151.06 375.94 L152.41 380.32 L148.80 383.00 L151.03 387.60 L150.69 391.34 L155.38 396.56 L157.15 400.82 L151.63 402.99 L146.75 405.42 L139.60 407.36 L135.37 410.15 L132.45 413.32 L133.31 417.39 L134.80 421.55 L132.55 424.91 L135.32 429.26 L133.67 432.74 L135.64 436.86 L139.74 441.27 L143.40 445.52 L143.25 449.15 L143.03 452.75 L146.55 456.81 L147.21 460.47 L142.77 463.58 L141.63 467.08 L138.43 470.43 L135.74 473.88 L137.75 477.66 L135.21 481.16 L133.94 484.77 L135.88 488.49 L143.04 492.29 L144.94 495.88 L141.77 499.43 L140.75 503.02 L136.75 506.69 L137.95 510.29 L141.45 513.78 L140.51 517.42 L142.87 520.88 L141.70 524.55 L142.33 528.10 L142.79 531.66 L143.41 535.20 L148.10 538.30 L150.51 541.58 L148.91 545.33 L154.40 548.14 L155.06 551.57 L152.49 555.51 L152.06 559.16 L149.27 563.25 L148.47 567.03 L147.48 570.87 L150.07 574.00 L149.96 577.69 L150.20 581.32 L158.21 583.07 L164.93 584.99 L169.00 587.49 L163.20 592.64 L163.71 596.12 L153.99 602.65 L152.70 606.83 L154.11 610.19 L155.60 613.52 L160.60 615.65 L163.55 618.41 L168.68 620.34 L170.71 623.35 L172.11 626.58 L178.80 627.70 L181.20 630.45 L182.48 633.65 L187.68 635.15 L189.87 637.91 L192.05 640.64 L189.77 645.45 L186.72 650.71 L185.42 655.24 L183.26 660.26 L185.66 663.01 L190.12 664.65 L191.03 668.15 L199.27 667.59 L204.58 668.52 L206.38 671.41 L204.22 676.66 L203.39 681.20 L197.80 688.80 L202.81 689.83 L202.64 694.15 L210.13 693.41 L210.02 697.71 L214.98 698.53 L216.88 701.44 L221.84 702.13 L224.76 704.25 L232.75 702.50 L234.34 705.51 L238.44 706.54 L241.82 708.10 L245.35 709.49 L242.20 716.44 L242.15 720.92 L243.47 724.27 L241.62 730.49 L248.33 729.06 L249.92 732.23 L252.52 734.47 L256.09 735.76 L260.14 736.53 L266.75 734.66 L270.45 735.60 L266.49 744.52 L268.62 747.18 L264.63 756.54 L266.77 759.37 L268.42 762.77 L273.66 762.07 L275.94 764.72 L278.98 766.50 L283.53 766.38 L285.84 768.99 L290.05 769.19 L296.05 766.96 L300.71 766.33 L303.16 768.62 L307.39 768.43 L311.27 768.67 L313.93 770.59 L314.33 775.88 L316.20 779.08 L317.88 782.65 L320.61 784.62 L323.68 786.06 L325.72 789.17 L327.74 792.40 L332.87 790.29 L338.89 786.42 L341.91 787.74 L342.61 793.38 L345.89 794.30 L346.39 800.63 L351.30 798.34 L355.09 798.17 L357.94 799.89 L360.99 801.20 L364.14 802.29 L366.99 804.05 L370.59 804.06 L373.92 804.66 L378.71 801.58 L381.50 803.36 L384.51 804.62 L389.05 801.70 L392.50 801.61 L394.07 806.86 L397.36 807.27 L398.76 813.47 L401.57 815.51 L404.54 817.14 L408.09 816.79 L411.09 818.31 L414.69 817.61 L419.65 811.57 L424.02 807.28 L427.38 806.86 L428.73 815.17 L431.75 816.52 L432.77 827.63 L435.90 829.07 L439.20 829.66 L442.78 828.64 L446.57 826.13 L450.22 824.14 L454.08 820.30 L457.21 821.35 L460.68 819.67 L464.49 814.58 L467.66 814.80 L470.83 814.80 L474.37 810.36 L477.45 810.98 L480.57 810.96 L483.36 817.24 L486.38 821.07 L489.49 824.44 L492.64 828.78 L495.99 823.86 L499.23 823.66 L502.46 822.96 L505.54 814.39 L508.61 811.92 L511.91 816.44 L515.07 816.27 L518.70 824.23 L522.16 827.22 L525.20 824.06 L528.52 824.74 L531.12 817.81 L534.68 821.00 L537.35 816.14 L540.60 816.40 L543.42 813.50 L545.95 809.00 L548.30 803.94 L551.34 803.45 L553.89 800.22 L556.53 797.78 L559.26 795.97 L563.96 803.66 L567.10 803.47 L570.85 805.90 L574.81 808.90 L576.51 802.63 L580.42 805.24 L582.94 802.50 L585.88 801.37 L587.35 795.29 L588.92 789.90 L591.90 789.26 L597.05 795.21 L600.71 796.34 L606.19 802.48 L609.58 802.44 L612.70 801.59 L614.52 797.35 L618.21 798.04 L619.67 793.11 L622.53 791.75 L624.67 788.72 L626.57 785.25 L627.15 779.00 L629.19 776.13 L632.44 775.84 L633.32 770.72 L635.41 768.16 L639.03 768.62 L643.16 769.96 L646.36 769.44 L650.40 770.40 L652.79 768.34 L655.34 766.58 L659.77 767.98 L661.86 765.43 L661.36 758.74 L661.01 752.52 L664.50 752.40 L668.58 753.08 L672.14 752.90 L676.36 753.62 L676.32 748.23 L678.84 746.52 L680.02 742.99 L683.97 743.21 L685.51 740.20 L688.06 738.55 L690.52 736.76 L690.92 732.45 L691.41 728.35 L694.22 727.06 L695.29 723.74 L695.98 720.05 L697.54 717.38 L702.84 718.78 L705.27 717.01 L711.07 718.71 L713.66 717.01 L714.41 713.46 L716.21 710.99 L718.28 708.79 L717.81 704.21 L715.29 697.84 L713.36 692.16 L719.15 693.45 L722.18 692.20 L730.14 695.10 L736.42 696.39 L739.17 694.67 L740.75 691.99 L740.58 687.95 L739.90 683.58 L739.48 679.49 L738.41 675.00 L740.77 673.05 L739.66 668.64 L738.06 663.98 L740.86 662.38 L739.67 658.12 L739.13 654.35 L739.76 651.38 L743.50 650.36 L750.23 651.08 L754.06 649.95 L758.62 649.17 L761.96 647.63 L757.78 641.90 L761.23 640.41 L758.71 635.73 L754.28 630.19 L753.97 626.84 L761.62 627.41 L760.86 623.82 L772.91 626.22 L772.69 622.82 L773.67 619.98 L772.77 616.35 L770.86 612.35 L772.37 609.79 L770.84 606.04 L771.60 603.22 L770.69 599.79 L766.34 595.17 L764.87 591.67 L764.86 588.71 L763.90 585.46 L762.94 582.26 L765.98 580.29 L770.98 578.86 L774.06 576.79 L777.00 574.63 L779.58 572.34 L776.67 568.64 L780.77 566.69 L778.18 563.14 L777.69 560.11 L772.67 556.18 L769.31 552.68 L774.64 550.88 L778.75 548.76 L785.45 547.00 L789.43 544.69 L792.30 542.14 L789.92 538.84 L789.47 535.84 L789.95 532.96 L787.67 529.79 L787.66 526.88 L785.94 523.84 L782.56 520.72 L777.62 517.56 L776.96 514.74 L777.51 511.99 L773.24 509.07 L772.28 506.31 L776.06 503.64 L777.63 500.88 L779.85 498.09 L782.56 495.25 L779.71 492.50 L782.26 489.60 L783.29 486.73 L782.51 483.93 L774.67 481.62 L770.87 479.15 L774.06 476.15 L775.17 473.28 L778.82 470.10 L779.10 467.25 L773.57 465.12 L775.18 462.11 L771.76 459.81 L777.06 456.19 L776.08 453.51 L777.51 450.41 L777.63 447.52 L774.58 445.25 L769.89 443.37 L770.74 440.36 L766.63 438.47 L761.01 437.01 L761.89 434.02 L761.57 431.31 L763.42 428.00 L764.16 424.95 L764.15 422.09 L760.68 420.27 L757.77 418.33 L757.19 415.68 L753.38 414.11 L746.37 413.73 L746.61 410.87 L749.84 406.87 L749.97 403.96 L754.19 399.41 L747.99 398.98 L746.25 396.81 L741.25 396.06 L742.24 392.74 L746.03 388.11 L742.10 386.96 L741.31 384.38 L740.39 381.85 L737.61 380.25 L737.79 377.16 L738.99 373.50 L733.69 373.30 L731.65 371.39 L727.95 370.45 L729.13 366.73 L724.94 366.14 L723.68 363.84 L725.00 359.94 L723.72 357.60 L723.14 354.82 L722.37 352.14 L719.04 351.17 L713.21 351.99 L714.02 348.24 L711.61 346.74 L708.15 346.05 L706.21 344.27 L705.32 341.70 L703.16 340.10 L703.04 336.87 L705.38 331.59 L701.44 331.42 L702.55 327.02 L698.94 326.63 L696.09 325.64 L689.05 328.48 L685.88 327.93 L687.83 322.61 L686.21 320.59 L688.28 314.92 L685.82 313.65 L683.36 312.40 L679.90 312.22 L678.16 310.28 L675.80 309.00 L672.90 308.34 L669.67 308.09 L669.13 304.81 L667.49 302.75 L664.71 302.04 L662.27 300.97 L660.74 298.77 L657.37 298.90 L655.75 296.81 L652.30 297.14 L647.23 299.75 L642.61 301.91 L644.14 295.50 L644.02 291.28 L645.33 284.80 L643.93 282.21 L641.31 281.45 L637.49 282.62 L635.97 280.20 L632.60 280.78 L627.68 284.06 L624.15 285.15 L619.87 287.70 L620.56 281.38 L619.00 279.02 L617.59 276.32 L615.57 274.71 L612.28 275.62 L609.85 274.88 L608.17 272.58 L604.60 274.31 L600.93 276.39 L598.21 276.48 L596.34 274.64 L592.95 276.41 L591.89 272.58 L587.75 276.40 L585.85 274.65 L582.03 278.02 L582.44 269.87 L581.59 264.86 L579.99 261.79 L578.69 257.68 L575.12 260.53 L570.98 265.56 L567.96 267.16 L565.82 265.79 L561.79 271.40 L559.45 270.97 L556.26 274.01 L555.14 268.64 L553.33 265.89 L551.86 261.37 L549.64 260.01 L547.12 260.13 L544.36 261.62 L542.38 258.87 L539.11 263.62 L536.51 264.74 L533.96 265.80 L532.19 261.21 L530.21 257.57 L528.33 252.54 L526.21 248.86 L523.04 255.52 L520.79 252.99 L518.11 255.72 L515.78 253.67 L513.40 252.05 L510.76 255.40 L508.25 257.44 L505.69 262.67 L503.29 264.48 L500.93 266.72 L498.62 270.32 L496.37 273.42 L494.12 274.01 L491.66 268.46 L489.42 270.23 L487.04 268.82 L484.55 266.28 L482.53 270.67 L479.90 266.87 L477.36 264.93 L475.30 267.88 L472.96 267.96 L470.69 268.64 L468.24 267.94 L466.28 270.70 L463.31 266.75 L461.44 269.86 L459.39 271.67 L457.40 273.63 L454.02 268.44 L450.97 265.38 L447.18 259.30 L443.83 255.73 L441.71 257.63 L439.97 260.95 L437.35 260.64 L435.75 264.21 L433.79 266.26 L432.70 271.15 L430.95 273.58 L428.25 272.91 L425.85 273.22 L421.94 269.11 L420.00 270.94 L419.14 275.71 L416.09 274.35 L414.04 275.73 L411.11 274.85 L409.19 276.56 L408.04 280.07 L406.32 282.09 L404.72 284.34 L401.17 282.22 L398.69 282.56 L397.78 286.23 L397.24 290.49 L393.78 288.82 L392.79 292.06 L390.55 292.83 L388.27 293.52 L388.20 298.25 L386.58 300.06 L383.46 299.28 L383.09 303.19 L384.74 310.32 L384.73 314.50 L384.09 317.57 L380.19 315.53 L378.35 316.74 L375.40 316.31 L373.76 317.84 L371.60 318.62 L368.69 318.39 L367.18 320.12 L368.80 325.97 L367.39 327.73 L365.78 329.20 L360.93 326.62 L355.47 323.46 L350.13 320.62 L346.72 320.23 L345.79 322.76 L346.34 326.91 L347.48 331.62 L349.80 337.48 L349.51 340.39 L350.23 344.31 L350.00 347.16 L351.63 351.82 L351.80 354.91 L352.22 358.19 L352.51 361.27 L351.40 363.01 L352.96 367.14 L347.90 365.31 L344.13 364.73 L339.59 363.57 L335.35 362.78 L333.45 364.00 L331.53 365.22 L329.82 366.62 L329.66 369.21 L333.34 374.67 L332.90 376.94 L329.17 376.80 L323.58 375.44 L313.01 370.76 L306.37 369.01 L303.66 370.02 L303.98 373.03 L307.40 377.96 L312.76 383.97 L314.80 387.78 L318.10 392.25 L319.21 395.34 L322.70 399.71 L322.55 401.96 L323.82 404.94 L324.65 407.64 L324.91 410.00 L321.08 410.29 L317.30 410.67 L309.86 409.37 L307.78 410.73 L304.41 411.53 L303.77 413.60 L301.99 415.17 L300.86 417.03 L303.61 420.47 L308.68 424.74 L306.33 426.05 L302.92 426.99 L294.16 426.08 L286.03 425.56 L283.28 427.03 L285.11 430.03 L288.86 433.58 L296.65 438.26 L301.48 441.89 L304.15 444.79 L306.63 447.57 L307.82 449.95 L311.60 452.94 L311.21 454.84 L314.84 457.66 L314.78 459.60 L316.20 461.83 L319.07 464.31 L312.98 465.04 L310.42 466.52 L304.97 467.57 L302.10 469.12 L300.67 470.94 L299.88 472.86 L299.41 474.84 L301.61 477.13 L307.23 479.73 L306.98 481.65 L303.85 483.33 L295.67 484.69 L285.79 486.10 L279.57 487.91 L278.07 490.06 L281.09 492.38 L287.11 494.72 L294.04 496.96 L298.30 499.04 L302.94 501.03 L306.18 502.95 L310.42 504.78 L311.86 506.63 L314.12 508.41 L316.08 510.17 L318.00 511.89 L313.53 514.05 L310.31 516.21 L303.75 518.74 L302.34 520.88 L299.86 523.16 L301.41 525.00 L299.81 527.24 L300.33 529.20 L305.47 530.44 L312.00 531.35 L307.95 534.00 L307.72 536.03 L296.83 540.17 L291.40 543.42 L290.62 545.77 L293.69 547.27 L298.65 548.25 L308.35 547.96 L313.36 548.70 L317.74 549.51 L320.93 550.57 L323.38 551.79 L328.05 552.29 L328.11 554.16 L333.37 554.34 L332.88 556.35 L336.62 556.92 L338.84 557.96 L333.83 561.64 L332.51 564.04 L328.33 567.62 L326.89 570.19 L326.90 572.21 L326.88 574.26 L328.06 575.80 L331.61 576.25 L337.35 575.63 L336.99 577.78 L335.46 580.54 L328.05 586.31 L320.70 592.26 L317.05 596.47 L317.45 598.60 L320.76 599.14 L328.15 597.31 L333.38 596.56 L339.05 595.44 L343.62 594.85 L347.14 594.82 L351.27 594.33 L353.53 594.96 L356.33 595.20 L358.86 595.57 L361.84 595.58 L358.33 600.12 L356.73 603.41 L352.01 609.09 L352.21 611.24 L351.22 614.33 L353.58 614.87 L352.80 617.87 L354.78 618.69 L360.05 616.74 L365.35 614.63 L363.18 618.85 L362.74 621.66 L356.01 630.22 L352.78 635.84 L354.51 636.96 L357.55 636.82 L363.23 634.02 L370.79 629.16 L374.91 627.57 L378.94 625.96 L381.85 625.42 L384.67 624.91 L388.98 622.67 L389.83 624.20 L394.50 621.36 L394.83 623.46 L398.33 621.79 L399.35 623.05 L397.26 628.21 L397.23 630.90 L395.19 636.29 L395.69 638.48 L396.63 640.12 L397.49 641.91 L399.29 642.40 L403.02 640.08 L407.32 636.76 L407.58 639.36 L407.11 643.16 L402.86 653.03 L400.11 660.90 L399.54 665.49 L401.60 665.81 L404.30 665.01 L410.24 658.39 L413.10 656.98 L418.04 651.62 L421.21 649.30 L424.36 646.88 L427.25 644.80 L429.35 644.19 L431.85 642.69 L433.96 641.91 L436.18 640.79 L435.33 646.55 L435.11 651.12 L434.42 657.06 L435.31 659.37 L435.97 662.40 L438.12 661.67 L439.06 664.09 L441.35 662.92 L444.87 658.08 L447.68 654.99 L447.97 659.36 L448.79 662.34 L447.14 673.59 L447.66 678.29 L449.84 677.39 L452.18 675.83 L455.82 669.07 L459.48 661.66 L462.04 658.14 L464.39 655.19 L466.37 653.58 L468.43 651.39 L470.77 647.53 L472.17 648.26 L474.50 643.74 L475.68 645.51 L477.70 642.16 L478.97 643.46 L479.77 648.31 L481.04 650.19 L481.96 655.43 L483.44 656.31 L484.92 657.28 L486.41 658.41 L488.05 657.86 L489.91 653.71 L491.69 649.42 L493.09 651.46 L494.53 653.70 L495.79 664.58 L497.33 671.13 L499.02 675.06 L500.77 673.95 L502.47 671.55 L503.97 662.65 L505.54 660.76 L506.86 654.22 L508.26 651.53 L509.54 647.89 L510.84 645.38 L512.13 643.32 L513.38 641.27 L514.64 639.66 L515.88 638.17 L517.79 642.24 L519.67 645.48 L521.83 650.06 L523.54 651.19 L525.27 652.31 L526.67 651.36 L528.37 652.06 L529.56 650.10 L530.01 644.74 L530.94 642.06 L533.22 645.51 L535.24 647.55 L538.90 655.95 L541.45 659.39 L542.49 656.94 L543.44 654.29 L543.23 647.87 L542.66 640.68 L543.34 637.93 L543.61 634.11 L544.40 632.04 L544.92 629.27 L545.19 625.97 L546.41 625.43 L546.43 621.72 L548.12 622.46 L548.30 619.39 L550.06 620.27 L552.39 622.40 L554.16 623.11 L556.66 625.39 L558.14 625.30 L559.71 625.40 L561.16 625.19 L562.12 623.99 L561.77 620.29 L561.54 616.94 L563.78 618.30 L565.87 619.32 L571.11 625.82 L574.96 629.58 L577.16 630.36 L577.83 628.55 L577.84 625.71 L575.53 619.29 L575.65 616.88 L574.34 612.38 L574.42 610.08 L573.90 607.00 L574.03 604.93 L574.23 603.02 L574.16 600.77 L574.60 599.27 L575.98 599.04 L578.47 600.18 L581.54 601.99 L583.80 602.69 L585.05 602.12 L586.60 601.90 L587.16 600.50 L588.47 599.97 L588.56 598.08 L586.79 594.21 L587.00 592.57 L588.92 592.73 L591.94 593.98 L596.62 596.81 L599.03 597.26 L599.18 595.48 L598.73 593.16 L596.30 589.06 L593.93 585.14 L593.71 583.26 L593.05 581.02 L593.47 579.75 L593.13 577.86 L592.74 575.98 L592.56 574.30 L591.92 572.29 L593.34 571.90 L594.18 571.06 L595.53 570.59 L597.39 570.47 L598.44 569.74 L599.03 568.68 L600.09 567.94 L600.15 566.53 L600.36 565.24 L599.93 563.54 L598.89 561.50 L599.47 560.49 L600.38 559.68 L603.00 559.85 L606.31 560.36 L609.05 560.48 L610.02 559.59 L609.61 557.95 L608.32 555.89 L605.31 553.02 L604.34 551.22 L602.81 549.20 L602.91 547.99 L602.80 546.70 L604.16 546.06 L605.88 545.56 L605.93 544.33 L606.78 543.44 L607.09 542.32 L606.64 540.92 L608.11 540.25 L608.13 539.03 L607.47 537.58 L607.33 536.33 L606.99 535.02 L606.60 533.72 L607.65 532.87 L607.32 531.60 L608.17 530.68 L610.28 530.09 L610.42 528.95 L611.79 528.11 L611.12 526.77 L609.63 525.25 L607.81 523.70 L606.50 522.30 L606.09 521.10 L605.55 519.90 L606.03 518.90 L607.24 518.01 L607.50 516.95 L607.66 515.87 L607.63 514.77 L605.21 513.37 L604.93 512.27 L603.46 511.05 L602.87 509.94 L603.23 508.94 L601.93 507.80 L601.96 506.78 L602.11 505.76 L601.81 504.72 L602.17 503.72 L602.10 502.69 L601.19 501.66 L600.94 500.64 Z"/>
  <svg class="pausebutton" id="pausebutton">
    <circle cx="500" cy="500" id="pausestart" class="pausestart" r="52.65"/>
    <rect height="50.02" width="10.00" y="473.68" rx="2.00" ry="2.00" x="479.99" class="pausesymbol"/>
    <rect height="50.02" width="10.00" y="473.68" rx="2.00" ry="2.00" x="510.00" class="pausesymbol"/>
    <polygon points="530.01,500 479.99,530.01 479.99,469.99" class="playsymbol"/>
  </svg>
  <polygon id="playback-head" class="playback-head" points="912.475,500 892.475,540 932.475,540"/>
</svg>