<?xml-stylesheet href="../../style/waveformjs.css" type="text/css"?>
<svg xmlns="http://www.w3.org/2000/svg" xmlns:xlink="http://www.w3.org/1999/xlink" width="100%" height="100%" viewBox="0 0 1000 1000">
  <path class="svg-wave" id="sp" d="M589.86 500.00 L590.01 500.90 L590.26 501.81 L590.79 502.72 L590.84 503.64 L591.13 504.56 L591.13 505.47 L591.28 506.40 L591.52 507.34 L591.90 508.29 L592.06 509.24 L592.39 510.20 L592.40 511.14 L592.40 512.08 L592.62 513.05 L592.43 513.97 L592.71 514.96 L592.64 515.90 L592.89 516.90 L592.68 517.82 L592.99 518.85 L592.49 519.71 L592.78 520.75 L592.53 521.66 L592.79 522.71 L592.61 523.65 L592.95 524.73 L592.54 525.61 L593.02 526.75 L592.54 527.62 L592.82 528.71 L592.44 529.61 L592.94 530.80 L592.43 531.66 L592.87 532.85 L592.17 533.64 L592.16 534.69 L591.49 535.48 L591.69 536.62 L591.26 537.51 L591.67 538.76 L591.33 539.69 L591.17 540.71 L590.51 541.51 L590.28 542.50 L589.81 543.38 L590.04 544.61 L589.78 545.61 L589.60 546.65 L589.04 547.49 L588.53 548.36 L587.98 549.21 L587.85 550.30 L587.47 551.25 L587.68 552.56 L586.91 553.28 L586.72 554.37 L585.95 555.09 L585.80 556.21 L585.20 557.04 L585.53 558.51 L584.57 559.11 L584.56 560.37 L583.84 561.13 L583.22 561.96 L582.85 562.98 L582.42 563.96 L582.22 565.14 L581.93 566.26 L581.63 567.37 L580.56 567.85 L580.34 569.05 L579.10 569.37 L578.92 570.63 L578.23 571.43 L577.98 572.64 L577.13 573.31 L576.96 574.63 L575.74 574.92 L575.53 576.23 L574.44 576.65 L574.20 577.94 L573.34 578.60 L573.29 580.13 L572.15 580.50 L571.95 581.90 L570.39 581.77 L570.06 583.04 L568.86 583.30 L568.77 584.91 L568.11 585.83 L567.64 587.01 L566.58 587.44 L566.09 588.61 L564.74 588.64 L564.34 589.98 L563.30 590.41 L562.81 591.65 L561.72 592.02 L561.03 592.99 L559.69 592.96 L558.89 593.76 L557.63 593.84 L557.22 595.29 L555.99 595.38 L555.69 597.09 L554.36 597.00 L553.65 598.02 L552.27 597.81 L551.65 599.03 L550.43 599.09 L550.41 601.54 L548.84 600.89 L548.49 602.79 L547.00 602.26 L546.24 603.33 L544.95 603.19 L544.33 604.61 L543.19 604.84 L542.69 606.63 L541.71 607.29 L540.48 607.28 L539.21 607.16 L537.76 606.49 L536.89 607.41 L536.04 608.46 L535.43 610.31 L534.10 609.94 L533.19 610.89 L531.63 609.66 L530.56 610.07 L529.51 610.57 L528.59 611.61 L527.45 611.77 L526.69 613.60 L525.23 612.39 L524.38 613.96 L522.94 612.71 L521.92 613.50 L520.75 613.52 L519.74 614.47 L518.64 614.92 L517.61 615.87 L516.23 614.54 L515.14 615.09 L513.89 614.42 L512.81 615.17 L511.73 615.97 L510.64 616.83 L509.41 616.26 L508.33 617.50 L507.06 615.98 L505.92 616.40 L504.73 615.93 L503.62 617.56 L502.44 617.09 L501.29 619.33 L500.09 616.98 L498.92 617.33 L497.79 614.96 L496.61 615.99 L495.51 614.51 L494.18 618.13 L493.16 615.39 L491.85 617.51 L491.01 613.31 L489.82 613.86 L488.81 612.39 L487.44 614.57 L486.32 614.25 L484.82 616.87 L483.90 614.88 L482.38 617.23 L481.42 615.71 L480.06 616.71 L478.98 616.02 L477.70 616.46 L476.87 614.59 L476.98 608.41 L476.28 606.48 L477.03 598.46 L475.97 598.52 L475.29 597.11 L474.34 596.79 L472.76 598.73 L472.52 595.84 L471.16 596.93 L471.08 593.76 L470.23 593.20 L468.79 594.42 L466.57 597.84 L464.16 601.57 L461.17 606.65 L457.94 612.01 L455.39 615.28 L452.55 619.08 L450.48 620.74 L449.77 619.06 L449.50 616.44 L449.95 612.32 L450.68 607.77 L452.29 601.55 L450.68 602.32 L449.20 602.74 L446.81 604.91 L443.74 608.28 L444.53 604.20 L446.02 599.00 L445.44 597.72 L442.57 600.50 L439.54 603.37 L434.23 609.92 L433.05 609.40 L433.15 606.82 L433.33 604.20 L433.60 601.52 L432.96 600.30 L433.87 596.83 L435.46 592.50 L434.55 591.83 L435.43 588.70 L431.67 591.93 L430.77 591.22 L427.95 592.99 L427.63 591.50 L425.41 592.39 L424.83 591.22 L421.14 593.77 L418.52 594.95 L417.14 594.63 L414.95 595.19 L412.09 596.44 L408.64 598.23 L402.88 602.35 L399.69 603.61 L399.98 601.26 L400.52 598.73 L400.72 596.58 L400.53 594.84 L399.44 593.98 L399.81 591.78 L398.56 591.07 L398.98 588.89 L397.87 588.07 L397.41 586.69 L396.33 585.84 L392.67 587.07 L390.75 586.84 L388.98 586.45 L393.72 581.06 L394.09 579.11 L397.66 574.87 L394.32 575.70 L393.27 574.85 L392.50 573.79 L394.19 571.09 L395.19 568.91 L395.05 567.51 L393.81 566.81 L391.91 566.51 L386.52 568.27 L382.28 569.23 L377.81 570.22 L379.75 567.51 L379.52 566.07 L386.22 560.92 L386.67 559.23 L388.70 556.76 L391.27 554.09 L391.58 552.58 L391.08 551.49 L388.81 551.21 L384.91 551.61 L381.02 551.94 L376.97 552.25 L370.33 553.54 L367.23 553.28 L364.99 552.61 L364.44 551.27 L365.70 549.27 L363.42 548.56 L361.76 547.60 L359.77 546.72 L359.76 545.17 L358.99 543.87 L360.83 541.77 L360.79 540.27 L359.87 539.02 L358.07 538.00 L352.30 537.97 L349.40 537.11 L351.22 535.09 L355.39 532.58 L357.65 530.58 L358.20 528.98 L356.36 527.86 L354.23 526.77 L354.61 525.20 L355.06 523.63 L357.53 521.76 L361.32 519.77 L365.89 517.75 L368.18 516.11 L365.56 515.07 L357.62 514.51 L350.65 513.72 L346.33 512.57 L345.86 511.05 L347.45 509.41 L349.62 507.77 L350.94 506.20 L350.33 504.73 L349.21 503.26 L347.29 501.77 L346.11 500.25 L348.75 498.73 L348.93 497.22 L349.45 495.72 L349.03 494.20 L341.54 492.32 L341.13 490.71 L336.90 488.83 L337.99 487.27 L340.39 485.85 L342.97 484.50 L343.00 482.91 L343.20 481.35 L343.90 479.84 L345.56 478.49 L347.46 477.19 L348.95 475.87 L349.17 474.36 L347.19 472.44 L342.70 470.01 L338.54 467.54 L338.51 465.85 L344.77 465.55 L350.01 465.13 L355.07 464.78 L356.57 463.62 L355.29 461.75 L357.57 460.83 L359.17 459.75 L363.15 459.40 L365.15 458.52 L366.06 457.33 L365.20 455.57 L360.40 452.43 L354.20 448.69 L350.11 445.56 L350.32 443.93 L353.77 443.55 L358.27 443.65 L360.16 442.78 L358.31 440.36 L357.64 438.40 L359.18 437.38 L362.62 437.26 L365.42 436.90 L368.03 436.51 L367.19 434.46 L363.30 430.84 L358.01 426.36 L354.27 422.57 L353.70 420.38 L351.75 417.38 L354.83 417.19 L354.06 414.80 L353.59 412.56 L359.22 414.00 L362.73 414.24 L366.30 414.61 L367.77 413.67 L366.95 411.22 L365.09 408.02 L361.90 403.81 L358.89 399.60 L356.87 395.99 L356.69 393.65 L358.49 392.78 L362.55 393.67 L365.95 394.15 L369.43 394.76 L374.36 396.64 L377.26 396.96 L378.37 395.79 L378.55 393.82 L376.83 390.13 L376.71 387.78 L374.97 383.89 L373.98 380.61 L375.78 379.93 L380.71 382.36 L382.29 381.58 L385.70 382.69 L386.57 381.23 L387.99 380.34 L389.76 379.85 L392.49 380.44 L392.07 377.53 L391.09 373.90 L391.55 371.87 L395.02 373.42 L399.17 375.92 L395.26 368.44 L396.34 367.09 L387.99 353.39 L387.39 349.50 L390.04 349.94 L393.22 351.18 L396.42 352.55 L398.83 352.87 L400.50 352.16 L402.01 351.21 L402.97 349.41 L403.52 346.92 L404.96 345.81 L406.57 344.98 L407.86 343.60 L408.33 340.78 L408.78 337.83 L409.62 335.49 L413.55 338.85 L416.40 340.36 L420.58 344.57 L422.36 344.22 L424.07 343.76 L425.74 343.23 L427.93 343.83 L430.75 345.93 L433.53 348.06 L436.49 350.78 L437.49 348.96 L436.99 343.33 L435.55 335.02 L434.95 328.44 L436.95 328.56 L439.13 329.22 L442.64 333.84 L444.99 335.33 L446.43 334.14 L448.59 335.20 L449.89 333.52 L451.55 333.01 L453.35 332.99 L455.14 332.97 L456.80 332.49 L457.44 327.87 L457.86 321.93 L458.74 317.53 L460.61 317.32 L462.50 317.23 L464.57 318.10 L465.97 315.51 L467.20 311.61 L468.67 308.79 L470.76 309.60 L472.80 310.24 L474.75 310.39 L477.01 313.08 L478.69 311.23 L480.39 309.15 L482.07 306.52 L483.72 302.84 L486.06 307.72 L488.36 313.68 L490.33 315.59 L492.18 315.74 L493.88 311.21 L495.71 308.37 L497.63 309.02 L499.55 311.36 L501.42 313.08 L503.27 314.22 L505.11 315.11 L506.93 315.78 L508.93 312.60 L510.96 310.03 L513.09 306.70 L515.06 306.38 L517.08 305.55 L518.94 306.57 L520.83 307.14 L522.51 309.45 L524.28 310.78 L526.35 309.71 L528.55 308.00 L531.04 304.67 L532.74 306.51 L534.90 305.55 L536.11 309.78 L537.95 310.48 L541.14 304.71 L543.11 305.04 L546.67 298.49 L548.92 298.00 L550.66 299.61 L552.22 301.78 L554.11 302.66 L555.71 304.51 L557.38 306.03 L558.98 307.71 L560.96 308.11 L562.76 309.10 L564.64 309.79 L566.84 309.60 L570.05 306.67 L572.67 305.53 L574.75 305.91 L575.20 310.41 L574.66 317.12 L574.66 322.23 L574.75 326.89 L575.96 328.82 L576.94 331.18 L579.35 330.41 L581.24 330.79 L584.54 328.34 L586.11 329.48 L587.62 330.71 L590.60 329.16 L594.77 325.53 L599.48 321.16 L602.70 319.63 L604.24 321.11 L603.72 326.03 L604.53 328.59 L605.67 330.55 L607.13 331.98 L607.42 335.19 L607.25 338.99 L606.90 342.94 L606.26 347.19 L607.18 349.11 L611.33 346.54 L616.98 342.09 L623.19 337.14 L627.45 334.98 L631.44 333.28 L631.70 336.34 L634.69 336.01 L635.97 337.79 L637.60 339.13 L637.69 342.25 L639.21 343.70 L639.92 346.02 L639.65 349.37 L639.77 352.24 L643.86 350.93 L647.25 350.44 L652.64 348.03 L656.40 347.37 L657.83 349.03 L656.85 352.95 L657.38 355.37 L657.46 358.18 L657.53 360.94 L657.53 363.73 L658.25 365.84 L659.95 367.13 L661.73 368.36 L664.00 369.22 L668.63 368.26 L672.42 368.06 L673.73 369.79 L670.95 374.52 L670.48 377.47 L666.64 382.74 L667.85 384.38 L670.58 385.00 L670.81 387.31 L673.75 387.85 L675.25 389.35 L679.67 389.05 L682.83 389.61 L684.62 391.04 L687.24 392.00 L691.17 392.27 L695.28 392.51 L702.97 390.91 L705.98 391.93 L705.45 394.81 L704.23 398.00 L703.56 400.87 L704.01 403.16 L704.66 405.35 L704.61 407.84 L705.41 409.94 L705.14 412.50 L706.19 414.48 L706.32 416.83 L707.89 418.61 L712.08 419.40 L714.23 421.03 L715.20 423.10 L710.13 427.28 L708.54 430.15 L704.58 433.75 L707.95 434.95 L709.69 436.70 L709.85 438.93 L707.94 441.74 L706.64 444.32 L706.48 446.58 L706.96 448.65 L710.01 450.12 L715.09 451.18 L720.08 452.36 L724.74 453.70 L721.91 456.59 L721.31 459.00 L714.14 462.54 L713.01 464.93 L710.45 467.51 L706.89 470.17 L705.96 472.41 L707.05 474.36 L709.13 476.23 L713.74 477.87 L716.99 479.72 L722.00 481.49 L728.65 483.24 L731.46 485.36 L732.52 487.62 L732.38 489.96 L730.69 492.34 L732.99 494.60 L734.70 496.91 L736.46 499.25 L735.44 501.60 L735.29 503.96 L733.08 506.25 L731.46 508.52 L732.88 510.91 L733.20 513.26 L739.03 515.99 L741.05 518.55 L738.53 520.76 L734.46 522.77 L731.16 524.79 L731.16 527.13 L731.91 529.57 L733.37 532.13 L732.43 534.37 L730.36 536.42 L727.57 538.32 L724.01 540.03 L719.26 541.44 L716.22 543.11 L717.68 545.67 L722.78 549.07 L728.15 552.65 L730.25 555.57 L732.17 558.50 L730.33 560.49 L730.37 562.97 L728.37 564.88 L729.00 567.54 L728.76 569.97 L730.34 572.98 L729.99 575.40 L727.24 577.03 L725.27 578.88 L725.26 581.41 L724.30 583.61 L731.12 588.80 L730.55 591.23 L733.37 595.06 L731.42 596.98 L728.26 598.35 L725.24 599.73 L724.30 602.00 L723.27 604.25 L721.32 606.04 L719.14 607.70 L716.24 608.98 L714.60 610.86 L712.75 612.61 L714.89 616.51 L717.10 620.53 L719.92 624.99 L718.69 627.20 L712.29 626.33 L707.21 626.14 L701.60 625.50 L700.02 627.31 L699.80 629.99 L696.57 630.71 L694.86 632.40 L689.50 631.55 L687.27 632.80 L685.27 634.18 L684.70 636.61 L689.15 642.85 L692.59 648.49 L695.52 653.89 L692.89 654.97 L688.93 654.92 L683.54 653.60 L681.56 655.05 L681.85 658.47 L681.54 661.42 L679.36 662.73 L675.51 662.46 L672.02 662.46 L668.68 662.52 L668.28 665.41 L670.51 670.99 L673.16 677.16 L674.87 682.52 L673.81 685.09 L673.66 688.68 L670.12 688.58 L669.45 691.65 L668.47 694.43 L663.92 693.05 L659.83 692.09 L656.18 691.57 L653.48 692.15 L652.63 695.06 L652.49 698.94 L653.27 704.16 L653.13 708.28 L653.30 712.93 L651.05 714.29 L649.16 716.18 L645.01 714.73 L642.27 715.28 L638.50 714.20 L633.90 711.69 L630.69 711.27 L628.12 711.82 L626.63 714.16 L626.08 718.18 L624.87 721.17 L624.90 726.49 L623.55 729.42 L621.22 730.59 L616.34 726.79 L613.70 727.21 L610.25 725.93 L608.32 727.74 L605.93 728.57 L603.36 728.99 L600.12 727.88 L598.90 731.35 L598.10 735.97 L595.79 737.09 L592.51 735.72 L588.60 732.58 L589.24 741.50 L586.93 742.66 L589.93 759.19 L587.93 761.83 L584.68 760.77 L581.23 758.93 L577.75 756.79 L574.89 756.58 L571.99 756.14 L569.64 757.67 L567.09 758.45 L565.07 761.41 L562.43 761.95 L559.85 762.71 L557.32 763.79 L555.26 767.14 L552.91 769.33 L550.47 771.21 L546.93 767.03 L543.81 764.74 L540.29 759.55 L537.70 760.06 L534.92 759.05 L532.34 759.49 L529.61 758.62 L526.64 755.23 L523.92 753.77 L520.96 748.95 L518.63 751.41 L516.51 757.63 L514.33 765.24 L511.99 772.34 L509.22 771.10 L506.46 769.33 L503.69 764.16 L501.04 761.64 L498.42 762.00 L495.83 760.34 L493.19 761.65 L490.58 761.51 L487.97 761.32 L485.39 760.54 L482.73 761.22 L479.80 765.21 L476.64 770.94 L473.52 774.90 L470.93 773.15 L468.26 772.38 L465.70 770.76 L462.66 772.79 L459.34 776.47 L456.20 778.47 L453.55 777.20 L451.01 775.44 L448.36 774.39 L446.14 771.25 L443.05 772.53 L439.88 773.98 L436.53 776.03 L433.24 777.60 L431.68 772.07 L430.47 765.61 L428.26 763.29 L425.59 762.71 L421.92 765.51 L418.57 767.02 L416.18 765.29 L414.28 762.15 L411.88 760.64 L409.69 758.56 L407.29 757.15 L404.79 756.03 L401.05 758.17 L397.56 759.47 L393.36 762.40 L390.62 761.60 L387.83 760.92 L385.45 759.27 L383.25 757.26 L381.67 753.96 L379.27 752.49 L376.33 752.12 L372.78 752.94 L368.77 754.54 L367.06 751.65 L364.25 750.86 L363.01 747.22 L360.96 745.10 L354.76 750.16 L352.56 748.20 L346.58 752.49 L343.74 751.46 L342.03 748.63 L340.22 746.01 L337.99 744.06 L336.29 741.36 L334.63 738.63 L332.64 736.41 L330.62 734.26 L328.37 732.44 L325.92 730.89 L322.86 730.13 L318.29 731.24 L314.55 731.21 L312.55 728.97 L312.77 724.09 L314.56 717.50 L315.37 712.21 L316.11 707.14 L315.34 703.86 L314.61 700.60 L311.83 699.56 L308.45 699.12 L304.73 698.97 L301.87 697.89 L300.30 695.51 L296.12 695.64 L290.31 697.22 L284.44 698.72 L280.43 698.39 L279.11 695.61 L280.49 690.51 L279.64 687.42 L278.44 684.65 L277.21 681.93 L277.30 678.17 L278.07 673.94 L278.79 669.84 L280.54 665.03 L279.49 662.40 L273.31 663.47 L266.68 664.74 L258.74 666.75 L254.29 666.22 L249.48 665.85 L250.28 661.75 L246.13 660.86 L245.55 657.68 L243.59 655.37 L243.94 651.68 L241.96 649.39 L242.21 645.82 L242.62 642.21 L243.00 638.66 L238.40 637.79 L234.52 636.45 L228.15 636.31 L224.93 634.50 L223.40 631.84 L225.22 627.61 L224.91 624.43 L225.04 621.07 L225.93 617.42 L226.08 614.13 L226.05 610.94 L224.22 608.48 L222.47 605.98 L220.15 603.67 L214.80 602.42 L211.41 600.39 L210.49 597.48 L214.08 593.10 L216.00 589.34 L220.81 584.77 L220.25 581.89 L217.94 579.51 L216.15 576.96 L214.75 574.29 L212.42 571.83 L208.36 569.76 L205.74 567.28 L203.72 564.63 L201.45 562.01 L197.39 559.70 L193.56 557.28 L185.32 555.57 L183.48 552.63 L184.93 549.16 L186.91 545.65 L188.42 542.25 L188.22 539.11 L188.38 535.93 L188.41 532.77 L189.22 529.54 L189.42 526.39 L189.20 523.28 L189.55 520.14 L188.11 517.10 L184.76 514.13 L183.14 511.02 L183.79 507.84 L189.53 504.59 L193.03 501.47 L196.32 498.41 L194.61 495.35 L192.56 492.24 L193.66 489.21 L195.59 486.22 L198.59 483.34 L199.05 480.34 L199.24 477.33 L196.58 474.08 L191.59 470.54 L187.09 466.95 L184.09 463.44 L187.49 460.66 L189.87 457.81 L197.66 455.78 L199.50 452.98 L202.48 450.39 L206.79 448.09 L207.83 445.26 L208.88 442.43 L207.15 439.04 L203.66 435.22 L201.84 431.69 L196.52 427.27 L192.32 423.00 L189.74 419.05 L190.80 416.02 L191.75 412.95 L194.06 410.29 L192.20 406.39 L191.50 402.80 L190.99 399.23 L193.14 396.53 L194.28 393.50 L197.64 391.26 L200.55 388.92 L199.47 385.08 L199.82 381.76 L195.32 376.46 L194.89 372.72 L199.43 371.06 L204.47 369.71 L209.04 368.24 L209.75 365.05 L210.48 361.85 L209.65 357.87 L211.83 355.35 L214.20 352.94 L217.90 351.26 L222.40 350.06 L227.78 349.44 L231.76 348.11 L230.98 344.10 L227.95 338.69 L223.91 332.54 L223.62 328.56 L223.48 324.62 L226.59 322.73 L227.48 319.42 L230.38 317.43 L230.65 313.66 L232.47 310.93 L232.32 306.78 L233.96 303.89 L237.69 302.56 L241.01 300.97 L241.89 297.51 L244.04 295.03 L239.42 287.02 L241.34 284.24 L240.67 279.25 L243.93 277.57 L248.17 276.79 L251.89 275.62 L254.11 273.11 L256.61 270.87 L259.42 268.94 L262.57 267.35 L266.44 266.52 L269.02 264.44 L271.70 262.47 L271.55 257.50 L271.32 252.34 L270.56 246.47 L273.68 244.84 L279.87 246.76 L285.64 248.37 L291.14 249.79 L293.89 248.01 L296.04 245.49 L299.36 244.43 L302.69 243.43 L307.89 244.96 L311.38 244.32 L314.34 242.98 L315.99 239.82 L315.07 232.89 L313.71 225.10 L313.83 219.28 L317.55 218.82 L322.19 219.87 L327.78 222.58 L330.88 221.40 L332.14 217.13 L334.18 214.10 L337.14 212.62 L341.32 213.35 L345.57 214.32 L349.22 214.28 L351.66 211.96 L351.73 204.87 L352.09 198.11 L352.79 191.77 L355.69 189.90 L357.83 186.36 L362.04 187.35 L364.41 184.21 L366.98 181.45 L371.45 183.30 L376.02 185.56 L379.91 186.26 L383.67 186.75 L386.33 184.26 L388.47 180.20 L390.05 174.30 L392.48 170.67 L394.41 165.28 L398.08 165.28 L401.26 163.68 L405.50 165.82 L409.09 165.78 L413.09 167.39 L417.62 171.32 L421.52 173.06 L424.98 173.10 L427.89 170.68 L430.53 166.84 L433.41 163.88 L435.87 158.42 L439.11 156.78 L442.51 155.95 L446.80 160.82 L450.39 161.65 L454.02 162.93 L457.32 161.90 L460.81 162.42 L464.10 161.24 L467.89 165.01 L470.91 160.95 L474.01 156.75 L477.47 156.84 L480.99 158.30 L484.60 162.30 L487.68 153.83 L491.13 153.08 L494.34 136.54 L497.97 135.49 L501.60 137.66 L505.19 140.03 L508.70 143.72 L512.25 144.38 L515.74 145.82 L519.33 145.10 L522.88 145.32 L526.60 143.25 L530.14 143.79 L533.77 143.42 L537.34 143.70 L541.28 140.79 L545.07 139.66 L548.75 139.52 L551.73 144.30 L554.79 148.04 L557.47 153.64 L560.87 154.58 L564.08 156.51 L567.42 157.59 L570.75 158.74 L573.59 162.08 L576.40 165.32 L578.76 170.19 L582.45 169.41 L587.27 164.41 L592.51 158.33 L597.83 152.52 L600.86 154.99 L603.74 157.89 L605.57 164.01 L608.32 166.93 L611.55 168.32 L614.22 171.28 L618.08 170.83 L621.45 171.81 L624.73 173.02 L627.73 174.96 L631.30 175.45 L636.33 172.47 L641.81 168.68 L646.89 166.09 L649.62 168.90 L652.76 170.76 L655.47 173.51 L660.04 172.41 L665.02 170.60 L669.29 170.36 L672.26 172.67 L674.78 175.79 L678.03 177.52 L680.02 181.48 L683.90 182.08 L688.27 181.92 L692.78 181.60 L697.23 181.48 L697.23 188.49 L697.31 195.15 L699.49 198.43 L702.32 200.71 L708.51 198.09 L712.49 198.82 L714.89 201.79 L716.72 205.50 L718.87 208.73 L720.77 212.24 L722.99 215.29 L725.45 218.01 L730.28 217.80 L734.53 218.39 L739.52 218.17 L741.65 221.36 L745.57 222.49 L747.38 226.02 L751.09 227.44 L752.44 231.42 L755.48 233.57 L758.50 235.76 L762.65 236.84 L767.30 237.48 L768.24 241.78 L771.54 243.79 L772.59 247.90 L774.80 250.91 L783.06 248.53 L784.98 251.88 L791.93 250.92 L794.91 253.43 L795.59 257.84 L797.47 261.23 L799.51 264.47 L801.32 267.89 L802.41 271.83 L803.63 275.64 L805.69 278.81 L808.02 281.79 L810.06 284.97 L814.47 286.53 L818.61 288.34 L823.28 289.87 L824.03 293.96 L822.78 299.26 L820.00 305.40 L817.57 311.20 L817.32 315.62 L815.46 320.90 L816.83 324.28 L817.70 327.93 L821.77 329.87 L826.07 331.74 L828.27 334.75 L831.21 337.40 L835.14 339.61 L841.87 340.57 L848.39 341.75 L851.50 344.56 L852.27 348.41 L849.27 353.82 L849.99 357.62 L850.30 361.56 L851.15 365.27 L850.28 369.60 L848.48 374.23 L847.44 378.51 L845.00 383.22 L845.14 387.01 L852.51 388.49 L858.63 390.49 L867.38 391.82 L871.10 394.75 L875.98 397.41 L874.18 401.91 L878.82 404.74 L877.98 408.95 L879.23 412.66 L877.73 416.97 L878.62 420.73 L877.80 424.84 L876.27 429.05 L875.07 433.15 L880.67 436.08 L884.99 439.30 L891.82 442.24 L894.66 445.84 L894.07 449.93 L890.70 454.33 L889.72 458.39 L888.61 462.43 L886.21 466.56 L884.92 470.55 L884.09 474.47 L885.25 478.26 L886.21 482.08 L888.09 485.88 L892.91 489.64 L895.49 493.53 L894.93 497.48 L931.42 500.00 L929.38 495.71 L928.65 491.43 L930.13 487.09 L933.96 482.63 L933.06 478.33 L934.64 473.89 L933.78 469.59 L930.21 465.51 L926.15 461.54 L923.72 457.49 L922.28 453.36 L919.07 449.47 L917.03 445.48 L912.87 441.82 L913.75 437.47 L916.04 432.86 L918.71 428.13 L921.45 423.31 L922.05 418.83 L922.69 414.32 L921.27 410.21 L917.74 406.59 L915.08 402.81 L908.49 400.04 L908.58 395.67 L910.24 390.87 L906.28 387.56 L908.33 382.58 L906.08 378.82 L905.52 374.56 L907.90 369.34 L908.73 364.55 L910.05 359.55 L909.20 355.25 L908.03 351.06 L904.71 347.67 L899.86 344.91 L895.08 342.20 L892.48 338.67 L886.74 336.49 L883.64 333.26 L880.16 330.23 L881.88 324.86 L885.82 318.36 L891.78 310.75 L893.82 304.88 L892.13 300.81 L889.00 297.48 L883.61 295.39 L876.19 294.49 L871.00 292.48 L866.70 290.04 L865.00 286.14 L863.92 281.86 L857.85 280.60 L853.24 278.54 L845.09 278.81 L841.86 276.03 L841.67 271.23 L841.81 266.15 L840.65 261.92 L837.93 258.75 L834.64 256.01 L832.12 252.72 L828.75 250.08 L826.41 246.67 L822.87 244.20 L819.65 241.51 L814.32 240.58 L809.87 239.00 L805.88 237.09 L805.29 232.24 L806.92 225.34 L804.64 221.83 L804.21 216.60 L798.85 215.96 L793.69 215.21 L791.33 211.80 L790.41 206.90 L789.79 201.62 L787.18 198.33 L783.11 196.59 L777.76 196.28 L772.97 195.46 L768.47 194.39 L766.31 190.67 L763.12 188.12 L761.81 183.29 L759.89 179.14 L757.11 176.00 L752.63 175.03 L748.40 173.79 L744.10 172.69 L740.45 170.76 L736.48 169.32 L733.29 166.78 L730.65 163.43 L728.52 159.28 L723.48 159.49 L719.22 158.58 L713.46 160.13 L708.98 159.75 L706.91 155.45 L705.14 150.53 L701.34 149.01 L698.13 146.45 L693.52 146.44 L688.83 146.65 L684.93 145.47 L680.69 144.98 L677.12 143.22 L674.29 139.92 L670.99 137.54 L666.86 136.94 L663.20 135.34 L661.12 130.09 L658.40 126.17 L656.41 120.36 L652.47 119.15 L647.94 119.48 L643.80 118.88 L640.44 116.20 L636.38 115.44 L633.11 112.39 L629.27 110.95 L625.41 109.56 L621.68 107.76 L615.78 113.13 L611.10 114.79 L606.26 117.25 L603.15 113.49 L599.98 109.73 L597.37 103.50 L594.07 99.66 L589.98 99.10 L586.40 96.20 L581.85 97.88 L576.99 101.37 L572.37 104.11 L567.73 107.32 L563.50 108.50 L558.86 112.62 L554.79 113.43 L550.52 115.96 L546.84 114.15 L543.34 110.40 L539.73 107.17 L535.97 104.95 L531.92 105.80 L527.87 106.95 L523.78 109.34 L519.73 111.85 L515.78 113.34 L511.90 113.61 L508.04 113.42 L504.14 116.52 L500.30 117.40 L496.50 119.94 L492.64 116.63 L488.60 109.77 L484.59 107.23 L480.50 104.11 L476.47 103.00 L472.48 102.96 L468.32 100.84 L463.96 97.05 L459.96 97.76 L455.95 98.22 L452.04 99.56 L448.57 104.13 L444.98 107.30 L442.13 115.02 L438.64 117.81 L435.13 120.25 L430.75 117.74 L426.30 115.14 L421.86 112.93 L417.90 113.28 L414.36 115.57 L410.58 116.74 L407.29 119.83 L404.16 123.40 L400.98 126.57 L397.97 130.18 L394.91 133.46 L392.05 137.19 L388.92 139.88 L383.85 136.40 L378.80 133.29 L374.05 131.34 L369.59 130.39 L366.86 134.36 L364.05 137.94 L360.79 140.24 L357.49 142.38 L353.65 143.17 L350.80 146.32 L346.86 146.88 L343.98 149.89 L342.09 154.96 L338.78 156.85 L334.64 156.98 L329.57 155.31 L323.72 152.29 L319.37 152.36 L315.06 152.61 L311.26 153.86 L307.14 154.57 L303.01 155.32 L300.62 159.09 L298.40 163.07 L296.98 168.28 L297.21 175.97 L296.79 182.41 L295.91 187.95 L290.62 186.74 L284.44 184.37 L277.30 180.82 L273.41 182.07 L270.98 185.36 L269.20 189.49 L266.74 192.66 L263.27 194.48 L260.90 197.71 L257.91 200.14 L255.84 203.69 L252.94 206.21 L253.87 213.18 L252.62 217.49 L253.74 224.38 L249.90 225.66 L245.26 226.12 L241.03 227.10 L237.46 228.82 L236.36 233.08 L235.31 237.32 L232.66 239.94 L230.79 243.31 L230.31 247.95 L228.12 250.96 L227.62 255.46 L227.47 260.21 L226.02 263.74 L224.23 266.97 L216.87 265.57 L212.78 266.98 L207.81 267.76 L203.85 269.40 L204.13 274.34 L202.80 277.99 L201.67 281.76 L200.67 285.58 L200.36 289.87 L197.16 292.10 L194.74 294.90 L193.39 298.42 L189.61 300.35 L190.62 305.35 L188.14 308.11 L186.85 311.61 L182.27 313.16 L178.03 314.97 L174.83 317.43 L173.24 320.82 L173.70 325.29 L172.95 329.07 L170.89 332.16 L170.40 336.05 L166.80 338.39 L165.25 341.75 L163.24 344.90 L165.91 350.17 L167.70 354.94 L171.93 360.68 L170.39 363.90 L165.10 365.62 L160.30 367.62 L158.48 370.83 L157.91 374.51 L160.09 379.15 L161.27 383.37 L161.12 387.10 L161.64 391.02 L158.60 393.80 L156.54 396.91 L156.64 400.67 L156.59 404.37 L156.71 408.09 L150.10 410.06 L142.90 412.01 L135.66 414.08 L133.17 417.36 L135.04 421.60 L138.04 426.03 L140.89 430.34 L141.86 434.24 L141.73 437.91 L139.37 441.21 L138.15 444.72 L138.21 448.43 L143.94 452.87 L147.14 456.88 L147.82 460.53 L145.94 463.91 L139.33 466.87 L136.35 470.26 L137.55 474.01 L136.84 477.60 L137.49 481.28 L135.27 484.82 L134.80 488.46 L133.73 492.09 L135.99 495.78 L140.32 499.43 L148.04 502.96 L153.59 506.38 L158.25 509.71 L156.32 513.21 L154.44 516.74 L151.43 520.38 L151.04 523.91 L152.95 527.27 L152.75 530.78 L153.64 534.20 L154.75 537.58 L155.44 540.99 L155.64 544.46 L157.90 547.65 L160.76 550.72 L163.92 553.69 L167.55 556.52 L165.83 560.26 L162.08 564.43 L160.80 568.20 L158.33 572.26 L157.67 575.98 L156.39 579.88 L154.94 583.86 L151.25 588.46 L153.66 591.54 L156.33 594.52 L159.51 597.32 L165.57 599.22 L164.94 603.06 L171.59 604.62 L172.35 608.00 L174.50 610.91 L176.07 614.01 L174.42 618.26 L172.61 622.63 L174.49 625.66 L173.07 629.98 L175.60 632.74 L179.15 635.05 L183.26 637.07 L187.09 639.14 L189.66 641.73 L193.93 643.50 L196.94 645.80 L201.42 647.34 L202.20 650.68 L201.73 654.68 L200.97 658.89 L199.44 663.58 L200.00 667.18 L200.29 670.97 L201.73 674.13 L205.40 675.95 L207.74 678.55 L212.46 679.63 L213.65 682.90 L213.91 686.78 L219.48 687.18 L220.23 690.75 L223.34 692.71 L223.94 696.42 L222.15 701.90 L221.48 706.69 L221.93 710.69 L223.52 713.87 L226.18 716.23 L229.77 717.81 L234.88 718.10 L238.76 719.33 L242.13 720.93 L248.86 719.56 L251.78 721.43 L256.27 721.84 L255.88 726.69 L253.54 733.50 L250.35 741.31 L249.81 746.72 L251.87 749.63 L256.13 750.30 L261.16 750.09 L266.64 749.29 L271.72 748.81 L275.56 749.59 L278.56 751.26 L281.50 752.98 L286.83 751.86 L291.45 751.46 L297.58 749.10 L299.61 751.70 L299.49 757.09 L299.61 762.30 L300.84 766.17 L302.92 768.95 L305.85 770.59 L308.44 772.68 L310.47 775.62 L313.38 777.29 L316.80 778.17 L319.61 779.96 L326.33 775.54 L330.33 775.26 L335.11 773.59 L337.73 775.44 L337.78 781.76 L340.03 784.39 L342.38 786.89 L346.54 786.06 L350.81 784.90 L353.66 786.40 L354.86 791.20 L356.34 795.60 L359.01 797.64 L362.73 797.43 L366.61 796.80 L371.23 794.36 L374.48 794.92 L377.27 796.57 L379.93 798.54 L381.77 802.67 L384.27 805.24 L386.62 808.33 L390.34 807.68 L393.49 808.55 L397.07 808.12 L400.38 808.45 L403.52 809.28 L406.63 810.19 L409.45 812.08 L412.09 814.71 L416.50 810.89 L420.24 809.28 L424.39 805.81 L427.70 805.51 L429.95 809.80 L432.11 814.85 L435.54 814.14 L438.63 815.05 L442.30 812.86 L445.92 810.57 L449.15 810.38 L452.44 809.69 L455.61 809.67 L458.48 811.76 L461.76 810.87 L465.05 809.64 L468.20 809.45 L470.87 814.38 L473.76 817.72 L476.62 822.47 L479.87 822.20 L483.24 819.69 L486.45 819.37 L489.63 820.20 L492.83 819.98 L496.01 821.95 L499.23 821.80 L502.45 821.50 L505.67 821.91 L508.70 815.13 L511.75 812.19 L514.74 809.33 L518.02 812.50 L521.40 815.96 L524.93 820.60 L528.33 822.59 L531.49 821.61 L534.85 822.63 L537.81 819.99 L540.45 815.28 L543.23 812.14 L545.69 807.25 L548.34 804.13 L550.59 798.99 L553.30 796.91 L555.81 793.96 L558.89 794.12 L562.71 797.72 L566.06 798.76 L569.58 800.41 L572.31 798.56 L574.89 796.26 L577.26 793.24 L579.39 789.55 L581.81 787.08 L584.56 785.85 L587.41 785.00 L589.37 781.31 L591.88 779.48 L593.82 776.05 L597.83 778.66 L602.75 783.58 L606.45 784.87 L610.37 786.59 L613.98 787.36 L616.91 786.37 L620.81 787.65 L625.48 790.59 L627.94 788.33 L630.84 787.10 L633.31 784.94 L634.45 780.04 L636.17 776.49 L635.59 768.51 L637.06 764.81 L639.12 762.32 L643.12 763.47 L647.49 765.17 L651.46 766.00 L654.33 764.86 L656.10 761.82 L658.50 759.91 L660.06 756.66 L661.20 752.81 L662.61 749.49 L663.70 745.76 L664.57 741.79 L665.69 738.27 L666.93 735.01 L672.42 737.67 L677.37 739.42 L682.22 740.89 L685.76 740.53 L686.30 736.31 L686.78 732.10 L688.44 729.43 L690.09 726.78 L693.01 725.65 L694.40 722.72 L697.19 721.41 L697.97 717.85 L697.83 713.38 L699.50 710.91 L703.39 710.75 L707.86 711.13 L713.89 712.95 L716.68 711.45 L720.04 710.48 L722.30 708.42 L725.77 707.47 L728.66 705.95 L729.76 702.82 L730.08 699.04 L729.71 694.74 L725.99 687.73 L724.18 682.47 L722.56 677.48 L727.61 677.81 L734.50 679.45 L740.80 680.48 L744.38 679.37 L744.39 675.65 L744.19 671.83 L744.56 668.46 L746.73 666.34 L747.69 663.41 L749.12 660.80 L749.96 657.82 L751.10 655.06 L747.09 649.18 L747.31 645.96 L743.24 640.30 L746.67 639.01 L750.76 638.03 L753.63 636.32 L756.22 634.43 L755.26 630.69 L754.94 627.32 L755.93 624.63 L756.06 621.55 L754.89 617.88 L755.48 615.07 L754.87 611.74 L752.58 607.74 L753.07 604.97 L752.86 601.93 L759.96 601.78 L763.83 600.27 L767.57 598.64 L770.36 596.60 L767.88 592.71 L767.99 589.76 L767.19 586.53 L767.34 583.63 L766.08 580.32 L767.49 577.84 L769.09 575.40 L769.60 572.64 L771.40 570.22 L771.03 567.24 L770.73 564.30 L771.20 561.55 L774.45 559.41 L777.08 557.09 L779.72 554.72 L779.81 551.84 L778.28 548.68 L777.47 545.69 L777.43 542.83 L776.05 539.80 L778.08 537.26 L778.81 534.52 L780.11 531.84 L775.53 528.53 L772.81 525.50 L767.20 522.28 L767.49 519.61 L772.64 517.25 L775.79 514.68 L776.72 511.96 L775.31 509.14 L771.94 506.31 L769.76 503.56 L768.71 500.86 L767.44 498.18 L769.57 495.47 L770.97 492.73 L769.18 490.09 L768.20 487.44 L767.07 484.81 L772.90 481.74 L778.44 478.57 L785.17 475.18 L786.43 472.18 L783.10 469.65 L779.29 467.23 L774.95 464.94 L773.76 462.31 L771.87 459.80 L774.12 456.66 L774.23 453.83 L772.17 451.37 L766.22 449.68 L761.40 447.88 L760.49 445.35 L761.28 442.44 L766.82 438.42 L768.64 435.17 L767.00 432.73 L766.20 430.09 L765.28 427.49 L765.90 424.46 L765.76 421.61 L765.94 418.66 L762.68 416.78 L757.51 415.57 L749.58 415.40 L743.46 414.75 L738.46 413.81 L739.61 410.68 L740.64 407.55 L742.49 404.04 L741.99 401.43 L739.85 399.49 L738.83 397.10 L737.17 394.99 L735.51 392.90 L734.09 390.70 L732.76 388.48 L730.67 386.63 L726.68 385.76 L723.67 384.46 L719.83 383.65 L721.13 380.11 L723.87 375.71 L724.15 372.61 L725.67 368.74 L724.94 366.14 L726.18 362.32 L726.44 359.03 L729.56 353.89 L726.24 352.81 L723.18 351.60 L719.61 350.78 L714.26 351.27 L713.36 348.70 L707.67 349.60 L705.86 347.74 L703.92 346.00 L702.09 344.19 L703.19 340.07 L703.47 336.53 L701.39 334.86 L701.42 331.44 L698.85 330.18 L695.72 329.44 L691.84 329.42 L688.03 329.41 L685.73 328.07 L681.20 328.88 L678.50 328.02 L674.27 328.70 L673.17 326.34 L673.11 322.89 L672.92 319.51 L673.61 315.13 L672.79 312.27 L671.83 309.53 L670.47 307.19 L666.81 307.48 L664.54 306.22 L660.14 307.54 L659.01 304.96 L657.73 302.52 L653.54 303.79 L652.05 301.64 L649.53 300.82 L648.53 297.99 L649.14 292.84 L649.15 288.39 L647.92 285.62 L645.96 283.87 L643.68 282.58 L640.41 282.85 L636.29 284.53 L632.93 285.12 L630.02 285.04 L624.78 288.97 L622.31 288.34 L618.58 289.98 L618.41 285.29 L619.55 278.00 L620.79 270.23 L620.16 265.76 L618.09 264.01 L614.40 265.57 L610.60 267.47 L606.52 270.16 L602.49 272.93 L599.41 273.74 L596.82 273.51 L594.41 272.90 L590.29 276.52 L586.98 278.38 L582.82 282.60 L580.95 280.96 L580.25 275.97 L579.32 271.41 L577.64 268.79 L575.60 267.17 L573.24 266.54 L571.03 265.40 L569.03 263.50 L566.48 263.46 L563.92 263.51 L561.47 263.20 L557.23 270.13 L554.51 271.32 L551.34 274.65 L549.09 274.10 L547.94 268.24 L545.88 266.44 L543.60 265.68 L540.81 267.79 L538.03 270.18 L535.71 269.93 L534.00 265.52 L532.11 261.76 L529.85 260.47 L527.21 262.27 L524.63 263.95 L521.95 267.15 L519.64 266.71 L517.36 265.73 L515.09 264.50 L512.81 262.92 L510.48 261.90 L508.12 261.01 L505.70 262.29 L503.31 263.40 L500.94 264.66 L498.59 265.25 L496.24 265.46 L493.88 264.76 L491.46 263.02 L489.02 261.54 L486.95 267.23 L484.78 269.81 L482.84 274.68 L480.64 275.47 L477.99 271.46 L475.25 267.46 L473.09 269.09 L470.75 269.15 L468.83 272.26 L466.98 275.48 L464.82 276.32 L462.80 278.00 L460.67 278.86 L458.19 277.85 L456.27 279.78 L454.33 281.46 L452.15 281.95 L448.73 277.03 L445.71 274.24 L442.40 270.62 L440.28 271.84 L438.84 275.55 L436.84 277.01 L434.51 277.32 L432.36 278.22 L429.84 277.92 L427.54 278.40 L425.48 279.57 L423.30 280.40 L423.14 286.81 L422.08 290.45 L420.37 292.23 L417.46 290.94 L413.43 287.00 L409.91 284.54 L407.13 283.97 L405.27 285.59 L402.66 285.50 L401.36 288.29 L401.10 293.15 L400.41 296.96 L400.46 302.10 L399.67 305.40 L399.98 310.68 L398.80 312.98 L397.79 315.55 L395.50 315.79 L391.66 313.39 L388.70 312.64 L385.91 312.24 L384.49 314.12 L383.45 316.56 L383.01 319.87 L382.94 323.66 L382.09 326.16 L380.58 327.68 L378.96 329.03 L378.84 332.42 L377.81 334.51 L377.51 337.53 L373.56 335.73 L368.24 332.32 L364.83 331.48 L361.56 330.89 L358.00 330.04 L356.03 331.15 L352.81 330.82 L347.88 328.65 L348.06 332.26 L345.68 333.02 L344.37 334.94 L346.25 340.17 L346.30 343.39 L350.41 350.59 L352.31 355.41 L351.53 357.53 L349.23 358.19 L345.60 357.66 L342.42 357.62 L340.94 359.14 L340.43 361.51 L337.76 362.02 L337.63 364.68 L337.21 367.07 L337.26 369.80 L337.77 372.85 L340.02 377.17 L341.30 380.66 L341.90 383.56 L335.65 381.48 L330.26 380.15 L325.72 379.54 L322.90 380.19 L324.61 383.89 L327.22 388.09 L326.59 390.12 L327.73 393.24 L327.15 395.26 L327.07 397.57 L327.12 399.91 L326.12 401.64 L327.51 404.69 L325.48 405.84 L322.28 406.39 L317.78 406.34 L312.07 405.77 L309.48 406.84 L307.03 408.03 L305.61 409.72 L304.44 411.55 L301.68 412.67 L302.21 415.26 L302.67 417.78 L304.16 420.69 L310.96 425.64 L314.23 429.06 L316.93 432.18 L311.81 432.42 L304.10 431.85 L297.64 431.87 L294.98 433.25 L296.90 436.11 L298.89 438.94 L299.93 441.43 L300.27 443.69 L300.14 445.81 L301.38 448.27 L303.19 450.84 L303.24 452.94 L309.11 456.35 L310.04 458.56 L313.41 461.25 L312.42 463.00 L310.03 464.49 L308.62 466.21 L309.20 468.27 L310.48 470.43 L311.24 472.48 L310.32 474.28 L310.49 476.23 L310.89 478.20 L311.93 480.22 L313.62 482.28 L317.17 484.46 L318.26 486.38 L318.95 488.26 L311.79 489.68 L308.26 491.41 L305.72 493.24 L303.92 495.14 L307.09 497.15 L308.95 499.09 L308.84 501.00 L309.07 502.91 L310.74 504.77 L309.75 506.70 L309.79 508.61 L312.94 510.34 L314.59 512.11 L317.73 513.74 L320.45 515.34 L317.40 517.44 L315.22 519.52 L310.87 521.89 L308.91 524.05 L310.18 525.82 L312.08 527.48 L314.68 529.00 L317.23 530.48 L319.13 532.02 L317.45 534.20 L316.20 536.34 L314.85 538.54 L318.92 539.59 L322.51 540.67 L329.45 540.87 L329.24 542.73 L325.60 545.50 L322.97 548.08 L323.10 549.95 L324.87 551.35 L328.91 552.03 L331.38 553.13 L333.30 554.36 L333.42 556.17 L331.12 558.83 L330.05 561.12 L331.33 562.57 L332.95 563.88 L334.10 565.35 L328.84 569.40 L323.39 573.68 L319.00 577.64 L318.14 580.17 L322.02 580.60 L326.64 580.60 L331.43 580.44 L333.57 581.47 L336.55 582.05 L335.42 584.68 L336.00 586.47 L338.54 587.21 L343.44 586.60 L347.61 586.29 L348.08 588.04 L345.45 591.64 L341.14 596.36 L339.68 599.45 L341.95 600.24 L343.90 601.21 L345.51 602.37 L346.00 604.28 L345.94 606.58 L348.06 607.38 L350.59 607.85 L356.20 606.00 L362.61 603.41 L367.49 601.83 L370.94 601.25 L369.94 604.15 L369.08 607.01 L368.45 609.74 L370.52 610.22 L372.71 610.57 L374.84 610.93 L376.45 611.73 L377.37 613.16 L378.59 614.29 L380.21 615.05 L382.11 615.51 L385.69 614.27 L387.99 614.23 L390.11 614.33 L389.23 617.58 L387.59 621.74 L387.86 623.91 L388.19 626.06 L388.73 628.01 L388.16 631.29 L388.09 634.07 L385.51 639.98 L388.54 639.09 L391.14 638.66 L394.26 637.49 L397.76 635.73 L397.30 639.22 L396.02 643.94 L397.15 645.42 L398.84 646.11 L402.43 643.98 L406.11 641.57 L408.48 641.05 L410.83 640.48 L413.63 639.13 L416.19 638.07 L417.24 639.45 L418.25 640.96 L419.18 642.61 L418.63 646.99 L420.58 646.92 L421.47 648.80 L424.44 646.72 L425.21 648.86 L428.85 645.21 L430.26 646.01 L432.62 644.78 L435.40 642.52 L436.87 643.06 L438.66 642.86 L440.63 642.19 L442.19 642.42 L443.36 643.65 L442.00 651.52 L441.19 658.36 L440.91 664.12 L441.60 667.44 L443.75 666.61 L446.47 663.96 L447.88 665.21 L449.47 665.95 L451.03 666.78 L451.86 670.24 L454.21 668.35 L455.76 669.31 L457.82 668.29 L459.84 667.30 L461.67 667.01 L463.93 664.74 L465.91 663.48 L468.29 660.08 L470.26 658.41 L472.14 657.06 L473.93 656.01 L475.42 656.72 L477.21 655.47 L478.76 655.71 L480.53 654.23 L482.19 653.45 L483.93 651.62 L485.54 650.87 L487.17 649.61 L488.68 649.53 L490.12 650.44 L491.69 649.39 L493.13 650.65 L494.68 649.36 L496.20 648.50 L497.70 647.87 L499.18 646.80 L500.65 646.48 L502.13 647.38 L503.60 647.51 L505.05 646.54 L506.51 646.53 L507.94 645.73 L509.27 643.69 L510.76 644.27 L512.07 642.68 L513.44 641.92 L514.89 642.07 L516.20 640.96 L517.55 640.34 L518.90 639.73 L520.10 638.18 L521.42 637.63 L522.70 636.82 L523.90 635.65 L525.31 635.68 L526.56 634.88 L527.89 634.53 L529.06 633.43 L530.23 632.45 L531.25 630.84 L532.48 630.22 L533.72 629.68 L535.05 629.45 L536.34 629.09 L537.52 628.35 L538.63 627.40 L539.73 626.46 L541.05 626.21 L541.93 624.68 L543.56 625.35 L544.40 623.78 L545.53 623.05 L546.89 622.92 L547.68 621.34 L548.98 621.07 L550.26 620.75 L550.82 618.74 L552.25 618.76 L552.93 617.13 L553.92 616.20 L554.96 615.41 L555.94 614.51 L556.77 613.31 L557.62 612.20 L558.31 610.81 L559.01 609.46 L559.97 608.62 L561.07 608.06 L561.97 607.14 L563.04 606.52 L563.94 605.61 L564.88 604.77 L565.82 603.96 L566.45 602.67 L567.17 601.54 L567.75 600.22 L568.47 599.14 L569.48 598.48 L570.42 597.72 L571.43 597.06 L572.38 596.32 L573.46 595.75 L573.87 594.32 L575.09 593.93 L575.60 592.64 L576.29 591.60 L577.24 590.88 L577.78 589.68 L578.22 588.40 L578.95 587.44 L579.01 585.77 L579.71 584.81 L580.47 583.92 L581.21 583.01 L581.85 582.01 L582.71 581.23 L582.77 579.67 L583.28 578.58 L583.79 577.49 L584.04 576.18 L584.71 575.25 L585.20 574.18 L585.60 573.04 L586.45 572.28 L586.84 571.14 L587.41 570.16 L587.90 569.12 L587.95 567.75 L588.40 566.70 L588.93 565.72 L589.68 564.89 L590.12 563.84 L590.87 563.02 L591.17 561.89 L591.35 560.68 L591.98 559.79 L591.76 558.35 L592.37 557.45 L592.62 556.33 L592.80 555.17 L593.41 554.28 L593.71 553.20 L593.87 552.06 L594.33 551.09 L594.40 549.91 L594.53 548.78 L594.56 547.60 L594.89 546.58 L594.67 545.31 L595.15 544.37 L595.42 543.34 L595.45 542.21 L595.83 541.24 L595.69 540.05 L595.58 538.88 L595.71 537.82 L595.70 536.72 L595.91 535.70 L596.14 534.70 L596.16 533.62 L596.28 532.59 L596.46 531.58 L596.47 530.52 L596.62 529.50 L596.75 528.49 L596.61 527.40 L596.87 526.43 L596.74 525.36 L596.90 524.37 L596.94 523.35 L596.90 522.32 L596.70 521.26 L596.64 520.23 L596.42 519.18 L596.21 518.14 L596.39 517.18 L596.22 516.16 L596.01 515.14 L596.01 514.15 L595.71 513.13 L595.39 512.12 L595.52 511.17 L595.06 510.15 L595.04 509.19 L594.74 508.20 L594.41 507.22 L594.24 506.26 L593.83 505.29 L593.60 504.34 L593.25 503.39 L593.04 502.45 L592.84 501.52 L592.85 500.59 Z"/>
  <svg class="pausebutton" id="pausebutton">
    <circle cx="500" cy="500" id="pausestart" class="pausestart" r="52.65"/>
    <rect height="50.02" width="10.00" y="473.68" rx="2.00" ry="2.00" x="479.99" class="pausesymbol"/>
    <rect height="50.02" width="10.00" y="473.68" rx="2.00" ry="2.00" x="510.00" class="pausesymbol"/>
    <polygon points="530.01,500 479.99,530.01 479.99,469.99" class="playsymbol"/>
  </svg>
  <polygon id="playback-head" class="playback-head" points="912.475,500 892.475,540 932.475,540"/>
</svg>