<?xml-stylesheet href="../../style/waveformjs.css" type="text/css"?>
<svg xmlns="http://www.w3.org/2000/svg" xmlns:xlink="http://www.w3.org/1999/xlink" width="100%" height="100%" viewBox="0 0 1000 1000">
  <path class="svg-wave" id="sp" d="M597.48 500.00 L597.58 500.98 L597.78 501.96 L597.88 502.94 L598.01 503.92 L598.20 504.91 L598.26 505.90 L598.39 506.90 L598.47 507.89 L598.50 508.89 L598.66 509.90 L598.67 510.90 L598.72 511.90 L598.79 512.92 L598.76 513.92 L598.85 514.94 L598.84 515.95 L598.76 516.95 L598.81 517.98 L598.74 518.99 L598.75 520.02 L598.75 521.05 L598.55 522.04 L598.54 523.07 L598.43 524.09 L598.32 525.11 L598.29 526.15 L598.02 527.13 L597.88 528.14 L597.70 529.15 L597.24 530.08 L596.93 531.05 L596.71 532.05 L596.23 532.96 L595.08 533.63 L594.75 534.59 L595.12 535.80 L594.43 536.63 L594.35 537.68 L594.91 539.01 L594.68 540.03 L593.97 540.84 L593.19 541.61 L592.45 542.40 L591.58 543.11 L590.56 543.75 L590.23 544.70 L590.25 545.84 L589.82 546.76 L589.99 548.00 L589.89 549.11 L589.06 549.82 L588.11 550.45 L586.46 550.66 L585.21 551.08 L583.56 551.23 L582.38 551.65 L581.89 552.49 L581.26 553.24 L579.54 553.26 L580.34 554.96 L580.65 556.37 L579.45 556.72 L580.09 558.39 L582.52 561.44 L581.82 562.20 L581.62 563.34 L582.27 565.18 L581.17 565.64 L579.88 565.93 L579.06 566.59 L578.39 567.38 L577.66 568.11 L577.87 569.69 L577.83 571.07 L577.48 572.18 L577.64 573.79 L576.84 574.51 L575.97 575.15 L574.93 575.63 L573.56 575.74 L572.52 576.18 L571.01 576.10 L570.49 577.07 L570.06 578.16 L569.01 578.56 L569.17 580.35 L568.88 581.64 L568.04 582.31 L567.92 583.86 L566.75 584.11 L565.66 584.46 L564.75 585.03 L563.10 584.62 L562.29 585.29 L560.71 584.90 L559.29 584.68 L559.12 586.26 L558.16 586.72 L557.45 587.53 L557.04 588.83 L555.92 589.04 L555.10 589.72 L553.89 589.74 L552.11 588.77 L550.96 588.84 L549.41 588.17 L548.40 588.43 L547.57 589.00 L546.53 589.21 L545.77 589.93 L544.97 590.58 L544.24 591.41 L543.58 592.37 L542.60 592.68 L542.89 595.84 L543.74 600.41 L543.00 601.48 L543.57 605.77 L544.10 610.16 L542.94 610.44 L541.70 610.52 L540.57 610.86 L539.45 611.23 L538.17 611.14 L537.03 611.43 L536.05 612.24 L534.92 612.56 L533.74 612.74 L532.57 612.91 L531.39 613.08 L530.19 613.14 L528.92 612.90 L527.74 612.97 L526.72 613.72 L525.56 613.89 L524.48 614.41 L523.50 615.46 L522.39 615.94 L521.22 616.06 L520.04 616.20 L518.85 616.21 L517.66 616.20 L516.42 615.88 L515.23 615.81 L514.05 615.76 L512.86 615.56 L511.77 616.37 L510.61 616.52 L509.41 616.22 L508.23 616.10 L507.08 616.33 L505.90 616.04 L504.70 615.05 L503.53 614.60 L502.37 613.72 L501.22 613.29 L500.09 612.15 L498.97 611.71 L497.86 611.48 L496.76 611.08 L495.66 610.54 L494.58 610.01 L493.45 610.58 L492.35 610.38 L491.30 609.60 L490.07 611.08 L488.64 614.14 L487.41 614.83 L486.32 614.26 L484.75 617.34 L483.34 618.94 L482.13 618.88 L480.97 618.53 L479.60 619.40 L478.35 619.53 L477.10 619.59 L475.82 619.78 L474.64 619.47 L473.44 619.22 L472.08 619.65 L470.84 619.59 L469.82 618.58 L468.85 617.47 L467.71 617.03 L467.00 615.09 L465.77 615.04 L464.15 616.24 L463.05 615.66 L461.99 615.01 L461.09 613.89 L460.24 612.69 L459.48 611.29 L459.06 609.02 L458.62 606.93 L457.57 606.47 L456.15 606.92 L454.76 607.24 L452.81 608.81 L451.15 609.63 L449.69 609.93 L448.91 608.75 L447.90 608.08 L446.69 607.82 L446.51 605.51 L445.51 604.87 L444.63 604.01 L443.90 602.88 L442.74 602.56 L442.33 600.91 L441.16 600.60 L439.97 600.33 L439.41 599.00 L437.76 599.44 L436.82 598.75 L436.45 597.17 L435.23 596.91 L434.13 596.45 L430.72 599.29 L427.67 601.49 L426.90 600.42 L421.90 605.07 L418.27 607.69 L417.37 606.64 L415.82 606.42 L414.41 606.01 L413.39 605.11 L412.46 604.10 L411.55 603.07 L410.68 602.01 L410.13 600.59 L409.31 599.48 L408.40 598.48 L407.43 597.55 L406.19 596.90 L404.74 596.44 L403.63 595.64 L402.29 595.05 L401.09 594.31 L400.21 593.26 L399.45 592.10 L398.77 590.88 L398.40 589.39 L398.68 587.36 L399.13 585.24 L399.16 583.50 L398.46 582.38 L395.53 583.04 L394.88 581.86 L393.04 581.58 L389.18 582.78 L388.45 581.61 L388.39 579.95 L388.39 578.27 L387.96 576.91 L388.37 575.00 L388.43 573.35 L387.74 572.21 L387.62 570.71 L387.11 569.46 L386.64 568.20 L386.00 567.04 L385.28 565.93 L384.33 564.94 L384.09 563.56 L383.33 562.47 L381.83 561.76 L382.85 559.74 L383.06 558.17 L380.74 557.84 L378.33 557.51 L377.74 556.31 L374.58 556.25 L370.56 556.50 L370.69 554.91 L370.88 553.31 L370.72 551.88 L370.13 550.61 L369.69 549.29 L370.37 547.55 L370.80 545.94 L369.36 544.98 L368.29 543.88 L368.62 542.32 L367.66 541.17 L366.56 540.05 L366.56 538.60 L365.38 537.49 L365.21 536.09 L365.58 534.55 L366.29 532.95 L366.73 531.43 L366.16 530.15 L366.33 528.71 L367.07 527.17 L366.29 525.94 L365.64 524.67 L365.68 523.28 L364.02 522.17 L363.59 520.84 L363.21 519.50 L362.75 518.17 L362.52 516.80 L362.40 515.42 L363.96 513.87 L364.09 512.48 L364.21 511.10 L365.60 509.64 L364.08 508.38 L363.97 507.02 L365.65 505.59 L364.64 504.28 L364.55 502.93 L364.56 501.57 L364.69 500.22 L365.75 498.87 L364.99 497.51 L365.63 496.18 L366.50 494.87 L366.69 493.54 L366.54 492.20 L362.43 490.57 L360.12 489.01 L358.73 487.48 L353.34 485.52 L354.29 484.14 L355.09 482.76 L355.58 481.35 L355.46 479.87 L354.24 478.21 L352.96 476.51 L351.75 474.80 L351.72 473.26 L350.61 471.52 L351.70 470.18 L351.11 468.51 L352.40 467.24 L352.33 465.67 L351.73 463.97 L352.84 462.67 L353.33 461.23 L352.92 459.55 L354.49 458.41 L353.51 456.54 L354.56 455.26 L355.70 454.03 L356.22 452.61 L358.16 451.67 L359.64 450.60 L360.38 449.29 L360.26 447.65 L361.48 446.53 L360.81 444.66 L360.06 442.74 L361.09 441.53 L362.22 440.38 L363.37 439.25 L363.15 437.50 L364.55 436.49 L365.36 435.22 L366.23 433.99 L367.37 432.90 L368.98 432.06 L369.99 430.92 L370.92 429.75 L372.72 429.07 L373.08 427.60 L375.03 427.05 L376.31 426.12 L376.60 424.61 L378.18 423.89 L378.22 422.22 L374.71 418.20 L373.50 415.59 L374.69 414.57 L373.65 411.99 L372.60 409.35 L374.40 408.73 L376.57 408.41 L377.01 406.81 L376.82 404.72 L378.51 404.07 L378.16 401.80 L377.36 399.11 L378.81 398.25 L379.92 397.12 L380.06 395.14 L381.34 394.15 L383.34 393.82 L385.15 393.35 L386.37 392.34 L387.32 391.09 L387.83 389.38 L389.37 388.70 L391.14 388.27 L390.86 385.72 L393.22 385.92 L394.61 385.13 L395.75 384.07 L397.96 384.22 L399.42 383.54 L400.32 382.23 L402.23 382.12 L403.05 380.69 L403.52 378.81 L405.07 378.29 L406.84 378.06 L407.76 376.73 L407.69 374.03 L409.46 373.82 L410.78 372.99 L411.08 370.70 L412.78 370.41 L414.69 370.46 L416.17 369.90 L418.40 370.53 L419.48 369.37 L421.55 369.83 L422.71 368.81 L423.60 367.30 L425.06 366.77 L426.29 365.84 L426.99 363.91 L426.71 360.03 L426.20 355.57 L428.50 356.55 L428.66 353.21 L428.32 348.69 L430.43 349.26 L432.18 349.10 L433.76 348.58 L434.67 346.50 L435.97 345.29 L436.95 343.23 L437.68 340.47 L439.15 339.49 L440.63 338.56 L442.31 338.16 L444.21 338.40 L446.22 338.99 L447.80 338.39 L449.27 337.37 L451.15 337.72 L452.62 336.71 L454.06 335.52 L455.96 336.04 L456.92 332.94 L458.73 333.08 L460.56 333.35 L462.25 333.08 L464.39 334.89 L466.16 335.07 L467.73 334.33 L469.34 333.75 L470.84 332.53 L472.07 329.54 L473.70 328.77 L475.30 327.73 L477.13 328.24 L478.68 326.67 L480.58 327.93 L482.34 328.08 L483.94 326.63 L485.87 328.93 L487.61 329.09 L489.36 329.73 L491.15 331.29 L492.84 331.28 L494.55 331.77 L496.23 331.86 L497.91 331.31 L499.60 330.48 L501.30 329.49 L502.98 330.72 L504.69 330.07 L506.47 327.98 L508.16 328.82 L509.81 329.88 L511.66 327.77 L513.30 328.95 L514.85 330.90 L516.61 330.33 L518.45 329.23 L520.25 328.62 L522.04 328.25 L524.08 326.09 L525.82 326.33 L527.69 325.77 L529.56 325.27 L531.08 326.84 L532.54 328.59 L534.12 329.59 L535.41 331.88 L537.10 332.19 L538.89 332.09 L540.52 332.67 L542.43 332.15 L544.73 330.22 L546.54 330.26 L548.08 331.28 L549.81 331.61 L551.51 332.07 L552.96 333.30 L554.49 334.23 L555.90 335.52 L557.39 336.53 L559.28 336.40 L560.72 337.50 L562.54 337.60 L564.26 338.00 L565.45 339.69 L567.42 339.46 L568.63 341.05 L570.37 341.42 L572.34 341.26 L572.90 344.19 L574.44 344.95 L576.04 345.60 L577.09 347.34 L578.24 348.83 L579.74 349.64 L581.36 350.23 L583.27 350.29 L585.16 350.44 L586.66 351.29 L588.42 351.69 L589.62 353.04 L588.47 358.13 L588.95 360.50 L592.95 357.39 L592.92 360.50 L592.10 364.68 L595.45 362.74 L596.81 363.71 L599.16 363.32 L599.68 365.45 L600.66 366.93 L602.25 367.60 L604.64 367.27 L610.73 362.40 L610.19 365.83 L613.74 364.30 L619.73 360.02 L616.70 366.30 L615.41 370.42 L617.59 370.60 L620.08 370.48 L620.98 372.10 L626.16 369.27 L627.04 370.96 L623.67 376.87 L623.23 379.74 L624.51 380.90 L619.10 388.33 L621.18 388.64 L630.44 382.51 L629.75 385.46 L628.03 389.24 L632.56 387.62 L634.44 388.32 L638.47 387.29 L635.33 392.08 L634.46 394.95 L638.84 393.75 L640.08 395.01 L642.84 395.15 L642.05 397.90 L647.61 396.13 L650.50 396.33 L647.17 400.78 L646.39 403.42 L649.23 403.68 L648.47 406.26 L650.06 407.34 L656.82 405.32 L653.08 409.65 L650.86 412.98 L651.29 414.74 L649.38 417.77 L645.43 421.83 L650.21 421.19 L654.40 420.95 L651.79 424.19 L652.42 425.77 L655.22 426.32 L658.43 426.73 L659.83 428.01 L658.67 430.44 L661.62 431.06 L662.01 432.80 L666.94 432.71 L665.18 435.33 L666.65 436.67 L676.90 434.79 L672.62 438.32 L669.08 441.48 L669.66 443.18 L672.52 444.13 L671.73 446.28 L674.73 447.25 L678.04 448.19 L674.47 451.12 L672.99 453.39 L673.87 455.01 L667.44 458.46 L665.84 460.61 L674.18 460.47 L674.93 462.13 L672.06 464.55 L673.24 466.11 L675.29 467.52 L678.57 468.76 L676.55 470.93 L674.01 473.13 L678.26 474.30 L677.47 476.22 L682.12 477.45 L677.94 479.77 L679.96 481.36 L687.02 482.52 L681.24 484.89 L678.41 486.92 L679.22 488.66 L679.53 490.44 L679.45 492.25 L683.53 493.91 L683.68 495.74 L680.52 497.62 L681.60 499.42 L683.59 501.25 L675.08 502.94 L677.49 504.76 L690.62 507.02 L684.83 508.66 L682.11 510.36 L687.66 512.56 L689.15 514.56 L691.30 516.65 L687.59 518.22 L687.42 520.10 L689.04 522.18 L690.20 524.25 L691.92 526.42 L690.48 528.17 L696.91 531.13 L697.68 533.29 L690.67 534.07 L688.49 535.63 L691.99 538.28 L689.21 539.70 L690.22 541.90 L698.41 545.79 L690.93 546.08 L686.09 546.89 L685.06 548.60 L681.10 549.50 L674.03 549.44 L679.63 552.98 L688.85 557.76 L681.90 557.63 L679.35 558.80 L684.62 562.58 L683.82 564.37 L683.83 566.44 L678.14 566.41 L677.82 568.32 L679.42 571.00 L680.84 573.66 L678.26 574.70 L678.21 576.78 L683.65 581.31 L680.02 581.87 L675.63 582.00 L673.31 583.04 L675.29 586.15 L672.86 587.11 L673.46 589.60 L676.80 593.58 L671.23 592.84 L667.83 593.18 L668.45 595.74 L661.59 593.99 L659.24 594.77 L668.01 602.27 L664.83 602.61 L660.54 602.18 L663.32 606.26 L662.48 608.04 L663.83 611.32 L661.84 612.35 L659.46 613.07 L658.91 615.09 L658.08 616.91 L661.09 621.65 L658.39 622.12 L659.42 625.48 L661.78 629.98 L657.08 628.81 L653.59 628.53 L652.86 630.54 L652.16 632.60 L649.78 633.18 L651.68 637.61 L649.97 638.83 L644.08 636.07 L640.58 635.45 L640.30 637.91 L633.78 634.16 L634.16 637.26 L639.71 645.82 L636.76 645.64 L633.28 644.80 L633.97 648.50 L632.91 650.33 L632.61 653.05 L628.45 651.28 L625.12 650.38 L625.55 653.99 L624.62 656.02 L623.10 657.31 L621.08 657.97 L621.77 662.19 L621.00 664.58 L617.47 663.17 L615.20 663.43 L614.65 666.15 L612.52 666.61 L611.27 668.36 L611.91 673.08 L608.54 671.61 L605.28 670.20 L602.28 669.09 L599.99 669.11 L596.96 667.79 L597.90 673.40 L598.05 677.80 L594.37 675.24 L593.69 678.22 L592.19 679.70 L591.16 682.18 L589.57 683.56 L587.35 683.65 L585.93 685.42 L584.76 687.79 L585.60 694.82 L582.82 693.74 L581.70 696.53 L583.23 706.01 L579.07 701.47 L575.28 697.60 L573.54 699.00 L573.01 703.82 L570.06 701.91 L569.16 705.96 L568.62 711.33 L564.21 704.69 L561.14 701.96 L559.24 702.95 L555.01 695.72 L552.69 694.94 L553.47 705.99 L551.76 707.91 L548.40 703.07 L546.55 704.32 L545.22 708.09 L543.74 711.46 L540.69 707.12 L538.21 705.34 L536.88 709.84 L534.64 709.36 L533.38 715.06 L530.59 710.99 L528.88 714.30 L527.51 720.79 L524.57 714.67 L522.12 712.00 L520.18 714.04 L518.11 715.09 L515.87 714.13 L514.07 719.65 L511.86 719.44 L509.41 713.81 L507.21 712.20 L505.08 711.91 L502.84 703.39 L500.82 705.99 L498.70 716.73 L496.61 711.90 L494.55 709.39 L492.28 714.18 L490.06 715.84 L487.79 717.79 L485.92 712.99 L483.73 713.68 L481.45 715.08 L479.24 715.49 L476.98 716.29 L474.82 716.02 L471.90 721.81 L469.59 722.16 L468.15 716.55 L466.11 715.47 L463.35 718.73 L461.50 716.46 L459.06 717.52 L455.51 724.03 L454.26 718.89 L452.89 714.70 L450.89 713.57 L449.57 709.67 L448.89 703.54 L445.54 708.04 L441.71 713.93 L440.85 708.83 L439.28 706.47 L436.30 708.88 L433.93 709.12 L431.94 708.14 L431.15 703.65 L428.80 703.84 L426.08 705.04 L422.93 707.24 L421.55 704.68 L419.30 704.40 L414.22 711.06 L414.09 705.47 L413.55 701.08 L411.32 700.72 L408.54 701.53 L406.94 699.72 L403.74 701.32 L400.36 703.14 L399.99 698.84 L398.48 696.91 L395.99 696.87 L397.57 689.29 L395.77 688.09 L388.59 696.39 L387.86 693.16 L387.28 689.75 L384.20 690.57 L382.75 688.69 L377.98 692.05 L378.15 687.61 L377.17 685.04 L373.20 686.93 L370.76 686.50 L365.54 689.94 L365.01 686.70 L361.42 687.68 L355.73 691.36 L357.97 684.51 L358.14 680.53 L355.20 680.52 L353.16 679.37 L351.87 677.29 L345.88 680.76 L344.99 678.16 L347.27 672.04 L346.77 669.16 L345.17 667.53 L349.02 660.12 L345.98 660.11 L336.35 666.75 L337.60 662.20 L338.19 658.40 L332.50 660.73 L331.22 658.75 L326.55 659.90 L330.08 653.54 L329.75 650.77 L324.35 652.44 L322.59 650.88 L319.39 650.52 L319.62 647.30 L313.80 648.97 L310.86 648.25 L315.06 641.99 L315.26 638.92 L310.81 639.33 L311.89 635.66 L309.04 634.83 L301.23 637.38 L305.10 631.85 L306.64 628.01 L305.94 625.70 L307.32 622.09 L310.25 617.59 L304.37 618.54 L298.20 619.54 L300.74 615.36 L299.57 613.37 L296.19 612.61 L293.30 611.53 L292.58 609.25 L294.24 605.76 L291.71 604.44 L289.33 603.01 L282.00 603.91 L282.98 600.79 L281.10 599.01 L272.26 600.28 L275.75 596.08 L279.58 591.84 L279.64 589.24 L275.01 588.50 L277.19 585.09 L273.76 583.81 L268.22 583.24 L274.16 578.56 L276.17 575.36 L273.43 573.77 L280.45 569.07 L280.76 566.57 L270.15 567.29 L268.45 565.28 L272.31 561.74 L270.93 559.66 L268.57 557.81 L266.69 555.80 L269.32 552.74 L271.02 549.95 L267.59 548.27 L266.72 546.02 L261.39 544.60 L262.92 541.86 L261.13 539.72 L256.01 538.07 L259.80 535.02 L262.87 532.16 L261.82 529.87 L261.40 527.51 L261.64 525.07 L257.54 523.05 L257.37 520.62 L260.95 517.91 L262.55 515.40 L262.28 513.03 L269.15 510.34 L265.58 508.16 L258.57 505.98 L262.70 503.51 L263.41 501.13 L260.26 498.75 L259.79 496.34 L256.94 493.87 L258.97 491.51 L260.28 489.15 L258.28 486.64 L253.25 483.88 L251.48 481.27 L251.54 478.77 L244.85 475.63 L245.15 473.08 L251.81 471.28 L253.93 469.02 L249.75 465.95 L252.87 463.86 L251.64 461.14 L243.32 457.20 L251.24 455.96 L255.92 454.27 L257.00 451.95 L261.91 450.44 L268.13 449.31 L261.91 445.45 L253.73 440.98 L261.03 440.20 L262.98 438.16 L258.56 434.42 L258.89 431.91 L259.42 429.46 L264.73 428.45 L263.69 425.55 L262.86 422.67 L259.92 419.05 L263.50 417.61 L263.44 414.93 L255.79 409.41 L261.59 408.84 L266.34 407.97 L267.75 405.83 L265.33 402.10 L269.14 400.97 L267.37 397.44 L264.45 393.33 L271.96 393.97 L275.23 392.74 L275.33 390.02 L283.90 391.52 L285.90 389.83 L276.33 382.07 L280.12 381.24 L283.96 380.51 L281.81 376.45 L281.71 373.50 L279.20 369.07 L284.59 369.35 L286.71 367.69 L285.65 364.05 L287.20 362.03 L284.85 357.43 L289.18 357.24 L287.12 352.72 L284.32 347.58 L291.40 349.43 L295.14 348.99 L295.14 345.80 L296.49 343.61 L297.95 341.49 L294.55 335.48 L297.48 334.47 L302.93 335.61 L305.93 334.80 L307.75 333.00 L315.73 336.67 L315.81 333.42 L309.69 324.40 L314.11 325.00 L317.70 324.92 L316.50 320.19 L318.74 318.80 L318.36 314.76 L324.59 317.50 L327.11 316.47 L326.40 311.99 L327.45 309.33 L328.78 306.96 L332.55 307.36 L330.28 300.77 L331.92 298.65 L338.06 302.01 L340.24 300.65 L340.37 296.67 L343.60 296.63 L344.17 293.13 L343.00 287.17 L347.22 288.49 L350.66 288.84 L352.71 287.26 L357.35 289.49 L361.88 291.72 L359.71 283.79 L359.83 279.16 L364.24 281.31 L365.90 279.09 L367.37 276.50 L367.63 271.77 L370.73 271.89 L374.59 273.45 L375.26 269.24 L377.41 267.69 L376.64 260.46 L380.33 261.82 L382.08 259.32 L379.92 248.58 L385.31 253.56 L389.63 256.50 L392.08 255.44 L392.97 250.74 L396.55 252.26 L397.77 248.12 L398.46 242.46 L403.85 248.82 L407.56 251.08 L409.65 249.05 L415.03 256.37 L418.03 257.20 L416.81 245.19 L419.28 244.12 L423.03 247.21 L425.22 245.31 L427.06 242.04 L428.36 236.63 L432.39 241.24 L435.79 243.79 L437.00 237.55 L439.86 237.91 L441.40 232.37 L445.04 236.45 L446.99 232.44 L448.57 226.04 L452.52 232.37 L455.72 235.01 L458.08 232.75 L460.73 232.16 L463.47 232.24 L465.34 225.41 L468.27 226.68 L471.59 231.92 L474.41 233.10 L477.12 233.30 L480.34 240.29 L482.77 237.62 L484.85 227.59 L487.81 232.82 L490.52 233.69 L493.09 229.78 L495.80 230.35 L498.48 227.21 L501.19 230.23 L503.89 230.58 L506.63 228.81 L509.45 225.51 L512.26 224.12 L514.97 225.26 L518.18 218.25 L520.97 218.76 L523.24 225.39 L525.90 226.50 L529.13 222.09 L531.51 225.81 L534.34 225.45 L538.23 217.35 L540.02 224.80 L541.94 230.54 L544.71 230.54 L546.64 235.33 L548.30 241.10 L552.37 234.03 L556.56 227.20 L558.35 232.07 L560.61 234.46 L564.28 230.84 L567.21 230.51 L569.76 231.77 L571.19 237.09 L573.92 237.43 L577.08 236.35 L580.57 234.30 L582.56 237.22 L585.38 237.48 L590.26 231.61 L591.88 235.58 L593.53 239.28 L595.99 240.60 L599.88 238.18 L601.69 241.22 L604.98 240.50 L608.97 238.21 L609.62 243.89 L611.14 247.36 L616.24 242.78 L619.23 243.02 L623.11 241.47 L631.59 230.64 L635.16 230.20 L637.77 231.73 L640.33 233.34 L643.11 234.53 L645.54 236.37 L648.05 238.05 L650.64 239.58 L652.98 241.53 L655.54 243.10 L658.03 244.79 L660.70 246.19 L663.27 247.74 L665.98 249.09 L668.50 250.73 L670.85 252.62 L673.65 253.87 L675.77 256.08 L677.74 258.48 L680.35 259.99 L682.99 261.49 L684.95 263.86 L687.05 266.04 L689.13 268.22 L690.85 270.83 L693.10 272.79 L696.35 273.59 L698.26 275.96 L701.25 277.11 L704.39 278.13 L706.25 280.57 L708.21 282.87 L710.04 285.30 L712.70 286.88 L714.09 289.74 L716.14 291.93 L718.92 293.43 L720.39 296.18 L721.94 298.82 L724.13 300.88 L725.74 303.46 L727.61 305.79 L729.87 307.81 L731.11 310.66 L733.20 312.82 L735.56 314.77 L736.95 317.47 L738.56 320.01 L742.46 320.84 L746.05 321.97 L747.91 324.37 L751.01 325.92 L755.21 326.76 L757.39 329.02 L758.86 331.74 L760.71 334.22 L762.74 336.60 L764.06 339.42 L765.79 341.99 L767.34 344.66 L769.25 347.13 L770.83 349.79 L772.83 352.23 L774.52 354.85 L775.46 357.86 L777.01 360.55 L778.39 363.33 L779.54 366.22 L780.62 369.13 L781.95 371.93 L782.45 375.09 L783.29 378.09 L783.51 381.34 L783.81 384.54 L785.02 387.36 L785.43 390.48 L786.07 393.51 L787.16 396.36 L787.40 399.51 L789.41 402.04 L792.38 404.28 L792.87 407.36 L795.12 409.88 L795.47 412.99 L796.69 415.85 L797.46 418.84 L796.85 422.18 L799.26 424.74 L799.90 427.76 L799.54 431.01 L801.31 433.77 L801.26 436.93 L801.77 439.97 L802.72 442.92 L802.95 446.01 L804.58 448.85 L804.98 451.92 L805.46 454.97 L805.50 458.08 L804.36 461.33 L800.67 464.85 L795.19 468.48 L795.35 471.45 L796.79 474.30 L793.58 477.54 L793.04 480.52 L795.82 483.31 L796.48 486.24 L798.83 489.13 L797.51 492.15 L796.09 495.15 L799.13 498.09 L804.79 501.11 L805.44 504.16 L805.90 507.23 L813.08 510.53 L811.67 513.61 L805.31 516.39 L803.88 519.36 L808.17 522.73 L805.12 525.58 L806.82 528.81 L814.51 532.71 L806.87 535.02 L802.51 537.59 L801.62 540.55 L796.13 542.83 L790.72 545.02 L798.07 549.21 L804.60 553.43 L797.80 555.31 L796.79 558.20 L800.37 562.02 L800.13 565.11 L798.72 567.94 L794.16 570.00 L795.47 573.44 L795.82 576.68 L799.75 580.91 L795.39 582.91 L796.13 586.32 L803.42 591.75 L796.96 593.04 L792.82 594.97 L791.47 597.77 L793.49 601.72 L789.15 603.47 L791.56 607.63 L793.71 611.77 L786.30 612.24 L783.29 614.34 L782.70 617.41 L774.33 617.16 L772.58 619.65 L782.08 627.20 L777.30 628.40 L773.88 630.16 L776.24 634.68 L775.70 637.84 L777.76 642.37 L772.18 642.96 L770.61 645.60 L771.71 649.72 L770.17 652.41 L772.53 657.36 L768.53 658.65 L770.99 663.78 L773.17 668.85 L765.63 667.88 L762.07 669.32 L762.70 673.48 L760.56 675.84 L758.63 678.32 L762.47 684.87 L758.16 685.72 L752.71 685.66 L749.52 687.19 L746.85 689.07 L739.03 686.91 L738.99 690.76 L743.18 698.11 L737.73 697.66 L734.79 699.22 L735.24 703.69 L732.75 705.63 L733.10 710.13 L727.75 709.48 L725.36 711.48 L725.48 715.88 L724.72 719.49 L723.02 722.24 L719.62 723.27 L721.46 729.68 L718.60 731.31 L712.31 729.20 L709.23 730.45 L708.54 734.36 L704.93 734.99 L704.40 739.18 L705.11 744.92 L700.42 744.24 L697.16 745.23 L695.07 747.66 L689.71 745.87 L684.96 744.74 L687.68 753.58 L686.64 757.51 L682.31 756.90 L680.01 759.11 L677.79 761.47 L677.49 766.72 L673.47 766.42 L669.39 765.92 L668.85 771.02 L666.28 772.94 L666.87 780.18 L662.72 779.53 L660.85 782.79 L662.34 792.17 L656.17 787.81 L651.18 785.38 L648.44 787.10 L647.11 791.65 L643.36 791.42 L642.11 796.33 L640.56 800.79 L634.64 795.79 L630.45 794.35 L627.82 796.38 L621.74 790.23 L618.59 790.84 L619.73 802.25 L616.58 803.11 L612.20 800.66 L609.90 803.74 L607.58 806.88 L605.80 811.76 L600.94 807.50 L597.02 805.87 L595.63 812.27 L592.25 812.38 L590.28 817.32 L586.14 814.72 L583.85 818.83 L581.90 824.57 L577.05 818.75 L573.14 816.42 L570.47 819.37 L567.17 819.56 L563.96 820.20 L562.03 827.54 L558.28 825.52 L554.31 821.84 L550.79 820.52 L547.51 820.48 L543.33 813.87 L540.60 817.53 L538.47 826.82 L534.61 821.68 L531.29 820.97 L528.39 824.91 L525.16 825.43 L522.08 828.26 L518.65 825.96 L515.39 825.96 L512.19 827.83 L509.02 832.02 L505.72 833.22 L502.38 831.90 L499.04 839.06 L495.67 837.72 L492.44 830.93 L489.17 829.70 L485.63 835.25 L482.45 831.85 L479.07 832.61 L475.21 839.78 L472.36 832.95 L469.43 828.39 L466.04 829.09 L463.24 824.36 L460.54 819.63 L456.36 826.56 L452.27 831.91 L449.72 826.45 L446.69 824.46 L442.70 828.22 L439.18 828.96 L436.00 827.78 L433.56 823.07 L430.15 823.20 L426.52 824.27 L422.49 826.84 L419.70 824.13 L416.43 823.47 L411.56 828.72 L409.25 824.34 L406.95 820.19 L403.91 818.71 L399.69 821.04 L397.10 818.13 L393.16 819.38 L388.97 821.17 L387.39 815.50 L385.46 811.06 L382.09 810.58 L381.37 803.30 L378.13 802.62 L371.45 810.23 L370.10 804.83 L367.12 803.37 L363.23 803.95 L360.13 802.70 L355.66 804.36 L353.24 801.63 L350.99 798.64 L346.77 799.55 L342.16 801.10 L337.12 803.30 L334.80 800.38 L329.77 802.31 L324.72 804.13 L324.90 796.92 L323.45 792.64 L318.94 793.46 L316.14 791.43 L313.24 789.57 L305.80 794.58 L305.20 789.16 L305.10 783.16 L303.38 779.63 L301.55 776.31 L303.64 767.72 L299.10 768.24 L289.51 775.26 L290.00 769.00 L289.17 764.58 L282.37 767.57 L280.51 764.40 L276.07 764.34 L277.30 757.62 L274.77 755.33 L269.95 755.60 L266.70 754.05 L263.50 752.42 L261.89 749.10 L254.60 751.65 L252.52 748.75 L254.23 742.14 L252.65 738.87 L246.78 739.69 L246.96 734.77 L243.36 733.38 L235.96 735.33 L238.64 728.29 L238.99 723.42 L236.99 720.62 L238.70 714.76 L239.88 709.47 L230.94 712.27 L227.13 710.89 L227.83 706.03 L224.04 704.59 L220.27 703.09 L215.04 702.56 L215.98 697.64 L215.27 693.94 L210.13 693.23 L210.13 689.07 L204.69 688.44 L205.30 683.93 L201.09 682.43 L192.94 683.21 L196.14 677.21 L196.58 672.91 L194.21 670.23 L190.31 668.37 L189.65 664.72 L184.74 663.31 L180.74 661.35 L184.07 655.72 L184.89 651.43 L183.01 648.45 L188.24 642.21 L187.44 638.82 L177.91 639.21 L177.62 635.52 L178.88 631.23 L176.67 628.38 L174.41 625.52 L170.02 623.44 L173.62 618.39 L174.05 614.55 L168.77 612.70 L168.81 609.00 L163.95 606.89 L166.16 602.53 L161.40 600.29 L156.31 598.07 L161.78 592.86 L161.97 589.19 L159.42 586.23 L159.63 582.56 L157.57 579.44 L151.48 577.19 L153.60 573.09 L154.74 569.26 L154.27 565.76 L154.45 562.15 L160.58 557.55 L155.47 554.88 L146.87 552.64 L150.91 548.47 L151.56 544.83 L148.09 541.71 L146.60 538.30 L144.95 534.89 L147.23 531.11 L145.86 527.67 L144.30 524.21 L139.57 520.92 L139.06 517.33 L138.69 513.72 L130.53 510.33 L132.75 506.60 L139.11 502.87 L139.63 499.27 L134.75 495.60 L137.90 492.02 L136.38 488.35 L128.95 484.39 L136.70 481.08 L141.11 477.71 L141.16 474.11 L146.95 470.97 L150.85 467.77 L143.23 463.47 L137.52 459.22 L143.26 456.25 L144.34 452.77 L140.89 448.65 L139.31 444.74 L141.48 441.39 L146.44 438.57 L144.45 434.55 L144.03 430.79 L140.04 426.27 L144.30 423.43 L143.61 419.54 L136.20 414.04 L143.26 411.93 L148.17 409.40 L149.57 406.01 L147.95 401.79 L151.33 398.97 L148.27 394.26 L146.77 389.94 L153.97 388.38 L156.86 385.51 L157.01 381.74 L165.07 380.75 L165.86 377.26 L157.54 370.30 L162.15 368.17 L165.23 365.50 L163.21 360.76 L165.79 357.89 L163.37 352.87 L167.71 350.79 L170.87 348.24 L169.75 343.70 L169.80 339.66 L166.29 333.81 L169.88 331.47 L168.38 326.50 L166.46 321.22 L174.03 321.06 L178.48 319.29 L178.49 315.05 L180.50 311.93 L182.77 308.97 L178.36 301.90 L183.24 300.51 L189.77 300.26 L192.79 297.83 L195.33 295.11 L203.66 296.37 L202.49 291.16 L196.48 282.38 L202.15 281.90 L206.80 280.77 L204.65 274.52 L207.69 272.18 L209.01 268.50 L215.22 268.75 L218.17 266.43 L218.33 261.77 L219.35 257.77 L220.63 253.97 L223.32 251.37 L222.72 245.78 L225.13 242.88 L231.21 243.49 L234.80 241.80 L235.18 236.96 L239.55 236.06 L242.14 233.41 L240.98 226.80 L246.42 227.13 L250.77 226.37 L250.41 220.40 L250.54 214.86 L252.19 210.97 L247.22 199.13 L247.01 192.70 L250.05 190.12 L253.05 187.49 L256.11 184.94 L259.37 182.64 L262.62 180.34 L265.92 178.12 L269.57 176.38 L273.26 174.73 L277.08 173.29 L280.88 171.85 L284.87 170.75 L288.59 169.27 L292.35 167.88 L295.46 165.45 L298.63 163.13 L302.51 161.98 L304.75 158.00 L307.94 155.65 L311.38 153.72 L314.23 150.68 L317.57 148.52 L320.48 145.50 L324.27 144.21 L327.87 142.52 L331.15 140.18 L335.19 139.45 L338.79 137.79 L342.64 136.72 L346.35 135.31 L349.94 133.64 L353.59 132.11 L357.24 130.57 L360.52 128.03 L363.93 125.80 L367.63 124.32 L370.97 121.78 L374.57 119.93 L378.58 119.33 L382.85 119.61 L386.79 118.91 L390.77 118.36 L394.72 117.76 L398.27 115.67 L401.74 113.18 L405.35 111.15 L408.95 108.94 L412.80 107.76 L416.73 106.91 L420.61 105.84 L424.64 105.54 L428.73 105.59 L432.74 105.24 L436.75 104.95 L440.81 105.03 L444.81 104.79 L448.71 103.84 L452.67 103.35 L456.65 103.03 L460.57 102.09 L464.50 101.11 L468.44 100.13 L472.49 100.52 L476.53 100.98 L480.51 100.64 L484.53 101.09 L488.53 101.43 L492.52 101.25 L496.50 100.45 L500.50 99.34 L504.51 98.50 L508.54 98.07 L512.57 97.67 L516.68 95.89 L520.71 96.11 L524.78 95.80 L528.90 95.06 L532.89 96.03 L536.92 96.50 L540.92 97.16 L544.88 98.17 L548.94 98.36 L553.05 98.11 L557.15 98.07 L561.31 97.74 L565.51 97.25 L569.48 98.24 L573.53 98.76 L577.47 99.84 L581.27 101.61 L585.20 102.68 L589.19 103.46 L593.20 104.15 L597.35 104.32 L601.50 104.55 L605.63 104.91 L609.50 106.26 L613.40 107.49 L617.26 108.83 L621.04 110.41 L624.99 111.48 L629.11 112.00 L633.26 112.53 L637.44 112.98 L641.40 114.12 L645.23 115.62 L649.08 117.05 L652.57 119.38 L656.18 121.39 L659.88 123.16 L663.65 124.74 L667.53 126.11 L671.35 127.60 L675.18 129.08 L678.71 131.21 L682.09 133.62 L685.72 135.50 L689.26 137.56 L692.46 140.24 L696.07 142.15 L700.38 142.80 L704.12 144.52 L707.99 146.02 L712.04 147.26 L716.26 148.26 L720.49 149.28 L723.99 151.49 L727.60 153.55 L731.59 155.04 L735.05 157.35 L738.43 159.76 L741.90 162.05 L745.64 163.98 L749.05 166.37 L752.32 168.94 L755.56 171.55 L758.66 174.34 L762.01 176.82 L765.16 179.54 L768.32 182.25 L771.88 184.49 L775.12 187.10 L778.48 189.59 L781.77 192.18 L785.15 194.67 L788.35 197.37 L791.70 199.92 L795.04 202.49 L797.98 205.48 L801.12 208.28 L804.30 211.04 L807.27 214.01 L810.20 217.02 L813.21 219.96 L816.14 222.98 L818.86 226.18 L821.61 229.36 L824.49 232.43 L827.43 235.46 L830.09 238.72 L832.54 242.15 L834.86 245.67 L837.09 249.26 L839.29 252.85 L841.36 256.53 L843.32 260.27 L845.55 263.82 L847.91 267.28 L850.40 270.65 L852.97 273.98 L855.51 277.33 L857.60 280.97 L860.49 284.13 L863.35 287.32 L865.06 291.19 L867.86 294.45 L871.29 297.38 L873.30 301.10 L875.95 304.49 L878.72 307.84 L880.80 311.54 L882.68 315.35 L884.88 319.02 L887.26 322.60 L888.86 326.55 L890.57 330.45 L892.62 334.21 L893.67 338.39 L894.85 342.50 L896.57 346.39 L898.09 350.36 L899.60 354.34 L901.52 358.17 L903.17 362.10 L904.80 366.05 L906.50 369.99 L908.18 373.93 L909.68 377.94 L911.24 381.94 L912.99 385.90 L914.24 390.00 L915.35 394.14 L916.72 398.22 L918.09 402.30 L919.03 406.49 L920.13 410.65 L921.08 414.84 L922.43 418.95 L923.29 423.17 L923.96 427.42 L924.90 431.62 L925.26 435.92 L925.37 440.25 L925.44 444.57 L925.91 448.84 L925.90 453.15 L925.83 457.47 L925.89 461.76 L925.59 466.07 L926.28 470.30 L927.09 474.53 L926.80 478.83 L928.13 483.06 L929.41 487.30 L929.62 491.60 L930.25 495.89 L954.59 500.00 L955.32 495.45 L955.29 490.89 L954.62 486.36 L954.54 481.81 L954.33 477.26 L952.93 472.79 L951.88 468.32 L950.89 463.85 L949.36 459.45 L947.57 455.09 L945.82 450.76 L945.37 446.30 L944.54 441.88 L943.73 437.47 L943.29 433.00 L943.13 428.49 L942.54 424.04 L942.15 419.54 L941.54 415.08 L940.97 410.61 L939.59 406.31 L938.78 401.88 L937.74 397.51 L936.33 393.22 L935.14 388.89 L933.92 384.57 L932.52 380.30 L930.80 376.12 L929.13 371.94 L926.93 367.94 L924.82 363.92 L922.72 359.91 L920.65 355.92 L918.47 351.97 L916.50 347.97 L914.83 343.86 L913.30 339.70 L911.82 335.51 L910.23 331.37 L908.53 327.28 L907.46 322.90 L906.13 318.64 L904.20 314.63 L902.95 310.30 L901.12 306.24 L899.21 302.21 L896.65 298.52 L894.81 294.46 L893.10 290.32 L890.58 286.63 L889.27 282.26 L887.24 278.28 L884.45 274.74 L882.08 270.97 L879.55 267.29 L875.76 264.42 L873.13 260.84 L870.29 257.40 L866.95 254.30 L864.02 250.96 L861.00 247.69 L858.16 244.31 L855.87 240.53 L853.30 236.95 L851.14 233.07 L848.91 229.21 L846.13 225.78 L843.22 222.45 L839.57 219.74 L836.98 216.17 L834.00 212.91 L830.77 209.89 L827.62 206.81 L824.81 203.42 L822.09 199.94 L818.58 197.21 L815.60 193.98 L812.49 190.86 L809.33 187.81 L805.91 185.03 L802.33 182.41 L798.58 180.00 L794.86 177.59 L791.00 175.36 L787.33 172.92 L783.56 170.63 L779.87 168.26 L776.72 165.27 L773.86 161.90 L770.47 159.16 L767.69 155.65 L764.57 152.55 L761.15 149.83 L757.46 147.48 L753.64 145.31 L749.83 143.15 L746.08 140.91 L742.34 138.68 L738.79 136.15 L734.79 134.34 L731.01 132.18 L727.33 129.87 L722.99 128.66 L719.44 126.16 L715.61 124.12 L711.66 122.31 L708.52 119.04 L704.96 116.47 L700.99 114.68 L697.05 112.84 L692.92 111.40 L688.68 110.19 L683.91 110.16 L679.45 109.54 L675.37 108.15 L671.18 107.00 L667.11 105.61 L663.23 103.80 L659.41 101.82 L655.27 100.61 L651.19 99.29 L647.21 97.71 L642.90 97.05 L638.58 96.47 L634.52 95.14 L630.39 94.07 L626.22 93.12 L622.13 91.92 L618.04 90.72 L614.07 89.10 L609.85 88.40 L605.54 88.02 L601.39 87.10 L597.20 86.36 L592.99 85.69 L588.87 84.67 L584.80 83.36 L580.61 82.64 L576.41 81.98 L572.25 81.11 L567.99 80.80 L563.66 81.02 L559.41 80.81 L555.21 80.34 L550.96 80.18 L546.75 79.80 L542.54 79.37 L538.33 79.03 L534.14 78.34 L529.89 78.49 L525.72 77.46 L521.54 76.27 L517.30 76.19 L513.13 73.82 L508.86 73.90 L504.59 74.89 L500.34 74.42 L496.09 75.29 L491.88 77.18 L487.63 76.39 L483.37 76.15 L479.17 77.00 L474.92 76.86 L470.67 76.80 L466.54 78.47 L462.40 79.65 L458.28 80.79 L454.22 82.49 L450.11 83.44 L445.98 84.21 L441.85 84.98 L437.65 85.23 L433.57 86.24 L429.33 86.31 L425.13 86.68 L421.27 88.87 L417.18 89.74 L412.97 90.06 L409.07 91.87 L405.12 93.32 L401.09 94.43 L397.11 95.72 L393.12 96.92 L388.96 97.53 L385.22 99.64 L381.36 101.26 L377.11 101.60 L373.33 103.49 L369.55 105.30 L365.66 106.78 L361.68 107.99 L357.74 109.30 L354.06 111.33 L350.51 113.68 L346.68 115.25 L342.89 116.92 L339.17 118.75 L335.31 120.24 L331.33 121.49 L327.35 122.76 L323.97 125.32 L320.06 126.74 L316.67 129.23 L313.42 131.97 L309.78 133.90 L306.33 136.20 L302.34 137.50 L298.88 139.77 L295.08 141.43 L290.61 141.98 L287.33 144.57 L283.94 146.97 L280.37 149.07 L277.64 152.49 L275.22 156.32 L272.85 160.15 L270.30 163.67 L267.66 167.01 L264.92 170.16 L261.99 173.02 L258.88 175.62 L255.85 178.31 L252.99 181.21 L249.91 183.81 L246.82 186.40 L243.90 189.20 L237.18 187.47 L226.33 181.09 L222.81 183.45 L217.72 184.06 L211.70 183.76 L210.28 188.51 L210.75 195.19 L204.16 194.42 L200.73 197.00 L199.74 202.02 L193.88 202.22 L192.66 206.95 L193.86 213.89 L190.55 216.54 L184.34 216.60 L183.21 221.26 L179.64 223.76 L175.74 226.00 L171.47 227.97 L169.19 231.62 L171.41 238.82 L167.11 240.79 L164.77 244.31 L158.56 244.94 L159.08 250.60 L159.81 256.31 L149.44 254.15 L145.13 256.39 L149.54 264.54 L147.59 268.31 L146.65 272.72 L149.67 279.58 L149.47 284.32 L141.35 284.24 L140.91 288.84 L139.28 292.70 L134.03 294.53 L135.00 299.84 L139.30 306.87 L133.37 308.39 L127.50 310.03 L129.70 315.80 L123.12 317.21 L121.02 320.84 L117.13 323.67 L114.74 327.22 L118.61 333.51 L112.37 335.38 L112.09 339.82 L107.77 342.61 L108.80 347.55 L111.91 353.21 L98.87 352.85 L98.98 357.43 L104.86 363.95 L101.68 367.30 L102.21 371.88 L106.91 377.72 L102.67 380.74 L97.70 383.62 L100.85 388.85 L96.46 391.96 L96.14 396.19 L100.03 401.45 L103.86 406.58 L95.72 408.92 L94.61 412.92 L97.67 417.78 L92.45 420.95 L91.89 425.06 L88.62 428.71 L93.35 433.71 L93.91 437.96 L90.50 441.63 L87.35 445.38 L87.62 449.61 L92.92 454.38 L87.24 457.92 L79.04 461.33 L84.99 466.06 L89.97 470.59 L88.47 474.62 L93.40 479.00 L99.93 483.35 L92.00 487.11 L90.65 491.16 L94.46 495.30 L89.78 499.35 L91.35 503.44 L97.69 507.41 L99.29 511.39 L92.18 515.67 L94.34 519.65 L94.43 523.72 L90.99 528.02 L91.53 532.09 L91.33 536.22 L94.39 540.04 L92.72 544.33 L90.17 548.75 L88.61 553.12 L89.31 557.21 L95.57 560.47 L89.79 565.53 L86.40 570.32 L96.09 572.84 L97.57 576.73 L97.75 580.87 L102.08 584.15 L105.13 587.64 L100.65 592.83 L102.06 596.71 L104.15 600.41 L102.75 605.00 L106.26 608.30 L114.18 610.28 L110.79 615.47 L109.29 620.18 L115.97 622.34 L113.55 627.38 L116.49 630.68 L114.04 635.84 L117.39 638.97 L123.45 641.05 L120.22 646.61 L121.20 650.60 L122.10 654.63 L127.14 656.94 L129.58 660.30 L123.14 667.58 L127.01 670.34 L136.39 670.47 L136.42 674.91 L141.28 677.02 L148.87 677.66 L147.88 682.60 L146.08 688.05 L150.87 690.01 L150.38 694.83 L152.02 698.50 L158.27 699.49 L165.86 699.57 L160.77 707.24 L161.78 711.30 L166.88 712.77 L163.37 719.78 L166.72 722.38 L165.84 727.83 L170.59 729.45 L174.71 731.44 L172.84 737.74 L175.68 740.67 L177.07 744.68 L183.70 744.67 L184.53 749.12 L181.24 756.93 L187.51 757.07 L192.98 757.77 L194.93 761.38 L200.24 762.07 L206.94 761.42 L205.28 768.25 L208.01 771.15 L213.25 771.68 L212.83 777.57 L217.10 778.97 L224.07 777.60 L226.39 780.83 L225.08 787.87 L230.49 787.91 L232.38 791.69 L234.17 795.62 L236.42 799.08 L239.39 801.74 L246.20 799.86 L247.75 804.15 L251.35 805.98 L251.61 811.98 L256.91 811.67 L262.95 810.29 L259.83 820.97 L261.80 825.07 L270.12 820.39 L273.88 821.89 L278.08 822.73 L284.51 820.18 L289.40 819.78 L288.40 828.39 L292.89 828.60 L296.49 830.16 L298.24 834.77 L303.94 832.79 L310.26 829.55 L311.57 834.98 L312.93 840.49 L317.74 839.74 L319.24 845.18 L322.23 847.91 L324.52 852.06 L328.14 853.62 L334.15 850.11 L335.55 856.33 L339.78 856.49 L342.25 860.59 L346.58 860.47 L352.16 857.23 L351.37 869.56 L355.26 870.54 L361.47 865.40 L364.70 867.93 L369.71 865.53 L374.56 863.39 L377.37 867.11 L380.32 870.57 L384.88 869.02 L387.76 872.87 L391.87 872.68 L396.97 868.86 L401.67 866.11 L403.56 873.96 L407.48 874.18 L411.73 872.99 L414.56 877.84 L418.22 879.26 L421.69 881.62 L426.44 877.62 L430.37 877.52 L433.95 879.33 L437.27 882.92 L441.36 881.79 L446.11 875.90 L449.00 882.97 L451.92 890.88 L456.50 885.38 L460.86 880.91 L464.53 882.87 L468.78 878.07 L472.93 873.28 L476.26 880.05 L480.02 880.96 L483.98 877.72 L487.61 882.51 L491.50 879.48 L495.39 872.30 L499.11 872.04 L502.88 878.85 L506.63 876.40 L510.45 878.48 L514.38 882.26 L518.23 882.69 L522.25 885.77 L525.72 879.80 L529.63 881.00 L533.51 881.56 L537.46 882.59 L541.16 881.02 L544.21 874.21 L549.16 883.18 L553.53 886.51 L556.21 878.06 L559.91 876.96 L563.73 876.68 L566.57 870.84 L569.92 868.29 L574.86 873.88 L578.08 870.65 L581.70 869.52 L585.83 870.54 L588.50 865.43 L590.73 858.91 L595.48 862.38 L599.92 864.42 L602.18 858.57 L607.02 861.80 L610.24 859.43 L615.13 862.38 L617.88 858.57 L619.77 852.41 L624.71 855.24 L628.50 854.66 L632.54 854.70 L634.41 849.02 L637.89 847.63 L645.33 855.97 L647.95 852.28 L648.02 842.81 L652.37 843.39 L654.15 838.24 L654.52 830.26 L659.62 832.45 L664.72 834.47 L666.17 829.07 L670.84 830.08 L674.18 828.44 L675.06 822.27 L675.25 815.07 L682.77 820.99 L686.33 819.77 L687.79 814.99 L694.29 818.60 L696.35 814.85 L700.80 814.94 L703.05 811.54 L705.44 808.43 L710.65 809.48 L715.24 809.53 L718.86 808.12 L719.19 802.13 L723.18 801.26 L730.83 805.15 L729.85 797.63 L730.02 791.76 L734.42 791.31 L735.23 786.40 L735.47 780.92 L741.86 782.75 L745.45 781.21 L746.23 776.47 L751.19 776.42 L752.99 772.87 L751.07 765.43 L754.33 763.54 L760.56 764.65 L760.00 758.86 L763.15 756.80 L766.81 755.21 L770.98 754.06 L773.60 751.43 L770.94 744.02 L776.17 743.78 L778.42 740.86 L783.40 740.25 L783.57 735.57 L783.28 730.58 L791.76 732.66 L795.13 730.57 L791.28 722.90 L793.03 719.63 L794.23 715.97 L791.56 709.55 L791.99 705.47 L799.38 706.22 L799.49 701.91 L800.92 698.52 L805.26 697.04 L804.01 691.95 L800.07 685.29 L806.07 684.80 L811.74 683.99 L809.84 678.72 L816.47 678.34 L819.25 675.73 L822.78 673.49 L823.89 669.94 L821.54 664.62 L828.02 663.82 L827.88 659.67 L832.38 657.77 L830.74 652.96 L828.68 648.04 L840.12 649.11 L840.27 645.14 L835.41 639.12 L838.56 636.48 L837.35 632.08 L833.10 626.59 L837.43 624.39 L841.04 621.86 L837.88 616.94 L842.50 614.71 L843.26 611.16 L839.82 606.30 L836.94 601.72 L845.40 600.51 L846.13 596.98 L843.89 592.66 L848.53 590.18 L849.35 586.67 L852.13 583.63 L848.03 578.99 L848.46 575.43 L849.77 572.06 L853.53 569.16 L853.19 565.43 L847.10 560.72 L855.22 558.49 L862.16 555.92 L856.49 551.40 L852.39 547.21 L852.69 543.67 L848.10 539.57 L841.68 535.38 L849.67 532.68 L851.09 529.27 L847.81 525.50 L852.79 522.32 L850.36 518.65 L844.55 514.89 L844.23 511.43 L850.77 508.13 L849.65 504.61 L850.43 501.12 L854.33 497.59 L854.01 494.05 L855.77 490.46 L851.56 487.05 L853.03 483.46 L853.87 479.87 L855.12 476.24 L854.58 472.71 L847.45 469.76 L851.00 465.91 L851.59 462.30 L844.64 459.56 L840.41 456.60 L839.12 453.31 L838.82 449.90 L837.00 446.72 L836.65 443.32 L837.57 439.68 L837.46 436.21 L837.09 432.79 L836.10 429.48 L835.54 426.09 L835.33 422.61 L833.31 419.56 L831.15 416.57 L830.66 413.16 L827.95 410.36 L825.65 407.48 L826.29 403.76 L824.16 400.85 L823.65 397.46 L823.14 394.05 L822.93 390.54 L823.17 386.84 L820.71 384.09 L818.07 381.43 L815.83 378.66 L813.73 375.85 L811.72 373.02 L807.77 371.03 L806.75 367.84 L806.28 364.39 L803.75 361.86 L802.54 358.74 L800.48 356.03 L798.04 353.51 L795.75 350.95 L793.73 348.27 L791.57 345.67 L789.36 343.11 L787.34 340.48 L785.98 337.47 L783.87 334.89 L781.29 332.60 L780.53 329.23 L778.05 326.91 L776.31 324.13 L775.37 320.84 L772.64 318.71 L771.16 315.75 L770.72 312.07 L769.92 308.60 L768.23 305.74 L767.37 302.25 L766.99 298.37 L764.41 296.13 L761.90 293.86 L760.50 290.71 L757.61 288.76 L754.69 286.86 L753.40 283.60 L750.63 281.59 L748.30 279.21 L746.10 276.72 L742.47 275.55 L740.11 273.24 L738.32 270.38 L734.97 269.03 L731.14 268.20 L729.55 265.15 L726.71 263.36 L723.29 262.22 L721.37 259.48 L719.40 256.80 L716.73 254.86 L714.14 252.86 L711.67 250.72 L708.86 248.99 L705.10 248.43 L702.59 246.36 L699.32 245.28 L696.38 243.80 L694.25 241.26 L691.06 240.14 L688.31 238.43 L685.72 236.52 L682.77 235.12 L679.44 234.29 L676.31 233.22 L673.52 231.64 L670.26 230.82 L667.00 230.03 L664.63 227.82 L661.62 226.65 L658.29 226.07 L656.02 223.67 L652.96 222.64 L649.57 222.26 L646.75 220.84 L643.58 220.10 L640.53 219.18 L637.63 217.95 L640.78 204.03 L638.50 201.14 L635.35 200.14 L634.83 193.14 L630.62 194.46 L625.82 197.34 L624.08 192.90 L621.90 189.38 L617.84 190.68 L615.91 186.36 L612.50 185.95 L607.47 190.27 L603.06 193.10 L602.48 184.41 L598.75 185.21 L594.93 186.43 L593.03 181.25 L590.13 179.31 L587.22 177.31 L582.48 182.26 L579.37 181.16 L576.53 178.90 L574.06 174.90 L570.38 176.14 L565.75 182.16 L564.09 173.74 L562.10 166.29 L557.43 173.22 L553.45 176.96 L550.52 174.49 L546.34 180.37 L542.29 186.27 L540.15 177.85 L536.96 177.13 L533.42 179.76 L530.65 174.87 L527.14 177.62 L523.36 184.86 L520.26 183.82 L517.47 176.69 L514.09 179.83 L510.99 176.61 L507.86 172.49 L504.59 171.97 L501.32 169.65 L498.05 175.48 L494.77 173.36 L491.48 172.62 L488.14 170.87 L484.93 172.78 L482.05 179.90 L478.10 168.79 L474.55 165.84 L472.02 175.56 L468.71 175.11 L465.47 175.55 L462.91 181.71 L459.91 183.54 L455.86 177.50 L453.02 180.52 L449.81 180.92 L446.31 179.56 L443.98 185.01 L442.01 191.86 L437.72 186.37 L434.01 184.22 L432.15 190.81 L427.92 186.52 L424.95 187.94 L420.77 184.47 L418.65 189.22 L416.81 194.68 L412.44 190.86 L409.01 190.60 L405.65 190.65 L404.16 196.64 L400.93 197.03 L394.28 187.30 L392.20 191.36 L392.36 201.43 L388.33 199.71 L387.02 205.24 L386.77 213.21 L381.96 209.55 L377.67 207.41 L376.49 212.71 L372.15 210.61 L369.31 212.01 L369.00 218.83 L368.83 225.67 L361.51 217.66 L358.62 218.92 L357.35 223.31 L351.41 218.74 L349.70 222.26 L345.60 221.37 L344.21 225.37 L341.75 227.44 L337.02 225.64 L332.94 225.06 L329.36 225.40 L329.72 232.00 L325.43 231.22 L318.50 226.58 L320.14 234.85 L320.06 240.35 L315.95 240.01 L315.30 244.55 L315.28 249.84 L309.20 246.93 L306.24 248.28 L305.33 252.26 L300.90 251.77 L299.74 255.39 L302.06 263.09 L298.51 263.68 L292.45 261.46 L293.11 266.96 L289.80 267.94 L286.88 269.40 L282.32 269.14 L280.86 272.20 L283.70 279.60 L278.41 278.69 L276.20 280.90 L271.80 281.02 L272.23 285.77 L272.51 290.28 L263.49 286.30 L260.60 287.99 L266.01 296.93 L263.08 298.51 L262.07 301.71 L265.23 308.29 L264.21 311.35 L257.50 309.93 L257.56 313.87 L256.07 316.57 L252.31 317.59 L254.34 322.84 L258.12 329.22 L251.40 328.17 L246.22 328.32 L248.62 333.58 L241.32 332.44 L239.22 334.77 L235.27 335.95 L235.21 339.55 L237.31 344.39 L230.92 344.23 L231.39 348.06 L226.89 349.10 L228.92 353.74 L230.40 358.00 L218.52 355.32 L219.01 359.11 L223.65 364.87 L220.51 366.79 L221.51 370.67 L225.97 376.05 L221.63 377.43 L218.47 379.38 L221.98 384.16 L216.94 385.37 L216.21 388.36 L219.97 393.07 L222.24 397.10 L213.45 397.09 L213.62 400.38 L214.71 403.94 L210.09 405.60 L209.13 408.50 L206.72 410.95 L211.49 415.54 L210.28 418.33 L209.50 421.23 L204.92 423.15 L205.70 426.49 L211.89 431.09 L202.77 432.04 L195.46 433.57 L202.46 438.20 L206.06 442.01 L204.84 444.83 L209.77 448.75 L216.61 452.88 L207.72 454.40 L206.62 457.23 L209.73 460.64 L204.69 462.96 L207.71 466.30 L213.35 469.86 L212.25 472.65 L205.06 474.94 L207.10 478.06 L205.16 480.87 L201.08 483.61 L201.18 486.61 L200.42 489.58 L204.82 492.68 L201.92 495.59 L201.55 498.57 L199.20 501.57 L199.95 504.57 L206.96 507.39 L197.37 510.66 L193.19 513.88 L202.02 516.47 L202.08 519.46 L204.40 522.28 L208.67 524.89 L209.68 527.73 L206.43 531.00 L208.68 533.72 L208.37 536.71 L207.16 539.84 L211.92 542.13 L217.15 544.26 L212.33 547.97 L211.56 551.06 L215.57 553.29 L211.65 557.02 L212.89 559.76 L210.93 563.19 L214.64 565.38 L218.62 567.43 L217.09 570.80 L216.43 573.99 L216.33 577.05 L222.87 578.26 L221.83 581.56 L213.06 587.26 L216.97 589.17 L225.03 589.66 L223.86 593.11 L229.54 594.22 L237.21 594.51 L233.07 599.02 L231.65 602.61 L236.55 603.77 L233.53 608.05 L234.39 610.81 L240.71 611.23 L246.73 611.66 L239.61 617.92 L241.00 620.42 L244.15 622.08 L240.37 627.09 L242.78 629.12 L239.46 634.06 L244.87 634.52 L248.07 636.07 L245.61 640.70 L247.39 643.04 L247.65 646.24 L254.55 645.54 L252.07 650.38 L247.75 656.47 L254.44 655.75 L258.75 656.42 L259.36 659.46 L264.41 659.53 L270.75 658.60 L265.81 665.50 L267.68 667.69 L271.48 668.45 L270.26 672.93 L274.68 673.15 L281.56 671.37 L281.52 674.95 L279.68 680.07 L284.73 679.57 L285.03 683.00 L286.29 685.64 L285.63 690.01 L288.58 691.20 L295.86 688.36 L294.36 693.59 L296.42 695.53 L295.84 700.05 L300.10 699.83 L304.42 699.46 L299.72 708.38 L301.00 711.24 L309.29 706.53 L310.84 709.02 L314.36 709.29 L320.88 706.06 L323.22 707.52 L321.27 714.11 L324.91 714.07 L326.76 716.18 L327.27 720.01 L332.51 717.79 L338.39 714.55 L337.18 720.72 L337.68 724.71 L342.52 722.67 L341.44 729.01 L344.24 729.85 L345.26 733.34 L348.09 734.11 L352.29 732.71 L351.96 738.47 L353.40 741.50 L354.85 744.60 L358.97 743.17 L362.62 742.42 L360.58 751.85 L364.77 750.17 L370.89 744.65 L372.51 747.55 L375.85 747.11 L380.08 744.75 L381.08 749.00 L382.29 752.93 L385.88 751.76 L387.40 755.16 L389.74 756.79 L394.16 753.46 L398.18 750.85 L397.93 758.86 L401.38 757.63 L404.87 756.18 L406.64 759.31 L409.00 760.91 L411.09 763.36 L415.55 758.66 L417.86 760.40 L419.73 763.63 L421.73 766.59 L424.90 765.57 L429.00 761.04 L430.11 767.48 L431.57 773.03 L436.08 766.32 L439.52 763.53 L441.99 764.92 L445.64 760.69 L449.34 755.71 L450.45 763.95 L452.98 765.06 L456.15 762.41 L458.07 767.34 L461.17 764.84 L464.74 758.45 L467.15 760.24 L469.07 766.46 L472.06 763.67 L474.44 766.60 L476.85 769.90 L479.52 770.51 L482.17 771.58 L485.08 768.26 L487.62 771.43 L490.31 772.27 L492.98 774.51 L495.77 771.80 L498.52 766.35 L501.22 776.12 L504.01 777.84 L506.58 769.34 L509.30 769.99 L511.96 769.11 L514.32 762.83 L517.01 763.70 L519.94 767.45 L522.33 763.84 L525.10 765.04 L527.97 766.85 L530.15 762.37 L532.11 756.77 L535.49 762.39 L538.33 763.58 L540.18 758.13 L543.61 762.85 L546.08 761.51 L549.13 763.34 L551.24 760.23 L553.20 756.60 L556.19 758.02 L559.14 759.08 L562.05 759.82 L562.88 752.11 L565.90 753.42 L571.14 762.75 L572.74 758.36 L573.14 750.18 L575.90 750.31 L577.26 745.90 L577.51 738.32 L581.54 742.46 L585.07 744.83 L585.92 739.52 L589.85 742.82 L592.19 741.67 L592.38 735.08 L593.06 730.04 L598.60 736.88 L601.17 736.37 L602.66 733.37 L607.34 737.53 L609.03 734.99 L613.14 737.60 L613.94 733.23 L615.41 730.37 L619.40 732.49 L621.91 731.66 L625.05 731.97 L624.22 725.00 L629.33 728.83 L635.13 733.60 L633.44 725.46 L634.47 722.09 L635.72 719.19 L635.41 713.87 L634.96 708.52 L641.02 713.17 L643.58 712.40 L645.04 710.01 L649.25 711.55 L649.30 707.19 L647.82 700.86 L651.62 701.77 L656.15 703.53 L655.54 698.59 L658.71 698.52 L661.19 697.54 L665.37 698.57 L665.74 695.01 L663.38 688.39 L667.80 689.62 L669.78 688.04 L674.16 689.05 L672.69 683.74 L672.54 679.94 L682.38 686.43 L685.12 685.48 L679.77 676.55 L681.83 675.04 L681.78 671.52 L678.24 664.85 L679.25 662.49 L685.34 664.66 L685.32 661.35 L687.99 660.40 L691.10 659.78 L688.68 654.58 L684.53 648.12 L691.73 650.77 L696.18 651.12 L693.83 646.24 L700.37 648.06 L701.72 645.96 L706.14 646.04 L706.02 642.88 L704.71 638.96 L710.68 639.95 L711.80 637.67 L715.57 637.07 L712.63 632.24 L712.60 629.29 L722.72 632.41 L721.04 628.43 L716.40 622.86 L719.04 621.48 L716.96 617.50 L713.37 612.82 L718.57 612.79 L721.74 611.62 L719.80 607.91 L724.03 607.22 L724.08 604.50 L719.37 599.65 L717.88 596.35 L726.78 597.59 L725.67 594.45 L725.30 591.65 L728.77 590.41 L730.51 588.45 L732.49 586.55 L727.11 581.97 L728.51 579.90 L730.14 577.90 L735.73 577.17 L733.72 573.93 L727.34 569.42 L738.28 570.16 L744.53 569.36 L736.73 564.59 L734.19 561.39 L734.90 559.07 L729.76 555.34 L723.42 551.46 L732.96 551.21 L733.64 548.91 L732.11 546.17 L736.15 544.53 L733.24 541.57 L726.80 538.08 L728.94 536.09 L736.22 534.82 L733.41 532.03 L737.15 530.13 L741.84 528.27 L742.26 525.87 L741.58 523.35 L739.16 520.71 L740.19 518.38 L740.07 515.96 L745.27 513.84 L742.85 511.27 L737.03 508.62 L748.96 506.57 L750.33 504.10 L740.86 501.53 L741.12 499.12 L739.01 496.74 L733.14 494.49 L733.59 492.14 L738.01 489.61 L736.05 487.33 L736.96 484.90 L737.78 482.46 L732.85 480.48 L726.00 478.78 L733.65 475.70 L734.31 473.26 L729.20 471.52 L734.37 468.49 L733.62 466.21 L736.82 463.33 L732.04 461.69 L729.00 459.83 L731.63 456.98 L733.03 454.31 L733.10 451.87 L726.46 450.87 L727.46 448.27 L738.14 443.33 L733.24 442.03 L724.86 441.71 L725.63 439.10 L720.60 438.08 L713.17 437.86 L717.10 434.35 L719.80 431.13 L714.96 430.28 L718.59 426.68 L717.21 424.72 L710.18 424.79 L704.66 424.45 L713.98 418.57 L712.72 416.61 L710.60 415.00 L715.23 410.62 L713.24 408.93 L714.12 406.01 L710.98 404.86 L709.30 403.09 L711.40 399.54 L712.27 396.51 L711.36 394.32 L705.02 394.92 L708.78 390.34 L712.83 385.49 L705.05 387.01 L700.83 386.71 L700.46 384.25 L694.49 385.10 L688.60 386.02 L694.13 380.00 L692.22 378.51 L689.18 377.77 L690.62 374.12 L686.26 374.31 L679.75 376.07 L681.00 372.51 L684.59 367.21 L679.98 367.77 L680.92 364.28 L680.01 362.12 L681.37 358.18 L677.56 358.27 L671.14 360.57 L672.90 356.24 L672.16 353.92 L673.97 349.37 L668.19 351.40 L665.14 351.13 L672.23 341.59 L670.55 339.95 L661.47 345.41 L660.46 343.27 L657.21 343.35 L650.45 347.05 L648.77 345.70 L651.23 339.98 L647.78 340.46 L647.55 337.48 L647.08 334.71 L641.93 337.25 L635.44 341.52 L639.17 333.82 L639.38 330.14 L634.77 332.37 L638.31 324.40 L637.11 322.30 L634.94 321.44 L633.40 319.77 L629.70 321.05 L629.30 317.80 L626.99 317.20 L627.69 312.21 L622.89 315.33 L619.27 316.82 L620.14 311.39 L616.10 313.64 L610.86 318.03 L608.91 317.15 L607.55 315.24 L605.68 314.21 L604.05 312.75 L602.16 311.74 L599.61 311.97 L597.32 311.78 L594.66 312.34 L591.91 313.17 L589.91 312.52 L587.71 312.31 L585.28 312.65 L583.83 310.85 L581.90 310.10 L579.85 309.63 L578.37 307.79 L575.98 308.19 L573.56 308.74 L571.33 308.85 L569.17 308.82 L567.45 307.58 L565.33 307.49 L563.31 307.13 L561.34 306.62 L559.21 306.67 L557.20 306.31 L555.19 305.99 L552.94 306.59 L551.08 305.77 L549.15 305.20 L547.05 305.36 L544.92 305.65 L542.89 305.60 L540.78 305.97 L538.34 308.06 L536.49 307.33 L534.29 308.48 L532.26 308.80 L530.69 306.32 L528.80 305.71 L527.03 304.19 L525.27 302.37 L523.28 302.25 L521.36 301.43 L519.26 302.39 L517.26 302.53 L515.19 303.54 L513.11 305.07 L511.27 303.07 L509.26 303.81 L507.29 303.86 L505.42 300.68 L503.44 299.61 L501.43 300.98 L499.43 299.98 L497.44 300.16 L495.44 300.20 L493.46 300.84 L491.53 302.30 L489.54 302.29 L487.71 304.73 L485.83 305.80 L483.94 306.50 L482.16 308.41 L480.18 307.93 L478.34 308.87 L476.63 310.66 L474.58 309.74 L472.92 311.67 L471.06 312.13 L469.17 312.35 L467.06 311.33 L464.95 310.45 L463.02 310.61 L461.14 311.02 L459.17 311.05 L457.64 313.05 L455.79 313.57 L454.33 315.65 L452.96 317.92 L450.65 316.59 L449.47 319.40 L447.60 319.71 L445.80 320.23 L444.24 321.54 L442.01 320.72 L440.20 321.26 L438.94 323.36 L437.46 324.79 L435.88 325.89 L434.32 327.00 L432.92 328.51 L430.54 327.53 L428.73 327.99 L427.12 328.97 L424.78 328.27 L423.26 329.45 L422.18 331.57 L421.04 333.51 L418.08 331.64 L415.31 330.27 L413.97 331.82 L410.48 329.23 L407.78 328.28 L406.26 329.56 L404.93 331.16 L403.83 333.14 L402.39 334.49 L400.52 335.10 L399.34 336.86 L397.66 337.79 L397.05 340.38 L395.20 341.03 L394.52 343.43 L393.87 345.81 L391.65 345.91 L390.60 347.67 L390.55 350.78 L388.16 350.68 L387.76 353.22 L386.78 354.97 L385.41 356.20 L383.26 356.47 L380.71 356.29 L379.10 357.29 L378.30 359.22 L377.12 360.70 L376.09 362.33 L375.42 364.33 L375.26 366.86 L374.85 369.07 L372.78 369.54 L373.15 372.50 L372.07 373.96 L370.83 375.25 L369.81 376.76 L368.26 377.77 L367.83 379.81 L367.00 381.46 L366.41 383.31 L365.41 384.79 L364.44 386.29 L363.30 387.64 L362.23 389.05 L360.20 389.71 L358.62 390.73 L356.90 391.67 L356.18 393.37 L355.95 395.42 L355.87 397.55 L353.75 398.22 L350.83 398.39 L349.57 399.73 L346.32 399.76 L341.64 398.95 L340.16 400.24 L340.29 402.53 L338.90 403.88 L339.23 406.24 L339.65 408.63 L338.64 410.17 L338.60 412.25 L338.61 414.34 L338.89 416.54 L338.84 418.55 L339.36 420.82 L339.05 422.65 L338.42 424.33 L338.99 426.55 L337.86 427.99 L338.13 430.04 L337.92 431.86 L338.06 433.82 L337.13 435.33 L334.98 436.38 L334.73 438.17 L334.22 439.87 L334.07 441.68 L334.31 443.63 L335.24 445.77 L335.88 447.80 L336.55 449.80 L336.98 451.71 L336.10 453.23 L337.05 455.26 L336.03 456.74 L336.11 458.51 L336.49 460.34 L335.09 461.74 L335.23 463.51 L336.61 465.52 L335.91 467.08 L336.78 468.95 L335.79 470.46 L336.09 472.21 L335.09 473.73 L333.39 475.17 L331.81 476.65 L331.91 478.37 L331.58 480.04 L332.63 481.86 L332.88 483.58 L327.93 484.82 L328.82 486.63 L328.80 488.35 L324.91 489.84 L325.42 491.62 L325.94 493.39 L326.67 495.15 L327.51 496.90 L326.66 498.62 L327.06 500.35 L327.33 502.08 L327.82 503.79 L328.62 505.49 L329.23 507.18 L331.13 508.80 L333.20 510.36 L333.46 512.02 L335.34 513.54 L336.54 515.09 L336.52 516.74 L337.62 518.27 L337.58 519.92 L337.17 521.63 L336.70 523.35 L335.82 525.16 L335.84 526.83 L336.45 528.42 L337.23 529.96 L338.80 531.34 L341.05 532.56 L342.98 533.80 L343.97 535.23 L344.64 536.71 L346.12 537.99 L346.32 539.57 L345.89 541.33 L346.64 542.78 L347.39 544.22 L348.35 545.59 L349.20 546.99 L350.76 548.14 L352.50 549.21 L353.44 550.53 L353.86 552.03 L354.53 553.44 L355.29 554.81 L355.03 556.57 L355.47 558.07 L356.03 559.52 L356.48 561.03 L358.15 562.00 L356.53 564.42 L354.84 566.93 L355.40 568.43 L354.80 570.50 L353.41 573.00 L354.46 574.30 L357.13 574.75 L357.68 576.28 L358.59 577.63 L360.14 578.60 L361.51 579.67 L361.93 581.27 L363.65 582.11 L365.20 583.02 L366.78 583.90 L369.09 584.29 L370.12 585.47 L372.16 585.97 L374.19 586.45 L375.01 587.73 L376.46 588.57 L378.19 589.19 L378.85 590.59 L377.97 593.16 L378.24 594.89 L379.95 595.51 L379.84 597.57 L380.97 598.65 L382.86 599.08 L384.75 599.47 L386.76 599.72 L388.31 600.37 L389.62 601.20 L391.16 601.81 L392.54 602.55 L393.48 603.71 L394.97 604.32 L396.58 604.80 L398.00 605.45 L399.64 605.85 L401.14 606.38 L402.62 606.91 L403.93 607.62 L405.10 608.47 L406.17 609.44 L407.15 610.51 L408.37 611.30 L409.76 611.87 L410.78 612.90 L412.12 613.52 L413.68 613.84 L413.73 616.17 L412.22 620.70 L413.08 622.08 L412.62 625.36 L412.01 628.96 L413.09 630.15 L414.46 630.91 L416.13 631.21 L417.52 631.93 L418.95 632.56 L420.87 632.37 L422.62 632.45 L424.27 632.64 L426.27 632.20 L428.24 631.75 L430.18 631.28 L431.62 631.75 L432.96 632.38 L434.76 632.10 L435.98 632.94 L437.46 633.26 L439.04 633.35 L440.60 633.47 L441.90 634.12 L442.87 635.59 L444.26 636.08 L445.78 636.25 L447.31 636.35 L448.77 636.61 L450.71 635.55 L452.43 635.01 L453.71 635.69 L455.45 634.99 L456.82 635.37 L458.14 635.91 L459.85 635.14 L461.35 635.03 L462.76 635.20 L464.38 634.56 L466.11 633.41 L467.54 633.35 L468.82 633.91 L470.12 634.40 L471.53 634.37 L472.86 634.76 L473.97 636.25 L475.43 635.99 L476.83 635.97 L478.22 636.01 L479.72 635.32 L481.20 634.58 L482.52 635.03 L483.45 638.73 L484.68 640.32 L485.97 641.58 L487.10 644.95 L488.39 647.13 L489.92 646.39 L491.40 646.26 L492.87 646.08 L494.38 644.95 L495.85 644.17 L497.31 643.17 L498.75 642.57 L500.18 641.55 L501.57 640.11 L502.96 639.56 L504.32 638.36 L505.69 637.80 L507.02 636.82 L508.35 636.23 L509.68 635.63 L510.99 634.93 L512.23 633.63 L513.49 632.83 L514.75 632.08 L515.97 631.10 L517.24 630.61 L518.49 630.03 L519.73 629.43 L520.97 628.90 L522.25 628.68 L523.54 628.43 L524.76 627.87 L525.98 627.34 L527.15 626.61 L528.23 625.50 L529.32 624.51 L530.41 623.60 L531.47 622.62 L532.57 621.84 L533.75 621.37 L534.89 620.77 L535.98 620.02 L537.15 619.56 L538.26 618.94 L539.41 618.43 L540.39 617.45 L541.30 616.30 L542.26 615.32 L543.11 614.11 L543.96 612.92 L544.90 612.00 L547.71 615.67 L550.37 618.72 L552.02 619.27 L555.01 622.78 L557.15 624.21 L558.40 623.66 L559.59 622.97 L560.35 621.43 L561.36 620.42 L562.30 619.31 L563.11 617.96 L564.12 617.03 L564.89 615.67 L565.69 614.40 L566.45 613.09 L567.12 611.66 L568.38 611.21 L569.30 610.24 L569.83 608.65 L570.72 607.64 L571.15 605.98 L571.30 603.95 L571.94 602.66 L571.90 600.45 L572.59 599.30 L573.73 598.77 L574.32 597.51 L575.40 596.90 L576.64 596.48 L577.88 596.07 L578.84 595.29 L579.09 593.66 L579.86 592.68 L580.29 591.31 L579.83 588.99 L580.35 587.78 L581.01 586.75 L581.68 585.73 L582.71 585.09 L583.85 584.55 L585.02 584.03 L586.01 583.33 L587.08 582.69 L587.78 581.70 L587.86 580.15 L588.01 578.69 L588.16 577.25 L587.86 575.45 L588.36 574.36 L589.10 573.47 L589.68 572.45 L590.55 571.67 L592.82 571.97 L594.34 571.65 L594.94 570.62 L598.00 571.39 L599.20 570.76 L598.65 568.88 L599.76 568.19 L600.76 567.40 L599.79 565.32 L600.33 564.24 L600.89 563.19 L600.81 561.75 L600.07 559.92 L600.24 558.67 L600.37 557.41 L600.08 555.92 L599.40 554.24 L599.38 552.95 L599.18 551.58 L598.33 549.90 L597.90 548.45 L598.14 547.35 L598.51 546.32 L598.98 545.34 L600.05 544.63 L600.92 543.81 L601.45 542.84 L602.31 542.00 L602.65 540.95 L602.12 539.56 L601.69 538.22 L601.62 537.04 L601.06 535.70 L600.44 534.35 L600.52 533.26 L600.60 532.18 L600.52 531.04 L600.34 529.89 L600.40 528.82 L600.45 527.75 L600.38 526.65 L600.53 525.62 L600.55 524.56 L600.57 523.50 L600.65 522.46 L600.53 521.38 L600.59 520.34 L600.62 519.31 L600.55 518.25 L600.60 517.22 L600.50 516.17 L600.46 515.14 L600.48 514.11 L600.34 513.07 L600.30 512.05 L600.21 511.02 L600.08 510.00 L600.07 508.99 L599.90 507.96 L599.77 506.95 L599.66 505.94 L599.46 504.93 L599.38 503.93 L599.21 502.93 L599.00 501.94 L598.87 500.94 Z"/>
  <svg class="pausebutton" id="pausebutton">
    <circle cx="500" cy="500" id="pausestart" class="pausestart" r="52.65"/>
    <rect height="50.02" width="10.00" y="473.68" rx="2.00" ry="2.00" x="479.99" class="pausesymbol"/>
    <rect height="50.02" width="10.00" y="473.68" rx="2.00" ry="2.00" x="510.00" class="pausesymbol"/>
    <polygon points="530.01,500 479.99,530.01 479.99,469.99" class="playsymbol"/>
  </svg>
  <polygon id="playback-head" class="playback-head" points="941.65,500 921.65,540 961.65,540"/>
</svg>