<?xml-stylesheet href="../../style/waveformjs.css" type="text/css"?>
<svg xmlns="http://www.w3.org/2000/svg" xmlns:xlink="http://www.w3.org/1999/xlink" width="100%" height="100%" viewBox="0 0 1000 1000">
  <path class="svg-wave" id="sp" d="M598.05 500.00 L598.22 500.98 L598.39 501.97 L598.55 502.96 L598.70 503.95 L598.83 504.95 L598.96 505.94 L599.08 506.95 L599.19 507.95 L599.28 508.96 L599.37 509.97 L599.45 510.98 L599.51 512.00 L599.57 513.02 L599.61 514.04 L599.65 515.06 L599.67 516.09 L599.69 517.11 L599.69 518.14 L599.68 519.17 L599.66 520.20 L599.64 521.24 L599.60 522.27 L599.55 523.31 L599.49 524.35 L599.41 525.38 L599.33 526.42 L599.24 527.46 L599.13 528.51 L599.02 529.55 L598.89 530.59 L598.75 531.63 L598.61 532.68 L598.45 533.72 L598.27 534.76 L598.06 535.79 L597.71 536.78 L597.07 537.65 L595.97 538.33 L594.25 538.74 L592.19 538.98 L589.11 538.73 L584.82 537.88 L581.24 537.26 L575.78 535.68 L572.78 535.15 L570.39 534.88 L567.87 534.47 L567.70 535.24 L565.34 534.85 L566.36 536.25 L570.64 539.52 L574.20 542.49 L577.15 545.20 L580.74 548.40 L585.32 552.31 L582.00 551.41 L578.47 550.30 L577.56 550.82 L581.62 554.65 L577.57 553.07 L580.50 556.26 L578.69 556.18 L578.30 557.09 L574.59 555.54 L577.63 559.02 L578.98 561.30 L574.85 559.30 L579.05 563.92 L576.82 563.40 L571.82 560.49 L574.19 563.77 L573.91 564.82 L570.71 563.28 L575.31 568.77 L571.27 566.40 L571.52 567.98 L567.96 565.90 L570.98 570.22 L571.15 571.81 L569.81 571.88 L571.40 575.01 L568.71 573.64 L565.11 571.19 L568.23 576.12 L565.97 575.10 L563.57 573.84 L566.75 579.12 L563.52 576.84 L562.71 577.43 L561.34 577.30 L562.32 580.17 L561.73 581.06 L563.83 585.58 L561.18 583.77 L558.34 581.58 L555.51 579.29 L558.10 584.78 L555.96 583.43 L555.00 583.80 L556.51 588.01 L554.05 586.06 L552.87 586.08 L554.43 590.64 L554.22 592.36 L551.30 589.43 L553.38 595.25 L550.86 592.93 L548.31 590.39 L547.17 590.44 L548.73 595.74 L545.90 592.46 L546.96 597.03 L545.17 595.75 L544.40 596.60 L541.66 593.08 L542.41 597.37 L542.53 600.36 L539.84 596.71 L540.97 602.35 L539.41 601.38 L536.41 596.49 L536.87 600.77 L535.82 601.01 L533.79 598.40 L534.99 605.29 L532.55 601.33 L531.98 603.09 L529.83 599.69 L530.25 604.89 L529.50 606.25 L528.26 605.91 L527.96 609.14 L526.20 606.69 L524.16 602.83 L524.40 608.72 L522.85 606.78 L521.28 604.54 L521.38 610.70 L519.60 607.25 L518.51 607.30 L517.32 606.81 L516.65 609.57 L515.59 610.00 L515.18 615.41 L513.62 612.17 L512.11 608.82 L510.67 605.47 L510.16 611.57 L508.86 609.44 L507.78 609.65 L506.92 613.61 L505.60 610.10 L504.33 606.06 L503.20 603.83 L502.14 602.79 L501.07 599.08 L500.08 605.03 L499.04 604.41 L498.05 601.29 L497.11 598.82 L496.02 601.52 L495.05 600.46 L494.33 595.74 L493.20 598.06 L491.87 602.45 L491.04 600.19 L489.79 602.56 L488.68 603.24 L487.58 603.66 L485.52 611.42 L484.18 612.88 L484.10 605.80 L482.36 609.89 L481.54 608.07 L481.20 603.76 L480.08 604.01 L479.44 601.87 L478.44 601.57 L478.28 597.48 L476.92 598.93 L475.64 599.91 L473.87 602.67 L471.70 606.72 L470.93 605.35 L471.25 600.27 L470.26 599.94 L468.57 601.88 L469.52 595.43 L468.31 595.90 L466.10 599.22 L464.59 600.37 L463.45 600.37 L462.82 599.02 L460.03 603.29 L457.17 607.49 L456.16 606.88 L454.97 606.75 L455.71 602.13 L452.87 605.77 L453.37 601.90 L454.54 596.77 L452.81 597.88 L452.72 595.62 L451.98 594.73 L450.47 595.32 L449.52 594.83 L448.12 595.14 L444.05 600.21 L443.07 599.62 L443.36 596.84 L443.92 593.72 L442.10 594.61 L441.66 593.22 L443.09 588.94 L441.48 589.47 L437.72 593.17 L438.06 590.69 L436.03 591.69 L433.73 592.98 L432.46 592.78 L427.37 597.71 L425.36 598.34 L428.35 592.48 L424.55 595.39 L425.49 592.29 L427.51 587.98 L426.59 587.30 L427.25 584.78 L425.69 584.86 L426.62 582.13 L425.28 581.97 L422.63 583.19 L419.83 584.49 L416.73 586.01 L417.04 583.99 L420.01 579.38 L418.46 579.32 L416.94 579.20 L421.67 573.20 L419.77 573.49 L415.68 575.70 L413.23 576.35 L412.95 575.06 L411.90 574.44 L406.65 577.30 L403.11 578.60 L402.25 577.69 L401.20 576.93 L403.80 573.38 L399.79 574.86 L401.57 572.00 L404.63 568.32 L403.09 567.96 L404.14 565.80 L404.48 564.18 L403.83 563.23 L405.23 560.95 L404.91 559.83 L396.88 563.45 L397.93 561.41 L399.42 559.14 L398.14 558.54 L394.58 559.19 L396.84 556.57 L402.34 552.29 L396.18 554.26 L392.87 554.63 L396.03 551.72 L390.89 552.92 L388.52 552.70 L387.83 551.66 L380.77 553.47 L378.56 553.01 L383.74 549.37 L377.45 550.60 L381.26 547.65 L384.76 544.91 L383.46 544.08 L386.20 541.75 L385.54 540.69 L388.52 538.38 L385.49 538.15 L384.58 537.17 L382.78 536.46 L379.23 536.25 L379.43 534.88 L379.37 533.59 L375.76 533.26 L376.43 531.76 L379.64 529.66 L377.86 528.80 L378.64 527.34 L377.83 526.24 L377.45 525.04 L377.23 523.81 L371.77 523.55 L367.77 522.91 L367.65 521.58 L367.45 520.25 L370.65 518.44 L367.09 517.59 L369.86 515.90 L373.01 514.23 L372.76 512.97 L374.59 511.52 L375.64 510.17 L374.40 509.01 L374.99 507.71 L374.16 506.50 L366.06 505.57 L366.97 504.20 L369.87 502.81 L371.86 501.49 L369.02 500.21 L372.87 498.93 L379.33 497.78 L373.94 496.42 L370.01 495.00 L372.84 493.84 L370.93 492.45 L366.78 490.87 L366.76 489.53 L360.69 487.65 L359.20 486.10 L365.38 485.35 L358.71 483.19 L363.82 482.42 L367.83 481.59 L366.39 480.02 L370.27 479.28 L370.71 478.02 L374.37 477.35 L373.14 475.81 L372.44 474.35 L368.78 472.25 L365.47 470.14 L365.96 468.84 L368.92 468.14 L368.03 466.53 L369.87 465.60 L374.32 465.43 L374.28 464.07 L373.13 462.36 L372.56 460.80 L371.67 459.12 L372.94 458.12 L369.11 455.40 L364.58 452.34 L364.97 450.95 L366.00 449.80 L369.86 449.76 L367.97 447.51 L369.59 446.64 L375.78 447.72 L375.98 446.33 L375.85 444.79 L376.44 443.57 L373.78 440.82 L371.36 438.11 L369.58 435.64 L362.63 430.49 L365.07 430.03 L371.01 431.46 L375.05 432.00 L375.57 430.66 L381.03 432.13 L387.45 434.30 L383.67 430.52 L382.08 427.96 L384.32 427.73 L379.39 422.96 L377.91 420.29 L376.39 417.52 L372.86 413.31 L374.99 412.92 L378.79 413.76 L377.70 411.13 L382.40 412.73 L387.06 414.42 L386.99 412.58 L390.04 413.17 L390.45 411.70 L392.45 411.52 L391.01 408.49 L390.26 405.98 L388.56 402.57 L387.01 399.21 L388.80 398.79 L391.22 398.99 L390.76 396.50 L394.89 398.40 L398.28 399.69 L398.97 398.36 L401.72 399.12 L401.15 396.49 L400.04 393.21 L399.87 390.87 L399.12 387.82 L394.37 380.15 L396.08 379.68 L399.65 381.44 L402.92 382.95 L404.20 382.11 L408.13 384.60 L410.77 385.60 L412.53 385.51 L413.44 384.32 L414.79 383.72 L414.59 380.96 L415.44 379.62 L416.97 379.26 L413.41 371.34 L415.17 371.19 L420.23 376.20 L422.23 376.61 L421.68 372.94 L425.50 376.39 L429.91 381.04 L428.04 375.02 L427.62 371.33 L429.41 371.51 L428.75 367.19 L428.24 362.96 L428.49 360.05 L427.07 353.69 L429.43 354.79 L432.44 357.38 L432.66 354.08 L436.10 357.83 L439.32 361.31 L440.06 359.17 L442.96 362.18 L444.25 361.39 L446.28 362.47 L446.30 358.37 L447.15 356.28 L447.12 351.65 L447.42 347.68 L449.65 349.26 L452.61 353.26 L454.04 352.68 L456.02 353.90 L458.87 358.24 L460.14 357.30 L461.06 355.01 L462.13 353.15 L463.28 351.50 L464.85 351.46 L465.33 346.67 L465.82 341.48 L467.36 340.94 L469.03 341.03 L470.98 342.64 L472.05 339.46 L474.33 343.33 L476.32 345.79 L477.94 346.14 L479.73 347.79 L481.48 349.45 L482.92 348.69 L484.33 347.51 L485.92 348.02 L486.97 342.16 L488.55 342.12 L490.09 341.35 L491.49 337.72 L493.09 337.16 L494.82 340.14 L496.42 340.31 L498.02 340.11 L499.62 341.78 L501.20 342.14 L502.91 334.52 L504.61 333.21 L506.33 331.67 L508.38 324.04 L510.04 325.98 L511.45 330.90 L513.41 327.60 L514.59 333.92 L515.73 339.34 L517.61 336.99 L518.85 340.47 L520.40 341.03 L522.18 339.84 L524.30 336.60 L526.14 335.51 L529.11 327.96 L530.90 327.84 L532.15 330.65 L533.19 334.23 L535.30 332.40 L536.12 336.65 L536.47 342.55 L538.81 339.76 L540.19 341.03 L542.04 340.45 L544.80 336.62 L546.88 335.50 L549.48 332.74 L553.20 326.56 L554.22 329.34 L555.03 332.59 L555.50 336.71 L557.11 337.33 L557.36 341.70 L558.07 344.61 L559.61 345.21 L560.82 346.66 L562.53 346.83 L566.47 341.74 L567.49 343.71 L569.84 342.60 L575.53 334.27 L575.55 338.52 L575.53 342.68 L577.98 341.66 L578.62 344.30 L577.39 350.48 L578.30 352.36 L579.05 354.47 L580.85 354.65 L581.60 356.69 L584.78 354.51 L589.11 350.53 L591.37 350.17 L596.52 345.23 L596.64 348.43 L593.33 356.81 L593.32 359.90 L595.43 359.80 L593.36 365.74 L594.19 367.40 L597.83 365.15 L601.10 363.53 L602.82 364.07 L606.14 362.57 L608.90 361.86 L615.50 356.47 L617.50 356.94 L616.96 360.46 L615.76 364.67 L617.20 365.72 L616.39 369.31 L613.76 374.81 L614.28 376.74 L617.05 376.25 L619.13 376.56 L621.77 376.32 L625.30 375.25 L629.20 373.92 L635.39 370.49 L635.62 372.85 L632.93 377.85 L628.35 384.40 L630.29 384.99 L630.38 387.21 L626.52 392.74 L629.61 392.33 L634.32 390.67 L636.94 390.79 L643.23 388.11 L646.04 388.25 L648.69 388.56 L656.94 384.81 L656.73 387.36 L656.19 390.10 L657.63 391.42 L658.87 392.89 L660.21 394.30 L658.71 397.55 L657.01 400.86 L661.13 400.50 L657.71 404.78 L659.16 406.06 L663.60 405.64 L663.63 407.79 L667.64 407.72 L668.14 409.63 L663.85 414.03 L659.15 418.52 L662.27 418.96 L659.29 422.43 L652.69 427.52 L655.19 428.23 L658.07 428.80 L662.40 428.80 L665.52 429.40 L669.71 429.61 L681.21 426.95 L683.21 428.27 L680.58 431.37 L676.28 435.02 L678.34 436.28 L675.38 439.30 L670.71 442.82 L671.75 444.38 L671.84 446.24 L673.47 447.63 L677.15 448.45 L679.32 449.76 L682.45 450.84 L690.13 450.81 L689.48 452.99 L684.86 456.09 L678.00 459.60 L679.04 461.24 L678.83 463.16 L672.85 466.19 L674.35 467.70 L680.15 468.49 L681.99 470.03 L687.72 471.02 L690.85 472.49 L693.45 474.08 L702.54 474.92 L698.06 477.49 L692.21 480.10 L690.58 482.19 L689.35 484.21 L684.41 486.48 L683.50 488.39 L682.68 490.28 L685.37 491.99 L685.23 493.85 L689.25 495.61 L693.62 497.45 L695.70 499.38 L700.85 501.37 L697.35 503.32 L688.12 505.05 L685.40 506.83 L686.83 508.75 L679.79 510.23 L679.64 512.02 L684.00 514.16 L687.47 516.32 L688.55 518.31 L692.62 520.65 L696.24 523.03 L702.48 525.82 L703.87 528.07 L700.06 529.58 L694.86 530.81 L696.03 533.01 L691.20 534.16 L686.36 535.23 L687.05 537.30 L684.48 538.71 L685.96 540.96 L689.18 543.66 L690.04 545.86 L691.80 548.33 L699.19 552.31 L697.22 553.91 L690.50 554.12 L682.06 553.70 L683.50 556.12 L681.74 557.58 L674.83 557.32 L677.59 560.20 L681.00 563.38 L680.90 565.38 L685.16 569.02 L685.54 571.28 L684.59 573.05 L689.96 577.38 L687.44 578.55 L683.18 578.92 L681.49 580.36 L680.42 582.05 L675.97 582.16 L674.85 583.78 L675.13 586.07 L675.69 588.54 L673.79 589.77 L678.37 594.41 L679.70 597.43 L678.88 599.31 L682.75 603.87 L678.89 604.05 L670.03 601.19 L666.74 601.50 L666.79 603.83 L659.42 601.47 L658.22 602.95 L661.00 607.06 L662.82 610.63 L661.92 612.40 L663.68 616.06 L665.37 619.77 L667.60 623.96 L664.22 624.02 L664.46 626.80 L657.96 624.33 L655.83 625.19 L657.26 628.95 L651.21 626.54 L650.79 628.77 L649.81 630.55 L648.78 632.30 L650.21 636.28 L648.24 637.22 L647.48 639.28 L650.40 644.91 L647.53 645.02 L643.02 643.43 L636.93 640.09 L637.50 643.51 L637.11 646.01 L631.92 643.32 L632.66 647.05 L633.59 651.10 L631.19 651.41 L630.70 653.93 L628.61 654.57 L627.10 655.90 L631.69 664.87 L627.98 663.55 L625.78 664.10 L627.08 669.27 L624.62 669.49 L619.65 666.20 L617.05 666.06 L616.10 668.26 L614.10 668.96 L612.42 670.10 L615.15 678.08 L614.77 681.44 L613.96 684.22 L614.70 689.63 L611.49 688.55 L606.24 683.85 L604.97 685.91 L601.52 684.09 L597.31 680.71 L596.68 683.92 L593.61 682.49 L592.11 684.08 L589.64 683.69 L587.09 683.09 L585.85 685.25 L586.43 691.50 L584.01 691.20 L581.83 691.41 L580.35 693.28 L579.42 696.58 L577.81 698.27 L574.64 695.92 L573.23 698.17 L572.10 701.28 L569.54 700.42 L567.52 701.06 L565.27 701.00 L563.16 701.34 L562.28 705.72 L560.28 706.52 L558.06 706.58 L555.59 705.66 L553.93 707.75 L551.11 705.31 L548.55 703.69 L546.21 702.86 L544.75 705.92 L542.68 706.35 L541.58 711.67 L539.86 714.18 L537.79 714.99 L536.99 723.56 L534.35 721.31 L531.69 718.60 L529.83 721.35 L527.31 719.15 L524.64 715.21 L522.57 716.24 L520.41 716.56 L518.19 716.10 L515.60 710.53 L513.63 712.71 L511.63 715.23 L509.23 709.77 L507.22 712.51 L505.13 713.96 L502.96 711.57 L500.86 717.00 L498.71 714.96 L496.54 715.90 L494.31 718.50 L492.17 717.24 L489.89 719.61 L487.87 716.31 L485.57 718.28 L483.41 717.80 L480.99 720.42 L478.87 719.40 L476.78 718.20 L474.72 716.88 L472.05 720.59 L469.91 719.85 L468.06 717.17 L465.30 720.58 L463.25 719.30 L461.28 717.71 L458.91 718.36 L456.95 716.78 L454.86 716.01 L451.87 719.31 L449.83 718.20 L447.86 716.79 L445.72 716.17 L443.59 715.49 L441.92 713.16 L440.20 711.11 L438.79 708.14 L435.86 710.29 L433.80 709.54 L430.47 712.66 L427.92 713.20 L425.51 713.28 L420.33 721.00 L419.29 717.05 L418.13 713.61 L414.96 715.41 L413.46 712.93 L413.61 706.63 L411.32 706.28 L409.44 704.98 L407.02 704.89 L407.37 698.81 L405.69 697.25 L401.31 701.20 L401.98 694.89 L398.80 696.28 L395.70 697.43 L394.96 694.11 L389.65 699.13 L387.49 698.33 L385.92 696.49 L381.26 699.89 L380.41 696.81 L378.32 695.81 L377.43 692.91 L374.63 693.03 L372.66 691.84 L367.94 694.68 L366.23 693.03 L365.00 690.71 L365.19 686.45 L362.57 686.12 L361.09 684.25 L362.55 678.57 L361.22 676.62 L358.78 676.06 L357.03 674.64 L353.48 675.37 L352.64 672.83 L349.51 672.97 L344.61 675.03 L343.13 673.18 L341.93 671.04 L340.09 669.59 L338.52 667.86 L338.06 665.00 L337.59 662.21 L337.45 659.13 L333.57 659.70 L333.66 656.45 L330.39 656.36 L326.08 657.15 L326.50 653.65 L318.51 657.51 L314.41 657.85 L316.54 652.90 L310.60 654.66 L310.87 651.32 L312.93 646.62 L316.09 641.20 L314.73 639.32 L315.60 635.80 L319.27 630.33 L319.62 627.36 L319.00 625.10 L320.62 621.35 L321.65 618.07 L317.85 617.98 L315.40 616.97 L312.36 616.28 L307.20 616.82 L302.06 617.25 L299.71 615.96 L296.85 614.91 L294.06 613.79 L293.08 611.64 L288.31 611.50 L283.31 611.38 L277.50 611.57 L271.76 611.60 L270.59 609.35 L271.76 606.00 L272.50 602.90 L274.56 599.27 L279.94 594.28 L279.18 592.00 L281.42 588.52 L286.44 584.01 L285.44 581.93 L287.73 578.64 L289.49 575.60 L291.72 572.46 L292.35 569.92 L287.04 569.34 L286.67 567.11 L282.39 566.07 L274.84 565.91 L273.04 563.98 L273.22 561.49 L266.33 560.86 L266.37 558.36 L260.86 557.20 L257.72 555.40 L255.87 553.25 L247.86 552.37 L247.99 549.72 L248.75 546.96 L250.31 544.09 L252.13 541.22 L256.17 538.04 L261.69 534.75 L260.56 532.47 L263.47 529.67 L268.15 526.73 L270.45 524.14 L271.12 521.76 L274.15 519.19 L277.38 516.68 L273.86 514.67 L272.47 512.48 L270.22 510.30 L265.17 508.17 L261.07 505.92 L259.73 503.55 L257.44 501.16 L255.97 498.73 L256.62 496.29 L251.46 493.73 L247.83 491.11 L242.70 488.36 L236.96 485.46 L237.16 482.83 L239.85 480.39 L241.99 477.96 L245.50 475.69 L252.54 473.87 L252.94 471.41 L256.72 469.38 L262.94 467.75 L262.98 465.34 L267.21 463.57 L269.98 461.65 L273.86 459.97 L275.36 457.91 L271.17 454.75 L271.81 452.50 L268.83 449.47 L262.32 445.54 L261.50 442.84 L262.82 440.64 L257.39 436.70 L261.11 435.11 L260.80 432.45 L257.96 429.03 L261.72 427.54 L254.07 422.52 L250.09 418.50 L252.85 416.66 L244.22 410.89 L246.87 408.97 L251.52 407.83 L252.14 405.22 L252.66 402.58 L259.91 402.65 L259.39 399.62 L256.91 395.72 L260.43 394.38 L261.41 391.95 L259.13 388.00 L261.41 386.15 L265.99 385.45 L271.93 385.52 L272.69 383.04 L276.16 381.97 L281.62 382.05 L280.88 378.80 L278.80 374.75 L277.51 371.07 L274.99 366.58 L273.25 362.47 L268.39 356.33 L272.08 355.44 L275.21 354.25 L278.07 352.94 L280.29 351.23 L285.12 351.34 L288.41 350.47 L291.01 349.15 L295.64 349.36 L299.36 348.98 L293.77 341.52 L293.75 338.19 L294.42 335.37 L290.59 328.84 L292.75 327.12 L295.83 326.20 L302.03 328.04 L305.52 327.63 L306.01 324.56 L312.54 327.03 L316.38 327.14 L313.72 321.09 L314.89 318.62 L312.12 312.19 L312.34 308.62 L313.39 305.84 L311.01 299.38 L313.24 297.74 L317.37 298.20 L319.42 296.42 L324.38 297.97 L328.18 298.30 L332.27 299.07 L335.94 299.42 L338.62 298.61 L340.02 296.22 L339.31 291.05 L339.32 286.68 L339.08 281.86 L338.98 277.09 L342.02 276.62 L346.52 278.32 L351.60 281.01 L353.47 279.05 L357.23 279.96 L362.07 282.70 L362.93 279.20 L363.64 275.37 L365.26 272.95 L365.91 268.81 L366.47 264.37 L365.66 257.31 L368.22 256.22 L370.53 254.65 L372.00 251.45 L374.39 249.99 L379.24 253.53 L384.45 258.06 L386.52 256.15 L391.56 260.77 L396.87 266.30 L399.24 265.33 L402.05 265.44 L405.27 266.60 L408.99 269.18 L411.62 269.11 L412.40 264.11 L414.68 263.01 L415.77 258.50 L416.04 251.31 L418.49 250.33 L421.23 250.31 L422.00 243.85 L425.17 245.14 L428.09 245.68 L430.75 245.41 L432.51 241.70 L433.32 233.96 L437.01 237.59 L439.67 237.09 L440.70 229.20 L444.35 233.13 L448.15 238.27 L450.45 236.05 L453.20 236.18 L455.88 235.99 L458.36 234.52 L460.23 228.73 L462.75 226.93 L464.84 221.48 L467.21 217.57 L470.47 221.37 L474.04 229.17 L476.91 230.88 L479.49 229.13 L482.60 235.11 L485.24 234.65 L487.70 230.39 L490.32 228.12 L492.98 225.63 L495.73 225.73 L498.46 224.09 L501.26 215.54 L504.07 218.19 L506.81 221.30 L509.54 222.92 L512.41 220.80 L515.07 223.38 L517.68 225.97 L520.45 225.79 L523.07 227.41 L525.83 227.25 L529.13 222.03 L531.99 221.62 L534.82 221.59 L538.78 213.25 L541.31 215.98 L543.09 223.18 L544.71 230.55 L547.84 228.50 L549.95 232.25 L551.67 237.61 L555.04 234.50 L558.86 229.70 L561.20 231.89 L564.18 231.27 L567.35 229.96 L570.32 229.58 L574.62 224.39 L576.85 227.01 L578.75 230.64 L583.06 226.08 L584.89 229.82 L586.18 235.00 L589.56 233.68 L591.13 237.73 L594.14 237.56 L597.01 237.84 L600.52 236.49 L604.51 234.05 L608.87 230.89 L612.76 229.09 L613.67 234.43 L612.69 243.82 L615.21 245.06 L617.85 246.01 L617.06 254.18 L620.18 254.00 L624.82 250.85 L628.39 249.98 L631.04 250.99 L633.87 251.66 L637.52 250.90 L643.39 246.30 L644.71 249.83 L646.25 252.91 L649.47 253.14 L653.60 251.95 L653.88 256.95 L655.69 259.45 L658.38 260.58 L659.00 264.79 L662.17 265.20 L666.65 263.79 L670.06 264.01 L672.40 265.74 L679.38 261.29 L680.40 264.87 L678.65 271.90 L677.09 278.50 L681.47 277.62 L682.70 280.62 L682.52 285.24 L687.84 283.41 L694.03 280.74 L693.64 285.54 L698.29 284.76 L702.13 284.95 L701.89 289.46 L707.37 288.03 L709.07 290.52 L708.48 295.25 L713.46 294.51 L715.00 297.14 L713.71 302.35 L718.61 301.84 L718.38 305.99 L716.84 311.20 L711.60 319.45 L713.44 321.54 L711.85 326.44 L710.64 330.92 L716.42 329.82 L718.72 331.52 L724.66 330.49 L730.41 329.75 L733.26 331.22 L737.39 331.82 L740.37 333.30 L739.83 337.20 L741.75 339.40 L742.08 342.65 L742.50 345.80 L745.45 347.36 L750.77 347.50 L752.58 349.84 L752.81 353.11 L749.88 358.13 L750.11 361.29 L747.87 365.75 L745.92 369.97 L748.23 371.91 L752.66 372.81 L759.74 372.49 L766.90 372.26 L771.49 373.39 L773.97 375.55 L781.57 375.48 L780.85 379.14 L776.31 384.36 L772.06 389.32 L774.76 391.41 L773.54 395.04 L771.13 399.07 L774.24 401.02 L778.97 402.45 L776.52 406.41 L776.41 409.51 L778.58 411.88 L776.68 415.51 L782.34 416.86 L783.51 419.59 L784.31 422.43 L791.42 423.61 L790.94 426.83 L787.76 430.69 L790.59 433.07 L789.49 436.37 L790.32 439.22 L791.32 442.05 L795.78 444.23 L800.02 446.53 L804.63 448.85 L807.96 451.45 L805.10 455.02 L796.83 459.27 L796.04 462.39 L797.51 465.22 L791.19 468.91 L792.00 471.77 L795.69 474.40 L796.21 477.33 L796.35 480.30 L796.39 483.27 L796.24 486.25 L801.51 489.03 L802.44 492.02 L801.07 495.07 L802.64 498.07 L805.48 501.11 L802.55 504.12 L800.29 507.10 L802.00 510.16 L798.83 513.05 L799.63 516.08 L802.78 519.29 L802.45 522.31 L803.15 525.41 L810.95 529.20 L808.30 532.06 L803.61 534.65 L801.59 537.48 L801.76 540.57 L799.04 543.25 L794.85 545.66 L795.32 548.76 L798.59 552.37 L795.93 554.96 L798.59 558.55 L801.28 562.21 L802.65 565.66 L809.75 570.45 L807.74 573.23 L800.15 574.61 L794.99 576.46 L788.34 577.83 L782.33 579.24 L782.01 582.20 L781.18 585.02 L787.13 589.96 L791.61 594.58 L794.22 598.69 L797.49 603.11 L800.07 607.37 L801.27 611.21 L795.90 612.61 L785.79 612.04 L785.29 615.15 L784.49 618.15 L776.00 617.87 L777.08 621.63 L780.32 626.41 L780.32 629.79 L779.27 632.72 L776.85 634.97 L776.57 638.28 L779.54 643.28 L775.95 644.94 L773.48 647.15 L771.74 649.74 L772.93 653.97 L772.95 657.60 L767.72 658.17 L766.39 661.00 L765.76 664.27 L763.05 666.25 L765.71 671.67 L764.77 674.85 L763.39 677.74 L768.62 685.21 L764.81 686.52 L757.44 685.20 L751.02 684.42 L751.41 688.61 L746.91 689.12 L741.72 689.01 L743.01 693.96 L743.10 698.05 L738.76 698.51 L738.62 702.47 L736.65 704.90 L733.59 706.38 L735.19 712.02 L731.90 713.29 L726.62 712.66 L722.47 712.99 L717.45 712.39 L715.24 714.48 L714.31 717.87 L710.97 718.81 L713.43 725.83 L715.33 732.46 L714.59 736.36 L714.43 740.97 L715.62 747.25 L714.52 751.02 L709.40 750.05 L701.03 744.99 L698.60 747.01 L696.32 749.25 L689.13 745.13 L687.62 748.25 L687.95 753.94 L685.83 756.39 L681.78 756.16 L678.23 756.56 L676.03 758.87 L676.47 765.18 L673.43 766.36 L670.11 767.05 L668.71 770.79 L667.88 775.57 L665.13 777.26 L660.18 775.17 L657.52 776.93 L655.33 779.55 L652.68 781.37 L652.01 786.94 L649.95 790.03 L647.33 792.09 L648.12 801.09 L644.12 800.51 L638.38 796.11 L633.16 792.53 L630.60 794.68 L626.42 793.14 L621.81 790.41 L620.00 794.30 L619.01 800.43 L616.35 802.52 L615.44 809.36 L613.68 814.18 L611.10 816.92 L609.22 821.83 L605.38 821.05 L600.06 815.44 L597.13 817.17 L593.12 815.30 L588.64 811.57 L586.11 814.61 L582.28 812.87 L579.54 815.22 L576.46 816.34 L574.04 820.29 L571.53 824.17 L569.40 830.17 L566.52 833.01 L562.44 829.71 L557.55 821.45 L554.29 821.74 L551.23 823.30 L547.02 817.18 L544.07 819.29 L541.37 823.55 L538.41 826.33 L535.74 832.25 L532.61 834.60 L529.42 836.64 L526.67 844.98 L523.05 842.62 L519.31 837.39 L515.67 832.03 L512.49 835.99 L508.98 830.56 L505.65 828.95 L502.36 829.44 L499.07 828.58 L495.77 829.24 L492.37 834.04 L488.96 835.98 L485.58 836.46 L481.78 844.45 L478.48 842.01 L475.51 835.63 L472.55 830.69 L469.20 830.81 L466.09 828.59 L463.21 824.70 L459.72 826.23 L455.84 830.50 L452.51 830.23 L448.28 835.79 L444.69 836.69 L440.91 838.47 L436.55 843.16 L433.75 839.30 L431.49 833.11 L427.96 833.35 L425.08 830.62 L423.00 824.71 L419.47 825.07 L416.46 823.36 L412.92 823.63 L409.72 822.65 L405.50 825.18 L401.14 827.89 L396.37 831.68 L392.73 831.65 L390.89 826.14 L390.80 815.87 L387.26 815.86 L384.05 814.88 L383.52 806.81 L379.13 809.02 L374.57 811.47 L370.69 812.06 L365.16 816.41 L361.35 816.54 L357.57 816.52 L350.99 822.49 L348.92 818.56 L348.01 812.38 L347.12 806.38 L342.54 807.82 L342.45 800.54 L340.00 797.93 L336.94 796.48 L334.54 793.85 L330.97 793.29 L325.61 795.71 L321.54 795.81 L317.86 795.20 L311.00 799.57 L309.52 795.32 L310.51 787.44 L310.73 780.95 L307.03 780.35 L306.21 775.60 L305.95 770.20 L300.91 771.43 L295.13 773.54 L291.82 772.24 L285.73 774.48 L281.53 774.16 L276.88 774.32 L271.47 775.30 L270.70 770.67 L271.53 764.29 L267.73 763.32 L267.08 758.79 L267.51 753.17 L263.62 752.29 L262.72 748.24 L259.07 747.06 L256.70 744.56 L251.69 744.65 L246.73 744.59 L241.03 745.13 L237.49 743.56 L236.87 739.28 L237.99 733.52 L233.11 733.12 L233.75 727.91 L235.52 721.85 L232.28 720.05 L230.75 716.83 L227.24 715.19 L221.32 715.38 L216.46 714.64 L212.49 713.15 L205.07 714.12 L205.11 709.62 L207.75 703.37 L210.34 697.31 L205.38 696.40 L207.83 690.57 L207.67 686.54 L205.69 683.68 L203.33 681.06 L201.37 678.18 L195.50 677.58 L191.72 675.68 L188.89 673.19 L180.70 673.59 L180.56 669.55 L181.19 665.15 L178.89 662.29 L180.22 657.62 L182.47 652.59 L180.24 649.74 L182.79 644.70 L179.17 642.49 L178.27 639.06 L176.03 636.20 L174.27 633.12 L166.88 632.26 L165.02 629.14 L166.66 624.70 L162.62 622.37 L156.82 620.61 L155.18 617.33 L157.80 612.63 L151.53 610.84 L151.52 607.02 L151.13 603.33 L153.99 598.73 L149.99 596.10 L148.84 592.65 L145.05 589.86 L143.16 586.55 L144.57 582.46 L148.45 577.86 L144.84 574.94 L148.27 570.55 L152.79 566.04 L151.29 562.72 L151.32 559.12 L148.55 555.98 L143.30 553.17 L138.36 550.21 L135.54 546.89 L128.89 543.98 L131.06 539.99 L135.58 535.81 L139.49 531.79 L136.17 528.42 L141.23 524.42 L141.15 520.82 L142.61 517.15 L143.26 513.55 L142.90 509.99 L138.16 506.50 L136.27 502.90 L135.61 499.26 L127.35 495.51 L128.86 491.82 L131.76 488.20 L130.53 484.46 L133.99 480.94 L137.66 477.49 L136.29 473.75 L141.14 470.49 L140.47 466.82 L141.07 463.25 L134.88 458.92 L132.56 454.93 L131.23 451.02 L126.70 446.62 L129.10 443.17 L134.30 440.22 L130.32 435.77 L134.18 432.66 L137.56 429.53 L131.56 424.53 L136.94 421.84 L138.03 418.28 L140.63 415.08 L138.51 410.76 L139.26 407.10 L136.89 402.61 L137.22 398.80 L139.76 395.62 L143.11 392.71 L137.99 387.21 L141.19 384.26 L144.63 381.43 L142.63 376.78 L145.83 373.91 L147.99 370.69 L146.32 366.05 L145.51 361.68 L149.98 359.37 L146.10 353.68 L149.96 351.17 L155.76 349.55 L159.47 347.09 L155.79 341.29 L160.09 339.13 L160.15 334.98 L160.83 331.10 L162.03 327.46 L167.87 326.23 L167.83 321.96 L167.74 317.60 L173.09 316.26 L168.93 309.54 L171.87 306.85 L175.81 304.77 L174.19 299.33 L177.00 296.58 L180.71 294.43 L178.74 288.58 L184.68 287.94 L184.91 283.49 L190.51 282.75 L189.01 277.02 L190.80 273.59 L194.06 271.24 L193.07 265.68 L198.31 264.87 L204.07 264.57 L203.11 258.91 L205.38 255.83 L210.84 255.43 L209.22 249.03 L212.49 246.80 L215.69 244.52 L221.01 244.21 L221.43 239.42 L223.88 236.49 L223.98 231.26 L226.39 228.22 L230.07 226.46 L234.50 225.52 L232.80 218.17 L237.07 217.06 L241.48 216.17 L242.10 211.10 L246.38 210.10 L249.86 208.24 L250.54 203.08 L252.13 198.91 L257.37 199.20 L256.83 192.28 L261.48 191.88 L266.81 192.47 L270.60 191.09 L271.25 185.44 L277.30 187.24 L277.84 181.29 L281.81 180.22 L285.39 178.62 L290.29 179.05 L292.10 174.76 L294.27 170.95 L299.57 172.18 L299.32 164.27 L303.18 163.12 L307.77 163.29 L308.91 157.38 L312.97 156.62 L317.35 156.54 L318.58 150.47 L324.13 152.71 L326.62 148.96 L331.90 150.91 L333.20 144.55 L336.22 141.71 L340.38 141.38 L342.48 136.33 L347.17 137.26 L352.49 139.87 L354.30 133.91 L359.26 135.81 L363.80 136.79 L365.05 128.88 L370.46 132.36 L374.23 131.33 L378.28 131.16 L381.21 127.57 L384.92 126.34 L387.47 121.19 L391.27 120.11 L395.48 120.49 L399.83 121.58 L402.03 114.32 L406.42 115.52 L410.73 116.60 L413.88 112.63 L418.25 114.10 L422.24 113.95 L425.30 108.99 L428.96 106.83 L433.50 109.70 L436.45 103.08 L440.91 105.69 L445.48 109.58 L449.63 110.94 L452.89 105.14 L457.16 107.66 L460.86 104.98 L464.76 104.04 L468.66 102.85 L472.99 107.85 L476.78 105.33 L480.63 103.14 L484.74 106.38 L488.48 99.58 L492.51 100.64 L496.52 102.86 L500.50 98.02 L504.50 99.51 L508.46 101.66 L512.60 96.86 L516.43 101.84 L520.52 99.82 L524.27 104.14 L528.59 99.30 L532.70 98.40 L536.62 99.78 L540.96 96.76 L544.65 100.27 L547.97 106.24 L552.46 102.57 L556.46 102.90 L559.86 107.20 L564.64 102.60 L568.45 104.21 L572.23 105.82 L575.64 109.32 L579.99 107.91 L583.94 108.57 L588.88 104.85 L592.68 106.36 L596.25 108.77 L599.70 111.55 L605.16 106.66 L608.54 109.72 L611.88 112.72 L616.60 111.03 L619.78 114.49 L623.40 116.42 L628.63 113.46 L632.98 113.33 L635.52 118.39 L641.44 114.00 L644.15 118.46 L646.69 123.17 L650.11 125.52 L655.38 123.32 L657.16 129.57 L662.85 126.59 L665.90 129.73 L669.46 131.71 L671.74 136.38 L676.42 135.94 L680.98 135.85 L683.22 140.42 L689.71 136.70 L692.74 139.72 L695.26 143.63 L701.26 141.24 L704.01 144.71 L706.47 148.62 L712.54 146.43 L713.55 152.66 L718.22 152.89 L719.56 158.39 L725.79 156.31 L729.83 157.66 L732.81 160.61 L737.95 160.45 L740.75 163.66 L743.34 167.12 L747.58 168.34 L750.57 171.23 L754.11 173.42 L757.36 175.98 L758.39 181.28 L761.99 183.36 L763.71 187.70 L767.20 189.91 L771.76 190.92 L777.22 191.00 L779.73 194.40 L783.37 196.58 L787.54 198.22 L791.53 200.10 L794.49 203.05 L796.54 206.90 L798.05 211.25 L799.19 215.89 L802.60 218.35 L807.30 219.66 L812.47 220.62 L813.33 225.44 L818.82 226.21 L819.96 230.75 L821.59 234.82 L826.09 236.54 L829.24 239.39 L830.68 243.59 L834.63 245.85 L833.74 251.75 L837.50 254.15 L836.09 260.28 L838.70 263.50 L844.19 264.75 L845.80 268.69 L850.63 270.50 L853.32 273.76 L856.20 276.90 L860.52 279.18 L862.32 283.03 L864.85 286.44 L866.04 290.64 L864.01 296.60 L868.56 298.86 L868.67 303.56 L872.61 306.23 L877.20 308.61 L879.34 312.27 L881.77 315.79 L882.64 320.07 L883.39 324.38 L886.45 327.63 L887.69 331.70 L889.71 335.44 L891.30 339.36 L889.77 344.52 L891.62 348.30 L890.89 353.07 L893.25 356.65 L896.46 359.95 L901.15 362.80 L902.32 366.87 L904.26 370.70 L907.46 374.16 L909.76 377.92 L910.93 382.03 L910.86 386.49 L909.97 391.13 L908.85 395.80 L910.62 399.71 L914.01 403.26 L918.36 406.64 L916.53 411.41 L920.95 414.86 L919.85 419.45 L919.28 423.90 L922.37 427.69 L923.67 431.82 L923.01 436.26 L925.27 440.26 L921.53 445.08 L924.05 449.06 L919.50 453.86 L920.16 458.03 L924.43 461.89 L924.04 466.19 L927.29 470.23 L928.03 474.48 L929.14 478.72 L931.88 482.91 L931.47 487.24 L931.96 491.55 L930.84 495.88 L957.03 500.00 L951.82 495.48 L950.28 490.99 L950.31 486.49 L949.39 482.01 L951.32 477.42 L951.33 472.89 L951.31 468.36 L953.81 463.62 L951.83 459.23 L954.93 454.35 L954.21 449.83 L949.18 445.84 L949.34 441.25 L944.37 437.38 L945.15 432.72 L942.42 428.60 L942.25 424.08 L943.59 419.28 L940.84 415.22 L937.46 411.32 L939.78 406.26 L936.69 402.35 L938.16 397.41 L938.85 392.60 L938.22 388.10 L934.30 384.47 L930.85 380.76 L928.11 376.90 L926.54 372.72 L926.71 368.00 L926.11 363.51 L925.30 359.06 L923.83 354.83 L924.50 349.84 L924.53 345.04 L923.42 340.62 L919.19 337.41 L917.89 333.09 L912.37 330.49 L910.46 326.46 L908.68 322.37 L906.14 318.63 L905.39 314.08 L901.87 310.81 L898.89 307.31 L897.26 303.18 L895.01 299.35 L895.60 294.05 L895.13 289.24 L890.59 286.62 L890.64 281.49 L883.96 280.16 L880.60 277.00 L878.45 273.15 L875.55 269.75 L875.07 264.85 L872.83 261.03 L870.61 257.19 L870.90 251.66 L866.71 249.12 L867.00 243.50 L864.28 239.94 L858.29 238.77 L855.92 235.00 L849.81 234.08 L848.38 229.62 L843.92 227.52 L841.95 223.48 L840.56 218.93 L836.19 216.83 L831.42 215.14 L831.04 209.66 L826.71 207.62 L825.73 202.58 L823.75 198.39 L821.07 194.84 L815.90 193.68 L811.20 192.14 L806.99 190.17 L803.62 187.38 L801.61 183.18 L798.93 179.64 L796.09 176.25 L792.69 173.47 L790.82 168.94 L788.69 164.67 L785.52 161.57 L780.35 160.87 L777.30 157.65 L771.30 158.11 L767.76 155.56 L764.29 152.92 L760.34 150.92 L757.55 147.36 L752.91 146.34 L748.69 144.78 L747.23 139.24 L742.32 138.71 L739.19 135.55 L738.14 129.11 L732.05 130.52 L729.33 126.62 L722.93 128.77 L721.69 122.32 L716.59 122.42 L712.15 121.43 L710.36 115.67 L705.22 115.99 L700.52 115.58 L699.71 107.62 L693.84 109.53 L690.65 106.13 L687.63 102.26 L682.41 103.10 L677.83 102.64 L673.53 101.62 L671.01 96.42 L664.77 100.05 L662.46 94.20 L657.74 94.28 L652.22 96.56 L646.93 98.47 L644.82 91.62 L639.61 93.46 L636.01 90.67 L632.83 86.47 L628.34 86.29 L623.39 87.72 L620.21 83.20 L615.33 84.56 L610.42 86.26 L607.89 78.88 L603.02 80.45 L598.36 81.43 L594.19 80.37 L590.65 76.33 L586.36 75.70 L582.63 72.18 L577.60 75.46 L573.17 75.76 L568.69 76.49 L565.24 70.63 L560.33 74.33 L556.06 73.85 L552.27 69.44 L547.28 75.03 L542.69 77.87 L538.83 73.47 L534.37 75.56 L530.19 74.31 L526.22 69.30 L521.68 73.57 L517.49 71.59 L513.04 76.58 L508.91 71.64 L504.60 74.15 L500.34 75.21 L496.05 71.32 L491.81 73.80 L487.61 75.98 L483.10 69.07 L479.01 73.81 L474.67 72.58 L470.26 70.88 L466.34 75.95 L462.12 76.44 L457.78 75.80 L453.42 75.14 L449.57 78.94 L444.63 73.86 L440.79 77.37 L437.31 82.99 L433.74 87.30 L428.65 82.35 L425.02 86.10 L420.61 85.39 L415.92 83.52 L411.98 85.44 L408.45 89.05 L403.53 86.51 L400.04 90.10 L396.70 94.09 L390.95 88.74 L387.58 92.52 L384.08 95.66 L379.85 96.21 L375.02 94.82 L371.07 96.40 L366.13 94.97 L362.81 98.43 L359.02 100.45 L356.91 107.04 L350.54 101.98 L347.72 106.46 L345.24 111.64 L339.63 108.96 L337.67 115.21 L335.00 119.55 L329.54 117.47 L326.79 121.53 L322.53 122.24 L316.72 119.80 L314.90 125.65 L310.34 125.90 L308.83 132.08 L302.99 129.93 L300.46 134.06 L297.17 136.72 L291.87 135.83 L289.33 139.79 L286.90 143.85 L279.65 139.96 L278.53 146.13 L274.18 147.07 L269.36 147.35 L267.33 151.90 L264.94 155.83 L261.70 158.47 L256.55 158.42 L256.39 165.33 L250.15 163.87 L248.24 168.27 L247.50 174.13 L246.09 178.99 L239.55 177.40 L238.18 182.26 L233.76 183.39 L229.24 184.48 L226.99 188.22 L225.48 192.75 L219.84 192.69 L218.90 197.77 L217.89 202.71 L210.38 200.85 L209.48 205.86 L207.87 210.08 L204.23 212.28 L199.83 213.79 L196.97 216.80 L192.12 217.98 L192.72 224.13 L190.76 227.90 L189.14 231.94 L182.54 231.74 L183.23 237.71 L180.69 240.94 L175.08 241.74 L176.44 248.05 L176.96 253.61 L171.17 254.36 L170.47 258.93 L167.73 261.99 L161.99 262.95 L163.45 268.96 L159.55 271.27 L161.34 277.35 L155.25 278.25 L155.12 283.01 L153.32 286.69 L148.60 288.60 L148.28 293.17 L148.28 297.88 L140.28 298.04 L142.27 303.83 L138.93 306.67 L135.56 309.53 L137.36 315.06 L135.87 318.87 L132.71 321.86 L130.52 325.34 L131.69 330.38 L124.61 331.64 L126.10 336.78 L129.14 342.51 L130.33 347.36 L123.90 349.09 L124.99 353.86 L121.32 356.78 L118.44 360.03 L118.34 364.31 L119.22 368.90 L114.35 371.52 L116.07 376.34 L117.61 381.04 L110.22 383.01 L111.95 387.75 L112.75 392.16 L110.32 395.67 L107.47 399.11 L106.16 402.96 L102.87 406.35 L104.40 410.87 L103.99 414.93 L108.21 419.93 L100.71 422.55 L103.39 427.18 L106.15 431.75 L101.19 434.99 L105.75 439.77 L107.15 444.00 L101.64 447.27 L100.03 451.13 L97.06 454.85 L90.68 458.27 L90.72 462.41 L89.73 466.45 L94.60 470.93 L92.92 474.89 L96.43 479.16 L99.36 483.33 L98.79 487.32 L101.44 491.39 L103.60 495.40 L95.56 499.36 L95.14 503.40 L93.97 507.47 L89.70 511.66 L89.64 515.77 L91.39 519.79 L93.15 523.79 L94.33 527.79 L100.25 531.41 L97.48 535.68 L103.09 539.19 L108.75 542.58 L112.14 546.14 L106.49 550.81 L104.48 555.09 L100.70 559.70 L97.85 564.24 L96.87 568.54 L98.55 572.39 L98.45 576.56 L105.18 579.38 L110.53 582.36 L108.73 586.84 L114.83 589.54 L118.28 592.77 L117.47 597.03 L117.18 601.19 L117.47 605.21 L116.43 609.64 L122.13 612.10 L124.01 615.65 L126.68 618.93 L123.06 624.25 L128.51 626.58 L129.65 630.34 L126.47 635.67 L125.34 640.34 L130.53 642.63 L131.28 646.59 L127.07 652.60 L128.84 656.23 L129.74 660.23 L132.24 663.53 L132.09 668.02 L138.39 669.54 L139.48 673.44 L145.39 674.99 L149.89 677.14 L151.85 680.55 L156.17 682.69 L159.93 685.08 L155.51 691.97 L156.80 695.78 L157.24 700.10 L155.38 705.83 L157.33 709.35 L159.47 712.74 L161.41 716.27 L166.11 718.00 L172.71 718.39 L172.05 723.60 L179.72 723.09 L186.93 722.75 L191.58 724.12 L188.65 731.04 L189.38 735.36 L188.89 740.66 L188.36 746.09 L189.82 750.02 L193.40 752.23 L194.97 756.09 L202.00 755.32 L207.85 755.41 L208.01 760.47 L214.52 759.83 L219.15 760.81 L220.16 765.13 L220.49 770.17 L220.59 775.53 L221.33 780.35 L224.71 782.55 L226.69 786.19 L231.49 786.84 L233.21 790.79 L239.31 789.90 L244.54 789.86 L246.42 793.60 L253.47 791.28 L258.34 791.38 L258.25 797.49 L260.24 801.14 L261.97 805.19 L261.56 812.10 L264.48 814.76 L264.66 821.17 L266.00 826.12 L272.05 824.49 L277.32 823.83 L279.69 827.34 L286.56 824.09 L293.78 820.04 L298.55 819.62 L297.98 827.74 L300.89 830.38 L303.32 833.85 L304.31 839.90 L307.17 842.81 L311.56 842.99 L314.62 845.56 L319.26 845.16 L325.51 841.49 L327.64 845.80 L333.71 842.16 L339.51 838.80 L344.18 837.63 L344.34 846.35 L347.14 849.41 L349.98 852.49 L351.63 858.51 L354.45 861.89 L356.78 866.66 L359.46 870.70 L365.84 864.82 L369.52 866.09 L373.02 867.86 L379.93 859.45 L385.02 856.00 L388.15 858.55 L390.56 863.56 L393.13 868.33 L395.92 872.59 L399.90 872.71 L403.41 874.55 L407.53 873.98 L410.99 876.08 L416.05 871.26 L420.28 869.69 L423.83 871.21 L428.75 865.78 L433.07 862.89 L435.65 869.56 L439.18 871.21 L442.74 872.83 L445.65 879.09 L449.47 879.43 L452.71 884.49 L456.41 886.24 L460.67 882.77 L464.71 880.93 L468.48 881.76 L472.71 876.34 L476.88 870.15 L480.71 867.93 L484.05 875.94 L487.80 876.40 L491.54 877.96 L495.26 882.58 L499.08 883.22 L502.91 881.88 L506.73 882.32 L510.48 879.56 L514.09 874.49 L517.97 877.13 L521.37 870.57 L524.69 864.64 L528.11 861.41 L532.42 869.06 L536.28 870.50 L540.18 871.96 L544.45 876.18 L548.48 877.85 L552.75 880.88 L556.71 881.36 L559.40 873.76 L563.26 873.86 L566.83 872.28 L568.78 862.31 L571.55 857.35 L575.65 859.15 L580.21 862.76 L584.48 864.73 L589.00 867.48 L592.49 865.86 L596.40 865.89 L599.29 862.11 L603.45 863.01 L605.51 856.68 L608.17 852.66 L611.78 851.85 L612.96 843.61 L615.71 840.46 L620.44 843.09 L624.30 843.06 L629.00 845.21 L634.45 849.12 L638.12 848.22 L643.57 851.65 L647.83 852.00 L649.64 846.56 L651.61 841.69 L655.43 841.05 L656.15 833.74 L656.54 826.04 L658.66 822.17 L665.50 827.74 L668.98 826.47 L672.80 825.84 L678.18 828.01 L681.48 826.26 L685.15 825.17 L688.54 823.55 L688.99 817.01 L692.11 815.02 L697.27 816.33 L701.14 815.46 L703.40 812.08 L705.97 809.22 L712.04 811.53 L715.43 809.81 L717.12 805.67 L718.41 801.07 L721.86 799.47 L727.45 800.68 L731.05 799.17 L729.04 790.53 L731.89 788.17 L734.38 785.36 L731.11 775.72 L730.91 769.95 L735.45 769.75 L741.02 770.62 L745.66 770.34 L749.79 769.42 L756.55 771.22 L763.71 773.26 L764.84 768.99 L768.56 767.38 L770.91 764.38 L770.24 758.49 L770.52 753.63 L769.48 747.63 L770.68 743.79 L776.56 744.12 L777.62 740.17 L779.71 737.12 L783.64 735.62 L783.51 730.76 L787.58 729.33 L792.62 728.60 L791.39 722.98 L790.82 717.97 L795.20 716.68 L792.05 709.91 L788.26 702.84 L788.05 698.41 L796.83 700.11 L798.88 697.18 L801.29 694.48 L807.41 694.10 L808.04 690.22 L810.70 687.59 L812.96 684.71 L810.58 679.14 L813.74 676.81 L818.74 675.45 L819.78 671.88 L819.94 667.86 L819.02 663.33 L824.66 662.14 L826.84 659.17 L826.91 655.18 L827.85 651.63 L830.60 648.90 L836.08 647.34 L839.30 644.73 L833.23 638.22 L834.50 634.84 L835.77 631.46 L828.09 624.69 L824.37 619.57 L828.02 617.21 L832.15 614.95 L837.51 613.04 L841.60 610.63 L847.92 608.84 L855.85 607.43 L856.07 603.62 L857.15 600.07 L852.46 594.97 L846.85 589.74 L843.08 585.12 L836.60 579.95 L836.02 576.27 L844.36 574.54 L845.74 571.23 L849.83 568.44 L853.24 565.44 L851.04 561.41 L855.45 558.53 L856.90 555.10 L853.56 550.97 L851.66 547.11 L852.51 543.65 L850.47 539.84 L846.11 535.84 L843.77 532.13 L851.95 529.34 L852.55 525.85 L852.15 522.28 L855.86 518.94 L856.63 515.41 L852.81 511.71 L855.01 508.23 L851.94 504.64 L848.70 501.11 L851.86 497.60 L852.58 494.07 L850.62 490.60 L850.86 487.08 L855.24 483.36 L854.91 479.81 L854.26 476.29 L853.20 472.82 L853.09 469.27 L855.99 465.43 L855.59 461.87 L848.36 459.12 L848.71 455.54 L846.16 452.34 L837.23 450.13 L832.35 447.45 L834.68 443.65 L837.48 439.70 L840.49 435.64 L842.83 431.64 L842.34 428.17 L841.98 424.67 L838.84 421.80 L840.20 417.89 L835.23 415.54 L833.21 412.49 L839.03 407.33 L836.80 404.31 L835.66 401.00 L839.40 396.19 L834.84 393.92 L833.76 390.57 L831.57 387.61 L826.84 385.55 L829.02 381.08 L829.78 377.07 L824.54 375.31 L821.20 372.89 L821.14 369.19 L813.57 368.60 L806.29 368.03 L802.61 366.02 L807.51 360.15 L806.98 356.67 L808.28 352.29 L812.69 346.32 L816.78 340.36 L817.58 335.95 L816.81 332.31 L811.48 331.12 L805.51 330.39 L802.62 328.01 L796.16 327.74 L792.98 325.64 L790.87 322.94 L792.67 317.80 L791.96 314.17 L788.94 312.01 L785.14 310.39 L783.35 307.47 L778.87 306.41 L778.09 302.80 L778.57 298.25 L776.62 295.41 L778.78 289.47 L780.74 283.55 L778.84 280.53 L780.20 274.89 L774.39 275.00 L768.88 274.99 L766.03 272.81 L756.49 276.48 L750.77 277.02 L746.10 276.73 L746.48 271.84 L740.59 272.78 L737.89 270.79 L738.07 265.98 L732.63 266.71 L729.64 265.05 L730.46 259.45 L725.41 259.97 L724.38 256.22 L724.10 251.59 L719.00 252.30 L720.20 245.87 L720.75 240.02 L715.15 241.43 L711.87 240.12 L711.18 235.61 L704.04 239.25 L697.29 242.61 L693.17 242.70 L694.95 234.85 L692.19 233.05 L690.10 230.30 L689.52 225.33 L687.37 222.55 L682.50 223.85 L680.30 221.16 L676.34 221.20 L671.27 223.14 L670.05 218.85 L667.61 216.52 L663.57 216.93 L659.44 217.61 L659.84 210.17 L657.95 206.70 L655.22 204.72 L652.11 203.48 L650.18 199.89 L648.99 194.68 L646.43 192.15 L639.93 198.07 L637.18 196.08 L633.50 196.15 L626.92 203.11 L622.00 206.53 L620.32 202.22 L618.64 197.68 L616.87 193.21 L614.66 189.73 L611.50 188.75 L608.67 186.81 L604.32 189.36 L601.81 186.48 L597.15 190.32 L593.32 191.75 L591.57 186.28 L587.43 188.90 L583.73 190.23 L582.16 183.52 L579.13 182.15 L576.32 179.78 L573.29 178.26 L569.72 179.15 L567.55 173.46 L564.97 169.28 L560.55 174.64 L556.75 177.11 L553.93 174.10 L549.40 181.73 L545.20 188.23 L541.77 190.13 L539.67 181.67 L536.51 181.08 L533.34 180.57 L530.64 174.99 L527.39 174.67 L524.00 176.17 L520.80 175.42 L517.36 178.64 L514.03 181.28 L510.92 178.86 L507.65 181.14 L504.41 184.56 L501.25 187.25 L498.07 179.19 L494.84 177.87 L491.61 177.70 L488.35 176.67 L485.02 174.71 L481.56 171.17 L478.29 171.59 L475.50 178.35 L472.16 177.14 L469.21 180.32 L466.90 189.00 L464.30 193.65 L460.69 189.74 L457.10 186.56 L453.83 186.08 L449.84 181.14 L446.58 181.17 L443.48 182.20 L440.54 184.07 L437.08 183.15 L435.19 189.86 L433.02 194.76 L428.43 188.77 L425.52 190.33 L423.74 196.29 L418.74 189.57 L414.99 188.02 L412.20 190.04 L409.50 192.27 L407.11 195.41 L402.46 191.27 L399.66 193.13 L396.74 194.57 L391.53 189.43 L387.19 187.09 L384.22 188.64 L379.52 185.67 L377.03 188.53 L375.48 193.60 L373.25 196.85 L371.04 200.03 L368.33 201.97 L368.40 210.01 L368.28 217.29 L365.29 218.27 L365.45 225.69 L365.20 232.00 L362.16 232.63 L359.09 233.26 L356.18 234.22 L353.78 236.13 L348.36 232.68 L344.08 231.44 L339.64 230.04 L336.79 231.40 L332.73 230.83 L328.97 230.82 L329.37 237.28 L328.08 241.00 L325.42 242.63 L326.30 249.35 L326.20 254.49 L324.73 257.59 L319.68 255.79 L315.56 255.37 L311.13 254.64 L305.60 252.61 L303.47 254.97 L301.90 258.02 L301.29 262.17 L301.32 266.97 L301.18 271.49 L301.98 276.95 L299.92 279.11 L300.32 283.94 L298.56 286.36 L292.00 283.77 L289.40 285.41 L285.96 286.23 L279.35 283.98 L276.56 285.59 L270.60 284.24 L271.02 288.91 L274.03 295.82 L270.91 297.12 L270.94 301.20 L273.53 307.39 L273.43 311.18 L271.57 313.46 L265.08 312.05 L262.17 313.59 L258.94 314.92 L250.77 312.58 L251.27 316.82 L253.00 321.88 L252.48 325.24 L252.82 329.16 L254.99 334.25 L254.34 337.37 L254.46 340.96 L254.78 344.62 L254.81 348.06 L248.23 347.44 L243.95 348.33 L238.36 348.53 L235.17 350.20 L230.59 351.15 L227.55 353.00 L231.12 358.38 L231.62 362.06 L230.43 364.84 L234.54 370.20 L236.90 374.60 L237.20 377.95 L232.00 378.78 L232.14 382.06 L233.78 385.94 L228.15 386.73 L227.24 389.54 L232.70 394.85 L230.98 397.27 L230.89 400.31 L233.83 404.41 L234.61 407.68 L224.47 407.23 L225.75 410.70 L220.42 412.05 L211.33 412.35 L213.53 416.14 L210.08 418.27 L208.73 421.02 L211.15 424.77 L205.08 426.33 L205.14 429.47 L203.82 432.28 L196.23 433.73 L192.16 436.06 L192.30 439.30 L187.23 441.54 L188.89 445.06 L191.80 448.75 L193.62 452.20 L197.72 455.93 L197.65 459.00 L203.47 462.81 L207.08 466.23 L207.24 469.21 L214.00 472.81 L217.37 475.98 L219.37 478.98 L222.02 481.97 L222.04 484.76 L215.70 487.26 L211.41 489.96 L207.95 492.76 L202.74 495.61 L204.05 498.59 L202.96 501.55 L201.30 504.55 L200.09 507.57 L195.93 510.71 L192.21 513.93 L190.38 517.12 L189.51 520.28 L187.30 523.57 L191.20 526.38 L195.26 529.11 L196.60 532.04 L199.54 534.77 L206.07 537.00 L209.55 539.52 L209.50 542.49 L216.55 544.35 L221.52 546.43 L224.69 548.74 L227.53 551.05 L229.64 553.46 L231.13 555.97 L224.46 560.24 L224.21 563.19 L222.66 566.47 L218.85 570.36 L220.03 573.05 L215.41 577.30 L217.07 579.90 L217.40 582.86 L211.43 587.76 L208.89 591.72 L210.49 594.41 L207.25 598.71 L210.54 600.84 L214.86 602.54 L218.13 604.56 L222.65 606.05 L224.74 608.42 L231.49 608.88 L236.09 610.10 L237.97 612.40 L245.52 612.19 L250.04 613.20 L253.30 614.71 L257.01 615.95 L258.15 618.39 L254.49 623.24 L252.00 627.61 L249.97 631.83 L247.19 636.55 L249.60 638.49 L249.64 641.76 L249.77 645.01 L250.38 648.01 L247.79 652.98 L246.09 657.50 L246.07 661.06 L246.54 664.33 L246.30 668.11 L250.52 668.94 L255.31 669.28 L258.21 670.88 L261.35 672.26 L268.91 670.35 L273.15 670.75 L274.62 673.20 L281.89 671.11 L287.28 670.34 L290.86 670.94 L288.48 676.44 L294.26 675.14 L293.67 679.23 L289.22 686.83 L292.87 687.32 L292.86 691.13 L293.34 694.55 L297.03 694.95 L297.26 698.66 L300.49 699.44 L303.96 699.93 L307.90 699.87 L309.78 701.92 L312.41 703.15 L314.92 704.50 L317.81 705.41 L316.89 710.65 L317.36 714.40 L320.72 714.77 L321.61 718.10 L324.07 719.54 L325.85 721.82 L328.22 723.37 L333.75 720.71 L337.15 720.76 L338.40 723.71 L343.11 721.83 L346.40 721.86 L348.69 723.28 L348.94 727.78 L350.98 729.67 L352.68 732.10 L356.62 730.96 L358.82 732.57 L362.50 731.71 L362.26 737.49 L365.24 737.80 L367.78 738.85 L366.83 746.35 L370.81 744.81 L372.31 747.95 L373.67 751.44 L378.95 747.06 L379.40 752.51 L382.17 753.19 L387.50 748.20 L389.71 749.94 L392.23 750.98 L395.03 751.37 L399.86 746.73 L402.92 746.20 L404.61 749.21 L408.14 747.35 L411.93 744.61 L411.51 753.71 L413.85 755.19 L416.19 756.72 L417.64 761.08 L420.21 762.03 L422.32 764.59 L425.53 763.37 L428.69 762.17 L431.99 760.28 L434.50 761.34 L437.48 760.46 L440.34 759.97 L443.21 759.32 L445.11 763.22 L447.64 764.30 L450.61 763.09 L453.27 763.39 L456.14 762.44 L458.90 762.05 L461.04 765.72 L464.09 763.23 L466.86 762.54 L469.04 766.67 L471.88 765.36 L474.68 764.17 L477.33 764.30 L479.87 765.79 L482.54 765.94 L485.13 767.37 L487.98 763.64 L490.53 766.21 L493.23 764.58 L495.84 766.95 L498.51 767.90 L501.17 764.99 L503.90 770.26 L506.53 767.35 L509.24 768.28 L512.03 770.55 L514.43 764.92 L517.17 766.21 L519.99 768.06 L522.10 761.19 L524.62 759.99 L527.27 760.22 L529.87 759.87 L531.87 754.78 L534.12 752.32 L536.83 753.22 L538.86 749.61 L540.88 746.37 L544.66 753.45 L547.28 753.46 L550.14 754.61 L553.64 758.72 L556.24 758.27 L559.22 759.45 L561.46 757.34 L563.48 754.50 L565.02 750.04 L568.10 751.51 L569.79 747.91 L572.07 746.53 L574.53 745.77 L577.95 748.10 L580.47 747.45 L582.63 745.70 L584.65 743.60 L586.44 740.96 L589.59 742.11 L592.58 742.71 L593.88 738.91 L596.05 737.43 L599.53 739.12 L602.21 738.79 L603.94 736.29 L606.10 734.78 L610.49 738.14 L613.31 737.94 L614.87 735.13 L616.26 732.07 L618.72 731.18 L619.70 727.46 L622.96 728.09 L622.56 722.00 L623.01 717.64 L625.64 717.20 L624.10 709.67 L624.88 706.26 L629.55 709.22 L632.26 708.90 L635.55 709.43 L642.16 714.90 L643.81 712.75 L645.40 710.52 L648.10 709.91 L649.05 706.84 L647.43 700.34 L648.84 698.07 L653.52 700.10 L654.40 697.13 L654.24 692.92 L662.04 698.58 L663.81 696.69 L664.80 693.91 L667.62 693.27 L668.68 690.62 L672.85 691.43 L676.63 691.73 L674.54 685.70 L677.15 684.74 L680.65 684.66 L677.36 677.70 L675.85 672.70 L675.86 669.30 L681.64 671.39 L684.04 670.20 L685.16 667.84 L688.67 667.62 L690.54 665.90 L691.97 663.79 L694.28 662.44 L691.39 656.80 L694.58 656.18 L695.04 653.38 L691.03 647.15 L693.73 646.17 L693.68 643.12 L697.52 642.92 L701.55 642.79 L705.68 642.65 L706.85 640.42 L711.06 640.21 L716.13 640.48 L716.58 637.71 L711.52 631.55 L713.34 629.74 L712.06 626.07 L705.04 619.14 L703.23 615.39 L709.56 616.22 L710.07 613.78 L713.25 612.75 L719.94 613.49 L718.89 610.19 L721.28 608.64 L723.23 606.83 L723.56 604.26 L720.66 600.23 L721.64 598.01 L720.57 594.92 L717.83 591.17 L716.76 588.18 L723.27 588.24 L723.68 585.82 L725.32 583.88 L730.83 583.31 L732.17 581.18 L736.53 580.06 L740.53 578.74 L734.48 574.17 L733.56 571.32 L735.83 569.44 L727.98 564.66 L722.20 560.63 L721.03 557.94 L729.37 557.68 L732.21 555.93 L734.09 553.91 L737.39 552.18 L738.82 550.00 L736.85 547.12 L738.30 544.93 L733.58 541.63 L729.02 538.46 L730.77 536.38 L725.82 533.29 L722.22 530.49 L724.72 528.55 L730.10 526.90 L733.94 524.98 L738.34 523.04 L739.02 520.70 L742.65 518.57 L747.24 516.43 L746.51 513.91 L739.85 511.13 L740.92 508.77 L737.71 506.27 L728.08 503.73 L724.43 501.43 L729.69 499.17 L730.94 496.85 L735.00 494.45 L738.61 491.97 L737.70 489.62 L739.92 487.12 L738.69 484.79 L737.22 482.50 L731.57 480.59 L730.10 478.39 L727.41 476.35 L720.48 474.84 L715.03 473.28 L723.59 469.94 L725.00 467.46 L726.82 464.88 L731.67 461.75 L732.73 459.18 L737.08 455.97 L737.77 453.38 L730.56 452.39 L729.13 450.29 L728.74 447.98 L720.31 447.57 L714.52 446.68 L712.46 444.93 L718.73 440.96 L720.91 438.00 L721.75 435.36 L723.30 432.48 L723.24 430.06 L721.71 428.09 L721.82 425.60 L715.10 425.45 L710.20 424.78 L710.99 422.11 L704.77 422.08 L700.05 421.57 L701.03 418.86 L709.86 412.84 L712.16 409.39 L713.74 406.18 L715.28 402.92 L716.53 399.74 L716.76 396.99 L707.61 398.78 L703.15 398.43 L703.61 395.64 L696.75 396.66 L690.29 397.61 L688.63 396.06 L690.57 392.50 L688.01 391.44 L690.20 387.63 L689.31 385.59 L683.10 386.83 L684.95 383.11 L680.77 383.20 L676.71 383.31 L675.68 381.44 L674.29 379.83 L673.16 378.04 L669.95 377.74 L667.16 377.19 L672.77 370.38 L672.64 367.77 L672.69 364.97 L676.18 359.38 L676.17 356.48 L678.01 351.99 L678.45 348.59 L671.52 351.48 L668.79 350.87 L667.75 348.78 L659.92 352.91 L654.47 355.05 L651.67 354.80 L654.91 348.69 L656.01 344.54 L656.31 341.09 L655.71 338.50 L654.70 336.31 L654.07 333.67 L651.79 332.81 L646.19 335.71 L641.60 337.63 L640.07 336.10 L635.65 338.03 L631.70 339.50 L631.09 336.95 L633.90 330.00 L633.19 327.38 L633.55 323.29 L631.64 322.14 L631.56 318.49 L631.91 314.12 L629.09 314.18 L623.86 317.84 L622.32 316.19 L618.88 317.42 L612.11 324.00 L608.77 325.41 L610.70 318.29 L609.27 316.53 L609.86 311.28 L609.79 306.99 L606.83 307.73 L604.89 306.69 L602.40 306.71 L599.44 307.66 L594.64 312.38 L592.21 312.55 L590.61 311.06 L586.97 313.89 L583.37 316.84 L585.46 307.17 L584.17 304.82 L581.41 305.92 L581.80 299.39 L579.84 298.45 L577.27 299.09 L575.45 297.82 L572.18 300.50 L568.70 304.02 L566.79 303.20 L563.33 307.05 L560.47 309.37 L557.78 311.33 L557.80 304.29 L556.64 300.90 L555.12 298.63 L554.03 294.55 L552.09 293.57 L549.71 294.34 L548.41 290.56 L544.90 296.49 L541.96 300.37 L540.39 297.83 L537.67 301.10 L535.11 303.90 L533.33 302.46 L532.43 295.34 L530.50 294.25 L528.92 290.51 L526.92 289.43 L524.73 289.91 L522.21 293.57 L520.37 290.97 L517.80 296.31 L515.24 302.84 L513.48 299.55 L511.19 304.50 L509.11 306.91 L507.48 298.88 L505.49 297.92 L503.48 297.16 L501.51 289.27 L499.41 290.51 L497.34 292.80 L495.27 292.72 L493.21 293.42 L491.30 296.93 L489.23 296.27 L487.02 293.63 L484.91 293.23 L482.87 293.69 L480.35 288.98 L478.31 289.83 L476.20 289.95 L474.07 289.93 L472.22 292.12 L470.54 295.18 L468.48 295.34 L467.05 299.44 L465.86 304.43 L463.22 301.06 L461.88 304.75 L459.98 305.42 L458.16 306.39 L455.25 302.49 L452.17 298.31 L450.36 299.63 L448.22 299.60 L445.85 298.73 L443.49 298.05 L441.36 298.23 L440.81 303.67 L439.61 306.72 L437.73 307.49 L437.42 312.93 L436.36 315.91 L433.24 312.97 L430.12 310.24 L427.93 310.17 L424.63 307.30 L423.58 310.24 L421.82 311.33 L421.65 316.13 L419.12 315.35 L419.18 320.39 L419.73 326.27 L416.87 324.72 L416.88 329.16 L416.07 331.80 L411.91 327.80 L409.21 326.80 L405.76 324.51 L401.89 321.61 L401.22 324.57 L397.95 322.94 L392.89 318.37 L395.04 326.03 L395.75 331.05 L392.17 329.09 L391.92 332.42 L394.14 339.42 L393.02 341.20 L387.03 335.87 L385.94 337.79 L384.35 338.97 L381.34 338.22 L380.07 339.87 L378.62 341.27 L377.49 343.07 L377.86 346.73 L379.56 351.92 L378.11 353.17 L379.28 357.49 L380.50 361.77 L379.75 363.68 L372.72 358.59 L369.57 357.96 L366.90 357.94 L364.01 357.73 L361.00 357.47 L361.89 361.18 L360.17 362.24 L361.32 366.07 L363.83 371.10 L360.89 370.93 L361.46 374.01 L361.31 376.39 L357.48 375.51 L354.07 375.08 L351.51 375.45 L348.36 375.36 L348.44 377.95 L346.86 379.18 L348.50 382.91 L346.43 383.75 L349.31 388.28 L352.23 392.72 L349.66 393.13 L351.89 396.93 L352.48 399.51 L347.39 398.27 L344.33 398.46 L341.05 398.57 L334.50 396.71 L336.07 399.95 L332.77 400.22 L327.72 399.53 L333.14 404.91 L336.61 409.04 L335.82 410.74 L339.36 414.74 L343.87 419.12 L344.84 421.58 L336.87 419.59 L334.14 420.30 L330.62 420.68 L326.81 421.00 L326.55 422.97 L325.29 424.49 L323.86 425.95 L330.03 430.54 L330.49 432.70 L327.04 433.32 L330.98 436.77 L330.56 438.54 L330.75 440.52 L325.62 440.67 L320.73 441.00 L321.39 443.19 L320.30 444.81 L318.54 446.25 L317.40 447.89 L316.79 449.70 L320.47 452.63 L322.07 454.95 L320.78 456.53 L323.25 458.99 L323.61 460.93 L319.23 461.86 L315.91 463.07 L315.09 464.83 L313.50 466.46 L317.19 469.00 L317.42 470.92 L321.30 473.36 L319.52 474.94 L323.35 477.27 L327.99 479.61 L321.78 480.68 L328.28 483.12 L326.91 484.74 L320.95 486.01 L320.21 487.76 L317.14 489.39 L314.51 491.10 L318.16 493.09 L314.75 494.82 L309.02 496.57 L316.84 498.54 L320.30 500.37 L318.06 502.19 L320.63 503.95 L323.67 505.65 L325.04 507.36 L317.40 509.51 L317.15 511.36 L318.67 513.08 L317.86 514.98 L319.54 516.66 L322.05 518.22 L321.53 520.08 L326.25 521.31 L329.97 522.58 L326.22 524.85 L331.06 525.89 L331.29 527.58 L332.25 529.15 L329.37 531.41 L324.40 534.14 L324.86 535.87 L326.12 537.43 L326.22 539.23 L328.20 540.59 L327.21 542.66 L331.37 543.42 L333.67 544.61 L330.87 547.18 L332.09 548.65 L333.54 550.04 L330.41 552.84 L330.61 554.64 L330.93 556.41 L329.41 558.82 L333.65 559.23 L334.32 560.86 L338.56 561.14 L338.54 563.00 L343.38 562.92 L348.03 562.83 L343.79 566.42 L350.67 565.27 L350.03 567.34 L344.28 571.80 L344.79 573.46 L344.54 575.49 L340.54 579.41 L345.78 578.73 L344.22 581.51 L339.58 585.98 L347.18 583.89 L350.94 583.78 L348.80 586.98 L349.27 588.73 L352.73 588.68 L355.44 589.03 L349.40 594.85 L350.65 596.16 L354.47 595.77 L355.74 597.02 L357.86 597.67 L360.99 597.58 L360.93 599.71 L366.67 597.63 L370.30 596.98 L368.21 600.61 L373.07 598.92 L373.65 600.52 L374.63 601.80 L373.77 604.62 L370.33 609.67 L371.21 611.16 L373.43 611.47 L372.94 614.18 L371.02 618.26 L371.43 620.26 L378.40 616.04 L378.89 617.91 L379.76 619.44 L384.96 616.58 L387.59 616.22 L386.59 619.62 L386.33 622.32 L385.85 625.33 L386.96 626.63 L390.32 625.36 L390.99 627.14 L394.14 625.99 L395.77 626.61 L400.04 623.93 L402.80 623.00 L402.01 626.58 L407.38 622.16 L407.85 624.08 L405.00 630.63 L405.87 632.20 L406.52 634.11 L406.81 636.58 L409.57 635.42 L408.26 640.41 L409.08 642.24 L413.31 638.66 L415.23 638.65 L415.80 640.86 L419.03 638.59 L421.82 636.93 L423.34 637.45 L422.01 643.19 L422.89 645.00 L424.71 645.06 L425.80 646.53 L427.62 646.54 L430.17 645.01 L430.72 647.63 L434.87 642.49 L437.93 639.46 L437.68 643.87 L441.11 639.77 L442.36 640.72 L443.76 641.33 L443.83 645.37 L443.48 650.72 L445.36 650.27 L447.16 649.97 L448.14 652.01 L448.52 656.00 L450.06 656.57 L453.55 650.81 L454.61 652.80 L456.14 653.24 L459.11 648.48 L461.01 647.29 L461.29 652.40 L462.39 654.51 L463.69 655.95 L464.95 657.67 L467.51 653.37 L469.08 653.50 L471.05 651.52 L472.62 651.55 L474.87 647.49 L476.53 646.62 L477.56 649.76 L480.04 642.90 L481.33 644.16 L481.83 652.28 L483.31 652.83 L484.85 652.85 L486.18 655.30 L487.89 653.40 L489.17 657.32 L490.61 659.55 L492.48 654.16 L494.06 653.13 L495.52 655.63 L497.14 652.65 L498.69 649.36 L500.18 648.40 L501.73 653.52 L503.19 650.13 L504.64 648.55 L505.99 645.26 L507.23 640.90 L508.39 636.86 L510.08 641.19 L511.41 640.14 L512.56 637.28 L514.51 642.79 L515.49 638.66 L516.42 634.81 L517.44 632.10 L519.27 635.51 L520.64 635.42 L522.49 638.25 L523.52 636.00 L524.83 635.48 L525.36 631.00 L527.87 636.61 L528.59 633.33 L529.35 630.51 L531.93 635.59 L532.13 630.59 L532.67 627.29 L534.92 630.60 L535.63 628.12 L537.16 628.63 L539.83 632.88 L539.84 628.23 L541.46 628.89 L541.21 623.84 L544.61 629.72 L544.67 625.79 L546.13 625.89 L548.43 628.18 L547.41 621.78 L548.05 619.88 L551.32 624.42 L550.64 619.37 L552.73 620.91 L555.52 623.91 L555.16 619.88 L556.00 618.57 L556.69 616.99 L559.38 619.47 L558.37 614.55 L562.22 619.14 L562.79 617.37 L562.00 613.16 L561.35 609.35 L565.26 613.65 L564.60 609.95 L566.45 610.54 L569.22 612.59 L569.78 610.99 L569.06 607.46 L572.83 610.86 L573.21 609.05 L572.70 605.98 L576.98 609.85 L575.73 605.80 L574.62 602.08 L574.33 599.58 L577.28 601.39 L578.39 600.75 L581.52 602.63 L581.02 599.93 L581.85 598.93 L580.04 594.78 L584.92 598.56 L583.84 595.36 L583.09 592.62 L587.74 595.85 L585.37 591.41 L584.21 588.38 L587.83 590.35 L587.03 587.76 L588.59 587.56 L592.91 590.01 L590.57 586.01 L592.02 585.65 L589.33 581.49 L595.21 585.13 L593.06 581.55 L594.75 581.37 L597.65 582.17 L593.56 577.15 L592.69 574.88 L597.97 577.55 L594.86 573.55 L597.13 573.77 L601.26 575.33 L599.26 572.31 L599.12 570.70 L599.23 569.29 L602.41 569.99 L599.06 566.26 L604.88 568.64 L604.26 566.76 L601.46 563.55 L598.94 560.60 L604.70 562.70 L608.87 563.73 L612.70 564.46 L617.28 565.53 L622.08 566.62 L623.66 565.89 L621.50 563.18 L622.28 562.04 L620.45 559.61 L618.28 557.07 L616.13 554.61 L611.32 550.99 L607.99 548.17 L604.33 545.29 L601.72 542.95 L600.19 541.13 L598.94 539.47 L598.26 538.06 L598.06 536.86 L598.12 535.77 L598.29 534.72 L598.45 533.67 L598.61 532.63 L598.76 531.59 L598.90 530.54 L599.02 529.50 L599.14 528.46 L599.24 527.42 L599.34 526.38 L599.42 525.34 L599.49 524.30 L599.55 523.26 L599.60 522.23 L599.64 521.19 L599.67 520.16 L599.68 519.13 L599.69 518.09 L599.69 517.07 L599.67 516.04 L599.65 515.02 L599.61 513.99 L599.57 512.97 L599.51 511.95 L599.44 510.94 L599.37 509.93 L599.28 508.91 L599.18 507.91 L599.07 506.90 L598.96 505.90 L598.83 504.90 L598.69 503.91 L598.54 502.91 L598.38 501.92 L598.22 500.94 Z"/>
  <svg class="pausebutton" id="pausebutton">
    <circle cx="500" cy="500" id="pausestart" class="pausestart" r="52.65"/>
    <rect height="50.02" width="10.00" y="473.68" rx="2.00" ry="2.00" x="479.99" class="pausesymbol"/>
    <rect height="50.02" width="10.00" y="473.68" rx="2.00" ry="2.00" x="510.00" class="pausesymbol"/>
    <polygon points="530.01,500 479.99,530.01 479.99,469.99" class="playsymbol"/>
  </svg>
  <polygon id="playback-head" class="playback-head" points="941.65,500 921.65,540 961.65,540"/>
</svg>