<?xml-stylesheet href="../../style/waveformjs.css" type="text/css"?>
<svg xmlns="http://www.w3.org/2000/svg" xmlns:xlink="http://www.w3.org/1999/xlink" width="100%" height="100%" viewBox="0 0 1000 1000">
  <path class="svg-wave" id="sp" d="M603.12 500.00 L603.22 501.03 L603.31 502.07 L603.37 503.10 L603.42 504.14 L603.47 505.18 L603.53 506.22 L603.58 507.26 L603.62 508.31 L603.64 509.35 L603.66 510.40 L603.66 511.45 L603.66 512.50 L603.64 513.55 L603.62 514.60 L603.58 515.65 L603.53 516.71 L603.47 517.76 L603.40 518.82 L603.32 519.87 L603.23 520.93 L603.13 521.98 L603.01 523.04 L602.89 524.09 L602.76 525.15 L602.61 526.20 L602.46 527.26 L602.29 528.31 L602.11 529.36 L601.92 530.41 L601.71 531.46 L601.49 532.51 L601.24 533.55 L600.94 534.58 L600.60 535.59 L600.21 536.58 L599.78 537.56 L599.34 538.53 L598.86 539.48 L598.34 540.43 L597.77 541.34 L597.20 542.24 L596.60 543.14 L595.99 544.02 L595.33 544.88 L594.67 545.73 L593.99 546.57 L593.32 547.40 L592.65 548.24 L592.03 549.09 L591.41 549.94 L590.83 550.81 L590.26 551.68 L589.71 552.56 L589.13 553.43 L588.53 554.28 L587.90 555.11 L587.31 555.96 L586.79 556.86 L586.24 557.74 L585.60 558.56 L584.90 559.34 L584.05 560.00 L583.15 560.63 L582.67 561.55 L581.72 562.12 L581.50 563.25 L580.99 564.17 L580.79 565.33 L580.02 566.05 L579.43 566.90 L578.97 567.88 L578.46 568.81 L577.73 569.56 L576.58 569.93 L576.13 570.92 L575.34 571.61 L574.81 572.54 L573.96 573.17 L573.36 574.04 L572.80 574.96 L572.20 575.84 L571.52 576.65 L570.43 577.01 L569.96 578.05 L569.24 578.82 L568.72 579.82 L567.80 580.37 L567.14 581.22 L566.48 582.08 L565.80 582.91 L565.03 583.65 L563.87 583.88 L563.33 584.92 L562.50 585.57 L561.92 586.58 L560.88 586.96 L560.19 587.82 L559.39 588.55 L558.61 589.31 L557.76 589.95 L556.54 590.03 L555.94 591.08 L554.99 591.58 L554.37 592.63 L553.23 592.79 L552.48 593.65 L551.63 594.34 L550.81 595.07 L549.87 595.60 L548.65 595.58 L547.97 596.62 L546.93 596.96 L546.22 597.98 L545.04 597.99 L544.25 598.88 L543.35 599.52 L542.44 600.15 L541.48 600.68 L540.29 600.64 L539.56 601.75 L538.55 602.16 L537.81 603.31 L536.69 603.46 L535.78 604.20 L534.81 604.76 L533.83 605.32 L532.82 605.80 L531.63 605.68 L530.63 606.19 L529.47 606.15 L528.54 606.95 L527.34 606.71 L526.38 607.43 L525.34 607.85 L524.31 608.29 L523.25 608.65 L522.11 608.61 L521.11 609.32 L520.03 609.57 L519.06 610.50 L517.91 610.41 L516.87 611.00 L515.77 611.29 L514.69 611.70 L513.58 611.90 L512.44 611.85 L511.32 611.91 L510.16 611.59 L509.09 612.25 L507.92 611.71 L506.84 612.30 L505.72 612.48 L504.60 612.78 L503.48 612.93 L502.35 612.92 L501.22 613.22 L500.09 613.28 L498.95 614.02 L497.82 613.70 L496.66 614.17 L495.52 614.20 L494.36 614.55 L493.21 614.52 L492.07 614.40 L490.92 614.37 L489.81 613.91 L488.63 614.28 L487.54 613.60 L486.32 614.21 L485.18 614.10 L483.99 614.24 L482.86 614.05 L481.68 614.12 L480.45 614.46 L479.25 614.53 L477.95 615.16 L476.86 614.62 L475.56 615.12 L474.36 615.08 L473.14 615.14 L472.07 614.55 L470.84 614.59 L469.66 614.40 L468.52 614.11 L467.33 613.97 L466.38 613.00 L464.79 614.13 L463.48 614.32 L462.10 614.68 L461.16 613.70 L459.85 613.80 L458.64 613.59 L457.20 613.99 L455.93 613.90 L455.10 612.67 L454.18 611.73 L453.42 610.42 L452.21 610.19 L451.29 609.31 L450.42 608.35 L449.52 607.45 L448.53 606.77 L447.11 606.96 L446.06 606.40 L444.85 606.13 L444.06 605.08 L442.73 605.04 L441.48 604.82 L440.15 604.72 L439.13 604.07 L437.88 603.82 L436.73 603.39 L435.82 602.55 L434.50 602.38 L433.61 601.51 L432.31 601.27 L431.39 600.46 L430.22 600.00 L429.18 599.37 L427.83 599.15 L426.75 598.54 L426.04 597.45 L424.71 597.17 L423.81 596.32 L422.54 595.95 L421.77 594.94 L420.85 594.12 L419.81 593.44 L418.42 593.16 L417.46 592.38 L416.79 591.27 L415.59 590.76 L414.75 589.83 L413.53 589.32 L412.99 588.10 L412.45 586.89 L412.16 585.45 L411.82 584.08 L411.72 582.50 L411.28 581.27 L409.92 580.87 L408.96 580.11 L407.79 579.52 L407.11 578.49 L405.98 577.85 L404.94 577.13 L403.55 576.66 L402.00 576.31 L400.63 575.79 L399.55 575.04 L398.58 574.19 L397.77 573.23 L396.77 572.39 L395.99 571.40 L395.21 570.41 L394.31 569.48 L393.65 568.41 L393.03 567.30 L392.47 566.16 L391.71 565.15 L390.94 564.13 L390.34 563.02 L389.71 561.92 L389.08 560.82 L388.36 559.78 L387.59 558.75 L386.64 557.81 L385.95 556.73 L385.22 555.67 L384.39 554.65 L383.73 553.55 L382.84 552.54 L382.29 551.38 L381.97 550.12 L381.43 548.96 L380.82 547.82 L380.10 546.73 L380.09 545.35 L379.69 544.13 L379.19 542.95 L378.53 541.82 L378.01 540.64 L377.61 539.42 L376.93 538.29 L376.41 537.10 L375.79 535.93 L375.12 534.77 L374.49 533.60 L373.90 532.41 L373.55 531.16 L373.10 529.93 L372.62 528.70 L372.20 527.45 L371.96 526.17 L371.81 524.87 L371.71 523.56 L371.51 522.27 L371.35 520.97 L371.06 519.70 L370.89 518.40 L370.82 517.10 L370.66 515.80 L370.43 514.52 L370.15 513.24 L369.94 511.95 L369.57 510.67 L369.22 509.38 L368.90 508.09 L368.53 506.79 L368.44 505.48 L368.58 504.15 L368.57 502.84 L368.38 501.53 L368.39 500.21 L369.07 498.90 L369.80 497.60 L369.50 496.29 L369.64 494.99 L369.54 493.68 L370.42 492.42 L370.02 491.09 L369.73 489.76 L369.97 488.47 L370.10 487.18 L370.41 485.90 L369.51 484.48 L368.99 483.08 L368.75 481.72 L369.35 480.47 L369.37 479.13 L368.94 477.72 L368.77 476.34 L369.83 475.18 L370.97 474.06 L370.52 472.62 L371.24 471.42 L371.29 470.08 L371.68 468.81 L371.49 467.40 L371.64 466.07 L371.94 464.78 L372.11 463.44 L372.15 462.07 L371.44 460.46 L372.04 459.23 L372.04 457.82 L372.58 456.58 L372.64 455.17 L372.41 453.65 L372.74 452.33 L373.84 451.30 L375.33 450.43 L375.36 449.00 L376.30 447.93 L376.43 446.53 L377.32 445.45 L377.16 443.90 L377.82 442.72 L378.25 441.43 L378.53 440.06 L378.93 438.75 L378.53 437.01 L379.54 435.99 L379.65 434.50 L380.78 433.56 L380.81 432.01 L381.32 430.72 L381.87 429.45 L383.27 428.69 L384.51 427.85 L384.85 426.45 L386.17 425.68 L386.68 424.39 L387.89 423.56 L388.18 422.11 L388.68 420.79 L389.43 419.65 L390.15 418.49 L390.52 417.05 L390.46 415.26 L391.58 414.39 L392.14 413.07 L393.31 412.23 L393.62 410.68 L394.32 409.45 L395.00 408.21 L396.65 407.80 L397.80 406.98 L398.54 405.79 L399.82 405.09 L400.56 403.88 L401.98 403.34 L402.50 401.91 L403.16 400.61 L404.09 399.57 L405.05 398.56 L405.98 397.53 L406.18 395.66 L407.26 394.77 L407.72 393.16 L409.07 392.56 L409.74 391.17 L410.62 390.00 L411.62 388.99 L413.14 388.64 L414.44 388.00 L415.43 386.98 L416.83 386.50 L418.02 385.75 L419.57 385.51 L420.13 383.85 L421.37 383.17 L422.44 382.24 L423.66 381.52 L424.42 380.08 L425.14 378.55 L426.32 377.74 L427.32 376.62 L428.85 376.42 L429.55 374.75 L430.87 374.17 L432.06 373.35 L433.74 373.46 L435.18 373.15 L436.42 372.44 L437.81 372.03 L439.10 371.44 L440.64 371.38 L441.39 369.59 L442.73 369.09 L443.81 367.99 L445.14 367.44 L446.13 366.06 L447.27 365.01 L448.49 364.13 L449.78 363.44 L451.34 363.49 L452.49 362.36 L453.84 361.83 L455.16 361.16 L456.85 361.69 L458.27 361.37 L459.65 360.94 L461.03 360.47 L462.44 360.16 L463.98 360.31 L465.11 358.91 L466.62 358.96 L467.95 358.26 L469.33 357.79 L470.59 356.65 L471.90 355.77 L473.36 355.56 L474.89 355.77 L476.40 355.96 L477.66 354.55 L479.22 355.05 L480.71 355.14 L482.28 355.91 L483.76 356.07 L485.17 355.63 L486.57 355.10 L488.07 355.48 L489.52 355.46 L490.91 354.50 L492.33 353.82 L493.77 353.17 L495.23 352.74 L496.69 352.10 L498.16 351.63 L499.64 350.73 L501.14 350.59 L502.63 350.51 L504.13 350.31 L505.63 350.39 L507.12 350.65 L508.59 351.11 L510.06 351.46 L511.59 350.95 L513.10 350.81 L514.56 351.29 L516.00 351.89 L517.41 352.64 L518.99 352.02 L520.59 351.35 L522.05 351.71 L523.57 351.71 L525.06 351.91 L526.69 351.33 L528.20 351.47 L529.62 352.06 L531.19 351.91 L532.71 352.08 L534.17 352.49 L535.44 353.66 L536.80 354.42 L538.30 354.61 L539.95 354.30 L541.45 354.54 L542.85 355.14 L544.35 355.41 L545.88 355.59 L547.70 354.90 L549.14 355.41 L550.66 355.68 L552.06 356.31 L553.89 355.77 L555.26 356.52 L556.73 356.99 L558.08 357.74 L559.55 358.21 L560.92 358.90 L562.11 360.03 L563.41 360.86 L564.85 361.38 L566.21 362.10 L567.41 363.12 L568.97 363.41 L570.37 364.05 L571.64 364.92 L572.96 365.68 L574.66 365.78 L576.49 365.67 L577.87 366.36 L579.32 366.96 L580.60 367.83 L581.88 368.70 L583.66 368.80 L584.83 369.85 L585.82 371.15 L586.98 372.21 L588.07 373.34 L589.30 374.28 L590.46 375.31 L591.74 376.17 L592.76 377.37 L594.55 377.57 L595.75 378.55 L597.47 378.88 L598.82 379.68 L600.62 379.96 L602.34 380.36 L603.79 381.09 L604.83 382.29 L605.83 383.53 L607.29 384.28 L608.84 384.93 L609.79 386.23 L610.42 387.85 L610.96 389.53 L612.76 389.96 L614.25 390.71 L614.81 392.36 L615.67 393.71 L616.36 395.20 L618.02 395.82 L619.21 396.87 L620.51 397.84 L622.05 398.62 L623.14 399.77 L624.39 400.80 L625.18 402.21 L626.37 403.29 L627.22 404.65 L628.94 405.36 L629.14 407.18 L629.73 408.71 L630.65 410.01 L631.74 411.19 L632.96 412.28 L633.95 413.54 L634.82 414.87 L635.83 416.12 L637.30 417.10 L638.41 418.31 L639.63 419.46 L640.76 420.68 L641.76 421.97 L643.02 423.13 L643.60 424.66 L644.46 426.04 L645.60 427.28 L646.56 428.63 L646.71 430.36 L646.69 432.16 L647.06 433.76 L647.91 435.15 L648.56 436.63 L648.63 438.35 L649.60 439.69 L650.33 441.14 L650.92 442.64 L651.15 444.28 L652.84 445.39 L654.70 446.46 L655.94 447.77 L657.23 449.08 L657.64 450.69 L658.45 452.17 L659.44 453.60 L660.82 454.94 L661.10 456.59 L661.30 458.27 L661.82 459.85 L661.98 461.53 L663.11 462.98 L662.88 464.74 L662.83 466.45 L663.96 467.92 L664.92 469.45 L664.77 471.18 L664.18 472.97 L665.13 474.50 L665.99 476.07 L667.40 477.57 L667.55 479.25 L667.63 480.94 L668.12 482.59 L669.20 484.19 L669.01 485.91 L668.82 487.62 L669.09 489.30 L668.95 491.01 L669.79 492.66 L669.20 494.38 L668.73 496.09 L669.70 497.76 L670.47 499.46 L669.82 501.16 L668.82 502.84 L669.25 504.54 L669.80 506.25 L670.78 508.00 L670.58 509.70 L670.35 511.40 L670.47 513.12 L671.17 514.90 L670.76 516.58 L670.24 518.25 L670.25 519.98 L669.68 521.63 L670.18 523.43 L669.24 525.03 L668.54 526.65 L669.25 528.50 L669.58 530.30 L668.70 531.89 L667.35 533.37 L667.76 535.20 L667.79 536.96 L668.52 538.89 L667.90 540.52 L667.57 542.22 L667.35 543.95 L667.74 545.85 L666.98 547.44 L666.21 549.02 L665.94 550.75 L665.18 552.33 L665.22 554.17 L664.07 555.62 L663.11 557.12 L663.42 559.07 L663.35 560.89 L662.18 562.31 L660.71 563.60 L660.35 565.32 L660.01 567.05 L660.50 569.15 L659.65 570.69 L658.88 572.26 L658.17 573.85 L658.29 575.84 L657.60 577.46 L656.70 578.97 L656.08 580.63 L655.05 582.07 L654.72 583.89 L653.29 585.10 L652.07 586.42 L652.04 588.43 L651.58 590.20 L650.19 591.42 L648.65 592.54 L648.27 594.37 L647.70 596.09 L647.57 598.12 L646.25 599.37 L645.43 600.96 L644.51 602.47 L644.17 604.42 L642.87 605.67 L641.56 606.91 L640.72 608.49 L639.58 609.86 L638.74 611.47 L637.12 612.44 L635.75 613.61 L635.30 615.55 L634.55 617.26 L632.99 618.25 L631.32 619.14 L630.55 620.84 L629.87 622.65 L629.30 624.58 L627.74 625.57 L626.58 626.94 L625.27 628.17 L624.64 630.09 L623.21 631.21 L621.71 632.24 L620.41 633.48 L619.14 634.75 L617.87 636.03 L616.08 636.71 L614.66 637.81 L613.76 639.54 L612.67 641.06 L610.93 641.76 L609.06 642.29 L608.17 644.08 L607.22 645.83 L606.11 647.38 L604.39 648.10 L603.07 649.38 L601.49 650.28 L600.48 652.04 L598.84 652.86 L597.18 653.65 L595.66 654.64 L594.36 656.00 L592.65 656.70 L590.78 657.09 L589.12 657.85 L587.86 659.31 L586.49 660.61 L584.60 660.93 L582.59 661.01 L581.24 662.34 L579.85 663.65 L578.38 664.78 L576.68 665.45 L575.35 666.93 L573.86 668.11 L572.37 669.30 L570.61 669.86 L568.87 670.46 L567.21 671.26 L565.58 672.16 L563.91 672.94 L562.27 673.84 L560.52 674.43 L558.95 675.54 L557.38 676.71 L555.83 677.96 L554.11 678.73 L552.40 679.55 L550.68 680.31 L548.92 680.99 L547.10 681.46 L545.27 681.87 L543.44 682.24 L541.45 681.94 L539.54 681.94 L537.65 682.03 L535.83 682.38 L534.03 682.90 L532.21 683.24 L530.43 683.91 L528.59 684.22 L526.82 684.97 L525.07 685.97 L523.32 687.09 L521.49 687.71 L519.60 687.86 L517.73 688.14 L515.85 688.34 L513.97 688.54 L512.08 688.56 L510.18 688.43 L508.28 688.11 L506.39 687.83 L504.51 687.82 L502.63 688.01 L500.75 688.46 L498.86 688.65 L496.97 688.96 L495.08 689.01 L493.17 689.45 L491.25 690.01 L489.31 690.57 L487.40 690.58 L485.48 690.70 L483.56 690.69 L481.62 690.85 L479.68 690.91 L477.75 690.94 L475.81 690.97 L473.94 690.40 L472.04 690.10 L470.12 689.93 L468.19 689.86 L466.24 689.80 L464.32 689.58 L462.36 689.56 L460.42 689.41 L458.42 689.47 L456.41 689.57 L454.37 689.72 L452.40 689.55 L450.44 689.33 L448.47 689.13 L446.48 688.93 L444.52 688.67 L442.58 688.28 L440.66 687.83 L438.75 687.33 L436.84 686.81 L434.94 686.27 L433.05 685.70 L431.16 685.11 L429.29 684.49 L427.43 683.81 L425.58 683.10 L423.75 682.36 L421.92 681.63 L420.07 680.93 L418.23 680.17 L416.41 679.41 L414.61 678.58 L412.80 677.78 L410.98 677.00 L409.11 676.30 L407.33 675.41 L405.57 674.50 L403.81 673.58 L401.98 672.78 L400.28 671.77 L398.55 670.78 L396.77 669.88 L394.99 668.98 L393.32 667.90 L391.64 666.84 L389.92 665.84 L388.15 664.90 L386.52 663.75 L384.78 662.75 L383.07 661.73 L381.36 660.67 L379.77 659.46 L378.15 658.30 L376.52 657.15 L374.86 656.02 L373.32 654.74 L371.72 653.53 L370.11 652.34 L368.54 651.10 L367.00 649.82 L365.42 648.57 L363.79 647.38 L362.21 646.13 L360.72 644.78 L359.20 643.47 L357.53 642.29 L356.04 640.93 L354.65 639.48 L353.30 637.98 L351.77 636.65 L350.38 635.19 L349.12 633.61 L347.75 632.13 L346.21 630.80 L344.95 629.22 L343.68 627.65 L342.48 626.02 L341.04 624.59 L339.92 622.91 L338.62 621.35 L337.24 619.86 L335.79 618.42 L334.77 616.66 L333.64 614.99 L332.41 613.37 L330.99 611.89 L329.94 610.16 L328.80 608.48 L327.65 606.80 L326.43 605.18 L325.48 603.37 L324.34 601.70 L323.14 600.04 L321.61 598.56 L320.73 596.73 L319.67 594.98 L318.56 593.26 L317.22 591.65 L316.40 589.77 L315.56 587.91 L314.67 586.07 L313.49 584.36 L312.83 582.42 L312.06 580.52 L311.03 578.73 L310.07 576.91 L309.41 574.97 L308.75 573.03 L307.83 571.19 L306.86 569.36 L306.30 567.38 L305.34 565.54 L304.40 563.69 L303.61 561.78 L303.06 559.80 L302.43 557.84 L301.71 555.90 L300.96 553.97 L300.48 551.96 L299.87 549.99 L299.15 548.04 L298.72 546.02 L298.19 544.02 L297.61 542.03 L296.80 540.09 L296.24 538.08 L295.86 536.05 L295.37 534.03 L294.54 532.06 L294.16 530.01 L293.92 527.94 L293.74 525.87 L293.15 523.85 L292.93 521.78 L292.88 519.69 L292.60 517.63 L292.04 515.58 L292.01 513.49 L291.92 511.41 L291.80 509.33 L291.20 507.26 L291.26 505.17 L291.05 503.09 L290.81 501.00 L290.43 498.91 L290.51 496.81 L290.59 494.72 L290.53 492.62 L290.24 490.51 L290.48 488.42 L290.54 486.32 L290.60 484.22 L290.58 482.11 L290.89 480.03 L290.94 477.92 L290.93 475.80 L290.67 473.65 L291.03 471.57 L291.21 469.46 L291.27 467.34 L291.18 465.18 L291.66 463.12 L292.12 461.05 L292.45 458.96 L292.57 456.82 L293.21 454.79 L293.70 452.73 L293.86 450.60 L294.25 448.51 L294.83 446.47 L295.47 444.45 L295.76 442.33 L296.13 440.22 L296.83 438.21 L297.14 436.09 L297.41 433.94 L297.99 431.88 L298.71 429.88 L299.38 427.85 L299.91 425.77 L300.53 423.73 L301.33 421.75 L302.03 419.73 L302.61 417.66 L303.54 415.73 L304.30 413.72 L305.02 411.70 L305.47 409.55 L306.31 407.58 L307.23 405.64 L308.05 403.65 L308.55 401.49 L309.53 399.57 L310.62 397.71 L311.73 395.87 L312.45 393.80 L313.57 391.96 L314.80 390.19 L315.83 388.29 L316.63 386.26 L317.91 384.51 L319.11 382.72 L320.25 380.89 L321.01 378.80 L322.37 377.11 L323.43 375.21 L324.49 373.32 L325.45 371.33 L326.83 369.65 L328.15 367.94 L329.40 366.16 L330.43 364.21 L331.90 362.61 L333.21 360.87 L334.53 359.15 L335.82 357.39 L337.35 355.84 L338.69 354.11 L339.94 352.31 L341.06 350.37 L342.64 348.86 L344.07 347.21 L345.38 345.44 L346.65 343.61 L348.31 342.17 L349.97 340.75 L351.50 339.18 L352.93 337.49 L354.70 336.19 L356.37 334.77 L357.81 333.09 L359.45 331.63 L361.17 330.26 L362.95 328.98 L364.50 327.40 L366.17 325.97 L368.01 324.78 L369.69 323.36 L371.37 321.93 L373.20 320.71 L375.09 319.59 L376.99 318.48 L378.80 317.23 L380.80 316.30 L383.03 315.71 L385.21 315.09 L387.53 314.72 L389.49 313.77 L391.61 313.11 L394.07 313.08 L395.96 312.06 L397.99 311.29 L399.66 309.87 L402.12 309.95 L403.80 308.53 L405.24 306.59 L407.08 305.45 L409.51 305.56 L411.07 303.80 L412.58 301.89 L414.57 301.04 L416.94 301.10 L418.50 299.20 L420.39 298.09 L422.65 297.92 L425.06 298.19 L426.69 296.36 L428.54 295.11 L430.81 295.05 L433.19 295.37 L434.93 293.72 L436.79 292.42 L438.83 291.66 L441.10 291.69 L442.81 289.74 L444.90 289.11 L447.21 289.38 L449.56 289.87 L451.37 288.07 L453.41 287.26 L455.73 287.70 L458.13 288.65 L460.05 287.22 L462.07 286.19 L464.25 286.04 L466.59 286.96 L468.54 285.44 L470.60 284.51 L472.76 284.23 L475.04 285.01 L477.07 283.66 L479.18 282.79 L481.36 282.76 L483.58 283.21 L485.68 281.94 L487.85 281.58 L490.06 282.04 L492.26 282.61 L494.41 281.30 L496.59 280.85 L498.78 281.53 L500.96 282.00 L503.16 280.70 L505.37 280.20 L507.55 280.87 L509.74 281.01 L511.99 279.92 L514.20 279.86 L516.34 280.83 L518.58 280.48 L520.93 279.06 L523.24 278.24 L525.38 279.13 L527.54 279.81 L529.79 279.71 L532.07 279.49 L534.12 280.82 L536.27 281.39 L538.39 282.16 L540.47 283.08 L542.56 283.88 L544.74 284.18 L547.09 283.75 L549.38 283.70 L551.60 283.94 L554.09 283.11 L556.23 283.78 L558.48 284.02 L560.44 285.33 L562.84 285.04 L564.95 285.83 L566.90 287.07 L568.58 289.12 L570.68 289.85 L572.96 290.04 L575.14 290.55 L577.02 291.86 L579.28 292.16 L581.54 292.49 L583.50 293.61 L585.62 294.31 L588.29 293.71 L590.83 293.51 L593.13 293.91 L594.79 295.70 L597.04 296.22 L599.14 297.06 L601.14 298.12 L602.84 299.74 L604.69 301.06 L606.42 302.59 L608.27 303.88 L609.97 305.43 L612.37 305.74 L614.75 306.13 L616.61 307.41 L619.27 307.38 L621.50 308.10 L623.48 309.21 L625.30 310.59 L627.06 312.04 L629.48 312.52 L630.98 314.36 L632.09 316.69 L633.59 318.47 L635.50 319.68 L637.50 320.78 L639.25 322.21 L640.83 323.85 L642.94 324.83 L645.02 325.86 L646.49 327.63 L649.09 328.09 L651.81 328.45 L654.45 328.95 L655.64 331.06 L657.14 332.81 L659.07 334.12 L661.02 335.41 L661.94 337.75 L663.48 339.45 L664.57 341.58 L665.71 343.64 L667.02 345.53 L668.74 347.04 L670.91 348.16 L672.77 349.57 L674.51 351.10 L676.98 352.03 L678.47 353.79 L680.12 355.42 L681.06 357.62 L683.39 358.74 L684.52 360.78 L685.21 363.14 L685.55 365.74 L687.01 367.51 L688.59 369.21 L690.07 370.97 L690.98 373.13 L692.70 374.74 L694.23 376.50 L695.36 378.51 L696.98 380.21 L699.48 381.41 L701.83 382.72 L703.28 384.59 L703.58 387.09 L705.23 388.85 L706.64 390.74 L707.44 392.96 L707.96 395.31 L708.86 397.46 L709.25 399.85 L710.00 402.07 L710.57 404.35 L712.41 406.07 L713.85 407.98 L714.98 410.03 L717.07 411.69 L718.08 413.81 L719.16 415.91 L719.60 418.25 L720.41 420.45 L721.92 422.40 L722.11 424.82 L721.57 427.46 L721.93 429.80 L723.00 431.90 L723.91 434.07 L724.29 436.39 L724.91 438.63 L726.32 440.67 L727.24 442.86 L727.61 445.18 L729.41 447.16 L730.37 449.36 L731.32 451.57 L731.04 454.04 L732.50 456.16 L733.26 458.43 L733.76 460.75 L733.10 463.25 L734.77 465.39 L735.42 467.70 L735.50 470.08 L734.76 472.56 L736.57 474.74 L737.26 477.06 L736.86 479.49 L735.89 481.95 L737.52 484.21 L737.93 486.57 L737.71 488.97 L736.80 491.38 L738.23 493.72 L738.24 496.10 L738.05 498.48 L737.47 500.86 L738.85 503.26 L738.67 505.64 L738.39 508.02 L737.90 510.39 L739.29 512.85 L738.75 515.21 L737.94 517.55 L737.28 519.89 L738.51 522.40 L738.42 524.80 L737.27 527.08 L736.31 529.37 L737.09 531.87 L737.40 534.33 L736.50 536.62 L735.77 538.93 L736.44 541.47 L736.65 543.95 L735.72 546.22 L735.41 548.61 L735.85 551.16 L735.18 553.49 L733.99 555.68 L733.90 558.14 L734.53 560.79 L733.81 563.11 L732.38 565.22 L732.49 567.77 L732.68 570.36 L731.62 572.57 L730.04 574.61 L730.24 577.23 L730.27 579.81 L729.02 581.95 L726.96 583.78 L726.89 586.34 L726.47 588.79 L725.33 590.95 L723.12 592.66 L723.07 595.27 L722.83 597.81 L722.30 600.24 L720.79 602.23 L719.91 604.51 L719.52 607.02 L718.61 609.30 L717.96 611.71 L717.70 614.34 L716.77 616.63 L715.67 618.84 L714.13 620.80 L713.76 623.42 L712.30 625.43 L710.55 627.25 L709.72 629.63 L708.99 632.09 L707.44 634.03 L706.05 636.07 L704.43 637.95 L703.83 640.53 L702.23 642.44 L700.74 644.42 L699.83 646.81 L698.72 649.08 L697.11 650.97 L695.72 653.04 L693.97 654.82 L692.93 657.17 L690.68 658.54 L688.64 660.07 L687.18 662.07 L686.34 664.64 L685.11 666.88 L682.93 668.25 L680.67 669.54 L679.68 672.02 L678.70 674.54 L677.13 676.50 L676.13 679.06 L674.13 680.60 L672.08 682.08 L670.24 683.78 L668.47 685.55 L666.98 687.65 L664.76 688.93 L662.86 690.56 L661.73 693.12 L659.45 694.32 L657.56 695.97 L655.41 697.31 L653.65 699.14 L651.81 700.87 L649.52 702.01 L647.56 703.59 L646.35 706.24 L644.15 707.50 L642.06 708.91 L639.80 710.08 L638.04 712.00 L635.81 713.20 L633.24 713.87 L631.04 715.10 L629.19 716.91 L626.79 717.81 L624.14 718.25 L621.36 718.41 L619.79 720.75 L617.67 722.12 L615.31 723.04 L612.68 723.39 L611.15 725.95 L608.85 726.98 L606.44 727.77 L603.78 727.99 L602.12 730.42 L599.89 731.62 L597.27 731.90 L594.57 731.94 L592.86 734.41 L590.65 735.70 L588.10 736.07 L585.46 736.19 L583.56 738.38 L581.24 739.40 L578.78 740.02 L576.23 740.31 L574.25 742.46 L571.71 742.81 L569.16 743.12 L566.63 743.44 L564.50 745.26 L561.97 745.59 L559.37 745.60 L556.88 746.05 L554.81 748.40 L552.55 750.04 L550.01 750.37 L547.38 750.19 L545.00 751.33 L542.57 752.31 L540.00 752.41 L537.51 753.04 L534.90 752.87 L532.29 752.54 L529.75 752.77 L527.21 752.95 L524.73 753.70 L522.26 754.69 L519.71 754.85 L517.25 756.40 L514.68 756.54 L512.14 757.12 L509.54 756.63 L506.98 757.04 L504.42 757.64 L501.84 756.89 L499.27 756.01 L496.71 756.40 L494.14 756.73 L491.58 756.49 L489.02 756.18 L486.43 756.55 L483.88 756.27 L481.33 755.91 L478.78 755.62 L476.08 756.88 L473.39 757.83 L470.73 758.27 L468.28 756.93 L465.68 756.86 L463.05 756.96 L460.37 757.30 L457.91 756.17 L455.32 755.95 L452.88 754.84 L450.42 753.91 L447.98 752.94 L445.24 753.39 L442.64 753.13 L440.16 752.36 L437.37 752.82 L434.66 752.90 L432.20 751.98 L429.64 751.45 L427.22 750.43 L424.42 750.68 L422.12 749.26 L419.84 747.84 L417.40 746.90 L414.90 746.17 L412.42 745.37 L410.00 744.40 L407.69 743.16 L404.89 743.18 L402.21 742.84 L399.63 742.21 L396.48 742.92 L393.79 742.48 L391.21 741.77 L388.56 741.18 L385.81 740.78 L382.72 741.05 L380.31 739.87 L377.89 738.71 L375.45 737.59 L373.00 736.48 L370.64 735.21 L368.23 734.02 L365.89 732.69 L363.53 731.41 L361.24 730.00 L358.86 728.75 L356.51 727.44 L354.11 726.20 L351.83 724.76 L349.50 723.40 L347.23 721.96 L344.90 720.59 L342.66 719.08 L340.41 717.58 L338.20 716.04 L336.03 714.43 L333.81 712.88 L331.65 711.27 L329.40 709.74 L327.30 708.05 L325.18 706.36 L323.00 704.75 L320.84 703.11 L318.74 701.40 L316.65 699.67 L314.57 697.91 L312.43 696.23 L310.42 694.40 L308.39 692.60 L306.38 690.76 L304.26 689.03 L302.29 687.15 L300.28 685.30 L298.24 683.47 L296.24 681.60 L294.30 679.67 L292.38 677.72 L290.43 675.79 L288.47 673.86 L286.55 671.89 L284.69 669.86 L282.84 667.83 L281.04 665.75 L279.27 663.65 L277.46 661.57 L275.61 659.50 L273.80 657.41 L272.05 655.27 L270.30 653.12 L268.53 650.98 L266.78 648.82 L265.04 646.64 L263.42 644.39 L261.74 642.16 L260.15 639.87 L258.60 637.57 L257.13 635.20 L255.75 632.79 L254.56 630.27 L253.47 627.71 L252.41 625.13 L251.48 622.50 L250.21 620.03 L249.43 617.34 L248.94 614.52 L248.04 611.91 L246.90 609.39 L245.96 606.80 L245.42 604.04 L244.07 601.62 L242.66 599.21 L241.78 596.59 L241.10 593.91 L239.42 591.58 L238.27 589.05 L237.07 586.54 L235.61 584.10 L234.64 581.49 L233.67 578.89 L232.52 576.33 L231.40 573.75 L230.52 571.10 L229.63 568.45 L228.96 565.74 L228.40 563.01 L227.74 560.30 L226.66 557.68 L226.14 554.93 L225.91 552.13 L225.16 549.43 L224.38 546.73 L223.80 544.00 L222.95 541.29 L222.46 538.54 L222.42 535.71 L221.88 532.96 L221.48 530.19 L220.77 527.44 L220.32 524.67 L219.51 521.91 L219.60 519.09 L219.51 516.28 L219.29 513.47 L218.69 510.68 L218.53 507.87 L218.22 505.06 L218.19 502.24 L218.41 499.43 L218.20 496.61 L218.03 493.79 L217.79 490.96 L217.55 488.12 L217.29 485.28 L217.67 482.46 L217.94 479.65 L218.02 476.82 L217.79 473.95 L217.80 471.11 L217.95 468.27 L218.45 465.47 L219.15 462.70 L219.57 459.90 L220.38 457.16 L221.75 454.52 L223.22 451.91 L225.13 449.40 L225.21 446.57 L225.90 443.86 L228.05 441.46 L229.02 438.82 L230.28 436.27 L229.85 433.31 L230.71 430.66 L229.48 427.45 L231.84 425.19 L232.51 422.49 L233.70 419.94 L233.42 416.94 L234.36 414.31 L234.23 411.32 L234.49 408.45 L235.37 405.78 L237.51 403.58 L238.01 400.78 L237.93 397.74 L238.12 394.78 L239.82 392.43 L242.83 390.65 L242.94 387.65 L242.93 384.57 L243.59 381.77 L245.01 379.32 L246.26 376.79 L246.60 373.81 L247.05 370.86 L248.37 368.35 L250.61 366.32 L252.45 364.11 L253.45 361.43 L254.11 358.55 L257.05 356.98 L259.13 354.95 L260.64 352.57 L261.17 349.59 L262.85 347.31 L262.85 343.94 L264.75 341.79 L266.52 339.57 L268.98 337.84 L269.72 334.90 L270.45 331.91 L271.44 329.10 L274.30 327.69 L277.06 326.24 L278.28 323.61 L279.48 320.93 L282.05 319.37 L283.92 317.24 L284.40 313.92 L287.20 312.59 L288.96 310.36 L291.25 308.61 L292.36 305.77 L294.53 303.91 L295.77 301.15 L297.68 299.04 L300.14 297.47 L302.26 295.57 L304.05 293.32 L305.83 291.05 L307.77 288.95 L308.81 285.83 L311.40 284.43 L313.83 282.86 L316.30 281.35 L317.62 278.46 L319.23 275.88 L321.48 274.09 L324.90 273.81 L327.41 272.39 L329.33 270.18 L331.47 268.25 L334.29 267.28 L336.63 265.64 L338.11 262.74 L341.22 262.22 L343.55 260.56 L345.91 258.95 L347.77 256.52 L350.35 255.24 L351.75 251.99 L354.95 251.74 L357.40 250.23 L360.19 249.32 L362.26 247.12 L364.67 245.53 L366.67 243.11 L369.07 241.45 L371.80 240.43 L374.88 240.17 L377.22 238.36 L379.29 235.93 L381.50 233.77 L384.45 233.25 L387.99 234.15 L390.25 232.05 L392.47 229.79 L394.95 228.17 L397.86 227.61 L400.43 226.17 L402.73 223.92 L405.19 222.07 L407.55 219.84 L410.18 218.40 L412.77 216.78 L415.47 215.44 L418.14 213.98 L420.78 212.37 L423.65 211.57 L426.56 210.90 L429.45 210.16 L432.37 209.52 L435.26 208.81 L438.20 208.29 L441.12 207.66 L444.05 207.12 L446.95 206.40 L449.90 205.94 L452.81 205.29 L455.73 204.58 L458.66 203.96 L461.61 203.53 L464.56 202.98 L467.49 202.29 L470.45 201.76 L473.43 201.46 L476.41 201.12 L479.39 200.78 L482.39 200.64 L485.38 200.42 L488.39 200.55 L491.38 200.47 L494.37 200.09 L497.37 200.14 L500.37 200.02 L503.38 199.73 L506.39 199.36 L509.40 199.21 L512.41 199.22 L515.43 199.06 L518.45 199.10 L521.45 199.37 L524.46 199.57 L527.45 200.02 L530.45 200.24 L533.48 200.26 L536.45 200.85 L539.38 201.65 L542.34 202.20 L545.28 202.92 L548.28 203.20 L551.22 203.80 L554.19 204.27 L557.13 204.91 L560.09 205.45 L563.05 205.99 L566.03 206.45 L569.05 206.74 L571.91 207.72 L574.60 209.36 L577.28 210.95 L580.03 212.22 L582.79 213.43 L585.87 213.54 L588.71 214.48 L591.46 215.68 L593.94 217.69 L596.87 218.32 L600.07 218.23 L603.17 218.45 L605.74 220.12 L607.77 223.16 L610.86 223.44 L613.82 224.07 L616.52 225.35 L618.99 227.15 L622.16 227.35 L625.15 228.02 L627.96 229.06 L630.66 230.36 L633.81 230.76 L637.18 230.76 L639.72 232.44 L642.63 233.40 L645.16 235.06 L647.53 237.02 L650.17 238.47 L652.39 240.66 L655.32 241.62 L658.34 242.46 L660.57 244.59 L662.89 246.56 L664.88 249.02 L668.04 249.71 L671.08 250.60 L673.95 251.77 L675.55 254.75 L677.20 257.60 L680.26 258.52 L682.88 260.05 L684.45 262.95 L686.62 265.04 L690.29 265.28 L691.93 268.04 L694.23 269.98 L696.00 272.53 L699.04 273.62 L701.17 275.77 L704.11 277.02 L706.25 279.15 L708.07 281.62 L710.03 283.94 L712.60 285.62 L715.12 287.38 L717.40 289.38 L720.67 290.45 L722.29 293.10 L724.11 295.55 L725.88 298.03 L728.95 299.37 L731.81 300.93 L733.75 303.29 L734.12 306.94 L735.86 309.44 L738.17 311.48 L740.15 313.79 L741.10 316.89 L742.98 319.26 L746.29 320.59 L747.55 323.44 L748.86 326.23 L750.89 328.52 L753.56 330.39 L756.49 332.12 L757.50 335.11 L757.82 338.52 L759.99 340.76 L762.15 343.02 L763.64 345.68 L764.37 348.79 L766.58 351.04 L769.56 352.89 L770.96 355.63 L771.55 358.78 L773.42 361.26 L775.85 363.48 L777.91 365.91 L778.67 368.96 L778.23 372.55 L780.15 375.04 L781.64 377.74 L782.47 380.72 L783.04 383.80 L785.47 386.13 L786.48 389.03 L787.04 392.10 L787.69 395.13 L789.29 397.81 L790.69 400.58 L791.74 403.46 L793.91 406.00 L793.23 409.43 L794.30 412.32 L795.39 415.20 L797.24 417.88 L798.07 420.85 L800.66 423.37 L800.93 426.50 L801.56 429.53 L801.53 432.71 L803.40 435.47 L804.94 438.33 L806.25 441.24 L805.13 444.61 L804.40 447.89 L805.88 450.78 L806.84 453.77 L806.18 456.99 L806.51 460.07 L809.33 462.84 L809.33 465.97 L809.51 469.08 L809.21 472.23 L810.89 475.21 L812.26 478.25 L812.78 481.35 L811.26 484.56 L810.31 487.72 L811.24 490.80 L811.71 493.90 L811.07 497.03 L811.13 500.14 L813.21 503.27 L812.43 506.39 L812.00 509.50 L811.79 512.62 L813.04 515.80 L813.85 518.99 L813.35 522.11 L810.99 525.07 L810.77 528.18 L811.01 531.34 L810.77 534.46 L809.29 537.43 L809.13 540.55 L810.29 543.87 L808.66 546.79 L808.03 549.85 L807.74 552.97 L808.04 556.20 L807.28 559.24 L808.54 562.69 L806.24 565.41 L805.86 568.54 L804.78 571.51 L805.03 574.79 L804.42 577.88 L804.88 581.25 L804.48 584.41 L803.63 587.46 L801.81 590.21 L801.54 593.42 L801.74 596.80 L801.38 600.02 L799.74 602.82 L796.79 605.13 L796.72 608.46 L796.05 611.58 L794.31 614.30 L792.68 617.05 L793.13 620.64 L792.54 623.84 L791.02 626.64 L788.89 629.16 L788.40 632.42 L788.08 635.78 L787.36 638.97 L784.86 641.29 L781.87 643.34 L781.20 646.56 L780.32 649.68 L778.00 652.03 L776.31 654.72 L776.53 658.49 L774.83 661.19 L773.12 663.88 L770.82 666.20 L770.20 669.57 L769.34 672.81 L768.14 675.84 L764.87 677.52 L761.99 679.41 L760.62 682.33 L758.32 684.59 L754.56 685.78 L752.47 688.15 L752.03 691.77 L750.26 694.41 L747.95 696.62 L746.23 699.30 L745.58 702.87 L744.92 706.48 L743.89 709.82 L742.51 712.89 L740.98 715.85 L739.16 718.57 L737.14 721.12 L735.09 723.64 L732.96 726.09 L730.94 728.67 L728.66 730.98 L726.50 733.43 L724.37 735.90 L721.80 737.92 L719.61 740.34 L717.41 742.76 L715.36 745.37 L712.72 747.31 L710.09 749.25 L707.55 751.30 L705.08 753.42 L702.65 755.61 L700.32 757.92 L697.64 759.79 L695.07 761.81 L692.35 763.62 L690.03 765.99 L687.64 768.28 L685.28 770.62 L683.01 773.13 L680.34 775.05 L677.80 777.19 L675.35 779.46 L672.93 781.84 L670.65 784.46 L667.83 786.21 L664.98 787.90 L662.10 789.56 L659.21 791.19 L656.30 792.78 L653.38 794.36 L650.42 795.86 L647.43 797.31 L644.42 798.71 L641.44 800.17 L638.42 801.53 L635.38 802.88 L632.26 804.01 L629.16 805.19 L626.03 806.29 L622.92 807.43 L619.82 808.60 L616.66 809.59 L613.55 810.72 L610.49 812.00 L607.32 812.95 L604.13 813.85 L601.01 814.96 L597.94 816.22 L594.83 817.36 L591.65 818.30 L588.40 818.99 L585.25 820.00 L582.05 820.86 L578.90 821.92 L575.69 822.76 L572.49 823.65 L569.24 824.30 L566.01 825.03 L562.80 825.93 L559.62 827.01 L556.34 827.50 L553.08 828.16 L549.80 828.69 L546.54 829.40 L543.26 829.97 L539.97 830.54 L536.67 830.93 L533.36 831.30 L530.05 831.68 L526.74 832.10 L523.43 832.49 L520.11 832.82 L516.78 833.05 L513.46 833.26 L510.13 833.57 L506.79 833.73 L503.46 833.81 L500.12 834.01 L496.77 834.31 L493.43 834.36 L490.08 834.35 L486.73 834.55 L483.38 834.43 L480.04 834.30 L476.69 834.10 L473.33 834.11 L469.97 834.11 L466.65 833.58 L463.33 833.12 L459.97 832.99 L456.61 832.78 L453.27 832.42 L449.96 831.90 L446.61 831.59 L443.23 831.42 L439.94 830.70 L436.63 830.11 L433.28 829.75 L430.02 828.91 L426.67 828.47 L423.38 827.75 L420.08 827.06 L416.79 826.34 L413.54 825.48 L410.21 824.88 L406.97 823.95 L403.76 822.92 L400.50 822.05 L397.22 821.26 L394.08 820.01 L390.88 818.93 L387.65 817.96 L384.43 816.96 L381.15 816.10 L377.97 814.94 L374.78 813.83 L371.56 812.77 L368.41 811.54 L365.16 810.53 L361.98 809.35 L358.87 808.01 L355.69 806.82 L352.54 805.54 L349.26 804.53 L346.07 803.29 L343.04 801.75 L339.98 800.26 L336.91 798.78 L333.78 797.41 L330.66 796.00 L327.71 794.29 L324.83 792.45 L322.00 790.56 L319.02 788.89 L315.92 787.41 L313.00 785.64 L310.22 783.66 L307.50 781.59 L304.61 779.77 L301.73 777.94 L298.79 776.17 L295.88 774.36 L293.09 772.38 L290.44 770.21 L287.73 768.13 L284.77 766.35 L281.88 764.48 L279.36 762.14 L276.81 759.85 L274.17 757.66 L271.45 755.57 L268.91 753.27 L266.37 750.96 L263.84 748.64 L261.32 746.32 L258.79 744.00 L256.22 741.71 L253.78 739.31 L251.32 736.90 L248.87 734.49 L246.46 732.04 L243.97 729.66 L241.70 727.07 L239.48 724.44 L237.17 721.90 L234.81 719.39 L232.63 716.72 L230.38 714.11 L228.12 711.51 L225.97 708.81 L223.98 706.00 L221.96 703.21 L219.68 700.61 L217.42 697.98 L215.53 695.10 L213.67 692.19 L211.60 689.43 L209.41 686.73 L207.40 683.92 L205.50 681.03 L203.33 678.30 L201.36 675.44 L199.81 672.34 L197.92 669.43 L196.10 666.48 L194.47 663.42 L192.63 660.47 L190.93 657.45 L189.18 654.44 L187.60 651.35 L186.12 648.21 L184.49 645.14 L182.93 642.03 L181.60 638.82 L180.15 635.66 L178.71 632.50 L177.54 629.23 L176.23 626.01 L174.81 622.83 L173.27 619.69 L172.01 616.45 L171.00 613.11 L169.70 609.88 L168.43 606.63 L167.33 603.33 L166.13 600.05 L165.07 596.73 L164.03 593.40 L162.92 590.09 L161.97 586.73 L160.77 583.43 L159.94 580.03 L159.17 576.63 L158.35 573.23 L157.76 569.78 L157.02 566.37 L156.60 562.90 L155.41 559.56 L155.09 556.07 L154.81 552.58 L154.02 549.16 L153.01 545.77 L152.19 542.34 L151.87 538.85 L151.57 535.36 L151.06 531.89 L150.77 528.40 L150.00 524.94 L149.20 521.48 L149.12 517.96 L149.06 514.45 L148.96 510.94 L148.52 507.43 L147.88 503.93 L148.04 500.40 L148.14 496.89 L148.28 493.37 L147.91 489.84 L148.03 486.32 L148.05 482.79 L148.53 479.29 L148.81 475.78 L149.20 472.28 L149.04 468.73 L149.04 465.19 L149.63 461.71 L150.23 458.23 L150.30 454.69 L150.42 451.15 L150.58 447.60 L150.95 444.08 L151.61 440.61 L152.33 437.15 L153.13 433.70 L153.43 430.16 L153.70 426.61 L154.49 423.15 L155.49 419.75 L156.42 416.34 L157.01 412.84 L157.37 409.27 L158.41 405.88 L159.60 402.54 L160.58 399.14 L161.19 395.62 L162.06 392.18 L162.67 388.64 L163.99 385.34 L164.90 381.90 L166.08 378.54 L166.92 375.06 L167.73 371.57 L168.99 368.23 L170.43 364.97 L171.83 361.70 L172.95 358.30 L173.96 354.85 L175.30 351.53 L176.90 348.35 L178.55 345.18 L180.04 341.94 L181.19 338.52 L182.81 335.33 L184.61 332.24 L186.43 329.16 L188.09 326.00 L189.47 322.68 L191.01 319.44 L192.96 316.43 L195.00 313.48 L196.68 310.32 L198.68 307.35 L200.14 304.03 L201.76 300.81 L203.85 297.89 L206.01 295.03 L208.04 292.07 L209.79 288.91 L211.37 285.62 L213.75 282.91 L216.06 280.16 L218.37 277.40 L220.42 274.45 L222.46 271.47 L224.50 268.49 L227.07 265.96 L229.53 263.33 L231.75 260.49 L233.76 257.46 L235.94 254.57 L238.55 252.07 L240.82 249.26 L243.35 246.69 L245.68 243.91 L248.16 241.29 L250.67 238.69 L253.42 236.34 L256.04 233.86 L258.71 231.43 L261.17 228.76 L263.56 226.00 L266.43 223.78 L269.23 221.50 L271.93 219.08 L274.47 216.46 L277.26 214.15 L280.22 212.06 L283.28 210.11 L286.23 208.01 L289.04 205.72 L291.88 203.45 L294.58 200.98 L297.63 199.03 L300.73 197.14 L303.48 194.72 L306.28 192.35 L309.15 190.08 L312.29 188.23 L315.43 186.39 L318.57 184.56 L321.75 182.78 L324.76 180.70 L327.78 178.62 L331.07 177.05 L334.42 175.60 L337.65 173.91 L340.80 172.06 L343.81 169.89 L347.28 168.71 L350.69 167.40 L353.90 165.62 L357.05 163.72 L360.25 161.90 L363.71 160.70 L367.23 159.65 L370.46 157.87 L373.94 156.72 L377.22 155.05 L380.58 153.55 L384.11 152.57 L387.63 151.54 L391.14 150.48 L394.55 149.12 L397.93 147.62 L401.47 146.67 L405.04 145.80 L408.58 144.86 L412.12 143.88 L415.57 142.55 L419.11 141.54 L422.76 141.04 L426.38 140.40 L430.01 139.86 L433.54 138.77 L437.09 137.73 L440.72 137.18 L444.37 136.72 L447.97 135.95 L451.59 135.21 L455.21 134.49 L458.81 133.59 L462.48 133.19 L466.14 132.78 L469.83 132.70 L473.49 132.17 L477.14 131.38 L480.83 131.26 L484.52 131.23 L488.22 131.32 L491.90 130.92 L495.59 130.41 L499.28 130.55 L502.97 130.94 L506.66 131.18 L510.36 130.99 L514.07 130.54 L517.78 130.35 L521.46 130.70 L525.18 130.63 L528.87 130.88 L532.59 130.86 L536.32 130.82 L540.02 131.07 L543.69 131.64 L547.38 132.02 L551.06 132.52 L554.80 132.56 L558.55 132.62 L562.21 133.29 L565.86 134.05 L569.53 134.61 L573.27 134.90 L576.92 135.63 L580.50 136.68 L584.11 137.60 L587.72 138.49 L591.41 139.10 L595.11 139.64 L598.70 140.66 L602.23 141.88 L605.84 142.80 L609.46 143.69 L613.17 144.32 L616.83 145.14 L620.31 146.51 L623.81 147.81 L627.34 149.04 L630.96 150.01 L634.61 150.93 L638.06 152.37 L641.45 153.98 L644.84 155.55 L648.26 157.05 L651.88 158.11 L655.57 159.05 L658.83 160.91 L662.09 162.77 L665.65 164.02 L669.20 165.29 L672.69 166.72 L675.93 168.61 L679.32 170.23 L682.52 172.21 L685.81 174.01 L689.18 175.68 L692.62 177.24 L695.76 179.31 L698.94 181.30 L702.13 183.30 L705.49 185.02 L708.85 186.76 L711.96 188.88 L715.01 191.09 L718.16 193.15 L721.44 195.04 L724.53 197.20 L727.44 199.60 L730.32 202.04 L733.31 204.33 L736.28 206.64 L739.34 208.85 L742.52 210.93 L745.28 213.51 L748.11 216.00 L751.21 218.19 L754.38 220.32 L757.41 222.60 L760.18 225.19 L762.90 227.82 L765.72 230.35 L768.33 233.10 L771.22 235.56 L774.23 237.92 L776.73 240.78 L779.16 243.70 L781.65 246.55 L784.38 249.20 L787.25 251.73 L789.51 254.79 L791.78 257.84 L794.34 260.64 L797.12 263.27 L799.54 266.21 L802.07 269.05 L804.17 272.23 L806.71 275.09 L808.97 278.15 L811.50 281.02 L814.06 283.88 L816.15 287.06 L818.25 290.25 L820.35 293.43 L822.70 296.45 L825.29 299.33 L827.29 302.59 L829.11 305.95 L830.93 309.32 L832.78 312.65 L835.15 315.71 L837.06 319.03 L838.62 322.53 L840.13 326.05 L841.80 329.48 L843.81 332.76 L845.85 336.02 L847.29 339.57 L848.77 343.10 L850.47 346.53 L852.09 350.00 L853.96 353.37 L855.86 356.73 L857.13 360.35 L858.50 363.94 L859.91 367.50 L861.64 370.96 L863.30 374.45 L864.29 378.17 L865.25 381.90 L866.41 385.55 L867.91 389.11 L869.38 392.69 L870.58 396.34 L871.21 400.16 L871.91 403.95 L873.21 407.58 L874.72 411.18 L875.94 414.85 L876.52 418.67 L877.53 422.39 L878.26 426.18 L879.28 429.91 L880.42 433.62 L880.92 437.46 L881.40 441.29 L881.96 445.11 L882.44 448.93 L883.31 452.71 L884.26 456.49 L884.60 460.35 L884.80 464.21 L885.29 468.05 L886.10 471.87 L886.54 475.72 L886.57 479.59 L886.53 483.47 L886.77 487.33 L887.02 491.20 L887.23 495.07 L887.65 498.94 L887.54 502.81 L887.20 506.68 L887.58 510.57 L887.94 514.46 L888.10 518.36 L887.77 522.23 L887.52 526.10 L887.30 529.98 L887.32 533.88 L887.40 537.80 L886.98 541.67 L886.33 545.51 L885.69 549.35 L885.07 553.19 L884.84 557.08 L884.79 561.02 L883.85 564.81 L882.85 568.58 L882.43 572.46 L882.19 576.38 L881.77 580.28 L880.91 584.08 L879.91 587.86 L879.32 591.72 L878.38 595.51 L877.89 599.42 L877.37 603.33 L876.29 607.09 L875.16 610.83 L873.93 614.55 L873.08 618.38 L872.44 622.29 L871.03 625.95 L869.70 629.64 L868.25 633.28 L867.17 637.06 L865.86 640.75 L864.69 644.50 L863.00 648.05 L861.43 651.64 L859.78 655.20 L858.66 658.99 L857.36 662.71 L855.54 666.19 L853.65 669.64 L852.25 673.32 L850.85 677.01 L849.36 680.67 L847.53 684.14 L845.56 687.55 L843.53 690.92 L841.51 694.30 L840.03 697.98 L838.41 701.59 L836.14 704.82 L833.89 708.06 L831.73 711.35 L829.98 714.91 L828.19 718.44 L825.98 721.71 L823.46 724.76 L821.17 727.96 L819.23 731.42 L817.19 734.81 L815.15 738.22 L812.63 741.26 L810.46 744.58 L808.03 747.70 L805.85 751.02 L803.64 754.34 L801.13 757.40 L798.49 760.35 L795.81 763.27 L793.38 766.41 L791.08 769.68 L788.48 772.69 L785.67 775.49 L782.80 778.23 L780.05 781.10 L777.56 784.22 L774.82 787.10 L771.80 789.69 L768.77 792.27 L765.86 794.97 L763.17 797.93 L760.38 800.78 L757.27 803.26 L754.09 805.65 L751.16 808.35 L748.00 810.77 L745.24 813.69 L742.36 816.48 L739.14 818.83 L735.85 821.09 L732.63 823.42 L729.64 826.10 L726.79 828.99 L723.39 831.11 L719.96 833.15 L716.55 835.23 L713.28 837.52 L710.08 839.94 L706.86 842.34 L703.28 844.14 L699.71 845.95 L696.29 848.02 L693.05 850.41 L689.78 852.78 L686.15 854.49 L682.78 856.70 L679.20 858.50 L675.76 860.58 L672.30 862.66 L668.69 864.41 L664.92 865.81 L661.25 867.45 L657.49 868.86 L653.95 870.78 L650.41 872.74 L646.61 874.07 L642.80 875.36 L639.05 876.79 L635.41 878.53 L631.68 880.06 L627.94 881.54 L624.05 882.61 L620.14 883.57 L616.33 884.86 L612.57 886.33 L608.88 888.07 L604.95 888.97 L601.01 889.81 L597.18 891.13 L593.40 892.63 L589.57 894.00 L585.61 894.79 L581.64 895.53 L577.68 896.36 L573.72 897.17 L569.82 898.26 L565.88 899.27 L561.86 899.71 L557.83 900.15 L553.83 900.72 L549.86 901.53 L545.92 902.68 L541.86 902.83 L537.81 903.02 L533.80 903.66 L529.80 904.49 L525.78 905.20 L521.72 905.28 L517.65 905.17 L513.61 905.73 L509.55 905.73 L505.50 906.29 L501.44 906.69 L497.37 906.52 L493.31 906.40 L489.25 906.26 L485.17 906.43 L481.09 906.77 L477.02 906.55 L472.96 906.24 L468.90 905.91 L464.85 905.57 L460.74 905.72 L456.66 905.55 L452.64 904.78 L448.60 904.31 L444.58 903.58 L440.48 903.47 L436.39 903.21 L432.38 902.44 L428.39 901.59 L424.32 901.14 L420.26 900.65 L416.21 900.04 L412.11 899.67 L408.16 898.60 L404.19 897.62 L400.23 896.59 L396.18 895.90 L392.13 895.20 L388.26 893.83 L384.37 892.56 L380.48 891.27 L376.48 890.36 L372.44 889.53 L368.63 888.02 L364.89 886.30 L361.09 884.77 L357.17 883.56 L353.12 882.71 L349.20 881.46 L345.51 879.66 L341.60 878.38 L337.80 876.84 L333.88 875.56 L329.96 874.25 L326.20 872.59 L322.55 870.69 L318.84 868.92 L315.24 866.94 L311.30 865.61 L307.39 864.20 L303.84 862.10 L300.27 860.05 L296.67 858.06 L292.82 856.48 L289.24 854.44 L285.77 852.21 L282.34 849.92 L278.86 847.72 L275.25 845.71 L271.68 843.62 L268.21 841.39 L264.89 838.94 L261.54 836.53 L257.99 834.41 L254.37 832.35 L250.84 830.17 L247.66 827.52 L244.41 824.97 L241.10 822.49 L237.67 820.15 L234.13 817.92 L231.09 815.11 L228.10 812.23 L225.12 809.35 L222.07 806.56 L218.75 804.06 L215.29 801.69 L212.58 798.51 L209.84 795.39 L206.57 792.81 L203.33 790.18 L200.18 787.45 L197.40 784.36 L194.65 781.25 L191.76 778.27 L189.11 775.06 L185.94 772.32 L182.97 769.39 L180.40 766.12 L177.79 762.88 L175.18 759.64 L172.38 756.55 L169.53 753.49 L166.94 750.23 L164.54 746.82 L162.12 743.43 L159.45 740.22 L156.98 736.86 L154.43 733.55 L152.20 730.03 L149.95 726.52 L147.87 722.90 L145.20 719.65 L142.58 716.36 L140.61 712.67 L138.61 709.00 L136.27 705.53 L133.84 702.10 L131.47 698.63 L129.40 694.98 L127.55 691.23 L125.63 687.50 L123.81 683.73 L121.62 680.14 L119.37 676.56 L117.81 672.67 L116.24 668.78 L114.66 664.89 L112.77 661.14 L110.77 657.42 L109.37 653.46 L108.22 649.41 L106.92 645.42 L104.99 641.66 L103.35 637.79 L101.63 633.94 L100.54 629.87 L99.05 625.94 L97.73 621.94 L96.16 618.02 L94.62 614.09 L93.59 610.00 L92.63 605.90 L91.59 601.82 L90.36 597.79 L88.91 593.80 L87.72 589.74 L87.00 585.58 L86.24 581.44 L85.27 577.33 L84.02 573.26 L83.16 569.12 L82.73 564.92 L82.19 560.73 L81.67 556.54 L80.75 552.40 L79.77 548.26 L79.42 544.04 L79.22 539.81 L78.69 535.62 L78.27 531.41 L77.38 527.23 L76.80 523.02 L76.73 518.78 L76.67 514.54 L76.47 510.31 L76.02 506.08 L75.50 501.84 L75.78 497.60 L75.97 493.36 L76.26 489.12 L76.36 484.88 L76.13 480.63 L75.76 476.36 L76.45 472.15 L77.02 467.93 L76.95 463.67 L76.82 459.39 L77.02 455.14 L77.72 450.94 L78.00 446.69 L78.59 442.48 L78.96 438.23 L79.35 433.99 L79.82 429.75 L80.62 425.56 L81.40 421.37 L82.20 417.19 L82.72 412.95 L83.14 408.68 L84.13 404.53 L85.24 400.40 L86.26 396.26 L86.85 392.01 L87.73 387.82 L88.97 383.73 L90.48 379.72 L91.66 375.62 L92.76 371.49 L93.85 367.36 L94.76 363.15 L96.32 359.17 L97.90 355.19 L98.92 351.01 L99.90 346.81 L101.14 342.69 L102.80 338.74 L104.47 334.79 L106.01 330.79 L107.81 326.89 L109.27 322.85 L110.67 318.77 L112.57 314.92 L114.65 311.15 L116.63 307.35 L118.35 303.41 L119.84 299.34 L122.20 295.73 L124.49 292.09 L126.38 288.22 L128.01 284.20 L130.10 280.44 L132.18 276.67 L134.72 273.19 L136.65 269.32 L138.93 265.67 L140.95 261.84 L143.00 258.03 L145.49 254.51 L148.12 251.08 L150.63 247.58 L152.96 243.94 L155.04 240.11 L157.68 236.69 L160.38 233.32 L163.17 230.03 L165.90 226.68 L168.23 223.01 L170.90 219.60 L173.85 216.43 L176.75 213.23 L179.72 210.09 L182.37 206.66 L185.03 203.23 L188.13 200.20 L191.19 197.15 L194.06 193.90 L197.05 190.76 L199.92 187.50 L202.71 184.15 L206.00 181.31 L209.20 178.39 L212.39 175.45 L215.38 172.28 L218.45 169.19 L221.89 166.54 L225.37 163.93 L228.76 161.22 L231.90 158.20 L235.12 155.25 L238.58 152.62 L242.31 150.35 L245.96 147.99 L249.35 145.27 L252.54 142.24 L255.94 139.51 L259.69 137.29 L263.23 134.75 L266.92 132.43 L270.41 129.81 L273.90 127.16 L277.67 124.97 L281.50 122.87 L285.28 120.72 L289.09 118.59 L292.72 116.14 L296.31 113.60 L300.19 111.59 L304.16 109.77 L308.05 107.78 L311.74 105.38 L315.60 103.32 L319.64 101.63 L323.72 100.04 L327.75 98.34 L331.72 96.50 L335.68 94.64 L339.57 92.58 L343.69 91.10 L347.93 89.93 L351.90 88.06 L355.82 86.00 L359.81 84.12 L364.01 82.84 L368.21 81.56 L372.36 80.14 L376.47 78.57 L380.58 76.97 L384.81 75.78 L389.10 74.77 L393.41 73.90 L397.69 72.93 L401.91 71.68 L406.07 70.15 L410.45 69.61 L414.82 69.01 L419.07 67.86 L423.30 66.55 L427.60 65.56 L431.97 64.97 L436.36 64.60 L440.67 63.59 L445.05 63.17 L449.36 62.14 L453.70 61.23 L458.10 60.86 L462.50 60.58 L466.90 60.21 L471.27 59.54 L475.65 58.70 L480.07 58.67 L484.48 58.53 L488.90 58.36 L493.31 58.04 L497.73 57.80 L502.15 57.56 L506.58 57.84 L511.00 57.99 L515.41 58.22 L519.85 57.84 L524.30 57.62 L528.71 58.06 L533.11 58.55 L537.56 58.53 L542.01 58.47 L546.45 58.70 L550.87 59.10 L555.25 59.81 L559.65 60.42 L564.04 61.04 L568.50 61.25 L572.95 61.56 L577.28 62.58 L581.61 63.58 L585.99 64.34 L590.44 64.76 L594.90 65.14 L599.20 66.32 L603.43 67.74 L607.68 69.09 L612.10 69.71 L616.50 70.48 L620.91 71.27 L625.11 72.75 L629.42 73.88 L633.65 75.30 L638.02 76.25 L642.36 77.32 L646.54 78.88 L650.75 80.35 L654.94 81.87 L659.16 83.32 L663.37 84.79 L667.69 86.03 L671.80 87.77 L675.89 89.56 L680.00 91.32 L684.25 92.76 L688.34 94.55 L692.22 96.80 L696.27 98.68 L700.34 100.55 L704.52 102.18 L708.64 103.97 L712.60 106.05 L716.52 108.22 L720.53 110.21 L724.45 112.39 L728.64 114.10 L732.72 116.02 L736.49 118.45 L740.29 120.85 L744.19 123.08 L748.22 125.13 L752.37 127.02 L755.96 129.75 L759.67 132.30 L763.37 134.86 L767.13 137.35 L771.18 139.45 L774.69 142.29 L778.15 145.19 L781.63 148.06 L785.30 150.69 L788.97 153.32 L792.45 156.21 L795.81 159.22 L799.06 162.36 L802.57 165.20 L806.14 167.98 L809.69 170.80 L813.07 173.81 L816.21 177.06 L819.33 180.34 L822.70 183.36 L826.35 186.12 L829.67 189.21 L832.64 192.64 L835.73 195.95 L839.00 199.10 L842.34 202.20 L845.37 205.58 L848.17 209.16 L851.06 212.65 L853.99 216.12 L856.97 219.55 L859.89 223.03 L862.67 226.62 L865.46 230.21 L868.13 233.88 L870.93 237.47 L873.69 241.08 L876.04 244.98 L878.53 248.78 L881.22 252.45 L883.79 256.20 L886.18 260.07 L888.79 263.81 L891.14 267.70 L893.53 271.57 L895.80 275.52 L897.97 279.52 L900.48 283.33 L902.70 287.31 L904.60 291.45 L906.57 295.56 L908.80 299.53 L911.26 303.40 L913.06 307.59 L914.96 311.73 L917.20 315.73 L919.24 319.81 L920.67 324.16 L922.61 328.29 L924.52 332.45 L926.43 336.60 L928.29 340.78 L929.83 345.08 L931.68 349.28 L933.27 353.57 L934.74 357.90 L936.33 362.19 L937.76 366.54 L938.97 370.95 L940.37 375.31 L941.70 379.69 L942.87 384.12 L943.93 388.57 L945.13 392.99 L946.64 397.34 L947.61 401.82 L948.43 406.33 L949.63 410.76 L950.75 415.21 L951.79 419.69 L952.99 424.14 L953.45 428.72 L954.43 433.21 L955.24 437.74 L956.42 442.22 L957.76 446.69 L958.68 451.23 L959.60 455.78 L960.28 460.35 L961.41 464.90 L963.02 469.43 L963.42 474.06 L963.77 478.69 L964.08 483.32 L964.34 487.96 L964.55 492.60 L964.72 497.25 L965.18 500.00 L965.04 495.35 L964.86 490.70 L964.62 486.06 L964.35 481.42 L964.02 476.78 L963.65 472.15 L963.79 467.48 L964.16 462.79 L964.08 458.12 L963.80 453.47 L963.21 448.84 L963.03 444.17 L963.12 439.45 L962.51 434.82 L961.97 430.18 L960.96 425.61 L960.02 421.03 L959.36 416.41 L958.25 411.87 L957.41 407.28 L956.48 402.70 L955.12 398.23 L954.08 393.68 L953.10 389.12 L951.87 384.62 L950.45 380.17 L948.67 375.83 L947.47 371.33 L946.06 366.89 L944.28 362.57 L942.78 358.17 L941.47 353.70 L939.81 349.35 L938.24 344.98 L936.65 340.61 L934.93 336.29 L933.35 331.92 L931.35 327.72 L929.72 323.36 L927.81 319.12 L925.39 315.11 L923.71 310.78 L921.99 306.47 L919.80 302.37 L917.63 298.26 L915.63 294.08 L913.52 289.95 L911.10 285.98 L908.35 282.19 L906.27 278.05 L904.12 273.95 L901.58 270.07 L899.09 266.17 L896.55 262.29 L894.22 258.30 L891.59 254.49 L888.89 250.74 L886.41 246.84 L883.78 243.03 L880.90 239.41 L878.03 235.79 L875.34 232.04 L872.55 228.37 L869.64 224.79 L866.66 221.26 L863.75 217.69 L860.91 214.07 L857.99 210.51 L854.92 207.08 L851.84 203.65 L848.59 200.38 L845.56 196.92 L842.67 193.34 L839.57 189.94 L836.20 186.80 L832.78 183.71 L829.89 180.11 L826.90 176.61 L823.53 173.48 L820.02 170.50 L816.60 167.42 L813.27 164.26 L809.93 161.11 L806.49 158.07 L803.00 155.09 L799.15 152.52 L795.49 149.75 L791.92 146.88 L788.50 143.81 L784.88 141.01 L781.01 138.51 L777.14 136.04 L773.36 133.46 L769.97 130.35 L766.21 127.74 L762.43 125.16 L758.45 122.87 L754.81 120.08 L751.24 117.20 L747.28 114.89 L743.39 112.47 L739.34 110.33 L735.31 108.16 L731.47 105.66 L727.65 103.13 L723.76 100.72 L719.64 98.71 L715.47 96.80 L711.49 94.55 L707.45 92.41 L703.35 90.38 L699.17 88.52 L694.89 86.88 L690.58 85.31 L686.38 83.54 L682.23 81.64 L678.02 79.89 L673.67 78.46 L669.36 76.97 L665.17 75.15 L660.93 73.50 L656.59 72.09 L652.24 70.70 L647.83 69.53 L643.55 67.97 L639.24 66.51 L634.85 65.29 L630.39 64.31 L626.01 63.09 L621.52 62.27 L617.16 61.00 L612.82 59.63 L608.43 58.43 L603.89 57.87 L599.35 57.39 L594.98 56.14 L590.58 54.96 L586.08 54.34 L581.55 53.85 L577.02 53.45 L572.49 53.05 L568.05 52.16 L563.59 51.34 L559.08 50.91 L554.54 50.68 L550.00 50.54 L545.52 49.92 L541.04 49.23 L536.51 49.06 L532.00 48.77 L527.46 48.85 L522.93 48.96 L518.43 48.48 L513.92 48.19 L509.40 48.27 L504.87 48.54 L500.36 48.86 L495.85 49.05 L491.34 48.84 L486.83 49.07 L482.33 49.52 L477.84 50.05 L473.34 50.17 L468.83 50.31 L464.34 50.77 L459.87 51.38 L455.42 52.15 L450.97 52.81 L446.48 53.18 L442.01 53.65 L437.58 54.48 L433.12 55.07 L428.74 56.19 L424.29 56.82 L419.83 57.45 L415.37 58.08 L411.05 59.40 L406.77 60.87 L402.48 62.25 L398.06 63.05 L393.67 64.00 L389.39 65.36 L385.14 66.84 L380.92 68.41 L376.57 69.47 L372.22 70.54 L367.98 72.01 L363.77 73.54 L359.62 75.26 L355.42 76.79 L351.13 78.07 L346.84 79.37 L342.63 80.89 L338.59 82.86 L334.56 84.83 L330.34 86.33 L326.11 87.80 L322.15 89.91 L318.19 92.00 L314.30 94.24 L310.26 96.13 L306.17 97.93 L302.19 99.94 L298.32 102.18 L294.49 104.49 L290.64 106.74 L286.59 108.62 L282.64 110.69 L278.83 113.01 L275.12 115.50 L271.49 118.10 L267.60 120.26 L263.63 122.32 L260.06 125.00 L256.31 127.41 L252.88 130.28 L249.39 133.05 L245.68 135.50 L241.93 137.91 L238.22 140.35 L234.94 143.40 L231.76 146.57 L228.05 149.02 L224.49 151.67 L221.13 154.58 L217.96 157.72 L214.80 160.86 L211.59 163.91 L208.18 166.75 L204.79 169.60 L201.60 172.68 L198.52 175.87 L195.50 179.11 L192.23 182.10 L188.89 185.01 L185.60 187.98 L182.83 191.47 L179.98 194.86 L176.80 197.94 L173.86 201.25 L171.03 204.65 L168.30 208.14 L165.70 211.73 L163.06 215.28 L160.25 218.68 L157.30 221.97 L154.66 225.51 L152.25 229.22 L149.78 232.88 L146.91 236.23 L144.09 239.63 L141.82 243.43 L139.47 247.16 L137.32 251.03 L135.01 254.77 L132.43 258.34 L129.92 261.96 L127.64 265.72 L125.29 269.44 L123.39 273.43 L121.14 277.21 L118.55 280.79 L116.35 284.60 L114.56 288.64 L113.02 292.80 L111.12 296.76 L109.10 300.65 L107.07 304.54 L105.45 308.64 L103.85 312.73 L102.33 316.85 L100.40 320.79 L98.59 324.77 L96.98 328.85 L95.42 332.94 L94.08 337.12 L92.31 341.12 L90.60 345.16 L89.11 349.27 L87.57 353.37 L86.42 357.60 L85.39 361.87 L83.89 365.98 L82.35 370.08 L81.23 374.31 L80.34 378.60 L79.63 382.94 L78.57 387.17 L77.09 391.30 L76.25 395.59 L75.63 399.92 L74.95 404.24 L74.18 408.53 L73.09 412.75 L72.16 417.01 L71.54 421.33 L71.01 425.66 L70.63 430.01 L69.83 434.29 L69.01 438.56 L68.73 442.92 L68.03 447.21 L68.10 451.60 L67.75 455.94 L67.49 460.27 L66.81 464.58 L66.45 468.91 L66.66 473.28 L67.03 477.64 L66.49 481.96 L66.12 486.29 L66.20 490.63 L66.60 494.98 L66.97 499.31 L66.86 503.64 L66.72 507.98 L67.15 512.30 L67.47 516.62 L68.00 520.93 L68.54 525.23 L68.74 529.55 L68.76 533.88 L68.87 538.21 L69.73 542.48 L70.62 546.73 L70.91 551.05 L71.44 555.33 L72.13 559.60 L73.01 563.84 L74.10 568.04 L75.15 572.23 L75.92 576.47 L76.51 580.75 L77.38 584.97 L78.54 589.13 L79.83 593.26 L80.52 597.51 L81.23 601.77 L82.53 605.89 L83.84 610.00 L85.42 614.03 L86.48 618.20 L87.75 622.31 L88.89 626.46 L90.33 630.51 L91.74 634.57 L93.50 638.51 L94.86 642.59 L96.01 646.74 L97.47 650.78 L99.42 654.64 L101.49 658.44 L102.91 662.49 L104.51 666.47 L106.48 670.29 L108.58 674.05 L110.62 677.83 L112.74 681.56 L114.35 685.53 L116.13 689.43 L118.16 693.20 L120.39 696.86 L122.57 700.54 L124.44 704.39 L126.16 708.33 L128.54 711.90 L130.77 715.55 L133.21 719.07 L135.63 722.60 L137.73 726.32 L139.90 730.01 L142.37 733.49 L144.99 736.88 L147.67 740.22 L150.07 743.74 L152.35 747.35 L155.04 750.68 L157.86 753.90 L160.61 757.16 L163.10 760.61 L165.81 763.90 L168.43 767.25 L171.32 770.39 L174.23 773.50 L177.28 776.49 L179.95 779.80 L182.58 783.15 L185.69 786.08 L188.56 789.21 L191.81 791.98 L194.58 795.21 L197.55 798.25 L200.33 801.48 L203.60 804.21 L207.07 806.73 L210.47 809.31 L213.43 812.34 L216.41 815.37 L219.70 818.05 L223.19 820.49 L226.71 822.89 L229.87 825.70 L232.98 828.59 L236.46 831.02 L239.88 833.51 L243.42 835.85 L246.97 838.15 L250.30 840.76 L253.59 843.41 L256.95 845.99 L260.61 848.13 L264.34 850.16 L267.81 852.55 L271.22 855.05 L274.96 857.05 L278.69 859.04 L282.53 860.83 L286.17 862.95 L289.94 864.86 L293.51 867.09 L297.29 868.96 L301.11 870.75 L305.02 872.35 L308.58 874.61 L312.28 876.63 L316.16 878.26 L320.07 879.83 L324.02 881.32 L327.73 883.31 L331.49 885.20 L335.44 886.65 L339.33 888.23 L343.32 889.56 L347.37 890.75 L351.28 892.27 L355.12 893.99 L359.02 895.52 L363.14 896.46 L367.31 897.23 L371.17 898.89 L375.18 900.11 L379.29 900.99 L383.42 901.79 L387.56 902.54 L391.70 903.24 L395.68 904.51 L399.72 905.56 L403.83 906.34 L407.97 906.98 L412.12 907.54 L416.14 908.67 L420.18 909.74 L424.28 910.53 L428.46 910.90 L432.61 911.32 L436.74 911.89 L440.87 912.47 L444.99 913.05 L449.16 913.32 L453.33 913.52 L457.51 913.51 L461.65 913.91 L465.77 914.51 L469.93 914.72 L474.10 914.65 L478.26 914.59 L482.39 915.16 L486.54 915.47 L490.70 915.13 L494.86 914.94 L499.01 914.63 L503.15 914.33 L507.30 914.37 L511.45 914.41 L515.58 914.10 L519.72 913.94 L523.83 913.23 L527.98 913.14 L532.14 913.30 L536.27 912.92 L540.35 912.11 L544.42 911.15 L548.49 910.36 L552.63 910.21 L556.74 909.73 L560.80 908.93 L564.84 907.96 L568.84 906.86 L572.94 906.36 L577.03 905.77 L581.03 904.71 L585.03 903.65 L588.97 902.39 L593.04 901.69 L597.05 900.72 L601.08 899.86 L605.08 898.85 L608.97 897.42 L612.84 895.96 L616.92 895.25 L620.93 894.28 L624.75 892.67 L628.52 890.96 L632.33 889.36 L636.27 888.16 L640.24 887.06 L643.96 885.26 L647.70 883.51 L651.41 881.73 L655.10 879.89 L658.98 878.54 L662.77 876.97 L666.41 875.04 L670.02 873.06 L673.57 870.99 L677.33 869.36 L681.12 867.78 L684.67 865.71 L688.36 863.93 L691.83 861.72 L695.33 859.59 L698.99 857.74 L702.62 855.85 L706.18 853.82 L709.45 851.31 L712.72 848.82 L716.39 846.98 L719.86 844.82 L723.17 842.42 L726.34 839.79 L729.49 837.17 L732.96 835.02 L736.51 832.97 L739.75 830.48 L742.86 827.82 L745.95 825.14 L749.08 822.52 L752.35 820.09 L755.66 817.70 L758.88 815.20 L761.76 812.29 L764.62 809.35 L767.82 806.83 L770.72 803.97 L773.76 801.26 L776.61 798.35 L779.24 795.21 L781.96 792.17 L784.86 789.33 L787.89 786.62 L790.61 783.59 L793.21 780.46 L795.74 777.27 L798.67 774.46 L801.60 771.64 L804.06 768.40 L806.54 765.18 L808.89 761.86 L811.58 758.83 L814.16 755.71 L816.78 752.62 L819.20 749.37 L821.70 746.18 L823.82 742.71 L826.35 739.54 L828.97 736.44 L831.38 733.18 L833.35 729.62 L835.28 726.04 L837.74 722.82 L840.03 719.48 L842.09 715.99 L843.90 712.36 L845.59 708.66 L847.36 705.02 L849.70 701.70 L851.75 698.23 L853.46 694.56 L855.10 690.86 L856.68 687.14 L858.63 683.61 L860.72 680.15 L862.22 676.40 L863.89 672.73 L865.23 668.91 L866.53 665.09 L868.29 661.47 L870.05 657.85 L871.42 654.06 L872.54 650.17 L873.73 646.33 L875.05 642.54 L876.70 638.87 L877.86 635.02 L878.80 631.10 L879.79 627.20 L881.05 623.40 L882.44 619.64 L883.51 615.78 L884.40 611.86 L885.22 607.93 L886.14 604.04 L887.31 600.21 L888.45 596.37 L889.25 592.45 L890.21 588.56 L890.74 584.58 L891.77 580.72 L892.67 576.82 L893.63 572.93 L893.88 568.91 L894.01 564.87 L894.21 560.86 L894.98 556.95 L895.70 553.01 L895.88 549.02 L896.00 545.01 L896.01 541.01 L896.54 537.06 L897.08 533.11 L897.20 529.12 L897.26 525.13 L897.14 521.14 L897.16 517.16 L897.37 513.19 L897.64 509.22 L897.79 505.25 L897.55 501.27 L897.14 497.29 L897.17 493.32 L897.32 489.34 L896.88 485.38 L896.47 481.43 L895.81 477.49 L895.49 473.54 L895.30 469.58 L894.99 465.62 L894.36 461.70 L893.65 457.79 L892.95 453.89 L892.64 449.94 L892.21 446.00 L891.48 442.11 L890.62 438.24 L889.57 434.41 L889.00 430.49 L888.59 426.55 L887.44 422.75 L886.75 418.85 L885.39 415.11 L884.21 411.33 L883.42 407.46 L882.70 403.58 L881.89 399.71 L880.38 396.03 L878.75 392.39 L877.98 388.52 L877.02 384.69 L875.70 380.97 L874.10 377.35 L872.41 373.77 L870.95 370.11 L869.71 366.38 L868.46 362.65 L866.96 359.01 L865.23 355.47 L863.50 351.93 L862.12 348.25 L860.84 344.53 L859.45 340.85 L857.42 337.46 L855.41 334.06 L853.94 330.42 L852.13 326.93 L850.21 323.51 L848.16 320.15 L845.89 316.92 L843.70 313.65 L841.76 310.26 L840.03 306.75 L837.91 303.46 L835.62 300.27 L833.31 297.10 L831.53 293.62 L829.69 290.16 L827.36 287.01 L825.02 283.88 L822.55 280.83 L820.24 277.69 L818.16 274.39 L815.94 271.18 L813.57 268.08 L811.22 264.97 L808.57 262.09 L806.19 259.00 L804.05 255.72 L801.59 252.69 L798.85 249.91 L795.90 247.30 L793.29 244.41 L790.75 241.47 L788.14 238.58 L785.24 235.96 L782.39 233.31 L779.44 230.76 L776.86 227.85 L774.15 225.07 L771.28 222.45 L768.40 219.85 L765.40 217.38 L762.71 214.58 L760.02 211.77 L757.02 209.30 L754.08 206.76 L751.00 204.40 L747.84 202.13 L744.90 199.61 L741.92 197.13 L738.80 194.83 L735.55 192.70 L732.20 190.71 L728.96 188.59 L725.96 186.14 L722.71 184.04 L719.38 182.06 L716.00 180.16 L712.69 178.18 L709.59 175.87 L706.37 173.74 L702.98 171.87 L699.58 170.03 L696.07 168.39 L692.80 166.36 L689.54 164.29 L685.99 162.75 L682.58 160.95 L678.98 159.53 L675.59 157.71 L672.12 156.05 L668.76 154.15 L665.24 152.60 L661.57 151.38 L657.87 150.23 L654.51 148.35 L651.08 146.60 L647.49 145.22 L643.74 144.23 L640.03 143.19 L636.53 141.61 L633.01 140.07 L629.29 139.07 L625.60 138.01 L621.85 137.14 L618.11 136.26 L614.50 135.01 L610.92 133.65 L607.30 132.38 L603.52 131.66 L599.72 131.04 L596.06 129.96 L592.40 128.84 L588.62 128.21 L584.83 127.63 L580.99 127.29 L577.22 126.72 L573.43 126.23 L569.72 125.33 L565.95 124.77 L562.15 124.39 L558.34 124.15 L554.63 123.24 L550.88 122.55 L547.07 122.28 L543.27 122.04 L539.45 121.95 L535.70 121.27 L531.91 120.88 L528.11 120.77 L524.30 120.65 L520.50 120.52 L516.70 120.63 L512.90 120.45 L509.11 120.09 L505.31 119.90 L501.51 120.33 L497.72 120.89 L493.92 120.54 L490.13 120.64 L486.35 121.19 L482.59 121.87 L478.82 122.38 L475.06 122.81 L471.27 122.82 L467.51 123.28 L463.78 123.90 L460.03 124.45 L456.30 125.04 L452.52 125.19 L448.74 125.49 L445.01 126.10 L441.32 126.95 L437.66 127.93 L433.94 128.57 L430.23 129.26 L426.53 129.98 L422.90 131.05 L419.29 132.20 L415.71 133.44 L412.07 134.37 L408.36 135.04 L404.72 136.01 L401.17 137.28 L397.64 138.64 L393.95 139.40 L390.30 140.30 L386.84 141.83 L383.35 143.26 L379.91 144.78 L376.47 146.32 L372.92 147.52 L369.37 148.72 L365.92 150.19 L362.40 151.46 L359.13 153.38 L355.60 154.64 L351.98 155.69 L348.56 157.23 L345.29 159.10 L342.15 161.20 L338.92 163.12 L335.44 164.51 L332.05 166.08 L328.80 167.94 L325.69 170.05 L322.59 172.15 L319.20 173.74 L315.87 175.42 L312.81 177.58 L309.70 179.65 L306.69 181.86 L303.40 183.62 L300.29 185.68 L297.06 187.54 L293.87 189.47 L290.96 191.82 L288.09 194.22 L284.90 196.15 L281.76 198.16 L278.90 200.55 L276.10 203.03 L273.47 205.71 L270.64 208.11 L267.53 210.17 L264.84 212.75 L262.12 215.29 L259.43 217.85 L256.82 220.49 L253.89 222.78 L251.05 225.17 L248.43 227.80 L245.94 230.55 L243.48 233.34 L240.77 235.86 L238.05 238.38 L235.66 241.22 L233.02 243.81 L230.78 246.78 L228.43 249.65 L225.93 252.36 L223.33 255.00 L220.85 257.73 L218.75 260.80 L216.80 263.98 L214.21 266.63 L211.80 269.42 L209.61 272.40 L207.73 275.60 L205.83 278.78 L203.54 281.67 L201.10 284.45 L199.10 287.55 L197.16 290.69 L195.39 293.93 L193.55 297.12 L191.42 300.12 L189.29 303.13 L187.23 306.18 L185.63 309.51 L184.12 312.89 L182.10 315.96 L180.49 319.27 L178.67 322.46 L177.07 325.76 L175.71 329.20 L174.38 332.64 L172.83 335.95 L170.96 339.11 L169.55 342.50 L168.24 345.93 L167.08 349.42 L165.36 352.65 L163.71 355.92 L162.54 359.40 L161.40 362.88 L160.42 366.42 L159.00 369.78 L157.66 373.18 L156.28 376.56 L155.20 380.05 L154.06 383.52 L153.22 387.09 L152.05 390.54 L150.69 393.94 L149.64 397.44 L148.92 401.03 L148.39 404.66 L147.23 408.13 L146.28 411.65 L145.58 415.23 L145.21 418.88 L144.71 422.50 L144.23 426.11 L143.24 429.62 L142.60 433.20 L142.20 436.82 L141.97 440.47 L141.58 444.08 L140.81 447.63 L140.04 451.19 L139.92 454.84 L139.49 458.44 L139.52 462.09 L139.58 465.74 L139.16 469.34 L138.72 472.93 L138.69 476.56 L138.83 480.20 L139.08 483.83 L139.12 487.44 L138.77 491.05 L138.84 494.66 L139.20 498.28 L139.53 501.88 L139.62 505.49 L139.53 509.09 L139.62 512.70 L140.01 516.29 L140.56 519.87 L140.97 523.45 L141.00 527.06 L141.08 530.66 L141.62 534.23 L142.00 537.81 L142.77 541.34 L142.98 544.94 L143.38 548.52 L143.69 552.11 L144.55 555.62 L145.65 559.09 L146.62 562.56 L147.09 566.12 L148.02 569.60 L148.90 573.08 L150.07 576.50 L150.90 579.98 L151.94 583.42 L152.93 586.86 L153.72 590.35 L154.76 593.78 L155.76 597.21 L157.05 600.56 L158.12 603.97 L159.21 607.37 L160.44 610.73 L161.56 614.12 L162.89 617.44 L164.33 620.71 L165.49 624.09 L166.89 627.37 L168.28 630.66 L169.72 633.92 L171.44 637.07 L172.90 640.32 L174.48 643.51 L176.12 646.67 L177.74 649.84 L179.32 653.02 L181.09 656.11 L182.70 659.27 L184.49 662.35 L186.12 665.50 L187.83 668.61 L189.70 671.63 L191.45 674.71 L193.42 677.67 L195.29 680.68 L197.08 683.73 L199.08 686.67 L201.00 689.64 L202.91 692.62 L204.86 695.58 L206.83 698.52 L209.11 701.25 L211.19 704.11 L213.20 707.02 L215.34 709.83 L217.65 712.52 L220.00 715.17 L222.41 717.77 L224.57 720.56 L226.91 723.20 L229.31 725.80 L231.57 728.50 L233.98 731.08 L236.54 733.51 L239.02 736.02 L241.38 738.63 L243.92 741.07 L246.38 743.58 L248.93 746.02 L251.47 748.44 L254.05 750.83 L256.61 753.23 L259.31 755.49 L262.02 757.73 L264.72 759.97 L267.43 762.21 L270.13 764.44 L272.90 766.60 L275.82 768.56 L278.71 770.55 L281.25 772.97 L283.93 775.23 L286.87 777.13 L289.82 779.03 L292.67 781.05 L295.45 783.16 L298.29 785.21 L301.17 787.19 L304.20 788.94 L307.25 790.65 L310.32 792.32 L313.24 794.22 L316.18 796.09 L319.26 797.74 L322.44 799.21 L325.66 800.59 L328.69 802.29 L331.63 804.16 L334.71 805.77 L337.83 807.31 L340.97 808.80 L344.09 810.32 L347.13 812.02 L350.21 813.63 L353.36 815.09 L356.53 816.52 L359.79 817.75 L362.92 819.26 L366.10 820.65 L369.35 821.89 L372.58 823.17 L375.90 824.20 L379.19 825.31 L382.43 826.56 L385.74 827.62 L389.09 828.55 L392.44 829.44 L395.78 830.38 L399.13 831.27 L402.52 832.03 L405.89 832.83 L409.26 833.60 L412.65 834.31 L416.06 834.93 L419.42 835.70 L422.83 836.28 L426.21 836.98 L429.59 837.67 L433.00 838.21 L436.39 838.84 L439.86 839.00 L443.26 839.55 L446.64 840.20 L450.08 840.46 L453.53 840.66 L456.92 841.24 L460.34 841.66 L463.78 841.78 L467.23 841.78 L470.67 841.95 L474.08 842.28 L477.52 842.33 L480.95 842.38 L484.38 842.39 L487.82 842.33 L491.24 842.56 L494.67 842.45 L498.09 842.45 L501.52 842.47 L504.94 842.25 L508.35 841.99 L511.77 841.82 L515.19 841.61 L518.59 841.24 L522.00 840.95 L525.39 840.56 L528.79 840.25 L532.18 839.81 L535.56 839.27 L538.92 838.65 L542.29 838.12 L545.65 837.52 L549.02 837.04 L552.37 836.45 L555.71 835.74 L559.02 834.96 L562.37 834.34 L565.74 833.84 L569.05 833.07 L572.33 832.14 L575.59 831.13 L578.86 830.20 L582.16 829.40 L585.44 828.55 L588.69 827.55 L591.89 826.41 L595.06 825.14 L598.25 824.01 L601.50 823.04 L604.72 822.01 L607.83 820.64 L610.93 819.25 L614.04 817.90 L617.15 816.57 L620.21 815.13 L623.20 813.51 L626.22 812.01 L629.21 810.44 L632.15 808.76 L635.07 807.04 L638.00 805.39 L640.93 803.74 L643.86 802.09 L646.79 800.47 L649.65 798.71 L652.51 796.98 L655.37 795.25 L658.22 793.50 L661.05 791.73 L663.86 789.93 L666.65 788.10 L669.43 786.26 L672.21 784.43 L675.65 783.67 L678.56 782.03 L681.65 780.66 L684.40 778.76 L687.34 777.14 L690.32 775.57 L693.26 773.92 L696.18 772.24 L698.85 770.21 L701.36 767.96 L703.89 765.75 L706.29 763.39 L709.13 761.58 L711.58 759.28 L714.08 757.06 L716.45 754.68 L718.64 752.11 L721.11 749.86 L723.77 747.83 L726.23 745.57 L728.60 743.22 L730.73 740.61 L733.21 738.38 L735.49 735.95 L737.80 733.55 L740.19 731.22 L742.40 728.72 L744.73 726.34 L746.98 723.88 L749.51 721.67 L752.21 719.59 L755.10 717.66 L758.15 715.84 L761.31 714.07 L764.57 712.36 L766.01 709.18 L767.63 706.16 L770.49 704.08 L773.20 701.87 L773.95 698.22 L774.56 694.51 L776.20 691.56 L778.25 688.88 L778.19 684.80 L779.28 681.53 L781.53 679.02 L784.03 676.64 L786.05 673.95 L786.77 670.49 L788.16 667.44 L790.75 665.07 L792.97 662.48 L793.75 659.09 L795.18 656.07 L796.87 653.19 L798.45 650.24 L797.98 646.29 L798.80 643.00 L801.18 640.46 L803.40 637.82 L804.73 634.76 L805.15 631.31 L805.63 627.91 L808.59 625.54 L809.94 622.49 L810.27 619.05 L811.28 615.88 L812.86 612.92 L813.52 609.63 L812.72 605.85 L813.51 602.63 L815.34 599.75 L817.43 596.93 L818.01 593.64 L818.42 590.31 L818.52 586.91 L820.62 584.05 L821.44 580.84 L822.59 577.70 L823.64 574.54 L823.90 571.20 L823.86 567.80 L824.30 564.52 L825.59 561.39 L825.84 558.07 L827.33 554.97 L826.99 551.55 L827.47 548.28 L826.76 544.84 L828.97 541.79 L828.72 538.43 L827.69 534.99 L828.15 531.72 L829.38 528.52 L827.92 525.09 L826.43 521.70 L827.02 518.45 L827.81 515.21 L828.73 511.96 L827.81 508.65 L827.60 505.36 L827.71 502.09 L828.88 498.81 L828.64 495.52 L827.63 492.26 L827.92 488.97 L828.23 485.67 L826.08 482.50 L824.86 479.30 L825.03 476.02 L825.72 472.70 L825.83 469.40 L824.34 466.27 L823.78 463.05 L824.32 459.70 L824.92 456.32 L823.59 453.20 L822.71 450.03 L822.35 446.78 L822.34 443.46 L819.54 440.66 L818.06 437.63 L818.09 434.32 L818.23 430.96 L817.81 427.72 L815.99 424.80 L814.92 421.72 L814.47 418.49 L814.37 415.15 L813.59 411.98 L813.42 408.64 L811.79 405.72 L810.72 402.65 L808.22 400.03 L808.66 396.47 L807.15 393.55 L806.86 390.20 L805.33 387.29 L804.09 384.28 L801.22 381.91 L801.28 378.39 L799.86 375.47 L797.65 372.88 L796.31 369.93 L795.23 366.87 L793.30 364.20 L790.28 362.05 L788.88 359.16 L788.08 355.97 L787.54 352.62 L785.52 350.03 L783.75 347.33 L781.63 344.82 L781.86 340.99 L779.93 338.37 L777.20 336.23 L775.73 333.36 L774.82 330.13 L772.27 327.92 L769.28 326.02 L767.66 323.25 L766.54 320.13 L765.51 316.94 L763.15 314.65 L760.86 312.33 L758.81 309.85 L758.16 306.33 L755.63 304.20 L752.52 302.55 L750.79 299.83 L749.31 296.89 L745.85 295.58 L742.63 294.13 L740.88 291.43 L739.40 288.49 L737.79 285.63 L734.82 284.02 L732.46 281.86 L729.99 279.82 L728.76 276.56 L726.27 274.52 L724.60 271.68 L722.13 269.62 L719.87 267.35 L716.25 266.55 L714.73 263.49 L712.18 261.55 L709.92 259.29 L707.63 257.05 L704.77 255.49 L701.70 254.21 L699.52 251.84 L697.44 249.34 L694.23 248.27 L691.33 246.84 L688.93 244.74 L686.61 242.53 L682.80 242.41 L679.77 241.23 L677.58 238.84 L675.42 236.40 L672.87 234.51 L669.44 233.99 L666.46 232.81 L663.68 231.32 L661.31 229.16 L658.43 227.83 L655.32 226.94 L652.41 225.70 L649.40 224.68 L646.50 223.45 L643.84 221.79 L641.15 220.17 L638.83 217.78 L636.18 216.04 L633.36 214.63 L630.12 214.14 L627.93 211.34 L624.86 210.49 L621.58 210.15 L618.78 208.70 L616.02 207.12 L612.85 206.58 L609.20 207.36 L606.26 206.31 L603.57 204.56 L600.95 202.52 L597.70 202.36 L594.50 202.09 L591.27 201.95 L588.33 200.93 L585.36 199.97 L582.17 199.81 L578.98 199.70 L575.67 200.11 L572.48 200.16 L569.43 199.65 L566.45 198.83 L563.40 198.37 L560.39 197.69 L557.28 197.56 L554.21 197.24 L551.15 196.90 L548.08 196.62 L545.00 196.41 L541.92 196.33 L538.81 196.43 L535.71 196.63 L532.65 196.54 L529.62 196.17 L526.56 196.11 L523.48 196.28 L520.44 196.20 L517.38 196.27 L514.34 196.18 L511.30 196.02 L508.26 196.07 L505.22 195.92 L502.18 195.72 L499.14 195.80 L496.10 196.01 L493.06 196.20 L490.02 196.29 L487.00 196.75 L483.99 197.28 L480.98 197.64 L477.97 198.00 L474.96 198.39 L471.96 198.86 L468.96 199.26 L465.96 199.57 L462.94 199.83 L459.97 200.39 L456.99 200.95 L454.00 201.37 L451.01 201.83 L448.07 202.56 L445.13 203.25 L442.19 203.94 L439.28 204.74 L436.39 205.64 L433.51 206.57 L430.61 207.37 L427.76 208.37 L424.90 209.33 L422.07 210.35 L419.13 210.98 L416.13 211.41 L413.14 211.90 L410.17 212.48 L407.22 213.16 L403.97 212.94 L400.87 213.25 L397.97 214.13 L394.49 213.47 L391.98 215.46 L389.28 216.93 L386.12 217.21 L382.94 217.50 L380.32 219.16 L378.43 222.44 L375.58 223.49 L372.45 223.95 L369.19 224.17 L366.71 226.06 L364.27 227.98 L361.98 230.19 L358.68 230.42 L355.98 231.82 L353.10 232.91 L350.48 234.46 L348.07 236.38 L345.87 238.64 L343.20 240.09 L340.23 241.06 L337.81 242.92 L334.79 243.85 L332.70 246.21 L330.22 247.97 L328.27 250.51 L324.95 251.04 L322.83 253.31 L321.04 256.01 L318.40 257.53 L315.56 258.80 L314.28 262.10 L312.80 265.08 L310.23 266.69 L307.44 268.04 L304.73 269.49 L303.25 272.40 L301.19 274.62 L299.20 276.90 L296.04 277.89 L294.13 280.27 L291.35 281.72 L289.36 284.00 L287.21 286.12 L286.31 289.46 L283.28 290.70 L281.66 293.33 L279.28 295.22 L277.10 297.30 L275.35 299.78 L274.00 302.59 L272.09 304.91 L269.58 306.72 L268.31 309.57 L266.65 312.08 L264.46 314.17 L262.58 316.51 L262.34 320.09 L261.16 322.93 L258.56 324.72 L256.09 326.62 L254.24 328.98 L253.58 332.15 L252.45 334.98 L250.30 337.13 L248.22 339.34 L246.60 341.85 L244.49 344.06 L243.82 347.14 L243.16 350.22 L243.07 353.59 L240.38 355.47 L238.95 358.08 L238.92 361.42 L237.92 364.24 L236.27 366.71 L235.22 369.49 L232.65 371.53 L232.38 374.67 L231.43 377.49 L229.33 379.79 L227.22 382.10 L226.63 385.08 L227.37 388.58 L226.27 391.31 L224.49 393.78 L222.43 396.17 L222.14 399.21 L221.62 402.17 L221.26 405.16 L219.02 407.52 L218.28 410.39 L217.21 413.15 L216.15 415.92 L215.62 418.85 L215.80 421.97 L215.08 424.83 L213.70 427.52 L213.16 430.43 L211.66 433.11 L212.53 436.33 L212.52 439.34 L213.68 442.57 L212.61 445.34 L212.73 448.33 L213.64 451.44 L214.32 454.49 L214.76 457.48 L214.77 460.40 L214.71 463.29 L214.94 466.22 L214.85 469.09 L214.58 471.95 L214.20 474.79 L213.86 477.65 L213.74 480.51 L214.06 483.41 L214.04 486.27 L213.73 489.13 L213.68 491.99 L213.44 494.85 L213.51 497.72 L213.66 500.58 L214.10 503.44 L214.26 506.30 L214.37 509.15 L214.44 512.01 L214.52 514.87 L214.70 517.72 L215.49 520.53 L215.86 523.36 L215.87 526.22 L216.28 529.05 L216.40 531.91 L216.92 534.72 L217.53 537.52 L218.38 540.27 L218.56 543.12 L219.07 545.92 L219.41 548.75 L220.08 551.53 L220.64 554.32 L221.72 557.00 L222.42 559.76 L222.80 562.58 L223.73 565.28 L224.72 567.96 L225.35 570.72 L226.35 573.39 L227.04 576.14 L227.61 578.93 L228.46 581.63 L229.28 584.35 L230.15 587.05 L230.71 589.85 L231.54 592.57 L232.21 595.34 L233.11 598.04 L234.40 600.59 L235.70 603.13 L236.50 605.87 L237.74 608.43 L239.58 610.73 L240.93 613.23 L242.20 615.76 L244.07 618.01 L246.07 620.18 L247.60 622.56 L249.12 624.93 L250.83 627.21 L252.49 629.50 L254.18 631.76 L255.75 634.08 L257.24 636.44 L258.68 638.82 L260.10 641.22 L261.54 643.60 L262.97 645.99 L264.44 648.36 L265.87 650.74 L267.35 653.10 L268.84 655.46 L270.43 657.75 L272.02 660.03 L273.57 662.35 L275.20 664.60 L276.86 666.84 L278.62 669.01 L280.33 671.20 L282.10 673.36 L283.87 675.51 L285.65 677.65 L287.35 679.85 L289.24 681.90 L291.08 683.99 L292.97 686.04 L294.82 688.11 L296.73 690.14 L298.68 692.13 L300.64 694.10 L302.60 696.08 L304.62 697.99 L306.68 699.86 L308.80 701.67 L310.78 703.62 L312.91 705.41 L315.09 707.14 L317.18 708.97 L319.35 710.70 L321.49 712.47 L323.75 714.08 L325.98 715.75 L328.19 717.41 L330.42 719.06 L332.75 720.57 L335.05 722.12 L337.35 723.65 L339.68 725.15 L342.01 726.65 L344.32 728.17 L346.67 729.62 L349.03 731.05 L351.43 732.42 L353.77 733.88 L356.15 735.28 L358.60 736.55 L361.08 737.77 L363.55 739.01 L366.02 740.22 L368.51 741.40 L371.00 742.58 L373.49 743.74 L375.96 744.94 L378.51 745.97 L381.06 747.01 L382.77 749.83 L385.26 751.01 L387.59 752.56 L390.07 753.79 L392.16 755.95 L394.39 757.84 L396.90 759.07 L399.43 760.24 L401.84 761.78 L404.68 762.15 L407.39 762.85 L410.06 763.65 L412.64 764.73 L415.57 764.70 L418.47 764.71 L421.22 765.20 L423.76 766.37 L426.61 766.45 L429.26 767.26 L432.02 767.61 L434.44 769.35 L437.15 769.92 L439.82 770.70 L442.46 771.59 L445.20 772.09 L448.00 772.21 L450.88 771.86 L453.74 771.50 L456.44 772.06 L459.26 771.84 L461.92 772.68 L464.59 773.46 L467.42 773.07 L470.26 772.38 L472.88 773.69 L475.51 775.15 L478.22 776.00 L481.03 775.44 L483.79 775.52 L486.54 775.89 L489.32 775.43 L492.08 775.34 L494.83 775.51 L497.59 775.29 L500.34 775.01 L503.08 774.12 L505.80 773.18 L508.56 774.00 L511.28 773.43 L514.01 773.16 L516.71 772.47 L519.47 772.83 L522.26 773.40 L524.94 772.54 L527.70 772.70 L530.51 773.10 L533.13 771.96 L535.78 771.09 L538.41 770.15 L541.08 769.52 L543.64 768.28 L546.36 768.08 L549.07 767.76 L551.76 767.34 L554.24 765.90 L556.92 765.42 L559.80 765.86 L562.76 766.55 L565.19 764.95 L567.64 763.52 L570.30 762.96 L573.12 762.94 L575.48 761.27 L577.88 759.82 L580.55 759.25 L583.37 759.15 L585.63 757.31 L588.11 756.20 L590.89 755.93 L593.62 755.48 L595.69 753.28 L598.10 752.01 L600.93 751.78 L603.61 751.18 L605.62 748.95 L607.76 747.10 L610.55 746.73 L613.21 746.03 L615.14 743.80 L617.40 742.27 L620.11 741.67 L622.63 740.68 L624.53 738.49 L626.87 737.15 L629.43 736.23 L631.84 735.02 L633.42 732.35 L635.32 730.31 L637.43 728.63 L639.79 727.37 L641.77 725.50 L643.56 723.36 L645.98 722.21 L647.98 720.42 L650.05 718.75 L652.00 716.90 L654.13 715.34 L656.78 714.47 L658.73 712.64 L660.43 710.50 L662.93 709.40 L664.85 707.55 L666.75 705.68 L668.40 703.52 L670.50 701.92 L672.90 700.65 L674.38 698.32 L675.96 696.13 L678.39 694.89 L679.89 692.62 L681.76 690.77 L683.20 688.46 L685.40 686.94 L687.20 685.02 L689.49 683.58 L691.81 682.14 L693.74 680.33 L694.61 677.54 L696.18 675.41 L698.26 673.73 L700.67 672.32 L702.02 670.00 L702.89 667.30 L703.96 664.78 L705.96 663.03 L707.08 660.57 L708.71 658.51 L709.96 656.18 L712.29 654.64 L713.66 652.39 L714.77 649.97 L716.31 647.85 L717.93 645.78 L718.88 643.27 L720.09 640.94 L721.20 638.54 L723.24 636.73 L724.42 634.39 L725.22 631.83 L726.75 629.69 L727.96 627.38 L728.89 624.91 L729.97 622.53 L731.13 620.20 L733.22 618.34 L734.46 616.03 L735.69 613.72 L737.45 611.66 L737.79 608.93 L738.78 606.51 L739.97 604.17 L741.96 602.17 L742.49 599.55 L742.32 596.66 L743.01 594.13 L744.74 592.00 L745.09 589.34 L744.83 586.48 L745.42 583.94 L747.47 581.89 L747.87 579.28 L747.79 576.53 L748.33 573.99 L750.23 571.83 L750.40 569.18 L750.44 566.50 L751.03 563.98 L753.01 561.80 L752.86 559.09 L752.86 556.43 L753.26 553.86 L754.81 551.53 L754.43 548.81 L754.84 546.26 L755.56 543.75 L756.89 541.34 L756.02 538.58 L756.24 535.99 L757.14 533.50 L758.04 531.00 L756.92 528.26 L756.50 525.62 L757.28 523.10 L758.23 520.59 L757.34 517.93 L756.61 515.30 L757.03 512.75 L757.85 510.20 L757.30 507.61 L756.69 505.02 L757.18 502.46 L757.66 499.89 L756.95 497.32 L756.22 494.76 L756.76 492.18 L756.99 489.60 L755.71 487.09 L754.96 484.57 L755.69 481.96 L755.70 479.39 L754.13 476.95 L753.34 474.47 L754.11 471.82 L754.00 469.26 L752.59 466.86 L751.88 464.39 L752.41 461.74 L752.00 459.22 L750.59 456.87 L750.14 454.37 L750.37 451.73 L749.65 449.28 L748.56 446.91 L748.45 444.33 L748.37 441.73 L748.15 439.16 L747.25 436.75 L746.94 434.19 L746.67 431.61 L745.39 429.32 L744.59 426.89 L743.80 424.47 L743.08 422.02 L741.14 419.97 L739.22 417.94 L737.77 415.77 L737.80 413.08 L736.24 410.96 L735.25 408.64 L733.98 406.42 L733.74 403.80 L733.10 401.32 L732.06 399.02 L731.59 396.45 L730.78 394.03 L729.03 392.05 L727.47 389.99 L725.61 388.09 L724.30 385.94 L722.08 384.26 L721.04 381.97 L719.96 379.71 L718.51 377.65 L716.46 375.93 L715.78 373.44 L715.45 370.72 L715.20 367.93 L713.37 366.09 L712.07 363.94 L711.08 361.58 L709.39 359.66 L707.60 357.84 L706.32 355.66 L704.91 353.58 L703.04 351.82 L700.37 350.67 L698.20 349.19 L696.95 347.00 L695.29 345.14 L693.24 343.59 L691.72 341.63 L690.02 339.81 L689.39 337.06 L687.60 335.31 L686.20 333.22 L685.13 330.81 L683.00 329.36 L680.82 327.98 L678.46 326.80 L676.37 325.37 L674.03 324.21 L671.85 322.90 L670.14 321.12 L668.55 319.20 L666.01 318.32 L664.19 316.67 L663.08 314.19 L662.13 311.51 L660.46 309.63 L658.19 308.47 L656.41 306.72 L654.68 304.90 L652.27 303.95 L650.21 302.55 L648.37 300.88 L646.25 299.56 L643.41 299.26 L640.79 298.70 L638.46 297.76 L636.93 295.65 L634.38 295.05 L632.42 293.57 L630.22 292.46 L628.64 290.34 L626.66 288.86 L624.63 287.46 L622.73 285.83 L620.70 284.40 L618.29 283.65 L615.78 283.12 L613.26 282.63 L610.92 281.84 L608.27 281.66 L606.13 280.48 L603.95 279.40 L601.56 278.77 L599.01 278.50 L597.15 276.69 L595.27 274.89 L593.38 273.05 L590.89 272.67 L588.62 271.76 L586.45 270.57 L584.05 270.00 L581.62 269.51 L579.31 268.73 L577.01 267.90 L574.52 267.66 L571.76 268.30 L569.23 268.30 L567.09 267.00 L564.64 266.74 L562.16 266.67 L559.81 266.09 L557.49 265.42 L555.37 263.89 L552.96 263.58 L550.73 262.39 L548.46 261.35 L545.94 261.58 L543.49 261.50 L540.95 261.93 L538.51 261.92 L535.99 262.46 L533.54 262.59 L531.17 262.20 L528.83 261.62 L526.32 262.49 L523.92 262.43 L521.64 261.19 L519.37 259.46 L516.90 260.24 L514.47 260.54 L512.09 260.01 L509.73 259.07 L507.28 260.06 L504.88 260.24 L502.49 259.64 L500.08 258.82 L497.69 260.17 L495.30 260.63 L492.89 260.18 L490.46 259.56 L488.12 260.97 L485.76 261.61 L483.35 261.28 L480.92 260.93 L478.63 262.29 L476.26 262.55 L473.80 261.98 L471.40 262.08 L469.20 263.77 L466.81 263.85 L464.33 263.41 L461.95 263.68 L459.86 265.67 L457.45 265.68 L455.01 265.63 L452.69 266.20 L450.70 268.32 L448.50 269.30 L446.05 269.21 L443.71 269.64 L441.70 271.36 L439.64 272.78 L437.23 272.87 L434.87 273.20 L432.78 274.44 L430.54 275.19 L428.00 274.97 L425.82 275.88 L423.96 277.75 L421.92 279.02 L419.35 278.80 L417.27 279.98 L415.43 281.74 L413.55 283.33 L411.03 283.34 L408.97 284.49 L407.12 286.11 L404.93 286.90 L402.28 286.72 L400.39 288.22 L398.53 289.75 L396.51 290.94 L393.82 290.78 L392.12 292.61 L390.46 294.46 L388.38 295.52 L386.42 296.77 L384.84 298.70 L383.48 300.98 L381.68 302.45 L380.10 304.28 L378.67 306.33 L377.18 308.23 L375.74 310.19 L373.97 311.62 L372.26 313.15 L370.62 314.75 L369.02 316.40 L367.24 317.79 L365.54 319.27 L363.81 320.72 L362.28 322.42 L360.42 323.69 L358.77 325.22 L357.22 326.88 L355.73 328.60 L353.97 329.98 L352.35 331.54 L350.89 333.27 L349.47 335.02 L347.71 336.41 L346.27 338.14 L344.87 339.91 L343.45 341.64 L341.69 343.03 L340.18 344.67 L338.76 346.40 L337.39 348.16 L335.67 349.60 L334.19 351.27 L332.80 353.01 L331.58 354.90 L330.15 356.60 L328.83 358.40 L327.60 360.26 L326.36 362.11 L324.98 363.84 L323.74 365.69 L322.60 367.60 L321.47 369.52 L320.00 371.18 L318.65 372.94 L317.62 374.92 L316.47 376.81 L315.16 378.59 L314.22 380.62 L313.24 382.61 L312.27 384.61 L311.01 386.42 L310.07 388.43 L309.34 390.54 L308.26 392.46 L307.27 394.42 L306.54 396.52 L305.80 398.61 L304.69 400.51 L303.61 402.42 L302.75 404.44 L302.09 406.55 L300.98 408.45 L300.02 410.42 L299.21 412.46 L298.63 414.59 L297.86 416.64 L297.16 418.71 L296.46 420.79 L295.99 422.94 L295.11 424.94 L294.48 427.03 L293.98 429.17 L293.60 431.34 L292.79 433.36 L292.12 435.43 L291.48 437.51 L291.22 439.71 L290.38 441.73 L289.95 443.86 L289.67 446.04 L289.50 448.23 L288.86 450.31 L288.48 452.44 L288.35 454.63 L288.19 456.81 L287.65 458.91 L287.52 461.08 L287.43 463.26 L287.29 465.42 L286.71 467.51 L286.47 469.66 L286.36 471.82 L286.27 473.98 L285.78 476.09 L285.61 478.24 L285.53 480.40 L285.66 482.57 L285.47 484.71 L285.48 486.87 L285.60 489.02 L285.66 491.18 L285.60 493.32 L285.72 495.47 L285.92 497.61 L286.09 499.75 L285.93 501.89 L285.90 504.04 L286.26 506.17 L286.37 508.30 L286.41 510.44 L286.84 512.56 L287.22 514.67 L287.53 516.79 L287.61 518.92 L288.03 521.02 L288.66 523.10 L288.85 525.21 L289.25 527.31 L289.84 529.37 L290.45 531.42 L290.63 533.54 L290.93 535.64 L291.41 537.71 L292.10 539.74 L292.27 541.86 L292.68 543.94 L293.19 546.00 L293.96 547.99 L294.51 550.04 L295.13 552.06 L295.81 554.07 L296.67 556.02 L297.13 558.08 L297.82 560.08 L298.65 562.03 L299.57 563.95 L300.12 565.98 L300.81 567.97 L301.55 569.94 L302.60 571.80 L303.09 573.86 L304.03 575.75 L305.03 577.61 L306.14 579.43 L306.83 581.41 L307.77 583.29 L308.95 585.05 L310.03 586.86 L310.82 588.80 L311.98 590.56 L313.15 592.31 L314.23 594.10 L314.96 596.07 L316.02 597.86 L317.19 599.60 L318.27 601.38 L319.11 603.29 L320.23 605.05 L321.42 606.77 L322.74 608.40 L323.85 610.16 L325.06 611.85 L326.40 613.45 L327.60 615.15 L328.80 616.84 L330.12 618.44 L331.59 619.94 L332.96 621.50 L334.15 623.19 L335.36 624.86 L336.87 626.30 L338.27 627.83 L339.66 629.36 L341.23 630.73 L342.74 632.15 L344.15 633.65 L345.51 635.19 L347.04 636.57 L348.66 637.86 L350.05 639.37 L351.58 640.74 L353.17 642.05 L354.80 643.31 L356.19 644.81 L357.68 646.20 L359.24 647.52 L360.87 648.76 L362.30 650.22 L363.87 651.52 L365.46 652.80 L367.14 653.97 L368.74 655.23 L370.39 656.42 L372.07 657.58 L373.81 658.64 L375.42 659.88 L377.10 661.01 L378.84 662.07 L380.61 663.08 L382.25 664.26 L383.95 665.36 L385.69 666.40 L387.48 667.35 L389.15 668.48 L390.94 669.42 L392.74 670.34 L394.57 671.21 L396.29 672.25 L398.10 673.15 L399.96 673.94 L401.79 674.78 L403.57 675.69 L405.44 676.46 L407.29 677.23 L409.14 678.02 L410.92 678.92 L412.78 679.68 L414.66 680.37 L416.55 681.02 L418.43 681.71 L420.32 682.36 L422.20 683.02 L424.11 683.61 L426.03 684.17 L427.94 684.72 L429.85 685.28 L431.76 685.83 L433.66 686.38 L435.57 686.92 L437.48 687.44 L439.40 687.94 L441.31 688.42 L443.22 688.93 L445.11 689.48 L446.99 690.10 L448.87 690.70 L450.77 691.26 L452.68 691.75 L454.55 692.42 L456.41 693.17 L458.28 693.89 L460.20 694.40 L462.14 694.79 L464.07 695.27 L466.05 695.48 L467.99 695.90 L469.96 696.15 L471.95 696.29 L473.96 696.18 L475.97 696.08 L477.92 696.39 L479.89 696.57 L481.85 696.86 L483.82 696.96 L485.79 697.14 L487.77 697.18 L489.74 697.43 L491.69 697.90 L493.66 698.35 L495.64 698.52 L497.63 698.45 L499.61 698.49 L501.60 698.56 L503.59 698.62 L505.57 698.39 L507.54 697.97 L509.49 697.29 L511.43 696.64 L513.36 696.08 L515.31 695.71 L517.25 695.35 L519.18 694.96 L521.11 694.61 L523.03 694.17 L525.02 694.35 L527.04 694.61 L529.05 694.79 L531.01 694.56 L532.92 694.05 L534.89 693.85 L536.77 693.21 L538.69 692.79 L540.53 691.99 L542.34 691.07 L544.06 689.85 L545.81 688.79 L547.63 688.07 L549.43 687.27 L551.28 686.69 L553.10 686.01 L555.00 685.62 L556.82 684.97 L558.76 684.66 L560.72 684.43 L562.69 684.20 L564.56 683.65 L566.34 682.84 L568.14 682.10 L569.96 681.42 L571.75 680.65 L573.49 679.79 L575.14 678.70 L576.77 677.59 L578.67 677.10 L580.62 676.70 L582.46 676.05 L584.18 675.13 L586.19 674.81 L587.99 674.06 L589.66 673.04 L590.81 671.06 L592.07 669.32 L594.04 668.89 L596.01 668.45 L597.33 666.86 L598.54 665.12 L600.44 664.53 L601.85 663.16 L603.33 661.90 L604.68 660.46 L606.09 659.12 L607.94 658.43 L609.45 657.25 L610.83 655.88 L612.28 654.62 L614.33 654.18 L616.14 653.39 L617.76 652.34 L618.55 650.23 L619.63 648.52 L621.41 647.68 L623.26 646.92 L624.27 645.15 L625.14 643.24 L626.89 642.35 L628.02 640.76 L629.23 639.26 L630.27 637.60 L631.56 636.21 L633.16 635.13 L634.44 633.72 L635.47 632.08 L636.69 630.63 L638.60 629.83 L640.35 628.86 L641.52 627.35 L641.98 625.22 L642.82 623.44 L644.39 622.30 L645.96 621.14 L646.60 619.22 L647.09 617.19 L648.66 616.03 L649.54 614.33 L650.59 612.76 L651.29 610.94 L652.35 609.40 L653.52 607.92 L654.67 606.44 L655.34 604.63 L656.21 602.96 L657.88 601.81 L659.40 600.55 L660.33 598.91 L660.36 596.72 L661.09 594.98 L662.15 593.43 L663.44 592.01 L663.69 590.01 L663.80 587.94 L665.13 586.54 L665.64 584.71 L666.40 583.01 L666.98 581.23 L668.32 579.81 L668.91 578.03 L669.57 576.29 L669.86 574.38 L670.70 572.72 L672.11 571.30 L673.27 569.76 L673.50 567.84 L673.17 565.73 L673.72 563.95 L674.49 562.26 L675.31 560.59 L675.23 558.60 L674.96 556.57 L676.02 554.98 L676.25 553.12 L676.63 551.31 L676.68 549.42 L677.59 547.77 L677.72 545.90 L678.25 544.14 L678.22 542.24 L678.50 540.43 L679.63 538.80 L680.74 537.15 L680.71 535.27 L680.09 533.28 L680.55 531.50 L680.82 529.69 L681.38 527.92 L680.88 526.00 L680.22 524.06 L680.98 522.33 L680.87 520.48 L680.92 518.65 L680.51 516.79 L681.32 515.04 L681.02 513.19 L681.05 511.37 L680.69 509.54 L680.69 507.73 L681.51 505.94 L682.31 504.15 L681.74 502.32 L680.87 500.50 L681.04 498.69 L681.12 496.87 L681.14 495.06 L680.32 493.28 L679.32 491.52 L679.80 489.69 L679.65 487.90 L679.13 486.13 L678.53 484.38 L678.95 482.54 L678.32 480.80 L678.06 479.02 L677.44 477.30 L677.15 475.53 L677.72 473.64 L678.36 471.72 L677.51 470.03 L676.49 468.38 L676.51 466.55 L676.12 464.80 L675.81 463.03 L674.68 461.44 L673.54 459.87 L673.60 458.02 L673.14 456.29 L672.35 454.66 L671.40 453.07 L671.57 451.17 L670.96 449.49 L670.70 447.71 L670.02 446.05 L669.24 444.43 L669.71 442.39 L669.57 440.54 L669.96 438.49 L669.47 436.74 L668.68 435.11 L667.78 433.52 L667.12 431.84 L666.29 430.23 L664.96 428.84 L663.91 427.34 L663.26 425.67 L661.89 424.33 L660.13 423.19 L659.43 421.56 L658.46 420.05 L657.46 418.57 L656.58 417.03 L655.53 415.59 L655.24 413.72 L654.32 412.21 L653.28 410.75 L652.41 409.21 L652.09 407.33 L651.06 405.87 L650.01 404.42 L649.16 402.86 L648.20 401.36 L647.53 399.66 L646.26 398.37 L644.88 397.17 L643.00 396.33 L641.86 394.98 L640.87 393.52 L639.76 392.14 L638.59 390.81 L637.34 389.56 L636.23 388.19 L634.99 386.93 L634.23 385.27 L632.81 384.15 L632.22 382.32 L630.99 381.05 L629.27 380.23 L627.49 379.49 L625.96 378.53 L625.18 376.84 L623.96 375.58 L622.06 375.01 L620.05 374.58 L618.62 373.57 L617.68 372.03 L616.36 370.90 L614.96 369.85 L613.64 368.73 L612.22 367.71 L611.43 365.96 L610.19 364.72 L608.90 363.54 L607.82 362.08 L606.36 361.11 L605.14 359.82 L603.66 358.88 L602.08 358.07 L600.32 357.54 L598.80 356.68 L596.89 356.39 L595.06 356.03 L593.47 355.30 L591.91 354.55 L590.71 353.22 L589.26 352.29 L587.50 351.87 L585.87 351.24 L584.59 350.03 L583.38 348.65 L581.89 347.77 L580.33 347.03 L578.52 346.78 L577.05 345.86 L575.39 345.33 L573.64 345.01 L572.05 344.35 L570.42 343.80 L568.66 343.54 L566.64 343.92 L565.09 343.24 L563.43 342.81 L561.77 342.39 L560.22 341.71 L558.58 341.26 L557.04 340.53 L555.39 340.15 L553.74 339.74 L552.18 339.07 L550.90 337.49 L549.17 337.33 L547.55 336.83 L545.81 336.71 L544.20 336.18 L542.62 335.53 L540.87 335.53 L539.06 335.78 L537.22 336.29 L535.64 335.66 L533.96 335.47 L532.35 334.95 L530.60 335.14 L529.00 334.55 L527.34 334.30 L525.67 334.15 L524.00 333.93 L522.32 333.88 L520.78 332.65 L519.07 332.78 L517.34 333.10 L515.60 333.74 L513.92 333.81 L512.29 333.15 L510.60 333.41 L508.91 333.77 L507.22 334.37 L505.54 334.82 L503.90 334.55 L502.24 334.40 L500.59 334.60 L498.93 334.31 L497.27 334.41 L495.61 333.96 L493.94 333.96 L492.27 333.67 L490.57 333.19 L488.87 332.77 L487.19 332.83 L485.57 333.50 L483.94 334.04 L482.29 334.31 L480.61 334.25 L479.08 335.45 L477.60 336.90 L476.02 337.43 L474.42 337.82 L472.78 337.97 L471.24 338.71 L469.67 339.21 L468.17 340.08 L466.39 339.52 L464.76 339.76 L463.19 340.26 L461.65 340.85 L460.03 341.11 L458.37 341.26 L456.99 342.43 L455.38 342.73 L453.95 343.68 L452.35 344.01 L451.12 345.54 L449.90 347.01 L448.25 347.16 L446.74 347.71 L445.15 348.08 L443.90 349.35 L442.26 349.55 L440.82 350.30 L439.00 350.09 L437.52 350.75 L436.04 351.41 L434.58 352.11 L433.02 352.57 L431.34 352.80 L430.19 354.16 L428.75 354.90 L427.56 356.14 L426.02 356.66 L425.22 358.60 L424.21 360.08 L422.87 360.96 L421.32 361.45 L419.91 362.20 L418.74 363.35 L417.20 363.87 L415.87 364.75 L414.02 364.81 L412.73 365.77 L411.44 366.71 L410.33 367.93 L408.88 368.64 L407.51 369.47 L406.69 371.07 L405.53 372.18 L404.56 373.53 L403.25 374.42 L402.59 376.15 L401.70 377.56 L400.50 378.57 L399.06 379.29 L397.93 380.39 L397.00 381.72 L395.56 382.46 L394.06 383.15 L392.38 383.66 L391.61 385.15 L390.25 386.01 L389.51 387.52 L388.05 388.29 L386.94 389.41 L386.42 391.11 L385.42 392.33 L384.56 393.67 L383.47 394.80 L383.12 396.59 L382.48 398.10 L381.69 399.47 L380.18 400.23 L379.38 401.59 L378.81 403.13 L377.87 404.36 L376.74 405.45 L375.17 406.21 L374.24 407.47 L373.12 408.58 L372.80 410.27 L371.65 411.37 L370.84 412.71 L370.48 414.34 L369.78 415.73 L369.23 417.22 L368.37 418.51 L368.50 420.40 L367.91 421.83 L367.66 423.46 L366.59 424.62 L366.01 426.04 L365.63 427.58 L364.74 428.83 L364.29 430.32 L362.68 431.22 L362.19 432.69 L360.95 433.80 L361.13 435.58 L360.28 436.88 L359.71 438.30 L359.49 439.87 L358.95 441.31 L358.70 442.85 L358.21 444.30 L358.70 446.11 L358.21 447.55 L358.32 449.19 L357.04 450.34 L356.89 451.88 L356.65 453.40 L356.17 454.82 L355.59 456.22 L354.53 457.49 L353.99 458.91 L353.21 460.27 L353.73 461.97 L352.96 463.34 L352.68 464.83 L352.68 466.38 L352.48 467.89 L352.23 469.38 L352.09 470.89 L352.61 472.52 L352.60 474.04 L352.79 475.59 L351.93 476.96 L352.32 478.54 L352.65 480.09 L352.11 481.52 L351.04 482.89 L350.57 484.35 L350.89 485.89 L350.60 487.37 L350.94 488.90 L350.38 490.36 L350.87 491.89 L351.67 493.42 L351.61 494.90 L351.69 496.39 L351.86 497.88 L352.96 499.36 L353.49 500.83 L353.69 502.29 L353.72 503.76 L354.08 505.21 L354.59 506.64 L354.68 508.10 L354.75 509.55 L354.83 511.01 L354.99 512.45 L355.10 513.90 L355.39 515.34 L355.61 516.78 L355.98 518.19 L356.49 519.59 L356.87 521.00 L357.37 522.38 L357.76 523.78 L358.25 525.16 L358.80 526.52 L359.48 527.85 L359.99 529.21 L360.49 530.56 L360.95 531.92 L361.24 533.32 L361.77 534.66 L362.23 536.01 L362.55 537.40 L362.79 538.81 L363.16 540.19 L363.60 541.55 L363.99 542.92 L364.58 544.23 L365.10 545.55 L365.59 546.89 L366.19 548.19 L366.75 549.50 L367.81 550.62 L368.68 551.79 L369.20 553.10 L369.87 554.36 L370.62 555.57 L371.54 556.70 L372.17 557.96 L372.63 559.29 L373.26 560.55 L373.94 561.78 L374.62 563.01 L375.18 564.30 L375.80 565.55 L376.47 566.79 L377.27 567.95 L378.16 569.06 L379.06 570.16 L380.02 571.21 L380.75 572.41 L381.62 573.50 L382.63 574.51 L383.66 575.51 L384.55 576.58 L385.31 577.74 L386.33 578.71 L387.09 579.87 L387.86 581.02 L388.79 582.05 L389.49 583.26 L390.20 584.46 L390.56 585.93 L390.79 587.54 L391.51 588.75 L392.29 589.93 L393.19 591.01 L394.41 591.81 L395.11 593.05 L395.82 594.30 L396.54 595.55 L398.38 595.75 L399.75 596.37 L401.77 596.34 L403.16 596.89 L404.83 597.14 L406.07 597.82 L407.05 598.75 L408.04 599.68 L409.00 600.64 L410.42 601.08 L410.97 602.51 L412.21 603.15 L413.13 604.16 L414.68 604.41 L415.88 605.06 L416.96 605.87 L417.98 606.74 L419.03 607.59 L420.44 607.95 L421.10 609.33 L422.41 609.81 L423.41 610.73 L424.76 611.14 L425.97 611.75 L427.16 612.37 L428.35 612.99 L429.34 613.94 L430.75 614.19 L431.52 615.51 L432.93 615.76 L434.07 616.46 L435.20 617.18 L436.18 618.19 L437.55 618.47 L438.95 618.66 L440.03 619.50 L441.24 620.06 L442.24 621.07 L443.78 620.95 L445.14 621.18 L446.80 620.71 L448.13 620.96 L449.49 621.10 L451.06 620.72 L452.62 620.33 L454.11 620.05 L455.00 621.34 L456.20 621.82 L457.30 622.60 L458.66 622.63 L460.06 622.52 L461.10 623.52 L462.25 624.17 L463.24 625.41 L464.71 625.00 L465.92 625.52 L467.21 625.73 L468.40 626.31 L469.79 626.10 L471.14 626.04 L472.40 626.29 L473.64 626.70 L474.86 627.18 L476.20 627.08 L477.36 627.96 L478.62 628.31 L479.80 629.14 L481.16 628.89 L482.48 628.88 L483.79 628.87 L485.07 629.09 L486.36 629.25 L487.70 628.88 L488.98 629.09 L490.30 628.89 L491.58 629.06 L492.90 628.65 L494.20 628.53 L495.48 628.55 L496.77 628.56 L498.06 628.49 L499.34 628.42 L500.63 628.65 L501.91 628.76 L503.21 628.96 L504.48 628.33 L505.75 628.13 L507.03 628.02 L508.31 627.93 L509.57 627.64 L510.82 627.19 L512.09 627.05 L513.32 626.58 L514.58 626.40 L515.78 625.72 L517.03 625.49 L518.25 625.12 L519.50 624.88 L520.71 624.49 L521.96 624.30 L523.22 624.17 L524.51 624.16 L525.77 624.03 L526.90 623.26 L528.17 623.14 L529.30 622.46 L530.55 622.24 L531.69 621.63 L532.84 621.07 L534.03 620.68 L535.16 620.06 L536.33 619.62 L537.39 618.82 L538.62 618.58 L539.71 617.90 L540.86 617.43 L541.97 616.84 L543.16 616.48 L544.36 616.14 L545.62 615.95 L546.82 615.58 L547.78 614.65 L549.05 614.46 L550.01 613.55 L551.18 613.12 L552.17 612.31 L553.24 611.68 L554.33 611.08 L555.47 610.59 L556.56 610.02 L557.40 608.96 L558.64 608.65 L559.52 607.70 L560.58 607.08 L561.49 606.19 L562.47 605.44 L563.52 604.81 L564.59 604.20 L565.60 603.52 L566.34 602.41 L567.50 601.95 L568.30 600.94 L569.28 600.21 L570.12 599.29 L571.00 598.44 L572.01 597.76 L573.00 597.06 L573.93 596.27 L574.59 595.15 L575.70 594.60 L576.44 593.59 L577.43 592.89 L578.12 591.83 L578.91 590.91 L579.85 590.15 L580.76 589.37 L581.60 588.50 L582.19 587.36 L583.22 586.71 L583.90 585.68 L584.91 585.00 L585.38 583.77 L586.00 582.72 L586.80 581.83 L587.48 580.83 L588.09 579.78 L588.51 578.56 L589.48 577.83 L590.03 576.75 L591.00 576.02 L591.26 574.69 L591.78 573.60 L592.81 572.92 L593.53 571.98 L594.15 570.97 L594.63 569.86 L595.11 568.76 L595.41 567.53 L595.64 566.26 L596.03 565.13 L596.48 564.03 L596.97 562.97 L597.43 561.89 L597.79 560.76 L598.13 559.61 L598.48 558.49 L598.82 557.36 L599.17 556.24 L599.46 555.10 L599.72 553.95 L599.94 552.78 L600.11 551.60 L600.24 550.41 L600.34 549.20 L600.42 548.00 L600.49 546.81 L600.57 545.63 L600.65 544.46 L600.74 543.30 L600.80 542.13 L600.88 540.99 L600.97 539.85 L601.10 538.74 L601.20 537.62 L601.32 536.52 L601.45 535.42 L601.61 534.34 L601.80 533.28 L601.99 532.21 L602.19 531.16 L602.38 530.10 L602.57 529.04 L602.74 527.98 L602.90 526.93 L603.05 525.87 L603.20 524.81 L603.33 523.75 L603.45 522.69 L603.56 521.63 L603.65 520.57 L603.74 519.51 L603.82 518.46 L603.88 517.40 L603.94 516.34 L603.98 515.28 L604.02 514.23 L604.04 513.17 L604.05 512.12 L604.05 511.06 L604.04 510.01 L604.02 508.96 L603.99 507.91 L603.95 506.86 L603.90 505.82 L603.84 504.77 L603.74 503.73 L603.63 502.69 L603.52 501.65 L603.41 500.61 Z"/>
  <svg class="pausebutton" id="pausebutton">
    <circle cx="500" cy="500" id="pausestart" class="pausestart" r="52.65"/>
    <rect height="50.02" width="10.00" y="473.68" rx="2.00" ry="2.00" x="479.99" class="pausesymbol"/>
    <rect height="50.02" width="10.00" y="473.68" rx="2.00" ry="2.00" x="510.00" class="pausesymbol"/>
    <polygon points="530.01,500 479.99,530.01 479.99,469.99" class="playsymbol"/>
  </svg>
  <polygon id="playback-head" class="playback-head" points="964.99,500 944.99,540 984.99,540"/>
</svg>