<?xml-stylesheet href="../../style/waveformjs.css" type="text/css"?>
<svg xmlns="http://www.w3.org/2000/svg" xmlns:xlink="http://www.w3.org/1999/xlink" width="100%" height="100%" viewBox="0 0 1000 1000">
  <path class="svg-wave" id="sp" d="M603.14 500.00 L603.19 501.03 L603.21 502.06 L603.29 503.10 L603.34 504.14 L603.37 505.17 L603.37 506.21 L603.39 507.25 L603.43 508.29 L603.45 509.34 L603.47 510.38 L603.48 511.43 L603.47 512.48 L603.45 513.52 L603.42 514.57 L603.39 515.63 L603.34 516.68 L603.28 517.73 L603.21 518.78 L603.13 519.83 L603.04 520.89 L602.94 521.94 L602.83 522.99 L602.71 524.05 L602.57 525.10 L602.43 526.15 L602.27 527.21 L602.11 528.26 L601.93 529.31 L601.74 530.36 L601.55 531.41 L601.34 532.46 L601.12 533.51 L600.88 534.56 L600.64 535.60 L600.39 536.65 L600.13 537.69 L599.85 538.73 L599.57 539.77 L599.27 540.80 L598.96 541.84 L598.64 542.87 L598.31 543.90 L597.97 544.93 L597.62 545.96 L597.26 546.98 L596.89 548.01 L596.51 549.02 L596.12 550.04 L595.71 551.05 L595.30 552.06 L594.87 553.07 L594.44 554.07 L594.00 555.07 L593.54 556.07 L593.06 557.06 L592.56 558.03 L592.02 558.98 L591.41 559.89 L590.67 560.71 L589.77 561.42 L588.68 561.98 L587.37 562.38 L585.84 562.59 L584.24 562.72 L582.91 563.03 L581.69 563.40 L581.08 564.24 L579.88 564.59 L578.42 564.72 L577.73 565.47 L577.20 566.36 L576.80 567.36 L576.27 568.25 L575.28 568.74 L574.49 569.39 L574.01 570.34 L573.20 570.98 L572.59 571.81 L572.05 572.72 L571.46 573.58 L570.82 574.40 L570.17 575.20 L569.64 576.15 L568.79 576.75 L567.98 577.38 L567.50 578.40 L566.67 579.03 L565.64 579.40 L564.88 580.10 L564.23 580.93 L563.50 581.68 L562.92 582.63 L562.42 583.70 L561.48 584.18 L560.49 584.59 L559.77 585.37 L559.13 586.28 L558.39 587.06 L557.52 587.64 L556.41 587.85 L555.75 588.76 L555.11 589.72 L554.47 590.70 L553.77 591.60 L553.05 592.49 L552.52 593.72 L551.55 594.19 L550.76 594.98 L550.05 595.95 L549.14 596.55 L548.05 596.78 L547.13 597.37 L546.42 598.40 L545.29 598.54 L544.29 598.97 L543.42 599.67 L542.44 600.16 L541.52 600.78 L540.56 601.32 L539.47 601.53 L538.19 601.23 L536.97 601.02 L535.81 600.98 L534.81 601.37 L533.96 602.21 L533.00 602.75 L531.62 601.94 L530.32 601.32 L529.69 602.95 L528.62 603.10 L527.89 604.49 L526.85 604.81 L525.82 605.14 L524.63 604.82 L523.60 605.12 L522.74 606.28 L521.72 606.73 L520.77 607.55 L519.70 607.77 L518.62 607.96 L517.44 607.55 L516.38 607.77 L515.34 608.21 L514.35 609.06 L513.24 609.06 L512.14 609.10 L511.01 608.87 L509.87 608.40 L508.78 608.41 L507.75 609.32 L506.70 610.08 L505.57 609.60 L504.45 609.07 L503.35 608.85 L502.27 609.15 L501.18 609.45 L500.09 610.75 L498.98 610.78 L497.89 609.94 L496.81 609.20 L495.68 610.18 L494.57 610.25 L493.43 610.77 L492.31 610.95 L491.18 611.09 L490.14 610.24 L489.09 609.63 L487.91 610.26 L486.73 610.83 L485.50 611.59 L484.44 611.09 L483.35 610.79 L482.32 610.14 L481.14 610.41 L480.02 610.32 L478.64 611.56 L477.49 611.49 L476.39 611.18 L475.43 610.29 L474.46 609.48 L473.34 609.30 L471.99 610.06 L470.61 610.82 L469.73 609.70 L468.92 608.40 L467.93 607.78 L466.68 608.03 L465.56 607.80 L464.07 608.71 L462.96 608.43 L461.94 607.87 L461.04 607.00 L459.78 607.10 L458.69 606.77 L457.37 606.98 L456.05 607.17 L454.99 606.70 L454.15 605.73 L453.21 604.99 L451.83 605.24 L450.66 605.02 L449.33 605.10 L448.23 604.70 L447.27 604.01 L446.54 602.88 L445.61 602.17 L444.48 601.82 L442.90 602.27 L442.02 601.44 L441.14 600.64 L440.28 599.81 L439.29 599.20 L438.00 599.06 L436.76 598.84 L435.16 599.13 L434.40 598.15 L433.53 597.33 L432.64 596.54 L431.64 595.92 L430.84 595.01 L429.15 595.31 L428.00 594.87 L427.42 593.67 L427.08 592.20 L425.97 591.69 L424.83 591.23 L423.74 590.69 L422.22 590.63 L421.29 589.89 L420.86 588.57 L420.43 587.28 L419.07 587.01 L417.79 586.63 L416.48 586.27 L415.75 585.30 L414.66 584.70 L414.30 583.37 L413.68 582.31 L412.58 581.70 L410.74 581.77 L409.61 581.15 L409.04 580.03 L408.61 578.81 L408.41 577.40 L407.59 576.51 L406.16 576.13 L404.27 576.09 L404.22 574.58 L404.01 573.21 L403.41 572.15 L402.33 571.45 L401.57 570.51 L399.69 570.35 L398.72 569.53 L398.45 568.23 L398.46 566.76 L397.62 565.86 L396.20 565.31 L395.41 564.36 L394.27 563.61 L394.09 562.28 L393.94 560.95 L393.71 559.68 L392.63 558.88 L391.98 557.84 L390.73 557.11 L390.18 556.00 L389.52 554.96 L389.41 553.64 L388.96 552.49 L388.02 551.57 L386.51 550.90 L385.51 549.98 L385.50 548.62 L385.52 547.27 L385.29 546.03 L384.30 545.09 L383.49 544.07 L381.80 543.36 L382.03 541.94 L381.93 540.65 L381.62 539.44 L380.63 538.45 L380.25 537.25 L379.51 536.16 L378.87 535.04 L378.75 533.76 L379.18 532.35 L379.07 531.08 L378.53 529.93 L378.31 528.70 L377.12 527.68 L376.76 526.47 L376.39 525.26 L376.77 523.90 L376.18 522.74 L375.70 521.54 L373.94 520.55 L373.22 519.37 L372.91 518.12 L373.75 516.71 L373.95 515.40 L372.97 514.23 L372.13 513.04 L370.66 511.88 L370.82 510.56 L371.08 509.25 L371.47 507.93 L371.27 506.65 L371.01 505.37 L369.54 504.12 L369.25 502.82 L369.52 501.51 L370.76 500.21 L371.13 498.92 L371.06 497.63 L370.05 496.31 L369.36 494.98 L369.67 493.69 L370.38 492.42 L370.64 491.14 L370.09 489.79 L370.08 488.48 L369.25 487.09 L369.24 485.77 L369.31 484.45 L370.23 483.24 L370.62 481.98 L370.72 480.67 L369.47 479.15 L369.26 477.77 L369.64 476.49 L370.54 475.32 L370.70 474.00 L370.10 472.53 L369.79 471.10 L369.40 469.64 L370.08 468.43 L370.46 467.14 L371.56 466.05 L372.09 464.82 L372.54 463.57 L371.50 461.88 L372.17 460.68 L373.29 459.64 L374.44 458.61 L374.98 457.40 L375.21 456.08 L375.34 454.72 L374.73 453.07 L375.50 451.94 L376.54 450.92 L377.46 449.86 L377.48 448.43 L377.48 446.98 L376.37 445.03 L376.86 443.76 L377.71 442.66 L378.88 441.73 L379.04 440.31 L379.36 438.96 L379.27 437.39 L379.64 436.05 L380.85 435.16 L382.15 434.33 L383.16 433.35 L383.42 431.94 L384.02 430.73 L383.41 428.77 L384.45 427.81 L385.29 426.73 L386.35 425.80 L386.89 424.53 L387.47 423.28 L387.27 421.48 L387.64 420.06 L388.60 419.05 L390.19 418.51 L391.41 417.72 L391.95 416.42 L392.38 415.02 L392.08 413.01 L393.37 412.28 L394.73 411.62 L396.15 411.03 L396.70 409.69 L397.39 408.47 L397.23 406.46 L398.13 405.40 L399.32 404.61 L400.89 404.21 L401.72 403.08 L402.23 401.64 L403.12 400.57 L403.91 399.39 L404.81 398.31 L405.87 397.41 L407.22 396.82 L408.38 396.04 L409.30 394.99 L409.29 392.83 L410.31 391.85 L411.22 390.75 L412.93 390.64 L414.14 389.91 L415.03 388.77 L415.53 387.11 L416.12 385.53 L417.50 385.02 L419.01 384.70 L420.31 384.11 L421.12 382.79 L422.15 381.80 L422.84 380.26 L424.17 379.70 L425.41 378.99 L426.83 378.60 L427.97 377.74 L429.17 376.97 L430.04 375.62 L431.13 374.64 L432.29 373.79 L433.76 373.51 L435.32 373.42 L436.51 372.62 L437.54 371.49 L438.23 369.61 L439.83 369.62 L441.36 369.52 L443.01 369.72 L444.10 368.65 L445.22 367.63 L446.17 366.15 L447.70 366.12 L449.07 365.66 L450.52 365.45 L451.95 365.20 L453.30 364.71 L454.32 363.25 L455.31 361.63 L456.93 361.95 L458.52 362.22 L459.99 362.09 L461.21 361.12 L462.59 360.73 L463.67 359.13 L465.18 359.17 L466.63 358.98 L468.15 359.15 L469.52 358.65 L470.89 358.14 L472.13 356.94 L473.38 355.68 L474.85 355.53 L476.40 355.97 L477.92 356.21 L479.27 355.40 L480.66 354.74 L481.91 352.96 L483.46 353.48 L485.01 354.13 L486.51 354.46 L487.92 353.75 L489.35 353.19 L490.80 352.74 L492.28 352.84 L493.76 352.84 L495.24 352.97 L496.71 352.95 L498.18 352.87 L499.65 352.82 L501.13 352.04 L502.61 351.99 L504.09 351.90 L505.56 352.28 L507.03 352.53 L508.49 352.85 L510.04 351.78 L511.54 351.59 L513.02 351.81 L514.41 352.80 L515.85 353.28 L517.35 353.13 L518.88 352.83 L520.51 351.89 L522.02 351.91 L523.46 352.36 L524.83 353.27 L526.36 353.14 L527.89 353.11 L529.66 351.88 L531.15 352.13 L532.61 352.51 L533.96 353.39 L535.46 353.58 L537.04 353.49 L538.73 353.01 L540.37 352.78 L541.89 353.01 L543.27 353.74 L544.50 354.92 L545.90 355.52 L547.41 355.78 L549.27 355.02 L550.66 355.69 L551.94 356.65 L553.01 358.14 L554.45 358.61 L556.00 358.81 L557.90 358.19 L559.38 358.61 L560.75 359.32 L562.03 360.21 L563.31 361.08 L564.77 361.55 L566.34 361.83 L568.25 361.41 L569.75 361.88 L571.00 362.83 L571.92 364.39 L573.25 365.15 L574.88 365.38 L576.94 364.88 L578.37 365.51 L579.67 366.37 L580.62 367.80 L581.57 369.20 L582.89 369.99 L584.50 370.35 L586.29 370.46 L587.19 371.90 L588.23 373.11 L589.12 374.54 L590.33 375.49 L591.72 376.19 L594.04 375.68 L595.55 376.28 L596.55 377.53 L597.36 379.01 L598.64 379.90 L600.10 380.58 L601.86 380.92 L603.51 381.41 L604.23 382.97 L604.84 384.63 L605.81 385.88 L607.40 386.46 L608.58 387.49 L610.66 387.60 L611.81 388.69 L613.20 389.53 L614.17 390.79 L615.78 391.45 L617.43 392.08 L619.27 392.58 L620.55 393.59 L621.33 395.04 L622.33 396.30 L623.94 397.04 L625.76 397.64 L627.70 398.16 L628.73 399.43 L629.79 400.68 L631.21 401.66 L632.92 402.43 L634.56 403.29 L634.99 405.01 L635.03 406.99 L635.01 408.98 L635.46 410.64 L635.85 412.31 L636.71 413.68 L637.18 415.29 L637.32 417.09 L638.34 418.35 L639.52 419.52 L640.68 420.72 L641.55 422.08 L642.69 423.31 L643.82 424.54 L644.27 426.14 L645.04 427.57 L645.91 428.94 L646.66 430.38 L647.25 431.90 L647.72 433.47 L647.99 435.12 L648.84 436.51 L650.03 437.77 L650.79 439.21 L651.12 440.83 L651.95 442.25 L653.25 443.51 L653.98 444.98 L654.15 446.65 L654.59 448.22 L655.59 449.61 L656.50 451.04 L657.14 452.56 L657.19 454.26 L657.08 455.99 L657.62 457.53 L658.54 458.98 L659.26 460.49 L659.58 462.10 L660.04 463.68 L660.77 465.20 L661.31 466.77 L661.76 468.36 L661.92 470.00 L662.60 471.56 L663.34 473.11 L663.86 474.70 L663.26 476.46 L663.40 478.11 L663.94 479.70 L664.69 481.28 L664.94 482.92 L665.07 484.57 L665.25 486.22 L665.31 487.88 L665.85 489.51 L666.50 491.14 L666.87 492.79 L666.98 494.46 L667.08 496.13 L667.01 497.80 L667.79 499.47 L668.36 501.15 L668.09 502.83 L667.50 504.49 L667.55 506.17 L668.00 507.87 L667.63 509.53 L667.40 511.20 L667.37 512.88 L667.29 514.56 L667.38 516.26 L667.59 517.97 L667.68 519.68 L667.70 521.38 L667.60 523.07 L667.62 524.79 L666.69 526.36 L666.87 528.10 L667.35 529.90 L667.19 531.60 L666.45 533.19 L666.19 534.87 L666.05 536.58 L666.33 538.39 L666.27 540.13 L665.96 541.81 L665.00 543.33 L664.29 544.91 L664.04 546.60 L663.29 548.16 L662.83 549.80 L662.21 551.39 L661.79 553.04 L661.32 554.68 L661.09 556.41 L661.06 558.21 L660.61 559.87 L660.33 561.60 L660.00 563.31 L659.53 564.98 L659.17 566.70 L658.70 568.38 L658.17 570.03 L657.39 571.58 L656.75 573.18 L656.12 574.80 L655.20 576.28 L654.52 577.87 L653.61 579.35 L652.58 580.76 L651.47 582.12 L650.45 583.53 L649.59 585.02 L648.98 586.66 L648.20 588.20 L647.29 589.66 L646.65 591.29 L645.95 592.89 L645.14 594.43 L644.03 595.77 L643.55 597.54 L643.30 599.48 L642.72 601.20 L641.35 602.37 L640.12 603.63 L639.01 604.98 L638.50 606.78 L637.80 608.46 L636.98 610.05 L635.49 611.10 L634.34 612.42 L633.26 613.80 L632.44 615.42 L631.34 616.79 L630.45 618.35 L629.35 619.73 L627.85 620.75 L626.53 621.91 L625.23 623.10 L623.97 624.33 L622.67 625.50 L621.49 626.81 L620.14 627.94 L618.72 628.98 L617.66 630.43 L616.44 631.70 L615.10 632.84 L613.93 634.17 L612.94 635.74 L611.67 636.98 L610.17 637.92 L608.79 639.03 L607.78 640.61 L606.64 642.05 L605.37 643.31 L603.70 644.04 L601.82 644.46 L600.57 645.75 L599.59 647.47 L598.27 648.69 L596.48 649.22 L594.84 649.94 L593.22 650.70 L591.77 651.73 L590.36 652.82 L589.02 654.05 L587.29 654.61 L585.74 655.46 L584.25 656.45 L582.81 657.52 L581.36 658.60 L579.92 659.71 L578.44 660.75 L576.84 661.55 L575.38 662.65 L573.94 663.83 L572.28 664.50 L570.65 665.26 L569.22 666.52 L567.53 667.15 L565.93 667.98 L564.27 668.72 L562.47 669.03 L560.80 669.72 L559.19 670.58 L557.51 671.26 L555.63 671.32 L553.94 671.94 L552.30 672.74 L550.62 673.43 L548.94 674.12 L547.34 675.15 L545.68 675.96 L543.86 676.17 L542.08 676.55 L540.43 677.47 L538.68 678.02 L536.93 678.53 L535.10 678.67 L533.26 678.74 L531.47 679.07 L529.73 679.66 L527.95 680.08 L526.15 680.39 L524.42 681.18 L522.67 681.92 L520.87 682.27 L519.04 682.49 L517.26 683.09 L515.49 684.04 L513.68 684.52 L511.85 684.93 L510.00 685.04 L508.16 685.34 L506.32 685.89 L504.47 686.33 L502.60 686.23 L500.74 686.46 L498.88 686.75 L497.02 686.27 L495.16 686.01 L493.30 685.83 L491.45 685.66 L489.61 685.20 L487.74 685.38 L485.85 685.83 L484.00 685.60 L482.15 685.37 L480.30 685.13 L478.39 685.38 L476.50 685.49 L474.59 685.64 L472.75 685.31 L470.95 684.70 L469.11 684.35 L467.18 684.54 L465.32 684.26 L463.44 684.14 L461.55 683.98 L459.65 683.88 L457.77 683.65 L455.92 683.30 L453.99 683.23 L452.01 683.32 L450.10 683.13 L448.34 682.39 L446.56 681.72 L444.66 681.46 L442.72 681.31 L441.03 680.34 L439.34 679.43 L437.60 678.66 L435.81 678.06 L434.07 677.31 L432.36 676.48 L430.72 675.49 L429.10 674.45 L427.46 673.50 L425.61 673.05 L423.81 672.45 L422.16 671.52 L420.42 670.79 L418.72 669.99 L416.82 669.59 L414.79 669.42 L412.79 669.15 L411.13 668.23 L409.61 667.04 L407.84 666.31 L405.93 665.83 L404.19 665.03 L402.59 663.98 L401.09 662.77 L399.51 661.70 L397.94 660.63 L396.10 659.97 L394.34 659.17 L392.68 658.22 L391.06 657.20 L389.26 656.44 L387.24 655.96 L385.33 655.30 L383.69 654.27 L382.12 653.14 L380.79 651.70 L379.25 650.54 L377.43 649.72 L375.66 648.82 L374.32 647.40 L373.43 645.48 L372.03 644.15 L370.22 643.27 L368.33 642.47 L367.16 640.88 L365.93 639.37 L364.11 638.47 L362.42 637.41 L361.15 635.93 L360.00 634.34 L358.30 633.28 L356.39 632.40 L354.84 631.16 L353.84 629.43 L352.52 627.99 L351.19 626.56 L350.23 624.82 L349.10 623.23 L347.72 621.84 L346.14 620.59 L345.23 618.83 L343.98 617.32 L342.75 615.81 L341.17 614.54 L339.82 613.10 L338.29 611.77 L336.91 610.33 L335.68 608.78 L334.50 607.20 L333.12 605.74 L332.20 603.99 L330.96 602.43 L329.75 600.85 L328.43 599.32 L327.64 597.50 L327.26 595.44 L326.86 593.42 L325.80 591.75 L324.43 590.24 L323.43 588.53 L323.02 586.54 L321.90 584.89 L320.56 583.34 L318.84 581.94 L317.84 580.21 L316.84 578.47 L315.93 576.69 L315.09 574.88 L314.09 573.13 L313.36 571.27 L313.02 569.27 L312.58 567.31 L311.89 565.44 L311.01 563.63 L310.46 561.72 L309.77 559.84 L308.73 558.07 L307.97 556.21 L307.40 554.30 L306.88 552.36 L305.68 550.61 L304.75 548.77 L303.95 546.89 L303.75 544.87 L303.84 542.79 L303.41 540.83 L302.55 538.95 L301.94 537.02 L302.13 534.94 L302.55 532.83 L302.40 530.83 L302.11 528.85 L301.64 526.90 L301.28 524.93 L301.11 522.93 L300.63 520.97 L300.00 519.01 L299.41 517.05 L298.94 515.06 L298.10 513.10 L296.74 511.15 L295.77 509.15 L294.96 507.13 L294.27 505.10 L293.75 503.05 L292.79 500.99 L291.83 498.91 L291.59 496.83 L291.59 494.74 L291.67 492.66 L291.45 490.56 L291.47 488.47 L291.55 486.38 L291.62 484.30 L291.57 482.19 L291.79 480.11 L291.70 478.00 L291.75 475.90 L291.85 473.80 L292.20 471.73 L292.51 469.65 L292.38 467.51 L292.53 465.41 L293.05 463.36 L293.22 461.26 L293.34 459.13 L293.65 457.05 L294.11 454.99 L294.41 452.90 L294.56 450.76 L295.08 448.72 L295.59 446.67 L295.90 444.56 L296.34 442.49 L296.89 440.44 L297.36 438.37 L297.76 436.28 L298.43 434.27 L299.03 432.23 L299.47 430.14 L300.02 428.08 L301.01 426.18 L301.52 424.11 L302.10 422.05 L302.89 420.08 L303.96 418.22 L304.43 416.11 L304.92 414.00 L305.90 412.10 L306.80 410.17 L307.58 408.18 L308.31 406.16 L309.27 404.26 L309.96 402.22 L310.89 400.29 L311.87 398.39 L312.83 396.47 L313.68 394.50 L314.74 392.64 L315.75 390.75 L316.53 388.71 L317.50 386.79 L318.64 384.97 L319.88 383.22 L320.79 381.24 L322.03 379.49 L323.15 377.65 L324.14 375.72 L325.17 373.80 L326.52 372.12 L327.87 370.44 L329.02 368.61 L330.37 366.92 L332.19 365.62 L333.97 364.29 L335.52 362.79 L336.89 361.15 L338.75 359.93 L340.82 358.91 L342.03 357.14 L343.74 355.82 L344.81 353.91 L346.69 352.76 L348.04 351.10 L349.29 349.34 L350.97 348.01 L352.09 346.10 L354.01 345.03 L355.50 343.51 L356.71 341.67 L358.46 340.43 L359.65 338.54 L361.65 337.59 L363.08 335.97 L364.22 333.99 L366.17 333.00 L367.51 331.24 L369.58 330.41 L370.96 328.68 L372.37 326.99 L374.27 325.95 L375.77 324.35 L377.92 323.67 L379.47 322.14 L381.00 320.56 L382.74 319.29 L384.38 317.84 L386.48 317.14 L388.22 315.85 L389.84 314.37 L391.70 313.27 L393.35 311.81 L395.49 311.20 L397.30 310.01 L398.96 308.52 L401.03 307.83 L402.72 306.37 L404.83 305.75 L406.66 304.58 L408.32 302.99 L410.51 302.57 L412.23 301.10 L414.46 300.78 L416.34 299.67 L418.11 298.24 L420.26 297.77 L422.04 296.35 L424.37 296.33 L426.23 295.09 L428.05 293.70 L430.17 293.14 L432.11 292.05 L434.33 291.81 L436.25 290.64 L438.19 289.47 L440.38 289.16 L442.39 288.19 L444.60 287.98 L446.66 287.17 L448.65 286.08 L450.90 286.02 L452.94 285.09 L455.18 285.04 L457.28 284.38 L459.34 283.42 L461.61 283.58 L463.68 282.68 L465.93 282.77 L468.09 282.34 L470.19 281.48 L472.43 281.62 L474.55 280.76 L476.80 281.09 L478.97 280.66 L481.11 279.75 L483.34 279.92 L485.50 279.21 L487.74 279.60 L489.92 278.97 L492.10 278.16 L494.33 278.41 L496.54 278.09 L498.77 278.60 L500.98 278.52 L503.20 278.39 L505.40 279.03 L507.58 279.83 L509.76 280.47 L511.93 281.03 L514.17 280.29 L516.35 280.74 L518.52 281.11 L520.79 280.47 L522.93 281.18 L525.25 280.31 L527.30 281.76 L529.54 281.56 L531.71 281.98 L533.82 282.72 L536.04 282.81 L538.15 283.48 L540.31 283.92 L542.75 282.88 L544.87 283.56 L547.38 282.42 L549.40 283.59 L551.80 283.10 L553.89 283.94 L555.99 284.69 L558.22 284.97 L560.33 285.72 L562.46 286.35 L564.95 285.81 L566.87 287.16 L569.03 287.73 L570.79 289.50 L573.08 289.70 L575.18 290.42 L577.11 291.63 L579.26 292.23 L581.26 293.21 L583.35 293.97 L586.02 293.34 L587.87 294.71 L590.43 294.44 L592.04 296.32 L594.36 296.63 L596.54 297.27 L598.56 298.26 L600.62 299.14 L602.47 300.46 L604.58 301.27 L607.06 301.40 L608.73 303.04 L611.07 303.47 L613.02 304.61 L614.91 305.86 L616.23 308.03 L617.78 309.79 L620.09 310.33 L622.58 310.61 L624.20 312.25 L626.34 313.11 L627.69 315.12 L629.98 315.77 L631.74 317.19 L633.68 318.35 L635.28 319.98 L636.57 321.99 L638.58 323.07 L640.84 323.84 L642.33 325.58 L644.95 325.95 L646.09 328.11 L648.62 328.63 L649.90 330.61 L651.72 331.97 L653.31 333.58 L654.40 335.72 L656.23 337.08 L658.32 338.17 L659.95 339.74 L662.76 340.15 L663.74 342.37 L666.24 343.14 L667.08 345.48 L669.20 346.63 L670.88 348.19 L672.15 350.11 L673.39 352.06 L674.82 353.84 L676.40 355.48 L679.34 356.05 L679.90 358.53 L681.62 360.09 L683.16 361.81 L685.15 363.19 L686.44 365.10 L687.16 367.41 L688.71 369.12 L690.81 370.47 L692.14 372.36 L694.21 373.76 L694.75 376.17 L696.63 377.72 L696.96 380.22 L698.08 382.24 L699.37 384.15 L700.42 386.21 L701.87 388.04 L703.08 390.01 L704.09 392.09 L706.11 393.65 L706.22 396.19 L708.21 397.78 L708.89 400.03 L709.59 402.26 L710.11 404.56 L710.55 406.89 L711.83 408.85 L713.89 410.48 L714.63 412.68 L716.75 414.34 L717.05 416.72 L719.24 418.38 L719.12 420.91 L719.48 423.26 L720.37 425.41 L720.60 427.78 L721.39 429.97 L722.16 432.16 L722.42 434.51 L724.74 436.26 L724.39 438.77 L726.32 440.67 L726.30 443.09 L727.29 445.25 L728.13 447.46 L728.07 449.87 L728.51 452.16 L729.49 454.35 L729.84 456.66 L732.15 458.62 L731.52 461.12 L732.55 463.34 L732.73 465.69 L733.43 467.97 L733.21 470.37 L732.66 472.80 L733.51 475.07 L735.49 477.23 L735.20 479.63 L735.82 481.96 L735.31 484.36 L737.31 486.61 L737.23 488.99 L737.39 491.36 L737.53 493.73 L737.19 496.12 L737.55 498.49 L737.89 500.86 L737.77 503.24 L738.74 505.64 L737.78 508.00 L738.49 510.41 L737.48 512.75 L737.31 515.12 L737.52 517.52 L737.13 519.88 L736.70 522.23 L736.17 524.56 L735.92 526.92 L737.92 529.56 L736.64 531.81 L736.66 534.23 L735.60 536.48 L735.72 538.92 L735.96 541.39 L735.18 543.68 L734.61 546.00 L734.30 548.38 L733.73 550.71 L735.13 553.48 L733.42 555.55 L733.28 557.99 L732.36 560.23 L731.92 562.60 L731.11 564.86 L729.72 566.96 L729.52 569.40 L730.12 572.10 L728.81 574.21 L728.46 576.63 L726.74 578.58 L727.20 581.30 L725.82 583.36 L724.78 585.54 L723.88 587.77 L722.55 589.83 L721.64 592.05 L721.67 594.67 L720.40 596.74 L721.34 599.81 L719.45 601.61 L719.56 604.34 L717.67 606.12 L716.94 608.46 L716.35 610.89 L715.08 612.97 L713.56 614.91 L712.36 617.02 L711.16 619.12 L712.09 622.46 L709.89 624.01 L709.09 626.37 L707.51 628.27 L706.66 630.61 L705.62 632.85 L703.99 634.71 L702.93 636.94 L701.93 639.23 L700.17 640.99 L699.49 643.51 L697.29 644.95 L696.48 647.40 L694.55 649.02 L693.08 650.98 L691.28 652.67 L689.15 654.10 L687.88 656.21 L687.34 658.96 L685.19 660.35 L684.33 662.86 L681.88 663.96 L681.16 666.62 L679.17 668.14 L677.78 670.20 L675.91 671.82 L673.60 672.99 L672.06 674.91 L671.64 678.02 L669.46 679.31 L668.18 681.55 L665.85 682.67 L665.21 685.67 L662.92 686.82 L660.81 688.17 L658.78 689.60 L656.57 690.80 L654.92 692.69 L653.59 695.00 L651.17 695.92 L649.44 697.74 L646.80 698.33 L645.84 701.22 L643.85 702.71 L641.78 704.09 L639.42 705.03 L636.89 705.70 L634.97 707.28 L633.75 709.97 L631.35 710.84 L630.07 713.51 L627.47 714.02 L626.05 716.55 L623.48 717.08 L621.37 718.43 L619.35 719.95 L616.95 720.76 L614.85 722.15 L613.03 724.08 L610.44 724.50 L608.39 726.01 L605.52 725.79 L603.58 727.55 L601.12 728.16 L598.78 729.05 L596.41 729.84 L593.67 729.72 L591.04 729.83 L589.16 731.83 L586.81 732.62 L585.19 735.45 L582.35 734.91 L580.01 735.77 L577.48 736.04 L575.16 736.96 L573.39 739.67 L570.80 739.75 L568.24 739.85 L565.77 740.30 L563.33 740.80 L561.33 743.05 L558.92 743.74 L556.70 745.29 L554.01 744.80 L551.58 745.41 L549.27 746.66 L546.92 747.74 L544.34 747.64 L542.17 749.90 L539.57 749.69 L537.35 751.95 L534.59 750.60 L532.15 751.49 L529.47 750.41 L527.04 751.37 L524.58 752.14 L522.03 752.04 L519.49 752.01 L516.96 752.06 L514.39 751.42 L511.92 752.56 L509.43 753.62 L506.89 753.40 L504.34 752.74 L501.80 751.47 L499.28 752.49 L496.78 751.13 L494.25 751.84 L491.70 752.80 L489.20 751.96 L486.58 753.68 L484.10 752.76 L481.51 753.47 L478.99 753.04 L476.31 754.43 L473.79 753.95 L471.31 753.17 L468.85 752.35 L466.09 753.78 L463.80 751.75 L460.98 753.31 L458.70 751.36 L456.05 751.77 L453.74 750.20 L451.27 749.57 L448.68 749.54 L446.26 748.69 L443.82 747.91 L441.17 748.07 L439.03 746.12 L436.15 747.12 L433.67 746.52 L430.74 747.52 L428.60 745.69 L426.52 743.72 L424.10 742.92 L421.30 743.31 L418.71 743.01 L416.18 742.46 L414.00 740.93 L411.50 740.32 L409.27 738.99 L406.24 739.72 L403.47 739.70 L400.92 739.12 L398.45 738.29 L396.25 736.88 L394.01 735.55 L391.76 734.26 L389.23 733.57 L386.87 732.51 L384.91 730.65 L382.70 729.32 L380.63 727.72 L378.33 726.56 L376.08 725.31 L373.37 724.89 L370.63 724.47 L368.29 723.35 L366.02 722.09 L363.30 721.55 L360.77 720.68 L358.57 719.28 L356.51 717.66 L354.48 716.01 L352.51 714.28 L350.01 713.31 L347.87 711.82 L346.17 709.74 L344.79 707.24 L341.79 706.89 L339.19 705.99 L336.99 704.56 L335.02 702.84 L333.83 700.18 L332.03 698.28 L330.16 696.47 L327.55 695.50 L325.32 694.08 L324.00 691.66 L322.85 689.08 L320.70 687.58 L318.44 686.18 L315.76 685.19 L314.43 682.83 L311.21 682.31 L309.95 679.90 L307.36 678.73 L305.90 676.51 L303.44 675.18 L301.98 672.96 L300.52 670.75 L298.66 668.89 L296.40 667.34 L295.49 664.69 L293.73 662.73 L292.89 660.06 L291.00 658.21 L290.06 655.64 L287.32 654.41 L284.56 653.15 L283.09 650.95 L281.88 648.58 L280.26 646.48 L278.20 644.67 L276.06 642.90 L274.36 640.83 L273.39 638.30 L272.97 635.46 L272.21 632.84 L271.17 630.40 L269.77 628.17 L268.61 625.80 L267.06 623.64 L265.39 621.53 L264.40 619.08 L262.20 617.21 L260.58 615.05 L258.44 613.12 L257.69 610.53 L256.75 608.03 L256.15 605.39 L255.58 602.75 L254.19 600.46 L252.72 598.18 L251.69 595.73 L251.89 592.81 L250.84 590.38 L248.35 588.44 L247.24 586.00 L245.12 583.89 L245.08 581.09 L244.22 578.55 L243.37 576.01 L242.05 573.60 L240.60 571.22 L240.75 568.40 L240.78 565.63 L239.03 563.30 L238.27 560.72 L237.07 558.23 L237.66 555.36 L236.62 552.83 L236.34 550.15 L235.35 547.60 L234.64 545.00 L233.51 542.45 L233.94 539.66 L234.01 536.93 L233.29 534.32 L231.34 531.84 L231.80 529.07 L231.85 526.35 L231.77 523.66 L230.80 521.03 L231.52 518.27 L231.02 515.61 L230.35 512.94 L229.96 510.26 L229.55 507.56 L229.30 504.86 L229.92 502.15 L230.27 499.45 L229.28 496.74 L228.73 494.02 L229.54 491.33 L230.95 488.68 L231.23 486.00 L230.87 483.28 L230.03 480.52 L229.69 477.77 L229.34 475.02 L229.74 472.33 L228.75 469.48 L229.67 466.85 L229.45 464.07 L230.63 461.48 L230.75 458.75 L231.41 456.09 L231.94 453.42 L233.50 450.94 L233.46 448.18 L234.10 445.53 L233.53 442.64 L235.04 440.18 L234.03 437.15 L234.10 434.35 L233.94 431.49 L235.55 429.07 L236.73 426.56 L237.60 423.97 L237.83 421.18 L237.93 418.35 L238.65 415.70 L241.27 413.67 L242.27 411.13 L242.62 408.37 L242.59 405.45 L244.08 403.07 L244.46 400.28 L245.51 397.75 L247.35 395.54 L248.13 392.91 L248.04 389.88 L249.10 387.34 L250.40 384.91 L251.82 382.54 L251.57 379.37 L252.77 376.88 L254.50 374.67 L255.64 372.15 L256.07 369.25 L257.31 366.77 L258.73 364.40 L259.91 361.88 L261.00 359.31 L262.10 356.74 L263.46 354.31 L265.53 352.33 L267.03 350.00 L268.30 347.52 L269.22 344.80 L271.16 342.76 L273.80 341.21 L275.06 338.72 L276.82 336.58 L277.12 333.35 L279.05 331.32 L279.92 328.48 L281.91 326.49 L282.95 323.75 L284.74 321.60 L285.53 318.61 L287.83 316.88 L290.03 315.08 L292.18 313.26 L293.38 310.56 L295.34 308.56 L296.92 306.20 L299.50 304.79 L301.58 302.91 L304.23 301.61 L304.65 298.04 L305.95 295.33 L308.64 294.08 L311.40 292.94 L313.87 291.50 L315.96 289.64 L317.59 287.25 L319.01 284.58 L321.54 283.22 L325.00 283.05 L327.41 281.59 L328.84 278.90 L330.47 276.42 L332.85 274.92 L335.17 273.34 L336.85 270.87 L339.12 269.20 L340.79 266.66 L343.24 265.24 L345.42 263.43 L347.48 261.39 L349.49 259.27 L352.10 258.10 L354.79 257.07 L357.54 256.17 L359.26 253.49 L361.77 252.15 L364.55 251.32 L367.35 250.56 L369.15 247.91 L371.62 246.49 L373.73 244.34 L376.22 242.93 L378.74 241.60 L381.36 240.47 L383.86 239.07 L385.94 236.68 L388.60 235.61 L391.87 236.01 L394.53 234.98 L397.44 234.59 L399.78 232.74 L402.66 232.31 L404.96 230.27 L407.67 229.36 L410.40 228.51 L412.95 227.07 L415.18 224.59 L417.92 223.70 L420.64 222.74 L423.52 222.32 L426.12 220.89 L429.08 220.81 L431.72 219.48 L434.56 218.94 L437.47 218.73 L440.47 219.01 L442.97 216.86 L445.61 215.31 L448.47 214.83 L451.45 215.07 L454.46 215.56 L457.33 215.28 L460.10 214.32 L462.81 212.78 L465.81 213.47 L468.81 214.33 L471.73 214.67 L474.46 213.04 L477.30 212.35 L480.21 212.67 L483.07 212.23 L485.84 209.86 L488.76 210.25 L491.64 209.55 L494.57 210.46 L497.45 209.32 L500.36 209.84 L503.26 209.85 L506.15 210.73 L509.03 210.91 L511.92 211.07 L514.92 209.04 L517.74 210.75 L520.58 211.56 L523.48 211.65 L526.63 208.95 L529.68 207.85 L532.54 208.72 L535.42 209.26 L538.37 209.28 L541.24 209.97 L544.09 210.69 L546.91 211.56 L549.87 211.60 L552.47 213.68 L555.13 215.27 L557.89 216.23 L561.04 215.34 L563.89 215.96 L566.96 215.62 L569.81 216.27 L572.74 216.58 L575.89 216.15 L578.99 215.97 L581.96 216.29 L584.64 217.66 L587.32 218.95 L590.12 219.86 L592.64 221.60 L595.44 222.49 L598.15 223.61 L601.09 224.11 L603.40 226.32 L606.21 227.17 L609.72 226.29 L612.56 227.14 L615.55 227.65 L617.94 229.55 L620.72 230.57 L623.49 231.62 L626.21 232.76 L629.08 233.62 L631.58 235.24 L633.64 237.72 L636.67 238.28 L639.10 239.99 L642.15 240.57 L644.34 242.71 L647.84 242.53 L650.21 244.36 L652.59 246.16 L655.18 247.59 L658.76 247.48 L660.55 250.20 L662.24 253.04 L664.47 255.01 L667.75 255.46 L669.78 257.72 L672.52 258.97 L674.28 261.59 L676.80 263.15 L678.55 265.73 L682.12 265.94 L685.43 266.54 L688.34 267.69 L690.41 269.87 L692.07 272.54 L693.95 274.92 L696.67 276.32 L699.56 277.56 L701.55 279.81 L702.96 282.67 L704.59 285.28 L706.80 287.26 L709.49 288.77 L711.71 290.75 L714.07 292.61 L717.14 293.80 L718.81 296.34 L721.76 297.69 L723.28 300.36 L725.68 302.24 L727.20 304.89 L729.12 307.19 L731.44 309.16 L732.92 311.81 L734.29 314.56 L737.23 316.05 L738.90 318.56 L741.19 320.59 L742.13 323.62 L745.08 325.20 L747.42 327.23 L749.93 329.18 L751.38 331.85 L752.68 334.61 L754.04 337.33 L756.20 339.53 L758.78 341.50 L760.16 344.21 L760.76 347.37 L762.74 349.72 L764.76 352.06 L766.89 354.35 L768.37 357.01 L769.71 359.74 L771.53 362.23 L773.05 364.87 L775.03 367.29 L776.86 369.81 L777.80 372.75 L779.05 375.53 L780.07 378.42 L780.94 381.37 L781.69 384.36 L783.53 386.90 L784.76 389.70 L785.44 392.70 L785.03 396.10 L785.95 398.99 L788.81 401.22 L790.38 403.91 L791.15 406.88 L790.84 410.17 L791.69 413.10 L793.88 415.64 L795.21 418.44 L796.41 421.29 L796.26 424.49 L795.91 427.73 L798.02 430.36 L799.70 433.12 L801.23 435.93 L800.70 439.18 L802.35 441.99 L802.78 445.04 L803.53 448.04 L803.90 451.09 L804.55 454.11 L804.28 457.26 L804.66 460.31 L803.79 463.51 L804.34 466.52 L803.89 469.65 L805.63 472.56 L805.58 475.64 L805.84 478.69 L805.38 481.79 L806.78 484.78 L808.50 487.79 L809.91 490.84 L808.78 493.96 L807.83 497.06 L807.67 500.14 L809.14 503.23 L810.02 506.34 L809.25 509.42 L807.88 512.46 L807.43 515.52 L808.85 518.69 L809.25 521.82 L809.18 524.93 L808.26 527.96 L808.59 531.10 L807.85 534.14 L808.17 537.30 L807.96 540.40 L808.29 543.58 L807.41 546.60 L806.88 549.66 L806.48 552.75 L806.04 555.83 L805.71 558.93 L806.16 562.20 L804.98 565.15 L803.39 567.99 L801.65 570.77 L803.70 574.46 L804.00 577.77 L803.03 580.76 L801.17 583.50 L800.34 586.51 L800.64 589.86 L799.99 592.95 L799.29 596.02 L798.13 598.95 L795.29 601.29 L794.51 604.33 L794.01 607.47 L793.70 610.70 L791.63 613.26 L790.80 616.30 L790.45 619.54 L789.61 622.60 L788.63 625.60 L787.83 628.69 L786.78 631.68 L785.37 634.50 L783.74 637.22 L782.51 640.13 L780.97 642.88 L779.91 645.88 L778.88 648.91 L776.43 651.17 L774.22 653.55 L773.05 656.50 L773.05 660.15 L771.47 662.89 L769.12 665.16 L765.88 666.86 L763.76 669.23 L763.13 672.56 L762.88 676.18 L760.65 678.49 L758.02 680.50 L755.34 682.46 L754.69 685.87 L754.06 689.33 L752.65 692.25 L750.26 694.40 L748.63 697.16 L746.37 699.41 L745.08 702.45 L742.40 704.36 L740.58 706.97 L738.35 709.24 L735.84 711.25 L733.87 713.74 L732.40 716.69 L729.54 718.36 L727.80 721.08 L725.39 723.17 L723.93 726.21 L721.28 728.04 L719.35 730.63 L717.67 733.48 L715.56 735.91 L713.23 738.10 L710.52 739.86 L707.74 741.52 L705.91 744.30 L703.91 746.89 L701.51 749.01 L698.67 750.59 L696.09 752.48 L693.77 754.70 L691.31 756.77 L688.78 758.72 L686.18 760.59 L683.68 762.61 L680.86 764.17 L678.57 766.50 L675.39 767.50 L673.13 769.89 L670.61 771.91 L668.07 773.91 L665.31 775.56 L662.38 776.92 L660.13 779.44 L657.78 781.83 L654.69 782.91 L651.57 783.93 L648.54 785.06 L646.60 788.34 L643.68 789.74 L640.49 790.57 L637.31 791.39 L634.31 792.58 L631.49 794.16 L628.29 794.88 L625.81 797.28 L622.95 798.80 L619.58 799.09 L616.52 800.10 L613.64 801.58 L611.08 803.98 L607.98 804.90 L605.07 806.39 L602.08 807.66 L598.91 808.40 L595.63 808.76 L592.58 809.84 L589.39 810.44 L586.41 811.81 L583.11 811.97 L580.06 813.08 L576.86 813.61 L573.93 815.23 L570.88 816.44 L567.84 817.73 L564.67 818.45 L561.56 819.51 L558.48 820.74 L555.37 821.86 L552.01 821.56 L548.62 820.92 L545.36 821.08 L542.31 822.73 L539.06 822.94 L535.80 823.09 L532.49 822.69 L529.25 822.85 L526.08 823.81 L522.92 825.28 L519.73 826.55 L516.43 825.94 L513.19 826.59 L509.91 826.33 L506.66 827.25 L503.38 826.34 L500.11 826.12 L496.85 826.27 L493.59 826.01 L490.33 826.21 L487.04 826.62 L483.80 826.06 L480.43 827.68 L477.19 827.01 L473.85 827.57 L470.69 826.07 L467.28 827.31 L463.92 827.71 L460.78 826.23 L457.61 825.15 L454.42 824.29 L451.11 824.26 L447.70 824.82 L444.29 825.24 L440.93 825.26 L437.60 825.08 L433.97 826.31 L430.48 826.74 L427.09 826.59 L423.41 827.63 L419.93 827.71 L416.67 826.81 L413.41 825.95 L410.08 825.36 L406.81 824.51 L403.61 823.43 L400.31 822.67 L396.97 822.02 L393.84 820.72 L390.57 819.84 L387.20 819.24 L384.09 817.87 L380.86 816.85 L377.60 815.89 L374.43 814.70 L371.27 813.48 L368.06 812.38 L364.93 811.08 L361.85 809.65 L358.72 808.35 L355.55 807.11 L352.50 805.61 L349.41 804.21 L346.20 803.04 L343.21 801.43 L340.20 799.86 L336.99 798.63 L333.95 797.11 L331.12 795.20 L328.07 793.68 L324.93 792.30 L322.23 790.19 L319.34 788.38 L316.23 786.93 L313.47 784.92 L310.60 783.09 L307.57 781.48 L304.72 779.61 L301.95 777.62 L299.05 775.81 L296.06 774.12 L293.36 772.02 L290.54 770.08 L287.60 768.29 L285.09 765.96 L282.41 763.83 L279.46 762.03 L276.72 759.95 L274.26 757.56 L271.57 755.44 L268.79 753.39 L266.46 750.87 L263.78 748.71 L261.00 746.65 L258.66 744.13 L256.19 741.75 L253.62 739.46 L251.19 737.02 L248.80 734.56 L246.22 732.26 L243.82 729.79 L241.72 727.05 L239.43 724.49 L236.94 722.09 L234.76 719.43 L232.59 716.76 L230.29 714.18 L228.08 711.54 L226.07 708.74 L223.69 706.22 L221.43 703.60 L219.52 700.72 L217.22 698.12 L214.90 695.53 L213.16 692.54 L211.13 689.73 L209.10 686.93 L207.30 683.97 L205.40 681.09 L203.25 678.35 L201.48 675.37 L199.84 672.32 L197.90 669.44 L195.77 666.66 L194.33 663.49 L192.66 660.45 L190.69 657.57 L189.17 654.44 L187.70 651.30 L186.01 648.26 L184.33 645.21 L183.09 641.96 L181.42 638.90 L179.64 635.88 L178.58 632.55 L177.10 629.40 L175.53 626.28 L174.48 622.95 L173.14 619.74 L171.51 616.62 L170.36 613.33 L169.34 610.00 L168.06 606.75 L166.63 603.54 L165.70 600.18 L164.60 596.86 L163.37 593.58 L162.55 590.18 L161.71 586.79 L160.58 583.47 L159.63 580.11 L158.87 576.69 L157.83 573.34 L157.00 569.94 L156.58 566.45 L155.66 563.07 L154.59 559.70 L154.35 556.19 L153.79 552.73 L152.89 549.32 L152.53 545.83 L152.00 542.37 L151.25 538.92 L150.65 535.46 L150.34 531.96 L149.78 528.48 L149.01 525.01 L149.09 521.48 L148.85 517.98 L148.27 514.48 L148.12 510.96 L148.12 507.44 L147.83 503.93 L147.55 500.40 L147.76 496.88 L147.53 493.35 L147.27 489.82 L147.63 486.30 L147.49 482.77 L147.22 479.21 L147.66 475.70 L147.94 472.18 L148.02 468.64 L148.26 465.12 L148.60 461.60 L148.73 458.05 L149.03 454.53 L149.66 451.04 L149.98 447.51 L149.99 443.93 L150.64 440.44 L151.20 436.94 L151.49 433.39 L152.19 429.91 L153.08 426.47 L153.54 422.94 L153.89 419.38 L155.09 416.02 L155.85 412.55 L156.32 409.00 L157.39 405.60 L158.24 402.15 L159.08 398.69 L160.16 395.30 L161.14 391.88 L161.83 388.37 L162.93 384.98 L164.08 381.61 L165.00 378.15 L165.78 374.64 L167.13 371.33 L168.33 367.97 L169.16 364.45 L170.53 361.15 L171.96 357.87 L173.19 354.51 L174.56 351.20 L176.25 348.04 L177.50 344.67 L178.68 341.26 L180.68 338.26 L182.18 335.00 L183.51 331.66 L185.41 328.61 L187.03 325.41 L188.51 322.13 L190.31 319.02 L192.17 315.96 L193.81 312.76 L195.45 309.55 L197.50 306.59 L199.25 303.45 L200.89 300.23 L203.05 297.35 L205.04 294.35 L206.75 291.16 L208.87 288.25 L211.14 285.44 L213.07 282.39 L214.97 279.31 L217.44 276.67 L219.51 273.71 L221.45 270.64 L223.94 268.02 L226.06 265.09 L228.20 262.16 L230.59 259.46 L232.91 256.68 L235.15 253.83 L237.54 251.12 L240.07 248.53 L242.45 245.80 L244.71 242.94 L247.49 240.60 L250.05 238.04 L252.56 235.43 L255.73 233.53 L259.14 231.90 L262.55 230.33 L266.16 229.01 L269.41 227.31 L272.22 225.10 L275.65 223.67 L278.77 221.87 L281.35 219.40 L284.48 217.64 L287.32 215.50 L289.86 212.96 L292.33 210.30 L295.20 208.18 L298.30 206.40 L301.21 204.34 L303.73 201.70 L306.63 199.61 L309.71 197.79 L312.75 195.92 L315.86 194.16 L318.78 192.08 L322.37 191.15 L325.67 189.76 L328.56 187.63 L331.03 184.69 L334.41 183.43 L338.05 182.71 L341.27 181.19 L344.00 178.65 L347.12 176.89 L350.50 175.68 L353.99 174.75 L357.17 173.13 L360.21 171.15 L363.77 170.41 L367.13 169.20 L370.57 168.22 L373.50 165.88 L376.97 164.98 L380.54 164.38 L383.82 162.94 L386.86 160.79 L390.17 159.40 L393.77 158.94 L397.39 158.57 L400.63 156.96 L403.71 154.70 L407.26 154.11 L410.83 153.59 L414.39 153.08 L417.51 150.77 L421.08 150.30 L424.71 150.08 L428.15 149.07 L431.52 147.63 L435.04 146.90 L438.72 147.11 L442.15 145.92 L445.55 144.42 L449.07 143.58 L452.64 143.14 L456.21 142.68 L459.72 141.70 L463.18 140.05 L466.89 140.88 L470.52 141.05 L474.10 140.66 L477.64 139.46 L481.28 139.88 L484.92 140.73 L488.52 140.80 L492.09 139.78 L495.69 138.85 L499.30 139.57 L502.90 139.81 L506.51 139.34 L510.17 137.66 L513.78 137.94 L517.40 138.18 L521.03 138.24 L524.75 136.84 L528.36 137.36 L531.97 137.83 L535.64 137.74 L539.32 137.50 L542.92 138.14 L546.48 139.03 L550.08 139.56 L553.77 139.50 L557.46 139.47 L560.95 140.77 L564.51 141.52 L568.12 142.05 L571.88 141.82 L575.42 142.76 L578.94 143.72 L582.60 144.12 L586.33 144.24 L589.97 144.75 L593.58 145.43 L597.14 146.33 L600.76 147.02 L604.28 148.07 L607.83 149.01 L611.41 149.84 L614.88 151.08 L618.43 152.04 L621.91 153.21 L625.34 154.53 L628.93 155.42 L632.40 156.66 L635.91 157.80 L639.20 159.48 L642.54 161.02 L646.03 162.23 L649.21 164.11 L652.48 165.82 L655.90 167.17 L659.35 168.48 L663.00 169.39 L665.98 171.66 L669.43 173.01 L672.89 174.34 L676.54 175.35 L679.57 177.51 L682.53 179.76 L685.71 181.63 L689.33 182.75 L692.46 184.72 L695.41 186.96 L698.17 189.50 L701.66 190.88 L705.21 192.22 L708.25 194.34 L711.38 196.31 L714.40 198.44 L717.62 200.30 L720.41 202.77 L723.12 205.31 L726.36 207.17 L729.36 209.34 L732.21 211.70 L734.81 214.36 L737.52 216.90 L740.76 218.79 L743.86 220.87 L746.27 223.74 L748.51 226.77 L751.53 228.94 L755.47 230.16 L758.10 232.79 L760.43 235.72 L762.98 238.41 L766.27 240.39 L768.99 242.93 L771.16 246.00 L773.61 248.79 L776.51 251.17 L779.31 253.66 L781.58 256.63 L783.75 259.67 L786.24 262.44 L789.50 264.58 L791.65 267.64 L793.67 270.79 L795.89 273.78 L799.15 275.99 L801.49 278.91 L803.22 282.27 L805.04 285.56 L807.58 288.33 L810.08 291.15 L812.05 294.33 L813.76 297.67 L815.78 300.82 L818.45 303.55 L820.36 306.77 L822.26 310.00 L823.75 313.46 L826.72 316.07 L828.33 319.46 L829.61 323.03 L831.51 326.26 L833.90 329.24 L836.01 332.38 L837.33 335.91 L838.38 339.56 L840.41 342.75 L842.40 345.97 L843.95 349.39 L845.22 352.93 L846.32 356.53 L848.82 359.57 L849.92 363.17 L850.94 366.81 L852.40 370.27 L854.52 373.50 L856.18 376.91 L856.70 380.71 L857.75 384.32 L859.53 387.70 L861.16 391.15 L862.37 394.72 L863.08 398.44 L863.96 402.11 L865.94 405.49 L866.55 409.23 L867.33 412.93 L867.91 416.67 L870.00 420.08 L870.84 423.77 L871.03 427.59 L871.54 431.34 L873.08 434.90 L874.22 438.55 L874.55 442.34 L874.49 446.18 L875.29 449.89 L876.60 453.54 L876.75 457.34 L877.00 461.13 L876.86 464.95 L878.46 468.61 L878.58 472.41 L878.34 476.23 L878.74 480.01 L879.47 483.77 L880.06 487.55 L879.68 491.36 L879.37 495.17 L879.90 498.96 L880.38 502.76 L880.07 506.56 L879.82 510.36 L879.54 514.15 L880.80 518.01 L880.31 521.80 L879.69 525.58 L879.42 529.37 L880.17 533.26 L880.26 537.10 L879.15 540.82 L878.32 544.57 L878.51 548.43 L878.54 552.29 L877.88 556.05 L876.76 559.74 L876.27 563.53 L876.74 567.49 L876.01 571.25 L874.92 574.93 L874.06 578.66 L874.43 582.65 L873.75 586.43 L872.48 590.07 L871.26 593.71 L870.82 597.56 L870.09 601.33 L869.10 605.04 L867.67 608.62 L866.61 612.31 L866.22 616.20 L864.84 619.80 L863.63 623.44 L862.04 626.95 L862.00 631.02 L860.60 634.61 L858.61 637.96 L857.31 641.58 L856.49 645.39 L855.60 649.20 L853.72 652.59 L851.73 655.92 L850.52 659.60 L849.35 663.30 L847.62 666.75 L845.69 670.09 L843.70 673.40 L843.13 677.44 L840.93 680.65 L838.80 683.88 L836.86 687.22 L835.76 691.02 L834.09 694.52 L831.60 697.53 L829.56 700.81 L828.02 704.40 L826.37 707.93 L824.31 711.21 L821.74 714.15 L819.49 717.29 L818.13 721.05 L815.84 724.18 L813.36 727.16 L810.98 730.22 L809.54 733.97 L807.41 737.23 L804.65 740.00 L802.17 742.99 L800.27 746.45 L798.12 749.71 L795.56 752.64 L792.70 755.30 L790.15 758.23 L788.15 761.66 L785.33 764.36 L782.66 767.19 L779.85 769.88 L778.09 773.60 L775.23 776.26 L771.83 778.35 L769.40 781.44 L766.97 784.55 L764.42 787.54 L761.22 789.82 L758.07 792.15 L755.45 795.08 L752.92 798.14 L750.01 800.75 L747.29 803.60 L744.28 806.10 L742.49 810.17 L738.70 811.69 L735.36 813.79 L732.04 815.89 L729.80 819.49 L726.40 821.50 L722.86 823.29 L719.42 825.22 L716.65 828.13 L713.75 830.89 L710.07 832.45 L706.62 834.35 L703.19 836.27 L700.86 840.04 L697.00 841.27 L693.38 842.87 L689.72 844.37 L687.06 847.73 L683.30 849.07 L679.61 850.52 L676.13 852.37 L673.04 855.01 L669.55 856.87 L665.77 858.11 L662.16 859.69 L658.72 861.68 L655.65 864.56 L651.57 865.05 L647.89 866.50 L644.02 867.46 L641.02 870.66 L637.03 871.32 L633.17 872.26 L629.46 873.64 L626.08 875.99 L622.33 877.30 L618.53 878.44 L614.60 879.14 L610.98 880.88 L607.49 883.12 L603.47 883.47 L599.55 884.19 L595.63 884.88 L592.29 887.96 L588.19 887.93 L584.22 888.38 L580.26 888.87 L576.68 891.26 L572.72 891.74 L568.72 892.04 L564.72 892.22 L560.93 893.69 L557.07 894.84 L553.02 894.70 L549.03 894.87 L545.07 895.22 L541.31 897.56 L537.24 896.91 L533.24 896.93 L529.26 897.16 L525.40 899.22 L521.38 899.05 L517.37 898.81 L513.38 898.81 L509.41 899.91 L505.42 900.39 L501.41 899.90 L497.42 899.66 L493.42 899.70 L489.38 901.08 L485.41 900.02 L481.40 899.96 L477.43 899.36 L473.31 900.96 L469.37 899.83 L465.42 898.90 L461.43 898.65 L457.31 899.47 L453.31 899.05 L449.40 897.99 L445.43 897.42 L441.38 897.40 L437.22 898.00 L433.40 896.40 L429.44 895.71 L425.54 894.68 L421.16 896.11 L417.45 894.15 L413.62 892.80 L409.82 891.38 L405.58 891.85 L401.68 890.81 L397.86 889.50 L394.10 887.98 L390.05 887.52 L385.98 887.07 L382.27 885.41 L378.46 884.10 L374.73 882.54 L370.27 883.15 L366.78 880.90 L363.10 879.20 L359.38 877.64 L355.01 877.78 L351.34 876.06 L347.72 874.23 L344.05 872.52 L339.88 872.01 L335.97 870.84 L332.54 868.58 L329.03 866.51 L325.32 864.90 L320.98 864.56 L317.82 861.81 L314.27 859.85 L310.79 857.78 L306.33 857.52 L303.19 854.79 L299.87 852.42 L296.25 850.59 L292.18 849.49 L288.67 847.44 L285.52 844.80 L282.12 842.59 L278.55 840.62 L274.43 839.48 L271.53 836.50 L268.19 834.18 L265.04 831.59 L260.50 830.93 L257.71 827.84 L254.61 825.17 L251.49 822.55 L247.35 821.22 L244.26 818.55 L241.44 815.55 L238.38 812.84 L234.80 810.76 L231.25 808.61 L228.69 805.33 L225.74 802.50 L222.83 799.64 L218.38 798.41 L216.25 794.70 L213.57 791.60 L210.88 788.50 L206.75 786.83 L204.41 783.40 L202.02 780.01 L199.39 776.89 L195.95 774.49 L192.84 771.77 L190.59 768.29 L188.19 764.95 L185.39 761.96 L181.35 759.98 L179.31 756.34 L177.00 752.93 L174.92 749.36 L170.82 747.31 L168.71 743.75 L166.71 740.13 L164.69 736.52 L161.40 733.81 L158.80 730.60 L156.86 726.94 L154.76 723.41 L151.96 720.31 L147.99 717.92 L146.08 714.24 L144.19 710.55 L142.16 706.95 L138.02 704.54 L135.92 700.95 L133.98 697.27 L131.88 693.68 L129.82 690.06 L127.78 686.43 L126.04 682.65 L123.91 679.05 L121.99 675.35 L120.21 671.58 L118.42 667.81 L116.61 664.06 L115.00 660.21 L113.06 656.50 L111.56 652.60 L109.89 648.77 L108.39 644.88 L106.78 641.02 L105.51 637.03 L104.00 633.14 L102.50 629.23 L101.48 625.17 L100.07 621.23 L98.57 617.32 L97.44 613.29 L96.45 609.23 L95.24 605.22 L94.02 601.22 L92.73 597.22 L91.87 593.12 L90.60 589.12 L89.51 585.06 L88.65 580.96 L87.74 576.87 L87.02 572.74 L86.27 568.61 L85.28 564.52 L84.40 560.41 L84.04 556.22 L83.28 552.08 L82.57 547.94 L81.87 543.78 L81.30 539.62 L80.70 535.45 L80.32 531.25 L80.06 527.05 L79.74 522.86 L79.52 518.65 L79.38 514.45 L79.09 510.24 L79.08 506.03 L78.81 501.83 L78.57 497.61 L78.12 493.39 L78.25 489.17 L78.46 484.96 L78.19 480.72 L78.35 476.50 L78.82 472.30 L79.08 468.09 L79.09 463.85 L79.55 459.65 L79.98 455.45 L80.05 451.21 L80.32 446.98 L80.68 442.76 L81.13 438.55 L81.66 434.35 L82.32 430.16 L82.89 425.97 L83.50 421.77 L84.33 417.61 L85.43 413.51 L86.32 409.37 L87.03 405.19 L87.57 400.96 L88.35 396.79 L89.53 392.71 L90.64 388.61 L91.24 384.38 L92.32 380.27 L93.72 376.25 L94.87 372.16 L95.91 368.03 L97.57 364.10 L98.87 360.06 L99.96 355.93 L101.35 351.92 L102.61 347.84 L103.74 343.72 L105.19 339.71 L106.71 335.73 L108.54 331.87 L109.70 327.73 L111.18 323.72 L112.94 319.82 L114.90 316.03 L116.73 312.17 L118.34 308.21 L120.01 304.26 L122.05 300.50 L124.05 296.73 L125.88 292.86 L127.82 289.04 L130.19 285.47 L132.19 281.69 L134.15 277.87 L136.49 274.29 L138.85 270.72 L140.92 266.96 L143.22 263.35 L145.52 259.74 L147.93 256.20 L150.42 252.71 L152.71 249.08 L155.13 245.55 L157.50 241.97 L160.01 238.49 L162.79 235.22 L165.33 231.75 L167.93 228.35 L170.46 224.86 L173.08 221.46 L175.85 218.17 L178.75 215.00 L181.43 211.64 L184.09 208.25 L186.93 205.01 L189.72 201.73 L192.68 198.61 L195.72 195.56 L198.71 192.46 L201.61 189.26 L204.65 186.21 L207.73 183.19 L210.70 180.05 L213.91 177.16 L217.18 174.35 L220.35 171.43 L223.28 168.20 L226.50 165.31 L230.11 162.90 L233.58 160.34 L236.81 157.45 L240.23 154.82 L243.63 152.15 L246.97 149.39 L250.42 146.78 L253.86 144.15 L257.42 141.69 L260.96 139.20 L264.41 136.57 L268.01 134.15 L271.79 132.03 L275.37 129.59 L279.04 127.28 L282.68 124.93 L286.30 122.52 L289.92 120.09 L293.60 117.78 L297.46 115.78 L301.21 113.59 L304.92 111.28 L308.77 109.25 L312.83 107.66 L316.80 105.88 L320.65 103.86 L324.66 102.18 L328.58 100.29 L332.53 98.45 L336.58 96.86 L340.56 95.10 L344.54 93.33 L348.57 91.66 L352.54 89.83 L356.61 88.29 L360.78 87.01 L364.96 85.74 L369.03 84.17 L373.10 82.58 L377.23 81.16 L381.40 79.88 L385.60 78.68 L389.77 77.35 L393.94 76.03 L398.06 74.46 L402.33 73.52 L406.61 72.61 L410.85 71.51 L415.13 70.62 L419.48 70.06 L423.75 69.05 L428.02 68.05 L432.37 67.52 L436.67 66.72 L440.96 65.72 L445.28 64.97 L449.61 64.23 L453.98 63.89 L458.34 63.38 L462.71 63.03 L467.06 62.38 L471.44 62.19 L475.82 61.86 L480.19 61.39 L484.57 61.08 L488.96 60.82 L493.35 60.55 L497.74 59.70 L502.14 59.64 L506.54 59.89 L510.95 59.79 L515.35 59.96 L519.74 60.36 L524.14 60.42 L528.55 60.43 L532.93 60.96 L537.32 61.38 L541.72 61.59 L546.12 61.80 L550.51 62.23 L554.94 62.33 L559.33 62.75 L563.72 63.25 L568.10 63.82 L572.51 64.17 L576.88 64.86 L581.20 65.80 L585.56 66.52 L589.93 67.21 L594.26 68.10 L598.62 68.85 L602.95 69.74 L607.20 70.98 L611.59 71.70 L615.85 72.89 L620.07 74.23 L624.42 75.12 L628.76 76.05 L632.97 77.43 L637.13 78.96 L641.43 80.09 L645.69 81.31 L649.89 82.73 L654.19 83.90 L658.40 85.32 L662.59 86.78 L666.72 88.43 L670.93 89.87 L675.06 91.50 L679.02 93.53 L683.23 95.02 L687.37 96.65 L691.43 98.46 L695.47 100.33 L699.47 102.27 L703.42 104.33 L707.58 105.98 L711.60 107.90 L715.46 110.14 L719.41 112.19 L723.27 114.42 L727.18 116.56 L731.02 118.83 L735.06 120.77 L738.86 123.11 L742.66 125.44 L746.49 127.75 L750.36 129.99 L754.17 132.34 L757.76 135.00 L761.59 137.32 L765.31 139.82 L768.87 142.52 L772.56 145.07 L776.29 147.56 L779.95 150.15 L784.12 152.13 L787.45 155.15 L790.91 158.02 L795.05 160.09 L798.43 163.07 L801.94 165.90 L805.37 168.82 L808.59 171.97 L812.08 174.83 L815.36 177.92 L818.59 181.07 L822.07 183.97 L825.26 187.16 L828.38 190.43 L831.83 193.38 L834.92 196.68 L837.91 200.07 L841.08 203.30 L844.15 206.62 L846.98 210.15 L849.88 213.62 L852.98 216.93 L855.72 220.53 L858.55 224.06 L861.44 227.55 L864.34 231.03 L867.00 234.70 L869.76 238.29 L872.47 241.93 L874.93 245.73 L877.57 249.42 L880.40 252.98 L882.88 256.78 L885.16 260.71 L887.80 264.40 L890.20 268.26 L892.42 272.22 L894.95 276.00 L897.36 279.86 L899.48 283.87 L901.70 287.83 L903.83 291.85 L905.75 295.97 L908.04 299.90 L910.42 303.80 L912.26 307.96 L914.27 312.04 L916.38 316.09 L918.69 320.05 L920.43 324.26 L922.20 328.46 L924.16 332.59 L925.60 336.92 L927.27 341.16 L929.13 345.33 L930.77 349.59 L932.13 353.95 L933.96 358.15 L935.40 362.48 L936.63 366.88 L938.18 371.18 L939.57 375.54 L940.74 379.95 L941.87 384.38 L943.28 388.73 L944.00 393.26 L945.00 397.72 L946.50 402.06 L947.75 406.47 L948.59 410.97 L949.78 415.40 L951.15 419.80 L951.99 424.31 L952.74 428.83 L953.76 433.31 L954.26 437.87 L954.84 442.42 L955.56 446.95 L956.23 451.49 L956.85 456.04 L958.09 460.54 L959.15 465.07 L959.84 469.64 L961.09 474.19 L961.43 478.79 L962.79 483.37 L964.15 487.96 L964.37 492.60 L964.53 497.25 L965.35 500.00 L965.21 495.35 L965.03 490.70 L964.80 486.05 L966.05 481.35 L966.23 476.67 L965.73 472.02 L966.29 467.31 L966.39 462.61 L966.31 457.92 L966.02 453.24 L965.85 448.55 L964.97 443.93 L964.07 439.33 L963.53 434.68 L962.65 430.08 L961.64 425.50 L960.75 420.91 L960.11 416.27 L959.23 411.68 L958.27 407.10 L957.34 402.52 L956.34 397.95 L955.34 393.39 L954.02 388.89 L952.38 384.49 L951.12 379.99 L949.83 375.50 L948.34 371.08 L946.63 366.72 L945.35 362.24 L943.85 357.82 L942.33 353.42 L940.66 349.06 L939.27 344.61 L937.46 340.31 L935.56 336.05 L933.95 331.69 L931.93 327.48 L929.94 323.27 L928.09 319.01 L926.27 314.73 L924.46 310.45 L922.58 306.19 L920.61 301.98 L918.20 297.98 L916.28 293.75 L914.32 289.54 L911.83 285.59 L909.35 281.66 L907.19 277.55 L904.89 273.52 L902.31 269.65 L900.01 265.63 L897.65 261.64 L895.12 257.75 L892.45 253.95 L890.03 250.01 L887.31 246.25 L884.57 242.51 L882.05 238.63 L879.13 235.02 L876.24 231.40 L873.54 227.65 L870.73 223.97 L867.88 220.33 L864.99 216.73 L862.13 213.10 L858.90 209.77 L855.95 206.22 L853.01 202.67 L849.76 199.37 L846.56 196.04 L843.57 192.53 L840.36 189.22 L837.05 186.00 L833.96 182.59 L830.86 179.17 L827.45 176.06 L824.19 172.82 L821.05 169.43 L817.49 166.50 L814.02 163.46 L810.66 160.31 L807.04 157.46 L803.53 154.48 L800.21 151.29 L797.12 147.82 L793.27 145.25 L789.80 142.21 L786.45 139.02 L782.97 135.99 L779.23 133.30 L775.39 130.74 L771.78 127.87 L767.91 125.36 L764.08 122.80 L760.25 120.24 L756.46 117.63 L752.50 115.26 L748.68 112.70 L744.75 110.31 L740.80 107.95 L736.84 105.61 L732.90 103.23 L728.83 101.08 L724.65 99.12 L720.59 96.97 L716.46 94.95 L712.40 92.82 L708.34 90.65 L704.18 88.71 L699.91 86.99 L695.71 85.15 L691.56 83.20 L687.33 81.41 L683.06 79.72 L678.79 78.05 L674.56 76.30 L670.21 74.83 L665.96 73.14 L661.66 71.55 L657.28 70.20 L652.99 68.61 L648.72 66.93 L644.37 65.52 L639.95 64.29 L635.51 63.17 L631.08 62.03 L626.69 60.73 L622.30 59.47 L617.79 58.64 L613.31 57.72 L608.89 56.55 L604.42 55.63 L599.93 54.79 L595.42 54.05 L590.99 52.96 L586.46 52.36 L581.92 51.85 L577.42 51.14 L572.92 50.43 L568.40 49.86 L563.89 49.21 L559.39 48.53 L554.85 48.16 L550.33 47.61 L545.82 47.00 L541.27 46.67 L536.72 46.49 L532.17 46.39 L527.60 46.51 L523.07 46.27 L518.52 46.23 L513.97 46.42 L509.43 46.56 L504.89 46.66 L500.36 46.79 L495.83 46.71 L491.29 46.65 L486.76 46.68 L482.23 47.01 L477.72 47.47 L473.18 47.48 L468.67 48.03 L464.18 48.65 L459.67 49.08 L455.17 49.59 L450.70 50.34 L446.27 51.42 L441.74 51.56 L437.26 52.24 L432.79 52.90 L428.35 53.76 L423.93 54.72 L419.50 55.62 L415.08 56.54 L410.71 57.72 L406.34 58.87 L401.97 59.97 L397.59 61.04 L393.28 62.38 L388.86 63.30 L384.45 64.26 L380.14 65.58 L375.90 67.13 L371.56 68.34 L367.23 69.59 L362.96 71.02 L358.72 72.55 L354.49 74.08 L350.40 76.00 L346.22 77.69 L341.89 78.92 L337.77 80.74 L333.62 82.47 L329.47 84.19 L325.42 86.15 L321.36 88.08 L317.27 89.94 L313.20 91.84 L309.22 93.91 L305.41 96.36 L301.47 98.49 L297.51 100.58 L293.49 102.55 L289.56 104.71 L285.72 107.02 L281.76 109.11 L277.84 111.28 L273.88 113.36 L270.17 115.89 L266.34 118.21 L262.58 120.65 L259.04 123.41 L255.39 126.00 L251.49 128.21 L247.98 130.99 L244.43 133.72 L240.73 136.22 L237.15 138.89 L233.64 141.65 L230.12 144.41 L226.57 147.11 L223.17 150.00 L220.03 153.22 L216.73 156.23 L213.25 159.01 L209.83 161.86 L206.58 164.91 L203.32 167.96 L200.20 171.14 L196.86 174.08 L193.53 177.04 L190.45 180.26 L187.41 183.52 L184.20 186.60 L181.39 190.06 L178.46 193.42 L175.26 196.51 L172.31 199.83 L169.30 203.10 L166.45 206.51 L163.62 209.94 L160.95 213.50 L158.14 216.93 L155.22 220.28 L152.63 223.90 L150.04 227.50 L147.50 231.14 L144.89 234.72 L142.41 238.40 L139.71 241.92 L137.18 245.56 L135.00 249.44 L132.71 253.23 L130.13 256.83 L127.90 260.66 L125.63 264.46 L123.52 268.35 L121.41 272.24 L119.25 276.10 L117.15 279.99 L115.30 284.01 L113.17 287.87 L111.10 291.77 L109.12 295.71 L107.35 299.76 L105.38 303.70 L103.32 307.60 L101.74 311.73 L100.21 315.88 L98.44 319.91 L96.37 323.80 L94.74 327.90 L93.40 332.11 L91.56 336.11 L90.13 340.27 L88.51 344.36 L86.72 348.40 L85.39 352.59 L84.08 356.80 L82.87 361.03 L81.77 365.30 L80.56 369.52 L79.41 373.76 L78.34 378.02 L77.29 382.29 L76.00 386.48 L75.05 390.77 L74.29 395.10 L73.32 399.38 L71.97 403.57 L71.19 407.89 L70.71 412.27 L70.18 416.63 L69.39 420.93 L68.98 425.31 L68.27 429.62 L67.57 433.94 L67.26 438.31 L66.88 442.67 L65.96 446.96 L65.59 451.32 L65.10 455.66 L64.93 460.04 L64.72 464.41 L64.49 468.77 L64.36 473.13 L64.41 477.51 L64.24 481.87 L64.14 486.23 L64.23 490.59 L64.25 494.95 L64.30 499.31 L64.08 503.67 L64.36 508.02 L64.78 512.37 L64.86 516.72 L65.19 521.06 L65.76 525.39 L66.19 529.72 L66.63 534.05 L67.25 538.36 L67.83 542.67 L68.06 547.01 L68.71 551.31 L69.29 555.61 L69.96 559.90 L70.88 564.16 L71.58 568.44 L72.25 572.73 L72.99 577.00 L74.13 581.20 L75.15 585.42 L76.04 589.66 L76.94 593.90 L78.09 598.08 L79.15 602.28 L80.17 606.49 L81.41 610.64 L82.64 614.79 L83.95 618.92 L85.40 623.00 L86.66 627.14 L88.11 631.22 L89.77 635.22 L91.25 639.28 L92.72 643.34 L94.35 647.34 L96.04 651.32 L97.71 655.30 L99.27 659.32 L101.12 663.22 L102.74 667.21 L104.56 671.12 L106.41 675.02 L108.42 678.83 L110.22 682.74 L112.04 686.64 L114.08 690.44 L116.16 694.21 L118.08 698.06 L120.30 701.75 L122.40 705.50 L124.58 709.21 L126.05 713.32 L127.29 717.58 L129.91 721.04 L132.48 724.52 L134.87 728.11 L135.32 732.93 L137.93 736.39 L140.63 739.79 L143.97 742.74 L145.16 747.17 L147.83 750.57 L150.93 753.66 L154.09 756.69 L156.28 760.43 L158.35 764.29 L161.60 767.22 L164.72 770.24 L167.69 773.38 L169.36 777.59 L172.43 780.65 L175.67 783.55 L179.38 786.01 L181.01 790.34 L184.24 793.23 L187.51 796.06 L191.38 798.30 L193.99 801.76 L196.67 805.16 L200.19 807.71 L203.73 810.23 L207.10 812.91 L209.46 816.67 L212.88 819.30 L216.46 821.72 L220.52 823.59 L222.67 827.66 L226.36 829.94 L229.75 832.57 L233.85 834.29 L236.52 837.82 L239.87 840.50 L243.57 842.69 L247.31 844.83 L250.72 847.42 L253.74 850.56 L257.39 852.81 L261.32 854.64 L265.31 856.35 L268.07 859.95 L271.97 861.78 L275.75 863.81 L280.08 864.90 L283.07 868.23 L286.78 870.33 L290.58 872.30 L294.77 873.55 L298.45 875.70 L301.92 878.27 L305.81 880.04 L309.95 881.29 L314.08 882.54 L317.34 885.59 L321.38 887.04 L325.54 888.16 L329.92 888.78 L333.13 892.08 L337.18 893.43 L341.25 894.72 L345.45 895.67 L349.20 897.74 L353.04 899.64 L357.22 900.58 L361.44 901.39 L365.55 902.49 L369.26 904.81 L373.42 905.77 L377.63 906.52 L382.02 906.63 L385.66 909.35 L389.95 909.76 L394.14 910.48 L398.46 910.68 L402.34 912.63 L406.46 913.65 L410.79 913.72 L415.07 913.91 L419.25 914.54 L423.23 916.25 L427.45 916.70 L431.71 916.81 L436.04 916.46 L439.97 918.77 L444.21 918.93 L448.43 919.23 L452.77 918.48 L456.83 920.14 L461.04 920.51 L465.27 920.59 L469.54 920.02 L473.74 920.40 L477.91 921.31 L482.13 921.28 L486.37 920.77 L490.59 920.16 L494.78 921.57 L498.99 921.09 L503.20 920.74 L507.39 919.43 L511.63 920.97 L515.82 920.41 L520.01 919.87 L524.16 918.85 L528.38 919.19 L532.62 919.45 L536.78 918.71 L540.89 917.56 L545.02 916.76 L549.32 917.41 L553.45 916.56 L557.51 915.31 L561.47 913.40 L565.87 914.48 L569.92 913.27 L573.97 912.09 L577.89 910.29 L582.18 910.43 L586.34 909.87 L590.28 908.30 L594.23 906.82 L598.27 905.78 L602.56 905.69 L606.46 904.07 L610.34 902.41 L614.13 900.48 L618.62 900.98 L622.45 899.23 L626.34 897.69 L630.05 895.60 L634.36 895.34 L638.32 894.00 L642.08 892.14 L645.79 890.14 L649.69 888.69 L653.80 887.76 L657.56 885.93 L661.12 883.65 L664.57 881.13 L668.98 880.83 L672.70 878.95 L676.33 876.88 L679.53 873.93 L683.91 873.44 L687.53 871.37 L691.08 869.17 L694.45 866.67 L698.26 864.97 L702.08 863.30 L705.35 860.65 L708.63 858.04 L712.04 855.66 L716.31 854.70 L719.61 852.15 L722.78 849.41 L725.57 846.09 L730.04 845.35 L733.15 842.55 L736.36 839.90 L739.15 836.68 L742.94 834.88 L746.43 832.63 L749.41 829.71 L752.33 826.73 L755.43 823.99 L759.31 822.23 L762.52 819.63 L765.65 816.93 L768.68 814.10 L772.50 812.19 L775.26 809.06 L778.02 805.95 L780.82 802.88 L784.26 800.51 L787.29 797.70 L789.92 794.48 L792.49 791.19 L795.47 788.34 L798.63 785.65 L801.53 782.70 L803.57 778.96 L806.25 775.83 L809.57 773.27 L811.92 769.84 L814.21 766.37 L816.60 763.00 L819.93 760.40 L822.26 756.98 L824.43 753.45 L826.87 750.13 L829.63 747.06 L832.37 743.96 L834.35 740.30 L836.18 736.56 L838.61 733.24 L841.33 730.12 L843.38 726.54 L845.01 722.70 L846.93 719.05 L850.02 716.13 L851.74 712.37 L853.59 708.69 L855.41 705.00 L857.69 701.58 L859.85 698.08 L861.45 694.28 L862.68 690.29 L864.68 686.71 L866.81 683.19 L868.35 679.38 L869.49 675.39 L870.86 671.51 L873.47 668.21 L874.54 664.21 L875.69 660.25 L877.20 656.46 L879.28 652.89 L880.83 649.11 L881.71 645.07 L882.71 641.08 L884.28 637.31 L885.94 633.57 L887.03 629.63 L887.71 625.56 L888.63 621.58 L890.58 617.91 L891.28 613.86 L892.05 609.85 L892.82 605.84 L894.53 602.08 L895.18 598.04 L895.41 593.91 L896.31 589.95 L897.44 586.04 L898.63 582.13 L898.95 578.05 L899.08 573.94 L899.92 569.96 L901.33 566.08 L901.79 562.04 L901.53 557.89 L901.71 553.82 L903.28 549.93 L903.38 545.85 L903.17 541.75 L903.27 537.69 L904.03 533.69 L904.67 529.67 L904.40 525.59 L904.02 521.51 L904.45 517.48 L905.03 513.45 L905.20 509.40 L904.48 505.33 L903.98 501.29 L904.98 497.24 L904.31 493.20 L903.83 489.17 L903.39 485.14 L903.76 481.08 L903.49 477.05 L902.68 473.06 L902.08 469.05 L901.76 465.03 L901.68 460.99 L900.98 457.01 L899.64 453.10 L898.85 449.15 L899.26 445.03 L898.21 441.11 L896.94 437.24 L895.90 433.34 L896.22 429.20 L895.36 425.27 L894.04 421.43 L892.82 417.58 L892.32 413.58 L891.74 409.59 L890.52 405.75 L888.65 402.08 L887.65 398.20 L887.28 394.14 L885.92 390.36 L884.26 386.66 L882.87 382.90 L882.62 378.78 L881.05 375.07 L879.43 371.39 L877.87 367.69 L876.80 363.82 L875.64 359.97 L873.89 356.35 L871.84 352.86 L870.48 349.09 L869.11 345.33 L867.20 341.79 L865.11 338.34 L863.20 334.83 L862.50 330.75 L860.11 327.46 L857.96 324.07 L855.93 320.62 L854.61 316.82 L852.84 313.24 L850.48 309.98 L848.19 306.69 L846.27 303.20 L844.53 299.60 L842.23 296.34 L839.59 293.28 L837.41 289.95 L836.00 286.14 L833.30 283.15 L830.78 280.05 L828.37 276.88 L826.78 273.16 L824.12 270.16 L821.15 267.41 L818.55 264.40 L816.54 260.95 L814.43 257.57 L811.69 254.67 L808.45 252.19 L806.05 249.04 L804.08 245.53 L801.47 242.54 L798.33 240.02 L795.31 237.41 L793.39 233.82 L790.36 231.22 L787.53 228.45 L784.53 225.86 L781.91 222.89 L779.28 219.93 L776.06 217.56 L772.79 215.26 L770.24 212.22 L768.16 208.66 L765.05 206.19 L761.34 204.41 L758.01 202.23 L755.53 199.06 L752.31 196.76 L749.14 194.41 L745.69 192.41 L742.55 190.03 L739.41 187.66 L736.15 185.44 L732.76 183.41 L729.29 181.51 L726.23 179.05 L723.05 176.74 L719.44 175.06 L716.13 172.96 L713.34 170.06 L709.94 168.08 L706.24 166.60 L702.51 165.19 L699.38 162.80 L696.09 160.66 L692.37 159.27 L688.72 157.80 L685.19 156.12 L682.00 153.79 L678.66 151.73 L674.94 150.40 L671.20 149.15 L667.95 146.91 L664.47 145.13 L660.84 143.65 L656.88 142.95 L653.29 141.43 L649.54 140.28 L645.87 138.96 L642.17 137.74 L638.42 136.64 L634.85 135.11 L631.10 134.02 L627.34 133.01 L623.66 131.77 L619.88 130.83 L616.24 129.47 L612.47 128.51 L608.66 127.71 L604.92 126.68 L601.13 125.84 L597.43 124.68 L593.63 123.88 L590.00 122.38 L586.33 121.03 L582.45 120.60 L578.60 120.02 L574.77 119.39 L571.06 118.12 L567.21 117.62 L563.24 117.78 L559.34 117.68 L555.60 116.53 L551.77 115.91 L547.90 115.63 L543.93 116.25 L540.13 115.47 L536.27 115.16 L532.42 114.91 L528.55 114.78 L524.71 114.34 L520.91 113.08 L517.03 113.05 L513.13 113.79 L509.28 113.14 L505.43 111.84 L501.55 111.87 L497.67 112.59 L493.81 113.47 L489.91 112.25 L486.03 112.45 L482.19 113.15 L478.39 114.56 L474.53 114.80 L470.64 114.56 L466.84 115.42 L463.09 116.75 L459.30 117.57 L455.40 117.32 L451.52 117.37 L447.76 118.34 L444.04 119.50 L440.10 119.17 L436.28 119.70 L432.46 120.26 L428.80 121.65 L424.96 122.09 L421.16 122.73 L417.41 123.63 L413.86 125.41 L410.03 125.92 L406.15 126.23 L402.54 127.69 L399.11 129.73 L395.46 130.94 L391.35 130.56 L387.82 132.16 L384.38 134.06 L380.98 135.99 L377.09 136.45 L373.39 137.50 L369.88 139.08 L366.49 140.98 L362.86 142.20 L359.14 143.22 L355.71 144.96 L352.60 147.46 L349.26 149.37 L345.52 150.35 L342.17 152.21 L339.04 154.54 L335.92 156.85 L332.09 157.68 L328.64 159.29 L325.57 161.67 L322.62 164.23 L319.21 165.91 L315.48 167.01 L312.18 168.91 L309.45 171.80 L306.46 174.19 L303.28 176.26 L300.08 178.29 L297.14 180.72 L294.27 183.25 L290.84 184.91 L287.66 186.95 L284.65 189.26 L281.72 191.66 L278.55 193.73 L275.21 195.56 L272.39 198.11 L269.45 200.48 L266.89 203.35 L263.88 205.62 L261.57 208.76 L259.35 211.98 L256.84 214.81 L254.58 217.93 L252.93 221.70 L251.04 225.16 L248.89 228.29 L246.60 231.25 L244.20 234.08 L241.53 236.64 L238.95 239.27 L236.70 242.24 L234.04 244.79 L231.45 247.42 L229.31 250.45 L226.79 253.14 L224.20 255.76 L221.95 258.69 L219.75 261.65 L217.19 264.31 L214.93 267.22 L212.92 270.32 L210.58 273.15 L208.32 276.06 L206.39 279.21 L204.21 282.16 L202.08 285.16 L200.14 288.28 L198.17 291.38 L196.05 294.38 L194.08 297.47 L192.44 300.78 L190.30 303.77 L188.32 306.85 L186.88 310.27 L184.89 313.34 L183.00 316.48 L181.56 319.87 L179.81 323.09 L177.99 326.26 L176.48 329.60 L175.05 332.98 L173.38 336.23 L171.88 339.56 L170.65 343.02 L168.98 346.27 L167.50 349.61 L166.34 353.08 L165.09 356.51 L163.59 359.83 L162.26 363.23 L161.08 366.68 L159.65 370.03 L158.28 373.41 L157.49 377.00 L155.97 380.32 L154.85 383.79 L154.13 387.38 L152.84 390.79 L151.70 394.25 L151.00 397.84 L150.34 401.43 L149.17 404.87 L148.37 408.42 L147.78 412.02 L146.96 415.56 L146.20 419.11 L145.64 422.70 L144.92 426.25 L144.28 429.82 L143.86 433.43 L143.42 437.03 L142.68 440.58 L142.17 444.17 L141.89 447.79 L141.26 451.35 L140.94 454.96 L141.06 458.62 L140.46 462.19 L139.99 465.78 L140.02 469.41 L139.94 473.03 L139.70 476.63 L139.73 480.25 L139.72 483.86 L139.33 487.45 L139.39 491.06 L139.72 494.68 L139.56 498.28 L139.55 501.88 L139.85 505.48 L140.16 509.08 L140.19 512.68 L140.47 516.27 L140.92 519.85 L141.16 523.44 L141.50 527.02 L142.17 530.57 L142.30 534.16 L142.55 537.75 L143.38 541.27 L143.70 544.85 L144.08 548.42 L144.93 551.93 L145.60 555.46 L146.21 558.99 L147.03 562.49 L147.99 565.96 L148.45 569.52 L149.35 572.99 L150.54 576.40 L151.30 579.89 L151.99 583.40 L153.02 586.83 L154.25 590.21 L155.08 593.69 L156.21 597.08 L157.63 600.39 L158.56 603.83 L159.55 607.26 L161.01 610.54 L162.12 613.93 L163.27 617.31 L164.76 620.56 L165.97 623.91 L167.14 627.28 L168.71 630.49 L170.34 633.67 L171.54 637.03 L173.04 640.25 L174.75 643.39 L176.14 646.66 L177.62 649.89 L179.38 652.99 L181.17 656.07 L182.69 659.28 L184.42 662.38 L186.29 665.41 L187.95 668.54 L189.68 671.64 L191.75 674.54 L193.36 677.70 L195.26 680.70 L197.49 683.49 L199.18 686.60 L200.98 689.65 L203.19 692.44 L205.42 695.20 L207.25 698.23 L209.39 701.06 L211.69 703.76 L213.48 706.81 L215.57 709.67 L217.97 712.28 L220.08 715.12 L222.17 717.96 L224.60 720.54 L227.12 723.03 L229.23 725.86 L231.59 728.48 L234.23 730.86 L236.56 733.50 L239.06 735.99 L241.79 738.25 L244.05 740.96 L246.39 743.58 L249.09 745.85 L251.70 748.21 L254.13 750.75 L256.80 753.04 L259.50 755.30 L261.93 757.83 L264.62 760.08 L267.46 762.17 L270.13 764.44 L272.78 766.73 L275.59 768.83 L278.28 771.07 L281.02 773.26 L283.91 775.25 L286.87 777.14 L289.51 779.44 L292.28 781.58 L295.41 783.23 L298.16 785.39 L300.98 787.46 L304.12 789.05 L306.99 791.05 L309.87 793.01 L312.97 794.66 L316.04 796.33 L319.05 798.09 L322.15 799.70 L325.36 801.11 L328.32 802.94 L331.43 804.52 L334.64 805.89 L337.68 807.60 L340.73 809.26 L343.95 810.61 L347.16 811.94 L350.20 813.64 L353.39 815.03 L356.80 815.91 L359.91 817.46 L363.14 818.73 L366.52 819.65 L369.73 820.95 L372.89 822.37 L376.22 823.38 L379.54 824.37 L382.74 825.71 L386.05 826.74 L389.39 827.64 L392.65 828.82 L395.96 829.81 L399.36 830.53 L402.67 831.50 L406.00 832.44 L409.39 833.11 L412.79 833.78 L416.12 834.69 L419.49 835.41 L422.66 837.04 L425.76 839.02 L429.03 840.37 L432.27 841.87 L435.46 843.77 L438.91 844.36 L442.31 845.21 L445.65 846.55 L449.00 847.83 L452.45 848.57 L456.10 847.75 L459.67 847.37 L463.19 847.35 L466.63 848.06 L470.07 848.89 L473.60 848.70 L477.09 848.85 L480.57 849.30 L484.01 850.64 L487.55 849.84 L491.04 850.26 L494.55 849.78 L498.05 850.12 L501.55 849.53 L505.03 848.92 L508.53 848.96 L512.00 848.47 L515.48 848.27 L518.94 847.61 L522.38 846.94 L525.95 847.97 L529.44 847.85 L532.98 848.26 L536.34 846.69 L539.77 846.03 L543.20 845.36 L546.62 844.74 L550.15 844.83 L553.45 843.36 L556.66 841.47 L559.96 840.28 L563.46 840.20 L566.98 840.17 L570.22 838.72 L573.75 838.67 L577.17 838.08 L580.67 837.78 L584.07 837.06 L587.49 836.41 L590.62 834.67 L593.86 833.40 L597.15 832.31 L600.54 831.57 L603.41 829.11 L606.68 828.03 L609.80 826.49 L613.08 825.44 L616.37 824.39 L619.69 823.43 L623.19 822.93 L626.35 821.53 L629.25 819.49 L632.15 817.50 L635.42 816.39 L638.77 815.45 L641.80 813.78 L644.72 811.91 L647.71 810.19 L650.62 808.32 L653.11 805.62 L656.50 804.74 L660.14 804.31 L662.59 801.61 L665.13 799.11 L667.96 797.17 L671.73 796.88 L674.32 794.52 L677.33 792.89 L680.22 791.04 L683.12 789.23 L686.22 787.72 L688.93 785.61 L691.49 783.27 L694.28 781.30 L696.71 778.81 L699.76 777.20 L701.86 774.30 L704.91 772.68 L707.70 770.72 L710.39 768.62 L712.79 766.16 L714.87 763.32 L717.76 761.48 L720.53 759.48 L723.37 757.56 L725.54 754.86 L727.37 751.81 L730.16 749.84 L733.06 747.96 L735.46 745.55 L737.99 743.27 L740.13 740.60 L743.02 738.67 L745.22 736.06 L747.45 733.48 L749.63 730.87 L751.74 728.19 L753.85 725.52 L755.80 722.72 L757.40 719.62 L759.57 717.03 L761.73 714.42 L763.93 711.85 L766.00 709.17 L767.77 706.26 L769.60 703.41 L772.03 701.01 L774.88 698.90 L777.56 696.63 L777.85 692.69 L779.13 689.48 L781.58 687.06 L784.48 684.91 L786.47 682.15 L787.08 678.53 L787.43 674.79 L788.01 671.22 L790.49 668.79 L793.66 666.73 L794.37 663.26 L795.22 659.89 L796.02 656.52 L798.18 653.86 L799.39 650.72 L801.02 647.78 L802.21 644.63 L803.33 641.46 L804.15 638.16 L806.20 635.41 L806.87 632.05 L808.87 629.27 L809.94 626.09 L812.31 623.43 L812.76 620.00 L813.80 616.82 L815.35 613.82 L816.78 610.77 L816.88 607.26 L816.61 603.65 L817.19 600.34 L818.35 597.21 L819.89 594.20 L821.16 591.09 L821.44 587.71 L821.07 584.16 L821.93 580.96 L824.81 578.24 L826.64 575.23 L825.83 571.62 L825.59 568.16 L825.84 564.82 L827.83 561.81 L827.08 558.29 L828.27 555.12 L828.51 551.79 L828.81 548.47 L828.94 545.14 L829.89 541.91 L830.39 538.62 L830.45 535.28 L830.39 531.94 L831.08 528.67 L829.88 525.24 L830.85 521.99 L831.89 518.73 L833.10 515.46 L831.63 512.07 L830.91 508.73 L830.51 505.41 L831.44 502.11 L832.00 498.80 L831.46 495.48 L829.65 492.21 L829.52 488.91 L830.22 485.58 L831.47 482.21 L831.54 478.88 L830.14 475.65 L830.21 472.32 L829.99 469.01 L830.01 465.68 L829.30 462.42 L827.86 459.26 L826.30 456.14 L825.66 452.90 L824.37 449.77 L824.00 446.51 L823.16 443.32 L822.53 440.10 L822.32 436.80 L821.38 433.64 L820.21 430.53 L819.76 427.28 L819.85 423.88 L819.70 420.53 L817.07 417.81 L815.88 414.74 L815.40 411.48 L815.25 408.11 L814.92 404.78 L812.84 401.98 L811.14 399.09 L809.46 396.20 L809.49 392.74 L809.84 389.13 L807.18 386.60 L805.11 383.89 L803.10 381.17 L802.67 377.83 L801.00 374.99 L799.47 372.11 L797.76 369.30 L796.03 366.51 L794.31 363.73 L793.00 360.76 L791.22 358.02 L790.65 354.68 L788.61 352.08 L787.78 348.85 L785.74 346.26 L784.37 343.31 L783.23 340.22 L782.11 337.11 L779.64 334.79 L777.24 332.44 L775.16 329.92 L774.32 326.63 L772.86 323.70 L770.65 321.27 L768.17 319.03 L766.33 316.37 L765.10 313.28 L763.74 310.27 L762.44 307.19 L759.46 305.35 L758.07 302.33 L755.79 299.99 L754.50 296.86 L751.18 295.37 L749.24 292.76 L747.05 290.38 L745.05 287.82 L742.22 286.00 L740.24 283.43 L737.95 281.14 L735.83 278.70 L733.43 276.52 L732.10 273.30 L729.20 271.61 L727.70 268.52 L724.90 266.74 L722.91 264.13 L719.36 263.20 L716.49 261.55 L714.38 259.07 L711.93 256.98 L709.65 254.68 L706.61 253.29 L703.05 252.55 L701.01 249.98 L698.91 247.47 L697.42 244.13 L695.04 241.92 L691.85 240.79 L689.20 238.95 L685.93 237.99 L683.51 235.84 L680.87 234.01 L678.26 232.12 L675.08 231.12 L671.40 230.92 L668.69 229.24 L666.37 226.91 L663.67 225.19 L660.54 224.21 L657.74 222.68 L655.57 220.01 L652.47 219.02 L649.64 217.52 L646.86 215.95 L643.94 214.64 L640.42 214.55 L637.62 213.03 L634.71 211.74 L631.92 210.19 L628.84 209.27 L625.85 208.17 L622.67 207.55 L619.86 206.05 L617.30 203.88 L614.86 201.37 L611.38 201.54 L608.41 200.37 L605.04 200.35 L602.21 198.82 L598.80 199.02 L595.77 198.09 L592.61 197.57 L589.35 197.44 L586.14 197.21 L583.38 195.38 L580.36 194.45 L577.64 192.28 L574.34 192.47 L571.49 190.74 L568.29 190.49 L565.40 188.83 L562.36 187.84 L559.08 188.03 L555.69 188.93 L552.36 189.68 L549.29 188.95 L546.09 189.07 L542.91 189.14 L539.79 188.77 L536.67 188.43 L533.45 189.04 L530.34 188.70 L527.35 187.05 L524.40 184.42 L521.19 185.04 L517.98 185.83 L514.82 185.95 L511.72 184.71 L508.56 185.15 L505.39 185.95 L502.24 186.87 L499.11 186.73 L495.99 187.52 L492.84 186.60 L489.73 187.27 L486.61 187.62 L483.47 187.44 L480.27 186.35 L477.19 187.35 L474.08 187.85 L470.92 187.64 L467.71 187.11 L464.75 188.89 L461.77 190.37 L458.70 190.93 L455.52 190.68 L452.48 191.50 L449.48 192.48 L446.62 194.22 L443.71 195.57 L440.64 196.02 L437.29 195.08 L434.33 196.11 L431.40 197.26 L428.60 198.91 L425.53 199.38 L422.58 200.36 L419.64 201.33 L416.62 202.00 L413.77 203.31 L410.96 204.68 L407.66 204.46 L404.71 205.41 L401.46 205.45 L398.83 207.34 L395.73 207.88 L392.68 208.56 L389.83 209.79 L386.96 210.98 L384.26 212.59 L381.83 214.81 L379.50 217.23 L376.65 218.39 L373.42 218.70 L370.66 220.08 L368.05 221.76 L365.18 222.91 L362.39 224.23 L359.46 225.26 L356.40 226.08 L353.43 227.07 L351.34 229.71 L348.74 231.38 L346.30 233.32 L343.07 233.89 L341.17 236.73 L338.62 238.44 L336.13 240.27 L333.08 241.20 L330.63 243.08 L327.96 244.62 L325.50 246.48 L322.75 247.92 L320.28 249.76 L317.27 250.87 L315.49 253.64 L312.59 254.92 L309.80 256.36 L306.83 257.59 L305.50 260.87 L304.22 264.15 L301.91 266.16 L299.06 267.56 L296.63 269.45 L294.45 271.62 L293.25 274.86 L291.63 277.59 L289.90 280.20 L286.58 281.14 L283.79 282.68 L282.23 285.45 L280.58 288.10 L278.93 290.74 L276.69 292.81 L274.72 295.14 L272.64 297.37 L271.04 300.01 L269.75 302.91 L267.80 305.23 L265.41 307.18 L263.12 309.24 L261.21 311.61 L259.59 314.20 L257.15 316.17 L255.43 318.68 L253.04 320.71 L251.26 323.18 L249.92 325.97 L249.53 329.39 L247.51 331.69 L245.84 334.22 L244.12 336.72 L243.30 339.79 L242.00 342.54 L240.36 345.08 L238.95 347.76 L237.09 350.18 L235.73 352.88 L234.86 355.85 L232.61 358.07 L231.75 361.04 L229.82 363.45 L229.83 366.83 L227.20 368.91 L225.38 371.40 L224.77 374.45 L224.09 377.46 L222.05 379.87 L221.12 382.76 L219.74 385.46 L220.10 388.86 L218.13 391.33 L217.68 394.39 L216.39 397.13 L214.79 399.77 L213.62 402.56 L213.84 405.82 L214.30 409.12 L213.57 412.04 L211.94 414.68 L211.26 417.61 L210.41 420.49 L210.75 423.68 L210.73 426.76 L209.17 429.46 L207.89 432.23 L206.45 434.98 L206.92 438.16 L205.16 440.86 L204.88 443.87 L204.54 446.86 L205.35 450.04 L204.86 452.99 L205.07 456.04 L204.27 458.94 L205.19 462.07 L204.13 464.94 L204.08 467.93 L203.41 470.85 L203.27 473.83 L202.54 476.76 L202.62 479.76 L201.01 482.65 L201.30 485.66 L201.52 488.66 L203.33 491.70 L203.13 494.67 L202.18 497.63 L202.59 500.61 L203.31 503.57 L203.87 506.53 L204.14 509.48 L203.78 512.46 L204.13 515.41 L203.75 518.40 L204.74 521.31 L205.30 524.23 L205.46 527.19 L205.94 530.11 L206.93 532.97 L207.18 535.91 L206.96 538.92 L207.37 541.85 L208.88 544.61 L209.70 547.45 L210.45 550.31 L210.20 553.34 L211.10 556.17 L211.64 559.07 L212.38 561.92 L214.15 564.53 L214.32 567.50 L214.60 570.46 L215.41 573.28 L217.05 575.89 L218.67 578.48 L218.69 581.51 L219.31 584.38 L220.42 587.11 L221.59 589.81 L222.89 592.46 L223.10 595.48 L223.41 598.47 L223.32 601.64 L225.49 603.96 L227.07 606.50 L228.78 608.97 L228.98 612.05 L230.85 614.44 L232.20 617.04 L233.93 619.47 L235.30 622.05 L236.91 624.51 L237.57 627.43 L238.54 630.21 L239.37 633.06 L241.57 635.21 L241.97 638.31 L244.10 640.48 L245.13 643.25 L247.15 645.46 L248.83 647.85 L251.50 649.65 L253.95 651.54 L255.52 653.97 L257.27 656.28 L258.11 659.18 L259.27 661.89 L261.66 663.77 L263.31 666.15 L264.87 668.58 L265.58 671.65 L266.94 674.26 L269.37 676.07 L271.10 678.40 L273.61 680.11 L275.60 682.22 L278.01 683.98 L279.97 686.10 L281.64 688.46 L284.34 689.93 L286.11 692.20 L287.95 694.41 L289.89 696.53 L291.61 698.88 L293.67 700.89 L295.04 703.58 L297.61 705.09 L299.06 707.75 L301.01 709.88 L303.34 711.62 L306.45 712.50 L308.81 714.18 L310.53 716.57 L312.41 718.79 L315.25 719.89 L317.85 721.26 L320.66 722.33 L323.40 723.48 L325.13 725.89 L326.66 728.61 L329.24 729.94 L332.17 730.79 L335.07 731.64 L337.11 733.67 L339.56 735.13 L342.00 736.61 L344.63 737.78 L347.36 738.79 L349.66 740.46 L351.65 742.64 L354.25 743.84 L356.43 745.73 L359.26 746.51 L360.99 749.24 L363.40 750.78 L366.04 751.90 L368.71 752.95 L371.54 753.67 L374.34 754.42 L377.25 754.93 L379.90 755.93 L382.35 757.37 L385.09 758.17 L387.89 758.83 L390.71 759.40 L393.23 760.66 L395.69 762.10 L398.13 763.62 L400.23 766.06 L403.25 766.07 L405.93 766.99 L408.79 767.36 L411.44 768.35 L414.06 769.45 L416.55 770.96 L419.47 771.07 L422.61 770.41 L425.45 770.66 L427.74 772.98 L430.42 773.92 L433.12 774.78 L436.13 774.31 L438.89 774.89 L441.72 775.10 L444.50 775.54 L447.23 776.25 L450.16 775.84 L452.93 776.25 L455.77 776.28 L458.51 776.82 L461.31 777.07 L464.22 776.32 L466.86 777.76 L469.75 777.08 L472.60 776.50 L475.37 776.78 L478.02 778.46 L480.84 778.27 L483.58 779.06 L486.40 778.77 L489.15 779.79 L491.98 778.81 L494.74 780.35 L497.55 779.62 L500.35 779.27 L503.14 778.91 L505.90 777.88 L508.65 776.86 L511.40 776.37 L514.24 777.71 L516.99 777.09 L519.72 776.34 L522.41 775.28 L525.15 774.90 L527.84 774.10 L530.71 774.89 L533.37 773.85 L536.00 772.74 L538.68 772.03 L541.33 771.20 L544.13 771.34 L546.76 770.41 L549.65 770.94 L552.18 769.52 L555.09 770.03 L557.78 769.44 L560.44 768.73 L562.82 766.79 L565.83 767.58 L568.54 767.06 L571.45 767.24 L573.77 765.28 L576.42 764.53 L578.71 762.58 L581.42 762.04 L584.47 762.58 L586.94 761.27 L589.36 759.85 L591.71 758.25 L594.27 757.25 L597.03 756.82 L599.55 755.71 L602.29 755.19 L604.30 752.84 L606.51 751.04 L608.84 749.56 L611.32 748.45 L613.63 746.94 L616.04 745.69 L617.97 743.44 L620.36 742.17 L622.42 740.27 L625.16 739.68 L627.45 738.23 L629.50 736.35 L632.09 735.46 L634.19 733.70 L636.42 732.17 L639.05 731.33 L641.18 729.63 L643.74 728.64 L645.59 726.52 L648.70 726.35 L650.71 724.49 L652.31 722.04 L654.10 719.91 L656.55 718.71 L658.82 717.26 L661.40 716.21 L662.84 713.66 L664.91 711.94 L666.50 709.62 L669.18 708.68 L671.19 706.89 L672.76 704.59 L674.54 702.55 L676.19 700.38 L678.22 698.65 L680.74 697.45 L682.18 695.07 L684.23 693.36 L685.79 691.13 L688.92 690.50 L690.49 688.27 L691.57 685.60 L693.37 683.63 L695.47 681.94 L696.98 679.70 L699.11 678.02 L700.30 675.52 L702.16 673.61 L703.19 670.99 L705.95 669.82 L707.44 667.59 L708.30 664.87 L709.56 662.49 L711.30 660.48 L712.34 657.95 L714.13 655.98 L715.01 653.35 L716.84 651.41 L717.67 648.77 L719.59 646.89 L720.95 644.62 L721.92 642.11 L723.85 640.21 L725.22 637.94 L726.13 635.41 L727.45 633.13 L728.47 630.68 L731.10 629.13 L731.74 626.46 L732.80 624.04 L733.44 621.40 L734.67 619.07 L736.30 616.94 L737.14 614.42 L737.78 611.81 L739.37 609.65 L740.00 607.05 L742.21 605.14 L742.37 602.34 L744.41 600.34 L744.83 597.66 L745.51 595.10 L745.95 592.45 L746.83 589.97 L747.31 587.36 L748.62 585.03 L748.37 582.19 L749.24 579.72 L749.19 576.96 L751.54 574.94 L751.90 572.31 L751.71 569.54 L752.44 567.04 L753.16 564.52 L753.09 561.82 L753.63 559.27 L753.57 556.59 L755.34 554.31 L755.18 551.61 L755.85 549.09 L755.71 546.41 L756.06 543.84 L757.22 541.39 L757.35 538.78 L756.84 536.08 L757.20 533.51 L757.06 530.88 L758.95 528.48 L758.29 525.80 L758.33 523.20 L758.03 520.57 L758.25 517.99 L758.46 515.41 L758.16 512.80 L757.52 510.19 L757.86 507.62 L757.00 505.03 L757.81 502.46 L757.16 499.89 L757.62 497.31 L757.36 494.74 L756.81 492.18 L756.64 489.61 L756.44 487.05 L756.50 484.48 L757.21 481.85 L756.01 479.36 L755.91 476.79 L754.95 474.30 L756.72 471.53 L756.07 469.01 L754.58 466.60 L754.19 464.06 L754.10 461.48 L752.99 459.06 L752.71 456.51 L751.49 454.12 L752.46 451.33 L751.09 448.99 L751.24 446.33 L750.01 443.98 L749.10 441.56 L748.93 438.97 L748.34 436.47 L747.12 434.14 L746.96 431.53 L745.46 429.30 L745.93 426.49 L743.97 424.41 L743.74 421.81 L742.30 419.58 L741.28 417.24 L740.19 414.92 L738.60 412.78 L737.27 410.57 L737.03 407.94 L735.42 405.85 L735.49 403.08 L733.65 401.09 L734.30 398.04 L732.68 395.97 L731.14 393.87 L729.51 391.83 L728.38 389.55 L726.67 387.57 L725.86 385.14 L723.62 383.46 L723.41 380.71 L721.33 378.96 L720.62 376.46 L719.14 374.40 L717.82 372.24 L716.51 370.09 L714.66 368.26 L712.63 366.56 L711.47 364.32 L709.22 362.79 L708.66 360.16 L706.71 358.45 L706.35 355.64 L704.41 353.93 L702.30 352.36 L701.21 350.05 L700.09 347.75 L698.10 346.11 L696.43 344.24 L694.20 342.82 L693.97 339.77 L691.79 338.31 L690.14 336.42 L687.88 335.07 L686.14 333.27 L684.94 330.98 L683.05 329.32 L680.81 328.00 L679.54 325.75 L676.97 324.78 L676.46 321.75 L673.99 320.69 L673.06 318.04 L670.72 316.87 L668.46 315.64 L666.66 313.91 L664.66 312.40 L662.33 311.27 L660.75 309.28 L658.15 308.52 L657.04 305.94 L654.25 305.45 L653.32 302.59 L650.80 301.77 L648.47 300.74 L646.44 299.30 L644.39 297.90 L642.01 296.96 L640.13 295.32 L637.36 295.01 L635.53 293.30 L632.96 292.72 L631.79 289.95 L629.55 288.86 L626.82 288.61 L624.29 288.04 L622.25 286.67 L619.78 286.03 L617.86 284.44 L615.16 284.27 L613.64 281.90 L611.09 281.50 L608.88 280.44 L606.55 279.63 L604.38 278.49 L602.43 276.87 L600.01 276.27 L597.46 275.99 L595.50 274.35 L592.86 274.31 L591.27 271.71 L588.59 271.84 L586.46 270.55 L583.93 270.34 L581.56 269.69 L579.40 268.46 L576.88 268.28 L574.18 268.71 L571.84 268.06 L569.22 268.35 L567.27 266.39 L564.71 266.51 L562.42 265.70 L560.03 265.25 L557.55 265.20 L555.32 264.12 L552.94 263.64 L550.46 263.68 L548.35 261.93 L545.77 262.46 L543.70 260.32 L541.09 261.15 L538.76 260.34 L536.29 260.44 L533.85 260.41 L531.49 259.77 L529.01 260.08 L526.51 260.75 L524.19 259.77 L521.68 260.69 L519.37 259.42 L516.89 260.35 L514.53 259.61 L512.11 259.61 L509.69 260.12 L507.26 260.85 L504.85 261.73 L502.46 262.32 L500.08 262.12 L497.71 262.71 L495.35 263.12 L492.98 263.31 L490.63 263.80 L488.23 263.15 L485.89 263.64 L483.53 263.97 L481.18 264.15 L478.86 264.80 L476.44 264.31 L474.16 265.25 L471.83 265.67 L469.48 265.92 L467.22 266.78 L464.82 266.69 L462.59 267.68 L460.28 268.10 L457.98 268.60 L455.79 269.68 L453.38 269.62 L451.19 270.60 L448.92 271.22 L446.66 271.84 L444.51 272.88 L442.11 272.97 L439.96 273.97 L437.72 274.66 L435.53 275.50 L433.39 276.51 L430.98 276.59 L428.82 277.52 L426.70 278.54 L424.49 279.30 L422.37 280.31 L419.94 280.43 L417.90 281.66 L415.84 282.80 L413.63 283.54 L411.68 284.91 L409.24 285.12 L407.37 286.68 L405.26 287.66 L403.19 288.71 L401.28 290.11 L398.92 290.55 L397.07 292.07 L394.99 293.10 L392.99 294.27 L391.12 295.69 L388.88 296.43 L387.11 298.01 L385.19 299.32 L383.24 300.56 L381.29 301.81 L379.17 302.76 L377.49 304.44 L375.65 305.85 L373.71 307.10 L371.91 308.54 L369.74 309.45 L368.05 311.07 L366.48 312.83 L364.56 314.10 L363.04 315.92 L360.80 316.75 L359.23 318.48 L357.51 320.02 L355.80 321.56 L354.30 323.34 L352.03 324.20 L350.67 326.15 L349.03 327.75 L347.31 329.26 L345.82 331.03 L343.87 332.29 L342.68 334.36 L341.08 335.99 L339.45 337.60 L338.15 339.52 L336.33 340.93 L335.12 342.92 L333.71 344.73 L332.21 346.43 L331.08 348.48 L329.72 350.30 L329.16 352.82 L327.86 354.67 L326.70 356.63 L325.75 358.76 L325.02 361.04 L324.13 363.18 L322.95 365.09 L321.54 366.81 L320.54 368.84 L319.37 370.73 L318.08 372.54 L316.73 374.31 L315.79 376.36 L314.68 378.28 L313.42 380.10 L312.39 382.08 L311.44 384.09 L310.23 385.95 L309.08 387.84 L308.23 389.91 L307.28 391.91 L306.20 393.84 L305.32 395.87 L304.47 397.92 L303.39 399.85 L302.45 401.84 L301.81 403.98 L300.71 405.90 L300.06 408.02 L299.34 410.11 L298.60 412.19 L297.41 414.07 L296.74 416.18 L296.37 418.39 L295.76 420.51 L294.89 422.53 L294.41 424.69 L293.96 426.85 L293.11 428.87 L292.54 430.99 L291.98 433.10 L291.52 435.25 L291.00 437.37 L290.47 439.49 L289.95 441.61 L289.36 443.71 L288.87 445.83 L288.68 448.03 L288.26 450.16 L287.83 452.30 L287.38 454.43 L287.19 456.61 L286.80 458.74 L286.37 460.87 L286.16 463.04 L286.13 465.23 L285.74 467.37 L285.21 469.48 L285.21 471.67 L285.20 473.85 L284.92 476.00 L284.72 478.15 L284.78 480.33 L284.71 482.49 L284.46 484.64 L284.57 486.81 L284.61 488.97 L284.51 491.13 L284.53 493.29 L284.84 495.45 L284.81 497.60 L284.62 499.75 L283.77 501.91 L283.31 504.09 L283.13 506.26 L282.79 508.44 L282.36 510.64 L281.72 512.86 L281.12 515.09 L281.05 517.30 L281.04 519.51 L281.18 521.70 L281.28 523.90 L281.58 526.08 L282.13 528.23 L282.57 530.39 L282.85 532.56 L283.47 534.69 L284.37 536.76 L285.87 538.71 L286.59 540.79 L286.90 542.94 L287.24 545.09 L288.23 547.10 L289.33 549.07 L290.11 551.11 L290.44 553.25 L290.63 555.44 L290.99 557.59 L291.96 559.57 L292.56 561.64 L293.22 563.70 L293.71 565.82 L294.62 567.80 L295.45 569.80 L296.19 571.83 L297.23 573.75 L298.54 575.56 L299.67 577.44 L300.58 579.38 L301.34 581.39 L302.36 583.29 L303.23 585.25 L304.16 587.19 L304.74 589.28 L305.11 591.48 L305.83 593.52 L307.06 595.32 L308.58 596.96 L309.41 598.94 L310.19 600.96 L311.51 602.69 L313.39 604.10 L315.11 605.58 L316.28 607.36 L317.34 609.21 L318.40 611.05 L319.69 612.76 L320.96 614.47 L322.05 616.29 L323.30 618.02 L324.53 619.75 L325.63 621.57 L326.62 623.48 L327.78 625.27 L328.96 627.04 L330.36 628.65 L331.96 630.11 L333.54 631.57 L334.60 633.43 L336.20 634.88 L337.78 636.31 L339.66 637.50 L341.02 639.11 L342.73 640.42 L344.46 641.70 L345.59 643.51 L346.68 645.39 L348.20 646.86 L350.09 647.96 L351.63 649.40 L352.87 651.14 L354.37 652.62 L356.34 653.61 L357.98 654.94 L359.28 656.63 L360.76 658.13 L362.75 659.05 L365.04 659.59 L366.62 660.97 L368.12 662.44 L369.60 663.94 L371.59 664.80 L373.37 665.90 L375.16 667.00 L376.83 668.24 L378.20 669.91 L379.69 671.43 L381.44 672.57 L383.22 673.68 L384.97 674.83 L386.68 676.05 L388.47 677.13 L390.41 677.97 L392.32 678.85 L394.42 679.39 L396.28 680.33 L397.99 681.53 L399.72 682.72 L401.77 683.31 L403.75 684.01 L405.59 684.97 L407.33 686.14 L408.93 687.60 L410.80 688.51 L412.83 689.11 L414.83 689.73 L416.77 690.47 L418.72 691.22 L420.73 691.77 L422.80 692.19 L424.89 692.55 L427.11 692.50 L429.07 693.14 L431.06 693.69 L433.14 693.95 L435.24 694.15 L437.33 694.34 L439.35 694.72 L441.32 695.26 L443.23 696.00 L445.29 696.19 L447.43 696.06 L449.29 697.01 L451.16 697.90 L453.19 698.20 L455.20 698.52 L457.15 699.13 L459.13 699.63 L461.17 699.79 L463.16 700.26 L465.14 700.73 L467.18 700.90 L469.25 700.83 L471.30 700.83 L473.36 700.74 L475.34 701.23 L477.32 701.77 L479.34 702.00 L481.40 701.70 L483.42 701.83 L485.45 701.89 L487.46 702.16 L489.49 702.12 L491.53 701.86 L493.56 701.47 L495.59 701.11 L497.60 700.77 L499.61 700.35 L501.61 700.18 L503.62 700.23 L505.61 699.98 L507.61 699.87 L509.62 700.09 L511.62 699.99 L513.60 699.56 L515.60 699.46 L517.63 699.72 L519.68 700.07 L521.65 699.56 L523.65 699.42 L525.64 699.15 L527.65 699.01 L529.67 698.94 L531.64 698.49 L533.59 697.98 L535.57 697.65 L537.50 697.04 L539.37 696.15 L541.23 695.29 L543.21 695.03 L545.18 694.66 L547.11 694.14 L548.95 693.28 L550.85 692.67 L552.79 692.20 L554.78 691.91 L556.72 691.44 L558.59 690.72 L560.48 690.09 L562.26 689.11 L563.98 687.99 L565.82 687.23 L567.69 686.57 L569.51 685.76 L571.12 684.43 L572.95 683.67 L574.77 682.90 L576.57 682.09 L578.43 681.41 L580.21 680.55 L581.97 679.66 L583.76 678.82 L585.62 678.13 L587.34 677.15 L589.06 676.17 L590.87 675.37 L592.74 674.68 L594.39 673.58 L596.05 672.49 L597.61 671.25 L599.20 670.07 L600.86 669.00 L602.59 668.07 L604.18 666.90 L605.57 665.41 L606.80 663.70 L608.28 662.41 L610.02 661.49 L611.85 660.70 L613.29 659.35 L614.42 657.57 L615.63 655.93 L617.37 655.02 L619.16 654.15 L620.74 653.01 L621.98 651.44 L623.38 650.09 L624.92 648.90 L626.50 647.75 L628.02 646.54 L629.34 645.09 L630.63 643.62 L632.14 642.40 L633.26 640.75 L634.44 639.18 L635.64 637.65 L636.95 636.22 L638.02 634.57 L639.01 632.85 L640.13 631.27 L641.18 629.62 L642.34 628.09 L643.72 626.75 L645.06 625.37 L646.21 623.84 L647.24 622.20 L648.22 620.54 L649.06 618.76 L650.28 617.30 L651.90 616.13 L653.25 614.75 L653.78 612.77 L654.54 610.97 L655.50 609.32 L656.80 607.90 L658.36 606.66 L659.58 605.18 L660.25 603.34 L661.18 601.67 L662.44 600.21 L663.43 598.57 L663.93 596.65 L665.00 595.07 L665.94 593.42 L666.50 591.55 L666.85 589.58 L667.50 587.79 L667.94 585.89 L668.37 584.00 L669.25 582.33 L669.87 580.54 L670.24 578.64 L671.09 576.97 L671.76 575.21 L672.17 573.35 L673.00 571.67 L673.90 570.01 L674.48 568.23 L675.12 566.46 L675.96 564.78 L676.65 563.03 L677.37 561.30 L678.02 559.54 L678.64 557.76 L678.74 555.83 L679.08 553.97 L679.46 552.14 L679.61 550.24 L679.87 548.38 L679.85 546.45 L679.95 544.56 L680.00 542.67 L680.83 540.96 L681.58 539.22 L681.74 537.36 L681.69 535.46 L681.76 533.59 L682.19 531.79 L682.86 530.02 L683.08 528.18 L682.80 526.27 L682.86 524.42 L683.16 522.59 L683.51 520.78 L683.54 518.92 L683.89 517.10 L684.17 515.27 L684.08 513.41 L683.81 511.55 L683.59 509.69 L683.60 507.85 L683.58 506.01 L683.35 504.17 L682.84 502.33 L682.47 500.50 L682.98 498.67 L683.32 496.84 L682.90 495.01 L682.55 493.20 L682.53 491.37 L682.69 489.53 L682.60 487.70 L682.52 485.87 L682.18 484.06 L681.64 482.28 L681.17 480.49 L681.25 478.65 L681.19 476.82 L680.77 475.03 L680.05 473.29 L679.15 471.59 L678.76 469.82 L678.88 467.96 L678.68 466.14 L677.58 464.51 L677.35 462.71 L677.14 460.90 L676.81 459.11 L675.89 457.47 L675.56 455.68 L675.22 453.90 L674.79 452.14 L673.92 450.50 L672.88 448.93 L671.67 447.41 L671.28 445.65 L671.14 443.81 L670.65 442.07 L669.37 440.61 L668.57 438.99 L668.17 437.23 L667.74 435.47 L666.92 433.86 L665.98 432.30 L665.23 430.68 L664.84 428.89 L663.96 427.32 L662.69 425.93 L661.39 424.56 L660.61 422.96 L659.77 421.39 L658.67 419.95 L657.63 418.48 L656.70 416.97 L655.87 415.40 L655.03 413.84 L654.35 412.19 L653.48 410.64 L652.63 409.08 L651.60 407.62 L649.75 406.69 L648.20 405.58 L647.12 404.19 L645.66 403.05 L643.63 402.31 L641.60 401.61 L639.88 400.72 L638.40 399.67 L638.07 397.79 L637.46 396.10 L636.51 394.66 L635.10 393.57 L634.33 391.98 L633.96 390.06 L633.33 388.32 L632.38 386.84 L630.88 385.84 L629.39 384.85 L628.56 383.26 L627.79 381.60 L627.21 379.75 L625.87 378.62 L624.52 377.49 L623.37 376.17 L622.31 374.76 L621.51 373.05 L620.28 371.80 L619.06 370.53 L617.15 370.02 L615.36 369.41 L613.50 368.89 L612.82 367.01 L611.58 365.78 L610.47 364.38 L608.74 363.74 L606.87 363.29 L605.32 362.48 L604.56 360.60 L603.65 358.90 L602.20 357.91 L600.41 357.41 L598.50 357.11 L596.69 356.68 L594.98 356.14 L593.99 354.49 L592.46 353.67 L590.84 353.00 L588.88 352.91 L587.02 352.68 L585.45 351.98 L584.24 350.64 L583.14 349.09 L581.65 348.21 L579.87 347.89 L577.80 348.17 L576.23 347.49 L574.85 346.45 L573.71 344.85 L572.01 344.44 L570.47 343.68 L568.66 343.54 L566.95 343.19 L565.16 343.07 L563.94 341.54 L562.46 340.63 L560.94 339.82 L559.12 339.81 L557.17 340.19 L555.33 340.32 L553.83 339.48 L552.47 338.17 L550.74 338.00 L548.94 338.10 L547.08 338.41 L545.41 338.16 L543.73 337.94 L542.35 336.54 L540.74 336.02 L539.17 335.32 L537.45 335.26 L535.67 335.51 L533.94 335.56 L532.41 334.62 L530.92 333.45 L529.25 333.17 L527.54 333.12 L525.73 333.72 L524.05 333.63 L522.38 333.43 L520.85 332.12 L519.15 332.09 L517.47 331.90 L515.72 332.43 L513.98 333.08 L512.28 333.28 L510.66 332.38 L509.00 332.01 L507.30 332.47 L505.61 332.87 L503.93 333.27 L502.26 333.22 L500.59 333.29 L498.92 332.83 L497.25 333.20 L495.59 333.37 L493.94 333.80 L492.28 334.01 L490.66 334.67 L489.01 334.88 L487.36 335.01 L485.66 334.58 L484.02 334.86 L482.47 336.01 L480.94 337.04 L479.31 337.25 L477.55 336.51 L475.88 336.53 L474.24 336.73 L472.79 338.04 L471.25 338.77 L469.70 339.39 L467.86 338.52 L466.24 338.81 L464.57 338.86 L463.03 339.57 L461.61 340.69 L460.11 341.46 L458.48 341.67 L456.80 341.73 L455.19 342.08 L453.59 342.46 L452.30 343.86 L450.99 345.10 L449.61 346.13 L447.64 345.37 L446.07 345.80 L444.58 346.48 L443.24 347.57 L441.85 348.50 L440.54 349.60 L439.00 350.10 L437.38 350.43 L435.67 350.54 L434.28 351.43 L433.34 353.28 L432.15 354.54 L430.78 355.40 L428.83 355.07 L427.46 355.93 L426.10 356.81 L425.11 358.39 L423.84 359.41 L422.57 360.41 L420.84 360.61 L419.43 361.37 L418.07 362.21 L416.83 363.27 L415.81 364.65 L414.65 365.80 L413.33 366.69 L411.63 367.01 L410.32 367.92 L408.91 368.69 L407.99 370.15 L407.11 371.65 L406.21 373.10 L404.07 372.88 L402.78 373.81 L401.45 374.70 L400.71 376.32 L399.90 377.84 L398.77 378.95 L397.10 379.42 L395.30 379.77 L394.37 381.12 L393.55 382.58 L392.78 384.09 L391.69 385.23 L390.80 386.58 L389.37 387.38 L388.41 388.65 L386.92 389.40 L386.18 390.88 L385.70 392.59 L385.10 394.17 L383.54 394.87 L381.97 395.57 L380.78 396.62 L380.01 398.04 L379.80 399.91 L379.26 401.50 L378.53 402.91 L376.58 403.35 L375.63 404.60 L374.73 405.89 L374.73 407.83 L374.31 409.44 L373.72 410.93 L372.10 411.69 L370.94 412.77 L369.90 413.95 L369.44 415.52 L369.01 417.08 L368.49 418.58 L367.62 419.87 L366.14 420.79 L365.43 422.17 L364.69 423.54 L364.83 425.39 L364.53 426.99 L364.66 428.79 L363.32 429.83 L362.62 431.19 L361.45 432.33 L361.20 433.92 L361.29 435.65 L360.89 437.15 L359.62 438.26 L358.13 439.29 L357.16 440.56 L356.74 442.06 L357.13 443.87 L356.98 445.46 L356.70 446.99 L355.27 448.10 L355.16 449.68 L354.45 451.06 L354.59 452.72 L355.08 454.48 L355.48 456.19 L354.38 457.44 L353.70 458.83 L353.55 460.36 L353.81 462.00 L354.40 463.70 L354.25 465.21 L354.27 466.75 L353.20 468.05 L352.77 469.49 L351.83 470.84 L352.06 472.42 L352.59 474.04 L352.65 475.57 L351.30 476.87 L350.73 478.30 L350.70 479.82 L351.14 481.40 L351.79 482.98 L351.67 484.47 L351.31 485.93 L350.58 487.37 L350.68 488.88 L350.32 490.36 L350.86 491.89 L351.38 493.41 L352.00 494.92 L350.62 496.36 L350.48 497.86 L350.72 499.35 L351.55 500.84 L352.76 502.31 L353.14 503.77 L352.50 505.26 L351.77 506.77 L352.13 508.24 L352.57 509.69 L353.32 511.12 L353.84 512.55 L354.34 513.98 L353.10 515.58 L353.15 517.06 L352.98 518.57 L354.10 519.92 L354.93 521.28 L355.35 522.70 L354.54 524.32 L354.08 525.90 L354.28 527.37 L354.93 528.75 L356.03 530.03 L356.10 531.53 L356.56 532.93 L356.27 534.51 L357.06 535.84 L357.46 537.26 L358.55 538.49 L359.61 539.71 L360.40 541.00 L360.44 542.51 L361.16 543.81 L361.42 545.26 L361.82 546.66 L362.67 547.91 L363.84 549.04 L364.51 550.33 L364.08 552.04 L364.53 553.43 L365.04 554.80 L366.34 555.83 L367.39 556.96 L368.66 557.97 L368.37 559.68 L368.55 561.19 L369.01 562.58 L370.31 563.55 L371.30 564.67 L372.08 565.89 L372.48 567.31 L373.14 568.59 L373.62 569.97 L374.47 571.16 L376.07 571.89 L377.19 572.89 L378.37 573.85 L378.75 575.29 L379.63 576.42 L379.67 578.09 L380.94 578.97 L382.67 579.52 L383.80 580.47 L383.73 582.25 L384.39 583.53 L385.07 584.80 L385.88 585.98 L387.50 586.53 L389.04 587.13 L390.11 588.08 L390.07 589.93 L390.90 591.08 L392.12 591.92 L393.70 592.42 L395.15 593.02 L396.39 593.79 L396.63 595.47 L397.23 596.83 L398.16 597.89 L399.74 598.33 L401.07 598.99 L402.12 599.91 L403.15 600.85 L403.83 602.17 L404.62 603.39 L405.69 604.30 L407.47 604.41 L408.85 604.95 L409.93 605.82 L410.49 607.33 L411.72 608.03 L412.58 609.18 L413.95 609.70 L415.72 609.69 L417.22 610.00 L417.77 611.57 L418.70 612.65 L420.14 613.02 L421.40 613.64 L422.75 614.10 L424.09 614.58 L425.51 614.91 L426.07 616.59 L427.27 617.28 L428.37 618.12 L429.69 618.61 L431.05 619.00 L432.61 619.05 L433.68 619.93 L434.64 621.04 L435.87 621.66 L437.48 621.54 L439.00 621.55 L440.27 622.04 L441.53 622.56 L442.63 623.43 L443.74 624.26 L444.94 624.92 L446.48 624.79 L447.88 624.96 L449.21 625.30 L450.21 626.43 L451.51 626.85 L452.64 627.70 L454.05 627.80 L455.52 627.72 L456.89 627.89 L458.07 628.61 L459.15 629.68 L460.46 630.05 L461.72 630.59 L463.31 629.97 L464.87 629.37 L466.35 629.02 L467.32 630.63 L468.60 631.06 L469.95 631.20 L471.47 630.54 L472.90 630.23 L474.25 630.28 L475.44 631.13 L476.66 631.91 L477.95 632.30 L479.32 632.22 L480.75 631.70 L482.09 631.71 L483.47 631.37 L484.68 632.44 L485.98 632.89 L487.29 633.25 L488.70 632.40 L490.06 632.03 L491.39 631.97 L492.68 632.57 L494.02 632.31 L495.33 632.98 L496.66 633.05 L498.00 631.99 L499.33 631.33 L500.64 631.49 L501.97 632.42 L503.29 632.16 L504.61 632.04 L505.90 631.48 L507.17 630.54 L508.44 629.86 L509.81 630.80 L511.12 630.67 L512.38 630.14 L513.61 629.34 L514.85 628.74 L516.09 628.21 L517.37 628.03 L518.71 628.24 L519.97 627.91 L521.17 627.27 L522.35 626.53 L523.59 626.17 L524.78 625.56 L526.17 625.94 L527.40 625.56 L528.81 625.97 L529.95 625.17 L531.09 624.42 L532.21 623.63 L533.61 623.92 L534.89 623.73 L536.18 623.56 L537.55 623.62 L538.32 621.78 L539.35 620.82 L540.45 620.10 L541.90 620.41 L542.92 619.47 L543.69 617.90 L544.69 616.98 L545.61 615.92 L546.57 614.98 L547.73 614.53 L548.95 614.23 L549.97 613.46 L551.00 612.72 L552.13 612.21 L553.14 611.47 L554.19 610.80 L555.28 610.23 L556.29 609.49 L557.27 608.70 L558.45 608.31 L559.62 607.88 L560.63 607.17 L561.85 606.81 L563.20 606.67 L564.30 606.10 L565.26 605.29 L566.64 605.15 L567.60 604.35 L568.23 603.04 L569.21 602.29 L570.39 601.82 L571.45 601.17 L572.16 600.04 L573.13 599.28 L573.97 598.34 L574.94 597.59 L576.12 597.10 L577.09 596.33 L577.93 595.41 L578.61 594.31 L579.36 593.29 L580.20 592.39 L581.01 591.46 L581.91 590.64 L582.64 589.62 L583.34 588.59 L584.35 587.89 L585.24 587.05 L585.91 586.00 L586.80 585.17 L587.66 584.31 L588.22 583.17 L588.89 582.14 L589.59 581.14 L590.06 579.94 L590.66 578.87 L591.69 578.16 L592.34 577.14 L592.63 575.82 L592.31 574.03 L592.85 572.95 L593.08 571.63 L593.03 570.13 L592.77 568.49 L592.32 566.74 L592.04 565.14 L591.94 563.70 L592.01 562.40 L592.24 561.22 L592.58 560.12 L593.00 559.08 L593.45 558.06 L593.92 557.06 L594.38 556.05 L594.84 555.05 L595.28 554.04 L595.72 553.03 L596.14 552.01 L596.55 551.00 L596.96 549.98 L597.35 548.95 L597.73 547.93 L598.10 546.90 L598.46 545.86 L598.81 544.83 L599.15 543.79 L599.47 542.75 L599.79 541.71 L600.10 540.67 L600.39 539.62 L600.67 538.58 L600.94 537.53 L601.21 536.48 L601.46 535.43 L601.70 534.37 L601.93 533.32 L602.15 532.26 L602.35 531.21 L602.55 530.15 L602.74 529.09 L602.91 528.03 L603.08 526.97 L603.23 525.91 L603.37 524.85 L603.50 523.79 L603.62 522.73 L603.73 521.67 L603.83 520.61 L603.92 519.55 L604.00 518.49 L604.06 517.43 L604.12 516.37 L604.16 515.31 L604.20 514.25 L604.22 513.19 L604.23 512.14 L604.23 511.08 L604.22 510.03 L604.20 508.98 L604.17 507.92 L604.13 506.87 L604.03 505.82 L603.92 504.78 L603.81 503.73 L603.71 502.69 L603.58 501.65 L603.41 500.61 Z"/>
  <svg class="pausebutton" id="pausebutton">
    <circle cx="500" cy="500" id="pausestart" class="pausestart" r="52.65"/>
    <rect height="50.02" width="10.00" y="473.68" rx="2.00" ry="2.00" x="479.99" class="pausesymbol"/>
    <rect height="50.02" width="10.00" y="473.68" rx="2.00" ry="2.00" x="510.00" class="pausesymbol"/>
    <polygon points="530.01,500 479.99,530.01 479.99,469.99" class="playsymbol"/>
  </svg>
  <polygon id="playback-head" class="playback-head" points="964.99,500 944.99,540 984.99,540"/>
</svg>