<?xml-stylesheet href="../../style/waveformjs.css" type="text/css"?>
<svg xmlns="http://www.w3.org/2000/svg" xmlns:xlink="http://www.w3.org/1999/xlink" width="100%" height="100%" viewBox="0 0 1000 1000">
  <path class="svg-wave" id="sp" d="M598.02 500.00 L598.20 500.98 L598.37 501.97 L598.53 502.96 L598.67 503.95 L598.81 504.94 L598.92 505.94 L598.97 506.94 L599.01 507.94 L599.10 508.94 L599.11 509.94 L599.12 510.95 L599.21 511.96 L599.23 512.97 L599.25 513.99 L599.29 515.01 L599.30 516.03 L599.30 517.05 L599.29 518.07 L599.23 519.08 L599.15 520.10 L599.08 521.12 L598.95 522.13 L598.81 523.13 L598.66 524.14 L598.49 525.15 L598.28 526.14 L598.08 527.14 L597.79 528.12 L597.49 529.09 L597.21 530.07 L596.81 531.01 L596.47 531.97 L596.01 532.88 L595.44 533.76 L595.23 534.76 L594.48 535.56 L593.63 536.32 L593.37 537.29 L592.42 537.99 L591.38 538.63 L590.88 539.50 L589.49 539.96 L587.80 540.27 L587.27 541.08 L584.85 540.99 L580.71 539.99 L579.07 540.17 L575.99 539.56 L571.51 538.14 L574.05 540.45 L577.85 543.55 L577.09 544.14 L580.01 546.88 L581.56 548.89 L576.34 546.80 L574.47 546.69 L574.79 547.94 L572.20 547.30 L575.92 550.84 L580.73 555.23 L580.96 556.59 L585.88 561.31 L585.77 562.54 L586.26 564.22 L587.46 566.49 L586.89 567.44 L586.29 568.37 L585.73 569.32 L585.15 570.27 L584.49 571.17 L583.90 572.11 L583.32 573.08 L582.68 573.99 L582.06 574.93 L581.45 575.88 L580.81 576.81 L580.15 577.71 L579.48 578.63 L578.81 579.54 L578.07 580.38 L577.35 581.26 L576.66 582.15 L575.84 582.93 L575.06 583.74 L574.36 584.64 L573.45 585.31 L572.55 586.00 L571.83 586.89 L570.86 587.48 L569.80 587.97 L569.10 588.89 L568.09 589.41 L566.81 589.58 L566.07 590.47 L565.05 590.97 L563.47 590.66 L562.63 591.39 L561.67 591.94 L559.70 590.96 L558.57 591.21 L557.73 591.92 L555.55 590.44 L553.58 589.23 L551.73 588.12 L548.79 585.05 L548.32 586.22 L546.97 585.82 L544.41 583.10 L545.49 587.22 L545.00 588.42 L546.09 592.83 L545.55 594.10 L545.07 595.53 L546.79 601.81 L545.60 601.90 L544.51 602.19 L543.53 602.72 L542.12 602.23 L540.77 601.84 L538.96 600.22 L537.17 598.51 L535.83 597.91 L534.63 597.65 L533.01 596.12 L532.02 596.37 L531.39 597.74 L531.22 600.64 L531.20 604.23 L530.76 606.66 L531.42 613.17 L531.33 617.41 L530.20 617.88 L529.05 618.31 L527.90 618.72 L526.73 619.08 L525.55 619.39 L524.35 619.64 L523.14 619.82 L521.92 619.91 L520.68 619.90 L519.38 619.51 L518.14 619.36 L517.16 621.07 L515.90 620.85 L514.68 620.92 L513.69 623.07 L512.46 623.20 L511.25 623.62 L510.03 623.85 L508.79 624.01 L507.58 624.57 L506.35 624.86 L505.11 625.16 L503.87 625.52 L502.61 625.63 L501.36 625.77 L500.10 625.91 L498.84 625.99 L497.58 626.07 L496.32 626.11 L495.05 626.11 L493.79 626.20 L492.52 626.12 L491.26 626.11 L489.98 626.20 L488.71 626.18 L487.47 625.84 L486.19 625.92 L484.94 625.75 L483.76 624.97 L482.49 624.97 L481.24 624.80 L480.20 623.30 L479.15 622.04 L478.14 620.65 L477.23 618.92 L476.29 617.47 L475.51 615.33 L474.38 615.02 L473.64 612.98 L473.38 609.14 L472.71 607.24 L471.34 608.09 L470.09 608.39 L470.31 603.57 L468.93 604.41 L467.29 606.03 L465.90 606.76 L463.63 610.05 L462.26 610.48 L458.79 616.81 L455.36 622.59 L454.21 621.95 L453.16 621.04 L451.92 620.67 L450.43 620.88 L449.39 619.96 L448.20 619.45 L446.69 619.64 L445.62 618.82 L444.45 618.23 L442.80 618.65 L441.39 618.53 L440.05 618.25 L438.18 618.97 L436.70 618.91 L435.53 618.24 L437.07 612.71 L442.29 600.99 L445.36 593.43 L438.79 602.30 L440.76 596.79 L440.77 594.65 L428.12 612.33 L426.44 612.48 L425.54 611.39 L424.48 610.57 L423.49 609.65 L422.78 608.35 L421.93 607.25 L421.05 606.22 L420.70 604.49 L420.63 602.44 L421.13 599.72 L421.68 597.01 L420.33 596.69 L422.08 592.66 L422.10 590.78 L418.17 593.45 L419.53 590.06 L426.26 580.89 L424.20 581.49 L415.19 589.37 L422.40 580.15 L421.42 579.56 L418.59 580.79 L420.65 577.19 L414.15 581.85 L420.09 574.68 L417.61 575.47 L409.61 581.15 L406.60 582.18 L402.74 583.87 L400.77 583.85 L397.78 584.64 L391.40 588.11 L388.20 588.86 L387.21 587.83 L386.21 586.79 L385.23 585.74 L384.26 584.67 L383.28 583.61 L382.49 582.41 L386.92 577.63 L396.86 569.29 L402.27 564.26 L392.57 569.10 L404.97 559.79 L413.85 553.01 L394.38 563.54 L389.69 564.87 L398.57 558.29 L390.53 561.46 L391.98 559.24 L393.46 557.05 L382.52 561.40 L392.44 554.85 L387.56 555.93 L368.90 563.59 L368.23 562.29 L367.63 560.96 L367.00 559.65 L366.52 558.27 L366.10 556.86 L365.65 555.48 L365.31 554.05 L364.87 552.66 L364.43 551.27 L364.41 549.74 L364.35 548.23 L365.28 546.38 L368.13 543.93 L369.33 542.09 L368.99 540.76 L377.45 536.78 L386.61 532.80 L380.47 533.29 L377.44 532.81 L386.28 529.23 L382.23 529.02 L383.12 527.56 L381.80 526.63 L378.13 526.18 L385.58 523.38 L377.03 523.85 L369.89 523.89 L367.80 522.91 L363.57 522.24 L360.46 521.32 L359.30 520.06 L351.56 519.65 L350.63 518.25 L350.94 516.70 L351.66 515.12 L352.96 513.51 L354.15 511.93 L354.78 510.41 L355.84 508.89 L357.01 507.38 L357.01 505.95 L357.00 504.52 L358.02 503.07 L366.75 501.54 L376.07 500.20 L366.93 498.88 L368.49 497.58 L375.32 496.46 L367.88 494.92 L372.38 493.82 L371.20 492.47 L365.91 490.81 L374.32 490.13 L367.17 488.23 L360.34 486.21 L366.85 485.51 L368.86 484.40 L374.91 483.85 L380.59 483.37 L383.06 482.52 L386.98 481.95 L385.22 480.48 L378.57 478.10 L380.29 477.17 L377.65 475.40 L368.52 472.20 L372.24 471.64 L374.43 470.81 L376.21 469.92 L379.33 469.39 L383.42 469.19 L386.37 468.75 L380.28 465.78 L376.12 463.25 L377.49 462.32 L375.04 460.19 L378.12 459.83 L376.38 457.88 L376.72 456.61 L382.40 457.28 L380.64 455.29 L377.94 452.88 L372.84 449.44 L371.39 447.37 L371.76 446.02 L366.60 442.27 L358.45 437.06 L359.37 435.77 L360.83 434.75 L362.19 433.70 L362.58 432.19 L364.08 431.23 L365.44 430.22 L366.47 429.05 L373.69 431.26 L382.08 434.29 L380.07 431.59 L378.88 429.29 L393.87 436.61 L391.42 433.67 L377.19 423.28 L382.64 425.04 L385.40 425.18 L380.36 420.17 L387.70 423.43 L383.94 419.16 L383.68 417.24 L390.79 420.64 L381.20 411.84 L377.02 406.82 L379.51 406.80 L380.63 405.74 L382.30 405.13 L383.27 403.97 L384.54 403.07 L385.96 402.30 L388.39 402.42 L391.22 402.96 L393.82 403.36 L396.95 404.30 L399.67 404.94 L402.40 405.66 L404.35 405.67 L406.74 406.18 L409.18 406.79 L412.74 408.63 L414.03 408.16 L408.49 400.26 L408.72 398.49 L411.90 400.04 L409.98 395.77 L410.86 394.68 L411.43 393.20 L415.11 395.53 L415.97 394.45 L414.17 389.96 L414.16 387.64 L413.34 384.19 L412.95 381.20 L411.85 377.14 L407.70 368.60 L407.31 365.21 L408.29 363.74 L410.34 363.85 L412.26 363.82 L412.99 361.96 L414.63 361.50 L415.98 360.59 L417.47 359.91 L419.13 359.54 L420.39 358.48 L422.03 358.08 L425.78 361.65 L431.72 369.61 L432.95 368.79 L430.15 359.86 L435.83 367.96 L436.24 365.41 L436.05 361.44 L440.39 367.36 L438.35 359.08 L440.75 360.78 L443.19 362.72 L439.61 349.85 L442.73 353.38 L445.61 356.55 L448.39 359.65 L452.39 366.43 L454.57 368.38 L456.92 371.04 L458.38 371.12 L458.34 366.45 L458.78 363.07 L460.24 362.98 L459.85 356.26 L460.60 353.29 L462.89 356.09 L464.62 356.92 L466.33 357.74 L468.61 361.17 L470.72 364.23 L471.74 362.27 L471.07 351.48 L472.68 351.89 L473.97 350.53 L474.98 347.27 L477.05 350.57 L477.90 345.83 L479.84 348.64 L481.82 352.20 L482.83 347.86 L483.86 342.96 L485.35 341.89 L487.05 343.14 L488.30 338.67 L489.28 328.32 L490.83 325.03 L492.64 326.51 L494.60 333.36 L496.49 343.20 L498.05 342.42 L499.61 335.86 L501.17 345.85 L502.74 344.34 L504.34 342.81 L505.90 343.11 L507.71 338.29 L508.42 354.04 L509.69 356.95 L512.61 337.85 L514.10 339.50 L515.15 345.29 L517.38 339.09 L518.42 344.08 L520.44 340.70 L522.51 337.45 L522.80 346.65 L525.93 336.83 L529.14 327.78 L530.68 329.09 L532.12 330.78 L533.72 331.58 L535.27 332.56 L536.91 333.09 L538.34 334.47 L539.80 335.65 L540.78 338.67 L541.25 343.44 L541.00 350.48 L541.54 354.25 L543.73 352.16 L543.54 358.04 L545.06 358.17 L547.70 354.89 L548.09 358.50 L548.27 362.51 L550.73 359.98 L555.83 350.58 L555.82 355.06 L556.41 357.78 L559.84 353.43 L560.61 355.68 L563.17 353.69 L562.89 358.26 L562.94 361.89 L567.99 354.68 L567.05 360.34 L568.46 361.00 L572.58 356.28 L574.29 356.46 L580.88 347.49 L585.60 342.41 L587.56 342.59 L587.92 345.59 L588.37 348.35 L589.10 350.56 L589.81 352.73 L589.89 355.87 L590.41 358.20 L591.92 358.97 L593.38 359.82 L594.31 361.44 L592.49 367.00 L589.99 373.31 L595.79 367.96 L596.02 370.39 L595.04 374.36 L599.38 371.32 L599.15 374.23 L601.73 373.58 L603.59 373.88 L600.16 380.51 L605.59 376.56 L609.36 374.71 L609.38 377.19 L610.05 378.89 L610.20 381.14 L610.08 383.63 L608.98 387.08 L608.60 389.69 L611.16 389.33 L615.68 387.12 L613.33 391.60 L612.78 394.26 L622.69 387.25 L621.53 390.55 L618.44 395.45 L624.18 392.58 L625.83 393.33 L623.61 397.32 L623.55 399.44 L630.11 396.24 L634.92 394.60 L635.89 396.01 L640.35 394.80 L638.24 398.53 L642.31 397.72 L645.36 397.71 L638.64 404.50 L642.49 403.93 L647.56 402.65 L648.39 404.22 L648.36 406.33 L651.66 406.35 L656.62 405.44 L662.84 403.89 L666.96 403.69 L667.28 405.73 L667.00 408.08 L667.32 410.07 L667.30 412.22 L666.98 414.51 L667.40 416.40 L662.50 420.86 L655.68 426.10 L659.44 426.26 L662.02 427.03 L648.94 434.70 L652.76 434.84 L668.17 430.25 L664.24 433.79 L663.30 436.06 L669.58 435.55 L662.92 439.94 L668.55 439.77 L669.39 441.38 L663.86 445.12 L675.14 443.28 L680.87 443.42 L681.71 445.14 L683.14 446.70 L683.55 448.57 L684.80 450.21 L685.72 451.95 L685.56 453.96 L684.09 456.28 L681.72 458.76 L679.84 461.07 L678.59 463.21 L676.17 465.54 L674.47 467.68 L673.63 469.63 L671.97 471.69 L669.03 473.90 L665.59 476.13 L665.69 477.80 L675.01 478.33 L676.62 479.92 L674.65 481.91 L678.48 483.32 L677.52 485.20 L680.95 486.73 L675.17 488.92 L672.73 490.80 L682.32 492.12 L681.33 493.98 L682.23 495.77 L685.18 497.56 L689.38 499.40 L696.48 501.34 L699.48 503.35 L698.91 505.34 L696.31 507.23 L694.53 509.11 L692.36 510.94 L689.82 512.70 L689.50 514.59 L687.35 516.31 L686.47 518.11 L685.25 519.86 L684.49 521.65 L684.45 523.52 L678.28 524.55 L676.46 526.09 L684.68 529.20 L679.29 530.19 L678.14 531.83 L681.41 534.29 L675.81 535.06 L680.00 537.77 L677.28 539.05 L672.70 539.86 L680.57 543.58 L679.72 545.28 L677.94 546.73 L676.61 548.27 L674.24 549.50 L671.61 550.62 L668.42 551.51 L666.83 552.86 L669.81 555.67 L673.25 558.73 L672.31 560.33 L677.08 564.00 L679.18 566.79 L675.80 567.54 L674.11 568.90 L671.45 569.84 L668.20 570.48 L663.99 570.65 L664.50 572.83 L674.47 579.35 L672.40 580.49 L672.35 582.58 L674.62 585.82 L671.19 586.27 L673.71 589.74 L666.20 587.97 L665.77 589.88 L669.36 594.03 L668.65 595.85 L673.04 600.65 L669.31 600.75 L671.99 604.69 L679.42 611.69 L679.51 614.26 L678.09 615.87 L675.83 616.92 L673.64 617.98 L672.07 619.45 L669.68 620.32 L667.75 621.49 L664.77 621.87 L657.06 618.61 L651.72 616.98 L656.91 623.50 L648.26 619.12 L640.32 615.06 L651.50 626.78 L652.81 630.50 L645.26 626.59 L648.55 632.09 L645.96 632.42 L642.20 631.63 L645.30 637.22 L639.99 634.88 L640.39 638.00 L647.47 647.89 L647.48 650.89 L646.15 652.55 L644.87 654.27 L643.12 655.50 L641.22 656.55 L639.45 657.73 L637.13 658.27 L633.87 657.66 L631.06 657.52 L627.74 656.68 L624.57 655.95 L621.51 655.28 L618.74 654.91 L616.00 654.51 L613.16 653.91 L609.81 652.53 L606.90 651.66 L608.32 656.99 L611.12 664.54 L607.88 663.24 L606.63 664.91 L605.30 666.48 L603.30 666.98 L600.43 666.03 L597.86 665.51 L595.81 665.80 L594.97 668.22 L594.44 671.25 L595.10 676.60 L593.92 678.66 L594.64 684.49 L600.08 699.99 L598.05 700.94 L596.18 702.21 L594.19 703.24 L592.37 704.64 L590.27 705.46 L588.36 706.70 L586.24 707.45 L584.12 708.19 L581.78 708.38 L579.61 708.98 L577.77 710.44 L575.54 710.87 L573.23 711.05 L571.38 712.56 L569.50 714.04 L567.26 714.39 L564.99 714.65 L563.19 716.50 L560.88 716.61 L558.91 717.96 L556.95 719.38 L554.47 718.80 L551.83 717.44 L548.12 711.22 L544.22 703.49 L542.06 703.33 L540.22 704.72 L536.33 695.25 L534.12 694.15 L534.11 706.14 L532.48 709.26 L530.08 707.48 L528.95 714.79 L528.18 726.15 L525.83 725.60 L523.64 726.53 L521.43 727.39 L518.88 724.30 L515.95 715.18 L513.31 707.77 L511.60 714.76 L509.40 713.58 L507.03 706.87 L505.08 711.78 L502.91 708.23 L500.85 713.31 L498.73 710.88 L496.67 707.68 L494.32 718.43 L492.02 721.40 L489.70 723.74 L487.65 720.16 L486.15 709.53 L483.99 710.20 L481.76 711.54 L480.38 703.73 L478.32 703.71 L475.18 712.97 L472.45 717.49 L470.17 717.92 L467.22 722.90 L463.57 731.61 L461.13 731.98 L458.81 731.59 L456.55 730.87 L455.04 726.40 L454.76 716.45 L453.89 710.13 L449.66 718.92 L448.63 713.61 L446.86 711.63 L442.76 718.68 L443.05 709.02 L439.16 714.79 L436.87 714.66 L437.02 706.50 L431.45 716.98 L428.42 718.92 L428.70 710.91 L428.79 703.89 L426.43 704.06 L424.33 703.50 L425.89 693.35 L422.76 695.63 L416.90 704.48 L414.72 703.95 L412.43 703.69 L406.79 710.97 L401.39 717.30 L399.45 715.82 L397.44 714.50 L396.01 712.01 L396.02 706.74 L398.32 697.22 L399.02 691.15 L393.38 697.02 L393.24 692.66 L392.80 688.97 L387.67 693.48 L388.65 687.45 L384.23 690.53 L384.91 685.20 L384.75 681.39 L378.04 687.78 L373.27 690.92 L372.44 688.05 L371.71 685.12 L371.38 681.69 L368.89 681.33 L366.63 680.63 L369.71 672.81 L367.17 672.56 L359.00 679.43 L356.86 678.46 L353.49 678.96 L346.80 683.37 L341.06 686.41 L338.87 685.20 L336.98 683.63 L335.23 681.91 L337.72 675.59 L343.00 666.51 L341.50 664.77 L333.40 669.76 L339.19 660.61 L335.09 661.45 L331.05 662.12 L334.88 655.30 L326.77 659.70 L327.98 655.43 L328.15 652.19 L315.67 659.97 L316.32 656.22 L322.19 648.19 L323.51 644.12 L321.45 642.85 L323.90 638.03 L328.48 631.68 L321.39 634.32 L313.79 637.13 L313.55 634.45 L309.14 634.76 L298.11 639.54 L294.34 639.13 L293.82 636.49 L293.69 633.63 L293.30 630.97 L296.25 626.26 L304.06 618.73 L302.70 616.87 L293.15 619.75 L299.18 613.59 L298.03 611.60 L293.88 611.21 L295.35 607.79 L289.87 608.00 L296.55 602.01 L290.08 602.64 L281.22 604.28 L279.77 602.28 L275.41 601.59 L282.29 595.86 L284.10 592.50 L282.61 590.57 L283.14 587.82 L289.98 582.61 L285.33 581.98 L275.47 583.18 L274.74 580.89 L270.46 579.85 L260.03 580.80 L256.16 579.39 L255.12 577.03 L254.72 574.47 L256.07 571.41 L262.09 567.07 L271.65 561.92 L266.82 560.73 L261.69 559.53 L270.68 554.85 L262.87 554.22 L263.73 551.54 L265.65 548.67 L256.78 547.98 L265.29 543.87 L262.32 541.97 L248.88 541.76 L254.68 538.28 L264.61 534.32 L265.01 531.87 L264.14 529.58 L270.74 526.43 L274.86 523.68 L263.71 522.46 L257.75 520.59 L260.51 517.94 L255.40 515.87 L241.19 514.19 L241.27 511.59 L241.96 508.98 L242.44 506.38 L244.61 503.77 L253.05 501.18 L261.61 498.76 L258.96 496.33 L255.32 493.83 L263.16 491.65 L259.71 489.13 L260.82 486.78 L260.39 484.35 L258.47 481.80 L266.87 480.08 L262.81 477.35 L257.46 474.38 L265.88 472.90 L259.93 469.78 L253.22 466.42 L259.89 464.88 L246.15 460.28 L239.69 456.60 L241.40 454.22 L244.56 452.14 L244.62 449.50 L246.82 447.30 L244.16 444.07 L243.78 441.30 L241.97 438.16 L238.27 434.50 L238.25 431.71 L238.07 428.85 L238.66 426.20 L238.16 423.22 L238.20 420.39 L238.89 417.73 L239.54 415.07 L240.60 412.53 L241.49 409.94 L242.25 407.31 L243.47 404.84 L244.77 402.41 L245.75 399.86 L247.20 397.49 L248.78 395.20 L250.02 392.77 L251.51 390.45 L253.58 388.41 L255.36 386.25 L256.63 383.87 L259.17 382.11 L262.44 380.75 L265.51 379.34 L269.79 378.62 L271.31 376.48 L276.21 376.22 L278.76 374.73 L276.70 370.60 L276.70 367.59 L276.32 364.33 L275.89 360.98 L273.28 356.20 L275.80 354.64 L277.82 352.77 L279.86 350.93 L282.25 349.35 L284.81 347.92 L287.59 346.68 L287.99 343.71 L291.47 343.04 L293.83 341.57 L292.66 337.34 L289.71 331.60 L291.42 329.52 L290.39 325.15 L284.94 316.93 L286.66 314.69 L288.42 312.46 L290.20 310.26 L291.98 308.06 L293.80 305.88 L295.64 303.72 L297.50 301.58 L299.36 299.43 L301.23 297.28 L303.11 295.15 L305.04 293.04 L306.98 290.96 L308.97 288.92 L310.99 286.91 L313.07 284.96 L315.18 283.04 L317.29 281.12 L319.43 279.24 L321.63 277.41 L323.86 275.64 L326.10 273.88 L328.35 272.12 L330.61 270.38 L332.79 268.52 L334.93 266.61 L337.20 264.86 L339.40 263.00 L341.66 261.23 L344.10 259.73 L346.55 258.24 L348.98 256.74 L351.54 255.44 L354.05 254.05 L356.67 252.87 L359.26 251.65 L362.16 251.00 L365.46 251.12 L368.54 250.89 L371.65 250.77 L374.78 250.77 L377.89 250.78 L380.55 249.90 L383.35 249.34 L386.46 249.52 L389.39 249.35 L392.52 249.69 L395.02 248.61 L398.17 249.13 L400.74 248.26 L403.23 247.20 L404.69 243.34 L405.34 237.08 L407.99 236.19 L408.82 229.91 L410.01 224.38 L412.86 223.77 L415.79 223.44 L418.70 223.08 L422.05 224.32 L425.59 226.43 L427.71 223.35 L431.37 226.16 L434.94 228.94 L436.32 222.51 L439.98 225.89 L442.08 222.25 L444.89 221.84 L448.29 224.56 L449.78 216.89 L453.42 221.27 L456.46 222.38 L460.37 229.68 L464.29 238.20 L465.26 224.83 L468.96 232.65 L471.60 231.97 L472.35 211.53 L475.45 213.84 L477.98 209.15 L480.81 207.77 L483.75 207.84 L486.70 208.32 L489.64 208.96 L492.56 209.06 L495.49 210.25 L498.40 212.27 L501.27 214.08 L504.08 217.20 L506.88 218.35 L509.59 221.45 L512.46 219.76 L515.35 218.31 L517.85 223.26 L520.09 230.54 L522.83 230.20 L526.29 222.43 L527.96 233.21 L530.72 232.67 L533.67 230.79 L535.95 234.17 L539.51 228.35 L540.86 237.49 L544.27 233.17 L548.24 226.27 L551.11 226.00 L554.82 221.59 L557.18 224.19 L560.79 220.85 L564.28 218.41 L566.37 222.09 L571.20 214.51 L572.49 221.24 L575.77 220.15 L579.10 219.05 L580.26 225.46 L585.53 217.96 L585.29 228.54 L584.68 239.63 L586.48 242.85 L590.44 239.73 L590.62 247.39 L589.55 258.01 L598.28 242.35 L603.27 237.21 L601.03 250.26 L608.16 240.14 L609.24 244.77 L609.93 250.11 L617.48 240.03 L614.32 253.62 L619.62 248.81 L626.95 240.13 L629.27 241.97 L635.44 236.27 L638.11 237.56 L644.26 232.39 L647.23 233.32 L649.93 234.73 L652.45 236.45 L654.88 238.32 L657.29 240.21 L659.28 242.76 L661.39 245.09 L662.97 248.20 L663.38 253.01 L664.50 256.65 L667.50 257.47 L664.71 266.55 L660.84 276.80 L667.34 272.61 L671.19 272.19 L667.21 282.05 L672.41 279.87 L673.33 283.19 L676.22 284.05 L679.43 284.54 L677.33 291.35 L683.28 288.66 L688.27 287.25 L692.90 286.36 L698.78 284.22 L701.12 286.02 L705.02 286.20 L714.56 280.68 L716.39 283.18 L717.86 286.04 L719.78 288.43 L721.09 291.38 L722.86 293.89 L723.83 297.11 L724.94 300.16 L727.03 302.33 L728.43 305.09 L730.32 307.43 L733.24 308.92 L734.72 311.60 L736.92 313.69 L740.05 315.09 L741.96 317.44 L742.97 320.47 L739.11 326.99 L734.24 334.05 L737.05 335.60 L742.22 335.58 L737.34 342.33 L746.04 340.08 L751.69 339.96 L748.63 345.37 L748.40 348.94 L745.24 354.21 L742.43 359.14 L741.32 362.99 L740.18 366.80 L742.93 368.43 L750.39 367.61 L750.43 370.77 L754.54 371.86 L763.60 370.59 L761.89 374.66 L761.47 378.06 L760.95 381.47 L760.41 384.84 L757.42 389.22 L756.44 392.67 L764.86 392.25 L769.26 393.59 L768.84 396.85 L774.09 397.97 L770.89 402.23 L773.83 404.25 L776.25 406.49 L771.66 411.07 L774.48 413.17 L780.10 414.47 L784.42 416.25 L787.19 418.55 L788.60 421.26 L794.75 422.73 L805.83 423.09 L805.65 426.38 L805.54 429.63 L805.51 432.85 L806.60 435.81 L806.14 439.10 L805.87 442.33 L806.21 445.43 L799.20 449.76 L790.62 454.18 L795.62 456.42 L796.97 459.25 L780.61 464.35 L786.18 466.55 L803.67 467.58 L797.29 471.26 L796.08 474.36 L802.59 476.85 L794.21 480.44 L800.98 483.02 L801.22 486.02 L794.84 489.27 L807.83 491.88 L814.11 494.86 L812.33 498.01 L811.93 501.13 L810.82 504.24 L810.75 507.34 L809.92 510.43 L809.61 513.52 L808.28 516.55 L805.84 519.49 L803.01 522.35 L800.42 525.18 L796.94 527.88 L794.83 530.66 L792.67 533.40 L790.89 536.15 L787.85 538.70 L783.47 541.00 L784.82 544.10 L794.26 548.58 L792.07 551.23 L788.95 553.66 L794.65 557.78 L793.06 560.51 L792.13 563.37 L788.24 565.56 L787.28 568.37 L790.31 572.16 L790.94 575.41 L791.79 578.76 L794.05 582.53 L797.96 586.85 L807.06 592.84 L810.04 597.14 L809.19 600.28 L807.42 603.11 L805.67 605.94 L804.42 608.93 L802.26 611.58 L800.86 614.49 L799.36 617.36 L797.63 620.13 L796.77 623.25 L795.28 626.11 L789.28 626.98 L779.19 625.90 L778.90 629.14 L785.30 635.58 L775.31 634.22 L776.31 638.15 L778.06 642.51 L770.88 642.28 L776.51 648.78 L772.26 650.02 L764.97 649.48 L767.83 654.64 L762.66 655.18 L762.18 658.45 L750.79 655.01 L746.90 656.04 L748.80 660.75 L744.86 661.70 L741.72 663.12 L745.40 669.20 L746.87 673.88 L744.92 676.20 L748.61 682.65 L749.24 686.98 L745.03 687.68 L742.30 689.46 L738.68 690.51 L734.01 690.64 L729.59 690.90 L729.52 694.75 L735.56 703.96 L732.50 705.42 L731.71 708.88 L731.12 712.57 L726.95 712.97 L728.23 718.50 L722.96 717.77 L719.16 718.39 L719.96 723.61 L719.92 728.09 L718.36 731.05 L715.42 732.55 L715.82 737.72 L719.75 746.95 L720.07 752.36 L716.79 753.67 L713.75 755.23 L711.17 757.34 L708.89 759.82 L705.78 761.26 L703.26 763.44 L698.97 763.28 L691.07 758.15 L685.51 755.95 L686.88 763.35 L678.28 756.62 L670.36 750.54 L677.33 766.48 L676.32 770.79 L668.67 764.80 L669.46 772.00 L666.21 772.82 L662.34 772.57 L663.48 780.85 L656.11 774.44 L651.60 772.83 L650.48 777.31 L650.41 783.92 L644.81 780.08 L635.70 769.03 L638.40 781.33 L639.89 791.71 L633.01 784.63 L632.93 792.03 L632.63 799.28 L628.66 798.33 L624.90 797.76 L620.71 796.04 L616.81 794.87 L613.40 794.85 L610.04 794.88 L606.09 793.21 L602.03 791.05 L598.38 789.91 L597.27 796.34 L596.46 804.08 L592.30 801.39 L589.70 803.72 L587.86 808.85 L585.59 812.72 L581.91 811.45 L577.89 808.70 L574.95 810.05 L573.05 816.01 L569.61 815.48 L566.36 815.74 L563.92 819.97 L561.74 826.02 L559.97 834.95 L556.80 836.60 L553.52 837.71 L549.95 836.94 L546.43 836.38 L542.90 835.51 L539.22 833.22 L536.08 835.39 L532.74 835.89 L529.45 836.97 L526.23 839.20 L522.84 839.56 L518.94 830.95 L515.23 822.76 L512.39 833.13 L508.98 830.65 L505.58 825.18 L502.38 832.35 L499.07 827.25 L495.78 829.02 L492.38 833.52 L489.34 824.48 L485.76 832.36 L482.16 837.31 L479.11 832.09 L476.06 828.18 L473.21 822.62 L470.31 818.95 L467.48 815.11 L464.63 812.10 L461.18 814.42 L457.29 819.64 L454.30 817.76 L450.52 821.23 L445.99 828.74 L443.28 824.91 L440.36 822.55 L437.44 820.39 L434.65 817.75 L432.43 812.66 L429.74 810.08 L424.82 817.04 L420.66 820.26 L418.06 817.17 L413.81 820.32 L411.33 816.90 L407.55 818.09 L403.94 818.60 L402.52 811.99 L398.44 813.98 L394.21 816.24 L389.76 818.88 L385.86 819.80 L382.89 818.02 L377.22 823.42 L370.63 830.76 L367.72 828.48 L364.83 826.20 L361.90 824.07 L358.52 823.01 L355.73 820.62 L352.86 818.44 L349.70 816.93 L349.87 808.56 L350.86 798.90 L345.91 801.22 L342.84 799.80 L347.55 783.87 L341.95 787.36 L331.03 800.08 L330.86 793.47 L328.57 790.69 L322.54 794.15 L323.91 785.39 L317.59 789.13 L315.10 786.68 L316.07 779.01 L306.58 787.12 L300.78 789.44 L298.23 786.96 L295.67 784.51 L293.14 782.03 L289.57 780.96 L287.06 778.47 L284.87 775.57 L283.57 771.60 L282.32 767.63 L280.98 763.84 L280.45 759.17 L279.00 755.65 L277.71 752.01 L276.67 748.13 L275.49 744.48 L274.86 740.30 L275.50 734.87 L272.90 732.88 L262.98 738.24 L259.95 736.51 L258.80 732.93 L252.91 733.89 L252.44 729.69 L248.88 728.36 L250.70 722.19 L250.42 718.00 L243.75 719.35 L242.63 715.88 L240.28 713.47 L231.33 716.36 L228.31 714.35 L219.53 716.76 L205.63 722.83 L203.23 720.02 L200.84 717.19 L198.19 714.54 L195.87 711.64 L193.84 708.54 L191.75 705.49 L190.09 702.14 L188.77 698.59 L187.03 695.33 L184.81 692.36 L183.02 689.13 L181.11 685.97 L178.62 683.14 L175.91 680.42 L174.16 677.15 L172.60 673.78 L170.30 670.79 L168.61 667.49 L167.46 663.91 L165.97 660.52 L165.05 656.86 L163.99 653.27 L163.34 649.52 L162.52 645.86 L160.37 642.78 L159.78 639.04 L158.12 635.75 L156.42 632.46 L154.74 629.16 L153.31 625.75 L152.48 622.13 L152.01 618.40 L150.79 614.94 L150.63 611.13 L149.41 607.67 L148.39 604.15 L148.06 600.43 L146.35 597.10 L146.02 593.40 L144.87 589.91 L143.24 586.54 L144.62 582.45 L141.16 579.48 L140.35 575.89 L141.15 571.98 L139.04 568.66 L140.71 564.62 L139.41 561.14 L137.32 557.77 L137.73 554.00 L132.87 550.97 L130.00 547.61 L127.89 544.10 L125.72 540.57 L125.94 536.76 L126.26 532.96 L125.65 529.24 L124.92 525.53 L125.14 521.75 L124.86 518.01 L124.10 514.28 L123.99 510.52 L125.66 506.73 L125.47 502.98 L123.76 499.23 L123.44 495.47 L123.34 491.70 L120.40 487.83 L120.23 484.03 L120.19 480.22 L120.17 476.41 L120.59 472.62 L120.84 468.83 L121.06 465.02 L121.67 461.26 L122.43 457.52 L122.50 453.70 L123.19 449.96 L123.30 446.13 L124.20 442.42 L125.57 438.79 L126.14 435.04 L127.40 431.41 L128.55 427.78 L130.46 424.31 L129.69 420.28 L131.43 416.79 L133.69 413.44 L133.73 409.58 L136.03 406.27 L137.39 402.75 L138.14 399.06 L139.80 395.63 L139.84 391.72 L140.90 388.12 L141.06 384.22 L142.03 380.56 L144.38 377.38 L145.56 373.81 L148.70 370.95 L151.18 367.89 L149.63 363.28 L151.79 360.10 L152.22 356.21 L150.45 351.37 L152.07 347.93 L153.13 344.25 L154.84 340.85 L156.94 337.64 L158.08 333.97 L158.40 329.89 L160.17 326.51 L160.20 322.22 L160.58 318.07 L162.32 314.63 L162.26 310.18 L163.59 306.47 L165.58 303.14 L167.18 299.58 L171.30 297.55 L182.69 300.16 L193.11 302.41 L186.38 293.61 L189.84 291.42 L196.58 291.51 L191.14 283.20 L199.52 284.56 L198.79 279.44 L196.43 273.01 L208.23 277.25 L201.63 267.46 L197.33 259.20 L206.38 261.57 L216.46 265.01 L218.65 262.04 L220.26 258.57 L230.96 263.06 L233.45 260.48 L226.44 249.19 L226.50 244.17 L230.23 242.55 L227.08 234.28 L220.72 222.59 L223.93 220.24 L227.38 218.15 L231.41 216.71 L237.43 217.45 L246.86 222.07 L255.52 226.13 L253.94 218.74 L258.10 217.86 L266.44 222.01 L264.10 213.45 L270.58 215.57 L271.54 210.90 L273.52 207.44 L279.85 209.66 L277.67 200.61 L277.15 193.56 L281.79 193.55 L284.72 191.16 L291.45 194.34 L294.34 192.02 L295.15 186.48 L302.33 190.77 L306.06 189.81 L303.96 179.36 L304.21 172.45 L307.59 170.68 L307.06 162.05 L305.01 150.39 L308.73 148.84 L312.44 147.32 L316.24 145.96 L322.35 149.20 L331.01 157.85 L336.56 160.58 L335.21 148.83 L341.62 153.54 L345.42 152.69 L345.42 143.14 L353.42 152.11 L353.49 142.32 L357.43 141.77 L364.13 148.40 L362.52 133.38 L365.34 129.67 L372.50 138.13 L378.19 142.94 L381.57 141.13 L385.49 140.99 L392.03 149.41 L394.43 144.61 L395.06 133.33 L398.72 132.26 L401.96 129.63 L403.15 118.72 L404.87 109.17 L408.77 108.16 L412.79 107.73 L417.10 108.67 L422.14 113.46 L427.81 122.13 L432.77 127.93 L434.96 118.26 L439.61 122.81 L443.94 125.91 L446.56 117.32 L451.38 124.45 L454.60 119.51 L458.96 124.17 L462.83 124.84 L465.70 114.59 L469.48 113.27 L473.17 110.45 L477.35 115.02 L481.35 117.80 L485.11 116.15 L488.95 115.91 L492.96 125.03 L496.70 122.90 L500.48 111.58 L504.38 110.59 L508.31 108.59 L512.53 99.02 L516.85 91.75 L520.95 91.49 L525.04 91.59 L529.15 91.58 L532.59 99.70 L535.48 112.20 L539.36 112.54 L544.40 102.54 L546.95 114.63 L551.38 110.77 L555.69 108.35 L558.45 116.48 L564.04 106.26 L566.93 112.98 L570.49 115.31 L578.01 97.06 L580.84 103.73 L582.44 115.56 L585.52 119.80 L589.16 121.30 L591.59 127.75 L593.48 135.81 L599.28 128.66 L605.31 121.32 L608.73 123.64 L613.71 120.68 L621.87 107.74 L626.57 106.56 L630.34 108.31 L633.81 110.93 L636.90 114.50 L638.35 122.44 L638.48 133.47 L641.73 135.92 L648.44 129.70 L648.30 140.49 L651.56 142.77 L656.31 141.59 L658.81 145.57 L664.23 143.08 L664.86 150.93 L671.75 145.58 L679.05 139.72 L681.95 142.91 L686.93 142.02 L687.59 149.35 L687.67 157.47 L692.49 156.87 L695.57 159.40 L694.71 168.63 L700.64 166.22 L709.63 159.04 L712.93 161.31 L718.51 160.03 L729.21 151.10 L734.04 151.39 L737.21 154.19 L740.34 157.04 L742.55 161.14 L740.30 171.27 L736.84 182.72 L743.58 180.41 L749.58 179.24 L746.58 189.55 L755.19 185.23 L756.58 189.91 L758.36 194.03 L768.61 188.27 L763.39 200.44 L768.94 200.23 L781.18 192.82 L779.26 200.98 L774.48 211.92 L777.02 215.02 L780.57 217.08 L777.75 225.48 L777.66 231.01 L789.20 225.38 L796.39 224.13 L797.02 229.04 L804.23 227.98 L818.67 220.76 L820.95 224.38 L823.10 228.10 L824.40 232.51 L824.29 238.00 L820.41 246.39 L814.96 255.78 L819.41 257.41 L825.15 258.13 L820.53 266.52 L826.38 267.21 L827.32 271.45 L829.48 274.81 L832.03 277.90 L827.46 285.66 L834.83 285.59 L842.68 285.37 L849.37 286.01 L853.75 288.17 L860.30 289.11 L865.29 291.06 L873.88 291.08 L877.02 294.25 L877.90 298.65 L877.48 303.69 L877.76 308.32 L880.83 311.53 L881.01 316.16 L882.84 319.97 L887.25 322.61 L890.41 325.86 L892.97 329.41 L895.28 333.08 L897.71 336.72 L899.88 340.49 L901.83 344.35 L903.42 348.36 L904.58 352.52 L905.93 356.61 L906.77 360.87 L907.46 365.17 L908.17 369.45 L908.22 373.92 L907.75 378.52 L908.94 382.61 L910.37 386.62 L912.37 390.50 L915.00 394.23 L917.28 398.08 L920.57 401.72 L921.98 405.83 L922.90 410.06 L924.40 414.17 L925.79 418.31 L926.75 422.54 L927.53 426.81 L928.04 431.12 L928.41 435.45 L928.25 439.84 L927.15 444.35 L925.69 448.86 L924.86 453.27 L922.46 457.80 L919.26 462.35 L923.16 466.26 L921.52 470.63 L919.88 474.96 L922.93 479.02 L924.80 483.19 L926.88 487.38 L926.14 491.67 L929.67 495.89 L953.81 500.00 L953.51 495.46 L954.82 490.90 L958.43 486.24 L956.14 481.74 L954.91 477.24 L954.43 472.70 L953.23 468.22 L951.78 463.78 L952.10 459.20 L948.20 455.03 L947.36 450.59 L946.31 446.18 L943.31 442.04 L941.05 437.85 L939.27 433.61 L937.73 429.36 L936.60 425.05 L935.62 420.73 L934.77 416.39 L934.15 411.99 L933.18 407.67 L931.92 403.41 L930.99 399.09 L934.24 393.73 L934.42 389.07 L934.67 384.37 L935.33 379.52 L934.02 375.20 L931.34 371.28 L927.41 367.79 L923.94 364.20 L921.09 360.45 L918.45 356.67 L916.08 352.82 L913.75 348.97 L911.73 345.02 L909.95 341.00 L908.10 337.00 L906.49 332.91 L904.88 328.82 L903.84 324.48 L902.27 320.36 L901.28 315.97 L902.21 310.65 L899.36 307.09 L895.78 303.91 L894.79 299.46 L890.37 296.77 L885.73 294.26 L882.30 291.15 L881.07 286.84 L881.44 281.60 L879.98 277.36 L880.44 271.95 L880.10 266.96 L880.08 261.71 L884.18 253.76 L889.67 244.70 L879.08 246.18 L878.85 240.81 L875.77 237.36 L872.26 234.24 L872.72 228.25 L863.90 229.06 L865.78 221.93 L865.19 216.57 L856.22 217.79 L847.15 219.27 L841.71 217.97 L837.08 216.08 L832.85 213.90 L828.79 211.63 L836.20 199.13 L836.26 192.96 L830.00 192.57 L831.09 185.32 L836.15 174.05 L828.72 174.81 L820.03 177.01 L817.73 172.85 L813.22 170.98 L801.95 176.39 L793.96 178.58 L800.68 164.55 L798.62 160.07 L787.67 165.86 L790.80 155.31 L785.39 154.78 L780.81 153.31 L782.09 144.52 L773.19 148.57 L773.72 140.54 L772.73 134.30 L763.40 139.34 L755.20 143.13 L750.07 142.82 L745.45 141.84 L740.89 140.84 L738.07 137.26 L740.40 125.60 L737.86 121.28 L733.19 120.33 L734.93 108.78 L732.98 103.09 L723.88 109.71 L719.62 108.10 L716.62 104.22 L709.20 108.54 L701.71 113.31 L697.44 112.08 L694.00 109.23 L694.88 97.38 L692.45 92.04 L685.46 96.46 L683.87 89.14 L678.44 90.33 L675.46 85.91 L670.96 85.04 L664.69 88.61 L664.06 78.00 L658.97 78.67 L652.00 84.62 L645.52 89.67 L640.39 91.20 L635.55 92.04 L630.92 92.41 L627.62 88.60 L626.97 75.74 L623.35 72.33 L618.41 73.47 L616.42 63.77 L613.71 56.13 L607.09 63.91 L601.49 68.09 L597.19 67.02 L591.84 70.78 L585.23 81.25 L580.28 84.35 L579.37 65.81 L574.55 67.75 L569.45 71.81 L566.63 61.52 L561.01 69.54 L557.19 65.29 L553.21 61.68 L547.73 71.02 L544.54 59.64 L540.06 59.97 L534.78 70.42 L530.07 75.96 L525.89 74.74 L521.60 75.16 L517.36 74.66 L513.32 67.74 L509.14 60.72 L504.74 61.20 L500.35 60.80 L495.86 50.20 L491.37 50.45 L487.14 59.81 L482.79 61.12 L478.39 61.09 L474.36 67.45 L470.50 74.42 L466.10 72.91 L461.76 72.40 L456.22 60.17 L452.07 62.84 L448.04 66.15 L443.12 62.23 L439.61 68.99 L434.11 61.65 L430.56 67.55 L426.68 70.79 L421.12 64.57 L418.06 72.11 L415.55 81.70 L412.51 87.89 L408.67 90.07 L404.38 90.14 L400.11 90.41 L394.11 83.91 L387.88 77.17 L383.72 78.54 L379.96 81.28 L373.10 73.52 L368.28 72.97 L367.51 85.25 L363.35 86.55 L359.08 87.50 L357.45 95.98 L356.91 107.03 L351.51 104.54 L342.78 93.69 L342.38 104.46 L338.40 105.96 L331.58 100.76 L332.21 113.11 L324.70 106.61 L321.19 109.29 L318.88 114.48 L310.37 106.63 L308.80 113.32 L309.40 124.03 L307.94 130.36 L305.04 133.79 L302.24 137.31 L299.31 140.54 L290.96 134.23 L284.46 131.46 L282.07 135.78 L275.17 132.63 L266.71 127.24 L264.63 132.15 L265.08 140.82 L260.66 141.93 L258.24 146.02 L258.94 154.51 L257.17 159.28 L255.58 164.21 L247.37 160.13 L237.97 154.75 L238.69 162.75 L235.35 165.41 L229.07 164.42 L228.48 170.48 L221.81 169.19 L222.96 177.17 L218.45 178.48 L210.70 176.22 L213.03 185.21 L215.37 193.98 L215.11 199.78 L213.78 204.35 L212.39 208.81 L210.72 212.91 L199.81 207.99 L192.49 206.80 L192.46 212.58 L187.20 213.47 L174.87 208.10 L173.69 212.88 L179.60 223.72 L175.12 225.47 L172.76 229.04 L178.60 239.24 L182.09 247.31 L172.06 244.65 L162.31 242.43 L169.70 253.26 L161.71 252.52 L157.61 254.74 L160.49 261.91 L151.02 260.43 L153.78 267.39 L150.95 270.52 L141.35 269.31 L147.13 277.98 L153.48 286.79 L152.14 290.73 L149.92 294.13 L149.09 298.34 L145.73 301.09 L142.98 304.22 L142.31 308.48 L140.60 312.17 L138.00 315.39 L137.20 319.53 L135.65 323.28 L133.37 326.68 L131.69 330.38 L130.32 334.21 L129.27 338.17 L128.15 342.09 L125.04 345.17 L125.02 349.53 L124.99 353.86 L122.71 357.30 L122.09 361.37 L122.65 365.84 L121.25 369.59 L120.00 373.40 L119.25 377.37 L117.68 381.07 L116.27 384.82 L115.07 388.65 L114.48 392.64 L114.08 396.68 L113.51 400.66 L113.92 404.87 L113.57 408.87 L113.66 412.96 L113.75 417.03 L113.26 420.96 L113.60 425.05 L113.17 428.97 L113.06 432.94 L110.54 436.51 L110.13 440.44 L108.80 444.24 L107.63 448.07 L108.36 452.14 L107.91 456.06 L108.66 460.11 L109.29 464.11 L109.42 468.06 L109.40 471.99 L109.71 475.93 L109.90 479.86 L109.95 483.77 L109.35 487.65 L107.92 491.53 L107.49 495.45 L107.28 499.37 L107.22 503.30 L107.33 507.23 L108.81 511.12 L110.35 514.97 L111.01 518.84 L111.38 522.72 L112.37 526.56 L113.30 530.38 L113.81 534.23 L114.81 538.03 L115.28 541.87 L111.96 546.16 L111.88 550.11 L111.18 554.16 L109.42 558.39 L110.98 562.15 L112.99 565.80 L113.94 569.62 L115.88 573.24 L117.05 576.99 L118.65 580.65 L120.10 584.32 L119.57 588.44 L121.35 592.02 L121.94 595.89 L122.39 599.81 L123.96 603.43 L125.47 607.05 L127.33 610.56 L129.19 614.06 L131.63 617.35 L133.47 620.82 L135.35 624.25 L137.39 627.62 L138.91 631.16 L140.99 634.48 L142.68 637.94 L144.06 641.51 L144.19 645.60 L146.09 648.97 L146.57 652.94 L147.75 656.63 L149.36 660.14 L151.28 663.49 L153.63 666.63 L155.56 669.97 L157.72 673.18 L159.84 676.40 L161.00 680.12 L162.49 683.68 L164.77 686.81 L165.05 691.07 L166.38 694.76 L168.27 698.13 L169.95 701.63 L172.10 704.85 L174.25 708.06 L176.46 711.24 L179.12 714.11 L180.90 717.56 L183.06 720.77 L184.94 724.16 L186.56 727.77 L188.54 731.13 L190.66 734.38 L185.12 743.58 L183.63 749.83 L186.50 752.69 L185.00 759.13 L189.17 760.96 L192.89 763.12 L191.30 769.88 L196.12 771.07 L202.89 770.42 L204.97 773.98 L208.80 775.89 L208.57 781.69 L213.36 782.66 L215.29 786.43 L211.35 796.26 L214.09 799.38 L220.28 798.83 L225.35 799.35 L230.18 800.06 L234.80 800.92 L239.41 801.72 L244.52 801.85 L249.80 801.67 L254.32 802.33 L259.75 801.77 L264.11 802.44 L267.67 804.10 L270.73 806.40 L272.27 810.77 L275.48 812.92 L279.52 813.86 L282.24 816.67 L282.90 822.57 L280.34 833.53 L288.20 828.71 L291.69 830.50 L292.28 836.99 L300.22 831.49 L299.82 839.78 L304.58 839.42 L311.03 835.95 L305.81 853.44 L307.86 858.17 L319.62 844.46 L322.32 847.73 L324.85 851.41 L332.55 844.55 L339.37 839.11 L343.12 839.93 L347.29 839.78 L351.31 839.88 L354.76 841.24 L358.90 840.96 L362.88 840.94 L366.65 841.38 L366.62 851.81 L367.71 859.75 L371.68 860.01 L374.71 862.95 L377.50 866.72 L379.91 871.84 L382.83 875.60 L388.94 868.94 L392.43 870.76 L395.25 875.00 L399.82 872.99 L402.53 877.94 L406.76 877.09 L409.29 883.28 L411.47 891.51 L415.84 890.29 L420.61 886.87 L425.03 884.83 L429.29 883.35 L433.48 882.03 L437.99 878.51 L440.54 887.13 L444.04 890.33 L448.13 889.52 L451.28 896.11 L455.06 898.14 L459.33 895.78 L463.58 893.08 L467.80 889.97 L472.03 885.74 L476.14 881.96 L480.20 877.58 L483.75 883.03 L487.42 888.19 L491.51 879.22 L495.25 883.47 L499.08 884.06 L502.89 879.70 L506.81 886.69 L510.51 880.42 L514.30 880.00 L518.47 887.75 L521.89 879.53 L525.14 871.28 L528.75 869.69 L532.45 869.43 L536.00 867.62 L539.82 868.60 L543.43 867.58 L546.86 865.20 L550.61 865.48 L554.29 865.09 L557.85 864.00 L561.51 863.55 L564.92 861.68 L569.49 866.05 L574.40 871.57 L578.36 871.98 L581.58 868.94 L585.39 868.66 L590.30 872.85 L594.11 872.28 L596.47 866.17 L599.50 862.87 L603.68 863.81 L608.40 866.44 L612.32 866.20 L615.02 862.05 L621.31 869.02 L626.62 872.56 L629.46 868.77 L631.98 864.26 L634.60 860.19 L637.33 856.60 L640.30 853.73 L642.66 849.42 L644.71 844.56 L646.99 840.41 L649.20 836.26 L655.29 840.75 L661.10 844.33 L660.34 833.96 L668.75 842.65 L676.97 850.46 L673.94 836.07 L675.04 830.07 L680.31 831.93 L685.45 833.41 L686.49 827.53 L685.17 817.78 L691.89 821.86 L693.27 816.93 L696.47 815.04 L702.58 817.73 L700.11 807.02 L705.84 809.03 L717.95 820.22 L715.17 809.43 L713.29 800.28 L719.63 802.74 L719.28 795.99 L717.23 787.17 L717.86 782.10 L719.30 778.17 L720.56 774.08 L723.18 771.73 L724.85 768.24 L726.40 764.68 L728.16 761.39 L731.88 760.36 L742.49 766.85 L749.30 768.89 L749.40 763.66 L754.16 763.36 L758.42 762.48 L763.56 762.40 L764.03 757.66 L762.69 751.27 L768.40 751.64 L768.66 746.89 L773.84 746.64 L776.78 744.32 L779.78 742.03 L789.82 745.70 L793.50 743.81 L792.81 738.33 L791.89 732.77 L792.55 728.54 L793.31 724.45 L792.52 719.25 L797.35 718.25 L804.35 718.75 L806.11 715.40 L811.90 714.84 L818.56 714.77 L818.69 710.25 L818.58 705.64 L823.77 704.42 L822.31 699.03 L815.68 690.60 L817.69 687.50 L816.18 682.37 L822.12 681.53 L817.45 674.74 L816.00 669.85 L824.62 670.32 L819.01 663.33 L824.51 662.07 L827.87 659.67 L821.66 652.68 L832.61 653.83 L833.84 650.36 L827.36 643.52 L824.42 638.38 L824.76 634.70 L825.37 631.16 L825.14 627.30 L826.24 623.99 L827.41 620.70 L827.81 617.14 L830.40 614.35 L831.71 611.10 L831.80 607.45 L833.25 604.25 L833.58 600.70 L841.48 599.37 L846.63 597.12 L847.16 593.54 L848.86 590.26 L852.07 587.35 L856.21 584.60 L856.33 580.87 L853.03 576.42 L852.93 572.71 L854.01 569.25 L858.93 566.50 L857.21 562.49 L858.71 559.06 L867.87 556.80 L869.46 553.27 L866.02 549.04 L863.20 544.97 L861.16 541.05 L859.72 537.25 L857.20 533.38 L853.86 529.50 L851.33 525.76 L849.00 522.08 L845.55 518.40 L843.74 514.85 L843.35 511.40 L842.64 507.95 L843.12 504.52 L841.92 501.09 L841.72 497.67 L840.16 494.28 L846.07 490.72 L858.29 486.80 L850.51 483.58 L850.82 480.05 L855.41 476.22 L846.39 473.34 L853.79 469.21 L850.31 465.98 L843.42 463.18 L861.20 457.61 L863.41 453.67 L845.36 452.45 L847.32 448.64 L848.12 444.96 L838.44 443.01 L830.23 440.99 L828.34 437.94 L826.18 434.96 L824.19 431.98 L823.20 428.81 L820.64 426.00 L818.53 423.13 L816.81 420.18 L826.08 414.37 L831.98 409.26 L831.37 405.86 L832.21 402.02 L835.77 397.30 L838.84 392.65 L838.92 388.88 L831.02 387.79 L830.28 384.35 L830.34 380.61 L825.99 378.48 L828.16 373.92 L825.24 371.29 L828.60 366.15 L834.03 360.03 L830.43 357.63 L824.38 356.38 L820.17 354.39 L816.51 352.23 L812.71 350.17 L807.84 348.70 L814.15 341.68 L815.04 337.26 L812.39 334.65 L815.72 328.82 L815.94 324.60 L810.94 323.28 L806.57 321.68 L800.46 321.20 L792.97 321.66 L789.04 320.06 L782.12 320.44 L785.26 314.40 L788.93 307.87 L780.21 309.60 L782.41 303.95 L781.33 300.50 L772.49 302.65 L766.08 303.20 L764.02 300.61 L762.39 297.69 L761.36 294.29 L758.68 292.18 L756.04 290.05 L755.02 286.59 L752.19 284.63 L749.14 282.88 L747.62 279.82 L743.88 278.74 L739.52 278.28 L736.44 276.71 L732.44 276.04 L728.62 275.27 L726.46 272.89 L724.52 270.30 L723.34 266.89 L722.66 262.89 L721.12 259.76 L720.14 255.97 L720.42 250.70 L722.06 243.72 L724.34 235.80 L717.58 238.50 L716.65 234.26 L713.92 232.18 L710.45 231.05 L709.96 226.08 L701.18 232.03 L700.12 227.81 L698.75 223.93 L689.96 230.49 L682.50 235.50 L678.80 235.24 L675.21 234.88 L671.59 234.63 L668.25 233.99 L665.09 233.13 L662.03 232.12 L658.97 231.14 L655.94 230.14 L652.92 229.16 L649.92 228.15 L647.80 225.54 L647.88 218.69 L644.98 217.37 L645.72 208.80 L642.12 208.76 L644.22 196.79 L643.12 191.17 L634.54 201.92 L636.23 189.94 L630.97 193.63 L626.85 194.86 L627.88 183.51 L619.61 195.21 L619.17 187.18 L621.94 170.02 L614.68 179.87 L609.30 184.99 L607.46 180.00 L603.34 181.77 L596.62 192.00 L590.74 200.30 L590.01 191.62 L585.14 197.07 L582.78 193.74 L579.88 192.28 L575.24 197.74 L574.17 188.82 L570.29 191.44 L567.93 187.40 L565.18 184.89 L561.79 185.48 L559.62 179.62 L556.35 179.37 L554.41 171.18 L551.57 167.77 L546.88 176.66 L544.40 170.59 L540.52 174.84 L537.56 171.92 L534.22 172.05 L529.86 183.26 L527.48 173.57 L524.02 175.89 L520.08 186.64 L516.59 193.03 L513.55 192.05 L510.49 191.31 L507.35 193.40 L504.28 193.93 L501.22 194.65 L498.17 196.56 L495.16 198.16 L492.16 198.76 L489.17 199.40 L486.19 200.03 L483.22 200.69 L480.25 201.32 L477.13 199.67 L473.75 195.62 L470.95 198.37 L465.75 178.17 L462.67 179.66 L460.32 186.78 L455.60 175.57 L453.78 185.71 L451.71 193.03 L449.09 196.20 L446.99 201.95 L442.68 195.41 L440.34 199.55 L437.40 200.44 L433.81 198.39 L431.00 199.94 L427.09 196.82 L425.02 201.38 L422.40 203.54 L419.53 204.67 L417.88 210.08 L415.55 212.83 L413.12 215.12 L410.68 217.28 L408.18 219.17 L404.22 216.71 L400.71 215.70 L397.77 216.44 L393.80 214.40 L390.63 214.65 L387.69 215.54 L385.47 218.19 L383.01 220.20 L380.65 222.37 L378.24 224.40 L375.88 226.49 L373.76 229.06 L371.16 230.54 L368.88 232.68 L366.12 233.81 L363.94 236.09 L361.64 238.10 L359.07 239.57 L357.08 242.09 L355.11 244.58 L352.87 246.59 L350.76 248.77 L348.64 250.90 L346.46 252.92 L344.20 254.79 L341.99 256.71 L339.76 258.61 L337.48 260.41 L335.17 262.16 L333.03 264.14 L330.80 265.98 L328.61 267.88 L326.55 269.95 L324.50 272.01 L322.46 274.06 L320.41 276.10 L318.34 278.11 L316.27 280.10 L314.21 282.10 L312.19 284.14 L310.17 286.17 L308.18 288.24 L306.23 290.33 L304.28 292.43 L302.39 294.58 L300.53 296.75 L298.67 298.92 L296.85 301.12 L295.04 303.33 L293.24 305.53 L291.44 307.73 L289.63 309.92 L287.87 312.15 L286.12 314.38 L284.40 316.64 L276.04 313.35 L270.99 312.99 L270.20 316.14 L263.74 314.82 L258.27 314.40 L259.43 319.09 L259.80 323.11 L257.88 325.40 L259.05 329.88 L259.81 333.98 L259.68 337.42 L258.43 340.08 L257.77 343.10 L256.42 345.66 L254.30 347.74 L252.81 350.22 L252.27 353.26 L250.41 355.51 L246.75 356.75 L246.84 360.12 L247.09 363.54 L244.67 365.52 L245.07 368.97 L245.68 372.48 L245.66 375.64 L245.18 378.54 L244.63 381.40 L244.27 384.33 L243.78 387.18 L243.22 389.99 L242.56 392.74 L242.00 395.52 L241.27 398.22 L240.45 400.89 L239.85 403.63 L238.99 406.27 L238.33 408.97 L237.70 411.68 L237.12 414.41 L236.56 417.13 L235.98 419.84 L233.87 422.09 L231.69 424.36 L231.12 427.09 L229.45 429.54 L228.16 432.10 L223.75 433.92 L221.48 436.32 L220.00 438.92 L216.83 441.19 L217.36 444.24 L217.98 447.29 L220.52 450.65 L221.56 453.70 L213.75 455.34 L200.95 456.40 L208.37 460.46 L202.66 462.70 L197.88 465.17 L207.59 469.25 L202.70 471.74 L197.25 474.27 L205.97 477.97 L201.89 480.66 L200.14 483.56 L199.54 486.54 L197.53 489.48 L203.26 492.65 L196.48 495.51 L196.05 498.55 L203.50 501.55 L210.48 504.41 L215.01 507.19 L217.06 509.97 L218.80 512.73 L219.99 515.48 L207.13 519.13 L203.87 522.32 L207.38 525.00 L202.35 528.43 L192.99 532.42 L199.42 534.79 L206.96 536.89 L205.82 540.02 L207.78 542.74 L218.90 543.99 L225.17 545.83 L211.75 551.03 L210.88 554.17 L220.56 555.26 L211.71 560.01 L216.09 562.07 L217.74 564.67 L211.58 569.12 L220.47 569.95 L215.61 574.20 L213.63 577.78 L223.58 578.06 L231.66 578.68 L234.58 580.72 L236.85 582.91 L238.24 585.36 L235.93 589.04 L229.17 594.35 L227.88 597.86 L230.13 600.11 L222.47 606.12 L220.84 609.96 L231.40 608.91 L233.31 611.26 L232.97 614.55 L238.41 615.32 L247.89 614.17 L248.20 617.08 L250.19 619.20 L242.12 626.24 L240.90 630.06 L249.64 628.82 L244.59 634.67 L248.69 635.74 L246.60 640.16 L248.69 642.30 L255.73 641.56 L248.53 649.11 L251.18 650.92 L260.53 648.54 L266.19 648.29 L268.23 650.27 L272.37 650.84 L275.53 652.00 L273.34 656.81 L267.43 664.36 L267.91 667.53 L271.18 668.68 L266.06 676.08 L262.97 682.15 L272.04 678.84 L277.45 678.22 L278.82 680.78 L284.15 680.05 L293.67 675.64 L296.59 676.69 L286.53 689.21 L291.73 688.36 L296.58 687.70 L291.66 696.13 L300.09 692.00 L299.08 696.87 L299.53 700.40 L307.64 696.18 L302.48 705.51 L306.30 705.62 L315.35 699.97 L320.85 697.95 L322.39 700.24 L324.91 701.42 L326.31 703.90 L324.15 710.66 L322.75 716.71 L325.13 718.21 L326.97 720.40 L323.06 730.08 L325.89 731.15 L333.22 726.08 L334.68 728.86 L337.28 730.08 L343.71 725.74 L347.01 725.76 L351.11 724.51 L351.37 729.06 L348.10 739.31 L352.03 738.36 L356.48 736.43 L355.82 742.96 L361.09 739.50 L360.92 745.42 L364.63 744.55 L367.71 744.72 L366.70 752.60 L371.61 749.30 L377.82 743.19 L382.60 739.61 L386.10 738.48 L389.25 737.97 L392.40 737.38 L391.93 744.91 L391.19 753.42 L394.12 753.55 L396.65 754.63 L395.22 765.76 L397.35 768.17 L403.95 758.66 L405.77 761.74 L408.23 763.12 L413.27 756.91 L417.94 751.36 L419.56 755.00 L418.67 767.10 L424.26 757.98 L426.64 759.45 L427.62 766.11 L432.74 757.44 L433.29 766.16 L436.43 764.86 L439.80 762.33 L440.43 772.02 L444.46 766.37 L448.91 757.91 L452.28 754.17 L455.20 752.53 L457.99 751.43 L460.49 751.91 L461.79 760.65 L463.79 765.47 L466.58 764.70 L468.58 770.64 L470.31 780.17 L473.32 778.26 L476.76 770.97 L479.33 772.95 L482.05 773.39 L485.44 761.73 L488.22 758.36 L490.71 761.14 L493.27 763.28 L495.74 773.76 L498.49 770.11 L501.19 768.96 L503.93 772.33 L506.62 771.03 L509.46 774.67 L511.89 767.51 L514.63 768.55 L517.67 773.90 L519.81 765.68 L521.78 757.42 L524.09 754.40 L526.43 752.16 L528.79 750.49 L531.14 748.99 L535.04 759.07 L538.39 763.95 L540.45 759.84 L543.68 763.25 L548.29 774.03 L550.50 770.69 L551.29 760.45 L554.11 760.99 L556.48 759.35 L557.01 749.76 L557.95 742.66 L559.64 739.12 L561.99 738.37 L564.43 737.95 L566.87 737.51 L569.12 736.44 L572.21 738.12 L574.98 738.63 L576.92 736.51 L579.75 737.12 L582.97 738.77 L584.83 736.49 L586.45 733.61 L588.78 732.72 L590.61 730.59 L592.21 727.93 L593.78 725.32 L595.85 723.95 L598.14 723.09 L600.25 721.85 L602.23 720.33 L604.30 719.02 L606.88 718.79 L608.44 716.46 L617.45 728.69 L622.33 732.46 L625.22 732.29 L629.10 733.86 L631.29 732.30 L634.87 733.16 L636.91 731.32 L636.69 725.76 L638.64 723.90 L640.62 722.11 L643.18 721.22 L645.61 720.12 L646.15 716.20 L653.20 721.82 L657.84 723.72 L658.88 720.48 L659.19 716.31 L659.49 712.25 L660.16 708.75 L661.01 705.58 L661.04 701.43 L660.69 696.92 L660.82 693.10 L660.80 689.20 L660.61 685.19 L661.85 682.90 L663.28 680.83 L665.67 679.83 L667.43 678.14 L669.37 676.63 L671.57 675.37 L672.90 673.24 L683.54 680.25 L686.14 679.19 L682.94 672.61 L689.72 675.47 L688.39 670.76 L689.22 668.11 L694.78 669.59 L689.75 661.90 L695.52 663.48 L708.02 670.42 L702.01 662.15 L697.03 654.93 L704.16 657.27 L700.83 651.52 L695.44 644.41 L694.78 640.93 L694.94 638.11 L694.68 635.02 L695.05 632.40 L695.00 629.54 L694.80 626.62 L695.47 624.29 L697.94 623.10 L707.44 626.15 L712.72 626.46 L711.16 622.70 L714.89 622.00 L717.16 620.44 L722.69 620.61 L722.23 617.50 L717.71 612.34 L723.73 612.63 L721.56 608.77 L726.01 608.17 L727.03 605.88 L728.39 603.74 L738.65 605.54 L739.63 603.12 L737.15 599.25 L734.68 595.47 L733.42 592.25 L732.78 589.32 L730.78 585.91 L734.59 584.67 L740.35 584.04 L740.09 581.26 L744.43 580.02 L748.84 578.71 L747.87 575.69 L745.56 572.31 L744.32 569.30 L742.93 566.29 L742.87 563.67 L742.03 560.87 L742.13 558.32 L750.51 557.70 L745.71 554.01 L743.47 550.97 L748.13 549.36 L742.45 545.72 L747.12 544.04 L745.81 541.28 L741.24 538.03 L748.79 536.68 L745.82 533.73 L740.80 530.59 L739.57 528.00 L739.49 525.57 L739.67 523.17 L738.85 520.68 L736.78 518.12 L734.76 515.60 L732.33 513.11 L730.87 510.71 L728.43 508.31 L727.84 506.01 L728.37 503.74 L729.04 501.46 L736.80 499.14 L740.26 496.73 L740.03 494.33 L741.06 491.89 L741.60 489.45 L748.46 486.66 L746.03 484.32 L740.12 482.29 L743.20 479.61 L741.54 477.32 L743.32 474.69 L741.20 472.47 L742.76 469.83 L750.91 466.27 L750.07 463.83 L745.39 462.00 L741.56 460.12 L738.49 458.17 L736.91 456.00 L733.90 454.13 L730.07 452.49 L727.13 450.73 L724.58 448.92 L720.85 447.44 L718.11 445.79 L716.97 443.76 L716.86 441.47 L716.79 439.15 L715.81 437.09 L716.33 434.59 L715.31 432.54 L720.31 428.55 L728.86 423.24 L721.08 423.38 L720.43 421.12 L723.40 417.53 L715.73 417.90 L720.96 413.37 L717.29 412.29 L711.81 412.03 L726.22 403.39 L726.27 400.68 L710.97 404.87 L712.61 401.56 L712.52 399.01 L703.63 400.72 L697.03 401.49 L695.11 400.00 L692.13 399.09 L690.19 397.66 L687.49 396.69 L684.87 395.71 L682.72 394.50 L683.82 391.40 L688.78 385.91 L691.93 381.37 L691.68 378.86 L690.29 377.05 L689.72 374.72 L692.41 370.16 L693.40 366.66 L683.85 370.50 L684.53 367.25 L684.88 364.17 L680.75 364.40 L682.00 360.60 L680.29 359.02 L683.42 353.60 L686.72 347.88 L683.65 347.30 L678.90 348.20 L678.04 345.84 L680.11 340.87 L673.62 343.48 L670.08 343.57 L677.02 333.88 L672.85 334.52 L667.57 336.33 L669.99 330.61 L669.04 328.16 L665.50 328.36 L661.72 328.88 L658.56 328.83 L655.70 328.51 L653.50 327.50 L650.01 327.98 L650.82 323.53 L652.75 317.60 L645.87 322.24 L645.00 319.64 L643.65 317.63 L640.18 318.33 L641.49 312.78 L636.72 315.28 L633.84 315.34 L636.16 308.12 L630.23 312.54 L624.79 316.48 L622.84 315.40 L620.92 314.29 L618.56 313.87 L615.96 313.87 L612.42 315.46 L609.33 316.43 L605.94 318.01 L603.00 318.92 L600.53 319.07 L598.92 317.70 L600.35 310.58 L603.03 300.71 L601.11 299.56 L601.67 293.32 L598.70 294.19 L594.31 298.20 L595.59 290.01 L591.91 292.62 L588.48 294.84 L586.87 292.90 L583.46 295.30 L583.98 287.99 L580.64 290.32 L577.17 293.20 L579.04 281.54 L577.45 279.07 L574.07 281.73 L570.85 284.15 L569.63 280.49 L567.20 280.55 L563.59 284.69 L561.66 283.26 L558.28 287.09 L554.36 293.32 L550.96 298.03 L548.21 300.54 L545.97 301.11 L543.80 301.51 L541.95 300.41 L539.85 300.50 L537.92 299.75 L535.78 300.14 L533.56 301.13 L532.97 291.96 L532.08 283.57 L528.61 292.72 L526.94 289.29 L525.07 287.03 L522.42 291.62 L520.98 284.75 L518.22 291.48 L516.04 292.60 L515.24 273.44 L512.72 277.80 L509.71 294.25 L507.87 288.26 L505.74 288.94 L503.64 287.75 L501.54 285.79 L499.43 297.09 L497.31 290.72 L495.23 291.25 L493.53 303.01 L491.91 311.21 L490.11 313.02 L488.08 310.48 L485.34 299.14 L482.90 294.01 L481.12 297.25 L478.80 294.61 L476.53 292.86 L473.94 288.89 L472.35 293.07 L470.99 298.27 L468.36 294.58 L466.93 298.73 L464.21 294.97 L461.87 293.77 L459.86 294.43 L455.74 284.81 L453.16 283.23 L451.87 287.60 L450.56 291.51 L448.98 294.04 L447.40 296.41 L446.21 300.08 L443.70 298.79 L440.03 293.65 L438.07 294.59 L435.17 292.50 L432.12 290.15 L430.17 291.27 L429.33 295.58 L428.31 299.15 L428.69 306.35 L428.06 310.50 L427.72 315.21 L427.10 318.98 L420.60 308.38 L420.69 313.89 L419.94 317.20 L415.09 311.29 L416.85 320.05 L412.71 315.95 L410.32 315.69 L411.94 323.52 L405.58 315.43 L404.33 317.50 L406.68 326.24 L407.50 331.81 L406.58 334.10 L405.27 335.64 L404.41 337.91 L403.07 339.33 L401.78 340.81 L400.69 342.59 L398.22 342.20 L397.09 343.89 L395.72 345.20 L393.64 345.48 L391.61 345.85 L385.51 340.59 L382.03 339.16 L379.88 339.61 L378.19 340.71 L374.63 339.40 L370.37 337.33 L370.16 340.37 L371.31 344.97 L369.77 346.27 L368.39 347.75 L364.26 346.12 L364.90 349.90 L361.56 349.24 L353.89 344.05 L352.42 345.60 L353.47 349.74 L353.98 353.23 L354.18 356.33 L354.00 359.00 L354.64 362.40 L355.61 366.04 L356.71 369.70 L357.27 372.79 L358.60 376.49 L359.36 379.62 L358.84 381.59 L358.20 383.45 L356.87 384.74 L356.45 386.75 L355.14 388.05 L355.34 390.49 L348.59 387.75 L338.57 382.80 L344.44 389.42 L342.80 390.61 L337.97 389.64 L343.67 395.79 L336.30 393.22 L338.36 396.86 L341.95 401.36 L325.15 393.29 L323.09 394.45 L337.19 405.05 L333.54 405.14 L331.61 406.26 L339.10 412.53 L344.86 417.66 L344.77 419.59 L345.84 422.08 L345.82 424.00 L345.81 425.91 L346.67 428.19 L347.26 430.33 L347.15 432.11 L337.91 429.94 L330.34 428.68 L329.88 430.48 L327.42 431.48 L322.86 431.71 L317.54 431.75 L314.52 432.72 L322.40 437.58 L320.22 438.83 L318.19 440.16 L319.84 442.69 L316.17 443.54 L317.64 445.98 L310.72 445.99 L305.14 446.50 L307.18 449.13 L310.98 452.14 L313.79 454.83 L315.02 457.08 L316.96 459.46 L318.82 461.77 L310.24 461.94 L307.73 463.43 L307.45 465.37 L302.04 466.43 L300.68 468.25 L303.94 470.78 L306.70 473.16 L312.46 475.87 L318.51 478.49 L321.50 480.65 L327.60 483.06 L320.92 484.21 L314.41 485.50 L322.57 487.92 L316.22 489.34 L316.10 491.17 L319.16 493.13 L312.40 494.75 L319.76 496.76 L320.69 498.57 L313.13 500.38 L323.48 502.12 L332.10 503.70 L331.54 505.40 L332.64 507.04 L333.05 508.70 L333.54 510.34 L335.86 511.84 L338.20 513.30 L340.85 514.69 L343.19 516.06 L344.43 517.50 L345.22 518.98 L344.37 520.67 L340.37 522.83 L338.94 524.68 L337.00 526.64 L333.58 528.92 L331.08 531.09 L324.31 534.16 L317.39 537.40 L325.79 537.50 L323.38 539.87 L324.18 541.54 L325.25 543.14 L322.85 545.62 L332.96 544.80 L329.86 547.46 L328.31 549.75 L339.04 548.39 L348.69 547.14 L350.54 548.21 L352.52 549.21 L354.76 550.08 L356.38 551.13 L357.52 552.34 L358.52 553.58 L359.52 554.82 L360.47 556.06 L361.48 557.27 L362.48 558.47 L363.39 559.70 L364.33 560.92 L365.22 562.15 L366.04 563.40 L366.85 564.65 L349.49 574.95 L346.98 578.12 L357.55 574.53 L348.07 581.44 L352.11 581.19 L354.33 581.87 L349.03 586.85 L359.71 582.58 L355.82 586.83 L339.39 598.92 L350.77 593.98 L363.25 588.04 L356.23 594.61 L363.96 591.49 L375.64 585.45 L381.55 583.15 L382.67 584.13 L383.67 585.18 L384.71 586.21 L385.74 587.23 L386.77 588.25 L387.83 589.24 L386.20 592.41 L381.93 597.85 L382.55 599.34 L382.44 601.46 L378.71 606.81 L378.99 608.74 L373.06 616.38 L372.69 619.09 L380.72 613.83 L377.53 619.24 L382.27 616.94 L381.11 620.48 L383.39 620.56 L392.72 613.15 L386.62 622.01 L388.92 621.95 L396.96 615.43 L402.01 612.01 L402.60 613.60 L402.15 616.47 L405.11 615.27 L407.40 614.80 L408.88 615.31 L411.32 614.56 L413.70 613.82 L415.21 614.18 L416.69 614.55 L418.18 614.91 L419.69 615.21 L421.21 615.48 L422.58 615.94 L423.96 616.38 L423.91 619.03 L413.92 637.69 L417.15 635.51 L421.15 631.92 L416.94 642.16 L423.13 634.64 L430.78 624.11 L434.71 619.87 L436.06 620.24 L436.95 621.48 L437.43 623.56 L438.66 624.20 L439.74 625.14 L438.89 630.22 L440.84 629.43 L442.39 629.43 L442.70 632.29 L445.04 630.44 L447.48 628.23 L448.60 629.15 L450.33 628.53 L452.10 627.72 L453.71 627.30 L453.63 631.60 L453.22 637.13 L454.35 638.33 L455.20 640.47 L455.79 643.55 L457.54 642.94 L459.53 641.38 L461.30 640.52 L463.32 638.59 L464.90 638.17 L466.42 637.97 L468.42 635.62 L470.06 634.67 L471.46 634.74 L473.18 633.13 L474.72 632.35 L476.15 632.00 L477.70 630.90 L479.19 629.99 L480.59 629.55 L481.93 629.36 L483.26 629.29 L484.60 629.08 L485.92 628.98 L487.23 628.92 L488.54 628.77 L489.85 628.59 L491.16 628.40 L492.45 628.27 L493.75 628.09 L495.04 627.91 L496.33 627.75 L497.60 627.68 L498.88 627.53 L500.16 627.39 L501.44 627.73 L502.71 627.66 L503.98 627.38 L505.28 627.85 L506.54 627.51 L507.79 626.97 L509.05 626.84 L510.27 626.20 L511.48 625.44 L512.70 624.97 L513.90 624.46 L515.36 626.05 L516.55 625.41 L517.70 624.52 L519.14 625.57 L520.28 624.70 L521.36 623.53 L522.50 622.77 L523.63 622.04 L524.77 621.40 L525.91 620.81 L527.04 620.24 L528.18 619.69 L529.32 619.17 L530.46 618.67 L531.59 618.17 L534.95 625.68 L537.34 629.23 L538.67 628.99 L541.51 633.60 L543.62 635.60 L544.80 634.64 L545.54 632.41 L546.08 629.76 L546.97 628.17 L547.49 625.69 L547.08 620.95 L547.24 617.85 L548.01 616.39 L548.88 615.22 L549.69 613.95 L550.52 612.75 L551.57 612.07 L553.22 612.69 L554.68 612.83 L555.91 612.50 L557.66 613.17 L559.37 613.70 L561.41 614.79 L561.72 612.64 L562.04 610.60 L563.42 610.44 L563.44 607.97 L563.43 605.51 L563.77 603.73 L564.25 602.20 L564.92 601.01 L565.46 599.64 L566.02 598.33 L566.69 597.22 L567.35 596.11 L567.99 594.99 L568.74 594.03 L569.45 593.03 L570.19 592.09 L570.94 591.17 L571.69 590.25 L572.43 589.35 L573.18 588.44 L573.89 587.50 L574.61 586.58 L575.32 585.66 L576.02 584.73 L576.72 583.81 L577.41 582.89 L578.10 581.96 L578.78 581.04 L579.45 580.11 L580.12 579.19 L580.77 578.25 L581.41 577.31 L582.05 576.37 L582.67 575.42 L583.28 574.47 L583.85 573.48 L584.45 572.52 L585.02 571.54 L585.51 570.51 L586.04 569.52 L586.56 568.52 L587.04 567.49 L587.53 566.48 L592.56 568.85 L595.51 569.57 L596.63 568.92 L602.71 571.72 L603.77 570.93 L605.66 570.68 L606.37 569.62 L603.63 566.36 L604.87 565.69 L603.79 563.57 L602.51 561.38 L604.40 561.11 L604.91 560.00 L605.44 558.92 L606.05 557.88 L607.04 557.03 L607.51 555.91 L606.77 554.17 L607.23 553.07 L606.97 551.61 L605.79 549.75 L604.52 547.88 L603.63 546.23 L602.76 544.61 L602.06 543.10 L601.49 541.66 L600.91 540.25 L600.55 538.95 L600.27 537.69 L600.08 536.48 L599.99 535.32 L599.92 534.18 L599.84 533.04 L599.78 531.91 L599.80 530.82 L599.77 529.72 L599.76 528.64 L599.80 527.57 L599.83 526.51 L599.87 525.45 L599.92 524.41 L599.95 523.36 L599.98 522.31 L600.01 521.27 L600.04 520.23 L600.05 519.20 L600.06 518.16 L600.06 517.13 L600.04 516.10 L600.01 515.07 L599.98 514.04 L599.92 513.02 L599.82 511.99 L599.78 510.98 L599.63 509.95 L599.46 508.93 L599.36 507.92 L599.18 506.91 L599.00 505.90 L598.85 504.90 L598.71 503.91 L598.56 502.91 L598.40 501.92 L598.24 500.94 Z"/>
  <svg class="pausebutton" id="pausebutton">
    <circle cx="500" cy="500" id="pausestart" class="pausestart" r="52.65"/>
    <rect height="50.02" width="10.00" y="473.68" rx="2.00" ry="2.00" x="479.99" class="pausesymbol"/>
    <rect height="50.02" width="10.00" y="473.68" rx="2.00" ry="2.00" x="510.00" class="pausesymbol"/>
    <polygon points="530.01,500 479.99,530.01 479.99,469.99" class="playsymbol"/>
  </svg>
  <polygon id="playback-head" class="playback-head" points="941.65,500 921.65,540 961.65,540"/>
</svg>