<?xml-stylesheet href="../../style/waveformjs.css" type="text/css"?>
<svg xmlns="http://www.w3.org/2000/svg" xmlns:xlink="http://www.w3.org/1999/xlink" width="100%" height="100%" viewBox="0 0 1000 1000">
  <path class="svg-wave" id="sp" d="M598.03 500.00 L598.20 500.98 L598.37 501.97 L598.52 502.96 L598.66 503.95 L598.79 504.94 L598.91 505.94 L599.02 506.94 L599.12 507.95 L599.21 508.95 L599.28 509.96 L599.33 510.97 L599.36 511.98 L599.36 512.99 L599.30 513.99 L599.19 514.99 L598.95 515.97 L598.55 516.92 L597.89 517.81 L596.05 518.47 L591.82 518.61 L584.95 518.11 L582.04 518.35 L583.07 519.45 L579.65 519.49 L579.09 520.19 L582.36 521.91 L583.77 523.18 L585.08 524.47 L580.55 524.04 L577.20 523.88 L576.59 524.53 L570.60 523.39 L567.10 522.98 L571.13 525.16 L567.06 524.48 L568.92 525.94 L571.85 527.87 L570.06 527.98 L567.32 527.67 L565.10 527.52 L569.05 530.01 L564.36 528.74 L560.88 527.92 L566.47 531.29 L570.13 533.88 L566.75 533.07 L571.12 536.13 L573.84 538.44 L572.47 538.66 L569.72 538.09 L567.88 537.97 L568.49 539.22 L564.42 537.75 L564.89 538.90 L564.45 539.51 L564.27 540.29 L564.22 541.16 L562.42 540.90 L563.35 542.42 L559.14 540.46 L558.00 540.54 L559.38 542.39 L557.33 541.80 L557.14 542.54 L559.77 545.43 L558.74 545.59 L558.29 546.18 L555.55 544.92 L555.72 545.99 L555.24 546.52 L552.77 545.36 L555.13 548.35 L557.35 551.32 L559.24 554.09 L558.74 554.72 L563.95 560.78 L563.30 561.38 L562.61 561.94 L560.36 560.92 L558.57 560.31 L557.60 560.51 L553.55 557.39 L550.43 555.15 L551.02 556.92 L547.31 553.86 L548.37 556.19 L548.82 557.86 L548.15 558.25 L548.28 559.60 L547.04 559.27 L547.74 561.41 L546.34 560.86 L545.78 561.39 L546.48 563.64 L546.48 564.99 L545.76 565.36 L543.28 563.16 L542.89 563.95 L542.39 564.58 L540.83 563.58 L542.17 567.15 L544.24 572.03 L544.28 573.73 L543.48 574.07 L546.93 581.82 L545.65 581.46 L544.34 581.01 L542.16 578.89 L541.44 579.45 L539.75 578.11 L538.47 577.49 L538.24 579.00 L536.28 576.90 L536.24 578.86 L534.42 576.92 L534.13 578.35 L532.71 577.20 L531.00 575.24 L529.91 574.71 L529.63 576.22 L528.31 575.02 L527.98 576.46 L527.33 577.06 L526.75 577.89 L526.05 578.39 L524.28 575.60 L524.94 580.39 L523.70 579.19 L522.19 576.95 L523.13 583.32 L524.30 591.05 L523.87 593.17 L523.34 595.05 L523.95 601.91 L522.59 600.64 L520.87 597.54 L519.57 596.17 L518.79 597.31 L516.86 592.23 L514.80 585.82 L514.81 591.32 L512.84 584.53 L512.30 586.78 L511.90 590.49 L510.97 590.38 L510.44 593.81 L509.24 591.31 L508.45 592.80 L507.69 595.01 L506.34 589.43 L505.77 594.83 L504.85 595.42 L503.85 594.27 L502.81 591.30 L501.88 590.54 L501.02 594.86 L500.07 590.23 L499.19 588.03 L498.18 594.71 L497.13 598.30 L496.25 595.64 L495.00 601.60 L493.88 603.24 L492.90 602.42 L492.10 599.59 L491.23 598.10 L490.25 597.93 L489.53 595.53 L488.48 596.17 L487.58 595.60 L486.53 596.12 L485.64 595.54 L484.87 594.25 L483.80 594.80 L483.64 590.34 L482.94 589.11 L481.39 592.16 L481.08 589.12 L480.02 589.70 L478.23 593.30 L477.38 592.74 L476.60 591.94 L476.15 589.92 L475.25 589.69 L474.09 590.38 L473.81 588.01 L472.35 589.64 L469.91 594.19 L468.40 595.61 L467.33 595.63 L463.46 603.56 L462.94 601.77 L462.53 599.78 L462.19 597.72 L461.53 596.55 L461.73 593.32 L462.39 589.16 L461.57 588.62 L459.60 590.66 L459.63 588.22 L458.75 587.80 L456.28 590.70 L455.40 590.20 L455.99 586.81 L455.57 585.52 L453.45 587.44 L453.51 585.27 L452.72 584.69 L450.82 586.06 L449.71 585.98 L448.83 585.52 L449.32 582.82 L447.08 584.56 L446.98 582.86 L447.88 579.69 L445.27 581.88 L440.17 587.60 L439.96 586.05 L438.79 585.88 L432.05 593.36 L432.65 590.61 L432.80 588.54 L432.59 587.00 L432.07 585.89 L432.83 583.20 L432.25 582.22 L429.71 583.59 L430.99 580.42 L429.31 580.73 L429.41 579.00 L428.50 578.43 L428.23 577.17 L429.99 573.78 L429.65 572.66 L427.44 573.46 L428.90 570.56 L427.87 570.16 L425.52 571.01 L425.08 570.02 L425.58 568.17 L424.17 568.08 L420.79 569.70 L422.49 566.84 L422.36 565.61 L415.23 570.19 L409.08 573.76 L408.02 573.11 L400.83 577.22 L393.14 581.50 L394.77 578.61 L397.22 575.19 L400.82 571.04 L404.54 566.94 L407.79 563.30 L410.51 560.12 L409.09 559.77 L408.60 558.79 L405.67 559.35 L405.89 557.90 L404.79 557.28 L404.30 556.28 L405.00 554.59 L403.78 554.02 L403.38 552.98 L401.04 552.99 L399.50 552.53 L402.82 549.56 L399.99 549.75 L396.74 550.08 L401.23 546.69 L399.40 546.33 L398.91 545.34 L399.36 543.93 L394.16 544.95 L390.05 545.40 L390.30 544.02 L382.54 545.77 L380.10 545.35 L382.25 543.20 L383.76 541.33 L383.21 540.21 L382.33 539.20 L384.88 537.08 L388.95 534.55 L379.29 536.23 L381.29 534.34 L383.40 532.47 L375.81 533.25 L374.02 532.38 L377.27 530.24 L381.07 528.05 L376.89 527.73 L379.10 525.97 L386.08 523.28 L378.33 523.60 L375.92 522.78 L379.21 520.93 L383.30 519.02 L373.34 519.35 L373.56 518.02 L382.06 515.61 L376.29 515.12 L367.46 514.85 L373.22 512.92 L375.29 511.45 L366.82 510.89 L367.64 509.49 L370.73 507.97 L370.90 506.67 L370.18 505.40 L372.23 504.04 L373.48 502.73 L375.44 501.44 L369.09 500.21 L371.76 498.92 L371.64 497.64 L365.69 496.18 L366.10 494.85 L369.37 493.67 L374.20 492.64 L369.60 491.07 L373.84 490.09 L377.57 489.15 L373.35 487.50 L371.26 485.99 L374.83 485.11 L378.22 484.28 L369.16 481.77 L373.66 481.11 L381.85 481.13 L376.42 478.99 L369.91 476.54 L374.09 475.99 L373.23 474.51 L365.34 471.52 L367.05 470.49 L368.75 469.49 L367.76 467.86 L368.20 466.57 L372.38 466.27 L375.01 465.62 L370.75 463.06 L369.95 461.42 L373.77 461.17 L368.59 458.14 L365.75 455.75 L367.35 454.80 L371.88 454.91 L376.18 455.02 L374.45 452.97 L377.64 452.76 L380.59 452.53 L378.47 450.27 L376.98 448.22 L380.04 448.09 L382.02 447.54 L374.85 442.85 L380.57 444.01 L384.43 444.40 L381.07 441.31 L382.18 440.39 L385.75 440.75 L385.09 438.94 L385.01 437.42 L385.99 436.47 L387.05 435.57 L385.89 433.39 L384.85 431.22 L386.02 430.37 L389.17 430.76 L380.13 423.44 L383.37 423.85 L386.51 424.27 L380.37 418.43 L380.91 417.05 L383.55 417.14 L387.35 418.14 L387.33 416.39 L387.86 415.03 L393.06 417.27 L391.83 414.58 L390.69 411.89 L392.90 411.89 L397.49 413.94 L392.59 407.98 L392.56 406.07 L399.26 410.14 L397.81 406.99 L394.33 401.87 L395.89 401.36 L400.17 403.51 L395.57 397.02 L395.27 394.64 L397.44 394.74 L399.20 394.46 L400.81 394.04 L401.36 392.49 L404.13 393.39 L408.75 396.46 L404.35 389.25 L406.95 390.06 L409.43 390.80 L406.20 384.57 L407.17 383.40 L410.73 385.54 L414.29 387.81 L412.01 382.41 L415.72 384.99 L420.14 388.70 L417.37 382.37 L417.64 380.23 L420.44 381.79 L423.55 383.92 L420.52 376.64 L422.67 377.31 L427.78 382.84 L426.61 378.23 L425.62 373.75 L427.66 374.35 L429.08 373.91 L426.40 366.03 L427.44 364.74 L429.24 364.87 L430.85 364.67 L432.54 364.66 L434.13 364.46 L437.16 367.34 L437.64 364.89 L438.05 362.17 L440.50 364.00 L440.43 360.05 L440.25 355.63 L442.29 356.50 L444.85 358.81 L446.87 359.87 L446.85 355.47 L450.50 361.12 L452.23 361.60 L452.68 358.35 L454.13 357.98 L456.56 360.76 L458.80 363.14 L457.64 353.99 L460.16 357.38 L463.38 363.64 L463.35 357.86 L463.27 351.46 L465.51 354.27 L467.17 354.80 L466.67 345.42 L468.31 345.55 L470.09 346.47 L471.60 346.01 L472.82 343.89 L475.01 347.46 L477.16 351.31 L477.93 346.05 L479.27 344.34 L481.36 348.50 L482.22 342.46 L483.40 338.49 L485.26 340.92 L487.14 344.31 L488.76 345.07 L490.28 344.44 L492.10 349.36 L493.54 347.81 L495.02 346.40 L496.54 345.36 L498.13 348.69 L499.64 348.98 L501.20 342.19 L502.66 348.86 L504.09 351.77 L505.89 343.48 L507.55 341.60 L508.94 344.98 L510.69 342.14 L512.30 341.90 L514.07 339.84 L515.10 345.81 L516.43 347.94 L518.87 340.32 L520.28 341.98 L521.81 342.52 L523.86 339.56 L525.56 339.20 L527.14 339.61 L528.68 340.20 L530.36 340.06 L531.94 340.47 L533.29 341.98 L534.87 342.29 L536.21 343.67 L537.27 346.11 L538.95 345.91 L540.71 345.49 L542.22 346.02 L544.10 345.23 L546.23 343.73 L548.23 342.76 L550.06 342.42 L551.52 343.28 L553.12 343.71 L555.19 342.79 L556.88 343.02 L557.56 345.96 L559.66 345.10 L560.51 347.44 L562.65 346.54 L564.14 347.27 L565.14 349.14 L566.80 349.44 L566.48 354.13 L569.88 350.65 L570.70 352.74 L570.95 355.93 L575.30 350.88 L577.26 350.73 L577.53 353.81 L576.71 358.78 L580.24 355.75 L580.35 358.88 L578.95 364.51 L583.88 359.31 L585.65 359.56 L586.34 361.55 L586.46 364.40 L590.59 361.01 L592.53 361.09 L589.38 368.68 L592.49 366.99 L598.07 361.93 L597.20 366.01 L596.52 369.72 L602.56 364.42 L603.68 365.74 L604.92 366.92 L607.95 365.85 L608.52 367.87 L608.83 370.17 L608.82 372.78 L608.59 375.60 L613.33 372.76 L612.27 376.45 L614.07 376.97 L619.61 373.55 L620.43 375.21 L619.59 378.53 L620.56 379.97 L626.84 376.22 L623.45 381.92 L623.38 384.32 L629.14 381.32 L627.11 385.52 L625.22 389.47 L624.58 392.23 L632.05 388.06 L630.53 391.57 L625.69 397.70 L630.58 395.86 L637.32 392.73 L634.49 397.08 L635.67 398.32 L642.72 395.24 L642.98 397.24 L643.79 398.82 L646.40 399.15 L645.90 401.64 L645.52 404.00 L644.47 406.75 L646.51 407.49 L649.35 407.78 L647.03 411.23 L651.45 410.61 L655.77 410.15 L654.27 413.06 L651.56 416.58 L651.31 418.67 L654.01 419.19 L650.68 422.86 L652.28 423.95 L657.47 423.31 L657.44 425.27 L656.03 427.84 L655.55 429.94 L663.70 428.23 L659.06 432.15 L656.74 434.99 L666.96 432.70 L670.18 433.37 L668.80 435.85 L679.37 433.88 L683.84 434.31 L686.15 435.57 L687.70 437.13 L688.38 439.00 L687.48 441.35 L685.78 443.92 L683.81 446.51 L684.54 448.29 L687.15 449.58 L688.51 451.22 L691.59 452.47 L695.20 453.64 L696.79 455.33 L695.86 457.60 L695.70 459.68 L695.59 461.74 L696.51 463.59 L695.94 465.72 L694.72 467.94 L697.14 469.56 L697.53 471.52 L696.25 473.71 L695.76 475.76 L696.22 477.70 L698.71 479.42 L696.63 481.62 L696.96 483.58 L699.70 485.36 L701.82 487.23 L700.44 489.33 L700.62 491.33 L702.87 493.27 L701.84 495.32 L701.90 497.34 L701.17 499.36 L702.02 501.38 L701.58 503.39 L698.07 505.31 L697.43 507.27 L696.36 509.20 L698.99 511.32 L698.76 513.30 L699.88 515.38 L705.42 517.88 L704.79 519.89 L703.89 521.86 L702.71 523.79 L701.87 525.74 L700.59 527.62 L700.48 529.65 L698.48 531.38 L698.49 533.42 L697.64 535.31 L693.48 536.57 L693.05 538.49 L691.39 540.16 L694.88 542.93 L693.88 544.75 L692.71 546.51 L698.39 549.98 L700.04 552.53 L699.17 554.44 L698.07 556.27 L701.48 559.43 L699.92 561.15 L698.64 562.93 L697.04 564.60 L695.55 566.29 L694.71 568.18 L691.51 569.21 L689.08 570.48 L686.65 571.71 L688.75 574.69 L690.27 577.50 L689.12 579.25 L694.09 583.62 L694.85 586.27 L692.56 587.57 L690.36 588.88 L688.86 590.49 L686.92 591.87 L685.01 593.24 L684.13 595.12 L682.52 596.61 L680.85 598.05 L677.05 598.30 L675.18 599.56 L672.58 600.38 L673.13 603.03 L676.06 607.18 L673.63 608.09 L676.85 612.56 L679.12 616.54 L679.34 619.25 L677.04 620.29 L676.51 622.53 L676.27 625.00 L674.58 626.44 L672.97 627.93 L670.76 628.96 L669.91 631.00 L667.38 631.74 L665.32 632.82 L662.68 633.40 L659.95 633.86 L662.12 638.45 L660.52 639.88 L659.51 641.83 L663.39 648.24 L661.86 649.83 L659.55 650.68 L657.91 652.15 L655.98 653.33 L653.57 654.01 L652.23 655.74 L649.62 656.17 L647.89 657.49 L645.77 658.37 L643.62 659.20 L641.06 659.54 L638.92 660.33 L639.91 664.77 L638.20 666.09 L636.10 666.94 L636.51 670.90 L635.78 673.52 L632.92 673.41 L630.21 673.44 L629.49 676.12 L627.23 676.72 L625.78 678.44 L624.19 679.99 L622.53 681.43 L620.22 681.92 L618.81 683.75 L616.69 684.49 L614.76 685.52 L614.44 689.20 L612.33 689.98 L610.82 691.77 L609.75 694.39 L607.48 694.89 L604.83 694.66 L602.29 694.59 L600.13 695.20 L597.92 695.68 L595.64 695.99 L592.93 695.38 L591.13 696.63 L588.93 697.02 L587.39 698.90 L585.44 699.86 L583.71 701.37 L581.73 702.29 L579.10 701.56 L577.24 702.76 L574.88 702.63 L572.71 702.97 L570.69 703.73 L568.63 704.38 L566.88 705.95 L565.18 707.78 L563.03 708.20 L561.54 710.86 L560.00 713.50 L557.90 714.21 L555.77 714.85 L553.86 716.35 L551.64 716.65 L549.54 717.47 L547.30 717.64 L545.08 717.91 L542.78 717.78 L540.48 717.51 L538.26 717.71 L535.84 716.60 L533.83 717.99 L531.81 719.37 L529.75 720.74 L527.63 721.73 L525.69 724.42 L523.51 725.29 L521.15 724.35 L518.87 724.13 L516.58 723.72 L514.34 723.82 L512.10 723.85 L509.81 722.81 L507.62 724.23 L505.40 725.33 L503.14 724.43 L500.90 724.92 L498.64 726.02 L496.41 724.25 L494.19 723.25 L491.96 722.99 L489.74 722.78 L487.45 723.83 L485.20 723.91 L482.82 725.56 L480.45 726.73 L478.01 728.30 L475.58 729.50 L473.35 728.64 L470.82 730.36 L468.43 730.64 L466.23 729.63 L464.06 728.51 L461.77 728.13 L459.31 728.78 L456.87 729.20 L454.48 729.24 L452.00 729.68 L449.60 729.69 L447.53 728.17 L445.53 726.50 L443.53 724.89 L441.42 723.80 L438.84 724.48 L436.91 722.74 L434.54 722.60 L431.83 723.52 L429.41 723.44 L427.43 721.95 L424.68 722.80 L422.34 722.35 L420.39 720.82 L417.89 720.80 L415.93 719.33 L413.79 718.36 L411.79 717.04 L409.43 716.61 L407.10 716.10 L405.21 714.54 L402.81 714.17 L400.54 713.47 L398.42 712.44 L395.55 712.95 L393.43 711.88 L391.07 711.28 L388.90 710.30 L386.56 709.63 L383.93 709.46 L381.93 708.13 L379.58 707.41 L377.51 706.20 L375.87 704.28 L374.45 702.04 L373.20 699.56 L372.20 696.78 L369.45 696.67 L367.01 696.06 L365.97 693.41 L362.97 693.57 L362.00 690.86 L361.40 687.71 L361.03 684.33 L362.15 679.08 L363.78 673.35 L360.80 673.55 L359.82 671.24 L361.39 665.90 L359.34 664.97 L355.12 666.52 L356.05 662.14 L353.40 661.84 L349.17 663.20 L347.63 661.60 L342.52 663.71 L340.72 662.30 L338.93 660.87 L337.53 659.05 L338.44 655.03 L333.77 656.35 L333.45 653.55 L333.09 650.81 L331.85 648.91 L331.14 646.55 L329.60 644.93 L332.08 639.95 L325.67 642.36 L325.41 639.68 L326.20 636.22 L318.67 639.22 L315.24 638.94 L314.59 636.55 L307.08 639.12 L304.04 638.36 L302.74 636.34 L304.17 632.48 L303.61 630.01 L301.96 628.28 L305.97 622.94 L307.88 619.05 L300.38 620.96 L301.62 617.51 L303.18 613.95 L296.60 615.05 L294.52 613.53 L296.53 609.78 L296.84 607.00 L296.04 604.83 L295.92 602.33 L296.14 599.68 L295.61 597.42 L296.49 594.51 L294.61 592.90 L294.54 590.47 L293.37 588.53 L288.81 587.99 L289.66 585.18 L287.91 583.43 L279.61 584.16 L277.96 582.26 L277.94 579.75 L268.12 580.67 L267.61 578.25 L266.81 575.93 L267.94 573.00 L269.27 570.05 L267.92 567.94 L269.09 565.10 L269.37 562.53 L268.08 560.40 L266.56 558.31 L266.94 555.75 L267.15 553.24 L266.43 550.95 L267.64 548.26 L266.14 546.13 L268.38 543.29 L267.91 540.98 L266.81 538.78 L270.54 535.80 L271.68 533.29 L269.27 531.29 L268.42 529.05 L268.87 526.65 L265.09 524.70 L266.28 522.22 L264.98 519.97 L257.62 518.16 L260.28 515.55 L258.99 513.22 L248.94 511.25 L250.07 508.70 L251.75 506.15 L253.24 503.65 L253.99 501.18 L255.61 498.72 L258.93 496.33 L261.40 493.98 L256.19 491.41 L258.48 489.07 L263.40 486.92 L256.11 484.07 L256.67 481.66 L258.82 479.40 L260.89 477.16 L261.20 474.78 L264.07 472.69 L264.23 470.32 L264.45 467.95 L269.27 466.26 L264.60 463.16 L269.53 461.57 L265.90 458.56 L266.36 456.22 L268.88 454.30 L262.32 450.53 L254.74 446.38 L255.53 443.99 L250.94 440.31 L242.39 435.53 L245.01 433.47 L250.02 432.10 L252.08 429.99 L252.04 427.29 L255.98 425.79 L258.10 423.79 L256.12 420.47 L256.65 417.94 L259.20 416.11 L260.28 413.79 L260.71 411.23 L263.40 409.53 L267.27 408.33 L270.51 406.94 L268.35 403.36 L274.02 403.06 L275.87 401.19 L277.81 399.38 L278.21 396.88 L279.92 394.98 L284.69 394.60 L279.25 389.19 L282.22 387.94 L286.02 387.18 L281.55 382.01 L279.20 377.88 L281.82 376.46 L277.95 371.32 L275.48 366.87 L277.28 364.91 L280.98 364.14 L283.45 362.66 L284.13 360.04 L291.01 361.51 L295.50 361.52 L290.35 354.96 L294.60 354.84 L299.11 354.99 L294.54 348.55 L295.52 346.09 L299.89 346.22 L302.53 345.08 L305.48 344.23 L308.66 343.61 L309.94 341.46 L311.60 339.62 L316.29 340.42 L313.76 334.93 L316.40 333.96 L320.11 334.01 L318.06 328.72 L321.97 329.01 L323.63 327.19 L320.14 320.20 L323.80 320.30 L326.65 319.64 L326.10 315.41 L323.36 308.69 L327.22 309.09 L329.78 308.09 L328.17 302.33 L330.18 300.65 L332.68 299.56 L335.32 298.67 L337.24 296.89 L338.60 294.41 L341.54 293.95 L343.63 292.41 L345.81 290.98 L350.20 292.62 L353.31 292.59 L353.10 287.83 L357.00 288.98 L360.90 290.24 L361.32 286.26 L364.85 287.07 L367.25 286.16 L370.84 287.23 L371.10 282.78 L372.85 280.77 L376.63 282.30 L375.94 275.89 L374.51 267.85 L378.25 269.28 L379.68 266.37 L377.66 256.49 L380.59 256.28 L383.52 256.11 L386.53 256.18 L389.40 255.99 L392.90 257.29 L396.92 259.93 L399.65 259.68 L403.11 261.30 L405.39 260.05 L407.32 257.88 L409.99 257.61 L410.50 251.40 L413.72 252.63 L417.11 254.48 L418.85 251.44 L422.02 252.81 L425.09 253.98 L427.31 252.43 L429.76 251.60 L432.24 250.89 L435.58 253.47 L436.83 247.97 L439.62 248.45 L442.75 250.52 L444.04 244.44 L444.86 235.57 L447.94 237.23 L449.90 233.13 L451.09 224.28 L454.05 225.02 L457.28 227.60 L460.26 228.94 L462.50 225.10 L465.56 227.16 L468.34 227.26 L470.71 223.62 L473.48 223.38 L476.35 224.30 L479.14 224.54 L481.88 224.04 L484.81 226.87 L487.68 229.79 L490.42 230.77 L492.98 225.74 L495.80 230.54 L498.48 227.45 L501.23 222.74 L503.96 225.40 L506.63 228.50 L509.27 230.94 L512.19 225.71 L514.61 231.88 L517.08 235.26 L520.33 227.33 L523.29 224.82 L525.74 228.23 L529.19 221.48 L532.17 220.06 L534.91 220.91 L537.35 223.83 L539.84 226.08 L542.71 225.65 L545.01 228.70 L547.72 229.20 L550.64 228.53 L553.59 227.87 L556.11 229.37 L558.73 230.32 L561.46 230.77 L563.15 235.57 L565.57 237.09 L569.70 231.97 L571.73 235.08 L573.45 239.10 L578.23 232.42 L580.84 233.41 L582.52 237.35 L583.73 242.53 L588.00 238.34 L590.83 238.62 L591.27 245.57 L595.00 243.29 L599.57 238.98 L602.51 239.13 L604.20 242.43 L610.70 234.04 L612.99 236.01 L615.07 238.43 L616.73 241.69 L618.80 243.95 L621.09 245.72 L621.37 251.55 L622.52 255.43 L626.20 254.27 L626.30 260.01 L629.96 258.92 L633.52 258.15 L635.79 259.75 L638.76 260.11 L640.76 262.18 L646.34 258.31 L646.90 262.77 L647.75 266.64 L653.99 262.08 L656.82 262.93 L656.87 267.94 L656.44 273.49 L661.95 270.46 L664.14 272.22 L662.99 278.53 L667.18 277.52 L675.21 271.63 L675.44 276.00 L677.11 278.47 L685.41 272.78 L686.63 275.90 L687.51 279.37 L688.75 282.36 L691.17 283.97 L691.84 287.53 L693.92 289.51 L697.66 289.70 L698.43 293.06 L701.42 294.11 L701.96 297.65 L704.68 298.99 L705.02 302.63 L704.76 306.79 L707.63 307.98 L712.13 307.72 L711.14 312.42 L715.11 312.71 L718.92 313.21 L721.38 314.91 L719.97 319.79 L718.37 324.72 L726.64 321.78 L724.61 326.98 L722.30 332.27 L728.93 330.84 L734.81 330.10 L732.54 335.26 L735.58 336.61 L742.72 335.24 L742.63 338.82 L743.99 341.41 L745.31 344.02 L748.15 345.68 L745.57 350.66 L743.03 355.52 L748.81 355.43 L745.06 360.86 L747.68 362.64 L750.55 364.30 L753.17 366.14 L755.83 367.99 L755.73 371.26 L758.97 372.86 L761.06 375.06 L758.31 379.54 L764.68 379.78 L766.46 382.16 L765.05 385.94 L765.66 388.82 L768.76 390.66 L770.27 393.19 L765.76 398.03 L767.68 400.35 L775.46 400.58 L778.45 402.64 L779.38 405.44 L787.26 405.96 L790.04 408.25 L789.44 411.61 L786.00 415.78 L785.49 419.03 L787.17 421.64 L785.03 425.28 L785.02 428.32 L787.04 430.86 L788.28 433.60 L786.90 436.94 L788.80 439.54 L789.49 442.41 L787.21 445.84 L788.24 448.63 L797.34 450.07 L795.41 453.43 L791.80 456.98 L801.21 458.67 L802.04 461.63 L795.64 465.44 L791.94 468.83 L797.04 471.28 L797.43 474.25 L791.04 477.73 L795.28 480.37 L803.68 482.86 L802.39 485.97 L800.51 489.07 L811.09 491.79 L809.03 494.94 L807.51 498.04 L804.97 501.11 L802.94 504.13 L801.83 507.13 L796.91 509.99 L795.27 512.89 L798.40 516.02 L795.20 518.81 L794.56 521.73 L799.14 525.08 L799.20 528.10 L795.43 530.73 L794.49 533.61 L799.73 537.25 L794.55 539.60 L793.09 542.39 L800.16 546.48 L797.37 549.10 L793.12 551.41 L792.91 554.40 L797.88 558.41 L791.53 560.20 L787.66 562.41 L793.88 566.84 L799.41 571.25 L796.31 573.65 L797.89 577.22 L804.58 582.21 L803.09 585.07 L800.16 587.49 L796.59 589.68 L795.63 592.63 L792.69 594.93 L790.24 597.35 L789.79 600.44 L788.15 603.11 L787.03 605.96 L783.92 608.05 L785.39 611.88 L782.16 613.89 L780.04 616.30 L780.71 619.88 L785.25 625.21 L780.67 626.56 L780.55 629.90 L782.87 634.43 L780.11 636.57 L773.24 636.61 L769.34 638.05 L774.87 644.37 L767.74 644.06 L763.15 645.00 L768.43 651.43 L767.99 654.73 L762.78 655.25 L763.04 658.98 L759.99 660.70 L761.05 664.99 L757.29 666.24 L749.71 664.90 L751.83 669.94 L750.53 672.74 L744.65 672.32 L746.68 677.46 L746.32 680.97 L746.63 685.02 L747.10 689.27 L744.62 691.28 L744.32 695.01 L742.64 697.67 L740.99 700.37 L738.70 702.54 L736.43 704.71 L733.69 706.47 L728.20 705.71 L726.35 708.19 L723.54 709.77 L719.22 709.88 L720.73 715.60 L716.59 715.83 L715.11 718.68 L719.02 727.15 L715.95 728.50 L713.72 730.71 L718.49 740.65 L715.34 742.00 L712.40 743.56 L708.97 744.52 L705.55 745.45 L701.89 746.04 L696.34 744.21 L691.79 743.50 L692.92 750.03 L688.59 749.54 L686.28 751.67 L686.46 757.26 L683.97 759.24 L679.08 757.78 L675.80 758.54 L675.23 763.32 L670.70 762.16 L667.12 762.36 L666.16 766.71 L661.91 765.77 L659.95 768.57 L655.83 767.70 L653.70 770.21 L652.53 774.51 L647.76 772.31 L646.71 776.93 L647.77 785.81 L643.84 785.16 L641.37 787.39 L642.86 797.90 L639.05 797.56 L635.70 798.12 L632.29 798.49 L628.59 798.17 L624.60 797.05 L620.12 794.60 L617.70 797.12 L613.25 794.46 L610.69 796.61 L608.69 800.41 L604.82 799.01 L603.70 805.56 L599.26 802.40 L595.59 801.34 L593.54 805.44 L589.27 802.27 L585.66 801.10 L583.21 804.02 L579.68 802.99 L577.20 805.96 L573.50 804.09 L571.67 810.03 L568.57 810.76 L564.66 807.63 L562.73 814.01 L560.70 820.50 L557.21 819.51 L554.47 822.82 L552.38 830.55 L548.99 830.47 L545.38 828.78 L541.89 827.61 L538.83 829.93 L535.00 825.38 L531.43 822.48 L528.10 821.56 L525.28 826.92 L521.74 823.20 L518.49 823.13 L515.52 828.73 L512.15 826.63 L508.87 826.34 L505.53 822.06 L502.33 825.77 L499.09 821.60 L495.89 820.21 L492.69 820.06 L489.51 819.51 L486.19 822.21 L483.19 817.92 L479.60 824.26 L476.42 823.13 L473.36 820.83 L469.56 827.01 L465.80 831.41 L462.43 831.53 L458.40 836.95 L454.43 841.01 L451.27 838.88 L448.48 834.47 L445.32 832.82 L441.64 834.31 L438.59 832.16 L435.57 829.99 L431.45 833.34 L428.21 832.21 L425.19 830.13 L421.89 829.38 L418.73 828.05 L415.84 825.75 L413.68 820.81 L410.28 820.64 L407.23 819.21 L405.21 814.38 L401.68 814.67 L399.55 810.56 L395.73 811.68 L393.15 809.08 L391.05 805.24 L386.05 809.45 L384.06 805.41 L380.92 804.45 L375.01 810.37 L371.76 809.48 L368.73 808.05 L361.75 815.63 L358.59 814.26 L355.91 811.86 L353.65 808.59 L351.24 805.74 L348.64 803.34 L347.48 798.15 L346.57 792.68 L340.47 797.06 L338.73 793.23 L336.83 789.79 L330.94 793.35 L328.19 791.33 L326.43 787.71 L324.54 784.37 L321.29 783.25 L320.82 777.82 L317.71 776.52 L314.12 775.93 L313.57 770.85 L308.12 772.89 L306.55 769.35 L304.17 766.99 L298.54 768.99 L298.60 763.38 L294.82 762.83 L286.35 768.11 L287.04 761.83 L286.62 757.05 L277.71 762.41 L274.28 761.11 L275.75 754.23 L270.21 755.31 L266.37 754.42 L264.61 751.24 L261.90 749.10 L258.12 748.03 L257.28 743.97 L253.77 742.59 L252.80 738.73 L250.09 736.56 L248.81 733.05 L248.87 728.37 L247.64 724.92 L244.16 723.47 L244.64 718.59 L242.19 716.25 L240.10 713.62 L238.94 710.23 L235.21 708.91 L236.30 703.80 L229.07 705.09 L227.87 701.75 L227.86 697.57 L221.86 697.71 L215.68 697.85 L214.20 694.67 L208.72 694.17 L202.52 694.03 L200.18 691.31 L200.83 686.72 L200.64 682.70 L197.32 680.60 L199.96 674.98 L202.66 669.44 L199.02 667.55 L200.64 662.75 L197.66 660.47 L193.36 658.85 L194.02 654.65 L188.43 653.58 L187.17 650.33 L188.10 646.06 L183.69 644.29 L184.22 640.25 L184.64 636.30 L184.07 632.81 L182.20 629.88 L181.39 626.51 L183.42 622.05 L176.68 620.95 L177.65 616.92 L178.07 613.14 L170.97 611.95 L164.33 610.48 L163.79 606.94 L157.33 605.24 L149.92 603.69 L150.40 599.76 L153.02 595.27 L153.49 591.42 L150.32 588.53 L150.96 584.66 L152.11 580.71 L147.24 578.13 L146.99 574.49 L147.66 570.68 L146.64 567.21 L147.04 563.49 L148.74 559.56 L151.93 555.44 L144.59 552.98 L147.01 549.01 L151.95 544.78 L144.01 542.19 L142.60 538.74 L145.64 534.83 L149.49 530.91 L147.29 527.55 L144.13 524.22 L149.95 520.31 L149.41 516.83 L140.04 513.67 L141.29 510.03 L143.26 506.41 L133.17 502.92 L134.45 499.26 L136.10 495.62 L138.69 492.04 L139.61 488.45 L139.83 484.85 L141.23 481.31 L141.02 477.70 L141.18 474.11 L139.81 470.38 L142.24 466.98 L142.22 463.37 L143.72 459.92 L147.49 456.77 L148.86 453.37 L143.53 449.02 L147.44 445.98 L147.70 442.41 L142.97 437.96 L143.90 434.45 L147.81 431.52 L153.59 429.04 L146.44 423.89 L150.45 421.09 L156.61 418.86 L153.16 414.37 L145.00 408.58 L149.76 406.06 L151.23 402.71 L142.56 396.43 L145.03 393.28 L147.58 390.20 L150.88 387.38 L150.83 383.50 L155.62 381.26 L161.07 379.33 L161.95 375.82 L164.75 373.03 L168.11 370.49 L166.78 366.12 L167.89 362.69 L166.80 358.32 L170.19 355.86 L173.83 353.55 L172.01 348.77 L175.20 346.28 L177.40 343.35 L175.19 338.25 L174.14 333.64 L177.90 331.48 L184.17 330.71 L178.19 323.34 L183.09 321.88 L191.46 322.51 L187.02 315.76 L181.86 308.42 L187.37 307.45 L187.21 303.01 L183.44 296.18 L185.44 292.99 L189.67 291.30 L193.45 289.36 L194.13 285.29 L198.83 284.06 L201.88 281.70 L202.80 277.78 L204.69 274.55 L207.27 271.85 L210.22 269.46 L212.04 266.17 L217.49 265.86 L220.45 263.56 L220.76 259.00 L223.00 256.05 L227.30 254.95 L225.45 248.28 L228.54 246.08 L231.16 243.43 L237.24 244.17 L239.23 240.98 L238.78 235.29 L246.06 237.46 L250.27 236.60 L246.86 227.59 L246.42 221.59 L250.33 220.32 L248.76 212.83 L248.77 206.98 L253.01 206.02 L257.89 205.91 L261.62 204.47 L264.93 202.53 L270.65 203.73 L277.02 205.93 L278.01 201.07 L283.00 201.61 L283.93 196.54 L286.93 194.34 L287.31 188.28 L290.55 186.34 L295.88 187.60 L295.05 179.37 L299.92 179.99 L306.18 183.00 L305.26 174.20 L307.42 170.38 L313.03 172.50 L318.38 174.35 L320.21 169.93 L322.48 166.18 L328.75 170.05 L331.43 167.12 L331.06 157.94 L335.11 157.57 L339.59 158.17 L338.74 147.24 L342.66 146.49 L346.82 146.36 L351.17 146.76 L355.15 146.37 L358.67 144.87 L362.68 144.66 L366.09 142.89 L369.94 142.32 L372.96 139.43 L377.26 140.21 L380.69 138.46 L384.70 138.51 L389.16 140.09 L392.90 139.47 L395.09 133.45 L399.58 135.39 L403.04 133.71 L405.67 128.67 L409.24 127.13 L413.80 129.79 L418.80 134.75 L420.77 126.03 L425.02 127.75 L429.76 132.32 L432.61 127.02 L434.84 117.56 L439.29 120.83 L443.06 120.07 L445.72 111.35 L449.67 111.27 L453.82 113.00 L457.87 114.12 L461.65 112.90 L465.98 117.78 L470.08 120.93 L473.71 118.30 L477.46 116.78 L481.49 120.65 L485.10 115.86 L488.88 113.34 L492.80 116.28 L496.64 116.84 L500.47 118.13 L504.35 113.24 L508.16 115.89 L512.00 116.15 L515.96 113.16 L519.85 112.88 L523.40 118.35 L527.02 121.39 L531.50 113.17 L534.77 119.93 L538.23 123.72 L542.84 116.51 L547.37 111.20 L550.79 115.21 L555.39 110.45 L559.79 107.68 L563.72 108.24 L567.12 111.89 L570.79 113.70 L574.74 113.96 L578.14 116.98 L581.96 117.79 L585.89 118.14 L589.91 118.14 L593.52 119.88 L597.17 121.41 L601.08 121.91 L603.83 126.65 L607.43 128.15 L611.66 127.49 L615.66 127.74 L618.82 130.64 L624.62 125.51 L628.28 126.99 L631.22 130.49 L633.57 135.49 L637.69 135.55 L641.94 135.40 L643.29 142.53 L647.67 142.01 L655.98 132.35 L658.58 136.38 L662.46 137.41 L670.55 129.34 L674.18 131.21 L678.93 130.75 L682.57 132.64 L686.48 134.02 L691.58 133.12 L695.81 133.98 L700.51 134.04 L704.59 135.31 L708.30 137.24 L711.11 140.71 L712.65 146.24 L714.50 151.11 L718.68 152.16 L720.83 156.41 L723.92 159.15 L728.94 158.99 L732.70 160.77 L734.96 164.71 L737.32 168.44 L741.73 169.32 L745.09 171.67 L747.98 174.64 L752.88 175.00 L757.07 176.34 L760.41 178.79 L765.25 179.43 L769.00 181.43 L772.58 183.66 L777.57 184.32 L780.67 187.15 L783.70 190.07 L786.78 192.93 L790.12 195.52 L793.21 198.36 L796.36 201.17 L799.58 203.90 L802.48 206.96 L805.30 210.08 L806.62 214.61 L806.95 219.98 L809.42 223.35 L812.92 225.79 L813.41 230.86 L816.92 233.30 L821.32 235.05 L823.59 238.56 L824.65 243.03 L826.69 246.69 L830.11 249.28 L832.10 252.96 L834.91 256.04 L838.97 258.23 L841.36 261.64 L843.63 265.13 L845.83 268.67 L847.57 272.51 L849.85 275.98 L851.96 279.55 L853.16 283.69 L855.15 287.33 L859.59 289.53 L864.12 291.74 L866.52 295.20 L872.09 296.94 L876.78 299.24 L878.77 303.02 L880.26 307.06 L879.88 312.00 L878.79 317.23 L880.72 320.97 L882.74 324.67 L881.75 329.73 L885.28 332.75 L888.83 335.81 L889.08 340.27 L889.16 344.76 L891.19 348.47 L893.23 352.19 L893.50 356.56 L896.46 359.95 L899.36 363.41 L900.92 367.34 L904.32 370.68 L907.53 374.13 L908.92 378.17 L913.32 381.35 L915.56 385.19 L916.42 389.42 L917.34 393.63 L918.61 397.76 L920.00 401.86 L920.85 406.09 L922.09 410.23 L923.35 414.38 L924.04 418.64 L923.64 423.11 L921.41 427.86 L919.54 432.49 L921.16 436.54 L920.43 440.94 L919.65 445.33 L922.08 449.30 L923.08 453.46 L921.27 457.92 L920.25 462.26 L921.27 466.41 L921.65 470.62 L920.77 474.91 L920.97 479.12 L923.12 483.25 L923.59 487.48 L928.60 491.62 L930.79 495.88 L950.13 500.00 L951.41 495.49 L953.84 490.92 L957.22 486.28 L957.33 481.70 L956.83 477.14 L954.12 472.72 L953.74 468.19 L952.38 463.73 L951.94 459.21 L952.15 454.63 L951.12 450.18 L951.00 445.62 L948.99 441.30 L948.63 436.78 L947.60 432.35 L946.99 427.87 L945.71 423.49 L945.21 418.99 L943.84 414.64 L941.71 410.46 L941.48 405.90 L939.51 401.72 L939.04 397.20 L938.01 392.81 L937.09 388.39 L935.87 384.05 L933.19 380.11 L932.51 375.63 L930.85 371.43 L928.47 367.46 L928.26 362.82 L926.11 358.79 L924.44 354.62 L922.52 350.54 L920.13 346.64 L919.59 342.07 L916.69 338.38 L915.20 334.16 L913.44 330.05 L911.65 325.96 L910.18 321.72 L907.32 318.10 L906.18 313.72 L904.44 309.60 L902.25 305.69 L900.23 301.71 L898.88 297.38 L895.70 294.00 L893.15 290.30 L891.15 286.31 L887.90 283.02 L885.93 279.03 L883.51 275.29 L881.31 271.43 L878.87 267.71 L875.81 264.38 L874.28 260.10 L871.23 256.78 L868.50 253.27 L866.75 249.10 L863.55 245.91 L861.10 242.21 L857.38 239.43 L854.73 235.89 L852.73 231.85 L849.19 228.99 L846.70 225.33 L843.66 222.09 L841.10 218.48 L837.60 215.64 L834.62 212.38 L832.41 208.46 L829.39 205.22 L826.62 201.77 L823.42 198.70 L820.62 195.27 L816.39 193.20 L813.12 190.24 L809.96 187.17 L806.91 183.99 L803.79 180.88 L800.50 177.95 L797.73 174.46 L793.53 172.53 L789.87 170.03 L786.87 166.78 L782.36 165.31 L778.66 162.91 L776.06 159.17 L772.07 157.14 L768.89 154.11 L764.77 152.28 L761.56 149.29 L757.71 147.13 L753.83 145.05 L750.56 142.12 L746.63 140.12 L743.72 136.62 L739.48 135.11 L735.86 132.66 L732.19 130.30 L727.86 129.02 L723.40 127.98 L719.11 126.73 L715.17 124.89 L711.34 122.88 L707.75 120.43 L704.71 116.94 L701.00 114.67 L696.71 113.51 L693.44 110.34 L689.41 108.70 L684.32 109.29 L680.26 107.77 L681.86 93.63 L676.79 94.12 L671.32 95.70 L671.91 82.72 L668.21 79.83 L661.44 84.74 L657.88 81.56 L653.65 80.11 L647.81 83.20 L642.83 84.08 L639.12 81.32 L636.57 74.84 L631.83 75.03 L627.95 72.48 L624.14 69.57 L619.30 70.28 L613.79 73.63 L609.73 71.69 L605.22 71.51 L600.66 71.61 L596.41 70.48 L592.33 68.49 L587.91 68.11 L582.91 70.75 L578.85 68.62 L574.23 69.65 L569.28 72.84 L564.90 72.92 L561.24 67.91 L557.40 63.65 L552.59 66.77 L548.93 60.22 L545.27 52.42 L540.32 57.15 L535.35 63.45 L531.59 54.51 L526.91 57.84 L522.21 63.21 L517.89 61.69 L513.62 57.93 L509.18 58.62 L504.74 61.31 L500.35 57.04 L495.94 58.98 L491.57 60.92 L487.29 64.81 L482.81 61.66 L478.22 57.70 L474.08 62.62 L469.63 61.82 L465.03 59.36 L461.05 64.53 L457.22 70.15 L452.87 70.10 L448.89 73.25 L445.01 76.75 L440.88 78.03 L435.44 70.50 L431.27 71.92 L427.69 76.76 L422.01 69.47 L416.75 65.28 L413.69 72.45 L410.01 76.12 L404.14 69.73 L401.18 76.45 L398.01 81.78 L393.41 81.15 L388.14 78.15 L384.04 79.69 L380.69 83.85 L375.08 80.18 L371.31 82.81 L368.36 87.91 L364.79 90.91 L360.62 92.01 L357.06 94.89 L352.95 96.16 L349.03 97.95 L344.55 98.27 L341.50 102.26 L337.21 103.08 L334.03 106.57 L331.51 111.49 L328.54 115.23 L325.16 117.97 L317.23 110.96 L315.20 116.65 L311.31 118.39 L304.15 113.67 L300.67 116.38 L300.14 124.58 L294.86 123.79 L290.14 124.11 L288.37 129.70 L287.48 136.63 L282.17 135.95 L274.28 131.17 L273.57 138.20 L271.59 143.03 L264.01 139.18 L263.28 145.84 L260.12 148.78 L254.01 147.44 L251.13 150.81 L245.54 150.41 L244.65 156.46 L238.58 155.56 L238.86 162.97 L239.17 170.24 L236.53 173.66 L233.91 177.07 L233.24 182.78 L232.13 187.84 L225.07 186.03 L218.55 184.99 L217.20 189.78 L210.22 188.45 L202.34 186.32 L201.06 191.22 L202.51 198.80 L195.77 198.08 L193.56 201.91 L194.54 208.75 L191.57 211.75 L188.70 214.84 L182.63 215.07 L181.65 219.88 L178.31 222.61 L174.12 224.62 L172.96 229.20 L173.89 235.43 L170.39 238.01 L168.98 242.25 L166.86 245.91 L164.49 249.36 L160.52 251.65 L159.10 255.81 L159.76 261.39 L155.95 263.82 L155.50 268.54 L156.09 273.90 L154.82 277.97 L146.21 277.41 L143.35 280.55 L144.69 286.25 L135.68 285.76 L127.38 285.86 L132.19 293.49 L133.67 299.11 L124.44 298.91 L127.72 305.43 L129.02 310.81 L124.72 313.32 L118.80 315.11 L118.14 319.49 L119.09 324.57 L113.06 326.46 L113.33 331.21 L114.31 336.21 L109.97 338.95 L108.18 342.78 L103.55 345.51 L105.77 350.89 L105.30 355.21 L103.89 359.17 L107.76 364.95 L108.91 369.71 L107.87 373.70 L109.81 378.62 L110.97 383.23 L111.66 387.66 L100.67 388.80 L101.20 393.23 L103.41 398.06 L94.72 400.14 L89.12 403.10 L94.25 408.59 L97.04 413.44 L88.66 415.94 L93.26 421.10 L96.94 425.99 L94.85 429.79 L88.80 432.97 L89.16 437.24 L91.91 441.83 L85.36 445.12 L86.91 449.52 L91.09 454.18 L91.87 458.39 L91.53 462.48 L92.74 466.70 L92.24 470.76 L91.41 474.80 L90.66 478.86 L92.62 483.05 L92.00 487.11 L93.35 491.22 L96.90 495.33 L99.34 499.36 L100.85 503.36 L91.02 507.53 L95.85 511.48 L95.70 515.54 L86.68 520.02 L89.17 524.02 L96.60 527.64 L92.44 532.02 L91.65 536.20 L96.81 539.81 L100.64 543.46 L99.61 547.63 L91.68 552.72 L98.32 555.95 L101.54 559.57 L94.90 564.71 L100.58 567.91 L105.49 571.14 L107.28 574.88 L109.49 578.51 L112.09 582.03 L113.18 585.85 L109.67 590.74 L112.59 594.15 L115.40 597.55 L114.46 601.90 L117.60 605.18 L122.22 607.98 L125.64 611.07 L119.77 616.96 L115.96 622.35 L118.53 625.74 L113.27 631.78 L109.34 637.49 L113.51 640.38 L116.95 643.48 L112.17 649.71 L118.51 651.67 L121.06 655.06 L123.19 658.61 L124.37 662.55 L127.68 665.56 L132.74 667.73 L131.59 672.73 L136.00 675.12 L139.18 678.05 L137.11 683.61 L141.55 685.89 L140.20 691.18 L141.13 695.31 L147.11 696.66 L147.06 701.34 L153.65 702.19 L161.21 702.35 L161.58 706.74 L165.61 708.91 L170.79 710.27 L173.59 713.11 L170.61 719.79 L170.41 724.72 L174.11 727.00 L171.20 733.94 L168.79 740.68 L175.03 741.15 L177.68 744.22 L174.99 751.42 L181.98 751.13 L183.57 755.05 L187.31 757.24 L189.62 760.59 L192.60 763.37 L199.58 762.65 L199.84 767.76 L204.05 769.37 L209.84 769.45 L213.62 771.32 L216.19 774.32 L220.07 776.04 L222.61 779.06 L227.08 780.12 L228.10 784.71 L231.75 786.57 L235.21 788.60 L236.51 793.02 L237.51 797.84 L245.28 794.92 L246.90 799.04 L243.91 808.78 L249.61 808.12 L255.54 807.05 L253.02 816.66 L255.67 819.82 L261.71 818.45 L261.92 824.89 L266.03 826.08 L270.50 826.71 L271.38 832.47 L276.95 831.41 L280.01 834.04 L283.09 836.64 L289.06 834.67 L292.54 836.56 L296.97 836.88 L302.06 835.99 L305.84 837.24 L305.61 845.58 L310.46 844.99 L315.66 843.62 L315.50 852.34 L321.19 849.93 L327.46 846.18 L331.12 847.48 L335.29 847.72 L340.26 846.12 L344.43 846.13 L347.54 848.51 L347.71 857.80 L351.46 858.92 L354.42 861.98 L355.64 869.57 L360.01 869.24 L364.67 868.01 L366.29 875.13 L371.75 871.54 L375.74 872.00 L379.16 874.16 L383.77 872.58 L387.28 874.46 L392.30 871.19 L395.97 872.42 L399.35 874.73 L404.29 871.13 L408.79 868.91 L412.66 869.04 L416.67 868.50 L420.75 867.49 L424.52 867.85 L427.37 872.86 L431.44 871.73 L435.58 870.00 L438.93 872.76 L442.98 871.28 L447.26 867.86 L451.22 866.27 L454.18 872.51 L457.32 878.17 L461.12 878.39 L464.38 884.40 L467.73 890.80 L471.91 887.31 L475.83 886.96 L479.32 894.31 L483.48 889.42 L487.29 892.22 L491.22 891.97 L495.14 892.05 L499.07 890.06 L502.93 884.89 L506.81 886.87 L510.56 882.23 L514.32 880.56 L517.99 877.50 L522.13 883.78 L525.88 882.15 L529.37 877.64 L533.56 882.04 L537.31 881.06 L540.64 876.24 L543.87 871.29 L547.77 872.32 L551.15 869.36 L554.37 865.65 L557.83 863.86 L562.76 870.93 L566.89 872.62 L570.25 870.02 L575.22 875.69 L580.11 880.28 L582.84 874.63 L586.68 874.22 L591.56 878.06 L594.14 872.39 L598.50 873.87 L601.61 870.60 L605.84 871.43 L609.04 868.62 L610.99 861.84 L615.58 863.81 L618.53 860.55 L620.45 854.42 L626.01 858.95 L628.96 855.91 L633.45 857.11 L636.80 855.22 L639.46 851.59 L643.01 850.30 L644.38 843.77 L646.93 840.28 L649.33 836.54 L651.69 832.84 L654.32 829.84 L656.71 826.40 L664.56 834.15 L668.00 832.70 L670.23 828.89 L677.73 835.13 L682.37 835.72 L683.60 830.08 L688.24 830.60 L691.98 829.45 L694.10 825.57 L697.19 823.35 L698.69 818.61 L703.75 819.56 L705.23 814.89 L706.06 809.35 L711.15 810.22 L713.03 806.36 L713.32 800.32 L716.48 798.41 L722.52 800.37 L725.08 797.55 L725.63 792.16 L732.80 795.30 L733.21 789.80 L732.17 782.68 L734.25 779.47 L735.83 775.70 L736.51 770.97 L738.20 767.45 L740.31 764.45 L749.78 769.41 L752.29 766.71 L754.74 763.97 L763.55 767.69 L764.84 763.67 L765.76 759.35 L772.48 760.63 L771.49 754.54 L773.03 750.90 L776.93 749.42 L775.79 743.44 L776.08 738.83 L779.24 736.72 L781.64 733.96 L783.49 730.74 L785.16 727.40 L789.25 725.97 L790.20 722.08 L793.95 720.31 L798.55 719.13 L802.44 717.37 L808.25 716.91 L806.51 711.13 L808.27 707.83 L813.80 707.02 L807.98 698.79 L806.18 693.32 L808.43 690.45 L809.40 686.81 L812.61 684.50 L811.08 679.43 L815.71 677.92 L825.71 679.29 L823.83 674.06 L819.73 667.75 L828.38 668.12 L827.20 663.41 L822.91 657.25 L822.67 653.16 L827.58 651.50 L829.66 648.48 L826.61 643.19 L832.86 641.98 L834.46 638.73 L832.88 634.19 L831.20 629.68 L834.29 627.05 L833.02 622.76 L834.26 619.44 L834.04 615.61 L837.12 612.91 L836.08 608.84 L835.58 604.98 L836.14 601.48 L833.92 597.17 L832.27 593.10 L831.88 589.42 L842.40 588.59 L844.53 585.48 L842.61 581.37 L850.44 579.54 L857.88 577.47 L854.69 573.08 L849.69 568.41 L855.38 565.84 L855.45 562.18 L851.94 557.95 L850.10 554.05 L858.72 551.72 L856.46 547.76 L851.28 543.49 L856.53 540.53 L855.30 536.79 L850.13 532.72 L850.50 529.22 L855.36 526.05 L855.63 522.50 L851.86 518.73 L857.23 515.44 L855.20 511.79 L849.33 508.10 L848.39 504.59 L845.35 501.10 L842.73 497.66 L840.08 494.28 L837.63 490.94 L849.19 487.14 L847.11 483.74 L846.53 480.29 L855.07 476.24 L858.09 472.44 L850.71 469.48 L850.83 465.93 L854.31 462.01 L849.89 458.94 L842.61 456.32 L842.39 452.86 L850.41 448.18 L844.45 445.54 L840.72 442.63 L846.71 438.05 L845.43 434.71 L839.62 432.28 L839.21 428.83 L838.03 425.54 L835.49 422.57 L835.02 419.15 L835.91 415.37 L834.89 412.05 L830.32 409.71 L830.63 406.06 L827.73 403.34 L822.42 401.39 L818.85 398.98 L820.44 394.94 L826.28 389.40 L824.59 386.34 L826.39 382.03 L832.47 376.07 L830.50 373.02 L823.29 372.07 L823.38 368.28 L822.61 364.81 L820.20 362.04 L816.62 359.81 L815.41 356.56 L818.41 351.34 L812.40 350.32 L811.19 347.05 L810.17 343.69 L805.71 342.08 L805.28 338.42 L804.65 334.83 L804.19 331.12 L804.66 326.85 L796.42 327.59 L800.27 321.31 L793.60 321.28 L786.93 321.38 L787.00 317.33 L785.17 314.46 L782.57 312.11 L778.90 310.49 L783.10 303.48 L781.00 300.74 L775.32 300.60 L777.41 294.82 L779.29 289.09 L772.11 290.20 L765.74 290.84 L770.09 283.01 L763.93 283.58 L758.08 284.03 L757.17 280.37 L757.41 275.68 L756.73 271.72 L751.41 271.90 L752.19 266.56 L749.81 264.08 L744.08 264.83 L739.93 264.15 L738.19 261.13 L734.47 260.11 L732.22 257.62 L728.42 256.76 L728.02 252.26 L724.47 251.17 L721.42 249.56 L718.43 247.91 L714.21 247.73 L709.96 247.66 L706.27 246.99 L709.91 237.20 L705.95 236.80 L701.77 236.76 L704.26 227.93 L703.25 223.56 L696.34 227.28 L693.76 225.11 L693.78 219.16 L688.00 221.61 L682.64 223.64 L680.83 220.34 L681.90 212.42 L677.06 213.77 L672.63 214.60 L672.52 208.22 L668.60 208.23 L665.97 206.04 L662.82 204.76 L661.01 201.00 L659.28 197.01 L653.13 201.49 L651.82 196.61 L647.05 198.66 L641.40 202.72 L638.43 201.31 L634.73 201.49 L630.34 203.36 L626.50 204.08 L623.73 202.37 L623.68 193.90 L619.70 195.00 L617.38 191.87 L615.87 186.46 L613.62 182.84 L608.41 187.57 L605.27 186.52 L603.42 181.50 L598.70 185.39 L594.61 187.51 L591.63 186.08 L590.43 178.24 L586.38 180.44 L582.49 182.21 L580.57 176.35 L576.87 177.48 L572.43 182.06 L569.30 181.10 L565.97 181.08 L562.55 181.58 L559.37 180.98 L556.52 178.44 L553.24 178.22 L549.51 181.04 L546.49 179.32 L543.00 181.02 L539.38 184.03 L536.01 185.44 L533.12 182.63 L530.45 176.98 L526.87 180.79 L523.97 176.63 L521.18 169.49 L517.57 174.75 L514.01 181.62 L511.07 174.41 L507.69 179.33 L504.44 182.49 L501.25 185.19 L498.07 179.12 L494.82 176.43 L491.70 180.91 L488.30 175.26 L485.12 176.94 L482.15 181.69 L479.18 185.03 L476.14 186.76 L473.12 188.22 L470.09 189.49 L466.97 189.59 L463.39 185.83 L460.39 187.35 L457.54 189.73 L454.06 187.60 L451.24 190.00 L448.70 193.86 L445.98 196.28 L441.16 187.35 L437.71 186.29 L434.78 187.93 L430.13 181.61 L425.66 176.70 L423.26 180.90 L420.62 183.88 L416.16 179.72 L413.96 184.24 L411.14 186.28 L408.33 188.29 L404.41 186.57 L402.66 191.91 L400.38 195.32 L396.48 193.80 L394.28 197.32 L392.15 200.86 L387.37 197.13 L384.47 198.58 L380.86 198.23 L378.32 200.60 L376.33 204.21 L373.56 205.89 L372.76 212.00 L370.74 215.16 L368.51 217.78 L366.91 221.66 L365.05 224.88 L362.91 227.44 L355.81 220.33 L352.39 220.58 L351.17 224.98 L344.60 219.57 L338.89 216.00 L338.87 222.48 L334.94 222.13 L330.48 221.02 L329.91 226.28 L327.23 228.08 L325.93 231.99 L321.95 231.78 L321.11 236.27 L320.91 241.57 L316.36 240.59 L315.02 244.17 L315.25 249.78 L312.96 251.91 L310.61 253.96 L309.02 256.96 L306.64 258.94 L303.41 259.87 L301.64 262.59 L300.73 266.29 L298.09 267.94 L291.46 265.10 L291.09 269.37 L290.90 273.75 L283.36 270.24 L279.74 271.03 L278.57 274.38 L277.86 278.14 L271.27 276.07 L270.16 279.45 L270.34 283.99 L263.62 282.08 L264.78 287.47 L263.69 290.73 L257.32 289.39 L258.92 294.96 L256.76 297.28 L255.30 300.18 L255.38 304.29 L255.00 307.97 L254.83 311.76 L256.35 316.78 L253.74 318.64 L245.91 316.76 L247.76 321.90 L248.84 326.41 L240.78 324.64 L242.77 329.71 L247.07 336.17 L244.73 338.26 L244.56 341.70 L245.93 346.05 L245.81 349.43 L239.97 349.46 L234.42 349.78 L234.17 353.12 L228.20 353.35 L222.01 353.58 L224.89 358.59 L224.91 362.07 L216.52 361.39 L220.91 366.98 L219.93 369.93 L219.32 373.05 L218.30 375.96 L218.75 379.50 L222.47 384.37 L217.23 385.49 L218.41 389.23 L221.95 393.82 L222.93 397.36 L222.76 400.44 L223.31 403.75 L224.00 407.07 L222.77 409.73 L218.28 411.38 L218.54 414.54 L220.78 418.26 L219.22 420.85 L220.37 424.18 L225.36 428.47 L226.37 431.65 L215.83 432.03 L212.00 434.15 L212.46 437.28 L203.41 438.40 L195.61 439.95 L198.84 443.71 L196.92 446.48 L192.99 448.95 L198.22 452.91 L192.19 455.12 L196.24 458.81 L196.80 461.97 L196.31 464.99 L198.84 468.33 L200.17 471.50 L202.15 474.69 L204.51 477.86 L205.17 480.87 L196.53 483.36 L201.89 486.64 L205.27 489.75 L199.19 492.55 L202.10 495.60 L206.83 498.60 L207.76 501.53 L208.96 504.43 L211.81 507.27 L214.27 510.07 L216.03 512.85 L205.63 516.27 L205.44 519.24 L206.88 522.09 L200.63 525.57 L201.75 528.49 L204.29 531.23 L201.34 534.56 L203.72 537.30 L203.85 540.29 L201.17 543.70 L203.88 546.34 L208.74 548.56 L208.44 551.62 L210.43 554.26 L213.40 556.67 L213.38 559.66 L216.71 561.93 L217.08 564.82 L218.34 567.50 L220.44 569.96 L221.44 572.68 L220.48 575.92 L222.17 578.46 L225.90 580.37 L225.70 583.42 L228.61 585.51 L232.65 587.18 L235.03 589.35 L236.18 591.91 L228.37 597.68 L229.66 600.28 L229.25 603.53 L223.75 608.81 L223.71 612.03 L227.02 613.88 L224.59 618.14 L227.52 620.12 L229.28 622.59 L230.80 625.17 L234.03 626.92 L234.74 629.85 L239.49 630.77 L241.79 632.86 L243.01 635.50 L246.38 636.98 L251.66 637.36 L252.48 640.15 L247.83 646.14 L252.53 646.74 L257.51 647.08 L252.02 653.82 L257.14 654.04 L264.78 652.51 L265.61 655.32 L268.61 656.69 L273.30 656.84 L275.72 658.50 L275.27 662.21 L271.29 668.59 L274.78 669.52 L274.04 673.65 L269.46 680.86 L275.32 679.92 L278.11 681.36 L274.07 688.46 L280.28 687.04 L282.71 688.75 L284.90 690.66 L286.43 693.14 L290.56 693.25 L294.20 693.74 L292.80 699.01 L297.93 698.00 L301.17 698.76 L302.26 701.66 L304.56 703.35 L303.48 708.60 L304.79 711.41 L304.53 715.98 L307.03 717.55 L311.43 716.93 L311.34 721.47 L314.03 722.78 L320.61 719.32 L322.69 721.25 L324.47 723.58 L330.35 720.59 L335.91 717.84 L339.36 717.76 L343.05 717.28 L347.00 716.34 L348.55 718.75 L351.84 718.63 L354.18 719.88 L355.33 722.96 L358.31 723.22 L361.12 723.71 L363.75 724.45 L366.16 725.54 L368.91 726.02 L370.78 728.02 L373.29 728.90 L375.26 730.76 L377.45 732.22 L380.19 732.64 L382.57 733.73 L385.31 734.08 L387.42 735.72 L389.87 736.64 L391.99 738.30 L394.03 740.15 L396.45 741.15 L399.02 741.81 L401.52 742.62 L404.17 743.05 L407.20 742.43 L409.93 742.54 L412.58 742.81 L415.36 742.68 L417.68 743.84 L420.02 744.99 L422.60 745.35 L425.09 746.02 L426.95 748.81 L429.43 749.56 L432.31 748.85 L434.24 751.68 L437.05 751.17 L439.64 751.46 L442.46 750.73 L445.31 749.74 L447.85 750.08 L450.21 751.32 L452.85 751.15 L455.43 751.25 L457.65 753.41 L460.30 753.14 L462.91 752.97 L465.54 752.58 L468.14 752.36 L470.70 752.41 L473.35 751.52 L475.84 751.99 L478.37 752.12 L480.77 753.93 L483.28 754.64 L485.81 755.11 L488.30 756.47 L490.88 756.19 L493.46 755.62 L496.03 754.82 L498.59 753.54 L501.13 754.65 L503.68 755.26 L506.21 754.01 L508.80 755.41 L511.46 757.80 L513.93 755.76 L516.51 755.98 L519.05 755.55 L521.55 754.62 L523.98 753.17 L526.28 750.73 L528.61 748.95 L531.09 748.56 L533.67 748.96 L536.02 747.63 L538.72 748.74 L541.19 748.25 L543.46 746.60 L545.86 745.81 L548.02 743.87 L550.66 744.34 L553.02 743.47 L555.39 742.66 L558.34 744.30 L560.76 743.59 L563.13 742.77 L565.74 742.81 L568.07 741.77 L570.52 741.23 L572.99 740.71 L575.09 739.00 L577.63 738.71 L579.83 737.38 L581.92 735.76 L584.09 734.42 L585.91 732.16 L587.90 730.42 L589.68 728.22 L591.81 726.95 L593.78 725.30 L595.47 723.05 L597.88 722.50 L600.00 721.30 L602.00 719.83 L604.45 719.34 L606.77 718.55 L608.69 716.95 L610.59 715.34 L612.96 714.65 L614.52 712.43 L616.17 710.43 L617.91 708.62 L619.87 707.22 L621.69 705.60 L623.51 704.00 L625.86 703.26 L627.97 702.13 L630.51 701.64 L632.82 700.79 L634.67 699.22 L636.97 698.32 L638.65 696.52 L640.18 694.53 L641.44 692.20 L644.94 692.88 L645.71 689.92 L646.00 686.40 L649.32 686.77 L652.47 686.85 L653.73 684.59 L655.47 682.93 L659.57 683.99 L661.25 682.22 L662.24 679.69 L663.02 676.96 L664.43 674.94 L665.54 672.64 L665.69 669.37 L667.50 667.83 L667.87 664.87 L668.84 662.53 L670.16 660.56 L670.46 657.65 L671.88 655.80 L677.30 657.51 L678.80 655.68 L680.53 654.04 L683.92 653.77 L683.97 650.72 L684.17 647.83 L684.83 645.34 L685.11 642.59 L686.49 640.71 L686.85 638.07 L687.96 636.01 L688.35 633.44 L690.66 632.23 L692.94 630.97 L692.89 628.14 L695.42 627.02 L700.13 627.26 L703.64 626.65 L702.89 623.38 L707.13 623.14 L709.21 621.56 L709.29 618.83 L708.68 615.73 L707.14 612.19 L708.26 610.11 L708.92 607.80 L709.44 605.43 L709.29 602.75 L709.43 600.23 L709.55 597.72 L708.82 594.85 L707.89 591.94 L709.75 590.26 L714.68 589.85 L714.44 587.24 L717.63 586.01 L719.58 584.25 L718.21 581.23 L717.92 578.65 L716.48 575.69 L716.74 573.36 L716.67 570.93 L716.28 568.41 L716.44 566.09 L715.93 563.58 L721.04 562.69 L721.41 560.41 L721.29 558.01 L723.87 556.30 L727.15 554.71 L725.52 551.94 L724.24 549.29 L726.29 547.37 L726.88 545.13 L727.62 542.92 L724.91 540.08 L726.45 538.03 L727.55 535.87 L725.28 533.21 L725.82 530.99 L725.06 528.59 L724.45 526.24 L723.38 523.85 L722.58 521.52 L722.20 519.24 L725.60 517.26 L726.36 515.05 L725.69 512.74 L727.03 510.54 L725.93 508.22 L724.30 505.92 L722.20 503.64 L721.93 501.41 L721.72 499.20 L720.87 496.99 L720.72 494.78 L719.70 492.61 L721.49 490.33 L721.37 488.12 L720.22 485.97 L722.15 483.61 L723.30 481.28 L722.38 479.12 L720.01 477.12 L720.95 474.79 L720.71 472.57 L720.07 470.42 L718.44 468.41 L717.75 466.28 L719.22 463.81 L717.19 461.91 L715.73 459.93 L715.21 457.80 L714.13 455.78 L712.73 453.85 L710.47 452.13 L710.61 449.88 L712.11 447.28 L713.58 444.64 L713.91 442.26 L714.34 439.84 L713.08 437.89 L710.09 436.48 L706.97 435.15 L704.64 433.63 L703.46 431.76 L702.51 429.81 L701.52 427.89 L704.39 424.55 L713.61 418.71 L709.62 417.82 L711.88 414.48 L721.94 407.83 L717.47 407.12 L711.38 407.21 L717.65 401.85 L712.84 401.45 L709.20 400.58 L708.39 398.40 L710.16 394.93 L709.46 392.64 L705.28 392.18 L705.99 389.17 L702.44 388.45 L696.84 388.96 L693.55 388.25 L696.22 384.08 L697.94 380.37 L693.73 380.26 L693.88 377.46 L693.27 375.13 L689.94 374.57 L686.09 374.42 L682.97 373.85 L683.18 370.98 L681.57 369.38 L679.76 367.93 L684.34 361.71 L682.76 360.02 L678.13 360.72 L682.49 354.34 L684.46 349.72 L676.55 353.20 L672.97 353.23 L676.18 347.45 L671.57 348.42 L667.66 348.86 L664.33 348.86 L666.76 343.51 L663.03 343.92 L658.37 345.31 L660.48 340.09 L656.30 341.11 L651.93 342.43 L650.56 340.69 L653.45 334.35 L651.72 332.89 L647.92 333.76 L649.30 328.80 L645.59 329.64 L642.34 330.04 L638.72 330.95 L636.81 329.83 L635.95 327.40 L633.76 326.64 L632.42 324.78 L634.99 317.62 L631.34 318.79 L627.80 319.91 L630.10 312.73 L629.42 309.67 L623.23 314.82 L621.96 312.70 L621.67 308.99 L617.59 311.25 L615.40 310.57 L612.97 310.32 L614.52 303.27 L609.84 306.90 L606.45 308.42 L606.20 304.29 L601.52 308.36 L598.20 310.07 L597.03 307.64 L598.03 300.72 L594.60 302.73 L591.72 303.73 L591.69 298.57 L587.97 301.50 L585.50 301.75 L582.53 303.26 L580.87 301.67 L578.97 300.65 L576.25 301.74 L574.85 299.42 L571.92 301.22 L570.34 299.35 L568.91 296.93 L566.76 296.62 L564.50 296.65 L562.91 294.57 L560.92 293.73 L558.64 293.87 L556.93 292.02 L554.95 291.07 L552.49 291.96 L550.17 292.44 L547.99 292.39 L545.49 293.82 L543.15 294.72 L540.77 295.89 L538.68 295.76 L536.62 295.47 L534.48 295.65 L532.48 295.02 L530.42 294.80 L528.79 291.44 L526.70 291.15 L524.41 292.62 L523.19 284.44 L520.88 285.75 L518.25 291.15 L516.39 288.01 L514.31 287.22 L512.26 285.85 L509.97 288.82 L507.91 287.24 L505.99 279.71 L503.71 283.77 L501.51 289.96 L499.39 283.02 L497.25 285.76 L495.18 288.72 L493.01 287.27 L490.90 287.60 L488.72 286.67 L486.90 291.71 L484.79 291.47 L482.95 294.62 L481.28 298.94 L479.45 300.83 L477.09 297.85 L474.41 292.73 L472.84 296.73 L470.72 296.41 L468.06 292.62 L466.61 296.74 L465.49 302.32 L463.15 300.68 L461.24 301.49 L459.75 304.31 L457.66 304.08 L453.86 296.39 L451.99 297.56 L450.44 299.93 L447.19 295.60 L443.82 291.20 L443.84 299.29 L442.93 303.64 L438.59 296.32 L438.33 302.62 L437.23 305.95 L435.16 306.19 L432.21 303.91 L431.02 306.74 L430.85 312.21 L427.54 309.13 L426.84 312.94 L426.33 317.07 L424.76 318.41 L421.50 315.79 L418.49 313.90 L417.86 317.46 L414.94 315.92 L412.59 315.70 L412.78 320.74 L411.84 323.33 L409.96 323.97 L409.16 326.72 L408.55 329.72 L407.52 331.85 L401.40 324.88 L399.68 325.93 L398.89 328.55 L394.33 324.84 L390.04 321.79 L392.34 329.36 L391.33 331.52 L386.34 327.59 L386.97 332.22 L386.81 335.56 L384.82 336.19 L379.58 332.33 L380.70 337.34 L382.54 343.17 L377.87 340.29 L379.74 345.95 L381.02 350.69 L378.77 350.95 L373.00 347.01 L373.30 350.44 L373.60 353.78 L366.09 348.19 L367.70 353.00 L369.48 357.87 L368.14 359.26 L366.91 360.77 L367.18 363.80 L367.22 366.54 L364.73 366.73 L357.77 362.65 L359.11 366.63 L358.04 368.29 L352.79 366.13 L349.86 366.18 L354.41 372.84 L352.11 373.41 L346.66 371.38 L349.48 376.29 L348.78 378.22 L346.78 379.12 L344.05 379.48 L346.84 384.06 L346.15 385.93 L344.79 387.32 L347.26 391.43 L348.60 394.64 L347.51 396.13 L338.95 392.64 L341.41 396.56 L343.63 400.22 L331.89 395.08 L333.79 398.56 L334.44 401.21 L330.43 401.11 L328.17 402.08 L327.04 403.71 L326.74 405.81 L325.11 407.17 L322.96 408.29 L326.52 412.32 L325.23 413.85 L320.81 413.89 L324.06 417.61 L327.95 421.52 L319.79 419.96 L322.66 423.35 L324.62 426.27 L323.56 427.90 L320.03 428.54 L322.06 431.40 L325.77 434.82 L322.51 435.62 L325.98 438.84 L329.80 442.09 L329.76 443.97 L326.18 444.71 L320.84 444.98 L323.26 447.65 L322.20 449.27 L317.85 449.99 L319.88 452.48 L324.16 455.48 L323.93 457.29 L322.80 458.89 L324.56 461.14 L324.90 463.05 L316.75 463.24 L315.08 464.83 L319.38 467.51 L311.42 468.02 L306.27 469.14 L315.11 472.44 L318.10 474.74 L309.22 475.45 L313.64 477.91 L316.54 480.12 L314.74 481.79 L311.14 483.34 L314.89 485.54 L320.41 487.78 L315.05 489.27 L321.14 491.41 L325.12 493.36 L324.46 495.09 L318.36 496.74 L319.24 498.56 L321.99 500.36 L314.89 502.23 L318.32 504.00 L320.98 505.74 L323.41 507.43 L322.86 509.23 L324.34 510.91 L328.53 512.37 L329.35 514.03 L320.16 516.60 L323.31 518.09 L328.23 519.33 L319.78 522.10 L315.34 524.52 L324.26 525.13 L324.36 526.91 L317.04 529.91 L322.40 530.86 L326.40 531.96 L325.76 533.88 L319.25 537.02 L326.63 537.32 L329.52 538.49 L326.61 540.97 L332.33 541.39 L336.67 542.06 L334.60 544.36 L328.40 547.87 L331.96 548.69 L334.90 549.63 L326.07 554.19 L331.57 554.33 L336.25 554.64 L336.96 556.22 L336.97 558.04 L340.47 558.60 L343.90 559.12 L342.09 561.62 L336.06 565.87 L336.58 567.56 L334.51 570.36 L331.13 573.81 L333.13 574.93 L334.02 576.53 L333.35 578.87 L341.94 576.75 L339.21 580.07 L338.05 582.68 L343.59 581.84 L343.61 583.82 L342.67 586.37 L343.77 587.81 L344.39 589.52 L345.62 590.87 L347.69 591.72 L346.91 594.29 L348.63 595.33 L347.99 597.87 L349.01 599.36 L350.16 600.77 L354.01 600.31 L359.97 598.29 L365.80 596.22 L372.06 593.68 L377.61 591.51 L380.85 590.96 L375.76 596.83 L370.47 603.05 L371.45 604.39 L366.51 610.63 L361.66 617.01 L364.23 617.18 L368.30 615.98 L365.93 620.48 L367.19 621.77 L371.12 620.56 L372.13 622.03 L370.41 626.17 L372.15 626.99 L376.92 624.72 L376.33 627.86 L378.11 628.57 L382.54 626.40 L384.90 626.37 L386.27 627.41 L388.27 627.70 L389.76 628.58 L392.30 628.19 L391.90 631.31 L394.42 630.89 L396.66 630.77 L398.75 630.79 L401.66 629.69 L404.52 628.57 L407.13 627.71 L402.78 636.53 L404.08 637.60 L406.62 636.86 L403.73 644.17 L403.73 647.33 L407.46 644.78 L409.66 644.50 L409.35 648.27 L412.70 646.05 L414.79 645.84 L415.44 648.11 L415.44 651.62 L417.84 650.84 L420.67 649.18 L420.93 652.34 L422.97 652.11 L426.38 649.05 L428.00 649.52 L427.46 654.59 L429.44 654.35 L432.50 651.66 L432.26 656.38 L434.14 656.30 L437.85 651.72 L440.25 650.13 L442.26 649.41 L444.99 646.69 L447.25 645.06 L449.41 643.57 L448.02 652.37 L449.71 652.39 L450.62 654.82 L450.68 660.15 L451.73 662.48 L454.37 659.44 L455.83 660.38 L457.33 661.22 L459.75 658.46 L461.52 658.10 L463.18 658.15 L463.58 663.83 L465.54 662.68 L467.76 660.06 L468.73 663.70 L470.68 662.26 L473.20 657.30 L474.68 658.17 L476.38 657.62 L478.05 657.20 L479.70 656.80 L481.20 657.58 L482.75 657.96 L484.66 654.85 L486.16 655.55 L487.89 653.39 L489.65 650.30 L491.26 648.49 L492.63 651.13 L494.00 654.71 L495.67 650.63 L497.06 656.86 L498.59 661.29 L500.19 656.40 L501.71 651.82 L503.37 658.54 L504.87 655.72 L506.28 652.26 L507.75 651.17 L509.38 652.99 L511.22 657.24 L512.38 652.05 L514.18 655.02 L515.82 655.75 L516.85 650.88 L518.96 655.60 L520.19 652.98 L522.16 655.89 L524.06 657.88 L524.37 649.82 L526.99 656.04 L527.37 649.34 L527.53 642.19 L529.01 642.22 L530.18 640.73 L530.52 635.71 L531.25 632.73 L534.68 640.96 L536.22 641.13 L537.64 640.77 L541.39 648.85 L544.61 654.43 L544.97 650.02 L545.81 647.45 L548.88 651.96 L549.46 648.64 L550.33 646.34 L552.13 646.78 L554.46 648.62 L556.00 648.21 L556.21 644.40 L558.11 644.97 L559.31 643.78 L559.25 639.65 L559.80 637.11 L561.47 637.20 L562.12 635.01 L563.57 634.60 L563.78 631.62 L566.38 633.57 L566.53 630.58 L567.15 628.59 L568.22 627.52 L567.53 623.26 L567.58 620.47 L568.11 618.61 L573.48 625.06 L574.53 623.98 L576.15 623.86 L580.88 628.64 L583.26 629.54 L582.77 625.99 L584.55 625.94 L586.40 625.96 L584.91 621.16 L585.47 619.41 L587.35 619.50 L590.15 620.77 L590.94 619.32 L591.05 617.01 L593.67 617.93 L594.05 616.01 L595.86 615.85 L596.49 614.27 L598.97 614.86 L601.68 615.64 L598.26 609.52 L601.36 610.73 L599.60 606.65 L596.18 600.95 L597.25 600.05 L596.87 597.68 L595.25 594.14 L594.93 591.97 L596.55 591.68 L602.59 595.49 L603.00 593.96 L606.94 595.62 L610.52 596.84 L613.85 597.77 L611.77 594.05 L612.13 592.46 L614.16 592.24 L612.12 588.75 L612.66 587.36 L612.90 585.75 L617.78 587.61 L617.54 585.62 L616.29 582.94 L619.33 583.32 L618.77 581.18 L615.05 576.96 L616.73 576.41 L616.32 574.49 L616.73 573.11 L616.47 571.33 L618.49 570.95 L619.27 569.81 L615.87 566.27 L617.45 565.63 L616.39 563.51 L613.97 560.73 L612.68 558.60 L616.81 559.27 L620.06 559.42 L617.57 556.73 L622.66 557.68 L627.87 558.57 L623.43 555.06 L619.26 551.77 L624.21 552.45 L622.03 550.10 L619.15 547.53 L617.71 545.60 L623.85 546.56 L625.38 545.70 L622.93 543.42 L629.30 544.22 L627.84 542.30 L623.15 539.39 L619.72 536.97 L617.42 534.98 L617.10 533.62 L614.11 531.53 L612.56 529.89 L620.32 530.67 L619.20 529.11 L613.73 526.58 L615.61 525.80 L613.82 524.21 L607.10 521.66 L602.98 519.76 L601.35 518.40 L600.73 517.25 L600.33 516.15 L600.08 515.08 L599.91 514.03 L599.77 513.00 L599.65 511.97 L599.55 510.95 L599.45 509.93 L599.35 508.92 L599.24 507.91 L599.13 506.91 L599.00 505.90 L598.87 504.90 L598.72 503.91 L598.57 502.91 L598.41 501.92 L598.24 500.94 Z"/>
  <svg class="pausebutton" id="pausebutton">
    <circle cx="500" cy="500" id="pausestart" class="pausestart" r="52.65"/>
    <rect height="50.02" width="10.00" y="473.68" rx="2.00" ry="2.00" x="479.99" class="pausesymbol"/>
    <rect height="50.02" width="10.00" y="473.68" rx="2.00" ry="2.00" x="510.00" class="pausesymbol"/>
    <polygon points="530.01,500 479.99,530.01 479.99,469.99" class="playsymbol"/>
  </svg>
  <polygon id="playback-head" class="playback-head" points="941.65,500 921.65,540 961.65,540"/>
</svg>