<?xml-stylesheet href="../../style/waveformjs.css" type="text/css"?>
<svg xmlns="http://www.w3.org/2000/svg" xmlns:xlink="http://www.w3.org/1999/xlink" width="100%" height="100%" viewBox="0 0 1000 1000">
  <path class="svg-wave" id="sp" d="M598.05 500.00 L598.22 500.98 L598.39 501.97 L598.55 502.96 L598.70 503.95 L598.83 504.95 L598.94 505.94 L599.05 506.94 L599.15 507.95 L599.22 508.95 L599.29 509.96 L599.35 510.97 L599.39 511.98 L599.41 513.00 L599.41 514.01 L599.40 515.02 L599.34 516.03 L599.25 517.04 L599.05 518.02 L598.60 518.96 L596.71 519.60 L591.58 519.52 L584.79 518.96 L577.82 518.22 L567.37 516.49 L557.71 514.74 L554.70 514.55 L552.96 514.66 L554.14 515.57 L559.74 517.83 L562.83 519.44 L563.27 520.27 L564.44 521.36 L559.52 520.39 L555.38 519.59 L552.31 519.09 L551.83 519.51 L551.79 520.09 L548.43 519.34 L550.59 520.80 L552.82 522.33 L551.98 522.59 L549.18 521.96 L551.90 523.80 L552.59 524.76 L551.85 525.05 L548.41 523.98 L550.26 525.53 L552.30 527.23 L554.18 528.90 L557.57 531.45 L560.37 533.77 L561.06 534.96 L562.46 536.60 L558.00 534.77 L553.69 532.92 L550.68 531.77 L550.13 532.13 L549.46 532.40 L545.08 530.18 L548.80 533.39 L552.35 536.59 L546.94 533.51 L548.31 535.22 L549.75 537.04 L549.22 537.42 L548.69 537.79 L544.37 535.15 L545.81 537.05 L547.86 539.50 L548.39 540.75 L551.35 544.13 L554.20 547.53 L555.86 549.99 L556.84 551.90 L552.55 548.96 L548.98 546.55 L546.08 544.68 L544.81 544.33 L545.12 545.54 L541.91 543.16 L542.25 544.38 L545.06 548.30 L543.82 547.92 L540.89 545.62 L541.97 547.78 L543.56 550.60 L542.76 550.68 L539.71 548.03 L539.70 549.01 L541.83 552.72 L542.28 554.39 L542.88 556.32 L545.16 560.55 L546.54 563.73 L547.02 565.75 L544.02 562.87 L540.76 559.47 L538.00 556.65 L536.97 556.32 L536.79 557.29 L533.82 553.84 L534.43 556.06 L536.89 561.44 L534.28 558.40 L533.55 558.49 L533.98 560.63 L533.31 560.86 L533.55 562.78 L530.63 558.73 L530.68 560.28 L531.65 563.75 L531.20 564.46 L531.75 567.29 L533.11 572.04 L533.87 575.69 L533.53 576.97 L531.92 575.34 L529.46 571.50 L527.33 568.27 L526.18 567.34 L525.73 568.20 L523.91 565.34 L523.44 566.11 L524.27 570.68 L523.30 570.13 L521.83 567.98 L521.34 568.80 L521.50 571.84 L520.78 572.04 L519.14 568.93 L518.25 568.40 L518.50 572.20 L518.12 573.78 L517.76 575.60 L518.11 580.70 L518.14 584.79 L517.29 584.93 L516.27 584.26 L514.62 579.97 L513.05 575.66 L512.05 574.28 L511.39 574.95 L510.19 571.86 L509.45 571.85 L509.50 578.29 L508.59 577.20 L507.58 574.90 L506.96 576.40 L506.28 577.51 L505.57 578.60 L504.55 574.78 L503.69 572.58 L503.15 577.05 L502.39 577.52 L501.64 579.08 L500.93 585.87 L500.07 589.76 L499.17 590.69 L498.26 590.44 L497.50 585.59 L496.80 581.48 L496.10 579.13 L495.30 579.27 L494.60 577.92 L493.98 575.82 L492.92 579.19 L491.98 580.55 L491.37 578.67 L490.76 577.17 L489.47 581.08 L488.59 581.43 L488.13 578.97 L487.66 576.88 L486.32 580.07 L485.21 581.67 L484.16 582.73 L482.21 588.14 L480.53 591.73 L479.49 592.08 L478.40 592.56 L478.52 588.06 L478.80 583.32 L478.60 580.70 L477.65 580.99 L476.49 581.99 L475.59 582.04 L474.07 584.05 L472.15 587.20 L471.24 587.01 L470.72 585.70 L469.59 586.20 L468.32 587.00 L467.86 585.59 L467.92 582.91 L467.02 582.77 L465.63 583.80 L464.12 585.04 L461.93 587.77 L460.45 588.75 L459.36 588.79 L457.73 589.97 L458.97 585.11 L459.99 580.93 L460.51 577.90 L460.01 576.96 L458.98 577.04 L459.92 573.50 L458.02 575.19 L455.60 577.69 L455.37 576.31 L456.46 572.77 L453.92 575.30 L452.13 576.49 L451.51 575.78 L452.45 572.71 L451.47 572.60 L449.67 573.69 L447.71 574.95 L446.19 575.51 L442.57 578.90 L439.65 581.19 L439.18 580.14 L439.10 578.59 L441.09 574.48 L442.42 571.32 L441.94 570.46 L440.50 570.76 L441.13 568.60 L438.63 570.08 L435.03 572.71 L434.74 571.58 L433.90 571.07 L433.31 570.28 L432.95 569.26 L431.79 569.06 L435.72 563.80 L434.76 563.46 L432.54 564.32 L431.05 564.43 L427.95 565.99 L423.62 568.57 L420.83 569.66 L418.23 570.51 L420.82 566.91 L423.38 563.44 L425.04 560.81 L425.52 559.20 L424.53 558.77 L426.30 556.22 L426.04 555.25 L422.18 556.93 L421.98 555.89 L424.14 553.20 L422.30 553.34 L418.29 554.90 L418.19 553.79 L420.10 551.39 L419.61 550.58 L416.69 551.26 L415.72 550.70 L414.09 550.52 L409.19 552.19 L405.74 552.92 L405.21 551.98 L404.44 551.16 L407.70 548.24 L410.59 545.60 L411.00 544.27 L409.05 544.11 L409.58 542.74 L407.49 542.61 L403.62 543.22 L401.00 543.22 L401.00 542.04 L402.28 540.35 L400.63 539.87 L398.57 539.53 L400.95 537.46 L402.53 535.75 L400.21 535.48 L397.49 535.29 L397.51 534.14 L393.65 534.25 L391.52 533.75 L390.40 532.90 L391.43 531.41 L395.62 529.07 L398.61 527.14 L400.06 525.69 L399.40 524.79 L401.51 523.23 L401.94 522.09 L398.20 521.87 L397.13 521.02 L399.77 519.44 L399.81 518.40 L396.03 518.02 L395.43 517.05 L397.86 515.60 L398.13 514.52 L395.33 513.85 L395.31 512.79 L392.03 512.10 L388.69 511.35 L385.66 510.50 L385.00 509.40 L383.07 508.39 L387.39 506.94 L392.13 505.57 L394.18 504.40 L392.92 503.38 L393.97 502.29 L393.87 501.23 L389.94 500.18 L387.73 499.06 L389.10 497.96 L388.68 496.84 L387.17 495.66 L386.01 494.48 L390.02 493.57 L393.19 492.68 L391.15 491.45 L391.28 490.36 L388.58 489.00 L383.30 487.30 L380.12 485.74 L379.91 484.49 L378.89 483.13 L383.61 482.60 L387.39 482.01 L389.57 481.22 L390.38 480.23 L390.92 479.20 L393.52 478.59 L391.99 477.16 L390.44 475.68 L391.36 474.75 L394.09 474.26 L391.14 472.39 L390.24 470.99 L391.26 470.09 L393.82 469.65 L392.20 468.02 L392.03 466.79 L389.51 464.80 L388.32 463.19 L384.86 460.77 L382.60 458.68 L382.69 457.39 L385.44 457.09 L389.69 457.41 L392.63 457.31 L393.18 456.29 L390.63 453.97 L387.61 451.36 L383.50 448.20 L382.35 446.27 L380.06 443.77 L384.49 444.43 L389.16 445.30 L391.35 445.03 L393.35 444.69 L396.61 445.07 L396.97 443.93 L396.06 442.08 L392.88 438.89 L388.85 435.11 L387.33 432.71 L384.26 429.29 L382.24 426.43 L387.42 428.09 L392.18 429.60 L396.61 431.01 L399.43 431.43 L400.81 430.91 L402.86 430.89 L403.75 430.06 L403.83 428.63 L403.09 426.57 L405.33 426.77 L406.18 425.91 L406.30 424.48 L405.66 422.39 L407.88 422.66 L409.08 422.10 L409.22 420.64 L406.60 416.68 L403.19 411.89 L401.91 408.91 L401.07 406.27 L397.51 400.94 L401.57 402.93 L405.98 405.41 L410.03 407.66 L412.73 408.62 L414.82 409.00 L417.94 410.56 L418.66 409.55 L417.47 406.35 L417.43 404.40 L418.79 404.05 L418.80 402.09 L420.05 401.61 L419.41 398.77 L423.37 401.75 L424.37 401.01 L424.00 398.43 L423.10 395.06 L422.86 392.49 L420.72 387.14 L419.63 383.12 L418.60 379.06 L421.62 380.98 L425.48 384.35 L429.28 387.80 L432.22 390.04 L433.70 390.00 L436.39 392.03 L437.38 391.23 L437.81 389.45 L438.44 387.95 L440.35 388.81 L441.22 387.74 L441.70 385.91 L442.29 384.22 L444.13 385.04 L445.37 384.67 L446.00 383.00 L445.71 379.20 L445.63 375.71 L444.80 370.30 L445.13 367.41 L444.73 362.58 L446.42 362.84 L449.58 367.00 L452.57 371.01 L454.94 373.57 L456.72 374.63 L459.36 378.34 L460.55 377.85 L460.72 374.09 L462.36 374.95 L463.69 374.85 L464.62 373.35 L465.62 371.99 L466.68 370.80 L468.99 374.60 L470.64 375.92 L470.95 371.54 L472.30 371.54 L473.26 369.66 L473.26 362.75 L473.93 358.65 L475.18 357.44 L476.75 358.08 L478.92 362.77 L480.87 366.58 L482.47 368.38 L483.75 367.89 L485.31 369.89 L486.73 370.87 L487.65 366.71 L488.89 365.42 L490.40 367.55 L491.77 368.18 L492.88 364.27 L494.21 363.44 L495.67 366.23 L497.05 368.32 L498.32 364.04 L499.67 362.48 L501.05 361.45 L502.55 355.14 L504.11 351.16 L505.61 350.91 L507.09 351.16 L508.32 355.79 L509.42 360.88 L510.63 363.27 L512.07 362.61 L513.26 364.62 L514.36 367.05 L516.37 361.50 L517.82 361.11 L518.71 364.88 L520.39 362.87 L521.90 362.20 L523.39 361.78 L524.37 364.23 L524.89 368.88 L526.98 365.24 L528.74 363.57 L530.43 362.38 L533.19 356.72 L535.42 353.77 L537.06 353.38 L538.96 352.14 L539.07 357.49 L539.31 362.07 L539.96 364.93 L541.17 365.76 L542.54 366.08 L542.86 369.64 L545.02 367.53 L547.28 365.30 L548.42 366.37 L548.85 369.28 L551.25 366.92 L553.08 366.18 L554.22 367.19 L554.06 371.27 L556.45 369.26 L558.55 368.05 L560.78 366.63 L564.35 362.46 L567.14 360.15 L569.06 359.78 L571.16 359.08 L570.49 363.81 L569.60 368.76 L569.13 372.75 L570.55 373.17 L573.26 371.34 L576.62 368.51 L581.47 363.35 L586.08 358.84 L590.03 355.64 L591.88 355.90 L592.98 357.33 L593.88 359.06 L596.57 358.12 L597.97 359.11 L598.68 361.08 L602.06 359.32 L603.24 360.64 L605.12 361.04 L606.10 362.61 L608.24 362.71 L609.02 364.52 L610.31 365.69 L610.85 367.76 L613.04 367.85 L614.09 369.29 L615.16 370.69 L617.09 371.15 L618.95 371.70 L619.03 374.16 L617.94 377.79 L620.04 378.08 L622.62 377.92 L620.73 382.18 L622.94 382.40 L625.87 381.99 L628.16 382.23 L626.47 386.09 L628.62 386.46 L631.84 385.95 L633.86 386.52 L631.36 390.88 L633.96 390.96 L637.29 390.52 L637.99 392.20 L634.91 396.76 L638.53 396.17 L641.13 396.41 L641.48 398.31 L638.67 402.42 L642.72 401.69 L645.21 402.10 L647.25 402.85 L643.41 407.43 L647.32 406.98 L651.82 406.25 L651.74 408.39 L647.34 413.04 L651.71 412.50 L656.40 411.86 L655.64 414.33 L651.26 418.70 L655.67 418.33 L660.64 417.75 L659.17 420.51 L654.68 424.67 L659.58 424.25 L664.06 424.12 L662.07 427.00 L658.65 430.45 L663.08 430.44 L669.07 429.87 L665.54 433.27 L663.61 435.94 L667.39 436.39 L670.99 436.97 L669.07 439.59 L665.60 442.69 L669.76 443.14 L676.03 443.00 L672.92 445.90 L670.02 448.67 L674.32 449.27 L678.39 450.02 L675.16 452.81 L671.79 455.55 L675.37 456.49 L679.00 457.49 L676.92 459.85 L672.97 462.56 L676.50 463.64 L680.79 464.63 L676.32 467.33 L672.26 469.87 L678.99 470.53 L677.39 472.61 L676.37 474.57 L680.98 475.75 L679.66 477.76 L682.41 479.27 L686.41 480.70 L685.93 482.62 L682.59 484.78 L686.60 486.32 L688.81 488.05 L687.68 490.01 L683.43 492.07 L685.62 493.84 L686.36 495.68 L686.12 497.55 L680.82 499.42 L683.32 501.25 L686.98 503.14 L685.89 504.99 L681.11 506.67 L684.16 508.63 L689.57 510.78 L685.48 512.41 L681.78 513.99 L685.39 516.14 L690.42 518.49 L686.35 519.98 L682.57 521.42 L685.69 523.67 L691.95 526.43 L686.58 527.59 L681.84 528.75 L685.35 531.21 L690.96 534.12 L684.35 534.85 L681.35 536.16 L683.97 538.60 L687.34 541.27 L682.49 542.12 L679.45 543.31 L682.04 545.87 L685.17 548.63 L682.38 549.85 L677.95 550.56 L681.25 553.46 L685.44 556.72 L680.92 557.32 L676.58 557.89 L680.43 561.16 L683.44 564.23 L678.90 564.66 L675.14 565.29 L678.30 568.50 L680.94 571.60 L676.45 571.87 L672.94 572.47 L676.05 575.85 L678.21 578.90 L672.86 578.61 L671.22 579.94 L674.47 583.59 L675.86 586.43 L671.02 586.19 L670.26 587.95 L671.51 590.78 L672.31 593.42 L668.24 593.40 L667.30 595.08 L668.50 598.00 L670.66 601.56 L665.61 600.81 L665.55 603.06 L666.75 606.13 L666.84 608.55 L661.46 607.36 L661.47 609.71 L660.73 611.58 L661.26 614.35 L656.60 613.42 L654.98 614.62 L654.36 616.57 L653.49 618.35 L653.87 621.11 L651.53 621.74 L651.24 624.02 L651.30 626.61 L651.35 629.25 L649.08 629.91 L647.25 630.93 L646.42 632.84 L649.20 638.11 L645.31 637.23 L644.05 638.79 L643.47 641.03 L643.97 644.38 L639.97 643.21 L638.47 644.54 L636.54 645.40 L637.15 649.01 L633.67 648.18 L630.91 648.06 L629.67 649.65 L628.99 651.92 L629.61 655.78 L625.84 654.35 L624.87 656.33 L624.77 659.45 L624.88 662.92 L621.47 661.80 L618.50 661.18 L618.51 664.61 L619.41 669.41 L615.58 667.51 L612.89 667.16 L612.63 670.43 L612.83 674.49 L609.26 672.75 L606.43 672.05 L605.67 674.71 L605.35 678.18 L602.10 676.68 L598.85 675.08 L596.91 675.73 L596.50 679.20 L595.75 682.15 L592.14 679.61 L590.99 681.83 L590.35 685.15 L589.69 688.57 L586.86 687.41 L583.74 685.54 L582.97 688.84 L583.20 694.63 L580.02 692.50 L576.94 690.43 L576.16 694.06 L575.58 698.40 L572.43 695.99 L569.29 693.44 L568.09 696.22 L566.90 699.23 L564.41 698.36 L561.17 695.00 L559.13 695.29 L558.01 698.76 L556.91 702.48 L553.55 698.13 L552.14 700.86 L551.04 705.03 L549.35 707.04 L546.99 706.29 L543.87 701.87 L542.68 706.33 L541.48 711.17 L539.01 709.64 L536.01 704.87 L534.72 709.82 L533.12 713.40 L530.60 711.08 L527.93 707.22 L526.29 710.95 L524.48 713.80 L522.19 712.63 L519.58 707.71 L517.50 707.87 L515.59 710.35 L513.58 712.00 L511.24 708.01 L509.22 709.55 L507.30 714.88 L505.14 714.16 L502.99 713.59 L500.84 712.20 L498.71 714.70 L496.52 717.18 L494.31 718.66 L492.29 713.86 L489.95 718.16 L487.72 718.93 L485.52 719.06 L483.68 714.22 L481.31 716.74 L479.17 716.24 L476.83 717.70 L475.35 711.47 L473.18 711.68 L470.91 712.55 L468.61 713.41 L466.68 711.80 L464.53 711.71 L461.99 713.73 L459.63 714.49 L457.31 714.98 L455.86 711.21 L453.26 713.00 L450.64 714.67 L448.12 715.71 L447.14 710.53 L444.37 712.52 L441.81 713.57 L439.54 713.46 L438.77 708.22 L435.97 709.94 L433.22 711.36 L430.63 712.16 L430.41 705.83 L428.17 705.66 L425.70 706.10 L424.02 704.32 L421.99 703.53 L419.71 703.37 L417.42 703.19 L415.09 703.08 L411.91 704.90 L411.00 701.45 L408.83 700.90 L406.23 701.25 L402.67 703.55 L402.56 698.65 L399.69 699.44 L397.40 699.00 L394.48 699.74 L394.42 695.11 L391.74 695.37 L389.95 694.00 L386.69 695.17 L387.19 689.91 L385.32 688.73 L382.83 688.56 L379.60 689.49 L374.97 692.51 L371.71 693.27 L367.86 694.80 L362.70 698.13 L361.56 695.57 L359.80 693.90 L360.07 689.52 L356.99 689.68 L354.87 688.55 L354.99 684.54 L352.64 683.71 L351.83 680.98 L351.75 677.43 L350.21 675.68 L346.70 676.20 L343.05 676.79 L342.03 674.40 L338.21 675.06 L335.03 674.96 L336.74 669.71 L334.87 668.26 L332.64 667.15 L333.20 663.29 L330.19 662.95 L329.01 660.83 L327.70 658.85 L325.17 657.96 L323.91 655.93 L323.23 653.41 L320.32 652.81 L318.55 651.22 L316.78 649.62 L315.57 647.56 L312.97 646.59 L311.91 644.41 L310.38 642.59 L309.47 640.32 L308.51 638.09 L306.36 636.72 L305.29 634.58 L304.95 631.95 L302.77 630.57 L299.31 629.99 L300.47 626.42 L296.84 625.90 L295.53 623.90 L295.16 621.34 L293.19 619.73 L291.52 617.93 L291.03 615.46 L288.68 614.01 L287.54 611.90 L286.23 609.87 L285.32 607.64 L284.20 605.52 L282.87 603.49 L281.59 601.43 L280.99 599.06 L281.03 596.42 L278.46 594.92 L278.02 592.49 L278.52 589.69 L277.08 587.69 L275.02 585.91 L274.88 583.40 L273.67 581.28 L271.91 579.35 L271.58 576.91 L269.63 575.01 L269.19 572.61 L268.35 570.34 L267.41 568.09 L265.34 566.15 L265.01 563.72 L263.77 561.52 L263.25 559.14 L262.23 556.87 L261.56 554.52 L261.40 552.05 L261.62 549.51 L259.63 547.42 L259.33 544.98 L260.55 542.28 L258.91 540.09 L257.08 537.90 L257.76 535.32 L256.78 532.98 L255.12 530.72 L256.73 528.05 L254.55 525.81 L255.12 523.28 L254.69 520.85 L254.20 518.42 L252.12 516.08 L253.17 513.53 L251.57 511.13 L252.61 508.61 L251.38 506.16 L252.21 503.66 L251.74 501.19 L253.68 498.71 L252.47 496.23 L255.27 493.83 L256.83 491.43 L258.47 489.07 L260.66 486.77 L265.42 484.68 L269.01 482.59 L274.14 480.70 L276.92 478.69 L277.11 476.46 L279.79 474.51 L283.02 472.69 L279.12 469.95 L277.40 467.44 L276.99 465.10 L271.26 461.86 L268.10 458.95 L267.71 456.48 L266.49 453.83 L271.38 452.41 L275.80 450.99 L278.19 449.18 L279.44 447.14 L279.88 444.91 L283.63 443.55 L282.44 440.91 L280.87 438.12 L281.98 436.07 L285.49 434.77 L283.63 431.83 L282.35 429.02 L283.63 427.04 L287.64 426.02 L286.41 423.19 L285.47 420.42 L283.61 417.26 L280.79 413.66 L278.92 410.36 L278.39 407.55 L277.36 404.50 L282.63 404.17 L287.03 403.55 L290.38 402.53 L291.83 400.66 L293.08 398.71 L297.53 398.36 L295.91 394.98 L293.06 390.89 L298.76 391.31 L298.97 388.81 L297.69 385.44 L298.77 383.38 L300.29 381.58 L305.65 382.12 L304.77 378.90 L304.15 375.78 L303.95 372.89 L301.89 368.72 L299.55 364.26 L299.03 360.96 L298.57 357.65 L303.91 358.46 L309.22 359.37 L313.35 359.51 L315.34 358.09 L316.21 355.82 L320.77 356.47 L321.15 353.82 L319.50 349.44 L321.32 347.89 L325.31 348.26 L325.59 345.41 L323.82 340.67 L326.31 339.73 L330.40 340.34 L330.94 337.63 L330.13 333.56 L330.96 331.02 L330.92 327.56 L329.76 322.87 L329.31 318.82 L330.28 316.20 L334.57 317.21 L339.37 318.90 L343.58 320.06 L346.19 319.44 L347.36 317.14 L351.41 318.34 L352.37 315.77 L350.91 310.09 L354.45 310.74 L356.67 309.71 L357.76 307.18 L359.74 305.84 L360.91 303.34 L365.90 306.32 L367.67 304.73 L367.49 300.19 L369.37 298.68 L369.91 295.05 L368.91 288.84 L369.22 284.56 L370.81 282.30 L373.89 282.56 L378.38 285.38 L382.39 287.53 L384.87 287.01 L387.01 285.89 L390.46 287.30 L392.40 285.83 L392.84 281.29 L395.15 280.47 L398.56 282.02 L400.51 280.52 L401.40 276.56 L403.63 275.55 L406.74 276.66 L408.94 275.67 L409.90 271.49 L411.78 269.54 L413.40 266.79 L414.29 261.94 L415.74 258.42 L418.04 257.22 L420.64 256.91 L424.45 260.50 L427.98 263.48 L430.89 264.62 L433.05 263.25 L436.28 265.74 L438.75 265.60 L439.65 259.20 L442.23 259.33 L445.19 261.17 L447.33 259.47 L449.32 256.97 L451.72 256.29 L454.72 258.79 L457.48 260.34 L459.17 255.66 L461.53 254.73 L463.81 253.12 L465.40 246.37 L467.54 242.90 L470.06 242.07 L472.55 241.00 L475.56 245.04 L478.47 249.03 L481.10 250.41 L483.58 250.03 L486.13 250.77 L488.72 252.56 L491.09 249.53 L493.57 248.50 L496.11 250.07 L498.62 252.12 L501.11 249.58 L503.63 248.58 L506.10 250.30 L508.51 252.96 L511.17 248.71 L513.74 247.71 L516.36 246.35 L519.35 240.49 L522.15 238.21 L524.85 237.60 L527.58 236.83 L529.65 242.05 L531.72 246.38 L533.88 249.48 L536.40 249.74 L539.17 248.39 L541.73 248.50 L544.61 246.86 L547.87 243.37 L550.53 243.40 L552.87 245.00 L555.53 245.00 L558.30 244.62 L560.62 246.16 L562.61 248.97 L565.07 249.77 L567.99 248.89 L571.07 247.57 L574.52 245.09 L577.44 244.62 L580.09 245.08 L583.26 243.97 L584.36 249.16 L585.44 254.12 L587.01 257.44 L589.33 258.61 L591.73 259.53 L592.96 263.45 L596.10 262.45 L599.44 261.10 L601.70 262.39 L602.67 266.60 L606.00 265.42 L609.74 263.48 L611.62 265.60 L612.78 269.14 L615.75 268.95 L618.44 269.38 L621.78 268.59 L624.86 268.39 L629.10 266.16 L632.94 264.78 L635.12 266.41 L637.14 268.30 L637.26 273.29 L637.77 277.51 L639.46 279.72 L642.57 279.73 L643.45 283.15 L646.74 282.92 L651.71 280.34 L653.38 282.61 L655.54 284.16 L657.48 286.01 L659.59 287.63 L662.41 288.31 L660.30 295.33 L662.29 297.00 L665.97 296.61 L668.86 297.24 L672.87 296.60 L678.42 294.27 L682.22 294.08 L685.92 294.09 L685.63 298.50 L684.53 303.67 L683.57 308.57 L685.11 310.78 L687.43 312.20 L686.57 316.77 L689.15 317.91 L693.98 316.97 L695.35 319.34 L695.44 322.84 L697.63 324.43 L702.28 323.88 L703.75 326.15 L703.47 329.88 L705.25 331.85 L708.93 332.29 L710.62 334.38 L713.78 335.33 L719.25 334.58 L722.94 335.27 L725.00 337.20 L727.24 339.01 L725.33 343.73 L723.44 348.33 L723.84 351.30 L726.77 352.60 L727.24 355.50 L730.39 356.72 L735.18 356.98 L738.85 358.00 L740.29 360.38 L739.91 363.79 L741.88 365.85 L744.73 367.45 L743.48 371.26 L742.45 374.89 L745.53 376.40 L749.06 377.73 L749.72 380.49 L754.49 381.32 L757.62 382.98 L759.08 385.43 L759.19 388.46 L755.98 392.87 L752.88 397.12 L752.39 400.25 L754.07 402.52 L752.21 406.11 L752.39 408.91 L757.21 410.06 L758.84 412.39 L756.93 415.89 L757.58 418.52 L762.03 419.99 L764.13 422.22 L762.26 425.61 L762.38 428.41 L766.36 430.18 L766.26 433.04 L770.47 434.85 L773.96 436.90 L777.26 439.06 L779.32 441.52 L781.40 444.02 L777.65 447.65 L774.31 451.11 L772.73 454.20 L773.38 456.90 L773.57 459.67 L774.16 462.38 L777.42 464.75 L779.61 467.31 L778.77 470.23 L779.69 472.96 L780.72 475.69 L781.52 478.46 L778.23 481.51 L774.49 484.51 L776.72 487.16 L777.24 489.91 L779.75 492.62 L785.59 495.32 L789.55 498.16 L790.03 501.05 L791.10 503.97 L786.40 506.77 L781.65 509.48 L778.95 512.18 L779.26 514.99 L778.48 517.74 L775.13 520.29 L778.06 523.31 L779.21 526.22 L778.30 528.94 L775.76 531.47 L778.41 534.60 L779.99 537.64 L779.31 540.39 L776.01 542.74 L777.97 545.89 L777.23 548.62 L780.21 552.04 L781.29 555.16 L784.41 558.73 L787.22 562.31 L786.57 565.17 L783.29 567.42 L778.64 569.26 L775.30 571.36 L773.89 573.93 L776.89 577.72 L780.27 581.69 L783.82 585.82 L785.95 589.59 L788.49 593.57 L782.75 594.84 L777.70 596.25 L774.55 598.24 L772.36 600.54 L768.81 602.30 L767.01 604.68 L767.52 607.98 L770.42 612.31 L773.67 616.88 L775.44 620.90 L778.14 625.42 L780.18 629.73 L773.82 630.13 L767.87 630.60 L762.57 631.28 L758.77 632.63 L756.72 634.84 L753.32 636.30 L751.92 638.82 L751.77 642.03 L752.11 645.57 L748.80 646.99 L747.20 649.40 L746.54 652.39 L746.62 655.87 L743.27 657.17 L741.85 659.71 L740.84 662.52 L742.99 667.53 L745.50 672.91 L745.99 676.96 L746.35 680.99 L749.68 687.31 L744.66 687.40 L738.80 686.73 L733.24 686.17 L728.95 686.52 L726.13 688.01 L721.30 687.78 L720.10 690.58 L721.02 695.28 L720.02 698.34 L717.69 700.22 L716.52 703.18 L713.99 704.87 L713.90 708.92 L708.22 707.48 L705.93 709.35 L704.93 712.55 L705.52 717.47 L704.97 721.27 L706.38 727.31 L707.17 732.81 L707.41 737.84 L703.01 737.54 L697.30 735.60 L691.90 733.86 L687.20 732.85 L684.24 733.91 L680.04 733.34 L677.93 735.44 L676.46 738.42 L674.57 740.86 L671.21 741.26 L668.98 743.23 L667.28 746.01 L665.33 748.45 L661.87 748.61 L659.61 750.58 L657.73 753.17 L656.67 757.16 L656.05 762.01 L656.05 768.07 L654.76 772.08 L654.12 777.37 L651.24 778.72 L646.07 775.73 L640.98 772.69 L636.90 771.41 L633.35 771.08 L628.61 768.18 L625.82 769.23 L624.83 774.23 L621.47 774.08 L618.33 774.37 L616.09 776.77 L613.68 778.81 L611.23 780.79 L606.99 778.18 L603.44 777.18 L602.35 782.88 L599.72 784.47 L597.33 786.81 L596.49 793.96 L594.68 798.46 L591.89 800.07 L588.77 800.58 L584.51 797.07 L580.32 793.46 L576.86 792.24 L574.12 793.75 L570.69 792.44 L567.37 791.47 L565.39 796.37 L562.59 797.81 L559.22 796.48 L556.16 796.52 L553.74 800.15 L550.97 802.04 L547.52 799.85 L544.10 797.49 L541.80 802.83 L538.90 804.23 L535.99 805.80 L533.63 812.64 L530.86 816.55 L527.73 817.33 L524.58 817.86 L521.07 813.17 L517.66 808.67 L514.47 806.61 L511.40 806.71 L508.30 805.46 L505.21 803.27 L502.21 808.55 L499.12 809.85 L496.07 806.27 L492.97 808.03 L489.84 809.24 L486.72 809.85 L483.74 807.54 L480.96 802.59 L477.64 806.49 L474.41 808.18 L471.26 808.74 L467.53 814.60 L464.00 817.72 L460.71 818.28 L457.30 819.55 L454.77 814.48 L452.33 809.49 L449.73 805.99 L446.66 805.52 L443.61 804.97 L441.30 800.64 L437.64 803.24 L434.04 805.21 L431.13 803.95 L428.70 800.67 L425.05 802.55 L421.52 803.74 L418.66 802.32 L416.75 797.54 L413.00 799.36 L409.36 800.63 L405.75 801.66 L401.30 805.14 L396.97 807.98 L393.55 807.93 L389.81 808.73 L388.39 803.08 L387.11 797.35 L385.33 793.19 L382.56 791.64 L378.47 793.30 L373.97 795.75 L368.23 800.85 L362.57 805.41 L357.81 807.73 L354.26 807.31 L351.33 805.56 L348.70 803.21 L344.80 803.41 L341.50 802.35 L339.02 799.76 L334.43 801.05 L331.70 798.89 L328.18 798.13 L325.49 795.92 L322.16 794.78 L319.47 792.59 L316.59 790.72 L314.47 787.65 L310.96 786.76 L308.43 784.36 L305.80 782.15 L302.44 780.96 L299.53 779.13 L297.49 776.10 L296.56 771.63 L293.42 770.15 L289.29 769.92 L289.05 764.72 L285.86 763.28 L281.80 762.86 L277.89 762.19 L277.63 757.23 L274.62 755.51 L270.23 755.30 L266.44 754.33 L267.04 748.65 L263.66 747.26 L259.38 746.75 L256.68 744.57 L258.00 738.43 L253.56 737.99 L249.87 736.77 L247.90 733.90 L248.99 728.26 L244.11 728.06 L240.77 726.43 L237.04 725.09 L239.23 718.74 L234.69 718.06 L229.09 718.16 L227.50 714.99 L230.28 708.45 L225.26 707.98 L219.78 707.75 L218.82 704.13 L221.70 697.83 L216.59 697.23 L210.97 696.88 L210.65 692.88 L213.67 686.76 L208.41 686.06 L202.87 685.44 L203.43 681.00 L205.64 675.64 L200.64 674.58 L193.86 674.46 L195.90 669.29 L196.78 664.85 L191.93 663.51 L187.84 661.71 L188.20 657.58 L190.46 652.58 L185.58 651.09 L179.11 650.27 L180.62 645.69 L182.99 640.79 L177.79 639.26 L172.95 637.49 L174.95 632.84 L177.66 627.99 L173.06 626.04 L168.81 623.89 L170.06 619.68 L173.05 614.90 L168.89 612.66 L163.57 610.73 L166.96 605.93 L170.91 601.07 L163.62 599.63 L164.04 595.86 L164.90 592.01 L159.36 589.88 L159.90 586.11 L156.71 583.27 L152.87 580.53 L152.00 577.08 L155.06 572.79 L150.69 570.07 L148.44 566.87 L148.35 563.25 L152.23 558.97 L149.31 555.86 L148.16 552.44 L147.10 549.00 L151.99 544.78 L149.42 541.55 L145.28 538.45 L145.35 534.85 L150.48 530.82 L147.11 527.57 L141.95 524.37 L145.27 520.58 L148.69 516.86 L144.68 513.50 L139.61 510.08 L143.55 506.40 L146.82 502.81 L143.33 499.27 L137.41 495.64 L141.79 492.11 L146.11 488.66 L142.36 484.96 L136.66 481.08 L143.03 477.83 L146.12 474.46 L143.21 470.66 L139.48 466.72 L144.76 463.63 L147.99 460.40 L144.98 456.46 L141.71 452.42 L144.65 449.19 L149.63 446.32 L145.97 442.13 L141.59 437.73 L146.35 434.90 L151.49 432.24 L147.21 427.74 L144.00 423.36 L149.03 420.76 L153.14 418.04 L149.96 413.58 L147.04 409.11 L151.93 406.65 L156.48 404.17 L153.06 399.47 L150.88 395.04 L156.53 392.99 L159.01 390.01 L155.98 385.22 L154.11 380.74 L159.84 378.89 L161.23 375.56 L160.29 371.34 L159.28 367.05 L163.87 364.95 L165.51 361.71 L164.07 357.16 L161.81 352.19 L167.89 350.88 L168.54 347.17 L168.23 342.98 L167.68 338.64 L174.23 337.77 L175.57 334.37 L174.92 329.92 L175.01 325.80 L181.36 325.08 L183.24 321.97 L184.58 318.55 L186.66 315.55 L186.78 311.38 L190.52 309.39 L191.53 305.73 L191.65 301.47 L192.12 297.39 L195.08 294.94 L197.89 292.41 L199.39 288.98 L196.86 282.66 L201.79 281.64 L204.20 278.83 L205.44 275.13 L205.40 270.39 L210.34 269.55 L213.21 267.12 L215.79 264.46 L215.94 259.75 L220.54 258.80 L224.43 257.31 L226.77 254.47 L228.15 250.76 L227.90 245.48 L233.57 245.74 L235.24 242.22 L235.94 237.71 L236.59 233.07 L241.33 232.57 L245.62 231.69 L246.39 227.10 L246.15 221.29 L251.33 221.43 L255.80 220.87 L256.63 216.15 L257.23 211.05 L262.16 211.10 L266.48 210.49 L268.18 206.65 L269.44 202.16 L274.13 202.12 L279.13 202.58 L282.32 200.66 L283.68 196.20 L285.45 192.21 L290.74 193.31 L292.86 189.80 L294.51 185.51 L296.19 181.15 L300.44 180.81 L305.52 181.91 L307.10 177.28 L307.76 170.96 L312.40 171.40 L317.33 172.47 L319.07 167.84 L320.64 162.73 L325.58 163.95 L330.51 165.30 L332.89 161.65 L335.21 157.77 L339.21 157.37 L344.56 159.97 L348.01 158.52 L350.23 154.24 L352.55 150.03 L357.91 153.12 L360.67 149.89 L362.67 144.63 L365.83 142.21 L369.72 141.72 L375.03 145.31 L377.21 140.06 L379.55 135.02 L383.61 135.10 L388.86 139.14 L391.10 133.41 L393.98 129.58 L398.27 130.63 L403.18 134.21 L405.91 129.59 L409.08 126.46 L413.00 126.35 L417.94 130.90 L421.58 129.82 L424.84 126.84 L428.38 125.12 L432.75 127.84 L436.26 125.90 L439.23 120.43 L443.18 120.87 L447.03 120.71 L451.00 121.58 L454.50 118.64 L458.06 115.87 L461.73 113.78 L465.99 117.87 L469.49 113.41 L473.31 112.40 L477.16 111.79 L481.29 116.52 L485.00 113.13 L488.89 113.80 L492.70 110.97 L496.65 117.17 L500.48 116.84 L504.32 115.28 L508.21 113.57 L512.01 115.64 L515.87 115.40 L519.82 113.50 L523.74 112.81 L527.68 112.13 L531.26 116.10 L535.30 114.14 L539.34 112.73 L543.36 111.81 L546.72 116.57 L550.94 114.08 L555.03 112.97 L558.96 113.15 L562.12 118.09 L566.43 115.84 L570.44 115.63 L574.49 115.23 L577.22 121.47 L581.14 121.60 L585.15 121.41 L588.70 123.29 L592.75 123.02 L596.49 124.05 L600.54 123.94 L604.49 124.26 L608.95 122.86 L611.90 126.72 L615.66 127.75 L619.71 127.89 L624.75 125.10 L627.18 130.18 L631.26 130.39 L635.34 130.65 L639.84 129.88 L642.02 135.18 L646.13 135.45 L649.58 137.39 L654.34 136.21 L656.24 141.73 L659.52 143.98 L663.19 145.33 L667.30 145.77 L671.77 145.53 L674.53 148.83 L678.48 149.71 L682.79 149.96 L687.42 149.68 L689.30 154.50 L692.11 157.56 L696.66 157.52 L702.47 155.42 L703.47 161.51 L706.75 163.72 L711.34 163.83 L716.11 163.75 L717.18 169.41 L720.28 171.89 L724.45 172.80 L729.20 172.93 L730.01 178.66 L732.60 181.82 L737.35 182.04 L742.33 182.05 L744.84 185.33 L748.51 187.13 L754.95 185.52 L757.77 188.47 L760.50 191.50 L764.41 193.15 L767.76 195.48 L770.02 199.03 L774.62 199.99 L777.47 202.90 L780.74 205.36 L783.55 208.30 L786.86 210.75 L789.52 213.84 L792.57 216.56 L794.64 220.21 L797.21 223.37 L800.80 225.59 L802.96 229.12 L804.62 233.07 L808.11 235.41 L812.30 237.19 L813.10 241.82 L817.46 243.51 L820.37 246.42 L822.05 250.29 L825.26 252.97 L828.18 255.88 L829.80 259.76 L833.56 262.09 L836.12 265.30 L838.78 268.45 L840.96 271.93 L843.56 275.13 L845.76 278.59 L848.22 281.90 L849.88 285.70 L851.00 289.81 L854.56 292.47 L856.33 296.19 L856.84 300.61 L859.56 303.78 L862.97 306.60 L863.54 310.94 L866.07 314.25 L869.51 317.13 L869.63 321.65 L873.01 324.60 L874.04 328.66 L875.98 332.30 L877.57 336.09 L880.86 339.18 L881.76 343.27 L884.31 346.70 L885.24 350.78 L887.65 354.28 L888.76 358.29 L890.21 362.16 L890.66 366.38 L893.66 369.74 L894.42 373.85 L894.44 378.18 L896.56 381.85 L899.25 385.38 L899.27 389.69 L901.07 393.50 L903.38 397.19 L903.10 401.55 L905.07 405.35 L905.87 409.43 L906.86 413.47 L907.46 417.59 L910.19 421.30 L909.97 425.59 L912.29 429.42 L911.79 433.73 L914.01 437.62 L913.44 441.93 L915.02 445.93 L913.94 450.27 L916.66 454.17 L915.67 458.48 L918.34 462.43 L923.78 466.21 L928.64 470.14 L930.51 474.33 L940.21 478.17 L940.58 482.56 L940.92 486.96 L941.21 491.37 L941.46 495.78 L941.65 500.00 L941.45 495.59 L941.20 491.17 L940.90 486.77 L940.57 482.37 L940.19 477.97 L948.43 473.06 L949.09 468.51 L952.31 463.74 L957.52 458.71 L958.71 453.98 L956.77 449.55 L958.28 444.74 L955.81 440.41 L955.14 435.86 L953.08 431.52 L953.09 426.88 L951.05 422.57 L951.17 417.90 L949.03 413.64 L949.43 408.90 L948.87 404.33 L948.00 399.82 L945.79 395.62 L946.07 390.84 L943.22 386.83 L942.36 382.32 L942.06 377.66 L938.89 373.80 L938.59 369.12 L938.46 364.37 L935.38 360.53 L932.99 356.51 L932.74 351.78 L930.27 347.80 L927.66 343.89 L925.83 339.72 L923.99 335.55 L922.10 331.41 L920.37 327.20 L918.27 323.16 L917.00 318.76 L915.86 314.29 L913.50 310.36 L911.11 306.46 L909.89 302.00 L906.53 298.58 L904.77 294.39 L903.81 289.77 L899.52 286.90 L898.43 282.34 L897.25 277.80 L893.76 274.55 L890.34 271.30 L888.76 266.97 L885.91 263.40 L882.09 260.45 L879.47 256.77 L876.50 253.33 L874.27 249.40 L871.28 245.99 L868.88 242.18 L865.96 238.74 L864.56 234.19 L861.01 231.21 L858.43 227.52 L855.73 223.92 L852.49 220.74 L848.95 217.82 L847.99 212.79 L843.05 211.05 L840.96 206.93 L838.84 202.81 L835.09 200.12 L831.13 197.65 L828.11 194.33 L825.09 191.02 L820.76 188.97 L817.58 185.83 L813.77 183.33 L810.87 179.92 L807.09 177.42 L804.14 174.05 L800.37 171.56 L798.42 167.07 L794.33 164.96 L790.92 162.08 L788.01 158.62 L784.34 156.05 L780.23 154.02 L779.98 147.18 L776.47 144.35 L771.82 143.03 L770.34 137.51 L767.79 133.33 L762.97 132.27 L756.46 133.68 L754.69 128.36 L751.61 124.87 L747.00 123.65 L740.84 124.92 L738.77 119.84 L736.03 115.71 L731.33 114.79 L724.77 117.07 L723.39 110.56 L720.59 106.37 L715.40 106.47 L709.74 107.53 L707.17 102.83 L703.98 99.23 L700.08 96.96 L695.38 96.34 L691.80 93.43 L688.16 90.59 L684.34 88.10 L679.55 87.78 L673.19 91.27 L670.26 86.74 L666.37 84.43 L662.31 82.51 L656.25 85.90 L652.83 82.35 L649.33 78.91 L645.20 77.18 L639.26 80.88 L636.17 76.08 L632.60 72.55 L628.17 71.75 L622.79 74.27 L619.17 70.72 L615.23 68.21 L610.88 67.21 L606.47 66.42 L602.05 65.70 L597.72 64.64 L593.43 63.38 L589.00 62.71 L583.50 67.68 L579.46 65.29 L575.27 63.57 L571.17 61.24 L566.04 65.39 L561.85 63.63 L557.61 62.08 L553.46 59.55 L548.40 64.94 L544.28 62.24 L540.06 60.00 L535.72 58.83 L531.01 62.70 L526.75 60.63 L522.37 59.91 L518.01 58.81 L513.64 57.26 L509.18 58.73 L504.77 58.17 L500.35 56.26 L495.92 56.39 L491.60 62.48 L487.19 61.57 L482.80 61.57 L478.27 58.79 L474.20 64.66 L469.87 65.36 L465.39 63.99 L460.75 61.15 L456.90 66.93 L452.45 66.33 L447.75 63.74 L443.18 62.66 L439.15 65.69 L434.86 66.64 L430.65 68.10 L426.13 67.62 L421.68 67.65 L417.86 71.07 L413.79 72.95 L409.14 72.06 L404.73 72.35 L401.62 78.31 L397.71 80.58 L392.93 79.27 L388.15 78.20 L385.08 83.46 L381.54 86.82 L376.66 85.49 L371.58 83.67 L368.99 89.88 L365.36 92.62 L360.06 90.38 L355.12 89.39 L352.71 95.50 L348.88 97.54 L344.40 97.87 L339.37 96.89 L334.79 97.16 L332.09 101.97 L327.51 102.27 L322.57 101.82 L318.67 103.79 L316.59 109.61 L313.91 113.97 L308.90 113.52 L304.12 113.61 L301.83 118.62 L300.00 124.31 L294.41 122.96 L289.36 122.72 L287.23 127.71 L285.22 132.75 L279.11 130.83 L274.27 131.17 L272.37 136.28 L269.78 140.20 L264.86 140.48 L260.04 141.00 L255.63 142.19 L254.55 148.21 L249.94 149.15 L245.61 150.52 L242.15 153.11 L241.10 158.87 L239.87 164.27 L234.59 164.45 L229.74 165.25 L228.72 170.77 L227.82 176.34 L222.40 176.52 L217.31 177.16 L216.61 182.83 L216.45 188.96 L209.98 188.19 L205.10 189.24 L204.48 194.75 L203.85 200.16 L198.48 200.76 L194.08 202.41 L190.12 204.53 L189.70 210.00 L185.38 211.80 L181.19 213.78 L177.86 216.55 L176.83 221.33 L177.55 227.52 L172.68 228.98 L168.79 231.29 L167.31 235.56 L169.04 242.29 L164.00 243.72 L159.52 245.65 L158.02 249.82 L159.82 256.33 L152.63 256.39 L148.55 258.74 L148.07 263.55 L147.64 268.34 L143.96 270.99 L139.93 273.45 L139.39 278.12 L139.20 282.94 L135.52 285.66 L133.84 289.58 L131.34 293.02 L129.42 296.79 L132.85 303.41 L128.48 305.83 L125.83 309.18 L124.24 313.09 L127.42 319.29 L122.55 321.57 L119.12 324.59 L117.59 328.50 L119.76 334.01 L114.50 336.29 L110.88 339.32 L110.51 343.71 L112.55 349.01 L108.30 351.85 L105.61 355.32 L104.71 359.46 L107.69 364.93 L103.78 368.00 L98.32 370.63 L99.81 375.51 L103.28 380.93 L99.44 384.13 L94.18 386.99 L97.32 392.19 L100.46 397.30 L95.91 400.43 L90.97 403.54 L94.11 408.56 L97.53 413.55 L93.45 416.91 L88.59 420.20 L91.49 424.99 L95.42 429.89 L90.81 433.30 L85.18 436.63 L89.45 441.48 L92.00 446.00 L87.54 449.60 L83.50 453.33 L86.69 457.87 L90.66 462.40 L86.81 466.21 L83.60 470.14 L86.97 474.53 L93.03 478.98 L87.70 482.84 L83.95 486.85 L89.23 491.13 L94.85 495.30 L88.65 499.34 L84.95 503.49 L89.58 507.56 L93.40 511.55 L88.31 515.82 L84.67 520.12 L89.99 523.97 L93.61 527.84 L89.24 532.27 L86.84 536.62 L92.73 540.21 L94.52 544.13 L91.12 548.64 L90.06 552.93 L95.78 556.31 L97.10 560.24 L96.23 564.50 L94.43 568.95 L99.56 572.21 L102.05 575.88 L101.39 580.14 L98.54 584.90 L103.96 587.90 L105.82 591.63 L103.17 596.44 L102.23 600.89 L105.47 604.28 L104.10 608.89 L107.03 612.32 L109.80 615.77 L106.77 620.96 L112.80 623.35 L117.48 626.09 L115.29 631.09 L113.34 636.08 L119.28 638.29 L123.35 641.09 L121.45 646.13 L120.33 650.94 L126.62 652.79 L130.40 655.57 L129.85 660.18 L129.22 664.87 L134.62 666.87 L138.73 669.38 L136.60 674.83 L135.78 679.73 L140.93 681.68 L144.45 684.38 L144.30 689.00 L143.42 694.07 L148.48 695.89 L153.67 697.57 L152.40 702.92 L150.58 708.70 L157.47 709.26 L162.29 710.98 L161.26 716.36 L160.99 721.34 L168.24 721.37 L171.95 723.67 L171.58 728.76 L171.17 733.97 L178.37 733.72 L181.78 736.15 L181.31 741.47 L181.03 746.74 L188.13 746.28 L191.19 748.91 L191.05 754.16 L191.82 758.74 L198.82 758.04 L200.21 762.09 L202.00 765.83 L202.72 770.58 L208.77 770.45 L211.23 773.59 L212.89 777.52 L214.47 781.56 L220.91 780.77 L223.64 783.64 L225.06 787.90 L227.58 791.03 L234.18 789.73 L236.19 793.38 L237.32 798.06 L240.44 800.52 L245.95 800.16 L247.33 804.65 L248.99 808.90 L252.07 811.42 L257.80 810.53 L259.62 814.64 L262.82 816.97 L268.10 816.46 L272.49 817.08 L275.53 819.54 L278.60 821.97 L282.38 823.35 L286.27 824.52 L288.75 827.86 L293.20 828.11 L296.59 830.00 L300.46 831.08 L303.60 833.37 L307.43 834.47 L310.50 836.90 L314.29 838.01 L316.28 842.46 L320.24 843.28 L323.74 844.94 L326.54 848.02 L330.47 848.82 L334.65 849.05 L337.43 852.26 L339.40 857.33 L340.94 863.59 L341.56 872.26 L343.96 877.04 L346.95 880.56 L350.72 882.16 L355.94 879.97 L361.58 876.40 L366.96 873.25 L370.27 875.82 L373.95 877.35 L376.45 882.56 L379.07 887.65 L382.74 889.53 L385.97 893.01 L389.26 896.45 L394.28 893.64 L398.62 893.13 L402.22 895.49 L405.38 899.82 L410.08 897.65 L414.51 896.47 L417.81 900.56 L421.39 903.55 L426.07 900.86 L430.15 901.15 L434.27 901.19 L438.72 899.02 L443.35 895.16 L448.04 890.19 L451.77 892.12 L455.60 893.39 L459.23 896.78 L462.66 903.03 L466.63 904.08 L470.58 905.77 L474.45 909.04 L478.79 904.41 L482.95 902.06 L486.96 902.33 L490.95 904.13 L494.97 905.96 L499.04 901.98 L503.07 902.99 L507.18 907.56 L511.17 904.47 L515.13 902.05 L519.17 902.37 L523.04 899.50 L526.66 893.78 L530.22 888.66 L534.12 888.43 L537.95 887.57 L542.16 890.31 L546.80 896.13 L550.79 895.84 L554.91 896.53 L559.44 899.77 L563.01 896.48 L566.48 892.94 L570.45 892.47 L575.07 895.41 L578.75 893.33 L582.23 890.36 L586.32 890.41 L590.99 892.83 L594.47 890.06 L597.88 887.17 L601.72 886.10 L604.99 882.89 L607.65 877.76 L609.90 871.52 L613.41 869.76 L617.19 868.88 L622.01 871.16 L627.79 876.00 L631.90 875.73 L635.48 873.91 L640.62 876.31 L643.64 872.97 L645.64 867.17 L649.61 866.46 L653.53 865.57 L657.82 865.49 L660.82 862.44 L663.78 859.37 L668.68 860.53 L672.07 858.39 L673.57 852.44 L676.15 848.83 L678.04 843.98 L678.84 837.23 L679.67 830.76 L682.95 828.91 L687.96 830.10 L692.33 830.05 L698.67 833.24 L703.87 834.30 L708.10 833.69 L711.75 832.11 L715.11 830.05 L717.30 826.23 L720.68 824.22 L724.56 822.94 L727.88 820.82 L730.24 817.37 L733.26 814.86 L736.99 813.30 L740.13 810.93 L741.11 805.83 L743.38 802.44 L743.88 796.93 L743.37 790.34 L742.59 783.61 L743.85 779.37 L748.43 778.94 L753.95 779.46 L760.59 781.07 L764.63 779.76 L769.49 779.26 L773.43 777.72 L775.43 774.21 L774.18 767.56 L778.42 766.31 L780.81 763.28 L783.72 760.73 L786.14 757.72 L789.52 755.57 L794.35 754.63 L797.38 752.11 L796.60 746.39 L797.96 742.52 L797.59 737.31 L795.74 731.04 L793.77 724.81 L792.81 719.46 L799.79 720.05 L803.68 718.26 L808.87 717.35 L814.40 716.57 L819.60 715.46 L822.05 712.47 L824.23 709.28 L823.96 704.55 L827.27 702.09 L830.07 699.29 L832.14 696.03 L831.29 691.09 L834.55 688.54 L837.32 685.68 L839.21 682.32 L838.39 677.54 L839.28 673.70 L838.16 668.89 L835.27 663.28 L831.88 657.54 L828.09 651.73 L832.54 649.77 L837.99 648.18 L842.21 645.97 L847.38 644.09 L852.49 642.09 L854.85 638.93 L855.23 635.00 L853.14 630.18 L852.83 626.07 L851.87 621.78 L848.61 616.76 L845.20 611.79 L848.76 609.10 L852.15 606.31 L857.84 604.13 L862.26 601.50 L866.04 598.62 L866.50 594.83 L864.69 590.48 L861.11 585.77 L859.52 581.60 L859.88 577.90 L863.06 574.80 L867.26 571.85 L869.31 568.42 L872.38 565.14 L872.93 561.40 L875.21 557.93 L873.11 553.79 L872.90 549.96 L874.11 546.32 L878.10 542.98 L875.64 538.90 L874.31 534.98 L876.71 531.41 L879.81 527.85 L876.53 523.82 L875.88 520.01 L875.86 516.24 L873.09 512.39 L868.74 508.55 L863.40 504.79 L864.51 501.16 L864.58 497.52 L867.62 493.82 L873.32 489.99 L875.07 486.19 L875.19 482.42 L876.67 478.58 L871.70 475.13 L867.37 471.73 L867.23 468.04 L867.65 464.29 L867.56 460.59 L865.51 457.11 L866.14 453.32 L868.46 449.27 L867.37 445.67 L866.33 442.08 L865.64 438.43 L863.23 435.10 L858.24 432.29 L853.10 429.59 L853.44 425.84 L853.52 422.13 L855.83 417.88 L856.83 413.88 L858.56 409.66 L856.97 406.25 L858.68 401.96 L857.07 398.55 L853.21 395.82 L852.51 392.18 L854.96 387.54 L853.32 384.16 L849.01 381.70 L848.25 378.06 L850.73 373.24 L848.08 370.25 L843.97 367.85 L843.03 364.25 L839.52 361.70 L834.24 359.94 L828.08 358.65 L825.43 355.91 L823.78 352.76 L823.98 348.74 L825.30 344.14 L823.00 341.25 L823.47 336.98 L823.15 333.07 L818.87 331.22 L814.00 329.76 L813.38 326.02 L812.21 322.56 L808.28 320.69 L806.53 317.58 L806.45 313.45 L807.13 308.81 L807.04 304.57 L803.45 302.57 L802.26 299.01 L799.57 296.45 L793.80 296.04 L788.03 295.76 L786.52 292.49 L784.22 289.79 L783.59 285.84 L784.73 280.47 L784.16 276.34 L781.34 273.97 L780.70 269.83 L778.50 266.93 L774.10 265.91 L771.13 263.73 L771.03 259.00 L769.26 255.71 L764.68 255.00 L761.21 253.31 L761.71 247.84 L759.26 245.16 L754.02 245.26 L751.76 242.43 L748.27 240.86 L742.82 241.43 L737.14 242.36 L732.20 242.60 L730.60 239.18 L729.87 234.71 L730.15 228.96 L729.02 224.76 L726.58 222.08 L725.23 218.02 L722.39 215.80 L715.27 219.16 L712.66 216.74 L709.60 214.92 L706.34 213.40 L703.38 211.46 L699.82 210.41 L699.04 205.27 L697.17 201.65 L692.77 201.88 L690.22 199.26 L686.88 197.89 L682.00 199.10 L676.50 201.49 L673.26 200.17 L669.82 199.21 L667.88 195.58 L666.80 190.25 L664.27 187.51 L661.36 185.44 L658.97 182.33 L656.12 180.07 L651.55 181.39 L647.75 181.20 L645.43 177.78 L643.27 173.93 L638.60 175.79 L634.83 175.67 L632.66 171.65 L630.04 168.66 L625.51 170.53 L622.17 169.41 L618.56 169.05 L614.25 170.73 L609.61 173.61 L604.71 177.54 L601.83 175.38 L598.76 173.79 L595.69 172.14 L593.17 168.50 L590.29 165.95 L587.30 163.69 L583.68 163.85 L579.72 165.54 L576.30 165.06 L572.88 164.63 L569.51 163.95 L565.99 164.08 L562.62 163.50 L559.77 159.91 L556.87 156.29 L553.36 156.23 L550.00 155.13 L546.57 154.48 L542.79 156.65 L538.81 161.02 L534.88 165.74 L531.63 164.43 L528.27 164.20 L525.07 161.74 L522.02 156.31 L518.64 155.04 L515.25 153.49 L511.89 150.17 L508.33 152.71 L504.83 154.67 L501.38 154.48 L497.90 151.30 L494.46 154.25 L491.06 156.52 L487.58 155.34 L484.05 153.68 L480.70 155.83 L477.31 156.85 L473.90 157.33 L470.67 159.91 L467.65 164.11 L464.79 169.12 L461.43 169.05 L458.12 169.41 L454.45 167.19 L450.24 161.64 L446.65 160.85 L443.29 161.58 L439.22 158.25 L436.26 161.29 L433.66 165.91 L430.20 166.01 L426.55 165.28 L422.87 164.58 L420.35 168.84 L417.24 170.40 L412.60 166.10 L409.50 167.86 L407.23 172.47 L403.89 173.19 L401.05 175.57 L399.21 180.97 L397.61 186.85 L394.69 188.51 L391.69 189.88 L387.72 188.57 L383.33 186.25 L379.68 186.08 L376.24 186.53 L371.84 184.65 L368.81 186.23 L366.79 190.14 L363.67 191.43 L359.67 190.77 L356.28 191.53 L354.69 196.10 L352.12 198.51 L347.31 196.42 L344.30 197.99 L342.74 202.33 L339.81 203.99 L337.57 206.89 L336.48 211.75 L336.00 217.52 L334.31 221.08 L331.30 222.37 L326.59 220.95 L320.64 217.71 L316.58 217.60 L314.21 220.11 L310.02 219.91 L306.99 221.49 L307.40 227.93 L304.36 229.41 L301.55 231.24 L298.05 232.15 L296.01 234.99 L295.33 239.54 L290.30 238.56 L286.24 238.89 L286.26 244.17 L283.84 246.48 L281.80 249.21 L281.96 254.39 L283.02 260.46 L282.70 264.87 L280.13 266.81 L276.29 267.45 L270.83 266.49 L267.07 267.36 L264.92 269.86 L260.11 269.81 L257.13 271.56 L257.34 276.29 L256.10 279.62 L251.65 280.07 L247.82 281.14 L248.32 285.95 L247.58 289.63 L242.10 289.40 L239.50 291.58 L240.44 296.56 L237.99 298.84 L237.01 302.23 L237.95 307.01 L239.84 312.39 L241.94 317.80 L238.95 319.57 L235.22 320.88 L230.42 321.54 L225.60 322.26 L223.17 324.59 L220.16 326.58 L216.08 327.96 L218.79 333.43 L217.84 336.65 L216.07 339.39 L212.43 341.11 L210.61 343.86 L214.22 349.48 L209.75 350.81 L205.41 352.29 L207.35 356.90 L207.23 360.46 L206.18 363.54 L207.16 367.54 L209.94 372.28 L213.04 377.06 L210.23 379.27 L208.41 381.91 L204.40 383.72 L200.27 385.54 L197.66 388.00 L194.60 390.32 L191.68 392.74 L193.99 396.97 L194.44 400.51 L191.99 403.11 L188.06 405.29 L190.44 409.38 L191.10 412.92 L187.94 415.39 L185.59 418.12 L188.07 422.08 L187.62 425.28 L187.89 428.64 L189.70 432.31 L192.71 436.18 L196.99 440.22 L195.10 443.01 L193.69 445.91 L190.45 448.53 L184.09 450.71 L183.14 453.80 L181.55 456.82 L177.92 459.60 L180.61 463.18 L183.33 466.70 L183.36 469.90 L185.48 473.27 L190.00 476.78 L193.76 480.13 L198.64 483.48 L201.02 486.60 L202.67 489.66 L204.59 492.68 L207.09 495.67 L206.48 498.60 L208.73 501.52 L209.09 504.43 L210.26 507.31 L210.06 510.22 L211.40 513.06 L210.66 515.99 L211.92 518.82 L211.27 521.76 L211.32 524.66 L211.40 527.56 L212.77 530.33 L211.76 533.36 L213.96 536.01 L213.76 538.94 L213.44 541.91 L216.00 544.44 L215.68 547.41 L215.01 550.45 L217.13 553.00 L218.67 555.63 L218.22 558.65 L219.64 561.29 L221.64 563.77 L222.31 566.55 L223.40 569.22 L224.14 571.98 L225.20 574.64 L226.06 577.36 L226.54 580.18 L226.44 583.19 L227.84 585.75 L228.78 588.45 L229.16 591.32 L230.08 594.03 L231.03 596.73 L231.54 599.59 L233.74 601.81 L234.03 604.76 L234.61 607.61 L237.02 609.71 L239.33 611.82 L239.42 614.88 L241.50 617.06 L243.70 619.17 L245.21 621.58 L246.51 624.08 L248.08 626.46 L249.84 628.72 L251.22 631.18 L252.96 633.43 L253.30 636.45 L255.43 638.48 L256.89 640.88 L258.21 643.37 L260.30 645.39 L262.56 647.29 L262.20 650.83 L265.89 651.79 L266.28 654.87 L267.04 657.75 L269.10 659.75 L271.72 661.33 L273.40 663.56 L275.09 665.79 L277.60 667.40 L279.57 669.40 L282.22 670.85 L282.91 673.85 L285.22 675.54 L286.91 677.75 L288.68 679.88 L289.43 682.91 L292.27 684.12 L294.51 685.84 L296.00 688.23 L298.18 689.99 L300.87 691.25 L302.02 693.99 L306.01 693.93 L307.72 696.10 L309.77 697.93 L314.93 696.45 L315.55 699.76 L315.89 703.44 L318.64 704.47 L319.03 708.19 L319.92 711.40 L322.48 712.66 L326.27 712.41 L329.35 712.95 L331.53 714.60 L335.62 713.74 L337.53 715.70 L339.32 717.81 L343.54 716.60 L346.22 717.43 L349.62 717.20 L348.38 723.75 L349.49 726.95 L350.66 730.16 L350.73 735.17 L352.36 737.83 L353.91 740.66 L356.93 741.09 L362.16 737.65 L363.23 741.35 L365.47 743.02 L367.60 744.92 L372.54 741.53 L374.14 744.39 L375.70 747.41 L377.87 749.28 L382.68 745.65 L383.80 749.70 L385.35 752.94 L387.98 753.84 L392.07 751.37 L393.59 754.82 L395.49 757.48 L398.14 758.33 L400.63 759.61 L403.75 759.18 L406.45 759.84 L408.96 761.04 L411.69 761.59 L416.22 756.61 L418.16 759.42 L420.20 762.07 L422.44 764.17 L426.61 759.56 L428.93 761.28 L431.23 763.18 L433.52 765.25 L437.53 760.27 L439.59 763.23 L441.84 765.58 L444.23 767.45 L447.75 763.76 L450.08 765.92 L452.50 767.74 L455.02 769.18 L457.53 770.76 L460.29 770.83 L463.07 770.70 L465.63 772.27 L468.35 772.66 L471.68 767.25 L474.36 767.47 L477.01 767.98 L479.45 771.35 L482.51 766.39 L485.23 765.58 L487.81 767.35 L490.36 770.78 L493.21 765.48 L495.85 766.25 L498.50 769.68 L501.20 771.45 L503.88 769.07 L506.55 768.11 L509.22 767.67 L511.96 769.11 L514.69 769.70 L517.20 766.56 L519.78 765.23 L522.60 767.04 L525.33 767.47 L527.49 762.30 L529.93 760.38 L532.85 762.63 L535.78 764.54 L537.83 760.10 L540.02 757.08 L543.07 759.56 L546.18 762.08 L547.91 756.82 L550.07 754.26 L553.48 757.98 L556.57 759.75 L558.12 754.62 L560.45 753.11 L563.32 753.89 L566.54 755.85 L569.46 756.53 L571.11 752.60 L574.06 753.33 L577.26 754.79 L579.87 754.22 L581.07 749.29 L582.58 745.56 L585.95 747.35 L589.03 748.18 L590.43 744.37 L591.24 739.18 L595.02 741.80 L598.48 743.42 L599.71 739.55 L600.45 734.69 L605.03 738.76 L608.28 739.61 L609.29 735.55 L610.56 732.17 L614.15 733.67 L617.33 734.20 L620.39 734.42 L620.82 729.59 L624.00 730.02 L627.00 730.05 L629.34 728.85 L629.74 724.30 L630.04 719.70 L633.85 721.06 L637.14 721.47 L637.59 717.31 L637.73 712.79 L641.67 714.16 L645.35 715.02 L645.59 710.80 L645.04 705.58 L649.96 708.10 L653.50 708.59 L653.43 704.18 L653.49 700.06 L657.48 701.07 L660.83 701.17 L663.35 700.18 L663.58 696.42 L666.50 695.91 L669.62 695.58 L672.09 694.47 L672.41 690.94 L671.10 685.73 L674.93 686.12 L677.51 685.11 L678.84 682.81 L676.65 676.99 L680.54 677.31 L684.05 677.17 L685.09 674.64 L682.82 669.08 L688.73 671.07 L691.80 670.39 L692.08 667.24 L691.87 663.71 L694.76 662.84 L697.92 662.15 L697.85 658.81 L698.14 655.81 L700.94 654.78 L702.23 652.58 L703.90 650.67 L705.80 648.91 L704.04 644.55 L706.93 643.51 L709.27 642.06 L710.91 640.11 L707.33 634.77 L710.00 633.53 L712.00 631.84 L713.21 629.66 L710.70 625.26 L715.36 625.13 L718.32 623.95 L719.26 621.60 L717.10 617.58 L720.46 616.56 L722.66 614.89 L723.39 612.46 L720.53 608.27 L723.63 607.03 L728.33 606.48 L727.32 603.26 L723.86 599.00 L727.32 597.82 L732.24 597.20 L729.28 593.27 L726.19 589.39 L730.40 588.40 L734.82 587.41 L732.03 583.74 L728.70 579.97 L732.62 578.74 L737.08 577.61 L734.62 574.22 L731.12 570.58 L735.31 569.29 L740.67 568.26 L736.77 564.60 L734.44 561.46 L738.51 559.98 L742.05 558.30 L739.67 555.20 L735.67 551.80 L739.57 550.15 L743.27 548.40 L740.32 545.31 L734.58 541.81 L739.91 540.29 L743.82 538.44 L739.23 535.27 L733.93 532.10 L739.94 530.48 L744.04 528.53 L739.76 525.60 L735.55 522.77 L741.49 520.91 L745.57 518.79 L740.60 515.99 L737.06 513.38 L742.23 511.24 L745.24 508.92 L739.58 506.32 L738.06 503.90 L742.22 501.54 L743.85 499.11 L738.98 496.74 L737.90 494.38 L739.11 491.96 L741.49 489.46 L736.82 487.29 L733.90 485.10 L735.85 482.60 L739.48 479.93 L735.36 477.90 L733.58 475.71 L737.34 472.91 L739.41 470.25 L736.60 468.19 L738.63 465.49 L736.50 463.38 L734.44 461.29 L738.53 458.16 L733.20 456.69 L729.04 455.09 L731.88 452.12 L734.78 449.07 L729.50 447.80 L725.91 446.24 L728.57 443.18 L730.96 440.13 L725.72 439.08 L722.17 437.64 L724.15 434.66 L726.17 431.61 L721.67 430.55 L717.76 429.37 L721.73 425.63 L723.90 422.40 L719.70 421.39 L716.91 419.93 L718.05 417.02 L720.11 413.71 L716.20 412.74 L711.51 412.16 L713.93 408.64 L717.42 404.56 L711.11 404.80 L707.19 404.07 L709.91 400.25 L711.74 396.77 L705.19 397.41 L702.02 396.46 L704.05 392.83 L706.27 389.02 L699.86 389.87 L697.35 388.67 L699.00 385.10 L701.13 381.17 L695.12 382.08 L692.62 380.94 L694.80 376.88 L695.94 373.40 L689.56 374.82 L689.32 372.24 L689.15 369.59 L690.16 366.07 L685.14 366.81 L683.67 365.06 L683.64 362.23 L683.86 359.17 L678.51 360.42 L676.61 359.03 L676.92 355.87 L676.39 353.34 L670.68 355.17 L669.93 352.86 L670.41 349.44 L669.34 347.35 L664.71 348.51 L664.41 345.72 L664.89 342.14 L663.53 340.27 L658.62 341.94 L658.49 338.88 L657.22 336.94 L652.83 338.29 L649.85 338.23 L648.60 336.32 L647.10 334.69 L645.14 333.57 L642.50 333.26 L641.75 330.74 L638.85 330.80 L636.77 329.88 L634.33 329.46 L633.07 327.53 L630.54 327.28 L629.16 325.49 L626.94 324.86 L626.82 321.29 L624.36 320.99 L622.33 320.10 L621.55 317.35 L619.09 317.10 L616.44 317.20 L615.22 315.06 L615.58 310.28 L616.28 304.76 L618.02 297.27 L617.98 292.59 L616.97 289.49 L614.73 288.57 L611.06 290.35 L606.51 293.99 L602.10 297.58 L600.80 295.08 L598.61 294.38 L598.23 289.80 L597.99 284.74 L596.22 282.90 L594.83 280.12 L593.71 276.58 L589.90 279.52 L587.12 280.06 L585.41 277.92 L584.26 274.20 L581.08 275.92 L578.30 276.62 L576.73 273.90 L575.50 269.99 L572.02 272.97 L569.48 273.10 L567.25 272.30 L564.11 274.66 L560.62 278.54 L557.11 282.84 L555.23 281.11 L553.19 279.96 L551.69 276.40 L550.75 269.98 L548.52 269.16 L546.37 267.86 L544.70 263.96 L541.49 268.27 L538.72 270.53 L536.46 269.90 L534.43 267.77 L532.36 265.57 L529.50 269.26 L527.27 268.35 L525.47 263.20 L522.84 265.69 L520.30 267.71 L517.96 267.76 L515.49 269.76 L512.90 274.64 L510.39 279.90 L508.18 280.04 L505.97 280.26 L503.82 277.34 L501.64 270.69 L499.35 270.48 L497.05 269.86 L494.64 265.18 L492.38 267.88 L490.20 271.43 L487.87 270.57 L485.39 267.79 L483.10 268.43 L481.01 271.27 L478.71 271.38 L475.99 267.31 L473.89 269.54 L471.90 272.35 L469.54 272.04 L467.58 274.55 L466.03 279.48 L464.62 284.68 L462.63 285.94 L460.43 285.98 L457.65 283.13 L454.21 277.36 L451.72 276.60 L449.54 277.32 L446.51 274.42 L444.85 277.36 L443.71 282.14 L441.45 282.40 L439.03 282.10 L436.62 281.92 L434.53 282.86 L432.74 284.71 L429.63 282.44 L427.56 283.45 L426.90 288.55 L425.51 291.31 L424.73 295.59 L424.50 301.14 L424.48 306.93 L422.69 308.03 L419.39 305.47 L416.65 304.41 L412.62 300.50 L409.36 298.57 L406.45 297.53 L403.86 297.27 L401.86 298.29 L400.66 300.91 L398.46 301.49 L396.06 301.72 L394.07 302.74 L393.01 305.46 L390.95 306.33 L388.35 306.28 L386.42 307.41 L386.28 311.50 L385.13 313.82 L385.39 318.34 L386.36 323.81 L387.53 329.39 L387.57 333.10 L383.98 331.45 L380.28 329.74 L375.68 326.90 L372.73 326.49 L369.42 325.65 L366.64 325.60 L365.08 327.17 L366.66 332.67 L363.71 332.43 L362.56 334.43 L360.07 334.82 L358.95 336.83 L356.70 337.54 L353.26 336.96 L351.15 337.91 L352.30 342.35 L352.24 345.41 L352.86 349.11 L354.44 353.69 L356.77 358.89 L358.44 363.29 L352.78 360.64 L349.96 360.79 L346.32 360.25 L341.48 358.72 L337.12 357.73 L335.26 358.98 L334.06 360.81 L334.79 364.21 L332.55 365.15 L330.83 366.53 L329.68 368.37 L330.42 371.63 L327.91 372.41 L325.83 373.55 L324.58 375.30 L325.67 378.69 L325.56 381.18 L326.85 384.58 L329.51 388.80 L333.06 393.48 L336.81 398.15 L333.33 398.28 L329.02 397.98 L325.34 398.14 L320.58 397.76 L316.80 398.01 L314.45 399.13 L313.71 401.12 L315.96 404.66 L316.48 407.25 L317.56 410.07 L321.21 414.08 L324.37 417.75 L321.44 418.55 L318.91 419.57 L313.68 419.47 L309.55 419.94 L306.16 420.78 L306.20 423.05 L307.90 425.94 L311.08 429.33 L312.92 432.14 L312.73 434.19 L310.40 435.49 L306.35 436.26 L304.03 437.66 L301.27 438.97 L301.30 441.15 L298.24 442.43 L300.58 445.25 L301.37 447.59 L299.52 449.24 L296.82 450.72 L298.35 453.22 L299.00 455.48 L297.95 457.36 L295.26 458.93 L297.80 461.54 L298.46 463.75 L298.25 465.79 L300.14 468.16 L304.13 470.81 L308.30 473.38 L307.01 475.17 L306.89 477.11 L303.87 478.74 L298.76 480.22 L296.84 482.08 L296.57 484.11 L294.59 486.02 L298.45 488.30 L301.59 490.48 L300.89 492.44 L299.52 494.39 L299.69 496.40 L301.46 498.42 L299.31 500.41 L296.63 502.45 L296.96 504.48 L297.96 506.48 L297.45 508.52 L299.95 510.42 L304.60 512.14 L309.67 513.73 L308.70 515.73 L308.53 517.67 L306.48 519.82 L303.53 522.10 L301.04 524.40 L302.63 526.21 L300.13 528.58 L301.22 530.46 L304.61 531.94 L304.71 533.93 L302.11 536.43 L302.71 538.36 L306.33 539.67 L306.64 541.63 L303.40 544.38 L304.97 546.09 L308.21 547.35 L308.39 549.34 L310.47 550.83 L314.88 551.64 L320.02 552.15 L321.96 553.52 L322.49 555.31 L321.46 557.59 L319.07 560.37 L320.18 562.00 L319.07 564.42 L318.16 566.80 L321.17 567.73 L325.02 568.28 L324.43 570.54 L324.20 572.68 L327.35 573.41 L327.93 575.20 L326.81 577.76 L325.02 580.68 L323.98 583.31 L326.05 584.46 L326.07 586.62 L328.34 587.64 L332.37 587.71 L337.42 587.15 L338.20 588.82 L339.43 590.25 L338.50 592.91 L335.20 597.01 L334.92 599.41 L336.73 600.56 L335.71 603.47 L336.68 605.16 L340.35 605.06 L342.39 605.99 L340.35 609.70 L340.53 611.94 L344.31 611.63 L346.16 612.65 L344.79 616.06 L345.85 617.68 L349.86 617.02 L351.11 618.45 L353.01 619.36 L356.95 618.55 L361.68 616.99 L365.89 615.75 L365.76 618.23 L365.25 621.09 L362.94 625.66 L362.01 629.08 L362.77 630.96 L362.85 633.53 L364.27 634.82 L370.52 631.21 L371.70 632.64 L373.23 633.71 L374.96 634.56 L376.57 635.52 L378.80 635.77 L377.43 640.10 L377.88 642.44 L380.49 642.25 L381.11 644.41 L383.53 644.40 L386.77 643.28 L390.89 640.94 L393.39 640.60 L395.17 641.16 L395.23 644.07 L393.78 649.18 L394.74 651.01 L395.68 652.89 L396.34 655.24 L397.37 657.07 L400.69 655.36 L403.26 654.74 L403.52 657.81 L403.81 660.91 L407.30 658.67 L409.71 658.14 L410.12 661.16 L410.34 664.61 L413.79 662.11 L415.64 662.54 L417.34 663.24 L420.38 661.21 L424.10 657.62 L427.77 653.93 L428.87 655.60 L430.37 656.45 L431.63 657.84 L432.07 661.22 L432.93 663.73 L434.22 665.30 L436.07 665.43 L438.69 663.50 L440.73 663.00 L442.28 663.81 L443.83 664.64 L445.69 664.58 L447.43 664.81 L448.19 668.23 L449.23 670.92 L450.95 671.37 L452.47 672.57 L454.24 672.90 L456.65 670.65 L459.40 666.81 L462.23 662.23 L463.77 662.95 L465.35 663.58 L466.44 666.63 L467.01 672.70 L468.58 673.90 L470.23 674.74 L471.41 678.54 L473.60 676.13 L475.77 673.52 L477.42 674.38 L478.79 677.72 L480.72 676.54 L482.71 674.48 L484.40 675.27 L485.86 679.11 L487.84 676.63 L489.72 674.74 L491.45 675.15 L493.28 673.19 L495.15 668.42 L496.93 663.49 L498.57 663.66 L500.20 663.70 L501.88 667.41 L503.68 673.44 L505.44 674.18 L507.20 674.43 L509.13 678.11 L510.76 675.45 L512.22 671.26 L513.98 671.67 L515.80 672.68 L517.65 673.71 L519.06 670.67 L520.58 668.95 L523.00 674.24 L524.65 673.33 L525.89 669.90 L527.60 669.66 L528.93 667.27 L529.85 662.90 L530.53 657.67 L531.84 656.05 L533.35 655.53 L535.46 657.66 L538.35 662.89 L540.20 663.38 L541.85 663.07 L544.48 666.36 L545.89 665.02 L546.49 660.92 L547.96 660.01 L550.38 662.15 L552.15 662.10 L552.84 658.78 L554.05 657.17 L556.89 660.20 L558.78 660.41 L559.02 656.21 L560.54 655.51 L561.76 654.07 L561.61 649.36 L561.21 644.28 L561.87 641.87 L563.54 641.82 L566.05 643.55 L569.35 646.84 L572.03 648.65 L573.43 647.74 L576.04 649.25 L578.19 649.73 L577.28 644.46 L579.28 644.69 L580.63 643.72 L583.06 644.65 L584.15 643.21 L583.49 638.90 L587.59 642.47 L589.71 642.69 L588.76 638.10 L590.28 637.43 L590.80 635.25 L590.08 631.32 L588.67 626.53 L587.39 622.09 L589.10 621.88 L591.89 623.10 L596.05 626.02 L598.64 626.77 L600.01 625.91 L603.42 627.57 L605.61 627.63 L604.13 623.31 L604.05 620.75 L607.56 622.32 L609.87 622.46 L608.66 618.71 L608.90 616.61 L612.37 617.93 L614.71 618.01 L612.93 613.87 L614.01 612.68 L614.78 611.20 L613.27 607.56 L610.68 603.02 L607.94 598.47 L610.57 598.86 L612.84 598.88 L617.46 600.87 L621.23 602.02 L622.86 601.31 L625.15 601.11 L627.98 601.30 L624.57 596.59 L624.76 594.76 L625.51 593.36 L628.73 593.77 L631.20 593.57 L626.71 588.47 L631.02 589.55 L635.23 590.46 L631.98 586.38 L632.17 584.64 L632.32 582.87 L630.31 579.81 L627.30 576.23 L623.30 572.17 L625.30 571.67 L626.75 570.83 L629.97 570.93 L634.41 571.61 L636.60 571.04 L638.70 570.38 L641.64 570.09 L638.92 567.03 L638.05 564.92 L640.28 564.26 L643.33 563.93 L641.33 561.35 L640.36 559.27 L642.81 558.63 L646.15 558.30 L643.17 555.46 L642.95 553.73 L643.50 552.31 L641.34 549.93 L637.10 546.89 L632.68 543.90 L634.36 542.97 L635.04 541.71 L638.52 541.27 L644.76 541.56 L645.43 540.18 L643.40 538.08 L640.55 535.82 L631.16 532.04 L620.65 528.19 L613.85 525.41 L607.20 522.80 L602.33 520.70 L600.60 519.30 L600.25 518.20 L600.06 517.13 L599.96 516.09 L599.86 515.05 L599.78 514.02 L599.69 512.99 L599.61 511.97 L599.52 510.95 L599.42 509.93 L599.32 508.92 L599.21 507.91 L599.09 506.90 L598.97 505.90 L598.83 504.90 L598.69 503.91 L598.54 502.91 L598.38 501.92 L598.22 500.94 Z"/>
  <svg class="pausebutton" id="pausebutton">
    <circle cx="500" cy="500" id="pausestart" class="pausestart" r="52.65"/>
    <rect height="50.02" width="10.00" y="473.68" rx="2.00" ry="2.00" x="479.99" class="pausesymbol"/>
    <rect height="50.02" width="10.00" y="473.68" rx="2.00" ry="2.00" x="510.00" class="pausesymbol"/>
    <polygon points="530.01,500 479.99,530.01 479.99,469.99" class="playsymbol"/>
  </svg>
  <polygon id="playback-head" class="playback-head" points="941.65,500 921.65,540 961.65,540"/>
</svg>