<?xml-stylesheet href="../../style/waveformjs.css" type="text/css"?>
<svg xmlns="http://www.w3.org/2000/svg" xmlns:xlink="http://www.w3.org/1999/xlink" width="100%" height="100%" viewBox="0 0 1000 1000">
  <path class="svg-wave" id="sp" d="M598.05 500.00 L598.22 500.98 L598.39 501.97 L598.55 502.96 L598.70 503.95 L598.83 504.95 L598.96 505.94 L599.08 506.95 L599.19 507.95 L599.28 508.96 L599.37 509.97 L599.45 510.98 L599.51 512.00 L599.57 513.02 L599.61 514.04 L599.65 515.06 L599.67 516.09 L599.69 517.11 L599.69 518.14 L599.68 519.17 L599.66 520.20 L599.63 521.24 L599.59 522.27 L599.54 523.31 L599.48 524.34 L599.41 525.38 L599.33 526.42 L599.23 527.46 L599.13 528.51 L599.02 529.55 L598.89 530.59 L598.75 531.63 L598.61 532.68 L598.45 533.72 L598.27 534.76 L598.09 535.81 L597.90 536.85 L597.70 537.89 L597.48 538.94 L597.26 539.98 L597.02 541.02 L596.77 542.06 L596.51 543.10 L596.23 544.13 L595.94 545.17 L595.64 546.20 L595.32 547.22 L594.96 548.24 L594.58 549.24 L594.17 550.23 L593.73 551.20 L593.21 552.14 L592.67 553.06 L592.07 553.95 L591.44 554.81 L590.77 555.65 L590.10 556.49 L589.33 557.26 L588.46 557.96 L587.59 558.65 L586.59 559.24 L585.59 559.82 L584.51 560.33 L583.35 560.77 L581.95 561.02 L580.66 561.32 L578.53 560.95 L575.50 559.81 L572.19 558.38 L570.97 558.57 L568.23 557.47 L566.55 557.20 L566.98 558.74 L566.30 559.33 L566.39 560.62 L565.57 561.09 L565.86 562.59 L565.79 563.79 L564.71 564.01 L565.41 566.01 L565.70 567.65 L565.14 568.43 L565.71 570.43 L565.36 571.46 L567.19 574.96 L565.86 574.97 L567.66 578.59 L566.53 578.86 L564.30 577.79 L565.16 580.45 L562.05 578.19 L558.26 574.94 L558.11 576.32 L555.47 574.37 L553.46 573.19 L552.56 573.49 L552.10 574.42 L552.21 576.18 L551.14 576.24 L549.79 575.86 L549.28 576.75 L546.93 574.72 L545.15 573.51 L544.64 574.34 L542.77 572.87 L542.23 573.61 L542.44 575.73 L542.14 576.99 L541.66 577.96 L541.04 578.68 L540.27 579.13 L538.89 578.34 L538.46 579.47 L537.61 579.72 L538.58 583.94 L539.70 588.71 L539.10 589.77 L540.93 596.60 L540.85 599.14 L538.92 597.21 L538.15 598.14 L537.01 598.08 L535.51 597.05 L534.09 596.13 L533.01 596.12 L531.72 595.45 L530.05 593.55 L528.66 592.39 L527.54 592.01 L526.83 593.04 L527.00 597.25 L526.19 598.13 L526.27 602.55 L526.12 606.39 L525.56 608.76 L524.24 607.99 L523.25 608.66 L521.89 607.57 L520.56 606.47 L520.12 610.07 L518.64 608.10 L517.43 607.48 L517.05 612.21 L515.56 609.78 L514.78 612.39 L513.61 612.11 L512.42 611.59 L511.51 613.85 L510.22 612.25 L509.42 616.31 L508.06 613.66 L506.90 613.30 L505.82 614.46 L504.50 610.16 L503.25 605.41 L502.20 605.64 L501.12 603.78 L500.08 602.29 L499.06 602.02 L498.02 603.12 L496.98 603.23 L495.96 603.04 L494.97 602.10 L494.00 601.15 L493.21 597.99 L492.24 597.83 L491.31 597.11 L490.51 595.33 L489.42 596.46 L488.26 598.00 L487.22 598.36 L486.16 598.77 L485.10 599.13 L484.15 598.69 L483.33 597.58 L482.35 597.41 L481.02 599.12 L478.73 605.37 L477.61 605.48 L475.80 608.65 L472.87 616.28 L472.18 614.09 L471.43 612.26 L470.18 612.44 L469.28 611.33 L468.72 609.12 L467.71 608.52 L466.71 607.93 L466.23 605.73 L465.82 603.41 L465.21 601.84 L464.35 601.04 L463.03 601.52 L462.28 600.45 L461.54 599.38 L460.58 598.92 L461.39 594.14 L461.64 590.93 L460.59 590.88 L458.20 593.79 L457.53 592.80 L454.72 596.39 L450.81 602.03 L450.20 600.72 L448.99 600.62 L448.40 599.31 L449.16 595.50 L449.33 592.93 L448.35 592.51 L445.70 595.01 L444.95 594.14 L441.36 598.00 L438.82 599.97 L436.95 600.75 L435.30 601.12 L435.37 598.82 L436.27 595.35 L434.96 595.23 L435.03 593.12 L435.12 591.04 L434.76 589.63 L434.67 587.89 L435.22 585.35 L435.49 583.25 L433.66 583.88 L433.24 582.69 L434.74 579.20 L432.33 580.47 L430.12 581.43 L430.21 579.70 L430.15 578.18 L426.22 580.93 L424.62 581.05 L423.31 580.82 L422.21 580.35 L421.09 579.89 L420.92 578.48 L420.56 577.28 L422.26 574.12 L419.91 574.85 L412.72 579.95 L414.33 576.92 L410.49 578.76 L402.59 584.00 L403.44 581.60 L403.17 580.18 L402.63 579.00 L402.50 577.50 L402.55 575.88 L402.16 574.63 L402.35 572.95 L403.65 570.48 L404.83 568.17 L406.46 565.60 L408.56 562.77 L407.03 562.46 L404.48 562.80 L405.83 560.57 L405.10 559.71 L404.70 558.64 L405.75 556.70 L406.78 554.82 L407.32 553.26 L404.22 553.77 L395.68 557.20 L393.86 556.83 L392.32 556.28 L387.06 557.60 L389.20 555.12 L393.62 551.60 L394.00 550.11 L391.53 549.96 L390.55 549.09 L388.36 548.73 L378.65 551.53 L378.23 550.28 L378.54 548.74 L376.20 548.24 L377.52 546.32 L382.52 543.10 L381.95 541.97 L382.09 540.60 L383.30 538.88 L384.51 537.20 L385.80 535.53 L388.10 533.59 L388.27 532.32 L385.81 531.80 L388.56 529.83 L390.01 528.27 L386.19 528.04 L384.12 527.33 L387.13 525.43 L385.72 524.55 L381.70 524.18 L381.08 523.07 L380.55 521.93 L379.77 520.84 L380.41 519.50 L380.75 518.22 L382.43 516.76 L383.26 515.45 L378.22 514.88 L374.33 514.08 L374.11 512.83 L365.82 512.32 L363.59 511.15 L365.81 509.62 L365.60 508.29 L366.60 506.89 L368.20 505.49 L367.77 504.18 L367.69 502.86 L368.94 501.52 L371.08 500.21 L372.87 498.93 L376.48 497.73 L378.33 496.54 L374.69 495.18 L376.89 494.04 L378.06 492.87 L374.87 491.43 L379.34 490.52 L381.51 489.50 L381.55 488.31 L382.34 487.19 L378.55 485.55 L372.73 483.57 L370.82 482.01 L365.21 479.85 L364.58 478.37 L368.04 477.57 L372.59 477.03 L372.77 475.74 L368.33 473.53 L370.48 472.61 L368.24 470.76 L362.47 468.03 L361.09 466.24 L362.03 465.00 L364.14 464.09 L367.35 463.52 L369.58 462.72 L371.25 461.80 L373.47 461.08 L375.30 460.27 L375.94 459.11 L377.70 458.33 L379.13 457.46 L374.33 454.35 L370.52 451.50 L370.89 450.16 L364.01 445.94 L362.43 443.71 L367.34 444.16 L373.98 445.47 L378.39 445.92 L379.47 444.95 L381.41 444.40 L383.20 443.81 L379.50 440.54 L380.34 439.45 L382.12 438.87 L384.74 438.76 L384.75 437.27 L378.51 432.30 L380.05 431.57 L378.23 428.91 L369.97 422.34 L372.50 422.11 L375.12 421.98 L377.80 421.95 L380.66 422.08 L382.24 421.42 L383.30 420.43 L385.40 420.18 L385.99 418.88 L387.01 417.89 L390.25 418.56 L393.48 419.29 L393.61 417.70 L391.94 414.67 L395.21 415.53 L396.43 414.80 L396.67 413.25 L399.18 413.62 L401.78 414.13 L403.67 414.07 L402.88 411.60 L397.76 405.06 L396.83 402.25 L397.36 400.79 L394.80 396.26 L397.35 396.73 L402.06 399.48 L403.94 399.42 L404.05 397.50 L404.54 395.95 L404.34 393.62 L400.66 387.28 L401.54 386.00 L402.93 385.31 L402.86 382.88 L405.77 384.04 L408.78 385.43 L408.87 383.16 L410.77 383.20 L413.03 383.78 L414.73 383.64 L416.58 383.73 L419.48 385.37 L421.33 385.60 L420.64 382.08 L423.68 384.11 L426.35 385.70 L425.10 381.17 L425.12 378.52 L428.09 380.69 L429.11 379.67 L428.08 375.08 L428.89 373.58 L429.90 372.41 L431.05 371.48 L432.43 370.97 L434.18 371.18 L435.96 371.52 L438.43 373.30 L438.25 369.64 L436.82 363.11 L438.89 364.03 L438.02 358.32 L436.99 351.96 L439.24 353.19 L440.73 352.62 L442.45 352.67 L444.67 354.05 L446.26 353.86 L447.79 353.52 L449.66 354.16 L451.91 356.05 L453.94 357.38 L456.23 359.69 L458.36 361.67 L459.12 359.11 L460.71 359.33 L462.44 360.14 L463.26 357.53 L465.36 359.89 L467.16 361.22 L468.84 362.22 L470.09 361.31 L470.99 358.62 L471.25 352.44 L472.20 349.25 L472.99 344.88 L474.22 342.62 L476.14 344.66 L478.36 349.07 L480.03 350.01 L480.82 344.10 L482.65 346.30 L483.91 343.37 L484.73 335.24 L486.27 333.70 L487.99 334.44 L489.61 333.61 L491.22 332.56 L492.88 332.15 L494.59 332.88 L496.22 331.34 L497.93 332.96 L499.61 337.77 L501.20 342.42 L502.71 346.16 L504.25 345.95 L505.83 345.00 L507.14 350.23 L508.79 347.60 L510.82 340.25 L512.68 336.91 L514.23 338.02 L516.37 332.86 L518.19 331.60 L519.51 334.85 L520.70 338.67 L521.67 343.50 L523.15 344.30 L524.46 346.11 L525.67 348.27 L527.01 349.54 L530.07 341.60 L531.90 340.66 L533.56 340.69 L537.99 328.17 L539.43 329.78 L540.58 332.43 L541.68 335.14 L542.58 338.40 L543.53 341.22 L545.15 341.56 L546.25 343.64 L547.75 344.32 L549.35 344.68 L550.16 347.43 L550.66 350.93 L552.07 351.67 L554.73 348.94 L555.22 352.23 L556.48 353.35 L558.13 353.44 L559.01 355.47 L561.18 354.32 L564.43 350.78 L565.75 351.81 L570.73 344.81 L575.93 337.72 L575.72 342.28 L578.09 341.44 L578.43 344.69 L576.74 351.72 L577.23 354.37 L578.38 355.71 L580.54 355.20 L582.75 354.67 L588.30 348.47 L591.15 347.11 L593.08 347.36 L595.41 347.00 L595.51 350.21 L594.43 355.12 L596.06 355.79 L596.52 358.19 L596.90 360.66 L597.71 362.45 L598.13 364.73 L597.61 368.25 L597.82 370.69 L600.07 370.43 L599.16 374.22 L598.57 377.51 L602.21 375.56 L604.15 375.74 L604.68 377.62 L606.11 378.43 L610.76 375.64 L612.70 375.98 L614.25 376.78 L615.99 377.38 L617.22 378.53 L617.30 380.86 L618.34 382.18 L617.33 385.50 L620.66 384.58 L627.81 380.17 L626.85 383.43 L632.11 381.01 L639.94 376.47 L639.22 379.56 L640.80 380.64 L642.00 382.04 L641.93 384.48 L641.85 386.88 L642.44 388.72 L642.35 391.07 L641.32 394.08 L640.50 396.87 L638.80 400.24 L637.39 403.33 L640.05 403.53 L641.50 404.60 L641.05 406.94 L643.12 407.62 L642.01 410.34 L642.76 411.84 L645.45 412.18 L647.40 413.00 L651.61 412.55 L661.07 409.23 L661.31 411.21 L661.96 412.95 L662.36 414.81 L660.02 418.07 L656.29 421.95 L655.98 424.04 L661.08 423.54 L661.42 425.35 L662.79 426.68 L670.99 425.04 L673.50 425.99 L672.71 428.36 L672.48 430.47 L676.35 430.95 L677.28 432.63 L676.82 434.82 L680.02 435.67 L677.87 438.44 L674.95 441.41 L671.09 444.59 L667.47 447.61 L667.76 449.35 L669.78 450.59 L665.93 453.51 L666.90 455.03 L672.43 455.39 L675.76 456.39 L674.69 458.51 L678.46 459.50 L684.79 460.00 L685.20 461.84 L685.89 463.63 L686.13 465.52 L685.86 467.49 L685.53 469.45 L679.91 472.22 L678.11 474.32 L681.48 475.69 L682.03 477.46 L683.53 479.14 L691.43 480.18 L694.44 481.83 L692.84 483.92 L692.65 485.88 L694.62 487.69 L692.58 489.75 L691.25 491.74 L693.73 493.57 L691.86 495.55 L688.36 497.52 L686.30 499.41 L681.31 501.24 L681.11 503.05 L686.70 505.01 L682.50 506.72 L683.20 508.58 L689.83 510.80 L688.05 512.58 L685.89 514.31 L686.35 516.22 L686.62 518.12 L684.52 519.78 L683.29 521.51 L679.92 522.94 L679.33 524.69 L681.14 526.79 L676.20 527.86 L676.71 529.76 L683.14 532.72 L687.73 535.49 L687.54 537.39 L692.08 540.30 L696.20 543.22 L697.03 545.47 L696.65 547.46 L690.79 548.07 L688.66 549.55 L685.41 550.68 L680.23 551.21 L680.01 553.09 L679.68 554.95 L676.07 555.78 L677.06 558.05 L675.81 559.60 L676.56 561.82 L674.99 563.24 L672.16 564.17 L676.31 567.74 L676.58 569.88 L673.44 570.65 L672.70 572.37 L674.74 575.29 L675.03 577.49 L672.15 578.29 L670.06 579.40 L668.42 580.70 L668.16 582.65 L665.03 583.17 L661.44 583.40 L666.21 587.98 L673.81 594.24 L670.31 594.56 L670.57 596.94 L677.14 603.03 L675.27 604.30 L670.87 604.01 L669.59 605.57 L670.71 608.65 L667.15 608.75 L663.13 608.47 L659.86 608.62 L657.22 609.14 L656.56 611.02 L651.18 609.49 L650.36 611.21 L655.24 617.24 L656.70 620.82 L654.55 621.64 L659.28 627.97 L661.23 632.21 L660.85 634.61 L659.66 636.35 L658.21 637.87 L657.37 639.93 L655.81 641.36 L653.14 641.76 L651.93 643.49 L649.78 644.31 L648.53 646.00 L647.60 648.02 L644.47 647.81 L641.51 647.71 L639.97 649.06 L638.18 650.13 L635.68 650.40 L634.50 652.12 L634.06 654.72 L633.77 657.54 L632.09 658.75 L629.26 658.55 L629.23 661.79 L628.05 663.65 L625.51 663.75 L625.66 667.37 L624.48 669.31 L622.97 670.80 L622.06 673.17 L618.08 671.13 L615.61 671.18 L611.67 668.98 L608.98 668.55 L606.96 669.10 L604.29 668.59 L603.16 670.55 L602.18 672.82 L600.83 674.49 L599.31 675.89 L597.76 677.26 L595.92 678.12 L593.91 678.65 L592.01 679.37 L590.50 680.84 L590.85 686.17 L590.02 689.26 L589.42 692.95 L589.70 698.74 L587.92 700.10 L585.51 700.02 L583.21 700.15 L580.48 699.19 L577.82 698.29 L576.01 699.53 L574.07 700.45 L571.25 698.90 L569.32 699.77 L566.91 699.26 L564.58 698.88 L563.09 701.11 L561.12 701.89 L558.82 701.54 L556.85 702.29 L553.70 698.66 L550.69 695.26 L548.81 696.08 L548.22 702.33 L546.22 702.91 L545.16 707.79 L545.37 719.32 L542.99 718.85 L540.41 717.15 L538.34 718.16 L535.03 711.70 L532.19 707.40 L530.12 707.76 L528.50 711.44 L526.42 712.00 L524.84 716.99 L523.48 724.95 L521.59 729.04 L519.17 727.73 L516.74 725.87 L514.51 726.41 L512.05 723.09 L509.78 722.20 L507.56 722.36 L505.29 720.51 L503.04 717.59 L500.84 712.05 L498.73 710.42 L496.61 711.66 L494.50 711.16 L492.57 706.16 L490.25 711.65 L487.77 718.18 L485.55 718.62 L483.42 717.72 L480.38 727.58 L477.92 729.29 L475.70 728.35 L473.31 729.01 L471.47 725.19 L469.11 725.72 L467.41 721.58 L466.47 713.19 L464.10 714.27 L460.82 720.28 L459.22 716.70 L456.52 718.98 L451.33 732.89 L449.70 729.24 L447.75 727.22 L445.34 727.29 L442.69 728.21 L440.99 725.43 L439.45 722.20 L436.85 722.96 L434.85 721.54 L434.62 714.39 L433.72 709.80 L432.40 706.73 L430.15 706.60 L426.12 711.53 L424.04 710.70 L419.25 717.15 L413.49 725.70 L410.65 726.31 L407.96 726.46 L405.40 726.25 L402.83 726.02 L400.33 725.59 L397.82 725.15 L395.37 724.56 L392.94 723.91 L390.53 723.18 L388.15 722.37 L385.82 721.47 L383.58 720.37 L381.38 719.21 L379.17 718.05 L377.04 716.76 L374.86 715.54 L372.63 714.41 L370.41 713.27 L368.26 712.00 L366.17 710.64 L364.09 709.26 L362.05 707.82 L360.01 706.38 L357.97 704.94 L355.98 703.44 L353.97 701.97 L351.96 700.49 L350.01 698.94 L348.01 697.45 L345.92 696.08 L343.95 694.56 L342.15 692.81 L340.41 691.01 L338.70 689.18 L337.09 687.24 L335.39 685.41 L333.73 683.56 L332.15 681.62 L330.41 679.86 L328.72 678.05 L327.25 676.02 L325.48 674.31 L323.41 672.88 L321.94 670.86 L321.06 668.30 L319.60 666.31 L318.56 663.94 L318.15 661.04 L316.55 659.21 L315.30 657.09 L315.09 654.11 L313.92 651.95 L312.61 649.93 L313.12 646.48 L313.19 643.43 L312.65 640.89 L313.00 637.71 L311.18 636.17 L306.36 636.72 L305.12 634.69 L302.37 633.69 L297.84 633.83 L297.28 631.31 L297.00 628.63 L296.67 626.00 L295.51 623.91 L294.71 621.61 L293.41 619.60 L292.97 617.11 L292.80 614.48 L294.28 610.99 L296.59 607.14 L298.37 603.63 L295.69 602.44 L287.53 603.89 L287.94 601.07 L283.08 600.74 L273.43 602.48 L276.63 598.35 L280.43 594.07 L281.71 590.95 L279.59 589.26 L283.95 584.99 L283.29 582.76 L280.28 581.40 L280.51 578.82 L280.55 576.34 L281.64 573.52 L281.46 571.16 L277.42 570.02 L273.84 568.67 L275.83 565.62 L272.63 564.10 L271.37 561.99 L270.63 559.74 L267.44 558.09 L269.20 555.20 L266.42 553.41 L262.67 551.77 L263.40 549.14 L265.89 546.18 L266.83 543.58 L267.55 541.05 L269.24 538.37 L269.81 535.92 L262.04 534.69 L261.38 532.36 L262.83 529.75 L255.97 528.13 L260.25 525.21 L260.65 522.75 L260.86 520.32 L264.05 517.68 L260.15 515.56 L256.66 513.34 L257.96 510.85 L257.83 508.43 L258.30 505.99 L259.91 503.55 L262.92 501.13 L262.39 498.76 L256.92 496.30 L260.48 493.96 L260.53 491.56 L255.34 488.93 L260.14 486.74 L265.20 484.66 L265.16 482.30 L265.45 479.96 L260.99 477.17 L257.65 474.40 L258.12 472.01 L254.30 469.07 L257.40 466.99 L263.89 465.47 L265.24 463.27 L261.46 460.23 L258.32 457.21 L258.12 454.68 L247.86 450.14 L247.96 447.54 L251.29 445.63 L250.16 442.76 L253.92 441.03 L257.51 439.32 L256.69 436.52 L258.55 434.42 L261.38 432.62 L262.69 430.42 L263.74 428.15 L266.98 426.58 L268.59 424.54 L267.89 421.73 L268.92 419.50 L271.67 417.89 L268.98 414.30 L269.77 411.97 L272.99 410.59 L273.38 408.11 L273.22 405.40 L273.45 402.82 L273.62 400.20 L274.09 397.70 L274.99 395.38 L277.24 393.70 L278.78 391.71 L282.25 390.69 L280.72 387.17 L275.98 381.88 L278.69 380.47 L275.64 375.91 L271.52 370.63 L274.77 369.48 L275.53 366.90 L277.97 365.33 L280.87 364.07 L282.43 362.01 L283.83 359.85 L286.16 358.30 L289.28 357.31 L292.29 356.30 L295.98 355.82 L299.89 355.55 L299.59 352.27 L300.92 350.16 L303.66 349.11 L303.33 345.71 L307.11 345.54 L310.31 344.96 L312.68 343.75 L314.32 341.94 L314.26 338.66 L310.30 331.86 L309.90 328.08 L309.46 324.19 L308.92 320.12 L312.36 319.78 L317.56 321.24 L320.23 320.29 L318.63 315.03 L321.08 313.84 L320.28 309.23 L315.43 300.11 L316.43 297.17 L318.54 295.42 L321.42 294.56 L326.22 296.00 L332.47 299.30 L335.92 299.40 L342.34 303.26 L344.56 302.01 L346.52 300.43 L350.97 302.15 L352.13 299.55 L350.95 293.67 L351.11 289.48 L356.32 292.48 L358.39 291.03 L357.73 285.47 L358.10 281.30 L360.74 280.60 L361.67 277.17 L361.27 271.47 L364.35 271.42 L368.89 273.94 L373.96 277.60 L376.50 276.90 L378.91 275.99 L382.76 277.84 L384.10 274.95 L382.28 265.69 L383.16 261.52 L385.80 260.90 L383.25 249.14 L385.23 246.80 L388.75 247.90 L392.21 248.97 L396.14 251.29 L400.12 253.92 L403.37 254.92 L407.75 258.99 L410.67 259.44 L411.73 254.81 L415.48 257.66 L418.55 258.74 L419.38 253.06 L420.65 248.44 L424.11 250.77 L426.89 250.98 L428.99 248.87 L432.14 250.53 L434.17 248.05 L435.39 242.23 L438.27 242.83 L439.20 235.05 L439.64 224.37 L443.39 228.50 L445.78 226.33 L448.87 227.62 L452.86 234.25 L455.83 235.65 L458.71 236.74 L461.04 234.25 L463.61 233.26 L465.34 225.47 L467.68 221.63 L470.33 219.98 L472.99 218.22 L475.95 219.65 L479.19 225.17 L482.08 227.08 L485.07 231.67 L487.98 236.40 L490.59 235.45 L493.26 236.33 L495.95 239.94 L498.53 236.42 L501.18 233.48 L503.83 234.55 L506.39 238.50 L509.11 235.55 L511.84 233.59 L514.42 235.25 L517.03 236.07 L520.05 231.10 L522.83 230.26 L525.52 230.56 L527.81 234.63 L530.27 236.63 L533.25 234.16 L535.37 238.49 L537.60 241.45 L541.41 233.96 L545.53 225.60 L547.63 229.70 L551.27 225.14 L555.93 215.98 L558.22 219.19 L560.96 220.09 L563.73 220.82 L565.92 223.95 L567.81 228.11 L569.49 232.80 L571.05 237.58 L573.25 239.82 L575.89 240.43 L577.26 245.23 L580.31 244.40 L584.97 238.72 L588.86 235.77 L591.20 237.54 L595.87 232.75 L600.53 228.34 L602.99 230.02 L605.29 232.06 L608.72 231.25 L613.18 228.08 L616.44 227.94 L619.92 227.40 L624.16 225.24 L627.12 226.04 L629.62 227.81 L632.09 229.62 L634.64 231.24 L637.14 232.95 L639.06 235.76 L640.63 239.14 L642.67 241.58 L644.64 244.08 L645.49 248.48 L647.79 250.31 L649.36 253.32 L649.46 258.62 L650.99 261.53 L652.91 263.74 L653.98 267.23 L656.05 269.15 L658.71 270.21 L662.32 269.92 L667.82 267.11 L672.11 266.13 L676.04 265.74 L680.92 264.18 L684.06 265.00 L685.51 267.96 L687.57 270.14 L688.27 273.94 L688.03 278.76 L688.77 282.34 L690.12 285.15 L689.99 289.58 L691.08 292.58 L692.42 295.28 L694.57 297.09 L697.35 298.27 L702.40 297.20 L706.62 297.08 L710.24 297.61 L715.62 296.55 L717.94 298.44 L718.44 301.99 L719.05 305.40 L719.01 309.31 L718.98 313.15 L721.73 314.61 L722.51 317.71 L723.92 320.27 L726.65 321.77 L728.96 323.63 L729.52 326.83 L733.08 327.77 L738.32 327.56 L738.94 330.73 L741.57 332.46 L746.37 332.76 L746.51 336.24 L745.25 340.59 L741.77 346.27 L744.87 347.72 L749.78 348.10 L749.07 351.92 L752.70 353.17 L760.72 351.97 L764.18 353.48 L764.47 356.77 L766.51 359.09 L770.34 360.50 L772.77 362.69 L774.40 365.28 L779.83 366.08 L781.33 368.80 L781.47 372.15 L782.03 375.28 L782.43 378.46 L781.26 382.29 L781.22 385.59 L782.51 388.35 L781.91 391.83 L783.71 394.39 L785.79 396.85 L787.33 399.53 L789.80 401.91 L792.12 404.37 L793.14 407.27 L792.98 410.54 L791.69 414.11 L789.40 417.92 L786.39 421.86 L784.15 425.51 L782.77 428.89 L780.58 432.42 L779.94 435.53 L780.00 438.45 L779.27 441.53 L779.78 444.34 L781.42 446.94 L786.17 449.00 L794.03 450.63 L798.05 453.01 L803.39 455.27 L809.58 457.52 L807.76 460.90 L805.02 464.34 L804.88 467.45 L805.66 470.45 L803.77 473.70 L804.75 476.68 L807.12 479.59 L805.20 482.78 L803.44 485.92 L802.65 488.99 L801.09 492.06 L801.53 495.06 L803.88 498.06 L802.71 501.10 L803.74 504.14 L807.19 507.26 L806.32 510.31 L806.28 513.37 L806.83 516.47 L807.33 519.58 L807.66 522.69 L808.21 525.84 L808.90 529.01 L809.04 532.14 L809.24 535.29 L809.41 538.45 L809.33 541.58 L809.77 544.80 L811.93 548.30 L811.90 551.50 L811.96 554.72 L813.43 558.21 L811.48 561.08 L809.03 563.81 L808.32 566.89 L808.54 570.17 L809.07 573.55 L810.63 577.21 L810.15 580.39 L811.52 584.08 L813.42 587.97 L811.56 590.81 L810.24 593.81 L810.74 597.36 L809.32 600.32 L807.76 603.23 L806.49 606.23 L806.45 609.66 L805.85 612.90 L805.90 616.41 L805.20 619.65 L803.98 622.69 L802.50 625.63 L797.06 626.87 L791.97 628.16 L790.08 630.81 L785.59 632.24 L782.40 634.20 L782.16 637.56 L783.45 641.72 L784.17 645.65 L783.12 648.70 L783.93 652.77 L783.51 656.22 L780.06 657.99 L776.45 659.62 L772.37 660.92 L768.19 662.09 L766.69 664.84 L762.97 666.20 L760.86 668.54 L760.20 671.83 L759.03 674.80 L756.06 676.55 L755.20 679.75 L757.36 685.15 L754.69 687.12 L754.55 690.96 L756.35 696.35 L754.73 699.18 L752.96 701.91 L750.49 704.07 L750.70 708.45 L752.19 713.98 L750.43 716.84 L750.19 721.04 L750.68 725.99 L748.72 728.76 L746.05 730.89 L743.55 733.17 L741.48 735.87 L738.69 737.85 L735.99 739.91 L733.26 741.92 L730.41 743.81 L727.72 745.83 L724.24 746.98 L721.26 748.65 L717.34 749.22 L713.37 749.66 L710.75 751.65 L706.79 752.00 L703.75 753.42 L701.38 755.67 L699.80 758.95 L697.00 760.67 L693.64 761.62 L689.53 761.50 L685.66 761.63 L680.48 759.79 L676.91 760.17 L673.40 760.58 L670.18 761.36 L668.36 764.31 L666.68 767.54 L664.17 769.49 L661.69 771.47 L659.41 773.85 L656.24 774.67 L653.03 775.40 L650.43 777.23 L648.44 780.21 L649.20 788.58 L646.61 790.67 L644.93 794.62 L643.55 799.34 L640.21 800.03 L636.16 799.11 L633.56 801.36 L630.45 802.47 L626.56 801.71 L624.50 805.34 L620.53 804.28 L616.62 803.22 L613.19 803.31 L609.52 802.68 L606.48 803.76 L604.24 807.17 L601.64 809.65 L598.84 811.61 L596.65 815.62 L593.71 817.32 L590.49 818.09 L587.25 818.78 L583.99 819.35 L580.61 819.47 L576.89 818.08 L572.63 814.19 L568.89 812.22 L565.76 812.86 L562.54 813.06 L558.59 809.35 L556.12 813.47 L554.31 821.83 L551.58 825.46 L548.29 825.75 L546.32 835.59 L543.47 840.03 L539.83 838.35 L536.30 837.46 L532.70 835.43 L528.95 831.23 L525.25 826.53 L521.72 822.94 L518.39 821.31 L515.15 821.01 L511.83 818.27 L508.74 821.51 L505.54 822.88 L502.37 830.48 L499.07 829.14 L495.73 832.53 L492.12 845.03 L488.65 845.57 L485.14 846.71 L481.70 845.97 L478.33 844.47 L475.15 840.54 L472.33 833.30 L469.61 826.43 L466.62 823.47 L463.48 822.32 L460.78 817.69 L457.67 816.78 L453.48 823.45 L449.03 830.90 L445.93 829.10 L441.63 834.33 L436.85 841.56 L433.88 838.65 L430.96 835.72 L428.34 831.58 L425.88 827.12 L423.00 824.71 L421.00 818.91 L418.71 814.65 L414.84 816.50 L411.77 815.31 L409.78 810.45 L405.71 812.75 L400.95 817.01 L397.43 817.12 L393.93 817.06 L387.80 824.58 L383.16 827.35 L380.02 825.82 L376.16 826.19 L373.54 823.32 L371.86 818.19 L369.71 814.43 L369.35 806.58 L367.10 803.43 L363.04 804.38 L362.29 798.04 L360.00 795.21 L353.47 801.15 L347.77 805.08 L345.64 801.76 L340.35 804.55 L331.42 813.91 L329.72 809.61 L326.51 808.12 L323.25 806.67 L322.97 800.19 L323.30 792.89 L322.15 788.25 L320.60 784.35 L316.68 784.22 L316.25 778.73 L314.43 775.46 L310.12 775.86 L307.77 773.39 L304.55 772.15 L303.49 767.92 L300.22 766.74 L295.01 768.07 L292.95 765.23 L291.13 762.11 L286.91 761.99 L282.05 762.56 L279.77 759.97 L279.55 755.01 L276.85 752.98 L275.11 749.87 L273.93 746.18 L274.50 740.69 L269.52 741.12 L261.41 744.66 L257.31 743.94 L254.42 741.96 L243.53 747.68 L240.80 745.36 L239.28 741.89 L236.89 739.27 L235.56 735.68 L236.07 730.53 L236.54 725.52 L237.84 719.90 L237.99 715.35 L234.58 713.74 L236.11 708.20 L235.21 704.64 L227.41 706.35 L217.55 709.41 L216.46 705.85 L209.43 706.55 L195.97 711.57 L195.12 707.67 L192.46 705.01 L190.70 701.74 L190.30 697.62 L187.97 694.75 L187.32 690.83 L186.04 687.33 L185.98 683.13 L188.83 677.32 L191.97 671.48 L194.77 665.94 L194.50 662.15 L192.80 659.14 L194.48 654.41 L192.74 651.45 L191.81 648.10 L190.93 644.74 L186.18 643.15 L181.77 641.34 L177.45 639.41 L166.77 640.09 L163.75 637.42 L162.25 634.10 L164.28 629.43 L167.68 624.32 L170.55 619.50 L171.86 615.32 L168.72 612.72 L170.27 608.52 L172.74 604.10 L163.54 603.33 L157.20 601.54 L157.07 597.86 L153.19 595.22 L138.82 595.29 L138.66 591.48 L137.78 587.86 L137.27 584.15 L138.28 580.11 L142.50 575.44 L146.27 570.96 L151.58 566.27 L151.31 562.72 L144.86 560.22 L147.71 556.12 L139.92 553.67 L129.19 551.48 L132.10 547.34 L130.11 543.84 L129.01 540.21 L130.34 536.33 L131.78 532.47 L132.42 528.72 L131.20 525.10 L133.76 521.25 L139.22 517.32 L142.59 513.57 L146.53 509.89 L146.75 506.35 L146.00 502.82 L148.72 499.28 L147.89 495.76 L149.51 492.28 L149.36 488.76 L145.37 485.08 L141.93 481.35 L138.57 477.55 L125.46 472.97 L124.25 469.11 L125.66 465.45 L129.24 462.04 L133.86 458.81 L141.51 456.03 L144.78 452.82 L143.14 448.97 L144.17 445.48 L140.24 441.19 L129.89 435.69 L131.01 432.08 L128.85 427.84 L127.92 423.79 L130.18 420.39 L133.93 417.36 L134.55 413.65 L134.83 409.85 L138.00 406.78 L144.11 404.55 L148.44 401.93 L154.05 399.76 L155.89 396.55 L154.51 392.36 L161.15 390.70 L162.10 387.26 L155.23 381.12 L151.10 375.78 L154.42 373.06 L149.55 367.27 L142.19 360.38 L143.22 356.66 L146.18 353.72 L148.34 350.48 L151.98 347.90 L158.35 346.59 L165.43 345.73 L169.87 343.76 L169.90 339.71 L169.75 335.54 L171.22 332.15 L162.32 323.33 L161.20 318.40 L164.04 315.58 L165.20 311.83 L167.16 308.53 L171.29 306.50 L172.31 302.67 L174.73 299.66 L177.59 296.95 L183.76 296.39 L189.31 295.54 L195.81 295.43 L202.13 295.32 L205.34 293.16 L209.60 291.78 L211.13 288.48 L209.73 282.96 L207.54 276.73 L206.19 271.01 L204.87 265.20 L203.67 259.37 L203.24 254.05 L203.73 249.42 L204.60 245.05 L205.78 240.89 L207.45 237.12 L209.67 233.81 L211.80 230.41 L214.76 227.78 L219.08 226.49 L222.94 224.79 L223.65 219.95 L228.07 218.86 L232.41 217.76 L233.79 213.53 L235.20 209.28 L240.01 208.75 L244.93 208.45 L246.23 204.01 L250.95 203.57 L257.05 204.89 L261.22 203.97 L267.55 205.85 L273.25 207.08 L276.93 205.80 L282.15 206.64 L286.28 206.12 L286.73 200.48 L291.21 200.47 L293.43 197.25 L289.72 185.09 L291.95 181.59 L293.37 176.75 L289.93 164.01 L292.50 160.61 L295.83 158.43 L300.73 158.92 L303.92 156.56 L305.96 152.09 L310.08 151.33 L315.13 152.36 L317.79 148.95 L320.05 144.65 L324.84 145.36 L330.27 147.53 L332.68 143.45 L336.11 141.47 L339.90 140.29 L344.13 140.14 L347.99 139.22 L350.47 134.93 L355.70 137.41 L361.23 140.90 L365.97 142.57 L370.88 144.91 L374.97 145.15 L378.61 144.16 L383.49 146.95 L387.18 146.30 L390.88 145.69 L394.29 144.16 L396.64 138.85 L398.73 132.32 L400.88 125.53 L402.63 116.70 L405.41 111.37 L408.97 109.04 L413.34 110.19 L417.55 110.79 L421.34 109.45 L424.92 106.98 L429.31 108.77 L433.15 107.64 L437.00 106.51 L440.76 104.69 L444.94 105.73 L448.72 103.93 L452.62 102.91 L456.51 101.72 L460.68 103.13 L464.58 101.97 L468.68 103.12 L472.96 107.31 L477.13 111.31 L481.11 112.96 L485.12 116.31 L489.10 121.07 L492.86 119.51 L496.69 122.18 L500.46 125.27 L504.24 123.05 L507.95 125.81 L511.85 120.93 L516.10 109.86 L520.04 109.18 L524.41 101.89 L529.04 93.07 L533.30 91.01 L537.22 93.17 L540.99 96.51 L545.11 96.12 L549.57 93.18 L553.30 96.22 L557.00 99.09 L561.31 97.71 L565.76 95.69 L569.34 99.05 L572.92 102.05 L577.16 101.47 L581.35 101.25 L584.92 103.97 L588.71 105.59 L592.71 106.26 L596.53 107.64 L599.55 112.12 L602.48 116.69 L604.89 122.83 L607.31 128.55 L610.48 131.44 L613.85 133.57 L617.91 133.49 L623.32 129.41 L628.77 125.58 L634.22 122.05 L639.81 118.47 L644.98 116.26 L649.27 116.57 L653.54 116.96 L658.76 115.12 L662.04 118.05 L664.79 122.13 L668.88 123.08 L674.19 121.42 L676.99 125.26 L679.34 129.91 L684.32 129.14 L689.41 128.26 L692.03 132.27 L694.28 136.84 L699.21 136.43 L704.06 136.25 L706.71 140.01 L709.40 143.63 L714.06 143.90 L718.16 145.16 L720.89 148.64 L724.36 150.92 L728.30 152.48 L732.06 154.34 L736.05 155.89 L739.59 158.10 L743.58 159.70 L747.18 161.87 L751.06 163.68 L754.13 166.57 L757.44 169.14 L761.04 171.34 L763.66 174.79 L766.45 177.98 L768.98 181.46 L771.82 184.55 L774.06 188.30 L777.44 190.75 L780.16 193.94 L784.90 194.94 L786.50 199.31 L790.69 200.96 L794.27 203.27 L796.89 206.56 L798.08 211.22 L802.00 213.22 L806.08 215.11 L808.28 218.76 L809.82 222.98 L813.28 225.48 L816.05 228.59 L816.63 233.54 L816.30 239.19 L815.72 244.92 L814.39 251.15 L815.03 255.73 L818.90 257.79 L820.85 261.33 L824.27 263.79 L830.74 264.10 L833.33 267.25 L834.54 271.35 L836.01 275.24 L838.33 278.55 L840.59 281.90 L843.92 284.60 L847.89 286.92 L851.38 289.59 L854.56 292.47 L858.10 295.18 L863.60 296.83 L866.38 300.06 L869.15 303.31 L873.74 305.64 L879.35 307.51 L880.19 311.85 L882.49 315.44 L885.97 318.50 L889.25 321.69 L888.92 326.53 L892.43 329.65 L894.85 333.27 L897.61 336.77 L898.11 341.19 L901.98 344.29 L904.48 347.96 L906.29 351.90 L907.07 356.21 L909.79 359.84 L911.52 363.83 L912.56 368.05 L912.91 372.47 L914.00 376.66 L916.01 380.57 L916.59 384.90 L916.25 389.47 L917.63 393.56 L920.81 397.22 L920.25 401.80 L918.45 406.62 L920.06 410.66 L923.98 414.25 L922.17 419.00 L919.98 423.77 L922.91 427.60 L925.46 431.53 L923.73 436.15 L921.87 440.74 L924.29 444.72 L926.51 448.76 L925.61 453.18 L924.66 457.58 L925.92 461.75 L925.97 466.04 L923.02 470.53 L918.71 475.03 L914.73 479.43 L913.23 483.65 L917.79 487.65 L921.08 491.76 L923.64 495.95 L947.06 500.00 L959.65 495.40 L961.56 490.77 L964.55 486.06 L968.23 481.26 L965.69 476.70 L960.45 472.34 L955.61 468.05 L951.49 463.80 L950.28 459.37 L948.87 454.96 L946.91 450.64 L945.77 446.25 L945.07 441.81 L943.68 437.48 L942.09 433.18 L940.86 428.85 L939.28 424.60 L937.71 420.35 L936.46 416.06 L934.94 411.83 L933.35 407.64 L935.02 402.72 L932.44 398.75 L929.82 394.82 L930.67 390.03 L931.96 385.09 L927.85 381.59 L924.69 377.88 L925.96 372.89 L926.94 367.93 L921.93 364.84 L918.70 361.25 L919.73 356.23 L918.55 351.94 L913.73 348.98 L912.43 344.76 L911.10 340.55 L909.59 336.40 L906.22 333.02 L905.17 328.70 L903.36 324.69 L901.15 320.86 L898.10 317.42 L896.52 313.33 L894.70 309.34 L892.96 305.31 L891.74 301.01 L891.56 296.15 L891.04 291.43 L890.87 286.46 L890.58 281.52 L890.05 276.67 L890.18 271.39 L889.11 266.75 L888.29 261.94 L887.55 257.03 L886.10 252.52 L883.49 248.75 L880.14 245.48 L876.99 242.09 L874.49 238.26 L871.03 235.12 L871.30 229.28 L870.27 224.32 L866.33 221.52 L864.18 217.36 L859.15 215.46 L852.03 215.33 L845.83 214.57 L840.10 213.54 L835.13 211.94 L832.22 208.62 L828.40 206.11 L824.55 203.66 L821.81 200.20 L818.54 197.25 L814.77 194.78 L811.88 191.47 L808.30 188.84 L804.27 186.71 L801.28 183.51 L798.07 180.56 L794.73 177.73 L791.34 174.97 L788.97 171.06 L784.67 169.34 L781.73 166.06 L778.35 163.29 L774.70 160.85 L770.14 159.58 L767.49 155.91 L764.85 152.18 L760.59 150.59 L755.66 149.95 L753.52 145.48 L750.33 142.45 L745.24 142.14 L740.96 140.74 L737.92 137.49 L733.81 135.87 L729.54 134.52 L724.98 133.70 L721.26 131.55 L717.41 129.62 L713.13 128.44 L708.77 127.47 L705.14 125.20 L701.32 123.28 L696.97 122.39 L692.94 120.91 L689.10 119.09 L685.13 117.52 L681.08 116.17 L677.09 114.68 L673.21 112.96 L670.51 108.55 L666.04 108.16 L661.55 107.87 L659.00 102.83 L656.04 98.64 L651.89 97.44 L649.08 92.61 L646.90 85.78 L644.07 80.49 L641.08 75.41 L638.58 68.55 L634.48 66.50 L629.79 66.34 L624.67 67.75 L618.98 71.43 L613.28 75.53 L607.84 79.08 L602.84 81.20 L598.31 81.62 L593.87 81.81 L589.40 82.17 L584.95 82.64 L580.65 82.46 L576.30 82.60 L571.88 83.23 L567.52 83.69 L563.26 83.65 L559.02 83.58 L554.76 83.71 L550.53 83.72 L546.33 83.53 L542.43 80.46 L538.09 81.67 L533.78 82.88 L529.78 80.03 L526.13 70.69 L522.19 63.59 L517.83 63.25 L513.80 52.11 L509.41 47.44 L504.85 50.82 L500.36 48.71 L495.88 52.36 L491.47 55.64 L486.98 54.35 L482.72 59.53 L478.51 63.50 L474.32 66.76 L470.24 70.69 L466.25 74.74 L462.26 78.08 L458.15 79.50 L453.94 79.92 L449.73 80.29 L445.67 81.85 L441.56 82.91 L437.37 83.38 L433.25 84.26 L429.21 85.65 L425.16 86.85 L421.00 87.47 L417.02 88.98 L412.78 89.21 L408.71 90.23 L404.81 91.98 L400.54 92.18 L395.50 89.38 L389.46 83.13 L384.07 79.81 L378.33 75.59 L373.02 73.26 L369.00 75.30 L364.92 77.14 L360.91 79.17 L358.29 85.20 L354.34 87.19 L350.89 90.50 L348.41 96.29 L345.78 101.44 L343.75 107.88 L341.45 113.40 L337.01 113.64 L334.23 117.77 L330.76 120.22 L326.98 121.95 L323.85 125.06 L320.26 127.16 L317.35 130.60 L314.27 133.64 L311.05 136.35 L307.63 138.65 L304.12 140.77 L300.85 143.29 L297.52 145.70 L292.78 145.68 L290.10 149.20 L286.54 151.22 L281.84 151.41 L272.25 144.05 L267.27 144.16 L262.45 144.61 L252.83 138.10 L248.99 140.26 L246.96 144.96 L241.14 144.37 L239.02 148.89 L238.06 154.86 L235.81 159.03 L235.42 165.49 L235.90 172.88 L234.40 177.67 L234.39 184.15 L233.30 189.22 L230.10 191.77 L228.94 196.62 L227.19 200.75 L224.50 203.79 L222.16 207.20 L219.52 210.28 L217.34 213.81 L214.80 216.96 L212.10 219.95 L209.95 223.44 L207.38 226.53 L204.03 228.89 L200.99 231.55 L197.63 233.95 L193.61 235.80 L189.59 237.70 L185.17 239.31 L179.77 240.20 L173.88 240.79 L167.97 241.46 L162.08 242.26 L155.97 243.00 L150.00 243.96 L147.21 247.29 L146.67 252.21 L146.19 257.12 L148.33 263.73 L150.56 270.26 L152.91 276.75 L154.07 282.35 L152.88 286.41 L153.06 291.28 L150.79 294.65 L150.78 299.31 L150.68 303.87 L149.60 307.85 L149.18 312.16 L141.61 312.69 L131.03 311.84 L129.44 315.67 L124.62 317.93 L121.05 320.86 L123.21 326.47 L126.70 332.58 L130.18 338.56 L129.80 342.79 L129.56 347.04 L127.93 350.70 L126.33 354.38 L117.96 355.51 L109.78 356.85 L111.06 361.72 L105.53 364.18 L96.98 365.73 L95.79 369.81 L100.85 375.83 L97.35 379.14 L97.55 383.58 L101.80 389.11 L104.60 394.14 L108.77 399.44 L109.16 403.69 L109.56 407.93 L109.85 412.10 L111.59 416.57 L112.43 420.79 L112.30 424.80 L109.94 428.38 L108.01 432.07 L96.05 434.15 L91.84 437.65 L91.66 441.79 L88.79 445.57 L91.90 450.13 L98.73 455.03 L102.75 459.50 L104.66 463.69 L105.77 467.76 L104.10 471.61 L90.98 474.78 L88.10 478.73 L84.87 482.72 L80.11 486.73 L80.57 490.94 L82.49 495.16 L81.37 499.33 L84.94 503.49 L84.97 507.64 L85.95 511.77 L90.63 515.73 L95.20 519.61 L100.84 523.34 L103.14 527.19 L104.37 531.08 L108.05 534.74 L108.93 538.61 L111.58 542.27 L113.41 545.99 L115.36 549.66 L117.55 553.27 L105.33 559.01 L101.24 563.70 L105.66 567.05 L99.02 572.31 L100.34 576.20 L108.23 578.77 L113.25 581.79 L119.31 584.49 L121.12 588.08 L123.43 591.52 L121.48 596.01 L124.73 599.19 L113.58 606.28 L111.99 610.91 L113.76 614.59 L111.19 619.60 L104.80 625.90 L110.14 628.51 L114.34 631.41 L114.55 635.66 L118.86 638.44 L124.87 640.52 L131.52 642.25 L135.34 644.98 L137.60 648.29 L137.70 652.50 L129.78 660.21 L129.35 664.82 L128.47 669.68 L128.29 674.27 L131.04 677.50 L133.02 681.09 L135.79 684.28 L141.68 685.82 L142.85 689.77 L146.23 692.53 L153.72 692.97 L160.07 693.91 L166.96 694.42 L169.99 697.10 L173.15 699.68 L174.77 703.18 L177.04 706.29 L182.24 707.46 L181.66 712.42 L181.94 716.85 L187.77 717.49 L180.39 727.41 L176.77 734.88 L181.66 736.23 L177.44 744.40 L174.78 751.58 L179.18 753.34 L185.11 753.81 L187.44 757.13 L193.40 757.41 L200.18 756.87 L206.62 756.49 L213.52 755.56 L217.19 757.40 L220.56 759.49 L224.13 761.36 L225.21 765.60 L219.38 776.72 L221.14 780.55 L222.00 785.32 L219.22 794.01 L220.57 798.51 L226.72 797.86 L231.23 798.88 L235.23 800.43 L238.26 803.05 L243.99 802.47 L247.42 804.55 L248.43 809.58 L250.29 813.65 L254.72 814.48 L258.66 815.89 L259.30 821.68 L262.48 824.13 L267.54 823.97 L269.91 827.55 L274.19 828.38 L276.15 832.61 L280.30 833.59 L286.52 831.31 L289.13 834.56 L293.90 834.36 L299.38 832.87 L306.39 828.63 L312.42 825.80 L315.34 828.28 L319.11 829.24 L323.79 828.47 L321.01 841.82 L322.77 846.84 L326.98 847.13 L328.09 853.72 L328.26 862.56 L332.93 862.01 L338.75 858.77 L341.67 861.93 L346.05 861.72 L352.57 856.23 L357.14 855.20 L362.26 852.63 L366.75 851.46 L369.89 853.81 L373.88 853.84 L375.87 859.58 L377.06 868.05 L380.55 869.86 L383.27 874.19 L385.70 879.73 L388.90 882.92 L393.67 880.65 L397.92 880.06 L401.36 882.50 L406.20 879.36 L411.25 875.00 L415.72 872.69 L420.30 869.59 L424.78 866.59 L429.05 864.23 L432.96 863.50 L435.14 872.49 L437.99 878.47 L441.93 878.13 L444.54 886.86 L447.58 893.67 L451.67 892.92 L456.19 888.15 L460.15 887.84 L464.30 885.28 L468.75 878.48 L473.06 871.47 L477.03 867.78 L480.80 866.14 L484.53 864.79 L488.17 865.20 L491.80 866.09 L495.31 878.65 L499.09 881.28 L502.90 880.99 L506.83 887.99 L510.74 888.76 L514.72 891.20 L518.49 888.00 L522.35 887.46 L526.16 886.37 L529.76 882.63 L533.25 878.53 L536.78 875.55 L540.43 874.23 L543.98 872.20 L547.21 867.92 L551.35 870.77 L555.98 876.47 L559.33 873.33 L563.40 874.70 L568.42 881.17 L572.72 883.03 L575.57 877.41 L579.25 876.20 L582.98 875.27 L585.98 871.21 L588.51 865.45 L591.64 862.50 L594.84 859.96 L598.14 857.94 L601.75 857.06 L605.01 854.98 L608.94 855.19 L613.30 856.63 L617.12 856.28 L621.44 857.31 L625.37 857.13 L628.85 855.61 L631.51 851.92 L634.13 848.29 L636.37 843.81 L638.55 839.37 L642.12 838.39 L644.30 834.19 L646.70 830.62 L650.41 830.04 L652.84 826.67 L656.47 825.90 L662.05 829.04 L666.76 830.24 L670.23 828.90 L676.34 832.51 L680.41 832.11 L683.22 829.39 L686.23 827.06 L689.03 824.40 L692.67 823.16 L695.77 821.03 L698.87 818.89 L702.90 818.22 L706.71 817.16 L708.93 813.66 L711.11 810.16 L712.97 806.27 L713.12 800.04 L714.67 795.91 L716.63 792.41 L718.38 788.69 L721.11 786.31 L725.62 786.18 L727.97 783.29 L729.88 779.89 L730.84 775.39 L732.39 771.68 L733.41 767.41 L734.41 763.19 L735.74 759.42 L737.51 756.17 L739.95 753.67 L741.87 750.63 L743.71 747.53 L746.25 745.16 L748.07 742.09 L750.41 739.52 L752.58 736.81 L754.27 733.66 L756.21 730.76 L761.04 730.42 L764.75 729.03 L766.95 726.31 L772.46 726.33 L776.17 724.79 L776.88 720.80 L779.47 718.33 L781.28 715.25 L786.44 714.69 L790.65 713.34 L793.80 711.16 L797.95 709.66 L801.53 707.70 L803.15 704.38 L803.75 700.39 L806.59 697.89 L807.08 693.89 L806.04 688.98 L807.23 685.50 L805.85 680.51 L805.01 675.93 L804.01 671.32 L804.23 667.46 L807.63 665.35 L811.18 663.27 L813.60 660.56 L817.28 658.46 L821.08 656.36 L822.96 653.30 L822.34 649.08 L820.40 644.31 L820.83 640.66 L817.78 635.55 L814.56 630.48 L815.18 627.05 L816.31 623.85 L818.50 621.05 L819.22 617.68 L820.24 614.43 L822.67 611.67 L822.72 608.09 L822.46 604.43 L823.19 601.10 L826.30 598.50 L826.42 594.99 L826.01 591.35 L830.21 588.97 L834.43 586.53 L836.07 583.38 L840.45 580.86 L843.65 578.00 L846.09 574.92 L846.56 571.40 L843.71 567.24 L841.79 563.32 L842.99 560.00 L841.53 556.23 L840.75 552.61 L843.09 549.46 L843.60 546.03 L843.92 542.58 L844.64 539.18 L845.62 535.79 L846.27 532.36 L847.05 528.94 L848.30 525.54 L848.46 522.05 L848.02 518.53 L848.95 515.08 L848.27 511.56 L847.08 508.05 L850.23 504.62 L851.37 501.12 L851.30 497.61 L853.68 494.05 L853.43 490.52 L851.69 487.05 L849.34 483.63 L846.20 480.31 L842.28 477.10 L842.84 473.61 L842.93 470.15 L839.67 467.01 L838.97 463.65 L838.11 460.32 L835.68 457.20 L832.22 454.26 L837.74 450.06 L842.68 445.82 L845.00 441.91 L851.14 437.26 L854.06 433.08 L853.61 429.49 L852.40 426.06 L849.92 422.92 L848.14 419.66 L845.77 416.55 L841.83 413.87 L838.63 411.07 L834.43 408.59 L829.06 406.51 L824.80 404.20 L821.25 401.75 L818.82 398.99 L818.93 395.44 L819.08 391.84 L819.42 388.15 L820.00 384.34 L818.99 381.09 L817.93 377.85 L814.23 375.65 L813.52 372.29 L810.47 369.90 L805.04 368.57 L804.24 365.30 L801.94 362.69 L798.53 360.62 L796.30 358.03 L798.42 353.33 L797.18 350.23 L795.86 347.17 L796.70 342.95 L795.92 339.56 L791.93 337.92 L792.14 333.97 L796.42 327.59 L794.51 324.73 L789.33 323.87 L792.53 317.89 L790.84 314.88 L784.13 315.14 L779.46 314.17 L777.20 311.65 L777.93 307.06 L776.22 304.13 L774.39 301.28 L774.73 296.81 L774.19 292.94 L771.98 290.30 L768.69 288.52 L767.24 285.30 L763.68 283.79 L759.75 282.62 L757.89 279.76 L753.55 279.04 L749.11 278.49 L744.93 277.79 L741.71 276.26 L740.03 273.32 L740.39 268.38 L739.42 264.66 L739.41 259.91 L739.53 254.94 L737.15 252.47 L734.70 250.07 L731.10 248.91 L726.99 248.37 L722.08 248.82 L718.56 247.76 L713.76 248.26 L709.37 248.37 L705.12 248.41 L701.56 247.66 L698.42 246.43 L696.28 243.93 L696.16 238.71 L694.88 234.94 L693.95 230.60 L694.26 224.40 L692.70 220.73 L690.13 218.46 L686.84 217.29 L682.96 217.04 L679.81 215.72 L676.56 214.58 L672.10 215.46 L668.97 214.23 L665.97 212.78 L660.80 215.19 L657.12 215.10 L653.08 215.74 L647.78 218.88 L643.87 219.54 L640.40 219.43 L636.92 219.41 L633.94 218.40 L630.77 217.84 L627.97 216.48 L626.58 211.91 L624.32 209.19 L621.69 207.28 L620.49 201.78 L617.64 200.23 L614.08 200.53 L610.84 200.06 L609.57 194.13 L608.39 187.63 L605.08 187.08 L603.46 181.40 L602.13 174.44 L599.13 172.58 L594.60 175.89 L591.18 175.56 L587.34 176.86 L582.76 181.19 L578.22 185.79 L573.98 189.60 L570.02 192.61 L566.89 192.18 L563.57 192.71 L560.16 193.79 L559.12 182.30 L556.83 176.64 L553.04 179.45 L551.20 170.10 L548.97 162.27 L545.12 165.29 L541.25 169.02 L538.21 166.18 L534.70 167.52 L530.94 171.75 L527.67 171.35 L524.42 170.57 L521.41 165.77 L518.00 166.88 L514.60 168.25 L511.34 166.36 L508.06 164.01 L504.64 168.25 L501.32 169.01 L497.99 166.17 L494.61 163.53 L491.35 167.53 L488.08 169.16 L484.74 168.70 L481.75 174.58 L478.79 179.18 L475.75 181.67 L473.16 188.80 L470.12 189.77 L466.97 189.64 L463.72 188.72 L460.21 185.96 L456.18 179.85 L453.02 180.52 L449.56 179.32 L446.64 181.58 L443.86 184.38 L442.18 192.74 L439.46 195.14 L435.93 193.41 L434.07 199.55 L428.88 190.71 L423.95 183.78 L421.46 187.22 L417.14 183.46 L413.73 183.40 L411.32 186.93 L407.83 186.57 L405.14 188.96 L402.88 192.59 L398.68 190.12 L394.07 186.67 L391.62 189.69 L390.02 194.95 L386.01 193.48 L383.79 196.81 L382.86 203.29 L381.00 207.19 L380.02 213.05 L378.74 217.94 L377.27 222.22 L375.39 225.42 L371.43 224.06 L364.13 215.84 L361.54 217.72 L356.76 215.22 L350.18 209.40 L346.95 210.29 L345.64 214.76 L343.14 216.93 L340.69 219.18 L341.02 226.17 L340.79 231.98 L338.85 234.79 L333.71 232.41 L330.27 232.86 L328.29 235.63 L324.21 235.17 L318.64 232.63 L316.48 235.19 L317.41 242.07 L312.72 240.97 L307.00 238.62 L304.04 240.09 L304.38 245.86 L301.49 247.38 L299.41 249.92 L302.13 258.30 L300.07 260.71 L302.40 268.24 L303.41 274.05 L301.35 276.24 L299.85 279.03 L297.43 280.81 L288.66 275.86 L284.29 275.76 L282.53 278.41 L277.65 277.92 L276.49 281.19 L278.39 287.35 L278.34 291.52 L274.63 292.24 L269.55 291.77 L267.52 294.13 L260.06 291.76 L254.76 291.43 L254.19 295.14 L253.05 298.34 L252.60 302.07 L252.54 306.05 L249.30 307.52 L249.23 311.42 L246.91 313.61 L243.71 315.17 L244.04 319.28 L244.99 323.74 L245.57 327.88 L245.89 331.78 L246.45 335.77 L246.37 339.29 L245.70 342.41 L245.81 345.98 L245.94 349.51 L244.07 351.84 L243.85 355.11 L236.44 354.38 L230.85 354.78 L231.31 358.48 L223.90 358.09 L220.59 359.90 L222.10 364.12 L221.46 367.24 L221.81 370.80 L220.73 373.68 L219.10 376.31 L217.65 379.03 L216.03 381.69 L213.67 384.05 L212.37 386.86 L213.92 390.75 L212.70 393.57 L208.65 395.37 L210.05 399.13 L208.90 401.99 L207.29 404.69 L208.01 408.15 L209.32 411.74 L209.31 414.91 L209.57 418.13 L211.34 421.73 L212.67 425.17 L211.03 427.82 L213.87 431.56 L216.35 435.15 L214.99 437.83 L216.96 441.22 L215.16 443.81 L205.04 444.87 L204.65 447.85 L200.31 450.17 L196.16 452.59 L197.17 455.85 L203.41 459.78 L206.27 463.16 L203.86 465.86 L202.54 468.72 L198.50 471.34 L195.97 474.16 L194.03 477.08 L193.61 480.12 L198.06 483.44 L202.63 486.68 L197.51 489.48 L198.23 492.52 L201.52 495.59 L196.63 498.55 L196.38 501.59 L199.70 504.57 L202.21 507.51 L203.31 510.45 L204.41 513.38 L206.86 516.20 L203.06 519.39 L200.94 522.54 L204.77 525.22 L205.31 528.15 L206.95 530.95 L211.43 533.40 L205.91 537.02 L208.72 539.63 L208.20 542.68 L202.18 546.60 L204.38 549.29 L207.31 551.82 L209.32 554.46 L211.54 557.04 L215.52 559.21 L217.65 561.72 L214.96 565.31 L213.89 568.57 L217.89 570.60 L215.74 574.17 L217.10 576.84 L217.33 579.82 L215.99 583.28 L220.27 585.07 L218.10 588.82 L215.92 592.64 L217.99 595.09 L221.02 597.19 L223.03 599.61 L224.43 602.23 L223.45 605.75 L225.77 608.01 L230.12 609.43 L230.07 612.61 L233.40 614.36 L239.45 614.87 L244.96 615.50 L237.88 621.87 L237.85 625.09 L241.99 626.30 L236.74 632.15 L236.88 635.39 L241.83 636.12 L246.65 636.84 L250.10 638.22 L252.86 639.94 L255.49 641.70 L256.79 644.21 L258.36 646.56 L261.44 647.98 L263.71 649.87 L265.69 651.92 L268.21 653.60 L267.50 657.44 L267.61 660.77 L268.85 663.36 L268.14 667.36 L269.63 669.81 L272.91 670.93 L276.30 671.91 L280.91 671.88 L286.00 671.37 L289.38 672.15 L293.64 672.14 L297.67 672.23 L299.42 674.24 L301.89 675.59 L303.94 677.31 L305.08 679.86 L307.10 681.59 L309.26 683.19 L311.18 685.02 L313.48 686.46 L316.02 687.63 L318.41 688.94 L320.72 690.30 L322.98 691.72 L325.20 693.15 L327.56 694.41 L329.86 695.73 L332.00 697.21 L334.13 698.71 L336.36 700.07 L338.69 701.29 L341.03 702.49 L343.42 703.60 L345.83 704.67 L348.21 705.77 L350.48 707.00 L352.72 708.24 L355.02 709.40 L357.32 710.54 L359.60 711.71 L361.85 712.91 L364.12 714.07 L366.44 715.15 L368.76 716.20 L371.10 717.21 L373.46 718.19 L375.82 719.13 L378.19 720.04 L380.46 721.13 L382.76 722.17 L385.03 723.24 L387.24 724.44 L389.46 725.62 L391.61 726.94 L393.81 728.18 L395.96 729.54 L398.12 730.88 L400.31 732.18 L402.46 733.57 L404.60 735.03 L406.76 736.46 L408.86 738.11 L407.78 748.34 L408.00 755.55 L410.85 755.61 L411.59 761.89 L414.25 762.65 L417.68 760.96 L421.66 757.29 L426.24 751.23 L428.67 752.24 L431.13 753.21 L434.13 752.11 L437.38 749.84 L439.69 751.25 L442.04 752.59 L444.98 751.24 L448.34 747.75 L448.00 762.50 L450.28 764.84 L453.46 762.35 L455.26 767.73 L457.83 768.86 L461.78 760.69 L464.90 757.29 L467.37 758.48 L470.40 755.00 L472.95 755.28 L475.55 755.04 L477.89 757.75 L479.83 766.43 L482.61 764.87 L485.21 765.92 L487.57 772.57 L490.14 777.09 L493.05 771.75 L495.77 771.43 L498.48 772.31 L501.20 770.06 L503.81 763.91 L506.37 760.81 L508.93 759.28 L511.48 758.25 L513.96 756.18 L516.34 753.26 L518.85 752.74 L521.22 750.78 L523.61 749.27 L526.38 751.67 L529.85 759.75 L532.95 763.45 L535.41 761.84 L538.46 764.43 L541.03 763.61 L542.81 758.02 L544.17 750.64 L546.72 750.43 L548.87 748.18 L551.08 746.37 L555.96 756.97 L559.38 760.11 L561.85 759.00 L565.70 763.40 L568.34 762.77 L569.76 757.65 L570.98 752.12 L573.60 751.74 L575.61 749.33 L578.31 749.24 L581.32 750.04 L583.43 748.06 L585.37 745.67 L587.66 744.35 L589.05 740.63 L591.42 739.66 L593.54 738.04 L595.17 735.25 L596.94 732.90 L598.79 730.81 L600.33 728.08 L602.87 727.64 L607.16 730.96 L610.61 732.27 L613.85 733.04 L618.00 735.55 L620.39 734.42 L622.54 732.85 L624.40 730.76 L626.53 729.20 L628.77 727.84 L631.16 726.74 L633.59 725.71 L636.35 725.20 L638.97 724.43 L639.97 721.08 L641.77 719.04 L642.57 715.52 L642.46 710.75 L643.49 707.76 L643.13 702.88 L645.87 702.42 L647.51 700.45 L650.58 700.39 L653.62 700.23 L654.18 696.86 L656.67 695.97 L659.49 695.45 L659.41 691.41 L659.81 688.04 L661.48 686.20 L662.33 683.44 L662.88 680.40 L664.83 678.92 L666.54 677.19 L669.17 676.42 L671.98 675.80 L673.18 673.52 L674.94 671.81 L676.33 669.75 L677.32 667.31 L678.83 665.39 L678.43 661.74 L679.52 659.49 L681.91 658.39 L683.82 656.84 L684.40 654.18 L686.41 652.71 L692.23 654.30 L698.54 656.12 L698.56 652.95 L703.73 653.71 L711.01 655.92 L712.19 653.53 L709.51 648.43 L710.77 646.17 L709.47 642.19 L708.20 638.31 L705.49 633.57 L703.80 629.59 L707.71 629.18 L706.69 625.70 L704.56 621.61 L706.13 619.77 L714.27 621.65 L716.64 620.15 L715.91 616.94 L725.65 619.31 L731.82 619.62 L729.84 615.70 L728.57 612.21 L729.67 609.92 L729.73 607.14 L728.75 603.91 L727.43 600.58 L729.65 598.82 L732.58 597.34 L732.87 594.74 L731.28 591.41 L733.02 589.41 L737.97 588.59 L736.31 585.29 L736.26 582.61 L737.91 580.53 L738.17 577.97 L739.78 575.85 L737.03 572.38 L737.95 570.07 L738.46 567.63 L733.87 563.81 L731.42 560.66 L729.89 557.81 L724.60 554.10 L724.98 551.82 L726.22 549.72 L731.38 548.44 L736.49 547.05 L736.35 544.57 L741.80 543.09 L748.54 541.74 L749.13 539.28 L744.46 536.04 L746.46 533.82 L746.19 531.28 L744.58 528.59 L741.24 525.76 L740.18 523.22 L740.58 520.83 L739.25 518.31 L738.21 515.83 L736.16 513.33 L743.01 511.28 L743.76 508.87 L740.15 506.33 L744.98 504.01 L744.27 501.56 L738.97 499.13 L736.33 496.78 L732.39 494.51 L729.99 492.26 L731.85 489.88 L729.69 487.67 L727.63 485.50 L728.98 483.11 L728.11 480.88 L725.91 478.79 L728.98 476.19 L735.35 473.14 L735.58 470.73 L735.67 468.32 L737.93 465.59 L734.86 463.63 L728.62 462.25 L727.35 460.12 L725.90 458.05 L725.11 455.86 L723.98 453.75 L723.56 451.50 L728.86 447.95 L730.84 445.06 L728.31 443.25 L730.51 440.25 L734.93 436.59 L733.78 434.38 L728.35 433.44 L729.47 430.62 L727.73 428.65 L722.40 427.87 L717.15 427.16 L712.99 426.18 L709.51 425.03 L710.47 422.30 L708.76 420.56 L707.51 418.65 L709.02 415.63 L707.31 413.90 L704.87 412.51 L705.27 409.90 L711.56 404.60 L710.63 402.47 L709.53 400.43 L711.88 396.70 L709.32 395.35 L704.07 395.41 L699.57 395.18 L697.98 393.48 L696.36 391.80 L694.69 390.17 L700.97 383.96 L702.49 380.37 L701.87 377.99 L701.90 375.20 L700.17 373.49 L696.83 372.83 L696.23 370.42 L693.36 369.52 L692.99 366.93 L692.75 364.24 L689.36 363.77 L684.96 364.11 L680.79 364.37 L677.22 364.26 L673.08 364.66 L669.76 364.50 L666.13 364.65 L662.42 364.96 L661.26 363.17 L659.65 361.76 L657.05 361.24 L663.19 352.89 L665.83 347.48 L662.27 347.73 L666.58 340.52 L666.57 337.31 L662.51 338.06 L660.47 336.86 L657.59 336.55 L656.02 334.91 L654.38 333.34 L652.77 331.73 L651.58 329.65 L653.16 324.37 L651.25 323.02 L648.49 322.69 L647.00 320.86 L647.59 316.42 L643.35 318.00 L639.58 319.09 L638.41 316.86 L635.28 317.23 L631.67 318.33 L628.57 318.82 L626.18 318.38 L623.12 318.93 L620.13 319.48 L618.43 318.12 L613.21 322.27 L610.52 322.60 L609.04 321.02 L607.63 319.29 L607.05 316.10 L608.75 308.81 L607.16 307.15 L605.76 305.10 L603.48 304.67 L600.32 305.96 L594.93 311.81 L591.86 313.26 L590.92 310.42 L587.02 313.80 L588.38 305.85 L589.91 297.12 L587.38 297.39 L586.92 292.77 L585.10 291.28 L582.29 292.26 L580.34 291.12 L577.87 291.34 L574.71 293.50 L573.85 289.32 L571.60 289.02 L568.57 291.09 L565.56 293.32 L563.31 293.26 L560.92 293.73 L558.21 295.37 L555.99 295.44 L552.98 298.56 L550.13 301.33 L547.39 303.93 L544.92 305.67 L543.04 304.94 L543.59 292.60 L541.55 292.02 L539.90 289.30 L539.06 281.86 L536.60 283.11 L534.07 285.01 L531.66 286.40 L529.45 286.62 L526.67 291.38 L524.08 295.41 L521.71 298.17 L519.86 296.28 L518.18 291.97 L515.95 293.75 L514.12 290.14 L512.43 282.77 L510.34 280.88 L507.94 286.52 L505.83 285.36 L503.68 285.42 L501.51 289.69 L499.42 294.89 L497.43 299.89 L495.43 299.98 L493.38 298.58 L491.37 298.72 L489.23 296.39 L487.10 294.94 L484.94 293.54 L483.05 295.86 L481.09 296.86 L478.33 290.00 L476.21 290.02 L474.60 294.28 L471.90 289.69 L470.02 291.54 L468.73 297.01 L467.12 299.84 L464.94 299.15 L462.11 295.10 L460.06 295.48 L456.98 290.80 L453.76 286.02 L451.94 287.90 L450.09 289.52 L448.33 291.42 L446.92 294.54 L444.44 293.49 L442.84 295.71 L440.99 296.95 L438.45 295.85 L437.09 298.65 L436.04 302.27 L434.98 305.63 L434.08 309.32 L432.90 312.02 L431.62 314.32 L430.42 316.73 L429.24 319.09 L427.84 320.81 L426.38 322.33 L425.08 324.19 L420.56 318.62 L416.70 314.89 L415.70 317.55 L410.95 312.22 L407.87 310.65 L407.50 314.63 L406.25 316.72 L405.17 319.10 L403.45 320.22 L401.75 321.36 L399.83 322.10 L397.76 322.61 L393.82 319.95 L392.35 321.56 L392.43 325.66 L389.53 324.91 L385.64 322.69 L385.79 326.74 L385.94 330.70 L382.46 329.23 L381.89 332.03 L381.98 335.67 L381.27 338.12 L380.40 340.31 L380.06 343.16 L379.85 346.09 L377.65 346.47 L378.47 350.58 L378.78 353.97 L376.50 354.22 L375.26 355.70 L373.19 356.24 L367.71 353.01 L365.57 353.60 L363.65 354.47 L361.67 355.28 L361.56 358.03 L364.42 363.72 L364.52 366.52 L360.63 365.41 L358.36 365.92 L354.95 365.43 L349.00 362.69 L345.05 361.90 L344.36 364.05 L344.86 367.20 L345.77 370.63 L343.62 371.47 L343.31 373.82 L344.78 377.54 L340.87 377.02 L339.34 378.38 L340.86 382.02 L342.34 385.54 L341.73 387.50 L341.53 389.72 L342.20 392.52 L341.44 394.30 L342.35 397.17 L343.62 400.21 L344.46 402.93 L345.47 405.69 L346.33 408.31 L336.76 404.80 L333.75 405.26 L333.02 407.04 L325.96 405.38 L325.25 407.25 L326.56 410.15 L327.21 412.67 L326.48 414.47 L322.09 414.51 L323.05 417.14 L323.62 419.54 L323.82 421.75 L327.55 425.46 L332.81 429.71 L336.79 433.30 L333.31 433.81 L326.04 432.94 L325.90 434.87 L321.28 435.17 L315.84 435.28 L316.87 437.69 L317.62 439.97 L317.75 442.03 L317.87 444.07 L318.43 446.22 L318.92 448.33 L319.16 450.35 L320.83 452.73 L321.76 454.87 L322.94 457.05 L322.88 458.91 L316.99 459.47 L316.18 461.21 L319.65 463.82 L314.85 464.78 L314.97 466.72 L319.70 469.43 L322.95 471.80 L322.13 473.49 L316.66 474.54 L316.64 476.41 L310.71 477.57 L304.27 478.79 L306.67 481.00 L306.41 482.93 L307.73 484.98 L311.89 487.20 L309.39 488.94 L310.74 490.92 L312.46 492.88 L309.52 494.67 L311.41 496.61 L314.76 498.52 L317.06 500.37 L320.03 502.17 L322.39 503.91 L323.68 505.65 L324.61 507.38 L327.16 509.00 L328.62 510.65 L329.32 512.32 L331.35 513.87 L327.99 515.88 L321.30 518.30 L321.70 520.06 L317.64 522.37 L313.61 524.75 L316.10 526.30 L318.19 527.86 L319.65 529.48 L320.91 531.12 L321.23 532.91 L321.68 534.67 L321.69 536.52 L318.38 539.10 L318.18 541.05 L322.15 542.02 L320.87 544.22 L318.03 546.86 L320.94 548.03 L324.80 548.87 L323.17 551.24 L324.89 552.64 L328.15 553.54 L330.11 554.80 L333.15 555.67 L335.47 556.73 L337.55 557.84 L338.24 559.42 L344.69 558.82 L347.04 559.69 L346.64 561.61 L347.98 562.85 L347.74 564.74 L340.38 569.76 L340.00 571.84 L340.44 573.57 L339.92 575.76 L342.20 576.62 L348.37 575.51 L351.85 575.64 L348.74 579.14 L349.18 580.84 L348.18 583.34 L342.35 588.60 L340.07 592.01 L341.90 593.07 L344.43 593.68 L347.05 594.20 L348.26 595.57 L349.74 596.74 L352.78 596.88 L351.63 599.78 L352.27 601.51 L356.28 600.88 L359.74 600.56 L363.40 600.02 L366.95 599.49 L369.83 599.37 L372.56 599.32 L375.10 599.36 L376.79 600.05 L378.63 600.59 L380.36 601.19 L382.62 601.31 L376.46 608.80 L374.89 612.42 L377.79 612.05 L372.81 618.98 L372.93 621.26 L376.93 619.83 L378.69 620.49 L380.42 621.18 L381.48 622.53 L382.73 623.69 L383.65 625.20 L384.41 626.91 L383.04 631.02 L385.69 630.66 L388.09 630.52 L388.05 633.24 L388.32 635.65 L392.15 633.71 L393.74 634.47 L394.13 636.76 L396.84 636.06 L399.51 635.31 L401.82 635.00 L403.72 635.21 L406.46 634.19 L409.02 633.34 L410.47 634.08 L414.22 631.28 L416.66 630.38 L417.91 631.30 L418.67 633.02 L418.23 636.79 L417.47 641.26 L419.25 641.44 L418.88 645.44 L420.41 646.12 L423.37 644.10 L426.63 641.35 L428.25 641.69 L429.69 642.36 L431.67 641.91 L430.36 648.40 L430.13 652.85 L432.35 651.99 L432.77 655.21 L434.44 655.60 L437.35 652.95 L440.68 649.06 L442.27 649.40 L444.06 649.18 L445.59 649.62 L446.81 650.95 L448.39 651.29 L450.53 649.90 L453.01 647.32 L455.47 644.57 L457.49 643.10 L459.40 641.84 L461.88 638.41 L463.48 637.96 L464.96 637.93 L466.65 637.01 L468.21 636.51 L467.67 645.43 L468.34 649.44 L469.64 650.71 L470.08 656.64 L471.42 658.20 L473.04 658.23 L474.83 657.21 L476.45 657.11 L478.02 657.39 L479.60 657.52 L481.12 658.24 L482.58 659.50 L484.11 660.39 L485.91 658.36 L487.55 657.69 L489.17 657.25 L490.97 653.46 L492.55 652.74 L494.10 652.19 L495.65 651.09 L497.16 651.45 L498.66 653.26 L500.19 651.91 L501.69 650.17 L503.12 647.00 L504.58 646.72 L505.82 640.94 L506.96 635.79 L508.40 636.96 L509.70 635.90 L510.82 632.88 L512.52 636.86 L513.61 633.99 L515.23 636.36 L516.47 635.15 L517.76 634.52 L519.35 636.09 L520.32 633.32 L522.42 637.82 L523.67 636.87 L524.44 633.39 L526.57 637.25 L527.50 634.80 L528.23 631.67 L529.71 632.10 L530.59 629.90 L532.27 631.18 L534.32 633.71 L536.79 637.61 L538.49 638.40 L540.93 641.68 L542.66 642.32 L543.89 641.26 L544.36 637.90 L544.93 635.02 L545.22 631.49 L545.66 628.56 L546.01 625.56 L546.31 622.58 L547.41 621.78 L548.55 621.12 L549.26 619.42 L551.64 621.72 L555.83 628.02 L557.62 628.61 L560.93 632.43 L563.76 634.99 L564.83 633.78 L566.30 633.41 L566.88 631.26 L568.28 630.76 L569.46 629.84 L570.99 629.56 L572.56 629.35 L574.53 629.80 L575.68 628.80 L575.71 625.95 L576.98 625.21 L576.89 622.31 L576.26 618.65 L577.79 618.41 L578.44 616.84 L578.86 614.96 L581.20 615.88 L582.32 615.00 L583.13 613.72 L582.64 610.70 L581.29 606.66 L582.46 605.98 L579.89 600.58 L578.45 596.77 L580.60 597.41 L579.73 594.42 L580.65 593.59 L583.96 595.49 L584.13 593.77 L587.26 595.33 L588.50 594.77 L590.69 595.18 L591.18 593.80 L592.97 593.75 L595.12 594.01 L595.52 592.54 L596.75 591.88 L599.24 592.37 L598.96 590.27 L600.19 589.58 L600.88 588.40 L601.53 587.19 L601.12 585.09 L599.66 582.18 L599.68 580.54 L597.61 577.26 L595.77 574.26 L594.72 571.94 L594.14 570.03 L593.67 568.23 L593.44 566.65 L593.24 565.11 L593.10 563.63 L593.09 562.27 L593.18 560.99 L593.27 559.73 L593.37 558.48 L593.50 557.27 L593.65 556.08 L593.83 554.92 L594.00 553.77 L594.17 552.62 L594.37 551.50 L594.63 550.42 L594.89 549.35 L595.16 548.28 L595.43 547.23 L595.71 546.18 L596.00 545.14 L596.27 544.10 L596.54 543.06 L596.79 542.02 L597.04 540.98 L597.27 539.93 L597.50 538.89 L597.71 537.85 L597.91 536.81 L598.11 535.76 L598.29 534.72 L598.46 533.67 L598.61 532.63 L598.76 531.59 L598.90 530.54 L599.03 529.50 L599.14 528.46 L599.25 527.42 L599.34 526.38 L599.42 525.34 L599.49 524.30 L599.55 523.26 L599.60 522.23 L599.64 521.19 L599.67 520.16 L599.68 519.13 L599.69 518.09 L599.69 517.07 L599.67 516.04 L599.65 515.02 L599.61 513.99 L599.57 512.97 L599.51 511.95 L599.44 510.94 L599.37 509.93 L599.28 508.91 L599.18 507.91 L599.07 506.90 L598.96 505.90 L598.83 504.90 L598.69 503.91 L598.54 502.91 L598.38 501.92 L598.22 500.94 Z"/>
  <svg class="pausebutton" id="pausebutton">
    <circle cx="500" cy="500" id="pausestart" class="pausestart" r="52.65"/>
    <rect height="50.02" width="10.00" y="473.68" rx="2.00" ry="2.00" x="479.99" class="pausesymbol"/>
    <rect height="50.02" width="10.00" y="473.68" rx="2.00" ry="2.00" x="510.00" class="pausesymbol"/>
    <polygon points="530.01,500 479.99,530.01 479.99,469.99" class="playsymbol"/>
  </svg>
  <polygon id="playback-head" class="playback-head" points="941.65,500 921.65,540 961.65,540"/>
</svg>