<?xml-stylesheet href="../../style/waveformjs.css" type="text/css"?>
<svg xmlns="http://www.w3.org/2000/svg" xmlns:xlink="http://www.w3.org/1999/xlink" width="100%" height="100%" viewBox="0 0 1000 1000">
  <path class="svg-wave" id="sp" d="M598.05 500.00 L598.22 500.98 L598.39 501.97 L598.55 502.96 L598.69 503.95 L598.83 504.95 L598.96 505.94 L599.07 506.95 L599.18 507.95 L599.28 508.96 L599.36 509.97 L599.44 510.98 L599.50 512.00 L599.55 513.02 L599.59 514.04 L599.62 515.06 L599.64 516.08 L599.65 517.11 L599.64 518.13 L599.62 519.16 L599.59 520.19 L599.54 521.22 L599.48 522.24 L599.39 523.27 L599.28 524.30 L599.15 525.32 L598.98 526.33 L598.78 527.34 L598.53 528.33 L598.24 529.32 L597.92 530.29 L597.47 531.22 L596.95 532.13 L595.83 532.83 L594.13 533.30 L593.02 533.96 L592.59 534.85 L586.37 533.50 L577.31 530.88 L573.32 530.14 L576.04 532.15 L565.91 528.65 L564.06 528.61 L570.28 532.23 L561.92 529.15 L567.90 532.80 L568.39 533.89 L564.24 532.63 L571.81 537.38 L565.92 535.16 L567.62 536.94 L578.75 544.05 L571.60 541.00 L574.82 543.84 L573.66 544.16 L572.06 544.18 L577.92 548.85 L570.68 545.30 L571.36 546.75 L574.21 549.69 L568.82 547.08 L572.92 550.97 L567.49 548.18 L564.03 546.69 L569.63 551.84 L563.37 548.18 L564.02 549.69 L563.18 550.05 L558.31 547.15 L563.38 552.31 L564.59 554.40 L564.66 555.57 L564.41 556.49 L563.71 557.01 L563.02 557.54 L562.59 558.31 L561.36 558.32 L561.08 559.23 L560.66 560.01 L559.71 560.26 L560.10 561.88 L558.90 561.87 L558.52 562.71 L559.08 564.60 L556.97 563.55 L556.18 563.95 L556.89 566.08 L555.19 565.41 L554.41 565.82 L555.14 568.08 L554.76 569.01 L554.24 569.77 L553.92 570.82 L553.43 571.64 L552.65 572.10 L551.84 572.50 L551.17 573.09 L549.95 572.89 L549.37 573.61 L548.99 574.65 L548.11 574.93 L548.04 576.48 L546.91 576.37 L546.11 576.78 L546.14 578.60 L544.47 577.53 L543.33 577.32 L543.03 578.62 L541.33 577.34 L540.84 578.29 L541.44 581.43 L540.09 580.76 L537.46 577.40 L535.85 575.99 L537.32 581.21 L534.52 577.14 L534.15 578.41 L534.29 580.93 L531.69 576.92 L533.08 582.62 L531.40 580.78 L530.07 579.69 L530.79 584.13 L527.99 578.94 L528.62 583.33 L527.60 583.08 L525.02 577.89 L525.82 583.23 L524.02 580.24 L523.44 581.28 L524.08 586.73 L521.99 582.42 L521.92 585.58 L521.12 586.00 L519.80 584.25 L520.60 591.80 L518.79 587.84 L517.99 588.39 L517.97 593.02 L515.78 586.32 L515.76 591.39 L514.62 590.14 L513.50 588.83 L513.14 592.72 L511.60 588.15 L511.29 593.01 L510.54 594.76 L509.00 588.99 L508.56 594.03 L507.36 590.92 L506.40 590.31 L505.76 594.69 L504.48 588.20 L503.69 590.50 L502.83 591.74 L501.83 587.89 L501.01 593.35 L500.07 590.61 L499.18 589.49 L498.22 592.88 L497.43 588.01 L496.41 591.64 L495.47 592.07 L494.77 588.19 L493.58 592.68 L492.89 589.54 L491.88 590.78 L490.47 595.70 L490.07 590.58 L489.05 591.42 L488.12 591.42 L487.41 589.84 L486.24 591.57 L485.52 590.21 L484.34 591.64 L483.15 593.04 L482.85 589.55 L480.76 595.30 L480.15 593.47 L479.80 590.69 L477.87 594.85 L477.97 590.33 L476.38 592.83 L474.98 594.35 L475.21 589.85 L473.08 593.90 L472.94 590.96 L472.29 589.84 L470.03 593.82 L470.56 589.08 L469.44 589.47 L468.47 589.36 L467.33 589.73 L464.20 595.34 L464.75 591.10 L463.64 591.24 L459.70 598.26 L462.72 588.38 L459.83 592.61 L458.21 593.79 L458.86 589.89 L455.43 594.87 L456.85 589.50 L454.77 591.48 L452.68 593.33 L454.61 587.35 L451.11 591.84 L451.81 588.39 L450.99 587.79 L446.36 593.86 L448.97 587.26 L447.32 588.04 L446.24 587.85 L446.87 584.89 L442.81 589.38 L444.21 585.30 L443.73 584.19 L439.38 588.76 L441.78 583.44 L440.00 584.19 L438.86 584.00 L440.35 580.25 L435.32 585.22 L438.73 579.07 L436.23 580.62 L429.96 586.75 L432.50 581.91 L430.19 583.01 L429.29 582.40 L429.98 579.96 L426.85 581.87 L430.41 576.33 L430.26 574.98 L426.37 577.60 L429.04 573.29 L425.35 575.58 L425.35 574.08 L426.49 571.51 L421.76 574.60 L425.79 569.35 L422.88 570.65 L420.12 571.71 L422.37 568.31 L419.31 569.58 L419.65 567.90 L418.66 567.35 L413.67 570.04 L416.96 566.00 L414.73 566.39 L412.67 566.61 L415.68 562.99 L411.63 564.64 L414.13 561.51 L416.60 558.49 L413.48 559.40 L414.54 557.42 L411.99 557.86 L410.60 557.50 L410.02 556.61 L405.33 558.25 L408.03 555.33 L407.14 554.61 L405.10 554.54 L408.42 551.42 L405.55 551.79 L405.20 550.76 L406.10 549.08 L399.75 551.12 L401.78 548.86 L401.72 547.67 L396.00 549.17 L398.47 546.76 L400.57 544.59 L398.16 544.46 L397.23 543.64 L400.22 541.20 L399.77 540.22 L395.97 540.54 L394.22 540.01 L395.64 538.28 L391.02 538.74 L393.14 536.79 L393.53 535.47 L390.30 535.33 L395.42 532.53 L394.27 531.74 L391.74 531.32 L394.32 529.43 L389.98 529.45 L388.19 528.74 L387.25 527.78 L385.97 526.89 L388.34 525.16 L384.32 524.85 L387.24 523.04 L390.29 521.28 L385.61 521.00 L388.57 519.31 L387.53 518.33 L385.91 517.43 L386.12 516.23 L382.86 515.50 L385.90 513.94 L384.36 512.96 L382.48 511.98 L387.77 510.31 L383.89 509.49 L383.19 508.38 L387.70 506.93 L377.59 506.32 L380.10 504.99 L381.07 503.76 L376.68 502.66 L382.10 501.37 L378.88 500.19 L380.28 498.99 L383.53 497.86 L379.68 496.58 L383.24 495.51 L381.34 494.25 L379.82 492.97 L381.68 491.89 L379.92 490.57 L381.47 489.49 L382.05 488.36 L378.21 486.75 L380.80 485.82 L380.60 484.58 L378.29 483.05 L382.60 482.45 L377.98 480.51 L381.26 479.81 L385.38 479.33 L382.32 477.56 L384.30 476.74 L384.49 475.57 L383.27 474.09 L386.34 473.58 L383.13 471.60 L385.56 470.97 L385.32 469.69 L380.45 467.12 L383.91 466.82 L382.38 465.10 L381.80 463.64 L384.82 463.31 L380.73 460.69 L382.49 459.96 L383.32 458.93 L380.30 456.52 L384.28 456.65 L381.75 454.35 L384.28 453.99 L387.09 453.80 L382.25 450.44 L388.06 451.56 L386.91 449.71 L383.69 446.88 L389.76 448.32 L388.93 446.57 L388.57 445.01 L389.57 444.13 L385.56 440.65 L388.09 440.54 L388.05 439.07 L386.02 436.48 L390.65 437.62 L387.38 434.26 L388.33 433.30 L391.44 433.68 L387.92 429.98 L391.57 430.74 L391.10 428.90 L390.48 426.92 L391.54 426.05 L389.30 422.89 L393.84 424.46 L391.96 421.49 L388.15 417.00 L395.83 421.07 L395.52 419.18 L395.79 417.71 L398.77 418.40 L398.15 416.21 L401.57 417.36 L401.95 415.99 L400.32 412.85 L403.56 413.97 L401.25 410.12 L402.78 409.72 L404.58 409.60 L400.38 403.71 L406.63 407.93 L406.31 405.75 L407.62 405.18 L414.97 410.97 L412.81 406.85 L414.01 406.28 L416.66 407.32 L412.54 400.77 L414.86 401.42 L415.45 400.10 L414.54 396.96 L418.40 399.58 L417.70 396.62 L419.30 396.53 L421.54 397.30 L420.07 393.18 L422.98 394.89 L423.14 392.89 L423.08 390.51 L425.18 391.19 L423.22 385.92 L427.08 389.27 L427.40 387.33 L425.82 382.31 L429.53 385.67 L429.83 383.57 L430.42 381.90 L432.81 383.30 L432.13 379.33 L434.45 380.69 L436.18 381.04 L436.61 378.95 L438.69 380.02 L438.37 376.36 L440.31 377.18 L441.84 377.23 L441.31 372.84 L444.23 375.91 L444.45 373.02 L445.43 371.79 L448.22 374.87 L448.39 371.68 L450.04 372.11 L451.31 371.58 L451.35 367.71 L453.47 369.44 L453.82 366.24 L454.01 362.31 L455.66 362.71 L458.33 366.41 L458.88 363.40 L460.33 363.29 L463.31 368.64 L464.13 366.46 L463.87 359.88 L465.82 361.77 L468.05 365.02 L466.48 351.76 L467.55 349.51 L470.05 354.04 L471.27 352.53 L471.63 346.19 L473.41 347.26 L474.74 345.81 L475.43 340.05 L476.44 335.68 L477.34 329.81 L479.11 330.16 L480.87 330.49 L482.53 329.95 L484.64 334.27 L486.34 334.59 L488.17 336.87 L489.79 336.60 L491.18 331.84 L493.00 334.94 L494.58 332.70 L496.22 331.41 L497.98 337.14 L499.63 347.20 L501.17 346.31 L502.76 343.56 L504.20 347.75 L505.90 343.21 L507.38 345.18 L508.94 345.07 L511.19 334.79 L512.25 342.47 L513.88 341.97 L515.88 337.79 L516.74 344.99 L518.46 343.80 L519.23 350.11 L520.33 353.19 L522.73 347.14 L523.40 352.75 L525.10 351.67 L526.34 353.28 L527.05 357.51 L529.16 354.37 L529.93 357.92 L531.68 356.72 L534.62 350.53 L534.87 356.00 L536.91 354.01 L538.56 353.66 L539.06 357.54 L541.40 354.71 L542.49 356.37 L543.35 358.67 L545.41 357.08 L546.55 358.41 L548.76 356.53 L550.11 357.27 L550.97 359.33 L553.42 357.05 L553.95 359.91 L555.74 359.46 L558.54 356.61 L559.82 357.56 L562.06 356.27 L562.98 358.05 L565.08 357.20 L569.10 352.30 L568.27 357.81 L570.11 357.64 L572.95 355.53 L572.27 360.36 L576.24 356.23 L576.54 359.09 L576.95 361.66 L580.74 358.20 L579.55 363.48 L582.34 361.89 L582.41 364.86 L579.85 371.95 L583.88 368.45 L583.99 371.14 L583.37 374.84 L586.94 372.27 L589.71 370.99 L590.36 372.79 L592.13 373.00 L594.17 372.89 L598.41 369.90 L599.70 370.90 L599.74 373.48 L603.14 371.83 L603.19 374.36 L608.54 370.50 L607.74 374.05 L606.02 378.54 L613.75 372.28 L609.82 379.15 L611.95 379.25 L616.62 376.71 L611.92 384.02 L617.09 381.07 L616.00 384.51 L615.59 387.20 L619.76 385.44 L618.58 388.82 L619.90 389.82 L623.79 388.51 L622.82 391.59 L628.21 389.08 L626.83 392.48 L628.71 393.08 L633.89 391.02 L629.32 396.87 L637.94 392.24 L639.80 393.02 L636.08 398.00 L641.40 396.21 L639.02 400.08 L636.52 403.93 L634.82 407.13 L633.71 409.85 L637.72 409.14 L636.62 411.81 L639.00 412.24 L645.45 410.19 L642.37 414.04 L642.69 415.78 L644.40 416.71 L643.22 419.29 L645.95 419.66 L647.39 420.78 L648.23 422.23 L651.10 422.64 L649.34 425.42 L652.34 425.81 L653.57 427.10 L651.83 429.78 L654.07 430.61 L653.77 432.58 L654.95 433.90 L657.67 434.60 L656.02 437.11 L656.71 438.64 L657.93 439.98 L657.07 442.10 L659.95 442.85 L661.53 444.10 L662.06 445.72 L663.37 447.09 L663.48 448.86 L669.35 448.87 L668.46 450.98 L665.08 453.75 L670.38 454.09 L666.63 456.89 L667.98 458.32 L669.98 459.63 L663.78 462.83 L667.34 463.77 L671.14 464.74 L670.84 466.58 L669.73 468.56 L669.52 470.34 L669.04 472.17 L668.48 473.99 L665.66 476.12 L666.65 477.67 L668.66 479.12 L669.95 480.68 L672.81 482.10 L669.01 484.20 L674.25 485.47 L674.31 487.22 L670.94 489.18 L676.43 490.61 L671.68 492.58 L675.71 494.17 L684.44 495.72 L678.28 497.65 L683.50 499.42 L681.44 501.24 L678.67 503.00 L684.21 504.94 L678.88 506.59 L681.15 508.49 L682.62 510.39 L677.69 511.89 L683.48 514.12 L679.49 515.62 L678.42 517.33 L681.52 519.46 L676.78 520.74 L682.00 523.21 L682.28 525.09 L677.84 526.30 L683.03 528.94 L678.35 530.03 L679.59 532.09 L683.83 534.75 L677.38 535.37 L681.27 538.03 L679.73 539.59 L676.95 540.84 L683.68 544.33 L678.31 544.93 L678.51 546.88 L681.32 549.56 L674.63 549.61 L678.68 552.70 L675.93 553.81 L672.48 554.65 L676.50 557.87 L672.07 558.33 L674.14 560.97 L675.58 563.46 L669.48 563.18 L672.91 566.43 L670.44 567.45 L669.25 568.94 L674.75 573.23 L669.48 573.02 L669.92 575.23 L671.44 577.97 L666.60 577.79 L670.25 581.57 L666.81 581.98 L662.86 582.08 L665.08 585.28 L661.91 585.70 L662.51 588.11 L661.30 589.55 L661.08 591.55 L663.60 595.16 L658.74 594.47 L660.35 597.61 L661.84 600.75 L657.37 600.17 L658.08 602.85 L657.16 604.50 L654.56 605.02 L656.61 608.72 L652.32 608.01 L651.05 609.40 L652.42 612.73 L648.16 611.89 L650.42 615.98 L648.13 616.59 L643.70 615.45 L645.06 618.95 L642.26 619.05 L642.17 621.42 L642.44 624.13 L640.20 624.67 L641.88 628.72 L639.15 628.81 L638.17 630.48 L641.20 636.05 L636.55 634.22 L636.80 637.19 L635.61 638.75 L632.24 638.03 L634.21 642.92 L630.88 642.19 L630.09 644.21 L630.66 647.78 L625.57 644.92 L628.20 650.98 L624.15 649.21 L619.12 646.11 L620.07 650.32 L616.56 648.96 L616.81 652.40 L617.22 656.14 L613.11 653.84 L614.70 659.32 L612.82 660.05 L609.41 658.57 L611.98 665.82 L608.58 664.29 L608.12 667.21 L606.84 668.91 L602.98 666.48 L604.23 672.32 L600.77 670.43 L598.40 670.29 L598.33 674.17 L594.70 671.72 L595.44 677.24 L593.04 677.00 L588.84 673.18 L588.51 676.87 L586.10 676.45 L583.89 676.36 L582.57 678.16 L580.27 677.84 L579.81 681.64 L577.54 681.37 L574.93 680.23 L575.24 686.22 L571.78 682.90 L569.82 683.29 L569.21 687.30 L565.75 683.54 L565.54 688.87 L563.68 689.62 L560.77 687.15 L560.30 692.21 L557.23 689.03 L555.79 691.16 L554.33 693.31 L551.26 689.64 L549.99 692.58 L547.67 691.50 L545.81 692.18 L544.59 695.73 L542.07 693.62 L540.69 696.70 L538.90 698.03 L536.32 695.19 L535.26 700.64 L532.84 698.47 L530.60 697.17 L529.16 701.12 L526.59 697.28 L525.00 700.63 L523.10 701.78 L520.53 696.71 L519.08 702.44 L517.23 704.64 L514.95 701.75 L512.81 700.01 L511.18 706.94 L508.92 702.78 L506.77 699.08 L504.82 701.09 L502.86 704.35 L500.81 703.31 L498.76 706.22 L496.72 704.85 L494.70 703.56 L492.39 711.11 L490.44 707.55 L488.62 702.91 L486.32 706.93 L484.39 704.93 L482.23 706.10 L479.79 709.79 L477.94 707.27 L475.24 712.43 L473.63 708.16 L471.59 707.56 L468.96 711.09 L467.68 705.44 L465.50 705.92 L463.11 707.41 L461.48 704.66 L458.92 706.88 L457.28 704.43 L455.09 704.68 L452.51 706.53 L451.41 702.05 L448.22 706.20 L447.04 702.34 L445.48 700.10 L441.94 704.98 L441.75 698.08 L438.53 701.57 L434.96 705.87 L434.59 700.05 L431.46 702.73 L429.92 700.64 L428.27 698.96 L425.58 700.12 L424.71 696.43 L422.27 696.89 L419.81 697.31 L419.12 693.43 L415.73 696.01 L415.02 692.34 L412.81 692.13 L409.75 693.70 L410.31 687.57 L405.57 692.52 L403.29 692.29 L403.30 687.56 L399.34 690.55 L398.98 686.67 L396.24 687.24 L392.99 688.63 L393.14 684.06 L389.62 685.81 L388.22 683.96 L387.45 681.11 L383.15 683.90 L383.44 679.46 L382.33 677.26 L380.05 676.84 L378.98 674.63 L375.64 675.67 L374.81 673.14 L373.29 671.61 L369.06 673.68 L369.64 669.36 L366.42 669.99 L363.97 669.60 L364.55 665.46 L359.94 667.64 L360.14 664.04 L358.44 662.70 L352.70 665.92 L355.02 660.05 L352.78 659.29 L349.63 659.47 L350.63 655.28 L347.25 655.65 L346.67 653.14 L345.98 650.79 L343.22 650.44 L343.33 647.36 L339.12 648.31 L338.08 646.30 L337.35 644.04 L332.44 645.42 L333.77 641.38 L330.92 640.91 L326.83 641.41 L328.87 636.92 L324.32 637.70 L324.36 634.85 L322.98 633.12 L315.50 635.88 L318.61 630.81 L315.80 630.06 L311.54 630.26 L315.53 624.79 L308.73 626.62 L313.04 621.10 L314.36 617.63 L309.16 618.27 L313.15 613.22 L309.12 613.07 L307.60 611.38 L308.05 608.58 L303.76 608.43 L305.42 604.98 L303.68 603.40 L297.45 604.11 L297.30 601.64 L293.13 601.15 L293.43 598.46 L292.95 596.16 L286.89 596.39 L290.58 592.21 L288.64 590.56 L286.06 589.14 L289.20 585.36 L284.64 584.72 L288.35 580.82 L289.93 577.82 L285.17 577.15 L287.82 573.81 L283.61 572.86 L280.84 571.36 L283.52 568.10 L279.95 566.81 L280.99 564.11 L280.82 561.79 L277.91 560.22 L281.00 557.04 L279.23 555.15 L278.42 553.00 L279.54 550.41 L274.25 549.24 L276.02 546.52 L275.35 544.32 L271.71 542.67 L276.00 539.55 L271.05 538.07 L271.57 535.64 L276.54 532.58 L272.71 530.82 L274.03 528.34 L274.16 526.04 L272.33 523.94 L272.75 521.60 L268.38 519.68 L270.58 517.19 L271.64 514.81 L264.01 512.94 L267.95 510.40 L267.56 508.09 L265.16 505.82 L268.52 503.42 L264.85 501.12 L267.99 498.79 L270.33 496.50 L264.40 494.06 L263.61 491.67 L266.30 489.42 L266.30 487.08 L264.27 484.60 L270.75 482.72 L271.52 480.48 L268.31 477.87 L262.65 474.93 L265.95 472.91 L262.64 470.12 L262.60 467.70 L267.13 465.94 L261.21 462.63 L264.83 460.79 L263.92 458.21 L261.12 455.24 L267.09 453.94 L263.43 450.76 L265.93 448.83 L267.70 446.78 L264.72 443.61 L269.54 442.32 L266.50 439.08 L266.17 436.49 L271.98 435.61 L268.99 432.27 L271.81 430.61 L272.59 428.35 L269.42 424.81 L273.32 423.56 L272.53 420.76 L272.96 418.35 L275.95 416.89 L272.27 412.92 L275.42 411.54 L276.95 409.56 L273.93 405.69 L279.39 405.37 L274.70 400.68 L274.65 397.95 L279.41 397.44 L274.85 392.56 L281.21 392.90 L279.99 389.56 L278.09 385.82 L285.78 387.05 L282.31 382.42 L285.18 381.18 L288.98 380.51 L285.92 375.94 L291.02 376.08 L291.16 373.33 L291.27 370.52 L294.52 369.67 L291.40 364.75 L295.07 364.20 L298.72 363.71 L295.50 358.52 L301.55 359.75 L300.93 356.31 L300.46 352.91 L305.48 353.58 L303.04 348.64 L306.99 348.58 L308.99 347.04 L309.27 344.11 L314.97 345.66 L315.21 342.69 L317.50 341.47 L319.93 340.39 L317.88 335.30 L320.70 334.56 L322.28 332.70 L322.61 329.63 L325.93 329.44 L325.23 325.30 L327.78 324.37 L330.20 323.33 L329.56 319.08 L333.61 319.80 L333.01 315.48 L332.90 311.61 L337.26 312.78 L336.30 307.83 L339.30 307.49 L342.43 307.35 L342.19 303.08 L347.98 306.36 L350.34 305.39 L351.06 302.26 L353.49 301.39 L352.10 295.26 L354.88 294.81 L354.25 289.48 L348.74 276.79 L352.47 277.54 L352.89 273.28 L355.94 273.04 L359.03 272.92 L357.72 265.62 L361.59 266.76 L362.64 263.16 L360.05 253.05 L362.11 250.91 L364.43 249.21 L367.10 248.15 L371.31 250.12 L376.66 254.51 L379.48 254.02 L381.68 252.27 L385.28 253.49 L386.82 250.31 L389.25 249.03 L393.99 253.11 L398.06 255.89 L400.65 255.22 L402.02 251.51 L404.15 249.58 L404.24 242.12 L404.05 233.49 L405.65 229.49 L408.29 228.35 L411.11 227.75 L413.61 226.14 L416.50 225.78 L419.52 225.88 L421.99 224.11 L426.25 228.86 L431.64 238.36 L435.57 242.92 L438.04 241.86 L441.31 244.27 L443.24 240.82 L444.93 235.89 L446.34 229.13 L448.06 223.34 L451.47 226.43 L453.56 222.07 L456.13 220.27 L459.01 220.43 L461.75 219.62 L464.11 215.69 L467.03 215.98 L470.09 217.73 L472.40 212.13 L475.15 210.34 L477.97 209.11 L480.84 208.30 L483.78 208.40 L486.73 208.93 L489.69 210.19 L492.66 212.91 L495.54 213.86 L498.41 214.68 L501.23 221.61 L503.98 223.79 L506.86 219.26 L509.67 219.10 L512.52 218.40 L515.48 215.80 L518.49 213.39 L521.27 214.79 L524.10 215.24 L526.93 215.63 L529.69 216.70 L532.28 219.11 L535.05 219.75 L537.57 222.19 L540.56 221.15 L543.19 222.52 L545.14 227.97 L548.33 225.72 L551.31 224.95 L553.64 227.58 L557.01 225.01 L560.33 222.98 L564.15 218.96 L567.86 215.86 L571.25 214.34 L574.03 215.32 L577.22 214.82 L581.16 211.72 L584.29 211.69 L587.47 211.54 L590.88 210.75 L593.72 211.81 L596.45 213.22 L599.20 214.51 L602.01 215.62 L604.79 216.82 L607.22 218.93 L608.42 224.09 L609.11 230.29 L610.39 234.79 L613.20 235.52 L615.14 238.27 L615.42 244.58 L616.74 248.40 L622.61 242.52 L626.35 241.35 L627.54 245.42 L633.54 239.96 L640.85 232.36 L643.69 233.45 L646.28 235.03 L649.15 236.10 L651.25 238.52 L652.50 242.35 L652.94 247.40 L654.87 249.89 L657.48 251.27 L658.84 254.58 L660.20 257.82 L663.00 258.86 L666.88 258.37 L669.25 260.11 L670.98 262.73 L671.48 266.99 L672.35 270.64 L676.70 269.69 L677.14 273.83 L679.99 274.87 L683.68 274.90 L684.28 278.72 L687.18 279.76 L686.97 284.41 L689.14 286.26 L692.62 286.67 L692.11 291.46 L695.76 291.72 L699.44 292.01 L701.06 294.48 L703.73 295.87 L706.16 297.53 L710.02 297.82 L712.97 299.04 L713.11 302.91 L716.91 303.38 L719.28 305.19 L719.09 309.25 L724.66 308.31 L727.79 309.54 L729.04 312.36 L730.22 315.20 L729.23 319.74 L731.34 321.80 L732.32 324.71 L732.43 328.26 L736.44 328.92 L737.79 331.54 L741.60 332.45 L744.75 333.86 L743.72 338.10 L745.41 340.49 L750.05 341.00 L751.59 343.54 L750.90 347.42 L755.06 348.36 L759.01 349.50 L758.92 353.00 L761.53 354.95 L769.20 354.20 L772.93 355.69 L774.78 358.21 L777.21 360.45 L776.35 364.33 L774.74 368.51 L774.74 371.87 L779.60 372.99 L778.37 376.90 L779.47 379.74 L787.17 379.81 L788.83 382.50 L789.72 385.50 L791.28 388.24 L790.49 391.86 L789.32 395.58 L790.29 398.50 L791.24 401.42 L792.63 404.20 L792.12 407.59 L790.42 411.32 L790.39 414.49 L793.10 416.87 L794.14 419.74 L794.03 422.92 L798.34 424.97 L803.06 427.00 L805.15 429.72 L805.57 432.83 L806.14 435.91 L808.04 438.72 L809.63 441.62 L810.64 444.64 L811.31 447.72 L811.82 450.84 L809.74 454.34 L805.82 458.03 L805.75 461.16 L808.61 463.92 L805.81 467.35 L804.06 470.61 L804.88 473.60 L804.34 476.71 L804.10 479.79 L802.49 482.93 L805.97 485.80 L804.83 488.91 L803.91 491.98 L804.06 495.02 L802.35 498.07 L804.82 501.11 L802.24 504.12 L801.64 507.13 L805.97 510.29 L807.13 513.41 L807.03 516.48 L806.05 519.50 L807.12 522.65 L809.39 525.93 L805.88 528.72 L804.19 531.64 L808.79 535.24 L804.16 537.80 L803.12 540.75 L808.40 544.60 L807.67 547.64 L806.52 550.61 L804.69 553.44 L801.32 555.96 L798.69 558.57 L799.03 561.75 L799.29 564.93 L796.87 567.52 L798.85 571.12 L803.54 575.45 L802.35 578.37 L801.81 581.46 L800.91 584.46 L798.62 587.05 L799.68 590.61 L796.72 592.97 L794.43 595.50 L796.24 599.36 L791.80 601.13 L790.16 603.83 L791.62 607.65 L785.11 608.50 L776.42 608.37 L776.94 611.78 L782.13 617.17 L776.83 618.23 L779.35 622.62 L776.59 624.72 L773.88 626.81 L776.75 631.52 L768.52 630.91 L768.58 634.28 L769.96 638.37 L763.71 638.51 L768.91 644.69 L764.05 645.50 L760.35 646.87 L762.53 651.58 L756.52 651.55 L757.93 655.89 L756.40 658.48 L751.87 659.19 L755.17 664.87 L750.77 665.60 L750.38 668.96 L756.40 676.78 L750.17 676.20 L751.54 680.96 L749.18 683.07 L744.27 683.25 L745.96 688.39 L739.72 687.44 L739.41 691.09 L738.56 694.35 L733.12 693.83 L736.48 700.66 L731.78 700.69 L726.82 700.39 L728.44 705.94 L723.99 706.02 L723.02 709.28 L721.18 711.75 L715.96 710.94 L716.34 715.58 L713.20 716.74 L710.59 718.41 L711.17 723.44 L706.60 723.04 L704.45 725.18 L703.22 728.38 L698.58 727.71 L698.33 732.07 L695.47 733.41 L693.37 735.65 L692.56 739.51 L687.88 738.53 L688.23 743.96 L686.25 746.45 L680.12 743.35 L679.08 747.08 L676.60 748.85 L673.93 750.36 L672.40 753.53 L669.78 755.13 L668.90 759.39 L665.88 760.41 L662.34 760.57 L662.08 766.05 L658.24 765.68 L655.88 767.79 L654.43 771.50 L649.64 769.31 L648.90 774.41 L644.48 772.73 L640.16 771.09 L639.87 777.29 L637.04 778.57 L633.77 778.94 L630.90 780.10 L629.01 783.42 L624.19 780.22 L621.33 781.34 L618.63 782.81 L616.95 786.83 L615.07 790.48 L612.62 792.83 L609.45 793.31 L606.65 794.77 L605.30 800.37 L601.20 798.19 L597.82 798.02 L596.33 803.68 L591.66 799.31 L589.93 804.49 L587.16 806.38 L583.73 805.91 L581.76 810.88 L577.40 806.76 L575.08 810.62 L572.37 813.07 L568.34 809.74 L566.03 814.16 L562.30 811.86 L559.33 813.26 L556.51 815.60 L552.36 810.28 L549.68 813.51 L546.60 814.36 L543.06 811.94 L541.18 822.08 L537.62 819.64 L534.33 819.12 L531.57 823.92 L527.81 818.23 L525.02 823.55 L521.79 823.92 L518.31 819.89 L515.36 825.42 L511.95 821.35 L508.76 822.35 L505.59 825.37 L502.28 818.51 L499.09 822.56 L495.88 820.74 L492.70 819.78 L489.33 824.97 L486.27 820.25 L483.07 820.23 L479.64 823.58 L476.72 819.11 L473.19 822.98 L470.16 820.53 L467.29 816.94 L463.67 820.65 L460.90 816.70 L457.60 817.33 L454.16 818.78 L451.34 815.92 L447.50 819.57 L444.80 816.17 L441.56 816.08 L437.40 820.58 L435.28 814.71 L432.04 814.49 L428.76 814.39 L425.96 812.23 L422.13 814.36 L419.50 811.58 L416.25 811.27 L412.24 813.63 L410.24 808.87 L405.91 812.08 L403.09 810.16 L401.15 805.61 L396.84 808.36 L394.83 804.23 L391.83 803.06 L389.03 801.34 L387.17 797.20 L383.60 797.60 L380.32 797.20 L377.91 794.63 L372.74 798.62 L369.75 797.37 L367.32 794.85 L363.32 795.80 L361.03 793.02 L356.01 795.93 L354.32 791.95 L352.25 788.84 L346.57 792.68 L346.76 785.34 L342.66 786.08 L337.40 788.77 L335.75 784.99 L331.84 785.14 L328.71 783.93 L324.44 784.54 L317.36 789.49 L315.81 785.58 L311.57 785.83 L307.98 785.04 L306.87 780.58 L302.31 781.15 L305.86 770.32 L303.23 768.27 L297.22 770.75 L299.21 762.58 L292.87 765.33 L292.75 760.07 L291.76 756.02 L284.07 760.13 L286.57 751.95 L282.68 751.39 L275.76 754.22 L274.64 750.39 L268.89 751.67 L269.19 746.35 L263.43 747.50 L253.53 752.74 L257.17 744.08 L253.06 743.29 L248.94 742.45 L250.18 736.48 L244.94 736.65 L248.82 728.41 L247.63 724.93 L240.01 727.09 L244.19 718.97 L239.21 718.76 L238.65 714.81 L241.05 708.53 L234.49 709.47 L235.65 704.30 L233.16 701.99 L226.64 702.67 L227.03 698.18 L222.58 697.20 L220.66 694.39 L220.52 690.37 L213.79 690.79 L215.55 685.54 L213.31 682.93 L208.67 681.83 L210.65 676.59 L204.07 676.57 L203.59 672.86 L205.74 667.69 L201.02 666.44 L201.36 662.36 L198.87 659.83 L197.35 656.78 L196.76 653.26 L190.62 652.50 L192.23 647.90 L191.26 644.58 L188.09 642.28 L192.37 636.63 L189.27 634.30 L187.12 631.53 L188.10 627.47 L180.04 627.04 L180.08 623.34 L178.75 620.17 L169.36 619.93 L170.80 615.70 L174.94 610.60 L171.41 608.15 L169.00 605.29 L175.89 599.54 L174.15 596.51 L167.56 594.86 L162.69 592.61 L163.15 588.88 L157.41 586.74 L159.76 582.53 L158.49 579.23 L151.62 577.16 L159.68 571.81 L158.71 568.46 L154.14 565.78 L158.56 561.41 L153.88 558.69 L153.93 555.12 L153.51 551.65 L148.74 548.77 L152.69 544.69 L145.51 542.01 L144.94 538.48 L149.91 534.41 L144.08 531.39 L148.08 527.49 L148.40 523.93 L147.92 520.43 L155.29 516.55 L149.51 513.31 L150.97 509.76 L151.70 506.26 L138.87 502.88 L144.44 499.28 L143.34 495.71 L139.30 492.05 L144.80 488.62 L136.97 484.73 L139.73 481.24 L143.15 477.83 L137.91 473.87 L143.40 470.68 L140.39 466.81 L139.18 463.06 L144.87 460.04 L140.78 455.94 L144.40 452.77 L145.01 449.24 L143.58 445.39 L153.86 443.42 L152.79 439.67 L151.09 435.77 L156.58 433.23 L152.32 428.78 L153.31 425.37 L155.54 422.24 L152.60 417.91 L156.82 415.28 L153.41 410.75 L154.39 407.31 L159.05 404.89 L155.53 400.18 L160.02 397.79 L159.02 393.76 L156.60 389.23 L163.98 387.89 L163.38 383.93 L164.15 380.43 L166.45 377.47 L163.88 372.70 L167.87 370.40 L167.37 366.36 L166.22 362.00 L172.76 360.86 L172.55 356.88 L179.63 356.15 L182.27 353.50 L180.79 348.93 L186.16 347.61 L181.92 341.60 L178.96 336.10 L183.03 334.16 L180.62 328.81 L184.78 326.96 L186.03 323.54 L183.61 317.99 L190.92 318.06 L191.69 314.34 L192.99 310.91 L197.11 309.24 L197.45 305.20 L201.85 303.80 L200.79 298.78 L192.55 288.74 L196.32 286.83 L198.99 284.18 L197.38 278.41 L198.92 274.88 L201.44 272.07 L203.53 268.94 L205.78 265.93 L206.99 262.06 L207.29 257.42 L210.65 255.28 L213.55 252.77 L215.15 249.14 L219.00 247.50 L220.90 244.11 L225.32 243.07 L230.94 243.22 L230.18 237.29 L236.79 238.55 L240.50 237.03 L239.93 231.13 L241.68 227.54 L245.08 225.68 L247.58 222.86 L246.13 215.61 L248.52 212.56 L251.51 210.17 L254.63 207.95 L257.77 205.77 L260.34 202.88 L262.89 199.95 L265.80 197.46 L269.52 196.03 L273.21 194.61 L277.25 193.70 L278.68 189.17 L281.96 187.21 L285.28 185.31 L287.40 181.62 L291.50 180.90 L295.60 180.23 L298.46 177.65 L302.14 176.38 L305.81 175.13 L308.68 172.54 L311.48 169.80 L314.20 166.86 L317.74 165.39 L320.97 163.35 L324.75 162.35 L328.53 161.40 L330.51 156.84 L334.19 155.67 L337.74 154.23 L341.39 153.02 L346.08 154.18 L348.44 150.11 L351.70 148.01 L356.05 148.56 L358.99 145.68 L362.69 144.67 L365.78 142.06 L369.02 139.78 L372.75 138.84 L376.07 136.73 L380.01 136.42 L383.29 134.09 L386.55 131.64 L390.34 130.85 L394.22 130.42 L398.26 130.59 L402.36 131.11 L405.16 126.65 L408.93 125.85 L412.91 125.98 L416.54 124.61 L420.71 125.72 L423.97 122.51 L427.82 122.14 L431.77 122.41 L435.05 118.82 L438.49 115.80 L441.85 112.00 L445.38 108.87 L449.17 107.44 L453.21 107.83 L457.19 107.93 L461.18 108.25 L464.95 106.19 L468.87 105.63 L472.88 106.24 L476.89 107.13 L480.93 109.19 L484.72 106.03 L488.65 105.55 L492.65 108.06 L496.55 106.28 L500.49 108.12 L504.42 106.45 L508.37 106.10 L512.27 107.38 L516.26 105.99 L520.20 106.06 L524.14 106.35 L528.06 106.80 L532.13 105.33 L536.00 106.58 L539.84 107.86 L543.93 106.75 L548.02 105.88 L552.11 105.19 L555.93 106.65 L559.99 106.35 L564.30 104.66 L568.46 104.13 L572.72 103.16 L576.44 105.17 L580.23 106.70 L583.77 109.35 L587.32 111.80 L591.81 110.09 L595.32 112.59 L598.84 114.89 L602.92 115.05 L606.41 117.38 L610.14 118.76 L613.92 119.97 L617.82 120.78 L621.56 122.14 L625.23 123.66 L629.68 122.94 L633.48 124.13 L637.09 125.89 L640.78 127.39 L643.95 130.23 L648.36 129.88 L652.20 131.04 L655.39 133.74 L659.23 134.88 L661.90 138.66 L665.36 140.62 L670.26 139.52 L673.23 142.52 L676.92 144.01 L680.90 144.97 L683.78 148.07 L688.42 147.81 L691.57 150.37 L695.03 152.34 L698.61 154.12 L702.13 155.99 L707.21 155.30 L710.55 157.54 L713.27 160.77 L717.01 162.35 L719.65 165.65 L724.00 166.35 L727.75 167.98 L730.28 171.38 L734.16 172.86 L736.43 176.58 L739.42 179.26 L743.74 180.21 L746.55 183.13 L750.70 184.37 L756.86 183.17 L764.93 179.81 L770.64 179.49 L774.84 181.05 L778.48 183.28 L781.13 186.64 L783.25 190.56 L787.34 192.32 L791.16 194.42 L794.01 197.55 L797.96 199.55 L802.26 201.25 L805.24 204.28 L808.17 207.36 L811.33 210.22 L813.65 213.86 L815.83 217.61 L817.76 221.55 L817.71 227.16 L818.06 232.35 L822.07 234.43 L826.69 236.06 L827.79 240.54 L835.52 239.84 L841.28 240.80 L843.52 244.47 L845.45 248.36 L847.11 252.43 L849.64 255.86 L852.50 259.07 L854.53 262.85 L857.40 266.07 L861.25 268.68 L863.52 272.32 L865.86 275.91 L868.35 279.42 L869.99 283.44 L871.33 287.61 L872.58 291.81 L871.91 297.04 L871.34 302.14 L873.66 305.68 L878.71 307.84 L879.39 312.24 L885.13 314.17 L891.20 316.04 L892.62 320.15 L893.62 324.43 L894.27 328.84 L895.98 332.79 L898.10 336.57 L899.26 340.74 L901.41 344.51 L904.76 347.85 L906.51 351.82 L907.94 355.90 L909.69 359.87 L910.54 364.15 L910.96 368.56 L911.37 372.95 L909.75 377.92 L907.28 383.08 L907.89 387.31 L914.09 390.04 L912.95 394.75 L917.33 398.07 L924.87 400.72 L925.49 405.05 L925.74 409.45 L925.65 413.91 L926.39 418.19 L927.49 422.41 L927.89 426.75 L929.19 430.93 L931.39 435.00 L932.36 439.27 L933.03 443.58 L933.94 447.87 L933.93 452.27 L933.50 456.70 L933.02 461.12 L931.05 465.64 L927.76 470.20 L927.60 474.50 L932.93 478.53 L931.15 482.94 L933.27 487.19 L941.21 491.37 L941.46 495.78 L941.65 500.00 L941.45 495.59 L941.20 491.17 L943.90 486.68 L946.90 482.11 L949.72 477.50 L950.84 472.92 L951.27 468.36 L951.35 463.82 L948.81 459.50 L945.25 455.33 L941.88 451.20 L940.56 446.88 L940.57 442.40 L938.52 438.20 L938.77 433.69 L943.39 428.45 L940.79 424.34 L939.66 420.00 L940.28 415.33 L937.00 411.42 L934.13 407.47 L931.38 403.54 L928.97 399.56 L929.29 394.95 L930.95 389.96 L932.50 384.95 L932.96 380.18 L932.21 375.72 L931.35 371.28 L927.74 367.68 L923.38 364.38 L918.77 361.22 L916.55 357.32 L915.61 352.98 L912.69 349.35 L911.83 344.99 L916.50 338.45 L912.82 335.12 L910.34 331.33 L910.85 326.29 L906.55 323.30 L902.52 320.24 L898.86 317.07 L895.46 313.83 L894.14 309.61 L894.51 304.54 L894.55 299.58 L894.19 294.78 L892.61 290.59 L890.74 286.54 L886.86 283.61 L882.32 281.10 L877.33 278.92 L874.03 275.80 L872.30 271.74 L868.94 268.69 L866.59 265.03 L869.37 258.00 L865.66 255.17 L862.06 252.30 L861.67 247.22 L857.26 244.95 L852.86 242.72 L848.69 240.39 L844.74 237.93 L842.65 234.07 L842.35 228.77 L841.38 223.94 L840.84 218.69 L838.38 214.98 L835.57 211.56 L831.36 209.37 L826.13 208.14 L820.55 207.31 L816.50 205.15 L814.01 201.55 L810.10 199.31 L806.92 196.38 L808.74 188.40 L805.08 185.88 L800.63 184.20 L799.71 178.79 L795.02 177.42 L789.99 176.48 L785.05 175.52 L780.95 173.67 L777.74 170.78 L776.02 166.11 L776.17 159.04 L774.76 153.76 L771.59 150.64 L767.92 148.15 L764.77 144.97 L760.80 142.90 L757.49 139.94 L753.94 137.28 L749.34 136.16 L746.52 132.45 L743.08 129.63 L738.67 128.29 L735.28 125.38 L730.48 124.74 L726.81 122.30 L724.27 117.93 L720.34 115.89 L715.98 114.60 L712.53 111.70 L707.80 111.17 L704.32 108.30 L699.05 108.91 L695.70 105.79 L691.57 104.22 L686.82 104.00 L683.78 100.11 L679.61 98.67 L675.94 96.08 L672.23 93.54 L666.95 94.76 L663.80 90.85 L659.71 89.19 L654.54 90.41 L649.86 90.47 L645.48 89.78 L641.30 88.56 L637.53 86.09 L633.49 84.41 L629.35 83.04 L625.30 81.32 L620.89 80.84 L616.91 78.89 L612.53 78.33 L608.82 75.24 L604.36 75.00 L599.62 76.04 L595.97 72.44 L591.25 73.57 L586.24 76.28 L582.08 75.02 L577.38 76.68 L573.23 75.40 L569.34 72.48 L565.35 69.94 L561.05 69.28 L556.45 70.91 L552.35 68.74 L548.10 67.63 L543.83 66.63 L539.34 67.93 L534.99 67.85 L530.69 67.19 L526.36 66.87 L522.06 66.18 L517.69 66.50 L513.36 66.45 L509.01 66.91 L504.68 66.92 L500.34 66.93 L496.01 66.73 L491.68 66.58 L487.43 69.71 L483.08 68.61 L478.71 67.65 L474.59 71.30 L470.28 71.20 L466.14 73.44 L461.95 74.57 L457.40 72.04 L453.07 71.99 L449.16 75.50 L445.11 77.53 L440.60 76.06 L436.37 76.74 L432.08 76.97 L427.61 76.26 L422.95 74.65 L419.08 77.40 L414.84 78.19 L410.19 76.96 L406.20 78.95 L402.25 81.01 L398.23 82.69 L394.10 83.90 L389.65 83.85 L385.95 86.64 L382.07 88.64 L378.39 91.29 L374.25 92.33 L370.00 93.05 L365.33 92.53 L361.63 94.99 L357.73 96.79 L353.48 97.62 L349.53 99.26 L345.74 101.35 L342.00 103.49 L337.56 103.92 L334.84 108.50 L330.64 109.48 L326.14 109.84 L323.46 114.25 L319.89 116.62 L316.90 120.19 L312.97 121.74 L308.32 121.91 L304.85 124.41 L300.93 126.07 L297.45 128.53 L293.92 130.89 L289.87 132.32 L285.72 133.62 L282.28 136.13 L278.97 138.85 L275.74 141.66 L272.39 144.27 L269.87 148.13 L266.39 150.50 L261.51 150.81 L259.60 155.46 L255.43 156.84 L250.17 156.78 L248.42 161.54 L245.11 164.15 L242.66 167.88 L239.95 171.22 L235.95 172.94 L232.85 175.79 L230.15 179.10 L227.24 182.15 L224.37 185.23 L221.06 187.81 L214.29 186.59 L211.98 190.34 L210.27 194.68 L206.09 196.41 L201.27 197.55 L199.46 201.74 L198.74 206.94 L194.84 209.03 L194.58 214.56 L192.54 218.36 L190.17 221.84 L189.45 226.75 L186.00 229.24 L183.54 232.58 L182.26 236.90 L178.14 238.87 L174.23 241.06 L172.24 244.79 L169.69 248.07 L167.81 251.85 L164.91 254.86 L158.65 255.49 L156.86 259.36 L155.98 263.84 L143.17 260.26 L138.48 262.32 L140.92 269.03 L134.96 270.33 L137.30 276.83 L134.96 280.39 L130.07 282.46 L135.45 290.50 L131.10 292.88 L129.36 296.75 L130.68 302.25 L124.13 303.55 L126.22 309.38 L117.96 309.96 L109.50 310.60 L112.58 316.86 L106.49 318.77 L107.05 323.77 L112.33 330.77 L108.98 333.94 L114.09 340.65 L108.88 343.06 L106.58 346.69 L110.53 352.69 L101.83 353.94 L102.48 358.67 L102.65 363.19 L97.42 365.88 L103.46 372.28 L100.23 375.64 L97.92 379.32 L101.72 384.79 L95.21 387.28 L99.22 392.70 L99.29 397.00 L90.70 399.15 L93.36 404.10 L90.39 407.72 L89.50 411.82 L89.53 416.11 L83.68 419.24 L89.86 424.69 L85.73 428.21 L83.79 432.15 L93.89 437.96 L89.88 441.54 L90.06 445.74 L92.54 450.21 L87.47 453.77 L94.27 458.64 L92.05 462.53 L88.23 466.33 L94.21 470.90 L87.83 474.58 L91.84 478.92 L94.78 483.14 L86.73 486.94 L93.52 491.22 L88.47 495.23 L88.10 499.34 L94.18 503.41 L79.90 507.73 L81.18 511.90 L83.03 516.02 L78.00 520.44 L87.20 524.14 L86.89 528.30 L89.36 532.26 L94.53 535.94 L88.77 540.60 L96.21 543.95 L95.70 548.10 L88.84 553.09 L95.00 556.42 L90.69 561.19 L92.26 565.14 L96.07 568.67 L92.91 573.41 L99.08 576.44 L96.33 581.16 L97.09 585.21 L107.29 587.16 L100.91 592.77 L101.54 596.84 L105.88 599.97 L102.46 605.08 L108.03 607.81 L104.62 613.01 L98.81 619.03 L101.02 622.72 L111.38 623.80 L111.41 628.09 L110.96 632.56 L117.95 634.46 L125.79 635.92 L116.90 643.50 L116.97 647.86 L121.45 650.50 L113.95 657.97 L118.46 660.59 L118.87 664.93 L118.33 669.72 L128.44 669.69 L129.09 673.89 L132.41 676.84 L137.21 679.03 L134.32 685.02 L141.22 686.06 L141.70 690.38 L139.84 696.01 L147.58 696.40 L145.08 702.46 L149.65 704.53 L155.83 705.56 L153.72 711.55 L161.55 711.44 L160.01 717.16 L162.01 720.67 L170.43 719.91 L165.68 727.94 L168.35 731.01 L171.71 733.58 L171.05 739.04 L176.37 740.15 L173.25 747.57 L175.94 750.68 L182.28 750.89 L179.66 758.21 L188.18 756.52 L193.56 757.28 L193.23 762.83 L201.76 760.74 L199.54 768.02 L204.02 769.39 L212.45 767.03 L210.91 773.89 L217.90 772.68 L218.80 777.30 L220.16 781.53 L229.52 777.61 L225.10 787.85 L225.08 793.69 L231.29 792.88 L230.59 799.60 L235.68 799.92 L235.50 806.24 L237.49 810.16 L245.94 806.33 L243.95 815.09 L249.48 814.66 L254.74 814.46 L254.49 821.35 L262.57 817.30 L262.17 824.55 L266.34 825.65 L276.21 818.58 L276.99 824.31 L282.18 823.64 L285.14 826.24 L286.88 830.75 L291.89 830.19 L291.05 838.99 L293.06 843.36 L296.72 845.05 L299.16 848.83 L304.02 848.41 L305.47 854.07 L308.26 857.42 L315.09 853.12 L315.73 860.62 L321.07 858.99 L326.29 857.42 L327.23 864.72 L331.77 864.52 L334.82 867.53 L338.61 868.90 L342.97 868.94 L345.09 874.33 L349.95 873.08 L353.71 874.52 L356.66 878.07 L361.91 875.51 L365.15 878.32 L368.75 880.23 L373.87 877.58 L376.28 883.08 L381.46 879.99 L385.83 879.27 L388.52 884.21 L393.68 880.61 L396.56 885.13 L400.64 885.28 L405.65 881.60 L408.07 888.44 L412.98 884.83 L416.77 885.95 L420.02 889.79 L425.27 883.62 L428.40 888.21 L432.35 888.53 L436.77 885.96 L440.02 890.57 L444.33 888.30 L447.81 891.90 L451.52 894.16 L455.89 890.80 L459.46 894.54 L463.69 891.85 L467.83 889.54 L471.52 892.74 L475.72 888.70 L479.44 892.12 L483.38 891.81 L487.47 886.82 L491.19 893.36 L495.15 891.10 L499.07 889.60 L502.99 892.95 L506.79 885.35 L510.72 888.07 L514.69 890.44 L518.30 884.17 L522.42 888.81 L526.05 884.78 L529.85 883.86 L534.01 887.19 L537.35 881.40 L541.64 885.42 L545.24 882.85 L548.71 879.65 L553.78 888.32 L557.17 884.50 L561.09 884.37 L565.24 885.59 L567.89 878.21 L572.32 880.96 L576.38 881.48 L579.27 876.32 L583.84 879.18 L586.77 874.61 L590.57 873.98 L594.55 874.02 L596.69 866.99 L601.71 870.95 L604.64 867.21 L608.60 867.12 L613.46 869.91 L615.61 863.91 L620.71 867.19 L623.63 863.77 L626.02 858.97 L631.88 863.99 L635.39 862.32 L638.74 860.25 L642.79 859.99 L646.44 858.70 L651.12 859.82 L654.76 858.41 L657.94 855.95 L659.09 849.10 L663.81 850.11 L666.69 847.20 L669.01 843.19 L672.34 841.29 L678.55 844.98 L679.76 838.97 L680.43 832.15 L686.71 835.68 L687.91 830.02 L691.67 828.93 L695.87 828.53 L697.49 823.85 L703.36 826.09 L704.31 820.44 L707.31 818.08 L712.56 819.11 L713.16 813.18 L718.40 814.08 L722.18 812.79 L723.70 808.36 L728.97 809.07 L728.62 802.23 L730.72 798.76 L736.52 800.02 L736.12 793.42 L740.94 793.35 L743.82 790.88 L745.04 786.47 L751.05 787.62 L752.10 783.06 L755.64 781.32 L758.69 779.02 L759.06 773.87 L764.04 773.60 L766.29 770.47 L767.35 766.17 L772.26 765.69 L771.03 759.25 L773.28 756.22 L777.79 755.28 L777.11 749.58 L782.92 749.74 L782.64 744.50 L782.67 739.63 L791.04 741.77 L788.53 734.85 L792.65 733.38 L795.60 730.93 L792.54 723.86 L797.69 723.12 L797.78 718.57 L799.65 715.37 L803.64 713.66 L801.94 707.98 L811.25 709.84 L813.16 706.60 L811.53 701.09 L818.82 701.30 L816.67 695.54 L818.54 692.32 L823.38 690.86 L821.42 685.39 L826.19 683.82 L825.13 678.97 L823.85 674.06 L832.40 674.40 L828.26 668.06 L832.66 666.14 L835.35 663.31 L829.03 656.19 L834.76 654.82 L835.11 650.93 L834.02 646.44 L839.38 644.76 L836.23 639.46 L843.10 638.31 L845.60 635.31 L838.24 628.55 L833.30 622.87 L833.62 619.21 L834.06 615.61 L832.76 611.45 L833.03 607.85 L834.78 604.73 L834.88 601.09 L834.97 597.48 L833.52 593.45 L832.92 589.70 L833.22 586.22 L834.84 583.07 L839.54 580.64 L845.87 578.50 L846.04 574.91 L845.76 571.24 L848.98 568.27 L845.69 564.04 L841.98 559.82 L840.40 556.05 L840.44 552.56 L840.04 549.02 L841.37 545.74 L842.77 542.44 L843.01 538.99 L843.42 535.56 L844.23 532.17 L844.42 528.72 L844.79 525.28 L845.78 521.88 L842.48 518.23 L841.94 514.78 L844.92 511.45 L847.50 508.06 L847.99 504.59 L848.03 501.11 L849.18 497.62 L848.29 494.14 L847.39 490.68 L844.08 487.33 L841.28 484.01 L845.32 480.36 L841.98 477.12 L840.69 473.78 L840.48 470.37 L842.71 466.72 L839.56 463.59 L836.08 460.56 L838.09 456.89 L836.01 453.74 L829.79 451.23 L826.18 448.43 L825.17 445.25 L824.23 442.07 L823.88 438.78 L824.08 435.38 L823.24 432.18 L821.76 429.12 L821.61 425.78 L820.72 422.60 L825.14 418.08 L829.40 413.50 L826.13 410.86 L825.55 407.51 L826.87 403.59 L823.72 400.99 L819.59 398.75 L815.68 396.50 L815.27 393.13 L813.75 390.14 L810.86 387.65 L807.07 385.53 L804.40 383.05 L803.01 380.09 L801.20 377.31 L800.47 374.09 L805.02 368.58 L803.37 365.68 L799.61 363.75 L801.53 359.22 L798.28 357.08 L793.81 355.60 L790.09 353.80 L789.45 350.48 L787.74 347.70 L787.07 344.36 L789.54 339.25 L790.13 335.11 L787.63 332.70 L787.57 328.86 L788.01 324.68 L784.88 322.66 L781.41 320.88 L779.66 318.05 L776.80 315.94 L773.20 314.37 L772.75 310.66 L773.29 306.21 L773.26 302.09 L772.03 298.80 L769.17 296.73 L766.42 294.59 L762.54 293.36 L757.91 292.79 L753.93 291.78 L751.33 289.67 L749.06 287.31 L748.63 283.33 L746.40 280.90 L744.28 278.37 L742.78 275.27 L740.75 272.63 L739.61 269.13 L739.36 264.71 L737.24 262.09 L733.85 260.75 L731.31 258.56 L730.86 254.16 L729.27 250.91 L724.59 251.04 L723.33 247.40 L721.10 244.83 L715.82 245.83 L712.30 244.85 L707.73 245.20 L707.09 240.74 L704.23 239.00 L699.18 240.14 L698.87 235.11 L694.16 235.92 L690.10 235.95 L686.93 234.80 L683.66 233.83 L683.07 228.92 L680.22 227.30 L676.28 227.37 L672.50 227.27 L669.32 226.29 L665.88 225.76 L660.93 227.83 L656.85 228.56 L653.56 228.01 L650.81 226.53 L647.86 225.43 L645.16 223.86 L646.87 213.69 L647.54 205.16 L643.04 206.86 L641.05 203.46 L641.80 194.03 L636.79 196.93 L630.72 202.48 L627.53 201.69 L624.29 201.03 L619.48 204.29 L614.63 207.90 L610.21 210.70 L606.89 210.75 L603.82 210.17 L600.73 209.69 L597.56 209.50 L594.34 209.49 L591.31 208.94 L588.47 207.79 L585.56 206.87 L582.91 204.99 L580.88 200.75 L578.06 199.31 L574.95 198.93 L572.40 196.24 L570.01 192.67 L567.17 190.89 L564.17 189.79 L561.48 187.07 L558.08 187.87 L555.07 186.65 L552.73 181.30 L549.11 183.60 L545.69 184.84 L542.89 181.81 L539.36 184.20 L535.95 185.99 L532.63 187.30 L529.42 187.89 L526.26 188.09 L523.11 188.18 L519.82 190.68 L516.90 187.22 L513.92 183.63 L510.76 183.58 L507.59 183.49 L504.50 177.89 L501.27 181.90 L498.13 188.89 L495.02 189.12 L491.98 191.66 L489.00 194.74 L486.04 196.76 L483.08 198.26 L480.11 199.19 L477.09 199.25 L474.03 198.79 L470.89 197.73 L467.29 192.61 L464.49 195.30 L461.51 196.21 L458.13 194.05 L455.06 194.41 L452.24 196.37 L448.97 195.43 L445.34 192.68 L443.12 197.73 L438.84 192.01 L434.51 186.61 L430.58 183.65 L426.74 181.42 L424.35 185.46 L421.19 186.15 L419.38 192.01 L419.13 203.20 L417.69 209.40 L414.73 210.05 L412.24 212.23 L409.73 214.29 L406.97 215.48 L404.47 217.42 L401.63 218.34 L397.84 216.63 L392.05 209.70 L387.00 205.17 L384.07 206.37 L380.41 205.75 L377.61 207.27 L376.48 212.69 L375.50 218.20 L372.74 219.57 L369.43 219.76 L367.77 223.45 L364.75 224.26 L363.19 227.99 L363.47 235.18 L362.45 239.63 L359.99 241.28 L357.49 242.83 L354.60 243.69 L347.82 237.89 L343.54 236.62 L342.84 241.37 L337.69 238.81 L335.15 240.54 L332.89 242.71 L328.68 241.92 L327.96 246.38 L316.72 235.52 L312.81 235.57 L312.19 240.25 L305.79 236.98 L304.57 240.78 L300.94 241.39 L298.33 243.35 L300.76 251.60 L296.31 251.19 L294.98 254.61 L293.72 258.06 L288.88 257.35 L288.78 262.08 L284.89 262.52 L279.93 261.88 L281.47 268.24 L276.22 267.37 L274.78 270.52 L273.84 274.12 L268.74 273.60 L267.77 277.16 L264.24 278.25 L263.33 281.82 L263.41 286.22 L256.58 284.43 L256.40 288.58 L254.78 291.44 L251.26 292.70 L253.28 298.53 L250.04 300.01 L249.99 304.05 L251.16 308.94 L244.93 308.19 L248.13 314.51 L244.68 315.88 L239.17 315.84 L244.59 323.47 L237.49 322.41 L237.76 326.39 L240.03 331.61 L233.17 330.93 L233.43 334.81 L230.71 336.83 L228.27 339.04 L231.32 344.45 L225.14 344.53 L226.17 348.70 L226.40 352.38 L220.75 352.92 L226.59 359.47 L220.99 360.10 L218.34 362.28 L222.24 367.61 L215.11 367.69 L218.67 372.75 L216.54 375.19 L209.30 375.45 L213.85 380.78 L208.84 382.09 L208.52 385.34 L210.90 389.60 L204.81 390.64 L206.18 394.48 L205.34 397.50 L202.58 399.86 L205.27 404.04 L201.62 406.14 L201.94 409.50 L203.22 413.12 L198.94 415.13 L204.33 419.83 L201.81 422.34 L196.28 424.14 L201.91 428.70 L197.14 430.75 L197.77 434.07 L201.34 437.97 L196.37 440.10 L201.91 444.28 L198.31 446.73 L197.33 449.67 L201.25 453.39 L193.26 455.28 L195.62 458.73 L196.15 461.89 L192.50 464.55 L195.60 467.99 L189.50 470.48 L186.96 473.40 L187.63 476.60 L195.36 480.24 L193.61 483.20 L194.99 486.33 L199.21 489.53 L199.10 492.54 L191.95 495.45 L193.79 498.54 L198.41 501.57 L192.44 504.68 L196.34 507.66 L195.61 510.73 L194.33 513.83 L199.31 516.62 L191.93 520.12 L194.38 523.03 L196.73 525.91 L192.86 529.34 L197.33 531.97 L195.50 535.24 L194.65 538.44 L199.51 540.88 L195.29 544.56 L200.18 546.92 L202.71 549.57 L200.59 553.01 L206.84 554.93 L203.54 558.62 L205.12 561.38 L208.63 563.70 L202.41 568.18 L205.42 570.60 L206.70 573.40 L205.77 576.77 L211.65 578.32 L210.47 581.76 L211.90 584.48 L215.12 586.64 L212.99 590.43 L217.79 592.03 L217.01 595.42 L213.49 599.81 L218.26 601.32 L215.40 605.57 L219.40 607.30 L224.11 608.67 L221.72 612.84 L227.93 613.50 L227.35 616.96 L228.19 619.83 L234.80 620.10 L229.71 625.67 L233.79 627.03 L237.22 628.64 L233.97 633.54 L238.40 634.61 L235.65 639.38 L235.68 642.77 L240.18 643.70 L238.50 648.07 L242.30 649.34 L244.16 651.70 L244.02 655.27 L249.91 655.13 L248.01 659.82 L253.04 660.12 L259.90 659.11 L254.88 665.98 L261.34 665.11 L260.58 669.20 L261.09 672.45 L267.15 671.64 L263.00 678.39 L266.21 679.66 L269.67 680.70 L268.22 685.61 L274.44 684.36 L273.60 688.85 L273.95 692.43 L279.96 691.14 L277.89 696.87 L282.35 696.83 L284.74 698.62 L283.69 703.64 L288.86 702.79 L289.09 706.66 L291.89 708.04 L296.07 707.97 L296.31 711.93 L301.37 710.85 L302.51 713.88 L303.73 716.87 L310.60 713.54 L308.65 720.13 L310.75 722.16 L315.06 721.55 L314.54 726.74 L319.31 725.47 L321.13 727.83 L321.86 731.64 L327.30 729.27 L326.93 734.61 L330.62 734.48 L334.45 734.07 L333.70 740.19 L337.75 739.42 L339.85 741.49 L342.02 743.47 L347.52 740.22 L347.63 745.44 L351.32 744.94 L354.65 744.94 L355.38 749.35 L360.38 746.38 L361.03 751.05 L362.82 753.76 L368.06 750.01 L367.90 756.51 L372.68 753.43 L375.27 754.57 L374.51 762.74 L379.99 757.88 L381.36 761.73 L383.94 763.02 L387.93 761.01 L389.26 765.19 L393.26 762.97 L395.25 765.67 L397.71 767.23 L401.52 765.19 L403.24 768.76 L406.12 769.18 L409.39 768.40 L411.20 771.98 L415.78 766.99 L417.25 771.75 L419.40 774.52 L424.19 768.11 L425.19 775.04 L428.77 772.63 L432.47 769.42 L433.68 776.31 L437.27 773.34 L439.69 775.41 L442.38 776.31 L445.74 773.91 L448.11 776.39 L451.31 774.48 L453.85 776.19 L456.53 777.15 L460.21 771.39 L462.40 775.62 L465.13 776.26 L468.37 772.47 L470.56 777.80 L473.58 775.62 L476.14 778.17 L478.75 780.63 L481.76 777.82 L484.37 780.99 L487.36 777.23 L490.28 773.16 L492.82 780.75 L495.66 778.58 L498.45 778.05 L501.24 779.52 L503.97 775.29 L506.83 779.61 L509.68 781.10 L512.27 776.06 L514.74 770.61 L517.94 778.15 L520.57 775.93 L522.88 770.38 L525.79 772.31 L529.15 778.14 L531.26 772.02 L534.04 772.17 L537.43 776.75 L539.29 770.15 L542.59 773.61 L545.14 772.06 L547.36 768.74 L550.97 773.23 L552.72 767.75 L555.90 769.62 L558.93 770.58 L560.18 763.62 L563.80 767.17 L566.78 767.76 L568.47 763.27 L572.04 766.07 L573.64 761.56 L575.98 759.89 L579.04 760.65 L580.05 754.79 L583.94 758.11 L585.58 754.47 L587.87 752.89 L592.90 758.96 L593.60 752.95 L596.97 754.21 L599.72 753.76 L600.21 747.70 L605.22 752.80 L606.76 749.42 L608.35 746.32 L612.60 749.17 L614.30 746.34 L616.54 744.73 L618.33 742.22 L619.94 739.41 L623.78 741.03 L623.26 734.23 L625.15 732.15 L630.26 735.95 L630.17 730.32 L634.19 731.99 L635.77 729.40 L636.08 724.75 L640.90 727.55 L640.64 722.13 L643.52 721.75 L646.32 721.18 L646.33 716.47 L652.79 721.23 L652.94 716.78 L654.11 713.86 L659.30 716.47 L658.85 711.39 L662.37 711.63 L665.78 711.67 L665.69 707.24 L670.28 708.68 L668.29 702.07 L668.13 697.83 L673.29 699.81 L670.70 692.90 L675.34 694.19 L677.04 692.17 L676.07 687.33 L682.47 690.29 L682.29 686.34 L683.95 684.31 L687.42 684.07 L685.71 678.78 L691.91 681.08 L693.25 678.72 L693.38 675.29 L697.88 675.79 L696.67 671.23 L700.19 670.81 L703.72 670.33 L701.52 665.09 L706.68 665.90 L705.37 661.49 L704.07 657.19 L708.67 657.44 L706.17 652.34 L710.22 652.11 L711.48 649.82 L707.82 644.13 L714.14 645.37 L714.77 642.68 L714.71 639.56 L718.73 639.08 L715.66 634.12 L718.82 633.07 L721.61 631.75 L719.42 627.49 L723.62 626.96 L722.55 623.42 L724.65 621.67 L729.49 621.34 L725.14 616.17 L730.19 615.88 L729.39 612.61 L725.76 608.05 L732.11 608.25 L728.42 603.76 L730.83 602.08 L734.11 600.74 L728.30 595.55 L736.08 596.04 L737.55 593.88 L735.54 590.37 L740.40 589.49 L736.39 585.32 L740.74 584.18 L743.69 582.48 L739.00 578.24 L745.17 577.55 L741.96 573.89 L738.72 570.30 L744.19 569.26 L738.24 565.01 L742.73 563.63 L742.94 561.09 L737.92 557.31 L746.52 556.78 L744.32 553.71 L743.92 551.06 L748.20 549.37 L741.68 545.57 L746.24 543.89 L746.60 541.41 L742.16 538.18 L748.18 536.59 L742.63 533.29 L744.98 531.12 L751.62 529.41 L745.23 526.18 L750.18 524.18 L748.54 521.52 L743.26 518.61 L749.94 516.61 L745.26 513.84 L746.87 511.46 L748.47 509.04 L742.43 506.39 L747.76 504.06 L744.82 501.56 L742.77 499.12 L747.24 496.63 L741.06 494.30 L749.17 491.62 L752.31 488.98 L745.93 486.80 L751.78 483.96 L747.34 481.76 L746.10 479.37 L751.37 476.39 L746.78 474.33 L749.62 471.51 L748.94 469.07 L749.58 466.45 L751.15 463.68 L745.35 462.01 L741.43 460.14 L740.01 457.90 L737.96 455.81 L734.24 454.07 L732.71 451.95 L736.77 448.64 L741.02 445.18 L732.15 444.76 L731.89 442.36 L732.86 439.64 L725.85 439.04 L730.92 435.19 L725.55 434.25 L722.44 432.74 L728.69 428.35 L727.70 426.15 L727.94 423.55 L726.82 421.39 L726.79 418.85 L727.94 415.86 L726.39 413.85 L725.91 411.43 L724.32 409.46 L720.75 408.32 L720.02 406.03 L720.27 403.31 L716.97 402.16 L717.01 399.52 L713.86 398.37 L711.88 396.70 L713.51 393.25 L709.61 392.57 L709.88 389.76 L709.39 387.34 L708.68 385.01 L709.55 381.79 L706.63 380.69 L706.02 378.28 L703.70 376.89 L698.77 377.14 L703.36 371.47 L703.97 368.21 L699.92 367.98 L701.67 363.91 L698.04 363.46 L693.61 363.63 L688.33 364.52 L683.12 365.46 L686.49 360.10 L679.34 362.63 L678.80 360.19 L684.41 352.81 L676.98 355.82 L679.40 350.84 L678.13 348.86 L673.20 350.03 L676.03 344.48 L672.11 344.85 L672.77 341.09 L670.74 339.78 L667.67 339.48 L668.89 335.04 L664.68 335.90 L661.23 336.10 L663.35 330.58 L654.69 336.32 L656.99 330.52 L656.11 328.06 L648.90 332.66 L654.01 323.40 L648.57 326.15 L644.69 327.23 L646.92 320.96 L642.70 322.51 L642.99 318.46 L640.36 318.09 L637.74 317.74 L638.50 312.88 L637.55 310.22 L635.90 308.49 L633.03 308.52 L633.45 303.75 L633.14 299.93 L627.89 303.59 L625.24 303.38 L625.77 298.12 L618.16 306.04 L613.82 308.89 L613.32 305.33 L607.82 310.44 L608.63 304.51 L605.51 305.56 L600.95 309.43 L602.39 301.96 L597.74 306.23 L597.16 302.49 L595.95 299.93 L590.51 306.32 L592.27 297.31 L591.50 293.54 L588.46 294.87 L586.99 292.62 L585.41 290.52 L584.70 286.17 L582.86 284.57 L579.73 286.35 L578.49 283.07 L575.72 284.00 L573.23 284.22 L571.48 282.23 L569.14 282.03 L567.49 279.62 L564.39 281.98 L561.64 283.32 L560.41 279.30 L557.00 283.27 L554.84 282.68 L553.24 279.76 L549.07 287.72 L549.01 277.89 L547.30 274.97 L543.90 280.22 L542.69 274.57 L539.80 277.71 L537.38 278.51 L535.28 277.41 L532.08 283.62 L530.88 276.26 L528.10 280.23 L525.10 286.77 L523.19 284.46 L520.28 291.98 L518.62 286.95 L516.48 286.87 L513.78 295.19 L512.33 284.63 L510.14 285.18 L507.92 286.96 L505.91 282.67 L503.64 288.11 L501.54 284.54 L499.39 284.11 L497.37 295.17 L495.47 301.59 L493.45 300.72 L491.40 299.38 L489.53 302.09 L487.29 297.98 L485.36 299.35 L483.48 300.99 L481.60 302.36 L480.14 307.59 L478.19 307.54 L476.48 309.49 L474.72 310.78 L472.11 306.08 L469.62 302.79 L466.66 297.07 L464.58 297.12 L462.87 299.18 L459.54 292.76 L457.55 293.57 L457.14 301.68 L454.45 298.99 L449.34 286.37 L448.74 293.08 L446.79 294.04 L442.68 286.97 L440.26 286.50 L439.98 293.47 L437.99 294.33 L435.64 294.01 L435.24 299.79 L433.65 301.67 L430.32 298.43 L427.53 296.96 L426.24 299.69 L422.97 297.11 L420.95 297.89 L419.89 301.07 L416.75 299.10 L416.65 304.40 L414.43 304.65 L411.41 303.11 L410.71 306.76 L407.17 304.25 L406.60 308.03 L405.57 310.76 L401.34 307.13 L401.75 312.57 L398.94 311.83 L397.04 312.79 L396.66 316.47 L393.27 314.81 L393.26 319.01 L390.80 318.99 L388.26 318.90 L390.50 326.43 L385.61 322.64 L382.33 321.51 L384.33 328.30 L379.18 324.46 L378.18 326.76 L375.90 327.21 L373.36 327.33 L373.29 330.82 L369.77 329.69 L369.27 332.54 L368.80 335.36 L364.67 333.61 L366.70 339.42 L363.31 338.65 L361.36 339.62 L361.66 343.16 L355.71 339.68 L355.80 342.97 L354.98 345.22 L350.59 343.69 L355.96 352.30 L354.52 353.77 L351.37 353.57 L355.43 360.39 L348.71 356.79 L348.49 359.43 L348.38 362.12 L343.96 360.93 L345.40 364.96 L342.15 364.88 L340.92 366.56 L343.13 371.07 L339.70 370.91 L341.37 374.85 L340.03 376.37 L337.07 376.67 L342.99 383.59 L337.29 381.87 L333.34 381.53 L336.87 386.48 L332.37 385.82 L331.85 387.91 L330.11 389.19 L327.95 390.21 L330.64 394.30 L325.26 393.35 L326.95 396.75 L327.60 399.46 L322.39 398.79 L324.51 402.31 L321.86 403.15 L321.11 405.05 L322.47 408.03 L316.31 407.16 L318.06 410.32 L317.16 412.14 L313.60 412.71 L319.35 417.60 L314.52 417.62 L312.59 419.00 L318.68 423.77 L311.45 422.94 L313.80 426.07 L316.18 429.13 L312.00 429.67 L316.29 433.37 L312.89 434.24 L312.31 436.14 L313.51 438.62 L309.46 439.39 L310.12 441.69 L309.10 443.46 L307.72 445.13 L312.31 448.47 L305.76 448.75 L305.79 450.83 L309.78 453.86 L304.46 454.63 L306.02 457.04 L303.87 458.61 L303.62 460.61 L306.63 463.22 L301.67 464.33 L307.06 467.28 L312.16 470.08 L305.85 471.06 L310.90 473.74 L308.93 475.42 L307.28 477.16 L310.61 479.47 L306.65 481.00 L306.09 482.90 L307.48 484.96 L306.19 486.81 L307.38 488.82 L305.05 490.64 L304.34 492.57 L307.76 494.62 L303.86 496.48 L308.10 498.47 L309.51 500.39 L307.30 502.32 L313.55 504.11 L308.23 506.15 L311.09 507.95 L314.27 509.67 L303.92 512.18 L309.70 513.73 L309.01 515.70 L306.03 517.90 L312.32 519.22 L311.10 521.25 L310.70 523.22 L313.61 524.75 L311.94 526.89 L313.01 528.65 L310.85 530.92 L310.91 532.86 L314.83 534.08 L310.36 536.87 L315.74 537.74 L319.05 538.95 L315.16 541.73 L319.27 542.70 L318.13 544.90 L318.36 546.78 L319.49 548.41 L316.44 551.20 L319.34 552.35 L318.80 554.47 L318.80 556.46 L325.51 556.29 L323.80 558.79 L325.00 560.34 L328.73 560.98 L325.90 563.95 L330.46 564.21 L328.44 566.94 L324.74 570.41 L327.12 571.48 L330.50 572.07 L331.22 573.77 L331.58 575.62 L335.78 575.72 L340.49 575.49 L335.87 579.70 L337.08 581.13 L341.39 580.97 L334.84 586.41 L336.25 587.77 L337.96 588.95 L335.94 592.21 L341.69 591.07 L341.84 593.10 L343.57 594.20 L348.15 593.53 L344.68 597.82 L348.17 597.75 L348.75 599.54 L346.08 603.51 L350.65 602.62 L348.51 606.34 L352.46 605.79 L357.83 604.10 L355.57 607.99 L360.56 606.45 L360.66 608.60 L360.21 611.21 L366.59 608.33 L363.49 613.13 L363.44 615.50 L367.22 614.60 L365.35 618.58 L370.00 616.81 L369.34 619.79 L368.17 623.32 L374.39 619.88 L371.55 625.06 L374.90 624.26 L376.82 624.83 L374.71 629.53 L379.25 627.36 L378.34 630.92 L380.40 631.31 L386.05 627.65 L384.58 631.93 L387.53 631.18 L389.64 631.35 L389.05 634.77 L394.45 630.86 L390.81 638.18 L390.94 640.88 L396.57 636.40 L393.94 642.83 L398.12 640.09 L399.99 640.46 L400.34 642.97 L404.88 639.41 L403.36 644.73 L405.83 644.13 L409.42 641.70 L407.24 648.36 L411.43 644.86 L412.56 646.28 L413.23 648.52 L418.13 643.41 L415.98 650.65 L417.83 650.85 L420.79 648.94 L420.16 653.82 L424.61 648.88 L424.81 652.23 L425.67 654.36 L429.80 649.60 L428.89 655.57 L432.32 652.05 L433.48 653.57 L432.86 659.35 L438.65 649.78 L437.42 657.24 L439.29 657.11 L443.19 651.49 L441.87 659.85 L444.49 657.53 L445.99 658.32 L446.79 661.24 L450.44 655.37 L450.88 659.48 L452.57 659.67 L455.08 656.96 L455.43 661.84 L458.39 657.19 L459.58 659.11 L460.21 663.48 L463.22 657.96 L463.80 662.85 L465.98 660.60 L467.97 659.03 L468.21 666.40 L471.03 660.35 L472.18 663.26 L473.55 665.21 L476.04 659.88 L476.97 664.89 L478.96 662.50 L480.71 661.65 L482.01 664.71 L484.24 659.11 L485.50 662.88 L487.03 664.28 L488.95 660.40 L490.30 664.81 L492.18 660.24 L493.79 660.01 L495.25 665.07 L497.01 659.44 L498.58 662.58 L500.20 661.68 L501.77 657.10 L503.47 663.36 L504.99 659.83 L506.59 659.71 L508.34 662.71 L509.53 655.39 L511.41 659.93 L513.00 659.72 L514.24 655.62 L516.22 659.64 L517.23 654.21 L519.02 656.12 L521.00 659.08 L521.66 652.30 L524.01 657.55 L525.02 653.84 L526.25 651.82 L528.66 656.39 L528.94 649.47 L531.31 653.49 L532.72 652.58 L533.11 647.20 L536.55 655.24 L537.68 653.15 L538.92 651.64 L541.34 654.64 L541.78 650.24 L544.23 653.08 L545.73 652.57 L546.51 649.71 L549.15 652.79 L548.66 646.22 L550.17 645.89 L552.54 647.96 L551.42 640.33 L554.97 645.49 L555.29 642.02 L555.16 637.62 L559.46 644.14 L558.93 638.90 L561.13 640.17 L562.96 640.52 L561.80 634.31 L565.36 638.38 L565.63 635.43 L563.62 628.01 L563.77 625.16 L565.52 625.48 L566.66 624.60 L567.00 622.27 L567.75 620.78 L568.95 620.08 L569.31 617.95 L569.75 616.04 L570.31 614.35 L570.38 611.95 L571.82 611.74 L572.99 611.11 L573.40 609.33 L575.55 610.13 L576.78 609.56 L577.37 608.09 L579.19 608.32 L579.29 606.23 L580.67 605.85 L580.61 603.60 L582.14 603.41 L583.29 602.73 L584.01 601.53 L586.17 602.05 L588.22 602.38 L589.11 601.35 L590.25 600.59 L590.72 599.10 L590.86 597.29 L590.55 595.04 L589.89 592.47 L591.15 591.91 L591.89 590.82 L591.82 588.96 L594.12 589.38 L595.36 588.76 L595.56 587.18 L597.48 587.16 L597.09 585.08 L599.06 585.07 L598.54 582.92 L602.77 584.74 L611.34 589.96 L606.42 584.23 L606.46 582.55 L609.61 583.25 L604.93 578.05 L610.72 580.65 L608.42 577.33 L605.20 573.46 L611.90 576.49 L607.14 571.66 L611.45 572.95 L612.80 572.23 L606.29 566.57 L613.28 569.38 L612.30 567.25 L612.01 565.56 L616.43 566.60 L609.39 561.13 L619.76 565.36 L622.13 565.08 L617.17 560.93 L625.34 563.60 L620.90 559.83 L624.40 560.02 L630.23 561.24 L623.25 556.46 L630.67 558.28 L627.44 555.32 L617.12 549.46 L622.01 550.09 L618.28 547.18 L608.29 541.95 L602.56 538.55 L603.22 537.63 L602.62 536.25 L601.15 534.59 L600.32 533.20 L600.09 532.01 L599.90 530.85 L599.81 529.74 L599.73 528.63 L599.70 527.55 L599.69 526.47 L599.68 525.41 L599.69 524.35 L599.70 523.30 L599.72 522.25 L599.73 521.21 L599.74 520.17 L599.74 519.14 L599.73 518.10 L599.72 517.07 L599.70 516.04 L599.67 515.02 L599.63 513.99 L599.58 512.97 L599.52 511.96 L599.45 510.94 L599.37 509.93 L599.28 508.92 L599.19 507.91 L599.08 506.90 L598.96 505.90 L598.83 504.90 L598.69 503.91 L598.54 502.91 L598.38 501.92 L598.22 500.94 Z"/>
  <svg class="pausebutton" id="pausebutton">
    <circle cx="500" cy="500" id="pausestart" class="pausestart" r="52.65"/>
    <rect height="50.02" width="10.00" y="473.68" rx="2.00" ry="2.00" x="479.99" class="pausesymbol"/>
    <rect height="50.02" width="10.00" y="473.68" rx="2.00" ry="2.00" x="510.00" class="pausesymbol"/>
    <polygon points="530.01,500 479.99,530.01 479.99,469.99" class="playsymbol"/>
  </svg>
  <polygon id="playback-head" class="playback-head" points="941.65,500 921.65,540 961.65,540"/>
</svg>