<?xml-stylesheet href="../../style/waveformjs.css" type="text/css"?>
<svg xmlns="http://www.w3.org/2000/svg" xmlns:xlink="http://www.w3.org/1999/xlink" width="100%" height="100%" viewBox="0 0 1000 1000">
  <path class="svg-wave" id="sp" d="M598.05 500.00 L598.22 500.98 L598.38 501.97 L598.53 502.96 L598.67 503.95 L598.80 504.94 L598.92 505.94 L599.03 506.94 L599.13 507.95 L599.21 508.95 L599.28 509.96 L599.35 510.97 L599.40 511.99 L599.43 513.00 L599.45 514.01 L599.46 515.03 L599.45 516.05 L599.42 517.07 L599.36 518.08 L599.23 519.08 L598.88 520.04 L598.46 520.99 L598.16 521.95 L597.73 522.88 L597.33 523.82 L596.66 524.68 L594.57 525.16 L590.92 525.16 L586.30 524.82 L581.84 524.42 L580.33 524.85 L575.43 524.16 L571.15 523.58 L575.59 525.89 L573.54 526.01 L571.01 525.92 L575.54 528.43 L576.57 529.70 L573.25 529.26 L576.06 531.27 L578.59 533.23 L573.85 532.10 L575.80 533.85 L581.83 537.53 L575.11 535.36 L575.68 536.56 L582.31 540.78 L575.56 538.38 L573.66 538.35 L579.19 542.24 L574.41 540.65 L571.05 539.74 L575.78 543.39 L572.57 542.52 L570.26 542.12 L577.38 547.45 L574.69 546.83 L571.82 546.04 L579.64 552.18 L576.69 551.35 L570.80 548.44 L573.33 551.25 L572.59 551.82 L567.76 549.40 L568.34 550.88 L570.17 553.35 L567.23 552.18 L567.84 553.75 L571.55 557.86 L566.91 555.22 L566.99 556.42 L572.19 562.05 L566.39 558.23 L565.42 558.55 L571.36 565.15 L565.69 561.19 L562.73 559.62 L566.93 564.90 L562.65 561.98 L560.86 561.42 L565.96 567.91 L563.35 566.55 L560.94 565.31 L567.04 573.30 L564.47 571.93 L559.42 567.64 L562.16 572.20 L561.10 572.43 L557.14 569.11 L557.60 571.11 L557.87 572.93 L555.50 571.39 L556.25 573.87 L558.30 578.17 L554.55 574.69 L554.85 576.70 L557.56 582.22 L552.56 576.69 L551.65 577.01 L554.63 583.24 L550.74 579.02 L547.80 576.10 L549.01 579.80 L546.42 577.29 L543.60 574.27 L545.63 579.55 L545.34 580.90 L543.70 579.85 L547.36 588.62 L546.51 589.17 L543.18 584.83 L544.70 590.04 L543.02 588.87 L539.87 584.51 L540.15 587.37 L539.75 588.82 L537.47 586.02 L537.86 589.36 L538.64 593.79 L535.88 589.62 L535.48 591.26 L536.86 597.69 L533.39 591.24 L531.88 589.90 L533.32 597.04 L530.74 592.52 L529.07 590.50 L530.19 597.33 L528.25 594.39 L526.48 591.81 L527.15 597.81 L525.47 595.44 L523.48 591.63 L523.67 596.39 L522.17 594.36 L520.48 591.26 L520.51 595.87 L519.72 596.89 L518.26 594.56 L518.11 599.08 L517.49 601.40 L515.68 596.67 L515.29 600.63 L514.88 605.00 L513.04 599.10 L512.44 602.46 L512.21 609.77 L510.27 601.54 L509.19 600.99 L508.78 608.49 L507.25 602.17 L506.07 599.75 L505.40 606.24 L504.17 602.17 L503.07 599.70 L502.24 607.80 L501.13 604.43 L500.08 602.13 L498.98 610.66 L497.94 607.01 L497.00 602.54 L495.76 608.05 L494.76 606.43 L494.00 601.26 L492.78 604.13 L491.55 606.42 L490.82 602.66 L489.62 604.27 L488.13 608.24 L487.59 603.65 L486.32 605.30 L484.50 610.59 L484.39 603.84 L483.25 604.29 L481.09 610.71 L481.01 604.85 L480.18 603.48 L477.90 609.48 L477.87 604.22 L477.03 603.10 L474.21 610.54 L474.22 605.72 L473.63 603.60 L470.52 611.17 L470.13 608.25 L470.40 603.24 L467.43 609.47 L467.03 606.89 L467.44 601.94 L465.05 605.76 L464.04 605.25 L464.08 601.80 L461.41 605.98 L459.23 608.57 L459.92 603.58 L457.76 606.01 L454.89 610.00 L456.59 602.90 L455.40 602.84 L451.96 607.80 L453.54 601.51 L452.92 600.22 L449.20 605.39 L450.57 599.97 L450.05 598.53 L445.06 605.74 L445.99 601.45 L445.91 599.21 L440.36 606.81 L441.58 602.23 L442.86 597.71 L438.50 602.78 L439.44 598.95 L440.77 594.64 L437.81 597.19 L437.69 595.27 L437.64 593.30 L435.10 595.02 L432.70 596.46 L433.86 592.80 L431.34 594.33 L427.58 597.42 L430.56 591.49 L429.68 590.75 L425.04 594.77 L427.57 589.72 L427.80 587.62 L422.94 591.64 L425.99 586.25 L426.45 583.99 L422.85 586.35 L424.66 582.64 L424.65 581.01 L419.32 585.02 L418.80 583.87 L419.29 581.72 L413.61 585.74 L414.69 582.99 L417.92 578.26 L413.79 580.57 L412.36 580.28 L415.50 575.86 L410.91 578.39 L406.15 580.93 L409.91 576.12 L407.06 576.96 L403.18 578.55 L407.31 573.67 L406.17 573.06 L401.88 574.84 L404.97 570.99 L405.48 569.15 L399.92 571.69 L402.13 568.64 L402.10 567.21 L394.84 570.65 L397.12 567.64 L398.41 565.34 L390.49 568.90 L393.52 565.52 L396.56 562.23 L390.19 564.58 L393.18 561.39 L396.84 557.92 L391.33 559.59 L391.79 557.94 L393.58 555.62 L388.90 556.66 L385.32 557.04 L388.69 553.99 L384.76 554.48 L380.73 554.93 L386.92 550.72 L384.53 550.40 L378.88 551.44 L384.95 547.51 L384.72 546.26 L378.20 547.47 L383.05 544.23 L382.35 543.16 L375.34 544.32 L379.58 541.46 L380.62 539.77 L372.60 541.03 L376.55 538.40 L379.85 536.06 L372.50 536.88 L375.80 534.59 L378.77 532.46 L373.17 532.60 L374.21 531.00 L376.85 529.04 L371.16 529.03 L369.28 528.08 L373.89 525.77 L369.42 525.33 L366.84 524.45 L373.45 521.93 L371.66 520.92 L367.33 520.27 L372.71 518.15 L374.71 516.58 L370.72 515.80 L373.48 514.18 L374.54 512.79 L366.64 512.25 L370.07 510.62 L370.65 509.28 L361.50 508.54 L366.48 506.89 L370.21 505.40 L363.97 504.30 L367.73 502.86 L370.90 501.50 L365.83 500.21 L367.63 498.89 L370.34 497.61 L365.25 496.17 L364.20 494.78 L368.97 493.65 L365.62 492.14 L363.07 490.62 L369.61 489.76 L368.96 488.38 L364.91 486.66 L369.63 485.81 L370.20 484.56 L364.57 482.51 L368.59 481.70 L369.84 480.54 L365.92 478.58 L371.30 478.12 L372.22 476.96 L367.69 474.77 L370.19 473.90 L370.42 472.60 L364.67 469.96 L367.31 469.16 L370.12 468.44 L365.43 465.87 L365.89 464.55 L370.83 464.47 L365.95 461.68 L364.02 459.66 L369.05 459.72 L365.81 457.25 L364.16 455.22 L369.73 455.61 L368.31 453.65 L365.96 451.31 L371.64 451.92 L372.31 450.71 L368.75 447.82 L373.46 448.22 L374.40 447.13 L366.47 442.22 L371.46 442.84 L372.32 441.69 L364.59 436.51 L370.69 437.79 L374.60 438.12 L368.91 433.67 L374.43 434.88 L378.70 435.55 L373.99 431.42 L376.71 431.29 L379.90 431.49 L374.97 427.01 L374.98 425.33 L379.90 426.63 L376.20 422.66 L375.60 420.54 L381.60 422.69 L380.17 420.05 L378.26 417.00 L383.02 418.52 L383.25 416.93 L380.05 412.84 L384.89 414.58 L384.96 412.83 L380.24 407.36 L386.22 410.15 L387.74 409.51 L382.34 403.21 L388.46 406.35 L392.04 407.50 L387.23 401.41 L391.68 403.37 L394.77 404.22 L390.84 398.63 L393.73 399.32 L396.14 399.61 L391.62 393.13 L394.05 393.42 L397.89 395.20 L395.48 390.55 L396.47 389.40 L401.35 392.48 L400.73 389.61 L400.04 386.58 L404.82 389.80 L406.97 390.08 L406.46 387.22 L409.13 388.18 L410.75 387.90 L408.01 382.06 L410.06 382.27 L410.77 380.75 L406.68 372.64 L411.43 376.56 L414.33 378.05 L411.61 371.47 L415.87 374.99 L418.76 376.64 L416.66 370.65 L419.29 371.95 L421.93 373.34 L419.96 367.19 L421.86 367.36 L425.66 370.88 L424.50 365.77 L425.91 365.14 L429.88 369.30 L429.50 365.37 L429.64 362.30 L432.95 365.47 L433.39 362.95 L432.23 356.94 L434.13 357.27 L434.97 355.31 L435.07 351.59 L435.56 348.59 L437.22 348.30 L438.71 347.61 L439.77 345.80 L441.39 345.42 L443.02 345.06 L444.45 344.13 L446.17 344.06 L447.88 343.97 L449.76 344.44 L451.85 345.67 L453.89 346.82 L455.56 346.82 L456.59 344.59 L459.26 348.32 L461.21 349.60 L462.28 347.45 L464.62 350.53 L465.79 348.72 L467.47 349.15 L469.02 349.04 L469.62 344.04 L471.19 343.79 L472.58 342.50 L474.20 342.49 L475.41 339.86 L477.23 341.15 L479.19 343.75 L480.71 343.15 L482.30 343.13 L483.80 342.31 L485.54 343.90 L486.99 342.50 L488.61 342.91 L490.22 343.43 L491.85 344.63 L493.30 341.96 L494.87 341.79 L496.45 341.44 L498.03 341.20 L499.62 340.96 L501.21 340.52 L502.82 339.63 L504.55 335.30 L506.03 339.80 L507.74 337.50 L509.61 333.32 L510.94 338.40 L512.41 340.40 L514.07 339.81 L515.77 338.97 L517.15 341.21 L518.90 340.06 L520.82 337.70 L522.33 338.75 L524.45 335.54 L526.04 336.14 L527.41 338.00 L529.09 337.95 L530.95 337.00 L533.06 334.87 L534.17 337.78 L536.01 337.15 L538.22 334.99 L538.92 339.29 L540.35 340.38 L541.66 341.88 L543.01 343.15 L545.43 340.57 L546.22 343.75 L548.06 343.31 L550.15 342.14 L550.59 346.12 L552.18 346.47 L554.46 344.87 L556.01 345.43 L557.22 346.87 L559.51 345.47 L560.75 346.84 L561.26 349.94 L564.19 347.15 L566.29 346.47 L568.48 345.67 L570.77 344.72 L573.26 343.42 L576.12 341.45 L575.84 346.00 L576.71 348.08 L579.24 346.90 L579.09 350.86 L580.38 352.03 L582.31 352.02 L584.24 352.05 L587.09 350.55 L586.73 354.52 L590.28 351.95 L593.84 349.52 L593.60 353.20 L596.21 352.39 L599.83 350.12 L601.72 350.55 L603.55 351.09 L605.27 351.80 L607.97 351.18 L610.17 351.29 L611.90 352.07 L613.86 352.57 L614.52 354.74 L615.43 356.56 L617.23 357.26 L616.28 361.28 L615.70 364.74 L616.96 366.00 L617.59 367.97 L617.28 370.94 L619.11 371.53 L619.93 373.21 L622.09 373.49 L625.92 372.10 L623.08 377.47 L625.74 377.29 L629.21 376.41 L630.03 378.09 L633.33 377.47 L636.34 377.20 L639.91 376.50 L639.45 379.37 L641.21 380.29 L643.30 380.96 L643.20 383.44 L645.11 384.28 L645.91 386.01 L643.63 390.09 L644.20 391.92 L643.04 395.01 L640.91 398.72 L645.00 397.97 L646.76 398.91 L648.14 400.12 L650.80 400.51 L651.68 402.10 L650.77 404.81 L652.73 405.69 L655.86 405.90 L652.30 410.11 L656.50 409.73 L660.94 409.30 L658.87 412.55 L659.81 414.10 L661.04 415.51 L665.45 415.29 L664.35 417.92 L664.91 419.69 L670.90 418.88 L668.66 422.00 L669.68 423.58 L672.74 424.27 L675.12 425.30 L675.04 427.40 L678.43 428.07 L680.48 429.34 L677.85 432.41 L676.68 434.87 L677.69 436.51 L675.76 439.17 L677.10 440.68 L675.74 443.09 L678.06 444.30 L679.72 445.75 L674.87 449.11 L678.78 449.91 L678.30 451.96 L674.21 454.92 L679.02 455.59 L683.87 456.33 L685.15 457.98 L689.13 459.06 L693.04 460.23 L689.63 462.90 L687.85 465.20 L693.79 466.10 L691.19 468.52 L692.21 470.32 L697.33 471.55 L697.25 473.57 L695.69 475.77 L692.98 478.06 L691.56 480.16 L691.03 482.15 L688.99 484.24 L689.22 486.13 L687.26 488.15 L689.97 489.89 L691.92 491.71 L686.68 493.80 L690.55 495.58 L691.98 497.47 L690.94 499.39 L691.30 501.30 L692.33 503.23 L696.65 505.27 L693.41 507.12 L691.04 508.95 L697.66 511.24 L697.65 513.23 L696.03 515.09 L700.83 517.48 L704.10 519.82 L701.48 521.60 L701.99 523.70 L703.97 526.01 L703.06 527.96 L702.33 529.92 L701.95 531.93 L698.94 533.50 L694.50 534.75 L690.68 536.04 L690.97 538.08 L689.24 539.71 L686.02 540.98 L689.52 543.74 L693.09 546.60 L692.60 548.53 L694.95 551.20 L696.50 553.71 L696.57 555.85 L694.67 557.42 L693.05 559.05 L691.77 560.76 L691.71 562.85 L691.24 564.82 L688.62 566.05 L688.05 567.97 L690.68 571.08 L684.14 570.75 L681.69 571.90 L687.85 576.52 L684.95 577.50 L682.13 578.47 L685.98 582.34 L683.41 583.41 L680.20 584.13 L681.79 587.10 L679.56 588.25 L675.61 588.50 L679.82 592.89 L680.51 595.54 L676.43 595.66 L676.06 597.75 L675.51 599.75 L674.44 601.46 L672.16 602.45 L671.61 604.46 L676.29 609.74 L673.84 610.65 L675.14 613.95 L676.87 617.61 L675.82 619.46 L676.26 622.36 L676.13 624.90 L675.90 627.39 L674.13 628.78 L672.98 630.63 L669.40 630.61 L665.36 630.15 L662.06 630.20 L658.01 629.57 L657.26 631.60 L654.34 631.81 L650.62 631.25 L652.53 635.63 L650.87 636.88 L646.90 635.98 L648.45 640.19 L649.10 643.66 L645.29 642.81 L646.69 647.11 L646.72 650.11 L642.31 648.54 L640.38 649.49 L643.29 655.68 L640.23 655.44 L640.33 658.72 L643.66 665.80 L642.95 668.35 L642.31 671.03 L640.56 672.42 L637.18 671.74 L634.15 671.43 L632.30 672.60 L629.74 672.82 L628.43 674.68 L627.05 676.47 L624.38 676.45 L621.36 675.89 L620.44 678.35 L618.30 679.00 L615.20 678.16 L615.41 682.47 L614.07 684.40 L612.93 686.71 L611.13 687.95 L609.12 688.83 L608.06 691.39 L606.13 692.44 L604.14 693.38 L602.44 694.88 L600.93 696.75 L599.45 698.74 L597.52 699.84 L594.99 699.71 L592.07 698.66 L589.51 698.32 L586.75 697.43 L584.04 696.58 L582.91 699.44 L580.47 699.17 L579.02 701.35 L578.25 705.40 L575.41 704.06 L574.04 706.67 L571.80 706.93 L570.68 710.46 L567.40 707.55 L564.67 706.13 L563.52 709.79 L560.69 707.93 L557.84 705.79 L556.12 707.65 L554.09 708.36 L551.71 707.70 L549.71 708.56 L548.05 710.94 L545.71 710.33 L544.27 714.01 L542.37 715.69 L539.72 713.44 L538.01 716.25 L535.97 717.35 L533.33 714.73 L531.44 716.84 L529.14 716.21 L527.15 717.83 L525.32 721.21 L523.19 722.18 L521.56 728.72 L519.31 729.34 L517.22 732.31 L514.96 733.56 L512.55 732.29 L510.22 732.32 L507.87 731.45 L505.52 729.96 L503.21 729.61 L500.91 728.73 L498.62 729.39 L496.33 729.18 L494.03 729.35 L491.69 730.60 L489.39 730.30 L487.18 728.60 L485.06 725.93 L482.90 724.56 L480.75 723.24 L478.76 720.58 L476.33 722.44 L474.21 721.32 L471.75 722.97 L469.03 726.30 L466.81 725.69 L463.51 732.00 L460.98 732.89 L458.37 734.04 L455.74 735.17 L453.63 733.52 L451.42 732.46 L449.53 730.00 L447.37 728.89 L445.32 727.35 L443.17 726.31 L440.67 726.66 L438.43 725.98 L435.84 726.52 L433.25 726.97 L431.05 726.09 L428.93 724.95 L426.57 724.57 L424.98 721.90 L423.85 718.04 L421.98 716.41 L419.58 716.25 L418.70 712.11 L415.76 713.38 L412.25 715.91 L410.55 713.95 L406.94 716.46 L406.18 712.37 L405.10 709.11 L403.20 707.75 L402.39 704.14 L402.50 698.77 L399.58 699.67 L397.05 699.69 L396.52 695.89 L392.97 697.79 L389.45 699.49 L389.27 695.20 L386.43 695.61 L382.09 698.48 L383.30 692.05 L381.18 691.21 L374.78 697.09 L376.40 690.30 L374.50 689.07 L368.32 694.13 L369.44 688.40 L369.36 684.54 L363.41 688.91 L363.67 684.64 L363.75 680.72 L358.31 684.07 L358.00 680.70 L358.19 676.80 L352.33 680.37 L351.37 677.90 L351.39 674.29 L346.61 676.30 L343.62 676.15 L345.18 670.92 L342.24 670.70 L338.35 671.44 L340.41 665.90 L338.67 664.39 L333.23 666.56 L334.85 661.68 L333.71 659.57 L325.78 663.86 L328.14 658.43 L326.81 656.49 L318.77 660.49 L322.54 654.01 L323.12 650.44 L316.22 653.16 L318.62 648.12 L319.09 644.74 L312.44 647.01 L313.74 643.01 L313.04 640.59 L306.10 642.80 L307.06 639.14 L308.17 635.45 L302.35 636.61 L300.92 634.68 L304.82 629.22 L301.04 628.87 L297.60 628.25 L300.24 623.79 L299.15 621.70 L294.99 621.44 L296.28 617.94 L294.28 616.37 L288.31 616.96 L290.24 613.17 L288.28 611.51 L280.09 613.03 L286.34 607.13 L287.63 603.84 L280.03 604.84 L283.78 600.42 L286.14 596.73 L282.00 595.99 L283.52 592.75 L285.09 589.54 L280.94 588.71 L279.23 586.84 L279.95 584.03 L273.95 583.74 L269.82 582.66 L273.91 578.65 L270.72 577.20 L267.68 575.65 L272.02 571.72 L270.57 569.66 L266.06 568.48 L269.00 565.12 L267.77 562.97 L260.10 562.48 L264.29 558.88 L264.67 556.29 L256.39 555.70 L263.27 551.64 L265.42 548.72 L257.64 547.81 L262.07 544.47 L263.77 541.71 L256.65 540.47 L258.87 537.62 L261.05 534.84 L254.96 533.23 L256.45 530.55 L259.96 527.67 L256.99 525.56 L257.85 523.02 L261.07 520.30 L258.50 518.09 L256.27 515.81 L257.67 513.29 L253.72 511.04 L249.33 508.72 L254.14 506.09 L252.04 503.66 L246.57 501.21 L253.26 498.71 L253.56 496.25 L246.48 493.60 L252.43 491.28 L254.00 488.87 L247.39 486.04 L252.00 483.80 L255.74 481.59 L249.98 478.64 L252.32 476.34 L255.44 474.17 L249.24 470.98 L249.47 468.46 L253.18 466.42 L247.25 463.04 L249.13 460.74 L254.64 459.09 L251.69 456.04 L251.28 453.40 L256.26 451.80 L254.42 448.88 L252.36 445.86 L256.78 444.28 L255.89 441.50 L251.59 437.83 L257.06 436.61 L257.21 434.05 L251.27 429.76 L258.27 429.12 L260.06 427.03 L253.93 422.47 L260.04 421.75 L263.38 420.21 L258.55 415.89 L262.74 414.68 L265.02 412.83 L259.94 408.21 L262.72 406.54 L265.95 405.10 L260.66 400.15 L263.08 398.37 L268.93 398.13 L266.77 394.38 L266.74 391.55 L271.26 390.85 L270.51 387.66 L269.12 384.11 L273.16 383.28 L271.84 379.70 L269.00 375.24 L275.06 375.58 L275.08 372.64 L271.00 367.29 L278.65 368.75 L281.30 367.35 L277.15 361.76 L283.46 362.66 L287.17 362.01 L283.38 356.45 L288.38 356.70 L292.83 356.67 L290.11 351.67 L292.32 350.09 L295.39 349.18 L292.85 344.08 L292.34 340.42 L297.19 340.90 L295.41 336.17 L296.84 333.95 L302.21 335.01 L302.46 331.84 L302.01 328.01 L306.37 328.38 L306.59 325.08 L304.65 319.75 L310.09 321.22 L311.17 318.64 L309.39 313.23 L316.06 316.13 L318.45 314.84 L315.91 308.46 L321.66 310.69 L324.25 309.66 L321.05 302.27 L323.42 300.92 L325.46 299.21 L323.76 293.12 L325.09 290.47 L327.06 288.56 L329.34 287.04 L330.82 284.50 L333.19 283.10 L335.47 281.58 L336.91 278.92 L338.43 276.32 L340.44 274.39 L341.83 271.54 L343.56 269.15 L346.43 268.42 L349.07 267.39 L352.85 268.17 L357.40 270.29 L360.88 270.81 L364.20 271.17 L368.36 273.04 L369.20 269.20 L372.19 269.11 L375.29 269.31 L374.66 262.49 L377.27 261.69 L380.16 261.47 L379.93 254.94 L382.37 253.72 L384.99 252.87 L386.51 249.62 L389.21 248.94 L391.30 246.84 L393.82 245.74 L396.46 244.91 L399.71 245.64 L401.94 243.82 L404.66 243.26 L409.11 247.54 L410.68 243.89 L412.34 240.33 L416.24 243.46 L418.55 241.79 L420.88 240.15 L423.94 240.95 L427.09 242.17 L428.16 235.89 L431.56 238.06 L434.52 238.75 L435.33 230.57 L439.14 234.78 L442.29 236.46 L444.28 232.77 L447.41 234.56 L449.69 232.01 L452.31 231.16 L454.62 228.44 L456.82 224.70 L459.45 223.39 L462.00 221.41 L464.46 218.45 L467.06 216.29 L470.04 217.24 L472.74 215.62 L475.44 213.75 L478.52 216.26 L481.47 217.75 L484.43 220.21 L487.37 223.12 L490.22 225.12 L493.05 228.20 L495.73 225.87 L498.48 227.48 L501.20 227.97 L503.98 224.21 L506.67 226.97 L509.39 227.40 L512.37 221.71 L515.07 223.38 L517.85 223.30 L521.03 217.94 L523.60 221.12 L526.15 223.91 L529.42 219.28 L532.31 218.85 L534.95 220.54 L538.75 213.47 L541.86 212.16 L544.80 212.22 L547.80 211.92 L550.30 214.58 L552.73 217.32 L554.88 221.29 L557.02 224.97 L559.42 227.17 L561.67 229.83 L565.64 225.17 L567.60 228.96 L570.45 229.09 L575.93 219.58 L577.24 225.62 L579.80 227.05 L584.48 221.41 L586.88 223.49 L588.72 227.18 L590.77 230.09 L593.42 231.15 L597.08 229.38 L599.21 231.91 L602.44 231.46 L607.31 226.93 L610.58 226.67 L613.49 227.35 L617.12 226.38 L619.53 228.28 L621.38 231.40 L623.59 233.64 L624.65 238.24 L626.67 240.70 L627.83 244.84 L629.31 248.21 L634.38 244.64 L634.74 250.06 L636.94 251.94 L643.42 246.24 L644.19 250.73 L646.24 252.93 L651.55 249.70 L655.68 248.58 L657.04 251.96 L660.18 252.52 L664.19 251.80 L665.91 254.57 L668.33 256.27 L669.04 260.41 L670.10 263.95 L672.59 265.47 L673.24 269.46 L673.37 274.03 L676.13 275.12 L679.36 275.65 L681.73 277.30 L684.38 278.60 L686.95 280.03 L689.49 281.51 L690.38 284.87 L695.95 282.98 L695.20 288.11 L697.55 289.82 L706.75 284.39 L707.91 287.48 L708.55 291.05 L712.67 291.14 L715.50 292.55 L717.55 294.73 L716.19 300.06 L721.12 299.56 L724.04 300.96 L726.82 302.51 L728.96 304.64 L731.93 306.08 L735.64 306.95 L737.26 309.55 L739.63 311.56 L740.05 315.09 L738.86 319.79 L739.65 322.92 L739.79 326.49 L739.35 330.44 L740.47 333.23 L742.35 335.49 L748.37 335.01 L745.90 340.17 L747.53 342.60 L755.19 341.30 L752.21 346.63 L752.98 349.60 L762.12 347.69 L761.93 351.29 L763.24 354.00 L770.25 353.63 L768.94 357.80 L767.50 361.97 L772.30 362.92 L773.01 365.97 L773.17 369.26 L781.32 368.81 L783.96 371.02 L785.73 373.64 L786.86 376.56 L786.53 380.08 L784.85 384.12 L782.97 388.17 L783.55 391.20 L782.46 394.85 L782.60 398.00 L787.77 399.38 L784.61 403.67 L784.15 406.98 L789.57 408.40 L787.31 412.27 L788.79 414.96 L792.82 416.95 L794.16 419.74 L797.25 422.08 L796.30 425.49 L793.59 429.28 L794.16 432.25 L794.83 435.19 L793.15 438.63 L796.17 441.08 L801.55 443.14 L801.55 446.26 L800.80 449.49 L805.09 451.90 L805.15 455.01 L798.90 458.98 L802.42 461.58 L805.47 464.29 L799.96 467.97 L801.67 470.84 L805.89 473.51 L801.12 476.96 L800.55 480.02 L806.52 482.70 L802.89 485.94 L802.60 488.99 L812.17 491.77 L806.83 494.98 L805.42 498.05 L814.73 501.14 L808.08 504.20 L803.94 507.18 L810.56 510.45 L805.56 513.34 L801.73 516.20 L806.91 519.55 L804.01 522.42 L802.58 525.36 L807.25 528.85 L807.76 532.01 L804.01 534.69 L808.33 538.31 L809.53 541.61 L802.98 543.82 L805.86 547.36 L809.57 551.11 L802.52 553.06 L803.15 556.30 L809.34 560.66 L802.28 562.42 L802.45 565.61 L810.66 570.65 L802.68 572.03 L801.01 574.82 L808.44 579.95 L801.76 581.45 L796.60 583.25 L803.00 588.32 L798.44 590.24 L793.77 592.04 L799.48 597.13 L796.31 599.39 L792.03 601.21 L797.66 606.51 L796.14 609.32 L790.18 610.43 L793.17 614.94 L792.42 618.03 L785.31 618.49 L785.81 622.06 L786.75 625.87 L782.04 627.18 L781.28 630.24 L785.09 635.48 L780.34 636.68 L777.71 638.85 L780.14 643.58 L777.53 645.77 L774.16 647.51 L778.88 653.67 L775.96 655.68 L770.67 656.28 L775.76 662.92 L769.77 663.04 L764.10 663.25 L767.71 669.20 L764.67 671.01 L760.45 671.99 L763.54 677.85 L761.92 680.59 L756.93 680.96 L758.91 686.26 L757.44 689.14 L751.49 688.67 L751.29 692.47 L750.88 696.17 L745.78 696.18 L743.25 698.17 L743.25 702.25 L738.42 702.30 L736.46 704.74 L737.85 710.14 L733.57 710.56 L731.75 713.15 L734.42 719.98 L729.26 719.49 L724.24 719.02 L725.63 724.83 L720.67 724.33 L717.03 725.09 L719.25 732.00 L716.48 733.70 L713.08 734.70 L716.44 743.24 L713.25 744.54 L707.53 742.83 L708.45 748.91 L706.12 751.19 L700.46 749.33 L699.76 753.62 L698.75 757.58 L692.91 755.25 L690.81 757.80 L690.67 763.07 L685.77 761.78 L683.49 764.13 L685.50 772.80 L679.97 770.45 L677.12 772.02 L679.30 781.48 L671.83 775.80 L667.43 774.83 L668.05 782.15 L662.17 778.58 L658.21 778.14 L658.28 784.86 L654.50 784.72 L650.90 784.85 L651.30 792.64 L647.80 793.02 L643.06 790.81 L643.01 798.21 L639.51 798.53 L634.45 795.37 L633.16 800.46 L630.92 803.57 L625.62 799.49 L623.30 802.39 L621.71 807.25 L616.77 803.61 L614.36 806.45 L613.86 814.68 L608.82 810.41 L605.81 811.80 L605.30 820.79 L599.74 814.45 L595.62 812.26 L594.51 820.01 L589.95 816.19 L585.76 813.33 L584.00 819.42 L580.40 818.64 L576.66 817.14 L575.01 824.49 L571.38 823.49 L567.52 821.24 L565.46 827.69 L561.77 826.15 L557.60 821.69 L554.95 825.64 L551.97 827.91 L548.00 823.82 L545.05 826.36 L542.35 831.26 L538.47 826.79 L535.27 827.85 L532.54 833.84 L528.94 831.13 L525.57 830.65 L522.81 839.13 L519.12 834.05 L515.66 831.87 L512.61 839.17 L509.04 832.71 L505.64 828.77 L502.40 834.97 L499.06 832.63 L495.77 829.70 L492.31 836.75 L488.98 835.44 L485.74 832.60 L482.09 838.67 L478.86 835.93 L475.84 831.12 L472.23 834.54 L468.80 835.13 L465.86 830.78 L462.29 832.81 L458.27 838.06 L454.98 836.91 L451.31 838.58 L447.51 840.75 L443.84 841.86 L440.32 841.89 L436.87 841.44 L433.34 841.38 L429.72 841.70 L426.48 840.20 L423.15 839.16 L419.74 838.46 L416.56 836.83 L413.15 836.15 L409.75 835.41 L406.00 835.96 L402.36 835.95 L398.98 835.06 L396.37 831.66 L393.21 830.17 L391.09 825.56 L388.81 821.64 L385.37 821.15 L383.45 816.52 L379.85 816.47 L374.73 820.28 L371.78 818.40 L367.74 819.18 L363.66 819.95 L359.97 819.70 L357.49 816.70 L354.47 814.97 L351.08 814.02 L348.27 811.85 L344.65 811.33 L342.60 807.70 L340.07 805.07 L334.89 807.44 L333.49 802.75 L332.13 798.12 L324.47 804.56 L322.33 801.28 L320.60 797.36 L314.96 799.89 L313.31 795.91 L311.99 791.49 L308.67 790.24 L305.50 788.72 L304.92 783.42 L300.71 783.43 L296.14 783.85 L295.36 779.00 L291.99 777.73 L289.85 774.82 L285.77 774.43 L283.24 772.01 L281.61 768.51 L275.39 770.58 L272.15 768.96 L268.87 767.37 L263.88 767.68 L260.66 765.92 L258.09 763.43 L254.82 761.69 L250.93 760.57 L247.40 759.03 L244.99 756.32 L242.61 753.59 L242.17 748.99 L241.53 744.66 L242.38 739.02 L241.43 735.13 L239.24 732.40 L239.28 727.73 L235.85 726.11 L231.61 725.13 L233.00 719.45 L228.97 718.26 L223.18 718.40 L223.37 713.79 L219.78 712.12 L215.33 711.05 L215.68 706.42 L214.66 702.83 L207.05 703.86 L206.32 700.04 L203.07 697.94 L194.83 699.05 L190.87 697.26 L188.80 694.22 L186.20 691.52 L185.02 687.94 L186.05 683.09 L184.53 679.77 L185.54 675.06 L188.18 669.52 L184.00 667.73 L182.94 664.24 L185.73 658.83 L180.87 657.30 L175.98 655.71 L176.37 651.55 L172.28 649.49 L169.21 646.91 L166.69 644.06 L167.58 639.75 L167.75 635.78 L162.28 634.09 L159.07 631.44 L158.53 627.74 L150.50 626.77 L147.43 623.91 L148.16 619.71 L148.13 615.81 L148.50 611.80 L150.96 607.19 L152.13 603.04 L150.93 599.61 L154.46 594.87 L154.85 591.07 L155.89 587.12 L154.36 583.84 L152.66 580.58 L154.60 576.50 L149.55 573.95 L146.21 570.97 L148.19 566.92 L146.60 563.57 L144.58 560.27 L143.00 556.87 L142.38 553.30 L141.39 549.79 L137.54 546.64 L136.36 543.10 L134.45 539.62 L137.44 535.63 L137.05 532.01 L131.60 528.78 L136.96 524.71 L140.05 520.89 L130.92 517.72 L134.21 513.89 L138.77 510.10 L133.61 506.58 L134.92 502.91 L139.33 499.27 L135.86 495.62 L134.20 491.94 L139.55 488.45 L134.26 484.62 L132.72 480.87 L136.97 477.45 L137.90 473.87 L137.52 470.20 L134.62 466.28 L138.10 462.94 L137.36 459.20 L130.18 454.64 L131.23 451.02 L128.64 446.90 L125.37 442.60 L126.21 438.90 L128.49 435.45 L130.62 432.01 L132.75 428.59 L137.61 425.77 L141.43 422.81 L142.18 419.22 L145.24 416.17 L147.02 412.86 L148.57 409.50 L147.72 405.52 L147.48 401.66 L151.30 398.96 L147.57 394.05 L148.00 390.33 L152.60 387.94 L150.54 383.40 L148.77 378.90 L153.43 376.61 L153.35 372.66 L153.74 368.86 L158.36 366.69 L159.66 363.26 L156.19 357.85 L157.58 354.41 L156.84 350.02 L153.33 344.34 L154.42 340.66 L155.85 337.12 L158.26 334.06 L162.24 331.80 L165.98 329.47 L169.69 327.18 L173.35 324.91 L176.94 322.66 L176.24 318.03 L176.94 314.15 L180.84 312.13 L175.47 304.57 L175.28 300.00 L179.02 297.85 L176.77 291.89 L177.14 287.53 L179.63 284.55 L185.82 284.12 L190.69 282.88 L192.34 279.41 L194.97 276.64 L199.80 275.54 L196.60 268.37 L195.29 262.51 L199.73 261.11 L198.91 255.50 L200.33 251.64 L204.47 250.05 L208.52 248.43 L212.14 246.49 L216.32 245.09 L219.60 242.92 L225.97 243.67 L226.28 238.78 L229.09 236.24 L235.11 236.89 L233.04 229.47 L235.01 226.04 L239.63 225.37 L240.63 220.89 L241.77 216.48 L242.02 211.01 L244.96 208.48 L246.28 204.07 L246.23 197.96 L250.03 196.36 L253.63 194.56 L260.05 196.36 L266.01 197.74 L269.03 195.39 L275.34 197.48 L279.15 196.31 L278.06 188.30 L281.48 186.52 L285.48 185.60 L286.20 179.82 L289.79 178.28 L295.48 180.05 L296.71 174.86 L300.15 173.12 L305.30 174.28 L303.92 164.40 L306.90 161.77 L311.09 161.29 L314.23 158.95 L317.54 156.90 L318.77 150.83 L324.00 152.45 L326.67 149.06 L326.70 140.09 L330.66 139.15 L332.65 133.90 L336.68 133.06 L340.88 132.65 L345.73 133.85 L350.07 133.97 L354.68 134.86 L359.62 136.74 L363.54 136.10 L367.22 134.85 L371.57 135.51 L374.83 133.07 L379.19 133.93 L381.87 129.65 L385.79 129.16 L390.86 132.61 L392.61 124.80 L396.99 125.99 L401.60 128.26 L403.81 121.35 L406.38 115.35 L410.41 115.21 L413.26 109.84 L416.79 107.21 L421.83 111.93 L425.92 112.24 L428.89 106.43 L433.71 110.91 L437.28 108.28 L440.54 103.22 L444.65 103.70 L448.80 104.53 L452.91 105.36 L456.96 105.87 L461.03 106.66 L465.26 109.60 L469.26 110.47 L473.37 113.32 L477.03 109.52 L480.97 110.03 L485.01 113.35 L488.66 105.86 L492.61 105.99 L496.53 104.22 L500.49 101.89 L504.50 99.57 L508.58 95.90 L512.47 100.96 L516.44 101.51 L520.61 98.15 L524.49 100.53 L528.54 100.03 L533.22 91.94 L537.19 93.48 L541.06 95.86 L544.96 97.49 L548.82 99.27 L552.23 104.31 L555.89 106.94 L559.97 106.51 L563.49 109.63 L567.29 110.91 L571.20 111.44 L576.04 107.25 L579.56 110.02 L582.55 115.04 L588.50 106.51 L592.00 109.24 L595.68 111.13 L600.99 106.52 L605.80 104.28 L610.23 103.61 L614.47 103.76 L619.04 102.90 L622.74 104.95 L626.26 107.53 L629.77 110.04 L632.13 115.80 L635.24 119.19 L639.70 118.75 L640.99 126.83 L644.57 128.63 L651.76 121.40 L653.64 127.53 L656.43 131.28 L662.11 128.27 L664.95 131.87 L666.78 137.52 L672.61 134.52 L675.52 137.80 L677.62 142.61 L686.64 133.69 L689.36 137.38 L691.83 141.43 L696.41 141.53 L699.32 144.70 L705.50 142.12 L706.23 149.01 L711.27 148.54 L718.33 144.88 L721.31 147.98 L726.77 147.18 L730.08 149.77 L732.79 153.26 L734.83 157.66 L737.57 160.99 L739.83 164.95 L741.03 170.28 L743.62 173.64 L746.90 176.05 L748.75 180.30 L752.31 182.34 L754.49 186.09 L761.12 184.41 L762.44 189.21 L763.00 194.79 L771.78 190.90 L771.95 196.88 L772.61 202.19 L781.31 198.78 L785.77 200.08 L788.04 203.69 L794.74 202.80 L797.89 205.57 L797.13 212.14 L799.92 215.20 L805.63 215.53 L805.59 221.21 L811.41 221.56 L816.92 222.29 L820.13 225.09 L821.88 229.13 L824.18 232.69 L825.85 236.74 L826.18 241.82 L828.23 245.49 L829.93 249.42 L829.92 254.59 L835.21 255.82 L836.65 259.89 L837.13 264.59 L847.41 262.55 L849.32 266.33 L851.10 270.20 L862.46 267.90 L864.80 271.51 L866.94 275.25 L869.04 279.01 L871.16 282.75 L873.20 286.54 L875.14 290.38 L877.17 294.17 L879.14 297.99 L880.94 301.90 L882.74 305.80 L884.52 309.70 L885.56 313.96 L886.30 318.35 L886.14 323.11 L884.71 328.41 L885.22 332.78 L886.31 336.87 L885.78 341.62 L892.53 343.42 L896.53 346.40 L898.95 350.04 L908.82 350.97 L910.43 355.02 L911.92 359.11 L913.21 363.27 L914.34 367.48 L915.53 371.66 L916.71 375.85 L917.91 380.03 L919.06 384.22 L920.10 388.44 L921.21 392.65 L922.21 396.88 L923.06 401.14 L923.68 405.46 L924.40 409.74 L924.29 414.19 L923.76 418.70 L922.32 423.34 L919.77 428.13 L919.18 432.54 L919.11 436.85 L917.48 441.36 L923.60 444.81 L926.69 448.74 L928.08 452.91 L937.66 456.28 L938.25 460.65 L938.81 465.02 L939.32 469.39 L939.78 473.78 L940.21 478.17 L940.58 482.56 L940.92 486.96 L941.21 491.37 L941.46 495.78 L941.65 500.00 L941.45 495.59 L941.20 491.17 L940.90 486.77 L940.57 482.37 L940.19 477.97 L939.76 473.58 L939.30 469.20 L938.78 464.82 L938.23 460.45 L937.63 456.09 L945.95 450.75 L945.74 446.25 L949.01 441.30 L952.25 436.27 L949.08 432.13 L948.64 427.60 L945.01 423.61 L941.21 419.71 L938.20 415.72 L935.38 411.75 L934.48 407.39 L933.72 403.01 L931.97 398.86 L929.86 394.81 L928.58 390.57 L926.80 386.46 L924.45 382.53 L922.88 378.40 L921.26 374.29 L919.19 370.33 L916.87 366.46 L914.50 362.64 L912.45 358.73 L910.68 354.73 L909.02 350.69 L915.52 343.60 L914.31 339.31 L916.24 333.75 L917.92 328.21 L914.15 324.90 L913.13 320.44 L908.32 317.66 L903.89 314.77 L900.84 311.29 L896.93 308.26 L895.13 304.23 L893.53 300.10 L890.60 296.65 L887.55 293.28 L885.13 289.60 L882.05 286.30 L878.57 283.24 L875.96 279.72 L873.28 276.25 L870.27 272.98 L867.05 269.88 L865.18 265.93 L870.42 257.31 L866.72 254.46 L863.50 251.32 L868.71 242.30 L863.65 240.39 L860.78 236.95 L860.04 231.94 L854.64 230.40 L851.82 226.95 L847.19 224.94 L842.40 223.11 L839.10 220.13 L836.23 216.80 L833.32 213.50 L832.23 208.61 L831.59 203.25 L829.84 198.83 L824.07 198.09 L822.65 193.33 L817.78 191.86 L810.52 192.82 L807.62 189.54 L807.61 183.28 L801.91 182.86 L799.51 179.01 L802.26 169.50 L795.48 170.35 L788.76 171.29 L792.45 160.30 L786.70 160.16 L782.04 158.83 L781.34 152.66 L776.73 151.27 L773.25 148.50 L767.77 148.35 L764.27 145.65 L759.68 144.44 L754.32 144.36 L750.01 142.89 L745.83 141.28 L741.09 140.55 L736.46 139.71 L732.52 137.88 L729.85 134.02 L724.94 133.77 L724.85 125.57 L721.99 121.82 L715.43 124.44 L713.69 118.68 L709.24 117.72 L706.10 114.34 L700.76 115.13 L695.90 115.10 L697.34 102.49 L691.66 104.04 L687.17 103.25 L684.92 97.64 L679.00 100.02 L674.24 99.97 L671.84 94.47 L666.72 95.32 L661.03 97.76 L660.29 87.71 L655.77 87.15 L650.01 90.05 L646.52 86.85 L641.36 88.38 L636.05 90.56 L631.30 91.23 L626.45 92.37 L621.73 93.27 L617.59 92.29 L613.05 92.77 L608.64 92.92 L605.09 89.80 L602.68 81.84 L597.95 83.15 L593.59 83.03 L591.86 70.69 L586.78 73.64 L582.24 74.20 L578.72 69.33 L574.46 68.30 L570.03 68.25 L565.30 70.25 L561.09 68.98 L556.41 71.17 L551.67 74.34 L547.24 75.37 L542.89 75.94 L538.45 77.68 L534.07 79.30 L530.39 71.51 L526.05 72.02 L521.65 74.14 L517.53 70.59 L513.18 72.19 L508.80 76.91 L504.61 73.39 L500.34 71.98 L496.04 70.15 L491.73 69.57 L487.44 70.10 L482.86 63.10 L478.72 67.92 L474.43 68.58 L469.90 65.73 L465.82 69.31 L461.63 70.97 L457.72 75.21 L453.63 77.11 L449.51 78.44 L445.41 79.83 L441.34 81.31 L437.01 80.93 L432.18 77.62 L427.91 77.99 L424.55 83.51 L419.77 81.02 L416.17 84.75 L413.36 91.90 L408.99 91.47 L403.93 88.20 L400.52 92.07 L395.30 88.58 L389.55 83.46 L386.73 89.45 L383.12 92.33 L376.90 86.28 L374.19 92.14 L370.21 93.70 L365.36 92.61 L362.05 96.22 L357.91 97.31 L355.06 101.94 L350.96 103.09 L347.88 106.88 L345.07 111.20 L342.32 115.53 L339.38 119.26 L336.33 122.62 L333.56 126.50 L330.19 128.95 L324.96 127.41 L321.92 130.59 L314.72 125.29 L310.42 126.06 L308.56 131.56 L302.82 129.61 L299.16 131.66 L295.32 133.40 L292.99 137.78 L288.68 138.67 L280.83 133.71 L279.36 139.48 L275.76 141.71 L270.77 141.74 L269.77 147.99 L266.77 151.07 L261.20 150.35 L258.63 154.07 L255.44 156.86 L248.15 154.01 L245.91 158.16 L244.97 163.97 L241.79 166.75 L241.24 172.86 L241.00 179.19 L239.05 183.32 L237.06 187.32 L231.73 187.38 L228.47 189.91 L225.36 192.62 L221.45 194.45 L217.35 196.12 L212.15 196.66 L212.01 202.52 L207.89 204.25 L199.72 202.00 L200.28 208.45 L197.35 211.42 L192.70 212.80 L193.45 219.19 L191.49 223.02 L191.09 228.19 L189.63 232.37 L189.11 237.30 L188.50 242.07 L184.86 244.33 L179.82 245.51 L179.20 250.20 L172.13 249.93 L165.40 250.05 L166.09 255.73 L164.16 259.43 L161.86 262.86 L162.76 268.49 L164.66 274.70 L163.57 278.81 L159.30 280.86 L152.71 281.49 L152.88 286.42 L148.16 288.34 L139.89 288.24 L140.35 293.32 L137.04 296.22 L133.43 298.98 L133.29 303.65 L133.31 308.36 L134.13 313.41 L134.14 318.01 L134.59 322.77 L133.59 326.79 L131.92 330.48 L129.26 333.73 L123.02 335.44 L120.34 338.77 L119.22 342.77 L113.66 344.98 L112.07 348.83 L114.20 354.08 L111.86 357.62 L108.90 360.95 L112.49 366.58 L109.24 369.82 L104.90 372.74 L108.10 378.09 L106.32 381.84 L100.84 384.53 L102.57 389.33 L100.14 392.95 L98.29 396.74 L97.96 400.94 L98.64 405.35 L100.94 410.09 L99.95 414.07 L102.97 418.86 L106.06 423.59 L107.60 427.95 L108.56 432.16 L109.36 436.32 L110.08 440.43 L105.84 443.81 L102.69 447.41 L103.16 451.51 L95.03 454.62 L93.81 458.59 L96.44 462.93 L94.03 466.80 L93.51 470.85 L93.63 474.94 L98.60 479.27 L95.85 483.18 L91.15 487.08 L96.43 491.28 L94.54 495.30 L92.22 499.35 L95.86 503.40 L98.05 507.40 L93.84 511.54 L98.40 515.43 L101.44 519.31 L93.55 523.77 L97.79 527.56 L101.73 531.29 L98.13 535.62 L99.84 539.51 L103.80 543.12 L103.63 547.15 L103.91 551.14 L102.11 555.43 L103.25 559.32 L103.98 563.26 L105.18 567.13 L105.31 571.17 L105.33 575.25 L109.14 578.58 L106.40 583.24 L103.22 588.06 L106.54 591.47 L106.54 595.62 L107.70 599.51 L110.69 602.90 L113.04 606.43 L119.14 608.86 L120.48 612.60 L124.11 615.62 L128.66 618.30 L132.61 621.10 L135.59 624.17 L138.77 627.13 L138.03 631.48 L133.44 637.31 L136.31 640.40 L136.32 644.59 L134.25 649.66 L138.17 652.30 L142.24 654.82 L143.39 658.57 L143.61 662.76 L142.73 667.50 L146.93 669.86 L145.24 675.06 L144.04 680.10 L150.50 681.25 L152.84 684.46 L152.70 689.01 L159.09 689.98 L164.40 691.44 L166.90 694.46 L171.54 696.18 L173.93 699.20 L175.10 702.98 L176.41 706.68 L176.13 711.45 L172.53 718.50 L174.84 721.69 L178.57 723.89 L176.15 730.42 L180.74 732.00 L185.61 733.30 L185.47 738.32 L187.31 741.88 L192.99 742.44 L191.96 748.29 L193.03 752.53 L199.98 751.89 L200.51 756.59 L202.03 760.50 L206.98 761.39 L209.57 764.34 L214.59 765.04 L220.67 764.65 L225.58 765.25 L230.38 765.88 L233.47 768.13 L236.57 770.37 L238.58 773.73 L240.62 777.10 L242.96 780.15 L245.95 782.52 L248.31 785.59 L249.18 790.41 L251.74 793.32 L254.09 796.51 L253.89 802.86 L258.45 803.40 L262.21 804.88 L264.07 808.81 L267.88 810.21 L270.68 812.95 L276.17 811.95 L277.50 816.73 L279.47 820.70 L285.36 818.92 L288.24 821.54 L291.34 823.83 L296.58 822.75 L300.78 823.19 L301.88 828.72 L306.78 827.97 L310.64 828.90 L309.54 838.60 L314.81 837.07 L319.55 836.37 L321.19 841.47 L325.51 841.49 L330.09 840.90 L333.17 843.27 L337.20 843.67 L340.76 845.04 L344.90 845.09 L349.43 844.19 L353.25 844.80 L355.79 848.47 L358.46 851.92 L362.60 851.74 L363.72 859.46 L366.76 862.32 L371.57 860.32 L374.80 862.70 L379.70 860.13 L384.57 857.40 L388.46 857.55 L392.89 855.83 L396.56 856.52 L399.96 858.14 L403.42 859.61 L407.21 859.82 L410.96 860.11 L414.78 860.07 L418.52 860.33 L422.34 860.11 L425.96 860.81 L429.36 862.64 L433.04 863.03 L436.72 863.45 L440.20 864.98 L443.91 865.23 L447.03 869.47 L450.37 872.71 L454.49 869.97 L457.55 876.10 L461.01 879.44 L465.38 873.60 L468.98 875.68 L472.48 879.48 L476.68 873.32 L480.48 872.16 L483.92 879.13 L487.89 873.82 L491.66 872.51 L495.28 880.59 L499.10 877.73 L502.86 875.60 L506.72 881.70 L510.43 877.74 L513.97 871.21 L518.01 877.97 L521.57 874.08 L525.10 870.70 L529.44 878.58 L533.01 875.79 L536.38 871.55 L540.68 876.53 L544.28 874.72 L547.03 866.52 L551.35 870.76 L555.35 872.27 L558.19 866.13 L562.25 867.94 L566.48 870.35 L569.01 863.53 L572.53 862.26 L577.32 867.06 L580.15 862.48 L583.38 859.96 L588.59 865.81 L591.34 861.31 L594.08 857.08 L599.35 862.32 L601.58 856.45 L603.41 849.59 L609.45 856.84 L611.88 852.15 L613.03 843.82 L619.19 850.70 L622.55 849.09 L623.68 841.35 L629.92 847.68 L633.81 847.45 L634.86 839.99 L640.01 842.93 L644.00 842.87 L644.73 835.17 L649.18 836.20 L653.89 837.67 L654.60 830.45 L657.84 828.76 L663.55 832.10 L664.92 826.60 L667.90 824.40 L674.06 828.22 L676.15 824.28 L678.62 821.12 L684.38 823.83 L685.39 818.14 L685.76 811.58 L692.37 815.45 L693.07 809.60 L691.83 800.86 L699.71 806.41 L701.92 803.14 L700.52 794.61 L708.53 799.88 L712.20 798.74 L711.99 792.21 L718.14 794.45 L721.99 793.47 L721.47 786.77 L725.62 786.19 L729.71 785.45 L728.23 777.88 L731.88 776.64 L737.64 777.82 L736.32 770.74 L738.75 768.07 L746.20 770.93 L746.79 766.18 L748.78 763.01 L756.46 765.75 L757.89 761.94 L757.83 756.69 L764.44 758.06 L764.23 752.74 L762.34 745.96 L768.67 746.90 L770.23 743.39 L769.04 737.49 L775.99 738.76 L778.61 736.19 L777.72 730.71 L782.76 730.15 L784.58 726.94 L782.09 720.37 L786.12 718.95 L789.72 717.14 L786.72 710.45 L790.24 708.60 L795.99 708.28 L794.50 702.86 L796.64 699.99 L803.51 700.23 L802.98 695.57 L802.59 691.05 L809.24 690.96 L807.43 685.62 L804.55 679.75 L812.05 679.99 L809.71 674.53 L811.23 671.32 L818.93 671.42 L818.29 666.99 L817.91 662.76 L823.25 661.44 L822.79 657.20 L818.34 651.11 L824.90 650.26 L826.81 647.19 L822.72 641.49 L827.34 639.63 L830.13 636.93 L825.05 631.03 L828.08 628.45 L833.18 626.62 L828.60 621.14 L830.47 618.09 L837.74 616.89 L834.45 612.02 L832.57 607.70 L840.34 606.47 L836.89 601.70 L833.93 597.18 L842.29 595.91 L838.55 591.22 L833.93 586.40 L843.11 585.12 L841.78 581.18 L834.99 576.03 L844.54 574.58 L845.40 571.16 L839.81 566.48 L847.02 564.29 L847.20 560.74 L841.98 556.31 L846.97 553.57 L849.12 550.33 L842.69 545.91 L845.43 542.77 L849.45 539.72 L845.45 535.77 L848.12 532.53 L852.57 529.40 L850.14 525.67 L848.43 522.05 L853.48 518.82 L848.46 515.06 L843.29 511.40 L850.67 508.13 L845.87 504.56 L839.44 501.08 L848.54 497.62 L845.49 494.19 L838.21 490.93 L847.05 487.22 L846.43 483.77 L841.09 480.60 L847.47 476.75 L847.52 473.25 L841.47 470.28 L845.08 466.49 L845.73 462.93 L837.94 460.34 L840.76 456.55 L843.58 452.70 L835.91 450.33 L834.85 447.06 L835.92 443.44 L832.57 440.58 L830.49 437.53 L833.98 433.41 L836.70 429.36 L835.36 426.13 L835.99 422.46 L835.29 419.08 L831.01 416.60 L827.54 413.98 L825.51 411.03 L823.96 407.96 L826.84 403.60 L825.04 400.59 L820.70 398.39 L825.64 393.24 L822.86 390.56 L818.10 388.62 L820.84 384.04 L817.81 381.53 L815.25 378.88 L812.39 376.38 L807.74 374.64 L804.59 372.36 L802.15 369.82 L800.91 366.77 L800.54 363.32 L801.92 359.04 L804.60 354.06 L800.83 352.14 L798.08 349.78 L798.62 345.74 L793.24 344.79 L788.60 343.53 L792.30 337.72 L789.24 335.61 L784.63 334.44 L791.08 326.77 L787.82 324.80 L779.82 325.81 L785.70 318.16 L784.06 315.19 L778.12 315.06 L780.60 309.34 L778.50 306.67 L776.23 304.12 L772.35 302.75 L769.17 300.92 L765.19 299.73 L760.58 299.09 L757.14 297.61 L753.37 296.44 L750.75 294.39 L749.65 291.08 L747.99 288.22 L745.83 285.78 L744.26 282.81 L742.99 279.54 L743.74 274.38 L737.52 275.68 L735.55 273.04 L733.43 270.54 L733.08 266.26 L728.78 265.94 L724.44 265.73 L729.30 255.82 L726.82 253.57 L721.31 254.68 L722.22 248.66 L717.88 248.55 L716.31 245.25 L713.55 243.34 L711.03 241.15 L708.34 239.17 L706.62 235.95 L704.50 233.20 L699.09 234.81 L695.38 234.26 L692.25 232.96 L687.70 233.71 L683.31 234.33 L680.20 233.17 L676.26 233.29 L675.22 229.02 L672.51 227.27 L667.74 228.84 L666.20 225.23 L666.56 218.31 L662.72 218.41 L657.65 220.78 L659.67 210.48 L656.52 209.36 L651.46 211.88 L650.92 205.81 L646.68 206.88 L642.72 207.52 L638.48 208.86 L634.12 210.61 L630.66 210.51 L626.46 212.17 L623.45 211.22 L620.94 209.08 L617.84 208.35 L615.21 206.44 L614.35 199.85 L611.80 197.46 L607.87 198.88 L605.93 194.72 L602.52 194.70 L598.85 195.58 L594.91 197.45 L591.48 197.83 L590.43 190.16 L586.94 190.65 L582.61 194.38 L581.99 184.15 L578.69 183.92 L574.74 186.41 L572.73 180.73 L568.98 182.56 L565.52 183.28 L561.54 186.73 L557.76 189.62 L554.37 190.67 L550.95 192.06 L547.96 190.99 L545.05 189.25 L542.28 186.36 L539.84 180.29 L536.42 181.85 L533.30 180.95 L530.40 177.50 L526.87 180.77 L523.50 182.95 L520.58 178.83 L517.32 179.39 L514.05 180.70 L511.04 175.13 L507.75 176.76 L504.49 179.19 L501.29 175.23 L498.05 176.38 L494.84 177.82 L491.56 175.80 L488.46 179.64 L485.36 182.05 L482.42 186.41 L479.46 189.27 L476.50 191.48 L473.77 195.80 L470.57 194.44 L467.45 194.15 L464.58 196.10 L461.36 195.02 L457.95 192.75 L454.72 192.09 L451.55 191.96 L447.80 188.49 L444.45 187.68 L441.42 188.70 L437.90 187.25 L435.24 190.14 L431.62 188.40 L429.22 192.18 L427.24 197.44 L422.37 190.86 L419.93 194.12 L417.68 197.88 L413.19 193.53 L410.81 196.70 L408.18 198.92 L405.11 199.67 L402.07 200.48 L400.61 206.03 L396.51 203.69 L393.00 203.21 L391.92 209.36 L388.82 209.92 L385.90 211.00 L383.74 213.93 L381.12 215.66 L378.64 217.71 L375.82 218.93 L373.41 221.04 L369.98 220.95 L368.26 224.48 L365.72 226.23 L360.10 221.86 L358.56 225.66 L356.01 227.44 L349.66 222.19 L347.71 225.18 L345.86 228.29 L341.78 227.47 L341.15 232.59 L339.51 235.88 L338.81 240.61 L338.46 245.75 L337.60 249.95 L336.08 253.07 L334.13 255.46 L331.67 257.10 L328.82 258.19 L326.22 259.65 L323.38 260.80 L320.36 261.73 L318.41 264.09 L316.26 266.17 L313.49 267.47 L311.80 270.11 L309.30 271.75 L306.67 273.26 L300.75 270.99 L298.69 273.24 L297.00 275.89 L289.76 272.52 L289.25 276.48 L291.12 282.86 L284.24 280.15 L283.54 283.81 L287.16 291.64 L280.09 288.98 L277.83 291.04 L278.93 296.20 L273.60 295.43 L269.80 296.14 L270.16 300.53 L266.91 301.76 L263.84 303.19 L266.09 308.99 L264.01 311.19 L259.56 311.55 L261.95 317.23 L258.68 318.53 L252.47 317.70 L252.15 321.26 L251.27 324.38 L244.92 323.69 L246.32 328.39 L247.88 333.09 L241.65 332.66 L244.27 337.97 L248.01 343.84 L240.65 342.85 L241.61 346.94 L247.29 353.70 L239.24 352.50 L237.01 354.69 L241.35 360.45 L234.93 360.39 L231.84 362.17 L234.92 367.09 L230.30 368.13 L227.68 370.20 L231.42 375.26 L228.21 377.07 L224.26 378.58 L228.93 383.86 L228.43 386.85 L221.55 387.24 L223.55 391.25 L224.77 394.90 L217.32 395.28 L218.73 398.99 L220.83 402.89 L214.56 403.89 L217.38 407.98 L221.58 412.41 L213.86 413.12 L215.40 416.69 L220.98 421.34 L212.52 422.05 L212.02 425.00 L216.42 429.17 L209.64 430.55 L209.03 433.47 L211.57 437.08 L208.59 439.48 L207.54 442.30 L211.82 446.14 L210.23 448.83 L207.61 451.38 L213.42 455.29 L213.75 458.26 L207.45 460.33 L212.23 463.91 L214.65 467.10 L206.82 469.17 L209.49 472.38 L212.29 475.55 L205.31 477.92 L207.44 481.02 L212.48 484.23 L205.64 486.81 L208.23 489.85 L215.26 492.94 L207.56 495.68 L208.25 498.61 L215.27 501.49 L208.52 504.44 L208.06 507.36 L214.28 510.07 L209.93 513.13 L207.66 516.16 L211.21 518.86 L207.98 522.01 L205.34 525.17 L208.74 527.82 L210.02 530.63 L207.25 533.88 L212.61 536.18 L216.62 538.56 L211.67 542.17 L215.07 544.59 L219.08 546.84 L211.85 551.01 L215.31 553.34 L221.00 555.17 L213.20 559.70 L218.11 561.62 L225.02 563.00 L218.29 567.52 L221.31 569.74 L227.22 571.17 L220.91 575.81 L221.82 578.55 L227.24 579.98 L224.35 583.83 L224.38 586.84 L231.07 587.70 L230.10 591.01 L229.04 594.39 L235.96 594.96 L234.49 598.49 L230.19 603.17 L233.84 604.84 L232.93 608.29 L231.07 612.19 L235.31 613.54 L238.43 615.32 L236.92 619.14 L243.10 619.45 L248.93 619.81 L243.35 625.63 L247.93 626.53 L255.89 625.61 L250.16 631.73 L251.69 634.11 L256.79 634.52 L253.00 639.86 L254.11 642.50 L258.76 643.04 L257.37 647.17 L259.15 649.40 L265.69 648.61 L264.73 652.54 L264.04 656.36 L271.52 654.71 L271.71 657.94 L269.39 662.98 L274.71 662.62 L278.15 663.53 L274.81 669.50 L278.95 669.87 L283.34 669.97 L279.90 676.25 L284.32 676.28 L289.51 675.58 L285.58 682.53 L290.32 682.14 L296.72 680.17 L292.14 687.98 L295.41 688.78 L301.12 687.23 L296.13 695.80 L299.01 696.94 L304.01 695.92 L302.83 701.08 L305.46 702.42 L311.49 700.10 L311.99 703.61 L313.63 705.93 L319.46 703.54 L320.23 706.81 L319.72 711.63 L324.89 709.78 L327.70 710.65 L326.34 716.71 L330.72 715.62 L334.32 715.44 L332.80 721.98 L337.21 720.68 L341.39 719.57 L339.36 727.14 L344.28 724.92 L349.21 722.52 L346.99 730.73 L350.24 730.81 L355.66 727.40 L352.98 736.82 L356.14 736.98 L361.55 733.31 L361.63 738.57 L364.06 739.88 L369.26 736.18 L369.95 740.57 L370.89 744.65 L374.67 743.35 L376.31 746.19 L377.68 749.65 L382.06 746.94 L386.21 744.52 L389.43 743.94 L393.15 742.13 L397.30 739.19 L398.39 743.33 L401.33 743.09 L402.23 747.96 L404.32 749.96 L408.07 747.55 L410.39 748.90 L413.47 748.09 L417.04 745.73 L419.97 745.12 L422.24 746.50 L424.76 747.09 L427.08 748.36 L429.24 750.22 L431.79 750.77 L434.58 750.38 L437.26 750.32 L440.22 749.06 L443.02 748.32 L445.83 747.40 L448.71 745.98 L451.27 745.96 L453.96 745.25 L456.29 746.39 L458.60 747.76 L460.88 749.40 L462.53 755.57 L465.17 755.33 L467.23 759.58 L469.70 761.04 L472.37 760.69 L474.81 762.72 L477.75 759.36 L480.38 759.05 L483.15 756.56 L485.88 753.83 L488.49 752.44 L491.05 751.47 L493.56 751.77 L496.08 751.89 L498.60 751.79 L501.11 751.63 L503.61 750.54 L506.11 750.12 L508.56 748.46 L510.99 747.19 L513.44 746.78 L515.81 745.04 L518.30 745.39 L520.90 746.91 L523.42 747.33 L526.47 752.54 L528.97 752.11 L531.98 755.71 L534.64 756.11 L537.12 755.25 L539.92 756.43 L541.83 752.10 L544.71 753.73 L547.37 753.95 L549.25 750.12 L552.29 752.23 L555.17 753.32 L557.27 750.87 L560.38 752.82 L562.88 752.13 L564.83 749.29 L567.27 748.43 L569.96 748.51 L571.74 745.37 L573.24 741.53 L576.12 742.26 L577.76 739.12 L579.13 735.29 L582.03 736.08 L584.26 734.89 L587.15 735.52 L588.74 732.63 L592.43 735.22 L594.94 734.67 L596.92 732.86 L599.88 733.35 L600.99 729.57 L602.91 727.73 L603.90 723.93 L605.26 721.04 L606.75 718.52 L608.32 716.22 L610.74 715.63 L612.99 714.71 L614.97 713.26 L616.88 711.72 L618.99 710.53 L622.08 711.05 L623.96 709.43 L625.98 708.08 L628.60 707.69 L631.23 707.27 L635.05 708.66 L635.32 704.57 L637.02 702.69 L639.85 702.49 L640.50 699.14 L641.22 695.98 L643.41 694.87 L646.04 694.35 L646.71 691.22 L648.12 689.12 L648.70 686.00 L649.57 683.29 L651.50 681.92 L653.76 680.92 L657.38 681.47 L663.51 684.77 L666.17 684.04 L666.18 680.39 L672.05 683.06 L672.95 680.36 L671.61 675.41 L674.79 675.13 L678.78 675.58 L677.20 670.58 L680.51 670.32 L684.85 670.96 L682.95 665.83 L684.45 663.86 L689.35 664.86 L688.28 660.65 L687.99 657.18 L689.53 655.28 L688.20 651.07 L687.01 647.06 L685.35 642.78 L684.45 639.17 L685.40 637.00 L686.26 634.77 L688.21 633.34 L690.26 631.95 L692.98 631.00 L694.06 628.92 L697.96 628.68 L701.41 628.07 L701.60 625.38 L708.20 626.61 L709.53 624.56 L709.56 621.76 L710.19 619.34 L711.35 617.22 L712.81 615.26 L710.25 611.17 L713.37 610.10 L718.61 610.05 L715.96 606.02 L715.33 603.05 L718.60 601.95 L716.59 598.38 L715.08 595.11 L720.83 595.03 L719.15 591.72 L718.09 588.72 L726.34 589.45 L724.55 586.16 L720.63 582.13 L724.22 580.92 L724.56 578.52 L723.10 575.51 L723.27 573.09 L724.03 570.87 L723.88 568.36 L722.02 565.38 L719.85 562.36 L719.28 559.83 L721.46 558.05 L725.09 556.61 L724.96 554.19 L730.71 553.14 L736.30 551.94 L733.82 548.95 L732.39 546.23 L732.98 543.93 L729.43 540.89 L725.17 537.81 L722.46 535.07 L722.03 532.73 L721.07 530.34 L720.86 528.06 L723.00 526.07 L723.24 523.84 L721.23 521.39 L724.85 519.47 L729.97 517.60 L728.15 515.16 L728.76 512.91 L734.95 510.90 L732.52 508.46 L729.47 506.05 L732.63 503.81 L733.18 501.49 L733.81 499.15 L731.00 496.85 L733.53 494.48 L736.36 492.05 L730.27 489.95 L732.52 487.52 L733.91 485.10 L732.17 482.87 L731.81 480.57 L728.36 478.56 L727.29 476.36 L725.91 474.22 L723.41 472.24 L721.22 470.26 L721.50 467.96 L725.80 465.04 L724.72 462.90 L720.67 461.30 L723.67 458.46 L719.83 456.89 L715.26 455.55 L719.27 452.43 L720.32 449.89 L720.23 447.59 L724.93 444.09 L726.72 441.23 L720.96 440.36 L720.21 438.19 L722.84 435.04 L717.07 434.37 L717.58 431.83 L718.21 429.23 L715.73 427.64 L714.49 425.66 L709.83 424.92 L709.45 422.68 L706.25 421.51 L702.52 420.60 L702.81 418.14 L704.45 415.09 L702.78 413.40 L703.38 410.72 L703.79 408.10 L702.22 406.37 L698.71 405.57 L701.64 401.69 L699.28 400.36 L697.91 398.56 L699.39 395.27 L697.95 393.49 L697.64 391.10 L692.30 391.52 L694.30 387.81 L696.10 384.15 L690.13 385.09 L691.62 381.56 L690.42 379.65 L688.20 378.41 L685.80 377.31 L685.45 374.85 L685.09 372.39 L683.98 370.42 L685.42 366.61 L681.55 366.62 L677.90 366.54 L675.75 365.38 L671.48 365.91 L669.12 365.01 L667.82 363.28 L664.66 363.09 L664.20 360.67 L661.40 360.25 L657.81 360.57 L658.63 357.00 L657.75 354.91 L658.50 351.26 L656.27 350.39 L657.89 345.79 L657.52 343.04 L651.48 346.00 L653.01 341.31 L652.15 339.01 L649.34 338.78 L646.89 338.22 L643.60 338.62 L641.22 338.06 L638.38 338.08 L634.93 338.88 L631.03 340.32 L629.52 338.90 L626.74 339.10 L624.35 338.84 L623.30 336.85 L622.12 335.00 L621.28 332.66 L620.76 329.83 L618.78 329.03 L617.55 327.14 L616.45 325.02 L615.57 322.50 L614.70 319.94 L611.08 321.71 L611.62 316.77 L611.09 313.47 L606.95 316.27 L606.87 312.11 L605.06 310.92 L603.54 309.19 L600.82 309.68 L597.21 311.98 L596.50 308.68 L593.88 309.16 L590.51 311.27 L589.91 307.61 L588.75 305.03 L587.78 301.92 L586.08 300.39 L584.37 298.85 L583.44 295.37 L580.14 297.69 L577.56 298.34 L576.13 295.99 L573.66 296.43 L570.99 297.48 L569.71 294.57 L567.56 294.18 L564.22 297.53 L562.80 294.94 L560.86 293.91 L558.00 296.11 L556.88 292.19 L554.18 293.97 L551.83 294.60 L549.41 295.58 L546.31 299.64 L545.00 296.03 L543.05 295.19 L540.47 297.42 L538.96 294.26 L536.90 293.90 L535.00 292.61 L532.69 293.69 L530.49 294.35 L528.83 291.15 L526.53 292.51 L524.68 290.32 L522.57 290.20 L520.21 292.71 L518.23 291.40 L516.14 291.22 L513.92 293.01 L511.58 297.64 L509.78 292.74 L507.75 291.66 L505.54 296.05 L503.57 292.21 L501.48 292.89 L499.41 291.98 L497.34 292.72 L495.28 293.19 L493.17 292.19 L491.11 292.46 L488.93 290.67 L486.88 291.41 L484.93 293.46 L482.89 293.97 L480.71 292.85 L478.89 295.43 L476.84 295.63 L474.83 296.15 L472.84 296.71 L471.46 301.52 L469.61 302.73 L467.45 301.88 L465.56 302.72 L463.42 302.14 L461.57 303.17 L458.45 297.96 L456.66 299.45 L454.83 300.68 L452.30 298.86 L451.30 303.41 L449.05 302.79 L447.66 305.48 L446.87 310.13 L444.81 310.11 L443.37 312.18 L442.15 314.85 L441.08 317.83 L439.64 319.57 L438.26 321.42 L436.77 322.85 L434.95 323.36 L433.12 323.84 L431.32 324.40 L429.44 324.80 L427.71 325.53 L425.85 326.00 L424.05 326.60 L420.62 323.60 L418.23 323.03 L417.70 326.47 L413.16 321.51 L410.86 321.36 L411.77 327.52 L408.35 325.18 L405.49 324.01 L406.92 330.75 L404.38 330.19 L400.50 327.35 L401.58 333.10 L399.88 334.04 L395.23 330.20 L395.55 334.45 L395.11 337.38 L389.99 333.12 L391.00 338.20 L392.07 343.19 L386.59 338.72 L387.63 343.54 L390.05 350.10 L383.33 344.23 L382.53 346.38 L383.00 350.12 L376.50 345.02 L376.20 347.79 L376.22 350.88 L371.97 348.86 L371.75 351.64 L374.37 357.58 L371.08 356.76 L368.56 356.87 L371.93 363.30 L369.94 363.94 L365.60 362.18 L367.93 367.25 L367.43 369.38 L360.95 365.72 L362.15 369.52 L363.10 372.98 L356.51 369.52 L358.03 373.47 L360.04 377.75 L352.86 374.05 L354.98 378.36 L358.65 383.82 L351.22 380.19 L351.48 382.83 L355.96 388.68 L348.78 385.53 L347.65 387.05 L351.24 392.00 L345.81 390.40 L344.55 391.82 L348.42 396.75 L344.02 396.02 L341.39 396.55 L346.26 401.90 L342.07 401.43 L337.92 401.08 L342.07 405.77 L339.71 406.52 L333.44 405.08 L336.81 409.15 L337.65 411.74 L331.12 410.36 L334.91 414.48 L337.77 418.01 L331.43 416.91 L334.83 420.63 L339.07 424.64 L330.37 422.62 L331.33 425.09 L336.84 429.48 L327.88 427.64 L327.69 429.58 L332.42 433.46 L326.86 433.25 L326.23 435.00 L330.87 438.65 L327.03 439.21 L325.60 440.66 L330.96 444.36 L327.77 445.22 L324.25 446.03 L329.23 449.42 L324.64 449.96 L318.78 450.24 L324.03 453.57 L323.34 455.27 L318.07 455.87 L323.33 459.01 L326.52 461.58 L319.72 461.96 L321.46 464.19 L322.68 466.27 L316.08 466.92 L316.71 468.92 L321.69 471.60 L316.85 472.70 L318.36 474.78 L324.45 477.41 L318.14 478.45 L318.85 480.37 L324.72 482.77 L319.55 484.09 L318.99 485.86 L325.69 488.13 L322.13 489.68 L319.18 491.32 L323.70 493.30 L321.46 495.01 L317.89 496.73 L320.90 498.57 L322.30 500.36 L318.41 502.19 L323.10 503.90 L327.86 505.52 L321.56 507.51 L326.46 509.04 L331.63 510.46 L323.14 512.76 L325.98 514.31 L330.65 515.63 L322.67 518.16 L325.52 519.63 L329.88 520.86 L323.83 523.40 L326.28 524.84 L333.16 525.56 L328.05 528.11 L327.96 529.89 L336.05 530.18 L333.20 532.43 L329.52 534.92 L336.12 535.28 L334.40 537.39 L329.77 540.22 L334.06 540.97 L335.11 542.46 L331.16 545.28 L335.83 545.80 L340.24 546.29 L333.56 550.04 L338.83 550.22 L343.33 550.54 L336.13 554.68 L339.01 555.51 L343.80 555.61 L337.72 559.61 L339.01 560.97 L344.89 560.52 L339.38 564.53 L341.35 565.59 L348.39 564.46 L343.88 568.23 L344.24 569.94 L351.83 568.32 L348.12 571.88 L346.97 574.31 L352.04 573.68 L349.97 576.60 L347.04 580.03 L351.02 579.85 L352.83 580.79 L349.54 584.56 L354.87 583.49 L359.38 582.78 L354.96 587.34 L359.87 586.31 L364.37 585.42 L358.17 591.31 L362.32 590.61 L366.99 589.45 L361.07 595.46 L363.48 595.83 L368.60 594.21 L363.71 599.80 L365.98 600.21 L371.99 597.73 L368.57 602.43 L369.79 603.59 L376.45 600.32 L373.70 604.67 L373.18 607.26 L378.93 604.49 L376.39 608.86 L373.31 613.84 L377.54 612.28 L378.52 613.63 L376.32 618.04 L381.61 615.27 L385.72 613.51 L383.41 618.15 L387.04 616.78 L389.25 616.81 L385.71 622.99 L387.43 623.59 L391.20 621.88 L388.90 626.99 L391.88 626.11 L397.36 622.17 L395.26 627.23 L398.05 626.40 L403.35 622.30 L400.50 628.54 L402.22 628.95 L407.61 624.41 L405.76 629.59 L406.06 631.93 L410.08 629.00 L409.44 632.72 L409.60 635.37 L412.76 633.52 L413.87 634.74 L413.85 637.79 L418.22 633.77 L420.86 632.40 L419.41 637.94 L423.62 633.79 L427.35 630.27 L424.30 638.98 L427.46 636.40 L431.32 632.33 L428.39 641.40 L431.01 639.68 L434.47 636.09 L432.98 642.82 L434.94 642.33 L438.75 637.62 L437.84 643.50 L439.58 643.40 L444.06 636.56 L443.54 641.86 L444.04 644.80 L447.23 640.73 L447.47 644.47 L447.66 648.54 L450.41 645.35 L451.73 646.28 L452.13 650.09 L455.43 644.72 L457.36 643.55 L457.09 649.92 L460.18 644.58 L462.43 641.93 L461.80 650.39 L463.89 648.34 L466.27 644.85 L466.16 652.20 L468.03 650.90 L470.34 647.27 L470.81 652.79 L472.82 650.43 L475.27 645.16 L475.67 651.97 L477.37 651.03 L479.90 643.93 L480.54 650.33 L481.96 651.18 L484.09 645.71 L485.07 650.65 L486.41 652.69 L488.30 648.27 L489.60 650.97 L490.97 653.49 L492.75 648.56 L494.32 646.56 L495.65 651.05 L497.26 646.10 L498.76 642.02 L500.19 650.70 L501.65 647.11 L503.03 642.67 L504.73 651.28 L506.09 647.68 L507.29 642.12 L509.15 649.30 L510.51 647.27 L511.40 640.06 L513.51 647.69 L514.91 646.72 L515.43 638.12 L517.68 645.08 L519.38 646.81 L519.96 640.38 L522.21 645.73 L524.11 648.24 L524.56 642.00 L526.35 643.79 L528.31 646.22 L528.86 641.49 L530.35 641.53 L532.95 646.47 L533.80 643.56 L534.49 640.19 L537.29 645.30 L537.66 640.86 L537.74 635.72 L540.77 641.14 L541.10 637.12 L541.21 632.63 L544.83 639.35 L545.30 636.13 L544.83 630.36 L548.62 636.90 L549.17 634.19 L547.91 626.81 L551.87 633.25 L553.19 632.68 L552.47 627.19 L555.89 631.74 L557.64 632.17 L557.69 628.75 L559.89 630.15 L561.30 629.80 L560.36 624.55 L561.26 623.26 L564.17 625.94 L562.30 619.30 L562.35 616.55 L568.05 624.20 L567.90 621.04 L569.49 621.02 L574.04 626.01 L573.39 622.09 L573.66 619.80 L576.99 622.47 L575.11 616.86 L572.71 610.68 L577.58 615.56 L577.51 613.00 L574.16 605.83 L579.27 610.74 L580.95 610.73 L578.62 605.32 L582.24 607.90 L584.77 608.95 L583.19 604.74 L585.48 605.44 L587.62 605.89 L584.94 600.59 L586.34 600.20 L590.16 602.54 L586.35 596.25 L586.36 594.35 L593.70 600.33 L592.02 596.58 L590.94 593.55 L597.91 598.72 L597.02 595.89 L595.68 592.69 L600.19 595.14 L598.18 591.38 L594.64 586.34 L600.84 590.16 L599.80 587.45 L594.54 581.19 L602.18 585.99 L602.85 584.81 L599.49 580.38 L605.69 583.66 L606.94 582.92 L604.20 579.14 L607.64 580.07 L609.23 579.56 L604.45 574.50 L605.71 573.81 L609.10 574.57 L604.03 569.59 L602.73 567.24 L610.68 570.87 L607.45 567.30 L604.59 564.06 L613.38 567.90 L610.87 564.89 L608.75 562.20 L615.54 564.56 L613.05 561.69 L609.22 558.19 L615.97 560.31 L613.85 557.77 L607.35 553.13 L615.72 555.84 L616.25 554.66 L610.81 550.76 L619.36 553.24 L620.62 552.36 L616.41 549.16 L619.96 549.25 L621.43 548.44 L617.00 545.32 L619.16 544.79 L623.31 544.95 L621.71 542.99 L621.61 541.60 L626.34 541.81 L623.03 539.35 L618.69 536.66 L616.61 534.74 L612.21 532.21 L607.47 529.69 L603.73 527.55 L601.78 525.94 L601.13 524.70 L601.02 523.61 L600.66 522.46 L600.46 521.37 L600.31 520.29 L600.06 519.20 L599.98 518.15 L599.90 517.10 L599.85 516.07 L599.80 515.04 L599.73 514.01 L599.67 512.99 L599.59 511.96 L599.52 510.95 L599.42 509.93 L599.32 508.92 L599.22 507.91 L599.10 506.90 L598.98 505.90 L598.85 504.90 L598.71 503.91 L598.55 502.91 L598.39 501.92 L598.22 500.94 Z"/>
  <svg class="pausebutton" id="pausebutton">
    <circle cx="500" cy="500" id="pausestart" class="pausestart" r="52.65"/>
    <rect height="50.02" width="10.00" y="473.68" rx="2.00" ry="2.00" x="479.99" class="pausesymbol"/>
    <rect height="50.02" width="10.00" y="473.68" rx="2.00" ry="2.00" x="510.00" class="pausesymbol"/>
    <polygon points="530.01,500 479.99,530.01 479.99,469.99" class="playsymbol"/>
  </svg>
  <polygon id="playback-head" class="playback-head" points="941.65,500 921.65,540 961.65,540"/>
</svg>