<?xml-stylesheet href="../../style/waveformjs.css" type="text/css"?>
<svg xmlns="http://www.w3.org/2000/svg" xmlns:xlink="http://www.w3.org/1999/xlink" width="100%" height="100%" viewBox="0 0 1000 1000">
  <path class="svg-wave" id="sp" d="M598.05 500.00 L598.22 500.98 L598.35 501.97 L598.45 502.95 L598.57 503.94 L598.78 504.94 L598.86 505.94 L598.97 506.94 L599.19 507.95 L599.28 508.96 L599.37 509.97 L599.45 510.98 L599.51 512.00 L599.57 513.02 L599.61 514.04 L599.65 515.06 L599.67 516.08 L599.68 517.11 L599.69 518.14 L599.68 519.17 L599.66 520.20 L599.63 521.24 L599.59 522.27 L599.54 523.31 L599.47 524.34 L599.40 525.38 L599.32 526.42 L599.22 527.46 L599.11 528.50 L598.99 529.54 L598.86 530.58 L598.72 531.62 L598.56 532.66 L598.40 533.70 L598.22 534.74 L598.02 535.78 L597.82 536.82 L597.60 537.86 L597.37 538.89 L597.12 539.92 L596.86 540.95 L596.58 541.98 L596.28 543.00 L595.96 544.01 L595.62 545.02 L595.25 546.01 L594.84 546.99 L594.41 547.96 L593.97 548.92 L593.21 549.72 L592.40 550.48 L591.98 551.45 L591.73 552.52 L590.88 553.25 L590.54 554.28 L586.96 553.31 L582.61 551.79 L582.30 552.75 L583.60 554.77 L580.69 554.03 L582.16 556.21 L584.53 559.08 L583.08 559.31 L580.69 558.83 L576.49 556.95 L571.60 554.43 L568.94 553.50 L567.86 553.76 L564.16 551.88 L565.05 553.69 L567.96 557.25 L569.12 559.41 L570.97 562.24 L572.40 564.80 L572.94 566.60 L570.34 565.53 L566.83 563.52 L562.88 560.97 L558.31 557.69 L557.94 558.48 L556.09 557.75 L554.35 557.09 L559.90 564.19 L558.24 563.68 L557.67 564.34 L558.73 566.85 L557.47 566.75 L561.46 572.84 L560.67 573.39 L560.57 574.77 L564.02 580.68 L560.60 577.95 L561.07 580.20 L559.94 580.37 L556.66 577.58 L559.56 583.29 L557.10 581.56 L553.67 578.32 L550.77 575.69 L549.85 575.96 L549.10 576.46 L548.73 577.58 L548.46 578.91 L548.71 581.12 L548.26 582.21 L546.32 580.74 L544.21 578.90 L542.15 577.01 L543.36 581.13 L542.83 582.11 L543.10 584.69 L545.27 591.19 L545.33 593.64 L545.87 597.24 L543.76 595.22 L541.64 593.05 L539.48 590.64 L537.40 588.27 L535.96 587.28 L535.83 589.49 L535.17 590.47 L534.85 592.36 L534.50 594.29 L533.21 593.65 L531.55 591.87 L530.85 592.83 L528.90 589.99 L527.83 589.71 L528.50 595.22 L529.34 601.74 L528.33 602.06 L528.36 606.25 L527.07 605.65 L525.74 604.83 L526.01 610.71 L523.84 606.21 L523.33 609.04 L523.95 617.66 L521.97 613.74 L520.26 610.85 L519.51 613.10 L518.33 613.02 L516.76 610.30 L516.58 617.00 L515.40 617.07 L514.10 616.17 L512.63 613.54 L510.98 608.56 L509.41 603.35 L508.30 602.46 L507.08 599.85 L505.86 596.20 L505.15 601.23 L504.21 603.22 L503.30 607.07 L502.27 609.25 L501.20 611.37 L500.09 614.30 L498.98 610.98 L497.96 606.05 L497.03 601.67 L496.20 596.99 L495.24 596.62 L494.45 593.72 L493.48 594.07 L491.79 603.47 L490.97 601.01 L490.01 600.32 L488.85 601.68 L487.56 603.87 L485.57 611.10 L484.62 609.76 L482.83 614.23 L479.91 625.12 L478.85 623.80 L477.86 622.23 L476.87 620.76 L476.17 618.06 L475.54 615.20 L475.20 611.30 L475.22 606.21 L474.83 603.22 L473.65 603.53 L472.84 602.42 L471.34 603.89 L470.03 604.53 L468.59 605.57 L467.37 605.79 L467.23 602.58 L467.00 599.86 L466.49 598.08 L464.23 601.39 L462.67 602.52 L460.35 605.61 L457.79 609.08 L455.71 611.14 L453.84 612.56 L453.85 609.40 L453.92 606.25 L454.00 603.22 L453.98 600.56 L453.46 599.06 L451.81 599.96 L450.12 600.88 L448.27 602.05 L446.95 602.10 L445.87 601.68 L445.99 599.05 L444.91 598.68 L445.85 594.75 L444.77 594.44 L439.89 600.47 L437.98 601.33 L436.40 601.62 L429.60 610.03 L429.78 607.37 L426.91 609.35 L426.11 608.19 L425.81 606.33 L422.43 608.84 L421.63 607.66 L423.59 602.80 L423.76 600.46 L420.57 602.51 L420.94 599.96 L421.21 597.59 L416.70 601.09 L414.81 601.31 L415.06 598.98 L415.93 596.00 L418.16 591.60 L420.83 586.85 L418.99 587.10 L421.37 582.86 L422.66 579.89 L418.20 582.82 L415.26 584.10 L411.80 585.80 L409.81 585.99 L407.80 586.17 L405.74 586.34 L407.73 582.84 L410.96 578.34 L413.42 574.66 L415.16 571.69 L413.53 571.60 L416.09 568.07 L413.19 569.00 L406.47 572.83 L406.18 571.56 L406.26 570.03 L405.66 569.02 L402.99 569.49 L397.95 571.56 L399.23 569.17 L395.68 570.09 L392.77 570.50 L394.08 568.13 L387.93 570.51 L391.50 566.76 L392.15 564.88 L386.60 566.69 L389.65 563.41 L393.01 560.07 L394.30 557.96 L393.97 556.77 L392.49 556.19 L390.88 555.65 L389.83 554.80 L387.26 554.68 L387.14 553.35 L389.07 551.09 L390.96 548.90 L390.93 547.61 L387.23 547.89 L385.63 547.23 L379.82 548.22 L377.34 547.80 L374.68 547.40 L372.80 546.66 L375.50 544.26 L377.47 542.19 L379.71 540.08 L381.38 538.20 L380.57 537.15 L378.75 536.39 L377.27 535.50 L375.73 534.61 L374.29 533.66 L375.01 532.13 L376.96 530.32 L376.16 529.20 L379.83 527.07 L376.87 526.45 L367.02 527.18 L367.89 525.63 L368.18 524.20 L361.24 524.05 L365.67 521.90 L362.67 520.98 L363.19 519.50 L366.88 517.62 L357.92 517.36 L358.48 515.86 L361.04 514.17 L363.27 512.56 L356.47 511.74 L358.63 510.14 L358.87 508.70 L354.37 507.52 L354.17 506.07 L356.17 504.55 L358.99 503.05 L364.69 501.57 L369.40 500.21 L366.67 498.88 L372.02 497.64 L373.40 496.40 L367.52 494.91 L365.28 493.47 L362.05 491.93 L360.25 490.42 L359.18 488.94 L358.68 487.47 L362.36 486.41 L367.79 485.61 L373.10 484.90 L373.91 483.72 L374.91 482.58 L378.00 481.76 L372.44 479.62 L369.02 477.73 L369.90 476.54 L367.29 474.70 L370.05 473.87 L365.30 471.51 L362.20 469.41 L362.87 468.12 L356.87 465.21 L359.40 464.34 L361.40 463.36 L357.60 460.83 L363.44 460.97 L362.65 459.25 L360.39 457.06 L364.99 456.99 L369.15 456.87 L371.02 456.05 L371.77 454.87 L371.72 453.41 L370.28 451.41 L370.10 449.85 L369.35 448.06 L370.94 447.19 L373.73 446.85 L376.93 446.74 L374.81 444.33 L373.31 442.14 L373.46 440.67 L367.48 436.25 L366.44 434.09 L365.49 431.94 L366.96 431.01 L370.33 431.10 L373.32 431.06 L376.75 431.32 L378.98 430.97 L378.63 429.14 L379.09 427.78 L377.59 425.22 L377.77 423.64 L378.52 422.41 L379.93 421.60 L380.67 420.38 L383.57 420.62 L387.05 421.33 L385.69 418.67 L380.96 413.50 L381.66 412.18 L380.29 409.29 L374.40 402.84 L374.22 400.68 L374.21 398.61 L374.51 396.76 L375.14 395.17 L376.50 394.19 L379.61 394.75 L383.62 396.18 L385.95 396.19 L385.99 394.13 L388.20 394.08 L388.74 392.46 L387.23 388.79 L387.10 386.42 L388.49 385.55 L391.47 386.36 L395.51 388.38 L397.55 388.33 L396.27 384.65 L400.64 387.26 L402.46 387.07 L400.12 381.99 L401.45 381.17 L402.08 379.50 L402.43 377.45 L402.77 375.34 L403.43 373.60 L407.04 375.77 L411.23 378.86 L415.89 382.78 L417.13 382.03 L419.19 382.48 L422.32 384.58 L418.82 376.73 L420.15 376.07 L421.25 375.06 L421.37 372.44 L422.54 371.48 L421.95 367.52 L422.85 366.01 L423.43 363.87 L421.79 357.64 L424.88 359.97 L425.97 358.62 L426.29 355.74 L429.02 357.60 L427.32 350.45 L428.00 348.00 L431.18 350.88 L433.42 351.85 L433.19 347.29 L436.11 349.88 L437.84 349.79 L436.83 342.93 L438.42 342.35 L439.96 341.63 L442.02 342.33 L445.40 346.81 L447.78 348.73 L447.10 341.63 L450.28 346.06 L452.18 346.71 L451.04 337.34 L452.61 336.68 L454.26 336.24 L456.08 336.46 L457.79 336.34 L459.65 336.81 L461.88 338.91 L464.12 341.34 L465.47 339.86 L467.35 340.88 L468.89 340.28 L470.21 338.50 L472.00 339.21 L473.72 339.59 L474.87 336.40 L477.09 340.22 L479.14 343.37 L480.32 340.01 L481.38 335.00 L483.20 336.45 L484.66 334.40 L486.25 333.53 L488.07 335.44 L489.34 329.43 L491.27 333.60 L492.92 333.17 L494.33 324.89 L496.12 326.82 L497.89 330.07 L499.59 328.18 L501.32 326.48 L503.01 329.24 L504.84 324.76 L506.67 322.83 L508.42 323.35 L510.13 324.36 L511.59 328.82 L512.95 333.45 L514.70 332.59 L516.41 332.40 L517.62 336.88 L519.89 331.69 L521.76 330.43 L523.71 328.83 L525.38 329.31 L527.17 329.05 L529.24 327.21 L530.57 329.72 L531.36 334.79 L532.20 339.19 L532.67 344.92 L534.13 345.64 L535.00 348.88 L536.38 349.80 L540.40 340.20 L541.71 341.70 L542.97 343.28 L545.03 341.98 L547.19 340.48 L550.72 334.64 L551.31 338.48 L553.71 336.62 L556.96 332.41 L557.44 336.38 L560.79 332.21 L561.54 335.30 L562.39 337.99 L567.49 329.86 L568.54 332.12 L568.89 335.97 L570.02 337.85 L573.01 335.45 L573.65 338.40 L576.04 337.47 L579.94 333.50 L581.91 333.68 L583.76 334.13 L584.05 337.61 L583.03 343.43 L583.77 345.79 L587.78 342.18 L586.99 347.22 L589.16 346.99 L594.44 341.59 L596.01 342.57 L597.33 343.92 L598.75 345.12 L600.11 346.39 L600.56 349.03 L601.01 351.59 L601.99 353.33 L603.70 354.00 L604.45 356.02 L607.33 355.13 L608.40 356.69 L608.89 359.00 L609.60 360.97 L612.59 360.09 L610.81 365.09 L610.80 367.81 L615.07 365.48 L617.48 365.40 L617.30 368.30 L622.59 365.09 L622.73 367.62 L625.82 366.99 L629.50 365.81 L629.74 368.23 L634.88 365.72 L639.74 363.63 L640.79 365.33 L641.91 366.95 L643.15 368.45 L644.35 369.99 L644.75 372.23 L644.91 374.64 L645.79 376.41 L646.40 378.39 L645.63 381.46 L644.99 384.37 L644.11 387.42 L643.19 390.43 L642.80 392.97 L642.54 395.38 L644.42 396.20 L648.47 395.53 L650.87 396.08 L653.28 396.66 L657.17 396.31 L657.64 398.25 L657.23 400.73 L658.56 402.09 L660.51 403.09 L663.30 403.62 L666.63 403.89 L669.19 404.65 L672.22 405.20 L672.40 407.33 L671.64 409.95 L671.46 412.22 L671.82 414.19 L674.07 415.23 L675.53 416.68 L677.51 417.91 L680.53 418.69 L680.87 420.70 L680.38 423.06 L680.55 425.11 L680.23 427.35 L679.29 429.80 L677.89 432.39 L676.75 434.84 L674.77 437.55 L673.21 440.05 L673.25 441.97 L673.57 443.79 L674.27 445.48 L674.16 447.42 L674.91 449.10 L675.59 450.80 L674.92 452.87 L675.77 454.52 L675.58 456.44 L679.10 457.46 L682.67 458.54 L682.58 460.48 L685.71 461.74 L688.27 463.17 L689.05 464.98 L687.88 467.13 L686.91 469.23 L686.10 471.27 L684.88 473.35 L685.40 475.16 L687.95 476.73 L689.92 478.41 L690.68 480.25 L693.22 481.94 L692.21 483.97 L689.87 486.08 L689.23 488.03 L690.05 489.88 L691.92 491.71 L693.53 493.58 L696.16 495.45 L699.13 497.37 L700.25 499.36 L700.15 501.36 L699.87 503.36 L700.71 505.38 L701.15 507.41 L700.99 509.42 L701.93 511.48 L703.24 513.60 L704.05 515.71 L704.22 517.77 L704.42 519.85 L704.57 521.93 L703.35 523.86 L702.05 525.76 L700.59 527.62 L698.73 529.39 L696.13 531.01 L693.26 532.54 L690.68 534.07 L688.36 535.60 L687.80 537.45 L688.72 539.60 L691.00 542.07 L691.98 544.31 L694.10 546.85 L696.43 549.49 L694.91 551.18 L693.38 552.86 L694.37 555.22 L694.67 557.42 L696.35 560.05 L697.80 562.67 L698.64 565.13 L699.28 567.55 L697.31 569.09 L694.78 570.40 L692.97 571.93 L691.77 573.68 L691.56 575.81 L691.35 577.94 L692.61 580.71 L693.35 583.30 L692.30 585.14 L692.04 587.34 L690.96 589.16 L688.26 590.20 L686.07 591.45 L683.06 592.26 L680.21 593.09 L676.70 593.53 L674.04 594.36 L672.93 596.01 L672.63 598.11 L671.87 599.97 L670.07 601.21 L670.03 603.50 L668.77 605.06 L667.13 606.38 L666.27 608.18 L665.02 609.73 L667.09 613.53 L668.31 616.84 L666.69 618.20 L667.83 621.55 L669.01 625.00 L666.67 625.86 L663.66 626.19 L661.66 627.24 L658.55 627.38 L656.61 628.42 L655.95 630.51 L656.36 633.53 L655.94 635.89 L655.53 638.30 L654.88 640.52 L651.84 640.55 L648.94 640.66 L646.89 641.53 L646.34 643.85 L646.70 647.11 L645.89 649.26 L646.43 652.84 L647.27 656.82 L645.60 658.19 L644.99 660.73 L644.98 663.98 L643.05 665.10 L641.64 666.81 L641.17 669.66 L638.17 669.48 L634.30 668.14 L631.95 668.63 L631.98 672.18 L628.79 671.54 L627.15 672.94 L627.05 676.48 L625.05 677.41 L622.03 676.85 L618.15 674.95 L614.11 672.67 L610.67 671.16 L609.49 673.11 L606.10 671.52 L604.29 672.42 L605.02 677.62 L604.31 680.51 L603.15 682.69 L602.21 685.34 L601.70 688.85 L599.12 688.55 L596.27 687.66 L593.02 685.88 L588.94 682.26 L587.26 683.46 L585.21 683.86 L582.04 681.75 L582.89 688.65 L581.54 690.74 L579.11 690.29 L578.38 693.99 L576.28 694.37 L575.56 698.35 L574.61 701.89 L573.14 704.19 L572.99 710.35 L569.83 707.93 L567.50 707.86 L566.08 710.65 L562.53 706.53 L561.11 709.36 L559.39 711.32 L556.20 707.93 L553.25 705.14 L550.81 704.11 L548.74 704.50 L546.73 705.15 L545.01 707.11 L543.24 709.01 L541.29 710.17 L538.86 708.80 L536.39 707.02 L533.93 705.08 L532.35 708.45 L530.39 709.60 L528.35 710.36 L526.93 716.09 L524.97 718.15 L522.96 720.05 L520.73 719.89 L518.37 718.24 L516.11 717.35 L513.77 714.95 L511.51 713.10 L509.45 714.72 L507.34 715.85 L505.20 716.95 L503.05 718.08 L500.87 718.69 L498.69 716.87 L496.51 717.72 L494.41 714.64 L492.36 711.95 L490.09 715.20 L487.62 720.80 L485.42 720.51 L483.08 722.15 L480.70 723.84 L478.83 719.85 L475.85 726.92 L473.95 723.52 L471.85 722.18 L468.66 728.95 L466.37 728.66 L464.40 726.30 L462.10 726.18 L459.56 727.39 L457.43 726.20 L454.58 728.74 L451.87 730.30 L449.68 729.29 L447.78 727.08 L446.52 722.35 L445.52 716.96 L444.28 712.86 L442.27 711.86 L441.21 707.55 L438.72 708.37 L435.72 710.78 L433.06 711.86 L430.45 712.70 L427.39 714.78 L424.60 715.88 L423.05 713.43 L421.14 712.07 L419.42 710.24 L418.60 706.19 L416.34 705.86 L414.95 703.42 L413.36 701.54 L408.41 707.30 L407.92 702.90 L406.31 701.09 L403.02 702.82 L401.53 700.76 L396.81 705.16 L394.78 704.09 L392.61 703.28 L387.76 707.41 L387.36 703.26 L383.57 705.24 L382.07 703.12 L382.23 698.26 L377.00 702.42 L376.59 698.59 L376.89 693.76 L377.03 689.33 L375.20 688.01 L372.96 687.28 L370.94 686.24 L368.66 685.53 L365.70 685.75 L363.47 684.91 L363.04 681.66 L362.66 678.43 L362.42 675.08 L358.15 676.85 L356.09 675.79 L353.58 675.25 L348.06 678.20 L345.09 678.05 L341.02 679.07 L340.87 675.67 L340.49 672.60 L339.93 669.76 L340.38 665.93 L339.86 663.17 L337.57 662.23 L335.45 661.09 L332.74 660.50 L330.32 659.59 L328.81 657.82 L328.52 654.94 L326.43 653.71 L327.00 650.14 L326.98 647.15 L322.77 647.70 L318.57 648.15 L317.19 646.26 L310.42 648.59 L307.86 647.52 L305.19 646.49 L302.95 645.12 L302.67 642.30 L301.08 640.45 L300.45 637.93 L300.77 634.78 L300.63 631.99 L299.10 630.13 L298.85 627.45 L297.22 625.66 L291.52 626.33 L288.77 625.12 L285.73 624.05 L283.26 622.60 L284.26 619.20 L287.14 614.85 L284.84 613.33 L283.63 611.21 L286.45 607.08 L280.85 607.16 L277.37 606.11 L276.98 603.57 L275.34 601.62 L274.02 599.51 L272.65 597.40 L273.02 594.57 L275.45 590.93 L278.74 587.04 L282.54 583.04 L281.67 580.88 L284.11 577.53 L283.06 575.47 L273.72 576.19 L274.83 573.31 L274.21 571.03 L270.87 569.57 L271.30 566.95 L264.99 566.25 L264.96 563.73 L263.46 561.60 L259.32 560.12 L260.23 557.35 L252.61 556.56 L256.21 553.18 L257.75 550.31 L248.46 549.62 L250.42 546.65 L253.47 543.53 L254.73 540.79 L254.02 538.38 L256.12 535.56 L254.29 533.32 L251.49 531.17 L249.33 528.90 L246.09 526.70 L247.20 524.03 L250.84 521.17 L250.88 518.66 L246.51 516.44 L250.74 513.67 L248.72 511.26 L241.65 508.99 L242.40 506.38 L242.63 503.80 L242.57 501.23 L243.79 498.66 L245.73 496.13 L247.56 493.63 L248.51 491.14 L249.47 488.66 L250.49 486.21 L248.45 483.57 L248.92 481.08 L249.25 478.58 L249.68 476.09 L247.84 473.37 L253.14 471.43 L254.52 469.10 L250.27 466.02 L249.44 463.36 L250.85 461.01 L245.96 457.64 L249.20 455.60 L248.59 452.89 L246.50 449.87 L251.21 448.21 L248.40 445.00 L246.51 441.92 L249.94 440.07 L254.06 438.45 L253.72 435.74 L256.47 433.85 L257.61 431.55 L253.61 427.75 L253.86 425.15 L251.67 421.76 L250.40 418.61 L256.21 417.80 L259.34 416.16 L254.97 411.88 L259.64 410.83 L264.05 409.78 L259.26 405.18 L258.90 402.24 L258.61 399.30 L259.99 397.04 L259.92 394.16 L259.80 391.22 L262.63 389.63 L268.27 389.42 L273.90 389.32 L277.42 388.27 L278.54 386.05 L283.97 386.10 L282.59 382.57 L277.60 376.99 L279.62 375.21 L280.56 372.83 L280.90 370.09 L281.98 367.76 L279.90 363.47 L281.91 361.68 L281.44 358.29 L281.97 355.52 L284.13 353.82 L280.24 347.96 L284.71 347.85 L285.25 344.99 L281.26 338.76 L285.33 338.42 L288.78 337.68 L290.76 335.85 L293.49 334.63 L295.81 333.11 L294.74 328.78 L294.93 325.43 L295.96 322.76 L296.45 319.58 L300.24 319.34 L305.58 320.61 L306.42 317.76 L306.78 314.43 L311.75 315.54 L309.33 309.40 L309.21 305.42 L311.48 303.85 L313.26 301.78 L315.36 300.03 L318.38 299.32 L321.13 298.34 L324.65 298.28 L326.73 296.59 L330.02 296.37 L332.41 295.11 L333.96 292.80 L336.31 291.50 L339.25 290.97 L341.44 289.50 L343.01 287.18 L347.70 289.17 L349.36 287.00 L347.85 280.24 L351.27 280.52 L353.88 279.67 L352.05 271.99 L353.81 269.68 L355.47 267.19 L358.34 266.63 L359.83 263.79 L361.79 261.70 L363.97 259.96 L365.41 256.86 L367.64 255.15 L369.39 252.51 L371.76 250.99 L374.33 249.86 L376.31 247.54 L378.89 246.43 L381.80 246.02 L383.84 243.73 L386.55 242.90 L389.15 241.85 L391.54 240.26 L394.20 239.34 L396.63 237.82 L399.21 236.68 L401.87 235.75 L404.61 235.05 L407.35 234.36 L410.03 233.48 L412.74 232.74 L415.57 232.37 L418.71 233.02 L421.29 231.91 L424.22 231.99 L427.27 232.59 L429.79 231.28 L432.13 229.19 L434.85 228.58 L437.51 227.70 L440.24 227.10 L443.14 227.32 L445.66 225.71 L448.36 224.91 L451.10 224.33 L453.52 221.85 L456.43 222.21 L459.02 220.51 L461.93 220.93 L464.89 221.89 L467.61 221.04 L470.50 221.65 L473.35 221.97 L475.99 220.09 L478.73 219.14 L481.46 217.70 L484.18 215.54 L486.96 214.00 L489.79 213.00 L492.65 212.56 L495.52 212.62 L498.40 213.40 L501.27 213.83 L504.11 215.08 L506.94 215.74 L509.79 215.66 L512.57 217.28 L515.41 217.19 L518.27 216.86 L520.99 218.51 L523.83 218.43 L526.61 219.01 L529.44 219.06 L532.33 218.73 L535.26 218.10 L538.07 218.47 L540.84 219.19 L543.84 218.35 L546.88 217.44 L549.71 217.90 L552.41 219.04 L555.56 217.84 L558.15 219.52 L560.76 220.98 L563.62 221.31 L566.31 222.33 L569.22 222.48 L572.36 221.75 L575.32 221.84 L578.05 222.78 L580.57 224.42 L583.14 225.81 L585.65 227.39 L588.53 227.77 L592.34 225.42 L595.19 226.06 L598.79 224.61 L602.41 223.24 L605.18 224.28 L608.08 224.95 L610.58 226.67 L613.52 227.28 L616.64 227.49 L619.31 228.77 L622.22 229.54 L624.90 230.80 L627.08 233.14 L629.49 234.93 L632.27 235.97 L634.90 237.31 L637.33 239.03 L640.15 240.03 L643.24 240.53 L645.75 242.13 L648.50 243.28 L651.16 244.62 L653.62 246.28 L656.61 247.08 L659.16 248.62 L661.43 250.59 L663.66 252.60 L666.28 254.02 L668.87 255.49 L670.10 258.90 L672.56 260.53 L676.86 259.67 L678.33 262.68 L680.66 264.52 L684.62 264.28 L686.98 266.12 L689.38 267.92 L691.00 270.65 L693.10 272.79 L694.89 275.28 L696.58 277.86 L699.54 279.01 L702.38 280.32 L705.16 281.72 L710.40 280.58 L713.00 282.28 L715.77 283.81 L717.68 286.21 L719.59 288.61 L721.49 291.01 L723.11 293.65 L724.95 296.10 L727.05 298.28 L728.92 300.69 L730.76 303.10 L732.82 305.34 L734.28 308.06 L736.06 310.52 L737.95 312.88 L738.93 315.95 L739.91 318.99 L741.61 321.47 L743.92 323.50 L746.13 325.63 L746.86 328.79 L749.84 330.41 L752.58 332.21 L753.95 334.93 L755.93 337.26 L757.20 340.04 L759.40 342.25 L760.61 345.07 L762.82 347.29 L765.98 348.99 L768.09 351.31 L771.30 353.07 L774.66 354.78 L775.95 357.61 L777.16 360.48 L778.14 363.45 L779.75 366.12 L781.48 368.73 L780.06 372.78 L778.78 376.71 L780.58 379.26 L782.28 381.86 L781.91 385.32 L785.61 387.12 L787.32 389.76 L787.77 392.87 L786.33 396.66 L783.72 400.79 L781.03 404.88 L780.31 408.24 L780.46 411.28 L778.84 414.85 L783.51 416.52 L786.84 418.64 L789.11 421.11 L791.59 423.56 L795.61 425.66 L797.76 428.28 L795.65 431.91 L793.84 435.41 L790.73 439.13 L786.67 442.97 L787.69 445.75 L786.05 449.02 L785.97 451.98 L796.05 453.33 L793.95 456.66 L794.64 459.57 L797.32 462.23 L797.57 465.21 L804.23 467.52 L802.59 470.75 L803.89 473.69 L809.17 476.34 L805.59 479.69 L809.52 482.53 L807.64 485.72 L804.22 488.93 L811.09 491.79 L808.09 494.96 L804.18 498.06 L801.12 501.09 L801.08 504.10 L801.01 507.11 L801.23 510.13 L801.98 513.18 L804.15 516.33 L804.08 519.37 L801.34 522.23 L798.89 525.05 L796.13 527.81 L799.63 531.16 L799.86 534.22 L801.23 537.43 L806.33 541.18 L807.12 544.42 L809.33 547.90 L807.38 550.75 L805.36 553.56 L802.87 556.25 L799.84 558.80 L798.65 561.67 L799.82 565.04 L799.53 568.12 L800.23 571.45 L801.09 574.84 L799.16 577.54 L795.67 579.80 L796.26 583.15 L791.27 584.90 L789.36 587.49 L793.37 591.92 L795.24 595.75 L793.51 598.45 L797.95 603.26 L794.70 605.45 L793.22 608.24 L796.10 612.68 L792.82 614.80 L793.97 618.65 L797.06 623.37 L794.40 625.73 L791.97 628.16 L792.92 632.09 L790.63 634.57 L788.39 637.05 L791.66 642.20 L790.51 645.25 L788.51 647.88 L784.98 649.68 L779.81 650.55 L773.57 650.74 L772.85 653.92 L767.83 654.65 L763.73 655.81 L766.59 661.12 L765.99 664.41 L766.34 668.33 L765.94 671.82 L765.48 675.32 L764.43 678.44 L761.13 680.04 L756.81 680.88 L751.97 681.27 L747.64 681.94 L746.79 685.14 L741.80 685.20 L741.53 688.86 L746.08 696.41 L743.05 698.01 L739.79 699.38 L739.30 703.05 L738.93 706.88 L741.56 713.42 L738.42 714.93 L738.60 719.46 L738.60 723.90 L733.58 723.62 L735.64 730.15 L728.82 728.01 L724.89 728.63 L726.64 735.06 L721.41 734.28 L716.27 733.47 L712.30 733.83 L710.31 736.35 L708.00 738.51 L706.19 741.27 L704.23 743.87 L702.85 747.20 L700.24 749.06 L696.09 748.96 L692.37 749.32 L689.67 750.97 L689.15 755.55 L686.69 757.58 L686.99 763.50 L686.19 768.02 L684.58 771.45 L683.04 775.06 L678.78 774.56 L674.94 774.64 L670.75 774.07 L666.77 773.74 L664.11 775.55 L661.54 777.51 L659.52 780.45 L657.40 783.27 L654.99 785.63 L651.76 786.47 L648.02 786.30 L645.19 787.85 L640.45 785.51 L637.77 787.27 L637.35 793.90 L634.39 795.25 L632.10 798.08 L632.01 806.11 L629.75 809.32 L627.92 813.71 L624.64 814.63 L621.71 816.46 L618.90 818.62 L615.15 818.24 L610.80 816.06 L606.92 815.07 L604.71 819.01 L600.62 817.22 L597.25 817.57 L595.35 822.86 L592.48 825.07 L589.52 827.08 L586.05 827.21 L581.77 824.06 L577.80 821.88 L575.63 827.16 L571.51 824.08 L567.56 821.43 L565.52 828.00 L562.49 829.94 L559.33 831.40 L556.08 832.35 L552.74 832.78 L549.52 834.03 L545.98 833.07 L542.02 828.62 L538.09 823.59 L534.67 822.24 L531.43 822.43 L527.84 818.55 L524.95 822.72 L522.09 828.37 L518.81 828.71 L515.57 829.81 L512.20 828.08 L508.99 830.94 L505.75 834.69 L502.39 833.37 L499.04 837.20 L495.67 837.71 L492.30 837.23 L488.75 842.52 L485.53 837.72 L482.08 838.92 L478.33 844.41 L475.11 841.07 L471.89 838.57 L468.45 838.93 L465.03 838.86 L461.93 835.97 L457.99 840.26 L454.41 841.20 L450.88 841.59 L447.13 843.21 L444.30 839.04 L441.58 834.66 L437.54 837.80 L434.17 837.16 L431.66 832.28 L426.70 839.20 L422.97 839.94 L419.84 838.04 L416.25 838.06 L413.20 835.97 L410.19 833.80 L407.19 831.68 L404.31 829.26 L400.88 828.77 L398.05 826.29 L394.79 825.26 L391.01 825.80 L387.78 824.64 L384.87 822.55 L380.94 823.32 L378.11 821.06 L376.95 814.62 L373.10 815.12 L367.78 819.09 L365.44 815.77 L362.52 813.88 L357.65 816.34 L355.45 812.83 L349.75 816.82 L348.10 812.19 L346.62 807.39 L340.38 812.05 L337.89 809.24 L336.44 804.56 L334.20 801.45 L330.70 800.66 L328.66 797.30 L324.68 797.29 L319.58 799.06 L316.92 796.72 L312.31 797.49 L309.28 795.70 L309.22 789.40 L306.87 786.69 L301.71 788.09 L301.28 782.61 L298.21 780.97 L292.11 783.44 L289.49 781.08 L285.31 780.76 L282.65 778.42 L279.69 776.47 L277.13 774.01 L276.20 769.60 L277.14 763.07 L278.11 756.68 L275.72 754.26 L274.13 750.95 L273.78 746.35 L266.02 749.74 L262.97 747.98 L259.92 746.19 L255.42 745.84 L254.82 741.56 L249.07 742.33 L245.99 740.44 L244.14 737.39 L237.74 738.49 L237.18 734.24 L234.35 732.04 L229.83 731.26 L228.63 727.63 L222.39 728.17 L218.92 726.35 L218.25 722.28 L217.92 718.01 L214.60 716.05 L215.06 711.25 L214.00 707.64 L207.45 707.95 L205.77 704.75 L202.33 702.76 L199.86 700.08 L201.34 694.80 L201.68 690.36 L193.74 691.14 L195.53 685.82 L195.80 681.51 L185.66 683.32 L183.57 680.32 L181.99 677.03 L179.58 674.20 L178.68 670.55 L177.92 666.85 L178.58 662.45 L179.10 658.17 L176.93 655.25 L176.99 651.26 L175.49 648.03 L172.90 645.27 L172.25 641.66 L172.63 637.63 L169.33 635.14 L170.89 630.67 L173.30 625.95 L170.13 623.40 L164.35 621.75 L164.98 617.74 L161.93 615.03 L154.35 613.76 L151.24 610.93 L149.87 607.53 L146.05 604.84 L142.15 602.11 L142.16 598.25 L138.49 595.38 L135.78 592.21 L136.25 588.23 L135.95 584.46 L135.99 580.62 L135.12 576.99 L135.52 573.11 L136.66 569.11 L134.54 565.73 L134.06 562.05 L133.29 558.41 L131.86 554.87 L131.16 551.21 L129.98 547.61 L129.58 543.90 L129.70 540.14 L130.83 536.28 L133.27 532.34 L133.13 528.66 L133.82 524.93 L134.19 521.23 L133.47 517.59 L132.82 513.95 L131.40 510.31 L131.81 506.61 L131.26 502.94 L130.28 499.25 L131.43 495.56 L132.40 491.90 L131.29 488.18 L132.92 484.56 L133.33 480.90 L129.75 477.00 L129.05 473.23 L130.10 469.59 L128.20 465.68 L128.67 461.98 L129.89 458.36 L131.49 454.80 L131.85 451.11 L133.16 447.54 L134.08 443.93 L132.82 439.98 L131.67 436.00 L132.95 432.43 L129.75 428.01 L129.50 424.11 L129.48 420.24 L130.71 416.63 L131.52 412.93 L131.61 409.05 L133.42 405.60 L135.27 402.18 L137.48 398.87 L140.13 395.72 L141.36 392.18 L143.44 388.91 L146.11 385.84 L144.53 381.40 L145.02 377.60 L147.76 374.59 L148.83 371.00 L149.57 367.28 L150.59 363.66 L153.69 360.86 L153.46 356.73 L153.84 352.81 L154.75 349.11 L155.22 345.19 L157.24 341.96 L158.38 338.32 L160.97 335.38 L162.16 331.76 L163.70 328.31 L164.35 324.39 L164.94 320.40 L165.39 316.32 L166.52 312.58 L168.53 309.31 L172.16 307.01 L175.12 304.36 L178.13 301.76 L180.29 298.65 L182.62 295.65 L182.27 290.91 L183.30 287.02 L185.08 283.61 L183.50 277.83 L184.09 273.50 L187.54 271.20 L188.72 267.25 L191.31 264.34 L194.83 262.16 L198.50 260.13 L201.95 257.97 L204.93 255.46 L208.01 253.04 L209.50 249.28 L211.02 245.50 L213.93 242.94 L215.97 239.60 L217.70 235.93 L220.63 233.39 L223.70 230.98 L226.20 228.03 L228.60 224.97 L230.83 221.72 L234.12 219.56 L236.56 216.51 L239.30 213.77 L242.66 211.72 L245.19 208.75 L248.48 206.64 L252.46 205.37 L255.11 202.53 L256.88 198.59 L260.46 196.88 L262.92 193.75 L265.26 190.42 L267.64 187.11 L271.32 185.54 L275.10 184.14 L278.19 181.80 L282.20 180.80 L285.51 178.79 L288.06 175.63 L291.12 173.23 L292.94 168.83 L295.23 165.07 L297.70 161.57 L300.41 158.38 L303.85 156.44 L307.35 154.58 L310.84 152.73 L314.40 150.98 L318.17 149.67 L321.98 148.46 L326.02 147.75 L329.84 146.62 L333.26 144.69 L337.20 143.86 L340.87 142.47 L343.95 139.74 L347.51 138.07 L351.12 136.54 L354.85 135.28 L358.63 134.16 L362.10 132.25 L366.25 132.17 L370.23 131.69 L373.36 128.78 L376.83 126.78 L380.56 125.53 L384.03 123.44 L387.61 121.67 L391.59 121.23 L395.00 118.76 L399.12 118.90 L403.01 118.17 L406.79 117.06 L411.38 119.39 L414.93 117.36 L418.59 115.70 L422.74 116.43 L425.86 111.92 L429.29 108.66 L433.24 108.14 L437.10 107.11 L440.99 106.26 L445.00 106.19 L449.08 106.73 L453.05 106.55 L457.00 106.23 L461.02 106.63 L464.97 106.39 L468.95 106.55 L472.86 105.97 L476.72 104.35 L480.71 104.64 L484.67 104.79 L488.59 103.41 L492.56 103.70 L496.52 102.73 L500.49 102.68 L504.46 103.09 L508.46 101.89 L512.43 102.13 L516.37 103.24 L520.28 104.49 L524.25 104.57 L528.17 105.19 L532.06 106.18 L536.00 106.57 L540.01 106.15 L543.92 106.83 L547.66 108.86 L551.31 111.26 L555.66 108.55 L559.58 109.08 L563.58 109.12 L568.05 106.47 L572.09 106.62 L576.03 107.28 L580.35 106.13 L584.19 107.38 L587.99 108.80 L592.23 108.29 L596.31 108.54 L600.13 109.90 L604.34 109.72 L608.30 110.58 L612.49 110.62 L616.57 111.13 L620.26 112.94 L624.30 113.62 L628.11 115.03 L631.93 116.37 L635.64 118.07 L639.64 118.93 L643.78 119.46 L647.66 120.70 L651.70 121.56 L655.64 122.70 L659.50 124.05 L663.24 125.68 L666.87 127.58 L670.27 129.95 L673.97 131.64 L677.35 134.02 L680.69 136.43 L684.17 138.54 L688.65 138.72 L692.14 140.84 L695.55 143.10 L700.13 143.26 L703.53 145.55 L706.50 148.56 L709.83 150.94 L713.17 153.28 L717.36 154.25 L721.02 156.11 L724.33 158.53 L728.83 159.15 L731.96 161.84 L735.00 164.66 L738.52 166.76 L741.22 170.02 L744.68 172.21 L748.56 173.87 L752.03 176.10 L755.32 178.55 L759.17 180.32 L762.72 182.49 L765.63 185.42 L769.29 187.49 L772.65 189.91 L775.88 192.49 L779.09 195.11 L781.60 198.47 L784.63 201.28 L787.72 204.02 L789.99 207.59 L792.56 210.84 L795.09 214.12 L798.11 216.91 L801.42 219.45 L804.25 222.44 L807.22 225.31 L810.29 228.10 L812.86 231.33 L814.67 235.19 L816.92 238.67 L819.06 242.23 L821.74 245.33 L824.02 248.76 L826.57 251.97 L828.30 255.79 L830.38 259.34 L831.05 263.88 L834.00 266.78 L838.07 268.94 L840.30 272.37 L845.34 273.96 L850.15 275.79 L853.99 278.29 L856.64 281.56 L858.67 285.22 L860.54 288.97 L863.17 292.28 L864.64 296.25 L866.41 300.04 L869.95 302.88 L872.37 306.35 L873.94 310.26 L877.16 313.35 L878.96 317.15 L880.40 321.12 L882.56 324.75 L883.88 328.77 L885.49 332.66 L888.02 336.15 L890.07 339.86 L890.98 344.04 L893.30 347.65 L894.86 351.57 L895.76 355.74 L897.65 359.54 L898.14 363.83 L900.15 367.59 L901.70 371.52 L902.14 375.80 L903.28 379.85 L904.56 383.86 L905.79 387.89 L907.83 391.70 L909.45 395.64 L910.85 399.65 L913.36 403.41 L913.73 407.67 L913.62 412.03 L914.27 416.22 L916.27 420.13 L920.19 423.73 L922.94 427.59 L926.74 431.33 L932.28 434.86 L934.67 438.94 L935.61 443.25 L936.33 447.58 L937.02 451.93 L937.66 456.28 L938.25 460.65 L938.81 465.02 L939.32 469.39 L939.78 473.78 L940.21 478.17 L940.58 482.56 L940.92 486.96 L941.21 491.37 L941.46 495.78 L941.65 500.00 L941.45 495.59 L941.20 491.17 L940.90 486.77 L940.57 482.37 L940.19 477.97 L939.76 473.58 L939.30 469.20 L938.78 464.82 L938.23 460.45 L937.63 456.09 L936.99 451.74 L936.30 447.39 L935.60 443.05 L935.02 438.70 L936.06 434.10 L939.94 429.00 L941.29 424.25 L942.24 419.53 L944.47 414.52 L944.44 409.91 L942.90 405.60 L940.88 401.41 L938.77 397.26 L939.45 392.46 L938.86 387.94 L936.48 383.89 L937.12 379.02 L935.89 374.66 L933.32 370.69 L931.66 366.47 L929.31 362.48 L927.89 358.20 L926.10 354.05 L923.28 350.27 L922.54 345.76 L919.67 342.04 L918.51 337.68 L917.56 333.22 L914.60 329.58 L913.52 325.16 L912.90 320.54 L910.45 316.70 L906.95 313.36 L905.74 308.99 L903.75 304.96 L900.38 301.63 L898.99 297.33 L896.71 293.47 L893.93 289.88 L893.23 285.18 L890.04 281.83 L886.91 278.47 L885.61 274.06 L882.68 270.61 L879.62 267.25 L877.75 263.17 L876.20 258.87 L875.83 253.77 L874.07 249.54 L872.48 245.18 L871.99 240.01 L868.54 236.90 L864.30 234.38 L862.19 230.33 L858.20 227.69 L855.40 224.17 L852.40 220.81 L849.35 217.49 L846.01 214.43 L842.13 211.83 L838.67 208.91 L835.24 205.97 L832.70 202.26 L828.92 199.67 L825.30 196.95 L823.01 193.00 L819.37 190.32 L815.24 188.14 L812.22 184.89 L807.71 183.17 L804.38 180.26 L801.53 176.84 L797.61 174.58 L793.37 172.71 L790.62 169.17 L787.38 166.20 L783.73 163.69 L779.79 161.55 L776.97 158.05 L774.08 154.62 L770.43 152.13 L766.76 149.67 L763.85 146.20 L760.27 143.62 L756.06 141.93 L752.42 139.46 L747.96 138.18 L744.01 136.19 L741.21 132.47 L736.85 131.12 L732.73 129.44 L729.84 125.79 L725.54 124.42 L721.08 123.36 L717.43 120.96 L713.32 119.35 L710.34 115.70 L706.48 113.63 L702.41 111.95 L698.77 109.46 L694.69 107.83 L690.09 107.27 L685.88 105.97 L681.71 104.62 L677.51 103.35 L673.12 102.55 L669.12 100.89 L665.17 99.08 L661.16 97.44 L657.45 95.01 L653.19 93.99 L649.24 92.15 L645.21 90.53 L640.81 89.97 L636.52 89.13 L631.96 89.16 L628.03 87.28 L623.64 86.87 L619.34 86.24 L615.57 83.72 L611.29 83.00 L606.99 82.37 L602.95 80.75 L598.76 79.70 L594.78 77.72 L590.31 77.95 L586.07 77.14 L582.25 74.18 L577.83 74.20 L573.50 73.87 L569.99 68.50 L565.68 67.77 L561.12 68.79 L557.04 66.41 L552.73 65.63 L548.04 68.18 L543.58 69.06 L539.28 68.58 L535.00 67.81 L530.56 69.04 L526.29 68.17 L521.97 67.81 L517.61 68.65 L513.24 70.12 L508.93 70.59 L504.65 69.17 L500.34 69.30 L496.04 70.25 L491.74 69.98 L487.44 70.14 L483.11 69.45 L478.85 70.49 L474.64 72.13 L470.25 70.73 L465.98 71.36 L461.90 74.03 L457.69 74.86 L453.51 76.02 L449.41 77.64 L445.30 79.00 L441.31 81.08 L437.12 81.69 L432.96 82.48 L428.90 83.80 L424.68 84.21 L420.07 82.57 L415.01 78.99 L411.25 81.98 L406.93 82.24 L402.48 82.01 L399.12 86.35 L395.49 89.33 L391.77 91.84 L387.81 93.37 L383.74 94.49 L379.74 95.82 L375.59 96.69 L371.51 97.77 L367.28 98.43 L362.99 98.96 L359.05 100.54 L355.56 103.32 L351.81 105.34 L347.84 106.78 L344.60 110.03 L340.84 111.91 L336.84 113.23 L333.09 115.13 L329.35 117.05 L325.83 119.42 L322.24 121.63 L318.61 123.72 L315.67 127.21 L312.50 130.15 L309.16 132.71 L306.11 135.79 L303.00 138.71 L299.54 140.95 L296.03 143.10 L292.78 145.69 L289.28 147.83 L285.26 149.12 L280.12 148.66 L276.37 150.50 L273.18 153.19 L268.51 153.67 L265.34 156.41 L263.01 160.34 L260.14 163.45 L256.79 165.88 L254.15 169.25 L251.09 172.04 L246.21 172.46 L242.67 174.66 L240.00 177.96 L235.95 179.55 L233.29 182.83 L231.39 186.99 L229.47 191.06 L226.67 194.09 L224.12 197.38 L221.23 200.28 L218.25 203.09 L215.73 206.37 L212.22 208.63 L209.91 212.11 L206.69 214.68 L204.38 218.13 L202.26 221.74 L198.53 223.85 L195.62 226.73 L193.53 230.34 L189.67 232.40 L186.35 234.96 L184.82 239.03 L182.98 242.80 L181.34 246.71 L180.50 251.22 L179.27 255.38 L177.17 258.84 L174.07 261.56 L172.97 265.75 L169.24 268.04 L164.66 269.80 L161.13 272.32 L158.13 275.24 L155.18 278.21 L152.81 281.56 L151.04 285.29 L150.13 289.52 L149.44 293.85 L149.30 298.46 L147.23 301.93 L144.87 305.26 L141.82 308.22 L139.91 311.80 L137.71 315.24 L135.13 318.50 L134.14 322.55 L134.45 327.20 L132.99 330.97 L133.12 335.46 L130.49 338.70 L129.77 342.77 L126.85 345.92 L122.80 348.65 L123.50 353.28 L121.96 357.02 L119.67 360.48 L117.94 364.17 L118.95 368.80 L116.85 372.35 L112.59 375.22 L113.38 379.73 L113.77 384.07 L113.76 388.27 L114.76 392.72 L116.22 397.25 L116.63 401.46 L116.90 405.60 L115.31 409.28 L114.24 413.09 L114.43 417.18 L111.75 420.65 L109.81 424.31 L106.35 427.72 L106.17 431.75 L104.43 435.52 L102.17 439.23 L102.41 443.32 L102.87 447.44 L102.77 451.46 L103.50 455.57 L103.65 459.60 L104.56 463.68 L102.87 467.53 L102.05 471.46 L102.28 475.47 L98.72 479.28 L99.28 483.32 L100.00 487.36 L99.49 491.35 L100.61 495.37 L102.17 499.37 L100.95 503.36 L102.08 507.33 L102.84 511.29 L101.81 515.30 L103.16 519.23 L103.11 523.21 L103.94 527.14 L105.83 530.97 L107.72 534.77 L109.55 538.55 L111.62 542.27 L112.03 546.15 L111.21 550.20 L112.17 554.02 L111.16 558.13 L111.46 562.07 L113.09 565.78 L114.79 569.46 L114.78 573.45 L118.16 576.77 L120.52 580.25 L121.34 584.04 L123.55 587.51 L125.35 591.05 L127.50 594.48 L127.13 598.56 L125.95 602.88 L128.31 606.24 L127.00 610.66 L126.31 614.94 L127.51 618.67 L127.50 622.78 L124.02 628.11 L123.91 632.36 L126.65 635.61 L124.25 640.75 L124.12 645.10 L128.27 647.79 L131.72 650.70 L131.91 654.93 L134.07 658.35 L137.08 661.38 L138.58 665.06 L140.17 668.70 L143.30 671.61 L145.52 674.93 L148.53 677.83 L152.34 680.29 L155.93 682.82 L159.23 685.46 L161.77 688.48 L164.31 691.49 L166.24 694.84 L162.50 701.58 L166.83 703.54 L171.07 705.49 L169.29 711.23 L173.63 713.09 L178.64 714.43 L180.75 717.67 L181.94 721.55 L184.55 724.44 L183.06 730.31 L186.35 732.75 L191.28 733.92 L193.43 737.15 L197.02 739.25 L201.72 740.43 L203.24 744.13 L203.59 748.86 L207.08 750.96 L207.77 755.48 L210.09 758.61 L214.37 759.97 L213.32 766.22 L215.76 769.29 L217.79 772.78 L218.47 777.62 L221.86 779.82 L223.68 783.61 L226.66 786.22 L228.61 789.92 L228.53 795.88 L234.03 795.77 L237.18 798.22 L240.88 800.01 L247.06 798.85 L252.38 798.57 L256.22 800.00 L258.99 802.72 L262.16 804.94 L265.51 806.94 L268.58 809.28 L272.07 811.05 L273.21 816.08 L277.43 816.83 L282.95 815.64 L284.12 820.76 L287.99 821.92 L293.69 820.18 L296.61 822.70 L298.41 827.05 L302.39 827.89 L303.94 832.80 L306.43 836.22 L311.37 835.34 L314.49 837.65 L318.37 838.57 L323.64 836.78 L327.93 836.74 L329.33 842.41 L334.38 840.78 L338.61 840.69 L340.58 845.43 L344.76 845.40 L346.72 850.38 L350.48 851.31 L354.73 851.02 L356.55 856.68 L359.82 858.88 L365.16 855.66 L368.60 857.31 L371.81 859.65 L375.68 860.15 L379.21 861.60 L382.52 863.75 L386.31 864.44 L390.61 863.40 L394.25 864.47 L398.40 863.72 L402.58 862.71 L406.61 862.15 L410.53 861.86 L413.87 863.95 L417.88 863.14 L421.29 864.99 L423.79 871.40 L428.38 867.67 L432.05 868.41 L435.39 871.06 L439.75 867.78 L443.90 865.27 L447.35 867.24 L450.93 868.45 L454.45 870.30 L457.83 873.63 L461.70 872.76 L465.47 872.67 L469.14 873.68 L473.09 871.11 L477.02 867.83 L480.50 871.79 L484.20 872.55 L488.05 868.92 L491.65 872.85 L495.39 872.02 L499.11 873.16 L502.86 875.90 L506.62 876.12 L510.50 880.05 L514.30 879.99 L518.11 880.19 L521.96 880.83 L525.64 878.58 L529.77 882.78 L533.80 884.83 L537.32 881.14 L541.23 881.62 L544.67 878.06 L547.89 873.24 L550.97 868.02 L554.32 865.30 L558.08 865.46 L561.53 863.66 L565.14 862.88 L568.95 863.18 L572.81 863.63 L577.24 866.68 L580.05 862.04 L583.01 858.38 L587.47 861.16 L590.19 856.75 L592.72 851.94 L596.28 851.14 L599.94 850.69 L603.37 849.43 L607.96 851.97 L611.51 851.00 L613.93 846.57 L617.76 846.48 L620.71 843.84 L622.96 839.38 L625.55 835.98 L628.99 834.94 L632.33 833.62 L635.36 831.55 L639.70 832.64 L643.66 832.70 L649.15 836.13 L653.39 836.58 L657.83 837.34 L663.27 840.07 L667.03 839.16 L668.82 834.31 L672.33 832.95 L674.09 828.28 L676.29 824.54 L679.83 823.30 L683.52 822.31 L686.86 820.68 L690.57 819.64 L693.82 817.84 L695.42 813.35 L697.48 809.73 L699.68 806.37 L700.52 801.03 L704.52 800.48 L708.03 799.17 L712.47 799.13 L716.71 798.72 L719.90 796.83 L724.84 797.24 L727.70 794.84 L729.53 791.15 L730.77 786.77 L733.73 784.57 L737.56 783.41 L740.08 780.67 L743.67 779.17 L746.55 776.83 L748.78 773.77 L749.73 769.36 L748.92 763.15 L748.23 757.22 L753.03 757.00 L753.65 752.53 L752.38 746.29 L757.58 746.38 L757.32 741.26 L761.79 740.57 L766.22 739.77 L769.09 737.53 L776.15 738.89 L779.02 736.54 L782.96 735.06 L784.77 731.79 L784.91 727.20 L792.31 728.36 L795.13 725.84 L796.18 721.99 L799.00 719.47 L798.00 714.18 L797.91 709.63 L797.47 704.91 L796.60 699.96 L799.60 697.66 L803.22 695.72 L805.49 692.89 L809.67 691.22 L813.19 689.09 L816.46 686.77 L815.22 681.82 L813.97 676.94 L814.85 673.31 L811.54 667.45 L810.14 662.72 L810.46 658.95 L811.82 655.73 L812.61 652.24 L817.78 650.84 L819.18 647.62 L818.75 643.56 L821.03 640.75 L821.27 637.04 L820.63 632.99 L824.62 630.86 L827.19 628.11 L826.00 623.90 L830.18 621.72 L831.00 618.27 L831.48 614.72 L834.88 612.16 L836.89 609.10 L840.61 606.55 L845.63 604.34 L846.12 600.72 L843.80 596.33 L845.50 593.09 L844.34 589.09 L844.77 585.54 L846.92 582.40 L848.32 579.06 L850.31 575.83 L852.40 572.60 L850.48 568.56 L848.02 564.48 L846.71 560.65 L844.79 556.77 L841.81 552.77 L845.33 549.79 L847.07 546.50 L849.91 543.32 L852.78 540.10 L854.29 536.69 L857.14 533.38 L856.37 529.71 L855.05 526.03 L851.89 522.26 L852.90 518.79 L855.19 515.35 L853.75 511.74 L854.80 508.23 L855.54 504.69 L854.70 501.13 L851.71 497.60 L846.93 494.17 L843.48 490.79 L846.16 487.25 L842.02 483.98 L839.85 480.67 L840.38 477.22 L836.02 474.14 L840.79 470.34 L842.73 466.71 L842.40 463.29 L847.50 459.22 L847.75 455.66 L848.45 452.03 L847.26 448.65 L844.13 445.59 L850.73 440.94 L849.54 437.54 L848.48 434.13 L848.64 430.48 L844.39 427.74 L840.83 424.92 L835.56 422.56 L833.87 419.42 L832.71 416.17 L832.52 412.67 L833.20 408.93 L833.95 405.12 L835.74 400.97 L835.51 397.38 L831.48 394.98 L829.29 392.04 L826.56 389.31 L820.99 387.60 L817.36 385.30 L814.13 382.90 L812.05 380.11 L810.20 377.25 L810.44 373.54 L808.26 370.82 L806.65 367.88 L805.96 364.54 L801.62 362.83 L797.25 361.22 L795.67 358.33 L793.81 355.59 L791.76 352.96 L790.08 350.15 L788.29 347.41 L788.45 343.61 L788.65 339.74 L787.08 336.84 L786.82 333.18 L786.03 329.78 L783.48 327.44 L781.68 324.65 L779.47 322.12 L776.92 319.83 L774.30 317.60 L773.25 314.34 L771.77 311.34 L769.25 309.07 L767.48 306.28 L765.35 303.75 L763.48 301.03 L760.45 299.19 L757.08 297.66 L754.87 295.23 L752.62 292.86 L749.96 290.82 L747.39 288.72 L745.03 286.47 L742.56 284.31 L739.94 282.31 L737.28 280.36 L734.38 278.65 L731.50 276.95 L728.73 275.16 L725.91 273.45 L724.01 270.82 L722.64 267.62 L722.37 263.20 L720.21 260.75 L718.93 257.31 L716.53 255.09 L713.25 253.89 L709.99 252.69 L707.23 250.94 L704.21 249.52 L701.49 247.74 L698.64 246.15 L697.53 242.30 L694.98 240.29 L691.27 239.85 L689.56 236.70 L687.02 234.67 L682.73 235.18 L679.51 234.18 L677.09 232.04 L673.95 230.98 L670.81 229.95 L668.04 228.35 L665.52 226.35 L662.67 224.88 L659.76 223.52 L656.95 222.02 L653.81 221.10 L651.33 218.98 L648.56 217.40 L645.35 216.65 L642.41 215.42 L639.67 213.77 L636.50 213.03 L632.96 213.10 L630.05 211.87 L627.23 210.43 L624.18 209.52 L621.34 208.12 L618.59 206.49 L615.22 206.42 L612.11 205.71 L609.17 204.58 L607.15 200.89 L604.44 199.01 L601.39 198.07 L599.25 194.37 L596.10 193.67 L592.48 194.54 L589.24 194.26 L585.86 194.51 L582.80 193.68 L579.86 192.36 L577.11 190.26 L573.99 189.56 L570.83 189.08 L567.81 187.97 L564.48 188.27 L561.24 188.26 L558.27 186.85 L555.07 186.67 L551.97 185.92 L548.91 184.89 L545.75 184.43 L542.61 183.88 L539.43 183.63 L536.23 183.53 L533.05 183.30 L529.86 183.18 L526.66 183.24 L523.47 183.31 L520.14 185.65 L517.02 185.00 L513.88 184.54 L510.66 186.32 L507.51 186.98 L504.37 187.28 L501.24 188.26 L498.13 189.76 L495.05 191.06 L491.97 191.29 L488.87 191.09 L485.79 191.45 L482.70 191.49 L479.48 189.67 L476.33 189.17 L473.33 190.70 L470.09 189.49 L466.99 189.83 L464.11 192.08 L461.12 193.08 L458.13 194.04 L455.23 195.55 L452.18 196.00 L449.17 196.66 L445.81 195.32 L442.83 196.23 L439.83 196.98 L436.66 196.90 L433.90 198.77 L431.04 200.09 L428.03 200.76 L425.16 201.97 L422.19 202.76 L418.92 202.42 L416.37 204.76 L413.88 207.16 L410.95 208.02 L408.43 210.16 L405.77 211.82 L403.00 213.08 L400.31 214.58 L397.56 215.86 L394.92 217.43 L392.31 219.03 L389.01 218.87 L386.19 219.96 L383.88 222.27 L380.43 221.87 L378.04 223.96 L375.96 226.68 L372.90 227.22 L370.65 229.47 L368.17 231.24 L365.11 231.80 L362.03 232.39 L358.95 233.01 L355.93 233.76 L352.85 234.45 L349.73 235.12 L347.64 237.58 L345.14 239.30 L342.25 240.38 L340.59 243.47 L337.58 244.37 L334.80 245.65 L329.07 242.50 L327.16 245.18 L325.84 248.69 L320.41 246.31 L317.81 248.02 L317.18 252.41 L314.11 253.44 L312.32 256.18 L310.20 258.46 L307.80 260.38 L304.89 261.67 L303.22 264.48 L302.19 268.00 L299.82 269.92 L299.05 273.65 L298.50 277.55 L296.77 280.10 L294.90 282.48 L292.91 284.72 L291.15 287.19 L286.47 286.74 L282.67 287.24 L283.76 292.50 L280.75 293.78 L278.57 295.86 L280.18 301.38 L279.57 304.80 L276.59 306.11 L275.50 309.06 L272.22 310.17 L267.49 310.14 L267.35 313.87 L266.48 316.97 L263.95 318.77 L264.42 322.85 L265.35 327.19 L259.76 326.75 L257.60 328.85 L258.73 333.24 L253.09 332.96 L251.96 335.79 L249.73 337.89 L246.88 339.62 L245.25 342.13 L240.16 342.55 L237.97 344.79 L236.34 347.36 L235.50 350.38 L234.31 353.20 L227.59 353.03 L224.40 354.84 L226.04 359.19 L224.16 361.69 L225.98 366.02 L228.14 370.42 L232.13 375.60 L232.72 379.10 L231.36 381.71 L230.11 384.37 L229.38 387.25 L227.20 389.53 L224.70 391.71 L220.71 393.35 L223.40 397.53 L224.87 401.20 L220.68 402.83 L222.63 406.61 L225.74 410.70 L222.80 412.80 L219.90 414.95 L219.40 417.86 L214.29 419.45 L214.04 422.46 L215.78 425.98 L214.86 428.78 L216.83 432.27 L219.43 435.85 L216.82 438.23 L215.23 440.86 L218.10 444.39 L215.18 446.76 L214.47 449.58 L216.07 452.79 L211.71 455.02 L212.75 458.12 L210.88 460.79 L207.74 463.34 L208.59 466.41 L211.75 469.69 L208.64 472.30 L209.45 475.31 L208.59 478.17 L208.56 481.09 L208.04 483.99 L209.42 486.98 L209.81 489.90 L211.12 492.84 L213.76 495.77 L214.45 498.64 L216.27 501.48 L217.28 504.30 L217.94 507.12 L219.43 509.89 L214.50 512.92 L214.09 515.80 L218.13 518.41 L214.85 521.49 L215.67 524.29 L219.15 526.82 L220.77 529.49 L219.11 532.51 L219.82 535.27 L217.10 538.49 L216.10 541.52 L220.46 543.74 L219.82 546.72 L221.28 549.34 L225.63 551.41 L229.13 553.56 L223.27 557.60 L226.14 559.87 L229.44 561.99 L225.23 565.85 L227.76 568.13 L225.34 571.66 L223.92 574.99 L226.37 577.27 L222.75 581.29 L222.60 584.36 L223.53 587.11 L223.70 590.10 L226.63 592.18 L220.97 597.20 L222.35 599.85 L225.12 601.97 L226.86 604.44 L232.44 605.39 L237.41 606.47 L241.45 607.86 L241.62 610.84 L242.95 613.32 L243.96 615.95 L243.67 619.18 L245.42 621.48 L245.77 624.45 L245.40 627.80 L251.31 627.96 L252.45 630.52 L254.07 632.83 L260.10 632.69 L262.20 634.65 L262.55 637.61 L263.59 640.18 L264.04 643.12 L261.32 648.06 L262.85 650.41 L266.56 651.35 L267.08 654.35 L269.91 655.80 L274.25 656.18 L276.78 657.76 L278.69 659.75 L281.84 660.82 L282.79 663.49 L283.64 666.27 L283.93 669.51 L282.16 674.44 L281.99 678.18 L281.82 682.00 L281.51 685.99 L284.05 687.59 L287.94 687.96 L290.16 689.77 L293.40 690.63 L295.24 692.76 L297.84 694.16 L298.68 697.27 L299.86 700.07 L301.95 701.98 L305.96 701.89 L309.91 701.78 L313.00 702.52 L317.21 701.98 L321.05 701.75 L321.63 705.20 L322.34 708.56 L322.24 712.95 L323.88 715.33 L324.92 718.47 L325.20 722.65 L328.60 722.87 L331.85 723.23 L335.56 722.92 L337.73 724.65 L339.42 727.05 L341.62 728.75 L343.38 731.12 L346.16 731.97 L348.59 733.35 L352.63 732.18 L357.81 729.05 L361.74 727.77 L362.31 732.03 L366.91 729.47 L369.50 730.27 L370.97 733.09 L375.01 731.22 L375.04 736.79 L375.65 741.45 L377.94 742.95 L378.81 747.35 L381.11 748.92 L382.83 751.76 L386.23 750.99 L390.36 748.47 L390.84 754.23 L393.78 754.37 L396.13 755.92 L398.84 756.57 L402.23 755.43 L404.95 755.94 L408.42 754.37 L411.67 753.27 L414.22 754.09 L416.31 756.35 L418.24 759.17 L420.32 761.69 L422.23 764.88 L425.00 765.22 L428.48 762.95 L431.29 762.96 L435.05 759.15 L438.73 755.24 L441.92 753.07 L445.06 750.90 L447.72 750.71 L450.08 752.00 L452.13 754.99 L454.88 754.33 L457.27 755.69 L459.83 756.15 L462.72 754.29 L465.48 753.05 L467.35 758.61 L470.12 757.42 L472.99 754.89 L475.09 759.82 L477.71 759.82 L480.20 761.50 L482.81 761.77 L485.33 763.68 L487.71 769.42 L490.35 771.15 L493.13 768.68 L495.84 767.28 L498.51 767.01 L501.17 765.03 L503.82 764.59 L506.47 764.87 L509.17 766.26 L511.85 766.58 L514.56 767.35 L517.10 765.09 L519.58 762.56 L521.98 759.77 L524.36 757.19 L526.94 757.01 L529.55 757.16 L532.21 757.56 L535.41 761.86 L537.99 761.24 L540.83 762.31 L543.79 763.95 L546.18 762.08 L548.34 759.11 L550.53 756.62 L553.27 756.93 L555.84 756.40 L558.57 756.60 L561.22 756.37 L563.78 755.71 L565.97 753.66 L567.67 749.90 L568.94 744.89 L571.41 744.24 L573.83 743.47 L575.11 739.04 L578.16 740.32 L580.24 738.59 L582.08 736.21 L585.69 738.88 L588.81 739.98 L592.01 741.19 L595.05 741.88 L597.14 740.11 L600.46 741.36 L602.10 738.54 L605.38 739.55 L609.17 741.58 L610.80 738.80 L613.95 739.30 L615.41 736.24 L616.34 732.23 L617.12 728.06 L617.45 723.18 L619.24 721.18 L621.63 720.31 L625.21 721.54 L628.61 722.34 L631.72 722.55 L635.65 724.04 L637.51 722.07 L637.39 717.01 L639.42 715.41 L639.15 710.35 L639.23 705.97 L639.38 701.81 L640.07 698.53 L641.79 696.76 L645.18 697.27 L647.30 696.02 L647.45 692.19 L650.77 692.50 L651.93 690.03 L651.34 685.47 L651.37 681.75 L653.66 680.80 L655.63 679.45 L656.96 677.37 L659.41 676.55 L663.06 677.00 L664.68 675.21 L667.82 675.01 L672.89 676.72 L675.30 675.64 L678.33 675.14 L680.66 673.91 L682.27 671.99 L682.28 668.58 L682.39 665.33 L684.14 663.59 L686.05 661.98 L688.15 660.54 L691.34 659.98 L692.56 657.75 L692.67 654.66 L693.21 651.93 L692.91 648.60 L691.78 644.70 L692.32 642.11 L696.15 641.93 L699.44 641.29 L700.40 638.99 L704.58 638.87 L709.44 639.13 L710.46 636.80 L711.63 634.56 L711.56 631.57 L712.63 629.30 L714.52 627.53 L713.71 624.18 L715.41 622.30 L717.05 620.38 L717.29 617.69 L716.74 614.60 L715.57 611.24 L713.59 607.52 L712.19 604.17 L711.12 601.04 L710.17 598.02 L710.53 595.63 L710.96 593.29 L711.53 591.03 L713.42 589.32 L717.31 588.41 L718.05 586.18 L719.40 584.18 L719.29 581.63 L718.26 578.78 L716.67 575.76 L714.98 572.77 L716.94 571.02 L720.79 569.84 L723.89 568.37 L725.85 566.50 L727.82 564.62 L729.44 562.60 L727.26 559.57 L726.07 556.85 L728.88 555.13 L731.68 553.36 L733.79 551.39 L737.28 549.68 L738.83 547.51 L738.09 544.89 L737.26 542.29 L734.20 539.33 L731.25 536.46 L729.55 533.84 L727.74 531.25 L725.85 528.69 L724.59 526.25 L723.79 523.89 L723.49 521.61 L723.70 519.37 L723.59 517.11 L724.26 514.91 L725.37 512.72 L725.49 510.46 L725.15 508.19 L725.09 505.94 L725.64 503.69 L726.18 501.44 L726.78 499.18 L726.05 496.92 L729.63 494.57 L732.84 492.17 L732.57 489.85 L734.10 487.43 L734.32 485.07 L732.60 482.84 L729.87 480.73 L727.09 478.68 L727.65 476.32 L728.65 473.91 L729.58 471.47 L731.60 468.87 L730.90 466.61 L729.62 464.44 L728.02 462.35 L725.06 460.53 L722.29 458.72 L722.55 456.36 L724.54 453.63 L725.61 451.06 L725.12 448.80 L728.00 445.74 L729.12 443.05 L728.44 440.79 L728.04 438.45 L725.52 436.70 L724.88 434.45 L724.70 432.06 L722.28 430.36 L721.38 428.20 L720.87 425.92 L718.83 424.16 L715.55 422.87 L712.74 421.47 L708.92 420.50 L705.73 419.34 L702.50 418.26 L701.01 416.52 L698.98 415.02 L696.30 413.83 L694.31 412.38 L696.03 409.23 L696.34 406.70 L695.10 404.88 L695.55 402.23 L693.36 400.90 L690.59 399.89 L686.89 399.44 L684.10 398.56 L685.49 395.36 L687.21 391.91 L688.15 388.84 L688.84 385.87 L688.85 383.27 L686.42 382.18 L683.64 381.35 L681.54 380.12 L681.52 377.51 L682.25 374.34 L682.76 371.28 L683.48 368.00 L682.34 366.04 L679.38 365.43 L676.22 365.02 L673.13 364.62 L668.61 365.42 L664.29 366.15 L662.02 365.28 L659.85 364.37 L656.51 364.48 L653.59 364.30 L652.49 362.54 L650.75 361.35 L648.05 361.07 L645.95 360.27 L644.74 358.62 L646.86 353.66 L649.31 348.21 L646.57 347.99 L647.25 344.20 L647.40 340.88 L644.89 340.41 L644.69 337.40 L641.41 337.85 L640.67 335.40 L640.83 331.83 L637.84 332.03 L634.06 333.26 L633.82 330.11 L631.81 329.16 L629.56 328.56 L627.36 327.92 L626.34 325.69 L623.26 326.31 L621.90 324.54 L618.65 325.52 L615.71 326.12 L613.67 325.42 L610.93 325.85 L608.86 325.27 L606.62 324.99 L604.83 323.98 L605.29 319.12 L603.52 318.00 L599.71 320.54 L599.54 316.56 L596.70 317.46 L592.69 320.72 L589.86 321.86 L587.92 321.27 L586.25 320.16 L586.64 314.61 L585.53 312.11 L582.52 313.79 L581.92 310.04 L579.53 310.40 L576.12 313.32 L573.46 314.57 L573.88 307.90 L571.11 309.44 L568.73 310.05 L567.69 306.91 L564.64 309.51 L564.26 304.22 L562.76 302.14 L560.74 301.64 L560.68 294.54 L558.35 294.88 L556.94 291.99 L554.97 290.99 L552.21 293.11 L551.67 286.26 L549.21 287.11 L546.56 288.96 L544.21 289.65 L540.99 294.80 L538.15 298.56 L535.63 300.98 L533.41 301.98 L532.00 298.07 L529.99 297.67 L527.93 297.66 L526.08 296.00 L523.98 296.27 L522.15 294.14 L519.60 298.89 L517.58 298.79 L515.56 298.74 L513.28 302.51 L511.18 304.63 L509.22 304.66 L507.24 305.28 L505.33 303.78 L503.44 299.83 L501.41 302.98 L499.44 303.02 L497.45 301.60 L495.56 305.36 L493.70 308.26 L491.53 302.33 L489.57 302.77 L487.86 307.01 L485.58 302.42 L483.68 303.37 L481.65 302.86 L479.63 302.66 L477.75 303.62 L475.27 299.70 L473.03 298.15 L471.61 302.59 L469.92 304.75 L467.64 303.02 L465.69 303.48 L463.63 303.29 L461.77 304.20 L459.56 303.38 L457.94 305.36 L455.98 305.74 L454.84 309.56 L453.41 311.94 L451.88 313.73 L450.43 315.76 L448.83 317.11 L447.38 318.96 L445.60 319.56 L441.88 313.97 L440.61 316.39 L440.06 320.82 L436.61 316.62 L435.72 319.91 L435.27 324.23 L433.85 325.77 L432.14 326.51 L430.48 327.38 L426.59 322.85 L425.15 324.35 L424.87 328.46 L422.15 327.00 L420.98 328.98 L421.13 333.69 L418.77 333.04 L415.25 330.15 L414.72 333.28 L412.32 332.74 L410.49 333.33 L410.30 336.90 L405.89 332.86 L404.36 334.06 L401.22 332.51 L397.48 330.06 L396.59 332.40 L394.36 332.56 L392.22 332.89 L390.30 333.59 L385.52 330.07 L385.21 333.22 L383.61 334.47 L382.34 336.17 L383.34 340.95 L384.68 346.02 L385.40 350.13 L384.49 352.03 L382.94 353.11 L382.19 355.16 L379.86 355.27 L378.47 356.54 L375.36 355.82 L374.13 357.31 L375.74 361.93 L372.58 361.24 L372.54 363.96 L373.48 367.64 L373.78 370.56 L372.96 372.31 L372.18 374.06 L368.48 372.99 L365.92 373.09 L367.20 376.79 L364.92 377.16 L364.30 379.06 L366.12 383.06 L367.47 386.55 L366.99 388.43 L365.84 389.73 L364.27 390.70 L362.79 391.75 L361.27 392.79 L354.34 389.74 L351.57 389.95 L349.67 390.86 L343.06 388.44 L339.35 388.21 L340.84 391.59 L340.69 393.80 L341.13 396.38 L342.04 399.21 L340.77 400.62 L339.72 402.18 L337.33 402.94 L335.34 403.97 L334.06 405.44 L334.81 408.04 L335.97 410.82 L338.83 414.46 L340.71 417.49 L340.51 419.39 L339.59 420.93 L337.18 421.76 L331.44 421.06 L331.22 423.01 L327.48 423.38 L325.35 424.51 L326.33 426.99 L328.06 429.73 L328.91 432.07 L326.88 433.26 L325.62 434.77 L324.01 436.16 L322.51 437.62 L322.19 439.50 L323.36 441.86 L327.36 445.09 L331.84 448.36 L330.09 449.67 L329.69 451.40 L334.70 454.61 L331.04 455.42 L332.50 457.59 L333.82 459.69 L328.16 460.13 L326.21 461.51 L322.66 462.58 L319.82 463.86 L318.80 465.53 L317.14 467.11 L319.08 469.32 L315.34 470.59 L312.13 472.00 L314.04 474.18 L312.20 475.84 L314.26 477.99 L318.58 480.34 L322.88 482.59 L326.78 484.72 L326.84 486.47 L325.33 488.11 L323.60 489.76 L319.21 491.32 L316.89 493.05 L313.05 494.77 L315.17 496.68 L320.94 498.57 L321.01 500.36 L326.17 502.09 L331.28 503.72 L334.58 505.30 L335.61 506.91 L335.77 508.55 L332.51 510.40 L332.12 512.11 L335.11 513.56 L332.11 515.50 L333.69 517.03 L338.39 518.18 L339.51 519.68 L332.79 522.21 L336.39 523.40 L336.64 525.03 L335.87 526.83 L340.51 527.71 L335.48 530.28 L334.96 532.09 L334.82 533.83 L328.07 537.01 L325.08 539.49 L328.85 540.44 L329.07 542.20 L332.32 543.18 L333.78 544.58 L333.07 546.56 L332.07 548.66 L332.43 550.38 L331.24 552.58 L331.30 554.42 L335.43 554.91 L338.47 555.70 L342.49 556.08 L346.61 556.35 L345.97 558.33 L344.99 560.49 L343.24 562.98 L341.42 565.56 L341.00 567.61 L339.06 570.34 L340.55 571.60 L343.09 572.35 L346.40 572.69 L347.74 573.93 L346.44 576.47 L347.46 577.87 L347.34 579.87 L347.42 581.78 L348.95 582.92 L351.95 583.21 L357.02 582.25 L362.40 581.00 L360.05 584.28 L362.75 584.53 L368.41 582.87 L365.67 586.49 L369.00 586.21 L368.54 588.41 L366.60 591.66 L366.07 594.01 L362.18 598.82 L362.38 600.77 L362.23 603.01 L363.78 603.99 L367.34 603.39 L363.82 608.34 L363.97 610.46 L367.30 609.97 L366.93 612.55 L370.33 611.92 L374.31 610.70 L378.01 609.62 L382.02 608.17 L383.24 609.22 L383.44 611.24 L383.84 613.09 L383.20 616.01 L382.91 618.65 L381.94 622.06 L385.58 620.69 L389.37 619.05 L390.55 620.17 L394.17 618.56 L398.18 616.38 L400.73 615.79 L402.41 616.15 L404.58 615.91 L403.24 619.96 L405.81 619.20 L408.77 617.86 L409.05 619.95 L411.11 619.70 L415.41 616.32 L416.65 617.06 L415.59 621.09 L418.21 619.88 L419.10 621.15 L419.28 623.54 L422.16 621.78 L419.69 628.46 L419.86 631.07 L419.74 634.27 L418.62 639.29 L419.29 641.37 L422.44 639.06 L423.84 639.82 L426.61 638.01 L428.44 637.86 L429.63 638.95 L430.32 641.09 L431.37 642.52 L431.90 645.12 L434.09 644.19 L436.61 642.43 L439.16 640.45 L442.18 637.23 L445.07 634.10 L445.74 636.34 L446.42 638.65 L446.54 642.57 L447.24 645.10 L448.12 647.24 L448.40 651.26 L450.18 650.97 L452.29 649.57 L454.81 646.72 L456.07 647.87 L457.06 650.01 L458.66 650.11 L459.67 652.35 L461.28 652.41 L462.89 652.46 L465.09 649.95 L467.77 644.97 L470.18 640.75 L472.17 638.16 L474.09 635.63 L475.72 634.39 L477.33 633.06 L478.93 631.62 L479.02 640.01 L479.94 643.63 L481.21 645.11 L481.85 652.08 L483.33 652.68 L484.71 654.30 L486.25 654.49 L488.09 650.85 L489.07 658.66 L490.64 659.16 L492.30 657.70 L493.85 658.62 L495.59 653.37 L497.20 649.09 L498.73 644.66 L500.17 640.73 L501.59 641.11 L503.02 642.22 L504.54 645.19 L506.11 647.97 L507.71 650.30 L509.37 652.85 L510.65 649.31 L511.90 646.20 L513.14 643.57 L514.04 638.18 L514.92 633.60 L515.89 630.39 L517.04 629.06 L518.30 628.71 L520.36 633.60 L521.40 631.56 L522.51 630.18 L524.27 632.42 L524.94 628.82 L525.29 623.98 L527.89 630.07 L529.53 631.28 L529.74 626.30 L532.20 630.88 L533.12 629.04 L534.24 628.06 L536.26 630.38 L538.12 631.95 L540.97 636.69 L543.63 640.42 L545.09 640.17 L545.52 636.80 L546.75 635.93 L547.26 633.07 L548.16 631.44 L550.12 632.65 L551.73 632.89 L553.49 633.43 L555.54 634.65 L555.89 631.73 L556.01 628.42 L555.93 624.84 L555.48 620.58 L555.30 617.09 L557.85 619.38 L559.97 620.66 L563.29 624.22 L565.21 624.89 L567.39 625.97 L569.86 627.50 L570.38 625.46 L570.46 622.71 L570.16 619.41 L571.89 619.60 L574.13 620.58 L575.23 619.67 L576.80 619.50 L578.21 619.05 L578.71 617.24 L577.79 613.40 L575.95 608.38 L575.31 605.21 L578.34 607.16 L577.13 603.32 L578.64 603.17 L580.39 603.32 L579.37 599.93 L584.10 603.74 L586.56 604.61 L587.28 603.37 L590.64 605.19 L591.82 604.42 L592.98 603.64 L593.50 602.15 L593.82 600.46 L599.40 604.32 L599.22 602.07 L600.64 601.49 L601.58 600.40 L598.87 595.79 L596.46 591.60 L594.35 587.82 L593.00 584.85 L594.07 584.11 L596.38 584.46 L599.20 585.19 L602.73 586.45 L606.04 587.44 L607.08 586.52 L604.76 582.92 L604.13 580.74 L602.03 577.49 L598.38 573.18 L595.83 569.80 L594.37 567.31 L594.06 565.68 L596.95 566.26 L600.34 567.12 L598.06 564.18 L600.24 564.19 L601.19 563.38 L597.83 559.92 L594.89 556.82 L595.54 555.92 L595.30 554.51 L595.92 553.60 L596.26 552.53 L595.96 551.13 L595.65 549.74 L595.82 548.62 L596.02 547.52 L596.20 546.41 L596.37 545.32 L596.57 544.24 L596.79 543.17 L597.00 542.11 L597.21 541.05 L597.42 539.99 L597.62 538.94 L597.81 537.89 L598.00 536.84 L598.18 535.79 L598.35 534.74 L598.51 533.69 L598.66 532.65 L598.80 531.60 L598.93 530.55 L599.05 529.51 L599.16 528.47 L599.26 527.42 L599.35 526.38 L599.43 525.34 L599.50 524.30 L599.56 523.26 L599.61 522.23 L599.64 521.19 L599.67 520.16 L599.69 519.13 L599.69 518.10 L599.69 517.07 L599.68 516.04 L599.65 515.02 L599.61 513.99 L599.57 512.97 L599.51 511.95 L599.44 510.94 L599.37 509.93 L599.28 508.91 L599.18 507.91 L599.19 506.91 L599.07 505.91 L598.89 504.90 L598.83 503.91 L598.64 502.92 L598.43 501.93 L598.22 500.94 Z"/>
  <svg class="pausebutton" id="pausebutton">
    <circle cx="500" cy="500" id="pausestart" class="pausestart" r="52.65"/>
    <rect height="50.02" width="10.00" y="473.68" rx="2.00" ry="2.00" x="479.99" class="pausesymbol"/>
    <rect height="50.02" width="10.00" y="473.68" rx="2.00" ry="2.00" x="510.00" class="pausesymbol"/>
    <polygon points="530.01,500 479.99,530.01 479.99,469.99" class="playsymbol"/>
  </svg>
  <polygon id="playback-head" class="playback-head" points="941.65,500 921.65,540 961.65,540"/>
</svg>