<?xml-stylesheet href="../../style/waveformjs.css" type="text/css"?>
<svg xmlns="http://www.w3.org/2000/svg" xmlns:xlink="http://www.w3.org/1999/xlink" width="100%" height="100%" viewBox="0 0 1000 1000">
  <path class="svg-wave" id="sp" d="M597.85 500.00 L598.02 500.98 L598.18 501.96 L598.33 502.95 L598.47 503.94 L598.60 504.93 L598.72 505.93 L598.82 506.93 L598.92 507.93 L599.01 508.93 L599.09 509.94 L599.15 510.95 L599.21 511.96 L599.25 512.98 L599.28 513.99 L599.31 515.01 L599.32 516.03 L599.32 517.05 L599.30 518.07 L599.29 519.09 L599.25 520.12 L599.21 521.15 L599.15 522.17 L599.09 523.20 L599.00 524.23 L598.91 525.25 L598.81 526.28 L598.68 527.31 L598.56 528.34 L598.42 529.37 L598.28 530.40 L598.12 531.43 L597.96 532.46 L597.78 533.49 L597.58 534.52 L597.38 535.55 L597.15 536.57 L596.92 537.59 L596.66 538.61 L596.43 539.64 L596.14 540.65 L595.87 541.67 L595.58 542.68 L595.28 543.70 L594.98 544.71 L594.64 545.72 L594.31 546.73 L593.95 547.72 L593.62 548.74 L593.23 549.73 L592.85 550.73 L592.46 551.72 L592.05 552.70 L591.63 553.69 L591.18 554.66 L590.75 555.64 L590.27 556.60 L589.82 557.57 L589.30 558.51 L588.82 559.47 L588.29 560.40 L587.76 561.33 L587.22 562.27 L586.65 563.18 L586.12 564.12 L585.51 565.01 L584.97 565.94 L584.35 566.83 L583.72 567.70 L583.06 568.55 L582.42 569.42 L581.77 570.28 L581.10 571.13 L580.46 572.01 L579.76 572.82 L579.11 573.69 L578.36 574.47 L577.64 575.29 L576.91 576.08 L576.16 576.86 L575.40 577.63 L574.67 578.44 L573.85 579.15 L573.05 579.87 L572.30 580.66 L571.35 581.22 L570.62 582.03 L569.70 582.61 L568.70 583.10 L567.95 583.89 L566.88 584.28 L565.86 584.72 L565.03 585.40 L563.71 585.43 L562.76 585.93 L561.36 585.81 L558.85 584.05 L557.66 584.14 L556.48 584.22 L554.71 583.37 L555.06 585.76 L555.83 588.90 L555.82 590.89 L556.26 593.69 L556.24 595.81 L555.04 595.95 L551.77 592.38 L547.13 586.10 L545.93 585.95 L547.93 591.90 L544.00 586.46 L545.57 591.80 L548.79 600.81 L547.73 601.19 L546.73 601.68 L545.99 602.76 L544.97 603.25 L543.65 603.01 L542.78 603.83 L541.35 603.28 L539.02 600.36 L536.65 597.14 L535.37 596.67 L534.97 598.61 L531.89 592.86 L531.03 593.38 L532.97 602.63 L530.76 599.15 L529.86 599.77 L530.81 606.82 L529.63 606.71 L527.75 603.97 L525.23 598.47 L523.90 597.31 L523.91 601.73 L520.21 590.05 L519.54 591.30 L521.62 606.21 L518.27 594.57 L516.26 588.98 L516.93 598.13 L514.53 589.59 L513.34 587.77 L513.63 596.18 L512.28 593.34 L511.29 593.01 L511.86 606.62 L510.11 600.00 L508.48 593.09 L508.28 602.29 L507.10 600.09 L505.55 591.11 L504.74 593.14 L503.97 597.34 L502.89 593.74 L501.95 593.89 L501.16 607.42 L500.08 598.97 L499.09 599.20 L497.90 609.14 L497.09 599.78 L496.22 596.41 L494.55 610.58 L493.70 606.35 L492.47 608.59 L490.64 617.90 L489.28 619.81 L487.78 622.75 L486.77 620.69 L486.27 614.66 L485.93 608.28 L484.73 609.01 L484.45 603.45 L484.60 595.89 L482.80 600.69 L481.99 599.43 L481.73 595.42 L480.26 597.79 L478.54 601.08 L478.42 596.88 L477.15 597.94 L474.76 603.51 L475.49 596.31 L474.60 595.78 L471.37 603.76 L472.39 596.31 L471.88 594.50 L467.79 604.41 L469.24 596.29 L469.58 592.04 L466.33 598.55 L467.74 591.44 L466.77 591.26 L462.92 598.74 L463.32 594.79 L462.71 593.58 L457.42 603.82 L458.02 599.52 L459.54 593.29 L456.05 598.62 L454.36 599.73 L456.17 593.30 L453.92 595.59 L449.90 601.32 L452.31 594.07 L451.52 593.31 L445.92 601.59 L449.00 593.53 L451.18 587.45 L445.76 594.91 L442.74 597.90 L442.75 595.68 L439.79 598.38 L433.93 605.57 L429.52 610.16 L429.77 607.38 L428.34 607.21 L424.98 609.84 L424.47 608.25 L423.80 606.91 L424.50 603.73 L426.73 598.58 L426.55 596.78 L423.72 598.45 L426.93 592.38 L426.44 591.11 L419.49 597.71 L421.04 593.90 L423.52 589.13 L421.18 590.02 L423.42 585.71 L421.18 586.46 L425.70 579.89 L425.37 578.65 L417.01 585.72 L422.39 578.57 L423.45 575.97 L415.25 582.44 L420.47 575.83 L422.36 572.56 L417.54 575.54 L421.32 570.64 L419.08 571.20 L413.72 574.40 L414.36 572.37 L413.64 571.51 L406.03 576.24 L404.76 575.70 L411.04 569.27 L407.18 570.80 L403.37 572.18 L409.98 565.86 L408.56 565.50 L402.07 568.68 L406.53 564.16 L406.64 562.73 L397.95 567.09 L403.70 561.94 L405.07 559.73 L395.08 564.56 L395.23 563.03 L398.60 559.63 L394.76 560.48 L391.60 560.86 L396.55 556.73 L397.50 554.88 L395.33 554.71 L392.99 554.57 L393.48 552.99 L389.57 553.56 L390.88 551.59 L392.75 549.40 L389.32 549.64 L390.52 547.79 L392.75 545.55 L391.91 544.63 L387.94 544.97 L391.53 542.27 L388.83 542.05 L385.45 542.02 L387.69 539.93 L386.18 539.19 L383.90 538.68 L386.98 536.40 L380.80 537.08 L381.12 535.68 L378.13 535.25 L372.93 535.39 L374.06 533.72 L368.45 533.81 L369.31 532.20 L369.39 530.80 L365.64 530.27 L363.97 529.22 L365.36 527.52 L365.93 526.01 L365.17 524.76 L368.63 522.77 L367.85 521.54 L369.48 519.94 L371.53 518.31 L370.80 517.10 L372.28 515.61 L375.91 513.90 L371.92 513.06 L374.77 511.50 L377.07 510.05 L371.82 509.19 L377.30 507.57 L371.72 506.62 L370.77 505.38 L371.11 504.07 L367.22 502.87 L367.60 501.53 L368.82 500.21 L367.89 498.89 L366.75 497.55 L365.04 496.17 L364.00 494.77 L362.15 493.32 L362.01 491.93 L361.88 490.54 L359.07 488.93 L360.33 487.62 L360.10 486.19 L361.30 484.90 L361.25 483.49 L365.73 482.66 L369.72 481.85 L367.07 480.13 L364.65 478.38 L369.83 477.87 L369.77 476.52 L369.45 475.11 L367.26 473.31 L369.83 472.47 L368.55 470.82 L359.23 467.28 L362.50 466.58 L358.44 464.09 L359.55 462.88 L360.76 461.70 L359.59 459.87 L360.92 458.74 L361.87 457.51 L361.71 455.94 L360.55 454.04 L361.64 452.85 L359.54 450.57 L361.35 449.64 L364.60 449.28 L365.22 447.97 L369.24 448.01 L375.67 449.13 L372.64 446.39 L374.34 445.62 L380.21 446.73 L377.28 443.96 L381.16 444.28 L380.90 442.70 L380.33 440.95 L379.89 439.23 L379.95 437.74 L378.12 435.24 L380.65 435.04 L381.46 433.94 L379.87 431.47 L379.85 429.86 L381.50 429.22 L379.76 426.54 L380.62 425.42 L384.92 426.50 L382.87 423.52 L384.52 422.94 L387.46 423.27 L389.29 422.88 L385.90 418.82 L390.30 420.28 L391.24 419.29 L389.99 416.65 L390.22 415.08 L391.93 414.66 L390.32 411.59 L393.37 412.28 L392.92 410.10 L391.57 407.10 L391.07 404.77 L388.54 400.57 L391.15 400.92 L388.27 396.25 L389.38 395.20 L390.65 394.30 L389.33 390.87 L388.67 388.00 L392.29 389.45 L398.08 393.28 L399.52 392.66 L398.58 389.46 L402.74 391.84 L403.75 390.78 L401.94 386.47 L403.53 386.02 L405.27 385.78 L409.17 388.23 L409.57 386.41 L409.65 384.16 L413.69 387.02 L411.75 382.06 L415.77 385.05 L417.49 385.00 L416.29 380.84 L417.66 380.26 L420.23 381.48 L419.37 377.57 L420.41 376.48 L423.71 378.96 L421.95 373.38 L423.51 373.09 L426.26 374.84 L425.13 369.95 L426.45 369.24 L430.69 373.84 L430.02 369.55 L432.29 370.69 L434.57 371.94 L436.29 372.18 L435.97 368.25 L438.69 370.57 L439.65 369.23 L440.43 367.46 L440.41 363.78 L442.05 363.83 L442.35 360.69 L443.52 359.57 L445.15 359.57 L445.33 355.81 L445.89 352.85 L447.04 351.41 L449.10 352.55 L448.90 347.02 L450.42 346.49 L451.98 346.05 L451.54 339.00 L452.94 337.79 L454.56 337.31 L456.46 337.88 L457.87 336.62 L459.79 337.37 L461.66 337.99 L463.33 337.82 L465.47 339.89 L467.54 341.82 L469.20 341.89 L471.90 347.63 L473.50 347.83 L474.53 344.54 L477.15 351.23 L478.30 348.66 L479.84 348.62 L481.37 348.56 L482.71 346.80 L484.63 350.43 L486.15 350.55 L487.54 349.12 L489.46 354.69 L490.71 351.28 L491.96 346.69 L493.64 350.16 L495.09 348.33 L496.42 340.05 L498.11 347.08 L499.64 349.70 L501.19 343.14 L502.67 348.32 L504.09 351.88 L505.71 348.30 L507.06 351.77 L508.49 352.78 L510.38 346.71 L511.77 348.69 L513.13 350.49 L515.21 344.63 L516.58 346.49 L517.63 350.76 L519.80 345.70 L521.56 344.35 L522.59 348.04 L524.69 344.67 L526.59 342.84 L527.26 348.16 L528.55 349.60 L530.41 348.12 L531.51 350.40 L532.91 351.15 L535.84 345.26 L536.87 347.76 L538.39 348.14 L542.23 339.71 L541.72 347.86 L542.75 349.98 L545.91 344.81 L546.08 349.77 L546.88 352.42 L550.05 347.74 L551.18 349.41 L551.51 353.26 L554.32 350.09 L556.11 349.85 L555.46 356.00 L556.87 356.62 L559.05 355.35 L559.79 357.63 L560.50 359.88 L562.93 358.18 L564.32 358.86 L566.50 357.87 L570.75 352.65 L570.40 357.04 L572.23 356.96 L578.28 348.76 L575.84 357.00 L575.37 361.25 L580.37 355.51 L579.50 360.37 L578.61 365.09 L582.39 361.81 L582.51 364.70 L582.88 367.11 L587.04 363.49 L587.91 365.12 L588.32 367.41 L591.27 365.91 L592.90 366.40 L592.15 370.26 L596.17 367.44 L598.95 366.43 L598.01 370.43 L601.32 368.81 L605.80 365.80 L602.98 372.03 L602.98 374.62 L606.78 372.61 L605.35 376.83 L605.73 378.87 L610.88 375.51 L610.69 378.19 L612.00 379.20 L619.92 373.22 L616.92 378.84 L615.50 382.69 L623.12 377.42 L620.22 382.69 L616.65 388.42 L619.63 387.83 L620.90 388.90 L620.64 391.34 L621.46 392.79 L626.48 390.59 L625.70 393.43 L627.98 393.69 L631.48 392.98 L631.00 395.54 L631.95 396.92 L637.03 395.14 L635.03 398.79 L635.89 400.26 L643.98 396.52 L639.86 401.58 L639.12 404.17 L649.37 399.30 L643.87 405.08 L641.53 408.65 L650.20 405.16 L646.42 409.58 L643.80 413.18 L648.94 412.09 L645.91 415.84 L644.84 418.38 L649.89 417.49 L650.68 419.01 L649.83 421.39 L653.58 421.37 L655.53 422.33 L652.46 425.75 L655.76 426.06 L660.22 425.90 L656.21 429.64 L657.85 430.79 L664.68 429.75 L659.46 433.86 L657.69 436.43 L663.18 436.11 L659.10 439.53 L659.81 441.09 L666.70 440.43 L664.26 443.15 L664.29 444.97 L674.04 443.64 L669.22 447.06 L666.63 449.70 L673.08 449.63 L670.21 452.31 L668.36 454.64 L672.53 455.36 L673.92 456.85 L670.93 459.40 L672.54 460.84 L675.62 461.98 L670.11 464.95 L668.38 467.06 L671.52 468.22 L671.24 470.04 L668.69 472.22 L673.99 473.14 L673.33 475.01 L674.13 476.67 L682.83 477.36 L678.27 479.74 L676.52 481.72 L688.04 482.43 L682.05 484.82 L674.85 487.18 L681.20 488.54 L679.26 490.46 L673.98 492.48 L675.91 494.16 L676.72 495.90 L675.42 497.69 L678.71 499.43 L680.44 501.23 L677.45 502.98 L678.36 504.78 L681.55 506.69 L676.50 508.27 L678.60 510.16 L685.04 512.38 L679.25 513.80 L679.80 515.65 L687.12 518.17 L679.30 519.23 L676.54 520.72 L681.31 523.12 L676.59 524.31 L677.64 526.27 L684.48 529.17 L681.94 530.64 L680.99 532.34 L690.98 536.10 L685.92 537.07 L679.85 537.74 L685.26 540.81 L683.41 542.33 L676.43 542.58 L676.25 544.41 L676.51 546.35 L675.09 547.86 L672.00 548.87 L676.74 552.13 L676.10 553.86 L675.06 555.46 L680.51 559.18 L676.02 559.66 L673.22 560.66 L679.39 564.84 L672.68 564.37 L670.09 565.35 L678.93 570.81 L674.23 570.97 L670.93 571.63 L680.41 577.73 L675.54 577.72 L668.42 576.59 L674.27 581.36 L671.32 582.08 L666.06 581.62 L666.76 584.04 L665.93 585.71 L662.29 585.90 L664.03 588.93 L667.97 593.25 L663.37 592.85 L663.20 594.92 L668.68 600.38 L660.86 597.92 L659.54 599.32 L667.79 606.80 L660.61 604.49 L658.35 605.29 L666.88 613.39 L659.41 610.66 L653.58 608.90 L657.90 614.36 L651.82 612.29 L650.40 613.58 L654.75 619.32 L651.28 619.07 L648.99 619.70 L654.65 626.81 L651.60 626.87 L645.79 624.50 L647.41 628.46 L646.57 630.33 L642.01 628.84 L641.80 631.26 L643.68 635.69 L639.53 634.44 L638.11 635.76 L641.36 641.76 L635.89 639.03 L631.70 637.46 L632.78 641.39 L631.28 642.63 L625.82 639.47 L627.19 643.86 L626.59 646.10 L623.22 645.11 L628.08 653.93 L624.97 653.29 L621.43 652.02 L626.80 662.04 L622.82 660.23 L616.58 655.28 L617.93 660.40 L616.33 661.59 L611.24 657.81 L609.64 658.89 L610.04 662.94 L606.80 661.60 L605.90 663.78 L606.29 668.04 L603.50 667.31 L601.59 667.95 L603.19 674.52 L598.59 670.60 L596.76 671.37 L600.49 682.21 L595.87 678.02 L593.04 676.99 L597.31 689.70 L592.65 685.14 L587.07 678.43 L588.51 686.08 L584.15 681.58 L581.67 680.94 L581.13 684.65 L578.93 684.63 L577.17 685.62 L577.34 691.43 L576.47 694.86 L571.91 688.76 L570.57 690.96 L570.13 695.77 L565.48 688.70 L562.70 686.72 L562.23 691.63 L560.30 692.22 L557.14 688.73 L557.17 695.89 L555.09 696.00 L552.84 695.50 L552.69 702.96 L549.66 699.48 L547.21 698.05 L547.06 706.58 L544.18 703.30 L541.10 698.71 L541.01 708.74 L538.55 707.17 L535.42 701.53 L534.79 710.24 L532.61 710.08 L529.40 702.79 L527.98 707.60 L526.27 710.76 L523.28 703.32 L521.23 703.46 L519.55 707.42 L517.05 702.53 L515.03 702.73 L513.56 711.67 L511.18 706.99 L509.08 706.38 L507.36 716.49 L505.00 708.25 L502.88 705.97 L500.86 717.03 L498.73 711.73 L496.67 707.75 L494.30 719.01 L492.28 714.28 L490.50 706.29 L488.15 711.39 L486.28 707.52 L484.15 708.04 L481.90 709.95 L479.76 710.13 L477.74 709.18 L475.21 712.70 L472.68 715.68 L471.44 708.69 L469.19 709.51 L466.42 713.50 L465.29 707.15 L463.17 707.07 L459.69 714.20 L458.66 708.20 L456.99 705.79 L452.96 714.35 L452.15 708.09 L451.48 701.76 L448.10 706.70 L446.17 705.64 L445.33 700.64 L442.19 704.09 L438.94 707.64 L438.63 701.21 L434.26 708.08 L431.78 708.65 L431.63 702.22 L427.63 707.21 L424.29 710.00 L425.59 700.10 L423.61 699.30 L419.91 702.86 L420.20 696.36 L419.51 692.50 L415.18 697.29 L414.28 694.03 L412.55 692.69 L407.12 699.34 L406.91 694.69 L405.88 691.88 L400.07 698.69 L400.86 692.30 L400.60 688.16 L393.26 697.25 L392.88 693.31 L393.24 688.19 L386.44 695.60 L386.34 691.33 L387.87 684.54 L384.97 685.10 L384.12 682.39 L381.55 682.38 L379.08 682.17 L375.14 684.08 L373.74 682.20 L371.02 682.19 L364.33 687.64 L368.16 678.55 L367.51 675.74 L360.26 681.55 L364.32 672.66 L364.82 668.53 L359.93 671.10 L358.32 669.58 L360.39 663.74 L356.09 665.41 L352.45 666.20 L353.32 661.93 L345.77 666.88 L340.15 669.53 L336.53 669.93 L328.53 674.71 L320.90 678.87 L317.59 678.57 L315.83 676.73 L314.20 674.76 L312.81 672.57 L312.29 669.61 L314.86 663.95 L319.79 656.40 L321.39 651.90 L317.34 652.23 L324.76 643.10 L326.33 638.94 L317.60 642.96 L315.99 641.28 L314.29 639.65 L305.35 643.35 L301.17 643.38 L296.40 643.76 L294.97 641.71 L299.94 635.34 L303.38 630.17 L300.96 628.92 L301.56 625.74 L305.71 620.40 L296.97 623.03 L295.51 621.13 L297.17 617.42 L293.10 617.03 L290.66 615.66 L291.18 612.67 L289.24 611.01 L289.45 608.22 L290.65 604.97 L292.01 601.70 L286.28 601.86 L293.24 596.02 L294.04 593.16 L282.95 595.57 L286.92 591.29 L285.65 589.31 L278.92 589.53 L277.17 587.65 L275.13 585.87 L277.02 582.60 L275.96 580.46 L278.34 577.11 L276.22 575.35 L270.99 574.57 L273.96 571.11 L267.74 570.52 L263.92 569.11 L264.35 566.43 L263.47 564.13 L262.47 561.86 L261.60 559.55 L259.90 557.43 L260.16 554.84 L264.48 551.38 L267.17 548.36 L265.31 546.30 L271.72 542.67 L274.61 539.80 L270.12 538.23 L269.05 536.03 L268.09 533.81 L263.98 532.00 L260.75 530.01 L257.09 528.00 L258.12 525.44 L257.64 523.04 L261.02 520.31 L259.40 518.02 L256.15 515.82 L262.72 513.01 L255.07 510.97 L251.47 508.65 L255.24 506.07 L253.28 503.65 L252.07 501.18 L252.38 498.71 L251.91 496.22 L252.59 493.76 L256.60 491.42 L257.65 489.03 L250.10 486.19 L261.10 484.40 L265.42 482.32 L252.50 478.86 L256.61 476.75 L259.62 474.61 L252.45 471.35 L251.50 468.72 L251.63 466.21 L251.96 463.72 L254.49 461.58 L258.53 459.74 L258.17 457.19 L254.97 454.09 L255.98 451.75 L249.51 447.86 L245.17 444.29 L242.74 441.06 L243.98 438.64 L243.30 435.76 L241.12 432.45 L244.45 430.59 L246.60 428.44 L253.08 427.60 L259.02 426.72 L255.41 422.94 L267.31 424.12 L273.46 423.61 L265.02 418.14 L269.37 417.06 L270.78 414.97 L267.29 411.02 L266.56 408.05 L263.86 404.25 L266.28 402.50 L269.92 401.31 L271.64 399.33 L273.62 397.49 L273.51 394.69 L277.36 393.76 L273.78 389.26 L273.70 386.40 L276.24 384.86 L275.29 381.52 L276.22 379.13 L277.24 376.79 L279.51 375.15 L281.21 373.21 L284.96 372.49 L287.63 371.19 L284.72 366.46 L290.69 367.25 L296.54 368.09 L287.24 359.01 L290.66 358.25 L294.21 357.63 L290.32 351.81 L290.61 348.86 L291.81 346.53 L295.07 345.75 L297.84 344.65 L301.88 344.57 L302.59 341.91 L298.82 335.57 L301.36 334.31 L298.03 328.07 L296.90 323.58 L295.31 318.57 L297.81 317.15 L299.47 314.97 L299.91 311.63 L302.28 310.10 L304.10 308.04 L311.27 311.34 L317.47 313.85 L316.75 309.33 L324.48 313.69 L332.32 318.40 L328.67 310.69 L330.58 308.99 L333.60 308.58 L334.00 305.13 L333.48 300.52 L332.37 295.06 L335.51 294.74 L339.62 295.71 L342.30 294.94 L344.98 294.20 L345.59 290.69 L349.56 291.74 L349.80 287.63 L350.11 283.50 L353.13 283.27 L354.69 280.89 L356.69 279.14 L359.16 278.11 L361.07 276.22 L363.11 274.48 L367.22 276.26 L370.50 276.72 L370.85 272.11 L375.16 274.48 L379.99 277.99 L376.72 266.40 L379.52 266.06 L383.37 267.85 L384.10 263.45 L385.44 260.13 L386.81 256.78 L389.98 257.28 L393.92 259.62 L396.71 259.44 L397.98 255.69 L397.70 247.97 L400.84 248.50 L401.33 242.24 L399.35 228.98 L402.52 229.23 L405.64 229.45 L408.38 228.61 L411.19 227.99 L414.24 228.15 L417.45 228.89 L422.13 234.76 L426.43 239.84 L428.55 237.32 L433.07 243.86 L437.33 249.95 L438.61 244.24 L441.30 244.22 L443.38 241.44 L445.97 240.88 L447.81 236.56 L449.46 230.81 L452.40 231.67 L455.16 231.69 L458.49 235.36 L461.16 235.06 L462.91 228.10 L466.28 232.89 L468.69 230.30 L470.63 222.84 L473.64 224.99 L476.54 226.48 L479.14 224.52 L481.93 224.77 L484.73 225.51 L487.47 225.32 L490.33 228.16 L493.12 231.20 L495.75 227.18 L498.49 228.80 L501.16 236.97 L503.93 227.47 L506.71 225.44 L509.29 230.28 L512.16 226.56 L515.10 222.77 L517.99 221.20 L520.64 223.21 L523.33 224.28 L525.73 228.27 L528.22 230.75 L531.62 224.85 L533.79 229.84 L536.74 228.30 L540.38 222.33 L542.94 224.16 L545.66 224.80 L548.91 222.44 L551.55 223.65 L554.50 223.20 L557.69 221.75 L559.60 226.32 L561.14 232.17 L563.81 232.80 L565.67 236.70 L566.85 242.94 L569.93 241.75 L573.14 240.21 L576.42 238.59 L579.03 239.36 L582.60 237.11 L587.18 231.94 L589.71 233.24 L592.12 234.90 L593.79 238.54 L596.14 240.19 L600.84 235.66 L600.46 244.36 L603.94 243.06 L609.74 236.35 L610.51 241.82 L613.86 241.17 L616.97 241.15 L619.68 242.06 L622.51 242.74 L625.05 244.03 L626.45 247.59 L627.58 251.57 L631.76 249.62 L633.65 252.08 L631.56 261.70 L637.24 257.17 L641.70 255.03 L641.75 260.51 L645.04 260.44 L649.59 258.42 L653.94 256.86 L655.86 259.19 L657.91 261.29 L658.39 265.70 L660.13 268.15 L667.41 262.72 L666.57 268.84 L669.17 270.12 L677.32 264.02 L678.34 267.54 L680.20 269.92 L682.57 271.64 L685.14 273.11 L687.24 275.16 L689.49 277.03 L689.20 281.84 L688.26 287.26 L690.33 289.21 L690.82 292.86 L687.88 300.11 L692.00 299.78 L698.65 296.94 L698.35 301.26 L701.71 301.90 L708.84 298.96 L712.80 299.21 L714.13 301.96 L715.66 304.51 L715.74 308.33 L715.86 312.05 L722.86 309.85 L719.16 316.76 L720.85 319.07 L729.80 315.54 L728.45 320.36 L732.12 321.20 L735.06 322.65 L737.17 324.75 L738.27 327.60 L739.74 330.16 L738.05 334.90 L737.74 338.62 L739.57 340.85 L743.50 341.73 L737.71 348.85 L742.46 349.22 L751.06 347.32 L747.15 353.06 L748.64 355.53 L754.55 355.48 L758.53 356.62 L759.71 359.34 L759.92 362.57 L758.66 366.53 L758.84 369.70 L767.04 368.90 L763.12 374.07 L763.95 376.91 L773.93 375.57 L768.98 381.05 L768.04 384.66 L771.78 386.26 L773.73 388.64 L771.44 392.72 L780.36 392.43 L779.49 395.96 L775.86 400.44 L775.50 403.67 L776.10 406.55 L771.21 411.22 L772.57 413.78 L780.91 414.22 L779.88 417.58 L781.21 420.24 L788.69 421.23 L791.46 423.60 L792.64 426.41 L792.38 429.57 L789.92 433.23 L788.40 436.61 L794.99 438.24 L790.40 442.23 L790.11 445.30 L800.31 446.48 L796.31 450.24 L796.78 453.21 L798.91 455.93 L799.44 458.91 L798.79 462.04 L801.16 464.79 L799.21 468.05 L796.44 471.34 L797.03 474.28 L800.64 477.00 L790.02 480.72 L792.11 483.52 L801.43 486.01 L794.67 489.28 L795.59 492.20 L800.92 495.07 L804.15 498.06 L804.81 501.11 L803.68 504.14 L801.82 507.13 L800.22 510.10 L807.61 513.43 L805.27 516.39 L802.52 519.28 L817.18 523.40 L814.92 526.40 L812.98 529.39 L819.83 533.26 L820.11 536.53 L818.35 539.56 L820.72 543.11 L819.96 546.27 L822.26 549.90 L819.07 552.68 L818.20 555.81 L818.51 559.15 L818.41 562.44 L819.55 565.98 L815.90 568.53 L815.58 571.77 L815.35 575.05 L816.71 578.72 L814.00 581.39 L809.95 583.66 L810.20 587.06 L805.36 589.01 L804.24 591.99 L796.97 593.04 L790.38 594.18 L793.03 598.29 L787.62 599.68 L781.72 600.81 L788.46 606.48 L786.87 609.17 L780.52 609.98 L784.91 615.00 L785.76 618.68 L777.50 618.51 L778.82 622.39 L781.77 627.06 L774.56 627.13 L773.98 630.20 L779.50 636.27 L771.99 635.99 L769.77 638.27 L779.25 646.67 L770.35 645.46 L764.90 645.97 L773.96 654.55 L766.24 653.73 L760.12 653.68 L768.42 662.23 L762.81 662.44 L757.28 662.60 L764.52 670.91 L759.09 671.09 L752.01 670.07 L753.35 674.68 L749.04 675.40 L746.72 677.49 L746.74 681.27 L746.97 685.28 L744.33 687.15 L744.47 691.16 L747.40 697.47 L739.22 694.89 L736.98 697.03 L740.18 703.79 L733.68 702.34 L730.34 703.51 L734.72 711.59 L728.96 710.59 L724.49 710.66 L729.86 720.06 L723.84 718.63 L716.44 715.67 L718.60 722.23 L715.39 723.39 L709.66 721.85 L709.75 726.43 L711.03 732.43 L705.06 730.45 L706.98 737.35 L706.52 741.65 L699.54 738.27 L699.91 743.62 L700.88 749.85 L692.63 744.56 L691.37 748.03 L693.87 756.53 L685.69 750.89 L682.22 751.41 L685.21 760.99 L677.87 756.04 L673.87 755.70 L675.92 764.36 L670.92 762.50 L666.69 761.69 L668.53 770.51 L663.87 768.98 L659.41 767.65 L662.35 778.90 L658.30 778.31 L652.83 775.06 L655.38 786.35 L652.66 788.17 L644.72 779.92 L643.28 784.06 L640.18 784.96 L635.36 782.25 L632.53 783.59 L631.20 788.22 L628.34 789.59 L625.54 791.09 L626.62 801.86 L620.22 794.84 L616.26 793.49 L617.75 806.16 L611.46 798.68 L606.08 793.19 L605.33 800.48 L602.51 802.06 L597.27 796.33 L596.01 802.67 L593.85 806.48 L589.32 802.46 L588.19 809.99 L585.60 812.75 L582.62 814.16 L580.43 818.75 L578.35 824.13 L575.54 826.79 L572.50 828.58 L569.37 830.05 L566.29 831.86 L563.16 833.48 L559.58 832.79 L556.29 833.61 L553.08 834.93 L549.54 834.18 L546.24 834.96 L543.06 836.77 L539.33 834.17 L536.03 834.91 L532.85 837.01 L529.30 835.29 L525.98 836.05 L522.76 838.38 L519.28 836.89 L515.84 835.66 L512.55 837.59 L509.20 838.42 L505.83 839.79 L502.45 841.36 L499.03 842.74 L495.63 840.48 L492.24 839.91 L488.79 841.19 L485.40 840.62 L481.85 843.23 L478.25 845.76 L474.82 845.07 L471.48 843.54 L468.11 842.48 L464.90 840.08 L461.68 838.21 L458.32 837.65 L455.19 835.36 L451.97 833.99 L448.31 835.56 L444.87 835.60 L441.67 834.11 L437.93 835.70 L434.63 834.78 L431.54 832.87 L428.04 833.00 L424.64 832.58 L420.98 833.23 L417.38 833.52 L413.98 832.95 L410.79 831.57 L407.08 832.08 L403.65 831.54 L400.43 830.25 L396.39 831.61 L392.75 831.57 L389.94 828.98 L386.51 828.31 L383.28 827.01 L380.46 824.63 L376.94 824.14 L373.32 823.89 L370.85 820.71 L367.60 819.51 L364.13 818.84 L361.75 815.63 L357.85 815.91 L354.20 815.55 L351.86 812.36 L348.33 811.73 L345.06 810.50 L342.01 808.86 L338.50 808.08 L335.56 806.20 L331.78 805.87 L329.04 803.61 L326.96 800.24 L322.85 800.40 L319.25 799.61 L315.18 799.53 L310.56 800.26 L306.41 800.15 L303.19 798.55 L300.33 796.40 L297.63 794.01 L295.98 790.15 L292.98 788.26 L290.87 785.12 L289.81 780.64 L286.19 779.60 L284.62 775.90 L282.65 772.76 L278.83 771.92 L277.17 768.43 L274.76 765.88 L270.95 764.96 L266.29 764.95 L261.13 765.40 L256.74 764.90 L250.78 766.01 L245.06 766.71 L242.37 764.18 L239.74 761.60 L237.15 758.97 L234.69 756.21 L232.71 753.02 L233.02 747.70 L237.22 738.96 L239.47 732.19 L234.43 731.97 L239.32 723.14 L242.69 715.84 L234.48 718.23 L230.67 716.89 L227.71 714.82 L222.36 714.58 L215.03 715.72 L208.99 715.75 L207.14 712.62 L208.11 707.49 L212.24 700.25 L211.89 696.25 L207.41 695.04 L212.92 687.25 L207.28 686.78 L200.19 687.11 L201.24 682.34 L197.45 680.52 L194.35 678.25 L192.67 675.14 L191.45 671.77 L190.04 668.51 L191.22 663.89 L192.75 659.16 L187.58 657.90 L190.28 652.67 L194.94 646.59 L182.53 648.67 L182.66 644.76 L183.22 640.69 L176.16 639.97 L172.22 637.79 L170.68 634.58 L169.97 631.04 L168.63 627.75 L171.94 622.72 L171.41 619.19 L163.89 618.12 L167.37 613.18 L164.47 610.43 L157.15 609.05 L156.58 605.47 L156.73 601.68 L154.72 598.53 L153.85 595.04 L152.68 591.64 L151.28 588.29 L154.14 583.89 L158.39 579.25 L156.64 576.05 L159.96 571.75 L164.44 567.31 L159.19 564.83 L156.84 561.72 L153.95 558.68 L152.13 555.41 L147.55 552.53 L143.15 549.55 L143.49 545.87 L143.65 542.23 L147.48 538.21 L147.49 534.64 L142.12 531.56 L150.02 527.34 L147.70 523.98 L139.10 520.94 L141.68 517.20 L140.94 513.64 L138.87 510.10 L137.02 506.52 L137.03 502.89 L137.80 499.26 L140.39 495.67 L143.84 492.15 L139.51 488.45 L142.88 484.98 L151.24 481.84 L142.47 477.79 L141.95 474.16 L144.92 470.81 L143.88 467.13 L140.38 463.18 L137.33 459.20 L138.47 455.66 L140.01 452.19 L143.26 448.99 L143.86 445.43 L137.96 440.82 L143.57 438.07 L142.93 434.27 L136.06 429.24 L137.47 425.74 L138.92 422.27 L140.08 418.75 L139.46 414.81 L140.55 411.26 L142.78 408.01 L146.96 405.31 L152.05 402.94 L151.86 399.12 L154.83 396.23 L162.22 394.76 L158.21 389.75 L155.97 385.21 L159.25 382.51 L159.62 378.82 L156.39 373.78 L154.28 369.07 L155.35 365.52 L157.61 362.44 L162.43 360.44 L164.54 357.36 L160.35 351.55 L168.87 351.32 L168.74 347.26 L163.48 340.74 L168.05 338.82 L169.04 335.18 L170.00 331.52 L171.33 328.04 L173.84 325.18 L175.46 321.84 L180.21 320.26 L184.11 318.28 L184.42 314.23 L187.38 311.74 L196.33 312.97 L191.82 305.91 L188.91 299.71 L195.94 299.90 L195.06 294.93 L192.28 288.55 L193.89 285.12 L196.35 282.28 L199.70 280.11 L204.12 278.77 L207.78 276.91 L203.74 269.10 L211.60 270.55 L212.37 266.44 L207.80 257.84 L212.41 256.77 L213.40 252.64 L216.27 250.12 L218.35 246.91 L221.32 244.50 L223.89 241.73 L228.87 241.25 L235.06 242.04 L238.29 240.05 L241.41 237.96 L247.71 239.18 L250.05 236.37 L247.77 228.57 L250.98 226.60 L253.33 223.67 L251.70 216.19 L253.09 212.01 L255.76 209.30 L259.79 208.22 L264.76 208.36 L269.06 207.76 L268.12 200.45 L275.07 203.36 L278.04 201.11 L275.95 191.91 L280.98 192.40 L283.55 189.49 L285.92 186.25 L289.02 184.05 L292.50 182.43 L295.46 180.02 L300.59 181.06 L304.89 180.88 L307.85 178.54 L310.23 175.19 L318.13 181.44 L319.32 176.05 L319.00 167.70 L325.16 171.22 L328.04 168.68 L328.56 161.45 L330.45 156.72 L333.87 155.00 L337.89 154.55 L342.31 155.05 L346.50 155.13 L346.20 144.92 L349.92 143.79 L353.50 142.33 L352.30 128.88 L354.33 123.05 L358.49 122.63 L362.52 121.91 L365.98 119.64 L370.10 119.22 L374.47 119.61 L379.93 123.56 L385.98 129.77 L390.05 129.89 L394.07 129.91 L400.46 138.60 L403.84 136.71 L405.38 127.50 L409.35 127.58 L413.15 126.98 L415.46 119.74 L417.58 110.94 L421.86 112.06 L426.49 115.19 L430.71 116.54 L435.49 121.40 L438.43 115.45 L442.99 119.57 L446.91 119.82 L449.04 106.39 L453.11 107.07 L457.05 106.61 L460.51 101.46 L464.45 100.52 L468.54 101.32 L472.50 100.71 L476.82 106.01 L481.00 110.74 L484.93 111.45 L488.80 110.59 L492.87 120.05 L496.64 116.73 L500.49 105.64 L504.37 111.57 L508.30 109.07 L512.45 101.45 L516.52 99.69 L520.45 101.27 L524.36 102.78 L528.06 106.74 L531.46 113.65 L536.08 105.63 L539.75 108.75 L543.55 110.14 L548.63 100.88 L552.44 102.69 L556.67 101.47 L560.64 102.09 L564.69 102.29 L568.64 103.10 L572.91 102.11 L576.20 106.42 L578.75 113.98 L581.87 118.23 L585.63 119.29 L588.02 126.18 L591.30 128.92 L596.84 122.69 L601.61 119.95 L605.08 122.15 L610.31 118.16 L616.18 112.43 L619.97 113.86 L623.27 116.80 L626.14 120.95 L628.43 126.56 L633.94 122.85 L635.86 129.24 L637.85 135.13 L646.39 123.95 L650.02 125.74 L652.95 129.22 L658.21 127.10 L662.85 126.57 L667.21 126.82 L671.00 128.36 L673.27 133.14 L674.64 139.61 L678.57 140.71 L683.47 139.92 L680.55 154.24 L684.32 155.46 L693.70 146.47 L694.10 154.00 L698.07 155.06 L705.01 151.09 L710.68 149.53 L715.93 148.79 L717.65 153.79 L718.96 159.32 L720.62 164.17 L727.47 161.18 L729.20 165.86 L730.83 170.61 L742.93 160.62 L746.14 163.29 L748.89 166.58 L753.06 167.98 L756.75 170.03 L759.77 172.95 L763.61 174.85 L763.57 181.45 L761.74 190.03 L763.07 194.70 L767.33 195.96 L762.88 206.99 L764.02 211.57 L772.93 207.76 L775.87 210.47 L778.05 213.96 L786.67 210.94 L793.37 210.04 L798.26 211.05 L799.76 215.34 L800.66 220.16 L799.38 226.88 L804.80 227.47 L806.01 231.84 L804.57 238.45 L816.63 233.55 L818.47 237.39 L819.73 241.68 L824.83 242.89 L827.55 246.02 L829.22 249.95 L832.84 252.41 L832.18 258.03 L831.04 263.89 L832.36 267.93 L839.10 268.23 L832.63 277.50 L832.91 282.10 L847.42 277.53 L845.59 283.54 L846.73 287.63 L856.47 286.53 L861.31 288.52 L864.80 291.35 L864.59 296.27 L863.60 301.57 L861.31 307.49 L869.04 308.08 L872.21 311.14 L870.73 316.53 L885.27 314.11 L890.09 316.57 L891.18 320.81 L892.17 325.08 L894.79 328.62 L895.00 333.20 L894.85 337.90 L893.59 343.00 L887.06 350.07 L883.02 356.03 L886.45 359.13 L878.44 366.32 L876.26 371.31 L884.94 372.62 L888.80 375.65 L890.65 379.35 L899.18 381.07 L904.86 383.78 L909.49 386.87 L908.94 391.41 L907.05 396.26 L902.13 401.78 L906.06 405.11 L906.32 409.33 L902.18 414.46 L912.65 416.54 L914.98 420.38 L913.77 424.90 L917.79 428.47 L918.82 432.60 L917.93 437.03 L920.52 440.93 L917.02 445.67 L914.04 450.26 L912.06 454.67 L919.41 458.11 L909.26 463.25 L904.50 467.75 L917.82 470.89 L914.20 475.30 L913.31 479.50 L920.41 483.36 L923.52 487.48 L928.91 491.61 L927.92 495.91 L961.06 500.00 L956.22 495.44 L954.10 490.92 L958.93 486.23 L961.20 481.54 L968.92 476.53 L966.53 471.97 L961.89 467.62 L976.64 461.79 L969.62 457.62 L955.64 454.28 L962.91 448.87 L959.39 444.61 L953.03 440.77 L947.99 436.87 L949.21 432.11 L946.92 427.88 L945.17 423.58 L946.91 418.68 L944.18 414.57 L944.71 409.85 L954.58 403.11 L947.91 399.84 L946.52 395.45 L948.26 390.30 L940.88 387.42 L936.29 383.94 L932.81 380.22 L935.12 374.88 L938.44 369.16 L944.48 362.51 L942.87 358.14 L943.61 352.99 L950.90 345.56 L944.41 342.80 L931.83 342.37 L933.13 336.97 L925.28 335.05 L914.65 334.38 L909.47 331.68 L905.71 328.47 L902.39 325.11 L900.74 321.04 L897.52 317.69 L894.94 314.07 L896.83 308.31 L907.90 297.91 L901.31 296.15 L902.16 290.63 L904.51 284.24 L897.10 283.06 L891.82 280.83 L886.45 278.73 L884.96 274.45 L885.07 269.18 L890.89 260.34 L886.33 257.79 L879.42 256.80 L891.00 243.83 L885.04 242.19 L872.10 245.44 L874.94 237.95 L870.56 235.45 L863.38 235.06 L856.87 234.30 L855.41 229.82 L851.36 227.31 L848.22 224.12 L847.61 218.90 L843.15 216.78 L839.58 213.98 L846.33 202.32 L838.61 203.02 L833.90 201.19 L834.33 194.73 L826.14 196.17 L820.99 194.91 L816.23 193.36 L814.90 188.48 L815.49 181.59 L818.43 172.13 L814.12 170.04 L810.20 167.55 L813.81 156.87 L808.09 156.29 L795.98 163.08 L794.21 158.25 L788.90 157.56 L779.67 161.70 L772.19 163.95 L769.87 159.92 L766.15 157.64 L762.67 155.05 L759.43 152.14 L755.58 150.05 L752.52 146.88 L756.98 132.95 L751.05 133.67 L746.24 132.87 L745.53 125.89 L739.23 127.42 L733.41 128.36 L727.48 129.63 L725.35 124.74 L723.67 118.96 L723.58 110.24 L719.72 107.92 L712.32 112.08 L714.94 97.79 L710.71 96.05 L699.51 108.01 L697.23 102.71 L693.17 100.93 L686.14 105.42 L680.23 107.85 L676.30 106.06 L672.49 104.01 L669.48 100.04 L666.03 96.99 L661.20 97.34 L657.07 96.00 L657.95 81.37 L651.99 84.66 L646.21 87.73 L644.14 80.27 L638.31 83.75 L632.98 85.99 L628.11 87.03 L624.03 85.56 L621.74 77.92 L619.11 70.95 L614.42 71.27 L610.86 67.26 L608.48 58.22 L603.58 59.19 L597.37 66.21 L593.10 64.90 L587.87 68.29 L582.04 75.22 L577.01 78.72 L572.82 77.77 L568.58 77.19 L564.41 76.08 L560.03 76.45 L556.04 73.99 L551.61 74.83 L548.58 63.36 L543.99 65.03 L539.40 67.24 L535.81 57.79 L530.86 64.83 L526.22 69.19 L521.83 70.65 L517.47 71.92 L513.22 70.96 L509.10 62.61 L504.74 60.76 L500.34 68.01 L495.90 54.96 L491.41 52.49 L487.27 64.30 L482.85 62.72 L478.55 64.47 L474.58 71.09 L470.71 77.41 L466.43 77.01 L462.31 78.60 L458.12 79.22 L453.39 74.85 L449.28 76.52 L445.31 79.11 L439.09 65.24 L435.16 68.66 L431.65 74.33 L426.40 69.18 L423.34 76.78 L419.93 81.86 L416.65 87.13 L412.68 88.70 L407.13 83.13 L401.07 75.94 L396.90 77.24 L393.06 79.78 L386.44 71.75 L381.98 72.25 L380.97 84.81 L377.08 86.87 L373.39 89.56 L371.89 98.98 L369.80 106.07 L366.35 108.79 L362.74 110.99 L358.89 112.47 L355.29 114.60 L352.04 117.63 L346.89 115.78 L337.66 104.18 L334.19 106.96 L330.64 109.49 L322.85 102.47 L320.10 106.90 L317.60 111.75 L314.53 115.26 L310.82 117.40 L305.64 116.63 L298.79 112.76 L295.05 115.01 L294.71 123.50 L286.49 117.58 L280.85 116.54 L282.82 128.65 L278.37 129.59 L274.03 130.78 L272.01 135.71 L271.20 142.42 L267.55 144.59 L264.36 147.46 L261.04 150.12 L257.13 151.92 L253.03 153.48 L251.76 158.96 L242.62 153.73 L239.68 157.00 L240.63 165.25 L233.27 162.78 L231.77 167.77 L230.86 173.37 L229.08 177.83 L225.86 180.55 L219.55 179.73 L212.08 177.76 L209.13 180.94 L206.68 184.64 L198.56 182.34 L194.98 184.93 L197.18 193.40 L195.63 197.94 L192.94 201.31 L194.27 208.49 L195.20 215.14 L192.34 218.18 L190.12 221.79 L187.25 224.81 L184.86 228.25 L181.03 230.47 L181.16 235.99 L170.61 232.77 L167.10 235.40 L170.54 243.46 L161.05 241.48 L160.27 246.21 L160.57 251.69 L159.80 256.31 L158.33 260.39 L155.49 263.50 L148.05 263.54 L144.07 265.99 L147.67 273.38 L139.61 273.25 L131.01 272.96 L138.77 282.69 L137.25 286.68 L132.76 288.95 L135.23 295.20 L136.52 300.68 L132.71 303.34 L131.37 307.34 L129.25 310.93 L126.07 314.00 L124.28 317.77 L125.78 323.09 L115.96 323.13 L114.34 327.04 L120.46 334.32 L112.83 335.58 L113.05 340.22 L115.47 345.70 L115.51 350.16 L114.63 354.25 L107.60 356.06 L101.18 358.21 L99.50 362.10 L99.10 366.44 L94.98 369.55 L89.80 372.39 L96.21 378.80 L98.00 383.71 L96.64 387.67 L100.81 393.13 L103.68 398.13 L104.44 402.53 L104.58 406.75 L102.05 410.34 L102.31 414.57 L102.36 418.74 L102.99 422.99 L93.47 425.35 L91.72 429.25 L96.85 434.28 L89.12 437.23 L89.31 441.46 L92.83 446.11 L94.36 450.43 L94.74 454.59 L91.36 458.34 L86.30 462.00 L84.97 466.06 L88.87 470.52 L86.34 474.49 L76.92 478.15 L87.03 482.81 L89.87 487.04 L85.47 491.05 L89.34 495.24 L93.11 499.35 L94.42 503.41 L94.33 507.47 L93.16 511.56 L92.55 515.66 L92.44 519.74 L95.66 523.64 L87.36 528.27 L85.99 532.53 L95.25 535.88 L89.49 540.53 L91.17 544.49 L97.10 547.93 L98.86 551.79 L100.42 555.66 L95.47 560.48 L92.00 565.18 L92.90 569.21 L90.98 573.76 L89.73 578.23 L86.87 583.06 L94.61 585.73 L100.38 588.69 L99.93 593.00 L107.02 595.51 L112.99 598.16 L113.34 602.20 L114.90 605.92 L115.81 609.81 L116.12 613.89 L118.86 617.24 L120.85 620.79 L115.06 626.88 L114.39 631.40 L121.45 633.23 L115.53 639.65 L118.06 643.07 L124.71 644.88 L126.98 648.30 L130.18 651.33 L130.89 655.36 L130.20 660.03 L127.05 665.84 L131.94 668.09 L134.19 671.50 L125.27 680.28 L134.17 680.52 L141.72 681.28 L139.58 686.91 L144.78 688.74 L150.72 690.09 L153.18 693.27 L155.65 696.43 L158.16 699.56 L159.50 703.37 L160.26 707.56 L165.39 709.04 L161.64 716.12 L160.46 721.68 L171.00 719.53 L169.89 725.07 L174.13 726.99 L183.66 725.08 L189.55 725.60 L192.45 728.22 L190.97 734.15 L187.68 741.60 L186.84 747.29 L189.19 750.52 L189.91 755.10 L185.81 763.79 L195.14 761.20 L205.60 757.38 L205.21 762.97 L213.16 761.08 L223.31 756.95 L229.16 756.60 L232.54 758.53 L235.55 760.77 L238.47 763.11 L241.36 765.46 L244.22 767.83 L244.27 773.20 L244.33 778.67 L246.09 782.36 L246.45 787.70 L247.80 792.00 L250.50 794.79 L253.67 797.02 L257.77 798.08 L260.07 801.37 L264.11 802.44 L268.20 803.41 L270.88 806.20 L275.85 805.89 L279.69 807.05 L283.12 808.73 L287.59 808.89 L290.98 810.57 L293.96 812.85 L296.74 815.46 L299.40 818.28 L300.97 822.89 L303.33 826.32 L306.41 828.60 L308.88 831.96 L312.71 832.97 L316.47 834.06 L319.29 836.86 L322.38 839.20 L325.86 840.81 L329.62 841.84 L332.83 843.97 L336.09 846.02 L340.67 845.24 L343.73 847.69 L346.64 850.55 L351.26 849.47 L354.58 851.38 L358.23 852.50 L362.57 851.83 L365.60 854.50 L368.77 856.85 L373.09 856.07 L376.60 857.48 L380.03 859.14 L384.68 857.08 L388.20 858.39 L391.36 860.91 L395.46 860.30 L398.98 861.64 L402.33 863.65 L406.28 863.40 L409.73 865.09 L413.15 866.97 L416.67 868.49 L420.40 869.13 L424.03 870.20 L427.93 869.97 L431.82 869.68 L435.26 871.82 L439.16 871.36 L442.77 872.62 L446.27 874.81 L450.20 873.95 L454.19 872.43 L458.03 871.87 L461.96 870.24 L465.90 868.06 L469.69 867.06 L473.44 866.20 L477.15 865.85 L480.68 868.44 L484.29 870.48 L488.02 869.76 L491.69 870.89 L495.42 870.01 L499.12 867.68 L502.81 869.38 L506.53 870.61 L510.27 871.79 L514.00 871.97 L517.80 873.48 L521.43 871.64 L525.01 869.35 L528.76 869.87 L532.44 869.35 L535.94 867.02 L539.68 867.29 L543.34 866.78 L546.66 863.64 L550.37 863.69 L554.09 863.74 L557.50 861.82 L561.07 860.96 L564.79 860.96 L568.19 859.20 L572.00 859.58 L575.93 860.45 L579.55 859.78 L583.25 859.41 L587.37 860.76 L591.75 862.93 L596.28 865.45 L599.78 863.91 L603.95 864.77 L609.82 871.24 L611.54 863.65 L616.36 866.26 L622.05 871.27 L622.79 861.29 L626.38 860.00 L632.73 866.32 L633.29 856.69 L633.49 846.61 L642.11 858.27 L644.18 853.16 L643.78 842.34 L651.87 851.72 L654.94 849.20 L658.16 847.03 L663.43 849.31 L666.54 846.89 L667.48 840.07 L670.91 838.46 L675.21 838.53 L672.61 825.49 L676.43 824.79 L685.19 832.95 L684.64 824.27 L686.45 819.97 L696.12 828.96 L696.51 822.24 L697.66 816.95 L705.97 823.04 L706.81 817.31 L707.00 810.77 L715.51 816.64 L716.47 811.30 L713.71 800.86 L723.45 808.01 L724.98 803.68 L721.45 792.75 L730.90 798.99 L734.41 797.34 L730.75 786.74 L738.09 789.89 L743.00 789.91 L739.56 780.06 L744.71 780.36 L751.92 782.86 L749.80 774.89 L756.69 776.86 L762.09 777.08 L760.68 770.12 L761.93 766.04 L769.32 768.13 L765.35 758.95 L763.17 751.73 L774.61 757.46 L773.31 751.15 L770.98 744.06 L781.03 748.07 L781.42 743.45 L778.71 736.28 L787.82 739.09 L788.80 735.07 L783.94 726.43 L792.42 728.44 L795.77 726.34 L796.46 722.20 L801.66 721.42 L805.25 719.40 L805.69 715.11 L805.50 710.44 L810.37 709.25 L804.83 701.10 L803.57 695.94 L815.36 699.12 L811.86 692.57 L809.03 686.58 L822.42 690.29 L818.62 683.78 L813.28 676.55 L826.87 679.93 L823.89 674.09 L816.87 666.25 L830.69 669.31 L830.23 664.93 L823.94 657.76 L833.81 658.45 L835.35 655.09 L829.93 648.60 L837.11 647.80 L841.00 645.45 L834.04 638.56 L838.17 636.32 L844.47 634.87 L838.35 628.59 L838.83 624.91 L848.40 624.49 L842.95 618.69 L839.00 613.54 L843.18 611.14 L837.53 605.59 L831.99 600.22 L831.59 596.49 L828.74 592.11 L830.76 589.12 L828.61 585.02 L827.23 581.18 L829.22 578.19 L830.15 574.93 L831.14 571.68 L828.57 567.69 L830.60 564.67 L831.33 561.38 L834.28 558.48 L833.52 554.91 L830.29 551.00 L834.49 548.22 L833.70 544.71 L835.86 541.58 L834.01 537.97 L834.32 534.62 L841.47 531.91 L839.48 528.31 L836.88 524.70 L853.90 522.39 L850.90 518.68 L848.23 515.05 L856.30 511.83 L854.31 508.22 L851.16 504.63 L849.34 501.11 L850.03 497.61 L852.86 494.07 L858.70 490.38 L858.15 486.81 L849.93 483.61 L861.53 479.44 L862.11 475.77 L848.95 473.14 L852.89 469.29 L852.85 465.73 L847.88 462.70 L843.88 459.65 L843.99 456.14 L842.97 452.78 L842.21 449.39 L842.55 445.84 L841.58 442.49 L837.31 439.73 L848.24 434.18 L844.32 431.34 L839.01 428.87 L844.45 424.13 L839.92 421.55 L834.59 419.25 L832.59 416.20 L832.13 412.78 L832.82 409.03 L840.28 403.32 L838.51 400.16 L835.88 397.27 L843.49 391.18 L842.35 387.76 L833.39 386.99 L832.33 383.63 L829.14 381.04 L822.20 379.89 L818.62 377.58 L825.59 371.15 L820.20 369.57 L819.53 366.10 L820.63 361.86 L815.55 360.29 L807.20 360.29 L815.80 352.56 L812.81 350.12 L806.12 349.54 L812.25 342.64 L808.45 340.66 L802.66 339.80 L799.46 337.64 L797.61 334.77 L797.28 331.05 L801.06 324.89 L799.62 321.69 L791.82 322.36 L798.40 314.24 L799.79 309.19 L789.56 311.60 L788.78 307.98 L787.01 304.99 L782.54 303.87 L775.61 304.56 L772.98 302.30 L770.36 300.04 L768.18 297.48 L767.02 294.12 L765.59 290.96 L760.25 290.92 L766.09 281.81 L763.02 279.89 L755.40 281.88 L758.40 274.82 L753.99 274.15 L748.64 274.42 L745.34 272.89 L742.37 271.11 L745.31 263.64 L747.19 257.02 L744.60 254.71 L741.14 253.29 L743.01 246.35 L741.72 242.59 L732.17 247.75 L728.01 247.25 L725.50 244.95 L718.80 247.49 L713.35 248.74 L710.60 246.89 L707.64 245.31 L705.42 242.82 L702.69 240.97 L699.35 239.93 L695.27 239.90 L699.31 228.91 L696.41 227.19 L689.86 230.64 L692.41 221.15 L688.50 220.88 L683.23 222.75 L679.53 222.34 L676.28 221.31 L675.10 216.93 L674.92 210.81 L673.15 207.16 L666.66 211.59 L666.82 204.54 L666.72 197.68 L658.42 205.83 L654.76 205.59 L653.27 201.21 L648.66 202.92 L644.20 204.49 L640.94 203.68 L638.09 202.03 L635.28 200.28 L632.46 198.53 L629.54 196.98 L624.93 199.49 L625.89 188.42 L622.62 187.56 L616.53 194.12 L615.93 186.30 L612.15 186.92 L607.62 189.85 L604.03 190.21 L600.82 189.52 L598.30 186.64 L596.93 179.85 L594.11 177.57 L590.33 178.60 L588.53 172.47 L586.22 167.86 L581.16 173.97 L577.04 176.75 L573.70 176.50 L569.08 182.13 L564.92 186.17 L562.09 183.94 L558.89 183.55 L555.62 183.52 L552.82 180.78 L549.55 180.74 L546.02 182.57 L543.94 174.03 L540.84 172.31 L536.88 177.81 L534.48 169.64 L530.88 172.44 L527.22 176.62 L523.88 177.78 L520.57 178.92 L517.41 177.85 L514.39 172.93 L511.22 169.84 L507.77 176.24 L504.58 172.67 L501.34 163.17 L498.03 173.24 L494.79 174.68 L491.44 171.24 L488.31 175.61 L485.27 180.13 L482.08 180.37 L478.90 180.78 L475.82 182.58 L472.50 181.05 L469.30 181.28 L466.52 185.41 L462.42 177.55 L458.91 175.67 L456.69 183.53 L452.52 177.15 L449.48 178.84 L447.22 184.99 L444.46 187.72 L441.60 189.68 L438.17 188.62 L433.85 183.46 L430.21 181.98 L427.48 184.62 L423.85 183.37 L418.93 177.13 L417.88 186.29 L416.91 195.07 L413.38 194.20 L412.31 201.83 L411.67 210.38 L409.42 213.30 L406.91 215.31 L404.39 217.20 L401.79 218.82 L399.62 221.57 L397.39 224.06 L390.00 213.02 L384.89 208.44 L383.00 212.12 L377.00 205.82 L373.34 205.38 L371.11 208.26 L370.30 214.20 L368.11 216.92 L364.69 217.02 L360.78 216.17 L355.88 213.45 L355.35 219.43 L352.35 220.51 L343.29 210.41 L344.06 218.59 L343.27 223.71 L338.68 222.14 L337.46 226.37 L337.20 232.08 L334.50 233.67 L331.80 235.27 L329.81 237.96 L326.84 239.13 L323.59 239.93 L322.28 243.55 L317.82 242.65 L312.81 241.11 L313.13 246.92 L308.77 246.36 L307.08 249.37 L305.69 252.72 L306.29 258.50 L305.37 262.26 L300.69 261.45 L295.43 260.07 L291.61 260.48 L291.78 265.46 L288.50 266.51 L279.75 261.68 L284.12 271.04 L288.34 279.97 L283.36 279.26 L286.06 286.32 L290.05 294.46 L288.56 297.11 L286.66 299.34 L283.52 300.43 L282.13 303.15 L280.19 305.35 L275.74 305.37 L270.38 304.71 L263.31 302.74 L263.16 306.60 L255.48 304.37 L253.69 306.95 L254.83 311.77 L255.41 316.07 L255.12 319.66 L252.64 321.62 L249.84 323.37 L242.61 322.10 L243.69 326.61 L243.69 330.32 L231.79 326.27 L235.61 332.48 L240.09 338.93 L233.80 338.70 L233.88 342.36 L236.90 347.68 L235.59 350.44 L235.08 353.62 L233.13 356.01 L232.05 358.87 L229.55 360.99 L229.13 364.18 L225.08 365.57 L219.48 366.29 L222.51 371.13 L219.25 373.01 L219.08 376.30 L219.66 379.89 L221.74 384.06 L223.36 387.97 L218.96 389.45 L216.19 391.62 L211.26 393.04 L213.47 397.10 L214.19 400.57 L202.51 399.83 L208.14 404.97 L218.57 411.47 L212.66 412.76 L217.95 417.43 L224.04 422.20 L225.34 425.53 L227.52 429.04 L224.46 431.17 L223.10 433.77 L223.18 436.71 L220.07 438.94 L214.19 440.64 L206.24 442.05 L206.88 445.21 L203.05 447.56 L202.13 450.47 L206.09 454.14 L209.08 457.58 L209.65 460.63 L209.02 463.50 L207.17 466.24 L198.04 468.25 L201.99 471.67 L205.45 474.97 L189.55 476.74 L196.07 480.28 L207.52 483.96 L198.96 486.51 L201.66 489.62 L207.08 492.74 L208.22 495.69 L209.12 498.61 L209.49 501.52 L208.67 504.44 L209.11 507.34 L212.06 510.15 L208.02 513.21 L200.00 516.58 L207.63 519.10 L204.52 522.27 L202.74 525.39 L207.79 527.91 L209.76 530.65 L211.08 533.44 L207.96 536.76 L205.76 540.03 L202.12 543.57 L201.28 546.74 L202.17 549.66 L197.79 553.50 L202.66 555.71 L211.32 557.08 L210.00 560.37 L215.38 562.22 L221.52 563.80 L223.47 566.27 L224.05 569.06 L224.65 571.84 L225.33 574.61 L226.29 577.29 L228.55 579.59 L225.47 583.49 L219.86 588.26 L225.92 589.38 L221.57 593.88 L221.55 597.00 L226.48 598.36 L228.78 600.61 L232.58 602.26 L232.38 605.41 L233.54 608.04 L228.36 613.32 L230.36 615.67 L237.13 615.89 L226.59 623.81 L230.94 625.10 L241.53 623.34 L237.17 628.66 L241.34 629.84 L246.28 630.55 L249.10 632.29 L249.58 635.26 L252.82 636.72 L253.75 639.44 L253.32 642.96 L257.72 643.66 L259.27 646.01 L252.59 653.47 L259.90 652.28 L263.05 653.63 L263.24 656.89 L270.48 655.42 L279.22 652.74 L281.00 654.77 L279.26 659.34 L278.01 663.64 L271.84 671.73 L273.93 673.73 L275.85 675.85 L269.23 684.80 L274.93 683.96 L287.21 677.50 L285.90 682.25 L291.56 681.06 L300.85 676.52 L307.55 674.05 L310.60 674.76 L312.86 676.17 L314.98 677.70 L317.03 679.28 L317.27 682.67 L313.31 690.39 L309.06 698.67 L310.38 701.28 L309.64 706.16 L304.94 715.53 L311.41 712.62 L311.63 716.70 L309.45 723.69 L316.37 719.98 L318.77 721.57 L316.69 728.75 L322.54 726.04 L332.22 718.17 L326.87 729.84 L331.29 728.70 L341.04 720.06 L336.55 731.11 L338.16 733.75 L341.19 734.35 L341.25 739.38 L342.97 742.00 L345.20 743.87 L348.89 743.41 L350.26 746.68 L357.18 740.68 L361.66 738.52 L358.79 749.18 L364.97 743.92 L370.02 740.46 L366.03 753.87 L370.81 750.86 L376.50 745.82 L373.57 758.04 L377.58 756.32 L382.96 751.50 L381.16 762.17 L384.11 762.64 L388.81 758.96 L389.03 765.73 L392.37 765.16 L397.21 760.70 L398.14 766.09 L400.95 766.73 L406.95 758.46 L408.10 763.49 L409.21 768.93 L414.91 760.62 L417.25 762.33 L417.28 771.68 L422.37 764.42 L423.53 770.44 L424.93 776.00 L429.49 769.85 L432.40 769.70 L433.52 776.96 L438.32 768.76 L442.57 762.28 L442.65 775.05 L446.13 771.90 L450.22 765.15 L451.18 775.19 L454.12 774.59 L458.15 766.86 L459.79 774.26 L462.61 774.11 L466.51 765.28 L468.53 771.11 L470.81 775.49 L473.70 774.39 L476.31 776.13 L478.89 778.76 L481.73 778.27 L484.75 774.04 L487.26 779.44 L490.39 769.90 L493.25 763.97 L495.69 776.92 L498.49 771.57 L501.18 765.51 L504.02 778.42 L506.71 774.69 L509.17 766.23 L512.33 777.39 L514.92 773.79 L517.20 766.66 L520.65 776.92 L523.30 775.29 L525.28 766.94 L528.64 773.30 L531.38 773.05 L532.95 763.41 L536.29 768.34 L539.55 771.95 L540.77 761.88 L543.66 763.15 L547.70 770.67 L548.91 762.20 L551.04 759.22 L555.85 769.37 L557.17 762.53 L558.44 755.99 L563.16 764.45 L564.85 760.03 L566.12 754.24 L570.95 762.02 L572.75 758.42 L575.11 756.92 L580.32 764.86 L581.20 758.44 L583.38 756.38 L587.86 761.25 L589.17 756.62 L588.06 745.48 L592.76 750.66 L595.79 751.12 L594.60 740.75 L598.75 744.09 L603.47 748.59 L605.61 746.74 L607.66 744.73 L611.47 746.68 L612.97 743.48 L611.79 734.76 L618.18 741.92 L615.92 731.39 L614.58 723.11 L624.23 736.08 L624.43 730.82 L622.63 722.13 L631.70 733.02 L633.01 729.94 L631.51 722.19 L638.69 729.06 L640.23 726.47 L640.39 721.74 L645.29 724.48 L647.79 723.42 L647.67 718.44 L651.98 720.05 L654.68 719.24 L652.89 712.17 L655.12 710.78 L660.55 713.66 L657.01 704.65 L657.47 701.05 L666.18 707.86 L663.21 700.01 L661.91 694.42 L672.40 702.86 L669.94 695.95 L673.16 695.68 L680.10 699.46 L677.09 692.23 L678.49 689.90 L683.90 691.78 L681.79 685.82 L677.13 677.47 L685.39 682.07 L686.82 679.84 L683.99 673.61 L690.31 676.01 L693.04 674.98 L690.48 669.22 L693.89 668.82 L697.97 668.92 L693.80 662.04 L694.49 659.34 L703.25 663.15 L703.07 659.68 L702.06 655.65 L710.03 658.46 L710.90 655.84 L705.48 648.68 L713.81 651.47 L708.96 644.92 L701.96 637.09 L714.98 642.81 L714.23 639.25 L708.19 632.38 L719.92 636.77 L720.34 633.99 L713.66 627.02 L722.83 629.47 L723.47 626.88 L719.06 621.49 L725.31 622.03 L728.75 620.95 L725.26 616.24 L726.88 614.22 L731.16 613.49 L728.07 609.15 L727.61 606.15 L735.65 607.04 L729.91 601.67 L725.98 597.25 L737.44 599.38 L731.71 594.27 L725.60 589.16 L738.84 591.64 L735.57 587.69 L727.91 582.26 L740.14 583.97 L737.42 580.36 L732.98 576.27 L741.37 576.35 L741.19 573.65 L739.42 570.50 L747.52 570.20 L744.95 566.84 L743.82 563.92 L746.15 561.90 L747.33 559.58 L738.04 554.83 L738.12 552.34 L744.98 551.29 L737.51 547.25 L733.44 544.02 L746.17 543.87 L745.63 541.25 L742.10 538.17 L750.77 536.97 L751.98 534.58 L745.69 531.21 L752.34 529.50 L748.49 526.53 L738.83 523.09 L748.83 521.55 L747.68 518.95 L740.24 515.97 L748.80 514.04 L749.51 511.58 L743.72 508.87 L748.53 506.56 L749.57 504.09 L745.46 501.56 L746.63 499.10 L751.18 496.58 L748.50 494.13 L746.66 491.70 L749.86 489.09 L745.92 486.80 L741.97 484.58 L749.23 481.62 L741.65 479.74 L734.97 477.93 L746.43 474.37 L741.10 472.49 L733.42 470.99 L744.08 467.19 L742.28 464.96 L740.03 462.83 L746.96 459.23 L741.51 457.64 L740.57 455.32 L743.32 452.29 L738.25 450.80 L730.51 449.99 L734.27 446.72 L734.86 444.11 L729.02 443.07 L729.89 440.41 L733.99 436.84 L728.51 435.86 L724.86 434.46 L731.47 430.01 L725.36 429.39 L717.94 429.32 L729.16 423.14 L727.35 421.20 L722.37 420.43 L729.63 415.23 L728.48 413.05 L720.91 413.39 L726.11 408.73 L721.51 408.00 L712.12 409.41 L719.08 403.83 L718.56 401.45 L711.92 401.87 L715.68 397.51 L716.63 394.39 L710.96 394.53 L711.38 391.66 L712.36 388.46 L707.71 388.24 L706.61 386.15 L709.12 382.03 L704.62 381.85 L699.73 382.00 L704.41 376.46 L697.76 377.76 L692.05 378.62 L700.54 370.43 L693.98 371.90 L687.05 373.78 L696.06 364.82 L691.89 364.85 L683.77 367.80 L690.10 360.34 L688.09 358.90 L681.47 361.01 L684.63 355.63 L682.66 354.20 L678.89 354.26 L680.56 349.87 L679.95 347.31 L675.54 348.01 L678.96 341.89 L676.97 340.46 L672.40 341.43 L671.23 339.32 L672.12 335.21 L663.66 340.15 L657.57 342.99 L664.14 333.14 L658.25 335.88 L651.51 339.68 L658.25 329.16 L655.95 328.23 L652.27 328.87 L654.87 322.41 L651.97 322.18 L645.90 325.78 L647.44 320.33 L643.66 321.32 L636.44 326.78 L639.13 319.68 L638.43 316.83 L633.50 319.63 L633.50 315.81 L634.12 311.01 L630.20 312.59 L628.60 310.88 L628.28 307.24 L624.96 308.08 L621.70 308.95 L622.99 302.59 L619.36 304.08 L615.37 306.29 L616.83 299.30 L612.56 302.12 L607.37 306.77 L609.94 297.39 L605.57 300.72 L599.22 308.09 L602.69 296.42 L599.61 297.50 L594.00 303.99 L595.73 295.16 L593.93 293.64 L590.82 295.08 L591.18 288.57 L588.48 289.05 L585.56 290.17 L584.11 287.66 L581.78 287.36 L576.77 294.27 L574.65 293.69 L574.46 287.58 L570.61 291.92 L567.72 293.70 L567.97 285.74 L564.70 288.74 L561.33 292.34 L561.35 284.36 L558.07 287.85 L553.85 295.25 L554.53 283.90 L552.17 284.17 L549.07 287.74 L548.77 278.98 L546.39 279.27 L543.27 283.39 L541.64 280.13 L539.04 281.97 L535.66 288.70 L534.04 285.21 L532.43 281.26 L529.60 285.57 L527.58 284.30 L526.08 278.41 L523.38 282.66 L521.00 284.60 L519.39 278.17 L516.93 281.07 L514.42 285.66 L512.72 277.81 L510.38 280.07 L507.97 285.57 L506.00 279.23 L503.75 281.84 L501.52 287.49 L499.37 279.28 L497.20 282.21 L495.22 290.62 L492.83 281.78 L490.70 283.08 L488.94 290.86 L486.46 284.72 L484.11 282.24 L482.63 290.75 L480.22 287.50 L478.09 287.71 L476.45 292.16 L474.28 291.69 L472.40 293.44 L470.24 293.10 L468.04 292.50 L467.09 299.69 L464.47 296.49 L462.72 298.38 L461.95 305.15 L460.04 305.72 L458.68 308.81 L457.41 312.06 L455.56 312.58 L454.14 314.88 L452.67 316.80 L450.61 316.42 L449.17 318.34 L447.42 319.06 L445.41 318.93 L441.62 313.15 L439.99 314.47 L438.22 315.33 L434.73 311.20 L433.63 314.04 L431.38 313.65 L428.88 312.67 L425.84 310.39 L424.32 312.07 L422.34 312.59 L419.18 310.35 L418.39 313.67 L415.43 312.06 L412.70 311.06 L411.62 313.63 L411.16 317.41 L407.84 315.31 L407.07 318.34 L405.99 320.67 L405.13 323.34 L401.89 321.61 L402.86 327.48 L401.07 328.34 L397.55 326.27 L396.88 329.07 L395.65 330.87 L391.30 327.71 L391.66 332.02 L389.84 332.90 L385.90 330.63 L385.53 333.70 L384.93 336.35 L381.23 334.63 L380.27 336.77 L381.83 342.22 L378.36 340.93 L379.69 345.89 L377.01 345.66 L375.60 347.05 L376.50 351.22 L375.29 352.79 L374.50 354.82 L369.38 351.92 L368.01 353.35 L370.68 359.17 L366.94 357.98 L366.44 360.27 L370.59 367.30 L372.05 371.39 L369.33 371.26 L365.64 370.24 L364.91 372.13 L363.89 373.71 L359.28 372.03 L359.48 374.76 L354.33 372.76 L352.63 373.85 L349.60 373.84 L346.84 374.11 L348.36 377.89 L345.34 377.98 L345.82 380.84 L344.37 382.19 L341.23 382.29 L341.57 384.98 L344.04 389.14 L339.70 388.45 L340.13 391.11 L339.99 393.33 L340.99 396.29 L337.15 396.08 L339.47 399.81 L338.22 401.26 L335.06 401.58 L335.75 404.21 L334.52 405.70 L331.93 406.44 L331.57 408.43 L332.83 411.27 L329.11 411.48 L327.69 412.91 L326.69 414.57 L324.96 415.89 L323.55 417.37 L325.87 420.57 L323.63 421.67 L328.61 425.92 L327.88 427.64 L324.61 428.32 L330.97 432.88 L333.44 435.79 L332.83 437.47 L335.80 440.44 L336.66 442.60 L333.61 443.39 L334.15 445.41 L331.91 446.53 L331.23 448.17 L331.45 450.08 L332.23 452.13 L330.25 453.39 L331.01 455.41 L331.77 457.41 L327.30 458.11 L329.85 460.53 L318.92 459.89 L317.89 461.57 L320.31 463.95 L317.70 465.32 L317.05 467.09 L316.48 468.88 L322.66 471.75 L319.66 473.12 L316.66 474.54 L322.11 477.11 L327.20 479.52 L328.14 481.37 L330.12 483.30 L330.13 485.02 L331.13 486.81 L329.13 488.37 L328.55 490.05 L328.41 491.76 L326.23 493.40 L325.38 495.12 L324.04 496.84 L322.75 498.59 L322.51 500.36 L323.05 502.13 L323.40 503.89 L319.97 505.77 L320.93 507.53 L320.15 509.37 L315.07 511.49 L321.52 512.88 L318.50 514.92 L321.81 516.45 L323.97 518.02 L321.02 520.14 L325.23 521.44 L325.96 523.11 L325.60 524.94 L327.74 526.39 L330.60 527.69 L329.90 529.55 L335.12 530.35 L335.49 531.99 L337.50 533.28 L339.80 534.49 L339.27 536.29 L336.50 538.63 L337.65 540.08 L339.99 541.21 L335.25 544.19 L337.66 545.29 L332.51 548.53 L331.04 550.80 L333.02 552.03 L327.36 555.69 L332.08 556.03 L331.60 558.06 L331.42 560.02 L334.07 560.95 L332.19 563.55 L330.92 565.98 L335.73 566.00 L333.58 568.80 L334.35 570.44 L338.31 570.67 L341.51 571.17 L340.50 573.54 L343.87 573.89 L346.32 574.62 L344.98 577.20 L346.62 578.31 L345.92 580.61 L344.86 583.15 L347.29 583.83 L353.63 582.26 L351.99 585.14 L349.06 588.85 L354.33 587.72 L357.15 587.98 L347.08 596.31 L351.08 595.88 L359.94 592.17 L351.22 600.06 L353.66 600.56 L361.45 597.26 L355.27 603.77 L356.01 605.43 L365.72 600.41 L362.45 605.01 L360.92 608.40 L370.32 603.17 L369.90 605.65 L364.17 612.57 L365.88 613.43 L368.31 613.65 L365.13 618.77 L365.29 621.05 L371.86 617.48 L368.60 622.91 L373.52 620.70 L381.45 615.43 L374.21 624.95 L378.42 623.20 L386.72 617.12 L379.12 627.50 L381.68 627.33 L389.10 621.75 L388.41 625.00 L393.16 622.12 L393.36 624.38 L398.87 620.37 L401.96 619.08 L398.08 626.36 L400.67 625.70 L405.43 622.17 L405.62 624.47 L408.06 623.80 L412.86 619.83 L415.67 618.44 L417.17 618.83 L419.50 617.98 L418.32 622.33 L419.67 622.95 L422.55 621.17 L420.59 627.01 L416.60 636.41 L416.00 640.53 L419.07 638.51 L418.13 643.40 L414.91 652.56 L420.18 646.55 L425.97 639.21 L422.43 649.44 L424.37 649.34 L429.88 641.96 L427.99 649.54 L428.28 652.84 L433.25 646.03 L433.75 648.85 L432.79 655.15 L437.47 648.41 L440.10 646.24 L437.43 657.22 L439.59 656.32 L442.52 653.30 L441.24 661.59 L443.00 661.77 L447.33 654.39 L446.48 662.17 L449.79 657.41 L454.26 648.52 L452.21 660.88 L454.59 658.66 L458.64 650.16 L457.39 660.98 L459.30 660.21 L462.95 652.24 L462.74 660.03 L464.22 660.96 L467.04 655.57 L467.70 660.37 L468.84 663.10 L471.56 657.39 L473.20 657.27 L473.97 662.60 L476.98 653.60 L479.28 648.34 L480.68 649.21 L483.04 642.18 L485.25 635.09 L486.82 633.05 L487.87 636.27 L489.15 637.46 L489.77 648.56 L491.17 650.16 L492.89 645.63 L493.73 661.61 L495.48 657.00 L497.26 646.29 L498.62 658.06 L500.19 657.08 L501.66 648.09 L503.46 662.66 L505.04 661.33 L506.48 656.92 L508.26 661.08 L509.98 662.74 L510.80 651.29 L512.20 649.87 L514.54 658.92 L515.23 649.96 L516.01 643.35 L519.17 657.34 L520.61 656.15 L521.65 652.27 L524.52 660.89 L525.70 657.99 L525.59 647.95 L528.84 657.36 L528.94 649.49 L527.79 636.22 L532.67 652.37 L534.06 651.44 L532.44 637.78 L534.98 642.19 L535.77 639.35 L535.53 632.90 L536.09 629.78 L537.08 628.34 L540.40 634.76 L541.71 634.25 L542.03 630.65 L545.70 637.35 L546.81 636.10 L546.09 629.78 L547.68 630.13 L548.72 628.96 L548.13 623.65 L548.34 620.59 L549.20 619.28 L550.11 618.10 L551.18 617.35 L551.88 615.79 L553.31 615.86 L554.10 614.55 L555.11 613.73 L560.73 622.19 L563.87 625.36 L561.73 618.21 L566.31 623.96 L567.08 622.43 L563.78 613.69 L562.83 609.42 L563.67 608.35 L564.81 607.82 L566.80 608.65 L569.15 609.99 L571.59 611.39 L573.98 612.61 L574.46 610.91 L575.43 609.97 L575.81 608.19 L575.26 605.14 L575.96 603.92 L575.98 601.78 L576.99 601.02 L577.27 599.31 L577.76 597.91 L578.56 596.90 L578.82 595.26 L579.88 594.60 L580.03 592.87 L580.88 591.99 L581.30 590.62 L581.79 589.36 L582.62 588.46 L582.87 586.98 L583.92 586.33 L584.04 584.74 L584.78 583.80 L585.17 582.51 L585.61 581.30 L586.37 580.39 L586.54 578.95 L587.52 578.26 L587.59 576.75 L588.26 575.79 L588.60 574.56 L588.95 573.35 L589.69 572.46 L589.78 571.06 L590.65 570.29 L590.71 568.90 L591.29 567.91 L591.61 566.73 L591.87 565.53 L592.53 564.61 L592.57 563.27 L593.28 562.40 L593.34 561.10 L593.83 560.08 L594.14 558.96 L594.33 557.78 L594.90 556.83 L594.94 555.57 L595.47 554.61 L595.57 553.40 L595.93 552.35 L596.22 551.27 L596.40 550.13 L596.84 549.14 L596.90 547.95 L597.28 546.94 L597.39 545.80 L597.64 544.73 L597.89 543.66 L598.02 542.55 L598.36 541.53 L598.40 540.40 L598.67 539.36 L598.76 538.26 L598.93 537.19 L599.12 536.13 L599.20 535.04 L599.45 534.01 L599.46 532.91 L599.63 531.87 L599.69 530.79 L599.78 529.73 L599.90 528.68 L599.92 527.61 L600.07 526.57 L600.04 525.50 L600.13 524.46 L600.13 523.40 L600.15 522.35 L600.20 521.31 L600.16 520.26 L600.22 519.23 L600.15 518.18 L600.16 517.15 L600.11 516.11 L600.05 515.08 L600.03 514.05 L599.93 513.02 L599.90 512.00 L599.78 510.98 L599.71 509.96 L599.60 508.94 L599.48 507.93 L599.38 506.92 L599.22 505.92 L599.11 504.92 L598.94 503.92 L598.79 502.92 L598.62 501.93 L598.44 500.94 Z"/>
  <svg class="pausebutton" id="pausebutton">
    <circle cx="500" cy="500" id="pausestart" class="pausestart" r="52.65"/>
    <rect height="50.02" width="10.00" y="473.68" rx="2.00" ry="2.00" x="479.99" class="pausesymbol"/>
    <rect height="50.02" width="10.00" y="473.68" rx="2.00" ry="2.00" x="510.00" class="pausesymbol"/>
    <polygon points="530.01,500 479.99,530.01 479.99,469.99" class="playsymbol"/>
  </svg>
  <polygon id="playback-head" class="playback-head" points="941.65,500 921.65,540 961.65,540"/>
</svg>