<?xml-stylesheet href="../../style/waveformjs.css" type="text/css"?>
<svg xmlns="http://www.w3.org/2000/svg" xmlns:xlink="http://www.w3.org/1999/xlink" width="100%" height="100%" viewBox="0 0 1000 1000">
  <path class="svg-wave" id="sp" d="M594.98 500.00 L595.14 500.95 L595.31 501.91 L595.49 502.87 L595.62 503.83 L595.74 504.79 L595.87 505.76 L596.00 506.73 L596.11 507.71 L596.19 508.68 L596.26 509.66 L596.35 510.64 L596.41 511.63 L596.46 512.61 L596.46 513.59 L596.49 514.58 L596.53 515.58 L596.49 516.56 L596.47 517.55 L596.42 518.54 L596.41 519.54 L596.37 520.54 L596.31 521.54 L596.22 522.53 L596.18 523.54 L596.09 524.54 L595.96 525.53 L595.76 526.50 L595.63 527.50 L595.56 528.52 L595.33 529.49 L595.18 530.49 L594.99 531.48 L594.78 532.47 L594.53 533.44 L594.32 534.43 L594.12 535.43 L593.81 536.38 L593.66 537.41 L593.34 538.37 L593.10 539.36 L592.82 540.34 L592.39 541.26 L592.06 542.22 L591.75 543.20 L591.31 544.11 L590.87 545.02 L590.50 545.97 L590.02 546.87 L589.55 547.76 L589.11 548.68 L588.62 549.57 L588.10 550.44 L587.49 551.26 L586.96 552.12 L586.38 552.96 L585.65 553.70 L584.90 554.42 L584.32 555.24 L583.58 555.96 L582.70 556.58 L582.05 557.35 L581.30 558.04 L580.44 558.65 L579.63 559.29 L578.83 559.93 L578.04 560.56 L577.30 561.24 L576.57 561.92 L575.79 562.55 L575.10 563.26 L574.25 563.82 L573.56 564.52 L572.82 565.17 L572.22 565.94 L571.52 566.63 L570.77 567.27 L570.08 567.96 L569.42 568.67 L568.69 569.32 L568.09 570.11 L567.45 570.85 L566.88 571.68 L566.09 572.27 L565.55 573.13 L564.87 573.85 L564.28 574.66 L563.64 575.43 L562.93 576.12 L562.23 576.83 L561.59 577.62 L560.90 578.34 L560.20 579.06 L559.47 579.74 L558.77 580.46 L558.07 581.20 L557.32 581.88 L556.60 582.59 L555.92 583.37 L555.18 584.08 L554.42 584.75 L553.70 585.50 L552.94 586.19 L552.18 586.89 L551.36 587.49 L550.58 588.18 L549.77 588.80 L548.99 589.51 L548.13 590.06 L547.37 590.80 L546.57 591.50 L545.69 592.04 L544.84 592.64 L543.99 593.26 L543.13 593.85 L542.26 594.43 L541.42 595.09 L540.53 595.65 L539.66 596.25 L538.73 596.74 L537.80 597.22 L536.92 597.86 L536.01 598.40 L535.06 598.87 L534.15 599.44 L533.22 599.97 L532.26 600.44 L531.32 600.98 L530.38 601.50 L529.39 601.89 L528.44 602.43 L527.45 602.85 L526.44 603.22 L525.44 603.59 L524.43 603.95 L523.42 604.35 L522.42 604.79 L521.40 605.14 L520.40 605.64 L519.37 605.98 L518.35 606.37 L517.31 606.74 L516.26 607.01 L515.20 607.26 L514.13 607.43 L513.08 607.75 L512.00 607.87 L510.92 607.97 L509.85 608.23 L508.75 608.12 L507.65 607.85 L506.42 605.40 L505.13 600.94 L504.02 598.54 L503.03 598.24 L501.94 593.35 L501.02 594.25 L500.08 596.08 L499.12 596.05 L498.15 596.11 L497.16 597.31 L496.19 597.24 L495.17 598.05 L494.17 598.33 L493.22 597.81 L492.14 599.02 L491.15 598.95 L490.18 598.68 L489.07 599.71 L488.13 599.15 L487.12 599.17 L486.25 598.16 L485.19 598.54 L484.15 598.73 L483.52 596.48 L482.61 595.98 L481.31 597.62 L480.71 595.57 L479.54 596.37 L478.57 596.20 L477.62 595.92 L476.23 597.45 L475.67 595.59 L473.87 598.56 L473.26 596.90 L472.52 595.84 L470.70 598.49 L470.60 595.31 L468.73 597.89 L468.73 594.62 L467.74 594.43 L466.36 595.33 L466.31 592.52 L463.29 597.78 L462.59 596.69 L461.85 595.73 L460.33 596.73 L459.82 595.24 L457.98 596.89 L457.44 595.51 L457.07 593.81 L455.51 594.70 L454.99 593.37 L452.65 595.76 L452.41 593.87 L451.31 593.70 L450.15 593.63 L449.35 592.89 L447.69 593.69 L447.70 591.51 L446.80 590.96 L445.72 590.72 L444.63 590.47 L442.24 592.29 L441.83 590.91 L440.43 591.07 L439.75 590.14 L438.96 589.37 L436.98 590.33 L437.06 588.31 L435.75 588.26 L435.17 587.21 L433.65 587.42 L432.43 587.21 L432.10 585.84 L430.16 586.51 L430.00 584.95 L428.49 585.03 L427.54 584.44 L428.14 582.06 L427.15 581.53 L425.89 581.29 L422.55 583.27 L422.31 581.87 L422.28 580.27 L419.60 581.40 L417.00 582.37 L419.18 578.62 L421.54 574.81 L418.55 576.12 L416.24 576.73 L416.35 575.10 L415.50 574.35 L414.31 573.89 L413.90 572.76 L411.57 573.22 L413.50 570.18 L413.02 569.14 L410.46 569.72 L410.30 568.41 L411.26 566.29 L409.02 566.56 L406.20 567.19 L407.31 565.00 L408.36 562.91 L405.43 563.54 L402.45 564.14 L403.77 561.90 L403.91 560.46 L400.64 561.13 L399.01 560.75 L399.88 558.87 L397.64 558.83 L398.34 557.08 L397.89 556.00 L399.11 554.02 L399.37 552.59 L398.57 551.73 L397.00 551.24 L395.71 550.58 L396.43 548.96 L394.90 548.40 L392.16 548.37 L393.93 546.30 L394.43 544.83 L391.53 544.79 L390.58 543.91 L392.57 541.87 L390.87 541.27 L387.37 541.31 L387.87 539.86 L387.23 538.83 L385.37 538.19 L386.12 536.68 L382.95 536.41 L385.02 534.51 L387.26 532.61 L384.80 532.08 L382.78 531.38 L385.33 529.48 L385.87 528.12 L382.27 527.76 L381.74 526.64 L384.67 524.77 L382.83 523.95 L379.02 523.47 L380.46 521.95 L382.44 520.37 L379.50 519.64 L376.63 518.85 L377.43 517.47 L377.91 516.16 L376.55 515.09 L377.62 513.71 L377.34 512.50 L378.41 511.17 L380.41 509.78 L380.13 508.60 L376.43 507.62 L378.16 506.29 L376.52 505.14 L370.43 504.09 L372.56 502.75 L371.30 501.49 L368.69 500.21 L368.28 498.89 L366.79 497.55 L368.72 496.27 L366.55 494.87 L365.57 493.49 L366.69 492.20 L364.13 490.69 L366.28 489.49 L364.06 487.95 L363.34 486.51 L364.90 485.30 L362.19 483.61 L363.50 482.38 L364.97 481.19 L366.69 480.07 L368.29 478.96 L368.64 477.67 L371.61 476.85 L374.28 476.03 L374.44 474.76 L373.53 473.26 L376.93 472.69 L375.46 471.05 L370.24 468.46 L372.18 467.58 L373.18 466.48 L370.98 464.51 L375.59 464.44 L373.21 462.38 L376.51 462.02 L379.45 461.60 L376.88 459.42 L374.89 457.37 L377.80 456.99 L379.56 456.25 L376.78 453.84 L377.38 452.67 L381.75 452.99 L379.69 450.77 L378.51 448.86 L380.35 448.22 L381.59 447.35 L379.55 444.99 L377.75 442.69 L379.70 442.13 L381.22 441.39 L380.53 439.55 L381.34 438.47 L379.66 436.06 L383.08 436.37 L385.74 436.33 L383.36 433.46 L383.11 431.76 L385.95 431.88 L386.00 430.35 L383.32 427.11 L385.37 426.78 L388.62 427.28 L387.23 424.76 L386.00 422.28 L389.17 422.80 L391.54 422.83 L390.02 420.08 L388.73 417.43 L390.91 417.34 L391.06 415.73 L392.02 414.74 L392.70 413.52 L392.72 411.74 L396.29 412.93 L396.46 411.29 L394.71 407.95 L396.88 408.01 L399.47 408.50 L397.19 404.53 L393.42 399.02 L395.99 399.46 L399.02 400.42 L397.36 396.74 L397.88 395.19 L402.68 398.09 L405.26 398.79 L404.18 395.56 L405.40 394.80 L407.55 395.10 L406.93 392.24 L409.40 392.96 L408.79 390.02 L410.45 389.80 L411.98 389.44 L410.51 385.26 L411.94 384.74 L413.33 384.17 L415.22 384.31 L416.95 384.25 L416.91 381.72 L419.74 383.28 L421.08 382.74 L420.48 379.26 L422.00 378.95 L425.45 381.72 L425.03 378.37 L424.44 374.63 L426.69 375.57 L428.56 375.91 L428.88 373.56 L430.61 373.70 L430.54 370.52 L433.42 372.86 L435.81 374.37 L435.70 370.99 L436.11 368.53 L438.50 370.18 L439.71 369.37 L439.28 364.90 L440.77 364.60 L443.43 367.09 L444.03 364.75 L444.23 361.34 L446.61 363.33 L448.95 365.35 L449.31 362.15 L449.84 359.28 L451.68 360.03 L453.19 359.86 L454.36 358.67 L455.89 358.61 L456.66 356.03 L459.14 359.16 L460.65 359.14 L461.09 355.14 L462.72 355.45 L464.86 357.89 L465.64 354.82 L466.27 350.83 L468.31 353.03 L470.29 355.22 L471.27 352.50 L472.29 349.76 L474.29 352.37 L476.12 354.24 L477.03 350.45 L478.34 348.90 L480.15 350.91 L481.31 348.07 L483.00 349.33 L484.35 347.65 L485.91 347.97 L487.78 351.99 L489.03 348.73 L490.31 344.88 L492.01 347.68 L493.59 348.97 L494.92 343.30 L496.38 338.14 L498.01 339.48 L499.61 336.76 L501.24 337.56 L502.71 346.11 L504.21 347.70 L505.48 354.40 L506.68 359.89 L508.07 360.16 L509.49 359.80 L510.88 360.11 L512.30 359.96 L513.75 359.63 L515.13 359.90 L516.56 359.82 L517.99 359.77 L519.41 359.81 L520.86 359.71 L522.60 357.82 L525.16 351.32 L526.89 350.21 L528.68 348.90 L532.79 336.24 L533.40 341.45 L535.08 341.34 L537.61 337.62 L537.93 343.37 L542.07 333.56 L541.70 341.72 L543.66 340.78 L545.82 339.23 L545.86 344.97 L550.52 335.29 L549.65 343.71 L552.27 341.00 L553.81 341.67 L553.71 347.00 L558.46 338.66 L557.00 347.47 L560.65 342.52 L563.42 340.11 L563.84 343.62 L566.94 340.60 L567.88 342.81 L573.38 334.62 L572.65 340.59 L573.31 343.31 L577.00 339.62 L576.90 343.86 L582.19 337.24 L580.90 343.69 L581.03 347.21 L584.81 343.86 L584.90 347.37 L590.13 341.71 L589.00 347.26 L589.21 350.37 L592.77 347.88 L591.97 352.52 L596.36 348.88 L595.87 352.90 L595.90 356.02 L599.31 354.09 L600.58 355.36 L606.44 350.14 L604.51 355.94 L605.34 357.81 L608.76 356.23 L608.54 359.46 L614.11 355.25 L612.37 360.37 L613.59 361.69 L616.24 361.33 L616.53 363.76 L621.34 360.99 L619.24 366.12 L620.96 366.89 L622.05 368.35 L622.01 371.01 L625.84 369.61 L624.51 373.53 L626.49 374.07 L628.27 374.83 L631.35 374.36 L634.70 373.71 L632.77 377.99 L636.51 377.05 L636.13 379.84 L639.04 379.72 L640.91 380.55 L638.99 384.54 L644.34 382.51 L642.73 386.18 L647.02 385.15 L647.92 386.81 L645.48 390.96 L650.74 389.35 L647.53 393.96 L650.53 394.08 L650.86 396.08 L649.26 399.37 L653.67 398.62 L653.37 401.00 L661.70 397.91 L659.87 401.28 L657.89 404.67 L663.81 403.32 L661.24 407.00 L669.26 404.61 L664.93 409.21 L662.31 412.76 L667.96 411.88 L665.50 415.27 L673.61 413.29 L669.33 417.54 L667.51 420.49 L672.72 420.12 L668.67 424.03 L674.64 423.43 L671.77 426.73 L669.90 429.53 L674.09 429.82 L673.82 431.94 L683.26 430.35 L678.34 434.26 L676.56 436.91 L681.37 437.23 L679.32 439.94 L687.23 439.37 L682.03 443.05 L680.67 445.46 L685.03 446.16 L683.10 448.70 L689.84 448.85 L684.88 452.16 L684.32 454.27 L686.91 455.61 L683.92 458.26 L689.07 459.07 L685.34 461.81 L684.92 463.82 L687.52 465.26 L688.83 466.97 L695.19 467.86 L690.60 470.57 L692.06 472.31 L692.81 474.17 L693.27 476.07 L696.56 477.66 L691.54 480.17 L694.63 481.81 L693.80 483.84 L695.40 485.67 L698.01 487.47 L693.75 489.69 L697.56 491.46 L695.24 493.52 L697.55 495.42 L697.26 497.40 L694.26 499.38 L702.91 501.38 L703.66 503.42 L704.23 505.48 L703.80 507.51 L704.39 509.58 L704.67 511.64 L704.09 513.66 L704.75 515.76 L704.55 517.80 L704.64 519.87 L704.84 521.96 L704.52 524.00 L704.98 526.14 L704.31 528.13 L704.44 530.23 L704.58 532.35 L703.87 534.33 L704.44 536.53 L703.96 538.55 L703.70 540.62 L703.80 542.76 L702.98 544.71 L702.55 546.75 L702.38 548.84 L701.64 550.80 L701.66 552.96 L701.07 554.96 L701.60 557.28 L701.26 559.36 L700.42 561.30 L700.37 563.48 L699.48 565.40 L699.15 567.51 L698.79 569.61 L697.87 571.52 L697.58 573.65 L696.40 575.46 L695.50 577.36 L695.09 579.47 L693.24 580.98 L693.13 583.21 L692.50 585.23 L691.95 587.29 L691.85 589.58 L690.63 591.33 L690.50 593.63 L689.74 595.62 L688.60 597.42 L688.18 599.61 L687.08 601.43 L686.60 603.60 L685.87 605.64 L684.59 607.36 L684.02 609.51 L682.83 611.29 L681.95 613.27 L681.00 615.20 L679.75 616.95 L679.10 619.10 L677.73 620.77 L676.35 622.42 L675.13 624.19 L673.75 625.84 L672.65 627.69 L671.45 629.48 L670.55 631.49 L669.45 633.37 L668.63 635.48 L667.51 637.36 L666.36 639.22 L664.83 640.77 L663.81 642.75 L662.12 644.16 L660.84 645.92 L659.27 647.43 L657.55 648.79 L656.59 650.88 L654.66 652.03 L653.39 653.82 L652.34 655.85 L650.56 657.15 L649.54 659.25 L647.79 660.57 L646.25 662.12 L644.97 663.97 L643.12 665.18 L642.05 667.29 L640.36 668.70 L638.65 670.07 L637.32 671.92 L635.50 673.16 L634.10 674.95 L632.40 676.36 L630.61 677.64 L629.15 679.39 L627.24 680.52 L625.73 682.23 L624.09 683.74 L622.20 684.91 L620.64 686.57 L618.53 687.40 L616.56 688.43 L614.93 690.01 L612.96 691.05 L611.38 692.75 L609.40 693.76 L607.85 695.56 L606.04 696.91 L603.97 697.77 L602.25 699.32 L600.25 700.33 L598.25 701.34 L596.45 702.76 L594.31 703.51 L592.36 704.63 L590.29 705.50 L588.09 706.06 L586.17 707.28 L583.73 707.23 L581.91 708.71 L579.98 709.94 L577.84 710.64 L576.05 712.30 L573.88 712.91 L571.89 714.07 L569.87 715.17 L567.69 715.78 L565.70 717.00 L563.55 717.74 L561.43 718.57 L559.26 719.25 L556.98 719.51 L554.92 720.61 L552.70 721.09 L550.43 721.39 L548.26 722.08 L545.99 722.31 L543.79 722.89 L541.58 723.46 L539.22 723.17 L537.00 723.59 L534.77 724.00 L532.52 724.30 L530.33 725.00 L528.07 725.27 L525.88 726.09 L523.61 726.24 L521.31 726.11 L519.02 726.00 L516.72 725.57 L514.47 725.81 L512.17 725.17 L509.85 723.86 L507.50 720.49 L505.19 716.47 L503.06 719.12 L500.86 715.77 L498.72 713.35 L496.52 717.05 L494.34 717.48 L492.11 719.09 L489.98 717.58 L487.67 719.81 L485.44 720.24 L483.35 718.56 L481.13 718.81 L479.21 715.82 L477.04 715.72 L475.02 714.37 L473.02 712.99 L470.76 713.61 L468.58 713.65 L466.49 713.05 L464.42 712.34 L462.25 712.23 L460.25 711.23 L458.50 709.00 L455.94 710.85 L454.34 708.09 L452.64 705.95 L449.77 708.87 L448.16 706.45 L445.59 707.85 L443.55 707.18 L441.66 705.98 L438.73 708.35 L437.26 705.72 L434.25 708.11 L432.61 706.11 L430.91 704.35 L428.14 705.75 L426.87 702.86 L424.03 704.30 L422.70 701.67 L421.06 699.95 L417.38 703.30 L415.68 701.67 L413.08 702.19 L411.68 699.90 L409.32 699.81 L407.03 699.54 L405.44 697.75 L402.94 697.87 L401.26 696.31 L398.55 696.77 L396.64 695.65 L394.82 694.37 L392.05 694.80 L390.95 692.23 L388.16 692.63 L386.49 691.09 L385.71 688.08 L382.80 688.59 L381.73 686.15 L378.13 687.63 L376.71 685.73 L375.15 684.06 L372.23 684.37 L371.28 681.83 L367.73 682.93 L366.89 680.27 L366.14 677.55 L363.25 677.66 L362.19 675.38 L358.55 676.35 L357.87 673.61 L356.79 671.40 L353.64 671.65 L353.02 668.93 L348.91 670.18 L349.20 666.47 L348.58 663.85 L346.54 662.75 L344.10 662.06 L339.39 663.66 L340.03 659.77 L338.93 657.68 L335.44 657.91 L333.18 656.91 L334.29 652.77 L334.03 649.96 L329.38 651.10 L328.75 648.62 L328.06 646.24 L324.94 645.89 L324.67 643.17 L321.18 643.07 L321.35 640.02 L322.06 636.62 L318.28 636.65 L315.12 636.16 L315.55 633.02 L314.46 631.00 L308.88 632.10 L305.42 631.63 L307.14 627.67 L306.06 625.62 L302.00 625.46 L303.90 621.52 L306.18 617.45 L302.99 616.70 L299.17 616.26 L298.83 613.79 L298.24 611.48 L294.94 610.64 L295.79 607.56 L294.54 605.61 L294.79 602.89 L296.17 599.66 L294.84 597.79 L289.01 597.99 L290.11 594.94 L288.48 593.14 L284.71 592.24 L284.51 589.78 L285.72 586.78 L284.35 584.83 L280.94 583.65 L282.48 580.58 L283.48 577.76 L280.46 576.37 L277.41 574.94 L278.07 572.26 L276.90 570.18 L275.75 568.09 L275.61 565.69 L273.29 563.91 L275.98 560.74 L275.14 558.56 L271.42 557.10 L271.97 554.54 L273.99 551.68 L270.78 550.00 L267.09 548.37 L269.07 545.56 L270.62 542.87 L267.87 540.99 L265.19 539.05 L267.42 536.29 L268.00 533.82 L263.76 532.03 L262.97 529.73 L264.51 527.15 L261.16 525.12 L263.27 522.50 L262.59 520.18 L264.61 517.64 L266.35 515.16 L265.70 512.85 L264.28 510.56 L263.87 508.22 L264.48 505.84 L260.88 503.53 L256.14 501.17 L258.47 498.74 L254.72 496.27 L251.87 493.74 L252.41 491.28 L251.60 488.76 L251.15 486.24 L252.14 483.81 L250.47 481.19 L251.17 478.74 L250.98 476.22 L250.11 473.61 L250.37 471.11 L248.11 468.29 L248.16 465.74 L248.94 463.28 L248.44 460.64 L252.32 458.70 L254.26 456.50 L254.56 454.01 L257.89 452.13 L260.76 450.20 L263.69 448.34 L260.48 445.12 L263.51 443.32 L266.30 441.51 L262.08 437.93 L259.94 434.79 L264.10 433.39 L262.92 430.48 L262.81 427.87 L266.89 426.55 L265.42 423.50 L269.83 422.39 L271.55 420.41 L269.30 417.04 L269.49 414.49 L273.02 413.21 L272.34 410.33 L270.16 406.81 L274.28 405.83 L277.25 404.45 L275.27 400.93 L276.03 398.58 L278.25 396.90 L279.21 394.64 L277.36 391.02 L277.43 388.27 L279.96 386.78 L279.50 383.74 L281.45 381.96 L281.53 379.16 L282.84 377.04 L287.45 376.82 L286.92 373.65 L285.58 369.94 L288.86 369.03 L291.43 367.71 L290.39 364.10 L289.29 360.37 L292.96 359.81 L295.89 358.79 L294.61 354.85 L295.57 352.44 L299.90 352.50 L300.47 349.82 L299.13 345.64 L301.51 344.29 L303.72 342.82 L303.63 339.50 L306.78 338.82 L305.89 334.76 L309.75 334.74 L313.57 334.75 L312.81 330.71 L312.99 327.44 L316.54 327.30 L318.81 325.98 L316.51 320.21 L314.83 314.90 L320.10 316.53 L321.06 313.82 L319.20 308.08 L324.20 309.61 L328.62 310.64 L327.86 305.92 L330.67 305.20 L332.60 303.48 L334.99 302.32 L338.15 302.12 L340.39 300.83 L341.00 297.48 L343.60 296.63 L345.87 295.38 L345.95 291.18 L347.79 289.29 L350.57 288.71 L353.91 289.00 L354.32 285.02 L357.42 285.00 L360.87 285.58 L361.72 282.15 L362.41 278.36 L366.35 279.83 L369.76 280.53 L370.48 276.69 L371.20 272.72 L374.62 273.51 L376.47 271.49 L378.76 270.26 L381.13 269.19 L382.96 267.05 L387.02 269.40 L388.91 267.41 L389.67 262.92 L392.86 263.62 L396.18 264.74 L397.18 260.53 L398.49 256.90 L401.86 258.22 L405.14 259.42 L406.56 255.89 L408.32 253.11 L411.92 255.36 L414.54 254.97 L415.80 250.60 L418.33 249.84 L421.19 250.17 L422.89 246.75 L426.05 248.14 L427.79 244.62 L430.91 245.98 L434.39 248.91 L435.99 244.60 L437.99 241.68 L441.29 244.18 L444.15 244.94 L446.00 241.02 L448.13 238.19 L451.32 240.72 L453.99 240.63 L456.00 236.72 L458.68 236.55 L461.92 240.29 L464.15 237.19 L466.36 233.50 L469.22 234.90 L472.00 235.80 L474.48 233.75 L477.23 234.55 L479.66 231.41 L482.57 234.58 L485.37 237.06 L487.86 233.79 L490.44 231.48 L493.22 235.01 L495.87 234.78 L498.48 227.58 L501.21 225.60 L503.96 225.40 L506.87 218.67 L509.61 221.01 L512.05 228.92 L514.56 232.70 L516.96 237.17 L518.97 245.62 L521.52 245.73 L524.08 245.70 L526.64 245.82 L529.17 246.19 L531.74 246.25 L534.33 246.14 L536.93 246.06 L539.48 246.37 L541.97 247.07 L544.69 246.41 L548.22 241.53 L552.16 235.12 L554.28 238.19 L558.40 231.83 L562.67 225.46 L564.00 232.03 L568.84 223.99 L570.09 230.48 L572.63 231.76 L576.58 227.98 L577.59 234.59 L583.06 226.09 L583.59 233.94 L586.49 234.06 L590.12 232.02 L590.91 238.36 L596.99 229.61 L596.92 238.10 L600.30 237.06 L603.44 236.77 L604.25 242.30 L612.14 230.59 L613.10 235.75 L615.31 237.88 L618.84 237.02 L620.96 239.31 L625.80 235.83 L626.78 240.49 L629.64 241.22 L632.38 242.23 L634.85 243.75 L639.26 241.68 L639.69 246.97 L643.02 246.95 L645.26 248.88 L648.15 249.69 L652.22 248.59 L652.79 253.25 L656.78 252.38 L658.43 255.22 L662.01 255.10 L665.36 255.38 L665.65 260.15 L670.21 258.74 L671.05 262.63 L675.46 261.57 L677.40 263.93 L677.53 268.60 L683.22 266.06 L682.77 271.39 L688.43 269.08 L689.58 272.36 L689.55 276.96 L695.45 274.64 L694.77 279.91 L701.18 277.19 L700.89 281.93 L700.37 286.82 L706.08 285.09 L705.62 289.82 L713.24 286.34 L711.71 292.08 L711.16 296.73 L717.04 295.21 L716.52 299.75 L724.18 296.79 L721.77 302.98 L721.66 307.01 L727.24 306.11 L726.55 310.58 L734.27 308.08 L731.59 314.11 L731.95 317.60 L737.36 317.16 L736.58 321.50 L744.80 319.11 L741.71 325.10 L740.98 329.28 L746.45 329.08 L746.08 332.95 L753.06 331.89 L750.46 337.20 L750.78 340.54 L755.57 341.06 L755.14 344.85 L762.72 343.81 L760.13 348.85 L760.56 352.06 L764.60 353.25 L764.68 356.65 L770.69 356.87 L767.20 362.12 L767.78 365.20 L770.93 366.99 L771.37 370.12 L776.88 370.87 L774.41 375.35 L776.69 377.64 L778.55 380.13 L779.80 382.90 L784.29 384.34 L781.39 388.79 L784.63 390.79 L784.79 393.98 L787.29 396.31 L790.33 398.49 L787.27 402.77 L791.42 404.60 L790.17 408.21 L794.23 410.15 L795.36 413.03 L792.31 417.09 L797.62 418.79 L795.26 422.60 L800.10 424.53 L799.61 427.83 L796.95 431.61 L802.99 433.40 L799.22 437.36 L805.84 439.16 L803.56 442.76 L800.19 446.50 L806.35 448.56 L802.71 452.28 L810.01 454.30 L806.75 457.91 L803.69 461.42 L809.20 463.85 L805.85 467.34 L813.88 469.66 L808.29 473.31 L805.03 476.66 L810.34 479.37 L807.10 482.67 L815.35 485.37 L810.17 488.71 L807.14 491.90 L812.15 494.89 L808.54 498.03 L815.05 501.14 L809.71 504.22 L807.93 507.28 L816.21 510.64 L815.10 513.76 L816.85 517.01 L815.82 520.12 L814.30 523.18 L816.87 526.56 L816.70 529.74 L816.67 532.93 L816.53 536.12 L815.78 539.24 L815.22 542.38 L814.20 545.44 L815.44 548.85 L814.17 551.87 L812.79 554.86 L814.83 558.47 L814.48 561.66 L813.84 564.81 L813.83 568.08 L812.54 571.08 L810.92 573.99 L809.49 576.93 L810.17 580.40 L808.86 583.36 L807.44 586.29 L808.85 590.03 L808.35 593.24 L807.83 596.45 L807.65 599.78 L806.10 602.67 L804.05 605.38 L802.52 608.25 L802.66 611.73 L801.11 614.59 L796.01 616.05 L792.54 618.08 L793.90 622.06 L792.60 624.96 L788.85 626.79 L794.37 632.74 L793.11 635.71 L791.40 638.48 L791.10 641.92 L789.68 644.84 L789.43 648.34 L788.43 651.49 L787.19 654.53 L785.39 657.26 L784.30 660.38 L782.67 663.21 L780.01 665.43 L778.76 668.48 L777.46 671.50 L775.09 673.86 L775.46 677.98 L773.69 680.73 L772.29 683.75 L770.01 686.17 L768.38 689.03 L766.18 691.49 L763.54 693.62 L762.15 696.67 L760.01 699.16 L757.24 701.15 L757.29 705.36 L755.27 707.96 L753.71 710.95 L751.80 713.66 L749.34 715.89 L746.98 718.21 L744.23 720.17 L743.33 723.81 L740.31 725.50 L735.44 725.40 L731.97 726.58 L728.43 727.62 L729.83 733.64 L724.78 733.13 L722.83 735.78 L724.93 742.82 L721.94 744.45 L720.56 747.86 L717.80 749.75 L714.53 751.02 L713.58 755.04 L711.37 757.58 L708.72 759.61 L706.54 762.22 L703.45 763.68 L700.38 765.14 L697.50 766.84 L695.68 769.99 L692.89 771.82 L689.65 772.99 L688.25 776.84 L685.65 778.99 L682.80 780.75 L680.57 783.47 L677.35 784.67 L673.69 785.11 L670.45 786.18 L668.47 789.40 L665.26 790.53 L662.31 792.11 L660.48 795.75 L657.65 797.59 L654.70 799.21 L652.05 801.44 L648.91 802.70 L645.33 803.04 L642.21 804.30 L639.57 806.61 L636.02 806.92 L631.77 805.55 L627.46 803.86 L626.46 810.14 L622.16 808.38 L618.19 807.30 L618.00 816.20 L614.77 817.19 L611.70 818.63 L608.59 819.97 L605.32 820.85 L602.81 824.12 L599.60 825.23 L596.48 826.67 L593.11 827.30 L589.87 828.34 L586.63 829.40 L583.09 829.29 L580.16 831.61 L576.68 831.74 L573.12 831.40 L570.34 834.66 L566.99 835.36 L563.69 836.29 L560.34 837.02 L556.90 837.18 L553.41 837.04 L549.89 836.58 L546.74 838.61 L543.23 838.13 L539.72 837.41 L536.64 840.57 L533.22 840.84 L529.87 841.86 L526.45 842.07 L522.99 841.80 L519.53 841.26 L516.08 840.71 L512.72 842.06 L509.27 841.13 L505.80 837.75 L502.40 834.97 L499.06 832.35 L495.71 834.35 L492.47 829.64 L489.15 830.35 L485.71 833.38 L482.38 833.14 L478.97 834.29 L475.57 834.89 L472.30 833.67 L468.75 835.63 L465.57 833.67 L462.51 830.89 L459.17 830.73 L456.07 828.79 L452.90 827.48 L449.59 827.24 L446.28 826.99 L442.89 827.16 L439.73 825.98 L436.38 825.81 L433.22 824.72 L430.40 822.09 L427.18 821.38 L423.79 821.37 L421.29 817.74 L417.92 817.70 L414.44 817.99 L411.39 816.67 L407.64 817.81 L405.08 814.83 L401.16 816.34 L398.05 815.18 L395.38 812.74 L390.98 815.37 L388.85 811.42 L384.90 812.55 L382.17 810.38 L380.04 806.69 L375.81 808.40 L373.66 804.90 L369.61 805.97 L366.25 805.35 L363.40 803.57 L359.64 803.78 L357.11 801.31 L353.11 801.89 L350.54 799.53 L348.20 796.76 L344.34 796.93 L341.81 794.57 L337.41 795.63 L335.14 792.79 L332.77 790.17 L329.07 789.84 L326.89 786.94 L322.25 788.08 L320.63 784.31 L318.40 781.56 L314.74 781.03 L312.39 778.50 L308.22 778.62 L305.81 776.17 L302.81 774.57 L299.96 772.74 L298.02 769.68 L293.36 770.23 L292.08 766.34 L289.37 764.32 L286.48 762.52 L284.44 759.67 L280.06 759.63 L278.14 756.64 L274.93 755.16 L272.33 752.96 L269.52 750.98 L265.48 750.32 L264.83 746.03 L262.84 743.20 L259.62 741.61 L255.07 741.31 L251.43 740.05 L250.41 736.26 L246.63 735.07 L242.05 734.57 L244.90 727.36 L246.73 721.23 L241.17 721.56 L238.60 719.26 L236.96 716.20 L234.32 713.95 L231.19 712.07 L229.23 709.26 L225.68 707.66 L226.13 703.05 L224.82 699.78 L220.29 698.83 L217.93 696.29 L217.23 692.61 L212.60 691.58 L204.58 692.69 L204.45 688.59 L206.07 683.44 L201.60 682.11 L198.12 680.12 L201.00 674.37 L202.90 669.31 L197.82 668.22 L194.37 666.16 L194.81 661.98 L192.48 659.30 L191.11 656.11 L189.28 653.16 L187.62 650.11 L189.36 645.47 L186.32 643.09 L182.46 641.03 L183.06 636.99 L183.52 633.05 L179.68 630.91 L175.74 628.75 L176.36 624.77 L176.91 620.86 L172.67 618.73 L169.82 616.04 L170.79 612.01 L169.70 608.71 L165.30 606.46 L164.75 602.96 L165.99 598.93 L162.93 596.18 L163.72 592.33 L159.85 589.75 L161.46 585.71 L163.99 581.50 L160.04 578.87 L157.78 575.80 L159.22 571.91 L160.41 568.12 L155.97 565.44 L153.07 562.40 L155.81 558.36 L154.67 555.01 L150.25 552.13 L151.11 548.44 L153.68 544.56 L149.91 541.49 L146.77 538.28 L147.84 534.61 L149.42 530.92 L147.57 527.53 L148.07 523.96 L145.48 520.57 L148.36 516.88 L150.86 513.26 L147.18 509.87 L146.24 506.36 L148.98 502.80 L148.19 499.28 L141.96 495.69 L142.35 492.12 L141.80 488.52 L137.24 484.74 L136.44 481.06 L135.49 477.36 L136.80 473.79 L134.43 469.94 L135.86 466.39 L136.08 462.74 L134.45 458.87 L136.49 455.42 L134.22 451.42 L133.87 447.64 L135.11 444.09 L132.68 439.95 L134.87 436.56 L135.65 432.93 L138.39 429.69 L141.69 426.61 L142.47 423.03 L146.68 420.24 L150.87 417.50 L152.70 414.26 L151.36 410.22 L155.24 407.53 L155.91 404.02 L151.02 398.88 L152.51 395.53 L155.07 392.53 L152.04 387.76 L158.42 386.03 L158.09 382.11 L160.02 378.96 L165.37 377.08 L163.61 372.60 L162.44 368.28 L166.30 365.93 L169.07 363.18 L167.92 358.80 L168.46 355.10 L173.74 353.50 L173.52 349.46 L173.85 345.64 L176.55 342.94 L178.40 339.85 L177.78 335.50 L176.58 330.79 L179.51 328.21 L181.92 325.39 L182.06 321.31 L185.08 318.84 L184.31 314.17 L188.84 312.62 L192.87 310.84 L192.05 306.06 L192.98 302.33 L197.21 300.74 L199.02 297.59 L197.86 292.39 L199.96 289.39 L204.66 288.25 L205.07 284.04 L204.36 278.95 L209.45 278.18 L213.49 276.70 L213.18 271.81 L213.85 267.63 L217.22 265.64 L219.99 263.18 L221.40 259.55 L224.28 257.18 L225.20 253.06 L230.37 252.79 L233.55 250.76 L233.39 245.56 L236.17 243.13 L240.78 242.52 L240.91 237.45 L238.41 229.55 L241.54 227.38 L246.86 227.59 L247.80 223.10 L248.72 218.51 L255.79 220.86 L261.54 221.87 L261.50 216.13 L263.39 212.59 L267.82 212.15 L269.21 207.95 L272.78 206.48 L275.13 203.44 L278.04 201.11 L283.66 202.50 L285.06 198.14 L286.00 193.00 L290.97 193.65 L294.83 192.76 L296.01 187.81 L297.72 183.55 L302.50 184.12 L306.62 183.71 L308.00 178.79 L310.98 176.47 L316.11 177.90 L318.84 175.18 L319.97 169.48 L323.79 168.64 L327.85 168.32 L330.01 164.33 L334.31 164.53 L336.10 159.63 L340.88 160.92 L345.50 162.02 L347.38 157.11 L350.05 153.83 L354.88 155.56 L358.52 154.59 L360.53 149.55 L363.81 147.57 L368.53 149.40 L371.79 147.42 L374.12 142.72 L378.27 143.17 L382.85 145.02 L385.50 141.03 L388.30 137.31 L392.30 137.45 L396.28 137.62 L399.36 134.58 L403.22 134.38 L406.24 130.90 L410.80 133.52 L414.93 134.65 L417.75 130.04 L421.29 128.46 L425.66 130.93 L429.10 128.85 L431.99 123.63 L436.08 124.87 L440.22 126.59 L443.64 123.90 L446.99 120.42 L451.20 123.09 L455.26 125.02 L458.65 121.28 L462.16 118.09 L466.19 120.12 L469.91 118.79 L473.72 118.38 L477.54 118.26 L481.29 116.60 L485.30 120.86 L489.05 119.42 L492.78 115.43 L496.65 118.05 L500.47 120.18 L504.33 115.09 L508.32 108.46 L512.20 109.72 L516.13 109.06 L520.38 102.55 L523.97 109.08 L527.24 118.25 L530.88 120.78 L534.20 126.26 L537.41 131.79 L541.13 131.81 L544.78 132.42 L548.48 132.75 L552.16 133.15 L555.86 133.50 L559.61 133.54 L563.30 133.97 L566.96 134.62 L570.65 135.07 L574.61 134.29 L578.99 131.65 L582.66 132.49 L587.21 129.62 L592.11 125.62 L595.41 128.28 L598.90 130.07 L603.01 129.59 L607.28 128.66 L611.10 129.36 L614.32 132.04 L617.61 134.40 L621.41 135.15 L625.74 134.39 L629.78 134.55 L633.01 137.02 L636.00 140.04 L639.60 141.40 L643.97 140.84 L648.14 140.87 L652.35 140.89 L657.33 139.24 L662.02 138.39 L667.15 136.72 L672.80 134.13 L675.07 138.72 L681.00 135.81 L683.42 140.01 L686.05 143.70 L691.81 141.46 L693.58 146.70 L700.39 142.78 L701.69 148.75 L703.64 153.43 L709.59 151.33 L711.36 156.22 L718.53 152.40 L719.32 158.76 L721.25 163.21 L727.19 161.60 L729.03 166.12 L736.53 162.47 L736.98 168.92 L738.49 173.75 L744.30 172.73 L746.03 177.20 L753.17 174.63 L752.93 181.56 L754.81 185.69 L760.70 184.93 L762.08 189.63 L769.70 187.01 L769.71 193.26 L771.33 197.57 L776.63 197.79 L778.16 202.16 L785.18 200.70 L784.73 207.10 L786.43 211.18 L791.03 212.35 L793.17 215.98 L799.80 215.31 L799.32 221.40 L801.70 224.76 L805.66 226.70 L808.12 230.00 L813.75 230.57 L813.41 236.25 L816.78 238.78 L819.66 241.73 L822.42 244.79 L827.47 246.08 L826.93 251.70 L831.62 253.32 L833.01 257.42 L836.53 259.97 L840.97 261.91 L839.54 267.93 L844.29 269.70 L845.29 274.00 L849.97 275.90 L852.21 279.40 L851.64 284.62 L857.84 285.72 L856.94 291.07 L862.87 292.45 L864.40 296.38 L863.50 301.63 L870.38 302.65 L868.46 308.38 L875.52 309.46 L874.57 314.63 L872.54 320.24 L879.19 321.69 L877.28 327.17 L884.76 328.38 L883.06 333.71 L882.35 338.54 L888.83 340.37 L886.26 345.92 L894.82 347.07 L891.91 352.68 L890.11 357.80 L895.94 360.14 L894.74 364.99 L903.78 366.39 L899.54 372.21 L898.11 377.04 L903.71 379.72 L902.03 384.59 L910.79 386.51 L906.27 392.12 L904.68 396.86 L910.30 399.79 L908.22 404.61 L916.05 407.16 L911.79 412.42 L910.18 417.04 L915.07 420.36 L913.37 424.97 L921.18 427.89 L916.36 433.00 L914.82 437.49 L919.19 441.12 L917.48 445.61 L924.33 449.03 L920.05 453.80 L918.93 458.15 L922.41 462.07 L921.40 466.40 L926.69 470.27 L922.01 474.84 L921.92 479.07 L923.74 483.23 L923.03 487.49 L927.82 491.63 L923.71 495.95 L959.15 500.00 L959.17 495.41 L954.28 490.91 L959.53 486.21 L957.45 481.69 L959.04 477.03 L957.88 472.49 L951.98 468.31 L956.65 463.39 L954.09 459.02 L956.43 454.20 L953.68 449.89 L947.72 446.01 L953.34 440.73 L949.91 436.60 L952.71 431.58 L949.47 427.46 L942.94 423.97 L948.88 418.32 L945.02 414.41 L947.98 409.19 L944.07 405.35 L937.49 402.17 L943.91 396.06 L939.30 392.50 L942.21 387.08 L938.42 383.37 L931.28 380.64 L937.17 374.29 L932.31 370.99 L935.23 365.37 L930.59 362.07 L923.60 359.62 L929.52 352.88 L924.93 349.69 L927.57 343.93 L922.51 340.97 L916.66 338.39 L921.04 331.83 L914.91 329.45 L917.68 323.41 L912.66 320.64 L907.63 317.96 L910.88 311.56 L904.61 309.52 L907.37 303.22 L901.57 301.04 L897.50 298.08 L899.29 292.13 L893.55 290.08 L895.58 283.89 L890.10 281.80 L888.01 277.84 L888.06 272.63 L883.54 270.09 L883.94 264.60 L878.35 262.79 L876.68 258.56 L875.40 254.05 L872.16 250.82 L871.10 246.12 L865.02 244.88 L864.68 239.65 L862.18 235.93 L859.31 232.48 L857.54 228.20 L851.03 227.56 L850.95 221.96 L847.71 218.82 L845.46 214.88 L842.23 211.75 L836.32 210.92 L836.73 204.67 L832.78 202.19 L831.47 197.34 L827.13 195.24 L820.44 195.44 L821.16 188.59 L816.50 186.89 L815.46 181.63 L810.41 180.39 L803.63 181.05 L804.21 173.98 L799.07 172.99 L798.40 167.10 L792.98 166.49 L786.19 167.58 L786.83 160.01 L781.44 159.56 L780.76 153.37 L775.21 153.19 L768.23 154.96 L768.77 147.03 L763.46 146.74 L762.39 140.73 L756.86 140.81 L750.12 142.74 L750.43 134.57 L744.93 134.82 L743.71 128.67 L738.30 128.86 L732.15 130.37 L731.82 122.56 L726.10 123.49 L724.63 117.31 L719.17 117.92 L713.12 119.70 L711.76 113.12 L705.89 114.73 L704.09 108.73 L698.85 109.31 L693.98 109.25 L692.23 102.86 L686.72 104.21 L684.41 98.76 L681.87 93.61 L678.94 89.19 L675.87 84.95 L671.99 82.53 L668.08 80.16 L664.67 76.45 L660.38 74.94 L655.44 75.21 L650.59 75.36 L646.47 73.50 L642.68 70.61 L638.58 68.55 L633.87 68.44 L628.93 69.20 L624.47 68.44 L620.68 65.31 L616.65 62.89 L612.08 62.51 L607.19 63.50 L603.79 58.31 L600.05 54.27 L595.66 52.94 L591.72 49.38 L587.47 47.12 L582.91 46.44 L578.32 45.90 L573.75 45.31 L569.21 44.53 L564.65 43.85 L560.02 43.75 L555.40 43.61 L550.84 43.06 L546.24 42.79 L541.16 47.92 L536.15 53.55 L531.52 55.56 L526.49 64.83 L521.81 70.95 L517.79 64.26 L513.43 63.90 L509.06 64.64 L504.77 58.29 L500.36 53.35 L495.92 56.39 L491.53 59.25 L487.02 55.60 L482.56 55.44 L478.33 59.99 L473.88 59.24 L469.52 60.20 L465.11 60.40 L460.71 60.71 L456.54 63.37 L451.89 61.16 L447.20 59.15 L443.14 62.35 L439.29 66.69 L434.60 64.95 L429.88 63.28 L426.07 67.22 L422.08 69.88 L416.98 66.48 L412.51 66.61 L408.89 70.86 L404.46 71.17 L399.32 68.44 L395.80 72.71 L392.44 77.35 L387.61 76.17 L383.67 78.35 L379.00 77.93 L375.32 80.98 L371.64 83.87 L366.73 82.81 L361.69 81.51 L358.69 86.38 L355.18 89.55 L349.96 87.95 L345.86 89.51 L343.08 94.47 L338.66 95.11 L333.36 93.68 L329.93 96.86 L327.43 102.10 L322.74 102.21 L317.20 100.57 L314.85 105.90 L312.39 110.82 L307.21 110.09 L304.35 114.07 L299.36 113.85 L296.43 117.62 L293.22 120.77 L287.44 119.28 L283.77 121.65 L282.12 127.46 L277.83 128.69 L272.61 128.46 L270.32 133.01 L268.33 137.92 L263.51 138.40 L257.92 137.83 L255.52 142.04 L254.10 147.57 L248.64 147.32 L243.88 148.13 L243.17 154.48 L239.75 157.09 L236.25 159.61 L233.43 162.97 L229.18 164.55 L227.45 169.23 L222.91 170.49 L217.30 170.57 L217.39 177.26 L218.81 185.29 L213.70 185.95 L209.12 187.26 L209.02 193.36 L206.42 196.76 L198.47 194.71 L193.55 195.87 L192.67 201.04 L190.11 204.52 L184.73 205.35 L183.07 209.69 L183.18 215.56 L178.87 217.44 L176.73 221.24 L173.09 223.76 L171.35 227.87 L170.03 232.29 L165.81 234.37 L161.04 236.07 L160.73 241.24 L160.77 246.59 L155.76 248.17 L151.99 250.71 L152.50 256.30 L150.11 259.81 L144.82 261.37 L142.83 265.18 L143.21 270.51 L139.94 273.46 L135.26 275.58 L135.53 280.74 L136.44 286.21 L132.07 288.56 L131.45 293.08 L128.01 296.01 L126.80 300.17 L126.54 304.81 L121.75 307.10 L118.57 310.26 L117.35 314.40 L116.52 318.72 L113.39 321.95 L111.06 325.57 L113.46 331.26 L111.08 334.84 L107.38 337.88 L107.11 342.35 L108.61 347.48 L104.99 350.60 L100.77 353.55 L103.84 359.15 L103.10 363.34 L101.19 367.13 L104.91 372.75 L100.02 375.57 L101.01 380.24 L99.65 384.19 L93.20 386.72 L93.09 391.06 L95.02 395.90 L92.57 399.61 L92.84 403.98 L95.43 408.85 L98.48 413.75 L97.49 417.74 L99.92 422.40 L101.65 426.86 L101.12 430.88 L102.35 435.18 L99.23 438.78 L99.72 442.94 L99.15 446.94 L96.01 450.63 L97.24 454.87 L95.31 458.74 L94.68 462.77 L95.98 466.96 L93.16 470.82 L94.27 474.98 L93.39 479.00 L92.32 483.03 L87.83 486.97 L87.70 491.10 L88.08 495.22 L82.73 499.34 L82.47 503.51 L85.96 507.62 L84.75 511.80 L82.12 516.06 L85.23 520.09 L88.94 524.04 L87.17 528.28 L88.86 532.30 L87.96 536.52 L90.14 540.46 L92.44 544.36 L90.62 548.70 L88.71 553.10 L92.70 556.74 L94.55 560.62 L91.86 565.20 L92.71 569.25 L96.83 572.70 L95.10 577.20 L93.22 581.78 L95.84 585.47 L99.47 588.90 L99.21 593.17 L97.45 597.83 L102.06 600.94 L105.75 604.21 L104.46 608.79 L107.86 612.09 L107.37 616.49 L111.04 619.64 L112.44 623.46 L110.95 628.24 L112.81 631.93 L116.31 635.04 L116.39 639.34 L115.34 644.09 L118.95 647.10 L122.79 649.97 L121.61 654.84 L121.38 659.37 L124.97 662.29 L128.56 665.16 L128.01 669.88 L129.04 673.92 L134.58 675.80 L136.05 679.60 L138.04 683.14 L139.95 686.72 L141.90 690.27 L146.46 692.41 L146.57 696.96 L145.66 702.13 L151.72 703.32 L158.60 703.90 L159.36 708.10 L159.27 712.86 L165.11 713.90 L168.44 716.47 L165.11 723.46 L165.42 728.11 L169.25 730.38 L171.00 734.08 L170.87 739.17 L174.75 741.36 L179.86 742.57 L181.20 746.61 L184.57 749.08 L186.20 752.93 L188.11 756.58 L191.85 758.71 L194.44 761.79 L193.82 767.68 L201.00 766.72 L208.89 764.96 L209.39 769.87 L211.20 773.61 L216.02 774.49 L217.31 778.76 L218.38 783.32 L220.44 786.93 L224.24 788.75 L229.43 789.05 L230.79 793.42 L233.81 796.02 L236.86 798.58 L239.51 801.60 L243.51 803.04 L245.05 807.41 L249.25 808.57 L251.72 811.84 L255.54 813.44 L260.15 813.95 L261.36 818.92 L265.87 819.52 L268.75 822.28 L272.24 824.22 L276.10 825.61 L278.10 829.70 L282.05 830.94 L284.68 834.17 L288.76 835.15 L293.49 835.02 L295.41 839.46 L299.80 839.82 L302.30 843.39 L306.74 843.57 L310.84 844.30 L313.08 848.42 L317.30 848.90 L319.99 852.29 L324.31 852.48 L328.65 852.56 L331.34 856.04 L335.36 856.73 L338.45 859.45 L342.33 860.42 L345.69 862.56 L348.59 865.86 L353.36 864.62 L355.88 868.97 L360.86 866.99 L364.78 867.70 L367.97 870.44 L372.75 868.63 L375.35 873.14 L379.66 872.60 L383.36 873.89 L386.64 876.60 L391.08 875.41 L394.39 878.08 L398.46 878.04 L401.79 880.81 L405.75 881.19 L410.28 879.10 L413.94 880.58 L417.85 880.97 L422.15 879.38 L426.14 879.14 L429.80 880.59 L433.74 880.57 L437.56 881.13 L441.35 881.88 L445.19 882.34 L449.19 881.55 L453.26 879.97 L457.09 880.22 L461.14 878.21 L465.12 876.47 L468.71 878.88 L472.60 877.82 L476.35 878.64 L480.09 879.65 L483.91 879.32 L487.60 882.76 L491.43 882.51 L495.32 877.70 L499.09 879.87 L502.86 876.28 L506.57 873.27 L510.20 869.50 L513.84 867.70 L517.57 868.79 L521.19 867.34 L524.79 866.16 L528.38 864.92 L531.98 864.10 L535.67 864.31 L539.26 863.45 L543.16 865.27 L546.62 863.34 L550.07 861.56 L553.86 862.19 L557.24 860.17 L560.68 858.62 L564.14 857.30 L567.63 856.24 L571.16 855.40 L574.67 854.46 L578.68 855.86 L581.93 853.70 L585.26 852.06 L588.98 851.96 L592.15 849.78 L595.57 848.55 L599.06 847.63 L602.30 845.82 L605.81 844.99 L609.13 843.50 L613.24 844.45 L616.44 842.61 L619.93 841.62 L623.26 840.19 L626.38 838.20 L632.53 844.14 L634.93 840.18 L637.20 836.06 L642.33 838.90 L644.37 834.35 L646.23 829.57 L648.94 826.82 L652.55 826.06 L655.46 823.80 L658.03 820.90 L660.88 818.60 L664.34 817.51 L667.40 815.66 L670.45 813.79 L674.66 814.01 L677.39 811.53 L680.00 808.90 L683.85 808.38 L686.35 805.59 L688.41 802.12 L690.84 799.31 L694.14 797.87 L696.84 795.51 L699.80 793.55 L703.94 793.28 L706.10 790.15 L708.61 787.55 L712.15 786.37 L714.55 783.64 L716.80 780.72 L719.01 777.80 L721.88 775.73 L724.40 773.22 L727.19 771.04 L731.43 770.56 L732.98 766.92 L735.00 763.86 L738.61 762.58 L740.27 759.15 L747.67 761.83 L749.84 758.89 L749.30 753.22 L755.53 754.40 L756.39 750.20 L757.47 746.28 L757.15 741.10 L758.32 737.39 L761.93 735.92 L763.32 732.44 L765.17 729.39 L766.93 726.29 L769.00 723.46 L771.39 720.89 L773.49 718.10 L777.40 716.71 L778.53 713.14 L780.39 710.15 L782.57 707.40 L783.46 703.73 L784.98 700.53 L787.01 697.70 L788.24 694.32 L790.25 691.49 L791.84 688.37 L795.49 686.57 L796.44 683.05 L798.68 680.33 L800.27 677.22 L800.61 673.39 L802.07 670.23 L804.05 667.36 L805.08 663.98 L806.71 660.92 L808.79 658.10 L810.70 655.17 L811.97 651.93 L814.33 649.21 L815.13 645.74 L816.77 642.67 L823.90 642.00 L822.54 637.58 L824.02 634.40 L827.30 631.94 L826.00 627.64 L822.87 622.70 L823.36 619.20 L825.63 616.36 L825.87 612.78 L825.56 609.04 L825.78 605.50 L827.22 602.37 L828.31 599.11 L829.38 595.85 L832.50 593.16 L832.32 589.54 L832.32 585.98 L834.31 582.94 L834.12 579.36 L833.69 575.74 L833.48 572.19 L834.29 568.87 L834.68 565.47 L835.13 562.09 L838.17 559.16 L837.38 555.55 L836.78 552.00 L838.77 548.84 L838.34 545.33 L838.19 541.87 L837.94 538.41 L838.07 535.01 L838.26 531.61 L838.33 528.21 L841.11 525.01 L839.72 521.49 L838.51 518.02 L840.34 514.71 L839.05 511.26 L847.21 508.05 L845.03 504.55 L839.38 501.08 L845.63 497.64 L841.39 494.26 L846.01 490.72 L842.11 487.40 L836.42 484.24 L844.41 480.41 L839.95 477.25 L844.76 473.47 L840.53 470.36 L834.56 467.51 L841.22 463.41 L836.24 460.54 L840.72 456.56 L836.40 453.69 L832.11 450.89 L837.65 446.61 L832.33 444.04 L836.97 439.79 L832.22 437.20 L829.23 434.35 L833.17 430.10 L828.30 427.68 L832.07 423.36 L827.39 420.99 L826.34 417.78 L828.61 413.70 L824.76 411.23 L827.28 407.02 L822.29 404.94 L822.41 401.39 L822.79 397.74 L820.05 395.07 L821.07 391.17 L815.30 389.60 L817.20 385.36 L816.03 382.19 L814.29 379.25 L814.24 375.65 L808.44 374.36 L810.97 369.69 L808.72 366.99 L808.30 363.50 L806.74 360.50 L800.89 359.51 L803.92 354.38 L800.63 352.24 L801.26 348.18 L798.28 345.92 L791.42 345.75 L794.76 340.19 L791.12 338.38 L792.23 333.91 L788.89 331.97 L782.65 331.79 L786.59 325.54 L782.45 324.17 L783.76 319.39 L779.93 317.87 L773.51 318.13 L776.86 311.88 L772.80 310.62 L774.21 305.55 L769.37 304.91 L762.89 305.56 L766.81 298.50 L761.93 298.05 L763.55 292.56 L758.98 291.93 L751.86 293.48 L755.47 286.21 L750.40 286.16 L751.60 280.75 L747.10 280.28 L740.71 281.61 L743.87 274.26 L738.46 274.80 L739.92 268.83 L734.78 269.22 L729.20 270.15 L731.41 263.24 L725.85 264.26 L727.04 258.23 L721.81 259.02 L717.19 259.24 L717.99 253.44 L712.56 254.69 L713.46 248.61 L708.27 249.69 L704.75 248.85 L704.65 243.79 L699.89 244.55 L699.89 239.22 L694.60 240.80 L692.06 238.78 L691.11 234.55 L687.03 234.66 L686.00 230.44 L680.94 232.07 L679.27 228.73 L677.11 226.09 L673.75 225.30 L671.87 222.17 L667.03 223.86 L666.04 219.18 L663.26 217.47 L660.50 215.73 L657.73 213.99 L652.51 216.79 L651.27 212.24 L647.74 212.00 L645.43 209.38 L642.08 208.83 L637.19 211.57 L636.74 204.94 L633.39 204.46 L631.26 201.25 L627.46 201.84 L622.67 204.92 L624.79 191.15 L619.63 195.18 L617.31 192.06 L614.48 190.21 L608.79 196.32 L608.83 186.34 L603.69 191.23 L601.85 186.35 L598.41 186.31 L593.25 191.98 L592.65 182.57 L587.68 188.04 L585.95 182.00 L582.36 182.72 L577.83 187.34 L576.52 178.96 L571.81 184.78 L570.35 176.24 L568.30 169.82 L564.35 172.44 L562.41 164.63 L559.96 158.87 L556.53 158.36 L553.08 158.04 L549.63 157.67 L546.20 157.24 L542.77 156.80 L539.30 156.70 L535.84 156.55 L532.41 156.19 L528.93 156.34 L525.48 156.21 L521.46 165.04 L517.87 169.31 L514.35 173.89 L510.81 181.89 L507.57 184.22 L504.51 177.80 L501.28 177.79 L498.05 175.20 L494.69 168.65 L491.39 169.05 L488.22 173.14 L484.88 171.70 L481.44 168.96 L478.33 172.18 L475.31 175.86 L471.85 173.54 L468.77 175.73 L465.36 174.45 L462.31 176.60 L459.29 178.68 L455.67 176.12 L452.12 174.41 L449.52 179.09 L446.46 180.44 L442.71 177.91 L439.69 179.52 L437.13 183.41 L433.50 181.79 L429.70 179.63 L426.89 182.04 L424.48 185.98 L420.79 184.57 L416.90 182.54 L414.81 187.34 L412.25 190.19 L408.51 188.89 L406.11 192.15 L402.33 190.86 L399.95 194.02 L396.91 195.07 L392.80 193.08 L390.14 195.28 L388.27 199.54 L384.62 198.98 L380.78 198.02 L378.81 201.79 L376.87 205.52 L372.94 204.45 L368.82 203.07 L367.07 207.08 L364.99 210.24 L360.63 208.52 L357.65 209.79 L356.70 215.09 L353.38 215.61 L350.91 217.78 L348.06 219.23 L345.21 220.67 L343.51 224.15 L339.53 223.61 L335.36 222.85 L334.17 227.08 L333.51 232.08 L329.41 231.50 L325.60 231.48 L324.64 235.82 L322.81 238.78 L318.92 238.71 L317.60 242.34 L315.80 245.24 L313.33 247.19 L309.02 246.69 L307.06 249.35 L305.26 252.17 L301.54 252.58 L299.95 255.64 L299.04 259.48 L297.26 262.21 L294.95 264.33 L294.03 268.00 L288.90 266.96 L289.11 271.81 L290.28 277.58 L284.16 275.62 L281.81 277.68 L282.96 283.23 L277.28 281.96 L271.26 280.51 L270.35 284.00 L270.33 288.27 L266.86 289.35 L262.40 289.59 L263.09 294.39 L263.27 298.66 L259.20 299.32 L258.98 303.19 L255.35 304.26 L254.73 307.76 L253.75 310.93 L249.21 311.41 L247.21 313.83 L248.47 318.61 L245.83 320.54 L241.72 321.49 L242.08 325.52 L242.77 329.71 L238.92 330.89 L234.90 332.03 L235.25 335.93 L235.80 339.91 L232.04 341.27 L228.92 343.07 L230.95 347.81 L229.61 350.60 L227.79 353.13 L227.27 356.36 L224.70 358.50 L224.70 361.96 L222.30 364.21 L218.60 365.88 L217.93 369.00 L218.44 372.64 L217.21 375.48 L212.57 376.86 L214.37 380.99 L216.48 385.18 L212.57 386.93 L210.40 389.41 L212.07 393.34 L210.68 396.10 L207.02 398.08 L207.86 401.63 L210.53 405.75 L207.71 408.05 L210.36 412.06 L208.96 414.80 L207.04 417.41 L209.67 421.28 L206.44 423.55 L201.19 425.36 L203.32 429.04 L205.21 432.60 L201.48 434.88 L203.50 438.42 L205.79 441.96 L208.28 445.47 L207.76 448.40 L209.04 451.62 L212.24 455.10 L211.10 457.88 L211.26 460.85 L211.46 463.81 L208.92 466.44 L209.07 469.41 L208.18 472.26 L207.86 475.17 L208.36 478.15 L206.62 480.97 L207.64 483.97 L207.26 486.88 L206.16 489.78 L206.99 492.74 L203.71 495.62 L201.30 498.57 L204.43 501.54 L199.83 504.57 L196.96 507.64 L198.34 510.63 L198.38 513.65 L197.86 516.70 L197.45 519.76 L200.02 522.61 L202.54 525.41 L203.23 528.34 L205.71 531.08 L203.46 534.32 L205.74 537.04 L205.81 540.02 L203.00 543.44 L205.03 546.16 L208.80 548.56 L207.38 551.80 L205.73 555.14 L208.64 557.61 L211.95 559.96 L209.76 563.45 L207.95 566.91 L211.36 569.17 L213.21 571.77 L211.14 575.37 L212.38 578.12 L216.72 579.99 L216.25 583.20 L217.91 585.79 L218.30 588.75 L219.92 591.33 L222.52 593.57 L221.36 597.07 L220.56 600.49 L223.55 602.55 L226.91 604.42 L226.18 607.85 L227.03 610.68 L230.73 612.33 L232.77 614.63 L231.36 618.43 L232.55 621.12 L236.16 622.68 L232.91 627.45 L234.00 630.21 L238.23 631.40 L241.49 633.02 L242.57 635.73 L245.93 637.23 L245.61 640.70 L247.58 642.93 L250.55 644.56 L249.33 648.63 L249.51 651.94 L255.93 651.40 L260.29 652.03 L259.86 655.70 L262.23 657.56 L266.89 657.85 L265.60 662.17 L263.43 667.19 L265.25 669.45 L269.02 670.27 L268.67 674.12 L268.23 678.11 L272.69 678.33 L275.96 679.41 L276.53 682.65 L280.22 683.33 L280.65 686.72 L283.46 688.10 L286.25 689.45 L285.46 694.03 L288.38 695.27 L293.88 694.04 L295.47 696.44 L295.03 700.84 L298.10 701.83 L302.88 701.03 L302.13 705.87 L303.73 708.34 L305.52 710.62 L309.31 710.70 L313.25 710.54 L313.35 714.73 L316.80 715.06 L317.70 718.38 L320.57 719.37 L323.98 719.65 L324.89 723.05 L328.06 723.58 L329.46 726.41 L332.96 726.44 L336.21 726.74 L337.06 730.38 L340.45 730.44 L341.98 733.18 L344.70 734.18 L347.39 735.19 L348.54 738.61 L352.01 738.39 L353.61 741.15 L357.19 740.66 L360.08 741.24 L361.77 743.92 L365.25 743.42 L367.02 746.01 L369.74 746.84 L372.29 747.97 L374.26 750.28 L377.34 750.35 L379.60 752.09 L382.81 751.81 L385.09 753.50 L387.35 755.28 L390.51 755.01 L392.77 756.77 L395.64 757.10 L396.73 761.92 L400.05 761.12 L403.17 760.74 L405.39 762.80 L409.06 760.74 L410.85 764.08 L414.03 763.32 L417.13 762.69 L418.95 766.17 L422.34 764.50 L424.14 768.27 L427.24 767.49 L429.90 768.28 L432.27 770.25 L435.56 768.47 L437.56 772.10 L440.73 770.69 L443.70 770.00 L446.26 771.28 L449.41 769.46 L452.15 769.74 L454.93 769.73 L457.75 769.36 L460.50 769.42 L463.24 769.48 L465.82 770.77 L468.75 769.20 L471.56 768.42 L474.29 768.13 L477.25 765.17 L479.88 765.76 L482.68 763.75 L485.30 764.28 L487.84 766.59 L490.57 764.92 L493.19 766.24 L495.85 766.62 L498.50 769.54 L501.18 766.57 L503.78 762.28 L506.46 764.42 L508.95 759.89 L511.37 755.67 L513.85 754.15 L516.35 753.50 L518.87 753.06 L521.34 752.21 L523.79 751.20 L526.26 750.54 L528.73 750.02 L531.19 749.34 L533.61 748.53 L536.06 747.92 L538.47 747.16 L540.89 746.42 L543.25 745.41 L545.55 744.16 L547.94 743.46 L550.31 742.69 L552.64 741.74 L555.04 741.14 L557.33 740.07 L559.54 738.71 L562.02 738.48 L564.18 737.01 L566.49 736.16 L568.82 735.39 L571.13 734.57 L573.49 733.90 L575.71 732.80 L578.06 732.11 L580.42 731.44 L582.49 729.95 L584.99 729.67 L587.09 728.31 L589.41 727.52 L591.77 726.84 L593.56 724.78 L595.82 723.86 L597.81 722.35 L599.82 720.89 L602.02 719.87 L603.96 718.31 L606.13 717.25 L608.24 716.05 L610.13 714.46 L612.43 713.65 L614.25 711.94 L616.32 710.71 L618.67 709.97 L620.59 708.47 L622.78 707.44 L624.64 705.85 L626.73 704.66 L628.52 702.99 L630.06 700.95 L632.23 699.88 L633.87 698.04 L635.84 696.68 L637.98 695.57 L639.57 693.68 L641.61 692.42 L643.27 690.65 L644.98 688.97 L646.99 687.67 L648.47 685.71 L650.47 684.39 L652.14 682.68 L653.66 680.80 L655.85 679.71 L657.13 677.57 L659.02 676.12 L660.68 674.42 L662.03 672.39 L664.03 671.05 L665.25 668.92 L667.13 667.46 L668.91 665.89 L669.75 663.41 L671.81 662.12 L672.80 659.81 L674.03 657.75 L675.48 655.90 L676.59 653.75 L678.13 651.98 L679.30 649.92 L680.62 647.97 L682.28 646.31 L683.84 644.57 L685.08 642.57 L686.70 640.86 L687.89 638.83 L689.16 636.87 L690.14 634.70 L691.02 632.48 L691.98 630.32 L692.95 628.18 L694.29 626.29 L695.20 624.12 L696.26 622.05 L697.55 620.13 L698.22 617.84 L699.66 616.01 L700.13 613.63 L701.34 611.67 L702.62 609.74 L703.55 607.63 L704.61 605.58 L705.30 603.35 L706.08 601.17 L707.65 599.38 L707.99 596.99 L709.28 595.06 L710.03 592.88 L710.91 590.76 L712.00 588.73 L711.60 586.08 L712.46 583.97 L712.87 581.68 L713.07 579.32 L713.96 577.22 L714.16 574.88 L714.74 572.68 L715.66 570.60 L715.64 568.21 L716.55 566.13 L716.62 563.79 L717.16 561.59 L718.53 559.63 L718.86 557.37 L719.56 555.21 L719.61 552.90 L719.90 550.65 L720.39 548.44 L719.78 546.01 L720.33 543.83 L720.80 541.63 L720.77 539.35 L721.51 537.20 L721.20 534.87 L721.63 532.67 L721.93 530.45 L721.63 528.16 L722.20 525.97 L721.97 523.70 L722.29 521.49 L722.59 519.27 L722.07 516.99 L722.68 514.80 L722.14 512.54 L722.05 510.30 L722.49 508.10 L721.82 505.85 L722.03 503.64 L723.46 501.42 L730.54 499.16 L727.41 496.90 L727.91 494.61 L728.41 492.32 L726.36 490.12 L728.84 487.72 L723.95 485.73 L727.10 483.25 L726.97 480.97 L726.11 478.77 L727.81 476.31 L721.74 474.70 L724.92 472.05 L723.74 469.92 L724.05 467.60 L724.15 465.29 L717.97 464.01 L723.91 460.73 L723.65 458.46 L725.13 455.86 L723.29 453.89 L718.34 452.63 L722.37 449.43 L717.90 448.15 L719.69 445.39 L717.25 443.69 L710.95 443.06 L717.37 438.99 L713.45 437.78 L716.33 434.59 L713.17 433.21 L706.59 432.99 L712.73 428.65 L708.55 427.72 L711.87 424.19 L708.06 423.19 L701.62 423.27 L709.39 417.91 L707.16 416.39 L709.68 412.92 L705.65 412.17 L700.58 411.95 L704.83 407.63 L698.86 407.92 L701.95 404.03 L697.70 403.61 L691.40 404.31 L697.34 398.86 L692.32 398.99 L695.77 394.67 L691.08 394.71 L685.41 395.41 L690.32 390.11 L685.21 390.58 L688.89 385.84 L684.45 385.99 L680.83 385.71 L686.05 379.79 L683.38 378.90 L685.16 375.05 L680.96 375.23 L679.38 373.65 L679.37 370.96 L674.15 372.05 L675.86 368.07 L671.07 368.97 L670.06 367.03 L670.70 363.75 L667.06 363.90 L668.52 359.89 L663.44 361.32 L663.01 358.86 L662.56 356.38 L659.65 356.08 L659.86 352.97 L655.23 354.33 L656.20 350.46 L655.74 347.88 L654.98 345.57 L653.37 344.09 L648.75 345.72 L649.77 341.53 L645.98 342.41 L644.93 340.37 L642.97 339.32 L637.64 342.17 L639.28 337.03 L636.17 337.40 L636.31 333.89 L633.51 333.95 L628.19 337.25 L630.32 331.10 L626.94 332.03 L627.41 327.85 L624.15 328.71 L619.02 332.28 L621.94 324.47 L619.74 323.91 L619.85 319.89 L616.31 321.37 L612.28 323.73 L613.28 318.18 L608.87 321.30 L609.16 316.71 L605.77 318.30 L601.24 322.01 L603.27 314.15 L599.48 316.67 L599.81 311.58 L596.36 313.63 L591.19 319.21 L592.66 311.63 L588.96 314.49 L589.15 309.24 L585.78 311.55 L581.91 315.18 L583.75 305.82 L580.97 306.96 L580.41 302.79 L577.18 305.18 L576.56 300.95 L576.07 296.15 L570.83 304.23 L572.05 294.47 L568.19 299.07 L566.44 297.60 L564.97 295.17 L560.47 302.54 L561.35 292.26 L557.60 297.53 L556.32 294.23 L554.31 293.49 L550.34 300.48 L550.65 290.47 L547.19 295.87 L546.16 290.80 L543.92 291.02 L540.91 295.18 L541.14 282.78 L539.17 281.23 L537.22 279.40 L535.94 273.23 L533.96 270.92 L531.62 270.95 L529.35 270.49 L527.03 270.36 L524.68 270.58 L522.35 270.71 L520.08 270.25 L517.75 270.43 L515.43 270.60 L513.11 270.97 L510.82 270.74 L508.28 277.21 L505.87 284.03 L503.67 286.11 L501.47 295.10 L499.42 295.60 L497.35 293.64 L495.32 295.16 L493.10 290.07 L490.78 284.97 L488.71 286.55 L486.79 290.01 L484.43 286.55 L482.11 284.53 L480.38 289.25 L478.31 289.83 L476.14 289.39 L474.19 290.90 L471.90 289.72 L470.18 292.65 L467.88 291.47 L465.28 288.67 L463.59 291.46 L462.04 294.69 L459.62 293.20 L457.18 291.79 L455.63 294.69 L454.29 298.28 L451.39 295.02 L448.93 293.86 L447.64 297.33 L445.71 298.23 L442.82 295.64 L441.08 297.25 L440.30 302.00 L437.75 300.77 L435.94 301.96 L433.74 301.94 L432.15 303.72 L430.82 306.17 L428.16 304.92 L425.37 303.42 L424.52 307.02 L423.62 310.32 L420.45 308.03 L418.18 307.99 L417.65 312.00 L415.93 313.18 L412.54 310.71 L410.78 311.87 L410.35 315.74 L407.88 315.39 L404.74 313.79 L404.09 317.04 L404.10 321.43 L401.05 320.08 L400.11 322.60 L397.60 322.33 L396.45 324.42 L395.76 327.21 L392.19 325.26 L389.52 324.89 L390.11 329.62 L388.59 331.01 L385.39 329.87 L384.40 332.05 L384.61 335.89 L381.90 335.56 L380.98 337.73 L380.17 340.00 L378.83 341.55 L377.98 343.70 L374.12 342.03 L373.20 344.10 L372.05 345.86 L369.40 345.83 L369.44 348.98 L366.74 348.93 L366.78 351.99 L365.27 353.28 L361.98 352.68 L362.61 356.27 L365.19 361.76 L363.12 362.42 L359.40 361.47 L360.35 365.14 L360.48 367.93 L354.78 365.26 L350.94 364.45 L351.58 367.72 L351.22 370.04 L347.77 369.69 L346.23 371.01 L348.09 375.15 L345.85 375.86 L345.07 377.77 L343.95 379.40 L342.58 380.84 L343.07 383.65 L340.18 383.97 L337.04 384.16 L337.96 387.24 L339.55 390.71 L336.28 390.86 L333.94 391.68 L335.36 394.94 L335.48 397.32 L331.73 397.30 L330.47 398.85 L331.93 401.98 L330.16 403.21 L326.80 403.58 L327.73 406.34 L329.92 409.73 L327.24 410.51 L327.10 412.62 L325.44 413.96 L325.83 416.30 L326.31 418.66 L323.44 419.46 L320.71 420.37 L320.84 422.57 L321.66 425.03 L319.46 426.22 L316.99 427.34 L320.35 430.74 L319.88 432.62 L316.47 433.43 L317.46 435.85 L319.67 438.64 L317.02 439.77 L313.86 440.79 L316.69 443.70 L318.70 446.30 L315.98 447.49 L320.18 450.63 L317.22 451.77 L318.14 453.96 L319.15 456.13 L313.47 456.73 L312.29 458.43 L315.12 460.99 L313.86 462.66 L313.76 464.58 L316.25 466.95 L319.16 469.34 L318.82 471.14 L320.48 473.24 L322.19 475.31 L323.01 477.23 L324.72 479.23 L321.72 480.68 L323.16 482.62 L322.44 484.34 L320.61 485.99 L323.12 487.96 L320.88 489.61 L322.11 491.46 L321.82 493.23 L319.48 494.95 L321.59 496.79 L320.44 498.57 L320.13 500.37 L318.02 502.19 L317.49 504.02 L319.93 505.77 L314.68 507.79 L313.79 509.70 L316.00 511.43 L312.78 513.51 L312.76 515.40 L315.41 517.04 L317.22 518.72 L317.87 520.49 L319.75 522.11 L318.51 524.10 L320.55 525.66 L321.57 527.34 L319.68 529.48 L317.33 531.74 L320.41 533.06 L322.94 534.43 L320.12 536.84 L319.48 538.86 L323.42 539.87 L323.24 541.77 L321.15 544.15 L323.03 545.57 L326.24 546.60 L325.79 548.59 L324.09 550.97 L327.38 551.89 L330.80 552.72 L328.68 555.26 L330.82 556.45 L330.01 558.61 L331.53 559.98 L333.00 561.35 L330.90 564.04 L330.98 565.95 L333.97 566.71 L334.19 568.55 L333.21 570.92 L335.47 571.91 L338.73 572.41 L337.52 574.92 L337.40 576.96 L340.01 577.69 L339.64 579.86 L340.20 581.58 L340.89 583.25 L343.14 584.08 L345.96 584.56 L347.28 585.83 L349.63 586.51 L349.08 588.84 L351.79 589.25 L351.83 591.26 L350.43 594.20 L352.83 594.76 L356.05 594.73 L354.79 597.66 L353.85 600.42 L357.02 600.37 L359.91 600.44 L359.12 603.16 L358.92 605.49 L361.77 605.53 L363.49 606.39 L362.99 609.00 L364.73 609.85 L368.31 609.14 L368.17 611.50 L370.21 612.02 L370.99 613.61 L372.62 614.47 L374.84 614.75 L374.63 617.27 L373.71 620.52 L378.18 618.60 L382.81 616.40 L382.45 619.12 L381.76 622.24 L384.24 622.10 L385.91 622.77 L385.11 626.14 L386.13 627.56 L387.67 628.40 L390.79 627.38 L391.74 628.85 L392.84 630.17 L395.09 630.06 L395.48 632.26 L397.54 632.36 L398.47 633.90 L399.82 634.90 L401.32 635.69 L402.79 636.52 L405.33 635.81 L405.77 638.11 L407.53 638.48 L409.13 639.08 L410.24 640.42 L412.28 640.30 L412.34 643.37 L414.01 643.86 L415.28 645.01 L417.17 645.09 L419.82 643.76 L420.54 645.87 L422.26 646.18 L423.63 647.14 L425.26 647.58 L427.43 646.92 L427.83 649.88 L429.91 649.35 L430.85 651.27 L433.23 650.02 L435.43 649.08 L436.24 651.34 L438.38 650.44 L439.36 652.37 L441.20 652.16 L442.90 652.28 L442.75 657.44 L445.35 655.11 L446.48 656.88 L448.44 656.23 L450.86 654.05 L451.68 656.90 L454.20 654.17 L454.86 657.72 L456.86 656.63 L458.80 655.66 L459.64 658.89 L461.71 657.31 L462.95 659.14 L464.67 658.92 L466.20 659.55 L467.78 659.99 L469.87 657.72 L471.07 660.13 L472.81 659.57 L474.85 657.11 L476.34 657.87 L477.90 658.26 L479.64 657.28 L481.23 657.33 L482.89 656.72 L484.43 657.15 L486.01 657.23 L487.62 656.89 L489.18 657.11 L490.78 656.71 L492.33 657.14 L493.89 657.49 L495.48 657.12 L497.04 657.98 L498.62 657.84 L500.20 657.67 L501.79 659.45 L503.38 658.91 L504.81 653.94 L506.35 653.77 L507.70 650.20 L508.90 645.15 L510.15 642.18 L511.52 641.47 L512.89 640.86 L514.26 640.40 L515.63 639.90 L517.00 639.50 L518.35 639.05 L519.71 638.60 L521.04 638.07 L522.39 637.64 L523.71 637.10 L525.05 636.67 L526.40 636.37 L527.69 635.74 L529.02 635.32 L530.35 634.93 L531.64 634.37 L532.94 633.90 L534.23 633.37 L535.52 632.86 L536.79 632.28 L538.03 631.63 L539.30 631.11 L540.56 630.54 L541.79 629.92 L543.05 629.37 L544.28 628.76 L545.49 628.08 L546.73 627.54 L547.93 626.87 L549.11 626.15 L550.34 625.57 L551.53 624.92 L552.69 624.19 L553.88 623.54 L554.98 622.71 L556.13 621.99 L557.29 621.29 L558.44 620.59 L559.60 619.92 L560.69 619.11 L561.80 618.34 L562.86 617.50 L563.98 616.77 L565.03 615.91 L566.11 615.14 L567.15 614.28 L568.21 613.47 L569.22 612.58 L570.24 611.72 L571.22 610.81 L572.23 609.95 L573.26 609.13 L574.19 608.15 L575.17 607.26 L576.18 606.43 L577.06 605.41 L578.10 604.62 L578.96 603.59 L579.83 602.60 L580.85 601.79 L581.67 600.74 L582.50 599.71 L583.37 598.73 L584.14 597.65 L584.99 596.67 L585.81 595.65 L586.59 594.60 L587.40 593.59 L588.12 592.48 L588.92 591.47 L589.51 590.26 L590.13 589.08 L590.85 588.02 L591.53 586.92 L592.14 585.76 L592.61 584.49 L593.14 583.27 L593.63 582.05 L594.16 580.86 L594.44 579.47 L594.95 578.30 L595.22 576.93 L595.63 575.69 L595.85 574.32 L596.09 572.98 L596.35 571.67 L596.60 570.36 L596.77 569.02 L596.89 567.65 L597.17 566.41 L597.33 565.10 L597.45 563.78 L597.68 562.55 L597.83 561.27 L597.94 559.99 L598.29 558.86 L598.48 557.64 L598.65 556.42 L598.87 555.25 L599.10 554.08 L599.37 552.95 L599.55 551.77 L599.73 550.60 L599.99 549.49 L600.15 548.32 L600.32 547.18 L600.55 546.06 L600.72 544.93 L600.92 543.81 L601.12 542.70 L601.30 541.59 L601.37 540.44 L601.57 539.34 L601.74 538.25 L601.86 537.13 L601.95 536.01 L602.17 534.94 L602.30 533.85 L602.49 532.78 L602.57 531.68 L602.74 530.61 L602.79 529.51 L602.87 528.42 L602.92 527.33 L602.91 526.23 L602.99 525.16 L603.07 524.08 L603.05 523.00 L603.09 521.92 L603.09 520.85 L603.09 519.78 L603.09 518.71 L603.05 517.64 L603.02 516.58 L603.00 515.52 L602.93 514.46 L602.87 513.40 L602.77 512.35 L602.71 511.30 L602.63 510.25 L602.54 509.21 L602.41 508.16 L602.31 507.13 L602.22 506.09 L602.07 505.06 L601.93 504.03 L601.78 503.01 L601.64 501.99 L601.46 500.97 Z"/>
  <svg class="pausebutton" id="pausebutton">
    <circle cx="500" cy="500" id="pausestart" class="pausestart" r="52.65"/>
    <rect height="50.02" width="10.00" y="473.68" rx="2.00" ry="2.00" x="479.99" class="pausesymbol"/>
    <rect height="50.02" width="10.00" y="473.68" rx="2.00" ry="2.00" x="510.00" class="pausesymbol"/>
    <polygon points="530.01,500 479.99,530.01 479.99,469.99" class="playsymbol"/>
  </svg>
  <polygon id="playback-head" class="playback-head" points="941.65,500 921.65,540 961.65,540"/>
</svg>