<?xml-stylesheet href="../../style/waveformjs.css" type="text/css"?>
<svg xmlns="http://www.w3.org/2000/svg" xmlns:xlink="http://www.w3.org/1999/xlink" width="100%" height="100%" viewBox="0 0 1000 1000">
  <path class="svg-wave" id="sp" d="M597.91 500.00 L598.08 500.98 L598.24 501.97 L598.39 502.95 L598.53 503.94 L598.67 504.94 L598.79 505.93 L598.90 506.93 L599.01 507.94 L599.10 508.94 L599.18 509.95 L599.26 510.96 L599.31 511.97 L599.36 512.99 L599.41 514.01 L599.43 515.03 L599.45 516.05 L599.46 517.07 L599.46 518.10 L599.45 519.13 L599.42 520.15 L599.37 521.18 L599.34 522.21 L599.29 523.25 L599.21 524.28 L599.13 525.31 L599.04 526.35 L598.93 527.38 L598.82 528.42 L598.68 529.45 L598.53 530.48 L598.40 531.52 L598.24 532.56 L598.07 533.59 L597.91 534.63 L597.70 535.66 L597.47 536.69 L597.24 537.72 L596.99 538.74 L596.72 539.76 L596.44 540.77 L596.16 541.79 L595.89 542.82 L595.57 543.83 L595.20 544.82 L594.86 545.82 L594.47 546.81 L593.99 547.75 L593.53 548.69 L593.08 549.65 L592.63 550.61 L591.98 551.45 L591.18 552.21 L590.62 553.10 L589.61 553.71 L587.45 553.62 L584.86 553.20 L584.89 554.41 L586.47 556.65 L584.23 556.40 L585.64 558.59 L588.44 561.81 L587.75 562.64 L586.34 562.95 L585.38 563.57 L584.32 564.10 L581.89 563.56 L579.44 562.93 L577.47 562.65 L574.12 561.17 L571.56 560.28 L573.12 562.85 L571.03 562.30 L569.43 562.13 L571.64 565.41 L570.29 565.49 L567.85 564.49 L568.35 566.28 L570.85 570.09 L568.22 568.85 L568.65 570.68 L570.01 573.54 L566.49 571.26 L565.07 571.15 L566.55 574.24 L566.53 575.73 L565.41 575.98 L569.28 582.12 L568.64 583.04 L566.72 582.37 L564.18 580.88 L561.63 579.28 L559.88 578.63 L559.96 580.40 L558.51 580.11 L557.27 580.09 L558.65 583.77 L557.30 583.61 L555.18 582.27 L554.46 582.98 L556.20 587.53 L554.25 586.37 L553.84 587.65 L554.87 591.37 L552.47 589.39 L550.58 588.17 L549.93 589.10 L548.76 589.09 L546.93 587.82 L547.70 591.45 L546.87 592.09 L544.78 590.20 L543.66 590.19 L544.58 594.49 L542.74 592.99 L541.44 592.60 L542.05 596.54 L540.08 594.59 L538.12 592.52 L537.92 594.73 L538.85 599.93 L537.64 599.75 L538.59 605.46 L539.80 612.24 L538.67 612.60 L537.49 612.84 L536.13 612.49 L534.45 611.04 L532.78 609.52 L531.43 608.97 L529.64 606.77 L528.03 605.03 L526.88 604.93 L525.36 603.29 L524.07 602.44 L524.08 607.28 L522.91 607.07 L521.85 607.36 L521.67 612.20 L520.00 609.42 L518.44 606.91 L517.09 605.38 L516.26 607.01 L514.78 604.25 L513.93 605.87 L513.14 608.29 L511.85 606.54 L510.67 605.48 L509.85 608.14 L508.97 610.72 L507.73 609.07 L506.81 611.80 L505.60 610.14 L504.38 607.24 L503.29 606.72 L502.33 611.96 L501.20 611.47 L500.09 612.86 L498.89 621.09 L497.70 619.77 L496.56 617.75 L495.49 615.04 L494.48 612.18 L493.44 610.73 L492.15 613.27 L491.18 611.16 L490.03 611.47 L488.59 614.62 L487.61 612.98 L486.77 610.43 L485.53 611.33 L483.92 614.75 L482.99 613.15 L481.43 615.65 L480.14 616.24 L479.39 613.76 L478.59 611.79 L477.13 613.29 L476.42 611.06 L475.62 609.45 L473.50 613.59 L472.70 611.93 L472.26 609.01 L471.01 609.32 L468.99 612.40 L468.62 609.46 L467.48 609.31 L465.40 612.18 L465.27 608.71 L464.50 607.40 L461.99 611.26 L460.18 612.85 L459.13 612.23 L455.01 619.81 L452.94 621.62 L451.87 620.77 L451.14 619.14 L450.88 616.43 L450.67 613.74 L449.73 612.80 L450.13 608.96 L449.84 606.76 L448.97 605.85 L448.63 603.89 L448.68 601.23 L448.07 599.93 L446.32 600.84 L446.43 598.24 L445.68 597.29 L443.99 598.00 L443.52 596.56 L443.69 594.11 L442.75 593.55 L441.46 593.53 L440.76 592.58 L438.77 593.63 L436.37 595.19 L435.95 593.78 L434.89 593.32 L431.93 595.51 L432.92 592.15 L432.73 590.51 L430.23 591.93 L430.35 589.90 L429.66 588.93 L427.53 589.76 L424.31 591.86 L424.63 589.63 L421.50 591.48 L419.72 591.67 L420.54 588.93 L419.03 588.82 L418.74 587.36 L419.13 585.22 L417.18 585.55 L415.80 585.25 L416.62 582.75 L415.95 581.76 L415.60 580.47 L416.11 578.41 L416.07 576.88 L412.17 578.85 L410.08 579.12 L408.75 578.68 L404.52 580.68 L404.12 579.39 L406.39 575.94 L407.50 573.52 L405.36 573.70 L407.25 570.74 L406.16 570.10 L403.17 570.83 L403.45 569.16 L403.19 567.89 L400.91 568.02 L398.51 568.19 L397.70 567.25 L395.98 566.91 L394.37 566.46 L394.01 565.21 L392.78 564.50 L386.25 566.89 L384.99 566.09 L382.70 565.86 L373.83 569.19 L373.44 567.77 L373.21 566.27 L373.31 564.61 L374.34 562.51 L376.10 560.09 L376.77 558.26 L378.41 556.00 L380.35 553.66 L380.90 551.99 L381.76 550.21 L383.41 548.14 L383.49 546.75 L381.74 546.09 L382.72 544.36 L381.54 543.45 L381.05 542.29 L381.80 540.70 L382.74 539.07 L381.80 538.07 L381.91 536.73 L381.25 535.64 L377.17 535.53 L375.90 534.56 L376.33 533.11 L375.18 532.08 L372.69 531.37 L375.33 529.40 L376.26 527.88 L374.09 527.05 L375.31 525.48 L375.00 524.25 L371.37 523.62 L371.13 522.33 L371.41 520.96 L366.07 520.46 L368.02 518.81 L369.02 517.34 L367.59 516.18 L369.40 514.64 L369.88 513.26 L367.01 512.22 L368.50 510.75 L370.50 509.29 L369.68 508.04 L371.44 506.64 L373.08 505.28 L372.29 504.04 L367.55 502.86 L368.03 501.53 L365.74 500.21 L362.28 498.84 L364.40 497.50 L367.65 496.24 L367.75 494.92 L368.69 493.64 L370.81 492.45 L369.47 491.06 L367.54 489.59 L369.40 488.42 L368.69 487.04 L366.37 485.46 L366.00 484.06 L365.18 482.59 L363.53 480.99 L363.89 479.65 L364.23 478.31 L362.85 476.68 L356.65 474.15 L356.79 472.69 L352.72 470.39 L346.38 467.51 L347.01 466.04 L347.97 464.66 L349.64 463.46 L352.16 462.50 L354.53 461.55 L356.84 460.62 L359.89 459.95 L362.20 459.12 L364.28 458.25 L366.26 457.39 L368.61 456.69 L368.53 455.20 L369.20 453.97 L371.21 453.22 L370.08 451.33 L371.13 450.25 L373.02 449.52 L374.94 448.82 L374.62 447.23 L375.60 446.17 L375.52 444.65 L373.31 442.14 L373.11 440.51 L374.94 439.84 L373.97 437.81 L373.76 436.13 L377.05 436.24 L376.47 434.36 L376.82 432.96 L378.79 432.45 L378.63 430.77 L375.13 427.10 L377.14 426.62 L377.34 425.07 L373.27 420.83 L377.40 421.69 L378.27 420.53 L378.34 418.82 L381.05 418.90 L381.85 417.70 L380.64 415.08 L383.39 415.26 L385.73 415.21 L386.14 413.73 L388.23 413.54 L390.63 413.63 L389.43 410.88 L387.11 407.13 L388.63 406.50 L387.10 403.28 L386.47 400.74 L389.78 401.68 L392.70 402.34 L392.98 400.62 L395.42 400.92 L398.14 401.54 L396.57 398.00 L397.66 397.04 L399.51 396.86 L399.45 394.71 L398.27 391.32 L400.10 391.12 L400.73 389.60 L400.10 386.64 L401.25 385.67 L402.35 384.62 L401.38 381.09 L399.98 376.91 L400.50 375.03 L397.69 368.83 L396.78 364.89 L398.27 364.04 L399.81 363.28 L401.75 363.08 L404.40 363.91 L407.29 365.17 L409.85 366.05 L412.72 367.48 L415.58 368.98 L417.44 369.01 L419.96 370.15 L421.98 370.55 L422.30 368.11 L424.55 368.95 L425.90 368.26 L426.47 366.17 L428.44 366.60 L430.29 366.88 L431.98 366.88 L433.07 365.71 L434.33 364.87 L434.96 362.70 L434.96 359.07 L436.67 359.08 L438.02 358.32 L438.63 355.81 L440.69 356.68 L442.90 358.02 L443.41 355.14 L445.33 355.80 L447.00 355.87 L448.21 354.68 L448.08 349.60 L450.50 351.81 L451.26 349.08 L452.05 346.30 L454.45 348.69 L455.80 347.65 L457.42 347.56 L459.40 348.84 L460.69 347.58 L461.90 345.91 L463.94 347.64 L465.59 347.85 L467.25 348.12 L469.09 349.38 L470.89 350.58 L471.60 346.00 L472.78 343.66 L474.35 343.42 L475.23 338.74 L476.84 338.47 L478.91 341.59 L480.82 344.07 L482.15 341.88 L484.07 345.00 L485.69 345.57 L486.95 341.95 L488.58 342.47 L490.23 343.53 L491.69 341.45 L493.17 339.03 L494.79 339.32 L496.38 338.30 L497.97 336.36 L499.61 337.03 L501.24 336.57 L502.98 330.79 L504.72 328.93 L506.51 327.09 L508.69 317.57 L510.55 317.13 L512.36 317.46 L514.14 318.14 L515.83 319.72 L517.43 321.99 L519.02 323.90 L520.54 326.18 L522.07 327.97 L523.64 329.29 L525.09 331.29 L526.61 332.58 L528.08 334.04 L529.59 335.16 L530.97 336.87 L532.43 338.05 L534.01 338.53 L535.39 339.95 L536.68 341.62 L538.18 342.37 L539.87 342.28 L541.22 343.53 L542.91 343.48 L544.89 342.48 L547.39 339.81 L548.90 340.59 L550.61 340.69 L552.51 340.28 L553.94 341.30 L555.25 342.61 L556.25 344.76 L557.88 345.10 L560.17 343.76 L562.62 342.13 L563.64 344.13 L566.81 340.91 L568.45 341.47 L569.71 342.89 L571.81 342.43 L573.84 342.17 L575.60 342.53 L578.03 341.55 L579.94 341.70 L581.12 343.26 L582.49 344.46 L583.54 346.21 L584.98 347.22 L586.06 348.86 L588.26 348.54 L590.32 348.50 L591.12 350.58 L593.20 350.55 L595.24 350.62 L595.15 354.01 L594.78 357.71 L596.35 358.43 L596.76 360.85 L596.93 363.54 L598.96 363.59 L602.62 361.48 L604.12 362.35 L606.52 362.07 L610.35 360.03 L611.27 361.73 L612.77 362.70 L614.08 363.90 L614.75 365.85 L617.36 365.55 L623.05 361.84 L624.53 362.97 L627.96 361.99 L634.16 358.17 L635.49 359.60 L636.46 361.40 L636.48 364.12 L635.95 367.33 L636.66 369.28 L637.30 371.27 L636.48 374.58 L637.95 375.75 L638.34 377.88 L638.85 379.88 L639.11 382.07 L639.39 384.21 L639.99 386.06 L640.60 387.88 L641.38 389.55 L641.89 391.42 L642.49 393.20 L642.37 395.50 L643.26 397.03 L643.36 399.12 L644.31 400.59 L646.43 401.28 L648.65 401.93 L652.64 401.48 L653.32 403.20 L655.71 403.85 L656.21 405.69 L656.19 407.81 L655.46 410.33 L654.72 412.81 L656.46 413.88 L660.57 413.70 L660.94 415.56 L661.95 417.09 L667.61 416.29 L665.87 419.22 L667.22 420.63 L669.41 421.65 L670.45 423.23 L672.02 424.58 L674.88 425.40 L675.20 427.33 L675.28 429.34 L675.89 431.13 L675.32 433.37 L675.55 435.28 L675.92 437.14 L678.00 438.40 L678.50 440.21 L678.97 442.04 L680.42 443.56 L681.00 445.36 L678.38 448.09 L676.85 450.45 L677.35 452.22 L675.56 454.58 L674.80 456.63 L676.69 458.04 L681.15 458.89 L681.06 460.81 L682.63 462.37 L686.69 463.48 L686.51 465.45 L687.07 467.27 L686.74 469.25 L687.34 471.08 L690.60 472.52 L695.56 473.80 L696.81 475.63 L702.25 477.01 L707.15 478.55 L707.13 480.64 L706.38 482.79 L704.26 485.02 L702.11 487.21 L702.33 489.23 L699.88 491.36 L698.62 493.41 L700.26 495.36 L698.92 497.38 L698.81 499.37 L697.66 501.35 L696.46 503.30 L695.23 505.24 L693.93 507.14 L692.81 509.03 L691.88 510.91 L691.08 512.79 L690.64 514.67 L690.11 516.55 L690.14 518.47 L690.30 520.40 L690.66 522.37 L693.22 524.64 L693.11 526.59 L693.32 528.59 L694.75 530.79 L693.01 532.50 L692.25 534.35 L690.44 536.00 L689.12 537.71 L689.87 539.84 L693.83 542.70 L690.81 544.04 L692.10 546.36 L696.52 549.51 L694.20 551.00 L695.09 553.32 L696.74 555.90 L697.13 558.14 L697.07 560.27 L696.30 562.19 L695.08 563.96 L693.89 565.72 L691.98 567.22 L690.39 568.81 L689.80 570.75 L690.45 573.17 L691.09 575.62 L689.10 577.03 L688.14 578.84 L689.42 581.61 L686.74 582.68 L681.11 582.36 L680.06 584.07 L678.71 585.63 L675.62 586.31 L674.19 587.79 L674.49 590.14 L676.83 593.60 L676.37 595.62 L677.98 598.81 L678.68 601.55 L677.49 603.24 L676.50 605.04 L674.31 606.11 L673.52 608.02 L675.97 612.00 L676.34 614.73 L676.56 617.40 L682.60 624.07 L682.69 626.82 L681.41 628.64 L680.05 630.40 L678.62 632.11 L676.43 633.24 L673.08 633.44 L669.89 633.72 L668.04 635.00 L664.92 635.24 L662.45 635.95 L660.77 637.30 L658.49 638.12 L656.39 639.06 L654.05 639.77 L651.75 640.47 L649.69 641.36 L647.84 642.45 L646.17 643.68 L644.36 644.77 L642.78 646.08 L641.45 647.64 L640.38 649.49 L639.35 651.40 L640.18 655.39 L638.44 656.58 L636.92 658.02 L636.86 661.18 L634.38 661.51 L631.75 661.61 L629.11 661.64 L627.54 662.99 L626.54 665.09 L626.67 668.72 L623.94 668.57 L624.10 672.38 L624.00 675.93 L621.76 676.46 L621.13 679.36 L620.53 682.38 L618.98 684.01 L617.39 685.60 L615.37 686.50 L613.11 687.00 L610.74 687.29 L608.22 687.27 L606.08 687.89 L604.23 689.00 L602.87 691.03 L601.21 692.54 L598.81 692.62 L597.10 694.04 L595.73 696.19 L592.65 694.79 L588.98 692.00 L587.28 693.38 L584.72 692.82 L581.91 691.61 L580.27 693.09 L579.55 696.89 L577.58 697.69 L576.26 700.19 L575.82 705.16 L573.52 705.24 L571.50 706.07 L569.47 706.88 L567.20 706.96 L565.43 708.58 L564.97 714.60 L562.88 715.44 L561.21 717.79 L561.42 727.25 L559.18 727.99 L556.94 728.73 L554.68 729.39 L552.40 730.01 L550.08 730.44 L547.70 730.60 L545.35 730.84 L542.99 731.03 L540.61 731.08 L538.24 731.09 L535.83 730.88 L533.48 730.95 L531.10 730.70 L528.70 730.29 L526.33 730.02 L523.95 729.46 L521.51 728.16 L519.07 726.56 L516.66 724.73 L514.26 722.51 L511.91 720.46 L509.58 717.58 L507.39 717.50 L505.24 718.56 L503.03 717.04 L500.87 718.98 L498.68 719.84 L496.46 720.71 L494.27 720.25 L492.14 718.23 L489.94 718.55 L487.68 719.77 L485.39 721.02 L483.13 721.52 L480.43 726.92 L477.94 729.00 L475.60 729.28 L473.29 729.17 L471.06 728.40 L469.05 726.12 L466.71 726.37 L464.44 726.04 L462.34 724.75 L459.53 727.56 L457.19 727.48 L454.89 727.17 L452.82 725.76 L450.55 725.35 L448.39 724.44 L446.31 723.26 L444.41 721.38 L441.56 723.24 L439.24 723.01 L437.52 720.59 L434.91 721.33 L433.22 718.98 L431.75 716.03 L429.29 716.24 L425.18 721.30 L423.40 719.31 L420.47 720.60 L416.71 723.99 L415.06 721.60 L413.31 719.59 L413.04 713.96 L412.04 710.37 L410.79 707.51 L409.03 705.91 L407.60 703.62 L405.09 703.71 L402.81 703.26 L400.88 702.08 L399.37 700.08 L398.25 697.36 L395.17 698.44 L392.29 699.03 L390.69 697.25 L385.96 701.03 L382.46 702.46 L380.93 700.45 L378.70 699.62 L376.43 698.85 L374.24 697.93 L372.43 696.42 L370.44 695.18 L368.32 694.13 L366.53 692.59 L363.93 692.22 L362.84 689.70 L361.10 688.11 L358.94 687.09 L357.84 684.69 L356.95 682.05 L354.40 681.53 L351.92 680.88 L349.85 679.71 L346.11 680.49 L344.81 678.36 L343.23 676.59 L341.85 674.59 L341.50 671.51 L341.22 668.39 L338.82 667.55 L337.82 665.25 L337.07 662.73 L333.58 662.92 L331.58 661.61 L329.17 660.68 L327.57 658.96 L325.46 657.71 L321.74 657.86 L320.10 656.13 L317.46 655.25 L314.54 654.57 L312.87 652.81 L310.26 651.81 L308.31 650.25 L307.07 648.12 L304.35 647.13 L304.45 644.01 L304.31 641.12 L302.98 639.11 L300.97 637.57 L301.36 634.38 L299.77 632.56 L297.35 631.26 L297.61 628.24 L298.17 625.07 L296.32 623.42 L292.85 622.70 L292.34 620.22 L288.67 619.54 L286.36 618.04 L285.00 616.00 L284.87 613.31 L286.22 609.88 L287.77 606.41 L287.25 604.03 L287.01 601.52 L286.69 599.06 L283.51 597.92 L280.11 596.82 L277.63 595.27 L275.29 593.62 L272.99 591.93 L271.48 589.89 L271.87 587.12 L270.35 585.08 L268.33 583.20 L267.85 580.76 L266.78 578.53 L265.51 576.35 L264.24 574.17 L263.92 571.68 L263.72 569.17 L263.21 566.75 L262.79 564.32 L261.03 562.24 L259.85 559.99 L261.28 557.10 L260.36 554.79 L259.46 552.47 L261.58 549.52 L262.73 546.81 L259.93 544.87 L259.84 542.41 L259.26 540.03 L256.00 538.07 L255.73 535.61 L254.60 533.28 L255.15 530.71 L256.25 528.10 L257.14 525.54 L255.04 523.29 L256.37 520.70 L256.71 518.23 L254.22 515.94 L255.94 513.38 L256.89 510.89 L256.13 508.48 L257.34 506.01 L255.26 503.62 L252.24 501.18 L250.78 498.70 L248.04 496.16 L245.51 493.58 L244.60 491.00 L244.14 488.42 L243.62 485.83 L242.55 483.18 L245.16 480.79 L246.88 478.38 L247.08 475.84 L247.90 473.38 L250.43 471.12 L249.28 468.44 L249.32 465.89 L251.26 463.62 L252.96 461.34 L251.12 458.50 L250.54 455.84 L250.36 453.22 L246.64 449.90 L248.07 447.56 L248.85 445.10 L250.69 442.88 L254.74 441.22 L257.94 439.42 L258.65 437.03 L260.66 434.99 L261.27 432.59 L258.93 429.31 L257.77 426.33 L257.03 423.45 L256.14 420.48 L255.57 417.58 L255.85 414.95 L257.97 412.96 L257.25 409.95 L256.78 407.00 L258.38 404.83 L259.32 402.41 L259.72 399.76 L259.98 397.04 L261.20 394.73 L263.28 392.80 L265.11 390.79 L266.75 388.70 L265.68 385.30 L268.76 383.93 L271.95 382.66 L269.79 378.62 L271.86 376.78 L275.21 375.67 L275.78 373.04 L275.22 369.74 L276.91 367.72 L277.02 364.75 L277.17 361.77 L279.05 359.86 L280.43 357.64 L283.10 356.27 L286.47 355.41 L288.48 353.66 L289.04 350.91 L291.56 349.55 L292.19 346.81 L293.11 344.28 L296.27 343.43 L297.86 341.42 L298.76 338.85 L299.71 336.30 L299.46 332.72 L299.21 329.08 L298.64 325.09 L300.14 322.85 L301.38 320.38 L302.25 317.54 L304.19 315.67 L305.63 313.31 L307.09 310.98 L310.64 310.71 L313.03 309.32 L314.71 307.21 L318.06 306.87 L320.65 305.77 L321.20 302.43 L323.89 301.45 L326.43 300.33 L328.90 299.15 L329.89 296.22 L332.87 295.66 L333.26 291.93 L334.80 289.57 L338.56 290.07 L338.60 285.73 L342.24 286.14 L346.16 287.03 L346.40 282.81 L344.38 275.23 L347.34 274.72 L347.05 269.36 L344.68 260.63 L347.14 259.18 L349.94 258.28 L353.38 258.46 L357.12 259.23 L359.90 258.44 L362.98 258.22 L366.75 259.29 L369.00 257.66 L372.24 257.90 L375.10 257.48 L378.15 257.48 L381.17 257.46 L383.90 256.91 L386.93 257.03 L389.57 256.38 L391.90 255.02 L394.83 255.07 L397.67 254.96 L399.93 253.47 L402.67 253.16 L405.22 252.39 L407.59 251.15 L409.42 248.40 L411.24 245.49 L413.66 244.25 L415.49 241.16 L418.65 242.12 L421.10 240.89 L424.18 241.77 L427.29 242.85 L429.56 241.02 L431.10 236.31 L433.96 236.51 L436.47 235.33 L437.84 229.11 L441.26 231.74 L443.81 230.55 L446.19 228.35 L448.87 227.67 L451.38 225.96 L453.77 223.36 L456.64 223.54 L459.46 223.47 L462.29 223.58 L465.21 224.40 L468.02 224.50 L470.78 224.28 L473.39 222.40 L476.24 223.03 L479.01 222.84 L481.69 221.13 L484.53 221.95 L487.44 224.52 L490.26 226.28 L493.00 226.17 L495.77 228.52 L498.49 229.51 L501.20 227.93 L503.98 223.89 L506.74 223.93 L509.55 222.64 L512.48 219.30 L515.26 219.86 L518.08 219.77 L520.84 220.56 L523.65 220.50 L526.74 217.69 L530.01 213.71 L533.00 212.90 L536.60 207.34 L540.04 203.92 L542.97 204.54 L545.82 205.67 L548.44 208.09 L550.98 210.71 L553.77 211.74 L556.12 214.98 L558.65 217.09 L561.54 217.39 L563.90 220.07 L566.53 221.42 L569.02 223.26 L571.52 225.00 L574.07 226.44 L576.63 227.80 L579.19 229.14 L581.69 230.60 L584.10 232.34 L586.50 234.01 L589.05 235.22 L591.79 235.85 L594.28 237.17 L597.44 236.69 L601.74 233.30 L604.32 234.53 L606.82 235.95 L610.46 234.61 L612.38 237.44 L614.50 239.71 L616.45 242.31 L618.53 244.54 L621.62 244.61 L626.29 241.49 L627.63 245.23 L630.97 244.98 L635.06 243.35 L636.38 247.01 L639.47 247.36 L642.71 247.50 L645.31 248.80 L648.62 248.90 L652.18 248.66 L653.94 251.40 L656.32 253.10 L658.46 255.17 L660.29 257.69 L662.50 259.60 L665.29 260.68 L668.69 260.90 L670.29 263.68 L673.03 264.88 L676.20 265.52 L677.22 269.01 L677.30 273.63 L679.42 275.58 L680.84 278.38 L681.87 281.62 L683.73 283.82 L687.23 284.11 L691.35 283.77 L693.87 285.28 L698.15 284.91 L700.84 286.31 L702.92 288.39 L704.91 290.54 L706.29 293.31 L709.28 294.47 L714.95 293.08 L718.43 293.90 L721.85 294.82 L729.95 291.56 L732.69 293.27 L734.52 295.81 L735.42 299.13 L735.52 303.08 L736.12 306.56 L738.33 308.70 L737.68 313.10 L739.29 315.67 L742.05 317.38 L742.88 320.53 L744.28 323.25 L744.86 326.53 L745.67 329.62 L746.51 332.67 L747.12 335.83 L748.02 338.79 L748.92 341.72 L749.89 344.59 L750.67 347.56 L752.55 349.86 L753.66 352.61 L755.64 354.86 L757.81 357.02 L761.97 358.11 L763.25 360.81 L764.31 363.61 L767.09 365.54 L767.66 368.60 L768.69 371.41 L768.33 374.86 L769.70 377.49 L772.36 379.55 L775.94 381.26 L775.07 384.88 L779.91 386.13 L782.76 388.25 L783.56 391.20 L786.39 393.39 L788.95 395.71 L791.14 398.20 L791.96 401.18 L793.16 404.03 L793.25 407.24 L793.07 410.51 L793.20 413.66 L793.53 416.75 L794.49 419.65 L796.78 422.20 L798.16 425.02 L797.17 428.42 L799.15 431.10 L801.22 433.79 L797.99 437.61 L795.14 441.29 L796.61 444.07 L795.48 447.34 L793.77 450.67 L795.10 453.48 L799.07 455.91 L799.36 458.92 L801.53 461.69 L805.54 464.28 L805.41 467.39 L806.04 470.42 L806.38 473.47 L805.39 476.63 L807.40 479.57 L813.56 482.31 L813.82 485.44 L816.23 488.49 L824.05 491.45 L824.07 494.69 L823.55 497.94 L821.70 501.17 L819.08 504.35 L818.17 507.52 L817.55 510.68 L814.48 513.73 L814.90 516.90 L814.60 520.05 L814.00 523.16 L813.02 526.24 L811.38 529.24 L810.19 532.26 L808.42 535.20 L806.90 538.14 L805.69 541.09 L804.30 544.01 L803.01 546.92 L802.56 549.95 L802.04 552.98 L801.30 555.96 L801.71 559.16 L802.08 562.38 L804.97 566.16 L803.66 569.06 L804.10 572.37 L804.18 575.61 L802.53 578.42 L800.62 581.14 L797.86 583.60 L797.24 586.64 L799.34 590.51 L798.00 593.37 L796.65 596.21 L800.96 600.95 L798.61 603.49 L798.75 606.90 L799.49 610.56 L799.26 613.89 L799.06 617.24 L798.02 620.29 L796.36 623.08 L794.51 625.78 L792.67 628.47 L789.98 630.76 L788.54 633.60 L787.86 636.80 L787.29 640.07 L785.29 642.64 L783.65 645.38 L783.30 648.80 L781.61 651.52 L776.80 652.53 L773.27 654.16 L772.47 657.32 L768.57 658.67 L765.49 660.46 L765.60 664.17 L766.85 668.66 L764.81 671.10 L764.18 674.45 L765.75 679.33 L763.90 681.96 L762.38 684.81 L760.03 687.06 L757.91 689.48 L757.84 693.44 L759.74 698.95 L758.10 701.82 L759.62 707.23 L762.74 714.05 L760.67 716.74 L758.56 719.39 L756.40 722.01 L754.22 724.61 L751.99 727.16 L749.69 729.65 L747.41 732.17 L745.08 734.64 L742.68 737.04 L740.18 739.33 L737.68 741.63 L735.23 743.97 L732.63 746.15 L729.89 748.18 L727.19 750.24 L724.45 752.24 L720.86 753.26 L717.32 754.29 L713.85 755.36 L709.72 755.57 L705.17 755.19 L700.66 754.76 L697.86 756.44 L694.68 757.60 L690.94 757.97 L689.69 761.72 L687.07 763.61 L684.53 765.63 L681.22 766.51 L677.97 767.45 L675.33 769.27 L673.99 773.15 L670.46 773.61 L668.20 776.10 L668.05 782.15 L665.18 783.75 L662.25 785.25 L659.57 787.18 L657.09 789.49 L655.30 793.16 L652.88 795.70 L650.24 797.86 L647.86 800.58 L645.36 803.11 L642.60 805.15 L639.26 805.94 L636.38 807.72 L634.37 811.56 L630.48 811.07 L626.81 811.01 L623.50 811.76 L620.63 813.64 L616.59 812.43 L613.28 813.07 L610.35 814.79 L606.54 813.95 L602.73 812.96 L600.32 816.28 L598.44 821.46 L594.97 821.58 L593.05 827.06 L590.52 830.71 L586.74 829.80 L582.70 827.76 L578.47 824.64 L574.78 823.52 L571.90 825.87 L568.51 825.94 L564.97 825.23 L562.64 830.73 L559.66 833.23 L556.20 833.04 L552.88 833.69 L549.66 834.97 L546.68 838.21 L543.47 839.98 L540.28 842.21 L537.16 845.42 L533.87 847.47 L530.35 847.29 L526.80 846.62 L523.25 845.58 L519.76 845.28 L516.27 844.63 L512.81 844.47 L509.34 843.66 L505.90 843.92 L502.46 843.84 L499.03 841.24 L495.63 840.79 L492.25 839.26 L488.91 837.57 L485.53 837.63 L481.90 842.32 L478.56 840.84 L475.07 841.72 L471.20 846.85 L467.93 844.47 L464.85 840.58 L461.57 839.11 L458.47 836.39 L455.30 834.54 L451.60 836.56 L448.49 834.41 L444.93 835.22 L440.76 839.36 L437.61 837.45 L434.37 836.12 L430.87 836.12 L427.31 836.35 L423.63 837.05 L420.13 836.82 L416.43 837.37 L412.81 837.48 L409.32 837.02 L405.82 836.59 L402.88 834.19 L399.49 833.35 L395.93 833.10 L393.36 829.70 L390.07 828.60 L387.13 826.50 L383.90 825.27 L381.17 822.70 L377.61 822.39 L373.40 823.69 L371.49 819.11 L368.55 817.22 L363.09 821.28 L359.21 821.43 L355.96 820.10 L349.98 824.68 L347.07 822.47 L344.86 818.85 L343.28 814.08 L341.97 808.93 L339.70 805.79 L335.72 805.90 L334.00 801.82 L331.32 799.56 L325.38 802.99 L322.59 800.84 L319.88 798.56 L316.49 797.43 L312.63 796.99 L308.26 797.29 L304.39 796.72 L300.29 796.46 L295.73 796.77 L291.66 796.30 L289.26 793.43 L286.98 790.44 L284.74 787.42 L282.39 784.57 L280.34 781.38 L277.35 779.40 L275.62 775.87 L272.46 774.11 L270.25 771.20 L269.16 767.03 L266.69 764.50 L265.48 760.56 L264.75 756.19 L261.73 754.32 L257.22 753.99 L255.29 750.94 L250.85 750.43 L246.57 749.68 L243.20 747.99 L241.28 744.90 L241.29 740.04 L239.28 737.09 L236.84 734.54 L234.19 732.18 L233.44 728.17 L228.38 727.84 L224.01 726.84 L222.88 723.17 L221.00 720.11 L218.31 717.70 L214.57 716.07 L211.67 713.76 L209.22 711.11 L205.51 709.33 L202.98 706.69 L200.56 703.97 L198.02 701.30 L196.87 697.72 L193.07 695.85 L190.72 693.02 L190.83 688.69 L189.63 685.19 L187.26 682.38 L186.78 678.49 L186.91 674.29 L183.85 671.88 L183.63 667.92 L184.34 663.52 L182.21 660.61 L175.10 660.15 L174.63 656.36 L170.69 654.21 L163.59 653.45 L163.55 649.43 L163.99 645.23 L165.99 640.42 L168.04 635.66 L167.38 632.07 L163.85 629.59 L165.35 625.19 L162.51 622.42 L157.21 620.47 L156.69 616.81 L155.87 613.26 L154.05 610.04 L150.55 607.32 L147.90 604.29 L144.99 601.30 L141.35 598.47 L138.54 595.37 L136.44 592.04 L136.64 588.14 L136.92 584.23 L136.89 580.42 L136.82 576.64 L136.91 572.83 L136.36 569.17 L136.67 565.35 L134.84 561.92 L136.05 557.97 L137.01 554.11 L137.05 550.39 L138.44 546.52 L138.86 542.80 L135.10 539.55 L132.08 536.16 L131.35 532.51 L125.06 529.29 L124.75 525.54 L126.62 521.67 L129.65 517.78 L132.98 513.94 L135.15 510.20 L133.84 506.58 L135.30 502.90 L136.69 499.26 L131.27 495.56 L131.71 491.88 L132.73 488.23 L133.08 484.57 L132.59 480.86 L130.22 477.03 L129.72 473.28 L129.24 469.52 L127.97 465.66 L127.21 461.83 L127.08 458.04 L127.77 454.35 L128.29 450.63 L126.29 446.56 L128.16 443.03 L130.26 439.56 L131.62 435.99 L131.32 432.14 L134.46 428.93 L135.98 425.44 L135.56 421.55 L138.67 418.43 L141.51 415.29 L140.41 411.22 L136.68 406.44 L138.49 403.04 L135.45 398.31 L132.38 393.48 L135.27 390.35 L138.77 387.45 L143.96 385.15 L147.67 382.45 L145.92 377.91 L145.05 373.63 L146.37 370.10 L140.83 363.97 L137.83 358.68 L139.22 355.05 L140.65 351.43 L141.99 347.78 L143.51 344.19 L145.04 340.62 L146.56 337.03 L148.13 333.47 L149.73 329.92 L151.42 326.41 L153.18 322.94 L154.90 319.44 L156.68 315.98 L158.56 312.57 L160.45 309.16 L162.37 305.77 L164.37 302.43 L166.41 299.11 L168.48 295.81 L170.49 292.48 L172.63 289.23 L174.91 286.07 L177.08 282.84 L179.16 279.54 L181.53 276.45 L183.98 273.42 L186.30 270.30 L188.62 267.18 L191.02 264.12 L193.64 261.23 L196.17 258.28 L198.88 255.48 L202.16 253.16 L204.96 250.46 L207.52 247.57 L210.63 245.16 L213.13 242.22 L215.78 239.42 L218.74 236.91 L221.40 234.12 L224.17 231.45 L227.20 229.02 L230.06 226.45 L232.53 223.48 L235.22 220.72 L237.87 217.92 L240.54 215.14 L243.55 212.72 L246.73 210.51 L249.95 208.35 L253.00 206.01 L255.79 203.36 L258.93 201.14 L262.14 199.00 L265.03 196.46 L267.55 193.43 L270.28 190.66 L273.32 188.29 L275.40 184.57 L278.01 181.54 L281.25 179.40 L284.25 176.90 L287.25 174.40 L290.94 172.94 L293.57 169.83 L296.53 167.20 L299.48 164.54 L300.69 158.86 L303.59 155.98 L306.15 152.44 L307.86 147.25 L311.31 145.19 L314.80 143.19 L318.32 141.24 L321.89 139.38 L325.48 137.57 L329.07 135.74 L332.67 133.95 L336.32 132.25 L339.99 130.60 L343.68 128.99 L347.36 127.36 L351.08 125.80 L354.83 124.33 L358.58 122.86 L362.33 121.39 L366.14 120.09 L369.95 118.79 L373.74 117.41 L377.56 116.13 L381.44 115.03 L385.32 113.96 L389.18 112.82 L393.03 111.63 L396.96 110.70 L400.92 109.94 L404.79 108.84 L408.70 107.89 L412.72 107.39 L416.68 106.67 L420.58 105.71 L424.60 105.33 L428.69 105.33 L432.76 105.36 L436.72 104.74 L440.78 104.84 L444.86 105.18 L448.72 103.91 L452.73 103.83 L456.76 103.99 L460.73 103.69 L464.76 103.96 L468.78 104.45 L472.75 104.33 L476.67 103.40 L480.67 103.82 L484.63 103.54 L488.57 102.62 L492.55 102.82 L496.52 102.85 L500.49 103.46 L504.46 102.86 L508.44 102.80 L512.39 103.57 L516.38 103.00 L520.35 103.14 L524.34 103.09 L528.34 102.80 L532.40 102.07 L536.48 101.31 L540.54 100.91 L544.55 101.21 L548.65 100.71 L552.59 101.62 L556.47 102.87 L560.75 101.41 L564.71 102.17 L568.99 101.06 L573.77 97.42 L577.89 97.70 L582.38 96.18 L587.03 94.15 L591.10 94.97 L595.17 95.79 L599.24 96.65 L603.29 97.55 L607.33 98.54 L611.35 99.58 L615.38 100.63 L619.39 101.73 L623.39 102.87 L627.37 104.06 L631.34 105.31 L635.28 106.64 L639.23 107.96 L643.16 109.30 L647.08 110.72 L650.97 112.19 L654.82 113.78 L658.69 115.29 L662.58 116.78 L666.37 118.51 L670.12 120.31 L673.93 121.99 L677.68 123.79 L681.42 125.62 L685.17 127.41 L688.89 129.28 L692.62 131.12 L696.19 133.27 L699.82 135.31 L703.58 137.10 L707.15 139.25 L710.52 141.72 L714.06 143.90 L717.71 145.89 L721.03 148.42 L724.59 150.56 L728.34 152.42 L731.53 155.12 L734.89 157.58 L738.27 159.99 L742.06 161.83 L745.34 164.38 L748.30 167.37 L752.09 169.24 L755.48 171.66 L758.85 174.11 L762.10 176.70 L765.21 179.48 L767.81 182.84 L769.94 186.73 L772.90 189.63 L775.49 192.93 L777.57 196.77 L780.45 199.70 L784.27 201.65 L786.70 205.07 L789.81 207.77 L792.97 210.43 L795.66 213.56 L798.85 216.21 L801.51 219.36 L804.87 221.87 L808.28 224.36 L810.74 227.70 L814.40 230.00 L818.81 231.71 L823.77 233.02 L827.87 235.10 L832.75 236.62 L838.54 237.49 L841.72 240.46 L844.42 243.80 L847.08 247.17 L849.72 250.57 L852.32 253.99 L854.89 257.44 L857.42 260.92 L859.91 264.43 L862.36 267.96 L864.79 271.52 L867.17 275.11 L869.52 278.72 L871.83 282.36 L874.10 286.02 L876.33 289.72 L878.53 293.43 L880.68 297.16 L882.79 300.93 L884.85 304.72 L886.88 308.53 L888.88 312.36 L890.83 316.22 L892.72 320.10 L894.57 324.00 L896.40 327.92 L898.17 331.86 L899.88 335.83 L901.57 339.81 L903.22 343.81 L904.81 347.83 L906.34 351.88 L907.85 355.93 L909.36 359.99 L910.77 364.08 L912.07 368.20 L913.40 372.32 L914.75 376.43 L915.95 380.59 L917.03 384.78 L918.13 388.97 L919.30 393.13 L920.29 397.34 L921.07 401.61 L921.98 405.83 L922.99 410.04 L923.65 414.32 L924.11 418.63 L924.88 422.88 L925.26 427.20 L924.42 431.70 L923.15 436.24 L923.96 440.45 L923.64 444.81 L922.87 449.20 L923.94 453.37 L924.56 457.59 L924.26 461.90 L924.74 466.14 L924.58 470.42 L924.92 474.66 L925.82 478.88 L925.79 483.15 L926.73 487.38 L927.13 491.65 L927.70 495.91 L950.55 500.00 L951.57 495.48 L952.46 490.95 L952.16 486.43 L951.97 481.91 L952.45 477.36 L952.24 472.83 L951.42 468.35 L951.45 463.81 L952.16 459.20 L950.78 454.77 L950.50 450.24 L950.75 445.65 L948.16 441.41 L947.07 437.00 L946.03 432.59 L943.42 428.44 L941.22 424.26 L940.19 419.90 L938.97 415.58 L937.20 411.38 L935.87 407.10 L934.81 402.77 L933.02 398.61 L931.49 394.41 L930.21 390.15 L928.61 385.98 L926.86 381.86 L925.30 377.70 L923.83 373.52 L921.94 369.48 L920.10 365.43 L918.68 361.25 L916.73 357.26 L914.77 353.28 L913.15 349.19 L911.24 345.21 L909.18 341.30 L907.22 337.35 L905.41 333.35 L903.28 329.49 L901.08 325.68 L899.25 321.71 L897.08 317.89 L894.76 314.16 L892.78 310.27 L890.57 306.49 L888.22 302.80 L885.94 299.07 L883.78 295.30 L881.40 291.64 L878.95 288.03 L876.73 284.30 L874.29 280.70 L871.73 277.18 L869.40 273.52 L866.89 269.98 L864.29 266.50 L861.74 263.00 L859.21 259.49 L856.56 256.06 L853.85 252.69 L851.26 249.23 L848.53 245.88 L845.70 242.61 L843.02 239.24 L840.55 235.70 L839.32 231.17 L837.58 227.01 L835.98 222.71 L834.63 218.14 L833.11 213.68 L831.46 209.29 L828.61 205.92 L825.56 202.73 L822.86 199.23 L820.01 195.85 L816.79 192.82 L813.41 189.96 L810.72 186.40 L808.14 182.73 L804.29 180.35 L801.80 176.56 L798.33 173.80 L793.84 172.18 L790.71 169.07 L786.38 167.36 L781.98 165.77 L778.15 163.54 L774.28 161.38 L770.74 158.83 L767.10 156.41 L763.49 153.97 L760.01 151.36 L756.21 149.20 L752.60 146.76 L748.90 144.48 L744.98 142.52 L741.19 140.40 L737.59 137.99 L733.73 135.98 L729.83 134.06 L726.12 131.84 L722.38 129.69 L718.38 127.96 L714.36 126.31 L710.50 124.38 L706.66 122.43 L702.54 121.01 L698.53 119.40 L694.60 117.65 L690.50 116.26 L686.48 114.73 L682.52 113.10 L678.42 111.78 L674.27 110.60 L670.26 109.12 L666.24 107.68 L662.07 106.61 L657.98 105.38 L653.95 104.03 L649.79 103.00 L645.69 101.88 L641.62 100.66 L637.47 99.70 L633.30 98.83 L629.21 97.73 L625.10 96.73 L620.93 95.94 L616.78 95.09 L612.67 94.15 L608.50 93.45 L604.35 92.69 L600.21 91.90 L596.05 91.26 L591.87 90.69 L587.73 89.98 L583.79 88.32 L579.81 86.77 L575.77 85.50 L572.07 82.12 L568.02 80.61 L563.97 79.01 L559.89 77.44 L555.71 76.52 L551.53 75.52 L547.32 74.63 L543.11 73.74 L538.85 73.31 L534.60 72.65 L530.30 72.72 L526.02 72.61 L521.74 72.43 L517.45 72.44 L513.17 72.48 L508.89 72.37 L504.62 72.35 L500.34 72.60 L496.07 72.71 L491.80 72.96 L487.52 72.80 L483.27 73.39 L479.01 73.77 L474.76 74.25 L470.55 75.10 L466.34 75.90 L462.15 76.86 L457.94 77.42 L453.80 78.60 L449.68 79.87 L445.41 79.88 L441.34 81.36 L437.32 83.02 L433.21 84.03 L429.18 85.45 L425.28 87.53 L421.26 88.80 L417.19 89.81 L413.26 91.45 L409.31 92.90 L405.28 94.01 L401.34 95.44 L397.49 97.19 L393.50 98.38 L389.57 99.75 L385.83 101.78 L381.93 103.19 L378.01 104.51 L374.29 106.47 L370.52 108.24 L366.65 109.68 L362.92 111.50 L359.24 113.44 L355.46 115.06 L351.72 116.79 L348.17 118.98 L344.44 120.69 L340.72 122.42 L337.18 124.57 L333.60 126.57 L329.93 128.38 L326.35 130.38 L322.79 132.41 L319.18 134.30 L315.56 136.18 L312.02 138.22 L308.47 140.22 L304.85 142.10 L300.83 143.27 L297.05 144.88 L292.87 145.84 L288.50 146.53 L284.66 148.14 L280.58 149.40 L276.78 151.14 L272.99 152.91 L269.35 154.92 L265.71 156.96 L262.20 159.18 L258.81 161.59 L255.35 163.89 L252.21 166.64 L248.92 169.18 L245.61 171.69 L242.73 174.74 L239.88 177.80 L236.47 180.18 L233.41 182.98 L230.96 186.48 L227.81 189.16 L224.14 191.25 L221.68 194.70 L218.98 197.86 L215.69 200.39 L213.27 203.83 L210.40 206.79 L207.74 209.96 L205.29 213.32 L202.43 216.27 L200.48 220.08 L197.72 223.10 L194.85 226.04 L193.17 230.03 L190.89 233.46 L188.56 236.83 L186.49 240.41 L184.89 244.35 L182.68 247.78 L180.25 251.02 L178.46 254.75 L176.43 258.29 L174.15 261.62 L172.14 265.15 L170.48 268.91 L168.38 272.35 L166.19 275.72 L164.70 279.56 L162.91 283.18 L160.73 286.54 L159.24 290.33 L157.63 294.03 L155.69 297.52 L153.97 301.14 L152.63 304.97 L150.94 308.59 L149.10 312.11 L147.87 315.96 L146.43 319.69 L144.64 323.23 L143.43 327.05 L142.07 330.80 L140.47 334.42 L139.10 338.14 L137.97 341.96 L136.60 345.68 L135.16 349.35 L134.17 353.21 L133.04 357.00 L127.25 359.02 L119.62 360.47 L118.99 364.54 L115.57 367.64 L112.26 370.82 L113.64 375.56 L117.16 380.91 L119.02 385.65 L119.64 389.97 L113.88 392.47 L109.78 395.53 L109.75 399.69 L103.84 402.38 L101.52 406.03 L102.93 410.54 L104.72 415.09 L103.04 418.87 L103.90 423.17 L106.19 427.69 L105.06 431.56 L105.59 435.71 L107.10 439.98 L108.25 444.16 L105.31 447.76 L106.30 451.89 L105.96 455.84 L105.77 459.81 L105.14 463.73 L105.32 467.73 L104.68 471.65 L103.80 475.57 L103.79 479.54 L102.65 483.46 L104.03 487.49 L103.55 491.44 L104.68 495.42 L97.84 499.36 L98.29 503.38 L99.89 507.37 L98.10 511.42 L100.13 515.37 L104.26 519.17 L108.29 522.90 L110.70 526.67 L110.95 530.57 L106.11 534.91 L106.46 538.85 L103.84 543.12 L102.08 547.34 L103.80 551.16 L106.19 554.86 L107.77 558.64 L110.33 562.25 L113.09 565.78 L113.04 569.78 L115.10 573.39 L116.68 577.07 L118.83 580.61 L120.55 584.22 L122.44 587.77 L124.92 591.15 L127.26 594.54 L126.59 598.70 L126.96 602.60 L128.62 606.15 L127.11 610.63 L127.70 614.52 L128.59 618.32 L130.54 621.78 L131.28 625.64 L133.54 628.97 L130.35 634.27 L129.35 638.84 L133.65 641.42 L132.22 646.22 L133.95 649.78 L138.62 652.11 L144.33 653.91 L147.76 656.63 L150.81 659.47 L147.01 665.49 L147.05 669.80 L150.04 672.70 L147.08 678.56 L148.57 682.25 L152.91 684.43 L156.80 686.78 L157.54 690.84 L161.59 693.04 L165.22 695.44 L167.30 698.71 L170.30 701.42 L174.88 703.11 L176.91 706.37 L177.67 710.45 L181.37 712.61 L183.00 716.13 L185.76 718.89 L187.71 722.20 L190.68 724.78 L191.89 728.64 L194.32 731.61 L196.57 734.72 L198.66 737.95 L201.75 740.40 L204.62 743.00 L205.84 746.97 L204.18 753.44 L207.93 755.34 L209.97 758.72 L212.40 761.77 L214.92 764.73 L219.80 765.47 L222.98 767.77 L225.24 770.95 L225.17 776.48 L227.49 779.69 L231.01 781.67 L232.14 786.16 L235.99 787.75 L240.76 788.29 L245.47 788.81 L249.12 790.47 L253.92 790.74 L257.65 792.21 L260.17 795.13 L264.17 796.22 L267.39 798.24 L271.30 799.35 L274.97 800.74 L278.83 801.82 L282.68 802.88 L286.62 803.76 L288.57 807.46 L291.44 809.89 L294.07 812.69 L296.47 815.87 L299.00 818.90 L302.09 821.08 L305.77 822.28 L308.70 824.72 L312.50 825.66 L312.54 833.26 L315.68 835.48 L319.84 835.83 L322.26 839.42 L326.54 839.47 L331.89 837.27 L337.05 835.28 L341.45 834.69 L344.94 835.97 L345.94 842.78 L349.60 843.78 L352.22 847.22 L353.70 853.52 L357.90 853.33 L362.73 851.43 L365.37 855.10 L368.80 856.77 L372.94 856.48 L376.39 858.08 L380.45 857.88 L384.27 858.34 L388.55 857.25 L392.12 858.40 L396.09 858.12 L400.24 857.13 L403.69 858.59 L407.52 858.61 L411.03 859.85 L414.84 859.84 L418.12 862.10 L421.87 862.32 L425.41 863.49 L429.20 863.47 L432.82 864.22 L436.67 863.71 L439.62 868.56 L442.83 872.22 L446.81 871.06 L450.10 874.69 L453.96 874.30 L457.98 872.32 L461.89 870.90 L465.94 867.65 L469.82 865.43 L473.11 870.82 L476.81 871.29 L480.61 869.84 L484.11 874.65 L487.87 874.51 L491.65 872.84 L495.40 870.99 L499.12 870.36 L502.80 867.64 L506.46 867.05 L510.12 866.35 L513.74 865.07 L517.34 863.94 L520.90 862.46 L524.47 861.35 L527.96 859.48 L531.43 857.88 L534.97 857.07 L538.74 858.60 L542.25 857.62 L546.07 859.08 L549.76 859.28 L553.37 858.96 L556.93 858.23 L560.43 857.13 L564.02 856.64 L567.75 856.88 L572.57 862.43 L575.94 860.51 L579.52 859.63 L583.55 860.69 L586.85 858.60 L589.21 852.87 L591.94 848.97 L595.01 846.50 L599.30 848.45 L603.79 850.86 L606.88 848.47 L611.67 851.50 L615.65 851.79 L618.42 848.44 L620.93 844.48 L624.56 843.79 L627.67 841.65 L629.93 837.38 L633.51 836.60 L636.52 834.38 L639.08 831.15 L641.43 827.54 L645.76 828.51 L648.49 825.82 L651.51 823.84 L654.82 822.47 L658.05 820.93 L661.12 819.08 L664.21 817.27 L667.93 816.66 L670.94 814.68 L674.64 813.98 L677.53 811.78 L681.22 811.00 L684.19 808.95 L690.40 812.22 L694.49 811.87 L697.01 808.99 L701.62 809.34 L705.19 808.05 L707.93 805.49 L710.70 803.00 L714.18 801.53 L717.77 800.19 L721.80 799.39 L723.37 795.29 L725.36 791.81 L727.50 788.57 L727.79 783.07 L727.78 777.33 L729.25 773.50 L730.59 769.58 L731.78 765.54 L733.81 762.52 L735.94 759.64 L737.85 756.54 L739.87 753.59 L741.98 750.75 L743.73 747.55 L745.65 744.57 L747.73 741.75 L749.58 738.73 L751.45 735.75 L753.41 732.87 L755.27 729.91 L757.11 726.96 L759.06 724.11 L760.90 721.18 L762.76 718.28 L764.67 715.43 L773.24 717.89 L779.94 718.69 L782.15 715.91 L789.12 716.70 L792.86 714.96 L794.17 711.43 L793.98 706.86 L796.19 704.02 L798.16 701.01 L801.67 699.02 L804.18 696.34 L805.17 692.68 L808.67 690.60 L810.32 687.36 L810.83 683.45 L811.90 679.90 L813.77 676.82 L814.35 673.03 L814.76 669.18 L814.75 665.14 L816.79 662.19 L816.88 658.26 L817.96 654.85 L821.76 652.73 L823.45 649.59 L825.90 646.79 L827.43 643.55 L828.06 639.93 L828.50 636.25 L830.14 633.08 L830.66 629.47 L831.89 626.13 L833.62 622.99 L833.43 619.14 L832.94 615.23 L832.90 611.50 L839.09 609.81 L839.76 606.29 L840.08 602.67 L843.77 600.04 L845.67 596.85 L844.12 592.72 L842.63 588.65 L842.02 584.85 L843.67 581.62 L844.62 578.22 L843.82 574.43 L846.85 571.46 L847.66 568.01 L848.79 564.62 L848.74 561.01 L848.70 557.41 L849.47 553.96 L849.51 550.39 L849.03 546.76 L849.17 543.23 L849.82 539.76 L849.97 536.24 L849.64 532.68 L847.36 528.96 L845.64 525.34 L843.55 521.74 L841.26 518.17 L840.13 514.70 L836.98 511.19 L836.80 507.81 L835.97 504.43 L832.80 501.06 L830.57 497.75 L829.93 494.45 L829.06 491.17 L841.35 487.43 L843.17 483.92 L841.84 480.56 L849.42 476.62 L851.08 472.98 L847.10 469.79 L845.22 466.47 L845.38 462.97 L843.50 459.69 L845.08 456.00 L845.66 452.41 L845.28 448.94 L845.63 445.35 L844.36 442.02 L842.31 438.84 L840.91 435.56 L840.57 432.09 L837.96 429.09 L835.25 426.15 L833.39 423.06 L833.48 419.52 L830.18 416.81 L830.50 413.21 L831.68 409.34 L830.49 406.10 L830.90 402.40 L829.35 399.27 L827.34 396.29 L825.72 393.21 L825.09 389.80 L822.49 387.08 L821.86 383.67 L821.07 380.31 L817.90 377.86 L814.56 375.52 L814.56 371.87 L816.40 367.41 L813.80 364.80 L814.48 360.76 L814.65 356.91 L813.05 353.84 L809.12 351.89 L805.80 349.70 L802.87 347.37 L803.17 343.39 L800.72 340.83 L797.73 338.58 L798.45 334.31 L797.05 331.17 L795.24 328.27 L793.09 325.58 L791.58 322.51 L789.24 319.94 L786.97 317.35 L784.44 314.94 L782.30 312.29 L780.49 309.41 L778.62 306.58 L775.38 304.73 L771.31 303.51 L767.89 301.86 L763.16 301.26 L760.31 299.30 L756.94 297.77 L752.36 297.25 L750.54 294.56 L747.12 293.20 L742.62 292.80 L739.27 291.49 L736.77 289.47 L735.30 286.52 L741.90 276.09 L740.82 272.57 L739.24 269.49 L740.52 263.58 L738.95 260.37 L733.85 260.75 L730.90 258.99 L728.79 256.36 L726.62 253.78 L724.91 250.69 L722.44 248.41 L721.22 244.69 L718.55 242.62 L715.11 241.47 L711.62 240.43 L708.68 238.75 L705.80 236.99 L702.33 236.04 L698.37 235.78 L695.44 234.18 L693.06 231.84 L689.19 231.60 L687.67 228.01 L685.55 225.25 L682.82 223.36 L680.54 220.79 L677.26 219.76 L673.82 219.01 L670.87 217.51 L668.04 215.81 L664.42 215.46 L662.19 212.74 L659.20 211.32 L655.30 211.61 L651.00 212.75 L650.24 207.13 L648.13 203.99 L644.02 204.86 L642.84 199.71 L640.36 197.14 L636.65 197.24 L632.48 198.49 L628.83 198.65 L625.12 199.04 L622.83 195.99 L619.37 195.84 L615.99 195.53 L613.82 192.01 L610.97 190.21 L607.64 189.78 L604.32 189.36 L601.38 187.81 L598.05 187.45 L594.73 187.12 L591.41 186.82 L588.22 186.10 L585.18 184.84 L581.91 184.45 L578.27 185.61 L574.54 187.28 L571.02 188.26 L567.18 190.85 L563.81 191.50 L560.27 193.20 L556.81 194.72 L553.69 194.50 L550.21 196.58 L546.77 198.65 L543.63 199.08 L540.52 199.37 L538.33 192.42 L536.03 185.23 L532.94 184.32 L530.22 179.45 L527.24 176.36 L523.95 176.87 L520.49 180.16 L517.29 180.02 L514.10 179.56 L510.96 177.60 L507.75 176.97 L504.51 177.38 L501.29 175.51 L498.05 175.62 L494.82 176.83 L491.62 178.14 L488.42 178.66 L485.26 179.96 L482.10 180.83 L479.05 183.07 L475.84 182.80 L472.75 183.95 L469.71 185.49 L466.31 183.42 L463.15 183.83 L459.89 183.41 L456.71 183.72 L453.65 184.84 L450.69 186.55 L447.57 187.08 L444.51 188.02 L441.53 189.32 L438.30 189.26 L435.39 190.82 L432.66 193.14 L430.14 196.19 L425.64 190.82 L422.59 191.74 L419.80 193.60 L415.92 191.42 L412.56 191.29 L410.16 194.51 L407.84 197.80 L405.20 199.95 L402.52 201.88 L398.99 201.21 L396.55 203.79 L392.83 202.73 L389.76 203.55 L386.79 204.63 L384.05 206.32 L381.34 208.03 L378.32 208.97 L375.64 210.72 L372.96 212.44 L370.43 214.49 L367.31 215.20 L364.59 216.80 L362.05 218.76 L360.17 221.99 L358.50 225.54 L356.70 228.74 L355.46 232.89 L353.47 235.58 L352.23 239.51 L350.15 241.89 L347.92 243.98 L346.96 248.14 L345.75 251.77 L343.69 253.98 L341.64 256.18 L334.34 250.43 L329.78 249.05 L328.25 252.17 L321.43 247.76 L317.46 247.53 L316.76 251.83 L316.05 256.01 L311.77 255.46 L310.84 259.27 L308.24 260.92 L304.69 261.43 L303.03 264.25 L300.24 265.71 L298.78 268.72 L297.60 272.02 L296.25 275.06 L292.82 275.83 L292.12 279.53 L291.44 283.20 L289.25 285.26 L287.86 288.13 L287.38 291.85 L285.35 294.02 L283.05 295.94 L281.12 298.22 L278.78 300.11 L276.70 302.26 L274.23 304.06 L271.19 305.40 L267.72 306.42 L264.85 307.98 L263.02 310.40 L261.66 313.19 L259.94 315.69 L258.62 318.48 L256.75 320.85 L253.25 322.06 L252.07 324.95 L249.84 327.10 L249.11 330.27 L248.94 333.79 L249.36 337.65 L248.28 340.51 L246.93 343.17 L244.22 345.01 L242.11 347.24 L240.88 349.99 L237.41 351.47 L236.14 354.21 L236.80 357.99 L236.24 361.08 L232.14 362.32 L233.52 366.38 L233.90 369.89 L231.17 371.87 L231.27 375.20 L231.68 378.64 L232.32 382.13 L232.28 385.30 L231.68 388.20 L231.18 391.14 L231.03 394.20 L229.15 396.57 L227.67 399.11 L226.04 401.62 L224.75 404.25 L224.00 407.07 L222.49 409.64 L220.53 412.08 L218.05 414.39 L215.88 416.83 L211.52 418.68 L211.02 421.65 L210.70 424.66 L209.91 427.54 L212.05 431.13 L214.94 434.82 L216.17 438.08 L214.28 440.66 L215.10 443.80 L211.99 446.17 L210.05 448.80 L208.80 451.58 L208.04 454.45 L209.80 457.69 L211.33 460.86 L211.01 463.75 L210.14 466.58 L212.51 469.77 L212.90 472.71 L213.17 475.62 L214.43 478.61 L216.67 481.62 L215.71 484.41 L214.78 487.22 L214.97 490.08 L214.00 492.91 L212.15 495.75 L210.14 498.62 L209.73 501.52 L207.45 504.45 L207.15 507.39 L208.58 510.27 L209.83 513.13 L210.12 516.02 L211.43 518.85 L209.65 521.88 L209.32 524.83 L211.03 527.60 L210.29 530.60 L211.86 533.35 L213.49 536.07 L214.77 538.81 L214.68 541.73 L214.81 544.63 L212.79 547.89 L213.81 550.67 L214.53 553.49 L213.33 556.69 L216.35 559.04 L220.04 561.20 L220.60 564.01 L221.67 566.71 L225.00 568.82 L224.83 571.79 L225.34 574.60 L227.30 577.01 L229.17 579.41 L231.52 581.65 L233.86 583.85 L235.42 586.28 L236.84 588.74 L237.75 591.36 L238.33 594.10 L239.34 596.70 L239.38 599.65 L240.76 602.11 L242.61 604.36 L242.86 607.27 L242.50 610.46 L242.24 613.63 L241.34 617.14 L239.89 620.94 L241.91 623.15 L243.26 625.68 L244.95 628.03 L248.42 629.45 L252.53 630.48 L254.99 632.33 L254.58 635.74 L255.64 638.37 L256.10 641.34 L257.66 643.70 L257.84 646.88 L260.34 648.66 L263.88 649.76 L267.27 650.90 L267.81 653.86 L270.18 655.62 L273.69 656.57 L274.73 659.21 L277.28 660.77 L280.04 662.14 L283.32 663.09 L284.09 665.92 L286.26 667.68 L287.83 669.90 L288.90 672.54 L290.75 674.54 L292.92 676.28 L293.78 679.13 L295.62 681.15 L296.92 683.66 L298.86 685.60 L301.05 687.30 L300.98 691.14 L303.07 692.97 L302.78 697.15 L304.90 698.98 L307.64 700.14 L309.27 702.46 L312.67 702.88 L316.32 702.96 L319.36 703.66 L321.36 705.51 L324.01 706.59 L324.62 710.10 L326.78 711.78 L328.02 714.60 L330.00 716.54 L333.12 717.00 L336.31 717.31 L338.47 718.97 L341.20 719.83 L344.15 720.36 L345.86 722.63 L348.53 723.52 L351.12 724.50 L354.18 724.73 L356.86 725.51 L359.81 725.83 L362.30 726.83 L364.81 727.81 L367.78 727.97 L366.36 735.83 L365.44 743.08 L367.74 744.68 L367.83 750.47 L369.42 753.56 L373.97 750.86 L377.89 749.23 L381.48 748.15 L384.41 748.38 L387.00 749.30 L390.26 748.69 L393.07 749.03 L396.53 747.78 L400.12 746.07 L404.69 741.74 L407.69 741.17 L410.72 740.40 L411.54 745.72 L413.54 747.91 L416.55 747.19 L417.34 753.18 L419.76 754.38 L423.10 752.55 L426.32 750.94 L428.47 752.97 L431.63 751.37 L434.21 751.79 L436.33 754.05 L439.28 752.95 L442.15 752.10 L444.89 751.67 L447.44 752.04 L450.14 751.66 L452.74 751.73 L455.26 752.21 L457.23 755.97 L460.01 754.98 L462.54 755.50 L465.10 755.85 L467.90 754.29 L470.55 753.67 L473.10 753.85 L475.60 754.53 L477.94 757.10 L480.12 762.57 L482.71 763.23 L485.28 764.69 L487.87 765.90 L490.50 767.05 L493.20 765.95 L495.86 765.70 L498.51 767.30 L501.19 768.88 L503.89 769.31 L506.53 767.13 L509.20 767.10 L511.79 765.28 L514.25 761.55 L516.67 758.37 L519.06 755.67 L521.39 752.81 L523.69 750.19 L526.04 748.49 L528.39 747.06 L530.69 745.38 L533.02 744.17 L535.37 743.17 L537.62 741.64 L539.89 740.40 L542.17 739.30 L544.38 737.91 L546.60 736.63 L548.88 735.77 L551.09 734.59 L553.26 733.34 L555.52 732.49 L557.76 731.58 L559.93 730.45 L562.17 729.59 L568.03 741.64 L570.98 742.80 L573.14 741.20 L577.63 747.09 L580.28 746.85 L581.81 743.27 L583.77 741.07 L586.25 740.44 L588.38 738.83 L591.68 740.33 L594.47 740.41 L597.22 740.31 L599.76 739.68 L601.62 737.41 L603.40 735.06 L605.55 733.58 L607.55 731.79 L608.95 728.79 L610.36 725.90 L612.06 723.68 L613.94 721.88 L615.38 719.25 L618.63 720.05 L621.48 720.04 L623.94 719.30 L627.03 719.60 L629.00 717.96 L630.56 715.64 L632.52 714.01 L634.56 712.53 L636.13 710.33 L638.67 709.63 L640.48 707.81 L641.24 704.51 L642.09 701.39 L645.25 701.56 L648.71 702.07 L649.85 699.42 L654.06 700.80 L656.85 700.26 L658.52 698.28 L659.22 695.12 L660.06 692.19 L660.92 689.34 L664.27 689.41 L665.30 686.80 L666.26 684.14 L669.79 684.31 L671.86 682.85 L673.39 680.82 L674.98 678.86 L676.67 677.02 L678.08 674.89 L679.67 672.96 L680.92 670.71 L682.43 668.72 L684.26 667.02 L685.41 664.72 L686.14 662.07 L685.90 658.62 L686.06 655.56 L684.79 651.39 L682.86 646.78 L682.59 643.58 L682.03 640.22 L681.48 636.92 L681.76 634.30 L682.73 632.22 L683.69 630.14 L684.69 628.08 L688.55 627.99 L699.32 632.41 L701.96 631.27 L704.97 630.33 L710.08 630.65 L711.57 628.66 L709.55 624.58 L710.25 622.17 L711.45 620.05 L713.22 618.25 L715.57 616.75 L716.65 614.55 L719.98 613.51 L720.73 611.12 L719.99 608.00 L720.04 605.31 L720.97 603.05 L721.16 600.46 L720.45 597.49 L719.31 594.38 L720.29 592.19 L720.50 589.70 L719.80 586.87 L723.07 585.59 L724.83 583.69 L726.28 581.67 L728.00 579.72 L727.69 577.07 L727.62 574.51 L728.34 572.23 L728.98 569.92 L728.40 567.26 L730.11 565.27 L730.58 562.91 L728.78 559.97 L726.09 556.86 L732.08 555.90 L734.36 553.98 L732.27 551.06 L736.84 549.58 L738.20 547.39 L736.98 544.68 L734.90 541.86 L733.61 539.23 L732.38 536.64 L734.79 534.61 L734.00 532.11 L733.93 529.72 L736.46 527.64 L736.59 525.26 L736.57 522.87 L736.56 520.48 L736.52 518.10 L736.24 515.70 L736.25 513.33 L735.48 510.93 L735.56 508.57 L736.01 506.23 L735.49 503.86 L733.52 501.49 L730.98 499.16 L729.50 496.87 L725.95 494.66 L724.95 492.43 L722.64 490.28 L720.13 488.18 L720.09 485.98 L717.34 483.97 L714.34 482.03 L713.10 479.99 L712.25 477.93 L719.02 475.00 L725.00 472.04 L725.03 469.75 L730.02 466.73 L732.07 464.06 L730.76 461.90 L727.36 460.12 L727.00 457.84 L726.65 455.56 L727.87 452.95 L727.96 450.55 L726.49 448.49 L727.82 445.78 L727.13 443.54 L724.97 441.69 L723.68 439.62 L722.94 437.43 L721.21 435.52 L719.00 433.78 L716.90 432.04 L716.73 429.71 L714.76 427.96 L713.38 426.05 L714.93 423.09 L713.88 421.05 L713.93 418.59 L713.22 416.41 L711.51 414.63 L709.74 412.89 L708.65 410.89 L707.30 409.01 L706.02 407.10 L705.48 404.86 L703.46 403.31 L701.07 401.97 L698.52 400.75 L702.74 396.09 L701.43 394.20 L699.54 392.64 L701.27 389.09 L700.89 386.67 L697.62 385.90 L694.33 385.19 L692.12 383.89 L690.72 382.11 L690.12 379.84 L687.76 378.69 L688.35 375.62 L687.39 373.54 L686.26 371.58 L684.46 370.08 L682.75 368.53 L681.54 366.63 L679.58 365.28 L677.59 363.97 L675.68 362.63 L674.58 360.65 L672.88 359.16 L671.05 357.78 L667.71 357.70 L664.61 357.47 L661.69 357.14 L658.24 357.35 L655.79 356.71 L652.22 357.15 L650.36 356.05 L648.36 355.09 L644.70 355.81 L641.60 356.05 L639.69 355.13 L637.69 354.31 L644.10 344.44 L644.18 341.19 L641.83 340.61 L645.07 333.65 L644.67 330.72 L640.91 331.74 L637.85 332.01 L636.47 330.25 L634.13 329.71 L633.65 326.78 L632.60 324.55 L630.48 323.72 L629.81 320.89 L627.63 320.14 L624.91 320.20 L622.85 319.33 L621.09 318.04 L618.29 318.32 L615.65 318.44 L613.08 318.50 L611.81 316.47 L608.92 317.12 L607.38 315.54 L606.57 312.65 L604.52 311.89 L603.06 310.07 L601.09 309.18 L598.62 309.25 L596.43 308.83 L594.56 307.78 L592.03 308.10 L590.36 306.64 L588.55 305.47 L585.86 306.26 L583.05 307.44 L581.47 305.78 L580.89 301.63 L578.44 301.99 L577.07 299.62 L575.71 297.12 L573.66 296.42 L570.77 298.11 L568.16 299.14 L565.71 299.81 L564.26 297.42 L562.01 297.52 L559.64 298.05 L558.30 295.06 L556.22 294.59 L554.26 293.68 L552.00 293.91 L549.94 293.39 L547.77 293.36 L545.61 293.27 L543.30 294.01 L541.21 293.70 L539.16 293.20 L537.07 292.98 L534.83 293.59 L532.39 295.64 L530.07 297.14 L527.61 300.01 L525.33 301.90 L522.98 304.77 L520.80 306.65 L518.75 307.61 L516.60 310.00 L514.54 311.96 L512.58 312.91 L510.67 313.47 L508.84 312.78 L507.48 298.88 L505.51 297.34 L503.48 297.06 L501.50 290.21 L499.41 290.52 L497.37 294.78 L495.28 293.29 L493.21 293.35 L491.18 294.17 L489.01 292.23 L486.87 291.25 L484.88 292.83 L483.01 295.40 L480.75 293.20 L478.72 293.75 L477.06 297.56 L474.80 295.85 L472.82 296.61 L471.39 301.03 L469.46 301.74 L466.77 297.76 L465.32 301.34 L463.15 300.71 L460.46 297.48 L458.43 297.88 L456.56 299.00 L454.53 299.32 L452.34 299.02 L450.61 300.62 L448.72 301.50 L447.15 303.59 L445.54 305.38 L443.68 306.21 L442.61 309.65 L441.63 313.19 L438.78 310.73 L435.79 308.05 L434.97 311.88 L431.86 309.10 L429.25 307.87 L428.05 310.49 L427.12 313.67 L424.82 313.31 L423.77 316.04 L422.57 318.29 L420.29 318.02 L418.98 319.94 L418.10 322.75 L415.20 321.19 L412.74 320.66 L411.09 321.82 L408.79 321.69 L407.23 323.02 L405.99 324.94 L404.96 327.20 L402.09 326.11 L400.58 327.50 L399.51 329.60 L397.02 329.30 L396.45 332.17 L396.24 335.54 L395.97 338.71 L396.19 342.53 L396.78 346.78 L396.42 349.51 L396.28 352.49 L396.39 355.74 L395.97 358.17 L395.06 359.88 L394.00 361.38 L389.03 357.84 L382.56 352.62 L380.99 353.68 L377.17 352.04 L373.02 350.11 L372.69 352.73 L373.40 356.47 L369.93 355.49 L368.69 357.01 L368.42 359.56 L365.28 359.06 L362.56 359.06 L363.31 362.61 L363.26 365.28 L359.63 364.45 L360.10 367.57 L360.29 370.38 L357.14 370.09 L356.99 372.54 L358.84 376.70 L355.07 375.94 L353.40 377.03 L355.02 380.84 L350.95 379.97 L348.20 380.24 L347.22 381.93 L346.42 383.74 L344.86 384.98 L343.32 386.25 L343.71 388.90 L342.89 390.67 L343.39 393.33 L342.65 395.11 L342.55 397.30 L343.51 400.14 L345.15 403.36 L339.41 401.99 L337.24 402.89 L338.70 405.93 L334.12 405.47 L332.59 406.81 L333.88 409.69 L333.38 411.56 L332.79 413.38 L334.41 416.31 L333.36 417.86 L332.31 419.42 L332.79 421.70 L333.32 423.97 L329.20 424.14 L328.25 425.77 L328.03 427.70 L326.07 428.92 L326.15 430.97 L326.65 433.17 L326.96 435.27 L324.14 436.21 L324.16 438.20 L323.34 439.89 L322.98 441.74 L325.42 444.47 L327.03 446.88 L329.06 449.37 L331.37 451.88 L334.26 454.49 L335.68 456.65 L337.28 458.80 L339.58 461.09 L341.03 463.12 L341.63 464.92 L341.91 466.64 L331.37 466.17 L326.62 467.02 L327.89 469.04 L319.78 469.44 L318.29 471.06 L321.03 473.32 L322.68 475.38 L320.38 476.89 L319.57 478.62 L320.02 480.49 L318.67 482.18 L317.43 483.90 L320.35 485.97 L320.79 487.80 L318.57 489.47 L320.41 491.38 L321.18 493.21 L318.79 494.93 L322.79 496.82 L325.70 498.61 L320.98 500.36 L322.66 502.13 L325.32 503.85 L320.49 505.75 L319.65 507.59 L320.33 509.36 L320.93 511.12 L320.28 512.97 L320.93 514.72 L321.76 516.45 L323.46 518.08 L324.33 519.76 L325.19 521.44 L326.93 522.98 L330.29 524.27 L331.51 525.82 L326.24 528.40 L327.39 529.99 L328.52 531.56 L324.98 534.03 L325.81 535.68 L328.60 536.90 L328.28 538.77 L330.50 540.05 L333.15 541.19 L333.05 542.99 L333.61 544.63 L335.99 545.75 L336.09 547.49 L333.39 550.09 L334.16 551.67 L334.99 553.23 L334.58 555.19 L335.84 556.60 L338.01 557.67 L337.76 559.60 L337.38 561.59 L339.27 562.72 L338.24 564.99 L340.82 565.81 L344.24 566.23 L346.94 566.90 L349.58 567.54 L353.65 567.48 L356.85 567.75 L358.67 568.62 L361.98 568.73 L364.90 568.97 L366.84 569.67 L368.27 570.61 L369.58 571.59 L358.63 579.46 L357.64 581.89 L359.16 582.91 L353.92 587.97 L354.60 589.56 L358.62 589.04 L359.12 590.70 L359.71 592.33 L360.90 593.54 L360.63 595.76 L360.69 597.79 L362.27 598.75 L365.45 598.52 L365.16 600.82 L365.41 602.75 L369.42 601.77 L369.35 603.94 L370.19 605.41 L374.73 603.82 L376.64 604.34 L374.14 608.63 L377.41 607.96 L378.97 608.75 L376.64 613.10 L377.69 614.41 L379.20 615.28 L380.47 616.37 L381.26 617.95 L382.96 618.60 L384.25 619.67 L386.23 620.00 L389.03 619.41 L390.25 620.50 L392.99 619.87 L396.20 618.64 L396.17 621.10 L394.72 625.31 L397.63 624.35 L397.06 627.62 L397.07 630.25 L399.50 629.82 L402.29 628.87 L402.95 630.69 L405.24 630.31 L407.73 629.59 L408.26 631.61 L409.86 632.11 L412.60 630.89 L412.75 633.53 L412.87 636.30 L414.56 636.66 L415.71 637.86 L417.02 638.82 L419.03 638.59 L421.07 638.24 L421.55 640.67 L423.08 641.22 L425.20 640.66 L425.79 642.98 L428.29 641.60 L431.01 639.68 L433.48 638.14 L435.59 637.26 L438.18 635.24 L440.98 632.61 L442.60 632.51 L444.87 630.84 L447.34 628.57 L449.16 627.76 L450.66 627.68 L450.99 630.69 L449.04 640.16 L450.64 640.10 L451.36 642.59 L451.28 647.62 L453.33 646.32 L456.07 642.63 L456.75 645.59 L458.50 645.01 L460.89 642.01 L461.90 643.93 L463.46 643.84 L465.34 642.41 L467.18 640.95 L467.64 645.55 L469.06 646.05 L470.94 644.26 L472.18 645.63 L473.91 644.42 L475.63 643.04 L476.88 644.39 L478.23 645.24 L479.73 645.12 L480.78 648.46 L482.45 647.12 L484.20 644.69 L485.85 642.80 L487.08 645.16 L488.48 645.93 L490.09 643.96 L491.36 646.83 L492.85 646.47 L494.33 646.23 L495.85 644.40 L497.34 641.68 L498.77 640.05 L500.18 646.66 L501.65 646.69 L503.05 643.50 L504.64 648.60 L506.09 647.69 L507.37 643.68 L508.73 642.36 L510.27 643.88 L511.50 641.23 L513.10 643.13 L514.56 643.29 L515.79 641.34 L517.09 640.26 L518.71 641.71 L520.22 642.20 L521.23 639.31 L522.77 639.97 L523.80 637.65 L524.77 635.16 L525.40 631.17 L527.64 635.50 L529.05 635.47 L530.40 635.16 L532.33 637.31 L533.31 635.40 L534.14 633.00 L535.13 631.40 L535.85 628.93 L536.21 625.33 L537.08 623.70 L537.72 621.40 L538.15 618.58 L538.85 616.74 L539.80 615.73 L540.80 614.89 L544.67 621.89 L548.04 627.15 L548.76 625.25 L552.48 630.91 L554.47 632.06 L554.51 628.48 L554.32 624.56 L556.70 626.55 L557.17 624.24 L557.08 620.85 L559.38 622.53 L560.14 621.01 L560.19 618.14 L561.44 617.65 L564.36 620.30 L565.16 618.92 L565.93 617.52 L567.18 617.00 L567.65 615.13 L567.86 612.89 L570.37 614.46 L571.36 613.50 L572.10 612.18 L574.86 613.95 L574.97 611.67 L574.62 608.79 L574.93 606.92 L577.38 608.10 L578.22 607.00 L579.34 606.29 L580.93 606.19 L582.02 605.41 L582.64 604.04 L581.92 601.04 L581.83 598.89 L582.59 597.80 L585.94 599.73 L585.14 596.83 L585.49 595.30 L587.52 595.61 L587.06 593.22 L585.36 589.59 L588.70 591.25 L589.77 590.52 L588.90 587.87 L592.62 589.73 L593.61 588.89 L592.57 586.16 L592.14 584.05 L595.93 585.77 L596.17 584.28 L595.39 581.92 L597.34 581.92 L596.35 579.45 L594.59 576.42 L593.44 573.96 L592.47 571.70 L591.49 569.49 L592.07 568.49 L592.18 567.15 L591.19 565.04 L591.61 563.97 L595.11 565.00 L597.01 564.89 L595.65 562.61 L598.02 562.77 L598.88 561.93 L596.90 559.35 L595.57 557.23 L595.63 555.98 L595.53 554.64 L595.40 553.31 L595.72 552.24 L595.95 551.12 L595.98 549.92 L596.21 548.82 L596.51 547.76 L596.61 546.62 L596.76 545.50 L597.09 544.47 L597.28 543.39 L597.44 542.30 L597.71 541.26 L597.91 540.20 L598.08 539.12 L598.26 538.06 L598.44 537.00 L598.60 535.94 L598.73 534.88 L598.90 533.83 L599.04 532.77 L599.17 531.72 L599.32 530.67 L599.42 529.62 L599.52 528.57 L599.63 527.53 L599.72 526.48 L599.78 525.43 L599.83 524.38 L599.90 523.34 L599.93 522.30 L599.97 521.26 L599.99 520.22 L599.98 519.18 L599.98 518.15 L599.98 517.12 L599.95 516.08 L599.91 515.06 L599.87 514.03 L599.82 513.01 L599.75 511.98 L599.67 510.96 L599.59 509.95 L599.47 508.93 L599.36 507.92 L599.27 506.92 L599.14 505.91 L598.99 504.91 L598.87 503.91 L598.71 502.92 L598.53 501.93 L598.36 500.94 Z"/>
  <svg class="pausebutton" id="pausebutton">
    <circle cx="500" cy="500" id="pausestart" class="pausestart" r="52.65"/>
    <rect height="50.02" width="10.00" y="473.68" rx="2.00" ry="2.00" x="479.99" class="pausesymbol"/>
    <rect height="50.02" width="10.00" y="473.68" rx="2.00" ry="2.00" x="510.00" class="pausesymbol"/>
    <polygon points="530.01,500 479.99,530.01 479.99,469.99" class="playsymbol"/>
  </svg>
  <polygon id="playback-head" class="playback-head" points="941.65,500 921.65,540 961.65,540"/>
</svg>