<?xml-stylesheet href="../../style/waveformjs.css" type="text/css"?>
<svg xmlns="http://www.w3.org/2000/svg" xmlns:xlink="http://www.w3.org/1999/xlink" width="100%" height="100%" viewBox="0 0 1000 1000">
  <path class="svg-wave" id="sp" d="M598.01 500.00 L598.19 500.98 L598.35 501.97 L598.51 502.96 L598.65 503.95 L598.79 504.94 L598.92 505.94 L599.03 506.94 L599.13 507.95 L599.22 508.95 L599.31 509.96 L599.37 510.98 L599.43 511.99 L599.46 513.00 L599.48 514.02 L599.50 515.04 L599.49 516.06 L599.47 517.07 L599.45 518.10 L599.42 519.12 L599.38 520.14 L599.31 521.17 L599.22 522.19 L599.12 523.21 L599.01 524.23 L598.88 525.25 L598.72 526.26 L598.57 527.28 L598.40 528.30 L598.18 529.30 L597.97 530.31 L597.77 531.32 L597.57 532.33 L597.39 533.36 L597.04 534.33 L596.79 535.33 L596.59 536.36 L596.17 537.30 L595.73 538.23 L595.46 539.24 L595.10 540.21 L594.40 541.03 L593.90 541.94 L593.49 542.88 L592.67 543.63 L592.05 544.46 L591.63 545.40 L591.19 546.32 L590.72 547.23 L590.08 548.05 L589.25 548.76 L588.36 549.43 L587.11 549.88 L586.16 550.48 L585.00 550.95 L584.17 551.60 L584.33 552.87 L583.32 553.41 L582.50 554.05 L581.81 554.78 L580.78 555.26 L579.37 555.47 L578.79 556.25 L577.04 556.17 L572.36 553.87 L568.08 551.75 L570.07 554.39 L567.77 553.69 L561.45 549.69 L566.01 554.48 L570.54 559.41 L566.92 557.52 L567.39 559.10 L567.59 560.49 L561.24 555.92 L559.03 554.99 L555.08 552.35 L549.62 548.12 L552.55 551.99 L558.64 559.18 L558.57 560.30 L561.05 564.13 L565.36 570.04 L560.94 566.64 L559.33 566.19 L562.00 570.57 L554.67 563.51 L552.76 562.54 L560.14 572.75 L556.35 569.56 L552.86 566.61 L556.09 572.16 L553.86 570.73 L551.20 568.65 L554.96 575.26 L550.26 570.29 L548.94 569.90 L554.80 579.96 L552.82 578.75 L551.10 577.86 L554.45 584.80 L550.40 580.25 L548.10 578.32 L550.57 584.21 L545.48 577.48 L541.89 573.03 L546.73 583.39 L546.08 584.20 L544.01 582.35 L545.67 587.56 L543.74 585.95 L541.21 583.01 L541.85 586.45 L539.29 583.28 L536.02 578.37 L538.50 586.02 L539.25 590.12 L536.22 585.48 L535.42 585.96 L534.65 586.56 L531.83 581.86 L529.38 577.87 L528.41 577.64 L526.76 575.46 L527.58 580.31 L529.34 588.30 L528.96 590.16 L529.81 596.10 L529.47 598.47 L527.12 594.02 L525.95 593.46 L525.90 597.07 L522.66 588.44 L521.86 589.01 L524.08 602.47 L521.99 597.99 L520.76 597.03 L521.16 603.95 L518.99 598.30 L517.56 596.09 L517.71 602.67 L515.07 592.93 L513.83 591.00 L514.93 605.34 L513.38 601.74 L512.00 598.89 L511.92 607.14 L510.00 598.86 L508.49 593.28 L507.57 593.43 L505.97 584.14 L505.09 583.70 L504.75 593.51 L503.92 596.07 L503.08 600.12 L502.30 610.49 L501.13 605.02 L500.08 602.22 L499.01 607.35 L498.06 600.88 L497.25 594.14 L495.92 603.94 L494.88 604.02 L494.05 600.43 L492.90 602.39 L491.82 603.00 L491.04 600.15 L489.81 602.36 L488.82 602.01 L488.25 598.10 L486.47 604.13 L484.73 608.97 L483.97 606.62 L482.64 608.14 L481.35 609.18 L481.04 604.67 L479.88 605.09 L478.66 605.71 L479.36 597.22 L478.00 598.73 L474.59 608.91 L474.43 604.86 L473.58 603.82 L471.15 608.81 L471.33 603.93 L470.83 601.76 L468.70 605.20 L470.02 597.20 L469.51 595.45 L464.27 608.10 L464.90 602.73 L465.54 597.66 L462.76 602.27 L463.60 596.93 L465.61 588.87 L464.68 588.63 L464.83 585.75 L463.97 585.41 L459.51 593.36 L457.39 595.63 L454.24 599.99 L449.77 606.92 L451.17 601.28 L451.19 598.71 L447.40 603.76 L450.03 596.17 L451.38 591.33 L445.12 600.66 L444.03 600.24 L444.30 597.47 L440.32 602.04 L440.80 598.94 L441.45 595.67 L438.00 599.06 L439.59 594.41 L441.97 588.73 L436.14 595.54 L433.34 597.60 L434.21 594.29 L431.33 596.35 L431.35 594.31 L434.78 587.74 L434.14 586.77 L437.61 580.53 L440.04 575.81 L435.74 579.60 L430.64 584.18 L428.54 584.98 L424.46 588.02 L420.41 590.90 L421.87 587.44 L421.09 586.56 L418.65 587.46 L423.63 580.48 L422.60 579.95 L415.46 585.60 L417.37 582.01 L418.88 578.91 L414.75 581.28 L415.59 578.88 L416.40 576.58 L410.85 580.04 L415.12 574.68 L414.54 573.69 L405.25 580.06 L407.07 576.94 L407.21 575.28 L400.84 578.82 L404.47 574.39 L405.66 571.95 L399.29 575.23 L405.90 568.84 L407.86 566.00 L397.26 572.05 L398.21 569.88 L399.87 567.27 L392.10 570.94 L396.04 566.87 L397.83 564.28 L393.24 565.69 L398.31 561.18 L402.55 557.31 L393.62 561.13 L391.74 560.79 L395.13 557.51 L393.68 556.93 L394.43 555.18 L398.24 551.90 L400.59 549.45 L401.78 547.64 L403.05 545.83 L396.54 547.65 L391.22 548.79 L388.26 548.78 L382.03 550.10 L381.44 548.96 L384.38 546.40 L382.98 545.60 L382.20 544.55 L388.75 540.81 L385.82 540.59 L376.90 542.38 L379.85 540.03 L379.39 538.85 L374.66 538.99 L378.53 536.46 L378.82 535.05 L374.65 534.91 L383.07 531.31 L382.76 530.14 L369.69 532.11 L374.09 529.69 L375.52 528.05 L369.20 528.10 L376.81 525.18 L381.64 522.96 L382.45 521.58 L390.96 518.90 L389.32 518.04 L380.02 518.33 L379.24 517.21 L374.47 516.62 L363.92 516.63 L369.72 514.60 L371.50 513.10 L364.53 512.44 L372.85 510.40 L377.92 508.75 L368.08 508.14 L369.94 506.72 L373.01 505.28 L369.59 504.12 L370.68 502.79 L372.58 501.48 L368.63 500.21 L371.43 498.92 L374.86 497.70 L366.44 496.20 L364.58 494.80 L366.08 493.51 L362.89 491.98 L364.25 490.70 L367.38 489.58 L364.65 488.00 L366.74 486.84 L373.27 486.21 L368.25 484.33 L362.08 482.19 L365.81 481.31 L364.68 479.77 L361.84 477.93 L366.55 477.31 L367.41 476.09 L366.38 474.52 L374.05 474.68 L373.81 473.31 L363.06 469.61 L368.81 469.50 L372.83 469.09 L369.22 466.83 L373.66 466.61 L382.32 467.63 L382.60 466.44 L385.16 465.93 L383.90 464.29 L375.75 460.42 L374.34 458.58 L369.24 455.44 L363.79 452.06 L369.47 452.59 L372.38 452.19 L366.36 448.41 L375.23 450.40 L378.81 450.41 L368.38 444.60 L370.54 443.98 L373.52 443.76 L366.39 438.98 L371.80 439.90 L374.41 439.58 L370.13 435.92 L376.86 437.70 L382.47 439.05 L372.78 432.40 L372.72 430.73 L375.81 430.79 L372.21 427.10 L376.45 427.88 L383.22 430.25 L384.14 429.22 L391.66 432.32 L395.64 433.34 L391.33 429.05 L386.74 424.43 L384.86 421.50 L380.72 416.91 L379.68 414.39 L383.43 415.29 L382.76 413.00 L383.80 411.96 L391.16 415.81 L389.93 413.08 L385.73 407.90 L389.43 409.04 L392.40 409.67 L390.40 406.10 L393.01 406.47 L394.67 406.04 L391.86 401.57 L397.60 404.91 L397.71 403.09 L390.67 394.32 L394.79 396.25 L395.73 395.11 L392.67 389.84 L397.59 392.77 L400.07 393.24 L396.91 387.64 L404.47 393.76 L406.91 394.37 L399.38 383.50 L402.78 385.14 L405.72 386.33 L400.87 378.01 L406.03 381.97 L409.14 383.51 L406.53 377.65 L412.96 383.67 L417.05 386.81 L411.74 377.00 L413.24 376.49 L417.43 379.93 L416.60 376.08 L419.79 378.21 L424.38 382.64 L427.34 384.72 L429.76 386.04 L431.23 385.89 L429.26 379.92 L429.34 377.27 L428.92 373.63 L427.42 367.90 L429.39 368.37 L432.90 371.87 L432.46 367.83 L434.43 368.45 L439.05 374.58 L438.89 371.00 L437.74 365.09 L440.78 368.25 L441.20 365.60 L440.81 360.93 L443.94 364.53 L444.99 363.22 L444.85 358.81 L448.37 363.81 L449.50 362.67 L446.47 349.81 L448.95 352.13 L450.55 351.98 L450.51 346.75 L454.53 354.24 L457.38 358.42 L459.36 359.94 L463.17 368.14 L463.55 364.29 L462.49 354.56 L464.08 354.71 L464.44 349.74 L463.73 339.62 L466.58 345.03 L468.61 347.05 L468.71 339.40 L472.13 348.89 L474.33 352.55 L474.10 341.92 L476.19 344.94 L478.32 348.75 L479.11 343.10 L480.96 345.24 L482.69 346.63 L483.71 341.46 L485.73 345.93 L487.51 348.75 L488.30 338.67 L489.90 338.39 L491.75 342.66 L493.36 343.48 L494.97 344.91 L496.61 348.78 L498.16 351.56 L499.64 351.34 L501.11 353.82 L502.63 350.89 L504.28 345.11 L505.97 341.28 L507.61 340.31 L509.37 337.49 L510.96 338.16 L512.66 337.21 L514.20 338.32 L515.11 345.72 L516.96 342.97 L519.58 334.33 L520.57 339.68 L521.75 342.98 L523.80 339.96 L524.65 344.91 L524.84 353.21 L526.23 353.85 L527.28 356.33 L528.95 355.43 L531.79 349.09 L533.92 346.60 L536.63 341.86 L539.56 336.64 L540.86 338.37 L542.84 337.40 L544.75 336.80 L545.62 339.90 L546.63 342.36 L548.26 342.65 L549.29 344.84 L550.19 347.33 L552.93 344.24 L553.45 347.73 L554.98 348.27 L558.75 342.79 L559.66 345.08 L559.17 350.83 L563.49 344.48 L566.57 341.49 L566.58 345.81 L571.11 339.75 L570.12 346.14 L568.96 352.61 L570.12 353.94 L567.83 362.28 L567.67 366.00 L572.45 360.01 L576.24 356.23 L579.50 353.65 L584.67 347.78 L585.93 349.08 L585.83 352.70 L589.19 350.41 L589.24 353.67 L586.99 360.50 L590.82 357.56 L594.32 355.29 L593.96 358.94 L594.73 360.83 L597.50 359.78 L597.72 362.43 L599.16 363.32 L602.32 361.89 L600.32 367.38 L603.27 366.28 L610.32 360.07 L609.49 363.93 L611.18 364.63 L615.58 362.11 L613.80 366.96 L614.35 369.00 L618.74 366.67 L613.56 375.03 L614.56 376.44 L625.04 367.81 L622.84 372.72 L622.92 375.15 L630.09 370.48 L626.91 376.15 L625.68 379.78 L631.59 376.63 L626.00 384.21 L624.36 387.99 L634.43 381.33 L633.71 384.33 L630.53 389.34 L636.45 386.65 L633.43 391.39 L629.09 397.06 L628.42 399.67 L627.16 402.69 L627.43 404.49 L633.99 401.65 L636.55 401.86 L640.99 400.79 L646.89 398.82 L645.25 402.08 L642.85 405.76 L647.86 404.56 L646.06 407.78 L640.78 413.07 L646.67 411.44 L650.66 411.08 L647.85 414.72 L652.10 414.28 L655.44 414.44 L652.29 418.15 L655.60 418.36 L658.28 418.97 L653.94 423.12 L656.57 423.75 L668.34 420.09 L666.27 423.10 L667.98 424.34 L670.98 425.04 L664.30 429.92 L662.16 432.74 L659.03 435.89 L651.99 440.49 L657.23 440.24 L666.60 438.58 L666.64 440.45 L672.55 440.28 L680.94 439.40 L676.16 442.95 L674.72 445.34 L681.41 445.23 L672.32 449.85 L671.61 451.92 L683.79 450.48 L678.81 453.73 L675.41 456.48 L683.15 456.50 L678.20 459.55 L676.45 461.80 L683.52 462.19 L677.80 465.22 L675.85 467.42 L687.45 467.21 L686.48 469.30 L685.49 471.36 L692.37 472.27 L687.42 474.89 L685.52 477.03 L691.42 478.24 L684.90 480.85 L679.35 483.24 L690.30 484.13 L691.88 485.93 L689.19 488.03 L694.26 489.66 L692.73 491.67 L688.42 493.75 L691.41 495.56 L687.92 497.52 L681.68 499.42 L686.88 501.27 L692.94 503.24 L687.83 505.04 L685.81 506.84 L687.63 508.79 L682.77 510.40 L675.04 511.71 L673.90 513.38 L671.95 514.97 L675.90 517.08 L684.16 519.75 L688.85 522.16 L696.89 525.10 L705.69 528.32 L708.02 530.76 L709.53 533.13 L709.95 535.35 L709.52 537.44 L707.47 539.22 L704.91 540.86 L702.50 542.49 L701.00 544.28 L699.28 545.99 L697.67 547.71 L697.65 549.80 L698.25 552.06 L696.60 553.74 L696.75 555.90 L697.15 558.15 L695.33 559.74 L695.72 562.01 L695.40 564.06 L693.04 565.43 L692.57 567.43 L692.25 569.48 L690.80 571.12 L691.59 573.61 L690.56 575.41 L690.74 577.69 L691.28 580.15 L689.85 581.80 L688.77 583.58 L689.29 586.08 L687.49 587.54 L686.57 589.39 L686.96 591.89 L685.29 593.38 L684.65 595.38 L684.48 597.65 L682.84 599.13 L682.17 601.14 L681.82 603.33 L679.70 604.52 L679.37 606.74 L679.03 608.98 L677.00 610.19 L676.66 612.44 L676.07 614.55 L674.11 615.78 L673.76 618.06 L672.57 619.79 L670.89 621.18 L670.74 623.66 L669.22 625.16 L667.80 626.72 L667.83 629.40 L665.95 630.62 L664.51 632.17 L664.07 634.54 L661.32 635.00 L659.76 636.43 L659.26 638.79 L657.27 639.85 L656.50 641.99 L655.85 644.27 L654.57 645.98 L653.44 647.84 L652.66 650.06 L650.32 650.75 L649.36 652.81 L648.33 654.82 L646.12 655.60 L645.67 658.27 L645.68 661.49 L644.21 663.11 L641.37 663.15 L637.06 661.41 L633.17 660.05 L636.08 666.91 L630.53 663.42 L626.99 662.29 L627.30 666.08 L624.82 666.26 L626.68 672.30 L620.71 667.67 L618.25 667.77 L618.12 671.19 L620.49 678.41 L616.00 675.52 L611.02 671.70 L612.81 678.35 L611.17 679.72 L612.11 685.35 L607.16 681.24 L606.24 683.85 L603.82 683.89 L600.14 681.58 L595.65 677.63 L590.33 671.83 L588.93 673.35 L588.69 677.23 L590.18 684.80 L588.79 686.68 L588.14 690.18 L587.62 694.12 L586.31 696.43 L585.59 700.22 L581.27 695.49 L579.95 697.88 L577.42 697.29 L576.85 701.73 L573.73 699.51 L569.24 693.28 L569.02 698.93 L567.71 701.62 L566.66 705.27 L563.70 703.05 L561.78 704.07 L560.19 706.24 L558.91 709.62 L556.90 710.50 L553.31 705.37 L552.28 710.02 L549.81 708.99 L549.52 717.37 L545.96 711.51 L543.30 709.33 L541.85 713.03 L539.70 713.33 L538.26 717.66 L535.08 712.01 L533.15 713.59 L531.30 715.90 L529.91 721.89 L527.11 717.57 L524.50 714.00 L522.80 718.45 L520.31 715.49 L518.64 721.38 L515.82 713.45 L513.60 712.34 L511.59 714.52 L509.16 708.10 L506.91 703.33 L504.84 701.59 L502.80 700.57 L500.82 704.79 L498.73 710.24 L496.59 712.63 L494.38 715.92 L492.19 716.88 L490.08 715.44 L487.86 716.40 L485.83 714.36 L483.70 714.00 L481.90 709.96 L479.13 716.63 L477.40 712.39 L475.84 707.33 L473.09 712.37 L471.18 710.59 L468.84 711.90 L466.78 711.18 L464.50 711.86 L462.58 710.42 L458.05 722.89 L456.28 720.17 L454.93 715.69 L451.64 720.37 L450.83 713.85 L449.06 711.79 L448.66 704.45 L447.65 700.00 L444.86 702.36 L441.46 706.66 L438.23 710.05 L435.54 711.35 L431.75 716.00 L430.06 713.90 L425.22 721.20 L425.08 714.51 L424.18 710.31 L420.74 713.15 L419.38 710.35 L416.55 711.38 L416.54 705.36 L414.93 703.46 L411.80 705.15 L407.56 709.24 L406.28 706.51 L405.34 703.16 L400.89 707.29 L400.05 703.78 L395.05 708.66 L396.78 700.22 L396.80 695.35 L393.74 696.37 L392.93 693.21 L393.45 687.83 L392.21 685.66 L390.05 685.08 L388.92 682.81 L383.13 688.06 L378.44 691.33 L379.01 686.28 L374.75 688.69 L368.24 694.25 L365.30 694.36 L366.60 688.44 L363.58 688.68 L363.02 685.52 L357.78 688.64 L358.27 684.13 L362.66 674.77 L358.06 676.96 L357.86 673.63 L359.55 668.10 L361.87 662.00 L359.13 661.91 L355.11 663.21 L348.75 666.98 L344.35 668.41 L340.79 668.85 L335.12 671.40 L335.58 667.53 L329.49 670.29 L331.98 664.49 L331.43 661.76 L328.60 661.21 L326.69 659.77 L322.15 660.70 L326.39 653.74 L324.24 652.53 L321.72 651.62 L313.76 655.22 L316.92 649.50 L318.94 644.86 L313.03 646.54 L310.06 645.83 L305.98 645.90 L309.34 640.41 L305.34 640.38 L306.36 636.72 L307.80 632.84 L311.44 627.56 L316.68 621.36 L313.42 620.85 L309.87 620.47 L302.85 622.18 L300.20 621.07 L295.49 621.14 L293.01 619.83 L289.03 619.33 L286.50 617.96 L290.73 612.91 L286.63 612.38 L287.73 609.11 L281.10 609.76 L284.59 605.33 L289.33 600.41 L283.99 600.32 L281.56 598.80 L278.55 597.51 L279.74 594.37 L277.57 592.68 L276.51 590.51 L271.73 589.80 L271.76 587.16 L276.39 582.84 L270.97 582.25 L270.95 579.68 L263.55 579.61 L269.50 575.05 L269.71 572.45 L267.17 570.69 L264.91 568.82 L262.45 566.97 L267.46 563.05 L263.90 561.49 L262.86 559.23 L255.88 558.39 L260.81 554.69 L262.76 551.75 L259.54 549.94 L260.26 547.30 L255.19 545.76 L264.22 541.63 L265.79 538.95 L265.76 536.55 L266.95 533.98 L274.19 530.62 L276.79 528.00 L270.85 526.42 L268.43 524.35 L263.97 522.44 L261.43 520.27 L257.51 518.17 L257.15 515.75 L256.93 513.33 L256.79 510.90 L259.23 508.38 L258.62 505.98 L262.33 503.51 L254.79 501.17 L260.33 498.75 L263.94 496.41 L259.16 493.92 L260.03 491.54 L259.37 489.11 L259.68 486.72 L258.42 484.22 L259.97 481.91 L246.16 478.32 L249.77 476.10 L252.53 473.86 L249.27 470.98 L254.92 469.15 L257.76 467.04 L265.94 465.77 L269.34 463.91 L266.23 461.02 L260.48 457.60 L256.29 454.34 L254.64 451.48 L248.25 447.60 L251.07 445.58 L243.10 441.14 L250.91 440.30 L254.92 438.67 L252.92 435.53 L254.15 433.22 L255.15 430.86 L261.77 430.15 L262.00 427.62 L260.83 424.64 L255.43 420.25 L259.42 418.88 L262.73 417.34 L258.83 413.27 L259.44 410.76 L255.86 406.65 L264.44 407.22 L268.34 406.07 L267.67 403.08 L271.63 402.04 L278.26 402.25 L280.27 400.50 L280.54 397.96 L282.59 396.26 L276.46 390.57 L273.49 386.30 L278.11 385.83 L275.42 381.58 L268.12 374.76 L269.49 372.50 L275.94 373.13 L274.61 369.38 L278.32 368.55 L271.70 361.53 L280.02 363.54 L288.71 365.99 L286.43 361.53 L290.33 361.06 L297.31 362.75 L303.53 364.08 L302.92 360.72 L301.30 356.57 L295.84 349.51 L294.84 345.58 L293.55 341.35 L291.63 336.53 L294.71 335.61 L292.22 330.17 L298.64 332.03 L300.58 330.24 L301.79 327.83 L301.35 323.92 L301.54 320.52 L309.28 324.02 L309.09 320.28 L311.08 318.55 L307.10 310.98 L313.77 313.84 L318.13 314.52 L317.27 309.88 L315.72 304.38 L316.49 301.26 L322.91 304.33 L321.25 298.48 L326.94 300.92 L330.48 301.00 L337.39 305.19 L344.41 309.78 L344.20 305.58 L343.40 300.52 L341.21 293.52 L342.20 290.51 L341.81 285.55 L342.66 282.19 L342.22 276.91 L345.06 276.22 L351.10 280.27 L351.08 275.44 L355.42 277.18 L354.70 271.08 L359.69 273.98 L365.24 278.00 L364.96 272.45 L365.44 268.00 L367.16 265.58 L371.16 267.26 L372.22 263.62 L374.82 262.78 L373.69 254.73 L377.79 256.75 L382.18 259.52 L382.75 254.50 L385.17 253.25 L385.43 247.24 L391.06 253.12 L393.50 251.96 L395.90 250.72 L396.98 246.19 L399.55 245.25 L404.52 250.57 L404.85 243.78 L407.86 244.06 L408.19 236.76 L412.82 241.74 L416.00 242.70 L418.03 240.17 L420.41 238.60 L422.21 235.04 L427.61 244.00 L430.20 243.38 L433.19 244.32 L436.23 245.58 L440.68 252.88 L443.53 253.91 L444.95 248.61 L446.86 245.17 L448.82 241.63 L450.87 238.30 L452.25 230.82 L454.49 227.64 L457.73 230.47 L460.13 228.08 L462.63 226.06 L465.66 227.98 L468.55 229.11 L471.03 226.65 L473.95 228.30 L476.72 228.60 L479.25 225.96 L482.26 229.89 L484.89 228.40 L487.37 223.04 L490.13 222.61 L492.85 220.40 L495.55 214.13 L498.39 211.34 L501.27 212.42 L504.10 215.59 L506.77 222.92 L509.41 226.68 L511.91 232.06 L514.27 238.12 L517.15 234.24 L520.34 227.15 L523.20 225.83 L526.65 218.64 L530.37 210.22 L533.14 211.66 L536.34 209.46 L539.13 210.69 L541.79 212.67 L544.71 212.79 L547.04 216.50 L549.71 217.90 L552.20 220.16 L554.50 223.24 L557.78 221.29 L560.89 220.38 L563.67 221.09 L566.83 220.16 L570.31 218.09 L573.10 218.93 L576.22 218.50 L577.74 223.85 L578.80 230.45 L581.40 231.55 L582.61 237.08 L583.73 242.55 L586.60 242.49 L589.16 243.40 L592.16 243.08 L596.31 239.74 L601.31 234.42 L604.16 234.94 L608.83 230.99 L613.39 227.58 L616.40 228.04 L618.58 230.43 L621.33 231.51 L623.61 233.60 L625.53 236.40 L627.45 239.11 L627.94 244.61 L628.70 249.39 L629.80 253.36 L630.21 258.46 L631.30 262.16 L633.67 263.49 L638.10 261.26 L644.21 256.35 L647.96 255.63 L654.14 251.06 L660.30 246.82 L662.93 248.27 L665.54 249.75 L667.86 251.68 L670.22 253.54 L672.15 255.99 L674.45 257.91 L675.81 261.10 L677.87 263.29 L679.03 266.65 L677.85 272.93 L678.03 277.32 L684.77 273.57 L681.34 282.26 L680.23 287.93 L690.80 280.00 L692.53 282.43 L692.55 286.75 L699.32 283.64 L697.30 290.08 L695.25 296.38 L696.73 298.91 L693.31 306.32 L692.82 310.63 L700.25 307.23 L706.01 305.62 L710.32 305.49 L717.58 302.77 L719.20 305.26 L718.32 309.92 L722.30 310.33 L722.65 313.84 L719.51 320.17 L724.89 319.48 L730.28 318.92 L729.49 323.22 L730.37 326.19 L734.31 326.87 L733.88 330.77 L735.33 333.28 L739.89 333.63 L736.79 339.26 L740.45 340.27 L750.42 337.23 L749.10 341.61 L750.74 344.06 L756.38 344.09 L753.21 349.46 L753.30 352.82 L759.38 352.74 L751.95 360.27 L752.43 363.28 L766.56 359.06 L763.11 364.23 L762.70 367.76 L771.37 366.77 L767.14 372.15 L765.32 376.27 L772.69 376.13 L765.89 382.42 L763.38 386.66 L774.95 384.93 L774.25 388.43 L769.95 393.31 L775.86 394.15 L773.09 398.34 L768.01 403.27 L769.01 405.94 L767.29 409.53 L765.63 413.04 L775.34 412.90 L777.81 415.17 L780.48 417.41 L787.18 418.55 L786.51 421.82 L783.78 425.61 L787.01 427.82 L787.31 430.79 L782.80 434.87 L785.49 437.25 L791.11 439.06 L787.12 442.88 L790.26 445.27 L793.05 447.77 L787.64 451.70 L789.82 454.31 L793.99 456.66 L787.76 460.51 L790.52 463.09 L803.58 464.51 L800.85 467.88 L801.85 470.82 L804.58 473.63 L797.12 477.26 L794.02 480.46 L790.85 483.59 L782.99 486.87 L787.97 489.52 L797.84 492.14 L797.86 495.12 L802.95 498.07 L810.52 501.13 L804.52 504.15 L801.94 507.14 L808.25 510.37 L798.45 513.03 L795.91 515.88 L806.44 519.53 L802.42 522.31 L797.94 524.97 L803.36 528.49 L800.54 531.26 L797.84 533.99 L804.90 537.89 L798.18 540.09 L795.67 542.76 L806.94 547.53 L805.38 550.42 L802.99 553.14 L809.45 557.47 L803.50 559.51 L800.08 561.96 L804.52 566.06 L797.60 567.68 L790.80 569.20 L800.83 574.78 L801.63 578.19 L798.14 580.47 L801.72 584.68 L799.58 587.32 L794.53 589.06 L795.90 592.71 L792.65 594.92 L785.69 595.83 L790.07 600.53 L795.28 605.66 L789.38 606.82 L786.42 609.00 L787.03 612.53 L780.69 613.30 L772.49 613.17 L770.99 615.73 L767.63 617.48 L770.14 621.82 L776.90 628.21 L778.12 632.17 L782.42 637.69 L784.88 642.43 L778.33 642.66 L775.25 644.57 L778.89 650.06 L768.19 647.78 L765.89 650.00 L777.18 660.04 L771.09 660.16 L767.60 661.73 L773.21 668.87 L766.24 668.27 L761.97 669.26 L766.75 676.15 L756.57 673.14 L751.76 673.58 L761.17 683.95 L757.27 685.08 L752.78 685.72 L757.46 693.15 L749.59 691.17 L743.26 690.21 L740.82 692.22 L732.34 689.28 L728.65 690.11 L733.21 697.89 L734.45 703.00 L735.04 707.66 L739.14 715.58 L735.33 716.45 L730.44 716.24 L730.79 720.96 L725.98 720.73 L719.17 718.40 L721.89 725.57 L721.52 729.75 L716.93 729.54 L714.62 731.69 L713.77 735.45 L709.58 735.53 L707.56 738.01 L706.51 741.64 L700.95 739.95 L700.89 744.81 L703.48 753.09 L699.08 752.75 L697.08 755.43 L696.36 759.82 L690.79 757.78 L687.79 759.09 L687.21 763.81 L679.25 758.02 L676.65 759.78 L681.37 772.54 L676.10 770.45 L672.53 770.86 L673.59 778.62 L667.83 775.49 L663.47 774.48 L663.67 781.17 L656.60 775.31 L652.58 774.60 L655.59 786.74 L651.28 785.56 L645.69 781.79 L645.51 788.47 L640.37 785.34 L634.53 780.52 L632.00 782.46 L627.86 780.90 L624.09 780.00 L625.27 790.46 L622.67 792.46 L620.59 795.76 L620.18 803.38 L615.52 800.35 L611.21 798.02 L609.87 803.65 L605.52 801.01 L600.06 794.85 L599.57 803.32 L597.40 807.04 L592.93 803.46 L591.38 809.42 L588.78 812.05 L584.29 807.95 L582.16 812.42 L579.28 814.19 L574.71 809.07 L572.41 813.23 L571.67 824.82 L567.67 821.94 L564.72 823.97 L561.71 825.86 L557.11 818.96 L553.51 817.14 L549.67 813.42 L545.52 807.10 L543.05 811.89 L540.94 820.17 L537.80 821.16 L534.99 825.26 L532.39 832.29 L528.63 827.62 L525.31 827.33 L522.43 833.50 L518.56 824.36 L515.23 822.64 L512.46 835.13 L508.98 830.46 L505.60 826.08 L502.38 832.42 L499.07 829.94 L495.81 826.64 L492.37 834.14 L489.25 827.18 L486.04 825.75 L482.16 837.40 L478.91 835.20 L475.70 833.04 L471.70 840.84 L468.85 834.61 L465.81 831.34 L461.78 837.27 L459.44 828.58 L456.88 822.70 L451.96 834.05 L448.59 833.75 L445.69 830.57 L441.36 835.87 L438.52 832.52 L435.96 827.97 L431.98 830.76 L429.59 825.82 L427.68 819.16 L422.77 825.67 L418.69 828.22 L416.70 822.40 L413.65 820.94 L410.29 820.61 L408.58 814.55 L407.06 808.25 L404.18 806.67 L401.58 804.28 L397.25 807.14 L391.51 813.83 L387.00 816.58 L381.81 820.96 L377.81 821.85 L376.43 815.94 L373.52 814.09 L369.10 815.90 L369.79 805.55 L366.54 804.70 L357.54 816.61 L356.66 810.23 L353.98 807.90 L347.60 813.23 L347.44 805.74 L345.44 802.15 L339.25 806.64 L341.39 795.35 L339.34 792.11 L329.16 803.40 L328.20 798.09 L326.69 793.89 L319.37 799.41 L320.94 790.21 L321.15 783.48 L318.28 781.75 L320.77 771.88 L318.49 769.44 L310.13 775.85 L305.77 776.22 L300.61 777.63 L291.65 784.06 L292.05 777.65 L291.12 773.16 L285.19 775.17 L286.43 768.02 L288.10 760.53 L279.19 766.00 L276.46 763.87 L276.18 758.91 L272.39 758.04 L269.43 756.18 L268.75 751.83 L264.66 751.19 L262.24 748.74 L262.68 743.36 L256.14 745.11 L250.91 745.42 L251.30 740.18 L245.52 740.88 L243.33 738.14 L244.93 731.95 L239.70 731.99 L236.25 730.38 L241.05 721.66 L237.06 720.56 L225.75 725.41 L227.59 719.37 L225.36 716.68 L218.48 717.57 L220.90 711.28 L220.08 707.53 L215.50 706.55 L219.66 699.28 L218.57 695.85 L206.80 699.71 L208.55 694.29 L210.73 688.68 L205.41 687.98 L207.47 682.57 L212.64 675.38 L211.08 672.39 L211.43 668.29 L209.62 665.47 L201.48 666.18 L198.66 663.83 L193.52 662.67 L184.96 663.20 L185.96 658.72 L184.59 655.47 L181.76 652.93 L183.40 648.26 L186.67 642.93 L182.45 641.03 L180.10 638.27 L182.79 633.35 L175.22 632.73 L174.07 629.41 L177.20 624.44 L171.72 622.80 L170.59 619.48 L175.36 614.09 L167.95 612.98 L158.25 612.48 L160.36 608.03 L155.99 605.65 L156.13 601.85 L162.88 596.20 L163.01 592.53 L168.38 587.50 L173.26 582.72 L166.50 580.89 L157.79 579.39 L155.46 576.31 L149.26 574.01 L143.30 571.55 L147.68 567.02 L147.62 563.38 L143.76 560.40 L153.22 555.24 L153.01 551.72 L141.47 549.78 L145.64 545.59 L149.03 541.59 L142.95 538.70 L145.33 534.86 L147.27 531.11 L140.14 528.11 L146.88 524.04 L146.96 520.49 L134.20 517.56 L138.51 513.73 L144.12 509.95 L140.53 506.46 L145.09 502.83 L150.73 499.29 L149.47 495.78 L152.22 492.33 L155.19 488.95 L147.85 485.19 L143.85 481.45 L142.60 477.80 L138.82 473.94 L138.11 470.24 L140.22 466.79 L136.14 462.74 L142.50 459.78 L149.04 456.96 L138.80 452.03 L137.07 448.10 L142.89 445.28 L142.55 441.57 L144.23 438.18 L151.36 435.83 L156.99 433.31 L159.28 430.21 L161.67 427.17 L157.19 422.61 L153.53 418.13 L151.85 414.05 L147.64 409.26 L147.65 405.50 L154.63 403.66 L153.42 399.57 L153.29 395.77 L162.71 394.91 L162.40 391.10 L155.08 384.92 L160.51 382.94 L161.36 379.43 L156.34 373.76 L162.61 372.22 L164.46 369.07 L160.41 363.56 L167.78 362.65 L170.68 359.97 L157.83 350.45 L161.82 348.15 L165.10 345.58 L160.11 339.14 L169.67 339.60 L176.34 338.82 L178.54 335.89 L188.68 337.12 L189.16 333.39 L181.48 325.15 L182.26 321.42 L180.14 315.99 L172.58 307.26 L180.16 307.39 L184.61 305.75 L180.25 298.62 L190.19 300.53 L197.36 300.84 L190.00 291.52 L193.35 289.29 L198.56 288.40 L197.86 283.37 L200.62 280.78 L204.84 279.30 L204.23 274.20 L208.18 272.56 L213.54 272.10 L209.09 263.77 L210.60 260.15 L215.52 259.39 L213.45 252.68 L217.92 251.57 L223.73 251.74 L222.27 245.37 L225.83 243.54 L234.21 246.35 L232.97 240.01 L229.49 231.30 L235.29 231.76 L237.09 228.19 L237.01 222.61 L243.51 223.99 L247.16 222.40 L248.28 218.02 L256.97 222.21 L259.46 219.45 L253.53 206.65 L260.66 209.28 L265.98 209.87 L266.19 204.13 L272.49 206.10 L280.60 210.65 L283.60 208.60 L287.94 208.39 L290.18 205.33 L288.72 196.91 L291.35 194.20 L291.80 188.22 L291.79 181.34 L298.60 184.93 L303.21 185.24 L302.61 177.15 L309.99 182.11 L315.81 184.73 L313.96 174.14 L317.52 172.82 L322.89 174.85 L322.05 165.39 L326.48 165.69 L331.52 167.31 L332.61 161.08 L336.63 160.72 L342.93 165.28 L342.25 154.91 L343.02 147.30 L347.71 148.41 L349.36 142.47 L354.34 144.38 L360.70 149.97 L364.44 149.22 L370.58 154.88 L375.56 157.78 L376.75 150.20 L377.97 142.29 L380.70 138.50 L382.32 131.06 L385.34 127.71 L390.43 131.15 L393.77 128.86 L397.32 127.19 L403.43 135.15 L406.56 132.14 L408.18 122.78 L412.92 125.98 L417.34 128.18 L420.04 122.56 L424.39 124.59 L428.40 125.20 L431.10 118.70 L436.09 124.92 L439.69 123.33 L441.59 110.25 L446.06 113.78 L449.98 113.71 L453.09 106.86 L457.77 113.24 L461.90 115.46 L465.08 107.59 L469.87 118.20 L473.87 120.56 L476.81 105.87 L480.93 109.20 L484.96 112.07 L488.55 101.88 L492.65 108.44 L496.60 111.86 L500.49 104.86 L504.34 113.97 L508.08 119.49 L512.27 107.22 L516.20 107.37 L519.83 113.27 L523.92 109.89 L527.57 113.62 L530.84 121.25 L534.27 125.43 L537.75 128.38 L541.39 129.50 L546.29 120.04 L551.01 113.56 L555.55 109.30 L561.19 98.52 L566.25 92.72 L570.15 94.35 L573.98 96.30 L577.49 99.75 L580.80 103.94 L584.57 105.62 L588.57 106.24 L591.93 109.56 L596.23 108.86 L600.59 108.07 L604.66 108.52 L608.29 110.59 L612.47 110.68 L616.38 111.75 L620.00 113.77 L624.25 113.77 L628.01 115.30 L631.64 117.23 L635.73 117.81 L639.15 120.25 L642.61 122.55 L646.57 123.51 L649.82 126.24 L653.55 127.76 L657.38 129.04 L661.25 130.25 L665.15 131.41 L669.61 131.37 L673.28 133.12 L677.42 133.88 L681.67 134.47 L684.77 137.38 L688.85 138.34 L693.00 139.24 L696.13 142.04 L700.07 143.36 L703.91 144.88 L706.96 147.77 L710.98 149.02 L714.32 151.41 L717.68 153.76 L721.97 154.63 L725.34 156.99 L728.54 159.59 L732.71 160.75 L735.62 163.77 L738.91 166.22 L742.89 167.73 L745.42 171.23 L748.96 173.35 L753.18 174.61 L755.72 178.04 L759.24 180.23 L763.29 181.79 L765.74 185.30 L768.68 188.19 L771.86 190.81 L774.65 193.86 L777.77 196.55 L781.36 198.74 L784.14 201.79 L788.11 203.61 L791.79 205.78 L793.93 209.49 L797.63 211.66 L800.32 214.81 L802.62 218.33 L806.36 220.51 L808.72 223.97 L811.08 227.40 L814.97 229.52 L816.84 233.37 L819.49 236.55 L823.40 238.72 L825.01 242.74 L827.49 246.06 L831.05 248.57 L832.83 252.42 L835.47 255.64 L838.70 258.43 L840.57 262.20 L843.49 265.23 L846.74 268.06 L848.22 272.08 L851.17 275.13 L854.17 278.17 L855.36 282.34 L858.51 285.31 L860.94 288.73 L862.23 292.82 L865.43 295.81 L867.09 299.67 L868.32 303.75 L870.52 307.31 L872.67 310.90 L873.94 314.94 L876.90 318.14 L878.61 321.96 L881.24 325.36 L883.98 328.73 L884.74 332.98 L886.69 336.71 L889.25 340.20 L890.11 344.38 L891.59 348.32 L894.26 351.80 L894.80 356.09 L897.20 359.69 L899.05 363.51 L899.52 367.80 L901.90 371.46 L903.67 375.33 L903.70 379.73 L905.80 383.50 L907.11 387.52 L907.53 391.78 L909.76 395.56 L910.07 399.84 L910.92 403.98 L913.57 407.71 L913.82 411.99 L914.42 416.19 L916.67 420.06 L916.63 424.38 L916.89 428.63 L918.39 432.67 L918.52 436.94 L919.29 441.10 L921.09 445.14 L920.45 449.49 L920.33 453.77 L922.69 457.78 L922.47 462.06 L923.56 466.23 L925.00 470.39 L925.75 474.61 L926.97 478.82 L927.92 483.06 L927.21 487.37 L928.22 491.62 L928.76 495.90 L954.34 500.00 L954.60 495.45 L954.14 490.92 L954.95 486.35 L953.50 481.85 L953.59 477.30 L953.97 472.73 L953.56 468.20 L953.99 463.60 L953.97 459.03 L952.43 454.61 L953.05 449.96 L952.21 445.47 L950.13 441.15 L949.85 436.61 L949.29 432.10 L947.49 427.78 L947.83 423.13 L946.79 418.70 L943.96 414.62 L944.52 409.89 L943.18 405.54 L940.59 401.48 L940.79 396.79 L939.28 392.50 L937.35 388.33 L937.43 383.63 L935.32 379.52 L933.28 375.41 L932.80 370.85 L930.04 366.97 L928.54 362.73 L927.50 358.33 L924.98 354.43 L923.75 350.10 L922.72 345.69 L920.09 341.88 L919.06 337.46 L917.74 333.15 L914.78 329.50 L913.71 325.09 L911.70 321.06 L908.96 317.37 L907.70 313.02 L906.68 308.54 L903.84 304.92 L902.99 300.34 L900.13 296.75 L897.44 293.09 L895.46 289.07 L892.09 285.80 L888.95 282.44 L887.83 277.94 L884.80 274.54 L882.27 270.86 L880.68 266.60 L877.45 263.36 L874.95 259.67 L873.06 255.59 L869.48 252.61 L867.58 248.53 L865.40 244.61 L862.11 241.48 L859.77 237.69 L857.26 234.01 L853.61 231.18 L851.32 227.34 L848.37 224.00 L844.46 221.45 L842.49 217.33 L839.46 214.07 L835.37 211.74 L833.37 207.61 L829.80 204.85 L825.97 202.36 L823.64 198.50 L819.96 195.89 L816.38 193.21 L814.06 189.31 L810.03 187.10 L807.05 183.85 L804.58 180.05 L800.87 177.55 L797.87 174.30 L794.56 171.37 L790.70 169.08 L786.96 166.68 L783.71 163.71 L779.27 162.18 L776.22 158.98 L773.07 155.89 L769.04 153.91 L766.30 150.27 L762.82 147.59 L758.30 146.33 L755.25 143.07 L751.26 141.11 L746.76 139.93 L743.79 136.51 L739.87 134.51 L735.68 132.94 L732.78 129.37 L728.53 127.92 L724.34 126.41 L721.10 123.33 L716.52 122.54 L713.00 119.92 L709.49 117.26 L705.00 116.40 L701.58 113.55 L697.88 111.22 L693.31 110.61 L689.72 108.05 L686.29 105.12 L682.06 103.86 L678.51 101.13 L674.57 99.22 L670.57 97.45 L666.39 96.13 L662.27 94.68 L657.72 94.33 L653.79 92.40 L649.34 91.90 L644.64 92.13 L640.74 90.17 L636.32 89.73 L631.87 89.46 L628.07 87.16 L623.66 86.80 L619.37 86.14 L615.47 84.06 L611.00 84.09 L606.85 82.93 L603.14 79.98 L599.26 77.58 L594.30 79.86 L590.12 78.81 L585.73 78.82 L580.68 82.27 L575.92 84.68 L571.48 85.59 L567.12 86.16 L564.07 78.37 L561.52 65.97 L557.60 62.10 L554.17 53.76 L550.80 43.33 L545.97 45.43 L541.11 48.45 L536.29 51.81 L531.22 59.72 L526.62 62.62 L522.47 58.07 L517.77 64.74 L513.41 64.71 L509.35 50.33 L504.78 57.49 L500.34 67.93 L495.96 60.64 L491.65 65.43 L487.54 73.34 L482.82 62.05 L478.64 66.26 L474.56 70.73 L469.13 54.65 L464.99 58.93 L461.75 72.35 L456.63 64.24 L452.69 68.47 L449.33 76.96 L444.16 70.25 L439.99 71.70 L436.47 77.39 L429.97 63.85 L425.55 64.19 L422.82 73.96 L417.42 68.76 L413.53 71.67 L410.12 76.64 L404.73 72.38 L401.19 76.46 L398.29 82.94 L391.54 73.80 L386.71 72.78 L385.52 85.06 L381.14 85.43 L376.77 85.86 L374.44 92.96 L369.61 91.82 L363.44 86.81 L358.85 86.84 L352.29 81.38 L345.86 76.68 L343.73 83.83 L342.43 92.78 L338.78 95.42 L337.87 104.68 L335.15 109.23 L328.96 105.60 L326.75 111.21 L320.01 106.72 L311.76 99.33 L311.27 108.51 L308.66 113.02 L302.30 110.02 L300.65 116.34 L298.00 120.57 L290.14 115.13 L288.80 121.71 L285.31 124.34 L275.65 116.40 L275.25 124.38 L276.22 134.35 L268.25 129.70 L266.86 135.63 L267.59 144.65 L260.33 141.43 L254.66 140.78 L251.17 143.37 L242.69 138.97 L238.90 141.30 L237.44 146.76 L234.04 149.57 L236.11 159.42 L236.70 167.11 L229.84 165.37 L229.40 171.60 L231.10 180.23 L217.72 171.06 L214.42 173.87 L218.64 185.10 L213.63 185.87 L211.57 189.89 L213.22 197.79 L207.10 197.46 L203.06 199.36 L204.35 206.59 L194.03 202.37 L187.01 201.56 L191.74 211.90 L189.70 215.76 L183.31 215.68 L184.98 222.81 L183.91 227.43 L176.74 226.84 L177.52 232.98 L173.09 234.78 L162.91 232.07 L164.98 239.14 L165.21 244.65 L159.45 245.60 L160.11 251.35 L158.97 255.71 L152.99 256.64 L154.47 262.80 L153.22 267.01 L140.12 263.40 L144.18 271.13 L150.67 280.21 L141.94 279.69 L143.47 285.51 L147.92 292.96 L135.98 290.81 L130.51 292.55 L127.81 295.90 L115.06 293.89 L114.00 298.26 L121.59 307.02 L119.57 310.76 L124.06 317.66 L130.69 325.42 L120.88 325.40 L121.36 330.19 L122.89 335.38 L106.24 332.78 L106.83 337.65 L112.77 344.62 L105.65 346.32 L105.26 350.70 L109.47 356.74 L101.81 358.43 L100.66 362.51 L104.05 368.08 L93.94 369.22 L90.36 372.57 L99.24 379.71 L96.47 383.27 L93.71 386.86 L100.04 392.92 L97.50 396.54 L91.99 399.46 L89.81 403.27 L83.54 406.17 L77.39 409.22 L79.68 414.10 L81.22 418.77 L85.41 423.87 L91.93 429.28 L92.21 433.52 L89.77 437.33 L95.83 442.39 L92.80 446.10 L80.19 448.70 L87.47 453.77 L94.20 458.63 L88.69 462.22 L91.01 466.55 L90.85 470.66 L85.67 474.45 L84.90 478.56 L81.03 482.56 L72.34 486.48 L76.49 490.85 L80.57 495.14 L79.23 499.33 L85.63 503.48 L91.19 507.53 L86.92 511.74 L93.56 515.62 L98.50 519.45 L84.48 524.30 L86.03 528.36 L95.19 531.81 L88.48 536.48 L92.02 540.28 L96.73 543.89 L91.02 548.65 L95.37 552.24 L102.12 555.42 L89.55 561.36 L90.91 565.35 L103.62 567.39 L100.53 572.04 L102.20 575.85 L109.68 578.48 L105.13 583.51 L100.69 588.63 L101.13 592.72 L93.39 598.82 L89.21 604.20 L97.49 606.39 L104.19 608.87 L107.63 612.15 L117.16 613.58 L118.72 617.28 L116.23 622.26 L121.78 624.67 L113.86 631.58 L108.80 637.68 L117.57 638.91 L120.32 642.22 L117.17 647.78 L123.88 649.53 L125.92 653.07 L121.09 659.49 L127.60 661.15 L128.08 665.38 L127.68 670.04 L134.75 671.24 L139.98 673.20 L141.12 677.10 L143.39 680.43 L147.69 682.70 L141.59 690.44 L141.34 695.20 L142.80 699.06 L137.23 706.94 L140.21 710.04 L145.31 711.85 L147.38 715.42 L157.16 714.19 L163.55 714.90 L160.92 721.38 L167.70 721.73 L174.37 722.02 L165.79 732.80 L169.81 734.94 L180.50 732.17 L179.85 737.57 L184.36 739.16 L192.20 738.10 L189.24 745.40 L191.83 748.39 L199.50 747.21 L191.47 759.03 L192.43 763.51 L203.77 758.98 L205.08 763.08 L205.21 768.31 L213.01 766.50 L215.51 769.53 L214.92 775.56 L221.37 774.76 L220.64 781.04 L218.75 788.66 L226.07 786.83 L229.58 788.89 L230.89 793.31 L236.53 792.99 L239.47 795.62 L240.88 800.02 L246.88 799.06 L249.54 801.99 L245.39 813.32 L254.13 808.82 L261.80 805.41 L261.22 812.55 L267.09 811.26 L273.45 809.16 L270.53 819.80 L271.79 824.86 L273.71 829.07 L270.91 840.39 L275.81 840.41 L284.98 833.71 L288.33 835.84 L295.13 832.37 L303.16 826.60 L301.19 837.47 L306.54 836.02 L312.40 833.52 L307.60 850.20 L312.59 849.34 L322.10 839.74 L322.02 848.32 L326.94 847.22 L333.90 841.76 L333.68 851.11 L337.81 851.43 L344.20 846.65 L340.95 863.56 L344.67 864.95 L352.95 855.33 L354.99 860.56 L359.11 860.68 L365.04 855.96 L367.46 860.42 L369.31 866.67 L372.18 870.30 L372.97 880.28 L375.51 885.45 L380.31 883.67 L384.62 883.31 L390.00 879.13 L395.38 874.55 L399.03 875.95 L402.76 877.06 L408.03 871.97 L410.80 876.90 L412.75 885.85 L418.38 878.49 L423.12 874.65 L426.18 878.93 L430.92 874.57 L435.25 871.87 L437.87 879.21 L442.27 875.88 L446.00 876.67 L447.97 890.69 L452.80 883.76 L457.68 875.00 L460.76 881.86 L464.96 878.20 L469.31 871.67 L472.38 880.82 L476.38 878.07 L480.27 876.22 L483.47 889.71 L487.45 887.35 L491.52 878.82 L495.21 886.90 L499.09 882.55 L502.88 878.77 L506.80 886.06 L510.51 880.69 L514.11 875.11 L518.54 889.13 L522.28 886.35 L525.35 874.37 L529.62 880.87 L533.35 879.70 L536.54 873.17 L540.99 879.43 L545.22 882.67 L548.98 881.71 L553.99 889.83 L558.36 892.46 L560.96 883.58 L564.26 879.80 L567.30 874.90 L569.52 866.20 L573.65 867.83 L577.61 868.45 L580.29 863.11 L586.57 873.77 L591.13 876.30 L593.00 867.89 L596.76 867.27 L601.38 869.76 L603.41 862.87 L607.53 863.49 L612.61 867.16 L614.58 860.65 L619.07 862.22 L625.73 869.95 L626.45 860.20 L628.33 854.19 L633.92 858.39 L635.56 851.99 L637.20 845.90 L643.45 851.37 L647.37 850.91 L651.21 850.18 L659.07 858.49 L661.06 853.42 L662.73 847.82 L666.54 846.87 L666.58 838.26 L667.36 831.42 L674.02 836.21 L674.20 828.49 L675.54 823.16 L685.63 833.73 L687.13 828.65 L685.29 817.97 L691.79 821.69 L693.05 816.56 L692.77 809.11 L699.96 813.61 L701.92 809.81 L701.61 802.67 L713.12 813.11 L715.68 810.16 L712.14 798.66 L717.47 799.77 L719.64 796.48 L718.64 789.04 L723.96 790.00 L727.04 787.98 L727.29 782.45 L736.09 787.45 L741.62 788.26 L739.82 780.37 L743.70 779.19 L746.81 777.12 L746.80 771.59 L750.72 770.42 L753.71 768.21 L753.34 762.52 L758.58 762.64 L766.71 765.53 L763.28 756.93 L762.91 751.48 L768.31 751.56 L767.37 745.70 L767.41 740.85 L776.26 743.86 L780.60 742.74 L785.70 742.21 L795.27 745.28 L794.43 739.65 L789.71 731.03 L791.56 727.77 L788.97 721.13 L785.20 713.76 L794.64 716.26 L793.45 710.91 L793.00 706.18 L807.62 711.90 L805.59 706.02 L797.52 696.28 L806.78 698.02 L805.20 692.70 L800.57 685.60 L811.06 687.81 L810.11 683.03 L806.96 677.06 L823.18 682.13 L823.16 677.88 L813.81 668.67 L821.19 668.52 L820.52 664.10 L815.57 657.60 L822.19 656.90 L828.68 656.02 L831.31 653.22 L842.00 654.04 L846.84 652.06 L844.72 647.04 L845.11 643.15 L839.17 636.73 L834.92 631.13 L838.35 628.59 L838.23 624.68 L833.24 619.07 L841.72 618.27 L848.89 616.85 L842.06 610.77 L839.94 606.34 L843.32 603.64 L838.93 598.63 L838.48 594.84 L844.56 592.84 L841.61 588.39 L844.16 585.39 L857.28 584.85 L849.97 579.43 L843.21 574.30 L849.84 572.08 L846.19 567.72 L841.31 563.23 L849.25 561.10 L847.23 557.17 L846.86 553.55 L860.18 551.93 L856.99 547.83 L849.85 543.32 L857.74 540.66 L854.58 536.72 L851.38 532.84 L858.12 529.86 L853.56 525.92 L849.35 522.10 L862.25 519.28 L858.74 515.50 L847.39 511.53 L854.70 508.23 L851.50 504.63 L844.15 501.10 L852.41 497.60 L856.74 494.00 L855.58 490.46 L866.49 486.50 L869.69 482.68 L860.23 479.51 L857.78 476.06 L852.51 472.87 L843.48 470.11 L847.26 466.27 L847.24 462.77 L842.66 459.79 L855.96 454.61 L857.49 450.78 L848.84 448.41 L851.46 444.43 L852.41 440.66 L844.94 438.37 L846.87 434.44 L848.81 430.45 L842.59 428.12 L847.46 423.46 L850.50 419.11 L842.21 417.41 L839.66 414.42 L842.43 410.07 L836.24 408.09 L833.06 405.37 L838.74 400.09 L838.17 396.57 L839.23 392.53 L847.09 386.20 L842.03 384.06 L837.08 381.97 L835.94 378.58 L828.37 377.59 L823.01 375.90 L827.37 370.45 L819.75 369.75 L816.11 367.54 L826.71 359.24 L820.17 358.24 L809.34 359.32 L814.79 353.03 L809.05 351.93 L801.07 352.03 L808.34 344.61 L803.87 343.03 L796.91 342.85 L809.69 332.09 L806.28 329.96 L793.71 333.07 L797.29 327.08 L793.40 325.39 L785.61 326.14 L788.55 320.37 L786.63 317.56 L780.78 317.32 L788.83 307.94 L788.93 303.68 L780.37 305.37 L781.23 300.57 L778.65 298.19 L773.45 297.75 L773.53 293.43 L770.57 291.38 L764.98 291.44 L767.28 285.26 L769.45 279.05 L760.51 281.99 L756.48 280.97 L756.35 276.60 L750.48 277.27 L748.01 274.99 L750.82 267.82 L750.28 263.63 L751.62 257.56 L754.51 249.82 L748.72 250.58 L740.33 254.12 L737.27 252.35 L730.06 255.01 L723.80 256.85 L726.57 248.85 L721.27 249.74 L718.17 248.21 L725.02 235.00 L718.18 237.78 L709.00 243.64 L711.20 235.58 L705.75 237.07 L698.78 240.67 L694.62 240.76 L691.31 239.80 L687.54 239.51 L684.63 238.06 L681.48 236.99 L679.12 234.76 L676.53 232.89 L674.24 230.53 L671.98 228.10 L672.39 221.32 L672.63 214.60 L670.81 211.12 L670.90 204.26 L669.44 199.89 L666.00 199.00 L661.51 200.08 L656.43 202.42 L652.02 203.65 L647.02 206.21 L641.68 209.65 L637.99 209.90 L634.11 210.63 L630.46 210.96 L627.64 209.49 L624.20 209.46 L621.20 208.46 L620.32 202.20 L619.16 196.37 L615.94 195.67 L615.21 188.24 L613.50 183.15 L610.61 181.21 L607.32 180.42 L604.30 178.82 L599.45 183.00 L594.77 186.96 L591.23 187.41 L586.52 192.17 L582.27 195.60 L579.37 194.25 L576.27 193.63 L573.79 190.39 L570.93 188.63 L567.63 188.79 L564.70 187.25 L562.00 184.39 L558.26 186.94 L554.71 188.70 L551.46 189.00 L547.78 192.17 L544.69 191.78 L541.39 192.91 L538.16 193.81 L535.35 191.20 L532.16 191.82 L529.86 183.19 L527.27 176.03 L524.12 174.59 L521.30 167.52 L518.14 164.25 L514.51 170.24 L511.04 175.27 L507.67 180.38 L504.37 187.76 L501.23 190.27 L498.15 191.82 L495.03 189.87 L491.76 183.46 L488.53 181.78 L485.35 181.95 L481.91 177.35 L478.64 176.98 L475.74 181.44 L472.37 179.55 L469.27 180.91 L466.30 183.34 L462.96 182.20 L459.98 184.14 L457.20 187.28 L453.84 186.14 L450.52 185.42 L448.02 189.79 L444.35 187.11 L439.75 179.86 L436.29 179.16 L432.35 176.27 L428.56 174.46 L424.12 170.02 L421.69 174.39 L420.43 183.10 L417.49 184.78 L414.96 187.90 L411.81 188.64 L411.69 199.72 L407.84 197.82 L404.68 198.30 L401.02 197.30 L399.01 201.29 L398.41 209.14 L393.12 203.53 L390.72 206.14 L385.69 201.76 L385.81 210.77 L382.88 211.82 L378.33 208.99 L375.66 210.76 L372.94 212.42 L373.49 221.22 L368.40 217.55 L366.06 219.88 L361.13 216.88 L361.11 223.86 L360.20 228.85 L353.83 223.30 L351.73 226.00 L347.61 225.01 L347.34 230.89 L344.09 231.46 L339.68 230.12 L334.42 227.50 L335.50 235.29 L336.30 242.35 L329.79 237.94 L329.49 243.14 L324.74 241.63 L326.97 250.32 L325.19 253.06 L319.91 250.92 L315.95 250.73 L311.86 250.46 L308.89 251.73 L301.82 247.80 L297.04 246.97 L292.26 246.24 L295.75 255.54 L298.92 264.17 L297.56 267.32 L299.05 273.65 L293.14 271.63 L296.29 279.58 L293.02 280.49 L287.04 278.63 L282.13 278.00 L283.03 283.30 L286.46 290.95 L278.04 287.01 L276.23 289.53 L272.23 290.02 L277.37 298.84 L273.70 299.60 L269.62 300.06 L267.30 302.09 L266.05 305.02 L270.02 312.20 L263.37 310.68 L263.56 314.68 L257.52 313.83 L254.31 315.24 L250.47 316.23 L241.30 313.44 L236.98 314.29 L233.51 315.81 L237.53 322.44 L240.96 328.51 L242.09 332.95 L235.93 332.68 L242.98 340.73 L248.39 347.54 L238.85 345.31 L240.30 349.65 L235.96 350.64 L241.40 357.12 L240.06 359.75 L229.78 357.67 L224.99 358.65 L228.71 363.97 L223.46 364.78 L214.53 363.93 L215.09 367.68 L212.51 369.96 L213.18 373.71 L218.37 379.34 L219.67 383.20 L217.39 385.55 L219.51 389.66 L226.87 395.70 L221.09 396.68 L220.29 399.55 L213.50 400.33 L216.63 404.59 L220.19 408.89 L212.19 409.46 L210.51 412.11 L209.00 414.81 L215.44 419.78 L214.69 422.64 L214.25 425.58 L210.80 427.76 L214.38 431.68 L221.97 436.43 L211.93 437.16 L214.10 440.62 L206.59 442.12 L205.61 444.98 L201.79 447.34 L193.74 449.07 L190.56 451.72 L193.76 455.35 L202.12 459.61 L204.60 462.95 L209.99 466.57 L204.85 468.96 L208.86 472.32 L213.11 475.62 L197.82 477.36 L199.66 480.52 L197.83 483.43 L199.36 486.53 L198.89 489.52 L198.96 492.54 L194.90 495.49 L199.56 498.56 L205.43 501.54 L197.55 504.60 L202.21 507.51 L201.70 510.51 L205.33 513.33 L205.66 516.27 L205.91 519.21 L205.18 522.22 L202.78 525.39 L201.64 528.50 L197.41 531.96 L195.67 535.22 L190.28 538.99 L195.60 541.41 L203.81 543.32 L205.15 546.14 L206.27 548.98 L208.71 551.57 L219.24 552.61 L214.91 556.37 L217.19 558.87 L214.16 562.49 L218.69 564.45 L225.83 565.71 L219.68 570.15 L220.42 572.94 L218.47 576.47 L226.52 577.23 L225.52 580.48 L224.12 583.90 L223.49 587.12 L226.62 589.15 L235.03 589.35 L229.18 594.34 L232.01 596.37 L228.20 600.83 L236.32 600.83 L238.66 602.94 L235.04 607.44 L235.94 610.16 L236.05 613.22 L241.29 614.05 L240.26 617.63 L240.32 620.74 L236.51 625.73 L244.70 624.97 L251.72 624.63 L246.23 630.58 L250.21 631.71 L248.75 635.70 L256.73 634.55 L256.61 637.82 L255.55 641.66 L254.97 645.29 L254.29 649.04 L255.39 651.73 L250.17 658.46 L250.13 662.00 L249.81 665.79 L258.83 663.30 L266.55 661.51 L270.38 662.28 L274.27 662.93 L273.50 666.97 L281.27 664.64 L279.92 669.12 L279.81 672.74 L277.14 678.47 L283.37 677.06 L290.60 674.67 L285.33 682.74 L286.42 685.53 L288.24 687.69 L296.89 683.69 L295.50 688.70 L297.31 690.81 L297.88 694.12 L301.67 694.34 L308.93 691.00 L305.80 698.05 L310.27 697.41 L307.82 703.99 L309.19 706.65 L309.11 710.92 L306.09 718.62 L305.79 723.42 L307.58 725.88 L314.80 721.87 L319.85 720.26 L324.42 719.10 L323.43 724.91 L332.46 717.85 L337.39 715.88 L335.87 722.49 L339.23 722.56 L340.66 725.30 L347.11 720.83 L348.21 724.00 L345.78 732.55 L345.83 737.60 L351.47 734.00 L351.52 739.17 L349.70 747.60 L353.42 747.00 L355.34 749.42 L358.90 748.98 L364.13 745.45 L367.63 744.87 L368.84 748.54 L373.68 745.28 L380.35 738.15 L379.33 746.28 L383.48 743.97 L383.28 750.80 L387.57 748.04 L391.37 746.18 L391.45 752.80 L393.05 756.12 L396.18 755.78 L401.33 750.24 L403.06 753.26 L406.33 752.22 L407.41 757.17 L411.68 753.24 L416.43 747.54 L416.11 756.94 L419.27 755.90 L420.20 762.06 L422.65 763.46 L424.21 768.02 L425.45 774.08 L427.58 777.15 L431.49 773.33 L436.16 765.97 L439.23 764.82 L443.37 758.59 L444.64 765.48 L448.46 760.16 L451.54 758.13 L451.71 772.23 L454.73 770.90 L457.30 772.27 L460.24 771.20 L462.77 772.94 L465.64 772.19 L467.77 777.59 L471.25 771.27 L474.35 767.53 L476.45 774.55 L479.52 770.44 L482.24 770.45 L485.09 767.95 L487.73 769.01 L490.49 767.13 L493.12 768.97 L495.77 771.63 L498.48 772.82 L501.23 779.03 L504.09 783.44 L506.86 780.63 L509.56 777.63 L512.13 772.75 L514.47 765.64 L517.28 767.85 L519.88 766.65 L521.85 758.23 L525.02 764.17 L527.27 760.20 L530.47 765.12 L532.41 759.11 L534.22 753.01 L537.65 758.86 L540.47 759.99 L543.17 760.21 L544.50 752.52 L547.86 756.54 L550.41 756.00 L553.57 758.40 L555.34 754.12 L556.22 746.29 L560.67 754.03 L562.55 750.77 L566.12 754.23 L566.67 746.23 L569.18 745.74 L572.58 748.27 L575.54 749.10 L577.95 748.10 L578.97 742.83 L582.68 745.84 L585.55 746.20 L589.90 750.60 L589.25 741.20 L590.32 736.76 L594.48 740.43 L596.31 738.06 L599.13 738.15 L598.58 730.31 L602.33 732.61 L605.11 732.60 L609.18 735.31 L612.18 735.57 L614.39 734.16 L620.56 740.64 L624.08 741.62 L626.73 740.82 L624.85 731.59 L624.12 724.83 L624.74 720.71 L626.47 718.64 L629.24 718.36 L627.48 710.55 L632.80 714.46 L635.19 713.52 L640.92 717.73 L638.98 710.10 L638.20 704.44 L644.66 709.45 L647.93 709.68 L649.08 706.88 L645.91 698.27 L651.45 701.55 L652.47 698.73 L656.69 700.06 L656.00 695.13 L653.13 687.65 L660.33 692.52 L659.32 687.46 L657.58 681.70 L657.77 678.29 L659.95 677.14 L662.99 676.93 L665.52 676.11 L666.23 673.35 L668.19 671.93 L670.33 670.66 L670.89 667.83 L672.91 666.45 L674.94 665.07 L676.26 663.01 L678.24 661.57 L680.21 660.10 L680.95 657.55 L683.16 656.28 L684.30 654.09 L684.19 650.90 L686.23 649.48 L687.50 647.44 L687.86 644.71 L690.33 643.60 L691.32 641.37 L691.98 638.91 L694.20 637.58 L695.01 635.25 L695.81 632.92 L697.93 631.49 L698.19 628.82 L699.44 626.81 L701.18 625.11 L701.19 622.35 L702.68 620.49 L704.39 618.76 L704.32 616.00 L705.62 614.04 L707.14 612.19 L707.06 609.48 L708.56 607.62 L709.54 605.48 L709.54 602.87 L711.47 601.21 L712.35 599.03 L712.06 596.32 L713.95 594.61 L714.48 592.30 L714.15 589.62 L715.99 587.87 L717.50 585.96 L717.85 583.59 L719.71 581.79 L719.73 579.30 L720.14 576.97 L721.09 574.83 L719.67 571.91 L720.17 569.65 L721.53 567.65 L720.75 565.00 L721.79 562.91 L722.88 560.81 L722.00 558.19 L723.23 556.14 L724.09 553.98 L723.15 551.39 L721.78 548.75 L720.96 546.26 L718.97 543.56 L716.92 540.90 L715.50 538.41 L715.24 536.14 L716.21 534.09 L717.81 532.11 L719.86 530.17 L731.17 529.37 L738.64 527.90 L742.22 525.86 L752.35 524.40 L756.46 522.21 L753.20 519.37 L751.62 516.72 L744.16 513.78 L738.54 511.07 L741.32 508.78 L739.91 506.33 L733.15 503.82 L740.47 501.53 L746.65 499.10 L738.15 496.75 L733.89 494.47 L736.72 492.04 L731.00 489.92 L729.14 487.70 L734.78 485.04 L730.42 483.00 L731.96 480.56 L744.03 477.08 L735.83 475.47 L727.74 474.01 L733.78 470.95 L729.49 469.15 L723.80 467.63 L730.77 464.27 L728.02 462.35 L726.61 460.25 L738.81 455.65 L734.48 454.02 L726.49 453.23 L733.10 449.43 L729.05 447.91 L721.81 447.21 L730.04 442.82 L724.70 441.76 L717.83 441.21 L731.09 435.14 L728.02 433.53 L715.89 434.72 L722.09 430.42 L718.71 429.06 L711.04 429.21 L718.90 424.13 L722.65 420.33 L720.41 418.64 L729.76 412.57 L731.92 409.08 L722.14 410.34 L718.70 409.17 L713.29 408.91 L704.15 410.39 L706.78 406.76 L706.61 404.34 L701.76 404.12 L711.97 396.66 L713.24 393.39 L705.56 394.64 L705.90 391.86 L707.03 388.60 L701.05 389.22 L702.45 385.79 L704.47 381.94 L698.79 382.55 L701.04 378.50 L706.03 372.65 L697.13 375.41 L692.64 375.54 L695.89 370.64 L689.76 371.95 L685.56 372.06 L689.66 366.42 L690.42 363.01 L690.99 359.68 L695.37 353.43 L692.14 352.83 L687.31 353.53 L684.42 352.80 L677.07 355.74 L671.31 357.56 L675.32 351.24 L668.58 354.04 L664.84 354.36 L673.93 343.20 L668.53 344.99 L658.87 350.92 L662.78 344.15 L658.00 345.67 L651.04 349.49 L656.44 340.96 L652.90 341.42 L647.32 344.11 L656.21 331.36 L653.58 330.84 L644.04 338.13 L645.86 332.75 L642.88 332.81 L636.90 336.53 L638.89 330.74 L637.26 329.28 L632.54 331.73 L637.72 321.51 L637.63 317.88 L631.05 322.95 L631.04 319.21 L629.09 318.09 L625.10 319.93 L624.82 316.44 L622.38 316.10 L617.98 318.81 L618.79 313.51 L620.02 307.35 L613.23 314.13 L609.78 315.68 L609.72 311.52 L605.38 314.74 L603.33 314.04 L605.23 306.08 L604.45 302.83 L604.90 297.10 L606.28 289.31 L602.09 292.48 L595.96 299.91 L593.68 299.54 L588.66 305.23 L584.45 309.45 L585.65 301.41 L581.72 305.17 L581.24 300.75 L581.85 293.37 L577.42 298.69 L574.53 300.28 L574.64 293.72 L572.90 292.04 L569.55 295.05 L568.67 290.81 L565.95 292.09 L562.99 294.31 L560.62 294.75 L557.79 296.86 L555.01 299.02 L553.21 297.68 L551.44 296.14 L549.06 297.02 L548.55 289.97 L547.34 285.46 L545.56 283.25 L544.90 275.25 L542.75 274.27 L539.82 277.62 L537.50 277.76 L533.95 285.75 L531.00 290.90 L529.46 286.57 L526.95 289.19 L524.04 295.75 L523.15 284.80 L521.29 281.61 L518.27 290.92 L516.09 291.92 L514.07 290.91 L511.89 292.29 L509.94 289.49 L507.89 287.81 L505.84 284.94 L503.78 279.57 L501.61 275.09 L499.38 279.48 L497.18 280.28 L495.05 283.21 L493.04 288.23 L491.01 290.24 L488.92 290.55 L487.18 296.19 L485.09 295.63 L482.10 284.41 L480.38 289.30 L478.92 295.68 L476.23 290.22 L474.52 293.63 L472.87 296.97 L469.98 291.28 L468.65 296.47 L467.24 300.58 L463.07 288.45 L461.92 294.07 L462.09 305.87 L458.44 297.90 L457.16 301.78 L456.86 309.63 L452.41 299.30 L449.53 296.28 L447.68 297.51 L442.76 287.25 L440.25 286.47 L440.97 296.88 L439.27 298.58 L439.11 305.11 L439.98 314.45 L436.05 308.85 L434.42 310.31 L433.94 314.92 L427.22 302.36 L425.12 302.75 L425.85 310.43 L422.55 307.67 L420.47 308.08 L420.71 313.94 L416.98 310.45 L414.36 309.68 L414.53 315.02 L410.12 310.47 L406.14 307.09 L408.34 316.31 L407.16 318.51 L403.57 316.06 L404.91 322.94 L403.96 325.38 L399.03 320.68 L396.37 320.18 L393.09 318.71 L388.03 314.40 L387.34 317.42 L387.41 321.55 L387.32 325.30 L389.59 332.51 L389.78 336.39 L385.43 333.55 L387.58 340.11 L386.29 341.68 L376.90 332.16 L379.27 338.81 L384.02 348.34 L378.32 344.13 L379.50 348.78 L382.67 355.75 L374.28 348.55 L375.15 352.63 L376.56 357.21 L365.14 347.11 L365.85 350.95 L372.24 360.87 L365.82 356.78 L366.68 360.52 L370.15 366.84 L363.83 363.13 L362.97 365.00 L365.35 369.97 L354.47 362.24 L352.74 363.37 L357.79 370.68 L352.59 368.62 L352.51 371.17 L354.05 375.06 L349.59 373.83 L350.38 377.02 L353.06 381.67 L345.33 377.97 L341.98 377.87 L349.00 385.69 L347.83 387.18 L345.59 387.90 L348.73 392.47 L345.55 392.52 L339.22 390.49 L336.79 391.20 L330.19 389.24 L324.05 387.73 L327.53 392.36 L333.71 398.51 L333.23 400.49 L338.91 406.05 L341.23 409.52 L335.11 408.21 L337.70 411.76 L335.62 412.75 L323.49 408.56 L329.11 413.63 L335.72 419.02 L329.16 417.90 L331.97 421.31 L336.39 425.37 L327.10 423.21 L329.98 426.52 L331.12 429.00 L317.37 425.36 L321.41 429.09 L330.68 434.73 L322.89 433.75 L325.77 436.80 L331.73 440.86 L323.82 440.05 L318.91 440.40 L317.21 441.86 L307.22 440.80 L305.97 442.53 L308.67 445.40 L308.09 447.31 L316.35 451.55 L321.26 454.75 L315.46 455.24 L319.33 458.09 L325.70 461.39 L312.32 460.40 L311.61 462.21 L321.01 465.96 L319.23 467.48 L319.84 469.45 L325.36 472.18 L321.76 473.43 L319.99 475.01 L324.70 477.44 L316.75 478.28 L310.82 479.50 L319.43 482.25 L321.11 484.22 L318.74 485.84 L323.01 487.95 L323.93 489.78 L320.41 491.38 L323.20 493.29 L320.10 494.97 L310.66 496.60 L315.85 498.53 L320.07 500.37 L315.77 502.22 L319.28 503.98 L321.13 505.73 L317.16 507.69 L321.53 509.30 L323.40 510.97 L311.95 513.57 L318.58 514.92 L328.66 515.81 L321.35 518.29 L325.03 519.69 L332.30 520.57 L321.67 523.68 L318.04 526.02 L318.13 527.87 L307.72 531.43 L308.77 533.23 L319.03 533.31 L319.54 535.09 L326.36 535.57 L335.05 535.51 L327.88 538.86 L330.48 540.06 L336.45 540.38 L322.68 545.66 L323.81 547.26 L334.98 546.03 L331.05 548.96 L333.00 550.20 L339.33 550.06 L334.33 553.44 L335.23 554.98 L340.66 554.94 L330.90 560.20 L328.90 562.85 L338.77 561.06 L338.93 562.85 L339.09 564.65 L344.61 564.24 L344.26 566.22 L339.45 570.17 L339.14 572.23 L334.31 576.40 L328.76 581.04 L332.98 581.10 L336.22 581.56 L339.88 581.75 L346.15 580.49 L348.04 581.45 L347.00 583.99 L353.21 582.50 L352.43 584.89 L343.69 592.01 L350.97 589.75 L359.00 586.84 L355.13 591.24 L359.62 590.38 L365.41 588.57 L358.74 595.00 L362.90 594.20 L365.91 594.12 L355.34 603.72 L360.48 602.17 L370.09 597.13 L364.86 603.17 L368.71 602.32 L375.27 599.23 L369.75 605.77 L372.52 605.65 L376.62 604.35 L367.68 614.20 L369.61 614.83 L376.98 610.54 L373.23 616.23 L376.71 615.33 L380.65 613.90 L378.05 618.74 L381.80 617.41 L386.59 614.92 L380.14 623.92 L381.40 625.09 L389.84 618.54 L389.29 621.55 L390.73 622.40 L395.55 619.39 L393.43 624.30 L391.44 629.22 L392.30 630.82 L388.85 637.80 L387.05 642.93 L392.62 638.71 L397.81 634.78 L400.27 634.30 L406.30 628.85 L408.15 628.99 L407.31 632.97 L411.16 630.20 L410.16 634.53 L406.15 643.63 L412.02 637.64 L416.42 633.68 L415.09 638.88 L418.88 635.71 L421.97 633.55 L419.82 640.44 L423.11 637.86 L424.37 638.86 L419.75 650.91 L424.28 645.90 L429.98 638.28 L428.41 644.95 L431.52 642.22 L435.69 637.05 L433.04 646.48 L433.04 650.44 L433.67 653.13 L431.19 663.32 L433.20 663.08 L436.35 659.94 L437.82 660.90 L442.41 653.57 L446.09 648.27 L445.37 655.05 L448.59 650.69 L451.97 645.53 L448.99 659.92 L451.27 658.22 L455.64 649.33 L455.88 654.14 L458.31 651.36 L461.27 646.33 L461.23 652.64 L463.05 651.80 L465.73 647.19 L464.58 659.32 L465.90 660.97 L469.57 651.06 L470.90 652.30 L472.44 652.52 L474.93 647.13 L476.13 649.07 L477.37 651.00 L479.38 647.64 L480.09 653.80 L480.79 661.01 L483.05 655.28 L484.71 654.30 L486.03 656.93 L487.93 652.96 L489.45 653.20 L490.83 655.93 L492.61 651.40 L494.11 651.90 L495.30 663.23 L497.10 654.59 L498.71 646.88 L500.19 652.94 L501.67 648.56 L503.03 642.80 L504.78 653.06 L506.45 656.31 L508.11 658.20 L510.36 668.98 L511.87 666.32 L512.70 655.96 L514.26 655.87 L515.17 649.30 L515.67 640.26 L518.28 650.07 L519.25 645.86 L520.09 641.31 L523.95 657.16 L524.97 653.54 L524.49 641.59 L527.19 648.38 L528.03 644.78 L528.02 637.37 L531.03 644.72 L532.11 642.76 L532.09 636.30 L537.22 651.29 L538.66 650.64 L537.22 639.21 L539.71 642.79 L540.69 640.85 L540.26 634.31 L542.61 637.13 L545.62 641.81 L547.04 641.37 L551.48 649.68 L554.59 653.72 L554.62 649.05 L555.60 647.16 L555.58 642.78 L554.78 636.67 L556.14 636.11 L557.95 636.59 L556.78 630.20 L560.02 633.95 L564.87 640.98 L562.95 633.29 L562.30 628.56 L565.04 630.86 L564.04 625.68 L564.20 622.95 L568.23 627.54 L567.53 623.24 L569.05 623.08 L576.61 633.42 L574.09 626.10 L570.50 617.29 L575.09 622.13 L574.05 617.79 L571.57 611.35 L577.37 617.78 L576.91 614.56 L576.74 611.87 L585.47 621.97 L585.41 619.33 L581.51 611.51 L587.36 617.03 L585.93 612.74 L584.71 608.87 L590.33 613.72 L588.16 608.74 L585.72 603.60 L595.96 613.64 L595.33 610.64 L588.31 600.44 L593.29 603.99 L592.67 601.23 L588.89 595.18 L595.06 599.77 L599.13 601.98 L599.76 600.59 L608.34 607.08 L612.11 608.61 L607.05 601.66 L605.40 598.10 L603.40 594.33 L598.06 587.68 L600.57 588.13 L602.74 588.23 L599.41 583.65 L606.29 587.65 L612.76 591.10 L606.18 584.05 L604.81 581.27 L608.10 582.10 L604.22 577.52 L600.04 572.87 L599.01 570.62 L599.14 569.22 L598.95 567.63 L598.82 566.10 L599.64 565.22 L600.61 564.42 L600.80 563.14 L602.83 562.99 L603.64 562.06 L602.77 560.15 L602.42 558.58 L602.32 557.17 L601.22 555.24 L600.37 553.48 L600.38 552.20 L600.16 550.82 L599.91 549.44 L599.99 548.25 L599.91 546.98 L599.68 545.66 L599.68 544.46 L599.66 543.26 L599.55 542.04 L599.47 540.84 L599.57 539.72 L599.66 538.60 L599.54 537.42 L599.70 536.34 L599.81 535.26 L599.72 534.11 L599.79 533.02 L599.87 531.94 L599.89 530.85 L599.90 529.76 L599.91 528.68 L599.97 527.62 L599.99 526.55 L600.01 525.49 L600.03 524.43 L600.05 523.38 L600.04 522.32 L600.02 521.27 L600.02 520.23 L599.99 519.18 L599.95 518.14 L599.92 517.11 L599.87 516.07 L599.81 515.04 L599.75 514.01 L599.68 512.99 L599.60 511.97 L599.52 510.95 L599.44 509.93 L599.34 508.92 L599.24 507.91 L599.13 506.91 L599.00 505.90 L598.87 504.90 L598.73 503.91 L598.58 502.91 L598.42 501.92 L598.25 500.94 Z"/>
  <svg class="pausebutton" id="pausebutton">
    <circle cx="500" cy="500" id="pausestart" class="pausestart" r="52.65"/>
    <rect height="50.02" width="10.00" y="473.68" rx="2.00" ry="2.00" x="479.99" class="pausesymbol"/>
    <rect height="50.02" width="10.00" y="473.68" rx="2.00" ry="2.00" x="510.00" class="pausesymbol"/>
    <polygon points="530.01,500 479.99,530.01 479.99,469.99" class="playsymbol"/>
  </svg>
  <polygon id="playback-head" class="playback-head" points="941.65,500 921.65,540 961.65,540"/>
</svg>