<?xml-stylesheet href="../../style/waveformjs.css" type="text/css"?>
<svg xmlns="http://www.w3.org/2000/svg" xmlns:xlink="http://www.w3.org/1999/xlink" width="100%" height="100%" viewBox="0 0 1000 1000">
  <path class="svg-wave" id="sp" d="M598.01 500.00 L598.17 500.98 L598.31 501.97 L598.43 502.95 L598.54 503.94 L598.64 504.94 L598.73 505.93 L598.78 506.93 L598.83 507.92 L598.85 508.92 L598.86 509.92 L598.84 510.92 L598.81 511.91 L598.72 512.91 L598.60 513.90 L598.46 514.88 L598.24 515.85 L597.96 516.81 L597.62 517.76 L597.13 518.68 L596.53 519.57 L595.83 520.42 L594.94 521.23 L594.13 522.04 L592.85 522.72 L591.29 523.31 L590.44 524.06 L589.41 524.75 L589.07 525.61 L589.83 526.81 L587.44 527.05 L585.68 527.45 L589.43 529.64 L586.94 529.78 L585.58 530.27 L588.88 532.45 L587.76 533.03 L587.90 534.10 L588.70 535.43 L587.82 536.10 L587.10 536.82 L588.10 538.29 L586.95 538.83 L584.20 538.61 L583.28 539.20 L585.08 541.10 L583.70 541.47 L583.31 542.32 L585.26 544.39 L584.46 545.05 L585.26 546.58 L585.16 547.63 L583.10 547.58 L582.73 548.47 L584.13 550.43 L582.05 550.31 L581.61 551.17 L581.96 552.54 L580.28 552.60 L579.45 553.19 L578.48 553.69 L576.92 553.76 L576.29 554.47 L576.76 555.97 L577.03 557.35 L576.36 558.05 L579.13 561.41 L579.19 562.74 L577.79 562.91 L578.36 564.67 L577.73 565.47 L576.80 566.02 L576.72 567.29 L576.31 568.29 L575.14 568.61 L575.25 570.11 L575.60 571.86 L574.58 572.32 L574.30 573.50 L573.19 573.87 L571.32 573.44 L571.13 574.72 L570.18 575.22 L568.49 574.89 L568.97 576.94 L569.65 579.28 L567.72 578.66 L566.22 578.49 L566.02 579.87 L563.71 578.66 L562.06 578.21 L562.50 580.40 L561.75 581.10 L560.81 581.55 L562.42 585.46 L561.58 586.11 L560.59 586.55 L560.44 588.19 L559.29 588.39 L558.42 589.01 L557.56 589.65 L556.54 590.02 L555.36 590.14 L554.77 591.21 L554.09 592.14 L552.90 592.21 L552.40 593.50 L550.89 592.98 L549.31 592.26 L548.49 592.96 L548.54 595.37 L547.47 595.61 L546.68 596.43 L547.24 600.13 L545.69 599.42 L544.70 599.89 L543.76 600.47 L542.02 599.16 L540.98 599.46 L540.62 601.46 L539.52 601.66 L538.18 601.18 L537.55 602.62 L536.43 602.74 L534.99 601.90 L533.64 601.23 L532.35 600.72 L531.27 600.79 L530.45 601.76 L530.09 604.34 L529.24 605.32 L528.57 607.05 L527.96 609.15 L526.83 609.27 L525.82 609.87 L524.57 609.47 L523.04 607.68 L521.75 606.84 L521.17 609.61 L519.57 607.04 L518.75 608.71 L518.19 612.13 L516.73 610.13 L515.85 611.80 L514.85 612.86 L513.63 612.26 L512.40 611.47 L511.33 611.99 L510.30 613.14 L509.28 614.62 L508.19 615.51 L507.06 615.98 L505.92 616.35 L504.76 616.57 L503.54 614.95 L502.36 613.44 L501.24 614.72 L500.09 614.45 L498.96 613.23 L497.77 616.33 L496.59 616.80 L495.43 616.60 L494.26 616.59 L493.14 615.79 L492.03 614.96 L490.87 615.06 L489.64 615.82 L488.66 613.95 L487.31 615.72 L485.93 617.45 L484.97 615.65 L483.47 618.00 L482.17 618.60 L481.20 617.12 L480.08 616.62 L478.79 617.07 L477.73 616.32 L476.74 615.20 L475.30 616.35 L474.42 614.80 L473.48 613.68 L471.58 616.55 L470.57 615.63 L469.53 614.89 L467.38 618.24 L465.94 618.80 L465.13 617.21 L463.82 617.31 L462.53 617.28 L461.90 615.29 L460.91 614.42 L459.78 613.99 L459.12 612.27 L458.23 611.24 L456.16 613.30 L454.97 613.00 L453.56 613.23 L451.87 614.10 L450.71 613.65 L449.52 613.29 L448.19 613.20 L448.13 610.40 L447.44 609.03 L444.87 611.49 L444.44 609.60 L443.95 607.87 L441.04 610.75 L440.43 609.25 L439.69 608.02 L438.98 606.78 L438.74 604.75 L437.56 604.36 L435.80 604.89 L434.92 603.98 L433.39 604.10 L430.30 606.58 L429.45 605.56 L428.94 604.04 L427.86 603.39 L427.65 601.52 L426.78 600.59 L424.78 601.19 L423.06 601.38 L422.20 600.41 L419.76 601.44 L418.09 601.45 L417.78 599.79 L417.00 598.70 L416.55 597.24 L415.91 596.03 L414.20 596.03 L412.95 595.49 L411.95 594.67 L409.83 595.02 L407.45 595.59 L406.92 594.25 L406.04 593.25 L405.00 592.41 L405.04 590.54 L404.23 589.51 L403.32 588.56 L402.49 587.54 L401.02 587.09 L398.79 587.27 L397.64 586.50 L397.23 585.09 L395.51 584.78 L394.58 583.79 L394.52 582.14 L392.83 581.74 L392.26 580.49 L392.65 578.53 L391.98 577.37 L391.39 576.17 L391.98 574.15 L391.01 573.23 L389.66 572.54 L389.39 571.14 L388.77 569.98 L387.62 569.15 L387.27 567.82 L385.59 567.28 L384.30 566.49 L383.19 565.58 L381.60 564.93 L379.58 564.48 L380.67 562.37 L380.78 560.80 L378.72 560.33 L378.77 558.80 L378.70 557.34 L377.11 556.60 L377.22 555.07 L375.83 554.20 L375.46 552.89 L376.26 551.09 L375.44 549.98 L373.63 549.24 L372.35 548.28 L372.05 546.94 L370.18 546.15 L369.06 545.08 L369.69 543.41 L369.65 541.98 L369.12 540.72 L369.80 539.08 L369.10 537.87 L366.45 537.19 L366.36 535.78 L365.12 534.67 L363.06 533.74 L362.81 532.35 L361.25 531.26 L362.02 529.64 L363.75 527.85 L363.15 526.55 L361.46 525.44 L362.45 523.84 L361.28 522.61 L358.40 521.63 L359.66 520.01 L359.71 518.57 L360.77 517.01 L361.89 515.48 L362.05 514.06 L362.05 512.67 L361.39 511.33 L360.46 510.01 L357.37 508.80 L357.97 507.33 L358.25 505.90 L356.44 504.54 L356.43 503.10 L357.67 501.65 L357.05 500.23 L354.82 498.78 L356.88 497.37 L355.58 495.90 L353.92 494.39 L355.26 492.99 L353.54 491.44 L354.59 490.04 L356.32 488.71 L356.05 487.24 L355.30 485.71 L356.30 484.36 L355.03 482.75 L352.35 480.94 L353.82 479.64 L354.02 478.17 L353.25 476.56 L355.08 475.36 L356.34 474.09 L354.61 472.28 L354.18 470.68 L355.44 469.43 L354.03 467.60 L354.72 466.23 L355.44 464.87 L355.84 463.43 L357.53 462.34 L357.96 460.93 L357.70 459.33 L357.69 457.78 L358.81 456.57 L358.61 454.96 L357.99 453.19 L359.44 452.10 L359.66 450.61 L359.97 449.14 L361.30 448.05 L361.63 446.58 L361.17 444.81 L362.16 443.60 L361.54 441.72 L360.48 439.62 L361.16 438.26 L360.85 436.45 L360.92 434.79 L363.01 434.10 L363.34 432.56 L362.30 430.33 L363.73 429.33 L364.29 427.89 L362.55 425.19 L364.96 424.75 L365.69 423.38 L366.10 421.83 L367.89 421.10 L369.25 420.12 L368.37 417.77 L369.34 416.54 L370.39 415.38 L368.56 412.29 L369.96 411.34 L371.51 410.50 L371.29 408.43 L372.60 407.42 L374.51 406.88 L374.98 405.27 L374.90 403.23 L376.58 402.54 L377.34 401.13 L376.61 398.49 L378.17 397.71 L378.67 396.05 L379.22 394.41 L381.09 393.92 L382.39 392.96 L382.36 390.76 L384.06 390.16 L385.03 388.88 L385.40 387.00 L387.36 386.68 L388.59 385.65 L389.15 383.93 L390.36 382.88 L391.52 381.76 L391.33 379.15 L392.38 377.88 L393.87 377.12 L394.39 375.22 L395.91 374.50 L397.12 373.40 L397.88 371.74 L399.60 371.27 L400.84 370.21 L401.58 368.47 L402.78 367.33 L404.61 367.06 L405.49 365.46 L406.43 363.92 L407.95 363.22 L408.78 361.49 L410.34 360.85 L411.93 360.27 L413.44 359.58 L414.12 357.50 L415.63 356.78 L416.73 355.37 L417.26 352.91 L419.08 352.71 L420.45 351.70 L421.50 350.09 L423.62 350.53 L425.18 349.89 L426.14 348.03 L427.49 346.92 L429.31 346.84 L430.41 345.17 L431.81 344.12 L433.56 343.89 L434.93 342.76 L436.43 341.94 L438.06 341.42 L439.66 340.85 L441.00 339.56 L442.67 339.17 L444.21 338.37 L445.45 336.71 L447.08 336.15 L448.56 335.09 L450.26 334.77 L452.03 334.67 L453.55 333.72 L455.29 333.52 L456.86 332.71 L458.36 331.59 L459.73 329.85 L461.49 329.68 L463.26 329.64 L464.80 328.44 L466.69 328.99 L468.46 329.02 L470.04 327.91 L471.75 327.59 L473.43 326.97 L475.08 326.20 L476.82 325.90 L478.60 326.00 L480.28 325.25 L482.07 325.53 L483.86 325.76 L485.51 324.52 L487.31 325.04 L489.09 325.33 L490.74 323.34 L492.51 323.48 L494.29 323.91 L496.04 322.97 L497.80 322.30 L499.58 322.92 L501.35 322.98 L503.13 322.10 L504.89 322.79 L506.68 322.42 L508.49 321.74 L510.26 322.05 L512.01 322.61 L513.86 321.80 L515.61 322.27 L517.32 323.08 L519.21 322.19 L521.01 322.18 L522.88 321.69 L524.74 321.34 L526.50 321.80 L528.25 322.23 L530.05 322.39 L531.81 322.77 L533.45 323.81 L535.40 323.20 L537.26 323.10 L538.81 324.49 L540.83 323.72 L542.76 323.45 L544.50 323.99 L546.33 324.15 L548.25 324.01 L549.76 325.39 L551.54 325.79 L553.61 325.20 L555.00 326.89 L556.93 326.83 L559.26 325.62 L560.96 326.36 L562.94 326.28 L564.53 327.32 L566.05 328.48 L567.48 329.87 L569.26 330.36 L571.08 330.75 L572.85 331.29 L575.09 330.77 L576.35 332.48 L577.86 333.59 L579.67 334.06 L581.12 335.29 L582.57 336.48 L585.21 335.37 L587.01 335.94 L588.49 337.09 L591.23 335.99 L593.04 336.59 L594.24 338.27 L596.08 338.85 L597.78 339.66 L599.08 341.13 L600.61 342.21 L602.45 342.82 L603.71 344.31 L604.95 345.81 L607.26 345.75 L608.70 346.97 L610.72 347.38 L612.30 348.41 L612.90 350.75 L614.69 351.49 L616.58 352.12 L617.64 353.81 L619.25 354.81 L621.81 354.68 L622.72 356.53 L623.50 358.51 L625.76 358.79 L626.60 360.69 L627.83 362.12 L630.08 362.48 L632.09 363.12 L633.68 364.22 L635.17 365.43 L636.60 366.69 L637.59 368.39 L639.04 369.64 L640.57 370.83 L641.27 372.76 L643.52 373.31 L644.94 374.61 L645.40 376.74 L647.27 377.66 L649.21 378.55 L649.49 380.79 L651.27 381.82 L653.29 382.70 L653.32 385.08 L654.08 386.90 L656.82 387.29 L657.07 389.47 L658.12 391.08 L661.17 391.34 L661.93 393.17 L662.95 394.82 L664.69 396.01 L664.65 398.33 L664.80 400.50 L666.78 401.57 L667.77 403.23 L669.03 404.75 L671.45 405.63 L671.32 407.92 L672.04 409.74 L674.31 410.75 L674.05 413.08 L674.17 415.18 L676.43 416.25 L677.65 417.84 L677.43 420.08 L679.45 421.33 L680.76 422.90 L680.94 424.95 L681.85 426.69 L682.96 428.36 L682.81 430.52 L683.44 432.38 L684.48 434.08 L684.30 436.22 L685.15 437.99 L687.65 439.23 L687.75 441.27 L689.14 442.90 L689.97 444.72 L688.71 447.12 L688.26 449.28 L690.28 450.77 L689.81 452.91 L689.88 454.90 L693.07 456.18 L692.95 458.23 L692.46 460.35 L694.06 462.04 L694.02 464.06 L693.75 466.11 L695.46 467.82 L696.63 469.64 L696.38 471.69 L698.22 473.44 L698.54 475.42 L697.76 477.52 L697.99 479.50 L698.15 481.48 L696.55 483.61 L697.17 485.54 L698.53 487.44 L697.09 489.51 L697.32 491.47 L699.48 493.38 L698.83 495.39 L700.17 497.36 L700.28 499.36 L699.31 501.36 L699.75 503.36 L700.81 505.39 L699.16 507.34 L697.59 509.26 L697.63 511.24 L694.87 513.04 L691.97 514.78 L691.82 516.69 L690.35 518.49 L689.33 520.30 L690.69 522.38 L692.96 524.60 L692.57 526.51 L694.55 528.77 L697.79 531.27 L697.24 533.21 L698.03 535.38 L697.29 537.29 L696.15 539.11 L695.76 541.07 L695.94 543.16 L694.92 544.99 L694.79 547.01 L694.90 549.11 L692.32 550.51 L690.84 552.16 L689.10 553.72 L686.83 555.10 L685.93 556.87 L686.58 559.11 L687.12 561.35 L686.74 563.30 L688.08 565.86 L687.53 567.78 L686.59 569.56 L686.50 571.65 L685.64 573.46 L684.64 575.21 L686.02 577.95 L685.23 579.81 L685.09 581.95 L684.50 583.91 L682.74 585.32 L681.37 586.90 L678.94 587.95 L675.88 588.64 L675.23 590.52 L674.64 592.44 L675.07 594.92 L675.90 597.66 L677.48 600.87 L679.05 604.15 L678.71 606.35 L678.14 608.44 L677.09 610.24 L674.25 610.91 L673.15 612.65 L673.66 615.47 L670.58 615.90 L669.73 617.83 L669.81 620.41 L666.43 620.54 L663.74 621.10 L662.43 622.67 L658.77 622.41 L656.73 623.36 L656.97 626.11 L657.68 629.30 L656.77 631.20 L657.90 634.85 L658.97 638.53 L656.87 639.49 L656.68 642.15 L654.90 643.39 L652.85 644.36 L652.44 646.88 L651.31 648.74 L649.09 649.51 L647.76 651.17 L646.29 652.70 L643.90 653.24 L640.92 653.10 L638.31 653.32 L635.95 653.76 L633.65 654.24 L633.54 657.27 L632.91 659.74 L632.10 662.04 L634.43 668.30 L632.85 669.78 L631.37 671.39 L629.50 672.49 L627.38 673.25 L624.78 673.32 L623.76 675.57 L622.23 677.14 L619.94 677.60 L619.61 680.98 L616.71 680.50 L612.76 678.27 L610.43 678.51 L607.99 678.54 L605.01 677.60 L603.67 679.40 L604.50 685.08 L602.56 685.97 L602.07 689.53 L602.21 694.44 L599.79 694.53 L598.17 696.17 L596.31 697.36 L593.72 697.03 L591.95 698.39 L590.30 700.07 L587.60 699.39 L585.23 699.37 L583.55 700.99 L580.47 699.17 L577.90 698.50 L575.73 698.78 L572.95 697.42 L571.12 698.53 L569.66 700.76 L568.57 704.20 L566.94 706.15 L566.10 710.70 L564.67 713.61 L562.75 714.98 L560.93 716.79 L558.18 715.27 L556.01 715.75 L554.14 717.48 L551.76 717.18 L549.68 718.08 L547.63 719.19 L545.06 717.85 L542.53 716.48 L539.88 714.32 L537.35 712.49 L534.99 711.48 L532.87 711.76 L531.21 715.29 L529.10 715.86 L527.22 718.41 L525.73 724.73 L523.37 723.93 L521.16 724.46 L519.05 726.24 L516.62 724.19 L514.33 723.74 L512.25 726.73 L509.86 724.11 L507.59 723.13 L505.41 725.34 L503.13 723.80 L500.88 722.11 L498.68 719.99 L496.49 719.08 L494.34 717.43 L492.15 717.76 L489.85 720.33 L487.56 721.90 L485.08 725.67 L482.65 727.82 L480.26 728.95 L477.85 729.94 L475.67 728.64 L473.53 727.09 L471.14 727.79 L468.81 727.92 L466.81 725.70 L464.43 726.10 L462.12 726.08 L460.26 723.41 L458.44 720.84 L456.58 718.66 L454.71 716.73 L452.74 715.34 L450.05 717.21 L447.41 718.66 L444.93 719.31 L441.26 724.41 L438.95 724.06 L436.84 722.99 L434.48 722.79 L432.15 722.46 L430.17 721.02 L427.81 720.78 L425.32 720.88 L423.09 720.19 L420.83 719.60 L418.97 717.90 L417.67 714.81 L416.55 711.38 L414.90 709.39 L413.36 707.22 L411.48 705.90 L407.96 708.33 L405.74 707.70 L402.10 710.11 L398.40 712.49 L396.69 710.62 L393.80 711.15 L391.83 709.81 L390.26 707.73 L387.95 707.07 L385.93 705.85 L384.38 703.82 L382.04 703.18 L379.92 702.15 L379.40 698.47 L377.96 696.39 L376.50 694.38 L376.54 690.09 L374.18 689.54 L371.19 689.89 L367.51 691.18 L365.14 690.50 L360.51 692.93 L357.13 693.49 L355.07 692.23 L352.63 691.46 L351.30 689.24 L350.18 686.78 L347.82 685.89 L346.29 683.97 L345.87 680.77 L343.60 679.77 L342.48 677.43 L342.66 673.70 L341.79 671.19 L339.70 670.01 L339.74 666.60 L338.50 664.56 L334.35 665.44 L332.24 664.24 L329.30 663.80 L323.93 665.60 L322.60 663.54 L320.15 662.51 L317.32 661.78 L316.23 659.48 L315.03 657.32 L313.54 655.40 L311.64 653.81 L311.46 650.84 L309.47 649.33 L308.80 646.80 L310.05 642.84 L309.05 640.62 L308.83 637.86 L308.34 635.33 L305.72 634.28 L301.00 634.63 L299.14 632.97 L294.87 632.87 L290.84 632.53 L290.03 630.12 L287.94 628.50 L287.24 626.03 L286.72 623.47 L284.48 621.91 L283.11 619.84 L283.39 616.87 L282.48 614.57 L281.85 612.13 L282.89 608.86 L284.21 605.51 L284.63 602.65 L284.71 599.98 L284.37 597.53 L281.85 596.06 L278.85 594.75 L275.20 593.66 L270.31 593.02 L268.46 591.08 L266.44 589.19 L267.38 586.18 L268.68 583.07 L268.87 580.40 L267.23 578.37 L265.73 576.28 L264.90 573.96 L262.35 572.16 L263.45 569.25 L264.01 566.53 L263.19 564.21 L265.60 561.05 L265.23 558.64 L262.54 556.80 L258.65 555.18 L259.35 552.50 L257.56 550.35 L252.59 548.81 L253.88 546.00 L253.74 543.49 L252.71 541.12 L253.55 538.45 L253.66 535.92 L251.79 533.66 L252.98 530.98 L253.08 528.47 L251.35 526.15 L250.56 523.71 L253.32 520.96 L254.32 518.41 L253.16 516.01 L254.92 513.44 L254.10 511.02 L252.67 508.61 L251.67 506.15 L245.95 503.75 L246.13 501.21 L245.38 498.67 L243.53 496.10 L246.06 493.59 L247.04 491.09 L247.18 488.56 L247.10 486.02 L248.76 483.59 L249.48 481.12 L248.91 478.55 L250.03 476.13 L251.40 473.75 L252.12 471.31 L252.51 468.85 L252.44 466.32 L251.32 463.63 L252.00 461.19 L251.63 458.59 L250.34 455.80 L251.62 453.46 L252.80 451.12 L253.71 448.73 L253.58 446.13 L254.17 443.68 L253.98 441.04 L252.85 438.15 L254.37 435.91 L255.47 433.58 L256.12 431.13 L256.52 428.61 L258.91 426.68 L260.48 424.54 L260.74 421.98 L261.88 419.71 L261.01 416.74 L262.05 414.43 L260.10 411.01 L258.70 407.73 L259.84 405.40 L258.12 401.92 L259.54 399.69 L262.11 397.95 L262.89 395.47 L263.35 392.83 L266.12 391.26 L266.78 388.71 L266.11 385.51 L269.27 384.18 L271.60 382.47 L273.27 380.45 L275.56 378.78 L277.95 377.19 L277.33 373.91 L276.41 370.43 L277.40 368.01 L273.85 362.83 L275.24 360.58 L276.92 358.51 L276.72 355.23 L280.05 354.25 L282.86 352.96 L282.73 349.69 L284.61 347.78 L287.57 346.67 L288.55 344.13 L290.24 342.11 L293.21 341.09 L294.84 339.05 L297.76 338.05 L300.27 336.75 L300.92 333.94 L301.01 330.61 L302.79 328.69 L302.48 324.93 L300.13 319.25 L302.74 317.99 L304.14 315.62 L305.35 313.05 L309.39 313.23 L312.22 312.28 L313.61 309.92 L315.75 308.29 L317.81 306.60 L318.18 303.09 L321.16 302.39 L324.78 302.46 L326.86 300.82 L330.47 300.99 L332.97 299.91 L333.77 296.77 L334.37 293.32 L335.68 290.69 L335.22 285.73 L336.19 282.53 L338.58 281.18 L340.20 278.77 L342.65 277.51 L345.99 277.55 L348.06 275.78 L350.04 273.87 L353.71 274.54 L355.83 272.86 L357.38 270.26 L361.39 271.65 L363.79 270.47 L366.13 269.18 L369.82 270.29 L371.93 268.65 L373.52 266.02 L375.57 264.21 L377.66 262.45 L377.80 256.78 L379.84 254.75 L382.10 253.15 L383.69 250.08 L386.88 250.45 L389.26 249.06 L391.57 247.47 L394.23 246.70 L396.84 245.84 L399.07 244.02 L401.43 242.49 L405.19 244.70 L408.02 244.52 L411.04 244.93 L414.06 245.43 L416.56 244.43 L417.97 239.95 L420.36 238.46 L422.33 235.46 L423.78 230.44 L426.84 231.04 L428.88 227.83 L431.80 227.89 L435.03 229.32 L437.61 228.13 L440.31 227.42 L443.45 228.79 L446.19 228.39 L448.96 228.15 L452.04 229.65 L454.91 230.18 L457.55 229.37 L460.47 230.40 L463.22 230.40 L465.60 227.51 L468.28 226.76 L470.95 225.89 L473.39 222.37 L476.00 220.23 L478.80 220.02 L481.58 219.54 L484.44 220.30 L487.31 221.64 L490.13 222.54 L492.90 222.40 L495.67 222.23 L498.45 221.11 L501.23 221.08 L504.01 221.98 L506.80 221.48 L509.50 224.24 L512.23 224.81 L515.02 224.36 L517.90 222.50 L520.69 222.54 L523.56 221.64 L526.84 216.62 L529.59 217.71 L532.46 217.56 L535.49 216.26 L538.28 216.93 L540.89 218.88 L543.93 217.82 L546.79 218.03 L549.62 218.39 L552.40 219.13 L554.80 221.71 L557.21 224.04 L560.00 224.50 L562.22 227.44 L564.87 228.36 L567.85 227.97 L570.76 227.92 L573.25 229.46 L577.34 225.28 L580.44 224.85 L582.75 227.12 L586.73 223.95 L589.31 225.37 L591.21 228.80 L594.38 228.40 L596.88 229.93 L598.82 232.94 L601.84 233.02 L605.23 232.22 L607.08 235.30 L608.92 238.31 L611.71 239.00 L613.53 241.91 L615.56 244.27 L619.70 242.03 L623.03 241.64 L625.98 242.12 L631.97 236.57 L633.68 239.68 L635.86 241.84 L640.19 239.94 L641.26 244.12 L642.59 247.71 L646.60 246.57 L648.45 249.18 L649.36 253.31 L652.35 253.96 L654.84 255.44 L656.12 258.79 L659.09 259.50 L661.07 261.72 L662.56 264.64 L664.86 266.34 L668.21 266.57 L670.68 268.08 L675.19 266.86 L679.59 265.92 L682.43 267.07 L685.73 267.69 L687.21 270.57 L688.49 273.67 L690.39 275.98 L693.07 277.37 L695.00 279.65 L697.49 281.28 L701.06 281.75 L700.36 286.83 L701.18 290.20 L703.70 291.78 L703.32 296.28 L705.33 298.35 L709.48 298.34 L713.33 298.71 L715.80 300.42 L721.36 299.35 L724.05 300.95 L724.67 304.39 L727.98 305.48 L728.55 308.91 L729.41 312.06 L732.66 313.25 L734.81 315.36 L734.41 319.43 L737.14 321.08 L739.30 323.18 L739.43 326.75 L739.80 330.11 L741.57 332.46 L742.23 335.57 L743.38 338.32 L747.11 339.38 L749.53 341.33 L751.82 343.39 L758.17 343.00 L759.83 345.53 L760.51 348.63 L762.69 350.86 L762.50 354.41 L762.85 357.64 L765.88 359.42 L766.83 362.32 L768.15 365.01 L772.07 366.43 L771.62 370.01 L770.46 373.87 L771.73 376.57 L771.41 379.97 L771.35 383.23 L772.51 385.95 L776.84 387.38 L778.54 389.92 L782.59 391.57 L786.75 393.25 L787.58 396.21 L789.98 398.61 L791.00 401.50 L791.55 404.56 L793.49 407.16 L794.32 410.13 L794.51 413.28 L795.74 416.12 L796.38 419.13 L797.50 422.01 L798.39 424.96 L799.06 427.96 L799.83 430.94 L801.90 433.64 L801.99 436.78 L802.35 439.85 L804.41 442.60 L804.76 445.69 L805.27 448.74 L806.38 451.70 L806.44 454.82 L807.11 457.86 L807.62 460.92 L807.10 464.10 L808.40 467.07 L808.54 470.17 L807.77 473.35 L808.78 476.37 L809.69 479.42 L808.79 482.57 L808.84 485.67 L810.32 488.71 L810.44 491.81 L809.96 494.93 L810.81 498.02 L810.78 501.13 L810.01 504.23 L810.38 507.34 L809.89 510.43 L809.28 513.50 L809.66 516.62 L809.67 519.73 L809.65 522.84 L809.84 525.97 L809.69 529.08 L809.57 532.20 L808.68 535.23 L808.27 538.31 L808.55 541.48 L808.46 544.61 L807.88 547.68 L808.61 550.95 L809.17 554.23 L809.05 557.40 L808.96 560.58 L808.68 563.74 L808.90 567.01 L807.93 570.03 L807.77 573.24 L807.50 576.43 L806.32 579.40 L805.59 582.48 L804.93 585.58 L804.52 588.76 L802.84 591.57 L802.81 594.88 L801.08 597.65 L801.18 601.02 L800.15 604.03 L798.08 606.66 L798.33 610.13 L796.67 612.90 L795.81 615.97 L795.00 619.07 L793.67 621.96 L793.00 625.13 L792.18 628.26 L790.17 630.85 L789.08 633.85 L788.34 637.02 L786.95 639.90 L786.13 643.06 L785.60 646.38 L784.03 649.18 L782.84 652.18 L781.95 655.36 L780.53 658.26 L778.94 661.05 L778.27 664.40 L777.37 667.64 L775.50 670.29 L774.63 673.57 L773.44 676.67 L771.05 678.99 L768.87 681.44 L767.48 684.42 L765.37 686.91 L762.65 688.95 L761.86 692.39 L759.41 694.61 L757.24 697.03 L756.07 700.23 L753.70 702.50 L750.76 704.29 L749.60 707.53 L747.67 710.15 L745.17 712.29 L743.34 714.99 L741.09 717.34 L739.83 720.59 L737.11 722.50 L734.80 724.79 L733.26 727.84 L730.24 729.43 L728.44 732.23 L726.48 734.89 L723.99 737.00 L723.04 740.79 L720.47 742.83 L718.41 745.45 L716.89 748.71 L713.51 749.83 L711.94 753.08 L709.30 755.07 L706.57 756.93 L704.60 759.75 L701.81 761.55 L698.99 763.30 L696.72 765.78 L693.70 767.25 L691.17 769.39 L688.75 771.69 L685.70 773.10 L683.01 775.02 L680.53 777.26 L677.07 777.99 L674.25 779.70 L671.54 781.57 L668.59 783.07 L665.88 784.95 L663.14 786.81 L660.85 789.49 L658.00 791.18 L655.38 793.30 L652.59 795.13 L649.50 796.39 L646.83 798.49 L644.03 800.34 L641.36 802.49 L638.08 803.34 L635.33 805.36 L632.49 807.21 L629.07 807.71 L626.45 810.12 L623.31 811.30 L619.93 811.83 L617.24 814.18 L613.92 814.85 L610.85 816.23 L607.79 817.63 L604.60 818.66 L601.55 820.12 L598.56 821.85 L595.36 822.90 L591.97 823.30 L589.04 825.31 L585.75 826.07 L582.41 826.60 L579.33 828.21 L576.02 828.85 L572.67 829.33 L569.49 830.60 L566.01 830.46 L562.77 831.47 L559.54 832.55 L556.02 832.01 L552.80 833.20 L549.63 834.78 L546.18 834.52 L542.78 834.57 L539.61 836.48 L536.27 837.12 L532.80 836.52 L529.49 837.51 L526.14 838.10 L522.75 838.27 L519.40 838.97 L515.99 838.73 L512.61 839.25 L509.22 839.33 L505.83 839.52 L502.44 840.14 L499.04 840.21 L495.62 841.00 L492.20 841.53 L488.77 841.97 L485.31 842.83 L481.87 842.88 L478.44 842.75 L475.06 841.80 L471.63 841.72 L468.21 841.51 L464.83 840.83 L461.47 840.07 L457.96 840.55 L454.48 840.65 L451.13 839.84 L447.62 840.05 L444.27 839.22 L440.78 839.24 L437.49 838.07 L434.01 837.97 L430.75 836.72 L427.30 836.39 L424.11 834.91 L420.74 834.23 L417.16 834.39 L414.28 831.79 L410.48 832.73 L406.95 832.55 L403.62 831.63 L399.99 831.71 L396.87 830.09 L393.18 830.25 L390.01 828.79 L386.85 827.31 L383.13 827.43 L380.11 825.58 L376.35 825.70 L372.95 824.82 L369.81 823.29 L366.04 823.28 L363.25 820.92 L359.88 819.91 L356.27 819.42 L353.42 817.24 L349.82 816.68 L346.44 815.61 L343.41 813.81 L340.27 812.26 L337.08 810.79 L333.60 809.85 L330.52 808.15 L327.48 806.39 L324.30 804.86 L320.86 803.77 L318.01 801.67 L315.37 799.24 L311.94 798.08 L309.07 796.03 L306.23 793.94 L303.42 791.81 L300.25 790.20 L297.49 788.01 L294.42 786.24 L290.98 784.98 L288.75 782.06 L285.73 780.21 L282.73 778.32 L279.44 776.78 L276.73 774.50 L273.95 772.32 L270.48 770.94 L268.08 768.28 L265.37 765.99 L262.58 763.79 L259.87 761.50 L257.50 758.83 L254.66 756.67 L251.96 754.36 L249.44 751.85 L246.62 749.64 L243.91 747.31 L241.56 744.63 L238.19 742.90 L236.39 739.72 L233.57 737.46 L230.69 735.24 L228.52 732.38 L225.31 730.42 L223.38 727.36 L221.46 724.30 L218.30 722.24 L216.75 718.91 L215.10 715.67 L212.09 713.45 L210.53 710.16 L209.43 706.55 L205.90 704.66 L203.67 701.85 L202.40 698.38 L200.00 695.68 L197.87 692.79 L196.11 689.66 L194.21 686.63 L192.46 683.50 L189.13 681.29 L186.91 678.42 L185.41 675.13 L182.68 672.51 L181.07 669.28 L179.77 665.88 L177.55 662.97 L175.86 659.77 L174.64 656.35 L172.83 653.21 L171.38 649.90 L169.70 646.70 L167.94 643.52 L166.49 640.21 L165.00 636.91 L162.51 634.00 L161.92 630.34 L160.52 626.99 L158.37 623.92 L157.19 620.48 L155.43 617.24 L154.52 613.71 L153.78 610.13 L152.09 606.85 L151.39 603.26 L151.11 599.56 L148.71 596.45 L147.98 592.88 L148.29 589.04 L146.08 585.85 L144.99 582.36 L145.23 578.58 L143.86 575.15 L142.51 571.71 L141.58 568.18 L140.55 564.65 L139.85 561.07 L139.41 557.44 L139.40 553.75 L138.65 550.17 L139.05 546.44 L138.79 542.81 L137.79 539.26 L137.26 535.65 L137.03 532.01 L136.22 528.42 L136.02 524.78 L135.70 521.14 L135.54 517.49 L135.87 513.83 L134.69 510.22 L133.91 506.58 L134.05 502.91 L132.33 499.25 L131.99 495.57 L131.05 491.87 L130.46 488.16 L130.10 484.44 L129.69 480.71 L130.19 477.03 L130.02 473.30 L129.92 469.57 L130.14 465.86 L130.75 462.19 L130.80 458.46 L130.96 454.74 L131.68 451.08 L131.86 447.36 L132.95 443.76 L131.69 439.79 L133.47 436.31 L133.99 432.63 L133.37 428.72 L135.34 425.31 L134.98 421.42 L135.51 417.71 L136.11 414.01 L136.97 410.38 L137.49 406.65 L138.59 403.07 L139.77 399.51 L140.18 395.74 L141.37 392.18 L142.04 388.47 L142.52 384.68 L143.98 381.21 L144.98 377.59 L145.79 373.89 L147.18 370.39 L148.49 366.87 L148.71 362.93 L149.66 359.24 L151.49 355.91 L151.76 351.93 L152.71 348.21 L155.26 345.21 L156.83 341.77 L157.96 338.12 L160.21 335.01 L161.71 331.54 L162.52 327.71 L165.23 324.85 L166.67 321.33 L167.34 317.39 L169.99 314.52 L171.97 311.29 L172.91 307.46 L175.10 304.34 L176.72 300.89 L178.70 297.65 L180.48 294.28 L181.71 290.54 L184.66 287.93 L186.05 284.28 L188.05 281.03 L190.91 278.39 L191.69 274.24 L193.90 271.12 L196.23 268.10 L197.60 264.32 L200.24 261.52 L201.97 257.99 L204.73 255.29 L207.54 252.64 L209.50 249.28 L212.82 247.09 L215.40 244.26 L217.84 241.30 L220.84 238.87 L223.47 236.10 L225.71 232.94 L228.11 229.94 L230.43 226.83 L233.25 224.22 L235.72 221.25 L238.40 218.49 L241.04 215.68 L244.08 213.31 L246.50 210.25 L249.25 207.53 L252.00 204.82 L254.51 201.80 L257.58 199.45 L260.45 196.86 L263.14 194.02 L265.98 191.37 L269.20 189.20 L272.34 186.94 L275.25 184.36 L278.31 181.97 L280.92 178.92 L284.44 177.18 L286.78 173.67 L289.97 171.43 L293.59 169.87 L296.75 167.57 L300.44 166.15 L304.00 164.53 L307.44 162.71 L311.09 161.28 L314.24 158.97 L317.54 156.90 L321.03 155.19 L324.53 153.50 L327.43 150.60 L331.32 149.70 L334.89 148.16 L338.01 145.63 L341.62 144.16 L344.96 142.06 L348.44 140.28 L351.96 138.57 L355.32 136.47 L358.84 134.71 L362.81 134.16 L365.94 131.33 L369.60 129.89 L373.87 130.28 L377.04 127.40 L380.57 125.56 L384.53 125.07 L388.11 123.35 L391.50 120.90 L395.27 119.75 L399.25 119.39 L402.79 117.30 L406.70 116.67 L410.71 116.51 L414.41 115.02 L418.43 114.94 L422.32 114.35 L426.19 113.63 L430.06 112.92 L433.90 112.07 L437.79 111.42 L441.53 109.86 L445.45 109.42 L449.28 108.26 L453.10 106.97 L456.99 106.08 L460.97 106.04 L464.89 105.53 L468.87 105.52 L472.86 105.92 L476.79 105.45 L480.76 105.82 L484.68 104.92 L488.63 104.92 L492.58 104.47 L496.53 103.55 L500.49 103.95 L504.46 103.48 L508.41 104.12 L512.39 103.56 L516.31 104.72 L520.29 104.29 L524.17 105.79 L528.22 104.61 L532.23 104.15 L536.00 106.49 L540.21 104.20 L544.16 104.66 L548.18 104.58 L552.25 104.19 L556.15 105.11 L560.30 104.31 L564.03 106.33 L568.06 106.43 L572.15 106.27 L575.79 108.55 L580.12 107.24 L584.09 107.88 L587.97 108.90 L592.14 108.69 L595.68 111.10 L599.86 110.93 L603.82 111.69 L607.47 113.55 L611.39 114.43 L615.32 115.28 L618.98 117.05 L622.73 118.50 L626.64 119.43 L630.55 120.39 L634.60 120.99 L638.29 122.61 L642.22 123.57 L646.22 124.38 L649.70 126.54 L653.41 128.10 L657.22 129.43 L660.92 131.00 L664.65 132.54 L667.97 134.95 L671.87 136.09 L675.62 137.60 L679.40 139.04 L683.71 139.45 L687.13 141.64 L691.08 142.82 L694.90 144.29 L699.16 144.98 L702.49 147.36 L706.37 148.78 L711.04 148.93 L713.88 152.13 L717.49 154.05 L721.61 155.20 L724.76 157.87 L727.36 161.34 L731.05 163.17 L734.47 165.41 L737.56 168.12 L741.04 170.27 L744.24 172.81 L748.22 174.33 L752.41 175.61 L755.57 178.24 L759.24 180.24 L762.94 182.22 L766.31 184.62 L769.86 186.83 L772.60 189.97 L775.74 192.65 L779.36 194.81 L782.39 197.63 L785.02 200.86 L788.93 202.77 L791.09 206.48 L793.50 209.91 L797.74 211.55 L800.33 214.81 L802.35 218.58 L805.11 221.65 L808.00 224.61 L811.86 226.72 L813.44 230.83 L816.09 234.00 L821.74 234.70 L824.76 237.62 L826.89 241.26 L831.05 243.30 L833.10 247.01 L834.70 251.03 L838.43 253.48 L840.57 257.09 L841.95 261.23 L844.97 264.22 L849.27 266.37 L850.74 270.43 L852.95 273.99 L856.11 276.96 L858.24 280.58 L860.05 284.39 L862.43 287.86 L864.80 291.34 L866.68 295.11 L869.34 298.44 L871.02 302.32 L873.48 305.77 L874.73 309.86 L876.11 313.86 L877.35 317.93 L878.97 321.80 L880.48 325.71 L883.08 329.13 L885.77 332.54 L887.61 336.33 L890.21 339.81 L892.72 343.34 L894.01 347.38 L895.40 351.37 L897.51 355.10 L899.29 358.96 L901.09 362.82 L902.05 366.96 L903.17 371.05 L904.75 374.99 L905.39 379.22 L906.53 383.30 L908.56 387.12 L908.57 391.51 L909.57 395.61 L910.83 399.66 L911.15 403.93 L912.17 408.02 L914.05 411.94 L915.10 416.05 L915.17 420.35 L916.65 424.37 L917.54 428.52 L917.89 432.75 L918.47 436.94 L918.71 441.18 L920.03 445.28 L919.70 449.58 L920.45 453.75 L921.67 457.88 L922.70 462.04 L923.29 466.25 L925.52 470.35 L929.07 474.42 L932.28 478.56 L934.69 482.80 L937.86 487.05 L940.21 491.39 L941.37 495.78 L941.66 500.00 L941.50 495.58 L942.23 491.15 L943.64 486.69 L945.42 482.17 L948.05 477.58 L949.66 472.99 L951.04 468.38 L953.08 463.68 L953.87 459.04 L954.04 454.44 L954.15 449.84 L953.99 445.26 L953.67 440.69 L952.36 436.25 L951.72 431.73 L950.35 427.32 L947.98 423.10 L948.10 418.46 L946.84 414.06 L944.69 409.86 L944.57 405.24 L944.16 400.68 L943.15 396.24 L941.31 392.00 L940.19 387.60 L939.85 382.99 L937.66 378.87 L935.55 374.76 L935.17 370.14 L932.86 366.10 L930.61 362.06 L929.76 357.58 L927.05 353.72 L925.23 349.58 L924.88 344.91 L923.24 340.69 L920.42 336.93 L918.50 332.85 L916.80 328.67 L913.30 325.26 L910.47 321.60 L908.36 317.64 L906.62 313.52 L905.27 309.21 L902.55 305.54 L900.44 301.60 L898.56 297.54 L896.07 293.80 L894.24 289.72 L891.42 286.16 L890.48 281.58 L888.36 277.64 L885.25 274.28 L881.83 271.12 L879.07 267.59 L877.14 263.55 L873.13 260.84 L872.07 256.23 L869.72 252.45 L865.25 250.12 L862.85 246.40 L860.80 242.42 L857.17 239.58 L854.40 236.14 L852.03 232.38 L849.28 228.92 L846.77 225.27 L843.54 222.19 L839.73 219.61 L839.22 214.28 L836.78 210.53 L832.61 208.28 L830.70 204.05 L826.96 201.46 L823.77 198.38 L820.52 195.36 L817.03 192.58 L814.29 189.09 L810.95 186.17 L806.67 184.25 L803.91 180.75 L800.44 178.01 L795.78 176.58 L793.14 172.97 L790.03 169.85 L786.05 167.74 L783.19 164.32 L779.85 161.48 L776.30 158.88 L773.18 155.75 L769.55 153.25 L765.53 151.29 L762.11 148.54 L757.67 147.19 L754.03 144.77 L749.92 143.02 L746.12 140.86 L742.70 138.14 L738.60 136.45 L735.21 133.69 L731.79 130.94 L728.06 128.69 L724.54 126.09 L720.80 123.84 L717.29 121.20 L713.81 118.47 L709.91 116.50 L706.13 114.28 L702.77 111.27 L698.86 109.30 L695.01 107.19 L691.14 105.11 L686.87 103.89 L682.94 101.96 L678.31 101.56 L673.78 101.04 L669.94 98.94 L665.79 97.59 L661.44 96.75 L657.47 94.96 L654.08 91.63 L649.71 90.89 L645.33 90.20 L641.75 87.25 L637.16 87.21 L633.17 85.41 L629.29 83.23 L624.67 83.43 L621.12 80.06 L616.92 78.85 L612.52 78.39 L608.39 76.91 L604.01 76.44 L599.60 76.14 L595.54 74.36 L590.91 75.13 L586.65 74.29 L582.28 74.02 L577.76 74.61 L573.46 74.09 L569.07 74.17 L564.91 72.85 L560.49 73.24 L556.27 72.25 L552.29 69.21 L547.78 70.52 L543.36 71.32 L539.22 69.27 L534.87 69.41 L530.51 69.76 L526.24 68.93 L521.98 67.75 L517.68 66.84 L513.28 68.89 L509.01 66.75 L504.66 68.31 L500.34 69.01 L496.02 67.44 L491.71 68.26 L487.39 68.45 L483.07 68.39 L478.77 68.93 L474.50 69.71 L470.17 69.60 L465.91 70.46 L461.51 69.69 L457.24 70.37 L453.02 71.51 L448.70 71.65 L444.51 72.88 L440.45 74.94 L436.08 74.81 L431.90 75.88 L427.78 77.24 L423.49 77.64 L419.23 78.20 L415.27 80.32 L411.28 82.12 L407.46 84.61 L403.11 84.70 L399.39 87.45 L395.37 88.87 L391.22 89.76 L387.38 91.82 L383.53 93.75 L379.80 96.03 L375.47 96.30 L371.66 98.23 L367.78 99.95 L363.26 99.74 L359.61 102.11 L355.57 103.34 L351.29 103.97 L348.23 107.77 L344.21 109.04 L339.90 109.62 L336.65 112.79 L332.49 113.76 L328.40 114.91 L324.67 116.90 L320.97 118.94 L317.04 120.47 L314.03 123.89 L310.49 126.19 L306.69 127.96 L303.64 131.15 L299.43 132.17 L296.18 134.94 L292.48 136.89 L288.73 138.75 L285.30 141.18 L281.62 143.17 L278.37 145.87 L274.62 147.76 L271.28 150.30 L268.41 153.51 L265.03 155.96 L261.69 158.45 L258.23 160.77 L254.84 163.19 L251.06 165.10 L248.14 168.15 L244.74 170.57 L241.58 173.29 L239.07 176.81 L235.67 179.21 L233.37 182.93 L230.32 185.74 L226.32 187.46 L224.02 191.12 L221.37 194.36 L217.49 196.27 L214.75 199.40 L212.64 203.17 L209.23 205.60 L206.04 208.27 L203.50 211.58 L199.97 213.92 L197.97 217.73 L194.91 220.54 L192.05 223.53 L190.43 227.61 L187.72 230.72 L185.15 233.95 L183.24 237.71 L180.16 240.52 L178.46 244.42 L176.84 248.37 L173.84 251.23 L172.50 255.35 L170.21 258.74 L167.91 262.12 L165.09 265.13 L162.97 268.63 L161.01 272.25 L157.86 275.06 L156.02 278.74 L153.75 282.15 L151.39 285.50 L149.37 289.06 L147.09 292.47 L145.68 296.38 L143.86 300.04 L141.76 303.55 L140.27 307.39 L138.72 311.18 L136.70 314.73 L134.90 318.39 L133.51 322.25 L131.11 325.62 L129.69 329.45 L128.37 333.33 L127.12 337.23 L125.76 341.07 L124.15 344.81 L123.60 348.96 L121.33 352.43 L120.26 356.37 L119.57 360.44 L117.68 364.08 L116.84 368.08 L115.89 372.03 L114.70 375.90 L113.38 379.73 L111.91 383.51 L110.80 387.41 L109.82 391.34 L108.98 395.31 L107.78 399.18 L107.17 403.20 L106.83 407.28 L105.64 411.15 L104.63 415.07 L104.41 419.15 L104.93 423.37 L104.34 427.35 L103.51 431.29 L103.80 435.41 L102.80 439.32 L101.80 443.24 L100.29 447.10 L101.08 451.25 L100.33 455.21 L100.05 459.23 L100.78 463.33 L99.29 467.23 L99.77 471.30 L99.32 475.29 L99.81 479.33 L99.80 483.34 L99.90 487.36 L99.52 491.35 L98.50 495.35 L98.66 499.36 L97.96 503.38 L97.40 507.41 L98.41 511.41 L98.01 515.45 L98.67 519.44 L98.56 523.47 L98.50 527.51 L99.12 531.50 L99.60 535.49 L100.86 539.41 L100.62 543.47 L102.03 547.34 L103.68 551.17 L104.08 555.15 L104.12 559.19 L105.19 563.07 L107.04 566.81 L107.78 570.73 L109.35 574.48 L111.46 578.12 L113.32 581.78 L113.97 585.68 L115.32 589.43 L116.68 593.16 L116.30 597.32 L117.92 600.99 L118.99 604.79 L119.43 608.78 L122.20 612.08 L123.83 615.71 L124.12 619.74 L126.93 622.97 L128.17 626.70 L129.15 630.52 L130.87 634.08 L132.28 637.74 L133.38 641.53 L135.99 644.72 L137.89 648.17 L138.62 652.11 L141.50 655.14 L142.81 658.83 L144.97 662.14 L145.90 666.01 L146.61 670.01 L148.61 673.40 L149.24 677.47 L151.01 680.98 L152.71 684.53 L154.71 687.92 L157.63 690.79 L159.37 694.31 L161.68 697.50 L163.47 701.00 L166.01 704.04 L168.40 707.16 L170.71 710.33 L174.25 712.68 L176.16 716.08 L178.58 719.14 L181.56 721.81 L182.51 725.90 L185.38 728.63 L188.25 731.34 L190.12 734.80 L193.62 737.01 L197.02 739.25 L198.77 742.80 L202.27 744.93 L205.08 747.61 L207.06 750.98 L209.79 753.71 L212.25 756.69 L214.58 759.78 L217.85 762.01 L221.02 764.31 L223.14 767.61 L227.02 769.19 L229.75 771.89 L232.57 774.48 L235.31 777.16 L237.18 780.77 L240.35 783.00 L242.76 786.06 L245.31 788.99 L248.17 791.57 L251.12 794.05 L254.68 795.80 L257.59 798.31 L260.77 800.48 L264.05 802.53 L267.02 804.95 L269.71 807.77 L273.17 809.54 L276.52 811.46 L279.50 813.89 L283.61 814.68 L286.61 817.06 L290.27 818.45 L294.33 819.19 L297.10 821.91 L300.65 823.41 L304.70 824.05 L307.52 826.72 L310.40 829.32 L314.61 829.59 L317.71 831.79 L320.77 834.09 L324.83 834.52 L327.55 837.49 L330.97 839.13 L334.75 840.01 L337.56 842.92 L341.26 843.96 L344.88 845.14 L348.24 846.91 L352.05 847.63 L355.52 849.10 L358.90 850.83 L362.79 851.27 L366.20 852.91 L370.02 853.47 L373.70 854.35 L377.45 855.01 L381.12 855.87 L384.54 857.50 L388.39 857.77 L391.60 860.11 L394.97 861.99 L398.85 862.12 L402.57 862.74 L405.97 864.60 L409.77 864.92 L413.56 865.24 L417.24 865.98 L420.75 867.52 L424.48 868.05 L428.45 867.32 L431.96 868.92 L435.83 868.53 L439.50 869.30 L443.18 870.00 L446.82 870.94 L450.65 870.56 L454.30 871.56 L458.09 871.31 L461.88 871.02 L465.57 871.65 L469.28 872.00 L472.98 872.67 L476.67 873.53 L480.42 873.32 L484.15 873.63 L487.92 872.86 L491.66 872.37 L495.38 873.19 L499.11 873.92 L502.84 873.48 L506.59 874.32 L510.34 874.51 L514.07 873.81 L517.75 872.46 L521.42 871.33 L525.17 871.72 L528.75 869.67 L532.38 868.66 L536.07 868.33 L539.67 867.20 L543.22 865.78 L546.81 864.82 L550.53 864.90 L554.03 863.36 L557.69 862.98 L561.47 863.28 L564.90 861.53 L568.59 861.28 L572.14 860.30 L575.36 857.74 L579.08 857.66 L582.58 856.51 L585.87 854.55 L589.52 854.11 L593.02 853.08 L596.58 852.24 L599.95 850.75 L603.52 849.97 L606.68 847.82 L610.29 847.17 L613.48 845.19 L616.71 843.42 L620.32 842.75 L623.50 840.87 L627.23 840.47 L630.64 839.23 L634.12 838.13 L637.89 837.75 L640.97 835.66 L644.40 834.42 L647.52 832.46 L650.73 830.74 L653.83 828.79 L657.14 827.30 L660.52 825.94 L663.59 823.96 L667.10 822.85 L670.11 820.77 L673.50 819.40 L676.48 817.28 L679.38 815.04 L682.64 813.44 L684.94 810.20 L688.02 808.32 L691.18 806.57 L693.50 803.48 L696.16 800.97 L699.71 799.81 L702.30 797.22 L704.36 793.89 L707.97 792.78 L710.23 789.79 L713.11 787.66 L716.63 786.38 L718.49 782.91 L722.07 781.68 L724.99 779.59 L726.92 776.28 L729.99 774.38 L732.50 771.80 L734.65 768.83 L737.98 767.20 L740.04 764.15 L742.22 761.25 L745.04 759.05 L746.80 755.74 L749.39 753.30 L751.53 750.42 L754.30 748.16 L756.59 745.44 L759.05 742.87 L762.12 740.88 L764.27 738.02 L766.71 735.43 L769.09 732.78 L771.34 730.02 L773.44 727.15 L775.13 723.94 L777.50 721.29 L779.14 718.07 L780.75 714.84 L782.93 712.06 L785.42 709.50 L786.87 706.18 L788.68 703.14 L791.31 700.66 L792.55 697.23 L794.90 694.55 L796.02 691.07 L797.21 687.66 L798.80 684.51 L800.51 681.44 L802.40 678.48 L803.85 675.26 L805.81 672.34 L807.77 669.41 L809.09 666.13 L810.65 662.99 L812.03 659.75 L813.60 656.62 L815.35 653.57 L817.40 650.66 L818.13 647.13 L819.75 644.01 L821.54 640.97 L822.33 637.49 L823.11 634.02 L824.96 631.00 L826.31 627.76 L826.74 624.17 L826.88 620.50 L828.34 617.32 L829.28 613.96 L829.37 610.32 L830.90 607.16 L832.43 603.99 L833.89 600.80 L833.15 596.95 L835.49 594.00 L835.60 590.42 L835.70 586.86 L837.68 583.78 L837.77 580.22 L838.54 576.84 L838.94 573.37 L839.40 569.93 L839.65 566.44 L842.17 563.39 L842.29 559.88 L842.29 556.36 L844.73 553.22 L845.19 549.77 L844.36 546.14 L845.37 542.76 L845.66 539.29 L845.56 535.78 L846.32 532.37 L846.55 528.89 L846.35 525.39 L846.98 521.95 L846.59 518.45 L845.42 514.93 L846.11 511.49 L845.20 508.01 L844.44 504.54 L844.54 501.10 L844.26 497.65 L843.31 494.23 L842.20 490.82 L841.52 487.42 L840.69 484.04 L841.16 480.60 L840.32 477.23 L839.86 473.84 L840.41 470.37 L838.69 467.11 L838.69 463.69 L838.26 460.31 L835.94 457.17 L835.91 453.75 L835.79 450.34 L833.59 447.26 L833.59 443.83 L832.96 440.51 L832.36 437.18 L831.41 433.92 L831.41 430.47 L829.27 427.47 L828.69 424.14 L827.77 420.90 L825.64 417.96 L825.55 414.51 L823.85 411.48 L824.19 407.90 L823.47 404.59 L822.33 401.42 L822.89 397.70 L821.73 394.52 L820.62 391.32 L819.56 388.11 L817.54 385.24 L816.22 382.12 L816.18 378.52 L817.04 374.54 L816.26 371.18 L816.94 367.19 L816.06 363.83 L813.06 361.39 L809.45 359.27 L806.66 356.82 L802.32 355.15 L799.14 352.98 L799.12 349.26 L797.94 346.10 L795.93 343.36 L794.27 340.46 L792.12 337.82 L788.07 336.28 L786.22 333.52 L784.46 330.71 L782.89 327.80 L785.40 322.33 L785.26 318.44 L784.66 314.79 L784.35 310.92 L781.14 308.98 L777.40 307.43 L774.70 305.21 L771.68 303.24 L767.73 301.99 L766.39 298.82 L764.47 296.09 L760.24 295.17 L758.41 292.39 L756.43 289.73 L752.67 288.55 L749.54 286.89 L747.82 284.04 L745.21 281.96 L744.42 278.25 L744.82 273.38 L742.87 270.63 L742.68 266.17 L741.42 262.69 L738.75 260.57 L733.98 260.61 L730.38 259.54 L726.74 258.54 L721.86 258.96 L719.65 256.51 L718.25 253.15 L714.75 252.15 L713.01 249.14 L710.90 246.54 L706.81 246.33 L703.86 244.78 L702.56 241.14 L699.11 240.24 L697.90 236.40 L696.72 232.44 L693.03 231.87 L691.31 228.58 L688.35 227.03 L685.05 225.99 L682.31 224.14 L678.77 223.52 L675.06 223.23 L672.36 221.37 L669.94 219.04 L665.88 219.46 L662.21 219.28 L659.98 216.65 L656.15 216.85 L652.10 217.56 L649.25 216.08 L646.02 215.35 L642.92 214.40 L642.83 207.30 L640.29 205.05 L638.30 201.58 L636.15 198.35 L632.62 198.16 L628.76 198.81 L625.22 198.78 L621.32 199.74 L617.48 200.66 L614.89 198.42 L612.01 196.91 L608.10 198.22 L605.19 196.84 L602.30 195.36 L598.46 196.79 L595.40 195.90 L592.91 193.13 L589.92 191.92 L587.30 189.38 L584.90 185.88 L581.81 184.86 L579.02 182.58 L575.75 182.18 L572.52 181.67 L568.87 183.09 L565.38 183.95 L561.94 184.68 L558.46 185.83 L555.29 185.42 L552.06 185.37 L548.87 185.14 L545.74 184.52 L542.40 185.43 L539.09 186.32 L535.96 185.88 L532.74 186.32 L529.48 187.22 L526.75 182.21 L523.64 181.04 L520.50 180.02 L517.43 177.44 L514.22 176.89 L510.95 177.98 L507.65 180.91 L504.46 180.97 L501.26 182.89 L498.09 183.37 L494.93 183.33 L491.75 182.98 L488.63 184.43 L485.45 184.14 L482.40 186.21 L479.37 187.93 L476.12 186.51 L473.03 187.27 L469.95 187.95 L466.34 183.68 L463.28 184.96 L460.20 185.82 L456.93 185.33 L453.72 185.34 L450.95 188.19 L447.77 188.31 L444.76 189.39 L442.18 192.74 L438.96 192.60 L436.18 194.60 L433.53 197.12 L430.32 196.98 L427.59 198.93 L425.17 202.00 L422.22 202.87 L419.45 204.37 L417.04 207.11 L412.70 203.16 L409.32 202.68 L406.11 202.83 L401.66 199.25 L398.62 200.13 L396.11 202.54 L393.60 204.87 L390.94 206.73 L389.23 210.99 L386.42 212.32 L382.71 211.40 L380.46 214.08 L377.95 216.11 L374.74 216.49 L372.49 219.02 L370.82 222.74 L367.87 223.66 L365.00 224.77 L362.63 226.87 L357.77 224.13 L354.68 224.92 L351.55 225.68 L347.89 225.50 L345.26 227.23 L343.59 230.60 L341.02 232.38 L339.25 235.44 L338.21 239.65 L334.94 240.20 L332.36 241.88 L331.62 246.34 L328.21 246.74 L325.75 248.56 L324.67 252.32 L323.33 255.65 L319.89 256.07 L318.43 259.17 L315.23 259.96 L310.06 258.28 L307.56 260.08 L303.71 260.23 L300.70 261.47 L299.13 264.41 L298.50 268.41 L297.06 271.41 L296.70 275.56 L295.33 278.54 L292.64 280.08 L290.46 282.18 L288.77 284.77 L285.77 286.03 L284.59 289.12 L284.35 293.06 L280.92 293.94 L278.25 295.57 L277.69 299.13 L272.07 298.16 L269.04 299.55 L267.99 302.68 L265.14 304.27 L263.19 306.62 L262.06 309.63 L261.95 313.42 L260.71 316.28 L259.52 319.16 L258.96 322.48 L257.85 325.37 L257.48 328.77 L256.07 331.40 L254.45 333.89 L254.00 337.14 L254.46 340.95 L252.55 343.21 L251.40 345.94 L249.35 348.12 L243.63 348.14 L240.85 349.97 L237.76 351.67 L235.48 353.85 L234.63 356.82 L235.11 360.48 L235.00 363.79 L235.60 367.43 L235.88 370.86 L232.98 372.73 L231.71 375.40 L232.40 378.96 L230.40 381.29 L229.28 384.02 L230.32 387.64 L230.35 390.80 L226.15 392.27 L225.97 395.36 L222.64 397.25 L218.60 398.94 L217.44 401.70 L214.65 403.92 L213.84 406.83 L212.84 409.66 L213.51 413.02 L214.07 416.30 L214.59 419.54 L214.70 422.64 L214.84 425.73 L214.99 428.81 L214.14 431.63 L212.70 434.31 L212.67 437.32 L212.01 440.19 L210.43 442.87 L210.93 445.97 L210.62 448.90 L207.14 451.30 L207.32 454.33 L207.63 457.37 L206.17 460.16 L207.68 463.33 L208.27 466.37 L208.70 469.37 L210.62 472.49 L211.81 475.51 L210.42 478.31 L210.65 481.23 L212.60 484.24 L211.64 487.08 L210.75 489.94 L212.51 492.88 L214.17 495.78 L212.41 498.63 L212.86 501.50 L213.63 504.36 L209.78 507.32 L208.70 510.26 L208.25 513.20 L208.42 516.12 L210.79 518.89 L211.91 521.71 L212.79 524.54 L215.90 527.13 L217.45 529.84 L215.99 532.87 L216.98 535.63 L218.74 538.27 L218.25 541.21 L217.73 544.17 L220.50 546.60 L220.58 549.47 L220.32 552.40 L223.04 554.77 L220.53 558.17 L219.53 561.31 L221.41 563.83 L219.23 567.29 L219.23 570.27 L221.64 572.63 L225.52 574.56 L226.79 577.15 L229.81 579.23 L233.08 581.17 L233.15 584.07 L233.30 586.97 L234.12 589.65 L236.13 591.92 L237.35 594.46 L240.01 596.44 L242.82 598.34 L243.60 600.99 L243.83 603.87 L240.84 608.11 L240.00 611.53 L238.70 615.19 L238.11 618.60 L240.06 620.86 L243.12 622.58 L246.07 624.30 L249.45 625.77 L253.42 626.88 L254.89 629.24 L256.50 631.52 L259.77 632.87 L261.06 635.30 L261.92 637.97 L264.44 639.68 L266.55 641.60 L267.81 644.03 L269.81 646.00 L268.65 650.00 L267.97 653.76 L269.32 656.21 L267.60 660.78 L268.65 663.50 L271.64 664.84 L274.49 666.23 L276.91 667.92 L281.27 668.09 L284.74 668.87 L285.76 671.56 L288.54 672.83 L291.34 674.06 L292.94 676.26 L295.43 677.70 L298.45 678.65 L300.41 680.51 L301.58 683.08 L303.82 684.68 L302.03 690.14 L302.97 693.06 L304.03 695.91 L304.03 699.86 L306.92 700.90 L310.37 701.30 L312.34 703.23 L316.64 702.61 L320.43 702.45 L322.52 704.17 L324.59 705.91 L328.10 705.93 L330.20 707.60 L331.55 710.20 L335.05 710.10 L338.48 710.03 L339.82 712.66 L342.85 713.03 L343.64 716.45 L343.69 721.02 L345.44 723.24 L346.11 727.10 L347.70 729.65 L349.93 731.28 L354.47 729.27 L357.75 729.14 L360.90 729.15 L364.89 727.68 L367.15 729.06 L369.37 730.51 L372.64 730.07 L374.69 731.80 L376.88 733.31 L380.02 732.97 L382.61 733.65 L384.71 735.30 L387.18 736.21 L387.78 741.13 L388.97 744.94 L391.40 746.11 L392.30 750.83 L395.23 750.90 L398.33 750.50 L401.22 750.53 L404.82 748.66 L407.93 747.91 L410.72 747.99 L413.15 749.02 L415.87 749.21 L418.25 750.38 L420.60 751.70 L423.54 751.12 L426.46 750.47 L429.01 751.06 L431.62 751.40 L434.19 751.87 L435.51 757.30 L437.91 758.69 L439.90 761.91 L442.15 764.20 L445.06 763.46 L448.02 762.39 L451.09 760.55 L454.18 758.31 L457.18 756.25 L459.92 755.57 L462.40 756.49 L465.21 755.06 L467.92 754.15 L470.32 755.68 L473.03 754.55 L475.67 753.76 L478.12 755.06 L480.72 754.60 L483.07 757.74 L485.46 761.28 L488.08 761.44 L490.58 764.72 L493.23 764.48 L495.90 762.96 L498.54 761.49 L501.15 758.87 L503.70 756.44 L506.23 755.01 L508.80 755.47 L511.28 753.84 L513.74 752.17 L516.28 752.39 L518.79 751.97 L521.17 750.21 L523.77 750.99 L526.37 751.62 L528.71 749.79 L531.91 755.10 L534.77 757.11 L537.36 756.86 L540.37 759.31 L542.88 758.42 L545.15 756.22 L547.16 752.82 L549.26 750.17 L551.29 747.40 L553.21 744.34 L556.06 745.58 L558.27 743.98 L560.52 742.66 L563.23 743.15 L565.25 740.97 L567.13 738.46 L570.03 739.53 L572.37 738.67 L575.13 739.11 L578.84 742.43 L581.38 741.97 L584.59 743.43 L587.51 743.95 L589.97 743.13 L591.59 740.11 L593.39 737.64 L595.08 735.03 L596.19 731.08 L598.33 729.73 L599.95 727.22 L601.55 724.73 L604.04 724.24 L606.15 722.91 L607.62 720.30 L609.70 718.98 L611.96 718.02 L613.66 715.98 L617.97 718.83 L621.57 720.21 L623.38 718.29 L628.21 721.64 L630.54 720.56 L631.13 716.58 L632.79 714.46 L634.32 712.16 L634.09 707.18 L635.24 704.43 L637.93 704.04 L639.52 702.01 L641.32 700.30 L643.56 699.22 L645.07 697.13 L646.33 694.73 L648.14 693.09 L650.34 691.95 L651.98 690.10 L657.39 692.88 L660.11 692.25 L662.43 691.12 L665.38 690.70 L666.27 687.90 L667.24 685.22 L667.40 681.72 L667.82 678.56 L668.54 675.76 L669.43 673.19 L670.55 670.88 L671.17 668.10 L672.54 666.09 L674.29 664.46 L674.94 661.79 L675.88 659.43 L678.13 658.25 L678.57 655.48 L682.94 656.09 L687.10 656.43 L688.95 654.79 L692.58 654.58 L695.65 653.85 L696.76 651.57 L695.57 647.56 L696.43 645.14 L696.00 641.82 L695.28 638.35 L696.80 636.48 L697.96 634.38 L697.94 631.49 L700.02 630.01 L700.82 627.70 L700.90 624.94 L701.66 622.63 L704.61 621.64 L705.60 619.46 L709.69 619.05 L712.74 617.98 L714.74 616.30 L717.60 615.06 L718.14 612.56 L718.55 610.02 L717.21 606.64 L716.54 603.63 L717.11 601.25 L716.62 598.40 L716.99 595.96 L718.12 593.86 L718.62 591.50 L721.10 589.95 L720.61 587.19 L720.87 584.74 L723.38 583.16 L723.63 580.71 L724.70 578.57 L728.20 577.24 L728.48 574.80 L730.64 572.96 L731.96 570.83 L731.21 568.08 L729.23 565.02 L728.18 562.26 L726.42 559.35 L724.38 556.43 L724.84 554.16 L724.94 551.81 L725.51 549.57 L725.78 547.27 L726.15 544.99 L726.40 542.69 L725.52 540.19 L726.95 538.11 L727.25 535.83 L730.09 533.92 L733.19 532.00 L733.47 529.66 L735.88 527.57 L737.16 525.32 L736.27 522.84 L733.71 520.24 L734.16 517.92 L730.86 515.35 L728.02 512.87 L728.39 510.60 L727.14 508.26 L726.37 505.97 L727.44 503.72 L727.10 501.45 L726.13 499.18 L726.13 496.92 L726.07 494.66 L725.29 492.42 L726.55 490.11 L725.82 487.88 L724.19 485.72 L724.63 483.43 L723.53 481.26 L721.99 479.15 L721.24 476.99 L720.77 474.81 L719.61 472.71 L718.85 470.58 L719.66 468.23 L718.17 466.22 L717.89 464.03 L718.33 461.71 L716.82 459.73 L715.31 457.78 L715.74 455.45 L714.18 453.53 L712.73 451.62 L713.11 449.28 L712.27 447.24 L711.29 445.23 L711.11 443.02 L710.07 441.04 L707.83 439.42 L707.58 437.24 L707.07 435.12 L705.42 433.38 L707.16 430.52 L705.66 428.72 L703.15 427.31 L703.65 424.82 L702.04 423.11 L699.50 421.79 L698.31 419.96 L697.93 417.80 L695.97 416.31 L694.94 414.43 L695.42 411.88 L693.02 410.63 L691.74 408.88 L691.90 406.44 L690.12 404.95 L688.35 403.46 L687.05 401.76 L685.22 400.34 L683.74 398.75 L682.94 396.80 L682.26 394.76 L681.59 392.72 L681.82 390.11 L679.73 388.91 L677.28 387.96 L677.10 385.58 L675.32 384.22 L672.94 383.30 L673.11 380.65 L671.47 379.23 L669.50 378.06 L668.40 376.28 L666.60 375.02 L664.45 374.04 L662.95 372.58 L661.98 370.71 L660.00 369.65 L659.51 367.37 L658.69 365.35 L656.47 364.52 L655.20 362.88 L654.18 361.01 L652.11 360.10 L650.65 358.63 L649.32 357.04 L647.04 356.38 L645.67 354.85 L644.61 352.99 L642.46 352.25 L641.54 350.23 L640.20 348.65 L638.16 347.83 L635.90 347.28 L634.65 345.59 L632.49 344.98 L630.27 344.45 L629.46 342.24 L627.94 340.87 L626.22 339.76 L624.54 338.59 L622.75 337.57 L620.50 337.20 L618.45 336.57 L616.87 335.31 L614.91 334.59 L613.92 332.46 L612.13 331.50 L609.94 331.15 L608.39 329.83 L606.46 329.12 L604.37 328.68 L602.38 328.09 L600.79 326.85 L598.68 326.52 L596.99 325.44 L596.09 322.92 L593.83 322.88 L592.05 321.95 L590.74 320.11 L588.39 320.33 L586.11 320.44 L584.29 319.63 L582.20 319.41 L579.84 319.86 L578.25 318.56 L576.49 317.64 L574.60 317.04 L573.17 315.29 L570.96 315.51 L568.77 315.72 L567.06 314.67 L565.03 314.49 L562.95 314.50 L561.29 313.29 L559.34 312.94 L557.10 313.56 L555.45 312.24 L553.43 312.19 L551.29 312.60 L549.55 311.60 L547.72 310.88 L545.73 310.80 L543.77 310.64 L542.02 309.54 L539.90 310.16 L537.94 310.07 L536.18 308.95 L534.13 309.39 L532.22 309.04 L530.30 308.81 L528.33 308.90 L526.29 309.52 L524.39 309.25 L522.47 309.14 L520.49 309.57 L518.63 308.87 L516.68 309.09 L514.74 309.37 L512.90 308.16 L510.94 308.91 L509.00 309.33 L507.11 308.67 L505.19 308.93 L503.27 309.77 L501.36 309.73 L499.46 309.89 L497.58 311.13 L495.69 311.08 L493.79 310.93 L491.92 311.53 L490.05 311.90 L488.15 311.66 L486.28 311.89 L484.45 312.72 L482.55 312.57 L480.71 313.04 L478.86 313.40 L476.98 313.57 L475.23 314.60 L473.39 314.94 L471.52 315.10 L469.78 316.07 L467.93 316.28 L466.03 316.28 L464.34 317.38 L462.75 318.90 L460.72 318.25 L459.04 319.24 L457.43 320.47 L455.41 319.98 L453.57 320.29 L451.84 321.01 L450.13 321.78 L448.34 322.25 L446.75 323.40 L445.12 324.34 L443.28 324.65 L441.70 325.73 L439.86 326.04 L438.03 326.38 L436.46 327.46 L434.74 328.11 L433.13 329.03 L431.55 330.03 L430.02 331.11 L428.18 331.46 L426.75 332.77 L425.23 333.83 L422.94 333.23 L421.76 335.02 L420.24 336.08 L418.28 336.22 L417.01 337.76 L415.84 339.46 L414.37 340.55 L412.81 341.46 L411.53 342.89 L409.64 343.22 L407.88 343.79 L406.42 344.88 L404.81 345.73 L403.51 347.07 L402.33 348.57 L401.16 350.06 L399.48 350.78 L398.17 352.05 L396.21 352.40 L394.53 353.15 L393.66 355.01 L391.47 355.10 L390.17 356.37 L389.20 358.07 L388.00 359.44 L386.80 360.83 L385.82 362.45 L384.42 363.56 L383.15 364.83 L382.22 366.48 L380.28 366.99 L378.79 368.01 L377.50 369.25 L376.53 370.83 L375.50 372.33 L374.43 373.79 L373.75 375.62 L372.54 376.91 L371.87 378.71 L370.68 380.01 L368.08 380.04 L367.84 382.21 L367.81 384.53 L365.48 384.85 L364.69 386.50 L364.50 388.63 L362.49 389.26 L361.71 390.89 L361.35 392.84 L359.69 393.78 L358.59 395.16 L358.70 397.41 L357.59 398.77 L356.82 400.36 L356.59 402.32 L355.32 403.55 L353.42 404.39 L352.98 406.19 L352.05 407.66 L350.10 408.52 L349.76 410.36 L349.79 412.40 L348.58 413.71 L348.14 415.46 L347.42 417.05 L344.17 417.29 L344.88 419.64 L344.12 421.22 L342.00 422.12 L343.09 424.60 L344.36 427.11 L343.24 428.49 L343.23 430.37 L343.29 432.27 L340.11 432.78 L339.39 434.36 L339.63 436.32 L337.91 437.51 L337.07 439.05 L337.56 441.08 L338.08 443.09 L337.82 444.82 L338.30 446.78 L336.42 447.97 L335.55 449.50 L336.31 451.52 L334.90 452.89 L334.27 454.50 L335.44 456.58 L337.18 458.78 L335.78 460.17 L335.88 461.93 L335.12 463.48 L333.42 464.85 L333.80 466.66 L333.49 468.33 L331.64 469.72 L331.83 471.49 L333.86 473.54 L332.32 475.01 L332.17 476.70 L333.83 478.62 L333.99 480.33 L333.68 481.97 L334.45 483.73 L333.46 485.31 L333.35 486.98 L335.56 488.81 L335.01 490.43 L333.64 492.01 L334.54 493.72 L332.69 495.32 L331.51 496.97 L331.96 498.66 L330.82 500.34 L331.96 502.02 L334.04 503.66 L335.66 505.27 L334.50 506.96 L335.41 508.57 L336.45 510.16 L334.02 511.98 L334.26 513.63 L335.38 515.19 L334.71 516.92 L335.25 518.54 L337.59 519.92 L337.34 521.60 L337.07 523.30 L339.53 524.59 L336.90 526.66 L337.84 528.18 L339.76 529.50 L338.95 531.31 L340.63 532.64 L343.33 533.73 L344.20 535.17 L342.83 537.14 L343.05 538.75 L341.74 540.75 L341.13 542.61 L341.71 544.15 L340.90 546.10 L343.17 547.15 L346.01 547.98 L347.83 549.09 L349.13 550.34 L351.21 551.30 L351.74 552.79 L350.48 554.92 L351.05 556.41 L352.24 557.66 L352.02 559.45 L353.24 560.68 L356.39 561.06 L355.93 562.97 L356.35 564.50 L356.73 566.06 L355.47 568.40 L355.08 570.37 L355.74 571.84 L356.78 573.12 L358.97 573.79 L361.60 574.18 L362.90 575.26 L364.27 576.29 L366.56 576.76 L366.03 578.86 L365.86 580.78 L367.36 581.69 L366.89 583.83 L368.02 584.98 L370.25 585.39 L371.32 586.54 L372.35 587.71 L374.73 587.93 L374.91 589.69 L375.80 590.94 L377.95 591.26 L378.31 592.90 L378.80 594.46 L381.06 594.63 L382.19 595.67 L382.48 597.40 L384.32 597.84 L385.97 598.41 L384.99 601.29 L386.06 602.39 L386.92 603.68 L387.57 605.17 L389.18 605.75 L391.59 605.55 L392.67 606.61 L394.46 606.95 L396.81 606.69 L396.65 609.01 L397.15 610.67 L398.97 610.92 L400.00 612.02 L400.13 614.15 L401.94 614.37 L403.91 614.37 L405.45 614.85 L407.42 614.78 L408.04 616.37 L409.68 616.68 L411.38 616.87 L411.95 618.57 L413.39 619.10 L414.92 619.49 L416.58 619.67 L417.35 621.13 L418.89 621.47 L419.76 622.80 L420.26 624.75 L422.05 624.67 L423.08 625.81 L423.72 627.61 L426.03 626.61 L428.30 625.58 L429.02 627.26 L430.50 627.60 L432.35 627.20 L433.19 628.72 L434.09 630.14 L435.52 630.56 L436.85 631.15 L438.21 631.68 L440.05 631.15 L441.47 631.50 L442.79 632.07 L444.51 631.71 L445.36 633.39 L446.59 634.20 L448.23 633.96 L448.99 636.03 L450.55 636.00 L452.31 635.36 L453.94 635.02 L454.88 636.74 L456.81 635.41 L458.21 635.69 L458.62 639.31 L460.56 637.80 L461.70 639.05 L463.11 639.35 L464.63 639.26 L466.59 637.26 L468.13 636.88 L469.49 637.21 L471.09 636.49 L472.46 636.74 L473.73 637.53 L475.06 638.02 L476.41 638.46 L477.89 638.07 L479.52 636.64 L480.90 636.74 L482.11 638.19 L483.68 636.80 L484.90 638.30 L486.19 639.33 L487.75 637.61 L489.00 639.35 L490.43 638.98 L491.89 637.88 L493.28 637.68 L494.63 638.56 L496.02 638.38 L497.40 638.43 L498.78 638.90 L500.17 639.47 L501.57 639.28 L502.95 638.66 L504.28 637.00 L505.61 635.92 L506.99 636.27 L508.35 636.23 L509.64 635.08 L511.25 638.22 L512.64 638.16 L513.95 637.35 L515.42 638.01 L516.56 635.90 L517.56 633.01 L518.96 633.38 L520.27 633.00 L521.45 631.85 L523.15 633.87 L524.49 633.62 L525.77 633.12 L527.19 633.28 L528.36 632.27 L529.31 630.33 L530.31 628.72 L531.86 629.48 L532.96 628.41 L534.16 627.78 L535.66 628.22 L536.92 627.80 L538.16 627.30 L539.56 627.33 L540.52 625.96 L541.37 624.33 L542.74 624.27 L543.58 622.71 L544.51 621.47 L546.98 624.33 L547.60 622.27 L548.68 621.44 L550.78 623.10 L551.53 621.45 L551.46 618.01 L553.34 619.05 L554.77 619.03 L555.63 617.79 L557.47 618.60 L558.68 618.08 L559.47 616.72 L560.86 616.55 L561.71 615.36 L562.07 613.28 L562.73 611.82 L564.33 612.04 L564.57 609.90 L565.48 608.94 L566.98 608.94 L567.19 606.88 L567.74 605.40 L569.13 605.22 L569.32 603.26 L569.82 601.78 L571.66 602.26 L572.20 600.87 L572.67 599.41 L574.59 599.93 L575.70 599.32 L576.79 598.68 L578.22 598.48 L578.56 596.90 L578.87 595.32 L579.95 594.68 L580.24 593.11 L579.84 590.80 L581.65 591.01 L583.83 591.58 L585.01 591.02 L585.46 589.70 L586.04 588.51 L586.58 587.31 L585.93 584.93 L585.53 582.86 L585.48 581.18 L588.30 582.19 L589.81 581.94 L589.70 580.20 L592.45 581.01 L593.22 580.05 L593.18 578.42 L593.25 576.89 L594.39 576.26 L594.26 574.61 L593.97 572.87 L596.11 573.00 L596.38 571.69 L596.35 570.18 L597.71 569.69 L598.07 568.48 L597.73 566.80 L598.00 565.56 L598.18 564.26 L598.37 562.99 L600.81 563.14 L601.04 561.89 L602.01 561.09 L603.52 560.59 L602.51 558.63 L601.84 556.91 L602.20 555.77 L602.51 554.62 L603.20 553.67 L605.97 553.77 L607.07 552.99 L606.95 551.60 L608.27 550.91 L608.53 549.72 L607.41 547.91 L606.46 546.21 L606.63 545.03 L605.87 543.46 L607.81 543.01 L608.81 542.15 L607.93 540.57 L610.36 540.23 L612.70 539.81 L612.62 538.52 L611.78 536.99 L611.97 535.81 L612.62 534.78 L611.35 533.17 L610.77 531.80 L610.49 530.52 L610.39 529.31 L609.57 527.93 L607.88 526.35 L606.03 524.78 L604.84 523.40 L603.68 522.05 L602.77 520.79 L602.18 519.61 L601.86 518.49 L601.57 517.39 L601.24 516.29 L601.05 515.23 L600.84 514.16 L600.61 513.11 L600.46 512.07 L600.28 511.03 L600.08 510.00 L599.92 508.97 L599.71 507.95 L599.51 506.93 L599.31 505.92 L599.12 504.92 L598.92 503.91 L598.71 502.92 L598.50 501.93 L598.30 500.94 Z"/>
  <svg class="pausebutton" id="pausebutton">
    <circle cx="500" cy="500" id="pausestart" class="pausestart" r="52.65"/>
    <rect height="50.02" width="10.00" y="473.68" rx="2.00" ry="2.00" x="479.99" class="pausesymbol"/>
    <rect height="50.02" width="10.00" y="473.68" rx="2.00" ry="2.00" x="510.00" class="pausesymbol"/>
    <polygon points="530.01,500 479.99,530.01 479.99,469.99" class="playsymbol"/>
  </svg>
  <polygon id="playback-head" class="playback-head" points="941.65,500 921.65,540 961.65,540"/>
</svg>