<?xml-stylesheet href="../../style/waveformjs.css" type="text/css"?>
<svg xmlns="http://www.w3.org/2000/svg" xmlns:xlink="http://www.w3.org/1999/xlink" width="100%" height="100%" viewBox="0 0 1000 1000">
  <path class="svg-wave" id="sp" d="M598.04 500.00 L598.22 500.98 L598.38 501.97 L598.54 502.96 L598.68 503.95 L598.81 504.94 L598.90 505.94 L598.99 506.94 L599.07 507.94 L599.13 508.95 L599.17 509.95 L599.20 510.96 L599.19 511.96 L599.12 512.96 L599.02 513.95 L598.91 514.95 L598.64 515.92 L598.32 516.88 L598.16 517.86 L597.95 518.84 L597.68 519.80 L597.65 520.81 L597.64 521.83 L597.61 522.86 L597.61 523.89 L597.62 524.93 L597.67 525.98 L597.73 527.05 L597.76 528.11 L597.82 529.19 L597.87 530.27 L597.84 531.34 L597.68 532.37 L597.38 533.35 L596.96 534.30 L596.46 535.21 L595.99 536.13 L595.14 536.90 L594.31 537.67 L593.95 538.62 L593.35 539.47 L592.93 540.39 L592.82 541.45 L592.67 542.50 L592.59 543.59 L592.42 544.65 L592.34 545.75 L592.38 546.93 L592.27 548.04 L592.29 549.23 L592.29 550.42 L592.13 551.53 L591.93 552.64 L591.55 553.64 L590.97 554.53 L590.25 555.33 L589.47 556.09 L588.49 556.72 L587.24 557.16 L586.33 557.80 L585.59 558.56 L584.65 559.16 L584.25 560.15 L583.95 561.21 L583.55 562.21 L583.34 563.35 L583.08 564.48 L582.93 565.70 L582.88 567.02 L582.56 568.14 L582.45 569.45 L582.31 570.75 L581.73 571.69 L581.23 572.70 L580.59 573.59 L579.71 574.26 L578.77 574.87 L577.82 575.46 L576.41 575.59 L574.85 575.54 L574.00 576.19 L572.97 576.65 L571.77 576.92 L571.29 577.95 L570.82 579.01 L570.23 579.95 L569.66 580.91 L569.20 582.03 L568.87 583.31 L568.50 584.56 L568.10 585.81 L567.81 587.23 L567.39 588.50 L566.74 589.49 L565.97 590.33 L565.05 590.97 L564.05 591.49 L562.95 591.85 L561.93 592.34 L560.43 592.07 L559.06 591.98 L558.20 592.67 L557.00 592.80 L555.97 593.20 L555.29 594.18 L554.63 595.24 L553.98 596.32 L553.39 597.55 L552.77 598.75 L552.19 600.06 L551.57 601.32 L550.87 602.48 L550.05 603.41 L549.07 604.01 L547.98 604.41 L546.84 604.67 L545.64 604.79 L544.54 605.12 L542.99 604.35 L541.48 603.60 L540.49 604.16 L539.20 603.89 L537.95 603.71 L537.16 604.77 L536.30 605.70 L535.47 606.73 L534.71 608.07 L533.90 609.27 L533.04 610.40 L532.23 611.76 L531.36 612.98 L530.36 613.75 L529.26 614.23 L528.10 614.44 L526.93 614.60 L525.72 614.61 L524.51 614.55 L523.10 613.50 L521.76 612.65 L520.65 612.96 L519.42 612.59 L518.23 612.42 L517.24 613.48 L516.23 614.52 L515.19 615.44 L514.16 616.64 L513.12 617.89 L512.03 618.92 L510.93 620.10 L509.81 621.10 L508.63 621.73 L507.42 621.89 L506.18 621.63 L504.94 621.12 L503.70 620.13 L502.49 619.95 L501.28 618.88 L500.09 617.93 L498.91 618.20 L497.73 618.13 L496.55 617.96 L495.35 618.59 L494.12 619.36 L492.87 620.30 L491.59 621.30 L490.29 622.28 L488.97 623.27 L487.66 623.95 L486.35 624.47 L485.10 624.38 L483.91 623.81 L482.79 622.86 L481.70 621.74 L480.58 620.97 L479.56 619.63 L478.43 619.09 L477.20 619.08 L475.91 619.35 L474.57 619.76 L473.29 619.90 L471.83 620.76 L470.31 621.74 L469.08 621.49 L467.63 622.08 L466.11 622.83 L464.70 623.11 L463.40 623.00 L462.20 622.56 L461.13 621.69 L460.19 620.46 L459.11 619.70 L458.30 618.17 L457.51 616.70 L456.27 616.47 L455.13 615.95 L454.07 615.27 L452.68 615.39 L451.22 615.62 L449.68 616.04 L448.08 616.50 L446.51 616.87 L444.86 617.38 L443.27 617.68 L441.78 617.75 L440.44 617.48 L439.26 616.91 L438.25 615.99 L437.65 614.35 L436.63 613.50 L436.00 611.98 L435.45 610.37 L434.22 609.93 L433.18 609.18 L432.07 608.54 L430.68 608.34 L429.21 608.23 L427.56 608.37 L426.02 608.32 L424.31 608.48 L422.55 608.67 L421.09 608.41 L419.64 608.12 L418.53 607.35 L417.76 606.14 L417.14 604.75 L416.48 603.45 L415.94 602.01 L415.54 600.43 L414.55 599.57 L413.52 598.76 L412.58 597.84 L411.30 597.30 L409.82 596.96 L408.26 596.68 L406.62 596.46 L404.96 596.23 L403.22 596.05 L401.54 595.78 L400.13 595.23 L399.08 594.32 L398.20 593.25 L397.68 591.86 L397.54 590.15 L396.86 588.94 L396.77 587.23 L396.51 585.69 L395.52 584.76 L394.67 583.72 L393.59 582.86 L392.19 582.23 L390.36 581.91 L388.67 581.44 L387.04 580.91 L385.36 580.40 L384.00 579.63 L382.94 578.65 L382.76 577.08 L382.59 575.52 L382.70 573.80 L383.08 571.94 L383.86 569.87 L385.61 567.27 L385.91 565.56 L382.66 565.88 L384.05 563.58 L383.28 562.50 L379.85 562.80 L378.95 561.73 L378.88 560.25 L380.16 558.12 L380.00 556.73 L379.85 555.34 L378.92 554.30 L378.68 552.96 L377.06 552.21 L376.03 551.19 L375.55 549.94 L374.42 548.94 L371.30 548.68 L371.95 546.97 L370.53 546.03 L366.95 545.81 L365.97 544.65 L364.59 543.61 L364.48 542.16 L363.42 540.99 L361.70 540.01 L361.86 538.47 L361.67 537.04 L362.07 535.45 L361.85 534.04 L360.15 532.98 L361.44 531.22 L362.44 529.55 L363.32 527.93 L364.17 526.35 L363.66 525.03 L364.89 523.41 L363.81 522.20 L362.26 521.04 L361.19 519.79 L361.04 518.39 L360.68 517.02 L358.98 515.80 L358.48 514.43 L358.23 513.02 L357.13 511.68 L356.86 510.27 L356.85 508.83 L356.26 507.42 L355.34 506.02 L353.95 504.62 L353.77 503.16 L353.36 501.70 L353.08 500.23 L352.43 498.76 L351.51 497.27 L351.94 495.79 L351.11 494.28 L349.95 492.73 L350.76 491.27 L350.96 489.79 L352.04 488.38 L352.25 486.90 L350.99 485.29 L352.94 484.00 L354.13 482.65 L355.45 481.34 L356.86 480.06 L356.73 478.58 L358.32 477.37 L357.79 475.82 L356.72 474.16 L356.01 472.55 L356.50 471.15 L356.55 469.66 L355.40 467.91 L355.46 466.40 L355.90 464.98 L355.69 463.40 L355.87 461.91 L356.47 460.52 L356.29 458.92 L355.79 457.22 L354.96 455.39 L354.97 453.80 L354.97 452.20 L355.31 450.70 L355.10 449.00 L354.67 447.21 L355.83 446.00 L355.59 444.25 L355.06 442.38 L356.41 441.24 L357.14 439.87 L358.58 438.80 L359.05 437.33 L358.54 435.40 L360.90 434.78 L362.65 433.92 L364.53 433.15 L366.44 432.42 L367.08 431.07 L369.09 430.44 L368.81 428.60 L368.58 426.77 L368.53 425.00 L369.29 423.69 L369.53 422.08 L369.07 420.02 L369.78 418.65 L370.59 417.34 L371.06 415.81 L372.59 414.98 L373.22 413.56 L373.57 411.93 L374.17 410.47 L373.73 408.24 L373.49 406.12 L373.03 403.80 L372.77 401.58 L372.59 399.39 L372.57 397.29 L373.07 395.58 L374.30 394.47 L375.74 393.54 L376.81 392.30 L377.84 391.03 L379.00 389.87 L379.47 388.07 L379.88 386.19 L380.83 384.81 L381.61 383.25 L382.70 381.99 L383.91 380.85 L385.18 379.77 L386.73 378.99 L387.67 377.56 L388.64 376.16 L389.64 374.77 L390.61 373.34 L391.64 371.97 L392.90 370.86 L394.44 370.10 L395.92 369.26 L397.40 368.45 L398.72 367.43 L400.17 366.59 L401.58 365.69 L402.85 364.60 L404.23 363.67 L405.98 363.27 L407.64 362.77 L409.07 361.93 L410.72 361.43 L412.50 361.17 L414.12 360.68 L415.62 359.99 L417.42 359.83 L419.05 359.40 L420.49 358.64 L421.48 357.08 L422.39 355.33 L423.08 353.11 L424.14 351.55 L425.31 350.14 L426.74 349.26 L428.56 349.19 L430.33 349.04 L431.64 347.91 L433.48 347.95 L434.93 347.11 L436.22 345.89 L437.96 345.75 L439.62 345.42 L441.02 344.43 L442.53 343.73 L444.00 342.89 L445.41 341.87 L447.15 341.78 L448.79 341.45 L450.10 340.03 L451.84 340.02 L452.99 337.97 L453.88 334.90 L455.36 333.79 L456.71 332.13 L458.06 330.39 L459.59 329.25 L461.29 328.83 L463.06 328.69 L464.77 328.31 L466.36 327.28 L467.98 326.41 L469.72 326.12 L471.43 325.62 L473.05 324.50 L474.74 323.82 L476.48 323.38 L478.24 323.08 L480.00 322.79 L481.77 322.53 L483.57 322.64 L485.37 322.88 L487.15 322.77 L488.90 322.36 L490.66 321.79 L492.47 322.39 L494.26 322.93 L496.02 322.38 L497.82 324.19 L499.58 325.59 L501.33 325.69 L503.06 326.41 L504.79 326.69 L506.53 326.58 L508.34 324.91 L510.18 323.55 L512.00 322.72 L513.90 321.25 L515.81 320.00 L517.68 319.47 L519.46 319.82 L521.22 320.39 L523.00 320.72 L524.86 320.47 L526.76 320.03 L528.59 320.13 L530.47 319.93 L532.48 319.04 L534.41 318.73 L536.28 318.81 L538.04 319.42 L539.84 319.82 L541.63 320.26 L543.34 321.04 L545.04 321.85 L546.82 322.28 L548.73 322.28 L550.60 322.43 L552.15 323.72 L553.75 324.76 L555.57 325.10 L556.79 327.25 L558.32 328.39 L560.00 329.08 L561.45 330.40 L563.17 330.94 L565.21 330.67 L567.05 330.96 L568.57 332.05 L570.51 332.11 L572.26 332.65 L574.24 332.68 L576.30 332.57 L577.73 333.87 L579.83 333.73 L581.96 333.58 L583.25 335.14 L584.86 336.05 L585.98 337.86 L587.78 338.40 L589.99 338.21 L590.51 341.05 L591.50 342.98 L592.38 345.04 L593.36 346.90 L594.82 347.95 L595.79 349.76 L598.29 349.20 L600.34 349.36 L602.40 349.55 L603.81 350.72 L605.56 351.39 L607.86 351.33 L609.33 352.43 L610.76 353.58 L612.77 353.98 L614.16 355.19 L615.50 356.47 L617.33 357.14 L619.46 357.48 L621.77 357.64 L623.50 358.51 L625.15 359.48 L626.62 360.67 L628.87 361.00 L630.63 361.90 L631.60 363.63 L633.97 363.93 L635.99 364.61 L636.70 366.60 L637.93 368.06 L638.61 370.04 L640.26 371.11 L642.15 371.97 L641.91 374.74 L642.28 376.91 L642.34 379.33 L642.90 381.29 L643.71 383.03 L644.02 385.15 L646.42 385.61 L648.12 386.65 L650.04 387.54 L650.77 389.33 L652.26 390.57 L654.43 391.33 L655.48 392.90 L656.62 394.41 L658.62 395.35 L659.67 396.94 L661.02 398.33 L662.54 399.63 L664.35 400.77 L667.53 401.12 L669.17 402.42 L670.85 403.72 L672.62 404.98 L673.98 406.49 L675.55 407.89 L675.33 410.23 L676.47 411.87 L677.48 413.57 L676.41 416.26 L677.20 418.05 L679.34 419.23 L680.99 420.65 L681.70 422.50 L684.34 423.54 L683.46 426.04 L684.01 427.96 L683.92 430.10 L681.21 433.20 L682.47 434.80 L684.58 436.12 L685.61 437.83 L686.66 439.55 L687.52 441.34 L689.11 442.91 L690.46 444.58 L689.15 447.00 L685.85 449.93 L684.33 452.31 L683.70 454.42 L683.23 456.48 L678.90 459.40 L684.58 460.04 L688.64 461.14 L686.81 463.46 L691.33 464.55 L694.77 465.93 L695.20 467.86 L695.83 469.77 L695.65 471.79 L696.91 473.62 L698.50 475.42 L698.19 477.47 L696.42 479.66 L697.04 481.59 L698.29 483.47 L698.51 485.45 L696.51 487.57 L694.59 489.64 L694.18 491.61 L696.50 493.48 L695.03 495.48 L694.97 497.43 L700.15 499.36 L701.66 501.37 L701.14 503.38 L700.63 505.38 L701.83 507.43 L701.84 509.46 L701.38 511.45 L701.89 513.51 L701.95 515.54 L701.70 517.55 L702.43 519.66 L702.42 521.70 L703.00 523.82 L703.99 526.01 L702.43 527.87 L697.83 529.25 L695.08 530.84 L695.05 532.84 L690.64 534.06 L687.16 535.38 L694.14 538.71 L694.64 540.84 L694.54 542.85 L700.61 546.30 L699.53 548.16 L699.15 550.18 L699.15 552.30 L698.25 554.19 L698.25 556.32 L699.17 558.75 L698.17 560.61 L695.76 562.02 L694.69 563.83 L695.58 566.30 L695.23 568.36 L691.24 569.12 L688.19 570.15 L688.25 572.33 L690.51 575.39 L687.30 576.30 L688.02 578.79 L690.64 582.14 L690.99 584.56 L691.27 586.98 L688.84 588.17 L688.57 590.35 L689.93 593.35 L687.83 594.66 L685.15 595.64 L685.67 598.28 L684.91 600.25 L681.99 601.04 L681.78 603.31 L681.70 605.69 L681.23 607.85 L678.14 608.44 L673.99 608.32 L671.75 609.31 L670.74 611.09 L665.33 609.94 L664.65 611.87 L670.38 618.28 L667.56 618.82 L669.42 622.70 L672.26 627.40 L669.60 628.08 L668.47 629.89 L668.48 632.61 L666.28 633.59 L665.05 635.34 L664.99 638.08 L662.78 639.02 L659.88 639.32 L658.40 640.85 L657.98 643.33 L656.28 644.66 L652.20 643.74 L650.08 644.61 L650.57 648.01 L649.04 649.46 L646.32 649.70 L648.26 654.75 L647.88 657.47 L647.08 659.80 L645.79 661.61 L642.62 661.31 L641.24 663.00 L640.76 665.78 L638.67 666.65 L636.72 667.70 L635.54 669.68 L634.56 671.96 L632.55 672.93 L629.97 673.12 L629.01 675.47 L627.86 677.60 L623.87 675.74 L619.65 673.41 L618.30 675.17 L616.30 675.98 L611.63 672.64 L612.75 678.26 L612.41 681.72 L610.10 682.02 L611.47 688.52 L610.37 691.00 L608.12 691.49 L607.22 694.41 L605.05 695.07 L602.88 695.71 L601.04 696.96 L599.61 699.06 L597.50 699.81 L594.57 698.83 L592.14 698.82 L590.99 701.58 L588.08 700.47 L584.55 697.79 L582.29 697.96 L581.75 702.33 L578.60 700.27 L576.53 700.89 L578.17 711.53 L575.90 711.87 L574.01 713.30 L574.53 721.94 L572.00 721.73 L569.65 722.03 L568.34 725.72 L566.13 726.57 L563.90 727.37 L561.66 728.13 L559.30 728.43 L556.74 727.92 L554.25 727.63 L552.41 730.06 L549.44 727.49 L545.87 721.74 L543.09 719.33 L540.84 719.46 L537.70 714.50 L534.93 711.10 L534.34 721.22 L532.23 722.27 L530.10 723.34 L529.46 736.36 L526.97 735.60 L524.53 735.05 L522.47 738.42 L520.10 738.82 L517.73 739.18 L515.34 739.49 L512.95 739.72 L510.50 738.69 L508.09 737.84 L505.76 740.15 L503.33 737.83 L500.93 732.45 L498.63 727.79 L496.37 726.31 L494.07 727.67 L492.01 721.79 L489.65 724.82 L486.91 733.39 L484.69 731.59 L482.08 735.23 L479.28 740.29 L476.97 739.16 L474.27 741.74 L471.83 741.68 L469.40 741.56 L466.96 741.39 L464.53 741.17 L462.24 740.04 L460.01 738.64 L457.75 737.55 L455.14 738.38 L453.57 733.84 L452.31 728.20 L450.68 724.76 L448.53 723.81 L447.90 716.64 L445.57 716.78 L440.64 726.76 L439.21 723.11 L435.84 726.52 L430.81 735.27 L428.75 733.62 L426.55 732.48 L423.27 734.67 L420.88 734.04 L418.49 733.37 L416.12 732.67 L413.89 731.56 L411.98 729.63 L410.02 727.92 L407.03 728.76 L405.94 724.96 L406.21 718.17 L405.16 714.67 L402.62 714.58 L401.81 710.74 L401.89 705.20 L396.99 710.00 L395.01 708.74 L394.09 705.43 L389.61 708.97 L386.98 708.86 L384.95 707.61 L382.56 707.03 L376.51 712.70 L377.19 706.73 L376.56 703.15 L374.91 701.30 L375.45 696.03 L372.84 695.79 L368.84 697.59 L368.77 693.46 L366.23 693.02 L360.93 696.46 L361.73 691.24 L360.02 689.57 L357.87 688.52 L355.58 687.63 L352.39 687.85 L347.14 690.58 L347.24 686.60 L345.68 684.70 L341.72 685.64 L343.68 679.67 L336.23 684.47 L333.96 683.30 L333.48 680.18 L325.84 684.71 L324.84 682.08 L325.74 677.56 L327.18 672.61 L326.56 669.80 L325.87 667.09 L326.36 663.32 L325.09 661.24 L325.05 658.08 L322.04 657.59 L319.37 656.76 L319.23 653.75 L315.25 653.97 L314.02 651.87 L310.88 651.31 L307.21 651.10 L308.88 646.74 L303.77 647.57 L300.39 647.01 L301.16 643.39 L292.15 646.75 L290.89 644.53 L291.28 641.20 L289.41 639.41 L292.50 634.40 L289.99 633.07 L291.64 629.12 L295.58 623.87 L295.37 621.22 L294.51 618.96 L293.43 616.84 L291.63 615.13 L290.35 613.12 L286.70 612.34 L280.87 612.63 L277.36 611.63 L278.96 608.08 L278.64 605.51 L266.99 608.21 L269.32 604.34 L267.63 602.32 L260.74 602.51 L261.38 599.42 L264.32 595.44 L267.02 591.65 L265.67 589.48 L268.68 585.69 L270.33 582.48 L268.53 580.52 L271.41 576.97 L272.18 574.18 L270.74 572.12 L271.59 569.35 L267.50 568.06 L263.93 566.55 L261.24 564.74 L260.37 562.41 L264.98 558.71 L262.62 556.78 L264.26 553.90 L265.51 551.15 L264.95 548.82 L264.07 546.54 L259.57 544.94 L256.16 543.06 L258.91 540.09 L260.42 537.38 L252.81 536.04 L257.85 532.84 L256.89 530.49 L254.85 528.26 L253.36 525.94 L255.37 523.25 L253.14 520.98 L248.79 518.82 L254.12 515.95 L250.27 513.69 L251.89 511.12 L251.45 508.65 L244.61 506.33 L248.24 503.72 L247.14 501.21 L244.18 498.66 L246.30 496.14 L247.66 493.63 L252.76 491.29 L253.60 488.85 L254.01 486.40 L255.69 484.04 L251.53 481.27 L249.99 478.64 L252.23 476.34 L249.79 473.57 L251.35 471.22 L250.42 468.58 L246.22 465.47 L248.47 463.21 L248.72 460.68 L250.42 458.38 L249.06 455.58 L251.98 453.53 L251.22 450.81 L250.97 448.16 L253.86 446.19 L248.12 442.29 L248.17 439.65 L254.59 438.58 L255.72 436.26 L256.98 433.99 L257.72 431.58 L254.42 427.99 L259.77 426.94 L260.35 424.50 L257.12 420.80 L260.09 419.10 L258.75 415.95 L260.19 413.76 L260.78 411.26 L262.96 409.36 L259.21 405.16 L258.32 402.00 L260.62 400.14 L259.62 396.89 L258.05 393.33 L261.35 391.93 L261.19 388.97 L267.30 388.96 L270.15 387.49 L266.57 382.83 L273.21 383.31 L274.68 381.20 L275.53 378.76 L278.64 377.56 L278.46 374.56 L279.29 372.09 L281.46 370.42 L282.50 368.07 L283.76 365.87 L286.72 364.73 L288.17 362.66 L287.71 359.32 L289.97 357.78 L291.75 355.93 L292.14 353.10 L295.07 352.07 L294.52 348.53 L296.03 346.47 L298.92 345.48 L298.02 341.54 L298.80 338.88 L301.01 337.36 L302.90 335.59 L303.96 333.12 L306.43 331.86 L308.35 330.13 L309.99 328.16 L311.38 325.96 L313.20 324.15 L315.45 322.75 L315.86 319.57 L318.24 318.30 L320.03 316.46 L321.61 314.39 L323.24 312.37 L325.29 310.79 L326.36 308.13 L328.06 306.15 L330.08 304.53 L331.38 302.05 L333.70 300.78 L334.49 297.64 L333.93 292.77 L335.00 289.83 L334.86 285.27 L335.93 282.19 L339.28 282.13 L344.52 284.76 L347.77 284.76 L351.77 285.91 L356.11 287.66 L356.70 283.91 L357.16 279.86 L360.96 280.95 L359.01 272.89 L359.28 268.19 L364.74 272.07 L364.77 266.84 L364.79 261.40 L368.85 263.08 L372.83 264.74 L373.78 260.82 L374.49 256.29 L377.25 255.69 L379.87 254.82 L380.52 249.84 L383.40 249.45 L387.77 252.39 L391.91 255.04 L395.54 256.72 L399.12 258.43 L401.19 256.55 L402.87 253.66 L405.59 253.37 L406.48 248.18 L406.76 241.02 L411.60 246.52 L413.83 244.76 L414.54 238.24 L417.21 237.56 L421.05 240.72 L423.51 239.47 L425.18 235.40 L428.42 236.83 L431.81 239.01 L434.13 237.17 L436.81 236.75 L439.69 237.18 L442.27 236.38 L444.94 235.93 L448.11 238.06 L450.72 237.49 L453.10 235.65 L455.61 234.39 L458.38 234.66 L460.83 232.83 L463.68 233.75 L466.28 232.87 L468.72 230.54 L471.77 233.62 L474.18 230.66 L476.71 228.55 L479.41 228.04 L482.19 228.73 L484.87 228.07 L487.61 228.42 L490.36 229.15 L493.08 229.36 L495.78 229.36 L498.49 228.80 L501.20 228.91 L503.91 228.69 L506.65 227.84 L509.37 227.84 L512.10 227.81 L514.84 227.69 L517.59 227.33 L520.33 227.40 L523.07 227.42 L525.78 227.78 L528.49 228.20 L531.30 227.68 L534.13 227.09 L537.26 224.47 L540.26 223.16 L543.41 221.16 L546.99 216.77 L549.57 218.67 L551.55 223.65 L554.11 225.22 L556.17 229.06 L557.65 235.27 L560.87 233.33 L564.47 230.04 L566.43 233.65 L570.13 230.32 L574.88 223.44 L575.82 230.69 L578.68 230.88 L583.21 225.58 L586.29 225.36 L587.44 231.13 L590.58 230.65 L594.73 227.36 L597.42 228.43 L599.55 231.00 L603.90 227.62 L606.98 227.77 L608.43 231.97 L609.75 236.33 L611.43 239.66 L612.10 245.16 L614.20 247.29 L617.84 246.03 L620.35 247.27 L623.19 247.84 L629.47 241.56 L630.44 246.00 L630.94 251.17 L636.84 246.16 L640.62 245.28 L640.76 250.95 L643.15 252.54 L648.86 248.50 L654.56 244.72 L655.00 249.69 L658.24 250.06 L663.12 247.98 L662.88 253.78 L664.03 257.34 L667.87 256.94 L668.34 261.40 L668.93 265.57 L673.00 264.92 L674.49 267.80 L674.73 272.26 L675.72 275.64 L677.74 277.68 L678.86 280.81 L682.88 280.41 L684.36 283.07 L686.21 285.29 L690.76 284.43 L693.36 285.85 L694.41 288.97 L696.78 290.64 L699.24 292.22 L700.34 295.22 L702.15 297.46 L704.14 299.51 L707.52 300.23 L708.53 303.24 L710.19 305.61 L712.72 307.18 L715.55 308.50 L716.59 311.42 L718.90 313.23 L720.78 315.41 L722.67 317.57 L725.62 318.90 L726.86 321.60 L729.07 323.54 L730.78 325.88 L732.79 327.99 L737.41 328.21 L740.27 329.79 L744.36 330.53 L750.46 329.98 L752.08 332.54 L750.52 337.17 L750.13 340.95 L749.40 344.90 L745.65 350.61 L746.53 353.43 L750.56 354.41 L752.26 356.78 L754.24 359.00 L762.85 357.64 L762.10 361.42 L761.57 365.03 L767.57 365.30 L770.38 367.26 L768.44 371.53 L769.36 374.38 L774.15 375.47 L779.19 376.53 L778.28 380.25 L781.71 382.10 L786.93 383.27 L784.11 387.72 L780.61 392.33 L780.78 395.48 L777.64 399.79 L775.02 403.84 L778.56 405.71 L781.89 407.72 L780.13 411.39 L787.45 412.22 L790.40 414.49 L784.60 419.28 L789.27 421.07 L793.84 422.97 L792.01 426.57 L791.82 429.71 L794.22 432.23 L796.65 434.79 L794.68 438.31 L793.34 441.64 L794.91 444.39 L794.83 447.46 L794.53 450.54 L796.39 453.27 L795.69 456.41 L794.19 459.63 L794.29 462.61 L797.94 465.17 L797.11 468.28 L796.18 471.37 L798.63 474.14 L796.48 477.31 L799.53 480.09 L799.90 483.08 L797.91 486.18 L802.28 489.00 L803.41 492.00 L802.39 495.05 L802.06 498.08 L802.67 501.10 L801.37 504.11 L800.73 507.11 L800.64 510.11 L801.02 513.14 L800.57 516.13 L799.68 519.09 L801.31 522.23 L800.59 525.20 L800.81 528.25 L800.15 531.22 L800.68 534.31 L800.16 537.30 L800.03 540.33 L799.99 543.39 L799.49 546.38 L800.36 549.59 L799.40 552.51 L801.02 555.91 L805.03 559.81 L804.39 562.85 L808.25 566.87 L810.89 570.71 L806.00 572.82 L800.56 574.71 L799.53 577.64 L795.12 579.66 L789.74 581.32 L791.00 584.82 L792.82 588.54 L789.94 590.84 L795.65 595.89 L797.87 599.91 L792.43 601.35 L794.81 605.49 L797.06 609.66 L793.36 611.64 L789.89 613.65 L790.80 617.38 L792.75 621.58 L789.95 623.83 L788.89 626.81 L792.93 632.09 L790.05 634.30 L785.01 635.44 L782.73 637.84 L779.74 639.86 L772.69 639.77 L772.69 643.23 L773.44 647.13 L770.69 649.16 L772.39 653.66 L775.95 659.33 L768.65 658.72 L767.81 661.86 L770.35 667.10 L768.62 669.77 L764.47 670.87 L764.69 674.79 L765.40 679.10 L761.63 680.38 L758.73 682.23 L759.48 686.67 L756.71 688.60 L755.30 691.53 L755.99 696.08 L757.68 701.49 L754.77 703.35 L753.77 706.75 L757.27 713.91 L750.56 712.60 L745.25 712.35 L744.31 715.85 L738.62 715.11 L736.12 717.18 L738.52 723.83 L732.98 723.05 L730.92 725.55 L731.84 731.02 L727.32 731.09 L726.76 735.19 L724.22 737.26 L721.94 739.60 L719.11 741.34 L721.69 749.14 L715.35 746.94 L713.22 749.50 L714.66 756.32 L709.96 755.86 L711.92 763.59 L709.35 765.79 L706.26 767.32 L707.24 774.22 L703.97 775.58 L699.51 775.27 L694.23 773.70 L690.02 773.53 L685.26 772.44 L682.45 774.17 L678.67 774.41 L674.78 774.39 L673.08 777.81 L670.94 780.58 L668.71 783.27 L665.83 784.88 L662.31 785.34 L660.81 789.40 L659.43 793.81 L655.50 793.53 L654.03 797.93 L651.29 799.94 L646.38 797.56 L647.95 808.50 L643.53 807.14 L640.33 808.28 L637.62 810.54 L632.88 808.11 L630.25 810.52 L625.01 806.59 L621.49 806.70 L619.78 811.44 L616.87 813.17 L614.40 816.18 L610.44 815.03 L606.81 814.75 L603.75 816.08 L601.12 818.80 L598.15 820.50 L593.89 817.93 L591.95 823.21 L590.79 831.71 L586.30 828.13 L584.39 834.45 L582.23 840.21 L578.60 840.04 L574.33 836.89 L570.17 833.84 L566.73 834.04 L562.37 829.34 L558.05 824.24 L555.04 826.19 L551.85 827.16 L547.96 823.53 L545.07 826.49 L542.03 828.73 L539.06 831.88 L535.96 834.25 L532.81 836.55 L529.46 837.10 L525.69 832.23 L522.46 833.84 L519.02 832.42 L515.63 831.20 L512.33 831.48 L509.02 831.95 L505.76 835.67 L502.43 838.66 L499.05 835.36 L495.72 833.38 L492.23 840.06 L489.01 834.68 L485.63 835.17 L482.17 837.09 L478.77 837.41 L475.40 837.10 L471.81 839.49 L468.67 836.49 L465.40 835.25 L461.49 839.89 L459.11 831.24 L455.13 835.81 L450.85 841.79 L447.96 837.87 L444.19 839.73 L439.63 845.80 L436.46 843.65 L434.03 837.86 L430.79 836.51 L427.85 833.85 L425.82 827.38 L422.47 826.93 L418.31 829.77 L414.58 830.63 L411.47 829.05 L407.01 832.33 L403.76 831.14 L401.11 827.98 L397.06 829.46 L392.74 831.61 L391.45 824.47 L388.54 822.43 L383.86 825.38 L381.28 822.38 L377.68 822.19 L373.20 824.18 L369.60 823.80 L365.49 824.61 L364.11 818.90 L361.49 816.23 L359.71 811.76 L358.84 805.50 L354.47 806.86 L348.82 810.72 L348.23 804.16 L345.18 802.66 L338.91 807.29 L336.30 804.81 L334.00 801.83 L329.03 803.64 L325.51 802.76 L322.78 800.51 L315.90 805.17 L317.04 796.53 L315.44 792.54 L307.49 798.49 L306.61 793.36 L306.22 787.65 L302.66 786.71 L298.81 786.12 L297.66 781.74 L296.28 777.74 L294.20 774.78 L290.88 773.47 L288.14 771.38 L286.86 767.47 L283.31 766.42 L280.70 764.19 L278.66 761.27 L275.39 759.82 L272.87 757.49 L271.80 753.54 L269.21 751.32 L265.08 750.74 L263.32 747.61 L261.17 744.91 L257.62 743.62 L256.81 739.60 L252.32 739.20 L249.81 736.82 L248.97 732.90 L244.03 732.77 L240.73 731.08 L239.24 727.77 L237.23 724.93 L234.32 722.86 L233.14 719.34 L231.40 716.30 L229.03 713.78 L226.45 711.41 L224.67 708.42 L223.09 705.30 L219.53 703.62 L217.90 700.53 L215.92 697.69 L214.11 694.73 L211.15 692.55 L209.63 689.40 L207.35 686.74 L204.95 684.15 L203.09 681.20 L200.71 678.58 L199.38 675.32 L195.70 673.41 L189.55 672.82 L186.53 670.42 L180.35 669.66 L175.96 667.86 L177.64 662.92 L180.51 657.48 L180.78 653.40 L183.04 648.43 L185.26 643.57 L181.35 641.52 L176.61 639.77 L178.22 635.27 L169.99 634.87 L165.20 632.93 L169.77 627.31 L164.82 625.38 L159.54 623.49 L160.61 619.28 L162.89 614.70 L159.68 612.01 L154.86 609.78 L154.53 606.10 L152.68 602.87 L146.86 600.77 L146.31 597.11 L149.16 592.57 L151.48 588.24 L153.39 584.07 L158.06 579.33 L155.45 576.31 L151.97 573.44 L153.05 569.60 L147.89 566.98 L139.73 564.80 L147.50 559.77 L146.50 556.31 L139.60 553.72 L139.20 550.10 L142.59 545.99 L141.73 542.46 L138.27 539.21 L140.43 535.34 L143.43 531.45 L141.79 527.98 L142.02 524.37 L142.35 520.75 L141.73 517.20 L141.07 513.63 L143.94 509.96 L143.75 506.40 L142.19 502.85 L141.51 499.27 L142.36 495.70 L141.36 492.10 L142.47 488.54 L142.17 484.95 L140.19 481.26 L143.57 477.86 L141.15 474.10 L139.31 470.34 L139.48 466.73 L140.57 463.20 L140.62 459.57 L141.51 456.03 L142.57 452.53 L143.33 449.00 L143.94 445.44 L144.32 441.86 L145.57 438.42 L146.46 434.92 L146.14 431.20 L146.53 427.60 L147.40 424.09 L148.17 420.57 L147.77 416.77 L148.78 413.29 L149.32 409.70 L150.39 406.23 L151.41 402.76 L151.49 399.02 L151.09 395.11 L148.06 390.35 L147.62 386.33 L146.11 381.93 L140.76 376.13 L144.77 373.53 L150.84 371.74 L153.18 368.65 L158.73 366.83 L165.38 365.56 L164.67 361.36 L162.64 356.56 L166.35 354.17 L164.06 349.16 L158.66 342.61 L166.41 342.12 L167.44 338.52 L163.52 332.43 L164.77 328.86 L170.54 327.62 L170.73 323.51 L169.16 318.38 L171.80 315.54 L175.70 313.44 L172.31 307.10 L174.04 303.71 L178.88 302.22 L183.24 300.50 L186.99 298.47 L193.34 298.19 L196.72 296.04 L196.67 291.57 L197.71 287.81 L199.67 284.66 L194.90 276.60 L200.15 275.80 L205.84 275.43 L202.88 268.43 L203.75 264.31 L209.59 264.18 L211.54 260.93 L210.24 254.93 L209.84 249.57 L214.42 248.50 L215.68 244.51 L215.91 239.53 L221.41 239.40 L225.23 237.78 L225.98 233.21 L230.54 232.35 L235.41 231.88 L235.33 226.37 L235.76 221.29 L240.26 220.50 L243.28 218.15 L244.10 213.34 L248.79 212.86 L249.21 207.49 L252.81 205.79 L256.72 204.49 L257.64 199.53 L262.36 199.28 L263.91 195.03 L267.46 193.32 L270.76 191.31 L270.45 184.35 L275.06 184.09 L279.98 184.37 L281.09 179.17 L285.16 178.27 L291.57 181.01 L293.54 177.01 L293.78 170.16 L297.51 168.80 L302.28 169.22 L304.74 165.80 L308.10 163.87 L310.40 160.05 L314.23 158.95 L318.94 159.54 L321.26 155.64 L325.23 154.87 L327.97 151.69 L331.21 149.48 L335.50 149.45 L336.69 142.74 L339.39 139.15 L344.08 140.03 L348.65 140.77 L352.79 140.61 L356.07 138.36 L359.98 137.67 L363.42 135.78 L364.83 128.28 L368.23 126.01 L372.32 125.71 L376.65 126.22 L381.11 127.24 L385.33 127.68 L388.51 124.70 L393.19 126.81 L397.28 127.03 L400.08 122.49 L403.12 118.63 L407.44 119.73 L410.77 116.78 L413.65 111.59 L417.75 111.73 L422.22 113.84 L426.45 114.98 L429.95 112.31 L433.96 112.40 L438.17 113.85 L441.26 108.04 L444.78 104.58 L449.02 106.25 L452.93 105.48 L457.06 106.73 L461.36 109.99 L464.98 106.51 L469.09 108.41 L473.26 111.67 L476.99 108.91 L480.68 104.12 L484.65 104.17 L488.61 103.95 L492.47 98.54 L496.51 101.10 L500.49 104.10 L504.48 101.63 L508.43 103.40 L512.25 108.03 L516.25 106.29 L520.44 101.42 L524.38 102.34 L528.17 105.18 L532.27 103.65 L536.19 104.41 L540.42 102.11 L544.56 101.05 L548.21 104.33 L552.50 102.24 L556.37 103.55 L560.51 102.96 L564.55 103.16 L567.95 107.06 L572.85 102.47 L576.91 102.77 L580.05 107.61 L584.13 107.69 L588.75 105.42 L591.30 112.23 L595.06 113.63 L600.06 110.13 L604.44 109.34 L607.47 113.54 L611.78 113.10 L615.59 114.39 L619.59 115.10 L624.41 113.26 L627.14 117.92 L631.21 118.48 L635.07 119.67 L638.87 121.02 L643.80 119.40 L646.34 124.08 L650.75 123.93 L657.13 119.09 L660.06 122.73 L661.82 128.94 L665.51 130.60 L669.81 130.95 L673.37 132.92 L676.45 135.87 L682.38 133.04 L687.23 132.54 L690.77 134.66 L693.74 137.86 L695.75 142.74 L698.03 146.99 L703.19 146.14 L705.53 150.21 L706.80 155.98 L711.66 155.73 L716.76 155.21 L718.87 159.46 L722.48 161.34 L728.51 159.63 L731.93 161.89 L735.20 164.37 L736.85 169.11 L740.30 171.27 L745.49 171.13 L746.36 176.76 L750.56 177.98 L756.90 176.56 L760.33 178.89 L762.47 182.78 L764.91 186.28 L767.10 190.03 L770.81 192.01 L774.59 193.94 L773.87 200.80 L778.64 201.64 L784.59 201.31 L786.89 204.87 L787.83 209.77 L795.96 207.47 L799.98 209.37 L802.34 212.90 L806.51 214.71 L809.65 217.51 L814.87 218.47 L817.34 221.92 L819.61 225.53 L824.31 227.08 L826.04 231.15 L826.05 236.57 L827.51 240.76 L830.30 243.89 L832.76 247.27 L834.78 250.98 L836.09 255.18 L837.37 259.37 L838.59 263.58 L840.87 267.02 L839.09 273.18 L844.85 274.29 L849.74 276.05 L848.42 281.77 L852.49 284.10 L856.10 286.76 L857.60 290.69 L860.55 293.78 L863.54 296.86 L867.62 299.38 L871.77 301.91 L873.99 305.51 L875.32 309.56 L875.73 314.05 L876.99 318.10 L880.23 321.20 L880.68 325.62 L879.05 330.93 L881.34 334.46 L885.57 337.19 L884.55 342.13 L884.43 346.65 L890.86 348.60 L894.24 351.81 L894.56 356.17 L896.58 359.91 L900.02 363.18 L902.33 366.87 L902.89 371.14 L904.06 375.21 L905.59 379.16 L908.02 382.87 L909.28 386.93 L908.26 391.59 L910.75 395.31 L913.44 399.02 L913.31 403.42 L910.81 408.33 L910.34 412.73 L912.50 416.57 L910.79 421.19 L907.51 426.03 L915.44 428.88 L917.01 432.89 L917.07 437.16 L923.50 440.51 L924.41 444.71 L925.63 448.87 L926.56 453.08 L926.45 457.40 L927.53 461.61 L928.86 465.81 L929.90 470.05 L929.39 474.40 L930.41 478.65 L933.81 482.83 L934.05 487.17 L931.00 491.57 L927.68 495.91 L955.71 500.00 L955.38 495.45 L951.49 490.97 L949.13 486.52 L949.52 482.01 L952.33 477.36 L952.42 472.82 L951.33 468.35 L952.62 463.71 L952.18 459.19 L950.79 454.77 L950.49 450.25 L950.62 445.66 L949.62 441.22 L947.95 436.87 L952.56 431.60 L951.45 427.15 L950.48 422.67 L955.62 417.09 L951.39 413.19 L948.98 408.99 L948.49 404.41 L946.16 400.23 L942.12 396.48 L939.93 392.34 L940.64 387.49 L938.74 383.28 L935.10 379.58 L935.56 374.75 L934.24 370.42 L931.73 366.45 L929.86 362.31 L927.91 358.20 L927.14 353.70 L926.69 349.06 L924.84 344.92 L923.01 340.78 L923.43 335.77 L924.21 330.57 L920.40 327.19 L917.60 323.44 L918.81 317.97 L914.90 314.72 L910.44 311.76 L907.51 308.15 L905.25 304.24 L901.89 300.88 L897.64 298.01 L895.17 294.27 L893.10 290.33 L892.20 285.74 L891.06 281.26 L889.16 277.18 L886.88 273.32 L884.47 269.54 L882.10 265.73 L881.37 260.90 L875.89 259.07 L876.72 253.19 L877.25 247.41 L870.46 246.56 L867.69 243.01 L864.64 239.68 L859.88 237.61 L854.79 235.85 L851.80 232.56 L850.00 228.36 L845.76 226.07 L840.80 224.41 L837.11 221.77 L833.09 219.45 L831.00 215.50 L827.03 213.17 L823.53 210.47 L822.73 205.32 L819.83 202.05 L817.78 197.97 L814.00 195.52 L812.07 191.28 L813.71 183.39 L808.10 182.77 L805.31 179.29 L805.14 172.98 L802.50 169.24 L796.42 169.31 L793.46 165.95 L790.61 162.45 L785.47 161.62 L779.97 161.33 L776.07 159.17 L772.65 156.41 L771.15 151.20 L768.47 147.43 L763.21 147.07 L761.19 142.37 L757.04 140.56 L751.96 140.11 L748.12 137.95 L744.63 135.27 L743.29 129.30 L739.64 126.78 L734.41 126.77 L732.02 122.23 L729.15 118.41 L722.80 120.43 L717.77 120.36 L715.81 114.90 L710.82 114.82 L705.06 116.28 L700.56 115.51 L696.60 113.74 L693.25 110.73 L690.93 105.55 L685.90 105.93 L682.33 103.28 L679.00 100.03 L674.11 100.28 L668.72 101.82 L664.15 101.56 L661.98 95.38 L658.36 92.66 L652.97 94.58 L649.72 90.84 L645.49 89.73 L641.33 88.46 L637.16 87.21 L631.97 89.15 L629.01 84.12 L624.99 82.38 L620.43 82.43 L616.60 80.00 L611.68 81.54 L607.76 79.37 L604.50 74.44 L599.84 75.10 L594.37 79.58 L590.69 76.15 L586.35 75.78 L581.41 78.52 L577.14 77.99 L573.68 72.78 L568.86 75.42 L564.75 73.90 L560.54 72.85 L556.16 73.11 L552.12 70.66 L547.46 73.44 L543.33 71.62 L539.29 68.51 L534.87 69.33 L530.64 67.90 L526.24 68.88 L521.86 70.03 L517.71 66.05 L513.42 64.25 L508.96 69.17 L504.65 69.65 L500.34 68.23 L496.05 71.18 L491.78 71.93 L487.40 68.61 L483.15 70.32 L478.91 71.65 L474.36 67.39 L469.94 66.36 L465.95 70.98 L461.81 72.96 L457.33 71.31 L453.30 74.07 L449.47 78.07 L445.43 80.03 L441.41 81.82 L436.87 80.02 L431.95 76.15 L428.08 79.03 L423.91 79.97 L419.29 78.51 L415.72 82.53 L412.28 86.82 L408.28 88.30 L403.46 86.21 L398.82 85.13 L394.97 87.29 L390.24 86.09 L385.29 84.23 L381.81 87.74 L378.86 92.86 L374.54 93.26 L370.70 95.23 L367.69 99.66 L364.24 102.63 L360.17 103.71 L356.14 104.92 L350.53 101.93 L346.91 104.36 L343.49 107.24 L338.93 107.26 L335.78 110.72 L332.98 114.88 L329.72 117.87 L325.30 118.28 L319.76 116.36 L316.79 119.95 L312.75 121.31 L308.99 123.24 L305.42 125.52 L300.96 126.12 L298.78 130.97 L295.63 133.94 L290.89 134.11 L287.46 136.59 L283.46 138.11 L281.07 142.28 L277.81 144.98 L272.17 143.92 L267.74 144.88 L267.36 151.95 L264.09 154.58 L259.84 155.80 L258.44 161.07 L255.85 164.58 L250.10 163.80 L247.61 167.44 L244.93 170.81 L240.05 171.35 L237.79 175.22 L233.61 176.71 L231.58 180.81 L229.27 184.52 L224.34 185.20 L223.16 190.16 L218.27 190.96 L216.08 194.75 L214.46 199.09 L209.43 199.86 L204.29 200.61 L204.02 206.27 L202.65 210.75 L198.36 212.39 L196.74 216.58 L196.69 222.16 L192.23 223.69 L188.37 225.80 L187.85 230.84 L183.08 232.20 L176.62 232.24 L174.09 235.59 L174.61 241.36 L170.70 243.59 L163.22 243.13 L164.31 249.24 L164.57 254.61 L156.45 253.91 L154.86 257.95 L151.40 260.70 L147.43 263.12 L147.28 268.11 L148.80 274.10 L148.27 278.70 L149.60 284.40 L150.66 289.84 L148.23 293.14 L141.59 294.03 L142.21 299.12 L139.86 302.51 L135.25 304.70 L132.08 307.71 L134.99 313.85 L133.31 317.60 L126.61 318.90 L125.46 322.94 L129.55 329.39 L121.04 330.04 L115.99 332.37 L116.24 337.03 L111.77 339.69 L109.02 343.12 L113.21 349.27 L114.06 354.03 L114.19 358.47 L119.01 364.54 L119.25 368.91 L112.05 370.75 L110.08 374.41 L108.04 378.07 L103.18 380.89 L100.27 384.37 L98.70 388.25 L98.33 392.46 L98.01 396.67 L96.97 400.69 L96.56 404.86 L94.83 408.72 L94.68 412.93 L94.36 417.10 L93.71 421.19 L91.80 425.05 L92.39 429.36 L92.97 433.65 L92.10 437.69 L91.91 441.83 L92.56 446.07 L92.50 450.21 L92.34 454.32 L91.57 458.36 L91.54 462.48 L91.25 466.57 L88.76 470.51 L86.61 474.51 L89.96 478.83 L88.11 482.86 L88.39 486.99 L89.38 491.13 L89.14 495.24 L90.71 499.35 L89.82 503.45 L88.76 507.57 L89.42 511.67 L92.38 515.66 L91.60 519.78 L91.84 523.87 L93.26 527.87 L93.91 531.91 L93.78 536.01 L98.22 539.67 L100.61 543.47 L98.66 547.74 L99.08 551.77 L103.48 555.23 L103.53 559.28 L99.18 564.03 L100.36 567.95 L108.45 570.61 L102.63 575.77 L100.31 580.36 L103.10 583.94 L101.58 588.43 L101.45 592.65 L107.92 595.29 L111.64 598.51 L115.64 601.59 L121.77 604.03 L124.05 607.46 L120.14 612.70 L121.75 616.35 L123.25 620.02 L119.56 625.40 L119.35 629.71 L123.94 632.35 L127.90 635.15 L126.84 639.78 L126.10 644.34 L132.66 646.04 L131.33 650.86 L127.24 656.90 L130.81 659.76 L130.12 664.47 L130.01 668.97 L136.31 670.51 L141.36 672.54 L143.58 675.88 L149.93 677.12 L154.67 679.08 L153.65 684.03 L152.14 689.32 L153.68 692.99 L152.54 698.21 L153.44 702.31 L155.88 705.53 L157.56 709.20 L160.40 712.16 L162.12 715.81 L164.57 719.00 L167.36 721.95 L169.27 725.49 L172.46 728.15 L174.75 731.42 L177.68 734.22 L179.38 737.92 L182.52 740.55 L185.21 743.51 L187.52 746.75 L190.65 749.35 L194.03 751.71 L197.27 754.16 L199.37 757.57 L201.86 760.65 L204.84 763.30 L206.98 766.70 L207.40 771.72 L212.12 772.75 L214.72 775.74 L215.87 780.19 L220.82 780.87 L222.28 785.04 L226.32 786.57 L230.07 788.36 L231.92 792.19 L235.15 794.53 L239.31 795.80 L242.17 798.52 L244.63 801.72 L248.11 803.72 L251.62 805.65 L254.21 808.73 L259.23 808.70 L262.61 810.72 L265.75 813.06 L269.71 814.27 L274.71 813.99 L279.86 813.38 L282.17 816.78 L284.59 820.06 L290.77 817.70 L295.92 816.73 L294.58 825.91 L299.56 825.18 L306.48 821.10 L306.56 828.36 L311.16 828.00 L313.49 831.58 L314.82 837.06 L319.60 836.28 L323.61 836.84 L323.61 845.20 L327.30 846.48 L333.33 842.94 L334.49 849.39 L336.90 853.41 L342.73 849.93 L347.52 848.54 L351.71 848.41 L357.11 845.27 L359.83 848.53 L362.91 850.95 L365.29 855.31 L368.93 856.42 L372.95 856.46 L375.05 861.97 L379.21 861.59 L384.62 857.24 L387.17 861.70 L390.51 863.72 L395.02 861.82 L399.00 861.59 L401.58 866.46 L405.72 865.58 L408.85 868.64 L411.72 873.04 L415.42 874.05 L420.51 868.61 L424.65 867.22 L428.55 866.81 L433.25 861.94 L437.08 861.34 L439.69 868.14 L443.10 870.48 L447.27 867.81 L450.13 874.46 L453.35 879.24 L458.17 870.61 L461.38 875.90 L465.31 874.41 L469.27 872.14 L472.89 873.80 L476.66 873.64 L480.42 873.46 L484.09 875.17 L487.84 875.38 L491.70 870.59 L495.33 876.99 L499.11 874.21 L502.83 871.99 L506.60 874.93 L510.42 877.19 L514.21 877.77 L517.97 877.12 L521.62 874.79 L525.26 873.02 L529.02 873.21 L532.30 867.72 L536.09 868.57 L539.91 869.45 L543.88 871.39 L547.99 873.98 L551.83 874.28 L555.92 876.10 L558.98 871.08 L562.50 869.39 L566.27 869.19 L568.91 862.99 L571.35 856.33 L574.69 854.56 L577.36 849.87 L579.91 845.01 L583.06 842.94 L587.63 846.65 L592.25 850.14 L594.52 844.73 L599.90 850.55 L604.63 853.71 L606.79 848.18 L610.17 846.77 L614.08 847.02 L617.74 846.45 L620.15 842.26 L622.68 838.58 L626.87 839.51 L629.75 836.90 L634.57 839.26 L637.37 836.48 L638.60 830.01 L642.39 829.77 L644.23 825.06 L648.00 824.75 L650.81 822.35 L652.76 818.18 L660.19 825.27 L661.25 819.34 L664.95 818.69 L669.30 819.23 L671.16 815.09 L676.11 816.61 L680.74 817.43 L682.86 813.81 L685.57 811.27 L689.02 809.97 L692.39 808.50 L696.30 807.88 L697.51 803.04 L699.58 799.62 L702.41 797.39 L702.86 791.74 L704.16 787.43 L704.51 781.91 L705.56 777.47 L707.64 774.49 L714.04 777.15 L715.86 773.80 L718.46 771.48 L725.23 774.23 L725.62 769.17 L732.02 771.25 L734.50 768.66 L733.70 762.40 L740.68 764.86 L742.03 761.04 L744.66 758.65 L746.60 755.53 L749.84 753.76 L749.86 748.76 L755.32 749.15 L757.82 746.61 L757.65 741.56 L763.47 742.12 L765.31 738.96 L764.83 733.77 L768.05 731.88 L767.17 726.49 L765.01 720.14 L772.36 721.69 L775.47 719.67 L777.05 716.44 L781.70 715.57 L786.71 714.89 L790.09 712.93 L790.48 708.77 L795.14 707.68 L796.32 704.11 L796.26 699.73 L800.44 698.21 L804.02 696.24 L802.30 690.87 L803.51 687.41 L809.68 686.97 L811.68 683.95 L808.58 677.99 L815.12 677.58 L819.62 675.93 L820.21 672.11 L822.95 669.44 L824.67 666.22 L821.76 660.69 L822.83 657.22 L822.42 653.05 L820.59 648.27 L821.24 644.69 L826.10 642.97 L825.94 639.03 L824.53 634.61 L829.45 632.80 L832.29 630.10 L830.17 625.48 L829.33 621.40 L833.80 619.28 L837.33 616.75 L832.48 611.36 L836.68 609.03 L843.33 607.40 L841.67 603.14 L845.31 600.49 L848.22 597.57 L844.81 592.90 L842.88 588.72 L843.39 585.19 L838.36 580.36 L835.51 576.15 L840.08 573.62 L843.63 570.80 L844.48 567.39 L849.36 564.72 L851.46 561.48 L851.49 557.87 L852.48 554.42 L852.29 550.79 L853.12 547.31 L853.22 543.73 L853.22 540.15 L853.83 536.64 L853.55 533.04 L854.15 529.53 L853.30 525.90 L854.24 522.41 L853.25 518.81 L853.30 515.27 L853.33 511.73 L852.62 508.18 L851.66 504.64 L850.47 501.12 L850.99 497.61 L850.77 494.10 L849.96 490.61 L850.76 487.08 L854.09 483.41 L851.36 480.02 L851.08 476.51 L852.93 472.84 L850.21 469.52 L851.60 465.85 L849.64 462.51 L848.41 459.11 L850.04 455.37 L848.74 451.99 L846.85 448.71 L846.75 445.17 L846.77 441.61 L845.60 438.25 L844.91 434.81 L844.11 431.39 L840.28 428.60 L836.57 425.86 L837.18 422.18 L837.39 418.57 L835.13 415.56 L831.28 413.00 L832.64 409.08 L835.10 404.79 L827.60 403.38 L828.43 399.55 L833.24 394.42 L829.55 391.95 L830.74 387.89 L831.11 384.06 L825.35 382.41 L821.29 380.23 L818.96 377.45 L812.11 376.49 L807.40 374.79 L810.07 370.07 L809.87 366.49 L806.28 364.39 L807.95 359.96 L809.54 355.48 L807.40 352.72 L802.70 351.23 L801.52 348.05 L803.98 342.97 L799.74 341.35 L796.09 339.47 L800.35 333.25 L798.48 330.36 L797.41 327.01 L797.90 322.72 L794.47 320.75 L788.65 320.31 L785.19 318.48 L780.52 317.48 L774.57 317.42 L772.96 314.53 L775.17 308.98 L774.05 305.67 L773.67 301.79 L774.39 297.06 L772.29 294.37 L770.12 291.74 L768.30 288.83 L765.27 286.88 L763.65 283.81 L761.35 281.28 L759.00 278.81 L756.59 276.39 L753.18 274.87 L751.63 271.70 L749.60 268.95 L746.46 267.24 L743.01 265.85 L741.51 262.60 L738.59 260.73 L735.63 258.93 L732.48 257.35 L730.31 254.74 L727.93 252.37 L724.79 250.82 L722.82 247.98 L722.50 243.21 L719.27 241.77 L715.66 240.80 L714.23 237.23 L710.22 236.81 L707.41 234.94 L702.81 235.42 L698.01 236.25 L694.53 235.42 L693.15 231.71 L688.13 233.09 L683.31 234.33 L681.90 230.65 L677.60 231.27 L671.95 234.07 L671.90 228.23 L669.64 225.77 L665.42 226.52 L666.12 219.05 L665.82 213.05 L662.82 211.61 L657.72 214.01 L655.51 211.23 L655.48 204.24 L650.00 207.59 L645.85 208.54 L646.34 200.12 L643.03 199.29 L640.17 197.55 L638.05 194.14 L634.05 194.90 L629.10 198.01 L625.73 197.56 L621.36 199.64 L616.94 202.03 L614.41 199.66 L612.89 194.52 L608.64 196.73 L605.46 196.06 L603.34 192.27 L600.64 190.06 L596.38 192.77 L593.67 190.60 L591.79 185.51 L588.58 184.84 L584.01 189.20 L582.29 182.98 L579.66 180.01 L575.95 181.36 L573.43 177.68 L570.45 175.81 L566.19 180.02 L562.37 182.51 L558.99 183.01 L555.03 186.88 L551.47 188.94 L549.18 183.15 L546.25 180.98 L543.11 180.16 L540.28 176.81 L537.18 175.18 L533.99 174.27 L530.69 174.42 L527.38 174.74 L524.13 174.44 L520.85 174.54 L517.62 173.82 L514.35 173.92 L511.06 174.78 L507.79 175.09 L504.56 173.62 L501.30 174.72 L498.05 175.95 L494.80 175.39 L491.57 176.24 L488.37 177.16 L485.16 177.65 L481.98 178.63 L478.75 178.60 L475.61 179.76 L472.39 179.82 L468.99 178.08 L465.60 176.72 L462.79 180.74 L459.30 178.72 L456.12 179.41 L453.10 181.06 L449.74 180.45 L446.81 182.58 L443.48 182.21 L440.16 182.02 L437.18 183.62 L434.43 186.22 L431.15 186.23 L427.94 186.62 L424.93 187.88 L421.99 189.34 L418.85 189.98 L416.74 194.42 L414.17 196.97 L410.59 195.96 L407.61 197.07 L405.58 201.16 L402.50 201.82 L398.09 198.58 L395.41 200.55 L394.78 208.14 L389.64 203.24 L385.69 201.76 L383.11 203.93 L379.35 203.14 L376.20 203.89 L375.01 209.26 L373.25 213.11 L371.39 216.59 L370.38 221.79 L368.31 224.59 L363.42 221.55 L361.00 223.63 L359.60 227.68 L355.23 225.95 L351.53 225.63 L350.82 230.79 L349.30 234.34 L344.17 231.60 L340.26 231.08 L340.68 237.81 L336.17 236.36 L330.51 233.24 L329.64 237.70 L325.81 237.58 L322.20 237.87 L320.92 241.59 L320.31 246.17 L318.67 249.21 L317.97 253.48 L317.76 258.28 L314.11 258.51 L310.10 258.33 L307.55 260.07 L303.11 259.50 L300.14 260.79 L298.12 263.23 L295.03 264.42 L293.19 267.05 L290.40 268.61 L287.87 270.47 L286.09 273.14 L283.69 275.14 L282.08 277.96 L280.01 280.28 L278.48 283.14 L275.60 284.67 L274.15 287.58 L272.18 289.97 L270.18 292.34 L268.54 295.03 L267.47 298.20 L265.95 300.95 L263.65 303.03 L261.94 305.60 L260.15 308.10 L257.41 309.86 L253.63 310.84 L253.71 314.79 L251.46 316.96 L248.12 318.36 L248.62 322.51 L245.18 323.88 L244.73 327.31 L244.11 330.60 L241.07 332.29 L240.14 335.35 L239.95 338.85 L237.95 341.21 L236.04 343.64 L234.44 346.26 L232.41 348.64 L230.47 351.08 L231.00 354.86 L229.84 357.71 L231.64 362.07 L236.08 367.67 L229.76 367.86 L232.35 372.43 L236.14 377.46 L233.13 379.29 L234.66 383.17 L230.64 384.59 L228.25 386.78 L228.92 390.22 L225.68 392.09 L221.07 393.48 L221.26 396.74 L220.76 399.72 L221.08 402.97 L217.52 404.89 L219.96 408.82 L215.24 410.42 L214.49 413.31 L217.67 417.35 L214.29 419.46 L215.12 422.76 L213.41 425.36 L214.25 428.62 L220.12 433.06 L217.89 435.50 L211.97 437.17 L213.60 440.52 L212.90 443.36 L212.58 446.28 L213.55 449.42 L211.30 451.99 L212.48 455.14 L212.08 458.02 L213.85 461.20 L210.01 463.63 L209.56 466.52 L211.53 469.66 L208.37 472.28 L210.45 475.39 L207.83 478.11 L203.41 480.76 L205.03 483.83 L205.73 486.81 L207.04 489.81 L212.05 492.86 L214.07 495.77 L216.04 498.64 L213.52 501.50 L213.08 504.37 L216.64 507.15 L210.64 510.20 L210.93 513.08 L213.06 515.86 L210.23 518.93 L216.24 521.39 L211.83 524.62 L210.95 527.61 L214.31 530.17 L214.83 533.00 L213.42 536.07 L214.11 538.90 L220.32 540.90 L213.63 544.81 L217.11 547.17 L220.75 549.44 L218.00 552.84 L215.24 556.31 L215.51 559.22 L216.28 562.02 L218.71 564.45 L221.22 566.81 L221.20 569.77 L227.43 571.12 L227.07 574.13 L226.73 577.17 L225.08 580.61 L222.78 584.31 L225.00 586.64 L223.89 590.04 L226.09 592.36 L231.87 593.41 L233.50 595.84 L236.90 597.60 L243.01 598.27 L246.58 599.82 L250.09 601.33 L253.94 602.65 L256.80 604.32 L253.82 608.53 L255.37 610.78 L259.06 612.03 L251.48 618.59 L252.11 621.35 L254.96 623.00 L255.71 625.70 L255.80 628.76 L257.21 631.14 L258.73 633.45 L257.39 637.37 L259.58 639.32 L262.45 640.85 L262.30 644.18 L268.13 643.83 L274.36 643.11 L277.66 644.15 L281.49 644.80 L280.45 648.67 L283.54 649.75 L285.19 651.81 L280.87 658.17 L285.15 658.38 L284.39 662.29 L281.99 667.54 L286.78 667.27 L284.61 672.48 L285.39 675.41 L288.39 676.52 L289.62 679.08 L293.49 679.38 L293.14 683.35 L294.41 685.93 L298.42 686.00 L300.43 687.88 L304.15 688.10 L308.90 687.25 L313.62 686.31 L317.81 685.80 L321.52 685.70 L324.37 686.43 L322.25 692.51 L325.58 692.73 L326.63 695.47 L324.77 701.58 L329.99 699.57 L329.45 704.32 L331.96 705.45 L336.70 703.77 L337.24 707.32 L338.46 710.05 L338.95 713.81 L341.09 715.42 L344.87 714.76 L346.72 716.72 L347.54 720.21 L350.76 720.22 L354.31 719.68 L355.69 722.40 L356.87 725.49 L361.12 723.71 L363.31 725.17 L367.01 724.11 L371.88 720.91 L370.32 728.83 L371.75 731.68 L373.52 733.98 L375.82 735.31 L376.75 739.32 L379.80 739.25 L382.77 739.28 L383.50 743.91 L388.07 740.52 L391.33 739.74 L393.81 740.65 L397.65 738.37 L402.56 733.34 L406.15 731.22 L407.91 733.56 L410.70 733.29 L413.56 732.77 L416.09 733.07 L418.50 733.68 L420.91 734.28 L423.32 734.86 L424.83 738.29 L427.49 738.13 L430.26 737.53 L429.98 747.63 L431.57 751.59 L434.88 749.23 L434.78 760.21 L437.45 760.58 L441.73 753.94 L444.36 754.10 L447.52 751.67 L451.25 746.09 L454.51 742.28 L456.76 743.74 L459.38 743.08 L462.03 742.10 L464.61 741.40 L467.06 741.50 L469.50 741.61 L471.94 741.71 L474.37 741.84 L476.56 744.48 L479.12 743.43 L481.17 748.65 L483.44 752.14 L486.06 750.61 L488.16 759.54 L490.69 761.62 L493.45 756.10 L496.00 757.09 L498.58 754.65 L501.10 749.51 L503.52 743.89 L505.89 741.20 L508.37 743.01 L510.74 741.61 L513.08 740.02 L515.46 739.61 L517.84 739.22 L520.21 738.84 L522.58 738.45 L525.25 740.94 L527.52 739.49 L529.80 738.28 L533.81 749.97 L536.35 749.92 L538.94 750.14 L542.96 758.90 L544.74 753.88 L546.36 748.52 L548.62 746.90 L550.39 743.03 L551.41 736.06 L553.01 732.23 L555.71 733.28 L557.74 731.51 L559.67 729.46 L561.80 728.26 L564.02 727.41 L566.24 726.56 L568.45 725.71 L571.56 727.75 L573.54 726.13 L575.36 724.09 L580.04 730.35 L582.68 730.47 L584.92 729.49 L590.66 737.66 L592.88 736.35 L594.06 732.51 L597.47 734.17 L599.05 731.41 L599.92 727.14 L602.18 726.12 L604.87 726.01 L606.63 723.91 L608.56 722.23 L610.84 721.25 L612.43 718.93 L613.98 716.59 L616.23 715.60 L618.56 714.76 L620.67 713.50 L622.32 711.46 L625.77 712.50 L630.14 714.94 L630.27 710.38 L634.46 712.38 L638.79 714.43 L638.32 709.10 L641.54 709.38 L643.19 707.33 L643.04 702.74 L643.80 699.56 L645.46 697.66 L646.39 694.81 L646.65 691.15 L648.75 689.92 L651.59 689.61 L653.40 687.98 L655.36 686.56 L657.29 685.07 L659.34 683.73 L660.22 681.05 L661.07 678.39 L663.11 677.05 L664.63 675.16 L667.73 674.92 L672.99 676.83 L672.92 673.26 L675.00 671.87 L677.56 670.92 L677.21 667.21 L676.70 663.42 L678.41 661.72 L680.69 660.53 L681.29 657.85 L682.16 655.43 L683.45 653.38 L684.26 650.96 L684.72 648.27 L685.26 645.68 L687.31 644.29 L688.51 642.23 L688.97 639.63 L694.48 640.72 L697.94 640.23 L697.11 636.70 L705.24 639.32 L705.81 636.72 L703.42 632.22 L707.12 631.70 L706.95 628.70 L704.54 624.38 L704.88 621.80 L706.06 619.73 L705.74 616.81 L704.96 613.67 L705.76 611.44 L707.39 609.65 L707.80 607.23 L708.14 604.78 L708.59 602.41 L710.75 600.86 L711.07 598.43 L712.30 596.44 L714.41 594.82 L715.76 592.85 L720.64 592.34 L722.75 590.62 L720.92 587.31 L723.76 585.86 L723.26 583.11 L720.93 579.74 L718.64 576.45 L719.10 574.16 L721.71 572.58 L721.73 570.14 L721.22 567.55 L722.73 565.59 L723.69 563.45 L722.81 560.80 L722.07 558.21 L723.69 556.25 L723.94 553.94 L723.00 551.36 L729.83 550.52 L730.10 548.17 L730.51 545.86 L737.44 544.77 L733.16 541.56 L730.71 538.74 L731.88 536.56 L729.45 533.83 L726.00 531.01 L725.89 528.70 L727.63 526.61 L726.40 524.17 L725.09 521.76 L726.48 519.61 L727.87 517.44 L727.41 515.12 L727.20 512.82 L727.97 510.58 L727.53 508.28 L725.84 505.96 L726.39 503.71 L725.89 501.44 L727.45 499.17 L732.72 496.83 L731.90 494.52 L729.62 492.28 L731.49 489.89 L729.20 487.70 L725.08 485.66 L723.06 483.55 L724.15 481.21 L724.73 478.90 L723.69 476.74 L723.06 474.54 L722.66 472.33 L722.11 470.14 L720.91 468.05 L718.89 466.10 L719.86 463.70 L720.15 461.39 L721.26 458.91 L725.21 455.84 L722.50 454.06 L725.06 451.18 L727.63 448.23 L721.35 447.32 L722.20 444.77 L721.74 442.52 L717.30 441.35 L714.58 439.77 L713.75 437.70 L712.60 435.72 L710.31 434.11 L708.13 432.50 L708.13 430.19 L708.96 427.58 L708.97 425.22 L707.67 423.34 L705.13 421.94 L703.29 420.30 L699.87 419.33 L695.84 418.67 L695.91 416.33 L693.63 415.01 L692.57 413.16 L692.37 410.93 L690.34 409.55 L687.09 408.78 L685.38 407.32 L684.49 405.44 L683.25 403.75 L681.97 402.09 L681.19 400.16 L680.53 398.15 L679.98 396.08 L679.09 394.19 L678.18 392.31 L677.28 390.42 L676.12 388.69 L675.10 386.87 L673.95 385.13 L672.72 383.44 L672.08 381.36 L671.02 379.54 L669.30 378.20 L667.84 376.69 L666.33 375.22 L664.93 373.67 L664.20 371.61 L663.92 369.16 L661.93 368.08 L660.34 366.69 L658.70 365.34 L656.04 364.90 L653.24 364.61 L650.82 364.04 L649.45 362.54 L647.67 361.43 L645.91 360.31 L644.52 358.84 L642.77 357.74 L641.21 356.45 L639.78 355.02 L638.36 353.60 L636.72 352.41 L635.12 351.18 L634.01 349.40 L633.08 347.39 L631.32 346.34 L629.88 344.91 L628.56 343.33 L627.06 341.97 L625.50 340.67 L623.73 339.64 L622.02 338.54 L620.81 336.77 L619.15 335.61 L617.01 335.11 L615.22 334.15 L613.39 333.25 L611.61 332.28 L610.24 330.70 L609.13 328.67 L607.01 328.24 L605.10 327.48 L603.14 326.83 L600.67 327.07 L598.09 327.56 L595.69 327.79 L594.04 326.69 L592.08 326.18 L590.11 325.72 L588.42 324.70 L586.45 324.26 L584.60 323.59 L582.87 322.67 L580.99 322.08 L579.11 321.50 L577.30 320.77 L575.78 319.33 L574.55 317.17 L572.63 316.66 L571.20 314.87 L569.66 313.33 L567.59 313.20 L565.56 312.97 L563.35 313.32 L561.07 313.97 L559.05 313.85 L557.08 313.61 L555.32 312.70 L553.39 312.32 L551.60 311.48 L549.77 310.75 L547.70 310.95 L545.57 311.46 L543.48 311.91 L541.40 312.38 L539.38 312.65 L537.37 312.94 L535.45 312.82 L533.63 312.19 L531.84 311.29 L530.01 310.64 L528.12 310.29 L526.25 309.85 L524.33 309.73 L522.36 310.07 L520.39 310.51 L518.43 310.96 L516.50 311.20 L514.63 310.78 L512.81 309.64 L510.98 308.17 L509.07 307.80 L507.20 306.40 L505.27 306.00 L503.32 306.75 L501.38 307.69 L499.46 308.83 L497.56 310.15 L495.68 310.98 L493.80 311.13 L491.90 310.91 L490.02 311.36 L488.11 310.95 L486.21 310.96 L484.39 311.95 L482.58 312.92 L480.80 313.94 L479.04 315.03 L477.27 315.88 L475.52 316.77 L473.74 317.43 L471.94 317.81 L470.08 317.91 L468.25 318.15 L466.47 318.65 L464.61 318.76 L462.77 318.98 L461.00 319.53 L459.27 320.26 L457.54 320.96 L455.83 321.70 L454.04 322.10 L452.03 321.70 L449.98 321.23 L448.12 321.50 L446.15 321.39 L443.96 320.63 L442.12 321.04 L440.71 322.77 L438.67 322.58 L436.88 323.15 L435.42 324.63 L433.87 325.80 L432.35 327.04 L431.01 328.69 L429.50 329.85 L428.35 331.86 L427.12 333.62 L425.40 334.21 L423.93 335.37 L422.75 337.10 L420.94 337.51 L419.13 337.93 L417.06 337.86 L415.58 338.95 L413.87 339.61 L411.82 339.66 L410.50 341.05 L409.41 342.82 L408.09 344.16 L407.20 346.17 L405.94 347.55 L404.71 348.96 L403.69 350.67 L402.35 351.87 L401.02 353.07 L400.00 354.71 L398.70 355.93 L397.38 357.11 L396.29 358.60 L395.03 359.84 L393.78 361.09 L392.69 362.53 L391.60 363.97 L390.48 365.34 L389.36 366.71 L388.21 368.04 L386.88 369.14 L385.43 370.12 L383.89 370.99 L382.55 372.10 L381.14 373.14 L379.99 374.45 L379.00 375.92 L378.10 377.47 L377.09 378.90 L375.91 380.16 L374.80 381.48 L373.70 382.82 L372.39 383.96 L371.33 385.32 L370.54 386.92 L369.67 388.44 L368.70 389.86 L367.88 391.41 L366.75 392.69 L365.38 393.79 L364.08 394.96 L362.49 395.91 L360.78 396.78 L359.78 398.20 L358.71 399.57 L357.76 401.02 L356.78 402.44 L355.81 403.88 L355.19 405.55 L354.67 407.27 L353.31 408.45 L352.56 410.02 L352.22 411.82 L351.32 413.29 L350.70 414.92 L349.94 416.46 L348.25 417.50 L346.76 418.67 L346.79 420.63 L345.89 422.11 L346.05 424.11 L346.72 426.34 L347.59 428.63 L348.19 430.75 L347.56 432.30 L347.36 434.03 L347.10 435.72 L346.51 437.27 L346.22 438.94 L345.75 440.53 L345.04 442.03 L344.47 443.59 L344.28 445.27 L343.82 446.86 L342.63 448.20 L341.51 449.59 L341.42 451.30 L340.77 452.84 L340.08 454.37 L339.45 455.92 L338.94 457.51 L338.70 459.16 L338.59 460.85 L337.42 462.28 L337.18 463.94 L337.67 465.75 L337.41 467.39 L337.44 469.08 L337.22 470.72 L335.86 472.17 L335.02 473.72 L335.74 475.52 L334.99 477.09 L335.92 478.89 L337.46 480.74 L338.91 482.54 L339.99 484.27 L339.81 485.87 L340.34 487.53 L340.60 489.15 L340.49 490.74 L340.79 492.36 L340.91 493.96 L340.60 495.54 L340.58 497.14 L340.87 498.73 L340.91 500.32 L340.27 501.92 L339.69 503.53 L340.16 505.12 L340.13 506.72 L339.89 508.34 L339.76 509.95 L339.89 511.55 L340.29 513.13 L340.57 514.71 L339.95 516.39 L340.49 517.95 L341.45 519.45 L341.75 521.02 L342.29 522.55 L342.46 524.14 L341.46 525.92 L341.37 527.56 L342.70 528.95 L342.30 530.66 L343.74 532.01 L346.06 533.14 L347.95 534.33 L349.33 535.60 L349.66 537.12 L350.71 538.45 L351.40 539.86 L351.86 541.32 L352.69 542.69 L353.29 544.11 L353.58 545.62 L354.02 547.09 L354.80 548.45 L355.31 549.89 L352.93 552.36 L352.11 554.32 L353.85 555.35 L352.25 557.65 L352.35 559.32 L353.57 560.54 L354.70 561.78 L355.20 563.29 L356.26 564.54 L356.93 565.97 L358.61 566.92 L360.11 567.93 L362.11 568.67 L363.47 569.70 L364.33 570.98 L364.04 572.88 L365.33 573.93 L366.97 574.77 L366.84 576.60 L368.55 577.38 L371.00 577.68 L372.48 578.54 L373.82 579.47 L375.27 580.31 L376.22 581.46 L377.29 582.52 L378.31 583.62 L379.11 584.86 L379.88 586.13 L380.58 587.44 L381.31 588.74 L382.05 590.04 L382.87 591.29 L383.87 592.39 L384.83 593.52 L386.00 594.48 L387.63 595.04 L389.07 595.74 L390.41 596.51 L392.06 597.00 L393.36 597.77 L394.41 598.77 L395.53 599.70 L396.53 600.74 L397.40 601.92 L398.24 603.12 L399.16 604.25 L400.11 605.35 L401.11 606.42 L402.13 607.45 L403.28 608.34 L404.44 609.23 L405.60 610.10 L406.99 610.70 L408.58 611.04 L409.99 611.58 L411.61 611.86 L413.25 612.06 L414.64 612.58 L415.80 613.38 L416.92 614.24 L418.08 615.04 L419.11 616.05 L420.08 617.13 L421.14 618.09 L422.21 619.05 L423.34 619.92 L424.52 620.73 L425.87 621.25 L427.11 621.94 L428.43 622.49 L430.14 622.36 L431.71 622.43 L433.10 622.82 L434.79 622.63 L436.28 622.78 L437.59 623.25 L438.87 623.77 L440.11 624.38 L441.31 625.07 L442.47 625.86 L443.67 626.57 L444.82 627.38 L446.01 628.14 L447.28 628.70 L448.57 629.23 L449.97 629.48 L451.29 629.90 L452.70 630.07 L454.32 629.64 L455.83 629.48 L457.28 629.45 L458.87 628.94 L460.33 628.82 L461.64 629.12 L462.96 629.42 L464.24 629.84 L465.47 630.45 L466.70 631.09 L468.00 631.47 L469.27 631.99 L470.54 632.51 L471.85 632.86 L473.19 633.10 L474.51 633.45 L475.86 633.57 L477.31 633.16 L478.77 632.62 L480.18 632.22 L481.61 631.65 L483.04 631.01 L484.39 630.82 L485.71 630.87 L487.02 631.01 L488.32 631.20 L489.62 631.49 L490.92 631.82 L492.23 632.15 L493.54 632.38 L494.86 632.52 L496.19 632.54 L497.52 632.36 L498.84 632.36 L500.16 632.04 L501.47 631.21 L502.77 630.54 L504.07 630.22 L505.33 629.20 L506.59 628.51 L507.86 628.22 L509.13 627.88 L510.40 627.69 L511.69 627.82 L512.99 627.91 L514.29 627.92 L515.61 628.08 L516.92 628.20 L518.21 628.08 L519.50 627.98 L520.80 627.91 L522.13 627.94 L523.42 627.79 L524.64 627.27 L525.80 626.48 L526.87 625.32 L527.96 624.33 L528.95 622.94 L529.96 621.78 L531.08 621.09 L532.23 620.54 L533.39 620.06 L534.60 619.76 L535.84 619.55 L537.08 619.34 L538.36 619.25 L539.66 619.20 L540.94 619.06 L542.22 618.89 L543.45 618.59 L544.78 618.53 L545.97 618.10 L546.93 617.06 L547.86 616.02 L548.66 614.69 L549.47 613.43 L550.05 611.71 L550.82 610.44 L551.79 609.66 L552.75 608.86 L553.78 608.21 L554.87 607.68 L555.96 607.16 L557.04 606.62 L558.19 606.20 L559.32 605.74 L560.44 605.26 L561.59 604.82 L562.68 604.27 L563.91 603.94 L565.12 603.58 L565.94 602.59 L566.67 601.48 L567.27 600.20 L567.82 598.87 L568.15 597.25 L568.66 595.92 L569.39 594.93 L570.22 594.07 L571.04 593.21 L571.95 592.46 L572.92 591.81 L573.87 591.11 L574.88 590.49 L575.90 589.88 L576.89 589.23 L577.83 588.52 L578.71 587.74 L579.58 586.94 L580.53 586.23 L581.26 585.29 L581.94 584.30 L582.43 583.12 L582.69 581.73 L583.06 580.47 L583.22 579.02 L583.40 577.62 L583.79 576.44 L584.33 575.40 L584.91 574.41 L585.49 573.41 L586.16 572.51 L586.95 571.70 L587.65 570.81 L588.39 569.96 L589.09 569.08 L589.77 568.18 L590.47 567.30 L591.08 566.34 L591.69 565.39 L592.37 564.50 L592.89 563.49 L593.29 562.40 L593.51 561.21 L593.61 559.94 L593.81 558.76 L593.81 557.46 L593.84 556.20 L594.10 555.08 L594.43 554.01 L594.82 552.98 L595.20 551.96 L595.65 550.96 L596.17 550.01 L596.65 549.04 L597.10 548.06 L597.54 547.06 L597.92 546.05 L598.32 545.04 L598.66 544.01 L599.02 542.99 L599.35 541.95 L599.55 540.87 L599.70 539.77 L599.64 538.60 L599.56 537.42 L599.55 536.29 L599.38 535.10 L599.29 533.96 L599.37 532.88 L599.47 531.81 L599.61 530.76 L599.79 529.73 L599.96 528.70 L600.13 527.66 L600.31 526.64 L600.46 525.60 L600.57 524.56 L600.67 523.52 L600.73 522.48 L600.77 521.43 L600.82 520.39 L600.79 519.34 L600.74 518.29 L600.64 517.23 L600.47 516.17 L600.30 515.11 L600.11 514.06 L599.91 513.02 L599.76 511.98 L599.64 510.96 L599.53 509.94 L599.40 508.93 L599.26 507.91 L599.13 506.91 L599.00 505.90 L598.85 504.90 L598.70 503.91 L598.55 502.91 L598.39 501.92 L598.22 500.94 Z"/>
  <svg class="pausebutton" id="pausebutton">
    <circle cx="500" cy="500" id="pausestart" class="pausestart" r="52.65"/>
    <rect height="50.02" width="10.00" y="473.68" rx="2.00" ry="2.00" x="479.99" class="pausesymbol"/>
    <rect height="50.02" width="10.00" y="473.68" rx="2.00" ry="2.00" x="510.00" class="pausesymbol"/>
    <polygon points="530.01,500 479.99,530.01 479.99,469.99" class="playsymbol"/>
  </svg>
  <polygon id="playback-head" class="playback-head" points="941.65,500 921.65,540 961.65,540"/>
</svg>