<?xml-stylesheet href="../../style/waveformjs.css" type="text/css"?>
<svg xmlns="http://www.w3.org/2000/svg" xmlns:xlink="http://www.w3.org/1999/xlink" width="100%" height="100%" viewBox="0 0 1000 1000">
  <path class="svg-wave" id="sp" d="M598.04 500.00 L598.22 500.98 L598.38 501.97 L598.54 502.96 L598.68 503.95 L598.81 504.94 L598.93 505.94 L599.05 506.94 L599.15 507.95 L599.24 508.96 L599.31 509.96 L599.38 510.98 L599.42 511.99 L599.43 513.00 L599.41 514.01 L599.35 515.01 L599.20 516.01 L598.93 516.98 L598.48 517.92 L597.27 518.71 L594.22 519.10 L589.39 519.05 L587.47 519.56 L587.90 520.58 L585.20 520.85 L585.26 521.77 L587.13 523.18 L587.87 524.32 L589.00 525.59 L585.92 525.64 L583.14 525.72 L583.07 526.61 L579.15 526.23 L576.24 526.11 L578.65 527.82 L576.23 527.83 L577.07 529.01 L578.70 530.52 L577.64 531.01 L575.96 531.22 L574.71 531.59 L576.77 533.37 L573.94 533.02 L571.81 532.93 L575.05 535.33 L577.41 537.39 L575.28 537.30 L578.14 539.69 L579.71 541.50 L578.50 541.87 L576.73 541.92 L575.63 542.30 L576.04 543.54 L572.93 542.73 L573.44 544.02 L573.01 544.76 L572.37 545.37 L572.51 546.47 L570.97 546.50 L571.30 547.74 L568.44 546.82 L568.04 547.56 L568.76 549.09 L566.80 548.70 L567.21 550.04 L568.47 552.05 L567.36 552.28 L566.46 552.66 L564.70 552.32 L565.06 553.70 L563.99 553.90 L563.02 554.16 L564.50 556.57 L565.35 558.48 L566.24 560.48 L565.74 561.24 L569.05 565.63 L568.15 566.08 L567.40 566.68 L565.75 566.36 L564.46 566.37 L563.71 566.92 L560.72 565.08 L558.50 563.96 L558.38 565.13 L555.75 563.46 L556.29 565.38 L556.11 566.51 L555.67 567.35 L555.16 568.11 L554.27 568.38 L554.69 570.36 L553.64 570.44 L553.07 571.17 L553.35 573.05 L552.96 574.06 L552.08 574.38 L550.39 573.53 L549.80 574.26 L549.33 575.17 L548.00 574.76 L548.40 577.06 L549.54 580.66 L548.84 581.33 L548.15 582.03 L550.16 587.45 L548.87 587.20 L547.91 587.54 L546.18 586.41 L545.32 586.88 L543.87 586.19 L542.45 585.50 L542.14 587.06 L540.27 585.36 L540.10 587.25 L538.60 586.24 L538.13 587.55 L536.85 586.96 L535.29 585.65 L534.51 586.21 L533.96 587.36 L532.55 586.28 L532.17 587.91 L531.35 588.39 L530.45 588.68 L529.70 589.39 L528.35 588.26 L528.16 590.77 L527.06 590.42 L525.87 589.70 L526.04 593.79 L526.41 598.97 L525.84 600.85 L525.08 602.13 L525.11 606.85 L523.83 606.19 L522.26 604.04 L521.00 603.20 L520.11 604.12 L518.41 600.71 L516.74 597.05 L516.28 600.36 L514.63 596.31 L513.82 597.50 L513.18 600.21 L512.16 600.17 L511.37 602.16 L510.20 600.85 L509.29 602.01 L508.38 603.48 L507.11 600.31 L506.32 603.82 L505.29 604.11 L504.22 603.30 L503.13 601.60 L502.10 601.18 L501.12 603.60 L500.08 600.72 L499.08 599.70 L498.00 604.00 L496.89 606.36 L495.89 604.74 L494.64 608.86 L493.47 610.12 L492.43 609.25 L491.45 607.68 L490.45 606.78 L489.38 606.73 L488.52 604.71 L487.35 605.60 L486.36 605.00 L485.25 605.25 L484.24 604.83 L483.34 603.78 L482.18 604.33 L481.63 601.40 L480.59 601.36 L479.16 603.23 L478.54 601.06 L477.27 602.03 L475.67 604.27 L474.79 603.38 L473.92 602.46 L473.16 601.24 L472.05 601.32 L471.02 601.07 L470.28 599.88 L468.72 601.40 L466.77 604.03 L465.29 605.02 L464.31 604.46 L461.28 609.74 L460.62 608.15 L459.86 606.90 L459.19 605.48 L458.29 604.66 L458.16 602.02 L458.09 599.34 L457.13 598.85 L455.55 599.75 L455.06 598.19 L453.94 598.03 L451.95 599.67 L450.89 599.32 L450.88 596.89 L449.94 596.34 L448.12 597.45 L447.71 595.89 L446.45 595.92 L444.94 596.34 L443.83 596.04 L442.64 595.87 L442.73 593.57 L441.34 593.74 L440.74 592.62 L440.97 590.26 L438.79 591.57 L435.41 594.57 L434.51 593.86 L433.27 593.63 L428.30 598.51 L428.43 596.29 L427.87 595.04 L427.38 593.72 L426.83 592.51 L427.09 590.31 L426.33 589.41 L424.36 589.95 L424.86 587.56 L423.39 587.49 L422.90 586.29 L421.88 585.69 L421.42 584.48 L422.11 582.08 L421.22 581.37 L419.29 581.72 L419.80 579.59 L418.58 579.20 L416.86 579.27 L416.42 578.11 L416.57 576.42 L414.84 576.45 L413.16 576.41 L413.42 574.66 L412.79 573.69 L407.54 576.56 L403.36 578.40 L401.60 578.22 L396.59 580.52 L390.94 583.18 L391.78 580.84 L393.27 578.08 L395.00 575.21 L397.54 571.85 L399.46 569.02 L400.73 566.70 L399.74 565.92 L399.07 564.92 L396.78 564.94 L396.61 563.62 L395.62 562.79 L394.99 561.75 L395.08 560.30 L393.87 559.59 L393.59 558.35 L391.66 558.01 L390.44 557.26 L392.43 554.86 L390.20 554.62 L387.89 554.38 L390.34 551.84 L388.77 551.23 L388.35 550.07 L388.33 548.75 L384.50 549.05 L381.65 548.87 L381.60 547.51 L376.15 548.26 L374.19 547.58 L375.33 545.73 L376.46 543.92 L375.57 542.84 L374.77 541.72 L376.58 539.75 L378.77 537.71 L372.20 538.36 L373.08 536.71 L374.92 534.83 L369.51 534.94 L368.14 533.89 L370.01 532.03 L372.16 530.15 L369.37 529.43 L371.12 527.69 L374.94 525.56 L370.19 525.18 L368.63 524.12 L370.48 522.45 L372.71 520.75 L366.43 520.40 L366.05 519.09 L371.59 517.00 L367.64 516.17 L361.74 515.49 L365.15 513.75 L366.36 512.27 L360.59 511.40 L361.09 509.96 L363.31 508.43 L363.55 507.05 L362.57 505.72 L364.01 504.30 L364.56 502.92 L365.68 501.56 L361.67 500.22 L362.84 498.85 L363.08 497.48 L359.29 496.00 L359.40 494.60 L361.57 493.29 L364.76 492.09 L361.70 490.52 L364.46 489.35 L367.05 488.22 L364.51 486.62 L362.93 485.08 L365.03 483.94 L367.39 482.88 L361.48 480.71 L364.35 479.72 L369.70 479.18 L366.31 477.27 L362.09 475.13 L364.88 474.24 L364.06 472.67 L358.98 470.18 L360.04 468.94 L361.67 467.84 L360.71 466.15 L361.14 464.78 L364.11 464.08 L365.49 463.01 L362.88 460.81 L362.68 459.26 L365.00 458.47 L361.88 456.00 L360.35 453.97 L361.43 452.78 L364.49 452.31 L367.48 451.86 L366.45 449.97 L368.41 449.20 L370.64 448.57 L369.56 446.62 L368.52 444.66 L370.94 444.15 L372.52 443.32 L367.99 439.71 L371.84 439.91 L374.67 439.70 L372.53 437.10 L373.14 435.82 L376.11 435.75 L375.63 433.91 L375.58 432.29 L376.57 431.21 L377.70 430.23 L377.07 428.24 L376.94 426.50 L377.64 425.25 L379.73 424.87 L374.09 419.58 L376.35 419.27 L378.75 419.10 L374.97 414.75 L375.55 413.31 L377.71 412.99 L380.54 413.19 L380.74 411.50 L381.64 410.32 L384.93 410.99 L384.80 409.03 L384.44 406.86 L385.66 405.93 L389.36 407.11 L386.54 402.79 L386.62 400.88 L391.27 403.01 L390.73 400.54 L388.82 396.76 L389.93 395.72 L392.97 396.54 L390.60 392.11 L390.64 389.98 L392.55 389.72 L394.04 389.05 L395.46 388.31 L396.16 386.82 L398.31 386.92 L401.72 388.48 L399.33 383.44 L401.28 383.36 L403.62 383.79 L401.96 379.35 L402.78 377.89 L405.54 378.89 L408.22 379.87 L407.17 375.93 L410.05 377.24 L413.53 379.49 L412.23 375.05 L412.79 373.18 L415.21 374.02 L417.65 374.97 L416.20 369.94 L418.09 370.05 L421.97 373.41 L421.60 369.91 L421.37 366.54 L423.21 366.62 L424.52 365.82 L423.25 360.30 L424.32 358.92 L426.05 358.78 L427.60 358.31 L429.15 357.85 L430.69 357.39 L433.10 358.78 L434.11 357.24 L434.77 354.86 L436.88 355.72 L437.47 353.09 L437.96 350.10 L439.72 350.11 L442.04 351.62 L443.88 351.98 L444.36 348.69 L447.38 352.36 L449.12 352.60 L449.83 349.80 L451.52 349.90 L453.52 351.01 L455.49 352.12 L455.41 346.33 L457.62 348.29 L460.25 352.01 L460.78 347.94 L461.38 343.80 L463.41 345.39 L465.01 345.28 L465.30 339.07 L466.93 338.84 L468.73 339.48 L470.29 338.94 L471.68 337.37 L473.75 339.80 L475.69 341.70 L476.82 338.31 L478.35 337.41 L480.25 339.42 L481.41 335.30 L482.80 332.60 L484.63 334.08 L486.45 335.89 L488.15 336.65 L489.76 336.12 L491.56 339.00 L493.14 338.29 L494.73 337.47 L496.34 336.40 L498.00 338.48 L499.61 338.55 L501.26 334.10 L502.85 338.25 L504.40 340.71 L506.22 334.80 L507.94 333.38 L509.47 335.78 L511.27 333.50 L512.95 333.53 L514.74 332.13 L516.05 336.07 L517.54 337.60 L519.78 332.59 L521.34 333.68 L522.98 334.04 L524.94 332.30 L526.72 331.88 L528.37 332.30 L530.05 332.62 L531.81 332.45 L533.44 332.97 L534.96 334.06 L536.60 334.48 L538.06 335.68 L539.48 336.99 L541.14 337.27 L542.88 337.23 L544.45 337.87 L546.29 337.56 L548.33 336.63 L550.21 336.31 L552.04 336.18 L553.69 336.68 L555.43 336.89 L557.41 336.46 L559.25 336.46 L560.29 338.66 L562.39 338.00 L563.49 339.94 L565.44 339.70 L567.21 339.97 L568.44 341.51 L570.14 341.91 L570.69 344.89 L573.28 343.37 L574.66 344.49 L575.30 347.10 L578.64 344.28 L580.71 344.06 L581.46 346.40 L581.43 350.09 L584.39 348.29 L584.93 350.83 L584.51 354.98 L588.40 351.73 L590.12 352.22 L591.28 353.63 L591.89 355.89 L595.13 354.04 L597.03 354.33 L595.60 359.54 L598.24 358.72 L602.41 355.83 L602.67 358.47 L602.78 361.27 L607.13 358.38 L608.64 359.32 L610.00 360.47 L612.41 360.31 L613.40 361.93 L613.96 364.05 L614.60 366.02 L614.80 368.48 L618.44 367.01 L618.42 369.68 L620.18 370.38 L624.45 368.44 L625.73 369.71 L625.65 372.38 L626.87 373.69 L631.62 371.56 L629.87 375.78 L629.77 378.33 L634.47 376.43 L633.23 380.00 L632.60 382.95 L632.61 385.28 L637.82 383.16 L637.34 385.91 L634.96 390.15 L638.49 389.56 L643.12 388.19 L642.09 391.27 L643.66 392.33 L648.35 391.11 L649.04 392.88 L650.17 394.33 L652.47 394.98 L652.37 397.27 L652.20 399.59 L652.37 401.65 L654.08 402.71 L656.08 403.62 L655.34 406.21 L658.61 406.39 L662.00 406.56 L661.47 409.01 L659.82 412.03 L659.94 414.04 L661.97 415.02 L660.15 418.00 L661.60 419.29 L665.27 419.52 L665.66 421.37 L664.83 423.77 L664.95 425.71 L670.57 425.22 L668.00 428.34 L666.88 430.78 L674.14 429.80 L676.67 430.83 L676.12 433.07 L683.68 432.29 L687.06 433.16 L688.73 434.68 L689.97 436.37 L690.85 438.20 L690.29 440.47 L689.30 442.85 L688.19 445.24 L688.72 447.12 L690.92 448.56 L691.99 450.33 L694.46 451.76 L697.34 453.13 L698.59 454.93 L698.20 457.09 L698.20 459.17 L698.45 461.18 L699.05 463.12 L699.03 465.18 L698.25 467.36 L699.96 469.13 L700.56 471.09 L699.72 473.24 L699.72 475.27 L700.08 477.26 L701.87 479.10 L700.59 481.25 L700.86 483.25 L702.79 485.13 L704.43 487.07 L703.60 489.16 L703.57 491.20 L705.26 493.19 L704.63 495.25 L704.62 497.30 L704.36 499.35 L704.98 501.40 L704.94 503.45 L702.49 505.43 L702.05 507.44 L701.48 509.44 L703.18 511.56 L702.98 513.58 L703.92 515.69 L707.85 518.09 L707.25 520.13 L706.68 522.16 L705.83 524.15 L705.22 526.17 L704.18 528.11 L704.12 530.18 L702.59 532.03 L702.20 534.05 L701.70 536.04 L698.55 537.53 L698.17 539.52 L697.29 541.39 L699.47 543.94 L698.97 545.92 L698.01 547.79 L702.07 550.91 L702.88 553.28 L702.22 555.27 L701.34 557.20 L703.55 560.04 L702.41 561.91 L701.48 563.83 L700.15 565.62 L698.83 567.40 L698.22 569.41 L695.68 570.72 L693.76 572.23 L692.25 573.86 L693.36 576.52 L694.18 579.10 L693.23 580.97 L696.39 584.61 L696.84 587.15 L694.95 588.66 L693.01 590.12 L691.66 591.83 L690.18 593.47 L688.36 594.93 L687.60 596.91 L686.19 598.55 L684.71 600.15 L681.73 600.89 L679.99 602.30 L678.42 603.78 L678.25 606.08 L679.98 609.56 L678.15 610.90 L680.27 614.74 L681.45 618.06 L681.22 620.51 L679.46 621.94 L678.69 624.05 L678.10 626.29 L676.51 627.84 L675.18 629.56 L673.24 630.83 L672.22 632.78 L670.23 633.98 L668.23 635.16 L666.09 636.19 L663.80 637.07 L664.75 640.70 L663.42 642.41 L662.28 644.30 L664.40 649.15 L663.07 650.94 L661.02 652.07 L659.37 653.56 L657.70 655.01 L655.44 655.88 L654.09 657.65 L651.89 658.54 L650.00 659.73 L648.14 660.95 L646.16 662.01 L643.91 662.77 L641.88 663.74 L642.14 667.40 L640.61 668.99 L638.61 670.01 L638.52 673.41 L637.43 675.63 L634.92 676.01 L632.49 676.48 L631.42 678.75 L629.32 679.62 L627.74 681.23 L626.16 682.84 L624.45 684.28 L622.26 684.99 L620.61 686.53 L618.69 687.65 L616.70 688.65 L615.86 691.56 L613.89 692.62 L612.28 694.30 L610.97 696.55 L608.80 697.28 L606.31 697.41 L603.92 697.69 L601.89 698.62 L599.73 699.29 L597.47 699.74 L595.01 699.76 L593.15 700.99 L591.06 701.75 L589.31 703.27 L587.36 704.36 L585.54 705.76 L583.50 706.66 L580.93 706.22 L579.05 707.50 L576.82 707.88 L574.58 708.19 L572.57 709.14 L570.53 710.03 L568.70 711.57 L566.76 712.82 L564.62 713.44 L562.95 715.69 L561.18 717.69 L559.02 718.35 L556.86 719.03 L554.85 720.34 L552.62 720.75 L550.43 721.39 L548.20 721.80 L545.95 722.14 L543.67 722.31 L541.33 722.13 L539.12 722.60 L536.70 721.80 L534.61 723.01 L532.52 724.27 L530.35 725.20 L528.20 726.26 L526.12 728.19 L523.89 728.97 L521.51 728.25 L519.22 728.34 L516.93 728.42 L514.63 728.38 L512.35 728.57 L510.04 728.04 L507.79 729.11 L505.51 729.90 L503.20 729.18 L500.91 729.75 L498.61 730.42 L496.33 729.16 L494.05 728.62 L491.77 728.36 L489.50 727.93 L487.17 728.78 L484.87 728.86 L482.49 729.94 L480.10 730.83 L477.66 731.90 L475.21 732.95 L472.94 732.20 L470.42 733.48 L468.01 733.71 L465.76 732.84 L463.50 732.07 L461.18 731.70 L458.70 732.21 L456.25 732.48 L453.83 732.49 L451.36 732.73 L448.96 732.59 L446.80 731.35 L444.67 730.07 L442.53 728.87 L440.36 727.86 L437.78 728.34 L435.69 727.04 L433.30 726.81 L430.68 727.30 L428.25 727.09 L426.16 725.83 L423.50 726.29 L421.15 725.76 L419.11 724.37 L416.65 724.15 L414.53 722.99 L412.34 722.03 L410.26 720.81 L407.87 720.35 L405.51 719.80 L403.57 718.27 L401.06 718.01 L398.83 717.13 L396.73 715.97 L393.91 716.30 L391.84 715.04 L389.54 714.24 L387.24 713.45 L384.92 712.66 L382.38 712.26 L380.26 711.07 L377.90 710.30 L375.79 709.09 L374.00 707.36 L372.44 705.28 L370.86 703.25 L369.44 701.01 L366.91 700.50 L364.51 699.75 L363.03 697.65 L360.25 697.40 L358.80 695.29 L357.82 692.55 L356.90 689.80 L356.84 685.99 L357.23 681.68 L354.68 681.18 L353.34 679.15 L353.77 675.03 L351.68 673.95 L348.39 674.26 L348.23 670.96 L345.90 670.13 L342.27 670.66 L340.61 669.04 L336.49 669.97 L334.61 668.52 L332.96 666.84 L331.23 665.22 L331.20 661.98 L327.54 662.21 L326.63 659.83 L326.01 657.21 L324.61 655.32 L323.80 652.92 L321.81 651.55 L322.83 647.65 L318.43 648.27 L317.17 646.27 L317.32 643.19 L311.46 644.75 L308.56 643.96 L307.71 641.61 L302.10 642.72 L299.53 641.54 L298.20 639.48 L298.60 636.25 L297.70 633.93 L295.86 632.22 L298.29 627.81 L298.58 624.82 L293.59 625.07 L293.87 622.10 L294.51 618.97 L289.75 618.93 L287.87 617.20 L289.02 613.83 L288.19 611.56 L287.50 609.22 L287.09 606.76 L286.26 604.51 L285.56 602.21 L285.77 599.49 L283.92 597.74 L283.26 595.44 L282.30 593.27 L278.85 592.14 L279.16 589.43 L277.71 587.44 L271.79 587.15 L270.52 585.01 L270.16 582.54 L263.28 582.35 L262.59 579.94 L261.52 577.65 L261.96 574.88 L262.68 572.06 L261.33 569.87 L262.23 567.03 L261.94 564.55 L261.03 562.24 L259.85 559.99 L259.73 557.47 L259.76 554.93 L258.79 552.62 L259.73 549.90 L258.46 547.65 L259.48 544.96 L258.40 542.66 L257.87 540.26 L259.91 537.46 L260.43 534.93 L258.88 532.70 L257.70 530.39 L258.38 527.86 L255.30 525.73 L256.03 523.19 L254.81 520.84 L249.81 518.74 L252.04 516.08 L250.36 513.69 L243.77 511.48 L244.73 508.88 L245.70 506.30 L246.74 503.74 L247.01 501.21 L248.38 498.69 L250.13 496.20 L251.66 493.74 L248.70 491.15 L249.83 488.68 L253.13 486.35 L248.27 483.56 L248.83 481.07 L249.83 478.63 L250.96 476.21 L251.43 473.75 L252.70 471.38 L253.12 468.92 L253.77 466.50 L256.84 464.44 L254.01 461.51 L256.99 459.48 L254.78 456.59 L255.15 454.12 L257.06 451.96 L252.33 448.45 L247.71 444.85 L248.66 442.42 L245.46 439.00 L239.72 434.86 L241.68 432.60 L245.32 430.82 L246.92 428.53 L247.33 425.91 L250.58 424.15 L251.86 421.82 L251.07 418.82 L251.80 416.31 L253.61 414.16 L254.60 411.75 L255.31 409.23 L257.39 407.23 L259.87 405.42 L262.23 403.59 L261.02 400.30 L264.90 399.15 L266.47 397.05 L268.25 395.05 L269.41 392.78 L270.46 390.47 L274.15 389.44 L271.21 385.15 L273.31 383.36 L276.05 381.92 L273.46 377.64 L272.33 374.08 L274.48 372.30 L272.20 367.99 L270.80 364.10 L272.56 362.05 L275.28 360.60 L277.39 358.81 L278.15 356.16 L283.52 356.55 L286.87 355.68 L283.96 350.54 L287.35 349.71 L290.90 349.07 L288.54 344.13 L289.74 341.74 L293.27 341.13 L295.23 339.36 L297.69 337.99 L300.48 336.93 L301.38 334.32 L303.13 332.41 L307.35 332.65 L306.10 328.14 L308.26 326.60 L311.54 326.11 L310.38 321.50 L313.50 320.88 L315.06 318.79 L313.75 313.82 L316.46 312.82 L319.01 311.69 L319.42 308.31 L318.29 303.20 L321.31 302.55 L323.82 301.37 L323.37 296.81 L325.48 295.13 L327.90 293.84 L330.14 292.33 L332.17 290.58 L333.98 288.53 L336.53 287.44 L338.56 285.68 L340.96 284.41 L344.72 285.04 L347.51 284.39 L348.58 281.30 L351.57 280.96 L355.14 281.56 L356.09 278.21 L359.17 278.13 L361.11 276.27 L364.35 276.53 L365.36 273.11 L366.90 270.51 L370.34 271.21 L370.92 266.83 L370.57 260.57 L374.12 261.46 L375.95 259.12 L375.40 252.00 L378.26 251.52 L381.04 250.93 L383.87 250.47 L386.56 249.73 L389.77 250.20 L393.16 251.17 L395.95 250.82 L399.23 251.73 L401.47 250.11 L403.83 248.75 L406.47 248.13 L407.81 243.93 L410.69 243.91 L413.73 244.46 L416.07 242.92 L419.04 243.34 L421.84 243.31 L424.35 242.35 L427.03 241.94 L429.30 240.06 L432.48 241.59 L434.18 237.38 L437.00 237.51 L440.09 238.95 L441.78 234.14 L443.34 228.29 L446.44 229.62 L448.54 225.88 L450.28 219.76 L453.23 220.10 L456.33 221.57 L459.31 222.47 L461.78 219.85 L464.80 221.14 L467.60 220.92 L470.15 218.34 L472.98 218.18 L475.86 218.58 L478.71 218.84 L481.51 218.43 L484.44 220.29 L487.32 221.97 L490.12 222.45 L492.82 219.16 L495.67 222.10 L498.44 220.02 L501.25 217.01 L504.06 218.84 L506.82 220.68 L509.57 222.11 L512.50 218.87 L515.11 222.72 L517.76 224.71 L520.90 219.67 L523.88 217.85 L526.52 220.03 L529.79 215.75 L532.78 214.79 L535.59 215.40 L538.22 217.41 L540.90 218.78 L543.80 218.61 L546.26 221.22 L549.10 221.38 L552.00 221.25 L554.90 221.21 L557.60 222.15 L560.35 222.87 L563.20 223.12 L565.25 226.76 L567.92 227.67 L571.70 224.29 L574.02 226.62 L576.18 229.40 L580.37 225.09 L583.12 225.91 L585.24 228.71 L587.08 232.24 L590.78 230.06 L593.76 230.18 L595.02 235.11 L598.57 233.64 L602.38 231.61 L605.39 231.80 L607.39 234.54 L612.66 229.33 L615.05 231.20 L617.41 233.09 L619.52 235.52 L621.80 237.49 L624.32 238.93 L625.49 243.12 L627.37 245.75 L630.58 245.73 L631.54 250.05 L635.07 249.44 L638.17 249.71 L640.50 251.40 L643.31 252.26 L645.82 253.64 L649.98 252.28 L651.56 255.23 L653.28 257.90 L658.29 255.44 L661.15 256.40 L661.97 260.39 L662.76 264.34 L667.12 263.12 L669.58 264.67 L669.55 269.61 L673.15 269.58 L679.28 266.32 L680.29 269.81 L682.16 272.15 L688.69 268.76 L690.15 271.67 L691.61 274.54 L693.32 277.09 L695.80 278.74 L696.81 282.03 L699.20 283.77 L702.54 284.51 L703.45 287.83 L706.37 289.05 L707.55 292.05 L710.14 293.62 L711.08 296.80 L711.84 300.11 L714.53 301.60 L718.23 302.19 L718.44 305.94 L721.91 306.79 L724.98 308.04 L727.26 309.99 L727.43 313.68 L727.01 317.79 L733.09 316.71 L732.75 320.71 L731.58 325.28 L736.72 325.09 L741.21 325.47 L740.29 329.77 L742.65 331.72 L748.30 331.45 L748.81 334.71 L750.15 337.40 L752.10 339.70 L754.21 341.91 L753.30 345.96 L752.44 349.93 L756.32 351.07 L754.73 355.38 L757.11 357.40 L759.06 359.69 L761.47 361.75 L763.50 364.03 L764.17 367.02 L766.94 368.95 L769.02 371.25 L767.77 375.13 L772.79 376.09 L774.27 378.71 L773.43 382.34 L774.68 385.04 L777.59 387.07 L778.46 389.95 L775.59 394.26 L777.61 396.66 L783.15 397.80 L785.34 400.23 L786.69 402.96 L792.41 404.27 L794.86 406.73 L794.70 410.01 L792.59 413.84 L792.69 416.98 L793.80 419.83 L792.38 423.35 L792.93 426.33 L794.34 429.10 L795.30 431.99 L794.82 435.19 L796.22 437.99 L797.21 440.87 L795.62 444.26 L797.22 447.03 L803.69 449.00 L802.79 452.26 L800.86 455.65 L807.31 457.83 L807.90 460.88 L803.74 464.49 L801.66 467.79 L804.98 470.52 L805.23 473.57 L801.21 476.95 L804.33 479.77 L810.12 482.50 L809.21 485.65 L808.61 488.77 L815.62 491.67 L814.03 494.86 L813.27 498.00 L811.61 501.13 L809.91 504.22 L809.35 507.31 L806.07 510.30 L804.74 513.30 L806.53 516.45 L804.50 519.40 L804.12 522.43 L806.80 525.72 L807.14 528.84 L804.68 531.69 L804.15 534.71 L807.67 538.23 L804.04 540.87 L802.79 543.79 L807.96 547.69 L805.52 550.44 L802.52 553.06 L802.91 556.26 L805.93 559.99 L801.12 562.18 L798.61 564.78 L802.75 568.85 L806.16 572.86 L803.65 575.48 L805.09 579.08 L809.23 583.46 L807.80 586.39 L805.80 589.14 L803.01 591.62 L801.78 594.55 L799.58 597.16 L797.55 599.81 L796.90 602.90 L795.17 605.62 L794.35 608.66 L791.69 611.00 L792.62 614.72 L790.07 617.08 L788.21 619.69 L788.87 623.37 L791.45 627.93 L788.05 629.89 L787.64 633.19 L788.73 637.21 L786.27 639.57 L780.72 640.36 L777.93 642.45 L781.12 647.65 L776.17 648.60 L772.90 650.37 L775.58 655.46 L774.90 658.72 L771.23 660.24 L770.94 663.75 L768.57 666.01 L768.39 669.63 L765.51 671.55 L759.88 671.61 L760.02 675.47 L758.92 678.52 L754.55 679.29 L755.01 683.45 L754.68 687.11 L754.03 690.57 L754.02 694.57 L751.62 696.75 L750.62 700.04 L748.95 702.82 L747.13 705.47 L744.99 707.88 L742.84 710.27 L740.24 712.26 L735.86 712.63 L733.67 714.92 L731.26 717.01 L727.52 717.83 L727.91 722.61 L724.22 723.42 L722.62 726.31 L724.46 732.80 L721.50 734.37 L719.33 736.78 L721.76 744.26 L718.72 745.80 L716.09 747.79 L712.98 749.22 L709.80 750.52 L706.86 752.08 L702.17 751.46 L698.27 751.73 L698.05 756.68 L694.45 757.30 L691.86 759.22 L690.95 763.45 L688.59 765.75 L684.25 765.22 L681.33 766.67 L680.10 770.64 L676.07 770.41 L672.87 771.39 L671.33 775.01 L667.56 775.05 L665.34 777.60 L661.79 777.94 L659.35 780.15 L657.61 783.65 L653.43 782.74 L651.75 786.45 L651.34 792.71 L647.62 792.66 L644.81 794.37 L644.99 802.33 L641.40 802.57 L638.34 803.91 L635.02 804.66 L631.42 804.73 L627.68 804.40 L623.73 803.44 L621.05 805.59 L616.93 804.02 L614.19 805.99 L611.81 809.03 L608.09 808.33 L606.20 812.93 L602.25 811.49 L598.83 811.56 L596.22 814.19 L592.37 812.76 L588.88 812.41 L586.09 814.54 L582.54 813.85 L579.93 816.79 L576.43 816.19 L573.82 819.36 L570.81 820.92 L567.10 819.24 L564.70 823.90 L562.16 828.21 L558.63 827.46 L555.73 830.25 L553.21 835.78 L549.76 835.70 L546.25 835.10 L542.77 834.55 L539.57 836.20 L535.84 833.19 L532.35 831.89 L528.93 831.05 L525.88 834.69 L522.39 832.88 L519.03 832.47 L515.87 836.21 L512.46 835.02 L509.11 835.16 L505.71 832.46 L502.40 834.58 L499.06 832.33 L495.75 831.43 L492.43 831.40 L489.13 830.94 L485.75 832.55 L482.55 830.03 L478.99 833.97 L475.71 832.96 L472.46 831.73 L468.74 835.79 L465.05 838.64 L461.62 838.69 L457.72 842.48 L453.92 844.88 L450.61 843.46 L447.60 840.21 L444.32 838.91 L440.67 839.84 L437.49 838.10 L434.27 836.65 L430.38 838.50 L427.04 837.60 L423.88 835.94 L420.52 835.18 L417.24 834.08 L414.10 832.49 L411.43 829.18 L408.06 828.58 L404.80 827.58 L402.21 824.34 L398.77 823.98 L396.19 820.95 L392.55 821.20 L389.65 819.20 L387.11 816.28 L382.58 818.87 L380.11 815.79 L376.88 814.77 L371.75 818.48 L368.55 817.24 L365.36 815.94 L359.49 820.80 L356.33 819.28 L353.35 817.39 L350.95 814.28 L348.06 812.27 L345.28 810.06 L343.55 805.85 L341.75 801.87 L336.78 803.92 L334.34 801.20 L332.14 798.11 L327.12 799.97 L324.20 798.10 L322.11 794.86 L319.49 792.55 L316.37 791.06 L315.01 786.82 L311.79 785.51 L308.35 784.49 L306.99 780.42 L302.28 781.19 L300.05 778.41 L297.65 775.88 L292.90 776.51 L291.99 772.02 L288.19 771.33 L281.79 773.83 L281.34 768.84 L279.55 765.56 L272.95 768.02 L269.60 766.53 L269.29 761.55 L265.02 761.08 L261.52 759.70 L259.71 756.47 L256.89 754.33 L253.31 752.97 L251.99 749.28 L248.70 747.59 L247.14 744.19 L244.54 741.81 L242.58 738.83 L241.76 734.84 L240.04 731.69 L236.97 729.75 L236.19 725.82 L233.67 723.40 L231.86 720.39 L230.50 717.03 L226.65 715.66 L226.67 711.24 L221.24 711.02 L219.42 708.02 L219.07 703.95 L213.39 703.74 L209.10 702.43 L207.62 699.16 L202.87 698.07 L198.03 696.96 L195.85 694.07 L195.47 690.06 L194.74 686.30 L191.66 683.97 L192.87 679.11 L193.82 674.48 L190.89 672.08 L191.43 667.76 L188.93 665.11 L185.42 662.96 L185.28 659.06 L181.01 657.24 L179.35 654.09 L179.26 650.20 L176.02 647.79 L175.46 644.14 L175.09 640.43 L174.00 637.05 L172.21 633.96 L171.11 630.59 L171.69 626.57 L166.94 624.59 L167.17 620.72 L166.87 617.08 L162.03 614.99 L157.13 612.85 L156.17 609.37 L151.39 607.06 L146.25 604.78 L146.02 601.01 L147.44 596.80 L147.63 592.97 L145.06 589.86 L145.07 586.09 L145.54 582.23 L142.15 579.26 L141.62 575.62 L141.82 571.85 L140.89 568.31 L140.86 564.60 L141.65 560.76 L143.44 556.80 L138.64 553.86 L139.64 550.03 L142.79 545.96 L137.24 542.99 L136.18 539.43 L138.11 535.57 L140.23 531.73 L138.75 528.22 L136.66 524.73 L139.98 520.89 L139.12 517.32 L133.25 513.93 L133.78 510.24 L134.69 506.56 L128.35 502.96 L129.25 499.24 L130.07 495.55 L131.81 491.89 L132.39 488.22 L132.92 484.56 L134.11 480.94 L133.42 477.23 L133.71 473.57 L132.94 469.82 L134.40 466.26 L134.13 462.54 L135.28 458.97 L138.56 455.67 L138.49 451.99 L135.52 447.88 L138.30 444.58 L139.07 441.00 L135.25 436.62 L136.06 433.01 L138.63 429.74 L142.95 426.86 L138.44 422.17 L141.00 418.95 L145.38 416.20 L143.46 411.98 L138.59 406.93 L141.52 403.86 L143.37 400.52 L137.69 395.02 L139.96 391.76 L141.66 388.35 L144.25 385.24 L144.80 381.49 L148.13 378.68 L152.17 376.16 L153.07 372.56 L155.30 369.45 L158.09 366.58 L157.71 362.48 L158.78 358.93 L158.96 354.99 L161.65 352.12 L164.22 349.23 L163.95 345.05 L165.90 341.88 L167.73 338.66 L166.77 334.05 L166.41 329.69 L169.65 327.16 L174.48 325.52 L171.49 319.67 L175.09 317.39 L181.03 316.50 L178.59 310.80 L176.03 304.90 L180.48 303.21 L180.83 298.99 L179.04 293.35 L181.16 290.18 L184.48 287.81 L187.79 285.47 L188.85 281.59 L192.87 279.79 L195.56 277.08 L197.03 273.47 L199.16 270.33 L201.65 267.47 L204.31 264.75 L206.14 261.37 L210.84 260.36 L213.40 257.60 L213.99 253.15 L216.53 250.35 L220.19 248.57 L219.54 242.86 L222.50 240.42 L225.36 237.91 L230.28 237.39 L232.33 234.13 L232.99 229.42 L238.65 229.80 L242.02 227.90 L241.02 221.32 L241.33 216.01 L245.13 214.49 L245.05 208.59 L246.12 203.89 L249.88 202.29 L254.16 201.38 L257.72 199.63 L260.83 197.35 L265.51 197.09 L270.87 197.81 L272.68 193.90 L276.85 193.14 L278.82 189.37 L281.99 187.25 L283.29 182.39 L286.35 180.05 L290.85 179.90 L291.67 174.09 L295.76 173.33 L301.00 174.52 L301.76 168.35 L304.41 165.23 L309.30 165.98 L313.87 166.27 L316.27 162.69 L319.05 159.73 L324.29 161.46 L327.17 158.72 L328.20 152.17 L332.11 151.34 L336.19 150.91 L337.03 143.48 L340.79 142.30 L344.51 141.03 L348.60 140.65 L352.59 140.11 L356.19 138.65 L360.08 137.91 L363.55 136.13 L367.41 135.37 L370.63 132.82 L374.77 132.90 L378.29 131.19 L382.16 130.55 L386.50 131.48 L390.16 130.25 L392.89 125.77 L397.14 126.54 L400.72 124.94 L403.68 120.81 L407.33 119.28 L411.59 120.28 L416.29 123.48 L419.00 117.66 L423.11 118.28 L427.61 121.07 L430.91 117.63 L433.70 110.87 L438.00 112.78 L441.90 112.31 L445.00 106.15 L448.96 105.76 L453.01 106.22 L457.09 106.99 L460.97 106.09 L465.21 109.07 L469.30 110.99 L473.09 109.24 L476.96 108.35 L480.98 110.29 L484.79 107.84 L488.66 105.85 L492.64 107.79 L496.57 107.94 L500.48 109.02 L504.43 105.59 L508.35 106.72 L512.28 107.01 L516.32 104.60 L520.26 104.90 L524.06 107.65 L527.83 110.07 L532.16 104.97 L535.77 109.07 L539.43 111.89 L543.86 107.34 L548.22 104.19 L551.83 107.37 L556.30 104.05 L560.60 102.38 L564.55 103.11 L568.21 105.56 L572.05 106.80 L576.10 106.92 L579.63 109.67 L583.66 109.87 L587.60 110.55 L591.55 111.19 L595.39 112.28 L599.20 113.49 L603.18 114.08 L606.29 117.80 L610.08 118.96 L614.14 119.24 L618.13 119.79 L621.67 121.78 L626.81 118.91 L630.71 119.92 L633.99 122.70 L637.17 125.67 L641.06 126.64 L645.26 126.86 L647.42 132.24 L651.69 132.26 L658.46 126.50 L661.48 129.73 L665.39 130.87 L672.09 125.99 L675.67 128.05 L680.23 128.08 L684.01 129.75 L687.84 131.34 L692.52 131.33 L696.75 132.22 L701.23 132.74 L705.18 134.25 L708.95 136.10 L712.07 139.08 L714.27 143.54 L716.65 147.62 L720.63 149.06 L723.18 152.75 L726.37 155.42 L730.87 156.11 L734.70 157.86 L737.34 161.31 L740.10 164.56 L744.34 165.75 L747.62 168.29 L750.70 171.07 L755.16 172.07 L759.09 173.81 L762.54 176.17 L766.93 177.40 L770.69 179.43 L774.13 181.87 L778.68 183.05 L781.85 185.84 L784.93 188.73 L788.05 191.56 L791.38 194.19 L794.54 197.00 L797.69 199.83 L800.90 202.60 L803.83 205.65 L806.70 208.75 L808.64 212.73 L809.82 217.36 L812.34 220.73 L815.63 223.42 L816.95 227.82 L820.17 230.57 L823.90 232.91 L826.48 236.23 L828.14 240.26 L830.36 243.84 L833.72 246.54 L835.90 250.14 L838.65 253.32 L842.16 255.96 L844.87 259.19 L847.18 262.70 L849.18 266.43 L851.43 269.98 L853.56 273.60 L855.60 277.28 L857.29 281.16 L859.33 284.83 L863.23 287.39 L867.28 289.93 L869.64 293.45 L874.27 295.75 L878.26 298.46 L880.30 302.22 L881.98 306.18 L882.40 310.75 L882.25 315.56 L884.15 319.36 L886.05 323.16 L885.95 327.85 L888.93 331.16 L891.73 334.59 L892.64 338.81 L893.22 343.14 L895.20 346.92 L897.01 350.77 L898.04 354.90 L900.51 358.53 L902.77 362.24 L904.56 366.13 L907.32 369.72 L910.04 373.36 L911.66 377.36 L915.07 380.84 L917.10 384.76 L918.11 388.97 L919.16 393.17 L920.42 397.31 L921.75 401.45 L922.72 405.67 L923.92 409.84 L925.13 414.02 L925.87 418.29 L926.00 422.68 L924.77 427.28 L923.60 431.83 L924.93 435.97 L924.64 440.35 L924.20 444.73 L925.97 448.83 L926.85 453.05 L925.90 457.46 L925.32 461.81 L926.22 466.02 L926.50 470.29 L926.16 474.59 L926.23 478.86 L927.84 483.07 L928.70 487.33 L932.06 491.55 L933.81 495.85 L947.54 500.00 L948.66 495.51 L950.33 490.99 L952.41 486.42 L952.82 481.88 L952.30 477.37 L950.26 472.95 L949.94 468.45 L948.58 464.04 L948.23 459.55 L948.14 455.04 L947.26 450.60 L946.94 446.11 L945.28 441.78 L944.71 437.33 L943.85 432.92 L943.31 428.46 L941.88 424.15 L941.49 419.66 L940.12 415.36 L938.41 411.13 L937.88 406.67 L936.15 402.47 L935.57 398.01 L934.31 393.72 L933.47 389.32 L932.15 385.04 L929.96 381.00 L929.00 376.64 L927.18 372.52 L925.29 368.44 L924.67 363.97 L922.61 359.95 L921.22 355.72 L919.17 351.73 L917.18 347.72 L916.32 343.30 L913.73 339.53 L912.34 335.31 L910.33 331.33 L908.68 327.21 L906.89 323.15 L904.33 319.44 L902.86 315.24 L901.08 311.18 L898.94 307.29 L896.91 303.35 L895.52 299.09 L892.54 295.64 L890.08 291.94 L887.80 288.14 L885.04 284.63 L882.95 280.74 L880.38 277.13 L878.40 273.18 L875.91 269.53 L873.17 266.04 L871.18 262.09 L868.18 258.78 L865.73 255.12 L863.53 251.30 L860.55 248.01 L858.23 244.25 L854.70 241.38 L852.15 237.81 L849.74 234.12 L846.50 231.08 L843.92 227.53 L840.93 224.31 L838.40 220.71 L834.96 217.87 L832.08 214.57 L829.55 210.96 L826.63 207.69 L823.62 204.50 L820.63 201.31 L817.80 197.95 L813.89 195.63 L810.61 192.73 L807.38 189.78 L804.44 186.53 L801.26 183.54 L797.95 180.68 L795.12 177.30 L791.05 175.29 L787.51 172.72 L784.34 169.72 L780.20 167.87 L776.63 165.37 L773.64 162.16 L769.99 159.77 L766.71 156.92 L762.79 154.89 L759.57 151.95 L755.65 149.96 L751.95 147.68 L748.62 144.89 L744.80 142.79 L741.71 139.62 L737.58 138.00 L733.98 135.59 L730.23 133.42 L726.07 131.93 L721.76 130.72 L717.69 129.14 L713.84 127.21 L710.11 125.07 L706.37 122.95 L703.13 119.91 L699.38 117.77 L695.18 116.51 L691.75 113.75 L687.71 112.20 L682.95 112.19 L679.00 110.52 L678.70 100.69 L673.93 100.69 L669.00 101.16 L668.05 92.11 L664.26 89.69 L658.41 92.56 L654.76 89.84 L650.56 88.57 L645.45 89.85 L640.87 89.81 L637.05 87.53 L633.93 83.04 L629.52 82.46 L625.66 80.13 L621.66 78.19 L617.15 78.01 L612.06 80.11 L608.05 78.24 L603.62 78.01 L599.25 77.61 L594.99 76.78 L590.82 75.56 L586.55 74.75 L581.79 76.55 L577.67 75.09 L573.18 75.68 L568.51 77.58 L564.19 77.56 L560.35 74.19 L556.42 71.14 L551.83 73.02 L547.98 68.71 L544.14 63.59 L539.46 66.60 L534.79 70.39 L530.85 64.94 L526.36 66.91 L521.85 70.21 L517.57 69.62 L513.35 66.61 L509.00 67.22 L504.66 68.84 L500.35 66.11 L496.02 67.58 L491.72 68.71 L487.48 71.42 L483.11 69.32 L478.71 67.65 L474.55 70.55 L470.23 70.45 L465.80 69.15 L461.78 72.69 L457.81 76.10 L453.58 76.61 L449.60 79.17 L445.59 81.22 L441.51 82.52 L436.53 77.74 L432.46 79.36 L428.73 82.79 L423.57 78.10 L418.82 76.06 L415.45 81.19 L411.62 83.70 L406.41 79.91 L403.17 84.97 L399.60 88.32 L395.27 88.48 L390.24 86.08 L386.22 87.59 L382.76 91.05 L377.65 88.79 L373.76 90.76 L370.60 94.92 L366.81 97.02 L362.79 98.38 L359.22 101.00 L355.19 102.32 L351.30 103.99 L347.16 105.01 L343.95 108.40 L339.84 109.49 L336.58 112.61 L333.72 116.60 L330.30 119.17 L326.64 121.19 L320.34 117.59 L317.67 121.78 L313.84 123.51 L308.04 121.36 L304.50 123.75 L302.94 129.85 L298.34 130.17 L294.04 131.11 L291.69 135.51 L289.92 140.79 L285.30 141.18 L279.19 139.21 L277.60 144.64 L274.97 148.30 L268.96 146.75 L267.48 152.13 L264.12 154.63 L258.89 154.43 L255.96 157.58 L251.45 158.53 L249.66 163.21 L244.42 163.24 L243.86 169.42 L243.02 175.11 L240.13 178.11 L237.30 181.19 L236.05 186.12 L234.30 190.38 L228.59 190.05 L223.50 190.54 L221.65 194.67 L215.66 194.30 L209.80 194.18 L207.73 198.10 L207.78 204.14 L202.45 204.71 L200.20 208.36 L199.71 213.68 L196.96 216.79 L194.32 219.99 L188.95 220.74 L187.45 224.99 L184.71 228.12 L180.78 230.26 L179.12 234.31 L179.16 239.70 L175.88 242.37 L174.15 246.27 L171.91 249.76 L169.78 253.32 L166.49 256.02 L164.63 259.77 L164.40 264.65 L161.19 267.42 L160.31 271.77 L159.78 276.32 L158.47 280.32 L152.29 281.23 L149.54 284.36 L149.84 289.35 L143.42 290.31 L137.21 291.51 L139.82 297.78 L140.06 302.62 L133.03 303.51 L134.89 309.18 L135.59 314.16 L131.79 316.84 L127.23 319.20 L126.75 323.55 L126.27 327.88 L122.00 330.47 L121.68 334.86 L121.70 339.35 L118.64 342.53 L116.82 346.25 L113.65 349.44 L114.76 354.29 L113.78 358.32 L112.52 362.24 L114.71 367.34 L114.98 371.73 L114.25 375.75 L115.07 380.26 L115.38 384.56 L115.75 388.84 L107.88 390.81 L108.16 395.09 L109.37 399.59 L102.93 402.16 L99.31 405.51 L102.65 410.48 L104.26 414.99 L98.20 417.89 L101.43 422.69 L103.32 427.16 L102.00 431.03 L97.32 434.36 L97.49 438.51 L99.21 442.87 L95.07 446.40 L95.30 450.55 L98.18 454.97 L98.59 459.08 L98.21 463.10 L99.08 467.21 L98.92 471.24 L98.27 475.22 L97.33 479.21 L98.96 483.31 L98.75 487.32 L99.83 491.36 L102.41 495.39 L103.89 499.37 L104.86 503.32 L99.05 507.38 L101.95 511.31 L101.54 515.31 L96.43 519.55 L97.98 523.51 L102.52 527.23 L99.92 531.43 L99.93 535.46 L103.19 539.18 L106.02 542.88 L105.58 546.92 L100.62 551.57 L105.32 554.98 L107.57 558.67 L103.38 563.36 L107.76 566.69 L111.27 570.10 L112.75 573.84 L114.54 577.50 L116.79 581.04 L117.60 584.87 L115.55 589.37 L118.06 592.82 L120.07 596.37 L119.91 600.46 L122.46 603.84 L126.10 606.87 L128.82 610.12 L125.34 615.24 L123.08 620.08 L125.01 623.60 L122.08 628.77 L120.00 633.74 L122.98 636.94 L126.00 640.10 L123.57 645.31 L127.94 647.92 L130.01 651.40 L132.05 654.88 L133.53 658.58 L136.38 661.69 L140.10 664.37 L140.06 668.75 L143.54 671.49 L145.96 674.71 L145.34 679.45 L148.68 682.19 L148.67 686.68 L150.04 690.46 L154.82 692.36 L155.49 696.53 L160.48 698.20 L166.19 699.37 L167.20 703.31 L170.74 705.70 L174.70 707.78 L177.37 710.64 L176.29 716.00 L176.39 720.64 L179.78 723.05 L178.95 728.43 L177.44 734.40 L182.67 735.48 L185.04 738.64 L184.48 744.07 L190.03 744.77 L191.86 748.37 L195.43 750.56 L197.80 753.72 L200.92 756.24 L206.13 756.92 L207.16 761.23 L210.64 763.37 L215.42 764.27 L218.40 766.79 L221.27 769.42 L224.92 771.26 L227.38 774.26 L231.44 775.63 L233.00 779.58 L236.25 781.77 L239.73 783.68 L241.56 787.40 L243.47 791.08 L249.40 790.15 L251.47 793.63 L250.61 800.71 L254.90 801.62 L259.95 801.51 L259.58 808.25 L262.12 811.37 L266.92 811.49 L268.21 816.32 L272.30 817.35 L276.04 818.81 L277.67 823.31 L282.57 823.06 L285.64 825.48 L288.59 828.10 L293.70 827.31 L297.20 829.01 L300.93 830.30 L305.53 830.09 L309.14 831.50 L310.22 837.39 L314.56 837.52 L319.12 837.18 L320.31 843.15 L325.06 842.37 L330.40 840.27 L333.99 841.57 L337.89 842.21 L342.47 841.33 L346.23 842.13 L349.61 843.76 L350.82 850.50 L354.37 851.90 L357.60 854.06 L359.57 859.52 L363.63 859.70 L367.95 859.09 L370.14 864.35 L374.99 862.15 L378.79 862.86 L382.22 864.67 L386.44 864.02 L390.03 865.32 L394.48 863.69 L398.04 865.03 L401.53 866.65 L406.06 864.27 L410.18 863.28 L413.92 863.70 L417.81 863.45 L421.74 862.90 L425.43 863.42 L428.54 866.86 L432.46 866.22 L436.42 865.15 L439.87 867.03 L443.76 866.20 L447.82 863.96 L451.67 862.92 L454.82 867.27 L458.09 871.34 L461.82 871.56 L465.19 875.71 L468.60 880.25 L472.57 878.28 L476.40 877.76 L479.95 882.36 L483.91 879.37 L487.65 881.05 L491.48 880.68 L495.28 880.92 L499.09 879.37 L502.86 876.17 L506.64 876.99 L510.33 874.10 L514.04 873.17 L517.67 870.94 L521.63 875.05 L525.29 873.50 L528.81 870.50 L532.77 873.11 L536.44 872.11 L539.86 868.98 L543.19 865.57 L546.94 865.81 L550.33 863.43 L553.71 861.22 L557.14 859.54 L561.61 864.13 L565.55 865.17 L568.92 863.01 L573.26 865.89 L577.76 869.15 L580.71 865.02 L584.52 864.90 L588.71 866.29 L591.62 862.43 L595.94 864.14 L598.93 860.81 L602.75 860.58 L606.10 858.66 L608.50 853.74 L612.57 854.33 L615.70 851.96 L618.21 847.82 L623.01 850.41 L625.89 847.45 L629.99 847.88 L633.35 846.26 L636.07 843.04 L639.51 841.70 L641.51 836.94 L644.29 834.17 L646.83 830.91 L649.46 827.96 L652.34 825.60 L654.91 822.65 L661.37 827.67 L664.67 826.10 L667.06 822.77 L672.85 825.93 L677.07 825.98 L678.86 821.55 L682.83 821.09 L686.25 819.62 L688.81 816.70 L691.80 814.52 L693.76 810.70 L698.10 810.69 L700.14 807.08 L701.61 802.67 L706.06 802.75 L708.41 799.71 L709.32 794.69 L712.48 792.89 L717.31 793.33 L719.66 790.39 L721.03 786.21 L726.65 787.49 L727.63 782.87 L727.79 777.35 L730.14 774.56 L731.87 771.07 L733.33 767.32 L735.17 764.05 L737.26 761.10 L744.40 763.61 L747.11 761.24 L749.49 758.52 L756.00 760.02 L757.80 756.67 L759.02 752.77 L764.41 752.92 L764.36 747.85 L766.27 744.69 L769.52 742.75 L769.47 737.87 L770.10 733.66 L773.19 731.60 L775.53 728.89 L777.12 725.56 L778.93 722.44 L782.32 720.55 L783.37 716.85 L786.61 714.82 L790.51 713.23 L794.03 711.33 L798.41 709.98 L797.92 705.21 L800.06 702.29 L803.69 700.35 L800.12 693.72 L799.47 689.09 L801.39 686.11 L802.70 682.76 L805.37 680.23 L805.18 676.03 L809.10 674.19 L816.09 673.99 L815.62 669.64 L813.81 664.64 L819.81 663.73 L819.68 659.66 L816.78 654.27 L817.02 650.48 L820.54 648.24 L822.32 645.17 L820.70 640.60 L825.15 638.70 L827.18 635.71 L826.07 631.44 L825.65 627.50 L827.95 624.64 L827.35 620.67 L828.50 617.38 L828.38 613.65 L830.95 610.85 L830.38 606.99 L830.36 603.35 L830.92 599.90 L829.52 595.89 L828.78 592.12 L828.50 588.51 L835.74 586.87 L837.88 583.83 L836.63 579.95 L842.09 577.64 L847.19 575.16 L845.54 571.19 L841.90 566.88 L845.59 564.03 L846.57 560.63 L844.29 556.69 L842.64 552.90 L849.04 550.32 L847.72 546.59 L843.86 542.57 L847.88 539.54 L847.16 535.95 L843.65 532.12 L844.44 528.72 L847.35 525.47 L847.58 521.99 L844.84 518.36 L848.49 515.06 L846.82 511.51 L842.79 507.95 L842.26 504.51 L839.82 501.08 L837.97 497.70 L836.21 494.35 L834.35 491.03 L841.83 487.41 L840.95 484.03 L840.29 480.65 L845.95 476.85 L847.99 473.22 L843.00 470.15 L842.97 466.69 L844.81 463.03 L841.80 459.89 L836.54 457.09 L835.94 453.75 L841.29 449.53 L837.18 446.69 L834.28 443.71 L838.42 439.53 L837.60 436.19 L833.34 433.53 L832.85 430.16 L831.58 426.96 L829.90 423.86 L828.89 420.62 L829.12 417.08 L828.45 413.75 L824.65 411.26 L824.52 407.80 L822.18 404.97 L817.96 402.75 L815.04 400.19 L816.14 396.35 L819.75 391.61 L818.51 388.47 L819.11 384.67 L822.56 379.76 L821.22 376.59 L815.63 375.10 L814.71 371.81 L814.16 368.35 L812.42 365.39 L809.16 363.12 L807.73 360.05 L809.48 355.50 L804.89 353.92 L803.68 350.75 L802.68 347.46 L799.16 345.46 L798.16 342.18 L797.32 338.80 L796.12 335.60 L795.65 331.97 L789.90 331.38 L791.37 326.60 L786.50 325.60 L781.86 324.53 L781.02 321.13 L779.59 318.09 L777.21 315.67 L774.02 313.81 L776.29 308.20 L773.65 305.95 L769.33 304.94 L769.92 300.36 L770.48 295.74 L764.88 295.78 L760.29 295.13 L762.42 289.17 L757.50 288.85 L753.13 288.17 L751.99 284.80 L751.12 281.16 L749.92 277.78 L745.81 276.99 L745.59 272.67 L743.15 270.37 L738.80 269.91 L735.56 268.45 L733.20 266.14 L729.90 264.79 L727.85 262.18 L724.17 261.29 L722.90 257.83 L720.08 256.04 L717.01 254.56 L714.02 253.00 L710.43 252.18 L706.92 251.32 L703.47 250.42 L705.07 243.26 L701.52 242.47 L697.74 242.02 L698.83 235.15 L696.98 232.08 L691.43 234.11 L688.99 231.87 L687.94 227.62 L683.43 228.39 L678.94 229.23 L676.82 226.54 L676.46 221.02 L672.70 220.82 L668.77 220.97 L667.62 216.52 L664.41 215.48 L661.54 213.88 L658.38 212.82 L656.23 209.89 L654.12 206.81 L649.06 209.43 L647.11 206.02 L643.12 206.70 L638.51 208.79 L635.61 207.39 L632.09 207.35 L628.29 208.02 L624.76 208.16 L621.86 206.88 L620.87 200.86 L617.17 201.45 L614.68 198.97 L612.61 195.26 L610.10 192.65 L605.70 195.36 L602.68 194.24 L600.35 190.96 L596.35 192.87 L592.69 193.86 L589.56 193.15 L587.83 187.48 L584.24 188.35 L580.65 189.33 L578.35 185.25 L574.99 185.39 L571.01 188.27 L567.88 187.65 L564.62 187.63 L561.38 187.55 L558.20 187.24 L555.26 185.62 L552.09 185.18 L548.52 187.37 L545.50 186.20 L542.16 187.20 L538.75 189.04 L535.49 190.02 L532.57 187.93 L529.75 184.36 L526.38 186.61 L523.42 184.04 L520.55 179.21 L517.14 182.73 L513.77 187.05 L510.80 182.42 L507.54 185.59 L504.37 187.77 L501.24 189.67 L498.11 185.71 L494.94 184.15 L491.86 187.11 L488.59 183.39 L485.48 184.67 L482.51 188.03 L479.52 190.26 L476.50 191.46 L473.51 192.86 L470.51 193.81 L467.43 193.95 L464.08 191.77 L461.08 192.81 L458.21 194.63 L454.95 193.70 L452.11 195.52 L449.47 198.42 L446.72 200.44 L442.50 194.49 L439.15 193.56 L436.35 195.45 L432.26 191.29 L428.27 188.07 L425.77 191.35 L423.05 193.57 L419.12 191.02 L416.68 194.23 L413.79 195.62 L410.98 197.30 L407.63 197.13 L405.49 200.86 L402.86 202.92 L399.62 203.10 L397.11 205.41 L394.78 208.15 L390.66 205.96 L387.90 207.53 L384.72 208.00 L382.01 209.68 L379.83 212.59 L377.26 214.49 L375.83 218.96 L373.48 221.21 L371.22 223.60 L369.41 226.89 L367.16 229.17 L364.90 231.40 L359.30 227.10 L356.02 227.45 L354.59 231.29 L349.31 228.06 L344.89 226.57 L344.01 231.31 L340.32 231.18 L336.87 231.54 L335.62 235.48 L332.82 236.87 L331.16 240.05 L327.52 240.17 L326.27 243.88 L325.13 247.67 L321.47 247.81 L319.85 250.84 L319.55 255.62 L316.98 257.25 L314.78 259.37 L313.06 262.10 L310.70 263.99 L307.95 265.41 L306.22 268.06 L304.98 271.28 L302.36 272.84 L297.61 272.02 L296.80 275.67 L295.72 278.96 L290.22 277.51 L287.10 278.68 L285.26 281.19 L284.26 284.53 L279.08 283.72 L277.69 286.68 L277.31 290.54 L272.11 289.91 L272.18 294.15 L270.63 296.88 L266.01 296.92 L266.77 301.64 L264.85 304.03 L263.08 306.53 L262.89 310.30 L262.12 313.55 L261.04 316.53 L261.70 320.80 L259.41 322.82 L253.87 322.50 L254.36 326.57 L254.85 330.56 L248.94 330.16 L249.65 334.26 L252.29 339.55 L250.37 341.83 L249.95 345.04 L250.12 348.59 L249.73 351.75 L245.45 352.64 L241.29 353.66 L240.41 356.57 L236.28 357.71 L231.87 358.78 L233.06 362.80 L232.50 365.87 L227.03 366.53 L229.66 371.15 L228.20 373.77 L227.95 376.95 L226.99 379.79 L227.01 383.04 L229.18 387.16 L225.30 388.76 L225.74 392.11 L227.96 396.11 L228.26 399.33 L227.99 402.32 L228.13 405.42 L228.35 408.54 L227.16 411.16 L224.04 413.19 L223.96 416.19 L225.40 419.61 L224.32 422.28 L224.99 425.43 L228.26 429.23 L228.75 432.25 L221.21 433.32 L218.28 435.59 L218.84 438.67 L213.00 440.39 L207.04 442.20 L209.37 445.68 L208.14 448.46 L205.37 451.01 L208.68 454.55 L204.79 456.96 L206.95 460.26 L207.38 463.30 L207.54 466.28 L208.60 469.36 L209.72 472.41 L210.17 475.37 L211.76 478.41 L212.24 481.33 L206.61 483.91 L210.19 487.01 L212.11 489.98 L208.61 492.78 L210.46 495.72 L213.60 498.63 L214.21 501.49 L215.08 504.34 L217.43 507.13 L218.93 509.90 L220.46 512.65 L213.95 515.81 L213.17 518.73 L214.98 521.48 L211.02 524.69 L211.48 527.56 L213.36 530.27 L211.18 533.43 L213.39 536.08 L213.38 538.99 L211.08 542.25 L213.67 544.81 L217.21 547.15 L216.87 550.12 L218.33 552.78 L220.47 555.27 L220.52 558.17 L223.28 560.49 L223.63 563.32 L224.97 565.91 L226.50 568.45 L227.58 571.08 L227.43 574.04 L228.72 576.61 L231.87 578.62 L232.08 581.48 L234.50 583.65 L237.46 585.61 L239.34 587.89 L240.43 590.43 L235.48 595.13 L236.75 597.65 L237.07 600.54 L233.44 604.99 L234.03 607.85 L236.62 609.88 L235.22 613.58 L237.56 615.70 L239.04 618.17 L240.51 620.65 L243.14 622.57 L244.05 625.29 L247.45 626.77 L249.70 628.79 L250.93 631.33 L253.34 633.22 L257.48 634.14 L258.16 636.94 L256.01 641.40 L259.67 642.50 L263.19 643.63 L260.55 648.53 L264.15 649.59 L269.92 649.17 L270.98 651.76 L273.54 653.34 L277.08 654.22 L279.35 655.94 L279.76 658.97 L277.78 663.81 L280.52 665.20 L280.58 668.62 L278.11 674.07 L282.69 674.02 L284.75 675.93 L283.16 680.88 L287.71 680.71 L289.61 682.76 L291.93 684.42 L293.72 686.56 L297.01 687.30 L300.16 688.12 L300.06 692.03 L303.94 692.11 L306.78 693.15 L308.35 695.46 L310.44 697.23 L310.25 701.42 L312.15 703.44 L312.29 707.41 L314.72 708.89 L318.23 709.10 L319.00 712.47 L321.32 714.06 L326.53 712.09 L328.80 713.64 L330.61 715.77 L335.29 714.18 L339.75 712.75 L342.61 713.35 L345.93 713.28 L349.20 713.22 L350.83 715.45 L353.85 715.67 L356.06 717.05 L357.53 719.57 L360.31 720.08 L362.91 720.83 L365.45 721.66 L367.91 722.60 L370.48 723.31 L372.43 725.12 L374.87 726.04 L376.87 727.78 L379.12 729.07 L381.68 729.74 L384.05 730.78 L386.72 731.21 L388.86 732.70 L391.31 733.54 L393.51 734.93 L395.60 736.59 L398.04 737.46 L400.58 738.09 L403.01 738.95 L405.57 739.50 L408.47 739.11 L411.05 739.54 L413.67 739.80 L416.34 739.89 L418.68 740.87 L421.00 741.96 L423.55 742.35 L426.04 742.91 L428.04 745.08 L430.53 745.66 L433.19 745.61 L435.28 747.68 L437.99 747.41 L440.48 747.98 L443.20 747.51 L445.97 746.75 L448.49 747.02 L450.85 748.12 L453.45 747.97 L455.94 748.34 L458.23 749.98 L460.82 749.80 L463.37 749.86 L465.97 749.49 L468.51 749.43 L471.04 749.43 L473.63 748.84 L476.11 749.23 L478.62 749.29 L481.03 750.48 L483.52 750.99 L486.01 751.52 L488.50 752.22 L491.04 751.81 L493.56 751.61 L496.09 750.73 L498.61 749.63 L501.11 750.68 L503.62 751.00 L506.10 749.86 L508.65 751.11 L511.23 752.69 L513.69 751.23 L516.22 751.34 L518.70 750.79 L521.17 750.16 L523.58 749.02 L525.89 747.04 L528.23 745.60 L530.69 745.37 L533.20 745.51 L535.54 744.34 L538.16 745.12 L540.56 744.44 L542.83 743.07 L545.19 742.25 L547.39 740.68 L549.93 740.81 L552.25 739.95 L554.63 739.32 L557.36 740.16 L559.71 739.38 L562.05 738.59 L564.59 738.53 L566.84 737.41 L569.18 736.65 L571.62 736.20 L573.69 734.55 L576.14 734.12 L578.32 732.87 L580.48 731.60 L582.65 730.39 L584.59 728.60 L586.67 727.21 L588.55 725.33 L590.68 724.15 L592.64 722.58 L594.44 720.65 L596.82 720.10 L598.86 718.78 L600.85 717.36 L603.19 716.69 L605.49 715.93 L607.39 714.37 L609.33 712.89 L611.65 712.16 L613.28 710.14 L615.02 708.34 L616.81 706.68 L618.76 705.30 L620.57 703.72 L622.49 702.30 L624.69 701.37 L626.70 700.12 L628.99 699.30 L631.15 698.26 L632.94 696.66 L635.02 695.50 L636.78 693.88 L638.41 692.08 L639.78 689.94 L642.73 689.94 L643.80 687.43 L644.51 684.51 L647.30 684.25 L650.10 683.95 L651.51 681.93 L653.36 680.45 L656.73 680.72 L658.40 679.00 L659.53 676.68 L660.52 674.25 L662.04 672.40 L663.04 670.03 L663.78 667.42 L665.45 665.78 L666.01 663.04 L667.32 661.07 L668.58 659.06 L669.22 656.50 L670.87 654.89 L674.83 655.32 L676.24 653.44 L678.01 651.88 L680.72 651.10 L681.07 648.34 L681.51 645.70 L682.33 643.38 L682.97 640.94 L684.25 639.01 L684.98 636.69 L686.15 634.70 L686.72 632.28 L688.65 630.84 L690.52 629.33 L690.88 626.80 L692.96 625.42 L696.57 624.99 L699.47 624.05 L699.33 621.22 L702.64 620.47 L704.19 618.64 L704.89 616.33 L704.66 613.50 L703.76 610.36 L704.77 608.27 L705.47 606.02 L706.24 603.82 L706.13 601.20 L706.63 598.89 L706.83 596.46 L706.32 593.72 L705.81 591.02 L707.53 589.31 L711.04 588.33 L711.18 585.91 L713.47 584.36 L715.03 582.50 L714.55 579.87 L714.51 577.42 L713.68 574.71 L713.98 572.43 L714.00 570.06 L713.83 567.64 L714.10 565.38 L713.94 563.00 L717.44 561.67 L718.01 559.48 L718.04 557.16 L719.74 555.26 L722.33 553.55 L721.23 550.95 L720.65 548.50 L722.10 546.50 L722.97 544.36 L723.50 542.14 L721.55 539.48 L723.09 537.46 L723.32 535.21 L721.53 532.66 L722.03 530.47 L721.59 528.15 L721.20 525.86 L720.45 523.54 L719.99 521.27 L719.63 519.02 L722.06 516.99 L722.76 514.81 L722.14 512.54 L723.00 510.35 L722.27 508.09 L721.07 505.83 L719.50 503.59 L719.39 501.40 L719.22 499.20 L718.64 497.02 L718.44 494.84 L717.61 492.68 L718.70 490.45 L718.38 488.28 L717.58 486.14 L718.81 483.86 L719.38 481.61 L718.62 479.47 L716.96 477.44 L717.40 475.19 L717.07 473.03 L716.80 470.86 L715.30 468.86 L714.79 466.74 L715.48 464.42 L714.01 462.46 L713.05 460.43 L712.21 458.39 L711.51 456.33 L710.24 454.39 L708.57 452.57 L708.40 450.41 L709.40 447.95 L710.31 445.48 L710.25 443.25 L710.45 440.93 L709.20 439.02 L706.82 437.46 L704.32 435.98 L702.36 434.37 L701.35 432.46 L700.36 430.56 L699.28 428.69 L701.01 425.80 L707.14 421.17 L704.11 419.98 L705.58 417.02 L712.06 411.93 L708.85 410.80 L704.71 410.14 L708.27 406.08 L704.82 405.16 L701.83 404.09 L701.00 402.00 L701.71 399.15 L700.89 397.04 L697.82 396.10 L697.74 393.60 L694.90 392.60 L690.60 392.47 L688.28 391.29 L689.63 387.97 L690.40 384.93 L687.76 383.94 L686.96 381.84 L686.18 379.71 L683.93 378.54 L680.45 378.23 L677.95 377.30 L677.63 374.89 L676.15 373.28 L674.71 371.64 L676.90 367.29 L675.73 365.40 L672.59 365.04 L674.75 360.52 L675.23 357.24 L669.97 358.68 L666.99 358.31 L668.51 354.09 L664.91 354.30 L661.87 354.08 L658.97 353.79 L660.44 349.44 L656.90 349.79 L653.38 350.19 L654.29 346.25 L651.07 346.43 L647.63 346.88 L646.37 345.13 L647.64 340.61 L645.83 339.37 L643.11 339.18 L643.37 335.60 L640.25 335.89 L637.66 335.62 L634.53 336.05 L632.98 334.59 L631.58 332.95 L629.48 332.18 L628.30 330.24 L629.23 325.40 L626.13 325.97 L623.45 326.04 L624.36 320.99 L623.35 318.60 L618.69 321.64 L617.32 319.82 L616.48 317.14 L613.19 318.32 L611.13 317.58 L608.90 317.16 L609.30 312.23 L605.63 314.30 L602.60 315.35 L601.94 312.13 L598.20 314.63 L595.27 315.73 L594.12 313.40 L594.01 308.90 L591.01 310.22 L588.72 310.16 L587.82 307.07 L584.86 308.52 L582.62 308.41 L579.95 309.39 L578.33 307.90 L576.38 307.18 L573.95 307.73 L572.37 306.06 L569.88 306.88 L568.29 305.18 L566.71 303.44 L564.62 303.13 L562.56 302.76 L560.87 301.23 L558.80 300.89 L556.65 300.86 L554.84 299.65 L552.88 298.92 L550.54 299.71 L548.32 300.11 L546.33 299.56 L543.96 300.75 L541.76 301.30 L539.55 302.01 L537.54 301.79 L535.59 301.25 L533.53 301.32 L531.53 301.03 L529.55 300.64 L527.80 298.63 L525.76 298.50 L523.59 299.55 L522.16 294.03 L519.96 295.21 L517.57 298.92 L515.72 296.63 L513.70 296.30 L511.73 295.11 L509.57 297.26 L507.59 295.97 L505.68 290.88 L503.54 294.09 L501.45 298.09 L499.42 293.68 L497.38 295.66 L495.38 297.52 L493.31 296.39 L491.30 296.90 L489.25 296.73 L487.42 299.98 L485.38 299.61 L483.58 302.20 L481.83 304.83 L479.98 305.97 L477.84 304.40 L475.46 301.20 L473.74 303.49 L471.75 303.57 L469.42 301.46 L467.78 303.89 L466.49 308.05 L464.27 306.73 L462.43 307.61 L460.94 310.06 L458.85 309.57 L455.82 305.03 L453.91 305.63 L452.36 307.68 L449.60 304.94 L446.82 302.34 L446.28 308.00 L445.08 311.02 L441.74 306.75 L440.97 311.08 L439.58 313.20 L437.75 313.92 L435.17 312.46 L433.89 314.79 L433.24 318.72 L430.46 316.83 L429.42 319.55 L428.59 322.68 L426.93 323.66 L424.31 322.39 L421.89 321.66 L420.82 324.03 L418.27 323.13 L416.35 323.62 L415.96 327.28 L414.85 329.34 L412.94 329.80 L411.98 332.09 L411.21 334.67 L410.01 336.38 L405.33 331.87 L403.66 332.84 L402.64 334.92 L399.08 332.72 L395.77 331.08 L396.78 336.39 L395.62 338.17 L392.04 336.24 L391.95 339.61 L391.34 342.14 L389.76 343.22 L385.87 341.09 L386.15 344.78 L387.10 349.26 L383.64 347.84 L384.37 351.87 L384.71 355.32 L382.61 355.68 L378.40 353.51 L378.48 356.55 L378.13 359.02 L372.94 355.96 L373.50 359.45 L374.31 363.13 L372.96 364.41 L371.68 365.75 L371.50 368.23 L371.04 370.38 L369.02 370.96 L364.41 369.06 L364.81 372.03 L363.40 373.26 L359.78 372.49 L357.59 373.08 L359.99 377.70 L357.91 378.37 L354.26 377.75 L355.78 381.46 L354.68 382.98 L353.26 384.23 L351.31 385.09 L352.54 388.37 L352.15 390.39 L350.84 391.71 L352.27 394.99 L352.92 397.65 L352.03 399.21 L346.14 397.43 L347.43 400.48 L348.85 403.55 L340.75 400.61 L341.54 403.29 L341.60 405.49 L338.92 406.06 L337.07 407.15 L336.31 408.88 L336.03 410.86 L334.55 412.18 L332.84 413.41 L335.26 416.74 L334.00 418.18 L330.87 418.72 L332.74 421.67 L334.93 424.70 L329.48 424.27 L331.27 427.07 L332.44 429.56 L331.46 431.12 L329.21 432.19 L330.34 434.59 L332.54 437.36 L330.07 438.36 L332.33 441.07 L334.70 443.76 L334.39 445.49 L332.21 446.63 L328.81 447.43 L330.07 449.67 L329.31 451.29 L326.63 452.40 L327.41 454.46 L330.20 457.01 L330.17 458.81 L329.13 460.36 L330.43 462.44 L330.62 464.26 L325.33 464.96 L323.89 466.50 L326.66 468.82 L321.45 469.73 L318.22 471.04 L323.92 473.76 L325.75 475.81 L320.07 476.85 L323.07 479.03 L324.82 481.01 L323.68 482.67 L321.21 484.23 L323.84 486.24 L327.57 488.26 L323.99 489.79 L327.80 491.73 L330.65 493.57 L330.21 495.25 L326.18 496.88 L327.35 498.63 L329.03 500.35 L324.48 502.11 L326.44 503.83 L328.54 505.49 L330.21 507.14 L329.50 508.88 L330.90 510.50 L333.87 511.99 L334.63 513.60 L328.55 515.82 L330.74 517.33 L333.86 518.69 L328.39 521.05 L325.66 523.15 L331.70 524.07 L331.60 525.80 L327.44 528.21 L330.71 529.41 L333.48 530.65 L333.45 532.38 L329.55 534.91 L333.93 535.75 L336.46 536.92 L334.98 538.99 L338.71 539.82 L341.75 540.75 L340.63 542.74 L336.59 545.58 L339.42 546.53 L341.57 547.63 L336.04 551.09 L339.36 551.82 L343.07 552.36 L343.85 553.84 L343.70 555.65 L346.57 556.36 L348.86 557.24 L348.00 559.31 L344.06 562.65 L344.58 564.25 L343.90 566.37 L341.77 569.16 L343.06 570.47 L344.34 571.77 L343.99 573.83 L349.97 572.85 L348.49 575.45 L348.00 577.60 L352.03 577.42 L352.34 579.14 L351.72 581.40 L353.07 582.58 L353.69 584.17 L354.77 585.49 L356.41 586.47 L356.23 588.55 L357.61 589.67 L357.46 591.77 L358.47 593.14 L359.59 594.43 L362.33 594.60 L367.01 593.35 L371.40 592.21 L375.72 591.00 L379.88 589.82 L382.45 589.74 L379.31 594.07 L375.90 598.73 L376.42 600.36 L373.51 604.83 L370.24 609.75 L372.00 610.47 L374.98 610.10 L374.31 612.94 L375.52 614.13 L378.45 613.70 L379.99 614.53 L379.29 617.52 L380.82 618.39 L384.39 617.16 L384.19 619.73 L385.67 620.59 L388.87 619.59 L390.81 619.88 L392.21 620.75 L393.78 621.42 L395.25 622.17 L397.36 622.16 L397.53 624.47 L399.54 624.55 L401.55 624.59 L403.55 624.60 L405.89 624.12 L408.16 623.68 L410.50 623.07 L407.94 629.29 L408.96 630.60 L410.78 630.76 L409.69 635.25 L410.27 637.33 L412.81 636.41 L414.71 636.42 L415.39 638.38 L417.90 637.35 L419.76 637.34 L420.87 638.59 L421.31 641.08 L423.01 641.35 L425.50 640.09 L425.96 642.66 L427.58 643.01 L430.33 641.06 L431.88 641.47 L431.89 645.14 L433.69 645.05 L436.21 643.32 L436.50 646.60 L438.37 646.27 L441.25 643.44 L443.28 642.52 L445.20 641.80 L447.34 640.44 L449.28 639.48 L451.15 638.63 L450.70 644.53 L452.25 644.68 L453.31 646.39 L453.82 649.95 L454.99 651.53 L457.14 649.75 L458.62 650.22 L460.05 650.94 L462.00 649.60 L463.76 648.89 L465.44 648.44 L466.26 651.76 L467.83 651.85 L469.80 649.93 L470.89 652.38 L472.53 652.00 L474.62 648.95 L476.06 649.54 L477.68 648.94 L479.21 648.84 L480.79 648.37 L482.25 648.78 L483.69 649.38 L485.43 647.03 L486.91 647.14 L488.50 645.69 L490.07 644.19 L491.61 642.66 L492.96 644.22 L494.31 646.62 L495.85 644.17 L497.22 647.98 L498.68 650.87 L500.18 647.89 L501.63 644.83 L503.16 648.82 L504.59 646.89 L505.96 644.52 L507.37 643.66 L508.87 644.62 L510.50 647.20 L511.70 643.75 L513.34 645.77 L514.85 646.21 L515.94 642.69 L517.78 645.96 L519.01 644.03 L520.72 645.71 L522.35 646.65 L523.09 641.95 L525.14 645.35 L525.84 640.98 L526.34 636.07 L527.67 635.64 L528.85 634.52 L529.44 630.88 L530.32 628.78 L533.00 634.11 L534.49 634.39 L536.00 634.66 L538.76 639.36 L541.29 642.91 L541.89 639.74 L542.94 638.19 L545.20 640.50 L546.01 638.28 L547.03 636.74 L548.58 636.79 L550.54 637.93 L551.74 636.93 L552.25 634.22 L554.05 634.83 L555.26 633.97 L555.41 630.60 L556.48 629.51 L557.69 628.76 L558.24 626.57 L559.89 626.81 L560.18 624.20 L562.24 625.24 L562.66 622.98 L563.41 621.44 L564.30 620.18 L564.26 617.28 L564.84 615.58 L565.29 613.70 L569.17 617.73 L570.21 616.79 L571.34 616.04 L574.83 619.02 L576.69 619.33 L576.77 616.86 L578.27 616.58 L579.75 616.26 L579.26 613.10 L579.89 611.61 L581.27 611.17 L583.59 611.98 L584.41 610.75 L584.69 608.85 L587.06 609.60 L587.70 608.18 L588.93 607.48 L589.76 606.30 L591.44 606.12 L593.53 606.37 L591.66 602.16 L593.70 602.37 L592.83 599.40 L590.83 595.32 L591.65 594.29 L591.70 592.47 L590.98 589.92 L590.94 588.10 L592.03 587.39 L596.35 589.68 L596.84 588.34 L599.76 589.20 L601.86 589.26 L604.32 589.59 L603.59 587.17 L603.84 585.63 L605.60 585.31 L604.75 582.92 L604.73 581.21 L604.76 579.56 L607.77 580.16 L608.84 579.28 L607.71 576.82 L610.06 576.85 L610.14 575.28 L608.03 572.26 L609.38 571.59 L608.98 569.78 L609.72 568.72 L609.47 567.05 L610.76 566.33 L611.49 565.26 L609.53 562.65 L610.29 561.63 L609.85 559.95 L608.67 557.90 L607.70 556.01 L610.25 555.94 L612.45 555.65 L611.35 553.73 L614.58 553.88 L617.94 554.03 L615.53 551.53 L613.15 549.12 L615.72 548.86 L614.77 547.12 L613.08 545.11 L612.45 543.56 L616.33 543.73 L617.29 542.75 L615.78 540.90 L619.99 541.04 L618.99 539.37 L615.79 537.03 L613.64 535.10 L612.28 533.45 L612.08 532.17 L609.86 530.35 L608.92 528.92 L614.18 529.10 L613.53 527.73 L609.49 525.59 L610.68 524.70 L609.53 523.29 L604.80 521.20 L601.87 519.55 L600.82 518.30 L600.38 517.19 L600.11 516.11 L599.94 515.06 L599.81 514.02 L599.69 512.99 L599.60 511.96 L599.51 510.95 L599.42 509.93 L599.32 508.92 L599.22 507.91 L599.10 506.90 L598.98 505.90 L598.85 504.90 L598.71 503.91 L598.55 502.91 L598.39 501.92 L598.22 500.94 Z"/>
  <svg class="pausebutton" id="pausebutton">
    <circle cx="500" cy="500" id="pausestart" class="pausestart" r="52.65"/>
    <rect height="50.02" width="10.00" y="473.68" rx="2.00" ry="2.00" x="479.99" class="pausesymbol"/>
    <rect height="50.02" width="10.00" y="473.68" rx="2.00" ry="2.00" x="510.00" class="pausesymbol"/>
    <polygon points="530.01,500 479.99,530.01 479.99,469.99" class="playsymbol"/>
  </svg>
  <polygon id="playback-head" class="playback-head" points="941.65,500 921.65,540 961.65,540"/>
</svg>