<?xml-stylesheet href="../../style/waveformjs.css" type="text/css"?>
<svg xmlns="http://www.w3.org/2000/svg" xmlns:xlink="http://www.w3.org/1999/xlink" width="100%" height="100%" viewBox="0 0 1000 1000">
  <path class="svg-wave" id="sp" d="M598.04 500.00 L598.21 500.98 L598.37 501.97 L598.53 502.96 L598.67 503.95 L598.80 504.94 L598.92 505.94 L599.03 506.94 L599.14 507.95 L599.22 508.95 L599.30 509.96 L599.37 510.97 L599.43 511.99 L599.47 513.00 L599.50 514.02 L599.53 515.04 L599.54 516.06 L599.54 517.09 L599.52 518.11 L599.50 519.14 L599.46 520.16 L599.41 521.19 L599.35 522.22 L599.28 523.24 L599.19 524.27 L599.09 525.30 L598.99 526.33 L598.86 527.36 L598.73 528.39 L598.58 529.42 L598.42 530.44 L598.24 531.47 L598.05 532.49 L597.85 533.52 L597.64 534.54 L597.39 535.55 L597.12 536.56 L596.86 537.57 L596.61 538.59 L596.34 539.60 L596.00 540.59 L595.68 541.59 L595.40 542.60 L595.08 543.61 L594.72 544.59 L594.33 545.57 L593.97 546.56 L593.53 547.51 L593.03 548.43 L592.70 549.44 L592.16 550.35 L591.49 551.17 L591.08 552.15 L590.63 553.10 L589.90 553.89 L589.03 554.58 L588.41 555.43 L588.05 556.44 L586.97 556.98 L585.53 557.27 L584.54 557.84 L583.80 558.57 L582.86 559.16 L581.28 559.26 L579.41 559.12 L577.89 559.21 L577.21 559.92 L576.34 560.48 L573.70 559.60 L572.08 559.49 L572.43 561.00 L571.12 561.13 L569.26 560.75 L569.02 561.76 L570.21 564.11 L570.47 565.65 L571.18 567.65 L572.01 569.83 L571.63 570.86 L571.65 572.31 L570.74 572.84 L567.93 571.36 L565.53 570.23 L563.06 568.96 L561.09 568.16 L558.96 567.12 L557.81 567.15 L557.76 568.47 L557.65 569.74 L557.68 571.21 L557.65 572.65 L557.84 574.41 L557.24 575.17 L556.39 575.61 L555.56 576.07 L554.37 576.03 L554.43 577.75 L553.80 578.51 L554.15 580.73 L554.90 583.65 L555.55 586.51 L556.12 589.35 L555.65 590.60 L554.42 590.62 L553.16 590.57 L551.64 590.03 L549.74 588.77 L547.52 586.81 L545.33 584.82 L543.58 583.56 L542.20 582.91 L540.62 581.83 L539.47 581.55 L539.26 583.23 L538.96 584.77 L538.47 585.95 L537.84 586.86 L537.84 589.30 L537.57 591.20 L536.51 591.20 L535.87 592.25 L535.11 593.07 L534.80 595.10 L534.41 597.03 L533.89 598.70 L533.87 601.92 L533.75 605.07 L532.80 605.74 L531.51 605.28 L530.19 604.68 L528.70 603.38 L527.16 601.79 L525.88 601.01 L524.45 599.58 L522.95 597.68 L521.68 596.59 L520.51 595.85 L519.16 594.11 L518.20 594.22 L517.38 595.10 L516.52 595.80 L515.75 597.13 L514.98 598.59 L514.27 600.65 L513.44 602.19 L512.58 603.67 L511.67 604.88 L510.82 606.96 L509.85 608.16 L508.85 609.28 L507.81 610.11 L506.73 610.58 L505.63 610.77 L504.50 610.30 L503.35 608.75 L502.23 607.33 L501.16 607.21 L500.08 605.99 L499.03 605.16 L497.99 604.80 L496.94 604.65 L495.95 603.22 L494.98 601.89 L493.95 602.10 L492.99 601.15 L492.01 600.71 L490.85 602.29 L489.72 603.32 L488.47 605.21 L487.13 607.48 L485.78 609.43 L484.40 611.31 L482.98 613.24 L481.63 614.43 L480.37 614.90 L479.10 615.38 L478.03 614.74 L477.12 613.34 L476.34 611.43 L475.68 609.16 L474.93 607.45 L474.21 605.75 L473.20 605.29 L472.10 605.22 L470.92 605.40 L469.69 605.71 L468.52 605.79 L467.88 604.14 L467.36 602.18 L466.57 601.14 L465.58 600.74 L464.84 599.64 L463.29 600.81 L461.21 603.31 L459.36 605.02 L457.76 606.01 L455.99 607.31 L454.55 607.75 L453.01 608.36 L451.58 608.65 L450.65 607.82 L449.35 607.81 L449.06 605.66 L448.44 604.27 L448.25 602.07 L448.22 599.65 L447.12 599.32 L446.29 598.50 L445.34 597.91 L443.76 598.40 L442.24 598.76 L441.16 598.34 L440.34 597.48 L439.30 596.99 L439.10 595.18 L438.18 594.53 L436.77 594.60 L435.45 594.51 L432.96 596.08 L431.02 596.78 L428.44 598.31 L426.61 598.73 L425.46 598.22 L424.18 597.85 L423.22 597.07 L422.60 595.88 L422.13 594.51 L422.85 591.74 L423.12 589.59 L423.20 587.71 L423.81 585.28 L423.65 583.75 L422.67 583.14 L421.38 582.85 L420.49 582.13 L419.18 581.83 L417.24 582.13 L415.50 582.19 L414.34 581.68 L412.64 581.65 L411.28 581.27 L410.00 580.80 L408.09 580.87 L406.32 580.78 L403.97 581.15 L401.52 581.54 L399.03 581.92 L397.14 581.76 L396.51 580.58 L396.35 579.05 L396.24 577.51 L396.41 575.78 L396.92 573.84 L398.22 571.38 L399.31 569.12 L400.03 567.17 L400.62 565.34 L400.82 563.80 L400.82 562.40 L399.35 561.93 L397.86 561.45 L396.08 561.11 L395.03 560.32 L392.64 560.28 L390.04 560.30 L389.02 559.42 L387.10 559.01 L385.24 558.52 L383.49 557.95 L382.20 557.13 L381.00 556.25 L380.02 555.26 L378.96 554.29 L380.08 552.35 L381.14 550.48 L380.82 549.21 L380.56 547.92 L380.65 546.51 L380.60 545.16 L380.21 543.94 L380.95 542.33 L381.77 540.71 L382.61 539.11 L383.37 537.56 L382.57 536.53 L381.51 535.56 L379.65 534.82 L377.83 534.02 L375.68 533.28 L373.37 532.55 L370.86 531.82 L369.22 530.84 L368.04 529.73 L364.99 529.00 L364.16 527.76 L364.03 526.37 L363.35 525.09 L363.70 523.62 L364.69 522.06 L366.30 520.42 L367.43 518.90 L367.61 517.52 L368.53 516.07 L368.06 514.79 L368.29 513.43 L368.55 512.07 L368.88 510.72 L370.52 509.29 L371.74 507.91 L372.27 506.60 L372.84 505.29 L372.53 504.03 L371.20 502.78 L369.94 501.51 L367.77 500.21 L365.14 498.87 L362.29 497.46 L359.67 496.01 L357.29 494.52 L355.49 493.00 L355.23 491.53 L356.84 490.19 L358.28 488.87 L359.72 487.57 L362.60 486.43 L364.11 485.21 L365.19 483.96 L366.15 482.72 L366.05 481.34 L364.99 479.82 L364.66 478.38 L364.75 477.01 L364.73 475.61 L366.44 474.53 L367.77 473.42 L368.48 472.19 L369.25 470.98 L368.32 469.39 L367.03 467.68 L364.64 465.67 L362.85 463.75 L361.59 461.93 L360.50 460.13 L360.43 458.59 L359.36 456.74 L360.08 455.43 L362.13 454.55 L363.94 453.64 L366.19 452.91 L368.15 452.11 L370.94 451.66 L372.79 450.89 L373.30 449.63 L373.16 448.10 L373.37 446.70 L372.45 444.80 L370.99 442.63 L370.67 440.93 L370.75 439.40 L371.39 438.12 L373.21 437.43 L373.72 436.11 L373.69 434.50 L372.98 432.51 L371.26 429.93 L369.30 427.16 L367.02 424.14 L366.75 422.21 L367.30 420.75 L368.02 419.37 L369.17 418.27 L371.20 417.73 L373.89 417.66 L377.19 418.05 L380.04 418.21 L382.69 418.29 L385.23 418.34 L386.90 417.81 L387.31 416.38 L387.41 414.69 L387.23 412.77 L386.24 410.16 L383.86 406.39 L382.94 403.70 L382.09 401.01 L380.16 397.33 L381.43 396.34 L382.46 395.15 L383.55 394.01 L385.79 393.94 L387.54 393.45 L388.00 391.74 L388.21 389.76 L389.40 388.73 L389.70 386.79 L390.53 385.37 L392.88 385.57 L395.40 385.99 L395.17 383.42 L398.02 384.29 L400.57 384.88 L401.75 383.92 L402.90 382.92 L403.60 381.38 L406.59 382.67 L406.19 379.73 L408.16 379.78 L411.06 381.14 L412.96 381.22 L414.59 380.97 L414.76 378.66 L416.32 378.31 L417.07 376.78 L418.32 375.98 L418.99 374.28 L420.13 373.28 L422.37 374.06 L421.39 369.56 L422.33 368.17 L424.88 369.52 L426.22 368.83 L427.86 368.69 L426.97 363.86 L428.52 363.49 L429.67 362.37 L430.22 360.00 L432.58 361.27 L434.42 361.55 L437.80 365.24 L438.28 362.67 L440.00 362.85 L441.39 362.29 L441.42 358.45 L442.15 356.16 L443.37 355.02 L445.37 355.91 L446.76 355.23 L448.49 355.49 L450.20 355.73 L451.89 355.96 L453.87 357.17 L453.97 352.46 L455.23 351.28 L456.89 351.42 L457.86 349.14 L459.86 350.54 L461.51 350.76 L463.81 353.65 L464.77 351.15 L466.13 350.22 L467.79 350.63 L468.51 346.54 L469.68 344.36 L471.39 344.90 L473.19 346.02 L474.86 346.52 L476.36 346.09 L478.21 348.01 L479.78 348.16 L481.07 346.06 L482.64 346.22 L484.21 346.28 L485.43 342.72 L486.93 341.75 L488.83 346.00 L490.18 342.76 L491.83 344.15 L493.40 344.47 L494.90 342.69 L496.48 342.74 L498.02 340.47 L499.62 339.16 L501.23 338.99 L502.81 340.43 L504.38 341.37 L506.05 339.26 L507.60 340.60 L509.16 341.22 L510.73 341.48 L512.53 338.93 L514.55 334.39 L516.01 336.51 L517.98 333.58 L519.63 333.87 L520.84 337.61 L522.30 338.98 L523.54 341.71 L525.32 340.67 L526.51 343.32 L528.85 339.30 L530.58 338.94 L532.17 339.32 L534.19 337.71 L535.77 338.23 L537.59 337.69 L538.45 341.23 L540.35 340.37 L541.56 342.24 L542.50 345.01 L544.87 342.56 L546.00 344.51 L548.63 341.44 L549.96 342.73 L550.71 345.74 L554.50 339.63 L554.67 344.28 L556.89 342.98 L558.87 342.45 L559.68 345.02 L563.20 340.68 L565.20 340.29 L566.80 340.95 L567.65 343.32 L569.61 343.12 L571.83 342.39 L572.22 345.65 L573.06 347.82 L574.15 349.43 L576.14 349.22 L577.35 350.55 L578.08 352.76 L580.42 351.95 L580.95 354.46 L581.73 356.46 L582.87 357.79 L586.66 354.64 L587.77 356.07 L589.41 356.63 L593.09 353.99 L594.67 354.74 L596.42 355.25 L596.86 357.69 L598.35 358.57 L601.73 356.78 L602.35 358.92 L603.39 360.44 L605.31 360.78 L605.72 363.11 L606.47 364.95 L607.25 366.73 L608.97 367.32 L608.17 370.95 L609.78 371.66 L610.93 372.91 L613.05 373.06 L616.19 372.14 L616.33 374.53 L619.86 373.29 L621.68 373.91 L622.49 375.59 L622.61 377.93 L624.09 378.90 L628.45 377.13 L628.99 379.06 L629.43 381.06 L632.00 381.11 L632.85 382.73 L638.07 380.56 L638.16 382.87 L640.97 382.89 L645.93 381.22 L646.41 383.24 L644.43 387.17 L642.31 391.10 L645.35 391.06 L640.98 396.52 L642.58 397.53 L645.37 397.70 L646.31 399.22 L649.44 399.25 L648.88 401.78 L651.21 402.40 L648.62 406.16 L648.50 408.30 L650.60 409.07 L651.07 410.84 L651.72 412.49 L651.95 414.37 L657.09 413.53 L655.32 416.52 L653.42 419.50 L658.67 418.77 L656.01 422.09 L656.65 423.71 L659.34 424.37 L662.27 424.95 L670.10 423.39 L673.08 424.12 L678.87 423.70 L678.70 425.88 L677.54 428.43 L678.06 430.28 L675.35 433.36 L673.02 436.22 L672.49 438.36 L675.17 439.38 L674.96 441.40 L674.17 443.60 L678.83 444.06 L678.16 446.22 L679.23 447.84 L676.36 450.58 L680.48 451.37 L682.67 452.74 L681.33 455.01 L689.33 455.03 L688.88 457.13 L690.58 458.74 L689.44 460.97 L687.84 463.25 L689.99 464.80 L687.81 467.15 L686.59 469.28 L687.60 471.04 L684.72 473.37 L683.21 475.45 L682.34 477.42 L684.76 479.00 L681.95 481.16 L683.42 482.86 L685.82 484.51 L684.67 486.46 L687.00 488.17 L687.59 490.01 L695.42 491.56 L697.38 493.45 L699.79 495.37 L702.33 497.33 L698.70 499.37 L699.99 501.36 L695.77 503.29 L691.07 505.12 L690.93 507.03 L689.62 508.88 L693.59 511.01 L690.59 512.75 L691.24 514.72 L694.10 516.89 L692.23 518.67 L689.79 520.35 L685.81 521.80 L688.10 523.98 L684.91 525.46 L684.72 527.32 L688.86 529.86 L689.14 531.85 L693.70 534.61 L690.92 536.09 L689.67 537.82 L687.62 539.37 L684.84 540.72 L684.36 542.55 L681.72 543.86 L684.62 546.52 L682.55 547.94 L684.74 550.49 L685.72 552.76 L682.40 553.80 L686.27 556.97 L681.89 557.63 L681.06 559.36 L682.83 561.97 L682.99 564.07 L690.48 568.84 L690.73 571.10 L694.05 574.55 L693.79 576.69 L689.41 577.15 L689.75 579.51 L685.42 579.89 L680.84 580.07 L680.06 581.89 L683.04 585.46 L684.21 588.26 L682.82 589.85 L687.92 594.71 L685.77 595.96 L682.56 596.63 L678.03 596.52 L676.41 597.94 L677.47 600.86 L674.00 601.21 L678.57 606.27 L677.83 608.25 L677.48 610.48 L674.92 611.33 L673.16 612.66 L673.35 615.27 L669.11 614.91 L666.89 615.85 L667.50 618.78 L663.53 618.44 L659.84 618.22 L657.67 619.07 L659.28 622.81 L654.98 621.98 L653.19 623.07 L655.40 627.42 L652.40 627.54 L652.73 630.43 L651.68 632.18 L654.03 636.97 L655.40 640.98 L655.81 644.23 L656.04 647.36 L652.50 646.94 L652.42 649.83 L648.24 648.66 L643.53 646.85 L641.86 648.07 L639.43 648.48 L641.79 654.05 L638.51 653.54 L636.80 654.73 L638.25 659.55 L635.32 659.36 L633.04 659.89 L628.79 657.97 L627.91 660.13 L624.03 658.50 L621.23 658.16 L622.74 663.49 L621.24 664.90 L621.70 669.05 L620.13 670.43 L619.10 672.61 L616.90 673.10 L613.83 672.24 L612.81 674.46 L609.76 673.54 L607.89 674.42 L605.58 674.55 L604.46 676.66 L602.50 677.38 L599.38 676.02 L599.78 680.92 L597.06 680.23 L594.65 680.05 L594.82 684.84 L593.25 686.34 L593.25 691.09 L591.93 693.27 L590.56 695.40 L588.29 695.60 L585.10 693.69 L582.74 693.56 L580.13 692.74 L577.47 691.73 L575.55 692.52 L574.62 695.88 L573.27 698.26 L570.99 698.17 L569.79 701.14 L567.84 702.02 L565.36 701.28 L562.27 698.51 L559.92 697.93 L559.11 702.51 L556.90 702.46 L555.25 704.42 L554.09 708.38 L552.87 712.39 L550.42 711.53 L547.82 709.92 L546.65 714.66 L543.77 711.58 L540.89 708.15 L539.09 710.06 L536.69 708.74 L534.06 705.84 L531.90 705.52 L530.40 709.68 L527.92 707.14 L525.88 707.68 L524.18 711.24 L521.90 709.82 L520.04 712.63 L517.88 712.36 L515.92 714.81 L514.09 719.99 L511.92 720.62 L509.77 721.93 L507.57 722.59 L505.36 723.65 L503.10 721.89 L500.87 719.36 L498.68 719.25 L496.53 716.70 L494.23 721.67 L492.14 718.00 L490.01 716.88 L487.58 721.40 L485.50 719.38 L483.38 718.19 L481.43 715.32 L479.10 716.99 L477.31 713.18 L475.45 710.67 L472.60 716.31 L470.72 713.95 L468.25 715.87 L465.91 716.75 L463.60 717.22 L461.55 716.16 L459.42 715.61 L456.87 717.21 L455.29 713.94 L453.23 713.12 L451.02 713.01 L448.89 712.52 L446.57 712.77 L444.93 710.38 L442.22 712.07 L440.20 711.11 L438.52 709.07 L435.38 711.90 L433.26 711.24 L429.97 714.17 L427.49 714.46 L425.54 713.18 L423.26 712.85 L421.87 710.10 L420.42 707.63 L418.32 706.90 L416.60 705.22 L414.46 704.58 L411.44 706.01 L407.90 708.46 L405.87 707.42 L402.37 709.54 L400.04 709.05 L398.31 707.32 L397.24 704.32 L396.34 701.06 L393.13 702.31 L391.68 700.17 L388.40 701.38 L385.47 701.88 L383.09 701.36 L380.05 701.93 L379.83 697.76 L377.71 696.79 L376.36 694.59 L376.20 690.61 L374.34 689.30 L372.95 687.31 L372.37 684.16 L371.29 681.82 L367.69 683.00 L366.75 680.46 L365.57 678.30 L361.70 679.68 L360.53 677.49 L358.06 676.96 L356.22 675.63 L352.75 676.24 L348.33 677.88 L346.37 676.58 L342.58 677.32 L341.78 674.67 L340.15 672.97 L338.75 671.01 L338.73 667.65 L337.43 665.65 L336.50 663.30 L330.84 665.61 L330.69 662.47 L329.66 660.22 L322.69 663.46 L322.88 660.04 L322.18 657.47 L324.17 652.59 L322.99 650.55 L322.81 647.67 L324.90 642.98 L318.11 645.52 L316.94 643.48 L313.79 642.97 L311.35 641.86 L308.66 640.91 L307.83 638.58 L310.23 633.99 L307.27 633.21 L306.68 630.78 L307.92 627.16 L305.88 625.74 L304.48 623.88 L301.95 622.73 L303.01 619.37 L299.81 618.58 L297.66 617.14 L298.36 614.06 L293.58 614.05 L292.12 612.16 L287.94 611.69 L284.27 610.88 L282.80 608.91 L280.83 607.16 L282.19 603.81 L282.89 600.83 L285.15 597.18 L285.38 594.50 L285.03 592.10 L284.37 589.84 L279.98 589.10 L279.77 586.63 L277.94 584.80 L275.22 583.27 L274.95 580.82 L276.31 577.82 L278.26 574.66 L275.00 573.26 L273.67 571.20 L272.67 569.02 L269.57 567.45 L265.80 566.02 L263.20 564.21 L264.51 561.33 L262.60 559.30 L261.71 557.00 L263.19 554.14 L261.96 551.93 L262.81 549.26 L264.13 546.53 L265.56 543.82 L261.69 542.08 L263.60 539.31 L265.39 536.60 L259.40 535.08 L262.35 532.23 L260.05 530.10 L259.49 527.73 L257.93 525.46 L252.89 523.49 L253.92 520.91 L252.24 518.56 L253.19 516.01 L253.82 513.50 L254.03 511.02 L255.17 508.52 L256.55 506.03 L258.12 503.57 L254.87 501.17 L256.23 498.73 L257.04 496.30 L251.87 493.74 L252.89 491.29 L253.05 488.82 L257.53 486.60 L258.60 484.23 L259.65 481.89 L263.18 479.77 L258.11 476.90 L256.85 474.32 L252.25 471.33 L251.06 468.66 L251.94 466.25 L249.62 463.38 L255.81 461.79 L255.65 459.26 L256.62 456.91 L259.03 454.85 L259.03 452.35 L259.07 449.85 L256.36 446.74 L260.35 445.09 L260.84 442.68 L258.64 439.60 L262.53 438.04 L258.66 434.45 L259.40 432.06 L257.15 428.79 L252.97 424.88 L253.92 422.47 L253.13 419.50 L256.73 417.97 L259.54 416.23 L263.06 414.79 L265.49 413.01 L266.78 410.82 L267.72 408.51 L263.25 404.00 L265.25 402.07 L265.66 399.48 L263.09 395.56 L265.78 393.93 L269.10 392.64 L274.36 392.33 L274.80 389.76 L274.06 386.58 L274.52 383.98 L273.64 380.65 L271.96 376.83 L271.55 373.64 L273.92 371.99 L276.89 370.70 L278.37 368.58 L280.89 367.10 L281.35 364.37 L283.90 362.94 L286.79 361.76 L289.00 360.18 L289.03 357.14 L291.15 355.51 L293.82 354.29 L291.49 349.49 L295.11 348.97 L295.86 346.34 L296.78 343.83 L297.59 341.21 L295.21 336.00 L298.67 335.44 L299.65 332.88 L302.04 331.48 L304.83 330.46 L307.17 329.08 L310.81 328.91 L312.23 326.74 L314.39 325.26 L314.59 321.92 L313.74 317.49 L315.06 315.12 L313.07 309.37 L313.62 306.08 L315.04 303.67 L318.65 303.60 L321.54 302.80 L322.77 300.18 L323.88 297.39 L325.28 294.90 L326.47 292.11 L327.54 289.15 L328.43 285.91 L331.38 285.22 L333.25 283.17 L335.81 282.02 L338.83 281.52 L341.63 280.76 L344.78 280.53 L345.46 276.79 L349.49 277.90 L352.19 277.11 L353.60 274.37 L357.05 274.79 L359.95 274.41 L362.70 273.81 L364.27 271.28 L366.79 270.33 L369.80 270.24 L371.26 267.44 L373.81 266.57 L375.29 263.68 L378.55 264.18 L380.03 261.22 L381.33 257.79 L384.57 258.31 L387.16 257.54 L389.54 256.31 L390.36 251.53 L393.13 251.11 L395.83 250.53 L396.95 246.13 L400.28 247.08 L403.20 247.11 L406.78 248.98 L409.66 249.06 L412.01 247.72 L414.84 247.74 L416.30 243.62 L419.02 243.30 L421.05 240.72 L424.01 241.17 L426.79 241.10 L429.32 240.14 L432.11 240.18 L435.20 241.44 L437.94 241.44 L440.03 238.66 L441.99 235.11 L444.68 234.73 L446.95 232.22 L449.84 232.80 L452.61 232.84 L455.64 234.57 L458.27 233.96 L460.76 232.39 L463.45 232.08 L465.81 229.19 L468.45 228.22 L471.05 226.83 L473.99 228.69 L476.81 229.68 L479.44 228.41 L482.27 230.00 L485.07 231.61 L487.64 229.06 L490.30 227.53 L493.04 227.94 L495.74 226.64 L498.45 222.72 L501.21 225.72 L503.93 227.41 L506.69 226.28 L509.39 227.22 L512.24 224.59 L514.94 225.77 L517.71 225.51 L520.66 222.88 L523.52 222.06 L526.11 224.27 L528.75 225.68 L531.69 224.23 L534.19 226.64 L536.82 227.71 L539.56 228.02 L542.34 228.02 L545.85 223.70 L548.17 226.64 L551.19 225.60 L554.13 225.10 L556.64 226.81 L559.37 227.36 L561.54 230.40 L564.83 228.55 L567.20 230.58 L569.64 232.22 L573.25 229.46 L576.02 229.98 L579.32 228.69 L581.86 230.06 L584.64 230.62 L587.06 232.30 L589.55 233.73 L592.28 234.44 L594.09 237.70 L597.45 236.67 L599.80 238.37 L603.37 236.94 L606.03 237.92 L607.82 240.96 L612.06 238.20 L613.78 241.34 L616.26 242.72 L619.94 241.49 L621.52 244.82 L625.65 242.80 L628.83 242.83 L631.86 243.23 L633.47 246.37 L636.20 247.35 L640.30 245.87 L641.86 249.00 L642.93 252.91 L644.93 255.14 L647.53 256.33 L650.27 257.32 L651.47 260.77 L654.86 260.73 L657.08 262.54 L658.50 265.53 L660.82 267.15 L663.97 267.60 L667.21 267.96 L669.06 270.27 L673.31 269.36 L675.62 271.09 L678.54 272.04 L679.67 275.27 L681.94 277.03 L686.05 276.60 L687.06 279.90 L689.55 281.44 L691.26 283.87 L692.53 286.77 L694.58 288.78 L696.36 291.08 L699.35 292.11 L698.63 296.96 L700.67 298.94 L704.49 299.17 L705.28 302.39 L709.89 301.95 L712.11 303.83 L714.05 305.97 L717.79 306.52 L719.53 308.86 L721.01 311.43 L722.49 313.97 L726.90 314.11 L729.49 315.79 L730.56 318.69 L733.30 320.29 L734.59 323.00 L739.86 322.76 L740.03 326.32 L740.18 329.84 L745.36 329.83 L745.77 333.17 L745.63 336.83 L744.59 341.02 L748.26 342.14 L746.33 346.80 L745.66 350.61 L752.36 349.97 L754.04 352.39 L757.79 353.64 L759.04 356.33 L762.08 358.06 L761.87 361.54 L759.59 366.05 L763.74 367.23 L762.84 370.96 L762.97 374.14 L764.13 376.82 L766.91 378.76 L767.88 381.54 L766.13 385.48 L770.97 386.59 L770.64 389.90 L771.30 392.78 L775.84 394.16 L777.66 396.64 L783.08 397.83 L785.57 400.15 L787.71 402.62 L787.90 405.75 L785.95 409.54 L785.92 412.69 L785.13 416.04 L784.82 419.22 L784.64 422.34 L786.73 424.84 L790.26 427.00 L789.66 430.23 L792.30 432.68 L794.45 435.28 L793.92 438.47 L792.06 441.90 L791.98 444.94 L796.11 447.23 L794.83 450.49 L798.37 452.96 L801.14 455.60 L803.62 458.34 L804.41 461.33 L802.63 464.62 L805.92 467.34 L803.73 470.64 L801.25 473.92 L801.80 476.91 L800.04 480.06 L797.67 483.20 L796.17 486.26 L799.19 489.11 L795.88 492.20 L794.61 495.18 L798.69 498.10 L797.57 501.08 L799.52 504.08 L801.06 507.12 L805.71 510.28 L808.30 513.46 L808.98 516.59 L812.09 519.88 L809.07 522.80 L808.99 525.90 L808.08 528.93 L805.54 531.78 L804.92 534.80 L802.91 537.64 L807.76 541.37 L804.48 544.03 L802.67 546.87 L807.17 550.72 L805.91 553.66 L805.22 556.69 L800.55 558.93 L802.42 562.45 L799.82 565.04 L794.48 566.97 L799.93 571.38 L799.36 574.41 L800.48 577.89 L799.02 580.71 L798.47 583.77 L798.21 586.92 L792.81 588.54 L792.45 591.63 L790.46 594.21 L789.36 597.06 L787.57 599.67 L787.54 602.89 L787.68 606.19 L783.84 608.02 L783.03 610.96 L782.18 613.90 L779.78 616.19 L780.23 619.68 L779.69 622.77 L782.02 627.17 L782.27 630.70 L782.16 634.09 L781.92 637.45 L779.90 639.94 L778.31 642.64 L775.52 644.71 L773.10 646.95 L772.23 650.01 L771.54 653.18 L773.95 658.17 L772.04 660.72 L772.25 664.54 L771.90 668.06 L766.95 668.72 L763.82 670.45 L761.27 672.53 L761.42 676.41 L758.58 678.29 L760.13 683.22 L761.09 687.83 L757.80 689.41 L756.47 692.40 L753.78 694.38 L752.81 697.68 L749.45 699.11 L746.10 700.49 L745.56 704.17 L741.91 705.26 L737.86 705.95 L734.67 707.33 L735.62 712.41 L730.93 712.41 L727.08 713.09 L728.61 718.87 L724.36 719.14 L722.77 721.98 L720.89 724.55 L720.16 728.33 L719.61 732.38 L717.99 735.33 L717.09 739.11 L712.56 738.88 L708.64 739.24 L705.79 740.80 L702.78 742.13 L699.93 743.65 L697.74 745.95 L699.12 752.81 L695.50 753.38 L691.89 753.91 L692.23 759.71 L688.95 760.70 L686.31 762.55 L681.89 761.83 L679.96 764.66 L676.86 765.76 L671.83 763.90 L672.46 770.74 L668.99 771.25 L667.37 774.74 L665.46 777.81 L663.00 780.01 L660.02 781.33 L655.90 780.58 L653.48 782.85 L649.85 782.87 L646.39 783.14 L643.94 785.36 L640.77 786.15 L638.73 789.29 L635.00 788.87 L632.74 791.61 L630.30 794.00 L626.71 793.80 L625.22 798.54 L622.52 800.49 L620.60 804.44 L618.45 807.99 L615.69 810.02 L612.68 811.43 L608.59 809.78 L604.97 809.33 L600.73 806.88 L597.62 807.74 L594.33 808.02 L591.20 808.81 L589.38 814.17 L585.73 813.21 L582.69 814.43 L580.21 817.88 L576.92 818.24 L573.48 817.87 L569.79 816.32 L567.43 820.82 L564.20 821.38 L560.87 821.43 L558.06 824.26 L555.31 827.80 L551.94 827.74 L548.42 826.67 L545.51 829.72 L542.13 829.49 L538.56 827.59 L535.58 830.69 L532.08 829.11 L528.50 826.17 L525.22 826.12 L522.19 829.82 L518.70 826.83 L515.37 825.61 L512.32 831.29 L508.92 828.21 L505.66 829.45 L502.36 829.54 L499.06 832.49 L495.65 838.67 L492.30 837.22 L488.78 841.51 L485.42 840.30 L482.10 838.47 L478.65 839.28 L475.48 836.07 L472.23 834.46 L469.04 832.59 L465.46 834.67 L462.19 833.64 L459.14 830.99 L455.03 836.56 L451.81 835.11 L448.56 833.98 L445.77 830.12 L442.45 829.63 L439.35 827.99 L437.08 822.23 L432.55 827.97 L429.47 826.37 L425.86 827.19 L421.93 829.20 L418.64 828.42 L415.08 828.69 L412.76 824.25 L409.01 825.20 L406.36 822.22 L403.79 819.09 L399.97 820.15 L397.07 818.21 L393.05 819.71 L390.50 816.76 L387.57 814.99 L383.43 816.56 L381.39 812.43 L377.02 814.43 L373.98 812.95 L370.37 812.83 L366.15 814.11 L362.91 812.99 L359.35 812.57 L356.81 809.89 L353.84 808.20 L351.15 805.93 L348.47 803.68 L345.50 802.02 L342.14 801.13 L336.53 804.39 L333.84 802.11 L330.41 801.17 L325.30 803.13 L323.19 799.82 L320.83 796.99 L319.89 791.91 L314.42 794.15 L311.64 792.05 L309.64 788.76 L304.20 790.64 L301.65 788.17 L299.55 785.08 L297.88 781.42 L295.28 779.11 L292.07 777.63 L291.48 772.68 L288.81 770.53 L286.12 768.40 L285.21 764.07 L283.56 760.74 L278.82 761.09 L276.74 758.26 L275.32 754.72 L270.09 755.44 L268.53 752.06 L265.77 750.01 L263.42 747.50 L259.96 746.15 L253.28 747.99 L251.73 744.60 L248.41 742.97 L245.16 741.23 L244.14 737.39 L242.59 734.08 L242.17 729.80 L240.62 726.56 L239.70 722.82 L235.83 721.59 L231.71 720.52 L229.88 717.53 L224.04 717.72 L221.75 715.04 L220.55 711.54 L219.97 707.61 L218.78 704.16 L216.11 701.80 L218.47 695.91 L212.76 695.65 L210.40 693.05 L208.18 690.34 L205.15 688.15 L203.08 685.31 L199.75 683.24 L201.59 678.05 L198.89 675.60 L198.09 672.05 L198.64 667.76 L196.29 665.12 L195.17 661.80 L191.40 659.86 L192.12 655.61 L191.16 652.23 L186.42 650.69 L187.33 646.42 L182.32 644.91 L179.48 642.35 L176.39 639.87 L170.88 638.36 L169.35 635.13 L167.62 631.97 L168.45 627.82 L169.01 623.82 L170.42 619.55 L169.70 616.08 L169.35 612.50 L169.32 608.84 L164.65 606.67 L165.15 602.83 L165.19 599.17 L161.15 596.69 L160.16 593.31 L160.55 589.56 L162.50 585.45 L159.59 582.57 L158.17 579.30 L156.86 576.00 L152.81 573.26 L150.68 570.07 L145.93 567.35 L146.25 563.63 L146.72 559.90 L143.10 556.85 L144.29 553.02 L145.18 549.27 L144.45 545.75 L145.16 542.05 L147.29 538.23 L146.39 534.75 L146.16 531.21 L148.36 527.47 L144.87 524.17 L145.74 520.56 L145.41 517.02 L144.28 513.51 L144.19 509.95 L139.52 506.48 L140.74 502.86 L140.52 499.27 L139.97 495.67 L141.80 492.11 L142.06 488.53 L142.87 484.98 L143.54 481.43 L144.48 477.92 L142.53 474.20 L140.81 470.47 L141.84 466.94 L139.54 463.09 L139.40 459.43 L139.70 455.81 L143.11 452.60 L146.87 449.50 L146.07 445.77 L149.89 442.77 L149.94 439.18 L148.92 435.38 L148.11 431.58 L147.84 427.87 L148.96 424.43 L147.59 420.44 L152.29 417.84 L152.02 414.09 L152.00 410.39 L155.16 407.51 L154.85 403.72 L155.32 400.12 L154.08 396.01 L156.70 393.04 L158.14 389.72 L155.63 385.10 L159.05 382.44 L158.16 378.30 L158.03 374.38 L158.38 370.62 L154.75 365.28 L156.72 362.08 L156.66 358.05 L160.29 355.56 L164.19 353.23 L167.98 350.91 L170.18 347.92 L172.59 345.05 L174.83 342.11 L173.06 337.19 L174.09 333.61 L175.06 329.99 L173.65 325.08 L176.32 322.32 L178.82 319.48 L183.10 317.70 L185.02 314.59 L185.95 310.88 L186.97 307.20 L185.14 301.70 L186.14 297.92 L185.71 293.17 L187.66 289.95 L191.87 288.27 L193.46 284.82 L197.12 282.84 L200.78 280.90 L203.26 278.12 L206.86 276.21 L210.11 274.07 L213.45 272.02 L214.32 268.02 L217.91 266.21 L219.19 262.50 L221.09 259.28 L223.87 256.82 L225.03 252.91 L227.22 249.91 L227.21 244.83 L229.99 242.32 L232.13 239.19 L234.77 236.55 L238.70 235.21 L241.23 232.47 L244.80 230.83 L248.02 228.84 L250.57 226.15 L252.10 222.29 L252.74 217.37 L256.36 215.83 L258.76 212.87 L260.65 209.27 L265.33 209.06 L269.75 208.64 L274.31 208.46 L276.82 205.66 L280.70 204.69 L283.35 202.08 L285.38 198.58 L287.42 195.04 L289.37 191.31 L292.07 188.62 L294.55 185.56 L298.19 184.28 L300.75 181.32 L303.43 178.49 L307.67 178.24 L310.37 175.43 L314.22 174.60 L315.76 169.66 L320.14 169.79 L324.18 169.38 L325.02 162.87 L330.06 164.42 L333.39 162.66 L335.77 158.95 L338.71 156.30 L340.30 150.63 L343.97 149.45 L347.07 146.94 L351.30 147.08 L355.41 147.00 L359.82 147.77 L364.17 148.50 L367.85 147.59 L371.68 147.10 L374.44 143.64 L377.69 141.48 L381.51 140.97 L384.31 137.28 L387.93 136.12 L391.43 134.51 L396.11 137.01 L399.29 134.33 L402.19 130.50 L406.32 131.21 L409.30 127.37 L412.64 124.78 L415.98 122.08 L419.98 122.28 L423.94 122.39 L427.43 120.10 L431.71 122.04 L435.60 122.00 L439.42 121.61 L443.50 122.97 L447.41 123.45 L451.13 122.53 L454.82 121.37 L458.80 122.69 L462.43 120.84 L466.10 119.05 L470.00 119.88 L473.62 116.97 L477.38 115.47 L481.02 111.14 L484.90 110.50 L488.76 109.42 L492.65 108.06 L496.58 110.01 L500.48 109.65 L504.37 111.13 L508.22 112.91 L512.06 114.03 L515.88 115.19 L519.85 112.92 L523.55 115.96 L527.39 116.14 L531.41 114.26 L535.23 115.00 L538.95 116.60 L542.48 119.66 L546.32 119.84 L550.05 120.80 L553.76 121.87 L557.84 120.46 L561.87 119.64 L566.40 116.03 L570.19 117.00 L574.22 116.63 L578.16 116.85 L581.93 117.95 L586.07 117.32 L589.39 120.35 L593.66 119.33 L596.90 122.46 L601.03 122.09 L604.79 123.17 L607.79 126.90 L612.62 124.30 L615.57 128.02 L619.10 129.76 L623.50 128.87 L627.15 130.27 L632.45 127.03 L636.41 127.73 L640.39 128.43 L643.91 130.33 L647.05 133.14 L649.93 136.54 L652.61 140.30 L656.49 141.16 L659.70 143.56 L664.36 142.79 L669.44 141.24 L673.61 141.74 L678.03 141.79 L681.79 143.22 L685.50 144.77 L686.96 150.52 L690.02 153.19 L694.15 153.92 L696.48 157.82 L701.78 156.59 L705.15 158.72 L708.76 160.46 L712.23 162.42 L715.01 165.46 L718.74 167.04 L720.74 171.21 L723.22 174.59 L727.33 175.60 L729.15 179.86 L731.51 183.30 L735.50 184.51 L739.78 185.39 L742.30 188.60 L745.54 190.87 L750.98 190.42 L753.38 193.77 L757.52 195.03 L761.12 196.96 L766.19 197.26 L769.43 199.68 L772.03 202.82 L775.38 205.14 L776.25 210.07 L778.45 213.55 L779.52 218.14 L781.50 221.77 L784.53 224.34 L787.88 226.62 L795.15 225.28 L797.67 228.44 L802.08 229.91 L808.59 229.58 L812.28 231.83 L813.80 235.93 L815.12 240.16 L817.05 243.85 L822.39 244.82 L825.87 247.32 L828.74 250.32 L834.45 251.22 L840.20 252.18 L843.65 254.89 L845.80 258.54 L848.07 262.10 L850.51 265.54 L852.80 269.08 L854.78 272.82 L857.00 276.40 L859.42 279.85 L861.48 283.54 L863.30 287.35 L865.68 290.84 L868.09 294.32 L870.10 298.03 L871.98 301.80 L874.12 305.44 L876.48 308.97 L878.30 312.78 L880.23 316.53 L882.19 320.28 L884.41 323.91 L886.30 327.70 L887.65 331.72 L889.04 335.72 L890.84 339.55 L892.76 343.33 L893.87 347.43 L895.52 351.33 L897.62 355.06 L899.37 358.93 L900.66 362.96 L901.92 367.01 L903.39 370.98 L904.79 374.98 L906.07 379.02 L907.27 383.08 L907.56 387.40 L909.10 391.37 L910.37 395.41 L910.89 399.64 L913.34 403.41 L914.79 407.44 L916.14 411.50 L916.48 415.77 L916.64 420.06 L917.97 424.13 L918.24 428.40 L918.37 432.67 L919.77 436.75 L921.48 440.80 L921.49 445.09 L921.83 449.33 L924.26 453.33 L924.52 457.60 L925.39 461.80 L927.04 465.95 L928.03 470.18 L927.62 474.50 L928.14 478.77 L930.20 482.97 L928.95 487.32 L928.73 491.61 L930.25 495.89 L951.65 500.00 L953.97 495.46 L954.23 490.91 L953.78 486.38 L954.79 481.80 L953.97 477.28 L953.33 472.77 L952.30 468.29 L952.04 463.76 L951.47 459.26 L950.26 454.82 L950.33 450.26 L949.50 445.80 L949.26 441.27 L949.65 436.63 L948.30 432.25 L947.08 427.85 L946.10 423.42 L944.93 419.04 L943.75 414.66 L942.22 410.36 L941.58 405.88 L941.18 401.34 L940.28 396.91 L939.55 392.44 L938.08 388.14 L936.88 383.78 L935.38 379.50 L933.85 375.24 L932.24 371.01 L930.86 366.72 L929.87 362.30 L928.12 358.13 L926.33 353.97 L925.05 349.64 L923.52 345.40 L921.62 341.30 L919.66 337.23 L918.22 332.96 L916.28 328.89 L914.26 324.86 L912.40 320.76 L910.40 316.73 L908.76 312.53 L906.62 308.57 L904.30 304.70 L902.43 300.62 L900.54 296.54 L897.99 292.80 L895.81 288.88 L893.97 284.78 L891.47 281.03 L888.65 277.48 L886.50 273.55 L884.08 269.77 L881.31 266.22 L878.29 262.83 L875.79 259.13 L873.12 255.54 L869.84 252.37 L866.86 249.02 L864.14 245.50 L860.90 242.35 L858.83 238.37 L859.41 232.41 L858.93 227.14 L856.61 223.23 L856.10 217.88 L855.04 212.89 L850.69 210.56 L846.07 208.51 L841.95 206.09 L839.12 202.57 L838.36 197.19 L836.43 192.81 L833.54 189.27 L834.23 182.33 L830.54 179.49 L826.99 176.52 L823.43 173.58 L819.44 171.09 L815.34 168.75 L811.13 166.56 L808.52 162.65 L804.46 160.33 L801.08 157.28 L798.17 153.66 L794.21 151.26 L791.10 147.86 L786.16 146.71 L784.49 141.50 L779.75 140.14 L774.06 140.08 L772.02 135.26 L766.77 134.73 L761.30 134.61 L756.66 133.40 L752.90 130.96 L747.99 130.26 L743.50 128.99 L740.26 125.81 L735.79 124.57 L732.88 120.84 L729.94 117.09 L726.62 113.92 L724.94 107.85 L720.69 106.20 L716.91 103.70 L712.79 101.82 L707.21 102.77 L702.94 101.27 L699.22 98.70 L695.73 95.63 L692.11 92.78 L688.92 88.93 L684.82 87.03 L679.89 87.02 L674.94 87.15 L669.46 88.67 L663.87 90.66 L658.49 92.34 L654.21 91.30 L650.36 89.12 L646.54 86.80 L644.43 79.43 L640.36 77.56 L636.96 73.60 L632.62 72.47 L627.69 73.34 L624.32 68.97 L619.60 69.21 L615.13 68.60 L611.29 65.61 L606.96 64.44 L602.57 63.52 L597.59 65.24 L593.59 62.61 L588.88 63.34 L584.20 64.08 L579.65 64.27 L575.11 64.50 L571.34 60.13 L567.10 58.42 L563.06 55.11 L558.61 54.49 L554.01 55.09 L549.56 54.54 L544.76 57.39 L540.11 59.50 L535.67 59.50 L531.42 56.99 L527.00 56.48 L522.49 57.63 L518.21 53.77 L513.72 54.64 L509.23 56.33 L504.78 57.01 L500.35 57.39 L495.94 59.35 L491.57 61.14 L487.15 60.11 L482.78 61.11 L478.46 62.49 L473.93 60.21 L469.58 61.07 L465.14 60.78 L461.01 64.02 L456.52 63.18 L452.06 62.72 L448.14 67.01 L443.49 65.07 L439.19 66.00 L435.33 69.80 L431.21 71.54 L426.72 71.07 L422.84 74.04 L418.81 76.04 L414.02 74.11 L410.12 76.67 L406.00 78.06 L401.31 76.99 L396.96 77.49 L391.89 75.21 L388.03 77.76 L383.27 76.93 L378.91 77.62 L375.71 82.28 L371.53 83.51 L367.32 84.66 L362.81 84.91 L359.01 87.32 L354.82 88.55 L350.02 88.12 L346.93 92.34 L343.79 96.30 L340.53 99.81 L337.62 104.08 L334.70 108.16 L331.28 110.96 L326.61 110.89 L322.48 112.10 L316.54 109.51 L312.13 110.29 L307.48 110.64 L303.53 112.46 L301.51 118.00 L295.90 116.62 L292.93 120.24 L290.21 124.25 L285.56 124.77 L282.67 128.40 L278.47 129.76 L276.96 135.56 L272.93 137.17 L269.49 139.73 L268.48 146.01 L264.46 147.60 L260.87 149.87 L255.82 150.04 L250.73 150.25 L245.22 149.98 L241.00 151.55 L237.98 154.76 L233.67 156.27 L232.34 161.60 L230.44 166.11 L226.90 168.57 L221.62 168.96 L219.32 172.92 L216.54 176.29 L211.86 177.51 L209.71 181.57 L208.02 186.08 L205.03 189.16 L203.05 193.27 L201.20 197.48 L198.88 201.16 L196.37 204.64 L194.31 208.53 L192.20 212.34 L187.00 213.28 L184.74 216.96 L180.96 219.28 L179.36 223.51 L175.55 225.84 L171.79 228.24 L171.70 233.65 L167.15 235.43 L164.32 238.62 L163.84 243.60 L163.35 248.52 L159.90 251.20 L159.31 255.96 L158.98 260.85 L155.58 263.56 L154.26 267.71 L151.92 271.15 L148.26 273.75 L145.44 276.92 L139.69 278.30 L137.94 282.19 L135.95 285.92 L132.76 288.95 L135.07 295.11 L133.51 299.03 L130.09 301.94 L126.57 304.83 L124.74 308.63 L120.82 311.38 L116.79 314.13 L117.25 319.06 L117.39 323.79 L117.01 328.24 L117.73 333.13 L118.09 337.81 L117.21 341.94 L114.80 345.44 L113.31 349.31 L106.55 351.19 L105.42 355.25 L103.57 359.06 L101.01 362.63 L102.89 367.70 L98.86 370.80 L99.71 375.48 L100.58 380.11 L97.44 383.55 L98.89 388.30 L95.73 391.77 L97.73 396.60 L99.11 401.22 L97.53 405.09 L99.77 409.83 L98.00 413.65 L97.62 417.77 L92.68 420.99 L89.48 424.62 L86.20 428.29 L83.99 432.18 L86.23 436.79 L84.26 440.74 L85.21 445.10 L88.12 449.67 L87.07 453.73 L84.32 457.62 L84.03 461.79 L84.48 466.02 L82.78 470.08 L84.17 474.36 L85.50 478.60 L87.16 482.82 L89.48 487.03 L91.69 491.18 L94.14 495.29 L94.02 499.35 L94.01 503.41 L95.65 507.44 L90.53 511.64 L90.16 515.75 L89.55 519.88 L89.66 523.99 L90.03 528.09 L87.67 532.40 L90.02 536.34 L90.75 540.40 L90.25 544.59 L92.76 548.45 L96.60 552.09 L98.21 555.97 L99.59 559.86 L102.20 563.55 L102.85 567.52 L104.76 571.27 L105.69 575.18 L104.19 579.58 L103.22 583.91 L100.24 588.73 L101.57 592.62 L101.15 596.93 L99.90 601.48 L105.16 604.36 L107.49 607.96 L107.37 612.23 L106.89 616.63 L108.97 620.28 L110.79 623.99 L109.19 628.82 L112.55 632.02 L116.01 635.14 L118.07 638.73 L122.56 641.38 L126.42 644.22 L128.96 647.51 L129.84 651.47 L131.76 655.00 L128.67 660.69 L129.70 664.66 L132.12 668.01 L131.60 672.72 L137.15 674.56 L135.74 679.75 L140.15 682.07 L145.56 683.81 L143.34 689.51 L147.20 692.01 L148.23 696.03 L151.90 698.57 L155.20 701.29 L156.25 705.31 L161.75 706.64 L162.10 711.10 L164.83 714.08 L165.28 718.54 L166.16 722.75 L168.72 725.87 L167.85 731.36 L174.40 731.67 L176.20 735.30 L180.45 737.13 L185.25 738.48 L189.14 740.47 L191.64 743.50 L191.29 748.83 L195.25 750.71 L196.92 754.45 L198.59 758.24 L202.41 760.17 L208.08 760.41 L212.85 761.36 L214.62 765.01 L217.48 767.67 L220.04 770.60 L220.81 775.31 L223.92 777.75 L223.17 784.12 L225.82 787.10 L229.38 789.10 L232.21 791.88 L236.24 793.31 L236.71 798.75 L240.58 800.37 L244.05 802.41 L246.41 805.77 L249.85 807.83 L254.83 807.95 L259.15 808.81 L262.78 810.50 L267.49 810.74 L270.89 812.66 L274.96 813.63 L278.50 815.31 L282.44 816.38 L286.91 816.61 L286.92 823.55 L291.45 823.67 L295.90 823.82 L296.65 829.91 L301.66 829.10 L306.10 829.14 L310.45 829.22 L311.39 835.30 L314.46 837.71 L318.55 838.24 L319.13 845.40 L322.48 847.42 L326.70 847.70 L330.80 848.15 L334.57 849.23 L338.93 849.00 L343.32 848.61 L345.94 852.16 L349.23 854.24 L351.67 858.42 L354.85 860.90 L358.55 862.11 L361.06 866.46 L365.90 864.67 L368.93 867.73 L372.76 868.59 L377.61 866.38 L380.57 869.81 L384.24 871.08 L387.92 872.34 L392.58 870.22 L396.56 870.30 L400.06 872.09 L405.32 867.13 L408.55 869.85 L412.37 870.28 L415.62 873.15 L419.15 874.93 L423.11 874.69 L425.61 881.90 L430.69 875.80 L434.56 875.82 L438.31 876.57 L442.60 873.78 L446.51 873.09 L450.35 872.84 L453.30 879.62 L457.38 877.58 L461.23 877.29 L464.82 879.73 L468.74 878.54 L472.82 874.82 L476.80 871.36 L480.51 871.78 L484.34 869.15 L488.07 868.33 L491.63 873.82 L495.38 872.66 L499.09 878.98 L502.91 881.96 L506.72 881.62 L510.54 881.48 L514.21 877.61 L518.25 883.05 L521.94 880.49 L525.63 878.47 L529.59 880.47 L533.18 877.75 L536.78 875.58 L540.31 873.10 L544.03 872.61 L547.57 870.72 L551.32 870.61 L554.90 869.25 L558.18 866.07 L561.99 866.39 L565.90 867.12 L569.85 867.96 L573.63 867.75 L577.27 866.81 L581.79 869.92 L584.88 866.47 L588.19 864.12 L591.89 863.51 L596.32 865.59 L599.66 863.48 L602.85 860.92 L607.35 862.89 L610.68 860.84 L613.63 857.66 L616.53 854.46 L619.13 850.52 L621.90 847.25 L624.22 842.85 L628.27 843.27 L632.32 843.58 L636.77 844.80 L641.71 847.11 L645.44 846.30 L649.82 846.98 L652.26 843.16 L656.08 842.48 L659.37 840.64 L661.46 836.29 L665.37 835.78 L668.13 832.96 L671.92 832.15 L673.72 827.58 L676.08 824.15 L680.06 823.72 L681.01 817.89 L683.74 815.32 L687.39 814.32 L691.56 814.13 L695.43 813.38 L697.88 810.36 L705.22 814.87 L704.77 807.41 L707.05 804.20 L710.86 803.23 L711.07 797.15 L714.30 795.40 L716.71 792.52 L722.23 793.78 L725.08 791.44 L727.16 788.14 L732.96 789.50 L735.84 787.14 L737.45 783.28 L739.04 779.45 L741.17 776.30 L742.05 771.77 L742.84 767.24 L746.59 765.97 L749.89 764.17 L754.26 763.47 L757.97 762.02 L760.19 759.04 L763.43 757.08 L763.87 752.40 L769.90 753.04 L770.22 748.32 L770.17 743.34 L775.83 743.48 L776.14 738.88 L775.75 733.76 L777.61 730.61 L779.92 727.84 L779.52 722.90 L782.01 720.31 L784.43 717.66 L784.67 713.36 L787.72 711.19 L788.69 707.49 L792.89 706.10 L797.24 704.75 L798.17 701.02 L801.78 699.09 L802.64 695.35 L802.55 691.03 L801.30 686.05 L805.03 684.17 L808.17 681.88 L809.23 678.37 L816.26 678.23 L820.53 676.44 L821.52 672.81 L821.73 668.80 L823.66 665.71 L822.17 660.90 L822.00 656.81 L824.10 653.84 L826.25 650.89 L829.39 648.36 L833.98 646.43 L835.26 643.00 L838.19 640.28 L837.12 635.90 L838.75 632.63 L839.81 629.14 L838.57 624.81 L840.42 621.64 L840.93 617.99 L842.70 614.78 L842.19 610.82 L840.49 606.52 L843.10 603.58 L841.81 599.47 L841.75 595.75 L841.99 592.14 L844.25 589.07 L845.74 585.78 L844.24 581.76 L852.08 579.91 L848.82 575.51 L846.12 571.31 L851.04 568.67 L848.64 564.59 L847.56 560.80 L847.68 557.24 L853.04 554.51 L850.65 550.55 L847.36 546.54 L851.41 543.51 L849.28 539.70 L847.69 536.00 L844.15 532.16 L843.88 528.67 L842.26 525.09 L839.90 521.51 L844.20 518.32 L845.61 514.93 L849.28 511.60 L855.04 508.23 L854.86 504.68 L856.67 501.14 L854.97 497.58 L858.69 493.97 L856.25 490.44 L851.68 487.05 L855.91 483.33 L854.19 479.86 L849.29 476.63 L847.05 473.29 L847.77 469.73 L842.23 466.76 L838.36 463.72 L841.33 459.95 L838.28 456.87 L836.51 453.67 L839.25 449.83 L842.66 445.82 L843.68 442.13 L842.03 438.89 L845.41 434.71 L843.50 431.51 L839.43 428.78 L837.38 425.68 L837.40 422.13 L838.15 418.39 L835.82 415.39 L837.27 411.43 L837.14 407.85 L835.02 404.82 L831.65 402.18 L828.12 399.65 L825.57 396.85 L821.18 394.70 L819.15 391.82 L819.29 388.20 L820.36 384.22 L823.66 379.35 L822.65 376.04 L824.07 371.76 L822.02 368.83 L819.48 366.12 L820.16 362.06 L815.66 360.24 L815.53 356.51 L813.72 353.52 L811.40 350.80 L809.95 347.66 L805.42 346.08 L804.46 342.72 L802.05 340.12 L799.57 337.58 L797.32 334.93 L796.53 331.47 L797.27 327.09 L793.45 325.36 L796.53 319.49 L791.89 318.29 L785.60 318.22 L784.86 314.67 L779.59 314.08 L775.82 312.59 L771.61 311.45 L772.89 306.49 L769.61 304.73 L764.53 304.35 L766.04 299.09 L762.80 297.38 L760.82 294.71 L757.56 293.08 L757.03 289.24 L757.50 284.51 L755.00 282.23 L752.40 280.05 L749.91 277.78 L749.97 273.21 L747.36 271.03 L745.02 268.60 L744.64 264.29 L741.21 262.90 L741.10 258.22 L736.92 257.61 L731.85 258.00 L730.58 254.46 L726.44 253.99 L723.48 252.27 L719.29 251.97 L716.84 249.74 L714.05 247.91 L710.01 247.60 L709.94 242.49 L707.55 240.16 L703.47 239.97 L701.49 237.13 L699.15 234.73 L698.55 229.95 L695.09 229.02 L692.78 226.49 L691.42 222.57 L688.53 220.83 L683.97 221.62 L680.99 220.10 L678.73 217.43 L673.95 218.81 L671.28 216.82 L667.84 216.14 L664.11 216.00 L660.09 216.45 L656.08 216.98 L654.62 212.88 L652.00 210.86 L648.32 210.88 L645.71 208.82 L643.42 206.10 L641.78 201.92 L637.65 202.98 L635.75 199.24 L632.66 198.06 L628.66 199.04 L626.81 194.97 L622.96 195.66 L620.00 194.24 L617.47 191.64 L613.95 191.65 L611.33 189.21 L607.03 191.54 L604.02 190.23 L600.58 190.26 L597.13 190.36 L594.03 189.41 L590.69 189.29 L588.18 186.23 L585.02 185.43 L582.72 181.34 L579.17 181.99 L575.50 183.24 L572.83 180.31 L569.09 182.06 L565.81 181.84 L562.43 182.24 L559.61 179.68 L556.69 177.46 L553.15 178.76 L550.54 174.37 L547.12 175.02 L543.97 173.77 L540.46 175.32 L536.73 179.11 L533.72 176.83 L530.35 177.99 L527.00 179.30 L523.91 177.38 L520.84 174.77 L517.65 173.36 L514.31 174.94 L511.11 173.22 L507.81 174.19 L504.54 174.96 L501.29 176.68 L498.08 180.69 L494.83 177.20 L491.54 174.87 L488.31 175.63 L485.04 175.05 L481.67 173.09 L478.49 174.72 L475.48 178.08 L472.30 178.71 L469.27 180.98 L466.23 182.66 L462.93 181.92 L459.68 181.75 L456.08 179.11 L452.91 179.83 L449.63 179.79 L446.58 181.18 L443.94 184.83 L441.19 187.49 L438.49 190.24 L434.78 187.90 L431.77 189.09 L427.95 186.65 L424.39 185.63 L421.50 187.39 L418.67 189.30 L416.07 191.96 L413.27 193.81 L410.48 195.59 L407.83 197.79 L404.27 196.99 L401.26 198.01 L397.27 196.14 L394.47 197.84 L391.43 198.85 L389.05 201.63 L387.54 206.58 L385.20 209.22 L382.28 210.34 L378.30 208.93 L375.58 210.58 L372.88 212.28 L368.49 210.22 L366.05 212.51 L363.89 215.34 L361.25 217.13 L357.16 216.01 L354.39 217.57 L352.64 221.07 L349.26 221.44 L346.88 223.68 L343.91 224.84 L341.98 227.83 L339.87 230.44 L336.94 231.65 L335.35 235.04 L333.86 238.51 L332.91 242.73 L329.43 243.04 L327.29 245.38 L327.02 250.40 L323.49 250.66 L321.91 253.69 L320.72 257.19 L319.60 260.73 L317.78 263.28 L315.21 264.84 L313.74 267.79 L309.49 267.30 L305.42 267.11 L302.55 268.42 L298.67 268.59 L295.46 269.60 L292.12 270.51 L290.41 273.22 L291.21 278.57 L287.50 279.10 L283.46 279.36 L280.47 280.74 L277.28 281.96 L272.66 281.85 L269.81 283.49 L268.92 286.97 L267.56 289.97 L266.84 293.52 L266.35 297.22 L266.35 301.29 L264.61 303.83 L262.46 306.03 L263.27 310.60 L258.14 310.43 L255.96 312.63 L254.14 315.11 L252.04 317.38 L252.20 321.30 L247.02 321.39 L247.63 325.57 L246.17 328.28 L242.91 329.80 L243.93 334.14 L245.03 338.44 L242.92 340.69 L242.16 343.76 L243.02 347.78 L240.67 349.87 L240.49 353.21 L240.63 356.69 L237.47 358.36 L234.69 360.26 L229.10 360.76 L227.71 363.47 L226.40 366.22 L223.16 368.05 L225.63 372.58 L226.51 376.30 L223.86 378.41 L219.43 379.79 L218.46 382.70 L216.99 385.39 L212.24 386.81 L213.39 390.55 L215.12 394.46 L216.24 398.10 L218.29 402.00 L221.17 406.12 L223.33 409.92 L220.92 412.21 L220.04 415.00 L213.83 416.23 L210.83 418.48 L210.33 421.46 L206.02 423.44 L209.04 427.32 L205.98 429.67 L206.56 432.91 L208.89 436.50 L205.33 438.80 L206.63 442.12 L204.13 444.70 L206.79 448.22 L209.05 451.62 L206.64 454.23 L210.65 457.81 L209.37 460.59 L210.17 463.65 L206.25 466.14 L201.72 468.63 L200.59 471.54 L194.03 474.00 L196.52 477.26 L196.96 480.34 L197.55 483.42 L202.12 486.65 L203.12 489.67 L203.70 492.66 L200.23 495.57 L200.72 498.57 L200.50 501.56 L198.66 504.59 L200.52 507.56 L203.19 510.46 L204.17 513.39 L206.38 516.23 L209.30 518.99 L209.97 521.86 L209.62 524.81 L212.33 527.48 L208.39 530.80 L208.05 533.79 L208.94 536.64 L208.38 539.68 L212.71 542.02 L207.25 545.81 L209.77 548.39 L213.23 550.77 L210.60 554.22 L212.72 556.81 L217.49 558.80 L220.17 561.17 L219.22 564.33 L222.91 566.41 L224.72 568.89 L224.53 571.87 L227.55 574.00 L226.92 577.12 L224.43 580.80 L221.79 584.61 L222.37 587.47 L222.45 590.51 L220.68 594.18 L224.13 596.11 L227.66 597.94 L227.41 601.12 L226.17 604.71 L227.40 607.37 L229.97 609.49 L228.14 613.41 L230.36 615.66 L234.91 616.86 L237.08 619.06 L242.04 619.94 L246.00 621.20 L249.82 622.47 L250.46 625.26 L251.21 628.02 L249.59 632.03 L247.97 636.12 L249.62 638.49 L248.26 642.54 L252.05 643.69 L252.53 646.74 L254.16 649.11 L258.20 649.99 L257.30 653.93 L260.38 655.36 L261.18 658.25 L263.97 659.83 L267.32 660.97 L268.57 663.56 L272.71 664.06 L274.63 666.13 L277.04 667.82 L276.79 671.53 L277.24 674.75 L280.86 675.48 L276.28 682.86 L282.60 681.34 L286.33 681.89 L288.67 683.57 L294.44 682.20 L297.22 683.39 L301.13 683.50 L297.42 690.71 L299.97 692.12 L303.16 692.88 L301.54 698.39 L304.57 699.31 L308.60 699.15 L312.89 698.62 L315.55 699.76 L318.96 700.04 L321.55 701.19 L321.08 705.83 L322.84 707.96 L321.89 713.37 L322.09 717.51 L324.88 718.53 L326.42 721.10 L329.67 721.49 L329.76 726.01 L332.53 727.02 L336.16 726.81 L337.16 730.25 L340.27 730.71 L344.36 729.67 L348.42 728.57 L350.77 729.99 L354.40 729.39 L358.08 728.60 L360.84 729.25 L363.89 729.36 L365.93 731.17 L369.06 731.06 L369.89 735.03 L371.03 738.57 L374.61 737.60 L375.90 740.96 L379.37 740.09 L382.98 738.85 L386.05 738.59 L387.69 741.32 L388.71 745.53 L391.32 746.28 L392.10 751.30 L393.86 754.18 L396.75 754.37 L400.06 753.46 L402.83 753.84 L406.09 752.88 L409.86 750.37 L412.07 752.11 L414.52 753.21 L416.66 755.28 L417.99 759.98 L420.83 760.01 L422.41 764.27 L425.73 762.65 L428.53 762.74 L430.78 764.90 L434.22 762.44 L436.50 764.55 L439.10 765.38 L441.84 765.59 L444.59 765.74 L447.61 764.47 L450.09 765.84 L453.25 763.52 L455.92 763.80 L458.73 763.15 L461.32 763.83 L463.57 767.07 L466.60 764.58 L468.42 772.00 L471.62 767.79 L474.66 764.34 L477.19 765.91 L480.16 762.03 L482.82 761.60 L485.52 760.34 L487.87 766.00 L490.57 765.10 L493.32 761.19 L495.85 766.45 L498.53 763.48 L501.16 761.42 L503.72 757.73 L506.26 756.17 L508.79 755.17 L511.35 755.42 L514.02 757.36 L516.65 758.11 L519.64 763.42 L522.49 765.77 L525.03 764.24 L527.94 766.57 L530.40 764.48 L533.42 767.17 L535.99 766.14 L538.23 762.86 L541.29 765.24 L543.58 762.67 L545.80 759.89 L547.96 757.11 L550.33 755.59 L552.44 752.93 L554.48 750.18 L557.15 750.34 L559.18 747.78 L561.56 746.83 L564.27 747.14 L567.37 748.82 L570.51 750.45 L572.70 748.68 L576.33 751.71 L578.68 750.41 L580.24 746.73 L582.07 744.02 L584.66 743.64 L587.72 744.52 L589.73 742.47 L592.94 743.65 L596.19 744.79 L598.08 742.45 L599.56 739.20 L600.71 735.28 L601.99 731.84 L602.83 727.54 L604.80 725.87 L607.77 726.32 L610.87 726.94 L615.31 730.17 L617.76 729.31 L621.67 731.21 L623.09 728.33 L624.19 724.96 L628.13 726.71 L628.82 722.69 L630.60 720.65 L633.50 720.49 L635.48 718.79 L636.81 716.08 L637.55 712.52 L640.60 712.54 L640.84 708.34 L641.43 704.78 L644.20 704.38 L646.29 703.00 L650.42 704.40 L652.07 702.37 L658.08 706.05 L657.96 701.68 L656.54 695.81 L659.67 695.67 L658.26 690.04 L658.61 686.63 L659.39 683.79 L664.40 685.77 L666.22 684.10 L666.14 680.34 L672.32 683.34 L673.31 680.73 L673.84 677.70 L672.34 672.68 L671.74 668.67 L673.65 667.17 L673.52 663.73 L676.93 663.63 L680.17 663.31 L684.93 664.30 L689.30 664.82 L691.00 662.97 L693.28 661.60 L693.16 658.24 L698.37 659.23 L698.03 655.72 L696.54 651.39 L701.65 652.15 L700.81 648.38 L699.61 644.43 L699.55 641.37 L701.15 639.51 L699.85 635.66 L699.56 632.57 L701.60 631.04 L700.17 627.28 L700.73 624.83 L702.79 623.32 L703.56 621.02 L710.03 622.04 L708.84 618.57 L711.36 617.22 L711.44 614.52 L709.82 610.94 L707.60 607.12 L707.34 604.38 L714.50 605.30 L714.83 602.81 L717.99 601.66 L721.90 600.80 L722.34 598.32 L718.86 594.18 L716.26 590.51 L718.25 588.79 L715.10 585.01 L716.12 582.92 L721.26 582.37 L722.77 580.40 L731.04 580.78 L732.38 578.65 L734.56 576.79 L734.93 574.32 L732.08 570.87 L736.38 569.61 L735.07 566.67 L735.28 564.20 L737.76 562.33 L738.63 560.01 L739.80 557.76 L736.12 554.38 L738.16 552.35 L737.48 549.72 L734.22 546.59 L733.39 544.01 L733.57 541.63 L737.18 539.83 L736.45 537.28 L742.72 535.78 L743.05 533.35 L738.53 530.30 L741.73 528.26 L739.05 525.52 L735.46 522.76 L733.47 520.22 L736.96 518.13 L736.84 515.74 L733.37 513.17 L737.67 511.03 L735.82 508.58 L734.38 506.18 L729.70 503.76 L725.32 501.44 L725.52 499.18 L721.98 496.97 L724.58 494.69 L726.73 492.37 L728.88 490.01 L735.92 487.34 L736.23 484.95 L737.44 482.49 L735.55 480.26 L737.56 477.69 L737.30 475.32 L732.66 473.45 L735.94 470.68 L734.20 468.52 L729.67 466.78 L727.26 464.81 L728.21 462.32 L723.62 460.78 L719.61 459.21 L722.80 456.31 L719.40 454.70 L715.56 453.24 L718.79 450.24 L717.91 448.14 L723.19 444.52 L721.32 442.63 L722.64 439.91 L724.40 437.02 L719.98 435.88 L719.09 433.75 L716.76 432.09 L719.97 428.66 L717.60 427.01 L715.91 425.17 L717.02 422.34 L714.65 420.76 L709.92 420.11 L705.39 419.48 L703.79 417.74 L700.44 416.75 L698.37 415.28 L702.51 411.11 L703.45 408.26 L709.84 402.84 L710.52 399.96 L711.05 397.10 L709.52 395.25 L704.48 395.20 L707.35 391.09 L703.70 390.40 L701.11 389.18 L702.53 385.74 L700.23 384.39 L700.26 381.69 L696.69 381.13 L695.70 379.04 L694.62 377.00 L690.36 377.01 L688.34 375.62 L686.01 374.48 L687.72 370.57 L684.71 369.90 L685.24 366.74 L684.35 364.56 L676.88 367.30 L676.92 364.49 L672.48 365.13 L668.01 365.90 L664.87 365.68 L667.71 360.55 L667.03 358.27 L662.49 359.30 L664.06 355.05 L662.22 353.76 L660.50 352.38 L657.64 352.07 L655.52 351.11 L657.84 345.83 L656.51 344.04 L653.72 343.73 L651.92 342.44 L651.29 339.91 L651.36 336.60 L648.05 336.94 L648.35 333.28 L647.25 331.15 L645.86 329.33 L644.37 327.61 L639.85 329.57 L638.34 327.93 L636.20 327.09 L632.70 328.01 L629.53 328.60 L627.95 327.13 L625.51 326.83 L622.66 327.15 L623.20 322.67 L621.45 321.39 L618.51 321.91 L617.18 320.04 L615.32 318.96 L615.86 314.03 L614.08 312.74 L611.86 312.19 L611.76 308.01 L609.60 307.32 L606.67 308.02 L603.34 309.56 L602.09 307.28 L599.28 307.97 L596.33 309.03 L594.52 307.85 L592.48 307.16 L589.15 309.22 L585.94 311.21 L585.06 308.06 L583.45 306.51 L580.80 307.37 L578.95 306.38 L577.38 304.67 L577.56 298.35 L574.46 300.46 L572.69 299.09 L571.39 296.34 L567.94 299.80 L567.43 294.57 L564.41 296.95 L562.07 297.33 L560.44 295.34 L557.74 297.05 L556.59 293.24 L553.76 295.60 L551.42 296.20 L549.79 294.01 L546.79 297.60 L544.95 296.29 L542.85 296.13 L541.25 293.50 L539.16 293.25 L537.21 292.17 L535.89 287.29 L533.14 290.88 L531.16 289.81 L528.68 292.26 L526.39 293.62 L523.94 296.63 L521.96 295.86 L520.32 291.51 L518.10 292.91 L516.26 289.74 L514.28 287.72 L512.12 288.28 L509.95 289.16 L507.71 292.68 L505.69 290.72 L503.59 290.92 L501.48 293.16 L499.41 292.67 L497.31 290.36 L495.17 288.43 L493.09 289.47 L490.90 287.60 L488.82 288.51 L486.78 289.96 L484.69 290.18 L483.04 295.68 L480.74 293.15 L478.42 290.88 L476.44 292.07 L474.31 291.93 L472.02 290.64 L470.13 292.29 L468.44 295.11 L466.60 296.73 L464.72 297.90 L462.91 299.40 L460.91 299.78 L458.71 299.24 L455.92 296.01 L453.90 296.56 L452.01 297.63 L449.78 297.26 L448.76 301.68 L447.27 304.00 L445.96 306.87 L443.49 305.57 L441.42 305.69 L439.15 305.24 L435.86 301.71 L434.27 303.51 L432.55 304.88 L431.25 307.39 L430.07 310.10 L428.67 312.11 L427.46 314.55 L425.11 314.04 L422.99 314.14 L419.65 311.44 L417.74 312.19 L416.61 314.68 L414.22 314.36 L414.71 320.15 L413.74 322.70 L412.45 324.55 L409.84 323.74 L407.73 323.98 L405.84 324.66 L402.23 322.23 L400.61 323.49 L399.69 325.95 L398.90 328.56 L396.41 328.30 L393.22 326.95 L392.86 330.18 L391.11 331.17 L389.47 332.33 L388.00 333.75 L386.32 334.83 L385.67 337.40 L383.37 337.60 L382.53 339.84 L382.01 342.45 L382.63 346.51 L381.31 347.96 L378.79 347.90 L379.56 351.92 L378.21 353.29 L376.97 354.78 L376.27 356.88 L377.09 360.66 L377.35 363.73 L375.01 363.89 L375.20 366.80 L374.65 368.86 L372.11 368.86 L369.03 368.35 L367.80 369.75 L365.30 369.92 L363.53 370.82 L363.84 373.67 L364.16 376.47 L363.66 378.49 L362.24 379.67 L360.83 380.87 L358.92 381.66 L357.05 382.51 L355.99 384.03 L355.34 385.87 L354.33 387.42 L352.31 388.20 L351.06 389.57 L349.93 391.05 L346.25 390.71 L345.38 392.40 L345.30 394.63 L344.31 396.21 L343.96 398.22 L342.55 399.53 L342.73 401.85 L340.61 402.73 L338.07 403.38 L336.93 404.90 L335.17 406.07 L334.11 407.65 L332.92 409.16 L332.89 411.30 L334.72 414.38 L336.26 417.25 L337.53 419.91 L339.79 423.01 L342.17 426.09 L342.82 428.30 L339.19 428.58 L336.65 429.40 L333.50 430.01 L329.95 430.50 L326.67 431.18 L325.09 432.57 L323.76 434.07 L324.02 436.17 L323.84 438.09 L323.25 439.86 L324.42 442.21 L323.48 443.85 L322.87 445.60 L323.27 447.65 L321.93 449.19 L321.46 450.98 L320.43 452.62 L320.52 454.56 L321.42 456.68 L322.42 458.80 L325.11 461.26 L327.74 463.65 L330.44 465.99 L331.99 468.04 L333.40 470.03 L333.72 471.81 L331.92 473.23 L329.88 474.64 L327.73 476.08 L325.12 477.50 L322.12 478.92 L319.82 480.47 L318.44 482.16 L318.00 483.95 L318.72 485.84 L320.21 487.76 L321.86 489.66 L323.40 491.52 L322.58 493.26 L322.68 495.04 L321.53 496.79 L320.50 498.57 L320.49 500.37 L320.57 502.16 L323.09 503.90 L325.16 505.60 L327.05 507.27 L327.79 508.97 L329.02 510.62 L329.61 512.30 L328.53 514.10 L326.88 515.98 L327.99 517.61 L326.56 519.51 L324.80 521.49 L325.75 523.14 L324.28 525.13 L322.91 527.13 L323.19 528.90 L324.01 530.58 L325.24 532.17 L326.51 533.73 L329.60 534.90 L332.04 536.16 L332.76 537.76 L333.55 539.33 L335.12 540.70 L336.33 542.15 L337.53 543.57 L339.22 544.85 L342.71 545.58 L344.66 546.70 L345.22 548.22 L346.60 549.48 L346.08 551.35 L345.98 553.11 L345.35 555.06 L342.86 557.72 L340.99 560.22 L340.65 562.18 L339.26 564.58 L338.47 566.78 L338.55 568.65 L339.48 570.16 L340.44 571.65 L341.19 573.22 L342.37 574.60 L344.17 575.66 L345.62 576.88 L346.55 578.34 L349.60 578.69 L351.50 579.59 L353.08 580.65 L356.28 580.78 L359.25 580.97 L361.37 581.61 L363.59 582.14 L364.84 583.25 L366.02 584.38 L364.75 587.08 L364.37 589.26 L365.45 590.48 L364.85 592.87 L365.84 594.18 L366.35 595.82 L366.84 597.51 L367.85 598.81 L367.75 600.96 L368.02 602.86 L368.10 604.94 L368.82 606.52 L369.76 607.94 L370.76 609.31 L373.05 609.56 L375.75 609.43 L378.00 609.63 L380.19 609.84 L382.02 610.36 L383.95 610.75 L385.34 611.64 L386.61 612.63 L387.61 613.89 L389.59 614.15 L390.28 615.72 L390.63 617.69 L391.75 618.85 L391.39 621.66 L392.39 623.00 L393.97 623.66 L395.34 624.57 L396.45 625.79 L397.60 626.95 L399.58 627.08 L400.46 628.59 L401.11 630.43 L402.17 631.73 L403.41 632.82 L405.23 633.10 L406.91 633.54 L409.08 633.25 L412.25 631.41 L414.83 630.36 L417.14 629.62 L420.05 627.87 L422.23 627.19 L423.73 627.60 L424.79 628.72 L425.58 630.36 L426.25 632.24 L425.97 635.91 L426.48 638.25 L426.88 640.87 L427.56 643.06 L429.12 643.51 L430.51 644.30 L431.92 645.08 L433.89 644.63 L435.34 645.27 L436.95 645.56 L438.18 646.71 L439.54 647.61 L441.33 647.42 L442.45 648.94 L444.30 648.54 L446.58 646.90 L448.64 645.76 L450.16 646.10 L452.55 643.78 L454.74 641.89 L455.92 643.12 L457.48 643.15 L459.28 642.26 L460.42 643.69 L461.35 646.01 L462.70 646.84 L463.71 649.09 L464.68 651.70 L466.02 652.85 L467.47 653.54 L469.03 653.76 L470.81 652.78 L472.58 651.78 L474.42 650.12 L476.10 649.29 L477.61 649.42 L479.24 648.63 L480.77 648.53 L482.27 648.58 L483.80 648.34 L485.46 646.73 L487.20 643.84 L488.70 643.24 L490.20 642.35 L491.66 641.82 L493.03 642.75 L494.38 644.85 L495.79 646.24 L497.23 647.86 L498.70 648.38 L500.18 649.02 L501.68 649.65 L503.19 650.29 L504.74 651.55 L506.30 652.56 L507.89 653.79 L509.44 653.91 L510.93 653.14 L512.29 650.93 L513.74 650.21 L514.98 647.48 L516.32 646.07 L517.67 645.00 L518.89 643.13 L520.18 641.89 L521.26 639.52 L522.22 636.61 L523.38 635.20 L524.57 634.09 L525.78 633.18 L527.30 633.84 L528.95 634.99 L530.37 635.02 L531.83 635.18 L533.59 636.52 L535.30 637.54 L536.71 637.31 L538.62 638.86 L540.46 640.05 L542.06 640.32 L543.66 640.52 L545.21 640.53 L546.75 640.48 L548.19 640.11 L549.13 638.34 L550.18 636.94 L550.59 633.90 L551.13 631.34 L551.95 629.59 L552.09 626.28 L552.82 624.51 L554.25 624.40 L554.99 622.72 L556.33 622.42 L558.22 623.27 L559.88 623.58 L561.75 624.25 L563.32 624.28 L564.62 623.75 L565.94 623.26 L567.01 622.30 L568.29 621.73 L569.32 620.71 L570.83 620.54 L572.58 620.75 L573.66 619.81 L575.47 620.04 L576.83 619.54 L577.91 618.60 L578.81 617.39 L578.96 615.11 L578.58 612.13 L578.41 609.55 L577.50 606.02 L576.35 602.28 L576.34 600.17 L576.86 598.78 L577.40 597.44 L578.91 597.33 L580.92 597.80 L584.23 599.75 L586.58 600.48 L589.13 601.37 L591.00 601.43 L592.00 600.50 L593.26 599.86 L593.71 598.35 L594.10 596.80 L595.29 596.08 L596.72 595.59 L598.40 595.33 L600.93 595.84 L601.27 594.26 L600.15 591.37 L601.45 590.71 L600.50 588.06 L597.71 583.91 L596.71 581.39 L596.82 579.84 L597.38 578.67 L596.23 576.17 L595.43 574.00 L596.28 573.13 L596.63 571.88 L595.00 569.20 L595.28 567.96 L596.23 567.20 L595.34 565.17 L594.69 563.34 L595.32 562.39 L595.43 561.11 L594.99 559.49 L595.36 558.41 L595.92 557.44 L595.70 556.02 L595.80 554.80 L596.33 553.83 L596.47 552.65 L596.40 551.36 L596.73 550.30 L597.12 549.28 L597.12 548.06 L597.32 546.96 L597.76 545.97 L597.93 544.86 L597.92 543.67 L598.20 542.63 L598.50 541.59 L598.50 540.44 L598.57 539.32 L598.81 538.28 L598.92 537.18 L598.93 536.06 L599.06 534.99 L599.23 533.94 L599.28 532.85 L599.33 531.77 L599.47 530.72 L599.55 529.66 L599.58 528.59 L599.65 527.53 L599.74 526.49 L599.76 525.43 L599.79 524.37 L599.84 523.33 L599.87 522.29 L599.86 521.24 L599.87 520.20 L599.88 519.16 L599.86 518.13 L599.83 517.09 L599.81 516.06 L599.78 515.03 L599.72 514.01 L599.66 512.98 L599.60 511.96 L599.52 510.95 L599.43 509.93 L599.34 508.92 L599.23 507.91 L599.11 506.91 L598.99 505.90 L598.86 504.90 L598.71 503.91 L598.56 502.91 L598.40 501.92 L598.23 500.94 Z"/>
  <svg class="pausebutton" id="pausebutton">
    <circle cx="500" cy="500" id="pausestart" class="pausestart" r="52.65"/>
    <rect height="50.02" width="10.00" y="473.68" rx="2.00" ry="2.00" x="479.99" class="pausesymbol"/>
    <rect height="50.02" width="10.00" y="473.68" rx="2.00" ry="2.00" x="510.00" class="pausesymbol"/>
    <polygon points="530.01,500 479.99,530.01 479.99,469.99" class="playsymbol"/>
  </svg>
  <polygon id="playback-head" class="playback-head" points="941.65,500 921.65,540 961.65,540"/>
</svg>