<?xml-stylesheet href="../../style/waveformjs.css" type="text/css"?>
<svg xmlns="http://www.w3.org/2000/svg" xmlns:xlink="http://www.w3.org/1999/xlink" width="100%" height="100%" viewBox="0 0 1000 1000">
  <path class="svg-wave" id="sp" d="M598.01 500.00 L598.19 500.98 L598.36 501.97 L598.51 502.96 L598.63 503.95 L598.71 504.94 L598.77 505.93 L598.81 506.93 L598.83 507.92 L598.85 508.92 L598.89 509.92 L598.94 510.93 L598.93 511.93 L598.89 512.93 L598.83 513.93 L598.71 514.92 L598.65 515.92 L598.46 516.90 L598.33 517.89 L598.28 518.90 L597.89 519.84 L597.63 520.81 L597.33 521.77 L596.60 522.62 L596.14 523.53 L595.56 524.40 L594.72 525.20 L593.12 525.77 L589.54 525.75 L586.46 525.80 L588.94 527.51 L584.42 527.04 L581.90 527.14 L585.82 529.39 L585.93 530.40 L582.69 530.18 L583.50 531.43 L586.63 533.60 L583.10 533.19 L580.72 533.18 L583.96 535.50 L583.98 536.50 L580.92 536.14 L582.27 537.73 L585.65 540.32 L582.12 539.67 L580.26 539.76 L584.35 542.85 L581.84 542.61 L577.98 541.59 L579.24 543.29 L580.14 544.83 L576.07 543.56 L574.75 543.79 L577.15 546.24 L575.40 546.23 L573.72 546.22 L574.35 547.66 L575.66 549.57 L575.17 550.33 L574.06 550.67 L577.74 554.33 L578.09 555.75 L575.31 554.91 L577.54 557.73 L578.40 559.60 L574.73 558.00 L573.18 557.98 L576.32 561.72 L573.45 560.62 L570.42 559.32 L572.14 562.01 L572.77 563.83 L570.18 562.80 L569.26 563.24 L572.47 567.51 L569.86 566.40 L566.76 564.74 L567.65 566.92 L567.01 567.63 L564.09 565.99 L563.72 566.93 L565.09 569.76 L563.28 569.19 L561.28 568.37 L562.88 571.58 L563.77 574.08 L561.73 573.18 L561.85 574.82 L565.01 580.27 L562.72 579.03 L560.09 577.30 L561.48 580.74 L560.87 581.62 L557.77 579.11 L557.74 580.74 L559.26 584.64 L556.68 582.71 L554.67 581.52 L555.96 585.26 L555.26 586.06 L552.44 583.49 L552.84 586.03 L553.68 589.38 L550.47 585.99 L548.62 584.76 L549.62 588.55 L548.03 587.75 L545.43 585.01 L545.62 587.45 L545.45 589.31 L543.32 587.25 L541.40 585.53 L542.12 589.29 L541.28 589.81 L540.08 589.56 L540.27 592.44 L540.76 596.18 L539.52 595.92 L537.78 594.38 L538.60 599.29 L537.03 598.14 L535.11 595.94 L535.03 598.78 L534.30 599.88 L532.40 597.51 L530.85 596.06 L530.88 599.55 L529.85 599.73 L528.08 597.37 L527.71 599.83 L527.17 601.82 L525.56 599.79 L524.38 599.29 L524.29 603.36 L522.70 601.12 L521.10 598.60 L520.62 601.29 L519.66 601.77 L517.95 598.19 L516.53 595.86 L515.63 596.37 L514.44 595.01 L513.10 592.43 L512.29 593.41 L511.76 596.86 L510.92 598.14 L509.77 596.59 L509.01 599.00 L508.15 600.65 L506.81 596.09 L505.92 597.20 L505.09 600.20 L504.10 600.43 L503.05 599.14 L502.10 601.11 L501.10 602.21 L500.08 596.53 L499.10 597.70 L498.10 598.70 L497.16 597.16 L496.16 598.02 L495.08 599.94 L494.19 597.94 L493.30 596.70 L492.24 597.78 L491.18 598.59 L490.15 599.01 L489.29 597.71 L488.09 599.43 L486.88 601.01 L486.43 596.87 L485.31 597.71 L483.75 601.23 L482.67 601.47 L481.95 599.62 L480.41 602.31 L479.36 602.22 L479.24 597.79 L477.82 599.55 L476.63 600.17 L475.47 600.59 L474.80 599.02 L473.59 599.58 L472.41 599.99 L472.70 595.21 L471.24 596.65 L469.65 598.38 L469.17 596.49 L467.69 597.76 L465.91 599.79 L465.34 598.22 L464.37 597.86 L462.78 599.12 L461.98 598.24 L460.75 598.50 L460.38 596.61 L459.02 597.13 L457.95 596.96 L458.38 593.41 L456.16 595.79 L454.43 597.00 L453.31 596.85 L453.07 594.92 L451.17 596.33 L450.48 595.30 L451.18 591.71 L448.61 594.25 L446.66 595.55 L445.83 594.78 L445.69 592.87 L443.42 594.57 L443.05 593.05 L444.62 588.50 L442.01 590.63 L441.12 590.02 L440.82 588.54 L438.37 590.23 L437.69 589.31 L437.51 587.67 L435.85 588.13 L435.04 587.40 L434.07 586.87 L432.95 586.53 L432.52 585.31 L430.67 585.87 L430.56 584.27 L430.79 582.30 L427.83 584.10 L426.40 584.05 L426.49 582.27 L426.35 580.79 L423.98 581.73 L424.20 579.88 L424.62 577.87 L421.17 579.82 L419.14 580.25 L418.66 579.12 L417.65 578.52 L415.60 578.87 L417.93 575.17 L418.47 573.19 L416.73 573.26 L417.01 571.56 L416.41 570.63 L413.19 571.88 L413.61 570.09 L412.80 569.31 L410.21 569.91 L410.68 568.13 L408.72 568.19 L408.42 566.99 L407.56 566.22 L406.00 565.92 L406.07 564.48 L406.11 563.08 L403.12 563.69 L401.57 563.31 L402.96 561.06 L401.88 560.38 L399.81 560.27 L402.97 557.06 L402.69 555.92 L399.18 556.60 L397.37 556.28 L397.94 554.65 L395.66 554.53 L392.47 554.84 L396.37 551.55 L396.45 550.22 L394.18 550.03 L394.38 548.64 L393.88 547.59 L391.25 547.47 L391.54 546.06 L391.67 544.73 L389.09 544.50 L387.44 543.86 L387.32 542.62 L387.00 541.45 L384.57 541.04 L384.91 539.63 L386.48 537.82 L386.54 536.55 L384.47 535.94 L382.58 535.24 L385.69 533.07 L384.46 532.17 L381.71 531.67 L386.56 529.16 L385.72 528.16 L381.68 527.90 L380.63 526.89 L382.38 525.27 L379.92 524.54 L378.30 523.61 L382.22 521.63 L380.11 520.78 L379.18 519.70 L381.01 518.18 L379.01 517.25 L377.98 516.15 L380.43 514.61 L378.71 513.59 L376.51 512.59 L375.08 511.47 L373.90 510.31 L374.84 508.98 L373.38 507.81 L373.91 506.51 L377.97 505.08 L374.20 503.98 L371.69 502.77 L372.44 501.48 L373.49 500.20 L372.39 498.93 L373.51 497.67 L379.26 496.57 L377.46 495.29 L373.86 493.89 L373.59 492.61 L376.25 491.52 L373.22 490.04 L373.44 488.78 L378.47 488.00 L376.47 486.56 L375.64 485.21 L376.54 484.06 L374.20 482.48 L373.68 481.11 L374.43 479.94 L372.75 478.36 L373.09 477.11 L372.57 475.70 L372.59 474.38 L373.56 473.26 L372.61 471.73 L374.31 470.78 L376.09 469.89 L374.63 468.20 L372.93 466.41 L373.73 465.27 L374.72 464.19 L372.77 462.25 L374.62 461.43 L377.00 460.81 L375.64 459.01 L375.07 457.43 L376.02 456.37 L378.15 455.74 L376.18 453.62 L378.47 453.09 L382.54 453.30 L380.88 451.26 L380.89 449.86 L381.36 448.66 L379.17 446.27 L378.24 444.39 L380.51 443.98 L379.33 441.94 L379.26 440.42 L379.96 439.26 L379.45 437.48 L378.11 435.24 L376.11 432.58 L374.01 429.79 L372.91 427.50 L372.00 425.27 L370.84 422.86 L371.66 421.59 L372.22 420.17 L372.65 418.66 L373.89 417.66 L372.99 415.25 L374.25 414.27 L375.06 412.97 L376.64 412.23 L377.13 410.71 L377.25 408.91 L378.89 408.23 L378.93 406.34 L379.91 405.17 L382.16 405.02 L385.23 405.59 L386.71 404.89 L389.75 405.54 L392.41 405.94 L391.50 403.21 L391.26 401.03 L391.96 399.67 L391.24 396.96 L389.71 393.39 L390.59 392.11 L392.57 391.92 L392.32 389.48 L393.49 388.47 L395.61 388.48 L397.51 388.29 L398.12 386.70 L399.15 385.56 L401.28 385.71 L402.50 384.80 L401.91 381.73 L404.26 382.18 L405.64 381.48 L405.92 379.37 L407.18 378.50 L408.48 377.70 L407.74 374.09 L408.53 372.52 L410.08 371.99 L410.99 370.56 L412.73 370.32 L416.46 373.16 L418.14 372.95 L418.34 370.43 L419.85 369.98 L420.38 367.88 L420.08 364.34 L420.59 362.08 L422.01 361.35 L424.12 361.88 L424.56 359.37 L425.67 358.06 L427.74 358.59 L428.84 357.23 L429.59 355.13 L431.80 356.03 L433.12 355.09 L433.56 352.18 L435.16 351.78 L437.04 352.07 L439.03 352.69 L440.37 351.75 L441.97 351.45 L443.51 351.01 L444.75 349.77 L446.19 349.03 L447.29 347.31 L449.42 348.57 L451.51 349.86 L454.11 352.88 L455.35 351.65 L456.09 348.66 L458.00 349.64 L459.08 347.65 L459.70 343.74 L461.08 342.61 L462.69 342.33 L464.46 342.84 L465.70 340.93 L467.32 340.76 L469.04 341.05 L470.82 341.81 L472.13 339.92 L474.00 341.32 L475.58 340.97 L477.11 340.31 L478.79 340.73 L480.28 339.69 L482.18 342.09 L483.63 340.68 L485.14 339.60 L486.68 338.65 L488.26 338.13 L489.93 338.86 L491.51 338.03 L493.13 338.00 L494.85 341.04 L496.47 342.38 L498.03 341.30 L499.62 341.05 L501.23 338.14 L502.88 336.55 L504.49 337.55 L506.15 336.46 L507.73 337.80 L509.05 343.14 L510.58 343.75 L512.09 344.56 L513.66 344.49 L515.40 342.69 L517.00 342.60 L518.58 342.72 L520.35 341.42 L522.55 337.17 L524.17 337.47 L526.04 336.15 L528.15 333.60 L529.64 334.86 L530.93 337.07 L532.23 339.05 L533.83 339.38 L535.23 340.65 L536.57 342.13 L538.52 340.95 L540.15 341.18 L541.58 342.17 L543.66 340.75 L546.57 336.59 L548.60 335.71 L551.02 333.66 L554.11 329.68 L555.94 329.83 L556.81 332.83 L558.06 334.62 L560.31 333.53 L561.24 336.12 L562.63 337.37 L565.02 336.09 L566.50 337.13 L567.36 339.61 L568.61 341.10 L570.53 341.04 L571.47 343.17 L572.84 344.32 L574.59 344.64 L575.60 346.50 L576.08 349.34 L577.18 350.88 L579.21 350.63 L579.85 353.01 L581.91 352.74 L584.20 352.13 L585.64 353.04 L586.74 354.50 L588.50 354.87 L590.95 354.16 L591.97 355.76 L594.74 354.64 L598.39 352.30 L599.12 354.37 L600.76 355.10 L603.92 353.70 L606.04 353.84 L606.69 355.99 L610.01 354.57 L612.34 354.54 L612.37 357.47 L612.79 359.84 L614.31 360.82 L615.90 361.72 L616.00 364.39 L619.10 363.56 L621.11 364.02 L621.36 366.45 L621.78 368.65 L622.77 370.21 L624.05 371.46 L623.72 374.34 L626.19 374.37 L627.28 375.79 L627.16 378.36 L627.89 380.09 L629.65 380.86 L631.31 381.73 L632.32 383.20 L636.53 381.89 L639.22 381.98 L639.69 383.96 L641.28 385.00 L644.59 384.70 L645.32 386.47 L645.30 388.81 L648.41 388.77 L648.31 391.14 L647.64 393.89 L647.31 396.34 L649.39 397.09 L649.21 399.41 L649.45 401.41 L652.18 401.77 L652.75 403.56 L652.62 405.76 L652.81 407.74 L654.77 408.65 L655.29 410.43 L655.23 412.52 L657.37 413.38 L657.51 415.34 L657.16 417.55 L657.78 419.22 L659.85 420.17 L660.55 421.81 L661.93 423.14 L665.55 423.44 L666.57 424.98 L666.63 426.95 L665.89 429.24 L668.25 430.21 L669.35 431.73 L667.77 434.31 L670.23 435.30 L672.81 436.30 L670.98 438.91 L669.89 441.20 L671.76 442.47 L670.61 444.75 L670.48 446.67 L671.72 448.16 L672.14 449.91 L671.93 451.83 L671.82 453.70 L674.18 454.93 L674.23 456.77 L675.12 458.41 L677.01 459.82 L678.24 461.42 L678.76 463.17 L679.74 464.84 L682.55 466.18 L683.07 467.97 L684.32 469.65 L686.87 471.15 L686.93 473.05 L686.21 475.05 L686.51 476.91 L689.28 478.48 L688.81 480.45 L688.62 482.37 L691.31 484.05 L690.21 486.05 L688.89 488.05 L687.56 490.02 L687.39 491.90 L685.77 493.83 L684.87 495.71 L685.32 497.56 L684.49 499.41 L683.45 501.25 L683.06 503.08 L684.14 504.94 L683.41 506.76 L683.60 508.60 L685.52 510.55 L685.55 512.42 L685.53 514.28 L686.85 516.26 L689.41 518.39 L689.04 520.27 L690.32 522.33 L693.16 524.63 L692.15 526.45 L690.99 528.24 L690.45 530.11 L691.10 532.18 L689.51 533.86 L688.95 535.71 L690.17 537.92 L688.80 539.61 L685.95 540.96 L684.78 542.64 L684.36 544.49 L682.44 545.97 L681.50 547.66 L681.30 549.55 L680.27 551.22 L678.89 552.76 L677.81 554.38 L677.16 556.13 L676.10 557.74 L675.37 559.45 L675.88 561.59 L675.93 563.59 L676.78 565.90 L678.92 568.74 L680.69 571.50 L682.34 574.28 L684.90 577.48 L684.02 579.28 L682.94 581.00 L681.43 582.51 L681.13 584.57 L680.73 586.60 L679.11 588.03 L680.21 590.82 L679.23 592.59 L677.53 593.97 L675.37 595.08 L674.87 597.09 L673.65 598.69 L671.12 599.53 L670.95 601.73 L668.68 602.68 L665.99 603.33 L663.52 604.08 L662.65 605.82 L660.64 606.82 L658.66 607.81 L658.36 609.93 L657.22 611.49 L656.24 613.16 L656.41 615.68 L658.91 620.01 L657.98 621.81 L657.76 624.17 L660.04 628.57 L657.84 629.42 L656.04 630.59 L654.49 631.94 L652.73 633.09 L650.77 634.06 L648.68 634.89 L646.91 635.99 L646.39 638.25 L645.07 639.77 L644.88 642.41 L644.84 645.25 L643.89 647.22 L642.39 648.63 L640.52 649.64 L639.53 651.60 L638.40 653.42 L637.36 655.37 L635.88 656.82 L635.34 659.39 L632.55 659.30 L629.05 658.29 L626.54 658.42 L623.93 658.37 L621.30 658.25 L619.83 659.62 L618.90 661.72 L617.52 663.23 L616.09 664.70 L615.84 667.88 L614.25 669.18 L612.79 670.67 L611.48 672.40 L610.51 674.72 L609.27 676.64 L606.62 676.27 L605.41 678.27 L603.32 678.79 L600.83 678.59 L598.66 678.89 L596.92 679.97 L595.12 680.95 L593.57 682.39 L592.47 684.80 L590.12 684.67 L588.67 686.42 L587.18 688.12 L584.51 687.24 L582.23 687.15 L581.64 690.98 L579.36 690.90 L577.01 690.60 L576.64 695.28 L575.41 697.94 L572.78 696.94 L570.88 697.87 L569.98 701.69 L567.22 700.16 L564.38 698.26 L562.67 699.78 L560.58 700.08 L558.25 699.56 L555.80 698.53 L554.56 701.84 L552.79 703.35 L550.39 702.41 L548.52 703.56 L546.97 706.19 L544.62 705.33 L542.27 704.33 L540.64 706.88 L538.46 706.69 L536.17 705.77 L534.23 706.85 L532.40 708.77 L530.09 707.53 L528.02 707.85 L526.21 710.29 L523.99 709.60 L521.90 709.88 L519.88 710.89 L517.72 710.50 L515.50 709.17 L513.43 709.58 L511.36 710.21 L509.23 709.74 L507.09 708.53 L505.05 710.56 L502.97 712.28 L500.83 708.70 L498.74 710.14 L496.58 713.34 L494.49 711.69 L492.35 712.23 L490.12 714.47 L487.90 715.84 L485.79 714.95 L483.75 713.41 L481.45 715.12 L479.32 714.72 L477.44 711.99 L475.08 713.82 L472.76 715.03 L470.68 714.22 L468.61 713.46 L466.01 716.06 L464.12 714.13 L461.95 713.92 L459.07 717.49 L457.22 715.43 L455.36 713.58 L452.87 714.75 L450.89 713.56 L449.19 711.26 L447.38 709.53 L444.99 710.15 L443.06 708.97 L441.71 705.80 L439.24 706.61 L436.91 706.85 L434.99 705.76 L432.66 705.95 L429.29 709.16 L426.93 709.20 L425.19 707.52 L422.84 707.49 L420.59 707.18 L418.87 705.49 L417.11 703.95 L414.80 703.78 L412.79 702.85 L411.41 700.51 L409.31 699.84 L406.52 700.62 L404.71 699.28 L401.94 699.91 L398.51 701.78 L398.10 697.65 L396.64 695.65 L393.30 697.18 L392.42 694.14 L391.00 692.14 L388.63 691.82 L385.11 693.41 L382.69 693.06 L381.62 690.50 L381.01 687.28 L378.31 687.35 L378.34 683.27 L379.13 678.19 L375.43 679.75 L372.52 680.08 L370.12 679.63 L368.15 678.57 L364.35 679.91 L363.66 677.12 L363.16 674.15 L360.84 673.49 L360.42 670.50 L359.00 668.76 L354.78 670.32 L352.91 669.06 L351.31 667.49 L347.99 667.82 L344.43 668.33 L342.88 666.63 L343.48 662.71 L339.76 663.28 L338.79 661.01 L339.42 657.20 L336.97 656.44 L334.05 656.09 L333.29 653.69 L332.45 651.39 L330.58 650.04 L328.91 648.48 L330.33 644.30 L329.90 641.76 L327.27 641.05 L324.37 640.52 L323.76 638.13 L320.69 637.67 L316.48 638.00 L318.45 633.70 L315.63 632.96 L313.75 631.51 L313.91 628.62 L310.33 628.31 L306.41 628.16 L305.29 626.12 L304.11 624.12 L300.21 623.81 L298.65 622.00 L299.44 618.80 L299.89 615.85 L295.72 615.55 L295.55 612.96 L296.18 609.97 L292.86 609.10 L289.18 608.36 L287.91 606.35 L289.30 603.02 L287.01 601.52 L284.96 599.87 L290.20 594.90 L289.61 592.64 L285.96 591.70 L283.92 590.03 L286.11 586.62 L282.64 585.50 L279.78 584.10 L284.79 579.72 L283.30 577.82 L281.41 576.04 L280.56 573.88 L276.77 572.69 L270.83 572.09 L271.14 569.49 L270.82 567.09 L267.49 565.55 L267.68 562.99 L271.22 559.58 L271.12 557.17 L268.30 555.42 L270.83 552.40 L271.87 549.77 L269.38 547.90 L267.71 545.83 L266.46 543.65 L267.05 541.13 L265.20 539.04 L265.68 536.56 L269.66 533.58 L268.37 531.41 L266.30 529.31 L265.62 527.02 L266.35 524.57 L263.10 522.52 L262.24 520.20 L267.12 517.45 L265.89 515.19 L265.39 512.86 L264.92 510.53 L260.62 508.33 L256.57 506.03 L258.16 503.57 L256.21 501.16 L253.65 498.71 L255.12 496.27 L258.00 493.89 L256.65 491.43 L255.14 488.92 L257.61 486.60 L258.36 484.22 L256.09 481.62 L255.03 479.07 L254.92 476.59 L255.90 474.22 L254.09 471.54 L255.58 469.23 L259.86 467.33 L257.68 464.56 L257.04 461.98 L258.16 459.67 L261.00 457.69 L258.92 454.83 L261.52 452.84 L266.37 451.37 L265.68 448.78 L265.50 446.27 L265.56 443.82 L262.82 440.64 L263.75 438.36 L264.80 436.11 L261.76 432.72 L262.98 430.50 L264.12 428.27 L264.97 425.95 L263.81 422.98 L264.27 420.51 L267.46 418.99 L268.75 416.84 L266.97 413.56 L266.21 410.61 L267.39 408.38 L267.39 405.68 L265.92 402.35 L270.87 401.71 L272.68 399.78 L273.19 397.29 L275.14 395.45 L276.50 393.35 L276.89 390.78 L276.92 388.02 L281.99 387.82 L283.56 385.88 L284.84 383.79 L286.03 381.65 L286.90 379.33 L283.87 374.75 L285.44 372.78 L288.10 371.47 L286.36 367.48 L288.75 366.01 L290.76 364.34 L291.80 362.03 L291.27 358.66 L291.91 356.03 L295.18 355.25 L296.11 352.83 L295.12 348.97 L295.52 346.09 L298.18 344.91 L297.80 341.37 L297.89 338.16 L303.32 339.25 L304.50 336.92 L303.62 332.83 L305.42 330.98 L308.27 330.06 L308.23 326.57 L310.41 325.07 L316.83 327.56 L318.23 325.42 L320.02 323.65 L322.57 322.64 L323.45 319.95 L322.79 315.62 L326.42 315.74 L328.41 314.17 L328.94 310.98 L330.78 309.22 L333.27 308.19 L334.57 305.80 L333.57 300.62 L336.60 300.23 L339.64 299.90 L339.63 295.72 L340.70 292.86 L342.70 291.17 L345.58 290.66 L346.19 287.08 L348.02 285.11 L353.43 288.30 L355.54 286.83 L357.38 284.94 L359.13 282.90 L362.16 282.84 L363.36 279.90 L365.03 277.66 L369.15 279.51 L370.29 276.36 L372.77 275.49 L375.16 274.48 L376.96 272.39 L377.99 268.80 L381.14 269.20 L383.75 268.61 L385.41 266.13 L387.46 264.36 L389.61 262.79 L392.99 263.92 L394.35 260.58 L396.51 258.98 L400.64 262.06 L402.28 259.24 L403.71 255.79 L405.85 254.05 L408.75 254.27 L410.35 250.99 L412.82 250.04 L416.74 253.35 L418.29 249.72 L420.26 247.21 L422.40 245.16 L425.26 245.44 L427.02 241.92 L429.88 242.20 L433.40 245.10 L435.30 241.84 L438.21 242.57 L441.15 243.54 L443.23 240.75 L445.60 239.10 L448.73 241.19 L451.09 239.48 L453.61 238.49 L456.26 238.22 L459.18 239.72 L461.56 237.79 L464.07 236.60 L466.90 237.80 L469.55 237.71 L471.78 233.73 L474.35 232.40 L477.06 232.55 L479.79 233.07 L482.31 230.66 L485.14 232.85 L487.96 236.07 L490.48 232.43 L493.12 231.01 L495.81 230.84 L498.50 230.04 L501.21 227.18 L503.88 231.35 L506.51 233.58 L509.19 233.26 L511.83 233.90 L514.53 233.37 L517.31 231.71 L520.17 229.55 L522.77 230.99 L525.52 230.50 L528.13 231.57 L530.73 232.59 L533.33 233.49 L536.15 232.71 L539.00 231.87 L541.42 233.90 L544.19 233.65 L547.33 231.44 L550.11 231.36 L552.59 232.94 L555.22 233.66 L558.26 232.45 L560.03 237.02 L562.41 238.66 L565.88 235.88 L569.00 234.68 L571.43 236.21 L574.48 235.46 L577.67 234.32 L578.58 240.85 L580.67 243.26 L583.64 242.82 L586.42 243.02 L589.21 243.27 L593.36 239.76 L596.62 238.91 L598.65 241.38 L601.77 241.02 L604.09 242.71 L606.13 245.04 L608.46 246.60 L611.85 245.74 L614.31 247.03 L616.33 249.28 L619.58 248.88 L623.01 248.19 L625.40 249.69 L626.88 252.93 L629.14 254.60 L631.68 255.73 L631.27 262.22 L633.65 263.53 L637.76 261.84 L641.83 260.37 L643.49 263.01 L647.68 261.50 L651.66 260.46 L650.76 267.06 L653.73 267.61 L656.36 268.70 L657.70 271.67 L660.90 271.94 L665.75 269.98 L666.69 273.49 L668.82 275.35 L673.26 274.17 L676.06 275.21 L678.47 276.77 L681.87 277.12 L683.93 279.14 L687.43 279.46 L688.78 282.32 L689.56 285.79 L691.36 288.07 L692.79 290.72 L693.93 293.67 L695.77 295.85 L697.83 297.78 L700.69 298.92 L705.28 298.40 L708.36 299.42 L711.59 300.35 L714.33 301.78 L716.12 304.10 L716.48 307.67 L717.75 310.41 L719.50 312.71 L720.77 315.41 L723.01 317.30 L725.01 319.39 L728.18 320.57 L729.94 322.88 L731.72 325.17 L733.98 327.11 L735.95 329.28 L738.54 331.01 L739.07 334.20 L741.25 336.24 L743.47 338.26 L743.84 341.51 L745.33 344.00 L746.56 346.67 L748.35 348.97 L747.99 352.57 L748.91 355.37 L750.24 357.93 L749.82 361.45 L751.47 363.80 L753.70 365.86 L755.78 368.01 L756.65 370.80 L759.51 372.60 L760.41 375.37 L761.95 377.84 L764.48 379.86 L764.83 382.88 L766.44 385.35 L769.48 387.22 L770.74 389.86 L771.21 392.82 L775.46 394.31 L779.93 395.79 L780.37 398.81 L781.28 401.65 L784.36 403.75 L785.23 406.63 L782.87 410.52 L782.47 413.74 L784.07 416.35 L783.79 419.51 L781.79 423.11 L783.95 425.57 L786.20 428.03 L785.46 431.24 L786.62 433.99 L790.12 436.23 L790.07 439.27 L789.45 442.42 L793.04 444.74 L793.49 447.69 L791.34 451.08 L791.43 454.05 L790.69 457.15 L789.80 460.23 L789.19 463.26 L792.34 465.83 L791.47 468.88 L792.78 471.70 L796.38 474.34 L797.32 477.25 L796.31 480.30 L797.30 483.22 L799.23 486.11 L799.56 489.10 L798.27 492.13 L798.06 495.12 L800.62 498.08 L798.61 501.08 L796.39 504.04 L800.33 507.10 L799.70 510.08 L799.70 513.08 L802.54 516.24 L803.85 519.36 L802.44 522.31 L799.53 525.11 L800.83 528.25 L798.95 531.09 L795.61 533.74 L795.45 536.71 L795.76 539.76 L794.56 542.60 L793.83 545.50 L796.78 549.00 L795.83 551.89 L797.40 555.23 L800.70 558.96 L800.86 562.12 L798.41 564.74 L798.87 567.97 L798.83 571.11 L796.36 573.66 L793.40 576.05 L795.04 579.63 L795.74 583.00 L792.44 585.24 L792.15 588.34 L793.22 591.87 L790.45 594.20 L789.40 597.07 L790.60 600.72 L790.78 604.05 L788.93 606.66 L787.22 609.30 L786.60 612.36 L783.62 614.48 L780.13 616.34 L778.40 618.90 L776.43 621.34 L775.04 624.02 L775.56 627.59 L776.67 631.48 L775.25 634.20 L775.83 637.91 L778.46 642.72 L775.80 644.86 L773.41 647.11 L774.40 651.20 L771.68 653.27 L768.02 654.75 L764.28 656.14 L765.23 660.30 L764.68 663.60 L764.31 667.05 L761.70 669.08 L762.15 673.11 L760.10 675.52 L754.65 675.58 L754.35 679.15 L753.88 682.64 L752.02 685.16 L748.51 686.43 L748.04 689.99 L744.49 691.17 L739.60 691.24 L737.91 693.82 L734.82 695.24 L733.37 698.02 L733.68 702.33 L732.06 705.03 L729.27 706.69 L729.17 710.79 L727.17 713.17 L724.50 714.94 L720.55 715.42 L720.57 719.79 L718.77 722.41 L714.61 722.59 L713.03 725.42 L712.28 729.17 L709.99 731.29 L708.20 733.98 L706.02 736.24 L704.75 739.59 L701.63 740.76 L698.47 741.87 L697.54 745.70 L695.64 748.39 L692.20 749.10 L690.47 752.03 L689.46 755.98 L684.73 754.87 L682.59 757.30 L680.82 760.28 L677.27 760.69 L675.75 764.10 L675.48 769.50 L672.34 770.56 L668.65 770.70 L667.77 775.39 L664.03 775.40 L659.29 773.65 L656.20 774.62 L654.37 777.83 L651.55 779.29 L647.64 778.70 L645.63 781.68 L644.16 785.81 L641.70 788.04 L638.15 788.07 L635.68 790.33 L634.31 795.05 L629.24 791.62 L625.71 791.49 L624.13 795.94 L621.62 798.27 L618.03 797.95 L615.58 800.52 L613.26 803.50 L608.97 801.17 L606.35 803.37 L603.50 804.99 L600.11 804.98 L597.67 807.91 L596.01 813.50 L591.94 811.31 L588.48 811.00 L586.37 815.56 L582.79 814.79 L578.81 812.33 L575.22 811.21 L572.67 814.39 L568.95 812.50 L565.45 811.42 L562.73 814.04 L559.88 816.20 L556.87 817.64 L553.49 817.02 L550.46 818.40 L547.38 819.60 L543.66 816.31 L540.45 816.35 L537.63 819.69 L534.64 822.00 L531.21 820.16 L528.19 822.61 L525.07 824.18 L521.49 819.47 L518.27 819.17 L515.14 820.65 L511.96 821.59 L508.81 824.31 L505.64 828.70 L502.36 829.78 L499.07 829.95 L495.73 832.52 L492.41 832.43 L489.10 831.80 L485.85 830.27 L482.51 830.69 L479.16 831.24 L476.19 826.34 L472.82 827.38 L469.32 829.52 L466.03 829.17 L463.14 825.29 L459.84 825.33 L456.53 825.33 L454.21 818.42 L450.86 819.03 L447.03 822.40 L443.38 824.36 L440.44 822.12 L436.62 824.62 L433.06 825.50 L430.78 820.31 L427.01 822.13 L423.72 821.66 L420.61 820.49 L416.77 822.14 L413.43 821.74 L410.66 819.30 L407.06 819.79 L403.64 819.61 L400.45 818.62 L397.81 815.93 L394.06 816.66 L390.81 815.84 L388.14 813.39 L385.37 811.28 L381.34 812.55 L377.34 813.61 L374.41 811.88 L372.33 808.12 L368.81 807.86 L366.60 804.56 L365.92 797.98 L362.17 798.31 L358.24 798.92 L354.83 798.36 L351.98 796.65 L346.82 799.46 L344.48 796.68 L343.07 792.22 L339.07 792.60 L336.01 791.24 L332.48 790.67 L327.97 791.72 L324.60 790.74 L322.39 787.86 L318.91 787.04 L316.10 785.13 L314.52 781.37 L312.37 778.52 L308.74 777.87 L305.57 776.52 L303.51 773.60 L301.29 770.92 L296.31 771.97 L292.51 771.34 L290.67 768.14 L288.66 765.21 L285.11 764.20 L284.77 759.28 L283.99 754.99 L279.97 754.53 L276.07 753.86 L274.54 750.51 L272.18 748.09 L267.32 748.35 L267.92 742.79 L266.86 739.07 L263.05 738.17 L261.02 735.46 L257.20 734.48 L250.28 736.38 L248.19 733.63 L246.81 730.24 L240.60 731.19 L239.32 727.70 L238.29 724.02 L235.85 721.57 L230.72 721.32 L229.42 717.90 L229.48 713.43 L225.81 711.91 L222.40 710.15 L220.89 706.93 L219.78 703.44 L217.02 701.15 L214.60 698.61 L217.54 692.40 L217.07 688.60 L213.61 686.80 L210.29 684.87 L210.97 680.39 L207.43 678.56 L202.78 677.34 L205.40 671.81 L204.07 668.64 L201.17 666.36 L198.75 663.78 L196.61 661.03 L192.01 659.54 L191.12 656.11 L189.96 652.82 L186.76 650.53 L185.35 647.35 L183.15 644.54 L182.80 640.88 L180.37 638.15 L178.49 635.16 L179.78 630.87 L178.83 627.52 L175.56 625.08 L172.26 622.60 L172.30 618.87 L169.09 616.30 L167.71 613.06 L171.37 608.16 L170.13 604.93 L167.17 602.21 L164.87 599.26 L166.78 595.08 L164.48 592.12 L161.46 589.32 L166.51 584.43 L165.51 581.13 L163.71 578.02 L163.76 574.47 L161.84 571.36 L158.38 568.53 L159.55 564.76 L157.69 561.57 L155.63 558.39 L154.11 555.10 L154.16 551.55 L151.76 548.35 L148.66 545.21 L149.97 541.48 L150.15 537.92 L147.83 534.61 L145.87 531.23 L145.11 527.72 L146.14 524.09 L144.29 520.64 L145.11 517.03 L149.45 513.31 L147.38 509.86 L146.47 506.35 L145.40 502.82 L145.65 499.28 L143.74 495.71 L144.61 492.17 L149.17 488.76 L148.92 485.23 L149.92 481.77 L149.22 478.21 L148.20 474.61 L146.47 470.93 L147.17 467.43 L146.00 463.75 L146.38 460.22 L148.33 456.87 L149.14 453.40 L147.94 449.66 L147.84 446.04 L149.00 442.62 L149.94 439.17 L147.59 435.13 L146.56 431.28 L147.17 427.73 L148.45 424.32 L146.26 420.14 L147.96 416.82 L149.89 413.57 L148.07 409.37 L148.79 405.80 L150.50 402.51 L152.42 399.29 L152.71 395.59 L157.21 393.20 L160.65 390.53 L161.03 386.90 L162.44 383.61 L163.10 380.05 L161.44 375.63 L161.64 371.85 L164.48 369.08 L163.80 364.92 L165.86 361.85 L169.87 359.63 L171.23 356.31 L170.77 352.17 L172.40 348.95 L174.45 345.93 L174.26 341.83 L173.05 337.18 L174.08 333.61 L175.59 330.27 L176.26 326.47 L177.59 323.01 L182.52 321.56 L184.17 318.31 L184.28 314.15 L186.19 311.03 L189.18 308.56 L190.32 304.96 L191.28 301.23 L197.25 300.76 L200.35 298.48 L201.44 294.85 L203.41 291.81 L204.82 288.36 L203.77 283.09 L206.28 280.38 L208.70 277.61 L208.01 272.43 L210.72 269.85 L213.56 267.40 L214.81 263.64 L215.06 259.01 L217.62 256.28 L220.23 253.61 L221.69 249.92 L222.07 245.19 L225.15 242.90 L229.19 241.55 L228.88 236.03 L232.12 233.92 L236.92 233.40 L238.48 229.63 L239.33 225.06 L242.46 222.86 L245.18 220.23 L244.79 214.11 L248.08 212.06 L252.09 210.85 L252.87 205.86 L256.18 203.83 L261.32 204.09 L264.30 201.73 L265.61 197.22 L270.67 197.55 L274.73 196.66 L276.10 192.11 L279.27 190.00 L283.15 188.91 L286.07 186.47 L287.80 182.22 L291.03 180.18 L294.57 178.63 L296.16 173.97 L298.35 170.18 L303.07 170.55 L305.82 167.64 L307.76 163.28 L312.44 163.71 L316.67 163.43 L318.38 158.48 L322.08 157.21 L326.48 157.36 L329.13 154.05 L331.94 150.98 L335.97 150.46 L340.45 150.97 L342.57 146.29 L346.61 145.88 L351.33 147.15 L354.71 145.29 L357.71 142.46 L361.85 142.51 L365.59 141.57 L368.02 137.04 L371.86 136.31 L375.90 136.23 L378.61 132.17 L381.54 128.62 L385.84 129.33 L389.71 128.72 L392.17 123.24 L396.17 123.01 L400.76 125.09 L404.08 122.41 L407.27 119.01 L411.74 120.92 L415.70 120.83 L418.44 115.02 L422.60 115.75 L426.88 117.24 L430.22 113.80 L433.85 111.73 L438.18 113.88 L442.00 112.99 L445.31 108.38 L449.54 110.30 L453.75 112.36 L457.31 109.03 L461.19 108.26 L465.46 111.91 L469.27 110.59 L473.01 108.05 L477.07 110.20 L481.09 112.40 L484.86 109.48 L488.73 108.28 L492.67 109.18 L496.57 108.20 L500.49 104.37 L504.44 104.73 L508.34 107.34 L512.34 105.05 L516.32 104.40 L520.14 107.26 L524.18 105.66 L528.32 103.22 L532.12 105.50 L535.90 107.58 L540.19 104.34 L544.12 104.99 L547.76 108.02 L551.90 106.83 L556.02 106.02 L559.62 108.82 L563.12 111.96 L567.60 109.11 L571.28 111.02 L574.63 114.53 L578.73 114.07 L582.54 115.10 L586.23 116.61 L589.99 117.78 L594.27 116.84 L598.22 117.33 L602.37 117.10 L606.74 116.16 L610.52 117.46 L614.39 118.40 L618.36 119.06 L622.30 119.83 L626.43 120.05 L630.33 121.04 L634.29 121.86 L638.50 122.02 L642.19 123.65 L646.39 123.94 L650.49 124.57 L654.56 125.32 L658.60 126.18 L662.19 128.10 L666.07 129.35 L670.51 129.42 L674.04 131.50 L677.93 132.82 L682.77 132.26 L686.80 133.38 L690.17 135.81 L693.87 137.61 L698.48 137.75 L702.03 139.87 L706.53 140.33 L709.66 143.19 L713.11 145.47 L716.66 147.60 L720.96 148.53 L723.20 152.73 L727.45 153.78 L731.71 154.86 L734.65 157.92 L738.52 159.62 L741.83 162.14 L745.21 164.56 L749.15 166.24 L752.20 169.10 L755.30 171.88 L758.04 175.13 L760.75 178.37 L764.24 180.65 L767.71 182.97 L771.38 185.06 L774.93 187.32 L778.86 189.18 L781.98 191.95 L783.66 196.27 L787.66 198.10 L789.31 202.38 L793.29 204.26 L796.20 207.24 L799.37 209.97 L802.25 212.98 L804.92 216.19 L809.25 217.88 L812.14 220.91 L814.33 224.56 L817.85 227.05 L820.49 230.30 L824.60 232.34 L827.47 235.43 L829.81 238.95 L832.62 242.09 L834.37 246.04 L837.88 248.66 L841.63 251.14 L842.41 255.78 L843.85 259.91 L848.58 261.75 L850.91 265.27 L852.26 269.44 L855.29 272.50 L858.19 275.66 L863.07 277.62 L862.38 283.00 L864.75 286.51 L869.20 288.83 L868.50 294.09 L871.64 297.19 L875.77 299.78 L875.75 304.59 L878.76 307.81 L879.44 312.22 L882.14 315.61 L885.36 318.79 L887.02 322.71 L888.88 326.55 L890.22 330.60 L891.78 334.57 L894.42 338.08 L896.67 341.77 L898.79 345.53 L902.15 348.83 L904.30 352.62 L906.10 356.55 L906.97 360.80 L909.56 364.48 L911.19 368.49 L912.28 372.67 L913.49 376.81 L914.33 381.06 L915.63 385.17 L915.20 389.75 L917.44 393.61 L916.62 398.24 L920.25 401.80 L919.71 406.34 L924.22 409.78 L923.35 414.38 L925.72 418.32 L924.57 422.94 L925.89 427.09 L924.97 431.61 L927.74 435.55 L928.29 439.84 L928.54 444.17 L931.20 448.20 L932.20 452.46 L932.78 456.77 L933.39 461.08 L935.19 465.30 L934.93 469.70 L936.15 473.99 L935.88 478.38 L936.56 482.72 L935.38 487.13 L936.73 491.46 L935.92 495.83 L945.13 500.00 L945.55 495.54 L944.80 491.10 L944.15 486.67 L943.08 482.27 L944.84 477.74 L943.45 473.36 L944.89 468.81 L943.85 464.42 L942.28 460.09 L942.02 455.65 L941.44 451.24 L939.97 446.95 L940.44 442.42 L939.79 438.02 L938.83 433.68 L938.68 429.21 L936.94 425.00 L935.88 420.68 L934.05 416.52 L933.49 412.13 L931.48 408.03 L931.89 403.42 L930.04 399.31 L929.52 394.89 L927.91 390.74 L927.02 386.40 L925.29 382.30 L924.37 377.97 L922.53 373.91 L920.98 369.78 L919.91 365.49 L917.95 361.50 L916.73 357.26 L915.27 353.10 L912.73 349.34 L911.38 345.16 L910.36 340.84 L907.87 337.09 L906.42 332.94 L905.14 328.71 L902.34 325.13 L899.95 321.39 L898.69 317.15 L896.05 313.55 L894.94 309.22 L892.87 305.35 L889.92 301.93 L888.26 297.87 L885.49 294.38 L883.85 290.30 L881.83 286.42 L878.58 283.24 L876.91 279.16 L875.46 274.94 L871.88 272.00 L868.98 268.67 L867.24 264.61 L864.46 261.22 L861.25 258.12 L858.94 254.44 L856.93 250.54 L854.41 246.98 L851.06 244.03 L849.35 239.90 L847.04 236.18 L844.10 232.95 L841.07 229.79 L837.99 226.68 L834.39 224.01 L831.93 220.42 L828.67 217.50 L826.50 213.64 L823.04 210.91 L819.95 207.85 L818.03 203.73 L814.58 201.01 L811.47 197.98 L808.47 194.85 L805.00 192.18 L802.03 189.02 L798.43 186.51 L795.34 183.48 L791.86 180.87 L788.70 177.92 L784.94 175.65 L781.50 173.03 L778.07 170.40 L775.01 167.32 L771.21 165.17 L767.40 163.03 L764.30 160.02 L760.70 157.63 L757.72 154.43 L754.32 151.78 L751.11 148.85 L747.39 146.63 L744.02 143.92 L740.34 141.66 L736.61 139.48 L732.39 138.07 L728.76 135.76 L724.97 133.72 L721.19 131.66 L717.74 129.06 L713.43 127.92 L710.18 124.95 L706.04 123.56 L702.62 120.86 L698.83 118.82 L694.88 117.11 L691.30 114.66 L687.40 112.85 L683.32 111.40 L679.21 110.06 L675.40 108.07 L671.26 106.83 L667.18 105.46 L663.12 104.07 L659.32 102.03 L654.94 101.46 L651.01 99.78 L647.32 97.41 L643.40 95.63 L639.51 93.75 L635.80 91.29 L631.84 89.54 L627.89 87.71 L623.79 86.38 L619.72 84.91 L615.73 83.12 L612.23 79.46 L608.62 76.01 L604.70 73.62 L601.15 69.53 L597.11 67.35 L592.86 66.03 L588.44 65.51 L584.16 64.27 L579.48 65.17 L574.81 66.29 L570.61 64.68 L565.70 67.60 L560.98 69.76 L556.84 67.89 L552.53 67.27 L547.96 68.92 L543.66 68.33 L539.53 65.79 L535.03 67.34 L530.50 69.96 L526.31 67.71 L522.04 66.48 L517.61 68.50 L513.29 68.44 L509.03 65.99 L504.68 66.95 L500.34 67.69 L495.97 61.78 L491.58 61.64 L487.17 60.89 L482.67 58.27 L478.24 58.18 L473.96 60.73 L469.69 62.77 L465.20 61.53 L461.02 64.16 L457.00 67.99 L452.77 69.21 L448.34 68.71 L444.50 72.82 L440.62 76.22 L435.91 73.62 L431.83 75.42 L427.96 78.29 L423.54 77.89 L419.09 77.47 L415.36 80.76 L411.41 82.74 L406.49 80.28 L402.54 82.27 L398.82 85.12 L394.58 85.76 L389.95 84.98 L386.39 88.23 L381.90 88.07 L376.36 84.45 L372.52 86.72 L367.93 86.57 L362.91 85.22 L358.67 86.31 L355.29 89.88 L351.68 92.67 L347.10 92.80 L343.30 95.03 L340.12 98.78 L335.90 99.87 L332.23 102.31 L329.53 106.92 L326.46 110.57 L322.11 111.30 L319.27 115.32 L316.86 120.10 L312.43 120.66 L307.79 120.86 L305.10 124.90 L301.73 127.57 L296.87 127.47 L293.57 130.26 L291.38 134.96 L286.73 135.34 L282.82 137.04 L280.61 141.53 L274.91 140.34 L269.32 139.48 L266.57 143.09 L261.02 142.46 L256.20 143.03 L252.66 145.51 L250.15 149.43 L247.36 152.92 L242.82 154.01 L240.77 158.44 L239.66 164.00 L236.05 166.29 L233.45 169.84 L232.21 175.01 L230.02 178.95 L225.92 180.62 L224.39 185.25 L221.01 187.75 L215.27 187.67 L213.04 191.48 L209.98 194.38 L205.29 195.58 L201.49 197.77 L200.39 202.67 L196.77 205.03 L190.95 205.32 L189.58 209.89 L187.72 213.95 L184.83 217.04 L180.94 219.26 L179.08 223.27 L176.63 226.75 L170.64 227.29 L167.15 229.96 L165.69 234.28 L164.44 238.71 L159.84 240.56 L158.50 244.89 L157.06 249.12 L151.84 250.61 L148.63 253.59 L147.40 257.95 L143.71 260.62 L142.62 265.04 L144.36 271.25 L140.10 273.56 L138.19 277.38 L137.46 281.89 L134.40 285.00 L130.41 287.61 L130.03 292.28 L130.93 297.61 L127.21 300.40 L126.32 304.70 L125.27 308.90 L123.10 312.52 L117.85 314.65 L115.74 318.35 L114.72 322.56 L111.20 325.63 L108.09 328.92 L108.17 333.60 L108.86 338.49 L107.82 342.63 L105.39 346.22 L107.14 351.41 L104.74 355.01 L100.12 357.83 L98.97 361.92 L98.84 366.35 L95.63 369.76 L97.78 374.88 L99.44 379.77 L95.44 382.97 L95.85 387.46 L95.56 391.72 L92.34 395.22 L89.60 398.88 L92.94 404.00 L93.33 408.38 L90.30 411.99 L91.28 416.47 L90.67 420.60 L88.28 424.40 L83.80 427.87 L83.62 432.12 L83.68 436.40 L81.65 440.37 L80.75 444.51 L82.93 449.04 L84.32 453.42 L83.90 457.58 L83.29 461.73 L85.17 466.08 L83.08 470.10 L81.42 474.19 L82.14 478.42 L83.48 482.67 L82.18 486.80 L86.61 491.07 L87.04 495.21 L84.79 499.34 L86.04 503.48 L85.69 507.63 L83.57 511.83 L83.58 516.00 L88.65 519.93 L89.12 524.03 L87.89 528.24 L90.05 532.21 L90.70 536.28 L87.55 540.72 L85.75 545.08 L87.80 549.04 L88.36 553.15 L87.13 557.51 L87.64 561.65 L90.88 565.36 L90.87 569.56 L91.53 573.66 L92.57 577.68 L94.83 581.46 L93.71 585.92 L94.20 590.07 L95.97 593.92 L95.25 598.37 L97.81 602.01 L105.18 604.36 L103.60 609.03 L104.10 613.16 L107.46 616.46 L107.54 620.72 L105.44 625.69 L106.68 629.65 L113.36 631.74 L113.33 636.09 L115.00 639.84 L118.56 642.88 L119.48 646.89 L118.75 651.57 L121.01 655.08 L127.26 656.89 L128.51 660.76 L128.09 665.37 L131.38 668.35 L133.96 671.61 L135.88 675.18 L135.08 680.08 L138.64 682.84 L143.25 685.00 L141.26 690.62 L142.42 694.61 L145.17 697.73 L145.78 702.07 L148.78 705.04 L155.12 705.99 L154.30 711.20 L155.62 715.14 L159.85 717.26 L160.20 721.85 L160.49 726.54 L165.33 728.18 L171.63 728.73 L172.10 733.31 L175.01 736.17 L178.24 738.77 L180.13 742.36 L180.64 747.04 L182.12 751.02 L186.71 752.52 L190.39 754.71 L190.90 759.51 L194.41 761.82 L200.22 762.09 L204.35 763.74 L203.94 769.47 L208.97 770.26 L212.57 772.32 L211.86 778.52 L213.62 782.41 L217.18 784.53 L218.87 788.54 L223.32 789.71 L228.96 789.55 L229.58 794.74 L233.51 796.36 L238.08 797.20 L239.75 801.32 L241.65 805.24 L246.88 805.20 L251.46 805.85 L253.00 810.24 L256.48 812.23 L259.73 814.50 L262.59 817.28 L264.23 821.74 L267.76 823.67 L272.55 823.77 L276.11 825.59 L277.97 829.91 L282.39 830.42 L287.66 829.55 L290.92 831.73 L292.71 836.29 L297.45 836.08 L300.43 838.76 L301.89 844.09 L305.13 846.43 L309.16 847.35 L311.68 851.04 L316.90 849.67 L321.18 849.96 L323.12 854.88 L326.85 856.26 L330.60 857.60 L333.42 860.94 L336.45 863.90 L342.48 860.07 L346.82 859.90 L350.14 862.10 L354.67 861.36 L358.75 861.62 L361.69 864.80 L364.43 868.65 L368.22 869.73 L372.79 868.51 L375.68 872.18 L378.66 875.70 L383.44 873.64 L386.89 875.77 L390.51 877.36 L394.00 879.48 L398.25 878.85 L401.61 881.53 L404.97 884.34 L409.01 884.48 L412.77 885.76 L416.66 886.50 L421.80 881.09 L425.32 883.38 L428.93 885.35 L433.27 883.24 L436.79 885.80 L440.10 890.04 L443.99 890.68 L448.70 885.22 L452.45 886.55 L456.34 886.85 L460.49 884.54 L464.29 885.41 L467.96 887.96 L471.84 888.36 L476.09 882.78 L479.93 882.76 L483.67 885.01 L487.63 881.91 L491.50 879.74 L495.32 877.97 L499.09 881.23 L502.89 879.39 L506.62 875.72 L510.55 881.87 L514.51 885.59 L518.34 884.90 L522.31 886.88 L526.18 886.56 L529.57 880.25 L533.54 881.87 L537.42 882.12 L540.90 878.59 L544.86 879.68 L549.01 881.98 L552.59 879.78 L555.79 875.18 L559.74 875.87 L563.49 875.25 L567.08 873.71 L570.84 873.14 L574.91 874.11 L579.02 875.13 L582.24 871.95 L585.39 868.66 L589.78 870.72 L593.20 868.65 L595.47 862.34 L598.23 858.27 L603.24 862.29 L606.39 859.67 L609.27 856.25 L614.78 861.28 L619.25 862.75 L622.48 860.39 L626.81 861.22 L629.82 858.30 L631.17 851.02 L636.40 854.18 L639.76 852.34 L642.19 848.29 L646.33 848.42 L651.01 849.73 L653.18 845.22 L654.26 838.50 L658.68 839.16 L661.75 836.90 L664.50 834.02 L668.00 832.70 L672.89 834.03 L676.99 833.74 L678.97 829.47 L681.91 827.04 L686.76 827.99 L688.77 823.95 L688.88 816.81 L691.00 813.20 L696.55 815.17 L697.71 810.09 L701.44 809.07 L708.17 812.52 L712.58 812.33 L715.02 809.22 L718.97 808.27 L720.23 803.58 L720.94 798.24 L726.37 799.25 L729.05 796.59 L731.35 793.46 L735.97 793.23 L739.81 791.98 L739.92 786.23 L741.43 782.25 L744.92 780.60 L747.06 777.40 L749.75 774.84 L752.29 772.12 L756.91 771.60 L759.56 768.96 L759.56 763.64 L762.68 761.52 L767.27 760.83 L767.00 755.39 L768.88 752.10 L771.74 749.71 L774.64 747.36 L776.27 743.87 L780.17 742.37 L785.38 741.93 L787.17 738.55 L790.73 736.64 L793.81 734.30 L790.45 726.91 L792.65 723.95 L795.23 721.28 L793.68 715.56 L796.03 712.77 L801.26 711.99 L804.64 709.84 L801.13 703.01 L804.60 700.95 L807.99 698.80 L806.82 693.72 L809.44 691.08 L812.25 688.52 L815.38 686.14 L813.46 680.80 L811.78 675.70 L812.08 671.78 L816.39 670.06 L817.05 666.35 L818.98 663.31 L825.53 662.58 L828.91 660.18 L830.18 656.73 L833.82 654.38 L835.47 651.10 L835.94 647.28 L838.49 644.38 L839.42 640.79 L839.80 636.98 L840.01 633.12 L843.04 630.37 L843.96 626.80 L843.60 622.78 L845.21 619.47 L847.87 616.51 L848.89 612.99 L847.32 608.65 L849.26 605.44 L848.94 601.54 L847.68 597.42 L850.29 594.38 L850.20 590.61 L848.92 586.56 L848.84 582.85 L848.42 579.08 L848.29 575.40 L846.72 571.44 L848.84 568.24 L853.04 565.41 L854.65 562.04 L855.30 558.50 L858.68 555.38 L858.80 551.73 L857.74 547.93 L858.46 544.38 L859.44 540.86 L858.16 537.09 L857.35 533.40 L859.90 530.01 L858.13 526.26 L857.30 522.61 L858.27 519.07 L859.01 515.51 L858.61 511.90 L856.97 508.28 L859.78 504.74 L857.43 501.14 L855.86 497.57 L855.98 494.01 L856.24 490.45 L855.29 486.91 L853.72 483.43 L854.27 479.85 L854.38 476.29 L852.98 472.83 L852.44 469.33 L854.79 465.54 L854.93 461.94 L854.16 458.44 L855.05 454.73 L853.30 451.36 L851.71 447.99 L850.42 444.59 L848.66 441.29 L845.62 438.24 L845.93 434.61 L846.78 430.85 L843.81 427.86 L843.93 424.24 L846.52 420.03 L845.17 416.70 L844.81 413.12 L844.01 409.66 L844.12 405.94 L839.98 403.41 L836.14 400.86 L835.18 397.49 L833.12 394.46 L829.34 392.02 L827.28 389.06 L828.03 385.14 L826.41 382.03 L823.63 379.36 L824.81 375.21 L824.60 371.55 L821.78 368.93 L820.35 365.76 L820.90 361.74 L819.81 358.40 L816.52 356.06 L817.10 351.95 L815.99 348.60 L813.26 346.04 L812.90 342.31 L810.89 339.41 L809.87 335.98 L809.13 332.40 L807.32 329.38 L804.61 326.88 L802.59 324.00 L801.31 320.69 L798.74 318.15 L797.44 314.83 L795.60 311.85 L793.27 309.19 L790.64 306.74 L788.79 303.78 L786.28 301.27 L783.71 298.82 L782.52 295.39 L780.39 292.62 L778.14 289.95 L775.59 287.52 L772.97 285.15 L770.19 282.93 L767.19 280.91 L764.39 278.75 L760.97 277.13 L757.46 275.63 L753.58 274.52 L749.88 273.30 L746.60 271.73 L745.32 268.32 L744.46 264.46 L742.66 261.47 L742.91 256.40 L741.39 253.03 L738.84 250.70 L736.42 248.23 L733.36 246.46 L730.35 244.65 L726.69 243.60 L721.70 244.13 L718.83 242.28 L715.21 241.35 L711.63 240.42 L710.59 236.35 L708.28 233.83 L705.59 231.78 L704.84 227.15 L702.12 225.09 L698.33 224.52 L697.06 220.43 L694.83 217.63 L690.94 217.27 L688.55 214.70 L685.53 213.06 L679.57 216.09 L677.49 213.07 L675.27 210.23 L671.31 210.28 L669.22 207.16 L667.92 202.58 L664.23 202.20 L659.01 204.72 L656.38 202.51 L652.87 202.01 L649.04 202.18 L645.80 201.21 L644.80 195.57 L642.54 192.44 L639.03 191.97 L636.48 189.38 L634.24 185.98 L630.61 185.83 L626.27 187.48 L622.73 187.26 L620.17 184.57 L616.08 185.89 L612.60 185.67 L610.64 181.13 L607.55 179.74 L603.81 180.32 L601.09 177.77 L597.41 178.25 L592.54 182.93 L590.16 179.21 L586.97 178.25 L583.11 179.82 L580.28 177.52 L577.82 173.51 L574.02 175.07 L569.92 178.23 L567.24 174.96 L563.92 174.63 L560.48 175.01 L557.39 173.49 L554.80 168.79 L551.60 167.56 L548.05 168.59 L544.73 168.12 L541.62 166.02 L538.02 167.91 L534.35 170.86 L531.03 170.78 L527.89 168.64 L524.31 171.95 L521.08 170.96 L517.95 167.75 L514.57 168.97 L511.21 170.35 L507.96 168.21 L504.59 171.40 L501.30 174.39 L498.02 171.05 L494.74 171.53 L491.49 172.83 L488.16 171.56 L484.80 169.92 L481.74 174.41 L478.59 176.15 L475.21 174.55 L472.11 176.60 L468.93 177.43 L465.64 177.09 L461.86 172.72 L458.74 174.33 L455.51 174.93 L451.95 173.27 L448.54 172.85 L445.58 175.20 L442.34 175.82 L439.15 176.64 L435.88 177.10 L432.92 179.04 L429.49 178.68 L425.87 177.63 L423.08 180.15 L419.69 180.16 L416.36 180.47 L414.90 187.68 L411.52 187.63 L407.86 186.69 L405.55 190.32 L402.23 190.54 L398.18 188.61 L394.59 188.20 L393.40 194.78 L390.55 196.41 L387.59 197.72 L385.29 200.71 L382.35 202.01 L378.82 201.82 L375.18 201.46 L374.14 207.24 L371.51 209.17 L367.38 207.76 L365.45 211.22 L362.85 213.17 L359.75 214.06 L355.67 213.03 L353.33 215.52 L352.04 219.92 L347.71 218.58 L343.74 218.01 L341.99 221.46 L338.77 222.29 L335.38 222.87 L335.31 228.97 L331.38 228.65 L327.61 228.68 L326.61 233.04 L322.80 233.05 L319.11 233.32 L317.57 236.76 L318.48 243.59 L315.00 244.13 L312.00 245.39 L310.95 249.26 L308.15 250.76 L304.21 250.83 L300.25 250.97 L299.11 254.62 L299.18 259.65 L294.33 258.79 L292.15 261.10 L292.30 266.04 L290.06 268.24 L285.77 268.20 L284.47 271.42 L284.48 275.96 L279.33 275.15 L275.50 275.78 L274.29 279.03 L271.32 280.56 L268.96 282.69 L271.61 289.45 L267.84 290.23 L265.92 292.71 L265.80 296.75 L263.43 298.80 L258.60 298.82 L258.00 302.39 L260.63 308.49 L257.33 309.80 L255.06 311.94 L254.68 315.52 L252.58 317.79 L249.15 319.10 L246.76 321.20 L247.00 325.14 L245.58 327.88 L241.43 328.82 L239.43 331.22 L240.25 335.42 L239.75 338.72 L234.15 338.91 L234.95 343.00 L234.53 346.32 L228.08 346.19 L225.96 348.59 L225.70 352.01 L222.81 354.01 L222.98 357.61 L225.39 362.31 L221.14 363.65 L220.93 366.99 L220.13 370.03 L218.41 372.63 L216.24 375.05 L218.53 379.41 L220.55 383.57 L218.00 385.80 L217.78 388.98 L217.39 392.08 L215.82 394.72 L211.15 396.27 L209.58 398.97 L211.31 402.80 L210.58 405.77 L206.97 407.82 L207.77 411.27 L208.50 414.67 L208.86 417.93 L204.21 419.80 L204.90 423.14 L205.06 426.33 L200.87 428.45 L200.08 431.43 L201.31 434.84 L199.19 437.53 L203.09 441.43 L205.04 444.87 L201.96 447.37 L202.03 450.45 L201.49 453.42 L199.56 456.20 L196.25 458.81 L201.40 462.55 L202.40 465.69 L201.11 468.57 L202.26 471.70 L202.48 474.72 L200.88 477.59 L197.80 480.40 L198.86 483.49 L202.08 486.65 L201.57 489.62 L200.49 492.58 L205.25 495.64 L209.98 498.61 L207.56 501.53 L206.61 504.47 L210.61 507.30 L206.24 510.35 L200.67 513.55 L201.41 516.51 L200.70 519.55 L199.19 522.67 L205.95 525.12 L205.95 528.08 L204.25 531.24 L206.97 533.91 L205.91 537.02 L202.91 540.42 L202.83 543.46 L208.78 545.57 L209.70 548.41 L209.64 551.40 L213.43 553.69 L214.29 556.50 L213.87 559.56 L211.74 563.02 L213.86 565.56 L217.04 567.81 L214.40 571.47 L215.28 574.29 L220.29 575.98 L224.32 577.85 L221.27 581.73 L222.90 584.27 L227.62 585.82 L222.17 590.60 L219.21 594.68 L221.99 596.85 L221.97 599.99 L222.50 602.94 L230.89 602.90 L229.75 606.45 L228.94 609.91 L233.58 611.14 L233.60 614.27 L231.11 618.54 L233.75 620.57 L241.48 620.20 L241.20 623.49 L241.66 626.46 L244.77 628.12 L245.91 630.74 L244.14 634.91 L242.84 638.89 L246.46 640.24 L250.41 641.33 L247.92 646.08 L250.69 647.83 L257.73 646.95 L261.15 648.16 L257.88 653.57 L262.53 653.96 L265.78 655.21 L262.12 661.08 L261.72 664.85 L264.92 666.14 L265.95 668.95 L267.52 671.37 L273.86 670.21 L272.60 674.75 L273.44 677.74 L276.69 678.82 L276.65 682.55 L276.99 686.03 L280.64 686.73 L285.58 686.26 L286.40 689.33 L288.59 691.20 L290.87 692.96 L292.97 694.89 L293.60 698.24 L294.86 701.00 L299.48 700.45 L302.03 701.90 L302.28 705.72 L306.05 705.88 L309.33 706.50 L311.14 708.68 L311.42 712.61 L314.11 713.85 L316.11 715.87 L315.48 721.05 L317.29 723.38 L320.08 724.52 L320.87 728.17 L326.79 725.23 L330.08 725.59 L330.43 729.87 L333.94 729.88 L336.78 730.78 L337.75 734.34 L338.22 738.73 L344.36 734.70 L348.66 733.23 L350.29 735.86 L354.20 734.85 L357.79 734.28 L359.77 736.31 L360.43 740.64 L363.87 740.22 L368.18 738.13 L371.37 737.95 L372.31 741.96 L375.50 741.74 L378.41 742.01 L378.09 748.82 L379.41 752.49 L381.75 754.09 L383.77 756.42 L386.23 757.83 L388.98 758.56 L391.44 759.97 L394.09 760.94 L397.03 761.16 L400.07 761.07 L402.25 763.22 L405.09 763.62 L408.74 761.68 L411.01 763.62 L413.11 766.13 L415.76 767.04 L418.77 766.77 L421.39 767.74 L423.89 769.15 L427.39 766.93 L429.85 768.48 L432.76 768.29 L435.58 768.38 L438.11 769.70 L441.19 768.55 L443.92 768.95 L446.64 769.33 L449.67 768.09 L452.12 769.92 L454.88 770.02 L457.81 768.97 L460.23 771.28 L462.91 771.89 L465.86 770.46 L468.51 771.24 L471.10 772.74 L474.02 770.98 L476.74 771.12 L479.27 773.78 L482.12 772.29 L484.84 772.53 L487.48 774.49 L490.23 774.54 L492.98 774.48 L495.76 772.41 L498.47 774.04 L501.21 773.83 L503.89 769.31 L506.58 769.32 L509.29 769.63 L511.89 767.39 L514.58 767.54 L517.24 767.23 L519.94 767.46 L522.70 768.26 L525.26 766.67 L528.05 767.65 L531.02 769.87 L533.52 767.99 L536.51 769.95 L539.15 769.15 L541.81 768.60 L544.56 768.56 L547.08 767.15 L549.59 765.83 L552.08 764.47 L554.58 763.27 L556.70 760.35 L559.12 759.00 L562.07 759.89 L564.87 760.11 L567.50 759.54 L570.01 758.56 L572.80 758.58 L574.98 756.48 L576.75 753.11 L579.16 751.96 L582.08 752.39 L583.67 748.79 L585.44 745.89 L588.37 746.34 L590.41 744.31 L592.04 741.28 L595.08 741.97 L598.79 744.19 L601.14 743.00 L603.92 742.79 L607.12 743.52 L609.25 741.75 L611.12 739.49 L613.23 737.78 L615.52 736.47 L617.32 734.18 L620.64 734.92 L623.10 733.92 L625.55 732.90 L628.11 732.06 L630.58 731.04 L632.50 729.07 L633.85 726.14 L636.90 726.10 L638.69 723.98 L640.61 722.09 L643.12 721.13 L645.14 719.41 L646.95 717.39 L648.03 714.34 L650.86 713.83 L653.06 712.40 L654.48 709.91 L657.23 709.24 L659.03 707.28 L659.72 703.93 L660.25 700.44 L660.82 697.08 L660.78 693.06 L660.92 689.35 L662.90 687.83 L664.79 686.22 L667.02 684.98 L669.87 684.39 L673.77 684.89 L675.73 683.26 L678.78 682.75 L681.88 682.23 L684.78 681.47 L686.87 679.89 L688.99 678.32 L690.51 676.19 L691.62 673.69 L692.39 670.92 L693.37 668.36 L693.77 665.33 L693.75 662.00 L693.41 658.45 L692.16 654.24 L695.67 653.87 L697.29 651.98 L698.63 649.86 L703.54 650.40 L706.78 649.62 L708.68 647.84 L710.17 645.76 L711.93 643.86 L712.67 641.28 L713.62 638.85 L714.58 636.44 L714.91 633.66 L715.39 630.98 L715.96 628.39 L717.14 626.17 L716.78 623.08 L717.49 620.62 L717.04 617.55 L716.38 614.41 L716.04 611.48 L716.56 609.02 L718.01 607.03 L717.79 604.23 L718.87 602.07 L719.75 599.82 L719.70 597.16 L719.24 594.34 L719.64 591.92 L724.21 591.21 L726.71 589.60 L730.00 588.25 L734.70 587.37 L737.86 585.85 L739.14 583.62 L740.73 581.48 L740.26 578.65 L739.19 575.66 L739.28 573.07 L738.35 570.19 L737.49 567.36 L737.31 564.75 L738.59 562.55 L739.20 560.15 L739.05 557.58 L740.53 555.40 L740.56 552.88 L739.99 550.24 L739.73 547.69 L740.39 545.33 L740.22 542.81 L739.14 540.16 L739.32 537.73 L738.52 535.16 L737.29 532.56 L736.46 530.04 L737.13 527.72 L738.35 525.45 L738.47 523.05 L740.46 520.82 L741.48 518.48 L741.69 516.06 L741.65 513.64 L742.48 511.25 L742.00 508.81 L741.26 506.36 L742.21 503.97 L741.55 501.54 L740.91 499.13 L740.27 496.73 L740.58 494.31 L739.58 491.94 L737.91 489.61 L737.64 487.24 L735.98 484.96 L734.21 482.72 L732.63 480.50 L733.26 478.10 L731.38 475.94 L728.74 473.90 L729.18 471.52 L727.49 469.42 L725.47 467.39 L723.95 465.32 L725.76 462.73 L728.30 459.96 L728.79 457.51 L732.39 454.43 L734.85 451.50 L735.58 448.89 L735.32 446.48 L735.41 443.98 L733.97 441.84 L731.92 439.88 L731.48 437.52 L729.59 435.56 L727.64 433.65 L725.72 431.75 L725.28 429.42 L722.80 427.74 L719.65 426.33 L719.08 424.07 L716.13 422.66 L712.97 421.38 L713.01 418.94 L713.52 416.29 L711.08 414.80 L710.72 412.49 L711.82 409.54 L712.03 406.93 L711.40 404.67 L709.42 403.03 L712.12 399.20 L712.06 396.61 L709.27 395.37 L709.60 392.57 L708.92 390.27 L707.18 388.53 L705.17 386.95 L703.61 385.14 L700.43 384.27 L697.71 383.19 L694.77 382.29 L691.47 381.65 L688.27 381.01 L685.77 379.97 L685.96 377.20 L683.22 376.36 L680.80 375.34 L680.15 373.12 L677.25 372.49 L674.12 372.08 L671.73 371.17 L672.27 368.05 L669.46 367.49 L668.28 365.68 L669.05 362.27 L670.30 358.40 L668.04 357.42 L669.00 353.67 L670.75 349.14 L668.28 348.30 L665.89 347.42 L663.60 346.48 L660.26 346.57 L657.08 346.58 L655.03 345.52 L653.79 343.66 L650.29 344.13 L648.44 342.93 L646.17 342.21 L642.91 342.60 L639.68 343.03 L638.27 341.44 L637.88 338.66 L634.65 339.22 L633.31 337.54 L631.35 336.62 L628.34 337.05 L625.24 337.68 L624.74 334.94 L624.00 332.47 L620.92 333.16 L620.59 330.07 L620.62 326.37 L619.22 324.68 L617.17 323.93 L618.07 318.67 L617.16 316.08 L615.08 315.28 L613.59 313.55 L611.98 311.98 L609.86 311.27 L607.94 310.24 L606.92 307.58 L605.13 306.26 L602.19 307.11 L600.53 305.56 L597.69 306.32 L594.44 308.01 L591.32 309.57 L589.25 309.02 L586.96 308.96 L583.83 310.84 L581.79 310.34 L579.43 310.65 L576.59 312.17 L574.10 312.94 L573.04 310.10 L570.82 310.23 L568.05 311.91 L566.82 309.38 L564.56 309.75 L561.77 311.81 L559.82 311.41 L559.27 306.46 L558.45 302.07 L556.85 300.18 L556.16 294.81 L554.66 292.17 L552.52 291.87 L550.21 292.29 L548.17 291.63 L545.78 292.54 L543.30 294.01 L541.14 294.08 L538.72 295.57 L536.33 297.08 L534.22 297.18 L532.52 294.81 L530.92 291.43 L529.10 289.18 L527.51 284.83 L525.73 281.44 L523.66 280.08 L521.48 279.63 L519.29 279.26 L517.04 279.61 L514.72 281.23 L512.31 284.83 L509.87 290.81 L507.72 292.36 L505.61 293.39 L503.51 295.46 L501.48 293.93 L499.41 292.06 L497.31 290.59 L495.24 291.59 L493.28 295.30 L491.23 295.43 L489.25 296.71 L487.36 299.11 L485.24 297.64 L483.08 296.15 L481.15 297.57 L479.26 299.02 L477.02 297.17 L475.04 297.80 L473.22 299.55 L471.38 301.00 L469.29 300.63 L467.41 301.66 L465.75 303.81 L463.80 304.24 L461.95 305.12 L459.96 305.32 L458.15 306.35 L456.23 306.82 L454.30 307.28 L452.56 308.48 L450.73 309.30 L447.76 305.84 L445.21 304.19 L443.86 306.84 L441.44 305.78 L439.47 306.28 L438.97 311.33 L437.93 314.45 L436.56 316.50 L434.82 317.39 L432.84 317.62 L430.97 318.17 L429.50 319.74 L427.77 320.65 L425.90 321.18 L424.64 323.15 L423.19 324.64 L421.48 325.50 L419.46 325.70 L417.61 326.28 L416.28 327.93 L414.40 328.45 L412.20 328.36 L410.79 329.82 L409.60 331.66 L407.02 330.95 L406.02 333.10 L404.51 334.31 L402.07 333.94 L398.81 332.26 L396.52 332.29 L395.30 334.04 L393.05 334.17 L391.72 335.75 L391.83 339.43 L391.23 341.98 L390.38 344.11 L388.30 344.48 L386.89 345.79 L385.52 347.15 L383.93 348.21 L382.38 349.34 L380.57 350.13 L379.25 351.55 L378.23 353.30 L376.83 354.61 L375.40 355.87 L374.89 358.17 L373.41 359.35 L372.21 360.84 L371.89 363.26 L370.83 364.86 L369.94 366.63 L368.78 368.11 L367.68 369.63 L365.99 370.58 L363.28 370.59 L360.13 370.23 L358.34 371.18 L357.05 372.59 L354.81 373.18 L354.98 375.87 L356.25 379.42 L356.19 381.80 L356.21 384.21 L356.15 386.51 L355.31 388.18 L354.44 389.81 L354.02 391.77 L352.50 392.92 L350.78 393.93 L349.42 395.21 L349.73 397.64 L348.15 398.77 L345.73 399.38 L345.53 401.44 L345.32 403.46 L344.56 405.14 L343.30 406.50 L342.68 408.25 L343.14 410.61 L339.18 410.47 L336.15 410.92 L332.83 411.27 L327.82 410.81 L325.32 411.72 L322.45 412.48 L322.32 414.62 L320.72 416.04 L321.11 418.40 L320.34 420.21 L318.22 421.43 L318.49 423.70 L317.45 425.40 L316.02 426.95 L320.28 430.71 L321.06 433.06 L318.97 434.34 L320.56 436.93 L321.11 439.13 L317.65 439.98 L314.91 441.13 L318.34 444.21 L318.02 446.10 L314.71 447.13 L316.02 449.48 L316.49 451.58 L313.35 452.75 L310.08 453.93 L312.71 456.55 L312.46 458.46 L310.03 459.91 L311.19 462.13 L312.33 464.30 L311.87 466.16 L311.35 468.01 L312.22 470.09 L314.41 472.34 L312.82 474.01 L311.14 475.70 L313.29 477.87 L311.79 479.60 L310.16 481.34 L315.21 483.70 L314.42 485.50 L312.00 487.20 L314.99 489.26 L314.07 491.08 L310.37 492.80 L309.35 494.67 L314.44 496.67 L313.42 498.51 L313.08 500.38 L315.61 502.22 L315.96 504.06 L312.56 506.01 L311.15 507.94 L315.26 509.62 L314.31 511.53 L313.31 513.47 L314.71 515.24 L315.71 517.01 L315.74 518.87 L314.87 520.83 L315.05 522.68 L316.25 524.40 L313.93 526.61 L313.83 528.52 L314.82 530.27 L313.68 532.37 L315.09 534.04 L321.30 534.75 L320.40 536.79 L319.84 538.78 L323.22 539.91 L323.15 541.79 L320.46 544.32 L321.61 545.94 L327.33 546.31 L326.76 548.32 L327.16 550.08 L330.74 550.89 L331.16 552.60 L327.33 555.70 L326.88 557.76 L330.40 558.48 L327.85 561.29 L326.58 563.71 L328.94 564.79 L330.18 566.26 L330.71 568.02 L330.57 570.05 L332.44 571.25 L334.74 572.23 L333.25 574.88 L334.83 576.16 L336.50 577.38 L336.52 579.38 L339.31 580.02 L344.98 579.14 L344.18 581.52 L344.83 583.17 L347.10 583.93 L346.77 586.12 L344.52 589.45 L346.67 590.26 L350.24 590.18 L348.92 593.05 L350.22 594.33 L352.38 595.04 L353.25 596.57 L352.13 599.44 L353.87 600.41 L356.58 600.68 L356.63 602.79 L357.17 604.59 L359.25 605.24 L360.13 606.78 L362.10 607.47 L362.75 609.19 L364.93 609.68 L366.80 610.39 L366.19 613.18 L367.62 614.25 L368.78 615.56 L368.53 618.13 L372.45 616.94 L375.06 616.87 L373.80 620.44 L376.73 620.02 L378.24 620.94 L377.83 623.80 L377.70 626.44 L381.94 624.52 L383.85 624.99 L383.86 627.51 L386.76 626.85 L388.87 627.02 L389.17 629.27 L388.84 632.31 L391.75 631.49 L393.19 632.41 L393.61 634.63 L395.35 635.18 L397.09 635.72 L398.47 636.72 L399.38 638.37 L401.01 639.02 L403.13 638.97 L403.87 640.89 L403.94 643.85 L406.22 643.52 L407.36 644.93 L407.93 647.25 L412.41 643.26 L414.41 643.19 L414.81 645.82 L417.74 644.08 L419.61 644.14 L419.84 647.16 L420.57 649.37 L424.44 645.58 L426.21 645.72 L427.32 647.15 L429.49 646.43 L430.89 647.27 L431.11 650.70 L431.35 654.23 L433.95 652.49 L435.28 653.62 L436.05 656.13 L438.05 655.67 L440.21 654.72 L441.42 656.21 L442.92 656.97 L444.61 657.21 L446.60 656.53 L447.69 658.50 L449.20 659.27 L451.50 657.47 L452.97 658.31 L454.57 658.73 L457.66 653.74 L458.93 655.16 L460.05 657.27 L462.06 655.87 L463.29 657.66 L464.09 661.50 L465.59 662.45 L468.42 656.78 L469.54 659.44 L471.00 660.51 L473.23 657.14 L474.70 658.04 L475.66 662.43 L477.28 662.70 L479.39 659.18 L480.74 661.42 L482.27 662.36 L484.10 660.50 L485.81 659.49 L487.40 659.71 L488.97 660.15 L490.64 659.12 L492.32 657.39 L493.79 660.04 L495.38 660.71 L497.00 659.82 L498.58 661.72 L500.20 660.84 L501.74 654.46 L503.35 657.87 L504.94 658.19 L506.42 655.62 L508.07 657.29 L509.84 660.48 L511.36 659.17 L512.59 654.61 L514.30 656.30 L515.77 655.21 L517.00 652.16 L518.51 651.89 L520.21 653.12 L521.79 653.28 L523.05 651.24 L524.26 649.13 L526.04 650.58 L527.26 648.78 L528.46 646.99 L529.95 646.82 L531.48 646.81 L532.54 644.66 L533.39 641.81 L535.05 642.47 L535.90 639.89 L536.35 635.95 L537.74 635.69 L539.27 635.94 L539.87 633.00 L541.06 632.16 L543.35 634.75 L544.19 632.78 L544.63 629.77 L546.14 629.93 L548.11 631.28 L548.61 628.65 L549.37 626.81 L551.68 628.94 L552.62 627.57 L553.62 626.38 L557.22 631.20 L559.12 631.95 L560.62 631.74 L563.30 634.04 L564.94 634.00 L564.87 630.52 L565.58 628.70 L567.10 628.51 L567.68 626.50 L567.33 622.88 L568.12 621.43 L569.66 621.31 L569.12 617.64 L568.63 614.18 L570.95 615.40 L572.04 614.60 L572.09 612.17 L573.53 611.93 L575.67 612.72 L575.28 609.75 L575.38 607.57 L577.82 608.72 L578.49 607.37 L578.24 604.81 L579.69 604.55 L581.94 605.31 L581.99 603.23 L583.27 602.71 L588.39 606.83 L589.43 605.90 L591.08 605.70 L594.07 606.98 L595.67 606.64 L595.42 604.24 L595.37 602.12 L597.29 602.11 L597.55 600.35 L596.58 597.39 L597.91 596.78 L598.61 595.54 L596.79 591.91 L596.49 589.81 L598.46 589.83 L597.65 587.31 L596.43 584.50 L597.63 583.84 L600.00 584.15 L598.90 581.55 L598.20 579.34 L601.53 580.36 L601.61 578.78 L600.12 576.04 L601.53 575.52 L603.66 575.51 L602.07 572.80 L605.01 573.32 L609.99 575.17 L609.55 573.28 L612.63 573.72 L616.14 574.37 L616.59 573.02 L616.11 571.11 L616.06 569.50 L617.42 568.73 L616.13 566.42 L614.36 563.90 L614.44 562.45 L614.73 561.13 L612.05 558.27 L610.86 556.25 L612.71 555.78 L611.40 553.75 L609.13 551.32 L612.21 551.40 L613.15 550.47 L611.14 548.25 L611.86 547.24 L614.93 547.18 L614.09 545.51 L612.75 543.67 L615.44 543.39 L616.52 542.48 L614.92 540.59 L614.79 539.26 L616.65 538.60 L614.05 536.48 L610.08 534.00 L611.41 533.19 L608.31 531.09 L605.14 529.05 L604.11 527.65 L603.39 526.35 L602.97 525.15 L602.58 523.97 L601.99 522.76 L601.87 521.67 L601.52 520.53 L601.27 519.43 L601.10 518.35 L600.90 517.27 L600.79 516.22 L600.59 515.16 L600.42 514.11 L600.32 513.07 L600.13 512.03 L599.98 511.00 L599.84 509.97 L599.71 508.95 L599.54 507.94 L599.32 506.92 L599.16 505.91 L598.98 504.91 L598.77 503.91 L598.58 502.91 L598.42 501.92 L598.25 500.94 Z"/>
  <svg class="pausebutton" id="pausebutton">
    <circle cx="500" cy="500" id="pausestart" class="pausestart" r="52.65"/>
    <rect height="50.02" width="10.00" y="473.68" rx="2.00" ry="2.00" x="479.99" class="pausesymbol"/>
    <rect height="50.02" width="10.00" y="473.68" rx="2.00" ry="2.00" x="510.00" class="pausesymbol"/>
    <polygon points="530.01,500 479.99,530.01 479.99,469.99" class="playsymbol"/>
  </svg>
  <polygon id="playback-head" class="playback-head" points="941.65,500 921.65,540 961.65,540"/>
</svg>