<?xml-stylesheet href="../../style/waveformjs.css" type="text/css"?>
<svg xmlns="http://www.w3.org/2000/svg" xmlns:xlink="http://www.w3.org/1999/xlink" width="100%" height="100%" viewBox="0 0 1000 1000">
  <path class="svg-wave" id="sp" d="M598.05 500.00 L598.22 500.98 L598.39 501.97 L598.55 502.96 L598.70 503.95 L598.83 504.95 L598.96 505.94 L599.08 506.95 L599.19 507.95 L599.28 508.96 L599.37 509.97 L599.45 510.98 L599.51 512.00 L599.57 513.02 L599.61 514.04 L599.64 515.06 L599.66 516.08 L599.67 517.11 L599.67 518.14 L599.65 519.17 L599.63 520.20 L599.60 521.23 L599.55 522.26 L599.50 523.30 L599.43 524.33 L599.36 525.37 L599.27 526.41 L599.17 527.45 L599.06 528.49 L598.93 529.52 L598.79 530.56 L598.64 531.60 L598.48 532.64 L598.31 533.67 L598.13 534.71 L597.93 535.75 L597.73 536.79 L597.52 537.82 L597.29 538.86 L597.06 539.90 L596.82 540.94 L596.57 541.97 L596.30 543.00 L596.00 544.03 L595.69 545.05 L595.38 546.08 L595.06 547.10 L594.71 548.11 L594.36 549.12 L593.98 550.13 L593.62 551.14 L593.21 552.14 L592.80 553.13 L592.43 554.16 L591.99 555.14 L591.58 556.15 L591.19 557.17 L590.73 558.15 L590.23 559.12 L589.78 560.12 L589.36 561.14 L588.83 562.08 L588.28 563.03 L587.84 564.05 L587.31 565.00 L586.67 565.89 L586.09 566.81 L585.66 567.86 L585.07 568.79 L584.50 569.74 L583.95 570.71 L583.28 571.58 L582.75 572.58 L582.09 573.47 L581.37 574.30 L580.74 575.22 L580.03 576.07 L579.40 576.99 L578.67 577.83 L577.95 578.67 L577.18 579.47 L576.44 580.30 L575.76 581.19 L574.91 581.91 L574.13 582.70 L573.21 583.34 L572.58 584.31 L571.74 585.04 L570.85 585.71 L570.23 586.71 L569.27 587.29 L568.34 587.91 L567.30 588.39 L566.46 589.12 L565.50 589.69 L564.35 589.99 L563.73 591.03 L562.69 591.47 L561.66 591.93 L560.60 592.33 L559.38 592.48 L558.41 593.00 L556.93 592.69 L555.77 592.87 L554.43 592.74 L552.83 592.09 L550.96 590.94 L548.64 588.86 L547.09 588.12 L544.90 586.07 L543.34 585.15 L542.79 586.19 L542.40 587.60 L541.63 588.24 L541.98 591.33 L543.08 596.27 L542.65 597.92 L541.70 598.41 L541.36 600.40 L541.13 602.75 L539.72 602.17 L537.32 598.90 L536.62 600.08 L535.97 601.42 L534.18 599.52 L532.75 598.57 L531.24 597.24 L530.01 596.74 L528.84 596.36 L527.44 595.13 L526.13 594.12 L525.52 595.63 L525.30 598.76 L524.56 600.03 L523.94 601.86 L523.18 603.27 L522.83 606.68 L521.99 608.05 L520.74 607.37 L519.56 607.00 L518.38 606.55 L517.23 606.20 L516.04 605.53 L515.13 606.76 L514.54 610.56 L513.27 609.33 L512.15 609.24 L511.52 613.95 L510.50 615.32 L509.03 611.53 L508.00 612.75 L507.11 616.83 L505.85 614.97 L504.62 613.29 L503.56 615.59 L502.38 614.57 L501.20 610.86 L500.09 612.62 L498.97 611.98 L497.90 609.45 L496.75 611.25 L495.61 611.84 L494.42 613.35 L493.20 614.79 L492.15 613.30 L490.71 617.09 L489.64 615.86 L488.72 613.31 L487.60 613.08 L486.42 613.35 L485.35 612.74 L484.05 613.83 L482.48 616.53 L481.52 615.10 L480.48 614.25 L478.72 617.45 L477.53 617.32 L477.11 613.39 L475.69 614.53 L473.62 618.43 L473.27 614.58 L472.53 612.64 L470.66 615.30 L470.00 613.14 L469.75 609.63 L468.48 609.95 L467.50 609.24 L467.24 606.19 L465.77 607.16 L463.85 609.37 L462.12 610.87 L461.03 610.45 L458.92 612.81 L456.79 615.07 L456.50 612.43 L456.52 609.11 L456.26 606.66 L455.27 606.03 L455.67 602.22 L455.02 600.95 L452.77 603.20 L452.02 602.13 L451.55 600.50 L449.27 602.60 L448.43 601.71 L448.77 598.59 L447.94 597.79 L446.52 598.09 L446.04 596.64 L445.99 594.51 L444.78 594.41 L444.09 593.45 L443.87 591.72 L443.45 590.35 L442.70 589.55 L442.03 588.64 L441.47 587.57 L441.16 586.15 L441.06 584.48 L439.94 584.27 L437.68 585.62 L435.07 587.35 L434.32 586.54 L431.25 588.73 L428.20 590.78 L427.32 590.03 L426.80 588.84 L424.93 589.28 L421.30 591.71 L421.78 589.33 L421.77 587.56 L419.60 588.19 L418.93 587.17 L420.53 583.74 L419.93 582.71 L417.89 583.13 L417.76 581.62 L417.92 579.85 L416.66 579.46 L416.80 577.76 L417.55 575.52 L417.34 574.21 L416.92 573.10 L417.35 571.27 L416.74 570.35 L416.26 569.34 L417.18 567.20 L416.53 566.34 L413.43 567.41 L408.90 569.48 L405.55 570.55 L403.59 570.53 L397.58 573.36 L396.93 572.28 L399.03 569.31 L398.39 568.27 L394.29 569.50 L394.10 568.12 L393.99 566.70 L391.62 566.68 L389.46 566.50 L392.24 563.37 L392.94 561.52 L389.27 562.17 L390.56 560.02 L392.38 557.62 L391.17 556.88 L390.71 555.74 L392.44 553.51 L393.58 551.61 L392.92 550.62 L393.66 548.97 L394.58 547.28 L395.86 545.46 L396.21 544.08 L396.44 542.76 L394.44 542.36 L387.90 543.68 L385.29 543.39 L382.26 543.19 L376.25 544.00 L376.18 542.63 L378.28 540.55 L378.81 539.03 L375.37 538.77 L375.52 537.36 L375.93 535.89 L374.35 534.99 L372.62 534.10 L376.15 531.83 L376.25 530.49 L372.50 530.07 L372.30 528.77 L374.04 527.06 L372.65 526.03 L372.87 524.66 L374.79 522.99 L376.83 521.34 L376.52 520.13 L377.65 518.69 L378.43 517.33 L376.19 516.39 L369.40 515.96 L367.25 514.88 L363.51 513.91 L357.12 513.12 L355.18 511.84 L357.22 510.24 L358.91 508.70 L357.84 507.34 L359.52 505.85 L361.85 504.37 L360.12 503.02 L360.12 501.62 L362.32 500.22 L363.79 498.85 L363.49 497.49 L365.51 496.18 L366.99 494.89 L367.41 493.58 L369.61 492.38 L370.61 491.13 L372.06 489.95 L373.13 488.75 L374.38 487.60 L375.82 486.49 L376.56 485.32 L377.39 484.17 L377.78 482.98 L376.36 481.52 L372.96 479.71 L372.91 478.39 L370.11 476.58 L362.63 473.81 L361.13 472.08 L361.66 470.74 L358.26 468.54 L355.78 466.48 L356.86 465.21 L358.83 464.19 L357.07 462.22 L358.33 461.03 L360.37 460.09 L362.61 459.24 L363.59 458.04 L366.11 457.35 L368.60 456.69 L368.78 455.29 L371.79 454.88 L374.78 454.52 L376.33 453.67 L377.35 452.65 L380.18 452.36 L381.08 451.34 L381.16 449.98 L383.86 449.74 L384.16 448.49 L382.84 446.49 L379.83 443.66 L379.46 442.01 L376.14 438.88 L373.13 435.81 L373.19 434.24 L374.50 433.32 L376.45 432.76 L376.39 431.12 L377.03 429.85 L378.48 429.06 L378.72 427.57 L380.12 426.76 L381.63 426.05 L382.14 424.72 L381.29 422.49 L381.82 421.14 L381.29 419.06 L380.13 416.51 L382.14 416.14 L383.36 415.24 L385.84 415.28 L387.34 414.64 L388.81 413.99 L391.57 414.38 L393.00 413.75 L394.28 413.03 L396.15 412.81 L396.49 411.32 L394.20 407.51 L393.35 404.86 L391.73 401.46 L390.00 397.85 L390.30 396.07 L392.24 395.84 L394.77 396.23 L397.20 396.58 L398.65 395.98 L400.26 395.56 L401.58 394.85 L402.83 394.09 L404.02 393.26 L404.76 391.93 L405.03 390.04 L405.36 388.18 L405.30 385.82 L404.48 382.45 L406.35 382.37 L408.45 382.62 L409.85 382.01 L411.38 381.57 L413.38 381.79 L415.11 381.70 L416.09 380.56 L416.75 378.94 L419.70 380.68 L421.45 380.73 L421.24 377.77 L421.01 374.68 L421.88 373.26 L423.36 372.84 L420.74 365.46 L420.56 362.02 L423.60 364.18 L424.03 361.72 L425.65 361.41 L427.16 360.89 L427.98 359.06 L431.17 361.91 L433.19 362.54 L433.59 359.81 L434.82 358.76 L436.70 359.16 L438.67 359.80 L438.99 356.66 L439.43 353.65 L442.44 356.87 L443.96 356.52 L445.03 355.00 L447.16 356.32 L449.49 358.29 L451.21 358.65 L452.99 359.26 L455.10 360.96 L456.81 361.55 L458.01 360.52 L459.65 360.92 L460.33 357.97 L461.24 355.67 L463.40 358.07 L464.48 356.35 L465.47 354.10 L466.83 353.31 L468.18 352.45 L469.54 351.56 L470.42 348.16 L471.77 346.92 L473.74 349.19 L475.33 349.44 L476.79 348.86 L478.92 352.94 L480.56 354.03 L481.80 352.05 L483.07 350.00 L484.53 349.46 L485.76 346.30 L487.03 342.93 L488.60 342.75 L490.27 344.28 L491.76 342.95 L493.35 343.25 L495.00 345.54 L496.53 344.85 L498.03 341.22 L499.62 340.86 L501.23 337.90 L502.91 334.54 L504.58 334.15 L506.23 334.37 L507.77 336.88 L509.31 338.58 L510.93 338.58 L512.58 338.26 L514.00 340.66 L515.64 340.31 L517.24 340.40 L518.57 342.81 L520.03 343.86 L521.52 344.57 L523.30 343.27 L524.87 343.52 L527.12 339.70 L529.27 336.94 L530.83 337.61 L532.92 335.57 L534.58 335.83 L535.83 337.97 L537.13 339.68 L538.53 340.91 L539.91 342.11 L541.08 344.07 L542.27 345.83 L543.17 348.52 L544.71 348.85 L546.47 348.48 L547.86 349.36 L548.64 352.04 L550.68 350.88 L552.68 349.95 L554.32 350.09 L556.55 348.66 L559.29 346.04 L561.66 344.56 L564.09 343.01 L565.19 344.79 L566.28 346.51 L567.83 347.12 L568.62 349.43 L569.07 352.38 L571.70 350.66 L573.10 351.57 L573.97 353.52 L575.86 353.43 L577.06 354.69 L577.68 356.99 L578.57 358.75 L579.97 359.55 L581.01 360.98 L582.57 361.50 L583.87 362.46 L583.34 366.36 L584.25 367.86 L586.58 367.16 L588.00 367.88 L588.43 370.07 L590.76 369.48 L595.06 366.17 L596.39 367.14 L598.43 367.14 L600.71 366.86 L602.75 366.96 L605.93 365.64 L606.54 367.61 L607.73 368.84 L611.25 367.28 L612.06 368.99 L613.97 369.43 L615.91 369.86 L617.24 370.98 L616.90 373.91 L617.33 375.96 L618.75 376.95 L618.82 379.31 L619.25 381.28 L620.60 382.31 L621.32 383.96 L622.44 385.21 L623.45 386.55 L624.94 387.47 L624.87 389.78 L626.29 390.75 L627.11 392.24 L627.01 394.49 L629.37 394.70 L632.43 394.40 L636.37 393.47 L638.93 393.69 L640.45 394.73 L642.80 395.18 L643.63 396.77 L642.74 399.56 L642.71 401.70 L644.73 402.42 L645.71 403.87 L646.53 405.42 L647.75 406.71 L648.07 408.57 L648.13 410.57 L648.02 412.64 L649.23 413.93 L649.37 415.82 L649.41 417.76 L650.44 419.14 L650.55 421.01 L650.96 422.71 L652.58 423.80 L655.39 424.33 L656.44 425.74 L658.03 426.91 L660.79 427.58 L661.27 429.30 L660.50 431.54 L661.35 433.08 L664.28 433.78 L665.29 435.29 L665.49 437.11 L668.18 438.00 L669.20 439.54 L667.78 441.93 L669.06 443.38 L671.39 444.50 L671.43 446.37 L672.32 447.98 L673.51 449.51 L673.28 451.45 L673.05 453.37 L672.67 455.32 L672.84 457.12 L673.00 458.91 L672.58 460.83 L672.57 462.64 L672.02 464.56 L672.20 466.31 L674.33 467.70 L680.09 468.50 L683.78 469.74 L686.97 471.13 L694.03 472.03 L695.08 473.86 L692.82 476.13 L690.09 478.39 L689.84 480.34 L690.04 482.24 L688.84 484.26 L687.67 486.24 L688.04 488.10 L686.58 490.07 L685.02 492.00 L687.38 493.78 L686.44 495.68 L687.33 497.53 L688.69 499.40 L687.96 501.28 L686.59 503.14 L684.78 504.96 L684.65 506.80 L684.08 508.62 L682.71 510.39 L682.47 512.21 L682.47 514.04 L681.85 515.83 L681.98 517.67 L682.13 519.53 L681.73 521.33 L681.81 523.18 L681.28 524.96 L679.11 526.49 L679.20 528.33 L680.67 530.42 L682.64 532.63 L683.66 534.72 L684.51 536.79 L687.95 539.43 L689.23 541.68 L686.63 543.07 L686.42 544.99 L690.10 547.90 L690.22 549.96 L691.43 552.32 L692.93 554.81 L692.00 556.63 L691.44 558.55 L687.95 559.55 L683.90 560.29 L681.61 561.56 L678.17 562.39 L675.02 563.25 L673.78 564.78 L672.30 566.20 L670.92 567.64 L668.68 568.71 L665.34 569.29 L667.18 572.03 L670.30 575.40 L672.40 578.40 L674.92 581.67 L677.93 585.25 L679.96 588.45 L679.66 590.54 L676.70 591.28 L674.89 592.57 L675.77 595.30 L673.61 596.38 L670.92 597.14 L671.27 599.62 L669.39 600.81 L666.80 601.54 L666.86 603.87 L664.77 604.88 L663.08 606.11 L661.58 607.44 L659.38 608.29 L658.07 609.73 L656.25 610.80 L654.60 611.97 L653.44 613.48 L651.94 614.74 L651.42 616.75 L651.56 619.29 L650.49 620.90 L650.07 623.05 L652.06 627.26 L654.13 631.63 L653.67 633.91 L653.36 636.37 L654.41 640.09 L652.98 641.61 L649.48 641.17 L646.10 640.77 L645.58 643.11 L643.53 643.93 L641.09 644.35 L639.76 645.88 L639.42 648.47 L637.32 649.19 L636.14 650.91 L634.49 652.11 L632.56 652.98 L630.17 653.30 L628.28 654.17 L626.20 654.79 L623.91 655.12 L622.06 655.99 L620.11 656.70 L617.92 657.07 L617.00 659.14 L617.69 663.47 L618.73 668.45 L618.05 671.09 L619.42 676.83 L619.41 680.68 L617.11 681.11 L614.13 680.44 L612.02 681.08 L609.88 681.67 L606.62 680.32 L604.45 680.76 L602.72 681.93 L599.48 680.39 L597.70 681.42 L596.55 683.66 L594.87 684.94 L592.96 685.77 L591.60 687.72 L589.59 688.34 L587.69 689.22 L585.08 688.49 L582.87 688.60 L580.74 688.88 L578.17 688.03 L575.95 687.97 L574.11 688.84 L571.70 688.22 L570.06 689.58 L569.36 693.62 L568.71 698.01 L566.74 698.75 L565.90 702.95 L565.05 707.35 L562.49 706.40 L560.59 707.60 L559.42 711.43 L557.63 713.22 L555.25 712.85 L553.69 715.69 L552.49 720.24 L549.87 718.91 L547.30 717.67 L545.10 718.04 L542.74 717.57 L540.06 715.28 L537.40 712.79 L535.27 713.14 L533.20 713.88 L530.82 712.58 L528.51 711.51 L526.38 711.69 L524.08 710.37 L521.86 709.45 L519.76 709.61 L517.60 709.04 L515.52 709.47 L513.57 711.73 L511.59 714.49 L509.43 714.25 L507.43 718.54 L505.36 723.56 L503.14 724.51 L500.90 724.88 L498.62 728.71 L496.31 730.47 L494.06 728.27 L491.82 727.11 L489.47 728.68 L487.24 727.47 L485.10 725.37 L482.98 723.50 L480.78 722.93 L478.88 719.33 L476.87 717.39 L474.82 716.07 L472.98 713.25 L471.13 710.92 L469.24 709.19 L467.26 708.12 L465.19 707.72 L463.37 705.96 L461.47 704.72 L459.39 704.52 L457.42 703.75 L455.31 703.65 L453.43 702.54 L452.08 699.24 L449.06 702.85 L445.45 708.39 L442.64 710.50 L439.55 713.41 L434.57 722.50 L430.96 726.37 L429.16 724.23 L427.27 722.44 L424.25 724.07 L422.39 722.21 L420.94 719.30 L419.27 717.08 L416.70 717.33 L415.59 713.80 L414.08 711.42 L411.46 711.77 L410.15 708.99 L409.03 705.91 L407.65 703.49 L405.97 701.81 L404.90 698.89 L403.88 695.96 L401.80 695.24 L400.41 693.17 L399.01 691.16 L395.84 692.49 L391.64 695.54 L390.04 693.84 L386.23 695.95 L380.68 700.87 L377.86 701.01 L375.86 699.77 L372.42 700.80 L368.09 703.10 L366.33 701.37 L365.04 698.96 L361.45 699.92 L359.94 697.85 L359.44 694.40 L359.07 690.86 L357.59 688.89 L356.97 685.81 L355.21 684.27 L353.27 682.94 L352.85 679.75 L351.64 677.57 L350.71 675.09 L349.83 672.60 L349.56 669.46 L348.22 667.56 L345.37 667.32 L344.60 664.81 L343.94 662.23 L340.98 662.03 L337.37 662.43 L334.69 661.84 L330.30 662.85 L323.47 666.04 L320.04 665.90 L315.69 666.54 L311.99 666.49 L309.48 665.35 L307.19 663.98 L306.17 661.54 L305.49 658.84 L305.96 655.24 L307.83 650.62 L308.11 647.32 L306.89 645.22 L308.71 640.88 L309.65 637.27 L306.81 636.40 L306.04 634.06 L306.70 630.77 L306.48 628.12 L304.20 626.83 L302.83 624.93 L303.20 621.95 L303.06 619.34 L303.12 616.62 L302.55 614.31 L302.80 611.55 L301.74 609.54 L300.17 607.81 L297.03 606.91 L292.95 606.42 L292.49 604.05 L291.50 601.95 L288.55 600.78 L290.26 597.41 L290.79 594.63 L291.88 591.64 L291.68 589.25 L290.88 587.13 L290.94 584.66 L289.52 582.80 L286.33 581.59 L285.77 579.36 L283.43 577.78 L280.07 576.51 L278.65 574.53 L277.04 572.60 L273.48 571.26 L269.86 569.88 L270.00 567.33 L270.73 564.63 L267.91 562.93 L267.07 560.66 L269.70 557.53 L268.55 555.36 L265.35 553.65 L264.72 551.32 L263.97 549.02 L262.15 546.92 L264.15 544.08 L264.46 541.59 L265.56 538.98 L268.14 536.18 L267.92 533.84 L268.60 531.38 L268.60 529.02 L267.79 526.77 L267.72 524.43 L265.58 522.28 L264.38 520.02 L267.18 517.44 L265.44 515.22 L264.26 512.93 L263.25 510.61 L259.54 508.37 L255.87 506.05 L251.95 503.67 L246.88 501.21 L249.24 498.69 L249.25 496.18 L248.43 493.65 L250.69 491.22 L253.22 488.83 L253.08 486.35 L254.13 483.94 L255.32 481.56 L253.79 478.97 L252.66 476.38 L254.84 474.11 L255.14 471.66 L254.76 469.13 L255.79 466.77 L255.06 464.18 L255.06 461.67 L253.21 458.85 L250.91 455.90 L255.88 454.26 L259.04 452.35 L258.96 449.83 L262.05 447.98 L265.73 446.33 L265.40 443.78 L265.76 441.38 L267.84 439.43 L269.06 437.27 L270.79 435.27 L272.23 433.21 L273.42 431.10 L274.38 428.91 L274.57 426.49 L273.72 423.70 L272.85 420.87 L274.16 418.78 L274.07 416.19 L272.99 413.20 L276.21 411.85 L278.00 409.98 L277.39 407.13 L276.94 404.32 L275.64 401.09 L273.78 397.55 L271.61 393.81 L269.14 389.84 L267.04 385.97 L269.44 384.27 L269.18 381.23 L270.72 379.11 L273.15 377.47 L275.03 375.57 L276.96 373.70 L278.92 371.88 L281.65 370.53 L283.85 368.89 L285.41 366.89 L288.14 365.63 L290.35 364.07 L291.81 362.04 L294.07 360.56 L296.55 359.24 L299.56 358.35 L301.53 356.74 L303.54 355.18 L303.46 352.07 L298.93 345.48 L299.82 342.95 L298.15 338.36 L294.32 331.89 L295.11 329.09 L298.28 328.29 L300.29 326.53 L300.14 322.85 L303.26 322.07 L306.69 321.63 L308.17 319.41 L310.25 317.76 L314.38 318.12 L317.61 317.67 L319.76 316.18 L323.54 316.40 L326.83 316.18 L329.91 315.80 L331.83 314.18 L333.88 312.71 L336.26 311.63 L337.87 309.67 L339.86 308.15 L341.09 305.72 L341.21 301.86 L340.98 297.45 L343.05 295.91 L342.01 290.25 L341.96 285.76 L344.96 285.37 L347.29 284.08 L348.50 281.17 L348.88 276.99 L352.30 277.28 L354.30 275.45 L354.13 270.20 L356.72 269.20 L360.60 270.35 L363.01 269.16 L365.07 267.36 L369.05 268.92 L371.17 267.27 L373.57 266.11 L376.28 265.55 L378.88 264.82 L381.74 264.62 L384.97 265.21 L388.22 265.96 L390.61 264.94 L392.87 263.66 L395.85 263.99 L398.19 262.90 L400.10 260.77 L401.87 258.23 L404.76 258.44 L406.86 256.68 L407.89 251.97 L409.70 249.18 L411.85 247.24 L413.25 243.02 L414.55 238.26 L417.39 238.13 L420.15 237.77 L422.09 234.64 L424.93 234.51 L428.13 235.78 L431.06 236.17 L433.50 234.66 L436.76 236.53 L439.35 235.71 L441.87 234.54 L444.57 234.17 L447.60 235.51 L450.44 236.01 L453.03 235.23 L456.09 237.22 L458.64 236.29 L461.14 234.93 L463.92 235.52 L466.63 235.67 L469.39 236.37 L472.17 237.33 L474.81 237.23 L477.37 236.23 L480.13 237.56 L482.78 237.76 L485.32 236.12 L487.96 235.98 L490.63 236.64 L493.22 235.04 L495.82 231.50 L498.50 231.26 L501.20 229.37 L503.93 227.83 L506.66 227.21 L509.47 225.09 L512.16 226.52 L514.87 227.00 L517.76 224.69 L520.42 226.11 L523.00 228.20 L525.67 229.00 L528.34 229.61 L530.93 230.87 L533.47 232.38 L536.10 233.06 L538.66 234.21 L541.15 235.63 L543.42 238.31 L545.49 241.84 L548.11 242.08 L550.96 241.20 L553.92 239.92 L557.79 234.62 L561.21 231.87 L565.01 227.80 L568.76 224.33 L571.42 225.36 L574.02 226.63 L577.61 224.33 L580.40 224.99 L582.45 228.09 L584.77 230.21 L587.84 229.89 L589.43 234.08 L591.39 236.98 L594.24 237.29 L596.20 240.04 L598.29 242.33 L600.17 245.10 L602.75 246.02 L605.01 247.73 L606.84 250.38 L609.03 252.15 L611.42 253.44 L614.05 254.19 L617.31 253.65 L621.36 251.59 L623.91 252.66 L627.31 252.09 L632.37 248.46 L636.41 246.96 L637.48 250.98 L640.99 250.54 L645.94 247.71 L648.01 249.92 L650.04 252.19 L653.75 251.70 L656.90 252.19 L658.13 255.68 L659.56 258.80 L662.73 259.27 L663.84 262.77 L664.80 266.41 L668.12 266.70 L669.65 269.47 L670.82 272.68 L672.32 275.40 L674.33 277.42 L675.34 280.68 L676.17 284.11 L678.75 285.36 L680.44 287.69 L681.57 290.64 L683.39 292.76 L684.75 295.39 L685.73 298.39 L688.14 299.83 L692.56 299.18 L697.19 298.44 L700.92 298.69 L707.15 296.56 L711.67 296.23 L714.57 297.54 L715.87 300.36 L719.61 300.93 L722.99 301.89 L723.20 305.66 L724.11 308.78 L726.58 310.56 L727.21 313.86 L726.54 318.16 L728.30 320.47 L730.27 322.62 L729.98 326.48 L730.74 329.50 L733.02 331.40 L733.19 334.80 L734.55 337.34 L736.84 339.23 L737.57 342.18 L738.57 344.93 L740.64 346.99 L743.66 348.47 L746.42 350.15 L750.90 350.84 L754.25 352.27 L756.06 354.62 L762.70 354.31 L762.00 358.10 L763.84 360.50 L766.98 362.24 L767.70 365.24 L767.54 368.66 L766.82 372.30 L766.84 375.56 L769.22 377.71 L769.75 380.71 L771.13 383.33 L773.61 385.49 L775.53 387.91 L775.83 390.99 L776.30 393.99 L776.03 397.24 L775.78 400.46 L775.81 403.56 L775.36 406.80 L775.27 409.89 L775.84 412.74 L776.61 415.53 L778.43 418.01 L781.17 420.25 L782.74 422.85 L788.97 424.25 L791.63 426.66 L793.85 429.22 L797.85 431.40 L797.45 434.62 L796.00 438.03 L796.94 440.93 L796.49 444.10 L795.98 447.25 L797.24 450.09 L797.54 453.09 L797.51 456.14 L797.84 459.13 L797.78 462.17 L797.38 465.24 L797.12 468.27 L797.74 471.22 L796.34 474.34 L794.79 477.44 L795.52 480.36 L794.08 483.41 L792.79 486.41 L793.46 489.32 L791.95 492.30 L790.81 495.24 L791.43 498.14 L791.78 501.06 L791.58 503.97 L793.58 506.94 L797.60 510.01 L802.11 513.19 L802.89 516.26 L804.70 519.41 L808.60 522.76 L808.45 525.86 L806.78 528.81 L805.50 531.77 L805.29 534.84 L803.66 537.73 L802.66 540.69 L802.77 543.79 L803.98 547.07 L802.58 549.96 L803.58 553.25 L803.80 556.42 L801.07 559.04 L798.83 561.71 L797.17 564.47 L796.34 567.40 L793.33 569.81 L791.81 572.53 L791.20 575.48 L788.46 577.86 L787.73 580.76 L788.45 584.08 L788.86 587.34 L788.75 590.47 L791.49 594.54 L793.82 598.55 L794.41 602.04 L794.66 605.44 L796.40 609.42 L797.54 613.23 L795.28 615.76 L793.52 618.47 L792.72 621.57 L790.28 623.97 L787.07 626.01 L784.29 628.19 L784.36 631.67 L781.29 633.68 L780.07 636.54 L779.42 639.70 L777.26 642.11 L773.95 643.89 L772.02 646.36 L770.04 648.80 L766.45 650.31 L764.12 652.50 L763.86 655.89 L760.54 657.46 L757.54 659.19 L758.87 663.61 L761.05 668.66 L761.06 672.39 L759.96 675.43 L762.36 680.89 L765.11 686.72 L760.80 687.62 L758.11 689.63 L757.93 693.50 L754.24 694.74 L753.26 698.04 L750.20 699.71 L744.78 699.41 L742.67 701.77 L741.68 705.06 L739.91 707.73 L735.33 707.92 L734.04 710.99 L734.34 715.54 L731.26 717.01 L727.58 717.89 L725.26 720.02 L723.41 722.62 L720.76 724.42 L716.36 724.39 L712.26 724.60 L708.62 725.21 L705.46 726.30 L703.93 729.18 L705.52 735.67 L703.52 738.14 L703.08 742.50 L703.49 747.98 L699.85 748.57 L694.83 747.36 L691.36 748.01 L688.19 749.01 L684.62 749.44 L681.23 750.05 L678.63 751.72 L675.51 752.64 L672.83 754.16 L670.92 756.85 L668.72 759.13 L667.61 763.13 L666.65 767.49 L664.89 770.67 L664.02 775.39 L661.22 776.96 L660.01 781.30 L658.28 784.86 L653.68 783.22 L651.69 786.34 L648.67 787.56 L645.14 787.75 L641.65 787.96 L638.49 788.78 L635.81 790.61 L632.00 789.99 L629.87 793.05 L628.55 798.08 L627.06 802.91 L624.31 804.88 L622.69 809.71 L620.29 812.77 L616.02 810.90 L611.81 809.02 L608.87 810.55 L605.13 809.77 L600.90 807.38 L597.16 806.29 L593.85 806.45 L590.74 807.25 L588.35 810.57 L586.04 814.36 L584.35 820.74 L581.56 823.24 L578.80 826.02 L576.18 829.57 L572.67 829.33 L568.98 828.19 L565.92 829.99 L562.56 830.35 L558.74 828.08 L555.09 826.50 L551.94 827.75 L548.22 825.30 L545.04 826.33 L542.28 830.69 L538.93 830.70 L535.51 830.06 L532.54 833.86 L529.35 835.81 L525.70 832.41 L522.39 832.83 L519.14 834.41 L515.79 834.48 L512.39 833.28 L508.93 828.78 L505.64 828.23 L502.35 827.90 L499.08 826.33 L495.81 826.80 L492.49 828.72 L489.19 829.04 L485.91 828.68 L482.63 828.55 L479.44 826.79 L476.35 824.19 L473.18 823.01 L470.05 821.65 L466.95 820.28 L463.61 821.15 L459.98 824.19 L456.69 824.12 L453.07 826.33 L448.82 832.27 L444.82 835.87 L441.49 835.13 L437.73 836.80 L433.57 840.23 L430.20 839.42 L427.33 836.28 L423.92 835.74 L420.30 836.11 L417.39 833.46 L414.48 831.00 L410.96 830.95 L407.79 829.54 L404.56 828.41 L401.36 827.18 L398.20 825.82 L395.19 824.03 L392.43 821.55 L389.44 819.82 L386.43 818.19 L383.87 815.37 L380.87 813.79 L377.84 812.34 L375.20 809.90 L372.76 807.06 L370.30 804.36 L367.62 802.24 L364.45 801.23 L359.58 803.91 L353.99 807.87 L350.25 807.78 L344.89 810.86 L339.73 813.32 L336.36 812.16 L334.18 808.77 L330.89 807.48 L327.47 806.40 L325.24 803.22 L323.38 799.49 L321.26 796.27 L318.82 793.64 L316.88 790.25 L314.25 788.00 L311.93 785.29 L309.20 783.23 L307.44 779.76 L305.80 776.19 L303.79 773.20 L301.77 770.27 L299.41 767.82 L297.75 764.48 L294.99 762.61 L291.98 761.05 L288.71 759.77 L285.66 758.21 L282.77 756.42 L277.37 757.53 L270.98 759.63 L268.51 757.20 L264.39 756.57 L258.14 758.15 L255.05 756.26 L253.28 753.00 L250.58 750.71 L247.86 748.42 L246.20 745.10 L245.09 741.29 L243.74 737.75 L241.05 735.48 L238.84 732.76 L236.57 730.10 L233.97 727.72 L231.61 725.13 L230.29 721.68 L229.24 718.04 L228.03 714.57 L226.21 711.60 L224.56 708.51 L223.59 704.92 L222.22 701.66 L222.09 697.55 L222.56 693.07 L220.41 690.44 L219.40 687.05 L215.43 685.61 L206.06 687.56 L202.48 685.69 L197.01 684.92 L188.69 685.75 L185.30 683.53 L185.00 679.51 L183.15 676.39 L179.85 674.05 L179.55 670.08 L179.63 665.96 L179.54 661.96 L178.66 658.39 L176.97 655.23 L178.20 650.70 L177.00 647.34 L175.10 644.30 L177.12 639.55 L177.45 635.60 L177.07 631.98 L177.36 628.11 L176.36 624.77 L175.12 621.53 L173.96 618.26 L173.41 614.78 L171.69 611.71 L170.85 608.33 L171.53 604.48 L169.00 601.65 L165.77 599.00 L163.41 596.04 L160.46 593.23 L156.08 590.74 L152.45 587.99 L152.98 584.17 L152.90 580.52 L149.80 577.56 L152.04 573.42 L152.48 569.71 L148.78 566.81 L147.49 563.40 L147.23 559.82 L145.33 556.50 L144.22 553.03 L144.35 549.38 L145.40 545.62 L146.35 541.91 L146.11 538.36 L147.29 534.66 L148.23 531.02 L147.94 527.50 L148.68 523.91 L149.91 520.32 L150.88 516.76 L151.39 513.24 L151.81 509.74 L148.70 506.31 L140.83 502.86 L138.79 499.26 L134.62 495.60 L128.14 491.80 L126.21 488.02 L128.45 484.37 L129.92 480.72 L128.33 476.91 L129.39 473.26 L131.40 469.69 L133.72 466.19 L134.41 462.57 L137.02 459.16 L138.65 455.68 L139.66 452.14 L141.03 448.67 L144.16 445.48 L146.65 442.24 L148.44 438.91 L151.68 435.88 L152.96 432.52 L153.73 429.07 L156.03 425.95 L156.06 422.35 L156.58 418.85 L158.52 415.70 L159.06 412.20 L157.34 408.10 L152.38 403.03 L148.98 398.29 L147.53 394.04 L141.13 388.19 L137.17 382.96 L139.85 379.83 L142.47 376.72 L141.24 372.27 L143.38 369.00 L146.68 366.19 L150.06 363.45 L151.81 360.10 L155.14 357.42 L157.22 354.25 L158.95 350.94 L161.36 347.94 L164.53 345.32 L167.23 342.51 L169.26 339.40 L172.71 337.01 L175.53 334.35 L176.70 330.85 L179.84 328.39 L183.23 326.11 L186.65 323.89 L190.91 322.19 L193.43 319.54 L194.38 315.96 L191.04 309.71 L189.40 304.39 L188.76 299.61 L183.81 291.92 L183.17 286.93 L186.27 284.42 L189.41 281.98 L190.21 277.89 L193.39 275.49 L197.37 273.72 L200.92 271.67 L203.16 268.65 L206.78 266.72 L208.69 263.44 L210.40 259.99 L214.01 258.11 L217.78 256.43 L221.78 254.98 L223.98 251.97 L227.81 250.45 L231.06 248.43 L232.96 245.16 L235.93 242.90 L239.30 241.05 L242.01 238.56 L244.57 235.92 L247.77 233.96 L249.41 230.34 L251.36 227.01 L254.03 224.46 L256.37 221.53 L258.93 218.83 L262.32 217.11 L265.17 214.75 L268.59 213.11 L272.16 211.68 L275.56 210.07 L278.69 208.13 L281.98 206.41 L284.10 203.12 L285.79 199.16 L286.69 193.99 L288.97 190.71 L290.25 185.89 L292.84 182.95 L296.79 182.09 L300.39 180.75 L304.01 179.45 L308.07 178.90 L311.59 177.51 L315.20 176.30 L319.02 175.50 L321.79 172.82 L323.14 167.43 L325.18 163.19 L326.94 158.26 L327.62 150.99 L330.72 148.46 L334.31 146.91 L338.56 146.83 L341.86 144.69 L345.28 142.81 L349.55 142.91 L352.62 140.19 L356.19 138.65 L360.53 139.10 L364.73 139.26 L368.30 137.81 L372.32 137.62 L376.08 136.74 L379.73 135.58 L383.49 134.72 L387.33 134.15 L391.38 134.35 L395.33 134.28 L399.27 134.28 L403.23 134.39 L407.12 134.35 L410.88 133.88 L414.61 133.28 L418.12 131.71 L421.70 130.41 L425.68 131.03 L429.09 128.81 L432.03 123.83 L435.01 118.57 L438.72 117.25 L442.03 113.21 L445.17 107.39 L449.06 106.60 L453.27 108.39 L457.12 107.30 L461.02 106.61 L465.11 107.95 L469.20 109.75 L473.19 110.64 L477.12 111.03 L481.08 112.29 L484.98 112.68 L488.86 112.62 L492.74 113.21 L496.62 114.08 L500.48 115.31 L504.32 115.80 L508.13 117.14 L511.94 117.80 L515.74 118.59 L519.53 119.12 L523.41 118.16 L527.38 116.35 L531.29 115.69 L535.32 113.93 L539.66 109.59 L543.97 106.39 L547.85 107.28 L551.95 106.44 L556.24 104.49 L560.26 104.61 L563.95 106.85 L567.95 107.07 L572.00 107.12 L575.78 108.61 L579.20 111.79 L582.77 113.99 L586.53 115.30 L590.09 117.37 L593.84 118.58 L597.81 118.93 L601.44 120.57 L604.92 122.70 L608.71 123.72 L612.12 125.97 L615.45 128.42 L619.17 129.55 L622.83 130.89 L626.12 133.27 L629.96 134.07 L633.78 134.90 L636.87 137.75 L640.46 139.19 L644.08 140.57 L647.06 143.49 L650.50 145.27 L654.01 146.85 L657.94 147.50 L662.29 147.28 L667.05 146.31 L671.83 145.42 L677.11 143.63 L682.18 142.46 L685.32 145.11 L689.64 145.51 L693.40 147.02 L696.33 150.03 L699.24 153.01 L702.97 154.57 L706.31 156.79 L708.71 160.52 L711.56 163.49 L714.62 166.08 L717.19 169.39 L719.88 172.49 L723.00 174.91 L725.54 178.15 L728.42 180.88 L732.21 182.35 L735.67 184.29 L738.93 186.51 L744.10 186.29 L749.45 185.94 L753.17 187.72 L757.74 188.50 L762.99 188.56 L767.49 189.57 L770.33 192.55 L773.15 195.54 L776.77 197.64 L779.63 200.59 L781.84 204.20 L782.78 209.09 L785.45 212.17 L787.56 215.78 L788.99 220.02 L791.35 223.33 L793.63 226.70 L795.50 230.42 L797.37 234.11 L799.19 237.82 L800.95 241.56 L802.57 245.38 L804.53 248.89 L806.64 252.25 L809.10 255.34 L812.91 257.37 L815.51 260.37 L818.13 263.36 L824.71 263.47 L830.17 264.51 L834.67 266.31 L838.99 268.30 L845.39 268.97 L849.08 271.52 L849.45 276.23 L850.68 280.36 L854.64 282.79 L856.15 286.73 L856.50 291.33 L857.65 295.44 L859.76 298.97 L860.49 303.27 L862.01 307.11 L864.23 310.58 L866.87 313.85 L867.33 318.21 L867.71 322.58 L869.32 326.33 L868.86 331.03 L869.35 335.25 L870.78 339.05 L871.44 343.15 L872.22 347.19 L874.48 350.62 L878.53 353.38 L879.68 357.28 L883.45 360.22 L889.80 362.31 L892.53 365.74 L895.05 369.28 L898.73 372.47 L902.45 375.70 L902.83 379.99 L902.32 384.50 L904.88 388.14 L905.67 392.28 L905.53 396.64 L904.53 401.19 L907.04 404.89 L906.88 409.20 L906.35 413.58 L906.98 417.69 L908.78 421.57 L907.64 426.01 L906.40 430.42 L906.44 434.59 L905.68 438.87 L905.32 443.07 L906.06 447.10 L905.36 451.30 L904.63 455.49 L903.63 459.68 L902.42 463.86 L902.65 467.90 L903.80 471.87 L907.60 475.70 L911.59 479.59 L914.73 483.59 L920.73 487.56 L925.36 491.68 L924.16 495.95 L956.23 500.00 L954.27 495.46 L953.39 490.93 L958.35 486.25 L965.40 481.37 L968.78 476.54 L973.54 471.55 L977.83 466.50 L978.34 461.65 L977.52 456.91 L974.06 452.44 L971.09 447.97 L968.75 443.48 L966.52 439.01 L964.92 434.48 L962.30 430.13 L960.31 425.71 L958.14 421.36 L953.97 417.39 L951.99 413.07 L952.58 408.26 L950.43 403.99 L949.70 399.44 L949.13 394.84 L948.84 390.16 L946.03 386.11 L944.05 381.87 L942.16 377.63 L940.83 373.24 L938.42 369.17 L936.63 364.94 L935.98 360.34 L936.56 355.33 L935.81 350.73 L934.95 346.14 L936.56 340.64 L936.77 335.60 L933.91 331.70 L933.80 326.73 L932.37 322.27 L929.64 318.35 L926.64 314.57 L923.97 310.67 L920.27 307.26 L916.35 303.99 L913.53 300.24 L909.82 296.96 L906.42 293.55 L905.12 289.09 L903.46 284.80 L901.29 280.78 L899.17 276.72 L896.61 272.92 L894.05 269.12 L890.40 265.98 L886.57 262.99 L884.66 258.83 L880.50 256.11 L876.23 253.51 L874.76 249.08 L874.82 243.57 L874.15 238.50 L873.47 233.38 L872.95 228.08 L873.93 221.59 L871.03 217.94 L867.99 214.40 L866.26 209.83 L863.22 206.28 L859.37 203.40 L855.33 200.71 L851.07 198.24 L846.81 195.83 L842.68 193.33 L838.55 190.88 L834.54 188.35 L831.00 185.40 L827.54 182.40 L823.43 180.04 L819.39 177.66 L815.99 174.65 L811.42 172.86 L806.87 171.12 L803.25 168.42 L799.84 165.49 L795.06 164.12 L791.34 161.59 L788.43 158.11 L786.72 153.16 L784.60 148.63 L781.75 144.95 L780.13 139.65 L778.28 134.54 L774.33 132.16 L770.74 129.29 L767.26 126.27 L762.81 124.61 L757.96 123.59 L753.86 121.50 L749.14 120.39 L744.22 119.65 L739.93 117.98 L735.20 117.06 L730.60 115.99 L726.67 113.85 L723.05 111.15 L718.98 109.24 L714.72 107.70 L711.21 104.78 L707.03 103.11 L702.41 102.31 L700.05 97.02 L696.69 93.65 L693.48 89.88 L690.73 84.99 L686.96 82.24 L682.89 80.11 L678.47 78.82 L674.03 77.59 L668.75 78.47 L664.51 76.86 L660.22 75.36 L655.16 75.99 L650.82 74.73 L646.47 73.49 L641.71 73.53 L637.18 72.92 L632.54 72.75 L627.78 73.04 L623.23 72.72 L618.65 72.63 L614.14 72.31 L609.88 71.12 L605.62 69.88 L601.13 69.65 L596.87 68.43 L592.51 67.65 L587.87 68.31 L583.31 68.68 L578.90 68.35 L574.64 67.25 L570.22 67.08 L565.71 67.56 L561.34 67.19 L557.21 65.12 L552.96 63.69 L548.52 63.85 L544.40 60.96 L540.29 57.53 L535.96 55.93 L531.50 55.80 L527.14 54.09 L522.71 53.22 L518.21 53.93 L513.73 54.45 L509.24 55.66 L504.78 57.56 L500.35 58.30 L495.95 59.96 L491.59 62.22 L487.23 62.83 L482.85 62.88 L478.50 63.43 L474.17 64.20 L469.80 64.32 L465.49 65.20 L461.31 67.39 L457.17 69.64 L452.79 69.41 L448.68 71.49 L444.60 73.62 L440.32 74.08 L435.60 71.58 L430.86 69.36 L426.47 69.56 L421.58 67.09 L416.67 64.84 L412.06 64.40 L408.14 67.32 L403.90 68.62 L399.38 68.74 L395.32 70.77 L391.21 72.53 L387.27 74.87 L383.38 77.30 L379.45 79.52 L375.79 82.56 L372.10 85.36 L368.31 87.76 L364.09 88.79 L360.41 91.41 L356.17 92.36 L352.00 93.55 L348.12 95.52 L344.39 97.84 L340.95 100.87 L337.06 102.70 L333.32 104.89 L330.08 108.19 L326.12 109.80 L322.58 112.34 L319.35 115.48 L315.72 117.74 L311.89 119.57 L305.52 116.38 L300.51 116.07 L295.70 116.24 L290.30 115.43 L286.13 116.94 L283.12 120.51 L279.99 123.81 L276.80 126.97 L273.99 130.71 L270.87 133.88 L267.94 137.31 L265.25 141.07 L261.18 142.70 L255.91 142.61 L252.11 144.72 L246.85 144.80 L242.02 145.58 L238.35 148.00 L235.71 151.76 L232.48 154.74 L229.57 158.10 L227.06 161.93 L224.37 165.50 L220.84 168.03 L218.64 172.13 L215.40 174.99 L211.53 177.15 L209.27 181.09 L205.35 183.21 L201.42 185.36 L199.73 189.84 L196.43 192.64 L193.18 195.50 L191.42 199.82 L189.18 203.63 L185.84 206.40 L184.55 211.04 L182.98 215.38 L180.61 218.97 L179.97 224.04 L178.57 228.39 L177.34 232.83 L174.91 236.26 L172.89 240.00 L171.80 244.45 L170.23 248.48 L169.49 253.10 L168.86 257.75 L167.57 261.88 L164.09 264.43 L163.06 268.70 L160.75 272.07 L156.13 273.93 L146.05 272.34 L140.93 274.09 L134.63 275.19 L127.10 275.66 L124.62 279.25 L123.58 283.68 L124.36 289.10 L124.55 294.11 L124.37 298.87 L124.47 303.73 L122.63 307.55 L122.85 312.40 L123.01 317.15 L122.26 321.43 L122.39 326.09 L121.98 330.46 L121.71 334.87 L120.87 338.99 L120.03 343.10 L120.32 347.65 L120.28 352.02 L121.22 356.74 L121.57 361.18 L121.14 365.30 L118.25 368.56 L118.45 372.88 L117.96 376.95 L112.89 379.58 L103.79 381.08 L100.10 384.32 L94.60 387.11 L87.93 389.68 L84.56 393.22 L84.04 397.51 L84.82 402.09 L84.51 406.39 L83.85 410.61 L84.74 415.13 L84.22 419.35 L84.85 423.77 L86.23 428.30 L86.93 432.66 L88.55 437.14 L91.09 441.71 L91.99 446.00 L92.39 450.19 L93.54 454.45 L96.01 458.82 L96.40 462.93 L98.47 467.17 L100.05 471.32 L101.18 475.40 L99.63 479.33 L101.15 483.40 L103.22 487.46 L101.53 491.39 L94.01 495.29 L89.64 499.35 L87.83 503.47 L80.05 507.73 L77.19 512.01 L78.32 516.20 L79.62 520.37 L81.66 524.46 L83.89 528.51 L85.64 532.56 L86.46 536.66 L88.68 540.61 L91.08 544.50 L92.29 548.50 L94.42 552.37 L97.08 556.13 L99.07 559.94 L99.32 564.01 L98.90 568.19 L100.40 572.06 L100.78 576.12 L99.98 580.43 L102.57 584.05 L106.99 587.23 L106.62 591.45 L109.66 594.86 L112.50 598.29 L110.22 603.02 L108.34 607.72 L107.51 612.19 L106.22 616.83 L104.90 621.53 L104.91 625.87 L106.94 629.56 L109.07 633.21 L110.44 637.10 L112.79 640.64 L115.27 644.12 L117.09 647.82 L119.35 651.33 L122.82 654.34 L125.70 657.55 L129.25 660.44 L134.34 662.60 L136.82 665.86 L139.87 668.84 L143.61 671.45 L146.36 674.51 L148.94 677.62 L152.37 680.27 L156.70 682.41 L159.25 685.45 L159.71 689.63 L162.64 692.45 L165.75 695.13 L166.51 699.18 L161.96 706.52 L160.24 712.26 L161.26 716.36 L155.88 724.67 L156.26 729.36 L159.94 731.85 L161.97 735.46 L166.82 737.06 L171.39 738.80 L175.01 741.16 L178.65 743.49 L182.47 745.62 L186.36 747.67 L189.89 749.96 L193.99 751.75 L198.01 753.54 L201.34 755.88 L204.17 758.63 L207.67 760.78 L211.92 762.20 L214.37 765.24 L218.57 766.63 L223.01 767.73 L226.51 769.69 L228.31 773.33 L231.85 775.22 L235.49 776.97 L237.59 780.34 L236.89 786.77 L237.98 791.39 L240.59 794.34 L240.04 800.98 L240.14 807.02 L242.73 810.20 L245.73 812.90 L248.24 816.22 L251.08 819.15 L254.25 821.67 L258.69 822.50 L262.79 823.71 L266.88 824.89 L271.07 825.89 L275.87 825.94 L280.25 826.51 L284.02 827.94 L288.08 828.90 L291.79 830.34 L296.45 830.22 L300.50 831.02 L304.91 831.14 L309.48 830.92 L313.75 831.11 L316.65 833.73 L320.47 834.66 L324.80 834.58 L327.81 836.98 L329.08 842.92 L330.25 849.27 L333.16 852.20 L334.33 858.96 L336.12 864.64 L339.82 866.15 L343.97 866.61 L348.58 865.88 L352.99 865.52 L357.23 865.49 L361.11 866.33 L365.22 866.51 L369.51 866.11 L373.42 866.68 L377.55 866.56 L381.88 865.75 L385.95 865.60 L389.96 865.57 L393.81 865.99 L397.60 866.59 L401.51 866.69 L405.17 867.70 L409.24 867.07 L413.34 866.17 L416.78 868.04 L420.74 867.55 L424.90 866.00 L428.46 867.28 L431.54 871.16 L434.88 874.01 L438.64 874.51 L441.76 879.19 L444.62 886.28 L448.21 888.94 L452.10 889.43 L455.67 892.77 L459.50 894.12 L463.61 892.77 L467.66 891.69 L471.70 890.32 L475.77 887.85 L479.74 886.36 L483.66 885.32 L487.52 885.11 L491.37 885.20 L495.21 886.84 L499.08 886.35 L502.92 884.02 L506.77 884.17 L510.57 882.62 L514.20 877.27 L517.90 875.69 L521.61 874.74 L525.49 876.37 L529.17 875.12 L532.60 871.18 L536.48 872.55 L540.51 875.01 L544.01 872.50 L547.68 871.59 L552.00 875.46 L555.65 874.29 L558.88 870.46 L562.63 870.16 L565.85 866.83 L568.88 862.84 L572.32 861.20 L576.03 860.92 L579.09 857.68 L582.45 855.96 L586.57 857.44 L590.49 857.96 L594.62 859.15 L599.75 863.79 L604.05 865.13 L608.49 866.77 L611.83 864.59 L614.93 861.77 L617.73 858.11 L620.02 853.16 L622.83 849.90 L626.14 848.15 L628.46 843.78 L630.86 839.79 L634.90 840.11 L639.83 842.49 L643.55 841.80 L648.46 843.82 L653.52 846.00 L658.13 846.99 L659.89 841.73 L663.29 840.12 L666.43 837.94 L668.39 833.46 L670.70 829.81 L673.69 827.51 L677.20 826.21 L678.79 821.44 L682.32 820.20 L686.67 820.35 L689.78 818.32 L694.92 819.64 L699.36 819.68 L704.17 820.22 L709.28 821.10 L712.82 819.51 L716.34 817.85 L719.33 815.41 L721.65 812.05 L724.23 809.08 L726.43 805.64 L728.36 801.88 L730.44 798.39 L732.07 794.37 L731.99 788.28 L733.27 784.02 L738.99 785.11 L743.29 784.42 L745.97 781.80 L752.90 783.96 L755.65 781.33 L757.05 777.25 L758.15 772.91 L758.52 767.89 L759.27 763.34 L760.39 759.24 L763.35 757.00 L766.01 754.45 L765.31 748.75 L766.31 744.72 L771.21 744.27 L774.17 742.01 L773.99 737.02 L775.68 733.71 L779.41 732.11 L780.01 727.92 L778.72 722.27 L781.61 720.00 L783.31 716.80 L783.56 712.53 L788.79 711.97 L790.01 708.44 L789.00 703.36 L797.12 704.66 L802.43 703.89 L803.94 700.52 L809.18 699.57 L814.17 698.36 L817.58 696.11 L818.43 692.26 L818.96 688.25 L821.67 685.54 L822.29 681.62 L821.51 676.97 L822.94 673.57 L823.39 669.67 L821.77 664.74 L821.92 660.77 L823.42 657.50 L822.67 653.16 L821.87 648.86 L823.32 645.62 L822.44 641.37 L822.02 637.36 L822.12 633.61 L824.14 630.67 L824.88 627.20 L825.70 623.78 L829.06 621.31 L833.22 619.07 L836.33 616.40 L840.19 613.94 L844.79 611.66 L848.51 609.02 L850.80 605.90 L852.34 602.53 L854.15 599.23 L854.57 595.53 L853.31 591.41 L854.38 587.92 L853.12 583.87 L851.72 579.83 L851.85 576.17 L850.72 572.26 L849.56 568.38 L847.95 564.46 L848.41 560.95 L848.83 557.43 L846.92 553.56 L848.27 550.21 L847.47 546.55 L846.59 542.91 L845.18 539.24 L846.20 535.85 L844.78 532.22 L843.40 528.63 L844.62 525.27 L850.12 522.15 L852.66 518.77 L854.98 515.34 L860.21 511.96 L864.66 508.46 L865.78 504.82 L865.62 501.16 L865.16 497.51 L865.75 493.85 L864.38 490.23 L862.28 486.66 L862.37 483.02 L859.53 479.55 L857.62 476.07 L856.29 472.58 L853.07 469.27 L851.06 465.91 L849.99 462.47 L846.92 459.29 L844.94 456.02 L843.53 452.70 L841.17 449.55 L838.90 446.42 L837.00 443.26 L837.77 439.65 L836.57 436.38 L833.86 433.43 L834.37 429.84 L832.50 426.76 L830.46 423.74 L833.81 419.44 L834.02 415.84 L836.07 411.74 L841.27 406.72 L840.47 403.27 L841.43 399.30 L841.49 395.56 L839.90 392.31 L838.52 389.02 L835.72 386.20 L832.63 383.53 L830.47 380.56 L827.32 377.98 L824.06 375.50 L821.42 372.81 L818.94 370.09 L818.02 366.74 L816.64 363.58 L815.84 360.16 L813.35 357.50 L811.76 354.44 L809.39 351.76 L805.31 349.94 L801.85 347.88 L799.62 345.23 L799.26 341.60 L798.36 338.24 L794.45 336.53 L796.60 331.43 L796.11 327.77 L795.90 323.91 L796.37 319.59 L796.51 315.41 L796.22 311.46 L794.58 308.34 L791.76 305.99 L788.71 303.83 L785.84 301.58 L783.11 299.24 L779.82 297.34 L777.33 294.88 L773.99 293.08 L770.80 291.21 L767.86 289.17 L765.37 286.80 L760.61 286.30 L756.93 284.98 L753.78 283.27 L749.81 282.30 L745.97 281.29 L744.71 277.98 L742.75 275.29 L739.65 273.67 L739.22 269.51 L739.04 265.03 L741.53 257.78 L741.09 253.34 L741.74 247.68 L741.45 242.89 L739.12 240.20 L735.14 239.34 L730.86 238.89 L727.53 237.41 L724.52 235.58 L721.36 233.96 L718.15 232.42 L714.70 231.20 L710.74 230.69 L706.62 230.44 L702.77 229.91 L698.69 229.76 L694.72 229.54 L691.68 228.06 L687.85 227.76 L684.02 227.52 L680.67 226.62 L676.87 226.46 L673.11 226.31 L670.35 224.62 L667.88 222.45 L664.51 221.78 L661.75 220.08 L661.26 214.39 L659.51 210.75 L655.46 211.32 L654.21 206.65 L654.22 199.36 L651.82 196.61 L648.52 195.65 L647.21 190.50 L644.78 187.61 L641.70 186.05 L638.36 185.11 L634.39 185.64 L630.93 185.06 L627.41 184.65 L623.30 185.83 L619.87 185.35 L616.17 185.64 L611.96 187.46 L608.97 185.94 L604.81 187.90 L600.71 189.87 L597.38 189.57 L593.72 190.45 L590.02 191.57 L586.68 191.57 L584.11 188.80 L580.59 189.56 L577.45 188.89 L575.24 184.33 L573.28 178.30 L570.92 173.64 L569.14 165.74 L566.25 162.78 L563.10 160.93 L559.76 159.99 L555.71 163.32 L551.89 165.66 L548.34 166.58 L544.80 167.62 L541.37 168.02 L537.85 169.37 L534.41 170.25 L530.99 171.23 L527.58 172.33 L524.14 174.36 L520.76 175.93 L517.62 174.00 L514.32 174.66 L511.03 175.51 L507.81 174.51 L504.54 175.55 L501.30 172.77 L498.03 172.23 L494.75 172.08 L491.35 167.56 L487.97 166.22 L484.66 166.84 L481.33 167.12 L477.97 166.75 L474.68 167.62 L471.47 169.19 L468.18 169.66 L464.88 169.98 L461.77 172.00 L458.68 173.84 L455.50 174.88 L452.45 176.67 L449.17 176.84 L445.99 177.66 L443.24 180.86 L440.06 181.47 L437.21 183.79 L434.52 186.66 L431.72 188.83 L428.54 189.23 L425.69 191.00 L423.38 194.88 L420.35 195.70 L417.87 198.59 L415.44 201.48 L412.85 203.64 L409.56 203.46 L406.94 205.44 L403.91 206.12 L399.83 203.71 L395.51 200.84 L391.97 200.35 L388.15 199.23 L383.57 196.24 L380.18 196.51 L377.87 199.48 L374.42 199.64 L371.23 200.48 L368.66 202.72 L366.08 204.90 L363.53 207.11 L361.07 209.44 L358.97 212.47 L356.72 215.14 L354.79 218.35 L352.72 221.22 L350.58 223.89 L348.24 226.13 L346.05 228.63 L345.15 233.29 L342.59 235.01 L341.20 238.65 L340.07 242.64 L337.78 244.69 L333.92 244.29 L331.74 246.52 L329.85 249.15 L325.55 248.27 L322.15 248.76 L319.35 250.15 L317.67 253.07 L312.66 251.51 L306.54 248.68 L304.59 251.32 L299.92 250.55 L295.37 250.04 L291.98 251.02 L289.92 253.60 L288.23 256.60 L286.39 259.39 L284.45 262.04 L282.31 264.46 L281.92 268.71 L281.60 272.96 L280.52 276.37 L279.50 279.77 L279.71 284.34 L279.81 288.71 L278.29 291.47 L277.16 294.57 L276.51 298.06 L275.88 301.53 L272.94 302.94 L271.74 305.87 L271.27 309.38 L268.61 311.05 L260.84 308.66 L255.40 308.29 L252.20 309.74 L244.02 307.51 L240.63 308.98 L239.56 312.18 L238.94 315.68 L238.92 319.55 L238.65 323.20 L237.90 326.48 L236.69 329.45 L236.40 332.97 L236.41 336.65 L235.56 339.76 L235.45 343.29 L235.66 346.96 L235.54 350.41 L235.11 353.64 L234.34 356.66 L234.75 360.29 L234.06 363.31 L231.94 365.59 L232.61 369.26 L227.62 370.18 L223.50 371.59 L219.10 372.94 L214.18 374.15 L210.48 375.96 L208.40 378.50 L205.61 380.78 L206.19 384.42 L207.51 388.31 L204.60 390.57 L203.20 393.41 L203.03 396.69 L200.48 399.15 L198.48 401.82 L197.29 404.77 L197.00 408.00 L197.44 411.43 L197.26 414.65 L197.76 418.05 L198.27 421.42 L200.06 425.08 L199.21 428.05 L198.62 431.09 L201.82 434.95 L204.01 438.53 L203.70 441.55 L206.18 445.08 L211.11 448.99 L207.37 451.34 L204.62 453.91 L204.67 456.94 L203.50 459.80 L203.34 462.79 L203.49 465.82 L203.44 468.81 L206.07 472.06 L204.04 474.85 L201.56 477.64 L202.26 480.69 L202.66 483.70 L202.07 486.65 L203.99 489.70 L206.33 492.72 L205.96 495.65 L207.14 498.60 L209.10 501.52 L204.55 504.50 L201.96 507.52 L198.65 510.62 L195.91 513.76 L196.34 516.79 L195.92 519.86 L194.77 523.00 L198.77 525.73 L198.22 528.82 L196.78 532.02 L196.99 535.07 L198.03 538.01 L199.78 540.85 L200.67 543.78 L201.86 546.65 L206.49 548.94 L208.76 551.56 L210.93 554.16 L214.18 556.52 L214.10 559.51 L214.09 562.50 L214.77 565.35 L212.19 568.98 L212.85 571.86 L216.92 573.86 L217.77 576.66 L219.10 579.32 L223.24 581.15 L224.95 583.65 L222.61 587.40 L221.35 590.87 L221.86 593.79 L220.43 597.39 L218.52 601.23 L218.14 604.56 L219.59 607.22 L219.30 610.56 L220.19 613.46 L221.69 616.10 L223.34 618.68 L225.89 620.84 L228.89 622.77 L231.86 624.67 L236.18 625.89 L235.91 629.27 L238.04 631.50 L239.76 633.91 L238.62 637.82 L238.70 641.13 L240.05 643.78 L242.26 645.94 L244.90 647.83 L247.68 649.62 L251.79 650.55 L253.55 652.87 L257.84 653.59 L260.16 655.50 L260.54 658.68 L263.71 660.01 L267.95 660.54 L269.73 662.74 L270.36 665.76 L274.86 665.96 L280.13 665.49 L282.59 667.08 L286.35 667.61 L292.10 666.48 L296.22 666.55 L298.67 667.94 L301.03 669.37 L302.41 671.63 L303.72 673.97 L303.10 678.07 L303.01 681.77 L304.55 684.00 L300.67 691.45 L299.34 696.62 L300.88 699.05 L300.43 703.53 L300.56 707.50 L303.85 708.21 L307.67 708.29 L308.86 711.21 L312.48 711.42 L315.85 711.84 L319.06 712.41 L322.38 712.79 L324.84 714.15 L328.41 714.13 L330.71 715.63 L333.03 717.12 L336.70 716.79 L339.86 717.08 L343.79 716.25 L347.48 715.65 L350.31 716.20 L351.40 719.28 L354.45 719.48 L356.45 721.24 L356.97 725.34 L358.11 728.56 L360.44 729.91 L362.11 732.36 L360.79 740.02 L361.44 744.50 L364.52 744.75 L364.64 750.41 L366.24 753.48 L369.46 753.47 L372.70 753.38 L375.61 753.89 L379.33 752.65 L382.93 751.55 L385.89 751.74 L389.36 750.74 L392.84 749.56 L396.22 748.52 L398.48 750.11 L401.75 749.17 L405.26 747.51 L407.66 748.66 L410.86 747.59 L414.08 746.36 L416.89 746.20 L418.90 748.41 L421.77 748.00 L424.46 748.09 L425.72 753.00 L425.68 762.84 L427.43 766.81 L429.29 770.62 L430.53 777.19 L432.54 781.06 L436.14 778.27 L439.04 778.38 L441.85 778.85 L444.82 778.51 L447.68 778.67 L450.68 778.03 L453.74 776.84 L456.58 776.81 L459.35 777.29 L462.50 774.89 L465.50 773.31 L468.56 770.80 L471.55 768.48 L474.48 766.23 L477.50 762.24 L480.22 761.22 L482.95 759.65 L485.66 757.84 L488.30 756.59 L490.83 757.71 L493.45 756.17 L496.04 754.17 L498.58 755.45 L501.15 759.25 L503.74 759.33 L506.35 759.93 L509.13 764.97 L511.94 768.54 L514.59 767.73 L517.44 770.34 L520.27 771.90 L522.99 771.65 L525.58 770.07 L528.23 769.36 L530.72 767.31 L533.16 765.12 L535.71 764.01 L538.07 761.76 L540.38 759.39 L542.95 758.86 L545.44 757.88 L547.35 753.82 L549.33 750.53 L551.60 748.87 L553.46 745.50 L555.30 742.24 L557.34 740.08 L560.05 740.76 L562.87 741.76 L565.06 740.29 L567.49 739.71 L570.51 741.18 L572.80 740.06 L574.86 738.25 L578.47 741.27 L582.51 745.34 L585.39 745.75 L589.55 749.64 L593.27 752.04 L596.04 751.75 L598.00 749.39 L600.32 747.98 L602.10 745.30 L603.74 742.37 L605.84 740.60 L607.35 737.56 L608.68 734.24 L611.00 733.09 L612.97 731.24 L615.51 730.57 L617.83 729.43 L620.42 728.83 L622.74 727.67 L625.02 726.46 L626.24 723.36 L628.30 721.81 L629.69 719.12 L630.75 715.96 L631.95 713.09 L633.45 710.78 L634.35 707.57 L635.17 704.33 L638.95 705.55 L644.17 708.75 L647.09 708.48 L651.55 710.31 L656.12 712.15 L658.58 711.03 L659.72 708.18 L661.11 705.70 L662.10 702.75 L663.10 699.87 L664.28 697.26 L665.30 694.50 L666.01 691.42 L667.02 688.73 L668.84 686.99 L670.83 685.43 L671.71 682.69 L675.29 682.80 L677.81 681.76 L678.21 678.56 L679.99 676.77 L682.26 675.45 L681.33 671.09 L681.48 667.84 L682.20 665.16 L685.13 664.47 L687.60 663.34 L689.40 661.60 L693.18 661.52 L698.23 662.40 L700.68 661.08 L702.93 659.58 L706.54 659.10 L708.69 657.45 L709.88 655.09 L711.14 652.77 L711.20 649.62 L711.48 646.67 L712.20 644.05 L712.41 641.10 L712.40 638.06 L712.67 635.23 L712.10 631.91 L713.78 630.00 L713.29 626.80 L714.86 624.85 L717.17 623.30 L716.01 619.80 L716.65 617.34 L718.79 615.68 L717.50 612.23 L716.22 608.84 L716.76 606.42 L721.22 605.87 L726.60 605.67 L730.93 604.90 L735.03 603.94 L740.20 603.36 L743.38 601.86 L741.15 598.11 L740.16 594.92 L740.10 592.12 L739.98 589.34 L739.91 586.59 L736.67 582.75 L734.13 579.25 L732.84 576.23 L728.97 572.43 L726.42 569.14 L726.88 566.81 L726.89 564.35 L729.41 562.60 L731.39 560.66 L732.52 558.47 L736.14 556.88 L736.06 554.37 L735.85 551.84 L738.13 549.85 L741.07 547.96 L743.54 545.92 L745.58 543.77 L746.96 541.47 L749.03 539.26 L749.71 536.81 L746.21 533.79 L746.21 531.28 L747.80 528.97 L746.89 526.36 L746.68 523.85 L746.86 521.37 L746.25 518.84 L745.61 516.33 L744.68 513.81 L742.89 511.27 L742.02 508.81 L741.13 506.36 L739.24 503.92 L737.39 501.51 L736.63 499.14 L737.42 496.76 L736.73 494.41 L736.13 492.06 L738.18 489.60 L736.04 487.33 L735.30 485.01 L735.79 482.61 L734.24 480.37 L731.96 478.22 L731.99 475.87 L729.76 473.78 L726.16 471.90 L723.01 470.02 L722.84 467.77 L729.20 464.51 L731.09 461.85 L733.34 459.07 L738.32 455.74 L739.55 453.03 L737.78 450.90 L736.04 448.79 L734.90 446.58 L732.68 444.63 L730.97 442.59 L729.17 440.60 L727.00 438.73 L724.75 436.92 L722.54 435.13 L723.59 432.39 L723.43 429.99 L721.65 428.11 L722.41 425.40 L723.06 422.69 L718.63 421.77 L718.76 419.24 L720.20 416.20 L718.29 414.42 L718.41 411.85 L719.39 408.89 L718.92 406.51 L716.32 405.05 L714.61 403.22 L715.30 400.31 L715.26 397.70 L714.24 395.55 L714.70 392.66 L714.20 390.21 L712.49 388.40 L710.11 386.95 L708.31 385.22 L705.65 383.99 L703.60 382.45 L701.68 380.85 L698.91 379.78 L696.52 378.53 L694.22 377.25 L693.71 374.84 L692.54 372.85 L689.90 371.85 L689.72 369.19 L687.41 368.00 L683.44 368.03 L681.95 366.32 L682.62 363.00 L681.45 361.02 L682.29 357.46 L683.60 353.45 L683.61 350.42 L683.22 347.66 L679.39 347.78 L677.30 346.48 L676.02 344.49 L672.20 344.77 L670.53 343.15 L669.00 341.41 L667.13 339.99 L664.58 339.25 L662.83 337.74 L660.01 337.33 L657.34 336.82 L655.37 335.60 L652.61 335.25 L648.95 335.94 L646.86 334.95 L645.66 332.97 L643.56 332.01 L640.87 331.79 L641.14 328.00 L639.72 326.21 L637.29 325.70 L637.72 321.51 L637.06 318.64 L636.03 316.21 L634.78 314.04 L632.53 313.24 L633.63 307.65 L632.73 304.80 L629.49 305.41 L627.45 304.26 L626.40 301.56 L623.76 301.35 L620.04 302.96 L617.67 302.43 L615.70 301.25 L613.27 300.87 L610.93 300.35 L607.97 301.03 L604.91 301.96 L602.43 301.88 L600.54 300.67 L597.84 301.11 L595.78 300.28 L594.49 297.81 L591.08 299.92 L588.23 300.92 L585.89 300.83 L583.07 301.95 L580.54 302.48 L579.51 299.29 L578.35 296.29 L577.43 292.52 L576.12 289.62 L574.02 288.84 L572.22 287.20 L570.52 285.15 L567.54 287.09 L565.08 287.47 L563.26 285.80 L561.15 285.05 L558.39 286.66 L556.01 287.01 L553.73 287.05 L551.31 287.72 L548.84 288.73 L546.33 290.01 L543.79 291.66 L541.47 292.40 L539.63 290.77 L537.54 290.31 L535.92 287.14 L534.21 284.15 L531.95 284.44 L529.77 284.36 L527.39 285.75 L525.12 286.58 L522.57 290.18 L520.58 288.84 L518.55 287.73 L516.21 290.35 L514.13 289.90 L512.05 289.53 L509.81 292.13 L507.63 294.90 L505.57 295.12 L503.52 295.17 L501.49 292.21 L499.40 289.23 L497.28 288.07 L495.08 284.50 L492.91 284.10 L490.86 286.78 L488.76 287.36 L486.68 288.23 L484.74 290.89 L482.78 292.63 L480.36 289.04 L478.07 287.54 L475.97 287.91 L473.51 285.43 L471.25 284.86 L469.18 285.70 L467.56 289.43 L465.71 291.30 L463.60 291.50 L462.20 295.56 L460.18 296.06 L457.46 293.14 L455.55 294.30 L453.24 293.64 L450.98 293.26 L448.46 291.94 L446.22 291.85 L445.03 295.68 L442.58 294.80 L439.97 293.43 L438.30 295.35 L436.27 296.03 L434.48 297.43 L432.89 299.40 L431.40 301.56 L430.10 304.15 L429.10 307.47 L428.06 310.51 L426.57 312.27 L425.51 315.01 L425.02 319.06 L422.28 317.62 L419.83 316.97 L418.64 319.18 L417.37 321.16 L415.76 322.37 L413.07 321.33 L413.22 326.09 L412.34 328.64 L409.60 327.55 L409.36 331.23 L407.58 331.96 L405.00 331.28 L404.95 335.08 L402.44 334.57 L396.83 328.99 L394.45 328.93 L392.66 329.86 L389.38 328.49 L386.41 327.70 L385.39 329.87 L385.51 333.67 L383.41 334.19 L382.02 335.73 L381.64 338.63 L380.75 340.78 L380.34 343.52 L379.62 345.80 L379.16 348.35 L378.49 350.60 L376.47 351.18 L375.01 352.45 L373.51 353.68 L372.55 355.51 L372.26 358.07 L371.42 359.98 L369.97 361.21 L369.48 363.45 L369.08 365.75 L367.67 366.99 L367.64 369.60 L367.92 372.45 L366.16 373.31 L363.01 372.90 L358.50 371.32 L353.63 369.54 L349.90 368.89 L345.98 368.16 L343.80 368.98 L343.94 371.73 L343.08 373.64 L342.97 376.11 L344.48 379.80 L343.98 381.90 L344.23 384.52 L345.23 387.64 L344.89 389.75 L345.28 392.33 L343.77 393.58 L342.84 395.23 L342.57 397.32 L342.14 399.27 L342.21 401.52 L342.67 403.98 L342.24 405.87 L341.01 407.28 L341.50 409.68 L340.04 410.95 L338.71 412.31 L339.75 414.95 L338.53 416.36 L336.86 417.55 L331.92 417.15 L325.91 416.34 L323.49 417.34 L318.59 417.25 L315.68 418.14 L314.32 419.75 L315.89 422.60 L315.60 424.64 L315.64 426.80 L317.49 429.64 L318.21 431.99 L319.62 434.57 L321.79 437.37 L324.31 440.22 L324.18 442.13 L325.92 444.63 L328.12 447.21 L328.43 449.18 L329.98 451.49 L331.36 453.70 L332.25 455.74 L330.68 457.13 L332.20 459.30 L331.87 461.00 L331.28 462.63 L329.56 464.03 L329.97 465.89 L329.14 467.50 L320.56 467.73 L316.30 468.85 L314.94 470.52 L309.64 471.63 L307.18 473.23 L307.49 475.23 L308.32 477.28 L309.06 479.31 L310.65 481.39 L311.52 483.38 L312.79 485.38 L314.58 487.38 L316.11 489.33 L318.96 491.31 L319.91 493.16 L321.58 495.01 L324.16 496.84 L324.38 498.60 L325.75 500.35 L328.02 502.07 L328.91 503.77 L328.15 505.51 L330.84 507.11 L332.36 508.73 L332.73 510.39 L334.97 511.91 L337.23 513.38 L336.24 515.12 L329.98 517.41 L326.48 519.52 L325.15 521.45 L318.75 524.07 L317.51 526.10 L319.25 527.69 L321.27 529.22 L322.00 530.93 L324.58 532.29 L327.25 533.59 L328.78 535.07 L330.05 536.59 L332.01 537.93 L333.12 539.43 L332.11 541.45 L333.27 542.93 L336.34 543.90 L336.73 545.55 L338.14 546.90 L340.11 548.07 L341.65 549.34 L340.53 551.44 L342.31 552.61 L344.69 553.55 L344.61 555.32 L337.73 559.61 L335.01 562.49 L332.80 565.24 L327.16 569.44 L326.86 571.58 L328.51 572.92 L330.68 574.00 L333.09 574.95 L335.59 575.81 L337.96 576.69 L339.03 578.16 L342.39 578.49 L346.03 578.60 L347.66 579.70 L349.82 580.50 L352.57 580.93 L355.14 581.42 L355.01 583.41 L357.34 583.98 L360.74 583.86 L361.16 585.51 L362.47 586.62 L364.55 587.21 L366.04 588.16 L364.92 590.85 L366.74 591.56 L369.29 591.75 L369.51 593.56 L364.14 599.48 L362.65 602.70 L360.96 606.15 L358.19 610.52 L357.02 613.75 L358.94 614.55 L362.32 614.10 L363.86 615.14 L365.85 615.78 L368.27 616.01 L369.74 617.05 L372.09 617.27 L374.80 617.12 L376.78 617.59 L378.73 618.07 L381.37 617.83 L383.46 618.09 L384.83 619.07 L386.86 619.34 L390.20 618.15 L391.88 618.70 L393.48 619.33 L395.92 618.97 L398.40 618.50 L398.12 621.26 L399.42 622.17 L401.53 622.08 L402.57 623.29 L400.52 628.50 L399.26 632.86 L400.26 634.30 L398.71 639.28 L398.24 642.92 L399.52 644.15 L401.86 643.83 L404.13 643.56 L406.01 643.85 L408.02 643.89 L409.81 644.26 L412.08 643.80 L414.58 642.90 L416.42 643.06 L418.43 642.88 L420.65 642.27 L422.78 641.78 L424.65 641.69 L426.49 641.63 L428.88 640.45 L430.89 639.92 L431.91 641.41 L434.27 640.07 L436.14 639.70 L436.85 641.88 L439.17 640.44 L441.73 638.30 L443.25 638.56 L445.26 637.54 L447.47 635.92 L449.61 634.38 L449.80 638.05 L450.22 641.28 L452.14 640.30 L452.82 642.96 L453.17 646.83 L454.99 646.15 L457.35 643.57 L458.80 643.96 L460.45 643.61 L462.86 640.31 L464.78 638.66 L465.89 640.14 L467.67 638.86 L469.58 636.81 L470.61 638.72 L471.92 639.41 L473.71 637.61 L475.14 637.61 L476.37 638.70 L477.73 639.09 L479.29 638.18 L480.48 639.81 L481.80 640.56 L483.31 639.87 L484.73 639.85 L486.21 639.17 L487.76 637.50 L489.22 636.60 L490.33 640.38 L491.73 640.56 L493.07 642.11 L494.48 642.39 L495.88 643.18 L497.29 644.45 L498.76 641.18 L500.18 641.16 L501.62 644.32 L502.97 639.57 L504.35 639.30 L505.77 639.88 L507.02 636.94 L508.28 635.03 L509.72 636.16 L511.07 635.95 L512.29 634.27 L513.67 634.57 L515.19 635.95 L516.56 635.91 L517.76 634.56 L519.32 635.87 L520.81 636.56 L521.94 634.91 L523.13 633.75 L524.35 632.86 L525.43 631.35 L526.35 629.15 L528.71 633.90 L530.61 636.08 L531.84 635.22 L534.64 640.80 L536.29 641.37 L536.86 637.89 L538.68 639.11 L540.23 639.25 L540.57 635.35 L541.10 632.30 L543.40 634.91 L544.01 632.26 L544.20 628.51 L544.98 626.65 L546.02 625.59 L546.92 624.17 L547.15 621.12 L548.02 619.79 L549.52 620.05 L550.90 619.97 L551.91 619.04 L553.18 618.69 L555.34 620.28 L557.14 620.98 L557.87 619.43 L559.14 619.00 L560.35 618.45 L560.71 616.27 L561.22 614.43 L561.79 612.77 L562.38 611.20 L562.91 609.56 L563.50 608.07 L564.05 606.56 L564.60 605.06 L565.06 603.49 L565.70 602.23 L566.53 601.28 L567.04 599.86 L567.90 598.99 L568.68 598.01 L569.21 596.69 L570.06 595.84 L570.89 594.96 L571.37 593.64 L571.97 592.49 L572.94 591.83 L573.54 590.71 L574.10 589.55 L574.96 588.77 L575.76 587.92 L576.43 586.92 L577.04 585.87 L577.66 584.84 L578.25 583.78 L578.92 582.83 L579.61 581.89 L580.15 580.82 L580.83 579.89 L581.45 578.90 L581.99 577.85 L582.59 576.87 L583.21 575.91 L583.77 574.90 L584.33 573.90 L584.96 572.96 L585.47 571.92 L586.00 570.91 L586.51 569.89 L587.03 568.89 L587.65 567.96 L588.11 566.92 L588.57 565.89 L589.09 564.89 L589.56 563.88 L590.00 562.84 L590.41 561.79 L590.87 560.79 L591.35 559.79 L591.75 558.75 L592.15 557.71 L592.58 556.70 L592.96 555.67 L593.31 554.61 L593.72 553.61 L594.05 552.55 L594.36 551.49 L594.73 550.47 L595.00 549.41 L595.27 548.34 L595.56 547.29 L595.85 546.25 L596.14 545.21 L596.41 544.16 L596.67 543.12 L596.93 542.08 L597.17 541.03 L597.40 539.99 L597.62 538.94 L597.82 537.89 L598.02 536.84 L598.20 535.80 L598.37 534.75 L598.53 533.70 L598.69 532.66 L598.83 531.61 L598.97 530.57 L599.10 529.52 L599.21 528.48 L599.31 527.44 L599.40 526.40 L599.48 525.35 L599.55 524.31 L599.60 523.28 L599.65 522.24 L599.68 521.20 L599.70 520.16 L599.72 519.13 L599.72 518.10 L599.71 517.07 L599.69 516.04 L599.66 515.02 L599.62 513.99 L599.57 512.97 L599.51 511.95 L599.44 510.94 L599.37 509.93 L599.28 508.91 L599.18 507.91 L599.07 506.90 L598.96 505.90 L598.83 504.90 L598.69 503.91 L598.54 502.91 L598.38 501.92 L598.22 500.94 Z"/>
  <svg class="pausebutton" id="pausebutton">
    <circle cx="500" cy="500" id="pausestart" class="pausestart" r="52.65"/>
    <rect height="50.02" width="10.00" y="473.68" rx="2.00" ry="2.00" x="479.99" class="pausesymbol"/>
    <rect height="50.02" width="10.00" y="473.68" rx="2.00" ry="2.00" x="510.00" class="pausesymbol"/>
    <polygon points="530.01,500 479.99,530.01 479.99,469.99" class="playsymbol"/>
  </svg>
  <polygon id="playback-head" class="playback-head" points="941.65,500 921.65,540 961.65,540"/>
</svg>