<?xml-stylesheet href="../../style/waveformjs.css" type="text/css"?>
<svg xmlns="http://www.w3.org/2000/svg" xmlns:xlink="http://www.w3.org/1999/xlink" width="100%" height="100%" viewBox="0 0 1000 1000">
  <path class="svg-wave" id="sp" d="M598.05 500.00 L598.22 500.98 L598.39 501.97 L598.55 502.96 L598.70 503.95 L598.83 504.95 L598.96 505.94 L599.08 506.95 L599.19 507.95 L599.28 508.96 L599.37 509.97 L599.44 510.98 L599.51 512.00 L599.56 513.02 L599.60 514.04 L599.63 515.06 L599.65 516.08 L599.66 517.11 L599.66 518.14 L599.65 519.17 L599.63 520.20 L599.59 521.23 L599.53 522.26 L599.46 523.29 L599.37 524.32 L599.27 525.35 L599.16 526.38 L599.01 527.40 L598.86 528.43 L598.70 529.45 L598.52 530.48 L598.31 531.49 L598.12 532.52 L597.91 533.54 L597.68 534.55 L597.37 535.54 L597.08 536.54 L596.77 537.53 L596.44 538.52 L596.12 539.51 L595.88 540.54 L595.59 541.55 L595.07 542.46 L594.60 543.38 L594.09 544.29 L593.54 545.19 L592.93 546.04 L592.47 546.97 L592.17 547.98 L591.75 548.94 L591.42 549.94 L591.15 550.98 L590.95 552.07 L590.75 553.17 L590.77 554.41 L590.45 555.46 L589.59 556.17 L589.62 557.45 L589.47 558.62 L588.29 559.11 L587.30 559.73 L586.71 560.61 L585.43 560.99 L583.93 561.20 L582.64 561.53 L581.99 562.33 L581.94 563.59 L581.77 564.78 L580.29 564.93 L579.57 565.67 L579.05 566.59 L577.83 566.90 L576.27 566.90 L575.67 567.72 L574.63 568.14 L573.07 568.07 L572.07 568.50 L572.08 569.89 L570.89 570.13 L569.70 570.35 L570.29 572.37 L569.60 573.11 L567.31 572.14 L565.71 571.85 L564.96 572.47 L563.94 572.78 L563.36 573.59 L562.93 574.60 L562.54 575.65 L561.99 576.54 L562.24 578.43 L560.83 578.25 L560.07 578.89 L559.03 579.15 L558.86 580.59 L557.32 580.16 L556.72 581.01 L555.57 581.09 L555.27 582.40 L554.28 582.71 L553.24 582.92 L551.69 582.30 L551.24 583.43 L549.70 582.77 L549.23 583.86 L548.47 584.50 L548.86 587.18 L547.63 587.02 L546.32 586.67 L544.92 586.11 L543.78 586.01 L541.99 584.59 L540.42 583.51 L539.83 584.44 L539.85 586.72 L539.27 587.75 L538.52 588.44 L538.33 590.45 L538.34 593.07 L537.98 594.88 L538.48 598.98 L537.38 599.08 L536.91 600.86 L537.16 604.78 L536.53 606.37 L534.04 602.46 L532.68 601.73 L532.06 603.35 L530.23 601.02 L528.40 598.47 L527.24 598.12 L526.88 600.71 L526.62 603.92 L525.23 602.74 L523.98 602.06 L523.52 604.77 L522.04 603.01 L520.53 600.85 L519.57 601.31 L518.57 601.61 L517.48 601.32 L516.38 600.98 L515.36 601.09 L514.36 601.30 L513.10 599.58 L512.36 601.84 L511.42 602.62 L510.20 600.82 L509.11 600.11 L508.29 602.34 L507.22 601.75 L506.27 603.00 L505.25 603.34 L504.35 606.51 L503.31 607.41 L502.22 606.51 L501.15 606.67 L500.09 609.34 L499.02 605.95 L497.95 606.57 L496.87 607.19 L495.80 606.95 L494.76 606.34 L493.65 607.15 L492.59 606.89 L491.40 608.31 L490.47 606.59 L489.41 606.36 L488.34 606.31 L487.22 606.73 L486.12 606.84 L484.71 609.10 L483.60 609.07 L482.66 607.99 L481.68 607.25 L480.84 605.78 L480.21 603.35 L479.30 602.53 L478.11 603.09 L476.50 605.50 L475.28 605.96 L473.98 606.69 L472.49 608.10 L470.78 610.18 L469.40 610.92 L467.13 614.67 L465.90 614.59 L464.91 613.74 L462.44 617.56 L460.95 618.15 L460.73 614.95 L460.35 612.38 L458.57 613.78 L458.11 611.57 L458.32 607.70 L457.69 606.18 L456.01 607.25 L454.17 608.64 L452.85 608.71 L452.19 607.28 L450.40 608.37 L449.34 607.83 L448.77 606.26 L447.95 605.26 L446.75 605.04 L446.01 603.91 L445.36 602.64 L444.57 601.66 L442.91 602.26 L442.89 599.93 L441.87 599.40 L439.54 601.05 L438.81 599.98 L439.01 597.45 L437.75 597.29 L436.25 597.48 L435.23 596.90 L433.85 596.85 L432.52 596.71 L431.26 596.45 L430.09 596.04 L428.71 595.90 L428.05 594.80 L427.37 593.73 L425.99 593.57 L425.06 592.83 L425.41 590.52 L424.37 589.93 L423.89 588.70 L422.47 588.54 L421.01 588.41 L420.36 587.36 L419.95 586.06 L417.90 586.51 L418.22 584.47 L416.96 584.07 L415.20 584.16 L412.48 585.14 L412.68 583.26 L412.32 581.94 L411.89 580.71 L411.71 579.27 L413.08 576.48 L412.04 575.85 L408.93 576.95 L404.89 578.75 L401.92 579.57 L398.57 580.62 L395.55 581.33 L393.83 580.98 L394.57 578.76 L395.31 576.59 L394.87 575.31 L394.46 574.01 L394.06 572.73 L393.75 571.38 L393.28 570.16 L392.85 568.92 L392.36 567.73 L391.97 566.47 L391.86 565.06 L391.81 563.62 L391.39 562.41 L389.80 561.87 L390.61 559.99 L391.36 558.17 L390.62 557.17 L390.09 556.05 L390.83 554.30 L388.63 554.02 L388.07 552.91 L387.61 551.76 L386.42 550.94 L386.27 549.65 L387.29 547.87 L386.96 546.68 L385.21 546.06 L383.03 545.58 L381.93 544.66 L380.78 543.73 L378.97 543.03 L378.42 541.86 L375.69 541.41 L371.40 541.42 L372.80 539.57 L371.69 538.51 L365.77 538.83 L365.28 537.52 L369.24 535.01 L368.84 533.71 L367.52 532.64 L369.57 530.76 L372.29 528.77 L373.39 527.20 L371.17 526.33 L366.94 525.81 L368.52 524.14 L369.00 522.70 L363.80 522.20 L365.17 520.60 L365.43 519.18 L361.76 518.30 L359.88 517.12 L361.05 515.57 L359.56 514.32 L360.38 512.82 L362.78 511.22 L363.74 509.77 L362.32 508.49 L362.54 507.10 L362.89 505.71 L364.06 504.30 L364.43 502.93 L366.74 501.54 L368.01 500.21 L365.68 498.87 L361.60 497.45 L362.55 496.09 L360.35 494.63 L353.70 492.91 L352.72 491.39 L356.99 490.20 L357.19 488.78 L356.94 487.32 L359.74 486.15 L362.43 485.03 L363.78 483.79 L361.87 482.16 L358.33 480.27 L361.29 479.26 L361.98 477.95 L360.11 476.22 L361.47 475.02 L362.33 473.75 L358.48 471.55 L356.25 469.60 L357.95 468.47 L356.59 466.66 L358.15 465.53 L360.65 464.65 L362.35 463.62 L362.91 462.29 L362.80 460.78 L364.44 459.78 L365.97 458.77 L366.31 457.41 L367.95 456.47 L367.67 454.91 L366.23 452.92 L363.53 450.43 L366.10 449.84 L362.28 446.84 L358.32 443.67 L361.38 443.28 L363.84 442.69 L362.71 440.59 L363.14 439.14 L366.04 438.82 L367.07 437.68 L365.70 435.39 L365.29 433.52 L364.96 431.68 L368.03 431.56 L369.07 430.43 L369.27 428.85 L370.54 427.85 L370.24 425.98 L367.57 422.69 L368.42 421.41 L370.37 420.81 L371.05 419.44 L373.19 419.00 L377.78 420.20 L379.01 419.27 L378.44 417.12 L378.96 415.69 L380.96 415.30 L380.97 413.51 L381.75 412.25 L383.41 411.66 L383.36 409.77 L381.54 406.45 L382.87 405.59 L384.07 404.63 L381.32 400.36 L380.88 397.94 L383.66 398.29 L386.18 398.46 L384.23 394.63 L386.00 394.14 L388.79 394.63 L390.45 394.11 L390.85 392.36 L390.36 389.70 L391.82 388.96 L394.60 389.63 L394.42 387.21 L395.73 386.35 L397.09 385.56 L397.42 383.61 L397.37 381.17 L399.07 380.75 L400.98 380.60 L402.06 379.47 L404.48 380.02 L407.99 382.03 L408.11 379.73 L408.25 377.39 L410.17 377.41 L411.80 377.07 L411.61 374.17 L413.34 373.97 L414.37 372.77 L413.91 369.28 L414.22 366.88 L416.38 367.33 L415.60 363.07 L415.67 360.07 L418.34 361.40 L420.95 362.71 L421.48 360.41 L423.90 361.49 L427.01 363.94 L429.51 365.39 L431.78 366.49 L432.37 364.31 L431.98 360.05 L433.98 360.62 L434.85 358.83 L434.15 353.48 L436.00 353.71 L437.30 352.68 L437.22 348.29 L438.25 346.45 L440.16 346.80 L441.67 346.16 L444.05 347.86 L446.75 350.59 L449.11 352.58 L450.54 351.94 L451.73 350.55 L453.42 350.69 L454.97 350.41 L456.10 348.70 L458.29 350.69 L459.76 350.18 L460.38 346.36 L461.21 343.10 L463.11 344.12 L463.46 338.43 L464.05 333.27 L466.17 335.11 L468.22 336.87 L469.62 335.30 L471.63 337.06 L473.85 340.36 L475.86 342.80 L477.40 342.36 L478.63 339.56 L480.02 337.59 L481.80 338.71 L483.23 336.81 L484.72 335.09 L486.34 334.61 L488.02 334.78 L489.39 330.08 L491.03 329.01 L492.84 331.21 L494.54 331.35 L496.26 333.16 L497.98 337.24 L499.62 339.24 L501.23 338.55 L502.88 336.38 L504.47 338.07 L506.12 337.32 L507.85 335.30 L509.39 337.17 L511.11 335.92 L513.04 332.32 L514.84 331.09 L516.42 332.29 L518.66 327.30 L520.85 323.57 L522.20 326.99 L523.58 329.72 L525.55 328.20 L527.11 329.39 L528.56 331.21 L530.14 332.10 L532.19 330.44 L534.25 328.96 L535.71 330.49 L537.01 332.60 L538.90 332.06 L540.27 333.70 L541.96 334.03 L544.41 331.45 L546.93 328.85 L548.34 330.38 L550.09 330.69 L551.80 331.13 L552.78 333.87 L553.15 338.31 L555.39 337.01 L558.06 334.61 L560.84 332.07 L562.99 331.43 L565.82 329.08 L568.56 327.14 L570.13 328.23 L571.36 330.09 L572.69 331.66 L574.39 332.34 L576.04 333.14 L577.61 334.11 L579.20 335.04 L580.79 335.95 L582.39 336.83 L583.94 337.83 L585.39 338.98 L586.88 340.06 L588.42 341.03 L589.82 342.25 L591.07 343.71 L592.48 344.89 L593.88 346.05 L595.25 347.27 L596.27 349.02 L597.56 350.31 L598.72 351.80 L600.08 352.96 L601.46 354.09 L602.94 355.08 L603.61 357.18 L605.04 358.21 L606.06 359.80 L606.97 361.49 L608.85 361.92 L611.48 361.46 L613.07 362.33 L615.42 362.30 L617.61 362.50 L619.30 363.32 L620.48 364.72 L621.56 366.23 L622.85 367.50 L624.24 368.66 L625.48 369.97 L627.13 370.87 L628.29 372.28 L629.63 373.49 L631.21 374.50 L632.24 376.02 L632.73 378.03 L633.68 379.59 L635.40 380.48 L636.77 381.68 L636.40 384.37 L637.17 386.06 L638.11 387.58 L637.83 390.09 L639.25 391.21 L640.73 392.30 L642.55 393.16 L643.78 394.47 L644.21 396.35 L645.26 397.79 L646.15 399.33 L646.50 401.23 L647.77 402.51 L651.78 402.03 L654.84 402.24 L656.85 403.15 L660.94 402.83 L663.96 403.23 L664.89 404.89 L665.75 406.59 L666.57 408.31 L666.60 410.46 L668.07 411.82 L667.85 414.07 L667.91 416.14 L669.00 417.70 L669.20 419.68 L668.32 422.16 L667.55 424.53 L667.85 426.41 L667.91 428.38 L671.66 428.80 L673.18 430.19 L674.55 431.66 L679.19 431.90 L679.61 433.79 L680.30 435.57 L680.50 437.53 L681.13 439.33 L681.66 441.17 L682.20 443.00 L681.76 445.13 L680.66 447.43 L680.41 449.45 L679.86 451.54 L679.87 453.46 L681.20 455.04 L681.45 456.91 L682.59 458.56 L685.18 459.91 L687.00 461.47 L686.94 463.43 L688.71 465.04 L690.04 466.75 L689.42 468.81 L690.37 470.61 L691.09 472.45 L690.53 474.47 L690.91 476.36 L690.30 478.37 L689.49 480.38 L687.51 482.48 L685.30 484.55 L686.22 486.35 L688.74 488.06 L690.69 489.85 L691.64 491.72 L695.74 493.50 L696.43 495.44 L696.42 497.41 L695.89 499.38 L695.58 501.33 L695.41 503.29 L695.22 505.24 L694.36 507.16 L692.86 509.04 L691.15 510.87 L689.73 512.70 L689.48 514.58 L691.16 516.64 L691.81 518.63 L692.82 520.67 L694.48 522.82 L695.14 524.88 L694.53 526.78 L694.29 528.73 L693.45 530.59 L693.90 532.65 L693.28 534.54 L693.12 536.50 L692.40 538.36 L691.58 540.20 L690.30 541.92 L690.05 543.86 L689.35 545.70 L688.59 547.52 L689.19 549.68 L690.31 552.02 L690.09 554.01 L691.57 556.50 L691.20 558.48 L691.14 560.56 L690.89 562.59 L689.53 564.24 L689.23 566.26 L689.02 568.32 L688.07 570.11 L687.74 572.13 L687.35 574.14 L685.30 575.48 L685.03 577.53 L684.42 579.46 L684.21 581.56 L684.36 583.84 L685.03 586.39 L684.52 588.41 L684.30 590.58 L683.40 592.43 L682.57 594.31 L681.18 595.90 L680.31 597.76 L679.28 599.54 L677.90 601.11 L676.69 602.77 L675.14 604.23 L673.77 605.78 L671.59 606.82 L668.68 607.36 L667.01 608.66 L665.92 610.33 L665.69 612.58 L663.67 613.62 L663.45 615.90 L663.85 618.67 L661.78 619.65 L660.45 621.17 L660.18 623.50 L659.11 625.23 L657.85 626.82 L656.66 628.46 L655.20 629.88 L653.31 630.93 L651.22 631.78 L650.54 633.86 L650.94 636.94 L649.78 638.65 L650.12 641.77 L650.63 645.13 L649.94 647.39 L649.18 649.61 L647.34 650.74 L646.24 652.65 L644.35 653.72 L643.00 655.36 L641.07 656.38 L639.05 657.27 L636.91 658.01 L634.65 658.57 L632.05 658.70 L628.93 658.14 L627.08 659.10 L625.21 660.02 L625.86 664.19 L624.73 666.14 L624.43 669.23 L625.38 674.15 L623.74 675.55 L622.64 677.74 L620.58 678.55 L618.81 679.77 L616.87 680.75 L614.99 681.80 L613.15 682.91 L611.31 684.02 L608.92 684.22 L606.63 684.53 L604.57 685.22 L602.53 685.92 L600.12 685.93 L598.69 687.74 L597.74 690.53 L595.66 691.16 L594.31 693.26 L593.43 696.42 L590.91 696.17 L589.27 697.78 L587.62 699.42 L585.42 699.83 L583.34 700.47 L581.33 701.30 L578.73 700.61 L576.06 699.66 L573.18 698.02 L570.85 697.78 L569.38 699.95 L568.65 704.44 L566.68 705.34 L565.58 709.07 L564.74 713.82 L562.37 713.70 L560.13 713.95 L557.86 714.08 L555.58 714.12 L553.30 714.12 L550.95 713.75 L548.33 712.15 L546.08 712.04 L543.72 711.35 L541.55 711.49 L539.84 714.09 L537.65 714.23 L535.86 716.71 L533.93 718.62 L531.52 717.38 L529.47 718.63 L527.26 718.72 L525.05 718.83 L522.84 718.85 L520.73 719.94 L518.55 720.31 L516.37 720.81 L514.16 720.94 L511.94 721.06 L509.67 719.83 L507.46 719.44 L505.25 718.73 L503.05 718.31 L500.88 720.80 L498.66 723.35 L496.41 724.28 L494.10 726.79 L491.80 727.48 L489.55 727.01 L487.32 726.08 L485.09 725.58 L482.84 725.31 L480.56 725.39 L478.33 724.99 L476.06 725.00 L473.83 724.54 L471.58 724.34 L469.33 724.06 L467.07 723.93 L464.80 723.76 L462.55 723.50 L460.13 724.17 L457.74 724.56 L455.52 723.98 L453.30 723.47 L451.01 723.22 L448.78 722.76 L446.72 721.54 L444.53 720.92 L442.34 720.26 L440.29 719.14 L438.23 718.08 L436.09 717.33 L434.28 715.48 L432.61 713.30 L430.33 713.09 L427.38 714.80 L425.50 713.32 L423.27 712.83 L420.58 713.58 L418.41 712.86 L415.28 714.58 L413.90 711.86 L410.98 712.92 L408.10 713.76 L406.03 712.70 L404.39 710.69 L402.47 709.32 L400.89 707.28 L399.22 705.47 L397.37 704.06 L395.15 703.38 L392.75 703.02 L389.87 703.51 L387.19 703.57 L384.51 703.58 L382.13 703.02 L379.54 702.79 L377.71 701.26 L375.74 699.96 L373.17 699.61 L371.22 698.28 L369.39 696.76 L367.83 694.85 L365.65 693.87 L364.07 692.01 L362.75 689.82 L360.91 688.37 L358.85 687.21 L355.69 687.48 L353.96 685.86 L351.69 684.91 L348.04 685.62 L346.21 684.06 L344.32 682.59 L342.48 681.04 L340.60 679.55 L339.04 677.69 L337.98 675.31 L337.41 672.43 L336.18 670.30 L335.58 667.53 L334.52 665.27 L331.32 665.13 L328.98 664.10 L326.24 663.43 L322.21 663.91 L319.86 662.77 L317.82 661.33 L316.46 659.29 L314.84 657.48 L313.56 655.38 L312.04 653.49 L311.18 651.07 L309.52 649.30 L308.30 647.18 L307.16 645.02 L306.71 642.35 L305.97 639.92 L305.85 637.08 L305.33 634.55 L302.39 633.68 L299.65 632.63 L297.98 630.86 L294.07 630.48 L290.95 629.55 L290.05 627.22 L289.19 624.88 L288.01 622.73 L287.11 620.42 L286.28 618.08 L286.60 615.14 L286.71 612.34 L286.61 609.68 L288.08 606.26 L286.88 604.21 L282.85 603.50 L281.19 601.62 L277.08 600.83 L271.33 600.69 L270.00 598.54 L267.80 596.75 L267.73 594.06 L267.74 591.36 L266.76 589.07 L266.21 586.61 L265.51 584.21 L264.50 581.92 L264.19 579.40 L263.09 577.14 L261.73 574.95 L261.32 572.47 L260.65 570.07 L259.52 567.79 L258.38 565.51 L258.21 562.97 L257.59 560.55 L256.72 558.19 L256.11 555.76 L255.47 553.34 L255.85 550.71 L255.30 548.27 L254.68 545.85 L253.90 543.46 L254.71 540.79 L254.68 538.28 L254.31 535.82 L254.46 533.30 L254.69 530.77 L251.82 528.61 L250.79 526.21 L249.07 523.85 L246.97 521.50 L246.28 519.01 L245.69 516.50 L245.50 513.95 L245.58 511.40 L245.19 508.87 L244.93 506.32 L244.34 503.78 L244.38 501.22 L244.62 498.67 L245.02 496.12 L246.01 493.59 L247.56 491.10 L248.35 488.61 L247.24 486.03 L245.97 483.41 L246.02 480.86 L244.24 478.15 L243.11 475.46 L243.20 472.88 L243.91 470.36 L244.45 467.83 L244.39 465.22 L245.75 462.82 L247.46 460.48 L249.71 458.27 L251.10 455.94 L253.07 453.73 L254.68 451.49 L254.08 448.81 L253.81 446.18 L252.56 443.31 L252.11 440.59 L251.27 437.75 L250.99 435.03 L251.61 432.53 L250.29 429.48 L251.37 427.10 L249.93 423.95 L250.46 421.38 L250.65 418.69 L251.99 416.37 L253.84 414.24 L256.14 412.30 L257.34 409.98 L259.44 408.02 L261.07 405.89 L260.85 403.03 L260.51 400.09 L261.00 397.48 L259.58 394.01 L259.53 391.10 L260.30 388.55 L261.29 386.09 L262.53 383.75 L263.90 381.48 L264.91 379.04 L267.11 377.21 L270.07 375.81 L271.66 373.70 L274.06 372.06 L275.96 370.16 L274.55 366.32 L275.16 363.62 L274.51 360.13 L273.60 356.40 L275.03 354.14 L276.44 351.86 L278.40 349.94 L280.17 347.91 L281.77 345.77 L283.61 343.81 L285.42 341.82 L287.02 339.70 L289.18 337.99 L290.73 335.82 L291.70 333.20 L293.63 331.33 L296.67 330.39 L298.21 328.23 L298.63 325.08 L300.62 323.28 L302.81 321.66 L301.97 317.28 L304.36 315.82 L306.26 313.93 L308.46 312.32 L310.60 310.67 L312.80 309.08 L315.29 307.82 L318.56 307.40 L321.00 306.14 L324.14 305.68 L326.58 304.49 L325.87 299.68 L324.39 293.85 L325.35 290.77 L324.11 284.96 L325.21 281.88 L329.42 282.72 L332.45 282.12 L336.29 282.66 L339.80 282.83 L341.95 281.20 L344.27 279.82 L346.58 278.41 L348.84 276.93 L351.13 275.51 L353.38 274.04 L355.63 272.55 L358.00 271.26 L360.36 269.97 L362.58 268.44 L364.41 266.21 L366.24 263.97 L369.69 264.60 L372.33 263.82 L374.62 262.42 L376.96 261.08 L379.49 260.14 L380.46 256.02 L382.79 254.59 L385.53 254.03 L387.65 252.15 L390.37 251.55 L394.24 253.68 L396.78 252.82 L398.54 250.03 L400.30 247.14 L403.34 247.48 L405.45 245.39 L407.25 242.37 L410.20 242.53 L412.27 240.12 L413.56 235.24 L416.19 234.31 L419.05 234.15 L420.33 228.66 L422.68 226.56 L426.11 228.36 L429.38 229.72 L431.70 227.50 L434.89 228.74 L438.45 231.79 L441.77 234.08 L444.28 232.79 L446.60 230.45 L449.24 229.63 L452.27 230.95 L454.42 227.26 L456.92 225.31 L459.86 226.25 L462.26 223.34 L464.58 219.45 L467.52 220.22 L470.16 218.36 L472.99 218.25 L475.89 218.95 L478.84 220.55 L481.62 220.09 L484.39 219.35 L487.24 220.22 L490.11 222.08 L492.89 222.08 L495.70 224.16 L498.47 224.94 L501.23 222.21 L504.06 218.31 L506.85 219.59 L509.73 217.44 L512.87 210.42 L515.81 209.75 L518.44 214.19 L521.28 214.62 L524.14 214.71 L526.71 217.94 L529.18 221.59 L531.83 223.00 L534.86 221.30 L537.99 219.13 L540.77 219.69 L543.62 219.79 L546.78 218.06 L549.41 219.61 L552.12 220.63 L555.36 218.87 L558.89 215.95 L561.41 218.01 L564.39 217.94 L566.91 219.84 L569.08 223.02 L571.21 226.18 L573.79 227.47 L576.87 226.97 L579.49 228.11 L581.89 229.94 L584.65 230.58 L587.40 231.24 L589.99 232.41 L593.25 231.64 L597.40 228.49 L599.74 230.46 L603.39 228.96 L608.24 224.56 L610.99 225.64 L612.70 229.24 L615.50 230.16 L618.49 230.65 L620.64 233.02 L622.71 235.53 L625.46 236.53 L628.70 236.56 L632.32 235.87 L634.09 238.90 L636.08 241.42 L638.80 242.52 L640.79 244.98 L643.41 246.25 L647.27 245.40 L650.47 245.77 L652.08 248.82 L655.37 249.08 L657.57 251.13 L658.11 255.71 L659.62 258.71 L663.31 258.41 L665.51 260.36 L667.30 262.88 L669.75 264.43 L672.46 265.65 L674.00 268.45 L677.07 269.20 L680.65 269.36 L683.43 270.57 L685.35 272.86 L688.97 273.09 L693.03 272.88 L694.75 275.45 L694.82 279.84 L698.75 279.88 L700.18 282.70 L699.59 287.65 L700.62 290.78 L703.47 292.01 L707.75 291.84 L710.16 293.60 L712.49 295.44 L717.61 294.67 L718.98 297.48 L721.10 299.58 L724.18 300.84 L726.65 302.66 L727.53 305.87 L728.99 308.54 L729.50 311.98 L729.64 315.68 L729.14 319.81 L730.55 322.41 L733.41 323.90 L736.49 325.25 L737.66 328.04 L740.71 329.47 L744.80 330.23 L747.24 332.17 L750.77 333.41 L755.16 334.15 L756.62 336.82 L757.36 339.95 L761.47 341.00 L763.69 343.23 L761.05 348.32 L761.98 351.26 L764.84 353.12 L763.37 357.36 L762.53 361.19 L762.31 364.65 L763.64 367.28 L768.82 368.03 L769.77 370.89 L770.97 373.63 L777.51 373.95 L778.58 376.81 L780.48 379.30 L784.18 381.06 L786.44 383.47 L786.71 386.69 L787.75 389.59 L786.72 393.26 L785.21 397.06 L783.68 400.81 L784.54 403.69 L786.55 406.19 L787.98 408.90 L787.66 412.16 L789.46 414.77 L787.75 418.38 L787.92 421.44 L791.29 423.64 L795.56 425.67 L795.90 428.73 L799.91 430.92 L805.68 432.81 L808.09 435.50 L804.36 439.45 L803.98 442.68 L805.02 445.64 L802.73 449.16 L799.24 452.82 L798.86 455.94 L801.56 458.62 L804.90 461.26 L804.27 464.43 L805.07 467.43 L807.52 470.27 L807.96 473.33 L807.32 476.48 L812.17 479.25 L814.10 482.28 L812.62 485.49 L812.53 488.63 L810.11 491.82 L806.95 494.97 L803.94 498.06 L804.30 501.10 L807.52 504.19 L806.20 507.24 L805.88 510.29 L807.98 513.45 L807.45 516.50 L806.32 519.52 L808.70 522.77 L812.32 526.18 L809.76 529.09 L814.66 532.73 L818.96 536.40 L816.21 539.29 L814.63 542.30 L815.83 545.68 L815.32 548.83 L812.27 551.56 L809.72 554.32 L811.13 557.78 L811.06 560.99 L809.12 563.83 L807.31 566.67 L807.00 569.82 L806.74 573.00 L806.09 576.08 L807.72 579.77 L809.21 583.46 L806.35 585.98 L806.74 589.41 L805.58 592.40 L802.25 594.70 L800.87 597.58 L802.72 601.54 L805.30 605.81 L805.54 609.33 L805.68 612.84 L807.71 617.10 L805.83 619.90 L803.65 622.56 L800.90 624.96 L798.47 627.47 L796.74 630.25 L794.91 632.98 L793.13 635.73 L791.23 638.40 L789.25 641.02 L787.27 643.63 L785.38 646.27 L784.24 649.29 L783.90 652.75 L781.46 655.09 L780.50 658.24 L779.80 661.55 L777.26 663.81 L775.64 666.59 L773.46 669.03 L771.73 671.74 L769.79 674.31 L768.03 677.00 L766.33 679.72 L764.86 682.62 L762.89 685.16 L761.64 688.23 L759.73 690.82 L757.86 693.45 L755.94 696.04 L754.37 698.90 L752.45 701.50 L750.26 703.88 L748.55 706.66 L746.55 709.20 L744.38 711.59 L742.23 714.01 L739.96 716.31 L738.20 719.09 L735.86 721.33 L734.09 724.11 L732.04 726.64 L729.41 728.60 L726.45 730.21 L723.44 731.74 L720.47 733.28 L716.67 733.90 L714.42 736.17 L713.31 739.72 L711.10 742.06 L708.72 744.23 L706.62 746.72 L703.88 748.46 L701.35 750.44 L698.26 751.71 L695.90 753.90 L693.48 756.02 L690.71 757.67 L687.96 759.33 L685.22 761.00 L682.70 762.99 L680.58 765.56 L680.17 770.75 L679.68 775.95 L677.18 778.16 L676.34 783.05 L674.29 786.09 L671.46 787.88 L667.44 787.64 L663.99 788.30 L660.68 789.18 L657.36 789.99 L654.53 791.69 L651.54 793.11 L647.86 793.14 L644.81 794.38 L642.03 796.15 L638.72 796.84 L634.67 795.84 L632.39 798.73 L630.71 803.09 L628.37 806.03 L625.54 807.88 L623.73 812.35 L621.18 815.08 L617.90 815.94 L614.48 816.41 L611.27 817.42 L608.08 818.48 L604.83 819.37 L601.24 819.15 L597.48 818.32 L594.12 818.70 L590.44 817.90 L587.00 817.86 L584.32 820.63 L581.08 821.33 L578.00 822.71 L575.52 826.68 L572.43 828.25 L568.98 828.18 L565.63 828.54 L562.38 829.36 L558.90 828.99 L555.50 828.89 L552.54 831.51 L549.22 832.01 L545.74 831.38 L542.60 833.16 L539.46 835.27 L535.83 833.04 L532.35 831.92 L529.25 834.73 L526.00 836.29 L522.67 836.96 L519.31 837.40 L516.09 840.91 L512.70 841.57 L509.29 841.96 L505.87 841.66 L502.45 842.11 L499.03 841.84 L495.62 841.59 L492.21 841.10 L488.80 841.03 L485.45 839.46 L482.09 838.67 L478.71 838.32 L475.26 839.11 L471.95 837.85 L468.42 839.24 L464.99 839.23 L461.72 837.85 L458.34 837.43 L454.97 836.97 L451.71 835.81 L448.19 836.34 L444.62 837.08 L441.13 837.23 L437.62 837.39 L434.35 836.24 L430.99 835.54 L427.89 833.69 L424.81 831.84 L421.70 830.17 L418.31 829.76 L414.63 830.45 L411.32 829.58 L407.99 828.83 L404.22 829.58 L400.90 828.70 L397.41 828.36 L394.24 826.96 L390.78 826.47 L387.67 824.93 L384.71 823.00 L381.87 820.78 L378.78 819.29 L375.93 817.22 L372.83 815.80 L369.35 815.29 L365.88 814.73 L362.53 813.85 L358.96 813.44 L355.46 812.82 L352.05 811.96 L348.80 810.75 L345.31 810.02 L342.05 808.78 L338.52 808.05 L335.22 806.83 L332.19 805.12 L328.98 803.72 L326.47 801.09 L324.25 798.01 L321.63 795.66 L319.40 792.69 L317.62 789.07 L314.17 788.12 L309.14 789.52 L306.91 786.63 L303.14 786.01 L298.28 786.88 L295.95 784.11 L293.88 781.02 L291.27 778.69 L288.47 776.63 L286.37 773.66 L283.97 771.09 L281.22 768.99 L278.63 766.68 L277.01 763.22 L274.41 760.96 L269.47 761.34 L265.92 760.08 L261.74 759.45 L255.48 760.99 L252.48 758.95 L249.55 756.83 L247.86 753.43 L246.43 749.83 L244.90 746.35 L242.70 743.55 L240.31 740.94 L238.12 738.15 L236.19 735.13 L234.28 732.10 L232.53 728.95 L230.81 725.80 L230.78 721.28 L227.84 719.17 L223.56 718.10 L219.09 717.10 L216.36 714.71 L210.90 714.33 L207.12 712.63 L205.26 709.51 L203.83 706.10 L201.77 703.14 L200.04 699.95 L198.15 696.89 L196.42 693.72 L193.92 691.03 L192.10 687.91 L191.30 684.19 L189.27 681.22 L187.12 678.30 L186.14 674.72 L184.75 671.39 L181.90 668.84 L179.49 666.03 L178.04 662.72 L176.80 659.31 L174.67 656.34 L174.70 652.33 L172.94 649.19 L170.68 646.26 L170.29 642.50 L168.82 639.23 L167.55 635.86 L164.90 633.05 L166.01 628.76 L166.65 624.70 L162.13 622.55 L158.25 620.11 L158.50 616.20 L154.97 613.56 L150.31 611.23 L149.80 607.55 L148.53 604.10 L147.83 600.49 L146.85 596.96 L146.55 593.25 L145.75 589.69 L144.75 586.17 L143.62 582.68 L143.47 578.96 L143.14 575.30 L143.18 571.57 L142.53 567.99 L143.05 564.20 L142.69 560.59 L142.97 556.87 L142.37 553.31 L141.93 549.72 L141.27 546.16 L141.12 542.53 L139.10 539.12 L137.76 535.60 L137.15 532.00 L137.09 528.35 L137.37 524.68 L138.12 521.00 L137.91 517.38 L138.35 513.74 L138.89 510.10 L137.31 506.52 L135.18 502.91 L134.57 499.26 L132.92 495.58 L131.76 491.88 L131.59 488.19 L131.76 484.51 L132.24 480.85 L132.22 477.16 L133.04 473.52 L133.95 469.90 L133.85 466.21 L133.74 462.50 L134.40 458.87 L135.55 455.30 L135.65 451.61 L134.97 447.80 L135.80 444.20 L135.64 440.44 L135.69 436.70 L134.93 432.80 L136.04 429.23 L136.47 425.54 L137.49 421.96 L138.36 418.36 L139.69 414.86 L140.02 411.13 L140.46 407.41 L141.06 403.73 L142.43 400.26 L142.75 396.48 L143.67 392.88 L145.11 389.43 L145.45 385.63 L146.14 381.93 L148.91 378.94 L149.84 375.33 L150.95 371.78 L150.88 367.78 L153.13 364.65 L152.24 360.28 L151.58 355.95 L153.19 352.54 L155.33 349.36 L156.81 345.90 L159.56 343.03 L162.83 340.43 L164.60 337.14 L165.94 333.64 L166.96 329.97 L167.13 325.84 L167.85 321.96 L167.89 317.69 L170.04 314.55 L171.48 311.01 L173.09 307.56 L174.80 304.16 L175.74 300.29 L177.63 296.98 L179.30 293.52 L181.66 290.51 L183.50 287.15 L185.09 283.62 L187.40 280.57 L189.88 277.65 L191.37 274.01 L192.56 270.12 L194.38 266.68 L196.90 263.77 L198.29 259.97 L200.57 256.85 L203.45 254.23 L206.94 252.13 L209.22 249.03 L211.98 246.35 L215.07 243.97 L219.10 242.46 L222.02 239.97 L225.45 237.99 L228.47 235.63 L228.85 230.66 L230.69 227.09 L232.35 223.29 L232.69 218.05 L235.30 215.16 L238.39 212.78 L241.68 210.62 L244.71 208.20 L248.01 206.09 L251.09 203.73 L254.44 201.72 L257.37 199.20 L260.57 197.02 L263.98 195.12 L267.51 193.38 L270.92 191.53 L274.58 190.02 L278.43 188.83 L280.96 185.78 L282.67 181.48 L285.78 179.20 L287.68 175.05 L289.11 170.08 L292.29 167.79 L295.43 165.40 L298.76 163.33 L302.22 161.48 L305.97 160.14 L309.69 158.78 L313.83 158.21 L318.21 158.16 L322.35 157.73 L326.71 157.80 L329.57 154.93 L332.30 151.74 L335.68 149.83 L337.84 145.25 L340.98 142.73 L344.72 141.51 L348.82 141.20 L352.62 140.20 L356.35 139.06 L359.90 137.45 L363.64 136.36 L367.12 134.55 L370.75 133.18 L374.55 132.25 L378.63 132.23 L382.41 131.33 L386.26 130.70 L390.13 130.14 L393.52 127.97 L396.86 125.52 L400.41 123.74 L403.65 120.70 L407.22 118.82 L411.01 117.82 L414.87 117.06 L418.75 116.45 L422.56 115.52 L426.42 114.84 L430.24 113.90 L433.95 112.36 L437.77 111.32 L441.61 110.40 L445.52 109.92 L449.34 108.70 L453.17 107.56 L457.14 107.52 L460.95 105.90 L464.88 105.41 L468.77 104.24 L472.75 104.36 L476.68 103.57 L480.63 103.15 L484.59 102.60 L488.58 102.95 L492.54 102.16 L496.51 101.92 L500.49 102.72 L504.45 104.46 L508.39 105.29 L512.30 106.50 L516.23 106.75 L520.30 104.22 L524.33 103.25 L528.45 101.34 L532.71 98.25 L536.74 98.40 L540.77 98.68 L544.74 99.51 L548.81 99.37 L552.71 100.69 L556.61 101.89 L560.62 102.26 L564.53 103.28 L568.28 105.18 L572.21 105.97 L576.01 107.42 L580.02 107.75 L584.32 106.79 L588.30 107.44 L592.13 108.70 L596.35 108.40 L600.44 108.68 L604.06 110.79 L607.63 112.96 L612.18 111.69 L616.05 112.88 L619.89 114.12 L623.94 114.73 L627.59 116.56 L630.85 119.51 L634.09 122.43 L637.53 124.67 L640.77 127.42 L644.76 128.15 L649.54 126.94 L653.56 127.74 L658.34 126.78 L662.89 126.49 L666.76 127.81 L670.30 129.87 L673.91 131.78 L677.84 133.00 L681.38 135.05 L684.74 137.43 L687.75 140.45 L690.99 143.00 L694.01 145.91 L697.63 147.72 L702.91 146.62 L706.81 148.04 L711.25 148.57 L717.08 146.91 L720.27 149.62 L723.48 152.30 L726.40 155.37 L729.53 158.11 L732.73 160.72 L736.14 163.03 L739.21 165.81 L742.70 168.00 L745.96 170.50 L749.06 173.23 L751.74 176.47 L753.57 180.75 L755.59 184.73 L758.62 187.44 L762.59 189.03 L766.45 190.78 L770.51 192.35 L776.23 192.10 L779.58 194.57 L782.35 197.68 L784.94 200.95 L788.05 203.68 L790.76 206.81 L793.37 210.04 L795.67 213.55 L797.05 217.92 L798.61 222.06 L799.99 226.33 L802.12 229.87 L806.70 231.24 L811.36 232.62 L815.20 234.75 L821.49 234.91 L824.96 237.46 L827.56 240.72 L829.86 244.23 L832.25 247.66 L834.71 251.02 L837.41 254.22 L839.42 257.91 L842.15 261.09 L844.38 264.62 L845.42 268.94 L846.04 273.50 L847.62 277.41 L848.75 281.57 L850.94 285.05 L856.43 286.56 L859.47 289.60 L863.38 292.15 L869.70 293.42 L870.85 297.62 L872.61 301.47 L873.90 305.55 L875.80 309.32 L877.40 313.23 L878.23 317.50 L878.53 322.00 L879.09 326.35 L879.89 330.55 L880.67 334.75 L884.05 337.83 L888.11 340.67 L890.61 344.19 L895.18 346.93 L898.18 350.32 L899.39 354.41 L900.31 358.60 L901.17 362.79 L901.92 367.01 L903.42 370.97 L904.33 375.12 L905.04 379.33 L906.30 383.36 L907.14 387.52 L908.23 391.60 L909.87 395.54 L910.50 399.74 L911.41 403.86 L912.73 407.90 L915.01 411.74 L915.21 416.03 L915.89 420.21 L918.04 424.12 L918.78 428.31 L919.10 432.56 L919.31 436.82 L919.69 441.05 L920.00 445.28 L920.41 449.50 L921.41 453.65 L922.44 457.80 L922.91 462.02 L925.37 466.09 L930.68 469.99 L931.37 474.28 L933.77 478.49 L940.04 482.58 L940.31 486.98 L940.62 491.38 L940.96 495.79 L942.07 500.00 L941.86 495.58 L941.66 491.17 L941.38 486.75 L941.02 482.35 L945.87 477.69 L946.56 473.17 L946.63 468.68 L950.09 463.92 L951.21 459.28 L949.93 454.86 L948.75 450.44 L948.10 445.97 L946.42 441.64 L944.51 437.36 L943.76 432.93 L942.59 428.58 L940.99 424.30 L940.22 419.89 L940.57 415.27 L939.40 410.93 L937.84 406.68 L938.21 402.01 L937.63 397.53 L935.91 393.33 L934.53 389.05 L933.00 384.81 L930.84 380.76 L929.57 376.47 L927.74 372.36 L925.54 368.37 L924.22 364.11 L922.12 360.12 L919.79 356.21 L918.43 351.99 L916.11 348.11 L913.75 344.26 L913.36 339.67 L914.16 334.58 L912.98 330.24 L913.41 325.21 L913.06 320.47 L909.81 316.99 L906.37 313.63 L903.07 310.24 L899.04 307.24 L895.59 304.00 L893.61 300.06 L891.36 296.25 L888.39 292.84 L886.36 288.93 L883.24 285.63 L884.60 279.79 L883.80 275.13 L882.72 270.59 L882.94 265.22 L880.09 261.71 L876.21 258.86 L872.82 255.74 L868.02 253.59 L864.07 250.92 L860.79 247.84 L857.78 244.58 L854.47 241.55 L852.31 237.69 L849.13 234.59 L846.25 231.27 L843.18 228.11 L839.91 225.13 L837.59 221.37 L838.14 215.19 L836.69 210.60 L834.99 206.19 L833.64 201.42 L830.14 198.56 L825.10 197.14 L820.64 195.25 L816.09 193.50 L811.73 191.61 L807.92 189.24 L804.81 186.16 L801.13 183.68 L797.11 181.58 L794.02 178.50 L791.22 175.10 L790.36 169.47 L787.69 165.83 L785.06 162.12 L782.67 158.07 L778.42 156.27 L773.68 155.11 L768.63 154.44 L763.49 153.97 L759.29 152.32 L755.31 150.42 L751.57 148.21 L747.64 146.29 L744.43 143.33 L740.46 141.49 L736.74 139.29 L732.83 137.38 L728.71 135.84 L724.72 134.13 L722.95 128.73 L720.00 125.20 L716.82 122.01 L714.00 118.14 L710.14 116.06 L705.45 115.55 L700.71 115.21 L696.10 114.70 L691.54 114.17 L687.34 112.96 L683.88 110.22 L679.63 109.15 L675.31 108.27 L671.59 106.05 L668.43 102.52 L665.02 99.45 L661.12 97.53 L658.15 93.23 L654.23 91.23 L649.44 91.61 L645.09 90.87 L640.21 91.71 L635.35 92.66 L631.05 92.00 L626.85 91.07 L622.58 90.41 L618.70 88.43 L615.37 84.44 L610.94 84.30 L606.69 83.57 L602.63 82.06 L598.70 79.97 L594.24 80.15 L590.05 79.15 L586.09 77.05 L582.05 75.19 L577.69 74.97 L573.34 74.78 L568.65 76.72 L564.28 76.98 L559.88 77.50 L555.44 78.58 L551.14 78.67 L546.97 77.80 L542.65 78.28 L538.43 77.90 L534.21 77.50 L530.15 74.82 L525.96 73.47 L521.78 71.61 L517.56 69.82 L513.23 70.69 L508.90 71.89 L504.61 72.95 L500.34 75.25 L496.10 75.98 L491.86 76.40 L487.64 76.94 L483.44 77.72 L479.19 77.37 L475.00 78.18 L470.77 78.30 L466.61 79.31 L462.40 79.67 L458.25 80.49 L453.91 79.62 L449.73 80.30 L445.40 79.73 L441.04 79.22 L436.84 79.86 L432.85 81.77 L428.76 82.99 L424.70 84.30 L420.78 86.32 L416.80 87.89 L412.59 88.28 L408.68 90.11 L404.77 91.82 L400.65 92.61 L396.34 92.69 L391.98 92.62 L387.70 92.97 L383.11 92.28 L378.70 92.35 L375.03 94.86 L371.24 96.93 L367.64 99.53 L364.46 103.26 L360.69 105.19 L356.96 107.17 L353.11 108.81 L349.14 110.14 L345.16 111.43 L341.42 113.34 L337.62 115.08 L334.29 117.90 L330.58 119.81 L325.90 119.59 L321.67 120.42 L317.56 121.54 L312.87 121.54 L309.13 123.50 L306.15 126.93 L303.48 130.85 L300.76 134.60 L298.21 138.56 L295.32 141.86 L292.16 144.62 L288.62 146.72 L285.34 149.25 L281.91 151.53 L278.21 153.38 L273.54 153.74 L269.49 155.13 L265.94 157.29 L261.17 157.71 L257.38 159.58 L254.87 163.24 L252.13 166.53 L249.80 170.33 L247.68 174.35 L244.89 177.46 L242.35 180.86 L239.34 183.67 L236.56 186.73 L233.29 189.20 L230.93 192.72 L228.22 195.83 L225.67 199.08 L223.42 202.64 L220.41 205.36 L215.09 205.71 L211.13 207.53 L207.23 209.45 L202.52 210.62 L199.74 213.70 L198.38 218.11 L196.55 222.03 L195.40 226.54 L194.02 230.77 L191.71 234.16 L189.18 237.35 L187.48 241.23 L185.15 244.56 L182.54 247.67 L179.83 250.70 L177.73 254.20 L174.41 256.78 L171.19 259.46 L168.61 262.62 L167.31 266.68 L164.93 269.98 L163.27 273.76 L161.73 277.60 L160.43 281.59 L158.48 285.12 L156.53 288.66 L152.73 291.08 L150.32 294.37 L147.72 297.55 L145.01 300.69 L143.88 304.71 L140.25 307.38 L137.59 310.59 L135.50 314.12 L132.62 317.25 L130.39 320.73 L129.18 324.70 L130.13 329.66 L129.84 333.99 L128.74 337.93 L128.85 342.39 L128.28 346.51 L124.16 349.19 L121.78 352.61 L121.15 356.71 L118.73 360.14 L117.20 363.90 L115.62 367.66 L116.27 372.16 L114.58 375.86 L112.57 379.48 L111.44 383.38 L111.53 387.62 L110.83 391.63 L111.19 395.90 L110.93 399.99 L110.96 404.14 L110.66 408.19 L110.03 412.14 L109.03 416.02 L108.41 419.97 L107.40 423.85 L107.04 427.85 L106.45 431.80 L105.58 435.70 L103.71 439.46 L103.61 443.50 L101.93 447.31 L100.56 451.19 L100.28 455.21 L101.31 459.36 L101.55 463.40 L101.57 467.42 L102.65 471.50 L103.03 475.52 L102.06 479.45 L102.38 483.45 L102.50 487.44 L102.28 491.41 L101.28 495.38 L100.45 499.36 L100.66 503.36 L98.41 507.39 L97.75 511.43 L99.02 515.41 L100.12 519.37 L101.45 523.30 L103.64 527.16 L104.91 531.04 L106.28 534.90 L107.14 538.79 L105.55 542.93 L103.81 547.13 L104.89 551.02 L105.03 555.02 L105.26 559.02 L106.33 562.89 L108.89 566.50 L109.76 570.37 L110.89 574.19 L111.46 578.12 L113.11 581.82 L114.95 585.46 L117.62 588.89 L119.23 592.54 L121.38 596.03 L123.48 599.52 L125.52 603.00 L126.23 606.83 L128.04 610.35 L129.09 614.09 L130.34 617.76 L127.58 622.76 L127.39 626.96 L129.04 630.56 L127.81 635.19 L127.38 639.58 L130.55 642.62 L134.20 645.43 L135.96 648.96 L137.16 652.73 L139.29 656.09 L142.82 658.83 L144.50 662.35 L145.48 666.21 L148.73 668.99 L150.63 672.40 L152.47 675.84 L154.46 679.19 L155.71 682.93 L156.49 686.95 L159.50 689.75 L161.80 692.92 L163.59 696.39 L166.00 699.49 L169.92 701.65 L172.75 704.45 L174.96 707.61 L178.69 709.78 L181.54 712.49 L183.46 715.82 L186.32 718.50 L189.45 720.96 L191.40 724.25 L192.09 728.49 L191.79 733.53 L193.91 736.78 L194.12 741.54 L194.75 746.04 L196.87 749.38 L201.40 750.69 L205.34 752.45 L209.14 754.29 L211.91 756.99 L215.92 758.56 L219.40 760.57 L221.90 763.48 L224.64 766.15 L228.75 767.49 L232.29 769.32 L235.54 771.44 L238.70 773.61 L240.81 776.89 L240.34 783.01 L242.22 786.67 L244.14 790.32 L245.04 795.20 L248.09 797.64 L252.62 798.28 L256.46 799.70 L260.93 800.28 L264.94 801.38 L269.13 802.20 L272.47 804.08 L276.31 805.27 L279.41 807.43 L282.84 809.14 L284.00 814.12 L286.34 817.46 L290.18 818.59 L291.45 823.67 L294.12 826.65 L298.58 826.77 L302.76 827.28 L306.72 828.07 L310.82 828.58 L314.63 829.55 L318.35 830.63 L321.94 831.92 L325.07 834.07 L328.45 835.74 L332.06 836.95 L335.29 838.91 L338.87 840.15 L342.30 841.70 L345.48 843.80 L348.39 846.57 L351.69 848.46 L354.83 850.78 L357.80 853.56 L361.80 853.81 L365.94 853.61 L369.83 853.97 L374.07 853.30 L378.13 853.06 L381.73 854.05 L385.25 855.31 L389.03 855.74 L392.47 857.23 L396.21 857.72 L399.30 860.51 L402.82 861.83 L406.36 863.09 L409.50 866.04 L413.05 867.39 L416.91 867.44 L420.88 866.91 L424.93 865.85 L428.79 865.54 L432.67 865.07 L436.47 864.84 L440.20 864.98 L443.43 868.36 L447.07 869.23 L450.85 869.11 L454.47 870.16 L458.13 870.95 L461.95 870.33 L465.73 869.85 L469.22 872.69 L473.00 872.34 L476.72 872.72 L480.44 873.11 L484.24 871.61 L488.03 869.47 L491.74 869.02 L495.45 867.37 L499.13 865.77 L502.78 865.58 L506.44 865.37 L510.07 864.47 L513.74 865.13 L517.44 866.11 L521.24 868.34 L524.97 868.75 L528.71 869.16 L532.48 869.73 L536.35 871.25 L539.88 869.13 L543.24 865.95 L546.94 865.86 L550.69 866.05 L554.11 863.88 L557.50 861.79 L561.25 862.01 L564.89 861.52 L568.17 859.09 L571.57 857.43 L575.10 856.54 L578.37 854.42 L581.96 853.85 L586.18 855.86 L589.84 855.40 L593.59 855.24 L597.47 855.49 L600.87 853.96 L603.72 850.62 L606.80 848.21 L609.59 844.95 L612.35 841.75 L615.29 839.24 L618.80 838.43 L621.99 836.68 L624.98 834.47 L628.35 833.27 L632.40 833.81 L636.75 834.97 L640.28 834.02 L644.55 834.78 L648.95 835.70 L652.14 833.83 L654.41 830.02 L657.12 827.26 L659.95 824.79 L663.11 823.01 L665.62 819.98 L668.70 818.11 L672.05 816.73 L674.56 813.82 L676.65 810.25 L679.79 808.54 L681.70 804.77 L683.99 801.72 L688.10 801.62 L692.69 802.21 L696.13 800.93 L701.16 802.00 L705.84 802.42 L708.72 800.16 L711.04 797.11 L713.33 794.06 L715.08 790.32 L716.90 786.74 L719.97 784.84 L723.02 782.88 L725.09 779.72 L727.44 776.91 L730.72 775.26 L733.80 773.33 L736.01 770.39 L739.47 768.88 L743.04 767.45 L745.24 764.52 L747.02 761.15 L748.48 757.48 L749.82 753.74 L751.47 750.36 L752.85 746.75 L754.83 743.75 L757.45 741.38 L760.10 739.02 L762.20 736.15 L764.07 733.10 L766.25 730.33 L767.93 727.14 L769.75 724.09 L772.70 721.96 L774.97 719.28 L776.97 716.38 L780.22 714.44 L782.74 711.92 L783.81 708.32 L785.16 704.95 L787.14 702.05 L788.22 698.53 L789.71 695.32 L791.69 692.44 L793.36 689.35 L794.92 686.21 L797.07 683.44 L797.78 679.79 L799.20 676.59 L799.89 672.98 L801.63 669.98 L803.16 666.87 L804.25 663.53 L806.36 660.74 L807.81 657.59 L809.07 654.36 L810.10 651.01 L810.95 647.60 L811.73 644.17 L812.53 640.76 L813.23 637.33 L813.92 633.90 L813.99 630.24 L814.06 626.60 L814.50 623.14 L816.07 620.12 L820.67 618.21 L822.01 615.06 L824.82 612.42 L828.62 610.06 L830.02 606.88 L829.33 603.02 L828.69 599.23 L829.82 595.98 L830.08 592.48 L828.58 588.53 L832.88 586.13 L834.62 583.02 L835.47 579.68 L836.86 576.46 L838.07 573.18 L838.77 569.80 L838.21 566.16 L837.94 562.61 L839.71 559.43 L837.88 555.63 L835.92 551.86 L835.49 548.37 L835.81 544.99 L835.82 541.58 L835.15 538.10 L837.38 534.94 L842.10 531.97 L841.49 528.47 L843.28 525.17 L844.91 521.82 L844.60 518.35 L843.77 514.86 L846.11 511.49 L845.77 508.02 L845.30 504.55 L847.37 501.11 L846.34 497.64 L843.25 494.23 L840.22 490.87 L837.21 487.58 L837.01 484.21 L834.54 480.97 L835.99 477.52 L839.21 473.89 L838.13 470.57 L837.96 467.18 L839.24 463.63 L839.85 460.12 L838.41 456.85 L839.59 453.25 L839.87 449.74 L838.18 446.53 L834.08 443.75 L830.66 440.92 L828.75 437.86 L826.44 434.91 L824.13 431.99 L823.86 428.66 L827.08 424.51 L830.07 420.34 L828.47 417.24 L829.72 413.41 L830.82 409.58 L827.47 406.96 L825.12 404.11 L824.15 400.86 L821.77 398.06 L821.48 394.60 L821.12 391.15 L818.96 388.31 L815.59 385.94 L812.31 383.58 L808.91 381.31 L807.26 378.41 L804.30 376.05 L805.41 372.02 L805.22 368.50 L804.23 365.30 L803.12 362.15 L805.98 357.14 L803.88 354.40 L802.90 351.13 L803.21 347.19 L800.60 344.72 L797.06 342.76 L793.19 341.04 L788.55 339.80 L786.86 336.97 L783.82 334.92 L780.94 332.81 L778.55 330.44 L778.73 326.49 L777.60 323.31 L774.69 321.28 L774.21 317.66 L773.69 314.03 L771.36 311.62 L772.23 306.96 L771.65 303.26 L768.99 301.05 L768.57 297.18 L767.38 293.85 L764.01 292.20 L759.77 291.30 L756.10 290.00 L752.72 288.51 L749.45 286.97 L745.43 286.12 L744.07 282.97 L741.90 280.53 L739.91 277.93 L737.54 275.67 L737.94 270.74 L735.84 268.17 L733.58 265.76 L732.12 262.52 L729.64 260.30 L726.17 259.15 L721.24 259.63 L717.55 258.85 L716.56 255.06 L712.82 254.38 L709.65 253.10 L708.24 249.73 L707.00 246.09 L703.96 244.66 L701.46 242.54 L699.62 239.57 L696.96 237.65 L693.51 236.80 L691.44 234.08 L688.16 233.06 L684.94 231.97 L682.08 230.39 L679.66 228.14 L675.55 228.50 L671.46 228.92 L668.25 228.01 L665.65 226.14 L661.69 226.54 L660.21 222.76 L658.14 219.91 L655.32 218.36 L652.09 217.57 L649.65 215.33 L646.38 214.66 L643.06 214.12 L640.61 211.85 L637.75 210.40 L634.42 209.95 L631.16 209.41 L627.34 210.18 L623.83 210.33 L620.96 209.04 L617.82 208.40 L614.45 208.38 L612.63 204.34 L610.88 199.97 L607.44 200.08 L605.20 196.81 L602.55 194.61 L599.28 194.25 L596.07 193.76 L593.03 192.71 L589.55 193.17 L586.45 192.40 L583.52 191.00 L580.12 191.37 L576.45 192.91 L573.00 193.71 L569.51 194.86 L566.44 194.24 L563.01 195.42 L560.64 191.30 L557.84 189.16 L554.68 188.89 L551.40 189.35 L548.59 186.96 L545.49 186.27 L542.37 185.65 L539.32 184.46 L536.26 183.26 L532.96 184.17 L529.55 186.45 L526.16 189.21 L522.92 190.82 L519.79 191.09 L516.65 191.85 L513.54 192.27 L510.67 185.99 L507.62 182.27 L504.43 183.28 L501.28 179.54 L498.07 178.79 L494.89 180.98 L491.73 182.40 L488.57 182.83 L485.53 185.78 L482.40 186.16 L479.26 186.26 L476.27 188.38 L473.36 191.10 L470.36 192.24 L467.35 193.14 L464.31 193.75 L461.32 194.69 L457.85 192.04 L454.67 191.78 L451.74 193.19 L448.41 192.13 L444.69 189.04 L441.75 190.46 L438.46 190.07 L435.17 189.77 L432.27 191.34 L429.88 195.07 L427.71 199.40 L425.43 203.03 L422.44 203.70 L420.01 206.44 L417.09 207.29 L414.40 208.91 L410.46 206.39 L407.55 207.39 L404.70 208.55 L401.14 207.59 L398.26 208.70 L395.50 210.13 L391.52 208.27 L388.35 208.70 L385.82 210.79 L382.04 209.74 L378.77 210.05 L376.28 212.21 L374.69 216.37 L372.30 218.61 L368.97 218.77 L366.40 220.60 L363.64 222.00 L359.91 221.47 L357.44 223.48 L354.77 225.09 L353.02 228.39 L351.26 231.59 L349.73 235.12 L347.37 237.10 L345.11 239.26 L342.50 240.80 L340.32 243.03 L338.22 245.37 L335.92 247.38 L333.69 249.45 L331.37 251.40 L329.10 253.39 L326.83 255.39 L324.68 257.52 L322.55 259.67 L321.16 262.80 L319.91 266.04 L318.25 268.70 L317.42 272.37 L313.66 272.39 L308.33 270.59 L305.35 271.71 L300.90 271.17 L296.55 270.83 L295.20 273.90 L295.18 278.38 L293.57 281.07 L293.08 284.91 L292.12 288.19 L290.39 290.65 L288.46 292.91 L287.20 295.80 L284.91 297.69 L282.93 299.88 L280.24 301.43 L278.35 303.72 L276.12 305.70 L274.08 307.86 L272.46 310.37 L271.34 313.28 L269.99 315.98 L269.08 319.01 L267.91 321.81 L266.80 324.64 L265.42 327.24 L264.34 330.05 L262.52 332.32 L261.23 334.97 L260.03 337.66 L259.02 340.46 L258.07 343.30 L257.01 346.04 L252.78 346.80 L249.73 348.35 L247.69 350.55 L243.54 351.53 L242.13 354.13 L242.33 357.63 L242.39 361.01 L242.93 364.60 L243.34 368.08 L242.83 371.05 L241.29 373.50 L240.57 376.35 L239.79 379.15 L237.99 381.49 L235.65 383.60 L233.00 385.61 L231.71 388.22 L228.68 390.13 L227.02 392.62 L227.17 395.81 L227.65 399.11 L227.75 402.23 L228.92 405.70 L229.11 408.79 L229.32 411.87 L228.70 414.65 L227.31 417.20 L224.78 419.43 L224.82 422.43 L221.83 424.57 L222.03 427.61 L220.65 430.22 L218.85 432.75 L217.32 435.37 L215.36 437.91 L213.86 440.57 L212.71 443.32 L213.37 446.43 L215.73 449.80 L216.50 452.86 L217.84 455.98 L218.76 459.00 L218.68 461.85 L217.53 464.57 L218.02 467.49 L218.36 470.38 L218.18 473.21 L217.01 475.95 L215.78 478.71 L215.77 481.56 L213.75 484.30 L212.88 487.13 L214.18 490.06 L215.78 492.96 L217.00 495.82 L218.52 498.66 L219.73 501.46 L220.36 504.26 L220.42 507.05 L219.97 509.87 L220.17 512.66 L220.86 515.43 L221.09 518.22 L221.98 520.95 L223.17 523.65 L221.50 526.60 L221.07 529.46 L220.83 532.31 L218.83 535.39 L219.17 538.21 L221.22 540.77 L222.47 543.43 L223.68 546.07 L226.28 548.46 L227.36 551.09 L227.68 553.85 L228.28 556.56 L230.07 559.01 L230.53 561.74 L232.00 564.23 L231.56 567.18 L232.28 569.85 L233.35 572.43 L232.39 575.57 L232.37 578.47 L233.96 580.90 L235.33 583.39 L236.94 585.78 L238.53 588.17 L240.73 590.32 L242.54 592.59 L244.12 594.92 L244.84 597.57 L246.28 599.94 L248.34 602.04 L249.69 604.42 L250.76 606.92 L252.06 609.30 L248.95 613.69 L248.62 616.88 L248.90 619.82 L247.29 623.70 L248.46 626.26 L252.07 627.57 L254.75 629.31 L257.57 630.94 L261.12 632.13 L263.39 633.97 L264.56 636.44 L265.86 638.84 L268.07 640.68 L269.42 643.03 L269.93 645.92 L269.48 649.46 L270.62 652.00 L270.79 655.21 L271.60 658.02 L273.58 660.02 L276.80 661.11 L280.15 662.06 L283.53 662.93 L285.82 664.60 L288.52 665.90 L290.89 667.45 L293.06 669.14 L294.60 671.33 L297.05 672.76 L298.86 674.72 L300.72 676.63 L302.75 678.38 L304.01 680.84 L303.78 684.72 L304.81 687.46 L305.94 690.15 L306.41 693.52 L309.03 694.76 L312.68 694.90 L315.45 695.90 L318.84 696.20 L322.09 696.58 L324.69 697.65 L326.30 699.82 L328.78 700.99 L331.19 702.23 L332.84 704.37 L333.54 707.72 L335.46 709.58 L337.62 711.15 L338.46 714.46 L340.32 716.46 L343.01 717.32 L345.96 717.81 L348.83 718.34 L351.60 718.99 L354.60 719.25 L357.34 719.86 L359.99 720.58 L361.61 722.93 L363.73 724.48 L366.47 725.01 L368.28 727.11 L370.45 728.60 L372.15 730.96 L374.11 732.88 L375.86 735.23 L378.05 736.79 L380.25 738.35 L382.88 739.05 L386.15 738.39 L389.04 738.44 L391.27 739.88 L394.08 740.04 L396.59 740.83 L398.57 742.90 L400.57 744.97 L403.54 744.64 L405.83 746.03 L408.52 746.34 L410.53 748.52 L412.73 750.23 L415.47 750.41 L417.53 752.59 L419.93 753.81 L422.86 753.33 L426.11 751.67 L429.11 750.70 L431.92 750.29 L434.86 749.30 L437.52 749.29 L440.02 749.88 L442.40 751.00 L444.98 751.27 L447.55 751.51 L450.06 752.09 L452.68 752.04 L455.25 752.23 L457.68 753.26 L460.12 754.27 L462.66 754.71 L465.10 755.88 L467.61 756.56 L470.34 755.45 L472.97 755.10 L475.53 755.24 L478.20 754.18 L480.73 754.44 L483.24 755.23 L485.85 754.41 L488.45 753.22 L490.98 753.31 L493.51 753.78 L496.02 755.22 L498.58 755.33 L501.14 758.10 L503.75 759.59 L506.31 758.34 L508.85 757.04 L511.36 755.52 L513.79 753.07 L516.27 752.19 L518.71 750.92 L521.19 750.34 L523.66 749.79 L526.39 751.76 L528.87 751.23 L531.28 750.07 L533.85 750.31 L536.62 751.77 L538.90 749.87 L541.44 749.76 L544.49 752.49 L547.01 751.99 L549.76 752.68 L552.07 751.14 L554.07 748.30 L556.27 746.52 L558.19 743.65 L560.12 741.04 L562.18 739.11 L564.72 739.01 L566.81 737.29 L568.97 735.91 L571.28 735.07 L574.77 737.97 L577.75 739.06 L580.51 739.38 L583.90 741.45 L586.44 740.96 L588.29 738.58 L589.84 735.52 L591.28 732.29 L592.66 729.03 L594.93 728.07 L596.97 726.56 L598.77 724.53 L601.51 724.63 L604.02 724.19 L605.88 722.35 L609.20 723.52 L611.16 721.88 L612.79 719.64 L615.59 719.65 L617.70 718.33 L619.15 715.82 L621.49 714.96 L623.80 714.02 L625.45 711.95 L626.79 709.42 L628.45 707.44 L629.91 705.19 L631.27 702.83 L633.09 701.19 L634.98 699.67 L636.42 697.53 L638.69 696.57 L640.24 694.61 L644.65 696.56 L647.99 696.94 L650.45 696.10 L654.62 697.41 L656.82 696.15 L658.30 693.99 L658.55 690.38 L658.77 686.81 L659.46 683.86 L660.56 681.44 L661.48 678.84 L662.48 676.37 L664.64 675.17 L665.75 672.85 L668.00 671.73 L669.65 669.98 L671.47 668.40 L673.98 667.48 L677.98 667.94 L680.92 667.33 L682.46 665.39 L685.81 665.07 L687.95 663.65 L688.40 660.75 L688.71 657.78 L689.51 655.26 L690.36 652.80 L690.68 649.94 L691.93 647.84 L693.11 645.70 L692.97 642.59 L694.25 640.55 L697.55 639.95 L699.65 638.46 L700.47 636.08 L703.76 635.36 L704.99 633.24 L705.59 630.73 L704.64 627.26 L703.79 623.93 L703.84 621.18 L703.63 618.32 L703.56 615.57 L703.81 613.03 L704.80 610.92 L706.19 609.02 L706.89 606.76 L708.08 604.75 L708.75 602.48 L709.72 600.37 L710.54 598.19 L713.28 596.88 L715.32 595.22 L717.30 593.51 L719.04 591.67 L720.33 589.63 L719.02 586.56 L719.00 584.03 L718.88 581.48 L718.18 578.75 L718.65 576.45 L720.17 574.52 L720.23 572.10 L721.32 570.01 L722.53 567.95 L723.27 565.75 L724.93 563.80 L725.58 561.55 L727.52 559.64 L728.83 557.55 L728.49 555.04 L728.43 552.61 L727.75 550.06 L726.31 547.38 L725.84 544.93 L725.05 542.44 L725.19 540.13 L726.18 537.98 L727.85 535.92 L728.29 533.65 L729.29 531.46 L728.89 529.08 L730.75 526.97 L732.40 524.81 L733.00 522.52 L733.97 520.26 L735.37 518.01 L734.83 515.61 L732.43 513.12 L730.35 510.69 L729.19 508.34 L727.33 506.00 L725.64 503.69 L724.86 501.43 L725.05 499.18 L723.41 496.95 L723.02 494.73 L723.79 492.47 L726.88 490.10 L727.30 487.80 L728.99 485.41 L730.78 482.98 L731.02 480.63 L728.69 478.52 L725.52 476.55 L723.74 474.47 L722.49 472.35 L720.99 470.29 L720.08 468.17 L719.77 465.97 L719.93 463.69 L718.37 461.70 L718.58 459.40 L720.20 456.82 L718.46 454.89 L718.15 452.67 L720.09 449.94 L719.78 447.70 L717.80 445.86 L718.36 443.40 L718.01 441.16 L715.85 439.42 L713.87 437.66 L711.61 436.01 L708.86 434.56 L707.39 432.74 L707.00 430.57 L705.86 428.65 L704.36 426.87 L704.10 424.66 L703.12 422.70 L705.67 419.37 L705.87 416.91 L706.23 414.35 L707.82 411.25 L706.33 409.43 L704.22 407.91 L700.95 406.96 L697.60 406.10 L695.41 404.73 L693.37 403.32 L690.70 402.26 L689.70 400.37 L688.24 398.71 L685.76 397.64 L684.71 395.80 L684.10 393.70 L683.37 391.67 L684.08 388.75 L685.59 385.28 L685.46 382.79 L685.62 380.07 L685.60 377.43 L684.24 375.67 L681.40 374.93 L679.94 373.26 L677.83 372.07 L675.43 371.12 L674.05 369.43 L673.43 367.16 L671.71 365.73 L670.32 364.06 L667.99 363.14 L667.31 360.89 L665.82 359.30 L663.76 358.21 L662.34 356.58 L661.55 354.37 L659.42 353.37 L656.48 353.16 L653.88 352.68 L652.09 351.45 L650.03 350.50 L647.56 349.99 L646.00 348.58 L645.09 346.48 L643.51 345.07 L641.68 343.95 L640.06 342.60 L637.72 342.08 L635.36 341.61 L634.31 339.62 L633.08 337.82 L631.63 336.28 L631.35 333.24 L630.53 330.82 L627.67 331.07 L625.06 331.03 L622.85 330.50 L619.55 331.53 L617.06 331.49 L615.13 330.69 L613.75 329.07 L611.86 328.20 L610.32 326.80 L608.22 326.29 L606.23 325.63 L604.07 325.27 L601.95 324.86 L599.95 324.28 L597.91 323.79 L595.89 323.29 L593.82 322.90 L591.82 322.40 L589.74 322.08 L587.68 321.77 L585.72 321.25 L583.81 320.65 L581.89 320.10 L579.95 319.61 L577.98 319.19 L575.84 319.20 L573.71 319.23 L571.64 319.16 L571.19 314.90 L570.07 312.23 L568.33 311.15 L567.63 307.07 L566.27 304.71 L564.18 304.47 L561.08 307.43 L558.68 308.39 L556.83 307.57 L554.53 308.34 L552.23 309.16 L551.26 305.09 L549.63 303.29 L547.78 302.31 L545.59 302.80 L543.79 301.54 L541.64 301.88 L539.33 303.12 L537.57 301.60 L535.73 300.46 L533.58 301.01 L531.32 302.36 L529.03 304.18 L527.08 303.82 L524.88 305.42 L522.74 306.80 L520.93 305.44 L519.43 300.65 L517.40 300.89 L515.46 300.03 L513.59 298.00 L511.61 297.20 L509.45 299.74 L507.56 296.66 L505.52 297.00 L503.46 298.20 L501.46 296.10 L499.42 296.33 L497.42 299.27 L495.48 302.26 L493.57 304.34 L491.65 305.19 L489.84 307.83 L487.86 307.01 L485.70 304.01 L483.80 304.92 L481.80 304.47 L479.73 303.56 L477.59 302.23 L475.71 303.25 L473.64 302.70 L471.53 302.03 L469.61 302.71 L468.01 305.26 L466.61 308.71 L465.21 311.83 L463.32 312.14 L461.74 313.94 L460.09 315.30 L457.59 312.82 L454.37 307.59 L452.52 308.32 L450.17 307.13 L447.63 305.35 L445.90 306.65 L444.92 310.48 L442.77 310.19 L441.13 311.57 L439.40 312.66 L437.27 312.48 L435.66 313.87 L434.89 317.58 L433.87 320.42 L433.24 324.15 L431.80 325.63 L430.53 327.48 L428.15 326.60 L425.34 324.80 L423.63 325.64 L422.11 326.90 L418.50 323.60 L416.08 323.05 L415.26 325.83 L412.20 324.03 L410.01 324.07 L409.68 327.71 L409.19 330.90 L409.07 334.67 L408.92 338.24 L407.22 339.02 L405.90 340.44 L405.46 343.30 L403.12 342.99 L399.49 340.70 L398.60 342.78 L396.43 342.89 L393.90 342.51 L392.79 344.24 L391.29 345.40 L387.88 343.89 L387.13 346.11 L385.51 347.13 L382.99 346.98 L381.38 348.05 L382.15 352.11 L381.96 354.88 L380.90 356.53 L380.68 359.15 L380.22 361.44 L377.56 361.20 L376.07 362.30 L375.06 363.95 L374.17 365.70 L371.21 365.27 L370.80 367.52 L370.04 369.37 L368.22 370.17 L366.46 371.04 L366.17 373.32 L367.12 376.71 L367.21 379.24 L363.95 378.74 L364.34 381.51 L364.15 383.71 L362.19 384.40 L357.91 383.21 L356.82 384.70 L356.31 386.64 L353.36 386.67 L351.92 387.91 L352.40 390.57 L351.10 391.90 L349.85 393.27 L350.24 395.78 L348.86 397.05 L346.98 398.00 L347.71 400.67 L349.54 403.99 L350.00 406.38 L349.14 407.93 L350.11 410.57 L349.15 412.03 L345.36 411.87 L344.30 413.32 L343.81 415.08 L342.61 416.46 L341.70 417.99 L342.45 420.37 L340.99 421.62 L340.25 423.23 L338.83 424.53 L338.93 426.53 L340.32 429.08 L340.80 431.19 L339.72 432.62 L339.59 434.44 L340.52 436.68 L338.00 437.54 L333.80 437.83 L334.15 439.84 L332.06 440.98 L330.52 442.33 L329.55 443.90 L330.76 446.17 L329.64 447.68 L330.49 449.79 L331.06 451.79 L330.28 453.40 L330.54 455.29 L332.37 457.56 L333.50 459.61 L334.72 461.65 L333.50 463.12 L334.89 465.16 L333.19 466.54 L329.22 467.52 L329.20 469.28 L330.17 471.20 L328.02 472.60 L328.20 474.39 L330.32 476.44 L327.88 477.85 L327.06 479.50 L328.43 481.40 L329.83 483.28 L332.31 485.21 L333.98 487.03 L334.58 488.74 L335.73 490.47 L334.62 492.06 L329.63 493.53 L326.00 495.13 L326.42 496.88 L323.81 498.60 L323.35 500.36 L325.79 502.10 L327.92 503.79 L328.04 505.51 L329.92 507.15 L329.85 508.86 L329.63 510.58 L330.49 512.23 L332.74 513.75 L334.69 515.26 L336.98 516.69 L336.57 518.39 L338.80 519.77 L336.78 521.68 L335.44 523.53 L336.44 525.06 L338.25 526.44 L333.89 528.86 L334.89 530.39 L336.09 531.87 L333.30 534.14 L332.91 535.97 L335.34 537.17 L338.28 538.21 L341.46 539.14 L342.68 540.51 L344.11 541.81 L346.20 542.90 L347.43 544.21 L344.63 546.71 L343.75 548.68 L345.71 549.77 L343.86 552.10 L343.52 553.95 L343.14 555.85 L342.10 558.00 L342.61 559.61 L342.73 561.37 L342.46 563.29 L342.47 565.13 L344.85 565.97 L347.46 566.67 L348.68 567.95 L348.94 569.65 L349.27 571.33 L350.14 572.77 L349.75 574.82 L351.28 575.93 L352.82 577.01 L354.83 577.81 L357.19 578.39 L359.26 579.10 L360.15 580.45 L362.16 581.14 L363.05 582.47 L364.75 583.30 L366.47 584.10 L367.86 585.08 L369.24 586.05 L370.58 587.03 L371.82 588.08 L373.14 589.05 L374.50 589.98 L375.79 590.95 L377.91 591.29 L380.07 591.55 L380.56 593.09 L378.54 596.63 L377.91 599.14 L377.47 601.55 L375.41 605.37 L374.93 607.94 L376.57 608.70 L380.47 607.41 L381.57 608.58 L383.45 609.02 L385.65 609.13 L388.13 608.92 L386.67 612.57 L388.26 613.23 L388.96 614.80 L391.39 614.56 L391.19 617.09 L392.86 617.63 L394.24 618.47 L395.31 619.66 L396.20 621.07 L398.45 620.87 L399.12 622.54 L401.90 621.62 L403.80 621.74 L404.83 622.94 L406.02 623.95 L408.34 623.42 L409.33 624.68 L409.54 627.04 L410.76 628.02 L411.50 629.71 L412.66 630.80 L414.44 630.94 L415.28 632.54 L417.05 632.67 L419.90 631.02 L421.30 631.66 L421.38 634.56 L423.14 634.62 L425.40 633.75 L426.31 635.29 L428.41 634.61 L430.62 633.67 L432.19 633.90 L433.83 633.98 L435.58 633.78 L437.00 634.26 L438.19 635.22 L439.07 636.89 L440.98 636.26 L442.27 637.02 L443.17 638.73 L444.58 639.27 L446.69 637.97 L448.85 636.40 L451.14 634.36 L452.52 634.77 L454.53 633.30 L456.58 631.56 L457.91 631.97 L457.92 636.64 L459.30 637.00 L460.48 638.07 L460.94 641.81 L462.25 642.60 L463.18 644.96 L464.30 646.69 L465.69 647.37 L467.17 647.69 L468.27 649.77 L469.82 649.82 L471.65 648.42 L473.54 646.47 L475.32 644.88 L476.96 643.92 L478.54 643.18 L479.98 643.32 L481.19 645.31 L482.60 645.83 L483.95 647.03 L485.44 646.92 L486.95 646.62 L488.48 645.91 L489.87 647.09 L491.42 645.80 L492.89 645.80 L494.37 645.09 L495.84 644.55 L497.31 643.40 L498.75 643.27 L500.17 640.80 L501.60 642.56 L503.03 642.64 L504.43 641.67 L505.88 642.46 L507.46 645.46 L508.89 644.95 L510.38 645.48 L511.77 644.54 L513.37 646.18 L514.67 644.43 L515.93 642.64 L517.42 642.99 L519.02 644.06 L520.10 641.36 L521.52 641.22 L522.80 640.20 L523.93 638.38 L525.29 638.01 L526.68 637.81 L527.89 636.73 L528.91 634.83 L529.95 633.14 L531.69 634.59 L532.70 632.90 L533.84 631.85 L535.62 633.24 L537.19 633.74 L538.09 631.84 L538.64 628.90 L539.20 626.15 L540.28 625.23 L541.02 623.27 L541.16 619.69 L542.45 619.53 L545.00 622.82 L546.54 623.17 L547.55 622.15 L550.17 625.15 L551.83 625.66 L553.38 625.83 L555.50 627.27 L556.70 626.55 L558.13 626.33 L560.06 627.17 L561.38 626.66 L561.58 623.90 L561.88 621.44 L562.92 620.49 L563.48 618.66 L563.88 616.59 L564.91 615.70 L567.25 617.11 L567.92 615.59 L569.36 615.39 L570.03 613.91 L571.40 613.57 L571.71 611.57 L572.65 610.59 L573.15 608.95 L574.36 608.40 L574.88 606.86 L576.22 606.49 L575.83 603.73 L577.31 603.57 L577.90 602.21 L578.77 601.24 L578.84 599.27 L580.73 599.58 L581.98 599.07 L583.19 598.52 L584.13 597.63 L584.89 596.54 L584.85 594.57 L585.82 593.76 L585.38 591.42 L584.80 589.00 L585.72 588.18 L587.22 587.95 L587.44 586.43 L587.98 585.24 L588.75 584.27 L588.88 582.73 L588.55 580.78 L589.01 579.59 L589.33 578.28 L589.34 576.72 L589.68 575.47 L590.30 574.46 L590.74 573.31 L590.45 571.59 L591.22 570.73 L592.02 569.89 L592.13 568.53 L592.02 567.03 L591.80 565.48 L591.50 563.89 L591.74 562.70 L591.80 561.41 L591.83 560.10 L592.53 559.25 L593.41 558.51 L593.67 557.37 L594.25 556.44 L595.04 555.63 L595.60 554.68 L595.99 553.63 L596.41 552.61 L596.79 551.57 L596.99 550.44 L597.28 549.36 L597.44 548.22 L597.44 547.01 L597.49 545.84 L597.54 544.68 L597.65 543.56 L597.72 542.42 L597.93 541.35 L598.21 540.32 L598.42 539.26 L598.52 538.16 L598.64 537.08 L598.76 536.00 L598.83 534.91 L598.95 533.84 L599.05 532.77 L599.16 531.71 L599.23 530.65 L599.29 529.58 L599.35 528.52 L599.42 527.47 L599.48 526.42 L599.54 525.37 L599.59 524.32 L599.63 523.28 L599.67 522.24 L599.69 521.20 L599.71 520.17 L599.73 519.13 L599.73 518.10 L599.72 517.07 L599.70 516.04 L599.67 515.02 L599.63 513.99 L599.58 512.97 L599.52 511.96 L599.45 510.94 L599.37 509.93 L599.28 508.92 L599.18 507.91 L599.07 506.90 L598.96 505.90 L598.83 504.90 L598.69 503.91 L598.54 502.91 L598.38 501.92 L598.22 500.94 Z"/>
  <svg class="pausebutton" id="pausebutton">
    <circle cx="500" cy="500" id="pausestart" class="pausestart" r="52.65"/>
    <rect height="50.02" width="10.00" y="473.68" rx="2.00" ry="2.00" x="479.99" class="pausesymbol"/>
    <rect height="50.02" width="10.00" y="473.68" rx="2.00" ry="2.00" x="510.00" class="pausesymbol"/>
    <polygon points="530.01,500 479.99,530.01 479.99,469.99" class="playsymbol"/>
  </svg>
  <polygon id="playback-head" class="playback-head" points="941.65,500 921.65,540 961.65,540"/>
</svg>