<?xml-stylesheet href="../../style/waveformjs.css" type="text/css"?>
<svg xmlns="http://www.w3.org/2000/svg" xmlns:xlink="http://www.w3.org/1999/xlink" width="100%" height="100%" viewBox="0 0 1000 1000">
  <path class="svg-wave" id="sp" d="M598.05 500.00 L598.22 500.98 L598.39 501.97 L598.55 502.96 L598.70 503.95 L598.83 504.95 L598.96 505.94 L599.08 506.95 L599.19 507.95 L599.28 508.96 L599.37 509.97 L599.45 510.98 L599.51 512.00 L599.56 513.02 L599.59 514.03 L599.60 515.05 L599.60 516.07 L599.58 517.09 L599.55 518.12 L599.51 519.14 L599.47 520.16 L599.40 521.19 L599.18 522.18 L598.68 523.10 L597.74 523.92 L596.45 524.63 L595.01 525.27 L593.35 525.84 L591.34 526.26 L589.67 526.76 L587.96 527.21 L586.14 527.59 L584.92 528.14 L584.11 528.81 L584.35 529.84 L584.62 530.89 L584.68 531.88 L584.80 532.89 L582.83 533.08 L579.63 532.73 L575.66 531.99 L571.71 531.17 L568.20 530.46 L565.20 529.90 L564.12 530.19 L563.30 530.58 L563.00 531.21 L563.98 532.50 L564.89 533.78 L565.64 535.01 L566.53 536.34 L566.78 537.35 L566.69 538.18 L566.25 538.82 L565.53 539.28 L564.55 539.58 L563.55 539.84 L562.45 540.03 L561.33 540.18 L560.54 540.53 L560.08 541.10 L559.88 541.85 L560.00 542.83 L560.60 544.18 L561.12 545.50 L561.66 546.87 L561.84 547.99 L562.01 549.13 L561.95 550.10 L561.34 550.63 L560.13 550.65 L559.91 551.49 L558.39 551.21 L557.17 551.16 L556.57 551.66 L556.27 552.42 L556.20 553.41 L556.40 554.69 L557.09 556.48 L558.31 558.85 L559.58 561.34 L560.59 563.65 L561.71 566.13 L561.27 566.99 L560.66 567.68 L560.39 568.74 L559.39 568.99 L558.39 569.21 L557.98 570.14 L557.13 570.54 L555.45 569.88 L553.57 568.92 L552.50 568.94 L551.04 568.44 L549.81 568.20 L549.34 569.00 L549.02 570.02 L548.96 571.44 L548.38 572.14 L548.36 573.69 L548.54 575.59 L547.35 575.39 L547.03 576.57 L546.88 578.07 L546.17 578.65 L546.45 580.98 L546.19 582.42 L545.76 583.61 L544.78 583.78 L543.38 583.16 L542.04 582.60 L540.46 581.51 L538.85 580.27 L537.66 579.83 L537.06 580.64 L537.18 583.09 L536.40 583.58 L535.94 584.82 L536.24 587.97 L534.71 586.71 L533.08 585.08 L532.60 586.41 L532.11 587.74 L531.41 588.56 L531.22 590.92 L531.28 594.13 L530.38 594.57 L529.44 594.91 L528.55 595.41 L527.39 594.96 L526.34 594.88 L525.27 594.71 L524.14 594.21 L523.13 594.18 L522.03 593.76 L521.03 593.70 L520.13 594.06 L518.91 592.93 L517.87 592.50 L516.94 592.66 L516.30 594.48 L515.71 596.85 L514.82 597.54 L514.18 600.02 L513.55 603.00 L512.55 603.37 L511.51 603.45 L510.39 602.73 L509.33 602.48 L508.14 600.52 L507.05 599.45 L506.11 600.38 L505.14 601.10 L504.17 602.08 L503.23 604.69 L502.17 604.23 L501.10 601.95 L500.08 600.92 L499.07 600.86 L498.04 601.87 L497.03 601.51 L495.98 602.37 L494.98 601.99 L494.11 599.29 L493.20 598.05 L492.39 595.88 L491.57 594.20 L490.63 594.10 L489.63 594.56 L488.52 595.83 L487.59 595.51 L486.55 596.03 L485.28 597.91 L484.62 595.78 L483.83 594.66 L482.59 596.11 L481.28 597.76 L480.01 599.02 L478.63 600.63 L476.84 603.97 L475.78 603.80 L475.34 601.11 L474.53 600.07 L474.00 598.05 L473.71 595.28 L472.99 594.22 L471.92 594.39 L470.60 595.32 L469.49 595.49 L468.17 596.31 L466.36 598.48 L465.58 597.55 L464.73 596.86 L463.61 596.90 L461.86 598.57 L460.15 600.01 L458.61 600.91 L456.67 602.71 L455.77 602.00 L456.18 598.34 L456.00 596.14 L456.08 593.48 L456.46 590.32 L455.50 589.99 L454.35 590.05 L452.50 591.42 L450.32 593.33 L449.20 593.17 L447.18 594.61 L445.88 594.70 L445.80 592.67 L444.79 592.28 L443.86 591.72 L442.27 592.25 L440.78 592.55 L438.84 593.51 L437.41 593.64 L437.67 591.27 L437.13 590.11 L436.62 588.93 L436.66 587.01 L435.56 586.70 L434.48 586.33 L432.85 586.66 L432.46 585.40 L434.42 581.23 L431.79 582.78 L430.22 582.98 L432.90 578.19 L430.30 579.59 L431.07 577.15 L427.89 579.10 L428.63 576.73 L429.09 574.73 L426.89 575.52 L426.11 574.81 L424.63 574.80 L426.06 571.93 L423.84 572.62 L424.13 570.90 L420.23 573.07 L419.73 572.06 L420.82 569.67 L418.61 570.18 L417.42 569.78 L415.55 569.93 L417.15 567.22 L416.58 566.30 L415.64 565.69 L410.37 568.36 L410.97 566.51 L411.73 564.58 L409.22 565.03 L409.00 563.82 L407.15 563.74 L409.84 560.58 L408.86 559.92 L409.10 558.47 L405.87 559.23 L406.48 557.54 L408.00 555.35 L406.09 555.23 L404.09 555.12 L399.05 556.68 L401.56 553.98 L400.81 553.11 L398.34 553.13 L394.47 553.82 L395.83 551.82 L398.27 549.34 L394.92 549.67 L396.19 547.81 L395.43 546.90 L398.01 544.52 L397.46 543.55 L397.10 542.49 L394.24 542.44 L393.65 541.45 L394.76 539.80 L392.50 539.44 L391.87 538.44 L387.45 538.75 L390.24 536.57 L390.84 535.16 L390.24 534.15 L387.26 533.84 L387.86 532.44 L390.60 530.47 L387.53 530.11 L388.17 528.74 L385.97 528.10 L387.99 526.42 L388.93 525.02 L388.93 523.86 L385.76 523.35 L385.16 522.28 L387.35 520.68 L385.04 519.92 L385.79 518.62 L380.31 518.28 L383.43 516.62 L384.71 515.26 L383.14 514.28 L381.08 513.33 L380.48 512.18 L382.85 510.76 L380.71 509.75 L381.18 508.52 L376.39 507.62 L378.82 506.26 L380.11 504.99 L378.50 503.84 L376.98 502.66 L377.13 501.42 L381.02 500.19 L378.71 498.98 L379.66 497.78 L377.33 496.51 L379.05 495.35 L381.44 494.26 L379.10 492.93 L377.08 491.58 L375.12 490.19 L376.89 489.09 L376.37 487.79 L377.38 486.65 L373.74 484.98 L376.98 484.12 L379.87 483.27 L376.40 481.52 L376.12 480.21 L374.69 478.69 L377.05 477.83 L376.83 476.52 L378.10 475.49 L372.74 473.09 L375.33 472.33 L380.03 472.11 L377.08 470.13 L375.71 468.48 L375.88 467.19 L380.15 467.04 L377.69 465.04 L379.65 464.30 L377.21 462.23 L379.57 461.63 L382.84 461.38 L381.03 459.46 L381.19 458.18 L379.91 456.38 L382.50 455.99 L380.97 454.05 L382.20 453.17 L378.69 450.36 L380.78 449.82 L384.89 450.19 L382.41 447.71 L382.36 446.27 L381.50 444.44 L382.43 443.44 L382.64 442.09 L384.13 441.37 L381.47 438.53 L384.25 438.50 L388.53 439.33 L386.42 436.70 L387.58 435.87 L385.37 433.08 L387.80 432.99 L388.95 432.16 L389.65 431.06 L386.52 427.52 L388.69 427.33 L394.19 429.40 L391.60 426.09 L391.90 424.70 L390.43 422.04 L392.75 422.06 L392.81 420.46 L393.67 419.43 L392.43 416.79 L393.30 415.75 L397.02 416.99 L395.58 414.10 L396.62 413.20 L393.78 408.99 L397.46 410.36 L399.79 410.61 L399.64 408.65 L399.86 407.01 L401.83 407.00 L405.11 408.28 L404.50 405.83 L404.73 404.15 L402.51 399.94 L404.30 399.79 L406.12 399.71 L406.58 398.18 L405.88 395.33 L407.49 395.03 L411.88 397.98 L411.39 395.31 L413.45 395.64 L412.45 392.26 L415.60 393.99 L417.34 394.01 L417.85 392.47 L417.44 389.67 L417.58 387.52 L421.29 390.31 L421.33 388.01 L421.87 386.38 L420.29 381.57 L423.34 383.60 L425.37 384.18 L425.54 381.86 L425.99 379.93 L426.82 378.58 L430.19 381.50 L430.36 379.05 L431.86 378.86 L431.56 375.42 L433.72 376.44 L435.33 376.50 L436.05 374.84 L436.32 372.24 L436.97 370.31 L440.18 373.72 L441.06 372.29 L442.23 371.47 L442.24 367.96 L444.10 368.66 L446.14 369.84 L446.45 366.85 L447.34 365.18 L448.15 363.24 L450.64 365.78 L451.45 363.79 L453.12 364.20 L452.91 359.04 L454.79 360.00 L457.32 363.20 L458.26 361.34 L459.68 361.02 L460.83 359.79 L463.38 363.65 L464.48 362.26 L466.13 363.00 L466.65 359.07 L468.38 360.15 L470.41 362.79 L471.27 359.98 L472.38 358.21 L472.95 353.32 L474.78 355.18 L476.18 354.59 L477.49 353.43 L478.18 347.78 L480.13 350.80 L482.32 356.26 L483.10 350.29 L484.79 351.98 L486.30 352.17 L487.96 354.22 L489.45 354.58 L490.90 354.35 L492.14 350.04 L493.70 351.45 L495.26 353.83 L496.65 350.23 L498.14 349.87 L499.64 347.82 L501.13 351.10 L502.62 351.17 L504.12 350.74 L505.72 347.97 L507.22 348.56 L508.63 350.30 L510.26 348.55 L511.79 348.33 L513.92 341.48 L514.93 347.54 L516.21 349.92 L517.89 348.61 L519.72 346.30 L520.94 348.81 L521.88 352.87 L523.86 349.87 L525.20 351.05 L527.05 349.30 L528.15 351.74 L529.59 352.24 L531.17 352.01 L532.97 350.90 L534.66 350.34 L535.75 352.40 L537.57 351.39 L539.03 351.85 L541.88 347.28 L542.58 350.59 L543.26 353.75 L545.47 351.74 L547.52 350.43 L549.09 350.67 L550.00 352.89 L552.06 351.71 L553.25 353.04 L555.73 350.86 L555.91 354.83 L556.77 356.88 L558.77 356.06 L560.49 355.97 L562.62 354.98 L563.00 358.01 L564.87 357.67 L565.82 359.32 L569.93 354.34 L570.29 357.28 L570.02 361.34 L572.82 359.30 L575.59 357.46 L577.18 357.93 L577.03 361.51 L579.87 359.74 L580.65 361.59 L584.75 357.85 L585.03 360.57 L584.82 363.99 L587.79 362.31 L589.76 362.28 L591.69 362.35 L590.18 367.51 L592.18 367.44 L593.19 368.80 L595.97 367.71 L595.65 370.88 L595.43 373.84 L598.37 372.63 L600.18 372.92 L602.59 372.52 L602.87 374.75 L605.11 374.61 L605.56 376.60 L609.31 374.77 L609.05 377.56 L607.46 381.74 L610.58 380.73 L611.86 381.74 L614.60 381.25 L614.03 384.18 L616.52 384.00 L616.71 386.10 L622.40 382.92 L622.57 385.08 L620.10 389.64 L623.77 388.52 L625.90 388.86 L629.29 388.15 L627.34 392.05 L629.28 392.61 L629.64 394.48 L633.42 393.61 L632.01 396.87 L629.38 400.99 L632.93 400.37 L633.81 401.78 L637.37 401.27 L635.83 404.42 L637.37 405.37 L639.21 406.14 L642.60 405.92 L642.41 408.08 L640.23 411.46 L642.80 411.82 L643.48 413.37 L646.48 413.55 L646.23 415.66 L646.81 417.26 L646.92 419.13 L650.18 419.28 L649.17 421.73 L645.38 425.57 L648.77 425.70 L648.30 427.78 L650.97 428.34 L651.60 429.89 L652.24 431.43 L652.54 433.12 L658.17 432.53 L659.78 433.73 L656.35 436.97 L660.19 437.28 L661.83 438.50 L667.28 438.33 L665.13 441.00 L664.21 443.17 L666.11 444.37 L669.77 445.02 L669.97 446.83 L666.13 449.85 L669.63 450.64 L669.11 452.62 L673.45 453.27 L669.73 456.08 L668.25 458.26 L669.88 459.65 L672.40 460.87 L673.36 462.47 L669.43 465.09 L670.88 466.57 L671.26 468.27 L675.35 469.32 L672.95 471.52 L672.02 473.44 L673.54 474.98 L674.67 476.60 L676.02 478.21 L671.91 480.46 L673.13 482.07 L672.21 483.91 L677.62 485.19 L676.17 487.08 L675.19 488.92 L676.33 490.61 L679.76 492.23 L683.02 493.92 L676.93 495.90 L679.57 497.63 L678.28 499.43 L682.95 501.25 L680.59 503.04 L677.48 504.76 L680.03 506.63 L680.20 508.44 L681.49 510.32 L677.80 511.90 L678.40 513.73 L678.50 515.54 L683.06 517.78 L681.36 519.45 L677.39 520.82 L681.21 523.10 L682.04 525.06 L680.95 526.76 L677.10 528.00 L678.16 530.00 L677.57 531.73 L681.87 534.38 L681.62 536.21 L679.18 537.59 L680.55 539.77 L679.61 541.45 L681.18 543.73 L676.28 544.41 L675.43 546.07 L675.04 547.84 L680.45 551.27 L677.44 552.34 L673.22 552.98 L676.58 555.94 L675.10 557.41 L677.43 560.14 L672.30 560.33 L671.84 562.11 L671.95 564.10 L674.62 567.09 L672.59 568.30 L668.30 568.55 L671.03 571.67 L669.80 573.16 L671.65 576.00 L668.01 576.41 L667.51 578.21 L667.28 580.15 L668.35 582.74 L666.86 584.09 L663.73 584.58 L664.40 587.02 L663.98 588.90 L665.03 591.62 L661.93 592.03 L660.50 593.36 L659.62 594.99 L659.69 597.21 L657.90 598.29 L654.69 598.45 L655.49 601.16 L653.38 601.99 L654.88 605.24 L652.64 605.96 L649.98 606.35 L649.59 608.34 L651.48 612.04 L651.48 614.40 L648.54 614.52 L649.99 618.06 L649.02 619.72 L652.34 624.92 L647.61 623.53 L645.00 623.83 L645.32 626.64 L645.13 629.05 L644.57 631.17 L640.29 629.87 L640.22 632.42 L638.19 633.15 L639.52 637.15 L636.29 636.68 L633.62 636.71 L633.04 638.86 L633.75 642.43 L633.52 645.07 L629.02 643.02 L628.72 645.59 L627.14 646.73 L626.92 649.48 L623.91 648.92 L621.51 649.04 L621.06 651.56 L621.47 655.23 L621.51 658.52 L618.27 657.54 L617.87 660.31 L614.76 659.41 L614.51 662.45 L610.80 660.59 L607.20 658.74 L606.61 661.32 L605.67 663.42 L604.97 665.96 L602.26 665.31 L601.53 667.86 L599.36 668.04 L601.25 675.21 L598.97 675.29 L595.13 672.49 L595.00 676.41 L594.03 678.87 L592.44 680.20 L588.26 676.37 L587.41 679.13 L584.81 678.30 L584.08 681.41 L581.13 679.74 L578.01 677.54 L577.52 681.33 L575.39 681.36 L574.28 683.85 L572.30 684.22 L570.51 685.08 L568.49 685.33 L568.35 690.80 L566.02 690.28 L562.91 687.33 L562.08 691.18 L560.03 691.37 L558.54 693.37 L556.62 694.00 L554.54 694.06 L552.39 693.82 L551.52 698.45 L549.03 696.97 L546.17 693.70 L545.01 697.59 L542.94 697.61 L541.71 701.63 L539.50 701.07 L537.33 700.62 L535.23 700.44 L534.27 707.11 L531.84 705.14 L528.91 699.41 L527.41 703.37 L525.41 703.87 L523.76 707.52 L521.41 705.15 L519.42 705.98 L517.31 705.60 L515.43 708.20 L513.17 705.61 L510.79 699.75 L508.93 702.85 L506.89 702.54 L504.90 704.31 L502.84 703.28 L500.81 704.19 L498.77 704.43 L496.67 708.15 L494.55 709.34 L492.57 706.30 L490.39 708.69 L488.29 708.75 L485.84 714.23 L483.87 711.75 L481.92 709.66 L479.76 710.09 L477.57 710.79 L475.67 708.73 L474.15 704.05 L471.74 706.49 L469.86 704.93 L467.20 708.52 L465.16 707.95 L463.18 707.00 L461.23 706.00 L458.13 710.85 L455.42 713.34 L454.63 706.76 L451.87 709.31 L449.98 707.98 L446.96 711.24 L446.02 706.21 L444.70 702.95 L442.04 704.63 L439.65 705.21 L437.26 705.71 L436.46 701.12 L433.72 702.72 L432.35 700.09 L429.01 703.26 L427.56 700.93 L426.19 698.50 L423.40 699.84 L420.33 701.81 L417.94 701.91 L417.82 696.56 L415.45 696.67 L413.62 695.51 L409.63 699.13 L407.99 697.48 L407.08 694.34 L404.07 695.58 L401.40 696.04 L399.62 694.70 L400.17 688.98 L397.25 689.88 L394.98 689.52 L388.70 696.20 L387.03 694.58 L383.96 695.34 L375.83 704.35 L374.39 702.13 L371.85 701.69 L369.97 700.20 L368.42 698.22 L366.71 696.50 L364.30 695.81 L362.92 693.64 L361.18 692.00 L358.78 691.26 L356.76 689.98 L354.53 688.99 L353.18 686.84 L351.23 685.48 L349.34 684.03 L348.56 681.25 L347.77 678.54 L346.63 676.28 L344.79 674.83 L343.44 672.84 L341.29 671.73 L339.35 670.38 L337.64 668.78 L335.56 667.55 L332.71 667.08 L329.52 666.90 L327.54 665.49 L323.18 666.31 L321.03 664.99 L319.41 663.17 L318.31 660.89 L317.26 658.59 L315.93 656.55 L314.62 654.49 L313.56 652.24 L311.46 650.84 L308.46 650.12 L307.28 647.96 L305.07 646.58 L303.41 644.78 L302.22 642.63 L301.26 640.32 L299.09 638.86 L296.83 637.44 L295.89 635.12 L293.42 633.81 L291.92 631.84 L290.60 629.77 L290.18 627.14 L288.71 625.16 L287.55 622.99 L287.93 619.96 L288.18 617.03 L287.65 614.57 L287.18 612.09 L287.64 609.15 L285.73 607.44 L285.23 605.01 L284.76 602.59 L282.36 601.08 L280.56 599.26 L278.55 597.51 L277.68 595.25 L275.13 593.69 L272.47 592.14 L270.63 590.23 L270.72 587.56 L268.42 585.79 L264.95 584.41 L262.32 582.68 L258.80 581.21 L256.44 579.30 L251.89 578.05 L249.48 576.06 L249.68 573.28 L248.70 570.84 L248.95 568.07 L250.06 565.10 L249.20 562.65 L248.01 560.27 L247.93 557.63 L247.68 555.04 L246.10 552.73 L245.20 550.27 L246.23 547.43 L246.71 544.73 L246.08 542.22 L246.22 539.60 L247.58 536.80 L247.14 534.29 L246.04 531.85 L246.83 529.19 L248.15 526.49 L247.63 523.99 L246.47 521.55 L247.86 518.89 L249.25 516.27 L249.00 513.76 L246.45 511.36 L248.16 508.76 L249.09 506.22 L246.23 503.75 L246.18 501.21 L248.24 498.69 L249.50 496.19 L249.36 493.68 L251.20 491.23 L252.48 488.80 L250.22 486.19 L250.56 483.71 L250.98 481.23 L249.27 478.58 L247.75 475.91 L245.36 473.11 L247.23 470.75 L246.54 468.09 L243.79 465.14 L244.32 462.61 L247.09 460.42 L249.00 458.15 L250.37 455.81 L252.68 453.66 L254.82 451.52 L259.68 449.98 L258.78 447.27 L258.76 444.73 L257.36 441.85 L252.84 438.15 L255.03 436.09 L250.45 432.22 L247.57 428.72 L251.76 427.21 L253.98 425.18 L254.15 422.54 L255.87 420.39 L255.64 417.60 L257.37 415.48 L258.96 413.31 L257.79 410.15 L258.97 407.83 L262.23 406.35 L263.34 404.04 L263.50 401.34 L263.91 398.73 L260.48 394.41 L260.30 391.45 L260.30 388.55 L258.43 384.73 L259.95 382.49 L262.27 380.67 L265.44 379.31 L264.00 375.56 L266.39 373.82 L269.04 372.26 L269.40 369.43 L271.07 367.33 L272.32 364.99 L274.40 363.16 L275.51 360.75 L274.79 357.16 L273.04 352.85 L274.33 350.46 L273.26 346.46 L271.49 341.91 L274.25 340.46 L277.50 339.39 L279.97 337.81 L282.97 336.64 L285.97 335.52 L288.17 333.82 L290.63 332.34 L293.40 331.14 L295.34 329.28 L296.64 326.89 L298.28 324.78 L301.05 323.66 L302.39 321.29 L305.58 320.60 L309.39 320.56 L311.88 319.32 L313.12 316.89 L314.82 314.88 L315.36 311.70 L314.20 306.68 L317.20 305.96 L318.42 303.35 L320.27 301.40 L322.64 300.04 L324.49 298.10 L326.31 296.10 L327.76 293.67 L328.96 290.89 L330.94 289.04 L332.95 287.22 L333.92 284.04 L335.24 281.27 L335.73 277.32 L337.38 274.88 L338.73 271.98 L338.63 266.92 L341.59 266.24 L344.38 265.33 L347.22 264.55 L350.28 264.12 L353.19 263.52 L356.11 262.96 L359.00 262.39 L362.02 262.11 L365.19 262.12 L368.26 262.01 L371.36 262.03 L374.19 261.60 L376.62 260.43 L379.00 259.16 L381.57 258.28 L384.09 257.32 L385.53 254.02 L387.96 252.82 L390.60 252.08 L392.24 249.03 L394.27 246.81 L396.91 246.01 L399.70 245.63 L402.16 244.40 L403.94 241.33 L406.88 241.35 L409.55 240.67 L411.61 238.19 L414.03 236.67 L417.03 236.98 L419.87 236.83 L421.98 234.25 L424.01 231.27 L426.82 230.97 L430.71 234.81 L434.12 237.14 L437.42 239.27 L439.39 235.89 L443.46 241.79 L446.36 242.75 L448.63 240.72 L450.33 235.45 L453.40 237.33 L457.07 243.08 L459.07 239.03 L461.77 239.26 L463.83 234.83 L467.13 239.65 L469.91 240.79 L472.33 238.86 L474.78 236.93 L477.57 238.48 L480.44 241.72 L482.73 237.02 L485.50 239.43 L487.80 232.55 L490.58 235.21 L493.28 237.44 L495.87 235.05 L498.51 232.70 L501.19 230.20 L503.85 233.00 L506.59 230.32 L509.23 232.02 L512.24 224.75 L514.66 230.87 L517.01 236.29 L519.89 233.27 L522.60 232.97 L525.21 233.85 L527.46 238.00 L530.56 234.07 L532.97 236.36 L536.54 229.82 L538.60 234.60 L540.69 238.62 L544.05 234.53 L546.67 235.14 L549.79 233.11 L552.29 234.46 L555.60 231.81 L557.69 235.09 L562.28 227.16 L563.97 232.16 L565.10 238.98 L568.73 235.71 L570.94 237.99 L574.08 236.85 L575.82 240.66 L579.26 238.62 L580.93 242.41 L585.79 236.20 L587.83 238.85 L588.49 245.33 L592.68 241.63 L595.90 240.85 L600.39 236.83 L600.89 243.25 L604.05 242.80 L606.01 245.31 L610.97 240.74 L612.63 243.96 L611.70 252.83 L616.45 249.03 L620.33 247.30 L622.93 248.37 L623.16 254.16 L626.76 253.16 L628.58 255.67 L633.99 251.46 L635.53 254.51 L635.33 260.56 L640.25 257.54 L643.60 257.38 L648.09 255.40 L646.92 262.72 L649.53 263.83 L651.62 265.73 L657.40 262.06 L658.05 266.19 L657.12 272.51 L661.98 270.41 L663.60 272.97 L667.09 272.95 L666.61 278.28 L669.31 279.32 L669.74 283.28 L674.97 281.14 L677.18 282.86 L676.66 287.87 L680.89 287.16 L682.76 289.26 L691.42 283.69 L689.63 289.98 L690.80 292.89 L693.52 294.10 L699.52 291.93 L699.98 295.59 L694.87 304.75 L701.41 302.20 L702.26 305.29 L705.49 306.11 L705.44 310.00 L707.79 311.65 L710.01 313.42 L715.30 312.55 L718.58 313.50 L714.46 320.69 L721.14 318.83 L721.37 322.31 L726.85 321.61 L726.38 325.62 L726.83 328.85 L728.59 331.09 L733.03 331.39 L735.40 333.23 L731.89 339.18 L736.44 339.50 L733.80 344.68 L740.23 343.85 L738.95 348.06 L737.18 352.49 L739.96 354.07 L745.55 354.02 L750.41 354.50 L746.18 360.23 L751.68 360.42 L752.21 363.40 L759.60 362.74 L759.61 366.04 L757.63 370.31 L761.80 371.47 L766.01 372.69 L770.15 374.01 L762.09 380.95 L765.56 382.56 L770.48 383.61 L778.87 383.29 L775.71 387.84 L775.34 391.18 L778.80 393.03 L781.76 395.11 L782.41 398.07 L772.68 404.66 L776.68 406.35 L777.70 409.09 L783.99 410.16 L781.96 413.90 L779.47 417.71 L783.29 419.65 L786.18 421.91 L788.92 424.26 L781.23 429.28 L785.36 431.27 L783.84 434.63 L789.30 436.41 L788.58 439.59 L785.66 443.17 L788.67 445.57 L792.30 447.91 L798.66 449.85 L792.10 453.95 L793.75 456.69 L793.54 459.72 L800.53 461.82 L796.62 465.33 L790.04 469.03 L794.46 471.53 L790.93 474.81 L790.21 477.79 L787.60 480.88 L785.36 483.90 L787.26 486.67 L795.17 489.26 L794.19 492.24 L793.25 495.20 L797.02 498.11 L796.81 501.08 L800.39 504.09 L794.20 506.95 L795.30 509.93 L795.48 512.90 L800.01 516.10 L802.00 519.24 L797.21 521.92 L799.87 525.14 L800.37 528.21 L807.04 531.93 L798.88 534.11 L797.00 536.91 L796.76 539.89 L796.33 542.86 L795.15 545.70 L789.63 547.82 L791.28 551.09 L789.87 553.83 L796.75 558.19 L793.17 560.54 L790.52 563.02 L790.88 566.16 L796.21 570.49 L797.72 574.00 L790.66 575.34 L794.01 579.36 L791.24 581.74 L798.26 586.94 L792.72 588.51 L786.96 589.91 L789.77 593.98 L795.24 599.03 L791.98 601.20 L785.91 602.31 L790.07 607.08 L786.84 609.16 L792.21 614.56 L783.16 614.29 L780.36 616.43 L781.85 620.37 L782.94 624.20 L782.25 627.28 L774.02 626.88 L778.01 632.12 L773.51 633.35 L777.62 638.80 L772.81 639.82 L768.23 640.88 L768.29 644.36 L769.03 648.24 L769.08 651.79 L762.82 651.75 L764.47 656.25 L760.51 657.45 L765.79 664.29 L762.78 666.08 L756.64 665.81 L756.18 669.17 L759.07 674.83 L758.34 678.12 L749.57 675.78 L749.84 679.73 L747.62 681.92 L749.80 687.40 L742.68 685.88 L737.40 685.63 L739.93 691.51 L737.65 693.61 L735.36 695.69 L732.85 697.58 L732.35 701.19 L730.03 703.23 L731.95 709.09 L727.35 709.11 L724.13 710.33 L723.80 714.26 L721.29 716.14 L722.64 721.85 L717.46 721.07 L715.81 723.83 L712.78 725.15 L716.14 733.33 L712.65 734.22 L705.96 731.46 L706.14 736.38 L702.81 737.31 L700.43 739.33 L696.00 738.85 L693.84 741.10 L689.42 740.49 L692.78 749.85 L691.32 753.15 L684.67 749.50 L685.17 755.49 L683.44 758.50 L684.16 765.09 L678.75 762.88 L675.73 764.07 L672.34 764.68 L673.52 772.41 L669.75 772.47 L661.53 765.14 L661.88 771.80 L660.01 774.87 L657.72 777.28 L653.76 776.73 L653.65 783.16 L653.55 789.84 L651.76 793.53 L649.33 796.06 L647.08 799.00 L645.85 804.12 L643.15 806.32 L640.40 808.45 L638.17 811.77 L635.36 813.86 L631.87 814.39 L628.47 815.08 L625.70 817.32 L622.72 819.07 L619.17 819.35 L615.81 820.07 L613.05 822.48 L609.60 822.97 L605.61 821.73 L602.20 822.19 L598.81 822.68 L595.44 823.15 L592.04 823.54 L588.63 823.83 L585.39 824.71 L581.64 823.57 L578.59 825.12 L575.15 825.09 L571.81 825.45 L568.77 827.18 L565.37 827.26 L562.33 829.13 L558.79 828.35 L555.44 828.56 L552.13 828.93 L548.52 827.32 L545.21 827.54 L541.91 827.82 L538.70 828.80 L535.39 828.99 L532.25 830.84 L529.38 836.16 L525.91 835.08 L522.63 836.43 L519.42 839.30 L516.03 839.52 L512.61 839.07 L509.13 836.05 L505.76 835.74 L502.38 832.49 L499.06 830.11 L495.80 827.13 L492.57 825.50 L489.19 829.19 L485.89 829.33 L482.25 835.56 L478.75 837.73 L475.24 839.39 L471.41 844.31 L468.09 842.78 L464.89 840.19 L461.61 838.79 L458.26 838.12 L455.01 836.73 L451.78 835.27 L448.67 833.23 L445.32 832.82 L441.87 832.98 L438.61 832.00 L435.63 829.64 L431.84 831.40 L428.36 831.51 L424.49 833.23 L420.30 836.12 L416.79 835.92 L412.84 837.37 L409.50 836.36 L406.32 834.81 L403.55 831.87 L400.17 831.12 L396.42 831.51 L393.40 829.56 L389.64 829.87 L386.28 828.97 L382.90 828.07 L379.83 826.33 L376.47 825.39 L372.43 826.15 L367.88 828.07 L364.17 827.81 L360.06 828.40 L355.37 830.21 L353.12 826.42 L351.32 821.78 L348.79 818.84 L346.74 814.99 L344.76 811.12 L342.02 808.84 L339.21 806.73 L336.64 804.19 L333.87 802.05 L330.53 800.96 L327.30 799.65 L325.36 796.13 L322.15 794.80 L319.74 792.15 L318.67 787.41 L316.07 785.18 L312.03 785.14 L308.84 783.76 L304.91 783.44 L298.23 786.95 L295.88 784.22 L292.37 783.08 L288.55 782.33 L285.82 780.10 L282.57 778.52 L280.13 775.91 L277.01 774.16 L273.84 772.44 L271.16 770.13 L269.13 767.07 L266.94 764.22 L263.40 762.88 L258.78 762.68 L254.63 761.89 L250.96 760.54 L245.17 761.32 L242.00 759.32 L240.21 755.95 L238.55 752.49 L237.27 748.70 L236.04 744.90 L235.83 740.23 L235.88 735.40 L233.75 732.56 L232.46 729.02 L231.73 725.03 L228.19 723.41 L226.42 720.31 L224.58 717.29 L220.99 715.63 L218.22 713.31 L217.53 709.42 L213.14 708.26 L210.22 705.99 L208.31 702.98 L206.24 700.09 L203.12 697.90 L200.54 695.33 L198.77 692.21 L196.74 689.27 L192.96 687.39 L192.68 683.37 L191.19 680.09 L187.78 677.92 L185.78 674.92 L184.52 671.51 L183.44 668.02 L180.84 665.33 L177.94 662.77 L173.91 660.73 L175.64 655.87 L179.46 650.11 L182.22 644.96 L179.85 642.19 L184.55 636.34 L186.90 631.63 L183.15 629.49 L180.99 626.67 L176.95 624.54 L179.58 619.86 L177.50 616.98 L176.86 613.57 L173.16 611.21 L174.46 607.14 L176.35 602.95 L173.11 600.39 L172.64 596.96 L170.53 594.01 L169.79 590.67 L166.69 587.94 L169.45 583.69 L161.54 582.10 L160.04 578.87 L164.73 574.26 L161.34 571.46 L160.92 568.02 L156.06 565.42 L156.89 561.71 L154.37 558.61 L156.17 554.77 L147.02 552.61 L147.96 548.88 L157.56 544.06 L151.03 541.36 L153.74 537.53 L154.59 533.95 L153.82 530.53 L152.49 527.15 L155.23 523.47 L147.15 520.48 L145.30 517.03 L153.82 513.15 L149.38 509.81 L151.40 506.26 L150.66 502.78 L151.62 499.29 L152.81 495.82 L153.32 492.36 L149.16 488.76 L148.04 485.20 L152.98 481.93 L150.63 478.30 L152.07 474.89 L149.35 471.17 L149.40 467.64 L149.65 464.13 L151.33 460.77 L145.48 456.52 L142.69 452.55 L151.97 450.23 L148.12 446.08 L148.28 442.50 L143.81 438.11 L146.81 434.99 L149.65 431.88 L147.19 427.73 L145.00 423.58 L145.48 419.96 L155.64 418.63 L152.09 414.11 L151.88 410.35 L149.48 405.99 L155.54 403.91 L158.00 400.90 L155.68 396.49 L155.15 392.55 L157.36 389.47 L161.66 387.11 L158.81 382.36 L162.56 379.86 L156.18 373.70 L160.84 371.55 L165.74 369.57 L164.95 365.39 L163.42 360.85 L164.18 357.21 L173.98 357.51 L171.26 352.39 L173.77 349.58 L173.03 345.25 L175.89 342.62 L179.53 340.41 L179.47 336.36 L180.44 332.81 L179.64 328.29 L184.90 327.03 L184.73 322.81 L188.37 320.73 L181.81 312.69 L185.05 310.34 L191.26 309.84 L190.62 305.15 L191.12 301.13 L190.06 296.03 L199.52 297.93 L201.24 294.71 L201.91 290.75 L200.23 285.07 L206.40 285.01 L211.30 284.13 L209.56 278.27 L212.05 275.58 L211.12 270.17 L217.54 270.64 L218.24 266.49 L221.36 264.33 L221.22 259.39 L224.23 257.14 L229.93 257.32 L230.22 252.66 L233.24 250.47 L232.31 244.53 L238.29 245.19 L240.31 242.05 L244.31 240.89 L245.48 236.87 L247.47 233.64 L252.83 234.02 L254.66 230.63 L257.35 228.18 L255.09 220.07 L260.99 221.23 L263.53 218.54 L266.36 216.20 L265.04 208.71 L265.38 203.10 L273.00 206.76 L273.96 201.89 L276.16 198.59 L276.21 192.26 L284.53 197.39 L289.31 197.75 L289.59 191.62 L288.32 183.00 L291.87 181.47 L297.17 182.70 L297.64 176.33 L302.29 176.63 L303.77 171.72 L311.57 177.48 L316.25 178.15 L318.58 174.73 L318.74 167.22 L322.03 165.35 L328.34 169.27 L329.04 162.40 L333.13 162.14 L333.92 155.09 L340.28 159.65 L344.95 160.80 L347.58 157.54 L350.03 153.76 L353.25 151.71 L358.57 154.71 L360.67 149.90 L364.81 150.15 L365.60 141.59 L370.72 144.47 L375.40 146.36 L378.14 142.77 L380.64 138.31 L383.99 136.28 L390.33 143.91 L392.42 137.86 L396.67 138.97 L399.49 135.06 L403.66 136.02 L408.25 138.79 L411.25 135.37 L414.31 131.96 L418.37 132.84 L422.79 135.55 L425.73 131.28 L429.90 133.03 L432.65 127.25 L436.58 127.78 L440.73 129.79 L444.17 127.47 L447.48 123.97 L450.84 120.33 L455.09 123.63 L458.60 120.81 L462.64 122.92 L465.77 115.41 L469.89 118.46 L474.00 122.52 L477.61 119.41 L481.55 121.88 L485.27 120.11 L489.18 123.82 L492.92 122.63 L496.72 125.80 L500.48 116.39 L504.33 114.96 L508.06 120.44 L511.99 116.38 L515.95 113.58 L520.08 108.53 L523.52 116.37 L527.45 115.34 L531.22 116.51 L535.68 110.07 L539.33 112.87 L542.44 120.04 L546.90 115.05 L551.20 112.13 L555.57 109.16 L558.36 117.10 L562.75 114.23 L566.19 117.26 L571.02 112.43 L574.40 115.73 L576.69 124.05 L581.43 120.25 L585.13 121.51 L589.85 118.41 L592.27 124.96 L595.97 126.09 L599.64 127.31 L604.84 123.00 L608.05 125.99 L609.75 133.89 L614.88 130.26 L618.28 132.31 L623.08 130.14 L625.79 134.24 L629.41 135.61 L632.77 137.67 L638.68 132.96 L642.14 134.88 L643.37 142.34 L649.09 138.58 L652.23 141.19 L658.70 136.11 L660.73 141.27 L663.52 144.61 L667.22 145.95 L672.63 143.75 L675.60 146.67 L675.03 156.48 L680.60 154.15 L685.12 153.97 L689.84 153.51 L690.68 160.11 L694.75 160.84 L698.39 162.36 L702.89 162.48 L706.87 163.53 L706.98 170.76 L712.70 169.07 L715.33 172.23 L722.75 168.21 L724.09 173.32 L726.31 177.05 L730.59 177.85 L735.40 177.98 L738.91 179.95 L737.52 188.36 L743.30 187.32 L743.59 193.32 L749.47 192.28 L751.34 196.24 L752.29 201.22 L755.83 203.11 L761.62 202.45 L766.89 202.52 L765.29 210.19 L770.67 210.17 L772.56 213.94 L781.39 210.53 L782.52 215.13 L782.10 221.18 L787.59 221.38 L791.32 223.36 L795.32 225.12 L790.85 234.67 L794.49 236.69 L800.50 236.68 L810.17 233.64 L810.36 238.82 L816.68 238.87 L831.38 232.27 L833.65 235.91 L835.82 239.61 L838.23 243.11 L840.24 246.91 L842.18 250.74 L844.44 254.33 L846.24 258.23 L847.91 262.21 L849.60 266.15 L851.21 270.12 L852.47 274.30 L853.56 278.56 L854.58 282.82 L855.27 287.25 L855.50 291.92 L856.32 296.19 L857.56 300.20 L859.44 303.84 L861.54 307.36 L865.28 310.04 L867.09 313.74 L869.41 317.18 L872.17 320.43 L875.80 323.29 L879.14 326.32 L881.03 330.04 L886.17 332.36 L888.63 335.89 L890.27 339.78 L891.23 343.94 L893.65 347.52 L895.55 351.32 L896.24 355.56 L897.18 359.70 L898.14 363.82 L899.04 367.96 L899.85 372.11 L901.41 376.03 L901.82 380.29 L903.12 384.27 L905.16 388.06 L906.91 391.95 L910.20 395.45 L910.96 399.63 L912.16 403.69 L913.30 407.77 L914.73 411.80 L914.31 416.21 L914.10 420.55 L915.35 424.61 L915.46 428.87 L914.82 433.25 L913.47 437.70 L913.09 441.97 L913.91 446.07 L915.20 450.12 L913.60 454.51 L914.26 458.62 L917.15 462.54 L918.56 466.63 L921.67 470.62 L922.77 474.79 L925.98 478.87 L927.91 483.06 L927.16 487.37 L925.49 491.68 L924.20 495.95 L947.62 500.00 L947.65 495.52 L946.60 491.07 L945.74 486.62 L945.32 482.18 L950.08 477.48 L953.31 472.77 L955.14 468.09 L960.93 463.05 L961.02 458.40 L961.71 453.67 L961.93 448.98 L957.86 444.79 L956.47 440.32 L953.63 436.07 L951.62 431.74 L949.11 427.52 L946.11 423.42 L943.59 419.28 L941.88 415.02 L940.11 410.78 L937.50 406.75 L935.49 402.62 L933.86 398.41 L932.06 394.27 L930.24 390.14 L929.39 385.77 L927.78 381.61 L926.38 377.39 L924.69 373.27 L922.62 369.27 L920.72 365.23 L919.16 361.10 L916.90 357.20 L914.74 353.29 L913.24 349.16 L910.96 345.32 L909.22 341.28 L907.74 337.14 L905.75 333.21 L904.43 329.01 L907.31 322.97 L908.67 317.50 L907.44 313.14 L910.87 306.57 L910.99 301.47 L908.55 297.58 L906.28 293.63 L903.44 289.96 L899.92 286.69 L895.53 283.92 L892.30 280.57 L888.11 277.78 L883.76 275.15 L880.28 272.05 L876.56 269.13 L873.00 266.15 L869.63 263.08 L866.46 259.91 L863.11 256.88 L860.00 253.71 L857.05 250.45 L853.79 247.42 L850.88 244.17 L847.92 240.96 L844.92 237.79 L841.92 234.64 L838.84 231.55 L835.87 228.39 L845.19 215.10 L845.33 209.13 L838.61 208.96 L842.39 199.70 L842.58 193.42 L839.48 190.03 L829.05 193.46 L828.05 188.20 L826.83 183.08 L826.03 177.47 L818.22 178.84 L813.82 176.87 L816.53 167.49 L811.16 166.52 L809.80 161.25 L802.21 162.84 L802.20 155.99 L800.94 150.45 L797.78 147.03 L792.06 146.71 L786.63 146.12 L785.07 140.77 L778.35 141.94 L776.99 136.24 L768.26 140.29 L766.14 135.59 L763.63 131.34 L760.89 127.36 L755.75 126.81 L749.80 127.56 L749.09 120.47 L744.74 118.85 L743.13 112.89 L735.05 117.31 L732.46 112.90 L729.56 108.91 L725.97 106.06 L722.17 103.56 L715.17 106.88 L712.35 102.64 L708.54 100.20 L706.88 93.54 L698.66 99.83 L694.70 97.76 L691.99 93.04 L688.91 88.96 L683.60 89.74 L677.70 92.03 L677.05 82.16 L672.25 81.90 L669.76 75.95 L662.83 81.19 L658.36 80.30 L655.34 75.49 L650.72 75.00 L645.88 75.20 L640.19 78.10 L637.53 71.82 L633.05 71.09 L629.92 65.90 L623.57 71.57 L619.36 70.07 L616.35 64.03 L611.48 64.87 L607.06 64.00 L601.32 68.80 L597.64 64.97 L592.94 65.66 L589.69 59.34 L583.69 66.69 L578.89 68.41 L575.43 62.67 L570.73 63.93 L566.73 60.84 L560.93 70.09 L557.07 66.14 L553.20 61.70 L549.36 56.33 L543.91 65.81 L539.42 67.08 L535.74 58.66 L531.20 60.02 L526.80 59.78 L522.06 66.16 L518.02 58.47 L513.60 58.43 L509.28 53.84 L504.75 60.13 L500.35 59.45 L495.86 50.19 L491.43 53.95 L486.95 53.33 L482.64 57.45 L478.17 56.79 L473.88 59.41 L469.22 55.97 L465.24 62.07 L461.17 65.89 L456.18 59.70 L452.00 62.20 L447.37 60.60 L443.66 66.41 L438.77 62.97 L434.33 63.15 L429.62 61.64 L425.55 64.23 L421.95 69.14 L417.13 67.26 L412.85 68.32 L407.85 65.96 L404.82 72.79 L400.28 72.57 L395.27 70.56 L390.33 69.06 L387.10 74.25 L383.81 78.86 L379.14 78.42 L375.60 81.92 L370.17 79.12 L369.07 90.15 L364.53 90.11 L359.19 87.84 L354.08 86.45 L351.53 92.25 L349.16 98.30 L342.21 92.23 L338.91 95.74 L333.63 94.34 L331.77 101.20 L327.27 101.72 L321.70 99.87 L317.31 100.82 L315.11 106.46 L313.18 112.47 L306.53 108.71 L304.22 113.82 L298.06 111.35 L296.43 117.61 L293.58 121.43 L288.61 121.38 L283.16 120.58 L281.93 127.13 L284.06 139.11 L277.64 136.67 L275.21 140.82 L269.10 139.14 L267.61 144.67 L265.46 149.10 L257.79 145.36 L250.82 142.87 L250.72 150.23 L252.45 159.92 L244.55 156.34 L240.82 158.50 L235.76 158.97 L237.60 168.25 L232.01 168.06 L225.21 166.52 L222.04 169.46 L219.55 173.19 L219.35 179.50 L211.35 176.94 L208.95 180.73 L204.40 182.19 L204.62 188.73 L201.42 191.59 L194.86 191.06 L192.76 195.09 L191.09 199.51 L191.15 205.52 L185.84 206.39 L184.95 211.41 L179.51 212.26 L181.28 219.56 L178.79 223.02 L172.45 223.21 L170.53 227.19 L166.73 229.62 L168.19 236.26 L162.74 237.39 L161.19 241.58 L154.27 241.73 L155.51 247.99 L158.14 255.12 L153.26 256.84 L149.72 259.54 L147.18 262.95 L152.79 271.73 L146.54 272.65 L142.41 275.01 L136.31 276.22 L140.37 283.65 L140.66 288.69 L129.24 286.93 L129.17 291.80 L126.53 295.20 L127.04 300.31 L122.37 302.64 L119.73 306.07 L116.78 309.37 L118.60 315.01 L117.89 319.36 L112.72 321.64 L113.58 326.70 L108.35 329.04 L113.50 335.86 L111.54 339.60 L109.12 343.16 L104.98 346.06 L107.48 351.54 L110.65 357.17 L102.16 358.55 L102.73 363.22 L98.54 366.25 L101.83 371.75 L100.74 375.80 L97.90 379.31 L93.64 382.45 L94.86 387.18 L98.44 392.49 L93.81 395.59 L92.95 399.70 L88.88 403.05 L98.74 409.60 L96.73 413.37 L93.15 416.85 L90.29 420.53 L92.40 425.16 L94.13 429.66 L88.45 432.91 L88.12 437.08 L83.68 440.66 L90.78 445.84 L87.80 449.63 L81.46 453.10 L80.81 457.27 L82.44 461.65 L83.47 465.94 L79.16 469.82 L80.44 474.13 L78.37 478.23 L84.02 482.69 L83.09 486.82 L78.83 490.90 L80.23 495.13 L81.19 499.33 L81.05 503.52 L78.46 507.76 L81.48 511.89 L77.52 516.23 L86.36 520.04 L87.75 524.11 L83.36 528.55 L85.92 532.53 L85.93 536.70 L89.13 540.56 L88.93 544.74 L90.34 548.74 L86.23 553.43 L97.29 556.10 L98.43 560.04 L88.00 565.82 L91.31 569.48 L91.34 573.69 L91.06 577.97 L91.55 582.12 L93.98 585.87 L91.74 590.61 L101.36 592.67 L101.83 596.77 L94.97 602.73 L99.34 605.90 L99.30 610.21 L101.87 613.80 L102.12 618.04 L104.85 621.55 L103.06 626.45 L108.00 629.21 L111.42 632.41 L108.09 637.93 L110.75 641.39 L112.23 645.25 L116.73 647.95 L116.64 652.41 L118.30 656.19 L117.45 661.02 L124.79 662.37 L130.90 664.13 L131.22 668.42 L140.70 668.45 L150.19 668.29 L155.86 669.82 L159.59 672.24 L162.37 675.09 L164.27 678.39 L165.60 681.99 L167.47 685.31 L169.49 688.54 L168.22 693.69 L168.55 697.96 L170.88 701.06 L170.15 706.07 L170.16 710.68 L172.19 714.03 L173.94 717.56 L176.81 720.35 L180.40 722.62 L184.55 724.45 L186.29 727.96 L186.59 732.57 L188.22 736.24 L191.79 738.42 L192.60 742.74 L191.59 748.59 L198.63 747.93 L202.20 750.02 L203.41 754.11 L208.13 755.17 L213.11 755.92 L217.38 757.23 L221.42 758.70 L226.39 759.22 L230.53 760.47 L234.07 762.23 L237.25 764.33 L240.26 766.59 L242.51 769.62 L245.43 771.96 L248.28 774.36 L250.66 777.29 L253.28 779.95 L256.18 782.31 L258.73 785.06 L261.42 787.67 L262.46 792.31 L263.62 796.90 L266.33 799.60 L267.72 804.04 L270.51 806.70 L273.43 809.19 L276.74 811.16 L279.79 813.48 L282.32 816.55 L286.31 817.52 L288.38 821.32 L291.60 823.43 L295.86 823.89 L300.11 824.29 L304.20 824.89 L308.37 825.28 L312.87 825.02 L317.22 824.93 L321.02 825.76 L324.88 826.44 L328.68 827.17 L332.22 828.36 L335.76 829.51 L339.41 830.43 L342.99 831.44 L346.56 832.47 L350.25 833.19 L353.85 834.08 L357.02 835.95 L360.29 837.59 L363.67 838.96 L366.92 840.70 L370.02 842.84 L373.26 844.64 L376.75 845.81 L380.05 847.50 L383.13 849.86 L386.07 852.75 L389.58 853.95 L392.51 857.11 L396.05 858.27 L400.04 857.84 L403.62 858.84 L407.80 857.51 L411.29 858.79 L414.46 861.46 L417.79 863.56 L421.24 865.24 L424.87 866.13 L428.20 868.60 L432.10 868.12 L436.12 866.90 L439.40 869.87 L442.96 871.41 L446.88 870.53 L450.83 869.27 L454.74 867.98 L458.71 865.81 L462.63 863.70 L466.46 862.04 L470.14 861.56 L473.32 867.97 L476.81 871.18 L480.47 872.43 L483.94 878.68 L487.58 883.40 L491.41 883.65 L495.25 883.11 L499.09 880.12 L502.89 879.43 L506.58 873.80 L510.18 868.47 L513.79 866.56 L517.34 863.98 L520.85 861.46 L524.81 866.41 L528.62 868.07 L532.58 870.96 L536.87 876.48 L540.55 875.38 L544.42 875.96 L548.02 874.23 L551.59 872.54 L555.22 871.34 L558.41 867.54 L562.11 867.11 L566.07 868.06 L569.22 864.62 L572.94 864.27 L577.16 866.31 L581.04 866.52 L584.49 864.78 L587.69 862.06 L591.42 861.64 L594.43 858.42 L597.29 854.82 L600.47 852.58 L604.08 851.83 L607.52 850.56 L610.54 847.96 L613.88 846.41 L617.42 845.48 L620.56 843.43 L623.44 840.68 L626.66 838.95 L630.19 838.05 L633.24 835.92 L636.25 833.72 L639.68 832.59 L643.08 831.35 L645.91 828.84 L649.15 827.27 L652.60 826.16 L656.04 825.00 L660.10 825.09 L664.21 825.18 L667.39 823.41 L670.39 821.30 L677.18 826.18 L682.53 828.15 L683.68 822.58 L688.87 824.12 L693.15 823.97 L699.26 826.75 L697.75 817.10 L699.82 813.40 L705.06 814.62 L707.87 812.06 L710.31 808.99 L709.70 801.56 L715.38 803.23 L718.93 801.79 L724.88 803.55 L723.01 794.81 L726.66 793.49 L735.26 798.41 L736.55 793.95 L739.46 791.55 L740.62 787.06 L743.53 784.70 L745.57 781.34 L750.55 781.31 L747.96 772.86 L749.61 769.23 L757.01 771.71 L758.41 767.77 L761.61 765.71 L760.82 759.67 L765.06 758.67 L766.69 755.09 L772.07 755.08 L770.77 748.82 L771.23 744.29 L777.96 745.36 L779.69 741.96 L784.52 741.20 L784.02 735.94 L788.86 735.12 L793.59 734.13 L797.79 732.64 L797.22 727.44 L796.44 722.18 L801.08 720.99 L801.00 716.34 L804.55 714.31 L799.58 706.36 L802.09 703.67 L805.63 701.63 L809.35 699.67 L806.98 693.82 L808.23 690.33 L817.24 691.54 L816.27 686.66 L821.76 685.59 L818.82 679.67 L823.68 678.17 L826.89 675.70 L829.88 673.08 L828.63 668.25 L825.86 662.74 L831.63 661.50 L830.02 656.65 L834.79 654.84 L830.19 648.72 L832.52 645.78 L835.85 643.26 L839.58 640.85 L837.93 636.22 L832.38 630.14 L838.67 628.71 L836.97 624.22 L843.31 622.67 L838.94 617.30 L838.57 613.40 L844.64 611.61 L849.69 609.39 L846.11 604.48 L841.63 599.42 L849.10 597.82 L849.51 594.17 L852.71 591.26 L846.12 585.87 L849.79 583.08 L854.16 580.38 L855.54 576.97 L854.27 572.99 L851.31 568.72 L859.75 566.65 L858.84 562.77 L861.61 559.54 L856.55 555.05 L856.62 551.41 L857.67 547.92 L858.04 544.33 L856.70 540.55 L850.90 536.34 L856.45 533.31 L855.18 529.61 L858.94 526.32 L854.04 522.40 L854.55 518.87 L858.73 515.50 L859.49 511.93 L860.86 508.37 L854.16 504.67 L858.11 501.14 L857.88 497.56 L860.99 493.93 L857.72 490.41 L856.42 486.87 L859.24 483.17 L859.82 479.53 L859.23 475.96 L852.81 472.85 L854.31 469.16 L852.26 465.79 L857.43 461.68 L850.00 458.93 L846.82 455.78 L854.29 451.22 L852.38 447.89 L851.94 444.35 L846.44 441.67 L850.00 437.46 L849.28 433.98 L850.93 430.03 L845.77 427.45 L844.10 424.20 L848.67 419.53 L845.60 416.59 L845.83 412.87 L838.91 411.00 L838.91 407.36 L840.16 403.36 L841.09 399.40 L835.80 397.30 L833.26 394.42 L837.28 389.42 L834.02 386.78 L834.65 382.82 L824.59 382.68 L822.71 379.70 L821.22 376.59 L822.95 372.20 L819.71 369.77 L815.05 367.98 L820.68 361.84 L822.53 357.20 L821.95 353.59 L812.05 354.31 L812.02 350.50 L812.24 346.54 L813.04 342.24 L806.88 341.48 L803.93 339.13 L806.79 333.67 L804.15 331.14 L804.84 326.75 L796.67 327.45 L798.88 322.13 L801.42 316.52 L800.25 313.09 L795.25 312.08 L791.91 310.08 L794.09 304.44 L787.14 304.90 L788.39 299.80 L781.79 300.18 L780.31 296.98 L780.01 292.91 L778.97 289.32 L775.02 287.95 L768.73 288.49 L769.28 283.66 L765.05 282.66 L766.90 276.64 L758.09 279.59 L756.74 276.27 L757.78 270.78 L756.06 267.69 L752.96 265.84 L748.64 265.18 L748.67 260.41 L745.96 258.22 L747.02 252.28 L738.45 256.04 L735.26 254.44 L734.77 250.00 L732.53 247.36 L729.49 245.61 L723.32 247.42 L725.00 240.33 L722.80 237.61 L722.30 232.83 L716.33 234.65 L712.80 233.59 L712.67 228.22 L708.95 227.40 L705.66 226.06 L700.25 227.64 L700.34 221.72 L697.56 219.72 L696.65 214.99 L690.27 218.25 L686.10 218.40 L685.42 213.24 L681.24 213.46 L678.22 211.90 L672.50 214.80 L671.67 209.65 L668.44 208.51 L668.01 202.42 L662.08 206.10 L657.72 207.13 L658.26 198.94 L654.34 199.14 L651.93 196.38 L647.24 198.27 L644.18 196.87 L642.06 193.48 L640.88 187.88 L634.45 194.00 L630.02 195.87 L629.31 188.94 L625.95 188.27 L622.51 187.83 L617.40 191.83 L615.98 186.15 L612.78 185.17 L611.14 179.68 L605.80 184.96 L602.06 185.69 L601.52 176.40 L597.41 178.24 L594.67 175.66 L590.75 177.09 L587.80 175.17 L583.80 177.19 L581.60 172.20 L576.64 178.43 L572.17 183.19 L570.89 173.79 L567.12 175.54 L564.06 173.89 L560.46 175.10 L557.66 171.92 L554.20 172.46 L551.62 167.41 L547.54 172.09 L543.81 174.95 L541.49 167.07 L537.88 169.10 L534.94 165.18 L531.23 168.67 L527.88 168.86 L524.63 167.71 L521.48 164.80 L517.85 169.69 L514.33 174.49 L511.31 167.22 L507.94 168.86 L504.65 167.11 L501.32 169.02 L498.00 167.74 L494.67 167.54 L491.27 164.56 L488.03 167.70 L484.93 172.72 L481.37 167.82 L478.10 168.81 L474.62 166.77 L471.65 171.19 L468.40 171.90 L464.86 169.83 L461.40 168.80 L458.37 171.43 L455.65 175.96 L451.89 172.89 L448.92 175.23 L445.15 172.65 L442.91 179.03 L440.05 181.47 L436.18 178.60 L432.69 177.94 L429.94 180.72 L428.29 188.14 L424.77 187.18 L422.87 192.83 L421.49 200.09 L420.16 207.00 L418.02 210.55 L415.05 211.13 L412.07 211.68 L409.22 212.68 L406.50 214.04 L403.75 215.31 L400.16 214.13 L397.01 214.34 L394.32 215.80 L390.47 214.23 L387.57 215.23 L384.61 216.07 L381.40 216.33 L379.06 218.68 L376.15 219.68 L373.72 221.74 L371.40 223.99 L366.56 220.94 L362.65 219.99 L359.95 221.55 L357.23 223.09 L352.09 220.02 L351.44 225.47 L351.63 232.26 L348.40 232.77 L347.10 236.65 L346.38 241.39 L345.17 245.20 L343.73 248.52 L342.17 251.60 L340.44 254.33 L338.52 256.73 L336.43 258.86 L334.38 261.01 L331.39 261.83 L328.78 263.20 L326.46 264.96 L323.66 266.10 L321.06 267.53 L318.63 269.18 L315.78 270.33 L313.59 272.29 L310.62 273.34 L306.49 273.04 L303.71 274.39 L299.64 274.31 L296.58 275.43 L294.62 277.78 L291.69 279.07 L290.37 282.09 L288.06 284.04 L286.98 287.24 L284.51 289.04 L282.54 291.33 L282.17 295.11 L281.70 298.75 L280.90 302.03 L280.00 305.18 L279.73 308.83 L279.20 312.21 L277.63 314.67 L276.09 317.16 L275.18 320.13 L274.15 322.98 L272.95 325.68 L271.75 328.36 L270.61 331.07 L269.40 333.70 L268.25 336.37 L267.09 339.02 L264.56 340.72 L262.19 342.57 L261.04 345.22 L258.77 347.15 L256.55 349.13 L255.17 351.64 L253.94 354.25 L252.28 356.59 L250.68 358.97 L246.65 360.02 L245.28 362.57 L244.08 365.21 L240.50 366.62 L240.71 369.99 L240.63 373.18 L240.85 376.48 L238.58 378.59 L235.43 380.33 L233.18 382.51 L229.60 384.15 L228.21 386.76 L225.95 389.02 L224.82 391.75 L226.81 395.68 L224.93 398.10 L223.53 400.72 L223.99 403.98 L223.83 407.01 L223.97 410.12 L225.77 413.73 L225.58 416.68 L225.68 419.70 L228.13 423.36 L224.23 425.23 L218.51 426.69 L215.87 429.03 L211.19 430.92 L204.04 432.33 L202.36 435.07 L202.98 438.31 L204.12 441.63 L207.01 445.24 L210.81 448.94 L215.63 452.71 L216.66 455.79 L218.80 459.00 L219.72 461.99 L217.88 464.61 L217.28 467.41 L217.62 470.30 L212.59 472.68 L210.13 475.37 L210.47 478.31 L207.32 481.01 L206.32 483.90 L206.26 486.84 L207.84 489.84 L208.10 492.77 L206.49 495.66 L210.49 498.62 L210.26 501.51 L207.59 504.45 L209.71 507.32 L210.34 510.21 L210.47 513.10 L212.16 515.91 L215.35 518.59 L216.24 521.39 L215.92 524.27 L216.77 527.05 L216.81 529.91 L216.30 532.83 L217.53 535.56 L219.93 538.10 L221.24 540.77 L222.06 543.49 L223.60 546.09 L225.13 548.66 L225.41 551.45 L225.75 554.23 L227.58 556.70 L229.37 559.16 L229.98 561.86 L230.68 564.55 L232.49 566.95 L233.64 569.50 L235.71 571.79 L238.35 573.89 L240.62 576.05 L244.01 577.85 L245.10 580.31 L243.15 583.76 L243.28 586.56 L242.02 589.87 L240.24 593.42 L241.35 595.95 L243.42 598.11 L244.62 600.59 L245.43 603.22 L243.98 606.80 L242.88 610.29 L241.63 613.90 L237.92 618.68 L240.23 620.78 L241.18 623.50 L241.12 626.72 L245.64 627.68 L247.62 629.86 L249.81 631.91 L251.53 634.20 L254.98 635.52 L259.77 636.03 L262.41 637.69 L265.28 639.18 L267.87 640.80 L270.03 642.65 L271.19 645.12 L272.67 647.39 L275.27 648.92 L278.25 650.16 L280.12 652.12 L282.04 654.04 L284.48 655.57 L286.22 657.59 L287.34 660.06 L289.08 662.09 L291.72 663.39 L293.55 665.32 L295.48 667.16 L297.72 668.73 L300.08 670.19 L301.75 672.21 L303.36 674.29 L305.55 675.86 L307.69 677.45 L306.10 682.54 L305.70 686.61 L307.32 688.80 L305.21 694.72 L305.34 698.52 L307.72 700.06 L309.84 701.86 L312.21 703.38 L315.48 703.89 L319.32 703.70 L322.28 704.45 L325.87 704.41 L329.35 704.44 L332.43 704.87 L335.42 705.37 L338.06 706.28 L340.54 707.34 L343.15 708.23 L345.75 709.10 L348.17 710.19 L350.66 711.15 L353.28 711.91 L355.64 713.03 L358.07 714.02 L360.45 715.07 L362.82 716.12 L365.10 717.29 L367.50 718.27 L361.66 733.13 L363.72 734.97 L366.31 735.92 L363.13 747.26 L364.89 749.93 L367.25 751.56 L371.98 748.59 L373.65 751.48 L376.11 752.87 L377.76 755.94 L381.49 754.65 L383.97 755.97 L384.58 761.55 L387.51 761.97 L390.00 763.43 L394.36 760.27 L397.21 760.69 L400.30 760.46 L401.47 765.32 L405.15 763.44 L409.64 759.09 L410.36 765.54 L413.28 765.63 L415.61 767.51 L419.99 762.78 L422.37 764.42 L424.59 766.70 L426.82 769.03 L430.49 766.01 L434.11 762.90 L435.42 769.05 L438.45 768.23 L440.56 771.44 L444.48 766.27 L446.51 770.00 L448.42 774.76 L451.15 775.38 L454.12 774.57 L456.92 774.65 L459.13 778.73 L462.23 776.89 L464.66 779.98 L468.04 775.33 L470.87 774.86 L473.45 776.91 L476.18 777.69 L479.17 775.08 L482.08 772.83 L484.55 777.65 L487.39 776.55 L490.12 777.73 L492.97 774.82 L495.72 774.47 L498.46 775.82 L501.22 776.65 L503.98 776.02 L506.62 770.84 L509.43 773.82 L512.13 772.95 L515.01 775.43 L517.37 769.27 L520.02 768.48 L522.98 771.52 L525.76 772.04 L528.47 771.62 L530.71 767.25 L533.77 770.00 L536.51 769.97 L539.69 772.92 L541.21 764.75 L543.68 763.26 L547.33 768.60 L549.74 766.62 L552.28 765.50 L554.61 763.42 L558.18 767.14 L560.53 765.18 L563.85 767.37 L565.34 761.96 L567.21 758.42 L570.39 759.98 L572.80 758.58 L575.37 757.80 L577.66 756.11 L581.46 759.28 L584.13 758.71 L587.56 760.35 L588.89 755.83 L590.82 753.17 L594.47 755.29 L596.75 753.63 L598.83 751.50 L601.05 749.77 L604.03 749.92 L605.80 747.19 L609.59 749.13 L610.26 744.00 L610.98 739.18 L615.00 741.49 L616.62 738.72 L619.42 738.38 L618.94 731.60 L623.49 734.67 L626.92 735.43 L629.63 734.80 L630.43 730.77 L632.27 728.66 L636.70 730.96 L637.76 727.53 L640.51 726.92 L640.63 722.12 L643.12 721.13 L645.07 719.30 L648.72 720.01 L648.41 714.88 L648.58 710.60 L654.01 713.73 L655.26 710.98 L658.04 710.32 L658.21 706.21 L662.27 707.18 L664.56 705.84 L667.53 705.30 L668.08 701.82 L667.96 697.63 L672.67 699.10 L673.97 696.59 L676.85 695.87 L675.78 690.81 L676.81 688.12 L677.75 685.37 L681.08 685.10 L681.09 681.44 L679.91 676.70 L686.04 679.09 L687.45 676.87 L690.97 676.62 L688.91 671.24 L690.45 669.20 L692.72 667.80 L697.07 668.14 L696.35 664.17 L693.76 658.74 L700.16 660.67 L700.64 657.78 L705.74 658.48 L703.73 653.71 L705.20 651.63 L709.71 651.74 L712.66 650.66 L712.18 647.15 L711.76 643.74 L717.67 644.60 L718.69 642.15 L721.46 640.82 L720.84 637.34 L722.26 635.16 L724.20 633.29 L725.86 631.23 L725.62 628.10 L723.73 624.08 L726.58 622.72 L727.02 620.03 L729.40 618.37 L728.47 615.01 L730.37 613.10 L734.07 612.02 L735.51 609.83 L735.45 606.95 L733.21 603.13 L735.40 601.30 L733.87 597.88 L737.54 596.63 L734.58 592.71 L734.20 589.86 L738.66 588.85 L740.44 586.78 L740.27 584.01 L736.84 580.16 L741.81 579.16 L743.07 576.89 L746.36 575.23 L743.77 571.78 L744.72 569.41 L748.45 567.79 L748.57 565.16 L748.25 562.43 L742.56 558.43 L743.86 556.17 L743.22 553.46 L745.07 551.31 L742.49 548.24 L744.13 546.03 L749.39 544.45 L749.15 541.84 L749.35 539.31 L745.75 536.23 L747.45 533.95 L748.04 531.51 L750.94 529.33 L749.06 526.59 L747.98 523.97 L750.10 521.66 L749.59 519.10 L749.59 516.59 L744.64 513.80 L745.32 511.38 L744.97 508.91 L747.23 506.52 L742.59 503.97 L738.60 501.52 L743.98 499.11 L741.45 496.71 L743.50 494.25 L737.42 492.01 L742.78 489.40 L746.67 486.76 L747.28 484.24 L745.86 481.86 L744.43 479.51 L748.06 476.71 L745.46 474.47 L746.36 471.89 L740.40 470.13 L739.44 467.81 L739.97 465.29 L741.17 462.66 L738.70 460.59 L736.95 458.44 L741.45 455.16 L740.21 452.90 L740.54 450.33 L735.48 448.92 L734.78 446.60 L735.86 443.87 L737.12 441.06 L733.95 439.36 L731.50 437.52 L735.41 433.93 L732.99 432.09 L734.82 429.00 L729.50 428.09 L728.57 425.87 L728.99 423.19 L728.49 420.81 L726.09 419.10 L722.59 417.83 L724.22 414.67 L722.29 412.85 L724.74 409.29 L716.59 410.05 L715.39 408.01 L718.59 404.05 L717.38 401.98 L716.04 399.97 L712.83 398.86 L715.70 394.84 L714.19 392.91 L715.35 389.63 L710.29 389.55 L708.18 387.99 L709.02 384.82 L708.06 382.63 L706.09 381.00 L702.89 380.13 L704.46 376.43 L702.51 374.83 L703.10 371.64 L698.37 371.84 L695.96 370.59 L696.36 367.49 L695.00 365.55 L694.13 363.27 L688.50 364.39 L688.62 361.42 L686.54 360.06 L687.31 356.53 L681.59 358.01 L678.96 357.16 L680.55 352.91 L678.60 351.50 L677.56 349.34 L672.57 350.58 L672.63 347.48 L671.77 345.15 L673.03 340.85 L666.60 343.66 L663.09 343.86 L665.42 338.43 L663.18 337.40 L662.12 335.19 L658.38 335.74 L659.11 331.64 L658.11 329.31 L658.42 325.51 L653.39 327.61 L649.36 328.73 L649.42 325.16 L647.68 323.66 L645.72 322.42 L642.86 322.31 L643.58 317.72 L641.34 316.82 L641.11 313.28 L636.97 314.94 L633.12 316.33 L633.37 312.06 L631.28 311.03 L629.54 309.49 L625.53 311.37 L624.54 308.74 L622.07 308.36 L621.28 305.33 L617.45 307.22 L613.76 309.00 L614.12 303.96 L611.13 304.63 L610.39 301.33 L606.36 304.00 L604.33 303.06 L603.03 300.72 L602.66 296.46 L598.39 299.99 L594.81 302.30 L596.05 294.47 L593.85 293.82 L591.84 292.76 L588.55 294.66 L587.39 291.66 L585.19 291.06 L583.78 288.51 L580.68 290.23 L577.11 293.37 L575.90 290.24 L573.07 291.55 L571.56 289.13 L568.23 292.14 L566.82 289.36 L565.58 285.85 L563.81 283.92 L561.15 285.05 L558.10 287.72 L556.96 283.41 L554.51 283.96 L552.82 281.49 L550.06 283.45 L548.10 282.01 L546.21 280.16 L544.11 279.19 L541.59 280.40 L538.59 284.48 L536.59 283.15 L533.98 285.56 L532.35 281.79 L529.38 287.15 L527.19 287.33 L525.78 280.99 L523.56 281.01 L521.20 282.53 L518.70 286.00 L517.05 279.50 L514.80 280.04 L512.66 278.83 L510.39 279.91 L508.21 279.20 L506.08 276.36 L503.83 276.79 L501.60 277.14 L499.38 279.98 L497.17 279.49 L494.99 280.62 L492.73 278.68 L490.63 281.28 L488.47 281.97 L486.16 279.98 L484.00 280.75 L481.85 281.37 L480.03 285.49 L477.75 284.43 L475.80 286.46 L473.09 282.02 L471.68 288.07 L469.94 291.00 L467.31 287.77 L465.29 288.72 L463.10 288.64 L461.50 291.75 L458.94 289.71 L456.95 290.66 L454.11 287.66 L452.91 292.19 L451.26 294.48 L447.85 289.48 L445.89 290.55 L443.79 291.10 L442.63 294.98 L440.40 294.93 L438.71 296.71 L435.85 294.67 L435.63 300.98 L434.29 303.58 L430.70 299.53 L429.15 301.50 L426.89 301.47 L426.06 305.23 L423.46 304.32 L421.01 303.85 L418.22 302.63 L416.99 305.21 L415.33 306.69 L412.11 304.69 L410.47 306.24 L408.54 307.14 L408.60 312.15 L406.66 312.93 L404.93 314.15 L402.09 313.22 L401.53 316.64 L401.62 321.12 L397.71 318.34 L396.46 320.34 L393.82 319.95 L393.60 323.64 L390.40 322.37 L387.51 321.70 L385.23 322.05 L384.30 324.49 L383.87 327.61 L381.09 327.24 L379.95 329.27 L377.29 329.14 L379.31 335.45 L376.80 335.51 L372.72 333.55 L370.95 334.69 L370.01 336.87 L369.04 338.99 L365.74 338.27 L365.25 340.94 L362.81 341.30 L364.95 346.90 L364.28 349.21 L361.79 349.50 L360.01 350.58 L360.10 353.64 L358.74 355.14 L354.19 353.44 L353.81 355.97 L350.97 356.08 L353.00 360.85 L351.91 362.61 L348.47 362.20 L347.51 364.09 L346.90 366.27 L347.30 369.29 L344.82 369.83 L345.68 373.16 L341.84 372.64 L344.88 377.62 L344.83 380.07 L341.28 379.85 L339.15 380.75 L338.51 382.76 L340.34 386.51 L337.70 387.05 L336.36 388.54 L331.71 387.81 L336.81 393.56 L337.62 396.38 L333.33 395.98 L331.91 397.41 L332.38 399.99 L336.40 404.59 L332.10 404.32 L330.13 405.44 L326.30 405.57 L329.73 409.62 L329.86 411.87 L325.20 411.66 L323.56 413.03 L322.94 414.91 L324.56 417.84 L319.51 417.67 L318.88 419.56 L316.75 420.80 L319.48 424.11 L320.12 426.49 L315.69 426.82 L316.22 429.15 L314.23 430.51 L315.70 433.15 L313.41 434.42 L312.95 436.35 L310.34 437.58 L314.07 440.86 L316.22 443.56 L312.28 444.40 L313.84 446.88 L311.74 448.31 L316.82 451.67 L315.18 453.21 L314.08 454.90 L311.79 456.33 L316.00 459.25 L318.22 461.64 L310.15 461.92 L310.15 463.89 L310.86 465.98 L312.38 468.19 L309.47 469.65 L309.93 471.67 L306.75 473.17 L309.47 475.49 L311.42 477.65 L306.95 479.08 L308.23 481.15 L308.03 483.07 L309.79 485.14 L308.18 486.94 L309.64 488.95 L306.86 490.73 L308.83 492.74 L312.87 494.77 L310.04 496.59 L310.89 498.49 L308.84 500.39 L314.40 502.23 L315.34 504.07 L314.89 505.93 L312.67 507.88 L315.86 509.59 L319.36 511.22 L314.00 513.42 L315.09 515.20 L312.92 517.27 L318.13 518.62 L318.12 520.46 L316.03 522.56 L314.34 524.66 L316.84 526.19 L320.35 527.53 L314.92 530.26 L315.54 532.05 L313.84 534.27 L317.62 535.46 L317.29 537.42 L314.92 539.84 L315.07 541.75 L317.92 543.02 L323.66 543.53 L322.87 545.61 L325.08 546.91 L323.40 549.26 L327.18 550.08 L325.86 552.35 L321.64 555.57 L321.82 557.48 L324.35 558.60 L328.43 559.16 L326.14 561.90 L327.88 563.23 L326.71 565.63 L330.15 566.28 L331.39 567.74 L330.78 569.96 L330.96 571.87 L332.27 573.31 L336.87 573.25 L335.00 576.08 L336.78 577.25 L335.58 579.84 L340.55 579.41 L343.02 580.14 L342.26 582.53 L342.41 584.47 L343.55 585.88 L349.96 584.33 L345.33 588.98 L344.95 591.27 L344.51 593.64 L347.60 593.86 L349.08 595.05 L348.49 597.55 L350.51 598.38 L351.21 600.06 L357.94 597.62 L357.67 599.91 L357.36 602.27 L356.49 605.09 L359.72 604.89 L360.06 606.84 L357.48 611.07 L359.29 611.95 L360.45 613.32 L365.56 611.42 L365.28 613.95 L366.02 615.64 L365.14 618.77 L369.33 617.42 L372.69 616.72 L371.75 619.96 L374.32 619.94 L374.57 622.12 L378.85 620.33 L379.16 622.45 L379.55 624.53 L379.19 627.42 L382.26 626.70 L385.07 626.18 L382.94 631.14 L385.08 631.36 L385.27 633.82 L389.71 631.27 L390.30 633.25 L390.67 635.54 L393.88 634.29 L396.31 633.95 L397.65 634.98 L399.16 635.79 L400.96 636.20 L403.83 635.06 L406.26 634.48 L408.20 634.54 L409.92 634.90 L410.49 636.99 L412.14 637.45 L412.44 640.05 L412.58 642.98 L415.23 641.82 L416.87 642.29 L418.25 643.20 L419.77 643.85 L420.30 646.33 L422.06 646.56 L422.71 648.92 L423.90 650.27 L425.57 650.69 L427.55 650.46 L430.18 648.78 L432.26 648.19 L434.19 647.86 L436.38 646.89 L437.68 647.91 L438.47 650.22 L439.79 651.29 L441.39 651.67 L442.91 652.24 L444.68 652.14 L447.08 650.20 L448.79 650.13 L449.74 652.29 L451.14 653.18 L452.43 654.45 L453.62 656.12 L455.07 656.96 L456.84 656.71 L459.12 654.46 L460.93 653.81 L462.60 653.67 L464.71 651.57 L465.89 653.41 L466.83 656.59 L468.13 658.24 L469.43 660.01 L470.99 660.54 L472.60 660.84 L474.20 661.14 L476.11 659.41 L477.63 660.21 L479.05 661.78 L480.73 661.51 L482.28 662.26 L483.88 662.65 L485.54 662.52 L487.30 660.87 L489.05 658.99 L490.72 657.67 L492.48 654.10 L494.09 652.37 L495.65 651.07 L497.20 649.22 L498.69 649.81 L500.19 650.20 L501.68 649.47 L503.18 649.51 L504.69 649.97 L506.14 648.89 L507.64 649.01 L509.20 650.02 L510.73 650.42 L512.34 651.61 L514.01 653.09 L515.43 651.90 L516.77 650.11 L518.10 648.54 L519.20 645.48 L520.77 646.11 L522.30 646.35 L523.85 646.65 L525.96 650.12 L527.59 650.56 L528.92 649.35 L530.69 650.45 L532.02 649.32 L533.35 648.26 L534.95 648.44 L536.38 647.88 L537.90 647.67 L539.10 646.26 L540.14 644.33 L541.61 644.02 L543.13 643.86 L544.13 642.05 L545.89 642.66 L547.24 641.96 L549.30 643.34 L550.86 643.23 L551.10 639.44 L552.09 637.86 L553.21 636.68 L553.04 632.31 L553.40 629.46 L554.51 628.49 L555.62 627.53 L557.20 627.66 L558.83 627.86 L560.56 628.22 L562.40 628.76 L563.71 628.20 L564.89 627.35 L566.17 626.71 L566.66 624.60 L567.90 623.93 L570.41 625.52 L572.60 626.44 L574.87 627.42 L576.39 627.07 L577.93 626.75 L578.91 625.52 L578.48 622.10 L579.74 621.38 L581.27 621.05 L582.32 620.00 L583.95 619.80 L585.53 619.49 L586.81 618.75 L587.15 616.75 L586.88 614.00 L587.03 611.85 L586.11 608.42 L585.56 605.53 L587.28 605.48 L588.73 605.08 L590.86 605.45 L593.72 606.59 L594.96 605.84 L596.18 605.08 L596.98 603.85 L598.77 603.66 L599.68 602.55 L600.15 600.98 L601.26 600.09 L601.63 598.46 L601.30 596.19 L600.93 593.94 L600.65 591.82 L600.81 590.13 L601.54 588.98 L603.40 588.79 L605.68 588.93 L607.78 588.87 L611.25 589.88 L613.56 589.89 L614.74 588.97 L615.56 587.77 L616.04 586.32 L615.72 584.30 L615.05 582.06 L614.50 579.95 L613.78 577.76 L613.51 575.93 L613.75 574.45 L614.12 573.07 L615.17 572.14 L616.69 571.47 L618.20 570.78 L619.60 570.00 L620.48 568.91 L620.68 567.43 L621.21 566.15 L621.82 564.91 L622.14 563.52 L622.25 562.03 L621.69 560.22 L621.29 558.52 L621.37 557.07 L620.97 555.41 L620.26 553.64 L620.00 552.09 L618.61 550.08 L616.64 547.89 L614.03 545.48 L612.14 543.44 L611.96 542.08 L611.61 540.68 L611.56 539.41 L611.80 538.24 L610.98 536.72 L609.68 535.08 L608.35 533.46 L607.23 531.95 L606.08 530.45 L604.75 528.94 L603.67 527.53 L602.59 526.15 L601.48 524.79 L600.56 523.50 L600.06 522.33 L599.90 521.25 L599.89 520.20 L599.89 519.17 L599.87 518.13 L599.82 517.09 L599.77 516.05 L599.71 515.02 L599.64 514.00 L599.58 512.97 L599.51 511.95 L599.44 510.94 L599.37 509.93 L599.28 508.91 L599.18 507.91 L599.07 506.90 L598.96 505.90 L598.83 504.90 L598.69 503.91 L598.54 502.91 L598.38 501.92 L598.22 500.94 Z"/>
  <svg class="pausebutton" id="pausebutton">
    <circle cx="500" cy="500" id="pausestart" class="pausestart" r="52.65"/>
    <rect height="50.02" width="10.00" y="473.68" rx="2.00" ry="2.00" x="479.99" class="pausesymbol"/>
    <rect height="50.02" width="10.00" y="473.68" rx="2.00" ry="2.00" x="510.00" class="pausesymbol"/>
    <polygon points="530.01,500 479.99,530.01 479.99,469.99" class="playsymbol"/>
  </svg>
  <polygon id="playback-head" class="playback-head" points="941.65,500 921.65,540 961.65,540"/>
</svg>