<?xml-stylesheet href="../../style/waveformjs.css" type="text/css"?>
<svg xmlns="http://www.w3.org/2000/svg" xmlns:xlink="http://www.w3.org/1999/xlink" width="100%" height="100%" viewBox="0 0 1000 1000">
  <path class="svg-wave" id="sp" d="M598.05 500.00 L598.22 500.98 L598.39 501.97 L598.55 502.96 L598.70 503.95 L598.83 504.95 L598.96 505.94 L599.07 506.95 L599.18 507.95 L599.27 508.96 L599.36 509.97 L599.43 510.98 L599.49 512.00 L599.54 513.01 L599.58 514.03 L599.61 515.05 L599.63 516.08 L599.62 517.10 L599.57 518.12 L599.50 519.14 L599.42 520.15 L599.28 521.16 L599.12 522.17 L598.97 523.17 L598.77 524.17 L598.58 525.17 L598.38 526.17 L598.16 527.17 L597.86 528.14 L597.68 529.15 L597.37 530.12 L597.10 531.10 L596.85 532.10 L596.59 533.08 L596.34 534.08 L596.05 535.06 L595.66 536.01 L595.28 536.95 L594.92 537.91 L594.45 538.82 L594.00 539.74 L593.56 540.67 L593.12 541.58 L592.73 542.53 L592.27 543.44 L591.78 544.34 L591.32 545.25 L590.80 546.12 L590.22 546.97 L589.58 547.78 L588.92 548.58 L588.25 549.36 L587.52 550.11 L586.81 550.86 L586.08 551.60 L585.30 552.30 L584.47 552.96 L583.68 553.63 L582.83 554.27 L582.05 554.94 L581.25 555.59 L580.51 556.27 L579.82 556.98 L579.07 557.65 L578.27 558.27 L577.52 558.93 L576.67 559.50 L575.71 559.98 L574.76 560.46 L573.78 560.90 L572.54 561.10 L571.06 561.08 L571.46 562.68 L574.98 567.10 L574.44 567.97 L575.68 570.50 L579.99 576.03 L579.27 576.87 L578.21 577.37 L577.28 578.00 L576.57 578.84 L575.69 579.51 L574.92 580.30 L574.14 581.06 L573.38 581.86 L572.51 582.54 L571.35 582.87 L569.91 582.87 L568.84 583.27 L568.67 584.78 L566.97 584.39 L565.79 584.63 L565.70 586.29 L564.36 586.30 L562.39 585.43 L560.81 585.04 L560.55 586.48 L560.01 587.56 L558.57 587.32 L558.90 589.75 L558.62 591.29 L557.26 591.17 L556.81 592.49 L555.81 592.95 L554.83 593.41 L554.32 594.69 L553.22 594.96 L552.36 595.67 L551.22 595.85 L549.97 595.80 L548.89 596.06 L547.85 596.39 L546.81 596.72 L545.41 596.27 L544.18 596.13 L543.08 596.25 L541.85 596.08 L540.59 595.79 L539.11 594.94 L537.87 594.61 L536.28 593.31 L535.02 592.81 L533.87 592.55 L532.24 590.92 L532.10 593.48 L532.37 597.43 L531.84 599.14 L531.33 601.01 L531.33 604.70 L530.11 604.41 L528.65 603.21 L527.32 602.36 L526.15 602.07 L525.12 602.30 L523.76 601.10 L522.63 600.82 L521.69 601.38 L520.40 600.22 L519.33 600.07 L518.29 600.08 L517.62 602.15 L516.72 603.10 L515.41 601.40 L514.61 603.06 L513.57 603.14 L512.46 602.65 L511.35 602.00 L510.37 602.53 L509.39 603.16 L508.40 603.75 L507.40 604.39 L506.28 603.19 L505.34 604.95 L504.31 605.65 L503.18 603.26 L502.15 603.38 L501.15 606.79 L500.09 608.63 L498.98 610.77 L497.79 615.07 L496.52 619.06 L495.29 620.13 L494.07 620.42 L492.84 620.82 L491.67 620.24 L490.55 619.05 L489.30 619.69 L488.11 619.48 L487.03 618.29 L485.91 617.66 L484.64 618.23 L483.54 617.45 L482.47 616.59 L481.51 615.18 L480.48 614.26 L479.41 613.69 L478.38 612.92 L477.27 612.58 L476.07 612.73 L474.86 612.83 L473.70 612.74 L472.69 611.98 L471.77 610.93 L470.87 609.85 L470.28 607.74 L469.52 606.33 L468.44 606.08 L467.82 604.33 L466.18 605.86 L463.63 610.03 L462.17 610.75 L460.07 613.18 L457.60 616.43 L456.24 616.54 L455.03 616.22 L453.41 616.92 L452.89 614.87 L451.87 614.10 L450.08 615.11 L449.25 613.89 L448.18 613.23 L446.90 613.03 L445.83 612.38 L444.84 611.57 L443.66 611.13 L442.97 609.76 L442.11 608.74 L441.18 607.87 L440.49 606.58 L439.91 605.15 L439.27 603.84 L438.63 602.56 L438.12 601.11 L437.71 599.53 L437.08 598.34 L435.63 598.41 L434.30 598.30 L433.18 597.84 L430.13 600.14 L426.48 603.15 L424.15 604.21 L421.65 605.40 L418.00 608.05 L416.57 607.67 L415.58 606.74 L414.80 605.53 L414.11 604.24 L412.99 603.47 L411.60 603.02 L410.58 602.12 L409.08 601.75 L407.43 601.54 L406.29 600.75 L405.31 599.79 L404.38 598.77 L403.60 597.60 L402.98 596.29 L402.99 594.36 L403.83 591.70 L403.97 589.75 L405.88 586.22 L408.00 582.60 L406.52 582.26 L408.43 578.96 L408.71 577.14 L405.70 578.08 L406.76 575.65 L405.19 575.36 L404.64 574.25 L404.50 572.84 L402.33 572.96 L399.06 573.84 L396.86 573.88 L392.22 575.58 L389.15 576.09 L387.77 575.40 L385.86 575.04 L384.66 574.19 L384.05 572.95 L384.52 571.05 L383.04 570.36 L381.40 569.75 L381.94 567.85 L380.81 566.92 L378.92 566.39 L377.87 565.39 L379.01 563.23 L380.55 560.91 L381.00 559.20 L381.55 557.45 L384.09 554.80 L385.12 552.91 L384.29 551.90 L385.16 550.13 L384.58 549.02 L384.45 547.71 L385.09 546.11 L385.22 544.73 L385.11 543.45 L386.70 541.56 L386.90 540.21 L384.97 539.60 L381.29 539.55 L377.20 539.55 L374.80 538.95 L369.55 539.15 L366.88 538.51 L368.07 536.74 L366.61 535.71 L366.60 534.29 L365.51 533.14 L364.42 531.97 L364.40 530.55 L361.80 529.69 L362.03 528.20 L363.58 526.46 L362.50 525.25 L362.70 523.79 L361.67 522.55 L360.83 521.26 L360.91 519.83 L359.58 518.59 L361.09 516.97 L364.19 515.22 L365.35 513.73 L366.34 512.28 L365.47 511.00 L362.76 509.84 L363.14 508.44 L361.01 507.18 L359.40 505.85 L362.97 504.33 L365.86 502.90 L366.79 501.54 L366.51 500.21 L363.64 498.85 L363.16 497.48 L359.89 496.02 L357.08 494.51 L359.55 493.20 L360.29 491.83 L360.16 490.42 L359.61 488.97 L360.35 487.62 L357.55 485.94 L355.44 484.27 L357.29 483.02 L360.21 481.95 L361.62 480.72 L361.67 479.32 L360.35 477.69 L361.37 476.43 L359.46 474.66 L358.03 472.93 L360.09 471.87 L363.60 471.15 L367.46 470.58 L366.63 469.00 L362.18 466.51 L361.51 464.87 L358.30 462.55 L350.35 458.84 L350.24 457.19 L351.58 455.97 L353.29 454.87 L354.19 453.55 L355.27 452.29 L356.67 451.16 L357.99 450.02 L359.15 448.84 L360.25 447.65 L360.24 446.05 L359.30 444.06 L359.76 442.62 L359.31 440.78 L358.81 438.90 L359.45 437.50 L360.75 436.41 L361.50 435.06 L362.10 433.66 L362.65 432.22 L363.32 430.85 L363.79 429.36 L365.60 428.59 L367.07 427.65 L368.35 426.64 L370.27 426.00 L371.65 425.07 L371.95 423.52 L372.40 422.05 L373.61 421.04 L374.98 420.15 L376.12 419.12 L377.77 418.44 L380.32 418.40 L381.36 417.36 L381.74 415.85 L381.48 413.87 L380.28 411.16 L380.57 409.51 L378.79 406.23 L379.69 404.99 L381.90 404.81 L381.68 402.66 L383.60 402.27 L385.45 401.85 L385.99 400.33 L387.14 399.33 L388.19 398.24 L389.99 397.84 L391.16 396.88 L391.37 395.00 L391.95 393.45 L393.41 392.77 L395.40 392.64 L397.24 392.40 L398.14 391.19 L400.11 391.12 L400.98 389.88 L401.57 388.31 L401.54 386.00 L401.68 383.83 L403.66 383.83 L404.64 382.65 L404.85 380.49 L406.30 379.86 L407.42 378.82 L407.15 375.91 L407.70 374.04 L407.80 371.50 L407.38 368.15 L408.61 367.10 L408.95 364.71 L410.34 363.86 L412.09 363.57 L412.60 361.33 L414.26 360.91 L415.79 360.28 L415.91 357.27 L417.30 356.35 L419.31 356.56 L420.78 355.80 L422.22 355.02 L423.95 354.78 L425.67 354.53 L426.78 353.10 L428.98 353.88 L430.54 353.37 L431.14 350.80 L433.16 351.27 L434.64 350.59 L435.78 349.11 L437.46 348.88 L439.29 349.06 L441.22 349.52 L443.29 350.43 L445.13 350.79 L446.87 350.94 L448.35 350.39 L449.82 349.78 L450.97 348.20 L451.91 345.85 L453.25 344.68 L454.09 341.78 L455.39 340.28 L456.87 339.41 L457.28 334.36 L459.20 335.00 L460.90 334.79 L462.28 333.21 L463.99 333.00 L465.72 332.96 L467.45 332.88 L468.99 331.90 L470.50 330.60 L472.20 330.31 L473.87 329.89 L475.68 330.33 L477.50 331.02 L479.14 330.38 L481.01 331.77 L482.73 331.93 L484.47 332.35 L486.09 331.51 L487.73 330.78 L489.44 331.00 L491.20 332.27 L492.85 331.52 L494.58 332.82 L496.30 334.73 L497.94 333.89 L499.60 332.94 L501.28 332.47 L503.00 329.80 L504.80 326.09 L506.52 326.71 L508.30 325.73 L510.13 324.28 L511.94 323.62 L513.58 325.42 L515.24 326.49 L516.99 326.47 L518.70 326.86 L520.23 328.75 L521.89 329.41 L523.60 329.59 L525.16 330.77 L526.83 331.16 L528.48 331.70 L529.96 333.08 L531.71 332.95 L533.69 331.76 L535.18 333.00 L537.04 332.46 L538.87 332.19 L540.46 332.96 L541.88 334.34 L543.28 335.72 L544.94 336.10 L546.63 336.39 L548.22 337.00 L550.11 336.64 L551.87 336.72 L553.50 337.26 L555.58 336.45 L557.08 337.41 L558.95 337.31 L560.60 337.83 L562.23 338.42 L563.57 339.73 L565.51 339.53 L566.61 341.39 L568.35 341.70 L570.78 340.49 L572.20 341.58 L573.92 342.00 L576.78 340.07 L578.98 339.62 L581.24 339.11 L583.63 338.42 L585.74 338.33 L587.80 338.37 L590.14 337.94 L592.32 337.86 L594.26 338.24 L596.33 338.42 L598.24 338.90 L599.97 339.69 L601.29 341.13 L602.51 342.72 L605.50 341.61 L606.85 343.01 L608.26 344.31 L611.46 343.08 L613.01 344.23 L614.73 345.14 L616.32 346.22 L617.89 347.35 L619.41 348.53 L620.95 349.70 L622.46 350.90 L623.80 352.30 L624.43 354.53 L624.29 357.60 L624.62 360.08 L624.39 363.11 L623.74 366.54 L623.82 369.10 L624.56 370.93 L625.89 372.13 L628.45 372.11 L631.82 371.36 L632.83 372.94 L634.43 373.97 L638.20 373.00 L637.61 376.06 L638.56 377.69 L640.93 378.08 L643.04 378.74 L645.38 379.24 L646.73 380.57 L648.02 381.96 L649.96 382.85 L649.83 385.34 L650.44 387.25 L650.97 389.19 L651.66 391.00 L652.55 392.65 L654.06 393.88 L654.95 395.54 L656.26 396.91 L657.40 398.40 L657.71 400.42 L657.54 402.72 L659.06 403.96 L661.99 404.39 L661.78 406.68 L662.84 408.23 L667.54 407.78 L669.28 409.02 L670.10 410.76 L671.85 412.02 L676.09 412.06 L676.91 413.85 L677.80 415.60 L679.94 416.78 L680.91 418.52 L681.87 420.27 L682.49 422.16 L683.23 424.00 L684.62 425.58 L686.57 426.95 L686.85 428.99 L688.16 430.64 L689.93 432.13 L690.71 434.00 L691.18 435.97 L691.78 437.89 L692.80 439.69 L693.63 441.55 L694.16 443.50 L694.66 445.46 L695.30 447.38 L696.30 449.21 L696.52 451.25 L697.14 453.18 L697.69 455.13 L698.00 457.14 L698.52 459.10 L698.61 461.15 L698.94 463.14 L699.87 465.03 L699.97 467.08 L700.58 469.03 L701.05 471.01 L701.03 473.07 L702.28 474.96 L702.05 477.03 L702.37 479.04 L703.96 480.94 L704.08 482.98 L704.50 485.01 L704.99 487.03 L705.08 489.08 L704.73 491.15 L703.40 493.25 L701.45 495.33 L700.65 497.35 L698.48 499.37 L696.16 501.34 L694.06 503.26 L691.85 505.15 L690.75 507.03 L689.38 508.87 L688.08 510.70 L688.34 512.60 L689.17 514.56 L688.86 516.44 L691.13 518.56 L692.02 520.59 L694.06 522.77 L696.16 525.01 L695.91 526.97 L696.07 528.99 L695.29 530.88 L695.23 532.87 L694.49 534.75 L694.08 536.69 L694.48 538.78 L695.31 540.98 L695.05 542.96 L694.93 544.99 L695.72 547.24 L697.55 549.77 L699.38 552.36 L698.50 554.26 L699.69 556.73 L700.35 559.09 L698.58 560.74 L697.55 562.59 L695.80 564.19 L694.69 566.00 L692.35 567.35 L690.14 568.72 L689.06 570.48 L688.42 572.39 L687.15 574.06 L686.33 575.90 L687.91 578.74 L689.83 581.79 L687.36 582.95 L685.70 584.45 L685.53 586.62 L682.46 587.42 L678.91 587.93 L678.66 590.04 L678.03 591.97 L678.46 594.46 L678.05 596.54 L677.45 598.52 L676.89 600.53 L675.53 602.10 L674.74 603.99 L675.19 606.64 L675.00 608.94 L676.62 612.42 L676.83 615.05 L676.01 617.04 L675.63 619.33 L673.17 620.21 L670.07 620.60 L668.13 621.77 L668.13 624.35 L667.20 626.27 L666.27 628.20 L665.86 630.55 L663.86 631.65 L660.92 631.95 L658.84 632.92 L656.94 634.03 L655.81 635.78 L656.71 639.35 L653.28 639.07 L650.94 639.72 L650.70 642.32 L647.30 641.93 L645.40 642.93 L644.98 645.39 L644.88 648.23 L645.44 651.81 L643.57 652.88 L641.07 653.27 L638.35 653.36 L634.46 652.08 L631.89 652.21 L629.85 652.93 L629.60 655.76 L628.87 658.07 L631.84 665.06 L632.46 669.27 L631.42 671.45 L633.59 677.94 L632.10 679.67 L629.87 680.40 L627.92 681.49 L626.00 682.60 L623.45 682.79 L621.05 683.16 L618.72 683.61 L615.54 682.66 L612.08 681.19 L609.49 681.01 L608.12 682.85 L607.50 686.04 L605.68 687.17 L606.05 692.30 L605.76 696.39 L604.05 697.92 L602.06 698.96 L600.15 700.12 L598.02 700.88 L596.03 701.89 L593.86 702.52 L591.35 702.40 L589.07 702.71 L586.50 702.34 L582.99 699.62 L580.57 699.42 L579.38 702.26 L577.82 704.29 L575.83 705.21 L575.42 710.54 L574.42 714.47 L572.50 715.91 L570.22 716.25 L568.07 716.98 L565.91 717.70 L563.52 717.63 L561.02 717.11 L558.62 716.89 L556.11 716.14 L553.33 714.23 L550.55 712.10 L548.19 711.53 L545.95 711.45 L543.96 712.53 L541.99 713.74 L540.08 715.36 L538.17 717.18 L535.95 717.24 L533.70 717.16 L531.52 717.38 L529.28 717.23 L527.04 716.97 L524.85 717.10 L522.66 717.10 L520.40 716.43 L518.09 714.95 L515.91 714.69 L513.81 715.60 L511.80 718.44 L509.69 720.23 L507.51 720.96 L505.40 725.21 L503.15 725.31 L500.89 723.62 L498.67 721.20 L496.46 721.17 L494.19 723.21 L492.06 720.32 L489.85 720.48 L487.55 722.06 L485.48 719.69 L483.38 718.19 L481.33 716.50 L478.99 718.12 L476.47 721.09 L474.28 720.66 L472.19 719.52 L469.71 721.29 L467.88 718.38 L466.28 714.37 L464.17 713.86 L461.56 716.15 L459.13 717.19 L457.11 715.98 L454.87 715.97 L452.04 718.57 L450.73 714.28 L448.79 712.92 L446.38 713.55 L443.65 715.26 L440.31 719.05 L438.10 718.53 L435.21 720.33 L432.05 722.79 L430.51 719.95 L429.04 717.01 L428.04 712.86 L426.08 711.64 L424.34 709.87 L422.70 707.86 L419.97 708.80 L417.63 708.63 L415.39 708.20 L413.28 707.42 L410.42 708.38 L407.16 710.14 L405.11 709.10 L403.09 707.99 L400.99 707.07 L399.94 704.00 L397.98 702.83 L397.45 698.90 L395.92 697.02 L392.52 698.62 L390.99 696.72 L388.63 696.31 L385.79 696.71 L383.28 696.49 L381.76 694.59 L379.82 693.39 L377.79 692.35 L377.39 688.77 L375.34 687.79 L370.79 690.49 L366.53 692.59 L362.94 693.61 L356.90 697.92 L352.71 699.47 L350.89 697.78 L348.80 696.43 L346.63 695.18 L344.54 693.81 L342.76 692.07 L340.73 690.62 L338.66 689.23 L336.83 687.54 L334.70 686.19 L332.97 684.39 L331.34 682.49 L329.40 680.93 L327.74 679.07 L325.97 677.33 L323.98 675.80 L322.38 673.89 L320.15 672.58 L318.47 670.74 L316.97 668.73 L315.10 667.07 L313.60 665.07 L311.30 663.77 L309.36 662.14 L307.88 660.11 L305.76 658.62 L304.08 656.75 L302.82 654.54 L301.85 652.14 L300.45 650.06 L300.48 646.94 L302.06 642.74 L302.27 639.61 L303.30 635.95 L303.67 632.82 L302.07 631.03 L300.70 629.09 L299.80 626.85 L298.98 624.57 L298.03 622.38 L297.19 620.14 L296.28 617.94 L295.06 615.92 L291.51 615.19 L287.91 614.43 L285.90 612.77 L283.22 611.42 L280.92 609.85 L278.95 608.08 L278.10 605.76 L276.40 603.84 L274.81 601.86 L274.55 599.27 L272.64 597.41 L271.32 595.28 L270.57 592.91 L269.35 590.73 L266.11 589.31 L264.03 587.41 L263.46 584.95 L259.47 583.67 L259.14 581.10 L259.66 578.26 L258.99 575.82 L258.94 573.19 L258.03 570.83 L257.14 568.46 L257.16 565.84 L256.03 563.54 L256.82 560.74 L256.73 558.19 L256.76 555.61 L256.06 553.21 L253.89 551.12 L253.75 548.58 L253.71 546.03 L254.75 543.31 L256.49 540.49 L256.81 537.94 L256.73 535.47 L254.68 533.27 L250.34 531.32 L250.48 528.77 L251.30 526.15 L249.73 523.79 L252.01 521.07 L253.39 518.48 L253.24 516.01 L253.81 513.50 L254.82 510.99 L253.01 508.59 L249.07 506.22 L250.89 503.68 L250.07 501.19 L246.47 498.68 L248.22 496.17 L248.75 493.66 L248.75 491.15 L248.00 488.60 L246.53 485.99 L245.96 483.41 L245.91 480.85 L246.00 478.30 L246.89 475.83 L248.17 473.40 L248.94 470.94 L248.72 468.37 L250.66 466.08 L250.68 463.54 L250.30 460.93 L250.82 458.45 L249.28 455.61 L248.32 452.84 L245.68 449.71 L244.90 446.90 L245.17 444.29 L247.08 442.05 L249.04 439.86 L250.27 437.50 L252.68 435.47 L253.79 433.13 L256.42 431.22 L256.25 428.53 L257.19 426.16 L259.52 424.23 L258.92 421.39 L255.21 417.46 L253.97 414.29 L253.85 411.48 L249.67 407.14 L251.59 405.01 L253.39 402.87 L255.75 400.96 L259.67 399.74 L263.20 398.42 L264.66 396.25 L263.84 393.06 L264.14 390.34 L263.22 387.01 L259.21 382.13 L259.47 379.26 L260.03 376.52 L261.21 374.10 L262.70 371.83 L264.17 369.56 L265.43 367.18 L267.48 365.25 L269.59 363.38 L271.60 361.46 L275.42 360.69 L279.79 360.33 L280.58 357.74 L279.94 354.17 L281.65 352.15 L281.01 348.49 L277.79 342.96 L278.45 340.08 L279.74 337.64 L282.34 336.17 L284.37 334.29 L286.29 332.34 L289.69 331.58 L293.33 331.08 L295.11 329.09 L298.58 328.54 L303.07 328.94 L305.88 327.95 L307.63 326.03 L308.39 323.20 L310.08 321.21 L310.39 317.89 L310.20 314.02 L310.72 310.79 L312.92 309.21 L314.81 307.32 L316.23 304.93 L318.76 303.72 L320.48 301.63 L322.42 299.79 L324.79 298.44 L327.20 297.15 L330.69 297.18 L333.50 296.43 L334.56 293.55 L334.26 288.88 L336.53 287.44 L336.28 282.64 L335.75 277.34 L339.07 277.21 L342.58 277.42 L345.84 277.34 L347.57 275.06 L350.04 273.87 L353.30 273.91 L355.32 272.07 L357.76 270.87 L360.67 270.48 L364.07 270.94 L366.69 270.15 L368.23 267.47 L370.80 266.59 L374.33 267.53 L376.47 265.91 L378.98 265.00 L381.80 264.74 L384.54 264.34 L385.64 260.55 L387.32 257.89 L388.29 253.55 L390.88 252.72 L393.36 251.65 L396.05 251.06 L399.65 252.76 L402.66 253.13 L405.14 252.18 L407.71 251.49 L409.20 247.78 L411.18 245.34 L413.34 243.29 L415.73 241.88 L418.24 240.83 L421.04 240.68 L423.41 239.14 L425.39 236.13 L428.39 236.74 L431.04 236.08 L433.56 234.91 L436.77 236.58 L439.88 238.01 L442.56 237.71 L444.88 235.68 L447.04 232.66 L449.64 231.76 L452.36 231.44 L454.88 229.97 L458.05 232.53 L460.91 233.36 L463.57 232.92 L466.15 231.83 L468.28 226.76 L471.16 227.89 L473.85 227.20 L476.47 225.70 L479.49 229.07 L482.16 228.36 L484.91 228.67 L487.55 226.93 L489.96 217.95 L492.74 216.14 L495.53 212.86 L498.34 203.07 L501.31 203.47 L504.26 204.71 L507.17 206.46 L510.07 207.67 L512.92 209.47 L515.73 211.25 L518.58 212.06 L521.35 213.68 L524.23 213.74 L527.21 212.66 L530.12 212.62 L533.03 212.59 L536.18 210.71 L539.12 210.77 L541.94 211.64 L544.74 212.60 L547.72 212.41 L550.55 213.13 L553.37 213.89 L556.25 214.32 L559.17 214.61 L561.76 216.41 L564.45 217.67 L566.94 219.71 L569.40 221.74 L572.01 223.10 L574.64 224.33 L577.41 225.04 L580.27 225.43 L582.58 227.68 L585.25 228.67 L587.65 230.49 L589.79 233.02 L592.47 233.88 L595.37 234.15 L598.81 232.97 L601.80 233.12 L604.45 234.20 L608.16 232.64 L610.18 235.30 L612.04 238.22 L615.15 238.24 L618.11 238.62 L620.63 240.02 L622.26 243.26 L624.96 244.21 L628.07 244.35 L629.56 247.72 L632.04 249.09 L635.59 248.48 L639.48 247.34 L642.63 247.64 L643.92 251.20 L646.93 251.76 L649.86 252.49 L651.33 255.60 L653.63 257.35 L656.19 258.67 L659.03 259.59 L661.35 261.31 L663.46 263.33 L665.92 264.83 L668.16 266.64 L670.66 268.10 L673.29 269.39 L675.11 271.75 L677.47 273.41 L681.92 272.45 L684.97 273.33 L688.17 274.05 L693.35 272.49 L696.25 273.71 L699.37 274.70 L702.78 275.41 L705.10 277.36 L707.64 279.08 L710.75 280.21 L712.25 283.04 L713.44 286.15 L715.18 288.67 L717.47 290.66 L719.39 292.99 L721.83 294.84 L724.38 296.61 L724.86 300.23 L725.93 303.29 L726.98 306.33 L727.86 309.49 L729.92 311.64 L732.00 313.78 L734.11 315.90 L736.66 317.70 L738.37 320.15 L739.23 323.23 L739.75 326.52 L740.61 329.54 L741.79 332.31 L742.96 335.08 L745.63 336.82 L752.60 335.81 L754.22 338.35 L757.93 339.59 L762.36 340.45 L763.64 343.27 L765.87 345.51 L766.62 348.63 L767.97 351.38 L770.08 353.73 L770.62 356.92 L772.11 359.59 L773.20 362.47 L774.76 365.11 L777.75 367.07 L779.10 369.84 L781.63 372.07 L782.11 375.24 L782.96 378.24 L784.02 381.13 L784.32 384.33 L784.76 387.46 L785.46 390.47 L787.31 393.05 L788.26 395.96 L788.56 399.10 L788.29 402.42 L788.69 405.49 L787.54 409.04 L787.62 412.17 L789.62 414.72 L790.56 417.59 L792.76 420.12 L796.40 422.30 L799.40 424.71 L800.72 427.57 L802.07 430.43 L803.91 433.20 L804.58 436.24 L804.10 439.50 L804.34 442.61 L805.19 445.61 L805.28 448.74 L804.97 451.92 L805.09 455.02 L805.94 458.02 L806.44 461.07 L806.25 464.20 L807.37 467.18 L807.02 470.32 L806.90 473.43 L806.71 476.53 L805.89 479.67 L805.68 482.75 L806.43 485.78 L805.95 488.87 L805.93 491.93 L807.32 494.97 L807.89 498.04 L807.74 501.12 L807.39 504.19 L807.20 507.26 L807.82 510.36 L807.13 513.41 L809.38 516.61 L808.41 519.65 L807.89 522.71 L808.82 525.89 L807.87 528.91 L807.13 531.94 L807.18 535.06 L805.57 537.97 L807.38 541.32 L808.12 544.56 L806.50 547.46 L806.88 550.67 L809.59 554.30 L810.79 557.72 L810.15 560.82 L810.45 564.11 L812.57 567.81 L812.63 571.10 L812.09 574.27 L810.96 577.30 L812.28 580.95 L811.05 583.96 L809.15 586.77 L808.57 589.94 L808.95 593.42 L808.25 596.58 L808.87 600.18 L809.02 603.65 L808.70 606.99 L807.19 609.92 L805.99 612.95 L804.70 615.95 L803.37 618.94 L801.36 621.64 L800.43 624.77 L799.90 628.08 L798.34 630.96 L796.97 633.91 L796.26 637.18 L794.22 639.82 L792.34 642.53 L790.11 645.05 L787.31 647.26 L783.80 649.06 L780.93 651.16 L778.55 653.49 L776.98 656.25 L777.25 660.08 L774.77 662.34 L773.93 665.56 L774.74 669.82 L771.65 671.68 L769.32 674.01 L767.76 676.82 L766.87 680.09 L766.34 683.64 L763.94 685.90 L762.13 688.58 L762.45 692.82 L758.76 694.12 L756.03 696.10 L753.33 698.08 L751.34 700.61 L749.66 703.40 L747.32 705.63 L745.16 708.02 L742.95 710.36 L741.16 713.06 L738.57 715.07 L735.97 717.03 L735.05 720.57 L734.94 724.93 L732.16 726.76 L729.12 728.31 L727.73 731.51 L725.60 733.98 L724.38 737.42 L722.49 740.18 L721.59 744.07 L722.94 750.54 L720.28 752.59 L718.03 755.12 L716.26 758.24 L713.61 760.31 L711.32 762.84 L708.62 764.87 L705.96 766.94 L704.01 769.94 L700.95 771.50 L698.33 773.64 L695.78 775.89 L692.83 777.58 L689.98 779.39 L687.04 781.06 L684.18 782.87 L681.72 785.29 L679.05 787.40 L676.19 789.20 L673.51 791.33 L671.01 793.78 L667.82 795.03 L664.87 796.71 L662.04 798.62 L659.03 800.19 L656.11 801.94 L653.04 803.41 L650.09 805.11 L647.25 807.06 L644.04 808.22 L641.07 809.90 L638.01 811.40 L634.87 812.73 L631.54 813.60 L628.31 814.67 L625.46 816.70 L622.35 818.10 L619.12 819.20 L616.29 821.40 L613.02 822.41 L609.98 824.07 L606.71 825.10 L603.41 826.00 L600.12 826.95 L596.68 827.35 L593.06 827.11 L589.28 826.18 L585.41 824.75 L581.74 823.96 L577.95 822.50 L574.82 823.66 L571.43 823.72 L568.19 824.44 L565.48 827.77 L562.68 830.98 L559.55 832.60 L555.95 831.56 L552.64 832.19 L549.29 832.50 L545.79 831.75 L542.52 832.54 L539.37 834.48 L536.16 836.11 L532.78 836.26 L529.38 836.18 L525.87 834.60 L522.44 833.58 L519.14 834.45 L515.77 834.09 L512.45 834.78 L509.21 838.94 L505.85 840.85 L502.45 841.22 L499.02 844.83 L495.58 844.65 L492.15 843.94 L488.75 842.50 L485.39 840.82 L482.01 840.26 L478.60 840.06 L475.32 838.23 L472.05 836.68 L468.75 835.71 L465.52 834.10 L462.13 834.17 L458.79 833.81 L455.63 832.08 L452.02 833.65 L448.66 833.33 L445.43 832.19 L442.29 830.58 L439.10 829.37 L435.82 828.71 L432.46 828.41 L428.77 829.59 L425.56 828.49 L422.65 826.17 L418.96 827.15 L415.59 826.70 L412.76 824.25 L409.46 823.59 L405.01 826.85 L401.36 827.17 L397.02 829.59 L393.37 829.66 L389.26 831.03 L385.13 832.30 L382.30 829.75 L379.37 827.60 L375.64 827.58 L372.54 825.88 L369.51 824.04 L366.12 823.09 L362.94 821.64 L360.74 817.95 L358.09 815.38 L355.43 812.89 L352.34 811.36 L349.61 809.09 L346.91 806.81 L344.19 804.60 L340.80 803.69 L339.15 799.51 L335.81 798.54 L331.70 798.89 L329.00 796.71 L325.50 795.91 L322.88 793.59 L319.91 791.88 L316.34 791.10 L313.15 789.70 L310.29 787.77 L306.63 787.04 L301.50 788.40 L297.35 788.20 L294.08 786.72 L289.39 787.15 L284.31 787.99 L281.47 785.78 L278.34 783.95 L275.61 781.58 L272.77 779.37 L270.52 776.44 L268.31 773.50 L265.91 770.80 L263.75 767.83 L262.59 763.78 L262.52 758.61 L260.57 755.55 L257.01 754.21 L253.83 752.44 L251.30 749.98 L244.82 751.41 L239.91 751.17 L237.28 748.68 L234.60 746.24 L231.52 744.15 L229.07 741.47 L226.75 738.67 L224.67 735.68 L222.93 732.41 L222.15 728.37 L222.40 723.55 L222.08 719.27 L219.97 716.42 L215.88 715.08 L214.03 712.01 L209.77 710.71 L203.35 710.87 L200.96 708.10 L198.92 705.08 L196.67 702.20 L194.39 699.34 L192.75 696.05 L191.52 692.53 L190.41 688.94 L190.40 684.73 L191.65 679.83 L191.98 675.53 L192.79 671.02 L192.01 667.44 L188.54 665.32 L186.72 662.28 L182.84 660.29 L178.20 658.62 L176.56 655.43 L175.18 652.11 L175.23 648.15 L175.55 644.10 L173.94 640.93 L173.02 637.46 L171.90 634.09 L168.14 631.77 L166.56 628.55 L166.73 624.67 L166.06 621.13 L162.64 618.56 L160.44 615.54 L159.93 611.93 L154.72 609.83 L149.90 607.52 L150.21 603.61 L151.04 599.58 L152.43 595.43 L151.45 591.96 L149.82 588.66 L151.91 584.43 L152.22 580.68 L151.76 577.13 L153.37 573.14 L153.04 569.60 L153.82 565.85 L151.54 562.68 L147.41 559.78 L148.51 555.99 L146.27 552.72 L146.74 549.05 L146.35 545.50 L147.74 541.75 L147.67 538.19 L143.86 535.00 L141.65 531.60 L141.59 528.00 L139.59 524.53 L137.08 521.06 L138.12 517.37 L140.00 513.67 L139.72 510.08 L138.26 506.50 L135.56 502.90 L135.56 499.26 L133.34 495.59 L131.48 491.88 L132.86 488.23 L135.08 484.65 L136.07 481.05 L134.14 477.27 L135.43 473.69 L136.41 470.11 L135.37 466.35 L136.08 462.74 L137.21 459.18 L139.86 455.83 L140.18 452.21 L137.09 448.10 L138.09 444.55 L140.16 441.18 L138.46 437.18 L141.06 433.93 L143.97 430.78 L146.08 427.51 L147.72 424.16 L149.00 420.76 L149.62 417.21 L148.82 413.30 L148.68 409.53 L149.91 406.10 L149.44 402.21 L150.30 398.67 L149.46 394.62 L146.95 390.00 L144.47 385.31 L142.95 380.87 L140.09 375.90 L138.80 371.40 L140.08 367.79 L141.49 364.22 L142.90 360.66 L144.00 356.97 L145.00 353.23 L146.59 349.73 L148.11 346.20 L149.21 342.49 L150.39 338.80 L152.23 335.41 L153.67 331.83 L154.94 328.16 L156.65 324.71 L158.51 321.33 L160.19 317.86 L161.71 314.30 L163.45 310.85 L165.34 307.48 L167.35 304.18 L169.15 300.76 L170.89 297.30 L172.83 293.95 L175.15 290.85 L176.58 287.16 L178.39 283.71 L180.84 280.70 L183.09 277.54 L184.57 273.84 L186.80 270.66 L189.48 267.82 L191.69 264.63 L193.46 261.09 L196.29 258.38 L199.44 255.94 L203.04 253.89 L205.67 251.07 L209.61 249.37 L214.39 248.47 L217.73 246.36 L220.25 243.51 L224.02 241.85 L227.83 240.26 L230.29 237.41 L232.78 234.57 L235.03 231.49 L237.21 228.31 L240.31 226.09 L240.93 221.21 L242.61 217.40 L245.00 214.34 L247.14 210.97 L248.83 207.05 L251.30 203.99 L254.94 202.32 L259.12 201.37 L262.98 200.06 L266.91 198.89 L271.59 198.76 L273.98 195.64 L274.59 190.04 L277.73 187.85 L279.44 183.60 L279.54 176.90 L283.83 176.28 L287.91 175.40 L289.78 171.13 L293.49 169.69 L297.47 168.74 L300.69 166.56 L304.42 165.24 L308.75 165.02 L313.54 165.69 L317.32 164.61 L320.20 161.90 L323.30 159.56 L327.09 158.55 L330.56 156.93 L333.52 154.27 L336.62 151.84 L340.46 150.99 L344.29 150.16 L347.48 147.89 L351.30 147.07 L355.19 146.48 L358.96 145.61 L362.11 143.19 L365.11 140.29 L368.06 137.14 L371.24 134.56 L375.00 133.57 L377.82 129.77 L380.41 125.06 L384.30 124.31 L387.30 120.61 L390.42 117.14 L394.59 117.27 L398.64 117.07 L402.45 115.97 L406.58 116.17 L410.95 117.55 L414.62 115.97 L418.89 117.12 L423.20 118.72 L426.95 117.60 L430.73 116.61 L434.17 113.61 L437.82 111.63 L441.68 110.86 L445.46 109.44 L449.58 110.61 L453.72 112.16 L457.71 112.68 L461.52 111.59 L465.48 112.06 L469.30 111.07 L473.12 109.64 L477.02 109.39 L480.99 110.49 L484.84 109.02 L488.69 106.69 L492.58 104.66 L496.52 102.52 L500.50 99.62 L504.52 97.48 L508.61 94.53 L512.69 94.03 L516.75 94.05 L520.81 94.26 L524.87 94.34 L528.90 95.01 L532.85 96.51 L536.83 97.43 L540.83 98.11 L544.72 99.61 L548.36 103.10 L551.94 106.55 L555.92 106.72 L560.15 105.34 L563.95 106.81 L568.25 105.36 L573.30 99.99 L577.46 99.89 L581.49 100.57 L585.62 100.74 L589.77 100.87 L593.70 102.04 L597.58 103.39 L601.40 104.94 L605.17 106.63 L608.42 110.13 L611.41 114.36 L614.79 117.05 L619.04 116.85 L623.38 116.47 L627.14 117.93 L632.35 115.16 L637.26 113.49 L641.36 114.22 L645.11 115.94 L649.10 117.00 L653.03 118.24 L656.73 120.05 L660.34 122.07 L664.03 123.88 L667.27 126.68 L670.38 129.70 L672.68 134.38 L675.35 138.14 L679.06 139.71 L682.23 142.36 L685.86 144.08 L690.96 143.06 L695.02 144.08 L698.21 146.67 L702.18 147.90 L704.83 151.41 L708.00 153.98 L711.41 156.14 L714.77 158.38 L718.19 160.52 L721.29 163.16 L724.66 165.36 L726.40 169.95 L729.43 172.61 L735.20 171.42 L738.90 173.19 L742.25 175.48 L748.82 173.54 L752.89 174.99 L755.52 178.30 L758.13 181.60 L761.07 184.48 L764.25 187.06 L768.04 188.93 L770.69 192.15 L773.74 194.88 L775.79 198.71 L778.52 201.77 L779.85 206.30 L782.04 209.85 L786.41 211.19 L788.82 214.53 L790.50 218.56 L796.53 218.42 L798.08 222.55 L798.35 227.82 L800.64 231.19 L804.51 233.16 L806.98 236.38 L809.36 239.66 L811.62 243.05 L815.75 244.89 L818.51 247.89 L818.25 253.23 L821.82 255.57 L826.98 256.78 L830.83 259.01 L833.97 261.80 L837.88 264.07 L841.77 266.40 L842.65 270.80 L844.52 274.50 L846.59 278.07 L849.06 281.37 L852.08 284.35 L852.51 288.91 L854.02 292.79 L856.46 296.11 L857.74 300.10 L858.12 304.56 L860.69 307.82 L864.83 310.27 L869.54 312.49 L871.69 316.05 L872.96 320.05 L875.88 323.25 L874.90 328.27 L873.92 333.22 L873.43 337.89 L873.91 342.11 L876.41 345.47 L877.83 349.29 L878.82 353.27 L881.98 356.41 L884.01 360.02 L885.92 363.68 L888.53 367.11 L892.02 370.28 L901.97 371.43 L903.98 375.23 L908.07 378.42 L917.45 380.16 L919.29 384.16 L920.88 388.24 L921.85 392.48 L922.31 396.85 L922.72 401.22 L923.50 405.49 L923.90 409.85 L923.98 414.25 L924.89 418.48 L925.54 422.76 L926.19 427.04 L926.69 431.33 L927.27 435.62 L928.03 439.88 L928.77 444.14 L929.51 448.40 L930.23 452.68 L930.88 456.96 L931.30 461.27 L931.50 465.60 L931.52 469.94 L931.51 474.27 L931.44 478.60 L931.12 482.94 L930.40 487.28 L929.14 491.61 L927.56 495.91 L955.59 500.00 L956.68 495.43 L954.77 490.90 L952.73 486.41 L951.10 481.95 L949.64 477.50 L948.47 473.06 L947.51 468.62 L946.69 464.19 L945.89 459.76 L945.15 455.34 L944.51 450.91 L943.79 446.49 L942.98 442.09 L942.05 437.71 L941.05 433.34 L939.97 429.00 L938.69 424.70 L937.49 420.39 L936.21 416.11 L934.86 411.85 L932.91 407.73 L931.10 403.60 L929.20 399.51 L927.19 395.46 L925.26 391.41 L923.65 387.30 L922.56 383.05 L921.64 378.76 L929.45 371.85 L930.59 366.80 L930.41 362.13 L935.66 355.63 L936.37 350.53 L934.68 346.24 L932.96 341.96 L933.27 336.92 L930.42 333.05 L927.83 329.12 L927.86 324.13 L924.73 320.43 L920.64 317.18 L916.78 313.88 L913.29 310.46 L908.13 307.86 L906.47 303.65 L903.20 300.24 L900.95 296.33 L902.69 290.36 L902.03 285.56 L900.31 281.31 L897.01 277.93 L893.42 274.74 L890.79 271.03 L887.23 267.89 L883.13 265.10 L881.21 261.00 L878.87 257.16 L875.90 253.72 L872.66 250.48 L868.47 247.91 L867.08 243.44 L865.26 239.24 L864.62 234.15 L863.40 229.43 L862.20 224.65 L859.35 221.11 L854.70 218.98 L851.47 215.78 L848.42 212.44 L844.52 209.81 L842.08 205.97 L839.81 201.96 L836.86 198.54 L832.04 196.82 L827.65 194.76 L824.00 192.06 L821.52 188.23 L816.58 186.82 L814.71 182.38 L811.87 178.89 L807.08 177.42 L803.08 175.18 L798.66 173.44 L794.72 171.20 L790.39 169.44 L786.28 167.47 L783.31 164.18 L779.46 161.95 L775.69 159.63 L771.51 157.85 L767.35 156.08 L765.30 151.59 L764.13 145.84 L760.33 143.54 L757.52 139.89 L755.05 135.69 L751.32 133.28 L746.87 131.92 L742.67 130.25 L738.86 127.99 L735.37 125.23 L731.38 123.28 L726.74 122.42 L722.60 120.78 L717.97 120.02 L714.75 116.79 L711.44 113.68 L707.56 111.61 L704.48 108.00 L700.52 106.03 L695.76 105.66 L691.16 105.07 L685.99 105.76 L681.08 106.00 L676.53 105.54 L672.07 104.95 L667.89 103.78 L663.64 102.81 L659.33 102.01 L655.47 100.11 L651.62 98.16 L647.37 97.28 L643.71 94.76 L640.32 91.39 L636.91 87.95 L632.59 87.20 L628.53 85.65 L624.57 83.78 L619.92 84.20 L615.00 85.75 L610.40 86.34 L606.03 86.14 L601.66 86.02 L597.36 85.68 L593.06 85.41 L589.20 83.12 L585.12 81.79 L580.92 81.06 L576.96 78.97 L573.34 74.76 L569.23 73.17 L564.79 73.62 L560.58 72.56 L556.29 72.11 L551.67 74.35 L547.12 76.45 L542.74 77.41 L538.46 77.59 L534.18 77.85 L529.89 78.57 L525.63 79.01 L521.44 78.35 L517.22 78.25 L512.98 78.53 L508.78 77.82 L504.59 75.04 L500.34 74.31 L496.07 72.47 L491.73 69.61 L487.36 67.13 L483.02 67.22 L478.60 65.47 L474.29 66.23 L470.07 68.16 L465.59 66.52 L461.28 67.06 L457.13 69.28 L452.56 67.31 L448.53 70.30 L444.69 74.29 L440.58 75.88 L436.38 76.74 L432.37 78.80 L427.98 78.45 L423.43 77.29 L419.16 77.87 L415.01 79.02 L411.34 82.39 L407.54 84.99 L403.27 85.39 L399.98 89.87 L396.27 92.39 L392.21 93.52 L388.49 95.82 L384.94 98.65 L380.21 97.42 L375.49 96.37 L371.71 98.39 L366.94 97.39 L362.42 97.30 L357.82 97.03 L353.44 97.51 L348.79 97.31 L344.24 97.46 L340.68 100.18 L336.55 101.46 L333.45 105.18 L330.40 108.94 L326.19 109.95 L322.45 112.04 L318.74 114.19 L314.73 115.69 L311.10 117.97 L308.41 122.09 L304.03 122.85 L300.23 124.75 L297.00 127.71 L293.48 130.09 L290.41 133.27 L287.76 137.11 L285.09 140.82 L282.30 144.29 L279.83 148.20 L276.42 150.58 L272.20 151.71 L269.62 155.32 L266.63 158.30 L260.85 157.24 L256.53 158.39 L252.99 160.66 L248.52 161.67 L245.01 164.02 L242.66 167.87 L241.16 172.75 L237.96 175.43 L235.20 178.65 L232.95 182.44 L229.37 184.63 L225.78 186.84 L222.52 189.44 L219.23 192.01 L214.93 193.51 L210.70 195.13 L207.56 197.93 L204.69 201.01 L201.62 203.88 L198.40 206.62 L195.92 210.06 L193.44 213.49 L191.39 217.31 L188.44 220.28 L187.79 225.29 L188.13 231.07 L186.53 235.12 L184.89 239.08 L183.68 243.37 L181.88 247.14 L179.67 250.57 L177.18 253.78 L175.44 257.54 L173.85 261.40 L172.07 265.10 L169.67 268.34 L167.46 271.72 L165.34 275.15 L163.12 278.52 L160.38 281.55 L158.51 285.15 L156.66 288.75 L154.52 292.16 L152.66 295.74 L151.11 299.50 L149.39 303.15 L147.60 306.75 L146.02 310.47 L144.49 314.20 L143.05 317.96 L141.45 321.65 L139.72 325.26 L137.79 328.77 L136.51 332.60 L134.80 336.21 L133.17 339.87 L132.16 343.79 L130.88 347.59 L129.30 351.25 L128.25 355.13 L126.76 358.83 L125.67 362.68 L124.94 366.66 L121.12 369.55 L116.98 372.39 L114.86 375.95 L110.74 378.91 L107.31 382.14 L103.04 385.17 L100.88 388.85 L100.62 393.08 L99.57 397.08 L96.87 400.67 L96.86 404.93 L96.88 409.18 L95.43 413.10 L94.96 417.22 L94.90 421.42 L96.99 426.00 L99.12 430.53 L96.97 434.30 L98.14 438.61 L96.55 442.49 L95.46 446.46 L93.77 450.36 L95.19 454.64 L97.15 458.93 L97.13 463.00 L94.86 466.87 L96.15 471.04 L96.55 475.12 L93.69 479.02 L95.58 483.17 L98.79 487.32 L100.52 491.37 L98.49 495.35 L98.53 499.36 L99.49 503.37 L94.38 507.47 L93.45 511.55 L94.20 515.59 L95.60 519.59 L95.74 523.64 L94.62 527.77 L96.00 531.74 L95.23 535.88 L93.54 540.13 L92.26 544.38 L91.92 548.55 L93.18 552.53 L96.06 556.27 L98.19 560.07 L99.13 564.04 L102.46 567.59 L101.97 571.78 L102.12 575.86 L103.59 579.70 L105.21 583.49 L108.79 586.83 L109.02 590.89 L110.97 594.55 L115.77 597.46 L115.50 601.63 L117.19 605.29 L121.53 608.18 L124.77 611.32 L127.39 614.61 L125.69 619.24 L124.12 623.90 L125.47 627.62 L126.19 631.56 L124.97 636.22 L126.67 639.85 L129.84 642.89 L131.45 646.52 L131.00 650.99 L131.93 654.93 L134.56 658.14 L136.44 661.66 L138.27 665.20 L141.02 668.31 L144.71 670.93 L145.97 674.70 L145.58 679.32 L147.24 682.93 L149.23 686.38 L151.80 689.50 L155.18 692.16 L159.03 694.51 L163.38 696.51 L167.25 698.74 L170.50 701.30 L172.99 704.29 L176.28 706.77 L179.20 709.45 L181.18 712.73 L183.10 716.07 L185.04 719.39 L186.89 722.78 L186.68 727.68 L188.06 731.48 L191.38 733.84 L192.90 737.56 L195.69 740.30 L199.91 741.88 L204.03 743.48 L207.78 745.34 L211.07 747.54 L214.22 749.85 L217.23 752.24 L219.58 755.23 L221.31 758.80 L223.99 761.50 L226.01 764.84 L226.80 769.41 L227.58 774.07 L230.82 776.27 L233.75 778.80 L236.17 781.85 L240.01 783.38 L245.15 783.41 L248.98 784.83 L252.39 786.69 L255.88 788.43 L259.13 790.43 L262.57 792.17 L265.65 794.35 L268.68 796.59 L271.65 798.90 L274.97 800.74 L276.23 805.38 L277.50 810.10 L279.83 813.42 L282.28 816.62 L283.76 821.29 L287.11 823.26 L290.46 825.19 L293.79 827.16 L296.60 829.99 L300.08 831.73 L303.34 833.81 L305.83 837.25 L309.98 837.81 L313.07 840.25 L315.57 843.79 L320.29 843.18 L323.38 845.65 L326.93 847.24 L331.50 846.70 L335.60 847.06 L339.46 847.86 L344.23 846.59 L348.47 846.37 L352.58 846.37 L355.59 848.94 L359.38 849.65 L363.11 850.44 L366.78 851.37 L370.15 853.09 L374.41 852.35 L378.57 851.78 L381.48 854.80 L384.64 857.20 L387.48 860.70 L389.85 865.93 L393.10 868.44 L396.47 870.65 L400.08 872.02 L404.14 871.70 L408.16 871.46 L411.92 872.17 L415.36 874.29 L418.89 876.13 L422.77 876.36 L426.32 878.23 L430.07 879.14 L434.60 875.63 L438.43 875.82 L441.83 878.79 L445.95 877.03 L449.58 878.64 L453.17 880.72 L456.93 881.63 L460.94 880.17 L464.98 877.99 L468.92 876.37 L472.78 875.30 L476.70 872.98 L480.49 872.02 L484.23 871.86 L487.99 870.54 L491.74 868.87 L495.45 867.54 L499.12 866.79 L502.81 869.07 L506.49 868.54 L510.25 871.05 L514.03 872.94 L517.80 873.58 L521.59 874.42 L525.26 873.04 L528.88 871.31 L532.56 870.71 L536.08 868.48 L539.67 867.26 L543.52 868.30 L547.28 868.51 L550.97 868.04 L554.39 865.81 L558.08 865.45 L561.93 866.02 L565.35 864.06 L568.99 863.41 L573.14 865.27 L576.84 864.78 L579.95 861.59 L583.31 859.66 L586.79 858.35 L589.65 854.63 L592.66 851.70 L596.09 850.46 L599.16 847.95 L602.08 845.08 L605.42 843.70 L608.90 842.78 L612.04 840.83 L615.32 839.31 L618.74 838.25 L621.91 836.47 L625.99 837.16 L629.29 835.72 L632.59 834.28 L636.09 833.34 L638.89 830.72 L641.54 827.80 L644.53 825.72 L647.80 824.31 L651.15 823.07 L654.08 820.93 L657.56 819.93 L660.70 818.23 L663.32 815.56 L666.17 813.34 L669.01 811.14 L672.06 809.33 L675.01 807.36 L677.64 804.85 L680.92 803.47 L684.13 801.93 L686.99 799.85 L689.81 797.69 L692.94 796.03 L695.76 793.90 L698.40 791.50 L700.84 788.82 L703.24 786.13 L706.11 784.11 L708.71 781.72 L710.78 778.65 L714.12 777.26 L716.88 775.09 L719.68 772.99 L722.54 770.95 L724.93 768.35 L728.95 767.65 L731.63 765.37 L734.23 763.00 L739.91 764.01 L743.63 762.78 L747.09 761.22 L750.74 759.83 L752.44 756.40 L756.45 755.32 L759.41 753.15 L761.21 749.85 L766.10 749.48 L769.79 747.92 L772.39 745.33 L773.87 741.75 L775.28 738.14 L777.48 735.23 L778.57 731.41 L779.76 727.71 L782.41 725.21 L784.37 722.16 L785.63 718.57 L786.18 714.49 L786.39 710.21 L789.16 707.83 L790.90 704.70 L793.11 701.90 L796.48 699.88 L800.18 698.04 L802.76 695.43 L804.03 691.97 L803.56 687.45 L806.33 684.95 L807.69 681.60 L807.33 677.27 L810.29 674.86 L814.25 672.98 L814.74 669.17 L815.16 665.35 L815.23 661.39 L815.17 657.40 L814.05 652.94 L813.14 648.64 L813.18 644.84 L815.88 642.27 L816.64 638.82 L817.52 635.44 L819.72 632.62 L820.71 629.28 L820.33 625.42 L820.86 621.94 L821.21 618.41 L821.63 614.93 L821.66 611.32 L822.80 608.11 L824.53 605.10 L826.41 602.11 L827.68 598.92 L829.56 595.90 L830.09 592.49 L830.00 588.91 L830.63 585.55 L833.20 582.67 L833.21 579.14 L833.81 575.76 L835.35 572.59 L840.70 570.19 L841.18 566.74 L841.88 563.34 L846.23 560.57 L848.52 557.38 L849.06 553.89 L849.77 550.43 L851.84 547.14 L852.37 543.63 L852.70 540.09 L852.47 536.50 L851.09 532.81 L849.36 529.13 L851.13 525.74 L851.00 522.21 L849.88 518.63 L852.80 515.25 L852.37 511.70 L852.12 508.17 L850.97 504.63 L850.44 501.12 L848.92 497.62 L848.52 494.14 L849.74 490.62 L849.39 487.13 L848.09 483.69 L848.72 480.17 L848.77 476.66 L846.15 473.36 L845.03 469.97 L845.07 466.49 L844.00 463.12 L844.23 459.60 L842.95 456.27 L841.88 452.93 L840.92 449.58 L838.30 446.51 L835.15 443.57 L833.39 440.43 L832.08 437.23 L830.41 434.12 L828.11 431.16 L827.21 427.92 L827.38 424.45 L826.88 421.11 L827.25 417.55 L829.18 413.55 L831.37 409.43 L831.56 405.80 L831.71 402.16 L830.55 398.90 L828.24 396.01 L825.98 393.12 L823.69 390.28 L820.80 387.67 L818.97 384.72 L817.96 381.47 L816.23 378.50 L813.46 375.96 L811.11 373.27 L807.95 370.96 L805.14 368.53 L802.33 366.14 L800.05 363.54 L799.38 360.22 L797.92 357.26 L798.13 353.47 L796.49 350.58 L794.10 348.08 L792.04 345.42 L789.02 343.30 L787.92 340.15 L785.82 337.56 L783.28 335.23 L782.30 332.00 L780.04 329.53 L781.18 324.96 L780.89 321.22 L779.70 318.02 L782.02 312.47 L782.12 308.31 L779.60 305.90 L776.29 304.08 L773.49 301.92 L769.88 300.40 L766.25 298.93 L763.37 296.94 L762.07 293.73 L759.99 291.12 L757.42 288.91 L755.49 286.19 L751.81 284.95 L748.83 283.16 L745.85 281.39 L741.92 280.52 L740.56 277.32 L738.56 274.70 L735.74 272.86 L733.20 270.76 L730.07 269.28 L725.99 268.79 L722.24 268.03 L720.51 265.18 L718.01 263.14 L715.25 261.39 L714.04 257.91 L712.02 255.30 L709.92 252.77 L710.31 247.24 L708.27 244.54 L706.84 241.05 L706.24 236.44 L703.54 234.45 L700.19 233.34 L697.37 231.55 L694.31 230.10 L691.59 228.19 L689.11 225.92 L686.82 223.37 L685.10 219.92 L682.70 217.44 L679.89 215.60 L676.90 214.03 L671.97 215.68 L668.67 214.73 L665.46 213.67 L661.14 214.59 L659.32 211.10 L657.05 208.36 L654.07 206.91 L650.59 206.45 L646.63 206.98 L643.72 205.47 L640.30 205.04 L637.33 203.68 L634.50 202.00 L631.14 201.54 L628.70 198.94 L624.65 200.15 L620.70 201.25 L618.60 197.79 L615.87 195.83 L612.92 194.43 L610.66 191.09 L607.90 189.04 L604.67 188.32 L600.82 189.53 L597.23 190.05 L594.06 189.30 L590.45 190.11 L587.29 189.42 L584.03 189.11 L580.70 189.11 L577.41 189.02 L573.93 189.82 L570.32 191.33 L566.97 191.84 L563.56 192.72 L560.30 193.05 L557.18 192.73 L554.02 192.62 L550.86 192.66 L547.81 191.95 L544.57 192.62 L541.39 192.93 L538.34 192.39 L535.45 190.37 L532.34 190.09 L529.26 189.60 L526.21 188.69 L523.04 189.21 L519.85 190.18 L516.69 191.10 L513.50 193.35 L510.39 194.45 L507.31 195.42 L504.23 197.75 L501.20 199.34 L498.19 200.05 L495.05 190.70 L491.89 188.19 L488.76 188.07 L485.31 180.97 L482.07 180.22 L478.83 179.77 L475.62 179.97 L472.80 184.59 L469.39 182.15 L466.30 183.35 L463.35 185.55 L459.89 183.37 L456.53 182.38 L453.20 181.76 L450.40 184.65 L447.79 188.42 L444.43 187.59 L441.23 187.71 L438.32 189.40 L434.43 186.23 L430.91 185.17 L428.09 187.26 L425.53 190.37 L423.02 193.44 L420.19 195.12 L417.24 196.26 L414.45 197.99 L410.55 195.84 L407.62 197.10 L404.91 199.03 L401.51 198.79 L398.94 201.09 L396.52 203.71 L393.02 203.25 L389.35 202.44 L385.78 202.00 L383.02 203.70 L381.08 207.38 L378.46 209.31 L375.99 211.54 L374.16 215.18 L371.95 217.84 L368.23 217.19 L364.97 217.59 L361.71 218.06 L358.83 219.33 L356.48 221.62 L354.54 224.66 L351.51 225.59 L348.40 226.43 L346.60 229.58 L343.79 230.93 L340.27 231.12 L339.14 235.28 L338.05 239.39 L336.46 242.60 L333.09 243.02 L332.10 247.06 L330.73 250.46 L327.02 250.39 L326.27 254.59 L325.66 258.88 L324.42 262.20 L319.37 260.42 L315.49 260.30 L312.98 262.00 L307.87 260.46 L304.64 261.36 L302.95 264.15 L301.89 267.65 L300.27 270.44 L298.47 272.99 L296.26 275.08 L293.49 276.55 L291.52 278.89 L289.03 280.70 L287.28 283.25 L286.42 286.69 L284.27 288.81 L281.38 290.22 L278.33 291.51 L275.67 293.19 L272.75 294.67 L270.90 297.12 L269.63 300.07 L270.06 304.44 L270.27 308.55 L269.15 311.49 L268.52 314.80 L269.04 318.98 L267.93 321.82 L266.25 324.22 L266.43 327.99 L265.02 330.55 L262.56 332.36 L258.02 332.75 L255.13 334.34 L253.97 337.12 L251.20 338.85 L249.43 341.23 L250.41 345.33 L250.83 349.02 L250.13 351.99 L249.58 355.03 L248.79 357.90 L247.44 360.45 L246.36 363.15 L245.19 365.79 L244.19 368.52 L242.52 370.89 L240.64 373.18 L236.28 374.30 L233.93 376.43 L232.47 378.99 L230.27 381.23 L230.21 384.41 L231.34 388.06 L232.52 391.68 L232.80 394.89 L232.73 397.94 L232.33 400.84 L225.80 401.53 L222.25 403.38 L219.34 405.50 L215.20 407.27 L213.25 409.80 L214.00 413.16 L216.07 416.88 L214.70 419.57 L215.85 422.95 L216.27 426.10 L216.83 429.27 L217.68 432.47 L219.05 435.76 L218.80 438.66 L218.76 441.59 L217.30 444.23 L214.09 446.56 L212.62 449.25 L211.05 451.95 L211.85 455.04 L211.61 457.95 L210.33 460.72 L211.87 463.86 L212.15 466.82 L211.86 469.70 L212.05 472.63 L212.46 475.56 L213.15 478.51 L212.99 481.38 L211.92 484.20 L211.01 487.05 L211.39 489.96 L211.83 492.86 L211.70 495.74 L214.05 498.63 L212.44 501.50 L211.85 504.39 L213.30 507.23 L210.97 510.18 L209.77 513.13 L211.76 515.93 L212.33 518.79 L212.35 521.68 L215.22 524.33 L217.77 526.96 L215.28 530.07 L217.17 532.73 L217.24 535.59 L214.78 538.80 L215.07 541.67 L216.18 544.41 L217.25 547.15 L220.68 549.45 L222.51 551.99 L223.84 554.61 L224.26 557.40 L223.39 560.47 L224.62 563.09 L225.38 565.82 L227.87 568.10 L229.80 570.50 L231.26 573.00 L233.97 575.13 L234.68 577.80 L235.86 580.33 L237.74 582.63 L238.67 585.22 L240.83 587.39 L241.92 589.91 L239.79 593.58 L240.93 596.10 L241.41 598.88 L239.50 602.61 L240.26 605.32 L241.93 607.66 L243.72 609.93 L246.33 611.83 L247.39 614.39 L249.30 616.56 L251.64 618.51 L250.88 621.95 L250.90 625.04 L251.54 627.85 L249.95 631.84 L251.72 634.10 L252.95 636.65 L254.40 639.07 L254.87 642.05 L256.39 644.45 L259.07 646.14 L260.32 648.68 L261.53 651.25 L264.50 652.69 L267.43 654.12 L269.17 656.31 L271.08 658.37 L273.82 659.85 L277.46 660.64 L280.74 661.62 L284.72 662.04 L288.77 662.32 L291.72 663.40 L294.04 664.93 L296.18 666.59 L297.17 669.19 L299.31 670.84 L300.93 672.92 L301.66 675.80 L304.01 677.24 L305.93 679.07 L308.10 680.66 L310.39 682.10 L312.44 683.78 L314.89 685.05 L316.77 686.87 L318.91 688.42 L321.02 689.99 L322.93 691.77 L325.23 693.11 L327.43 694.56 L329.48 696.17 L331.88 697.36 L333.82 699.08 L335.84 700.71 L338.17 701.94 L340.28 703.44 L342.44 704.89 L344.26 706.76 L346.60 707.95 L346.79 712.09 L344.83 719.41 L346.06 722.34 L346.48 726.54 L346.35 731.69 L349.02 732.68 L352.22 732.82 L354.61 734.20 L357.39 734.93 L359.94 736.01 L361.83 738.23 L364.65 738.83 L365.92 742.21 L367.72 744.71 L370.95 744.55 L373.29 746.03 L376.71 745.39 L381.02 742.84 L384.67 741.48 L386.70 743.45 L389.62 743.53 L391.82 745.16 L393.21 748.71 L395.15 751.08 L398.05 751.19 L400.08 753.42 L402.42 754.93 L405.37 754.83 L408.37 754.51 L410.99 755.22 L414.59 753.01 L418.10 750.86 L421.17 749.90 L424.59 747.67 L426.16 751.50 L428.26 753.70 L430.50 755.53 L432.09 759.90 L434.29 762.17 L436.96 762.65 L439.62 763.13 L443.07 759.98 L445.56 761.08 L448.02 762.38 L450.97 761.18 L453.32 763.13 L455.47 766.49 L458.21 766.44 L461.43 763.09 L464.28 761.82 L466.67 764.04 L469.44 763.20 L472.41 760.32 L474.71 763.82 L477.26 765.10 L479.97 764.54 L482.47 766.95 L485.31 764.05 L487.90 765.23 L490.51 766.77 L493.28 762.75 L495.92 761.92 L498.55 760.11 L501.14 758.66 L503.70 756.38 L506.26 756.22 L508.90 758.50 L511.51 759.02 L514.21 760.77 L516.86 761.40 L519.48 761.27 L522.10 761.12 L524.67 760.52 L527.31 760.60 L529.95 760.59 L532.46 759.55 L535.04 759.12 L537.43 757.35 L539.68 754.93 L541.98 753.01 L544.44 752.21 L547.31 753.63 L550.01 753.99 L552.60 753.69 L555.26 753.75 L557.63 752.45 L559.69 749.94 L561.31 745.80 L562.88 741.78 L564.64 738.75 L566.68 736.83 L568.68 734.92 L570.79 733.44 L573.14 732.78 L575.37 731.76 L577.51 730.46 L580.02 730.30 L583.06 731.55 L586.50 733.76 L588.76 732.67 L591.32 732.39 L594.17 732.76 L595.97 730.56 L596.94 726.49 L598.67 724.30 L600.59 722.59 L602.29 720.46 L604.35 719.14 L606.47 717.94 L608.57 716.71 L610.66 715.48 L612.67 714.10 L614.83 713.01 L618.06 713.85 L621.68 715.29 L623.48 713.47 L626.35 713.47 L628.67 712.52 L629.72 709.49 L630.35 705.87 L631.25 702.79 L632.66 700.53 L633.91 698.10 L635.17 695.71 L636.96 694.13 L638.63 692.38 L640.03 690.28 L642.15 689.17 L648.04 692.95 L651.51 693.44 L654.09 692.73 L659.72 695.74 L662.85 695.54 L665.79 695.07 L668.57 694.38 L668.59 690.51 L668.65 686.78 L670.41 684.98 L669.91 680.77 L669.21 676.46 L672.68 676.52 L675.70 676.04 L677.93 674.75 L679.64 672.93 L679.68 669.54 L681.50 667.86 L681.42 664.45 L680.59 660.44 L683.93 660.14 L685.24 658.05 L685.57 655.16 L687.00 653.20 L687.04 650.13 L687.32 647.30 L688.44 645.16 L689.75 643.16 L691.30 641.35 L693.24 639.82 L694.02 637.45 L693.82 634.42 L694.46 632.00 L696.04 630.23 L697.32 628.26 L700.76 627.65 L704.50 627.18 L707.87 626.41 L710.62 625.22 L711.45 622.86 L712.52 620.66 L712.30 617.74 L711.29 614.43 L712.96 612.60 L714.11 610.48 L715.56 608.52 L717.37 606.71 L715.55 603.16 L714.49 600.03 L715.33 597.81 L715.08 595.11 L715.11 592.57 L717.81 591.16 L720.02 589.51 L720.19 587.02 L721.12 584.84 L721.59 582.49 L720.59 579.62 L720.52 577.11 L720.14 574.51 L719.82 571.96 L718.89 569.24 L718.57 566.74 L717.62 564.08 L719.76 562.33 L721.64 560.48 L721.43 558.04 L723.98 556.33 L725.86 554.40 L726.57 552.18 L725.95 549.67 L726.82 547.49 L727.93 545.34 L728.18 543.02 L728.70 540.76 L729.08 538.47 L729.70 536.21 L730.25 533.95 L731.58 531.78 L732.99 529.60 L733.54 527.30 L734.58 525.05 L736.07 522.82 L736.18 520.45 L733.85 517.89 L733.61 515.53 L732.98 513.15 L731.26 510.73 L729.53 508.35 L730.80 506.09 L729.51 503.76 L727.42 501.45 L727.05 499.18 L724.02 496.95 L721.76 494.76 L720.14 492.59 L719.16 490.43 L718.25 488.28 L717.58 486.14 L717.54 483.95 L717.31 481.78 L716.24 479.69 L717.67 477.36 L717.55 475.17 L716.03 473.16 L716.59 470.88 L715.35 468.85 L714.53 466.78 L713.45 464.76 L712.07 462.80 L711.96 460.64 L711.24 458.58 L710.19 456.60 L709.45 454.56 L708.65 452.55 L708.08 450.48 L707.20 448.50 L706.07 446.59 L705.83 444.44 L705.14 442.42 L704.27 440.46 L703.31 438.52 L702.29 436.62 L702.27 434.40 L701.27 432.49 L699.78 430.76 L699.31 428.68 L699.15 426.48 L698.46 424.48 L696.91 422.80 L697.00 420.48 L696.48 418.40 L695.55 416.49 L694.22 414.75 L692.98 412.98 L692.05 411.08 L692.70 408.42 L693.05 405.88 L693.87 403.07 L695.14 399.98 L695.81 397.15 L694.69 395.25 L692.54 393.91 L694.45 390.30 L691.76 389.28 L690.87 387.24 L691.92 384.01 L690.45 382.28 L689.01 380.54 L687.32 378.97 L685.10 377.76 L684.17 375.71 L681.67 374.74 L680.55 372.83 L679.07 371.18 L676.31 370.47 L674.24 369.29 L671.14 368.92 L669.25 367.66 L668.55 365.47 L666.13 364.66 L665.17 362.67 L665.17 359.85 L663.96 358.03 L662.57 356.37 L659.95 355.80 L656.83 355.76 L657.61 352.10 L655.54 351.08 L654.34 349.25 L654.54 346.01 L653.64 343.81 L651.59 342.78 L649.16 342.17 L646.13 342.25 L641.98 343.62 L638.53 344.32 L635.86 344.21 L632.16 345.36 L629.23 345.68 L627.28 344.89 L625.48 343.93 L623.60 343.08 L621.77 342.18 L619.90 341.34 L618.09 340.45 L616.42 339.37 L614.52 338.62 L614.51 335.17 L612.29 334.87 L610.09 334.56 L609.76 331.43 L607.43 331.34 L605.23 331.09 L603.50 330.10 L602.02 328.70 L600.76 326.91 L599.07 325.83 L597.69 324.19 L596.68 321.83 L595.84 319.08 L594.72 316.80 L593.58 314.48 L592.79 311.37 L591.00 310.25 L590.09 307.23 L588.54 305.49 L586.51 304.81 L585.35 302.08 L583.81 300.20 L581.22 300.80 L578.99 300.59 L576.51 301.08 L573.94 301.85 L571.90 301.27 L569.80 300.88 L567.77 300.31 L566.34 297.89 L564.08 297.99 L561.98 297.61 L560.03 296.74 L557.74 297.03 L555.42 297.51 L553.33 297.23 L551.25 296.89 L549.18 296.53 L547.05 296.45 L544.88 296.60 L542.93 295.75 L540.62 296.64 L538.48 296.82 L536.51 296.07 L534.41 296.10 L532.28 296.32 L530.17 296.47 L527.96 297.45 L525.84 297.92 L523.51 300.24 L521.19 302.98 L519.21 302.94 L517.18 303.37 L515.11 304.58 L513.04 306.20 L511.14 305.41 L509.23 304.49 L507.29 303.83 L505.34 303.66 L503.43 300.27 L501.45 298.29 L499.43 297.74 L497.39 296.27 L495.36 296.96 L493.38 298.60 L491.39 299.03 L489.41 299.67 L487.54 302.01 L485.59 302.50 L483.61 302.58 L481.74 303.86 L479.92 305.38 L478.03 306.07 L476.38 308.71 L474.54 309.45 L472.79 310.79 L471.06 312.10 L469.20 312.50 L467.30 312.72 L465.34 312.55 L463.41 312.62 L461.65 313.52 L459.98 314.80 L458.32 316.04 L456.28 315.62 L454.62 316.82 L453.17 318.74 L450.34 315.44 L448.57 316.18 L446.30 315.23 L443.62 313.00 L441.30 312.12 L438.51 309.91 L436.09 308.95 L434.24 309.78 L432.78 311.68 L431.42 313.76 L430.16 316.05 L429.23 319.06 L427.89 320.93 L426.33 322.20 L424.75 323.41 L422.64 323.39 L421.28 325.05 L420.42 327.78 L417.95 326.98 L416.50 328.38 L415.78 331.21 L413.84 331.57 L412.35 332.80 L411.17 334.59 L410.08 336.50 L409.01 338.41 L408.47 341.18 L407.11 342.49 L404.56 341.80 L403.25 343.20 L402.16 344.92 L399.82 344.68 L398.85 346.57 L397.07 347.22 L394.87 347.27 L392.96 347.76 L389.12 345.62 L386.03 344.61 L384.05 345.18 L381.89 345.54 L380.12 346.43 L378.45 347.47 L376.97 348.74 L375.13 349.58 L372.76 349.81 L371.11 350.91 L368.28 350.67 L366.71 351.91 L366.35 354.45 L366.64 357.66 L365.14 358.92 L364.94 361.50 L364.65 363.96 L362.96 364.98 L361.63 366.37 L360.23 367.70 L359.40 369.55 L360.54 373.18 L359.31 374.61 L359.34 377.14 L358.24 378.65 L357.95 380.85 L358.11 383.37 L356.08 384.10 L356.91 387.11 L356.09 388.78 L353.14 388.83 L351.36 389.80 L348.34 389.90 L345.40 390.10 L343.59 391.16 L343.14 393.15 L343.84 395.91 L343.73 398.07 L343.77 400.31 L344.38 402.88 L344.01 404.80 L343.54 406.65 L342.61 408.21 L343.28 410.69 L344.03 413.18 L344.27 415.33 L344.54 417.49 L345.07 419.74 L344.50 421.41 L343.87 423.04 L343.29 424.69 L342.53 426.26 L342.07 427.96 L342.61 430.10 L342.21 431.80 L340.48 432.94 L339.46 434.39 L339.15 436.13 L337.26 437.26 L336.61 438.88 L337.31 440.99 L337.44 442.87 L337.92 444.85 L338.77 446.94 L338.90 448.76 L339.10 450.59 L340.43 452.74 L341.39 454.74 L340.69 456.26 L332.77 455.88 L330.17 457.00 L329.60 458.67 L324.92 459.38 L323.74 460.96 L327.07 463.51 L329.42 465.78 L330.37 467.74 L328.80 469.21 L327.75 470.79 L328.67 472.71 L327.81 474.33 L327.66 476.07 L328.61 477.95 L330.34 479.89 L331.35 481.72 L330.01 483.29 L328.40 484.87 L328.89 486.63 L328.69 488.34 L329.10 490.08 L329.46 491.81 L330.30 493.55 L328.64 495.21 L326.31 496.88 L325.55 498.61 L324.46 500.36 L324.92 502.11 L326.20 503.83 L329.24 505.47 L332.54 507.04 L331.44 508.78 L330.24 510.54 L331.77 512.14 L329.92 513.98 L329.53 515.73 L331.06 517.30 L332.96 518.79 L335.97 520.12 L337.41 521.59 L337.62 523.22 L338.78 524.70 L338.67 526.37 L339.02 527.97 L339.88 529.47 L340.04 531.10 L342.12 532.34 L342.97 533.80 L342.43 535.57 L343.23 537.04 L342.70 538.83 L342.90 540.45 L343.78 541.90 L343.35 543.70 L345.29 544.83 L343.38 547.09 L339.38 550.04 L338.65 552.05 L335.79 554.79 L334.27 557.14 L335.09 558.71 L336.66 560.00 L340.61 560.37 L340.32 562.31 L341.39 563.73 L343.24 564.81 L341.84 567.25 L342.59 568.80 L344.59 569.78 L345.73 571.13 L348.77 571.57 L353.03 571.36 L355.73 571.85 L357.62 572.69 L360.80 572.83 L363.40 573.22 L363.12 575.14 L363.30 576.83 L364.67 577.85 L366.97 578.31 L367.09 580.04 L367.29 581.74 L369.43 582.23 L370.27 583.52 L370.46 585.25 L370.30 587.23 L371.42 588.35 L370.55 590.87 L368.19 594.51 L367.82 596.79 L366.16 600.07 L365.43 602.74 L367.29 603.43 L369.36 603.94 L371.05 604.71 L375.74 602.99 L376.42 604.53 L378.16 605.16 L380.79 604.98 L381.66 606.34 L384.95 605.48 L387.84 604.92 L390.85 604.17 L394.52 602.70 L397.03 602.28 L398.75 602.60 L400.25 603.12 L401.64 603.74 L402.93 604.46 L404.03 605.36 L404.58 606.89 L405.21 608.35 L406.45 609.11 L407.37 610.25 L408.51 611.13 L410.10 611.45 L411.94 611.43 L413.49 611.76 L414.45 612.82 L412.78 617.45 L412.22 620.71 L412.03 623.55 L410.75 628.03 L410.74 630.82 L411.62 632.35 L412.78 633.48 L414.39 633.93 L416.62 633.35 L418.22 633.75 L420.70 632.66 L422.61 632.46 L424.46 632.31 L426.58 631.65 L428.21 631.80 L429.96 631.71 L431.98 631.05 L433.87 630.58 L435.45 630.70 L437.06 630.71 L438.40 631.26 L439.53 632.28 L441.14 632.25 L443.06 631.45 L443.88 633.20 L445.54 632.96 L447.80 631.15 L448.91 632.21 L450.03 633.27 L451.18 634.25 L451.49 637.69 L452.05 640.56 L453.03 642.34 L452.91 647.64 L453.91 649.65 L455.74 648.98 L457.19 649.58 L458.96 649.02 L460.93 647.59 L462.88 646.12 L464.67 645.15 L466.27 644.86 L467.87 644.52 L469.30 644.90 L470.76 645.17 L472.33 644.82 L473.97 644.05 L475.59 643.28 L477.11 642.96 L478.87 641.01 L480.48 639.75 L481.85 640.20 L483.23 640.53 L484.77 639.46 L486.31 638.16 L487.78 637.33 L489.14 637.57 L490.66 635.59 L492.08 634.61 L493.43 634.73 L494.77 634.99 L496.09 635.87 L497.36 640.70 L498.75 642.59 L500.18 645.20 L501.67 648.83 L503.18 649.84 L504.68 649.90 L506.16 649.23 L507.65 649.09 L509.15 649.26 L510.58 648.29 L512.09 648.47 L513.74 650.18 L515.25 650.12 L516.83 650.70 L518.44 651.34 L519.65 648.88 L520.99 647.60 L522.38 646.86 L523.31 643.33 L524.81 643.48 L526.46 644.41 L527.89 644.05 L529.47 644.48 L530.53 642.37 L531.84 641.56 L533.07 640.45 L533.68 636.91 L534.70 635.20 L535.85 634.08 L536.61 631.66 L537.18 628.70 L538.40 628.09 L540.55 630.51 L542.24 631.30 L544.39 633.41 L546.95 636.50 L548.44 636.40 L549.56 635.26 L550.43 633.47 L550.99 630.98 L551.52 628.53 L552.57 627.45 L553.49 626.08 L554.62 625.25 L555.88 624.71 L556.49 622.78 L556.95 620.58 L557.82 619.33 L557.89 616.49 L558.39 614.61 L559.30 613.55 L559.95 612.05 L560.80 610.97 L561.97 610.47 L562.99 609.70 L564.29 609.41 L565.03 608.18 L565.86 607.12 L566.80 606.26 L567.07 604.36 L568.84 604.79 L570.55 605.09 L570.79 603.19 L572.26 603.12 L573.47 602.64 L573.58 600.66 L573.18 598.03 L573.40 596.30 L575.21 596.66 L575.71 595.32 L575.61 593.26 L576.99 593.05 L577.50 591.78 L577.49 589.93 L577.65 588.31 L578.14 587.10 L578.76 586.05 L579.24 584.84 L579.73 583.68 L580.24 582.55 L580.88 581.56 L581.25 580.31 L581.57 579.03 L582.14 578.00 L586.98 580.96 L588.62 580.85 L589.10 579.67 L593.46 581.89 L594.37 581.04 L594.29 579.35 L594.60 578.01 L594.66 576.48 L594.90 575.12 L595.19 573.81 L595.49 572.53 L595.93 571.36 L596.32 570.16 L596.66 568.94 L596.96 567.70 L597.14 566.39 L597.22 565.03 L597.27 563.66 L597.24 562.27 L597.28 560.93 L597.34 559.62 L597.41 558.33 L597.51 557.07 L597.61 555.83 L597.75 554.62 L597.87 553.41 L598.00 552.21 L598.18 551.06 L598.38 549.92 L598.58 548.79 L598.83 547.68 L599.02 546.56 L599.16 545.42 L599.32 544.30 L599.43 543.16 L599.48 542.01 L599.52 540.86 L599.53 539.70 L599.59 538.58 L599.61 537.44 L599.63 536.32 L599.72 535.22 L599.83 534.14 L599.90 533.06 L600.01 531.99 L600.07 530.91 L600.10 529.82 L600.19 528.76 L600.13 527.67 L600.15 526.59 L600.13 525.52 L600.09 524.45 L600.03 523.37 L600.00 522.31 L599.94 521.25 L599.88 520.20 L599.85 519.16 L599.80 518.12 L599.76 517.08 L599.73 516.05 L599.70 515.02 L599.65 514.00 L599.60 512.98 L599.54 511.96 L599.47 510.94 L599.38 509.93 L599.29 508.92 L599.19 507.91 L599.08 506.90 L598.96 505.90 L598.83 504.90 L598.69 503.91 L598.54 502.91 L598.38 501.92 L598.22 500.94 Z"/>
  <svg class="pausebutton" id="pausebutton">
    <circle cx="500" cy="500" id="pausestart" class="pausestart" r="52.65"/>
    <rect height="50.02" width="10.00" y="473.68" rx="2.00" ry="2.00" x="479.99" class="pausesymbol"/>
    <rect height="50.02" width="10.00" y="473.68" rx="2.00" ry="2.00" x="510.00" class="pausesymbol"/>
    <polygon points="530.01,500 479.99,530.01 479.99,469.99" class="playsymbol"/>
  </svg>
  <polygon id="playback-head" class="playback-head" points="941.65,500 921.65,540 961.65,540"/>
</svg>