<?xml-stylesheet href="../../style/waveformjs.css" type="text/css"?>
<svg xmlns="http://www.w3.org/2000/svg" xmlns:xlink="http://www.w3.org/1999/xlink" width="100%" height="100%" viewBox="0 0 1000 1000">
  <path class="svg-wave" id="sp" d="M597.97 500.00 L598.11 500.98 L598.25 501.97 L598.39 502.95 L598.47 503.94 L598.53 504.93 L598.62 505.92 L598.71 506.92 L598.79 507.92 L598.80 508.92 L598.78 509.91 L598.85 510.92 L598.87 511.92 L598.89 512.93 L598.79 513.92 L598.68 514.91 L598.69 515.93 L598.66 516.93 L598.56 517.94 L598.42 518.93 L598.26 519.92 L598.21 520.93 L598.18 521.95 L597.97 522.94 L597.75 523.92 L597.69 524.94 L597.59 525.96 L597.52 526.99 L597.25 527.97 L597.05 528.96 L597.08 530.03 L596.92 531.05 L596.78 532.07 L596.47 533.04 L596.18 534.02 L596.21 535.12 L595.97 536.13 L595.75 537.14 L595.40 538.10 L594.99 539.05 L594.94 540.14 L594.66 541.14 L594.34 542.13 L593.92 543.07 L593.44 543.99 L593.30 545.07 L592.98 546.07 L592.54 547.01 L592.08 547.94 L591.63 548.87 L591.31 549.88 L590.97 550.88 L590.40 551.76 L589.93 552.69 L589.56 553.69 L589.14 554.65 L588.79 555.67 L588.15 556.50 L587.63 557.41 L587.32 558.47 L586.74 559.34 L586.29 560.31 L585.48 561.02 L584.70 561.76 L584.39 562.83 L583.84 563.74 L583.17 564.55 L582.54 565.39 L581.66 566.03 L581.18 567.00 L580.37 567.69 L579.20 568.07 L577.82 568.25 L575.54 567.60 L573.17 566.81 L570.70 565.86 L566.51 563.22 L561.74 559.86 L561.05 560.39 L561.59 562.16 L558.79 560.53 L558.89 561.86 L558.14 562.31 L558.74 564.23 L559.06 565.89 L556.83 564.70 L558.19 567.59 L556.20 566.62 L557.70 569.80 L557.68 571.21 L553.97 568.01 L555.57 571.48 L553.17 569.83 L552.34 570.18 L551.94 571.12 L549.50 569.22 L549.44 570.62 L548.08 570.16 L548.89 572.89 L547.46 572.31 L545.37 570.66 L546.47 573.99 L544.27 572.08 L544.52 574.13 L543.60 574.27 L541.98 573.18 L542.86 576.48 L541.68 576.15 L542.67 579.84 L542.02 580.56 L539.92 578.42 L540.18 580.94 L539.05 580.67 L541.60 588.17 L539.43 585.79 L538.72 586.53 L539.86 591.51 L537.23 587.85 L539.16 595.06 L536.56 591.31 L534.86 589.66 L534.99 592.72 L533.03 590.27 L532.85 592.64 L531.65 592.16 L529.86 589.86 L528.96 590.16 L528.70 592.52 L528.71 595.93 L526.46 591.73 L525.27 591.04 L524.68 592.48 L523.33 591.07 L522.69 592.39 L521.36 590.89 L520.10 589.55 L519.35 590.45 L518.90 592.87 L518.20 594.24 L516.67 591.18 L515.73 591.20 L514.94 592.09 L513.93 591.65 L513.16 592.88 L512.04 591.50 L511.38 593.72 L510.32 592.77 L509.61 595.06 L508.96 598.40 L507.80 596.38 L506.96 598.21 L506.01 598.70 L505.11 600.48 L504.14 601.39 L503.02 598.05 L502.12 601.70 L501.07 598.94 L500.08 600.11 L499.06 602.37 L498.10 599.17 L497.00 602.61 L496.07 600.28 L494.95 602.62 L493.93 602.34 L493.04 600.42 L491.75 603.95 L490.96 601.08 L489.45 605.98 L488.60 603.99 L488.03 599.93 L486.49 603.99 L485.94 600.38 L484.68 601.93 L483.99 599.70 L483.38 597.26 L482.29 597.77 L481.59 596.14 L479.94 599.36 L479.43 596.87 L478.54 596.33 L477.00 598.60 L476.58 596.04 L475.21 597.42 L474.42 596.48 L473.73 595.21 L472.49 595.95 L471.25 596.62 L468.60 601.79 L468.02 600.11 L467.44 598.52 L466.11 599.19 L465.29 598.38 L462.92 601.83 L463.19 598.02 L461.14 600.44 L459.87 600.70 L459.41 598.98 L456.16 603.92 L456.74 599.75 L455.92 598.92 L454.41 599.62 L453.25 599.52 L450.16 603.38 L450.43 600.25 L449.61 599.40 L448.59 598.95 L447.40 598.79 L445.38 600.17 L446.72 595.44 L445.00 596.24 L444.37 595.12 L443.13 595.04 L440.45 597.30 L442.32 592.17 L441.35 591.67 L440.60 590.82 L439.57 590.41 L438.24 590.43 L439.12 587.25 L436.46 589.15 L436.49 587.25 L434.98 587.47 L434.27 586.61 L434.19 584.94 L431.46 586.66 L431.52 584.82 L429.15 585.98 L428.46 585.07 L429.49 582.17 L427.27 583.06 L427.60 581.03 L423.12 584.33 L421.62 584.27 L421.27 582.96 L416.49 586.25 L418.73 582.28 L414.34 585.01 L414.88 582.80 L417.43 578.73 L413.54 580.80 L414.04 578.74 L411.89 579.10 L412.26 577.20 L412.09 575.80 L409.16 576.76 L409.98 574.54 L403.60 578.21 L406.53 574.29 L407.65 571.91 L404.64 572.73 L405.56 570.55 L402.70 571.18 L405.11 567.97 L405.19 566.49 L404.04 565.87 L404.36 564.26 L401.15 564.99 L403.31 562.19 L402.76 561.18 L400.98 560.93 L401.43 559.30 L398.27 559.82 L399.85 557.55 L398.57 556.95 L397.04 556.46 L396.20 555.58 L393.09 555.87 L397.10 552.48 L398.91 550.28 L395.63 550.62 L393.76 550.22 L392.70 549.42 L393.38 547.82 L388.19 548.81 L388.94 547.16 L388.26 546.14 L384.57 546.32 L387.53 543.83 L384.79 543.58 L384.70 542.29 L384.50 541.06 L381.98 540.64 L384.77 538.39 L382.04 537.99 L383.11 536.36 L381.22 535.65 L378.47 535.16 L382.32 532.77 L379.73 532.20 L381.71 530.41 L379.78 529.62 L379.10 528.51 L381.87 526.61 L379.29 525.93 L381.55 524.21 L377.94 523.68 L379.00 522.22 L381.16 520.59 L377.31 520.00 L379.32 518.43 L376.59 517.59 L377.27 516.24 L377.39 514.98 L376.18 513.88 L378.98 512.34 L374.11 511.56 L377.53 510.02 L380.44 508.57 L377.79 507.54 L375.71 506.42 L371.35 505.35 L374.65 503.96 L374.57 502.71 L370.89 501.50 L374.44 500.20 L372.86 498.93 L374.63 497.69 L374.99 496.45 L372.08 495.08 L374.52 493.92 L370.47 492.43 L370.71 491.14 L370.21 489.80 L368.85 488.38 L369.83 487.15 L363.08 485.10 L368.10 484.31 L369.77 483.18 L368.21 481.64 L369.51 480.49 L367.58 478.85 L371.22 478.10 L372.69 477.04 L372.28 475.65 L371.96 474.26 L370.51 472.62 L373.93 472.02 L374.82 470.90 L373.66 469.30 L373.96 468.03 L372.28 466.24 L374.80 465.56 L373.33 463.79 L374.91 462.89 L374.81 461.49 L374.47 460.01 L380.31 460.55 L380.60 459.32 L377.72 456.96 L376.50 455.14 L374.66 453.05 L375.45 451.92 L371.86 449.06 L374.18 448.52 L373.47 446.74 L372.86 444.98 L375.22 444.51 L370.39 440.81 L374.99 441.39 L372.24 438.54 L371.41 436.55 L375.73 437.12 L373.02 434.15 L376.62 434.44 L374.13 431.50 L377.01 431.46 L380.84 432.03 L378.21 428.90 L381.70 429.34 L379.85 426.60 L382.38 426.52 L384.76 426.39 L383.95 424.23 L386.98 424.58 L384.62 421.33 L387.38 421.55 L389.23 421.19 L388.59 419.04 L391.03 419.13 L388.10 415.22 L390.76 415.50 L392.46 415.08 L391.35 412.42 L392.51 411.57 L389.74 407.43 L393.86 409.06 L395.95 409.03 L395.45 406.73 L395.69 405.06 L393.89 401.47 L396.51 401.95 L394.72 398.24 L392.44 393.93 L393.83 393.19 L392.68 389.85 L395.15 390.21 L394.88 387.70 L394.95 385.50 L396.51 384.92 L397.65 383.86 L400.19 384.44 L401.75 383.92 L405.55 386.12 L407.52 386.19 L407.02 383.21 L412.27 387.51 L412.59 385.58 L413.86 384.88 L416.47 386.02 L415.58 382.35 L416.50 381.14 L417.02 379.32 L418.50 378.90 L418.49 376.24 L415.83 369.38 L420.02 373.10 L421.81 373.15 L420.92 368.79 L422.07 367.72 L423.84 367.72 L427.25 370.67 L426.78 366.73 L428.06 365.90 L430.17 366.65 L430.47 363.92 L432.20 363.97 L431.63 359.33 L434.50 361.74 L433.65 356.23 L433.64 352.35 L436.64 355.17 L436.45 350.68 L439.24 353.19 L438.76 347.74 L441.29 349.71 L444.94 354.77 L444.95 350.31 L447.13 351.65 L447.98 349.32 L451.27 354.11 L453.11 354.83 L453.35 350.45 L456.32 354.90 L456.30 349.40 L459.17 353.84 L461.23 355.67 L461.76 351.71 L464.33 355.73 L465.26 353.20 L466.38 351.32 L467.67 350.08 L468.82 348.05 L470.12 346.59 L469.54 334.87 L471.92 338.75 L473.85 340.40 L474.89 336.49 L476.84 338.44 L477.99 334.72 L480.36 340.33 L481.88 339.43 L483.28 337.25 L485.29 341.25 L486.54 337.03 L488.44 340.54 L489.98 339.68 L491.63 340.38 L493.15 338.47 L494.45 328.70 L496.29 334.18 L497.95 334.93 L499.60 331.41 L501.28 331.52 L502.98 330.66 L504.47 338.06 L506.11 337.64 L507.78 336.77 L509.24 339.71 L510.81 340.30 L512.12 344.11 L514.05 340.07 L515.40 342.68 L517.09 341.83 L519.09 338.42 L520.15 342.98 L522.03 340.93 L523.29 343.39 L524.74 344.35 L526.49 343.46 L528.33 342.17 L530.46 339.58 L531.85 340.93 L535.15 333.12 L537.23 331.64 L537.92 336.30 L540.97 330.81 L541.35 336.44 L543.66 334.27 L544.88 336.32 L546.01 338.53 L548.95 334.54 L548.75 341.06 L552.04 336.21 L553.39 337.60 L553.89 341.43 L556.14 340.08 L557.62 340.96 L562.58 332.53 L562.47 337.80 L563.54 339.80 L567.25 335.29 L567.46 339.36 L570.96 335.67 L569.66 343.00 L570.24 345.88 L572.85 344.30 L572.05 349.92 L574.60 348.53 L574.19 353.08 L575.50 354.13 L577.73 353.43 L579.01 354.54 L582.79 351.16 L581.97 356.03 L583.36 356.94 L585.77 356.13 L585.71 359.46 L589.09 357.15 L590.73 357.71 L592.22 358.51 L595.03 357.34 L597.29 357.05 L601.08 354.64 L601.20 357.53 L602.74 358.38 L604.35 359.14 L604.59 361.73 L607.68 360.57 L608.20 362.76 L608.96 364.60 L609.98 366.09 L612.95 365.24 L616.10 364.27 L614.50 368.81 L614.47 371.47 L617.97 370.18 L620.88 369.62 L623.39 369.56 L622.27 373.30 L624.61 373.44 L624.80 375.75 L625.94 377.10 L627.46 378.08 L625.16 382.65 L628.49 381.93 L627.98 384.73 L630.60 384.71 L631.87 385.92 L629.78 389.98 L633.56 389.05 L633.24 391.55 L636.05 391.51 L636.28 393.53 L635.09 396.63 L638.68 396.06 L637.47 399.10 L639.01 400.09 L639.03 402.17 L639.67 403.79 L641.50 404.61 L641.61 406.58 L648.02 404.46 L647.35 406.96 L646.51 409.53 L649.29 409.86 L649.01 412.05 L651.20 412.79 L650.39 415.25 L652.96 415.81 L656.63 415.81 L654.94 418.71 L663.13 416.48 L660.36 419.91 L658.14 422.99 L660.83 423.66 L658.97 426.48 L661.29 427.35 L660.67 429.56 L660.19 431.67 L662.38 432.65 L664.56 433.66 L669.31 433.71 L667.73 436.26 L670.34 437.21 L669.82 439.32 L670.37 441.04 L673.33 441.95 L669.84 445.00 L673.16 445.83 L671.97 448.08 L673.21 449.59 L679.90 449.59 L675.94 452.59 L677.58 454.05 L677.59 455.94 L677.61 457.82 L680.02 459.14 L675.87 461.93 L675.55 463.83 L675.23 465.72 L676.76 467.25 L679.52 468.60 L675.97 471.03 L677.92 472.53 L678.54 474.26 L679.13 476.00 L679.43 477.78 L680.68 479.46 L685.10 480.83 L681.66 483.02 L686.24 484.47 L688.89 486.15 L682.44 488.46 L685.75 490.11 L683.67 492.06 L685.64 493.84 L686.42 495.68 L683.19 497.58 L685.50 499.41 L686.28 501.27 L688.13 503.16 L685.81 504.98 L684.46 506.79 L688.35 508.82 L683.81 510.45 L684.07 512.32 L681.18 513.94 L683.01 515.93 L684.20 517.89 L680.59 519.36 L688.65 522.14 L686.27 523.75 L683.64 525.28 L686.32 527.55 L683.47 529.01 L684.36 531.04 L681.82 532.49 L680.83 534.18 L680.90 536.07 L680.27 537.82 L684.36 540.61 L680.46 541.65 L678.97 543.19 L680.53 545.48 L679.29 547.08 L679.93 549.18 L680.67 551.33 L683.98 554.27 L682.34 555.77 L681.88 557.62 L688.35 561.75 L682.16 561.75 L679.69 562.92 L680.41 565.20 L678.75 566.63 L679.58 568.99 L675.49 569.45 L675.73 571.58 L675.59 573.58 L675.46 575.60 L677.70 578.68 L674.62 579.41 L674.71 581.57 L673.82 583.28 L673.96 585.50 L674.87 588.13 L673.32 589.53 L675.24 592.75 L672.06 593.29 L672.22 595.61 L673.56 598.64 L668.67 598.11 L670.59 601.52 L666.92 601.61 L667.01 603.97 L667.27 606.46 L660.56 604.46 L661.25 607.22 L659.74 608.54 L659.07 610.43 L657.55 611.72 L654.79 612.11 L655.76 615.20 L653.92 616.24 L653.04 617.99 L651.91 619.56 L653.79 623.56 L654.65 626.81 L650.40 625.86 L654.86 632.25 L652.83 633.19 L647.94 631.55 L649.49 635.63 L646.61 635.71 L648.96 640.68 L646.52 641.17 L644.36 641.90 L644.88 645.29 L641.49 644.76 L644.70 651.04 L639.74 648.80 L636.70 648.52 L638.57 653.61 L634.22 651.81 L634.65 655.40 L631.25 654.57 L628.46 654.39 L627.56 656.46 L624.54 655.92 L625.82 660.79 L621.38 658.35 L618.80 658.24 L618.38 661.01 L615.29 660.14 L615.14 663.35 L611.70 661.89 L609.89 662.71 L609.26 665.32 L607.89 666.86 L608.37 671.33 L605.32 670.26 L604.28 672.40 L602.72 673.73 L601.13 675.00 L600.30 677.65 L597.87 677.47 L598.07 682.11 L595.53 681.73 L594.24 683.70 L595.03 689.91 L590.35 685.14 L588.55 686.16 L586.46 686.56 L585.07 688.47 L584.38 692.04 L581.72 691.17 L581.32 695.62 L578.43 694.12 L577.25 696.84 L576.31 700.30 L572.73 696.82 L572.10 701.28 L569.15 699.28 L568.48 703.91 L567.21 706.99 L563.62 702.81 L562.83 707.52 L559.54 703.98 L558.12 706.78 L555.87 706.69 L552.85 703.60 L551.87 708.37 L548.57 703.79 L547.44 708.24 L545.05 707.30 L541.89 702.49 L540.35 705.42 L537.94 703.86 L536.58 708.10 L534.23 706.87 L531.89 705.48 L530.31 709.08 L527.81 706.30 L526.11 709.52 L523.84 708.28 L521.78 708.75 L520.05 712.72 L517.73 710.66 L516.23 718.98 L513.76 714.78 L511.45 711.95 L509.46 715.01 L507.28 714.15 L505.31 721.44 L503.06 718.65 L500.88 719.93 L498.67 721.10 L496.49 719.39 L494.16 724.24 L492.11 718.96 L489.99 717.32 L487.79 717.81 L485.69 716.42 L483.37 718.40 L481.58 713.57 L479.22 715.70 L476.91 716.98 L474.67 717.34 L471.57 724.44 L470.15 718.07 L468.29 715.61 L465.94 716.52 L464.12 714.12 L462.27 712.12 L460.64 709.13 L458.49 709.05 L456.36 708.80 L453.80 710.55 L451.05 712.88 L449.70 709.15 L447.54 708.92 L445.51 708.18 L443.06 708.96 L440.62 709.64 L438.60 708.78 L434.69 714.15 L433.67 709.94 L430.82 711.57 L427.72 713.80 L427.78 706.79 L425.04 707.92 L423.66 705.30 L420.53 707.33 L418.12 707.41 L416.14 706.35 L411.99 710.51 L411.93 704.86 L408.08 708.05 L406.11 706.89 L405.55 702.72 L401.52 705.95 L401.07 701.70 L395.51 707.74 L393.69 706.21 L393.54 701.51 L389.49 704.21 L389.74 698.97 L385.81 701.29 L385.61 697.03 L384.91 693.74 L381.17 695.55 L381.49 690.71 L377.32 693.09 L376.96 689.45 L377.93 683.90 L375.28 683.86 L372.89 683.42 L369.47 684.39 L368.95 681.24 L367.07 680.03 L364.86 679.25 L363.99 676.69 L360.65 677.33 L360.11 674.41 L356.83 674.89 L354.16 674.55 L352.63 672.84 L345.21 677.91 L348.37 670.80 L347.70 668.14 L344.19 668.59 L342.79 666.73 L337.56 668.86 L336.30 666.80 L330.50 669.29 L324.26 672.05 L322.96 669.89 L320.75 668.60 L319.05 666.81 L317.05 665.30 L315.51 663.38 L313.02 662.27 L308.26 663.07 L306.89 660.94 L308.93 656.03 L311.97 650.43 L310.99 648.14 L309.02 646.63 L312.09 641.31 L309.95 639.96 L309.20 637.59 L308.14 635.47 L306.13 634.00 L307.80 630.02 L306.48 628.11 L305.89 625.73 L304.96 623.58 L305.97 620.24 L307.45 616.68 L302.03 617.27 L304.13 613.40 L302.41 611.77 L300.71 610.11 L299.19 608.35 L296.58 607.14 L297.14 604.27 L293.02 603.78 L292.56 601.43 L292.38 598.96 L290.23 597.42 L290.11 594.93 L283.80 595.20 L282.92 593.01 L281.93 590.86 L276.70 590.43 L277.96 587.34 L273.56 586.47 L275.19 583.28 L273.99 581.16 L270.90 579.70 L272.82 576.49 L265.25 576.44 L267.25 573.22 L269.34 570.03 L266.53 568.34 L268.51 565.26 L263.52 564.12 L266.29 560.87 L267.25 558.14 L263.93 556.47 L265.16 553.70 L260.55 552.23 L264.42 548.93 L265.73 546.22 L264.47 544.02 L264.95 541.50 L263.57 539.32 L267.82 536.23 L267.80 533.85 L265.78 531.76 L268.05 529.09 L266.65 526.90 L266.71 524.53 L265.86 522.26 L265.48 519.93 L262.67 517.78 L260.07 515.56 L262.90 513.00 L261.21 510.70 L260.37 508.34 L258.29 505.99 L255.29 503.62 L255.05 501.17 L251.36 498.70 L252.17 496.23 L252.31 493.75 L251.54 491.25 L256.51 488.98 L254.31 486.42 L256.28 484.08 L254.05 481.46 L250.08 478.65 L252.28 476.34 L246.79 473.26 L249.27 470.98 L245.98 468.02 L243.45 465.10 L248.38 463.20 L243.71 459.90 L247.93 457.97 L244.84 454.83 L246.55 452.51 L250.53 450.67 L246.72 447.28 L251.09 445.59 L246.96 442.03 L251.23 440.38 L254.63 438.60 L252.03 435.30 L255.80 433.67 L252.71 430.17 L257.48 428.89 L259.98 427.01 L257.40 423.56 L261.41 422.20 L258.61 418.60 L263.85 417.73 L266.21 415.92 L265.92 413.17 L268.20 411.37 L264.18 407.12 L265.97 405.10 L265.34 402.11 L262.27 398.02 L265.86 396.78 L261.19 391.86 L265.45 390.94 L270.68 390.57 L269.53 387.18 L268.92 384.01 L268.80 381.03 L271.56 379.55 L271.90 376.80 L269.13 372.31 L272.25 371.04 L269.11 366.20 L272.60 365.16 L274.86 363.44 L274.65 360.21 L276.38 358.17 L275.54 354.47 L280.67 354.66 L282.30 352.58 L282.85 349.77 L284.87 347.96 L284.63 344.54 L289.73 345.00 L290.36 342.21 L292.03 340.18 L294.53 338.81 L294.21 335.20 L298.17 335.04 L297.42 331.02 L300.54 330.21 L302.16 328.14 L300.94 323.56 L306.45 324.96 L307.55 322.42 L309.54 320.70 L311.19 318.66 L313.10 316.87 L316.89 316.95 L318.06 314.45 L322.11 314.91 L323.00 312.12 L324.85 310.31 L328.31 310.29 L328.82 307.00 L332.11 306.86 L331.96 302.73 L334.18 301.35 L337.13 300.87 L336.95 296.53 L340.64 297.01 L339.59 291.42 L343.04 291.62 L346.63 292.09 L347.29 288.60 L350.85 289.12 L350.34 283.84 L354.25 284.93 L357.58 285.24 L358.04 281.22 L361.45 281.72 L361.60 277.07 L365.34 278.16 L368.03 277.62 L369.19 274.45 L372.10 274.31 L373.34 271.19 L377.00 272.46 L379.08 270.86 L380.95 268.83 L384.30 269.71 L383.48 262.18 L387.16 263.73 L391.07 265.94 L392.11 261.99 L393.74 259.21 L395.77 257.24 L398.98 258.09 L400.23 254.20 L402.61 253.00 L405.53 253.19 L406.63 248.57 L410.49 251.37 L412.48 249.04 L414.56 246.91 L417.11 246.11 L418.59 241.94 L422.20 244.50 L424.58 243.11 L427.13 242.29 L429.50 240.81 L431.63 238.32 L435.24 241.63 L437.67 240.33 L440.37 240.15 L442.80 238.77 L445.23 237.34 L448.48 239.92 L450.59 236.79 L453.38 237.18 L455.78 235.35 L458.43 234.94 L461.59 238.00 L463.89 235.30 L466.71 236.30 L469.35 236.00 L471.96 235.36 L474.66 235.68 L477.05 232.47 L479.81 233.41 L482.24 229.48 L484.96 229.62 L487.87 233.96 L490.49 232.85 L493.15 232.20 L495.79 229.49 L498.51 232.43 L501.19 231.02 L503.97 225.16 L506.61 229.62 L509.42 226.45 L512.08 228.29 L514.70 230.15 L517.66 226.20 L520.13 229.97 L523.04 227.76 L525.76 228.00 L528.35 229.51 L531.31 227.53 L533.80 229.77 L537.36 223.77 L539.64 227.48 L542.11 229.48 L545.13 227.98 L547.65 229.58 L550.89 227.19 L553.01 230.79 L555.49 232.37 L558.26 232.49 L560.74 233.92 L563.86 232.59 L565.76 236.33 L568.45 236.81 L571.43 236.18 L574.00 237.16 L577.10 236.29 L579.24 238.68 L582.01 238.98 L584.50 240.17 L587.25 240.58 L590.54 239.44 L591.31 245.45 L593.57 247.14 L597.50 244.40 L600.40 244.51 L604.01 242.90 L606.50 244.14 L610.67 241.45 L612.58 244.09 L615.14 245.20 L619.25 243.00 L620.56 246.83 L625.01 244.11 L626.55 247.40 L629.57 247.69 L633.84 245.66 L634.07 251.31 L637.72 250.54 L639.17 253.77 L642.67 253.35 L644.79 255.37 L645.19 260.19 L649.44 258.67 L650.42 262.42 L654.16 261.82 L656.17 263.92 L657.31 267.29 L661.52 266.14 L662.34 269.90 L666.27 269.26 L668.00 271.71 L668.38 275.92 L672.35 275.36 L673.06 279.03 L676.22 279.58 L677.11 282.95 L678.94 285.14 L682.15 285.68 L683.15 288.81 L689.31 286.07 L690.10 289.46 L689.79 293.99 L693.19 294.45 L696.32 295.27 L699.54 296.03 L699.56 300.05 L702.58 301.05 L706.16 301.54 L707.52 304.19 L713.00 303.01 L711.78 308.03 L714.35 309.57 L718.20 310.02 L717.17 314.70 L722.44 314.02 L721.85 318.25 L723.15 320.88 L726.03 322.26 L726.83 325.27 L730.67 325.96 L730.38 329.77 L731.41 332.56 L733.97 334.24 L734.63 337.28 L736.47 339.48 L736.26 343.05 L736.89 346.03 L739.56 347.68 L743.92 348.31 L748.38 348.96 L747.79 352.69 L750.37 354.52 L751.42 357.26 L752.24 360.11 L754.19 362.33 L754.70 365.33 L760.23 365.72 L759.74 369.24 L762.79 370.99 L769.09 371.22 L764.15 376.81 L766.71 378.85 L766.44 382.17 L767.68 384.81 L769.17 387.35 L769.26 390.46 L772.41 392.34 L771.85 395.69 L776.51 397.07 L778.13 399.62 L777.26 403.05 L782.23 404.47 L780.28 408.24 L785.70 409.62 L785.08 412.95 L784.48 416.23 L789.98 417.75 L783.39 422.68 L790.21 423.93 L789.52 427.19 L787.48 430.75 L791.65 432.83 L788.96 436.48 L796.39 437.95 L792.23 441.87 L788.35 445.63 L792.06 447.95 L791.02 451.13 L794.82 453.52 L792.89 456.82 L792.89 459.81 L794.76 462.55 L793.64 465.67 L795.52 468.45 L794.00 471.58 L797.02 474.28 L797.86 477.21 L796.30 480.31 L805.67 482.75 L800.57 486.05 L797.92 489.16 L800.80 492.07 L800.28 495.08 L804.50 498.06 L802.03 501.10 L801.74 504.11 L803.02 507.16 L802.77 510.19 L804.76 513.30 L799.71 516.09 L800.26 519.13 L799.58 522.10 L797.23 524.92 L797.71 527.96 L794.80 530.66 L799.03 534.13 L797.36 536.95 L801.00 540.46 L809.18 544.71 L801.48 546.68 L801.34 549.75 L800.25 552.66 L796.94 555.15 L795.20 557.89 L792.08 560.31 L792.87 563.53 L791.22 566.23 L792.99 569.72 L792.97 572.82 L789.38 575.01 L791.57 578.70 L789.14 581.15 L789.39 584.35 L788.81 587.33 L789.92 590.84 L792.97 595.02 L788.23 596.68 L792.73 601.46 L792.74 604.75 L786.62 605.80 L788.72 609.87 L783.44 611.12 L785.28 615.15 L782.78 617.44 L780.35 619.73 L782.43 623.97 L779.23 625.92 L781.81 630.48 L778.51 632.35 L775.87 634.50 L776.91 638.45 L773.32 640.09 L777.06 645.52 L773.23 647.01 L772.30 650.04 L773.11 654.07 L767.98 654.73 L772.59 661.04 L767.23 661.51 L764.50 663.49 L764.09 666.91 L760.56 668.35 L763.41 673.95 L757.86 674.01 L753.43 674.74 L753.37 678.46 L751.22 680.73 L751.76 684.96 L747.76 685.87 L745.63 688.14 L744.48 691.17 L741.92 693.09 L740.52 695.94 L738.11 697.97 L738.91 702.72 L736.02 704.36 L735.19 707.79 L738.42 714.93 L731.52 712.94 L728.40 714.33 L727.09 717.41 L725.67 720.42 L725.54 724.75 L721.55 725.22 L720.15 728.33 L717.79 730.44 L715.80 732.97 L714.97 736.78 L709.77 735.74 L708.42 738.99 L706.27 741.37 L703.25 742.70 L702.55 746.83 L698.02 746.30 L695.93 748.75 L693.04 750.18 L691.30 753.13 L689.38 755.87 L684.78 754.95 L683.96 759.23 L680.40 759.67 L677.75 761.40 L675.08 763.09 L671.80 763.85 L669.72 766.44 L666.62 767.44 L666.08 772.61 L662.58 772.97 L658.78 772.76 L657.55 776.99 L652.94 775.25 L651.76 779.68 L648.65 780.59 L645.99 782.37 L645.04 787.54 L640.80 786.21 L641.35 794.74 L637.55 794.33 L632.56 791.21 L631.20 796.04 L627.50 795.65 L626.67 801.98 L622.05 799.33 L619.22 800.95 L617.56 805.66 L612.77 802.20 L611.95 809.41 L607.77 807.43 L604.56 808.10 L601.89 810.40 L598.46 810.40 L597.99 819.98 L593.71 817.32 L589.99 816.31 L587.23 818.69 L583.53 817.62 L581.06 821.26 L576.71 817.35 L573.52 818.07 L570.53 819.65 L567.41 820.71 L565.06 825.70 L560.44 819.15 L557.11 818.97 L554.07 820.43 L550.61 819.37 L547.84 822.70 L544.17 819.99 L540.99 820.61 L537.93 822.29 L534.71 822.63 L531.56 823.77 L528.40 824.97 L525.46 829.25 L521.98 826.74 L518.84 829.25 L515.77 834.13 L512.19 827.82 L508.94 829.15 L505.64 828.50 L502.38 832.23 L499.05 833.96 L495.75 831.33 L492.34 835.58 L489.07 832.69 L485.62 835.40 L482.31 834.49 L479.25 829.88 L475.62 834.21 L472.51 831.08 L469.23 830.53 L465.91 830.35 L462.82 828.13 L459.17 830.72 L456.26 827.34 L452.05 833.42 L448.95 831.43 L446.34 826.64 L442.47 829.57 L439.85 825.34 L436.12 827.16 L433.45 823.60 L430.63 821.00 L426.85 822.80 L423.92 820.85 L419.46 825.10 L416.88 821.71 L414.04 819.49 L410.27 820.69 L407.44 818.50 L403.30 820.73 L400.95 817.00 L396.97 818.52 L393.05 819.70 L390.84 815.76 L384.74 822.93 L383.32 816.86 L380.97 813.53 L377.04 814.38 L374.57 811.46 L370.06 813.59 L367.58 810.75 L363.76 811.06 L360.94 809.03 L358.24 806.81 L352.73 810.53 L351.66 804.89 L348.29 804.04 L345.39 802.24 L341.58 802.20 L335.12 807.02 L334.71 800.53 L332.00 798.36 L328.54 797.51 L325.84 795.32 L321.75 795.46 L321.34 789.56 L317.74 788.88 L315.72 785.72 L313.38 783.10 L308.85 783.75 L309.25 777.14 L307.38 773.94 L303.96 772.96 L299.56 773.28 L296.28 772.00 L295.11 767.94 L290.57 768.27 L288.48 765.44 L284.96 764.38 L281.91 762.73 L279.10 760.76 L273.30 762.25 L273.09 757.24 L267.93 757.84 L265.01 755.90 L266.66 749.06 L261.56 749.45 L260.69 745.40 L254.11 747.16 L251.74 744.59 L249.30 742.11 L239.30 746.77 L237.76 743.31 L235.36 740.66 L232.67 738.26 L231.29 734.71 L231.60 729.75 L232.26 724.58 L225.75 725.41 L225.54 721.02 L225.87 716.28 L220.01 716.39 L220.56 711.54 L212.90 712.85 L214.35 707.38 L214.65 702.84 L209.81 701.94 L210.41 697.26 L205.34 696.42 L207.25 690.95 L207.70 686.51 L204.31 684.55 L204.07 680.61 L200.90 678.47 L202.28 673.62 L200.57 670.63 L198.02 668.11 L198.45 663.94 L194.79 662.00 L194.35 658.34 L193.01 655.15 L189.19 653.20 L188.25 649.81 L183.18 648.37 L183.93 644.18 L184.91 639.94 L180.39 638.14 L178.06 635.34 L174.28 633.11 L173.01 629.83 L168.71 627.72 L167.60 624.35 L166.21 621.07 L163.46 618.28 L164.66 614.10 L161.26 611.49 L160.94 607.85 L157.95 605.05 L152.78 602.85 L155.20 598.39 L153.13 595.24 L152.21 591.76 L150.98 588.36 L149.41 585.04 L153.12 580.47 L149.85 577.55 L151.02 573.64 L149.98 570.21 L149.44 566.68 L151.76 562.64 L147.68 559.74 L150.64 555.65 L147.90 552.48 L148.28 548.84 L151.69 544.82 L147.73 541.75 L149.14 538.03 L147.53 534.64 L147.79 531.06 L147.83 527.51 L144.78 524.18 L147.17 520.47 L141.67 517.20 L143.22 513.55 L145.30 509.92 L140.95 506.45 L141.93 502.85 L138.14 499.26 L138.84 495.65 L137.90 492.02 L137.38 488.38 L138.06 484.78 L132.34 480.85 L136.48 477.42 L136.52 473.77 L134.25 469.93 L136.90 466.49 L131.59 462.28 L134.95 458.93 L135.51 455.30 L133.75 451.36 L134.99 447.80 L128.42 443.07 L133.19 440.04 L134.85 436.55 L133.65 432.56 L135.19 429.07 L132.53 424.73 L137.23 421.90 L139.39 418.59 L138.68 414.62 L139.74 411.06 L139.24 407.10 L143.45 404.37 L144.80 400.92 L145.17 397.18 L146.49 393.72 L146.65 389.91 L150.43 387.24 L150.95 383.54 L152.18 380.07 L152.60 376.32 L152.22 372.25 L158.14 370.53 L158.37 366.69 L159.04 363.01 L159.57 359.25 L158.34 354.73 L160.22 351.50 L157.06 346.02 L161.09 343.73 L160.19 339.18 L159.89 334.85 L166.91 334.13 L165.82 329.39 L167.97 326.28 L168.49 322.31 L171.07 319.43 L174.56 317.09 L171.01 310.74 L176.14 309.36 L175.85 304.80 L176.05 300.48 L180.60 298.84 L179.43 293.61 L184.27 292.22 L183.36 287.06 L187.21 285.07 L192.29 284.00 L191.59 278.88 L195.87 277.31 L195.14 272.05 L199.84 270.85 L204.26 269.50 L204.38 264.81 L208.46 263.26 L208.47 258.39 L212.52 256.86 L215.83 254.74 L215.90 249.80 L220.26 248.63 L219.45 242.78 L224.30 242.11 L228.55 240.94 L229.09 236.23 L233.11 234.90 L232.17 228.59 L236.52 227.60 L240.72 226.53 L243.87 224.38 L247.83 223.14 L249.53 219.42 L255.68 220.74 L258.33 218.13 L260.01 214.35 L263.03 212.16 L264.25 207.73 L267.90 206.29 L270.05 202.96 L273.26 200.98 L275.16 197.23 L275.11 190.75 L281.37 192.95 L283.86 189.93 L286.95 187.76 L289.88 185.33 L292.53 182.48 L298.13 184.20 L301.23 182.08 L304.44 180.15 L307.69 178.28 L310.55 175.74 L315.19 176.29 L317.42 172.64 L321.06 171.48 L324.20 169.43 L327.37 167.40 L331.65 167.56 L333.81 163.52 L337.45 162.42 L340.13 159.32 L343.38 157.38 L348.52 159.66 L351.61 157.42 L354.43 154.50 L357.24 151.46 L360.73 150.06 L363.54 146.88 L365.52 141.36 L370.78 144.63 L372.34 137.67 L376.86 139.03 L381.17 139.93 L383.19 133.79 L387.96 136.20 L390.45 131.23 L394.53 131.50 L398.82 132.62 L401.60 128.25 L406.04 130.10 L408.10 122.45 L412.66 124.87 L416.91 126.27 L419.92 121.98 L424.23 123.80 L427.19 118.86 L431.69 121.93 L435.70 122.61 L439.28 120.78 L443.30 121.65 L446.76 118.80 L450.99 121.50 L454.86 121.69 L458.50 119.95 L462.42 120.71 L466.09 118.94 L470.02 120.08 L473.86 120.42 L477.67 120.34 L481.40 118.94 L485.12 116.24 L489.11 121.46 L492.91 122.29 L496.65 117.71 L500.47 117.84 L504.32 115.73 L508.15 116.18 L512.06 114.16 L515.92 114.19 L519.78 114.23 L523.78 112.21 L527.44 115.46 L531.42 114.13 L535.25 114.70 L539.03 115.79 L543.14 113.80 L546.88 115.24 L550.95 114.04 L554.62 115.89 L559.03 112.69 L563.19 111.52 L566.20 117.17 L570.59 114.77 L574.14 117.07 L578.17 116.81 L582.05 117.36 L584.95 122.33 L589.32 120.64 L592.67 123.35 L596.70 123.23 L600.30 124.84 L603.57 127.57 L608.24 125.32 L611.32 128.65 L615.39 128.59 L619.10 129.76 L622.12 133.00 L626.71 131.55 L630.26 133.20 L635.09 131.33 L638.87 132.46 L641.40 136.77 L645.85 136.16 L649.98 136.41 L654.99 134.68 L657.69 138.43 L661.61 139.31 L666.74 137.63 L669.00 142.18 L675.38 138.09 L676.76 144.34 L680.13 146.47 L685.77 144.25 L687.42 149.68 L693.96 146.00 L695.62 151.30 L697.92 155.32 L702.79 154.87 L705.24 158.57 L710.68 157.32 L711.70 163.27 L714.56 166.16 L718.73 167.04 L721.49 170.09 L726.60 169.66 L727.62 175.19 L730.45 178.04 L734.33 179.45 L736.94 182.59 L741.76 182.80 L742.47 188.38 L745.87 190.45 L749.98 191.65 L752.40 194.95 L756.03 196.79 L757.77 200.85 L761.53 202.55 L763.88 205.87 L768.15 207.06 L772.87 207.82 L771.31 215.26 L775.01 217.09 L779.51 218.16 L782.09 221.18 L785.51 223.40 L788.15 226.37 L793.58 226.75 L796.90 229.15 L799.19 232.49 L802.08 235.29 L806.57 236.73 L811.56 237.82 L813.49 241.50 L816.09 244.63 L820.33 246.45 L826.04 247.19 L831.59 248.15 L835.47 250.46 L842.24 250.70 L847.11 252.42 L849.17 256.19 L850.77 260.25 L852.58 264.15 L854.97 267.66 L856.93 271.44 L858.94 275.18 L860.83 278.99 L862.58 282.88 L864.54 286.63 L865.91 290.71 L867.72 294.53 L868.89 298.69 L870.28 302.71 L871.71 306.69 L873.16 310.66 L877.22 313.32 L879.15 317.06 L880.41 321.12 L884.01 324.09 L884.44 328.52 L883.69 333.44 L884.45 337.66 L888.21 340.63 L893.05 343.21 L895.06 346.97 L900.76 349.36 L906.34 351.88 L907.61 356.02 L908.72 360.21 L909.83 364.39 L910.99 368.55 L912.35 372.65 L913.80 376.72 L914.77 380.93 L915.88 385.10 L916.90 389.29 L917.81 393.51 L918.97 397.67 L919.54 401.96 L920.35 406.20 L921.06 410.45 L921.50 414.75 L922.30 418.98 L922.48 423.32 L923.05 427.57 L923.16 431.90 L923.46 436.19 L923.87 440.46 L923.68 444.80 L924.00 449.07 L923.24 453.44 L923.50 457.70 L923.02 462.01 L922.55 466.31 L924.92 470.40 L927.20 474.53 L926.45 478.85 L926.91 483.10 L928.00 487.35 L925.14 491.68 L923.05 495.96 L949.40 500.00 L950.11 495.50 L949.12 491.02 L948.11 486.55 L948.19 482.06 L947.61 477.60 L946.79 473.16 L947.02 468.66 L947.08 464.16 L946.33 459.72 L944.91 455.36 L944.56 450.90 L943.22 446.56 L942.23 442.18 L940.92 437.86 L939.67 433.55 L938.90 429.17 L937.55 424.89 L936.70 420.53 L934.89 416.36 L933.85 412.05 L932.64 407.79 L931.14 403.59 L930.14 399.29 L928.23 395.21 L927.16 390.93 L925.71 386.75 L924.12 382.62 L922.82 378.42 L920.89 374.40 L919.64 370.19 L918.04 366.09 L916.19 362.08 L914.32 358.09 L912.40 354.12 L910.50 350.16 L910.84 345.36 L910.41 340.82 L908.75 336.74 L908.67 332.01 L907.73 327.61 L905.58 323.72 L902.75 320.14 L900.39 316.37 L898.60 312.35 L896.26 308.58 L894.19 304.70 L892.76 300.49 L890.28 296.82 L887.87 293.12 L885.44 289.43 L882.60 285.99 L880.14 282.35 L877.19 279.00 L874.63 275.43 L871.93 271.97 L869.18 268.54 L866.77 264.91 L863.71 261.71 L861.24 258.13 L858.40 254.81 L855.07 251.84 L852.20 248.56 L850.30 244.59 L849.82 239.54 L847.92 235.51 L847.96 229.94 L846.51 225.47 L846.17 220.07 L844.33 215.81 L840.23 213.43 L840.81 207.06 L839.25 202.45 L836.60 198.77 L834.04 194.99 L831.89 190.81 L831.49 184.93 L827.00 182.92 L823.47 180.00 L820.17 176.87 L817.86 172.72 L815.04 169.07 L808.47 169.41 L806.63 164.72 L804.67 160.10 L801.05 157.31 L797.53 154.40 L792.49 153.30 L790.08 149.10 L786.28 146.56 L783.51 142.74 L779.97 139.86 L773.82 140.41 L771.56 135.87 L766.99 134.43 L763.64 131.33 L759.30 129.63 L753.42 130.22 L751.58 124.90 L746.90 123.81 L743.72 120.42 L739.26 119.05 L732.88 120.85 L730.76 115.73 L725.68 115.53 L722.97 111.29 L717.44 112.00 L711.73 113.17 L710.84 105.48 L704.54 107.88 L702.59 101.96 L698.18 100.80 L691.90 103.54 L690.52 96.14 L684.66 98.19 L682.24 92.78 L678.01 91.32 L673.12 91.44 L670.27 86.71 L666.16 84.94 L662.76 81.36 L657.54 82.47 L652.85 82.29 L649.73 77.79 L645.36 76.72 L641.60 73.85 L636.68 74.46 L632.49 72.89 L628.63 70.21 L623.62 71.39 L620.20 67.01 L615.16 68.50 L610.72 67.83 L606.57 66.01 L601.70 67.20 L597.85 64.05 L592.64 67.05 L588.48 65.30 L584.27 63.68 L579.60 64.52 L575.62 61.55 L570.44 65.73 L566.24 64.07 L562.15 61.53 L557.57 62.39 L553.27 61.19 L548.62 62.96 L544.50 60.06 L540.03 60.38 L535.59 60.41 L531.31 58.55 L526.62 62.71 L522.39 59.69 L517.97 59.66 L513.56 59.80 L509.19 57.93 L504.74 60.74 L500.35 59.13 L495.94 58.88 L491.48 56.40 L487.06 57.04 L482.82 61.94 L478.28 58.98 L473.84 58.65 L469.40 58.60 L465.11 60.37 L460.90 62.84 L456.28 60.73 L452.10 63.09 L447.64 62.87 L443.37 64.15 L439.54 68.46 L434.91 66.97 L430.85 69.32 L426.25 68.32 L422.35 71.35 L418.82 76.05 L413.74 72.74 L410.10 76.56 L405.05 73.82 L401.51 77.83 L398.30 82.98 L392.97 79.42 L389.64 83.82 L384.60 81.74 L381.64 87.16 L377.61 88.66 L372.48 86.60 L369.82 92.47 L363.83 88.00 L360.79 92.51 L357.43 95.93 L351.44 92.02 L349.09 98.09 L343.31 95.05 L339.19 96.46 L335.14 98.02 L330.61 98.46 L326.54 100.04 L322.33 101.30 L319.85 106.36 L315.90 108.14 L311.72 109.44 L307.75 111.20 L303.35 112.11 L300.83 116.69 L296.46 117.66 L292.36 119.19 L289.04 122.14 L284.37 122.70 L282.10 127.43 L278.14 129.21 L274.82 132.07 L271.27 134.52 L268.00 137.41 L267.00 143.74 L262.78 145.10 L259.15 147.34 L255.57 149.68 L251.90 151.90 L251.54 158.65 L245.31 157.36 L241.36 159.21 L237.86 161.68 L234.80 164.70 L232.67 168.88 L227.67 169.50 L225.07 173.06 L221.10 174.99 L218.01 177.97 L218.19 184.59 L213.61 185.85 L212.33 190.72 L210.24 194.65 L209.53 199.96 L210.13 206.52 L204.65 206.89 L204.04 212.11 L198.99 212.99 L198.13 217.88 L198.52 223.84 L191.68 223.20 L191.39 228.46 L186.07 229.30 L185.34 234.11 L185.73 239.78 L179.16 239.70 L179.23 245.04 L173.78 245.99 L173.86 251.24 L174.55 256.88 L168.19 257.26 L168.43 262.49 L162.80 263.52 L163.85 269.24 L162.90 273.52 L157.88 275.07 L158.89 280.59 L153.06 281.72 L154.34 287.31 L150.32 289.64 L146.35 292.03 L146.86 297.06 L140.47 298.14 L140.62 302.93 L138.51 306.45 L135.88 309.70 L134.41 313.56 L130.65 316.27 L134.31 322.63 L130.06 325.12 L127.41 328.40 L127.76 333.05 L122.88 335.38 L122.73 339.78 L118.65 342.54 L117.68 346.59 L115.28 350.08 L113.28 353.73 L116.78 359.42 L114.11 362.81 L112.72 366.66 L111.16 370.45 L110.82 374.65 L113.87 379.88 L111.69 383.45 L111.53 387.62 L109.16 391.16 L109.17 395.36 L112.40 400.37 L108.67 403.57 L108.35 407.64 L105.49 411.12 L106.35 415.44 L110.41 420.38 L105.28 423.44 L106.02 427.66 L103.09 431.22 L104.11 435.46 L108.23 440.15 L101.63 443.21 L103.26 447.49 L99.96 451.12 L101.61 455.36 L105.84 459.82 L99.44 463.21 L101.94 467.45 L97.92 471.17 L98.58 475.24 L102.54 479.48 L94.24 483.11 L94.60 487.19 L93.97 491.23 L94.09 495.29 L94.89 499.35 L92.46 503.43 L93.65 507.48 L89.37 511.67 L91.57 515.69 L93.91 519.67 L89.43 524.01 L91.82 527.97 L90.71 532.16 L91.83 536.18 L91.69 540.31 L91.39 544.47 L93.84 548.32 L91.43 552.75 L95.65 556.32 L96.70 560.30 L95.70 564.58 L99.34 568.12 L97.61 572.56 L101.56 575.97 L102.65 579.89 L104.53 583.63 L107.22 587.18 L106.79 591.41 L112.94 594.07 L112.91 598.18 L114.39 601.92 L115.28 605.81 L116.88 609.51 L122.28 612.06 L120.82 616.63 L121.93 620.44 L123.02 624.26 L122.62 628.59 L126.76 631.36 L124.49 636.39 L125.51 640.28 L126.93 644.02 L126.15 648.63 L129.29 651.69 L128.77 656.26 L129.42 660.36 L129.01 664.97 L132.67 667.76 L137.00 670.19 L135.08 675.56 L137.05 679.10 L137.60 683.36 L140.01 686.69 L143.78 689.27 L143.39 694.08 L147.70 696.33 L149.27 700.08 L151.74 703.31 L157.17 704.76 L157.60 709.18 L161.31 711.59 L162.30 715.69 L167.15 717.32 L173.27 718.01 L172.78 723.10 L177.97 724.31 L177.45 729.50 L182.73 730.55 L189.16 730.66 L186.29 737.70 L191.83 738.39 L190.81 744.15 L195.71 745.26 L199.65 747.09 L198.95 752.76 L204.69 753.01 L209.76 753.74 L213.55 755.53 L215.90 758.58 L218.60 761.32 L222.16 763.24 L217.43 773.12 L220.94 775.18 L223.60 778.07 L223.07 784.23 L227.93 784.89 L228.49 790.05 L236.01 787.73 L238.14 791.21 L238.69 796.50 L243.76 796.68 L243.64 802.89 L246.67 805.45 L249.39 808.40 L252.04 811.45 L255.67 813.27 L257.66 817.21 L262.56 817.32 L265.10 820.56 L267.06 824.64 L269.68 827.87 L274.46 827.99 L281.13 825.21 L283.01 829.48 L287.27 830.14 L291.50 830.81 L294.53 833.34 L300.70 830.69 L303.03 834.35 L306.90 835.39 L309.78 838.17 L313.95 838.63 L319.85 835.81 L319.44 844.82 L322.90 846.59 L326.40 848.30 L329.87 850.06 L335.61 847.03 L336.83 853.56 L341.14 853.47 L344.90 854.54 L347.87 857.44 L352.22 857.09 L354.41 861.99 L359.15 860.58 L361.89 864.29 L366.60 862.77 L372.30 858.29 L372.93 868.11 L377.69 866.15 L380.55 869.84 L383.61 873.10 L388.22 871.35 L390.98 875.75 L395.26 874.98 L398.35 878.49 L402.66 877.45 L407.03 876.00 L409.50 882.38 L413.66 881.81 L417.10 884.44 L421.46 882.75 L425.90 880.40 L429.61 881.65 L434.19 877.99 L437.49 881.55 L442.05 877.33 L445.97 876.87 L448.98 883.09 L453.22 880.30 L456.76 883.14 L460.87 880.83 L464.69 881.14 L468.64 879.79 L472.64 877.29 L476.17 881.44 L480.26 876.37 L484.04 876.35 L487.71 879.45 L491.55 877.22 L495.29 880.33 L499.10 877.74 L502.89 879.48 L506.73 882.10 L510.53 881.39 L514.35 881.26 L517.82 874.01 L521.86 878.99 L525.78 880.71 L529.37 877.73 L533.48 881.13 L537.34 881.36 L541.16 881.05 L544.96 880.51 L548.92 881.24 L552.66 880.26 L556.01 876.69 L560.15 878.45 L563.53 875.49 L567.51 876.12 L570.96 873.79 L573.11 865.13 L577.66 868.66 L581.23 867.36 L585.05 867.20 L588.52 865.52 L590.88 859.51 L595.34 861.86 L598.06 857.64 L602.09 858.26 L604.96 854.81 L607.30 849.81 L613.56 857.46 L616.49 854.35 L620.60 854.86 L623.71 852.41 L625.96 847.63 L631.62 852.24 L633.06 845.50 L638.19 848.41 L641.43 846.43 L643.39 841.43 L648.79 844.59 L650.66 839.54 L655.77 841.80 L656.85 835.25 L659.29 831.78 L665.93 836.93 L667.77 832.25 L672.92 834.10 L676.23 832.31 L679.35 830.17 L683.91 830.63 L684.94 824.79 L689.77 825.66 L691.91 821.90 L694.81 819.46 L699.93 820.60 L702.16 817.06 L705.91 815.94 L707.88 812.08 L710.23 808.87 L713.19 806.58 L715.42 803.28 L719.57 802.67 L720.22 797.26 L723.96 796.08 L727.06 794.01 L729.57 791.19 L732.51 788.94 L732.90 783.56 L736.96 782.69 L738.87 779.26 L741.87 777.11 L745.08 775.18 L744.40 768.95 L748.59 768.12 L751.45 765.83 L754.10 763.31 L757.31 761.35 L757.93 756.79 L763.29 756.93 L765.92 754.36 L768.98 752.18 L770.57 748.64 L767.29 740.74 L775.61 743.29 L778.80 741.18 L779.84 737.23 L785.03 736.78 L787.07 733.66 L789.89 731.17 L790.89 727.25 L794.05 725.02 L795.80 721.71 L795.78 717.10 L799.39 715.18 L800.39 711.38 L803.92 709.34 L802.43 703.89 L800.45 698.21 L806.94 698.12 L805.96 693.18 L809.72 691.25 L810.02 687.18 L807.86 681.70 L815.55 682.01 L813.46 676.65 L817.45 674.74 L820.11 672.05 L819.97 667.88 L825.53 666.66 L825.12 662.37 L828.77 660.11 L828.09 655.74 L827.77 651.59 L832.31 649.67 L832.06 645.58 L836.30 643.45 L835.65 639.22 L836.28 635.56 L838.63 632.58 L835.31 627.43 L839.66 625.21 L834.78 619.63 L837.46 616.79 L843.58 615.08 L840.88 610.39 L845.40 608.05 L848.31 605.15 L848.96 601.55 L850.78 598.28 L850.28 594.38 L853.13 591.37 L851.41 587.18 L853.86 584.04 L855.75 580.74 L855.94 577.05 L857.22 573.60 L854.92 569.43 L854.28 565.63 L851.94 561.57 L851.60 557.89 L851.50 554.27 L844.99 549.74 L852.60 547.24 L856.38 544.12 L855.82 540.45 L859.19 537.20 L857.05 533.37 L857.59 529.81 L854.90 526.02 L854.74 522.44 L854.26 518.86 L849.72 515.11 L853.10 511.72 L852.09 508.16 L853.23 504.66 L852.76 501.12 L849.64 497.62 L853.73 494.05 L851.68 490.57 L854.81 486.93 L851.59 483.53 L845.37 480.36 L853.56 476.34 L851.20 472.97 L852.28 469.34 L853.29 465.69 L851.29 462.33 L853.22 458.55 L850.77 455.28 L851.96 451.54 L850.49 448.17 L847.35 445.08 L848.44 441.33 L845.90 438.19 L847.98 434.23 L842.03 431.80 L837.23 429.24 L841.86 424.69 L837.26 422.16 L840.42 417.84 L835.72 415.42 L834.40 412.18 L837.72 407.69 L830.24 406.18 L833.49 401.64 L830.24 399.00 L828.77 395.84 L831.22 391.41 L827.01 389.15 L829.41 384.66 L826.00 382.18 L826.13 378.43 L827.61 374.13 L825.19 371.31 L825.83 367.28 L822.51 364.85 L821.38 361.53 L818.67 358.91 L815.80 356.38 L814.70 353.07 L806.43 353.18 L809.26 348.00 L809.06 344.25 L805.69 342.09 L808.03 336.96 L805.18 334.54 L803.71 331.39 L801.54 328.62 L799.23 325.95 L797.81 322.77 L793.93 321.08 L795.42 316.09 L795.52 311.91 L793.77 308.87 L791.10 306.43 L785.99 305.68 L784.71 302.36 L781.16 300.63 L779.19 297.80 L776.71 295.34 L772.27 294.39 L771.63 290.57 L768.53 288.64 L767.76 284.88 L763.94 283.57 L759.79 282.60 L760.94 277.16 L755.24 277.57 L754.98 273.27 L752.69 270.74 L746.78 271.57 L747.85 265.93 L744.29 264.62 L743.30 260.84 L740.75 258.56 L736.95 257.58 L735.81 253.87 L733.21 251.65 L733.23 246.60 L728.19 247.05 L723.86 246.80 L724.71 240.66 L720.60 240.21 L718.92 236.89 L715.41 235.78 L711.64 235.04 L710.16 231.42 L705.69 231.66 L704.85 227.13 L700.15 227.77 L696.38 227.23 L694.59 223.93 L690.18 224.38 L689.08 220.02 L684.55 220.75 L681.48 219.33 L679.77 215.79 L675.63 216.09 L674.19 212.01 L669.28 213.71 L666.17 212.43 L663.87 209.76 L660.35 209.23 L657.83 206.92 L652.41 210.08 L651.09 205.47 L648.40 203.45 L644.62 203.63 L642.83 199.72 L638.60 200.94 L636.59 197.37 L633.31 196.60 L630.00 195.90 L627.98 192.14 L623.93 193.26 L621.70 189.89 L619.16 187.22 L616.69 184.25 L613.33 183.64 L608.38 187.63 L606.31 183.44 L603.18 182.26 L600.06 181.05 L596.85 180.11 L593.09 181.06 L590.53 177.90 L586.97 178.23 L584.06 176.19 L580.71 175.78 L576.58 178.72 L573.87 175.73 L570.30 176.48 L567.16 175.35 L563.59 176.30 L559.76 178.84 L557.01 175.63 L553.51 176.60 L550.54 174.39 L547.01 175.79 L543.30 178.78 L540.75 173.01 L537.22 174.90 L534.17 172.58 L530.69 174.38 L527.43 174.14 L524.30 172.09 L520.74 176.35 L517.76 171.33 L514.37 173.48 L511.02 175.74 L507.84 172.98 L504.52 176.69 L501.31 171.31 L498.03 172.08 L494.79 174.62 L491.45 171.33 L488.20 172.64 L484.89 171.82 L481.78 175.17 L478.56 175.67 L475.15 173.71 L471.98 175.01 L468.52 173.18 L465.46 175.42 L462.17 175.37 L458.93 175.86 L455.95 178.12 L452.41 176.39 L449.80 180.85 L446.68 181.80 L443.44 181.97 L440.39 183.27 L436.87 182.10 L434.51 186.64 L431.02 185.67 L427.76 185.85 L424.73 187.01 L421.60 187.76 L419.43 192.20 L416.14 192.23 L413.12 193.28 L409.88 193.57 L407.08 195.33 L405.44 200.70 L401.08 197.46 L398.54 199.89 L395.03 199.46 L391.68 199.55 L390.40 205.26 L385.99 202.55 L383.71 205.45 L380.50 205.95 L376.44 204.47 L374.66 208.45 L371.09 208.22 L367.60 208.26 L363.77 207.62 L362.35 212.13 L361.45 217.53 L355.85 213.41 L354.00 216.82 L350.78 217.54 L348.31 219.69 L346.92 223.75 L342.84 222.96 L340.92 226.01 L337.22 225.98 L335.20 228.79 L334.14 233.09 L329.64 231.88 L328.29 235.62 L323.92 234.74 L322.95 238.98 L322.13 243.34 L317.25 241.85 L316.22 245.82 L312.38 245.91 L311.57 250.07 L310.06 253.24 L305.13 252.01 L304.59 256.38 L300.35 256.12 L299.47 259.99 L296.90 261.80 L292.84 261.90 L292.61 266.40 L288.40 266.40 L288.07 270.69 L285.61 272.63 L282.84 274.25 L282.93 278.82 L281.12 281.39 L282.41 286.98 L281.38 290.22 L280.85 293.88 L279.61 296.82 L277.06 298.56 L278.63 303.96 L274.63 304.41 L272.78 306.75 L271.22 309.33 L268.69 311.11 L270.00 315.98 L266.00 316.59 L264.72 319.36 L262.45 321.36 L260.68 323.75 L262.77 328.92 L258.56 329.53 L257.42 332.34 L254.85 334.16 L253.97 337.12 L256.60 342.34 L252.06 342.90 L251.27 345.86 L248.30 347.48 L247.76 350.58 L248.51 354.41 L241.63 353.85 L242.90 357.95 L237.46 358.35 L235.22 360.54 L237.11 364.88 L234.39 366.82 L231.50 368.71 L228.58 370.63 L231.33 375.23 L232.94 379.20 L225.77 379.25 L228.32 383.60 L223.24 384.69 L221.38 387.17 L222.31 390.77 L217.76 392.22 L219.70 396.16 L216.33 398.13 L218.24 401.98 L222.54 406.58 L218.74 408.42 L221.90 412.52 L217.43 414.20 L219.85 417.99 L223.41 422.03 L218.73 423.73 L221.91 427.57 L216.98 429.31 L219.95 433.02 L222.25 436.49 L216.91 438.25 L220.39 441.93 L215.59 443.89 L219.04 447.49 L219.05 450.39 L215.73 452.73 L218.96 456.15 L214.13 458.32 L218.43 461.82 L215.43 464.31 L213.39 466.96 L213.99 469.92 L209.58 472.39 L211.98 475.52 L207.58 478.09 L205.18 480.88 L206.35 483.90 L205.02 486.78 L210.13 489.91 L207.66 492.75 L207.65 495.68 L208.31 498.61 L205.44 501.54 L206.33 504.47 L204.51 507.45 L204.32 510.42 L203.15 513.43 L202.46 516.45 L205.94 519.21 L202.24 522.44 L201.53 525.50 L201.70 528.49 L201.33 531.54 L202.84 534.39 L200.36 537.72 L204.77 540.17 L203.98 543.29 L205.13 546.14 L211.47 548.11 L211.34 551.10 L213.83 553.62 L213.27 556.70 L216.08 559.10 L221.25 560.94 L218.81 564.42 L222.00 566.63 L220.08 570.05 L223.30 572.19 L228.36 573.78 L224.47 577.81 L228.71 579.55 L226.51 583.17 L231.45 584.61 L235.29 586.32 L228.86 591.43 L232.59 593.16 L230.93 596.77 L232.66 599.17 L235.88 600.99 L233.36 605.02 L236.94 606.66 L234.10 610.93 L235.41 613.50 L237.16 615.87 L233.98 620.47 L237.92 621.86 L237.21 625.40 L239.98 627.28 L242.19 629.41 L241.53 633.00 L243.99 634.99 L243.06 638.78 L245.29 640.88 L246.09 643.77 L246.66 646.81 L251.02 647.63 L249.64 651.85 L254.24 652.45 L256.97 654.14 L259.58 655.88 L261.44 658.08 L263.75 659.97 L268.76 659.98 L269.72 662.74 L272.12 664.49 L274.35 666.34 L276.10 668.52 L282.51 667.14 L284.09 669.38 L286.93 670.63 L293.60 668.70 L299.41 667.32 L301.71 668.80 L299.83 673.88 L300.93 676.44 L302.98 678.18 L304.72 680.19 L306.63 682.04 L308.11 684.30 L310.60 685.59 L307.48 692.45 L305.88 697.97 L308.63 699.12 L307.19 704.66 L309.99 705.78 L310.71 709.16 L314.33 709.33 L321.40 705.46 L317.55 714.17 L320.75 714.74 L321.91 717.73 L322.63 721.34 L326.25 721.32 L326.87 725.12 L330.49 725.03 L332.47 727.10 L335.13 728.24 L338.98 727.68 L340.21 730.79 L342.60 732.27 L343.89 735.41 L349.36 732.16 L353.60 730.65 L353.33 736.26 L357.97 733.97 L358.34 738.72 L362.53 737.02 L366.77 735.09 L367.23 739.84 L372.33 736.17 L372.62 741.39 L377.24 738.36 L379.55 739.75 L378.91 747.16 L383.08 744.81 L383.73 749.84 L387.98 747.13 L390.34 748.50 L391.57 752.53 L396.12 748.76 L396.65 754.62 L399.65 754.51 L401.88 756.34 L403.87 758.86 L407.39 757.25 L409.53 759.39 L414.50 753.26 L415.94 757.48 L417.93 760.18 L421.40 758.12 L422.41 764.28 L425.35 764.00 L427.60 766.16 L430.10 767.52 L432.86 767.88 L435.52 768.64 L439.05 765.58 L441.20 768.53 L443.56 770.69 L446.18 771.68 L448.98 771.74 L452.23 769.28 L455.10 768.71 L458.24 766.29 L460.82 767.26 L463.81 765.28 L467.42 758.07 L469.11 766.08 L471.74 766.68 L474.36 767.50 L476.84 769.97 L479.97 764.47 L482.51 766.27 L485.37 763.06 L487.98 763.58 L490.68 761.90 L493.46 755.81 L495.91 762.84 L498.55 760.52 L501.16 762.48 L503.80 763.55 L506.36 760.27 L509.22 767.83 L511.79 765.22 L514.61 768.21 L517.04 764.17 L519.32 759.17 L522.58 766.87 L524.95 763.41 L527.96 766.82 L530.64 766.64 L533.04 764.19 L535.98 766.05 L538.13 762.20 L541.20 764.65 L543.51 762.23 L545.90 760.48 L549.30 764.30 L551.35 760.75 L554.44 762.58 L556.05 757.37 L558.24 755.15 L561.51 757.58 L562.83 751.93 L566.45 755.52 L567.82 750.48 L570.14 749.15 L572.96 749.57 L574.50 745.69 L577.89 747.90 L578.56 741.56 L582.11 744.16 L585.50 746.07 L586.75 741.83 L590.33 744.10 L590.98 738.52 L594.48 740.43 L597.26 740.42 L598.77 737.30 L602.39 739.21 L603.78 735.93 L607.34 737.53 L609.61 736.24 L611.56 734.28 L613.62 732.57 L612.79 725.14 L617.71 729.20 L621.09 730.09 L622.61 727.45 L626.70 729.49 L628.38 727.15 L631.63 727.55 L633.58 725.70 L635.66 724.07 L638.62 723.87 L639.02 719.58 L643.01 720.96 L644.84 718.96 L647.85 718.72 L649.51 716.47 L648.88 711.02 L652.28 711.32 L652.79 707.62 L655.97 707.56 L656.60 704.12 L655.78 698.90 L661.15 701.57 L661.25 697.61 L663.83 696.72 L664.24 693.25 L663.93 689.02 L667.64 689.44 L666.49 684.39 L671.50 686.16 L671.09 682.03 L669.35 676.60 L675.96 679.86 L675.49 675.83 L679.31 676.10 L680.04 673.32 L681.41 671.18 L686.18 672.19 L685.28 667.95 L689.68 668.51 L687.40 663.16 L688.43 660.77 L695.17 663.19 L693.31 658.37 L697.01 658.14 L700.75 657.86 L702.56 656.03 L703.56 653.58 L703.56 650.42 L707.41 650.08 L707.40 646.93 L708.08 644.31 L710.44 642.85 L711.67 640.61 L713.99 639.09 L709.41 633.15 L711.99 631.84 L713.62 629.91 L712.29 626.21 L715.69 625.33 L712.49 620.64 L715.74 619.65 L717.49 617.79 L716.91 614.69 L719.99 613.52 L720.45 610.98 L723.96 609.95 L725.64 607.99 L726.23 605.50 L727.90 603.52 L727.47 600.59 L729.22 598.64 L730.86 596.62 L733.41 594.96 L733.07 592.11 L730.57 588.47 L733.07 586.76 L731.13 583.42 L732.70 581.37 L731.51 578.36 L725.99 573.98 L734.14 574.06 L734.31 571.55 L734.50 569.05 L738.43 567.62 L739.47 565.34 L741.12 563.21 L740.44 560.46 L742.74 558.47 L742.16 555.77 L739.39 552.62 L744.04 551.09 L743.12 548.37 L744.74 546.15 L743.11 543.33 L740.95 540.46 L742.28 538.20 L739.55 535.32 L742.49 533.28 L739.58 530.44 L738.08 527.83 L745.20 526.18 L741.61 523.36 L743.41 521.08 L744.47 518.71 L742.35 516.11 L742.63 513.69 L737.51 511.02 L741.06 508.77 L739.21 506.31 L737.19 503.88 L738.96 501.52 L739.80 499.13 L741.42 496.71 L737.95 494.38 L739.32 491.95 L740.36 489.51 L736.95 487.28 L739.40 484.75 L732.58 482.84 L735.22 480.28 L738.03 477.65 L734.91 475.57 L738.55 472.78 L738.17 470.40 L738.15 467.99 L737.58 465.64 L737.01 463.30 L737.79 460.74 L733.47 459.05 L734.81 456.39 L734.67 453.98 L734.57 451.56 L731.87 449.70 L726.34 448.52 L727.72 445.81 L726.30 443.75 L725.63 441.52 L724.63 439.37 L718.99 438.54 L724.41 434.59 L722.33 432.77 L720.75 430.84 L722.14 427.95 L716.72 427.31 L720.55 423.56 L719.08 421.61 L717.29 419.79 L717.92 417.07 L713.92 416.13 L717.57 412.18 L716.91 409.92 L717.91 406.93 L715.94 405.21 L713.01 403.95 L713.08 401.34 L708.34 400.99 L709.64 397.79 L704.51 397.75 L699.50 397.75 L705.02 392.32 L701.21 391.74 L703.23 388.02 L702.33 385.86 L698.97 385.12 L699.74 381.99 L696.53 381.22 L697.32 378.03 L694.00 377.39 L691.66 376.17 L695.42 370.95 L692.93 369.80 L693.16 366.82 L690.15 366.07 L687.57 365.06 L686.72 362.82 L682.75 362.90 L683.53 359.43 L679.56 359.59 L677.47 358.35 L677.49 355.40 L674.26 355.11 L675.13 351.40 L670.18 352.65 L669.02 350.67 L668.34 348.25 L664.95 348.29 L665.11 345.06 L659.92 346.89 L658.60 345.09 L656.62 343.94 L655.68 341.74 L653.26 341.04 L648.65 342.71 L651.66 336.27 L651.09 333.59 L649.16 332.37 L647.18 331.23 L644.89 330.46 L642.69 329.62 L638.32 331.44 L638.33 327.94 L635.99 327.35 L630.91 330.34 L629.94 328.06 L628.28 326.68 L627.78 323.70 L624.25 324.91 L621.14 325.62 L622.19 320.31 L620.46 318.98 L619.80 316.02 L617.74 315.16 L615.74 314.22 L615.73 310.04 L611.63 312.57 L610.79 309.67 L608.49 309.27 L604.14 312.59 L604.55 307.34 L601.04 309.27 L601.07 304.51 L598.23 305.25 L593.15 310.64 L592.97 306.14 L590.33 306.71 L588.70 305.14 L585.30 307.54 L581.44 311.17 L581.22 306.36 L577.19 310.70 L576.75 306.24 L574.40 306.57 L572.19 306.55 L572.44 299.80 L569.39 302.05 L569.01 296.65 L565.82 299.47 L562.81 301.99 L561.34 299.70 L558.36 302.38 L557.40 298.24 L554.17 302.07 L552.00 302.28 L550.98 297.95 L547.98 301.50 L546.82 297.47 L543.94 300.85 L542.69 296.87 L541.74 291.07 L539.20 292.99 L537.62 289.89 L535.94 286.99 L533.99 285.52 L531.40 288.20 L529.11 289.09 L527.29 286.58 L524.43 292.42 L522.24 293.27 L520.34 291.33 L518.48 288.52 L516.26 289.73 L513.92 293.13 L511.97 290.90 L509.80 292.46 L507.70 292.84 L505.59 294.19 L503.44 299.53 L501.45 297.77 L499.43 300.33 L497.42 298.81 L495.40 298.57 L493.46 300.78 L491.20 294.76 L489.21 296.01 L486.99 293.25 L484.99 294.32 L483.49 301.17 L481.22 298.26 L479.34 299.76 L477.05 297.42 L475.36 300.44 L474.01 305.46 L471.22 299.87 L469.75 303.59 L467.52 302.31 L465.83 304.28 L464.54 308.21 L460.85 299.50 L458.85 299.89 L456.49 298.67 L454.23 298.01 L452.02 297.68 L449.73 297.06 L448.95 302.42 L445.80 298.57 L444.74 302.51 L444.35 308.51 L440.79 303.62 L438.78 304.06 L436.66 304.16 L435.99 308.66 L434.29 309.93 L431.94 309.31 L432.16 315.77 L429.09 313.22 L428.56 317.35 L427.83 320.79 L425.32 319.78 L425.12 324.27 L421.62 321.04 L420.76 323.90 L418.42 323.44 L415.54 321.91 L413.41 322.04 L411.21 322.06 L411.65 327.28 L409.26 326.91 L405.56 324.14 L403.26 324.11 L402.10 326.13 L400.88 328.01 L397.78 326.66 L397.06 329.37 L396.23 331.82 L394.54 332.84 L393.58 335.00 L390.40 333.75 L389.11 335.40 L386.37 334.91 L383.95 334.96 L382.85 336.88 L380.30 336.80 L379.55 339.18 L376.60 338.63 L376.27 341.50 L378.69 347.76 L374.52 345.72 L371.62 345.34 L373.71 350.92 L374.23 354.51 L371.87 354.74 L371.16 356.85 L373.20 361.92 L371.33 362.67 L368.10 362.01 L368.61 365.26 L365.40 364.71 L365.19 367.18 L360.90 365.67 L357.49 365.10 L357.85 368.11 L354.18 367.40 L353.23 369.19 L350.03 369.01 L349.85 371.47 L352.87 376.59 L348.29 375.31 L347.31 377.04 L344.53 377.34 L344.86 380.10 L345.94 383.38 L341.55 382.53 L342.73 385.82 L339.96 386.24 L340.76 389.18 L341.95 392.34 L337.96 391.99 L339.73 395.46 L336.79 395.86 L338.16 398.99 L338.43 401.40 L334.91 401.50 L337.08 404.99 L333.26 404.98 L335.36 408.35 L335.98 410.83 L332.74 411.22 L334.29 414.16 L331.00 414.59 L334.39 418.37 L331.76 419.15 L328.94 419.89 L331.67 423.21 L326.70 423.03 L328.55 425.90 L325.86 426.79 L325.17 428.55 L326.61 431.15 L322.44 431.55 L322.58 433.63 L321.04 435.09 L318.90 436.35 L316.14 437.44 L315.67 439.33 L320.80 443.00 L319.37 444.53 L318.52 446.25 L318.52 448.21 L317.51 449.90 L320.46 452.63 L317.13 453.70 L317.27 455.68 L315.87 457.28 L316.08 459.26 L319.16 461.84 L316.73 463.24 L316.74 465.14 L315.65 466.84 L316.83 468.94 L320.04 471.33 L316.85 472.70 L318.19 474.76 L316.38 476.37 L318.36 478.47 L322.62 480.77 L316.60 481.98 L318.77 484.02 L316.59 485.67 L317.54 487.58 L318.31 489.46 L314.36 491.09 L317.19 493.06 L314.19 494.80 L314.99 496.68 L317.48 498.55 L315.91 500.37 L319.16 502.18 L315.72 504.06 L315.90 505.90 L319.95 507.57 L316.78 509.54 L316.02 511.43 L313.71 513.44 L317.03 515.04 L320.26 516.59 L316.07 518.83 L318.20 520.45 L317.61 522.37 L319.83 523.93 L320.63 525.65 L319.59 527.64 L323.09 528.92 L319.98 531.28 L323.64 532.46 L325.31 533.96 L323.09 536.24 L326.18 537.42 L324.75 539.56 L328.56 540.51 L327.91 542.48 L327.09 544.53 L329.20 545.81 L328.31 547.89 L332.40 548.56 L332.52 550.35 L332.69 552.13 L333.48 553.72 L333.84 555.44 L338.53 555.68 L335.83 558.45 L336.64 560.01 L337.56 561.52 L336.35 563.86 L340.68 564.01 L338.40 566.81 L339.22 568.36 L340.54 569.69 L337.87 572.80 L340.57 573.51 L340.74 575.37 L340.59 577.41 L339.10 580.13 L342.42 580.45 L347.97 579.55 L346.56 582.25 L347.35 583.80 L347.50 585.71 L348.81 586.98 L352.38 586.90 L349.77 590.47 L352.26 591.00 L352.31 593.01 L353.77 594.15 L357.35 593.87 L355.48 597.19 L358.37 597.32 L358.22 599.52 L360.93 599.71 L365.09 598.79 L363.24 602.26 L366.34 602.04 L365.27 605.00 L368.45 604.66 L373.51 602.72 L369.60 608.07 L372.79 607.59 L372.07 610.41 L374.47 610.55 L376.27 611.18 L376.59 613.14 L380.20 612.06 L377.85 616.57 L382.50 614.40 L385.13 614.10 L383.36 618.20 L387.73 616.07 L384.84 621.47 L387.78 620.76 L389.19 621.66 L387.40 626.13 L390.18 625.52 L390.31 627.94 L393.12 627.22 L393.81 628.98 L393.74 631.73 L395.60 632.12 L395.86 634.53 L398.69 633.61 L400.13 634.49 L401.48 635.48 L403.58 635.41 L403.80 638.01 L407.41 635.70 L408.50 637.03 L410.17 637.49 L411.65 638.22 L413.35 638.59 L418.00 634.12 L417.50 638.01 L418.42 639.62 L420.06 640.03 L421.25 641.19 L424.81 638.03 L425.61 639.88 L427.47 639.73 L428.73 640.73 L430.73 640.25 L434.12 636.82 L432.48 643.89 L433.30 645.92 L434.60 646.95 L436.44 646.75 L439.15 644.42 L438.37 650.46 L441.16 647.85 L442.48 648.85 L443.11 651.71 L446.12 648.18 L446.37 652.22 L448.25 651.69 L449.37 653.41 L451.44 652.26 L453.89 649.73 L454.04 654.72 L455.74 654.64 L457.04 656.00 L458.97 655.00 L461.00 653.55 L461.91 656.48 L464.11 654.15 L465.06 657.17 L466.86 656.45 L468.97 654.04 L469.73 658.43 L471.73 656.44 L473.18 657.41 L475.12 655.38 L477.00 653.48 L478.28 655.49 L480.24 652.62 L481.40 655.87 L483.34 652.54 L485.01 651.31 L486.19 655.18 L487.92 653.12 L489.24 656.25 L490.97 653.56 L492.49 653.86 L493.97 655.54 L495.62 652.32 L497.09 655.31 L498.67 651.97 L500.19 652.76 L501.73 653.67 L503.22 651.73 L504.77 652.72 L506.15 649.12 L507.71 650.31 L509.24 650.75 L510.76 650.72 L512.39 652.19 L513.72 649.94 L515.48 652.33 L517.23 654.23 L518.69 653.42 L520.33 654.00 L521.54 651.49 L523.12 651.68 L524.54 650.88 L526.13 651.13 L527.45 649.78 L528.35 646.41 L530.11 647.59 L531.70 647.84 L533.41 648.53 L534.62 647.02 L535.34 643.64 L537.39 645.68 L538.32 643.35 L540.12 644.26 L541.22 642.68 L541.30 637.78 L543.51 640.04 L544.56 638.52 L546.30 639.15 L546.83 636.18 L547.07 632.53 L549.67 635.55 L550.27 633.04 L552.52 634.91 L552.82 631.76 L552.50 627.27 L555.92 631.82 L555.55 627.39 L558.89 631.44 L559.43 629.17 L559.54 626.06 L564.07 632.21 L564.40 629.58 L566.70 630.90 L566.85 628.02 L567.53 626.22 L570.34 628.37 L571.24 626.99 L573.62 628.21 L573.85 625.68 L574.69 624.26 L577.23 625.62 L577.02 622.51 L579.79 624.14 L579.80 621.47 L580.87 620.46 L583.04 621.05 L583.04 618.50 L585.37 619.27 L584.28 615.30 L585.16 614.08 L586.44 613.42 L586.15 610.72 L588.47 611.38 L586.58 606.80 L588.49 606.95 L590.80 607.53 L591.32 605.98 L593.54 606.38 L592.63 603.25 L595.27 604.08 L596.33 603.15 L597.47 602.29 L598.70 601.54 L596.91 597.72 L600.34 599.17 L600.18 597.06 L595.67 590.85 L594.06 587.54 L592.39 584.29 L589.90 580.38 L588.87 577.88 L588.74 576.20 L588.66 574.61 L588.94 573.34 L589.13 572.01 L589.52 570.86 L589.86 569.68 L590.04 568.38 L590.65 567.43 L591.09 566.36 L591.58 565.32 L591.80 564.10 L592.22 563.03 L592.74 562.03 L593.14 560.96 L593.73 560.02 L593.85 558.78 L594.33 557.78 L594.72 556.72 L595.06 555.64 L595.55 554.65 L595.56 553.40 L596.08 552.43 L596.37 551.35 L596.63 550.25 L597.02 549.23 L597.02 548.02 L597.47 547.03 L597.74 545.96 L597.98 544.88 L598.21 543.81 L598.23 542.64 L598.61 541.64 L598.84 540.58 L599.04 539.51 L599.18 538.42 L599.24 537.30 L599.54 536.28 L599.70 535.22 L599.91 534.17 L599.93 533.07 L600.02 531.99 L600.23 530.96 L600.33 529.89 L600.54 528.86 L600.42 527.75 L600.57 526.70 L600.64 525.65 L600.66 524.59 L600.76 523.55 L600.57 522.44 L600.69 521.41 L600.66 520.36 L600.58 519.30 L600.57 518.25 L600.38 517.19 L600.39 516.16 L600.33 515.12 L600.22 514.08 L600.10 513.04 L599.94 512.01 L599.88 510.99 L599.78 509.97 L599.63 508.95 L599.48 507.93 L599.32 506.92 L599.20 505.92 L599.04 504.91 L598.85 503.91 L598.66 502.92 L598.47 501.93 L598.29 500.94 Z"/>
  <svg class="pausebutton" id="pausebutton">
    <circle cx="500" cy="500" id="pausestart" class="pausestart" r="52.65"/>
    <rect height="50.02" width="10.00" y="473.68" rx="2.00" ry="2.00" x="479.99" class="pausesymbol"/>
    <rect height="50.02" width="10.00" y="473.68" rx="2.00" ry="2.00" x="510.00" class="pausesymbol"/>
    <polygon points="530.01,500 479.99,530.01 479.99,469.99" class="playsymbol"/>
  </svg>
  <polygon id="playback-head" class="playback-head" points="941.65,500 921.65,540 961.65,540"/>
</svg>