<?xml-stylesheet href="../../style/waveformjs.css" type="text/css"?>
<svg xmlns="http://www.w3.org/2000/svg" xmlns:xlink="http://www.w3.org/1999/xlink" width="100%" height="100%" viewBox="0 0 1000 1000">
  <path class="svg-wave" id="sp" d="M598.05 500.00 L598.22 500.98 L598.39 501.97 L598.55 502.96 L598.70 503.95 L598.83 504.95 L598.96 505.94 L599.08 506.95 L599.19 507.95 L599.28 508.96 L599.37 509.97 L599.45 510.98 L599.51 512.00 L599.57 513.02 L599.61 514.04 L599.65 515.06 L599.67 516.08 L599.68 517.11 L599.68 518.14 L599.67 519.17 L599.65 520.20 L599.62 521.23 L599.58 522.27 L599.52 523.30 L599.46 524.34 L599.38 525.38 L599.29 526.41 L599.18 527.45 L599.05 528.48 L598.90 529.51 L598.71 530.53 L598.39 531.52 L597.82 532.42 L597.11 533.26 L596.79 534.24 L596.24 535.13 L595.50 535.95 L595.23 536.94 L594.98 537.94 L594.61 538.89 L594.27 539.86 L594.03 540.87 L593.69 541.84 L593.33 542.80 L592.92 543.74 L592.52 544.69 L592.00 545.58 L591.51 546.49 L591.13 547.44 L590.50 548.27 L589.79 549.05 L589.37 549.99 L588.86 550.88 L588.11 551.63 L587.66 552.55 L587.18 553.45 L586.48 554.22 L585.96 555.10 L585.46 555.99 L584.82 556.79 L584.31 557.68 L583.79 558.56 L583.06 559.30 L582.37 560.06 L581.73 560.85 L581.04 561.61 L580.36 562.37 L579.69 563.14 L578.93 563.83 L578.12 564.48 L577.40 565.19 L576.60 565.84 L575.75 566.44 L574.98 567.10 L574.19 567.74 L573.24 568.23 L572.45 568.86 L571.66 569.49 L570.87 570.11 L570.17 570.82 L569.58 571.64 L568.19 571.63 L566.44 571.20 L566.21 572.40 L564.60 572.07 L562.54 571.19 L562.43 572.51 L561.30 572.66 L560.16 572.78 L559.05 572.91 L557.70 572.71 L555.99 572.02 L554.48 571.55 L553.91 572.29 L552.15 571.40 L550.69 570.89 L550.43 572.03 L548.58 570.89 L546.48 569.30 L545.44 569.23 L544.93 569.98 L543.02 568.49 L543.12 570.20 L543.82 572.97 L543.11 573.44 L542.59 574.25 L543.09 576.89 L545.92 583.90 L545.05 584.29 L544.36 585.04 L545.54 589.48 L542.78 586.18 L541.12 584.94 L538.73 582.11 L536.98 580.47 L536.92 582.50 L536.22 583.16 L535.15 582.94 L534.53 583.81 L533.81 584.46 L532.17 582.75 L531.21 582.72 L530.66 583.78 L530.09 584.85 L529.49 585.86 L528.27 585.08 L528.06 587.36 L527.32 588.06 L526.10 587.22 L525.59 588.72 L524.70 588.99 L524.10 590.30 L522.71 588.66 L521.75 588.56 L520.94 589.11 L519.93 588.79 L519.08 589.16 L518.45 590.64 L517.72 591.75 L516.58 590.71 L515.75 591.35 L515.01 592.53 L513.78 590.72 L512.74 589.88 L512.15 592.35 L512.00 598.83 L511.40 602.51 L510.67 605.49 L510.28 612.89 L509.12 612.62 L508.00 612.84 L506.90 613.34 L505.53 608.85 L504.42 608.33 L503.27 606.12 L502.13 602.56 L501.07 598.80 L500.08 599.82 L499.09 598.43 L498.12 597.97 L497.08 600.01 L496.00 602.03 L495.05 600.47 L494.17 598.37 L492.96 601.60 L491.60 605.79 L490.59 605.19 L489.23 608.21 L487.93 610.06 L486.24 614.92 L484.97 615.65 L484.30 612.03 L483.53 609.58 L482.68 607.88 L482.09 604.82 L481.94 599.71 L480.61 601.25 L479.40 602.05 L478.62 600.72 L477.81 599.61 L475.98 602.97 L475.38 600.95 L475.05 598.04 L473.29 600.74 L471.00 605.10 L470.55 602.72 L468.33 606.43 L466.77 607.74 L465.34 608.51 L463.05 611.80 L462.56 609.60 L462.36 606.67 L461.69 605.20 L461.60 602.26 L462.27 597.51 L461.00 597.87 L459.58 598.54 L459.14 596.85 L458.01 596.82 L455.53 599.79 L454.38 599.68 L454.52 596.80 L452.38 598.78 L447.92 605.33 L447.80 602.96 L445.27 605.33 L442.49 608.03 L441.77 606.79 L439.15 608.99 L439.50 605.87 L440.22 602.22 L440.07 600.17 L440.01 598.02 L441.21 593.94 L440.88 592.39 L439.14 593.06 L438.58 591.89 L438.92 589.44 L436.04 591.66 L434.33 592.14 L436.19 587.66 L435.47 586.81 L430.40 591.70 L429.27 591.28 L428.24 590.73 L426.67 590.82 L425.14 590.85 L425.69 588.36 L427.75 584.20 L428.86 581.24 L427.27 581.40 L426.28 580.86 L425.62 579.97 L424.41 579.65 L423.69 578.82 L424.13 576.82 L423.38 576.04 L422.26 575.62 L421.23 575.11 L420.28 574.50 L419.23 573.99 L416.38 575.07 L416.20 573.73 L415.58 572.79 L413.63 572.99 L412.57 572.39 L410.13 572.91 L409.55 571.90 L408.46 571.28 L406.46 571.34 L406.83 569.60 L406.75 568.22 L405.28 567.85 L404.69 566.84 L405.78 564.68 L404.40 564.23 L403.32 563.56 L404.55 561.39 L404.64 560.00 L402.95 559.71 L400.03 560.14 L396.41 560.92 L391.78 562.19 L389.24 562.18 L385.82 562.61 L380.23 564.13 L382.03 561.65 L384.53 558.89 L385.00 557.20 L385.75 555.41 L388.55 552.68 L391.11 550.15 L388.67 549.93 L387.66 549.04 L388.99 547.14 L386.94 546.69 L383.81 546.62 L387.17 543.97 L389.66 541.73 L381.81 543.36 L377.67 543.49 L380.26 541.23 L373.49 542.15 L371.41 541.42 L370.92 540.15 L370.63 538.83 L374.09 536.42 L375.58 534.65 L376.38 533.10 L379.23 531.04 L384.19 528.54 L380.65 528.15 L379.40 527.17 L381.50 525.45 L378.66 524.80 L374.41 524.36 L376.83 522.62 L378.47 521.06 L372.72 520.75 L366.37 520.41 L368.15 518.79 L363.38 518.08 L361.25 516.95 L360.76 515.60 L360.18 514.25 L365.04 512.40 L366.94 510.88 L367.88 509.47 L370.87 507.96 L375.55 506.43 L372.21 505.32 L370.93 504.08 L371.46 502.78 L371.42 501.49 L368.40 500.21 L369.41 498.90 L373.50 497.67 L371.60 496.35 L368.06 494.93 L368.49 493.63 L364.92 492.10 L364.19 490.70 L361.07 489.08 L357.24 487.35 L360.92 486.27 L363.69 485.16 L365.56 484.01 L366.72 482.79 L371.00 482.03 L371.27 480.75 L369.73 479.19 L370.89 478.05 L372.42 476.99 L369.37 475.09 L369.82 473.83 L372.41 473.02 L369.13 470.95 L361.06 467.70 L364.62 467.10 L365.57 465.90 L366.28 464.66 L370.75 464.45 L374.86 464.23 L378.14 463.85 L379.02 462.79 L377.88 461.10 L376.76 459.38 L376.46 457.90 L375.42 456.15 L375.84 454.90 L377.94 454.28 L378.03 452.92 L377.96 451.48 L378.14 450.14 L378.67 448.93 L379.89 448.02 L379.03 446.21 L380.29 445.33 L381.75 444.56 L382.33 443.39 L380.92 441.24 L380.61 439.59 L381.48 438.54 L381.85 437.22 L381.75 435.65 L383.20 434.91 L383.65 433.63 L383.02 431.71 L383.50 430.42 L384.89 429.67 L385.09 428.21 L386.25 427.35 L388.46 427.18 L389.26 426.11 L387.46 423.27 L382.47 418.13 L381.86 415.94 L379.47 412.42 L375.48 407.59 L376.76 406.63 L375.75 403.88 L379.67 404.98 L383.69 406.25 L385.78 406.04 L387.82 405.82 L393.06 408.38 L396.23 409.28 L393.79 405.26 L395.36 404.76 L398.42 405.67 L396.24 401.70 L394.91 398.42 L399.41 400.81 L400.53 399.93 L394.64 391.86 L394.55 389.58 L396.17 389.08 L392.53 382.86 L394.47 382.65 L393.85 379.55 L397.17 380.94 L401.14 383.20 L402.71 382.69 L404.68 382.71 L407.99 384.43 L411.06 385.97 L410.87 383.33 L412.45 382.99 L413.97 382.60 L414.43 380.74 L414.42 378.17 L417.63 380.21 L420.36 381.67 L419.13 377.21 L419.37 374.87 L420.28 373.51 L419.18 368.88 L419.83 366.97 L418.93 362.38 L420.55 362.01 L423.73 364.41 L425.74 364.84 L427.89 365.59 L430.60 367.47 L433.76 370.37 L433.99 367.57 L435.23 366.72 L436.40 365.74 L437.39 364.33 L437.49 360.92 L439.61 361.95 L442.00 363.73 L440.69 356.69 L440.78 352.76 L443.28 354.79 L442.28 347.77 L443.25 345.69 L444.60 344.56 L445.66 342.58 L448.85 346.87 L450.75 347.49 L452.95 349.18 L455.45 352.00 L458.06 355.45 L458.86 352.73 L460.16 351.66 L461.88 352.19 L463.48 352.30 L464.10 348.32 L466.03 349.79 L468.44 353.64 L469.28 350.29 L469.86 345.30 L471.83 347.25 L473.43 347.39 L475.03 347.59 L476.31 345.75 L478.40 349.30 L480.20 351.34 L481.65 350.81 L483.01 349.42 L484.48 348.91 L485.99 348.78 L487.44 347.93 L488.93 347.41 L490.53 348.41 L492.04 348.19 L493.54 347.67 L495.08 348.15 L496.62 349.02 L498.13 349.01 L499.64 347.54 L501.14 349.68 L502.66 348.76 L504.23 346.98 L505.79 346.24 L507.36 345.62 L508.91 345.53 L510.50 344.93 L512.02 345.46 L513.52 346.07 L515.01 346.76 L516.58 346.53 L518.16 346.34 L519.59 347.33 L521.15 347.27 L522.72 347.21 L524.09 348.40 L525.75 347.80 L527.89 344.64 L530.80 337.79 L532.74 336.47 L535.34 332.25 L538.05 327.90 L539.46 329.66 L541.74 327.66 L542.62 331.41 L543.37 335.40 L544.71 336.93 L545.97 338.68 L546.40 343.13 L547.65 344.64 L549.93 342.83 L551.34 343.84 L552.24 346.30 L555.01 343.29 L557.06 342.52 L556.86 347.84 L558.23 348.81 L562.36 342.79 L563.59 344.24 L565.69 343.60 L568.67 340.97 L571.87 338.03 L574.58 336.34 L574.80 340.12 L574.25 345.35 L575.29 347.12 L576.19 349.12 L575.94 353.28 L576.83 355.13 L579.27 354.07 L581.19 354.04 L581.53 356.81 L584.37 355.22 L587.19 353.75 L586.83 357.62 L589.12 357.09 L595.24 350.62 L597.46 350.47 L599.03 351.33 L604.16 346.97 L604.78 349.32 L607.99 347.97 L607.14 352.32 L605.19 358.02 L606.39 359.36 L606.65 361.90 L605.57 366.09 L606.01 368.26 L608.87 367.44 L610.54 368.12 L610.57 370.74 L612.99 370.55 L616.10 369.65 L614.81 373.65 L614.55 376.45 L618.64 374.58 L621.90 373.68 L623.69 374.37 L627.15 373.41 L629.54 373.59 L634.35 371.49 L634.14 374.24 L632.31 378.41 L632.40 380.75 L632.56 382.98 L631.17 386.53 L630.19 389.63 L632.83 389.66 L634.58 390.46 L634.68 392.60 L636.51 393.36 L640.00 392.86 L639.14 395.71 L640.05 397.21 L646.78 394.50 L652.17 392.92 L652.95 394.64 L660.13 392.04 L663.52 392.12 L664.74 393.66 L665.56 395.47 L666.60 397.13 L667.76 398.71 L668.92 400.30 L669.62 402.16 L670.69 403.81 L671.65 405.52 L672.07 407.51 L673.41 409.02 L674.09 410.87 L673.99 413.11 L674.96 414.80 L675.88 416.51 L676.33 418.45 L677.07 420.25 L678.18 421.88 L679.47 423.45 L680.14 425.28 L680.77 427.13 L681.68 428.87 L682.21 430.75 L682.95 432.56 L683.57 434.41 L684.50 436.15 L685.51 437.87 L685.89 439.80 L686.32 441.71 L687.55 443.38 L688.17 445.24 L688.67 447.14 L689.63 448.91 L689.96 450.85 L690.36 452.77 L691.27 454.57 L691.31 456.58 L691.95 458.45 L692.80 460.28 L693.24 462.20 L693.15 464.22 L693.44 466.16 L694.39 467.99 L694.26 470.01 L694.71 471.93 L695.56 473.80 L696.43 475.68 L696.55 477.66 L696.63 479.64 L696.55 481.63 L695.97 483.66 L696.16 485.62 L696.09 487.59 L695.66 489.58 L696.16 491.52 L696.20 493.49 L695.63 495.46 L694.61 497.43 L693.66 499.38 L694.25 501.32 L693.63 503.26 L693.66 505.19 L693.46 507.13 L691.80 508.99 L690.11 510.81 L688.74 512.63 L687.72 514.45 L685.51 516.15 L684.24 517.89 L685.75 519.92 L684.01 521.59 L683.00 523.33 L683.02 525.20 L685.63 527.45 L683.01 528.94 L682.42 530.72 L684.58 532.98 L682.73 534.54 L683.84 536.66 L684.36 538.68 L685.31 540.82 L684.34 542.54 L684.72 544.58 L683.35 546.20 L681.43 547.65 L682.15 549.79 L681.07 551.44 L680.36 553.20 L681.21 555.42 L680.74 557.26 L679.43 558.83 L678.87 560.63 L681.73 563.63 L681.12 565.46 L680.84 567.41 L684.09 570.73 L682.84 572.35 L683.78 574.86 L683.70 576.98 L684.22 579.37 L684.10 581.51 L682.20 582.86 L679.19 583.66 L677.61 585.10 L673.89 585.46 L670.47 585.91 L669.51 587.56 L669.19 589.55 L668.25 591.22 L667.30 592.88 L665.88 594.28 L665.75 596.41 L663.39 597.23 L663.44 599.49 L663.59 601.84 L662.42 603.38 L663.76 606.54 L662.97 608.37 L661.03 609.42 L661.05 611.80 L659.45 613.06 L659.90 615.81 L657.61 616.57 L657.26 618.76 L657.34 621.31 L655.29 622.23 L653.19 623.07 L651.47 624.20 L649.31 624.95 L647.57 626.03 L647.63 628.65 L645.23 629.14 L644.65 631.24 L645.20 634.40 L643.15 635.19 L642.86 637.65 L642.48 640.06 L642.24 642.65 L640.43 643.67 L638.61 644.68 L636.87 645.75 L635.79 647.54 L635.30 649.98 L634.23 651.82 L633.89 654.53 L633.90 657.70 L630.79 657.19 L627.04 655.83 L623.88 655.09 L621.15 654.83 L619.24 655.56 L616.82 655.61 L616.05 657.85 L615.19 659.99 L613.98 661.70 L613.48 664.47 L612.14 666.06 L610.60 667.35 L608.67 668.07 L606.79 668.83 L605.77 670.98 L604.84 673.33 L604.16 676.17 L603.66 679.39 L603.16 682.72 L601.90 684.78 L598.71 683.31 L596.24 683.08 L593.82 682.90 L590.98 681.81 L588.13 680.60 L586.44 681.73 L584.46 682.23 L583.06 684.02 L581.71 685.98 L580.75 688.89 L579.09 690.24 L577.01 690.61 L575.02 691.16 L573.24 692.26 L571.23 692.74 L569.01 692.65 L567.17 693.58 L565.44 694.87 L562.99 693.98 L560.67 693.41 L558.54 693.36 L556.55 693.75 L555.13 696.15 L553.40 697.56 L552.02 700.40 L550.35 702.24 L549.35 707.05 L548.48 712.81 L546.11 712.18 L544.64 715.79 L542.84 718.08 L540.08 715.38 L537.61 713.99 L535.41 714.03 L533.12 713.38 L530.85 712.76 L528.67 712.70 L526.44 712.14 L524.02 709.86 L521.82 709.13 L519.58 707.71 L517.55 708.48 L515.52 709.38 L513.54 711.26 L511.57 714.11 L509.59 717.99 L507.58 722.90 L505.40 725.14 L503.18 727.63 L500.92 731.62 L498.62 730.01 L496.34 728.27 L494.08 727.66 L491.83 726.65 L489.75 722.62 L487.67 719.87 L485.52 719.07 L483.63 714.88 L481.62 713.13 L479.50 712.84 L477.16 714.65 L474.94 715.04 L472.67 715.70 L470.00 719.22 L467.58 720.42 L464.68 724.57 L462.35 724.70 L459.72 726.46 L456.89 729.09 L455.00 726.62 L453.04 724.72 L451.08 722.91 L449.24 720.73 L447.62 717.80 L445.87 715.57 L443.72 715.02 L442.37 711.51 L441.18 707.67 L439.28 706.48 L437.30 705.58 L434.56 707.14 L431.38 709.88 L428.16 712.49 L425.22 714.10 L421.02 719.07 L418.74 718.52 L417.01 716.52 L414.17 717.41 L412.49 715.33 L410.41 714.27 L408.54 712.74 L407.06 710.37 L405.55 708.12 L404.34 705.32 L402.88 703.11 L402.15 699.50 L401.33 696.18 L399.56 694.83 L397.36 694.29 L396.51 691.24 L393.56 692.07 L391.06 692.03 L388.65 691.79 L384.15 695.02 L382.43 693.49 L379.49 693.93 L375.54 695.89 L374.23 693.65 L373.46 690.62 L373.29 686.81 L371.28 685.74 L370.45 683.01 L370.50 679.11 L367.80 679.05 L366.30 677.34 L365.27 675.03 L363.41 673.83 L360.41 674.03 L357.97 673.49 L355.54 672.90 L353.66 671.63 L349.66 672.79 L344.24 675.45 L342.22 674.19 L339.28 673.91 L334.55 675.46 L333.81 672.76 L333.31 669.84 L333.06 666.73 L332.21 664.26 L331.29 661.89 L331.93 658.08 L330.76 656.02 L330.78 652.90 L331.74 649.01 L330.29 647.29 L327.27 646.91 L324.04 646.65 L318.82 647.95 L312.60 649.93 L310.56 648.48 L306.11 648.86 L302.02 648.88 L302.18 645.69 L300.52 643.86 L299.17 641.80 L299.80 638.38 L299.07 635.93 L299.07 633.02 L299.81 629.67 L299.41 627.10 L298.70 624.75 L300.18 621.08 L301.45 617.61 L300.37 615.57 L299.58 613.37 L298.76 611.19 L297.31 609.36 L291.87 609.62 L288.19 608.87 L285.40 607.60 L280.39 607.38 L275.41 607.04 L274.48 604.74 L272.45 602.92 L272.84 600.02 L273.08 597.22 L273.03 594.57 L273.45 591.74 L275.88 588.16 L277.61 584.92 L277.63 582.38 L279.64 579.14 L282.22 575.76 L280.97 573.75 L275.75 573.02 L273.35 571.30 L270.58 569.66 L265.19 568.74 L260.76 567.44 L259.32 565.26 L259.84 562.55 L259.47 560.08 L258.05 557.87 L258.35 555.25 L258.40 552.70 L258.50 550.16 L259.11 547.52 L260.15 544.83 L259.81 542.41 L259.95 539.92 L263.42 536.91 L264.11 534.39 L263.02 532.13 L264.42 529.55 L266.64 526.90 L265.06 524.71 L263.44 522.49 L263.37 520.11 L261.94 517.84 L260.49 515.54 L258.95 513.22 L259.39 510.78 L259.78 508.36 L260.41 505.94 L259.37 503.56 L258.38 501.15 L259.69 498.75 L258.79 496.33 L257.32 493.88 L259.93 491.54 L261.94 489.23 L261.61 486.82 L260.13 484.33 L260.50 481.95 L260.26 479.52 L258.65 476.95 L255.39 474.17 L248.65 470.91 L249.63 468.48 L246.90 465.56 L242.45 462.33 L244.81 460.07 L247.11 457.83 L248.50 455.47 L250.87 453.32 L254.53 451.46 L255.71 449.15 L256.39 446.75 L259.45 444.89 L262.61 443.11 L262.29 440.51 L262.33 437.99 L263.72 435.82 L263.00 433.07 L261.05 429.94 L258.85 426.67 L254.16 422.54 L253.99 419.78 L251.85 416.33 L248.03 412.22 L250.88 410.41 L253.44 408.54 L256.70 406.97 L260.71 405.75 L265.48 404.90 L267.49 403.00 L268.95 400.89 L272.49 399.70 L274.41 397.84 L274.18 395.00 L273.52 391.93 L274.81 389.77 L274.70 386.91 L272.90 383.14 L272.68 380.14 L270.99 376.31 L270.35 372.98 L271.36 370.54 L269.61 366.48 L272.14 364.89 L276.05 364.16 L278.05 362.32 L280.66 360.88 L285.28 360.78 L286.42 358.47 L287.32 355.98 L291.59 355.82 L294.34 354.66 L295.62 352.48 L298.26 351.29 L298.83 348.58 L297.68 344.52 L295.85 339.85 L295.61 336.32 L295.32 332.71 L293.24 327.53 L296.06 326.39 L297.14 323.79 L298.73 321.61 L301.07 320.10 L303.61 318.79 L305.46 316.86 L308.89 316.45 L311.93 315.72 L314.08 314.15 L318.46 314.85 L322.11 314.91 L324.78 314.01 L327.58 313.27 L330.26 312.45 L331.32 309.83 L332.84 307.70 L334.84 306.12 L333.24 300.22 L334.68 297.87 L336.03 295.39 L335.70 290.72 L337.79 289.07 L341.06 288.99 L344.77 289.57 L347.90 289.44 L350.38 288.45 L354.42 289.74 L356.94 288.90 L359.08 287.51 L361.87 287.11 L363.89 285.57 L365.22 282.89 L366.70 280.40 L367.85 277.30 L369.12 274.33 L370.93 272.25 L370.82 266.65 L371.56 262.39 L373.51 260.30 L373.96 255.25 L375.04 251.28 L378.27 251.56 L381.53 251.94 L383.91 250.55 L387.21 251.17 L391.25 253.56 L394.39 254.04 L396.97 253.28 L400.52 254.92 L403.96 256.43 L406.22 255.00 L406.77 248.96 L408.94 247.08 L410.43 243.18 L411.54 237.97 L412.86 233.10 L414.67 229.52 L417.89 230.33 L421.00 230.92 L423.30 228.76 L426.52 229.86 L429.62 230.64 L432.73 231.61 L435.92 233.04 L439.64 236.99 L442.36 236.76 L445.06 236.50 L448.33 239.16 L451.24 240.28 L453.61 238.52 L456.07 237.13 L458.97 238.43 L461.19 235.27 L463.34 231.27 L465.71 228.39 L467.88 223.36 L470.46 221.20 L473.17 220.14 L475.84 218.31 L478.70 218.67 L481.64 220.37 L484.49 221.20 L487.30 221.43 L490.22 225.09 L493.03 227.58 L495.75 227.27 L498.50 230.37 L501.17 235.17 L503.84 233.80 L506.57 231.01 L509.31 229.77 L512.20 225.66 L515.21 220.82 L518.18 218.26 L521.22 215.35 L523.93 217.20 L526.63 218.82 L529.59 217.65 L532.33 218.73 L535.14 219.02 L537.88 219.88 L540.55 221.20 L543.06 223.36 L545.63 225.00 L548.39 225.42 L550.64 228.54 L552.42 233.79 L555.64 231.61 L559.18 228.24 L561.91 228.77 L565.35 226.38 L569.93 219.63 L573.07 219.03 L575.69 220.46 L578.27 221.97 L580.82 223.55 L583.32 225.24 L585.98 226.36 L588.66 227.38 L591.34 228.42 L593.99 229.51 L596.65 230.57 L599.11 232.16 L601.62 233.61 L604.20 234.85 L606.84 235.90 L609.42 237.11 L612.00 238.33 L614.83 238.97 L617.65 239.66 L620.20 240.93 L622.76 242.21 L625.46 243.18 L628.17 244.16 L630.76 245.38 L634.11 245.16 L635.50 248.66 L637.02 251.81 L639.21 253.69 L641.01 256.23 L642.63 259.01 L645.29 260.04 L648.17 260.70 L651.15 261.27 L653.62 262.64 L655.59 264.79 L657.77 266.61 L660.08 268.21 L661.78 270.70 L664.00 272.41 L666.06 274.36 L668.78 275.39 L671.71 276.19 L674.28 277.49 L677.59 277.87 L679.64 279.85 L681.34 282.25 L683.05 284.62 L684.46 287.31 L686.28 289.50 L688.18 291.58 L690.66 293.04 L693.81 293.80 L695.05 296.60 L696.86 298.77 L700.11 299.50 L704.40 299.26 L705.78 301.91 L709.45 302.37 L713.13 302.89 L714.51 305.55 L717.13 307.10 L719.95 308.50 L722.58 310.09 L724.70 312.12 L726.46 314.47 L726.99 317.80 L728.15 320.59 L729.36 323.33 L730.14 326.36 L731.45 328.98 L734.53 330.30 L735.14 333.42 L736.38 336.06 L736.76 339.29 L739.14 341.14 L739.65 344.23 L740.40 347.14 L742.59 349.13 L746.71 349.97 L749.93 351.42 L750.47 354.47 L752.94 356.39 L755.31 358.40 L756.05 361.32 L756.32 364.47 L755.94 367.93 L757.86 370.19 L757.22 373.72 L759.55 375.78 L760.36 378.58 L761.31 381.30 L764.83 382.89 L767.64 384.83 L773.11 385.70 L770.35 390.02 L772.52 392.30 L778.48 393.15 L775.37 397.49 L776.81 400.09 L779.30 402.34 L781.85 404.60 L782.41 407.55 L782.26 410.71 L782.38 413.77 L783.63 416.48 L786.18 418.83 L785.14 422.20 L787.65 424.59 L793.50 426.19 L792.03 429.66 L790.05 433.20 L789.48 436.37 L789.41 439.41 L787.84 442.74 L786.64 445.95 L789.27 448.44 L788.89 451.49 L790.47 454.21 L791.04 457.09 L791.92 459.94 L793.56 462.70 L793.11 465.74 L793.22 468.69 L795.31 471.45 L796.72 474.31 L799.06 477.12 L800.17 480.05 L804.58 482.81 L803.49 485.92 L801.22 489.04 L801.31 492.05 L800.66 495.08 L798.94 498.10 L798.14 501.08 L799.42 504.08 L797.90 507.04 L798.63 510.05 L798.87 513.05 L799.74 516.09 L799.79 519.10 L798.83 522.04 L798.82 525.05 L798.51 528.03 L797.68 530.96 L795.95 533.77 L796.16 536.80 L797.00 539.93 L794.01 542.52 L792.25 545.26 L791.92 548.20 L792.11 551.23 L792.81 554.38 L793.98 557.65 L795.95 561.11 L797.03 564.44 L801.65 568.60 L802.59 572.01 L804.14 575.60 L809.35 580.19 L807.45 582.98 L804.21 585.38 L801.73 587.95 L800.77 590.94 L798.26 593.45 L795.26 595.76 L795.51 599.12 L792.49 601.37 L787.73 602.96 L786.41 605.73 L784.36 608.22 L782.51 610.76 L782.73 614.12 L783.12 617.58 L784.66 621.57 L786.91 625.94 L790.03 630.79 L791.34 634.90 L793.67 639.56 L792.77 642.74 L789.24 644.61 L786.68 646.94 L784.38 649.36 L780.52 650.93 L777.06 652.66 L775.51 655.42 L771.91 657.00 L767.20 657.86 L764.90 660.10 L763.80 663.06 L763.43 666.49 L761.50 668.96 L761.53 672.71 L761.59 676.53 L761.88 680.56 L763.03 685.26 L761.65 688.23 L762.25 692.67 L761.78 696.39 L758.33 697.86 L755.51 699.79 L752.74 701.73 L749.37 703.16 L745.91 704.46 L743.37 706.50 L739.82 707.65 L734.72 707.38 L731.96 709.11 L728.07 709.77 L725.43 711.54 L726.13 716.49 L727.04 721.76 L726.30 725.50 L727.12 730.89 L728.83 737.33 L725.69 738.81 L722.82 740.54 L721.46 743.93 L718.44 745.48 L715.10 746.66 L712.29 748.40 L709.07 749.65 L704.96 749.77 L701.65 750.82 L698.83 752.43 L694.21 751.70 L690.34 751.86 L686.75 752.32 L684.58 754.67 L680.42 754.24 L678.69 757.21 L676.96 760.24 L675.95 764.41 L675.07 768.87 L672.36 770.59 L670.80 774.16 L669.12 777.60 L665.61 778.07 L661.76 777.89 L657.81 777.44 L655.08 779.10 L651.06 778.39 L647.06 777.60 L644.62 779.72 L641.19 779.91 L638.07 780.67 L635.61 782.78 L633.76 786.22 L631.51 788.90 L629.58 792.38 L626.80 794.03 L625.34 798.82 L624.70 805.83 L621.15 805.83 L619.27 810.10 L617.63 815.22 L613.86 814.68 L610.25 814.52 L606.64 814.23 L603.30 814.69 L599.43 813.44 L595.87 813.06 L593.02 814.96 L589.00 812.86 L584.79 809.78 L581.64 810.45 L579.44 814.84 L576.33 815.76 L573.85 819.48 L572.16 827.05 L569.08 828.67 L566.52 832.99 L563.29 834.20 L559.62 832.99 L556.45 834.51 L552.75 832.89 L549.20 831.87 L545.70 831.07 L542.20 830.07 L538.85 830.09 L535.31 828.26 L532.03 828.63 L528.60 827.29 L525.01 823.44 L521.72 822.94 L518.56 824.27 L515.26 823.38 L512.08 824.75 L508.93 828.70 L505.73 833.99 L502.41 835.60 L499.04 839.38 L495.62 841.62 L492.17 842.66 L488.82 840.50 L485.55 837.07 L482.25 835.69 L478.85 836.20 L475.63 834.03 L472.47 831.59 L468.96 833.40 L465.93 830.12 L463.12 825.45 L460.00 824.05 L456.62 824.63 L453.06 826.41 L449.17 830.00 L445.27 833.13 L441.35 835.97 L437.33 838.97 L433.83 838.90 L430.66 837.16 L427.25 836.64 L423.86 836.01 L420.76 834.17 L417.53 832.90 L414.24 831.93 L411.35 829.48 L408.26 827.88 L404.93 827.12 L402.38 823.79 L400.28 819.16 L397.07 818.22 L394.44 815.54 L391.59 813.60 L388.23 813.14 L385.06 812.12 L381.67 811.68 L378.43 810.82 L375.18 809.96 L371.86 809.25 L368.61 808.33 L365.77 806.47 L362.86 804.77 L359.78 803.47 L356.80 801.95 L353.89 800.30 L350.58 799.44 L347.40 798.31 L344.83 796.01 L342.35 793.57 L339.72 791.42 L337.27 788.99 L333.38 789.11 L330.40 787.59 L326.78 787.13 L323.06 786.76 L317.81 788.77 L311.60 792.10 L309.16 789.49 L304.22 790.62 L299.39 791.45 L297.76 787.62 L296.03 784.01 L293.55 781.47 L291.83 777.95 L290.56 773.89 L288.31 771.17 L286.84 767.49 L286.08 763.01 L284.12 760.06 L281.89 757.46 L278.28 756.48 L275.28 754.76 L271.84 753.50 L267.63 753.05 L262.13 753.89 L255.87 755.40 L252.32 753.99 L247.96 753.34 L242.36 753.84 L241.62 749.52 L241.19 744.98 L239.55 741.64 L239.03 737.32 L239.75 731.95 L237.87 728.96 L235.45 726.45 L235.27 722.06 L234.25 718.43 L231.22 716.45 L228.17 714.46 L226.49 711.38 L223.62 709.22 L218.59 708.64 L215.50 706.54 L209.70 706.35 L207.45 703.58 L204.56 701.24 L199.55 700.28 L199.18 696.21 L198.99 692.07 L197.53 688.77 L198.10 684.25 L197.61 680.43 L195.95 677.32 L195.96 673.26 L196.47 668.97 L195.63 665.47 L195.07 661.85 L194.19 658.42 L189.94 656.70 L185.85 654.85 L180.93 653.33 L177.31 651.11 L170.36 650.37 L167.48 647.68 L167.20 643.84 L164.49 641.05 L163.85 637.38 L163.19 633.73 L162.47 630.13 L163.10 626.03 L163.07 622.21 L163.52 618.25 L163.54 614.48 L165.34 610.15 L167.78 605.67 L167.01 602.26 L165.40 599.11 L167.28 594.94 L164.60 592.09 L162.25 589.11 L159.87 586.11 L154.39 583.83 L154.09 580.25 L151.32 577.23 L146.28 574.64 L147.22 570.76 L148.76 566.81 L150.38 562.89 L150.21 559.31 L151.29 555.55 L153.38 551.67 L151.56 548.38 L151.78 544.80 L152.19 541.22 L151.52 537.77 L150.02 534.40 L148.32 531.01 L146.74 527.60 L145.87 524.11 L142.65 520.74 L137.21 517.41 L135.85 513.83 L133.35 510.26 L128.28 506.68 L128.57 502.96 L130.85 499.25 L131.78 495.57 L133.20 491.92 L136.29 488.34 L137.29 484.74 L136.55 481.07 L140.06 477.64 L143.06 474.24 L143.28 470.67 L142.38 466.99 L141.37 463.28 L136.68 459.12 L133.32 455.03 L132.29 451.16 L128.35 446.85 L127.25 442.89 L129.76 439.48 L131.08 435.90 L131.36 432.14 L133.94 428.83 L136.12 425.47 L137.26 421.91 L139.67 418.65 L142.85 415.61 L144.13 412.14 L145.85 408.80 L150.31 406.21 L152.59 403.09 L153.16 399.50 L154.56 396.15 L156.60 393.01 L153.81 388.33 L151.69 383.79 L150.68 379.56 L147.37 374.45 L144.18 369.29 L145.36 365.69 L145.77 361.78 L149.74 359.27 L152.00 356.12 L153.81 352.80 L157.92 350.49 L161.38 347.95 L162.93 344.58 L166.68 342.25 L171.49 340.49 L175.79 338.55 L178.10 335.66 L176.41 330.70 L176.65 326.68 L175.15 321.67 L172.84 316.12 L171.12 310.80 L171.70 306.74 L174.93 304.24 L177.71 301.50 L178.64 297.61 L181.90 295.19 L184.39 292.30 L186.98 289.49 L190.47 287.31 L193.77 285.04 L195.97 282.02 L198.25 279.05 L203.34 278.18 L206.72 276.10 L208.69 272.96 L212.89 271.58 L216.95 270.16 L219.64 267.65 L220.69 263.76 L223.39 261.27 L224.96 257.78 L226.14 253.92 L227.02 249.72 L230.00 247.44 L232.85 245.05 L235.75 242.72 L238.02 239.78 L240.02 236.54 L243.97 235.31 L246.08 232.18 L247.64 228.43 L252.21 227.94 L255.99 226.66 L258.35 223.79 L260.23 220.35 L262.97 217.88 L264.88 214.40 L266.35 210.34 L267.50 205.79 L266.39 198.23 L269.27 195.71 L270.77 191.32 L270.49 184.40 L273.93 182.51 L278.04 181.58 L281.64 179.98 L285.17 178.29 L289.34 177.60 L293.20 176.48 L296.48 174.49 L301.01 174.53 L306.26 175.88 L309.72 174.31 L313.32 173.02 L317.39 172.59 L320.39 170.25 L322.66 166.52 L324.39 161.66 L325.72 155.84 L328.17 152.11 L330.36 147.69 L331.22 140.33 L335.29 139.69 L339.13 138.56 L342.98 137.51 L347.27 137.50 L351.95 138.55 L356.23 138.76 L360.22 138.29 L364.98 139.95 L369.73 141.75 L373.39 140.67 L376.38 137.64 L380.59 138.18 L383.99 136.28 L386.81 132.48 L390.09 130.02 L392.84 125.58 L395.91 122.09 L399.42 120.03 L402.03 114.31 L405.69 112.55 L409.85 112.83 L413.92 112.80 L417.81 112.02 L422.10 113.24 L426.35 114.46 L430.25 113.96 L434.62 116.25 L439.15 119.97 L443.07 120.15 L447.19 121.89 L451.07 122.09 L454.41 117.94 L457.72 112.77 L461.43 110.69 L465.07 107.52 L468.59 101.97 L472.66 102.98 L476.65 103.15 L480.57 101.79 L484.58 102.49 L488.57 102.63 L492.56 103.39 L496.53 104.30 L500.49 106.05 L504.41 107.33 L508.28 110.32 L512.08 113.50 L515.88 115.11 L519.62 117.35 L523.43 117.81 L527.28 117.67 L531.10 118.04 L534.91 118.45 L539.29 113.27 L543.30 112.36 L547.26 112.10 L551.66 108.64 L555.67 108.46 L559.28 111.06 L562.74 114.27 L566.32 116.51 L570.07 117.64 L573.28 121.48 L576.80 123.51 L580.62 124.06 L584.11 126.03 L587.78 127.18 L591.79 126.90 L596.00 125.97 L600.21 125.18 L604.70 123.53 L608.48 124.50 L613.66 120.83 L618.68 118.00 L622.66 118.71 L627.83 115.85 L633.23 112.60 L636.74 114.96 L640.29 117.14 L644.27 118.14 L647.35 121.49 L650.04 125.69 L653.27 128.45 L656.43 131.29 L658.77 135.93 L661.09 140.48 L664.49 142.52 L669.92 140.22 L673.86 141.22 L678.72 140.40 L684.35 138.20 L689.71 136.71 L694.51 136.42 L697.19 140.11 L700.30 142.95 L705.01 142.97 L708.05 145.93 L711.23 148.60 L714.69 150.81 L717.61 153.86 L720.09 157.57 L723.00 160.55 L726.22 163.04 L727.55 168.28 L728.93 173.31 L731.53 176.54 L734.36 179.40 L736.45 183.24 L740.80 184.06 L746.10 183.71 L750.96 184.04 L757.08 182.90 L761.58 183.87 L766.25 184.69 L771.22 185.24 L774.04 188.33 L777.06 191.18 L780.20 193.89 L782.55 197.45 L784.06 201.88 L786.41 205.36 L788.26 209.34 L788.37 214.98 L786.86 222.08 L789.01 225.56 L792.88 227.40 L795.79 230.16 L801.30 230.60 L808.00 230.11 L812.93 231.27 L818.13 232.28 L820.46 235.75 L821.75 240.05 L825.58 242.29 L827.28 246.23 L829.43 249.80 L831.27 253.58 L833.10 257.36 L834.25 261.60 L836.14 265.28 L838.51 268.63 L838.25 273.74 L836.44 279.79 L839.41 282.66 L844.44 284.27 L847.99 286.86 L852.03 289.20 L861.47 288.42 L867.72 289.67 L870.37 293.05 L872.76 296.58 L875.43 299.96 L878.05 303.40 L880.28 307.04 L881.77 311.07 L883.99 314.72 L886.10 318.44 L887.55 322.47 L889.18 326.41 L891.03 330.25 L892.86 334.11 L894.46 338.06 L896.18 341.96 L898.57 345.61 L900.62 349.41 L902.53 353.27 L904.95 356.96 L906.34 361.02 L907.64 365.11 L908.85 369.24 L909.89 373.41 L911.37 377.44 L913.07 381.42 L914.59 385.46 L916.22 389.48 L918.00 393.46 L919.10 397.64 L919.84 401.89 L920.81 406.10 L921.91 410.27 L922.86 414.48 L923.79 418.69 L925.00 422.86 L925.96 427.08 L926.66 431.34 L927.77 435.54 L928.00 439.88 L928.77 444.14 L929.97 448.35 L930.56 452.64 L931.42 456.91 L932.62 461.15 L933.27 465.46 L933.44 469.80 L934.21 474.11 L934.54 478.45 L934.68 482.80 L935.01 487.14 L935.53 491.48 L935.92 495.83 L951.20 500.00 L951.38 495.49 L951.28 490.97 L951.48 486.45 L951.01 481.95 L950.16 477.47 L949.63 472.99 L949.91 468.46 L949.21 463.99 L948.75 459.50 L949.23 454.93 L949.01 450.41 L948.00 445.98 L947.72 441.47 L946.71 437.05 L945.22 432.71 L944.71 428.23 L943.52 423.87 L942.72 419.44 L942.11 414.97 L940.80 410.65 L939.43 406.34 L938.26 402.00 L936.87 397.71 L935.16 393.51 L933.83 389.22 L933.33 384.72 L932.55 380.29 L931.36 375.96 L930.31 371.59 L928.64 367.41 L926.36 363.43 L924.45 359.34 L922.34 355.34 L920.63 351.21 L920.36 346.56 L919.25 342.19 L918.28 337.77 L917.33 333.31 L915.47 329.22 L913.44 325.20 L911.32 321.23 L909.15 317.28 L906.64 313.51 L903.42 310.08 L901.57 306.02 L899.56 302.04 L896.23 298.73 L894.08 294.84 L892.77 290.50 L891.28 286.24 L889.32 282.23 L887.79 277.96 L888.84 272.17 L892.37 264.80 L890.93 260.32 L888.65 256.33 L887.36 251.72 L885.20 247.63 L877.56 247.20 L872.18 245.37 L869.38 241.84 L865.78 238.87 L861.85 236.17 L858.16 233.34 L854.51 230.50 L851.08 227.53 L847.39 224.78 L845.53 220.58 L841.66 218.02 L838.46 214.92 L837.49 209.92 L836.86 204.55 L837.58 197.90 L837.08 192.22 L833.65 189.17 L831.83 184.61 L827.65 182.28 L819.94 183.49 L813.94 183.16 L809.95 180.87 L805.29 179.31 L800.90 177.52 L796.96 175.29 L793.28 172.81 L789.92 169.98 L786.40 167.33 L784.19 163.15 L782.37 158.43 L779.70 154.68 L778.60 148.92 L776.39 144.47 L774.33 139.73 L771.75 135.61 L766.70 134.83 L762.59 132.79 L758.21 131.18 L752.31 131.83 L746.77 132.08 L742.76 130.11 L738.27 128.92 L733.53 128.18 L729.46 126.40 L725.30 124.82 L721.18 123.20 L716.81 122.02 L713.89 118.32 L709.47 117.30 L704.75 116.86 L701.88 112.97 L698.94 109.13 L696.93 103.31 L694.31 98.56 L690.18 96.86 L687.93 91.09 L683.56 89.83 L677.98 91.40 L672.54 92.81 L667.84 92.62 L662.57 93.91 L657.58 94.68 L653.01 94.47 L648.68 93.69 L644.38 92.87 L640.09 92.08 L637.37 86.58 L634.28 81.96 L629.98 80.99 L626.95 75.82 L623.65 71.27 L619.34 70.11 L615.80 66.10 L611.74 63.83 L607.84 60.86 L603.77 58.40 L599.29 57.63 L594.49 58.42 L589.99 57.87 L585.21 58.85 L580.06 62.00 L575.50 62.28 L570.67 64.30 L565.87 66.47 L561.25 67.86 L557.03 66.49 L553.08 62.75 L548.79 61.43 L544.49 60.11 L540.53 54.88 L536.09 54.28 L531.60 54.38 L527.11 54.69 L522.62 55.11 L518.07 57.35 L513.58 59.23 L509.08 63.50 L504.68 66.76 L500.34 68.90 L496.06 71.79 L491.81 73.57 L487.57 74.38 L483.33 74.94 L479.11 75.74 L474.75 73.97 L470.52 74.63 L466.36 76.19 L461.71 71.93 L457.22 70.18 L452.81 69.63 L448.01 65.95 L443.21 62.92 L439.07 65.13 L434.95 67.25 L430.75 68.67 L427.21 73.91 L423.50 77.67 L419.48 79.52 L415.80 82.93 L412.02 85.62 L408.04 87.22 L404.14 89.10 L400.34 91.34 L395.79 90.53 L390.86 88.40 L386.68 89.28 L381.97 88.29 L377.18 87.22 L372.86 87.81 L367.87 86.40 L363.58 87.24 L360.13 90.60 L355.56 90.64 L351.43 91.97 L348.90 97.59 L346.07 102.19 L342.52 104.81 L339.55 108.78 L336.69 112.88 L333.36 115.77 L329.83 118.12 L326.29 120.44 L322.67 122.54 L316.94 120.26 L312.17 120.13 L307.64 120.57 L302.53 119.96 L297.39 119.41 L292.97 120.32 L289.46 122.89 L286.42 126.29 L283.02 128.99 L279.81 132.00 L277.92 137.12 L275.32 141.00 L271.87 143.46 L269.80 148.03 L267.09 151.55 L264.02 154.48 L261.41 158.06 L258.66 161.38 L255.31 163.83 L249.31 162.73 L244.68 163.59 L240.99 165.72 L234.72 164.62 L230.24 165.87 L225.48 166.84 L221.64 168.98 L218.76 172.27 L214.37 173.82 L211.15 176.72 L209.26 181.08 L207.62 185.65 L203.57 187.62 L200.71 190.86 L198.59 194.83 L195.68 197.98 L193.18 201.54 L190.51 204.91 L187.63 208.06 L185.75 212.14 L180.83 213.45 L176.67 215.50 L173.39 218.36 L171.19 222.15 L167.66 224.82 L165.61 228.71 L165.75 234.32 L165.68 239.68 L162.51 242.59 L161.32 247.00 L161.79 252.58 L159.44 256.05 L157.89 260.08 L157.20 264.68 L156.66 269.32 L155.70 273.64 L154.48 277.75 L153.70 282.12 L150.72 285.09 L149.46 289.11 L149.12 293.66 L145.84 296.47 L140.87 298.37 L134.72 299.69 L129.78 301.77 L127.59 305.37 L122.73 307.60 L120.34 311.14 L120.81 316.09 L122.81 321.69 L122.33 326.06 L121.85 330.41 L123.32 335.57 L124.37 340.48 L124.50 344.95 L124.19 349.20 L124.28 353.58 L121.77 356.94 L120.26 360.70 L115.94 363.45 L110.16 365.78 L106.64 368.95 L102.27 371.90 L97.98 374.94 L98.46 379.48 L97.80 383.65 L97.87 388.02 L98.48 392.50 L100.09 397.21 L100.40 401.54 L99.72 405.60 L100.56 410.01 L100.41 414.16 L100.98 418.45 L102.07 422.81 L103.47 427.19 L102.69 431.15 L103.53 435.37 L104.49 439.58 L103.11 443.43 L99.06 446.93 L96.88 450.74 L92.55 454.34 L87.89 457.99 L86.51 462.02 L85.46 466.10 L85.35 470.26 L89.29 474.67 L91.93 478.93 L92.19 483.03 L93.97 487.17 L96.45 491.28 L97.68 495.34 L99.10 499.36 L100.89 503.36 L100.92 507.35 L97.27 511.44 L95.78 515.53 L94.53 519.64 L91.30 523.90 L89.39 528.13 L89.54 532.25 L88.89 536.44 L87.69 540.71 L87.73 544.87 L88.19 548.99 L89.46 553.01 L90.62 557.03 L91.16 561.12 L95.22 564.66 L97.67 568.40 L99.77 572.17 L103.24 575.65 L105.41 579.33 L107.21 583.07 L104.35 587.81 L103.17 592.25 L104.46 596.13 L102.26 600.88 L102.40 605.09 L102.26 609.40 L101.93 613.78 L106.05 616.88 L106.73 620.97 L108.48 624.73 L113.81 627.30 L119.15 629.77 L121.88 633.08 L125.83 635.91 L129.65 638.73 L132.62 641.82 L135.46 644.93 L137.99 648.13 L139.92 651.56 L140.37 655.63 L143.24 658.64 L142.67 663.19 L140.21 668.68 L140.44 672.98 L138.89 678.20 L139.36 682.47 L140.15 686.62 L142.98 689.70 L146.61 692.33 L148.55 695.85 L152.86 698.03 L156.39 700.59 L157.94 704.30 L162.59 706.13 L166.50 708.35 L170.20 710.65 L173.86 712.94 L177.63 715.10 L176.75 720.39 L178.16 724.18 L180.33 727.45 L179.96 732.56 L181.77 736.15 L181.51 741.32 L182.62 745.51 L185.30 748.51 L187.08 752.23 L187.86 756.78 L192.46 758.20 L198.34 758.45 L200.26 762.05 L205.06 763.10 L210.90 763.13 L214.15 765.45 L218.34 766.85 L223.16 767.59 L227.69 768.53 L227.84 773.80 L229.63 777.49 L232.24 780.37 L231.79 786.52 L232.18 791.91 L234.13 795.67 L236.07 799.48 L239.02 802.17 L241.24 805.72 L244.55 808.01 L248.66 809.29 L253.90 809.11 L258.35 809.83 L262.54 810.82 L267.61 810.57 L272.24 810.81 L276.29 811.78 L280.33 812.70 L284.32 813.65 L285.44 818.80 L286.46 824.24 L290.24 825.55 L290.90 831.75 L292.12 837.25 L295.32 839.61 L298.38 842.23 L301.95 843.99 L304.78 847.07 L308.50 848.56 L312.27 849.94 L316.45 850.53 L320.35 851.58 L323.77 853.57 L327.38 855.19 L331.36 856.00 L335.12 857.25 L338.77 858.73 L342.46 860.12 L346.41 860.87 L350.12 862.15 L354.04 862.91 L357.67 864.38 L361.28 865.88 L365.20 866.57 L368.72 868.33 L372.16 870.33 L376.31 870.28 L380.44 870.20 L384.21 871.19 L389.26 867.90 L393.53 866.95 L397.44 867.17 L401.76 865.79 L405.94 864.74 L409.80 864.80 L413.64 864.89 L417.50 864.82 L421.05 866.14 L424.77 866.61 L428.75 865.77 L432.34 866.85 L435.47 870.62 L438.64 874.51 L441.79 879.03 L444.94 884.09 L448.52 886.61 L452.25 888.20 L456.31 887.07 L460.72 882.32 L464.85 879.39 L468.67 879.42 L472.63 877.38 L476.55 875.36 L480.32 875.25 L484.11 874.74 L487.95 871.81 L491.71 870.33 L495.40 871.59 L499.11 874.03 L502.87 877.02 L506.66 878.06 L510.56 882.39 L514.52 885.82 L518.41 886.35 L522.20 884.99 L526.17 886.51 L529.89 884.41 L533.40 880.30 L537.07 878.52 L540.71 876.88 L544.15 873.62 L547.81 872.60 L551.26 870.15 L554.79 868.49 L558.16 865.93 L561.49 863.43 L565.22 863.33 L568.60 861.35 L572.22 860.71 L576.20 861.74 L580.00 861.81 L584.93 866.68 L589.25 868.53 L592.86 867.32 L597.64 870.61 L601.17 868.99 L603.54 863.34 L606.42 859.76 L610.09 858.92 L612.71 854.77 L615.29 850.71 L618.76 849.45 L621.49 846.08 L624.17 842.70 L627.20 840.41 L632.15 843.14 L636.72 844.68 L639.62 841.99 L645.14 845.59 L649.63 846.53 L653.08 844.99 L657.70 846.04 L661.44 845.05 L665.74 845.22 L669.57 844.31 L672.51 841.63 L675.12 838.35 L678.38 836.37 L680.15 831.64 L682.09 827.37 L685.15 825.17 L686.67 820.35 L688.55 816.25 L690.78 812.85 L695.07 812.79 L699.27 812.53 L701.99 809.92 L707.29 811.20 L711.35 810.52 L715.22 809.51 L719.40 808.88 L720.60 804.09 L723.78 802.06 L726.01 798.78 L727.25 794.26 L727.84 789.01 L729.20 784.82 L730.17 780.24 L731.17 775.79 L732.59 771.91 L734.44 768.59 L736.59 765.65 L738.78 762.77 L742.83 761.92 L744.76 758.75 L746.23 755.15 L752.69 756.65 L757.37 756.24 L761.21 754.90 L767.17 755.55 L771.73 754.77 L773.46 751.30 L775.27 747.93 L777.16 744.66 L776.50 739.19 L777.36 735.13 L778.29 731.18 L778.47 726.66 L779.34 722.76 L779.31 718.20 L780.80 714.88 L781.82 711.23 L785.13 709.29 L788.95 707.68 L791.13 704.86 L795.91 703.83 L799.49 701.91 L803.23 700.05 L806.65 697.93 L808.29 694.66 L810.95 692.01 L813.44 689.25 L814.68 685.72 L812.77 680.41 L812.72 676.23 L815.30 673.55 L813.97 668.75 L813.21 664.33 L814.70 661.12 L813.96 656.80 L812.73 652.30 L815.14 649.59 L818.90 647.48 L822.32 645.17 L827.71 643.67 L831.18 641.27 L834.76 638.85 L837.03 635.86 L839.17 632.80 L839.48 629.02 L839.90 625.30 L839.92 621.46 L838.24 617.06 L837.52 613.04 L839.73 610.02 L838.54 605.91 L838.16 602.09 L839.36 598.75 L838.40 594.82 L836.33 590.62 L836.28 587.01 L841.43 584.71 L843.88 581.67 L845.70 578.46 L851.16 576.02 L852.41 572.61 L856.21 569.68 L857.66 566.26 L859.07 562.82 L861.29 559.49 L861.77 555.86 L860.51 551.98 L859.31 548.14 L859.99 544.57 L860.40 540.97 L859.20 537.20 L858.37 533.49 L857.58 529.81 L857.41 526.20 L856.22 522.54 L856.00 518.95 L856.24 515.39 L856.04 511.82 L856.95 508.28 L855.54 504.69 L855.59 501.13 L854.91 497.58 L853.64 494.05 L852.11 490.56 L851.81 487.04 L849.28 483.64 L846.08 480.32 L849.81 476.59 L850.32 473.04 L851.26 469.43 L851.66 465.85 L852.29 462.23 L852.84 458.59 L850.76 455.28 L850.19 451.79 L851.42 448.03 L850.07 444.65 L849.63 441.13 L847.90 437.84 L848.34 434.16 L845.45 431.12 L842.25 428.19 L840.66 424.96 L838.64 421.85 L836.22 418.86 L833.47 415.98 L836.86 411.54 L837.75 407.68 L834.94 404.84 L834.24 401.42 L833.34 398.05 L831.33 395.03 L829.02 392.13 L827.29 389.06 L827.90 385.18 L827.37 381.68 L826.11 378.43 L819.93 377.08 L823.33 372.05 L822.53 368.62 L817.78 366.84 L820.35 361.98 L819.47 358.55 L820.16 354.40 L818.00 351.53 L814.81 349.16 L813.90 345.72 L810.18 343.68 L808.73 340.52 L804.23 338.97 L801.64 336.46 L799.25 333.86 L798.22 330.51 L797.53 326.94 L795.13 324.37 L795.37 320.20 L795.83 315.84 L794.37 312.64 L791.93 310.06 L789.19 307.71 L787.54 304.62 L785.07 302.10 L781.63 300.29 L777.78 298.82 L776.82 295.26 L773.46 293.49 L769.87 291.92 L767.05 289.81 L763.92 287.96 L760.96 286.02 L758.37 283.78 L756.14 281.25 L754.45 278.26 L752.73 275.28 L750.87 272.39 L747.44 270.95 L746.31 267.39 L745.00 263.94 L741.39 262.72 L740.94 258.38 L739.21 255.27 L736.24 253.42 L732.57 252.33 L730.58 249.48 L728.23 247.01 L725.36 245.10 L722.31 243.44 L720.03 240.87 L717.18 238.99 L713.12 238.59 L710.51 236.45 L708.14 234.01 L705.16 232.35 L703.47 228.98 L701.03 226.58 L698.02 224.95 L695.25 223.00 L691.86 221.94 L688.55 220.81 L685.60 219.15 L682.77 217.34 L679.52 216.18 L677.25 213.46 L674.70 211.18 L671.38 210.15 L667.41 210.30 L663.56 210.31 L660.31 209.31 L656.30 209.77 L652.21 210.46 L650.16 207.28 L646.96 206.33 L643.81 205.30 L640.93 203.71 L637.85 202.55 L634.50 202.02 L631.44 200.84 L628.57 199.24 L625.45 198.24 L622.07 197.88 L618.81 197.27 L615.62 196.49 L612.48 195.62 L609.17 195.25 L605.97 194.59 L602.80 193.88 L599.58 193.34 L596.20 193.33 L593.06 192.63 L589.69 192.69 L586.30 192.93 L583.03 192.83 L579.77 192.71 L577.05 190.48 L575.69 182.44 L573.15 178.91 L569.76 178.97 L567.32 174.55 L564.47 171.82 L560.10 177.02 L556.31 179.62 L553.17 178.65 L549.70 179.76 L546.10 182.07 L542.77 182.66 L539.41 183.79 L536.06 184.99 L532.76 186.11 L529.74 184.53 L526.48 185.46 L523.26 186.20 L520.28 183.50 L517.25 180.79 L514.28 175.58 L511.17 171.32 L507.90 170.54 L504.65 167.77 L501.33 166.62 L498.02 170.61 L494.78 174.17 L491.52 174.11 L488.37 177.28 L485.32 181.22 L482.23 183.12 L479.21 185.53 L476.18 187.24 L473.15 188.58 L469.92 187.65 L466.66 186.67 L463.32 185.28 L459.79 182.58 L456.37 181.25 L452.68 178.27 L449.20 177.02 L446.19 178.86 L443.05 179.80 L439.96 180.98 L437.25 183.97 L434.87 188.34 L431.93 189.82 L429.25 192.32 L426.82 195.71 L424.07 197.61 L421.45 199.90 L418.87 202.27 L416.45 205.01 L413.09 204.47 L410.56 206.72 L408.34 209.88 L404.64 208.36 L400.66 206.17 L396.35 203.23 L392.35 201.41 L389.26 202.20 L384.24 197.99 L381.19 199.07 L379.55 203.61 L377.40 206.77 L374.95 209.11 L373.34 213.30 L372.28 218.55 L369.98 220.94 L367.47 222.83 L365.67 226.14 L363.60 228.80 L359.46 227.40 L354.95 225.42 L351.98 226.47 L347.76 225.26 L343.10 223.43 L340.27 224.88 L336.49 224.75 L333.03 225.22 L329.50 225.63 L326.03 226.19 L323.30 227.94 L321.37 230.90 L319.01 233.17 L317.48 236.63 L316.78 241.19 L315.08 244.25 L314.37 248.60 L313.73 252.94 L312.59 256.53 L310.00 258.21 L305.54 257.57 L302.14 258.32 L299.34 259.83 L293.66 258.00 L291.47 260.33 L289.32 262.68 L286.63 264.45 L285.18 267.56 L284.15 271.08 L283.07 274.50 L283.81 279.71 L284.57 284.84 L283.43 287.98 L283.07 291.84 L282.69 295.61 L280.83 297.95 L279.17 300.46 L277.79 303.22 L275.05 304.77 L272.89 306.84 L272.02 310.00 L266.72 309.50 L263.22 310.56 L260.25 312.08 L255.24 312.08 L250.94 312.71 L248.78 314.99 L249.18 319.12 L247.08 321.43 L246.82 325.01 L248.56 329.90 L247.80 333.04 L246.72 335.95 L247.37 339.93 L248.17 343.94 L247.75 347.15 L247.39 350.36 L245.96 352.93 L241.72 353.91 L240.32 356.52 L236.91 358.05 L233.36 359.56 L231.22 361.85 L227.48 363.35 L224.72 365.40 L223.59 368.25 L221.73 370.77 L220.05 373.37 L221.17 377.22 L223.48 381.53 L222.79 384.50 L224.58 388.47 L225.86 392.16 L225.70 395.25 L226.90 398.83 L227.25 402.05 L227.64 405.25 L222.96 406.72 L219.80 408.77 L217.53 411.14 L213.24 412.93 L210.18 415.16 L207.47 417.53 L205.81 420.23 L206.28 423.50 L205.86 426.53 L205.47 429.55 L207.13 433.04 L208.05 436.31 L208.01 439.36 L209.06 442.60 L210.62 445.91 L212.15 449.17 L213.25 452.32 L214.45 455.45 L215.96 458.59 L211.38 460.86 L208.14 463.39 L208.81 466.43 L202.90 468.76 L200.14 471.49 L198.37 474.37 L198.42 477.41 L199.35 480.50 L197.89 483.43 L198.38 486.48 L200.12 489.57 L201.85 492.61 L200.78 495.58 L200.44 498.57 L201.04 501.56 L200.52 504.56 L200.27 507.56 L201.14 510.53 L201.68 513.50 L203.09 516.41 L201.92 519.47 L201.09 522.53 L201.01 525.54 L201.91 528.47 L201.32 531.54 L200.62 534.65 L203.97 537.26 L206.61 539.92 L206.09 542.98 L208.40 545.63 L212.88 547.88 L213.69 550.69 L215.29 553.35 L217.48 555.87 L220.01 558.28 L222.11 560.75 L223.73 563.30 L225.29 565.84 L225.12 568.79 L227.08 571.21 L228.30 573.80 L228.25 576.74 L227.02 580.04 L223.12 584.20 L221.82 587.65 L221.65 590.77 L218.93 594.77 L219.78 597.62 L223.47 599.45 L227.25 601.18 L229.81 603.31 L232.83 605.24 L237.13 606.59 L239.83 608.54 L242.70 610.37 L244.92 612.45 L248.11 614.07 L249.06 616.67 L250.38 619.11 L248.76 622.98 L246.74 627.13 L246.35 630.52 L245.12 634.39 L243.19 638.71 L245.07 641.00 L247.16 643.17 L248.94 645.49 L250.74 647.80 L255.19 648.49 L258.84 649.60 L260.90 651.65 L264.63 652.60 L267.88 653.81 L270.62 655.32 L273.52 656.69 L276.87 657.69 L278.18 660.11 L280.16 662.05 L283.19 663.19 L282.32 667.29 L282.39 670.71 L283.70 673.21 L280.69 679.25 L280.07 683.45 L281.99 685.58 L283.22 688.31 L284.94 690.62 L290.18 689.75 L294.58 689.55 L295.77 692.27 L299.98 692.11 L303.22 692.82 L306.23 693.70 L309.21 694.57 L312.57 695.01 L314.69 696.71 L314.16 701.27 L315.10 704.31 L316.58 706.79 L316.13 711.53 L316.53 715.38 L318.67 717.23 L320.28 719.72 L321.58 722.65 L323.74 724.52 L326.10 726.12 L328.84 727.23 L331.91 727.86 L333.42 730.60 L337.23 730.14 L340.71 730.07 L343.58 730.83 L347.37 730.15 L351.39 729.03 L354.88 728.63 L355.24 733.18 L356.55 736.31 L359.00 737.60 L359.31 742.57 L361.15 745.02 L363.20 747.12 L364.62 750.44 L368.83 748.56 L370.79 750.89 L373.44 751.90 L377.64 749.73 L381.61 747.88 L385.07 746.96 L388.68 745.58 L392.16 744.38 L395.48 743.41 L398.31 743.51 L400.87 744.22 L403.59 744.51 L405.58 746.66 L408.37 746.74 L410.72 747.97 L411.51 753.71 L413.49 756.25 L415.22 759.68 L417.12 762.74 L419.06 765.82 L421.77 766.45 L424.83 765.82 L428.14 764.20 L431.51 762.14 L434.55 761.16 L437.72 759.46 L440.95 757.32 L443.95 755.95 L446.84 754.94 L449.64 754.19 L452.41 753.51 L454.41 756.97 L456.77 758.72 L459.34 759.25 L461.41 763.18 L463.95 764.28 L466.20 767.71 L468.82 768.54 L471.41 769.84 L474.01 771.15 L476.77 770.76 L479.59 769.61 L482.55 765.72 L485.30 764.19 L488.06 761.82 L490.79 758.74 L493.41 757.74 L496.00 756.97 L498.57 755.73 L501.13 754.20 L503.71 757.39 L506.32 758.89 L508.94 759.60 L511.71 763.39 L514.51 766.41 L517.29 768.07 L520.02 768.53 L522.69 768.13 L525.47 768.98 L528.06 767.72 L530.53 765.67 L532.93 763.29 L535.48 762.38 L537.87 760.41 L540.30 758.88 L542.66 757.12 L545.01 755.44 L547.28 753.43 L549.37 750.73 L552.17 751.65 L555.07 752.87 L557.32 751.09 L560.88 754.93 L564.38 758.12 L567.09 757.97 L570.27 759.53 L573.03 759.41 L576.09 760.26 L578.69 759.49 L581.16 758.32 L583.35 756.29 L585.51 754.25 L587.83 752.77 L590.17 751.36 L592.29 749.40 L594.37 747.40 L596.57 745.74 L599.07 744.89 L601.05 742.77 L603.79 742.49 L607.29 743.90 L610.13 743.71 L612.87 743.26 L614.97 741.43 L617.23 739.97 L618.57 736.69 L619.72 733.13 L621.00 729.92 L622.52 727.28 L623.23 723.21 L625.34 721.77 L628.43 722.01 L631.51 722.20 L634.79 722.62 L637.86 722.63 L640.37 721.70 L642.31 719.87 L644.33 718.18 L646.19 716.26 L648.62 715.19 L651.26 714.39 L653.37 712.83 L656.06 712.07 L658.94 711.51 L659.69 708.15 L661.55 706.26 L663.49 704.49 L664.13 701.14 L663.85 696.74 L664.88 694.00 L667.83 693.52 L669.71 691.78 L671.54 689.98 L673.96 688.83 L675.52 686.74 L676.85 684.43 L678.14 682.10 L679.02 679.36 L681.63 678.38 L684.18 677.30 L686.49 675.97 L687.01 672.95 L690.45 672.63 L692.42 670.95 L692.54 667.64 L694.67 666.10 L695.47 663.43 L695.34 660.04 L695.42 656.86 L695.67 653.86 L695.93 650.93 L698.70 649.92 L700.50 648.15 L700.76 645.26 L704.25 644.70 L705.19 642.31 L707.21 640.66 L708.47 638.49 L710.07 636.54 L713.49 635.75 L714.48 633.39 L716.33 631.55 L718.41 629.85 L718.55 626.99 L719.98 624.90 L720.68 622.39 L722.12 620.30 L722.59 617.69 L723.66 615.41 L724.36 612.95 L722.88 609.42 L720.31 605.44 L720.45 602.81 L719.33 599.63 L719.08 596.89 L720.86 595.04 L722.63 593.18 L723.38 590.87 L725.84 589.25 L726.01 586.72 L730.32 585.74 L730.78 583.29 L730.65 580.65 L733.41 579.00 L733.81 576.54 L732.92 573.68 L732.47 570.99 L735.15 569.24 L736.45 567.06 L736.27 564.47 L736.90 562.10 L737.56 559.74 L738.03 557.34 L737.67 554.74 L737.31 552.16 L737.95 549.81 L737.93 547.33 L739.71 545.20 L738.63 542.53 L741.03 540.47 L741.54 538.08 L740.39 535.44 L742.54 533.28 L742.98 530.87 L742.22 528.32 L741.36 525.77 L742.78 523.47 L741.38 520.90 L740.10 518.37 L739.53 515.92 L738.29 513.45 L736.87 510.99 L735.09 508.55 L735.05 506.20 L733.97 503.83 L731.96 501.48 L732.14 499.16 L730.95 496.85 L729.02 494.59 L727.80 492.34 L727.61 490.06 L726.61 487.84 L725.48 485.63 L725.11 483.40 L724.88 481.15 L723.63 479.00 L723.37 476.77 L722.99 474.55 L722.00 472.41 L721.69 470.20 L721.39 467.98 L720.82 465.81 L720.43 463.60 L720.55 461.32 L719.52 459.23 L718.77 457.10 L718.22 454.94 L717.87 452.74 L716.72 450.71 L715.29 448.77 L714.45 446.70 L713.45 444.67 L712.32 442.69 L711.15 440.74 L709.93 438.81 L709.47 436.66 L709.58 434.34 L708.11 432.50 L707.90 430.27 L706.91 428.29 L705.88 426.33 L705.01 424.32 L703.78 422.45 L702.36 420.66 L701.51 418.67 L700.32 416.80 L698.51 415.22 L697.18 413.45 L695.74 411.73 L694.06 410.15 L692.59 408.47 L690.95 406.91 L689.76 405.12 L688.55 403.36 L686.89 401.84 L685.64 400.11 L684.25 398.48 L682.69 396.94 L681.46 395.23 L680.04 393.63 L678.80 391.94 L677.28 390.42 L676.04 388.74 L674.81 387.06 L673.19 385.63 L674.47 382.26 L678.83 376.70 L676.84 375.45 L680.39 370.23 L683.91 364.88 L682.25 363.28 L679.20 362.74 L679.87 359.36 L678.68 357.38 L675.78 356.80 L674.70 354.74 L674.45 351.98 L670.06 352.75 L665.66 353.64 L663.47 352.64 L660.23 352.63 L655.81 353.79 L652.95 353.57 L654.49 349.11 L654.09 346.45 L653.27 344.18 L652.20 342.15 L653.00 338.11 L653.72 334.05 L650.12 334.65 L646.08 335.83 L646.30 332.23 L645.09 330.23 L641.43 331.11 L640.16 329.19 L639.82 326.09 L636.16 327.13 L632.06 328.85 L629.52 328.62 L627.05 328.35 L622.13 331.50 L617.87 333.91 L617.85 330.37 L615.22 330.55 L616.81 324.47 L614.95 323.47 L614.07 320.92 L616.35 313.24 L615.29 310.76 L611.51 312.77 L610.90 309.49 L609.76 307.04 L606.39 308.53 L604.74 306.98 L603.48 304.66 L600.68 305.26 L596.65 308.38 L594.13 308.65 L591.88 308.41 L587.50 312.77 L584.20 315.02 L583.72 311.10 L582.90 307.78 L582.33 303.72 L580.70 302.09 L578.47 301.90 L579.03 294.52 L576.55 294.87 L572.64 299.24 L571.09 297.19 L569.96 293.85 L566.82 296.42 L564.63 296.25 L563.26 293.44 L560.49 295.17 L557.18 299.02 L554.92 299.35 L552.55 300.18 L549.40 304.21 L546.54 307.44 L545.17 304.59 L542.91 305.53 L541.91 300.60 L540.61 296.72 L538.85 294.83 L538.10 287.23 L536.45 283.97 L534.39 283.01 L532.09 283.54 L529.81 284.00 L527.68 283.48 L525.36 284.56 L523.16 284.73 L521.02 284.35 L518.79 284.99 L516.56 285.77 L514.41 285.79 L512.28 285.48 L510.13 285.46 L508.00 284.80 L505.86 284.28 L503.73 282.60 L501.56 282.33 L499.39 284.60 L497.22 283.17 L495.07 283.93 L492.94 285.05 L490.81 285.52 L488.70 286.28 L486.59 286.92 L484.60 288.88 L482.51 289.38 L480.36 289.03 L478.24 289.15 L476.08 288.88 L473.79 287.70 L471.69 288.10 L469.98 291.26 L468.60 296.13 L466.40 295.49 L464.51 296.73 L462.68 298.15 L461.02 300.36 L458.02 295.87 L455.40 293.63 L454.30 298.34 L452.94 301.54 L450.14 298.74 L448.59 301.03 L447.09 303.36 L444.84 302.88 L442.38 301.74 L441.78 306.89 L440.81 310.57 L439.48 312.91 L438.34 315.70 L438.27 321.43 L435.78 320.09 L433.90 320.50 L431.57 319.75 L427.38 314.34 L426.87 318.40 L423.56 315.54 L419.32 310.68 L418.66 314.30 L417.58 316.84 L414.78 315.57 L412.81 316.16 L411.21 317.52 L409.34 318.30 L406.69 317.59 L407.08 322.74 L406.66 326.20 L405.35 327.90 L404.79 330.91 L405.30 335.69 L403.70 336.70 L400.23 334.63 L398.46 335.43 L394.71 333.11 L392.87 333.90 L390.08 333.26 L386.05 330.86 L386.21 334.68 L386.61 338.74 L383.86 338.29 L381.89 338.97 L381.60 341.91 L380.11 343.21 L377.43 342.98 L378.45 347.46 L379.12 351.38 L378.38 353.48 L377.58 355.49 L379.34 360.42 L379.93 363.88 L377.07 363.41 L376.61 365.63 L370.66 361.95 L370.11 364.11 L367.69 364.33 L359.74 359.02 L359.04 361.12 L361.07 365.83 L358.02 365.61 L353.78 364.34 L354.91 368.06 L354.96 370.73 L350.61 369.51 L351.96 373.28 L355.38 378.69 L355.33 381.09 L355.14 383.34 L357.63 387.68 L359.69 391.56 L356.40 391.30 L355.62 392.96 L350.11 391.18 L346.62 390.97 L343.88 391.36 L337.63 389.40 L334.55 389.71 L334.03 391.75 L334.63 394.48 L334.48 396.69 L333.60 398.44 L333.82 400.84 L332.96 402.58 L331.34 403.89 L330.44 405.61 L330.36 407.77 L328.75 409.11 L327.87 410.83 L327.77 412.95 L325.98 414.22 L323.53 415.20 L323.14 417.18 L323.15 419.33 L323.58 421.65 L321.79 422.97 L321.66 425.03 L321.91 427.22 L321.21 429.01 L319.91 430.57 L320.29 432.77 L321.13 435.12 L320.38 436.87 L319.15 438.47 L318.07 440.12 L315.78 441.40 L313.75 442.80 L313.96 444.89 L316.85 447.74 L320.14 450.62 L324.04 453.57 L324.30 455.52 L325.25 457.61 L328.43 460.20 L320.42 460.23 L316.34 461.25 L318.24 463.54 L318.02 465.39 L315.27 466.77 L316.83 468.94 L318.26 471.05 L316.83 472.70 L317.33 474.64 L321.94 477.09 L322.60 478.98 L323.55 480.88 L326.97 482.99 L330.10 485.02 L325.89 486.40 L322.94 487.95 L322.34 489.69 L318.84 491.30 L319.56 493.15 L316.41 494.86 L314.46 496.67 L318.86 498.56 L319.99 500.37 L317.50 502.20 L319.12 503.99 L320.49 505.75 L318.88 507.62 L317.21 509.52 L322.86 511.00 L325.83 512.57 L326.35 514.28 L329.71 515.72 L335.16 516.88 L334.53 518.62 L335.37 520.19 L333.27 522.14 L330.17 524.29 L332.69 525.63 L326.45 528.37 L321.68 530.98 L323.83 532.43 L326.21 533.79 L323.53 536.15 L321.87 538.35 L325.50 539.40 L325.91 541.14 L323.33 543.62 L329.57 543.89 L333.27 544.72 L335.17 545.98 L337.86 546.98 L342.09 547.47 L342.97 548.93 L343.47 550.49 L342.31 552.61 L337.30 556.10 L341.40 556.47 L338.04 559.49 L332.12 563.58 L336.05 563.97 L340.72 563.99 L338.90 566.61 L338.31 568.75 L341.69 569.19 L341.98 570.95 L340.77 573.42 L345.79 572.98 L349.90 572.88 L352.15 573.63 L354.63 574.22 L358.79 573.88 L361.39 574.30 L357.70 578.12 L356.26 580.78 L355.24 583.28 L352.34 586.92 L351.06 589.69 L349.66 592.59 L350.06 594.43 L352.49 594.98 L355.62 595.02 L356.20 596.71 L357.68 597.79 L360.11 598.20 L361.12 599.58 L362.39 600.76 L363.84 601.81 L365.81 602.44 L365.76 604.62 L366.77 605.99 L368.07 607.13 L367.63 609.70 L368.64 611.10 L369.06 613.01 L370.55 614.00 L372.26 614.78 L372.04 617.31 L373.09 618.72 L374.29 619.97 L375.52 621.20 L376.48 622.70 L378.31 623.31 L380.77 623.27 L382.17 624.28 L383.43 625.44 L385.11 626.14 L386.34 627.32 L387.10 629.04 L390.57 627.64 L395.29 624.63 L398.02 623.87 L399.24 624.91 L399.64 627.00 L400.95 627.96 L402.11 629.10 L399.24 635.68 L401.13 635.96 L405.65 632.51 L406.19 634.57 L405.93 637.87 L409.39 635.68 L411.04 636.16 L411.55 638.37 L414.19 637.25 L417.79 634.46 L420.02 633.81 L422.04 633.43 L425.36 630.74 L428.43 628.33 L427.95 632.28 L429.85 631.91 L429.49 635.84 L429.76 638.71 L432.09 637.50 L430.47 644.39 L431.13 646.77 L433.66 645.13 L435.27 645.43 L435.45 649.02 L436.97 649.60 L439.10 648.67 L440.18 650.31 L441.71 650.84 L445.01 646.66 L447.21 645.17 L449.02 644.68 L451.76 641.40 L453.83 639.90 L453.94 644.41 L455.32 645.08 L456.47 646.55 L456.74 651.14 L458.90 649.23 L459.49 653.04 L460.29 656.34 L462.64 653.48 L464.60 652.06 L465.49 655.24 L467.36 654.09 L469.19 652.94 L470.47 654.57 L471.90 655.50 L474.32 650.75 L476.28 648.15 L477.90 647.46 L479.92 643.80 L481.83 640.33 L483.09 641.69 L484.06 645.98 L485.40 647.32 L486.62 650.38 L488.19 649.65 L489.41 653.81 L490.76 657.14 L492.44 654.90 L494.05 653.33 L495.55 654.72 L497.06 656.65 L498.65 654.51 L500.19 653.39 L501.72 653.37 L503.16 648.79 L504.55 645.50 L505.90 643.04 L507.27 641.70 L508.42 637.31 L509.83 637.69 L511.16 637.12 L512.55 637.12 L514.56 643.35 L516.21 645.14 L518.13 648.84 L520.29 653.73 L522.12 655.54 L523.46 653.95 L524.54 650.85 L526.29 652.05 L527.79 651.67 L529.01 649.83 L530.67 650.33 L532.30 650.65 L533.85 650.49 L535.14 649.23 L536.56 648.60 L537.87 647.54 L538.94 645.64 L540.39 645.23 L541.82 644.77 L543.44 644.90 L544.54 643.35 L545.89 642.65 L547.93 644.03 L548.95 642.33 L550.45 642.05 L552.05 642.06 L553.46 641.50 L554.36 639.65 L555.04 637.31 L556.41 636.75 L557.55 635.64 L558.79 634.82 L560.30 634.59 L562.22 635.23 L562.47 632.27 L562.10 628.14 L562.33 625.42 L561.64 620.98 L564.83 624.14 L566.22 623.79 L567.68 623.52 L572.01 628.36 L574.55 629.84 L575.92 629.21 L577.02 628.13 L579.43 629.19 L581.03 628.89 L580.85 625.80 L582.17 625.08 L582.75 623.26 L582.44 620.18 L582.72 618.05 L584.14 617.55 L584.30 615.33 L584.27 612.89 L585.43 612.08 L585.42 609.78 L585.24 607.32 L585.56 605.54 L586.00 603.94 L586.37 602.29 L586.71 600.63 L588.09 600.19 L587.59 597.64 L587.58 595.68 L588.54 594.81 L588.16 592.53 L588.08 590.61 L588.84 589.58 L589.46 588.42 L589.95 587.15 L590.45 585.90 L590.88 584.59 L591.11 583.12 L591.59 581.90 L592.07 580.68 L592.44 579.39 L592.88 578.17 L593.30 576.94 L593.56 575.59 L593.91 574.34 L594.35 573.16 L594.76 571.97 L595.16 570.78 L595.51 569.57 L595.78 568.31 L595.97 567.01 L596.40 565.89 L596.82 564.77 L597.18 563.61 L597.53 562.45 L597.81 561.26 L597.93 559.98 L598.29 558.86 L598.59 557.70 L598.64 556.42 L598.93 555.28 L599.22 554.15 L599.14 552.82 L599.18 551.58 L599.45 550.46 L599.60 549.29 L599.68 548.10 L599.83 546.95 L599.95 545.78 L600.11 544.66 L600.30 543.54 L600.56 542.46 L600.73 541.35 L600.81 540.21 L600.98 539.11 L601.05 537.98 L600.53 536.65 L600.16 535.38 L600.11 534.24 L599.54 532.94 L599.09 531.69 L599.01 530.58 L599.09 529.52 L599.19 528.47 L599.29 527.43 L599.37 526.39 L599.45 525.35 L599.52 524.31 L599.58 523.27 L599.62 522.23 L599.66 521.20 L599.68 520.16 L599.70 519.13 L599.70 518.10 L599.70 517.07 L599.68 516.04 L599.65 515.02 L599.61 513.99 L599.57 512.97 L599.51 511.95 L599.44 510.94 L599.37 509.93 L599.28 508.91 L599.18 507.91 L599.07 506.90 L598.96 505.90 L598.83 504.90 L598.69 503.91 L598.54 502.91 L598.38 501.92 L598.22 500.94 Z"/>
  <svg class="pausebutton" id="pausebutton">
    <circle cx="500" cy="500" id="pausestart" class="pausestart" r="52.65"/>
    <rect height="50.02" width="10.00" y="473.68" rx="2.00" ry="2.00" x="479.99" class="pausesymbol"/>
    <rect height="50.02" width="10.00" y="473.68" rx="2.00" ry="2.00" x="510.00" class="pausesymbol"/>
    <polygon points="530.01,500 479.99,530.01 479.99,469.99" class="playsymbol"/>
  </svg>
  <polygon id="playback-head" class="playback-head" points="941.65,500 921.65,540 961.65,540"/>
</svg>