<?xml-stylesheet href="../../style/waveformjs.css" type="text/css"?>
<svg xmlns="http://www.w3.org/2000/svg" xmlns:xlink="http://www.w3.org/1999/xlink" width="100%" height="100%" viewBox="0 0 1000 1000">
  <path class="svg-wave" id="sp" d="M598.05 500.00 L598.22 500.98 L598.39 501.97 L598.55 502.96 L598.70 503.95 L598.83 504.95 L598.96 505.94 L599.08 506.95 L599.19 507.95 L599.28 508.96 L599.37 509.97 L599.44 510.98 L599.51 512.00 L599.56 513.02 L599.61 514.04 L599.64 515.06 L599.66 516.08 L599.68 517.11 L599.68 518.14 L599.67 519.17 L599.65 520.20 L599.62 521.23 L599.58 522.27 L599.52 523.30 L599.46 524.34 L599.39 525.38 L599.30 526.42 L599.21 527.46 L599.10 528.50 L598.98 529.54 L598.85 530.58 L598.71 531.62 L598.56 532.66 L598.40 533.71 L598.23 534.75 L598.05 535.79 L597.85 536.83 L597.65 537.87 L597.43 538.92 L597.20 539.96 L596.96 541.00 L596.71 542.04 L596.45 543.07 L596.16 544.10 L595.86 545.13 L595.58 546.17 L595.26 547.20 L594.92 548.22 L594.59 549.24 L594.23 550.26 L593.85 551.27 L593.45 552.27 L593.04 553.27 L592.63 554.28 L592.22 555.28 L591.80 556.28 L591.38 557.29 L590.95 558.30 L590.52 559.31 L590.09 560.32 L589.64 561.33 L589.18 562.33 L588.71 563.33 L588.22 564.32 L587.70 565.29 L587.16 566.26 L586.58 567.20 L586.01 568.14 L585.39 569.05 L584.76 569.96 L584.14 570.87 L583.51 571.78 L582.83 572.65 L582.20 573.56 L581.59 574.50 L580.90 575.37 L580.26 576.29 L579.64 577.22 L578.98 578.13 L578.26 578.98 L577.55 579.85 L576.82 580.70 L576.02 581.47 L575.14 582.16 L574.27 582.86 L573.43 583.59 L572.43 584.14 L571.57 584.83 L570.76 585.60 L569.80 586.17 L568.92 586.85 L568.15 587.67 L567.25 588.31 L566.41 589.05 L565.68 589.93 L564.83 590.66 L564.03 591.46 L563.18 592.19 L562.31 592.90 L561.23 593.29 L560.10 593.61 L559.01 593.96 L557.84 594.18 L556.60 594.26 L555.45 594.46 L554.33 594.71 L553.20 594.93 L552.16 595.30 L551.13 595.68 L550.09 596.03 L549.19 596.64 L548.38 597.46 L547.47 598.06 L546.62 598.83 L545.58 599.18 L544.54 599.53 L543.27 599.33 L542.25 599.70 L540.97 599.43 L539.53 598.75 L538.43 598.85 L537.20 598.58 L536.04 598.48 L535.06 598.87 L534.39 600.14 L533.47 600.74 L532.41 600.90 L531.80 602.51 L530.90 603.25 L529.90 603.67 L528.72 603.45 L527.22 602.00 L524.20 594.44 L522.02 589.69 L521.80 592.77 L520.42 590.99 L518.39 585.94 L518.16 589.23 L518.19 594.15 L517.81 597.43 L516.19 593.86 L515.99 598.61 L515.99 605.22 L515.04 606.12 L514.06 606.86 L512.97 606.82 L511.93 607.20 L510.85 607.25 L509.61 605.55 L508.03 599.20 L506.70 594.46 L505.85 596.06 L504.92 596.75 L503.71 590.78 L502.84 592.10 L502.02 597.02 L501.07 599.11 L500.08 596.14 L499.10 598.21 L497.98 604.97 L496.91 605.88 L495.84 606.11 L494.79 605.71 L493.73 605.74 L492.73 604.92 L491.73 604.21 L491.03 600.27 L490.58 594.65 L489.54 595.40 L488.24 598.21 L488.02 592.22 L487.25 591.03 L485.46 596.76 L484.25 598.09 L483.48 596.68 L482.30 597.72 L480.13 603.77 L478.84 604.81 L477.83 604.43 L476.67 604.70 L475.29 605.92 L474.43 604.83 L473.74 603.19 L473.29 600.74 L473.67 595.44 L472.85 594.69 L470.46 599.28 L469.97 597.36 L468.39 598.96 L464.53 607.33 L463.59 606.57 L462.75 605.56 L461.84 604.80 L460.75 604.53 L459.71 604.12 L459.01 602.86 L457.68 603.18 L456.19 603.85 L455.86 601.77 L454.67 601.73 L453.14 602.40 L452.56 600.98 L451.73 600.13 L450.75 599.60 L449.66 599.29 L449.05 598.06 L448.30 597.12 L446.94 597.31 L445.74 597.19 L444.92 596.37 L443.91 595.90 L444.22 593.23 L445.85 588.48 L444.98 587.92 L442.52 589.84 L443.49 586.40 L441.82 587.04 L438.31 590.33 L440.11 585.83 L440.48 583.52 L439.06 583.71 L438.59 582.62 L437.19 582.75 L433.29 586.09 L430.78 587.51 L429.32 587.54 L428.14 587.21 L427.27 586.49 L427.81 584.13 L429.72 580.26 L429.05 579.41 L426.11 581.05 L426.82 578.68 L424.43 579.64 L419.56 583.09 L421.94 579.03 L423.11 576.30 L421.18 576.68 L420.65 575.66 L420.78 574.04 L416.92 576.11 L413.28 577.86 L412.59 576.91 L412.08 575.82 L411.24 575.00 L411.81 573.02 L414.05 569.73 L414.22 568.18 L411.61 568.83 L411.45 567.54 L410.55 566.82 L407.03 568.01 L407.40 566.33 L409.22 563.66 L407.75 563.33 L404.18 564.38 L404.83 562.57 L400.55 563.97 L395.23 565.92 L395.00 564.60 L393.90 563.83 L391.89 563.58 L392.00 562.07 L397.13 557.76 L398.47 555.68 L393.69 556.92 L393.71 555.55 L394.19 553.96 L386.22 556.60 L386.47 555.06 L392.94 550.61 L391.24 550.09 L389.07 549.75 L392.78 546.81 L388.71 547.26 L380.09 549.51 L380.04 548.14 L379.26 547.05 L378.59 545.92 L380.02 544.01 L384.70 540.99 L389.12 538.18 L386.80 537.71 L384.66 537.15 L387.28 535.07 L381.22 535.65 L378.40 535.18 L385.08 532.00 L385.49 530.66 L382.70 530.15 L386.32 528.01 L384.51 527.23 L375.53 528.04 L374.99 526.85 L374.56 525.64 L373.93 524.45 L374.19 523.10 L377.45 521.24 L382.31 519.19 L380.56 518.25 L376.39 517.62 L379.93 515.89 L376.33 515.11 L370.90 514.47 L377.10 512.53 L378.41 511.17 L375.44 510.19 L377.50 508.78 L375.64 507.67 L368.56 506.79 L366.58 505.55 L366.78 504.21 L366.87 502.88 L367.60 501.53 L371.42 500.20 L377.30 498.97 L377.04 497.74 L373.48 496.40 L376.94 495.27 L375.14 493.95 L368.51 492.31 L374.12 491.38 L376.97 490.33 L374.84 488.91 L374.11 487.57 L375.49 486.45 L369.45 484.47 L364.88 482.55 L366.59 481.42 L367.31 480.16 L367.61 478.85 L370.22 477.94 L375.18 477.49 L376.20 476.40 L374.48 474.76 L376.89 473.96 L375.84 472.44 L371.53 470.13 L374.96 469.61 L377.48 468.92 L375.65 467.13 L373.21 465.13 L374.79 464.21 L370.86 461.69 L366.35 458.89 L367.75 457.87 L368.74 456.73 L369.90 455.67 L371.86 454.90 L376.54 455.16 L378.61 454.53 L377.93 452.88 L380.34 452.43 L381.67 451.58 L378.13 448.70 L379.11 447.68 L383.09 448.02 L382.42 446.30 L381.81 444.59 L384.08 444.23 L383.60 442.56 L380.65 439.61 L380.43 437.99 L380.63 436.57 L380.45 434.93 L380.46 433.38 L384.29 433.99 L386.92 433.99 L386.09 431.96 L387.38 431.20 L389.32 430.85 L386.05 427.22 L387.00 426.22 L390.52 426.95 L389.78 424.85 L387.95 421.95 L389.94 421.69 L388.65 419.09 L385.29 414.88 L386.38 413.91 L388.31 413.60 L389.71 412.91 L391.22 412.32 L395.11 413.71 L398.24 414.56 L397.50 412.18 L396.06 409.13 L398.58 409.53 L396.00 405.34 L395.02 402.52 L400.87 406.08 L401.83 405.11 L401.43 402.80 L404.60 404.02 L403.12 400.57 L399.25 394.51 L399.96 393.13 L400.59 391.65 L402.04 391.06 L403.40 390.39 L406.35 391.57 L410.21 393.91 L411.32 393.07 L411.48 391.07 L414.17 392.19 L415.02 391.04 L413.63 386.95 L416.27 388.11 L417.96 388.04 L417.58 385.13 L418.72 384.30 L419.55 383.01 L417.94 378.07 L418.91 376.87 L419.57 375.18 L420.70 374.18 L421.32 372.36 L423.91 373.75 L428.34 378.35 L428.09 375.10 L427.18 370.54 L429.59 371.84 L429.67 368.89 L426.44 359.53 L431.28 365.51 L435.05 369.70 L435.22 366.71 L436.83 366.65 L438.56 366.88 L436.58 358.90 L435.87 353.42 L437.28 352.65 L438.74 351.97 L440.45 351.94 L443.32 354.89 L447.55 361.67 L449.64 363.07 L449.72 358.93 L452.18 361.47 L453.37 360.40 L452.11 351.71 L454.78 355.03 L457.79 359.79 L458.78 357.94 L459.66 355.60 L462.02 358.60 L462.04 352.79 L461.99 346.28 L463.54 345.96 L465.09 345.61 L466.63 345.24 L468.50 346.47 L471.14 351.86 L473.24 354.89 L474.04 350.88 L475.65 351.36 L477.33 352.39 L477.93 346.07 L479.56 346.50 L481.75 351.67 L483.11 350.33 L484.40 348.21 L486.22 351.28 L487.43 347.78 L488.46 340.81 L490.09 341.39 L491.68 341.24 L493.27 341.22 L494.91 342.76 L496.57 346.79 L498.14 350.04 L499.64 348.77 L501.16 348.11 L502.64 350.04 L504.25 346.17 L505.86 344.24 L507.18 349.26 L508.74 348.47 L510.45 345.68 L511.93 346.55 L513.59 345.27 L515.92 337.37 L517.59 337.13 L519.17 337.75 L520.62 339.26 L522.18 339.83 L523.24 343.69 L523.98 349.13 L525.63 348.54 L527.73 345.49 L528.59 349.42 L530.62 347.08 L533.01 343.28 L533.51 348.43 L535.03 348.76 L537.20 346.39 L538.14 349.14 L540.07 347.91 L543.21 342.40 L545.02 342.01 L546.85 341.63 L548.43 342.09 L549.94 342.80 L550.56 346.20 L550.83 350.44 L552.67 349.97 L554.56 349.40 L555.24 352.18 L557.87 349.73 L560.87 346.53 L560.67 351.41 L561.21 354.25 L563.95 351.89 L565.11 353.26 L566.44 354.21 L570.41 349.51 L573.13 347.68 L574.76 348.19 L576.28 348.94 L577.53 350.21 L577.72 353.44 L576.40 359.35 L577.71 360.29 L579.79 359.86 L579.48 363.60 L582.21 362.10 L586.13 358.77 L585.79 362.43 L586.11 364.95 L588.96 363.50 L591.36 362.84 L592.09 364.71 L596.63 361.04 L600.37 358.70 L600.92 360.89 L601.45 363.06 L602.32 364.73 L602.42 367.38 L600.73 372.24 L601.30 374.12 L604.05 373.32 L604.95 374.80 L606.48 375.52 L610.45 373.46 L611.04 375.32 L609.27 379.75 L611.56 379.68 L614.55 378.90 L614.08 381.79 L618.14 380.01 L623.18 377.36 L623.93 379.06 L625.37 380.08 L626.20 381.68 L625.82 384.38 L624.47 387.89 L623.62 390.88 L625.78 391.19 L627.10 392.25 L627.16 394.37 L631.67 392.83 L633.16 393.81 L631.44 397.32 L634.22 397.29 L640.37 394.79 L643.34 394.79 L647.88 393.72 L659.59 387.70 L663.28 387.53 L664.69 388.97 L665.40 390.88 L666.74 392.37 L668.12 393.85 L669.40 395.40 L670.58 397.01 L671.94 398.52 L673.15 400.13 L674.32 401.76 L675.41 403.45 L676.50 405.13 L677.39 406.93 L678.20 408.76 L679.66 410.27 L680.35 412.17 L680.93 414.11 L681.99 415.83 L682.52 417.79 L682.39 420.04 L684.40 421.34 L684.97 423.28 L684.91 425.46 L686.95 426.80 L686.49 429.12 L686.06 431.41 L686.94 433.20 L686.86 435.33 L686.78 437.44 L688.06 439.10 L687.62 441.31 L686.92 443.57 L685.97 445.88 L684.54 448.29 L682.62 450.79 L681.91 452.93 L681.91 454.87 L682.68 456.61 L681.42 458.82 L682.18 460.56 L682.91 462.31 L682.89 464.22 L682.28 466.23 L683.14 467.96 L684.82 469.57 L685.58 471.35 L685.39 473.27 L685.86 475.10 L686.17 476.95 L685.39 478.93 L685.91 480.75 L687.41 482.49 L691.37 484.04 L693.02 485.85 L696.07 487.59 L701.51 489.27 L701.95 491.27 L703.10 493.26 L702.81 495.30 L701.69 497.34 L700.74 499.36 L700.87 501.37 L698.92 503.35 L697.87 505.31 L699.45 507.35 L701.79 509.45 L701.70 511.47 L703.74 513.63 L706.52 515.90 L705.12 517.85 L704.35 519.85 L704.08 521.88 L699.65 523.43 L690.13 524.24 L686.61 525.69 L689.84 528.07 L687.65 529.67 L687.17 531.52 L694.46 534.75 L691.06 536.11 L683.73 536.64 L683.55 538.51 L684.96 540.74 L679.47 541.42 L682.30 544.00 L689.34 547.70 L688.61 549.53 L687.77 551.32 L687.55 553.29 L687.60 555.33 L681.41 555.48 L678.51 556.55 L680.50 559.18 L682.67 561.92 L680.87 563.33 L685.52 567.05 L687.30 569.82 L679.16 568.83 L678.97 570.82 L677.97 572.49 L672.91 572.46 L674.55 575.21 L679.39 579.42 L676.68 580.35 L676.59 582.45 L675.27 583.98 L673.07 585.06 L671.08 586.22 L667.99 586.78 L666.47 588.11 L667.70 590.92 L665.87 592.09 L667.96 595.46 L669.81 598.77 L664.23 597.73 L663.60 599.59 L663.64 601.87 L661.13 602.55 L661.99 605.39 L664.39 609.31 L664.95 612.08 L665.86 615.14 L663.43 615.89 L662.72 617.85 L658.97 617.58 L653.39 615.84 L653.63 618.45 L656.05 622.83 L654.16 623.85 L655.78 627.74 L660.14 634.02 L653.28 630.90 L649.85 630.58 L651.28 634.52 L648.65 634.86 L645.80 634.97 L649.06 640.77 L649.88 644.41 L646.36 643.87 L643.77 644.18 L641.87 645.15 L639.63 645.75 L634.30 643.01 L632.96 644.46 L635.22 649.90 L633.34 650.82 L633.42 653.98 L636.22 660.43 L631.05 657.50 L626.88 655.63 L625.77 657.46 L624.03 658.50 L620.64 657.38 L623.09 663.96 L623.33 667.75 L621.23 668.39 L619.16 669.06 L617.29 669.99 L615.46 670.97 L610.25 666.82 L607.73 666.61 L608.53 671.59 L607.83 674.31 L606.48 676.04 L608.41 683.35 L605.06 681.81 L600.39 677.81 L598.81 679.17 L597.14 680.39 L593.75 678.35 L593.38 682.04 L593.80 687.44 L591.57 687.65 L589.05 687.22 L587.00 687.72 L584.83 687.95 L581.56 685.62 L578.67 684.02 L577.49 686.41 L576.23 688.68 L574.04 688.67 L574.49 695.52 L572.74 696.84 L569.15 693.03 L567.67 695.02 L565.76 695.82 L563.19 694.59 L562.10 697.95 L561.57 703.37 L559.70 704.53 L557.63 705.06 L555.53 705.46 L553.09 704.50 L549.89 700.39 L547.00 697.21 L545.89 701.45 L544.92 706.70 L542.56 705.77 L542.04 714.02 L540.29 716.53 L536.56 708.00 L534.53 708.70 L532.98 712.49 L530.38 709.55 L528.58 712.01 L527.65 721.89 L525.37 721.61 L523.05 720.86 L520.64 718.99 L518.33 717.78 L515.90 714.56 L513.39 709.04 L511.35 710.05 L509.44 714.59 L507.26 713.67 L505.21 717.14 L503.14 724.38 L500.86 716.45 L498.72 713.03 L496.53 716.78 L494.43 713.85 L492.30 713.75 L489.80 721.58 L487.50 722.87 L485.23 723.41 L483.14 721.32 L481.01 720.23 L479.00 718.02 L477.50 711.39 L475.26 712.30 L472.65 715.89 L470.71 714.01 L468.10 716.88 L464.87 723.35 L463.64 717.02 L461.92 714.11 L459.76 713.80 L458.06 711.21 L456.29 709.15 L453.15 713.48 L450.51 715.21 L448.66 713.46 L446.52 712.97 L444.61 711.60 L442.64 710.50 L441.49 706.57 L439.59 705.42 L437.15 706.09 L434.91 706.02 L432.39 706.79 L428.83 710.50 L427.49 707.62 L426.29 704.44 L423.96 704.47 L421.98 703.55 L420.65 700.99 L417.88 702.06 L414.34 704.87 L411.66 705.48 L409.49 704.86 L407.30 704.26 L405.26 703.33 L405.54 697.55 L404.59 694.51 L400.80 697.24 L397.84 698.16 L395.95 696.96 L389.87 703.52 L388.69 700.87 L390.01 693.88 L387.20 694.29 L385.18 693.29 L385.61 688.25 L381.09 691.36 L375.43 696.07 L373.62 694.59 L371.69 693.29 L368.93 693.23 L365.40 694.23 L363.58 692.71 L360.61 692.79 L357.89 692.47 L355.90 691.13 L354.36 689.21 L353.52 686.41 L354.54 681.35 L357.79 673.71 L356.08 672.26 L352.25 673.29 L354.97 666.69 L354.52 663.87 L347.69 668.14 L344.59 668.16 L343.52 665.95 L341.14 665.14 L334.55 668.59 L331.32 668.48 L329.70 666.72 L327.86 665.18 L325.92 663.74 L324.29 661.99 L322.86 660.06 L323.93 655.92 L328.13 649.16 L327.83 646.43 L323.91 646.76 L326.22 641.91 L327.07 638.35 L320.57 640.63 L317.74 639.93 L315.76 638.55 L315.57 635.83 L309.61 637.30 L305.32 637.46 L304.01 635.46 L302.48 633.63 L300.93 631.79 L299.41 629.93 L298.12 627.92 L298.90 624.62 L302.35 619.77 L303.93 616.14 L301.12 615.14 L301.66 612.19 L303.96 608.32 L300.46 607.66 L296.80 607.02 L294.19 605.79 L295.33 602.62 L290.49 602.44 L285.53 602.23 L283.23 600.67 L281.34 598.90 L279.78 596.97 L278.75 594.79 L278.08 592.46 L279.42 589.33 L282.99 585.36 L285.87 581.77 L282.69 580.50 L278.55 579.53 L280.22 576.46 L273.45 576.28 L268.14 575.49 L268.79 572.73 L268.20 570.38 L268.80 567.68 L266.82 565.73 L265.95 563.46 L266.60 560.79 L263.56 559.06 L261.57 557.03 L262.98 554.19 L261.60 552.00 L264.49 548.91 L268.50 545.67 L267.46 543.46 L266.88 541.16 L269.29 538.36 L265.12 536.65 L260.98 534.85 L260.67 532.45 L261.60 529.90 L264.62 527.14 L265.28 524.68 L263.97 522.44 L265.02 519.97 L263.96 517.68 L258.96 515.64 L258.88 513.22 L259.63 510.77 L261.30 508.30 L265.12 505.82 L264.35 503.48 L262.71 501.13 L264.66 498.77 L264.58 496.42 L261.71 493.99 L260.00 491.54 L259.73 489.13 L263.45 486.92 L263.50 484.55 L264.43 482.25 L267.00 480.09 L267.45 477.79 L261.58 474.82 L260.74 472.31 L259.00 469.66 L256.24 466.84 L261.17 465.07 L262.46 462.83 L261.11 460.17 L265.04 458.40 L266.27 456.21 L262.72 453.08 L262.45 450.55 L262.64 448.11 L268.07 446.86 L269.72 444.81 L270.12 442.47 L272.00 440.51 L273.43 438.46 L268.63 434.66 L265.09 431.12 L261.87 427.58 L259.41 424.20 L265.61 423.57 L266.08 421.12 L264.41 417.93 L267.05 416.23 L265.86 413.14 L259.05 407.86 L258.54 404.89 L259.15 402.34 L259.56 399.70 L257.53 395.99 L258.60 393.58 L259.04 390.88 L257.43 387.21 L260.11 385.53 L262.03 383.51 L264.23 381.65 L265.71 379.44 L267.51 377.42 L269.27 375.38 L270.67 373.16 L271.99 370.89 L273.72 368.87 L274.41 366.24 L276.45 364.40 L277.81 362.17 L278.73 359.66 L280.96 357.98 L285.03 357.55 L292.46 359.47 L295.18 358.30 L293.84 354.30 L297.67 353.96 L298.37 351.37 L293.19 344.33 L298.16 344.89 L303.41 345.78 L303.59 342.72 L304.21 339.97 L308.19 340.00 L304.99 334.00 L302.62 328.54 L303.95 326.23 L304.90 323.56 L306.90 321.82 L309.89 321.03 L315.85 323.14 L319.21 322.86 L319.66 319.73 L322.07 318.54 L324.25 317.14 L322.00 311.05 L324.71 310.16 L329.99 312.14 L330.77 309.21 L331.44 306.09 L335.30 306.66 L334.56 301.80 L332.75 295.52 L335.21 294.36 L336.96 292.33 L339.06 290.72 L342.02 290.27 L347.05 292.67 L350.98 293.71 L352.20 291.02 L354.25 289.48 L357.58 289.84 L357.32 284.85 L358.94 282.60 L363.32 284.67 L364.65 281.97 L364.67 277.07 L367.97 277.51 L369.24 274.55 L367.37 265.95 L370.12 265.38 L372.72 264.54 L375.37 263.83 L377.82 262.75 L382.03 265.19 L386.63 268.61 L388.64 266.84 L389.88 263.37 L393.38 264.79 L394.55 261.03 L395.41 256.41 L399.77 259.97 L402.37 259.47 L403.73 255.84 L406.95 256.92 L408.68 254.10 L408.97 247.15 L411.30 245.67 L413.70 244.38 L416.87 245.38 L419.40 244.48 L422.65 245.98 L426.64 250.13 L428.72 247.93 L430.27 243.64 L433.72 246.32 L435.63 243.19 L437.28 238.72 L440.93 242.58 L443.85 243.59 L446.13 241.64 L448.56 240.36 L451.07 239.36 L452.67 233.21 L454.73 229.07 L457.47 228.82 L460.28 229.11 L463.05 229.12 L466.18 232.07 L469.48 237.12 L472.16 237.31 L474.61 235.18 L477.46 237.27 L480.02 236.08 L482.40 231.94 L485.28 235.49 L488.04 237.73 L490.57 234.96 L493.16 232.68 L495.85 233.38 L498.48 226.55 L501.23 222.68 L503.99 223.42 L506.73 224.33 L509.47 224.88 L512.21 225.31 L514.61 231.74 L517.25 232.65 L520.17 229.54 L522.62 232.67 L525.35 232.36 L528.45 228.52 L530.90 231.13 L533.16 234.90 L536.06 233.33 L538.98 232.01 L541.42 233.88 L544.97 229.00 L548.60 224.19 L551.41 224.41 L554.41 223.70 L557.25 223.88 L559.78 225.49 L561.25 231.67 L563.11 235.74 L566.45 233.59 L568.76 235.58 L571.00 237.77 L575.30 232.52 L577.89 233.57 L579.15 239.00 L582.36 237.87 L586.65 233.57 L587.87 238.72 L591.52 236.62 L597.42 228.43 L599.59 230.86 L602.48 231.34 L605.39 231.80 L608.02 232.99 L608.24 239.96 L609.12 245.07 L613.00 243.12 L616.27 242.71 L617.29 247.20 L622.66 242.41 L626.33 241.40 L625.25 249.99 L627.79 251.15 L631.21 250.67 L631.82 255.48 L635.82 253.97 L643.14 246.74 L645.43 248.58 L647.63 250.57 L650.37 251.64 L652.42 253.86 L651.80 260.24 L650.97 266.74 L653.91 267.33 L657.91 266.40 L657.66 271.72 L662.73 269.35 L667.60 267.42 L665.85 274.64 L667.22 277.47 L671.52 276.43 L672.43 279.84 L675.01 281.10 L683.04 275.69 L686.19 276.43 L688.56 278.13 L690.56 280.27 L692.56 282.41 L692.21 287.12 L690.54 293.16 L693.34 294.29 L697.03 294.53 L697.36 298.26 L700.71 298.90 L707.27 296.44 L705.31 302.36 L704.96 306.60 L709.06 306.65 L709.82 309.80 L711.64 311.98 L717.82 310.35 L722.04 310.54 L723.46 313.17 L725.02 315.65 L726.74 318.00 L726.74 321.70 L724.62 326.98 L726.34 329.23 L729.21 330.64 L729.29 334.10 L731.83 335.76 L737.67 335.17 L736.51 339.45 L735.49 343.56 L739.35 344.42 L743.69 345.05 L743.07 348.83 L748.90 348.64 L755.54 348.08 L755.85 351.34 L756.95 354.11 L757.85 356.99 L757.39 360.60 L754.49 365.44 L753.97 368.95 L756.98 370.64 L757.14 373.76 L759.09 376.00 L764.90 376.46 L765.01 379.63 L762.79 383.79 L765.33 385.82 L769.68 387.13 L768.05 390.95 L772.59 392.27 L778.00 393.33 L779.45 395.97 L780.08 398.91 L780.15 402.04 L780.75 404.97 L777.80 409.06 L776.12 412.65 L779.94 414.52 L781.61 417.08 L780.86 420.34 L786.13 421.93 L787.60 424.61 L783.14 428.79 L783.90 431.62 L786.10 434.11 L784.68 437.42 L787.80 439.75 L794.92 441.33 L796.62 444.07 L798.08 446.87 L799.04 449.78 L798.66 452.91 L794.57 456.57 L789.98 460.21 L791.95 462.91 L793.21 465.72 L789.54 469.09 L794.17 471.56 L796.60 474.32 L791.88 477.67 L792.09 480.58 L796.61 483.26 L795.22 486.30 L798.63 489.13 L806.67 491.91 L805.73 494.99 L806.35 498.05 L804.29 501.10 L802.95 504.13 L800.86 507.11 L795.20 509.93 L796.75 512.96 L799.02 516.05 L795.48 518.83 L796.55 521.87 L801.23 525.25 L795.92 527.79 L792.67 530.44 L795.82 533.76 L794.73 536.62 L794.78 539.63 L801.49 543.60 L804.29 547.12 L804.05 550.20 L805.49 553.58 L805.11 556.67 L801.55 559.13 L794.67 560.85 L794.47 563.88 L796.48 567.43 L792.05 569.50 L793.11 572.86 L799.66 577.67 L794.05 579.37 L789.89 581.36 L791.70 585.03 L791.81 588.24 L788.81 590.49 L793.47 595.18 L796.99 599.62 L796.77 602.86 L796.06 605.94 L797.30 609.75 L794.26 611.98 L784.49 611.53 L784.08 614.66 L786.63 619.04 L781.64 620.28 L781.87 623.73 L789.50 630.55 L783.50 631.27 L776.03 631.17 L776.67 634.89 L777.34 638.66 L772.06 639.44 L777.50 645.75 L782.82 652.17 L781.01 654.85 L779.13 657.46 L777.00 659.94 L773.18 661.39 L764.93 660.12 L760.14 660.80 L761.82 665.48 L759.14 667.43 L757.18 669.83 L762.08 676.86 L759.11 678.65 L751.50 677.14 L750.42 680.15 L751.53 684.80 L745.83 684.42 L747.68 689.71 L751.94 697.00 L749.84 699.41 L748.10 702.12 L745.68 704.27 L742.79 706.01 L736.39 704.68 L731.19 704.26 L730.46 707.75 L729.28 710.88 L725.13 711.26 L726.31 716.67 L725.46 720.21 L718.84 718.07 L716.57 720.16 L715.66 723.67 L711.76 724.07 L712.21 729.09 L715.34 737.19 L712.83 739.18 L710.22 741.06 L707.48 742.78 L704.04 743.64 L699.07 742.59 L693.85 741.11 L692.24 744.07 L691.39 748.05 L687.05 747.50 L687.11 752.81 L685.98 756.59 L680.65 754.56 L677.42 755.38 L677.59 761.17 L674.73 762.57 L672.96 765.63 L675.01 774.75 L672.85 777.44 L669.70 778.55 L666.63 779.77 L663.85 781.47 L661.12 783.27 L658.09 784.51 L655.34 786.26 L653.40 789.57 L649.82 789.79 L647.27 791.97 L644.01 792.75 L638.32 788.42 L634.12 787.00 L632.03 790.06 L628.49 789.93 L625.24 790.39 L624.48 796.77 L622.79 801.15 L620.27 803.61 L616.98 804.17 L613.87 805.14 L610.07 804.21 L605.32 800.43 L601.86 800.15 L599.58 803.36 L595.79 801.97 L593.36 804.86 L591.45 809.65 L587.45 807.38 L583.67 805.70 L580.89 807.59 L578.12 809.61 L574.35 807.58 L571.51 809.35 L569.32 814.17 L566.64 817.04 L562.71 813.90 L558.99 811.46 L556.38 814.88 L552.77 812.74 L549.04 809.44 L546.37 812.82 L544.03 819.02 L540.89 819.80 L538.26 825.04 L534.96 824.97 L531.27 820.83 L528.09 821.46 L524.93 822.37 L521.61 821.21 L518.62 825.35 L515.56 829.73 L512.32 831.34 L508.98 830.37 L505.57 824.60 L502.30 820.46 L499.09 819.71 L495.96 814.55 L492.77 816.41 L489.35 824.14 L486.02 826.27 L482.48 831.37 L479.14 831.56 L476.22 825.88 L472.77 827.95 L469.14 831.51 L466.36 825.99 L462.56 830.43 L458.00 840.23 L454.78 838.39 L451.32 838.52 L447.70 839.56 L444.26 839.28 L442.21 831.03 L439.85 825.32 L436.16 826.95 L432.43 828.54 L430.10 823.46 L425.30 829.65 L421.24 832.14 L419.95 823.13 L417.02 821.17 L413.02 823.29 L410.72 819.08 L406.56 821.53 L399.98 831.74 L396.79 830.34 L393.26 830.01 L390.09 828.53 L387.19 826.33 L385.92 819.62 L385.45 811.07 L382.03 810.74 L377.43 813.37 L376.41 806.91 L371.64 809.77 L366.03 814.38 L365.88 806.21 L363.96 802.33 L359.40 804.29 L357.32 800.85 L354.10 799.86 L347.09 806.44 L343.07 806.78 L339.87 805.46 L336.81 803.87 L333.88 802.05 L332.65 797.20 L332.97 789.82 L329.64 788.87 L325.27 789.63 L324.27 784.81 L319.90 785.46 L313.36 789.38 L313.57 782.81 L312.89 777.76 L308.61 778.06 L305.97 775.95 L303.59 773.47 L297.00 776.77 L292.33 777.28 L289.41 775.40 L286.57 773.40 L284.17 770.85 L283.02 766.77 L284.04 760.16 L282.36 756.92 L278.67 756.04 L277.55 752.19 L274.35 750.71 L268.35 752.26 L267.50 748.15 L266.75 744.02 L263.16 742.87 L257.91 743.33 L257.54 738.88 L251.63 739.85 L244.31 742.03 L242.99 738.45 L240.90 735.61 L238.86 732.74 L237.65 729.15 L239.45 723.03 L239.57 718.45 L235.91 717.06 L233.98 714.22 L232.50 711.04 L226.18 711.62 L224.62 708.46 L226.27 702.94 L223.22 700.94 L218.18 700.33 L218.37 695.98 L213.19 695.36 L205.57 696.27 L203.76 693.23 L201.27 690.62 L200.86 686.70 L199.46 683.42 L202.01 677.80 L203.67 672.81 L200.17 670.86 L198.07 668.08 L198.16 664.10 L191.69 663.65 L189.83 660.68 L192.13 655.60 L190.52 652.55 L188.00 649.93 L188.25 645.99 L184.44 643.94 L178.04 642.99 L174.91 640.51 L172.45 637.70 L171.25 634.35 L169.43 631.25 L172.35 626.32 L175.74 621.30 L173.25 618.52 L171.18 615.56 L172.98 611.27 L168.23 609.19 L164.70 606.65 L168.24 601.89 L167.12 598.60 L162.72 596.24 L162.52 592.66 L158.69 590.05 L151.64 588.20 L151.70 584.48 L151.98 580.74 L151.24 577.24 L153.18 573.18 L154.76 569.25 L157.02 565.24 L155.57 561.95 L152.83 558.87 L155.34 554.90 L151.91 551.88 L147.95 548.88 L152.04 544.77 L153.92 541.01 L150.71 537.86 L150.20 534.38 L149.72 530.89 L142.39 527.94 L139.57 524.53 L139.24 520.93 L138.39 517.36 L137.71 513.76 L140.30 510.06 L146.10 506.36 L146.57 502.81 L142.84 499.27 L146.00 495.74 L144.49 492.16 L137.36 488.38 L142.35 484.96 L145.77 481.55 L142.70 477.81 L141.01 474.09 L144.16 470.74 L137.82 466.57 L134.27 462.55 L135.98 459.05 L135.33 455.27 L133.17 451.28 L135.80 447.92 L144.22 445.49 L144.02 441.81 L141.01 437.62 L144.38 434.54 L144.15 430.81 L136.48 425.54 L140.93 422.70 L148.34 420.61 L148.18 416.87 L146.25 412.67 L151.07 410.15 L145.21 404.84 L138.62 399.19 L140.41 395.81 L140.81 392.02 L142.31 388.55 L145.87 385.77 L154.22 384.63 L159.49 382.59 L158.42 378.39 L160.20 375.18 L163.30 372.48 L157.37 366.30 L158.87 362.94 L167.04 362.34 L167.60 358.66 L164.98 353.58 L171.29 352.40 L169.49 347.60 L162.61 340.32 L164.36 337.02 L165.82 333.58 L167.61 330.30 L170.36 327.53 L176.51 326.61 L182.25 325.57 L183.05 321.86 L182.57 317.39 L186.93 315.71 L183.73 309.54 L184.13 305.45 L191.36 305.62 L193.89 302.91 L193.86 298.53 L197.84 296.80 L197.15 291.90 L193.07 284.55 L195.14 281.42 L197.15 278.24 L199.81 275.54 L202.44 272.84 L207.85 272.31 L214.47 272.84 L216.63 269.90 L216.94 265.41 L222.39 265.21 L222.61 260.60 L222.24 255.38 L228.10 255.67 L231.15 253.51 L230.99 248.37 L233.02 245.21 L235.21 242.19 L232.19 233.99 L233.64 230.08 L236.62 227.70 L239.44 225.18 L242.65 223.06 L247.13 222.37 L254.65 225.16 L257.22 222.50 L258.28 218.07 L263.82 218.89 L265.87 215.60 L264.47 208.00 L270.54 209.64 L274.95 209.28 L275.92 204.47 L277.96 201.01 L281.27 199.22 L280.68 191.98 L281.02 185.86 L284.36 183.96 L287.95 182.44 L291.80 181.35 L296.17 181.12 L302.36 183.89 L306.08 182.83 L308.05 178.87 L312.52 179.12 L314.71 175.46 L315.36 168.94 L320.20 169.90 L324.90 170.75 L327.57 167.78 L330.40 165.09 L334.88 165.68 L335.90 159.21 L338.27 155.36 L341.75 153.82 L344.32 150.23 L348.12 149.35 L352.13 149.03 L357.27 151.54 L361.73 152.56 L364.22 148.63 L368.56 149.49 L372.23 148.62 L373.83 141.91 L378.22 143.02 L382.94 145.29 L385.82 142.04 L388.29 137.27 L392.65 138.64 L394.87 132.69 L396.74 125.09 L400.34 123.49 L404.12 122.57 L408.37 123.53 L412.21 122.95 L417.09 127.06 L421.73 130.53 L425.36 129.43 L428.96 128.11 L432.91 128.67 L435.84 123.44 L439.55 122.42 L443.96 126.09 L447.62 124.93 L451.07 122.10 L455.32 125.51 L458.79 122.55 L461.78 114.24 L465.68 114.38 L469.52 113.75 L473.19 110.73 L477.08 110.30 L481.19 114.60 L485.22 118.85 L489.02 118.33 L492.77 114.55 L496.66 118.31 L500.48 113.52 L504.38 110.22 L508.15 116.56 L511.96 117.32 L515.98 112.84 L519.71 115.65 L523.67 114.05 L528.16 105.32 L532.08 106.04 L535.98 106.80 L540.06 105.63 L544.31 103.29 L547.44 110.67 L550.47 117.67 L554.82 114.43 L559.24 111.31 L562.17 117.75 L566.62 114.76 L572.00 107.12 L574.23 116.58 L577.35 120.82 L581.80 118.53 L585.25 120.97 L589.04 121.85 L595.32 112.57 L600.09 110.05 L603.93 111.25 L607.91 111.96 L611.67 113.46 L614.08 119.45 L615.27 128.99 L618.84 130.59 L623.69 128.30 L625.88 133.99 L630.16 133.48 L637.13 125.77 L638.54 133.31 L640.55 138.96 L645.08 138.06 L648.83 139.20 L651.30 143.39 L658.19 137.28 L663.93 134.14 L667.53 135.90 L671.30 137.31 L674.74 139.39 L677.15 143.55 L677.76 151.13 L680.53 154.29 L685.30 153.63 L687.84 157.18 L692.03 157.69 L698.66 154.02 L700.61 158.59 L701.41 164.94 L705.66 165.50 L709.82 166.25 L711.60 170.78 L718.12 167.98 L724.59 165.47 L727.96 167.68 L731.18 170.10 L734.24 172.75 L736.49 176.49 L736.42 183.28 L737.65 188.19 L741.78 189.26 L744.23 192.51 L746.40 196.07 L752.68 194.62 L755.91 196.93 L756.05 202.85 L760.32 203.93 L766.52 202.93 L767.50 207.77 L772.43 208.30 L781.42 204.65 L783.38 208.48 L785.12 212.50 L787.06 216.28 L788.99 220.03 L788.36 226.17 L787.68 232.24 L790.90 234.62 L796.61 234.80 L797.76 239.08 L803.34 239.50 L807.93 240.87 L806.41 247.33 L808.72 250.58 L814.29 251.23 L815.56 255.32 L820.40 256.66 L830.90 253.86 L834.19 256.56 L837.58 259.23 L838.95 263.33 L840.29 267.42 L838.72 273.42 L834.41 281.12 L837.60 283.82 L842.93 285.21 L840.89 291.20 L846.10 292.75 L852.88 293.45 L848.80 300.50 L849.08 304.94 L853.85 306.89 L853.35 311.73 L856.66 314.52 L865.97 314.30 L869.58 317.10 L871.79 320.61 L873.74 324.25 L875.11 328.17 L873.06 333.60 L868.34 340.10 L870.55 343.53 L875.20 345.97 L872.77 351.30 L877.47 353.79 L884.35 355.52 L879.87 361.53 L879.06 366.10 L884.88 368.36 L886.09 372.25 L887.86 375.95 L898.28 376.99 L903.22 379.87 L903.92 384.05 L904.71 388.19 L904.87 392.49 L902.51 397.41 L896.09 403.26 L895.72 407.53 L898.61 411.05 L896.74 415.62 L899.82 419.14 L906.99 421.92 L903.37 426.78 L899.46 431.61 L901.89 435.33 L903.92 439.14 L901.19 443.64 L908.45 446.78 L914.66 450.19 L915.23 454.33 L915.27 458.52 L915.97 462.65 L914.58 466.95 L908.75 471.52 L906.91 475.74 L909.37 479.70 L908.38 483.84 L908.07 487.94 L915.00 491.88 L913.88 496.04 L974.30 500.00 L968.68 495.31 L967.66 490.65 L973.45 485.79 L972.30 481.10 L970.72 476.44 L971.93 471.65 L968.70 467.14 L962.32 462.93 L959.39 458.54 L958.75 453.97 L958.12 449.40 L957.31 444.86 L962.08 439.59 L967.89 434.06 L963.65 429.93 L964.13 425.10 L964.72 420.23 L958.57 416.55 L953.81 412.72 L958.23 407.11 L958.93 402.18 L955.07 398.24 L956.10 393.21 L952.44 389.28 L943.44 386.77 L938.70 383.30 L935.82 379.38 L934.16 375.16 L932.20 371.03 L934.20 365.69 L942.22 358.35 L940.40 354.06 L939.77 349.37 L941.71 343.75 L937.00 340.48 L930.15 338.09 L933.65 331.80 L933.74 326.76 L928.36 323.92 L928.88 318.67 L926.59 314.59 L918.32 313.19 L912.93 310.62 L910.37 306.81 L907.94 302.94 L906.43 298.63 L906.28 293.63 L910.38 286.35 L909.10 281.79 L905.08 278.70 L905.17 273.36 L900.30 270.81 L891.65 270.53 L894.07 263.78 L893.98 258.45 L887.52 257.05 L887.83 251.41 L885.61 247.36 L876.49 247.92 L869.60 247.14 L865.74 244.38 L862.45 241.24 L859.56 237.84 L858.74 232.90 L863.71 223.51 L862.32 218.80 L859.48 215.20 L860.22 208.70 L856.57 205.71 L849.27 205.81 L848.01 200.88 L847.18 195.50 L841.90 194.03 L839.85 189.69 L837.74 185.36 L831.11 185.30 L824.75 185.10 L822.13 181.33 L817.76 179.31 L813.79 176.91 L809.58 174.80 L810.58 167.14 L808.96 162.18 L803.97 160.88 L802.57 155.58 L800.99 150.38 L795.69 149.51 L791.45 147.45 L790.09 141.85 L785.80 139.85 L780.91 138.64 L777.27 135.87 L772.03 135.25 L765.47 136.51 L761.19 134.76 L757.26 132.54 L753.15 130.61 L749.62 127.83 L748.70 121.05 L746.54 116.03 L740.91 116.42 L737.55 113.24 L733.93 110.46 L726.99 113.30 L721.92 113.12 L720.88 105.86 L717.27 103.04 L712.31 102.72 L709.67 98.04 L704.35 98.51 L697.23 102.71 L692.05 103.23 L687.62 102.29 L683.72 100.25 L679.52 98.87 L677.57 92.33 L676.49 83.49 L671.14 84.59 L667.30 82.11 L663.57 79.28 L657.41 82.80 L651.27 86.61 L649.90 77.30 L646.16 74.38 L640.52 77.09 L637.21 72.83 L632.47 72.95 L625.53 80.57 L620.13 83.48 L615.55 83.79 L611.35 82.75 L607.09 81.98 L603.84 77.15 L601.68 67.30 L597.24 66.77 L592.59 67.29 L588.75 63.96 L583.49 67.75 L577.58 75.57 L574.76 66.54 L570.87 63.07 L565.66 67.88 L561.81 63.90 L557.81 60.57 L552.40 68.29 L547.33 74.55 L543.28 72.05 L539.11 70.41 L534.82 69.94 L530.50 69.84 L526.74 60.68 L522.44 58.55 L517.93 60.84 L513.67 56.23 L509.22 56.80 L504.72 62.76 L500.35 59.41 L495.91 55.52 L491.56 60.36 L487.07 57.33 L482.64 57.49 L478.49 63.15 L474.37 67.62 L470.11 68.72 L465.57 66.20 L461.29 67.21 L457.04 68.41 L451.87 60.98 L447.24 59.53 L443.27 63.38 L438.74 62.75 L434.31 63.01 L430.69 68.35 L426.36 68.95 L421.33 65.72 L417.39 68.60 L412.98 68.97 L408.76 70.26 L405.54 76.01 L402.51 82.15 L398.65 84.41 L394.81 86.66 L390.50 87.04 L386.12 87.23 L380.25 82.30 L374.86 79.41 L371.31 82.82 L366.23 81.24 L361.60 81.26 L358.89 86.96 L355.30 89.89 L349.71 87.25 L346.16 90.29 L343.01 94.28 L338.05 93.58 L335.37 98.59 L333.21 104.63 L329.92 107.83 L326.29 110.19 L321.73 110.47 L317.84 112.28 L312.83 111.73 L306.92 109.51 L304.13 113.63 L299.72 114.56 L295.54 115.93 L293.66 121.59 L291.12 125.86 L285.17 124.09 L281.28 126.01 L278.74 130.22 L274.06 130.82 L271.37 134.68 L271.00 142.10 L268.93 146.70 L266.26 150.31 L263.33 153.47 L260.61 156.90 L254.45 155.47 L247.40 152.97 L244.49 156.25 L240.09 157.54 L234.66 157.55 L232.51 161.82 L231.39 167.29 L225.06 166.33 L220.60 167.75 L218.89 172.43 L214.72 174.21 L211.81 177.45 L213.24 185.45 L210.73 188.99 L208.13 192.42 L206.19 196.52 L202.72 199.01 L198.92 201.20 L191.98 200.37 L189.59 204.02 L186.46 206.98 L180.33 207.18 L177.98 210.89 L178.06 216.73 L173.05 218.07 L168.73 220.07 L168.95 225.88 L165.59 228.69 L163.10 232.22 L164.21 238.54 L163.92 243.66 L162.71 248.04 L160.26 251.46 L159.25 255.92 L157.14 259.55 L149.72 259.54 L145.69 261.95 L146.09 267.33 L142.53 270.07 L141.40 274.38 L144.74 281.41 L141.08 284.08 L134.35 284.98 L135.27 290.39 L131.09 292.87 L128.25 296.14 L131.05 302.45 L133.62 308.52 L133.17 312.93 L131.84 316.86 L129.84 320.46 L128.60 324.43 L118.40 324.25 L114.24 326.99 L117.13 332.87 L111.73 335.11 L110.69 339.25 L115.84 345.85 L113.53 349.40 L106.30 351.09 L107.34 355.96 L105.76 359.84 L103.10 363.35 L106.82 369.01 L112.20 375.09 L113.88 379.89 L113.80 384.08 L112.33 387.85 L112.08 391.97 L103.06 393.73 L96.76 396.35 L100.06 401.45 L96.35 404.81 L95.38 408.84 L101.86 414.48 L103.35 418.94 L95.20 421.48 L94.94 425.63 L96.24 430.03 L92.02 433.49 L92.65 437.77 L101.32 443.17 L102.95 447.45 L100.15 451.14 L99.50 455.12 L99.75 459.20 L93.83 462.69 L87.58 466.27 L90.26 470.62 L87.46 474.56 L84.89 478.56 L87.76 482.84 L92.14 487.11 L85.92 491.06 L84.75 495.19 L88.02 499.34 L85.37 503.49 L87.20 507.60 L93.10 511.56 L95.89 515.53 L96.74 519.54 L95.87 523.63 L96.73 527.63 L94.54 531.86 L88.10 536.51 L88.30 540.65 L89.83 544.64 L88.03 549.01 L90.75 552.84 L96.83 556.16 L93.93 560.71 L92.43 565.11 L95.15 568.83 L94.90 573.05 L96.41 576.95 L101.32 580.16 L105.56 583.42 L108.18 586.96 L109.43 590.79 L110.40 594.68 L110.83 598.71 L105.86 604.18 L104.98 608.65 L107.41 612.22 L105.11 617.16 L107.24 620.81 L113.31 623.19 L111.05 628.21 L110.67 632.66 L116.36 635.02 L116.64 639.25 L117.81 643.16 L124.24 645.05 L129.58 647.27 L130.39 651.24 L131.94 654.92 L133.75 658.49 L132.97 663.21 L130.28 668.85 L130.95 673.02 L134.42 675.88 L135.30 679.97 L138.18 683.07 L144.09 684.57 L145.62 688.30 L143.71 693.91 L147.94 696.19 L148.80 700.34 L150.43 704.07 L156.27 705.30 L162.59 706.13 L166.13 708.58 L169.42 711.15 L172.64 713.73 L175.61 716.45 L170.49 724.66 L170.46 729.54 L174.18 731.82 L173.00 737.62 L174.76 741.35 L180.81 741.85 L182.85 745.33 L182.75 750.52 L186.04 753.06 L186.86 757.61 L189.39 760.78 L194.81 761.48 L200.49 761.84 L203.55 764.45 L207.57 766.16 L211.07 768.31 L214.59 770.40 L212.94 777.47 L213.76 782.26 L218.71 782.99 L219.59 787.80 L221.13 792.01 L225.70 793.03 L230.32 793.94 L231.23 798.89 L233.84 802.01 L238.23 803.08 L240.78 806.27 L244.73 807.79 L250.81 806.65 L254.72 808.08 L258.08 810.18 L261.83 811.74 L264.76 814.39 L266.52 818.63 L267.46 824.09 L271.26 825.62 L275.50 826.47 L278.13 829.66 L283.85 828.20 L290.34 825.39 L290.06 833.09 L292.42 836.77 L297.44 836.10 L299.36 840.57 L303.00 842.16 L309.74 838.25 L314.89 836.92 L318.81 837.76 L322.23 839.49 L325.66 841.19 L328.07 844.94 L327.75 854.42 L331.45 855.82 L335.76 855.88 L338.20 860.01 L343.29 858.21 L349.82 852.86 L350.68 860.81 L353.21 864.99 L358.82 861.42 L361.07 866.44 L364.85 867.50 L371.36 860.90 L376.74 857.08 L380.97 856.32 L384.83 856.60 L388.30 858.05 L391.79 859.47 L392.45 870.67 L395.41 874.43 L400.06 872.09 L403.14 875.60 L407.46 874.28 L413.30 866.34 L415.95 871.68 L418.52 877.84 L423.29 873.85 L426.48 877.44 L429.86 880.31 L434.71 874.99 L439.76 867.72 L443.31 869.10 L446.85 870.77 L450.54 871.45 L454.48 870.08 L457.04 880.62 L460.44 884.98 L464.75 880.47 L468.29 884.02 L472.02 885.81 L476.23 880.54 L480.03 880.88 L483.63 885.97 L487.44 887.58 L491.14 895.68 L495.09 896.19 L499.06 891.71 L502.97 890.43 L506.83 887.72 L510.51 880.50 L514.26 878.98 L518.10 879.82 L522.13 883.67 L526.12 885.74 L529.75 882.53 L533.66 883.27 L537.53 883.30 L540.82 877.89 L544.63 877.70 L548.93 881.34 L552.74 880.87 L557.32 885.50 L561.57 887.40 L564.78 882.85 L568.15 879.65 L572.22 880.40 L575.24 875.79 L578.23 871.37 L582.40 872.66 L586.93 875.32 L590.72 874.59 L593.94 871.61 L598.15 872.52 L602.15 872.54 L605.19 869.12 L607.95 864.91 L612.64 867.25 L616.62 867.09 L619.85 864.57 L623.97 864.77 L626.98 861.72 L628.88 855.71 L632.39 854.29 L635.29 851.29 L638.29 848.66 L642.86 849.91 L647.06 850.17 L651.93 851.85 L655.04 849.41 L658.31 847.37 L662.04 846.34 L664.22 842.04 L665.24 835.54 L667.61 831.93 L670.51 829.45 L672.59 825.45 L676.03 824.06 L678.80 821.45 L681.85 819.37 L684.84 817.21 L687.56 814.59 L690.26 812.00 L692.70 809.01 L696.55 808.26 L703.69 812.52 L707.39 811.34 L710.61 809.44 L715.81 810.35 L717.65 806.42 L717.53 799.85 L722.47 800.29 L727.04 800.14 L728.28 795.59 L733.04 795.60 L736.40 793.77 L736.51 787.96 L737.47 783.30 L739.02 779.43 L741.46 776.63 L743.73 773.66 L745.95 770.65 L753.72 773.66 L757.71 772.44 L758.74 768.11 L762.72 766.84 L764.40 763.23 L762.46 756.13 L766.55 754.96 L772.17 755.17 L771.59 749.58 L775.39 748.04 L778.27 745.63 L776.47 739.17 L774.79 732.95 L775.37 728.75 L776.71 725.22 L779.25 722.69 L780.72 719.30 L789.99 721.92 L795.18 721.24 L793.37 715.33 L798.63 714.63 L800.53 711.48 L795.84 703.78 L797.55 700.60 L805.70 701.68 L805.71 697.33 L807.20 693.96 L811.56 692.39 L809.41 686.81 L804.43 679.68 L803.40 675.00 L804.17 671.42 L805.95 668.41 L807.04 665.03 L816.19 665.89 L823.63 665.69 L821.42 660.53 L826.17 658.84 L828.03 655.71 L822.91 649.34 L821.10 644.62 L829.73 644.56 L831.68 641.48 L830.20 636.96 L834.80 634.96 L835.77 631.46 L828.24 624.74 L827.02 620.55 L830.49 618.09 L832.10 614.94 L833.56 611.72 L838.92 609.76 L845.36 608.04 L844.32 603.94 L846.31 600.78 L849.90 598.04 L847.31 593.58 L843.77 588.95 L851.00 587.08 L852.66 583.76 L849.82 579.40 L852.95 576.40 L852.67 572.66 L847.16 567.91 L844.68 563.86 L844.96 560.35 L846.85 557.11 L847.71 553.68 L850.50 550.53 L857.86 547.95 L858.30 544.36 L857.78 540.67 L860.72 537.35 L857.69 533.43 L852.90 529.42 L857.31 526.20 L858.77 522.70 L855.57 518.93 L857.66 515.46 L858.40 511.90 L853.43 508.20 L849.71 504.61 L848.95 501.11 L849.16 497.62 L848.20 494.14 L848.06 490.66 L855.35 486.91 L857.49 483.25 L855.97 479.75 L859.20 475.96 L857.84 472.46 L852.59 469.31 L854.57 465.57 L856.11 461.82 L851.54 458.75 L852.03 455.12 L851.66 451.58 L845.73 448.87 L841.41 446.02 L839.40 442.85 L838.56 439.51 L839.65 435.80 L839.31 432.34 L844.77 427.66 L846.39 423.70 L843.13 420.81 L843.73 417.04 L841.66 413.92 L835.07 412.00 L834.81 408.49 L838.20 403.91 L835.11 401.16 L835.64 397.34 L835.65 393.66 L831.26 391.39 L824.89 389.87 L822.04 387.24 L820.38 384.21 L817.29 381.72 L815.79 378.67 L822.06 372.55 L823.49 368.23 L821.98 365.08 L825.15 359.91 L824.05 356.52 L820.22 354.37 L817.34 351.83 L818.14 347.57 L815.59 344.89 L813.42 342.05 L812.70 338.47 L808.46 336.73 L802.74 335.86 L801.05 332.86 L798.00 330.63 L795.65 328.04 L793.10 325.57 L795.47 320.14 L797.24 314.96 L792.54 313.80 L793.70 308.91 L793.90 304.57 L790.20 302.82 L785.63 301.72 L785.35 297.66 L783.90 294.39 L779.30 293.43 L778.03 290.04 L775.16 287.85 L769.79 287.65 L766.12 286.19 L763.74 283.74 L761.35 281.28 L757.31 280.25 L757.29 275.78 L758.35 270.27 L754.71 268.91 L751.62 267.09 L750.37 263.55 L745.53 263.43 L739.10 264.97 L740.85 258.47 L740.14 254.32 L735.15 254.56 L734.31 250.48 L731.93 248.01 L725.10 250.47 L720.10 251.05 L716.83 249.76 L714.29 247.64 L711.60 245.69 L710.11 242.29 L712.59 233.84 L710.06 231.55 L706.31 230.85 L705.34 226.49 L700.83 226.84 L693.91 230.66 L694.15 224.56 L693.31 219.84 L687.85 221.85 L686.97 217.08 L683.82 215.71 L677.28 219.72 L671.97 222.00 L668.12 222.05 L665.06 220.84 L662.20 219.31 L659.03 218.33 L660.80 208.42 L659.04 204.67 L654.55 206.00 L652.68 202.38 L648.94 202.37 L642.40 208.19 L640.57 204.47 L640.27 197.33 L635.28 200.28 L633.22 196.80 L631.19 193.13 L626.09 196.69 L620.29 202.28 L617.37 200.92 L614.71 198.90 L611.65 197.86 L608.17 198.05 L608.22 188.11 L606.08 184.12 L601.59 187.15 L599.68 182.24 L597.03 179.50 L592.43 183.31 L589.14 182.82 L587.42 176.55 L583.58 178.02 L580.18 177.92 L577.26 175.85 L573.15 178.90 L568.75 183.62 L565.25 184.57 L562.14 183.68 L559.08 182.50 L555.91 181.92 L553.59 176.14 L550.96 171.66 L547.47 172.61 L544.41 170.52 L541.15 169.82 L537.44 172.99 L533.99 174.34 L531.04 170.67 L527.73 170.57 L524.28 172.40 L521.15 169.94 L517.74 171.77 L514.23 176.77 L510.89 179.77 L507.69 179.47 L504.49 179.15 L501.28 179.43 L498.05 176.06 L494.70 168.86 L491.42 170.25 L488.08 169.29 L484.67 167.19 L481.55 171.02 L478.53 175.26 L474.99 171.68 L471.61 170.79 L468.56 173.57 L465.07 171.77 L462.01 174.06 L459.41 179.64 L456.57 182.71 L453.78 185.72 L450.86 187.62 L447.84 188.69 L444.11 185.78 L440.10 181.70 L436.83 181.86 L433.62 182.36 L430.21 181.98 L427.50 184.73 L425.56 190.49 L421.65 187.99 L417.90 186.37 L415.57 190.12 L411.79 188.56 L408.64 189.35 L406.84 194.53 L404.83 198.77 L402.49 201.79 L399.76 203.49 L397.41 206.28 L393.88 205.65 L388.33 199.69 L385.03 200.05 L382.04 201.21 L377.24 197.94 L374.54 199.94 L373.78 206.39 L369.21 203.97 L365.64 203.93 L364.34 208.85 L360.80 208.88 L357.56 209.59 L357.00 215.68 L355.83 220.36 L352.72 221.21 L350.67 224.05 L347.97 225.65 L345.73 228.06 L339.53 223.60 L336.44 224.66 L334.65 227.88 L330.08 226.55 L326.96 227.65 L325.61 231.49 L322.30 232.30 L318.77 232.82 L317.38 236.48 L314.96 238.61 L311.94 239.91 L311.05 244.09 L310.90 249.19 L308.97 251.82 L306.77 254.10 L305.41 257.39 L303.21 259.63 L297.59 257.74 L294.02 258.42 L293.65 262.83 L290.63 264.16 L288.15 266.12 L289.43 272.16 L288.01 275.17 L282.16 273.55 L280.54 276.38 L279.11 279.38 L275.12 279.84 L275.30 284.38 L277.38 290.61 L277.08 294.50 L275.56 297.21 L273.20 299.16 L271.41 301.61 L265.29 300.38 L258.83 299.01 L259.40 303.53 L256.04 304.82 L253.47 306.77 L255.77 312.49 L256.76 317.08 L249.25 315.33 L247.39 317.83 L247.69 321.86 L243.50 322.71 L244.31 327.02 L249.21 333.97 L250.05 338.10 L250.00 341.60 L248.26 344.00 L247.00 346.70 L246.32 349.73 L244.84 352.28 L243.68 355.01 L242.18 357.55 L242.00 360.80 L240.69 363.42 L239.99 366.36 L239.96 369.61 L240.22 372.98 L239.51 375.84 L239.90 379.21 L236.45 380.79 L234.66 383.16 L232.79 385.52 L229.49 387.29 L227.85 389.79 L226.65 392.47 L224.25 394.70 L215.89 394.75 L213.71 397.19 L214.26 400.60 L210.93 402.67 L210.72 405.81 L215.14 410.39 L210.81 412.20 L207.51 414.38 L202.19 416.05 L196.00 417.57 L197.82 421.30 L198.29 424.64 L196.85 427.49 L197.82 430.91 L202.63 435.13 L202.19 438.15 L201.40 441.09 L197.57 443.47 L198.35 446.73 L201.57 450.38 L200.09 453.21 L200.46 456.33 L205.17 460.02 L202.15 462.64 L199.01 465.30 L198.00 468.24 L191.82 470.70 L192.37 473.86 L195.29 477.17 L196.11 480.29 L195.87 483.32 L200.30 486.57 L199.93 489.56 L196.91 492.49 L194.93 495.49 L196.16 498.55 L196.96 501.58 L195.24 504.64 L195.59 507.68 L199.94 510.57 L200.59 513.55 L201.30 516.51 L201.72 519.48 L198.97 522.69 L199.46 525.67 L201.98 528.46 L203.20 531.35 L203.09 534.36 L206.64 536.93 L206.98 539.87 L206.02 543.00 L203.69 546.37 L201.64 549.75 L204.67 552.28 L205.57 555.17 L206.66 558.01 L211.17 560.12 L215.02 562.30 L216.57 564.94 L220.21 567.05 L220.69 569.90 L220.86 572.83 L223.33 575.15 L223.56 578.06 L224.32 580.83 L226.47 583.18 L227.81 585.76 L230.55 587.87 L226.37 592.27 L222.47 596.68 L226.01 598.53 L223.83 602.45 L223.10 605.88 L228.35 607.00 L233.47 608.07 L236.27 610.02 L238.19 612.31 L238.86 615.13 L239.70 617.88 L241.03 620.41 L241.79 623.21 L239.32 627.61 L237.72 631.65 L241.55 632.99 L241.78 636.15 L239.75 640.56 L240.46 643.55 L244.72 644.55 L248.15 645.95 L248.31 649.24 L252.76 649.97 L259.24 649.35 L263.09 650.26 L265.85 651.81 L267.74 653.91 L269.72 655.93 L271.82 657.86 L273.87 659.81 L271.89 664.66 L269.29 670.07 L273.03 670.84 L274.43 673.35 L274.08 677.23 L272.12 682.48 L276.75 682.47 L282.41 681.50 L281.86 685.69 L285.41 686.41 L293.32 683.19 L297.89 682.78 L300.53 684.06 L302.59 685.84 L305.12 687.17 L307.57 688.55 L310.01 689.92 L309.91 693.87 L306.61 701.21 L308.70 703.06 L311.34 704.32 L311.73 708.03 L308.85 715.51 L312.77 715.39 L319.01 712.47 L319.12 716.69 L321.63 718.08 L328.83 713.60 L333.66 711.87 L337.54 711.25 L340.53 711.71 L342.66 713.28 L345.04 714.51 L346.26 717.38 L348.00 719.54 L348.84 723.06 L350.28 725.76 L352.17 727.83 L354.63 729.02 L353.52 735.96 L353.73 740.96 L358.23 738.90 L360.51 740.50 L362.43 742.76 L368.49 737.57 L371.52 737.68 L370.15 746.05 L373.29 746.03 L375.30 748.21 L375.97 753.14 L380.27 750.68 L385.16 746.76 L388.09 746.89 L390.70 747.69 L392.75 749.79 L394.67 752.23 L395.68 757.01 L397.41 760.19 L400.64 759.58 L402.67 762.09 L405.16 763.43 L408.34 762.81 L411.39 762.49 L413.26 765.69 L415.94 766.48 L418.62 767.27 L421.23 768.29 L424.22 767.98 L427.70 765.80 L430.56 765.76 L433.21 766.48 L435.84 767.31 L438.65 767.34 L441.09 769.03 L443.10 772.90 L446.30 771.09 L449.61 768.42 L452.58 767.30 L455.93 763.72 L459.39 758.95 L461.01 765.93 L463.47 767.78 L466.32 766.77 L468.64 770.16 L471.37 770.22 L474.78 763.05 L477.59 761.24 L480.33 759.84 L483.03 758.39 L485.58 759.29 L488.04 762.35 L490.40 769.64 L493.12 768.93 L495.84 766.77 L498.50 768.61 L501.17 764.78 L503.71 757.31 L506.46 764.27 L509.17 766.36 L511.77 764.83 L514.68 769.40 L517.36 769.06 L519.57 762.46 L521.92 759.06 L524.31 756.71 L526.64 754.14 L529.12 753.39 L531.70 753.48 L535.38 761.60 L538.27 763.13 L540.47 759.97 L543.42 761.66 L545.80 759.90 L546.75 750.63 L549.86 753.22 L553.53 758.19 L555.69 755.71 L559.33 759.91 L562.48 761.62 L564.02 756.69 L565.48 751.78 L567.56 749.53 L569.91 748.33 L572.60 748.34 L575.27 748.24 L579.10 751.77 L582.37 753.27 L584.63 751.65 L587.14 750.78 L590.45 752.16 L591.77 747.99 L594.07 746.59 L598.59 750.89 L600.42 748.22 L602.80 746.98 L605.52 746.54 L607.56 744.50 L608.56 740.23 L610.50 738.15 L613.28 737.89 L615.72 736.87 L616.90 733.34 L621.19 735.98 L624.47 736.53 L624.95 731.78 L626.27 728.73 L627.52 725.63 L626.79 719.19 L627.91 716.11 L633.22 720.02 L635.10 718.19 L638.46 718.70 L642.79 720.62 L643.51 716.95 L641.90 709.92 L643.33 707.52 L645.32 705.98 L646.95 703.93 L648.32 701.55 L652.81 703.36 L658.51 706.60 L658.39 702.23 L660.34 700.56 L661.96 698.48 L660.60 692.84 L658.98 687.06 L665.02 690.28 L667.90 689.73 L669.59 687.83 L674.61 689.54 L676.44 687.72 L674.40 681.87 L675.06 678.94 L676.02 676.36 L677.21 674.04 L677.32 670.69 L680.69 670.49 L687.15 673.08 L687.25 669.74 L687.46 666.54 L690.74 666.07 L689.39 661.60 L685.82 655.36 L692.43 657.65 L695.72 657.10 L696.51 654.53 L701.85 655.48 L703.89 653.84 L700.43 648.10 L699.41 644.29 L700.65 642.15 L701.14 639.50 L703.40 638.07 L706.52 637.19 L712.09 637.85 L713.38 635.68 L713.22 632.60 L714.74 630.59 L715.48 628.10 L711.00 622.60 L715.92 622.59 L720.40 622.23 L719.94 619.12 L723.17 618.00 L724.11 615.64 L720.78 611.14 L719.75 607.89 L719.62 605.11 L719.72 602.47 L721.78 600.74 L723.15 598.68 L729.37 598.70 L732.19 597.18 L731.85 594.32 L733.62 592.33 L734.30 589.90 L731.09 586.03 L732.51 583.92 L736.57 582.72 L735.34 579.66 L738.56 578.10 L739.74 575.84 L737.99 572.67 L736.64 569.68 L736.71 567.14 L736.92 564.65 L737.65 562.30 L737.65 559.76 L743.19 558.58 L745.34 556.51 L741.34 553.05 L743.05 550.88 L741.83 548.11 L735.88 544.48 L735.85 542.03 L740.89 540.45 L739.41 537.75 L739.33 535.28 L741.03 533.07 L736.70 530.07 L731.10 527.02 L727.27 524.27 L725.92 521.84 L727.03 519.66 L725.83 517.28 L726.13 515.03 L727.42 512.83 L727.25 510.55 L728.39 508.31 L728.43 506.03 L727.91 503.73 L728.01 501.45 L726.44 499.18 L725.67 496.92 L725.71 494.67 L724.91 492.43 L723.83 490.23 L722.89 488.03 L726.40 485.58 L726.39 483.30 L727.45 480.93 L729.40 478.46 L729.46 476.14 L728.90 473.88 L727.56 471.72 L728.04 469.34 L726.93 467.18 L725.59 465.07 L727.67 462.41 L726.39 460.29 L724.70 458.27 L725.73 455.74 L722.59 454.04 L721.68 451.91 L721.93 449.52 L720.50 447.53 L719.77 445.37 L718.89 443.26 L717.39 441.32 L714.08 439.91 L712.09 438.18 L709.50 436.65 L708.64 434.63 L707.87 432.58 L706.61 430.70 L705.42 428.81 L705.76 426.37 L702.96 425.08 L701.79 423.21 L699.66 421.72 L697.89 420.13 L695.34 418.87 L696.54 416.06 L694.92 414.44 L692.31 413.28 L693.10 410.59 L693.20 408.19 L691.00 406.88 L689.59 405.21 L691.29 401.96 L689.10 400.68 L689.18 398.21 L689.72 395.46 L687.97 393.96 L687.85 391.54 L687.43 389.27 L686.41 387.34 L685.03 385.63 L684.06 383.67 L682.64 382.00 L680.21 380.99 L676.76 380.72 L673.76 380.20 L672.54 378.47 L679.44 370.91 L680.73 367.22 L680.85 364.33 L684.23 358.89 L683.90 356.20 L679.67 356.59 L678.82 354.32 L679.89 350.43 L677.01 349.81 L675.87 347.73 L675.08 345.32 L670.76 346.07 L666.76 346.62 L663.94 346.16 L661.69 345.20 L660.11 343.61 L657.63 342.93 L659.96 337.38 L660.84 333.18 L656.97 333.90 L656.38 331.18 L655.40 328.84 L651.00 330.30 L648.22 330.03 L649.07 325.57 L647.38 324.01 L645.08 323.20 L644.16 320.69 L640.53 321.59 L635.42 324.49 L632.40 324.81 L629.26 325.36 L626.78 325.07 L624.62 324.40 L625.52 319.32 L626.62 313.80 L624.00 313.66 L623.43 310.43 L622.76 307.29 L618.92 309.12 L615.57 310.30 L615.74 305.67 L614.55 303.21 L611.10 304.67 L609.71 302.56 L607.44 302.00 L603.10 305.37 L599.84 306.90 L597.55 306.60 L595.45 305.97 L593.35 305.35 L592.41 302.26 L592.38 297.05 L590.10 296.71 L587.93 296.12 L586.61 293.52 L583.51 295.20 L579.75 298.68 L579.10 294.35 L577.74 291.68 L574.96 292.82 L573.41 290.59 L571.28 289.96 L567.47 294.46 L564.62 296.28 L562.22 296.83 L559.84 297.38 L557.79 296.87 L556.40 293.95 L555.79 287.88 L553.76 286.92 L551.45 287.13 L550.00 283.70 L547.66 284.00 L544.42 288.65 L543.09 284.29 L541.25 282.19 L538.52 284.87 L536.65 282.79 L534.43 282.72 L531.61 286.77 L529.01 289.85 L526.60 291.95 L524.45 292.24 L522.30 292.73 L520.12 293.64 L518.74 285.52 L516.70 283.98 L514.46 285.02 L512.52 281.23 L510.35 280.70 L507.97 285.62 L505.88 283.63 L503.76 280.92 L501.55 284.00 L499.38 282.88 L497.21 282.55 L495.12 286.52 L493.12 290.55 L491.08 291.94 L489.07 293.36 L487.02 293.68 L485.00 294.35 L482.49 289.05 L480.08 286.03 L478.24 289.13 L475.98 288.06 L473.77 287.52 L472.40 293.44 L470.32 293.64 L467.53 289.20 L465.72 291.36 L463.63 291.69 L461.23 290.30 L459.90 294.62 L458.93 300.29 L457.47 303.20 L455.77 304.82 L453.76 305.00 L451.85 305.65 L448.40 300.29 L445.21 296.37 L444.04 300.01 L441.38 298.29 L439.38 298.93 L438.83 304.23 L437.79 307.68 L433.83 302.19 L431.62 302.19 L430.55 305.43 L427.52 303.17 L426.84 307.29 L427.67 315.08 L426.96 318.61 L425.70 320.70 L424.08 321.84 L422.54 323.16 L418.88 319.73 L414.05 313.99 L413.12 316.81 L410.85 316.78 L408.43 316.49 L408.88 321.88 L409.94 328.20 L404.46 322.10 L401.84 321.53 L401.34 324.78 L397.63 322.37 L395.28 322.42 L396.61 328.63 L396.56 332.34 L395.00 333.57 L393.36 334.67 L391.57 335.52 L389.29 335.66 L385.03 332.97 L383.09 333.73 L381.16 334.54 L378.35 334.15 L377.29 336.16 L377.19 339.40 L373.65 338.14 L371.71 339.00 L371.94 342.56 L370.07 343.48 L368.86 345.20 L370.31 349.98 L370.79 353.52 L369.96 355.51 L368.59 356.89 L367.48 358.55 L366.26 360.09 L359.79 356.22 L356.88 356.15 L357.82 359.92 L354.95 359.92 L353.85 361.66 L357.15 367.47 L353.83 367.08 L349.73 366.07 L350.25 369.19 L347.65 369.59 L346.04 370.86 L347.73 374.85 L350.01 379.22 L350.29 381.88 L349.65 383.80 L349.52 386.09 L348.83 387.92 L343.03 386.04 L339.68 386.03 L339.67 388.43 L335.91 388.23 L333.79 389.20 L335.71 392.84 L334.91 394.66 L330.60 394.27 L331.33 397.06 L330.34 398.77 L328.48 399.97 L330.04 403.14 L331.99 406.47 L332.63 409.01 L331.25 410.43 L330.49 412.19 L330.04 414.10 L325.63 414.05 L323.02 414.95 L324.01 417.58 L321.73 418.68 L320.73 420.38 L323.71 423.81 L322.99 425.59 L319.68 426.31 L319.65 428.39 L320.35 430.74 L318.28 432.02 L320.62 434.94 L324.57 438.34 L326.56 440.99 L327.39 443.19 L327.90 445.26 L328.80 447.42 L323.10 447.60 L317.32 447.87 L318.95 450.29 L314.99 451.19 L312.38 452.50 L314.31 454.96 L316.88 457.52 L313.19 458.62 L311.53 460.23 L313.24 462.54 L311.49 464.14 L313.35 466.43 L317.92 469.13 L319.67 471.27 L320.92 473.31 L321.64 475.24 L322.44 477.15 L318.32 478.47 L312.49 479.68 L313.70 481.69 L312.02 483.42 L310.13 485.17 L312.53 487.24 L317.17 489.39 L311.87 490.97 L310.54 492.80 L313.65 494.79 L311.96 496.62 L312.57 498.51 L318.65 500.37 L322.20 502.14 L323.30 503.89 L324.14 505.64 L324.36 507.39 L321.89 509.28 L316.40 511.40 L315.28 513.33 L316.65 515.08 L314.71 517.10 L316.97 518.74 L323.51 519.86 L318.74 522.23 L316.73 524.34 L320.62 525.65 L318.21 527.85 L318.31 529.70 L324.09 530.56 L328.30 531.61 L330.36 532.98 L331.09 534.60 L331.41 536.29 L331.91 537.95 L323.62 541.68 L322.32 543.86 L326.02 544.80 L323.33 547.38 L324.96 548.83 L331.83 548.73 L329.93 551.13 L326.37 554.10 L329.97 554.85 L328.99 557.06 L329.52 558.78 L335.92 558.42 L341.94 558.06 L345.06 558.68 L346.56 559.87 L347.14 561.41 L348.18 562.77 L340.68 567.74 L337.81 570.88 L341.69 571.09 L339.66 573.93 L339.79 575.82 L347.04 574.27 L347.38 576.00 L343.16 580.07 L345.89 580.63 L347.21 581.89 L345.69 584.71 L349.62 584.52 L356.36 582.63 L358.96 583.02 L359.59 584.56 L360.34 586.02 L361.99 586.92 L357.88 591.50 L354.88 595.50 L357.51 595.83 L355.58 599.23 L355.20 601.64 L358.65 601.34 L361.03 601.76 L359.56 605.01 L360.29 606.66 L362.06 607.51 L361.55 610.14 L364.29 610.20 L368.48 609.00 L370.98 609.12 L373.19 609.45 L375.06 610.03 L376.71 610.78 L375.20 614.42 L373.61 618.23 L375.44 618.87 L376.67 620.08 L377.60 621.58 L380.19 621.41 L384.01 619.91 L382.56 623.87 L382.07 626.90 L384.41 626.91 L384.62 629.25 L386.90 629.28 L391.25 626.84 L393.71 626.51 L395.89 626.46 L397.09 627.58 L398.17 628.86 L398.07 631.67 L396.69 636.25 L397.86 637.54 L398.84 639.11 L398.77 642.17 L402.13 640.40 L405.93 637.87 L404.69 642.72 L406.08 643.74 L409.80 641.11 L410.74 642.76 L412.41 643.26 L416.92 638.99 L419.90 637.10 L421.50 637.50 L423.00 638.06 L423.84 639.82 L425.01 641.01 L426.46 641.68 L427.99 642.20 L429.05 643.65 L431.01 643.27 L432.74 643.33 L434.80 642.64 L436.01 643.76 L437.60 644.07 L439.73 643.05 L440.70 644.78 L441.98 645.79 L443.98 644.96 L445.15 646.26 L447.03 645.66 L448.93 644.94 L450.51 645.07 L452.38 644.28 L451.23 652.92 L452.29 654.93 L454.45 653.33 L454.88 657.65 L456.68 657.28 L459.62 652.54 L461.73 650.67 L463.48 650.04 L464.88 650.82 L466.25 651.83 L467.68 652.54 L469.21 652.89 L470.55 654.16 L471.30 658.86 L472.70 660.25 L474.52 659.13 L475.91 660.75 L476.93 665.22 L478.77 664.00 L480.92 659.90 L482.33 661.86 L484.01 661.37 L486.04 656.87 L487.96 652.52 L489.62 650.67 L491.19 649.69 L492.70 649.61 L494.23 648.71 L495.78 646.86 L497.24 647.24 L498.65 654.06 L500.19 655.25 L501.71 652.20 L503.28 654.42 L504.98 659.47 L506.62 660.43 L507.88 653.64 L509.48 654.56 L511.10 655.53 L512.21 649.94 L513.24 644.66 L514.42 641.96 L515.74 640.89 L517.14 640.65 L518.39 639.29 L519.53 637.38 L520.74 636.12 L523.47 644.30 L525.52 647.55 L526.22 643.11 L528.32 646.29 L530.91 651.50 L532.77 652.82 L533.16 647.43 L534.71 647.42 L536.85 649.77 L537.01 644.21 L537.07 638.65 L537.49 634.81 L537.99 631.50 L539.00 630.09 L539.91 628.44 L540.57 626.12 L541.20 623.82 L542.72 624.22 L544.01 623.92 L545.32 623.68 L546.88 624.08 L548.33 624.15 L549.38 623.18 L550.49 622.40 L551.60 621.64 L552.56 620.53 L553.72 619.90 L554.66 618.80 L555.47 617.45 L556.31 616.20 L556.93 614.55 L557.55 612.95 L558.31 611.67 L558.77 609.85 L559.52 608.62 L560.48 607.81 L561.23 606.63 L562.11 605.71 L563.05 604.89 L564.03 604.14 L564.91 603.24 L565.83 602.42 L566.70 601.52 L567.52 600.58 L568.26 599.52 L568.97 598.42 L569.63 597.28 L570.27 596.13 L570.86 594.92 L571.50 593.82 L572.09 592.65 L572.70 591.53 L573.43 590.57 L574.06 589.51 L574.83 588.61 L575.59 587.73 L576.26 586.74 L576.97 585.79 L577.70 584.88 L578.36 583.90 L578.98 582.89 L579.64 581.92 L580.24 580.91 L580.80 579.86 L581.35 578.81 L581.91 577.78 L582.45 576.74 L582.98 575.70 L583.54 574.70 L584.11 573.70 L584.67 572.71 L585.24 571.73 L585.80 570.75 L586.35 569.76 L586.91 568.80 L587.44 567.80 L587.95 566.80 L588.45 565.79 L588.93 564.78 L589.39 563.75 L589.83 562.73 L590.27 561.70 L590.69 560.66 L591.10 559.63 L591.51 558.59 L591.91 557.57 L592.32 556.55 L592.74 555.54 L593.15 554.52 L593.57 553.52 L593.96 552.50 L594.35 551.49 L594.71 550.46 L595.05 549.43 L595.38 548.40 L595.63 547.33 L595.90 546.27 L596.15 545.21 L596.37 544.14 L596.60 543.09 L596.84 542.04 L597.09 541.00 L597.32 539.95 L597.54 538.91 L597.76 537.87 L597.96 536.82 L598.15 535.78 L598.33 534.73 L598.50 533.69 L598.65 532.64 L598.80 531.60 L598.93 530.56 L599.06 529.51 L599.17 528.47 L599.27 527.43 L599.36 526.39 L599.44 525.35 L599.51 524.31 L599.57 523.27 L599.62 522.23 L599.66 521.19 L599.68 520.16 L599.70 519.13 L599.70 518.10 L599.70 517.07 L599.68 516.04 L599.66 515.02 L599.62 513.99 L599.57 512.97 L599.51 511.95 L599.45 510.94 L599.37 509.93 L599.28 508.91 L599.18 507.91 L599.07 506.90 L598.96 505.90 L598.83 504.90 L598.69 503.91 L598.54 502.91 L598.38 501.92 L598.22 500.94 Z"/>
  <svg class="pausebutton" id="pausebutton">
    <circle cx="500" cy="500" id="pausestart" class="pausestart" r="52.65"/>
    <rect height="50.02" width="10.00" y="473.68" rx="2.00" ry="2.00" x="479.99" class="pausesymbol"/>
    <rect height="50.02" width="10.00" y="473.68" rx="2.00" ry="2.00" x="510.00" class="pausesymbol"/>
    <polygon points="530.01,500 479.99,530.01 479.99,469.99" class="playsymbol"/>
  </svg>
  <polygon id="playback-head" class="playback-head" points="941.65,500 921.65,540 961.65,540"/>
</svg>