<?xml-stylesheet href="../../style/waveformjs.css" type="text/css"?>
<svg xmlns="http://www.w3.org/2000/svg" xmlns:xlink="http://www.w3.org/1999/xlink" width="100%" height="100%" viewBox="0 0 1000 1000">
  <path class="svg-wave" id="sp" d="M597.99 500.00 L598.15 500.98 L598.29 501.97 L598.40 502.95 L598.51 503.94 L598.60 504.93 L598.68 505.93 L598.73 506.92 L598.77 507.92 L598.78 508.91 L598.77 509.91 L598.73 510.90 L598.67 511.90 L598.55 512.88 L598.41 513.87 L598.22 514.85 L597.95 515.81 L597.61 516.75 L597.19 517.69 L596.57 518.57 L595.86 519.43 L594.95 520.24 L593.92 521.00 L593.02 521.78 L591.54 522.40 L589.79 522.93 L588.79 523.62 L587.58 524.24 L587.25 525.09 L588.14 526.30 L585.30 526.39 L583.31 526.69 L587.62 529.04 L584.68 529.01 L583.47 529.53 L587.09 531.79 L585.74 532.27 L585.99 533.35 L587.07 534.78 L585.88 535.30 L585.00 535.94 L586.30 537.51 L585.06 537.99 L581.89 537.55 L580.53 537.91 L582.97 540.08 L581.44 540.35 L581.11 541.20 L583.40 543.42 L582.52 544.02 L583.41 545.57 L583.31 546.60 L581.07 546.42 L580.80 547.34 L582.36 549.37 L579.89 548.98 L579.62 549.92 L580.10 551.34 L578.01 551.11 L577.24 551.72 L576.33 552.22 L574.50 552.07 L573.93 552.78 L574.79 554.53 L574.89 555.76 L574.19 556.40 L577.75 560.34 L577.63 561.50 L576.32 561.72 L576.91 563.48 L576.42 564.37 L575.63 565.01 L575.45 566.18 L575.28 567.37 L573.92 567.50 L573.95 568.89 L574.40 570.72 L573.27 571.05 L573.21 572.43 L571.84 572.51 L569.68 571.75 L569.62 573.13 L568.58 573.50 L566.80 573.04 L567.45 575.25 L568.41 577.88 L566.26 576.97 L564.65 576.63 L564.62 578.17 L562.00 576.55 L560.12 575.76 L561.06 578.55 L560.17 579.02 L559.01 579.12 L561.19 583.78 L560.25 584.25 L559.27 584.66 L559.34 586.59 L558.20 586.77 L557.26 587.25 L556.42 587.86 L555.44 588.28 L554.24 588.31 L553.80 589.59 L553.12 590.49 L551.89 590.46 L551.56 592.00 L549.99 591.33 L548.20 590.19 L547.37 590.81 L547.59 593.51 L546.52 593.72 L545.74 594.50 L546.54 598.66 L544.85 597.59 L543.93 598.15 L543.04 598.80 L541.03 596.83 L540.11 597.35 L539.86 599.56 L538.69 599.51 L537.29 598.84 L536.78 600.52 L535.57 600.31 L534.06 599.19 L532.76 598.59 L531.33 597.54 L530.32 597.75 L529.64 599.05 L529.31 601.61 L528.61 603.05 L528.06 605.14 L527.51 607.36 L526.37 607.37 L525.34 607.83 L524.13 607.48 L522.49 605.10 L521.18 604.08 L520.75 607.42 L519.09 604.42 L518.38 606.55 L517.87 610.16 L516.41 607.96 L515.55 609.75 L514.55 610.57 L513.34 609.91 L512.12 608.98 L511.08 609.58 L510.09 610.86 L509.12 612.66 L508.06 613.60 L506.95 614.19 L505.83 614.66 L504.68 614.71 L503.47 612.72 L502.31 610.95 L501.22 612.72 L500.09 611.88 L498.98 610.33 L497.81 614.29 L496.66 614.44 L495.52 614.14 L494.37 614.27 L493.28 613.37 L492.19 612.62 L491.06 612.66 L489.84 613.55 L488.90 611.53 L487.58 613.27 L486.19 615.26 L485.27 613.36 L483.77 615.86 L482.51 616.33 L481.61 614.52 L480.52 614.01 L479.25 614.55 L478.23 613.66 L477.26 612.64 L475.74 614.24 L475.00 612.24 L474.10 611.00 L472.07 614.52 L471.20 613.18 L470.27 612.13 L467.89 616.40 L466.44 617.05 L465.74 615.15 L464.39 615.43 L463.06 615.62 L462.54 613.33 L461.61 612.38 L460.58 611.71 L459.95 609.98 L459.15 608.79 L457.10 610.87 L455.95 610.55 L454.39 611.20 L452.71 612.11 L451.73 611.31 L450.33 611.46 L449.04 611.36 L449.33 607.84 L448.74 606.32 L445.95 609.31 L445.72 607.06 L445.51 604.88 L442.02 608.90 L441.65 607.00 L440.99 605.70 L440.27 604.51 L440.25 602.16 L439.00 601.95 L437.09 602.80 L436.26 601.85 L434.82 601.87 L431.53 604.68 L430.72 603.64 L430.36 601.97 L429.40 601.18 L429.29 599.21 L428.38 598.39 L426.15 599.35 L424.52 599.45 L423.57 598.64 L420.85 600.07 L419.13 600.17 L419.03 598.27 L418.13 597.36 L417.84 595.74 L417.49 594.23 L415.75 594.29 L414.47 593.83 L413.56 592.94 L411.33 593.44 L408.68 594.33 L408.15 593.00 L407.27 592.02 L406.15 591.29 L406.46 589.19 L405.63 588.20 L404.81 587.19 L403.96 586.22 L402.25 586.01 L400.11 586.14 L398.92 585.41 L398.49 584.05 L396.70 583.81 L396.00 582.66 L396.05 580.94 L394.08 580.78 L393.93 579.24 L394.66 577.06 L393.70 576.14 L393.37 574.78 L394.30 572.56 L393.01 571.88 L391.54 571.31 L391.47 569.81 L391.06 568.54 L389.63 567.91 L389.23 566.64 L387.70 566.04 L386.28 565.35 L385.25 564.43 L383.41 563.93 L381.38 563.52 L382.82 561.24 L383.08 559.63 L380.72 559.34 L381.07 557.68 L380.89 556.31 L379.10 555.68 L379.72 553.94 L378.17 553.18 L377.68 551.94 L378.70 550.09 L378.00 548.95 L375.99 548.32 L374.70 547.39 L374.60 546.00 L372.35 545.38 L371.57 544.22 L372.12 542.60 L372.13 541.18 L371.94 539.84 L372.58 538.25 L371.59 537.15 L368.76 536.55 L368.79 535.13 L367.22 534.13 L364.86 533.30 L364.93 531.85 L363.11 530.84 L364.01 529.21 L366.16 527.35 L365.37 526.12 L363.60 525.05 L364.61 523.46 L363.64 522.23 L360.36 521.33 L361.98 519.67 L362.14 518.25 L363.29 516.71 L364.64 515.17 L364.78 513.79 L364.72 512.43 L364.13 511.11 L363.12 509.82 L359.70 508.65 L360.50 507.20 L360.71 505.80 L358.48 504.47 L358.67 503.05 L360.17 501.62 L359.13 500.22 L357.00 498.80 L359.35 497.41 L357.66 495.96 L355.72 494.46 L357.43 493.09 L355.44 491.55 L356.85 490.19 L359.24 488.94 L358.99 487.50 L357.55 485.94 L359.28 484.68 L357.65 483.07 L354.15 481.17 L355.80 479.91 L356.31 478.52 L355.31 476.89 L357.54 475.78 L359.00 474.57 L356.83 472.70 L356.48 471.14 L357.87 469.94 L356.26 468.10 L356.96 466.75 L357.83 465.45 L358.38 464.08 L360.19 463.05 L360.61 461.66 L360.25 460.05 L360.19 458.52 L361.38 457.36 L361.05 455.74 L360.18 453.91 L361.82 452.92 L361.94 451.41 L362.22 449.95 L364.01 449.06 L364.20 447.58 L363.52 445.74 L364.68 444.63 L364.08 442.79 L362.55 440.52 L363.38 439.25 L363.08 437.47 L362.96 435.75 L365.31 435.20 L365.55 433.66 L364.30 431.34 L365.71 430.36 L366.24 428.93 L364.28 426.13 L366.99 425.88 L367.61 424.48 L368.09 422.99 L370.09 422.41 L371.55 421.53 L370.32 418.99 L371.41 417.87 L372.35 416.66 L369.88 413.17 L371.58 412.44 L373.36 411.79 L372.85 409.53 L374.22 408.60 L376.58 408.41 L376.97 406.78 L376.55 404.51 L378.37 403.95 L379.24 402.66 L378.07 399.69 L379.65 398.96 L380.07 397.24 L380.59 395.60 L382.56 395.24 L383.85 394.29 L383.74 392.04 L385.54 391.56 L386.40 390.20 L386.54 388.11 L388.73 388.06 L389.92 387.01 L390.22 385.05 L391.66 384.26 L392.81 383.17 L392.28 380.20 L393.48 379.14 L395.06 378.50 L395.22 376.20 L397.02 375.83 L398.28 374.82 L398.86 372.96 L400.68 372.66 L401.78 371.43 L402.42 369.59 L403.67 368.55 L405.50 368.30 L406.35 366.69 L407.23 365.09 L408.92 364.67 L409.56 362.68 L411.21 362.20 L412.81 361.66 L414.23 360.85 L414.90 358.79 L416.40 358.10 L417.47 356.66 L417.83 353.92 L419.76 353.96 L421.13 352.99 L422.05 351.13 L424.26 351.77 L425.85 351.23 L426.72 349.21 L428.02 348.04 L429.93 348.17 L430.97 346.42 L432.34 345.33 L434.13 345.22 L435.47 344.08 L436.96 343.26 L438.61 342.85 L440.16 342.17 L441.52 340.97 L443.18 340.57 L444.68 339.75 L445.88 337.99 L447.51 337.46 L448.95 336.35 L450.67 336.14 L452.45 336.10 L453.92 335.02 L455.66 334.91 L457.21 334.08 L458.65 332.76 L459.96 330.83 L461.72 330.74 L463.54 330.90 L465.01 329.49 L466.94 330.31 L468.73 330.46 L470.28 329.30 L471.98 328.98 L473.63 328.30 L475.27 327.50 L476.99 327.21 L478.77 327.39 L480.43 326.61 L482.22 326.91 L483.99 327.16 L485.62 325.88 L487.42 326.51 L489.18 326.84 L490.81 324.73 L492.58 325.01 L494.35 325.60 L496.07 324.48 L497.81 323.56 L499.58 324.47 L501.34 324.52 L503.11 323.35 L504.85 324.28 L506.62 323.97 L508.42 323.22 L510.18 323.43 L511.90 324.21 L513.73 323.39 L515.47 323.84 L517.16 324.77 L519.04 323.76 L520.82 323.80 L522.69 323.19 L524.55 322.72 L526.27 323.34 L528.00 323.82 L529.80 323.90 L531.53 324.33 L533.12 325.54 L535.10 324.72 L536.95 324.58 L538.41 326.27 L540.48 325.25 L542.39 324.96 L544.11 325.52 L545.94 325.64 L547.88 325.39 L549.30 327.02 L551.05 327.41 L553.18 326.63 L554.45 328.61 L556.39 328.46 L558.89 326.73 L560.52 327.60 L562.54 327.39 L564.10 328.47 L565.53 329.86 L566.87 331.41 L568.65 331.84 L570.45 332.25 L572.23 332.73 L574.61 331.85 L575.73 333.83 L577.20 334.99 L579.10 335.25 L580.37 336.80 L581.74 338.13 L584.49 336.77 L586.32 337.24 L587.71 338.52 L590.60 337.12 L592.42 337.69 L593.47 339.59 L595.34 340.08 L597.02 340.90 L598.23 342.49 L599.85 343.39 L601.59 344.13 L602.76 345.73 L603.88 347.38 L606.33 347.09 L607.74 348.32 L609.78 348.68 L611.43 349.59 L611.86 352.12 L613.73 352.73 L615.57 353.41 L616.51 355.22 L618.03 356.29 L620.78 355.91 L621.50 357.96 L622.11 360.10 L624.58 360.12 L625.19 362.23 L626.33 363.74 L628.79 363.85 L630.86 364.40 L632.44 365.48 L633.95 366.64 L635.38 367.89 L636.28 369.65 L637.69 370.91 L639.19 372.09 L639.71 374.16 L642.14 374.53 L643.56 375.81 L643.74 378.15 L645.68 378.99 L647.85 379.66 L647.79 382.15 L649.57 383.16 L651.78 383.85 L651.35 386.56 L651.78 388.59 L655.16 388.48 L654.95 390.96 L655.82 392.67 L659.84 392.24 L660.39 394.19 L661.34 395.86 L663.27 396.91 L662.77 399.49 L662.53 401.87 L664.95 402.65 L665.66 404.45 L666.92 405.93 L669.82 406.52 L669.46 408.92 L670.07 410.77 L672.47 411.70 L671.88 414.16 L671.59 416.44 L673.87 417.47 L675.44 418.86 L674.99 421.18 L677.57 422.15 L678.96 423.66 L678.95 425.78 L679.83 427.51 L680.95 429.15 L680.57 431.38 L681.25 433.18 L682.40 434.82 L681.86 437.06 L682.76 438.79 L685.53 439.92 L685.54 441.96 L686.99 443.55 L687.82 445.34 L686.14 447.85 L685.48 450.02 L687.77 451.42 L686.99 453.61 L687.05 455.57 L690.82 456.69 L690.46 458.77 L689.72 460.91 L691.54 462.53 L691.36 464.55 L690.86 466.61 L692.85 468.25 L694.18 470.02 L693.71 472.07 L695.80 473.77 L696.14 475.72 L695.04 477.83 L695.19 479.79 L695.22 481.76 L693.27 483.89 L693.90 485.78 L695.54 487.63 L694.04 489.67 L694.13 491.61 L696.77 493.47 L695.84 495.46 L697.62 497.39 L697.50 499.37 L696.20 501.34 L696.71 503.31 L697.83 505.31 L695.79 507.21 L693.89 509.08 L693.99 511.03 L691.38 512.81 L688.28 514.49 L688.17 516.38 L686.41 518.10 L685.33 519.87 L686.54 521.89 L689.14 524.12 L688.09 525.90 L690.80 528.22 L694.59 530.77 L694.01 532.67 L695.36 534.91 L694.48 536.76 L692.96 538.47 L692.32 540.35 L692.58 542.42 L691.36 544.16 L691.03 546.10 L691.40 548.22 L688.50 549.50 L687.29 551.19 L685.65 552.74 L682.90 553.95 L681.80 555.60 L682.64 557.86 L683.03 560.01 L682.49 561.86 L684.20 564.50 L683.77 566.42 L682.53 568.04 L682.66 570.18 L681.47 571.81 L680.36 573.47 L681.73 576.15 L681.47 578.19 L681.49 580.36 L681.09 582.36 L679.45 583.79 L678.23 585.40 L675.44 586.22 L672.11 586.74 L671.67 588.68 L671.18 590.61 L671.60 593.04 L672.79 595.93 L675.00 599.46 L676.39 602.60 L675.95 604.71 L675.58 606.88 L674.64 608.72 L671.22 608.98 L670.09 610.66 L671.04 613.73 L667.53 613.83 L666.80 615.79 L667.21 618.57 L663.59 618.48 L660.88 618.98 L659.56 620.50 L655.63 619.99 L653.27 620.64 L653.56 623.37 L654.67 626.83 L653.68 628.61 L654.93 632.31 L656.36 636.26 L654.03 636.97 L654.21 639.91 L652.29 640.97 L650.16 641.82 L650.16 644.68 L648.95 646.41 L646.50 646.91 L645.35 648.71 L643.63 649.92 L641.26 650.43 L638.15 650.10 L635.82 650.56 L633.24 650.70 L630.69 650.83 L630.98 654.26 L630.30 656.60 L629.44 658.77 L632.57 665.98 L631.03 667.45 L629.56 669.02 L627.81 670.24 L625.56 670.77 L622.73 670.47 L621.83 672.84 L620.16 674.15 L617.92 674.61 L618.04 678.61 L614.99 677.83 L610.78 675.14 L608.60 675.56 L605.98 675.21 L602.81 673.87 L601.57 675.77 L602.88 682.22 L600.60 682.42 L600.27 686.20 L600.86 691.86 L598.33 691.67 L596.73 693.30 L594.95 694.58 L592.20 693.84 L590.52 695.33 L589.04 697.28 L586.26 696.32 L583.85 696.14 L582.33 698.06 L579.15 695.91 L576.70 695.43 L574.58 695.77 L571.67 693.93 L569.77 694.78 L568.25 696.71 L567.42 700.78 L565.71 702.37 L565.04 707.33 L563.83 710.82 L561.91 712.12 L560.19 714.15 L557.34 712.15 L555.16 712.50 L553.39 714.47 L551.02 714.06 L549.04 715.26 L547.04 716.49 L544.46 714.94 L541.86 713.07 L539.21 710.70 L536.69 708.74 L534.30 707.27 L532.23 707.65 L530.68 711.62 L528.56 711.87 L526.72 714.40 L525.41 721.99 L523.05 720.87 L520.85 721.25 L518.81 723.43 L516.37 720.84 L514.12 720.39 L512.09 723.81 L509.71 720.69 L507.46 719.56 L505.33 722.22 L503.08 720.54 L500.87 718.36 L498.70 716.60 L496.55 715.29 L494.47 712.65 L492.31 713.32 L490.04 716.19 L487.80 717.60 L485.32 722.04 L482.88 724.73 L480.52 725.92 L478.12 727.22 L476.00 725.54 L473.92 723.78 L471.53 724.71 L469.21 724.94 L467.31 722.28 L464.89 723.24 L462.58 723.29 L460.83 720.24 L459.09 717.39 L457.29 715.09 L455.58 712.57 L453.77 710.65 L450.98 713.17 L448.34 714.79 L445.97 715.17 L441.98 721.64 L439.66 721.44 L437.57 720.41 L435.32 719.93 L433.05 719.51 L431.15 717.93 L428.75 717.92 L426.23 718.20 L424.08 717.38 L421.77 716.99 L419.98 715.19 L418.95 711.47 L417.89 707.99 L416.35 705.83 L415.13 702.98 L413.27 701.74 L409.50 704.85 L407.51 703.81 L403.72 706.65 L399.68 709.81 L398.15 707.65 L395.16 708.45 L393.17 707.21 L391.86 704.69 L389.51 704.17 L387.42 703.16 L386.03 700.91 L383.74 700.25 L381.65 699.23 L381.40 695.18 L379.76 693.49 L378.61 691.05 L378.98 686.33 L376.58 685.93 L373.66 686.27 L369.75 687.95 L367.56 687.08 L362.51 690.16 L358.80 691.24 L356.87 689.84 L354.20 689.42 L353.11 686.93 L352.20 684.27 L349.74 683.54 L348.30 681.57 L348.09 678.16 L345.68 677.37 L344.73 674.90 L345.26 670.82 L344.14 668.65 L342.14 667.42 L342.74 663.48 L341.47 661.53 L337.17 662.63 L335.30 661.23 L332.47 660.76 L326.42 663.26 L325.42 660.95 L322.95 659.98 L319.67 659.69 L318.94 657.14 L317.65 655.09 L315.87 653.45 L314.29 651.65 L314.18 648.66 L311.70 647.59 L311.51 644.72 L312.89 640.70 L311.80 638.60 L311.92 635.63 L311.83 632.86 L309.19 631.88 L303.72 632.79 L302.10 631.01 L297.61 631.09 L293.13 631.08 L292.41 628.65 L290.13 627.17 L289.70 624.57 L289.61 621.80 L287.11 620.42 L285.39 618.58 L286.47 615.21 L285.42 613.02 L284.64 610.69 L286.21 607.20 L287.77 603.77 L287.95 601.07 L288.58 598.19 L288.80 595.53 L286.01 594.23 L282.45 593.20 L279.22 591.99 L273.57 591.70 L271.60 589.84 L269.09 588.18 L270.44 585.04 L272.00 581.88 L272.57 579.12 L270.83 577.16 L269.18 575.16 L268.54 572.81 L265.48 571.21 L266.88 568.24 L267.44 565.56 L266.58 563.29 L269.05 560.15 L269.11 557.67 L266.53 555.84 L261.92 554.43 L263.14 551.67 L261.38 549.56 L255.50 548.24 L257.09 545.40 L257.06 542.90 L256.26 540.53 L257.62 537.82 L257.75 535.32 L255.84 533.11 L257.52 530.41 L257.44 527.96 L255.18 525.75 L254.56 523.33 L257.48 520.61 L258.40 518.10 L257.05 515.76 L259.50 513.19 L258.62 510.82 L257.06 508.45 L256.35 506.04 L249.65 503.70 L249.83 501.20 L248.92 498.69 L246.69 496.14 L249.91 493.69 L250.76 491.22 L251.24 488.74 L251.08 486.24 L252.62 483.84 L253.43 481.42 L252.26 478.84 L253.64 476.47 L255.49 474.18 L255.70 471.73 L256.47 469.34 L256.71 466.90 L255.09 464.18 L255.97 461.81 L255.68 459.26 L253.91 456.43 L255.82 454.25 L257.03 451.95 L257.77 449.58 L258.00 447.10 L258.66 444.71 L258.10 442.03 L256.50 439.06 L258.05 436.87 L258.94 434.52 L259.91 432.20 L260.12 429.66 L262.70 427.83 L264.41 425.77 L265.16 423.42 L266.39 421.23 L265.40 418.27 L266.33 415.97 L263.94 412.43 L262.42 409.16 L263.26 406.75 L260.96 403.07 L262.82 401.06 L265.71 399.50 L266.71 397.15 L267.13 394.55 L270.13 393.12 L270.02 390.26 L269.16 387.00 L272.76 385.93 L275.01 384.23 L276.14 381.97 L279.20 380.74 L282.33 379.60 L281.14 376.07 L279.92 372.46 L281.33 370.34 L276.86 364.66 L278.21 362.42 L279.94 360.43 L279.66 357.14 L283.56 356.57 L286.71 355.57 L286.20 352.09 L288.20 350.32 L290.99 349.13 L291.80 346.52 L293.35 344.45 L296.26 343.43 L297.72 341.31 L300.77 340.46 L303.28 339.21 L304.01 336.51 L303.90 333.07 L305.80 331.30 L305.38 327.50 L302.42 321.32 L305.17 320.23 L306.56 317.90 L307.61 315.22 L312.13 315.91 L315.09 315.16 L316.40 312.76 L318.64 311.30 L320.66 309.64 L320.49 305.59 L323.55 305.02 L327.12 305.10 L329.20 303.51 L333.29 304.30 L335.90 303.42 L336.53 300.13 L337.18 296.82 L338.56 294.36 L337.31 288.45 L338.27 285.29 L340.54 283.84 L342.07 281.37 L344.64 280.34 L348.10 280.60 L350.11 278.81 L351.82 276.56 L355.93 277.97 L357.72 275.85 L359.10 273.04 L363.59 275.29 L365.77 273.81 L368.00 272.41 L371.97 274.07 L374.20 272.75 L375.81 270.26 L377.79 268.41 L380.03 267.04 L379.53 260.22 L381.54 258.23 L383.65 256.39 L384.79 252.44 L388.27 253.50 L390.70 252.31 L392.99 250.77 L395.52 249.80 L398.18 249.15 L400.33 247.23 L402.68 245.76 L406.64 248.60 L409.33 248.14 L412.36 248.70 L415.57 249.91 L417.98 248.78 L419.14 243.69 L421.55 242.36 L423.37 239.01 L424.58 233.26 L427.70 234.19 L429.53 230.30 L432.52 230.78 L435.81 232.58 L438.33 231.28 L441.09 230.95 L444.26 232.68 L447.01 232.52 L449.66 231.87 L452.78 233.84 L455.67 234.72 L458.14 233.12 L461.13 234.86 L463.91 235.44 L466.14 231.81 L468.79 231.15 L471.40 230.12 L473.71 225.73 L476.28 223.50 L479.07 223.57 L481.77 222.36 L484.64 223.87 L487.51 226.14 L490.28 226.75 L493.00 226.19 L495.75 226.91 L498.47 225.30 L501.22 224.55 L503.96 225.65 L506.71 225.19 L509.36 228.21 L512.05 229.02 L514.77 228.94 L517.63 226.75 L520.36 226.90 L523.20 225.85 L526.51 220.06 L529.20 221.41 L532.06 221.02 L535.08 219.51 L537.82 220.33 L540.35 222.59 L543.41 221.16 L546.22 221.42 L549.04 221.69 L551.80 222.31 L554.11 225.19 L556.47 227.60 L559.22 228.05 L561.38 231.13 L563.97 232.12 L566.89 231.82 L569.79 231.65 L572.12 233.65 L576.28 229.06 L579.42 228.33 L581.68 230.65 L585.79 226.95 L588.26 228.60 L590.02 232.34 L593.26 231.60 L595.62 233.46 L597.39 236.83 L600.57 236.37 L604.06 235.20 L605.75 238.61 L607.54 241.64 L610.37 242.14 L611.88 245.68 L613.72 248.34 L618.07 245.54 L621.37 245.12 L624.18 245.80 L630.83 238.85 L632.24 242.50 L634.36 244.68 L639.00 242.17 L639.59 247.15 L640.60 251.24 L644.90 249.51 L646.48 252.52 L647.16 256.95 L650.41 257.10 L652.90 258.50 L654.04 261.99 L657.17 262.40 L659.00 264.78 L660.13 268.14 L662.31 269.95 L665.98 269.66 L667.87 271.88 L672.84 269.99 L677.42 268.75 L680.28 269.83 L683.74 270.18 L684.99 273.30 L686.14 276.49 L687.96 278.84 L690.59 280.24 L692.57 282.39 L695.00 284.04 L698.90 284.09 L697.66 289.70 L698.56 292.93 L700.98 294.56 L700.31 299.30 L702.19 301.43 L706.56 301.15 L710.50 301.38 L712.83 303.17 L719.04 301.45 L721.58 303.15 L721.87 306.83 L725.54 307.56 L725.84 311.17 L726.24 314.65 L729.98 315.40 L731.99 317.57 L730.95 322.10 L734.02 323.43 L736.32 325.38 L735.98 329.25 L736.55 332.42 L738.70 334.45 L738.67 337.98 L739.62 340.82 L743.61 341.65 L745.81 343.70 L747.97 345.79 L755.47 344.64 L756.93 347.26 L757.80 350.20 L760.15 352.30 L759.50 356.08 L759.50 359.46 L762.47 361.22 L763.41 364.08 L764.71 366.74 L769.19 367.84 L768.34 371.57 L766.96 375.50 L768.50 378.04 L767.85 381.55 L767.28 384.98 L768.51 387.62 L773.46 388.75 L774.75 391.41 L779.27 392.85 L784.02 394.27 L784.66 397.26 L787.30 399.54 L788.33 402.41 L788.62 405.52 L790.76 408.02 L791.91 410.86 L792.03 414.01 L793.13 416.86 L793.76 419.85 L795.22 422.61 L795.87 425.60 L796.33 428.62 L797.32 431.52 L799.47 434.17 L799.34 437.33 L799.67 440.38 L801.71 443.11 L801.99 446.18 L802.64 449.18 L803.60 452.13 L803.55 455.25 L804.62 458.20 L804.98 461.25 L804.25 464.43 L805.91 467.34 L805.81 470.44 L804.94 473.60 L806.08 476.58 L806.90 479.60 L805.72 482.75 L805.83 485.81 L807.17 488.82 L807.36 491.89 L807.15 494.97 L807.87 498.04 L807.73 501.12 L807.25 504.19 L807.40 507.27 L806.62 510.32 L806.14 513.37 L806.49 516.45 L806.30 519.52 L806.37 522.60 L806.78 525.72 L806.41 528.77 L806.31 531.86 L805.54 534.87 L804.98 537.90 L805.37 541.05 L805.51 544.18 L804.81 547.20 L805.89 550.50 L806.44 553.75 L806.31 556.89 L806.15 560.03 L805.97 563.18 L806.27 566.44 L804.97 569.36 L804.94 572.57 L804.75 575.75 L803.57 578.69 L802.92 581.76 L802.51 584.91 L801.88 587.99 L800.26 590.79 L800.32 594.10 L798.40 596.78 L798.80 600.22 L797.63 603.15 L795.62 605.78 L795.71 609.16 L793.63 611.74 L792.80 614.79 L791.69 617.73 L790.26 620.55 L789.28 623.54 L788.47 626.63 L786.88 629.36 L785.57 632.22 L785.00 635.44 L783.85 638.39 L783.24 641.61 L782.92 645.01 L781.36 647.78 L780.42 650.88 L779.50 654.01 L777.98 656.82 L776.26 659.51 L775.67 662.87 L774.85 666.11 L772.84 668.64 L772.20 672.03 L771.23 675.24 L768.80 677.50 L766.53 679.86 L765.31 682.93 L763.14 685.34 L760.83 687.64 L759.97 691.00 L757.16 692.92 L755.31 695.56 L754.06 698.66 L751.37 700.64 L748.67 702.59 L747.58 705.85 L745.62 708.41 L743.38 710.73 L741.44 713.32 L739.21 715.64 L737.89 718.80 L735.24 720.75 L733.03 723.10 L731.25 725.87 L728.29 727.49 L726.70 730.46 L724.57 732.91 L722.08 734.98 L721.37 738.98 L718.62 740.80 L716.53 743.34 L715.20 746.77 L711.85 747.88 L710.26 751.07 L707.74 753.16 L705.10 755.11 L703.17 757.94 L700.31 759.61 L697.43 761.23 L695.08 763.57 L692.10 765.05 L689.51 767.05 L687.02 769.21 L684.10 770.74 L681.56 772.83 L678.98 774.88 L675.43 775.40 L672.68 777.17 L669.91 778.91 L666.96 780.33 L664.27 782.20 L661.63 784.15 L659.30 786.70 L656.65 788.68 L654.17 791.03 L651.30 792.64 L648.36 794.13 L645.71 796.20 L642.88 797.94 L640.25 800.10 L636.93 800.81 L634.35 803.15 L631.37 804.62 L628.01 805.18 L625.50 807.79 L622.28 808.69 L618.96 809.31 L616.37 811.83 L613.01 812.34 L610.05 813.94 L606.88 814.94 L603.62 815.67 L600.60 817.14 L597.74 819.16 L594.47 819.87 L591.14 820.38 L588.36 822.81 L585.05 823.40 L581.77 824.07 L578.75 825.79 L575.41 826.21 L572.16 827.03 L568.99 828.23 L565.48 827.80 L562.35 829.22 L559.09 830.03 L555.56 829.27 L552.37 830.46 L549.23 832.09 L545.77 831.62 L542.41 831.69 L539.26 833.55 L535.96 834.23 L532.54 833.82 L529.26 834.88 L525.95 835.58 L522.58 835.67 L519.25 836.29 L515.85 835.79 L512.51 836.52 L509.14 836.42 L505.78 836.61 L502.42 837.50 L499.04 837.72 L495.65 838.72 L492.25 839.44 L488.84 839.82 L485.39 840.97 L481.98 840.82 L478.56 840.81 L475.21 839.82 L471.81 839.60 L468.41 839.27 L465.07 838.52 L461.75 837.51 L458.27 838.03 L454.87 837.74 L451.56 836.86 L448.04 837.32 L444.77 836.18 L441.25 836.52 L437.95 835.61 L434.49 835.51 L431.27 834.18 L427.77 834.23 L424.70 832.33 L421.33 831.75 L417.79 831.88 L414.91 829.34 L411.13 830.30 L407.64 830.09 L404.30 829.30 L400.70 829.35 L397.60 827.75 L393.92 827.95 L390.82 826.38 L387.67 824.93 L384.03 824.92 L381.02 823.10 L377.16 823.58 L373.88 822.45 L370.72 821.04 L366.99 821.00 L364.31 818.41 L360.87 817.64 L357.31 817.10 L354.51 814.87 L350.88 814.44 L347.54 813.34 L344.46 811.72 L341.24 810.36 L338.30 808.47 L334.84 807.53 L331.57 806.25 L328.82 804.01 L325.83 802.21 L322.14 801.60 L319.36 799.42 L316.75 796.99 L313.28 795.96 L310.51 793.80 L307.68 791.73 L304.90 789.62 L301.69 788.11 L299.16 785.63 L296.00 784.04 L292.43 783.00 L290.40 779.85 L287.44 777.97 L284.58 775.95 L281.14 774.65 L278.57 772.24 L275.74 770.16 L272.12 769.00 L269.74 766.36 L267.10 764.03 L264.19 762.00 L261.62 759.59 L259.16 757.06 L256.49 754.76 L253.88 752.39 L251.35 749.93 L248.71 747.58 L246.12 745.18 L243.65 742.66 L240.17 741.07 L238.52 737.78 L235.45 735.78 L232.72 733.46 L230.79 730.44 L227.44 728.63 L225.50 725.62 L223.63 722.56 L220.45 720.55 L219.02 717.16 L217.30 714.00 L214.15 711.93 L213.02 708.34 L211.85 704.83 L207.94 703.24 L205.96 700.28 L204.90 696.71 L202.37 694.14 L200.73 690.96 L198.94 687.90 L196.99 684.93 L195.54 681.66 L191.69 679.80 L189.36 677.02 L187.95 673.72 L185.13 671.19 L183.48 668.00 L182.16 664.65 L179.91 661.78 L178.22 658.61 L177.03 655.20 L175.55 651.94 L174.11 648.66 L172.37 645.51 L170.89 642.25 L169.57 638.91 L167.73 635.79 L165.24 632.92 L164.80 629.23 L163.15 626.01 L160.92 622.99 L159.96 619.50 L157.95 616.38 L157.06 612.87 L156.78 609.17 L154.75 606.03 L154.17 602.43 L153.86 598.77 L151.54 595.68 L150.99 592.08 L151.30 588.28 L149.01 585.13 L148.05 581.65 L148.33 577.89 L146.94 574.50 L145.41 571.13 L144.81 567.56 L143.43 564.13 L142.87 560.56 L142.59 556.93 L142.30 553.32 L141.83 549.73 L142.29 546.03 L142.29 542.39 L141.11 538.90 L140.46 535.33 L140.24 531.73 L139.42 528.17 L139.20 524.56 L138.74 520.96 L138.50 517.35 L139.06 513.71 L137.62 510.14 L136.93 506.52 L136.96 502.89 L135.08 499.26 L134.86 495.60 L133.99 491.93 L133.48 488.25 L132.81 484.56 L132.52 480.86 L133.44 477.23 L132.72 473.50 L132.81 469.81 L132.76 466.10 L133.22 462.44 L133.17 458.73 L133.34 455.03 L133.97 451.39 L134.26 447.70 L135.26 444.12 L133.88 440.15 L136.06 436.76 L136.36 433.06 L135.98 429.22 L138.46 425.95 L138.28 422.13 L138.86 418.47 L139.69 414.86 L140.98 411.37 L141.04 407.56 L142.06 404.00 L143.59 400.58 L143.62 396.73 L144.72 393.19 L145.24 389.47 L145.79 385.74 L146.93 382.20 L147.63 378.50 L148.73 374.94 L149.88 371.39 L151.18 367.89 L151.38 363.96 L152.40 360.34 L153.90 356.91 L154.13 352.94 L154.98 349.21 L157.71 346.31 L159.16 342.84 L160.03 339.10 L162.46 336.10 L163.60 332.48 L164.60 328.77 L167.72 326.15 L168.76 322.46 L169.65 318.65 L172.48 315.92 L174.06 312.50 L174.99 308.68 L177.29 305.66 L178.61 302.05 L180.73 298.93 L182.55 295.61 L183.86 291.95 L186.69 289.30 L187.69 285.40 L189.94 282.35 L192.87 279.79 L193.51 275.58 L195.94 272.65 L198.17 269.58 L199.44 265.75 L202.33 263.18 L204.02 259.65 L206.82 257.02 L209.62 254.40 L211.67 251.15 L214.89 248.91 L217.59 246.23 L219.87 243.17 L222.87 240.77 L225.99 238.51 L228.27 235.44 L230.39 232.20 L232.85 229.27 L235.59 226.64 L238.12 223.79 L240.46 220.70 L243.02 217.86 L246.07 215.55 L248.38 212.40 L250.76 209.30 L253.60 206.73 L256.09 203.73 L258.95 201.16 L261.97 198.78 L264.58 195.89 L267.20 192.97 L270.70 191.23 L273.68 188.79 L276.67 186.36 L279.58 183.79 L282.18 180.77 L285.78 179.19 L287.82 175.26 L291.13 173.25 L294.94 172.01 L298.07 169.72 L301.77 168.36 L305.36 166.86 L308.88 165.25 L312.57 163.95 L315.62 161.50 L318.98 159.60 L322.64 158.29 L326.02 156.44 L328.91 153.60 L333.00 153.20 L336.41 151.38 L339.34 148.53 L342.86 146.95 L346.04 144.56 L349.35 142.45 L352.97 141.06 L356.21 138.68 L359.72 136.99 L363.77 136.72 L366.75 133.55 L370.47 132.37 L374.76 132.88 L377.84 129.84 L381.42 128.22 L385.30 127.56 L388.89 125.99 L392.26 123.57 L396.04 122.54 L399.95 122.00 L403.42 119.81 L407.33 119.28 L411.27 118.92 L414.93 117.37 L418.96 117.45 L422.78 116.63 L426.70 116.30 L430.53 115.54 L434.40 114.99 L438.26 114.37 L441.95 112.69 L445.85 112.28 L449.62 110.86 L453.41 109.50 L457.23 108.32 L461.21 108.47 L465.12 108.08 L469.09 108.29 L473.07 108.89 L476.99 108.77 L480.93 109.31 L484.81 108.31 L488.75 108.80 L492.65 108.26 L496.56 107.02 L500.49 107.54 L504.42 106.79 L508.34 107.25 L512.29 106.74 L516.18 107.98 L520.14 107.30 L523.98 108.93 L528.02 107.29 L531.98 107.28 L535.74 109.34 L539.92 107.03 L543.83 107.64 L547.82 107.48 L551.90 106.84 L555.83 107.32 L559.92 106.83 L563.61 108.92 L567.67 108.72 L571.58 109.37 L575.20 111.60 L579.53 110.17 L583.42 111.00 L587.31 111.84 L591.50 111.40 L594.99 113.91 L599.10 113.90 L603.03 114.64 L606.69 116.35 L610.50 117.52 L614.33 118.60 L617.92 120.47 L621.61 121.98 L625.43 123.08 L629.25 124.16 L633.42 124.30 L637.08 125.91 L641.02 126.76 L645.16 127.12 L648.47 129.61 L652.17 131.12 L656.01 132.28 L659.47 134.34 L663.13 135.93 L666.48 138.18 L670.35 139.31 L674.08 140.77 L677.98 141.90 L682.37 142.08 L685.81 144.16 L689.67 145.46 L693.38 147.06 L697.54 147.87 L700.73 150.43 L704.90 151.29 L709.40 151.65 L712.27 154.74 L716.10 156.26 L720.12 157.52 L723.03 160.51 L725.65 163.89 L729.28 165.75 L732.77 167.83 L735.99 170.31 L739.35 172.58 L742.58 175.03 L746.40 176.70 L750.63 177.89 L753.51 180.83 L757.39 182.52 L760.98 184.59 L764.62 186.62 L768.04 188.93 L770.81 192.01 L774.12 194.46 L777.52 196.82 L780.32 199.84 L783.03 202.95 L787.06 204.69 L788.88 208.71 L791.55 211.84 L795.73 213.50 L798.06 216.96 L800.00 220.77 L802.74 223.81 L805.45 226.89 L809.78 228.55 L811.44 232.55 L813.95 235.80 L820.41 235.80 L823.36 238.75 L825.45 242.40 L829.84 244.25 L831.63 248.13 L833.11 252.21 L837.06 254.47 L839.13 258.12 L840.38 262.33 L843.36 265.32 L847.94 267.26 L849.12 271.49 L851.33 275.03 L854.66 277.86 L856.91 281.40 L858.21 285.49 L860.98 288.71 L863.37 292.16 L864.91 296.10 L867.51 299.44 L869.25 303.26 L871.73 306.68 L872.74 310.87 L873.97 314.92 L874.96 319.08 L876.61 322.90 L878.00 326.84 L880.81 330.15 L883.50 333.52 L885.28 337.31 L887.88 340.76 L890.67 344.16 L891.92 348.19 L893.40 352.12 L895.51 355.83 L897.16 359.71 L898.95 363.55 L899.68 367.75 L900.54 371.89 L902.38 375.72 L902.79 380.00 L903.88 384.06 L906.13 387.79 L905.94 392.20 L907.12 396.24 L908.37 400.26 L908.48 404.55 L909.47 408.63 L911.37 412.51 L912.14 416.64 L912.38 420.88 L913.68 424.91 L914.07 429.11 L914.87 433.24 L915.12 437.45 L915.57 441.63 L917.24 445.64 L916.55 449.96 L917.38 454.09 L918.96 458.15 L920.14 462.27 L920.78 466.45 L923.46 470.50 L927.45 474.51 L930.87 478.63 L933.75 482.83 L937.53 487.06 L939.98 491.39 L941.34 495.78 L941.67 500.00 L941.53 495.58 L942.48 491.15 L943.97 486.68 L946.32 482.14 L949.33 477.51 L951.14 472.90 L953.04 468.23 L955.62 463.47 L956.66 458.79 L957.05 454.14 L957.35 449.49 L957.22 444.87 L957.20 440.23 L955.81 435.77 L954.84 431.26 L953.80 426.77 L951.21 422.55 L951.13 417.91 L950.22 413.41 L947.53 409.28 L947.68 404.58 L947.12 400.02 L946.16 395.53 L944.16 391.31 L942.78 386.94 L942.68 382.24 L940.42 378.11 L938.14 374.01 L937.94 369.31 L935.81 365.19 L933.22 361.23 L932.25 356.76 L929.70 352.82 L927.59 348.75 L927.15 344.08 L925.46 339.85 L922.78 336.02 L920.86 331.90 L919.30 327.64 L915.72 324.24 L912.73 320.61 L910.72 316.58 L909.00 312.43 L907.62 308.10 L904.91 304.41 L902.44 300.61 L900.76 296.43 L898.02 292.79 L896.32 288.61 L893.31 285.13 L892.23 280.60 L890.49 276.42 L887.26 273.10 L883.64 270.03 L880.76 266.56 L879.20 262.26 L874.76 259.79 L873.56 255.25 L871.63 251.18 L866.81 249.05 L864.41 245.30 L862.44 241.25 L858.69 238.47 L855.85 235.05 L853.56 231.23 L850.86 227.70 L848.30 224.06 L845.03 220.99 L841.17 218.42 L841.23 212.59 L839.03 208.59 L834.67 206.47 L833.22 201.80 L829.48 199.16 L826.08 196.22 L822.54 193.44 L819.12 190.56 L816.21 187.18 L813.10 184.01 L808.51 182.34 L805.54 179.05 L802.44 175.87 L797.52 174.68 L794.66 171.27 L791.92 167.69 L787.75 165.76 L784.73 162.50 L781.74 159.19 L778.10 156.66 L774.83 153.67 L771.37 150.92 L767.06 149.28 L763.68 146.44 L759.18 145.12 L755.50 142.71 L751.40 140.92 L747.49 138.87 L743.97 136.25 L739.86 134.53 L736.46 131.74 L733.05 128.93 L729.28 126.70 L726.06 123.55 L722.09 121.65 L718.74 118.66 L715.17 116.05 L711.21 114.12 L707.48 111.75 L704.08 108.75 L700.22 106.62 L696.21 104.76 L692.45 102.40 L688.27 100.92 L684.19 99.22 L679.69 98.48 L674.93 98.39 L671.08 96.25 L666.98 94.70 L662.43 94.27 L658.42 92.51 L655.22 88.60 L650.84 87.80 L646.34 87.34 L642.94 83.76 L638.20 84.08 L634.17 82.30 L630.43 79.53 L625.61 80.30 L622.01 76.98 L617.91 75.26 L613.37 75.20 L609.33 73.26 L604.83 73.11 L600.31 73.13 L596.35 70.73 L591.64 71.72 L587.22 71.46 L582.85 71.07 L578.23 72.00 L573.88 71.63 L569.45 71.81 L565.31 70.18 L560.84 70.76 L556.63 69.50 L552.71 65.76 L548.11 67.52 L543.65 68.39 L539.51 66.08 L535.11 66.45 L530.70 67.10 L526.42 65.94 L522.14 64.49 L517.82 63.37 L513.38 65.79 L509.09 63.18 L504.70 64.60 L500.35 65.56 L495.99 63.89 L491.64 64.90 L487.29 65.01 L482.95 65.24 L478.62 65.73 L474.32 66.73 L469.96 66.61 L465.66 67.34 L461.27 66.94 L456.93 67.26 L452.65 68.09 L448.32 68.52 L444.09 69.69 L439.99 71.70 L435.56 71.33 L431.39 72.71 L427.19 73.81 L422.89 74.33 L418.64 75.13 L414.64 77.19 L410.58 78.82 L406.81 81.70 L402.39 81.63 L398.62 84.31 L394.60 85.84 L390.39 86.64 L386.57 88.86 L382.71 90.89 L378.95 93.18 L374.67 93.69 L370.87 95.78 L366.99 97.55 L362.50 97.54 L358.83 99.90 L354.76 101.13 L350.37 101.50 L347.46 105.79 L343.34 106.86 L339.01 107.46 L335.80 110.77 L331.48 111.42 L327.26 112.36 L323.55 114.45 L319.60 116.02 L315.54 117.36 L312.67 121.14 L309.16 123.56 L305.28 125.24 L302.33 128.70 L298.25 130.00 L294.90 132.65 L291.24 134.72 L287.36 136.42 L283.99 138.99 L280.36 141.12 L277.02 143.71 L273.20 145.53 L269.92 148.21 L267.01 151.42 L263.62 153.90 L260.32 156.49 L256.78 158.74 L253.55 161.42 L249.55 163.06 L246.74 166.31 L243.26 168.65 L239.96 171.23 L237.73 175.15 L234.13 177.34 L231.68 180.92 L228.88 184.06 L224.56 185.45 L222.19 189.07 L219.51 192.32 L215.51 194.13 L212.53 197.06 L210.61 201.08 L206.93 203.28 L203.64 205.89 L201.31 209.45 L197.68 211.74 L195.79 215.69 L193.11 218.88 L189.85 221.55 L188.46 225.88 L185.69 228.97 L183.06 232.18 L181.28 236.09 L178.17 238.90 L176.42 242.80 L175.04 246.97 L172.01 249.84 L170.73 254.03 L168.53 257.51 L166.22 260.91 L163.47 264.00 L161.12 267.36 L159.25 271.06 L155.85 273.74 L153.89 277.37 L152.04 281.07 L149.49 284.33 L147.35 287.85 L145.00 291.24 L143.31 295.02 L141.49 298.71 L139.28 302.19 L137.70 306.01 L136.34 309.94 L134.36 313.53 L132.55 317.22 L131.29 321.17 L128.82 324.54 L127.24 328.33 L125.77 332.16 L124.50 336.08 L123.18 339.97 L121.63 343.76 L120.99 347.92 L118.94 351.50 L117.82 355.45 L117.03 359.51 L114.81 363.05 L114.07 367.12 L113.05 371.08 L111.22 374.78 L110.35 378.79 L108.77 382.57 L107.29 386.40 L106.55 390.43 L105.73 394.44 L104.11 398.24 L103.45 402.29 L103.45 406.48 L102.14 410.36 L101.01 414.29 L101.32 418.52 L102.17 422.83 L101.65 426.86 L100.96 430.85 L101.58 435.05 L100.53 438.97 L99.41 442.90 L97.72 446.75 L98.44 450.93 L97.90 454.94 L97.45 458.96 L98.29 463.10 L96.63 467.01 L97.13 471.11 L96.55 475.12 L96.89 479.18 L97.00 483.23 L97.25 487.27 L96.68 491.29 L95.55 495.31 L95.72 499.36 L94.77 503.41 L94.07 507.47 L95.26 511.50 L94.97 515.56 L95.53 519.59 L95.32 523.66 L95.11 527.74 L96.14 531.73 L96.33 535.78 L97.65 539.72 L97.58 543.80 L98.88 547.72 L100.59 551.57 L100.96 555.59 L101.17 559.63 L102.13 563.56 L104.11 567.31 L104.76 571.27 L106.58 575.01 L108.80 578.65 L110.66 582.34 L111.35 586.26 L112.68 590.04 L114.20 593.76 L113.59 598.01 L115.34 601.67 L116.51 605.48 L116.65 609.57 L119.74 612.82 L121.44 616.44 L121.56 620.56 L124.58 623.75 L125.91 627.47 L126.76 631.36 L128.64 634.89 L129.82 638.67 L130.88 642.49 L133.31 645.78 L135.24 649.26 L135.97 653.23 L138.98 656.23 L140.53 659.84 L142.68 663.19 L143.61 667.09 L144.13 671.20 L146.19 674.59 L146.79 678.71 L148.27 682.40 L149.95 686.00 L152.08 689.35 L154.87 692.33 L156.71 695.83 L159.28 698.91 L160.66 702.68 L163.24 705.73 L165.82 708.77 L168.07 712.01 L171.89 714.22 L173.90 717.59 L176.44 720.60 L179.77 723.06 L180.38 727.41 L183.09 730.29 L186.25 732.82 L188.04 736.37 L191.47 738.67 L195.11 740.76 L196.80 744.39 L200.34 746.52 L203.30 749.10 L205.13 752.63 L207.95 755.33 L210.38 758.35 L212.72 761.48 L215.89 763.83 L219.17 766.07 L221.25 769.44 L225.22 770.96 L228.16 773.48 L230.98 776.11 L233.84 778.70 L235.62 782.44 L238.76 784.74 L241.10 787.91 L243.41 791.15 L246.36 793.67 L249.27 796.24 L252.79 798.07 L255.70 800.63 L258.96 802.75 L262.20 804.89 L265.26 807.25 L268.14 809.87 L271.49 811.84 L275.05 813.52 L277.90 816.17 L282.18 816.76 L285.30 819.00 L288.82 820.66 L293.01 821.23 L295.79 823.99 L299.25 825.68 L303.39 826.22 L306.16 829.03 L308.97 831.80 L313.23 832.04 L316.58 833.85 L319.46 836.54 L323.71 836.65 L326.52 839.50 L329.81 841.46 L333.80 841.98 L336.54 845.06 L340.10 846.47 L343.81 847.51 L347.12 849.46 L350.94 850.22 L354.57 851.41 L357.94 853.21 L361.88 853.59 L365.29 855.30 L369.16 855.80 L372.92 856.54 L376.63 857.38 L380.43 857.94 L383.77 859.89 L387.69 860.02 L390.86 862.56 L394.21 864.63 L398.18 864.50 L401.92 865.19 L405.32 867.14 L409.21 867.22 L413.02 867.51 L416.69 868.43 L420.18 870.16 L423.92 870.77 L427.94 869.93 L431.41 871.91 L435.35 871.33 L439.05 872.00 L442.73 872.88 L446.46 873.46 L450.32 873.09 L453.99 874.03 L457.82 873.70 L461.66 873.16 L465.35 873.99 L469.10 874.25 L472.81 875.01 L476.52 875.85 L480.31 875.59 L484.05 876.13 L487.84 875.44 L491.60 874.96 L495.34 876.05 L499.10 876.79 L502.87 876.76 L506.65 877.73 L510.44 877.96 L514.19 877.07 L517.90 875.77 L521.59 874.40 L525.38 874.79 L528.96 872.37 L532.64 871.63 L536.36 871.30 L539.96 869.89 L543.53 868.39 L547.13 867.33 L550.89 867.44 L554.39 865.79 L558.08 865.45 L561.92 865.94 L565.34 864.01 L569.06 863.75 L572.67 862.95 L575.86 860.14 L579.60 860.01 L583.20 859.22 L586.43 856.87 L590.15 856.61 L593.70 855.65 L597.27 854.77 L600.74 853.51 L604.34 852.74 L607.45 850.31 L611.08 849.65 L614.35 847.83 L617.49 845.70 L621.10 844.96 L624.29 843.04 L628.01 842.57 L631.54 841.57 L634.98 840.30 L638.86 840.13 L642.03 838.19 L645.46 836.87 L648.62 834.95 L651.85 833.21 L654.89 831.06 L658.28 829.67 L661.66 828.26 L664.72 826.19 L668.44 825.44 L671.39 823.19 L674.84 821.87 L677.96 819.95 L680.85 817.61 L684.30 816.27 L686.41 812.67 L689.46 810.68 L692.79 809.14 L695.03 805.88 L697.70 803.33 L701.32 802.24 L703.85 799.51 L705.89 796.09 L709.63 795.12 L711.86 792.03 L714.42 789.42 L718.27 788.55 L719.89 784.73 L723.43 783.41 L726.69 781.71 L728.43 778.13 L731.74 776.47 L734.16 773.74 L736.28 770.70 L739.88 769.34 L741.93 766.23 L743.96 763.13 L747.02 761.15 L748.72 757.73 L751.26 755.20 L753.26 752.14 L756.24 750.05 L758.47 747.23 L760.80 744.52 L764.10 742.69 L766.18 739.74 L768.70 737.19 L770.99 734.43 L773.49 731.85 L775.50 728.86 L777.33 725.73 L779.63 722.99 L781.24 719.71 L783.02 716.58 L784.88 713.52 L787.28 710.87 L788.99 707.70 L790.61 704.50 L793.53 702.19 L794.95 698.85 L797.07 695.99 L798.43 692.63 L799.80 689.29 L801.78 686.35 L803.02 682.95 L805.29 680.18 L806.70 676.90 L808.19 673.68 L810.27 670.79 L811.26 667.30 L813.19 664.32 L814.93 661.24 L816.54 658.09 L818.48 655.10 L820.49 652.13 L821.46 648.67 L822.86 645.42 L825.00 642.49 L825.80 638.97 L826.25 635.32 L828.22 632.31 L829.35 628.95 L829.35 625.17 L829.54 621.48 L830.84 618.22 L831.61 614.77 L831.72 611.10 L833.55 608.02 L835.07 604.82 L836.63 601.62 L835.97 597.77 L838.14 594.74 L838.27 591.14 L838.30 587.53 L840.60 584.50 L840.49 580.87 L841.39 577.48 L841.61 573.95 L842.06 570.47 L842.21 566.94 L844.81 563.88 L845.12 560.38 L845.16 556.83 L847.77 553.69 L848.30 550.22 L847.41 546.55 L848.55 543.15 L848.87 539.66 L848.78 536.12 L849.73 532.68 L849.68 529.16 L849.55 525.63 L850.20 522.16 L850.01 518.63 L849.08 515.08 L849.26 511.59 L848.40 508.08 L847.78 504.59 L848.05 501.11 L847.35 497.63 L846.59 494.17 L845.35 490.74 L844.59 487.31 L843.51 483.91 L843.90 480.44 L842.97 477.05 L842.33 473.65 L843.19 470.13 L841.28 466.86 L841.10 463.43 L841.03 459.98 L838.47 456.85 L838.15 453.44 L838.26 449.98 L835.87 446.89 L835.84 443.45 L835.42 440.07 L834.80 436.72 L834.01 433.40 L833.73 429.98 L831.73 426.93 L830.84 423.65 L830.09 420.33 L827.82 417.40 L827.58 413.97 L826.00 410.89 L826.55 407.22 L826.09 403.82 L824.74 400.68 L825.70 396.81 L824.59 393.58 L823.53 390.33 L822.43 387.10 L820.47 384.17 L818.97 381.10 L819.63 377.20 L820.88 373.02 L819.62 369.81 L820.75 365.59 L820.05 362.11 L816.37 359.92 L812.28 357.99 L809.86 355.33 L805.12 353.81 L801.87 351.64 L802.26 347.67 L801.12 344.45 L799.23 341.62 L797.32 338.80 L794.89 336.28 L790.47 334.91 L788.44 332.23 L786.99 329.21 L785.46 326.23 L788.86 320.18 L788.96 316.08 L788.33 312.40 L788.11 308.42 L784.71 306.55 L780.22 305.48 L777.48 303.24 L774.75 301.01 L770.42 299.99 L769.28 296.64 L767.78 293.54 L763.08 292.93 L761.02 290.29 L759.23 287.44 L755.04 286.57 L751.63 285.11 L749.93 282.20 L747.28 280.12 L746.77 276.12 L747.65 270.76 L745.54 268.11 L745.72 263.25 L744.67 259.49 L741.84 257.47 L736.58 257.95 L732.74 257.07 L729.22 255.90 L723.93 256.71 L721.53 254.43 L720.58 250.52 L717.09 249.45 L715.21 246.55 L713.22 243.75 L708.89 243.78 L705.81 242.34 L704.93 238.11 L701.35 237.31 L700.49 232.95 L699.55 228.58 L695.44 228.53 L693.84 225.00 L690.69 223.63 L687.18 222.84 L684.63 220.63 L680.78 220.41 L676.85 220.41 L674.48 217.95 L672.04 215.57 L667.60 216.54 L663.85 216.45 L661.88 213.28 L657.72 214.01 L653.42 215.10 L650.55 213.62 L647.26 212.93 L644.14 211.96 L644.47 203.95 L641.96 201.55 L640.02 197.88 L637.98 194.30 L634.27 194.40 L630.18 195.48 L626.54 195.62 L622.56 196.67 L618.56 197.89 L616.11 195.22 L613.23 193.61 L609.23 195.09 L606.33 193.55 L603.44 191.96 L599.50 193.58 L596.38 192.77 L593.84 190.06 L590.94 188.42 L588.32 185.77 L585.93 182.06 L582.76 181.19 L579.99 178.69 L576.68 178.31 L573.40 177.81 L569.65 179.51 L566.02 180.85 L562.54 181.66 L559.04 182.75 L555.85 182.25 L552.58 182.25 L549.33 182.18 L546.23 181.14 L542.85 182.10 L539.45 183.40 L536.32 182.73 L533.07 183.11 L529.76 184.22 L527.08 178.36 L523.93 177.16 L520.76 175.96 L517.67 173.03 L514.40 172.88 L511.08 174.03 L507.74 177.37 L504.51 177.31 L501.28 179.41 L498.07 179.34 L494.86 179.21 L491.64 178.75 L488.48 180.32 L485.26 179.88 L482.18 182.23 L479.13 184.34 L475.82 182.54 L472.71 183.56 L469.61 184.43 L465.85 179.09 L462.82 180.98 L459.69 181.79 L456.37 181.22 L453.17 181.56 L450.44 184.91 L447.17 184.73 L444.06 185.45 L441.55 189.40 L438.15 188.51 L435.36 190.69 L432.78 193.66 L429.48 193.30 L426.78 195.53 L424.45 199.13 L421.48 200.03 L418.68 201.57 L416.37 204.76 L411.73 199.85 L408.34 199.46 L405.20 199.95 L400.31 195.12 L397.34 196.34 L394.92 199.15 L392.34 201.37 L389.56 203.01 L388.02 207.84 L385.16 209.13 L381.22 207.73 L378.95 210.49 L376.60 212.96 L373.20 212.99 L371.16 216.10 L369.52 219.96 L366.45 220.69 L363.41 221.54 L361.29 224.21 L355.81 220.32 L352.71 221.19 L349.73 222.30 L345.91 221.92 L343.39 223.93 L341.80 227.51 L339.09 229.12 L337.25 232.15 L336.42 236.76 L333.09 237.30 L330.34 238.79 L329.62 243.33 L326.17 243.74 L323.66 245.55 L322.56 249.35 L321.43 253.02 L317.73 253.15 L316.23 256.25 L313.00 257.07 L307.14 254.57 L304.80 256.64 L300.76 256.62 L297.68 257.84 L296.32 261.11 L296.03 265.56 L294.72 268.77 L294.35 272.97 L292.77 275.77 L289.95 277.23 L287.69 279.30 L285.87 281.82 L282.86 283.13 L281.84 286.43 L282.08 290.89 L278.34 291.51 L275.20 292.76 L275.03 296.73 L268.68 295.15 L265.34 296.35 L264.83 299.99 L261.83 301.51 L259.98 304.00 L258.94 307.14 L259.08 311.17 L257.81 314.05 L256.39 316.80 L255.78 320.15 L254.89 323.24 L254.46 326.63 L253.19 329.41 L251.83 332.11 L251.32 335.37 L251.94 339.32 L250.39 341.84 L249.30 344.64 L246.82 346.59 L240.60 346.35 L237.98 348.31 L234.23 349.67 L231.67 351.74 L231.30 355.03 L232.27 358.99 L231.79 362.14 L232.52 365.88 L233.04 369.46 L229.72 371.18 L228.26 373.80 L228.91 377.38 L226.88 379.74 L225.96 382.59 L227.28 386.37 L227.68 389.72 L223.45 391.21 L223.14 394.28 L219.08 395.93 L214.66 397.53 L213.80 400.44 L210.37 402.48 L209.56 405.43 L208.78 408.39 L209.65 411.84 L210.00 415.11 L210.74 418.46 L211.21 421.70 L210.86 424.70 L211.08 427.83 L210.31 430.71 L208.43 433.33 L208.49 436.41 L208.40 439.44 L206.37 442.07 L206.95 445.23 L206.94 448.25 L202.75 450.57 L203.04 453.67 L203.60 456.79 L201.74 459.56 L203.77 462.84 L204.70 465.96 L204.97 468.97 L207.11 472.16 L208.58 475.23 L206.64 478.02 L206.69 480.97 L208.89 484.04 L207.82 486.91 L206.90 489.80 L209.19 492.79 L211.15 495.73 L208.63 498.61 L209.13 501.52 L210.26 504.41 L205.46 507.43 L204.46 510.41 L204.00 513.39 L204.12 516.36 L207.20 519.12 L208.47 521.97 L208.74 524.88 L212.32 527.48 L214.10 530.19 L212.06 533.33 L213.16 536.11 L215.36 538.73 L214.93 541.69 L214.06 544.74 L217.43 547.12 L217.63 549.99 L216.91 553.04 L220.09 555.35 L216.55 559.00 L215.60 562.17 L218.00 564.61 L214.99 568.30 L215.13 571.29 L217.84 573.62 L222.11 575.48 L223.16 578.18 L226.25 580.27 L230.00 582.11 L230.01 585.07 L229.89 588.08 L230.74 590.79 L233.00 593.02 L234.40 595.51 L237.18 597.49 L240.33 599.29 L241.05 602.00 L241.05 605.00 L237.22 609.63 L236.43 613.06 L234.88 616.88 L233.82 620.54 L236.25 622.63 L239.93 624.10 L242.87 625.87 L246.33 627.33 L250.58 628.34 L252.12 630.70 L253.44 633.17 L257.14 634.33 L258.22 636.91 L258.75 639.81 L261.84 641.22 L264.23 643.01 L265.17 645.67 L267.58 647.41 L265.80 651.85 L264.88 655.80 L266.52 658.10 L264.14 663.17 L265.07 666.03 L268.59 667.04 L271.68 668.30 L273.92 670.17 L278.55 670.18 L282.43 670.69 L282.95 673.81 L285.69 675.16 L289.01 676.00 L290.35 678.47 L293.02 679.80 L296.53 680.35 L298.29 682.42 L299.37 685.13 L301.84 686.55 L299.31 692.76 L300.27 695.71 L301.36 698.57 L301.31 702.64 L304.20 703.73 L308.06 703.75 L309.96 705.81 L314.34 705.15 L318.44 704.69 L320.33 706.69 L322.35 708.54 L326.04 708.39 L328.10 710.17 L329.35 712.95 L333.14 712.54 L336.83 712.18 L338.02 715.04 L341.36 715.05 L341.77 719.05 L341.47 724.15 L343.45 726.11 L343.65 730.73 L345.52 732.94 L347.75 734.65 L352.57 732.26 L356.22 731.60 L359.23 731.89 L363.43 730.14 L365.58 731.77 L367.85 733.18 L371.33 732.44 L373.32 734.34 L375.42 736.07 L378.71 735.52 L381.36 736.14 L383.46 737.85 L385.96 738.76 L386.25 744.42 L387.47 748.26 L390.01 749.25 L390.65 754.66 L393.60 754.79 L396.97 753.85 L399.94 753.78 L403.57 751.93 L406.92 750.65 L409.83 750.46 L412.25 751.61 L414.89 752.10 L417.30 753.30 L419.61 754.83 L422.58 754.27 L425.62 753.34 L428.12 754.21 L430.77 754.53 L433.39 754.95 L434.49 761.39 L437.00 762.45 L439.01 765.78 L441.18 768.60 L444.26 767.33 L447.30 766.00 L450.42 764.10 L453.60 761.57 L456.67 759.29 L459.44 758.61 L461.91 759.78 L464.79 758.10 L467.55 757.03 L469.94 758.94 L472.69 757.73 L475.40 756.62 L477.87 758.03 L480.49 757.62 L482.83 761.41 L485.24 765.38 L487.91 765.18 L490.43 768.88 L493.12 768.99 L495.85 766.37 L498.53 764.60 L501.16 762.25 L503.74 759.36 L506.30 757.68 L508.91 758.65 L511.43 757.07 L513.90 755.05 L516.48 755.40 L519.02 755.02 L521.41 752.94 L524.04 753.78 L526.69 754.70 L529.02 752.52 L532.37 758.80 L535.26 760.75 L537.89 760.51 L541.00 763.36 L543.54 762.38 L545.78 759.82 L547.80 756.25 L549.89 753.34 L551.93 750.47 L553.77 746.93 L556.77 748.68 L559.00 747.07 L561.31 745.80 L564.13 746.58 L566.11 744.15 L567.82 740.91 L570.81 742.20 L573.19 741.37 L576.11 742.23 L580.02 746.06 L582.53 745.39 L585.94 747.33 L588.88 747.76 L591.34 746.82 L592.84 743.37 L594.61 740.77 L596.39 738.26 L597.48 734.20 L599.59 732.68 L601.24 730.14 L602.79 727.48 L605.41 727.18 L607.50 725.74 L608.95 723.01 L611.03 721.63 L613.33 720.69 L614.97 718.46 L619.72 722.08 L623.50 723.71 L625.05 721.26 L630.29 725.24 L632.82 724.40 L633.18 719.97 L634.70 717.54 L636.39 715.43 L635.86 709.91 L636.78 706.77 L639.66 706.61 L641.23 704.48 L643.15 702.89 L645.45 701.84 L646.73 699.38 L648.05 697.02 L650.30 695.90 L652.42 694.60 L654.05 692.69 L660.26 696.40 L662.77 695.45 L665.15 694.32 L668.25 694.00 L668.73 690.68 L669.68 687.93 L670.10 684.64 L670.30 681.19 L671.08 678.42 L671.90 675.71 L673.13 673.47 L673.60 670.50 L674.92 668.39 L676.86 666.88 L677.34 664.01 L677.99 661.34 L680.46 660.32 L680.62 657.26 L685.56 658.33 L689.88 658.76 L691.57 656.95 L695.86 657.21 L698.89 656.40 L699.84 653.94 L698.20 649.54 L699.00 647.04 L698.52 643.65 L697.58 639.97 L699.30 638.22 L700.70 636.24 L700.60 633.26 L702.71 631.76 L703.53 629.42 L703.27 626.42 L704.13 624.13 L707.51 623.36 L708.28 621.02 L712.94 620.90 L716.25 619.93 L718.36 618.27 L721.35 617.04 L721.65 614.37 L722.22 611.87 L720.63 608.31 L719.69 605.14 L720.22 602.70 L719.96 599.92 L720.35 597.45 L721.60 595.36 L722.32 593.05 L725.12 591.58 L724.35 588.67 L724.33 586.07 L727.27 584.60 L727.03 581.94 L728.41 579.87 L732.26 578.61 L732.39 576.08 L734.80 574.27 L736.16 572.11 L734.99 569.20 L732.52 565.95 L731.51 563.17 L729.55 560.17 L727.13 557.12 L727.88 554.89 L727.83 552.47 L728.21 550.16 L728.84 547.91 L729.15 545.59 L729.01 543.18 L728.22 540.67 L729.84 538.60 L730.25 536.30 L734.06 534.51 L737.28 532.56 L737.22 530.14 L740.07 528.06 L741.04 525.74 L740.17 523.22 L737.29 520.55 L737.70 518.19 L734.43 515.58 L731.25 513.05 L731.61 510.75 L730.32 508.38 L729.47 506.05 L730.56 503.77 L730.17 501.47 L728.88 499.17 L728.79 496.88 L728.93 494.59 L727.97 492.33 L729.72 489.97 L729.00 487.71 L727.08 485.53 L727.56 483.21 L726.64 481.00 L724.66 478.90 L723.92 476.71 L723.42 474.50 L722.11 472.40 L721.28 470.25 L722.27 467.85 L720.69 465.83 L720.45 463.60 L721.08 461.22 L719.28 459.28 L717.62 457.33 L718.21 454.94 L716.49 453.03 L714.88 451.13 L715.45 448.73 L714.57 446.66 L713.51 444.66 L713.57 442.36 L712.37 440.39 L709.87 438.83 L709.77 436.57 L709.23 434.45 L707.54 432.69 L709.82 429.62 L708.01 427.91 L705.24 426.56 L706.00 423.96 L704.13 422.32 L701.27 421.09 L700.12 419.23 L699.81 417.02 L697.68 415.57 L696.74 413.64 L697.45 410.96 L694.84 409.78 L693.71 407.94 L693.96 405.44 L691.90 404.05 L690.07 402.58 L688.65 400.91 L686.62 399.59 L685.12 397.99 L684.42 395.96 L683.89 393.82 L683.25 391.74 L683.83 388.90 L681.54 387.79 L678.72 387.04 L678.82 384.46 L676.93 383.16 L674.25 382.41 L674.89 379.42 L673.18 378.02 L670.99 376.99 L669.94 375.14 L668.03 373.94 L665.67 373.11 L664.18 371.63 L663.25 369.69 L661.23 368.65 L660.96 366.17 L660.19 364.07 L657.80 363.36 L656.62 361.62 L655.64 359.70 L653.43 358.88 L651.98 357.38 L650.63 355.79 L648.18 355.27 L646.84 353.68 L645.92 351.65 L643.66 351.01 L642.83 348.86 L641.60 347.14 L639.44 346.41 L637.02 346.02 L635.88 344.19 L633.58 343.70 L631.23 343.30 L630.55 340.90 L628.97 339.59 L627.31 338.37 L625.46 337.40 L623.75 336.25 L621.41 335.96 L619.32 335.37 L617.75 334.07 L615.73 333.41 L614.92 331.00 L613.10 330.04 L610.82 329.80 L609.25 328.48 L607.35 327.69 L605.16 327.38 L603.17 326.78 L601.60 325.46 L599.39 325.27 L597.71 324.15 L596.98 321.28 L594.59 321.44 L592.79 320.53 L591.56 318.48 L589.10 318.87 L586.70 319.21 L584.82 318.50 L582.71 318.31 L580.31 318.80 L578.72 317.47 L576.99 316.45 L575.14 315.72 L573.80 313.69 L571.48 314.15 L569.22 314.52 L567.56 313.27 L565.49 313.19 L563.34 313.35 L561.74 311.92 L559.79 311.52 L557.44 312.43 L555.86 310.86 L553.82 310.84 L551.62 311.40 L549.90 310.24 L548.09 309.41 L546.08 309.34 L544.09 309.27 L542.36 308.04 L540.18 308.81 L538.21 308.74 L536.46 307.48 L534.37 308.01 L532.47 307.57 L530.55 307.23 L528.56 307.35 L526.48 308.20 L524.57 307.85 L522.63 307.72 L520.62 308.33 L518.75 307.60 L516.80 307.70 L514.85 307.98 L513.01 306.56 L511.02 307.38 L509.07 307.80 L507.18 306.99 L505.24 307.33 L503.29 308.47 L501.37 308.33 L499.46 308.45 L497.56 310.02 L495.66 309.88 L493.75 309.60 L491.87 310.31 L489.99 310.73 L488.08 310.47 L486.18 310.63 L484.35 311.54 L482.43 311.31 L480.57 311.73 L478.70 312.06 L476.81 312.15 L475.07 313.41 L473.21 313.69 L471.35 313.97 L469.61 315.00 L467.71 315.04 L465.81 315.07 L464.11 316.19 L462.55 317.92 L460.43 316.88 L458.77 318.03 L457.18 319.43 L455.09 318.71 L453.23 318.98 L451.49 319.71 L449.79 320.55 L447.95 320.89 L446.36 322.09 L444.73 323.10 L442.87 323.38 L441.31 324.56 L439.43 324.80 L437.63 325.25 L436.02 326.26 L434.31 326.97 L432.67 327.85 L431.07 328.83 L429.52 329.91 L427.62 330.14 L426.22 331.55 L424.73 332.73 L422.31 331.85 L421.20 333.84 L419.70 334.97 L417.65 334.96 L416.36 336.50 L415.24 338.32 L413.75 339.40 L412.14 340.25 L410.96 341.87 L408.98 342.07 L407.13 342.53 L405.65 343.61 L404.07 344.53 L402.76 345.88 L401.61 347.45 L400.57 349.17 L398.74 349.68 L397.48 351.05 L395.44 351.30 L393.63 351.89 L392.87 353.94 L390.47 353.75 L389.19 355.09 L388.30 356.92 L387.05 358.26 L385.82 359.61 L384.90 361.34 L383.63 362.64 L382.08 363.59 L381.19 365.31 L379.36 365.96 L377.52 366.62 L376.33 368.01 L375.54 369.79 L374.45 371.25 L373.43 372.78 L372.85 374.73 L371.46 375.87 L370.85 377.75 L369.52 378.94 L366.67 378.75 L366.42 380.95 L366.59 383.47 L363.95 383.54 L363.21 385.26 L363.15 387.52 L360.83 387.93 L360.21 389.72 L360.03 391.82 L358.11 392.59 L357.15 394.09 L357.55 396.58 L356.29 397.85 L355.54 399.47 L355.46 401.54 L354.08 402.73 L352.10 403.53 L351.67 405.35 L350.60 406.76 L348.49 407.53 L348.20 409.43 L348.21 411.48 L346.76 412.68 L346.39 414.49 L345.63 416.07 L341.94 416.11 L343.03 418.68 L342.12 420.21 L339.66 420.96 L340.99 423.59 L342.60 426.29 L341.32 427.61 L341.40 429.56 L341.63 431.55 L337.96 431.88 L337.31 433.51 L337.56 435.50 L335.73 436.67 L334.79 438.20 L335.61 440.37 L336.46 442.52 L336.08 444.23 L336.73 446.26 L334.67 447.41 L333.55 448.88 L334.26 450.91 L332.89 452.32 L332.00 453.87 L333.28 456.01 L335.57 458.37 L334.05 459.75 L334.18 461.53 L333.32 463.08 L331.20 464.38 L331.78 466.26 L331.36 467.92 L328.97 469.24 L329.11 471.02 L331.64 473.18 L329.76 474.63 L329.80 476.37 L331.81 478.36 L331.96 480.09 L331.64 481.75 L332.77 483.57 L331.45 485.14 L331.24 486.82 L333.97 488.70 L333.14 490.32 L331.29 491.90 L332.62 493.64 L330.45 495.26 L328.96 496.93 L329.48 498.64 L328.42 500.35 L329.68 502.05 L331.91 503.70 L333.78 505.33 L332.41 507.05 L333.19 508.69 L334.55 510.28 L331.71 512.14 L331.84 513.83 L333.13 515.40 L332.25 517.18 L332.85 518.81 L335.44 520.18 L335.03 521.91 L334.61 523.65 L337.70 524.87 L334.49 527.06 L335.39 528.60 L337.55 529.90 L336.56 531.78 L338.52 533.08 L341.66 534.09 L342.71 535.51 L340.86 537.60 L341.27 539.19 L339.57 541.31 L338.45 543.33 L339.26 544.84 L338.41 546.82 L340.75 547.87 L343.99 548.61 L346.06 549.66 L347.28 550.95 L349.56 551.87 L350.16 553.35 L348.48 555.66 L349.16 557.13 L350.41 558.37 L349.92 560.30 L351.31 561.47 L354.86 561.71 L354.23 563.71 L354.52 565.32 L354.94 566.88 L353.38 569.39 L352.74 571.51 L353.37 573.02 L354.22 574.43 L356.46 575.10 L359.55 575.28 L361.12 576.24 L362.56 577.25 L365.02 577.65 L364.65 579.68 L364.19 581.78 L365.62 582.77 L364.92 585.07 L366.19 586.15 L368.34 586.64 L369.58 587.71 L370.49 588.99 L373.12 589.07 L373.46 590.73 L374.03 592.24 L376.39 592.43 L377.12 593.81 L377.18 595.72 L379.61 595.78 L381.12 596.53 L381.10 598.54 L382.99 598.97 L384.68 599.53 L383.34 602.74 L384.37 603.91 L385.28 605.18 L385.72 606.89 L387.34 607.51 L390.06 607.04 L391.08 608.19 L392.98 608.45 L395.55 607.99 L395.25 610.49 L395.77 612.16 L397.53 612.50 L398.59 613.60 L398.49 616.03 L400.43 616.13 L402.70 615.81 L404.17 616.40 L406.32 616.14 L406.93 617.78 L408.72 617.91 L410.45 618.11 L410.81 620.11 L412.30 620.60 L413.88 620.96 L415.54 621.16 L416.45 622.45 L418.03 622.75 L418.67 624.47 L419.09 626.57 L421.05 626.28 L421.89 627.75 L422.36 629.88 L424.85 628.63 L427.38 627.20 L427.95 629.19 L429.50 629.43 L431.55 628.71 L432.31 630.42 L433.16 631.98 L434.61 632.40 L435.96 632.99 L437.30 633.60 L439.21 632.98 L440.76 633.09 L441.88 634.18 L443.76 633.47 L444.69 635.03 L445.86 636.05 L447.55 635.73 L448.38 637.66 L449.87 637.87 L451.62 637.30 L453.32 636.83 L454.16 638.89 L456.18 637.40 L457.61 637.64 L457.73 642.31 L459.82 640.39 L461.02 641.52 L462.38 642.11 L463.96 641.88 L466.04 639.52 L467.74 638.54 L469.13 638.84 L470.76 638.03 L472.15 638.26 L473.34 639.55 L474.70 640.03 L476.07 640.44 L477.54 640.29 L479.22 638.63 L480.67 638.43 L481.88 639.95 L483.47 638.55 L484.70 640.08 L486.00 641.31 L487.59 639.47 L488.84 641.40 L490.29 641.04 L491.77 639.97 L493.19 639.61 L494.53 641.13 L495.95 640.68 L497.36 640.64 L498.76 641.71 L500.18 642.07 L501.59 641.50 L503.00 641.09 L504.35 639.27 L505.69 637.88 L507.08 638.12 L508.49 638.40 L509.78 637.04 L511.45 640.66 L512.90 640.98 L514.22 640.02 L515.74 640.94 L516.89 638.62 L517.83 635.06 L519.24 635.28 L520.56 634.93 L521.81 634.07 L523.58 636.36 L524.91 635.96 L526.25 635.60 L527.72 635.90 L528.83 634.44 L529.72 632.14 L530.70 630.39 L532.39 631.63 L533.49 630.46 L534.64 629.58 L536.23 630.27 L537.56 630.01 L538.71 629.14 L540.21 629.41 L541.21 628.10 L541.97 626.14 L543.38 626.13 L544.23 624.55 L545.16 623.25 L547.83 626.60 L548.40 624.32 L549.55 623.61 L551.77 625.50 L552.54 623.84 L552.21 619.73 L554.31 621.21 L555.79 621.25 L556.58 619.79 L558.48 620.68 L559.80 620.32 L560.60 618.94 L562.09 618.90 L562.95 617.66 L563.14 615.23 L563.78 613.69 L565.49 614.06 L565.59 611.62 L566.57 610.75 L568.17 610.88 L568.28 608.60 L568.88 607.18 L570.30 607.02 L570.41 604.87 L570.72 603.10 L572.85 603.95 L573.39 602.53 L573.70 600.82 L575.95 601.75 L577.08 601.13 L578.11 600.39 L579.73 600.37 L579.98 598.65 L580.20 596.93 L581.26 596.23 L581.52 594.61 L580.98 592.10 L582.89 592.39 L585.22 593.10 L586.52 592.65 L587.03 591.34 L587.70 590.21 L588.02 588.75 L587.16 586.15 L586.67 583.97 L586.47 582.12 L589.55 583.35 L591.12 583.13 L590.82 581.20 L594.31 582.64 L594.86 581.47 L594.77 579.75 L594.98 578.32 L596.18 577.71 L595.98 575.97 L595.42 573.99 L597.89 574.35 L598.14 573.00 L597.83 571.26 L599.43 570.91 L599.89 569.75 L599.25 567.84 L599.51 566.56 L599.75 565.29 L599.75 563.87 L602.50 564.20 L602.84 562.99 L603.90 562.22 L605.58 561.80 L604.20 559.60 L603.26 557.70 L603.65 556.56 L603.75 555.28 L604.67 554.43 L607.70 554.65 L609.12 554.00 L609.15 552.67 L610.83 552.12 L610.94 550.82 L609.45 548.82 L608.39 547.05 L608.59 545.85 L607.43 544.11 L609.64 543.74 L610.88 542.95 L610.01 541.35 L612.85 541.14 L615.26 540.71 L615.43 539.48 L614.46 537.88 L614.67 536.68 L615.16 535.57 L613.72 533.88 L613.22 532.50 L612.83 531.17 L612.72 529.93 L611.73 528.48 L609.77 526.81 L607.42 525.10 L606.03 523.66 L604.60 522.25 L603.46 520.93 L602.71 519.71 L602.30 518.57 L601.93 517.45 L601.52 516.34 L601.29 515.26 L601.05 514.19 L600.78 513.13 L600.62 512.09 L600.40 511.04 L600.20 510.01 L600.01 508.98 L599.79 507.96 L599.58 506.94 L599.37 505.93 L599.17 504.92 L598.96 503.92 L598.75 502.92 L598.53 501.93 L598.32 500.94 Z"/>
  <svg class="pausebutton" id="pausebutton">
    <circle cx="500" cy="500" id="pausestart" class="pausestart" r="52.65"/>
    <rect height="50.02" width="10.00" y="473.68" rx="2.00" ry="2.00" x="479.99" class="pausesymbol"/>
    <rect height="50.02" width="10.00" y="473.68" rx="2.00" ry="2.00" x="510.00" class="pausesymbol"/>
    <polygon points="530.01,500 479.99,530.01 479.99,469.99" class="playsymbol"/>
  </svg>
  <polygon id="playback-head" class="playback-head" points="941.65,500 921.65,540 961.65,540"/>
</svg>