<?xml-stylesheet href="../../style/waveformjs.css" type="text/css"?>
<svg xmlns="http://www.w3.org/2000/svg" xmlns:xlink="http://www.w3.org/1999/xlink" width="100%" height="100%" viewBox="0 0 1000 1000">
  <path class="svg-wave" id="sp" d="M598.00 500.00 L598.16 500.98 L598.32 501.97 L598.46 502.95 L598.58 503.95 L598.68 504.94 L598.77 505.93 L598.86 506.93 L598.94 507.93 L599.04 508.94 L599.11 509.94 L599.16 510.95 L599.19 511.96 L599.21 512.97 L599.21 513.98 L599.22 515.00 L599.26 516.02 L599.28 517.04 L599.26 518.06 L599.23 519.08 L599.17 520.10 L599.11 521.12 L599.05 522.15 L599.02 523.19 L598.98 524.22 L598.88 525.25 L598.77 526.28 L598.64 527.30 L598.50 528.32 L598.35 529.35 L598.26 530.40 L598.15 531.44 L597.97 532.47 L597.78 533.49 L597.57 534.51 L597.34 535.53 L597.12 536.56 L596.96 537.61 L596.78 538.65 L596.52 539.67 L596.25 540.69 L595.95 541.70 L595.65 542.71 L595.34 543.73 L595.12 544.78 L594.86 545.82 L594.52 546.83 L594.18 547.84 L593.80 548.83 L593.41 549.82 L593.03 550.82 L592.73 551.87 L592.40 552.91 L591.98 553.89 L591.56 554.88 L591.10 555.86 L590.64 556.82 L590.17 557.80 L589.81 558.84 L589.41 559.86 L588.91 560.83 L588.41 561.79 L587.87 562.73 L587.33 563.67 L586.79 564.62 L586.35 565.65 L585.88 566.65 L585.31 567.58 L584.73 568.52 L584.12 569.43 L583.50 570.33 L582.88 571.24 L582.38 572.25 L581.84 573.24 L581.18 574.13 L580.54 575.03 L579.85 575.89 L579.15 576.75 L578.47 577.62 L577.89 578.61 L577.28 579.57 L576.56 580.42 L575.84 581.28 L575.08 582.10 L574.32 582.91 L573.56 583.73 L572.92 584.70 L572.24 585.63 L571.45 586.43 L570.66 587.24 L569.83 588.00 L569.00 588.76 L568.18 589.53 L567.47 590.47 L566.72 591.35 L565.87 592.11 L565.02 592.87 L564.12 593.57 L563.23 594.27 L562.34 594.99 L561.57 595.89 L560.75 596.73 L559.84 597.42 L558.93 598.13 L557.97 598.77 L557.02 599.41 L556.07 600.06 L555.24 600.92 L554.36 601.71 L553.39 602.35 L552.42 602.99 L551.41 603.56 L550.41 604.14 L549.41 604.73 L548.51 605.54 L547.56 606.28 L546.54 606.85 L545.52 607.43 L544.46 607.92 L543.41 608.43 L542.36 608.95 L541.40 609.71 L540.39 610.38 L539.32 610.89 L538.25 611.39 L537.15 611.79 L536.05 612.24 L534.95 612.68 L533.93 613.38 L532.87 613.98 L531.77 614.42 L530.65 614.85 L529.50 615.15 L528.37 615.53 L527.23 615.89 L526.16 616.53 L525.05 617.05 L523.90 617.42 L522.75 617.76 L521.56 617.97 L520.40 618.27 L519.23 618.55 L518.10 619.12 L516.95 619.56 L515.77 619.86 L514.58 620.11 L513.38 620.22 L512.18 620.45 L510.98 620.62 L509.81 621.13 L508.61 621.48 L507.41 621.72 L506.20 621.87 L504.98 621.88 L503.76 622.02 L502.54 622.11 L501.32 622.54 L500.10 622.80 L498.87 622.96 L497.64 623.02 L496.41 622.93 L495.18 622.98 L493.95 622.96 L492.69 623.32 L491.44 623.49 L490.19 623.57 L488.95 623.53 L487.72 623.34 L486.48 623.30 L485.25 623.18 L483.96 623.46 L482.69 623.53 L481.43 623.54 L480.19 623.39 L478.97 623.09 L477.72 622.97 L476.49 622.75 L475.18 622.96 L473.91 622.90 L472.63 622.84 L471.40 622.58 L470.20 622.19 L468.96 621.97 L467.74 621.65 L466.40 621.78 L465.14 621.60 L463.86 621.48 L462.64 621.11 L461.48 620.60 L460.25 620.28 L459.05 619.87 L457.68 619.94 L456.44 619.62 L455.15 619.43 L453.97 618.96 L452.85 618.33 L451.65 617.90 L450.47 617.41 L449.08 617.41 L447.88 616.96 L446.60 616.68 L445.44 616.13 L444.38 615.38 L443.22 614.82 L442.08 614.26 L440.68 614.17 L439.53 613.58 L438.26 613.22 L437.14 612.59 L436.16 611.71 L435.07 611.03 L433.96 610.38 L432.54 610.23 L431.50 609.45 L430.29 608.94 L429.22 608.21 L428.34 607.21 L427.36 606.36 L426.34 605.57 L425.02 605.21 L424.10 604.28 L423.15 603.39 L422.46 602.17 L421.68 601.08 L420.82 600.10 L420.67 598.25 L420.59 596.37 L420.54 594.49 L420.18 593.01 L419.39 592.06 L418.27 591.48 L417.34 590.67 L415.58 590.76 L413.34 591.32 L413.36 589.49 L413.94 587.13 L413.09 586.25 L412.40 585.21 L412.74 583.20 L411.90 582.34 L409.48 582.92 L408.81 581.87 L408.98 580.09 L408.73 578.70 L409.05 576.85 L410.79 573.87 L411.56 571.75 L411.81 570.10 L412.20 568.36 L411.89 567.20 L411.79 565.89 L411.33 564.87 L411.11 563.67 L410.36 562.87 L409.74 561.96 L409.53 560.79 L408.02 560.47 L406.71 560.01 L406.89 558.58 L407.22 557.09 L406.10 556.49 L404.69 556.05 L401.08 556.85 L398.62 556.92 L395.54 557.28 L389.63 559.09 L386.15 559.50 L383.22 559.55 L379.28 560.05 L376.55 559.88 L372.33 560.36 L371.05 559.39 L370.30 558.17 L369.52 556.96 L369.04 555.61 L368.33 554.37 L367.40 553.21 L366.78 551.92 L366.24 550.59 L366.08 549.13 L366.02 547.63 L366.21 546.06 L366.69 544.41 L366.92 542.86 L368.02 541.06 L369.44 539.19 L370.89 537.35 L374.86 534.85 L378.23 532.60 L375.12 532.10 L374.43 530.94 L379.56 528.40 L377.74 527.55 L372.71 527.34 L374.65 525.62 L380.53 523.17 L374.49 523.05 L367.17 523.02 L372.45 520.79 L371.18 519.68 L362.08 519.66 L364.47 517.94 L368.36 516.09 L362.77 515.38 L363.61 513.90 L369.84 511.96 L367.82 510.81 L366.37 509.58 L374.61 507.73 L372.28 506.60 L365.94 505.58 L372.79 504.02 L372.68 502.75 L364.98 501.57 L368.74 500.21 L371.37 498.92 L365.63 497.53 L369.66 496.30 L371.40 495.06 L366.60 493.54 L371.30 492.47 L368.35 490.98 L364.32 489.34 L369.26 488.41 L363.77 486.55 L365.95 485.41 L369.22 484.44 L364.65 482.52 L369.73 481.85 L370.02 480.57 L368.40 478.98 L371.00 478.07 L368.74 476.33 L370.08 475.23 L369.05 473.67 L365.14 471.48 L369.13 470.95 L368.41 469.41 L369.16 468.20 L373.15 467.82 L370.45 465.76 L368.41 463.81 L372.02 463.42 L371.52 461.88 L369.28 459.79 L370.10 458.62 L372.04 457.82 L372.68 456.61 L372.67 455.19 L372.79 453.79 L371.02 451.69 L372.58 450.81 L374.32 450.03 L374.55 448.67 L374.54 447.19 L373.36 445.20 L373.33 443.67 L374.34 442.61 L374.30 441.07 L374.93 439.83 L373.73 437.69 L374.35 436.43 L373.95 434.63 L372.71 432.37 L374.51 431.71 L376.84 431.36 L375.58 429.02 L376.84 428.10 L375.91 425.89 L372.69 422.22 L375.53 422.24 L379.60 423.10 L379.69 421.45 L379.58 419.65 L380.06 418.22 L377.81 414.89 L376.25 411.95 L381.05 413.56 L383.64 413.65 L385.14 412.97 L384.65 410.77 L383.85 408.28 L382.22 405.07 L383.04 403.78 L384.33 402.89 L384.16 400.75 L385.98 400.31 L387.42 399.57 L386.03 396.27 L387.63 395.65 L387.06 393.00 L390.17 393.84 L394.10 395.57 L393.27 392.63 L391.71 388.86 L396.39 391.51 L398.99 392.09 L397.55 388.34 L400.99 389.89 L403.47 390.47 L401.31 385.74 L405.99 388.92 L405.03 385.48 L405.85 384.14 L409.36 386.15 L408.16 382.25 L412.08 384.92 L410.34 380.17 L411.85 379.70 L414.90 381.40 L412.89 376.00 L413.41 374.08 L415.98 375.16 L416.72 373.54 L417.01 371.20 L419.50 372.27 L420.67 371.30 L423.35 372.82 L422.92 369.16 L425.77 371.07 L424.72 366.17 L427.23 367.55 L427.84 365.49 L429.61 365.58 L430.25 363.49 L432.04 363.65 L433.53 363.22 L433.00 358.57 L436.67 362.79 L436.11 357.85 L438.89 360.31 L440.04 359.12 L442.31 360.60 L443.68 359.96 L445.09 359.44 L446.12 357.89 L446.64 354.88 L448.66 355.96 L448.09 349.62 L451.06 353.50 L451.67 350.36 L453.62 351.32 L454.58 349.10 L456.53 350.16 L457.76 348.78 L459.14 347.88 L460.91 348.41 L461.84 345.66 L464.33 349.27 L465.41 347.01 L467.04 347.16 L468.10 344.55 L470.16 346.82 L471.05 343.05 L472.79 343.70 L473.94 340.90 L475.90 343.07 L477.56 343.50 L478.94 341.89 L480.61 342.32 L481.91 339.75 L483.83 342.58 L484.96 337.65 L486.78 339.94 L488.37 339.59 L489.92 338.71 L491.50 337.84 L493.18 339.18 L494.62 334.03 L496.36 337.47 L497.98 336.92 L499.60 334.16 L501.25 336.07 L502.94 332.90 L504.54 335.55 L506.22 334.71 L507.79 336.59 L509.46 335.93 L511.01 337.39 L513.02 332.60 L514.52 334.73 L516.49 331.60 L518.11 332.34 L519.98 330.87 L521.64 331.37 L522.92 334.49 L525.13 330.97 L526.37 334.09 L528.13 333.74 L529.56 335.33 L531.45 334.32 L532.72 336.57 L535.41 331.91 L536.79 333.60 L538.54 333.61 L540.37 333.33 L542.95 330.12 L544.22 332.17 L545.83 332.85 L548.21 330.83 L549.76 331.77 L551.31 332.73 L552.25 335.52 L554.14 335.32 L554.59 339.38 L557.77 335.44 L558.45 338.68 L560.95 336.89 L563.40 335.37 L564.57 337.21 L566.58 336.92 L567.74 338.72 L569.17 339.81 L569.86 342.55 L573.31 339.13 L573.38 343.16 L576.12 341.44 L577.51 342.62 L579.47 342.62 L579.81 345.79 L581.23 346.83 L583.48 346.32 L584.92 347.33 L587.88 345.66 L589.10 347.10 L592.23 345.30 L592.76 347.90 L594.62 348.28 L594.95 351.09 L598.20 349.34 L598.50 352.13 L601.42 350.99 L602.87 352.07 L604.50 352.88 L606.11 353.73 L606.87 355.75 L608.19 356.97 L608.86 359.05 L610.06 360.40 L610.65 362.49 L614.67 360.38 L613.77 364.27 L618.55 361.41 L619.61 362.97 L620.84 364.32 L621.18 366.65 L624.97 365.21 L625.79 367.02 L624.56 370.93 L629.52 368.44 L629.54 371.04 L630.59 372.56 L629.75 375.89 L633.57 374.77 L633.63 377.20 L636.43 377.12 L637.51 378.62 L638.64 380.06 L639.43 381.80 L642.10 381.96 L642.98 383.63 L642.42 386.43 L646.03 385.92 L645.68 388.52 L646.08 390.51 L647.25 391.92 L649.49 392.56 L648.87 395.24 L654.40 393.65 L653.42 396.57 L655.00 397.74 L654.90 400.02 L658.51 399.92 L657.55 402.71 L658.17 404.50 L659.84 405.66 L660.78 407.26 L660.10 409.78 L660.95 411.40 L664.70 411.48 L662.69 414.64 L668.74 413.61 L667.70 416.25 L668.28 418.05 L667.52 420.48 L669.87 421.44 L670.19 423.34 L669.38 425.74 L673.14 426.15 L671.38 428.92 L670.45 431.29 L668.85 433.89 L670.23 435.31 L667.68 438.19 L670.91 438.93 L675.42 439.29 L672.62 442.18 L678.80 442.10 L677.28 444.54 L679.67 445.76 L678.12 448.17 L678.95 449.86 L678.87 451.81 L679.39 453.58 L680.72 455.16 L679.14 457.45 L685.61 457.87 L681.49 460.71 L682.48 462.40 L681.76 464.44 L682.60 466.17 L680.33 468.45 L684.86 469.56 L684.19 471.56 L686.54 473.11 L687.90 474.83 L686.93 476.86 L688.64 478.56 L686.57 480.68 L691.61 482.09 L689.02 484.24 L693.70 485.80 L692.25 487.84 L691.01 489.83 L692.16 491.70 L690.99 493.66 L688.15 495.64 L693.28 497.45 L691.16 499.39 L690.39 501.30 L693.43 503.25 L691.91 505.15 L696.42 507.23 L693.43 509.06 L696.34 511.17 L695.48 513.08 L694.43 514.96 L692.94 516.79 L695.86 519.02 L693.58 520.76 L695.53 522.95 L698.70 525.33 L696.58 527.06 L696.25 529.02 L695.48 530.91 L698.27 533.39 L693.58 534.59 L696.15 537.08 L694.70 538.82 L693.39 540.58 L689.63 541.77 L693.48 544.65 L692.57 546.48 L692.71 548.55 L696.05 551.49 L696.08 553.59 L695.67 555.59 L695.37 557.62 L695.77 559.88 L693.04 561.16 L693.66 563.49 L689.95 564.39 L690.96 566.87 L686.27 567.32 L688.31 570.20 L686.65 571.71 L686.43 573.77 L688.07 576.61 L686.85 578.30 L687.60 580.83 L684.58 581.72 L684.84 584.06 L681.83 584.89 L684.70 588.50 L681.31 589.11 L682.85 592.15 L682.46 594.25 L681.24 595.93 L679.30 597.21 L676.54 598.01 L677.85 601.08 L674.79 601.67 L675.87 604.66 L674.64 606.31 L675.31 609.13 L673.43 610.39 L675.27 614.03 L671.91 614.31 L673.22 617.70 L671.87 619.31 L671.73 621.78 L669.91 623.05 L667.98 624.24 L668.28 627.08 L664.85 627.10 L664.72 629.64 L661.70 629.91 L660.54 631.64 L657.94 632.17 L658.94 635.74 L654.94 635.02 L656.49 639.15 L654.87 640.51 L654.79 643.28 L654.15 645.58 L651.91 646.37 L653.08 650.47 L649.41 649.83 L648.88 652.32 L645.98 652.37 L644.76 654.16 L640.75 652.92 L640.51 655.75 L637.81 655.87 L637.63 658.84 L636.10 660.28 L635.48 662.83 L635.04 665.64 L633.08 666.61 L633.15 670.16 L629.16 668.51 L627.99 670.48 L625.64 670.88 L623.55 671.61 L620.33 670.72 L619.71 673.49 L616.93 673.14 L617.56 677.89 L614.40 676.93 L614.14 680.46 L611.78 680.70 L611.46 684.28 L609.58 685.34 L606.05 683.52 L604.91 685.82 L602.51 685.88 L600.41 686.46 L597.48 685.44 L596.71 688.53 L593.48 686.81 L594.16 692.97 L591.04 691.39 L590.57 695.42 L588.92 697.00 L586.83 697.62 L585.81 700.72 L583.01 699.69 L581.17 700.91 L578.29 699.49 L576.02 699.54 L572.98 697.48 L571.18 698.69 L568.22 696.61 L566.92 699.26 L564.98 700.10 L562.57 699.46 L561.80 704.14 L558.66 700.97 L558.08 706.66 L555.44 705.10 L554.16 708.64 L552.00 708.88 L550.28 710.95 L548.17 711.47 L545.53 709.51 L544.10 713.20 L541.28 710.14 L539.28 711.07 L536.87 709.79 L535.10 712.13 L532.46 709.11 L530.77 712.25 L528.34 710.25 L526.68 714.13 L524.27 712.04 L522.41 714.75 L520.43 716.73 L518.21 716.29 L516.33 720.31 L513.99 718.43 L511.97 721.57 L509.64 718.96 L507.44 718.88 L505.26 719.50 L503.06 718.67 L500.86 715.98 L498.67 721.10 L496.53 716.75 L494.28 719.89 L491.97 722.73 L489.86 720.21 L487.31 726.29 L485.19 724.01 L482.97 723.54 L480.80 722.60 L478.62 722.01 L476.58 720.09 L474.13 722.01 L472.29 718.72 L469.46 723.13 L467.52 720.85 L465.01 722.47 L462.39 724.43 L460.44 722.41 L457.27 727.07 L455.67 723.23 L453.33 723.33 L451.30 721.92 L449.58 719.29 L448.42 714.49 L445.10 718.62 L443.71 715.05 L441.17 715.91 L438.45 717.32 L434.97 721.14 L432.98 719.76 L430.28 720.67 L427.51 721.69 L425.92 719.12 L423.43 719.23 L422.14 715.97 L419.70 715.93 L418.85 711.73 L415.34 714.43 L414.50 710.39 L411.57 711.51 L409.38 710.80 L407.29 709.85 L404.91 709.53 L402.81 708.60 L399.91 709.32 L399.28 705.34 L394.72 709.33 L393.57 706.44 L390.80 706.71 L389.45 704.29 L386.44 704.93 L385.44 701.95 L383.94 699.90 L381.60 699.31 L379.78 697.85 L377.17 697.66 L375.39 696.13 L372.51 696.29 L371.32 693.85 L368.08 694.49 L367.30 691.48 L362.56 694.15 L361.64 691.36 L358.02 692.29 L356.01 690.98 L354.15 689.47 L352.51 687.70 L351.60 685.01 L349.12 684.30 L348.72 681.06 L347.17 679.25 L346.92 675.94 L343.59 676.18 L344.04 672.18 L340.00 673.13 L339.92 669.78 L334.67 671.86 L334.03 669.12 L331.20 668.59 L327.71 668.67 L327.64 665.39 L325.08 664.52 L325.10 661.23 L322.37 660.50 L323.80 656.04 L320.36 655.91 L320.03 653.06 L316.61 652.84 L316.43 649.91 L311.39 650.90 L309.88 649.01 L307.92 647.48 L304.11 647.31 L304.33 644.10 L302.60 642.35 L301.63 640.06 L300.72 637.74 L300.62 634.88 L298.03 633.71 L298.48 630.53 L294.45 630.24 L295.06 627.00 L289.76 627.40 L290.60 624.04 L285.91 623.94 L285.33 621.43 L284.70 618.96 L283.94 616.58 L282.81 614.39 L282.61 611.74 L281.59 609.51 L279.76 607.69 L280.56 604.59 L276.74 603.68 L278.31 600.27 L273.09 599.92 L274.80 596.48 L271.88 595.05 L270.98 592.74 L270.75 590.18 L269.30 588.10 L270.35 585.07 L269.95 582.62 L269.53 580.17 L266.83 578.51 L270.34 574.78 L266.65 573.41 L267.62 570.56 L265.26 568.72 L268.30 565.32 L263.81 564.04 L263.90 561.49 L264.52 558.82 L261.82 556.97 L263.78 554.01 L262.21 551.87 L262.49 549.33 L259.79 547.39 L262.27 544.43 L257.46 542.83 L260.74 539.79 L256.95 537.92 L259.33 535.09 L256.70 532.99 L258.40 530.30 L255.53 528.18 L254.67 525.80 L256.54 523.14 L251.49 521.12 L255.37 518.33 L252.54 516.05 L256.56 513.35 L253.02 511.07 L258.08 508.42 L256.69 506.03 L254.36 503.63 L255.96 501.17 L252.15 498.71 L254.85 496.27 L248.27 493.65 L252.28 491.27 L248.61 488.62 L250.29 486.20 L246.47 483.44 L249.07 481.09 L251.57 478.78 L251.09 476.23 L252.39 473.85 L247.95 470.83 L252.23 468.81 L247.03 465.58 L248.72 463.25 L249.04 460.73 L252.64 458.75 L256.92 456.97 L254.46 453.99 L256.31 451.81 L254.17 448.83 L256.41 446.75 L248.39 442.35 L251.25 440.38 L254.70 438.61 L254.12 435.85 L252.48 432.77 L251.35 429.78 L256.05 428.47 L252.73 424.80 L253.08 422.20 L251.53 418.98 L256.28 417.82 L254.96 414.64 L252.81 411.11 L251.45 407.80 L255.27 406.42 L254.45 403.28 L255.22 400.75 L255.87 398.16 L260.08 397.08 L258.60 393.58 L261.46 391.98 L263.78 390.17 L265.85 388.27 L260.94 382.98 L262.93 381.00 L263.04 378.07 L257.37 372.07 L258.24 369.42 L259.63 367.05 L261.50 364.95 L264.02 363.25 L266.35 361.46 L267.34 358.88 L268.01 356.09 L269.59 353.86 L269.97 350.86 L269.63 347.34 L271.15 345.04 L272.87 342.86 L274.50 340.64 L276.13 338.40 L277.85 336.24 L278.91 333.59 L280.43 331.27 L282.23 329.16 L283.36 326.51 L285.11 324.36 L287.07 322.39 L288.98 320.37 L290.83 318.31 L292.76 316.32 L294.13 313.82 L295.69 311.48 L297.74 309.59 L299.20 307.14 L301.00 305.01 L303.16 303.23 L305.30 301.44 L307.28 299.49 L309.48 297.76 L311.16 295.49 L312.93 293.30 L315.12 291.56 L316.85 289.31 L318.87 287.37 L321.16 285.75 L323.44 284.13 L325.62 282.40 L327.89 280.77 L330.05 279.00 L331.82 276.73 L334.12 275.14 L336.19 273.23 L338.47 271.61 L341.27 270.74 L344.02 269.83 L346.53 268.58 L349.38 267.88 L351.70 266.37 L353.26 263.63 L355.65 262.21 L357.56 259.98 L359.65 258.01 L362.28 256.98 L364.81 255.78 L367.52 254.93 L369.98 253.62 L372.61 252.63 L374.68 250.56 L377.16 249.27 L379.80 248.32 L382.09 246.65 L384.76 245.76 L387.47 244.98 L390.26 244.43 L393.35 244.60 L396.77 245.66 L399.88 246.08 L403.30 247.38 L406.23 247.49 L408.50 245.85 L411.47 246.16 L413.67 244.26 L416.19 243.29 L419.05 243.39 L422.12 244.21 L424.55 243.01 L426.51 240.11 L429.92 242.36 L432.60 242.06 L434.48 238.56 L437.53 239.72 L440.44 240.46 L443.01 239.73 L445.71 239.63 L448.20 238.51 L450.57 236.68 L452.98 234.96 L455.47 233.51 L457.90 231.61 L460.57 231.06 L463.28 230.84 L466.17 232.01 L469.13 234.06 L471.85 234.38 L474.20 230.91 L476.89 230.59 L479.66 231.36 L482.26 229.81 L484.97 229.89 L487.73 231.03 L490.50 233.01 L493.19 233.88 L495.85 233.29 L498.50 230.87 L501.21 227.33 L503.94 227.06 L506.74 223.99 L509.56 222.39 L512.25 224.47 L514.90 226.59 L517.49 228.82 L520.17 229.47 L522.68 232.05 L525.53 230.41 L528.38 229.21 L530.65 233.29 L533.93 228.68 L536.87 227.36 L539.24 230.23 L542.09 229.63 L544.88 229.52 L547.59 229.92 L550.84 227.46 L553.55 228.06 L556.64 226.82 L560.12 223.93 L562.41 226.59 L564.50 229.93 L566.93 231.66 L568.78 235.51 L570.88 238.22 L573.91 237.47 L577.55 234.74 L580.25 235.37 L583.60 233.91 L587.55 230.80 L589.67 233.37 L591.49 236.70 L593.29 239.93 L595.17 242.82 L597.81 243.58 L600.77 243.57 L603.63 243.85 L607.20 242.45 L611.14 240.34 L613.27 242.51 L615.77 243.82 L618.55 244.50 L620.96 245.98 L623.11 247.99 L626.73 247.03 L630.53 245.83 L631.94 249.29 L634.92 249.73 L637.46 251.01 L637.93 255.95 L639.50 258.84 L640.90 261.94 L643.09 263.67 L646.01 264.20 L649.76 263.46 L652.80 263.91 L656.82 262.94 L661.24 261.47 L663.13 263.80 L665.32 265.68 L666.86 268.44 L667.66 272.18 L669.62 274.27 L671.65 276.27 L674.57 277.11 L676.25 279.55 L679.70 279.78 L682.37 281.02 L682.89 284.81 L685.05 286.62 L687.10 288.57 L688.33 291.42 L690.86 292.82 L694.83 292.71 L697.31 294.24 L701.18 294.36 L705.44 294.16 L705.97 297.72 L706.56 301.16 L709.18 302.63 L709.75 306.02 L711.10 308.64 L717.10 307.13 L718.22 310.01 L720.29 312.04 L724.42 312.36 L724.10 316.41 L723.27 320.79 L724.41 323.53 L725.60 326.22 L728.11 327.90 L732.41 328.27 L734.53 330.30 L738.21 331.24 L741.54 332.48 L742.26 335.55 L742.54 338.87 L741.79 342.84 L742.37 345.89 L744.17 348.15 L745.81 350.51 L749.32 351.78 L751.91 353.63 L754.54 355.49 L757.67 357.09 L758.50 360.00 L757.19 364.01 L757.64 367.06 L759.06 369.59 L760.85 371.94 L764.50 373.42 L766.51 375.71 L769.67 377.51 L772.30 379.58 L771.32 383.25 L770.89 386.63 L771.04 389.74 L770.85 392.96 L771.73 395.74 L775.03 397.62 L778.75 399.39 L779.20 402.38 L783.14 404.16 L783.77 407.10 L781.59 410.93 L781.94 413.90 L782.08 416.94 L781.61 420.13 L783.99 422.51 L786.62 424.87 L787.00 427.83 L791.29 429.84 L792.37 432.66 L792.38 435.73 L794.11 438.43 L791.60 441.99 L789.53 445.41 L791.00 448.14 L791.03 451.13 L789.53 454.35 L790.82 457.13 L793.90 459.67 L793.89 462.66 L794.45 465.58 L794.35 468.57 L794.45 471.54 L796.38 474.34 L800.57 477.00 L800.94 480.00 L802.31 482.94 L806.22 485.79 L802.79 488.98 L802.60 492.02 L802.40 495.05 L797.82 498.10 L798.89 501.08 L801.59 504.11 L803.71 507.18 L800.80 510.12 L802.52 513.21 L806.20 516.44 L801.26 519.20 L798.94 522.05 L800.11 525.16 L797.00 527.89 L798.63 531.06 L803.05 534.58 L801.78 537.50 L804.51 540.94 L806.16 544.28 L802.21 546.80 L800.26 549.57 L797.13 552.12 L794.74 554.74 L795.27 557.90 L798.21 561.58 L798.53 564.76 L799.73 568.17 L801.87 571.84 L799.98 574.57 L795.79 576.67 L793.02 579.09 L790.63 581.57 L789.26 584.31 L790.11 587.72 L790.64 591.06 L791.25 594.46 L793.86 598.57 L792.94 601.53 L790.70 604.02 L789.74 606.96 L788.63 609.84 L785.30 611.85 L785.04 615.05 L786.59 619.02 L783.79 621.20 L782.29 623.91 L783.39 627.79 L781.44 630.31 L779.24 632.70 L776.55 634.83 L774.00 636.99 L772.76 639.80 L772.32 643.03 L771.38 646.02 L772.16 649.97 L774.27 654.73 L772.88 657.56 L771.44 660.37 L769.23 662.72 L764.46 663.47 L761.64 665.36 L760.07 668.03 L757.03 669.73 L755.40 672.35 L755.44 676.12 L753.14 678.30 L751.51 680.94 L749.60 683.38 L745.67 684.30 L744.89 687.58 L744.99 691.56 L744.66 695.28 L743.95 698.74 L743.83 702.73 L742.44 705.71 L738.90 706.85 L734.73 707.39 L731.60 708.78 L728.98 710.61 L726.49 712.54 L728.32 718.59 L727.07 721.79 L724.08 723.28 L725.17 728.91 L721.62 729.85 L716.66 729.25 L712.57 729.47 L709.50 730.75 L706.68 732.27 L706.99 737.36 L706.17 741.25 L705.03 744.82 L705.27 750.15 L701.90 751.12 L697.27 750.45 L692.94 750.06 L688.47 749.39 L685.52 750.65 L684.15 754.07 L682.97 757.84 L679.95 759.02 L678.05 761.85 L676.45 765.15 L672.91 765.56 L668.80 765.00 L666.43 767.13 L664.35 769.77 L662.53 772.89 L661.87 778.07 L659.51 780.42 L657.54 783.53 L655.16 785.94 L651.23 785.46 L647.25 784.80 L643.85 785.18 L640.77 786.15 L638.14 788.05 L636.12 791.27 L633.49 793.25 L629.88 793.07 L627.56 795.79 L623.94 795.48 L620.52 795.58 L617.41 796.40 L614.31 797.22 L611.59 799.04 L609.41 802.38 L607.73 807.32 L604.76 808.70 L602.40 811.95 L599.31 813.07 L595.06 810.42 L591.44 809.63 L587.49 807.53 L584.19 807.60 L581.76 810.87 L579.59 815.44 L576.57 816.76 L573.58 818.33 L570.79 820.82 L566.95 818.54 L563.14 816.10 L559.85 816.01 L556.47 815.41 L553.35 816.15 L550.76 820.32 L548.04 824.04 L544.71 823.87 L541.80 826.94 L538.96 831.00 L535.42 829.28 L531.91 827.41 L528.59 827.12 L525.18 825.70 L521.95 826.35 L518.85 829.38 L515.39 826.06 L512.22 828.67 L509.00 831.20 L505.64 828.55 L502.35 827.71 L499.08 825.27 L495.81 826.31 L492.49 828.68 L489.11 831.61 L485.77 831.94 L482.34 833.89 L478.84 836.39 L475.63 833.97 L472.70 828.84 L469.57 826.85 L466.26 826.95 L463.22 824.61 L459.79 825.69 L456.08 828.71 L452.94 827.24 L449.27 829.32 L445.85 829.60 L442.91 827.04 L439.70 826.14 L436.88 823.24 L433.62 822.74 L429.90 824.40 L426.35 825.04 L422.92 825.04 L419.22 826.10 L415.61 826.62 L412.52 825.15 L409.82 822.28 L406.98 820.06 L403.90 818.73 L400.49 818.50 L396.64 819.56 L393.99 816.88 L390.64 816.34 L386.76 817.25 L384.38 813.99 L381.44 812.31 L378.25 811.27 L375.45 809.28 L371.93 809.07 L367.58 810.75 L363.67 811.25 L360.91 809.10 L357.15 809.17 L353.79 808.31 L351.72 804.75 L350.00 800.60 L347.71 797.71 L344.31 797.00 L340.36 797.27 L336.97 796.43 L333.38 795.91 L329.77 795.36 L326.47 794.25 L324.20 791.41 L321.47 789.35 L320.03 785.26 L317.63 782.76 L314.30 781.70 L310.12 781.86 L307.00 780.40 L304.81 777.60 L299.48 779.20 L295.85 778.34 L294.62 774.22 L292.35 771.55 L289.54 769.59 L288.07 765.95 L284.29 765.21 L281.91 762.72 L280.23 759.43 L274.67 760.66 L271.48 759.07 L270.29 755.22 L269.24 751.29 L266.40 749.33 L264.18 746.71 L261.51 744.56 L256.81 744.44 L252.71 743.64 L248.72 742.67 L245.10 741.28 L243.23 738.24 L242.58 734.09 L242.18 729.78 L241.57 725.73 L239.63 722.87 L236.79 720.79 L234.07 718.57 L230.84 716.76 L226.73 715.60 L224.54 712.89 L223.91 709.00 L223.51 704.99 L220.52 702.90 L217.94 700.50 L213.69 699.24 L209.45 697.91 L204.78 696.80 L199.48 696.02 L198.54 692.36 L197.53 688.78 L194.85 686.24 L194.92 682.03 L193.86 678.54 L192.34 675.32 L190.09 672.52 L186.70 670.33 L184.26 667.59 L182.38 664.54 L179.78 661.84 L177.69 658.87 L176.82 655.30 L175.22 652.09 L173.77 648.81 L173.08 645.20 L169.93 642.66 L167.81 639.65 L166.45 636.31 L166.52 632.41 L165.20 629.07 L163.89 625.73 L164.27 621.78 L165.03 617.72 L163.74 614.41 L163.09 610.89 L162.20 607.45 L162.50 603.65 L161.80 600.17 L159.58 597.14 L158.73 593.70 L155.79 590.82 L151.81 588.15 L147.25 585.56 L141.83 583.09 L138.51 580.06 L133.74 577.29 L132.53 573.71 L131.97 570.00 L131.40 566.30 L130.86 562.59 L130.29 558.89 L130.00 555.15 L129.82 551.40 L130.18 547.58 L131.27 543.70 L132.33 539.85 L132.35 536.13 L132.73 532.39 L132.53 528.71 L131.45 525.09 L131.11 521.41 L130.94 517.71 L130.90 514.02 L131.46 510.31 L133.59 506.58 L134.67 502.91 L136.03 499.26 L138.41 495.65 L140.70 492.08 L141.86 488.52 L142.36 484.96 L143.73 481.44 L144.21 477.90 L142.97 474.24 L141.57 470.53 L141.62 466.92 L140.88 463.23 L138.62 459.34 L137.02 455.48 L134.51 451.46 L132.48 447.44 L129.32 443.20 L127.22 439.06 L127.26 435.23 L130.41 431.97 L133.23 428.69 L134.98 425.23 L138.62 422.21 L140.03 418.73 L140.31 415.01 L141.54 411.50 L142.89 408.04 L142.51 404.12 L142.74 400.34 L142.15 396.31 L141.26 392.15 L140.67 388.04 L141.23 384.27 L144.05 381.24 L146.51 378.12 L148.75 374.94 L152.62 372.39 L154.85 369.28 L155.67 365.64 L158.50 362.79 L161.55 360.07 L162.65 356.56 L166.30 354.15 L168.83 351.30 L169.68 347.69 L171.99 344.76 L174.36 341.88 L175.71 338.51 L178.06 335.64 L179.05 332.08 L178.29 327.56 L177.90 323.18 L172.83 316.12 L171.21 310.86 L170.64 306.12 L167.78 299.93 L170.02 296.76 L171.90 293.36 L174.09 290.17 L176.52 287.13 L178.68 283.91 L180.90 280.73 L183.53 277.85 L186.05 274.90 L188.69 272.05 L192.01 269.71 L194.22 266.56 L196.63 263.56 L199.85 261.21 L203.49 259.22 L207.01 257.18 L211.24 255.77 L215.04 254.06 L218.06 251.70 L222.11 250.29 L224.42 247.34 L226.09 243.78 L230.18 242.50 L232.22 239.28 L233.99 235.77 L237.83 234.33 L240.76 231.99 L243.41 229.36 L247.33 228.10 L251.54 227.22 L254.17 224.61 L256.14 221.26 L258.78 218.65 L259.02 213.18 L258.84 207.06 L259.24 201.52 L260.02 196.31 L261.49 191.89 L264.02 188.78 L267.79 187.31 L271.95 186.40 L275.64 184.91 L279.41 183.54 L283.05 182.05 L286.65 180.49 L289.87 178.40 L293.21 176.50 L296.71 174.84 L299.74 172.46 L302.98 170.40 L305.81 167.62 L308.85 165.18 L312.18 163.24 L315.47 161.23 L318.54 158.77 L321.36 155.83 L325.05 154.53 L328.74 153.25 L332.06 151.23 L336.31 151.18 L340.47 151.00 L344.38 150.35 L348.84 151.04 L352.47 149.85 L356.17 148.86 L359.79 147.70 L363.64 147.13 L367.20 145.85 L370.41 143.61 L373.86 142.00 L376.71 138.59 L379.21 133.97 L381.45 128.31 L384.15 123.84 L386.60 118.27 L389.79 114.93 L393.73 114.14 L397.60 113.13 L401.53 112.36 L405.51 111.80 L409.41 110.95 L413.28 109.94 L417.32 109.70 L421.40 109.77 L425.49 109.95 L429.43 109.46 L433.46 109.44 L437.65 110.57 L441.59 110.27 L445.48 109.58 L449.49 109.88 L453.53 110.51 L457.50 110.75 L461.46 111.07 L465.53 112.67 L469.52 113.78 L473.48 114.95 L477.40 115.91 L481.27 116.23 L485.11 116.12 L488.94 115.37 L492.78 115.07 L496.63 115.27 L500.48 115.10 L504.34 114.01 L508.19 114.25 L512.08 113.53 L516.07 110.58 L520.20 106.08 L524.26 104.33 L528.25 104.15 L532.52 100.53 L536.44 101.69 L540.24 103.88 L544.14 104.88 L548.28 103.73 L552.26 104.11 L556.14 105.14 L560.31 104.31 L564.37 104.26 L567.85 107.67 L571.66 108.95 L575.78 108.60 L579.50 110.29 L582.97 113.06 L587.01 113.17 L591.12 113.01 L594.57 115.62 L598.16 117.54 L602.17 117.84 L606.13 118.38 L609.50 120.97 L613.45 121.53 L617.58 121.56 L620.96 123.99 L624.25 126.61 L628.28 127.00 L632.05 128.17 L634.95 131.73 L638.81 132.61 L642.89 132.94 L645.73 136.45 L649.71 137.06 L654.30 136.30 L658.56 136.41 L662.97 136.28 L668.87 133.00 L674.57 130.37 L678.70 131.23 L683.66 130.45 L688.44 130.18 L692.25 131.84 L695.72 134.16 L699.23 136.39 L702.92 138.29 L706.30 140.72 L709.68 143.15 L713.21 145.31 L716.42 148.00 L719.72 150.51 L723.11 152.86 L726.14 155.77 L728.68 159.37 L730.92 163.37 L733.63 166.61 L735.80 170.57 L737.70 174.84 L740.49 177.83 L743.73 180.21 L746.21 183.57 L749.44 185.95 L752.95 187.99 L756.19 190.38 L759.48 192.71 L761.47 196.56 L764.12 199.61 L766.29 203.19 L767.14 208.16 L769.58 211.34 L772.17 214.35 L775.21 216.89 L778.75 218.93 L782.81 220.48 L789.78 219.26 L797.90 217.11 L802.20 218.72 L809.41 217.73 L817.71 215.93 L820.68 218.99 L823.56 222.14 L826.34 225.38 L829.19 228.55 L831.98 231.78 L834.64 235.12 L837.03 238.67 L839.19 242.39 L840.92 246.41 L843.34 249.90 L845.37 253.67 L846.93 257.76 L850.22 260.63 L853.68 263.42 L856.14 266.90 L859.49 269.80 L862.63 272.87 L865.08 276.39 L867.24 280.09 L869.24 283.88 L871.31 287.62 L873.73 291.17 L875.77 294.93 L877.65 298.78 L879.73 302.52 L881.56 306.40 L883.02 310.45 L884.62 314.42 L886.66 318.18 L888.02 322.25 L889.40 326.31 L891.31 330.13 L892.24 334.37 L892.85 338.72 L893.97 342.85 L895.64 346.75 L896.09 351.11 L896.62 355.42 L898.02 359.40 L897.20 364.15 L896.42 368.83 L896.88 373.06 L897.04 377.37 L898.44 381.29 L900.32 385.08 L902.41 388.82 L903.94 392.74 L904.57 396.89 L904.71 401.15 L906.69 404.97 L905.77 409.45 L906.05 413.64 L907.01 417.68 L904.93 422.31 L903.75 426.72 L902.25 431.13 L901.20 435.44 L901.67 439.48 L902.35 443.48 L903.85 447.38 L904.54 451.40 L903.87 455.58 L903.57 459.69 L903.24 463.79 L902.05 467.95 L902.46 471.96 L903.71 475.93 L904.28 479.95 L904.08 484.01 L906.26 487.99 L912.08 491.94 L918.96 496.00 L957.86 500.00 L962.46 495.38 L967.62 490.65 L973.02 485.81 L974.29 481.02 L973.48 476.31 L972.54 471.61 L971.92 466.91 L971.39 462.21 L970.50 457.54 L969.54 452.89 L969.81 448.11 L969.48 443.39 L967.89 438.83 L967.50 434.12 L967.43 429.36 L965.51 424.88 L962.91 420.54 L959.96 416.30 L957.78 411.96 L954.37 407.89 L953.03 403.44 L951.31 399.08 L948.64 394.95 L947.67 390.45 L945.64 386.21 L943.75 381.95 L941.48 377.82 L940.59 373.31 L939.85 368.74 L937.54 364.65 L934.84 360.71 L932.11 356.80 L928.75 353.14 L924.42 349.87 L921.98 345.96 L919.88 341.96 L916.96 338.28 L914.55 334.42 L912.38 330.49 L909.44 326.89 L906.20 323.45 L904.00 319.58 L901.90 315.68 L898.98 312.17 L896.86 308.29 L894.49 304.55 L891.83 300.96 L889.07 297.44 L886.72 293.73 L884.32 290.05 L881.70 286.49 L879.29 282.83 L876.73 279.27 L874.07 275.77 L871.32 272.34 L868.77 268.80 L866.21 265.27 L863.67 261.74 L861.09 258.23 L859.32 254.17 L857.18 250.36 L854.33 247.04 L852.26 243.16 L850.24 239.23 L846.89 236.29 L843.92 233.08 L841.18 229.70 L837.86 226.78 L834.62 223.83 L831.53 220.76 L828.44 217.70 L825.12 214.85 L821.85 211.97 L821.98 206.01 L822.84 199.24 L822.98 193.02 L825.23 184.63 L825.03 178.46 L823.21 173.80 L820.88 169.61 L816.76 167.25 L811.95 165.68 L807.90 163.33 L803.15 161.79 L798.52 160.18 L794.95 157.40 L790.53 155.62 L786.72 153.16 L782.96 150.66 L779.68 147.56 L775.99 144.97 L771.26 143.77 L767.35 141.51 L763.10 139.76 L757.93 139.31 L753.19 138.36 L748.50 137.38 L743.64 136.74 L738.91 135.98 L734.70 134.47 L730.64 132.78 L726.79 130.76 L722.65 129.24 L718.52 127.72 L714.51 126.04 L710.43 124.51 L706.31 123.07 L702.22 121.60 L698.27 119.91 L694.27 118.30 L691.46 114.33 L689.19 109.15 L686.26 105.17 L684.36 98.85 L682.56 92.07 L679.20 88.59 L675.22 86.48 L671.56 83.58 L666.99 82.88 L661.57 84.42 L657.44 82.72 L653.24 81.22 L648.21 82.07 L644.11 80.36 L640.02 78.59 L635.22 79.01 L630.45 79.47 L626.49 77.34 L622.27 76.08 L617.43 76.99 L613.24 75.68 L609.17 73.87 L604.59 74.06 L599.79 75.31 L595.75 73.39 L591.56 72.08 L586.83 73.42 L582.46 73.09 L578.27 71.81 L573.82 72.01 L569.15 73.69 L564.81 73.47 L560.69 71.84 L556.30 71.99 L551.95 72.05 L547.79 70.39 L543.39 70.98 L538.87 73.05 L534.52 73.65 L530.56 69.11 L526.29 68.15 L522.07 65.83 L517.92 60.90 L513.61 58.31 L509.20 57.68 L504.77 58.21 L500.35 57.70 L495.93 58.00 L491.52 58.42 L487.11 58.64 L482.71 59.21 L478.34 60.09 L474.00 61.39 L469.74 63.49 L465.59 66.41 L461.39 68.32 L457.30 70.99 L453.20 73.16 L449.00 74.20 L444.91 75.96 L440.89 78.08 L436.69 78.85 L432.55 79.92 L428.77 83.06 L424.78 84.76 L420.73 86.07 L416.82 87.98 L412.91 89.81 L409.01 91.56 L404.97 92.68 L401.01 94.08 L397.13 95.78 L393.31 97.66 L389.40 99.13 L385.52 100.68 L380.80 99.39 L375.08 95.03 L369.74 92.23 L364.71 90.65 L359.53 88.82 L354.85 88.63 L351.12 91.14 L347.28 93.29 L343.51 95.58 L339.84 98.09 L335.86 99.77 L332.58 103.14 L328.93 105.53 L326.02 109.56 L322.74 112.68 L319.57 115.94 L316.66 119.69 L312.84 121.49 L309.33 123.89 L306.15 126.93 L302.17 128.40 L298.33 130.15 L294.66 132.22 L291.18 134.62 L287.30 136.32 L283.24 137.73 L279.60 139.87 L276.03 142.13 L272.63 144.65 L269.62 147.75 L265.97 149.86 L263.41 153.59 L260.60 156.89 L257.97 160.40 L255.39 163.94 L253.24 168.02 L250.83 171.70 L247.03 173.51 L241.62 173.34 L235.19 172.00 L229.14 171.28 L223.41 171.09 L217.97 171.35 L215.00 174.53 L212.43 178.15 L210.32 182.23 L209.04 187.18 L207.31 191.56 L204.78 195.06 L202.04 198.33 L200.36 202.64 L197.26 205.50 L193.77 208.01 L192.43 212.55 L189.30 215.39 L186.60 218.63 L185.38 223.17 L183.74 227.29 L182.67 231.85 L181.95 236.65 L181.17 241.34 L180.27 245.86 L178.63 249.76 L176.08 252.94 L173.93 256.42 L172.06 260.09 L170.25 263.79 L168.29 267.37 L166.72 271.21 L164.82 274.81 L163.03 278.46 L161.58 282.32 L159.49 285.76 L157.68 289.37 L156.00 293.05 L149.15 293.68 L143.57 295.17 L139.53 297.61 L131.24 297.78 L126.91 300.24 L125.22 304.13 L123.55 308.02 L123.30 312.62 L123.22 317.25 L121.85 321.24 L120.02 325.00 L117.40 328.41 L116.14 332.44 L115.40 336.67 L113.41 340.37 L114.09 345.15 L114.27 349.68 L112.72 353.52 L113.35 358.16 L114.62 362.98 L114.79 367.37 L115.58 371.93 L115.85 376.27 L114.46 380.07 L112.44 383.68 L109.50 387.04 L107.44 390.68 L106.03 394.52 L104.00 398.21 L103.65 402.34 L103.41 406.47 L101.67 410.26 L102.13 414.53 L103.96 419.06 L104.88 423.36 L106.62 427.77 L108.62 432.18 L107.65 436.04 L104.87 439.64 L102.08 443.28 L100.02 447.06 L96.07 450.64 L93.44 454.44 L92.09 458.42 L89.51 462.30 L88.85 466.38 L87.21 470.40 L86.21 474.48 L85.83 478.61 L87.43 482.83 L88.07 486.98 L89.42 491.13 L92.17 495.27 L93.96 499.35 L95.78 503.40 L97.65 507.41 L99.75 511.37 L101.32 515.32 L102.10 519.28 L102.61 523.24 L103.89 527.14 L104.27 531.09 L104.75 535.03 L106.51 538.85 L107.57 542.71 L109.53 546.45 L111.60 550.15 L112.76 553.94 L114.24 557.67 L115.76 561.38 L116.78 565.15 L117.78 568.92 L119.27 572.59 L120.59 576.28 L120.98 580.15 L118.76 584.62 L117.73 588.86 L115.67 593.40 L114.66 597.74 L113.37 602.19 L113.44 606.32 L115.29 609.96 L114.99 614.23 L114.95 618.44 L116.72 622.10 L117.70 626.01 L118.32 630.06 L120.58 633.53 L123.94 636.59 L127.74 639.44 L129.95 642.85 L132.00 646.30 L135.45 649.17 L137.15 652.73 L138.40 656.48 L138.53 660.73 L141.39 663.78 L143.75 667.02 L145.75 670.42 L148.56 673.43 L150.20 676.99 L151.76 680.60 L153.53 684.10 L154.76 687.89 L155.24 692.13 L156.89 695.72 L159.54 698.76 L162.76 701.42 L167.08 703.39 L168.85 706.88 L172.09 709.44 L175.26 712.02 L172.05 718.83 L172.32 723.41 L172.96 727.80 L172.20 733.23 L175.09 736.11 L177.55 739.28 L182.13 740.85 L186.64 742.40 L189.19 745.44 L188.17 751.35 L189.90 755.11 L192.98 757.77 L193.97 762.20 L197.83 764.18 L202.61 765.29 L208.02 765.75 L213.14 766.38 L216.45 768.64 L217.60 772.97 L218.24 777.85 L220.96 780.72 L221.22 786.13 L223.96 789.05 L228.01 790.56 L230.94 793.26 L235.65 793.97 L240.18 794.81 L242.06 798.65 L242.53 804.20 L248.00 803.84 L250.82 806.63 L253.17 810.03 L257.52 810.90 L261.26 812.50 L264.99 814.07 L269.53 814.52 L271.97 817.81 L271.87 824.75 L276.40 825.17 L279.71 827.31 L280.75 832.91 L284.32 834.72 L288.75 835.16 L293.58 834.88 L297.35 836.25 L301.93 836.21 L304.43 839.69 L307.41 842.38 L310.96 844.09 L313.49 847.67 L316.75 849.94 L320.44 851.40 L325.07 850.96 L330.00 849.79 L334.78 848.79 L337.28 852.58 L339.71 856.65 L344.29 855.94 L346.46 860.75 L348.81 865.32 L352.88 865.81 L357.19 865.60 L361.02 866.57 L364.98 867.17 L369.78 865.34 L372.56 869.19 L376.20 870.62 L380.76 869.20 L383.85 872.34 L387.49 873.76 L391.67 873.36 L396.06 872.12 L400.43 870.72 L404.30 871.09 L407.39 874.55 L410.52 878.10 L414.38 878.61 L417.65 881.90 L421.14 884.31 L425.36 883.19 L429.73 880.97 L433.81 880.13 L438.05 878.11 L441.72 879.48 L444.93 884.17 L449.00 882.99 L452.45 886.60 L456.08 889.11 L460.32 886.20 L464.23 886.01 L468.35 883.25 L472.57 878.33 L476.52 875.92 L480.02 881.02 L483.79 882.21 L487.64 881.39 L491.35 886.31 L495.21 887.00 L499.08 886.66 L502.92 884.23 L506.74 882.84 L510.48 879.35 L514.39 882.45 L518.28 883.67 L521.79 877.83 L525.87 882.00 L529.65 881.27 L533.27 878.78 L536.97 877.57 L540.52 875.07 L544.00 872.41 L548.15 875.28 L552.51 879.14 L555.94 876.19 L560.31 879.46 L564.80 882.97 L568.37 880.91 L571.67 877.50 L575.20 875.56 L578.28 871.61 L581.23 867.38 L585.52 869.20 L589.09 867.87 L592.83 867.20 L597.39 869.64 L601.53 870.29 L604.63 867.17 L607.38 863.01 L610.23 859.39 L612.56 854.31 L617.04 856.03 L621.19 856.60 L624.22 853.85 L629.77 858.15 L633.74 857.90 L637.26 856.41 L640.32 853.76 L643.39 851.21 L645.92 847.45 L648.67 844.31 L652.80 844.37 L655.34 840.86 L659.00 839.85 L663.13 839.78 L666.70 838.49 L669.16 835.00 L671.62 831.58 L673.73 827.59 L675.87 823.76 L680.89 825.21 L684.69 824.36 L688.01 822.65 L693.68 824.86 L696.89 822.86 L699.90 820.55 L702.97 818.34 L704.04 813.06 L706.09 809.39 L710.90 809.85 L714.97 809.14 L716.85 805.28 L721.40 805.19 L725.27 804.08 L726.73 799.73 L727.17 794.16 L727.76 788.90 L728.27 783.67 L730.48 780.62 L737.40 783.22 L739.97 780.54 L744.70 780.35 L749.80 780.47 L751.63 776.91 L753.02 772.91 L753.43 767.92 L753.38 762.56 L754.15 758.14 L761.06 759.91 L761.54 755.22 L764.56 753.06 L771.19 754.26 L772.40 750.32 L774.12 746.89 L775.16 742.89 L774.85 737.76 L775.58 733.62 L779.76 732.39 L783.76 730.96 L785.87 727.97 L791.90 728.04 L795.84 726.39 L797.69 723.12 L796.86 717.90 L798.81 714.76 L800.33 711.33 L802.26 708.20 L805.48 705.95 L807.24 702.70 L808.59 699.19 L809.58 695.47 L809.30 690.99 L808.20 686.08 L808.58 682.13 L810.23 678.94 L812.72 676.23 L820.79 676.57 L822.74 673.47 L825.05 670.54 L828.89 668.39 L828.81 664.22 L827.90 659.69 L827.36 655.39 L828.12 651.75 L828.01 647.74 L831.53 645.35 L832.83 641.97 L832.12 637.76 L835.62 635.29 L838.07 632.37 L836.09 627.73 L836.33 623.99 L837.17 620.48 L836.32 616.40 L838.16 613.26 L844.00 611.40 L845.19 607.98 L848.10 605.09 L850.93 602.12 L849.13 597.82 L847.73 593.69 L846.45 589.64 L842.97 585.09 L843.00 581.47 L848.31 579.05 L850.28 575.83 L850.92 572.30 L855.56 569.56 L856.44 566.03 L853.96 561.92 L851.54 557.88 L850.05 554.05 L846.65 549.98 L851.17 547.05 L853.85 543.81 L852.13 540.03 L858.13 537.09 L858.97 533.55 L855.95 529.68 L857.02 526.18 L854.69 522.44 L849.98 518.63 L854.30 515.31 L855.32 511.80 L851.44 508.15 L854.33 504.67 L856.65 501.14 L856.03 497.57 L851.23 494.09 L850.73 490.59 L848.93 487.15 L846.60 483.76 L852.03 479.98 L851.23 476.50 L851.04 472.98 L856.12 469.01 L855.25 465.50 L853.16 462.13 L852.28 458.66 L852.00 455.12 L850.43 451.75 L852.71 447.84 L852.62 444.25 L848.78 441.27 L848.14 437.79 L847.50 434.32 L842.53 431.70 L838.94 428.88 L838.81 425.37 L836.75 422.28 L839.61 418.04 L842.12 413.80 L839.34 410.89 L842.54 406.37 L841.64 402.94 L838.05 400.29 L835.46 397.40 L832.80 394.56 L828.58 392.27 L826.99 389.16 L828.35 385.03 L826.70 381.92 L827.16 378.04 L828.13 373.93 L825.86 371.05 L822.44 368.66 L819.12 366.27 L815.76 363.96 L811.84 361.93 L813.69 357.34 L814.21 353.30 L812.32 350.35 L814.17 345.59 L811.69 342.92 L809.03 340.37 L805.82 338.13 L800.30 337.19 L798.06 334.52 L798.64 330.27 L799.58 325.75 L797.81 322.77 L797.54 318.88 L796.28 315.56 L793.65 313.10 L789.94 311.36 L784.41 310.88 L781.07 309.02 L777.97 307.03 L779.39 301.88 L777.72 298.86 L776.14 295.77 L776.98 290.82 L774.27 288.54 L771.60 286.23 L767.33 285.22 L762.26 284.95 L757.63 284.40 L758.91 278.89 L755.72 277.16 L752.11 275.82 L755.10 268.56 L751.52 267.18 L746.73 266.99 L744.56 264.36 L740.78 263.32 L736.59 262.74 L736.98 257.54 L736.78 252.85 L733.63 251.21 L733.83 245.96 L731.50 243.38 L727.07 243.18 L723.88 241.62 L721.08 239.64 L716.19 240.17 L714.27 237.18 L712.79 233.60 L708.54 233.50 L706.78 230.24 L703.71 228.66 L699.78 228.28 L695.44 228.53 L691.06 228.95 L688.15 227.32 L684.69 226.52 L685.46 219.37 L683.60 216.06 L681.21 213.51 L680.63 208.00 L677.40 206.71 L673.55 206.48 L669.49 206.70 L665.56 206.76 L660.28 209.37 L657.42 207.67 L654.87 205.39 L650.75 206.13 L648.80 202.66 L646.71 199.35 L643.09 199.18 L639.45 199.11 L636.39 197.82 L633.16 196.94 L629.79 196.39 L628.55 190.77 L626.13 187.82 L622.98 186.65 L620.50 183.70 L616.86 183.78 L612.52 185.88 L608.55 187.16 L604.18 189.78 L600.54 190.38 L599.21 183.75 L596.57 181.01 L593.08 181.10 L591.10 175.85 L588.00 174.41 L583.67 177.67 L579.67 179.95 L576.00 181.14 L572.03 183.81 L568.90 182.96 L566.54 178.31 L563.19 178.37 L560.15 176.75 L557.32 173.86 L553.83 174.68 L550.52 174.54 L547.28 173.88 L543.72 175.67 L540.63 173.96 L537.90 168.95 L534.07 173.52 L530.97 171.39 L527.78 170.03 L524.24 172.88 L520.92 173.52 L517.52 175.67 L514.17 178.04 L510.87 180.23 L507.80 174.61 L504.56 173.63 L501.29 174.82 L498.01 168.80 L494.69 168.48 L491.39 169.19 L488.14 170.91 L484.95 173.13 L481.82 175.75 L478.55 175.53 L475.22 174.63 L472.19 177.50 L468.92 177.27 L465.43 175.12 L462.43 177.63 L459.64 181.40 L456.73 183.85 L453.68 185.03 L450.39 184.60 L446.51 180.75 L443.44 182.00 L439.83 180.26 L436.10 178.18 L433.30 180.82 L430.44 183.01 L427.45 184.49 L424.65 186.70 L422.11 189.79 L418.31 187.91 L415.32 189.23 L413.24 193.68 L409.67 192.85 L406.64 193.87 L404.38 197.35 L402.01 200.32 L399.08 201.50 L396.02 202.29 L393.48 204.54 L390.31 205.02 L387.66 206.90 L385.89 210.98 L383.54 213.45 L381.74 217.16 L379.68 220.12 L377.30 222.27 L374.94 224.42 L372.59 226.55 L369.69 227.46 L366.89 228.61 L364.52 230.64 L361.51 231.38 L359.07 233.24 L356.75 235.28 L354.56 237.55 L352.34 239.71 L350.13 241.86 L347.75 243.71 L344.85 244.67 L342.52 246.58 L339.82 247.89 L337.11 249.21 L335.05 251.51 L332.76 253.45 L330.42 255.30 L328.75 258.09 L326.39 259.89 L323.57 261.06 L321.79 263.63 L319.64 265.69 L317.03 267.15 L315.36 269.80 L313.79 272.55 L311.61 274.52 L310.07 277.24 L308.31 279.68 L305.32 280.71 L303.53 283.10 L301.74 285.47 L299.31 287.16 L297.64 289.64 L296.17 292.31 L294.38 294.63 L292.88 297.23 L291.21 299.65 L288.53 301.10 L286.77 303.43 L285.26 305.97 L282.99 307.82 L281.44 310.32 L280.10 312.98 L278.61 315.49 L277.26 318.11 L275.81 320.63 L273.48 322.46 L271.84 324.82 L270.55 327.46 L268.46 329.48 L267.16 332.09 L266.06 334.82 L264.81 337.44 L263.60 340.08 L262.40 342.71 L260.41 344.81 L258.82 347.18 L257.73 349.87 L254.83 351.44 L252.79 353.57 L251.91 356.37 L250.20 358.70 L248.29 360.93 L247.77 363.91 L247.14 366.82 L239.97 366.35 L238.52 368.89 L238.46 372.11 L232.41 372.46 L233.07 376.03 L233.09 379.27 L233.21 382.53 L230.43 384.51 L232.20 388.42 L230.10 390.70 L229.17 393.46 L226.08 395.40 L229.02 399.61 L225.88 401.56 L223.21 403.71 L220.65 405.94 L224.69 410.36 L220.79 412.17 L220.19 415.04 L215.66 416.77 L218.86 420.74 L216.47 423.12 L214.45 425.63 L211.72 427.99 L215.28 431.90 L216.06 435.08 L207.91 436.28 L210.62 439.90 L207.78 442.35 L208.74 445.56 L207.12 448.28 L210.42 451.85 L212.74 455.18 L212.58 458.10 L212.02 460.95 L205.82 463.10 L209.45 466.50 L203.11 468.78 L205.28 471.98 L204.87 474.92 L207.95 478.12 L211.40 481.28 L208.33 484.01 L207.46 486.89 L204.33 489.71 L209.35 492.80 L201.73 495.59 L206.10 498.60 L204.20 501.54 L206.31 504.47 L203.26 507.49 L203.06 510.46 L207.98 513.21 L204.35 516.34 L209.95 518.94 L208.59 521.96 L213.21 524.50 L209.81 527.72 L212.23 530.39 L210.84 533.47 L209.58 536.56 L210.83 539.34 L209.32 542.51 L213.33 544.86 L210.53 548.27 L214.87 550.48 L211.11 554.13 L215.52 556.25 L213.21 559.70 L214.82 562.34 L215.60 565.16 L219.95 567.12 L219.04 570.31 L222.59 572.38 L223.72 575.04 L221.96 578.51 L227.20 579.99 L225.76 583.40 L228.88 585.42 L226.97 589.03 L232.72 590.13 L231.69 593.47 L233.72 595.76 L234.82 598.37 L238.98 599.81 L238.84 602.87 L241.25 604.92 L242.39 607.47 L241.93 610.70 L246.07 611.95 L243.15 616.32 L247.72 617.30 L245.56 621.41 L250.18 622.29 L250.36 625.31 L253.03 627.08 L255.09 629.13 L257.17 631.15 L259.02 633.29 L261.23 635.20 L262.68 637.53 L261.79 641.25 L265.12 642.47 L262.96 647.04 L267.11 647.71 L266.02 651.70 L269.80 652.54 L270.09 655.68 L273.34 656.81 L274.82 659.14 L277.69 660.47 L278.97 662.93 L282.84 663.46 L281.64 667.80 L284.31 669.21 L285.49 671.77 L284.39 676.22 L287.85 676.96 L288.24 680.26 L291.31 681.28 L291.56 684.75 L297.01 683.57 L297.32 687.01 L301.54 686.83 L301.97 690.20 L306.54 689.56 L305.78 694.15 L307.91 695.90 L310.54 697.12 L309.78 701.92 L313.73 701.73 L313.62 705.95 L318.37 704.77 L318.72 708.54 L322.95 707.84 L325.19 709.42 L329.27 708.74 L329.91 712.25 L334.32 711.04 L336.04 713.20 L338.74 714.09 L340.84 715.76 L341.61 719.27 L345.50 718.46 L344.42 724.71 L348.98 722.86 L349.80 726.48 L353.26 726.15 L354.58 729.10 L357.33 729.82 L358.94 732.38 L362.28 732.08 L363.75 734.93 L367.29 734.18 L370.53 733.89 L372.27 736.28 L375.48 735.97 L377.08 738.69 L380.59 737.67 L380.49 743.92 L385.02 740.74 L386.31 744.28 L389.21 744.41 L391.31 746.30 L394.36 746.03 L396.45 747.97 L398.54 749.97 L402.33 747.70 L403.50 752.09 L407.64 748.71 L409.71 750.79 L413.51 747.98 L415.43 750.50 L419.00 748.10 L420.60 751.71 L423.05 752.71 L425.79 752.76 L427.14 757.67 L429.39 759.59 L431.72 761.31 L435.11 758.92 L436.73 763.59 L440.43 759.58 L443.47 758.14 L446.27 757.67 L448.75 758.69 L452.26 754.29 L453.71 760.93 L456.96 757.55 L459.05 761.09 L461.64 761.67 L464.47 760.45 L466.51 765.29 L469.62 761.67 L471.91 765.04 L474.83 762.60 L477.48 762.48 L480.22 761.17 L482.85 761.20 L485.63 758.25 L487.89 765.45 L490.72 760.89 L493.21 765.41 L495.83 767.43 L498.54 762.09 L501.18 767.67 L503.81 764.13 L506.43 763.33 L509.07 763.28 L511.71 763.32 L514.14 759.62 L516.99 763.37 L519.37 759.77 L522.41 764.77 L524.79 761.74 L527.59 763.21 L530.41 764.62 L532.68 761.27 L535.72 764.10 L537.92 760.74 L541.10 764.06 L543.05 759.43 L546.01 761.12 L548.13 758.02 L551.11 759.58 L552.61 753.76 L555.98 757.07 L557.87 753.53 L560.42 752.99 L563.07 752.89 L565.13 750.43 L568.53 753.10 L570.20 749.37 L573.96 752.98 L575.20 747.97 L579.27 752.31 L580.80 748.45 L583.45 748.13 L586.36 748.52 L587.67 744.39 L590.34 744.14 L591.57 740.05 L593.89 738.93 L594.52 733.64 L597.51 734.27 L598.42 729.94 L601.78 731.37 L603.38 728.77 L605.96 728.36 L609.56 730.06 L610.42 726.03 L615.09 729.74 L615.39 724.70 L619.27 726.63 L619.70 722.05 L622.14 721.24 L623.47 718.45 L626.52 718.73 L626.81 714.26 L629.38 713.69 L632.04 713.23 L633.73 711.22 L636.97 711.62 L637.18 707.37 L641.64 709.53 L642.31 706.05 L645.51 706.25 L645.67 702.15 L647.70 700.71 L648.27 697.31 L650.64 696.35 L649.68 691.11 L653.68 692.22 L653.98 688.69 L657.81 689.50 L659.98 688.24 L661.81 686.58 L664.57 685.96 L665.30 683.08 L668.03 682.40 L666.98 677.66 L668.87 676.11 L668.94 672.69 L671.53 671.87 L670.17 667.13 L675.12 668.58 L675.15 665.27 L678.51 665.09 L680.45 663.57 L681.99 661.68 L686.18 662.10 L684.70 657.59 L688.52 657.62 L688.46 654.40 L689.91 652.43 L689.15 648.74 L692.11 647.98 L689.97 643.33 L693.84 643.23 L693.45 639.98 L694.97 638.13 L696.54 636.31 L697.63 634.15 L701.41 633.80 L699.20 629.48 L703.78 629.58 L703.64 626.64 L706.41 625.52 L706.99 623.06 L710.24 622.16 L708.29 618.26 L712.96 618.11 L710.51 614.01 L710.97 611.55 L711.02 608.89 L712.55 607.00 L714.90 605.50 L713.20 602.03 L718.32 601.81 L716.18 598.20 L719.33 596.99 L717.40 593.55 L720.31 592.21 L719.61 589.34 L723.78 588.44 L723.52 585.76 L723.91 583.35 L726.65 581.80 L722.89 577.94 L725.34 576.27 L722.49 572.84 L724.96 571.16 L721.98 567.79 L724.78 566.19 L724.08 563.56 L724.83 561.35 L725.51 559.11 L729.56 557.73 L729.99 555.40 L729.86 552.94 L733.67 551.36 L730.56 548.27 L729.69 545.69 L729.55 543.28 L732.20 541.38 L727.77 538.25 L732.38 536.64 L729.73 533.87 L731.05 531.70 L728.16 528.99 L732.12 527.13 L733.26 524.91 L731.85 522.41 L735.33 520.38 L733.44 517.86 L732.96 515.48 L732.01 513.09 L734.59 510.89 L730.43 508.38 L735.67 506.22 L732.44 503.81 L736.39 501.51 L734.50 499.15 L732.99 496.82 L736.98 494.40 L733.73 492.14 L732.47 489.85 L733.62 487.46 L732.64 485.18 L729.66 483.06 L734.66 480.33 L730.47 478.36 L735.69 475.49 L730.75 473.67 L732.42 471.12 L730.56 469.01 L731.05 466.58 L732.03 464.07 L730.61 461.93 L734.68 458.84 L730.82 457.13 L730.98 454.71 L728.52 452.81 L728.86 450.35 L722.55 449.39 L729.57 445.37 L724.47 444.20 L724.97 441.69 L724.04 439.53 L723.39 437.30 L722.54 435.13 L719.15 433.73 L721.75 430.52 L717.41 429.49 L721.94 425.56 L716.93 424.82 L719.56 421.44 L720.15 418.73 L715.27 418.08 L715.40 415.55 L711.53 414.62 L710.01 412.78 L704.57 412.63 L707.08 409.10 L703.86 408.07 L702.72 406.14 L702.41 403.81 L699.57 402.70 L699.36 400.32 L695.07 400.02 L698.94 395.51 L694.22 395.50 L696.03 391.98 L693.62 390.77 L692.36 388.93 L689.88 387.82 L689.89 385.24 L687.90 383.86 L685.21 382.94 L685.84 379.93 L683.05 379.12 L682.67 376.73 L678.03 377.25 L681.49 372.17 L677.60 372.23 L677.36 369.70 L675.26 368.52 L673.94 366.77 L670.05 367.03 L671.48 363.13 L667.18 363.80 L665.75 362.19 L665.28 359.76 L663.85 358.13 L661.83 357.02 L660.43 355.37 L660.44 352.43 L657.64 352.08 L658.10 348.64 L653.81 349.77 L652.59 347.95 L648.94 348.59 L651.16 343.23 L645.99 345.53 L644.85 343.63 L644.52 340.82 L642.08 340.33 L640.02 339.44 L637.92 338.61 L639.58 333.32 L635.04 335.43 L636.29 330.48 L633.25 330.83 L631.31 329.82 L627.88 330.79 L627.04 328.35 L623.19 330.03 L622.33 327.62 L620.28 326.86 L618.59 325.60 L618.01 322.67 L614.78 323.72 L614.87 319.67 L610.91 321.97 L609.77 319.82 L606.70 320.85 L606.33 317.35 L603.84 317.45 L603.44 313.83 L600.71 314.41 L600.00 311.23 L597.34 311.73 L594.26 313.12 L592.59 311.77 L590.31 311.67 L589.40 308.69 L585.83 311.44 L585.73 306.56 L582.31 309.14 L580.81 307.35 L577.83 309.13 L576.44 307.04 L573.68 308.44 L572.71 305.15 L571.27 303.03 L568.38 304.94 L567.79 300.24 L564.42 303.75 L562.86 301.83 L559.85 304.57 L557.99 303.63 L555.46 305.06 L554.38 301.33 L552.01 302.22 L549.61 303.39 L548.39 299.81 L546.54 298.65 L544.54 298.13 L542.13 299.54 L541.03 294.61 L538.47 296.86 L536.52 296.05 L534.24 297.09 L532.40 295.57 L529.74 299.38 L528.40 294.23 L525.83 298.01 L523.91 296.91 L521.89 296.52 L519.81 296.74 L518.00 294.03 L515.75 296.34 L514.04 291.30 L511.84 293.18 L509.78 292.75 L507.64 294.40 L505.61 293.59 L503.47 297.61 L501.48 293.91 L499.43 297.85 L497.35 293.90 L495.31 294.79 L493.37 298.28 L491.14 293.17 L489.18 295.47 L487.08 294.72 L485.01 294.51 L482.91 294.18 L481.16 297.67 L478.57 292.35 L476.99 296.94 L474.47 293.17 L472.75 296.04 L470.54 295.16 L468.56 295.88 L467.12 299.84 L464.81 298.42 L463.10 300.43 L460.28 296.57 L458.99 300.58 L456.46 298.51 L454.71 300.11 L452.15 298.20 L451.38 303.72 L448.34 300.03 L447.11 303.44 L445.05 303.61 L442.95 303.71 L441.88 307.22 L439.24 305.52 L438.20 308.94 L435.23 306.39 L435.12 312.31 L431.30 307.52 L430.26 310.61 L427.67 309.48 L425.85 310.41 L423.99 311.26 L422.35 312.61 L421.15 314.97 L419.38 315.95 L419.27 320.59 L415.40 316.91 L416.34 323.59 L412.22 319.58 L410.98 321.59 L409.45 322.98 L406.87 322.34 L405.63 324.28 L403.51 324.56 L403.34 328.34 L399.55 325.70 L399.95 330.34 L396.87 329.06 L396.89 332.89 L395.62 334.56 L395.37 337.78 L392.51 336.94 L390.85 337.98 L390.61 341.07 L388.33 341.18 L384.18 338.73 L384.61 342.68 L383.06 343.87 L379.42 342.31 L380.84 347.36 L376.92 345.55 L377.97 349.96 L376.23 350.89 L373.06 350.16 L374.69 355.04 L369.61 352.18 L370.56 356.18 L371.83 360.43 L367.76 358.85 L368.55 362.48 L371.58 368.32 L367.86 367.18 L364.60 366.59 L366.51 371.09 L367.84 374.90 L364.79 374.55 L364.35 376.64 L361.83 376.85 L361.34 378.88 L361.12 381.12 L359.18 381.88 L358.72 383.88 L356.68 384.58 L352.69 383.78 L349.97 384.05 L347.18 384.32 L346.84 386.45 L347.64 389.39 L350.56 393.77 L348.37 394.48 L345.35 394.66 L344.25 396.17 L343.07 397.64 L342.20 399.31 L344.60 403.01 L344.55 405.13 L340.09 404.59 L337.52 405.25 L337.10 407.17 L335.10 408.20 L336.52 411.12 L336.85 413.40 L334.11 414.06 L332.94 415.57 L332.23 417.31 L330.47 418.53 L329.45 420.13 L326.75 420.97 L325.92 422.69 L324.14 423.99 L322.04 425.19 L321.38 427.00 L321.02 428.94 L322.42 431.54 L324.53 434.36 L322.01 435.44 L321.21 437.16 L320.12 438.79 L320.49 440.92 L323.10 443.73 L322.86 445.60 L319.05 446.40 L319.78 448.57 L324.26 451.75 L320.52 452.65 L317.45 453.78 L322.21 456.88 L321.63 458.62 L320.42 460.23 L324.74 463.02 L319.47 463.79 L318.68 465.51 L319.73 467.58 L317.92 469.13 L320.98 471.48 L318.79 472.99 L319.35 474.92 L325.16 477.50 L319.71 478.63 L322.74 480.79 L325.07 482.81 L319.61 484.09 L324.61 486.30 L318.62 487.65 L316.15 489.33 L321.59 491.44 L314.17 492.94 L316.88 494.88 L321.96 496.80 L314.78 498.52 L317.93 500.37 L323.49 502.12 L315.00 504.08 L316.38 505.88 L325.29 507.35 L319.68 509.39 L318.81 511.25 L327.78 512.43 L327.23 514.20 L326.45 516.02 L332.99 517.10 L333.86 518.69 L328.98 520.98 L334.05 522.04 L336.54 523.37 L328.81 526.23 L329.88 527.81 L335.56 528.57 L329.51 531.38 L325.76 533.88 L332.02 534.41 L333.67 535.81 L329.95 538.39 L329.21 540.36 L334.40 540.88 L334.55 542.61 L332.24 544.99 L336.60 545.58 L341.88 545.82 L344.22 546.83 L347.06 547.65 L349.61 548.51 L351.20 549.65 L352.75 550.77 L353.97 551.99 L355.00 553.26 L356.04 554.52 L356.73 555.91 L357.47 557.27 L357.89 558.75 L358.70 560.08 L359.67 561.33 L360.37 562.70 L361.20 564.00 L361.26 565.66 L356.27 569.79 L355.58 571.92 L353.83 574.63 L350.90 578.01 L350.18 580.31 L348.15 583.36 L347.84 585.52 L347.11 587.95 L346.58 590.31 L346.45 592.47 L347.33 594.03 L348.99 595.10 L349.91 596.64 L351.25 597.89 L352.27 599.35 L353.22 600.86 L355.48 601.45 L357.01 602.52 L358.96 603.28 L360.20 604.53 L361.57 605.68 L363.15 606.66 L364.35 607.92 L365.90 608.89 L368.37 609.09 L371.83 608.40 L373.94 608.80 L376.12 609.10 L378.28 609.38 L379.85 610.16 L380.16 612.10 L381.54 613.05 L384.28 612.67 L385.95 613.28 L387.75 613.75 L390.22 613.49 L392.40 613.50 L392.84 615.32 L393.22 617.23 L394.52 618.16 L396.05 618.81 L397.93 619.05 L399.58 619.52 L402.01 619.02 L404.38 618.54 L406.33 618.54 L407.88 619.00 L409.67 619.12 L411.58 619.06 L412.77 619.96 L414.38 620.24 L415.65 621.00 L416.94 621.74 L418.50 622.05 L420.15 622.21 L421.79 622.35 L422.85 623.40 L424.38 623.68 L425.69 624.32 L426.95 625.03 L428.42 625.37 L430.05 625.42 L431.61 625.56 L432.70 626.55 L434.20 626.78 L435.51 627.34 L436.81 627.95 L438.28 628.17 L439.87 628.14 L441.38 628.25 L442.53 629.11 L444.02 629.24 L445.34 629.73 L446.67 630.20 L448.13 630.34 L449.68 630.22 L451.15 630.28 L452.36 631.02 L453.82 631.07 L455.15 631.46 L456.49 631.83 L457.94 631.86 L459.45 631.68 L460.88 631.68 L462.14 632.28 L463.58 632.23 L464.91 632.55 L466.27 632.78 L467.70 632.72 L469.16 632.47 L470.56 632.41 L471.85 632.87 L473.26 632.74 L474.60 632.96 L475.96 633.07 L477.35 632.93 L478.77 632.62 L480.14 632.50 L481.45 632.82 L482.83 632.61 L484.16 632.73 L485.51 632.71 L486.87 632.51 L488.24 632.12 L489.59 631.94 L490.90 632.13 L492.24 631.84 L493.57 631.86 L494.89 631.73 L496.22 631.46 L497.54 631.00 L498.85 630.75 L500.16 630.81 L501.47 630.46 L502.77 630.38 L504.07 630.14 L505.36 629.80 L506.63 629.26 L507.91 628.96 L509.20 628.88 L510.46 628.46 L511.74 628.30 L513.00 627.96 L514.25 627.54 L515.47 626.94 L516.71 626.57 L517.97 626.37 L519.19 625.89 L520.44 625.64 L521.65 625.20 L522.85 624.71 L524.02 624.05 L525.22 623.61 L526.44 623.31 L527.61 622.75 L528.83 622.43 L529.99 621.90 L531.14 621.33 L532.25 620.61 L533.40 620.11 L534.58 619.71 L535.70 619.09 L536.87 618.68 L537.98 618.07 L539.08 617.44 L540.12 616.66 L541.23 616.10 L542.36 615.60 L543.42 614.92 L544.55 614.43 L545.59 613.74 L546.63 613.05 L547.61 612.23 L548.67 611.60 L549.74 611.01 L550.74 610.28 L551.81 609.70 L552.80 608.95 L553.78 608.21 L554.69 607.33 L555.69 606.64 L556.69 605.97 L557.63 605.18 L558.64 604.53 L559.56 603.72 L560.47 602.92 L561.31 601.99 L562.25 601.25 L563.18 600.50 L564.06 599.67 L565.00 598.95 L565.85 598.08 L566.69 597.23 L567.46 596.26 L568.34 595.47 L569.19 594.66 L570.00 593.77 L570.87 592.99 L571.65 592.08 L572.42 591.18 L573.11 590.18 L573.92 589.34 L574.70 588.46 L575.43 587.54 L576.24 586.71 L576.93 585.75 L577.63 584.81 L578.25 583.79 L578.98 582.90 L579.69 581.98 L580.35 581.02 L581.07 580.13 L581.69 579.15 L582.32 578.17 L582.86 577.12 L583.52 576.19 L584.14 575.23 L584.73 574.25 L585.37 573.31 L585.92 572.30 L586.46 571.29 L586.93 570.23 L587.51 569.27 L588.06 568.28 L588.56 567.26 L589.13 566.30 L589.59 565.26 L590.06 564.23 L590.45 563.16 L590.96 562.17 L591.42 561.15 L591.85 560.12 L592.33 559.12 L592.72 558.07 L593.10 557.02 L593.42 555.94 L593.85 554.93 L594.23 553.90 L594.58 552.85 L594.98 551.83 L595.29 550.77 L595.59 549.71 L595.84 548.63 L596.18 547.60 L596.48 546.55 L596.76 545.50 L597.07 544.47 L597.30 543.40 L597.53 542.34 L597.71 541.26 L597.97 540.22 L598.19 539.17 L598.39 538.11 L598.62 537.07 L598.77 536.01 L598.93 534.95 L599.04 533.87 L599.21 532.83 L599.35 531.78 L599.48 530.72 L599.62 529.68 L599.70 528.62 L599.78 527.57 L599.82 526.51 L599.92 525.47 L599.98 524.42 L600.03 523.38 L600.09 522.34 L600.10 521.29 L600.11 520.25 L600.08 519.20 L600.10 518.17 L600.08 517.13 L600.05 516.10 L600.03 515.07 L599.97 514.04 L599.89 513.01 L599.79 511.99 L599.71 510.97 L599.62 509.95 L599.51 508.94 L599.40 507.92 L599.27 506.92 L599.12 505.91 L598.96 504.91 L598.80 503.91 L598.63 502.92 L598.45 501.93 L598.27 500.94 Z"/>
  <svg class="pausebutton" id="pausebutton">
    <circle cx="500" cy="500" id="pausestart" class="pausestart" r="52.65"/>
    <rect height="50.02" width="10.00" y="473.68" rx="2.00" ry="2.00" x="479.99" class="pausesymbol"/>
    <rect height="50.02" width="10.00" y="473.68" rx="2.00" ry="2.00" x="510.00" class="pausesymbol"/>
    <polygon points="530.01,500 479.99,530.01 479.99,469.99" class="playsymbol"/>
  </svg>
  <polygon id="playback-head" class="playback-head" points="941.65,500 921.65,540 961.65,540"/>
</svg>