<?xml-stylesheet href="../../style/waveformjs.css" type="text/css"?>
<svg xmlns="http://www.w3.org/2000/svg" xmlns:xlink="http://www.w3.org/1999/xlink" width="100%" height="100%" viewBox="0 0 1000 1000">
  <path class="svg-wave" id="sp" d="M598.04 500.00 L598.21 500.98 L598.38 501.97 L598.53 502.96 L598.66 503.95 L598.78 504.94 L598.89 505.94 L598.99 506.94 L599.06 507.94 L599.09 508.94 L599.12 509.95 L599.13 510.95 L599.06 511.94 L598.91 512.93 L598.37 513.86 L597.39 514.72 L596.77 515.62 L596.50 516.56 L595.15 517.31 L592.74 517.83 L588.63 517.97 L585.45 518.21 L583.85 518.75 L577.54 518.15 L574.40 518.21 L576.39 519.50 L576.77 520.42 L574.94 520.74 L575.18 521.62 L580.98 524.16 L580.47 524.89 L575.94 524.33 L577.41 525.65 L576.02 526.04 L572.56 525.67 L570.75 525.83 L572.84 527.42 L581.99 531.80 L581.59 532.59 L584.85 534.88 L593.88 539.69 L592.64 540.26 L589.26 539.86 L587.49 540.12 L582.04 538.62 L576.98 537.18 L573.11 536.22 L570.83 535.98 L568.21 535.51 L568.11 536.33 L569.42 537.93 L568.42 538.27 L568.72 539.35 L570.50 541.31 L576.17 545.66 L573.69 545.18 L572.22 545.28 L573.98 547.42 L570.19 545.99 L567.71 545.34 L565.14 544.56 L564.55 545.11 L565.71 546.91 L564.28 546.87 L564.28 547.86 L563.72 548.44 L564.30 549.91 L566.85 552.96 L569.58 556.27 L567.08 555.37 L566.90 556.35 L568.28 558.69 L564.14 556.26 L560.81 554.42 L562.04 556.65 L561.16 556.98 L560.55 557.55 L560.37 558.54 L562.53 561.85 L564.84 565.44 L562.26 564.10 L561.82 564.94 L561.34 565.74 L558.27 563.72 L556.69 563.25 L556.54 564.37 L561.82 571.81 L562.24 573.77 L563.28 576.55 L569.65 585.99 L568.81 586.72 L566.31 585.29 L564.31 584.46 L560.24 580.77 L556.38 577.20 L553.23 574.44 L551.02 572.87 L548.70 571.06 L547.71 571.14 L548.31 573.61 L547.55 574.05 L546.75 574.43 L546.98 576.49 L549.38 582.24 L548.37 582.41 L546.68 581.37 L547.86 585.41 L545.06 582.33 L542.83 580.14 L540.96 578.53 L539.90 578.39 L539.52 579.62 L538.71 579.98 L537.70 579.91 L536.72 579.90 L535.91 580.25 L535.65 581.84 L535.60 584.01 L534.14 582.88 L533.65 584.07 L533.29 585.62 L532.39 585.85 L530.84 584.27 L530.79 586.83 L529.91 587.11 L528.96 587.16 L528.48 588.65 L528.24 591.03 L529.15 597.39 L527.30 594.64 L526.18 594.32 L525.70 596.31 L523.83 593.00 L522.43 591.35 L521.59 591.86 L522.07 598.33 L522.10 603.28 L521.24 604.37 L522.09 614.39 L521.63 618.32 L520.18 617.00 L518.97 616.95 L517.48 615.04 L515.49 609.28 L513.72 604.31 L512.37 601.93 L510.78 596.90 L509.49 593.86 L508.78 596.43 L507.83 596.64 L506.83 596.32 L506.00 598.64 L505.24 603.09 L504.31 605.58 L503.16 602.63 L502.19 605.37 L501.12 603.47 L500.08 600.12 L499.10 597.66 L498.14 596.61 L497.12 598.66 L496.14 598.50 L495.16 598.21 L494.18 598.23 L493.17 598.49 L491.96 601.26 L490.58 605.36 L489.62 604.29 L488.64 603.58 L487.21 606.83 L486.45 604.27 L486.02 599.75 L485.18 598.56 L483.99 599.71 L483.05 599.23 L481.88 600.03 L480.67 600.96 L478.18 608.07 L477.64 605.31 L476.79 604.19 L475.05 606.94 L474.97 602.64 L474.45 600.39 L473.59 599.61 L471.33 603.92 L468.36 610.37 L467.08 610.65 L463.79 617.39 L460.56 623.46 L459.71 621.92 L458.77 620.69 L458.06 618.86 L458.90 612.88 L459.71 607.31 L459.64 604.30 L460.21 599.86 L460.92 595.28 L458.84 597.58 L457.94 596.99 L457.03 596.42 L455.44 597.36 L452.88 600.30 L449.96 603.79 L449.98 601.15 L449.00 600.60 L447.81 600.44 L448.60 596.56 L448.58 594.31 L447.30 594.39 L442.57 600.49 L442.14 598.94 L441.57 597.65 L439.13 599.47 L440.13 595.66 L441.36 591.65 L441.45 589.53 L440.84 588.51 L440.19 587.57 L438.78 587.74 L436.97 588.44 L437.25 586.21 L435.35 586.98 L433.15 588.08 L433.56 585.74 L431.97 586.00 L429.68 587.11 L425.81 590.03 L424.64 589.61 L425.16 587.21 L421.79 589.32 L422.98 586.20 L423.85 583.53 L423.89 581.83 L420.56 583.71 L413.75 589.09 L412.73 588.36 L408.65 590.66 L400.87 596.43 L401.70 593.73 L403.44 590.24 L403.43 588.46 L406.72 583.74 L409.63 579.52 L411.39 576.41 L412.59 573.86 L413.81 571.37 L411.32 571.94 L410.05 571.50 L410.10 570.00 L408.43 569.84 L404.68 571.21 L399.40 573.59 L400.84 571.03 L400.64 569.68 L398.75 569.51 L401.35 566.28 L402.39 564.17 L403.73 561.92 L402.24 561.51 L400.91 560.97 L400.95 559.59 L399.61 559.04 L399.49 557.76 L397.37 557.62 L393.20 558.56 L390.09 558.85 L391.39 556.77 L389.33 556.44 L387.68 555.87 L391.43 552.66 L393.80 550.20 L391.86 549.80 L390.85 548.95 L390.87 547.64 L389.30 547.01 L384.60 547.65 L382.12 547.30 L384.15 545.15 L381.66 544.76 L382.47 543.11 L385.04 540.87 L386.17 539.19 L383.38 538.85 L373.73 540.67 L373.22 539.44 L369.68 539.12 L359.69 540.59 L359.92 539.01 L362.72 536.75 L363.42 535.11 L368.45 532.41 L373.19 529.90 L376.84 527.75 L378.44 526.11 L380.80 524.36 L380.33 523.21 L378.18 522.37 L378.86 520.99 L378.03 519.88 L375.00 519.10 L367.91 518.83 L370.18 517.18 L370.84 515.78 L368.13 514.78 L372.07 513.04 L374.14 511.56 L376.49 510.10 L376.76 508.84 L375.42 507.68 L376.47 506.38 L376.13 505.15 L376.20 503.91 L376.20 502.67 L374.71 501.45 L373.37 500.20 L374.43 498.94 L373.33 497.67 L371.79 496.36 L373.07 495.12 L374.05 493.90 L371.12 492.46 L372.02 491.23 L371.96 489.94 L371.67 488.62 L368.30 487.00 L364.04 485.20 L366.78 484.15 L366.62 482.78 L366.53 481.41 L370.39 480.62 L371.83 479.53 L371.33 478.12 L362.65 475.23 L361.40 473.57 L359.39 471.73 L349.64 468.20 L348.46 466.37 L350.51 465.25 L350.23 463.60 L353.75 462.91 L359.96 462.98 L364.94 462.85 L367.64 462.17 L372.74 462.25 L375.54 461.72 L373.47 459.69 L374.01 458.47 L374.72 457.31 L373.13 455.35 L367.90 452.02 L368.81 450.86 L370.62 450.05 L367.34 447.26 L371.74 447.52 L374.81 447.31 L377.61 447.04 L378.75 446.09 L377.46 444.04 L378.25 442.92 L379.25 441.91 L379.53 440.55 L379.74 439.15 L377.45 436.45 L373.71 432.90 L376.75 432.92 L377.47 431.72 L375.70 429.10 L379.07 429.40 L383.90 430.66 L382.89 428.46 L383.98 427.52 L384.77 426.40 L384.66 424.69 L383.70 422.40 L379.11 417.58 L382.38 418.07 L383.69 417.24 L383.05 415.02 L387.01 416.16 L389.25 416.09 L389.88 414.82 L385.90 409.90 L383.00 405.69 L383.32 404.01 L376.83 396.59 L374.99 392.90 L377.30 392.72 L378.66 391.76 L381.16 391.83 L386.65 394.74 L391.44 397.15 L394.17 397.71 L398.90 400.31 L402.09 401.50 L401.10 398.49 L402.13 397.52 L403.57 396.98 L402.95 394.22 L401.11 390.02 L400.71 387.34 L403.62 388.41 L402.94 385.33 L405.33 385.85 L408.57 387.49 L410.94 388.14 L410.87 385.72 L407.23 378.58 L409.99 379.71 L411.57 379.32 L411.58 376.77 L415.06 379.09 L418.50 381.47 L420.31 381.59 L422.02 381.60 L423.09 380.64 L423.63 378.84 L424.15 376.94 L426.40 377.87 L426.31 374.92 L426.79 372.83 L429.04 373.85 L429.80 372.22 L430.31 370.09 L428.23 362.95 L430.65 364.27 L432.44 364.45 L432.40 360.90 L435.63 364.11 L437.80 365.23 L439.34 365.02 L438.84 360.20 L437.52 353.21 L438.90 352.37 L437.82 345.39 L436.81 338.22 L439.37 340.08 L442.16 342.71 L444.34 343.85 L447.77 348.68 L450.74 352.52 L453.03 354.58 L455.44 357.15 L457.52 358.89 L458.00 355.23 L459.50 355.02 L461.03 354.89 L462.05 352.84 L462.65 348.96 L463.20 344.49 L465.23 346.22 L466.77 345.90 L468.24 345.24 L470.53 348.73 L472.43 350.52 L474.29 352.35 L475.43 350.02 L476.93 349.76 L478.45 349.68 L479.91 349.12 L481.41 348.89 L482.68 346.50 L483.75 341.80 L485.25 340.80 L486.95 341.98 L488.35 339.40 L490.00 339.87 L491.85 344.66 L493.51 347.01 L495.00 345.65 L496.52 344.76 L498.08 345.01 L499.63 343.57 L501.23 337.98 L502.85 338.09 L504.41 340.22 L506.15 336.55 L507.63 339.81 L509.09 342.43 L510.58 343.82 L512.42 340.28 L514.76 331.94 L516.47 331.83 L518.65 327.40 L521.49 318.15 L523.00 320.71 L524.29 324.58 L525.85 326.13 L526.71 331.91 L527.57 337.07 L528.59 340.71 L529.70 343.57 L530.78 346.27 L532.79 344.36 L534.48 344.06 L535.82 345.36 L537.66 344.48 L540.16 341.16 L543.18 336.11 L544.12 339.10 L545.55 340.16 L547.56 339.23 L548.00 343.52 L548.92 346.03 L549.67 348.92 L551.38 348.81 L553.10 348.75 L554.25 350.28 L555.97 350.22 L557.43 350.88 L559.02 351.21 L561.01 350.57 L562.71 350.68 L564.12 351.51 L566.11 351.00 L568.08 350.62 L569.09 352.34 L570.14 353.91 L572.35 353.08 L574.03 353.40 L575.34 354.43 L577.33 354.19 L580.92 351.03 L583.56 349.77 L583.70 352.99 L586.27 351.95 L587.08 353.93 L586.86 357.56 L587.42 359.82 L590.21 358.51 L596.93 351.27 L598.40 352.27 L601.73 350.54 L608.82 343.51 L610.45 344.50 L610.97 347.04 L613.55 346.73 L611.98 351.96 L609.80 357.83 L608.44 362.45 L608.29 365.43 L606.58 370.23 L607.20 372.11 L609.63 371.84 L610.33 373.59 L612.04 374.20 L615.24 373.19 L621.20 369.27 L620.81 372.28 L621.48 374.12 L624.56 373.49 L622.93 377.61 L622.51 380.45 L621.91 383.39 L623.00 384.68 L625.66 384.52 L625.86 386.64 L627.40 387.54 L628.59 388.76 L630.53 389.35 L634.39 388.37 L638.60 387.18 L637.61 390.26 L639.04 391.38 L642.30 391.11 L639.54 395.41 L637.87 398.80 L641.07 398.61 L641.41 400.49 L642.61 401.77 L643.99 402.93 L647.80 402.50 L652.64 401.47 L651.42 404.39 L652.61 405.76 L653.78 407.15 L651.52 410.57 L651.21 412.78 L652.74 413.92 L661.57 411.07 L663.76 411.98 L666.80 412.48 L677.06 409.35 L679.05 410.58 L678.45 413.10 L679.90 414.60 L677.34 417.98 L672.70 422.21 L669.18 425.83 L667.59 428.51 L663.83 432.05 L662.45 434.52 L665.37 435.25 L665.91 436.95 L666.28 438.70 L668.87 439.66 L675.15 439.38 L675.29 441.29 L674.54 443.48 L678.94 444.02 L675.45 447.04 L673.05 449.64 L672.25 451.74 L676.09 452.55 L684.04 452.38 L685.19 454.05 L689.74 454.94 L695.83 455.55 L694.56 457.88 L694.84 459.86 L695.31 461.79 L694.90 463.89 L696.46 465.63 L696.78 467.60 L696.50 469.66 L697.37 471.54 L697.91 473.48 L698.00 475.49 L698.92 477.39 L700.01 479.29 L699.79 481.33 L703.49 483.03 L704.11 485.04 L703.87 487.10 L704.48 489.11 L703.38 491.21 L702.63 493.27 L702.47 495.30 L703.05 497.32 L704.27 499.35 L705.27 501.40 L706.04 503.46 L706.08 505.53 L705.25 507.56 L704.99 509.60 L704.89 511.65 L704.14 513.66 L703.71 515.68 L703.61 517.72 L703.09 519.72 L702.00 521.66 L700.78 523.56 L699.01 525.37 L698.31 527.30 L697.23 529.17 L697.07 531.16 L699.27 533.55 L698.75 535.51 L700.47 537.89 L702.22 540.32 L701.40 542.26 L702.19 544.54 L701.69 546.55 L701.41 548.61 L702.14 550.93 L700.99 552.78 L699.75 554.60 L700.48 556.96 L700.71 559.20 L700.79 561.41 L701.00 563.68 L701.23 565.98 L700.71 568.04 L699.85 569.98 L698.92 571.89 L697.28 573.54 L696.68 575.57 L696.06 577.59 L695.96 579.82 L695.56 581.95 L695.81 584.37 L695.90 586.74 L695.44 588.88 L694.70 590.90 L693.01 592.48 L691.51 594.13 L690.41 595.96 L690.05 598.17 L690.58 600.87 L690.76 603.42 L691.29 606.20 L690.86 608.47 L689.61 610.29 L688.43 612.14 L687.30 614.02 L685.08 615.22 L682.70 616.29 L681.39 618.02 L679.75 619.53 L678.07 621.00 L676.80 622.73 L675.27 624.29 L674.52 626.39 L673.48 628.30 L671.98 629.88 L671.13 631.94 L669.93 633.75 L668.58 635.44 L666.42 636.47 L664.30 637.49 L662.68 638.93 L661.60 640.83 L660.40 642.63 L659.12 644.37 L658.56 646.77 L657.65 648.88 L655.63 649.95 L654.92 652.28 L654.59 655.03 L652.75 656.28 L651.53 658.16 L650.30 660.06 L648.57 661.42 L646.96 662.91 L645.27 664.31 L643.91 666.08 L642.32 667.61 L640.98 669.44 L639.80 671.47 L638.50 673.40 L637.47 675.68 L636.08 677.53 L634.36 678.96 L632.10 679.67 L629.95 680.50 L627.84 681.36 L626.37 683.14 L625.66 686.07 L624.43 688.28 L623.44 690.91 L622.26 693.29 L620.28 694.44 L618.38 695.72 L616.50 697.03 L614.21 697.64 L611.59 697.65 L609.07 697.78 L606.98 698.66 L604.69 699.14 L602.35 699.52 L600.18 700.19 L598.39 701.62 L596.63 703.15 L594.68 704.30 L593.41 706.96 L591.66 708.61 L589.64 709.68 L587.47 710.40 L585.04 710.49 L582.75 710.86 L580.26 710.67 L577.98 711.02 L576.12 712.48 L574.21 713.88 L571.58 713.16 L569.56 714.22 L567.87 716.36 L565.86 717.54 L563.93 719.02 L561.95 720.43 L559.75 721.07 L557.63 721.99 L555.34 722.29 L552.96 722.21 L550.81 723.04 L548.59 723.61 L546.43 724.48 L544.38 725.89 L542.17 726.62 L540.14 728.38 L537.99 729.58 L535.69 729.98 L533.32 729.78 L530.92 729.39 L528.53 728.90 L526.30 729.78 L524.24 732.27 L522.01 733.51 L519.81 735.38 L517.60 737.45 L515.22 737.48 L512.84 737.60 L510.47 737.91 L508.08 737.56 L505.67 736.31 L503.29 735.11 L500.94 734.96 L498.59 734.33 L496.27 733.12 L493.94 732.90 L491.60 733.21 L489.23 733.77 L486.88 733.90 L484.43 735.52 L482.00 736.27 L479.61 736.45 L477.25 736.19 L474.99 735.03 L472.66 734.58 L470.35 734.00 L468.13 732.85 L466.04 730.89 L464.03 728.70 L462.14 725.93 L460.29 723.29 L458.35 721.32 L456.38 719.66 L453.71 721.51 L450.68 724.76 L448.26 725.01 L445.64 726.04 L442.18 730.25 L440.00 729.22 L437.72 728.57 L435.55 727.55 L433.49 726.18 L431.26 725.40 L429.37 723.54 L427.36 722.17 L425.35 720.82 L423.74 718.35 L421.56 717.58 L418.80 718.36 L416.65 717.45 L413.99 717.87 L410.54 720.11 L407.85 720.40 L405.50 719.81 L403.22 719.05 L401.91 716.14 L399.82 715.00 L396.53 716.40 L395.10 713.86 L394.32 710.11 L393.00 707.54 L391.46 705.46 L391.54 700.44 L391.21 696.33 L388.61 696.35 L387.76 693.33 L385.94 692.01 L382.64 693.14 L380.59 692.15 L380.29 688.41 L376.91 689.51 L374.34 689.31 L375.46 683.60 L371.36 685.62 L367.23 687.55 L366.69 684.37 L363.83 684.42 L360.45 685.09 L359.46 682.57 L356.59 682.51 L358.02 677.01 L355.35 676.70 L349.49 680.14 L351.51 674.16 L350.83 671.46 L345.56 673.96 L345.58 670.48 L346.03 666.60 L341.15 668.47 L340.88 665.41 L341.08 661.93 L338.10 661.70 L335.70 660.85 L334.07 659.23 L333.22 656.87 L330.37 656.38 L330.23 653.39 L330.18 650.39 L326.30 650.75 L323.05 650.49 L322.02 648.33 L319.54 647.36 L316.65 646.69 L314.93 645.06 L312.05 644.30 L310.40 642.58 L302.87 645.18 L299.12 644.86 L298.83 642.04 L298.91 638.99 L298.94 636.01 L302.01 631.07 L303.90 627.02 L301.66 625.67 L303.06 622.04 L302.17 619.87 L298.56 619.33 L297.00 617.52 L297.02 614.81 L294.76 613.40 L291.78 612.35 L294.85 608.05 L292.27 606.77 L287.80 606.40 L286.77 604.26 L285.46 602.26 L282.66 600.94 L281.56 598.80 L276.57 598.38 L278.20 595.03 L274.52 593.94 L265.89 594.81 L266.72 591.77 L268.82 588.28 L268.20 585.87 L269.47 582.79 L273.83 578.68 L274.12 576.05 L273.26 573.83 L274.94 570.80 L273.61 568.74 L271.05 567.02 L268.65 565.22 L270.85 562.13 L268.18 560.37 L267.55 558.06 L271.05 554.76 L266.59 553.37 L263.61 551.57 L263.64 549.09 L262.49 546.86 L259.53 544.95 L258.96 542.56 L255.43 540.67 L257.87 537.78 L252.88 536.03 L247.44 534.25 L254.38 530.81 L255.30 528.21 L253.67 525.90 L259.22 522.89 L260.65 520.34 L255.98 518.28 L258.45 515.67 L259.52 513.19 L256.35 510.92 L256.66 508.47 L257.85 506.00 L256.97 503.59 L254.96 501.17 L258.39 498.74 L258.58 496.32 L255.03 493.82 L253.18 491.30 L254.76 488.90 L252.78 486.33 L251.52 483.77 L250.61 481.20 L254.70 479.04 L256.20 476.71 L250.53 473.65 L252.76 471.39 L256.74 469.38 L253.99 466.53 L252.75 463.84 L256.99 461.97 L257.30 459.53 L254.55 456.55 L258.16 454.69 L259.41 452.43 L257.45 449.51 L257.31 446.95 L260.50 445.13 L258.89 442.22 L258.65 439.60 L263.94 438.41 L261.15 435.12 L259.69 432.14 L260.45 429.76 L259.60 426.89 L258.92 424.04 L260.59 421.93 L256.80 418.00 L260.95 416.72 L257.22 412.69 L249.03 406.90 L252.56 405.38 L255.24 403.59 L258.15 401.94 L262.25 400.82 L267.91 400.44 L269.14 398.22 L271.53 396.54 L273.86 394.86 L273.54 391.94 L273.57 389.16 L273.90 386.50 L276.47 384.98 L275.45 381.60 L277.44 379.79 L281.43 379.11 L278.78 374.74 L277.56 371.09 L281.86 370.65 L281.25 367.32 L280.12 363.60 L281.55 361.45 L283.03 359.32 L284.98 357.52 L279.77 350.87 L280.47 348.12 L284.37 347.61 L285.02 344.82 L284.43 341.10 L288.04 340.46 L290.31 338.86 L289.25 334.67 L291.26 332.85 L295.97 333.24 L298.60 332.00 L300.16 329.89 L305.43 330.99 L308.03 329.85 L309.20 327.45 L313.90 328.28 L314.16 325.05 L314.40 321.74 L315.19 318.92 L316.53 316.59 L317.19 313.57 L318.43 311.09 L318.11 306.93 L321.34 306.52 L321.44 302.69 L315.63 292.13 L320.30 293.27 L323.51 292.82 L326.88 292.61 L330.53 292.80 L335.84 295.15 L339.15 295.11 L340.90 293.12 L344.60 293.69 L346.28 291.62 L347.04 288.24 L348.94 286.42 L352.31 286.68 L353.21 283.38 L354.94 281.26 L359.66 283.71 L359.93 279.32 L360.63 275.50 L364.05 276.05 L365.62 273.56 L366.57 269.95 L369.00 268.83 L371.04 267.04 L374.88 268.54 L375.60 264.27 L376.46 260.12 L381.05 263.24 L383.83 262.89 L384.08 257.29 L388.35 260.09 L391.54 260.72 L391.80 254.79 L395.67 257.01 L398.90 257.89 L400.31 254.38 L402.84 253.58 L405.54 253.24 L407.87 251.92 L409.99 249.98 L413.49 251.96 L415.81 250.61 L417.73 248.00 L419.58 245.07 L422.06 244.04 L424.36 242.36 L426.59 240.37 L428.35 236.59 L431.22 236.75 L433.51 234.71 L433.92 224.72 L436.74 224.33 L439.76 224.92 L442.92 226.26 L446.15 228.20 L449.76 232.36 L453.08 235.52 L455.54 233.91 L458.51 235.46 L461.23 235.55 L463.53 232.64 L466.05 231.04 L468.97 232.73 L471.50 231.03 L473.99 228.71 L477.11 233.14 L479.62 230.87 L482.12 227.68 L484.95 229.50 L487.60 228.04 L490.26 226.29 L493.00 226.25 L495.68 222.40 L498.46 223.37 L501.24 219.14 L504.14 213.35 L507.00 213.46 L509.81 215.04 L512.57 217.28 L515.26 219.90 L517.77 224.54 L520.61 223.54 L523.11 226.86 L525.61 229.58 L528.62 226.93 L531.25 228.06 L534.04 227.84 L536.65 228.97 L539.57 227.94 L542.05 229.86 L544.44 232.17 L547.65 229.60 L550.78 227.81 L553.55 228.03 L556.58 227.08 L559.73 225.72 L562.88 224.56 L566.68 220.79 L569.55 221.15 L573.54 217.24 L576.53 217.35 L578.09 222.62 L579.98 226.44 L581.94 229.77 L583.15 235.36 L585.57 236.87 L589.24 234.64 L590.94 238.28 L593.33 239.81 L596.86 238.25 L599.50 239.16 L601.59 241.49 L604.51 241.68 L607.88 240.81 L608.84 245.70 L611.80 245.86 L615.87 243.58 L618.80 243.96 L621.21 245.46 L624.44 245.28 L628.06 244.37 L633.09 240.83 L635.32 242.86 L639.66 240.94 L647.43 232.95 L648.68 236.94 L649.21 242.06 L650.27 246.11 L652.81 247.62 L653.44 252.20 L654.66 255.72 L656.45 258.27 L658.00 261.15 L659.71 263.74 L660.85 267.10 L664.34 267.06 L665.87 269.82 L668.24 271.39 L670.67 272.88 L670.85 277.31 L675.04 276.51 L678.99 276.12 L681.38 277.73 L684.86 278.02 L688.21 278.55 L691.66 279.00 L698.04 276.20 L698.87 279.75 L704.25 278.29 L712.00 274.44 L711.37 279.57 L709.74 285.60 L709.58 290.01 L708.48 295.25 L706.97 300.76 L709.74 302.10 L710.10 305.69 L711.08 308.67 L714.96 309.03 L717.21 310.88 L718.95 313.18 L720.75 315.43 L724.24 316.29 L724.32 319.94 L724.76 323.26 L728.99 323.60 L732.30 324.73 L733.23 327.66 L735.57 329.55 L739.67 330.21 L743.93 330.83 L745.51 333.34 L748.15 335.15 L756.38 333.35 L759.47 335.01 L761.51 337.36 L760.43 341.63 L763.22 343.51 L768.01 344.27 L766.37 348.77 L769.01 350.80 L774.36 351.41 L773.62 355.33 L775.93 357.62 L779.22 359.44 L779.58 362.74 L781.67 365.20 L783.98 367.56 L784.67 370.69 L786.21 373.43 L788.02 376.06 L788.78 379.14 L790.34 381.88 L791.92 384.63 L793.12 387.53 L794.41 390.40 L795.84 393.22 L797.04 396.14 L798.29 399.04 L799.18 402.06 L799.64 405.21 L799.88 408.43 L801.87 411.11 L802.59 414.18 L803.49 417.19 L805.41 419.94 L806.58 422.90 L806.11 426.27 L808.75 428.89 L810.01 431.86 L809.78 435.15 L811.49 438.03 L812.33 441.11 L811.18 444.54 L813.72 447.32 L814.95 450.35 L814.43 453.65 L815.23 456.74 L816.08 459.84 L814.41 463.25 L812.98 466.58 L813.84 469.66 L810.97 473.07 L811.44 476.17 L811.76 479.28 L806.80 482.69 L807.16 485.75 L803.57 488.95 L799.56 492.10 L801.32 495.07 L801.30 498.08 L800.74 501.09 L801.50 504.11 L808.42 507.29 L809.22 510.40 L808.10 513.45 L813.61 516.83 L811.89 519.87 L809.24 522.81 L806.98 525.73 L804.44 528.59 L807.79 532.01 L804.64 534.77 L808.11 538.29 L812.83 542.05 L811.27 545.02 L814.51 548.70 L819.53 552.76 L814.40 555.14 L812.12 557.97 L809.98 560.78 L806.61 563.31 L800.53 565.20 L799.88 568.20 L800.39 571.49 L797.66 573.99 L798.71 577.43 L799.34 580.80 L804.11 585.35 L800.42 587.57 L801.04 591.02 L805.61 595.75 L799.52 597.15 L798.27 600.04 L794.58 602.10 L792.51 604.67 L792.85 608.10 L791.36 610.88 L795.77 615.95 L795.86 619.42 L796.19 623.01 L798.68 627.56 L797.89 630.76 L794.18 632.65 L790.36 634.44 L788.01 636.87 L781.61 637.30 L776.17 638.08 L776.74 641.84 L773.81 643.81 L772.90 646.84 L772.01 649.88 L774.28 654.73 L776.47 659.63 L773.41 661.53 L775.14 666.29 L774.37 669.59 L769.43 670.29 L766.43 672.14 L762.62 673.42 L763.08 677.53 L759.41 678.86 L760.17 683.25 L763.69 689.70 L760.79 691.60 L760.95 695.77 L763.65 701.95 L759.34 702.79 L755.26 703.74 L752.18 705.45 L748.17 706.34 L741.95 705.30 L738.52 706.52 L738.30 710.54 L734.89 711.75 L733.13 714.43 L732.20 717.89 L733.66 723.70 L730.30 724.94 L728.59 727.78 L731.13 734.97 L725.29 733.65 L722.50 735.43 L718.62 736.01 L714.46 736.21 L713.93 740.42 L710.50 741.38 L710.43 746.23 L709.81 750.54 L708.20 753.72 L705.88 756.07 L704.18 759.23 L702.41 762.33 L697.09 760.79 L693.22 761.05 L690.27 762.52 L684.28 759.69 L682.54 762.76 L678.71 762.81 L676.68 765.50 L674.24 767.60 L672.92 771.46 L673.99 779.28 L669.94 778.95 L668.25 782.49 L667.39 787.56 L662.18 785.13 L658.92 786.01 L654.70 785.10 L652.14 787.19 L648.76 787.72 L646.65 790.73 L647.09 799.01 L643.84 799.94 L641.50 802.79 L640.94 809.63 L637.53 810.33 L633.07 808.55 L629.45 808.60 L625.75 808.40 L620.42 803.98 L616.35 802.51 L614.50 806.82 L610.80 806.24 L607.63 807.04 L605.22 810.06 L603.10 814.10 L600.24 816.02 L596.81 816.13 L595.31 822.72 L591.50 821.62 L587.70 820.40 L584.15 819.96 L580.18 817.74 L577.87 822.15 L574.21 821.03 L571.58 824.43 L569.17 829.10 L565.44 827.58 L562.71 831.15 L560.23 836.41 L555.98 831.75 L552.58 831.77 L549.43 833.45 L545.68 830.93 L541.96 828.17 L538.72 828.92 L535.41 829.13 L531.75 825.69 L528.63 827.56 L525.41 828.57 L522.08 828.20 L518.65 825.83 L515.47 827.78 L512.21 828.25 L508.82 824.41 L505.64 828.29 L502.37 830.70 L499.06 830.12 L495.75 831.01 L492.39 833.39 L489.04 833.82 L485.54 837.29 L482.28 835.00 L478.53 841.22 L474.63 847.69 L471.44 843.98 L468.17 841.90 L464.92 839.89 L462.02 835.15 L459.26 830.01 L455.75 831.13 L452.80 828.17 L449.74 826.29 L446.05 828.41 L442.82 827.53 L439.67 826.28 L436.35 826.00 L432.69 827.29 L429.95 824.16 L426.96 822.34 L423.11 824.23 L419.47 825.08 L416.47 823.29 L412.86 823.87 L409.11 824.84 L405.28 825.93 L403.07 821.48 L400.10 819.73 L394.94 824.82 L392.53 821.25 L390.43 816.97 L386.23 818.74 L382.79 818.30 L380.98 813.50 L377.82 812.38 L373.54 814.02 L371.58 809.91 L368.89 807.67 L364.90 808.45 L361.65 807.47 L359.58 803.91 L355.69 804.30 L352.31 803.54 L351.18 798.26 L346.72 799.64 L342.72 800.03 L339.80 798.30 L336.02 798.15 L332.27 797.88 L329.66 795.56 L324.09 798.30 L322.90 793.56 L317.43 795.90 L309.32 802.24 L307.79 798.01 L305.94 794.38 L304.26 790.55 L303.17 785.97 L303.40 779.60 L300.88 777.25 L298.66 774.51 L296.95 771.11 L293.26 770.36 L289.62 769.49 L286.53 767.89 L284.46 765.00 L280.63 764.27 L278.36 761.64 L278.26 756.51 L273.32 756.98 L269.27 756.36 L268.47 752.13 L264.84 750.99 L260.80 750.25 L257.87 748.29 L254.32 746.94 L251.23 745.10 L244.06 747.16 L239.73 746.37 L238.34 742.77 L237.66 738.57 L235.87 735.41 L237.20 729.55 L237.57 724.64 L233.86 723.24 L234.71 718.05 L232.94 715.06 L228.77 713.98 L226.59 711.31 L225.04 708.15 L222.18 705.97 L219.46 703.67 L220.48 698.70 L216.87 697.03 L213.15 695.39 L210.06 693.28 L207.57 690.74 L204.21 688.74 L201.59 686.24 L196.97 684.94 L196.76 680.94 L192.75 679.18 L182.74 680.80 L187.41 674.02 L187.35 669.98 L185.67 666.84 L188.03 661.61 L189.85 656.75 L186.18 654.69 L183.97 651.87 L184.89 647.56 L182.87 644.66 L179.31 642.43 L177.59 639.35 L178.15 635.31 L174.77 632.91 L172.76 629.93 L175.78 624.99 L171.24 622.98 L167.25 620.70 L168.26 616.59 L165.84 613.70 L162.20 611.18 L161.28 607.74 L159.73 604.50 L161.69 600.21 L157.37 597.77 L153.32 595.19 L157.07 590.48 L157.07 586.82 L151.40 584.56 L154.86 580.07 L155.99 576.19 L150.08 573.84 L152.82 569.64 L154.22 565.77 L150.92 562.79 L150.51 559.26 L150.56 555.66 L149.65 552.22 L148.08 548.86 L150.54 544.96 L149.54 541.53 L147.28 538.23 L144.78 534.91 L144.23 531.38 L142.89 527.90 L141.33 524.41 L138.07 521.00 L138.61 517.35 L137.02 513.79 L127.27 510.43 L127.52 506.69 L128.72 502.96 L130.66 499.25 L133.30 495.59 L138.12 492.02 L141.92 488.52 L140.88 484.89 L143.10 481.41 L143.87 477.88 L141.45 474.13 L140.61 470.45 L142.95 467.05 L141.82 463.32 L140.17 459.52 L145.17 456.48 L143.58 452.66 L141.17 448.69 L143.64 445.40 L142.79 441.61 L141.54 437.72 L141.40 433.99 L138.08 429.63 L143.03 426.88 L138.79 422.24 L131.95 416.91 L138.33 414.54 L138.90 410.85 L138.57 406.93 L143.75 404.45 L146.96 401.52 L144.72 397.06 L149.67 394.68 L153.79 392.13 L151.22 387.49 L152.96 384.21 L155.56 381.24 L157.21 377.96 L156.87 373.96 L160.06 371.25 L163.23 368.59 L161.24 363.90 L160.54 359.65 L162.14 356.34 L162.96 352.69 L162.14 348.30 L163.22 344.71 L163.37 340.68 L165.30 337.48 L159.66 330.51 L158.52 325.67 L162.71 323.53 L166.21 321.09 L169.50 318.57 L175.44 317.59 L180.71 316.32 L181.31 312.40 L185.80 310.79 L188.14 307.92 L187.37 303.11 L189.18 299.88 L192.68 297.76 L193.63 293.96 L193.91 289.68 L200.04 289.44 L200.98 285.61 L200.00 280.33 L202.12 277.27 L203.87 273.92 L204.73 269.87 L207.44 267.25 L208.10 262.97 L214.51 263.39 L216.37 260.11 L213.39 252.64 L219.78 253.22 L223.77 251.78 L223.07 246.10 L226.45 244.12 L232.11 244.34 L232.75 239.80 L234.55 236.33 L239.51 236.03 L241.73 232.99 L242.97 228.90 L245.25 225.86 L249.88 225.39 L251.04 221.12 L254.06 218.89 L259.32 219.29 L259.70 213.98 L261.15 209.87 L264.59 208.15 L266.64 204.70 L268.43 200.85 L271.83 199.08 L272.46 193.59 L276.39 192.51 L276.13 185.59 L275.78 178.35 L280.12 177.75 L284.25 176.91 L288.35 176.08 L294.23 178.10 L299.92 179.99 L302.50 176.97 L307.14 177.36 L310.90 176.34 L312.85 172.20 L315.90 169.92 L319.10 167.89 L322.57 166.35 L324.93 162.70 L329.36 163.04 L333.39 162.68 L335.26 157.88 L337.95 154.68 L342.14 154.67 L344.72 151.12 L347.44 147.79 L349.92 143.80 L353.83 143.15 L356.61 139.71 L356.87 129.62 L361.08 129.53 L365.58 130.32 L369.98 130.99 L374.28 131.47 L379.63 135.25 L384.15 136.78 L387.38 134.32 L391.91 136.14 L395.57 135.14 L398.59 131.80 L401.94 129.53 L406.27 131.01 L409.48 128.12 L412.93 126.05 L417.85 130.47 L420.78 126.05 L423.99 122.64 L427.75 121.80 L431.40 120.35 L434.78 117.20 L438.66 116.87 L441.91 112.40 L446.31 115.53 L449.56 110.44 L452.56 102.44 L457.35 109.36 L461.42 110.59 L465.31 110.17 L469.64 115.28 L473.65 117.42 L477.26 113.51 L481.19 114.47 L485.11 116.08 L488.89 113.71 L492.73 112.75 L496.61 112.78 L500.48 113.34 L504.37 111.39 L508.22 112.85 L512.00 116.15 L516.02 111.78 L520.06 108.88 L523.77 112.40 L527.81 110.36 L531.90 108.15 L535.76 109.19 L539.50 111.14 L543.19 113.38 L547.60 109.34 L551.57 109.33 L554.87 114.07 L558.89 113.61 L563.35 110.49 L566.49 115.53 L570.10 117.44 L574.81 113.62 L577.85 118.39 L581.38 120.49 L585.84 118.36 L589.73 118.90 L593.11 121.55 L597.26 121.07 L601.26 121.24 L603.94 126.25 L608.29 125.17 L612.51 124.69 L616.70 124.38 L620.91 124.14 L624.93 124.56 L628.71 125.73 L633.63 123.71 L636.61 127.19 L641.41 125.71 L649.18 116.80 L651.82 121.27 L655.13 123.92 L658.13 127.29 L660.77 131.34 L662.23 137.92 L665.03 141.34 L668.66 142.89 L671.20 146.72 L674.96 147.96 L679.72 147.28 L684.12 147.41 L686.26 151.83 L690.70 151.96 L694.92 152.54 L695.73 159.12 L701.06 157.81 L706.19 157.00 L707.95 161.77 L712.15 162.55 L717.19 162.07 L720.12 164.93 L725.32 164.38 L728.24 167.26 L732.86 167.71 L737.15 168.69 L741.51 169.63 L743.49 173.81 L743.93 179.95 L750.15 178.51 L753.62 180.69 L753.62 187.16 L759.96 185.82 L764.63 186.62 L766.24 191.02 L772.16 190.46 L776.84 191.42 L779.46 194.71 L783.25 196.71 L787.16 198.62 L789.10 202.60 L793.13 204.42 L796.70 206.75 L799.22 210.11 L802.64 212.61 L806.08 215.11 L809.00 218.11 L811.81 221.20 L814.43 224.47 L816.93 227.84 L820.36 230.41 L822.70 233.90 L822.85 239.16 L826.46 241.60 L830.10 244.04 L831.08 248.54 L834.91 250.88 L839.62 252.61 L840.97 256.81 L844.20 259.66 L848.48 261.82 L848.51 266.88 L851.30 270.06 L855.08 272.63 L854.45 278.00 L857.64 280.95 L862.97 282.65 L862.09 288.06 L862.46 292.68 L866.48 295.22 L867.34 299.53 L867.62 304.12 L869.73 307.72 L872.50 310.99 L871.96 315.92 L876.90 318.14 L878.51 322.01 L876.07 327.73 L882.30 329.48 L885.55 332.63 L882.53 338.47 L888.63 340.45 L892.59 343.40 L891.58 348.32 L895.75 351.24 L899.25 354.46 L898.79 359.13 L900.33 363.08 L903.57 366.46 L903.15 371.06 L905.26 374.84 L908.84 378.20 L908.57 382.71 L909.35 386.90 L910.73 390.93 L912.18 394.95 L913.14 399.09 L913.62 403.35 L915.66 407.24 L918.01 411.10 L918.34 415.39 L916.63 420.07 L918.27 424.08 L919.87 428.12 L919.10 432.56 L920.36 436.66 L922.86 440.60 L922.94 444.90 L924.50 449.01 L926.71 453.06 L927.75 457.27 L927.72 461.59 L929.71 465.74 L929.46 470.08 L928.82 474.43 L930.06 478.67 L928.56 483.04 L927.43 487.36 L928.02 491.63 L928.26 495.91 L955.14 500.00 L957.29 495.43 L958.14 490.84 L959.09 486.22 L955.90 481.75 L955.34 477.21 L956.80 472.56 L953.98 468.17 L953.55 463.64 L955.27 458.91 L952.70 454.58 L952.74 450.00 L954.15 445.24 L952.80 440.80 L951.90 436.32 L952.63 431.59 L951.04 427.21 L949.94 422.76 L949.74 418.16 L948.12 413.82 L945.78 409.64 L945.11 405.13 L943.64 400.79 L943.12 396.25 L942.09 391.81 L941.24 387.33 L938.10 383.46 L937.04 379.05 L935.81 374.68 L931.08 371.36 L932.21 366.30 L931.24 361.86 L927.02 358.49 L928.07 353.38 L925.89 349.35 L921.12 346.28 L921.51 341.34 L921.86 336.37 L915.73 333.95 L916.66 328.73 L919.45 322.66 L911.73 321.05 L911.92 316.05 L914.59 309.86 L907.35 308.23 L905.58 304.08 L906.37 298.66 L901.66 295.97 L900.69 291.40 L897.87 287.78 L893.84 284.84 L890.36 281.65 L889.82 276.81 L885.40 274.19 L880.18 272.11 L881.52 266.09 L880.26 261.59 L874.42 260.01 L874.22 254.82 L872.47 250.61 L866.10 249.54 L866.06 244.16 L864.23 239.97 L859.75 237.70 L859.04 232.68 L857.26 228.41 L853.67 225.52 L851.49 221.53 L848.64 218.06 L844.08 216.02 L841.54 212.33 L838.58 208.98 L834.89 206.28 L832.33 202.60 L829.28 199.33 L825.41 196.85 L822.68 193.31 L819.86 189.84 L814.99 188.39 L812.60 184.51 L810.28 180.53 L805.08 179.53 L802.81 175.48 L800.20 171.75 L795.03 170.86 L793.19 166.26 L791.71 161.16 L785.47 161.63 L783.75 156.76 L783.34 150.19 L775.76 152.50 L772.96 148.87 L772.36 142.32 L765.61 143.84 L761.13 142.46 L758.33 138.76 L755.34 135.29 L752.73 131.21 L748.19 129.96 L745.91 125.32 L741.29 124.21 L739.07 119.35 L735.60 116.40 L729.83 117.28 L727.75 112.01 L725.30 107.23 L718.67 109.79 L715.66 105.99 L712.54 102.29 L706.85 103.46 L703.59 100.00 L700.80 95.51 L696.45 94.14 L691.14 94.83 L687.13 92.82 L681.72 93.95 L675.46 97.17 L670.13 98.51 L665.89 97.35 L661.34 97.00 L655.89 99.04 L655.87 86.88 L652.44 83.43 L647.28 84.69 L644.43 79.42 L640.43 77.37 L636.18 76.03 L632.34 73.39 L628.10 71.96 L624.17 69.49 L620.08 67.48 L614.51 70.93 L610.47 68.81 L606.30 67.13 L601.42 68.40 L597.25 66.71 L593.38 63.59 L588.62 64.62 L583.56 67.37 L579.99 62.39 L575.26 63.68 L570.20 67.18 L566.46 62.62 L562.01 62.46 L557.18 65.36 L552.97 63.62 L548.94 60.14 L544.33 61.69 L539.86 62.25 L535.28 64.29 L531.08 61.69 L526.78 59.99 L522.16 64.09 L517.95 60.24 L513.68 55.90 L509.15 60.07 L504.74 60.60 L500.35 58.83 L495.96 60.83 L491.56 60.65 L487.16 60.42 L482.72 59.41 L478.41 61.61 L474.07 62.61 L469.55 60.75 L465.40 64.12 L461.55 70.16 L457.14 69.41 L452.99 71.26 L449.79 80.76 L444.49 72.73 L439.65 69.26 L436.00 74.28 L431.03 70.43 L426.76 71.31 L422.24 70.75 L417.75 70.48 L413.62 72.12 L409.05 71.64 L404.25 70.23 L401.32 77.03 L396.79 76.81 L392.12 76.10 L388.75 80.44 L384.20 80.28 L379.52 79.76 L375.64 82.06 L372.47 86.56 L367.96 86.68 L364.66 90.49 L361.71 95.21 L358.23 98.20 L354.64 100.79 L351.21 103.75 L348.05 107.32 L341.58 102.45 L337.39 103.51 L333.74 105.88 L329.59 107.08 L324.94 107.15 L320.18 107.10 L317.50 111.54 L313.03 112.15 L307.48 110.64 L304.66 114.68 L301.57 118.12 L297.04 118.76 L293.79 121.82 L289.89 123.67 L286.32 126.11 L281.50 126.40 L278.53 129.87 L276.27 134.44 L272.68 136.78 L271.70 143.20 L270.75 149.48 L267.82 152.64 L265.01 155.93 L263.81 161.49 L256.11 157.80 L249.53 155.90 L248.03 161.01 L242.16 160.26 L238.58 162.61 L234.77 164.67 L230.54 166.24 L228.10 170.03 L224.04 171.84 L218.82 172.34 L218.78 178.85 L215.81 181.93 L211.02 183.01 L210.76 189.03 L206.85 191.08 L202.28 192.48 L199.76 196.01 L198.89 201.17 L195.21 203.51 L191.31 205.67 L191.32 211.52 L188.42 214.59 L183.72 216.05 L182.71 220.82 L182.86 226.53 L175.67 225.94 L173.14 229.36 L173.92 235.45 L170.46 238.06 L168.34 241.75 L164.81 244.34 L162.61 247.96 L160.02 251.29 L154.55 252.55 L151.69 255.73 L153.45 262.10 L149.26 264.35 L146.55 267.63 L146.23 272.45 L143.46 275.67 L139.43 278.14 L138.22 282.36 L138.50 287.42 L135.92 290.77 L137.58 296.52 L140.23 302.71 L139.26 306.85 L138.35 310.99 L139.90 316.36 L134.58 318.23 L125.56 318.39 L125.60 323.01 L121.81 325.82 L119.08 329.16 L116.43 332.56 L113.98 336.07 L113.02 340.21 L110.86 343.86 L106.60 346.69 L108.14 351.79 L108.18 356.27 L105.18 359.63 L105.70 364.24 L105.57 368.59 L104.27 372.54 L100.72 375.79 L102.76 380.77 L103.60 385.33 L101.07 388.91 L102.65 393.62 L105.53 398.60 L103.20 402.23 L103.05 406.39 L108.56 411.81 L100.10 414.10 L95.00 417.23 L99.31 422.28 L95.98 425.82 L95.35 429.88 L92.71 433.61 L91.54 437.60 L93.02 441.99 L89.02 445.60 L86.53 449.48 L91.35 454.21 L88.85 458.09 L87.09 462.07 L89.72 466.45 L88.13 470.46 L85.73 474.45 L86.67 478.66 L89.08 482.90 L88.29 486.99 L92.62 491.20 L97.69 495.34 L99.98 499.36 L100.58 503.36 L102.67 507.31 L103.03 511.28 L93.65 515.61 L93.67 519.68 L94.42 523.72 L91.96 527.96 L91.59 532.09 L91.13 536.24 L91.66 540.31 L91.25 544.49 L90.09 548.76 L91.35 552.76 L94.93 556.42 L94.33 560.65 L95.76 564.58 L97.26 568.47 L98.27 572.44 L96.75 576.89 L100.16 580.39 L104.17 583.71 L100.75 588.61 L104.40 591.96 L108.57 595.13 L105.15 600.15 L108.26 603.54 L112.89 606.47 L110.68 611.28 L110.00 615.70 L114.04 618.72 L115.31 622.55 L119.11 625.55 L117.80 630.23 L118.19 634.38 L123.02 636.93 L120.79 642.05 L119.10 647.04 L124.96 649.10 L125.83 653.11 L125.45 657.65 L130.25 660.00 L131.17 664.01 L130.62 668.70 L133.02 672.05 L137.25 674.52 L138.39 678.44 L139.19 682.55 L144.76 684.22 L150.90 685.49 L151.75 689.53 L155.61 691.92 L164.18 691.57 L157.63 699.87 L158.25 704.11 L162.58 706.14 L161.69 711.35 L163.04 715.22 L164.68 718.93 L166.07 722.81 L168.51 726.01 L169.22 730.41 L170.88 734.17 L176.78 734.88 L178.47 738.60 L180.70 741.93 L184.09 744.37 L186.39 747.65 L187.45 751.92 L191.13 754.10 L196.79 754.57 L197.88 758.84 L202.52 760.07 L208.12 760.37 L211.42 762.66 L214.79 764.85 L219.03 766.20 L220.83 769.84 L219.93 776.18 L222.89 778.78 L225.03 782.22 L229.02 783.74 L230.13 788.30 L232.19 791.89 L238.08 791.27 L238.68 796.51 L239.06 802.13 L245.08 801.19 L248.14 803.68 L250.18 807.43 L254.63 808.20 L257.18 811.33 L259.64 814.61 L262.36 817.59 L266.71 818.37 L270.41 819.98 L274.72 820.69 L281.09 818.34 L286.20 817.67 L289.87 819.05 L293.90 819.86 L299.73 817.75 L297.31 828.83 L298.39 834.52 L304.01 832.67 L304.82 839.01 L308.49 840.46 L311.58 842.96 L314.27 846.21 L318.04 847.49 L321.03 850.24 L323.53 854.06 L329.20 851.44 L332.44 853.72 L335.19 857.12 L340.12 855.74 L343.44 857.87 L346.24 861.27 L350.50 861.24 L355.38 859.59 L357.96 863.63 L361.91 864.23 L366.81 862.19 L369.92 864.96 L373.07 867.71 L377.82 865.76 L381.92 865.61 L384.17 871.29 L388.27 871.17 L392.83 869.36 L396.68 869.89 L400.06 872.10 L403.33 874.86 L407.70 873.30 L411.11 875.59 L414.02 880.20 L418.19 879.36 L422.46 877.86 L425.91 880.35 L429.85 880.33 L433.80 880.18 L437.69 880.36 L441.17 883.08 L445.25 881.89 L449.38 880.10 L453.18 880.63 L457.55 876.16 L461.76 872.22 L465.57 871.61 L469.39 870.65 L473.46 865.97 L476.62 874.27 L480.06 880.35 L484.02 876.69 L487.67 880.45 L491.46 881.31 L495.26 882.57 L499.08 883.72 L502.91 882.25 L506.76 883.79 L510.68 886.85 L514.36 881.69 L518.19 881.67 L522.11 883.38 L525.69 879.34 L529.47 878.95 L533.38 880.06 L537.15 879.39 L540.58 875.69 L544.44 876.09 L548.07 874.63 L551.32 870.55 L554.60 867.22 L558.50 868.07 L561.91 865.90 L564.54 859.56 L568.99 863.39 L573.13 865.22 L576.12 861.34 L580.51 864.14 L584.75 865.90 L587.82 862.63 L592.23 864.83 L595.08 860.89 L598.54 859.40 L601.63 856.63 L604.40 852.93 L609.34 856.49 L612.58 854.36 L616.02 852.92 L620.28 853.92 L624.29 854.06 L627.66 852.34 L630.36 848.87 L634.70 849.75 L636.82 844.94 L637.89 837.76 L640.83 835.33 L643.92 833.31 L645.42 827.74 L648.78 826.46 L654.72 830.70 L657.88 828.84 L661.11 827.14 L667.21 831.14 L670.87 830.13 L674.27 828.61 L676.95 825.74 L679.01 821.82 L682.20 819.99 L682.69 813.52 L687.60 814.66 L691.70 814.36 L693.01 809.50 L699.44 812.79 L703.08 811.59 L706.34 809.78 L710.03 808.58 L711.77 804.55 L715.07 802.79 L714.72 795.98 L717.55 793.66 L718.82 789.28 L719.65 784.42 L723.53 783.54 L726.58 781.56 L729.47 779.38 L732.76 777.69 L736.71 776.73 L740.86 775.95 L742.74 772.55 L747.11 771.94 L747.40 766.84 L749.37 763.63 L751.98 761.11 L750.87 754.81 L757.49 756.35 L760.18 753.90 L760.92 749.58 L766.25 749.62 L769.42 747.58 L772.11 745.08 L772.93 740.92 L776.70 739.37 L777.16 734.96 L774.85 728.32 L775.08 723.90 L777.14 721.01 L776.74 716.19 L776.85 711.86 L784.29 713.08 L787.37 710.93 L788.21 707.15 L795.07 707.63 L798.93 705.91 L799.84 702.15 L802.98 699.89 L802.43 695.21 L803.83 691.84 L802.50 686.79 L804.60 683.91 L809.25 682.52 L809.26 678.38 L813.72 676.79 L818.14 675.12 L820.31 672.16 L822.07 668.98 L821.77 664.74 L825.49 662.56 L823.64 657.61 L821.52 652.62 L821.44 648.66 L821.60 644.85 L820.21 640.39 L821.24 637.03 L824.79 634.72 L826.64 631.67 L828.10 628.46 L833.68 626.81 L834.69 623.38 L837.06 620.44 L836.13 616.33 L835.82 612.48 L837.24 609.21 L832.43 603.99 L838.05 602.05 L840.81 599.18 L838.17 594.75 L843.59 592.58 L844.67 589.18 L847.07 586.11 L845.92 582.16 L847.35 578.84 L846.82 575.08 L842.21 570.51 L839.26 566.37 L839.73 562.94 L838.53 559.22 L833.33 554.88 L840.93 552.64 L844.45 549.66 L842.72 545.92 L848.18 543.11 L851.51 539.96 L849.65 536.21 L852.73 532.96 L850.10 529.19 L849.16 525.60 L847.27 521.97 L845.01 518.37 L849.85 515.12 L849.02 511.59 L849.02 508.09 L854.62 504.68 L854.77 501.13 L853.62 497.59 L853.27 494.06 L854.14 490.50 L849.66 487.12 L846.36 483.77 L846.18 480.31 L840.09 477.24 L841.50 473.72 L840.68 470.35 L836.39 467.33 L837.03 463.86 L833.54 460.86 L830.14 457.91 L830.63 454.48 L831.07 451.04 L827.81 448.17 L830.00 444.43 L832.49 440.59 L828.78 437.85 L829.25 434.35 L831.29 430.49 L826.68 428.04 L826.67 424.61 L828.26 420.78 L824.09 418.35 L824.62 414.75 L825.68 410.98 L823.44 408.11 L823.52 404.58 L823.28 401.13 L820.01 398.62 L820.11 395.05 L819.66 391.65 L816.10 389.31 L816.41 385.64 L815.88 382.25 L814.03 379.35 L812.18 376.46 L810.99 373.32 L808.11 370.89 L805.75 368.27 L805.91 364.56 L803.96 361.77 L801.03 359.45 L801.15 355.71 L798.82 353.13 L794.42 351.62 L793.56 348.36 L791.06 345.94 L786.38 344.73 L788.20 340.00 L787.00 336.89 L782.12 335.90 L783.54 331.26 L782.62 327.96 L778.80 326.44 L777.30 323.50 L776.64 320.01 L780.89 313.22 L779.25 310.26 L776.75 307.88 L775.26 304.81 L775.39 300.55 L774.12 297.26 L770.18 295.96 L769.68 292.08 L770.93 286.76 L766.99 285.50 L763.17 284.20 L762.37 280.43 L759.34 278.52 L756.85 276.17 L754.77 273.46 L754.14 269.43 L750.54 268.09 L746.59 267.12 L744.09 264.81 L738.10 265.96 L732.49 266.85 L727.28 267.47 L721.00 269.33 L715.59 270.42 L718.89 262.18 L719.19 257.02 L714.75 257.11 L716.21 250.48 L714.43 247.47 L712.86 244.18 L711.20 240.95 L708.58 238.87 L707.72 234.54 L706.78 230.23 L701.69 231.35 L698.94 229.42 L695.97 227.80 L692.23 227.27 L690.63 223.72 L686.39 224.00 L682.52 223.83 L678.58 223.82 L675.22 222.98 L670.98 223.60 L666.31 225.04 L663.89 222.82 L659.45 224.06 L654.53 226.31 L650.31 227.44 L652.50 216.81 L650.94 212.87 L647.71 212.06 L646.66 206.92 L644.67 203.53 L642.31 200.82 L638.77 200.57 L636.14 198.37 L634.88 193.01 L631.99 191.24 L627.16 194.13 L624.87 190.95 L621.82 189.60 L617.99 190.27 L615.01 188.79 L612.51 185.91 L608.98 185.92 L604.96 187.46 L602.66 183.85 L599.09 184.14 L594.27 188.62 L590.42 190.22 L586.27 193.05 L581.79 197.41 L579.03 195.54 L577.00 190.69 L573.81 190.33 L571.81 184.79 L568.79 183.43 L565.87 181.59 L562.95 179.54 L559.66 179.38 L556.81 176.75 L554.07 173.26 L550.38 175.38 L546.93 176.33 L543.84 174.74 L540.41 175.74 L537.17 175.34 L533.79 176.22 L530.80 173.21 L527.24 176.41 L523.75 179.49 L520.59 178.55 L517.12 183.24 L513.82 186.07 L510.61 188.00 L507.43 190.11 L504.32 190.93 L501.26 184.31 L498.08 180.41 L494.90 181.59 L491.62 178.16 L488.42 178.63 L485.13 177.04 L481.87 176.77 L478.79 179.12 L475.32 175.99 L471.92 174.35 L469.18 180.06 L465.76 178.29 L462.39 177.31 L459.55 180.71 L456.17 179.77 L452.68 178.21 L449.63 179.79 L446.85 182.82 L443.57 182.75 L441.23 187.74 L439.11 193.34 L436.51 196.18 L433.60 197.43 L431.04 200.12 L428.10 201.05 L422.80 192.56 L419.70 193.22 L416.80 194.64 L412.99 192.81 L409.69 192.92 L406.42 193.17 L403.40 194.26 L400.07 194.38 L396.50 193.85 L393.72 195.71 L391.76 199.76 L388.32 199.68 L385.61 201.56 L382.97 203.58 L380.10 204.97 L376.29 204.11 L374.36 207.76 L372.79 212.08 L368.08 209.30 L366.36 213.18 L364.93 217.51 L360.11 214.80 L358.23 218.14 L357.12 222.86 L352.66 221.10 L349.03 221.01 L347.75 225.24 L344.97 226.72 L343.62 230.65 L339.58 229.95 L336.39 230.74 L335.63 235.49 L330.95 233.93 L326.47 232.82 L326.44 238.54 L323.48 239.76 L319.67 239.79 L319.14 244.52 L316.07 245.62 L312.18 245.63 L310.04 248.04 L309.18 252.10 L306.54 253.80 L306.11 258.27 L306.99 264.24 L306.65 268.58 L304.69 270.93 L303.61 274.28 L304.26 279.51 L294.08 272.66 L290.63 273.45 L290.23 277.53 L285.59 277.11 L282.60 278.48 L280.02 280.29 L277.17 281.86 L275.10 284.19 L271.55 285.13 L268.92 286.97 L270.31 292.46 L267.56 294.16 L266.52 297.37 L268.36 302.99 L265.39 304.47 L264.56 307.74 L266.38 313.09 L264.28 315.24 L260.39 316.03 L259.91 319.45 L260.48 323.61 L256.66 324.51 L253.94 326.27 L255.94 331.31 L253.49 333.24 L245.76 331.69 L245.37 335.07 L243.92 337.74 L243.28 340.91 L238.95 341.82 L236.39 343.85 L238.76 348.76 L234.07 349.58 L228.74 350.13 L231.26 355.00 L229.66 357.61 L226.56 359.45 L227.63 363.43 L225.36 365.71 L223.57 368.24 L221.57 370.69 L222.04 374.27 L221.80 377.50 L222.40 381.06 L226.16 385.91 L228.25 389.95 L228.05 393.02 L228.37 396.27 L231.97 400.71 L220.98 399.80 L215.88 401.16 L219.08 405.41 L213.30 406.65 L212.90 409.68 L211.43 412.38 L209.01 414.82 L208.77 417.90 L207.04 420.57 L204.02 422.92 L208.62 427.22 L207.00 429.92 L204.31 432.39 L207.18 436.12 L205.76 438.89 L203.08 441.42 L203.99 444.67 L206.75 448.22 L203.52 450.70 L203.86 453.79 L206.96 457.28 L204.15 459.88 L202.48 462.68 L205.80 466.08 L205.98 469.08 L201.57 471.63 L203.05 474.76 L205.79 477.96 L206.34 480.95 L205.01 483.83 L202.93 486.69 L205.50 489.75 L203.99 492.66 L199.97 495.57 L201.05 498.57 L204.15 501.54 L202.03 504.54 L202.82 507.50 L204.29 510.42 L204.94 513.35 L202.79 516.43 L204.64 519.29 L207.28 522.06 L204.48 525.25 L206.71 528.01 L212.97 530.31 L211.26 533.42 L212.93 536.14 L221.74 537.86 L215.96 541.54 L211.89 545.08 L216.68 547.24 L213.58 550.71 L213.17 553.74 L212.72 556.81 L212.26 559.89 L214.14 562.49 L213.49 565.64 L211.08 569.24 L217.04 570.81 L217.68 573.66 L216.29 577.06 L221.03 578.78 L219.96 582.11 L219.05 585.44 L220.89 587.94 L224.17 589.95 L224.99 592.73 L227.37 594.98 L231.79 596.46 L234.47 598.50 L235.64 601.08 L238.39 603.04 L242.23 604.52 L237.40 609.55 L237.16 612.75 L241.18 614.10 L239.80 617.83 L240.79 620.52 L240.62 623.77 L242.64 625.98 L243.85 628.58 L241.82 632.85 L242.54 635.75 L247.97 636.13 L247.83 639.48 L248.60 642.35 L251.28 644.14 L252.79 646.58 L252.58 650.07 L255.06 651.94 L259.15 652.76 L260.47 655.30 L265.41 655.45 L271.78 654.54 L274.25 656.18 L276.69 657.82 L280.59 658.38 L279.39 662.62 L274.85 669.47 L277.81 670.75 L277.46 674.59 L278.73 677.19 L279.92 679.88 L280.82 682.83 L283.35 684.42 L284.68 687.04 L284.68 690.85 L289.00 690.82 L292.01 691.92 L292.71 695.14 L296.35 695.59 L298.11 697.82 L299.69 700.24 L301.05 702.90 L304.85 703.05 L307.81 704.01 L307.61 708.36 L312.31 707.39 L315.64 707.85 L314.92 712.92 L318.35 713.23 L323.25 711.74 L321.86 717.80 L323.87 719.79 L328.98 717.84 L330.86 719.94 L333.96 720.43 L335.14 723.48 L336.93 725.75 L340.37 725.70 L340.60 730.23 L341.05 734.55 L346.81 731.00 L348.28 733.83 L349.30 737.43 L353.73 735.62 L355.86 737.44 L357.23 740.58 L360.10 741.21 L363.82 740.30 L365.91 742.24 L370.39 739.77 L374.99 736.88 L377.77 737.34 L380.56 737.73 L384.47 735.81 L387.41 735.73 L387.42 741.91 L389.93 742.83 L393.89 740.47 L395.74 742.82 L398.20 743.78 L401.54 742.58 L404.29 742.74 L407.11 742.67 L409.91 742.60 L412.61 742.73 L415.40 742.58 L417.63 744.00 L419.13 747.71 L421.13 750.02 L423.98 749.66 L426.02 751.96 L428.54 752.70 L431.70 751.10 L434.61 750.26 L437.31 750.12 L439.09 753.75 L441.56 754.68 L444.06 755.47 L446.15 758.23 L448.57 759.63 L451.39 758.94 L454.12 758.61 L457.08 756.84 L460.16 754.01 L462.89 753.11 L465.74 751.15 L468.52 749.37 L471.17 748.37 L473.75 747.75 L476.32 747.04 L478.80 747.15 L481.28 747.18 L483.73 747.69 L486.13 749.39 L488.61 749.68 L491.12 749.63 L493.60 750.07 L496.11 749.58 L498.62 748.25 L501.09 747.34 L503.55 746.31 L505.98 744.83 L508.39 743.70 L510.79 742.76 L513.19 742.17 L515.61 741.96 L517.99 741.23 L520.49 742.12 L523.00 742.91 L525.49 743.24 L528.11 744.58 L530.60 744.67 L532.91 743.31 L535.19 741.95 L537.54 741.13 L539.88 740.33 L542.24 739.69 L544.77 739.97 L547.20 739.69 L549.66 739.53 L552.07 739.10 L554.44 738.50 L557.10 739.10 L559.26 737.59 L561.42 736.17 L564.05 736.56 L566.22 735.22 L568.39 733.95 L570.86 733.67 L573.31 733.33 L575.83 733.17 L577.96 731.82 L580.01 730.25 L582.37 729.62 L584.57 728.53 L586.67 727.21 L588.56 725.36 L590.38 723.40 L592.28 721.70 L594.31 720.33 L596.33 718.98 L598.47 717.91 L601.27 718.27 L603.63 717.61 L605.71 716.39 L608.04 715.65 L610.07 714.33 L611.63 712.12 L613.27 710.12 L614.96 708.24 L616.33 705.84 L617.83 703.70 L619.38 701.70 L621.10 700.01 L623.06 698.74 L624.78 697.08 L627.18 696.49 L629.68 696.03 L632.06 695.36 L634.81 695.19 L637.09 694.31 L638.55 692.27 L639.84 690.03 L641.31 688.05 L642.98 686.36 L644.57 684.58 L646.63 683.41 L648.79 682.34 L650.75 681.02 L652.56 679.51 L654.45 678.09 L656.44 676.78 L658.30 675.32 L659.72 673.38 L661.15 671.46 L663.40 670.40 L665.30 668.97 L666.77 667.09 L669.69 666.65 L671.41 665.01 L672.41 662.68 L674.31 661.21 L675.48 659.07 L676.58 656.87 L678.16 655.12 L679.65 653.28 L680.54 650.95 L681.15 648.41 L681.90 646.00 L682.98 643.89 L683.89 641.65 L685.29 639.80 L686.66 637.93 L687.80 635.89 L689.35 634.14 L690.62 632.20 L691.65 630.10 L692.36 627.79 L692.77 625.30 L693.35 622.95 L693.37 620.26 L693.67 617.77 L693.91 615.28 L694.59 613.07 L695.52 611.01 L696.82 609.15 L698.70 607.61 L700.39 605.95 L702.65 604.57 L704.43 602.91 L704.93 600.61 L704.93 598.07 L705.05 595.63 L705.84 593.50 L706.30 591.23 L707.16 589.15 L708.76 587.37 L709.94 585.41 L710.78 583.30 L711.63 581.20 L712.50 579.11 L712.51 576.70 L712.39 574.26 L712.72 572.00 L713.44 569.87 L714.29 567.79 L715.19 565.71 L716.59 563.78 L718.38 561.94 L719.27 559.83 L718.90 557.38 L719.32 555.16 L719.82 552.95 L720.01 550.67 L720.26 548.42 L721.33 546.34 L721.10 543.98 L723.38 542.12 L725.21 540.14 L724.87 537.76 L727.17 535.81 L727.39 533.52 L726.62 531.10 L726.05 528.72 L724.89 526.29 L723.83 523.90 L723.19 521.58 L722.68 519.28 L722.34 517.01 L721.99 514.76 L721.30 512.49 L720.87 510.25 L720.57 508.03 L719.56 505.79 L719.36 503.59 L719.72 501.40 L720.35 499.20 L720.86 496.99 L721.15 494.77 L720.76 492.57 L719.32 490.43 L718.13 488.29 L718.37 486.09 L717.07 483.99 L716.69 481.84 L719.86 479.35 L719.91 477.13 L719.55 474.94 L719.48 472.73 L719.28 470.52 L718.22 468.44 L717.79 466.27 L716.77 464.21 L717.14 461.91 L717.39 459.63 L715.55 457.73 L715.50 455.50 L713.62 453.66 L710.90 452.03 L715.66 448.68 L719.05 445.55 L718.76 443.29 L725.59 439.11 L727.71 436.09 L725.09 434.39 L721.23 433.11 L716.96 432.02 L719.16 428.92 L716.65 427.33 L715.53 425.30 L719.72 421.38 L720.81 418.49 L719.19 416.59 L717.82 414.61 L718.96 411.62 L715.55 410.48 L709.91 410.35 L706.69 409.27 L701.04 409.34 L694.41 409.98 L691.14 409.16 L689.96 407.39 L687.19 406.41 L687.74 403.78 L695.10 397.53 L695.67 394.72 L695.79 392.11 L701.69 386.22 L700.72 384.10 L697.89 383.09 L693.07 383.31 L692.21 381.20 L690.70 379.48 L687.07 379.14 L689.39 374.93 L690.81 371.24 L689.67 369.23 L687.98 367.60 L685.98 366.20 L686.17 363.22 L681.66 363.72 L676.64 364.70 L677.10 361.52 L675.78 359.69 L671.95 359.92 L673.42 355.81 L674.02 352.34 L672.89 350.30 L671.13 348.81 L669.95 346.79 L667.51 345.93 L667.25 343.05 L665.19 341.85 L661.51 342.25 L658.04 342.51 L653.19 344.27 L653.24 341.07 L651.16 340.05 L647.67 340.59 L650.51 334.22 L650.23 331.17 L648.68 329.51 L646.20 328.93 L645.56 326.18 L642.75 326.04 L637.91 328.46 L634.37 329.40 L629.70 331.90 L624.23 335.62 L619.59 338.42 L619.37 335.31 L616.44 335.92 L614.68 334.93 L618.48 325.76 L617.92 322.80 L615.78 322.19 L618.93 313.28 L618.07 310.48 L614.93 311.34 L611.12 313.42 L608.79 313.11 L607.58 310.87 L604.25 312.38 L603.47 309.31 L603.56 304.52 L601.86 302.98 L599.48 302.78 L597.39 302.02 L595.95 299.93 L593.65 299.61 L590.87 300.37 L589.19 298.74 L587.58 296.93 L585.21 296.86 L583.42 295.41 L581.67 293.84 L579.67 292.85 L577.40 292.59 L575.54 291.21 L572.75 292.48 L570.88 291.14 L568.67 290.80 L565.70 292.87 L562.93 294.51 L559.64 298.07 L558.00 296.13 L555.66 296.66 L552.93 298.74 L552.33 292.60 L550.93 289.28 L549.07 287.71 L546.57 288.92 L544.58 287.92 L542.69 286.30 L540.08 288.36 L537.47 290.75 L534.73 294.17 L531.84 299.11 L528.97 304.55 L526.81 305.75 L524.43 308.96 L522.25 310.95 L521.34 301.62 L519.73 297.56 L517.68 297.64 L516.29 289.27 L514.34 286.77 L512.12 288.29 L509.87 290.96 L507.65 294.28 L505.69 290.72 L503.55 293.46 L501.48 293.30 L499.40 288.19 L497.27 287.37 L495.17 288.44 L493.03 287.86 L490.87 286.99 L488.91 290.22 L487.12 295.34 L485.09 295.68 L482.94 294.48 L481.06 296.61 L478.92 295.74 L476.45 292.17 L474.15 290.62 L472.09 291.14 L469.90 290.73 L467.97 292.06 L465.92 292.56 L463.57 291.32 L462.00 294.48 L460.39 297.13 L459.22 301.69 L457.26 302.20 L455.33 302.86 L453.88 305.50 L451.00 302.19 L448.20 299.51 L445.79 298.51 L444.12 300.28 L442.25 301.30 L439.46 299.20 L438.27 302.42 L437.32 306.21 L436.40 309.89 L436.14 315.27 L436.22 321.32 L435.07 323.66 L434.38 327.15 L433.66 330.40 L429.19 324.16 L425.37 319.90 L423.72 320.99 L419.21 315.55 L415.99 313.30 L414.52 315.01 L413.77 318.17 L413.94 323.13 L410.63 320.90 L409.71 323.49 L408.98 326.36 L404.09 321.41 L401.77 321.40 L399.71 321.90 L399.12 324.97 L396.63 324.71 L393.85 324.05 L393.43 327.28 L391.01 327.25 L388.82 327.61 L387.35 329.11 L386.10 330.93 L385.38 333.48 L386.17 338.11 L387.08 342.78 L384.30 342.25 L383.58 344.55 L383.71 347.93 L377.57 343.17 L375.07 343.22 L375.08 346.42 L375.97 350.58 L375.54 353.08 L372.90 352.98 L373.25 356.31 L370.42 356.03 L366.36 354.47 L363.56 354.37 L362.92 356.59 L361.85 358.33 L358.67 357.94 L359.81 361.88 L362.42 367.13 L362.88 370.21 L365.60 375.31 L368.95 380.83 L368.45 382.76 L368.30 384.96 L368.64 387.55 L364.34 386.20 L356.64 382.17 L355.39 383.54 L350.20 381.82 L345.32 380.46 L344.35 382.18 L344.75 384.90 L347.16 389.04 L344.67 389.59 L344.63 391.88 L346.31 395.32 L339.81 393.21 L337.58 394.06 L336.28 395.53 L335.28 397.19 L334.72 399.13 L332.85 400.27 L336.00 404.36 L337.92 407.64 L334.57 407.91 L334.41 409.97 L335.96 412.93 L331.10 412.50 L327.87 413.01 L327.03 414.74 L326.21 416.49 L325.96 418.50 L325.74 420.51 L323.31 421.53 L323.65 423.78 L325.66 426.71 L327.76 429.61 L330.49 432.69 L326.97 433.29 L328.02 435.66 L327.72 437.51 L322.10 437.48 L319.62 438.63 L319.99 440.75 L319.97 442.73 L317.31 443.89 L319.58 446.56 L324.07 449.80 L325.95 452.21 L330.55 455.29 L336.17 458.52 L338.61 460.85 L337.30 462.25 L339.06 464.35 L337.60 465.73 L327.37 465.37 L325.66 466.84 L324.15 468.37 L315.99 468.80 L315.61 470.63 L317.15 472.75 L321.02 475.15 L320.38 476.89 L320.34 478.71 L323.09 480.83 L318.90 482.20 L315.41 483.72 L315.14 485.56 L315.66 487.45 L316.42 489.35 L314.02 491.07 L315.33 492.99 L316.62 494.87 L315.31 496.68 L314.73 498.52 L316.10 500.37 L314.62 502.23 L313.92 504.10 L314.00 505.96 L314.68 507.79 L314.79 509.65 L316.65 511.39 L315.73 513.30 L316.94 515.05 L319.95 516.62 L322.73 518.15 L327.56 519.40 L325.42 521.41 L326.19 523.08 L329.21 524.42 L322.93 527.13 L321.13 529.24 L321.35 531.04 L322.87 532.60 L321.51 534.70 L322.22 536.42 L325.31 537.61 L328.28 538.77 L332.98 539.47 L338.57 539.85 L344.48 540.05 L345.89 541.33 L349.54 541.97 L349.82 543.52 L341.87 547.54 L340.12 549.82 L341.07 551.27 L332.71 555.82 L331.45 558.12 L334.21 559.03 L338.35 559.38 L339.72 560.70 L339.02 562.82 L342.36 563.34 L341.10 565.70 L337.64 569.03 L337.86 570.86 L339.73 571.97 L340.55 573.52 L340.35 575.56 L343.97 575.76 L349.45 574.97 L349.03 577.08 L349.00 579.00 L352.13 579.26 L350.55 582.04 L348.36 585.23 L348.20 587.33 L349.69 588.48 L349.57 590.59 L351.70 591.34 L351.81 593.33 L352.89 594.71 L356.02 594.75 L358.92 594.88 L363.48 593.81 L363.26 595.99 L365.02 596.78 L368.24 596.48 L364.53 601.30 L363.33 604.34 L363.55 606.35 L365.96 606.64 L366.68 608.26 L366.93 610.28 L369.91 610.03 L373.14 609.49 L377.14 608.20 L382.14 605.91 L387.45 603.19 L389.04 603.79 L392.69 602.41 L395.64 601.61 L389.67 609.59 L388.40 613.09 L389.84 613.88 L385.47 620.80 L385.15 623.59 L387.49 623.53 L390.62 622.52 L394.05 621.10 L392.89 624.93 L395.95 623.85 L396.71 625.47 L395.45 629.61 L395.82 631.84 L396.69 633.46 L399.49 632.55 L399.71 635.06 L400.33 637.05 L403.11 636.08 L403.68 638.17 L404.68 639.71 L406.51 640.00 L408.34 640.28 L411.06 639.14 L414.78 636.31 L418.47 633.34 L418.05 637.10 L420.30 636.42 L422.18 636.31 L420.17 643.13 L421.61 643.92 L424.13 642.67 L427.50 639.68 L428.88 640.43 L430.32 641.09 L432.93 639.29 L432.52 643.81 L432.63 647.37 L433.52 649.36 L435.37 649.21 L437.08 649.34 L437.78 651.90 L441.08 648.04 L444.16 644.51 L446.81 641.85 L450.23 636.88 L453.61 631.67 L455.16 631.44 L457.22 629.62 L459.04 628.41 L458.19 635.74 L457.77 642.17 L459.10 642.91 L458.62 650.25 L459.15 654.33 L460.88 654.02 L463.09 651.66 L465.61 647.70 L466.33 651.44 L468.19 650.17 L470.19 648.02 L470.43 654.77 L471.84 655.84 L473.34 656.46 L474.97 656.31 L476.45 657.17 L478.24 655.79 L480.35 651.79 L482.18 649.32 L483.36 652.37 L485.02 651.15 L486.65 649.97 L487.83 654.23 L489.21 656.61 L490.79 656.57 L492.36 656.47 L493.95 655.93 L495.53 655.32 L497.05 657.22 L498.63 655.87 L500.19 653.08 L501.68 649.17 L503.13 647.48 L504.67 649.35 L506.03 646.16 L507.61 648.47 L509.35 652.46 L510.98 653.90 L512.45 652.96 L513.94 652.40 L515.68 654.30 L516.82 650.54 L517.65 644.84 L518.73 641.91 L519.38 636.27 L519.79 629.87 L520.65 626.96 L521.93 626.83 L522.87 624.79 L524.79 628.05 L527.98 637.18 L529.41 637.15 L531.92 641.92 L534.49 646.48 L535.90 645.91 L536.81 643.41 L537.14 638.92 L539.00 640.26 L540.10 638.79 L540.44 634.90 L543.72 640.71 L545.66 641.92 L547.19 641.81 L548.52 641.09 L549.88 640.46 L551.69 641.05 L552.40 638.69 L553.52 637.49 L555.36 638.10 L556.90 637.93 L557.61 635.80 L559.63 636.72 L561.33 636.87 L562.78 636.45 L563.69 634.86 L564.76 633.65 L565.70 632.19 L567.38 632.23 L568.12 630.45 L568.05 627.20 L567.72 623.60 L567.18 619.75 L569.97 621.86 L570.02 619.16 L571.12 618.31 L575.23 622.37 L577.31 622.96 L578.13 621.55 L579.15 620.48 L581.36 621.19 L582.04 619.60 L581.40 616.16 L580.84 612.94 L579.36 608.57 L577.10 603.29 L575.23 598.71 L574.35 595.55 L573.35 592.35 L574.81 592.28 L582.29 599.45 L584.70 600.30 L586.91 600.86 L593.45 606.28 L594.70 605.55 L594.34 603.06 L592.61 599.17 L593.94 598.59 L594.82 597.54 L593.51 594.29 L597.22 596.09 L600.72 597.58 L601.98 596.84 L602.32 595.24 L603.02 593.99 L604.99 593.88 L602.71 590.01 L600.01 585.89 L602.42 586.19 L603.52 585.36 L601.94 582.36 L606.00 583.90 L609.43 584.85 L610.83 584.17 L611.31 582.80 L612.52 581.96 L612.29 580.09 L614.46 579.92 L614.65 578.36 L612.99 575.58 L611.34 572.87 L608.19 569.28 L611.02 569.53 L610.76 567.84 L609.14 565.36 L615.83 567.80 L617.92 567.45 L618.88 566.43 L618.73 564.79 L620.63 564.28 L621.07 562.96 L619.31 560.54 L617.24 558.02 L613.89 554.95 L609.68 551.57 L604.94 548.07 L603.92 546.35 L601.06 543.87 L599.83 542.16 L610.38 545.32 L613.46 545.26 L613.50 543.97 L623.18 546.30 L625.15 545.62 L623.65 543.68 L620.62 541.26 L619.97 539.70 L621.39 538.82 L616.82 536.08 L617.14 534.90 L623.53 535.46 L623.53 534.13 L621.46 532.25 L621.85 531.06 L623.67 530.21 L620.60 528.18 L613.98 525.44 L612.86 524.00 L610.15 522.28 L606.63 520.46 L604.50 518.97 L602.95 517.63 L602.81 516.54 L602.06 515.38 L600.88 514.17 L600.12 513.04 L599.92 512.00 L599.75 510.97 L599.60 509.95 L599.44 508.93 L599.29 507.92 L599.15 506.91 L599.01 505.90 L598.87 504.90 L598.72 503.91 L598.56 502.91 L598.40 501.92 L598.22 500.94 Z"/>
  <svg class="pausebutton" id="pausebutton">
    <circle cx="500" cy="500" id="pausestart" class="pausestart" r="52.65"/>
    <rect height="50.02" width="10.00" y="473.68" rx="2.00" ry="2.00" x="479.99" class="pausesymbol"/>
    <rect height="50.02" width="10.00" y="473.68" rx="2.00" ry="2.00" x="510.00" class="pausesymbol"/>
    <polygon points="530.01,500 479.99,530.01 479.99,469.99" class="playsymbol"/>
  </svg>
  <polygon id="playback-head" class="playback-head" points="941.65,500 921.65,540 961.65,540"/>
</svg>