<?xml-stylesheet href="../../style/waveformjs.css" type="text/css"?>
<svg xmlns="http://www.w3.org/2000/svg" xmlns:xlink="http://www.w3.org/1999/xlink" width="100%" height="100%" viewBox="0 0 1000 1000">
  <path class="svg-wave" id="sp" d="M598.04 500.00 L598.22 500.98 L598.38 501.97 L598.54 502.96 L598.68 503.95 L598.81 504.94 L598.94 505.94 L599.05 506.94 L599.15 507.95 L599.23 508.96 L599.31 509.96 L599.36 510.97 L599.41 511.99 L599.44 513.00 L599.46 514.02 L599.45 515.03 L599.43 516.05 L599.37 517.06 L599.30 518.07 L599.19 519.08 L599.06 520.08 L598.90 521.08 L598.66 522.06 L598.36 523.03 L598.02 523.99 L597.58 524.92 L597.16 525.85 L596.68 526.76 L596.09 527.63 L595.23 528.42 L594.05 529.09 L592.33 529.58 L588.60 529.36 L583.25 528.51 L579.07 527.97 L576.04 527.76 L571.50 526.91 L570.35 527.28 L570.46 528.14 L568.76 528.26 L570.68 529.88 L571.26 530.97 L568.84 530.74 L570.57 532.36 L581.14 538.20 L579.43 538.37 L581.66 540.46 L594.80 548.15 L593.96 548.92 L591.70 548.91 L587.49 547.80 L582.52 546.16 L577.68 544.47 L573.31 542.95 L569.03 541.38 L568.19 541.81 L566.59 541.75 L565.89 542.23 L567.03 543.91 L567.52 545.21 L566.01 545.16 L568.95 548.19 L575.07 553.59 L574.11 554.04 L575.41 556.15 L582.99 563.09 L583.35 564.69 L580.80 564.02 L579.17 564.02 L574.99 561.89 L570.67 559.52 L566.33 557.01 L562.45 554.78 L561.76 555.27 L560.08 554.86 L559.06 555.02 L559.80 556.84 L559.04 557.25 L557.71 557.09 L560.45 561.01 L566.35 568.32 L566.30 569.65 L569.51 574.50 L576.18 583.30 L574.89 583.55 L572.41 582.43 L568.62 579.71 L564.43 576.37 L560.53 573.22 L556.70 570.00 L553.75 567.73 L553.15 568.37 L551.52 567.65 L551.11 568.53 L551.54 570.58 L551.04 571.38 L549.71 571.00 L549.65 572.45 L548.97 573.02 L547.85 572.91 L546.68 572.70 L546.55 574.11 L545.46 574.02 L547.60 579.26 L547.95 581.68 L545.69 579.65 L546.69 583.32 L544.73 581.72 L542.51 579.54 L541.72 579.97 L540.31 579.20 L539.26 579.08 L539.88 582.39 L538.35 581.30 L537.15 580.84 L538.90 586.92 L540.88 593.85 L539.92 594.21 L542.60 603.39 L544.36 610.82 L542.90 610.33 L540.73 607.96 L538.01 603.88 L535.22 599.32 L532.60 594.93 L530.23 590.97 L528.46 588.62 L527.49 588.63 L526.31 587.93 L525.47 588.31 L525.32 591.20 L523.95 589.74 L523.33 591.07 L523.87 597.19 L523.78 601.20 L523.11 602.94 L523.43 609.52 L523.64 616.13 L522.26 615.23 L520.74 613.48 L519.27 611.70 L517.33 606.83 L515.52 602.15 L513.89 598.01 L512.44 594.59 L511.57 595.30 L510.43 593.76 L509.43 593.19 L508.68 595.38 L507.57 593.53 L506.76 595.28 L506.30 603.44 L505.49 607.91 L504.48 609.87 L503.74 621.30 L502.60 625.15 L501.34 624.04 L500.10 620.76 L498.93 615.88 L497.87 610.82 L496.91 605.74 L496.00 601.98 L495.11 599.21 L494.14 598.80 L493.25 597.39 L492.19 598.36 L490.93 601.36 L490.08 599.69 L489.06 599.81 L487.95 600.63 L486.98 600.17 L486.17 598.69 L485.14 598.88 L483.95 599.97 L482.86 600.35 L480.61 607.06 L480.11 603.88 L479.32 602.43 L477.63 605.35 L477.34 601.70 L476.91 598.97 L475.78 599.30 L475.17 597.56 L473.57 599.66 L472.08 601.20 L471.84 598.24 L470.63 598.69 L466.23 609.47 L465.21 608.91 L463.40 610.75 L457.19 625.32 L456.02 624.64 L455.37 622.57 L455.53 618.44 L456.19 613.23 L456.90 608.16 L457.74 603.05 L458.25 598.96 L457.86 597.17 L457.33 595.75 L456.83 594.32 L454.77 596.28 L453.25 596.99 L452.95 595.15 L450.62 597.41 L445.59 604.71 L445.07 603.18 L442.51 605.44 L436.59 613.57 L434.50 614.61 L434.70 611.65 L434.33 609.76 L435.22 605.84 L436.79 601.00 L438.32 596.39 L439.86 591.95 L439.68 590.24 L439.26 588.94 L439.45 586.78 L437.12 588.23 L436.18 587.68 L436.01 586.09 L433.67 587.40 L425.65 595.96 L424.75 595.13 L420.35 598.65 L411.63 607.25 L410.86 606.00 L411.22 603.45 L413.04 599.30 L415.51 594.56 L417.91 590.05 L420.25 585.74 L422.31 581.87 L421.76 580.81 L422.09 578.88 L420.93 578.47 L419.22 578.58 L417.28 578.88 L417.42 577.17 L416.20 576.77 L414.85 576.44 L414.78 574.98 L414.60 573.64 L413.48 573.11 L412.23 572.68 L409.16 573.70 L404.97 575.54 L406.82 572.55 L404.65 572.72 L403.82 571.85 L406.32 568.53 L405.95 567.37 L406.30 565.71 L405.13 565.12 L402.88 565.25 L402.46 564.12 L403.95 561.78 L399.50 563.23 L390.17 567.58 L389.70 566.36 L383.76 568.36 L373.86 572.49 L373.80 570.85 L375.42 568.32 L378.85 564.87 L382.73 561.29 L386.80 557.73 L390.33 554.55 L392.54 552.12 L392.73 550.71 L393.15 549.21 L392.72 548.11 L390.08 547.98 L389.90 546.75 L389.62 545.58 L384.87 546.20 L378.48 547.35 L377.34 546.39 L372.03 546.94 L363.84 548.41 L363.97 546.84 L365.59 544.78 L366.59 542.97 L370.97 540.14 L375.50 537.37 L379.43 534.88 L382.05 532.85 L382.07 531.57 L383.19 530.03 L383.26 528.76 L381.54 527.94 L382.60 526.45 L381.75 525.40 L374.79 525.59 L368.33 525.54 L366.15 524.58 L357.34 524.72 L350.15 524.43 L350.95 522.77 L353.81 520.84 L358.45 518.74 L363.32 516.70 L368.28 514.76 L372.19 513.03 L375.19 511.46 L375.58 510.17 L376.03 508.89 L376.18 507.64 L373.29 506.54 L374.51 505.22 L374.19 503.98 L368.77 502.83 L365.68 501.56 L362.24 500.22 L356.35 498.79 L354.71 497.33 L352.99 495.82 L352.86 494.35 L356.37 493.04 L357.41 491.66 L358.54 490.31 L362.52 489.20 L362.02 487.77 L358.64 486.04 L364.59 485.26 L364.53 483.88 L359.29 481.83 L363.70 481.01 L366.32 480.01 L358.36 477.37 L357.44 475.76 L358.97 474.57 L351.05 471.60 L348.71 469.58 L350.53 468.39 L352.67 467.30 L355.42 466.39 L360.66 466.14 L365.47 465.88 L369.52 465.51 L372.76 465.00 L373.73 463.91 L375.45 463.05 L374.53 461.41 L372.74 459.46 L374.82 458.74 L374.12 457.11 L365.76 452.76 L366.25 451.42 L363.81 448.98 L354.47 443.82 L353.58 441.79 L355.86 441.02 L357.98 440.22 L361.26 439.96 L366.48 440.63 L371.29 441.22 L375.79 441.76 L378.51 441.55 L379.66 440.61 L382.27 440.43 L381.61 438.60 L381.14 436.85 L382.74 436.18 L382.01 434.25 L374.30 428.29 L374.81 426.91 L372.59 423.90 L364.12 416.99 L363.36 414.64 L366.27 414.58 L368.41 414.09 L372.10 414.66 L377.05 416.17 L381.54 417.49 L386.01 418.89 L388.15 418.72 L389.76 418.19 L391.40 417.72 L390.41 415.22 L390.02 413.15 L391.88 412.85 L393.10 412.06 L392.43 409.69 L394.32 409.46 L395.91 409.00 L396.12 407.34 L396.69 405.97 L397.94 405.22 L396.74 402.17 L397.94 401.35 L399.80 401.19 L399.01 398.40 L401.28 398.67 L402.46 397.87 L404.03 397.48 L405.03 396.48 L405.09 394.46 L405.31 392.56 L408.11 393.61 L407.55 390.77 L401.66 381.42 L404.16 382.06 L403.93 379.33 L397.67 368.80 L398.31 366.90 L401.11 367.84 L403.12 367.80 L407.14 370.58 L411.27 373.69 L415.25 376.76 L418.86 379.45 L420.20 378.83 L422.25 379.33 L423.12 378.02 L423.69 376.21 L424.54 374.80 L426.46 375.17 L425.43 370.47 L422.98 363.07 L424.15 361.93 L424.41 359.09 L421.14 349.41 L422.45 348.22 L424.99 349.50 L426.97 349.74 L430.65 353.60 L434.11 357.23 L437.62 361.21 L440.66 364.35 L441.92 363.53 L443.89 364.41 L445.51 364.52 L446.45 362.92 L447.83 362.39 L449.51 362.71 L449.18 357.43 L448.24 350.06 L449.34 348.34 L449.39 343.29 L448.32 334.34 L450.03 334.00 L452.31 335.64 L454.33 336.51 L457.28 340.95 L460.04 345.04 L462.78 349.46 L464.98 352.03 L466.55 352.06 L468.25 352.74 L469.87 353.18 L470.85 350.37 L472.39 350.28 L473.99 350.63 L474.76 345.94 L475.83 342.59 L477.34 341.92 L478.39 337.74 L480.05 337.83 L482.12 341.54 L483.66 341.00 L485.53 343.77 L487.28 345.91 L488.79 345.38 L490.30 344.78 L491.88 345.10 L493.39 344.20 L494.95 344.28 L496.52 344.63 L498.08 344.73 L499.63 344.24 L501.20 342.51 L502.85 338.32 L504.58 334.02 L506.29 332.80 L508.25 326.86 L510.15 324.07 L511.93 323.75 L513.43 327.25 L514.97 329.58 L516.44 332.14 L517.55 337.51 L518.86 340.37 L520.04 343.82 L521.63 343.81 L522.98 345.43 L524.62 345.09 L526.57 342.99 L527.75 345.39 L529.59 344.14 L532.64 336.99 L534.60 335.75 L536.40 335.38 L539.99 327.34 L542.20 325.75 L543.98 326.03 L544.90 329.56 L546.19 331.55 L547.04 334.93 L547.16 340.56 L548.05 343.34 L548.66 346.82 L550.11 347.58 L550.96 350.04 L552.49 350.47 L554.77 348.83 L555.52 351.42 L557.72 350.12 L562.18 343.24 L564.38 342.31 L566.28 342.18 L572.37 332.40 L573.98 333.27 L575.56 334.19 L575.87 337.84 L576.84 339.95 L576.92 343.80 L576.21 349.07 L576.59 352.03 L576.97 354.86 L578.27 355.92 L578.79 358.35 L581.67 356.57 L583.90 356.01 L583.96 359.17 L584.64 361.20 L588.02 358.86 L588.27 361.57 L588.13 364.79 L591.42 362.76 L593.17 363.11 L594.11 364.66 L597.26 363.08 L599.18 363.28 L598.80 366.64 L601.50 365.82 L602.83 366.85 L603.16 369.15 L604.39 370.27 L604.93 372.24 L607.94 371.23 L609.78 371.66 L609.99 373.99 L613.65 372.39 L620.79 367.07 L620.84 369.66 L623.86 369.06 L631.39 363.85 L633.03 364.88 L633.59 367.00 L632.46 370.74 L632.70 373.07 L631.09 377.09 L628.67 381.76 L627.57 385.10 L628.43 386.64 L628.31 389.00 L629.01 390.63 L631.76 390.54 L633.71 391.17 L632.86 394.05 L635.79 393.92 L645.57 388.60 L644.12 391.98 L646.39 392.55 L656.21 387.73 L657.66 389.06 L657.78 391.32 L656.21 394.69 L656.25 396.92 L653.24 401.09 L650.13 405.21 L648.47 408.32 L648.86 410.12 L648.10 412.59 L648.61 414.28 L650.72 415.06 L651.72 416.48 L651.56 418.54 L656.00 418.15 L664.18 415.94 L664.79 417.70 L668.65 417.87 L676.84 416.06 L677.96 417.70 L677.24 420.17 L675.44 423.08 L674.68 425.49 L670.75 429.17 L667.23 432.59 L665.21 435.31 L665.99 436.92 L664.90 439.21 L665.93 440.71 L668.23 441.78 L669.02 443.39 L668.85 445.32 L672.48 446.04 L675.56 447.00 L674.15 449.32 L679.77 449.63 L679.07 451.75 L677.15 454.16 L679.36 455.50 L676.64 458.05 L676.10 460.03 L675.27 462.06 L677.40 463.45 L677.84 465.21 L678.15 466.99 L678.12 468.84 L679.57 470.43 L680.04 472.20 L678.26 474.30 L681.71 475.66 L683.14 477.33 L688.57 478.56 L689.94 480.33 L693.71 481.90 L697.85 483.50 L699.85 485.35 L698.55 487.44 L696.13 489.56 L694.82 491.58 L690.20 493.69 L686.95 495.66 L684.06 497.57 L683.83 499.41 L682.98 501.25 L682.21 503.06 L684.32 504.94 L683.16 506.75 L684.04 508.62 L688.30 510.71 L691.68 512.83 L692.74 514.83 L697.93 517.23 L699.94 519.42 L701.22 521.58 L699.57 523.42 L697.17 525.14 L694.52 526.78 L691.02 528.25 L688.09 529.74 L684.19 531.01 L684.24 532.92 L682.39 534.47 L681.15 536.12 L682.40 538.27 L680.36 539.73 L681.40 541.86 L685.92 544.87 L688.01 547.37 L688.98 549.63 L695.73 553.50 L696.43 555.81 L698.68 558.60 L696.05 559.96 L693.64 561.35 L690.79 562.55 L685.54 562.89 L682.86 564.03 L679.22 564.77 L678.07 566.38 L676.30 567.74 L675.92 569.62 L677.53 572.31 L675.69 573.62 L674.62 575.23 L675.10 577.53 L674.39 579.31 L671.97 580.29 L672.60 582.70 L672.48 584.77 L669.72 585.53 L672.19 588.95 L673.65 591.91 L669.35 591.81 L669.31 594.00 L670.17 596.71 L666.63 596.92 L666.04 598.81 L663.87 599.75 L664.11 602.16 L664.69 604.82 L662.02 605.41 L661.10 607.12 L667.35 613.71 L665.46 614.86 L664.60 616.72 L671.96 624.54 L670.62 626.19 L669.69 628.15 L666.17 628.12 L664.46 629.45 L660.63 629.05 L655.91 627.84 L652.60 627.70 L649.97 628.07 L647.76 628.77 L645.56 629.44 L645.81 632.29 L645.37 634.56 L643.27 635.31 L643.43 638.19 L647.48 644.97 L645.44 645.85 L645.58 648.95 L648.95 655.48 L647.74 657.32 L646.16 658.80 L642.68 658.16 L640.62 659.04 L636.62 657.67 L632.33 655.85 L628.73 654.71 L626.21 654.81 L624.11 655.38 L621.52 655.30 L621.28 658.23 L619.53 659.21 L617.93 660.39 L616.91 662.39 L619.86 670.05 L617.78 670.70 L618.43 675.36 L620.13 681.77 L619.09 684.17 L617.49 685.76 L613.99 684.28 L611.35 684.09 L607.49 681.80 L603.77 679.58 L600.19 677.46 L598.32 678.29 L595.85 677.98 L594.03 678.88 L592.78 680.87 L591.50 682.84 L589.39 683.19 L587.87 684.73 L586.61 686.87 L584.36 686.91 L582.29 687.29 L580.85 689.13 L578.34 688.44 L576.36 688.99 L575.61 692.66 L573.53 693.01 L571.57 693.66 L570.50 696.81 L568.05 696.13 L566.09 696.80 L564.11 697.43 L561.63 696.47 L559.87 697.75 L558.23 699.52 L556.57 701.28 L554.73 702.48 L555.10 712.27 L553.13 713.42 L551.45 715.86 L551.33 725.31 L549.10 725.94 L546.25 723.58 L543.93 723.60 L540.77 719.08 L537.74 714.74 L534.94 711.18 L532.30 708.08 L530.17 708.11 L527.92 707.14 L525.81 707.12 L523.96 709.26 L521.81 709.01 L519.66 708.57 L518.00 713.85 L516.35 720.55 L514.16 721.06 L512.24 726.60 L510.32 734.47 L507.95 733.93 L505.55 731.21 L503.23 730.89 L500.90 725.66 L498.67 720.84 L496.53 716.70 L494.44 713.73 L492.31 713.28 L490.24 711.89 L488.17 710.88 L485.98 712.12 L483.94 710.84 L481.79 711.19 L479.14 716.55 L476.37 722.01 L474.00 723.08 L470.98 729.06 L467.68 736.11 L465.54 734.35 L463.59 731.48 L461.41 730.33 L460.02 724.80 L458.62 719.87 L457.13 715.88 L455.64 712.26 L453.56 711.64 L451.62 710.39 L449.60 709.55 L446.89 711.50 L445.23 709.23 L443.42 707.64 L440.67 709.45 L438.75 708.26 L437.52 704.85 L434.80 706.35 L432.18 707.41 L430.84 704.56 L427.94 706.33 L424.87 708.39 L423.73 705.09 L421.30 705.32 L418.33 706.85 L417.71 702.48 L415.38 702.38 L413.72 700.71 L411.48 700.35 L408.72 701.14 L407.40 698.74 L404.54 699.65 L399.59 704.71 L396.36 706.06 L393.16 707.23 L387.25 713.43 L383.40 715.46 L382.34 712.33 L381.38 709.11 L379.94 706.79 L380.56 701.07 L380.77 696.22 L380.62 692.11 L380.12 688.67 L378.51 687.05 L377.59 684.41 L374.93 684.39 L371.91 684.84 L371.45 681.59 L369.34 680.71 L362.04 686.84 L359.92 685.80 L357.33 685.35 L347.67 693.85 L344.73 693.58 L344.40 690.06 L343.81 686.94 L343.16 683.95 L344.73 678.46 L345.68 673.82 L346.63 669.32 L346.68 665.90 L345.25 664.12 L345.30 660.82 L342.67 660.31 L340.12 659.69 L339.55 657.08 L337.27 656.15 L328.58 661.23 L326.46 659.99 L322.80 660.12 L312.93 665.66 L309.99 664.91 L310.63 661.06 L310.35 658.05 L310.73 654.56 L313.11 649.52 L314.75 645.20 L316.64 640.78 L316.35 638.11 L315.78 635.67 L315.55 633.02 L311.96 632.77 L309.82 631.44 L310.82 627.98 L308.24 626.95 L299.09 630.14 L300.00 626.72 L297.80 625.30 L288.30 628.28 L286.93 626.21 L285.31 624.29 L284.18 622.08 L282.58 620.13 L280.34 618.52 L278.40 616.72 L277.94 614.14 L274.86 612.89 L272.17 611.40 L273.32 608.04 L270.00 606.82 L267.00 605.39 L268.44 601.96 L268.52 599.17 L263.40 598.58 L264.67 595.30 L264.92 592.47 L262.26 590.79 L261.74 588.26 L260.26 586.09 L261.79 582.87 L259.61 580.94 L260.61 577.95 L264.76 574.00 L264.62 571.47 L260.31 570.16 L266.04 565.95 L266.71 563.26 L259.54 562.63 L260.58 559.80 L264.29 556.38 L259.70 554.94 L253.70 553.73 L255.93 550.69 L254.74 548.39 L248.01 547.10 L247.22 544.64 L247.95 541.91 L247.04 539.47 L245.21 537.15 L248.37 534.12 L252.42 531.05 L251.99 528.59 L248.06 526.49 L254.47 523.34 L256.09 520.73 L249.07 518.80 L251.34 516.13 L255.35 513.41 L249.34 511.23 L244.65 508.88 L246.72 506.28 L242.83 503.80 L238.74 501.25 L239.03 498.64 L239.63 496.04 L240.55 493.45 L239.15 490.81 L243.04 488.37 L247.76 486.06 L247.05 483.48 L244.80 480.77 L252.03 478.82 L252.65 476.38 L246.37 473.21 L249.81 471.04 L253.69 468.99 L245.84 465.42 L244.65 462.65 L247.54 460.50 L244.61 457.42 L239.69 453.92 L241.26 451.52 L243.26 449.23 L242.86 446.48 L242.68 443.75 L247.44 442.14 L250.65 440.24 L251.72 437.87 L250.23 434.83 L256.30 433.81 L257.68 431.57 L250.67 426.89 L256.85 426.06 L259.94 424.37 L252.71 419.36 L252.81 416.65 L255.33 414.77 L250.54 410.29 L249.33 407.01 L249.68 404.28 L252.38 402.47 L253.44 400.02 L254.31 397.50 L259.61 396.88 L261.96 395.06 L263.99 393.12 L263.81 390.18 L269.61 390.06 L270.59 387.70 L265.11 382.09 L271.73 382.55 L274.43 381.06 L269.60 375.56 L269.63 372.58 L272.86 371.39 L268.89 366.07 L267.30 362.02 L269.73 360.33 L272.37 358.80 L271.94 355.35 L273.76 353.31 L278.70 353.36 L281.81 352.25 L282.92 349.82 L284.27 347.54 L290.85 349.03 L290.64 345.67 L287.62 340.14 L294.50 342.07 L296.44 340.31 L291.61 333.12 L293.96 331.59 L295.58 329.48 L290.54 321.70 L292.67 319.90 L294.26 317.64 L297.93 317.25 L298.57 314.13 L301.57 313.20 L306.93 314.57 L309.62 313.45 L311.35 311.42 L313.33 309.62 L319.46 312.15 L319.07 307.94 L317.84 302.72 L323.94 305.47 L326.34 304.21 L323.99 297.51 L326.89 296.79 L328.19 294.18 L324.62 285.58 L326.77 283.84 L326.55 279.06 L328.73 277.29 L331.56 276.38 L335.15 276.53 L340.14 278.70 L344.04 279.49 L345.42 276.74 L349.43 277.81 L354.02 279.87 L353.51 274.24 L354.82 271.27 L359.80 274.16 L361.87 272.44 L359.20 262.74 L363.04 263.85 L364.90 261.60 L363.75 253.86 L366.49 253.01 L368.58 250.97 L372.43 252.28 L374.33 249.86 L377.34 249.65 L382.01 252.95 L385.05 253.00 L386.55 249.72 L390.79 252.52 L394.57 254.47 L394.30 246.88 L396.62 245.31 L401.25 249.55 L403.09 246.82 L402.43 237.25 L406.50 240.28 L409.20 239.64 L409.58 232.16 L411.76 229.74 L415.08 230.81 L417.88 230.31 L420.08 227.80 L423.46 229.31 L427.50 233.44 L430.19 232.81 L432.28 229.80 L436.11 233.82 L439.47 236.24 L440.64 228.90 L443.49 229.00 L447.19 233.43 L449.26 229.73 L450.58 221.40 L453.89 224.06 L456.29 221.33 L458.22 215.02 L461.10 214.83 L463.98 214.67 L467.04 216.12 L469.74 214.47 L472.84 216.68 L476.13 221.70 L478.91 221.51 L481.46 217.67 L484.69 224.80 L487.48 225.47 L490.00 218.99 L492.85 220.30 L495.72 225.29 L498.44 219.30 L501.27 213.97 L504.08 217.30 L506.94 215.93 L510.01 209.40 L512.91 209.67 L515.70 211.88 L518.61 211.54 L521.58 210.59 L524.16 214.53 L526.67 218.39 L529.40 219.46 L532.57 216.59 L534.68 222.75 L537.21 224.89 L541.11 217.30 L543.38 221.33 L545.41 226.29 L549.50 219.09 L552.86 216.65 L555.23 219.54 L558.93 215.77 L562.54 212.80 L565.56 212.81 L568.15 214.65 L570.75 216.34 L573.80 216.24 L575.51 221.11 L577.59 224.40 L580.11 225.97 L583.51 224.60 L584.51 231.02 L586.87 232.89 L591.92 226.68 L593.26 231.60 L594.80 235.73 L599.88 230.10 L603.53 228.60 L605.61 231.25 L609.38 229.63 L614.23 225.56 L616.95 226.77 L618.63 230.34 L621.88 230.29 L624.82 230.99 L625.89 235.65 L627.34 239.33 L629.79 240.92 L633.23 240.57 L632.62 247.99 L635.36 248.92 L641.37 243.92 L640.88 250.73 L642.46 253.73 L648.97 248.30 L651.89 249.14 L654.21 250.96 L660.10 247.13 L663.61 247.21 L666.82 247.82 L667.81 251.75 L670.27 253.47 L672.78 255.10 L672.34 260.84 L673.64 264.05 L675.53 266.42 L678.91 266.81 L677.22 273.73 L680.07 274.77 L687.19 270.60 L684.95 277.92 L686.32 280.77 L692.32 278.24 L694.30 280.44 L696.24 282.66 L703.13 279.50 L704.57 282.34 L709.28 281.76 L711.40 283.91 L711.28 288.31 L714.53 289.31 L718.33 289.82 L719.43 292.96 L721.93 294.75 L727.05 294.19 L727.27 298.10 L727.33 302.07 L730.58 303.26 L734.72 303.75 L734.71 307.72 L737.25 309.57 L740.40 310.96 L741.59 313.90 L742.31 317.18 L744.02 319.69 L746.66 321.52 L746.30 325.51 L746.93 328.75 L745.60 333.28 L743.85 338.01 L743.17 341.94 L743.17 345.38 L743.98 348.27 L744.18 351.51 L747.51 352.85 L749.89 354.80 L750.47 357.80 L753.03 359.67 L760.81 358.74 L761.71 361.62 L765.98 362.75 L773.58 362.28 L774.84 365.07 L775.99 367.91 L776.19 371.20 L775.60 374.81 L772.78 379.37 L771.80 383.04 L769.92 387.03 L769.32 390.43 L769.88 393.34 L769.07 396.76 L772.13 398.70 L773.00 401.47 L773.86 404.24 L775.70 406.68 L784.27 406.94 L784.00 410.16 L789.50 411.60 L796.51 412.69 L797.97 415.49 L799.93 418.16 L798.32 421.80 L797.59 425.16 L793.95 429.19 L791.34 432.90 L788.57 436.57 L788.63 439.58 L787.75 442.76 L788.05 445.69 L789.82 448.35 L791.44 451.06 L790.80 454.15 L791.52 457.02 L792.96 459.80 L792.26 462.87 L792.80 465.77 L793.97 468.61 L793.78 471.60 L793.83 474.56 L797.34 477.25 L797.06 480.26 L796.18 483.29 L798.47 486.15 L797.12 489.19 L797.41 492.16 L796.68 495.14 L796.92 498.11 L798.36 501.08 L798.15 504.06 L796.39 507.00 L799.22 510.07 L807.39 513.42 L806.17 516.44 L809.48 519.72 L816.10 523.32 L815.84 526.48 L814.37 529.52 L813.07 532.56 L811.16 535.51 L805.61 537.98 L801.79 540.57 L798.44 543.16 L797.76 546.11 L795.96 548.86 L795.38 551.81 L796.34 555.04 L795.65 557.97 L794.92 560.90 L797.27 564.49 L802.11 568.71 L802.66 572.03 L805.73 576.00 L808.77 580.04 L808.00 583.13 L806.30 585.97 L803.84 588.57 L799.67 590.61 L795.75 592.66 L792.42 594.84 L788.98 596.93 L787.48 599.64 L785.49 602.16 L783.46 604.64 L783.78 607.99 L781.86 610.50 L780.76 613.32 L783.72 617.83 L786.64 622.42 L786.85 625.92 L790.86 631.16 L793.02 635.68 L792.94 639.21 L789.96 641.37 L786.56 643.27 L783.05 645.08 L777.61 645.81 L773.67 647.25 L769.30 648.39 L768.10 651.24 L765.84 653.49 L763.85 655.88 L764.41 659.80 L762.07 661.99 L759.66 664.11 L759.57 667.71 L757.63 670.13 L754.81 671.95 L753.36 674.68 L752.59 677.91 L748.91 679.07 L749.54 683.33 L750.20 687.70 L746.17 688.55 L746.14 692.46 L745.94 696.30 L741.16 696.47 L739.76 699.35 L737.47 701.50 L734.56 703.09 L733.73 706.51 L732.22 709.34 L729.16 710.77 L731.36 717.10 L731.79 721.91 L729.33 724.00 L732.47 731.65 L731.16 734.99 L729.89 738.43 L726.08 739.22 L722.36 740.05 L717.82 739.92 L712.47 738.78 L708.41 738.99 L704.14 738.86 L701.66 740.80 L698.10 741.41 L696.25 744.10 L695.34 748.00 L691.68 748.43 L689.68 750.99 L691.41 758.61 L688.75 760.42 L687.57 764.31 L689.96 773.44 L686.68 774.54 L684.17 776.75 L681.11 778.15 L677.03 777.93 L672.03 776.12 L667.87 775.54 L663.74 774.92 L659.40 773.83 L656.66 775.41 L652.64 774.70 L650.61 777.56 L648.56 780.42 L644.97 780.39 L642.44 782.38 L643.11 790.93 L640.10 792.14 L638.48 796.31 L639.13 805.65 L636.01 806.89 L633.73 810.08 L629.65 809.09 L625.98 808.97 L621.46 806.62 L616.85 803.81 L612.81 802.30 L609.13 801.63 L605.87 802.00 L602.40 801.74 L600.21 805.29 L597.49 807.33 L593.69 805.95 L590.50 806.44 L588.22 810.10 L584.57 808.98 L580.91 807.65 L578.68 811.82 L575.68 813.10 L572.42 813.30 L569.82 816.43 L566.78 817.70 L563.16 816.19 L560.44 819.12 L557.13 819.08 L553.85 819.14 L550.54 818.91 L547.24 818.68 L544.27 820.72 L541.16 821.90 L537.88 821.82 L535.03 825.65 L532.47 833.06 L529.05 832.47 L525.89 834.84 L523.02 842.29 L519.62 842.85 L516.17 842.65 L512.67 840.81 L509.23 839.75 L505.76 835.32 L502.37 831.11 L499.07 828.10 L495.80 827.47 L492.56 825.81 L489.28 826.25 L485.97 827.44 L482.70 827.22 L479.53 825.30 L476.09 827.69 L472.09 836.14 L468.84 834.66 L465.23 836.88 L460.99 844.27 L457.53 844.03 L454.19 842.81 L450.96 841.00 L447.79 838.97 L445.20 833.58 L442.61 828.77 L439.88 825.14 L436.63 824.52 L433.80 821.88 L430.59 821.16 L427.21 821.24 L424.01 820.45 L420.90 819.30 L416.84 821.86 L412.22 826.26 L408.40 827.35 L403.99 830.37 L399.23 834.23 L395.45 834.62 L392.35 832.82 L389.76 829.53 L387.13 826.51 L385.40 821.08 L383.58 816.15 L381.49 812.17 L378.33 811.08 L375.66 808.77 L372.92 806.67 L368.85 807.76 L365.88 806.21 L363.33 803.73 L359.67 803.71 L356.61 802.35 L353.91 800.24 L350.82 798.96 L347.49 798.15 L345.73 794.29 L341.50 795.13 L337.13 796.13 L334.99 793.05 L331.21 792.88 L326.81 793.67 L325.74 788.85 L322.37 787.90 L319.69 785.80 L317.65 782.73 L314.31 781.68 L311.16 780.32 L308.25 778.58 L302.56 780.80 L295.83 784.28 L293.23 781.91 L286.82 784.64 L280.63 786.88 L278.11 784.24 L277.04 779.79 L275.26 776.31 L275.08 770.95 L275.48 765.03 L275.16 760.09 L274.70 755.42 L272.22 753.08 L270.29 750.15 L268.15 747.46 L264.14 746.75 L262.75 743.29 L259.14 742.10 L251.76 744.58 L247.25 744.09 L243.77 742.55 L235.82 745.11 L230.54 745.04 L228.66 741.83 L228.28 737.34 L227.18 733.53 L228.06 728.11 L229.44 722.37 L229.97 717.45 L230.13 712.91 L228.19 710.07 L227.66 706.16 L225.69 703.37 L222.23 701.66 L221.73 697.80 L217.99 696.25 L210.26 697.36 L205.51 696.31 L202.66 693.94 L191.62 696.78 L188.27 694.55 L187.34 690.82 L187.54 686.44 L187.24 682.40 L189.26 677.08 L191.41 671.79 L192.64 667.10 L193.34 662.77 L192.38 659.35 L191.98 655.68 L188.83 653.38 L185.60 651.08 L185.23 647.40 L184.73 643.81 L181.17 641.60 L180.10 638.26 L180.56 634.29 L177.97 631.61 L176.05 628.63 L175.98 624.92 L171.87 622.74 L168.87 620.11 L170.88 615.67 L168.10 612.93 L165.95 609.95 L166.58 606.06 L165.87 602.61 L166.03 598.92 L162.79 596.22 L160.73 593.15 L161.91 589.20 L159.83 586.12 L148.32 585.30 L149.66 581.28 L147.73 578.02 L134.73 577.08 L132.32 573.75 L134.31 569.56 L135.55 565.55 L137.11 561.53 L141.47 557.11 L144.81 552.94 L148.40 548.82 L149.15 545.14 L150.13 541.46 L150.38 537.89 L148.06 534.59 L146.82 531.15 L147.39 527.55 L143.64 524.26 L134.85 521.19 L135.13 517.51 L132.77 513.95 L123.42 510.53 L121.77 506.80 L124.78 502.99 L126.30 499.24 L129.29 495.54 L134.32 491.94 L138.41 488.41 L143.00 484.98 L143.65 481.44 L145.48 477.98 L146.50 474.49 L145.52 470.85 L146.07 467.33 L146.42 463.80 L143.49 459.89 L135.69 455.32 L136.10 451.67 L132.49 447.45 L124.16 442.41 L123.38 438.43 L127.27 435.24 L129.00 431.71 L133.39 428.72 L139.02 426.06 L143.51 423.26 L148.24 420.59 L149.22 417.11 L151.70 414.01 L152.24 410.45 L151.58 406.55 L151.93 402.90 L153.83 399.69 L154.53 396.14 L155.35 392.62 L157.23 389.43 L158.83 386.17 L159.29 382.52 L161.96 379.65 L160.86 375.42 L159.26 370.95 L162.14 368.16 L162.45 364.38 L161.22 359.94 L165.63 357.83 L166.40 354.20 L168.02 350.93 L170.65 348.14 L171.29 344.43 L172.21 340.84 L173.16 337.24 L172.40 332.75 L166.75 325.64 L168.50 322.31 L166.92 317.16 L162.48 310.30 L164.27 306.87 L168.89 305.09 L171.99 302.47 L177.33 301.26 L183.56 300.71 L188.73 299.59 L193.03 297.99 L195.77 295.40 L198.66 292.94 L201.08 290.17 L201.47 285.96 L204.32 283.49 L206.50 280.54 L203.55 273.68 L202.15 267.86 L204.36 264.79 L202.03 258.04 L199.24 250.74 L202.13 248.07 L206.82 246.96 L210.52 245.06 L216.08 244.87 L222.19 245.30 L227.51 245.11 L232.54 244.75 L235.18 242.16 L238.55 240.30 L241.99 238.55 L242.98 234.29 L246.75 232.89 L249.00 229.90 L247.04 222.27 L246.99 216.58 L249.22 213.36 L246.51 204.35 L246.83 198.67 L250.24 196.62 L255.04 196.31 L259.08 195.14 L264.70 196.04 L270.49 197.32 L275.56 197.77 L280.59 198.29 L283.63 196.12 L287.46 195.10 L290.02 192.26 L291.69 188.04 L296.03 187.83 L299.78 186.78 L301.13 181.92 L305.28 181.52 L310.01 182.15 L311.63 177.59 L314.24 174.63 L318.67 174.87 L319.95 169.44 L322.16 165.58 L327.02 166.73 L329.66 163.64 L332.37 160.61 L337.03 161.55 L340.25 159.58 L344.40 159.60 L347.16 156.60 L349.72 153.07 L353.99 153.46 L356.72 150.20 L357.01 140.71 L360.48 138.95 L363.05 134.80 L363.51 124.64 L367.00 122.53 L371.27 122.64 L375.76 123.54 L380.09 124.05 L385.26 127.44 L390.13 130.13 L394.86 132.65 L399.16 133.89 L402.97 133.42 L407.09 134.25 L410.06 130.48 L413.46 128.34 L417.80 130.24 L421.18 127.96 L422.68 116.11 L426.89 117.27 L430.45 115.09 L432.27 102.46 L435.97 100.08 L440.26 101.38 L444.73 104.22 L448.95 105.68 L453.49 110.24 L457.83 113.80 L462.13 117.80 L466.11 119.20 L469.98 119.64 L473.94 121.60 L477.58 118.83 L481.36 118.01 L485.22 118.95 L488.99 117.27 L492.61 106.25 L496.55 106.62 L500.49 102.52 L504.57 93.73 L508.67 91.67 L512.68 94.31 L516.61 97.53 L520.49 100.45 L524.19 105.49 L527.87 109.49 L531.41 114.19 L535.23 114.90 L538.91 116.95 L542.68 117.88 L546.74 116.38 L550.69 115.97 L554.14 119.25 L558.25 117.80 L563.65 108.69 L567.19 111.47 L571.39 110.43 L576.97 102.45 L580.86 103.61 L584.75 104.78 L588.59 106.11 L592.41 107.51 L596.06 109.55 L599.76 111.32 L603.58 112.56 L607.49 113.46 L611.06 115.57 L615.20 115.68 L619.18 116.41 L622.72 118.52 L626.82 118.90 L631.12 118.75 L635.80 117.60 L639.76 118.59 L644.74 116.90 L649.09 117.01 L652.83 118.73 L656.73 120.06 L659.49 124.06 L664.06 123.80 L666.95 127.40 L669.82 130.92 L673.96 131.67 L678.09 132.49 L680.28 137.25 L684.71 137.50 L689.48 137.15 L692.16 140.81 L695.93 142.42 L701.10 141.53 L704.60 143.68 L707.75 146.44 L711.90 147.49 L716.25 148.26 L719.82 150.35 L722.52 153.78 L726.24 155.61 L730.82 156.19 L731.96 161.84 L735.05 164.59 L739.52 165.37 L742.70 167.99 L745.21 171.51 L748.59 173.84 L753.57 174.11 L756.09 177.59 L758.86 180.70 L763.75 181.24 L768.01 182.60 L771.06 185.44 L775.95 186.16 L778.74 189.31 L782.20 191.71 L784.54 195.33 L786.41 199.41 L790.71 200.94 L791.37 206.20 L793.58 209.84 L797.92 211.37 L800.48 214.66 L802.02 218.89 L805.92 220.92 L810.00 222.83 L811.83 226.75 L814.60 229.83 L820.19 230.55 L822.21 234.31 L824.60 237.75 L828.84 239.71 L832.01 242.56 L834.28 246.12 L835.22 250.65 L838.30 253.57 L841.88 256.16 L842.01 261.19 L845.62 263.77 L847.35 267.65 L850.03 270.90 L851.65 274.82 L853.50 278.59 L857.93 280.77 L857.73 285.78 L859.87 289.36 L865.79 290.78 L867.16 294.84 L869.35 298.43 L874.89 300.25 L875.60 304.67 L878.56 307.91 L878.67 312.60 L880.47 316.42 L882.22 320.26 L881.24 325.36 L884.35 328.56 L885.52 332.64 L887.02 336.57 L888.40 340.55 L890.32 344.30 L893.29 347.66 L893.94 351.92 L895.18 355.95 L899.01 359.05 L901.37 362.72 L901.65 367.09 L905.35 370.35 L907.26 374.22 L907.65 378.55 L907.63 382.98 L911.23 386.39 L911.91 390.62 L911.13 395.22 L911.76 399.43 L913.98 403.26 L914.62 407.48 L912.85 412.20 L915.68 415.93 L916.49 420.09 L916.01 424.49 L918.99 428.27 L921.55 432.16 L921.76 436.45 L925.76 440.19 L928.56 444.16 L927.44 448.65 L928.91 452.82 L926.77 457.37 L928.44 461.53 L927.61 465.91 L925.84 470.33 L926.61 474.56 L926.60 478.84 L927.49 483.08 L924.88 487.44 L927.98 491.63 L927.61 495.91 L956.78 500.00 L954.80 495.45 L955.66 490.89 L957.02 486.29 L955.62 481.77 L953.53 477.30 L953.22 472.77 L952.90 468.25 L949.84 463.94 L948.56 459.52 L948.08 455.04 L945.37 450.81 L946.31 446.18 L943.32 442.04 L946.22 437.12 L946.90 432.46 L945.18 428.16 L946.63 423.33 L946.91 418.68 L943.76 414.66 L943.71 410.06 L943.45 405.48 L940.67 401.46 L939.53 397.09 L938.01 392.81 L936.63 388.51 L932.70 384.89 L931.49 380.58 L930.22 376.29 L926.88 372.61 L926.53 368.06 L924.82 363.92 L925.62 358.95 L924.51 354.59 L923.06 350.35 L924.13 345.18 L922.03 341.15 L917.77 337.96 L918.04 333.03 L916.40 328.84 L912.85 325.45 L910.51 321.58 L908.82 317.43 L906.32 313.65 L901.18 311.13 L899.26 307.14 L897.68 302.97 L894.20 299.76 L892.16 295.84 L889.71 292.13 L890.45 286.70 L887.82 283.07 L885.90 279.05 L885.85 273.92 L883.16 270.32 L878.79 267.76 L877.82 263.13 L876.36 258.76 L871.24 256.77 L868.96 252.96 L866.68 249.14 L863.79 245.74 L858.26 244.24 L856.75 239.89 L853.33 236.93 L849.22 234.52 L847.28 230.47 L844.10 227.38 L843.01 222.62 L839.98 219.40 L836.95 216.19 L836.22 211.01 L834.08 206.99 L828.71 205.83 L827.25 201.19 L824.92 197.31 L819.53 196.31 L816.77 192.84 L813.82 189.55 L809.68 187.45 L804.00 186.99 L802.14 182.62 L797.37 181.31 L793.65 178.91 L790.91 175.45 L786.84 173.48 L785.62 168.24 L782.55 165.08 L779.36 162.07 L777.79 157.05 L773.89 154.86 L769.61 153.18 L766.64 149.84 L763.23 147.05 L757.75 147.08 L754.92 143.52 L751.16 141.25 L746.50 140.30 L741.37 140.13 L738.69 136.31 L734.12 135.37 L730.13 133.59 L726.76 130.80 L723.48 127.85 L720.07 125.08 L716.09 123.28 L713.43 119.15 L710.06 116.22 L705.93 114.66 L701.20 114.28 L698.48 110.04 L694.47 108.28 L688.89 109.76 L685.26 107.30 L681.51 105.07 L676.80 104.93 L671.69 105.84 L667.81 103.97 L663.58 102.95 L659.42 101.80 L655.32 100.48 L652.11 96.86 L649.15 92.42 L644.66 92.09 L641.36 88.36 L638.10 84.37 L633.51 84.33 L629.06 83.96 L625.18 81.74 L620.81 81.13 L616.23 81.32 L612.38 78.91 L607.84 79.06 L603.15 79.95 L598.99 78.74 L594.62 78.43 L590.03 79.23 L585.63 79.30 L581.54 77.86 L578.83 68.72 L574.56 67.72 L569.90 69.04 L567.08 58.57 L562.74 57.35 L557.83 60.35 L553.54 58.97 L549.33 56.62 L544.76 57.44 L540.15 59.01 L535.66 59.64 L530.93 63.89 L526.30 68.00 L521.71 72.90 L517.30 76.14 L512.95 79.65 L508.72 80.63 L504.53 80.22 L500.34 70.79 L496.01 66.48 L491.69 67.52 L487.06 57.14 L482.60 56.29 L478.26 58.56 L473.82 58.35 L469.25 56.31 L465.06 59.84 L460.78 61.51 L456.59 63.88 L452.74 68.92 L449.01 74.29 L445.42 79.90 L441.65 83.51 L438.02 87.68 L433.96 88.68 L429.93 89.85 L423.56 78.03 L419.00 77.02 L415.10 79.47 L408.74 70.14 L404.42 70.97 L400.95 75.45 L396.33 74.91 L391.52 73.73 L387.89 77.23 L383.88 79.13 L380.46 83.04 L377.43 88.06 L374.74 93.94 L372.20 99.94 L369.16 104.13 L366.14 108.18 L362.28 109.69 L358.54 111.50 L351.28 103.94 L346.17 102.46 L341.91 103.27 L335.07 97.85 L330.55 98.33 L327.69 102.69 L322.63 101.96 L318.40 103.20 L315.48 107.25 L311.43 108.84 L309.01 113.73 L304.47 114.31 L300.16 115.39 L298.10 120.74 L293.11 120.57 L287.28 118.99 L284.84 123.52 L280.99 125.53 L275.56 124.90 L273.67 130.19 L271.20 134.40 L265.91 134.15 L263.09 137.76 L261.11 142.60 L255.95 142.66 L252.62 145.46 L250.24 149.57 L246.74 152.06 L245.55 157.68 L244.58 163.45 L244.36 170.07 L243.90 176.22 L242.60 181.18 L241.03 185.71 L237.80 188.20 L232.61 188.41 L223.98 184.79 L220.05 186.68 L214.14 186.43 L206.69 184.65 L203.64 187.69 L201.59 191.77 L197.44 193.67 L195.29 197.60 L193.93 202.27 L190.98 205.35 L190.68 210.91 L191.17 217.11 L192.32 223.76 L192.88 229.77 L192.56 234.89 L191.64 239.43 L188.96 242.45 L182.36 242.30 L174.34 241.15 L171.98 244.59 L165.07 244.54 L158.32 244.76 L156.52 248.72 L155.26 253.06 L150.41 254.84 L149.26 259.23 L148.62 263.92 L146.49 267.59 L147.11 273.01 L148.77 279.01 L150.99 285.26 L152.58 291.00 L153.24 296.09 L153.09 300.64 L150.68 303.88 L143.50 304.50 L137.91 306.12 L136.19 309.86 L127.30 309.93 L123.54 312.74 L121.53 316.43 L118.67 319.74 L115.85 323.08 L116.29 327.91 L115.33 332.08 L113.21 335.74 L114.80 340.95 L110.77 343.82 L108.95 347.61 L108.33 351.86 L103.75 354.64 L100.97 358.13 L101.60 362.83 L99.86 366.69 L99.09 370.87 L99.42 375.39 L98.15 379.38 L97.07 383.44 L97.33 387.87 L96.58 391.99 L93.97 395.63 L93.21 399.76 L94.46 404.36 L93.76 408.48 L97.33 413.50 L100.89 418.43 L105.30 423.44 L108.44 428.10 L110.90 432.57 L111.91 436.74 L110.63 440.52 L101.80 443.24 L96.32 446.57 L96.56 450.70 L86.76 453.69 L84.67 457.66 L85.43 461.92 L85.14 466.08 L82.84 470.08 L84.90 474.40 L86.41 478.64 L87.23 482.82 L92.17 487.11 L96.48 491.29 L101.86 495.38 L105.29 499.37 L108.60 503.29 L110.06 507.18 L109.71 511.09 L100.80 515.34 L97.53 519.50 L98.99 523.45 L90.73 528.04 L87.93 532.38 L90.33 536.31 L90.22 540.46 L88.42 544.79 L91.00 548.66 L92.74 552.59 L95.11 556.40 L100.32 559.75 L105.22 563.06 L111.34 566.08 L114.97 569.43 L118.71 572.70 L120.42 576.32 L121.36 580.07 L109.64 586.64 L109.02 590.89 L111.96 594.31 L102.82 600.74 L103.22 604.88 L107.39 607.98 L107.66 612.14 L106.41 616.77 L110.05 619.95 L111.11 623.89 L114.96 626.92 L115.00 631.19 L115.13 635.46 L120.47 637.86 L120.06 642.32 L118.21 647.38 L121.49 650.49 L123.02 654.26 L123.22 658.59 L126.63 661.57 L129.54 664.73 L129.53 669.19 L131.94 672.56 L135.87 675.18 L136.09 679.58 L136.77 683.78 L140.81 686.27 L143.36 689.50 L148.11 691.51 L153.34 693.19 L159.37 694.31 L165.67 695.17 L170.13 697.02 L174.45 698.88 L176.51 702.10 L178.04 705.64 L170.97 714.82 L172.16 718.75 L172.12 723.55 L168.55 730.87 L169.86 734.89 L174.32 736.67 L175.20 741.02 L178.28 743.77 L182.61 745.52 L184.98 748.76 L190.73 749.28 L196.31 749.84 L202.70 749.60 L208.72 749.56 L213.51 750.46 L217.98 751.58 L220.39 754.49 L221.27 758.84 L217.84 767.33 L219.65 770.98 L220.27 775.85 L218.23 783.48 L220.56 786.80 L224.96 788.00 L226.42 792.26 L230.01 794.27 L234.07 795.73 L237.34 798.04 L242.72 797.89 L248.26 797.43 L254.66 795.81 L260.38 794.87 L265.33 794.75 L269.72 795.26 L272.59 797.66 L272.78 803.66 L272.28 810.76 L275.65 812.68 L275.38 819.75 L276.15 825.53 L279.58 827.51 L282.53 830.21 L285.16 833.42 L289.61 833.81 L293.37 835.23 L296.28 838.03 L301.89 836.28 L304.03 840.38 L306.81 843.44 L310.99 844.03 L313.04 848.50 L315.20 852.90 L320.25 851.77 L323.66 853.79 L327.13 855.70 L331.47 855.77 L335.11 857.28 L338.22 859.96 L342.74 859.48 L346.41 860.86 L349.33 864.07 L353.44 864.41 L357.67 864.38 L361.40 865.56 L366.33 863.48 L371.41 860.77 L376.78 856.96 L381.07 856.04 L385.90 853.28 L389.50 854.21 L392.64 856.67 L395.07 861.66 L397.48 867.02 L400.59 870.11 L402.84 876.75 L405.98 880.26 L409.96 880.44 L413.98 880.42 L417.56 882.31 L421.54 882.35 L425.81 880.85 L429.69 881.19 L434.17 878.11 L438.70 874.19 L443.29 869.29 L447.22 868.16 L451.28 865.85 L454.99 865.94 L458.66 866.32 L461.46 875.07 L464.99 877.84 L468.96 875.92 L472.04 885.51 L475.79 887.60 L479.81 885.01 L483.64 885.67 L487.47 886.65 L491.35 886.42 L495.24 884.30 L499.08 883.41 L502.89 879.69 L506.61 875.20 L510.22 870.06 L513.86 868.43 L517.38 864.86 L521.04 864.85 L524.68 864.53 L528.88 871.32 L532.81 873.50 L536.36 871.35 L540.93 878.84 L545.02 881.05 L548.64 879.10 L552.52 879.26 L556.55 880.31 L560.13 878.34 L563.77 876.88 L567.24 874.57 L570.93 873.65 L575.09 875.03 L578.17 871.11 L581.98 870.74 L586.33 872.73 L589.80 870.80 L593.41 869.51 L598.16 872.56 L601.16 868.95 L604.00 864.94 L608.60 867.12 L611.74 864.30 L614.45 860.26 L618.41 860.19 L622.71 861.08 L625.68 858.01 L628.75 855.35 L631.46 851.79 L633.85 847.56 L635.48 841.56 L637.31 836.33 L639.69 832.61 L641.67 828.11 L646.03 829.10 L648.75 826.41 L655.90 833.22 L660.60 834.50 L663.89 832.79 L670.68 838.01 L674.20 836.57 L676.37 832.58 L680.69 832.64 L684.12 831.01 L685.96 826.59 L689.05 824.42 L690.40 819.36 L692.07 814.96 L693.36 810.05 L694.03 804.31 L695.14 799.41 L697.46 796.45 L701.02 795.34 L703.03 791.97 L711.13 797.23 L715.50 797.05 L718.71 795.23 L725.60 798.24 L728.67 796.09 L729.99 791.73 L734.55 791.47 L737.51 789.18 L739.15 785.31 L741.56 782.40 L742.13 777.40 L742.96 772.80 L742.11 766.43 L742.55 761.61 L742.78 756.66 L743.62 752.44 L747.73 751.62 L750.96 749.86 L758.54 752.30 L760.87 749.53 L765.96 749.36 L772.57 750.48 L773.71 746.52 L776.48 744.06 L780.33 742.51 L781.30 738.47 L782.95 735.05 L785.94 732.74 L784.36 726.76 L788.66 725.51 L792.49 723.83 L792.63 719.32 L797.17 718.13 L801.97 717.03 L801.78 712.36 L804.37 709.66 L806.59 706.70 L806.87 702.45 L808.41 699.07 L811.60 696.74 L811.91 692.60 L812.91 688.93 L816.79 686.97 L817.69 683.24 L818.20 679.32 L819.85 676.06 L818.58 671.23 L817.25 666.45 L814.25 660.89 L813.60 656.62 L811.75 651.82 L811.71 647.96 L814.76 645.57 L818.64 643.52 L825.40 642.66 L828.73 640.22 L834.81 638.87 L839.11 636.70 L840.11 633.16 L840.23 629.30 L842.99 626.44 L843.08 622.59 L841.90 618.33 L842.82 614.82 L840.95 610.42 L838.99 606.05 L836.48 601.58 L833.82 597.14 L832.90 593.28 L832.92 589.70 L833.50 586.29 L838.59 584.00 L842.33 581.31 L844.01 578.08 L850.29 575.83 L853.84 572.90 L853.54 569.16 L853.73 565.53 L855.60 562.21 L855.90 558.60 L854.16 554.68 L854.31 551.08 L851.54 547.10 L847.80 543.06 L842.78 538.96 L841.34 535.35 L839.24 531.70 L838.53 528.23 L838.72 524.83 L846.16 521.90 L849.24 518.59 L847.71 515.03 L856.66 511.84 L859.20 508.33 L856.54 504.70 L856.15 501.13 L857.49 497.56 L857.07 494.00 L855.64 490.46 L855.12 486.92 L853.74 483.43 L855.14 479.80 L853.35 476.36 L852.70 472.85 L855.19 469.09 L854.39 465.58 L853.10 462.14 L853.71 458.49 L853.08 454.98 L850.58 451.73 L851.36 448.04 L850.17 444.63 L848.14 441.38 L847.97 437.82 L848.87 434.06 L846.89 430.83 L844.33 427.76 L842.61 424.53 L838.16 421.96 L833.19 419.59 L827.89 417.39 L824.77 414.71 L820.02 412.53 L821.09 408.77 L819.93 405.64 L825.41 400.47 L828.74 395.85 L826.71 392.88 L833.47 386.96 L832.83 383.46 L830.18 380.67 L829.06 377.34 L830.07 373.19 L825.81 371.07 L823.57 368.20 L820.14 365.85 L815.45 364.09 L811.21 362.21 L805.61 361.02 L801.36 359.30 L798.01 357.21 L797.19 353.94 L794.30 351.68 L799.42 345.33 L801.03 340.66 L799.15 337.81 L804.01 331.22 L802.70 327.97 L799.25 325.94 L798.01 322.65 L798.02 318.58 L793.99 316.99 L791.74 314.31 L787.51 312.94 L783.05 311.79 L777.30 311.58 L772.20 311.04 L768.15 309.85 L763.47 309.18 L763.08 305.42 L759.88 303.74 L756.51 302.23 L754.29 299.85 L751.88 297.64 L748.63 296.13 L744.38 295.49 L745.19 290.61 L745.93 285.68 L742.26 284.58 L740.17 282.10 L739.61 278.20 L735.95 277.17 L731.30 277.14 L730.90 273.03 L729.91 269.44 L725.59 269.20 L725.48 264.64 L725.00 260.40 L721.46 259.39 L722.72 253.11 L718.98 252.32 L715.85 250.89 L717.55 243.80 L713.14 243.84 L705.80 247.57 L708.04 239.55 L705.97 236.78 L699.15 240.19 L696.85 237.79 L693.93 236.23 L689.06 237.39 L683.85 239.17 L681.45 237.03 L677.93 236.53 L674.29 236.28 L672.83 232.71 L670.48 230.47 L670.82 223.86 L667.45 223.15 L664.96 221.02 L666.25 212.31 L662.09 212.90 L656.00 217.13 L657.21 208.06 L654.01 207.03 L647.99 211.52 L645.87 208.51 L642.29 208.40 L637.73 210.44 L632.82 213.40 L630.24 211.45 L626.74 211.54 L623.32 211.53 L621.00 208.93 L619.58 204.04 L617.77 199.91 L613.99 200.77 L611.83 197.39 L611.32 189.25 L606.56 192.89 L602.17 195.76 L601.33 187.94 L597.76 188.35 L592.53 194.38 L590.02 191.59 L586.81 191.13 L582.49 194.81 L578.33 198.26 L575.38 197.22 L572.23 196.97 L568.96 197.28 L565.94 196.56 L563.89 191.13 L561.47 187.12 L557.80 189.39 L555.48 184.32 L553.33 177.69 L549.34 182.09 L545.60 185.47 L543.44 177.71 L539.98 179.15 L535.86 186.76 L533.10 182.81 L529.76 184.24 L526.25 188.20 L522.83 192.03 L519.79 191.04 L516.63 192.24 L513.54 192.27 L510.46 192.18 L507.51 186.88 L504.40 185.01 L501.24 188.77 L498.09 182.50 L494.84 177.77 L491.76 183.46 L488.68 185.74 L485.20 178.71 L482.14 181.49 L479.38 188.17 L476.05 185.55 L473.08 187.83 L470.41 192.76 L467.63 195.78 L464.55 195.84 L461.88 199.11 L458.74 198.53 L455.77 199.24 L451.82 193.68 L448.39 191.96 L446.01 196.46 L441.45 188.91 L437.78 186.68 L435.80 192.80 L432.93 194.37 L428.47 188.94 L426.20 193.13 L424.38 198.87 L420.82 197.50 L418.55 201.08 L416.91 206.65 L414.48 209.20 L411.54 209.95 L409.30 212.91 L406.33 213.53 L403.21 213.72 L398.11 208.28 L395.21 209.33 L393.65 214.02 L387.28 205.92 L384.18 206.63 L383.67 213.77 L380.52 214.23 L375.23 209.77 L374.39 215.69 L373.13 220.43 L369.88 220.74 L368.20 224.36 L367.38 229.62 L365.91 233.41 L362.93 234.13 L360.95 236.79 L358.15 237.87 L355.90 239.95 L349.48 234.67 L346.30 235.27 L345.93 240.64 L338.47 234.18 L335.21 234.82 L336.48 242.63 L332.27 241.76 L327.14 239.59 L327.46 245.62 L326.42 249.53 L323.72 250.99 L323.57 255.99 L324.15 261.84 L323.21 265.52 L322.28 269.12 L319.43 270.20 L315.04 269.41 L313.25 271.89 L304.86 266.44 L302.41 268.26 L301.22 271.53 L294.10 268.07 L293.13 271.62 L295.70 278.94 L290.18 277.47 L285.94 277.48 L287.92 283.91 L286.67 286.94 L284.46 288.99 L284.35 293.07 L285.78 298.51 L284.19 301.05 L282.62 303.59 L282.05 306.99 L278.88 308.10 L278.18 311.34 L270.03 308.35 L268.65 311.08 L267.62 314.08 L259.16 311.23 L258.16 314.32 L262.55 321.44 L254.67 319.33 L252.24 321.33 L255.55 327.40 L253.24 329.45 L252.47 332.55 L253.21 336.62 L255.95 341.92 L254.12 344.20 L253.28 347.11 L253.36 350.55 L250.72 352.34 L247.73 353.96 L241.32 353.68 L241.43 357.13 L239.26 359.32 L231.30 358.48 L232.49 362.50 L237.12 368.19 L229.15 367.56 L227.99 370.35 L232.85 375.93 L230.84 378.26 L229.93 381.08 L231.99 385.17 L235.62 389.84 L234.17 392.35 L233.26 395.07 L233.54 398.25 L232.50 400.91 L228.96 402.66 L223.03 403.65 L224.10 407.10 L221.52 409.33 L213.51 409.88 L215.78 413.70 L220.50 418.18 L212.31 418.90 L212.18 421.96 L219.06 426.83 L216.08 429.08 L215.94 432.06 L218.88 435.72 L223.17 439.61 L221.41 442.14 L222.07 445.17 L222.27 448.09 L221.67 450.85 L217.98 453.10 L213.75 455.34 L215.98 458.59 L212.92 461.07 L205.62 463.08 L209.21 466.48 L213.52 469.87 L205.92 472.04 L207.05 475.10 L214.45 478.61 L211.50 481.29 L211.95 484.21 L216.12 487.28 L220.66 490.28 L218.85 493.03 L221.49 495.88 L221.39 498.67 L221.19 501.46 L217.59 504.30 L213.59 507.23 L216.37 509.99 L211.46 513.06 L206.35 516.23 L211.28 518.86 L214.18 521.54 L208.15 524.93 L210.48 527.65 L218.39 529.74 L214.85 533.00 L217.13 535.61 L222.34 537.78 L225.73 540.11 L225.38 542.97 L227.67 545.41 L228.26 548.11 L228.17 550.93 L222.92 554.79 L222.74 557.71 L226.12 559.87 L219.88 564.18 L217.90 567.61 L223.96 569.08 L226.52 571.35 L220.61 575.89 L224.63 577.76 L231.37 578.77 L229.79 582.17 L232.08 584.41 L237.20 585.70 L241.34 587.22 L241.67 590.00 L243.81 592.13 L244.65 594.72 L246.20 597.05 L245.42 600.28 L248.07 602.15 L252.01 603.45 L249.25 607.56 L252.20 609.25 L256.11 610.45 L255.22 613.81 L254.88 616.96 L258.54 618.20 L257.67 621.64 L258.00 624.52 L260.03 626.53 L260.29 629.47 L260.88 632.26 L261.97 634.78 L263.55 637.03 L264.94 639.38 L266.57 641.59 L259.99 648.88 L260.89 651.66 L264.78 652.51 L258.87 659.78 L259.85 662.62 L264.58 662.87 L265.32 665.85 L265.00 669.63 L268.36 670.75 L271.32 672.12 L274.46 673.32 L279.58 672.92 L285.03 672.15 L290.69 671.08 L294.77 671.19 L298.76 671.31 L300.91 672.94 L303.16 674.47 L296.65 683.90 L296.40 687.86 L297.83 690.32 L293.15 698.67 L294.58 701.29 L298.37 701.55 L299.25 704.73 L300.72 707.34 L305.06 706.93 L307.40 708.58 L311.61 708.17 L316.47 706.92 L321.77 705.04 L327.01 703.07 L331.05 702.40 L334.86 701.90 L336.97 703.44 L339.29 704.70 L333.92 715.96 L335.31 718.65 L337.30 720.55 L334.36 729.30 L336.64 730.98 L340.96 729.71 L341.74 733.54 L343.78 735.56 L347.41 735.17 L350.00 736.31 L354.11 735.01 L358.45 733.18 L363.36 730.26 L368.00 727.59 L371.79 726.24 L375.32 725.22 L377.50 726.62 L378.96 729.36 L377.64 737.59 L379.06 740.72 L380.40 744.11 L380.11 751.02 L382.04 753.47 L385.48 752.66 L387.13 755.77 L390.00 756.18 L393.04 756.14 L395.49 757.49 L399.51 754.85 L401.22 758.07 L403.50 759.85 L407.13 757.96 L408.87 761.30 L410.61 764.79 L414.15 762.96 L416.43 764.91 L418.48 767.72 L422.13 765.24 L425.01 765.19 L427.14 767.86 L430.25 766.95 L433.47 765.45 L435.60 768.29 L438.44 768.26 L441.53 767.04 L444.25 767.35 L447.59 764.55 L451.02 760.92 L454.55 756.20 L457.84 752.29 L460.85 749.65 L463.67 747.78 L466.14 748.23 L468.03 753.29 L469.76 760.47 L472.23 762.03 L474.29 768.22 L476.56 773.29 L479.34 772.85 L482.15 771.87 L484.76 773.89 L487.59 772.20 L490.39 769.92 L493.09 770.03 L495.85 766.41 L498.54 761.60 L501.13 756.43 L503.64 752.09 L506.08 748.88 L508.49 746.59 L510.98 747.04 L513.78 753.01 L516.66 758.24 L519.28 758.59 L522.39 764.58 L525.49 769.17 L528.02 767.35 L530.59 766.18 L533.46 767.53 L536.03 766.43 L538.36 763.73 L541.00 763.39 L542.95 758.86 L544.76 753.98 L546.33 748.34 L547.98 743.66 L549.80 740.19 L551.75 737.64 L554.29 737.83 L558.38 744.46 L561.37 746.08 L563.97 745.96 L568.87 754.36 L571.35 753.43 L574.05 753.29 L576.94 753.71 L579.84 754.12 L581.50 750.61 L583.89 749.45 L586.21 748.10 L588.20 745.86 L591.39 746.98 L593.62 745.42 L596.09 744.52 L599.64 746.31 L601.86 744.71 L603.41 741.61 L606.30 741.65 L608.13 739.29 L609.86 736.77 L612.86 737.00 L615.22 735.85 L617.10 733.74 L619.76 733.21 L622.71 733.18 L624.49 730.93 L625.98 728.20 L627.93 726.35 L628.09 721.43 L628.04 716.33 L628.10 711.57 L628.90 708.17 L628.46 702.89 L631.27 702.82 L633.63 702.00 L639.17 705.88 L643.68 708.03 L645.29 705.93 L652.30 711.35 L654.70 710.22 L656.07 707.69 L658.03 705.97 L661.57 706.28 L661.88 702.48 L663.25 700.06 L663.71 696.58 L663.26 692.10 L662.03 686.83 L661.24 682.20 L662.25 679.69 L661.47 675.27 L663.64 674.11 L665.08 672.16 L671.80 675.61 L675.33 675.68 L676.51 673.35 L683.71 676.85 L686.52 676.00 L687.06 673.00 L689.21 671.51 L692.48 671.00 L692.37 667.49 L693.53 665.13 L692.77 661.18 L692.05 657.34 L689.84 652.38 L688.40 648.15 L688.96 645.56 L687.60 641.54 L689.71 640.18 L690.30 637.69 L700.38 641.96 L702.18 640.22 L703.18 637.92 L711.42 640.45 L712.60 638.19 L711.55 634.52 L714.66 633.50 L716.76 631.81 L716.03 628.43 L717.60 626.44 L715.84 622.54 L718.76 621.32 L720.79 619.58 L718.32 615.43 L721.74 614.42 L726.59 614.07 L724.83 610.38 L726.31 608.31 L729.23 606.90 L727.89 603.52 L727.98 600.82 L730.48 599.18 L730.68 596.54 L729.99 593.56 L732.46 591.87 L733.29 589.51 L732.52 586.56 L733.26 584.19 L729.82 580.36 L728.08 577.20 L723.89 573.29 L722.16 570.28 L719.61 567.06 L717.86 564.15 L721.83 562.92 L722.92 560.83 L731.01 560.56 L732.99 558.59 L736.45 556.95 L741.91 555.72 L742.60 553.33 L741.04 550.46 L743.52 548.44 L742.07 545.64 L741.02 542.96 L741.23 540.51 L737.45 537.44 L734.66 534.59 L731.26 531.73 L728.84 529.07 L725.55 526.37 L724.41 523.96 L726.36 521.88 L728.35 519.77 L733.90 517.90 L735.34 515.64 L739.35 513.51 L743.28 511.29 L743.38 508.86 L742.41 506.39 L744.10 504.00 L742.72 501.55 L741.36 499.12 L740.58 496.72 L737.30 494.39 L733.20 492.15 L727.87 490.05 L726.14 487.86 L721.76 485.87 L720.55 483.73 L722.52 481.35 L725.37 478.84 L728.70 476.21 L729.63 473.79 L734.44 470.87 L734.48 468.48 L737.46 465.66 L734.74 463.65 L734.50 461.28 L734.74 458.83 L735.01 456.35 L732.87 454.34 L731.84 452.13 L732.88 449.48 L730.59 447.56 L728.60 445.60 L724.98 444.08 L726.80 441.21 L723.07 439.79 L720.96 437.98 L725.36 434.31 L721.95 432.89 L724.17 429.76 L725.62 426.82 L723.02 425.19 L722.29 422.96 L723.02 420.20 L722.01 418.05 L719.20 416.58 L718.09 414.50 L713.92 413.66 L708.53 413.40 L702.60 413.47 L699.90 412.25 L694.50 412.29 L693.15 410.57 L692.09 408.72 L698.57 403.19 L700.58 399.71 L699.07 397.97 L705.93 391.84 L707.22 388.50 L704.61 387.26 L703.68 385.10 L703.56 382.47 L701.06 381.21 L698.22 380.20 L696.04 378.82 L691.64 378.88 L686.21 379.69 L680.57 380.76 L677.80 380.02 L672.51 381.06 L671.44 379.25 L669.83 377.82 L677.43 369.64 L677.53 366.82 L673.34 367.23 L680.67 358.72 L680.68 355.79 L676.61 356.12 L675.90 353.75 L676.11 350.57 L673.58 349.71 L670.80 349.10 L668.34 348.24 L664.23 348.94 L658.80 350.98 L654.18 352.39 L650.97 352.54 L646.16 354.35 L644.75 352.85 L642.76 351.93 L647.45 343.98 L648.17 340.05 L645.38 339.87 L649.74 331.72 L649.49 328.58 L646.00 329.16 L645.04 326.80 L644.75 323.61 L641.78 323.65 L639.54 322.84 L636.43 323.18 L634.98 321.39 L634.19 318.70 L630.14 320.45 L629.10 318.08 L629.14 314.11 L626.49 313.98 L624.40 313.06 L624.45 308.88 L620.90 310.20 L617.70 311.08 L617.65 306.88 L614.61 307.58 L610.97 309.37 L610.07 306.48 L609.02 303.79 L606.04 304.59 L603.66 304.33 L600.36 305.88 L597.22 307.25 L592.73 311.49 L589.24 313.92 L586.17 315.62 L582.73 318.26 L581.25 316.66 L579.02 316.77 L581.54 305.60 L579.97 303.88 L578.84 300.97 L579.40 293.54 L577.86 291.35 L574.78 293.31 L573.45 290.48 L571.26 290.02 L568.30 291.93 L566.06 291.74 L562.89 294.62 L560.07 296.60 L556.31 302.05 L553.54 304.40 L550.74 307.07 L547.97 309.89 L546.33 308.33 L544.69 306.68 L544.64 297.70 L542.76 296.57 L541.02 294.66 L540.33 287.06 L538.33 285.90 L535.81 287.78 L534.05 285.11 L531.82 285.37 L529.46 286.60 L527.29 286.58 L524.71 290.05 L522.29 292.82 L519.63 298.57 L517.40 300.89 L515.09 304.79 L512.92 307.99 L511.07 306.65 L509.21 304.79 L507.49 298.65 L505.52 296.69 L503.55 293.14 L501.51 289.18 L499.40 288.03 L497.27 287.64 L495.16 288.05 L493.07 289.01 L490.95 288.85 L488.84 288.87 L486.76 289.63 L484.69 290.10 L482.59 290.32 L480.89 294.75 L479.25 298.93 L477.17 298.49 L475.75 303.60 L473.90 304.64 L471.15 299.42 L469.10 299.37 L466.49 296.04 L463.75 292.36 L461.93 294.09 L460.04 295.35 L457.46 293.16 L455.66 294.82 L454.01 297.05 L452.10 298.02 L450.98 302.13 L450.37 307.92 L449.81 313.44 L449.42 319.23 L448.53 322.91 L447.05 324.40 L445.31 324.96 L441.20 318.22 L437.59 313.45 L435.40 313.13 L431.07 306.88 L427.74 303.76 L426.32 305.93 L424.50 306.98 L422.13 306.62 L420.54 308.25 L419.76 311.71 L417.83 312.40 L417.83 317.39 L418.40 323.39 L418.86 328.90 L419.57 334.69 L419.28 338.23 L418.01 339.72 L416.34 340.41 L410.21 332.81 L407.15 331.17 L405.38 331.96 L399.95 326.40 L396.17 323.94 L395.43 326.67 L393.52 327.42 L391.21 327.56 L389.59 328.81 L389.08 331.74 L387.74 333.35 L388.76 338.39 L390.33 344.03 L391.75 349.28 L393.29 354.52 L393.76 358.15 L392.75 359.75 L391.11 360.52 L382.07 352.01 L378.58 350.72 L379.28 354.57 L370.61 347.27 L368.02 347.33 L368.66 351.10 L366.55 351.73 L363.90 351.80 L363.21 354.00 L362.59 356.25 L361.67 358.15 L361.05 360.34 L357.99 360.09 L358.42 363.28 L357.21 364.84 L353.73 364.29 L352.77 366.12 L351.73 367.86 L349.44 368.49 L349.20 370.92 L349.51 373.76 L346.93 374.19 L346.31 376.24 L346.72 379.07 L344.84 380.09 L341.73 380.19 L342.11 382.94 L342.11 385.37 L342.62 388.13 L345.31 392.35 L348.56 396.84 L352.00 401.34 L354.75 405.26 L355.80 407.98 L355.51 409.82 L354.66 411.30 L343.29 406.49 L339.67 406.50 L338.63 408.04 L329.57 405.12 L327.44 406.18 L328.83 409.15 L326.68 410.22 L324.62 411.36 L326.83 414.64 L326.43 416.59 L328.60 419.74 L332.06 423.39 L336.12 427.22 L340.40 431.02 L343.60 434.25 L344.86 436.60 L344.64 438.32 L343.96 439.84 L332.75 437.43 L329.00 437.97 L328.08 439.58 L319.83 438.70 L318.30 440.20 L320.39 442.87 L317.36 443.91 L316.28 445.58 L318.11 448.10 L318.08 450.05 L320.94 452.76 L324.82 455.65 L329.39 458.62 L334.40 461.58 L337.88 464.09 L339.32 466.09 L339.31 467.77 L337.62 469.11 L328.68 469.19 L329.57 471.10 L330.16 472.95 L321.36 473.37 L323.79 475.53 L328.24 477.90 L320.83 478.77 L321.18 480.62 L326.43 482.94 L325.00 484.57 L326.89 486.48 L332.47 488.60 L332.01 490.25 L331.78 491.93 L334.34 493.71 L331.49 495.29 L330.15 496.95 L329.65 498.64 L325.29 500.36 L323.34 502.13 L320.27 503.96 L315.38 505.92 L315.96 507.74 L318.03 509.48 L315.80 511.44 L316.54 513.24 L318.11 514.96 L318.64 516.74 L322.58 518.17 L327.63 519.39 L333.07 520.47 L338.91 521.39 L344.14 522.29 L347.59 523.35 L349.11 524.67 L342.34 527.39 L334.43 530.48 L333.48 532.38 L326.93 535.45 L321.11 538.51 L322.45 540.08 L324.15 541.55 L322.44 543.84 L324.71 545.14 L326.88 546.43 L327.80 548.04 L331.93 548.70 L337.64 548.81 L343.22 548.85 L349.08 548.68 L352.80 549.11 L354.27 550.25 L354.85 551.68 L349.18 555.40 L343.97 559.09 L344.15 560.81 L338.88 564.73 L335.64 567.95 L337.31 569.18 L338.39 570.63 L337.47 572.98 L338.74 574.35 L341.19 575.16 L342.19 576.63 L346.92 576.23 L352.32 575.40 L357.90 574.34 L363.57 573.13 L368.56 572.15 L371.74 572.09 L373.36 572.85 L364.16 579.96 L360.56 583.97 L362.25 584.84 L353.81 592.07 L351.86 595.38 L355.54 595.07 L356.71 596.36 L356.52 598.59 L357.49 600.04 L360.00 600.38 L361.29 601.57 L366.25 600.00 L367.17 601.40 L366.95 603.69 L370.99 602.63 L368.27 606.97 L367.61 609.72 L368.50 611.22 L368.95 613.10 L371.25 613.39 L373.30 613.85 L374.05 615.48 L375.19 616.74 L377.69 616.72 L378.04 618.75 L378.34 620.85 L379.95 621.66 L382.53 621.44 L384.30 622.04 L389.05 619.39 L393.49 616.94 L398.38 613.83 L403.11 610.75 L407.17 608.27 L409.77 607.40 L411.34 607.70 L404.69 618.16 L402.90 622.88 L404.38 623.52 L398.44 633.94 L399.01 635.99 L401.36 635.63 L402.49 636.94 L402.48 639.90 L405.51 638.49 L407.30 638.82 L409.98 637.77 L414.13 634.34 L418.16 630.90 L422.43 626.88 L426.07 623.68 L428.57 622.25 L430.22 622.22 L431.31 623.17 L427.63 632.86 L426.98 637.31 L428.91 636.97 L426.36 645.42 L427.02 647.76 L429.52 646.37 L430.48 648.15 L430.96 651.04 L433.41 649.61 L435.35 649.26 L437.86 647.49 L441.05 643.93 L444.36 639.81 L447.79 635.10 L451.02 630.63 L453.72 627.27 L455.64 625.89 L457.08 625.80 L453.35 641.36 L454.19 643.61 L455.53 644.40 L453.87 655.27 L455.42 655.76 L457.91 652.81 L458.89 655.31 L460.09 657.12 L462.15 655.50 L463.67 656.03 L465.96 653.13 L468.29 649.70 L469.10 653.43 L471.02 651.69 L473.04 649.21 L473.22 657.16 L474.86 657.02 L476.38 657.61 L477.87 658.49 L479.67 657.00 L481.37 656.11 L482.85 657.11 L484.47 656.78 L486.21 654.93 L487.58 657.42 L489.12 658.00 L490.79 656.62 L492.38 656.05 L494.10 652.14 L495.74 648.15 L497.32 642.75 L498.80 637.22 L500.16 632.21 L501.45 628.79 L502.70 627.02 L504.09 631.01 L505.87 642.22 L507.35 643.38 L509.09 648.29 L511.10 655.54 L512.70 656.01 L514.04 653.46 L515.84 655.96 L517.23 654.27 L518.56 652.30 L520.06 651.97 L520.98 647.57 L521.76 642.75 L522.29 637.04 L522.73 631.41 L523.35 627.42 L524.36 625.83 L525.55 625.26 L527.98 630.47 L530.85 637.14 L532.46 637.88 L534.91 641.88 L537.64 646.66 L539.06 646.08 L540.21 644.61 L542.23 646.17 L543.42 644.83 L544.53 643.31 L545.58 641.69 L545.92 638.00 L545.75 633.03 L545.18 627.23 L544.58 621.65 L543.99 616.44 L544.01 613.05 L544.68 611.46 L549.02 618.85 L553.42 625.92 L554.46 624.87 L559.10 631.89 L562.60 636.05 L562.94 633.26 L563.83 631.72 L566.21 633.22 L567.08 631.65 L567.64 629.53 L568.53 628.10 L568.03 624.17 L568.37 621.88 L571.11 623.84 L570.62 620.18 L573.18 621.74 L577.05 625.32 L577.87 623.86 L579.50 623.69 L580.21 622.10 L580.46 619.85 L581.78 619.23 L583.36 618.96 L583.32 616.40 L584.55 615.66 L586.69 616.13 L587.81 615.21 L587.79 612.82 L588.62 611.57 L586.84 607.11 L584.70 602.36 L582.16 597.30 L579.52 592.28 L577.30 587.91 L576.40 585.15 L576.61 583.69 L585.29 591.33 L589.50 593.93 L590.66 593.27 L598.37 599.19 L602.10 600.91 L602.03 598.85 L603.06 597.86 L605.04 597.77 L604.97 595.77 L604.50 593.44 L604.81 591.84 L601.79 587.41 L598.63 583.00 L595.32 578.60 L592.10 574.41 L590.35 571.52 L590.56 570.22 L591.59 569.56 L600.10 574.46 L603.97 575.74 L603.35 573.71 L611.22 577.66 L614.47 578.24 L613.64 576.02 L615.14 575.36 L617.26 575.09 L617.15 573.38 L616.39 571.29 L615.88 569.39 L612.34 565.76 L608.58 562.11 L604.49 558.39 L600.21 554.69 L596.90 551.63 L595.44 549.63 L595.31 548.36 L609.76 554.32 L612.44 554.26 L611.01 552.20 L622.24 556.00 L624.19 555.39 L621.81 552.88 L623.75 552.26 L626.24 551.83 L625.19 549.94 L625.28 548.53 L623.74 546.51 L619.63 543.61 L615.98 540.97 L611.43 538.11 L606.56 535.26 L603.20 533.01 L601.72 531.42 L601.20 530.15 L600.87 528.96 L600.63 527.80 L600.46 526.68 L600.35 525.58 L600.23 524.48 L600.15 523.40 L600.09 522.34 L600.04 521.28 L599.98 520.22 L599.93 519.17 L599.89 518.13 L599.85 517.09 L599.80 516.06 L599.74 515.03 L599.69 514.00 L599.63 512.98 L599.56 511.96 L599.48 510.94 L599.40 509.93 L599.31 508.92 L599.20 507.91 L599.09 506.90 L598.97 505.90 L598.84 504.90 L598.70 503.91 L598.55 502.91 L598.39 501.92 L598.22 500.94 Z"/>
  <svg class="pausebutton" id="pausebutton">
    <circle cx="500" cy="500" id="pausestart" class="pausestart" r="52.65"/>
    <rect height="50.02" width="10.00" y="473.68" rx="2.00" ry="2.00" x="479.99" class="pausesymbol"/>
    <rect height="50.02" width="10.00" y="473.68" rx="2.00" ry="2.00" x="510.00" class="pausesymbol"/>
    <polygon points="530.01,500 479.99,530.01 479.99,469.99" class="playsymbol"/>
  </svg>
  <polygon id="playback-head" class="playback-head" points="941.65,500 921.65,540 961.65,540"/>
</svg>