<?xml-stylesheet href="../../style/waveformjs.css" type="text/css"?>
<svg xmlns="http://www.w3.org/2000/svg" xmlns:xlink="http://www.w3.org/1999/xlink" width="100%" height="100%" viewBox="0 0 1000 1000">
  <path class="svg-wave" id="sp" d="M598.00 500.00 L598.17 500.98 L598.32 501.97 L598.47 502.95 L598.61 503.95 L598.73 504.94 L598.85 505.94 L598.96 506.94 L599.05 507.94 L599.13 508.95 L599.21 509.95 L599.27 510.96 L599.33 511.98 L599.38 512.99 L599.41 514.01 L599.44 515.03 L599.45 516.05 L599.45 517.07 L599.44 518.09 L599.41 519.12 L599.38 520.15 L599.33 521.17 L599.28 522.20 L599.22 523.23 L599.14 524.26 L599.05 525.29 L598.95 526.32 L598.85 527.36 L598.72 528.39 L598.60 529.42 L598.46 530.46 L598.32 531.49 L598.14 532.52 L597.98 533.56 L597.78 534.59 L597.58 535.62 L597.38 536.65 L597.15 537.68 L596.91 538.71 L596.66 539.73 L596.42 540.76 L596.14 541.79 L595.88 542.82 L595.61 543.85 L595.30 544.87 L595.02 545.90 L594.69 546.91 L594.35 547.93 L594.01 548.94 L593.66 549.96 L593.30 550.97 L592.92 551.98 L592.52 552.98 L592.13 553.98 L591.71 554.97 L591.29 555.97 L590.87 556.97 L590.40 557.95 L589.97 558.95 L589.50 559.93 L589.04 560.92 L588.57 561.90 L588.06 562.87 L587.56 563.84 L587.05 564.81 L586.53 565.78 L586.00 566.74 L585.45 567.70 L584.90 568.66 L584.30 569.58 L583.72 570.52 L583.14 571.46 L582.51 572.37 L581.87 573.27 L581.26 574.20 L580.64 575.13 L580.00 576.03 L579.34 576.93 L578.70 577.85 L578.04 578.76 L577.39 579.68 L576.68 580.55 L575.98 581.42 L575.27 582.31 L574.52 583.13 L573.77 583.97 L573.00 584.80 L572.21 585.59 L571.43 586.41 L570.65 587.23 L569.88 588.06 L569.08 588.86 L568.27 589.66 L567.46 590.46 L566.65 591.25 L565.77 591.97 L564.88 592.67 L563.99 593.38 L563.08 594.04 L562.14 594.68 L561.15 595.24 L560.24 595.91 L559.24 596.46 L558.22 596.95 L557.23 597.49 L556.27 598.09 L555.18 598.46 L554.21 599.04 L553.08 599.33 L552.19 600.05 L550.99 600.18 L549.99 600.70 L548.81 600.85 L547.93 601.59 L546.68 601.58 L545.75 602.22 L544.58 602.34 L543.43 602.49 L542.26 602.57 L540.97 602.35 L539.99 602.85 L538.55 602.18 L537.54 602.58 L536.39 602.61 L535.48 603.31 L534.22 602.99 L533.29 603.65 L532.14 603.59 L531.18 604.19 L529.95 603.84 L529.08 604.75 L527.79 604.12 L526.76 604.44 L525.65 604.46 L524.75 605.34 L523.73 605.72 L522.62 605.74 L521.88 607.48 L520.80 607.70 L519.74 607.97 L518.55 607.52 L517.55 608.21 L516.44 608.17 L515.42 608.77 L514.23 608.20 L513.33 609.83 L512.17 609.42 L511.15 610.20 L510.00 609.87 L509.02 611.35 L507.85 610.66 L506.82 612.11 L505.67 611.52 L504.56 611.65 L503.44 611.68 L502.31 611.19 L501.20 611.33 L500.09 611.38 L498.98 611.36 L497.88 610.56 L496.76 611.00 L495.66 610.76 L494.52 611.19 L493.45 610.54 L492.26 611.71 L491.15 611.46 L489.98 612.02 L488.85 612.04 L487.67 612.49 L486.49 612.83 L485.29 613.21 L484.00 614.17 L482.94 613.49 L481.52 615.12 L480.46 614.41 L479.10 615.37 L477.98 614.99 L476.71 615.39 L475.60 614.93 L474.26 615.55 L473.28 614.51 L471.80 615.64 L470.80 614.75 L469.45 615.20 L468.38 614.59 L467.06 614.89 L466.03 614.18 L464.70 614.43 L463.77 613.41 L462.44 613.64 L461.44 612.86 L460.48 612.01 L459.35 611.62 L458.66 610.09 L457.41 610.07 L456.82 608.36 L456.28 606.60 L455.02 606.63 L454.35 605.26 L453.35 604.69 L452.08 604.71 L451.22 603.83 L449.48 604.80 L448.46 604.24 L447.51 603.54 L445.92 604.07 L444.79 603.71 L444.04 602.62 L442.60 602.80 L442.25 601.05 L441.26 600.44 L440.38 599.63 L439.39 599.04 L437.38 600.05 L436.31 599.53 L435.03 599.33 L433.56 599.40 L433.01 598.08 L432.36 596.94 L431.54 596.05 L430.74 595.15 L428.83 595.75 L428.31 594.46 L427.19 593.97 L425.07 594.74 L424.44 593.59 L423.48 592.86 L421.46 593.40 L420.69 592.42 L419.28 592.18 L418.11 591.66 L417.69 590.29 L415.71 590.62 L416.40 588.10 L417.66 585.05 L416.58 584.46 L416.34 583.03 L416.60 581.13 L414.22 581.79 L411.47 582.74 L406.70 585.46 L405.12 585.18 L403.78 584.66 L399.65 586.53 L400.69 583.92 L401.77 581.34 L400.68 580.58 L401.22 578.52 L400.76 577.27 L399.83 576.40 L399.39 575.16 L397.71 574.83 L396.83 573.90 L396.17 572.82 L394.42 572.48 L393.23 571.73 L392.39 570.75 L391.43 569.84 L391.07 568.54 L389.96 567.71 L389.90 566.24 L389.43 565.02 L388.13 564.29 L387.02 563.43 L386.18 562.42 L385.05 561.55 L384.19 560.53 L383.46 559.43 L382.78 558.31 L381.71 557.37 L380.59 556.45 L379.38 555.55 L378.42 554.53 L377.87 553.32 L376.60 552.40 L375.95 551.22 L375.92 549.79 L377.01 547.93 L378.46 545.97 L378.59 544.54 L379.19 542.95 L378.81 541.73 L377.79 540.72 L377.20 539.55 L375.86 538.62 L375.71 537.31 L375.39 536.05 L375.05 534.79 L373.94 533.75 L372.54 532.76 L371.53 531.66 L371.16 530.38 L371.20 529.02 L371.00 527.71 L370.56 526.45 L370.38 525.14 L369.52 523.96 L368.34 522.82 L367.60 521.58 L365.89 520.49 L365.23 519.21 L364.91 517.88 L364.35 516.58 L364.35 515.20 L363.69 513.90 L362.90 512.59 L363.10 511.19 L362.40 509.87 L361.87 508.52 L361.63 507.15 L361.87 505.75 L362.25 504.35 L362.60 502.97 L362.67 501.59 L362.95 500.22 L363.90 498.86 L364.08 497.50 L363.74 496.13 L363.47 494.75 L362.83 493.35 L362.23 491.94 L362.74 490.60 L364.27 489.34 L363.40 487.89 L363.67 486.54 L363.53 485.15 L360.20 483.37 L357.37 481.58 L356.21 479.97 L355.67 478.42 L355.02 476.84 L356.66 475.63 L358.20 474.43 L358.66 473.05 L358.78 471.61 L358.58 470.09 L358.58 468.61 L358.77 467.17 L358.78 465.68 L359.47 464.35 L360.11 463.02 L361.09 461.79 L361.80 460.50 L361.94 459.04 L362.29 457.64 L362.25 456.12 L361.60 454.38 L361.42 452.78 L361.33 451.20 L361.24 449.60 L361.81 448.23 L362.36 446.87 L363.04 445.55 L363.73 444.24 L364.48 442.96 L365.13 441.64 L365.83 440.34 L366.77 439.15 L367.89 438.06 L368.44 436.71 L368.70 435.21 L369.13 433.79 L369.45 432.30 L370.25 431.06 L372.06 430.37 L373.27 429.38 L374.81 428.58 L375.81 427.50 L374.95 425.31 L374.45 423.30 L373.91 421.23 L373.24 419.04 L373.75 417.57 L374.12 416.00 L374.74 414.60 L376.11 413.70 L376.53 412.15 L377.71 411.14 L378.96 410.18 L379.56 408.74 L380.50 407.56 L381.34 406.30 L381.88 404.79 L382.77 403.56 L383.60 402.28 L384.48 401.03 L385.48 399.88 L386.01 398.31 L387.16 397.30 L388.19 396.17 L388.81 394.65 L390.39 394.05 L391.37 392.88 L392.06 391.41 L393.57 390.76 L394.05 389.06 L395.30 388.15 L396.54 387.24 L397.27 385.76 L399.21 385.63 L400.56 384.87 L401.57 383.70 L403.11 383.18 L403.97 381.82 L404.77 380.39 L406.04 379.53 L406.26 377.31 L408.10 377.19 L411.16 378.76 L412.12 377.52 L413.75 377.22 L416.05 377.92 L415.84 374.95 L415.72 372.03 L415.16 368.33 L416.21 367.06 L417.11 365.53 L417.39 362.92 L419.64 363.59 L421.46 363.58 L422.24 361.76 L424.00 361.66 L425.16 360.50 L426.50 359.63 L428.30 359.68 L429.12 357.80 L430.86 357.75 L432.51 357.52 L433.30 355.48 L435.02 355.42 L436.55 354.96 L437.66 353.54 L439.33 353.39 L440.28 351.50 L441.73 350.82 L443.27 350.36 L444.20 348.25 L445.83 348.01 L447.53 348.01 L448.74 346.54 L450.60 347.05 L452.26 346.95 L453.78 346.46 L455.54 346.78 L456.73 345.08 L458.31 344.76 L459.85 344.30 L460.94 342.02 L462.48 341.46 L464.05 341.03 L465.54 340.19 L467.66 342.40 L469.45 343.19 L471.17 343.70 L473.05 345.21 L474.54 344.59 L475.86 342.79 L477.34 341.91 L478.77 340.55 L480.30 339.86 L481.84 339.07 L483.40 338.48 L485.05 338.60 L486.52 336.72 L488.18 336.98 L489.85 337.56 L491.42 336.40 L493.10 337.21 L494.73 337.41 L496.33 336.22 L497.98 336.85 L499.61 335.91 L501.25 335.82 L502.89 335.79 L504.57 334.64 L506.20 335.27 L507.85 335.30 L509.55 334.36 L511.21 334.42 L512.90 334.18 L514.59 333.93 L516.26 333.98 L518.10 332.48 L519.72 333.13 L521.27 334.20 L523.06 333.50 L524.64 334.30 L526.20 335.15 L527.90 335.09 L529.45 335.92 L531.30 335.15 L532.91 335.65 L534.57 335.89 L536.57 334.61 L538.03 335.81 L539.39 337.35 L540.99 337.86 L542.62 338.23 L544.25 338.60 L546.21 337.85 L548.38 336.45 L550.97 333.83 L552.70 334.12 L554.22 335.07 L556.47 333.86 L557.54 336.10 L558.67 338.06 L560.58 337.87 L561.97 339.09 L563.83 339.09 L565.59 339.34 L566.94 340.62 L569.27 339.58 L570.49 341.14 L571.80 342.46 L573.80 342.27 L575.12 343.53 L576.70 344.26 L578.66 344.22 L580.28 344.89 L582.73 344.00 L584.27 344.87 L585.64 346.03 L588.15 345.18 L589.35 346.67 L590.54 348.13 L592.65 348.07 L593.88 349.46 L595.49 350.24 L597.08 351.05 L598.14 352.66 L600.10 352.93 L600.94 354.85 L602.04 356.35 L604.24 356.31 L605.40 357.73 L606.74 358.89 L608.32 359.74 L608.57 362.29 L609.49 363.95 L610.55 365.40 L611.57 366.90 L613.94 366.80 L616.10 366.99 L617.77 367.77 L619.73 368.24 L620.93 369.57 L622.25 370.76 L623.54 371.99 L624.72 373.32 L627.09 373.48 L628.24 374.86 L629.38 376.24 L631.36 376.84 L632.23 378.49 L633.37 379.88 L634.88 380.94 L635.30 382.95 L636.96 383.89 L637.59 385.70 L639.07 386.81 L640.98 387.58 L641.42 389.52 L642.98 390.58 L644.79 391.48 L645.42 393.26 L647.07 394.30 L648.60 395.43 L649.52 397.00 L651.45 397.90 L652.18 399.60 L652.74 401.41 L654.51 402.44 L654.70 404.47 L655.41 406.17 L657.21 407.21 L657.57 409.11 L659.16 410.31 L660.59 411.60 L661.55 413.17 L663.85 414.03 L663.89 416.09 L662.99 418.60 L662.82 420.71 L663.89 422.20 L663.66 424.31 L665.44 425.48 L668.27 426.23 L671.84 426.70 L673.59 428.00 L674.71 429.57 L676.95 430.72 L677.35 432.60 L676.82 434.82 L678.40 436.25 L678.88 438.09 L679.88 439.75 L680.96 441.40 L681.04 443.37 L683.20 444.70 L682.86 446.79 L682.13 448.97 L683.17 450.65 L683.07 452.63 L683.01 454.60 L683.71 456.37 L684.67 458.09 L686.36 459.66 L686.61 461.55 L687.07 463.41 L688.71 465.04 L687.94 467.12 L688.37 468.98 L689.39 470.76 L689.10 472.74 L689.90 474.56 L690.27 476.44 L690.14 478.39 L691.81 480.14 L690.92 482.16 L691.02 484.07 L692.53 485.88 L692.25 487.84 L692.47 489.75 L692.35 491.69 L690.48 493.68 L689.86 495.60 L688.66 497.51 L687.42 499.40 L689.63 501.29 L690.57 503.20 L690.63 505.11 L691.74 507.06 L692.23 509.01 L692.64 510.96 L691.58 512.82 L691.91 514.77 L693.88 516.87 L693.24 518.77 L692.57 520.65 L693.68 522.73 L692.66 524.56 L691.93 526.42 L692.35 528.44 L692.31 530.41 L693.40 532.56 L693.23 534.53 L693.63 536.60 L695.23 538.93 L694.29 540.77 L693.64 542.65 L694.32 544.85 L693.57 546.72 L693.38 548.72 L693.44 550.80 L692.59 552.64 L693.39 554.94 L692.19 556.69 L690.42 558.24 L690.69 560.42 L688.68 561.86 L687.51 563.56 L688.19 565.89 L686.55 567.42 L685.95 569.32 L686.41 571.62 L685.87 573.55 L686.26 575.87 L685.11 577.57 L684.02 579.28 L682.80 580.94 L682.22 582.87 L681.10 584.55 L680.97 586.71 L682.47 589.68 L685.05 593.26 L684.24 595.17 L682.83 596.77 L684.03 599.78 L681.10 600.54 L678.47 601.43 L678.35 603.74 L677.00 605.33 L676.75 607.59 L676.08 609.61 L674.63 611.15 L675.00 613.86 L673.18 615.16 L671.42 616.48 L670.75 618.53 L669.09 619.90 L667.91 621.61 L667.04 623.55 L665.91 625.29 L665.87 627.89 L664.70 629.63 L663.55 631.40 L663.05 633.70 L661.49 635.15 L660.05 636.69 L658.79 638.38 L657.23 639.81 L655.64 641.21 L654.15 642.69 L652.76 644.27 L651.37 645.85 L649.76 647.21 L648.49 648.91 L647.41 650.81 L646.29 652.70 L645.06 654.47 L643.30 655.69 L640.90 656.18 L638.73 656.91 L636.84 657.93 L634.98 658.96 L634.07 661.13 L633.61 663.88 L632.62 666.03 L630.43 666.68 L628.84 668.09 L627.02 669.19 L624.60 669.48 L622.95 670.78 L621.67 672.62 L620.14 674.11 L618.51 675.48 L616.57 676.39 L614.60 677.24 L613.05 678.74 L611.50 680.25 L609.77 681.48 L608.32 683.20 L606.78 684.78 L605.38 686.64 L603.61 687.87 L601.61 688.69 L599.95 690.13 L598.16 691.34 L596.52 692.89 L594.90 694.47 L592.99 695.49 L591.44 697.30 L589.65 698.63 L587.86 699.96 L585.71 700.50 L583.44 700.70 L581.40 701.47 L579.29 702.03 L577.02 702.17 L574.66 702.04 L572.70 702.95 L570.72 703.80 L568.85 705.01 L566.87 705.92 L564.86 706.75 L562.49 706.41 L560.09 705.87 L558.23 707.19 L556.09 707.50 L554.41 709.59 L553.25 713.91 L551.84 717.48 L549.98 719.39 L547.89 720.38 L545.79 721.34 L543.27 720.25 L540.81 719.29 L538.57 719.44 L536.40 719.97 L534.26 720.72 L532.11 721.44 L529.92 722.01 L527.75 722.69 L525.50 722.72 L523.25 722.80 L520.99 722.69 L518.74 722.66 L516.52 722.83 L514.29 723.07 L512.07 723.38 L509.86 724.13 L507.62 724.23 L505.38 724.43 L503.14 724.27 L500.89 723.94 L498.66 723.47 L496.43 722.87 L494.21 722.44 L492.02 721.51 L489.82 721.13 L487.61 720.96 L485.42 720.46 L483.24 720.00 L480.98 720.61 L478.83 719.82 L476.53 720.51 L474.31 720.43 L472.20 719.42 L469.99 719.30 L467.87 718.50 L465.86 717.06 L463.56 717.46 L461.37 717.21 L459.21 716.74 L456.55 718.81 L453.86 720.81 L451.49 721.07 L448.84 722.48 L446.20 723.68 L443.83 723.68 L441.22 724.55 L439.05 723.68 L436.58 723.92 L433.35 726.63 L431.48 724.68 L429.14 724.29 L426.41 725.05 L424.75 722.58 L422.86 720.86 L420.92 719.34 L419.65 716.09 L417.16 716.14 L415.12 715.00 L413.06 713.91 L410.22 714.73 L406.96 716.42 L405.58 713.72 L403.04 713.67 L400.93 712.64 L399.24 710.73 L397.16 709.66 L394.82 709.12 L391.74 709.98 L389.67 708.85 L386.49 709.75 L382.96 711.21 L381.51 708.87 L379.01 708.40 L376.20 708.40 L375.44 704.99 L373.22 704.02 L371.59 702.10 L370.11 699.99 L367.72 699.28 L366.22 697.22 L364.76 695.15 L364.98 690.73 L365.01 686.70 L364.17 683.96 L364.83 679.29 L364.98 675.41 L362.01 675.61 L360.54 673.87 L357.65 673.88 L350.03 679.50 L348.11 678.15 L340.59 683.22 L335.95 684.79 L336.15 680.89 L332.54 681.19 L334.99 675.00 L338.62 667.76 L336.24 666.86 L337.60 662.20 L335.67 660.88 L331.04 662.13 L329.13 660.71 L323.03 663.15 L323.79 659.22 L324.25 655.63 L324.64 652.19 L325.72 648.22 L326.57 644.54 L323.92 643.79 L322.55 641.97 L316.17 644.08 L310.97 645.13 L309.13 643.53 L297.56 649.09 L297.25 646.21 L297.67 642.85 L293.12 642.99 L295.95 638.04 L300.10 632.34 L299.28 630.01 L300.57 626.36 L297.18 625.69 L296.33 623.41 L294.61 621.66 L288.39 622.51 L290.46 618.53 L290.54 615.73 L292.92 611.73 L295.11 607.91 L295.47 605.13 L293.63 603.48 L292.50 601.46 L282.43 603.70 L280.55 601.92 L278.48 600.20 L266.39 602.86 L267.41 599.65 L267.45 596.89 L263.60 595.73 L268.80 590.95 L272.68 586.81 L272.22 584.38 L274.56 580.96 L269.26 580.27 L270.06 577.42 L266.49 576.03 L258.99 575.82 L257.89 573.51 L258.36 570.74 L255.71 568.87 L259.80 565.13 L262.70 561.80 L263.32 559.12 L265.95 555.98 L260.13 554.84 L259.72 552.42 L255.09 550.86 L245.90 550.13 L247.83 547.13 L246.76 544.72 L248.51 541.82 L257.10 537.90 L255.87 535.59 L259.26 532.64 L262.48 529.79 L254.23 528.33 L254.20 525.85 L249.91 523.77 L249.57 521.28 L253.01 518.50 L255.77 515.84 L259.08 513.21 L262.61 510.64 L260.99 508.32 L261.15 505.92 L258.95 503.56 L250.29 501.19 L249.79 498.69 L240.38 496.05 L237.16 493.37 L240.34 490.85 L236.35 488.07 L240.37 485.65 L247.59 483.51 L249.63 481.13 L251.73 478.79 L251.36 476.25 L250.92 473.69 L250.20 471.09 L242.68 467.61 L242.44 464.96 L242.40 462.33 L242.16 459.65 L243.96 457.31 L249.87 455.72 L251.57 453.45 L254.77 451.51 L252.14 448.41 L251.68 445.72 L251.80 443.14 L240.00 437.69 L242.16 435.47 L245.03 433.48 L242.02 429.93 L247.75 428.77 L254.79 428.10 L256.09 425.82 L259.05 424.09 L256.51 420.60 L259.06 418.76 L259.69 416.28 L248.47 409.54 L254.57 408.96 L255.77 406.61 L255.50 403.70 L261.52 403.30 L260.20 399.96 L262.24 398.01 L269.99 398.60 L264.24 393.23 L269.76 392.95 L274.42 392.36 L270.57 387.69 L271.31 385.21 L275.42 384.44 L270.32 378.90 L274.06 377.97 L277.55 376.96 L277.62 374.08 L279.29 372.09 L272.14 364.89 L277.53 365.06 L279.93 363.49 L271.67 355.18 L278.66 356.49 L284.84 357.42 L281.63 352.13 L286.54 352.32 L284.69 347.84 L290.12 348.51 L295.30 349.11 L289.49 341.55 L296.62 343.71 L301.09 343.96 L295.48 336.22 L299.67 336.27 L303.10 335.76 L299.24 329.10 L304.43 330.12 L306.31 328.33 L308.34 326.67 L309.63 324.34 L305.92 317.30 L310.33 317.83 L312.04 315.82 L308.76 308.83 L315.41 311.74 L320.19 312.92 L319.80 308.72 L323.05 308.36 L321.09 302.31 L326.90 304.84 L330.18 304.64 L326.73 296.60 L333.41 300.43 L335.74 299.17 L333.11 291.74 L338.25 293.97 L340.29 292.33 L339.60 287.05 L344.83 289.65 L346.15 287.01 L348.33 285.56 L348.78 281.58 L348.88 277.00 L352.67 277.83 L351.47 271.10 L352.55 267.70 L358.68 272.35 L361.17 271.29 L363.18 269.44 L366.48 269.79 L366.86 265.06 L372.27 269.27 L373.49 265.96 L375.99 265.01 L380.84 268.62 L381.38 263.90 L382.85 260.90 L386.07 261.46 L386.88 256.94 L388.41 253.81 L392.86 257.21 L394.53 254.36 L397.43 254.38 L397.71 247.98 L401.84 251.06 L404.64 250.88 L405.26 244.87 L408.49 245.83 L411.66 246.71 L413.42 243.52 L415.73 241.88 L418.08 240.31 L420.38 238.50 L424.36 242.36 L424.77 233.95 L428.52 237.21 L432.25 240.69 L433.55 234.87 L436.02 233.45 L439.83 237.78 L441.22 231.55 L444.40 233.37 L447.53 235.13 L449.97 233.51 L452.74 233.57 L453.91 224.21 L457.27 227.56 L460.20 228.54 L461.60 218.50 L464.89 221.91 L468.43 228.06 L470.67 223.26 L473.68 225.45 L476.13 221.73 L479.31 226.72 L482.30 230.45 L484.47 220.86 L487.58 227.76 L490.44 231.29 L492.88 221.58 L495.72 225.41 L498.48 227.79 L501.24 220.25 L503.96 225.66 L506.70 225.58 L509.45 225.65 L512.20 225.52 L515.36 218.02 L517.95 221.75 L520.77 221.49 L524.17 214.42 L526.41 221.14 L528.76 225.64 L531.81 223.20 L534.41 224.90 L537.90 219.74 L539.84 226.05 L542.31 228.23 L546.29 221.00 L547.84 228.50 L550.47 229.43 L554.49 223.28 L556.25 228.70 L559.11 228.59 L562.88 224.55 L564.41 230.30 L567.46 229.54 L570.11 230.41 L573.59 228.21 L577.25 225.60 L579.14 229.31 L583.66 224.12 L587.15 222.61 L587.52 230.88 L590.00 232.40 L592.86 232.75 L594.96 235.28 L598.77 233.10 L599.32 239.64 L603.36 236.97 L606.00 237.98 L606.28 244.66 L610.55 241.73 L613.98 240.91 L615.26 244.95 L619.32 242.84 L622.79 242.16 L623.14 247.94 L626.56 247.36 L628.88 249.04 L634.74 243.96 L636.46 246.88 L638.30 249.49 L645.47 242.61 L646.44 246.83 L648.53 249.05 L652.85 247.54 L657.68 245.36 L660.67 246.24 L664.67 245.57 L669.00 244.53 L669.68 248.99 L670.57 253.03 L671.99 256.22 L672.65 260.41 L673.98 263.58 L676.19 265.53 L678.56 267.26 L682.07 267.54 L686.15 267.16 L687.65 270.03 L689.88 272.01 L693.65 272.14 L694.60 275.61 L696.85 277.55 L700.43 278.02 L702.37 280.33 L704.70 282.21 L708.95 282.10 L712.53 282.76 L713.58 286.00 L717.14 286.74 L718.94 289.23 L721.16 291.32 L725.54 291.41 L725.66 295.45 L728.16 297.30 L731.52 298.42 L730.83 303.04 L731.92 306.09 L731.66 310.21 L732.01 313.77 L735.35 314.93 L738.87 316.00 L742.87 316.76 L745.52 318.58 L748.18 320.42 L748.84 323.71 L748.99 327.31 L752.23 328.78 L752.57 332.21 L754.17 334.79 L760.31 334.48 L760.46 338.02 L763.39 339.83 L764.96 342.48 L765.08 345.97 L769.52 346.98 L769.96 350.28 L769.55 354.01 L774.47 354.88 L770.64 360.35 L766.35 365.92 L767.00 368.92 L763.48 373.90 L762.53 377.57 L762.57 380.73 L762.07 384.11 L764.45 386.20 L766.14 388.61 L770.83 389.82 L777.69 390.25 L780.69 392.30 L787.31 393.05 L793.75 393.98 L793.16 397.50 L794.69 400.25 L794.78 403.50 L795.14 406.64 L797.33 409.21 L796.70 412.63 L796.61 415.87 L798.21 418.63 L794.78 422.73 L790.88 426.85 L790.65 429.99 L787.89 433.69 L789.99 436.26 L789.36 439.42 L789.55 442.40 L796.51 444.09 L797.72 446.94 L799.32 449.74 L805.41 451.85 L809.54 454.37 L808.30 457.69 L809.56 460.67 L812.72 463.44 L811.03 466.79 L811.65 469.87 L814.60 472.76 L814.85 475.91 L816.78 478.94 L814.92 482.23 L814.24 485.42 L807.53 488.81 L804.89 491.96 L802.23 495.05 L795.54 498.12 L796.21 501.08 L794.06 504.01 L791.74 506.89 L793.77 509.88 L796.05 512.92 L801.11 516.16 L804.86 519.42 L808.92 522.79 L816.66 526.54 L815.55 529.63 L816.35 532.90 L816.82 536.16 L812.68 538.85 L813.87 542.19 L814.92 545.55 L812.00 548.31 L812.82 551.65 L811.84 554.70 L805.18 556.68 L803.60 559.53 L799.47 561.84 L795.31 564.06 L797.24 567.60 L795.14 570.24 L795.18 573.37 L794.40 576.31 L793.26 579.15 L792.41 582.07 L792.93 585.39 L790.95 587.98 L789.94 590.84 L790.64 594.26 L787.74 596.51 L788.36 599.94 L792.26 604.58 L796.12 609.31 L798.16 613.46 L799.61 617.46 L802.04 621.91 L795.34 622.65 L788.65 623.27 L786.32 625.68 L780.13 626.32 L777.34 628.41 L774.94 630.66 L771.83 632.53 L771.65 635.82 L770.84 638.81 L772.95 643.36 L776.80 648.94 L777.10 652.69 L780.94 658.49 L784.05 664.01 L781.47 666.29 L780.73 669.67 L777.59 671.58 L775.25 673.96 L775.64 678.09 L771.07 679.00 L768.56 681.23 L768.51 685.13 L761.83 684.42 L756.80 684.74 L754.35 686.87 L749.11 686.88 L749.34 690.98 L745.43 691.91 L742.56 693.60 L744.67 699.33 L743.80 702.71 L740.04 703.68 L739.73 707.57 L738.84 711.02 L737.25 713.87 L735.61 716.71 L730.11 715.93 L733.38 723.43 L727.17 721.88 L722.67 721.89 L724.47 728.20 L722.09 730.33 L717.37 730.00 L719.59 737.06 L714.88 736.68 L711.23 737.38 L709.23 739.92 L706.34 741.44 L709.54 750.21 L703.93 748.52 L701.24 750.31 L704.69 759.87 L698.56 757.34 L693.20 755.65 L693.84 761.89 L689.10 760.91 L689.01 766.34 L683.53 764.18 L678.32 762.25 L680.40 771.09 L673.93 767.11 L669.78 766.54 L672.08 776.21 L667.49 774.93 L663.71 774.87 L664.45 782.50 L659.12 779.74 L656.35 781.39 L653.23 782.39 L650.36 783.82 L650.45 790.99 L646.02 789.50 L643.55 791.81 L643.21 798.62 L637.83 794.94 L633.50 793.28 L631.71 797.20 L628.28 797.44 L627.23 803.32 L621.88 798.91 L618.53 799.22 L618.34 807.70 L612.64 801.85 L609.82 803.51 L609.18 811.46 L604.33 807.43 L601.55 809.37 L599.78 814.57 L594.96 810.10 L592.18 812.13 L588.94 812.63 L586.40 815.66 L584.30 820.56 L580.99 820.97 L579.61 829.34 L576.46 830.77 L571.94 826.06 L568.60 826.39 L564.97 825.22 L561.19 823.08 L558.62 827.38 L554.23 821.41 L551.57 825.43 L548.27 825.63 L544.25 820.57 L541.61 825.43 L538.68 828.62 L535.03 825.64 L532.13 829.67 L528.99 831.69 L525.32 827.47 L522.16 829.48 L518.78 828.16 L515.77 834.16 L512.26 829.61 L508.93 828.77 L505.72 833.24 L502.38 832.77 L499.06 831.36 L495.72 833.24 L492.36 834.65 L488.98 835.57 L485.64 835.11 L482.52 830.61 L478.72 838.19 L475.70 833.11 L472.62 829.77 L468.78 835.31 L465.42 835.13 L462.52 830.76 L458.40 836.96 L455.56 832.61 L452.50 830.30 L449.07 830.61 L446.01 828.66 L441.41 835.60 L438.76 831.23 L435.58 829.91 L430.74 836.78 L428.00 833.18 L425.71 827.86 L421.45 831.24 L418.69 828.22 L414.40 831.31 L412.57 824.94 L410.22 820.85 L404.63 828.17 L403.54 819.92 L400.98 816.94 L394.77 825.33 L392.89 820.18 L390.22 817.57 L384.59 823.35 L383.29 816.94 L380.12 815.77 L377.16 814.06 L374.03 812.81 L368.45 817.46 L366.64 812.96 L363.04 812.68 L357.53 816.62 L356.62 810.31 L354.95 805.85 L350.44 807.39 L347.96 804.69 L342.41 808.08 L342.31 800.80 L339.88 798.16 L333.23 803.23 L333.99 794.82 L330.65 793.84 L324.22 798.06 L324.03 791.69 L320.72 790.57 L315.63 792.24 L315.65 785.82 L312.07 785.08 L309.40 782.93 L304.79 783.61 L300.67 783.49 L299.30 779.45 L292.16 783.36 L289.29 781.34 L289.87 774.80 L286.85 773.04 L283.82 771.29 L282.17 767.81 L277.18 768.43 L278.92 760.97 L274.00 761.44 L272.22 758.22 L273.25 751.94 L267.46 753.23 L263.65 752.27 L262.91 748.04 L257.41 748.76 L254.00 747.26 L254.92 741.46 L251.52 739.96 L250.12 736.54 L242.40 739.00 L240.63 735.86 L239.00 732.62 L231.86 734.21 L229.63 731.43 L227.97 728.18 L225.19 725.87 L221.18 724.54 L219.95 720.94 L217.61 718.24 L214.36 716.23 L211.58 713.83 L208.81 711.40 L205.37 709.43 L203.56 706.29 L200.06 704.31 L199.99 699.99 L198.94 696.37 L201.21 690.66 L201.35 686.39 L201.80 682.00 L205.66 675.62 L203.53 672.90 L203.53 668.95 L203.83 664.88 L200.45 662.86 L196.79 660.93 L191.03 660.06 L186.16 658.62 L181.24 657.12 L173.55 656.88 L170.38 654.36 L166.93 651.93 L165.66 648.49 L164.92 644.83 L162.51 641.88 L161.36 638.39 L162.58 633.97 L159.84 631.14 L161.08 626.78 L163.93 621.90 L163.72 618.19 L166.13 613.60 L167.83 609.33 L164.29 606.78 L164.45 603.05 L162.52 599.96 L162.06 596.43 L161.27 593.00 L160.17 589.66 L158.11 586.56 L158.44 582.85 L157.42 579.48 L154.76 576.46 L156.30 572.53 L153.72 569.46 L148.39 566.88 L144.14 564.01 L140.41 560.97 L136.29 557.94 L133.14 554.68 L138.25 550.23 L141.63 546.11 L142.43 542.38 L146.81 538.28 L148.39 534.56 L149.38 530.92 L151.08 527.26 L149.21 523.88 L148.48 520.40 L145.08 517.04 L139.65 513.69 L137.66 510.13 L132.41 506.60 L128.31 502.96 L126.60 499.24 L126.80 495.51 L127.50 491.79 L127.01 488.05 L125.57 484.25 L129.35 480.70 L129.04 476.96 L128.56 473.20 L133.74 469.89 L137.75 466.57 L139.48 463.09 L143.58 459.90 L142.35 456.14 L144.13 452.74 L145.18 449.26 L138.67 444.64 L137.81 440.79 L137.53 437.02 L133.60 432.55 L131.83 428.42 L132.74 424.77 L134.56 421.33 L134.27 417.43 L134.59 413.66 L136.69 410.31 L135.36 406.10 L134.14 401.88 L134.89 398.15 L136.08 394.55 L137.18 390.92 L145.22 389.46 L148.78 386.70 L153.07 384.25 L160.96 383.10 L161.37 379.44 L164.48 376.75 L167.91 374.23 L167.06 370.08 L165.81 365.73 L161.58 360.08 L159.28 355.13 L157.22 350.19 L150.59 343.11 L152.78 339.90 L153.51 336.02 L154.92 332.44 L159.42 330.39 L158.88 325.85 L160.58 322.41 L164.98 320.43 L165.03 316.12 L168.70 313.80 L176.20 313.73 L178.85 310.95 L182.93 309.06 L186.39 306.84 L184.52 301.31 L185.50 297.51 L183.02 291.40 L183.92 287.43 L186.16 284.35 L187.54 280.67 L188.88 276.93 L191.57 274.16 L190.57 268.64 L193.19 265.77 L194.28 261.73 L196.58 258.60 L200.44 256.75 L200.35 251.66 L203.90 249.56 L207.93 247.92 L208.23 243.04 L215.27 244.15 L222.08 245.19 L225.40 243.14 L231.90 244.14 L235.47 242.44 L239.20 240.95 L243.18 239.74 L244.58 235.94 L246.99 233.14 L246.99 227.74 L245.82 220.94 L247.44 217.08 L245.64 209.26 L245.37 203.02 L249.21 201.50 L251.40 198.03 L255.50 196.88 L258.85 194.83 L260.39 190.47 L265.40 190.60 L268.55 188.33 L270.39 184.26 L277.17 187.06 L282.51 187.99 L286.03 186.40 L291.67 188.01 L293.05 183.26 L297.78 183.65 L301.68 182.80 L302.16 176.42 L304.57 173.05 L308.70 172.57 L310.85 168.68 L313.87 166.27 L316.28 162.71 L319.82 161.18 L325.39 163.59 L324.68 153.80 L330.25 156.31 L335.43 158.23 L336.26 151.07 L339.94 149.86 L345.39 152.63 L346.10 144.71 L351.33 147.14 L355.44 147.08 L358.73 145.02 L362.33 143.74 L362.58 133.54 L367.72 136.21 L371.52 135.37 L371.64 123.73 L377.67 129.32 L382.85 132.71 L385.09 126.89 L389.98 129.64 L392.31 123.73 L397.54 127.99 L402.28 130.83 L403.59 120.47 L409.24 127.12 L413.65 129.14 L415.18 118.48 L420.05 122.59 L424.23 123.81 L426.69 116.26 L431.51 120.95 L435.26 120.02 L439.09 119.54 L442.70 117.66 L445.46 109.47 L449.94 113.39 L453.63 111.40 L456.72 103.66 L461.51 111.51 L465.71 114.68 L469.35 111.65 L473.29 112.18 L476.85 106.43 L481.13 113.20 L485.02 113.70 L488.69 106.90 L492.77 114.72 L496.61 113.25 L500.49 107.70 L504.36 112.17 L508.27 110.47 L512.30 106.47 L515.99 112.44 L519.96 110.71 L523.86 110.93 L528.03 107.18 L532.22 104.24 L535.90 107.66 L540.72 99.18 L544.81 98.85 L547.75 108.12 L551.73 108.09 L555.62 108.80 L559.25 111.22 L563.62 108.88 L566.38 116.13 L571.03 112.41 L574.58 114.77 L577.30 121.08 L582.08 117.25 L586.35 116.07 L589.58 119.54 L594.28 116.80 L598.53 116.12 L601.14 121.70 L605.31 121.32 L609.01 122.65 L614.84 116.89 L616.87 123.86 L620.53 125.32 L625.86 121.77 L629.05 124.76 L632.17 127.83 L636.73 126.85 L640.69 127.62 L645.02 127.47 L648.66 129.14 L650.58 134.97 L657.53 128.68 L659.25 134.84 L661.30 140.00 L667.62 135.71 L670.94 138.06 L672.65 143.72 L679.47 138.89 L680.99 144.79 L683.95 147.73 L687.75 149.06 L691.20 151.05 L699.34 144.66 L700.82 150.26 L704.12 152.61 L713.32 145.12 L713.16 153.29 L713.81 159.90 L719.48 158.52 L720.99 163.60 L726.93 161.99 L726.97 169.12 L728.20 174.36 L736.93 168.99 L735.55 177.77 L737.21 182.22 L746.14 177.06 L746.24 183.53 L748.46 187.19 L755.79 184.49 L755.50 191.20 L759.04 193.23 L761.87 196.10 L765.74 197.77 L774.18 194.39 L774.10 200.56 L778.05 202.27 L786.24 199.58 L783.30 208.56 L783.64 213.99 L788.47 214.88 L790.78 218.29 L797.50 217.49 L795.45 225.00 L797.82 228.31 L805.46 226.88 L802.40 235.02 L805.83 237.37 L812.71 236.84 L811.78 242.91 L815.17 245.37 L820.77 246.10 L819.40 252.34 L822.99 254.69 L825.40 257.95 L831.45 258.56 L836.46 260.03 L836.14 265.29 L845.66 263.74 L848.79 266.69 L843.49 275.17 L846.00 278.44 L848.13 281.96 L849.36 286.02 L853.62 288.24 L849.73 295.29 L856.69 295.98 L857.35 300.32 L853.71 306.97 L859.89 308.24 L863.82 310.80 L863.17 315.72 L869.37 317.20 L871.77 320.62 L869.20 326.39 L872.78 329.23 L873.71 333.31 L883.15 333.67 L881.85 338.75 L883.30 342.64 L894.19 342.76 L892.30 348.04 L892.82 352.34 L895.09 355.98 L896.88 359.81 L898.31 363.77 L900.09 367.61 L901.21 371.68 L904.21 375.16 L905.46 379.20 L908.48 382.74 L911.49 386.31 L912.01 390.59 L913.37 394.64 L915.25 398.58 L913.90 403.28 L913.36 407.76 L913.47 412.06 L916.74 415.72 L921.63 419.11 L920.71 423.64 L922.94 427.59 L927.49 431.21 L925.24 435.92 L922.54 440.65 L925.54 444.56 L925.59 448.87 L927.68 452.96 L927.43 457.31 L927.65 461.60 L929.26 465.78 L928.76 470.13 L929.23 474.41 L930.36 478.66 L929.39 483.01 L930.23 487.28 L930.07 491.59 L928.50 495.91 L956.01 500.00 L954.06 495.46 L951.97 490.96 L951.58 486.45 L951.82 481.92 L950.13 477.47 L950.48 472.94 L949.94 468.45 L948.43 464.05 L948.99 459.48 L947.91 455.06 L946.44 450.69 L947.19 446.08 L945.74 441.72 L947.30 436.97 L942.76 433.08 L939.02 429.15 L941.77 424.17 L941.96 419.58 L938.73 415.62 L941.68 410.47 L942.80 405.62 L940.84 401.42 L937.77 397.50 L934.05 393.78 L933.84 389.22 L932.43 384.96 L930.33 380.90 L931.68 375.87 L931.50 371.23 L930.14 366.94 L930.65 362.05 L928.32 358.06 L927.61 353.53 L925.39 349.52 L924.27 345.13 L922.43 341.00 L919.67 337.23 L913.77 334.74 L921.48 326.75 L918.47 323.07 L914.26 319.95 L919.73 312.56 L916.00 309.21 L915.92 304.19 L908.54 302.65 L907.64 298.03 L908.86 292.31 L903.05 290.17 L903.47 284.80 L905.58 278.43 L896.92 277.98 L895.22 273.71 L896.06 267.94 L887.11 267.95 L887.23 262.59 L883.08 259.83 L880.47 256.13 L877.37 252.76 L867.02 254.26 L866.14 249.51 L870.06 241.36 L863.97 240.16 L865.08 233.81 L865.16 228.12 L861.57 225.13 L859.84 220.72 L851.95 221.17 L852.59 214.88 L849.54 211.51 L842.27 211.71 L844.99 203.47 L841.95 200.09 L832.74 202.23 L835.77 193.41 L831.15 191.51 L822.55 193.44 L823.58 186.23 L819.11 184.31 L818.13 178.93 L811.82 178.94 L802.47 182.26 L805.30 172.80 L802.18 169.59 L795.09 170.78 L797.89 160.90 L794.46 157.97 L790.28 155.92 L786.84 153.02 L779.14 155.38 L780.38 146.68 L775.08 146.15 L768.47 147.43 L771.38 136.11 L765.41 136.59 L756.76 140.95 L759.48 129.37 L752.90 130.96 L745.44 134.06 L744.33 127.73 L738.36 128.77 L736.68 123.16 L729.57 126.22 L722.25 129.90 L724.46 117.61 L719.90 116.64 L713.68 118.70 L714.94 107.30 L710.25 106.57 L706.55 104.03 L701.42 104.26 L695.39 106.43 L694.50 98.17 L688.13 101.21 L684.12 99.37 L682.92 91.26 L676.80 94.10 L670.87 96.75 L670.22 86.84 L663.89 90.63 L659.85 88.85 L656.10 86.29 L652.31 83.77 L648.44 81.41 L643.56 81.96 L638.89 82.00 L636.07 76.38 L631.29 76.76 L625.59 80.35 L623.21 72.80 L618.49 73.18 L614.58 70.65 L608.85 75.11 L605.17 71.72 L601.43 68.34 L596.27 71.10 L592.56 67.44 L589.11 62.20 L583.49 67.76 L579.20 66.73 L575.30 63.44 L569.76 69.88 L565.94 66.06 L561.20 68.20 L556.82 68.06 L552.44 67.99 L547.10 76.67 L543.04 74.47 L539.52 65.98 L534.85 69.61 L530.88 64.57 L526.69 61.60 L522.25 62.41 L517.95 60.31 L513.32 67.68 L509.10 62.71 L504.73 62.35 L500.34 67.91 L495.95 60.39 L491.56 60.46 L487.41 68.96 L482.77 60.84 L478.49 63.29 L474.59 71.39 L469.90 65.81 L465.72 68.10 L461.14 65.47 L457.24 70.36 L453.88 79.38 L448.67 71.40 L444.33 71.54 L440.81 77.53 L435.26 69.33 L430.96 70.01 L426.83 71.70 L422.63 72.89 L419.64 80.36 L413.94 73.71 L410.37 77.83 L407.20 83.46 L400.50 73.51 L397.25 78.67 L395.11 87.84 L388.10 78.02 L385.36 84.48 L382.92 91.63 L377.43 88.08 L374.70 93.78 L369.29 90.83 L367.08 97.82 L365.34 105.83 L357.60 96.43 L354.14 99.42 L351.89 105.56 L344.19 97.34 L340.75 100.37 L336.57 101.52 L333.63 105.61 L331.46 111.37 L324.85 106.96 L323.42 114.16 L319.39 115.56 L312.70 111.47 L311.18 118.12 L309.39 124.02 L301.26 117.51 L300.26 124.80 L296.38 126.58 L292.10 127.63 L287.93 128.92 L283.90 130.50 L281.12 134.19 L276.75 135.21 L270.73 133.66 L268.07 137.53 L266.14 142.43 L261.18 142.70 L260.25 148.96 L257.58 152.56 L256.85 158.84 L256.72 165.77 L252.75 167.36 L250.57 171.35 L248.07 174.86 L244.40 176.84 L241.89 180.30 L238.94 183.18 L235.86 185.89 L233.62 189.59 L227.11 188.36 L220.37 187.03 L216.33 188.83 L209.39 187.56 L203.76 187.82 L200.27 190.40 L196.18 192.39 L195.09 197.40 L193.00 201.36 L191.95 206.27 L193.66 213.70 L192.08 217.94 L194.05 225.32 L196.25 232.73 L191.45 233.94 L190.24 238.25 L188.37 241.96 L184.48 244.02 L182.95 247.99 L180.69 251.37 L178.12 254.50 L176.12 258.06 L170.19 258.72 L168.45 262.50 L165.56 265.46 L162.72 268.47 L160.71 272.05 L156.44 274.13 L150.62 275.27 L148.20 278.66 L141.59 279.47 L141.90 284.57 L142.42 289.72 L142.11 294.33 L146.88 301.74 L146.81 306.32 L144.80 309.81 L145.65 314.80 L143.84 318.37 L140.39 321.12 L140.68 325.72 L137.84 328.80 L136.26 332.48 L134.55 336.10 L124.66 336.15 L119.98 338.62 L114.66 340.89 L107.74 342.60 L104.05 345.70 L100.37 348.85 L101.70 353.89 L102.73 358.76 L101.23 362.70 L107.71 369.30 L109.58 374.25 L111.61 379.18 L118.19 385.40 L116.80 389.15 L116.46 393.19 L114.93 396.91 L111.90 400.24 L109.39 403.75 L109.84 407.99 L108.59 411.82 L107.19 415.62 L107.72 419.83 L107.62 423.89 L104.03 427.29 L99.25 430.55 L97.64 434.41 L95.80 438.25 L88.00 441.27 L88.75 445.57 L90.04 449.90 L88.28 453.86 L92.59 458.47 L94.44 462.75 L98.48 467.17 L103.17 471.54 L103.32 475.54 L104.13 479.56 L106.06 483.61 L105.79 487.54 L105.78 491.49 L105.93 495.43 L106.38 499.37 L105.69 503.32 L101.09 507.34 L96.04 511.48 L94.41 515.59 L89.28 519.90 L86.37 524.19 L85.97 528.37 L85.05 532.60 L88.14 536.51 L89.72 540.51 L93.22 544.27 L98.92 547.71 L101.18 551.49 L106.08 554.87 L111.84 558.03 L111.39 562.08 L108.79 566.51 L105.76 571.09 L104.75 575.36 L100.62 580.30 L99.36 584.73 L103.40 588.03 L102.49 592.41 L103.42 596.38 L106.18 599.89 L106.10 604.11 L106.99 608.09 L108.78 611.82 L109.62 615.82 L110.80 619.72 L114.27 622.88 L112.59 627.70 L117.76 630.25 L123.06 632.66 L126.13 635.80 L132.75 637.57 L137.17 640.06 L137.91 643.96 L142.62 646.24 L144.69 649.56 L145.12 653.57 L148.07 656.49 L148.93 660.33 L148.79 664.66 L150.40 668.19 L145.25 675.06 L143.64 680.31 L142.58 685.35 L140.15 691.20 L140.26 695.79 L140.36 700.42 L145.11 702.45 L149.42 704.66 L151.59 708.09 L159.91 707.77 L164.64 709.51 L169.43 711.14 L175.97 711.56 L178.96 714.21 L183.53 715.77 L184.20 719.97 L186.12 723.33 L187.83 726.84 L189.29 730.57 L190.81 734.27 L192.88 737.58 L194.80 741.01 L198.67 742.88 L200.36 746.50 L203.16 749.21 L205.29 752.49 L209.58 753.90 L206.99 761.38 L210.13 763.83 L212.94 766.57 L211.25 773.57 L215.63 774.87 L217.33 778.75 L224.54 777.12 L225.88 781.34 L226.57 786.31 L232.10 786.19 L233.13 790.88 L232.90 797.04 L239.87 795.16 L242.62 798.00 L244.24 802.18 L252.07 798.95 L252.89 804.09 L257.58 804.49 L260.15 807.52 L263.65 809.37 L269.99 807.39 L272.16 810.92 L271.93 817.86 L276.91 817.57 L278.16 822.60 L280.72 825.82 L284.77 826.81 L287.29 830.12 L294.48 826.07 L295.17 832.30 L298.88 833.71 L305.50 830.15 L304.36 839.80 L307.76 841.76 L315.33 836.13 L314.61 845.57 L319.11 845.44 L325.92 840.69 L326.78 847.53 L331.24 847.24 L333.21 852.10 L338.68 849.55 L344.47 846.05 L344.94 854.44 L348.96 854.88 L354.05 852.67 L354.67 861.36 L358.81 861.47 L362.92 861.55 L366.66 862.59 L372.59 857.48 L373.56 866.27 L378.07 865.02 L382.96 862.40 L383.49 873.47 L388.22 871.35 L394.13 864.90 L395.11 875.49 L400.13 871.83 L405.32 867.15 L408.11 871.63 L412.44 869.98 L415.40 874.11 L420.15 870.30 L424.48 868.04 L426.71 876.24 L430.70 875.73 L435.31 871.53 L437.65 880.57 L441.90 878.34 L445.59 879.56 L449.78 877.14 L454.02 873.84 L457.08 880.24 L461.41 875.60 L465.07 877.00 L468.35 883.33 L472.53 878.82 L476.58 874.84 L479.92 883.03 L483.99 877.53 L487.75 877.96 L491.52 878.80 L495.29 880.46 L499.09 880.60 L502.88 878.92 L506.65 877.80 L510.55 882.04 L514.29 879.65 L517.90 875.67 L521.96 880.74 L525.60 878.13 L529.52 879.66 L532.80 873.45 L536.81 875.93 L540.80 877.64 L544.06 872.89 L548.27 876.22 L552.55 879.48 L555.36 872.29 L559.30 873.13 L563.35 874.43 L565.82 866.70 L570.20 869.79 L573.16 865.37 L576.31 862.26 L579.44 859.28 L581.92 853.69 L585.79 854.22 L590.92 859.66 L594.40 858.31 L599.54 863.02 L603.33 862.60 L606.54 860.16 L610.47 860.18 L611.94 852.35 L617.07 856.11 L620.37 854.17 L621.91 847.28 L628.46 854.53 L631.77 852.62 L632.29 843.51 L638.94 850.29 L641.64 846.94 L642.46 839.21 L647.93 842.61 L650.54 839.27 L655.13 840.41 L656.79 835.12 L658.00 829.10 L664.32 833.65 L667.26 831.22 L668.70 825.94 L675.36 830.67 L677.82 827.35 L680.34 824.22 L683.33 821.98 L683.70 815.25 L690.61 819.72 L692.03 814.90 L693.70 810.60 L701.99 816.80 L703.19 811.76 L702.11 803.42 L710.53 809.32 L710.40 802.57 L710.36 796.15 L715.46 797.00 L715.77 791.25 L721.61 792.97 L721.23 786.46 L720.22 779.33 L729.53 785.23 L731.60 781.99 L730.66 775.18 L739.85 780.41 L741.48 776.66 L744.47 774.49 L745.05 769.67 L745.82 765.14 L752.54 766.98 L752.00 761.13 L755.46 759.47 L761.94 760.78 L761.34 755.03 L760.27 748.95 L768.05 751.31 L766.50 744.90 L769.67 742.89 L772.05 740.14 L776.11 738.86 L778.73 736.29 L779.31 732.02 L782.76 730.15 L788.46 730.03 L789.10 725.85 L789.35 721.42 L792.79 719.45 L791.03 713.62 L792.05 709.90 L790.00 704.06 L786.63 697.44 L789.39 695.10 L789.54 691.02 L789.85 687.09 L792.73 684.83 L793.90 681.48 L795.49 678.40 L797.68 675.69 L798.04 671.91 L805.14 671.96 L811.56 671.50 L814.67 669.13 L821.64 668.75 L826.59 667.21 L828.97 664.29 L831.48 661.43 L830.59 656.92 L831.53 653.33 L829.92 648.60 L825.64 642.77 L825.43 638.81 L820.86 633.09 L816.40 627.54 L820.75 625.58 L824.84 623.45 L829.70 621.54 L834.59 619.56 L840.63 617.89 L843.39 615.01 L841.90 610.72 L844.64 607.81 L845.22 604.22 L844.82 600.34 L846.75 597.16 L847.53 593.64 L847.70 589.96 L849.44 586.70 L849.99 583.12 L848.58 579.12 L852.43 576.29 L848.16 571.73 L844.71 567.43 L843.37 563.61 L836.45 558.86 L835.50 555.24 L836.06 551.89 L833.92 548.14 L834.86 544.86 L836.39 541.65 L834.30 538.00 L836.14 534.81 L836.00 531.40 L836.04 528.02 L845.58 525.34 L849.13 522.09 L853.23 518.80 L858.91 515.51 L861.35 512.00 L863.85 508.44 L860.66 504.76 L858.07 501.14 L858.07 497.56 L850.38 494.11 L847.43 490.68 L843.55 487.35 L836.05 484.26 L835.32 480.93 L832.88 477.73 L834.15 474.28 L833.59 470.97 L835.50 467.42 L834.75 464.11 L832.17 461.02 L833.90 457.43 L834.20 453.99 L831.88 450.92 L834.93 447.04 L839.51 442.83 L839.86 439.27 L839.68 435.79 L845.80 431.05 L843.92 427.84 L841.74 424.72 L841.61 421.16 L836.05 418.90 L833.33 416.02 L828.02 413.86 L822.52 411.85 L821.16 408.76 L818.84 405.96 L816.81 403.11 L815.81 399.94 L812.96 397.39 L812.52 394.06 L811.17 391.04 L808.26 388.59 L813.39 383.18 L817.12 378.16 L817.71 374.28 L821.99 368.84 L823.91 364.27 L823.12 360.78 L822.54 357.19 L818.69 355.07 L816.52 352.22 L811.46 350.77 L804.68 350.26 L801.91 347.85 L794.28 347.99 L787.84 347.65 L788.25 343.72 L784.34 342.14 L782.29 339.56 L781.76 336.11 L779.18 333.86 L778.22 330.64 L776.66 327.77 L773.34 326.03 L776.39 320.17 L773.50 318.13 L770.44 316.24 L770.06 312.53 L766.47 311.04 L763.44 309.20 L761.93 306.28 L760.55 303.23 L760.52 299.13 L759.69 295.61 L758.67 292.18 L754.86 291.02 L750.18 290.64 L747.05 289.02 L741.99 289.12 L741.03 285.67 L738.94 283.22 L734.92 282.55 L734.56 278.48 L732.13 276.34 L729.50 274.41 L728.34 271.01 L724.94 269.87 L724.01 266.19 L723.52 261.97 L720.98 259.92 L717.98 258.37 L716.71 254.89 L713.64 253.44 L709.48 253.29 L708.35 249.59 L705.34 248.13 L701.96 247.15 L700.98 243.16 L699.20 240.12 L696.39 238.41 L693.54 236.77 L689.52 236.75 L684.92 237.66 L681.18 237.42 L676.61 238.49 L671.91 239.87 L671.03 235.49 L669.66 231.77 L667.09 229.89 L666.52 224.70 L665.32 220.40 L661.74 220.10 L657.16 221.65 L659.36 211.03 L655.33 211.56 L651.98 210.89 L651.98 203.73 L648.36 203.54 L646.28 200.23 L640.48 204.65 L638.97 200.13 L636.58 197.40 L631.81 200.00 L630.17 195.51 L628.52 190.84 L622.77 196.15 L620.39 193.22 L618.19 189.76 L612.75 194.89 L610.79 190.72 L606.94 191.80 L604.05 190.15 L600.37 190.92 L594.92 197.43 L592.94 193.01 L591.23 187.42 L587.10 190.11 L585.44 183.90 L582.52 182.10 L579.06 182.42 L576.20 180.31 L571.55 185.92 L569.52 180.08 L566.13 180.31 L561.83 185.28 L560.26 176.16 L556.72 177.31 L552.20 184.50 L550.37 175.49 L546.72 177.74 L542.57 184.17 L540.17 177.68 L536.65 179.88 L533.76 176.46 L530.04 181.30 L526.32 187.38 L523.84 178.39 L520.52 179.68 L517.07 184.15 L514.30 174.98 L511.01 176.03 L507.74 177.15 L504.51 177.27 L501.26 183.33 L498.05 175.26 L494.86 179.18 L491.73 182.21 L488.20 172.51 L485.15 177.58 L482.36 185.35 L478.50 174.86 L475.64 180.13 L472.93 186.11 L469.49 183.18 L466.62 186.34 L463.07 183.09 L460.82 190.74 L458.21 194.66 L453.69 185.14 L450.93 188.06 L448.61 193.28 L443.76 183.77 L440.95 186.23 L437.67 186.08 L435.26 190.23 L432.59 192.81 L428.37 188.51 L426.76 195.46 L423.19 194.12 L418.84 189.94 L417.20 196.12 L415.10 200.26 L409.94 193.77 L408.46 199.85 L405.17 199.86 L402.05 200.43 L398.69 200.33 L395.50 200.79 L393.25 203.90 L390.90 206.61 L386.17 203.02 L384.03 206.26 L382.35 210.52 L377.67 207.42 L375.60 210.62 L371.88 210.00 L371.65 217.18 L367.36 215.32 L363.73 215.00 L362.21 219.08 L357.95 217.58 L353.58 215.99 L353.76 223.18 L350.38 223.51 L347.25 224.35 L347.95 231.97 L343.40 230.27 L342.03 234.08 L339.13 235.26 L337.27 238.13 L338.57 245.93 L334.16 244.66 L328.96 242.33 L328.30 246.87 L322.53 243.91 L319.45 244.95 L317.50 247.60 L314.22 248.40 L315.66 255.50 L310.10 253.30 L308.66 256.50 L309.73 262.79 L301.36 257.36 L300.30 260.98 L302.99 268.93 L294.52 263.83 L294.25 268.25 L296.50 275.34 L289.93 272.70 L289.82 277.09 L285.01 276.51 L286.51 282.47 L289.07 289.33 L280.67 285.28 L279.87 288.76 L281.15 294.16 L272.54 290.31 L271.02 293.10 L270.16 296.46 L268.51 299.10 L270.66 304.95 L262.84 302.35 L263.70 307.04 L263.81 311.03 L254.56 307.63 L256.45 313.01 L260.61 319.98 L250.52 316.27 L253.30 322.10 L255.76 327.55 L250.96 327.87 L253.13 332.99 L247.32 332.72 L251.23 338.86 L254.96 344.74 L243.39 340.98 L243.77 344.74 L247.09 350.19 L236.04 347.19 L236.04 350.69 L233.72 352.87 L235.58 357.33 L236.55 361.24 L229.37 360.90 L232.14 365.69 L229.54 367.75 L223.56 368.24 L226.40 372.94 L229.60 377.69 L221.47 377.36 L227.87 383.41 L227.44 386.44 L225.18 388.71 L229.88 393.74 L227.78 396.05 L227.63 399.10 L232.03 403.76 L218.49 402.07 L218.19 405.12 L219.08 408.53 L215.43 410.48 L217.30 414.16 L217.78 417.38 L223.84 422.15 L228.22 426.31 L223.62 428.02 L225.58 431.45 L225.38 434.31 L212.77 434.33 L213.02 437.40 L210.47 439.87 L208.58 442.51 L211.39 446.06 L213.18 449.35 L218.41 453.18 L219.92 456.30 L219.51 459.10 L218.21 461.79 L217.55 464.57 L209.61 466.52 L208.75 469.37 L206.65 472.11 L207.40 475.13 L209.63 478.25 L211.95 481.31 L219.47 484.62 L222.87 487.58 L218.61 490.21 L222.40 493.12 L217.18 495.82 L208.99 498.61 L209.51 501.52 L200.44 504.56 L199.59 507.58 L200.69 510.55 L199.80 513.59 L204.35 516.34 L209.51 518.97 L212.80 521.64 L216.40 524.23 L215.89 527.14 L213.19 530.29 L214.10 533.09 L205.18 537.11 L210.57 539.38 L215.51 541.61 L215.27 544.55 L225.43 545.78 L228.10 548.14 L228.12 550.94 L231.44 553.10 L222.32 557.80 L219.92 561.23 L221.16 563.88 L216.86 567.86 L221.78 569.63 L224.48 571.89 L229.70 573.42 L234.26 575.04 L234.96 577.71 L236.96 579.99 L236.97 582.87 L230.99 587.72 L229.86 591.09 L232.82 593.08 L229.22 597.38 L234.01 598.67 L235.74 601.05 L242.31 601.50 L249.65 601.51 L247.84 605.20 L250.07 607.21 L252.89 608.94 L242.73 616.50 L243.71 619.17 L243.75 622.28 L236.87 628.80 L238.82 631.11 L239.39 634.10 L243.34 635.33 L248.48 635.85 L254.28 635.91 L257.41 637.36 L263.45 637.08 L259.15 642.81 L259.72 645.74 L262.01 647.63 L261.28 651.41 L265.39 652.11 L268.11 653.67 L275.58 651.96 L281.30 651.30 L279.63 655.74 L283.46 656.31 L285.06 658.44 L277.05 667.81 L279.34 669.57 L276.02 675.71 L274.52 680.57 L277.13 682.16 L278.42 684.83 L282.98 684.74 L287.75 684.37 L292.29 684.10 L296.32 684.21 L300.02 684.52 L298.08 690.08 L299.89 692.19 L297.30 698.62 L300.76 699.17 L306.36 697.48 L307.72 700.06 L315.70 695.64 L321.98 692.79 L322.53 696.09 L326.65 695.43 L324.72 701.64 L322.05 708.89 L324.29 710.49 L320.50 719.45 L322.02 722.10 L324.85 723.10 L326.06 726.18 L330.99 724.37 L335.70 722.72 L339.24 722.55 L343.90 720.72 L348.74 718.47 L350.80 720.17 L354.32 719.68 L356.67 720.89 L358.68 722.65 L361.82 722.58 L364.40 723.38 L367.59 723.13 L369.57 724.88 L371.65 726.49 L374.30 727.08 L375.19 730.89 L376.52 734.00 L378.95 735.04 L380.61 737.63 L382.76 739.29 L385.50 739.73 L388.85 738.84 L391.01 740.44 L393.34 741.72 L396.41 741.27 L398.34 743.45 L401.48 742.72 L403.79 744.02 L406.80 743.48 L409.29 744.26 L412.11 744.13 L414.43 745.34 L417.16 745.40 L419.86 745.46 L422.04 747.13 L424.74 747.17 L427.11 748.25 L428.93 751.33 L431.57 751.58 L433.85 753.17 L436.51 753.31 L439.22 753.21 L441.37 755.49 L443.86 756.37 L446.44 756.85 L448.62 759.34 L451.18 760.04 L453.81 760.36 L456.59 759.80 L459.32 759.35 L461.88 760.03 L464.61 759.42 L467.26 759.32 L469.78 760.32 L472.41 760.40 L475.00 760.79 L477.61 761.06 L480.28 760.38 L482.94 759.76 L485.58 759.27 L488.21 758.62 L490.82 758.05 L493.41 757.69 L495.99 757.44 L498.57 757.29 L501.14 756.86 L503.70 756.30 L506.26 756.13 L508.82 756.02 L511.36 755.55 L513.92 755.50 L516.47 755.30 L518.99 754.74 L521.52 754.27 L524.00 753.45 L526.44 752.30 L528.89 751.34 L531.31 750.31 L533.78 749.81 L536.23 749.12 L538.70 748.60 L541.17 748.14 L543.62 747.53 L545.97 746.44 L548.08 744.15 L550.23 742.27 L552.64 741.72 L554.98 740.86 L557.51 740.81 L560.46 742.41 L563.42 743.87 L566.13 744.23 L568.52 743.38 L571.00 742.85 L573.12 741.15 L575.30 739.66 L577.54 738.44 L579.74 737.10 L582.18 736.50 L584.53 735.64 L586.69 734.27 L588.87 732.96 L591.03 731.64 L593.22 730.44 L595.42 729.25 L597.46 727.70 L599.56 726.31 L601.74 725.14 L603.82 723.75 L606.04 722.68 L608.02 721.11 L610.15 719.88 L612.41 718.89 L614.49 717.56 L616.63 716.35 L618.72 715.05 L620.78 713.70 L623.09 712.79 L625.28 711.67 L627.37 710.37 L629.44 709.04 L631.52 707.73 L633.51 706.27 L635.37 704.64 L637.13 702.86 L638.90 701.11 L640.82 699.60 L642.72 698.06 L644.67 696.59 L645.90 694.15 L647.74 692.57 L649.85 691.33 L651.30 689.24 L653.64 688.28 L656.24 687.61 L658.36 686.33 L660.08 684.58 L661.73 682.76 L663.10 680.64 L664.27 678.32 L666.21 676.84 L668.12 675.33 L669.78 673.55 L671.77 672.11 L673.47 670.36 L674.97 668.44 L676.46 666.50 L677.83 664.47 L679.23 662.46 L680.60 660.45 L681.90 658.37 L683.40 656.48 L684.71 654.44 L685.95 652.34 L687.64 650.62 L689.15 648.74 L690.36 646.63 L692.05 644.90 L693.56 643.02 L694.83 640.97 L695.97 638.84 L696.68 636.40 L697.63 634.16 L698.28 631.72 L698.73 629.17 L700.38 627.41 L701.01 625.01 L702.17 622.94 L703.67 621.09 L704.48 618.81 L705.73 616.81 L705.07 613.74 L704.52 610.77 L706.54 609.21 L707.24 606.94 L708.41 604.92 L711.86 604.01 L714.29 602.56 L715.41 600.46 L716.21 598.21 L716.72 595.84 L716.90 593.34 L717.13 590.87 L717.49 588.48 L718.96 586.54 L719.71 584.30 L720.53 582.10 L721.67 580.00 L722.14 577.67 L722.82 575.42 L723.55 573.18 L723.32 570.64 L724.25 568.48 L724.24 566.03 L724.13 563.57 L725.03 561.40 L725.37 559.08 L725.54 556.72 L725.90 554.41 L726.16 552.09 L726.74 549.84 L727.30 547.59 L727.13 545.18 L728.31 543.05 L729.16 540.84 L729.40 538.52 L729.77 536.22 L729.91 533.89 L730.47 531.63 L730.56 529.29 L730.26 526.92 L730.81 524.64 L730.62 522.29 L730.33 519.94 L731.17 517.69 L731.46 515.38 L730.69 513.02 L730.64 510.70 L731.38 508.42 L732.08 506.12 L732.26 503.80 L733.36 501.49 L733.79 499.15 L732.41 496.83 L731.99 494.52 L731.29 492.22 L729.74 489.97 L730.13 487.65 L730.20 485.33 L729.75 483.05 L730.09 480.71 L729.57 478.44 L728.57 476.23 L728.25 473.95 L727.24 471.76 L726.54 469.55 L726.53 467.24 L725.67 465.06 L724.66 462.91 L724.71 460.59 L723.54 458.48 L723.24 456.23 L722.55 454.05 L721.77 451.89 L722.22 449.46 L722.07 447.15 L720.93 445.09 L720.39 442.87 L719.72 440.70 L718.37 438.71 L717.45 436.62 L715.81 434.74 L715.24 432.56 L714.61 430.40 L713.48 428.39 L712.73 426.27 L712.25 424.05 L711.15 422.06 L709.14 420.41 L707.02 418.84 L706.21 416.77 L705.40 414.70 L704.79 412.54 L705.41 409.84 L706.33 406.96 L706.09 404.58 L703.96 403.07 L702.69 401.18 L700.35 399.83 L698.16 398.43 L696.70 396.69 L695.18 394.98 L694.05 393.07 L694.09 390.50 L692.19 389.03 L690.34 387.55 L690.07 385.12 L688.43 383.53 L686.25 382.29 L685.43 380.19 L683.34 378.93 L681.44 377.56 L680.45 375.59 L678.87 374.02 L677.83 372.07 L677.18 369.83 L675.22 368.55 L674.45 366.38 L673.01 364.71 L670.88 363.61 L669.79 361.68 L667.88 360.42 L666.01 359.13 L665.05 357.09 L662.73 356.23 L661.22 354.66 L660.25 352.61 L657.99 351.74 L656.58 350.09 L655.41 348.21 L653.06 347.48 L651.84 345.64 L650.65 343.76 L647.88 343.52 L646.44 341.91 L645.35 339.91 L643.20 339.07 L642.03 337.14 L640.58 335.51 L639.15 333.84 L637.23 332.77 L635.15 331.90 L633.10 331.02 L631.15 330.03 L629.56 328.57 L628.00 327.06 L626.28 325.77 L624.76 324.19 L623.07 322.84 L620.77 322.39 L618.99 321.19 L616.83 320.57 L614.64 320.02 L612.43 319.53 L610.41 318.77 L608.37 318.05 L606.33 317.34 L604.26 316.70 L602.60 315.36 L600.52 314.76 L598.49 314.08 L596.86 312.66 L594.82 312.01 L592.81 311.34 L590.86 310.54 L588.63 310.35 L586.63 309.70 L584.54 309.24 L582.31 309.15 L580.59 307.86 L578.46 307.57 L576.55 306.75 L574.59 306.05 L572.52 305.66 L570.61 304.85 L568.30 305.17 L565.82 306.06 L563.93 305.25 L561.91 304.83 L559.69 305.10 L558.18 302.99 L556.46 301.54 L554.53 300.79 L552.60 300.01 L550.50 299.87 L548.36 299.94 L546.35 299.48 L544.26 299.43 L542.26 298.95 L540.15 299.01 L538.16 298.50 L536.14 298.15 L533.98 298.64 L531.98 298.18 L529.94 298.01 L527.81 298.55 L525.79 298.30 L523.70 298.69 L521.56 299.55 L519.60 298.87 L517.58 298.79 L515.54 299.01 L513.54 298.78 L511.54 298.42 L509.51 298.44 L507.50 298.32 L505.47 298.85 L503.46 298.59 L501.44 299.00 L499.43 298.99 L497.42 298.86 L495.42 299.37 L493.40 298.96 L491.39 299.14 L489.42 299.99 L487.42 299.99 L485.44 300.41 L483.51 301.34 L481.49 301.15 L479.48 301.16 L477.54 301.80 L475.57 302.08 L473.49 301.59 L471.52 301.98 L469.52 302.10 L467.46 301.95 L465.52 302.48 L463.73 303.82 L461.92 304.95 L460.11 306.02 L458.36 307.32 L456.50 308.03 L454.53 308.23 L452.68 308.96 L450.65 308.99 L448.83 309.83 L447.06 310.81 L445.14 311.23 L443.40 312.27 L441.53 312.85 L439.80 313.90 L438.11 314.99 L436.29 315.72 L434.55 316.63 L432.79 317.49 L430.82 317.77 L429.16 318.89 L427.40 319.71 L425.33 319.81 L423.75 321.06 L422.01 321.94 L420.22 322.70 L418.68 324.00 L416.91 324.79 L415.36 326.04 L413.92 327.49 L412.23 328.43 L410.95 330.13 L409.43 331.34 L407.86 332.46 L406.50 333.95 L404.81 334.83 L403.58 336.51 L402.76 338.81 L401.02 339.58 L399.08 340.04 L397.30 340.77 L394.59 340.10 L391.91 339.55 L389.44 339.38 L389.00 342.14 L387.85 343.84 L386.72 345.55 L386.61 348.60 L385.49 350.25 L383.74 351.07 L382.37 352.38 L380.70 353.32 L379.41 354.73 L378.42 356.48 L377.17 357.91 L375.89 359.30 L375.16 361.29 L373.92 362.71 L372.71 364.14 L371.89 365.98 L370.65 367.36 L369.33 368.66 L368.37 370.31 L367.30 371.85 L366.13 373.28 L365.07 374.82 L364.03 376.36 L363.19 378.07 L361.82 379.30 L360.96 380.98 L359.89 382.47 L358.88 384.01 L357.82 385.50 L357.05 387.22 L355.95 388.67 L355.12 390.33 L353.93 391.70 L353.21 393.43 L352.14 394.90 L351.26 396.49 L350.75 398.34 L350.34 400.23 L348.89 401.43 L347.50 402.69 L346.42 404.15 L344.06 404.83 L342.16 405.82 L340.84 407.18 L340.05 408.85 L339.36 410.57 L338.81 412.37 L338.21 414.12 L337.45 415.80 L336.51 417.37 L335.69 419.01 L335.01 420.71 L334.55 422.52 L334.45 424.48 L334.30 426.41 L334.13 428.31 L334.29 430.34 L334.17 432.23 L333.53 433.90 L333.10 435.66 L332.60 437.38 L332.28 439.16 L331.78 440.88 L331.27 442.59 L330.87 444.33 L330.25 446.01 L329.82 447.74 L329.63 449.54 L329.54 451.36 L329.75 453.25 L330.06 455.16 L330.25 457.02 L330.72 458.94 L330.39 460.65 L330.47 462.45 L330.43 464.22 L330.15 465.93 L330.37 467.73 L330.97 469.60 L332.55 471.61 L333.81 473.53 L333.17 475.13 L332.77 476.78 L331.63 478.34 L329.05 479.74 L326.59 481.21 L326.97 482.99 L327.28 484.77 L326.81 486.47 L327.94 488.29 L328.00 490.02 L327.86 491.74 L326.69 493.42 L326.20 495.14 L326.27 496.88 L326.26 498.62 L326.94 500.35 L326.73 502.09 L326.70 503.82 L327.46 505.53 L327.64 507.25 L328.28 508.94 L329.31 510.60 L329.73 512.29 L330.15 513.97 L331.21 515.58 L331.41 517.26 L331.75 518.93 L332.77 520.51 L333.46 522.12 L334.32 523.69 L334.92 525.29 L334.75 527.01 L335.39 528.60 L335.34 530.31 L335.42 532.00 L335.96 533.60 L336.62 535.17 L337.31 536.73 L338.25 538.22 L339.20 539.70 L339.54 541.32 L339.72 542.99 L339.91 544.66 L340.75 546.14 L341.70 547.59 L342.33 549.13 L342.98 550.65 L343.71 552.15 L344.31 553.68 L345.39 555.05 L346.02 556.56 L346.64 558.08 L348.01 559.31 L348.40 560.91 L348.61 562.59 L349.32 564.07 L349.66 565.71 L350.23 567.25 L351.15 568.63 L351.56 570.25 L352.45 571.65 L353.33 573.04 L354.63 574.22 L355.87 575.41 L357.06 576.62 L358.06 577.92 L359.01 579.24 L359.94 580.57 L360.71 582.00 L362.28 582.94 L364.03 583.74 L365.19 584.90 L366.61 585.88 L367.63 587.11 L368.70 588.30 L369.48 589.69 L370.04 591.23 L370.99 592.50 L371.86 593.83 L372.50 595.34 L373.90 596.27 L375.01 597.41 L376.46 598.28 L378.37 598.77 L379.87 599.56 L382.43 599.44 L384.86 599.37 L384.23 601.95 L384.94 603.39 L385.49 604.98 L383.65 608.83 L383.31 611.36 L383.24 613.68 L385.55 613.69 L387.61 613.89 L389.04 614.72 L392.09 613.82 L394.62 613.40 L395.45 614.79 L396.92 615.47 L398.12 616.45 L399.21 617.56 L400.79 618.09 L401.71 619.39 L403.23 619.97 L404.86 620.39 L405.66 621.87 L407.23 622.35 L408.83 622.77 L409.66 624.23 L411.26 624.62 L412.84 625.04 L414.35 625.54 L415.94 625.88 L417.16 626.78 L418.51 627.49 L419.88 628.15 L420.66 629.77 L422.24 630.09 L423.75 630.51 L425.18 631.05 L426.99 630.90 L428.05 632.10 L429.58 632.42 L430.92 633.09 L431.94 634.39 L433.53 634.59 L435.04 634.91 L436.10 636.18 L437.68 636.32 L439.06 636.92 L440.48 637.41 L442.08 637.47 L443.34 638.33 L444.90 638.46 L446.53 638.37 L447.70 639.46 L449.33 639.35 L450.78 639.68 L452.54 639.13 L454.16 638.91 L455.68 638.96 L457.34 638.51 L458.78 638.75 L460.25 638.88 L461.68 639.12 L463.20 639.01 L464.67 639.09 L466.23 638.75 L467.75 638.49 L469.32 637.98 L470.71 638.28 L472.17 638.15 L473.57 638.35 L474.96 638.56 L476.28 639.23 L477.75 638.97 L479.04 639.87 L480.52 639.52 L481.89 639.85 L483.31 639.86 L484.65 640.59 L486.12 640.07 L487.50 640.42 L488.91 640.55 L490.34 640.24 L491.74 640.41 L493.18 639.85 L494.56 640.19 L495.98 639.65 L497.39 639.32 L498.78 638.74 L500.17 638.48 L501.55 637.60 L502.92 637.23 L504.27 636.67 L505.63 636.43 L506.97 635.99 L508.31 635.51 L509.65 635.29 L510.96 634.66 L512.32 634.69 L513.62 634.10 L514.92 633.58 L516.23 633.23 L517.59 633.26 L518.83 632.42 L520.17 632.32 L521.41 631.61 L522.68 631.17 L523.91 630.48 L525.18 630.06 L526.32 629.04 L527.79 629.60 L529.01 628.98 L530.32 628.78 L531.65 628.63 L532.81 627.85 L534.10 627.55 L535.25 626.76 L536.35 625.82 L537.41 624.80 L538.62 624.29 L539.60 623.11 L540.72 622.35 L541.78 621.49 L543.03 621.16 L544.07 620.26 L545.18 619.59 L546.09 618.40 L547.09 617.47 L548.02 616.42 L548.99 615.47 L549.91 614.44 L550.91 613.61 L551.94 612.89 L552.86 611.93 L553.90 611.24 L554.84 610.35 L555.77 609.46 L556.68 608.55 L557.64 607.75 L558.54 606.84 L559.48 606.02 L560.39 605.17 L561.31 604.34 L562.23 603.53 L563.11 602.65 L563.99 601.79 L564.82 600.86 L565.64 599.91 L566.45 598.97 L567.28 598.08 L568.07 597.14 L568.87 596.21 L569.72 595.37 L570.52 594.48 L571.34 593.60 L572.14 592.72 L572.96 591.86 L573.74 590.96 L574.45 589.98 L575.21 589.07 L575.92 588.11 L576.62 587.14 L577.29 586.15 L578.00 585.21 L578.73 584.31 L579.44 583.37 L580.16 582.46 L580.89 581.56 L581.57 580.63 L582.23 579.66 L582.87 578.69 L583.46 577.68 L584.02 576.65 L584.64 575.68 L585.22 574.68 L585.75 573.64 L586.36 572.68 L586.91 571.66 L587.41 570.62 L587.97 569.63 L588.51 568.63 L589.01 567.60 L589.55 566.61 L590.07 565.61 L590.52 564.56 L591.00 563.54 L591.43 562.49 L591.84 561.43 L592.29 560.40 L592.70 559.36 L593.05 558.28 L593.47 557.25 L593.87 556.21 L594.23 555.16 L594.61 554.11 L594.94 553.05 L595.28 552.00 L595.57 550.92 L595.86 549.85 L596.16 548.79 L596.42 547.72 L596.69 546.65 L596.94 545.58 L597.21 544.53 L597.45 543.47 L597.72 542.42 L597.96 541.36 L598.19 540.31 L598.40 539.25 L598.60 538.19 L598.77 537.13 L598.93 536.06 L599.07 534.99 L599.19 533.93 L599.32 532.86 L599.43 531.80 L599.54 530.74 L599.67 529.69 L599.78 528.64 L599.86 527.59 L599.94 526.54 L600.02 525.49 L600.05 524.44 L600.09 523.39 L600.12 522.34 L600.12 521.29 L600.12 520.25 L600.10 519.21 L600.08 518.17 L600.06 517.13 L600.03 516.10 L599.98 515.07 L599.93 514.04 L599.87 513.01 L599.80 511.99 L599.72 510.97 L599.62 509.95 L599.52 508.94 L599.40 507.92 L599.27 506.92 L599.13 505.91 L598.99 504.91 L598.83 503.91 L598.67 502.92 L598.49 501.93 L598.31 500.94 Z"/>
  <svg class="pausebutton" id="pausebutton">
    <circle cx="500" cy="500" id="pausestart" class="pausestart" r="52.65"/>
    <rect height="50.02" width="10.00" y="473.68" rx="2.00" ry="2.00" x="479.99" class="pausesymbol"/>
    <rect height="50.02" width="10.00" y="473.68" rx="2.00" ry="2.00" x="510.00" class="pausesymbol"/>
    <polygon points="530.01,500 479.99,530.01 479.99,469.99" class="playsymbol"/>
  </svg>
  <polygon id="playback-head" class="playback-head" points="941.65,500 921.65,540 961.65,540"/>
</svg>