<?xml-stylesheet href="../../style/waveformjs.css" type="text/css"?>
<svg xmlns="http://www.w3.org/2000/svg" xmlns:xlink="http://www.w3.org/1999/xlink" width="100%" height="100%" viewBox="0 0 1000 1000">
  <path class="svg-wave" id="sp" d="M598.04 500.00 L598.21 500.98 L598.38 501.97 L598.53 502.96 L598.68 503.95 L598.81 504.94 L598.94 505.94 L599.05 506.94 L599.15 507.95 L599.24 508.96 L599.31 509.96 L599.36 510.97 L599.39 511.98 L599.40 513.00 L599.38 514.01 L599.19 514.99 L596.89 515.64 L588.65 515.22 L576.92 514.00 L572.19 513.88 L567.21 513.62 L564.57 513.76 L573.42 516.42 L576.43 517.90 L586.64 521.20 L594.47 524.12 L593.23 524.80 L595.25 526.36 L595.11 527.35 L590.82 527.10 L584.67 526.19 L574.66 523.92 L569.62 523.07 L564.97 522.25 L566.21 523.42 L573.84 526.95 L577.58 529.20 L590.14 534.96 L597.43 538.91 L597.19 539.95 L596.94 540.99 L596.67 542.01 L596.20 542.96 L594.38 543.29 L592.03 543.33 L590.77 543.85 L587.53 543.36 L576.82 539.02 L569.55 536.21 L566.86 535.66 L562.83 534.32 L569.53 538.89 L570.72 540.49 L576.62 544.89 L588.56 553.09 L587.09 553.39 L586.94 554.51 L588.36 556.64 L585.58 556.07 L580.24 553.73 L572.50 549.60 L566.53 546.50 L561.10 543.62 L555.42 540.41 L557.24 542.62 L558.48 544.46 L560.29 546.80 L564.18 550.85 L565.23 552.75 L565.51 554.07 L565.15 554.87 L564.76 555.66 L566.25 558.10 L570.82 563.38 L570.32 564.20 L571.86 566.94 L569.94 566.48 L562.00 560.12 L558.10 557.48 L554.07 554.57 L554.80 556.42 L559.33 562.32 L561.03 565.41 L568.17 574.54 L570.92 579.12 L569.70 579.35 L570.02 581.33 L570.24 583.26 L566.57 580.53 L561.40 575.80 L554.68 568.91 L551.08 565.71 L547.83 562.81 L549.85 566.84 L552.76 572.24 L555.02 576.93 L563.41 590.58 L563.89 593.23 L562.29 592.87 L560.38 591.99 L558.52 591.14 L558.21 592.69 L556.92 592.68 L556.63 594.31 L555.77 595.01 L552.10 590.83 L546.89 583.67 L542.81 578.22 L539.50 573.92 L537.85 572.56 L541.40 581.35 L541.14 582.86 L543.64 590.15 L547.18 600.01 L546.57 601.34 L545.44 601.54 L544.96 603.22 L543.68 603.09 L540.53 598.37 L536.14 590.27 L533.02 584.93 L530.27 580.21 L528.80 578.70 L531.24 588.10 L531.11 590.58 L532.61 598.13 L534.16 606.35 L532.92 606.13 L531.24 604.37 L529.46 602.14 L528.96 604.32 L527.73 603.91 L527.07 605.65 L525.79 605.02 L524.82 605.60 L524.22 607.89 L522.58 605.55 L521.54 605.82 L520.61 606.69 L519.65 607.51 L518.64 608.07 L517.60 608.49 L517.45 614.85 L516.05 613.23 L514.77 612.30 L513.98 615.14 L512.67 613.92 L511.37 612.41 L510.05 610.43 L509.01 611.28 L507.88 611.16 L506.80 611.70 L505.89 615.79 L504.73 615.90 L503.55 615.34 L502.44 617.20 L501.25 615.91 L500.09 615.34 L498.97 612.20 L497.85 611.90 L496.69 613.16 L495.54 613.70 L494.39 613.84 L493.30 613.05 L491.94 616.33 L490.97 613.76 L489.94 612.42 L488.64 614.12 L487.63 612.82 L486.37 613.79 L485.24 613.57 L483.79 615.71 L482.23 618.24 L481.27 616.63 L479.94 617.40 L478.74 617.38 L477.50 617.52 L476.91 614.39 L475.92 613.42 L474.32 615.28 L473.46 613.74 L471.91 615.18 L470.00 617.88 L469.05 616.70 L467.85 616.53 L466.60 616.50 L465.46 616.08 L465.02 613.41 L464.45 611.30 L462.52 613.41 L461.65 612.26 L460.20 612.81 L459.34 611.66 L457.83 612.31 L456.43 612.60 L456.20 609.92 L454.73 610.38 L453.78 609.56 L452.12 610.40 L451.06 609.82 L449.78 609.74 L446.41 614.06 L446.33 611.34 L445.25 610.73 L443.30 611.84 L442.71 610.25 L442.21 608.55 L441.81 606.71 L440.36 606.82 L439.72 605.48 L438.21 605.65 L434.56 609.37 L434.29 607.37 L433.12 606.87 L431.14 607.62 L430.69 605.97 L430.09 604.59 L430.84 601.26 L429.56 600.95 L428.21 600.73 L426.60 600.84 L425.70 599.95 L425.13 598.64 L422.17 600.45 L423.40 596.85 L422.65 595.81 L420.95 595.94 L420.10 595.01 L418.59 594.87 L417.75 593.93 L413.80 596.48 L411.86 596.69 L411.90 594.72 L409.43 595.44 L409.04 593.96 L408.77 592.36 L409.61 589.70 L408.98 588.54 L407.37 588.32 L407.33 586.61 L405.71 586.37 L404.26 585.95 L405.71 582.96 L405.48 581.51 L403.41 581.62 L404.67 578.94 L405.28 576.85 L402.90 577.18 L400.46 577.51 L399.57 576.60 L398.06 576.15 L397.12 575.27 L394.60 575.50 L395.63 573.19 L396.72 570.90 L394.89 570.62 L396.10 568.31 L394.51 567.85 L391.96 567.97 L392.00 566.46 L387.64 567.59 L384.37 568.00 L384.67 566.28 L383.09 565.64 L381.30 565.09 L383.47 562.40 L384.13 560.56 L382.61 559.87 L384.57 557.42 L382.84 556.83 L378.46 557.45 L380.04 555.25 L377.66 554.87 L376.23 554.03 L377.34 552.09 L376.72 550.91 L377.44 549.18 L376.35 548.18 L374.93 547.30 L373.04 546.57 L374.03 544.79 L372.41 543.93 L370.44 543.16 L373.93 540.61 L373.01 539.50 L372.59 538.24 L371.96 537.04 L370.97 535.93 L371.63 534.37 L366.59 534.29 L364.62 533.36 L365.58 531.70 L364.45 530.54 L363.12 529.40 L364.02 527.79 L366.76 525.85 L365.86 524.63 L367.09 523.03 L368.20 521.48 L365.12 520.60 L365.33 519.20 L366.98 517.61 L364.47 516.56 L363.66 515.28 L364.77 513.79 L364.73 512.42 L363.20 511.19 L362.17 509.88 L360.61 508.60 L361.00 507.18 L361.26 505.77 L357.97 504.49 L360.93 503.00 L361.34 501.61 L360.71 500.22 L362.14 498.84 L359.79 497.42 L361.56 496.07 L360.30 494.63 L356.53 493.05 L356.88 491.63 L356.95 490.20 L355.94 488.68 L355.83 487.22 L358.34 486.01 L359.05 484.66 L359.53 483.29 L362.00 482.18 L359.52 480.43 L355.66 478.42 L356.88 477.14 L355.67 475.46 L354.67 473.79 L356.27 472.59 L358.21 471.49 L360.62 470.52 L359.29 468.77 L359.13 467.25 L359.11 465.76 L360.64 464.65 L359.30 462.81 L359.52 461.36 L363.02 460.85 L362.60 459.24 L363.60 458.04 L361.97 456.03 L362.70 454.74 L363.83 453.60 L357.98 450.02 L358.43 448.58 L360.39 447.70 L360.09 445.99 L359.46 444.13 L362.08 443.56 L364.91 443.14 L364.78 441.49 L366.95 440.84 L367.91 439.68 L364.50 436.47 L367.29 436.15 L369.41 435.56 L371.11 434.78 L378.85 437.17 L384.26 438.50 L385.26 437.55 L383.60 435.14 L379.44 431.23 L377.58 428.53 L371.55 423.28 L377.19 424.97 L382.51 426.60 L388.07 428.51 L395.19 431.57 L396.47 430.92 L394.76 428.25 L390.43 423.68 L385.62 418.62 L386.00 417.16 L386.60 415.85 L389.36 416.17 L393.96 417.97 L397.36 418.95 L393.57 414.22 L397.19 415.43 L399.43 415.57 L396.48 411.31 L400.16 412.72 L400.01 410.81 L397.32 406.54 L396.95 404.30 L390.27 396.04 L389.36 393.06 L390.66 392.18 L393.08 392.44 L393.97 391.17 L393.61 388.59 L396.65 389.60 L397.28 388.04 L396.41 384.81 L396.49 382.55 L398.14 382.06 L398.45 380.02 L398.97 378.18 L399.74 376.62 L400.64 375.20 L400.70 372.69 L402.22 372.02 L407.90 376.92 L414.36 383.13 L417.67 385.26 L421.59 388.37 L421.59 385.97 L421.83 383.85 L424.94 386.02 L423.64 381.49 L425.97 382.55 L429.39 385.44 L428.92 382.06 L431.33 383.43 L430.94 380.05 L429.39 374.47 L431.52 375.35 L432.28 373.76 L432.18 370.49 L432.83 368.54 L432.29 364.14 L431.36 358.78 L433.67 359.97 L435.02 359.20 L438.94 364.14 L441.92 367.25 L445.66 372.33 L448.18 374.78 L446.00 365.74 L444.97 359.13 L445.03 355.02 L442.28 343.03 L442.12 337.61 L444.16 338.24 L446.74 340.57 L448.01 339.02 L450.41 341.04 L454.51 348.88 L458.48 356.91 L460.58 358.88 L463.14 362.76 L463.82 359.70 L464.36 355.84 L464.56 350.24 L463.21 337.30 L465.06 337.97 L466.82 338.29 L468.29 337.24 L469.68 335.62 L471.58 336.78 L473.24 336.66 L474.69 335.19 L476.36 335.07 L477.78 333.17 L479.59 334.06 L481.30 334.32 L482.78 332.44 L484.26 330.08 L485.93 329.66 L487.62 329.27 L489.39 330.18 L491.48 337.58 L493.43 345.02 L495.08 348.26 L496.71 352.86 L498.13 349.19 L499.64 349.88 L501.12 352.93 L502.69 347.29 L504.11 351.02 L505.50 353.86 L507.23 348.26 L508.70 349.09 L510.47 345.39 L512.22 342.83 L513.71 343.91 L515.10 345.83 L516.65 345.89 L518.44 343.97 L520.62 339.29 L522.89 334.74 L524.71 333.85 L527.74 325.46 L529.97 322.87 L531.32 325.53 L532.27 329.99 L531.83 341.03 L532.75 344.51 L533.91 346.65 L535.97 344.70 L537.16 346.56 L538.52 347.63 L540.66 345.67 L541.47 348.75 L542.81 349.78 L544.97 347.97 L545.88 350.41 L547.49 350.50 L549.48 349.48 L550.61 351.09 L552.96 349.15 L554.59 349.32 L558.09 344.54 L564.00 333.82 L564.65 337.01 L566.62 336.81 L569.74 333.93 L571.33 334.80 L572.78 335.98 L574.19 337.20 L575.75 338.09 L577.16 339.29 L577.09 343.47 L576.15 349.20 L574.70 355.68 L575.58 357.49 L576.92 358.40 L580.44 355.38 L583.11 354.03 L588.97 347.31 L593.66 342.91 L594.67 344.76 L594.96 347.73 L596.48 348.68 L597.72 350.06 L595.92 356.00 L592.81 363.64 L593.04 366.21 L592.24 370.15 L591.18 374.32 L591.25 376.83 L592.92 377.17 L598.85 372.00 L603.20 369.10 L605.94 368.35 L611.86 363.80 L622.37 354.01 L622.21 357.13 L624.03 357.91 L626.04 358.48 L626.39 360.92 L624.89 365.30 L620.17 372.96 L616.86 378.91 L615.50 382.69 L614.87 385.64 L622.15 380.80 L624.93 380.50 L630.43 377.71 L641.40 370.06 L643.70 370.57 L643.38 373.44 L644.13 375.32 L646.38 375.91 L644.93 379.61 L640.61 385.55 L634.03 393.12 L633.05 396.06 L633.05 398.18 L637.16 397.20 L640.48 396.89 L647.52 393.97 L656.91 389.59 L657.88 391.25 L656.91 394.21 L658.44 395.47 L659.76 396.88 L657.67 400.45 L658.78 401.95 L661.80 402.31 L661.95 404.41 L659.15 408.21 L654.65 412.85 L651.31 416.71 L651.74 418.44 L652.74 419.86 L657.15 419.54 L661.02 419.58 L671.37 416.54 L675.32 416.78 L674.37 419.36 L673.25 421.97 L674.67 423.42 L673.45 426.01 L668.24 430.22 L662.10 434.65 L660.86 437.02 L658.42 439.79 L661.74 440.38 L666.36 440.56 L668.99 441.51 L676.65 440.83 L673.23 443.90 L666.88 447.80 L664.57 450.32 L664.78 452.05 L669.86 452.41 L672.91 453.41 L677.88 453.97 L677.82 455.88 L675.56 458.30 L672.67 460.81 L665.79 464.11 L663.64 466.29 L664.80 467.76 L668.97 468.70 L675.92 469.22 L679.38 470.47 L687.00 471.13 L695.01 471.88 L693.90 474.02 L695.39 475.81 L697.23 477.58 L692.51 480.06 L686.29 482.59 L680.37 484.96 L678.03 486.95 L677.57 488.77 L681.93 490.31 L683.75 492.06 L691.62 493.64 L697.66 495.42 L696.44 497.41 L696.93 499.37 L695.41 501.33 L695.75 503.29 L696.50 505.27 L697.89 507.29 L696.30 509.20 L696.58 511.18 L694.31 513.00 L684.58 514.21 L681.16 515.77 L680.48 517.53 L680.86 519.39 L682.72 521.44 L686.71 523.81 L699.03 527.40 L700.38 529.63 L697.94 531.30 L698.51 533.43 L699.44 535.64 L696.00 537.05 L687.79 537.44 L681.68 538.12 L678.85 539.40 L674.12 540.18 L673.41 541.85 L669.07 542.60 L670.97 544.90 L677.29 548.46 L679.18 550.91 L680.77 553.32 L685.85 556.84 L691.32 560.61 L691.03 562.63 L691.71 564.98 L691.16 566.94 L688.98 568.30 L686.70 569.60 L677.33 568.13 L673.45 568.64 L670.38 569.40 L668.93 570.79 L674.06 574.99 L674.46 577.24 L682.02 582.78 L687.54 587.56 L686.17 589.20 L684.89 590.87 L685.49 593.48 L685.17 595.65 L679.53 595.02 L672.92 593.75 L667.04 592.74 L664.27 593.36 L663.44 595.07 L666.79 599.26 L668.51 602.58 L674.56 608.67 L676.93 612.62 L675.33 614.07 L673.17 615.15 L670.18 615.63 L669.85 617.91 L669.09 619.90 L668.39 621.95 L666.16 622.90 L665.41 624.92 L661.26 624.33 L652.30 619.88 L649.57 620.16 L648.46 621.74 L648.52 624.29 L648.82 627.09 L651.20 631.76 L659.31 641.66 L657.84 643.21 L654.88 643.36 L654.29 645.72 L653.82 648.21 L648.86 646.32 L641.66 642.07 L636.81 639.97 L632.95 638.77 L629.95 638.38 L634.23 645.83 L632.55 646.94 L633.95 651.50 L639.68 661.20 L638.35 662.93 L634.73 661.93 L633.74 664.05 L633.09 666.62 L631.41 667.94 L630.27 669.96 L628.71 671.44 L627.18 672.98 L623.83 672.01 L615.47 663.81 L612.52 663.07 L609.46 662.08 L607.39 662.49 L609.23 668.93 L608.86 672.11 L613.74 683.86 L614.06 688.58 L611.30 688.24 L610.97 692.03 L608.35 691.91 L605.30 690.94 L600.18 686.03 L594.46 679.69 L591.55 678.47 L588.25 676.34 L587.77 679.87 L588.63 686.33 L588.38 690.71 L591.16 701.96 L589.78 704.35 L587.70 705.15 L584.49 703.24 L582.08 703.15 L580.78 705.83 L578.54 706.17 L576.50 707.01 L574.05 706.72 L571.80 706.92 L567.17 700.03 L563.00 694.01 L560.57 693.09 L557.66 690.47 L557.78 697.98 L555.95 699.09 L555.80 706.43 L556.87 719.08 L554.14 717.47 L552.05 718.36 L550.19 720.31 L547.68 719.40 L544.46 714.94 L540.73 707.33 L538.03 704.39 L535.22 700.41 L533.04 699.67 L532.49 709.36 L530.61 711.13 L529.37 717.92 L528.30 727.09 L525.97 726.86 L523.55 725.66 L521.07 723.50 L518.97 725.37 L516.72 725.57 L514.57 727.35 L512.25 726.62 L509.89 724.77 L507.51 720.81 L505.07 711.17 L502.91 707.78 L500.81 704.52 L498.75 707.61 L496.61 711.33 L494.42 714.44 L491.81 727.27 L489.45 729.07 L487.24 727.58 L484.83 729.52 L482.50 729.79 L480.46 726.56 L478.86 719.45 L477.42 712.22 L475.63 709.12 L473.90 705.98 L471.01 711.83 L468.35 715.19 L465.45 719.65 L461.08 732.30 L459.00 730.54 L456.74 729.87 L455.20 725.59 L453.23 723.81 L450.54 725.38 L448.38 724.49 L446.02 724.45 L443.92 723.35 L442.09 721.23 L442.16 712.27 L441.57 706.30 L440.34 702.88 L439.03 699.93 L434.65 706.83 L432.28 707.12 L427.76 713.66 L422.66 721.44 L420.76 719.79 L418.36 719.54 L415.77 719.77 L413.76 718.44 L413.68 712.40 L414.99 703.33 L414.36 699.22 L414.05 694.55 L412.32 693.20 L407.26 699.05 L404.67 699.37 L399.98 703.91 L397.44 703.90 L399.67 694.61 L399.15 690.90 L396.56 691.16 L391.84 695.18 L389.79 694.28 L385.27 697.62 L381.16 700.05 L383.16 692.29 L382.74 688.70 L384.77 681.37 L385.71 675.97 L383.46 675.56 L379.43 677.75 L372.59 683.85 L369.07 684.95 L363.69 688.52 L352.82 699.33 L352.26 695.96 L350.90 693.70 L347.57 693.98 L348.47 688.92 L351.38 681.54 L355.40 673.07 L356.08 668.80 L355.44 666.15 L351.58 667.19 L348.56 667.19 L341.84 671.14 L334.08 675.96 L333.54 673.04 L329.19 674.05 L328.05 671.73 L327.63 668.74 L325.99 666.98 L324.00 665.54 L322.57 663.57 L320.88 661.84 L321.30 658.25 L324.10 652.66 L326.81 647.30 L326.73 644.41 L326.29 641.85 L322.59 641.94 L319.17 641.73 L311.28 644.89 L305.95 645.93 L304.10 644.27 L302.80 642.21 L300.97 640.53 L300.37 637.98 L303.34 633.04 L309.18 626.33 L309.91 623.13 L311.67 619.33 L313.26 615.72 L314.25 612.55 L311.77 611.50 L303.78 613.60 L298.12 614.19 L295.63 612.92 L287.18 614.82 L274.24 618.91 L275.55 615.36 L273.52 613.56 L271.50 611.73 L272.02 608.66 L274.80 604.59 L282.33 598.46 L286.67 593.94 L289.21 590.31 L291.30 586.95 L281.04 588.67 L279.13 586.88 L272.23 586.98 L259.45 589.11 L257.32 587.15 L258.58 583.98 L258.28 581.39 L256.25 579.37 L259.79 575.57 L266.13 571.01 L274.19 566.10 L276.38 563.04 L276.85 560.51 L273.36 559.03 L272.34 556.87 L264.61 556.30 L254.96 556.03 L257.39 552.92 L256.54 550.56 L252.64 548.80 L252.32 546.29 L251.70 543.85 L248.55 541.81 L248.44 539.25 L247.06 536.88 L250.82 533.79 L259.75 530.13 L263.65 527.25 L265.17 524.70 L266.17 522.23 L262.74 520.16 L259.54 518.01 L249.50 516.25 L246.41 513.90 L246.26 511.37 L246.29 508.83 L245.64 506.30 L247.57 503.73 L253.06 501.18 L260.72 498.75 L263.59 496.40 L266.54 494.11 L262.59 491.63 L258.98 489.09 L256.39 486.53 L248.29 483.56 L253.92 481.45 L261.59 479.63 L263.51 477.41 L261.94 474.86 L255.64 471.72 L253.83 469.01 L247.80 465.69 L249.67 463.39 L256.05 461.83 L261.33 460.20 L269.37 459.17 L272.53 457.38 L270.86 454.69 L265.87 451.27 L258.10 447.12 L258.15 444.59 L259.04 442.25 L260.46 440.05 L265.30 438.76 L269.99 437.52 L266.20 433.98 L268.42 432.10 L271.59 430.54 L266.52 426.44 L271.85 425.60 L274.51 423.97 L267.82 419.11 L266.31 415.96 L257.42 410.01 L251.76 405.08 L251.88 402.27 L252.58 399.68 L254.78 397.70 L253.71 394.35 L256.05 392.46 L258.93 390.83 L258.09 387.52 L257.82 384.44 L260.84 382.93 L263.82 381.44 L264.41 378.78 L265.55 376.39 L267.26 374.29 L268.71 372.08 L270.45 370.02 L275.32 369.80 L283.75 371.77 L288.30 371.60 L292.56 371.32 L295.00 369.98 L292.71 365.60 L296.67 365.26 L296.68 362.32 L296.90 359.49 L300.07 358.71 L295.13 352.12 L294.64 348.62 L291.65 343.18 L282.32 332.72 L284.11 330.63 L287.56 329.88 L287.51 326.33 L287.42 322.68 L289.07 320.44 L289.90 317.50 L293.55 317.02 L299.88 319.01 L310.35 325.01 L315.31 326.13 L320.81 327.89 L327.23 330.71 L324.05 324.11 L319.14 315.55 L319.11 311.79 L314.07 302.64 L310.48 294.76 L312.53 292.85 L316.83 293.49 L318.52 291.23 L320.94 289.80 L328.75 294.85 L336.96 300.66 L340.71 301.23 L345.61 303.35 L347.78 302.07 L346.45 296.15 L347.11 292.75 L342.91 282.54 L343.01 278.02 L346.57 278.40 L347.49 274.94 L348.64 271.76 L351.18 270.65 L352.14 267.05 L353.76 264.43 L355.99 262.77 L356.91 258.88 L359.87 258.40 L363.30 258.78 L365.39 256.82 L368.08 255.95 L370.41 254.42 L374.00 255.34 L376.78 254.74 L381.42 257.97 L387.66 264.78 L391.05 265.90 L394.77 267.84 L397.03 266.65 L398.46 263.53 L402.01 265.35 L402.92 260.83 L405.78 261.05 L409.02 262.31 L408.64 253.98 L411.10 253.07 L412.00 247.68 L410.98 236.30 L413.31 234.48 L416.72 235.99 L418.91 233.69 L421.19 231.56 L424.06 231.43 L426.37 229.28 L429.20 229.02 L432.04 228.84 L434.02 225.11 L437.41 227.27 L440.29 227.34 L442.75 225.43 L445.46 224.69 L448.13 223.68 L450.88 223.13 L452.91 218.19 L455.63 217.07 L458.68 218.14 L461.16 215.24 L464.14 215.93 L467.10 216.58 L470.21 218.84 L473.00 218.35 L475.78 217.67 L478.62 217.65 L481.26 214.55 L484.02 212.70 L486.92 213.20 L489.74 211.57 L492.65 212.47 L495.52 212.41 L498.42 215.82 L501.25 216.76 L504.11 214.95 L506.96 214.96 L509.83 214.56 L512.65 215.50 L515.62 213.33 L518.44 214.19 L521.14 216.42 L524.14 214.71 L526.88 216.18 L529.85 215.15 L532.67 215.70 L535.68 214.69 L539.07 211.12 L541.73 213.07 L544.62 213.39 L547.64 212.87 L550.48 213.53 L552.93 216.28 L555.53 218.01 L558.87 216.06 L561.34 218.32 L564.44 217.70 L568.22 214.33 L570.76 216.28 L573.51 217.33 L576.58 217.18 L579.29 218.36 L581.61 220.84 L583.71 223.96 L587.05 222.94 L589.71 224.16 L592.92 223.70 L595.39 225.48 L598.26 226.08 L601.67 225.25 L603.36 229.03 L606.22 229.69 L609.03 230.49 L611.81 231.38 L614.72 231.98 L617.49 232.91 L622.36 229.23 L624.36 231.98 L626.79 233.74 L630.51 232.85 L632.55 235.41 L634.71 237.69 L636.59 240.45 L639.28 241.64 L641.65 243.42 L644.57 244.21 L648.99 242.43 L651.49 244.05 L654.13 245.44 L657.77 245.21 L659.57 247.96 L661.95 249.78 L662.58 254.23 L664.72 256.32 L667.92 256.87 L670.43 258.44 L673.02 259.90 L674.98 262.23 L679.18 261.55 L679.93 265.48 L681.63 268.09 L685.09 268.49 L686.65 271.26 L689.84 272.05 L691.97 274.13 L696.36 273.58 L700.73 273.17 L701.70 276.62 L704.78 277.71 L707.20 279.55 L709.06 281.98 L709.30 286.05 L710.77 288.82 L714.12 289.71 L715.02 293.01 L717.40 294.86 L720.80 295.80 L720.49 300.14 L721.40 303.31 L725.16 303.96 L725.87 307.28 L726.38 310.73 L730.11 311.48 L733.60 312.49 L735.54 314.78 L737.46 317.09 L738.89 319.76 L742.35 320.92 L743.96 323.48 L743.34 327.61 L746.42 329.10 L747.05 332.30 L748.43 334.96 L752.51 335.87 L752.36 339.53 L757.02 340.16 L761.71 340.85 L761.77 344.38 L764.20 346.49 L767.10 348.36 L766.19 352.37 L765.87 356.00 L768.88 357.83 L768.65 361.38 L770.88 363.64 L776.76 364.13 L775.42 368.19 L777.79 370.45 L779.78 372.91 L778.81 376.70 L780.47 379.31 L780.39 382.65 L781.34 385.55 L783.18 388.08 L786.13 390.21 L786.32 393.41 L787.85 396.11 L791.60 398.04 L788.70 402.28 L790.29 404.97 L791.92 407.66 L792.08 410.81 L794.38 413.32 L794.07 416.59 L797.13 418.93 L800.16 421.32 L800.31 424.48 L801.55 427.36 L803.80 430.03 L803.88 433.20 L801.31 436.92 L802.63 439.80 L803.46 442.78 L802.59 446.07 L806.70 448.50 L809.45 451.21 L808.29 454.55 L809.43 457.54 L809.79 460.64 L809.15 463.86 L807.62 467.15 L807.28 470.30 L808.78 473.26 L810.18 476.27 L810.32 479.37 L809.52 482.53 L812.41 485.50 L811.28 488.67 L809.88 491.83 L811.77 494.90 L810.42 498.02 L813.05 501.14 L811.60 504.25 L811.43 507.36 L815.28 510.61 L815.01 513.75 L814.17 516.86 L814.83 520.06 L815.43 523.27 L813.15 526.25 L811.94 529.29 L813.33 532.59 L810.31 535.41 L811.96 538.77 L817.04 542.62 L814.72 545.52 L814.29 548.67 L815.40 552.08 L813.26 554.95 L810.80 557.72 L808.35 560.46 L808.52 563.71 L808.51 566.93 L809.10 570.30 L807.13 573.09 L807.41 576.41 L808.07 579.85 L803.55 581.93 L803.91 585.30 L803.22 588.39 L802.88 591.58 L802.78 594.87 L800.62 597.50 L804.19 602.03 L804.54 605.55 L802.09 608.10 L801.93 611.46 L802.00 614.93 L799.07 617.25 L795.43 619.24 L795.47 622.71 L793.69 625.43 L791.09 627.78 L792.85 632.05 L791.65 635.04 L787.65 636.70 L784.87 638.89 L777.67 638.83 L769.97 638.37 L767.16 640.32 L766.63 643.46 L769.97 648.76 L770.50 652.60 L774.60 658.55 L770.48 659.80 L765.20 660.28 L759.70 660.52 L751.88 659.19 L748.03 660.25 L748.48 664.09 L751.26 669.56 L755.87 676.42 L756.81 680.88 L762.19 688.62 L767.78 696.73 L764.68 698.56 L763.15 701.56 L760.95 704.05 L755.09 703.61 L747.24 701.42 L738.22 698.07 L734.59 699.05 L732.58 701.38 L732.71 705.61 L731.14 708.37 L736.47 717.50 L738.47 723.78 L734.53 724.54 L734.85 729.39 L734.30 733.48 L731.71 735.55 L729.51 738.04 L726.68 739.85 L723.75 741.55 L719.98 742.29 L714.58 741.15 L706.31 736.58 L702.28 736.69 L700.19 739.05 L698.44 741.83 L698.26 746.60 L698.69 752.26 L703.64 763.93 L701.04 766.02 L696.56 765.57 L692.95 766.21 L691.04 769.21 L686.19 768.01 L679.48 763.95 L673.94 761.38 L670.19 761.38 L665.01 759.05 L662.36 760.61 L657.54 758.59 L657.20 763.94 L658.09 771.58 L657.73 777.30 L655.86 780.50 L657.96 791.09 L658.78 799.72 L655.18 800.15 L652.99 803.31 L649.84 804.60 L645.85 804.14 L639.88 799.31 L632.54 791.17 L628.77 790.56 L624.01 787.54 L621.29 789.15 L621.59 798.20 L619.73 802.25 L620.26 812.67 L619.85 821.16 L616.56 822.15 L612.94 822.19 L610.34 825.14 L606.40 824.13 L601.54 820.12 L595.88 813.09 L590.61 806.82 L587.05 805.98 L584.23 807.75 L582.05 811.97 L579.45 814.88 L579.27 827.93 L576.90 832.69 L572.61 829.08 L569.56 830.96 L566.51 832.96 L562.73 831.23 L559.60 832.86 L556.47 834.65 L552.89 833.77 L549.73 835.45 L545.72 831.22 L540.97 820.41 L537.62 819.61 L534.48 820.51 L531.64 824.59 L528.49 826.06 L525.67 831.97 L523.06 842.80 L519.62 842.79 L516.03 839.58 L512.59 838.68 L509.23 839.81 L505.84 840.03 L502.46 842.77 L499.02 845.56 L495.55 846.68 L492.02 849.51 L488.57 847.99 L485.20 845.30 L481.95 841.38 L478.86 836.00 L476.16 826.73 L473.21 822.72 L469.96 822.63 L466.42 825.43 L462.82 828.14 L458.99 832.20 L454.65 839.38 L452.55 829.92 L449.66 826.80 L447.41 820.11 L445.37 812.93 L442.24 812.39 L438.37 815.61 L433.85 821.65 L429.67 825.45 L426.30 825.23 L422.66 826.13 L420.47 821.04 L418.40 815.85 L415.88 812.64 L411.26 817.14 L409.14 812.65 L406.03 811.67 L401.91 813.94 L399.91 809.45 L395.73 811.70 L391.67 813.36 L387.38 815.53 L379.27 827.85 L375.93 826.82 L373.12 824.39 L368.67 826.12 L365.21 825.28 L362.05 823.73 L359.89 819.89 L357.00 817.80 L353.02 818.11 L350.06 816.17 L346.63 815.22 L343.29 814.06 L339.89 813.01 L336.10 812.65 L333.09 810.80 L329.80 809.47 L327.41 806.50 L327.87 798.66 L328.93 790.09 L327.92 785.23 L327.29 779.92 L322.45 781.42 L319.90 779.23 L318.74 774.96 L312.86 777.80 L312.12 772.96 L312.56 766.58 L310.36 764.05 L308.28 761.39 L303.03 762.99 L300.31 761.14 L296.29 760.95 L292.22 760.75 L286.94 761.95 L283.24 761.12 L277.52 762.63 L272.01 763.73 L269.12 761.74 L261.49 765.01 L256.98 764.64 L254.93 761.58 L252.53 758.90 L249.78 756.59 L245.58 755.73 L242.84 753.36 L242.19 748.97 L241.27 744.90 L246.29 735.39 L248.07 729.10 L249.00 723.70 L247.72 720.35 L242.21 720.66 L242.72 715.81 L238.82 714.67 L236.11 712.51 L237.00 707.49 L230.19 708.52 L225.61 707.71 L218.56 708.66 L206.79 712.87 L204.84 709.81 L204.65 705.53 L202.34 702.75 L199.89 700.06 L200.89 695.10 L199.36 691.84 L195.80 689.86 L193.96 686.78 L192.94 683.21 L189.01 681.37 L185.68 679.12 L183.61 676.13 L180.12 673.91 L177.39 671.23 L175.54 668.08 L176.28 663.61 L182.39 656.55 L186.33 650.73 L188.33 645.95 L190.99 640.96 L184.37 640.18 L185.73 635.83 L186.87 631.64 L180.68 630.50 L182.46 626.08 L180.96 623.00 L173.74 622.05 L171.01 619.33 L163.46 618.28 L162.67 614.78 L169.98 608.62 L171.57 604.47 L169.59 601.47 L163.57 599.65 L161.40 596.62 L155.26 594.65 L152.26 591.75 L157.30 586.76 L159.46 582.60 L166.09 577.47 L169.58 573.18 L167.66 570.13 L162.49 567.70 L152.22 566.15 L150.41 562.88 L142.68 560.59 L128.82 559.13 L131.31 554.95 L131.43 551.17 L128.91 547.75 L133.12 543.48 L140.52 538.96 L148.31 534.56 L151.00 530.78 L152.17 527.17 L147.91 523.97 L145.75 520.56 L138.30 517.36 L129.95 514.06 L131.23 510.31 L127.89 506.69 L129.07 502.95 L130.69 499.25 L130.13 495.55 L129.80 491.84 L130.75 488.17 L131.12 484.48 L134.00 480.94 L140.33 477.66 L145.25 474.40 L147.08 470.98 L148.43 467.55 L145.70 463.72 L143.42 459.88 L134.84 455.21 L131.52 451.06 L132.11 447.39 L132.89 443.75 L132.68 439.95 L134.79 436.54 L140.94 433.91 L149.62 431.87 L152.47 428.82 L156.71 426.10 L159.61 423.15 L163.57 420.50 L162.12 416.59 L154.76 411.10 L150.29 406.21 L151.04 402.66 L143.81 396.79 L134.08 389.99 L137.71 387.12 L137.26 382.99 L138.59 379.42 L142.05 376.58 L147.04 374.33 L156.67 373.88 L162.77 372.28 L167.39 370.21 L170.68 367.69 L162.61 360.51 L162.75 356.60 L158.01 350.53 L148.53 342.19 L149.82 338.54 L154.10 336.29 L155.63 332.79 L156.37 328.87 L162.76 327.83 L170.84 327.79 L179.44 328.18 L183.80 326.42 L186.76 323.95 L185.80 319.25 L186.51 315.46 L181.65 308.29 L176.88 300.98 L181.34 299.31 L182.31 295.46 L181.73 290.55 L184.15 287.59 L186.16 284.35 L185.99 279.58 L189.17 277.14 L190.92 273.68 L196.87 273.35 L207.01 276.32 L211.30 275.00 L214.68 273.00 L217.70 270.76 L217.52 265.89 L216.93 260.59 L211.33 250.85 L212.58 246.87 L215.66 244.49 L218.39 241.81 L220.43 238.49 L224.58 237.15 L231.68 238.76 L239.13 240.88 L243.78 240.36 L248.24 239.72 L246.93 233.08 L248.16 229.00 L248.80 224.20 L246.27 215.77 L253.72 218.50 L260.76 220.97 L264.36 219.53 L266.15 215.94 L265.53 209.32 L266.52 204.54 L265.35 196.88 L271.01 198.00 L276.51 199.05 L282.55 200.99 L290.11 205.23 L294.31 204.92 L295.61 200.45 L295.57 193.86 L294.76 185.89 L295.88 180.67 L293.90 170.36 L292.92 161.31 L297.10 160.55 L299.74 157.24 L303.88 156.48 L310.33 159.92 L317.35 164.68 L324.57 170.11 L329.12 170.76 L332.89 170.02 L335.08 166.09 L337.48 162.49 L336.54 151.67 L337.96 145.52 L341.48 143.84 L343.70 139.16 L346.83 136.45 L351.30 136.97 L355.08 135.84 L358.76 134.51 L362.71 133.88 L366.54 132.99 L371.55 135.45 L377.88 142.02 L381.94 142.27 L385.84 142.08 L389.39 140.85 L392.28 137.38 L394.71 132.11 L395.66 121.15 L399.28 119.50 L403.22 119.00 L407.07 118.20 L410.66 116.28 L415.23 118.68 L420.49 124.67 L425.31 129.16 L429.59 131.42 L434.02 134.83 L437.59 133.71 L441.92 137.26 L444.92 132.48 L447.67 125.30 L450.80 120.01 L454.31 117.12 L456.96 105.81 L460.19 98.24 L464.32 99.04 L468.17 96.68 L472.24 96.97 L476.42 99.17 L480.80 106.51 L485.13 116.45 L489.02 118.26 L492.92 122.78 L496.68 121.02 L500.48 113.34 L504.38 110.06 L508.51 99.43 L512.74 92.17 L516.78 93.33 L520.78 94.89 L525.00 92.35 L528.84 95.84 L532.34 102.74 L535.61 110.84 L538.79 118.15 L542.32 121.09 L546.10 121.63 L550.24 119.42 L554.51 116.66 L560.10 105.63 L564.21 105.21 L567.84 107.74 L572.28 105.58 L576.50 104.88 L580.19 106.93 L584.47 106.07 L588.92 104.67 L592.71 106.26 L596.70 106.96 L599.06 114.06 L600.18 125.29 L603.75 126.93 L607.08 129.35 L611.47 128.13 L615.48 128.32 L620.94 124.07 L627.41 117.11 L631.49 117.67 L635.14 119.46 L638.84 121.09 L643.02 121.47 L645.24 126.90 L646.30 135.04 L648.08 141.01 L650.31 145.71 L653.72 147.51 L661.20 140.24 L665.59 140.13 L672.69 134.35 L680.82 126.86 L683.32 131.14 L685.64 135.66 L688.94 138.18 L694.18 137.03 L697.87 138.87 L701.27 141.23 L707.23 139.11 L711.40 140.22 L712.48 146.52 L714.14 151.71 L717.97 153.28 L720.27 157.28 L723.22 160.22 L728.50 159.64 L732.42 161.17 L736.56 162.42 L744.84 157.94 L748.14 160.55 L750.77 164.06 L756.31 163.70 L757.85 168.61 L759.52 173.26 L762.42 176.32 L762.89 182.28 L764.99 186.18 L769.96 186.71 L772.79 189.75 L777.57 190.61 L784.12 189.61 L785.30 194.51 L789.53 196.14 L794.32 197.22 L796.87 200.65 L799.67 203.81 L803.77 205.70 L805.91 209.51 L809.57 211.86 L812.39 215.01 L813.08 220.07 L816.37 222.77 L817.70 227.17 L820.00 230.71 L825.31 231.75 L825.96 236.65 L829.07 239.53 L835.12 240.15 L839.18 242.39 L840.70 246.57 L844.15 249.31 L846.85 252.61 L847.25 257.53 L849.60 261.05 L848.54 266.86 L847.82 272.34 L850.82 275.36 L853.38 278.67 L853.48 283.50 L856.36 286.60 L861.54 288.38 L863.44 292.12 L867.10 294.87 L874.25 295.76 L876.65 299.32 L881.00 301.86 L881.49 306.43 L883.01 310.45 L886.66 313.43 L886.17 318.41 L885.64 323.35 L887.43 327.19 L888.54 331.33 L892.22 334.38 L893.53 338.44 L894.02 342.83 L900.07 345.03 L904.22 348.05 L904.12 352.69 L904.99 356.94 L908.45 360.30 L907.77 365.07 L907.49 369.67 L907.55 374.13 L904.86 379.38 L906.12 383.41 L912.41 386.06 L912.80 390.38 L915.20 394.18 L921.82 396.97 L921.25 401.56 L920.61 406.14 L922.99 410.04 L923.51 414.35 L924.75 418.51 L926.45 422.60 L926.32 427.01 L929.32 430.91 L928.87 435.38 L926.00 440.16 L927.42 444.31 L926.21 448.80 L926.75 453.06 L929.69 457.08 L927.95 461.57 L929.94 465.72 L934.44 469.73 L935.74 474.02 L934.64 478.44 L937.58 482.68 L936.51 487.09 L933.69 491.52 L933.41 495.86 L953.75 500.00 L949.47 495.51 L948.79 491.02 L945.27 486.64 L943.87 482.24 L945.83 477.69 L943.84 473.34 L944.45 468.84 L948.22 464.07 L948.34 459.54 L945.48 455.30 L947.27 450.60 L945.96 446.23 L943.57 442.01 L943.55 437.49 L939.04 433.65 L937.23 429.44 L938.51 424.73 L936.73 420.53 L936.34 416.08 L935.35 411.75 L933.86 407.53 L933.90 402.97 L930.66 399.16 L927.65 395.35 L931.46 389.83 L930.99 385.35 L930.03 380.99 L932.76 375.56 L931.01 371.38 L925.86 368.27 L923.12 364.46 L919.85 360.87 L915.92 357.54 L916.30 352.74 L913.88 348.92 L910.25 345.58 L911.10 340.55 L913.26 334.94 L910.07 331.44 L908.62 327.24 L907.79 322.76 L904.82 319.22 L903.04 315.16 L898.46 312.41 L893.75 309.80 L893.58 305.00 L891.42 301.17 L887.33 298.35 L887.23 293.46 L886.18 289.03 L888.24 282.84 L886.66 278.62 L884.34 274.81 L884.79 269.34 L882.20 265.67 L877.69 263.21 L875.68 259.20 L873.30 255.43 L867.46 253.96 L861.69 252.55 L858.71 249.29 L853.80 247.42 L851.40 243.79 L849.19 240.01 L845.21 237.57 L843.89 233.11 L844.42 227.13 L841.36 223.96 L836.60 222.19 L835.99 217.00 L832.24 214.43 L828.34 212.02 L825.40 208.80 L820.06 207.75 L817.01 204.67 L814.57 201.01 L810.66 198.76 L808.44 194.87 L805.17 192.01 L801.26 189.82 L799.60 185.28 L797.18 181.51 L792.19 180.51 L791.99 174.25 L789.73 170.19 L786.18 167.59 L784.09 163.26 L779.41 162.01 L773.23 162.67 L769.38 160.54 L764.05 160.34 L758.61 160.38 L757.18 155.16 L752.73 153.95 L749.58 150.99 L750.11 142.75 L746.73 139.98 L743.86 136.41 L741.59 131.89 L737.20 130.58 L732.28 130.16 L728.66 127.70 L723.04 128.58 L716.68 130.87 L713.44 127.91 L711.92 121.84 L707.60 120.71 L703.87 118.51 L701.59 113.54 L696.92 113.10 L691.56 114.13 L686.57 114.56 L686.72 104.21 L685.94 95.42 L682.53 92.14 L682.11 81.91 L677.78 80.44 L672.84 80.47 L666.75 83.48 L660.14 88.09 L655.21 88.63 L650.81 87.87 L646.45 87.03 L641.89 86.83 L637.48 86.24 L635.79 77.24 L632.96 71.38 L628.64 70.18 L625.59 64.57 L620.89 64.53 L615.89 65.76 L609.93 70.89 L604.59 74.07 L599.65 75.94 L595.12 76.23 L590.60 76.57 L586.20 76.48 L581.60 77.51 L576.85 79.58 L572.50 79.66 L568.36 78.51 L564.76 73.79 L561.77 64.15 L557.80 60.64 L554.06 54.61 L549.67 53.49 L544.90 56.10 L539.73 63.59 L534.73 71.11 L529.98 77.26 L525.53 80.60 L521.43 78.41 L517.14 80.11 L512.91 80.89 L508.87 73.44 L504.71 63.38 L500.35 60.68 L495.88 52.48 L491.42 53.07 L487.09 57.91 L482.74 60.06 L478.93 72.16 L475.16 80.85 L471.04 82.25 L466.89 82.81 L462.66 82.48 L458.58 83.86 L453.54 76.21 L448.10 66.66 L443.56 65.60 L438.64 62.03 L433.25 55.92 L428.18 52.71 L424.44 57.73 L420.04 58.60 L416.37 63.27 L412.35 65.82 L409.31 72.84 L406.39 79.79 L402.60 82.52 L398.55 83.99 L394.69 86.19 L390.84 88.33 L387.00 90.44 L380.28 82.41 L374.96 79.77 L370.35 79.68 L365.34 78.48 L361.72 81.62 L358.62 86.18 L357.49 96.11 L355.91 104.27 L352.25 106.52 L348.71 109.02 L344.11 108.80 L339.41 108.44 L335.64 110.38 L331.71 111.96 L328.26 114.61 L325.33 118.34 L320.00 116.86 L312.38 110.80 L307.41 110.50 L301.74 108.92 L297.97 111.17 L295.73 116.30 L296.28 126.38 L296.11 134.81 L295.70 142.51 L292.95 145.97 L289.14 147.59 L286.66 151.40 L278.42 145.94 L270.16 140.78 L264.95 140.62 L257.17 136.70 L250.71 134.99 L245.95 135.89 L244.04 140.86 L245.10 149.82 L245.03 156.97 L244.96 163.96 L243.89 169.47 L236.32 166.63 L231.76 167.75 L224.72 165.92 L220.69 167.85 L218.81 172.33 L220.36 180.65 L222.08 188.95 L214.05 186.33 L208.79 186.91 L203.65 187.71 L197.24 187.27 L195.44 191.64 L193.48 195.80 L195.58 203.87 L196.42 210.54 L194.72 214.70 L192.18 218.03 L190.28 221.93 L188.31 225.75 L185.31 228.64 L175.55 225.83 L170.50 227.17 L165.86 228.91 L162.12 231.43 L160.84 235.91 L161.91 242.13 L165.28 249.95 L164.61 254.65 L163.28 258.80 L163.17 263.78 L160.66 267.05 L158.12 270.30 L157.98 275.14 L158.17 280.13 L157.41 284.45 L154.43 287.37 L145.21 286.56 L138.06 287.16 L133.39 289.32 L127.21 290.70 L125.48 294.63 L126.97 300.26 L132.43 307.89 L136.70 314.73 L139.92 320.89 L137.83 324.34 L136.57 328.20 L137.91 333.24 L136.04 336.77 L123.68 335.72 L115.99 336.92 L113.84 340.55 L103.05 340.72 L104.19 345.76 L106.29 351.09 L110.10 356.97 L117.89 364.15 L120.53 369.35 L121.26 373.82 L120.60 377.80 L118.15 381.21 L119.22 385.71 L107.62 386.49 L98.71 388.25 L97.38 392.21 L91.38 394.97 L83.07 397.27 L79.80 400.91 L82.24 405.88 L84.02 410.64 L86.03 415.40 L86.81 419.85 L94.00 425.45 L97.76 430.29 L98.41 434.54 L98.22 438.62 L98.66 442.79 L98.95 446.92 L95.68 450.59 L87.86 453.82 L85.14 457.71 L81.63 461.57 L80.62 465.71 L82.45 470.06 L87.94 474.59 L96.35 479.16 L100.77 483.39 L100.82 487.38 L101.20 491.39 L99.01 495.35 L100.30 499.36 L100.47 503.36 L96.72 507.42 L97.22 511.45 L100.32 515.36 L90.15 519.86 L84.22 524.31 L85.54 528.40 L83.92 532.69 L85.84 536.71 L90.05 540.47 L99.37 543.60 L107.46 546.70 L113.02 549.97 L112.21 554.02 L114.04 557.70 L118.02 561.02 L104.94 567.17 L99.36 572.25 L98.73 576.51 L90.49 582.33 L87.49 587.24 L87.80 591.49 L93.05 594.60 L98.11 597.67 L103.05 600.68 L108.05 603.60 L105.84 608.41 L105.33 612.81 L104.68 617.28 L103.40 621.99 L106.21 625.45 L111.61 628.02 L121.87 628.85 L123.60 632.47 L119.65 638.15 L119.21 642.64 L114.08 648.98 L115.97 652.68 L121.93 654.70 L118.93 660.40 L122.24 663.47 L127.67 665.56 L124.74 671.38 L128.73 674.06 L132.95 676.59 L140.34 677.48 L148.26 677.97 L154.22 679.32 L155.61 682.99 L155.84 687.31 L159.60 689.69 L162.61 692.47 L162.50 697.02 L166.08 699.44 L168.09 702.77 L170.59 705.79 L174.07 708.18 L174.80 712.32 L177.12 715.44 L180.47 717.86 L181.02 722.19 L183.78 724.99 L187.52 727.07 L180.02 737.45 L179.51 742.83 L180.61 747.07 L178.92 753.55 L184.67 754.16 L186.63 757.79 L188.16 761.81 L194.33 761.89 L193.42 768.03 L197.35 769.98 L203.74 769.65 L210.75 768.60 L220.49 764.81 L225.49 765.34 L230.15 766.11 L232.26 769.35 L234.27 772.74 L237.87 774.48 L240.44 777.28 L244.50 778.48 L245.75 782.74 L243.24 791.34 L245.99 794.10 L246.54 799.46 L246.64 805.49 L248.78 809.15 L249.51 814.63 L251.13 819.09 L253.27 822.95 L256.28 825.71 L257.64 830.74 L261.80 831.98 L265.46 833.88 L272.15 831.34 L278.41 829.25 L278.41 836.47 L283.15 836.54 L287.47 837.21 L289.09 842.17 L293.86 842.04 L298.40 842.21 L305.43 837.96 L312.60 833.15 L317.93 831.39 L320.37 834.84 L323.99 836.11 L329.19 834.28 L331.79 837.48 L334.88 839.75 L339.44 838.94 L342.48 841.30 L345.48 843.80 L348.58 846.12 L351.95 847.86 L354.53 851.51 L358.73 851.27 L363.30 849.96 L365.73 854.16 L369.72 854.28 L370.00 864.74 L371.90 871.10 L374.19 876.63 L377.54 879.16 L382.84 875.55 L385.58 880.11 L389.74 880.04 L394.83 876.50 L397.13 883.01 L401.59 881.59 L406.60 877.76 L411.30 874.78 L414.84 876.59 L418.56 877.66 L421.43 882.91 L424.02 890.07 L427.33 894.03 L431.38 894.10 L436.30 888.83 L440.82 885.32 L445.21 882.19 L449.49 879.27 L452.63 885.09 L456.27 887.47 L459.82 891.07 L463.77 891.05 L467.88 888.93 L472.13 884.31 L476.56 875.21 L480.63 869.34 L484.50 865.43 L488.24 862.91 L491.90 861.78 L495.47 865.37 L499.13 863.84 L502.77 864.24 L506.45 866.43 L510.11 866.03 L513.82 867.17 L517.53 867.95 L521.30 869.24 L525.11 870.88 L529.53 879.77 L533.77 884.45 L537.67 884.73 L541.73 886.33 L545.27 883.13 L548.74 879.86 L551.63 872.85 L554.42 865.98 L557.51 861.89 L561.24 861.94 L564.73 860.59 L568.15 858.99 L571.44 856.80 L574.66 854.43 L578.50 855.04 L582.25 855.10 L586.40 856.74 L592.28 865.05 L597.03 868.29 L601.81 871.32 L605.32 869.58 L608.03 865.21 L609.54 857.13 L610.67 848.34 L612.19 841.28 L615.13 838.75 L618.97 838.89 L621.80 836.16 L625.19 835.01 L631.10 840.41 L637.85 847.54 L642.14 848.15 L648.82 854.35 L651.73 851.39 L653.28 845.45 L655.77 841.80 L654.22 829.63 L654.43 821.65 L657.23 819.26 L660.43 817.71 L663.79 816.46 L666.68 814.30 L673.68 819.74 L681.31 825.97 L685.18 825.21 L690.29 826.56 L697.37 831.05 L702.18 831.54 L703.49 826.30 L706.52 823.89 L706.83 817.34 L707.51 811.53 L706.64 803.60 L705.06 794.89 L705.66 789.54 L709.42 788.67 L712.72 787.13 L716.58 786.31 L720.17 785.09 L729.53 791.14 L735.43 792.57 L739.59 791.71 L742.36 789.14 L743.13 784.24 L743.73 779.23 L740.27 769.77 L738.53 762.49 L740.91 759.84 L743.84 757.78 L747.82 756.80 L749.87 753.79 L751.69 750.58 L754.46 748.32 L756.57 745.41 L758.26 742.14 L764.40 742.97 L773.86 746.66 L778.56 745.89 L783.50 745.25 L784.49 741.18 L784.22 736.10 L780.19 728.06 L776.32 720.35 L773.82 713.91 L776.45 711.55 L778.80 708.97 L779.48 705.14 L789.00 707.71 L796.89 708.91 L801.21 707.48 L809.63 708.75 L815.85 708.38 L819.27 706.08 L818.68 701.22 L814.71 694.33 L812.91 688.92 L810.46 683.24 L810.56 679.13 L816.99 678.64 L820.20 676.25 L826.13 675.29 L827.93 672.06 L826.90 667.37 L821.62 660.62 L817.17 654.46 L816.31 650.14 L816.42 646.34 L817.80 643.14 L821.71 641.05 L823.17 637.85 L823.81 634.31 L825.74 631.31 L825.23 627.34 L824.24 623.23 L825.92 620.15 L828.82 617.50 L828.38 613.65 L829.79 610.46 L834.82 608.43 L834.73 604.71 L835.70 601.34 L836.71 597.98 L836.88 594.39 L837.95 591.06 L835.66 586.85 L836.83 583.57 L837.67 580.20 L837.48 576.60 L839.38 573.47 L839.99 570.05 L841.81 566.87 L840.88 563.15 L838.23 559.17 L836.70 555.44 L838.10 552.20 L837.61 548.67 L836.33 545.06 L840.91 542.21 L843.61 539.06 L843.30 535.55 L844.42 532.19 L843.82 528.67 L841.92 525.07 L841.96 521.64 L843.33 518.28 L842.65 514.81 L842.06 511.36 L846.07 508.03 L846.34 504.57 L844.28 501.10 L845.99 497.64 L845.29 494.19 L845.15 490.74 L842.82 487.37 L841.10 484.02 L842.22 480.54 L840.48 477.22 L840.57 473.79 L840.46 470.37 L841.12 466.87 L840.36 463.51 L837.51 460.39 L834.74 457.32 L834.00 454.02 L833.39 450.70 L831.38 447.60 L832.39 444.03 L835.36 440.08 L834.63 436.75 L833.47 433.51 L833.34 430.06 L830.36 427.23 L827.54 424.41 L827.76 420.90 L828.24 417.30 L826.30 414.31 L826.51 410.75 L828.56 406.65 L825.96 403.86 L825.44 400.46 L824.27 397.26 L822.28 394.34 L820.94 391.21 L816.51 389.17 L816.50 385.61 L815.01 382.57 L813.20 379.67 L813.40 375.98 L811.80 372.99 L810.99 369.68 L808.10 367.26 L806.14 364.46 L802.10 362.61 L800.56 359.67 L800.55 356.00 L797.06 354.00 L798.38 349.63 L798.18 345.97 L795.83 343.42 L795.07 340.02 L792.05 337.86 L787.98 336.33 L786.84 333.16 L786.40 329.56 L783.12 327.66 L782.49 324.14 L784.22 319.10 L781.75 316.69 L780.12 313.73 L778.36 310.86 L775.37 308.84 L773.43 306.10 L769.03 305.16 L766.13 303.17 L764.62 300.16 L761.86 298.11 L760.04 295.33 L757.57 293.07 L757.16 289.13 L756.52 285.33 L751.99 284.80 L748.33 283.60 L746.92 280.44 L743.46 279.12 L739.89 277.94 L737.98 275.25 L736.63 272.00 L734.46 269.54 L732.32 267.02 L729.43 265.27 L725.93 264.18 L722.28 263.30 L720.06 260.92 L718.63 257.64 L714.72 257.14 L713.78 253.28 L713.04 249.11 L709.87 247.77 L707.56 245.41 L704.62 243.83 L701.99 241.87 L698.33 241.26 L694.40 241.06 L692.67 237.95 L689.23 237.16 L686.87 234.88 L684.08 233.22 L681.85 230.72 L679.33 228.65 L674.68 229.85 L671.07 229.54 L667.56 229.12 L665.05 227.13 L661.97 226.06 L659.27 224.37 L658.06 220.05 L655.86 217.38 L653.28 215.36 L650.48 213.75 L646.97 213.49 L643.21 213.81 L639.43 214.26 L637.93 210.01 L634.52 209.75 L630.79 210.22 L630.25 203.56 L627.26 202.32 L623.94 201.86 L621.22 199.98 L617.97 199.39 L614.53 199.35 L610.60 200.72 L607.91 198.75 L604.52 198.76 L601.18 198.70 L598.72 196.00 L595.32 196.15 L592.79 193.52 L589.16 194.52 L585.30 196.48 L581.84 197.21 L578.82 196.37 L575.72 195.81 L572.46 195.99 L570.07 192.42 L567.49 189.43 L564.37 188.83 L561.40 187.46 L558.13 187.64 L554.63 189.18 L551.19 190.66 L548.28 188.95 L545.25 187.93 L541.78 190.03 L539.17 185.66 L536.23 183.48 L532.92 184.51 L529.86 183.19 L526.64 183.49 L523.43 183.85 L520.14 185.68 L516.93 186.76 L513.82 186.09 L510.63 187.22 L507.53 186.06 L504.38 186.87 L501.25 185.52 L498.11 185.89 L495.03 189.83 L491.97 191.34 L488.92 192.46 L485.84 192.42 L482.78 192.86 L479.65 192.13 L476.32 189.13 L473.14 188.47 L470.01 188.58 L466.87 188.71 L463.97 190.84 L461.17 193.49 L458.27 195.08 L454.82 192.78 L452.00 194.85 L449.02 195.77 L445.15 191.60 L442.16 192.63 L439.08 193.22 L435.99 193.69 L433.09 195.10 L430.34 197.05 L428.01 200.66 L424.68 200.04 L422.10 202.38 L419.24 203.60 L415.96 203.28 L413.44 205.66 L409.64 203.72 L406.61 204.42 L404.96 209.34 L401.71 209.27 L395.46 200.68 L391.18 198.17 L388.36 199.79 L382.43 193.26 L379.88 195.75 L376.88 197.05 L373.12 196.54 L371.36 200.76 L367.27 199.58 L364.71 201.88 L363.35 206.71 L361.79 210.94 L362.94 220.56 L363.10 227.82 L361.50 231.37 L358.53 232.21 L354.65 231.40 L352.42 233.68 L348.90 233.65 L344.72 232.55 L341.97 233.97 L340.44 237.41 L338.44 240.02 L336.96 243.39 L334.80 245.64 L333.23 248.76 L332.57 253.16 L330.64 255.62 L327.86 256.84 L322.02 253.84 L314.76 249.12 L310.06 248.06 L302.41 243.31 L300.29 245.85 L301.05 251.97 L300.95 256.86 L304.64 266.17 L307.78 274.56 L306.62 277.74 L304.43 279.70 L304.72 284.41 L302.73 286.55 L294.44 281.99 L286.43 277.99 L282.83 278.71 L273.84 274.13 L266.82 271.72 L269.85 279.16 L271.55 285.13 L273.21 290.92 L280.08 301.29 L282.62 307.50 L282.50 311.24 L280.04 312.93 L278.41 315.33 L275.09 316.34 L271.85 317.47 L272.30 321.53 L271.05 324.22 L258.36 318.29 L252.56 317.77 L248.66 318.75 L241.15 317.23 L240.09 320.36 L236.99 322.07 L235.17 324.68 L235.92 328.95 L230.80 329.43 L231.04 333.33 L232.90 338.15 L234.87 342.95 L240.75 349.92 L244.96 355.74 L243.99 358.55 L242.65 361.15 L242.28 364.26 L240.67 366.71 L237.18 368.22 L236.41 371.12 L237.52 374.90 L235.88 377.34 L232.47 378.99 L232.48 382.21 L233.27 385.72 L231.63 388.18 L231.14 391.12 L230.65 394.05 L230.30 397.01 L222.78 397.30 L213.54 397.13 L210.35 399.24 L202.29 399.76 L203.77 403.55 L207.77 408.07 L201.64 409.41 L203.09 413.08 L203.85 416.51 L200.15 418.70 L203.91 422.89 L207.24 426.87 L207.60 430.06 L207.83 433.20 L206.79 436.04 L198.05 437.29 L192.46 439.33 L190.29 442.11 L193.10 445.81 L200.54 450.20 L205.47 454.05 L211.58 457.95 L212.08 460.96 L206.22 463.15 L204.26 465.91 L197.69 468.21 L195.92 471.09 L198.28 474.36 L206.41 478.01 L211.33 481.27 L203.83 483.76 L201.31 486.62 L197.11 489.46 L193.64 492.41 L195.17 495.49 L197.20 498.55 L205.05 501.54 L209.79 504.42 L211.05 507.29 L211.71 510.16 L212.81 513.00 L213.45 515.84 L211.67 518.83 L204.16 522.30 L201.51 525.50 L199.34 528.72 L198.87 531.80 L201.46 534.55 L206.52 536.94 L211.82 539.21 L216.48 541.47 L218.66 544.02 L219.81 546.72 L221.39 549.32 L223.93 551.73 L225.67 554.25 L227.69 556.68 L229.29 559.18 L228.72 562.15 L220.67 566.94 L216.58 570.93 L214.46 574.50 L211.34 578.41 L213.38 580.94 L217.80 582.74 L227.56 582.85 L234.92 583.52 L239.87 584.83 L240.36 587.55 L242.19 589.81 L244.72 591.81 L244.75 594.69 L234.79 601.41 L230.75 606.05 L230.19 609.40 L223.88 615.19 L228.94 616.27 L233.17 617.63 L240.42 617.55 L251.09 615.73 L255.77 616.54 L257.47 618.72 L259.11 620.92 L259.46 623.77 L262.47 625.24 L252.31 633.78 L247.73 639.53 L247.42 643.02 L244.87 647.85 L240.36 653.95 L241.36 656.88 L244.97 658.20 L249.68 658.77 L253.25 659.98 L256.99 661.03 L265.41 658.85 L270.16 659.01 L272.69 660.65 L274.93 662.46 L277.22 664.22 L279.36 666.08 L277.72 670.82 L274.18 677.16 L274.77 680.36 L273.81 684.87 L275.86 686.97 L279.65 687.57 L286.28 685.65 L294.51 682.14 L299.65 681.19 L301.74 682.94 L303.10 685.36 L303.73 688.51 L306.91 689.20 L308.38 691.55 L307.56 696.26 L310.39 697.28 L314.09 697.35 L308.05 707.88 L306.82 713.46 L308.98 715.37 L310.35 718.18 L314.10 718.23 L319.13 716.68 L327.22 711.24 L333.44 707.85 L338.07 706.27 L339.57 708.61 L342.50 709.09 L345.76 709.09 L339.67 721.96 L338.96 727.71 L339.38 732.00 L337.42 739.91 L337.75 744.66 L340.31 746.12 L345.34 743.65 L349.94 741.72 L354.41 739.84 L359.05 737.52 L359.33 742.53 L360.76 745.70 L362.45 748.48 L363.93 751.71 L367.36 751.35 L371.88 748.77 L378.70 741.43 L380.57 743.76 L380.64 749.90 L382.59 752.29 L381.95 760.43 L385.07 760.46 L388.92 758.69 L393.27 755.59 L398.97 748.92 L403.39 745.01 L406.27 744.86 L408.38 746.72 L410.69 748.08 L413.53 747.92 L413.24 757.01 L413.86 763.85 L416.41 764.98 L417.13 772.16 L420.54 770.64 L424.39 767.38 L428.59 762.53 L433.31 755.24 L436.51 753.31 L439.23 753.16 L441.63 754.36 L444.35 754.12 L446.54 756.36 L449.23 756.28 L452.56 752.69 L455.37 751.57 L458.04 751.08 L458.63 763.79 L460.86 766.98 L462.96 771.57 L465.00 777.25 L468.13 774.51 L471.17 772.04 L474.59 765.06 L477.81 758.69 L480.66 755.46 L483.22 755.50 L485.64 758.17 L488.29 756.78 L490.79 758.69 L493.08 770.58 L495.74 773.28 L498.46 776.66 L501.23 777.89 L503.96 774.36 L506.61 770.43 L508.98 760.70 L511.39 756.17 L513.79 753.21 L516.28 752.40 L518.95 754.10 L521.41 753.00 L524.10 754.42 L526.42 752.07 L528.63 749.08 L530.92 747.19 L534.60 755.87 L537.99 761.22 L540.73 761.68 L544.82 770.15 L547.28 768.30 L549.39 764.77 L551.11 759.56 L552.17 751.65 L553.65 746.34 L555.63 743.72 L558.45 744.74 L561.03 744.71 L562.80 741.49 L568.39 752.59 L572.47 757.41 L574.94 756.34 L579.37 761.74 L581.06 758.01 L582.71 754.33 L583.03 746.87 L582.90 738.58 L584.76 736.28 L586.64 734.12 L589.17 733.75 L591.00 731.56 L593.88 732.05 L596.07 730.79 L597.07 726.79 L598.67 724.29 L602.07 725.86 L608.41 733.65 L611.72 734.62 L616.86 739.20 L620.36 740.25 L621.24 736.08 L622.27 732.34 L620.90 724.27 L620.16 717.66 L620.74 713.63 L622.38 711.56 L625.91 712.72 L627.26 710.19 L631.53 712.41 L639.32 720.06 L642.77 720.58 L648.15 723.95 L649.06 720.51 L649.30 716.17 L649.72 712.21 L645.71 702.20 L645.59 697.83 L647.30 696.02 L649.00 694.21 L651.04 692.85 L652.95 691.31 L655.66 690.76 L657.11 688.65 L656.66 684.33 L658.72 683.01 L667.44 689.21 L672.21 690.72 L674.28 689.18 L681.35 692.94 L681.46 689.24 L681.35 685.38 L679.48 679.83 L675.71 672.57 L674.36 667.85 L676.92 666.94 L679.48 665.99 L679.41 662.63 L680.61 660.46 L691.10 666.38 L695.96 667.20 L698.41 665.89 L700.73 664.45 L701.82 662.00 L701.17 658.19 L695.10 650.29 L693.74 646.18 L695.27 644.29 L695.43 641.40 L697.12 639.65 L699.11 638.09 L701.27 636.63 L700.76 633.37 L700.56 630.36 L701.88 628.37 L706.44 628.39 L713.38 629.76 L716.68 628.82 L721.63 628.78 L722.45 626.30 L721.68 622.94 L717.87 618.00 L713.57 612.92 L710.51 608.63 L711.48 606.46 L714.11 605.11 L714.84 602.82 L714.63 600.09 L721.87 600.78 L730.28 601.83 L732.04 599.85 L737.57 599.43 L737.36 596.56 L735.54 593.09 L732.12 589.06 L724.81 583.69 L723.96 580.83 L722.63 577.84 L723.44 575.63 L725.59 573.85 L726.37 571.61 L732.57 571.02 L738.09 570.11 L740.41 568.19 L742.38 566.13 L749.30 565.35 L752.04 563.38 L749.25 560.04 L748.38 557.21 L744.07 553.65 L742.80 550.83 L737.27 547.20 L730.22 543.41 L727.36 540.52 L729.22 538.49 L730.75 536.38 L728.89 533.74 L730.50 531.63 L742.47 530.81 L745.63 528.71 L746.89 526.36 L747.59 523.93 L746.75 521.37 L742.56 518.56 L733.75 515.54 L731.43 513.06 L731.41 510.74 L729.86 508.36 L731.24 506.10 L731.88 503.80 L732.23 501.48 L730.43 499.16 L729.94 496.87 L729.22 494.58 L734.60 492.11 L740.85 489.49 L741.99 487.01 L745.22 484.38 L744.12 481.99 L741.58 479.75 L735.19 477.92 L728.96 476.19 L724.31 474.40 L724.84 472.06 L725.98 469.62 L724.39 467.55 L730.41 464.32 L736.63 460.93 L738.73 458.13 L743.49 454.78 L745.98 451.77 L745.89 449.23 L741.81 447.54 L733.92 446.80 L729.98 445.27 L726.33 443.74 L725.17 441.63 L729.02 438.18 L730.67 435.26 L734.61 431.61 L732.70 429.64 L727.99 428.57 L719.93 428.67 L715.36 427.77 L720.38 423.62 L721.54 420.73 L724.99 416.94 L726.42 413.84 L721.67 413.10 L717.24 412.31 L708.07 413.59 L700.05 414.56 L697.52 413.30 L698.05 410.69 L697.58 408.52 L698.53 405.66 L702.36 401.34 L708.22 395.90 L709.85 392.45 L711.72 388.80 L709.05 387.52 L704.72 387.20 L698.77 387.87 L689.87 390.37 L685.21 390.58 L684.90 388.25 L682.12 387.43 L682.44 384.69 L682.25 382.25 L679.57 381.42 L679.71 378.73 L678.58 376.87 L675.18 376.62 L682.26 368.88 L685.70 363.57 L683.69 362.20 L685.85 357.65 L683.28 356.68 L678.97 357.15 L670.64 360.98 L663.46 364.09 L658.91 365.17 L658.57 362.70 L656.64 361.61 L653.80 361.36 L653.05 359.23 L660.40 349.49 L662.65 344.28 L662.82 340.96 L666.33 334.26 L661.76 335.56 L657.97 336.17 L651.24 339.97 L642.88 345.76 L638.83 347.08 L637.16 345.86 L635.10 345.08 L633.94 343.27 L631.41 343.08 L638.55 331.16 L640.43 325.33 L640.22 321.98 L640.95 317.32 L643.03 310.75 L641.38 308.98 L638.49 308.92 L633.90 311.31 L629.08 314.19 L624.84 316.41 L617.88 322.86 L612.35 327.45 L610.32 326.80 L609.45 324.32 L608.20 322.39 L607.73 319.12 L608.84 313.03 L610.51 305.71 L609.51 302.92 L608.52 300.02 L605.61 300.64 L601.85 303.01 L597.01 307.67 L591.36 314.28 L588.52 315.42 L586.63 314.61 L585.33 312.54 L584.29 309.81 L581.47 311.10 L579.34 310.85 L577.36 310.28 L575.19 310.18 L572.70 310.97 L574.54 300.26 L575.02 292.67 L573.70 289.77 L572.06 287.65 L569.04 289.66 L567.09 288.51 L565.15 287.24 L562.18 289.45 L560.53 287.22 L558.25 287.17 L555.33 289.62 L553.78 286.87 L551.36 287.53 L548.91 288.41 L547.07 286.67 L544.53 288.13 L541.61 291.70 L537.44 302.30 L534.88 305.17 L533.22 303.15 L531.45 301.56 L530.70 292.89 L528.86 290.90 L527.05 288.44 L525.32 284.90 L523.27 283.69 L520.98 284.79 L518.59 287.28 L516.37 288.29 L514.44 285.32 L512.45 282.51 L510.24 283.01 L508.29 277.18 L505.98 280.05 L503.69 285.32 L501.58 279.43 L499.38 282.02 L497.22 283.73 L495.00 280.91 L492.89 283.65 L490.80 285.43 L489.05 292.88 L487.44 300.36 L485.65 303.30 L483.60 302.50 L481.61 302.44 L479.90 305.21 L477.88 304.77 L475.73 303.37 L473.80 303.91 L471.77 303.67 L470.07 305.67 L468.19 306.37 L465.96 305.03 L464.08 305.76 L462.36 307.21 L460.53 308.10 L458.78 309.26 L456.47 307.89 L452.43 299.38 L449.89 297.73 L446.63 293.42 L443.92 291.56 L443.19 296.99 L441.86 299.94 L442.43 309.06 L443.35 318.70 L442.42 321.98 L440.16 321.14 L439.30 324.41 L437.95 326.15 L434.25 321.46 L428.63 312.01 L425.72 310.09 L421.21 304.35 L416.38 298.21 L416.18 303.30 L416.71 309.85 L416.45 314.32 L417.34 321.11 L415.61 322.05 L414.81 324.91 L410.93 321.50 L407.59 319.35 L405.41 319.55 L402.43 318.32 L400.37 318.85 L399.56 321.62 L394.92 317.67 L392.14 317.10 L391.54 320.21 L388.11 318.67 L388.61 323.44 L388.62 327.32 L384.64 325.00 L384.74 328.90 L382.45 329.21 L380.07 329.43 L380.17 333.15 L379.44 335.63 L382.78 343.49 L385.77 350.62 L386.09 354.09 L384.46 355.01 L384.92 358.52 L383.58 359.75 L381.40 360.00 L381.27 362.66 L380.50 364.53 L378.58 365.10 L376.68 365.71 L377.38 369.13 L375.88 370.15 L373.78 370.56 L373.54 372.89 L371.56 373.45 L369.02 373.51 L365.95 373.11 L356.59 366.95 L352.24 365.63 L346.76 363.42 L345.98 365.47 L348.43 370.26 L343.07 368.36 L343.74 371.57 L346.33 376.25 L340.26 373.98 L341.30 377.35 L344.15 382.03 L344.48 384.70 L343.74 386.56 L342.25 387.86 L335.94 385.83 L330.47 384.52 L327.15 384.78 L327.21 387.30 L332.67 393.23 L336.85 398.17 L340.70 402.78 L344.03 406.94 L337.02 404.95 L333.68 405.22 L327.94 404.22 L325.90 405.35 L326.49 407.91 L331.12 412.52 L337.50 417.87 L338.57 420.43 L338.87 422.57 L339.27 424.73 L335.62 425.02 L334.39 426.45 L335.06 428.71 L334.03 430.23 L335.11 432.61 L336.63 435.13 L335.59 436.62 L333.60 437.75 L334.79 440.07 L334.81 441.94 L328.46 441.63 L328.75 443.64 L328.70 445.51 L327.63 447.06 L327.91 449.03 L327.68 450.83 L330.26 453.40 L330.43 455.26 L329.40 456.81 L330.19 458.81 L329.50 460.44 L329.22 462.17 L327.03 463.50 L328.14 465.53 L330.76 467.81 L332.55 469.88 L331.02 471.35 L330.44 472.99 L331.70 474.91 L327.77 476.09 L325.20 477.51 L326.09 479.39 L326.68 481.21 L327.09 483.01 L328.98 484.92 L329.65 486.69 L328.60 488.33 L328.37 490.04 L329.13 491.80 L325.51 493.37 L324.15 495.08 L326.20 496.88 L324.54 498.60 L325.50 500.36 L326.26 502.09 L327.80 503.80 L330.57 505.43 L328.93 507.20 L330.48 508.83 L330.58 510.52 L329.73 512.29 L329.56 514.01 L328.13 515.86 L329.55 517.45 L331.84 518.92 L330.90 520.74 L330.04 522.57 L332.04 524.02 L332.50 525.66 L330.60 527.69 L331.71 529.24 L333.69 530.61 L333.62 532.35 L336.26 533.54 L338.98 534.66 L338.88 536.37 L337.60 538.37 L339.55 539.61 L339.14 541.42 L334.96 544.26 L336.63 545.57 L337.09 547.21 L337.32 548.91 L339.01 550.16 L340.02 551.61 L343.89 552.09 L344.32 553.68 L344.84 555.24 L346.44 556.41 L345.57 558.49 L346.47 559.91 L346.06 561.85 L347.85 562.90 L349.61 563.94 L352.46 564.48 L352.33 566.31 L351.56 568.44 L354.44 568.89 L352.29 571.72 L351.62 573.89 L353.67 574.71 L354.57 576.09 L356.37 576.99 L359.58 577.08 L360.26 578.54 L360.03 580.52 L361.78 581.37 L361.43 583.44 L358.88 586.92 L359.97 588.19 L360.65 589.72 L360.71 591.67 L362.97 592.15 L364.32 593.23 L367.33 593.13 L370.32 592.98 L370.58 594.77 L371.48 596.09 L372.24 597.54 L373.29 598.76 L372.51 601.43 L372.19 603.79 L375.30 603.34 L378.94 602.39 L379.53 603.97 L381.70 604.18 L384.19 604.07 L385.52 604.96 L385.40 607.20 L386.09 608.71 L387.21 609.81 L388.62 610.64 L390.81 610.65 L393.37 610.24 L395.13 610.62 L394.41 613.62 L396.87 613.23 L397.80 614.48 L396.22 618.62 L397.83 619.17 L399.13 620.06 L400.44 620.94 L401.97 621.54 L404.04 621.44 L406.91 620.25 L407.05 622.59 L409.21 622.26 L410.45 623.13 L411.33 624.53 L412.58 625.41 L413.17 627.25 L416.15 625.57 L418.64 624.52 L420.68 624.09 L421.78 625.11 L423.40 625.29 L425.15 625.21 L424.59 629.07 L425.10 631.20 L426.21 632.30 L427.30 633.48 L429.21 633.11 L431.46 632.05 L433.67 630.98 L433.90 633.83 L435.54 633.87 L438.06 631.98 L436.96 637.91 L438.11 639.06 L439.98 638.58 L440.95 640.14 L442.57 640.20 L444.34 639.87 L446.60 638.18 L447.99 638.69 L449.51 638.86 L451.30 638.21 L452.21 640.09 L454.12 639.02 L454.85 641.56 L456.65 640.74 L459.02 637.97 L460.81 636.92 L462.28 636.94 L463.70 637.13 L465.20 637.02 L466.14 639.12 L466.90 642.18 L468.27 642.72 L469.58 643.58 L471.09 643.53 L472.90 641.85 L474.70 640.05 L476.07 640.47 L477.23 642.21 L478.98 640.27 L480.08 642.62 L481.11 645.88 L482.69 645.03 L484.10 645.61 L485.59 645.39 L487.09 645.11 L488.69 643.36 L490.28 641.10 L491.61 642.62 L493.11 641.26 L494.50 641.89 L495.91 642.02 L497.33 642.50 L498.75 642.88 L500.17 639.42 L501.55 637.48 L502.89 635.81 L504.26 636.46 L505.62 636.14 L506.98 636.09 L508.55 639.47 L510.05 640.78 L511.45 640.67 L512.91 641.13 L514.16 639.36 L515.28 636.82 L516.43 634.88 L518.18 637.70 L519.39 636.34 L520.41 633.95 L522.70 639.55 L524.11 639.43 L525.34 638.28 L526.90 638.95 L528.16 638.05 L529.31 636.69 L530.05 633.61 L531.54 633.97 L532.61 632.55 L533.66 631.13 L535.39 632.36 L536.41 630.93 L538.33 632.67 L539.17 630.67 L539.59 627.42 L540.44 625.69 L544.29 633.09 L547.71 638.72 L549.25 638.69 L553.70 646.56 L554.53 644.32 L553.94 638.55 L552.82 631.77 L550.58 622.61 L549.92 617.67 L550.79 616.47 L551.93 615.89 L552.92 615.01 L554.14 614.62 L559.77 623.35 L563.62 628.01 L565.51 628.58 L571.21 636.37 L571.24 633.16 L569.92 627.61 L567.74 620.75 L564.48 612.30 L563.26 607.67 L564.24 606.87 L565.35 606.30 L565.94 604.89 L567.14 604.47 L566.45 601.16 L565.89 598.14 L566.06 596.31 L569.32 598.92 L578.91 610.25 L583.00 613.54 L587.96 617.84 L591.13 619.57 L589.21 614.66 L587.54 610.22 L582.26 601.46 L579.15 595.66 L577.56 591.85 L578.91 591.58 L580.54 591.60 L580.80 590.06 L585.02 592.88 L592.93 599.50 L595.71 600.45 L602.18 605.12 L603.97 604.84 L601.41 600.23 L598.65 595.58 L592.03 587.39 L591.62 585.28 L594.36 586.08 L594.81 584.77 L600.81 588.34 L603.47 588.86 L604.31 587.78 L604.99 586.57 L606.22 585.82 L608.52 585.89 L613.50 588.00 L616.46 588.45 L618.57 588.20 L621.06 588.18 L616.73 583.25 L612.53 578.57 L607.13 573.22 L600.48 567.22 L597.29 563.68 L595.47 561.13 L596.55 560.47 L597.51 559.72 L596.47 557.77 L608.95 563.77 L614.77 565.65 L618.04 565.96 L624.98 568.21 L621.35 564.66 L619.66 562.23 L612.83 557.25 L602.84 550.90 L600.61 548.55 L599.91 546.98 L598.05 544.91 L596.79 543.17 L596.85 542.04 L597.09 541.00 L597.32 539.95 L597.54 538.91 L605.96 541.04 L617.88 544.31 L622.18 544.54 L630.85 546.22 L631.56 545.00 L626.87 541.98 L622.24 539.10 L612.76 534.83 L607.97 532.17 L604.68 530.05 L603.65 528.64 L605.77 528.09 L604.67 526.68 L612.14 527.39 L622.06 528.52 L624.97 527.89 L634.37 528.58 L631.59 526.61 L627.06 524.38 L621.84 522.11 L610.22 518.87 L602.11 516.43 L599.96 515.06 L599.73 514.01 L599.65 512.98 L599.57 511.96 L599.49 510.94 L599.41 509.93 L599.31 508.92 L599.21 507.91 L599.10 506.90 L598.98 505.90 L598.85 504.90 L598.71 503.91 L598.55 502.91 L598.39 501.92 L598.22 500.94 Z"/>
  <svg class="pausebutton" id="pausebutton">
    <circle cx="500" cy="500" id="pausestart" class="pausestart" r="52.65"/>
    <rect height="50.02" width="10.00" y="473.68" rx="2.00" ry="2.00" x="479.99" class="pausesymbol"/>
    <rect height="50.02" width="10.00" y="473.68" rx="2.00" ry="2.00" x="510.00" class="pausesymbol"/>
    <polygon points="530.01,500 479.99,530.01 479.99,469.99" class="playsymbol"/>
  </svg>
  <polygon id="playback-head" class="playback-head" points="941.65,500 921.65,540 961.65,540"/>
</svg>